<?xml version="1.0" encoding="UTF-8" standalone="no"?>
<!DOCTYPE svg PUBLIC "-//W3C//DTD SVG 1.1//EN"
 "http://www.w3.org/Graphics/SVG/1.1/DTD/svg11.dtd">
<!-- Generated by graphviz version 2.40.1 (20161225.0304)
 -->
<!-- Title: geant4/tree/geant4&#45;10.6&#45;release/source/persistency/ascii/include/G4tgrPlace.hh Pages: 1 -->
<svg width="3085pt" height="344pt"
 viewBox="0.00 0.00 3084.50 344.00" xmlns="http://www.w3.org/2000/svg" xmlns:xlink="http://www.w3.org/1999/xlink">
<g id="graph0" class="graph" transform="scale(1 1) rotate(0) translate(4 340)">
<title>geant4/tree/geant4&#45;10.6&#45;release/source/persistency/ascii/include/G4tgrPlace.hh</title>
<!-- Node1 -->
<g id="node1" class="node">
<title>Node1</title>
<polygon fill="#bfbfbf" stroke="#000000" points="795,-279.5 795,-335.5 940,-335.5 940,-279.5 795,-279.5"/>
<text text-anchor="start" x="803" y="-322.5" font-family="FreeSans" font-size="10.00" fill="#000000">geant4/tree/geant4</text>
<text text-anchor="start" x="803" y="-310.5" font-family="FreeSans" font-size="10.00" fill="#000000">&#45;10.6&#45;release/source</text>
<text text-anchor="start" x="803" y="-298.5" font-family="FreeSans" font-size="10.00" fill="#000000">/persistency/ascii/include</text>
<text text-anchor="middle" x="867.5" y="-286.5" font-family="FreeSans" font-size="10.00" fill="#000000">/G4tgrPlace.hh</text>
</g>
<!-- Node2 -->
<g id="node2" class="node">
<title>Node2</title>
<g id="a_node2"><a xlink:href="../../d4/d4f/G4tgrPlaceDivRep_8hh.html" target="_top" xlink:title="geant4/tree/geant4\l&#45;10.6&#45;release/source\l/persistency/ascii/include\l/G4tgrPlaceDivRep.hh">
<polygon fill="none" stroke="#000000" points="461,-186.5 461,-242.5 606,-242.5 606,-186.5 461,-186.5"/>
<text text-anchor="start" x="469" y="-229.5" font-family="FreeSans" font-size="10.00" fill="#000000">geant4/tree/geant4</text>
<text text-anchor="start" x="469" y="-217.5" font-family="FreeSans" font-size="10.00" fill="#000000">&#45;10.6&#45;release/source</text>
<text text-anchor="start" x="469" y="-205.5" font-family="FreeSans" font-size="10.00" fill="#000000">/persistency/ascii/include</text>
<text text-anchor="middle" x="533.5" y="-193.5" font-family="FreeSans" font-size="10.00" fill="#000000">/G4tgrPlaceDivRep.hh</text>
</a>
</g>
</g>
<!-- Node1&#45;&gt;Node2 -->
<g id="edge1" class="edge">
<title>Node1&#45;&gt;Node2</title>
<path fill="none" stroke="#191970" d="M784.9307,-284.5091C730.136,-269.2519 658.8854,-249.4127 606.2296,-234.7511"/>
<polygon fill="#191970" stroke="#191970" points="784.0426,-287.8949 794.615,-287.2057 785.9203,-281.1515 784.0426,-287.8949"/>
</g>
<!-- Node4 -->
<g id="node4" class="node">
<title>Node4</title>
<g id="a_node4"><a xlink:href="../../dc/d8a/G4tgbVolume_8cc.html" target="_top" xlink:title="geant4/tree/geant4\l&#45;10.6&#45;release/source\l/persistency/ascii/src\l/G4tgbVolume.cc">
<polygon fill="none" stroke="#000000" points="159,-.5 159,-56.5 282,-56.5 282,-.5 159,-.5"/>
<text text-anchor="start" x="167" y="-43.5" font-family="FreeSans" font-size="10.00" fill="#000000">geant4/tree/geant4</text>
<text text-anchor="start" x="167" y="-31.5" font-family="FreeSans" font-size="10.00" fill="#000000">&#45;10.6&#45;release/source</text>
<text text-anchor="start" x="167" y="-19.5" font-family="FreeSans" font-size="10.00" fill="#000000">/persistency/ascii/src</text>
<text text-anchor="middle" x="220.5" y="-7.5" font-family="FreeSans" font-size="10.00" fill="#000000">/G4tgbVolume.cc</text>
</a>
</g>
</g>
<!-- Node1&#45;&gt;Node4 -->
<g id="edge44" class="edge">
<title>Node1&#45;&gt;Node4</title>
<path fill="none" stroke="#191970" d="M784.5821,-300.3643C625.9263,-284.7267 289.4196,-241.3051 225.5,-150 206.4307,-122.7608 208.933,-83.0492 213.6817,-56.5225"/>
<polygon fill="#191970" stroke="#191970" points="784.4789,-303.8706 794.7706,-301.3543 785.156,-296.9035 784.4789,-303.8706"/>
</g>
<!-- Node7 -->
<g id="node7" class="node">
<title>Node7</title>
<g id="a_node7"><a xlink:href="../../d5/dbd/G4tgrVolumeDivision_8cc.html" target="_top" xlink:title="geant4/tree/geant4\l&#45;10.6&#45;release/source\l/persistency/ascii/src\l/G4tgrVolumeDivision.cc">
<polygon fill="none" stroke="#000000" points="0,-.5 0,-56.5 141,-56.5 141,-.5 0,-.5"/>
<text text-anchor="start" x="8" y="-43.5" font-family="FreeSans" font-size="10.00" fill="#000000">geant4/tree/geant4</text>
<text text-anchor="start" x="8" y="-31.5" font-family="FreeSans" font-size="10.00" fill="#000000">&#45;10.6&#45;release/source</text>
<text text-anchor="start" x="8" y="-19.5" font-family="FreeSans" font-size="10.00" fill="#000000">/persistency/ascii/src</text>
<text text-anchor="middle" x="70.5" y="-7.5" font-family="FreeSans" font-size="10.00" fill="#000000">/G4tgrVolumeDivision.cc</text>
</a>
</g>
</g>
<!-- Node1&#45;&gt;Node7 -->
<g id="edge47" class="edge">
<title>Node1&#45;&gt;Node7</title>
<path fill="none" stroke="#191970" d="M784.9064,-305.7569C642.165,-301.5767 356.0934,-287.7235 267.5,-243 182.6429,-200.1626 116.1763,-104.5614 86.8531,-56.7957"/>
<polygon fill="#191970" stroke="#191970" points="784.836,-309.2562 794.9314,-306.0414 785.0347,-302.259 784.836,-309.2562"/>
</g>
<!-- Node9 -->
<g id="node9" class="node">
<title>Node9</title>
<g id="a_node9"><a xlink:href="../../d0/d89/G4tgrVolume_8cc.html" target="_top" xlink:title="geant4/tree/geant4\l&#45;10.6&#45;release/source\l/persistency/ascii/src\l/G4tgrVolume.cc">
<polygon fill="none" stroke="#000000" points="735,-.5 735,-56.5 858,-56.5 858,-.5 735,-.5"/>
<text text-anchor="start" x="743" y="-43.5" font-family="FreeSans" font-size="10.00" fill="#000000">geant4/tree/geant4</text>
<text text-anchor="start" x="743" y="-31.5" font-family="FreeSans" font-size="10.00" fill="#000000">&#45;10.6&#45;release/source</text>
<text text-anchor="start" x="743" y="-19.5" font-family="FreeSans" font-size="10.00" fill="#000000">/persistency/ascii/src</text>
<text text-anchor="middle" x="796.5" y="-7.5" font-family="FreeSans" font-size="10.00" fill="#000000">/G4tgrVolume.cc</text>
</a>
</g>
</g>
<!-- Node1&#45;&gt;Node9 -->
<g id="edge46" class="edge">
<title>Node1&#45;&gt;Node9</title>
<path fill="none" stroke="#191970" d="M869.3609,-269.0354C870.1548,-224.9629 867.3388,-151.3133 844.5,-93 839.4096,-80.0029 830.9718,-67.3178 822.5786,-56.6843"/>
<polygon fill="#191970" stroke="#191970" points="865.8551,-269.2231 869.1001,-279.3087 872.8529,-269.4008 865.8551,-269.2231"/>
</g>
<!-- Node11 -->
<g id="node11" class="node">
<title>Node11</title>
<g id="a_node11"><a xlink:href="../../d8/d6e/G4tgrPlaceParameterisation_8hh.html" target="_top" xlink:title="geant4/tree/geant4\l&#45;10.6&#45;release/source\l/persistency/ascii/include\l/G4tgrPlaceParameterisation.hh">
<polygon fill="none" stroke="#000000" points="1094.5,-93.5 1094.5,-149.5 1272.5,-149.5 1272.5,-93.5 1094.5,-93.5"/>
<text text-anchor="start" x="1102.5" y="-136.5" font-family="FreeSans" font-size="10.00" fill="#000000">geant4/tree/geant4</text>
<text text-anchor="start" x="1102.5" y="-124.5" font-family="FreeSans" font-size="10.00" fill="#000000">&#45;10.6&#45;release/source</text>
<text text-anchor="start" x="1102.5" y="-112.5" font-family="FreeSans" font-size="10.00" fill="#000000">/persistency/ascii/include</text>
<text text-anchor="middle" x="1183.5" y="-100.5" font-family="FreeSans" font-size="10.00" fill="#000000">/G4tgrPlaceParameterisation.hh</text>
</a>
</g>
</g>
<!-- Node1&#45;&gt;Node11 -->
<g id="edge14" class="edge">
<title>Node1&#45;&gt;Node11</title>
<path fill="none" stroke="#191970" d="M916.1089,-273.1517C928.1208,-263.8722 940.6473,-253.4824 951.5,-243 975.1171,-220.1887 971.5563,-204.7659 998.5,-186 1014.898,-174.579 1055.2165,-160.0541 1094.0427,-147.6807"/>
<polygon fill="#191970" stroke="#191970" points="913.7479,-270.5498 907.902,-279.386 917.9822,-276.1239 913.7479,-270.5498"/>
</g>
<!-- Node17 -->
<g id="node17" class="node">
<title>Node17</title>
<g id="a_node17"><a xlink:href="../../d9/de6/G4tgrPlaceSimple_8hh.html" target="_top" xlink:title="geant4/tree/geant4\l&#45;10.6&#45;release/source\l/persistency/ascii/include\l/G4tgrPlaceSimple.hh">
<polygon fill="none" stroke="#000000" points="691,-93.5 691,-149.5 836,-149.5 836,-93.5 691,-93.5"/>
<text text-anchor="start" x="699" y="-136.5" font-family="FreeSans" font-size="10.00" fill="#000000">geant4/tree/geant4</text>
<text text-anchor="start" x="699" y="-124.5" font-family="FreeSans" font-size="10.00" fill="#000000">&#45;10.6&#45;release/source</text>
<text text-anchor="start" x="699" y="-112.5" font-family="FreeSans" font-size="10.00" fill="#000000">/persistency/ascii/include</text>
<text text-anchor="middle" x="763.5" y="-100.5" font-family="FreeSans" font-size="10.00" fill="#000000">/G4tgrPlaceSimple.hh</text>
</a>
</g>
</g>
<!-- Node1&#45;&gt;Node17 -->
<g id="edge25" class="edge">
<title>Node1&#45;&gt;Node17</title>
<path fill="none" stroke="#191970" d="M846.6201,-270.1571C826.7399,-234.6022 797.2599,-181.8782 779.2733,-149.7099"/>
<polygon fill="#191970" stroke="#191970" points="843.7694,-272.2305 851.7046,-279.2506 849.8792,-268.8142 843.7694,-272.2305"/>
</g>
<!-- Node19 -->
<g id="node19" class="node">
<title>Node19</title>
<g id="a_node19"><a xlink:href="../../d0/dc2/G4tgrVolumeMgr_8hh.html" target="_top" xlink:title="geant4/tree/geant4\l&#45;10.6&#45;release/source\l/persistency/ascii/include\l/G4tgrVolumeMgr.hh">
<polygon fill="none" stroke="#000000" points="931,-93.5 931,-149.5 1076,-149.5 1076,-93.5 931,-93.5"/>
<text text-anchor="start" x="939" y="-136.5" font-family="FreeSans" font-size="10.00" fill="#000000">geant4/tree/geant4</text>
<text text-anchor="start" x="939" y="-124.5" font-family="FreeSans" font-size="10.00" fill="#000000">&#45;10.6&#45;release/source</text>
<text text-anchor="start" x="939" y="-112.5" font-family="FreeSans" font-size="10.00" fill="#000000">/persistency/ascii/include</text>
<text text-anchor="middle" x="1003.5" y="-100.5" font-family="FreeSans" font-size="10.00" fill="#000000">/G4tgrVolumeMgr.hh</text>
</a>
</g>
</g>
<!-- Node1&#45;&gt;Node19 -->
<g id="edge30" class="edge">
<title>Node1&#45;&gt;Node19</title>
<path fill="none" stroke="#191970" d="M895.3682,-271.1894C902.3213,-262.0279 909.7252,-252.1844 916.5,-243 939.909,-211.2651 966.1907,-174.3819 983.6812,-149.6518"/>
<polygon fill="#191970" stroke="#191970" points="892.4111,-269.2956 889.1403,-279.3729 897.9815,-273.5349 892.4111,-269.2956"/>
</g>
<!-- Node27 -->
<g id="node27" class="node">
<title>Node27</title>
<g id="a_node27"><a xlink:href="../../d3/de6/G4tgrPlace_8cc.html" target="_top" xlink:title="geant4/tree/geant4\l&#45;10.6&#45;release/source\l/persistency/ascii/src\l/G4tgrPlace.cc">
<polygon fill="none" stroke="#000000" points="1007,-186.5 1007,-242.5 1130,-242.5 1130,-186.5 1007,-186.5"/>
<text text-anchor="start" x="1015" y="-229.5" font-family="FreeSans" font-size="10.00" fill="#000000">geant4/tree/geant4</text>
<text text-anchor="start" x="1015" y="-217.5" font-family="FreeSans" font-size="10.00" fill="#000000">&#45;10.6&#45;release/source</text>
<text text-anchor="start" x="1015" y="-205.5" font-family="FreeSans" font-size="10.00" fill="#000000">/persistency/ascii/src</text>
<text text-anchor="middle" x="1068.5" y="-193.5" font-family="FreeSans" font-size="10.00" fill="#000000">/G4tgrPlace.cc</text>
</a>
</g>
</g>
<!-- Node1&#45;&gt;Node27 -->
<g id="edge45" class="edge">
<title>Node1&#45;&gt;Node27</title>
<path fill="none" stroke="#191970" d="M937.3953,-275.1604C960.2912,-264.5668 985.5298,-252.8892 1007.698,-242.6323"/>
<polygon fill="#191970" stroke="#191970" points="935.6851,-272.0951 928.0792,-279.4708 938.6246,-278.4481 935.6851,-272.0951"/>
</g>
<!-- Node3 -->
<g id="node3" class="node">
<title>Node3</title>
<g id="a_node3"><a xlink:href="../../de/d05/G4tgrVolumeDivision_8hh.html" target="_top" xlink:title="geant4/tree/geant4\l&#45;10.6&#45;release/source\l/persistency/ascii/include\l/G4tgrVolumeDivision.hh">
<polygon fill="none" stroke="#000000" points="269,-93.5 269,-149.5 414,-149.5 414,-93.5 269,-93.5"/>
<text text-anchor="start" x="277" y="-136.5" font-family="FreeSans" font-size="10.00" fill="#000000">geant4/tree/geant4</text>
<text text-anchor="start" x="277" y="-124.5" font-family="FreeSans" font-size="10.00" fill="#000000">&#45;10.6&#45;release/source</text>
<text text-anchor="start" x="277" y="-112.5" font-family="FreeSans" font-size="10.00" fill="#000000">/persistency/ascii/include</text>
<text text-anchor="middle" x="341.5" y="-100.5" font-family="FreeSans" font-size="10.00" fill="#000000">/G4tgrVolumeDivision.hh</text>
</a>
</g>
</g>
<!-- Node2&#45;&gt;Node3 -->
<g id="edge2" class="edge">
<title>Node2&#45;&gt;Node3</title>
<path fill="none" stroke="#191970" d="M466.4426,-182.0191C444.6494,-171.463 420.661,-159.8436 399.5795,-149.6323"/>
<polygon fill="#191970" stroke="#191970" points="465.1077,-185.2614 475.6333,-186.4708 468.1592,-178.9615 465.1077,-185.2614"/>
</g>
<!-- Node2&#45;&gt;Node4 -->
<g id="edge7" class="edge">
<title>Node2&#45;&gt;Node4</title>
<path fill="none" stroke="#191970" d="M450.7373,-204.0861C380.5973,-193.6696 287.1307,-175.5194 259.5,-150 233.3794,-125.8753 224.6818,-84.2427 221.8277,-56.5381"/>
<polygon fill="#191970" stroke="#191970" points="450.506,-207.5893 460.906,-205.5668 451.5147,-200.6623 450.506,-207.5893"/>
</g>
<!-- Node5 -->
<g id="node5" class="node">
<title>Node5</title>
<g id="a_node5"><a xlink:href="../../d3/da0/G4tgrFileReader_8cc.html" target="_top" xlink:title="geant4/tree/geant4\l&#45;10.6&#45;release/source\l/persistency/ascii/src\l/G4tgrFileReader.cc">
<polygon fill="none" stroke="#000000" points="300,-.5 300,-56.5 423,-56.5 423,-.5 300,-.5"/>
<text text-anchor="start" x="308" y="-43.5" font-family="FreeSans" font-size="10.00" fill="#000000">geant4/tree/geant4</text>
<text text-anchor="start" x="308" y="-31.5" font-family="FreeSans" font-size="10.00" fill="#000000">&#45;10.6&#45;release/source</text>
<text text-anchor="start" x="308" y="-19.5" font-family="FreeSans" font-size="10.00" fill="#000000">/persistency/ascii/src</text>
<text text-anchor="middle" x="361.5" y="-7.5" font-family="FreeSans" font-size="10.00" fill="#000000">/G4tgrFileReader.cc</text>
</a>
</g>
</g>
<!-- Node2&#45;&gt;Node5 -->
<g id="edge8" class="edge">
<title>Node2&#45;&gt;Node5</title>
<path fill="none" stroke="#191970" d="M490.9371,-179.4351C480.8315,-170.2975 470.4081,-160.1532 461.5,-150 441.2559,-126.9263 441.7722,-116.8916 422.5,-93 412.4362,-80.524 400.4819,-67.5397 389.834,-56.5192"/>
<polygon fill="#191970" stroke="#191970" points="488.7694,-182.1909 498.5725,-186.2098 493.4153,-176.9548 488.7694,-182.1909"/>
</g>
<!-- Node6 -->
<g id="node6" class="node">
<title>Node6</title>
<g id="a_node6"><a xlink:href="../../d9/d47/G4tgrLineProcessor_8cc.html" target="_top" xlink:title="geant4/tree/geant4\l&#45;10.6&#45;release/source\l/persistency/ascii/src\l/G4tgrLineProcessor.cc">
<polygon fill="none" stroke="#000000" points="584.5,-.5 584.5,-56.5 716.5,-56.5 716.5,-.5 584.5,-.5"/>
<text text-anchor="start" x="592.5" y="-43.5" font-family="FreeSans" font-size="10.00" fill="#000000">geant4/tree/geant4</text>
<text text-anchor="start" x="592.5" y="-31.5" font-family="FreeSans" font-size="10.00" fill="#000000">&#45;10.6&#45;release/source</text>
<text text-anchor="start" x="592.5" y="-19.5" font-family="FreeSans" font-size="10.00" fill="#000000">/persistency/ascii/src</text>
<text text-anchor="middle" x="650.5" y="-7.5" font-family="FreeSans" font-size="10.00" fill="#000000">/G4tgrLineProcessor.cc</text>
</a>
</g>
</g>
<!-- Node2&#45;&gt;Node6 -->
<g id="edge9" class="edge">
<title>Node2&#45;&gt;Node6</title>
<path fill="none" stroke="#191970" d="M579.3868,-179.5054C588.9325,-170.6546 598.2737,-160.6195 605.5,-150 625.1779,-121.0819 637.5535,-82.466 644.2375,-56.6032"/>
<polygon fill="#191970" stroke="#191970" points="576.8584,-177.0706 571.7241,-186.3383 581.5172,-182.2952 576.8584,-177.0706"/>
</g>
<!-- Node2&#45;&gt;Node7 -->
<g id="edge13" class="edge">
<title>Node2&#45;&gt;Node7</title>
<path fill="none" stroke="#191970" d="M450.8101,-207.5279C386.8749,-199.7326 297.4323,-183.4811 225.5,-150 175.5925,-126.7704 127.1532,-84.7032 98.075,-56.6805"/>
<polygon fill="#191970" stroke="#191970" points="450.5053,-211.0161 460.8456,-208.7078 451.3227,-204.064 450.5053,-211.0161"/>
</g>
<!-- Node8 -->
<g id="node8" class="node">
<title>Node8</title>
<g id="a_node8"><a xlink:href="../../dc/d77/G4tgrPlaceDivRep_8cc.html" target="_top" xlink:title="geant4/tree/geant4\l&#45;10.6&#45;release/source\l/persistency/ascii/src\l/G4tgrPlaceDivRep.cc">
<polygon fill="none" stroke="#000000" points="470.5,-93.5 470.5,-149.5 596.5,-149.5 596.5,-93.5 470.5,-93.5"/>
<text text-anchor="start" x="478.5" y="-136.5" font-family="FreeSans" font-size="10.00" fill="#000000">geant4/tree/geant4</text>
<text text-anchor="start" x="478.5" y="-124.5" font-family="FreeSans" font-size="10.00" fill="#000000">&#45;10.6&#45;release/source</text>
<text text-anchor="start" x="478.5" y="-112.5" font-family="FreeSans" font-size="10.00" fill="#000000">/persistency/ascii/src</text>
<text text-anchor="middle" x="533.5" y="-100.5" font-family="FreeSans" font-size="10.00" fill="#000000">/G4tgrPlaceDivRep.cc</text>
</a>
</g>
</g>
<!-- Node2&#45;&gt;Node8 -->
<g id="edge10" class="edge">
<title>Node2&#45;&gt;Node8</title>
<path fill="none" stroke="#191970" d="M533.5,-176.1582C533.5,-167.2499 533.5,-157.9293 533.5,-149.5597"/>
<polygon fill="#191970" stroke="#191970" points="530.0001,-176.3445 533.5,-186.3446 537.0001,-176.3446 530.0001,-176.3445"/>
</g>
<!-- Node2&#45;&gt;Node9 -->
<g id="edge11" class="edge">
<title>Node2&#45;&gt;Node9</title>
<path fill="none" stroke="#191970" d="M592.1119,-180.8407C606.2605,-171.6158 620.9158,-161.079 633.5,-150 658.3582,-128.1149 655.9785,-114.1079 681.5,-93 698.1696,-79.2132 718.2028,-66.8159 736.8448,-56.6608"/>
<polygon fill="#191970" stroke="#191970" points="589.9365,-178.077 583.3909,-186.4081 593.7031,-183.9773 589.9365,-178.077"/>
</g>
<!-- Node10 -->
<g id="node10" class="node">
<title>Node10</title>
<g id="a_node10"><a xlink:href="../../d8/d0d/G4tgrVolumeAssembly_8cc.html" target="_top" xlink:title="geant4/tree/geant4\l&#45;10.6&#45;release/source\l/persistency/ascii/src\l/G4tgrVolumeAssembly.cc">
<polygon fill="none" stroke="#000000" points="876,-.5 876,-56.5 1025,-56.5 1025,-.5 876,-.5"/>
<text text-anchor="start" x="884" y="-43.5" font-family="FreeSans" font-size="10.00" fill="#000000">geant4/tree/geant4</text>
<text text-anchor="start" x="884" y="-31.5" font-family="FreeSans" font-size="10.00" fill="#000000">&#45;10.6&#45;release/source</text>
<text text-anchor="start" x="884" y="-19.5" font-family="FreeSans" font-size="10.00" fill="#000000">/persistency/ascii/src</text>
<text text-anchor="middle" x="950.5" y="-7.5" font-family="FreeSans" font-size="10.00" fill="#000000">/G4tgrVolumeAssembly.cc</text>
</a>
</g>
</g>
<!-- Node2&#45;&gt;Node10 -->
<g id="edge12" class="edge">
<title>Node2&#45;&gt;Node10</title>
<path fill="none" stroke="#191970" d="M615.9671,-203.4639C694.5771,-191.8694 806.4366,-172.2489 844.5,-150 883.5301,-127.186 915.5015,-84.8019 933.7869,-56.6192"/>
<polygon fill="#191970" stroke="#191970" points="615.4617,-200.0005 606.0715,-204.9071 616.472,-206.9272 615.4617,-200.0005"/>
</g>
<!-- Node3&#45;&gt;Node4 -->
<g id="edge3" class="edge">
<title>Node3&#45;&gt;Node4</title>
<path fill="none" stroke="#191970" d="M296.8621,-87.1915C283.7435,-77.1086 269.5543,-66.2029 257.0078,-56.5597"/>
<polygon fill="#191970" stroke="#191970" points="294.8061,-90.0256 304.8676,-93.3446 299.0718,-84.4755 294.8061,-90.0256"/>
</g>
<!-- Node3&#45;&gt;Node5 -->
<g id="edge4" class="edge">
<title>Node3&#45;&gt;Node5</title>
<path fill="none" stroke="#191970" d="M349.6831,-83.4485C351.6177,-74.4526 353.6462,-65.0203 355.4656,-56.5597"/>
<polygon fill="#191970" stroke="#191970" points="346.2357,-82.8322 347.5549,-93.3446 353.0793,-84.304 346.2357,-82.8322"/>
</g>
<!-- Node3&#45;&gt;Node6 -->
<g id="edge5" class="edge">
<title>Node3&#45;&gt;Node6</title>
<path fill="none" stroke="#191970" d="M423.8289,-100.6174C468.6644,-88.7674 524.949,-73.1142 574.5,-57 577.7162,-55.9541 580.9973,-54.8538 584.303,-53.7185"/>
<polygon fill="#191970" stroke="#191970" points="422.9321,-97.2341 414.1515,-103.1631 424.713,-104.0038 422.9321,-97.2341"/>
</g>
<!-- Node3&#45;&gt;Node7 -->
<g id="edge6" class="edge">
<title>Node3&#45;&gt;Node7</title>
<path fill="none" stroke="#191970" d="M259.005,-94.2317C225.0317,-82.8864 185.3153,-69.4745 149.5,-57 146.7462,-56.0408 143.9404,-55.0576 141.1077,-54.0599"/>
<polygon fill="#191970" stroke="#191970" points="258.2949,-97.6843 268.8886,-97.5281 260.5097,-91.0439 258.2949,-97.6843"/>
</g>
<!-- Node11&#45;&gt;Node4 -->
<g id="edge19" class="edge">
<title>Node11&#45;&gt;Node4</title>
<path fill="none" stroke="#191970" d="M1084.3532,-92.9817C734.6707,-37.0035 632.7751,-132.0853 290.5,-57 287.8085,-56.4096 285.0875,-55.7242 282.3601,-54.9635"/>
<polygon fill="#191970" stroke="#191970" points="1083.8093,-96.4391 1094.2423,-94.5942 1084.936,-89.5304 1083.8093,-96.4391"/>
</g>
<!-- Node11&#45;&gt;Node5 -->
<g id="edge20" class="edge">
<title>Node11&#45;&gt;Node5</title>
<path fill="none" stroke="#191970" d="M1084.3536,-92.9743C796.6509,-45.7423 712.3482,-120.0449 431.5,-57 428.8114,-56.3965 426.0929,-55.7002 423.3674,-54.9304"/>
<polygon fill="#191970" stroke="#191970" points="1083.795,-96.4294 1094.2361,-94.6311 1084.9525,-89.5258 1083.795,-96.4294"/>
</g>
<!-- Node11&#45;&gt;Node6 -->
<g id="edge21" class="edge">
<title>Node11&#45;&gt;Node6</title>
<path fill="none" stroke="#191970" d="M1084.3583,-92.942C925.7185,-63.6819 878.8021,-93.1224 725.5,-57 722.6528,-56.3291 719.7681,-55.5765 716.8711,-54.7601"/>
<polygon fill="#191970" stroke="#191970" points="1083.9948,-96.4353 1094.4716,-94.8582 1085.298,-89.5577 1083.9948,-96.4353"/>
</g>
<!-- Node11&#45;&gt;Node9 -->
<g id="edge23" class="edge">
<title>Node11&#45;&gt;Node9</title>
<path fill="none" stroke="#191970" d="M1084.5342,-92.9084C987.8852,-71.9961 959.0248,-82.5955 867.5,-57 864.43,-56.1415 861.3116,-55.1934 858.1809,-54.1802"/>
<polygon fill="#191970" stroke="#191970" points="1083.8986,-96.3524 1094.4197,-95.1048 1085.4169,-89.5191 1083.8986,-96.3524"/>
</g>
<!-- Node11&#45;&gt;Node10 -->
<g id="edge24" class="edge">
<title>Node11&#45;&gt;Node10</title>
<path fill="none" stroke="#191970" d="M1103.89,-89.7244C1076.9775,-78.9824 1047.1362,-67.0715 1020.9819,-56.6323"/>
<polygon fill="#191970" stroke="#191970" points="1102.6913,-93.0144 1113.2763,-93.4708 1105.2863,-86.5131 1102.6913,-93.0144"/>
</g>
<!-- Node12 -->
<g id="node12" class="node">
<title>Node12</title>
<g id="a_node12"><a xlink:href="../../d6/df6/G4tgbPlaceParamCircle_8cc.html" target="_top" xlink:title="geant4/tree/geant4\l&#45;10.6&#45;release/source\l/persistency/ascii/src\l/G4tgbPlaceParamCircle.cc">
<polygon fill="none" stroke="#000000" points="2375,-.5 2375,-56.5 2528,-56.5 2528,-.5 2375,-.5"/>
<text text-anchor="start" x="2383" y="-43.5" font-family="FreeSans" font-size="10.00" fill="#000000">geant4/tree/geant4</text>
<text text-anchor="start" x="2383" y="-31.5" font-family="FreeSans" font-size="10.00" fill="#000000">&#45;10.6&#45;release/source</text>
<text text-anchor="start" x="2383" y="-19.5" font-family="FreeSans" font-size="10.00" fill="#000000">/persistency/ascii/src</text>
<text text-anchor="middle" x="2451.5" y="-7.5" font-family="FreeSans" font-size="10.00" fill="#000000">/G4tgbPlaceParamCircle.cc</text>
</a>
</g>
</g>
<!-- Node11&#45;&gt;Node12 -->
<g id="edge15" class="edge">
<title>Node11&#45;&gt;Node12</title>
<path fill="none" stroke="#191970" d="M1282.9152,-119.4639C1528.5443,-113.8885 2159.098,-96.109 2365.5,-57 2368.5908,-56.4144 2371.7236,-55.7463 2374.8729,-55.0122"/>
<polygon fill="#191970" stroke="#191970" points="1282.4903,-115.9725 1272.5715,-119.6966 1282.6478,-122.9707 1282.4903,-115.9725"/>
</g>
<!-- Node13 -->
<g id="node13" class="node">
<title>Node13</title>
<g id="a_node13"><a xlink:href="../../d0/d31/G4tgbPlaceParameterisation_8cc.html" target="_top" xlink:title="geant4/tree/geant4\l&#45;10.6&#45;release/source\l/persistency/ascii/src\l/G4tgbPlaceParameterisation.cc">
<polygon fill="none" stroke="#000000" points="2546,-.5 2546,-56.5 2725,-56.5 2725,-.5 2546,-.5"/>
<text text-anchor="start" x="2554" y="-43.5" font-family="FreeSans" font-size="10.00" fill="#000000">geant4/tree/geant4</text>
<text text-anchor="start" x="2554" y="-31.5" font-family="FreeSans" font-size="10.00" fill="#000000">&#45;10.6&#45;release/source</text>
<text text-anchor="start" x="2554" y="-19.5" font-family="FreeSans" font-size="10.00" fill="#000000">/persistency/ascii/src</text>
<text text-anchor="middle" x="2635.5" y="-7.5" font-family="FreeSans" font-size="10.00" fill="#000000">/G4tgbPlaceParameterisation.cc</text>
</a>
</g>
</g>
<!-- Node11&#45;&gt;Node13 -->
<g id="edge16" class="edge">
<title>Node11&#45;&gt;Node13</title>
<path fill="none" stroke="#191970" d="M1282.7026,-119.8008C1552.5865,-114.6954 2296.0005,-97.2888 2537.5,-57 2540.2964,-56.5335 2543.126,-56.014 2545.9738,-55.4499"/>
<polygon fill="#191970" stroke="#191970" points="1282.4612,-116.3046 1272.5286,-119.9916 1282.5926,-123.3034 1282.4612,-116.3046"/>
</g>
<!-- Node14 -->
<g id="node14" class="node">
<title>Node14</title>
<g id="a_node14"><a xlink:href="../../d3/ddf/G4tgbPlaceParamLinear_8cc.html" target="_top" xlink:title="geant4/tree/geant4\l&#45;10.6&#45;release/source\l/persistency/ascii/src\l/G4tgbPlaceParamLinear.cc">
<polygon fill="none" stroke="#000000" points="2743,-.5 2743,-56.5 2898,-56.5 2898,-.5 2743,-.5"/>
<text text-anchor="start" x="2751" y="-43.5" font-family="FreeSans" font-size="10.00" fill="#000000">geant4/tree/geant4</text>
<text text-anchor="start" x="2751" y="-31.5" font-family="FreeSans" font-size="10.00" fill="#000000">&#45;10.6&#45;release/source</text>
<text text-anchor="start" x="2751" y="-19.5" font-family="FreeSans" font-size="10.00" fill="#000000">/persistency/ascii/src</text>
<text text-anchor="middle" x="2820.5" y="-7.5" font-family="FreeSans" font-size="10.00" fill="#000000">/G4tgbPlaceParamLinear.cc</text>
</a>
</g>
</g>
<!-- Node11&#45;&gt;Node14 -->
<g id="edge17" class="edge">
<title>Node11&#45;&gt;Node14</title>
<path fill="none" stroke="#191970" d="M1282.9413,-120.9719C1579.4697,-118.827 2454.3187,-108.2114 2734.5,-57 2737.2851,-56.4909 2740.1037,-55.9126 2742.9373,-55.2772"/>
<polygon fill="#191970" stroke="#191970" points="1282.6138,-117.474 1272.6388,-121.0446 1282.6633,-124.4738 1282.6138,-117.474"/>
</g>
<!-- Node15 -->
<g id="node15" class="node">
<title>Node15</title>
<g id="a_node15"><a xlink:href="../../de/d46/G4tgbPlaceParamSquare_8cc.html" target="_top" xlink:title="geant4/tree/geant4\l&#45;10.6&#45;release/source\l/persistency/ascii/src\l/G4tgbPlaceParamSquare.cc">
<polygon fill="none" stroke="#000000" points="2916.5,-.5 2916.5,-56.5 3076.5,-56.5 3076.5,-.5 2916.5,-.5"/>
<text text-anchor="start" x="2924.5" y="-43.5" font-family="FreeSans" font-size="10.00" fill="#000000">geant4/tree/geant4</text>
<text text-anchor="start" x="2924.5" y="-31.5" font-family="FreeSans" font-size="10.00" fill="#000000">&#45;10.6&#45;release/source</text>
<text text-anchor="start" x="2924.5" y="-19.5" font-family="FreeSans" font-size="10.00" fill="#000000">/persistency/ascii/src</text>
<text text-anchor="middle" x="2996.5" y="-7.5" font-family="FreeSans" font-size="10.00" fill="#000000">/G4tgbPlaceParamSquare.cc</text>
</a>
</g>
</g>
<!-- Node11&#45;&gt;Node15 -->
<g id="edge18" class="edge">
<title>Node11&#45;&gt;Node15</title>
<path fill="none" stroke="#191970" d="M1282.8633,-119.361C1625.8542,-111.7593 2747.8724,-85.0016 2907.5,-57 2910.3764,-56.4954 2913.2884,-55.9209 2916.2166,-55.2888"/>
<polygon fill="#191970" stroke="#191970" points="1282.6203,-115.8654 1272.7001,-119.5857 1282.7751,-122.8637 1282.6203,-115.8654"/>
</g>
<!-- Node16 -->
<g id="node16" class="node">
<title>Node16</title>
<g id="a_node16"><a xlink:href="../../da/dc6/G4tgrPlaceParameterisation_8cc.html" target="_top" xlink:title="geant4/tree/geant4\l&#45;10.6&#45;release/source\l/persistency/ascii/src\l/G4tgrPlaceParameterisation.cc">
<polygon fill="none" stroke="#000000" points="2180.5,-.5 2180.5,-56.5 2356.5,-56.5 2356.5,-.5 2180.5,-.5"/>
<text text-anchor="start" x="2188.5" y="-43.5" font-family="FreeSans" font-size="10.00" fill="#000000">geant4/tree/geant4</text>
<text text-anchor="start" x="2188.5" y="-31.5" font-family="FreeSans" font-size="10.00" fill="#000000">&#45;10.6&#45;release/source</text>
<text text-anchor="start" x="2188.5" y="-19.5" font-family="FreeSans" font-size="10.00" fill="#000000">/persistency/ascii/src</text>
<text text-anchor="middle" x="2268.5" y="-7.5" font-family="FreeSans" font-size="10.00" fill="#000000">/G4tgrPlaceParameterisation.cc</text>
</a>
</g>
</g>
<!-- Node11&#45;&gt;Node16 -->
<g id="edge22" class="edge">
<title>Node11&#45;&gt;Node16</title>
<path fill="none" stroke="#191970" d="M1282.8922,-117.7992C1498.4163,-109.3197 2002.913,-86.8914 2171.5,-57 2174.438,-56.4791 2177.4136,-55.9016 2180.4088,-55.2775"/>
<polygon fill="#191970" stroke="#191970" points="1282.7055,-114.3037 1272.8501,-118.1924 1282.9794,-121.2984 1282.7055,-114.3037"/>
</g>
<!-- Node17&#45;&gt;Node4 -->
<g id="edge26" class="edge">
<title>Node17&#45;&gt;Node4</title>
<path fill="none" stroke="#191970" d="M681.0152,-105.5812C656.7421,-101.1787 630.1004,-96.6206 605.5,-93 466.0904,-72.4823 427.023,-91.8921 290.5,-57 287.7032,-56.2852 284.8701,-55.4828 282.0276,-54.6131"/>
<polygon fill="#191970" stroke="#191970" points="680.4351,-109.0331 690.9016,-107.3892 681.6944,-102.1473 680.4351,-109.0331"/>
</g>
<!-- Node17&#45;&gt;Node9 -->
<g id="edge28" class="edge">
<title>Node17&#45;&gt;Node9</title>
<path fill="none" stroke="#191970" d="M776.8992,-83.7385C780.1222,-74.6556 783.5089,-65.1112 786.5433,-56.5597"/>
<polygon fill="#191970" stroke="#191970" points="773.5363,-82.7498 773.4906,-93.3446 780.1333,-85.0907 773.5363,-82.7498"/>
</g>
<!-- Node17&#45;&gt;Node10 -->
<g id="edge29" class="edge">
<title>Node17&#45;&gt;Node10</title>
<path fill="none" stroke="#191970" d="M829.0955,-88.8776C850.2453,-78.3593 873.4922,-66.798 893.933,-56.6323"/>
<polygon fill="#191970" stroke="#191970" points="827.255,-85.8839 819.8598,-93.4708 830.3722,-92.1516 827.255,-85.8839"/>
</g>
<!-- Node18 -->
<g id="node18" class="node">
<title>Node18</title>
<g id="a_node18"><a xlink:href="../../dd/dcc/G4tgrPlaceSimple_8cc.html" target="_top" xlink:title="geant4/tree/geant4\l&#45;10.6&#45;release/source\l/persistency/ascii/src\l/G4tgrPlaceSimple.cc">
<polygon fill="none" stroke="#000000" points="441,-.5 441,-56.5 566,-56.5 566,-.5 441,-.5"/>
<text text-anchor="start" x="449" y="-43.5" font-family="FreeSans" font-size="10.00" fill="#000000">geant4/tree/geant4</text>
<text text-anchor="start" x="449" y="-31.5" font-family="FreeSans" font-size="10.00" fill="#000000">&#45;10.6&#45;release/source</text>
<text text-anchor="start" x="449" y="-19.5" font-family="FreeSans" font-size="10.00" fill="#000000">/persistency/ascii/src</text>
<text text-anchor="middle" x="503.5" y="-7.5" font-family="FreeSans" font-size="10.00" fill="#000000">/G4tgrPlaceSimple.cc</text>
</a>
</g>
</g>
<!-- Node17&#45;&gt;Node18 -->
<g id="edge27" class="edge">
<title>Node17&#45;&gt;Node18</title>
<path fill="none" stroke="#191970" d="M681.2994,-94.2205C648.2935,-83.0272 609.9706,-69.7277 575.5,-57 572.4733,-55.8824 569.3812,-54.7239 566.2627,-53.5419"/>
<polygon fill="#191970" stroke="#191970" points="680.3152,-97.5824 690.9094,-97.4711 682.5582,-90.9514 680.3152,-97.5824"/>
</g>
<!-- Node19&#45;&gt;Node4 -->
<g id="edge34" class="edge">
<title>Node19&#45;&gt;Node4</title>
<path fill="none" stroke="#191970" d="M920.9538,-104.8854C896.4331,-100.443 869.4569,-96.0378 844.5,-93 599.5663,-63.1861 530.9797,-112.2347 290.5,-57 287.8144,-56.3832 285.0984,-55.6757 282.375,-54.8968"/>
<polygon fill="#191970" stroke="#191970" points="920.4695,-108.355 930.9375,-106.7202 921.7348,-101.4703 920.4695,-108.355"/>
</g>
<!-- Node19&#45;&gt;Node5 -->
<g id="edge36" class="edge">
<title>Node19&#45;&gt;Node5</title>
<path fill="none" stroke="#191970" d="M920.9094,-105.2338C896.3876,-100.8005 869.4219,-96.3128 844.5,-93 661.855,-68.7211 610.6099,-100.2238 431.5,-57 428.6938,-56.3228 425.853,-55.5515 423.0042,-54.7073"/>
<polygon fill="#191970" stroke="#191970" points="920.4277,-108.7037 930.8942,-107.06 921.6871,-101.8179 920.4277,-108.7037"/>
</g>
<!-- Node19&#45;&gt;Node6 -->
<g id="edge37" class="edge">
<title>Node19&#45;&gt;Node6</title>
<path fill="none" stroke="#191970" d="M920.9691,-105.4082C865.2527,-93.8004 790.3337,-76.7407 725.5,-57 722.5684,-56.1074 719.5869,-55.1577 716.5855,-54.1674"/>
<polygon fill="#191970" stroke="#191970" points="920.2893,-108.8416 930.791,-107.4395 921.7071,-101.9867 920.2893,-108.8416"/>
</g>
<!-- Node19&#45;&gt;Node7 -->
<g id="edge42" class="edge">
<title>Node19&#45;&gt;Node7</title>
<path fill="none" stroke="#191970" d="M920.9784,-104.6777C896.4583,-100.2299 869.4763,-95.8738 844.5,-93 537.2243,-57.6446 452.6994,-118.1428 149.5,-57 146.7844,-56.4524 144.0367,-55.829 141.2766,-55.1443"/>
<polygon fill="#191970" stroke="#191970" points="920.4926,-108.147 930.9614,-106.5177 921.7615,-101.263 920.4926,-108.147"/>
</g>
<!-- Node19&#45;&gt;Node9 -->
<g id="edge40" class="edge">
<title>Node19&#45;&gt;Node9</title>
<path fill="none" stroke="#191970" d="M931.7029,-89.2433C907.7056,-78.462 881.1917,-66.5499 858.0469,-56.1515"/>
<polygon fill="#191970" stroke="#191970" points="930.5564,-92.5652 941.1125,-93.4708 933.4251,-86.18 930.5564,-92.5652"/>
</g>
<!-- Node19&#45;&gt;Node10 -->
<g id="edge41" class="edge">
<title>Node19&#45;&gt;Node10</title>
<path fill="none" stroke="#191970" d="M982.4748,-84.6067C977.1515,-75.2658 971.52,-65.3841 966.491,-56.5597"/>
<polygon fill="#191970" stroke="#191970" points="979.4622,-86.3893 987.4544,-93.3446 985.5439,-82.9234 979.4622,-86.3893"/>
</g>
<!-- Node20 -->
<g id="node20" class="node">
<title>Node20</title>
<g id="a_node20"><a xlink:href="../../da/df0/ExTGRCDetectorBuilder_8cc.html" target="_top" xlink:title="Implementation of the ExTGRCDetectorBuilder class.">
<polygon fill="none" stroke="#000000" points="1331.5,-.5 1331.5,-56.5 1525.5,-56.5 1525.5,-.5 1331.5,-.5"/>
<text text-anchor="start" x="1339.5" y="-43.5" font-family="FreeSans" font-size="10.00" fill="#000000">geant4/tree/geant4</text>
<text text-anchor="start" x="1339.5" y="-31.5" font-family="FreeSans" font-size="10.00" fill="#000000">&#45;10.6&#45;release/examples</text>
<text text-anchor="start" x="1339.5" y="-19.5" font-family="FreeSans" font-size="10.00" fill="#000000">/extended/persistency</text>
<text text-anchor="middle" x="1428.5" y="-7.5" font-family="FreeSans" font-size="10.00" fill="#000000">/P03/src/ExTGRCDetectorBuilder.cc</text>
</a>
</g>
</g>
<!-- Node19&#45;&gt;Node20 -->
<g id="edge31" class="edge">
<title>Node19&#45;&gt;Node20</title>
<path fill="none" stroke="#191970" d="M1086.1836,-93.0241C1190.7641,-68.0669 1221.3831,-78.2039 1322.5,-57 1325.3909,-56.3938 1328.3202,-55.7565 1331.2729,-55.0942"/>
<polygon fill="#191970" stroke="#191970" points="1085.0546,-89.6968 1076.1684,-95.4661 1086.7129,-96.4975 1085.0546,-89.6968"/>
</g>
<!-- Node21 -->
<g id="node21" class="node">
<title>Node21</title>
<g id="a_node21"><a xlink:href="../../d7/dc8/G4tgbDetectorBuilder_8cc.html" target="_top" xlink:title="geant4/tree/geant4\l&#45;10.6&#45;release/source\l/persistency/ascii/src\l/G4tgbDetectorBuilder.cc">
<polygon fill="none" stroke="#000000" points="1543.5,-.5 1543.5,-56.5 1687.5,-56.5 1687.5,-.5 1543.5,-.5"/>
<text text-anchor="start" x="1551.5" y="-43.5" font-family="FreeSans" font-size="10.00" fill="#000000">geant4/tree/geant4</text>
<text text-anchor="start" x="1551.5" y="-31.5" font-family="FreeSans" font-size="10.00" fill="#000000">&#45;10.6&#45;release/source</text>
<text text-anchor="start" x="1551.5" y="-19.5" font-family="FreeSans" font-size="10.00" fill="#000000">/persistency/ascii/src</text>
<text text-anchor="middle" x="1615.5" y="-7.5" font-family="FreeSans" font-size="10.00" fill="#000000">/G4tgbDetectorBuilder.cc</text>
</a>
</g>
</g>
<!-- Node19&#45;&gt;Node21 -->
<g id="edge32" class="edge">
<title>Node19&#45;&gt;Node21</title>
<path fill="none" stroke="#191970" d="M1085.9156,-93.1625C1283.2928,-53.2892 1341.8229,-97.8996 1534.5,-57 1537.4165,-56.3809 1540.3717,-55.6846 1543.3418,-54.9269"/>
<polygon fill="#191970" stroke="#191970" points="1085.1898,-89.7385 1076.1053,-95.1903 1086.6067,-96.5936 1085.1898,-89.7385"/>
</g>
<!-- Node22 -->
<g id="node22" class="node">
<title>Node22</title>
<g id="a_node22"><a xlink:href="../../d9/da8/G4tgbDetectorConstruction_8cc.html" target="_top" xlink:title="geant4/tree/geant4\l&#45;10.6&#45;release/source\l/persistency/ascii/src\l/G4tgbDetectorConstruction.cc">
<polygon fill="none" stroke="#000000" points="1705.5,-.5 1705.5,-56.5 1879.5,-56.5 1879.5,-.5 1705.5,-.5"/>
<text text-anchor="start" x="1713.5" y="-43.5" font-family="FreeSans" font-size="10.00" fill="#000000">geant4/tree/geant4</text>
<text text-anchor="start" x="1713.5" y="-31.5" font-family="FreeSans" font-size="10.00" fill="#000000">&#45;10.6&#45;release/source</text>
<text text-anchor="start" x="1713.5" y="-19.5" font-family="FreeSans" font-size="10.00" fill="#000000">/persistency/ascii/src</text>
<text text-anchor="middle" x="1792.5" y="-7.5" font-family="FreeSans" font-size="10.00" fill="#000000">/G4tgbDetectorConstruction.cc</text>
</a>
</g>
</g>
<!-- Node19&#45;&gt;Node22 -->
<g id="edge33" class="edge">
<title>Node19&#45;&gt;Node22</title>
<path fill="none" stroke="#191970" d="M1086.1142,-93.1365C1354.1733,-41.3934 1431.8385,-103.445 1696.5,-57 1699.4111,-56.4891 1702.3589,-55.9205 1705.3256,-55.3039"/>
<polygon fill="#191970" stroke="#191970" points="1085.2254,-89.7442 1076.0883,-95.1074 1086.5756,-96.6127 1085.2254,-89.7442"/>
</g>
<!-- Node23 -->
<g id="node23" class="node">
<title>Node23</title>
<g id="a_node23"><a xlink:href="../../de/d33/G4tgbVolumeMgr_8cc.html" target="_top" xlink:title="geant4/tree/geant4\l&#45;10.6&#45;release/source\l/persistency/ascii/src\l/G4tgbVolumeMgr.cc">
<polygon fill="none" stroke="#000000" points="1898,-.5 1898,-56.5 2021,-56.5 2021,-.5 1898,-.5"/>
<text text-anchor="start" x="1906" y="-43.5" font-family="FreeSans" font-size="10.00" fill="#000000">geant4/tree/geant4</text>
<text text-anchor="start" x="1906" y="-31.5" font-family="FreeSans" font-size="10.00" fill="#000000">&#45;10.6&#45;release/source</text>
<text text-anchor="start" x="1906" y="-19.5" font-family="FreeSans" font-size="10.00" fill="#000000">/persistency/ascii/src</text>
<text text-anchor="middle" x="1959.5" y="-7.5" font-family="FreeSans" font-size="10.00" fill="#000000">/G4tgbVolumeMgr.cc</text>
</a>
</g>
</g>
<!-- Node19&#45;&gt;Node23 -->
<g id="edge35" class="edge">
<title>Node19&#45;&gt;Node23</title>
<path fill="none" stroke="#191970" d="M1086.0384,-93.166C1438.2743,-27.6219 1542.585,-131.9092 1888.5,-57 1891.6156,-56.3253 1894.771,-55.5266 1897.9314,-54.6332"/>
<polygon fill="#191970" stroke="#191970" points="1085.2516,-89.7526 1076.0775,-95.0522 1086.5541,-96.6304 1085.2516,-89.7526"/>
</g>
<!-- Node24 -->
<g id="node24" class="node">
<title>Node24</title>
<g id="a_node24"><a xlink:href="../../d3/d5a/G4tgrSolid_8cc.html" target="_top" xlink:title="geant4/tree/geant4\l&#45;10.6&#45;release/source\l/persistency/ascii/src\l/G4tgrSolid.cc">
<polygon fill="none" stroke="#000000" points="2039,-.5 2039,-56.5 2162,-56.5 2162,-.5 2039,-.5"/>
<text text-anchor="start" x="2047" y="-43.5" font-family="FreeSans" font-size="10.00" fill="#000000">geant4/tree/geant4</text>
<text text-anchor="start" x="2047" y="-31.5" font-family="FreeSans" font-size="10.00" fill="#000000">&#45;10.6&#45;release/source</text>
<text text-anchor="start" x="2047" y="-19.5" font-family="FreeSans" font-size="10.00" fill="#000000">/persistency/ascii/src</text>
<text text-anchor="middle" x="2100.5" y="-7.5" font-family="FreeSans" font-size="10.00" fill="#000000">/G4tgrSolid.cc</text>
</a>
</g>
</g>
<!-- Node19&#45;&gt;Node24 -->
<g id="edge38" class="edge">
<title>Node19&#45;&gt;Node24</title>
<path fill="none" stroke="#191970" d="M1085.919,-93.1921C1500.4427,-17.1788 1622.8471,-144.8956 2030.5,-57 2033.1936,-56.4192 2035.9163,-55.7419 2038.6453,-54.9879"/>
<polygon fill="#191970" stroke="#191970" points="1085.2626,-89.7541 1076.0725,-95.0258 1086.5443,-96.6358 1085.2626,-89.7541"/>
</g>
<!-- Node25 -->
<g id="node25" class="node">
<title>Node25</title>
<g id="a_node25"><a xlink:href="../../d2/d35/G4tgrSolidBoolean_8cc.html" target="_top" xlink:title="geant4/tree/geant4\l&#45;10.6&#45;release/source\l/persistency/ascii/src\l/G4tgrSolidBoolean.cc">
<polygon fill="none" stroke="#000000" points="1043,-.5 1043,-56.5 1172,-56.5 1172,-.5 1043,-.5"/>
<text text-anchor="start" x="1051" y="-43.5" font-family="FreeSans" font-size="10.00" fill="#000000">geant4/tree/geant4</text>
<text text-anchor="start" x="1051" y="-31.5" font-family="FreeSans" font-size="10.00" fill="#000000">&#45;10.6&#45;release/source</text>
<text text-anchor="start" x="1051" y="-19.5" font-family="FreeSans" font-size="10.00" fill="#000000">/persistency/ascii/src</text>
<text text-anchor="middle" x="1107.5" y="-7.5" font-family="FreeSans" font-size="10.00" fill="#000000">/G4tgrSolidBoolean.cc</text>
</a>
</g>
</g>
<!-- Node19&#45;&gt;Node25 -->
<g id="edge39" class="edge">
<title>Node19&#45;&gt;Node25</title>
<path fill="none" stroke="#191970" d="M1042.5057,-86.6199C1053.6017,-76.6976 1065.5411,-66.021 1076.1214,-56.5597"/>
<polygon fill="#191970" stroke="#191970" points="1040.1069,-84.0697 1034.9857,-93.3446 1044.773,-89.2877 1040.1069,-84.0697"/>
</g>
<!-- Node26 -->
<g id="node26" class="node">
<title>Node26</title>
<g id="a_node26"><a xlink:href="../../d6/db9/G4tgrVolumeMgr_8cc.html" target="_top" xlink:title="geant4/tree/geant4\l&#45;10.6&#45;release/source\l/persistency/ascii/src\l/G4tgrVolumeMgr.cc">
<polygon fill="none" stroke="#000000" points="1190,-.5 1190,-56.5 1313,-56.5 1313,-.5 1190,-.5"/>
<text text-anchor="start" x="1198" y="-43.5" font-family="FreeSans" font-size="10.00" fill="#000000">geant4/tree/geant4</text>
<text text-anchor="start" x="1198" y="-31.5" font-family="FreeSans" font-size="10.00" fill="#000000">&#45;10.6&#45;release/source</text>
<text text-anchor="start" x="1198" y="-19.5" font-family="FreeSans" font-size="10.00" fill="#000000">/persistency/ascii/src</text>
<text text-anchor="middle" x="1251.5" y="-7.5" font-family="FreeSans" font-size="10.00" fill="#000000">/G4tgrVolumeMgr.cc</text>
</a>
</g>
</g>
<!-- Node19&#45;&gt;Node26 -->
<g id="edge43" class="edge">
<title>Node19&#45;&gt;Node26</title>
<path fill="none" stroke="#191970" d="M1085.7065,-92.4678C1115.9238,-81.5975 1150.3571,-68.977 1181.5,-57 1184.1943,-55.9638 1186.9425,-54.8952 1189.7155,-53.8075"/>
<polygon fill="#191970" stroke="#191970" points="1084.2831,-89.26 1076.0534,-95.9326 1086.6479,-95.8485 1084.2831,-89.26"/>
</g>
</g>
</svg>
