<?xml version="1.0" encoding="UTF-8" standalone="no"?>
<!DOCTYPE svg PUBLIC "-//W3C//DTD SVG 1.1//EN"
 "http://www.w3.org/Graphics/SVG/1.1/DTD/svg11.dtd">
<!-- Generated by graphviz version 2.40.1 (20161225.0304)
 -->
<!-- Title: G4EmBiasingManager::SetDirectionalSplitting Pages: 1 -->
<svg width="705pt" height="92pt"
 viewBox="0.00 0.00 705.00 92.00" xmlns="http://www.w3.org/2000/svg" xmlns:xlink="http://www.w3.org/1999/xlink">
<g id="graph0" class="graph" transform="scale(1 1) rotate(0) translate(4 88)">
<title>G4EmBiasingManager::SetDirectionalSplitting</title>
<!-- Node1 -->
<g id="node1" class="node">
<title>Node1</title>
<polygon fill="#bfbfbf" stroke="#000000" points="0,-25.5 0,-57.5 136,-57.5 136,-25.5 0,-25.5"/>
<text text-anchor="start" x="8" y="-44.5" font-family="FreeSans" font-size="10.00" fill="#000000">G4EmBiasingManager</text>
<text text-anchor="middle" x="68" y="-32.5" font-family="FreeSans" font-size="10.00" fill="#000000">::SetDirectionalSplitting</text>
</g>
<!-- Node2 -->
<g id="node2" class="node">
<title>Node2</title>
<g id="a_node2"><a xlink:href="../../db/d69/classG4EmBiasingManager.html#a808ae8cac56a380b29a5953b395708a5" target="_top" xlink:title="G4EmBiasingManager\l::Initialise">
<polygon fill="none" stroke="#000000" points="172,-25.5 172,-57.5 301,-57.5 301,-25.5 172,-25.5"/>
<text text-anchor="start" x="180" y="-44.5" font-family="FreeSans" font-size="10.00" fill="#000000">G4EmBiasingManager</text>
<text text-anchor="middle" x="236.5" y="-32.5" font-family="FreeSans" font-size="10.00" fill="#000000">::Initialise</text>
</a>
</g>
</g>
<!-- Node1&#45;&gt;Node2 -->
<g id="edge1" class="edge">
<title>Node1&#45;&gt;Node2</title>
<path fill="none" stroke="#191970" d="M146.0739,-41.5C154.6652,-41.5 163.3425,-41.5 171.746,-41.5"/>
<polygon fill="#191970" stroke="#191970" points="146.0497,-38.0001 136.0497,-41.5 146.0497,-45.0001 146.0497,-38.0001"/>
</g>
<!-- Node3 -->
<g id="node3" class="node">
<title>Node3</title>
<g id="a_node3"><a xlink:href="../../d0/dfb/classG4VEmProcess.html#adb2fdd2a9790a3564945d2913963046e" target="_top" xlink:title="G4VEmProcess::PreparePhysics\lTable">
<polygon fill="none" stroke="#000000" points="337,-51.5 337,-83.5 512,-83.5 512,-51.5 337,-51.5"/>
<text text-anchor="start" x="345" y="-70.5" font-family="FreeSans" font-size="10.00" fill="#000000">G4VEmProcess::PreparePhysics</text>
<text text-anchor="middle" x="424.5" y="-58.5" font-family="FreeSans" font-size="10.00" fill="#000000">Table</text>
</a>
</g>
</g>
<!-- Node2&#45;&gt;Node3 -->
<g id="edge2" class="edge">
<title>Node2&#45;&gt;Node3</title>
<path fill="none" stroke="#191970" d="M311.2898,-51.8433C319.6644,-53.0015 328.2515,-54.189 336.7696,-55.3671"/>
<polygon fill="#191970" stroke="#191970" points="311.5842,-48.3507 301.1989,-50.4477 310.6251,-55.2848 311.5842,-48.3507"/>
</g>
<!-- Node5 -->
<g id="node5" class="node">
<title>Node5</title>
<g id="a_node5"><a xlink:href="../../da/d80/classG4VEnergyLossProcess.html#a1776ce9b1b19e211bbacb83f7e8a3db8" target="_top" xlink:title="G4VEnergyLossProcess\l::PreparePhysicsTable">
<polygon fill="none" stroke="#000000" points="358,-.5 358,-32.5 491,-32.5 491,-.5 358,-.5"/>
<text text-anchor="start" x="366" y="-19.5" font-family="FreeSans" font-size="10.00" fill="#000000">G4VEnergyLossProcess</text>
<text text-anchor="middle" x="424.5" y="-7.5" font-family="FreeSans" font-size="10.00" fill="#000000">::PreparePhysicsTable</text>
</a>
</g>
</g>
<!-- Node2&#45;&gt;Node5 -->
<g id="edge4" class="edge">
<title>Node2&#45;&gt;Node5</title>
<path fill="none" stroke="#191970" d="M311.1875,-31.5681C326.5736,-29.5221 342.681,-27.3802 357.7634,-25.3746"/>
<polygon fill="#191970" stroke="#191970" points="310.6503,-28.1087 301.1989,-32.8964 311.5731,-35.0476 310.6503,-28.1087"/>
</g>
<!-- Node4 -->
<g id="node4" class="node">
<title>Node4</title>
<g id="a_node4"><a xlink:href="../../dd/d59/classG4GammaGeneralProcess.html#aa6901fec160111cf8a00fbdc2f969cc5" target="_top" xlink:title="G4GammaGeneralProcess\l::PreparePhysicsTable">
<polygon fill="none" stroke="#000000" points="548,-51.5 548,-83.5 697,-83.5 697,-51.5 548,-51.5"/>
<text text-anchor="start" x="556" y="-70.5" font-family="FreeSans" font-size="10.00" fill="#000000">G4GammaGeneralProcess</text>
<text text-anchor="middle" x="622.5" y="-58.5" font-family="FreeSans" font-size="10.00" fill="#000000">::PreparePhysicsTable</text>
</a>
</g>
</g>
<!-- Node3&#45;&gt;Node4 -->
<g id="edge3" class="edge">
<title>Node3&#45;&gt;Node4</title>
<path fill="none" stroke="#191970" d="M522.284,-67.5C530.8833,-67.5 539.4949,-67.5 547.8591,-67.5"/>
<polygon fill="#191970" stroke="#191970" points="522.2104,-64.0001 512.2104,-67.5 522.2103,-71.0001 522.2104,-64.0001"/>
</g>
</g>
</svg>
