<?xml version="1.0" encoding="UTF-8" standalone="no"?>
<!DOCTYPE svg PUBLIC "-//W3C//DTD SVG 1.1//EN"
 "http://www.w3.org/Graphics/SVG/1.1/DTD/svg11.dtd">
<!-- Generated by graphviz version 2.40.1 (20161225.0304)
 -->
<!-- Title: LBE::ConstructMyIons Pages: 1 -->
<svg width="1571pt" height="377pt"
 viewBox="0.00 0.00 1571.00 377.00" xmlns="http://www.w3.org/2000/svg" xmlns:xlink="http://www.w3.org/1999/xlink">
<g id="graph0" class="graph" transform="scale(1 1) rotate(0) translate(4 373)">
<title>LBE::ConstructMyIons</title>
<!-- Node1 -->
<g id="node1" class="node">
<title>Node1</title>
<polygon fill="#bfbfbf" stroke="#000000" points="0,-180.5 0,-200.5 126,-200.5 126,-180.5 0,-180.5"/>
<text text-anchor="middle" x="63" y="-187.5" font-family="FreeSans" font-size="10.00" fill="#000000">LBE::ConstructMyIons</text>
</g>
<!-- Node2 -->
<g id="node2" class="node">
<title>Node2</title>
<g id="a_node2"><a xlink:href="../../d3/d46/classG4IonConstructor.html#abbb8e711607437137f447c5046b9fbb0" target="_top" xlink:title="G4IonConstructor::Construct\lParticle">
<polygon fill="none" stroke="#000000" points="162,-174.5 162,-206.5 323,-206.5 323,-174.5 162,-174.5"/>
<text text-anchor="start" x="170" y="-193.5" font-family="FreeSans" font-size="10.00" fill="#000000">G4IonConstructor::Construct</text>
<text text-anchor="middle" x="242.5" y="-181.5" font-family="FreeSans" font-size="10.00" fill="#000000">Particle</text>
</a>
</g>
</g>
<!-- Node1&#45;&gt;Node2 -->
<g id="edge1" class="edge">
<title>Node1&#45;&gt;Node2</title>
<path fill="none" stroke="#191970" d="M126.0326,-190.5C134.3823,-190.5 143.0716,-190.5 151.773,-190.5"/>
<polygon fill="#191970" stroke="#191970" points="151.9738,-194.0001 161.9738,-190.5 151.9738,-187.0001 151.9738,-194.0001"/>
</g>
<!-- Node3 -->
<g id="node3" class="node">
<title>Node3</title>
<g id="a_node3"><a xlink:href="../../d3/d46/classG4IonConstructor.html#a2dcb8c57b28c77b2d52c74a2c3dd31a3" target="_top" xlink:title="G4IonConstructor::Construct\lLightIons">
<polygon fill="none" stroke="#000000" points="359,-174.5 359,-206.5 520,-206.5 520,-174.5 359,-174.5"/>
<text text-anchor="start" x="367" y="-193.5" font-family="FreeSans" font-size="10.00" fill="#000000">G4IonConstructor::Construct</text>
<text text-anchor="middle" x="439.5" y="-181.5" font-family="FreeSans" font-size="10.00" fill="#000000">LightIons</text>
</a>
</g>
</g>
<!-- Node2&#45;&gt;Node3 -->
<g id="edge2" class="edge">
<title>Node2&#45;&gt;Node3</title>
<path fill="none" stroke="#191970" d="M323.1959,-190.5C331.6733,-190.5 340.3327,-190.5 348.9115,-190.5"/>
<polygon fill="#191970" stroke="#191970" points="348.9297,-194.0001 358.9296,-190.5 348.9296,-187.0001 348.9297,-194.0001"/>
</g>
<!-- Node4 -->
<g id="node4" class="node">
<title>Node4</title>
<g id="a_node4"><a xlink:href="../../dc/d9e/classG4Alpha.html#a2a401f82777cf6cbdf677a3b62e89f68" target="_top" xlink:title="G4Alpha::AlphaDefinition">
<polygon fill="none" stroke="#000000" points="576,-258.5 576,-278.5 720,-278.5 720,-258.5 576,-258.5"/>
<text text-anchor="middle" x="648" y="-265.5" font-family="FreeSans" font-size="10.00" fill="#000000">G4Alpha::AlphaDefinition</text>
</a>
</g>
</g>
<!-- Node3&#45;&gt;Node4 -->
<g id="edge3" class="edge">
<title>Node3&#45;&gt;Node4</title>
<path fill="none" stroke="#191970" d="M466.8985,-206.5768C489.9852,-219.5203 524.2402,-237.337 556,-248.5 563.9801,-251.3049 572.4934,-253.793 580.9981,-255.9779"/>
<polygon fill="#191970" stroke="#191970" points="580.401,-259.4348 590.9456,-258.4042 582.0598,-252.6342 580.401,-259.4348"/>
</g>
<!-- Node18 -->
<g id="node18" class="node">
<title>Node18</title>
<g id="a_node18"><a xlink:href="../../df/dd3/classG4AntiAlpha.html#ab6210cd991ee86794f7096ce8b5ba2db" target="_top" xlink:title="G4AntiAlpha::AntiAlphaDefinition">
<polygon fill="none" stroke="#000000" points="556,-297.5 556,-317.5 740,-317.5 740,-297.5 556,-297.5"/>
<text text-anchor="middle" x="648" y="-304.5" font-family="FreeSans" font-size="10.00" fill="#000000">G4AntiAlpha::AntiAlphaDefinition</text>
</a>
</g>
</g>
<!-- Node3&#45;&gt;Node18 -->
<g id="edge18" class="edge">
<title>Node3&#45;&gt;Node18</title>
<path fill="none" stroke="#191970" d="M453.9763,-206.6719C474.4718,-228.5158 514.1387,-267.062 556,-287.5 561.3635,-290.1186 567.0687,-292.3971 572.909,-294.3792"/>
<polygon fill="#191970" stroke="#191970" points="572.2415,-297.8361 582.829,-297.443 574.3071,-291.1478 572.2415,-297.8361"/>
</g>
<!-- Node20 -->
<g id="node20" class="node">
<title>Node20</title>
<g id="a_node20"><a xlink:href="../../d6/d9f/classG4AntiDeuteron.html#a59b49e9301aea8e4a8e044a3d028eef0" target="_top" xlink:title="G4AntiDeuteron::AntiDeuteron\lDefinition">
<polygon fill="none" stroke="#000000" points="562.5,-129.5 562.5,-161.5 733.5,-161.5 733.5,-129.5 562.5,-129.5"/>
<text text-anchor="start" x="570.5" y="-148.5" font-family="FreeSans" font-size="10.00" fill="#000000">G4AntiDeuteron::AntiDeuteron</text>
<text text-anchor="middle" x="648" y="-136.5" font-family="FreeSans" font-size="10.00" fill="#000000">Definition</text>
</a>
</g>
</g>
<!-- Node3&#45;&gt;Node20 -->
<g id="edge23" class="edge">
<title>Node3&#45;&gt;Node20</title>
<path fill="none" stroke="#191970" d="M513.8903,-174.4445C529.9672,-170.9747 547.0788,-167.2816 563.5106,-163.7351"/>
<polygon fill="#191970" stroke="#191970" points="564.6019,-167.0803 573.6385,-161.5493 563.1251,-160.2378 564.6019,-167.0803"/>
</g>
<!-- Node23 -->
<g id="node23" class="node">
<title>Node23</title>
<g id="a_node23"><a xlink:href="../../d1/dfc/classG4AntiHe3.html#af5b6c730012a6f30fb5ff80a68c896d1" target="_top" xlink:title="G4AntiHe3::AntiHe3Definition">
<polygon fill="none" stroke="#000000" points="564.5,-90.5 564.5,-110.5 731.5,-110.5 731.5,-90.5 564.5,-90.5"/>
<text text-anchor="middle" x="648" y="-97.5" font-family="FreeSans" font-size="10.00" fill="#000000">G4AntiHe3::AntiHe3Definition</text>
</a>
</g>
</g>
<!-- Node3&#45;&gt;Node23 -->
<g id="edge29" class="edge">
<title>Node3&#45;&gt;Node23</title>
<path fill="none" stroke="#191970" d="M461.066,-174.202C483.5908,-157.9617 520.5228,-133.4851 556,-119.5 561.9743,-117.1449 568.2873,-115.0648 574.6935,-113.2308"/>
<polygon fill="#191970" stroke="#191970" points="576.0345,-116.4961 584.8016,-110.5472 574.2383,-109.7305 576.0345,-116.4961"/>
</g>
<!-- Node25 -->
<g id="node25" class="node">
<title>Node25</title>
<g id="a_node25"><a xlink:href="../../d2/d74/classG4AntiTriton.html#a595a9e454a9bba89a7a1b30dea5f5956" target="_top" xlink:title="G4AntiTriton::AntiTriton\lDefinition">
<polygon fill="none" stroke="#000000" points="581,-39.5 581,-71.5 715,-71.5 715,-39.5 581,-39.5"/>
<text text-anchor="start" x="589" y="-58.5" font-family="FreeSans" font-size="10.00" fill="#000000">G4AntiTriton::AntiTriton</text>
<text text-anchor="middle" x="648" y="-46.5" font-family="FreeSans" font-size="10.00" fill="#000000">Definition</text>
</a>
</g>
</g>
<!-- Node3&#45;&gt;Node25 -->
<g id="edge35" class="edge">
<title>Node3&#45;&gt;Node25</title>
<path fill="none" stroke="#191970" d="M452.0061,-174.4465C471.5877,-150.4119 511.8409,-105.2599 556,-80.5 560.7822,-77.8186 565.8672,-75.4126 571.0966,-73.2555"/>
<polygon fill="#191970" stroke="#191970" points="572.5242,-76.4573 580.631,-69.636 570.0398,-69.913 572.5242,-76.4573"/>
</g>
<!-- Node27 -->
<g id="node27" class="node">
<title>Node27</title>
<g id="a_node27"><a xlink:href="../../df/dfb/classG4Deuteron.html#a746c5d50268d2eb7316e54a080aa1e0f" target="_top" xlink:title="G4Deuteron::DeuteronDefinition">
<polygon fill="none" stroke="#000000" points="558,-.5 558,-20.5 738,-20.5 738,-.5 558,-.5"/>
<text text-anchor="middle" x="648" y="-7.5" font-family="FreeSans" font-size="10.00" fill="#000000">G4Deuteron::DeuteronDefinition</text>
</a>
</g>
</g>
<!-- Node3&#45;&gt;Node27 -->
<g id="edge41" class="edge">
<title>Node3&#45;&gt;Node27</title>
<path fill="none" stroke="#191970" d="M446.3411,-174.165C461.0922,-141.0881 499.2156,-66.2208 556,-29.5 558.8075,-27.6845 561.7553,-26.0379 564.803,-24.5448"/>
<polygon fill="#191970" stroke="#191970" points="566.3953,-27.6702 574.205,-20.5106 563.6351,-21.2373 566.3953,-27.6702"/>
</g>
<!-- Node29 -->
<g id="node29" class="node">
<title>Node29</title>
<g id="a_node29"><a xlink:href="../../d4/d78/classG4GenericIon.html#a3d1cfbae0b390866df6410872881d0ca" target="_top" xlink:title="G4GenericIon::GenericIon\lDefinition">
<polygon fill="none" stroke="#000000" points="574.5,-336.5 574.5,-368.5 721.5,-368.5 721.5,-336.5 574.5,-336.5"/>
<text text-anchor="start" x="582.5" y="-355.5" font-family="FreeSans" font-size="10.00" fill="#000000">G4GenericIon::GenericIon</text>
<text text-anchor="middle" x="648" y="-343.5" font-family="FreeSans" font-size="10.00" fill="#000000">Definition</text>
</a>
</g>
</g>
<!-- Node3&#45;&gt;Node29 -->
<g id="edge47" class="edge">
<title>Node3&#45;&gt;Node29</title>
<path fill="none" stroke="#191970" d="M448.8144,-206.6119C466.1669,-235.1762 506.2352,-294.6761 556,-326.5 559.1943,-328.5427 562.551,-330.4279 566.0158,-332.1674"/>
<polygon fill="#191970" stroke="#191970" points="564.8509,-335.4826 575.4024,-336.4398 567.7508,-329.1115 564.8509,-335.4826"/>
</g>
<!-- Node32 -->
<g id="node32" class="node">
<title>Node32</title>
<g id="a_node32"><a xlink:href="../../d2/db5/classG4He3.html#ac75b55c9cc2dc5c64de7672c0544eb8f" target="_top" xlink:title="G4He3::He3Definition">
<polygon fill="none" stroke="#000000" points="584.5,-180.5 584.5,-200.5 711.5,-200.5 711.5,-180.5 584.5,-180.5"/>
<text text-anchor="middle" x="648" y="-187.5" font-family="FreeSans" font-size="10.00" fill="#000000">G4He3::He3Definition</text>
</a>
</g>
</g>
<!-- Node3&#45;&gt;Node32 -->
<g id="edge53" class="edge">
<title>Node3&#45;&gt;Node32</title>
<path fill="none" stroke="#191970" d="M520.1115,-190.5C537.929,-190.5 556.719,-190.5 574.2476,-190.5"/>
<polygon fill="#191970" stroke="#191970" points="574.4056,-194.0001 584.4055,-190.5 574.4055,-187.0001 574.4056,-194.0001"/>
</g>
<!-- Node34 -->
<g id="node34" class="node">
<title>Node34</title>
<g id="a_node34"><a xlink:href="../../da/d5b/classG4Triton.html#ac89804967e72a571825231851f2b0134" target="_top" xlink:title="G4Triton::TritonDefinition">
<polygon fill="none" stroke="#000000" points="576.5,-219.5 576.5,-239.5 719.5,-239.5 719.5,-219.5 576.5,-219.5"/>
<text text-anchor="middle" x="648" y="-226.5" font-family="FreeSans" font-size="10.00" fill="#000000">G4Triton::TritonDefinition</text>
</a>
</g>
</g>
<!-- Node3&#45;&gt;Node34 -->
<g id="edge59" class="edge">
<title>Node3&#45;&gt;Node34</title>
<path fill="none" stroke="#191970" d="M520.1115,-205.5784C541.3843,-209.5575 564.0433,-213.7959 584.2867,-217.5824"/>
<polygon fill="#191970" stroke="#191970" points="583.8489,-221.0611 594.3219,-219.4595 585.136,-214.1805 583.8489,-221.0611"/>
</g>
<!-- Node5 -->
<g id="node5" class="node">
<title>Node5</title>
<g id="a_node5"><a xlink:href="../../dc/d9e/classG4Alpha.html#a6775b51f1bda0a28a4c36910a447b3c7" target="_top" xlink:title="G4Alpha::Definition">
<polygon fill="none" stroke="#000000" points="795,-258.5 795,-278.5 910,-278.5 910,-258.5 795,-258.5"/>
<text text-anchor="middle" x="852.5" y="-265.5" font-family="FreeSans" font-size="10.00" fill="#000000">G4Alpha::Definition</text>
</a>
</g>
</g>
<!-- Node4&#45;&gt;Node5 -->
<g id="edge4" class="edge">
<title>Node4&#45;&gt;Node5</title>
<path fill="none" stroke="#191970" d="M720.099,-268.5C741.1483,-268.5 764.0697,-268.5 784.8342,-268.5"/>
<polygon fill="#191970" stroke="#191970" points="784.8368,-272.0001 794.8368,-268.5 784.8367,-265.0001 784.8368,-272.0001"/>
</g>
<!-- Node6 -->
<g id="node6" class="node">
<title>Node6</title>
<g id="a_node6"><a xlink:href="../../d8/dd3/classG4ParticleTable.html#a891da3f41417c3800e7596fab298c3c5" target="_top" xlink:title="G4ParticleTable::FindParticle">
<polygon fill="none" stroke="#000000" points="971.5,-231.5 971.5,-251.5 1130.5,-251.5 1130.5,-231.5 971.5,-231.5"/>
<text text-anchor="middle" x="1051" y="-238.5" font-family="FreeSans" font-size="10.00" fill="#000000">G4ParticleTable::FindParticle</text>
</a>
</g>
</g>
<!-- Node5&#45;&gt;Node6 -->
<g id="edge5" class="edge">
<title>Node5&#45;&gt;Node6</title>
<path fill="none" stroke="#191970" d="M910.1811,-260.6542C928.0193,-258.2279 948.0442,-255.5041 967.2721,-252.8887"/>
<polygon fill="#191970" stroke="#191970" points="967.8016,-256.349 977.2386,-251.533 966.858,-249.4129 967.8016,-256.349"/>
</g>
<!-- Node11 -->
<g id="node11" class="node">
<title>Node11</title>
<g id="a_node11"><a xlink:href="../../df/d1a/classG4Ions.html#ae983e0b83e4ab01690f4e778fc97a50e" target="_top" xlink:title="G4Ions::G4Ions">
<polygon fill="none" stroke="#000000" points="1004.5,-141.5 1004.5,-161.5 1097.5,-161.5 1097.5,-141.5 1004.5,-141.5"/>
<text text-anchor="middle" x="1051" y="-148.5" font-family="FreeSans" font-size="10.00" fill="#000000">G4Ions::G4Ions</text>
</a>
</g>
</g>
<!-- Node5&#45;&gt;Node11 -->
<g id="edge10" class="edge">
<title>Node5&#45;&gt;Node11</title>
<path fill="none" stroke="#191970" d="M910.3864,-259.3702C917.1206,-256.6286 923.5267,-253.0825 929,-248.5 958.2747,-223.9894 935.2616,-194.4458 965,-170.5 973.48,-163.6718 983.8958,-159.1721 994.5145,-156.2338"/>
<polygon fill="#191970" stroke="#191970" points="995.333,-159.6369 1004.2737,-153.9524 993.7395,-152.8207 995.333,-159.6369"/>
</g>
<!-- Node12 -->
<g id="node12" class="node">
<title>Node12</title>
<g id="a_node12"><a xlink:href="../../d8/dd3/classG4ParticleTable.html#a8bb5b636696da4abae3ca7ea0ea5af95" target="_top" xlink:title="G4ParticleTable::GetParticle\lTable">
<polygon fill="none" stroke="#000000" points="973,-180.5 973,-212.5 1129,-212.5 1129,-180.5 973,-180.5"/>
<text text-anchor="start" x="981" y="-199.5" font-family="FreeSans" font-size="10.00" fill="#000000">G4ParticleTable::GetParticle</text>
<text text-anchor="middle" x="1051" y="-187.5" font-family="FreeSans" font-size="10.00" fill="#000000">Table</text>
</a>
</g>
</g>
<!-- Node5&#45;&gt;Node12 -->
<g id="edge11" class="edge">
<title>Node5&#45;&gt;Node12</title>
<path fill="none" stroke="#191970" d="M902.4779,-258.4291C911.529,-255.7723 920.7166,-252.4974 929,-248.5 947.0124,-239.8078 947.1075,-230.4363 965,-221.5 968.7558,-219.6242 972.6759,-217.866 976.684,-216.2215"/>
<polygon fill="#191970" stroke="#191970" points="978.0756,-219.4365 986.1599,-212.5886 975.5697,-212.9003 978.0756,-219.4365"/>
</g>
<!-- Node7 -->
<g id="node7" class="node">
<title>Node7</title>
<g id="a_node7"><a xlink:href="../../d8/dd3/classG4ParticleTable.html#a5dcd173398768b18c5ba132bbd8f427b" target="_top" xlink:title="G4ParticleTable::CheckReadiness">
<polygon fill="none" stroke="#000000" points="1173,-289.5 1173,-309.5 1356,-309.5 1356,-289.5 1173,-289.5"/>
<text text-anchor="middle" x="1264.5" y="-296.5" font-family="FreeSans" font-size="10.00" fill="#000000">G4ParticleTable::CheckReadiness</text>
</a>
</g>
</g>
<!-- Node6&#45;&gt;Node7 -->
<g id="edge6" class="edge">
<title>Node6&#45;&gt;Node7</title>
<path fill="none" stroke="#191970" d="M1080.8717,-251.6005C1105.4425,-259.7157 1141.2589,-271.1047 1173,-279.5 1183.245,-282.2097 1194.2037,-284.836 1204.8489,-287.2456"/>
<polygon fill="#191970" stroke="#191970" points="1204.4043,-290.7322 1214.9255,-289.4852 1205.9231,-283.8989 1204.4043,-290.7322"/>
</g>
<!-- Node9 -->
<g id="node9" class="node">
<title>Node9</title>
<g id="a_node9"><a xlink:href="../../d8/dd3/classG4ParticleTable.html#ad3150940809a36b87123558264d30108" target="_top" xlink:title="G4ParticleTable::GetKey">
<polygon fill="none" stroke="#000000" points="1409,-231.5 1409,-251.5 1546,-251.5 1546,-231.5 1409,-231.5"/>
<text text-anchor="middle" x="1477.5" y="-238.5" font-family="FreeSans" font-size="10.00" fill="#000000">G4ParticleTable::GetKey</text>
</a>
</g>
</g>
<!-- Node6&#45;&gt;Node9 -->
<g id="edge8" class="edge">
<title>Node6&#45;&gt;Node9</title>
<path fill="none" stroke="#191970" d="M1130.7344,-240.7524C1144.8161,-240.6472 1159.3382,-240.556 1173,-240.5 1254.3327,-240.1667 1274.6674,-240.1653 1356,-240.5 1369.7492,-240.5566 1384.3733,-240.6492 1398.5356,-240.7558"/>
<polygon fill="#191970" stroke="#191970" points="1398.7201,-244.2572 1408.7472,-240.8356 1398.7749,-237.2574 1398.7201,-244.2572"/>
</g>
<!-- Node10 -->
<g id="node10" class="node">
<title>Node10</title>
<g id="a_node10"><a xlink:href="../../d7/d23/namespaceG4Threading.html#a4bce96528c21592b91483fb2ab5b6215" target="_top" xlink:title="G4Threading::IsWorkerThread">
<polygon fill="none" stroke="#000000" points="1180.5,-250.5 1180.5,-270.5 1348.5,-270.5 1348.5,-250.5 1180.5,-250.5"/>
<text text-anchor="middle" x="1264.5" y="-257.5" font-family="FreeSans" font-size="10.00" fill="#000000">G4Threading::IsWorkerThread</text>
</a>
</g>
</g>
<!-- Node6&#45;&gt;Node10 -->
<g id="edge9" class="edge">
<title>Node6&#45;&gt;Node10</title>
<path fill="none" stroke="#191970" d="M1130.8031,-248.6019C1143.6391,-249.7442 1157.0313,-250.936 1170.1691,-252.1052"/>
<polygon fill="#191970" stroke="#191970" points="1169.8818,-255.5934 1180.1527,-252.9937 1170.5023,-248.6209 1169.8818,-255.5934"/>
</g>
<!-- Node8 -->
<g id="node8" class="node">
<title>Node8</title>
<g id="a_node8"><a xlink:href="../../d5/d4f/G4Exception_8hh.html#ad36b5da5d062a20ca47b1c1f1ae353dd" target="_top" xlink:title="G4Exception">
<polygon fill="none" stroke="#000000" points="1437.5,-289.5 1437.5,-309.5 1517.5,-309.5 1517.5,-289.5 1437.5,-289.5"/>
<text text-anchor="middle" x="1477.5" y="-296.5" font-family="FreeSans" font-size="10.00" fill="#000000">G4Exception</text>
</a>
</g>
</g>
<!-- Node7&#45;&gt;Node8 -->
<g id="edge7" class="edge">
<title>Node7&#45;&gt;Node8</title>
<path fill="none" stroke="#191970" d="M1356.0673,-299.5C1380.4857,-299.5 1405.9725,-299.5 1427.2554,-299.5"/>
<polygon fill="#191970" stroke="#191970" points="1427.3425,-303.0001 1437.3425,-299.5 1427.3425,-296.0001 1427.3425,-303.0001"/>
</g>
<!-- Node13 -->
<g id="node13" class="node">
<title>Node13</title>
<g id="a_node13"><a xlink:href="../../d8/dd3/classG4ParticleTable.html#aba540bf07478ff0c30af3ee28d843041" target="_top" xlink:title="G4ParticleTable::WorkerG4\lParticleTable">
<polygon fill="none" stroke="#000000" points="1189,-145.5 1189,-177.5 1340,-177.5 1340,-145.5 1189,-145.5"/>
<text text-anchor="start" x="1197" y="-164.5" font-family="FreeSans" font-size="10.00" fill="#000000">G4ParticleTable::WorkerG4</text>
<text text-anchor="middle" x="1264.5" y="-152.5" font-family="FreeSans" font-size="10.00" fill="#000000">ParticleTable</text>
</a>
</g>
</g>
<!-- Node12&#45;&gt;Node13 -->
<g id="edge12" class="edge">
<title>Node12&#45;&gt;Node13</title>
<path fill="none" stroke="#191970" d="M1129.2872,-183.666C1145.3516,-181.0325 1162.3437,-178.2469 1178.6578,-175.5725"/>
<polygon fill="#191970" stroke="#191970" points="1179.4116,-178.9957 1188.7137,-173.924 1178.2792,-172.0879 1179.4116,-178.9957"/>
</g>
<!-- Node13&#45;&gt;Node9 -->
<g id="edge13" class="edge">
<title>Node13&#45;&gt;Node9</title>
<path fill="none" stroke="#191970" d="M1293.8967,-177.5072C1319.2729,-190.7915 1357.2263,-209.4018 1392,-221.5 1399.9684,-224.2723 1408.4874,-226.7807 1416.9466,-229.0096"/>
<polygon fill="#191970" stroke="#191970" points="1416.2607,-232.4462 1426.8129,-231.497 1417.9719,-225.6585 1416.2607,-232.4462"/>
</g>
<!-- Node14 -->
<g id="node14" class="node">
<title>Node14</title>
<g id="a_node14"><a xlink:href="../../d5/d38/classG4ParticleDefinition.html#af84019c7513ca66581ed8b3651934467" target="_top" xlink:title="G4ParticleDefinition\l::GetPDGEncoding">
<polygon fill="none" stroke="#000000" points="1419.5,-180.5 1419.5,-212.5 1535.5,-212.5 1535.5,-180.5 1419.5,-180.5"/>
<text text-anchor="start" x="1427.5" y="-199.5" font-family="FreeSans" font-size="10.00" fill="#000000">G4ParticleDefinition</text>
<text text-anchor="middle" x="1477.5" y="-187.5" font-family="FreeSans" font-size="10.00" fill="#000000">::GetPDGEncoding</text>
</a>
</g>
</g>
<!-- Node13&#45;&gt;Node14 -->
<g id="edge14" class="edge">
<title>Node13&#45;&gt;Node14</title>
<path fill="none" stroke="#191970" d="M1340.1956,-173.9382C1362.8008,-177.6527 1387.4319,-181.7001 1409.5111,-185.3281"/>
<polygon fill="#191970" stroke="#191970" points="1409.0243,-188.795 1419.4595,-186.9628 1410.1594,-181.8876 1409.0243,-188.795"/>
</g>
<!-- Node15 -->
<g id="node15" class="node">
<title>Node15</title>
<g id="a_node15"><a xlink:href="../../d4/d96/classG4ParticleTableIterator.html#ae35fb8d216907e4b1614fd52f2d50f84" target="_top" xlink:title="G4ParticleTableIterator\l::reset">
<polygon fill="none" stroke="#000000" points="1411.5,-129.5 1411.5,-161.5 1543.5,-161.5 1543.5,-129.5 1411.5,-129.5"/>
<text text-anchor="start" x="1419.5" y="-148.5" font-family="FreeSans" font-size="10.00" fill="#000000">G4ParticleTableIterator</text>
<text text-anchor="middle" x="1477.5" y="-136.5" font-family="FreeSans" font-size="10.00" fill="#000000">::reset</text>
</a>
</g>
</g>
<!-- Node13&#45;&gt;Node15 -->
<g id="edge15" class="edge">
<title>Node13&#45;&gt;Node15</title>
<path fill="none" stroke="#191970" d="M1340.1956,-155.8139C1359.9497,-154.3301 1381.2509,-152.73 1401.0442,-151.2432"/>
<polygon fill="#191970" stroke="#191970" points="1401.5315,-154.7165 1411.2412,-150.4772 1401.0071,-147.7362 1401.5315,-154.7165"/>
</g>
<!-- Node16 -->
<g id="node16" class="node">
<title>Node16</title>
<g id="a_node16"><a xlink:href="../../d4/d96/classG4ParticleTableIterator.html#a7220383ce5a9ddecb53331a2ecdd90d5" target="_top" xlink:title="G4ParticleTableIterator\l::value">
<polygon fill="none" stroke="#000000" points="1411.5,-78.5 1411.5,-110.5 1543.5,-110.5 1543.5,-78.5 1411.5,-78.5"/>
<text text-anchor="start" x="1419.5" y="-97.5" font-family="FreeSans" font-size="10.00" fill="#000000">G4ParticleTableIterator</text>
<text text-anchor="middle" x="1477.5" y="-85.5" font-family="FreeSans" font-size="10.00" fill="#000000">::value</text>
</a>
</g>
</g>
<!-- Node13&#45;&gt;Node16 -->
<g id="edge16" class="edge">
<title>Node13&#45;&gt;Node16</title>
<path fill="none" stroke="#191970" d="M1311.9074,-145.4615C1335.8567,-137.4666 1365.4049,-127.766 1392,-119.5 1398.4496,-117.4954 1405.187,-115.4472 1411.9261,-113.4286"/>
<polygon fill="#191970" stroke="#191970" points="1413.181,-116.707 1421.7678,-110.5008 1411.185,-109.9976 1413.181,-116.707"/>
</g>
<!-- Node17 -->
<g id="node17" class="node">
<title>Node17</title>
<g id="a_node17"><a xlink:href="../../da/d2b/classG4IonTable.html#a66f8ee295224ed611872572a0e47ab6e" target="_top" xlink:title="G4IonTable::WorkerG4IonTable">
<polygon fill="none" stroke="#000000" points="1392,-39.5 1392,-59.5 1563,-59.5 1563,-39.5 1392,-39.5"/>
<text text-anchor="middle" x="1477.5" y="-46.5" font-family="FreeSans" font-size="10.00" fill="#000000">G4IonTable::WorkerG4IonTable</text>
</a>
</g>
</g>
<!-- Node13&#45;&gt;Node17 -->
<g id="edge17" class="edge">
<title>Node13&#45;&gt;Node17</title>
<path fill="none" stroke="#191970" d="M1281.5931,-145.3904C1304.7699,-124.4536 1348.3072,-88.2447 1392,-68.5 1396.9364,-66.2692 1402.1547,-64.2914 1407.4808,-62.5393"/>
<polygon fill="#191970" stroke="#191970" points="1408.5836,-65.8624 1417.1466,-59.6234 1406.5619,-59.1608 1408.5836,-65.8624"/>
</g>
<!-- Node19 -->
<g id="node19" class="node">
<title>Node19</title>
<g id="a_node19"><a xlink:href="../../df/dd3/classG4AntiAlpha.html#a0eaa9600b4536bc17b8f454b2bfaae65" target="_top" xlink:title="G4AntiAlpha::Definition">
<polygon fill="none" stroke="#000000" points="785,-297.5 785,-317.5 920,-317.5 920,-297.5 785,-297.5"/>
<text text-anchor="middle" x="852.5" y="-304.5" font-family="FreeSans" font-size="10.00" fill="#000000">G4AntiAlpha::Definition</text>
</a>
</g>
</g>
<!-- Node18&#45;&gt;Node19 -->
<g id="edge19" class="edge">
<title>Node18&#45;&gt;Node19</title>
<path fill="none" stroke="#191970" d="M740.0799,-307.5C751.6057,-307.5 763.3056,-307.5 774.5859,-307.5"/>
<polygon fill="#191970" stroke="#191970" points="774.8105,-311.0001 784.8105,-307.5 774.8104,-304.0001 774.8105,-311.0001"/>
</g>
<!-- Node19&#45;&gt;Node6 -->
<g id="edge20" class="edge">
<title>Node19&#45;&gt;Node6</title>
<path fill="none" stroke="#191970" d="M894.0179,-297.4916C905.4257,-294.5125 917.7503,-291.0805 929,-287.5 959.1432,-277.9061 992.7316,-265.079 1017.0216,-255.4075"/>
<polygon fill="#191970" stroke="#191970" points="1018.5203,-258.5775 1026.4986,-251.6064 1015.9144,-252.0806 1018.5203,-258.5775"/>
</g>
<!-- Node19&#45;&gt;Node11 -->
<g id="edge21" class="edge">
<title>Node19&#45;&gt;Node11</title>
<path fill="none" stroke="#191970" d="M914.398,-297.4845C919.7489,-294.8599 924.7377,-291.5837 929,-287.5 968.2849,-249.8609 925.002,-207.3804 965,-170.5 973.1763,-162.961 983.6487,-158.1722 994.4525,-155.1794"/>
<polygon fill="#191970" stroke="#191970" points="995.4396,-158.5442 1004.4112,-152.9085 993.8833,-151.7194 995.4396,-158.5442"/>
</g>
<!-- Node19&#45;&gt;Node12 -->
<g id="edge22" class="edge">
<title>Node19&#45;&gt;Node12</title>
<path fill="none" stroke="#191970" d="M911.6596,-297.3837C917.8752,-294.7984 923.809,-291.5586 929,-287.5 955.3226,-266.9194 938.9595,-242.4365 965,-221.5 966.5905,-220.2213 968.2439,-219.008 969.9496,-217.8567"/>
<polygon fill="#191970" stroke="#191970" points="972.0274,-220.6948 978.8653,-212.6021 968.4731,-214.6643 972.0274,-220.6948"/>
</g>
<!-- Node21 -->
<g id="node21" class="node">
<title>Node21</title>
<g id="a_node21"><a xlink:href="../../d6/d9f/classG4AntiDeuteron.html#ad5e6cd07fb6e0c0ce8b0cf7afe2d6403" target="_top" xlink:title="G4AntiDeuteron::Definition">
<polygon fill="none" stroke="#000000" points="776,-141.5 776,-161.5 929,-161.5 929,-141.5 776,-141.5"/>
<text text-anchor="middle" x="852.5" y="-148.5" font-family="FreeSans" font-size="10.00" fill="#000000">G4AntiDeuteron::Definition</text>
</a>
</g>
</g>
<!-- Node20&#45;&gt;Node21 -->
<g id="edge24" class="edge">
<title>Node20&#45;&gt;Node21</title>
<path fill="none" stroke="#191970" d="M733.5415,-148.0098C744.1581,-148.3213 755.0218,-148.64 765.6578,-148.9521"/>
<polygon fill="#191970" stroke="#191970" points="765.6715,-152.4539 775.7699,-149.2488 765.8769,-145.4569 765.6715,-152.4539"/>
</g>
<!-- Node21&#45;&gt;Node6 -->
<g id="edge25" class="edge">
<title>Node21&#45;&gt;Node6</title>
<path fill="none" stroke="#191970" d="M911.5951,-161.5544C917.7525,-163.9316 923.6908,-166.8694 929,-170.5 951.9022,-186.161 941.9815,-206.0105 965,-221.5 968.3384,-223.7465 971.8964,-225.7425 975.5938,-227.5159"/>
<polygon fill="#191970" stroke="#191970" points="974.4513,-230.8322 985.0263,-231.4811 977.1641,-224.3792 974.4513,-230.8322"/>
</g>
<!-- Node21&#45;&gt;Node11 -->
<g id="edge26" class="edge">
<title>Node21&#45;&gt;Node11</title>
<path fill="none" stroke="#191970" d="M929.2453,-151.5C950.7988,-151.5 973.8471,-151.5 994.0274,-151.5"/>
<polygon fill="#191970" stroke="#191970" points="994.296,-155.0001 1004.2959,-151.5 994.2959,-148.0001 994.296,-155.0001"/>
</g>
<!-- Node21&#45;&gt;Node12 -->
<g id="edge27" class="edge">
<title>Node21&#45;&gt;Node12</title>
<path fill="none" stroke="#191970" d="M897.0473,-161.5989C918.6421,-166.4944 945.2614,-172.529 970.2572,-178.1956"/>
<polygon fill="#191970" stroke="#191970" points="969.5834,-181.6316 980.1098,-180.4292 971.1311,-174.8048 969.5834,-181.6316"/>
</g>
<!-- Node22 -->
<g id="node22" class="node">
<title>Node22</title>
<g id="a_node22"><a xlink:href="../../d5/d38/classG4ParticleDefinition.html#a45d19537b85dd40b3527949cf75155f5" target="_top" xlink:title="G4ParticleDefinition\l::SetPDGMagneticMoment">
<polygon fill="none" stroke="#000000" points="976.5,-90.5 976.5,-122.5 1125.5,-122.5 1125.5,-90.5 976.5,-90.5"/>
<text text-anchor="start" x="984.5" y="-109.5" font-family="FreeSans" font-size="10.00" fill="#000000">G4ParticleDefinition</text>
<text text-anchor="middle" x="1051" y="-97.5" font-family="FreeSans" font-size="10.00" fill="#000000">::SetPDGMagneticMoment</text>
</a>
</g>
</g>
<!-- Node21&#45;&gt;Node22 -->
<g id="edge28" class="edge">
<title>Node21&#45;&gt;Node22</title>
<path fill="none" stroke="#191970" d="M897.0473,-141.4011C918.6421,-136.5056 945.2614,-130.471 970.2572,-124.8044"/>
<polygon fill="#191970" stroke="#191970" points="971.1311,-128.1952 980.1098,-122.5708 969.5834,-121.3684 971.1311,-128.1952"/>
</g>
<!-- Node24 -->
<g id="node24" class="node">
<title>Node24</title>
<g id="a_node24"><a xlink:href="../../d1/dfc/classG4AntiHe3.html#a2af9bb776b339cf0a0385a6de5a7b78c" target="_top" xlink:title="G4AntiHe3::Definition">
<polygon fill="none" stroke="#000000" points="789,-102.5 789,-122.5 916,-122.5 916,-102.5 789,-102.5"/>
<text text-anchor="middle" x="852.5" y="-109.5" font-family="FreeSans" font-size="10.00" fill="#000000">G4AntiHe3::Definition</text>
</a>
</g>
</g>
<!-- Node23&#45;&gt;Node24 -->
<g id="edge30" class="edge">
<title>Node23&#45;&gt;Node24</title>
<path fill="none" stroke="#191970" d="M731.768,-105.4155C747.2726,-106.3253 763.3636,-107.2695 778.5505,-108.1607"/>
<polygon fill="#191970" stroke="#191970" points="778.7138,-111.6762 788.9017,-108.7681 779.1239,-104.6882 778.7138,-111.6762"/>
</g>
<!-- Node24&#45;&gt;Node6 -->
<g id="edge31" class="edge">
<title>Node24&#45;&gt;Node6</title>
<path fill="none" stroke="#191970" d="M915.1673,-122.5722C920.1687,-124.9671 924.8734,-127.9035 929,-131.5 961.4777,-159.8055 932.3117,-193.438 965,-221.5 967.0354,-223.2474 969.1944,-224.8493 971.4506,-226.3175"/>
<polygon fill="#191970" stroke="#191970" points="970.1307,-229.5861 980.579,-231.3423 973.5064,-223.4538 970.1307,-229.5861"/>
</g>
<!-- Node24&#45;&gt;Node11 -->
<g id="edge32" class="edge">
<title>Node24&#45;&gt;Node11</title>
<path fill="none" stroke="#191970" d="M903.6187,-122.5435C931.4656,-128.0146 965.9824,-134.7963 994.6104,-140.4209"/>
<polygon fill="#191970" stroke="#191970" points="993.9832,-143.8645 1004.4704,-142.3582 995.3327,-136.9959 993.9832,-143.8645"/>
</g>
<!-- Node24&#45;&gt;Node12 -->
<g id="edge33" class="edge">
<title>Node24&#45;&gt;Node12</title>
<path fill="none" stroke="#191970" d="M909.147,-122.562C916.0837,-124.9396 922.8761,-127.8756 929,-131.5 949.3001,-143.5147 945.0076,-157.9801 965,-170.5 968.3256,-172.5826 971.828,-174.5069 975.4405,-176.284"/>
<polygon fill="#191970" stroke="#191970" points="974.0525,-179.4974 984.6084,-180.4044 976.922,-173.1126 974.0525,-179.4974"/>
</g>
<!-- Node24&#45;&gt;Node22 -->
<g id="edge34" class="edge">
<title>Node24&#45;&gt;Node22</title>
<path fill="none" stroke="#191970" d="M916.1257,-110.5768C931.9963,-110.0971 949.2681,-109.575 965.9893,-109.0696"/>
<polygon fill="#191970" stroke="#191970" points="966.4223,-112.5582 976.312,-108.7576 966.2107,-105.5614 966.4223,-112.5582"/>
</g>
<!-- Node26 -->
<g id="node26" class="node">
<title>Node26</title>
<g id="a_node26"><a xlink:href="../../d2/d74/classG4AntiTriton.html#a3a218bc8fb6ec13e947564b50d374465" target="_top" xlink:title="G4AntiTriton::Definition">
<polygon fill="none" stroke="#000000" points="785.5,-63.5 785.5,-83.5 919.5,-83.5 919.5,-63.5 785.5,-63.5"/>
<text text-anchor="middle" x="852.5" y="-70.5" font-family="FreeSans" font-size="10.00" fill="#000000">G4AntiTriton::Definition</text>
</a>
</g>
</g>
<!-- Node25&#45;&gt;Node26 -->
<g id="edge36" class="edge">
<title>Node25&#45;&gt;Node26</title>
<path fill="none" stroke="#191970" d="M715.2442,-61.4188C734.377,-63.1029 755.3695,-64.9506 775.0563,-66.6834"/>
<polygon fill="#191970" stroke="#191970" points="774.947,-70.1873 785.2154,-67.5776 775.5608,-63.2142 774.947,-70.1873"/>
</g>
<!-- Node26&#45;&gt;Node6 -->
<g id="edge37" class="edge">
<title>Node26&#45;&gt;Node6</title>
<path fill="none" stroke="#191970" d="M916.6953,-83.6771C921.189,-86.0659 925.3686,-88.9714 929,-92.5 971.6896,-133.9814 922.0017,-180.3387 965,-221.5 966.7094,-223.1364 968.5254,-224.6482 970.4289,-226.0444"/>
<polygon fill="#191970" stroke="#191970" points="968.9188,-229.2234 979.2761,-231.4541 972.5705,-223.2514 968.9188,-229.2234"/>
</g>
<!-- Node26&#45;&gt;Node11 -->
<g id="edge38" class="edge">
<title>Node26&#45;&gt;Node11</title>
<path fill="none" stroke="#191970" d="M909.147,-83.562C916.0837,-85.9396 922.8761,-88.8756 929,-92.5 949.3001,-104.5147 944.6107,-119.6373 965,-131.5 974.0367,-136.7576 984.3624,-140.6334 994.649,-143.4904"/>
<polygon fill="#191970" stroke="#191970" points="993.9069,-146.9123 1004.4561,-145.9292 995.5963,-140.1193 993.9069,-146.9123"/>
</g>
<!-- Node26&#45;&gt;Node12 -->
<g id="edge39" class="edge">
<title>Node26&#45;&gt;Node12</title>
<path fill="none" stroke="#191970" d="M914.5922,-83.6285C919.7748,-86.0071 924.676,-88.9246 929,-92.5 958.4246,-116.8304 936.1947,-145.4395 965,-170.5 966.7688,-172.0389 968.6265,-173.4867 970.5563,-174.8488"/>
<polygon fill="#191970" stroke="#191970" points="969.0748,-178.0459 979.4295,-180.2889 972.7336,-172.0782 969.0748,-178.0459"/>
</g>
<!-- Node26&#45;&gt;Node22 -->
<g id="edge40" class="edge">
<title>Node26&#45;&gt;Node22</title>
<path fill="none" stroke="#191970" d="M912.865,-83.5355C929.707,-86.3354 948.3234,-89.4303 966.2901,-92.4172"/>
<polygon fill="#191970" stroke="#191970" points="965.7507,-95.8755 976.1894,-94.063 966.8988,-88.9703 965.7507,-95.8755"/>
</g>
<!-- Node28 -->
<g id="node28" class="node">
<title>Node28</title>
<g id="a_node28"><a xlink:href="../../df/dfb/classG4Deuteron.html#a74d694cab30a36b98c5cff2279bea1f9" target="_top" xlink:title="G4Deuteron::Definition">
<polygon fill="none" stroke="#000000" points="786,-24.5 786,-44.5 919,-44.5 919,-24.5 786,-24.5"/>
<text text-anchor="middle" x="852.5" y="-31.5" font-family="FreeSans" font-size="10.00" fill="#000000">G4Deuteron::Definition</text>
</a>
</g>
</g>
<!-- Node27&#45;&gt;Node28 -->
<g id="edge42" class="edge">
<title>Node27&#45;&gt;Node28</title>
<path fill="none" stroke="#191970" d="M733.2456,-20.5044C747.3559,-22.1604 761.9107,-23.8685 775.7942,-25.4979"/>
<polygon fill="#191970" stroke="#191970" points="775.4292,-28.9789 785.769,-26.6685 776.2451,-22.0267 775.4292,-28.9789"/>
</g>
<!-- Node28&#45;&gt;Node6 -->
<g id="edge43" class="edge">
<title>Node28&#45;&gt;Node6</title>
<path fill="none" stroke="#191970" d="M917.2947,-44.6366C921.5974,-47.0408 925.5732,-49.9605 929,-53.5 982.1156,-108.3621 911.476,-167.0363 965,-221.5 966.4505,-222.976 967.9872,-224.3519 969.5969,-225.6342"/>
<polygon fill="#191970" stroke="#191970" points="967.917,-228.7186 978.1936,-231.2956 971.767,-222.8725 967.917,-228.7186"/>
</g>
<!-- Node28&#45;&gt;Node11 -->
<g id="edge44" class="edge">
<title>Node28&#45;&gt;Node11</title>
<path fill="none" stroke="#191970" d="M914.5922,-44.6285C919.7748,-47.0071 924.676,-49.9246 929,-53.5 958.4246,-77.8304 935.3944,-107.3901 965,-131.5 973.4633,-138.3923 983.8717,-142.9978 994.4884,-146.0553"/>
<polygon fill="#191970" stroke="#191970" points="993.7013,-149.466 1004.2472,-148.4494 995.3691,-142.6675 993.7013,-149.466"/>
</g>
<!-- Node28&#45;&gt;Node12 -->
<g id="edge45" class="edge">
<title>Node28&#45;&gt;Node12</title>
<path fill="none" stroke="#191970" d="M916.2271,-44.5921C920.8819,-46.9936 925.2231,-49.9255 929,-53.5 968.5151,-90.8972 926.4349,-132.1238 965,-170.5 966.4512,-171.9441 967.9796,-173.3084 969.5735,-174.5974"/>
<polygon fill="#191970" stroke="#191970" points="967.8161,-177.637 978.0349,-180.4346 971.7911,-171.8751 967.8161,-177.637"/>
</g>
<!-- Node28&#45;&gt;Node22 -->
<g id="edge46" class="edge">
<title>Node28&#45;&gt;Node22</title>
<path fill="none" stroke="#191970" d="M898.1665,-44.5212C908.4054,-47.1327 919.1495,-50.163 929,-53.5 956.2011,-62.7149 985.7659,-75.4847 1008.9783,-86.1808"/>
<polygon fill="#191970" stroke="#191970" points="1007.6453,-89.4209 1018.1882,-90.469 1010.6,-83.075 1007.6453,-89.4209"/>
</g>
<!-- Node30 -->
<g id="node30" class="node">
<title>Node30</title>
<g id="a_node30"><a xlink:href="../../d4/d78/classG4GenericIon.html#a09a232545874038c6f7b5e92aa4c8ab8" target="_top" xlink:title="G4GenericIon::Definition">
<polygon fill="none" stroke="#000000" points="782,-336.5 782,-356.5 923,-356.5 923,-336.5 782,-336.5"/>
<text text-anchor="middle" x="852.5" y="-343.5" font-family="FreeSans" font-size="10.00" fill="#000000">G4GenericIon::Definition</text>
</a>
</g>
</g>
<!-- Node29&#45;&gt;Node30 -->
<g id="edge48" class="edge">
<title>Node29&#45;&gt;Node30</title>
<path fill="none" stroke="#191970" d="M721.5403,-350.3423C737.7557,-349.8666 755.0194,-349.3601 771.5111,-348.8762"/>
<polygon fill="#191970" stroke="#191970" points="771.7704,-352.3702 781.6634,-348.5783 771.565,-345.3732 771.7704,-352.3702"/>
</g>
<!-- Node30&#45;&gt;Node6 -->
<g id="edge49" class="edge">
<title>Node30&#45;&gt;Node6</title>
<path fill="none" stroke="#191970" d="M901.5546,-336.4256C910.8764,-333.7483 920.3986,-330.4669 929,-326.5 968.4587,-308.3021 1008.7732,-277.286 1031.7581,-258.1763"/>
<polygon fill="#191970" stroke="#191970" points="1034.0233,-260.8445 1039.4085,-251.7204 1029.5088,-255.4948 1034.0233,-260.8445"/>
</g>
<!-- Node30&#45;&gt;Node11 -->
<g id="edge50" class="edge">
<title>Node30&#45;&gt;Node11</title>
<path fill="none" stroke="#191970" d="M915.4431,-336.4169C920.4502,-333.7938 925.0781,-330.537 929,-326.5 978.5819,-275.4633 914.4505,-220.5785 965,-170.5 972.984,-162.5904 983.4726,-157.6564 994.3694,-154.6414"/>
<polygon fill="#191970" stroke="#191970" points="995.4413,-157.988 1004.4313,-152.3818 993.9074,-151.1581 995.4413,-157.988"/>
</g>
<!-- Node30&#45;&gt;Node12 -->
<g id="edge51" class="edge">
<title>Node30&#45;&gt;Node12</title>
<path fill="none" stroke="#191970" d="M914.2643,-336.3426C919.6418,-333.7462 924.6733,-330.5154 929,-326.5 965.1603,-292.9409 929.2992,-255.5475 965,-221.5 966.1252,-220.4269 967.2937,-219.3995 968.5004,-218.4159"/>
<polygon fill="#191970" stroke="#191970" points="970.7474,-221.1168 976.9655,-212.5386 966.7551,-215.3668 970.7474,-221.1168"/>
</g>
<!-- Node31 -->
<g id="node31" class="node">
<title>Node31</title>
<g id="a_node31"><a xlink:href="../../d8/dd3/classG4ParticleTable.html#aaf9d10fc04506d47b91b658bf3b3df51" target="_top" xlink:title="G4ParticleTable::SetGenericIon">
<polygon fill="none" stroke="#000000" points="965,-336.5 965,-356.5 1137,-356.5 1137,-336.5 965,-336.5"/>
<text text-anchor="middle" x="1051" y="-343.5" font-family="FreeSans" font-size="10.00" fill="#000000">G4ParticleTable::SetGenericIon</text>
</a>
</g>
</g>
<!-- Node30&#45;&gt;Node31 -->
<g id="edge52" class="edge">
<title>Node30&#45;&gt;Node31</title>
<path fill="none" stroke="#191970" d="M923.0426,-346.5C933.2606,-346.5 943.9228,-346.5 954.5424,-346.5"/>
<polygon fill="#191970" stroke="#191970" points="954.6951,-350.0001 964.6951,-346.5 954.695,-343.0001 954.6951,-350.0001"/>
</g>
<!-- Node33 -->
<g id="node33" class="node">
<title>Node33</title>
<g id="a_node33"><a xlink:href="../../d2/db5/classG4He3.html#aa681f88951f8cdb2692633431817bc17" target="_top" xlink:title="G4He3::Definition">
<polygon fill="none" stroke="#000000" points="799.5,-180.5 799.5,-200.5 905.5,-200.5 905.5,-180.5 799.5,-180.5"/>
<text text-anchor="middle" x="852.5" y="-187.5" font-family="FreeSans" font-size="10.00" fill="#000000">G4He3::Definition</text>
</a>
</g>
</g>
<!-- Node32&#45;&gt;Node33 -->
<g id="edge54" class="edge">
<title>Node32&#45;&gt;Node33</title>
<path fill="none" stroke="#191970" d="M711.5841,-190.5C736.2064,-190.5 764.3367,-190.5 788.9552,-190.5"/>
<polygon fill="#191970" stroke="#191970" points="789.2706,-194.0001 799.2706,-190.5 789.2705,-187.0001 789.2706,-194.0001"/>
</g>
<!-- Node33&#45;&gt;Node6 -->
<g id="edge55" class="edge">
<title>Node33&#45;&gt;Node6</title>
<path fill="none" stroke="#191970" d="M895.5462,-200.5639C906.5019,-203.297 918.2236,-206.3709 929,-209.5 945.1965,-214.2029 948.7688,-216.9182 965,-221.5 974.5154,-224.186 984.6952,-226.7881 994.6006,-229.1781"/>
<polygon fill="#191970" stroke="#191970" points="993.8425,-232.5953 1004.3798,-231.4927 995.4548,-225.7835 993.8425,-232.5953"/>
</g>
<!-- Node33&#45;&gt;Node11 -->
<g id="edge56" class="edge">
<title>Node33&#45;&gt;Node11</title>
<path fill="none" stroke="#191970" d="M903.6187,-180.4565C931.4656,-174.9854 965.9824,-168.2037 994.6104,-162.5791"/>
<polygon fill="#191970" stroke="#191970" points="995.3327,-166.0041 1004.4704,-160.6418 993.9832,-159.1355 995.3327,-166.0041"/>
</g>
<!-- Node33&#45;&gt;Node12 -->
<g id="edge57" class="edge">
<title>Node33&#45;&gt;Node12</title>
<path fill="none" stroke="#191970" d="M905.6944,-192.1079C923.1994,-192.637 943.1604,-193.2404 962.5635,-193.8269"/>
<polygon fill="#191970" stroke="#191970" points="962.5421,-197.3277 972.6433,-194.1315 962.7536,-190.3309 962.5421,-197.3277"/>
</g>
<!-- Node33&#45;&gt;Node22 -->
<g id="edge58" class="edge">
<title>Node33&#45;&gt;Node22</title>
<path fill="none" stroke="#191970" d="M905.5416,-180.8663C913.7182,-178.2004 921.82,-174.8092 929,-170.5 949.2259,-158.361 944.9409,-143.9128 965,-131.5 967.6258,-129.8751 970.3617,-128.3519 973.1749,-126.9244"/>
<polygon fill="#191970" stroke="#191970" points="974.7635,-130.0461 982.3819,-122.6834 971.8348,-123.6882 974.7635,-130.0461"/>
</g>
<!-- Node35 -->
<g id="node35" class="node">
<title>Node35</title>
<g id="a_node35"><a xlink:href="../../da/d5b/classG4Triton.html#ab5a5c3ad6e7dc2c64f885996e2cc49f9" target="_top" xlink:title="G4Triton::Definition">
<polygon fill="none" stroke="#000000" points="795.5,-219.5 795.5,-239.5 909.5,-239.5 909.5,-219.5 795.5,-219.5"/>
<text text-anchor="middle" x="852.5" y="-226.5" font-family="FreeSans" font-size="10.00" fill="#000000">G4Triton::Definition</text>
</a>
</g>
</g>
<!-- Node34&#45;&gt;Node35 -->
<g id="edge60" class="edge">
<title>Node34&#45;&gt;Node35</title>
<path fill="none" stroke="#191970" d="M719.5242,-229.5C740.8054,-229.5 764.0442,-229.5 785.0563,-229.5"/>
<polygon fill="#191970" stroke="#191970" points="785.1742,-233.0001 795.1741,-229.5 785.1741,-226.0001 785.1742,-233.0001"/>
</g>
<!-- Node35&#45;&gt;Node6 -->
<g id="edge61" class="edge">
<title>Node35&#45;&gt;Node6</title>
<path fill="none" stroke="#191970" d="M909.6481,-232.9548C925.7328,-233.9272 943.6285,-235.009 961.1315,-236.0671"/>
<polygon fill="#191970" stroke="#191970" points="961.182,-239.5765 971.375,-236.6864 961.6044,-232.5892 961.182,-239.5765"/>
</g>
<!-- Node35&#45;&gt;Node11 -->
<g id="edge62" class="edge">
<title>Node35&#45;&gt;Node11</title>
<path fill="none" stroke="#191970" d="M906.7474,-219.4677C914.5129,-216.8646 922.1731,-213.5973 929,-209.5 949.2259,-197.361 944.5455,-182.2497 965,-170.5 974.0429,-165.3055 984.3716,-161.5302 994.6591,-158.7866"/>
<polygon fill="#191970" stroke="#191970" points="995.5446,-162.1738 1004.4664,-156.4597 993.9285,-155.3629 995.5446,-162.1738"/>
</g>
<!-- Node35&#45;&gt;Node12 -->
<g id="edge63" class="edge">
<title>Node35&#45;&gt;Node12</title>
<path fill="none" stroke="#191970" d="M909.6481,-219.9993C926.2697,-217.236 944.8251,-214.1512 962.8827,-211.1492"/>
<polygon fill="#191970" stroke="#191970" points="963.5575,-214.5852 972.8481,-209.4925 962.4094,-207.6799 963.5575,-214.5852"/>
</g>
<!-- Node35&#45;&gt;Node22 -->
<g id="edge64" class="edge">
<title>Node35&#45;&gt;Node22</title>
<path fill="none" stroke="#191970" d="M909.608,-220.683C916.6265,-217.8999 923.3162,-214.2588 929,-209.5 958.2747,-184.9894 936.0611,-156.4062 965,-131.5 966.5026,-130.2068 968.0688,-128.9804 969.6886,-127.8174"/>
<polygon fill="#191970" stroke="#191970" points="971.5566,-130.7773 978.1877,-122.5142 967.8509,-124.8386 971.5566,-130.7773"/>
</g>
</g>
</svg>
