<?xml version="1.0" encoding="UTF-8" standalone="no"?>
<!DOCTYPE svg PUBLIC "-//W3C//DTD SVG 1.1//EN"
 "http://www.w3.org/Graphics/SVG/1.1/DTD/svg11.dtd">
<!-- Generated by graphviz version 2.40.1 (20161225.0304)
 -->
<!-- Title: macros/blob/master/common/G4_dRICH.C Pages: 1 -->
<svg width="1678pt" height="419pt"
 viewBox="0.00 0.00 1677.50 419.00" xmlns="http://www.w3.org/2000/svg" xmlns:xlink="http://www.w3.org/1999/xlink">
<g id="graph0" class="graph" transform="scale(1 1) rotate(0) translate(4 415)">
<title>macros/blob/master/common/G4_dRICH.C</title>
<!-- Node1 -->
<g id="node1" class="node">
<title>Node1</title>
<polygon fill="#bfbfbf" stroke="#000000" points="500,-378.5 500,-410.5 628,-410.5 628,-378.5 500,-378.5"/>
<text text-anchor="start" x="508" y="-397.5" font-family="FreeSans" font-size="10.00" fill="#000000">macros/blob/master</text>
<text text-anchor="middle" x="564" y="-385.5" font-family="FreeSans" font-size="10.00" fill="#000000">/common/G4_dRICH.C</text>
</g>
<!-- Node2 -->
<g id="node2" class="node">
<title>Node2</title>
<g id="a_node2"><a xlink:href="../../dc/dfe/GlobalVariables_8C.html" target="_top" xlink:title="GlobalVariables.C">
<polygon fill="none" stroke="#000000" points="59.5,-177.5 59.5,-197.5 164.5,-197.5 164.5,-177.5 59.5,-177.5"/>
<text text-anchor="middle" x="112" y="-184.5" font-family="FreeSans" font-size="10.00" fill="#000000">GlobalVariables.C</text>
</a>
</g>
</g>
<!-- Node1&#45;&gt;Node2 -->
<g id="edge1" class="edge">
<title>Node1&#45;&gt;Node2</title>
<path fill="none" stroke="#191970" d="M499.6631,-380.2579C463.7209,-371.2899 418.5449,-358.3169 380,-342 284.2227,-301.4554 179.987,-233.8391 134.8994,-203.3113"/>
<polygon fill="#191970" stroke="#191970" points="136.6798,-200.2892 126.445,-197.5509 132.7383,-206.0741 136.6798,-200.2892"/>
</g>
<!-- Node6 -->
<g id="node6" class="node">
<title>Node6</title>
<polygon fill="none" stroke="#bfbfbf" points="652.5,-309.5 652.5,-341.5 799.5,-341.5 799.5,-309.5 652.5,-309.5"/>
<text text-anchor="start" x="660.5" y="-328.5" font-family="FreeSans" font-size="10.00" fill="#000000">eccefastpidreco/ECCEFast</text>
<text text-anchor="middle" x="726" y="-316.5" font-family="FreeSans" font-size="10.00" fill="#000000">PIDReco.h</text>
</g>
<!-- Node1&#45;&gt;Node6 -->
<g id="edge5" class="edge">
<title>Node1&#45;&gt;Node6</title>
<path fill="none" stroke="#191970" d="M601.5732,-378.4966C624.5952,-368.6909 654.2623,-356.055 678.8532,-345.5811"/>
<polygon fill="#191970" stroke="#191970" points="680.5215,-348.6748 688.3503,-341.536 677.7785,-342.2346 680.5215,-348.6748"/>
</g>
<!-- Node7 -->
<g id="node7" class="node">
<title>Node7</title>
<polygon fill="none" stroke="#bfbfbf" points="818,-309.5 818,-341.5 996,-341.5 996,-309.5 818,-309.5"/>
<text text-anchor="start" x="826" y="-328.5" font-family="FreeSans" font-size="10.00" fill="#000000">eccefastpidreco/ECCEdRICHFast</text>
<text text-anchor="middle" x="907" y="-316.5" font-family="FreeSans" font-size="10.00" fill="#000000">PIDMap.h</text>
</g>
<!-- Node1&#45;&gt;Node7 -->
<g id="edge6" class="edge">
<title>Node1&#45;&gt;Node7</title>
<path fill="none" stroke="#191970" d="M628.1133,-381.6026C681.3607,-370.891 757.7181,-355.5305 817.0773,-343.5894"/>
<polygon fill="#191970" stroke="#191970" points="818.0875,-346.9564 827.2008,-341.5529 816.7069,-340.0939 818.0875,-346.9564"/>
</g>
<!-- Node8 -->
<g id="node8" class="node">
<title>Node8</title>
<g id="a_node8"><a xlink:href="../../dc/d5c/EICG4dRICHSubsystem_8h.html" target="_top" xlink:title="g4drich/EICG4dRICHSubsystem.h">
<polygon fill="none" stroke="#000000" points="411.5,-315.5 411.5,-335.5 596.5,-335.5 596.5,-315.5 411.5,-315.5"/>
<text text-anchor="middle" x="504" y="-322.5" font-family="FreeSans" font-size="10.00" fill="#000000">g4drich/EICG4dRICHSubsystem.h</text>
</a>
</g>
</g>
<!-- Node1&#45;&gt;Node8 -->
<g id="edge7" class="edge">
<title>Node1&#45;&gt;Node8</title>
<path fill="none" stroke="#191970" d="M550.084,-378.4966C540.9253,-367.964 528.927,-354.1661 519.4692,-343.2895"/>
<polygon fill="#191970" stroke="#191970" points="522.0239,-340.8936 512.821,-335.6441 516.7417,-345.4868 522.0239,-340.8936"/>
</g>
<!-- Node17 -->
<g id="node17" class="node">
<title>Node17</title>
<g id="a_node17"><a xlink:href="../../dd/d3d/PHG4TrackFastSim_8h.html" target="_top" xlink:title="Kalman Filter based on smeared truth PHG4Hit.">
<polygon fill="none" stroke="#000000" points="1153,-171.5 1153,-203.5 1303,-203.5 1303,-171.5 1153,-171.5"/>
<text text-anchor="start" x="1161" y="-190.5" font-family="FreeSans" font-size="10.00" fill="#000000">g4trackfastsim/PHG4Track</text>
<text text-anchor="middle" x="1228" y="-178.5" font-family="FreeSans" font-size="10.00" fill="#000000">FastSim.h</text>
</a>
</g>
</g>
<!-- Node1&#45;&gt;Node17 -->
<g id="edge20" class="edge">
<title>Node1&#45;&gt;Node17</title>
<path fill="none" stroke="#191970" d="M577.0538,-378.3664C595.3455,-356.1623 628.1381,-317.9115 644,-309 728.504,-261.5242 1001.6759,-218.5156 1142.4209,-198.8252"/>
<polygon fill="#191970" stroke="#191970" points="1143.311,-202.2352 1152.7335,-197.391 1142.3467,-195.3019 1143.311,-202.2352"/>
</g>
<!-- Node24 -->
<g id="node24" class="node">
<title>Node24</title>
<g id="a_node24"><a xlink:href="../../d0/d2b/PHG4Reco_8h.html" target="_top" xlink:title="g4main/PHG4Reco.h">
<polygon fill="none" stroke="#000000" points="315.5,-177.5 315.5,-197.5 434.5,-197.5 434.5,-177.5 315.5,-177.5"/>
<text text-anchor="middle" x="375" y="-184.5" font-family="FreeSans" font-size="10.00" fill="#000000">g4main/PHG4Reco.h</text>
</a>
</g>
</g>
<!-- Node1&#45;&gt;Node24 -->
<g id="edge31" class="edge">
<title>Node1&#45;&gt;Node24</title>
<path fill="none" stroke="#191970" d="M499.7011,-380.6375C460.7607,-370.9393 416.1438,-357.0639 403,-342 369.8141,-303.9662 369.9867,-240.1216 372.6228,-207.7033"/>
<polygon fill="#191970" stroke="#191970" points="376.1168,-207.9343 373.6073,-197.641 369.1501,-207.2526 376.1168,-207.9343"/>
</g>
<!-- Node3 -->
<g id="node3" class="node">
<title>Node3</title>
<g id="a_node3"><a xlink:href="../../df/d47/coresoftware_2blob_2master_2simulation_2g4simulation_2g4decayer_2EDecayType_8hh.html" target="_top" xlink:title="g4decayer/EDecayType.hh">
<polygon fill="none" stroke="#000000" points="88,-114.5 88,-134.5 238,-134.5 238,-114.5 88,-114.5"/>
<text text-anchor="middle" x="163" y="-121.5" font-family="FreeSans" font-size="10.00" fill="#000000">g4decayer/EDecayType.hh</text>
</a>
</g>
</g>
<!-- Node2&#45;&gt;Node3 -->
<g id="edge2" class="edge">
<title>Node2&#45;&gt;Node3</title>
<path fill="none" stroke="#191970" d="M120.194,-177.378C127.7331,-168.0649 139.0935,-154.0316 148.2167,-142.7617"/>
<polygon fill="#191970" stroke="#191970" points="151.0852,-144.7809 154.6569,-134.8062 145.6445,-140.3765 151.0852,-144.7809"/>
</g>
<!-- Node4 -->
<g id="node4" class="node">
<title>Node4</title>
<polygon fill="none" stroke="#bfbfbf" points="0,-114.5 0,-134.5 32,-134.5 32,-114.5 0,-114.5"/>
<text text-anchor="middle" x="16" y="-121.5" font-family="FreeSans" font-size="10.00" fill="#000000">set</text>
</g>
<!-- Node2&#45;&gt;Node4 -->
<g id="edge3" class="edge">
<title>Node2&#45;&gt;Node4</title>
<path fill="none" stroke="#191970" d="M96.5759,-177.378C81.3205,-167.3666 57.7529,-151.9003 40.0399,-140.2762"/>
<polygon fill="#191970" stroke="#191970" points="41.6666,-137.1574 31.3858,-134.5969 37.826,-143.0097 41.6666,-137.1574"/>
</g>
<!-- Node5 -->
<g id="node5" class="node">
<title>Node5</title>
<polygon fill="none" stroke="#bfbfbf" points="521.5,-.5 521.5,-20.5 566.5,-20.5 566.5,-.5 521.5,-.5"/>
<text text-anchor="middle" x="544" y="-7.5" font-family="FreeSans" font-size="10.00" fill="#000000">string</text>
</g>
<!-- Node2&#45;&gt;Node5 -->
<g id="edge4" class="edge">
<title>Node2&#45;&gt;Node5</title>
<path fill="none" stroke="#191970" d="M100.8369,-177.106C85.9626,-161.9999 63.249,-133.6423 79,-114 133.6078,-45.9013 414.3128,-19.736 511.1267,-12.6511"/>
<polygon fill="#191970" stroke="#191970" points="511.4912,-16.1341 521.2177,-11.9336 510.9946,-9.1518 511.4912,-16.1341"/>
</g>
<!-- Node9 -->
<g id="node9" class="node">
<title>Node9</title>
<g id="a_node9"><a xlink:href="../../d8/d3a/PHG4DetectorSubsystem_8h.html" target="_top" xlink:title="g4detectors/PHG4Detector\lSubsystem.h">
<polygon fill="none" stroke="#000000" points="437,-240.5 437,-272.5 589,-272.5 589,-240.5 437,-240.5"/>
<text text-anchor="start" x="445" y="-259.5" font-family="FreeSans" font-size="10.00" fill="#000000">g4detectors/PHG4Detector</text>
<text text-anchor="middle" x="513" y="-247.5" font-family="FreeSans" font-size="10.00" fill="#000000">Subsystem.h</text>
</a>
</g>
</g>
<!-- Node8&#45;&gt;Node9 -->
<g id="edge8" class="edge">
<title>Node8&#45;&gt;Node9</title>
<path fill="none" stroke="#191970" d="M505.328,-315.3188C506.4511,-306.7084 508.1105,-293.9862 509.599,-282.5741"/>
<polygon fill="#191970" stroke="#191970" points="513.0748,-282.9863 510.8977,-272.6175 506.1336,-282.0808 513.0748,-282.9863"/>
</g>
<!-- Node9&#45;&gt;Node5 -->
<g id="edge19" class="edge">
<title>Node9&#45;&gt;Node5</title>
<path fill="none" stroke="#191970" d="M514.7675,-240.4465C518.5377,-206.5305 527.7797,-125.1024 537,-57 538.1597,-48.4346 539.5574,-39.0006 540.798,-30.8814"/>
<polygon fill="#191970" stroke="#191970" points="544.2829,-31.2479 542.3551,-20.8299 537.3654,-30.1762 544.2829,-31.2479"/>
</g>
<!-- Node10 -->
<g id="node10" class="node">
<title>Node10</title>
<g id="a_node10"><a xlink:href="../../df/d1c/PHG4Subsystem_8h.html" target="_top" xlink:title="g4main/PHG4Subsystem.h">
<polygon fill="none" stroke="#000000" points="579.5,-177.5 579.5,-197.5 730.5,-197.5 730.5,-177.5 579.5,-177.5"/>
<text text-anchor="middle" x="655" y="-184.5" font-family="FreeSans" font-size="10.00" fill="#000000">g4main/PHG4Subsystem.h</text>
</a>
</g>
</g>
<!-- Node9&#45;&gt;Node10 -->
<g id="edge9" class="edge">
<title>Node9&#45;&gt;Node10</title>
<path fill="none" stroke="#191970" d="M545.9346,-240.4966C569.8415,-228.8798 601.9235,-213.2907 625.0972,-202.0302"/>
<polygon fill="#191970" stroke="#191970" points="626.659,-205.1627 634.1237,-197.6441 623.5996,-198.8666 626.659,-205.1627"/>
</g>
<!-- Node16 -->
<g id="node16" class="node">
<title>Node16</title>
<polygon fill="none" stroke="#bfbfbf" points="976.5,-114.5 976.5,-134.5 1015.5,-134.5 1015.5,-114.5 976.5,-114.5"/>
<text text-anchor="middle" x="996" y="-121.5" font-family="FreeSans" font-size="10.00" fill="#000000">map</text>
</g>
<!-- Node9&#45;&gt;Node16 -->
<g id="edge18" class="edge">
<title>Node9&#45;&gt;Node16</title>
<path fill="none" stroke="#191970" d="M588.2086,-240.4491C632.5648,-230.6487 689.6869,-217.4483 740,-204 838.7865,-177.5952 865.3587,-168.8244 966.6807,-134.9987"/>
<polygon fill="#191970" stroke="#191970" points="968.0161,-138.2428 976.3931,-131.7562 965.7993,-131.6031 968.0161,-138.2428"/>
</g>
<!-- Node10&#45;&gt;Node5 -->
<g id="edge17" class="edge">
<title>Node10&#45;&gt;Node5</title>
<path fill="none" stroke="#191970" d="M623.09,-177.4762C602.609,-169.3428 577.2639,-155.7674 563,-135 541.4335,-103.6004 540.4212,-57.2777 541.9754,-30.8858"/>
<polygon fill="#191970" stroke="#191970" points="545.49,-30.8328 542.7757,-20.5915 538.511,-30.2902 545.49,-30.8328"/>
</g>
<!-- Node11 -->
<g id="node11" class="node">
<title>Node11</title>
<g id="a_node11"><a xlink:href="../../da/dc1/Fun4AllReturnCodes_8h.html" target="_top" xlink:title="fun4all/Fun4AllReturnCodes.h">
<polygon fill="none" stroke="#000000" points="572,-114.5 572,-134.5 738,-134.5 738,-114.5 572,-114.5"/>
<text text-anchor="middle" x="655" y="-121.5" font-family="FreeSans" font-size="10.00" fill="#000000">fun4all/Fun4AllReturnCodes.h</text>
</a>
</g>
</g>
<!-- Node10&#45;&gt;Node11 -->
<g id="edge10" class="edge">
<title>Node10&#45;&gt;Node11</title>
<path fill="none" stroke="#191970" d="M655,-177.378C655,-168.7041 655,-155.9355 655,-145.1186"/>
<polygon fill="#191970" stroke="#191970" points="658.5001,-144.8062 655,-134.8062 651.5001,-144.8062 658.5001,-144.8062"/>
</g>
<!-- Node12 -->
<g id="node12" class="node">
<title>Node12</title>
<g id="a_node12"><a xlink:href="../../d5/dc2/SubsysReco_8h.html" target="_top" xlink:title="fun4all/SubsysReco.h">
<polygon fill="none" stroke="#000000" points="834,-114.5 834,-134.5 958,-134.5 958,-114.5 834,-114.5"/>
<text text-anchor="middle" x="896" y="-121.5" font-family="FreeSans" font-size="10.00" fill="#000000">fun4all/SubsysReco.h</text>
</a>
</g>
</g>
<!-- Node10&#45;&gt;Node12 -->
<g id="edge11" class="edge">
<title>Node10&#45;&gt;Node12</title>
<path fill="none" stroke="#191970" d="M693.4537,-177.4478C735.3365,-166.4992 802.4034,-148.9672 847.7802,-137.1052"/>
<polygon fill="#191970" stroke="#191970" points="848.8936,-140.4318 857.6833,-134.5164 847.1232,-133.6594 848.8936,-140.4318"/>
</g>
<!-- Node15 -->
<g id="node15" class="node">
<title>Node15</title>
<polygon fill="none" stroke="#bfbfbf" points="756,-114.5 756,-134.5 816,-134.5 816,-114.5 756,-114.5"/>
<text text-anchor="middle" x="786" y="-121.5" font-family="FreeSans" font-size="10.00" fill="#000000">iostream</text>
</g>
<!-- Node10&#45;&gt;Node15 -->
<g id="edge16" class="edge">
<title>Node10&#45;&gt;Node15</title>
<path fill="none" stroke="#191970" d="M676.0474,-177.378C697.6287,-166.9992 731.4004,-150.7578 755.8234,-139.0124"/>
<polygon fill="#191970" stroke="#191970" points="757.5097,-142.0852 765.0048,-134.5969 754.4759,-135.7768 757.5097,-142.0852"/>
</g>
<!-- Node12&#45;&gt;Node5 -->
<g id="edge15" class="edge">
<title>Node12&#45;&gt;Node5</title>
<path fill="none" stroke="#191970" d="M865.0709,-114.4832C798.8488,-93.0363 643.8946,-42.8522 576.3897,-20.9899"/>
<polygon fill="#191970" stroke="#191970" points="577.3008,-17.606 566.7089,-17.8546 575.144,-24.2655 577.3008,-17.606"/>
</g>
<!-- Node13 -->
<g id="node13" class="node">
<title>Node13</title>
<g id="a_node13"><a xlink:href="../../d2/de7/Fun4AllBase_8h.html" target="_top" xlink:title="Fun4AllBase.h">
<polygon fill="none" stroke="#000000" points="852.5,-57.5 852.5,-77.5 939.5,-77.5 939.5,-57.5 852.5,-57.5"/>
<text text-anchor="middle" x="896" y="-64.5" font-family="FreeSans" font-size="10.00" fill="#000000">Fun4AllBase.h</text>
</a>
</g>
</g>
<!-- Node12&#45;&gt;Node13 -->
<g id="edge12" class="edge">
<title>Node12&#45;&gt;Node13</title>
<path fill="none" stroke="#191970" d="M896,-114.3095C896,-106.9335 896,-96.72 896,-87.715"/>
<polygon fill="#191970" stroke="#191970" points="899.5001,-87.6022 896,-77.6022 892.5001,-87.6023 899.5001,-87.6022"/>
</g>
<!-- Node13&#45;&gt;Node5 -->
<g id="edge14" class="edge">
<title>Node13&#45;&gt;Node5</title>
<path fill="none" stroke="#191970" d="M852.4848,-60.4535C781.046,-48.8853 640.4846,-26.1239 576.7729,-15.807"/>
<polygon fill="#191970" stroke="#191970" points="577.303,-12.3473 566.8721,-14.2037 576.184,-19.2573 577.303,-12.3473"/>
</g>
<!-- Node14 -->
<g id="node14" class="node">
<title>Node14</title>
<polygon fill="none" stroke="#bfbfbf" points="1143.5,-.5 1143.5,-20.5 1192.5,-20.5 1192.5,-.5 1143.5,-.5"/>
<text text-anchor="middle" x="1168" y="-7.5" font-family="FreeSans" font-size="10.00" fill="#000000">climits</text>
</g>
<!-- Node13&#45;&gt;Node14 -->
<g id="edge13" class="edge">
<title>Node13&#45;&gt;Node14</title>
<path fill="none" stroke="#191970" d="M939.7015,-58.342C993.5382,-47.06 1083.9112,-28.1216 1133.2607,-17.7799"/>
<polygon fill="#191970" stroke="#191970" points="1134.0712,-21.1862 1143.1407,-15.7095 1132.6355,-14.335 1134.0712,-21.1862"/>
</g>
<!-- Node17&#45;&gt;Node5 -->
<g id="edge28" class="edge">
<title>Node17&#45;&gt;Node5</title>
<path fill="none" stroke="#191970" d="M1162.4481,-171.4054C1131.471,-162.6132 1094.4726,-150.3606 1063,-135 1007.829,-108.0732 1006.5166,-78.4646 949,-57 880.792,-31.5455 660.6486,-16.972 576.8243,-12.2302"/>
<polygon fill="#191970" stroke="#191970" points="576.7902,-8.723 566.6116,-11.6633 576.4022,-15.7123 576.7902,-8.723"/>
</g>
<!-- Node17&#45;&gt;Node12 -->
<g id="edge21" class="edge">
<title>Node17&#45;&gt;Node12</title>
<path fill="none" stroke="#191970" d="M1152.6641,-173.2043C1094.1295,-162.0969 1013.8994,-146.8725 958.8052,-136.4179"/>
<polygon fill="#191970" stroke="#191970" points="959.2986,-132.9491 948.8214,-134.5233 957.9935,-139.8264 959.2986,-132.9491"/>
</g>
<!-- Node17&#45;&gt;Node14 -->
<g id="edge26" class="edge">
<title>Node17&#45;&gt;Node14</title>
<path fill="none" stroke="#191970" d="M1303.1657,-176.594C1350.9049,-167.9545 1406.3712,-154.1398 1421,-135 1426.6677,-127.5846 1426.2023,-121.749 1421,-114 1371.5694,-40.3714 1259.4952,-19.0856 1202.5703,-12.9586"/>
<polygon fill="#191970" stroke="#191970" points="1202.9044,-9.4747 1192.6105,-11.9818 1202.2211,-16.4413 1202.9044,-9.4747"/>
</g>
<!-- Node17&#45;&gt;Node16 -->
<g id="edge27" class="edge">
<title>Node17&#45;&gt;Node16</title>
<path fill="none" stroke="#191970" d="M1164.9551,-171.476C1125.967,-161.395 1074.9522,-147.895 1030,-135 1028.5525,-134.5848 1027.0725,-134.1534 1025.5791,-133.7128"/>
<polygon fill="#191970" stroke="#191970" points="1026.321,-130.2809 1015.7363,-130.7426 1024.2987,-136.9824 1026.321,-130.2809"/>
</g>
<!-- Node18 -->
<g id="node18" class="node">
<title>Node18</title>
<polygon fill="none" stroke="#bfbfbf" points="1468,-114.5 1468,-134.5 1580,-134.5 1580,-114.5 1468,-114.5"/>
<text text-anchor="middle" x="1524" y="-121.5" font-family="FreeSans" font-size="10.00" fill="#000000">TMatrixDSymfwd.h</text>
</g>
<!-- Node17&#45;&gt;Node18 -->
<g id="edge22" class="edge">
<title>Node17&#45;&gt;Node18</title>
<path fill="none" stroke="#191970" d="M1303.0759,-171.521C1353.9779,-160.6871 1420.2229,-146.5877 1466.8487,-136.664"/>
<polygon fill="#191970" stroke="#191970" points="1467.7292,-140.055 1476.7815,-134.5499 1466.2719,-133.2084 1467.7292,-140.055"/>
</g>
<!-- Node19 -->
<g id="node19" class="node">
<title>Node19</title>
<polygon fill="none" stroke="#bfbfbf" points="1598.5,-114.5 1598.5,-134.5 1669.5,-134.5 1669.5,-114.5 1598.5,-114.5"/>
<text text-anchor="middle" x="1634" y="-121.5" font-family="FreeSans" font-size="10.00" fill="#000000">TVector3.h</text>
</g>
<!-- Node17&#45;&gt;Node19 -->
<g id="edge23" class="edge">
<title>Node17&#45;&gt;Node19</title>
<path fill="none" stroke="#191970" d="M1303.3257,-178.4367C1374.2812,-169.4682 1483.7296,-154.527 1588.1124,-135.0425"/>
<polygon fill="#191970" stroke="#191970" points="1589.0175,-138.4337 1598.1967,-133.1428 1587.7216,-131.5547 1589.0175,-138.4337"/>
</g>
<!-- Node20 -->
<g id="node20" class="node">
<title>Node20</title>
<polygon fill="none" stroke="#bfbfbf" points="1072,-114.5 1072,-134.5 1170,-134.5 1170,-114.5 1072,-114.5"/>
<text text-anchor="middle" x="1121" y="-121.5" font-family="FreeSans" font-size="10.00" fill="#000000">phgenfit/Track.h</text>
</g>
<!-- Node17&#45;&gt;Node20 -->
<g id="edge24" class="edge">
<title>Node17&#45;&gt;Node20</title>
<path fill="none" stroke="#191970" d="M1200.7225,-171.4394C1184.2633,-161.7485 1163.4048,-149.4673 1147.1521,-139.898"/>
<polygon fill="#191970" stroke="#191970" points="1148.5762,-136.6748 1138.1831,-134.6171 1145.0245,-142.7069 1148.5762,-136.6748"/>
</g>
<!-- Node21 -->
<g id="node21" class="node">
<title>Node21</title>
<polygon fill="none" stroke="#bfbfbf" points="1188,-114.5 1188,-134.5 1268,-134.5 1268,-114.5 1188,-114.5"/>
<text text-anchor="middle" x="1228" y="-121.5" font-family="FreeSans" font-size="10.00" fill="#000000">gsl/gsl_rng.h</text>
</g>
<!-- Node17&#45;&gt;Node21 -->
<g id="edge25" class="edge">
<title>Node17&#45;&gt;Node21</title>
<path fill="none" stroke="#191970" d="M1228,-171.2759C1228,-163.2654 1228,-153.5159 1228,-144.9952"/>
<polygon fill="#191970" stroke="#191970" points="1231.5001,-144.7512 1228,-134.7513 1224.5001,-144.7513 1231.5001,-144.7512"/>
</g>
<!-- Node22 -->
<g id="node22" class="node">
<title>Node22</title>
<polygon fill="none" stroke="#bfbfbf" points="1286.5,-114.5 1286.5,-134.5 1335.5,-134.5 1335.5,-114.5 1286.5,-114.5"/>
<text text-anchor="middle" x="1311" y="-121.5" font-family="FreeSans" font-size="10.00" fill="#000000">vector</text>
</g>
<!-- Node17&#45;&gt;Node22 -->
<g id="edge29" class="edge">
<title>Node17&#45;&gt;Node22</title>
<path fill="none" stroke="#191970" d="M1249.3746,-171.2759C1261.7067,-161.9154 1277.1674,-150.1802 1289.5177,-140.8058"/>
<polygon fill="#191970" stroke="#191970" points="1291.6451,-143.5851 1297.4944,-134.7513 1287.4129,-138.0094 1291.6451,-143.5851"/>
</g>
<!-- Node23 -->
<g id="node23" class="node">
<title>Node23</title>
<polygon fill="none" stroke="#bfbfbf" points="1354,-114.5 1354,-134.5 1412,-134.5 1412,-114.5 1354,-114.5"/>
<text text-anchor="middle" x="1383" y="-121.5" font-family="FreeSans" font-size="10.00" fill="#000000">memory</text>
</g>
<!-- Node17&#45;&gt;Node23 -->
<g id="edge30" class="edge">
<title>Node17&#45;&gt;Node23</title>
<path fill="none" stroke="#191970" d="M1267.5141,-171.4394C1292.5825,-161.2503 1324.6955,-148.198 1348.692,-138.4445"/>
<polygon fill="#191970" stroke="#191970" points="1350.1625,-141.625 1358.1087,-134.6171 1347.5267,-135.1402 1350.1625,-141.625"/>
</g>
<!-- Node24&#45;&gt;Node3 -->
<g id="edge32" class="edge">
<title>Node24&#45;&gt;Node3</title>
<path fill="none" stroke="#191970" d="M340.9385,-177.378C304.4678,-166.54 246.4845,-149.3091 206.6807,-137.4806"/>
<polygon fill="#191970" stroke="#191970" points="207.5597,-134.0906 196.9769,-134.5969 205.5656,-140.8006 207.5597,-134.0906"/>
</g>
<!-- Node24&#45;&gt;Node5 -->
<g id="edge36" class="edge">
<title>Node24&#45;&gt;Node5</title>
<path fill="none" stroke="#191970" d="M393.8209,-177.3896C409.9566,-168.0205 433.0547,-152.8611 449,-135 475.3626,-105.4699 467.3404,-87.9664 492,-57 500.8411,-45.8978 512.4844,-35.216 522.5118,-26.8961"/>
<polygon fill="#191970" stroke="#191970" points="524.8587,-29.5002 530.4577,-20.5056 520.4717,-24.0454 524.8587,-29.5002"/>
</g>
<!-- Node24&#45;&gt;Node12 -->
<g id="edge33" class="edge">
<title>Node24&#45;&gt;Node12</title>
<path fill="none" stroke="#191970" d="M434.761,-181.118C519.09,-171.9814 678.0774,-154.2765 823.6639,-135.1479"/>
<polygon fill="#191970" stroke="#191970" points="824.2207,-138.6049 833.6771,-133.8272 823.3052,-131.665 824.2207,-138.6049"/>
</g>
<!-- Node25 -->
<g id="node25" class="node">
<title>Node25</title>
<polygon fill="none" stroke="#bfbfbf" points="306,-114.5 306,-134.5 440,-134.5 440,-114.5 306,-114.5"/>
<text text-anchor="middle" x="373" y="-121.5" font-family="FreeSans" font-size="10.00" fill="#000000">phfield/PHFieldConfig.h</text>
</g>
<!-- Node24&#45;&gt;Node25 -->
<g id="edge34" class="edge">
<title>Node24&#45;&gt;Node25</title>
<path fill="none" stroke="#191970" d="M374.6787,-177.378C374.4033,-168.7041 373.998,-155.9355 373.6546,-145.1186"/>
<polygon fill="#191970" stroke="#191970" points="377.1428,-144.6901 373.3272,-134.8062 370.1463,-144.9123 377.1428,-144.6901"/>
</g>
<!-- Node26 -->
<g id="node26" class="node">
<title>Node26</title>
<polygon fill="none" stroke="#bfbfbf" points="256,-114.5 256,-134.5 288,-134.5 288,-114.5 256,-114.5"/>
<text text-anchor="middle" x="272" y="-121.5" font-family="FreeSans" font-size="10.00" fill="#000000">list</text>
</g>
<!-- Node24&#45;&gt;Node26 -->
<g id="edge35" class="edge">
<title>Node24&#45;&gt;Node26</title>
<path fill="none" stroke="#191970" d="M358.4513,-177.378C341.8356,-167.2149 316.0294,-151.4306 296.9336,-139.7507"/>
<polygon fill="#191970" stroke="#191970" points="298.5251,-136.6213 288.1681,-134.3892 294.8726,-142.5929 298.5251,-136.6213"/>
</g>
</g>
</svg>
