<?xml version="1.0" encoding="UTF-8" standalone="no"?>
<!DOCTYPE svg PUBLIC "-//W3C//DTD SVG 1.1//EN"
 "http://www.w3.org/Graphics/SVG/1.1/DTD/svg11.dtd">
<!-- Generated by graphviz version 2.40.1 (20161225.0304)
 -->
<!-- Title: PHG4Cellv1::identify Pages: 1 -->
<svg width="720pt" height="200pt"
 viewBox="0.00 0.00 720.00 199.59" xmlns="http://www.w3.org/2000/svg" xmlns:xlink="http://www.w3.org/1999/xlink">
<g id="graph0" class="graph" transform="scale(1 1) rotate(0) translate(4 195.5882)">
<title>PHG4Cellv1::identify</title>
<!-- Node1 -->
<g id="node1" class="node">
<title>Node1</title>
<polygon fill="#bfbfbf" stroke="#000000" points="0,-77.2728 0,-97.2728 121,-97.2728 121,-77.2728 0,-77.2728"/>
<text text-anchor="middle" x="60.5" y="-84.2728" font-family="FreeSans" font-size="10.00" fill="#000000">PHG4Cellv1::identify</text>
</g>
<!-- Node2 -->
<g id="node2" class="node">
<title>Node2</title>
<g id="a_node2"><a xlink:href="../../de/d5e/classPHG4Cellv1.html#aeb3ab146637f92edcf3eb4d20f671da8" target="_top" xlink:title="PHG4Cellv1::get_property\l_float">
<polygon fill="none" stroke="#000000" points="169.5,-49.2728 169.5,-81.2728 316.5,-81.2728 316.5,-49.2728 169.5,-49.2728"/>
<text text-anchor="start" x="177.5" y="-68.2728" font-family="FreeSans" font-size="10.00" fill="#000000">PHG4Cellv1::get_property</text>
<text text-anchor="middle" x="243" y="-56.2728" font-family="FreeSans" font-size="10.00" fill="#000000">_float</text>
</a>
</g>
</g>
<!-- Node1&#45;&gt;Node2 -->
<g id="edge1" class="edge">
<title>Node1&#45;&gt;Node2</title>
<path fill="none" stroke="#191970" d="M121.0164,-79.9777C133.2152,-78.5071 146.2438,-76.9366 159.0778,-75.3895"/>
<polygon fill="#191970" stroke="#191970" points="159.7999,-78.8278 169.3092,-74.1561 158.9621,-71.8781 159.7999,-78.8278"/>
</g>
<!-- Node6 -->
<g id="node6" class="node">
<title>Node6</title>
<g id="a_node6"><a xlink:href="../../dc/dfe/classPHG4Cell.html#a42e05d988a7b10a3011cbb29ccc873cd" target="_top" xlink:title="PHG4Cell::get_property_info">
<polygon fill="none" stroke="#000000" points="366.5,-22.2728 366.5,-42.2728 525.5,-42.2728 525.5,-22.2728 366.5,-22.2728"/>
<text text-anchor="middle" x="446" y="-29.2728" font-family="FreeSans" font-size="10.00" fill="#000000">PHG4Cell::get_property_info</text>
</a>
</g>
</g>
<!-- Node1&#45;&gt;Node6 -->
<g id="edge8" class="edge">
<title>Node1&#45;&gt;Node6</title>
<path fill="none" stroke="#191970" d="M75.4008,-77.2516C93.7008,-65.5801 126.1241,-46.9235 157,-39.2728 222.2573,-23.1029 298.3517,-21.9388 356.0735,-24.5038"/>
<polygon fill="#191970" stroke="#191970" points="356.1061,-28.0095 366.2656,-25.0037 356.4491,-21.0179 356.1061,-28.0095"/>
</g>
<!-- Node8 -->
<g id="node8" class="node">
<title>Node8</title>
<g id="a_node8"><a xlink:href="../../de/d5e/classPHG4Cellv1.html#a6e5869bb9638f6f7363d46a9455c47d6" target="_top" xlink:title="PHG4Cellv1::get_property_int">
<polygon fill="none" stroke="#000000" points="160,-100.2728 160,-120.2728 326,-120.2728 326,-100.2728 160,-100.2728"/>
<text text-anchor="middle" x="243" y="-107.2728" font-family="FreeSans" font-size="10.00" fill="#000000">PHG4Cellv1::get_property_int</text>
</a>
</g>
</g>
<!-- Node1&#45;&gt;Node8 -->
<g id="edge9" class="edge">
<title>Node1&#45;&gt;Node8</title>
<path fill="none" stroke="#191970" d="M121.0164,-94.8995C131.423,-96.211 142.4334,-97.5987 153.4117,-98.9822"/>
<polygon fill="#191970" stroke="#191970" points="153.1075,-102.4715 163.4666,-100.2494 153.9828,-95.5264 153.1075,-102.4715"/>
</g>
<!-- Node9 -->
<g id="node9" class="node">
<title>Node9</title>
<g id="a_node9"><a xlink:href="../../de/d5e/classPHG4Cellv1.html#a3672d82ce431aa52e7f473eaece6cff9" target="_top" xlink:title="PHG4Cellv1::get_property_uint">
<polygon fill="none" stroke="#000000" points="157,-139.2728 157,-159.2728 329,-159.2728 329,-139.2728 157,-139.2728"/>
<text text-anchor="middle" x="243" y="-146.2728" font-family="FreeSans" font-size="10.00" fill="#000000">PHG4Cellv1::get_property_uint</text>
</a>
</g>
</g>
<!-- Node1&#45;&gt;Node9 -->
<g id="edge14" class="edge">
<title>Node1&#45;&gt;Node9</title>
<path fill="none" stroke="#191970" d="M80.7829,-97.3938C100.0245,-106.6823 129.939,-120.32 157,-129.2728 165.3533,-132.0364 174.2841,-134.5661 183.1135,-136.828"/>
<polygon fill="#191970" stroke="#191970" points="182.4559,-140.2706 193.003,-139.266 184.1315,-133.4741 182.4559,-140.2706"/>
</g>
<!-- Node3 -->
<g id="node3" class="node">
<title>Node3</title>
<g id="a_node3"><a xlink:href="../../dc/dfe/classPHG4Cell.html#a662d88c74fbd5dc06d8dd9aac168210b" target="_top" xlink:title="PHG4Cell::check_property">
<polygon fill="none" stroke="#000000" points="372,-100.2728 372,-120.2728 520,-120.2728 520,-100.2728 372,-100.2728"/>
<text text-anchor="middle" x="446" y="-107.2728" font-family="FreeSans" font-size="10.00" fill="#000000">PHG4Cell::check_property</text>
</a>
</g>
</g>
<!-- Node2&#45;&gt;Node3 -->
<g id="edge2" class="edge">
<title>Node2&#45;&gt;Node3</title>
<path fill="none" stroke="#191970" d="M315.4279,-81.3283C340.2246,-86.8251 367.5495,-92.8823 390.7659,-98.0288"/>
<polygon fill="#191970" stroke="#191970" points="390.2608,-101.5017 400.7813,-100.249 391.7758,-94.6676 390.2608,-101.5017"/>
</g>
<!-- Node4 -->
<g id="node4" class="node">
<title>Node4</title>
<g id="a_node4"><a xlink:href="../../d0/d12/namespaceg4zmq.html#ac0a320baaea2957915124839b1e2be53" target="_top" xlink:title="g4zmq.exit">
<polygon fill="none" stroke="#000000" points="563,-41.2728 563,-61.2728 636,-61.2728 636,-41.2728 563,-41.2728"/>
<text text-anchor="middle" x="599.5" y="-48.2728" font-family="FreeSans" font-size="10.00" fill="#000000">g4zmq.exit</text>
</a>
</g>
</g>
<!-- Node2&#45;&gt;Node4 -->
<g id="edge3" class="edge">
<title>Node2&#45;&gt;Node4</title>
<path fill="none" stroke="#191970" d="M270.9845,-49.1629C295.0291,-36.306 331.0854,-19.3213 365,-12.2728 435.4937,2.3779 457.181,5.3145 527,-12.2728 544.9046,-16.783 563.2014,-26.6729 576.9349,-35.3643"/>
<polygon fill="#191970" stroke="#191970" points="575.3769,-38.5292 585.6528,-41.1091 579.2286,-32.6841 575.3769,-38.5292"/>
</g>
<!-- Node2&#45;&gt;Node6 -->
<g id="edge5" class="edge">
<title>Node2&#45;&gt;Node6</title>
<path fill="none" stroke="#191970" d="M316.5747,-53.3124C335.4262,-50.2479 355.6712,-46.9568 374.4205,-43.9089"/>
<polygon fill="#191970" stroke="#191970" points="375.059,-47.3511 384.3678,-42.2918 373.9358,-40.4418 375.059,-47.3511"/>
</g>
<!-- Node7 -->
<g id="node7" class="node">
<title>Node7</title>
<g id="a_node7"><a xlink:href="../../dc/dfe/classPHG4Cell.html#a2d7f4192e24268528db85e3f89e9bc6d" target="_top" xlink:title="PHG4Cell::get_property_type">
<polygon fill="none" stroke="#000000" points="365,-139.2728 365,-159.2728 527,-159.2728 527,-139.2728 365,-139.2728"/>
<text text-anchor="middle" x="446" y="-146.2728" font-family="FreeSans" font-size="10.00" fill="#000000">PHG4Cell::get_property_type</text>
</a>
</g>
</g>
<!-- Node2&#45;&gt;Node7 -->
<g id="edge7" class="edge">
<title>Node2&#45;&gt;Node7</title>
<path fill="none" stroke="#191970" d="M311.6181,-81.4562C317.6886,-83.9969 323.5791,-86.9183 329,-90.2728 349.0591,-102.6856 344.6917,-117.272 365,-129.2728 369.0723,-131.6793 373.4237,-133.7972 377.9168,-135.6611"/>
<polygon fill="#191970" stroke="#191970" points="376.7013,-138.9432 387.2943,-139.1412 379.1368,-132.3806 376.7013,-138.9432"/>
</g>
<!-- Node5 -->
<g id="node5" class="node">
<title>Node5</title>
<g id="a_node5"><a xlink:href="../../d8/d03/G4ecpssrBaseKxsModel_8cc.html#afca89815e8ce05521ca0a7ec9bd17385" target="_top" xlink:title="print">
<polygon fill="none" stroke="#000000" points="672,-41.2728 672,-61.2728 712,-61.2728 712,-41.2728 672,-41.2728"/>
<text text-anchor="middle" x="692" y="-48.2728" font-family="FreeSans" font-size="10.00" fill="#000000">print</text>
</a>
</g>
</g>
<!-- Node4&#45;&gt;Node5 -->
<g id="edge4" class="edge">
<title>Node4&#45;&gt;Node5</title>
<path fill="none" stroke="#191970" d="M636.0584,-51.2728C644.5556,-51.2728 653.5098,-51.2728 661.7028,-51.2728"/>
<polygon fill="#191970" stroke="#191970" points="661.9325,-54.7729 671.9324,-51.2728 661.9324,-47.7729 661.9325,-54.7729"/>
</g>
<!-- Node6&#45;&gt;Node4 -->
<g id="edge6" class="edge">
<title>Node6&#45;&gt;Node4</title>
<path fill="none" stroke="#191970" d="M525.8972,-42.1624C535.1158,-43.3034 544.2737,-44.437 552.8378,-45.497"/>
<polygon fill="#191970" stroke="#191970" points="552.5996,-48.9942 562.9538,-46.7492 553.4595,-42.0472 552.5996,-48.9942"/>
</g>
<!-- Node8&#45;&gt;Node3 -->
<g id="edge10" class="edge">
<title>Node8&#45;&gt;Node3</title>
<path fill="none" stroke="#191970" d="M326.1536,-110.2728C337.8404,-110.2728 349.8629,-110.2728 361.5733,-110.2728"/>
<polygon fill="#191970" stroke="#191970" points="361.7675,-113.7729 371.7675,-110.2728 361.7675,-106.7729 361.7675,-113.7729"/>
</g>
<!-- Node8&#45;&gt;Node4 -->
<g id="edge11" class="edge">
<title>Node8&#45;&gt;Node4</title>
<path fill="none" stroke="#191970" d="M303.4754,-100.2643C373.8541,-88.6167 488.5702,-69.6315 552.5686,-59.0399"/>
<polygon fill="#191970" stroke="#191970" points="553.4747,-62.4376 562.7691,-57.3517 552.3318,-55.5315 553.4747,-62.4376"/>
</g>
<!-- Node8&#45;&gt;Node6 -->
<g id="edge12" class="edge">
<title>Node8&#45;&gt;Node6</title>
<path fill="none" stroke="#191970" d="M304.0971,-100.1933C312.7204,-97.6 321.271,-94.348 329,-90.2728 348.1997,-80.1495 346.171,-68.07 365,-57.2728 373.0631,-52.6491 382.0777,-48.7853 391.0836,-45.5877"/>
<polygon fill="#191970" stroke="#191970" points="392.4099,-48.8356 400.8071,-42.3751 390.2139,-42.189 392.4099,-48.8356"/>
</g>
<!-- Node8&#45;&gt;Node7 -->
<g id="edge13" class="edge">
<title>Node8&#45;&gt;Node7</title>
<path fill="none" stroke="#191970" d="M295.2775,-120.3163C322.3896,-125.525 355.6841,-131.9215 384.0786,-137.3766"/>
<polygon fill="#191970" stroke="#191970" points="383.4188,-140.8138 393.8996,-139.2634 384.7396,-133.9395 383.4188,-140.8138"/>
</g>
<!-- Node9&#45;&gt;Node3 -->
<g id="edge15" class="edge">
<title>Node9&#45;&gt;Node3</title>
<path fill="none" stroke="#191970" d="M295.2775,-139.2293C322.3896,-134.0206 355.6841,-127.6241 384.0786,-122.169"/>
<polygon fill="#191970" stroke="#191970" points="384.7396,-125.6062 393.8996,-120.2822 383.4188,-118.7319 384.7396,-125.6062"/>
</g>
<!-- Node9&#45;&gt;Node4 -->
<g id="edge16" class="edge">
<title>Node9&#45;&gt;Node4</title>
<path fill="none" stroke="#191970" d="M267.7483,-159.3812C319.6165,-178.8494 441.9454,-215.6284 527,-168.2728 564.2318,-147.5434 584.7728,-98.9205 593.81,-71.3238"/>
<polygon fill="#191970" stroke="#191970" points="597.2186,-72.1469 596.8129,-61.5598 590.5278,-70.0891 597.2186,-72.1469"/>
</g>
<!-- Node9&#45;&gt;Node6 -->
<g id="edge17" class="edge">
<title>Node9&#45;&gt;Node6</title>
<path fill="none" stroke="#191970" d="M306.221,-139.1967C314.1769,-136.6096 321.9777,-133.3585 329,-129.2728 349.3893,-117.4101 347.3185,-105.8872 365,-90.2728 382.83,-74.5272 404.8804,-58.9599 421.4704,-47.9237"/>
<polygon fill="#191970" stroke="#191970" points="423.6223,-50.698 430.0639,-42.2863 419.7826,-44.845 423.6223,-50.698"/>
</g>
<!-- Node9&#45;&gt;Node7 -->
<g id="edge18" class="edge">
<title>Node9&#45;&gt;Node7</title>
<path fill="none" stroke="#191970" d="M329.0903,-149.2728C337.6339,-149.2728 346.3267,-149.2728 354.9188,-149.2728"/>
<polygon fill="#191970" stroke="#191970" points="354.9441,-152.7729 364.944,-149.2728 354.944,-145.7729 354.9441,-152.7729"/>
</g>
</g>
</svg>
