<?xml version="1.0" encoding="UTF-8" standalone="no"?>
<!DOCTYPE svg PUBLIC "-//W3C//DTD SVG 1.1//EN"
 "http://www.w3.org/Graphics/SVG/1.1/DTD/svg11.dtd">
<!-- Generated by graphviz version 2.40.1 (20161225.0304)
 -->
<!-- Title: G4KDNode_Base::GetAxis Pages: 1 -->
<svg width="468pt" height="29pt"
 viewBox="0.00 0.00 468.00 29.00" xmlns="http://www.w3.org/2000/svg" xmlns:xlink="http://www.w3.org/1999/xlink">
<g id="graph0" class="graph" transform="scale(1 1) rotate(0) translate(4 25)">
<title>G4KDNode_Base::GetAxis</title>
<!-- Node1 -->
<g id="node1" class="node">
<title>Node1</title>
<polygon fill="#bfbfbf" stroke="#000000" points="0,-.5 0,-20.5 147,-20.5 147,-.5 0,-.5"/>
<text text-anchor="middle" x="73.5" y="-7.5" font-family="FreeSans" font-size="10.00" fill="#000000">G4KDNode_Base::GetAxis</text>
</g>
<!-- Node2 -->
<g id="node2" class="node">
<title>Node2</title>
<g id="a_node2"><a xlink:href="../../d2/d17/classG4KDMap.html#a00ce1efdaf93b8cc6d3efb5434c2bbbd" target="_top" xlink:title="G4KDMap::PopOutMiddle">
<polygon fill="none" stroke="#000000" points="183,-.5 183,-20.5 326,-20.5 326,-.5 183,-.5"/>
<text text-anchor="middle" x="254.5" y="-7.5" font-family="FreeSans" font-size="10.00" fill="#000000">G4KDMap::PopOutMiddle</text>
</a>
</g>
</g>
<!-- Node1&#45;&gt;Node2 -->
<g id="edge1" class="edge">
<title>Node1&#45;&gt;Node2</title>
<path fill="none" stroke="#191970" d="M157.1878,-10.5C165.8129,-10.5 174.5211,-10.5 182.9965,-10.5"/>
<polygon fill="#191970" stroke="#191970" points="157.1197,-7.0001 147.1196,-10.5 157.1196,-14.0001 157.1197,-7.0001"/>
</g>
<!-- Node3 -->
<g id="node3" class="node">
<title>Node3</title>
<g id="a_node3"><a xlink:href="../../dc/d21/classG4KDTree.html#ab17f2a366f9fbd1ebd93bbdf11166779" target="_top" xlink:title="G4KDTree::Build">
<polygon fill="none" stroke="#000000" points="362,-.5 362,-20.5 460,-20.5 460,-.5 362,-.5"/>
<text text-anchor="middle" x="411" y="-7.5" font-family="FreeSans" font-size="10.00" fill="#000000">G4KDTree::Build</text>
</a>
</g>
</g>
<!-- Node2&#45;&gt;Node3 -->
<g id="edge2" class="edge">
<title>Node2&#45;&gt;Node3</title>
<path fill="none" stroke="#191970" d="M336.5301,-10.5C345.2102,-10.5 353.8281,-10.5 361.9554,-10.5"/>
<polygon fill="#191970" stroke="#191970" points="336.3375,-7.0001 326.3375,-10.5 336.3374,-14.0001 336.3375,-7.0001"/>
</g>
</g>
</svg>
