<?xml version="1.0" encoding="UTF-8" standalone="no"?>
<!DOCTYPE svg PUBLIC "-//W3C//DTD SVG 1.1//EN"
 "http://www.w3.org/Graphics/SVG/1.1/DTD/svg11.dtd">
<!-- Generated by graphviz version 2.40.1 (20161225.0304)
 -->
<!-- Title: G4StatMFMacroMultiplicity::CalcMeanA Pages: 1 -->
<svg width="2759pt" height="41pt"
 viewBox="0.00 0.00 2759.00 41.00" xmlns="http://www.w3.org/2000/svg" xmlns:xlink="http://www.w3.org/1999/xlink">
<g id="graph0" class="graph" transform="scale(1 1) rotate(0) translate(4 37)">
<title>G4StatMFMacroMultiplicity::CalcMeanA</title>
<!-- Node1 -->
<g id="node1" class="node">
<title>Node1</title>
<polygon fill="#bfbfbf" stroke="#000000" points="0,-.5 0,-32.5 151,-32.5 151,-.5 0,-.5"/>
<text text-anchor="start" x="8" y="-19.5" font-family="FreeSans" font-size="10.00" fill="#000000">G4StatMFMacroMultiplicity</text>
<text text-anchor="middle" x="75.5" y="-7.5" font-family="FreeSans" font-size="10.00" fill="#000000">::CalcMeanA</text>
</g>
<!-- Node2 -->
<g id="node2" class="node">
<title>Node2</title>
<g id="a_node2"><a xlink:href="../../d3/d9d/classG4StatMFMacroMultiplicity.html#a9f1682b16331546778345f3fb4f10afd" target="_top" xlink:title="G4StatMFMacroMultiplicity\l::operator()">
<polygon fill="none" stroke="#000000" points="187,-.5 187,-32.5 338,-32.5 338,-.5 187,-.5"/>
<text text-anchor="start" x="195" y="-19.5" font-family="FreeSans" font-size="10.00" fill="#000000">G4StatMFMacroMultiplicity</text>
<text text-anchor="middle" x="262.5" y="-7.5" font-family="FreeSans" font-size="10.00" fill="#000000">::operator()</text>
</a>
</g>
</g>
<!-- Node1&#45;&gt;Node2 -->
<g id="edge1" class="edge">
<title>Node1&#45;&gt;Node2</title>
<path fill="none" stroke="#191970" d="M161.2978,-16.5C169.7728,-16.5 178.3329,-16.5 186.6969,-16.5"/>
<polygon fill="#191970" stroke="#191970" points="161.0211,-13.0001 151.021,-16.5 161.021,-20.0001 161.0211,-13.0001"/>
</g>
<!-- Node3 -->
<g id="node3" class="node">
<title>Node3</title>
<g id="a_node3"><a xlink:href="../../d3/d9d/classG4StatMFMacroMultiplicity.html#a85ee4f0476d7758a4af18e5165eb3cf0" target="_top" xlink:title="G4StatMFMacroMultiplicity\l::CalcChemicalPotentialMu">
<polygon fill="none" stroke="#000000" points="374,-.5 374,-32.5 525,-32.5 525,-.5 374,-.5"/>
<text text-anchor="start" x="382" y="-19.5" font-family="FreeSans" font-size="10.00" fill="#000000">G4StatMFMacroMultiplicity</text>
<text text-anchor="middle" x="449.5" y="-7.5" font-family="FreeSans" font-size="10.00" fill="#000000">::CalcChemicalPotentialMu</text>
</a>
</g>
</g>
<!-- Node2&#45;&gt;Node3 -->
<g id="edge2" class="edge">
<title>Node2&#45;&gt;Node3</title>
<path fill="none" stroke="#191970" d="M348.2978,-16.5C356.7728,-16.5 365.3329,-16.5 373.6969,-16.5"/>
<polygon fill="#191970" stroke="#191970" points="348.0211,-13.0001 338.021,-16.5 348.021,-20.0001 348.0211,-13.0001"/>
</g>
<!-- Node4 -->
<g id="node4" class="node">
<title>Node4</title>
<g id="a_node4"><a xlink:href="../../d4/d25/classG4StatMFMacroChemicalPotential.html#a062b79c2919039b9032e3d3f6ff803a5" target="_top" xlink:title="G4StatMFMacroChemicalPotential\l::CalcChemicalPotentialMu">
<polygon fill="none" stroke="#000000" points="561,-.5 561,-32.5 748,-32.5 748,-.5 561,-.5"/>
<text text-anchor="start" x="569" y="-19.5" font-family="FreeSans" font-size="10.00" fill="#000000">G4StatMFMacroChemicalPotential</text>
<text text-anchor="middle" x="654.5" y="-7.5" font-family="FreeSans" font-size="10.00" fill="#000000">::CalcChemicalPotentialMu</text>
</a>
</g>
</g>
<!-- Node3&#45;&gt;Node4 -->
<g id="edge3" class="edge">
<title>Node3&#45;&gt;Node4</title>
<path fill="none" stroke="#191970" d="M535.4486,-16.5C543.8835,-16.5 552.472,-16.5 560.9774,-16.5"/>
<polygon fill="#191970" stroke="#191970" points="535.252,-13.0001 525.252,-16.5 535.252,-20.0001 535.252,-13.0001"/>
</g>
<!-- Node5 -->
<g id="node5" class="node">
<title>Node5</title>
<g id="a_node5"><a xlink:href="../../d4/d25/classG4StatMFMacroChemicalPotential.html#a2d9e57002883736336747e38e266b94d" target="_top" xlink:title="G4StatMFMacroChemicalPotential\l::CalcMeanZ">
<polygon fill="none" stroke="#000000" points="784,-.5 784,-32.5 971,-32.5 971,-.5 784,-.5"/>
<text text-anchor="start" x="792" y="-19.5" font-family="FreeSans" font-size="10.00" fill="#000000">G4StatMFMacroChemicalPotential</text>
<text text-anchor="middle" x="877.5" y="-7.5" font-family="FreeSans" font-size="10.00" fill="#000000">::CalcMeanZ</text>
</a>
</g>
</g>
<!-- Node4&#45;&gt;Node5 -->
<g id="edge4" class="edge">
<title>Node4&#45;&gt;Node5</title>
<path fill="none" stroke="#191970" d="M758.112,-16.5C766.6732,-16.5 775.2967,-16.5 783.7793,-16.5"/>
<polygon fill="#191970" stroke="#191970" points="758.1028,-13.0001 748.1028,-16.5 758.1028,-20.0001 758.1028,-13.0001"/>
</g>
<!-- Node6 -->
<g id="node6" class="node">
<title>Node6</title>
<g id="a_node6"><a xlink:href="../../d4/d25/classG4StatMFMacroChemicalPotential.html#a3dea86e6ab72524a1180b2503f4920df" target="_top" xlink:title="G4StatMFMacroChemicalPotential\l::operator()">
<polygon fill="none" stroke="#000000" points="1007,-.5 1007,-32.5 1194,-32.5 1194,-.5 1007,-.5"/>
<text text-anchor="start" x="1015" y="-19.5" font-family="FreeSans" font-size="10.00" fill="#000000">G4StatMFMacroChemicalPotential</text>
<text text-anchor="middle" x="1100.5" y="-7.5" font-family="FreeSans" font-size="10.00" fill="#000000">::operator()</text>
</a>
</g>
</g>
<!-- Node5&#45;&gt;Node6 -->
<g id="edge5" class="edge">
<title>Node5&#45;&gt;Node6</title>
<path fill="none" stroke="#191970" d="M981.112,-16.5C989.6732,-16.5 998.2967,-16.5 1006.7793,-16.5"/>
<polygon fill="#191970" stroke="#191970" points="981.1028,-13.0001 971.1028,-16.5 981.1028,-20.0001 981.1028,-13.0001"/>
</g>
<!-- Node7 -->
<g id="node7" class="node">
<title>Node7</title>
<g id="a_node7"><a xlink:href="../../d4/d25/classG4StatMFMacroChemicalPotential.html#a3a22d665495175904ebd5b80eff53f2f" target="_top" xlink:title="G4StatMFMacroChemicalPotential\l::CalcChemicalPotentialNu">
<polygon fill="none" stroke="#000000" points="1230,-.5 1230,-32.5 1417,-32.5 1417,-.5 1230,-.5"/>
<text text-anchor="start" x="1238" y="-19.5" font-family="FreeSans" font-size="10.00" fill="#000000">G4StatMFMacroChemicalPotential</text>
<text text-anchor="middle" x="1323.5" y="-7.5" font-family="FreeSans" font-size="10.00" fill="#000000">::CalcChemicalPotentialNu</text>
</a>
</g>
</g>
<!-- Node6&#45;&gt;Node7 -->
<g id="edge6" class="edge">
<title>Node6&#45;&gt;Node7</title>
<path fill="none" stroke="#191970" d="M1204.112,-16.5C1212.6732,-16.5 1221.2967,-16.5 1229.7793,-16.5"/>
<polygon fill="#191970" stroke="#191970" points="1204.1028,-13.0001 1194.1028,-16.5 1204.1028,-20.0001 1204.1028,-13.0001"/>
</g>
<!-- Node8 -->
<g id="node8" class="node">
<title>Node8</title>
<g id="a_node8"><a xlink:href="../../de/d75/classG4StatMFMacroTemperature.html#ad42540b0a641385f3876d8ec1fb287d8" target="_top" xlink:title="G4StatMFMacroTemperature\l::CalcChemicalPotentialNu">
<polygon fill="none" stroke="#000000" points="1453,-.5 1453,-32.5 1613,-32.5 1613,-.5 1453,-.5"/>
<text text-anchor="start" x="1461" y="-19.5" font-family="FreeSans" font-size="10.00" fill="#000000">G4StatMFMacroTemperature</text>
<text text-anchor="middle" x="1533" y="-7.5" font-family="FreeSans" font-size="10.00" fill="#000000">::CalcChemicalPotentialNu</text>
</a>
</g>
</g>
<!-- Node7&#45;&gt;Node8 -->
<g id="edge7" class="edge">
<title>Node7&#45;&gt;Node8</title>
<path fill="none" stroke="#191970" d="M1427.2716,-16.5C1435.8489,-16.5 1444.435,-16.5 1452.7998,-16.5"/>
<polygon fill="#191970" stroke="#191970" points="1427.2204,-13.0001 1417.2204,-16.5 1427.2203,-20.0001 1427.2204,-13.0001"/>
</g>
<!-- Node9 -->
<g id="node9" class="node">
<title>Node9</title>
<g id="a_node9"><a xlink:href="../../de/d75/classG4StatMFMacroTemperature.html#a6f86efffe57f6c61e3665dd851e2f289" target="_top" xlink:title="G4StatMFMacroTemperature\l::FragsExcitEnergy">
<polygon fill="none" stroke="#000000" points="1649,-.5 1649,-32.5 1809,-32.5 1809,-.5 1649,-.5"/>
<text text-anchor="start" x="1657" y="-19.5" font-family="FreeSans" font-size="10.00" fill="#000000">G4StatMFMacroTemperature</text>
<text text-anchor="middle" x="1729" y="-7.5" font-family="FreeSans" font-size="10.00" fill="#000000">::FragsExcitEnergy</text>
</a>
</g>
</g>
<!-- Node8&#45;&gt;Node9 -->
<g id="edge8" class="edge">
<title>Node8&#45;&gt;Node9</title>
<path fill="none" stroke="#191970" d="M1623.0766,-16.5C1631.7035,-16.5 1640.4128,-16.5 1648.9347,-16.5"/>
<polygon fill="#191970" stroke="#191970" points="1623.0034,-13.0001 1613.0034,-16.5 1623.0034,-20.0001 1623.0034,-13.0001"/>
</g>
<!-- Node10 -->
<g id="node10" class="node">
<title>Node10</title>
<g id="a_node10"><a xlink:href="../../de/d75/classG4StatMFMacroTemperature.html#a24e2479d23af9ec90211e64318c4886f" target="_top" xlink:title="G4StatMFMacroTemperature\l::operator()">
<polygon fill="none" stroke="#000000" points="1845,-.5 1845,-32.5 2005,-32.5 2005,-.5 1845,-.5"/>
<text text-anchor="start" x="1853" y="-19.5" font-family="FreeSans" font-size="10.00" fill="#000000">G4StatMFMacroTemperature</text>
<text text-anchor="middle" x="1925" y="-7.5" font-family="FreeSans" font-size="10.00" fill="#000000">::operator()</text>
</a>
</g>
</g>
<!-- Node9&#45;&gt;Node10 -->
<g id="edge9" class="edge">
<title>Node9&#45;&gt;Node10</title>
<path fill="none" stroke="#191970" d="M1819.0766,-16.5C1827.7035,-16.5 1836.4128,-16.5 1844.9347,-16.5"/>
<polygon fill="#191970" stroke="#191970" points="1819.0034,-13.0001 1809.0034,-16.5 1819.0034,-20.0001 1819.0034,-13.0001"/>
</g>
<!-- Node11 -->
<g id="node11" class="node">
<title>Node11</title>
<g id="a_node11"><a xlink:href="../../de/d75/classG4StatMFMacroTemperature.html#ae7e845ddc9649b781281088e64295bd1" target="_top" xlink:title="G4StatMFMacroTemperature\l::CalcTemperature">
<polygon fill="none" stroke="#000000" points="2041,-.5 2041,-32.5 2201,-32.5 2201,-.5 2041,-.5"/>
<text text-anchor="start" x="2049" y="-19.5" font-family="FreeSans" font-size="10.00" fill="#000000">G4StatMFMacroTemperature</text>
<text text-anchor="middle" x="2121" y="-7.5" font-family="FreeSans" font-size="10.00" fill="#000000">::CalcTemperature</text>
</a>
</g>
</g>
<!-- Node10&#45;&gt;Node11 -->
<g id="edge10" class="edge">
<title>Node10&#45;&gt;Node11</title>
<path fill="none" stroke="#191970" d="M2015.0766,-16.5C2023.7035,-16.5 2032.4128,-16.5 2040.9347,-16.5"/>
<polygon fill="#191970" stroke="#191970" points="2015.0034,-13.0001 2005.0034,-16.5 2015.0034,-20.0001 2015.0034,-13.0001"/>
</g>
<!-- Node12 -->
<g id="node12" class="node">
<title>Node12</title>
<g id="a_node12"><a xlink:href="../../d9/df6/classG4StatMFMacroCanonical.html#a13e558a68b97e13a58ef75a7a108e245" target="_top" xlink:title="G4StatMFMacroCanonical\l::CalculateTemperature">
<polygon fill="none" stroke="#000000" points="2237,-.5 2237,-32.5 2382,-32.5 2382,-.5 2237,-.5"/>
<text text-anchor="start" x="2245" y="-19.5" font-family="FreeSans" font-size="10.00" fill="#000000">G4StatMFMacroCanonical</text>
<text text-anchor="middle" x="2309.5" y="-7.5" font-family="FreeSans" font-size="10.00" fill="#000000">::CalculateTemperature</text>
</a>
</g>
</g>
<!-- Node11&#45;&gt;Node12 -->
<g id="edge11" class="edge">
<title>Node11&#45;&gt;Node12</title>
<path fill="none" stroke="#191970" d="M2211.2454,-16.5C2219.8223,-16.5 2228.4436,-16.5 2236.8243,-16.5"/>
<polygon fill="#191970" stroke="#191970" points="2211.2143,-13.0001 2201.2143,-16.5 2211.2143,-20.0001 2211.2143,-13.0001"/>
</g>
<!-- Node13 -->
<g id="node13" class="node">
<title>Node13</title>
<g id="a_node13"><a xlink:href="../../d9/df6/classG4StatMFMacroCanonical.html#a7a522e0545c34388dea939af744298a0" target="_top" xlink:title="G4StatMFMacroCanonical\l::Initialize">
<polygon fill="none" stroke="#000000" points="2418,-.5 2418,-32.5 2563,-32.5 2563,-.5 2418,-.5"/>
<text text-anchor="start" x="2426" y="-19.5" font-family="FreeSans" font-size="10.00" fill="#000000">G4StatMFMacroCanonical</text>
<text text-anchor="middle" x="2490.5" y="-7.5" font-family="FreeSans" font-size="10.00" fill="#000000">::Initialize</text>
</a>
</g>
</g>
<!-- Node12&#45;&gt;Node13 -->
<g id="edge12" class="edge">
<title>Node12&#45;&gt;Node13</title>
<path fill="none" stroke="#191970" d="M2392.1164,-16.5C2400.7223,-16.5 2409.424,-16.5 2417.907,-16.5"/>
<polygon fill="#191970" stroke="#191970" points="2392.0767,-13.0001 2382.0767,-16.5 2392.0767,-20.0001 2392.0767,-13.0001"/>
</g>
<!-- Node14 -->
<g id="node14" class="node">
<title>Node14</title>
<g id="a_node14"><a xlink:href="../../d9/df6/classG4StatMFMacroCanonical.html#aa5a5eb43764c4270bc30469d3f59660e" target="_top" xlink:title="G4StatMFMacroCanonical\l::G4StatMFMacroCanonical">
<polygon fill="none" stroke="#000000" points="2599,-.5 2599,-32.5 2751,-32.5 2751,-.5 2599,-.5"/>
<text text-anchor="start" x="2607" y="-19.5" font-family="FreeSans" font-size="10.00" fill="#000000">G4StatMFMacroCanonical</text>
<text text-anchor="middle" x="2675" y="-7.5" font-family="FreeSans" font-size="10.00" fill="#000000">::G4StatMFMacroCanonical</text>
</a>
</g>
</g>
<!-- Node13&#45;&gt;Node14 -->
<g id="edge13" class="edge">
<title>Node13&#45;&gt;Node14</title>
<path fill="none" stroke="#191970" d="M2573.3895,-16.5C2581.8392,-16.5 2590.3948,-16.5 2598.7687,-16.5"/>
<polygon fill="#191970" stroke="#191970" points="2573.1545,-13.0001 2563.1544,-16.5 2573.1544,-20.0001 2573.1545,-13.0001"/>
</g>
</g>
</svg>
