<?xml version="1.0" encoding="UTF-8" standalone="no"?>
<!DOCTYPE svg PUBLIC "-//W3C//DTD SVG 1.1//EN"
 "http://www.w3.org/Graphics/SVG/1.1/DTD/svg11.dtd">
<!-- Generated by graphviz version 2.40.1 (20161225.0304)
 -->
<!-- Title: G4VPhononProcess::EndTracking Pages: 1 -->
<svg width="390pt" height="80pt"
 viewBox="0.00 0.00 390.00 80.00" xmlns="http://www.w3.org/2000/svg" xmlns:xlink="http://www.w3.org/1999/xlink">
<g id="graph0" class="graph" transform="scale(1 1) rotate(0) translate(4 76)">
<title>G4VPhononProcess::EndTracking</title>
<!-- Node1 -->
<g id="node1" class="node">
<title>Node1</title>
<polygon fill="#bfbfbf" stroke="#000000" points="0,-28.5 0,-48.5 182,-48.5 182,-28.5 0,-28.5"/>
<text text-anchor="middle" x="91" y="-35.5" font-family="FreeSans" font-size="10.00" fill="#000000">G4VPhononProcess::EndTracking</text>
</g>
<!-- Node2 -->
<g id="node2" class="node">
<title>Node2</title>
<g id="a_node2"><a xlink:href="../../d2/d84/classG4VProcess.html#aed10372099d92b5a1e1e88de9a64f715" target="_top" xlink:title="G4VProcess::EndTracking">
<polygon fill="none" stroke="#000000" points="228,-51.5 228,-71.5 372,-71.5 372,-51.5 228,-51.5"/>
<text text-anchor="middle" x="300" y="-58.5" font-family="FreeSans" font-size="10.00" fill="#000000">G4VProcess::EndTracking</text>
</a>
</g>
</g>
<!-- Node1&#45;&gt;Node2 -->
<g id="edge1" class="edge">
<title>Node1&#45;&gt;Node2</title>
<path fill="none" stroke="#191970" d="M182.0625,-48.5212C193.8886,-49.8227 205.9481,-51.1498 217.6217,-52.4344"/>
<polygon fill="#191970" stroke="#191970" points="217.4425,-55.9358 227.7654,-53.5507 218.2083,-48.9778 217.4425,-55.9358"/>
</g>
<!-- Node3 -->
<g id="node3" class="node">
<title>Node3</title>
<g id="a_node3"><a xlink:href="../../de/d46/classG4PhononTrackMap.html#a056b16e0d53f9d430ee543a61008fab5" target="_top" xlink:title="G4PhononTrackMap::Remove\lTrack">
<polygon fill="none" stroke="#000000" points="218,-.5 218,-32.5 382,-32.5 382,-.5 218,-.5"/>
<text text-anchor="start" x="226" y="-19.5" font-family="FreeSans" font-size="10.00" fill="#000000">G4PhononTrackMap::Remove</text>
<text text-anchor="middle" x="300" y="-7.5" font-family="FreeSans" font-size="10.00" fill="#000000">Track</text>
</a>
</g>
</g>
<!-- Node1&#45;&gt;Node3 -->
<g id="edge2" class="edge">
<title>Node1&#45;&gt;Node3</title>
<path fill="none" stroke="#191970" d="M182.0625,-28.9145C190.6014,-28.0156 199.262,-27.104 207.8112,-26.2041"/>
<polygon fill="#191970" stroke="#191970" points="208.2034,-29.6822 217.782,-25.1545 207.4705,-22.7207 208.2034,-29.6822"/>
</g>
</g>
</svg>
