<?xml version="1.0" encoding="UTF-8" standalone="no"?>
<!DOCTYPE svg PUBLIC "-//W3C//DTD SVG 1.1//EN"
 "http://www.w3.org/Graphics/SVG/1.1/DTD/svg11.dtd">
<!-- Generated by graphviz version 2.40.1 (20161225.0304)
 -->
<!-- Title: G4ElementData::GetValueForElement Pages: 1 -->
<svg width="551pt" height="68pt"
 viewBox="0.00 0.00 551.00 68.00" xmlns="http://www.w3.org/2000/svg" xmlns:xlink="http://www.w3.org/1999/xlink">
<g id="graph0" class="graph" transform="scale(1 1) rotate(0) translate(4 64)">
<title>G4ElementData::GetValueForElement</title>
<!-- Node1 -->
<g id="node1" class="node">
<title>Node1</title>
<polygon fill="#bfbfbf" stroke="#000000" points="0,-13.5 0,-45.5 166,-45.5 166,-13.5 0,-13.5"/>
<text text-anchor="start" x="8" y="-32.5" font-family="FreeSans" font-size="10.00" fill="#000000">G4ElementData::GetValueFor</text>
<text text-anchor="middle" x="83" y="-20.5" font-family="FreeSans" font-size="10.00" fill="#000000">Element</text>
</g>
<!-- Node2 -->
<g id="node2" class="node">
<title>Node2</title>
<g id="a_node2"><a xlink:href="../../d7/d2c/classG4PhysicsVector.html#a67d841bd151f3b43ee24a7234c35b9d3" target="_top" xlink:title="G4PhysicsVector::Value">
<polygon fill="none" stroke="#000000" points="202,-19.5 202,-39.5 336,-39.5 336,-19.5 202,-19.5"/>
<text text-anchor="middle" x="269" y="-26.5" font-family="FreeSans" font-size="10.00" fill="#000000">G4PhysicsVector::Value</text>
</a>
</g>
</g>
<!-- Node1&#45;&gt;Node2 -->
<g id="edge1" class="edge">
<title>Node1&#45;&gt;Node2</title>
<path fill="none" stroke="#191970" d="M166.2076,-29.5C174.6658,-29.5 183.2332,-29.5 191.6259,-29.5"/>
<polygon fill="#191970" stroke="#191970" points="191.7573,-33.0001 201.7573,-29.5 191.7573,-26.0001 191.7573,-33.0001"/>
</g>
<!-- Node3 -->
<g id="node3" class="node">
<title>Node3</title>
<g id="a_node3"><a xlink:href="../../d7/d2c/classG4PhysicsVector.html#a5fba322ade1335de162252dcbb7bb90a" target="_top" xlink:title="G4PhysicsVector::FindBin">
<polygon fill="none" stroke="#000000" points="386,-39.5 386,-59.5 529,-59.5 529,-39.5 386,-39.5"/>
<text text-anchor="middle" x="457.5" y="-46.5" font-family="FreeSans" font-size="10.00" fill="#000000">G4PhysicsVector::FindBin</text>
</a>
</g>
</g>
<!-- Node2&#45;&gt;Node3 -->
<g id="edge2" class="edge">
<title>Node2&#45;&gt;Node3</title>
<path fill="none" stroke="#191970" d="M336.2545,-36.6358C349.0612,-37.9946 362.5942,-39.4304 375.793,-40.8308"/>
<polygon fill="#191970" stroke="#191970" points="375.4901,-44.3182 385.8036,-41.893 376.2287,-37.3573 375.4901,-44.3182"/>
</g>
<!-- Node4 -->
<g id="node4" class="node">
<title>Node4</title>
<g id="a_node4"><a xlink:href="../../d7/d2c/classG4PhysicsVector.html#a5d5c84f331f6c7d7201f48c0d00a0e81" target="_top" xlink:title="G4PhysicsVector::Interpolation">
<polygon fill="none" stroke="#000000" points="372,-.5 372,-20.5 543,-20.5 543,-.5 372,-.5"/>
<text text-anchor="middle" x="457.5" y="-7.5" font-family="FreeSans" font-size="10.00" fill="#000000">G4PhysicsVector::Interpolation</text>
</a>
</g>
</g>
<!-- Node2&#45;&gt;Node4 -->
<g id="edge3" class="edge">
<title>Node2&#45;&gt;Node4</title>
<path fill="none" stroke="#191970" d="M336.2545,-22.721C344.5379,-21.8861 353.1251,-21.0205 361.7292,-20.1533"/>
<polygon fill="#191970" stroke="#191970" points="362.2218,-23.6215 371.8203,-19.1361 361.5197,-16.6568 362.2218,-23.6215"/>
</g>
</g>
</svg>
