<?xml version="1.0" encoding="UTF-8" standalone="no"?>
<!DOCTYPE svg PUBLIC "-//W3C//DTD SVG 1.1//EN"
 "http://www.w3.org/Graphics/SVG/1.1/DTD/svg11.dtd">
<!-- Generated by graphviz version 2.40.1 (20161225.0304)
 -->
<!-- Title: G4GDMLReadParamvol::Para_dimensionsRead Pages: 1 -->
<svg width="1163pt" height="639pt"
 viewBox="0.00 0.00 1163.00 638.50" xmlns="http://www.w3.org/2000/svg" xmlns:xlink="http://www.w3.org/1999/xlink">
<g id="graph0" class="graph" transform="scale(1 1) rotate(0) translate(4 634.5)">
<title>G4GDMLReadParamvol::Para_dimensionsRead</title>
<!-- Node1 -->
<g id="node1" class="node">
<title>Node1</title>
<polygon fill="#bfbfbf" stroke="#000000" points="0,-196.5 0,-228.5 133,-228.5 133,-196.5 0,-196.5"/>
<text text-anchor="start" x="8" y="-215.5" font-family="FreeSans" font-size="10.00" fill="#000000">G4GDMLReadParamvol</text>
<text text-anchor="middle" x="66.5" y="-203.5" font-family="FreeSans" font-size="10.00" fill="#000000">::Para_dimensionsRead</text>
</g>
<!-- Node2 -->
<g id="node2" class="node">
<title>Node2</title>
<g id="a_node2"><a xlink:href="../../d8/d36/classG4GDMLEvaluator.html#a1aa95c2d2123fa93d0f95960490e2305" target="_top" xlink:title="G4GDMLEvaluator::Evaluate">
<polygon fill="none" stroke="#000000" points="376,-447.5 376,-467.5 535,-467.5 535,-447.5 376,-447.5"/>
<text text-anchor="middle" x="455.5" y="-454.5" font-family="FreeSans" font-size="10.00" fill="#000000">G4GDMLEvaluator::Evaluate</text>
</a>
</g>
</g>
<!-- Node1&#45;&gt;Node2 -->
<g id="edge1" class="edge">
<title>Node1&#45;&gt;Node2</title>
<path fill="none" stroke="#191970" d="M92.0234,-228.5751C162.8762,-273.1997 361.3467,-398.2003 430.9793,-442.0564"/>
<polygon fill="#191970" stroke="#191970" points="429.2292,-445.0904 439.556,-447.4582 432.9597,-439.1673 429.2292,-445.0904"/>
</g>
<!-- Node4 -->
<g id="node4" class="node">
<title>Node4</title>
<g id="a_node4"><a xlink:href="../../d5/d4f/G4Exception_8hh.html#ad36b5da5d062a20ca47b1c1f1ae353dd" target="_top" xlink:title="G4Exception">
<polygon fill="none" stroke="#000000" points="1032,-408.5 1032,-428.5 1112,-428.5 1112,-408.5 1032,-408.5"/>
<text text-anchor="middle" x="1072" y="-415.5" font-family="FreeSans" font-size="10.00" fill="#000000">G4Exception</text>
</a>
</g>
</g>
<!-- Node1&#45;&gt;Node4 -->
<g id="edge14" class="edge">
<title>Node1&#45;&gt;Node4</title>
<path fill="none" stroke="#191970" d="M72.1367,-228.63C100.1119,-305.4487 231.7083,-630.5 455.5,-630.5 455.5,-630.5 455.5,-630.5 664.5,-630.5 734.5847,-630.5 948.3238,-556.4888 953,-553.5 1001.2498,-522.6615 1041.4077,-466.7828 1060.3288,-437.5255"/>
<polygon fill="#191970" stroke="#191970" points="1063.5243,-439.0209 1065.9124,-428.6987 1057.6085,-435.2787 1063.5243,-439.0209"/>
</g>
<!-- Node12 -->
<g id="node12" class="node">
<title>Node12</title>
<g id="a_node12"><a xlink:href="../../dd/db6/classG4UnitDefinition.html#ab312cecd9b92e02f18c9c473a7110c6d" target="_top" xlink:title="G4UnitDefinition::GetCategory">
<polygon fill="none" stroke="#000000" points="169,-202.5 169,-222.5 340,-222.5 340,-202.5 169,-202.5"/>
<text text-anchor="middle" x="254.5" y="-209.5" font-family="FreeSans" font-size="10.00" fill="#000000">G4UnitDefinition::GetCategory</text>
</a>
</g>
</g>
<!-- Node1&#45;&gt;Node12 -->
<g id="edge15" class="edge">
<title>Node1&#45;&gt;Node12</title>
<path fill="none" stroke="#191970" d="M133.0463,-212.5C141.3976,-212.5 150.0657,-212.5 158.7538,-212.5"/>
<polygon fill="#191970" stroke="#191970" points="158.9442,-216.0001 168.9441,-212.5 158.9441,-209.0001 158.9442,-216.0001"/>
</g>
<!-- Node23 -->
<g id="node23" class="node">
<title>Node23</title>
<g id="a_node23"><a xlink:href="../../dd/db6/classG4UnitDefinition.html#aa2bc282875d27f9319e636c72f6d0d5d" target="_top" xlink:title="G4UnitDefinition::GetValueOf">
<polygon fill="none" stroke="#000000" points="172,-163.5 172,-183.5 337,-183.5 337,-163.5 172,-163.5"/>
<text text-anchor="middle" x="254.5" y="-170.5" font-family="FreeSans" font-size="10.00" fill="#000000">G4UnitDefinition::GetValueOf</text>
</a>
</g>
</g>
<!-- Node1&#45;&gt;Node23 -->
<g id="edge29" class="edge">
<title>Node1&#45;&gt;Node23</title>
<path fill="none" stroke="#191970" d="M133.0463,-198.6952C153.6488,-194.4213 176.18,-189.7472 196.1806,-185.5982"/>
<polygon fill="#191970" stroke="#191970" points="196.999,-189.003 206.0796,-183.5447 195.5771,-182.1489 196.999,-189.003"/>
</g>
<!-- Node24 -->
<g id="node24" class="node">
<title>Node24</title>
<g id="a_node24"><a xlink:href="../../d3/d87/classG4GDMLRead.html#a9b2efd7a7ccf95a10d2158b75e096cec" target="_top" xlink:title="G4GDMLRead::Transcode">
<polygon fill="none" stroke="#000000" points="182.5,-124.5 182.5,-144.5 326.5,-144.5 326.5,-124.5 182.5,-124.5"/>
<text text-anchor="middle" x="254.5" y="-131.5" font-family="FreeSans" font-size="10.00" fill="#000000">G4GDMLRead::Transcode</text>
</a>
</g>
</g>
<!-- Node1&#45;&gt;Node24 -->
<g id="edge33" class="edge">
<title>Node1&#45;&gt;Node24</title>
<path fill="none" stroke="#191970" d="M89.9008,-196.2661C110.0345,-182.9906 140.2907,-164.6512 169,-153.5 174.9532,-151.1877 181.2543,-149.1227 187.629,-147.2861"/>
<polygon fill="#191970" stroke="#191970" points="188.9202,-150.5633 197.6675,-144.5853 187.1015,-143.8036 188.9202,-150.5633"/>
</g>
<!-- Node3 -->
<g id="node3" class="node">
<title>Node3</title>
<g id="a_node3"><a xlink:href="../../d5/df7/classHepTool_1_1Evaluator.html#a7dc9b53ee92056ac4b3b34302c91c865" target="_top" xlink:title="HepTool::Evaluator\l::evaluate">
<polygon fill="none" stroke="#000000" points="608.5,-569.5 608.5,-601.5 720.5,-601.5 720.5,-569.5 608.5,-569.5"/>
<text text-anchor="start" x="616.5" y="-588.5" font-family="FreeSans" font-size="10.00" fill="#000000">HepTool::Evaluator</text>
<text text-anchor="middle" x="664.5" y="-576.5" font-family="FreeSans" font-size="10.00" fill="#000000">::evaluate</text>
</a>
</g>
</g>
<!-- Node2&#45;&gt;Node3 -->
<g id="edge2" class="edge">
<title>Node2&#45;&gt;Node3</title>
<path fill="none" stroke="#191970" d="M465.0255,-467.7549C483.6361,-487.2387 526.8772,-529.8571 571,-554.5 579.6225,-559.3157 589.1129,-563.5363 598.6408,-567.1852"/>
<polygon fill="#191970" stroke="#191970" points="597.5564,-570.515 608.1505,-570.6443 599.9493,-563.9367 597.5564,-570.515"/>
</g>
<!-- Node2&#45;&gt;Node4 -->
<g id="edge3" class="edge">
<title>Node2&#45;&gt;Node4</title>
<path fill="none" stroke="#191970" d="M476.2537,-467.6409C546.143,-500.3197 778.322,-596.8665 953,-528.5 1000.1059,-510.0634 1039.7441,-463.2626 1059.1675,-437.0352"/>
<polygon fill="#191970" stroke="#191970" points="1062.1691,-438.8563 1065.1738,-428.6964 1056.4892,-434.765 1062.1691,-438.8563"/>
</g>
<!-- Node5 -->
<g id="node5" class="node">
<title>Node5</title>
<g id="a_node5"><a xlink:href="../../d5/df7/classHepTool_1_1Evaluator.html#a71d40eedb07fbf64deb7991f3aaa43ef" target="_top" xlink:title="HepTool::Evaluator\l::print_error">
<polygon fill="none" stroke="#000000" points="608.5,-396.5 608.5,-428.5 720.5,-428.5 720.5,-396.5 608.5,-396.5"/>
<text text-anchor="start" x="616.5" y="-415.5" font-family="FreeSans" font-size="10.00" fill="#000000">HepTool::Evaluator</text>
<text text-anchor="middle" x="664.5" y="-403.5" font-family="FreeSans" font-size="10.00" fill="#000000">::print_error</text>
</a>
</g>
</g>
<!-- Node2&#45;&gt;Node5 -->
<g id="edge4" class="edge">
<title>Node2&#45;&gt;Node5</title>
<path fill="none" stroke="#191970" d="M502.1435,-447.4571C530.4772,-441.3566 567.097,-433.4719 598.385,-426.7353"/>
<polygon fill="#191970" stroke="#191970" points="599.2996,-430.1187 608.3388,-424.5921 597.8261,-423.2755 599.2996,-430.1187"/>
</g>
<!-- Node7 -->
<g id="node7" class="node">
<title>Node7</title>
<g id="a_node7"><a xlink:href="../../d8/d36/classG4GDMLEvaluator.html#aefc0596132eb5819bdaeeab4943cf85f" target="_top" xlink:title="G4GDMLEvaluator::SolveBrackets">
<polygon fill="none" stroke="#000000" points="571,-447.5 571,-467.5 758,-467.5 758,-447.5 571,-447.5"/>
<text text-anchor="middle" x="664.5" y="-454.5" font-family="FreeSans" font-size="10.00" fill="#000000">G4GDMLEvaluator::SolveBrackets</text>
</a>
</g>
</g>
<!-- Node2&#45;&gt;Node7 -->
<g id="edge6" class="edge">
<title>Node2&#45;&gt;Node7</title>
<path fill="none" stroke="#191970" d="M535.1102,-457.5C543.4844,-457.5 552.0851,-457.5 560.6797,-457.5"/>
<polygon fill="#191970" stroke="#191970" points="560.7522,-461.0001 570.7522,-457.5 560.7522,-454.0001 560.7522,-461.0001"/>
</g>
<!-- Node11 -->
<g id="node11" class="node">
<title>Node11</title>
<g id="a_node11"><a xlink:href="../../d5/df7/classHepTool_1_1Evaluator.html#ae7260e78df579a539d083e038ae62100" target="_top" xlink:title="HepTool::Evaluator\l::status">
<polygon fill="none" stroke="#000000" points="608.5,-345.5 608.5,-377.5 720.5,-377.5 720.5,-345.5 608.5,-345.5"/>
<text text-anchor="start" x="616.5" y="-364.5" font-family="FreeSans" font-size="10.00" fill="#000000">HepTool::Evaluator</text>
<text text-anchor="middle" x="664.5" y="-352.5" font-family="FreeSans" font-size="10.00" fill="#000000">::status</text>
</a>
</g>
</g>
<!-- Node2&#45;&gt;Node11 -->
<g id="edge13" class="edge">
<title>Node2&#45;&gt;Node11</title>
<path fill="none" stroke="#191970" d="M469.401,-447.3323C490.437,-432.3601 532.0447,-404.3406 571,-387.5 579.7234,-383.7288 589.1419,-380.3572 598.5256,-377.3923"/>
<polygon fill="#191970" stroke="#191970" points="599.7015,-380.6933 608.2614,-374.4499 597.6764,-373.9926 599.7015,-380.6933"/>
</g>
<!-- Node6 -->
<g id="node6" class="node">
<title>Node6</title>
<g id="a_node6"><a xlink:href="../../d5/df7/classHepTool_1_1Evaluator.html#a45e1f0240b875e851e8c455503df7df9" target="_top" xlink:title="HepTool::Evaluator\l::error_name">
<polygon fill="none" stroke="#000000" points="817.5,-318.5 817.5,-350.5 929.5,-350.5 929.5,-318.5 817.5,-318.5"/>
<text text-anchor="start" x="825.5" y="-337.5" font-family="FreeSans" font-size="10.00" fill="#000000">HepTool::Evaluator</text>
<text text-anchor="middle" x="873.5" y="-325.5" font-family="FreeSans" font-size="10.00" fill="#000000">::error_name</text>
</a>
</g>
</g>
<!-- Node5&#45;&gt;Node6 -->
<g id="edge5" class="edge">
<title>Node5&#45;&gt;Node6</title>
<path fill="none" stroke="#191970" d="M720.6441,-401.2196C733.2679,-397.6705 746.3633,-393.1554 758,-387.5 775.9881,-378.7578 776.2582,-369.7319 794,-360.5 798.4744,-358.1718 803.1982,-355.9967 808.0213,-353.976"/>
<polygon fill="#191970" stroke="#191970" points="809.3637,-357.209 817.3794,-350.2809 806.7928,-350.6982 809.3637,-357.209"/>
</g>
<!-- Node7&#45;&gt;Node4 -->
<g id="edge12" class="edge">
<title>Node7&#45;&gt;Node4</title>
<path fill="none" stroke="#191970" d="M726.2992,-447.4833C747.6966,-444.2678 771.8627,-440.9169 794,-438.5 873.309,-429.8411 965.7724,-424.0398 1021.55,-421.0069"/>
<polygon fill="#191970" stroke="#191970" points="1022.0654,-424.4844 1031.864,-420.455 1021.6912,-417.4944 1022.0654,-424.4844"/>
</g>
<!-- Node8 -->
<g id="node8" class="node">
<title>Node8</title>
<g id="a_node8"><a xlink:href="../../d5/d72/classG4String.html#aa95cfd24fc070ec0b60a686ca6017abc" target="_top" xlink:title="G4String::append">
<polygon fill="none" stroke="#000000" points="821,-369.5 821,-389.5 926,-389.5 926,-369.5 821,-369.5"/>
<text text-anchor="middle" x="873.5" y="-376.5" font-family="FreeSans" font-size="10.00" fill="#000000">G4String::append</text>
</a>
</g>
</g>
<!-- Node7&#45;&gt;Node8 -->
<g id="edge7" class="edge">
<title>Node7&#45;&gt;Node8</title>
<path fill="none" stroke="#191970" d="M735.8849,-447.3561C743.5652,-444.9954 751.0897,-442.0858 758,-438.5 777.5345,-428.3635 775.0199,-415.64 794,-404.5 801.8806,-399.8746 810.7115,-396.0099 819.5441,-392.812"/>
<polygon fill="#191970" stroke="#191970" points="820.7242,-396.1078 829.0842,-389.5992 818.4901,-389.4738 820.7242,-396.1078"/>
</g>
<!-- Node9 -->
<g id="node9" class="node">
<title>Node9</title>
<g id="a_node9"><a xlink:href="../../d8/deb/comparison__ascii_8C.html#af0142003ab45f38c281006149c483d2a" target="_top" xlink:title="close">
<polygon fill="none" stroke="#000000" points="852.5,-447.5 852.5,-467.5 894.5,-467.5 894.5,-447.5 852.5,-447.5"/>
<text text-anchor="middle" x="873.5" y="-454.5" font-family="FreeSans" font-size="10.00" fill="#000000">close</text>
</a>
</g>
</g>
<!-- Node7&#45;&gt;Node9 -->
<g id="edge8" class="edge">
<title>Node7&#45;&gt;Node9</title>
<path fill="none" stroke="#191970" d="M758.3014,-457.5C788.3302,-457.5 819.5498,-457.5 841.9016,-457.5"/>
<polygon fill="#191970" stroke="#191970" points="842.1178,-461.0001 852.1178,-457.5 842.1178,-454.0001 842.1178,-461.0001"/>
</g>
<!-- Node10 -->
<g id="node10" class="node">
<title>Node10</title>
<g id="a_node10"><a xlink:href="../../d8/d36/classG4GDMLEvaluator.html#a8c587b757b0f111b7f520cf440a6c7fd" target="_top" xlink:title="G4GDMLEvaluator::Evaluate\lInteger">
<polygon fill="none" stroke="#000000" points="794,-486.5 794,-518.5 953,-518.5 953,-486.5 794,-486.5"/>
<text text-anchor="start" x="802" y="-505.5" font-family="FreeSans" font-size="10.00" fill="#000000">G4GDMLEvaluator::Evaluate</text>
<text text-anchor="middle" x="873.5" y="-493.5" font-family="FreeSans" font-size="10.00" fill="#000000">Integer</text>
</a>
</g>
</g>
<!-- Node7&#45;&gt;Node10 -->
<g id="edge9" class="edge">
<title>Node7&#45;&gt;Node10</title>
<path fill="none" stroke="#191970" d="M711.1435,-467.5429C734.0794,-472.4812 762.4449,-478.5886 789.0167,-484.3098"/>
<polygon fill="#191970" stroke="#191970" points="788.585,-487.797 799.0977,-486.4804 790.0584,-480.9538 788.585,-487.797"/>
</g>
<!-- Node10&#45;&gt;Node2 -->
<g id="edge10" class="edge">
<title>Node10&#45;&gt;Node2</title>
<path fill="none" stroke="#191970" d="M793.6843,-497.8487C732.576,-493.8173 646.2721,-487.1081 571,-477.5 553.6189,-475.2814 534.8641,-472.2928 517.6258,-469.303"/>
<polygon fill="#191970" stroke="#191970" points="518.129,-465.8379 507.6732,-467.5484 516.9136,-472.7316 518.129,-465.8379"/>
</g>
<!-- Node10&#45;&gt;Node4 -->
<g id="edge11" class="edge">
<title>Node10&#45;&gt;Node4</title>
<path fill="none" stroke="#191970" d="M928.6351,-486.389C936.8763,-483.628 945.2147,-480.6319 953,-477.5 985.3407,-464.4897 1020.9824,-446.2712 1044.7489,-433.5323"/>
<polygon fill="#191970" stroke="#191970" points="1046.7253,-436.4425 1053.8565,-428.6069 1043.3954,-430.2853 1046.7253,-436.4425"/>
</g>
<!-- Node12&#45;&gt;Node4 -->
<g id="edge28" class="edge">
<title>Node12&#45;&gt;Node4</title>
<path fill="none" stroke="#191970" d="M302.5639,-222.5392C364.4201,-235.1752 475.3229,-256.8713 571,-270.5 739.9548,-294.5667 797.2873,-239.6538 953,-309.5 998.7332,-330.014 1038.6639,-375.0905 1058.5664,-400.3795"/>
<polygon fill="#191970" stroke="#191970" points="1055.8802,-402.6281 1064.7475,-408.4266 1061.4316,-398.364 1055.8802,-402.6281"/>
</g>
<!-- Node13 -->
<g id="node13" class="node">
<title>Node13</title>
<g id="a_node13"><a xlink:href="../../dd/db6/classG4UnitDefinition.html#ad760642d8d8cc28d245e8101f86ed432" target="_top" xlink:title="G4UnitDefinition::GetUnits\lTable">
<polygon fill="none" stroke="#000000" points="380,-36.5 380,-68.5 531,-68.5 531,-36.5 380,-36.5"/>
<text text-anchor="start" x="388" y="-55.5" font-family="FreeSans" font-size="10.00" fill="#000000">G4UnitDefinition::GetUnits</text>
<text text-anchor="middle" x="455.5" y="-43.5" font-family="FreeSans" font-size="10.00" fill="#000000">Table</text>
</a>
</g>
</g>
<!-- Node12&#45;&gt;Node13 -->
<g id="edge16" class="edge">
<title>Node12&#45;&gt;Node13</title>
<path fill="none" stroke="#191970" d="M318.4636,-202.4512C326.0266,-199.8592 333.3939,-196.5994 340,-192.5 386.5428,-163.6179 423.1347,-109.4038 441.8282,-77.5799"/>
<polygon fill="#191970" stroke="#191970" points="444.8926,-79.2717 446.8331,-68.8561 438.8209,-75.7882 444.8926,-79.2717"/>
</g>
<!-- Node18 -->
<g id="node18" class="node">
<title>Node18</title>
<g id="a_node18"><a xlink:href="../../d8/d3c/ts__scorers_8cc.html#ad81d1cdebbda7d39795160acd3aebd24" target="_top" xlink:title="message">
<polygon fill="none" stroke="#000000" points="424.5,-183.5 424.5,-203.5 486.5,-203.5 486.5,-183.5 424.5,-183.5"/>
<text text-anchor="middle" x="455.5" y="-190.5" font-family="FreeSans" font-size="10.00" fill="#000000">message</text>
</a>
</g>
</g>
<!-- Node12&#45;&gt;Node18 -->
<g id="edge23" class="edge">
<title>Node12&#45;&gt;Node18</title>
<path fill="none" stroke="#191970" d="M340.0336,-204.4147C365.7443,-201.9844 392.7918,-199.4276 414.2408,-197.4001"/>
<polygon fill="#191970" stroke="#191970" points="414.664,-200.8758 424.2902,-196.4502 414.0052,-193.9069 414.664,-200.8758"/>
</g>
<!-- Node14 -->
<g id="node14" class="node">
<title>Node14</title>
<g id="a_node14"><a xlink:href="../../dd/db6/classG4UnitDefinition.html#a935e1332ba986a91d04e0f55996d301e" target="_top" xlink:title="G4UnitDefinition::BuildUnits\lTable">
<polygon fill="none" stroke="#000000" points="585,-36.5 585,-68.5 744,-68.5 744,-36.5 585,-36.5"/>
<text text-anchor="start" x="593" y="-55.5" font-family="FreeSans" font-size="10.00" fill="#000000">G4UnitDefinition::BuildUnits</text>
<text text-anchor="middle" x="664.5" y="-43.5" font-family="FreeSans" font-size="10.00" fill="#000000">Table</text>
</a>
</g>
</g>
<!-- Node13&#45;&gt;Node14 -->
<g id="edge17" class="edge">
<title>Node13&#45;&gt;Node14</title>
<path fill="none" stroke="#191970" d="M531.2493,-52.5C545.2559,-52.5 560.0098,-52.5 574.3928,-52.5"/>
<polygon fill="#191970" stroke="#191970" points="574.7844,-56.0001 584.7844,-52.5 574.7843,-49.0001 574.7844,-56.0001"/>
</g>
<!-- Node16 -->
<g id="node16" class="node">
<title>Node16</title>
<g id="a_node16"><a xlink:href="../../d7/d23/namespaceG4Threading.html#abb1b4c9b1d7bd6bf5f9b9e552b93bd38" target="_top" xlink:title="G4Threading::IsMasterThread">
<polygon fill="none" stroke="#000000" points="989,-.5 989,-20.5 1155,-20.5 1155,-.5 989,-.5"/>
<text text-anchor="middle" x="1072" y="-7.5" font-family="FreeSans" font-size="10.00" fill="#000000">G4Threading::IsMasterThread</text>
</a>
</g>
</g>
<!-- Node13&#45;&gt;Node16 -->
<g id="edge22" class="edge">
<title>Node13&#45;&gt;Node16</title>
<path fill="none" stroke="#191970" d="M516.5568,-36.4889C534.0213,-32.5284 553.1595,-28.7721 571,-26.5 712.256,-8.5106 877.6205,-6.9813 978.5636,-8.2198"/>
<polygon fill="#191970" stroke="#191970" points="978.686,-11.7217 988.7322,-8.3566 978.7803,-4.7223 978.686,-11.7217"/>
</g>
<!-- Node15 -->
<g id="node15" class="node">
<title>Node15</title>
<g id="a_node15"><a xlink:href="../../dd/db6/classG4UnitDefinition.html#a7109cd0b74ba54198d1ba74d757e6c85" target="_top" xlink:title="G4UnitDefinition::G4Unit\lDefinition">
<polygon fill="none" stroke="#000000" points="802,-36.5 802,-68.5 945,-68.5 945,-36.5 802,-36.5"/>
<text text-anchor="start" x="810" y="-55.5" font-family="FreeSans" font-size="10.00" fill="#000000">G4UnitDefinition::G4Unit</text>
<text text-anchor="middle" x="873.5" y="-43.5" font-family="FreeSans" font-size="10.00" fill="#000000">Definition</text>
</a>
</g>
</g>
<!-- Node14&#45;&gt;Node15 -->
<g id="edge18" class="edge">
<title>Node14&#45;&gt;Node15</title>
<path fill="none" stroke="#191970" d="M744.1102,-52.5C759.724,-52.5 776.1251,-52.5 791.8059,-52.5"/>
<polygon fill="#191970" stroke="#191970" points="791.9909,-56.0001 801.9909,-52.5 791.9908,-49.0001 791.9909,-56.0001"/>
</g>
<!-- Node15&#45;&gt;Node4 -->
<g id="edge19" class="edge">
<title>Node15&#45;&gt;Node4</title>
<path fill="none" stroke="#191970" d="M932.2735,-68.5861C939.9184,-72.5399 947.1208,-77.4388 953,-83.5 1042.8534,-176.1348 1065.3142,-340.9321 1070.5285,-398.2119"/>
<polygon fill="#191970" stroke="#191970" points="1067.0638,-398.7837 1071.377,-408.4608 1074.0399,-398.2061 1067.0638,-398.7837"/>
</g>
<!-- Node15&#45;&gt;Node16 -->
<g id="edge20" class="edge">
<title>Node15&#45;&gt;Node16</title>
<path fill="none" stroke="#191970" d="M945.1631,-37.337C967.9796,-32.5093 992.9091,-27.2346 1014.5815,-22.649"/>
<polygon fill="#191970" stroke="#191970" points="1015.5531,-26.021 1024.612,-20.5267 1014.104,-19.1726 1015.5531,-26.021"/>
</g>
<!-- Node17 -->
<g id="node17" class="node">
<title>Node17</title>
<g id="a_node17"><a xlink:href="../../dd/db6/classG4UnitDefinition.html#a94a28970a26fc3e3ff90a28a86c7ff9d" target="_top" xlink:title="G4UnitDefinition::GetName">
<polygon fill="none" stroke="#000000" points="994.5,-42.5 994.5,-62.5 1149.5,-62.5 1149.5,-42.5 994.5,-42.5"/>
<text text-anchor="middle" x="1072" y="-49.5" font-family="FreeSans" font-size="10.00" fill="#000000">G4UnitDefinition::GetName</text>
</a>
</g>
</g>
<!-- Node15&#45;&gt;Node17 -->
<g id="edge21" class="edge">
<title>Node15&#45;&gt;Node17</title>
<path fill="none" stroke="#191970" d="M945.1631,-52.5C957.7812,-52.5 971.0455,-52.5 984.0478,-52.5"/>
<polygon fill="#191970" stroke="#191970" points="984.4019,-56.0001 994.4019,-52.5 984.4018,-49.0001 984.4019,-56.0001"/>
</g>
<!-- Node19 -->
<g id="node19" class="node">
<title>Node19</title>
<g id="a_node19"><a xlink:href="../../d7/d23/namespaceG4Threading.html#a457962a93ab41c7f9575dde6cbe9b78c" target="_top" xlink:title="G4Threading::G4GetNumber\lOfCores">
<polygon fill="none" stroke="#000000" points="583.5,-177.5 583.5,-209.5 745.5,-209.5 745.5,-177.5 583.5,-177.5"/>
<text text-anchor="start" x="591.5" y="-196.5" font-family="FreeSans" font-size="10.00" fill="#000000">G4Threading::G4GetNumber</text>
<text text-anchor="middle" x="664.5" y="-184.5" font-family="FreeSans" font-size="10.00" fill="#000000">OfCores</text>
</a>
</g>
</g>
<!-- Node18&#45;&gt;Node19 -->
<g id="edge24" class="edge">
<title>Node18&#45;&gt;Node19</title>
<path fill="none" stroke="#191970" d="M486.7894,-193.5C509.7068,-193.5 542.0645,-193.5 572.9005,-193.5"/>
<polygon fill="#191970" stroke="#191970" points="573.2838,-197.0001 583.2838,-193.5 573.2837,-190.0001 573.2838,-197.0001"/>
</g>
<!-- Node20 -->
<g id="node20" class="node">
<title>Node20</title>
<g id="a_node20"><a xlink:href="../../d4/daa/classG4RunManager.html#a3a19f2283ba22cbee8ba640d160d2e7e" target="_top" xlink:title="G4RunManager::GetVerbose\lLevel">
<polygon fill="none" stroke="#000000" points="585,-126.5 585,-158.5 744,-158.5 744,-126.5 585,-126.5"/>
<text text-anchor="start" x="593" y="-145.5" font-family="FreeSans" font-size="10.00" fill="#000000">G4RunManager::GetVerbose</text>
<text text-anchor="middle" x="664.5" y="-133.5" font-family="FreeSans" font-size="10.00" fill="#000000">Level</text>
</a>
</g>
</g>
<!-- Node18&#45;&gt;Node20 -->
<g id="edge25" class="edge">
<title>Node18&#45;&gt;Node20</title>
<path fill="none" stroke="#191970" d="M486.7894,-185.8648C513.7484,-179.2863 553.7713,-169.5199 589.013,-160.9203"/>
<polygon fill="#191970" stroke="#191970" points="589.9262,-164.3002 598.8114,-158.5293 588.2667,-157.4998 589.9262,-164.3002"/>
</g>
<!-- Node21 -->
<g id="node21" class="node">
<title>Node21</title>
<g id="a_node21"><a xlink:href="../../d4/daa/classG4RunManager.html#a9e042965b0d460b1d492ab48de141b2a" target="_top" xlink:title="G4RunManager::SetVerbose\lLevel">
<polygon fill="none" stroke="#000000" points="585.5,-228.5 585.5,-260.5 743.5,-260.5 743.5,-228.5 585.5,-228.5"/>
<text text-anchor="start" x="593.5" y="-247.5" font-family="FreeSans" font-size="10.00" fill="#000000">G4RunManager::SetVerbose</text>
<text text-anchor="middle" x="664.5" y="-235.5" font-family="FreeSans" font-size="10.00" fill="#000000">Level</text>
</a>
</g>
</g>
<!-- Node18&#45;&gt;Node21 -->
<g id="edge26" class="edge">
<title>Node18&#45;&gt;Node21</title>
<path fill="none" stroke="#191970" d="M486.7894,-201.1352C513.7484,-207.7137 553.7713,-217.4801 589.013,-226.0797"/>
<polygon fill="#191970" stroke="#191970" points="588.2667,-229.5002 598.8114,-228.4707 589.9262,-222.6998 588.2667,-229.5002"/>
</g>
<!-- Node22 -->
<g id="node22" class="node">
<title>Node22</title>
<g id="a_node22"><a xlink:href="../../de/d51/classG4RunManagerKernel.html#aea8a72d21f60b3e6436eed9b651dc247" target="_top" xlink:title="G4RunManagerKernel\l::SetVerboseLevel">
<polygon fill="none" stroke="#000000" points="810.5,-228.5 810.5,-260.5 936.5,-260.5 936.5,-228.5 810.5,-228.5"/>
<text text-anchor="start" x="818.5" y="-247.5" font-family="FreeSans" font-size="10.00" fill="#000000">G4RunManagerKernel</text>
<text text-anchor="middle" x="873.5" y="-235.5" font-family="FreeSans" font-size="10.00" fill="#000000">::SetVerboseLevel</text>
</a>
</g>
</g>
<!-- Node21&#45;&gt;Node22 -->
<g id="edge27" class="edge">
<title>Node21&#45;&gt;Node22</title>
<path fill="none" stroke="#191970" d="M743.5139,-244.5C762.143,-244.5 781.9228,-244.5 800.2833,-244.5"/>
<polygon fill="#191970" stroke="#191970" points="800.3213,-248.0001 810.3213,-244.5 800.3213,-241.0001 800.3213,-248.0001"/>
</g>
<!-- Node23&#45;&gt;Node4 -->
<g id="edge32" class="edge">
<title>Node23&#45;&gt;Node4</title>
<path fill="none" stroke="#191970" d="M296.4117,-163.4872C356.7012,-149.6489 471.5963,-125.3796 571,-116.5 653.7815,-109.1052 677.2902,-96.666 758,-116.5 852.9811,-139.8411 881.9713,-151.2605 953,-218.5 1010.1268,-272.5792 1049.1905,-360.0816 1064.6238,-398.889"/>
<polygon fill="#191970" stroke="#191970" points="1061.4635,-400.4198 1068.3455,-408.4751 1067.989,-397.8863 1061.4635,-400.4198"/>
</g>
<!-- Node23&#45;&gt;Node13 -->
<g id="edge30" class="edge">
<title>Node23&#45;&gt;Node13</title>
<path fill="none" stroke="#191970" d="M322.8421,-163.3801C328.9891,-160.7762 334.8327,-157.5335 340,-153.5 367.5775,-131.9736 350.0193,-106.9287 376,-83.5 380.1944,-79.7176 384.9027,-76.3743 389.8788,-73.4231"/>
<polygon fill="#191970" stroke="#191970" points="391.8926,-76.316 399.0719,-68.5244 388.6007,-70.1383 391.8926,-76.316"/>
</g>
<!-- Node23&#45;&gt;Node18 -->
<g id="edge31" class="edge">
<title>Node23&#45;&gt;Node18</title>
<path fill="none" stroke="#191970" d="M337.1245,-181.7213C363.6714,-184.3628 391.9375,-187.1754 414.1893,-189.3895"/>
<polygon fill="#191970" stroke="#191970" points="413.9807,-192.8859 424.2781,-190.3933 414.6739,-185.9203 413.9807,-192.8859"/>
</g>
</g>
</svg>
