<?xml version="1.0" encoding="UTF-8" standalone="no"?>
<!DOCTYPE svg PUBLIC "-//W3C//DTD SVG 1.1//EN"
 "http://www.w3.org/Graphics/SVG/1.1/DTD/svg11.dtd">
<!-- Generated by graphviz version 2.40.1 (20161225.0304)
 -->
<!-- Title: G4INCL::ParticleTable::getSigmaType Pages: 1 -->
<svg width="356pt" height="551pt"
 viewBox="0.00 0.00 356.00 551.00" xmlns="http://www.w3.org/2000/svg" xmlns:xlink="http://www.w3.org/1999/xlink">
<g id="graph0" class="graph" transform="scale(1 1) rotate(0) translate(4 547)">
<title>G4INCL::ParticleTable::getSigmaType</title>
<!-- Node1 -->
<g id="node1" class="node">
<title>Node1</title>
<polygon fill="#bfbfbf" stroke="#000000" points="0,-255.5 0,-287.5 123,-287.5 123,-255.5 0,-255.5"/>
<text text-anchor="start" x="8" y="-274.5" font-family="FreeSans" font-size="10.00" fill="#000000">G4INCL::ParticleTable</text>
<text text-anchor="middle" x="61.5" y="-262.5" font-family="FreeSans" font-size="10.00" fill="#000000">::getSigmaType</text>
</g>
<!-- Node2 -->
<g id="node2" class="node">
<title>Node2</title>
<g id="a_node2"><a xlink:href="../../de/dac/classG4INCL_1_1NDeltaToDeltaSKChannel.html#a68338c90d8638d4a9040d0a078831e9e" target="_top" xlink:title="G4INCL::NDeltaToDeltaSKChannel\l::fillFinalState">
<polygon fill="none" stroke="#000000" points="160.5,-510.5 160.5,-542.5 346.5,-542.5 346.5,-510.5 160.5,-510.5"/>
<text text-anchor="start" x="168.5" y="-529.5" font-family="FreeSans" font-size="10.00" fill="#000000">G4INCL::NDeltaToDeltaSKChannel</text>
<text text-anchor="middle" x="253.5" y="-517.5" font-family="FreeSans" font-size="10.00" fill="#000000">::fillFinalState</text>
</a>
</g>
</g>
<!-- Node1&#45;&gt;Node2 -->
<g id="edge1" class="edge">
<title>Node1&#45;&gt;Node2</title>
<path fill="none" stroke="#191970" d="M65.0456,-297.8737C72.9136,-345.7942 96.3717,-447.2062 159,-501.5 162.9751,-504.9461 167.3732,-507.9242 172.0336,-510.4971"/>
<polygon fill="#191970" stroke="#191970" points="68.4598,-297.0481 63.4796,-287.6967 61.5413,-298.1127 68.4598,-297.0481"/>
</g>
<!-- Node3 -->
<g id="node3" class="node">
<title>Node3</title>
<g id="a_node3"><a xlink:href="../../d4/dff/classG4INCL_1_1NSToNSChannel.html#a728f3fec6155ddea0f44ee2763564c7f" target="_top" xlink:title="G4INCL::NSToNSChannel\l::fillFinalState">
<polygon fill="none" stroke="#000000" points="183.5,-459.5 183.5,-491.5 323.5,-491.5 323.5,-459.5 183.5,-459.5"/>
<text text-anchor="start" x="191.5" y="-478.5" font-family="FreeSans" font-size="10.00" fill="#000000">G4INCL::NSToNSChannel</text>
<text text-anchor="middle" x="253.5" y="-466.5" font-family="FreeSans" font-size="10.00" fill="#000000">::fillFinalState</text>
</a>
</g>
</g>
<!-- Node1&#45;&gt;Node3 -->
<g id="edge2" class="edge">
<title>Node1&#45;&gt;Node3</title>
<path fill="none" stroke="#191970" d="M68.3976,-297.3208C80.2209,-336.4945 108.1436,-410.5939 159,-450.5 166.2096,-456.1572 174.5823,-460.5402 183.3068,-463.9347"/>
<polygon fill="#191970" stroke="#191970" points="71.7558,-296.3343 65.6088,-287.705 65.0328,-298.2841 71.7558,-296.3343"/>
</g>
<!-- Node4 -->
<g id="node4" class="node">
<title>Node4</title>
<g id="a_node4"><a xlink:href="../../d3/dd4/classG4INCL_1_1NpiToSKpiChannel.html#a63c8ce2bbc7e57ea6ad30131c16395d9" target="_top" xlink:title="G4INCL::NpiToSKpiChannel\l::fillFinalState">
<polygon fill="none" stroke="#000000" points="177.5,-408.5 177.5,-440.5 329.5,-440.5 329.5,-408.5 177.5,-408.5"/>
<text text-anchor="start" x="185.5" y="-427.5" font-family="FreeSans" font-size="10.00" fill="#000000">G4INCL::NpiToSKpiChannel</text>
<text text-anchor="middle" x="253.5" y="-415.5" font-family="FreeSans" font-size="10.00" fill="#000000">::fillFinalState</text>
</a>
</g>
</g>
<!-- Node1&#45;&gt;Node4 -->
<g id="edge3" class="edge">
<title>Node1&#45;&gt;Node4</title>
<path fill="none" stroke="#191970" d="M74.0556,-296.7601C89.8652,-325.9374 119.773,-373.279 159,-399.5 164.6435,-403.2724 170.8306,-406.4763 177.2536,-409.1972"/>
<polygon fill="#191970" stroke="#191970" points="76.9978,-294.8356 69.2414,-287.6183 70.8041,-298.0973 76.9978,-294.8356"/>
</g>
<!-- Node5 -->
<g id="node5" class="node">
<title>Node5</title>
<g id="a_node5"><a xlink:href="../../d1/d51/classG4INCL_1_1NpiToSKChannel.html#a3ae1238d9c88f7f4e2e68ea8b0db560f" target="_top" xlink:title="G4INCL::NpiToSKChannel\l::fillFinalState">
<polygon fill="none" stroke="#000000" points="182.5,-357.5 182.5,-389.5 324.5,-389.5 324.5,-357.5 182.5,-357.5"/>
<text text-anchor="start" x="190.5" y="-376.5" font-family="FreeSans" font-size="10.00" fill="#000000">G4INCL::NpiToSKChannel</text>
<text text-anchor="middle" x="253.5" y="-364.5" font-family="FreeSans" font-size="10.00" fill="#000000">::fillFinalState</text>
</a>
</g>
</g>
<!-- Node1&#45;&gt;Node5 -->
<g id="edge4" class="edge">
<title>Node1&#45;&gt;Node5</title>
<path fill="none" stroke="#191970" d="M85.0586,-294.7107C103.6985,-311.8674 131.1456,-334.5765 159,-348.5 166.2863,-352.1422 174.1625,-355.2975 182.1513,-358.0204"/>
<polygon fill="#191970" stroke="#191970" points="87.3197,-292.0328 77.6337,-287.7395 82.5284,-297.136 87.3197,-292.0328"/>
</g>
<!-- Node6 -->
<g id="node6" class="node">
<title>Node6</title>
<g id="a_node6"><a xlink:href="../../de/d8a/classG4INCL_1_1NpiToSK2piChannel.html#ad8dc91a90d3669baaa126139ea2c5e92" target="_top" xlink:title="G4INCL::NpiToSK2piChannel\l::fillFinalState">
<polygon fill="none" stroke="#000000" points="174.5,-306.5 174.5,-338.5 332.5,-338.5 332.5,-306.5 174.5,-306.5"/>
<text text-anchor="start" x="182.5" y="-325.5" font-family="FreeSans" font-size="10.00" fill="#000000">G4INCL::NpiToSK2piChannel</text>
<text text-anchor="middle" x="253.5" y="-313.5" font-family="FreeSans" font-size="10.00" fill="#000000">::fillFinalState</text>
</a>
</g>
</g>
<!-- Node1&#45;&gt;Node6 -->
<g id="edge5" class="edge">
<title>Node1&#45;&gt;Node6</title>
<path fill="none" stroke="#191970" d="M131.5251,-290.1912C140.7644,-292.6521 150.1096,-295.1386 159,-297.5 169.9073,-300.3971 181.5246,-303.476 192.747,-306.4468"/>
<polygon fill="#191970" stroke="#191970" points="132.1314,-286.7307 121.5674,-287.5379 130.3291,-293.4947 132.1314,-286.7307"/>
</g>
<!-- Node7 -->
<g id="node7" class="node">
<title>Node7</title>
<g id="a_node7"><a xlink:href="../../d4/d1a/classG4INCL_1_1NpiToMissingStrangenessChannel.html#a1e29a4a9f76b3d4a1d5eee1693b90281" target="_top" xlink:title="G4INCL::NpiToMissingStrangeness\lChannel::fillFinalState">
<polygon fill="none" stroke="#000000" points="159,-255.5 159,-287.5 348,-287.5 348,-255.5 159,-255.5"/>
<text text-anchor="start" x="167" y="-274.5" font-family="FreeSans" font-size="10.00" fill="#000000">G4INCL::NpiToMissingStrangeness</text>
<text text-anchor="middle" x="253.5" y="-262.5" font-family="FreeSans" font-size="10.00" fill="#000000">Channel::fillFinalState</text>
</a>
</g>
</g>
<!-- Node1&#45;&gt;Node7 -->
<g id="edge6" class="edge">
<title>Node1&#45;&gt;Node7</title>
<path fill="none" stroke="#191970" d="M133.1034,-271.5C141.4749,-271.5 150.1115,-271.5 158.7348,-271.5"/>
<polygon fill="#191970" stroke="#191970" points="133.0423,-268.0001 123.0422,-271.5 133.0422,-275.0001 133.0423,-268.0001"/>
</g>
<!-- Node8 -->
<g id="node8" class="node">
<title>Node8</title>
<g id="a_node8"><a xlink:href="../../d5/deb/classG4INCL_1_1NNToMissingStrangenessChannel.html#a05927a9b8848b5e83a0d5675f25ffecd" target="_top" xlink:title="G4INCL::NNToMissingStrangeness\lChannel::fillFinalState">
<polygon fill="none" stroke="#000000" points="160,-204.5 160,-236.5 347,-236.5 347,-204.5 160,-204.5"/>
<text text-anchor="start" x="168" y="-223.5" font-family="FreeSans" font-size="10.00" fill="#000000">G4INCL::NNToMissingStrangeness</text>
<text text-anchor="middle" x="253.5" y="-211.5" font-family="FreeSans" font-size="10.00" fill="#000000">Channel::fillFinalState</text>
</a>
</g>
</g>
<!-- Node1&#45;&gt;Node8 -->
<g id="edge7" class="edge">
<title>Node1&#45;&gt;Node8</title>
<path fill="none" stroke="#191970" d="M131.7042,-252.852C151.8008,-247.5138 173.5266,-241.7429 192.9878,-236.5736"/>
<polygon fill="#191970" stroke="#191970" points="130.7528,-249.4833 121.9865,-255.4333 132.5499,-256.2487 130.7528,-249.4833"/>
</g>
<!-- Node9 -->
<g id="node9" class="node">
<title>Node9</title>
<g id="a_node9"><a xlink:href="../../d6/dc4/classG4INCL_1_1NLToNSChannel.html#ae984d659f764cfb0acaa9671c9e9fca4" target="_top" xlink:title="G4INCL::NLToNSChannel\l::fillFinalState">
<polygon fill="none" stroke="#000000" points="184.5,-153.5 184.5,-185.5 322.5,-185.5 322.5,-153.5 184.5,-153.5"/>
<text text-anchor="start" x="192.5" y="-172.5" font-family="FreeSans" font-size="10.00" fill="#000000">G4INCL::NLToNSChannel</text>
<text text-anchor="middle" x="253.5" y="-160.5" font-family="FreeSans" font-size="10.00" fill="#000000">::fillFinalState</text>
</a>
</g>
</g>
<!-- Node1&#45;&gt;Node9 -->
<g id="edge8" class="edge">
<title>Node1&#45;&gt;Node9</title>
<path fill="none" stroke="#191970" d="M85.4922,-248.3746C104.1734,-231.5256 131.4762,-209.3188 159,-195.5 166.9836,-191.4917 175.6671,-188.034 184.4276,-185.0695"/>
<polygon fill="#191970" stroke="#191970" points="83.0311,-245.8828 78.0383,-255.2275 87.7687,-251.036 83.0311,-245.8828"/>
</g>
<!-- Node10 -->
<g id="node10" class="node">
<title>Node10</title>
<g id="a_node10"><a xlink:href="../../db/dad/classG4INCL_1_1NKbToSpiChannel.html#aeb3d431a79db26e98eb527c29aba4ead" target="_top" xlink:title="G4INCL::NKbToSpiChannel\l::fillFinalState">
<polygon fill="none" stroke="#000000" points="179,-102.5 179,-134.5 328,-134.5 328,-102.5 179,-102.5"/>
<text text-anchor="start" x="187" y="-121.5" font-family="FreeSans" font-size="10.00" fill="#000000">G4INCL::NKbToSpiChannel</text>
<text text-anchor="middle" x="253.5" y="-109.5" font-family="FreeSans" font-size="10.00" fill="#000000">::fillFinalState</text>
</a>
</g>
</g>
<!-- Node1&#45;&gt;Node10 -->
<g id="edge9" class="edge">
<title>Node1&#45;&gt;Node10</title>
<path fill="none" stroke="#191970" d="M74.4053,-246.0421C90.3704,-217.1214 120.2534,-170.5707 159,-144.5 165.0706,-140.4154 171.768,-136.9694 178.7104,-134.0628"/>
<polygon fill="#191970" stroke="#191970" points="71.1786,-244.653 69.532,-255.1191 77.346,-247.9643 71.1786,-244.653"/>
</g>
<!-- Node11 -->
<g id="node11" class="node">
<title>Node11</title>
<g id="a_node11"><a xlink:href="../../d8/d71/classG4INCL_1_1NKbToS2piChannel.html#abc8589de7f6dc50940aa8b2d24aecd50" target="_top" xlink:title="G4INCL::NKbToS2piChannel\l::fillFinalState">
<polygon fill="none" stroke="#000000" points="176,-51.5 176,-83.5 331,-83.5 331,-51.5 176,-51.5"/>
<text text-anchor="start" x="184" y="-70.5" font-family="FreeSans" font-size="10.00" fill="#000000">G4INCL::NKbToS2piChannel</text>
<text text-anchor="middle" x="253.5" y="-58.5" font-family="FreeSans" font-size="10.00" fill="#000000">::fillFinalState</text>
</a>
</g>
</g>
<!-- Node1&#45;&gt;Node11 -->
<g id="edge10" class="edge">
<title>Node1&#45;&gt;Node11</title>
<path fill="none" stroke="#191970" d="M68.6417,-245.3846C80.6713,-206.381 108.7269,-133.2542 159,-93.5 164.0719,-89.4893 169.7202,-86.0964 175.6622,-83.2263"/>
<polygon fill="#191970" stroke="#191970" points="65.152,-244.8424 65.6685,-255.4246 71.8639,-246.83 65.152,-244.8424"/>
</g>
<!-- Node12 -->
<g id="node12" class="node">
<title>Node12</title>
<g id="a_node12"><a xlink:href="../../db/da1/classG4INCL_1_1NDeltaToNSKChannel.html#a1f98b63010f05bc06e37cc16eaa10d29" target="_top" xlink:title="G4INCL::NDeltaToNSKChannel\l::fillFinalState">
<polygon fill="none" stroke="#000000" points="170,-.5 170,-32.5 337,-32.5 337,-.5 170,-.5"/>
<text text-anchor="start" x="178" y="-19.5" font-family="FreeSans" font-size="10.00" fill="#000000">G4INCL::NDeltaToNSKChannel</text>
<text text-anchor="middle" x="253.5" y="-7.5" font-family="FreeSans" font-size="10.00" fill="#000000">::fillFinalState</text>
</a>
</g>
</g>
<!-- Node1&#45;&gt;Node12 -->
<g id="edge11" class="edge">
<title>Node1&#45;&gt;Node12</title>
<path fill="none" stroke="#191970" d="M65.1334,-245.2977C73.1446,-197.678 96.8273,-96.8521 159,-42.5 163.3557,-38.6922 168.2212,-35.4373 173.3845,-32.6555"/>
<polygon fill="#191970" stroke="#191970" points="61.6393,-244.9863 63.5358,-255.41 68.5535,-246.0787 61.6393,-244.9863"/>
</g>
</g>
</svg>
