<?xml version="1.0" encoding="UTF-8" standalone="no"?>
<!DOCTYPE svg PUBLIC "-//W3C//DTD SVG 1.1//EN"
 "http://www.w3.org/Graphics/SVG/1.1/DTD/svg11.dtd">
<!-- Generated by graphviz version 2.40.1 (20161225.0304)
 -->
<!-- Title: G4PAIPhotModel::SetParticle Pages: 1 -->
<svg width="319pt" height="92pt"
 viewBox="0.00 0.00 319.00 92.00" xmlns="http://www.w3.org/2000/svg" xmlns:xlink="http://www.w3.org/1999/xlink">
<g id="graph0" class="graph" transform="scale(1 1) rotate(0) translate(4 88)">
<title>G4PAIPhotModel::SetParticle</title>
<!-- Node1 -->
<g id="node1" class="node">
<title>Node1</title>
<polygon fill="#bfbfbf" stroke="#000000" points="0,-31.5 0,-51.5 159,-51.5 159,-31.5 0,-31.5"/>
<text text-anchor="middle" x="79.5" y="-38.5" font-family="FreeSans" font-size="10.00" fill="#000000">G4PAIPhotModel::SetParticle</text>
</g>
<!-- Node2 -->
<g id="node2" class="node">
<title>Node2</title>
<g id="a_node2"><a xlink:href="../../d5/d38/classG4ParticleDefinition.html#aa751e870d4b72ded8ba24677bb6a656c" target="_top" xlink:title="G4ParticleDefinition\l::GetPDGCharge">
<polygon fill="none" stroke="#000000" points="195,-51.5 195,-83.5 311,-83.5 311,-51.5 195,-51.5"/>
<text text-anchor="start" x="203" y="-70.5" font-family="FreeSans" font-size="10.00" fill="#000000">G4ParticleDefinition</text>
<text text-anchor="middle" x="253" y="-58.5" font-family="FreeSans" font-size="10.00" fill="#000000">::GetPDGCharge</text>
</a>
</g>
</g>
<!-- Node1&#45;&gt;Node2 -->
<g id="edge1" class="edge">
<title>Node1&#45;&gt;Node2</title>
<path fill="none" stroke="#191970" d="M146.5796,-51.5523C159.1452,-53.4353 172.2919,-55.4054 184.8884,-57.2931"/>
<polygon fill="#191970" stroke="#191970" points="184.4426,-60.7653 194.851,-58.786 185.4801,-53.8426 184.4426,-60.7653"/>
</g>
<!-- Node3 -->
<g id="node3" class="node">
<title>Node3</title>
<g id="a_node3"><a xlink:href="../../d5/d38/classG4ParticleDefinition.html#ad823b2f7c489766de74c562e2a3909bf" target="_top" xlink:title="G4ParticleDefinition\l::GetPDGMass">
<polygon fill="none" stroke="#000000" points="195,-.5 195,-32.5 311,-32.5 311,-.5 195,-.5"/>
<text text-anchor="start" x="203" y="-19.5" font-family="FreeSans" font-size="10.00" fill="#000000">G4ParticleDefinition</text>
<text text-anchor="middle" x="253" y="-7.5" font-family="FreeSans" font-size="10.00" fill="#000000">::GetPDGMass</text>
</a>
</g>
</g>
<!-- Node1&#45;&gt;Node3 -->
<g id="edge2" class="edge">
<title>Node1&#45;&gt;Node3</title>
<path fill="none" stroke="#191970" d="M149.0694,-31.4756C160.8089,-29.784 172.9857,-28.0294 184.6926,-26.3426"/>
<polygon fill="#191970" stroke="#191970" points="185.4382,-29.7714 194.8368,-24.8809 184.4398,-22.8429 185.4382,-29.7714"/>
</g>
</g>
</svg>
