<?xml version="1.0" encoding="UTF-8" standalone="no"?>
<!DOCTYPE svg PUBLIC "-//W3C//DTD SVG 1.1//EN"
 "http://www.w3.org/Graphics/SVG/1.1/DTD/svg11.dtd">
<!-- Generated by graphviz version 2.40.1 (20161225.0304)
 -->
<!-- Title: G4DigiManager::GetHitsCollectionID Pages: 1 -->
<svg width="741pt" height="29pt"
 viewBox="0.00 0.00 741.00 29.00" xmlns="http://www.w3.org/2000/svg" xmlns:xlink="http://www.w3.org/1999/xlink">
<g id="graph0" class="graph" transform="scale(1 1) rotate(0) translate(4 25)">
<title>G4DigiManager::GetHitsCollectionID</title>
<!-- Node1 -->
<g id="node1" class="node">
<title>Node1</title>
<polygon fill="#bfbfbf" stroke="#000000" points="0,-.5 0,-20.5 200,-20.5 200,-.5 0,-.5"/>
<text text-anchor="middle" x="100" y="-7.5" font-family="FreeSans" font-size="10.00" fill="#000000">G4DigiManager::GetHitsCollectionID</text>
</g>
<!-- Node2 -->
<g id="node2" class="node">
<title>Node2</title>
<g id="a_node2"><a xlink:href="../../d9/d6b/classG4SDManager.html#a9b1b726ac4340092a45f16aea25b241e" target="_top" xlink:title="G4SDManager::GetCollectionID">
<polygon fill="none" stroke="#000000" points="236,-.5 236,-20.5 410,-20.5 410,-.5 236,-.5"/>
<text text-anchor="middle" x="323" y="-7.5" font-family="FreeSans" font-size="10.00" fill="#000000">G4SDManager::GetCollectionID</text>
</a>
</g>
</g>
<!-- Node1&#45;&gt;Node2 -->
<g id="edge1" class="edge">
<title>Node1&#45;&gt;Node2</title>
<path fill="none" stroke="#191970" d="M200.0847,-10.5C208.5634,-10.5 217.131,-10.5 225.5887,-10.5"/>
<polygon fill="#191970" stroke="#191970" points="225.8374,-14.0001 235.8374,-10.5 225.8374,-7.0001 225.8374,-14.0001"/>
</g>
<!-- Node3 -->
<g id="node3" class="node">
<title>Node3</title>
<g id="a_node3"><a xlink:href="../../de/dd7/classG4HCtable.html#abb4b13f5c296512f00406935f619435c" target="_top" xlink:title="G4HCtable::GetCollectionID">
<polygon fill="none" stroke="#000000" points="446,-.5 446,-20.5 602,-20.5 602,-.5 446,-.5"/>
<text text-anchor="middle" x="524" y="-7.5" font-family="FreeSans" font-size="10.00" fill="#000000">G4HCtable::GetCollectionID</text>
</a>
</g>
</g>
<!-- Node2&#45;&gt;Node3 -->
<g id="edge2" class="edge">
<title>Node2&#45;&gt;Node3</title>
<path fill="none" stroke="#191970" d="M410.2846,-10.5C418.7205,-10.5 427.2829,-10.5 435.7283,-10.5"/>
<polygon fill="#191970" stroke="#191970" points="435.9555,-14.0001 445.9555,-10.5 435.9555,-7.0001 435.9555,-14.0001"/>
</g>
<!-- Node4 -->
<g id="node4" class="node">
<title>Node4</title>
<g id="a_node4"><a xlink:href="../../d5/d72/classG4String.html#acf651813ef2b99ae348f378717100d6c" target="_top" xlink:title="G4String::index">
<polygon fill="none" stroke="#000000" points="638,-.5 638,-20.5 733,-20.5 733,-.5 638,-.5"/>
<text text-anchor="middle" x="685.5" y="-7.5" font-family="FreeSans" font-size="10.00" fill="#000000">G4String::index</text>
</a>
</g>
</g>
<!-- Node3&#45;&gt;Node4 -->
<g id="edge3" class="edge">
<title>Node3&#45;&gt;Node4</title>
<path fill="none" stroke="#191970" d="M602.3846,-10.5C610.8608,-10.5 619.3718,-10.5 627.5435,-10.5"/>
<polygon fill="#191970" stroke="#191970" points="627.6849,-14.0001 637.6848,-10.5 627.6848,-7.0001 627.6849,-14.0001"/>
</g>
</g>
</svg>
