<?xml version="1.0" encoding="UTF-8" standalone="no"?>
<!DOCTYPE svg PUBLIC "-//W3C//DTD SVG 1.1//EN"
 "http://www.w3.org/Graphics/SVG/1.1/DTD/svg11.dtd">
<!-- Generated by graphviz version 2.40.1 (20161225.0304)
 -->
<!-- Title: EventEvaluatorEIC::set_do_LFHCAL Pages: 1 -->
<svg width="413pt" height="158pt"
 viewBox="0.00 0.00 413.00 158.00" xmlns="http://www.w3.org/2000/svg" xmlns:xlink="http://www.w3.org/1999/xlink">
<g id="graph0" class="graph" transform="scale(1 1) rotate(0) translate(4 154)">
<title>EventEvaluatorEIC::set_do_LFHCAL</title>
<!-- Node1 -->
<g id="node1" class="node">
<title>Node1</title>
<polygon fill="#bfbfbf" stroke="#000000" points="0,-61.5 0,-93.5 116,-93.5 116,-61.5 0,-61.5"/>
<text text-anchor="start" x="8" y="-80.5" font-family="FreeSans" font-size="10.00" fill="#000000">EventEvaluatorEIC::</text>
<text text-anchor="middle" x="58" y="-68.5" font-family="FreeSans" font-size="10.00" fill="#000000">set_do_LFHCAL</text>
</g>
<!-- Node2 -->
<g id="node2" class="node">
<title>Node2</title>
<g id="a_node2"><a xlink:href="../../d9/d63/G4__EventEvaluator_8C.html#a4bcfa811e19be6f3773f4007a6130433" target="_top" xlink:title="Event_Eval">
<polygon fill="none" stroke="#000000" points="152,-67.5 152,-87.5 223,-87.5 223,-67.5 152,-67.5"/>
<text text-anchor="middle" x="187.5" y="-74.5" font-family="FreeSans" font-size="10.00" fill="#000000">Event_Eval</text>
</a>
</g>
</g>
<!-- Node1&#45;&gt;Node2 -->
<g id="edge1" class="edge">
<title>Node1&#45;&gt;Node2</title>
<path fill="none" stroke="#191970" d="M126.5395,-77.5C135.2502,-77.5 143.8691,-77.5 151.7627,-77.5"/>
<polygon fill="#191970" stroke="#191970" points="126.3098,-74.0001 116.3098,-77.5 126.3097,-81.0001 126.3098,-74.0001"/>
</g>
<!-- Node3 -->
<g id="node3" class="node">
<title>Node3</title>
<g id="a_node3"><a xlink:href="../../d2/d7e/Fun4All__G4__ECCEModular_8C.html#abfc0f0fda62657d78ec09187a1c5d74a" target="_top" xlink:title="Fun4All_G4_ECCEModular">
<polygon fill="none" stroke="#000000" points="259,-129.5 259,-149.5 405,-149.5 405,-129.5 259,-129.5"/>
<text text-anchor="middle" x="332" y="-136.5" font-family="FreeSans" font-size="10.00" fill="#000000">Fun4All_G4_ECCEModular</text>
</a>
</g>
</g>
<!-- Node2&#45;&gt;Node3 -->
<g id="edge2" class="edge">
<title>Node2&#45;&gt;Node3</title>
<path fill="none" stroke="#191970" d="M210.312,-93.5314C223.9288,-102.5004 241.8585,-113.2923 259,-120.5 267.209,-123.9517 276.2076,-126.9103 284.9971,-129.3942"/>
<polygon fill="#191970" stroke="#191970" points="211.8842,-90.3701 201.6367,-87.6798 207.9698,-96.1734 211.8842,-90.3701"/>
</g>
<!-- Node4 -->
<g id="node4" class="node">
<title>Node4</title>
<g id="a_node4"><a xlink:href="../../da/d02/Fun4All__G4__EICDetector_8C.html#add9dee08cdb08b59c0b3870bb04994d9" target="_top" xlink:title="Fun4All_G4_EICDetector">
<polygon fill="none" stroke="#000000" points="262.5,-90.5 262.5,-110.5 401.5,-110.5 401.5,-90.5 262.5,-90.5"/>
<text text-anchor="middle" x="332" y="-97.5" font-family="FreeSans" font-size="10.00" fill="#000000">Fun4All_G4_EICDetector</text>
</a>
</g>
</g>
<!-- Node2&#45;&gt;Node4 -->
<g id="edge3" class="edge">
<title>Node2&#45;&gt;Node4</title>
<path fill="none" stroke="#191970" d="M233.3367,-84.7958C244.706,-86.6054 257.0872,-88.5762 269.1161,-90.4908"/>
<polygon fill="#191970" stroke="#191970" points="233.645,-81.3009 223.2191,-83.1854 232.5446,-88.2139 233.645,-81.3009"/>
</g>
<!-- Node5 -->
<g id="node5" class="node">
<title>Node5</title>
<g id="a_node5"><a xlink:href="../../d5/d22/CCE_2macro_2Fun4All__G4__EICDetector__AnaTutorial_8C.html#a598434aca3dac5cdb0ca67ccc548d865" target="_top" xlink:title="Fun4All_G4_EICDetector\l_AnaTutorial">
<polygon fill="none" stroke="#000000" points="262.5,-39.5 262.5,-71.5 401.5,-71.5 401.5,-39.5 262.5,-39.5"/>
<text text-anchor="start" x="270.5" y="-58.5" font-family="FreeSans" font-size="10.00" fill="#000000">Fun4All_G4_EICDetector</text>
<text text-anchor="middle" x="332" y="-46.5" font-family="FreeSans" font-size="10.00" fill="#000000">_AnaTutorial</text>
</a>
</g>
</g>
<!-- Node2&#45;&gt;Node5 -->
<g id="edge4" class="edge">
<title>Node2&#45;&gt;Node5</title>
<path fill="none" stroke="#191970" d="M233.3157,-70.5246C242.544,-69.1196 252.4397,-67.613 262.273,-66.1159"/>
<polygon fill="#191970" stroke="#191970" points="232.5784,-67.0964 223.2191,-72.0618 233.632,-74.0167 232.5784,-67.0964"/>
</g>
<!-- Node6 -->
<g id="node6" class="node">
<title>Node6</title>
<g id="a_node6"><a xlink:href="../../de/db0/Fun4All__runEvaluators_8C.html#acb848f945cd913b13603a43aa042d550" target="_top" xlink:title="Fun4All_runEvaluators">
<polygon fill="none" stroke="#000000" points="267.5,-.5 267.5,-20.5 396.5,-20.5 396.5,-.5 267.5,-.5"/>
<text text-anchor="middle" x="332" y="-7.5" font-family="FreeSans" font-size="10.00" fill="#000000">Fun4All_runEvaluators</text>
</a>
</g>
</g>
<!-- Node2&#45;&gt;Node6 -->
<g id="edge5" class="edge">
<title>Node2&#45;&gt;Node6</title>
<path fill="none" stroke="#191970" d="M208.4683,-61.1715C222.2019,-51.137 240.9,-38.6801 259,-30.5 267.6217,-26.6035 277.1681,-23.3168 286.437,-20.605"/>
<polygon fill="#191970" stroke="#191970" points="206.126,-58.5529 200.2165,-67.3465 210.3199,-64.1574 206.126,-58.5529"/>
</g>
</g>
</svg>
