<?xml version="1.0" encoding="UTF-8" standalone="no"?>
<!DOCTYPE svg PUBLIC "-//W3C//DTD SVG 1.1//EN"
 "http://www.w3.org/Graphics/SVG/1.1/DTD/svg11.dtd">
<!-- Generated by graphviz version 2.40.1 (20161225.0304)
 -->
<!-- Title: geant4/tree/geant4&#45;10.6&#45;release/source/physics_lists/constructors/hadron_inelastic/include/G4HadronPhysicsQGSP_BERT.hh Pages: 1 -->
<svg width="1232pt" height="287pt"
 viewBox="0.00 0.00 1232.00 287.00" xmlns="http://www.w3.org/2000/svg" xmlns:xlink="http://www.w3.org/1999/xlink">
<g id="graph0" class="graph" transform="scale(1 1) rotate(0) translate(4 283)">
<title>geant4/tree/geant4&#45;10.6&#45;release/source/physics_lists/constructors/hadron_inelastic/include/G4HadronPhysicsQGSP_BERT.hh</title>
<!-- Node1 -->
<g id="node1" class="node">
<title>Node1</title>
<polygon fill="#bfbfbf" stroke="#000000" points="522.5,-210.5 522.5,-278.5 705.5,-278.5 705.5,-210.5 522.5,-210.5"/>
<text text-anchor="start" x="530.5" y="-265.5" font-family="FreeSans" font-size="10.00" fill="#000000">geant4/tree/geant4</text>
<text text-anchor="start" x="530.5" y="-253.5" font-family="FreeSans" font-size="10.00" fill="#000000">&#45;10.6&#45;release/source</text>
<text text-anchor="start" x="530.5" y="-241.5" font-family="FreeSans" font-size="10.00" fill="#000000">/physics_lists/constructors</text>
<text text-anchor="start" x="530.5" y="-229.5" font-family="FreeSans" font-size="10.00" fill="#000000">/hadron_inelastic/include</text>
<text text-anchor="middle" x="614" y="-217.5" font-family="FreeSans" font-size="10.00" fill="#000000">/G4HadronPhysicsQGSP_BERT.hh</text>
</g>
<!-- Node2 -->
<g id="node2" class="node">
<title>Node2</title>
<g id="a_node2"><a xlink:href="../../d7/de3/STCyclotronPhysicsList_8cc.html" target="_top" xlink:title="geant4/tree/geant4\l&#45;10.6&#45;release/examples\l/advanced/STCyclotron\l/src/STCyclotronPhysicsList.cc">
<polygon fill="none" stroke="#000000" points="160,-111.5 160,-167.5 328,-167.5 328,-111.5 160,-111.5"/>
<text text-anchor="start" x="168" y="-154.5" font-family="FreeSans" font-size="10.00" fill="#000000">geant4/tree/geant4</text>
<text text-anchor="start" x="168" y="-142.5" font-family="FreeSans" font-size="10.00" fill="#000000">&#45;10.6&#45;release/examples</text>
<text text-anchor="start" x="168" y="-130.5" font-family="FreeSans" font-size="10.00" fill="#000000">/advanced/STCyclotron</text>
<text text-anchor="middle" x="244" y="-118.5" font-family="FreeSans" font-size="10.00" fill="#000000">/src/STCyclotronPhysicsList.cc</text>
</a>
</g>
</g>
<!-- Node1&#45;&gt;Node2 -->
<g id="edge1" class="edge">
<title>Node1&#45;&gt;Node2</title>
<path fill="none" stroke="#191970" d="M512.6938,-220.4145C461.2736,-207.6408 397.9995,-191.0807 342,-174 335.3577,-171.974 328.4968,-169.7771 321.6333,-167.5065"/>
<polygon fill="#191970" stroke="#191970" points="511.935,-223.8322 522.4829,-222.8362 513.616,-217.0371 511.935,-223.8322"/>
</g>
<!-- Node3 -->
<g id="node3" class="node">
<title>Node3</title>
<g id="a_node3"><a xlink:href="../../d2/d2f/examples_2extended_2hadronic_2Hadr01_2src_2PhysicsList_8cc.html" target="_top" xlink:title="Implementation of the PhysicsList class.">
<polygon fill="none" stroke="#000000" points="568,-6.5 568,-62.5 724,-62.5 724,-6.5 568,-6.5"/>
<text text-anchor="start" x="576" y="-49.5" font-family="FreeSans" font-size="10.00" fill="#000000">geant4/tree/geant4</text>
<text text-anchor="start" x="576" y="-37.5" font-family="FreeSans" font-size="10.00" fill="#000000">&#45;10.6&#45;release/examples</text>
<text text-anchor="start" x="576" y="-25.5" font-family="FreeSans" font-size="10.00" fill="#000000">/extended/hadronic/Hadr01</text>
<text text-anchor="middle" x="646" y="-13.5" font-family="FreeSans" font-size="10.00" fill="#000000">/src/PhysicsList.cc</text>
</a>
</g>
</g>
<!-- Node1&#45;&gt;Node3 -->
<g id="edge2" class="edge">
<title>Node1&#45;&gt;Node3</title>
<path fill="none" stroke="#191970" d="M619.4884,-200.2402C623.028,-172.7746 627.9086,-136.7799 633,-105 635.2445,-90.9903 638.0679,-75.4776 640.5096,-62.5787"/>
<polygon fill="#191970" stroke="#191970" points="615.9959,-199.9594 618.1998,-210.3225 622.9394,-200.8469 615.9959,-199.9594"/>
</g>
<!-- Node4 -->
<g id="node4" class="node">
<title>Node4</title>
<g id="a_node4"><a xlink:href="../../d8/dbd/TSPhysicsList_8cc.html" target="_top" xlink:title="Implementation of the TSPhysicsList class.">
<polygon fill="none" stroke="#000000" points="0,-6.5 0,-62.5 170,-62.5 170,-6.5 0,-6.5"/>
<text text-anchor="start" x="8" y="-49.5" font-family="FreeSans" font-size="10.00" fill="#000000">geant4/tree/geant4</text>
<text text-anchor="start" x="8" y="-37.5" font-family="FreeSans" font-size="10.00" fill="#000000">&#45;10.6&#45;release/examples</text>
<text text-anchor="start" x="8" y="-25.5" font-family="FreeSans" font-size="10.00" fill="#000000">/extended/parallel/Threadsafe</text>
<text text-anchor="middle" x="85" y="-13.5" font-family="FreeSans" font-size="10.00" fill="#000000">Scorers/src/TSPhysicsList.cc</text>
</a>
</g>
</g>
<!-- Node1&#45;&gt;Node4 -->
<g id="edge3" class="edge">
<title>Node1&#45;&gt;Node4</title>
<path fill="none" stroke="#191970" d="M512.2686,-232.3982C466.4167,-222.7213 413.9504,-205.3126 375,-174 347.7141,-152.0646 364.9613,-126.0676 337,-105 279.4781,-61.6597 248.0579,-89.4492 179,-69 172.3326,-67.0257 165.4539,-64.826 158.5926,-62.5197"/>
<polygon fill="#191970" stroke="#191970" points="511.753,-235.8646 522.247,-234.4059 513.1338,-229.0021 511.753,-235.8646"/>
</g>
<!-- Node5 -->
<g id="node5" class="node">
<title>Node5</title>
<g id="a_node5"><a xlink:href="../../df/d1a/G4HadronPhysicsQGSP__BERT__HP_8hh.html" target="_top" xlink:title="geant4/tree/geant4\l&#45;10.6&#45;release/source\l/physics_lists/constructors\l/hadron_inelastic/include\l/G4HadronPhysicsQGSP_BERT_HP.hh">
<polygon fill="none" stroke="#000000" points="384.5,-105.5 384.5,-173.5 585.5,-173.5 585.5,-105.5 384.5,-105.5"/>
<text text-anchor="start" x="392.5" y="-160.5" font-family="FreeSans" font-size="10.00" fill="#000000">geant4/tree/geant4</text>
<text text-anchor="start" x="392.5" y="-148.5" font-family="FreeSans" font-size="10.00" fill="#000000">&#45;10.6&#45;release/source</text>
<text text-anchor="start" x="392.5" y="-136.5" font-family="FreeSans" font-size="10.00" fill="#000000">/physics_lists/constructors</text>
<text text-anchor="start" x="392.5" y="-124.5" font-family="FreeSans" font-size="10.00" fill="#000000">/hadron_inelastic/include</text>
<text text-anchor="middle" x="485" y="-112.5" font-family="FreeSans" font-size="10.00" fill="#000000">/G4HadronPhysicsQGSP_BERT_HP.hh</text>
</a>
</g>
</g>
<!-- Node1&#45;&gt;Node5 -->
<g id="edge4" class="edge">
<title>Node1&#45;&gt;Node5</title>
<path fill="none" stroke="#191970" d="M564.1971,-203.9627C551.9505,-193.9946 538.9574,-183.4188 527.1139,-173.7788"/>
<polygon fill="#191970" stroke="#191970" points="562.1523,-206.8112 572.1174,-210.4095 566.5712,-201.3823 562.1523,-206.8112"/>
</g>
<!-- Node8 -->
<g id="node8" class="node">
<title>Node8</title>
<g id="a_node8"><a xlink:href="../../dc/d02/G4HadronPhysicsQGSP__FTFP__BERT_8hh.html" target="_top" xlink:title="geant4/tree/geant4\l&#45;10.6&#45;release/source\l/physics_lists/constructors\l/hadron_inelastic/include\l/G4HadronPhysicsQGSP_FTFP_BERT.hh">
<polygon fill="none" stroke="#000000" points="642,-105.5 642,-173.5 854,-173.5 854,-105.5 642,-105.5"/>
<text text-anchor="start" x="650" y="-160.5" font-family="FreeSans" font-size="10.00" fill="#000000">geant4/tree/geant4</text>
<text text-anchor="start" x="650" y="-148.5" font-family="FreeSans" font-size="10.00" fill="#000000">&#45;10.6&#45;release/source</text>
<text text-anchor="start" x="650" y="-136.5" font-family="FreeSans" font-size="10.00" fill="#000000">/physics_lists/constructors</text>
<text text-anchor="start" x="650" y="-124.5" font-family="FreeSans" font-size="10.00" fill="#000000">/hadron_inelastic/include</text>
<text text-anchor="middle" x="748" y="-112.5" font-family="FreeSans" font-size="10.00" fill="#000000">/G4HadronPhysicsQGSP_FTFP_BERT.hh</text>
</a>
</g>
</g>
<!-- Node1&#45;&gt;Node8 -->
<g id="edge9" class="edge">
<title>Node1&#45;&gt;Node8</title>
<path fill="none" stroke="#191970" d="M665.7333,-203.9627C678.4545,-193.9946 691.9512,-183.4188 704.2538,-173.7788"/>
<polygon fill="#191970" stroke="#191970" points="663.2186,-201.4867 657.506,-210.4095 667.5361,-206.9966 663.2186,-201.4867"/>
</g>
<!-- Node11 -->
<g id="node11" class="node">
<title>Node11</title>
<g id="a_node11"><a xlink:href="../../d3/d10/G4HadronPhysicsQGSP__BERT_8cc.html" target="_top" xlink:title="geant4/tree/geant4\l&#45;10.6&#45;release/source\l/physics_lists/constructors\l/hadron_inelastic/src/G4HadronPhysics\lQGSP_BERT.cc">
<polygon fill="none" stroke="#000000" points="872,-105.5 872,-173.5 1086,-173.5 1086,-105.5 872,-105.5"/>
<text text-anchor="start" x="880" y="-160.5" font-family="FreeSans" font-size="10.00" fill="#000000">geant4/tree/geant4</text>
<text text-anchor="start" x="880" y="-148.5" font-family="FreeSans" font-size="10.00" fill="#000000">&#45;10.6&#45;release/source</text>
<text text-anchor="start" x="880" y="-136.5" font-family="FreeSans" font-size="10.00" fill="#000000">/physics_lists/constructors</text>
<text text-anchor="start" x="880" y="-124.5" font-family="FreeSans" font-size="10.00" fill="#000000">/hadron_inelastic/src/G4HadronPhysics</text>
<text text-anchor="middle" x="979" y="-112.5" font-family="FreeSans" font-size="10.00" fill="#000000">QGSP_BERT.cc</text>
</a>
</g>
</g>
<!-- Node1&#45;&gt;Node11 -->
<g id="edge13" class="edge">
<title>Node1&#45;&gt;Node11</title>
<path fill="none" stroke="#191970" d="M715.5335,-216.0791C760.7219,-203.3459 814.5613,-188.0598 863,-174 865.9258,-173.1508 868.8923,-172.287 871.8855,-171.4132"/>
<polygon fill="#191970" stroke="#191970" points="714.4086,-212.7596 705.7316,-218.8392 716.306,-219.4976 714.4086,-212.7596"/>
</g>
<!-- Node12 -->
<g id="node12" class="node">
<title>Node12</title>
<g id="a_node12"><a xlink:href="../../da/de2/QGSP__BERT_8cc.html" target="_top" xlink:title="geant4/tree/geant4\l&#45;10.6&#45;release/source\l/physics_lists/lists\l/src/QGSP_BERT.cc">
<polygon fill="none" stroke="#000000" points="1104,-111.5 1104,-167.5 1224,-167.5 1224,-111.5 1104,-111.5"/>
<text text-anchor="start" x="1112" y="-154.5" font-family="FreeSans" font-size="10.00" fill="#000000">geant4/tree/geant4</text>
<text text-anchor="start" x="1112" y="-142.5" font-family="FreeSans" font-size="10.00" fill="#000000">&#45;10.6&#45;release/source</text>
<text text-anchor="start" x="1112" y="-130.5" font-family="FreeSans" font-size="10.00" fill="#000000">/physics_lists/lists</text>
<text text-anchor="middle" x="1164" y="-118.5" font-family="FreeSans" font-size="10.00" fill="#000000">/src/QGSP_BERT.cc</text>
</a>
</g>
</g>
<!-- Node1&#45;&gt;Node12 -->
<g id="edge14" class="edge">
<title>Node1&#45;&gt;Node12</title>
<path fill="none" stroke="#191970" d="M715.8901,-238.9733C814.7111,-231.4362 967.9247,-213.9491 1095,-174 1100.6217,-172.2327 1106.3493,-170.0537 1111.9803,-167.6568"/>
<polygon fill="#191970" stroke="#191970" points="715.6174,-235.4838 705.9042,-239.7152 716.1361,-242.4646 715.6174,-235.4838"/>
</g>
<!-- Node5&#45;&gt;Node3 -->
<g id="edge5" class="edge">
<title>Node5&#45;&gt;Node3</title>
<path fill="none" stroke="#191970" d="M545.8649,-99.8055C564.8402,-87.4303 585.3656,-74.0442 602.864,-62.6321"/>
<polygon fill="#191970" stroke="#191970" points="543.7363,-97.0151 537.2721,-105.4095 547.5602,-102.8784 543.7363,-97.0151"/>
</g>
<!-- Node5&#45;&gt;Node4 -->
<g id="edge6" class="edge">
<title>Node5&#45;&gt;Node4</title>
<path fill="none" stroke="#191970" d="M374.392,-106.0846C372.9202,-105.7163 371.4556,-105.3545 370,-105 286.0693,-84.5607 262.2764,-91.9602 179,-69 172.0452,-67.0825 164.875,-64.88 157.742,-62.5354"/>
<polygon fill="#191970" stroke="#191970" points="373.6375,-109.5044 384.194,-108.6045 375.3804,-102.7248 373.6375,-109.5044"/>
</g>
<!-- Node6 -->
<g id="node6" class="node">
<title>Node6</title>
<g id="a_node6"><a xlink:href="../../d3/ded/G4HadronPhysicsQGSP__BERT__HP_8cc.html" target="_top" xlink:title="geant4/tree/geant4\l&#45;10.6&#45;release/source\l/physics_lists/constructors\l/hadron_inelastic/src/G4HadronPhysics\lQGSP_BERT_HP.cc">
<polygon fill="none" stroke="#000000" points="188,-.5 188,-68.5 402,-68.5 402,-.5 188,-.5"/>
<text text-anchor="start" x="196" y="-55.5" font-family="FreeSans" font-size="10.00" fill="#000000">geant4/tree/geant4</text>
<text text-anchor="start" x="196" y="-43.5" font-family="FreeSans" font-size="10.00" fill="#000000">&#45;10.6&#45;release/source</text>
<text text-anchor="start" x="196" y="-31.5" font-family="FreeSans" font-size="10.00" fill="#000000">/physics_lists/constructors</text>
<text text-anchor="start" x="196" y="-19.5" font-family="FreeSans" font-size="10.00" fill="#000000">/hadron_inelastic/src/G4HadronPhysics</text>
<text text-anchor="middle" x="295" y="-7.5" font-family="FreeSans" font-size="10.00" fill="#000000">QGSP_BERT_HP.cc</text>
</a>
</g>
</g>
<!-- Node5&#45;&gt;Node6 -->
<g id="edge7" class="edge">
<title>Node5&#45;&gt;Node6</title>
<path fill="none" stroke="#191970" d="M414.4262,-100.4987C395.4747,-90.0255 375.1319,-78.7834 356.7029,-68.599"/>
<polygon fill="#191970" stroke="#191970" points="412.8671,-103.6359 423.3124,-105.4095 416.2529,-97.5092 412.8671,-103.6359"/>
</g>
<!-- Node7 -->
<g id="node7" class="node">
<title>Node7</title>
<g id="a_node7"><a xlink:href="../../d8/d19/QGSP__BERT__HP_8cc.html" target="_top" xlink:title="geant4/tree/geant4\l&#45;10.6&#45;release/source\l/physics_lists/lists\l/src/QGSP_BERT_HP.cc">
<polygon fill="none" stroke="#000000" points="420.5,-6.5 420.5,-62.5 549.5,-62.5 549.5,-6.5 420.5,-6.5"/>
<text text-anchor="start" x="428.5" y="-49.5" font-family="FreeSans" font-size="10.00" fill="#000000">geant4/tree/geant4</text>
<text text-anchor="start" x="428.5" y="-37.5" font-family="FreeSans" font-size="10.00" fill="#000000">&#45;10.6&#45;release/source</text>
<text text-anchor="start" x="428.5" y="-25.5" font-family="FreeSans" font-size="10.00" fill="#000000">/physics_lists/lists</text>
<text text-anchor="middle" x="485" y="-13.5" font-family="FreeSans" font-size="10.00" fill="#000000">/src/QGSP_BERT_HP.cc</text>
</a>
</g>
</g>
<!-- Node5&#45;&gt;Node7 -->
<g id="edge8" class="edge">
<title>Node5&#45;&gt;Node7</title>
<path fill="none" stroke="#191970" d="M485,-95.1264C485,-84.1796 485,-72.7498 485,-62.8032"/>
<polygon fill="#191970" stroke="#191970" points="481.5001,-95.4095 485,-105.4095 488.5001,-95.4095 481.5001,-95.4095"/>
</g>
<!-- Node8&#45;&gt;Node3 -->
<g id="edge10" class="edge">
<title>Node8&#45;&gt;Node3</title>
<path fill="none" stroke="#191970" d="M707.8405,-98.1594C696.333,-86.3134 684.0535,-73.6727 673.4945,-62.8032"/>
<polygon fill="#191970" stroke="#191970" points="705.4051,-100.6754 714.8835,-105.4095 710.4261,-95.7979 705.4051,-100.6754"/>
</g>
<!-- Node9 -->
<g id="node9" class="node">
<title>Node9</title>
<g id="a_node9"><a xlink:href="../../d1/db5/G4HadronPhysicsQGSP__FTFP__BERT_8cc.html" target="_top" xlink:title="geant4/tree/geant4\l&#45;10.6&#45;release/source\l/physics_lists/constructors\l/hadron_inelastic/src/G4HadronPhysics\lQGSP_FTFP_BERT.cc">
<polygon fill="none" stroke="#000000" points="742,-.5 742,-68.5 956,-68.5 956,-.5 742,-.5"/>
<text text-anchor="start" x="750" y="-55.5" font-family="FreeSans" font-size="10.00" fill="#000000">geant4/tree/geant4</text>
<text text-anchor="start" x="750" y="-43.5" font-family="FreeSans" font-size="10.00" fill="#000000">&#45;10.6&#45;release/source</text>
<text text-anchor="start" x="750" y="-31.5" font-family="FreeSans" font-size="10.00" fill="#000000">/physics_lists/constructors</text>
<text text-anchor="start" x="750" y="-19.5" font-family="FreeSans" font-size="10.00" fill="#000000">/hadron_inelastic/src/G4HadronPhysics</text>
<text text-anchor="middle" x="849" y="-7.5" font-family="FreeSans" font-size="10.00" fill="#000000">QGSP_FTFP_BERT.cc</text>
</a>
</g>
</g>
<!-- Node8&#45;&gt;Node9 -->
<g id="edge11" class="edge">
<title>Node8&#45;&gt;Node9</title>
<path fill="none" stroke="#191970" d="M787.8162,-98.1069C797.1619,-88.3911 807.0192,-78.1434 816.0271,-68.7788"/>
<polygon fill="#191970" stroke="#191970" points="785.2018,-95.7761 780.7918,-105.4095 790.2468,-100.6288 785.2018,-95.7761"/>
</g>
<!-- Node10 -->
<g id="node10" class="node">
<title>Node10</title>
<g id="a_node10"><a xlink:href="../../d6/d9f/QGSP__FTFP__BERT_8cc.html" target="_top" xlink:title="geant4/tree/geant4\l&#45;10.6&#45;release/source\l/physics_lists/lists\l/src/QGSP_FTFP_BERT.cc">
<polygon fill="none" stroke="#000000" points="974.5,-6.5 974.5,-62.5 1113.5,-62.5 1113.5,-6.5 974.5,-6.5"/>
<text text-anchor="start" x="982.5" y="-49.5" font-family="FreeSans" font-size="10.00" fill="#000000">geant4/tree/geant4</text>
<text text-anchor="start" x="982.5" y="-37.5" font-family="FreeSans" font-size="10.00" fill="#000000">&#45;10.6&#45;release/source</text>
<text text-anchor="start" x="982.5" y="-25.5" font-family="FreeSans" font-size="10.00" fill="#000000">/physics_lists/lists</text>
<text text-anchor="middle" x="1044" y="-13.5" font-family="FreeSans" font-size="10.00" fill="#000000">/src/QGSP_FTFP_BERT.cc</text>
</a>
</g>
</g>
<!-- Node8&#45;&gt;Node10 -->
<g id="edge12" class="edge">
<title>Node8&#45;&gt;Node10</title>
<path fill="none" stroke="#191970" d="M863.7917,-104.1916C896.7253,-93.5263 932.4751,-81.3516 965,-69 970.3166,-66.981 975.7956,-64.8011 981.2715,-62.5528"/>
<polygon fill="#191970" stroke="#191970" points="862.5724,-100.9072 854.127,-107.3046 864.7185,-107.5701 862.5724,-100.9072"/>
</g>
</g>
</svg>
