<?xml version="1.0" encoding="UTF-8" standalone="no"?>
<!DOCTYPE svg PUBLIC "-//W3C//DTD SVG 1.1//EN"
 "http://www.w3.org/Graphics/SVG/1.1/DTD/svg11.dtd">
<!-- Generated by graphviz version 2.40.1 (20161225.0304)
 -->
<!-- Title: G4PhysicalVolumeMassScene::ProcessVolume Pages: 1 -->
<svg width="350pt" height="284pt"
 viewBox="0.00 0.00 350.00 284.00" xmlns="http://www.w3.org/2000/svg" xmlns:xlink="http://www.w3.org/1999/xlink">
<g id="graph0" class="graph" transform="scale(1 1) rotate(0) translate(4 280)">
<title>G4PhysicalVolumeMassScene::ProcessVolume</title>
<!-- Node1 -->
<g id="node1" class="node">
<title>Node1</title>
<polygon fill="#bfbfbf" stroke="#000000" points="0,-115.5 0,-147.5 166,-147.5 166,-115.5 0,-115.5"/>
<text text-anchor="start" x="8" y="-134.5" font-family="FreeSans" font-size="10.00" fill="#000000">G4PhysicalVolumeMassScene</text>
<text text-anchor="middle" x="83" y="-122.5" font-family="FreeSans" font-size="10.00" fill="#000000">::ProcessVolume</text>
</g>
<!-- Node2 -->
<g id="node2" class="node">
<title>Node2</title>
<g id="a_node2"><a xlink:href="../../d1/d28/classG4VPhysicalVolume.html#a84f0c0503d7b0a0aeca7223e9bff860b" target="_top" xlink:title="G4VPhysicalVolume::\lGetCopyNo">
<polygon fill="none" stroke="#000000" points="210.5,-243.5 210.5,-275.5 333.5,-275.5 333.5,-243.5 210.5,-243.5"/>
<text text-anchor="start" x="218.5" y="-262.5" font-family="FreeSans" font-size="10.00" fill="#000000">G4VPhysicalVolume::</text>
<text text-anchor="middle" x="272" y="-250.5" font-family="FreeSans" font-size="10.00" fill="#000000">GetCopyNo</text>
</a>
</g>
</g>
<!-- Node1&#45;&gt;Node2 -->
<g id="edge1" class="edge">
<title>Node1&#45;&gt;Node2</title>
<path fill="none" stroke="#191970" d="M97.7109,-147.532C118.8703,-169.7659 159.993,-209.9867 202,-234.5 204.8421,-236.1585 207.8126,-237.7347 210.8577,-239.2285"/>
<polygon fill="#191970" stroke="#191970" points="209.6111,-242.5065 220.1627,-243.4625 212.5103,-236.1351 209.6111,-242.5065"/>
</g>
<!-- Node3 -->
<g id="node3" class="node">
<title>Node3</title>
<g id="a_node3"><a xlink:href="../../dc/dec/classG4PhysicalVolumeModel.html#ad5bcfea3bf8c7924dcf02706ddb3534b" target="_top" xlink:title="G4PhysicalVolumeModel\l::GetCurrentDepth">
<polygon fill="none" stroke="#000000" points="202,-192.5 202,-224.5 342,-224.5 342,-192.5 202,-192.5"/>
<text text-anchor="start" x="210" y="-211.5" font-family="FreeSans" font-size="10.00" fill="#000000">G4PhysicalVolumeModel</text>
<text text-anchor="middle" x="272" y="-199.5" font-family="FreeSans" font-size="10.00" fill="#000000">::GetCurrentDepth</text>
</a>
</g>
</g>
<!-- Node1&#45;&gt;Node3 -->
<g id="edge2" class="edge">
<title>Node1&#45;&gt;Node3</title>
<path fill="none" stroke="#191970" d="M118.1401,-147.6156C141.6928,-158.2285 173.4963,-172.1979 202,-183.5 206.4872,-185.2792 211.1577,-187.0723 215.862,-188.8371"/>
<polygon fill="#191970" stroke="#191970" points="214.9247,-192.2221 225.5179,-192.4066 217.3518,-185.6563 214.9247,-192.2221"/>
</g>
<!-- Node4 -->
<g id="node4" class="node">
<title>Node4</title>
<g id="a_node4"><a xlink:href="../../dc/dec/classG4PhysicalVolumeModel.html#a40714faee503b7fb034e8546b167313b" target="_top" xlink:title="G4PhysicalVolumeModel\l::GetCurrentMaterial">
<polygon fill="none" stroke="#000000" points="202,-141.5 202,-173.5 342,-173.5 342,-141.5 202,-141.5"/>
<text text-anchor="start" x="210" y="-160.5" font-family="FreeSans" font-size="10.00" fill="#000000">G4PhysicalVolumeModel</text>
<text text-anchor="middle" x="272" y="-148.5" font-family="FreeSans" font-size="10.00" fill="#000000">::GetCurrentMaterial</text>
</a>
</g>
</g>
<!-- Node1&#45;&gt;Node4 -->
<g id="edge3" class="edge">
<title>Node1&#45;&gt;Node4</title>
<path fill="none" stroke="#191970" d="M166.1732,-142.9418C174.6222,-144.1041 183.1938,-145.2833 191.6124,-146.4414"/>
<polygon fill="#191970" stroke="#191970" points="191.4033,-149.9455 201.7871,-147.8411 192.3574,-143.0108 191.4033,-149.9455"/>
</g>
<!-- Node5 -->
<g id="node5" class="node">
<title>Node5</title>
<g id="a_node5"><a xlink:href="../../dc/dec/classG4PhysicalVolumeModel.html#af14d717be660c4a704d8766754c55b98" target="_top" xlink:title="G4PhysicalVolumeModel\l::GetCurrentPV">
<polygon fill="none" stroke="#000000" points="202,-90.5 202,-122.5 342,-122.5 342,-90.5 202,-90.5"/>
<text text-anchor="start" x="210" y="-109.5" font-family="FreeSans" font-size="10.00" fill="#000000">G4PhysicalVolumeModel</text>
<text text-anchor="middle" x="272" y="-97.5" font-family="FreeSans" font-size="10.00" fill="#000000">::GetCurrentPV</text>
</a>
</g>
</g>
<!-- Node1&#45;&gt;Node5 -->
<g id="edge4" class="edge">
<title>Node1&#45;&gt;Node5</title>
<path fill="none" stroke="#191970" d="M166.1732,-120.4983C174.6222,-119.3807 183.1938,-118.2469 191.6124,-117.1333"/>
<polygon fill="#191970" stroke="#191970" points="192.3324,-120.5686 201.7871,-115.7874 191.4144,-113.6291 192.3324,-120.5686"/>
</g>
<!-- Node6 -->
<g id="node6" class="node">
<title>Node6</title>
<g id="a_node6"><a xlink:href="../../d5/de4/classG4Material.html#a32d5774ccabccc95879d98ec5919348b" target="_top" xlink:title="G4Material::GetDensity">
<polygon fill="none" stroke="#000000" points="204.5,-51.5 204.5,-71.5 339.5,-71.5 339.5,-51.5 204.5,-51.5"/>
<text text-anchor="middle" x="272" y="-58.5" font-family="FreeSans" font-size="10.00" fill="#000000">G4Material::GetDensity</text>
</a>
</g>
</g>
<!-- Node1&#45;&gt;Node6 -->
<g id="edge5" class="edge">
<title>Node1&#45;&gt;Node6</title>
<path fill="none" stroke="#191970" d="M118.2358,-115.3881C141.6938,-104.9877 173.3538,-91.5699 202,-81.5 208.968,-79.0506 216.4023,-76.6772 223.727,-74.4729"/>
<polygon fill="#191970" stroke="#191970" points="224.9818,-77.7525 233.5932,-71.5805 223.0124,-71.0352 224.9818,-77.7525"/>
</g>
<!-- Node7 -->
<g id="node7" class="node">
<title>Node7</title>
<g id="a_node7"><a xlink:href="../../d1/d28/classG4VPhysicalVolume.html#a58405900b1878b174d4b5630dc449d4d" target="_top" xlink:title="G4VPhysicalVolume::\lGetName">
<polygon fill="none" stroke="#000000" points="210.5,-.5 210.5,-32.5 333.5,-32.5 333.5,-.5 210.5,-.5"/>
<text text-anchor="start" x="218.5" y="-19.5" font-family="FreeSans" font-size="10.00" fill="#000000">G4VPhysicalVolume::</text>
<text text-anchor="middle" x="272" y="-7.5" font-family="FreeSans" font-size="10.00" fill="#000000">GetName</text>
</a>
</g>
</g>
<!-- Node1&#45;&gt;Node7 -->
<g id="edge6" class="edge">
<title>Node1&#45;&gt;Node7</title>
<path fill="none" stroke="#191970" d="M101.2272,-115.2207C123.6483,-95.8457 163.4881,-63.484 202,-42.5 205.714,-40.4764 209.6182,-38.5463 213.6039,-36.7187"/>
<polygon fill="#191970" stroke="#191970" points="215.2179,-39.8338 223.0005,-32.6447 212.4334,-33.4114 215.2179,-39.8338"/>
</g>
</g>
</svg>
