<?xml version="1.0" encoding="UTF-8" standalone="no"?>
<!DOCTYPE svg PUBLIC "-//W3C//DTD SVG 1.1//EN"
 "http://www.w3.org/Graphics/SVG/1.1/DTD/svg11.dtd">
<!-- Generated by graphviz version 2.40.1 (20161225.0304)
 -->
<!-- Title: G4ComponentGGNuclNuclXsc::ComputeCoulombBarier Pages: 1 -->
<svg width="1204pt" height="317pt"
 viewBox="0.00 0.00 1204.00 317.00" xmlns="http://www.w3.org/2000/svg" xmlns:xlink="http://www.w3.org/1999/xlink">
<g id="graph0" class="graph" transform="scale(1 1) rotate(0) translate(4 313)">
<title>G4ComponentGGNuclNuclXsc::ComputeCoulombBarier</title>
<!-- Node1 -->
<g id="node1" class="node">
<title>Node1</title>
<polygon fill="#bfbfbf" stroke="#000000" points="0,-51.5 0,-83.5 167,-83.5 167,-51.5 0,-51.5"/>
<text text-anchor="start" x="8" y="-70.5" font-family="FreeSans" font-size="10.00" fill="#000000">G4ComponentGGNuclNuclXsc</text>
<text text-anchor="middle" x="83.5" y="-58.5" font-family="FreeSans" font-size="10.00" fill="#000000">::ComputeCoulombBarier</text>
</g>
<!-- Node2 -->
<g id="node2" class="node">
<title>Node2</title>
<g id="a_node2"><a xlink:href="../../d3/df1/classG4NucleiProperties.html#acfcf06bdfd3034735124c76e06dd3794" target="_top" xlink:title="G4NucleiProperties\l::GetNuclearMass">
<polygon fill="none" stroke="#000000" points="204.5,-102.5 204.5,-134.5 317.5,-134.5 317.5,-102.5 204.5,-102.5"/>
<text text-anchor="start" x="212.5" y="-121.5" font-family="FreeSans" font-size="10.00" fill="#000000">G4NucleiProperties</text>
<text text-anchor="middle" x="261" y="-109.5" font-family="FreeSans" font-size="10.00" fill="#000000">::GetNuclearMass</text>
</a>
</g>
</g>
<!-- Node1&#45;&gt;Node2 -->
<g id="edge1" class="edge">
<title>Node1&#45;&gt;Node2</title>
<path fill="none" stroke="#191970" d="M139.6621,-83.6367C157.3973,-88.7325 177.1488,-94.4075 195.4783,-99.674"/>
<polygon fill="#191970" stroke="#191970" points="194.6255,-103.0706 205.2032,-102.4683 196.5587,-96.3428 194.6255,-103.0706"/>
</g>
<!-- Node17 -->
<g id="node17" class="node">
<title>Node17</title>
<g id="a_node17"><a xlink:href="../../d5/d38/classG4ParticleDefinition.html#aa751e870d4b72ded8ba24677bb6a656c" target="_top" xlink:title="G4ParticleDefinition\l::GetPDGCharge">
<polygon fill="none" stroke="#000000" points="203,-51.5 203,-83.5 319,-83.5 319,-51.5 203,-51.5"/>
<text text-anchor="start" x="211" y="-70.5" font-family="FreeSans" font-size="10.00" fill="#000000">G4ParticleDefinition</text>
<text text-anchor="middle" x="261" y="-58.5" font-family="FreeSans" font-size="10.00" fill="#000000">::GetPDGCharge</text>
</a>
</g>
</g>
<!-- Node1&#45;&gt;Node17 -->
<g id="edge16" class="edge">
<title>Node1&#45;&gt;Node17</title>
<path fill="none" stroke="#191970" d="M167.0524,-67.5C175.6825,-67.5 184.3783,-67.5 192.8119,-67.5"/>
<polygon fill="#191970" stroke="#191970" points="192.9471,-71.0001 202.947,-67.5 192.947,-64.0001 192.9471,-71.0001"/>
</g>
<!-- Node18 -->
<g id="node18" class="node">
<title>Node18</title>
<g id="a_node18"><a xlink:href="../../d5/d38/classG4ParticleDefinition.html#ad823b2f7c489766de74c562e2a3909bf" target="_top" xlink:title="G4ParticleDefinition\l::GetPDGMass">
<polygon fill="none" stroke="#000000" points="203,-.5 203,-32.5 319,-32.5 319,-.5 203,-.5"/>
<text text-anchor="start" x="211" y="-19.5" font-family="FreeSans" font-size="10.00" fill="#000000">G4ParticleDefinition</text>
<text text-anchor="middle" x="261" y="-7.5" font-family="FreeSans" font-size="10.00" fill="#000000">::GetPDGMass</text>
</a>
</g>
</g>
<!-- Node1&#45;&gt;Node18 -->
<g id="edge17" class="edge">
<title>Node1&#45;&gt;Node18</title>
<path fill="none" stroke="#191970" d="M139.6621,-51.3633C157.3973,-46.2675 177.1488,-40.5925 195.4783,-35.326"/>
<polygon fill="#191970" stroke="#191970" points="196.5587,-38.6572 205.2032,-32.5317 194.6255,-31.9294 196.5587,-38.6572"/>
</g>
<!-- Node3 -->
<g id="node3" class="node">
<title>Node3</title>
<g id="a_node3"><a xlink:href="../../d3/df1/classG4NucleiProperties.html#a84f621a35ef0b3c6cfffba0c4b4bd79c" target="_top" xlink:title="G4NucleiProperties\l::NuclearMass">
<polygon fill="none" stroke="#000000" points="355,-102.5 355,-134.5 468,-134.5 468,-102.5 355,-102.5"/>
<text text-anchor="start" x="363" y="-121.5" font-family="FreeSans" font-size="10.00" fill="#000000">G4NucleiProperties</text>
<text text-anchor="middle" x="411.5" y="-109.5" font-family="FreeSans" font-size="10.00" fill="#000000">::NuclearMass</text>
</a>
</g>
</g>
<!-- Node2&#45;&gt;Node3 -->
<g id="edge2" class="edge">
<title>Node2&#45;&gt;Node3</title>
<path fill="none" stroke="#191970" d="M317.8976,-118.5C326.513,-118.5 335.4701,-118.5 344.2788,-118.5"/>
<polygon fill="#191970" stroke="#191970" points="344.522,-122.0001 354.5219,-118.5 344.5219,-115.0001 344.522,-122.0001"/>
</g>
<!-- Node4 -->
<g id="node4" class="node">
<title>Node4</title>
<g id="a_node4"><a xlink:href="../../d8/dd3/classG4ParticleTable.html#a8bb5b636696da4abae3ca7ea0ea5af95" target="_top" xlink:title="G4ParticleTable::GetParticle\lTable">
<polygon fill="none" stroke="#000000" points="504,-138.5 504,-170.5 660,-170.5 660,-138.5 504,-138.5"/>
<text text-anchor="start" x="512" y="-157.5" font-family="FreeSans" font-size="10.00" fill="#000000">G4ParticleTable::GetParticle</text>
<text text-anchor="middle" x="582" y="-145.5" font-family="FreeSans" font-size="10.00" fill="#000000">Table</text>
</a>
</g>
</g>
<!-- Node3&#45;&gt;Node4 -->
<g id="edge3" class="edge">
<title>Node3&#45;&gt;Node4</title>
<path fill="none" stroke="#191970" d="M468.274,-130.4875C477.2612,-132.3851 486.7254,-134.3834 496.1986,-136.3836"/>
<polygon fill="#191970" stroke="#191970" points="495.5471,-139.8231 506.0545,-138.4646 496.9933,-132.9741 495.5471,-139.8231"/>
</g>
<!-- Node11 -->
<g id="node11" class="node">
<title>Node11</title>
<g id="a_node11"><a xlink:href="../../d3/df1/classG4NucleiProperties.html#aee1660bc4a3c6d59e2a1af5406410422" target="_top" xlink:title="G4NucleiProperties\l::AtomicMass">
<polygon fill="none" stroke="#000000" points="525.5,-77.5 525.5,-109.5 638.5,-109.5 638.5,-77.5 525.5,-77.5"/>
<text text-anchor="start" x="533.5" y="-96.5" font-family="FreeSans" font-size="10.00" fill="#000000">G4NucleiProperties</text>
<text text-anchor="middle" x="582" y="-84.5" font-family="FreeSans" font-size="10.00" fill="#000000">::AtomicMass</text>
</a>
</g>
</g>
<!-- Node3&#45;&gt;Node11 -->
<g id="edge10" class="edge">
<title>Node3&#45;&gt;Node11</title>
<path fill="none" stroke="#191970" d="M468.274,-110.1754C483.3725,-107.9615 499.8173,-105.5503 515.3896,-103.2669"/>
<polygon fill="#191970" stroke="#191970" points="516.0875,-106.7021 525.4739,-101.7883 515.0719,-99.7762 516.0875,-106.7021"/>
</g>
<!-- Node5 -->
<g id="node5" class="node">
<title>Node5</title>
<g id="a_node5"><a xlink:href="../../d8/dd3/classG4ParticleTable.html#aba540bf07478ff0c30af3ee28d843041" target="_top" xlink:title="G4ParticleTable::WorkerG4\lParticleTable">
<polygon fill="none" stroke="#000000" points="707.5,-157.5 707.5,-189.5 858.5,-189.5 858.5,-157.5 707.5,-157.5"/>
<text text-anchor="start" x="715.5" y="-176.5" font-family="FreeSans" font-size="10.00" fill="#000000">G4ParticleTable::WorkerG4</text>
<text text-anchor="middle" x="783" y="-164.5" font-family="FreeSans" font-size="10.00" fill="#000000">ParticleTable</text>
</a>
</g>
</g>
<!-- Node4&#45;&gt;Node5 -->
<g id="edge4" class="edge">
<title>Node4&#45;&gt;Node5</title>
<path fill="none" stroke="#191970" d="M660.2874,-161.9003C672.3437,-163.04 684.849,-164.222 697.0612,-165.3764"/>
<polygon fill="#191970" stroke="#191970" points="696.9493,-168.8814 707.2343,-166.3381 697.6081,-161.9124 696.9493,-168.8814"/>
</g>
<!-- Node6 -->
<g id="node6" class="node">
<title>Node6</title>
<g id="a_node6"><a xlink:href="../../d4/d96/classG4ParticleTableIterator.html#ae35fb8d216907e4b1614fd52f2d50f84" target="_top" xlink:title="G4ParticleTableIterator\l::reset">
<polygon fill="none" stroke="#000000" points="927,-276.5 927,-308.5 1059,-308.5 1059,-276.5 927,-276.5"/>
<text text-anchor="start" x="935" y="-295.5" font-family="FreeSans" font-size="10.00" fill="#000000">G4ParticleTableIterator</text>
<text text-anchor="middle" x="993" y="-283.5" font-family="FreeSans" font-size="10.00" fill="#000000">::reset</text>
</a>
</g>
</g>
<!-- Node5&#45;&gt;Node6 -->
<g id="edge5" class="edge">
<title>Node5&#45;&gt;Node6</title>
<path fill="none" stroke="#191970" d="M799.9167,-189.7849C822.4154,-210.6087 864.2258,-246.4804 906,-267.5 909.7114,-269.3675 913.5841,-271.1159 917.5452,-272.7498"/>
<polygon fill="#191970" stroke="#191970" points="916.3241,-276.0301 926.9139,-276.357 918.8393,-269.4976 916.3241,-276.0301"/>
</g>
<!-- Node7 -->
<g id="node7" class="node">
<title>Node7</title>
<g id="a_node7"><a xlink:href="../../d4/d96/classG4ParticleTableIterator.html#a7220383ce5a9ddecb53331a2ecdd90d5" target="_top" xlink:title="G4ParticleTableIterator\l::value">
<polygon fill="none" stroke="#000000" points="927,-225.5 927,-257.5 1059,-257.5 1059,-225.5 927,-225.5"/>
<text text-anchor="start" x="935" y="-244.5" font-family="FreeSans" font-size="10.00" fill="#000000">G4ParticleTableIterator</text>
<text text-anchor="middle" x="993" y="-232.5" font-family="FreeSans" font-size="10.00" fill="#000000">::value</text>
</a>
</g>
</g>
<!-- Node5&#45;&gt;Node7 -->
<g id="edge6" class="edge">
<title>Node5&#45;&gt;Node7</title>
<path fill="none" stroke="#191970" d="M826.9178,-189.5298C850.2944,-197.8904 879.5933,-208.0975 906,-216.5 912.3389,-218.517 918.96,-220.5505 925.5968,-222.5398"/>
<polygon fill="#191970" stroke="#191970" points="924.7182,-225.9298 935.3006,-225.4158 926.7074,-219.2184 924.7182,-225.9298"/>
</g>
<!-- Node8 -->
<g id="node8" class="node">
<title>Node8</title>
<g id="a_node8"><a xlink:href="../../d8/dd3/classG4ParticleTable.html#ad3150940809a36b87123558264d30108" target="_top" xlink:title="G4ParticleTable::GetKey">
<polygon fill="none" stroke="#000000" points="924.5,-186.5 924.5,-206.5 1061.5,-206.5 1061.5,-186.5 924.5,-186.5"/>
<text text-anchor="middle" x="993" y="-193.5" font-family="FreeSans" font-size="10.00" fill="#000000">G4ParticleTable::GetKey</text>
</a>
</g>
</g>
<!-- Node5&#45;&gt;Node8 -->
<g id="edge7" class="edge">
<title>Node5&#45;&gt;Node8</title>
<path fill="none" stroke="#191970" d="M858.5181,-181.771C876.6744,-183.7596 896.1105,-185.8883 914.4032,-187.8918"/>
<polygon fill="#191970" stroke="#191970" points="914.1112,-191.3806 924.4328,-188.9903 914.8734,-184.4223 914.1112,-191.3806"/>
</g>
<!-- Node9 -->
<g id="node9" class="node">
<title>Node9</title>
<g id="a_node9"><a xlink:href="../../d5/d38/classG4ParticleDefinition.html#af84019c7513ca66581ed8b3651934467" target="_top" xlink:title="G4ParticleDefinition\l::GetPDGEncoding">
<polygon fill="none" stroke="#000000" points="935,-135.5 935,-167.5 1051,-167.5 1051,-135.5 935,-135.5"/>
<text text-anchor="start" x="943" y="-154.5" font-family="FreeSans" font-size="10.00" fill="#000000">G4ParticleDefinition</text>
<text text-anchor="middle" x="993" y="-142.5" font-family="FreeSans" font-size="10.00" fill="#000000">::GetPDGEncoding</text>
</a>
</g>
</g>
<!-- Node5&#45;&gt;Node9 -->
<g id="edge8" class="edge">
<title>Node5&#45;&gt;Node9</title>
<path fill="none" stroke="#191970" d="M858.5181,-165.5886C880.1433,-163.3231 903.5839,-160.8674 924.7459,-158.6504"/>
<polygon fill="#191970" stroke="#191970" points="925.3526,-162.1061 934.9334,-157.5832 924.6232,-155.1442 925.3526,-162.1061"/>
</g>
<!-- Node10 -->
<g id="node10" class="node">
<title>Node10</title>
<g id="a_node10"><a xlink:href="../../da/d2b/classG4IonTable.html#a66f8ee295224ed611872572a0e47ab6e" target="_top" xlink:title="G4IonTable::WorkerG4IonTable">
<polygon fill="none" stroke="#000000" points="907.5,-96.5 907.5,-116.5 1078.5,-116.5 1078.5,-96.5 907.5,-96.5"/>
<text text-anchor="middle" x="993" y="-103.5" font-family="FreeSans" font-size="10.00" fill="#000000">G4IonTable::WorkerG4IonTable</text>
</a>
</g>
</g>
<!-- Node5&#45;&gt;Node10 -->
<g id="edge9" class="edge">
<title>Node5&#45;&gt;Node10</title>
<path fill="none" stroke="#191970" d="M821.0267,-157.3969C845.0917,-147.6008 877.0231,-135.3202 906,-126.5 915.0233,-123.7534 924.6733,-121.1824 934.142,-118.8587"/>
<polygon fill="#191970" stroke="#191970" points="934.9944,-122.2537 943.91,-116.5297 933.3709,-115.4446 934.9944,-122.2537"/>
</g>
<!-- Node12 -->
<g id="node12" class="node">
<title>Node12</title>
<g id="a_node12"><a xlink:href="../../da/d39/classG4NucleiPropertiesTableAME12.html#ad495a18931051e6c1ba10bfde6d31c97" target="_top" xlink:title="G4NucleiPropertiesTableAME12\l::GetMassExcess">
<polygon fill="none" stroke="#000000" points="696,-77.5 696,-109.5 870,-109.5 870,-77.5 696,-77.5"/>
<text text-anchor="start" x="704" y="-96.5" font-family="FreeSans" font-size="10.00" fill="#000000">G4NucleiPropertiesTableAME12</text>
<text text-anchor="middle" x="783" y="-84.5" font-family="FreeSans" font-size="10.00" fill="#000000">::GetMassExcess</text>
</a>
</g>
</g>
<!-- Node11&#45;&gt;Node12 -->
<g id="edge11" class="edge">
<title>Node11&#45;&gt;Node12</title>
<path fill="none" stroke="#191970" d="M638.5246,-93.5C653.2367,-93.5 669.515,-93.5 685.6833,-93.5"/>
<polygon fill="#191970" stroke="#191970" points="685.7211,-97.0001 695.7211,-93.5 685.7211,-90.0001 685.7211,-97.0001"/>
</g>
<!-- Node16 -->
<g id="node16" class="node">
<title>Node16</title>
<g id="a_node16"><a xlink:href="../../d3/df1/classG4NucleiProperties.html#ac66a063606af1c1d4518dcd10221eb49" target="_top" xlink:title="G4NucleiProperties\l::BindingEnergy">
<polygon fill="none" stroke="#000000" points="726.5,-26.5 726.5,-58.5 839.5,-58.5 839.5,-26.5 726.5,-26.5"/>
<text text-anchor="start" x="734.5" y="-45.5" font-family="FreeSans" font-size="10.00" fill="#000000">G4NucleiProperties</text>
<text text-anchor="middle" x="783" y="-33.5" font-family="FreeSans" font-size="10.00" fill="#000000">::BindingEnergy</text>
</a>
</g>
</g>
<!-- Node11&#45;&gt;Node16 -->
<g id="edge15" class="edge">
<title>Node11&#45;&gt;Node16</title>
<path fill="none" stroke="#191970" d="M638.5246,-79.1579C662.7164,-73.0197 691.1428,-65.807 716.3518,-59.4107"/>
<polygon fill="#191970" stroke="#191970" points="717.3712,-62.7631 726.2032,-56.9111 715.6496,-55.9781 717.3712,-62.7631"/>
</g>
<!-- Node13 -->
<g id="node13" class="node">
<title>Node13</title>
<g id="a_node13"><a xlink:href="../../da/d39/classG4NucleiPropertiesTableAME12.html#a6c90fbe73e1ff7c54df96d044efa3af7" target="_top" xlink:title="G4NucleiPropertiesTableAME12\l::GetIndex">
<polygon fill="none" stroke="#000000" points="906,-45.5 906,-77.5 1080,-77.5 1080,-45.5 906,-45.5"/>
<text text-anchor="start" x="914" y="-64.5" font-family="FreeSans" font-size="10.00" fill="#000000">G4NucleiPropertiesTableAME12</text>
<text text-anchor="middle" x="993" y="-52.5" font-family="FreeSans" font-size="10.00" fill="#000000">::GetIndex</text>
</a>
</g>
</g>
<!-- Node12&#45;&gt;Node13 -->
<g id="edge12" class="edge">
<title>Node12&#45;&gt;Node13</title>
<path fill="none" stroke="#191970" d="M870.2345,-80.2071C878.6581,-78.9235 887.2388,-77.616 895.7511,-76.3189"/>
<polygon fill="#191970" stroke="#191970" points="896.3404,-79.7696 905.699,-74.803 895.2859,-72.8494 896.3404,-79.7696"/>
</g>
<!-- Node14 -->
<g id="node14" class="node">
<title>Node14</title>
<g id="a_node14"><a xlink:href="../../d5/d4f/G4Exception_8hh.html#ad36b5da5d062a20ca47b1c1f1ae353dd" target="_top" xlink:title="G4Exception">
<polygon fill="none" stroke="#000000" points="1116,-71.5 1116,-91.5 1196,-91.5 1196,-71.5 1116,-71.5"/>
<text text-anchor="middle" x="1156" y="-78.5" font-family="FreeSans" font-size="10.00" fill="#000000">G4Exception</text>
</a>
</g>
</g>
<!-- Node13&#45;&gt;Node14 -->
<g id="edge13" class="edge">
<title>Node13&#45;&gt;Node14</title>
<path fill="none" stroke="#191970" d="M1080.2263,-72.2026C1088.9546,-73.2736 1097.5948,-74.3337 1105.744,-75.3336"/>
<polygon fill="#191970" stroke="#191970" points="1105.4214,-78.8202 1115.7732,-76.5642 1106.2739,-71.8723 1105.4214,-78.8202"/>
</g>
<!-- Node15 -->
<g id="node15" class="node">
<title>Node15</title>
<g id="a_node15"><a xlink:href="../../d8/d78/G4DNAElectronHoleRecombination_8cc.html#acd7c90d16eed59d534d702f94b65af4c" target="_top" xlink:title="A">
<polygon fill="none" stroke="#000000" points="1141.5,-32.5 1141.5,-52.5 1170.5,-52.5 1170.5,-32.5 1141.5,-32.5"/>
<text text-anchor="middle" x="1156" y="-39.5" font-family="FreeSans" font-size="10.00" fill="#000000">A</text>
</a>
</g>
</g>
<!-- Node13&#45;&gt;Node15 -->
<g id="edge14" class="edge">
<title>Node13&#45;&gt;Node15</title>
<path fill="none" stroke="#191970" d="M1080.2263,-51.3325C1098.9802,-49.1465 1117.3279,-47.0078 1131.2707,-45.3826"/>
<polygon fill="#191970" stroke="#191970" points="1131.9043,-48.8325 1141.4318,-44.1981 1131.0938,-41.8796 1131.9043,-48.8325"/>
</g>
</g>
</svg>
