<?xml version="1.0" encoding="UTF-8" standalone="no"?>
<!DOCTYPE svg PUBLIC "-//W3C//DTD SVG 1.1//EN"
 "http://www.w3.org/Graphics/SVG/1.1/DTD/svg11.dtd">
<!-- Generated by graphviz version 2.40.1 (20161225.0304)
 -->
<!-- Title: smr_initialize Pages: 1 -->
<svg width="1483pt" height="718pt"
 viewBox="0.00 0.00 1483.00 717.50" xmlns="http://www.w3.org/2000/svg" xmlns:xlink="http://www.w3.org/1999/xlink">
<g id="graph0" class="graph" transform="scale(1 1) rotate(0) translate(4 713.5)">
<title>smr_initialize</title>
<!-- Node1 -->
<g id="node1" class="node">
<title>Node1</title>
<polygon fill="#bfbfbf" stroke="#000000" points="0,-617.5 0,-637.5 83,-637.5 83,-617.5 0,-617.5"/>
<text text-anchor="middle" x="41.5" y="-624.5" font-family="FreeSans" font-size="10.00" fill="#000000">smr_initialize</text>
</g>
<!-- Node2 -->
<g id="node2" class="node">
<title>Node2</title>
<g id="a_node2"><a xlink:href="../../d6/def/classG4GIDI__map.html#a9750a65e702e882cc9a7734fafb68023" target="_top" xlink:title="G4GIDI_map::G4GIDI_map">
<polygon fill="none" stroke="#000000" points="623.5,-660.5 623.5,-680.5 773.5,-680.5 773.5,-660.5 623.5,-660.5"/>
<text text-anchor="middle" x="698.5" y="-667.5" font-family="FreeSans" font-size="10.00" fill="#000000">G4GIDI_map::G4GIDI_map</text>
</a>
</g>
</g>
<!-- Node1&#45;&gt;Node2 -->
<g id="edge1" class="edge">
<title>Node1&#45;&gt;Node2</title>
<path fill="none" stroke="#191970" d="M93.396,-634.8647C131.6376,-640.0236 184.9588,-646.6576 232,-650.5 369.7553,-661.752 530.9448,-666.8875 623.2484,-669.0628"/>
<polygon fill="#191970" stroke="#191970" points="93.4084,-631.3342 83.0275,-633.4524 92.4635,-638.2701 93.4084,-631.3342"/>
</g>
<!-- Node3 -->
<g id="node3" class="node">
<title>Node3</title>
<g id="a_node3"><a xlink:href="../../d6/d19/classG4GIDI__target.html#ad9abda532ded0d6729329d77b63e8016" target="_top" xlink:title="G4GIDI_target::init">
<polygon fill="none" stroke="#000000" points="1326.5,-582.5 1326.5,-602.5 1437.5,-602.5 1437.5,-582.5 1326.5,-582.5"/>
<text text-anchor="middle" x="1382" y="-589.5" font-family="FreeSans" font-size="10.00" fill="#000000">G4GIDI_target::init</text>
</a>
</g>
</g>
<!-- Node1&#45;&gt;Node3 -->
<g id="edge2" class="edge">
<title>Node1&#45;&gt;Node3</title>
<path fill="none" stroke="#191970" d="M69.6651,-642.1186C117.7805,-665.6949 219.4922,-709.5 311,-709.5 311,-709.5 311,-709.5 924,-709.5 1095.9312,-709.5 1293.1875,-631.1437 1359.1744,-602.6783"/>
<polygon fill="#191970" stroke="#191970" points="71.0161,-638.8814 60.5046,-637.5548 67.8946,-645.1469 71.0161,-638.8814"/>
</g>
<!-- Node4 -->
<g id="node4" class="node">
<title>Node4</title>
<g id="a_node4"><a xlink:href="../../d0/dbc/statusMessageReporting_8cc.html#aa1d44e5152b061bee959223b2d05fb23" target="_top" xlink:title="smr_new">
<polygon fill="none" stroke="#000000" points="126.5,-453.5 126.5,-473.5 188.5,-473.5 188.5,-453.5 126.5,-453.5"/>
<text text-anchor="middle" x="157.5" y="-460.5" font-family="FreeSans" font-size="10.00" fill="#000000">smr_new</text>
</a>
</g>
</g>
<!-- Node1&#45;&gt;Node4 -->
<g id="edge3" class="edge">
<title>Node1&#45;&gt;Node4</title>
<path fill="none" stroke="#191970" d="M54.6272,-608.9409C79.1417,-574.2825 131.1264,-500.7868 150.2464,-473.7551"/>
<polygon fill="#191970" stroke="#191970" points="51.6735,-607.0557 48.7563,-617.2411 57.3885,-611.098 51.6735,-607.0557"/>
</g>
<!-- Node6 -->
<g id="node6" class="node">
<title>Node6</title>
<g id="a_node6"><a xlink:href="../../d0/dbc/statusMessageReporting_8cc.html#ac7ab397f49753960a6280c00a0696f53" target="_top" xlink:title="smr_release">
<polygon fill="none" stroke="#000000" points="119,-553.5 119,-573.5 196,-573.5 196,-553.5 119,-553.5"/>
<text text-anchor="middle" x="157.5" y="-560.5" font-family="FreeSans" font-size="10.00" fill="#000000">smr_release</text>
</a>
</g>
</g>
<!-- Node1&#45;&gt;Node6 -->
<g id="edge5" class="edge">
<title>Node1&#45;&gt;Node6</title>
<path fill="none" stroke="#191970" d="M68.9273,-612.3677C90.6256,-600.3962 120.3174,-584.0145 139.2054,-573.5935"/>
<polygon fill="#191970" stroke="#191970" points="66.9455,-609.4637 59.8805,-617.359 70.3271,-615.5927 66.9455,-609.4637"/>
</g>
<!-- Node5 -->
<g id="node5" class="node">
<title>Node5</title>
<g id="a_node5"><a xlink:href="../../d0/dbc/statusMessageReporting_8cc.html#abae1f8db48cbcd77dd23c0afba96d3aa" target="_top" xlink:title="smr_clone">
<polygon fill="none" stroke="#000000" points="277,-388.5 277,-408.5 345,-408.5 345,-388.5 277,-388.5"/>
<text text-anchor="middle" x="311" y="-395.5" font-family="FreeSans" font-size="10.00" fill="#000000">smr_clone</text>
</a>
</g>
</g>
<!-- Node4&#45;&gt;Node5 -->
<g id="edge4" class="edge">
<title>Node4&#45;&gt;Node5</title>
<path fill="none" stroke="#191970" d="M179.0057,-447.6686C193.3785,-437.7468 213.0579,-425.388 232,-417.5 246.1944,-411.5891 262.6232,-407.2672 276.8105,-404.2527"/>
<polygon fill="#191970" stroke="#191970" points="176.9433,-444.8403 170.7964,-453.4697 180.983,-450.557 176.9433,-444.8403"/>
</g>
<!-- Node7 -->
<g id="node7" class="node">
<title>Node7</title>
<g id="a_node7"><a xlink:href="../../d6/def/classG4GIDI__map.html#a7cab88ef468a9aed1ef516f71113a423" target="_top" xlink:title="G4GIDI_map::~G4GIDI_map">
<polygon fill="none" stroke="#000000" points="232,-621.5 232,-641.5 390,-641.5 390,-621.5 232,-621.5"/>
<text text-anchor="middle" x="311" y="-628.5" font-family="FreeSans" font-size="10.00" fill="#000000">G4GIDI_map::~G4GIDI_map</text>
</a>
</g>
</g>
<!-- Node6&#45;&gt;Node7 -->
<g id="edge6" class="edge">
<title>Node6&#45;&gt;Node7</title>
<path fill="none" stroke="#191970" d="M178.4102,-579.6063C192.7971,-590.0079 212.72,-603.1168 232,-611.5 241.0822,-615.4491 251.1042,-618.7338 260.8731,-621.4224"/>
<polygon fill="#191970" stroke="#191970" points="180.3431,-576.6825 170.2231,-573.5462 176.1784,-582.3089 180.3431,-576.6825"/>
</g>
<!-- Node8 -->
<g id="node8" class="node">
<title>Node8</title>
<g id="a_node8"><a xlink:href="../../d6/d19/classG4GIDI__target.html#aa83857a3f7b3fd63c3d0586851907157" target="_top" xlink:title="G4GIDI_target::~G4GIDI\l_target">
<polygon fill="none" stroke="#000000" points="242,-570.5 242,-602.5 380,-602.5 380,-570.5 242,-570.5"/>
<text text-anchor="start" x="250" y="-589.5" font-family="FreeSans" font-size="10.00" fill="#000000">G4GIDI_target::~G4GIDI</text>
<text text-anchor="middle" x="311" y="-577.5" font-family="FreeSans" font-size="10.00" fill="#000000">_target</text>
</a>
</g>
</g>
<!-- Node6&#45;&gt;Node8 -->
<g id="edge7" class="edge">
<title>Node6&#45;&gt;Node8</title>
<path fill="none" stroke="#191970" d="M206.3069,-570.8131C217.5975,-572.5048 229.8225,-574.3366 241.7998,-576.1312"/>
<polygon fill="#191970" stroke="#191970" points="206.6428,-567.3244 196.2345,-569.3039 205.6055,-574.2471 206.6428,-567.3244"/>
</g>
<!-- Node9 -->
<g id="node9" class="node">
<title>Node9</title>
<g id="a_node9"><a xlink:href="../../d0/dbc/statusMessageReporting_8cc.html#a43a029cd82c830525c3b04d0d25b438a" target="_top" xlink:title="smr_free">
<polygon fill="none" stroke="#000000" points="281,-531.5 281,-551.5 341,-551.5 341,-531.5 281,-531.5"/>
<text text-anchor="middle" x="311" y="-538.5" font-family="FreeSans" font-size="10.00" fill="#000000">smr_free</text>
</a>
</g>
</g>
<!-- Node6&#45;&gt;Node9 -->
<g id="edge8" class="edge">
<title>Node6&#45;&gt;Node9</title>
<path fill="none" stroke="#191970" d="M206.431,-556.4871C230.9295,-552.9759 259.8014,-548.8379 280.9936,-545.8006"/>
<polygon fill="#191970" stroke="#191970" points="205.6368,-553.0651 196.2345,-557.9485 206.63,-559.9943 205.6368,-553.0651"/>
</g>
<!-- Node10 -->
<g id="node10" class="node">
<title>Node10</title>
<g id="a_node10"><a xlink:href="../../d0/dbc/statusMessageReporting_8cc.html#abbec9c6f3f970b5f2f106a21b9e15798" target="_top" xlink:title="smr_setReport">
<polygon fill="none" stroke="#000000" points="266,-427.5 266,-447.5 356,-447.5 356,-427.5 266,-427.5"/>
<text text-anchor="middle" x="311" y="-434.5" font-family="FreeSans" font-size="10.00" fill="#000000">smr_setReport</text>
</a>
</g>
</g>
<!-- Node6&#45;&gt;Node10 -->
<g id="edge9" class="edge">
<title>Node6&#45;&gt;Node10</title>
<path fill="none" stroke="#191970" d="M171.635,-545.0915C185.6743,-527.5976 208.4537,-501.2498 232,-482.5 249.9042,-468.2429 272.8708,-455.6997 289.421,-447.5028"/>
<polygon fill="#191970" stroke="#191970" points="168.5715,-543.3243 165.1322,-553.3454 174.0701,-547.6563 168.5715,-543.3243"/>
</g>
<!-- Node42 -->
<g id="node42" class="node">
<title>Node42</title>
<g id="a_node42"><a xlink:href="../../d0/dbc/statusMessageReporting_8cc.html#aa36626be8bd0ce281182aaa0fc7b7e1e" target="_top" xlink:title="smr_write">
<polygon fill="none" stroke="#000000" points="278.5,-492.5 278.5,-512.5 343.5,-512.5 343.5,-492.5 278.5,-492.5"/>
<text text-anchor="middle" x="311" y="-499.5" font-family="FreeSans" font-size="10.00" fill="#000000">smr_write</text>
</a>
</g>
</g>
<!-- Node6&#45;&gt;Node42 -->
<g id="edge46" class="edge">
<title>Node6&#45;&gt;Node42</title>
<path fill="none" stroke="#191970" d="M181.2228,-547.8784C195.4587,-539.0851 214.2043,-528.4984 232,-521.5 246.8343,-515.6662 263.965,-511.2806 278.4745,-508.2014"/>
<polygon fill="#191970" stroke="#191970" points="179.1592,-545.0422 172.5744,-553.3422 182.898,-550.9601 179.1592,-545.0422"/>
</g>
<!-- Node11 -->
<g id="node11" class="node">
<title>Node11</title>
<g id="a_node11"><a xlink:href="../../d0/dbc/statusMessageReporting_8cc.html#ab7776092efdeffbab11ca79747a8b6a5" target="_top" xlink:title="smr_setReportInfo">
<polygon fill="none" stroke="#000000" points="440,-240.5 440,-260.5 548,-260.5 548,-240.5 440,-240.5"/>
<text text-anchor="middle" x="494" y="-247.5" font-family="FreeSans" font-size="10.00" fill="#000000">smr_setReportInfo</text>
</a>
</g>
</g>
<!-- Node10&#45;&gt;Node11 -->
<g id="edge10" class="edge">
<title>Node10&#45;&gt;Node11</title>
<path fill="none" stroke="#191970" d="M366.0568,-431.7778C374.9701,-428.6889 383.4189,-424.1429 390,-417.5 437.6439,-369.4087 378.9489,-318.1715 426,-269.5 429.919,-265.446 434.6252,-262.2355 439.7091,-259.6962"/>
<polygon fill="#191970" stroke="#191970" points="364.9146,-428.4642 356.2689,-434.5881 366.8465,-435.1924 364.9146,-428.4642"/>
</g>
<!-- Node12 -->
<g id="node12" class="node">
<title>Node12</title>
<g id="a_node12"><a xlink:href="../../d0/dbc/statusMessageReporting_8cc.html#a6c7331e11a7bb6c0dd323f5b06377279" target="_top" xlink:title="smr_vsetReportInfo">
<polygon fill="none" stroke="#000000" points="437,-486.5 437,-506.5 551,-506.5 551,-486.5 437,-486.5"/>
<text text-anchor="middle" x="494" y="-493.5" font-family="FreeSans" font-size="10.00" fill="#000000">smr_vsetReportInfo</text>
</a>
</g>
</g>
<!-- Node10&#45;&gt;Node12 -->
<g id="edge11" class="edge">
<title>Node10&#45;&gt;Node12</title>
<path fill="none" stroke="#191970" d="M349.1778,-450.8842C371.4997,-458.6001 400.2623,-468.3546 426,-476.5 436.6762,-479.8788 448.3546,-483.3826 458.9737,-486.4957"/>
<polygon fill="#191970" stroke="#191970" points="350.3167,-447.5747 339.7219,-447.6045 348.0229,-454.1882 350.3167,-447.5747"/>
</g>
<!-- Node13 -->
<g id="node13" class="node">
<title>Node13</title>
<g id="a_node13"><a xlink:href="../../d0/dbc/statusMessageReporting_8cc.html#a74269c253afa5c0ffabf710e66c53f89" target="_top" xlink:title="smr_setReportWarning">
<polygon fill="none" stroke="#000000" points="429,-447.5 429,-467.5 559,-467.5 559,-447.5 429,-447.5"/>
<text text-anchor="middle" x="494" y="-454.5" font-family="FreeSans" font-size="10.00" fill="#000000">smr_setReportWarning</text>
</a>
</g>
</g>
<!-- Node10&#45;&gt;Node13 -->
<g id="edge12" class="edge">
<title>Node10&#45;&gt;Node13</title>
<path fill="none" stroke="#191970" d="M366.2856,-443.5421C386.0169,-445.6986 408.4273,-448.1478 428.9074,-450.386"/>
<polygon fill="#191970" stroke="#191970" points="366.5571,-440.0511 356.236,-442.4438 365.7965,-447.0096 366.5571,-440.0511"/>
</g>
<!-- Node14 -->
<g id="node14" class="node">
<title>Node14</title>
<g id="a_node14"><a xlink:href="../../d0/dbc/statusMessageReporting_8cc.html#a8f1c01501c55930e95bad6692b5dcf2b" target="_top" xlink:title="smr_vsetReportWarning">
<polygon fill="none" stroke="#000000" points="426,-408.5 426,-428.5 562,-428.5 562,-408.5 426,-408.5"/>
<text text-anchor="middle" x="494" y="-415.5" font-family="FreeSans" font-size="10.00" fill="#000000">smr_vsetReportWarning</text>
</a>
</g>
</g>
<!-- Node10&#45;&gt;Node14 -->
<g id="edge13" class="edge">
<title>Node10&#45;&gt;Node14</title>
<path fill="none" stroke="#191970" d="M366.3564,-431.7526C385.0628,-429.8104 406.1706,-427.6189 425.7559,-425.5855"/>
<polygon fill="#191970" stroke="#191970" points="365.821,-428.2893 356.236,-432.8034 366.544,-435.2519 365.821,-428.2893"/>
</g>
<!-- Node15 -->
<g id="node15" class="node">
<title>Node15</title>
<g id="a_node15"><a xlink:href="../../d0/dbc/statusMessageReporting_8cc.html#ab9107a54c38a02ac168fc8e3dcc5c7e7" target="_top" xlink:title="smr_setReportError">
<polygon fill="none" stroke="#000000" points="437,-279.5 437,-299.5 551,-299.5 551,-279.5 437,-279.5"/>
<text text-anchor="middle" x="494" y="-286.5" font-family="FreeSans" font-size="10.00" fill="#000000">smr_setReportError</text>
</a>
</g>
</g>
<!-- Node10&#45;&gt;Node15 -->
<g id="edge14" class="edge">
<title>Node10&#45;&gt;Node15</title>
<path fill="none" stroke="#191970" d="M365.9476,-429.4409C374.5071,-426.583 382.8653,-422.7198 390,-417.5 414.4861,-399.5857 407.3217,-383.4084 426,-359.5 443.9409,-336.5355 468.47,-312.8305 482.6356,-299.7465"/>
<polygon fill="#191970" stroke="#191970" points="364.8782,-426.1068 356.2527,-432.2591 366.8322,-432.8286 364.8782,-426.1068"/>
</g>
<!-- Node41 -->
<g id="node41" class="node">
<title>Node41</title>
<g id="a_node41"><a xlink:href="../../d0/dbc/statusMessageReporting_8cc.html#a006f3fa2be02dbb96fce350ce407aaf2" target="_top" xlink:title="smr_vsetReportError">
<polygon fill="none" stroke="#000000" points="434,-369.5 434,-389.5 554,-389.5 554,-369.5 434,-369.5"/>
<text text-anchor="middle" x="494" y="-376.5" font-family="FreeSans" font-size="10.00" fill="#000000">smr_vsetReportError</text>
</a>
</g>
</g>
<!-- Node10&#45;&gt;Node41 -->
<g id="edge44" class="edge">
<title>Node10&#45;&gt;Node41</title>
<path fill="none" stroke="#191970" d="M366.1004,-425.3461C374.2135,-423.0411 382.3947,-420.4218 390,-417.5 406.8883,-411.012 409.1925,-405.1945 426,-398.5 434.4269,-395.1436 443.6638,-392.14 452.5385,-389.5657"/>
<polygon fill="#191970" stroke="#191970" points="365.0209,-422.0122 356.2811,-428.0012 366.8481,-428.7696 365.0209,-422.0122"/>
</g>
<!-- Node16 -->
<g id="node16" class="node">
<title>Node16</title>
<g id="a_node16"><a xlink:href="../../df/d91/MCGIDI__misc_8cc.html#a9748d026dbf630b100331a4e7086ab39" target="_top" xlink:title="MCGIDI_misc_pointerToTOMAttribute\lIfAllOk">
<polygon fill="none" stroke="#000000" points="598,-273.5 598,-305.5 799,-305.5 799,-273.5 598,-273.5"/>
<text text-anchor="start" x="606" y="-292.5" font-family="FreeSans" font-size="10.00" fill="#000000">MCGIDI_misc_pointerToTOMAttribute</text>
<text text-anchor="middle" x="698.5" y="-280.5" font-family="FreeSans" font-size="10.00" fill="#000000">IfAllOk</text>
</a>
</g>
</g>
<!-- Node15&#45;&gt;Node16 -->
<g id="edge15" class="edge">
<title>Node15&#45;&gt;Node16</title>
<path fill="none" stroke="#191970" d="M561.3302,-289.5C573.0402,-289.5 585.4447,-289.5 597.8185,-289.5"/>
<polygon fill="#191970" stroke="#191970" points="561.2366,-286.0001 551.2366,-289.5 561.2365,-293.0001 561.2366,-286.0001"/>
</g>
<!-- Node17 -->
<g id="node17" class="node">
<title>Node17</title>
<g id="a_node17"><a xlink:href="../../df/d91/MCGIDI__misc_8cc.html#afd186ec055597f71686ee4f6a325fdcf" target="_top" xlink:title="MCGIDI_misc_pointerToAttribute\lIfAllOk">
<polygon fill="none" stroke="#000000" points="835,-363.5 835,-395.5 1013,-395.5 1013,-363.5 835,-363.5"/>
<text text-anchor="start" x="843" y="-382.5" font-family="FreeSans" font-size="10.00" fill="#000000">MCGIDI_misc_pointerToAttribute</text>
<text text-anchor="middle" x="924" y="-370.5" font-family="FreeSans" font-size="10.00" fill="#000000">IfAllOk</text>
</a>
</g>
</g>
<!-- Node15&#45;&gt;Node17 -->
<g id="edge16" class="edge">
<title>Node15&#45;&gt;Node17</title>
<path fill="none" stroke="#191970" d="M543.7261,-301.9269C560.8842,-306.0888 580.2512,-310.6468 598,-314.5 686.9279,-333.8059 709.785,-335.5673 799,-353.5 814.7551,-356.6669 831.6119,-360.1253 847.6828,-363.4562"/>
<polygon fill="#191970" stroke="#191970" points="544.4527,-298.5016 533.9079,-299.5306 542.7928,-305.302 544.4527,-298.5016"/>
</g>
<!-- Node18 -->
<g id="node18" class="node">
<title>Node18</title>
<g id="a_node18"><a xlink:href="../../df/d91/MCGIDI__misc_8cc.html#a90798ea510c7db77d294f0793abe5c34" target="_top" xlink:title="MCGIDI_misc_setMessageError\l_Element">
<polygon fill="none" stroke="#000000" points="613,-363.5 613,-395.5 784,-395.5 784,-363.5 613,-363.5"/>
<text text-anchor="start" x="621" y="-382.5" font-family="FreeSans" font-size="10.00" fill="#000000">MCGIDI_misc_setMessageError</text>
<text text-anchor="middle" x="698.5" y="-370.5" font-family="FreeSans" font-size="10.00" fill="#000000">_Element</text>
</a>
</g>
</g>
<!-- Node15&#45;&gt;Node18 -->
<g id="edge17" class="edge">
<title>Node15&#45;&gt;Node18</title>
<path fill="none" stroke="#191970" d="M518.0127,-305.1144C538.6113,-318.0161 569.4087,-336.1543 598,-348.5 610.9914,-354.1097 625.3276,-359.164 639.0036,-363.485"/>
<polygon fill="#191970" stroke="#191970" points="519.6299,-301.9955 509.3106,-299.5947 515.8804,-307.9067 519.6299,-301.9955"/>
</g>
<!-- Node25 -->
<g id="node25" class="node">
<title>Node25</title>
<g id="a_node25"><a xlink:href="../../d1/dd1/PoPs_8cc.html#a0da54a5ce5539a0cc498b0ff74f277f9" target="_top" xlink:title="PoPs_particleIndex_smr">
<polygon fill="none" stroke="#000000" points="631,-234.5 631,-254.5 766,-254.5 766,-234.5 631,-234.5"/>
<text text-anchor="middle" x="698.5" y="-241.5" font-family="FreeSans" font-size="10.00" fill="#000000">PoPs_particleIndex_smr</text>
</a>
</g>
</g>
<!-- Node15&#45;&gt;Node25 -->
<g id="edge26" class="edge">
<title>Node15&#45;&gt;Node25</title>
<path fill="none" stroke="#191970" d="M541.9388,-276.8963C559.519,-272.4381 579.6121,-267.5331 598,-263.5 612.3094,-260.3615 627.8333,-257.2726 642.303,-254.5273"/>
<polygon fill="#191970" stroke="#191970" points="540.7318,-273.5922 531.9101,-279.4597 542.4654,-280.3742 540.7318,-273.5922"/>
</g>
<!-- Node35 -->
<g id="node35" class="node">
<title>Node35</title>
<g id="a_node35"><a xlink:href="../../d0/dbc/statusMessageReporting_8cc.html#af2c4eca0cde6ce6f3d40436d840903d3" target="_top" xlink:title="smr_realloc">
<polygon fill="none" stroke="#000000" points="661.5,-195.5 661.5,-215.5 735.5,-215.5 735.5,-195.5 661.5,-195.5"/>
<text text-anchor="middle" x="698.5" y="-202.5" font-family="FreeSans" font-size="10.00" fill="#000000">smr_realloc</text>
</a>
</g>
</g>
<!-- Node15&#45;&gt;Node35 -->
<g id="edge38" class="edge">
<title>Node15&#45;&gt;Node35</title>
<path fill="none" stroke="#191970" d="M551.477,-275.4428C555.1571,-273.685 558.7031,-271.7125 562,-269.5 583.2674,-255.2278 576.0511,-237.7002 598,-224.5 617.0213,-213.0605 641.4282,-208.2624 661.4263,-206.3474"/>
<polygon fill="#191970" stroke="#191970" points="549.9762,-272.2771 542.1192,-279.3846 552.6937,-278.7281 549.9762,-272.2771"/>
</g>
<!-- Node38 -->
<g id="node38" class="node">
<title>Node38</title>
<g id="a_node38"><a xlink:href="../../d0/dbc/statusMessageReporting_8cc.html#a6dc2623f2a6078ad96bb084657fcee59" target="_top" xlink:title="smr_allocateCopyString">
<polygon fill="none" stroke="#000000" points="630.5,-53.5 630.5,-73.5 766.5,-73.5 766.5,-53.5 630.5,-53.5"/>
<text text-anchor="middle" x="698.5" y="-60.5" font-family="FreeSans" font-size="10.00" fill="#000000">smr_allocateCopyString</text>
</a>
</g>
</g>
<!-- Node15&#45;&gt;Node38 -->
<g id="edge41" class="edge">
<title>Node15&#45;&gt;Node38</title>
<path fill="none" stroke="#191970" d="M556.8275,-274.0492C558.6615,-272.6594 560.3948,-271.1466 562,-269.5 605.3467,-225.0359 562.5199,-185.4624 598,-134.5 617.7738,-106.0976 652.7668,-85.21 675.7987,-73.6999"/>
<polygon fill="#191970" stroke="#191970" points="554.8767,-271.1406 548.2256,-279.3876 558.5679,-277.0883 554.8767,-271.1406"/>
</g>
<!-- Node40 -->
<g id="node40" class="node">
<title>Node40</title>
<g id="a_node40"><a xlink:href="../../d0/def/xDataTOM__Misc_8cc.html#a6e301beb57fc5a243021ed4d831be151" target="_top" xlink:title="xDataTOM_setMessageError\l_ReturnInt">
<polygon fill="none" stroke="#000000" points="619,-144.5 619,-176.5 778,-176.5 778,-144.5 619,-144.5"/>
<text text-anchor="start" x="627" y="-163.5" font-family="FreeSans" font-size="10.00" fill="#000000">xDataTOM_setMessageError</text>
<text text-anchor="middle" x="698.5" y="-151.5" font-family="FreeSans" font-size="10.00" fill="#000000">_ReturnInt</text>
</a>
</g>
</g>
<!-- Node15&#45;&gt;Node40 -->
<g id="edge43" class="edge">
<title>Node15&#45;&gt;Node40</title>
<path fill="none" stroke="#191970" d="M555.544,-274.3972C557.8213,-272.9147 559.9869,-271.287 562,-269.5 592.3758,-242.5354 567.0615,-211.817 598,-185.5 604.1628,-180.2577 611.2644,-176.086 618.7843,-172.7704"/>
<polygon fill="#191970" stroke="#191970" points="553.4075,-271.5748 546.2928,-279.4255 556.7503,-277.7251 553.4075,-271.5748"/>
</g>
<!-- Node18&#45;&gt;Node17 -->
<g id="edge18" class="edge">
<title>Node18&#45;&gt;Node17</title>
<path fill="none" stroke="#191970" d="M794.2615,-379.5C807.6851,-379.5 821.4376,-379.5 834.7341,-379.5"/>
<polygon fill="#191970" stroke="#191970" points="794.0735,-376.0001 784.0734,-379.5 794.0734,-383.0001 794.0735,-376.0001"/>
</g>
<!-- Node19 -->
<g id="node19" class="node">
<title>Node19</title>
<g id="a_node19"><a xlink:href="../../d0/d24/MCGIDI__target_8cc.html#aceade9a3c57ad1b495684ce80626d3d1" target="_top" xlink:title="MCGIDI_target_read">
<polygon fill="none" stroke="#000000" points="866,-414.5 866,-434.5 982,-434.5 982,-414.5 866,-414.5"/>
<text text-anchor="middle" x="924" y="-421.5" font-family="FreeSans" font-size="10.00" fill="#000000">MCGIDI_target_read</text>
</a>
</g>
</g>
<!-- Node18&#45;&gt;Node19 -->
<g id="edge19" class="edge">
<title>Node18&#45;&gt;Node19</title>
<path fill="none" stroke="#191970" d="M789.0712,-397.5741C817.9448,-403.336 848.8387,-409.5011 873.7693,-414.4761"/>
<polygon fill="#191970" stroke="#191970" points="789.4473,-394.0802 778.9556,-395.5555 788.0773,-400.9448 789.4473,-394.0802"/>
</g>
<!-- Node20 -->
<g id="node20" class="node">
<title>Node20</title>
<g id="a_node20"><a xlink:href="../../d0/d24/MCGIDI__target_8cc.html#aaafb33a4730d63f1a901e27b04186c45" target="_top" xlink:title="MCGIDI_target_newRead">
<polygon fill="none" stroke="#000000" points="1081,-402.5 1081,-422.5 1221,-422.5 1221,-402.5 1081,-402.5"/>
<text text-anchor="middle" x="1151" y="-409.5" font-family="FreeSans" font-size="10.00" fill="#000000">MCGIDI_target_newRead</text>
</a>
</g>
</g>
<!-- Node19&#45;&gt;Node20 -->
<g id="edge20" class="edge">
<title>Node19&#45;&gt;Node20</title>
<path fill="none" stroke="#191970" d="M992.2644,-420.8913C1020.2641,-419.4111 1052.6551,-417.6988 1080.8472,-416.2085"/>
<polygon fill="#191970" stroke="#191970" points="991.9646,-417.4022 982.1634,-421.4253 992.3342,-424.3924 991.9646,-417.4022"/>
</g>
<!-- Node23 -->
<g id="node23" class="node">
<title>Node23</title>
<g id="a_node23"><a xlink:href="../../d0/d24/MCGIDI__target_8cc.html#a4560dca48e241a7fb5e51e49e283c8a8" target="_top" xlink:title="MCGIDI_target_readFromMap">
<polygon fill="none" stroke="#000000" points="1069.5,-363.5 1069.5,-383.5 1232.5,-383.5 1232.5,-363.5 1069.5,-363.5"/>
<text text-anchor="middle" x="1151" y="-370.5" font-family="FreeSans" font-size="10.00" fill="#000000">MCGIDI_target_readFromMap</text>
</a>
</g>
</g>
<!-- Node19&#45;&gt;Node23 -->
<g id="edge24" class="edge">
<title>Node19&#45;&gt;Node23</title>
<path fill="none" stroke="#191970" d="M982.7354,-412.1822C992.8723,-409.8053 1003.2736,-407.2065 1013,-404.5 1029.2482,-399.9787 1032.6712,-396.7209 1049,-392.5 1061.9926,-389.1415 1076.0615,-386.1286 1089.4799,-383.5447"/>
<polygon fill="#191970" stroke="#191970" points="981.6848,-408.8322 972.7214,-414.4809 983.251,-415.6548 981.6848,-408.8322"/>
</g>
<!-- Node24 -->
<g id="node24" class="node">
<title>Node24</title>
<g id="a_node24"><a xlink:href="../../d0/d24/MCGIDI__target_8cc.html#aa4199e5c62d5cadb67be229a06a9e34c" target="_top" xlink:title="MCGIDI_target_readFromMap\lViaPoPIDs">
<polygon fill="none" stroke="#000000" points="1069.5,-441.5 1069.5,-473.5 1232.5,-473.5 1232.5,-441.5 1069.5,-441.5"/>
<text text-anchor="start" x="1077.5" y="-460.5" font-family="FreeSans" font-size="10.00" fill="#000000">MCGIDI_target_readFromMap</text>
<text text-anchor="middle" x="1151" y="-448.5" font-family="FreeSans" font-size="10.00" fill="#000000">ViaPoPIDs</text>
</a>
</g>
</g>
<!-- Node19&#45;&gt;Node24 -->
<g id="edge25" class="edge">
<title>Node19&#45;&gt;Node24</title>
<path fill="none" stroke="#191970" d="M992.3481,-434.4361C1016.6208,-437.9647 1044.185,-441.9718 1069.4499,-445.6447"/>
<polygon fill="#191970" stroke="#191970" points="992.5629,-430.9306 982.1634,-432.9555 991.5558,-437.8578 992.5629,-430.9306"/>
</g>
<!-- Node20&#45;&gt;Node3 -->
<g id="edge21" class="edge">
<title>Node20&#45;&gt;Node3</title>
<path fill="none" stroke="#191970" d="M1230.7799,-421.5537C1238.5785,-424.1291 1246.134,-427.3868 1253,-431.5 1317.2162,-469.9696 1362.5604,-552.9352 1377.0457,-582.1024"/>
<polygon fill="#191970" stroke="#191970" points="1231.7573,-418.193 1221.1765,-418.7392 1229.7885,-424.9105 1231.7573,-418.193"/>
</g>
<!-- Node21 -->
<g id="node21" class="node">
<title>Node21</title>
<g id="a_node21"><a xlink:href="../../d0/d24/MCGIDI__target_8cc.html#a829194d1b0216594e41504b4a5071648" target="_top" xlink:title="MCGIDI_target_newReadFromMap">
<polygon fill="none" stroke="#000000" points="1289,-416.5 1289,-436.5 1475,-436.5 1475,-416.5 1289,-416.5"/>
<text text-anchor="middle" x="1382" y="-423.5" font-family="FreeSans" font-size="10.00" fill="#000000">MCGIDI_target_newReadFromMap</text>
</a>
</g>
</g>
<!-- Node20&#45;&gt;Node21 -->
<g id="edge22" class="edge">
<title>Node20&#45;&gt;Node21</title>
<path fill="none" stroke="#191970" d="M1231.3677,-417.3708C1249.8526,-418.4911 1269.6643,-419.6918 1288.6469,-420.8422"/>
<polygon fill="#191970" stroke="#191970" points="1231.4419,-413.8689 1221.2485,-416.7575 1231.0184,-420.8561 1231.4419,-413.8689"/>
</g>
<!-- Node22 -->
<g id="node22" class="node">
<title>Node22</title>
<g id="a_node22"><a xlink:href="../../d0/d24/MCGIDI__target_8cc.html#a4a5295fc164f2a595e31633df6421077" target="_top" xlink:title="MCGIDI_target_newReadFrom\lMapViaPoPIDs">
<polygon fill="none" stroke="#000000" points="1299.5,-365.5 1299.5,-397.5 1464.5,-397.5 1464.5,-365.5 1299.5,-365.5"/>
<text text-anchor="start" x="1307.5" y="-384.5" font-family="FreeSans" font-size="10.00" fill="#000000">MCGIDI_target_newReadFrom</text>
<text text-anchor="middle" x="1382" y="-372.5" font-family="FreeSans" font-size="10.00" fill="#000000">MapViaPoPIDs</text>
</a>
</g>
</g>
<!-- Node20&#45;&gt;Node22 -->
<g id="edge23" class="edge">
<title>Node20&#45;&gt;Node22</title>
<path fill="none" stroke="#191970" d="M1231.1912,-401.7384C1253.148,-398.7918 1276.9883,-395.5925 1299.0938,-392.6259"/>
<polygon fill="#191970" stroke="#191970" points="1230.6941,-398.2737 1221.2485,-403.0727 1231.6252,-405.2115 1230.6941,-398.2737"/>
</g>
<!-- Node26 -->
<g id="node26" class="node">
<title>Node26</title>
<g id="a_node26"><a xlink:href="../../d1/dd1/PoPs_8cc.html#a5dc7cb351804e061cab6e352761565a6" target="_top" xlink:title="PoPs_getAtomsIndex">
<polygon fill="none" stroke="#000000" points="1090.5,-182.5 1090.5,-202.5 1211.5,-202.5 1211.5,-182.5 1090.5,-182.5"/>
<text text-anchor="middle" x="1151" y="-189.5" font-family="FreeSans" font-size="10.00" fill="#000000">PoPs_getAtomsIndex</text>
</a>
</g>
</g>
<!-- Node25&#45;&gt;Node26 -->
<g id="edge27" class="edge">
<title>Node25&#45;&gt;Node26</title>
<path fill="none" stroke="#191970" d="M775.7273,-237.0763C784.1145,-234.0256 792.0966,-229.9403 799,-224.5 828.9882,-200.8677 802.8389,-167.0777 835,-146.5 932.8334,-83.903 1082.1701,-154.5664 1133.1934,-182.3024"/>
<polygon fill="#191970" stroke="#191970" points="774.6104,-233.7585 766.1216,-240.0982 776.7111,-240.4359 774.6104,-233.7585"/>
</g>
<!-- Node27 -->
<g id="node27" class="node">
<title>Node27</title>
<g id="a_node27"><a xlink:href="../../d1/dd1/PoPs_8cc.html#a2d14fce56427ed9ae47cf0557ff354d0" target="_top" xlink:title="PoPs_getAtomsIndex\l_atIndex">
<polygon fill="none" stroke="#000000" points="863.5,-273.5 863.5,-305.5 984.5,-305.5 984.5,-273.5 863.5,-273.5"/>
<text text-anchor="start" x="871.5" y="-292.5" font-family="FreeSans" font-size="10.00" fill="#000000">PoPs_getAtomsIndex</text>
<text text-anchor="middle" x="924" y="-280.5" font-family="FreeSans" font-size="10.00" fill="#000000">_atIndex</text>
</a>
</g>
</g>
<!-- Node25&#45;&gt;Node27 -->
<g id="edge28" class="edge">
<title>Node25&#45;&gt;Node27</title>
<path fill="none" stroke="#191970" d="M762.5589,-256.4298C774.6705,-258.7366 787.2298,-261.1635 799,-263.5 819.9807,-267.6649 842.9056,-272.3843 863.3278,-276.6483"/>
<polygon fill="#191970" stroke="#191970" points="762.9948,-252.9501 752.5176,-254.5249 761.6901,-259.8275 762.9948,-252.9501"/>
</g>
<!-- Node29 -->
<g id="node29" class="node">
<title>Node29</title>
<g id="a_node29"><a xlink:href="../../d1/dd1/PoPs_8cc.html#ac53edb4174031a1ed6f33f0b1564a338" target="_top" xlink:title="PoPs_getAtomsName">
<polygon fill="none" stroke="#000000" points="1321,-310.5 1321,-330.5 1443,-330.5 1443,-310.5 1321,-310.5"/>
<text text-anchor="middle" x="1382" y="-317.5" font-family="FreeSans" font-size="10.00" fill="#000000">PoPs_getAtomsName</text>
</a>
</g>
</g>
<!-- Node25&#45;&gt;Node29 -->
<g id="edge32" class="edge">
<title>Node25&#45;&gt;Node29</title>
<path fill="none" stroke="#191970" d="M775.8188,-252.7124C784.005,-255.4238 791.9151,-258.9439 799,-263.5 822.3361,-278.5068 810.4361,-301.6007 835,-314.5 917.7162,-357.937 1196.3885,-338.1506 1320.9524,-326.6649"/>
<polygon fill="#191970" stroke="#191970" points="776.6948,-249.3222 766.115,-249.8872 774.7379,-256.0431 776.6948,-249.3222"/>
</g>
<!-- Node30 -->
<g id="node30" class="node">
<title>Node30</title>
<g id="a_node30"><a xlink:href="../../d1/dd1/PoPs_8cc.html#a523f5b398e280ce655228b1266954a2c" target="_top" xlink:title="PoPs_getGenre">
<polygon fill="none" stroke="#000000" points="878.5,-234.5 878.5,-254.5 969.5,-254.5 969.5,-234.5 878.5,-234.5"/>
<text text-anchor="middle" x="924" y="-241.5" font-family="FreeSans" font-size="10.00" fill="#000000">PoPs_getGenre</text>
</a>
</g>
</g>
<!-- Node25&#45;&gt;Node30 -->
<g id="edge33" class="edge">
<title>Node25&#45;&gt;Node30</title>
<path fill="none" stroke="#191970" d="M776.5175,-244.5C810.4305,-244.5 848.9894,-244.5 878.1735,-244.5"/>
<polygon fill="#191970" stroke="#191970" points="776.1575,-241.0001 766.1574,-244.5 776.1574,-248.0001 776.1575,-241.0001"/>
</g>
<!-- Node31 -->
<g id="node31" class="node">
<title>Node31</title>
<g id="a_node31"><a xlink:href="../../d1/dd1/PoPs_8cc.html#aeda3ca29760e545cdca0df4f0344b8ae" target="_top" xlink:title="PoPs_getMassInUnitOf">
<polygon fill="none" stroke="#000000" points="860,-195.5 860,-215.5 988,-215.5 988,-195.5 860,-195.5"/>
<text text-anchor="middle" x="924" y="-202.5" font-family="FreeSans" font-size="10.00" fill="#000000">PoPs_getMassInUnitOf</text>
</a>
</g>
</g>
<!-- Node25&#45;&gt;Node31 -->
<g id="edge34" class="edge">
<title>Node25&#45;&gt;Node31</title>
<path fill="none" stroke="#191970" d="M766.6651,-232.7109C798.4098,-227.2207 835.7751,-220.7584 866.1249,-215.5094"/>
<polygon fill="#191970" stroke="#191970" points="765.8291,-229.3035 756.5719,-234.4565 767.0221,-236.2011 765.8291,-229.3035"/>
</g>
<!-- Node32 -->
<g id="node32" class="node">
<title>Node32</title>
<g id="a_node32"><a xlink:href="../../d1/dd1/PoPs_8cc.html#a2da5a965b25166c97ec970031fa012d6" target="_top" xlink:title="PoPs_getZ_A_l">
<polygon fill="none" stroke="#000000" points="880.5,-156.5 880.5,-176.5 967.5,-176.5 967.5,-156.5 880.5,-156.5"/>
<text text-anchor="middle" x="924" y="-163.5" font-family="FreeSans" font-size="10.00" fill="#000000">PoPs_getZ_A_l</text>
</a>
</g>
</g>
<!-- Node25&#45;&gt;Node32 -->
<g id="edge35" class="edge">
<title>Node25&#45;&gt;Node32</title>
<path fill="none" stroke="#191970" d="M775.6446,-234.4032C783.7992,-231.8107 791.7501,-228.564 799,-224.5 819.5768,-212.9657 814.5038,-197.1769 835,-185.5 848.728,-177.679 865.3113,-173.069 880.4245,-170.3548"/>
<polygon fill="#191970" stroke="#191970" points="774.6623,-231.0437 766.0082,-237.1557 776.5849,-237.7745 774.6623,-231.0437"/>
</g>
<!-- Node33 -->
<g id="node33" class="node">
<title>Node33</title>
<g id="a_node33"><a xlink:href="../../d1/dd1/PoPs_8cc.html#a9bb4f0f9f5ac01aeb5f8b77cf2c5761c" target="_top" xlink:title="PoPs_hasNucleus">
<polygon fill="none" stroke="#000000" points="872.5,-78.5 872.5,-98.5 975.5,-98.5 975.5,-78.5 872.5,-78.5"/>
<text text-anchor="middle" x="924" y="-85.5" font-family="FreeSans" font-size="10.00" fill="#000000">PoPs_hasNucleus</text>
</a>
</g>
</g>
<!-- Node25&#45;&gt;Node33 -->
<g id="edge36" class="edge">
<title>Node25&#45;&gt;Node33</title>
<path fill="none" stroke="#191970" d="M775.8338,-238.0674C784.3117,-234.8618 792.2868,-230.4693 799,-224.5 837.7573,-190.0377 797.6052,-149.4361 835,-113.5 845.1834,-103.7138 858.8824,-97.7015 872.4766,-94.0249"/>
<polygon fill="#191970" stroke="#191970" points="774.536,-234.8082 766.0887,-241.2031 776.6802,-241.4717 774.536,-234.8082"/>
</g>
<!-- Node27&#45;&gt;Node26 -->
<g id="edge29" class="edge">
<title>Node27&#45;&gt;Node26</title>
<path fill="none" stroke="#191970" d="M994.6856,-270.2025C1000.9317,-268.0909 1007.1132,-265.8492 1013,-263.5 1058.294,-245.4248 1108.5247,-217.4166 1134.0691,-202.557"/>
<polygon fill="#191970" stroke="#191970" points="993.2718,-266.982 984.85,-273.4104 995.4424,-273.637 993.2718,-266.982"/>
</g>
<!-- Node28 -->
<g id="node28" class="node">
<title>Node28</title>
<g id="a_node28"><a xlink:href="../../d1/dd1/PoPs_8cc.html#a8cf30926559643b6688b5741972e5cf0" target="_top" xlink:title="PoPs_getAtomsName_atIndex">
<polygon fill="none" stroke="#000000" points="1068.5,-282.5 1068.5,-302.5 1233.5,-302.5 1233.5,-282.5 1068.5,-282.5"/>
<text text-anchor="middle" x="1151" y="-289.5" font-family="FreeSans" font-size="10.00" fill="#000000">PoPs_getAtomsName_atIndex</text>
</a>
</g>
</g>
<!-- Node27&#45;&gt;Node28 -->
<g id="edge30" class="edge">
<title>Node27&#45;&gt;Node28</title>
<path fill="none" stroke="#191970" d="M994.7065,-290.4344C1018.0764,-290.7433 1044.282,-291.0896 1068.4584,-291.4091"/>
<polygon fill="#191970" stroke="#191970" points="994.5791,-286.9326 984.5336,-290.3 994.4865,-293.9319 994.5791,-286.9326"/>
</g>
<!-- Node28&#45;&gt;Node29 -->
<g id="edge31" class="edge">
<title>Node28&#45;&gt;Node29</title>
<path fill="none" stroke="#191970" d="M1243.9564,-303.7674C1269.8422,-306.9051 1297.2998,-310.2333 1320.8517,-313.0881"/>
<polygon fill="#191970" stroke="#191970" points="1244.0924,-300.2584 1233.7438,-302.5296 1243.25,-307.2075 1244.0924,-300.2584"/>
</g>
<!-- Node34 -->
<g id="node34" class="node">
<title>Node34</title>
<g id="a_node34"><a xlink:href="../../d1/dd1/PoPs_8cc.html#a0ebbe8bf4ab3deaab497ec4883261fc7" target="_top" xlink:title="PoPs_write">
<polygon fill="none" stroke="#ff0000" points="1116.5,-78.5 1116.5,-98.5 1185.5,-98.5 1185.5,-78.5 1116.5,-78.5"/>
<text text-anchor="middle" x="1151" y="-85.5" font-family="FreeSans" font-size="10.00" fill="#000000">PoPs_write</text>
</a>
</g>
</g>
<!-- Node33&#45;&gt;Node34 -->
<g id="edge37" class="edge">
<title>Node33&#45;&gt;Node34</title>
<path fill="none" stroke="#191970" d="M985.6253,-88.5C1027.5841,-88.5 1081.5937,-88.5 1116.263,-88.5"/>
<polygon fill="#191970" stroke="#191970" points="985.5098,-85.0001 975.5098,-88.5 985.5098,-92.0001 985.5098,-85.0001"/>
</g>
<!-- Node36 -->
<g id="node36" class="node">
<title>Node36</title>
<g id="a_node36"><a xlink:href="../../d0/dbc/statusMessageReporting_8cc.html#a46f75dc16b73c0ce4932e5b02f43636f" target="_top" xlink:title="smr_malloc">
<polygon fill="none" stroke="#000000" points="887,-39.5 887,-59.5 961,-59.5 961,-39.5 887,-39.5"/>
<text text-anchor="middle" x="924" y="-46.5" font-family="FreeSans" font-size="10.00" fill="#000000">smr_malloc</text>
</a>
</g>
</g>
<!-- Node35&#45;&gt;Node36 -->
<g id="edge39" class="edge">
<title>Node35&#45;&gt;Node36</title>
<path fill="none" stroke="#191970" d="M745.699,-206.1346C764.3091,-204.0331 784.6275,-198.4757 799,-185.5 839.383,-149.0416 794.8711,-105.2379 835,-68.5 848.8677,-55.8042 869.0738,-50.806 886.7291,-49.0924"/>
<polygon fill="#191970" stroke="#191970" points="745.2616,-202.6587 735.5844,-206.9717 745.839,-209.6348 745.2616,-202.6587"/>
</g>
<!-- Node37 -->
<g id="node37" class="node">
<title>Node37</title>
<g id="a_node37"><a xlink:href="../../d0/dbc/statusMessageReporting_8cc.html#a15f741ee01976119e25a63c153245ba4" target="_top" xlink:title="smr_allocateCopyStringN">
<polygon fill="none" stroke="#000000" points="1079.5,-39.5 1079.5,-59.5 1222.5,-59.5 1222.5,-39.5 1079.5,-39.5"/>
<text text-anchor="middle" x="1151" y="-46.5" font-family="FreeSans" font-size="10.00" fill="#000000">smr_allocateCopyStringN</text>
</a>
</g>
</g>
<!-- Node36&#45;&gt;Node37 -->
<g id="edge40" class="edge">
<title>Node36&#45;&gt;Node37</title>
<path fill="none" stroke="#191970" d="M971.4049,-49.5C1002.6359,-49.5 1044.114,-49.5 1079.3401,-49.5"/>
<polygon fill="#191970" stroke="#191970" points="971.2303,-46.0001 961.2302,-49.5 971.2302,-53.0001 971.2303,-46.0001"/>
</g>
<!-- Node39 -->
<g id="node39" class="node">
<title>Node39</title>
<g id="a_node39"><a xlink:href="../../d6/ddc/MCGIDI__particle_8cc.html#aa6a2b6ed0d4233ced806aad2efd47546" target="_top" xlink:title="MCGIDI_particle_getInternalID">
<polygon fill="none" stroke="#000000" points="840.5,-.5 840.5,-20.5 1007.5,-20.5 1007.5,-.5 840.5,-.5"/>
<text text-anchor="middle" x="924" y="-7.5" font-family="FreeSans" font-size="10.00" fill="#000000">MCGIDI_particle_getInternalID</text>
</a>
</g>
</g>
<!-- Node38&#45;&gt;Node39 -->
<g id="edge42" class="edge">
<title>Node38&#45;&gt;Node39</title>
<path fill="none" stroke="#191970" d="M747.2321,-50.9373C773.2322,-44.342 805.8018,-36.251 835,-29.5 848.0844,-26.4747 862.2918,-23.3637 875.4338,-20.5575"/>
<polygon fill="#191970" stroke="#191970" points="746.0764,-47.6197 737.2485,-53.478 747.8029,-54.4035 746.0764,-47.6197"/>
</g>
<!-- Node41&#45;&gt;Node18 -->
<g id="edge45" class="edge">
<title>Node41&#45;&gt;Node18</title>
<path fill="none" stroke="#191970" d="M564.353,-379.5C579.9953,-379.5 596.7445,-379.5 612.9215,-379.5"/>
<polygon fill="#191970" stroke="#191970" points="564.2507,-376.0001 554.2507,-379.5 564.2506,-383.0001 564.2507,-376.0001"/>
</g>
<!-- Node43 -->
<g id="node43" class="node">
<title>Node43</title>
<g id="a_node43"><a xlink:href="../../d0/dbc/statusMessageReporting_8cc.html#a7b6884053a9d0c83e21ba1e7e656b0c9" target="_top" xlink:title="smr_print">
<polygon fill="none" stroke="#000000" points="461.5,-562.5 461.5,-582.5 526.5,-582.5 526.5,-562.5 461.5,-562.5"/>
<text text-anchor="middle" x="494" y="-569.5" font-family="FreeSans" font-size="10.00" fill="#000000">smr_print</text>
</a>
</g>
</g>
<!-- Node42&#45;&gt;Node43 -->
<g id="edge47" class="edge">
<title>Node42&#45;&gt;Node43</title>
<path fill="none" stroke="#191970" d="M353.5298,-510.9182C365.4851,-513.7702 378.3883,-517.3143 390,-521.5 421.5932,-532.8885 456.2246,-551.1217 476.4857,-562.4231"/>
<polygon fill="#191970" stroke="#191970" points="354.2878,-507.5013 343.7595,-508.6863 352.7289,-514.3255 354.2878,-507.5013"/>
</g>
<!-- Node43&#45;&gt;Node2 -->
<g id="edge48" class="edge">
<title>Node43&#45;&gt;Node2</title>
<path fill="none" stroke="#191970" d="M511.6799,-589.7571C531.1782,-607.7685 564.2799,-635.4427 598,-650.5 607.1779,-654.5983 617.2,-657.8618 627.2466,-660.4593"/>
<polygon fill="#191970" stroke="#191970" points="513.8698,-587.0112 504.1942,-582.6944 509.066,-592.1028 513.8698,-587.0112"/>
</g>
<!-- Node43&#45;&gt;Node3 -->
<g id="edge49" class="edge">
<title>Node43&#45;&gt;Node3</title>
<path fill="none" stroke="#191970" d="M537.014,-573.4688C683.4192,-576.7662 1162.3642,-587.5532 1326.3433,-591.2465"/>
<polygon fill="#191970" stroke="#191970" points="536.7338,-569.9617 526.6575,-573.2355 536.5762,-576.9599 536.7338,-569.9617"/>
</g>
<!-- Node44 -->
<g id="node44" class="node">
<title>Node44</title>
<g id="a_node44"><a xlink:href="../../d6/d19/classG4GIDI__target.html#a644a30ccfad3822b0be94956bf0fa935" target="_top" xlink:title="G4GIDI_target::getChannelsID">
<polygon fill="none" stroke="#000000" points="614.5,-543.5 614.5,-563.5 782.5,-563.5 782.5,-543.5 614.5,-543.5"/>
<text text-anchor="middle" x="698.5" y="-550.5" font-family="FreeSans" font-size="10.00" fill="#000000">G4GIDI_target::getChannelsID</text>
</a>
</g>
</g>
<!-- Node43&#45;&gt;Node44 -->
<g id="edge50" class="edge">
<title>Node43&#45;&gt;Node44</title>
<path fill="none" stroke="#191970" d="M537.029,-568.5022C559.4173,-566.4221 587.5862,-563.8049 614.1021,-561.3414"/>
<polygon fill="#191970" stroke="#191970" points="536.4898,-565.0371 526.8565,-569.4473 537.1374,-572.0071 536.4898,-565.0371"/>
</g>
<!-- Node45 -->
<g id="node45" class="node">
<title>Node45</title>
<g id="a_node45"><a xlink:href="../../d6/d19/classG4GIDI__target.html#a2dab3adf8757082c12feabff100884c5" target="_top" xlink:title="G4GIDI_target::getElastic\lFinalState">
<polygon fill="none" stroke="#000000" points="626.5,-492.5 626.5,-524.5 770.5,-524.5 770.5,-492.5 626.5,-492.5"/>
<text text-anchor="start" x="634.5" y="-511.5" font-family="FreeSans" font-size="10.00" fill="#000000">G4GIDI_target::getElastic</text>
<text text-anchor="middle" x="698.5" y="-499.5" font-family="FreeSans" font-size="10.00" fill="#000000">FinalState</text>
</a>
</g>
</g>
<!-- Node43&#45;&gt;Node45 -->
<g id="edge51" class="edge">
<title>Node43&#45;&gt;Node45</title>
<path fill="none" stroke="#191970" d="M527.8957,-558.6614C548.0609,-550.7128 574.2623,-540.8765 598,-533.5 608.1302,-530.3521 618.9291,-527.3272 629.5504,-524.536"/>
<polygon fill="#191970" stroke="#191970" points="526.5159,-555.4434 518.5185,-562.3927 529.104,-561.9474 526.5159,-555.4434"/>
</g>
<!-- Node50 -->
<g id="node50" class="node">
<title>Node50</title>
<g id="a_node50"><a xlink:href="../../d6/d19/classG4GIDI__target.html#a9e90b0f6eb490eca7532ab4c50bd1cdb" target="_top" xlink:title="G4GIDI_target::getFinalState">
<polygon fill="none" stroke="#000000" points="618,-621.5 618,-641.5 779,-641.5 779,-621.5 618,-621.5"/>
<text text-anchor="middle" x="698.5" y="-628.5" font-family="FreeSans" font-size="10.00" fill="#000000">G4GIDI_target::getFinalState</text>
</a>
</g>
</g>
<!-- Node43&#45;&gt;Node50 -->
<g id="edge56" class="edge">
<title>Node43&#45;&gt;Node50</title>
<path fill="none" stroke="#191970" d="M532.702,-585.8887C552.1864,-592.4409 576.2345,-600.2439 598,-606.5 616.6624,-611.8642 637.4652,-617.1518 655.281,-621.4728"/>
<polygon fill="#191970" stroke="#191970" points="533.5595,-582.4839 522.9652,-582.5911 531.314,-589.1139 533.5595,-582.4839"/>
</g>
<!-- Node46 -->
<g id="node46" class="node">
<title>Node46</title>
<g id="a_node46"><a xlink:href="../../da/d8a/classG4LENDElastic.html#a25ac00237a115c588673f71efb8fd7f8" target="_top" xlink:title="G4LENDElastic::ApplyYourself">
<polygon fill="none" stroke="#000000" points="840.5,-479.5 840.5,-499.5 1007.5,-499.5 1007.5,-479.5 840.5,-479.5"/>
<text text-anchor="middle" x="924" y="-486.5" font-family="FreeSans" font-size="10.00" fill="#000000">G4LENDElastic::ApplyYourself</text>
</a>
</g>
</g>
<!-- Node45&#45;&gt;Node46 -->
<g id="edge52" class="edge">
<title>Node45&#45;&gt;Node46</title>
<path fill="none" stroke="#191970" d="M780.7927,-501.5663C800.1919,-499.9317 820.8916,-498.1876 840.3501,-496.5481"/>
<polygon fill="#191970" stroke="#191970" points="780.4509,-498.0826 770.7801,-502.4099 781.0387,-505.0578 780.4509,-498.0826"/>
</g>
<!-- Node47 -->
<g id="node47" class="node">
<title>Node47</title>
<g id="a_node47"><a xlink:href="../../dd/d3e/classG4LENDModel.html#a4d5583bd74256209350536a0f65ff4cb" target="_top" xlink:title="G4LENDModel::ApplyYourself">
<polygon fill="none" stroke="#000000" points="842,-518.5 842,-538.5 1006,-538.5 1006,-518.5 842,-518.5"/>
<text text-anchor="middle" x="924" y="-525.5" font-family="FreeSans" font-size="10.00" fill="#000000">G4LENDModel::ApplyYourself</text>
</a>
</g>
</g>
<!-- Node45&#45;&gt;Node47 -->
<g id="edge53" class="edge">
<title>Node45&#45;&gt;Node47</title>
<path fill="none" stroke="#191970" d="M780.7554,-515.7954C800.6952,-517.5639 822.0108,-519.4544 841.9415,-521.2221"/>
<polygon fill="#191970" stroke="#191970" points="781.0502,-512.3079 770.7801,-514.9107 780.4317,-519.2805 781.0502,-512.3079"/>
</g>
<!-- Node48 -->
<g id="node48" class="node">
<title>Node48</title>
<g id="a_node48"><a xlink:href="../../d7/d8e/classG4LENDCombinedModel.html#a51a5c6d39cb8130b84fb4397eb1fa2dc" target="_top" xlink:title="G4LENDCombinedModel\l::ApplyYourself">
<polygon fill="none" stroke="#000000" points="1081.5,-531.5 1081.5,-563.5 1220.5,-563.5 1220.5,-531.5 1081.5,-531.5"/>
<text text-anchor="start" x="1089.5" y="-550.5" font-family="FreeSans" font-size="10.00" fill="#000000">G4LENDCombinedModel</text>
<text text-anchor="middle" x="1151" y="-538.5" font-family="FreeSans" font-size="10.00" fill="#000000">::ApplyYourself</text>
</a>
</g>
</g>
<!-- Node47&#45;&gt;Node48 -->
<g id="edge54" class="edge">
<title>Node47&#45;&gt;Node48</title>
<path fill="none" stroke="#191970" d="M1016.4752,-536.2402C1038.1435,-538.0539 1060.8712,-539.9562 1081.3486,-541.6701"/>
<polygon fill="#191970" stroke="#191970" points="1016.5303,-532.7327 1006.2732,-535.3863 1015.9464,-539.7083 1016.5303,-532.7327"/>
</g>
<!-- Node49 -->
<g id="node49" class="node">
<title>Node49</title>
<g id="a_node49"><a xlink:href="../../de/d6b/classG4LENDGammaModel.html#a25f916ffa7025a9d959d95e3cc4a72de" target="_top" xlink:title="G4LENDGammaModel::ApplyYourself">
<polygon fill="none" stroke="#000000" points="1049,-492.5 1049,-512.5 1253,-512.5 1253,-492.5 1049,-492.5"/>
<text text-anchor="middle" x="1151" y="-499.5" font-family="FreeSans" font-size="10.00" fill="#000000">G4LENDGammaModel::ApplyYourself</text>
</a>
</g>
</g>
<!-- Node47&#45;&gt;Node49 -->
<g id="edge55" class="edge">
<title>Node47&#45;&gt;Node49</title>
<path fill="none" stroke="#191970" d="M1016.4327,-517.913C1032.0333,-516.1261 1048.1841,-514.2763 1063.65,-512.5049"/>
<polygon fill="#191970" stroke="#191970" points="1015.8099,-514.4614 1006.2732,-519.0766 1016.6065,-521.4159 1015.8099,-514.4614"/>
</g>
</g>
</svg>
