<?xml version="1.0" encoding="UTF-8" standalone="no"?>
<!DOCTYPE svg PUBLIC "-//W3C//DTD SVG 1.1//EN"
 "http://www.w3.org/Graphics/SVG/1.1/DTD/svg11.dtd">
<!-- Generated by graphviz version 2.40.1 (20161225.0304)
 -->
<!-- Title: geant4/tree/geant4&#45;10.6&#45;release/source/g3tog4/include/G3MatTable.hh Pages: 1 -->
<svg width="971pt" height="134pt"
 viewBox="0.00 0.00 970.50 134.00" xmlns="http://www.w3.org/2000/svg" xmlns:xlink="http://www.w3.org/1999/xlink">
<g id="graph0" class="graph" transform="scale(1 1) rotate(0) translate(4 130)">
<title>geant4/tree/geant4&#45;10.6&#45;release/source/g3tog4/include/G3MatTable.hh</title>
<!-- Node1 -->
<g id="node1" class="node">
<title>Node1</title>
<polygon fill="#bfbfbf" stroke="#000000" points="395,-81.5 395,-125.5 570,-125.5 570,-81.5 395,-81.5"/>
<text text-anchor="start" x="403" y="-112.5" font-family="FreeSans" font-size="10.00" fill="#000000">geant4/tree/geant4</text>
<text text-anchor="start" x="403" y="-100.5" font-family="FreeSans" font-size="10.00" fill="#000000">&#45;10.6&#45;release/source</text>
<text text-anchor="middle" x="482.5" y="-88.5" font-family="FreeSans" font-size="10.00" fill="#000000">/g3tog4/include/G3MatTable.hh</text>
</g>
<!-- Node2 -->
<g id="node2" class="node">
<title>Node2</title>
<g id="a_node2"><a xlink:href="../../df/d23/clparse_8cc.html" target="_top" xlink:title="geant4/tree/geant4\l&#45;10.6&#45;release/source\l/g3tog4/src/clparse.cc">
<polygon fill="none" stroke="#000000" points="0,-.5 0,-44.5 129,-44.5 129,-.5 0,-.5"/>
<text text-anchor="start" x="8" y="-31.5" font-family="FreeSans" font-size="10.00" fill="#000000">geant4/tree/geant4</text>
<text text-anchor="start" x="8" y="-19.5" font-family="FreeSans" font-size="10.00" fill="#000000">&#45;10.6&#45;release/source</text>
<text text-anchor="middle" x="64.5" y="-7.5" font-family="FreeSans" font-size="10.00" fill="#000000">/g3tog4/src/clparse.cc</text>
</a>
</g>
</g>
<!-- Node1&#45;&gt;Node2 -->
<g id="edge1" class="edge">
<title>Node1&#45;&gt;Node2</title>
<path fill="none" stroke="#191970" d="M384.6067,-90.3919C315.1658,-80.2462 220.0265,-64.6257 137.5,-45 134.7906,-44.3557 132.0344,-43.6656 129.2574,-42.9417"/>
<polygon fill="#191970" stroke="#191970" points="384.2625,-93.8785 394.6611,-91.8489 385.2665,-86.9508 384.2625,-93.8785"/>
</g>
<!-- Node3 -->
<g id="node3" class="node">
<title>Node3</title>
<g id="a_node3"><a xlink:href="../../d8/dc2/G3MatTable_8cc.html" target="_top" xlink:title="geant4/tree/geant4\l&#45;10.6&#45;release/source\l/g3tog4/src/G3MatTable.cc">
<polygon fill="none" stroke="#000000" points="147,-.5 147,-44.5 298,-44.5 298,-.5 147,-.5"/>
<text text-anchor="start" x="155" y="-31.5" font-family="FreeSans" font-size="10.00" fill="#000000">geant4/tree/geant4</text>
<text text-anchor="start" x="155" y="-19.5" font-family="FreeSans" font-size="10.00" fill="#000000">&#45;10.6&#45;release/source</text>
<text text-anchor="middle" x="222.5" y="-7.5" font-family="FreeSans" font-size="10.00" fill="#000000">/g3tog4/src/G3MatTable.cc</text>
</a>
</g>
</g>
<!-- Node1&#45;&gt;Node3 -->
<g id="edge2" class="edge">
<title>Node1&#45;&gt;Node3</title>
<path fill="none" stroke="#191970" d="M402.1302,-78.4617C367.2936,-67.6088 326.8621,-55.0128 293.1886,-44.5222"/>
<polygon fill="#191970" stroke="#191970" points="401.2088,-81.8405 411.7973,-81.4734 403.2909,-75.1573 401.2088,-81.8405"/>
</g>
<!-- Node4 -->
<g id="node4" class="node">
<title>Node4</title>
<g id="a_node4"><a xlink:href="../../d6/db0/G4BuildGeom_8cc.html" target="_top" xlink:title="geant4/tree/geant4\l&#45;10.6&#45;release/source\l/g3tog4/src/G4BuildGeom.cc">
<polygon fill="none" stroke="#000000" points="316.5,-.5 316.5,-44.5 478.5,-44.5 478.5,-.5 316.5,-.5"/>
<text text-anchor="start" x="324.5" y="-31.5" font-family="FreeSans" font-size="10.00" fill="#000000">geant4/tree/geant4</text>
<text text-anchor="start" x="324.5" y="-19.5" font-family="FreeSans" font-size="10.00" fill="#000000">&#45;10.6&#45;release/source</text>
<text text-anchor="middle" x="397.5" y="-7.5" font-family="FreeSans" font-size="10.00" fill="#000000">/g3tog4/src/G4BuildGeom.cc</text>
</a>
</g>
</g>
<!-- Node1&#45;&gt;Node4 -->
<g id="edge3" class="edge">
<title>Node1&#45;&gt;Node4</title>
<path fill="none" stroke="#191970" d="M451.9873,-74.4232C441.6792,-64.6001 430.3464,-53.8007 420.6985,-44.6068"/>
<polygon fill="#191970" stroke="#191970" points="449.6194,-77.0015 459.2734,-81.3664 454.4485,-71.9339 449.6194,-77.0015"/>
</g>
<!-- Node5 -->
<g id="node5" class="node">
<title>Node5</title>
<g id="a_node5"><a xlink:href="../../da/df1/G4gsmate_8cc.html" target="_top" xlink:title="geant4/tree/geant4\l&#45;10.6&#45;release/source\l/g3tog4/src/G4gsmate.cc">
<polygon fill="none" stroke="#000000" points="496.5,-.5 496.5,-44.5 640.5,-44.5 640.5,-.5 496.5,-.5"/>
<text text-anchor="start" x="504.5" y="-31.5" font-family="FreeSans" font-size="10.00" fill="#000000">geant4/tree/geant4</text>
<text text-anchor="start" x="504.5" y="-19.5" font-family="FreeSans" font-size="10.00" fill="#000000">&#45;10.6&#45;release/source</text>
<text text-anchor="middle" x="568.5" y="-7.5" font-family="FreeSans" font-size="10.00" fill="#000000">/g3tog4/src/G4gsmate.cc</text>
</a>
</g>
</g>
<!-- Node1&#45;&gt;Node5 -->
<g id="edge4" class="edge">
<title>Node1&#45;&gt;Node5</title>
<path fill="none" stroke="#191970" d="M513.3717,-74.4232C523.8011,-64.6001 535.2672,-53.8007 545.0285,-44.6068"/>
<polygon fill="#191970" stroke="#191970" points="510.8797,-71.9622 505.9999,-81.3664 515.6791,-77.0579 510.8797,-71.9622"/>
</g>
<!-- Node6 -->
<g id="node6" class="node">
<title>Node6</title>
<g id="a_node6"><a xlink:href="../../d9/d66/G4gsmixt_8cc.html" target="_top" xlink:title="geant4/tree/geant4\l&#45;10.6&#45;release/source\l/g3tog4/src/G4gsmixt.cc">
<polygon fill="none" stroke="#000000" points="659,-.5 659,-44.5 800,-44.5 800,-.5 659,-.5"/>
<text text-anchor="start" x="667" y="-31.5" font-family="FreeSans" font-size="10.00" fill="#000000">geant4/tree/geant4</text>
<text text-anchor="start" x="667" y="-19.5" font-family="FreeSans" font-size="10.00" fill="#000000">&#45;10.6&#45;release/source</text>
<text text-anchor="middle" x="729.5" y="-7.5" font-family="FreeSans" font-size="10.00" fill="#000000">/g3tog4/src/G4gsmixt.cc</text>
</a>
</g>
</g>
<!-- Node1&#45;&gt;Node6 -->
<g id="edge5" class="edge">
<title>Node1&#45;&gt;Node6</title>
<path fill="none" stroke="#191970" d="M559.2759,-78.3225C592.2743,-67.5012 630.4927,-54.968 662.3458,-44.5222"/>
<polygon fill="#191970" stroke="#191970" points="558.079,-75.0315 549.6676,-81.4734 560.2603,-81.683 558.079,-75.0315"/>
</g>
<!-- Node7 -->
<g id="node7" class="node">
<title>Node7</title>
<g id="a_node7"><a xlink:href="../../d7/df8/G4gstmed_8cc.html" target="_top" xlink:title="geant4/tree/geant4\l&#45;10.6&#45;release/source\l/g3tog4/src/G4gstmed.cc">
<polygon fill="none" stroke="#000000" points="818.5,-.5 818.5,-44.5 962.5,-44.5 962.5,-.5 818.5,-.5"/>
<text text-anchor="start" x="826.5" y="-31.5" font-family="FreeSans" font-size="10.00" fill="#000000">geant4/tree/geant4</text>
<text text-anchor="start" x="826.5" y="-19.5" font-family="FreeSans" font-size="10.00" fill="#000000">&#45;10.6&#45;release/source</text>
<text text-anchor="middle" x="890.5" y="-7.5" font-family="FreeSans" font-size="10.00" fill="#000000">/g3tog4/src/G4gstmed.cc</text>
</a>
</g>
</g>
<!-- Node1&#45;&gt;Node7 -->
<g id="edge6" class="edge">
<title>Node1&#45;&gt;Node7</title>
<path fill="none" stroke="#191970" d="M580.3163,-88.4669C645.5482,-77.8375 733.0389,-62.4185 809.5,-45 812.3461,-44.3516 815.2418,-43.6673 818.1621,-42.9564"/>
<polygon fill="#191970" stroke="#191970" points="579.3547,-85.077 570.0432,-90.1313 580.4743,-91.9869 579.3547,-85.077"/>
</g>
</g>
</svg>
