<?xml version="1.0" encoding="UTF-8" standalone="no"?>
<!DOCTYPE svg PUBLIC "-//W3C//DTD SVG 1.1//EN"
 "http://www.w3.org/Graphics/SVG/1.1/DTD/svg11.dtd">
<!-- Generated by graphviz version 2.40.1 (20161225.0304)
 -->
<!-- Title: PoPs_particleCreateLoadInfo Pages: 1 -->
<svg width="2337pt" height="380pt"
 viewBox="0.00 0.00 2337.00 380.18" xmlns="http://www.w3.org/2000/svg" xmlns:xlink="http://www.w3.org/1999/xlink">
<g id="graph0" class="graph" transform="scale(1 1) rotate(0) translate(4 376.1799)">
<title>PoPs_particleCreateLoadInfo</title>
<!-- Node1 -->
<g id="node1" class="node">
<title>Node1</title>
<polygon fill="#bfbfbf" stroke="#000000" points="0,-39.5 0,-59.5 159,-59.5 159,-39.5 0,-39.5"/>
<text text-anchor="middle" x="79.5" y="-46.5" font-family="FreeSans" font-size="10.00" fill="#000000">PoPs_particleCreateLoadInfo</text>
</g>
<!-- Node2 -->
<g id="node2" class="node">
<title>Node2</title>
<g id="a_node2"><a xlink:href="../../d1/d21/lPoPs_8cc.html#a53acc75cffc2e9afcb7be8b91c01283e" target="_top" xlink:title="lPoPs_addParticleIfNeeded">
<polygon fill="none" stroke="#000000" points="195,-78.5 195,-98.5 344,-98.5 344,-78.5 195,-78.5"/>
<text text-anchor="middle" x="269.5" y="-85.5" font-family="FreeSans" font-size="10.00" fill="#000000">lPoPs_addParticleIfNeeded</text>
</a>
</g>
</g>
<!-- Node1&#45;&gt;Node2 -->
<g id="edge1" class="edge">
<title>Node1&#45;&gt;Node2</title>
<path fill="none" stroke="#191970" d="M138.3276,-61.5751C164.7697,-67.0027 195.6069,-73.3325 220.7361,-78.4906"/>
<polygon fill="#191970" stroke="#191970" points="138.9293,-58.1257 128.4297,-59.5435 137.5217,-64.9828 138.9293,-58.1257"/>
</g>
<!-- Node32 -->
<g id="node32" class="node">
<title>Node32</title>
<g id="a_node32"><a xlink:href="../../de/ddd/PoPs__data_8cc.html#a154667b3b1c6942aa889b24cd19224a4" target="_top" xlink:title="PoPs_particleReadDatabase">
<polygon fill="none" stroke="#000000" points="380,-.5 380,-20.5 536,-20.5 536,-.5 380,-.5"/>
<text text-anchor="middle" x="458" y="-7.5" font-family="FreeSans" font-size="10.00" fill="#000000">PoPs_particleReadDatabase</text>
</a>
</g>
</g>
<!-- Node1&#45;&gt;Node32 -->
<g id="edge41" class="edge">
<title>Node1&#45;&gt;Node32</title>
<path fill="none" stroke="#191970" d="M169.3995,-40.2369C233.4566,-33.6366 318.7094,-24.8523 379.922,-18.545"/>
<polygon fill="#191970" stroke="#191970" points="168.8962,-36.7701 159.3076,-41.2768 169.6137,-43.7333 168.8962,-36.7701"/>
</g>
<!-- Node3 -->
<g id="node3" class="node">
<title>Node3</title>
<g id="a_node3"><a xlink:href="../../db/d26/MCGIDI__map_8cc.html#a9493fbc33cb49bbdb22e292272b6bc5d" target="_top" xlink:title="_MCGIDI_map_addEntry">
<polygon fill="none" stroke="#000000" points="389,-145.5 389,-165.5 527,-165.5 527,-145.5 389,-145.5"/>
<text text-anchor="middle" x="458" y="-152.5" font-family="FreeSans" font-size="10.00" fill="#000000">_MCGIDI_map_addEntry</text>
</a>
</g>
</g>
<!-- Node2&#45;&gt;Node3 -->
<g id="edge2" class="edge">
<title>Node2&#45;&gt;Node3</title>
<path fill="none" stroke="#191970" d="M307.4077,-101.9738C343.5046,-114.804 397.0215,-133.826 429.5867,-145.4009"/>
<polygon fill="#191970" stroke="#191970" points="308.3151,-98.5819 297.7204,-98.5306 305.9706,-105.1776 308.3151,-98.5819"/>
</g>
<!-- Node6 -->
<g id="node6" class="node">
<title>Node6</title>
<g id="a_node6"><a xlink:href="../../db/d26/MCGIDI__map_8cc.html#a3afff5b1bd0b00c43c9a989187c269fe" target="_top" xlink:title="MCGIDI_map_findAllOfTarget">
<polygon fill="none" stroke="#000000" points="972,-62.5 972,-82.5 1133,-82.5 1133,-62.5 972,-62.5"/>
<text text-anchor="middle" x="1052.5" y="-69.5" font-family="FreeSans" font-size="10.00" fill="#000000">MCGIDI_map_findAllOfTarget</text>
</a>
</g>
</g>
<!-- Node2&#45;&gt;Node6 -->
<g id="edge13" class="edge">
<title>Node2&#45;&gt;Node6</title>
<path fill="none" stroke="#191970" d="M324.5298,-76.5382C342.1583,-73.2453 361.8202,-70.132 380,-68.5 626.1214,-46.4061 688.9253,-64.2596 936,-68.5 947.6349,-68.6997 959.9206,-69.0115 971.9776,-69.3749"/>
<polygon fill="#191970" stroke="#191970" points="323.5691,-73.1588 314.412,-78.4879 324.8937,-80.0324 323.5691,-73.1588"/>
</g>
<!-- Node12 -->
<g id="node12" class="node">
<title>Node12</title>
<g id="a_node12"><a xlink:href="../../db/d26/MCGIDI__map_8cc.html#ac618c62ea574910e9b17e4808abe8f9b" target="_top" xlink:title="MCGIDI_map_findTarget">
<polygon fill="none" stroke="#000000" points="1749,-336.5 1749,-356.5 1886,-356.5 1886,-336.5 1749,-336.5"/>
<text text-anchor="middle" x="1817.5" y="-343.5" font-family="FreeSans" font-size="10.00" fill="#000000">MCGIDI_map_findTarget</text>
</a>
</g>
</g>
<!-- Node2&#45;&gt;Node12 -->
<g id="edge14" class="edge">
<title>Node2&#45;&gt;Node12</title>
<path fill="none" stroke="#191970" d="M274.9974,-108.522C286.9925,-148.2784 319.4137,-237.2372 380,-282.5 480.7049,-357.7346 529.7951,-346.5 655.5,-346.5 655.5,-346.5 655.5,-346.5 1437.5,-346.5 1546.3542,-346.5 1672.7483,-346.5 1748.8521,-346.5"/>
<polygon fill="#191970" stroke="#191970" points="278.3537,-107.5289 272.2072,-98.8992 271.6306,-109.4783 278.3537,-107.5289"/>
</g>
<!-- Node16 -->
<g id="node16" class="node">
<title>Node16</title>
<g id="a_node16"><a xlink:href="../../db/d26/MCGIDI__map_8cc.html#af2606162858dd4c1ae222a20614f629e" target="_top" xlink:title="MCGIDI_map_initialize">
<polygon fill="none" stroke="#000000" points="394,-78.5 394,-98.5 522,-98.5 522,-78.5 394,-78.5"/>
<text text-anchor="middle" x="458" y="-85.5" font-family="FreeSans" font-size="10.00" fill="#000000">MCGIDI_map_initialize</text>
</a>
</g>
</g>
<!-- Node2&#45;&gt;Node16 -->
<g id="edge18" class="edge">
<title>Node2&#45;&gt;Node16</title>
<path fill="none" stroke="#191970" d="M354.1201,-88.5C367.4433,-88.5 381.0258,-88.5 393.7879,-88.5"/>
<polygon fill="#191970" stroke="#191970" points="354.0002,-85.0001 344.0002,-88.5 354.0002,-92.0001 354.0002,-85.0001"/>
</g>
<!-- Node18 -->
<g id="node18" class="node">
<title>Node18</title>
<g id="a_node18"><a xlink:href="../../da/d1d/MCGIDI__pop_8cc.html#addec24338face4fc71a5e59922462761" target="_top" xlink:title="MCGIDI_POPs_addParticleIf\lNeeded">
<polygon fill="none" stroke="#000000" points="382,-240.5 382,-272.5 534,-272.5 534,-240.5 382,-240.5"/>
<text text-anchor="start" x="390" y="-259.5" font-family="FreeSans" font-size="10.00" fill="#000000">MCGIDI_POPs_addParticleIf</text>
<text text-anchor="middle" x="458" y="-247.5" font-family="FreeSans" font-size="10.00" fill="#000000">Needed</text>
</a>
</g>
</g>
<!-- Node2&#45;&gt;Node18 -->
<g id="edge22" class="edge">
<title>Node2&#45;&gt;Node18</title>
<path fill="none" stroke="#191970" d="M288.6436,-105.5617C325.1615,-138.1081 404.3018,-208.6417 439.9499,-240.4129"/>
<polygon fill="#191970" stroke="#191970" points="290.5211,-102.5467 280.727,-98.5061 285.8637,-107.7724 290.5211,-102.5467"/>
</g>
<!-- Node2&#45;&gt;Node32 -->
<g id="edge39" class="edge">
<title>Node2&#45;&gt;Node32</title>
<path fill="none" stroke="#191970" d="M297.4251,-73.7916C319.4854,-62.4954 351.2414,-46.9431 380,-35.5 393.8733,-29.9798 409.488,-24.7822 423.0816,-20.5712"/>
<polygon fill="#191970" stroke="#191970" points="295.5883,-70.801 288.3096,-78.4998 298.8006,-77.0204 295.5883,-70.801"/>
</g>
<!-- Node4 -->
<g id="node4" class="node">
<title>Node4</title>
<g id="a_node4"><a xlink:href="../../db/d26/MCGIDI__map_8cc.html#a53eed82d6aaf62367deee00280da49a3" target="_top" xlink:title="_MCGIDI_map_findAllOfTarget\lViaPoPIDs2">
<polygon fill="none" stroke="#000000" points="572,-117.5 572,-149.5 739,-149.5 739,-117.5 572,-117.5"/>
<text text-anchor="start" x="580" y="-136.5" font-family="FreeSans" font-size="10.00" fill="#000000">_MCGIDI_map_findAllOfTarget</text>
<text text-anchor="middle" x="655.5" y="-124.5" font-family="FreeSans" font-size="10.00" fill="#000000">ViaPoPIDs2</text>
</a>
</g>
</g>
<!-- Node3&#45;&gt;Node4 -->
<g id="edge3" class="edge">
<title>Node3&#45;&gt;Node4</title>
<path fill="none" stroke="#191970" d="M537.0325,-146.6964C548.4891,-145.4202 560.3149,-144.1029 571.8585,-142.817"/>
<polygon fill="#191970" stroke="#191970" points="536.6269,-143.2198 527.0759,-147.8055 537.402,-150.1768 536.6269,-143.2198"/>
</g>
<!-- Node8 -->
<g id="node8" class="node">
<title>Node8</title>
<g id="a_node8"><a xlink:href="../../db/d26/MCGIDI__map_8cc.html#a102479fb4cfc6b6497eb744bf96eb404" target="_top" xlink:title="MCGIDI_map_addPath">
<polygon fill="none" stroke="#000000" points="592,-168.5 592,-188.5 719,-188.5 719,-168.5 592,-168.5"/>
<text text-anchor="middle" x="655.5" y="-175.5" font-family="FreeSans" font-size="10.00" fill="#000000">MCGIDI_map_addPath</text>
</a>
</g>
</g>
<!-- Node3&#45;&gt;Node8 -->
<g id="edge7" class="edge">
<title>Node3&#45;&gt;Node8</title>
<path fill="none" stroke="#191970" d="M537.0592,-164.7069C555.2305,-166.823 574.329,-169.0472 591.7566,-171.0767"/>
<polygon fill="#191970" stroke="#191970" points="537.4137,-161.2246 527.0759,-163.5443 536.6039,-168.1776 537.4137,-161.2246"/>
</g>
<!-- Node11 -->
<g id="node11" class="node">
<title>Node11</title>
<g id="a_node11"><a xlink:href="../../db/d26/MCGIDI__map_8cc.html#a976e8364235d11babc5939f99c8632b3" target="_top" xlink:title="MCGIDI_map_addTarget">
<polygon fill="none" stroke="#000000" points="587,-207.5 587,-227.5 724,-227.5 724,-207.5 587,-207.5"/>
<text text-anchor="middle" x="655.5" y="-214.5" font-family="FreeSans" font-size="10.00" fill="#000000">MCGIDI_map_addTarget</text>
</a>
</g>
</g>
<!-- Node3&#45;&gt;Node11 -->
<g id="edge11" class="edge">
<title>Node3&#45;&gt;Node11</title>
<path fill="none" stroke="#191970" d="M491.1267,-169.3721C513.6584,-178.4647 544.2974,-190.1664 572,-198.5 582.9624,-201.7978 594.8844,-204.8306 606.197,-207.4596"/>
<polygon fill="#191970" stroke="#191970" points="492.2736,-166.06 481.6922,-165.5262 489.6312,-172.5421 492.2736,-166.06"/>
</g>
<!-- Node5 -->
<g id="node5" class="node">
<title>Node5</title>
<g id="a_node5"><a xlink:href="../../db/d26/MCGIDI__map_8cc.html#a8657328d6af22c98378ee17577319d08" target="_top" xlink:title="MCGIDI_map_findAllOfTarget\lViaPoPIDs">
<polygon fill="none" stroke="#000000" points="775,-78.5 775,-110.5 936,-110.5 936,-78.5 775,-78.5"/>
<text text-anchor="start" x="783" y="-97.5" font-family="FreeSans" font-size="10.00" fill="#000000">MCGIDI_map_findAllOfTarget</text>
<text text-anchor="middle" x="855.5" y="-85.5" font-family="FreeSans" font-size="10.00" fill="#000000">ViaPoPIDs</text>
</a>
</g>
</g>
<!-- Node4&#45;&gt;Node5 -->
<g id="edge4" class="edge">
<title>Node4&#45;&gt;Node5</title>
<path fill="none" stroke="#191970" d="M747.5647,-115.5474C756.6888,-113.7682 765.9015,-111.9717 774.8965,-110.2177"/>
<polygon fill="#191970" stroke="#191970" points="746.8587,-112.119 737.7135,-117.4684 748.1985,-118.9896 746.8587,-112.119"/>
</g>
<!-- Node5&#45;&gt;Node6 -->
<g id="edge5" class="edge">
<title>Node5&#45;&gt;Node6</title>
<path fill="none" stroke="#191970" d="M946.2155,-84.3693C954.7951,-83.4112 963.454,-82.4442 971.9296,-81.4977"/>
<polygon fill="#191970" stroke="#191970" points="945.7456,-80.9 936.1959,-85.4883 946.5226,-87.8567 945.7456,-80.9"/>
</g>
<!-- Node7 -->
<g id="node7" class="node">
<title>Node7</title>
<g id="a_node7"><a xlink:href="../../d7/dbb/classG4GIDI.html#a8cc1abd96ff3e3d249cfe670a0fa4a16" target="_top" xlink:title="G4GIDI::getNamesOfAvailable\lLibraries">
<polygon fill="none" stroke="#000000" points="1169,-56.5 1169,-88.5 1337,-88.5 1337,-56.5 1169,-56.5"/>
<text text-anchor="start" x="1177" y="-75.5" font-family="FreeSans" font-size="10.00" fill="#000000">G4GIDI::getNamesOfAvailable</text>
<text text-anchor="middle" x="1253" y="-63.5" font-family="FreeSans" font-size="10.00" fill="#000000">Libraries</text>
</a>
</g>
</g>
<!-- Node6&#45;&gt;Node7 -->
<g id="edge6" class="edge">
<title>Node6&#45;&gt;Node7</title>
<path fill="none" stroke="#191970" d="M1143.4527,-72.5C1151.9207,-72.5 1160.478,-72.5 1168.88,-72.5"/>
<polygon fill="#191970" stroke="#191970" points="1143.1844,-69.0001 1133.1843,-72.5 1143.1843,-76.0001 1143.1844,-69.0001"/>
</g>
<!-- Node9 -->
<g id="node9" class="node">
<title>Node9</title>
<g id="a_node9"><a xlink:href="../../db/d26/MCGIDI__map_8cc.html#a5d5c8c41f856f89944806588e7e5c96f" target="_top" xlink:title="MCGIDI_map_readFile">
<polygon fill="none" stroke="#000000" points="793,-168.5 793,-188.5 918,-188.5 918,-168.5 793,-168.5"/>
<text text-anchor="middle" x="855.5" y="-175.5" font-family="FreeSans" font-size="10.00" fill="#000000">MCGIDI_map_readFile</text>
</a>
</g>
</g>
<!-- Node8&#45;&gt;Node9 -->
<g id="edge8" class="edge">
<title>Node8&#45;&gt;Node9</title>
<path fill="none" stroke="#191970" d="M729.1644,-171.9625C750.0616,-171.618 772.6109,-171.6924 792.7943,-172.1858"/>
<polygon fill="#191970" stroke="#191970" points="728.9838,-168.4653 719.0561,-172.1653 729.1243,-175.4639 728.9838,-168.4653"/>
</g>
<!-- Node9&#45;&gt;Node8 -->
<g id="edge10" class="edge">
<title>Node9&#45;&gt;Node8</title>
<path fill="none" stroke="#191970" d="M782.7136,-185.0228C761.8635,-185.3791 739.305,-185.3164 719.0561,-184.8347"/>
<polygon fill="#191970" stroke="#191970" points="782.8688,-188.5204 792.7943,-184.8142 782.724,-181.5219 782.8688,-188.5204"/>
</g>
<!-- Node10 -->
<g id="node10" class="node">
<title>Node10</title>
<g id="a_node10"><a xlink:href="../../d6/def/classG4GIDI__map.html#a9750a65e702e882cc9a7734fafb68023" target="_top" xlink:title="G4GIDI_map::G4GIDI_map">
<polygon fill="none" stroke="#000000" points="977.5,-168.5 977.5,-188.5 1127.5,-188.5 1127.5,-168.5 977.5,-168.5"/>
<text text-anchor="middle" x="1052.5" y="-175.5" font-family="FreeSans" font-size="10.00" fill="#000000">G4GIDI_map::G4GIDI_map</text>
</a>
</g>
</g>
<!-- Node9&#45;&gt;Node10 -->
<g id="edge9" class="edge">
<title>Node9&#45;&gt;Node10</title>
<path fill="none" stroke="#191970" d="M928.422,-178.5C944.365,-178.5 961.2686,-178.5 977.2987,-178.5"/>
<polygon fill="#191970" stroke="#191970" points="928.1027,-175.0001 918.1027,-178.5 928.1027,-182.0001 928.1027,-175.0001"/>
</g>
<!-- Node11&#45;&gt;Node9 -->
<g id="edge12" class="edge">
<title>Node11&#45;&gt;Node9</title>
<path fill="none" stroke="#191970" d="M717.0563,-205.4965C744.9715,-200.0531 777.6013,-193.6902 804.1696,-188.5094"/>
<polygon fill="#191970" stroke="#191970" points="716.1502,-202.1072 707.005,-207.4565 717.49,-208.9778 716.1502,-202.1072"/>
</g>
<!-- Node13 -->
<g id="node13" class="node">
<title>Node13</title>
<g id="a_node13"><a xlink:href="../../d7/dbb/classG4GIDI.html#aea1128617a413d09d571783ea37a48ed" target="_top" xlink:title="G4GIDI::dataFilename">
<polygon fill="none" stroke="#000000" points="1962,-336.5 1962,-356.5 2089,-356.5 2089,-336.5 1962,-336.5"/>
<text text-anchor="middle" x="2025.5" y="-343.5" font-family="FreeSans" font-size="10.00" fill="#000000">G4GIDI::dataFilename</text>
</a>
</g>
</g>
<!-- Node12&#45;&gt;Node13 -->
<g id="edge15" class="edge">
<title>Node12&#45;&gt;Node13</title>
<path fill="none" stroke="#191970" d="M1896.3301,-346.5C1917.9653,-346.5 1941.1466,-346.5 1961.8147,-346.5"/>
<polygon fill="#191970" stroke="#191970" points="1896.1835,-343.0001 1886.1834,-346.5 1896.1834,-350.0001 1896.1835,-343.0001"/>
</g>
<!-- Node14 -->
<g id="node14" class="node">
<title>Node14</title>
<g id="a_node14"><a xlink:href="../../d0/d24/MCGIDI__target_8cc.html#a829194d1b0216594e41504b4a5071648" target="_top" xlink:title="MCGIDI_target_newReadFromMap">
<polygon fill="none" stroke="#000000" points="2143,-325.5 2143,-345.5 2329,-345.5 2329,-325.5 2143,-325.5"/>
<text text-anchor="middle" x="2236" y="-332.5" font-family="FreeSans" font-size="10.00" fill="#000000">MCGIDI_target_newReadFromMap</text>
</a>
</g>
</g>
<!-- Node12&#45;&gt;Node14 -->
<g id="edge16" class="edge">
<title>Node12&#45;&gt;Node14</title>
<path fill="none" stroke="#191970" d="M1878.8768,-358.1863C1899.491,-361.5809 1922.6649,-364.8238 1944,-366.5 2016.2219,-372.174 2035.0586,-375.0228 2107,-366.5 2140.3953,-362.5437 2177.6571,-353.0171 2203.5132,-345.5607"/>
<polygon fill="#191970" stroke="#191970" points="1879.4255,-354.7295 1868.9821,-356.5138 1878.2589,-361.6316 1879.4255,-354.7295"/>
</g>
<!-- Node15 -->
<g id="node15" class="node">
<title>Node15</title>
<g id="a_node15"><a xlink:href="../../d0/d24/MCGIDI__target_8cc.html#a4560dca48e241a7fb5e51e49e283c8a8" target="_top" xlink:title="MCGIDI_target_readFromMap">
<polygon fill="none" stroke="#000000" points="1944,-297.5 1944,-317.5 2107,-317.5 2107,-297.5 1944,-297.5"/>
<text text-anchor="middle" x="2025.5" y="-304.5" font-family="FreeSans" font-size="10.00" fill="#000000">MCGIDI_target_readFromMap</text>
</a>
</g>
</g>
<!-- Node12&#45;&gt;Node15 -->
<g id="edge17" class="edge">
<title>Node12&#45;&gt;Node15</title>
<path fill="none" stroke="#191970" d="M1881.1368,-334.5681C1910.2526,-329.1089 1944.3642,-322.713 1972.1164,-317.5094"/>
<polygon fill="#191970" stroke="#191970" points="1880.2489,-331.1735 1871.0652,-336.4565 1881.5389,-338.0536 1880.2489,-331.1735"/>
</g>
<!-- Node17 -->
<g id="node17" class="node">
<title>Node17</title>
<g id="a_node17"><a xlink:href="../../db/d26/MCGIDI__map_8cc.html#ac58df3ff694c04bc01657c5f840e3564" target="_top" xlink:title="MCGIDI_map_new">
<polygon fill="none" stroke="#000000" points="602,-78.5 602,-98.5 709,-98.5 709,-78.5 602,-78.5"/>
<text text-anchor="middle" x="655.5" y="-85.5" font-family="FreeSans" font-size="10.00" fill="#000000">MCGIDI_map_new</text>
</a>
</g>
</g>
<!-- Node16&#45;&gt;Node17 -->
<g id="edge19" class="edge">
<title>Node16&#45;&gt;Node17</title>
<path fill="none" stroke="#191970" d="M532.2593,-88.5C555.4166,-88.5 580.4919,-88.5 601.9407,-88.5"/>
<polygon fill="#191970" stroke="#191970" points="532.1226,-85.0001 522.1226,-88.5 532.1226,-92.0001 532.1226,-85.0001"/>
</g>
<!-- Node17&#45;&gt;Node5 -->
<g id="edge20" class="edge">
<title>Node17&#45;&gt;Node5</title>
<path fill="none" stroke="#191970" d="M719.246,-90.4124C736.8589,-90.9408 756.2072,-91.5212 774.6523,-92.0746"/>
<polygon fill="#191970" stroke="#191970" points="719.1968,-86.9094 709.0963,-90.1079 718.9868,-93.9063 719.1968,-86.9094"/>
</g>
<!-- Node17&#45;&gt;Node9 -->
<g id="edge21" class="edge">
<title>Node17&#45;&gt;Node9</title>
<path fill="none" stroke="#191970" d="M719.2273,-100.7287C725.9993,-102.6979 732.7062,-104.9457 739,-107.5 779.1634,-123.8001 821.4374,-153.0773 842.2809,-168.449"/>
<polygon fill="#191970" stroke="#191970" points="719.8667,-97.2758 709.2995,-98.0395 718.0365,-104.0323 719.8667,-97.2758"/>
</g>
<!-- Node19 -->
<g id="node19" class="node">
<title>Node19</title>
<g id="a_node19"><a xlink:href="../../df/da0/MCGIDI__target__heated_8cc.html#aa9825ff1b2089f5e19765e23f5fbdb2f" target="_top" xlink:title="MCGIDI_target_heated\l_parseParticle">
<polygon fill="none" stroke="#000000" points="791,-246.5 791,-278.5 920,-278.5 920,-246.5 791,-246.5"/>
<text text-anchor="start" x="799" y="-265.5" font-family="FreeSans" font-size="10.00" fill="#000000">MCGIDI_target_heated</text>
<text text-anchor="middle" x="855.5" y="-253.5" font-family="FreeSans" font-size="10.00" fill="#000000">_parseParticle</text>
</a>
</g>
</g>
<!-- Node18&#45;&gt;Node19 -->
<g id="edge23" class="edge">
<title>Node18&#45;&gt;Node19</title>
<path fill="none" stroke="#191970" d="M544.4176,-257.8044C618.5406,-258.9233 723.7004,-260.5106 790.7587,-261.5228"/>
<polygon fill="#191970" stroke="#191970" points="544.2234,-254.3012 534.1717,-257.6498 544.1177,-261.3004 544.2234,-254.3012"/>
</g>
<!-- Node31 -->
<g id="node31" class="node">
<title>Node31</title>
<g id="a_node31"><a xlink:href="../../df/da0/MCGIDI__target__heated_8cc.html#a202c1525d360fc53c577d235d1b8c0fa" target="_top" xlink:title="MCGIDI_target_heated\l_parseParticleLevel">
<polygon fill="none" stroke="#000000" points="591,-285.5 591,-317.5 720,-317.5 720,-285.5 591,-285.5"/>
<text text-anchor="start" x="599" y="-304.5" font-family="FreeSans" font-size="10.00" fill="#000000">MCGIDI_target_heated</text>
<text text-anchor="middle" x="655.5" y="-292.5" font-family="FreeSans" font-size="10.00" fill="#000000">_parseParticleLevel</text>
</a>
</g>
</g>
<!-- Node18&#45;&gt;Node31 -->
<g id="edge37" class="edge">
<title>Node18&#45;&gt;Node31</title>
<path fill="none" stroke="#191970" d="M538.6227,-274.8697C556.056,-278.8419 574.2698,-282.9919 590.9891,-286.8013"/>
<polygon fill="#191970" stroke="#191970" points="538.9933,-271.3645 528.4656,-272.5555 537.4381,-278.1896 538.9933,-271.3645"/>
</g>
<!-- Node20 -->
<g id="node20" class="node">
<title>Node20</title>
<g id="a_node20"><a xlink:href="../../df/da0/MCGIDI__target__heated_8cc.html#a2d37b5a7252291da3aab306526f8f27a" target="_top" xlink:title="MCGIDI_target_heated\l_parsePOPs">
<polygon fill="none" stroke="#000000" points="988,-246.5 988,-278.5 1117,-278.5 1117,-246.5 988,-246.5"/>
<text text-anchor="start" x="996" y="-265.5" font-family="FreeSans" font-size="10.00" fill="#000000">MCGIDI_target_heated</text>
<text text-anchor="middle" x="1052.5" y="-253.5" font-family="FreeSans" font-size="10.00" fill="#000000">_parsePOPs</text>
</a>
</g>
</g>
<!-- Node19&#45;&gt;Node20 -->
<g id="edge24" class="edge">
<title>Node19&#45;&gt;Node20</title>
<path fill="none" stroke="#191970" d="M930.1125,-262.5C949.1186,-262.5 969.3874,-262.5 987.8499,-262.5"/>
<polygon fill="#191970" stroke="#191970" points="930.0052,-259.0001 920.0052,-262.5 930.0051,-266.0001 930.0052,-259.0001"/>
</g>
<!-- Node21 -->
<g id="node21" class="node">
<title>Node21</title>
<g id="a_node21"><a xlink:href="../../df/da0/MCGIDI__target__heated_8cc.html#affe7058a90aef52f8e693d6ba5db8aa5" target="_top" xlink:title="MCGIDI_target_heated_read">
<polygon fill="none" stroke="#000000" points="1174.5,-252.5 1174.5,-272.5 1331.5,-272.5 1331.5,-252.5 1174.5,-252.5"/>
<text text-anchor="middle" x="1253" y="-259.5" font-family="FreeSans" font-size="10.00" fill="#000000">MCGIDI_target_heated_read</text>
</a>
</g>
</g>
<!-- Node20&#45;&gt;Node21 -->
<g id="edge25" class="edge">
<title>Node20&#45;&gt;Node21</title>
<path fill="none" stroke="#191970" d="M1127.4533,-262.5C1142.7106,-262.5 1158.8043,-262.5 1174.191,-262.5"/>
<polygon fill="#191970" stroke="#191970" points="1127.0431,-259.0001 1117.0431,-262.5 1127.0431,-266.0001 1127.0431,-259.0001"/>
</g>
<!-- Node22 -->
<g id="node22" class="node">
<title>Node22</title>
<g id="a_node22"><a xlink:href="../../df/da0/MCGIDI__target__heated_8cc.html#a49ca2312307b553d1f6c92c329e924a1" target="_top" xlink:title="MCGIDI_target_heated\l_newRead">
<polygon fill="none" stroke="#000000" points="1373,-246.5 1373,-278.5 1502,-278.5 1502,-246.5 1373,-246.5"/>
<text text-anchor="start" x="1381" y="-265.5" font-family="FreeSans" font-size="10.00" fill="#000000">MCGIDI_target_heated</text>
<text text-anchor="middle" x="1437.5" y="-253.5" font-family="FreeSans" font-size="10.00" fill="#000000">_newRead</text>
</a>
</g>
</g>
<!-- Node21&#45;&gt;Node22 -->
<g id="edge26" class="edge">
<title>Node21&#45;&gt;Node22</title>
<path fill="none" stroke="#191970" d="M1341.6158,-262.5C1352.1933,-262.5 1362.8347,-262.5 1372.9825,-262.5"/>
<polygon fill="#191970" stroke="#191970" points="1341.5122,-259.0001 1331.5121,-262.5 1341.5121,-266.0001 1341.5122,-259.0001"/>
</g>
<!-- Node23 -->
<g id="node23" class="node">
<title>Node23</title>
<g id="a_node23"><a xlink:href="../../d0/d24/MCGIDI__target_8cc.html#a208fecc858d8265d3777be7d110f84c5" target="_top" xlink:title="MCGIDI_target_readHeated\lTarget">
<polygon fill="none" stroke="#000000" points="1538,-246.5 1538,-278.5 1691,-278.5 1691,-246.5 1538,-246.5"/>
<text text-anchor="start" x="1546" y="-265.5" font-family="FreeSans" font-size="10.00" fill="#000000">MCGIDI_target_readHeated</text>
<text text-anchor="middle" x="1614.5" y="-253.5" font-family="FreeSans" font-size="10.00" fill="#000000">Target</text>
</a>
</g>
</g>
<!-- Node22&#45;&gt;Node23 -->
<g id="edge27" class="edge">
<title>Node22&#45;&gt;Node23</title>
<path fill="none" stroke="#191970" d="M1512.298,-262.5C1520.7015,-262.5 1529.274,-262.5 1537.7023,-262.5"/>
<polygon fill="#191970" stroke="#191970" points="1512.1524,-259.0001 1502.1524,-262.5 1512.1524,-266.0001 1512.1524,-259.0001"/>
</g>
<!-- Node24 -->
<g id="node24" class="node">
<title>Node24</title>
<g id="a_node24"><a xlink:href="../../d0/d24/MCGIDI__target_8cc.html#ad84900f08012646e62d5fb6b529c6bf0" target="_top" xlink:title="MCGIDI_target_getHeatedTarget\lAtIndex_ReadIfNeeded">
<polygon fill="none" stroke="#000000" points="1728,-201.5 1728,-233.5 1907,-233.5 1907,-201.5 1728,-201.5"/>
<text text-anchor="start" x="1736" y="-220.5" font-family="FreeSans" font-size="10.00" fill="#000000">MCGIDI_target_getHeatedTarget</text>
<text text-anchor="middle" x="1817.5" y="-208.5" font-family="FreeSans" font-size="10.00" fill="#000000">AtIndex_ReadIfNeeded</text>
</a>
</g>
</g>
<!-- Node23&#45;&gt;Node24 -->
<g id="edge28" class="edge">
<title>Node23&#45;&gt;Node24</title>
<path fill="none" stroke="#191970" d="M1696.7893,-244.2585C1712.7884,-240.7119 1729.4484,-237.0188 1745.1,-233.5493"/>
<polygon fill="#191970" stroke="#191970" points="1695.9334,-240.8632 1686.9279,-246.4445 1697.4484,-247.6973 1695.9334,-240.8632"/>
</g>
<!-- Node25 -->
<g id="node25" class="node">
<title>Node25</title>
<g id="a_node25"><a xlink:href="../../d0/d24/MCGIDI__target_8cc.html#aceade9a3c57ad1b495684ce80626d3d1" target="_top" xlink:title="MCGIDI_target_read">
<polygon fill="none" stroke="#000000" points="1759.5,-252.5 1759.5,-272.5 1875.5,-272.5 1875.5,-252.5 1759.5,-252.5"/>
<text text-anchor="middle" x="1817.5" y="-259.5" font-family="FreeSans" font-size="10.00" fill="#000000">MCGIDI_target_read</text>
</a>
</g>
</g>
<!-- Node23&#45;&gt;Node25 -->
<g id="edge29" class="edge">
<title>Node23&#45;&gt;Node25</title>
<path fill="none" stroke="#191970" d="M1701.3944,-262.5C1720.961,-262.5 1741.2671,-262.5 1759.322,-262.5"/>
<polygon fill="#191970" stroke="#191970" points="1701.2456,-259.0001 1691.2456,-262.5 1701.2456,-266.0001 1701.2456,-259.0001"/>
</g>
<!-- Node30 -->
<g id="node30" class="node">
<title>Node30</title>
<g id="a_node30"><a xlink:href="../../d6/d19/classG4GIDI__target.html#a39033a3f6c4c47077398a69a08d3fc16" target="_top" xlink:title="G4GIDI_target::readTemperature">
<polygon fill="none" stroke="#000000" points="1727,-291.5 1727,-311.5 1908,-311.5 1908,-291.5 1727,-291.5"/>
<text text-anchor="middle" x="1817.5" y="-298.5" font-family="FreeSans" font-size="10.00" fill="#000000">G4GIDI_target::readTemperature</text>
</a>
</g>
</g>
<!-- Node23&#45;&gt;Node30 -->
<g id="edge36" class="edge">
<title>Node23&#45;&gt;Node30</title>
<path fill="none" stroke="#191970" d="M1701.1828,-279.1533C1722.9859,-283.3421 1745.7212,-287.71 1765.2472,-291.4613"/>
<polygon fill="#191970" stroke="#191970" points="1701.7264,-275.6938 1691.2456,-277.2442 1700.4056,-282.5681 1701.7264,-275.6938"/>
</g>
<!-- Node25&#45;&gt;Node15 -->
<g id="edge34" class="edge">
<title>Node25&#45;&gt;Node15</title>
<path fill="none" stroke="#191970" d="M1873.8876,-274.6992C1906.9145,-281.8445 1948.1108,-290.7571 1979.2215,-297.4878"/>
<polygon fill="#191970" stroke="#191970" points="1874.4344,-271.2366 1863.9204,-272.5429 1872.9541,-278.0783 1874.4344,-271.2366"/>
</g>
<!-- Node26 -->
<g id="node26" class="node">
<title>Node26</title>
<g id="a_node26"><a xlink:href="../../d0/d24/MCGIDI__target_8cc.html#aaafb33a4730d63f1a901e27b04186c45" target="_top" xlink:title="MCGIDI_target_newRead">
<polygon fill="none" stroke="#000000" points="1955.5,-207.5 1955.5,-227.5 2095.5,-227.5 2095.5,-207.5 1955.5,-207.5"/>
<text text-anchor="middle" x="2025.5" y="-214.5" font-family="FreeSans" font-size="10.00" fill="#000000">MCGIDI_target_newRead</text>
</a>
</g>
</g>
<!-- Node25&#45;&gt;Node26 -->
<g id="edge30" class="edge">
<title>Node25&#45;&gt;Node26</title>
<path fill="none" stroke="#191970" d="M1875.9732,-250.3207C1886.6333,-248.0728 1897.6532,-245.7308 1908,-243.5 1931.9975,-238.326 1958.7194,-232.4243 1980.6093,-227.5528"/>
<polygon fill="#191970" stroke="#191970" points="1874.9621,-246.9567 1865.8968,-252.4404 1876.4031,-253.8068 1874.9621,-246.9567"/>
</g>
<!-- Node29 -->
<g id="node29" class="node">
<title>Node29</title>
<g id="a_node29"><a xlink:href="../../d0/d24/MCGIDI__target_8cc.html#aa4199e5c62d5cadb67be229a06a9e34c" target="_top" xlink:title="MCGIDI_target_readFromMap\lViaPoPIDs">
<polygon fill="none" stroke="#000000" points="1944,-246.5 1944,-278.5 2107,-278.5 2107,-246.5 1944,-246.5"/>
<text text-anchor="start" x="1952" y="-265.5" font-family="FreeSans" font-size="10.00" fill="#000000">MCGIDI_target_readFromMap</text>
<text text-anchor="middle" x="2025.5" y="-253.5" font-family="FreeSans" font-size="10.00" fill="#000000">ViaPoPIDs</text>
</a>
</g>
</g>
<!-- Node25&#45;&gt;Node29 -->
<g id="edge35" class="edge">
<title>Node25&#45;&gt;Node29</title>
<path fill="none" stroke="#191970" d="M1885.8447,-262.5C1904.4281,-262.5 1924.7395,-262.5 1943.9738,-262.5"/>
<polygon fill="#191970" stroke="#191970" points="1885.7162,-259.0001 1875.7162,-262.5 1885.7161,-266.0001 1885.7162,-259.0001"/>
</g>
<!-- Node26&#45;&gt;Node14 -->
<g id="edge32" class="edge">
<title>Node26&#45;&gt;Node14</title>
<path fill="none" stroke="#191970" d="M2090.3429,-230.6158C2096.0953,-232.6106 2101.7296,-234.8928 2107,-237.5 2125.4156,-246.6098 2126.7467,-253.932 2143,-266.5 2170.6734,-287.8986 2203.692,-312.0848 2222.0052,-325.3835"/>
<polygon fill="#191970" stroke="#191970" points="2091.1841,-227.2108 2080.5939,-227.5231 2089.0674,-233.8831 2091.1841,-227.2108"/>
</g>
<!-- Node27 -->
<g id="node27" class="node">
<title>Node27</title>
<g id="a_node27"><a xlink:href="../../d6/d19/classG4GIDI__target.html#ad9abda532ded0d6729329d77b63e8016" target="_top" xlink:title="G4GIDI_target::init">
<polygon fill="none" stroke="#000000" points="2180.5,-185.5 2180.5,-205.5 2291.5,-205.5 2291.5,-185.5 2180.5,-185.5"/>
<text text-anchor="middle" x="2236" y="-192.5" font-family="FreeSans" font-size="10.00" fill="#000000">G4GIDI_target::init</text>
</a>
</g>
</g>
<!-- Node26&#45;&gt;Node27 -->
<g id="edge31" class="edge">
<title>Node26&#45;&gt;Node27</title>
<path fill="none" stroke="#191970" d="M2105.7301,-209.1149C2130.5638,-206.5195 2157.3703,-203.7178 2180.1727,-201.3347"/>
<polygon fill="#191970" stroke="#191970" points="2105.1754,-205.6537 2095.5935,-210.1743 2105.9031,-212.6158 2105.1754,-205.6537"/>
</g>
<!-- Node28 -->
<g id="node28" class="node">
<title>Node28</title>
<g id="a_node28"><a xlink:href="../../d0/d24/MCGIDI__target_8cc.html#a4a5295fc164f2a595e31633df6421077" target="_top" xlink:title="MCGIDI_target_newReadFrom\lMapViaPoPIDs">
<polygon fill="none" stroke="#000000" points="2153.5,-224.5 2153.5,-256.5 2318.5,-256.5 2318.5,-224.5 2153.5,-224.5"/>
<text text-anchor="start" x="2161.5" y="-243.5" font-family="FreeSans" font-size="10.00" fill="#000000">MCGIDI_target_newReadFrom</text>
<text text-anchor="middle" x="2236" y="-231.5" font-family="FreeSans" font-size="10.00" fill="#000000">MapViaPoPIDs</text>
</a>
</g>
</g>
<!-- Node26&#45;&gt;Node28 -->
<g id="edge33" class="edge">
<title>Node26&#45;&gt;Node28</title>
<path fill="none" stroke="#191970" d="M2105.7301,-226.2662C2121.3502,-227.9729 2137.7507,-229.7649 2153.4444,-231.4797"/>
<polygon fill="#191970" stroke="#191970" points="2105.9145,-222.7656 2095.5935,-225.1587 2105.1541,-229.7242 2105.9145,-222.7656"/>
</g>
<!-- Node31&#45;&gt;Node19 -->
<g id="edge38" class="edge">
<title>Node31&#45;&gt;Node19</title>
<path fill="none" stroke="#191970" d="M730.1125,-286.9506C750.0283,-283.067 771.3828,-278.9029 790.7222,-275.1317"/>
<polygon fill="#191970" stroke="#191970" points="729.3033,-283.5423 720.1581,-288.8917 730.6431,-290.4129 729.3033,-283.5423"/>
</g>
<!-- Node33 -->
<g id="node33" class="node">
<title>Node33</title>
<g id="a_node33"><a xlink:href="../../d1/dd1/PoPs_8cc.html#a7379b8a1da3545e819acc1c3a642531e" target="_top" xlink:title="PoPs_readDatabase">
<polygon fill="none" stroke="#000000" points="598,-.5 598,-20.5 713,-20.5 713,-.5 598,-.5"/>
<text text-anchor="middle" x="655.5" y="-7.5" font-family="FreeSans" font-size="10.00" fill="#000000">PoPs_readDatabase</text>
</a>
</g>
</g>
<!-- Node32&#45;&gt;Node33 -->
<g id="edge40" class="edge">
<title>Node32&#45;&gt;Node33</title>
<path fill="none" stroke="#191970" d="M546.278,-10.5C563.7525,-10.5 581.6693,-10.5 597.8065,-10.5"/>
<polygon fill="#191970" stroke="#191970" points="546.0573,-7.0001 536.0572,-10.5 546.0572,-14.0001 546.0573,-7.0001"/>
</g>
</g>
</svg>
