<?xml version="1.0" encoding="UTF-8" standalone="no"?>
<!DOCTYPE svg PUBLIC "-//W3C//DTD SVG 1.1//EN"
 "http://www.w3.org/Graphics/SVG/1.1/DTD/svg11.dtd">
<!-- Generated by graphviz version 2.40.1 (20161225.0304)
 -->
<!-- Title: geant4/tree/geant4&#45;10.6&#45;release/source/processes/hadronic/models/parton_string/hadronization/include Pages: 1 -->
<svg width="168pt" height="368pt"
 viewBox="0.00 0.00 167.64 368.00" xmlns="http://www.w3.org/2000/svg" xmlns:xlink="http://www.w3.org/1999/xlink">
<g id="graph0" class="graph" transform="scale(1 1) rotate(0) translate(4 364)">
<title>geant4/tree/geant4&#45;10.6&#45;release/source/processes/hadronic/models/parton_string/hadronization/include</title>
<g id="clust1" class="cluster">
<title>clusterdir_dbae1ec47a4dbc278dec8455e7804912</title>
<g id="a_clust1"><a xlink:href="dir_dbae1ec47a4dbc278dec8455e7804912.html" target="_top" xlink:title="hadronization">
<polygon fill="#ddddee" stroke="#000000" points="22.3536,-280 22.3536,-352 107.3536,-352 107.3536,-280 22.3536,-280"/>
<text text-anchor="middle" x="64.8536" y="-339" font-family="FreeSans" font-size="10.00" fill="#000000">hadronization</text>
</a>
</g>
</g>
<!-- dir_7a2813b065818d899b6d90bad7fadaab -->
<g id="node1" class="node">
<title>dir_7a2813b065818d899b6d90bad7fadaab</title>
<g id="a_node1"><a xlink:href="dir_7a2813b065818d899b6d90bad7fadaab.html" target="_top" xlink:title="include">
<polygon fill="#eeeeff" stroke="#000000" points="91.3536,-324 37.3536,-324 37.3536,-288 91.3536,-288 91.3536,-324"/>
<text text-anchor="middle" x="64.3536" y="-303" font-family="FreeSans" font-size="10.00" fill="#000000">include</text>
</a>
</g>
</g>
<!-- dir_c1638eb68104f33837f5e92778eb538f -->
<g id="node2" class="node">
<title>dir_c1638eb68104f33837f5e92778eb538f</title>
<g id="a_node2"><a xlink:href="dir_c1638eb68104f33837f5e92778eb538f.html" target="_top" xlink:title="util">
<polygon fill="none" stroke="#ff0000" points="66.3536,-180 12.3536,-180 12.3536,-144 66.3536,-144 66.3536,-180"/>
<text text-anchor="middle" x="39.3536" y="-159" font-family="FreeSans" font-size="10.00" fill="#000000">util</text>
</a>
</g>
</g>
<!-- dir_7a2813b065818d899b6d90bad7fadaab&#45;&gt;dir_c1638eb68104f33837f5e92778eb538f -->
<g id="edge4" class="edge">
<title>dir_7a2813b065818d899b6d90bad7fadaab&#45;&gt;dir_c1638eb68104f33837f5e92778eb538f</title>
<path fill="none" stroke="#000000" d="M58.0023,-287.7198C54.6401,-277.3596 50.727,-264.0893 48.3536,-252 44.3263,-231.4871 42.0538,-207.9706 40.8,-190.1214"/>
<polygon fill="#000000" stroke="#000000" points="44.2888,-189.8325 40.1592,-180.0756 37.303,-190.2782 44.2888,-189.8325"/>
<g id="a_edge4&#45;headlabel"><a xlink:href="dir_001539_001566.html" target="_top" xlink:title="4">
<text text-anchor="middle" x="47.3511" y="-190.2391" font-family="FreeSans" font-size="10.00" fill="#000000">4</text>
</a>
</g>
</g>
<!-- dir_5a1ad02af0bee2bc2f876b255ce01433 -->
<g id="node3" class="node">
<title>dir_5a1ad02af0bee2bc2f876b255ce01433</title>
<g id="a_node3"><a xlink:href="dir_5a1ad02af0bee2bc2f876b255ce01433.html" target="_top" xlink:title="particles">
<polygon fill="none" stroke="#ff0000" points="108.3536,-108 48.3536,-108 48.3536,-72 108.3536,-72 108.3536,-108"/>
<text text-anchor="middle" x="78.3536" y="-87" font-family="FreeSans" font-size="10.00" fill="#000000">particles</text>
</a>
</g>
</g>
<!-- dir_7a2813b065818d899b6d90bad7fadaab&#45;&gt;dir_5a1ad02af0bee2bc2f876b255ce01433 -->
<g id="edge5" class="edge">
<title>dir_7a2813b065818d899b6d90bad7fadaab&#45;&gt;dir_5a1ad02af0bee2bc2f876b255ce01433</title>
<path fill="none" stroke="#000000" d="M91.7497,-297.2209C112.2134,-289.0557 138.7364,-274.6814 151.3536,-252 177.1765,-205.5792 135.2322,-148.3116 105.0029,-115.7919"/>
<polygon fill="#000000" stroke="#000000" points="107.4397,-113.2758 97.9994,-108.4662 102.3799,-118.113 107.4397,-113.2758"/>
<g id="a_edge5&#45;headlabel"><a xlink:href="dir_001539_001303.html" target="_top" xlink:title="3">
<text text-anchor="middle" x="111.9759" y="-110.912" font-family="FreeSans" font-size="10.00" fill="#000000">3</text>
</a>
</g>
</g>
<!-- dir_287f0cc412fb0f226f0848cf15c9d6b2 -->
<g id="node4" class="node">
<title>dir_287f0cc412fb0f226f0848cf15c9d6b2</title>
<g id="a_node4"><a xlink:href="dir_287f0cc412fb0f226f0848cf15c9d6b2.html" target="_top" xlink:title="global">
<polygon fill="none" stroke="#ff0000" points="76.3536,-36 22.3536,-36 22.3536,0 76.3536,0 76.3536,-36"/>
<text text-anchor="middle" x="49.3536" y="-15" font-family="FreeSans" font-size="10.00" fill="#000000">global</text>
</a>
</g>
</g>
<!-- dir_7a2813b065818d899b6d90bad7fadaab&#45;&gt;dir_287f0cc412fb0f226f0848cf15c9d6b2 -->
<g id="edge6" class="edge">
<title>dir_7a2813b065818d899b6d90bad7fadaab&#45;&gt;dir_287f0cc412fb0f226f0848cf15c9d6b2</title>
<path fill="none" stroke="#000000" d="M52.2387,-287.7776C37.3053,-264.1157 12.752,-220.9815 3.3536,-180 -7.6505,-132.0169 15.7209,-77.071 33.0086,-45.0795"/>
<polygon fill="#000000" stroke="#000000" points="36.0888,-46.7424 37.9114,-36.3055 29.978,-43.3278 36.0888,-46.7424"/>
<g id="a_edge6&#45;headlabel"><a xlink:href="dir_001539_001098.html" target="_top" xlink:title="7">
<text text-anchor="middle" x="36.814" y="-48.2653" font-family="FreeSans" font-size="10.00" fill="#000000">7</text>
</a>
</g>
</g>
<!-- dir_f0cba4de6874e7f0664114c1b42b5174 -->
<g id="node5" class="node">
<title>dir_f0cba4de6874e7f0664114c1b42b5174</title>
<g id="a_node5"><a xlink:href="dir_f0cba4de6874e7f0664114c1b42b5174.html" target="_top" xlink:title="management">
<polygon fill="none" stroke="#ff0000" points="142.8536,-252 57.8536,-252 57.8536,-216 142.8536,-216 142.8536,-252"/>
<text text-anchor="middle" x="100.3536" y="-231" font-family="FreeSans" font-size="10.00" fill="#000000">management</text>
</a>
</g>
</g>
<!-- dir_7a2813b065818d899b6d90bad7fadaab&#45;&gt;dir_f0cba4de6874e7f0664114c1b42b5174 -->
<g id="edge7" class="edge">
<title>dir_7a2813b065818d899b6d90bad7fadaab&#45;&gt;dir_f0cba4de6874e7f0664114c1b42b5174</title>
<path fill="none" stroke="#000000" d="M73.4379,-287.8314C77.415,-279.8771 82.1691,-270.369 86.5674,-261.5723"/>
<polygon fill="#000000" stroke="#000000" points="89.8052,-262.9228 91.1469,-252.4133 83.5443,-259.7923 89.8052,-262.9228"/>
<g id="a_edge7&#45;headlabel"><a xlink:href="dir_001539_001541.html" target="_top" xlink:title="2">
<text text-anchor="middle" x="90.7373" y="-264.4077" font-family="FreeSans" font-size="10.00" fill="#000000">2</text>
</a>
</g>
</g>
<!-- dir_c1638eb68104f33837f5e92778eb538f&#45;&gt;dir_5a1ad02af0bee2bc2f876b255ce01433 -->
<g id="edge1" class="edge">
<title>dir_c1638eb68104f33837f5e92778eb538f&#45;&gt;dir_5a1ad02af0bee2bc2f876b255ce01433</title>
<path fill="none" stroke="#000000" d="M49.1949,-143.8314C53.5493,-135.7925 58.7634,-126.1666 63.5705,-117.2918"/>
<polygon fill="#000000" stroke="#000000" points="66.6944,-118.8732 68.3797,-108.4133 60.5393,-115.5392 66.6944,-118.8732"/>
<g id="a_edge1&#45;headlabel"><a xlink:href="dir_001566_001303.html" target="_top" xlink:title="29">
<text text-anchor="middle" x="67.4789" y="-120.3862" font-family="FreeSans" font-size="10.00" fill="#000000">29</text>
</a>
</g>
</g>
<!-- dir_c1638eb68104f33837f5e92778eb538f&#45;&gt;dir_287f0cc412fb0f226f0848cf15c9d6b2 -->
<g id="edge2" class="edge">
<title>dir_c1638eb68104f33837f5e92778eb538f&#45;&gt;dir_287f0cc412fb0f226f0848cf15c9d6b2</title>
<path fill="none" stroke="#000000" d="M38.3753,-143.6837C37.6323,-125.4662 37.0822,-96.7397 39.3536,-72 40.1259,-63.5885 41.5612,-54.5317 43.1083,-46.2836"/>
<polygon fill="#000000" stroke="#000000" points="46.5603,-46.8697 45.0861,-36.3779 39.6958,-45.499 46.5603,-46.8697"/>
<g id="a_edge2&#45;headlabel"><a xlink:href="dir_001566_001098.html" target="_top" xlink:title="130">
<text text-anchor="middle" x="48.6408" y="-47.9506" font-family="FreeSans" font-size="10.00" fill="#000000">130</text>
</a>
</g>
</g>
<!-- dir_5a1ad02af0bee2bc2f876b255ce01433&#45;&gt;dir_287f0cc412fb0f226f0848cf15c9d6b2 -->
<g id="edge3" class="edge">
<title>dir_5a1ad02af0bee2bc2f876b255ce01433&#45;&gt;dir_287f0cc412fb0f226f0848cf15c9d6b2</title>
<path fill="none" stroke="#000000" d="M71.0357,-71.8314C67.8659,-63.9617 64.0836,-54.5712 60.5723,-45.8533"/>
<polygon fill="#000000" stroke="#000000" points="63.7528,-44.3815 56.77,-36.4133 57.2596,-46.9968 63.7528,-44.3815"/>
<g id="a_edge3&#45;headlabel"><a xlink:href="dir_001303_001098.html" target="_top" xlink:title="647">
<text text-anchor="middle" x="67.7293" y="-43.655" font-family="FreeSans" font-size="10.00" fill="#000000">647</text>
</a>
</g>
</g>
<!-- dir_f0cba4de6874e7f0664114c1b42b5174&#45;&gt;dir_c1638eb68104f33837f5e92778eb538f -->
<g id="edge8" class="edge">
<title>dir_f0cba4de6874e7f0664114c1b42b5174&#45;&gt;dir_c1638eb68104f33837f5e92778eb538f</title>
<path fill="none" stroke="#000000" d="M84.9607,-215.8314C77.8632,-207.454 69.3055,-197.3531 61.5296,-188.1749"/>
<polygon fill="#000000" stroke="#000000" points="64.0884,-185.7807 54.9537,-180.4133 58.7475,-190.3056 64.0884,-185.7807"/>
<g id="a_edge8&#45;headlabel"><a xlink:href="dir_001541_001566.html" target="_top" xlink:title="8">
<text text-anchor="middle" x="68.5783" y="-183.6879" font-family="FreeSans" font-size="10.00" fill="#000000">8</text>
</a>
</g>
</g>
<!-- dir_f0cba4de6874e7f0664114c1b42b5174&#45;&gt;dir_5a1ad02af0bee2bc2f876b255ce01433 -->
<g id="edge9" class="edge">
<title>dir_f0cba4de6874e7f0664114c1b42b5174&#45;&gt;dir_5a1ad02af0bee2bc2f876b255ce01433</title>
<path fill="none" stroke="#000000" d="M97.5673,-215.7623C93.8148,-191.201 87.0997,-147.2474 82.6854,-118.3541"/>
<polygon fill="#000000" stroke="#000000" points="86.0875,-117.4463 81.1173,-108.0896 79.1677,-118.5035 86.0875,-117.4463"/>
<g id="a_edge9&#45;headlabel"><a xlink:href="dir_001541_001303.html" target="_top" xlink:title="4">
<text text-anchor="middle" x="89.437" y="-117.5709" font-family="FreeSans" font-size="10.00" fill="#000000">4</text>
</a>
</g>
</g>
<!-- dir_f0cba4de6874e7f0664114c1b42b5174&#45;&gt;dir_287f0cc412fb0f226f0848cf15c9d6b2 -->
<g id="edge10" class="edge">
<title>dir_f0cba4de6874e7f0664114c1b42b5174&#45;&gt;dir_287f0cc412fb0f226f0848cf15c9d6b2</title>
<path fill="none" stroke="#000000" d="M108.2079,-215.9158C120.4661,-184.8021 140.4703,-119.8766 117.3536,-72 110.43,-57.6608 97.6437,-45.9615 85.0111,-37.1646"/>
<polygon fill="#000000" stroke="#000000" points="86.6554,-34.059 76.364,-31.5415 82.8392,-39.9273 86.6554,-34.059"/>
<g id="a_edge10&#45;headlabel"><a xlink:href="dir_001541_001098.html" target="_top" xlink:title="8">
<text text-anchor="middle" x="91.2167" y="-30.6383" font-family="FreeSans" font-size="10.00" fill="#000000">8</text>
</a>
</g>
</g>
</g>
</svg>
