<?xml version="1.0" encoding="UTF-8" standalone="no"?>
<!DOCTYPE svg PUBLIC "-//W3C//DTD SVG 1.1//EN"
 "http://www.w3.org/Graphics/SVG/1.1/DTD/svg11.dtd">
<!-- Generated by graphviz version 2.40.1 (20161225.0304)
 -->
<!-- Title: geant4/tree/geant4&#45;10.6&#45;release/source/processes/hadronic/models/parton_string/hadronization Pages: 1 -->
<svg width="530pt" height="664pt"
 viewBox="0.00 0.00 530.00 664.00" xmlns="http://www.w3.org/2000/svg" xmlns:xlink="http://www.w3.org/1999/xlink">
<g id="graph0" class="graph" transform="scale(1 1) rotate(0) translate(4 660)">
<title>geant4/tree/geant4&#45;10.6&#45;release/source/processes/hadronic/models/parton_string/hadronization</title>
<g id="clust1" class="cluster">
<title>clusterdir_44189bdfb0b0784d7920ea16e4c0d923</title>
<g id="a_clust1"><a xlink:href="dir_44189bdfb0b0784d7920ea16e4c0d923.html" target="_top" xlink:title="parton_string">
<polygon fill="#ddddee" stroke="#000000" points="174,-488 174,-648 364,-648 364,-488 174,-488"/>
<text text-anchor="middle" x="269" y="-635" font-family="FreeSans" font-size="10.00" fill="#000000">parton_string</text>
</a>
</g>
</g>
<g id="clust2" class="cluster">
<title>clusterdir_dbae1ec47a4dbc278dec8455e7804912</title>
<g id="a_clust2"><a xlink:href="dir_dbae1ec47a4dbc278dec8455e7804912.html" target="_top">
<polygon fill="#eeeeff" stroke="#000000" points="182,-496 182,-620 356,-620 356,-496 182,-496"/>
</a>
</g>
</g>
<!-- dir_dbae1ec47a4dbc278dec8455e7804912 -->
<g id="node1" class="node">
<title>dir_dbae1ec47a4dbc278dec8455e7804912</title>
<text text-anchor="middle" x="305" y="-591" font-family="FreeSans" font-size="10.00" fill="#000000">hadronization</text>
</g>
<!-- dir_7a2813b065818d899b6d90bad7fadaab -->
<g id="node2" class="node">
<title>dir_7a2813b065818d899b6d90bad7fadaab</title>
<g id="a_node2"><a xlink:href="dir_7a2813b065818d899b6d90bad7fadaab.html" target="_top" xlink:title="include">
<polygon fill="#ffffff" stroke="#000000" points="244,-540 190,-540 190,-504 244,-504 244,-540"/>
<text text-anchor="middle" x="217" y="-519" font-family="FreeSans" font-size="10.00" fill="#000000">include</text>
</a>
</g>
</g>
<!-- dir_c1638eb68104f33837f5e92778eb538f -->
<g id="node5" class="node">
<title>dir_c1638eb68104f33837f5e92778eb538f</title>
<g id="a_node5"><a xlink:href="dir_c1638eb68104f33837f5e92778eb538f.html" target="_top" xlink:title="util">
<polygon fill="none" stroke="#ff0000" points="124,-396 70,-396 70,-360 124,-360 124,-396"/>
<text text-anchor="middle" x="97" y="-375" font-family="FreeSans" font-size="10.00" fill="#000000">util</text>
</a>
</g>
</g>
<!-- dir_7a2813b065818d899b6d90bad7fadaab&#45;&gt;dir_c1638eb68104f33837f5e92778eb538f -->
<g id="edge11" class="edge">
<title>dir_7a2813b065818d899b6d90bad7fadaab&#45;&gt;dir_c1638eb68104f33837f5e92778eb538f</title>
<path fill="none" stroke="#000000" d="M189.6635,-508.2917C172.9906,-498.8239 152.2231,-484.9091 138,-468 122.6354,-449.7338 111.8675,-424.7664 105.2348,-405.7622"/>
<polygon fill="#000000" stroke="#000000" points="108.5235,-404.5593 102.0567,-396.167 101.8785,-406.7603 108.5235,-404.5593"/>
<g id="a_edge11&#45;headlabel"><a xlink:href="dir_001539_001566.html" target="_top" xlink:title="4">
<text text-anchor="middle" x="112.3489" y="-404.0789" font-family="FreeSans" font-size="10.00" fill="#000000">4</text>
</a>
</g>
</g>
<!-- dir_5a1ad02af0bee2bc2f876b255ce01433 -->
<g id="node7" class="node">
<title>dir_5a1ad02af0bee2bc2f876b255ce01433</title>
<g id="a_node7"><a xlink:href="dir_5a1ad02af0bee2bc2f876b255ce01433.html" target="_top" xlink:title="particles">
<polygon fill="none" stroke="#ff0000" points="287,-108 227,-108 227,-72 287,-72 287,-108"/>
<text text-anchor="middle" x="257" y="-87" font-family="FreeSans" font-size="10.00" fill="#000000">particles</text>
</a>
</g>
</g>
<!-- dir_7a2813b065818d899b6d90bad7fadaab&#45;&gt;dir_5a1ad02af0bee2bc2f876b255ce01433 -->
<g id="edge12" class="edge">
<title>dir_7a2813b065818d899b6d90bad7fadaab&#45;&gt;dir_5a1ad02af0bee2bc2f876b255ce01433</title>
<path fill="none" stroke="#000000" d="M229.8371,-503.9292C254.0377,-468.0337 304,-384.4294 304,-306 304,-306 304,-306 304,-234 304,-191.6562 285.4068,-145.6118 271.6094,-117.273"/>
<polygon fill="#000000" stroke="#000000" points="274.5809,-115.3907 266.9675,-108.0228 268.3245,-118.5304 274.5809,-115.3907"/>
<g id="a_edge12&#45;headlabel"><a xlink:href="dir_001539_001303.html" target="_top" xlink:title="3">
<text text-anchor="middle" x="278.7308" y="-114.3301" font-family="FreeSans" font-size="10.00" fill="#000000">3</text>
</a>
</g>
</g>
<!-- dir_287f0cc412fb0f226f0848cf15c9d6b2 -->
<g id="node8" class="node">
<title>dir_287f0cc412fb0f226f0848cf15c9d6b2</title>
<g id="a_node8"><a xlink:href="dir_287f0cc412fb0f226f0848cf15c9d6b2.html" target="_top" xlink:title="global">
<polygon fill="none" stroke="#ff0000" points="250,-36 196,-36 196,0 250,0 250,-36"/>
<text text-anchor="middle" x="223" y="-15" font-family="FreeSans" font-size="10.00" fill="#000000">global</text>
</a>
</g>
</g>
<!-- dir_7a2813b065818d899b6d90bad7fadaab&#45;&gt;dir_287f0cc412fb0f226f0848cf15c9d6b2 -->
<g id="edge13" class="edge">
<title>dir_7a2813b065818d899b6d90bad7fadaab&#45;&gt;dir_287f0cc412fb0f226f0848cf15c9d6b2</title>
<path fill="none" stroke="#000000" d="M189.7082,-511.966C167.4129,-502.851 135.9465,-487.8076 113,-468 25.5749,-392.5339 0,-349.4914 0,-234 0,-234 0,-234 0,-162 0,-74.6896 122.1317,-37.7422 185.6277,-24.4332"/>
<polygon fill="#000000" stroke="#000000" points="186.5375,-27.8206 195.6558,-22.4256 185.1633,-20.9568 186.5375,-27.8206"/>
<g id="a_edge13&#45;headlabel"><a xlink:href="dir_001539_001098.html" target="_top" xlink:title="7">
<text text-anchor="middle" x="183.5701" y="-28.3102" font-family="FreeSans" font-size="10.00" fill="#000000">7</text>
</a>
</g>
</g>
<!-- dir_f0cba4de6874e7f0664114c1b42b5174 -->
<g id="node10" class="node">
<title>dir_f0cba4de6874e7f0664114c1b42b5174</title>
<g id="a_node10"><a xlink:href="dir_f0cba4de6874e7f0664114c1b42b5174.html" target="_top" xlink:title="management">
<polygon fill="none" stroke="#ff0000" points="232.5,-468 147.5,-468 147.5,-432 232.5,-432 232.5,-468"/>
<text text-anchor="middle" x="190" y="-447" font-family="FreeSans" font-size="10.00" fill="#000000">management</text>
</a>
</g>
</g>
<!-- dir_7a2813b065818d899b6d90bad7fadaab&#45;&gt;dir_f0cba4de6874e7f0664114c1b42b5174 -->
<g id="edge14" class="edge">
<title>dir_7a2813b065818d899b6d90bad7fadaab&#45;&gt;dir_f0cba4de6874e7f0664114c1b42b5174</title>
<path fill="none" stroke="#000000" d="M210.1868,-503.8314C207.2356,-495.9617 203.7142,-486.5712 200.445,-477.8533"/>
<polygon fill="#000000" stroke="#000000" points="203.6934,-476.5476 196.905,-468.4133 197.1391,-479.0055 203.6934,-476.5476"/>
<g id="a_edge14&#45;headlabel"><a xlink:href="dir_001539_001541.html" target="_top" xlink:title="2">
<text text-anchor="middle" x="207.614" y="-475.9164" font-family="FreeSans" font-size="10.00" fill="#000000">2</text>
</a>
</g>
</g>
<!-- dir_b343cc063131e063c7dd846e13d2a832 -->
<g id="node3" class="node">
<title>dir_b343cc063131e063c7dd846e13d2a832</title>
<g id="a_node3"><a xlink:href="dir_b343cc063131e063c7dd846e13d2a832.html" target="_top" xlink:title="src">
<polygon fill="#ffffff" stroke="#000000" points="244,-612 190,-612 190,-576 244,-576 244,-612"/>
<text text-anchor="middle" x="217" y="-591" font-family="FreeSans" font-size="10.00" fill="#000000">src</text>
</a>
</g>
</g>
<!-- dir_b343cc063131e063c7dd846e13d2a832&#45;&gt;dir_7a2813b065818d899b6d90bad7fadaab -->
<g id="edge19" class="edge">
<title>dir_b343cc063131e063c7dd846e13d2a832&#45;&gt;dir_7a2813b065818d899b6d90bad7fadaab</title>
<path fill="none" stroke="#000000" d="M217,-575.8314C217,-568.131 217,-558.9743 217,-550.4166"/>
<polygon fill="#000000" stroke="#000000" points="220.5001,-550.4132 217,-540.4133 213.5001,-550.4133 220.5001,-550.4132"/>
<g id="a_edge19&#45;headlabel"><a xlink:href="dir_001540_001539.html" target="_top" xlink:title="9">
<text text-anchor="middle" x="223.3393" y="-551.0079" font-family="FreeSans" font-size="10.00" fill="#000000">9</text>
</a>
</g>
</g>
<!-- dir_c818fe51885796c4d4737f4e685c6adb -->
<g id="node4" class="node">
<title>dir_c818fe51885796c4d4737f4e685c6adb</title>
<g id="a_node4"><a xlink:href="dir_c818fe51885796c4d4737f4e685c6adb.html" target="_top" xlink:title="track">
<polygon fill="none" stroke="#ff0000" points="424,-180 370,-180 370,-144 424,-144 424,-180"/>
<text text-anchor="middle" x="397" y="-159" font-family="FreeSans" font-size="10.00" fill="#000000">track</text>
</a>
</g>
</g>
<!-- dir_b343cc063131e063c7dd846e13d2a832&#45;&gt;dir_c818fe51885796c4d4737f4e685c6adb -->
<g id="edge15" class="edge">
<title>dir_b343cc063131e063c7dd846e13d2a832&#45;&gt;dir_c818fe51885796c4d4737f4e685c6adb</title>
<path fill="none" stroke="#000000" d="M237.3981,-575.8154C288.5412,-528.6226 421.2575,-395.8491 465,-252 469.6549,-236.6921 471.9569,-230.4084 465,-216 458.0765,-201.6608 445.2901,-189.9615 432.6575,-181.1646"/>
<polygon fill="#000000" stroke="#000000" points="434.3018,-178.059 424.0104,-175.5415 430.4856,-183.9273 434.3018,-178.059"/>
<g id="a_edge15&#45;headlabel"><a xlink:href="dir_001540_001606.html" target="_top" xlink:title="1">
<text text-anchor="middle" x="438.8631" y="-174.6383" font-family="FreeSans" font-size="10.00" fill="#000000">1</text>
</a>
</g>
</g>
<!-- dir_b343cc063131e063c7dd846e13d2a832&#45;&gt;dir_c1638eb68104f33837f5e92778eb538f -->
<g id="edge16" class="edge">
<title>dir_b343cc063131e063c7dd846e13d2a832&#45;&gt;dir_c1638eb68104f33837f5e92778eb538f</title>
<path fill="none" stroke="#000000" d="M196.525,-575.7135C172.4551,-552.9707 133.2319,-511.769 113,-468 103.9825,-448.4919 100.0281,-424.4381 98.3034,-406.1069"/>
<polygon fill="#000000" stroke="#000000" points="101.7865,-405.7524 97.5242,-396.0527 94.8075,-406.2933 101.7865,-405.7524"/>
<g id="a_edge16&#45;headlabel"><a xlink:href="dir_001540_001566.html" target="_top" xlink:title="3">
<text text-anchor="middle" x="104.895" y="-406.1169" font-family="FreeSans" font-size="10.00" fill="#000000">3</text>
</a>
</g>
</g>
<!-- dir_2a9ff1a2f0a8a0f970d81a1c4a18fc32 -->
<g id="node6" class="node">
<title>dir_2a9ff1a2f0a8a0f970d81a1c4a18fc32</title>
<g id="a_node6"><a xlink:href="dir_2a9ff1a2f0a8a0f970d81a1c4a18fc32.html" target="_top" xlink:title="util">
<polygon fill="none" stroke="#ff0000" points="276,-324 222,-324 222,-288 276,-288 276,-324"/>
<text text-anchor="middle" x="249" y="-303" font-family="FreeSans" font-size="10.00" fill="#000000">util</text>
</a>
</g>
</g>
<!-- dir_b343cc063131e063c7dd846e13d2a832&#45;&gt;dir_2a9ff1a2f0a8a0f970d81a1c4a18fc32 -->
<g id="edge17" class="edge">
<title>dir_b343cc063131e063c7dd846e13d2a832&#45;&gt;dir_2a9ff1a2f0a8a0f970d81a1c4a18fc32</title>
<path fill="none" stroke="#000000" d="M232.9905,-575.9169C240.6538,-566.0371 249.0166,-553.1563 253,-540 274.6917,-468.3573 263.0909,-378.6422 254.8815,-333.9698"/>
<polygon fill="#000000" stroke="#000000" points="258.3145,-333.2873 252.9914,-324.1268 251.4401,-334.6075 258.3145,-333.2873"/>
<g id="a_edge17&#45;headlabel"><a xlink:href="dir_001540_001575.html" target="_top" xlink:title="1">
<text text-anchor="middle" x="261.7806" y="-333.282" font-family="FreeSans" font-size="10.00" fill="#000000">1</text>
</a>
</g>
</g>
<!-- dir_b343cc063131e063c7dd846e13d2a832&#45;&gt;dir_5a1ad02af0bee2bc2f876b255ce01433 -->
<g id="edge18" class="edge">
<title>dir_b343cc063131e063c7dd846e13d2a832&#45;&gt;dir_5a1ad02af0bee2bc2f876b255ce01433</title>
<path fill="none" stroke="#000000" d="M189.7654,-584.3945C168.5562,-575.697 139.6744,-561.0105 121,-540 64.9787,-476.9705 38.7123,-441.3288 61,-360 90.4932,-252.378 115.6457,-228.0921 189,-144 198.3972,-133.2272 210.1631,-123.0258 221.2533,-114.4508"/>
<polygon fill="#000000" stroke="#000000" points="223.6512,-117.0274 229.5519,-108.2279 219.4516,-111.4271 223.6512,-117.0274"/>
<g id="a_edge18&#45;headlabel"><a xlink:href="dir_001540_001303.html" target="_top" xlink:title="15">
<text text-anchor="middle" x="222.4787" y="-118.4555" font-family="FreeSans" font-size="10.00" fill="#000000">15</text>
</a>
</g>
</g>
<!-- dir_b343cc063131e063c7dd846e13d2a832&#45;&gt;dir_287f0cc412fb0f226f0848cf15c9d6b2 -->
<g id="edge20" class="edge">
<title>dir_b343cc063131e063c7dd846e13d2a832&#45;&gt;dir_287f0cc412fb0f226f0848cf15c9d6b2</title>
<path fill="none" stroke="#000000" d="M244.1355,-579.7852C247.4069,-578.3756 250.7432,-577.0725 254,-576 337.2939,-548.5701 372.4731,-584.5641 448,-540 492.5999,-513.6841 522,-501.7849 522,-450 522,-450 522,-450 522,-162 522,-94.2619 459.555,-102.3568 399,-72 353.7511,-49.3162 297.1321,-34.0324 260.5271,-25.6739"/>
<polygon fill="#000000" stroke="#000000" points="260.8235,-22.1544 250.3022,-23.4006 259.3042,-28.9875 260.8235,-22.1544"/>
<g id="a_edge20&#45;headlabel"><a xlink:href="dir_001540_001098.html" target="_top" xlink:title="19">
<text text-anchor="middle" x="264.9486" y="-17.1629" font-family="FreeSans" font-size="10.00" fill="#000000">19</text>
</a>
</g>
</g>
<!-- dir_cea3ee4adc5a56a1765eca0782406a46 -->
<g id="node9" class="node">
<title>dir_cea3ee4adc5a56a1765eca0782406a46</title>
<g id="a_node9"><a xlink:href="dir_cea3ee4adc5a56a1765eca0782406a46.html" target="_top" xlink:title="management">
<polygon fill="none" stroke="#ff0000" points="455.5,-252 370.5,-252 370.5,-216 455.5,-216 455.5,-252"/>
<text text-anchor="middle" x="413" y="-231" font-family="FreeSans" font-size="10.00" fill="#000000">management</text>
</a>
</g>
</g>
<!-- dir_b343cc063131e063c7dd846e13d2a832&#45;&gt;dir_cea3ee4adc5a56a1765eca0782406a46 -->
<g id="edge21" class="edge">
<title>dir_b343cc063131e063c7dd846e13d2a832&#45;&gt;dir_cea3ee4adc5a56a1765eca0782406a46</title>
<path fill="none" stroke="#000000" d="M244.1654,-579.874C247.4315,-578.4485 250.7583,-577.1174 254,-576 326.1934,-551.1157 366.6842,-592.6428 422,-540 451.9883,-511.4609 446,-491.3978 446,-450 446,-450 446,-450 446,-378 446,-336.8829 433.059,-290.7926 423.3848,-262.082"/>
<polygon fill="#000000" stroke="#000000" points="426.5857,-260.6302 419.9985,-252.3321 419.9732,-262.9269 426.5857,-260.6302"/>
<g id="a_edge21&#45;headlabel"><a xlink:href="dir_001540_001578.html" target="_top" xlink:title="1">
<text text-anchor="middle" x="430.4471" y="-260.0943" font-family="FreeSans" font-size="10.00" fill="#000000">1</text>
</a>
</g>
</g>
<!-- dir_c818fe51885796c4d4737f4e685c6adb&#45;&gt;dir_5a1ad02af0bee2bc2f876b255ce01433 -->
<g id="edge1" class="edge">
<title>dir_c818fe51885796c4d4737f4e685c6adb&#45;&gt;dir_5a1ad02af0bee2bc2f876b255ce01433</title>
<path fill="none" stroke="#000000" d="M369.6742,-147.9468C348.7397,-137.1804 319.5708,-122.1793 296.1566,-110.1377"/>
<polygon fill="#000000" stroke="#000000" points="297.6629,-106.9766 287.1692,-105.5156 294.4614,-113.2017 297.6629,-106.9766"/>
<g id="a_edge1&#45;headlabel"><a xlink:href="dir_001606_001303.html" target="_top" xlink:title="9">
<text text-anchor="middle" x="302.158" y="-103.0956" font-family="FreeSans" font-size="10.00" fill="#000000">9</text>
</a>
</g>
</g>
<!-- dir_c818fe51885796c4d4737f4e685c6adb&#45;&gt;dir_287f0cc412fb0f226f0848cf15c9d6b2 -->
<g id="edge2" class="edge">
<title>dir_c818fe51885796c4d4737f4e685c6adb&#45;&gt;dir_287f0cc412fb0f226f0848cf15c9d6b2</title>
<path fill="none" stroke="#000000" d="M377.7202,-143.8685C357.7278,-125.2956 325.3456,-95.8465 296,-72 283.5746,-61.9031 269.5186,-51.3184 257.0813,-42.2221"/>
<polygon fill="#000000" stroke="#000000" points="258.9178,-39.2302 248.7695,-36.1868 254.8049,-44.8945 258.9178,-39.2302"/>
<g id="a_edge2&#45;headlabel"><a xlink:href="dir_001606_001098.html" target="_top" xlink:title="59">
<text text-anchor="middle" x="263.4947" y="-36.0448" font-family="FreeSans" font-size="10.00" fill="#000000">59</text>
</a>
</g>
</g>
<!-- dir_c1638eb68104f33837f5e92778eb538f&#45;&gt;dir_2a9ff1a2f0a8a0f970d81a1c4a18fc32 -->
<g id="edge3" class="edge">
<title>dir_c1638eb68104f33837f5e92778eb538f&#45;&gt;dir_2a9ff1a2f0a8a0f970d81a1c4a18fc32</title>
<path fill="none" stroke="#000000" d="M124.1746,-365.1278C148.8471,-353.4408 185.4251,-336.1144 212.6142,-323.2354"/>
<polygon fill="#000000" stroke="#000000" points="214.2658,-326.3259 221.8049,-318.8819 211.2692,-319.9997 214.2658,-326.3259"/>
<g id="a_edge3&#45;headlabel"><a xlink:href="dir_001566_001575.html" target="_top" xlink:title="14">
<text text-anchor="middle" x="212.2327" y="-327.4306" font-family="FreeSans" font-size="10.00" fill="#000000">14</text>
</a>
</g>
</g>
<!-- dir_c1638eb68104f33837f5e92778eb538f&#45;&gt;dir_5a1ad02af0bee2bc2f876b255ce01433 -->
<g id="edge4" class="edge">
<title>dir_c1638eb68104f33837f5e92778eb538f&#45;&gt;dir_5a1ad02af0bee2bc2f876b255ce01433</title>
<path fill="none" stroke="#000000" d="M104.3356,-359.9196C121.0578,-319.586 164.4138,-219.8417 214,-144 220.1626,-134.5744 227.5947,-124.7926 234.534,-116.1861"/>
<polygon fill="#000000" stroke="#000000" points="237.3332,-118.2926 240.9787,-108.3446 231.9253,-113.848 237.3332,-118.2926"/>
<g id="a_edge4&#45;headlabel"><a xlink:href="dir_001566_001303.html" target="_top" xlink:title="29">
<text text-anchor="middle" x="237.2444" y="-119.8724" font-family="FreeSans" font-size="10.00" fill="#000000">29</text>
</a>
</g>
</g>
<!-- dir_c1638eb68104f33837f5e92778eb538f&#45;&gt;dir_287f0cc412fb0f226f0848cf15c9d6b2 -->
<g id="edge5" class="edge">
<title>dir_c1638eb68104f33837f5e92778eb538f&#45;&gt;dir_287f0cc412fb0f226f0848cf15c9d6b2</title>
<path fill="none" stroke="#000000" d="M90.9687,-359.8529C75.364,-309.2861 38.9751,-164.4454 100,-72 118.995,-43.2248 157.0736,-29.6755 185.8584,-23.363"/>
<polygon fill="#000000" stroke="#000000" points="186.864,-26.7317 195.9902,-21.35 185.4999,-19.8659 186.864,-26.7317"/>
<g id="a_edge5&#45;headlabel"><a xlink:href="dir_001566_001098.html" target="_top" xlink:title="130">
<text text-anchor="middle" x="183.8916" y="-27.217" font-family="FreeSans" font-size="10.00" fill="#000000">130</text>
</a>
</g>
</g>
<!-- dir_2a9ff1a2f0a8a0f970d81a1c4a18fc32&#45;&gt;dir_c818fe51885796c4d4737f4e685c6adb -->
<g id="edge6" class="edge">
<title>dir_2a9ff1a2f0a8a0f970d81a1c4a18fc32&#45;&gt;dir_c818fe51885796c4d4737f4e685c6adb</title>
<path fill="none" stroke="#000000" d="M267.7443,-287.7623C293.8775,-262.3354 341.3713,-216.1253 370.9388,-187.3569"/>
<polygon fill="#000000" stroke="#000000" points="373.6814,-189.5717 378.4079,-180.0896 368.7999,-184.5546 373.6814,-189.5717"/>
<g id="a_edge6&#45;headlabel"><a xlink:href="dir_001575_001606.html" target="_top" xlink:title="1">
<text text-anchor="middle" x="373.085" y="-191.1134" font-family="FreeSans" font-size="10.00" fill="#000000">1</text>
</a>
</g>
</g>
<!-- dir_2a9ff1a2f0a8a0f970d81a1c4a18fc32&#45;&gt;dir_5a1ad02af0bee2bc2f876b255ce01433 -->
<g id="edge7" class="edge">
<title>dir_2a9ff1a2f0a8a0f970d81a1c4a18fc32&#45;&gt;dir_5a1ad02af0bee2bc2f876b255ce01433</title>
<path fill="none" stroke="#000000" d="M249.6683,-287.9555C251.0595,-250.3938 254.2758,-163.5541 255.9478,-118.4103"/>
<polygon fill="#000000" stroke="#000000" points="259.4554,-118.2678 256.328,-108.1451 252.4601,-118.0086 259.4554,-118.2678"/>
<g id="a_edge7&#45;headlabel"><a xlink:href="dir_001575_001303.html" target="_top" xlink:title="10">
<text text-anchor="middle" x="262.1597" y="-118.965" font-family="FreeSans" font-size="10.00" fill="#000000">10</text>
</a>
</g>
</g>
<!-- dir_2a9ff1a2f0a8a0f970d81a1c4a18fc32&#45;&gt;dir_287f0cc412fb0f226f0848cf15c9d6b2 -->
<g id="edge8" class="edge">
<title>dir_2a9ff1a2f0a8a0f970d81a1c4a18fc32&#45;&gt;dir_287f0cc412fb0f226f0848cf15c9d6b2</title>
<path fill="none" stroke="#000000" d="M244.3707,-287.8902C234.8477,-248.7076 214.2555,-153.0538 218,-72 218.3807,-63.7603 219.0864,-54.8359 219.85,-46.6604"/>
<polygon fill="#000000" stroke="#000000" points="223.3571,-46.7626 220.8649,-36.4651 216.3915,-46.0692 223.3571,-46.7626"/>
<g id="a_edge8&#45;headlabel"><a xlink:href="dir_001575_001098.html" target="_top" xlink:title="45">
<text text-anchor="middle" x="225.8264" y="-47.6207" font-family="FreeSans" font-size="10.00" fill="#000000">45</text>
</a>
</g>
</g>
<!-- dir_2a9ff1a2f0a8a0f970d81a1c4a18fc32&#45;&gt;dir_cea3ee4adc5a56a1765eca0782406a46 -->
<g id="edge9" class="edge">
<title>dir_2a9ff1a2f0a8a0f970d81a1c4a18fc32&#45;&gt;dir_cea3ee4adc5a56a1765eca0782406a46</title>
<path fill="none" stroke="#000000" d="M276.0813,-294.1107C299.4583,-283.8476 333.8563,-268.746 362.3254,-256.2474"/>
<polygon fill="#000000" stroke="#000000" points="363.9789,-259.344 371.7284,-252.1193 361.1649,-252.9345 363.9789,-259.344"/>
<g id="a_edge9&#45;headlabel"><a xlink:href="dir_001575_001578.html" target="_top" xlink:title="2">
<text text-anchor="middle" x="361.8289" y="-260.3887" font-family="FreeSans" font-size="10.00" fill="#000000">2</text>
</a>
</g>
</g>
<!-- dir_5a1ad02af0bee2bc2f876b255ce01433&#45;&gt;dir_287f0cc412fb0f226f0848cf15c9d6b2 -->
<g id="edge10" class="edge">
<title>dir_5a1ad02af0bee2bc2f876b255ce01433&#45;&gt;dir_287f0cc412fb0f226f0848cf15c9d6b2</title>
<path fill="none" stroke="#000000" d="M248.4204,-71.8314C244.6642,-63.8771 240.1743,-54.369 236.0202,-45.5723"/>
<polygon fill="#000000" stroke="#000000" points="239.1301,-43.9612 231.6952,-36.4133 232.8004,-46.9503 239.1301,-43.9612"/>
<g id="a_edge10&#45;headlabel"><a xlink:href="dir_001303_001098.html" target="_top" xlink:title="647">
<text text-anchor="middle" x="243.2324" y="-42.9993" font-family="FreeSans" font-size="10.00" fill="#000000">647</text>
</a>
</g>
</g>
<!-- dir_cea3ee4adc5a56a1765eca0782406a46&#45;&gt;dir_c818fe51885796c4d4737f4e685c6adb -->
<g id="edge22" class="edge">
<title>dir_cea3ee4adc5a56a1765eca0782406a46&#45;&gt;dir_c818fe51885796c4d4737f4e685c6adb</title>
<path fill="none" stroke="#000000" d="M408.9625,-215.8314C407.2513,-208.131 405.2165,-198.9743 403.3148,-190.4166"/>
<polygon fill="#000000" stroke="#000000" points="406.6779,-189.4159 401.0918,-180.4133 399.8446,-190.9344 406.6779,-189.4159"/>
<g id="a_edge22&#45;headlabel"><a xlink:href="dir_001578_001606.html" target="_top" xlink:title="25">
<text text-anchor="middle" x="410.2292" y="-189.309" font-family="FreeSans" font-size="10.00" fill="#000000">25</text>
</a>
</g>
</g>
<!-- dir_cea3ee4adc5a56a1765eca0782406a46&#45;&gt;dir_5a1ad02af0bee2bc2f876b255ce01433 -->
<g id="edge23" class="edge">
<title>dir_cea3ee4adc5a56a1765eca0782406a46&#45;&gt;dir_5a1ad02af0bee2bc2f876b255ce01433</title>
<path fill="none" stroke="#000000" d="M394.2507,-215.8808C375.2148,-197.5694 344.8073,-168.5508 318,-144 307.444,-134.3326 295.701,-123.8695 285.3591,-114.7507"/>
<polygon fill="#000000" stroke="#000000" points="287.5876,-112.0496 277.7666,-108.0749 282.9654,-117.3066 287.5876,-112.0496"/>
<g id="a_edge23&#45;headlabel"><a xlink:href="dir_001578_001303.html" target="_top" xlink:title="102">
<text text-anchor="middle" x="292.1619" y="-109.2909" font-family="FreeSans" font-size="10.00" fill="#000000">102</text>
</a>
</g>
</g>
<!-- dir_cea3ee4adc5a56a1765eca0782406a46&#45;&gt;dir_287f0cc412fb0f226f0848cf15c9d6b2 -->
<g id="edge24" class="edge">
<title>dir_cea3ee4adc5a56a1765eca0782406a46&#45;&gt;dir_287f0cc412fb0f226f0848cf15c9d6b2</title>
<path fill="none" stroke="#000000" d="M423.977,-215.7982C433.8286,-196.9079 445.0343,-166.9682 433,-144 397.9246,-77.0561 310.3125,-42.3298 260.0323,-27.3556"/>
<polygon fill="#000000" stroke="#000000" points="260.7786,-23.9287 250.2013,-24.538 258.8499,-30.6578 260.7786,-23.9287"/>
<g id="a_edge24&#45;headlabel"><a xlink:href="dir_001578_001098.html" target="_top" xlink:title="50">
<text text-anchor="middle" x="265.0163" y="-19.1896" font-family="FreeSans" font-size="10.00" fill="#000000">50</text>
</a>
</g>
</g>
<!-- dir_f0cba4de6874e7f0664114c1b42b5174&#45;&gt;dir_c1638eb68104f33837f5e92778eb538f -->
<g id="edge25" class="edge">
<title>dir_f0cba4de6874e7f0664114c1b42b5174&#45;&gt;dir_c1638eb68104f33837f5e92778eb538f</title>
<path fill="none" stroke="#000000" d="M166.5322,-431.8314C154.9673,-422.8779 140.8596,-411.9558 128.3817,-402.2955"/>
<polygon fill="#000000" stroke="#000000" points="130.5102,-399.5171 120.4603,-396.1628 126.225,-405.0521 130.5102,-399.5171"/>
<g id="a_edge25&#45;headlabel"><a xlink:href="dir_001541_001566.html" target="_top" xlink:title="8">
<text text-anchor="middle" x="135.0906" y="-396.4725" font-family="FreeSans" font-size="10.00" fill="#000000">8</text>
</a>
</g>
</g>
<!-- dir_f0cba4de6874e7f0664114c1b42b5174&#45;&gt;dir_2a9ff1a2f0a8a0f970d81a1c4a18fc32 -->
<g id="edge26" class="edge">
<title>dir_f0cba4de6874e7f0664114c1b42b5174&#45;&gt;dir_2a9ff1a2f0a8a0f970d81a1c4a18fc32</title>
<path fill="none" stroke="#000000" d="M197.4724,-431.7623C207.6243,-406.9846 225.8624,-362.4714 237.6942,-333.5939"/>
<polygon fill="#000000" stroke="#000000" points="241.0356,-334.67 241.5883,-324.0896 234.5582,-332.0161 241.0356,-334.67"/>
<g id="a_edge26&#45;headlabel"><a xlink:href="dir_001541_001575.html" target="_top" xlink:title="2">
<text text-anchor="middle" x="242.3001" y="-336.0727" font-family="FreeSans" font-size="10.00" fill="#000000">2</text>
</a>
</g>
</g>
<!-- dir_f0cba4de6874e7f0664114c1b42b5174&#45;&gt;dir_5a1ad02af0bee2bc2f876b255ce01433 -->
<g id="edge27" class="edge">
<title>dir_f0cba4de6874e7f0664114c1b42b5174&#45;&gt;dir_5a1ad02af0bee2bc2f876b255ce01433</title>
<path fill="none" stroke="#000000" d="M192.0985,-431.9471C195.6896,-401.9479 203.5483,-339.9849 213,-288 224.0837,-227.0387 240.7178,-156.3385 250.0361,-118.0868"/>
<polygon fill="#000000" stroke="#000000" points="253.4797,-118.7389 252.4596,-108.1933 246.6807,-117.0734 253.4797,-118.7389"/>
<g id="a_edge27&#45;headlabel"><a xlink:href="dir_001541_001303.html" target="_top" xlink:title="4">
<text text-anchor="middle" x="255.3823" y="-119.9058" font-family="FreeSans" font-size="10.00" fill="#000000">4</text>
</a>
</g>
</g>
<!-- dir_f0cba4de6874e7f0664114c1b42b5174&#45;&gt;dir_287f0cc412fb0f226f0848cf15c9d6b2 -->
<g id="edge28" class="edge">
<title>dir_f0cba4de6874e7f0664114c1b42b5174&#45;&gt;dir_287f0cc412fb0f226f0848cf15c9d6b2</title>
<path fill="none" stroke="#000000" d="M178.9489,-431.9789C157.8705,-395.8348 114,-311.3206 114,-234 114,-234 114,-234 114,-162 114,-111.9186 156.4327,-68.274 188.3479,-42.5303"/>
<polygon fill="#000000" stroke="#000000" points="190.893,-44.9832 196.6141,-36.0658 186.5808,-39.4691 190.893,-44.9832"/>
<g id="a_edge28&#45;headlabel"><a xlink:href="dir_001541_001098.html" target="_top" xlink:title="8">
<text text-anchor="middle" x="189.8105" y="-46.4341" font-family="FreeSans" font-size="10.00" fill="#000000">8</text>
</a>
</g>
</g>
</g>
</svg>
