<?xml version="1.0" encoding="UTF-8" standalone="no"?>
<!DOCTYPE svg PUBLIC "-//W3C//DTD SVG 1.1//EN"
 "http://www.w3.org/Graphics/SVG/1.1/DTD/svg11.dtd">
<!-- Generated by graphviz version 2.40.1 (20161225.0304)
 -->
<!-- Title: geant4/tree/geant4&#45;10.6&#45;release/examples/extended/medical/electronScattering Pages: 1 -->
<svg width="310pt" height="232pt"
 viewBox="0.00 0.00 310.00 232.00" xmlns="http://www.w3.org/2000/svg" xmlns:xlink="http://www.w3.org/1999/xlink">
<g id="graph0" class="graph" transform="scale(1 1) rotate(0) translate(4 228)">
<title>geant4/tree/geant4&#45;10.6&#45;release/examples/extended/medical/electronScattering</title>
<g id="clust1" class="cluster">
<title>clusterdir_5459f118447c637d86bfd512adef126b</title>
<g id="a_clust1"><a xlink:href="dir_5459f118447c637d86bfd512adef126b.html" target="_top" xlink:title="medical">
<polygon fill="#ddddee" stroke="#000000" points="8,-56 8,-216 294,-216 294,-56 8,-56"/>
<text text-anchor="middle" x="151" y="-203" font-family="FreeSans" font-size="10.00" fill="#000000">medical</text>
</a>
</g>
</g>
<g id="clust2" class="cluster">
<title>clusterdir_c7cdcae6b2043d27d740323c677b9361</title>
<g id="a_clust2"><a xlink:href="dir_c7cdcae6b2043d27d740323c677b9361.html" target="_top">
<polygon fill="#eeeeff" stroke="#000000" points="16,-64 16,-188 286,-188 286,-64 16,-64"/>
</a>
</g>
</g>
<!-- dir_c7cdcae6b2043d27d740323c677b9361 -->
<g id="node1" class="node">
<title>dir_c7cdcae6b2043d27d740323c677b9361</title>
<text text-anchor="middle" x="223" y="-159" font-family="FreeSans" font-size="10.00" fill="#000000">electronScattering</text>
</g>
<!-- dir_8dbbf6c85c8ca0b78b531287c956fad4 -->
<g id="node5" class="node">
<title>dir_8dbbf6c85c8ca0b78b531287c956fad4</title>
<g id="a_node5"><a xlink:href="dir_8dbbf6c85c8ca0b78b531287c956fad4.html" target="_top" xlink:title="source">
<polygon fill="none" stroke="#ff0000" points="133,-36 79,-36 79,0 133,0 133,-36"/>
<text text-anchor="middle" x="106" y="-15" font-family="FreeSans" font-size="10.00" fill="#000000">source</text>
</a>
</g>
</g>
<!-- dir_c7cdcae6b2043d27d740323c677b9361&#45;&gt;dir_8dbbf6c85c8ca0b78b531287c956fad4 -->
<g id="edge4" class="edge">
<title>dir_c7cdcae6b2043d27d740323c677b9361&#45;&gt;dir_8dbbf6c85c8ca0b78b531287c956fad4</title>
<path fill="none" stroke="#000000" d="M208.1819,-143.7623C187.6984,-118.5518 150.6146,-72.9103 127.2023,-44.0952"/>
<polygon fill="#000000" stroke="#000000" points="129.7202,-41.6437 120.6978,-36.0896 124.2874,-46.0579 129.7202,-41.6437"/>
<g id="a_edge4&#45;headlabel"><a xlink:href="dir_000654_001094.html" target="_top" xlink:title="201">
<text text-anchor="middle" x="134.1905" y="-39.6431" font-family="FreeSans" font-size="10.00" fill="#000000">201</text>
</a>
</g>
</g>
<!-- dir_d2fe773625d7ab4f2438b72785a2e18b -->
<g id="node2" class="node">
<title>dir_d2fe773625d7ab4f2438b72785a2e18b</title>
<g id="a_node2"><a xlink:href="dir_d2fe773625d7ab4f2438b72785a2e18b.html" target="_top" xlink:title="include">
<polygon fill="#ffffff" stroke="#000000" points="78,-108 24,-108 24,-72 78,-72 78,-108"/>
<text text-anchor="middle" x="51" y="-87" font-family="FreeSans" font-size="10.00" fill="#000000">include</text>
</a>
</g>
</g>
<!-- dir_d2fe773625d7ab4f2438b72785a2e18b&#45;&gt;dir_8dbbf6c85c8ca0b78b531287c956fad4 -->
<g id="edge1" class="edge">
<title>dir_d2fe773625d7ab4f2438b72785a2e18b&#45;&gt;dir_8dbbf6c85c8ca0b78b531287c956fad4</title>
<path fill="none" stroke="#000000" d="M64.8788,-71.8314C71.2136,-63.5386 78.8384,-53.557 85.7926,-44.4533"/>
<polygon fill="#000000" stroke="#000000" points="88.6452,-46.4847 91.9343,-36.4133 83.0825,-42.2353 88.6452,-46.4847"/>
<g id="a_edge1&#45;headlabel"><a xlink:href="dir_000767_001094.html" target="_top" xlink:title="38">
<text text-anchor="middle" x="88.7195" y="-48.0647" font-family="FreeSans" font-size="10.00" fill="#000000">38</text>
</a>
</g>
</g>
<!-- dir_337d41ab9cef8ef574e67aabeca00f79 -->
<g id="node3" class="node">
<title>dir_337d41ab9cef8ef574e67aabeca00f79</title>
<g id="a_node3"><a xlink:href="dir_337d41ab9cef8ef574e67aabeca00f79.html" target="_top" xlink:title="results">
<polygon fill="#ffffff" stroke="#000000" points="150,-180 96,-180 96,-144 150,-144 150,-180"/>
<text text-anchor="middle" x="123" y="-159" font-family="FreeSans" font-size="10.00" fill="#000000">results</text>
</a>
</g>
</g>
<!-- dir_0adbb99b80fb9a66bcb979ef506aa53d -->
<g id="node4" class="node">
<title>dir_0adbb99b80fb9a66bcb979ef506aa53d</title>
<g id="a_node4"><a xlink:href="dir_0adbb99b80fb9a66bcb979ef506aa53d.html" target="_top" xlink:title="src">
<polygon fill="#ffffff" stroke="#000000" points="78,-180 24,-180 24,-144 78,-144 78,-180"/>
<text text-anchor="middle" x="51" y="-159" font-family="FreeSans" font-size="10.00" fill="#000000">src</text>
</a>
</g>
</g>
<!-- dir_0adbb99b80fb9a66bcb979ef506aa53d&#45;&gt;dir_d2fe773625d7ab4f2438b72785a2e18b -->
<g id="edge2" class="edge">
<title>dir_0adbb99b80fb9a66bcb979ef506aa53d&#45;&gt;dir_d2fe773625d7ab4f2438b72785a2e18b</title>
<path fill="none" stroke="#000000" d="M51,-143.8314C51,-136.131 51,-126.9743 51,-118.4166"/>
<polygon fill="#000000" stroke="#000000" points="54.5001,-118.4132 51,-108.4133 47.5001,-118.4133 54.5001,-118.4132"/>
<g id="a_edge2&#45;headlabel"><a xlink:href="dir_000655_000767.html" target="_top" xlink:title="6">
<text text-anchor="middle" x="57.3393" y="-119.0079" font-family="FreeSans" font-size="10.00" fill="#000000">6</text>
</a>
</g>
</g>
<!-- dir_0adbb99b80fb9a66bcb979ef506aa53d&#45;&gt;dir_8dbbf6c85c8ca0b78b531287c956fad4 -->
<g id="edge3" class="edge">
<title>dir_0adbb99b80fb9a66bcb979ef506aa53d&#45;&gt;dir_8dbbf6c85c8ca0b78b531287c956fad4</title>
<path fill="none" stroke="#000000" d="M65.8853,-143.5185C73.2462,-133.5296 81.672,-120.6716 87,-108 95.3306,-88.1876 100.1533,-64.3321 102.8541,-46.1605"/>
<polygon fill="#000000" stroke="#000000" points="106.3302,-46.5721 104.2095,-36.1917 99.3941,-45.6289 106.3302,-46.5721"/>
<g id="a_edge3&#45;headlabel"><a xlink:href="dir_000655_001094.html" target="_top" xlink:title="157">
<text text-anchor="middle" x="108.6594" y="-47.5164" font-family="FreeSans" font-size="10.00" fill="#000000">157</text>
</a>
</g>
</g>
</g>
</svg>
