<?xml version="1.0" encoding="UTF-8" standalone="no"?>
<!DOCTYPE svg PUBLIC "-//W3C//DTD SVG 1.1//EN"
 "http://www.w3.org/Graphics/SVG/1.1/DTD/svg11.dtd">
<!-- Generated by graphviz version 2.40.1 (20161225.0304)
 -->
<!-- Title: geant4/tree/geant4&#45;10.6&#45;release/source/processes/electromagnetic/adjoint/src Pages: 1 -->
<svg width="612pt" height="512pt"
 viewBox="0.00 0.00 612.00 512.00" xmlns="http://www.w3.org/2000/svg" xmlns:xlink="http://www.w3.org/1999/xlink">
<g id="graph0" class="graph" transform="scale(1 1) rotate(0) translate(4 508)">
<title>geant4/tree/geant4&#45;10.6&#45;release/source/processes/electromagnetic/adjoint/src</title>
<g id="clust1" class="cluster">
<title>clusterdir_b1e1eacf663f69296334ab4ea6efdecf</title>
<g id="a_clust1"><a xlink:href="dir_b1e1eacf663f69296334ab4ea6efdecf.html" target="_top" xlink:title="adjoint">
<polygon fill="#ddddee" stroke="#000000" points="295,-424 295,-496 365,-496 365,-424 295,-424"/>
<text text-anchor="middle" x="330" y="-483" font-family="FreeSans" font-size="10.00" fill="#000000">adjoint</text>
</a>
</g>
</g>
<!-- dir_1873bf92a95dfce601bf01f97f3c8bc6 -->
<g id="node1" class="node">
<title>dir_1873bf92a95dfce601bf01f97f3c8bc6</title>
<g id="a_node1"><a xlink:href="dir_1873bf92a95dfce601bf01f97f3c8bc6.html" target="_top" xlink:title="src">
<polygon fill="#eeeeff" stroke="#000000" points="357,-468 303,-468 303,-432 357,-432 357,-468"/>
<text text-anchor="middle" x="330" y="-447" font-family="FreeSans" font-size="10.00" fill="#000000">src</text>
</a>
</g>
</g>
<!-- dir_c818fe51885796c4d4737f4e685c6adb -->
<g id="node2" class="node">
<title>dir_c818fe51885796c4d4737f4e685c6adb</title>
<g id="a_node2"><a xlink:href="dir_c818fe51885796c4d4737f4e685c6adb.html" target="_top" xlink:title="track">
<polygon fill="none" stroke="#ff0000" points="217,-180 163,-180 163,-144 217,-144 217,-180"/>
<text text-anchor="middle" x="190" y="-159" font-family="FreeSans" font-size="10.00" fill="#000000">track</text>
</a>
</g>
</g>
<!-- dir_1873bf92a95dfce601bf01f97f3c8bc6&#45;&gt;dir_c818fe51885796c4d4737f4e685c6adb -->
<g id="edge27" class="edge">
<title>dir_1873bf92a95dfce601bf01f97f3c8bc6&#45;&gt;dir_c818fe51885796c4d4737f4e685c6adb</title>
<path fill="none" stroke="#000000" d="M302.7707,-439.5026C263.0208,-422.3952 191.2038,-384.2376 167,-324 149.0513,-279.33 164.9455,-222.8092 177.741,-189.7033"/>
<polygon fill="#000000" stroke="#000000" points="181.0715,-190.8028 181.5716,-180.2198 174.581,-188.1811 181.0715,-190.8028"/>
<g id="a_edge27&#45;headlabel"><a xlink:href="dir_001400_001606.html" target="_top" xlink:title="21">
<text text-anchor="middle" x="182.3579" y="-192.1992" font-family="FreeSans" font-size="10.00" fill="#000000">21</text>
</a>
</g>
</g>
<!-- dir_1986c72a84db70e0042b5c8b1574b7ab -->
<g id="node3" class="node">
<title>dir_1986c72a84db70e0042b5c8b1574b7ab</title>
<g id="a_node3"><a xlink:href="dir_1986c72a84db70e0042b5c8b1574b7ab.html" target="_top" xlink:title="utils">
<polygon fill="none" stroke="#ff0000" points="348,-252 294,-252 294,-216 348,-216 348,-252"/>
<text text-anchor="middle" x="321" y="-231" font-family="FreeSans" font-size="10.00" fill="#000000">utils</text>
</a>
</g>
</g>
<!-- dir_1873bf92a95dfce601bf01f97f3c8bc6&#45;&gt;dir_1986c72a84db70e0042b5c8b1574b7ab -->
<g id="edge28" class="edge">
<title>dir_1873bf92a95dfce601bf01f97f3c8bc6&#45;&gt;dir_1986c72a84db70e0042b5c8b1574b7ab</title>
<path fill="none" stroke="#000000" d="M333.8413,-431.6001C335.8166,-421.2025 338.0123,-407.9346 339,-396 342.8794,-349.1258 334.1336,-294.8292 327.5214,-262.5078"/>
<polygon fill="#000000" stroke="#000000" points="330.8827,-261.4866 325.3821,-252.4316 324.0353,-262.9405 330.8827,-261.4866"/>
<g id="a_edge28&#45;headlabel"><a xlink:href="dir_001400_001439.html" target="_top" xlink:title="9">
<text text-anchor="middle" x="334.4065" y="-261.4132" font-family="FreeSans" font-size="10.00" fill="#000000">9</text>
</a>
</g>
</g>
<!-- dir_6ef637485d33ce49db9c41c4c2493c8e -->
<g id="node4" class="node">
<title>dir_6ef637485d33ce49db9c41c4c2493c8e</title>
<g id="a_node4"><a xlink:href="dir_6ef637485d33ce49db9c41c4c2493c8e.html" target="_top" xlink:title="standard">
<polygon fill="none" stroke="#ff0000" points="237.5,-324 176.5,-324 176.5,-288 237.5,-288 237.5,-324"/>
<text text-anchor="middle" x="207" y="-303" font-family="FreeSans" font-size="10.00" fill="#000000">standard</text>
</a>
</g>
</g>
<!-- dir_1873bf92a95dfce601bf01f97f3c8bc6&#45;&gt;dir_6ef637485d33ce49db9c41c4c2493c8e -->
<g id="edge29" class="edge">
<title>dir_1873bf92a95dfce601bf01f97f3c8bc6&#45;&gt;dir_6ef637485d33ce49db9c41c4c2493c8e</title>
<path fill="none" stroke="#000000" d="M305.8672,-431.9148C293.51,-422.0343 278.6556,-409.1537 267,-396 249.7403,-376.5218 233.584,-351.7572 222.3947,-333.1381"/>
<polygon fill="#000000" stroke="#000000" points="225.2647,-331.1149 217.1673,-324.2824 219.2366,-334.6732 225.2647,-331.1149"/>
<g id="a_edge29&#45;headlabel"><a xlink:href="dir_001400_001436.html" target="_top" xlink:title="7">
<text text-anchor="middle" x="229.537" y="-329.7671" font-family="FreeSans" font-size="10.00" fill="#000000">7</text>
</a>
</g>
</g>
<!-- dir_28579dd7847e6f48edd25168dff4e45b -->
<g id="node5" class="node">
<title>dir_28579dd7847e6f48edd25168dff4e45b</title>
<g id="a_node5"><a xlink:href="dir_28579dd7847e6f48edd25168dff4e45b.html" target="_top" xlink:title="materials">
<polygon fill="none" stroke="#ff0000" points="413,-108 349,-108 349,-72 413,-72 413,-108"/>
<text text-anchor="middle" x="381" y="-87" font-family="FreeSans" font-size="10.00" fill="#000000">materials</text>
</a>
</g>
</g>
<!-- dir_1873bf92a95dfce601bf01f97f3c8bc6&#45;&gt;dir_28579dd7847e6f48edd25168dff4e45b -->
<g id="edge30" class="edge">
<title>dir_1873bf92a95dfce601bf01f97f3c8bc6&#45;&gt;dir_28579dd7847e6f48edd25168dff4e45b</title>
<path fill="none" stroke="#000000" d="M349.1687,-431.6583C358.889,-421.7076 370.4197,-408.8416 379,-396 436.5901,-309.808 452.9996,-282.7116 467,-180 469.161,-164.1466 474.7417,-158.0024 467,-144 457.3554,-126.5559 439.4552,-113.9872 422.4727,-105.39"/>
<polygon fill="#000000" stroke="#000000" points="423.7287,-102.1128 413.1907,-101.0167 420.7451,-108.4451 423.7287,-102.1128"/>
<g id="a_edge30&#45;headlabel"><a xlink:href="dir_001400_001296.html" target="_top" xlink:title="7">
<text text-anchor="middle" x="428.1906" y="-98.0764" font-family="FreeSans" font-size="10.00" fill="#000000">7</text>
</a>
</g>
</g>
<!-- dir_5a1ad02af0bee2bc2f876b255ce01433 -->
<g id="node6" class="node">
<title>dir_5a1ad02af0bee2bc2f876b255ce01433</title>
<g id="a_node6"><a xlink:href="dir_5a1ad02af0bee2bc2f876b255ce01433.html" target="_top" xlink:title="particles">
<polygon fill="none" stroke="#ff0000" points="220,-108 160,-108 160,-72 220,-72 220,-108"/>
<text text-anchor="middle" x="190" y="-87" font-family="FreeSans" font-size="10.00" fill="#000000">particles</text>
</a>
</g>
</g>
<!-- dir_1873bf92a95dfce601bf01f97f3c8bc6&#45;&gt;dir_5a1ad02af0bee2bc2f876b255ce01433 -->
<g id="edge31" class="edge">
<title>dir_1873bf92a95dfce601bf01f97f3c8bc6&#45;&gt;dir_5a1ad02af0bee2bc2f876b255ce01433</title>
<path fill="none" stroke="#000000" d="M302.9947,-444.3289C224.1811,-427.0088 0,-371.9467 0,-306 0,-306 0,-306 0,-234 0,-159.2287 94.6162,-118.277 150.3117,-100.6482"/>
<polygon fill="#000000" stroke="#000000" points="151.3517,-103.9902 159.8939,-97.7227 149.3077,-97.2952 151.3517,-103.9902"/>
<g id="a_edge31&#45;headlabel"><a xlink:href="dir_001400_001303.html" target="_top" xlink:title="39">
<text text-anchor="middle" x="148.7428" y="-104.7552" font-family="FreeSans" font-size="10.00" fill="#000000">39</text>
</a>
</g>
</g>
<!-- dir_4e91ac776355fe6d1b4d7f616ca44234 -->
<g id="node7" class="node">
<title>dir_4e91ac776355fe6d1b4d7f616ca44234</title>
<g id="a_node7"><a xlink:href="dir_4e91ac776355fe6d1b4d7f616ca44234.html" target="_top" xlink:title="cuts">
<polygon fill="none" stroke="#ff0000" points="441,-180 387,-180 387,-144 441,-144 441,-180"/>
<text text-anchor="middle" x="414" y="-159" font-family="FreeSans" font-size="10.00" fill="#000000">cuts</text>
</a>
</g>
</g>
<!-- dir_1873bf92a95dfce601bf01f97f3c8bc6&#45;&gt;dir_4e91ac776355fe6d1b4d7f616ca44234 -->
<g id="edge32" class="edge">
<title>dir_1873bf92a95dfce601bf01f97f3c8bc6&#45;&gt;dir_4e91ac776355fe6d1b4d7f616ca44234</title>
<path fill="none" stroke="#000000" d="M339.5154,-431.7968C356.8281,-397.6448 393.0664,-321.1579 408,-252 412.4002,-231.6227 413.8465,-208.1008 414.2212,-190.2152"/>
<polygon fill="#000000" stroke="#000000" points="417.7217,-190.1826 414.3326,-180.1444 410.7221,-190.1051 417.7217,-190.1826"/>
<g id="a_edge32&#45;headlabel"><a xlink:href="dir_001400_001391.html" target="_top" xlink:title="4">
<text text-anchor="middle" x="420.5211" y="-190.8083" font-family="FreeSans" font-size="10.00" fill="#000000">4</text>
</a>
</g>
</g>
<!-- dir_6944b6c275cd80e5da736fb8a7cfbef2 -->
<g id="node8" class="node">
<title>dir_6944b6c275cd80e5da736fb8a7cfbef2</title>
<g id="a_node8"><a xlink:href="dir_6944b6c275cd80e5da736fb8a7cfbef2.html" target="_top" xlink:title="include">
<polygon fill="none" stroke="#000000" points="330,-396 276,-396 276,-360 330,-360 330,-396"/>
<text text-anchor="middle" x="303" y="-375" font-family="FreeSans" font-size="10.00" fill="#000000">include</text>
</a>
</g>
</g>
<!-- dir_1873bf92a95dfce601bf01f97f3c8bc6&#45;&gt;dir_6944b6c275cd80e5da736fb8a7cfbef2 -->
<g id="edge33" class="edge">
<title>dir_1873bf92a95dfce601bf01f97f3c8bc6&#45;&gt;dir_6944b6c275cd80e5da736fb8a7cfbef2</title>
<path fill="none" stroke="#000000" d="M323.1868,-431.8314C320.2356,-423.9617 316.7142,-414.5712 313.445,-405.8533"/>
<polygon fill="#000000" stroke="#000000" points="316.6934,-404.5476 309.905,-396.4133 310.1391,-407.0055 316.6934,-404.5476"/>
<g id="a_edge33&#45;headlabel"><a xlink:href="dir_001400_001399.html" target="_top" xlink:title="58">
<text text-anchor="middle" x="320.614" y="-403.9164" font-family="FreeSans" font-size="10.00" fill="#000000">58</text>
</a>
</g>
</g>
<!-- dir_287f0cc412fb0f226f0848cf15c9d6b2 -->
<g id="node9" class="node">
<title>dir_287f0cc412fb0f226f0848cf15c9d6b2</title>
<g id="a_node9"><a xlink:href="dir_287f0cc412fb0f226f0848cf15c9d6b2.html" target="_top" xlink:title="global">
<polygon fill="none" stroke="#ff0000" points="378,-36 324,-36 324,0 378,0 378,-36"/>
<text text-anchor="middle" x="351" y="-15" font-family="FreeSans" font-size="10.00" fill="#000000">global</text>
</a>
</g>
</g>
<!-- dir_1873bf92a95dfce601bf01f97f3c8bc6&#45;&gt;dir_287f0cc412fb0f226f0848cf15c9d6b2 -->
<g id="edge34" class="edge">
<title>dir_1873bf92a95dfce601bf01f97f3c8bc6&#45;&gt;dir_287f0cc412fb0f226f0848cf15c9d6b2</title>
<path fill="none" stroke="#000000" d="M357.2739,-448.3351C426.579,-442.4861 604,-416.7018 604,-306 604,-306 604,-306 604,-162 604,-63.9328 458.6487,-31.799 388.2885,-21.9889"/>
<polygon fill="#000000" stroke="#000000" points="388.4458,-18.4796 378.0754,-20.6487 387.535,-25.4201 388.4458,-18.4796"/>
<g id="a_edge34&#45;headlabel"><a xlink:href="dir_001400_001098.html" target="_top" xlink:title="37">
<text text-anchor="middle" x="392.3793" y="-13.1321" font-family="FreeSans" font-size="10.00" fill="#000000">37</text>
</a>
</g>
</g>
<!-- dir_c818fe51885796c4d4737f4e685c6adb&#45;&gt;dir_28579dd7847e6f48edd25168dff4e45b -->
<g id="edge1" class="edge">
<title>dir_c818fe51885796c4d4737f4e685c6adb&#45;&gt;dir_28579dd7847e6f48edd25168dff4e45b</title>
<path fill="none" stroke="#000000" d="M217.2378,-149.7331C221.8103,-147.7628 226.5234,-145.7861 231,-144 267.1458,-129.5787 308.8358,-114.7091 339.076,-104.2339"/>
<polygon fill="#000000" stroke="#000000" points="340.5554,-107.4261 348.8679,-100.8569 338.2731,-100.8086 340.5554,-107.4261"/>
<g id="a_edge1&#45;headlabel"><a xlink:href="dir_001606_001296.html" target="_top" xlink:title="2">
<text text-anchor="middle" x="338.0829" y="-108.2821" font-family="FreeSans" font-size="10.00" fill="#000000">2</text>
</a>
</g>
</g>
<!-- dir_c818fe51885796c4d4737f4e685c6adb&#45;&gt;dir_5a1ad02af0bee2bc2f876b255ce01433 -->
<g id="edge2" class="edge">
<title>dir_c818fe51885796c4d4737f4e685c6adb&#45;&gt;dir_5a1ad02af0bee2bc2f876b255ce01433</title>
<path fill="none" stroke="#000000" d="M190,-143.8314C190,-136.131 190,-126.9743 190,-118.4166"/>
<polygon fill="#000000" stroke="#000000" points="193.5001,-118.4132 190,-108.4133 186.5001,-118.4133 193.5001,-118.4132"/>
<g id="a_edge2&#45;headlabel"><a xlink:href="dir_001606_001303.html" target="_top" xlink:title="9">
<text text-anchor="middle" x="196.3393" y="-119.0079" font-family="FreeSans" font-size="10.00" fill="#000000">9</text>
</a>
</g>
</g>
<!-- dir_c818fe51885796c4d4737f4e685c6adb&#45;&gt;dir_287f0cc412fb0f226f0848cf15c9d6b2 -->
<g id="edge3" class="edge">
<title>dir_c818fe51885796c4d4737f4e685c6adb&#45;&gt;dir_287f0cc412fb0f226f0848cf15c9d6b2</title>
<path fill="none" stroke="#000000" d="M210.3908,-143.7623C238.9404,-118.2272 290.9251,-71.7316 323.0592,-42.9906"/>
<polygon fill="#000000" stroke="#000000" points="325.6545,-45.365 330.7748,-36.0896 320.9878,-40.1475 325.6545,-45.365"/>
<g id="a_edge3&#45;headlabel"><a xlink:href="dir_001606_001098.html" target="_top" xlink:title="59">
<text text-anchor="middle" x="324.868" y="-46.8777" font-family="FreeSans" font-size="10.00" fill="#000000">59</text>
</a>
</g>
</g>
<!-- dir_1986c72a84db70e0042b5c8b1574b7ab&#45;&gt;dir_c818fe51885796c4d4737f4e685c6adb -->
<g id="edge4" class="edge">
<title>dir_1986c72a84db70e0042b5c8b1574b7ab&#45;&gt;dir_c818fe51885796c4d4737f4e685c6adb</title>
<path fill="none" stroke="#000000" d="M293.8567,-219.0816C274.1842,-208.2692 247.3843,-193.5395 225.9364,-181.7513"/>
<polygon fill="#000000" stroke="#000000" points="227.5579,-178.6488 217.1085,-176.8993 224.1863,-184.7833 227.5579,-178.6488"/>
<g id="a_edge4&#45;headlabel"><a xlink:href="dir_001439_001606.html" target="_top" xlink:title="32">
<text text-anchor="middle" x="232.0756" y="-174.8919" font-family="FreeSans" font-size="10.00" fill="#000000">32</text>
</a>
</g>
</g>
<!-- dir_1986c72a84db70e0042b5c8b1574b7ab&#45;&gt;dir_28579dd7847e6f48edd25168dff4e45b -->
<g id="edge5" class="edge">
<title>dir_1986c72a84db70e0042b5c8b1574b7ab&#45;&gt;dir_28579dd7847e6f48edd25168dff4e45b</title>
<path fill="none" stroke="#000000" d="M328.599,-215.7623C338.9231,-190.9846 357.4703,-146.4714 369.5025,-117.5939"/>
<polygon fill="#000000" stroke="#000000" points="372.8472,-118.6666 373.4627,-108.0896 366.3857,-115.9742 372.8472,-118.6666"/>
<g id="a_edge5&#45;headlabel"><a xlink:href="dir_001439_001296.html" target="_top" xlink:title="30">
<text text-anchor="middle" x="374.0856" y="-120.0767" font-family="FreeSans" font-size="10.00" fill="#000000">30</text>
</a>
</g>
</g>
<!-- dir_1986c72a84db70e0042b5c8b1574b7ab&#45;&gt;dir_5a1ad02af0bee2bc2f876b255ce01433 -->
<g id="edge6" class="edge">
<title>dir_1986c72a84db70e0042b5c8b1574b7ab&#45;&gt;dir_5a1ad02af0bee2bc2f876b255ce01433</title>
<path fill="none" stroke="#000000" d="M304.4088,-215.7623C281.3758,-190.4436 239.5964,-144.5182 213.4027,-115.7251"/>
<polygon fill="#000000" stroke="#000000" points="215.7748,-113.1315 206.4565,-108.0896 210.5969,-117.842 215.7748,-113.1315"/>
<g id="a_edge6&#45;headlabel"><a xlink:href="dir_001439_001303.html" target="_top" xlink:title="62">
<text text-anchor="middle" x="220.2939" y="-110.8798" font-family="FreeSans" font-size="10.00" fill="#000000">62</text>
</a>
</g>
</g>
<!-- dir_1986c72a84db70e0042b5c8b1574b7ab&#45;&gt;dir_4e91ac776355fe6d1b4d7f616ca44234 -->
<g id="edge7" class="edge">
<title>dir_1986c72a84db70e0042b5c8b1574b7ab&#45;&gt;dir_4e91ac776355fe6d1b4d7f616ca44234</title>
<path fill="none" stroke="#000000" d="M344.4678,-215.8314C356.0327,-206.8779 370.1404,-195.9558 382.6183,-186.2955"/>
<polygon fill="#000000" stroke="#000000" points="384.775,-189.0521 390.5397,-180.1628 380.4898,-183.5171 384.775,-189.0521"/>
<g id="a_edge7&#45;headlabel"><a xlink:href="dir_001439_001391.html" target="_top" xlink:title="30">
<text text-anchor="middle" x="383.6708" y="-190.4977" font-family="FreeSans" font-size="10.00" fill="#000000">30</text>
</a>
</g>
</g>
<!-- dir_1986c72a84db70e0042b5c8b1574b7ab&#45;&gt;dir_287f0cc412fb0f226f0848cf15c9d6b2 -->
<g id="edge8" class="edge">
<title>dir_1986c72a84db70e0042b5c8b1574b7ab&#45;&gt;dir_287f0cc412fb0f226f0848cf15c9d6b2</title>
<path fill="none" stroke="#000000" d="M322.616,-215.9523C325.4136,-185.9605 331.6682,-124.0079 340,-72 341.3408,-63.6305 343.071,-54.5866 344.7605,-46.3374"/>
<polygon fill="#000000" stroke="#000000" points="348.2123,-46.9305 346.8463,-36.4241 341.3622,-45.4892 348.2123,-46.9305"/>
<g id="a_edge8&#45;headlabel"><a xlink:href="dir_001439_001098.html" target="_top" xlink:title="141">
<text text-anchor="middle" x="350.2506" y="-48.0327" font-family="FreeSans" font-size="10.00" fill="#000000">141</text>
</a>
</g>
</g>
<!-- dir_6ef637485d33ce49db9c41c4c2493c8e&#45;&gt;dir_c818fe51885796c4d4737f4e685c6adb -->
<g id="edge9" class="edge">
<title>dir_6ef637485d33ce49db9c41c4c2493c8e&#45;&gt;dir_c818fe51885796c4d4737f4e685c6adb</title>
<path fill="none" stroke="#000000" d="M204.8469,-287.7623C201.9473,-263.201 196.7584,-219.2474 193.3474,-190.3541"/>
<polygon fill="#000000" stroke="#000000" points="196.7839,-189.6103 192.1356,-180.0896 189.8322,-190.431 196.7839,-189.6103"/>
<g id="a_edge9&#45;headlabel"><a xlink:href="dir_001436_001606.html" target="_top" xlink:title="45">
<text text-anchor="middle" x="200.025" y="-189.8473" font-family="FreeSans" font-size="10.00" fill="#000000">45</text>
</a>
</g>
</g>
<!-- dir_6ef637485d33ce49db9c41c4c2493c8e&#45;&gt;dir_1986c72a84db70e0042b5c8b1574b7ab -->
<g id="edge10" class="edge">
<title>dir_6ef637485d33ce49db9c41c4c2493c8e&#45;&gt;dir_1986c72a84db70e0042b5c8b1574b7ab</title>
<path fill="none" stroke="#000000" d="M235.767,-287.8314C250.7935,-278.3409 269.3223,-266.6386 285.2617,-256.5716"/>
<polygon fill="#000000" stroke="#000000" points="287.2259,-259.4707 293.8119,-251.1715 283.488,-253.5522 287.2259,-259.4707"/>
<g id="a_edge10&#45;headlabel"><a xlink:href="dir_001436_001439.html" target="_top" xlink:title="104">
<text text-anchor="middle" x="285.7029" y="-260.7907" font-family="FreeSans" font-size="10.00" fill="#000000">104</text>
</a>
</g>
</g>
<!-- dir_6ef637485d33ce49db9c41c4c2493c8e&#45;&gt;dir_28579dd7847e6f48edd25168dff4e45b -->
<g id="edge11" class="edge">
<title>dir_6ef637485d33ce49db9c41c4c2493c8e&#45;&gt;dir_28579dd7847e6f48edd25168dff4e45b</title>
<path fill="none" stroke="#000000" d="M221.5359,-287.9555C252.3056,-249.7585 324.1258,-160.6025 359.9299,-116.1559"/>
<polygon fill="#000000" stroke="#000000" points="362.8355,-118.1283 366.3831,-108.1451 357.3842,-113.737 362.8355,-118.1283"/>
<g id="a_edge11&#45;headlabel"><a xlink:href="dir_001436_001296.html" target="_top" xlink:title="75">
<text text-anchor="middle" x="362.7916" y="-119.7087" font-family="FreeSans" font-size="10.00" fill="#000000">75</text>
</a>
</g>
</g>
<!-- dir_6ef637485d33ce49db9c41c4c2493c8e&#45;&gt;dir_5a1ad02af0bee2bc2f876b255ce01433 -->
<g id="edge12" class="edge">
<title>dir_6ef637485d33ce49db9c41c4c2493c8e&#45;&gt;dir_5a1ad02af0bee2bc2f876b255ce01433</title>
<path fill="none" stroke="#000000" d="M196.6838,-287.9578C183.7164,-264.1395 162.1665,-220.4771 154,-180 150.8357,-164.316 149.3635,-159.3135 154,-144 156.9564,-134.2355 162.3252,-124.6229 168.03,-116.2762"/>
<polygon fill="#000000" stroke="#000000" points="170.9414,-118.2239 174.0095,-108.0831 165.2871,-114.0973 170.9414,-118.2239"/>
<g id="a_edge12&#45;headlabel"><a xlink:href="dir_001436_001303.html" target="_top" xlink:title="128">
<text text-anchor="middle" x="171.1158" y="-119.8013" font-family="FreeSans" font-size="10.00" fill="#000000">128</text>
</a>
</g>
</g>
<!-- dir_6ef637485d33ce49db9c41c4c2493c8e&#45;&gt;dir_4e91ac776355fe6d1b4d7f616ca44234 -->
<g id="edge13" class="edge">
<title>dir_6ef637485d33ce49db9c41c4c2493c8e&#45;&gt;dir_4e91ac776355fe6d1b4d7f616ca44234</title>
<path fill="none" stroke="#000000" d="M237.7711,-301.0327C270.3019,-294.4851 321.6958,-280.3101 357,-252 377.7078,-235.3947 393.1117,-209.1222 402.6505,-189.2403"/>
<polygon fill="#000000" stroke="#000000" points="405.8716,-190.6125 406.8595,-180.0638 399.509,-187.694 405.8716,-190.6125"/>
<g id="a_edge13&#45;headlabel"><a xlink:href="dir_001436_001391.html" target="_top" xlink:title="38">
<text text-anchor="middle" x="406.9538" y="-192.0635" font-family="FreeSans" font-size="10.00" fill="#000000">38</text>
</a>
</g>
</g>
<!-- dir_6ef637485d33ce49db9c41c4c2493c8e&#45;&gt;dir_287f0cc412fb0f226f0848cf15c9d6b2 -->
<g id="edge14" class="edge">
<title>dir_6ef637485d33ce49db9c41c4c2493c8e&#45;&gt;dir_287f0cc412fb0f226f0848cf15c9d6b2</title>
<path fill="none" stroke="#000000" d="M187.7126,-287.672C178.5628,-277.9201 168.2825,-265.2281 162,-252 127.6154,-179.6011 100.9548,-134.6049 151,-72 161.2585,-59.1669 258.7646,-37.1426 313.7435,-25.5858"/>
<polygon fill="#000000" stroke="#000000" points="314.7339,-28.9546 323.8089,-23.487 313.305,-22.102 314.7339,-28.9546"/>
<g id="a_edge14&#45;headlabel"><a xlink:href="dir_001436_001098.html" target="_top" xlink:title="359">
<text text-anchor="middle" x="311.7945" y="-29.4678" font-family="FreeSans" font-size="10.00" fill="#000000">359</text>
</a>
</g>
</g>
<!-- dir_28579dd7847e6f48edd25168dff4e45b&#45;&gt;dir_287f0cc412fb0f226f0848cf15c9d6b2 -->
<g id="edge15" class="edge">
<title>dir_28579dd7847e6f48edd25168dff4e45b&#45;&gt;dir_287f0cc412fb0f226f0848cf15c9d6b2</title>
<path fill="none" stroke="#000000" d="M373.4297,-71.8314C370.1507,-63.9617 366.238,-54.5712 362.6055,-45.8533"/>
<polygon fill="#000000" stroke="#000000" points="365.7492,-44.2979 358.6722,-36.4133 359.2876,-46.9902 365.7492,-44.2979"/>
<g id="a_edge15&#45;headlabel"><a xlink:href="dir_001296_001098.html" target="_top" xlink:title="113">
<text text-anchor="middle" x="369.7525" y="-43.524" font-family="FreeSans" font-size="10.00" fill="#000000">113</text>
</a>
</g>
</g>
<!-- dir_5a1ad02af0bee2bc2f876b255ce01433&#45;&gt;dir_287f0cc412fb0f226f0848cf15c9d6b2 -->
<g id="edge16" class="edge">
<title>dir_5a1ad02af0bee2bc2f876b255ce01433&#45;&gt;dir_287f0cc412fb0f226f0848cf15c9d6b2</title>
<path fill="none" stroke="#000000" d="M220.2829,-76.4574C247.0439,-64.4897 286.1328,-47.0089 314.5907,-34.2824"/>
<polygon fill="#000000" stroke="#000000" points="316.1011,-37.4411 323.801,-30.1635 313.2433,-31.051 316.1011,-37.4411"/>
<g id="a_edge16&#45;headlabel"><a xlink:href="dir_001303_001098.html" target="_top" xlink:title="647">
<text text-anchor="middle" x="313.9787" y="-38.5004" font-family="FreeSans" font-size="10.00" fill="#000000">647</text>
</a>
</g>
</g>
<!-- dir_4e91ac776355fe6d1b4d7f616ca44234&#45;&gt;dir_28579dd7847e6f48edd25168dff4e45b -->
<g id="edge17" class="edge">
<title>dir_4e91ac776355fe6d1b4d7f616ca44234&#45;&gt;dir_28579dd7847e6f48edd25168dff4e45b</title>
<path fill="none" stroke="#000000" d="M405.6727,-143.8314C402.027,-135.8771 397.6691,-126.369 393.6373,-117.5723"/>
<polygon fill="#000000" stroke="#000000" points="396.7877,-116.0456 389.4394,-108.4133 390.4243,-118.9622 396.7877,-116.0456"/>
<g id="a_edge17&#45;headlabel"><a xlink:href="dir_001391_001296.html" target="_top" xlink:title="11">
<text text-anchor="middle" x="400.8665" y="-115.1304" font-family="FreeSans" font-size="10.00" fill="#000000">11</text>
</a>
</g>
</g>
<!-- dir_4e91ac776355fe6d1b4d7f616ca44234&#45;&gt;dir_5a1ad02af0bee2bc2f876b255ce01433 -->
<g id="edge18" class="edge">
<title>dir_4e91ac776355fe6d1b4d7f616ca44234&#45;&gt;dir_5a1ad02af0bee2bc2f876b255ce01433</title>
<path fill="none" stroke="#000000" d="M386.9804,-153.3151C347.9274,-140.7624 275.4339,-117.4609 230.1209,-102.896"/>
<polygon fill="#000000" stroke="#000000" points="230.9238,-99.4778 220.3325,-99.7497 228.7817,-106.142 230.9238,-99.4778"/>
<g id="a_edge18&#45;headlabel"><a xlink:href="dir_001391_001303.html" target="_top" xlink:title="12">
<text text-anchor="middle" x="235.2148" y="-94.8746" font-family="FreeSans" font-size="10.00" fill="#000000">12</text>
</a>
</g>
</g>
<!-- dir_4e91ac776355fe6d1b4d7f616ca44234&#45;&gt;dir_287f0cc412fb0f226f0848cf15c9d6b2 -->
<g id="edge19" class="edge">
<title>dir_4e91ac776355fe6d1b4d7f616ca44234&#45;&gt;dir_287f0cc412fb0f226f0848cf15c9d6b2</title>
<path fill="none" stroke="#000000" d="M421.0096,-143.717C427.0862,-124.7606 433.2882,-94.7675 422,-72 414.4948,-56.8625 400.4911,-44.8196 386.8911,-35.983"/>
<polygon fill="#000000" stroke="#000000" points="388.4495,-32.8347 378.0847,-30.6389 384.8179,-38.819 388.4495,-32.8347"/>
<g id="a_edge19&#45;headlabel"><a xlink:href="dir_001391_001098.html" target="_top" xlink:title="47">
<text text-anchor="middle" x="392.9955" y="-29.2722" font-family="FreeSans" font-size="10.00" fill="#000000">47</text>
</a>
</g>
</g>
<!-- dir_6944b6c275cd80e5da736fb8a7cfbef2&#45;&gt;dir_c818fe51885796c4d4737f4e685c6adb -->
<g id="edge20" class="edge">
<title>dir_6944b6c275cd80e5da736fb8a7cfbef2&#45;&gt;dir_c818fe51885796c4d4737f4e685c6adb</title>
<path fill="none" stroke="#000000" d="M293.56,-359.9555C273.7435,-322.0762 227.7095,-234.0818 204.2684,-189.274"/>
<polygon fill="#000000" stroke="#000000" points="207.2293,-187.3834 199.4926,-180.1451 201.0268,-190.6282 207.2293,-187.3834"/>
<g id="a_edge20&#45;headlabel"><a xlink:href="dir_001399_001606.html" target="_top" xlink:title="4">
<text text-anchor="middle" x="211.4114" y="-186.2523" font-family="FreeSans" font-size="10.00" fill="#000000">4</text>
</a>
</g>
</g>
<!-- dir_6944b6c275cd80e5da736fb8a7cfbef2&#45;&gt;dir_1986c72a84db70e0042b5c8b1574b7ab -->
<g id="edge21" class="edge">
<title>dir_6944b6c275cd80e5da736fb8a7cfbef2&#45;&gt;dir_1986c72a84db70e0042b5c8b1574b7ab</title>
<path fill="none" stroke="#000000" d="M305.2797,-359.7623C308.3499,-335.201 313.8441,-291.2474 317.4557,-262.3541"/>
<polygon fill="#000000" stroke="#000000" points="320.9713,-262.4465 318.7388,-252.0896 314.0254,-261.5782 320.9713,-262.4465"/>
<g id="a_edge21&#45;headlabel"><a xlink:href="dir_001399_001439.html" target="_top" xlink:title="11">
<text text-anchor="middle" x="323.3429" y="-263.3655" font-family="FreeSans" font-size="10.00" fill="#000000">11</text>
</a>
</g>
</g>
<!-- dir_6944b6c275cd80e5da736fb8a7cfbef2&#45;&gt;dir_6ef637485d33ce49db9c41c4c2493c8e -->
<g id="edge22" class="edge">
<title>dir_6944b6c275cd80e5da736fb8a7cfbef2&#45;&gt;dir_6ef637485d33ce49db9c41c4c2493c8e</title>
<path fill="none" stroke="#000000" d="M278.7751,-359.8314C266.8372,-350.8779 252.2744,-339.9558 239.394,-330.2955"/>
<polygon fill="#000000" stroke="#000000" points="241.3171,-327.3629 231.2171,-324.1628 237.1171,-332.9629 241.3171,-327.3629"/>
<g id="a_edge22&#45;headlabel"><a xlink:href="dir_001399_001436.html" target="_top" xlink:title="6">
<text text-anchor="middle" x="245.8964" y="-324.2482" font-family="FreeSans" font-size="10.00" fill="#000000">6</text>
</a>
</g>
</g>
<!-- dir_6944b6c275cd80e5da736fb8a7cfbef2&#45;&gt;dir_28579dd7847e6f48edd25168dff4e45b -->
<g id="edge23" class="edge">
<title>dir_6944b6c275cd80e5da736fb8a7cfbef2&#45;&gt;dir_28579dd7847e6f48edd25168dff4e45b</title>
<path fill="none" stroke="#000000" d="M330.3077,-360.1798C343.6657,-350.5573 359.3361,-337.8279 371,-324 418.0668,-268.2012 431.8771,-250.7131 450,-180 453.9722,-164.5009 457.008,-158.3836 450,-144 443.7272,-131.1254 432.7358,-120.4169 421.3449,-112.0225"/>
<polygon fill="#000000" stroke="#000000" points="423.2667,-109.0964 413.0418,-106.3212 419.3043,-114.8671 423.2667,-109.0964"/>
<g id="a_edge23&#45;headlabel"><a xlink:href="dir_001399_001296.html" target="_top" xlink:title="17">
<text text-anchor="middle" x="427.8371" y="-105.7905" font-family="FreeSans" font-size="10.00" fill="#000000">17</text>
</a>
</g>
</g>
<!-- dir_6944b6c275cd80e5da736fb8a7cfbef2&#45;&gt;dir_5a1ad02af0bee2bc2f876b255ce01433 -->
<g id="edge24" class="edge">
<title>dir_6944b6c275cd80e5da736fb8a7cfbef2&#45;&gt;dir_5a1ad02af0bee2bc2f876b255ce01433</title>
<path fill="none" stroke="#000000" d="M275.9775,-375.3038C244.5082,-370.6253 193.4692,-357.9641 167,-324 117.5507,-260.5486 121.8928,-220.0902 148,-144 151.469,-133.8894 157.6899,-124.2137 164.299,-115.9166"/>
<polygon fill="#000000" stroke="#000000" points="167.1265,-117.9949 170.95,-108.1141 161.7992,-113.4539 167.1265,-117.9949"/>
<g id="a_edge24&#45;headlabel"><a xlink:href="dir_001399_001303.html" target="_top" xlink:title="18">
<text text-anchor="middle" x="166.9554" y="-119.5724" font-family="FreeSans" font-size="10.00" fill="#000000">18</text>
</a>
</g>
</g>
<!-- dir_6944b6c275cd80e5da736fb8a7cfbef2&#45;&gt;dir_4e91ac776355fe6d1b4d7f616ca44234 -->
<g id="edge25" class="edge">
<title>dir_6944b6c275cd80e5da736fb8a7cfbef2&#45;&gt;dir_4e91ac776355fe6d1b4d7f616ca44234</title>
<path fill="none" stroke="#000000" d="M317.6583,-359.8325C336.084,-336.2286 367.6383,-293.1556 387,-252 396.3461,-232.1337 403.3277,-208.2809 407.8478,-190.1241"/>
<polygon fill="#000000" stroke="#000000" points="411.3076,-190.7043 410.224,-180.165 404.4987,-189.0797 411.3076,-190.7043"/>
<g id="a_edge25&#45;headlabel"><a xlink:href="dir_001399_001391.html" target="_top" xlink:title="11">
<text text-anchor="middle" x="413.2351" y="-191.8597" font-family="FreeSans" font-size="10.00" fill="#000000">11</text>
</a>
</g>
</g>
<!-- dir_6944b6c275cd80e5da736fb8a7cfbef2&#45;&gt;dir_287f0cc412fb0f226f0848cf15c9d6b2 -->
<g id="edge26" class="edge">
<title>dir_6944b6c275cd80e5da736fb8a7cfbef2&#45;&gt;dir_287f0cc412fb0f226f0848cf15c9d6b2</title>
<path fill="none" stroke="#000000" d="M330.3638,-367.0942C351.1517,-357.8479 379.5555,-343.0545 400,-324 451.638,-275.8728 457.4664,-249.9416 467,-180 473.6824,-130.9761 471.5743,-110.0928 440,-72 425.9553,-55.0558 405.1341,-42.013 387.1612,-32.9939"/>
<polygon fill="#000000" stroke="#000000" points="388.6044,-29.8045 378.0732,-28.645 385.5827,-36.1187 388.6044,-29.8045"/>
<g id="a_edge26&#45;headlabel"><a xlink:href="dir_001399_001098.html" target="_top" xlink:title="33">
<text text-anchor="middle" x="393.0724" y="-25.7949" font-family="FreeSans" font-size="10.00" fill="#000000">33</text>
</a>
</g>
</g>
</g>
</svg>
