<?xml version="1.0" encoding="UTF-8" standalone="no"?>
<!DOCTYPE svg PUBLIC "-//W3C//DTD SVG 1.1//EN"
 "http://www.w3.org/Graphics/SVG/1.1/DTD/svg11.dtd">
<!-- Generated by graphviz version 2.40.1 (20161225.0304)
 -->
<!-- Title: geant4/tree/geant4&#45;10.6&#45;release/source/processes/hadronic/models/de_excitation/fermi_breakup Pages: 1 -->
<svg width="400pt" height="520pt"
 viewBox="0.00 0.00 400.00 520.00" xmlns="http://www.w3.org/2000/svg" xmlns:xlink="http://www.w3.org/1999/xlink">
<g id="graph0" class="graph" transform="scale(1 1) rotate(0) translate(4 516)">
<title>geant4/tree/geant4&#45;10.6&#45;release/source/processes/hadronic/models/de_excitation/fermi_breakup</title>
<g id="clust1" class="cluster">
<title>clusterdir_579bad47e1ab7492a4e517264af04763</title>
<g id="a_clust1"><a xlink:href="dir_579bad47e1ab7492a4e517264af04763.html" target="_top" xlink:title="de_excitation">
<polygon fill="#ddddee" stroke="#000000" points="41,-344 41,-504 234,-504 234,-344 41,-344"/>
<text text-anchor="middle" x="137.5" y="-491" font-family="FreeSans" font-size="10.00" fill="#000000">de_excitation</text>
</a>
</g>
</g>
<g id="clust2" class="cluster">
<title>clusterdir_5dbb213d1c972691d2cfd2438d372b3d</title>
<g id="a_clust2"><a xlink:href="dir_5dbb213d1c972691d2cfd2438d372b3d.html" target="_top">
<polygon fill="#eeeeff" stroke="#000000" points="49,-352 49,-476 226,-476 226,-352 49,-352"/>
</a>
</g>
</g>
<!-- dir_5dbb213d1c972691d2cfd2438d372b3d -->
<g id="node1" class="node">
<title>dir_5dbb213d1c972691d2cfd2438d372b3d</title>
<text text-anchor="middle" x="174" y="-447" font-family="FreeSans" font-size="10.00" fill="#000000">fermi_breakup</text>
</g>
<!-- dir_caa3e61f79f4b9ca9c80efb86c7793e3 -->
<g id="node2" class="node">
<title>dir_caa3e61f79f4b9ca9c80efb86c7793e3</title>
<g id="a_node2"><a xlink:href="dir_caa3e61f79f4b9ca9c80efb86c7793e3.html" target="_top" xlink:title="include">
<polygon fill="#ffffff" stroke="#000000" points="141,-396 87,-396 87,-360 141,-360 141,-396"/>
<text text-anchor="middle" x="114" y="-375" font-family="FreeSans" font-size="10.00" fill="#000000">include</text>
</a>
</g>
</g>
<!-- dir_757891e6cfa4312d4b3a4c078605b5b4 -->
<g id="node4" class="node">
<title>dir_757891e6cfa4312d4b3a4c078605b5b4</title>
<g id="a_node4"><a xlink:href="dir_757891e6cfa4312d4b3a4c078605b5b4.html" target="_top" xlink:title="externals">
<polygon fill="none" stroke="#ff0000" points="164.5,-36 101.5,-36 101.5,0 164.5,0 164.5,-36"/>
<text text-anchor="middle" x="133" y="-15" font-family="FreeSans" font-size="10.00" fill="#000000">externals</text>
</a>
</g>
</g>
<!-- dir_caa3e61f79f4b9ca9c80efb86c7793e3&#45;&gt;dir_757891e6cfa4312d4b3a4c078605b5b4 -->
<g id="edge1" class="edge">
<title>dir_caa3e61f79f4b9ca9c80efb86c7793e3&#45;&gt;dir_757891e6cfa4312d4b3a4c078605b5b4</title>
<path fill="none" stroke="#000000" d="M114.9683,-359.6526C118.0685,-300.9129 127.7644,-117.2013 131.5061,-46.3047"/>
<polygon fill="#000000" stroke="#000000" points="135.0016,-46.481 132.0336,-36.3104 128.0113,-46.112 135.0016,-46.481"/>
<g id="a_edge1&#45;headlabel"><a xlink:href="dir_001477_001222.html" target="_top" xlink:title="1">
<text text-anchor="middle" x="137.6476" y="-47.2203" font-family="FreeSans" font-size="10.00" fill="#000000">1</text>
</a>
</g>
</g>
<!-- dir_c1638eb68104f33837f5e92778eb538f -->
<g id="node5" class="node">
<title>dir_c1638eb68104f33837f5e92778eb538f</title>
<g id="a_node5"><a xlink:href="dir_c1638eb68104f33837f5e92778eb538f.html" target="_top" xlink:title="util">
<polygon fill="none" stroke="#ff0000" points="274,-252 220,-252 220,-216 274,-216 274,-252"/>
<text text-anchor="middle" x="247" y="-231" font-family="FreeSans" font-size="10.00" fill="#000000">util</text>
</a>
</g>
</g>
<!-- dir_caa3e61f79f4b9ca9c80efb86c7793e3&#45;&gt;dir_c1638eb68104f33837f5e92778eb538f -->
<g id="edge2" class="edge">
<title>dir_caa3e61f79f4b9ca9c80efb86c7793e3&#45;&gt;dir_c1638eb68104f33837f5e92778eb538f</title>
<path fill="none" stroke="#000000" d="M141.3531,-368.1236C162.2854,-359.3533 190.5968,-344.7005 209,-324 224.7612,-306.2713 234.643,-281.0505 240.3651,-261.8159"/>
<polygon fill="#000000" stroke="#000000" points="243.7589,-262.675 243.0573,-252.1034 237.0132,-260.8052 243.7589,-262.675"/>
<g id="a_edge2&#45;headlabel"><a xlink:href="dir_001477_001566.html" target="_top" xlink:title="3">
<text text-anchor="middle" x="245.5349" y="-263.8974" font-family="FreeSans" font-size="10.00" fill="#000000">3</text>
</a>
</g>
</g>
<!-- dir_8980e9aa1828cef02f4b7eaccacb5de5 -->
<g id="node6" class="node">
<title>dir_8980e9aa1828cef02f4b7eaccacb5de5</title>
<g id="a_node6"><a xlink:href="dir_8980e9aa1828cef02f4b7eaccacb5de5.html" target="_top" xlink:title="util">
<polygon fill="none" stroke="#ff0000" points="200,-324 146,-324 146,-288 200,-288 200,-324"/>
<text text-anchor="middle" x="173" y="-303" font-family="FreeSans" font-size="10.00" fill="#000000">util</text>
</a>
</g>
</g>
<!-- dir_caa3e61f79f4b9ca9c80efb86c7793e3&#45;&gt;dir_8980e9aa1828cef02f4b7eaccacb5de5 -->
<g id="edge3" class="edge">
<title>dir_caa3e61f79f4b9ca9c80efb86c7793e3&#45;&gt;dir_8980e9aa1828cef02f4b7eaccacb5de5</title>
<path fill="none" stroke="#000000" d="M128.8882,-359.8314C135.753,-351.454 144.0301,-341.3531 151.5511,-332.1749"/>
<polygon fill="#000000" stroke="#000000" points="154.2803,-334.3665 157.9114,-324.4133 148.8659,-329.9297 154.2803,-334.3665"/>
<g id="a_edge3&#45;headlabel"><a xlink:href="dir_001477_001497.html" target="_top" xlink:title="1">
<text text-anchor="middle" x="154.1981" y="-335.9464" font-family="FreeSans" font-size="10.00" fill="#000000">1</text>
</a>
</g>
</g>
<!-- dir_287f0cc412fb0f226f0848cf15c9d6b2 -->
<g id="node9" class="node">
<title>dir_287f0cc412fb0f226f0848cf15c9d6b2</title>
<g id="a_node9"><a xlink:href="dir_287f0cc412fb0f226f0848cf15c9d6b2.html" target="_top" xlink:title="global">
<polygon fill="none" stroke="#ff0000" points="217,-108 163,-108 163,-72 217,-72 217,-108"/>
<text text-anchor="middle" x="190" y="-87" font-family="FreeSans" font-size="10.00" fill="#000000">global</text>
</a>
</g>
</g>
<!-- dir_caa3e61f79f4b9ca9c80efb86c7793e3&#45;&gt;dir_287f0cc412fb0f226f0848cf15c9d6b2 -->
<g id="edge4" class="edge">
<title>dir_caa3e61f79f4b9ca9c80efb86c7793e3&#45;&gt;dir_287f0cc412fb0f226f0848cf15c9d6b2</title>
<path fill="none" stroke="#000000" d="M118.6087,-359.7128C123.2095,-341.5175 130.5102,-312.8073 137,-288 152.8883,-227.2666 172.0476,-156.2113 182.4246,-117.9013"/>
<polygon fill="#000000" stroke="#000000" points="185.8703,-118.5675 185.1085,-108.0001 179.1141,-116.736 185.8703,-118.5675"/>
<g id="a_edge4&#45;headlabel"><a xlink:href="dir_001477_001098.html" target="_top" xlink:title="13">
<text text-anchor="middle" x="187.6702" y="-119.7797" font-family="FreeSans" font-size="10.00" fill="#000000">13</text>
</a>
</g>
</g>
<!-- dir_d6213c574e27936e46b877843e0f407a -->
<g id="node3" class="node">
<title>dir_d6213c574e27936e46b877843e0f407a</title>
<g id="a_node3"><a xlink:href="dir_d6213c574e27936e46b877843e0f407a.html" target="_top" xlink:title="src">
<polygon fill="#ffffff" stroke="#000000" points="111,-468 57,-468 57,-432 111,-432 111,-468"/>
<text text-anchor="middle" x="84" y="-447" font-family="FreeSans" font-size="10.00" fill="#000000">src</text>
</a>
</g>
</g>
<!-- dir_d6213c574e27936e46b877843e0f407a&#45;&gt;dir_caa3e61f79f4b9ca9c80efb86c7793e3 -->
<g id="edge18" class="edge">
<title>dir_d6213c574e27936e46b877843e0f407a&#45;&gt;dir_caa3e61f79f4b9ca9c80efb86c7793e3</title>
<path fill="none" stroke="#000000" d="M91.5703,-431.8314C94.8493,-423.9617 98.762,-414.5712 102.3945,-405.8533"/>
<polygon fill="#000000" stroke="#000000" points="105.7124,-406.9902 106.3278,-396.4133 99.2508,-404.2979 105.7124,-406.9902"/>
<g id="a_edge18&#45;headlabel"><a xlink:href="dir_001478_001477.html" target="_top" xlink:title="11">
<text text-anchor="middle" x="106.9507" y="-408.4003" font-family="FreeSans" font-size="10.00" fill="#000000">11</text>
</a>
</g>
</g>
<!-- dir_d6213c574e27936e46b877843e0f407a&#45;&gt;dir_757891e6cfa4312d4b3a4c078605b5b4 -->
<g id="edge17" class="edge">
<title>dir_d6213c574e27936e46b877843e0f407a&#45;&gt;dir_757891e6cfa4312d4b3a4c078605b5b4</title>
<path fill="none" stroke="#000000" d="M64.9391,-431.9596C40.1556,-406.4557 0,-357.2284 0,-306 0,-306 0,-306 0,-162 0,-106.6319 53.7182,-63.4787 92.8758,-39.3776"/>
<polygon fill="#000000" stroke="#000000" points="94.6895,-42.3711 101.4809,-34.2391 91.1007,-36.3611 94.6895,-42.3711"/>
<g id="a_edge17&#45;headlabel"><a xlink:href="dir_001478_001222.html" target="_top" xlink:title="3">
<text text-anchor="middle" x="93.0589" y="-43.6517" font-family="FreeSans" font-size="10.00" fill="#000000">3</text>
</a>
</g>
</g>
<!-- dir_5a1ad02af0bee2bc2f876b255ce01433 -->
<g id="node7" class="node">
<title>dir_5a1ad02af0bee2bc2f876b255ce01433</title>
<g id="a_node7"><a xlink:href="dir_5a1ad02af0bee2bc2f876b255ce01433.html" target="_top" xlink:title="particles">
<polygon fill="none" stroke="#ff0000" points="392,-180 332,-180 332,-144 392,-144 392,-180"/>
<text text-anchor="middle" x="362" y="-159" font-family="FreeSans" font-size="10.00" fill="#000000">particles</text>
</a>
</g>
</g>
<!-- dir_d6213c574e27936e46b877843e0f407a&#45;&gt;dir_5a1ad02af0bee2bc2f876b255ce01433 -->
<g id="edge19" class="edge">
<title>dir_d6213c574e27936e46b877843e0f407a&#45;&gt;dir_5a1ad02af0bee2bc2f876b255ce01433</title>
<path fill="none" stroke="#000000" d="M111.1589,-435.3663C114.0933,-434.1047 117.0758,-432.9497 120,-432 212.9819,-401.8022 267.8456,-465.1028 337,-396 391.7921,-341.2488 379.1397,-239.2532 368.8878,-190.0187"/>
<polygon fill="#000000" stroke="#000000" points="372.2663,-189.0859 366.6974,-180.0727 365.4301,-190.5914 372.2663,-189.0859"/>
<g id="a_edge19&#45;headlabel"><a xlink:href="dir_001478_001303.html" target="_top" xlink:title="2">
<text text-anchor="middle" x="375.8121" y="-188.9858" font-family="FreeSans" font-size="10.00" fill="#000000">2</text>
</a>
</g>
</g>
<!-- dir_a2ec202244a868139d3e6cffd6abcc1f -->
<g id="node8" class="node">
<title>dir_a2ec202244a868139d3e6cffd6abcc1f</title>
<g id="a_node8"><a xlink:href="dir_a2ec202244a868139d3e6cffd6abcc1f.html" target="_top" xlink:title="management">
<polygon fill="none" stroke="#ff0000" points="327.5,-396 242.5,-396 242.5,-360 327.5,-360 327.5,-396"/>
<text text-anchor="middle" x="285" y="-375" font-family="FreeSans" font-size="10.00" fill="#000000">management</text>
</a>
</g>
</g>
<!-- dir_d6213c574e27936e46b877843e0f407a&#45;&gt;dir_a2ec202244a868139d3e6cffd6abcc1f -->
<g id="edge20" class="edge">
<title>dir_d6213c574e27936e46b877843e0f407a&#45;&gt;dir_a2ec202244a868139d3e6cffd6abcc1f</title>
<path fill="none" stroke="#000000" d="M111.3245,-435.8172C114.2265,-434.4676 117.1562,-433.1688 120,-432 120.1737,-431.9286 184.1905,-410.9812 232.4231,-395.2008"/>
<polygon fill="#000000" stroke="#000000" points="233.7251,-398.4574 242.1411,-392.0214 231.5484,-391.8044 233.7251,-398.4574"/>
<g id="a_edge20&#45;headlabel"><a xlink:href="dir_001478_001488.html" target="_top" xlink:title="3">
<text text-anchor="middle" x="231.1916" y="-399.2736" font-family="FreeSans" font-size="10.00" fill="#000000">3</text>
</a>
</g>
</g>
<!-- dir_d6213c574e27936e46b877843e0f407a&#45;&gt;dir_287f0cc412fb0f226f0848cf15c9d6b2 -->
<g id="edge21" class="edge">
<title>dir_d6213c574e27936e46b877843e0f407a&#45;&gt;dir_287f0cc412fb0f226f0848cf15c9d6b2</title>
<path fill="none" stroke="#000000" d="M80.1696,-431.7914C76.335,-410.5113 71.8196,-374.3431 78,-344 95.8703,-256.2644 146.7904,-162.097 173.3784,-117.0414"/>
<polygon fill="#000000" stroke="#000000" points="176.5404,-118.5727 178.662,-108.1924 170.5303,-114.9841 176.5404,-118.5727"/>
<g id="a_edge21&#45;headlabel"><a xlink:href="dir_001478_001098.html" target="_top" xlink:title="9">
<text text-anchor="middle" x="177.1355" y="-120.1146" font-family="FreeSans" font-size="10.00" fill="#000000">9</text>
</a>
</g>
</g>
<!-- dir_c1638eb68104f33837f5e92778eb538f&#45;&gt;dir_757891e6cfa4312d4b3a4c078605b5b4 -->
<g id="edge5" class="edge">
<title>dir_c1638eb68104f33837f5e92778eb538f&#45;&gt;dir_757891e6cfa4312d4b3a4c078605b5b4</title>
<path fill="none" stroke="#000000" d="M249.5092,-215.9442C252.9672,-184.0174 255.7583,-116.7519 226,-72 213.707,-53.5132 192.769,-40.5497 173.8692,-31.967"/>
<polygon fill="#000000" stroke="#000000" points="175.088,-28.682 164.516,-27.9865 172.3468,-35.123 175.088,-28.682"/>
<g id="a_edge5&#45;headlabel"><a xlink:href="dir_001566_001222.html" target="_top" xlink:title="3">
<text text-anchor="middle" x="179.5073" y="-24.477" font-family="FreeSans" font-size="10.00" fill="#000000">3</text>
</a>
</g>
</g>
<!-- dir_c1638eb68104f33837f5e92778eb538f&#45;&gt;dir_5a1ad02af0bee2bc2f876b255ce01433 -->
<g id="edge6" class="edge">
<title>dir_c1638eb68104f33837f5e92778eb538f&#45;&gt;dir_5a1ad02af0bee2bc2f876b255ce01433</title>
<path fill="none" stroke="#000000" d="M274.2534,-216.937C289.1605,-207.6038 307.8594,-195.8967 324.1612,-185.6904"/>
<polygon fill="#000000" stroke="#000000" points="326.3134,-188.4724 332.9319,-180.1992 322.5987,-182.5393 326.3134,-188.4724"/>
<g id="a_edge6&#45;headlabel"><a xlink:href="dir_001566_001303.html" target="_top" xlink:title="29">
<text text-anchor="middle" x="324.7733" y="-189.7864" font-family="FreeSans" font-size="10.00" fill="#000000">29</text>
</a>
</g>
</g>
<!-- dir_c1638eb68104f33837f5e92778eb538f&#45;&gt;dir_287f0cc412fb0f226f0848cf15c9d6b2 -->
<g id="edge7" class="edge">
<title>dir_c1638eb68104f33837f5e92778eb538f&#45;&gt;dir_287f0cc412fb0f226f0848cf15c9d6b2</title>
<path fill="none" stroke="#000000" d="M239.7809,-215.7623C229.9731,-190.9846 212.3533,-146.4714 200.9226,-117.5939"/>
<polygon fill="#000000" stroke="#000000" points="204.0953,-116.0995 197.1605,-108.0896 197.5867,-118.6759 204.0953,-116.0995"/>
<g id="a_edge7&#45;headlabel"><a xlink:href="dir_001566_001098.html" target="_top" xlink:title="130">
<text text-anchor="middle" x="208.0582" y="-115.3968" font-family="FreeSans" font-size="10.00" fill="#000000">130</text>
</a>
</g>
</g>
<!-- dir_8980e9aa1828cef02f4b7eaccacb5de5&#45;&gt;dir_757891e6cfa4312d4b3a4c078605b5b4 -->
<g id="edge8" class="edge">
<title>dir_8980e9aa1828cef02f4b7eaccacb5de5&#45;&gt;dir_757891e6cfa4312d4b3a4c078605b5b4</title>
<path fill="none" stroke="#000000" d="M170.4978,-287.9843C163.7353,-239.2939 145.055,-104.7961 136.8968,-46.0573"/>
<polygon fill="#000000" stroke="#000000" points="140.3437,-45.4323 135.5012,-36.0089 133.4103,-46.3953 140.3437,-45.4323"/>
<g id="a_edge8&#45;headlabel"><a xlink:href="dir_001497_001222.html" target="_top" xlink:title="9">
<text text-anchor="middle" x="143.6504" y="-45.6022" font-family="FreeSans" font-size="10.00" fill="#000000">9</text>
</a>
</g>
</g>
<!-- dir_8980e9aa1828cef02f4b7eaccacb5de5&#45;&gt;dir_c1638eb68104f33837f5e92778eb538f -->
<g id="edge9" class="edge">
<title>dir_8980e9aa1828cef02f4b7eaccacb5de5&#45;&gt;dir_c1638eb68104f33837f5e92778eb538f</title>
<path fill="none" stroke="#000000" d="M191.6733,-287.8314C200.5249,-279.219 211.2486,-268.7851 220.8895,-259.4048"/>
<polygon fill="#000000" stroke="#000000" points="223.6061,-261.645 228.3326,-252.1628 218.7246,-256.6279 223.6061,-261.645"/>
<g id="a_edge9&#45;headlabel"><a xlink:href="dir_001497_001566.html" target="_top" xlink:title="1">
<text text-anchor="middle" x="223.0098" y="-263.1866" font-family="FreeSans" font-size="10.00" fill="#000000">1</text>
</a>
</g>
</g>
<!-- dir_8980e9aa1828cef02f4b7eaccacb5de5&#45;&gt;dir_287f0cc412fb0f226f0848cf15c9d6b2 -->
<g id="edge10" class="edge">
<title>dir_8980e9aa1828cef02f4b7eaccacb5de5&#45;&gt;dir_287f0cc412fb0f226f0848cf15c9d6b2</title>
<path fill="none" stroke="#000000" d="M174.4202,-287.9555C177.3827,-250.3144 184.2399,-163.1867 187.7865,-118.1246"/>
<polygon fill="#000000" stroke="#000000" points="191.2764,-118.3889 188.5719,-108.1451 184.298,-117.8396 191.2764,-118.3889"/>
<g id="a_edge10&#45;headlabel"><a xlink:href="dir_001497_001098.html" target="_top" xlink:title="29">
<text text-anchor="middle" x="193.825" y="-119.1952" font-family="FreeSans" font-size="10.00" fill="#000000">29</text>
</a>
</g>
</g>
<!-- dir_5a1ad02af0bee2bc2f876b255ce01433&#45;&gt;dir_757891e6cfa4312d4b3a4c078605b5b4 -->
<g id="edge11" class="edge">
<title>dir_5a1ad02af0bee2bc2f876b255ce01433&#45;&gt;dir_757891e6cfa4312d4b3a4c078605b5b4</title>
<path fill="none" stroke="#000000" d="M349.5182,-143.7101C334.9525,-123.609 309.1184,-91.5791 280,-72 247.6682,-50.2602 205.472,-35.9385 174.5857,-27.542"/>
<polygon fill="#000000" stroke="#000000" points="175.136,-24.0681 164.5755,-24.9195 173.362,-30.8396 175.136,-24.0681"/>
<g id="a_edge11&#45;headlabel"><a xlink:href="dir_001303_001222.html" target="_top" xlink:title="5">
<text text-anchor="middle" x="179.3328" y="-19.2325" font-family="FreeSans" font-size="10.00" fill="#000000">5</text>
</a>
</g>
</g>
<!-- dir_5a1ad02af0bee2bc2f876b255ce01433&#45;&gt;dir_287f0cc412fb0f226f0848cf15c9d6b2 -->
<g id="edge12" class="edge">
<title>dir_5a1ad02af0bee2bc2f876b255ce01433&#45;&gt;dir_287f0cc412fb0f226f0848cf15c9d6b2</title>
<path fill="none" stroke="#000000" d="M331.6458,-149.2936C302.2795,-137.0007 257.743,-118.3575 226.4673,-105.2654"/>
<polygon fill="#000000" stroke="#000000" points="227.7942,-102.0266 217.2183,-101.3937 225.0912,-108.4837 227.7942,-102.0266"/>
<g id="a_edge12&#45;headlabel"><a xlink:href="dir_001303_001098.html" target="_top" xlink:title="647">
<text text-anchor="middle" x="232.2064" y="-97.7955" font-family="FreeSans" font-size="10.00" fill="#000000">647</text>
</a>
</g>
</g>
<!-- dir_a2ec202244a868139d3e6cffd6abcc1f&#45;&gt;dir_c1638eb68104f33837f5e92778eb538f -->
<g id="edge13" class="edge">
<title>dir_a2ec202244a868139d3e6cffd6abcc1f&#45;&gt;dir_c1638eb68104f33837f5e92778eb538f</title>
<path fill="none" stroke="#000000" d="M280.1873,-359.7623C273.6773,-335.0928 262.0047,-290.8598 254.3818,-261.9731"/>
<polygon fill="#000000" stroke="#000000" points="257.7094,-260.8656 251.7736,-252.0896 250.9411,-262.6517 257.7094,-260.8656"/>
<g id="a_edge13&#45;headlabel"><a xlink:href="dir_001488_001566.html" target="_top" xlink:title="2">
<text text-anchor="middle" x="261.3718" y="-260.6168" font-family="FreeSans" font-size="10.00" fill="#000000">2</text>
</a>
</g>
</g>
<!-- dir_a2ec202244a868139d3e6cffd6abcc1f&#45;&gt;dir_8980e9aa1828cef02f4b7eaccacb5de5 -->
<g id="edge14" class="edge">
<title>dir_a2ec202244a868139d3e6cffd6abcc1f&#45;&gt;dir_8980e9aa1828cef02f4b7eaccacb5de5</title>
<path fill="none" stroke="#000000" d="M256.7377,-359.8314C242.2198,-350.4984 224.3745,-339.0264 208.8932,-329.0742"/>
<polygon fill="#000000" stroke="#000000" points="210.3987,-325.8812 200.0942,-323.4177 206.6134,-331.7695 210.3987,-325.8812"/>
<g id="a_edge14&#45;headlabel"><a xlink:href="dir_001488_001497.html" target="_top" xlink:title="3">
<text text-anchor="middle" x="214.9577" y="-322.4366" font-family="FreeSans" font-size="10.00" fill="#000000">3</text>
</a>
</g>
</g>
<!-- dir_a2ec202244a868139d3e6cffd6abcc1f&#45;&gt;dir_5a1ad02af0bee2bc2f876b255ce01433 -->
<g id="edge15" class="edge">
<title>dir_a2ec202244a868139d3e6cffd6abcc1f&#45;&gt;dir_5a1ad02af0bee2bc2f876b255ce01433</title>
<path fill="none" stroke="#000000" d="M297.9728,-359.7142C304.6975,-349.572 312.6084,-336.5116 318,-324 337.4615,-278.8378 350.3837,-222.8294 356.9319,-189.894"/>
<polygon fill="#000000" stroke="#000000" points="360.3723,-190.537 358.8342,-180.0544 353.4996,-189.2082 360.3723,-190.537"/>
<g id="a_edge15&#45;headlabel"><a xlink:href="dir_001488_001303.html" target="_top" xlink:title="1">
<text text-anchor="middle" x="362.4777" y="-191.6052" font-family="FreeSans" font-size="10.00" fill="#000000">1</text>
</a>
</g>
</g>
<!-- dir_a2ec202244a868139d3e6cffd6abcc1f&#45;&gt;dir_287f0cc412fb0f226f0848cf15c9d6b2 -->
<g id="edge16" class="edge">
<title>dir_a2ec202244a868139d3e6cffd6abcc1f&#45;&gt;dir_287f0cc412fb0f226f0848cf15c9d6b2</title>
<path fill="none" stroke="#000000" d="M288.1865,-359.9392C292.8332,-329.405 299.2617,-266.0208 283,-216 270.1056,-176.3369 239.272,-138.966 216.6278,-115.3816"/>
<polygon fill="#000000" stroke="#000000" points="219.101,-112.9049 209.5966,-108.2233 214.1071,-117.8101 219.101,-112.9049"/>
<g id="a_edge16&#45;headlabel"><a xlink:href="dir_001488_001098.html" target="_top" xlink:title="21">
<text text-anchor="middle" x="223.6455" y="-110.4797" font-family="FreeSans" font-size="10.00" fill="#000000">21</text>
</a>
</g>
</g>
<!-- dir_287f0cc412fb0f226f0848cf15c9d6b2&#45;&gt;dir_757891e6cfa4312d4b3a4c078605b5b4 -->
<g id="edge22" class="edge">
<title>dir_287f0cc412fb0f226f0848cf15c9d6b2&#45;&gt;dir_757891e6cfa4312d4b3a4c078605b5b4</title>
<path fill="none" stroke="#000000" d="M175.6165,-71.8314C169.0514,-63.5386 161.1493,-53.557 153.9422,-44.4533"/>
<polygon fill="#000000" stroke="#000000" points="156.5284,-42.0813 147.5772,-36.4133 151.0401,-46.4262 156.5284,-42.0813"/>
<g id="a_edge22&#45;headlabel"><a xlink:href="dir_001098_001222.html" target="_top" xlink:title="25">
<text text-anchor="middle" x="160.9857" y="-40.1373" font-family="FreeSans" font-size="10.00" fill="#000000">25</text>
</a>
</g>
</g>
</g>
</svg>
