<?xml version="1.0" encoding="UTF-8" standalone="no"?>
<!DOCTYPE svg PUBLIC "-//W3C//DTD SVG 1.1//EN"
 "http://www.w3.org/Graphics/SVG/1.1/DTD/svg11.dtd">
<!-- Generated by graphviz version 2.40.1 (20161225.0304)
 -->
<!-- Title: geant4/tree/geant4&#45;10.6&#45;release/examples/extended/parallel/ThreadsafeScorers Pages: 1 -->
<svg width="240pt" height="232pt"
 viewBox="0.00 0.00 240.00 232.00" xmlns="http://www.w3.org/2000/svg" xmlns:xlink="http://www.w3.org/1999/xlink">
<g id="graph0" class="graph" transform="scale(1 1) rotate(0) translate(4 228)">
<title>geant4/tree/geant4&#45;10.6&#45;release/examples/extended/parallel/ThreadsafeScorers</title>
<g id="clust1" class="cluster">
<title>clusterdir_8edac47ec17fa4e2e5e84a568815f53d</title>
<g id="a_clust1"><a xlink:href="dir_8edac47ec17fa4e2e5e84a568815f53d.html" target="_top" xlink:title="parallel">
<polygon fill="#ddddee" stroke="#000000" points="8,-56 8,-216 224,-216 224,-56 8,-56"/>
<text text-anchor="middle" x="116" y="-203" font-family="FreeSans" font-size="10.00" fill="#000000">parallel</text>
</a>
</g>
</g>
<g id="clust2" class="cluster">
<title>clusterdir_40091e5b2db7772f879aa35c86a77a32</title>
<g id="a_clust2"><a xlink:href="dir_40091e5b2db7772f879aa35c86a77a32.html" target="_top">
<polygon fill="#eeeeff" stroke="#000000" points="16,-64 16,-188 216,-188 216,-64 16,-64"/>
</a>
</g>
</g>
<!-- dir_40091e5b2db7772f879aa35c86a77a32 -->
<g id="node1" class="node">
<title>dir_40091e5b2db7772f879aa35c86a77a32</title>
<text text-anchor="middle" x="152" y="-159" font-family="FreeSans" font-size="10.00" fill="#000000">ThreadsafeScorers</text>
</g>
<!-- dir_1d995d69bd628f42a97b50137d52f32a -->
<g id="node2" class="node">
<title>dir_1d995d69bd628f42a97b50137d52f32a</title>
<g id="a_node2"><a xlink:href="dir_1d995d69bd628f42a97b50137d52f32a.html" target="_top" xlink:title="include">
<polygon fill="#ffffff" stroke="#000000" points="78,-108 24,-108 24,-72 78,-72 78,-108"/>
<text text-anchor="middle" x="51" y="-87" font-family="FreeSans" font-size="10.00" fill="#000000">include</text>
</a>
</g>
</g>
<!-- dir_8dbbf6c85c8ca0b78b531287c956fad4 -->
<g id="node4" class="node">
<title>dir_8dbbf6c85c8ca0b78b531287c956fad4</title>
<g id="a_node4"><a xlink:href="dir_8dbbf6c85c8ca0b78b531287c956fad4.html" target="_top" xlink:title="source">
<polygon fill="none" stroke="#ff0000" points="105,-36 51,-36 51,0 105,0 105,-36"/>
<text text-anchor="middle" x="78" y="-15" font-family="FreeSans" font-size="10.00" fill="#000000">source</text>
</a>
</g>
</g>
<!-- dir_1d995d69bd628f42a97b50137d52f32a&#45;&gt;dir_8dbbf6c85c8ca0b78b531287c956fad4 -->
<g id="edge3" class="edge">
<title>dir_1d995d69bd628f42a97b50137d52f32a&#45;&gt;dir_8dbbf6c85c8ca0b78b531287c956fad4</title>
<path fill="none" stroke="#000000" d="M57.8132,-71.8314C60.7644,-63.9617 64.2858,-54.5712 67.555,-45.8533"/>
<polygon fill="#000000" stroke="#000000" points="70.8609,-47.0055 71.095,-36.4133 64.3066,-44.5476 70.8609,-47.0055"/>
<g id="a_edge3&#45;headlabel"><a xlink:href="dir_001089_001094.html" target="_top" xlink:title="29">
<text text-anchor="middle" x="72.2573" y="-48.3682" font-family="FreeSans" font-size="10.00" fill="#000000">29</text>
</a>
</g>
</g>
<!-- dir_e6bdbffdd73f1050dc09e67b8bf75866 -->
<g id="node3" class="node">
<title>dir_e6bdbffdd73f1050dc09e67b8bf75866</title>
<g id="a_node3"><a xlink:href="dir_e6bdbffdd73f1050dc09e67b8bf75866.html" target="_top" xlink:title="src">
<polygon fill="#ffffff" stroke="#000000" points="78,-180 24,-180 24,-144 78,-144 78,-180"/>
<text text-anchor="middle" x="51" y="-159" font-family="FreeSans" font-size="10.00" fill="#000000">src</text>
</a>
</g>
</g>
<!-- dir_e6bdbffdd73f1050dc09e67b8bf75866&#45;&gt;dir_1d995d69bd628f42a97b50137d52f32a -->
<g id="edge1" class="edge">
<title>dir_e6bdbffdd73f1050dc09e67b8bf75866&#45;&gt;dir_1d995d69bd628f42a97b50137d52f32a</title>
<path fill="none" stroke="#000000" d="M51,-143.8314C51,-136.131 51,-126.9743 51,-118.4166"/>
<polygon fill="#000000" stroke="#000000" points="54.5001,-118.4132 51,-108.4133 47.5001,-118.4133 54.5001,-118.4132"/>
<g id="a_edge1&#45;headlabel"><a xlink:href="dir_001090_001089.html" target="_top" xlink:title="14">
<text text-anchor="middle" x="57.3393" y="-119.0079" font-family="FreeSans" font-size="10.00" fill="#000000">14</text>
</a>
</g>
</g>
<!-- dir_e6bdbffdd73f1050dc09e67b8bf75866&#45;&gt;dir_8dbbf6c85c8ca0b78b531287c956fad4 -->
<g id="edge2" class="edge">
<title>dir_e6bdbffdd73f1050dc09e67b8bf75866&#45;&gt;dir_8dbbf6c85c8ca0b78b531287c956fad4</title>
<path fill="none" stroke="#000000" d="M66.9905,-143.9169C74.6538,-134.0371 83.0166,-121.1563 87,-108 93.0862,-87.8985 90.3561,-64.2346 86.3608,-46.2178"/>
<polygon fill="#000000" stroke="#000000" points="89.7149,-45.201 83.9192,-36.3319 82.9191,-46.8794 89.7149,-45.201"/>
<g id="a_edge2&#45;headlabel"><a xlink:href="dir_001090_001094.html" target="_top" xlink:title="53">
<text text-anchor="middle" x="93.3331" y="-45.01" font-family="FreeSans" font-size="10.00" fill="#000000">53</text>
</a>
</g>
</g>
</g>
</svg>
