<?xml version="1.0" encoding="UTF-8" standalone="no"?>
<!DOCTYPE svg PUBLIC "-//W3C//DTD SVG 1.1//EN"
 "http://www.w3.org/Graphics/SVG/1.1/DTD/svg11.dtd">
<!-- Generated by graphviz version 2.40.1 (20161225.0304)
 -->
<!-- Title: geant4/tree/geant4&#45;10.6&#45;release/source/physics_lists/constructors/limiters/include Pages: 1 -->
<svg width="157pt" height="368pt"
 viewBox="0.00 0.00 156.81 368.00" xmlns="http://www.w3.org/2000/svg" xmlns:xlink="http://www.w3.org/1999/xlink">
<g id="graph0" class="graph" transform="scale(1 1) rotate(0) translate(4 364)">
<title>geant4/tree/geant4&#45;10.6&#45;release/source/physics_lists/constructors/limiters/include</title>
<g id="clust1" class="cluster">
<title>clusterdir_7746c31380b1c36d7f8da657196d4ab2</title>
<g id="a_clust1"><a xlink:href="dir_7746c31380b1c36d7f8da657196d4ab2.html" target="_top" xlink:title="limiters">
<polygon fill="#ddddee" stroke="#000000" points="42.6308,-280 42.6308,-352 112.6308,-352 112.6308,-280 42.6308,-280"/>
<text text-anchor="middle" x="77.6308" y="-339" font-family="FreeSans" font-size="10.00" fill="#000000">limiters</text>
</a>
</g>
</g>
<!-- dir_51fdecb6618861edc0113bf7c9b34eb6 -->
<g id="node1" class="node">
<title>dir_51fdecb6618861edc0113bf7c9b34eb6</title>
<g id="a_node1"><a xlink:href="dir_51fdecb6618861edc0113bf7c9b34eb6.html" target="_top" xlink:title="include">
<polygon fill="#eeeeff" stroke="#000000" points="104.6308,-324 50.6308,-324 50.6308,-288 104.6308,-288 104.6308,-324"/>
<text text-anchor="middle" x="77.6308" y="-303" font-family="FreeSans" font-size="10.00" fill="#000000">include</text>
</a>
</g>
</g>
<!-- dir_0086c446c240c49535ef5abd4f54d07f -->
<g id="node2" class="node">
<title>dir_0086c446c240c49535ef5abd4f54d07f</title>
<g id="a_node2"><a xlink:href="dir_0086c446c240c49535ef5abd4f54d07f.html" target="_top" xlink:title="processes">
<polygon fill="none" stroke="#ff0000" points="80.1308,-180 13.1308,-180 13.1308,-144 80.1308,-144 80.1308,-180"/>
<text text-anchor="middle" x="46.6308" y="-159" font-family="FreeSans" font-size="10.00" fill="#000000">processes</text>
</a>
</g>
</g>
<!-- dir_51fdecb6618861edc0113bf7c9b34eb6&#45;&gt;dir_0086c446c240c49535ef5abd4f54d07f -->
<g id="edge7" class="edge">
<title>dir_51fdecb6618861edc0113bf7c9b34eb6&#45;&gt;dir_0086c446c240c49535ef5abd4f54d07f</title>
<path fill="none" stroke="#000000" d="M73.7046,-287.7623C68.3939,-263.0928 58.8715,-218.8598 52.6528,-189.9731"/>
<polygon fill="#000000" stroke="#000000" points="56.0514,-189.129 50.5251,-180.0896 49.2081,-190.6023 56.0514,-189.129"/>
<g id="a_edge7&#45;headlabel"><a xlink:href="dir_001369_001380.html" target="_top" xlink:title="3">
<text text-anchor="middle" x="59.5835" y="-189.0456" font-family="FreeSans" font-size="10.00" fill="#000000">3</text>
</a>
</g>
</g>
<!-- dir_8b492e903df254df24d57630be4a4802 -->
<g id="node3" class="node">
<title>dir_8b492e903df254df24d57630be4a4802</title>
<g id="a_node3"><a xlink:href="dir_8b492e903df254df24d57630be4a4802.html" target="_top" xlink:title="geometry">
<polygon fill="none" stroke="#ff0000" points="118.1308,-108 53.1308,-108 53.1308,-72 118.1308,-72 118.1308,-108"/>
<text text-anchor="middle" x="85.6308" y="-87" font-family="FreeSans" font-size="10.00" fill="#000000">geometry</text>
</a>
</g>
</g>
<!-- dir_51fdecb6618861edc0113bf7c9b34eb6&#45;&gt;dir_8b492e903df254df24d57630be4a4802 -->
<g id="edge8" class="edge">
<title>dir_51fdecb6618861edc0113bf7c9b34eb6&#45;&gt;dir_8b492e903df254df24d57630be4a4802</title>
<path fill="none" stroke="#000000" d="M104.7401,-290.9972C118.5351,-281.7409 133.9733,-268.4801 141.6308,-252 163.0411,-205.9218 130.9808,-149.2447 107.2514,-116.6041"/>
<polygon fill="#000000" stroke="#000000" points="109.9362,-114.3505 101.1336,-108.4542 104.3379,-118.5529 109.9362,-114.3505"/>
<g id="a_edge8&#45;headlabel"><a xlink:href="dir_001369_001242.html" target="_top" xlink:title="1">
<text text-anchor="middle" x="114.3648" y="-112.5207" font-family="FreeSans" font-size="10.00" fill="#000000">1</text>
</a>
</g>
</g>
<!-- dir_41c9d34a413ecf68bb4a387b8a326e1b -->
<g id="node4" class="node">
<title>dir_41c9d34a413ecf68bb4a387b8a326e1b</title>
<g id="a_node4"><a xlink:href="dir_41c9d34a413ecf68bb4a387b8a326e1b.html" target="_top" xlink:title="run">
<polygon fill="none" stroke="#ff0000" points="132.6308,-252 78.6308,-252 78.6308,-216 132.6308,-216 132.6308,-252"/>
<text text-anchor="middle" x="105.6308" y="-231" font-family="FreeSans" font-size="10.00" fill="#000000">run</text>
</a>
</g>
</g>
<!-- dir_51fdecb6618861edc0113bf7c9b34eb6&#45;&gt;dir_41c9d34a413ecf68bb4a387b8a326e1b -->
<g id="edge9" class="edge">
<title>dir_51fdecb6618861edc0113bf7c9b34eb6&#45;&gt;dir_41c9d34a413ecf68bb4a387b8a326e1b</title>
<path fill="none" stroke="#000000" d="M84.6964,-287.8314C87.7568,-279.9617 91.4087,-270.5712 94.799,-261.8533"/>
<polygon fill="#000000" stroke="#000000" points="98.1076,-263.0019 98.4701,-252.4133 91.5836,-260.4647 98.1076,-263.0019"/>
<g id="a_edge9&#45;headlabel"><a xlink:href="dir_001369_001603.html" target="_top" xlink:title="7">
<text text-anchor="middle" x="99.451" y="-264.3812" font-family="FreeSans" font-size="10.00" fill="#000000">7</text>
</a>
</g>
</g>
<!-- dir_287f0cc412fb0f226f0848cf15c9d6b2 -->
<g id="node5" class="node">
<title>dir_287f0cc412fb0f226f0848cf15c9d6b2</title>
<g id="a_node5"><a xlink:href="dir_287f0cc412fb0f226f0848cf15c9d6b2.html" target="_top" xlink:title="global">
<polygon fill="none" stroke="#ff0000" points="81.6308,-36 27.6308,-36 27.6308,0 81.6308,0 81.6308,-36"/>
<text text-anchor="middle" x="54.6308" y="-15" font-family="FreeSans" font-size="10.00" fill="#000000">global</text>
</a>
</g>
</g>
<!-- dir_51fdecb6618861edc0113bf7c9b34eb6&#45;&gt;dir_287f0cc412fb0f226f0848cf15c9d6b2 -->
<g id="edge10" class="edge">
<title>dir_51fdecb6618861edc0113bf7c9b34eb6&#45;&gt;dir_287f0cc412fb0f226f0848cf15c9d6b2</title>
<path fill="none" stroke="#000000" d="M62.6558,-287.8047C44.5496,-264.5098 15.0807,-222.105 3.6308,-180 -9.3971,-132.0919 16.7757,-77.1224 36.2183,-45.1059"/>
<polygon fill="#000000" stroke="#000000" points="39.3791,-46.654 41.735,-36.3245 33.4517,-42.9303 39.3791,-46.654"/>
<g id="a_edge10&#45;headlabel"><a xlink:href="dir_001369_001098.html" target="_top" xlink:title="13">
<text text-anchor="middle" x="39.8711" y="-48.2082" font-family="FreeSans" font-size="10.00" fill="#000000">13</text>
</a>
</g>
</g>
<!-- dir_0086c446c240c49535ef5abd4f54d07f&#45;&gt;dir_8b492e903df254df24d57630be4a4802 -->
<g id="edge1" class="edge">
<title>dir_0086c446c240c49535ef5abd4f54d07f&#45;&gt;dir_8b492e903df254df24d57630be4a4802</title>
<path fill="none" stroke="#000000" d="M56.4722,-143.8314C60.8266,-135.7925 66.0406,-126.1666 70.8478,-117.2918"/>
<polygon fill="#000000" stroke="#000000" points="73.9716,-118.8732 75.657,-108.4133 67.8166,-115.5392 73.9716,-118.8732"/>
<g id="a_edge1&#45;headlabel"><a xlink:href="dir_001380_001242.html" target="_top" xlink:title="258">
<text text-anchor="middle" x="74.7561" y="-120.3862" font-family="FreeSans" font-size="10.00" fill="#000000">258</text>
</a>
</g>
</g>
<!-- dir_0086c446c240c49535ef5abd4f54d07f&#45;&gt;dir_287f0cc412fb0f226f0848cf15c9d6b2 -->
<g id="edge2" class="edge">
<title>dir_0086c446c240c49535ef5abd4f54d07f&#45;&gt;dir_287f0cc412fb0f226f0848cf15c9d6b2</title>
<path fill="none" stroke="#000000" d="M44.5911,-143.6804C42.8985,-125.4605 41.1374,-96.7322 43.6308,-72 44.481,-63.5665 46.0602,-54.5029 47.7619,-46.2554"/>
<polygon fill="#000000" stroke="#000000" points="51.2099,-46.8719 49.9374,-36.3537 44.373,-45.3697 51.2099,-46.8719"/>
<g id="a_edge2&#45;headlabel"><a xlink:href="dir_001380_001098.html" target="_top" xlink:title="4568">
<text text-anchor="middle" x="53.2117" y="-47.992" font-family="FreeSans" font-size="10.00" fill="#000000">4568</text>
</a>
</g>
</g>
<!-- dir_8b492e903df254df24d57630be4a4802&#45;&gt;dir_287f0cc412fb0f226f0848cf15c9d6b2 -->
<g id="edge3" class="edge">
<title>dir_8b492e903df254df24d57630be4a4802&#45;&gt;dir_287f0cc412fb0f226f0848cf15c9d6b2</title>
<path fill="none" stroke="#000000" d="M77.8082,-71.8314C74.4199,-63.9617 70.3767,-54.5712 66.6232,-45.8533"/>
<polygon fill="#000000" stroke="#000000" points="69.7281,-44.214 62.5587,-36.4133 63.2987,-46.9822 69.7281,-44.214"/>
<g id="a_edge3&#45;headlabel"><a xlink:href="dir_001242_001098.html" target="_top" xlink:title="538">
<text text-anchor="middle" x="73.7574" y="-43.3928" font-family="FreeSans" font-size="10.00" fill="#000000">538</text>
</a>
</g>
</g>
<!-- dir_41c9d34a413ecf68bb4a387b8a326e1b&#45;&gt;dir_0086c446c240c49535ef5abd4f54d07f -->
<g id="edge4" class="edge">
<title>dir_41c9d34a413ecf68bb4a387b8a326e1b&#45;&gt;dir_0086c446c240c49535ef5abd4f54d07f</title>
<path fill="none" stroke="#000000" d="M90.7426,-215.8314C83.8778,-207.454 75.6007,-197.3531 68.0797,-188.1749"/>
<polygon fill="#000000" stroke="#000000" points="70.7649,-185.9297 61.7195,-180.4133 65.3505,-190.3665 70.7649,-185.9297"/>
<g id="a_edge4&#45;headlabel"><a xlink:href="dir_001603_001380.html" target="_top" xlink:title="29">
<text text-anchor="middle" x="75.2393" y="-183.9104" font-family="FreeSans" font-size="10.00" fill="#000000">29</text>
</a>
</g>
</g>
<!-- dir_41c9d34a413ecf68bb4a387b8a326e1b&#45;&gt;dir_8b492e903df254df24d57630be4a4802 -->
<g id="edge5" class="edge">
<title>dir_41c9d34a413ecf68bb4a387b8a326e1b&#45;&gt;dir_8b492e903df254df24d57630be4a4802</title>
<path fill="none" stroke="#000000" d="M103.0978,-215.7623C99.6865,-191.201 93.5818,-147.2474 89.5689,-118.3541"/>
<polygon fill="#000000" stroke="#000000" points="92.9858,-117.513 88.1433,-108.0896 86.0523,-118.4761 92.9858,-117.513"/>
<g id="a_edge5&#45;headlabel"><a xlink:href="dir_001603_001242.html" target="_top" xlink:title="57">
<text text-anchor="middle" x="96.2925" y="-117.6829" font-family="FreeSans" font-size="10.00" fill="#000000">57</text>
</a>
</g>
</g>
<!-- dir_41c9d34a413ecf68bb4a387b8a326e1b&#45;&gt;dir_287f0cc412fb0f226f0848cf15c9d6b2 -->
<g id="edge6" class="edge">
<title>dir_41c9d34a413ecf68bb4a387b8a326e1b&#45;&gt;dir_287f0cc412fb0f226f0848cf15c9d6b2</title>
<path fill="none" stroke="#000000" d="M114.3358,-215.876C127.9726,-184.7022 150.4751,-119.6885 126.6308,-72 118.9498,-56.638 104.5904,-44.5124 90.7039,-35.6761"/>
<polygon fill="#000000" stroke="#000000" points="92.1073,-32.439 81.7217,-30.3435 88.5337,-38.4582 92.1073,-32.439"/>
<g id="a_edge6&#45;headlabel"><a xlink:href="dir_001603_001098.html" target="_top" xlink:title="102">
<text text-anchor="middle" x="96.6476" y="-28.8326" font-family="FreeSans" font-size="10.00" fill="#000000">102</text>
</a>
</g>
</g>
</g>
</svg>
