<?xml version="1.0" encoding="UTF-8" standalone="no"?>
<!DOCTYPE svg PUBLIC "-//W3C//DTD SVG 1.1//EN"
 "http://www.w3.org/Graphics/SVG/1.1/DTD/svg11.dtd">
<!-- Generated by graphviz version 2.40.1 (20161225.0304)
 -->
<!-- Title: geant4/tree/geant4&#45;10.6&#45;release/source/processes/hadronic/models/radioactive_decay/include Pages: 1 -->
<svg width="402pt" height="512pt"
 viewBox="0.00 0.00 402.00 512.00" xmlns="http://www.w3.org/2000/svg" xmlns:xlink="http://www.w3.org/1999/xlink">
<g id="graph0" class="graph" transform="scale(1 1) rotate(0) translate(4 508)">
<title>geant4/tree/geant4&#45;10.6&#45;release/source/processes/hadronic/models/radioactive_decay/include</title>
<g id="clust1" class="cluster">
<title>clusterdir_e3c7bbd30b72e3ecbcd6c59adbac5cf8</title>
<g id="a_clust1"><a xlink:href="dir_e3c7bbd30b72e3ecbcd6c59adbac5cf8.html" target="_top" xlink:title="radioactive_decay">
<polygon fill="#ddddee" stroke="#000000" points="106,-424 106,-496 214,-496 214,-424 106,-424"/>
<text text-anchor="middle" x="160" y="-483" font-family="FreeSans" font-size="10.00" fill="#000000">radioactive_decay</text>
</a>
</g>
</g>
<!-- dir_1def26f34ac7a02832824d0d51fc6e00 -->
<g id="node1" class="node">
<title>dir_1def26f34ac7a02832824d0d51fc6e00</title>
<g id="a_node1"><a xlink:href="dir_1def26f34ac7a02832824d0d51fc6e00.html" target="_top" xlink:title="include">
<polygon fill="#eeeeff" stroke="#000000" points="187,-468 133,-468 133,-432 187,-432 187,-468"/>
<text text-anchor="middle" x="160" y="-447" font-family="FreeSans" font-size="10.00" fill="#000000">include</text>
</a>
</g>
</g>
<!-- dir_757891e6cfa4312d4b3a4c078605b5b4 -->
<g id="node2" class="node">
<title>dir_757891e6cfa4312d4b3a4c078605b5b4</title>
<g id="a_node2"><a xlink:href="dir_757891e6cfa4312d4b3a4c078605b5b4.html" target="_top" xlink:title="externals">
<polygon fill="none" stroke="#ff0000" points="145.5,-36 82.5,-36 82.5,0 145.5,0 145.5,-36"/>
<text text-anchor="middle" x="114" y="-15" font-family="FreeSans" font-size="10.00" fill="#000000">externals</text>
</a>
</g>
</g>
<!-- dir_1def26f34ac7a02832824d0d51fc6e00&#45;&gt;dir_757891e6cfa4312d4b3a4c078605b5b4 -->
<g id="edge11" class="edge">
<title>dir_1def26f34ac7a02832824d0d51fc6e00&#45;&gt;dir_757891e6cfa4312d4b3a4c078605b5b4</title>
<path fill="none" stroke="#000000" d="M132.8582,-440.0864C87.2095,-421.4597 0,-376.6315 0,-306 0,-306 0,-306 0,-162 0,-111.147 44.2447,-67.7674 77.6064,-42.2861"/>
<polygon fill="#000000" stroke="#000000" points="79.8693,-44.9655 85.8202,-36.1998 75.7018,-39.3413 79.8693,-44.9655"/>
<g id="a_edge11&#45;headlabel"><a xlink:href="dir_001558_001222.html" target="_top" xlink:title="3">
<text text-anchor="middle" x="78.6716" y="-46.3868" font-family="FreeSans" font-size="10.00" fill="#000000">3</text>
</a>
</g>
</g>
<!-- dir_c818fe51885796c4d4737f4e685c6adb -->
<g id="node3" class="node">
<title>dir_c818fe51885796c4d4737f4e685c6adb</title>
<g id="a_node3"><a xlink:href="dir_c818fe51885796c4d4737f4e685c6adb.html" target="_top" xlink:title="track">
<polygon fill="none" stroke="#ff0000" points="394,-324 340,-324 340,-288 394,-288 394,-324"/>
<text text-anchor="middle" x="367" y="-303" font-family="FreeSans" font-size="10.00" fill="#000000">track</text>
</a>
</g>
</g>
<!-- dir_1def26f34ac7a02832824d0d51fc6e00&#45;&gt;dir_c818fe51885796c4d4737f4e685c6adb -->
<g id="edge12" class="edge">
<title>dir_1def26f34ac7a02832824d0d51fc6e00&#45;&gt;dir_c818fe51885796c4d4737f4e685c6adb</title>
<path fill="none" stroke="#000000" d="M187.1513,-447.8482C223.0343,-443.6582 286.3281,-431.4259 326,-396 344.2129,-379.7364 354.8432,-353.7686 360.6949,-333.8971"/>
<polygon fill="#000000" stroke="#000000" points="364.1002,-334.7121 363.3343,-324.145 357.3433,-332.8833 364.1002,-334.7121"/>
<g id="a_edge12&#45;headlabel"><a xlink:href="dir_001558_001606.html" target="_top" xlink:title="3">
<text text-anchor="middle" x="365.9019" y="-335.9236" font-family="FreeSans" font-size="10.00" fill="#000000">3</text>
</a>
</g>
</g>
<!-- dir_44ffb5aaa71a7102f6494cee342329ca -->
<g id="node4" class="node">
<title>dir_44ffb5aaa71a7102f6494cee342329ca</title>
<g id="a_node4"><a xlink:href="dir_44ffb5aaa71a7102f6494cee342329ca.html" target="_top" xlink:title="intercoms">
<polygon fill="none" stroke="#ff0000" points="246,-180 180,-180 180,-144 246,-144 246,-180"/>
<text text-anchor="middle" x="213" y="-159" font-family="FreeSans" font-size="10.00" fill="#000000">intercoms</text>
</a>
</g>
</g>
<!-- dir_1def26f34ac7a02832824d0d51fc6e00&#45;&gt;dir_44ffb5aaa71a7102f6494cee342329ca -->
<g id="edge13" class="edge">
<title>dir_1def26f34ac7a02832824d0d51fc6e00&#45;&gt;dir_44ffb5aaa71a7102f6494cee342329ca</title>
<path fill="none" stroke="#000000" d="M163.3154,-431.9843C172.2758,-383.2939 197.0271,-248.7961 207.8367,-190.0573"/>
<polygon fill="#000000" stroke="#000000" points="211.3181,-190.4772 209.6859,-180.0089 204.4337,-189.2102 211.3181,-190.4772"/>
<g id="a_edge13&#45;headlabel"><a xlink:href="dir_001558_001283.html" target="_top" xlink:title="28">
<text text-anchor="middle" x="213.46" y="-191.5263" font-family="FreeSans" font-size="10.00" fill="#000000">28</text>
</a>
</g>
</g>
<!-- dir_c1638eb68104f33837f5e92778eb538f -->
<g id="node5" class="node">
<title>dir_c1638eb68104f33837f5e92778eb538f</title>
<g id="a_node5"><a xlink:href="dir_c1638eb68104f33837f5e92778eb538f.html" target="_top" xlink:title="util">
<polygon fill="none" stroke="#ff0000" points="94,-324 40,-324 40,-288 94,-288 94,-324"/>
<text text-anchor="middle" x="67" y="-303" font-family="FreeSans" font-size="10.00" fill="#000000">util</text>
</a>
</g>
</g>
<!-- dir_1def26f34ac7a02832824d0d51fc6e00&#45;&gt;dir_c1638eb68104f33837f5e92778eb538f -->
<g id="edge14" class="edge">
<title>dir_1def26f34ac7a02832824d0d51fc6e00&#45;&gt;dir_c1638eb68104f33837f5e92778eb538f</title>
<path fill="none" stroke="#000000" d="M139.5102,-431.8968C129.1544,-422.0114 116.9262,-409.1318 108,-396 94.8065,-376.5904 84.0134,-352.2499 76.8187,-333.7775"/>
<polygon fill="#000000" stroke="#000000" points="80.0049,-332.3074 73.1994,-324.1873 73.4557,-334.7791 80.0049,-332.3074"/>
<g id="a_edge14&#45;headlabel"><a xlink:href="dir_001558_001566.html" target="_top" xlink:title="1">
<text text-anchor="middle" x="83.9304" y="-331.668" font-family="FreeSans" font-size="10.00" fill="#000000">1</text>
</a>
</g>
</g>
<!-- dir_5a1ad02af0bee2bc2f876b255ce01433 -->
<g id="node6" class="node">
<title>dir_5a1ad02af0bee2bc2f876b255ce01433</title>
<g id="a_node6"><a xlink:href="dir_5a1ad02af0bee2bc2f876b255ce01433.html" target="_top" xlink:title="particles">
<polygon fill="none" stroke="#ff0000" points="164,-252 104,-252 104,-216 164,-216 164,-252"/>
<text text-anchor="middle" x="134" y="-231" font-family="FreeSans" font-size="10.00" fill="#000000">particles</text>
</a>
</g>
</g>
<!-- dir_1def26f34ac7a02832824d0d51fc6e00&#45;&gt;dir_5a1ad02af0bee2bc2f876b255ce01433 -->
<g id="edge15" class="edge">
<title>dir_1def26f34ac7a02832824d0d51fc6e00&#45;&gt;dir_5a1ad02af0bee2bc2f876b255ce01433</title>
<path fill="none" stroke="#000000" d="M154.3755,-431.6814C151.4126,-421.3092 147.99,-408.0397 146,-396 138.3146,-349.5026 135.5495,-294.6797 134.5558,-262.2136"/>
<polygon fill="#000000" stroke="#000000" points="138.0516,-262.0063 134.2822,-252.1047 131.0542,-262.1958 138.0516,-262.0063"/>
<g id="a_edge15&#45;headlabel"><a xlink:href="dir_001558_001303.html" target="_top" xlink:title="2">
<text text-anchor="middle" x="140.987" y="-262.5229" font-family="FreeSans" font-size="10.00" fill="#000000">2</text>
</a>
</g>
</g>
<!-- dir_287f0cc412fb0f226f0848cf15c9d6b2 -->
<g id="node7" class="node">
<title>dir_287f0cc412fb0f226f0848cf15c9d6b2</title>
<g id="a_node7"><a xlink:href="dir_287f0cc412fb0f226f0848cf15c9d6b2.html" target="_top" xlink:title="global">
<polygon fill="none" stroke="#ff0000" points="240,-108 186,-108 186,-72 240,-72 240,-108"/>
<text text-anchor="middle" x="213" y="-87" font-family="FreeSans" font-size="10.00" fill="#000000">global</text>
</a>
</g>
</g>
<!-- dir_1def26f34ac7a02832824d0d51fc6e00&#45;&gt;dir_287f0cc412fb0f226f0848cf15c9d6b2 -->
<g id="edge16" class="edge">
<title>dir_1def26f34ac7a02832824d0d51fc6e00&#45;&gt;dir_287f0cc412fb0f226f0848cf15c9d6b2</title>
<path fill="none" stroke="#000000" d="M187.1168,-445.5932C215.9866,-439.4809 261.0164,-425.6344 287,-396 314.3695,-364.7851 312,-347.5145 312,-306 312,-306 312,-306 312,-234 312,-190.5807 299.3289,-179.2659 274,-144 266.2526,-133.2132 255.9819,-123.0744 246.0812,-114.5596"/>
<polygon fill="#000000" stroke="#000000" points="248.2105,-111.7786 238.2757,-108.0976 243.7466,-117.1707 248.2105,-111.7786"/>
<g id="a_edge16&#45;headlabel"><a xlink:href="dir_001558_001098.html" target="_top" xlink:title="32">
<text text-anchor="middle" x="252.79" y="-108.8838" font-family="FreeSans" font-size="10.00" fill="#000000">32</text>
</a>
</g>
</g>
<!-- dir_cea3ee4adc5a56a1765eca0782406a46 -->
<g id="node8" class="node">
<title>dir_cea3ee4adc5a56a1765eca0782406a46</title>
<g id="a_node8"><a xlink:href="dir_cea3ee4adc5a56a1765eca0782406a46.html" target="_top" xlink:title="management">
<polygon fill="none" stroke="#ff0000" points="278.5,-396 193.5,-396 193.5,-360 278.5,-360 278.5,-396"/>
<text text-anchor="middle" x="236" y="-375" font-family="FreeSans" font-size="10.00" fill="#000000">management</text>
</a>
</g>
</g>
<!-- dir_1def26f34ac7a02832824d0d51fc6e00&#45;&gt;dir_cea3ee4adc5a56a1765eca0782406a46 -->
<g id="edge17" class="edge">
<title>dir_1def26f34ac7a02832824d0d51fc6e00&#45;&gt;dir_cea3ee4adc5a56a1765eca0782406a46</title>
<path fill="none" stroke="#000000" d="M179.178,-431.8314C188.3588,-423.1337 199.5006,-412.5783 209.4776,-403.1265"/>
<polygon fill="#000000" stroke="#000000" points="211.9757,-405.5811 216.8281,-396.1628 207.1615,-400.4995 211.9757,-405.5811"/>
<g id="a_edge17&#45;headlabel"><a xlink:href="dir_001558_001578.html" target="_top" xlink:title="3">
<text text-anchor="middle" x="211.3189" y="-407.1145" font-family="FreeSans" font-size="10.00" fill="#000000">3</text>
</a>
</g>
</g>
<!-- dir_c818fe51885796c4d4737f4e685c6adb&#45;&gt;dir_757891e6cfa4312d4b3a4c078605b5b4 -->
<g id="edge1" class="edge">
<title>dir_c818fe51885796c4d4737f4e685c6adb&#45;&gt;dir_757891e6cfa4312d4b3a4c078605b5b4</title>
<path fill="none" stroke="#000000" d="M370.6892,-287.884C376.1852,-255.5654 382.7512,-187.3046 351,-144 302.7231,-78.1565 209.5146,-43.4205 155.4909,-28.0536"/>
<polygon fill="#000000" stroke="#000000" points="156.1266,-24.5985 145.5564,-25.3206 154.2698,-31.3477 156.1266,-24.5985"/>
<g id="a_edge1&#45;headlabel"><a xlink:href="dir_001606_001222.html" target="_top" xlink:title="1">
<text text-anchor="middle" x="160.3455" y="-19.8143" font-family="FreeSans" font-size="10.00" fill="#000000">1</text>
</a>
</g>
</g>
<!-- dir_c818fe51885796c4d4737f4e685c6adb&#45;&gt;dir_5a1ad02af0bee2bc2f876b255ce01433 -->
<g id="edge2" class="edge">
<title>dir_c818fe51885796c4d4737f4e685c6adb&#45;&gt;dir_5a1ad02af0bee2bc2f876b255ce01433</title>
<path fill="none" stroke="#000000" d="M339.8159,-297.5998C298.9093,-284.9591 221.2859,-260.9725 173.9393,-246.3418"/>
<polygon fill="#000000" stroke="#000000" points="174.9073,-242.9776 164.3197,-243.3692 172.8406,-249.6656 174.9073,-242.9776"/>
<g id="a_edge2&#45;headlabel"><a xlink:href="dir_001606_001303.html" target="_top" xlink:title="9">
<text text-anchor="middle" x="179.1799" y="-238.3261" font-family="FreeSans" font-size="10.00" fill="#000000">9</text>
</a>
</g>
</g>
<!-- dir_c818fe51885796c4d4737f4e685c6adb&#45;&gt;dir_287f0cc412fb0f226f0848cf15c9d6b2 -->
<g id="edge3" class="edge">
<title>dir_c818fe51885796c4d4737f4e685c6adb&#45;&gt;dir_287f0cc412fb0f226f0848cf15c9d6b2</title>
<path fill="none" stroke="#000000" d="M367.196,-287.751C366.5984,-255.2214 360.936,-186.6374 326,-144 306.8634,-120.6448 275.2376,-106.7381 250.3032,-98.9015"/>
<polygon fill="#000000" stroke="#000000" points="251.0093,-95.461 240.4281,-95.9992 249.0354,-102.177 251.0093,-95.461"/>
<g id="a_edge3&#45;headlabel"><a xlink:href="dir_001606_001098.html" target="_top" xlink:title="59">
<text text-anchor="middle" x="255.2586" y="-90.7505" font-family="FreeSans" font-size="10.00" fill="#000000">59</text>
</a>
</g>
</g>
<!-- dir_44ffb5aaa71a7102f6494cee342329ca&#45;&gt;dir_287f0cc412fb0f226f0848cf15c9d6b2 -->
<g id="edge4" class="edge">
<title>dir_44ffb5aaa71a7102f6494cee342329ca&#45;&gt;dir_287f0cc412fb0f226f0848cf15c9d6b2</title>
<path fill="none" stroke="#000000" d="M213,-143.8314C213,-136.131 213,-126.9743 213,-118.4166"/>
<polygon fill="#000000" stroke="#000000" points="216.5001,-118.4132 213,-108.4133 209.5001,-118.4133 216.5001,-118.4132"/>
<g id="a_edge4&#45;headlabel"><a xlink:href="dir_001283_001098.html" target="_top" xlink:title="49">
<text text-anchor="middle" x="219.3393" y="-119.0079" font-family="FreeSans" font-size="10.00" fill="#000000">49</text>
</a>
</g>
</g>
<!-- dir_c1638eb68104f33837f5e92778eb538f&#45;&gt;dir_757891e6cfa4312d4b3a4c078605b5b4 -->
<g id="edge5" class="edge">
<title>dir_c1638eb68104f33837f5e92778eb538f&#45;&gt;dir_757891e6cfa4312d4b3a4c078605b5b4</title>
<path fill="none" stroke="#000000" d="M68.6347,-287.6771C70.3548,-269.4547 73.3215,-240.7245 77,-216 86.0552,-155.1377 100.1423,-84.4004 108.0662,-46.1158"/>
<polygon fill="#000000" stroke="#000000" points="111.516,-46.7169 110.1284,-36.2133 104.663,-45.2897 111.516,-46.7169"/>
<g id="a_edge5&#45;headlabel"><a xlink:href="dir_001566_001222.html" target="_top" xlink:title="3">
<text text-anchor="middle" x="113.5629" y="-47.8148" font-family="FreeSans" font-size="10.00" fill="#000000">3</text>
</a>
</g>
</g>
<!-- dir_c1638eb68104f33837f5e92778eb538f&#45;&gt;dir_5a1ad02af0bee2bc2f876b255ce01433 -->
<g id="edge6" class="edge">
<title>dir_c1638eb68104f33837f5e92778eb538f&#45;&gt;dir_5a1ad02af0bee2bc2f876b255ce01433</title>
<path fill="none" stroke="#000000" d="M83.9069,-287.8314C91.7813,-279.3694 101.292,-269.1489 109.9013,-259.8971"/>
<polygon fill="#000000" stroke="#000000" points="112.6153,-262.1183 116.8654,-252.4133 107.4908,-257.3497 112.6153,-262.1183"/>
<g id="a_edge6&#45;headlabel"><a xlink:href="dir_001566_001303.html" target="_top" xlink:title="29">
<text text-anchor="middle" x="112.2451" y="-263.684" font-family="FreeSans" font-size="10.00" fill="#000000">29</text>
</a>
</g>
</g>
<!-- dir_c1638eb68104f33837f5e92778eb538f&#45;&gt;dir_287f0cc412fb0f226f0848cf15c9d6b2 -->
<g id="edge7" class="edge">
<title>dir_c1638eb68104f33837f5e92778eb538f&#45;&gt;dir_287f0cc412fb0f226f0848cf15c9d6b2</title>
<path fill="none" stroke="#000000" d="M70.709,-287.6862C74.9485,-268.968 82.9049,-239.4051 95,-216 116.1636,-175.0465 154.4949,-137.8185 181.7232,-114.624"/>
<polygon fill="#000000" stroke="#000000" points="184.0087,-117.2753 189.4348,-108.1754 179.5183,-111.9054 184.0087,-117.2753"/>
<g id="a_edge7&#45;headlabel"><a xlink:href="dir_001566_001098.html" target="_top" xlink:title="130">
<text text-anchor="middle" x="183.0726" y="-118.7593" font-family="FreeSans" font-size="10.00" fill="#000000">130</text>
</a>
</g>
</g>
<!-- dir_5a1ad02af0bee2bc2f876b255ce01433&#45;&gt;dir_757891e6cfa4312d4b3a4c078605b5b4 -->
<g id="edge8" class="edge">
<title>dir_5a1ad02af0bee2bc2f876b255ce01433&#45;&gt;dir_757891e6cfa4312d4b3a4c078605b5b4</title>
<path fill="none" stroke="#000000" d="M132.3292,-215.9555C128.8439,-178.3144 120.7765,-91.1867 116.6041,-46.1246"/>
<polygon fill="#000000" stroke="#000000" points="120.0873,-45.7797 115.6801,-36.1451 113.1171,-46.4252 120.0873,-45.7797"/>
<g id="a_edge8&#45;headlabel"><a xlink:href="dir_001303_001222.html" target="_top" xlink:title="5">
<text text-anchor="middle" x="123.2458" y="-46.0973" font-family="FreeSans" font-size="10.00" fill="#000000">5</text>
</a>
</g>
</g>
<!-- dir_5a1ad02af0bee2bc2f876b255ce01433&#45;&gt;dir_44ffb5aaa71a7102f6494cee342329ca -->
<g id="edge9" class="edge">
<title>dir_5a1ad02af0bee2bc2f876b255ce01433&#45;&gt;dir_44ffb5aaa71a7102f6494cee342329ca</title>
<path fill="none" stroke="#000000" d="M153.935,-215.8314C163.4783,-207.1337 175.0599,-196.5783 185.4306,-187.1265"/>
<polygon fill="#000000" stroke="#000000" points="188.038,-189.4857 193.0713,-180.1628 183.3228,-184.3121 188.038,-189.4857"/>
<g id="a_edge9&#45;headlabel"><a xlink:href="dir_001303_001283.html" target="_top" xlink:title="28">
<text text-anchor="middle" x="187.2938" y="-191.0055" font-family="FreeSans" font-size="10.00" fill="#000000">28</text>
</a>
</g>
</g>
<!-- dir_5a1ad02af0bee2bc2f876b255ce01433&#45;&gt;dir_287f0cc412fb0f226f0848cf15c9d6b2 -->
<g id="edge10" class="edge">
<title>dir_5a1ad02af0bee2bc2f876b255ce01433&#45;&gt;dir_287f0cc412fb0f226f0848cf15c9d6b2</title>
<path fill="none" stroke="#000000" d="M139.8669,-215.7372C146.2382,-197.0597 157.3546,-167.5286 171,-144 176.5991,-134.3456 183.7466,-124.503 190.5515,-115.9112"/>
<polygon fill="#000000" stroke="#000000" points="193.3087,-118.0682 196.909,-108.1038 187.8806,-113.6481 193.3087,-118.0682"/>
<g id="a_edge10&#45;headlabel"><a xlink:href="dir_001303_001098.html" target="_top" xlink:title="647">
<text text-anchor="middle" x="193.2406" y="-119.6483" font-family="FreeSans" font-size="10.00" fill="#000000">647</text>
</a>
</g>
</g>
<!-- dir_287f0cc412fb0f226f0848cf15c9d6b2&#45;&gt;dir_757891e6cfa4312d4b3a4c078605b5b4 -->
<g id="edge18" class="edge">
<title>dir_287f0cc412fb0f226f0848cf15c9d6b2&#45;&gt;dir_757891e6cfa4312d4b3a4c078605b5b4</title>
<path fill="none" stroke="#000000" d="M188.0181,-71.8314C175.7072,-62.8779 160.6893,-51.9558 147.4063,-42.2955"/>
<polygon fill="#000000" stroke="#000000" points="149.1199,-39.214 138.9739,-36.1628 145.0027,-44.8752 149.1199,-39.214"/>
<g id="a_edge18&#45;headlabel"><a xlink:href="dir_001098_001222.html" target="_top" xlink:title="25">
<text text-anchor="middle" x="153.6969" y="-36.032" font-family="FreeSans" font-size="10.00" fill="#000000">25</text>
</a>
</g>
</g>
<!-- dir_cea3ee4adc5a56a1765eca0782406a46&#45;&gt;dir_c818fe51885796c4d4737f4e685c6adb -->
<g id="edge19" class="edge">
<title>dir_cea3ee4adc5a56a1765eca0782406a46&#45;&gt;dir_c818fe51885796c4d4737f4e685c6adb</title>
<path fill="none" stroke="#000000" d="M269.0568,-359.8314C287.9017,-349.4739 311.5399,-336.4819 330.8725,-325.8563"/>
<polygon fill="#000000" stroke="#000000" points="332.6198,-328.8898 339.6976,-321.0059 329.2481,-322.7553 332.6198,-328.8898"/>
<g id="a_edge19&#45;headlabel"><a xlink:href="dir_001578_001606.html" target="_top" xlink:title="25">
<text text-anchor="middle" x="330.8372" y="-330.1094" font-family="FreeSans" font-size="10.00" fill="#000000">25</text>
</a>
</g>
</g>
<!-- dir_cea3ee4adc5a56a1765eca0782406a46&#45;&gt;dir_44ffb5aaa71a7102f6494cee342329ca -->
<g id="edge20" class="edge">
<title>dir_cea3ee4adc5a56a1765eca0782406a46&#45;&gt;dir_44ffb5aaa71a7102f6494cee342329ca</title>
<path fill="none" stroke="#000000" d="M234.0786,-359.9555C230.0705,-322.3144 220.793,-235.1867 215.9947,-190.1246"/>
<polygon fill="#000000" stroke="#000000" points="219.4714,-189.7182 214.9321,-180.1451 212.5107,-190.4595 219.4714,-189.7182"/>
<g id="a_edge20&#45;headlabel"><a xlink:href="dir_001578_001283.html" target="_top" xlink:title="11">
<text text-anchor="middle" x="222.6752" y="-189.992" font-family="FreeSans" font-size="10.00" fill="#000000">11</text>
</a>
</g>
</g>
<!-- dir_cea3ee4adc5a56a1765eca0782406a46&#45;&gt;dir_5a1ad02af0bee2bc2f876b255ce01433 -->
<g id="edge21" class="edge">
<title>dir_cea3ee4adc5a56a1765eca0782406a46&#45;&gt;dir_5a1ad02af0bee2bc2f876b255ce01433</title>
<path fill="none" stroke="#000000" d="M223.0816,-359.7623C205.3009,-334.66 173.172,-289.3017 152.7475,-260.4671"/>
<polygon fill="#000000" stroke="#000000" points="155.4498,-258.2268 146.8135,-252.0896 149.7376,-262.273 155.4498,-258.2268"/>
<g id="a_edge21&#45;headlabel"><a xlink:href="dir_001578_001303.html" target="_top" xlink:title="102">
<text text-anchor="middle" x="159.8444" y="-256.5189" font-family="FreeSans" font-size="10.00" fill="#000000">102</text>
</a>
</g>
</g>
<!-- dir_cea3ee4adc5a56a1765eca0782406a46&#45;&gt;dir_287f0cc412fb0f226f0848cf15c9d6b2 -->
<g id="edge22" class="edge">
<title>dir_cea3ee4adc5a56a1765eca0782406a46&#45;&gt;dir_287f0cc412fb0f226f0848cf15c9d6b2</title>
<path fill="none" stroke="#000000" d="M242.3213,-359.774C255.241,-319.5618 281.3231,-220.7196 255,-144 251.531,-133.8894 245.3101,-124.2137 238.701,-115.9166"/>
<polygon fill="#000000" stroke="#000000" points="241.2008,-113.4539 232.05,-108.1141 235.8735,-117.9949 241.2008,-113.4539"/>
<g id="a_edge22&#45;headlabel"><a xlink:href="dir_001578_001098.html" target="_top" xlink:title="50">
<text text-anchor="middle" x="245.6934" y="-111.3476" font-family="FreeSans" font-size="10.00" fill="#000000">50</text>
</a>
</g>
</g>
</g>
</svg>
