<?xml version="1.0" encoding="UTF-8" standalone="no"?>
<!DOCTYPE svg PUBLIC "-//W3C//DTD SVG 1.1//EN"
 "http://www.w3.org/Graphics/SVG/1.1/DTD/svg11.dtd">
<!-- Generated by graphviz version 2.40.1 (20161225.0304)
 -->
<!-- Title: Graphical Class Hierarchy Pages: 1 -->
<svg width="363pt" height="224pt"
 viewBox="0.00 0.00 363.00 224.00" xmlns="http://www.w3.org/2000/svg" xmlns:xlink="http://www.w3.org/1999/xlink">
<g id="graph0" class="graph" transform="scale(1 1) rotate(0) translate(4 220)">
<title>Graphical Class Hierarchy</title>
<!-- Node1 -->
<g id="node1" class="node">
<title>Node1</title>
<g id="a_node1"><a xlink:href="df/d2d/classG4VDataSetAlgorithm.html" target="_top" xlink:title="G4VDataSetAlgorithm">
<polygon fill="none" stroke="#000000" points="0,-97.5 0,-117.5 128,-117.5 128,-97.5 0,-97.5"/>
<text text-anchor="middle" x="64" y="-104.5" font-family="FreeSans" font-size="10.00" fill="#000000">G4VDataSetAlgorithm</text>
</a>
</g>
</g>
<!-- Node2 -->
<g id="node2" class="node">
<title>Node2</title>
<g id="a_node2"><a xlink:href="da/d3f/classG4DNACPA100LogLogInterpolation.html" target="_top" xlink:title="G4DNACPA100LogLogInterpolation">
<polygon fill="none" stroke="#000000" points="164,-195.5 164,-215.5 355,-215.5 355,-195.5 164,-195.5"/>
<text text-anchor="middle" x="259.5" y="-202.5" font-family="FreeSans" font-size="10.00" fill="#000000">G4DNACPA100LogLogInterpolation</text>
</a>
</g>
</g>
<!-- Node1&#45;&gt;Node2 -->
<g id="edge1" class="edge">
<title>Node1&#45;&gt;Node2</title>
<path fill="none" stroke="#191970" d="M80.5287,-124.7159C99.0878,-142.9754 130.9556,-171.245 164,-186.5 171.9043,-190.149 180.4933,-193.0989 189.1716,-195.4831"/>
<polygon fill="#191970" stroke="#191970" points="82.9574,-122.1946 73.425,-117.5704 77.9931,-127.1299 82.9574,-122.1946"/>
</g>
<!-- Node3 -->
<g id="node3" class="node">
<title>Node3</title>
<g id="a_node3"><a xlink:href="db/dc7/classG4LinInterpolation.html" target="_top" xlink:title="G4LinInterpolation">
<polygon fill="none" stroke="#000000" points="204.5,-156.5 204.5,-176.5 314.5,-176.5 314.5,-156.5 204.5,-156.5"/>
<text text-anchor="middle" x="259.5" y="-163.5" font-family="FreeSans" font-size="10.00" fill="#000000">G4LinInterpolation</text>
</a>
</g>
</g>
<!-- Node1&#45;&gt;Node3 -->
<g id="edge2" class="edge">
<title>Node1&#45;&gt;Node3</title>
<path fill="none" stroke="#191970" d="M95.1164,-121.6704C114.5912,-130.1042 140.3839,-140.4926 164,-147.5 176.8841,-151.323 190.9759,-154.6039 204.2828,-157.3107"/>
<polygon fill="#191970" stroke="#191970" points="96.3907,-118.4074 85.8276,-117.5889 93.5747,-124.8161 96.3907,-118.4074"/>
</g>
<!-- Node4 -->
<g id="node4" class="node">
<title>Node4</title>
<g id="a_node4"><a xlink:href="d2/d98/classG4LinLogInterpolation.html" target="_top" xlink:title="G4LinLogInterpolation">
<polygon fill="none" stroke="#000000" points="195.5,-117.5 195.5,-137.5 323.5,-137.5 323.5,-117.5 195.5,-117.5"/>
<text text-anchor="middle" x="259.5" y="-124.5" font-family="FreeSans" font-size="10.00" fill="#000000">G4LinLogInterpolation</text>
</a>
</g>
</g>
<!-- Node1&#45;&gt;Node4 -->
<g id="edge3" class="edge">
<title>Node1&#45;&gt;Node4</title>
<path fill="none" stroke="#191970" d="M138.0444,-115.0749C156.9057,-117.0044 177.0202,-119.0622 195.3422,-120.9365"/>
<polygon fill="#191970" stroke="#191970" points="138.3183,-111.5847 128.014,-114.0487 137.6059,-118.5484 138.3183,-111.5847"/>
</g>
<!-- Node5 -->
<g id="node5" class="node">
<title>Node5</title>
<g id="a_node5"><a xlink:href="d8/d05/classG4LinLogLogInterpolation.html" target="_top" xlink:title="G4LinLogLogInterpolation">
<polygon fill="none" stroke="#000000" points="186.5,-78.5 186.5,-98.5 332.5,-98.5 332.5,-78.5 186.5,-78.5"/>
<text text-anchor="middle" x="259.5" y="-85.5" font-family="FreeSans" font-size="10.00" fill="#000000">G4LinLogLogInterpolation</text>
</a>
</g>
</g>
<!-- Node1&#45;&gt;Node5 -->
<g id="edge4" class="edge">
<title>Node1&#45;&gt;Node5</title>
<path fill="none" stroke="#191970" d="M138.2003,-100.2887C153.9186,-98.7611 170.5008,-97.1495 186.1859,-95.6252"/>
<polygon fill="#191970" stroke="#191970" points="137.6285,-96.8277 128.014,-101.2787 138.3057,-103.7949 137.6285,-96.8277"/>
</g>
<!-- Node6 -->
<g id="node6" class="node">
<title>Node6</title>
<g id="a_node6"><a xlink:href="d9/d20/classG4LogLogInterpolation.html" target="_top" xlink:title="G4LogLogInterpolation">
<polygon fill="none" stroke="#000000" points="194,-39.5 194,-59.5 325,-59.5 325,-39.5 194,-39.5"/>
<text text-anchor="middle" x="259.5" y="-46.5" font-family="FreeSans" font-size="10.00" fill="#000000">G4LogLogInterpolation</text>
</a>
</g>
</g>
<!-- Node1&#45;&gt;Node6 -->
<g id="edge5" class="edge">
<title>Node1&#45;&gt;Node6</title>
<path fill="none" stroke="#191970" d="M96.744,-93.5681C116.0598,-85.7267 141.1279,-76.1958 164,-69.5 176.9245,-65.7163 191.0316,-62.3539 204.3404,-59.516"/>
<polygon fill="#191970" stroke="#191970" points="95.4019,-90.3356 87.4846,-97.376 98.0643,-96.8095 95.4019,-90.3356"/>
</g>
<!-- Node7 -->
<g id="node7" class="node">
<title>Node7</title>
<g id="a_node7"><a xlink:href="dc/d4a/classG4SemiLogInterpolation.html" target="_top" xlink:title="G4SemiLogInterpolation">
<polygon fill="none" stroke="#000000" points="190.5,-.5 190.5,-20.5 328.5,-20.5 328.5,-.5 190.5,-.5"/>
<text text-anchor="middle" x="259.5" y="-7.5" font-family="FreeSans" font-size="10.00" fill="#000000">G4SemiLogInterpolation</text>
</a>
</g>
</g>
<!-- Node1&#45;&gt;Node7 -->
<g id="edge6" class="edge">
<title>Node1&#45;&gt;Node7</title>
<path fill="none" stroke="#191970" d="M81.1941,-90.2746C99.9267,-72.5301 131.5762,-45.4217 164,-30.5 172.9252,-26.3926 182.7082,-23.1197 192.5022,-20.5141"/>
<polygon fill="#191970" stroke="#191970" points="78.5153,-87.9966 73.7658,-97.4672 83.3846,-93.0255 78.5153,-87.9966"/>
</g>
</g>
</svg>
