<?xml version="1.0" encoding="UTF-8" standalone="no"?>
<!DOCTYPE svg PUBLIC "-//W3C//DTD SVG 1.1//EN"
 "http://www.w3.org/Graphics/SVG/1.1/DTD/svg11.dtd">
<!-- Generated by graphviz version 2.40.1 (20161225.0304)
 -->
<!-- Title: Graphical Class Hierarchy Pages: 1 -->
<svg width="725pt" height="1277pt"
 viewBox="0.00 0.00 725.00 1277.00" xmlns="http://www.w3.org/2000/svg" xmlns:xlink="http://www.w3.org/1999/xlink">
<g id="graph0" class="graph" transform="scale(1 1) rotate(0) translate(4 1273)">
<title>Graphical Class Hierarchy</title>
<!-- Node1 -->
<g id="node1" class="node">
<title>Node1</title>
<g id="a_node1"><a xlink:href="d9/d1b/classG4VCollision.html" target="_top" xlink:title="G4VCollision">
<polygon fill="none" stroke="#000000" points="0,-536.5 0,-556.5 80,-556.5 80,-536.5 0,-536.5"/>
<text text-anchor="middle" x="40" y="-543.5" font-family="FreeSans" font-size="10.00" fill="#000000">G4VCollision</text>
</a>
</g>
</g>
<!-- Node2 -->
<g id="node2" class="node">
<title>Node2</title>
<g id="a_node2"><a xlink:href="d3/de4/classG4CollisionComposite.html" target="_top" xlink:title="G4CollisionComposite">
<polygon fill="none" stroke="#000000" points="122.5,-780.5 122.5,-800.5 249.5,-800.5 249.5,-780.5 122.5,-780.5"/>
<text text-anchor="middle" x="186" y="-787.5" font-family="FreeSans" font-size="10.00" fill="#000000">G4CollisionComposite</text>
</a>
</g>
</g>
<!-- Node1&#45;&gt;Node2 -->
<g id="edge1" class="edge">
<title>Node1&#45;&gt;Node2</title>
<path fill="none" stroke="#191970" d="M51.242,-565.288C80.3721,-613.9712 157.582,-743.0068 179.8865,-780.2828"/>
<polygon fill="#191970" stroke="#191970" points="54.2256,-563.4577 46.0876,-556.6737 48.2188,-567.052 54.2256,-563.4577"/>
</g>
<!-- Node33 -->
<g id="node33" class="node">
<title>Node33</title>
<g id="a_node33"><a xlink:href="de/d8b/classG4VAnnihilationCollision.html" target="_top" xlink:title="G4VAnnihilationCollision">
<polygon fill="none" stroke="#000000" points="116,-575.5 116,-595.5 256,-595.5 256,-575.5 116,-575.5"/>
<text text-anchor="middle" x="186" y="-582.5" font-family="FreeSans" font-size="10.00" fill="#000000">G4VAnnihilationCollision</text>
</a>
</g>
</g>
<!-- Node1&#45;&gt;Node33 -->
<g id="edge32" class="edge">
<title>Node1&#45;&gt;Node33</title>
<path fill="none" stroke="#191970" d="M87.3649,-559.1523C107.1878,-564.4474 129.8995,-570.5143 148.5288,-575.4906"/>
<polygon fill="#191970" stroke="#191970" points="88.1632,-555.7428 77.5986,-556.5435 86.3566,-562.5057 88.1632,-555.7428"/>
</g>
<!-- Node35 -->
<g id="node35" class="node">
<title>Node35</title>
<g id="a_node35"><a xlink:href="d3/d91/classG4VElasticCollision.html" target="_top" xlink:title="G4VElasticCollision">
<polygon fill="none" stroke="#000000" points="129.5,-517.5 129.5,-537.5 242.5,-537.5 242.5,-517.5 129.5,-517.5"/>
<text text-anchor="middle" x="186" y="-524.5" font-family="FreeSans" font-size="10.00" fill="#000000">G4VElasticCollision</text>
</a>
</g>
</g>
<!-- Node1&#45;&gt;Node35 -->
<g id="edge34" class="edge">
<title>Node1&#45;&gt;Node35</title>
<path fill="none" stroke="#191970" d="M90.5569,-539.9207C103.1083,-538.2873 116.6402,-536.5263 129.4579,-534.8582"/>
<polygon fill="#191970" stroke="#191970" points="89.7463,-536.4966 80.2816,-541.2579 90.6497,-543.438 89.7463,-536.4966"/>
</g>
<!-- Node39 -->
<g id="node39" class="node">
<title>Node39</title>
<g id="a_node39"><a xlink:href="d2/d66/classG4VScatteringCollision.html" target="_top" xlink:title="G4VScatteringCollision">
<polygon fill="none" stroke="#000000" points="120,-225.5 120,-245.5 252,-245.5 252,-225.5 120,-225.5"/>
<text text-anchor="middle" x="186" y="-232.5" font-family="FreeSans" font-size="10.00" fill="#000000">G4VScatteringCollision</text>
</a>
</g>
</g>
<!-- Node1&#45;&gt;Node39 -->
<g id="edge38" class="edge">
<title>Node1&#45;&gt;Node39</title>
<path fill="none" stroke="#191970" d="M49.1148,-527.0843C76.9929,-467.7 160.4819,-289.857 181.2717,-245.5719"/>
<polygon fill="#191970" stroke="#191970" points="45.939,-525.613 44.8577,-536.1525 52.2755,-528.5877 45.939,-525.613"/>
</g>
<!-- Node3 -->
<g id="node3" class="node">
<title>Node3</title>
<g id="a_node3"><a xlink:href="de/daa/classG4CollisionMesonBaryon.html" target="_top" xlink:title="G4CollisionMesonBaryon">
<polygon fill="none" stroke="#000000" points="326.5,-870.5 326.5,-890.5 468.5,-890.5 468.5,-870.5 326.5,-870.5"/>
<text text-anchor="middle" x="397.5" y="-877.5" font-family="FreeSans" font-size="10.00" fill="#000000">G4CollisionMesonBaryon</text>
</a>
</g>
</g>
<!-- Node2&#45;&gt;Node3 -->
<g id="edge2" class="edge">
<title>Node2&#45;&gt;Node3</title>
<path fill="none" stroke="#191970" d="M205.2993,-807.0539C225.5369,-823.4981 258.9387,-848.1344 292,-861.5 302.7838,-865.8595 314.5903,-869.2229 326.2775,-871.8166"/>
<polygon fill="#191970" stroke="#191970" points="207.4039,-804.2523 197.4715,-800.5647 202.9364,-809.6413 207.4039,-804.2523"/>
</g>
<!-- Node4 -->
<g id="node4" class="node">
<title>Node4</title>
<g id="a_node4"><a xlink:href="d8/d69/classG4CollisionMesonBaryonToResonance.html" target="_top" xlink:title="G4CollisionMesonBaryonTo\lResonance">
<polygon fill="none" stroke="#000000" points="321,-819.5 321,-851.5 474,-851.5 474,-819.5 321,-819.5"/>
<text text-anchor="start" x="329" y="-838.5" font-family="FreeSans" font-size="10.00" fill="#000000">G4CollisionMesonBaryonTo</text>
<text text-anchor="middle" x="397.5" y="-826.5" font-family="FreeSans" font-size="10.00" fill="#000000">Resonance</text>
</a>
</g>
</g>
<!-- Node2&#45;&gt;Node4 -->
<g id="edge3" class="edge">
<title>Node2&#45;&gt;Node4</title>
<path fill="none" stroke="#191970" d="M242.9993,-802.6275C267.3574,-807.8101 296.133,-813.9325 322.2077,-819.4804"/>
<polygon fill="#191970" stroke="#191970" points="243.7109,-799.2007 233.2015,-800.5429 242.2541,-806.0474 243.7109,-799.2007"/>
</g>
<!-- Node5 -->
<g id="node5" class="node">
<title>Node5</title>
<g id="a_node5"><a xlink:href="d4/dbf/classG4CollisionPN.html" target="_top" xlink:title="G4CollisionPN">
<polygon fill="none" stroke="#000000" points="354.5,-780.5 354.5,-800.5 440.5,-800.5 440.5,-780.5 354.5,-780.5"/>
<text text-anchor="middle" x="397.5" y="-787.5" font-family="FreeSans" font-size="10.00" fill="#000000">G4CollisionPN</text>
</a>
</g>
</g>
<!-- Node2&#45;&gt;Node5 -->
<g id="edge4" class="edge">
<title>Node2&#45;&gt;Node5</title>
<path fill="none" stroke="#191970" d="M259.8295,-790.5C291.3967,-790.5 327.1512,-790.5 354.3103,-790.5"/>
<polygon fill="#191970" stroke="#191970" points="259.7438,-787.0001 249.7438,-790.5 259.7438,-794.0001 259.7438,-787.0001"/>
</g>
<!-- Node6 -->
<g id="node6" class="node">
<title>Node6</title>
<g id="a_node6"><a xlink:href="d5/d15/classG4GeneralNNCollision.html" target="_top" xlink:title="G4GeneralNNCollision">
<polygon fill="none" stroke="#000000" points="333.5,-741.5 333.5,-761.5 461.5,-761.5 461.5,-741.5 333.5,-741.5"/>
<text text-anchor="middle" x="397.5" y="-748.5" font-family="FreeSans" font-size="10.00" fill="#000000">G4GeneralNNCollision</text>
</a>
</g>
</g>
<!-- Node2&#45;&gt;Node6 -->
<g id="edge5" class="edge">
<title>Node2&#45;&gt;Node6</title>
<path fill="none" stroke="#191970" d="M250.3201,-778.6396C280.0102,-773.1648 314.8757,-766.7357 343.2181,-761.5094"/>
<polygon fill="#191970" stroke="#191970" points="249.666,-775.2011 240.4665,-780.4565 250.9354,-782.085 249.666,-775.2011"/>
</g>
<!-- Node7 -->
<g id="node7" class="node">
<title>Node7</title>
<g id="a_node7"><a xlink:href="dd/d1c/classG4CollisionNN.html" target="_top" xlink:title="G4CollisionNN">
<polygon fill="none" stroke="#000000" points="584,-1248.5 584,-1268.5 672,-1268.5 672,-1248.5 584,-1248.5"/>
<text text-anchor="middle" x="628" y="-1255.5" font-family="FreeSans" font-size="10.00" fill="#000000">G4CollisionNN</text>
</a>
</g>
</g>
<!-- Node6&#45;&gt;Node7 -->
<g id="edge6" class="edge">
<title>Node6&#45;&gt;Node7</title>
<path fill="none" stroke="#191970" d="M471.4439,-752.8785C483.4497,-756.3762 494.6609,-762.1837 503,-771.5 572.5678,-849.2195 470.3296,-1160.9865 539,-1239.5 550.1297,-1252.225 567.5038,-1257.632 583.958,-1259.6153"/>
<polygon fill="#191970" stroke="#191970" points="472.2246,-749.4665 461.6848,-750.5456 470.597,-756.2747 472.2246,-749.4665"/>
</g>
<!-- Node8 -->
<g id="node8" class="node">
<title>Node8</title>
<g id="a_node8"><a xlink:href="d8/d87/classG4CollisionNNToDeltaDelta.html" target="_top" xlink:title="G4CollisionNNToDeltaDelta">
<polygon fill="none" stroke="#000000" points="552,-1209.5 552,-1229.5 704,-1229.5 704,-1209.5 552,-1209.5"/>
<text text-anchor="middle" x="628" y="-1216.5" font-family="FreeSans" font-size="10.00" fill="#000000">G4CollisionNNToDeltaDelta</text>
</a>
</g>
</g>
<!-- Node6&#45;&gt;Node8 -->
<g id="edge7" class="edge">
<title>Node6&#45;&gt;Node8</title>
<path fill="none" stroke="#191970" d="M471.3911,-752.9259C483.4021,-756.4191 494.6285,-762.2127 503,-771.5 567.0534,-842.5606 475.7672,-1128.7083 539,-1200.5 542.655,-1204.6497 546.9742,-1208.0199 551.7076,-1210.7461"/>
<polygon fill="#191970" stroke="#191970" points="472.1695,-749.5134 461.63,-750.5948 470.5435,-756.322 472.1695,-749.5134"/>
</g>
<!-- Node9 -->
<g id="node9" class="node">
<title>Node9</title>
<g id="a_node9"><a xlink:href="d6/df1/classG4CollisionNNToDeltaDelta1600.html" target="_top" xlink:title="G4CollisionNNToDeltaDelta1600">
<polygon fill="none" stroke="#000000" points="539,-1170.5 539,-1190.5 717,-1190.5 717,-1170.5 539,-1170.5"/>
<text text-anchor="middle" x="628" y="-1177.5" font-family="FreeSans" font-size="10.00" fill="#000000">G4CollisionNNToDeltaDelta1600</text>
</a>
</g>
</g>
<!-- Node6&#45;&gt;Node9 -->
<g id="edge8" class="edge">
<title>Node6&#45;&gt;Node9</title>
<path fill="none" stroke="#191970" d="M471.3281,-752.983C483.3451,-756.4706 494.59,-762.2477 503,-771.5 561.5417,-835.9048 481.202,-1096.427 539,-1161.5 542.0427,-1164.9257 545.5382,-1167.8191 549.3447,-1170.2568"/>
<polygon fill="#191970" stroke="#191970" points="472.1037,-749.5699 461.5645,-750.6541 470.4796,-756.3788 472.1037,-749.5699"/>
</g>
<!-- Node10 -->
<g id="node10" class="node">
<title>Node10</title>
<g id="a_node10"><a xlink:href="d9/d56/classG4CollisionNNToDeltaDelta1620.html" target="_top" xlink:title="G4CollisionNNToDeltaDelta1620">
<polygon fill="none" stroke="#000000" points="539,-1131.5 539,-1151.5 717,-1151.5 717,-1131.5 539,-1131.5"/>
<text text-anchor="middle" x="628" y="-1138.5" font-family="FreeSans" font-size="10.00" fill="#000000">G4CollisionNNToDeltaDelta1620</text>
</a>
</g>
</g>
<!-- Node6&#45;&gt;Node10 -->
<g id="edge9" class="edge">
<title>Node6&#45;&gt;Node10</title>
<path fill="none" stroke="#191970" d="M471.8181,-753.2189C483.6295,-756.7158 494.676,-762.4353 503,-771.5 609.0676,-887.0061 434.2663,-1005.7831 539,-1122.5 542.1656,-1126.0278 545.8115,-1128.9897 549.7816,-1131.4699"/>
<polygon fill="#191970" stroke="#191970" points="472.3029,-749.735 461.7596,-750.7796 470.6531,-756.5379 472.3029,-749.735"/>
</g>
<!-- Node11 -->
<g id="node11" class="node">
<title>Node11</title>
<g id="a_node11"><a xlink:href="dc/dbd/classG4CollisionNNToDeltaDelta1700.html" target="_top" xlink:title="G4CollisionNNToDeltaDelta1700">
<polygon fill="none" stroke="#000000" points="539,-1092.5 539,-1112.5 717,-1112.5 717,-1092.5 539,-1092.5"/>
<text text-anchor="middle" x="628" y="-1099.5" font-family="FreeSans" font-size="10.00" fill="#000000">G4CollisionNNToDeltaDelta1700</text>
</a>
</g>
</g>
<!-- Node6&#45;&gt;Node11 -->
<g id="edge10" class="edge">
<title>Node6&#45;&gt;Node11</title>
<path fill="none" stroke="#191970" d="M471.7235,-753.3063C483.5445,-756.7943 494.6188,-762.4883 503,-771.5 598.062,-873.7138 445.1184,-980.2009 539,-1083.5 542.1879,-1087.0077 545.8508,-1089.9542 549.8337,-1092.4228"/>
<polygon fill="#191970" stroke="#191970" points="472.2037,-749.8215 461.661,-750.8708 470.557,-756.6251 472.2037,-749.8215"/>
</g>
<!-- Node12 -->
<g id="node12" class="node">
<title>Node12</title>
<g id="a_node12"><a xlink:href="d0/d00/classG4CollisionNNToDeltaDelta1900.html" target="_top" xlink:title="G4CollisionNNToDeltaDelta1900">
<polygon fill="none" stroke="#000000" points="539,-1053.5 539,-1073.5 717,-1073.5 717,-1053.5 539,-1053.5"/>
<text text-anchor="middle" x="628" y="-1060.5" font-family="FreeSans" font-size="10.00" fill="#000000">G4CollisionNNToDeltaDelta1900</text>
</a>
</g>
</g>
<!-- Node6&#45;&gt;Node12 -->
<g id="edge11" class="edge">
<title>Node6&#45;&gt;Node12</title>
<path fill="none" stroke="#191970" d="M471.6031,-753.4192C483.4364,-756.8957 494.5459,-762.5566 503,-771.5 587.0711,-860.4372 455.9561,-954.6029 539,-1044.5 542.2163,-1047.9817 545.9009,-1050.9083 549.9001,-1053.362"/>
<polygon fill="#191970" stroke="#191970" points="472.0775,-749.9332 461.5354,-750.9886 470.4347,-756.7377 472.0775,-749.9332"/>
</g>
<!-- Node13 -->
<g id="node13" class="node">
<title>Node13</title>
<g id="a_node13"><a xlink:href="d5/d98/classG4CollisionNNToDeltaDelta1905.html" target="_top" xlink:title="G4CollisionNNToDeltaDelta1905">
<polygon fill="none" stroke="#000000" points="539,-1014.5 539,-1034.5 717,-1034.5 717,-1014.5 539,-1014.5"/>
<text text-anchor="middle" x="628" y="-1021.5" font-family="FreeSans" font-size="10.00" fill="#000000">G4CollisionNNToDeltaDelta1905</text>
</a>
</g>
</g>
<!-- Node6&#45;&gt;Node13 -->
<g id="edge12" class="edge">
<title>Node6&#45;&gt;Node13</title>
<path fill="none" stroke="#191970" d="M471.6551,-753.6321C483.4261,-757.0982 494.5007,-762.7005 503,-771.5 576.1022,-847.184 466.772,-928.9812 539,-1005.5 542.2536,-1008.9468 545.9668,-1011.8468 549.9873,-1014.2806"/>
<polygon fill="#191970" stroke="#191970" points="472.1886,-750.16 461.6449,-751.1998 470.5357,-756.9621 472.1886,-750.16"/>
</g>
<!-- Node14 -->
<g id="node14" class="node">
<title>Node14</title>
<g id="a_node14"><a xlink:href="da/d4e/classG4CollisionNNToDeltaDelta1910.html" target="_top" xlink:title="G4CollisionNNToDeltaDelta1910">
<polygon fill="none" stroke="#000000" points="539,-975.5 539,-995.5 717,-995.5 717,-975.5 539,-975.5"/>
<text text-anchor="middle" x="628" y="-982.5" font-family="FreeSans" font-size="10.00" fill="#000000">G4CollisionNNToDeltaDelta1910</text>
</a>
</g>
</g>
<!-- Node6&#45;&gt;Node14 -->
<g id="edge13" class="edge">
<title>Node6&#45;&gt;Node14</title>
<path fill="none" stroke="#191970" d="M471.6489,-753.9064C483.3643,-757.3548 494.4214,-762.8802 503,-771.5 565.1687,-833.9673 477.553,-903.3227 539,-966.5 542.4149,-970.0111 546.3078,-972.9504 550.5129,-975.405"/>
<polygon fill="#191970" stroke="#191970" points="472.2378,-750.4474 461.693,-751.4759 470.5776,-757.2477 472.2378,-750.4474"/>
</g>
<!-- Node15 -->
<g id="node15" class="node">
<title>Node15</title>
<g id="a_node15"><a xlink:href="d9/d02/classG4CollisionNNToDeltaDelta1920.html" target="_top" xlink:title="G4CollisionNNToDeltaDelta1920">
<polygon fill="none" stroke="#000000" points="539,-936.5 539,-956.5 717,-956.5 717,-936.5 539,-936.5"/>
<text text-anchor="middle" x="628" y="-943.5" font-family="FreeSans" font-size="10.00" fill="#000000">G4CollisionNNToDeltaDelta1920</text>
</a>
</g>
</g>
<!-- Node6&#45;&gt;Node15 -->
<g id="edge14" class="edge">
<title>Node6&#45;&gt;Node15</title>
<path fill="none" stroke="#191970" d="M471.5457,-754.2875C483.2167,-757.7058 494.2854,-763.1225 503,-771.5 554.2971,-820.8124 488.2727,-877.6016 539,-927.5 542.6044,-931.0455 546.6983,-934.0014 551.103,-936.4599"/>
<polygon fill="#191970" stroke="#191970" points="472.1841,-750.8406 461.6389,-751.865 470.5213,-757.6402 472.1841,-750.8406"/>
</g>
<!-- Node16 -->
<g id="node16" class="node">
<title>Node16</title>
<g id="a_node16"><a xlink:href="d2/d1d/classG4CollisionNNToDeltaDelta1930.html" target="_top" xlink:title="G4CollisionNNToDeltaDelta1930">
<polygon fill="none" stroke="#000000" points="539,-897.5 539,-917.5 717,-917.5 717,-897.5 539,-897.5"/>
<text text-anchor="middle" x="628" y="-904.5" font-family="FreeSans" font-size="10.00" fill="#000000">G4CollisionNNToDeltaDelta1930</text>
</a>
</g>
</g>
<!-- Node6&#45;&gt;Node16 -->
<g id="edge15" class="edge">
<title>Node6&#45;&gt;Node16</title>
<path fill="none" stroke="#191970" d="M471.4764,-754.9413C483.0466,-758.3075 494.0992,-763.5374 503,-771.5 543.5483,-807.7745 498.8711,-851.7621 539,-888.5 542.8457,-892.0207 547.1787,-894.9494 551.8097,-897.3803"/>
<polygon fill="#191970" stroke="#191970" points="472.2178,-751.5195 461.6716,-752.533 470.548,-758.3174 472.2178,-751.5195"/>
</g>
<!-- Node17 -->
<g id="node17" class="node">
<title>Node17</title>
<g id="a_node17"><a xlink:href="d0/dac/classG4CollisionNNToDeltaDelta1950.html" target="_top" xlink:title="G4CollisionNNToDeltaDelta1950">
<polygon fill="none" stroke="#000000" points="539,-858.5 539,-878.5 717,-878.5 717,-858.5 539,-858.5"/>
<text text-anchor="middle" x="628" y="-865.5" font-family="FreeSans" font-size="10.00" fill="#000000">G4CollisionNNToDeltaDelta1950</text>
</a>
</g>
</g>
<!-- Node6&#45;&gt;Node17 -->
<g id="edge16" class="edge">
<title>Node6&#45;&gt;Node17</title>
<path fill="none" stroke="#191970" d="M471.5945,-756.2538C482.9119,-759.5059 493.8511,-764.3573 503,-771.5 533.0953,-794.9958 509.1766,-825.6601 539,-849.5 543.4428,-853.0515 548.3961,-855.9798 553.6284,-858.3901"/>
<polygon fill="#191970" stroke="#191970" points="472.1338,-752.7822 461.587,-753.7902 470.4605,-759.5792 472.1338,-752.7822"/>
</g>
<!-- Node18 -->
<g id="node18" class="node">
<title>Node18</title>
<g id="a_node18"><a xlink:href="da/d67/classG4CollisionNNToDeltaDeltastar.html" target="_top" xlink:title="G4CollisionNNToDeltaDeltastar">
<polygon fill="none" stroke="#000000" points="541.5,-819.5 541.5,-839.5 714.5,-839.5 714.5,-819.5 541.5,-819.5"/>
<text text-anchor="middle" x="628" y="-826.5" font-family="FreeSans" font-size="10.00" fill="#000000">G4CollisionNNToDeltaDeltastar</text>
</a>
</g>
</g>
<!-- Node6&#45;&gt;Node18 -->
<g id="edge17" class="edge">
<title>Node6&#45;&gt;Node18</title>
<path fill="none" stroke="#191970" d="M471.7099,-759.3328C482.6097,-762.2339 493.389,-766.1698 503,-771.5 523.629,-782.9407 518.5038,-798.8231 539,-810.5 545.3149,-814.0977 552.2339,-817.0159 559.3362,-819.3827"/>
<polygon fill="#191970" stroke="#191970" points="472.2347,-755.86 461.696,-756.9491 470.6137,-762.6697 472.2347,-755.86"/>
</g>
<!-- Node19 -->
<g id="node19" class="node">
<title>Node19</title>
<g id="a_node19"><a xlink:href="df/d78/classG4CollisionNNToDeltaNstar.html" target="_top" xlink:title="G4CollisionNNToDeltaNstar">
<polygon fill="none" stroke="#000000" points="551.5,-780.5 551.5,-800.5 704.5,-800.5 704.5,-780.5 551.5,-780.5"/>
<text text-anchor="middle" x="628" y="-787.5" font-family="FreeSans" font-size="10.00" fill="#000000">G4CollisionNNToDeltaNstar</text>
</a>
</g>
</g>
<!-- Node6&#45;&gt;Node19 -->
<g id="edge18" class="edge">
<title>Node6&#45;&gt;Node19</title>
<path fill="none" stroke="#191970" d="M466.7554,-763.2178C499.2942,-768.7233 537.6846,-775.2189 568.8417,-780.4906"/>
<polygon fill="#191970" stroke="#191970" points="467.3033,-759.7609 456.8595,-761.5435 466.1354,-766.6628 467.3033,-759.7609"/>
</g>
<!-- Node20 -->
<g id="node20" class="node">
<title>Node20</title>
<g id="a_node20"><a xlink:href="d6/de8/classG4CollisionNNToNDelta.html" target="_top" xlink:title="G4CollisionNNToNDelta">
<polygon fill="none" stroke="#000000" points="561.5,-741.5 561.5,-761.5 694.5,-761.5 694.5,-741.5 561.5,-741.5"/>
<text text-anchor="middle" x="628" y="-748.5" font-family="FreeSans" font-size="10.00" fill="#000000">G4CollisionNNToNDelta</text>
</a>
</g>
</g>
<!-- Node6&#45;&gt;Node20 -->
<g id="edge19" class="edge">
<title>Node6&#45;&gt;Node20</title>
<path fill="none" stroke="#191970" d="M471.72,-751.5C500.5321,-751.5 533.279,-751.5 561.3274,-751.5"/>
<polygon fill="#191970" stroke="#191970" points="471.7071,-748.0001 461.7071,-751.5 471.7071,-755.0001 471.7071,-748.0001"/>
</g>
<!-- Node21 -->
<g id="node21" class="node">
<title>Node21</title>
<g id="a_node21"><a xlink:href="df/d16/classG4CollisionNNToNDelta1600.html" target="_top" xlink:title="G4CollisionNNToNDelta1600">
<polygon fill="none" stroke="#000000" points="548.5,-702.5 548.5,-722.5 707.5,-722.5 707.5,-702.5 548.5,-702.5"/>
<text text-anchor="middle" x="628" y="-709.5" font-family="FreeSans" font-size="10.00" fill="#000000">G4CollisionNNToNDelta1600</text>
</a>
</g>
</g>
<!-- Node6&#45;&gt;Node21 -->
<g id="edge20" class="edge">
<title>Node6&#45;&gt;Node21</title>
<path fill="none" stroke="#191970" d="M466.7554,-739.7822C499.2942,-734.2767 537.6846,-727.7811 568.8417,-722.5094"/>
<polygon fill="#191970" stroke="#191970" points="466.1354,-736.3372 456.8595,-741.4565 467.3033,-743.2391 466.1354,-736.3372"/>
</g>
<!-- Node22 -->
<g id="node22" class="node">
<title>Node22</title>
<g id="a_node22"><a xlink:href="d6/df6/classG4CollisionNNToNDelta1620.html" target="_top" xlink:title="G4CollisionNNToNDelta1620">
<polygon fill="none" stroke="#000000" points="548.5,-663.5 548.5,-683.5 707.5,-683.5 707.5,-663.5 548.5,-663.5"/>
<text text-anchor="middle" x="628" y="-670.5" font-family="FreeSans" font-size="10.00" fill="#000000">G4CollisionNNToNDelta1620</text>
</a>
</g>
</g>
<!-- Node6&#45;&gt;Node22 -->
<g id="edge21" class="edge">
<title>Node6&#45;&gt;Node22</title>
<path fill="none" stroke="#191970" d="M428.4938,-737.0273C456.7961,-724.2399 500.0366,-705.7677 539,-693.5 550.9335,-689.7427 563.9773,-686.3998 576.3096,-683.5733"/>
<polygon fill="#191970" stroke="#191970" points="426.784,-733.9602 419.1375,-741.2938 429.6883,-740.3293 426.784,-733.9602"/>
</g>
<!-- Node23 -->
<g id="node23" class="node">
<title>Node23</title>
<g id="a_node23"><a xlink:href="db/d89/classG4CollisionNNToNDelta1700.html" target="_top" xlink:title="G4CollisionNNToNDelta1700">
<polygon fill="none" stroke="#000000" points="548.5,-624.5 548.5,-644.5 707.5,-644.5 707.5,-624.5 548.5,-624.5"/>
<text text-anchor="middle" x="628" y="-631.5" font-family="FreeSans" font-size="10.00" fill="#000000">G4CollisionNNToNDelta1700</text>
</a>
</g>
</g>
<!-- Node6&#45;&gt;Node23 -->
<g id="edge22" class="edge">
<title>Node6&#45;&gt;Node23</title>
<path fill="none" stroke="#191970" d="M416.9969,-734.5034C443.0307,-712.7031 491.4106,-675.24 539,-654.5 548.2915,-650.4507 558.4997,-647.176 568.5856,-644.5418"/>
<polygon fill="#191970" stroke="#191970" points="414.4121,-732.1068 409.0581,-741.2494 418.9449,-737.4411 414.4121,-732.1068"/>
</g>
<!-- Node24 -->
<g id="node24" class="node">
<title>Node24</title>
<g id="a_node24"><a xlink:href="d8/db8/classG4CollisionNNToNDelta1900.html" target="_top" xlink:title="G4CollisionNNToNDelta1900">
<polygon fill="none" stroke="#000000" points="548.5,-585.5 548.5,-605.5 707.5,-605.5 707.5,-585.5 548.5,-585.5"/>
<text text-anchor="middle" x="628" y="-592.5" font-family="FreeSans" font-size="10.00" fill="#000000">G4CollisionNNToNDelta1900</text>
</a>
</g>
</g>
<!-- Node6&#45;&gt;Node24 -->
<g id="edge23" class="edge">
<title>Node6&#45;&gt;Node24</title>
<path fill="none" stroke="#191970" d="M411.0135,-733.1827C433.8931,-703.5691 483.2462,-645.4762 539,-615.5 546.5322,-611.4503 554.8467,-608.2192 563.2785,-605.6415"/>
<polygon fill="#191970" stroke="#191970" points="408.0386,-731.3132 404.785,-741.3962 413.6162,-735.5429 408.0386,-731.3132"/>
</g>
<!-- Node25 -->
<g id="node25" class="node">
<title>Node25</title>
<g id="a_node25"><a xlink:href="da/d0b/classG4CollisionNNToNDelta1905.html" target="_top" xlink:title="G4CollisionNNToNDelta1905">
<polygon fill="none" stroke="#000000" points="548.5,-546.5 548.5,-566.5 707.5,-566.5 707.5,-546.5 548.5,-546.5"/>
<text text-anchor="middle" x="628" y="-553.5" font-family="FreeSans" font-size="10.00" fill="#000000">G4CollisionNNToNDelta1905</text>
</a>
</g>
</g>
<!-- Node6&#45;&gt;Node25 -->
<g id="edge24" class="edge">
<title>Node6&#45;&gt;Node25</title>
<path fill="none" stroke="#191970" d="M410.3132,-732.6728C438.4793,-691.8218 505.9021,-597.0644 539,-576.5 545.5913,-572.4047 552.9201,-569.1444 560.4624,-566.5494"/>
<polygon fill="#191970" stroke="#191970" points="407.2502,-730.9508 404.4806,-741.1772 413.023,-734.91 407.2502,-730.9508"/>
</g>
<!-- Node26 -->
<g id="node26" class="node">
<title>Node26</title>
<g id="a_node26"><a xlink:href="d3/de3/classG4CollisionNNToNDelta1910.html" target="_top" xlink:title="G4CollisionNNToNDelta1910">
<polygon fill="none" stroke="#000000" points="548.5,-507.5 548.5,-527.5 707.5,-527.5 707.5,-507.5 548.5,-507.5"/>
<text text-anchor="middle" x="628" y="-514.5" font-family="FreeSans" font-size="10.00" fill="#000000">G4CollisionNNToNDelta1910</text>
</a>
</g>
</g>
<!-- Node6&#45;&gt;Node26 -->
<g id="edge25" class="edge">
<title>Node6&#45;&gt;Node26</title>
<path fill="none" stroke="#191970" d="M412.125,-733.0347C433.3325,-705.8794 473.3269,-653.2189 503,-605.5 521.0577,-576.4604 511.8282,-558.2623 539,-537.5 544.2851,-533.4616 550.2316,-530.2099 556.4803,-527.5956"/>
<polygon fill="#191970" stroke="#191970" points="409.1189,-731.1958 405.6951,-741.2222 414.6241,-735.5192 409.1189,-731.1958"/>
</g>
<!-- Node27 -->
<g id="node27" class="node">
<title>Node27</title>
<g id="a_node27"><a xlink:href="de/df5/classG4CollisionNNToNDelta1920.html" target="_top" xlink:title="G4CollisionNNToNDelta1920">
<polygon fill="none" stroke="#000000" points="548.5,-468.5 548.5,-488.5 707.5,-488.5 707.5,-468.5 548.5,-468.5"/>
<text text-anchor="middle" x="628" y="-475.5" font-family="FreeSans" font-size="10.00" fill="#000000">G4CollisionNNToNDelta1920</text>
</a>
</g>
</g>
<!-- Node6&#45;&gt;Node27 -->
<g id="edge26" class="edge">
<title>Node6&#45;&gt;Node27</title>
<path fill="none" stroke="#191970" d="M413.2281,-733.5808C435.7536,-707.1504 477.3112,-655.4341 503,-605.5 525.9534,-560.883 501.7331,-532.0963 539,-498.5 543.4698,-494.4705 548.5736,-491.1966 554.0247,-488.5427"/>
<polygon fill="#191970" stroke="#191970" points="410.5048,-731.3794 406.6275,-741.2393 415.8073,-735.9494 410.5048,-731.3794"/>
</g>
<!-- Node28 -->
<g id="node28" class="node">
<title>Node28</title>
<g id="a_node28"><a xlink:href="db/d15/classG4CollisionNNToNDelta1930.html" target="_top" xlink:title="G4CollisionNNToNDelta1930">
<polygon fill="none" stroke="#000000" points="548.5,-429.5 548.5,-449.5 707.5,-449.5 707.5,-429.5 548.5,-429.5"/>
<text text-anchor="middle" x="628" y="-436.5" font-family="FreeSans" font-size="10.00" fill="#000000">G4CollisionNNToNDelta1930</text>
</a>
</g>
</g>
<!-- Node6&#45;&gt;Node28 -->
<g id="edge27" class="edge">
<title>Node6&#45;&gt;Node28</title>
<path fill="none" stroke="#191970" d="M413.7866,-733.8537C437.0009,-707.7597 479.3999,-656.4546 503,-605.5 531.0877,-544.8564 491.2557,-506.2659 539,-459.5 543.0729,-455.5106 547.7603,-452.2477 552.8088,-449.5859"/>
<polygon fill="#191970" stroke="#191970" points="411.0717,-731.6381 406.9718,-741.4075 416.2691,-736.3271 411.0717,-731.6381"/>
</g>
<!-- Node29 -->
<g id="node29" class="node">
<title>Node29</title>
<g id="a_node29"><a xlink:href="df/da5/classG4CollisionNNToNDelta1950.html" target="_top" xlink:title="G4CollisionNNToNDelta1950">
<polygon fill="none" stroke="#000000" points="548.5,-390.5 548.5,-410.5 707.5,-410.5 707.5,-390.5 548.5,-390.5"/>
<text text-anchor="middle" x="628" y="-397.5" font-family="FreeSans" font-size="10.00" fill="#000000">G4CollisionNNToNDelta1950</text>
</a>
</g>
</g>
<!-- Node6&#45;&gt;Node29 -->
<g id="edge28" class="edge">
<title>Node6&#45;&gt;Node29</title>
<path fill="none" stroke="#191970" d="M414.4839,-733.6135C438.1898,-707.5862 480.7819,-656.7647 503,-605.5 536.3097,-528.6433 480.6302,-480.5788 539,-420.5 542.8624,-416.5245 547.3323,-413.2622 552.1714,-410.5924"/>
<polygon fill="#191970" stroke="#191970" points="411.7225,-731.4444 407.5006,-741.1618 416.8608,-736.1982 411.7225,-731.4444"/>
</g>
<!-- Node30 -->
<g id="node30" class="node">
<title>Node30</title>
<g id="a_node30"><a xlink:href="d2/d7e/classG4CollisionNNToNDeltastar.html" target="_top" xlink:title="G4CollisionNNToNDeltastar">
<polygon fill="none" stroke="#000000" points="551.5,-351.5 551.5,-371.5 704.5,-371.5 704.5,-351.5 551.5,-351.5"/>
<text text-anchor="middle" x="628" y="-358.5" font-family="FreeSans" font-size="10.00" fill="#000000">G4CollisionNNToNDeltastar</text>
</a>
</g>
</g>
<!-- Node6&#45;&gt;Node30 -->
<g id="edge29" class="edge">
<title>Node6&#45;&gt;Node30</title>
<path fill="none" stroke="#191970" d="M414.7152,-733.7114C438.7002,-707.8025 481.6266,-657.1227 503,-605.5 541.5726,-512.3364 469.9333,-454.9649 539,-381.5 542.6882,-377.577 546.9665,-374.3432 551.6133,-371.6848"/>
<polygon fill="#191970" stroke="#191970" points="411.9503,-731.5423 407.6448,-741.2228 417.0475,-736.3402 411.9503,-731.5423"/>
</g>
<!-- Node31 -->
<g id="node31" class="node">
<title>Node31</title>
<g id="a_node31"><a xlink:href="d5/d7d/classG4CollisionNNToNNstar.html" target="_top" xlink:title="G4CollisionNNToNNstar">
<polygon fill="none" stroke="#000000" points="561,-312.5 561,-332.5 695,-332.5 695,-312.5 561,-312.5"/>
<text text-anchor="middle" x="628" y="-319.5" font-family="FreeSans" font-size="10.00" fill="#000000">G4CollisionNNToNNstar</text>
</a>
</g>
</g>
<!-- Node6&#45;&gt;Node31 -->
<g id="edge30" class="edge">
<title>Node6&#45;&gt;Node31</title>
<path fill="none" stroke="#191970" d="M414.8804,-733.7787C439.0647,-707.9509 482.2298,-657.3683 503,-605.5 546.8578,-495.976 459.1966,-429.3932 539,-342.5 544.9989,-335.9682 552.6321,-331.337 560.8974,-328.0875"/>
<polygon fill="#191970" stroke="#191970" points="412.1119,-731.6105 407.7477,-741.2648 417.1798,-736.4392 412.1119,-731.6105"/>
</g>
<!-- Node32 -->
<g id="node32" class="node">
<title>Node32</title>
<g id="a_node32"><a xlink:href="d9/dbc/classG4CollisionNStarNToNN.html" target="_top" xlink:title="G4CollisionNStarNToNN">
<polygon fill="none" stroke="#000000" points="561,-273.5 561,-293.5 695,-293.5 695,-273.5 561,-273.5"/>
<text text-anchor="middle" x="628" y="-280.5" font-family="FreeSans" font-size="10.00" fill="#000000">G4CollisionNStarNToNN</text>
</a>
</g>
</g>
<!-- Node6&#45;&gt;Node32 -->
<g id="edge31" class="edge">
<title>Node6&#45;&gt;Node32</title>
<path fill="none" stroke="#191970" d="M415.0041,-733.8276C439.3377,-708.0588 482.6816,-657.5469 503,-605.5 527.5782,-542.5412 493.7178,-353.6739 539,-303.5 544.9419,-296.9163 552.5429,-292.2559 560.793,-288.9924"/>
<polygon fill="#191970" stroke="#191970" points="412.2322,-731.6606 407.8248,-741.2952 417.2785,-736.512 412.2322,-731.6606"/>
</g>
<!-- Node34 -->
<g id="node34" class="node">
<title>Node34</title>
<g id="a_node34"><a xlink:href="db/d08/classG4ConcreteMesonBaryonToResonance.html" target="_top" xlink:title="G4ConcreteMesonBaryonToResonance">
<polygon fill="none" stroke="#000000" points="292,-575.5 292,-595.5 503,-595.5 503,-575.5 292,-575.5"/>
<text text-anchor="middle" x="397.5" y="-582.5" font-family="FreeSans" font-size="10.00" fill="#000000">G4ConcreteMesonBaryonToResonance</text>
</a>
</g>
</g>
<!-- Node33&#45;&gt;Node34 -->
<g id="edge33" class="edge">
<title>Node33&#45;&gt;Node34</title>
<path fill="none" stroke="#191970" d="M266.1811,-585.5C274.5232,-585.5 283.0911,-585.5 291.6598,-585.5"/>
<polygon fill="#191970" stroke="#191970" points="266.1327,-582.0001 256.1327,-585.5 266.1326,-589.0001 266.1327,-582.0001"/>
</g>
<!-- Node36 -->
<g id="node36" class="node">
<title>Node36</title>
<g id="a_node36"><a xlink:href="d7/d22/classG4CollisionMesonBaryonElastic.html" target="_top" xlink:title="G4CollisionMesonBaryonElastic">
<polygon fill="none" stroke="#000000" points="310,-536.5 310,-556.5 485,-556.5 485,-536.5 310,-536.5"/>
<text text-anchor="middle" x="397.5" y="-543.5" font-family="FreeSans" font-size="10.00" fill="#000000">G4CollisionMesonBaryonElastic</text>
</a>
</g>
</g>
<!-- Node35&#45;&gt;Node36 -->
<g id="edge35" class="edge">
<title>Node35&#45;&gt;Node36</title>
<path fill="none" stroke="#191970" d="M252.8433,-533.5048C270.9815,-535.1343 290.8942,-536.9231 309.9887,-538.6385"/>
<polygon fill="#191970" stroke="#191970" points="252.9512,-530.0005 242.6781,-532.5917 252.3248,-536.9724 252.9512,-530.0005"/>
</g>
<!-- Node37 -->
<g id="node37" class="node">
<title>Node37</title>
<g id="a_node37"><a xlink:href="d4/de5/classG4CollisionNNElastic.html" target="_top" xlink:title="G4CollisionNNElastic">
<polygon fill="none" stroke="#000000" points="337,-497.5 337,-517.5 458,-517.5 458,-497.5 337,-497.5"/>
<text text-anchor="middle" x="397.5" y="-504.5" font-family="FreeSans" font-size="10.00" fill="#000000">G4CollisionNNElastic</text>
</a>
</g>
</g>
<!-- Node35&#45;&gt;Node37 -->
<g id="edge36" class="edge">
<title>Node35&#45;&gt;Node37</title>
<path fill="none" stroke="#191970" d="M252.8029,-521.1829C279.7684,-518.633 310.6612,-515.7117 336.959,-513.2249"/>
<polygon fill="#191970" stroke="#191970" points="252.3042,-517.7144 242.6781,-522.1404 252.9632,-524.6833 252.3042,-517.7144"/>
</g>
<!-- Node38 -->
<g id="node38" class="node">
<title>Node38</title>
<g id="a_node38"><a xlink:href="d6/d20/classG4CollisionnpElastic.html" target="_top" xlink:title="G4CollisionnpElastic">
<polygon fill="none" stroke="#000000" points="338,-458.5 338,-478.5 457,-478.5 457,-458.5 338,-458.5"/>
<text text-anchor="middle" x="397.5" y="-465.5" font-family="FreeSans" font-size="10.00" fill="#000000">G4CollisionnpElastic</text>
</a>
</g>
</g>
<!-- Node35&#45;&gt;Node38 -->
<g id="edge37" class="edge">
<title>Node35&#45;&gt;Node38</title>
<path fill="none" stroke="#191970" d="M219.326,-513.6262C239.9755,-505.4359 267.2014,-495.3619 292,-488.5 306.733,-484.4233 322.8519,-480.9062 337.9574,-478.0086"/>
<polygon fill="#191970" stroke="#191970" points="218.0194,-510.3792 210.0457,-517.3556 220.6296,-516.8744 218.0194,-510.3792"/>
</g>
<!-- Node40 -->
<g id="node40" class="node">
<title>Node40</title>
<g id="a_node40"><a xlink:href="d8/da9/classG4ConcreteNNTwoBodyResonance.html" target="_top" xlink:title="G4ConcreteNNTwoBodyResonance">
<polygon fill="none" stroke="#000000" points="302.5,-136.5 302.5,-156.5 492.5,-156.5 492.5,-136.5 302.5,-136.5"/>
<text text-anchor="middle" x="397.5" y="-143.5" font-family="FreeSans" font-size="10.00" fill="#000000">G4ConcreteNNTwoBodyResonance</text>
</a>
</g>
</g>
<!-- Node39&#45;&gt;Node40 -->
<g id="edge39" class="edge">
<title>Node39&#45;&gt;Node40</title>
<path fill="none" stroke="#191970" d="M219.2765,-221.4971C262.1294,-203.4645 335.5778,-172.5571 373.412,-156.6363"/>
<polygon fill="#191970" stroke="#191970" points="217.7103,-218.3589 209.8506,-225.4636 220.4253,-224.8109 217.7103,-218.3589"/>
</g>
<!-- Node41 -->
<g id="node41" class="node">
<title>Node41</title>
<g id="a_node41"><a xlink:href="d6/d7b/classG4ConcreteNNToDeltaDelta.html" target="_top" xlink:title="G4ConcreteNNToDeltaDelta">
<polygon fill="none" stroke="#000000" points="550.5,-234.5 550.5,-254.5 705.5,-254.5 705.5,-234.5 550.5,-234.5"/>
<text text-anchor="middle" x="628" y="-241.5" font-family="FreeSans" font-size="10.00" fill="#000000">G4ConcreteNNToDeltaDelta</text>
</a>
</g>
</g>
<!-- Node40&#45;&gt;Node41 -->
<g id="edge40" class="edge">
<title>Node40&#45;&gt;Node41</title>
<path fill="none" stroke="#191970" d="M420.4785,-162.1857C447.6407,-180.0345 494.7566,-208.8587 539,-225.5 548.4644,-229.0598 558.7591,-232.0273 568.8774,-234.476"/>
<polygon fill="#191970" stroke="#191970" points="422.3291,-159.2131 412.0649,-156.5868 418.451,-165.0407 422.3291,-159.2131"/>
</g>
<!-- Node42 -->
<g id="node42" class="node">
<title>Node42</title>
<g id="a_node42"><a xlink:href="d6/dc2/classG4ConcreteNNToDeltaDeltastar.html" target="_top" xlink:title="G4ConcreteNNToDeltaDeltastar">
<polygon fill="none" stroke="#000000" points="540.5,-195.5 540.5,-215.5 715.5,-215.5 715.5,-195.5 540.5,-195.5"/>
<text text-anchor="middle" x="628" y="-202.5" font-family="FreeSans" font-size="10.00" fill="#000000">G4ConcreteNNToDeltaDeltastar</text>
</a>
</g>
</g>
<!-- Node40&#45;&gt;Node42 -->
<g id="edge41" class="edge">
<title>Node40&#45;&gt;Node42</title>
<path fill="none" stroke="#191970" d="M440.6315,-159.4815C468.5615,-167.6919 505.7862,-178.2695 539,-186.5 551.5753,-189.6162 565.2259,-192.6855 577.9728,-195.4182"/>
<polygon fill="#191970" stroke="#191970" points="441.3686,-156.0497 430.7866,-156.5724 439.3849,-162.7628 441.3686,-156.0497"/>
</g>
<!-- Node43 -->
<g id="node43" class="node">
<title>Node43</title>
<g id="a_node43"><a xlink:href="d8/ddf/classG4ConcreteNNToDeltaNstar.html" target="_top" xlink:title="G4ConcreteNNToDeltaNstar">
<polygon fill="none" stroke="#000000" points="550,-156.5 550,-176.5 706,-176.5 706,-156.5 550,-156.5"/>
<text text-anchor="middle" x="628" y="-163.5" font-family="FreeSans" font-size="10.00" fill="#000000">G4ConcreteNNToDeltaNstar</text>
</a>
</g>
</g>
<!-- Node40&#45;&gt;Node43 -->
<g id="edge42" class="edge">
<title>Node40&#45;&gt;Node43</title>
<path fill="none" stroke="#191970" d="M502.94,-155.6488C518.773,-157.0226 534.8547,-158.418 549.9783,-159.7302"/>
<polygon fill="#191970" stroke="#191970" points="502.8491,-152.1279 492.5839,-154.7502 502.2439,-159.1017 502.8491,-152.1279"/>
</g>
<!-- Node44 -->
<g id="node44" class="node">
<title>Node44</title>
<g id="a_node44"><a xlink:href="d9/d58/classG4ConcreteNNToNDelta.html" target="_top" xlink:title="G4ConcreteNNToNDelta">
<polygon fill="none" stroke="#000000" points="560.5,-117.5 560.5,-137.5 695.5,-137.5 695.5,-117.5 560.5,-117.5"/>
<text text-anchor="middle" x="628" y="-124.5" font-family="FreeSans" font-size="10.00" fill="#000000">G4ConcreteNNToNDelta</text>
</a>
</g>
</g>
<!-- Node40&#45;&gt;Node44 -->
<g id="edge43" class="edge">
<title>Node40&#45;&gt;Node44</title>
<path fill="none" stroke="#191970" d="M502.7491,-137.8244C522.2779,-136.2146 542.1926,-134.5731 560.2275,-133.0865"/>
<polygon fill="#191970" stroke="#191970" points="502.2626,-134.3525 492.5839,-138.6623 502.8377,-141.3288 502.2626,-134.3525"/>
</g>
<!-- Node45 -->
<g id="node45" class="node">
<title>Node45</title>
<g id="a_node45"><a xlink:href="d8/d45/classG4ConcreteNNToNDeltaStar.html" target="_top" xlink:title="G4ConcreteNNToNDeltaStar">
<polygon fill="none" stroke="#000000" points="549.5,-78.5 549.5,-98.5 706.5,-98.5 706.5,-78.5 549.5,-78.5"/>
<text text-anchor="middle" x="628" y="-85.5" font-family="FreeSans" font-size="10.00" fill="#000000">G4ConcreteNNToNDeltaStar</text>
</a>
</g>
</g>
<!-- Node40&#45;&gt;Node45 -->
<g id="edge44" class="edge">
<title>Node40&#45;&gt;Node45</title>
<path fill="none" stroke="#191970" d="M442.9552,-133.781C470.6426,-126.1614 506.7762,-116.4439 539,-108.5 552.8387,-105.0884 567.9472,-101.6037 581.7221,-98.5189"/>
<polygon fill="#191970" stroke="#191970" points="441.8672,-130.4504 433.1597,-136.4861 443.7306,-137.1978 441.8672,-130.4504"/>
</g>
<!-- Node46 -->
<g id="node46" class="node">
<title>Node46</title>
<g id="a_node46"><a xlink:href="d3/db7/classG4ConcreteNNToNNStar.html" target="_top" xlink:title="G4ConcreteNNToNNStar">
<polygon fill="none" stroke="#000000" points="559,-39.5 559,-59.5 697,-59.5 697,-39.5 559,-39.5"/>
<text text-anchor="middle" x="628" y="-46.5" font-family="FreeSans" font-size="10.00" fill="#000000">G4ConcreteNNToNNStar</text>
</a>
</g>
</g>
<!-- Node40&#45;&gt;Node46 -->
<g id="edge45" class="edge">
<title>Node40&#45;&gt;Node46</title>
<path fill="none" stroke="#191970" d="M421.0104,-131.0464C448.326,-113.735 495.2544,-85.9511 539,-69.5 549.5245,-65.5421 561.057,-62.2413 572.2289,-59.5374"/>
<polygon fill="#191970" stroke="#191970" points="419.0598,-128.1394 412.5317,-136.4842 422.8388,-134.0317 419.0598,-128.1394"/>
</g>
<!-- Node47 -->
<g id="node47" class="node">
<title>Node47</title>
<g id="a_node47"><a xlink:href="d9/d33/classG4ConcreteNStarNToNN.html" target="_top" xlink:title="G4ConcreteNStarNToNN">
<polygon fill="none" stroke="#000000" points="559.5,-.5 559.5,-20.5 696.5,-20.5 696.5,-.5 559.5,-.5"/>
<text text-anchor="middle" x="628" y="-7.5" font-family="FreeSans" font-size="10.00" fill="#000000">G4ConcreteNStarNToNN</text>
</a>
</g>
</g>
<!-- Node40&#45;&gt;Node47 -->
<g id="edge46" class="edge">
<title>Node40&#45;&gt;Node47</title>
<path fill="none" stroke="#191970" d="M413.7291,-128.729C438.2765,-102.9795 487.4767,-55.6349 539,-30.5 547.3977,-26.4033 556.6519,-23.1326 565.9217,-20.5248"/>
<polygon fill="#191970" stroke="#191970" points="410.9406,-126.586 406.6538,-136.2749 416.047,-131.374 410.9406,-126.586"/>
</g>
</g>
</svg>
