<?xml version="1.0" encoding="UTF-8" standalone="no"?>
<!DOCTYPE svg PUBLIC "-//W3C//DTD SVG 1.1//EN"
 "http://www.w3.org/Graphics/SVG/1.1/DTD/svg11.dtd">
<!-- Generated by graphviz version 2.40.1 (20161225.0304)
 -->
<!-- Title: Graphical Class Hierarchy Pages: 1 -->
<svg width="375pt" height="80pt"
 viewBox="0.00 0.00 375.00 80.00" xmlns="http://www.w3.org/2000/svg" xmlns:xlink="http://www.w3.org/1999/xlink">
<g id="graph0" class="graph" transform="scale(1 1) rotate(0) translate(4 76)">
<title>Graphical Class Hierarchy</title>
<!-- Node1 -->
<g id="node1" class="node">
<title>Node1</title>
<g id="a_node1"><a xlink:href="d3/d15/classHepGeom_1_1BasicVector3D.html" target="_top" xlink:title="HepGeom::BasicVector3D\l\&lt; G4double \&gt;">
<polygon fill="none" stroke="#000000" points="0,-22.5 0,-54.5 147,-54.5 147,-22.5 0,-22.5"/>
<text text-anchor="start" x="8" y="-41.5" font-family="FreeSans" font-size="10.00" fill="#000000">HepGeom::BasicVector3D</text>
<text text-anchor="middle" x="73.5" y="-29.5" font-family="FreeSans" font-size="10.00" fill="#000000">&lt; G4double &gt;</text>
</a>
</g>
</g>
<!-- Node2 -->
<g id="node2" class="node">
<title>Node2</title>
<g id="a_node2"><a xlink:href="d4/db6/classHepGeom_1_1Point3D.html" target="_top" xlink:title="HepGeom::Point3D\&lt; G4double \&gt;">
<polygon fill="none" stroke="#000000" points="183,-51.5 183,-71.5 367,-71.5 367,-51.5 183,-51.5"/>
<text text-anchor="middle" x="275" y="-58.5" font-family="FreeSans" font-size="10.00" fill="#000000">HepGeom::Point3D&lt; G4double &gt;</text>
</a>
</g>
</g>
<!-- Node1&#45;&gt;Node2 -->
<g id="edge1" class="edge">
<title>Node1&#45;&gt;Node2</title>
<path fill="none" stroke="#191970" d="M157.3022,-48.0655C167.1845,-49.1935 177.2908,-50.3471 187.2259,-51.4811"/>
<polygon fill="#191970" stroke="#191970" points="157.4339,-44.5579 147.1015,-46.9012 156.64,-51.5127 157.4339,-44.5579"/>
</g>
<!-- Node3 -->
<g id="node3" class="node">
<title>Node3</title>
<g id="a_node3"><a xlink:href="dc/d3c/classHepGeom_1_1Vector3D.html" target="_top" xlink:title="HepGeom::Vector3D\&lt;\l G4double \&gt;">
<polygon fill="none" stroke="#000000" points="211,-.5 211,-32.5 339,-32.5 339,-.5 211,-.5"/>
<text text-anchor="start" x="219" y="-19.5" font-family="FreeSans" font-size="10.00" fill="#000000">HepGeom::Vector3D&lt;</text>
<text text-anchor="middle" x="275" y="-7.5" font-family="FreeSans" font-size="10.00" fill="#000000"> G4double &gt;</text>
</a>
</g>
</g>
<!-- Node1&#45;&gt;Node3 -->
<g id="edge2" class="edge">
<title>Node1&#45;&gt;Node3</title>
<path fill="none" stroke="#191970" d="M157.2619,-29.3548C175.1915,-27.3972 193.8603,-25.3589 210.9078,-23.4977"/>
<polygon fill="#191970" stroke="#191970" points="156.6625,-25.8993 147.1015,-30.4641 157.4223,-32.858 156.6625,-25.8993"/>
</g>
</g>
</svg>
