<?xml version="1.0" encoding="UTF-8" standalone="no"?>
<!DOCTYPE svg PUBLIC "-//W3C//DTD SVG 1.1//EN"
 "http://www.w3.org/Graphics/SVG/1.1/DTD/svg11.dtd">
<!-- Generated by graphviz version 2.40.1 (20161225.0304)
 -->
<!-- Title: acts/blob/master/Examples/Algorithms/Fitting/include/ACTFW/Fitting/FittingAlgorithm.hpp Pages: 1 -->
<svg width="610pt" height="134pt"
 viewBox="0.00 0.00 609.50 134.00" xmlns="http://www.w3.org/2000/svg" xmlns:xlink="http://www.w3.org/1999/xlink">
<g id="graph0" class="graph" transform="scale(1 1) rotate(0) translate(4 130)">
<title>acts/blob/master/Examples/Algorithms/Fitting/include/ACTFW/Fitting/FittingAlgorithm.hpp</title>
<!-- Node1 -->
<g id="node1" class="node">
<title>Node1</title>
<polygon fill="#bfbfbf" stroke="#000000" points="169,-81.5 169,-125.5 367,-125.5 367,-81.5 169,-81.5"/>
<text text-anchor="start" x="177" y="-112.5" font-family="FreeSans" font-size="10.00" fill="#000000">acts/blob/master/Examples</text>
<text text-anchor="start" x="177" y="-100.5" font-family="FreeSans" font-size="10.00" fill="#000000">/Algorithms/Fitting/include</text>
<text text-anchor="middle" x="268" y="-88.5" font-family="FreeSans" font-size="10.00" fill="#000000">/ACTFW/Fitting/FittingAlgorithm.hpp</text>
</g>
<!-- Node2 -->
<g id="node2" class="node">
<title>Node2</title>
<g id="a_node2"><a xlink:href="../../d0/d51/FittingAlgorithm_8cpp.html" target="_top" xlink:title="acts/blob/master/Examples\l/Algorithms/Fitting/src\l/FittingAlgorithm.cpp">
<polygon fill="none" stroke="#000000" points="0,-.5 0,-44.5 154,-44.5 154,-.5 0,-.5"/>
<text text-anchor="start" x="8" y="-31.5" font-family="FreeSans" font-size="10.00" fill="#000000">acts/blob/master/Examples</text>
<text text-anchor="start" x="8" y="-19.5" font-family="FreeSans" font-size="10.00" fill="#000000">/Algorithms/Fitting/src</text>
<text text-anchor="middle" x="77" y="-7.5" font-family="FreeSans" font-size="10.00" fill="#000000">/FittingAlgorithm.cpp</text>
</a>
</g>
</g>
<!-- Node1&#45;&gt;Node2 -->
<g id="edge1" class="edge">
<title>Node1&#45;&gt;Node2</title>
<path fill="none" stroke="#191970" d="M206.6516,-77.4832C181.595,-66.8571 152.926,-54.699 128.929,-44.5222"/>
<polygon fill="#191970" stroke="#191970" points="205.4878,-80.7913 216.0607,-81.4734 208.2209,-74.3468 205.4878,-80.7913"/>
</g>
<!-- Node3 -->
<g id="node3" class="node">
<title>Node3</title>
<g id="a_node3"><a xlink:href="../../df/d53/FittingAlgorithmFitterFunction_8cpp.html" target="_top" xlink:title="acts/blob/master/Examples\l/Algorithms/Fitting/src\l/FittingAlgorithmFitterFunction.cpp">
<polygon fill="none" stroke="#000000" points="172,-.5 172,-44.5 364,-44.5 364,-.5 172,-.5"/>
<text text-anchor="start" x="180" y="-31.5" font-family="FreeSans" font-size="10.00" fill="#000000">acts/blob/master/Examples</text>
<text text-anchor="start" x="180" y="-19.5" font-family="FreeSans" font-size="10.00" fill="#000000">/Algorithms/Fitting/src</text>
<text text-anchor="middle" x="268" y="-7.5" font-family="FreeSans" font-size="10.00" fill="#000000">/FittingAlgorithmFitterFunction.cpp</text>
</a>
</g>
</g>
<!-- Node1&#45;&gt;Node3 -->
<g id="edge2" class="edge">
<title>Node1&#45;&gt;Node3</title>
<path fill="none" stroke="#191970" d="M268,-71.2457C268,-62.3118 268,-52.8188 268,-44.6068"/>
<polygon fill="#191970" stroke="#191970" points="264.5001,-71.3664 268,-81.3664 271.5001,-71.3664 264.5001,-71.3664"/>
</g>
<!-- Node4 -->
<g id="node4" class="node">
<title>Node4</title>
<g id="a_node4"><a xlink:href="../../de/dcb/RecTruthTracks_8cpp.html" target="_top" xlink:title="acts/blob/master/Examples\l/Run/Reconstruction/RecTruthTracks.cpp">
<polygon fill="none" stroke="#000000" points="382.5,-6.5 382.5,-38.5 601.5,-38.5 601.5,-6.5 382.5,-6.5"/>
<text text-anchor="start" x="390.5" y="-25.5" font-family="FreeSans" font-size="10.00" fill="#000000">acts/blob/master/Examples</text>
<text text-anchor="middle" x="492" y="-13.5" font-family="FreeSans" font-size="10.00" fill="#000000">/Run/Reconstruction/RecTruthTracks.cpp</text>
</a>
</g>
</g>
<!-- Node1&#45;&gt;Node4 -->
<g id="edge3" class="edge">
<title>Node1&#45;&gt;Node4</title>
<path fill="none" stroke="#191970" d="M338.766,-77.9105C374.3576,-65.0403 416.4062,-49.8353 447.444,-38.6118"/>
<polygon fill="#191970" stroke="#191970" points="337.1269,-74.7813 328.9131,-81.4734 339.5074,-81.3642 337.1269,-74.7813"/>
</g>
</g>
</svg>
