<?xml version="1.0" encoding="UTF-8" standalone="no"?>
<!DOCTYPE svg PUBLIC "-//W3C//DTD SVG 1.1//EN"
 "http://www.w3.org/Graphics/SVG/1.1/DTD/svg11.dtd">
<!-- Generated by graphviz version 2.40.1 (20161225.0304)
 -->
<!-- Title: acts/blob/master/Examples/Algorithms/Fatras/include/ACTFW/Fatras/FatrasAlgorithm.hpp Pages: 1 -->
<svg width="610pt" height="215pt"
 viewBox="0.00 0.00 610.00 215.00" xmlns="http://www.w3.org/2000/svg" xmlns:xlink="http://www.w3.org/1999/xlink">
<g id="graph0" class="graph" transform="scale(1 1) rotate(0) translate(4 211)">
<title>acts/blob/master/Examples/Algorithms/Fatras/include/ACTFW/Fatras/FatrasAlgorithm.hpp</title>
<!-- Node1 -->
<g id="node1" class="node">
<title>Node1</title>
<polygon fill="#bfbfbf" stroke="#000000" points="286,-162.5 286,-206.5 482,-206.5 482,-162.5 286,-162.5"/>
<text text-anchor="start" x="294" y="-193.5" font-family="FreeSans" font-size="10.00" fill="#000000">acts/blob/master/Examples</text>
<text text-anchor="start" x="294" y="-181.5" font-family="FreeSans" font-size="10.00" fill="#000000">/Algorithms/Fatras/include</text>
<text text-anchor="middle" x="384" y="-169.5" font-family="FreeSans" font-size="10.00" fill="#000000">/ACTFW/Fatras/FatrasAlgorithm.hpp</text>
</g>
<!-- Node2 -->
<g id="node2" class="node">
<title>Node2</title>
<g id="a_node2"><a xlink:href="../../d7/d26/FatrasOptions_8hpp.html" target="_top" xlink:title="acts/blob/master/Examples\l/Algorithms/Fatras/include\l/ACTFW/Fatras/FatrasOptions.hpp">
<polygon fill="none" stroke="#000000" points="231,-81.5 231,-125.5 417,-125.5 417,-81.5 231,-81.5"/>
<text text-anchor="start" x="239" y="-112.5" font-family="FreeSans" font-size="10.00" fill="#000000">acts/blob/master/Examples</text>
<text text-anchor="start" x="239" y="-100.5" font-family="FreeSans" font-size="10.00" fill="#000000">/Algorithms/Fatras/include</text>
<text text-anchor="middle" x="324" y="-88.5" font-family="FreeSans" font-size="10.00" fill="#000000">/ACTFW/Fatras/FatrasOptions.hpp</text>
</a>
</g>
</g>
<!-- Node1&#45;&gt;Node2 -->
<g id="edge1" class="edge">
<title>Node1&#45;&gt;Node2</title>
<path fill="none" stroke="#191970" d="M361.6107,-154.2745C354.5658,-144.7638 346.9212,-134.4436 340.3754,-125.6068"/>
<polygon fill="#191970" stroke="#191970" points="358.84,-156.4141 367.6047,-162.3664 364.4649,-152.2475 358.84,-156.4141"/>
</g>
<!-- Node5 -->
<g id="node5" class="node">
<title>Node5</title>
<g id="a_node5"><a xlink:href="../../d8/d55/FatrasSimulationBase_8cpp.html" target="_top" xlink:title="acts/blob/master/Examples\l/Run/Fatras/Common/FatrasSimulation\lBase.cpp">
<polygon fill="none" stroke="#000000" points="392,-.5 392,-44.5 602,-44.5 602,-.5 392,-.5"/>
<text text-anchor="start" x="400" y="-31.5" font-family="FreeSans" font-size="10.00" fill="#000000">acts/blob/master/Examples</text>
<text text-anchor="start" x="400" y="-19.5" font-family="FreeSans" font-size="10.00" fill="#000000">/Run/Fatras/Common/FatrasSimulation</text>
<text text-anchor="middle" x="497" y="-7.5" font-family="FreeSans" font-size="10.00" fill="#000000">Base.cpp</text>
</a>
</g>
</g>
<!-- Node1&#45;&gt;Node5 -->
<g id="edge5" class="edge">
<title>Node1&#45;&gt;Node5</title>
<path fill="none" stroke="#191970" d="M406.0481,-154.0508C412.5169,-145.0471 419.5772,-135.1512 426,-126 445.5281,-98.1762 467.6213,-65.8292 481.9019,-44.8037"/>
<polygon fill="#191970" stroke="#191970" points="403.0706,-152.1962 400.0674,-162.3565 408.7511,-156.2866 403.0706,-152.1962"/>
</g>
<!-- Node3 -->
<g id="node3" class="node">
<title>Node3</title>
<g id="a_node3"><a xlink:href="../../d9/daa/FatrasOptions_8cpp.html" target="_top" xlink:title="acts/blob/master/Examples\l/Algorithms/Fatras/src\l/FatrasOptions.cpp">
<polygon fill="none" stroke="#000000" points="0,-.5 0,-44.5 154,-44.5 154,-.5 0,-.5"/>
<text text-anchor="start" x="8" y="-31.5" font-family="FreeSans" font-size="10.00" fill="#000000">acts/blob/master/Examples</text>
<text text-anchor="start" x="8" y="-19.5" font-family="FreeSans" font-size="10.00" fill="#000000">/Algorithms/Fatras/src</text>
<text text-anchor="middle" x="77" y="-7.5" font-family="FreeSans" font-size="10.00" fill="#000000">/FatrasOptions.cpp</text>
</a>
</g>
</g>
<!-- Node2&#45;&gt;Node3 -->
<g id="edge2" class="edge">
<title>Node2&#45;&gt;Node3</title>
<path fill="none" stroke="#191970" d="M247.2241,-78.3225C214.2257,-67.5012 176.0073,-54.968 144.1542,-44.5222"/>
<polygon fill="#191970" stroke="#191970" points="246.2397,-81.683 256.8324,-81.4734 248.421,-75.0315 246.2397,-81.683"/>
</g>
<!-- Node4 -->
<g id="node4" class="node">
<title>Node4</title>
<g id="a_node4"><a xlink:href="../../d1/d71/FatrasMain_8cpp.html" target="_top" xlink:title="acts/blob/master/Examples\l/Run/Fatras/Common/FatrasMain.cpp">
<polygon fill="none" stroke="#000000" points="172,-6.5 172,-38.5 374,-38.5 374,-6.5 172,-6.5"/>
<text text-anchor="start" x="180" y="-25.5" font-family="FreeSans" font-size="10.00" fill="#000000">acts/blob/master/Examples</text>
<text text-anchor="middle" x="273" y="-13.5" font-family="FreeSans" font-size="10.00" fill="#000000">/Run/Fatras/Common/FatrasMain.cpp</text>
</a>
</g>
</g>
<!-- Node2&#45;&gt;Node4 -->
<g id="edge3" class="edge">
<title>Node2&#45;&gt;Node4</title>
<path fill="none" stroke="#191970" d="M304.6623,-72.7871C297.3594,-61.1884 289.3392,-48.4505 283.198,-38.6969"/>
<polygon fill="#191970" stroke="#191970" points="301.774,-74.7689 310.064,-81.3664 307.6977,-71.0392 301.774,-74.7689"/>
</g>
<!-- Node2&#45;&gt;Node5 -->
<g id="edge4" class="edge">
<title>Node2&#45;&gt;Node5</title>
<path fill="none" stroke="#191970" d="M380.3547,-77.1143C402.7984,-66.6059 428.3368,-54.6486 449.7841,-44.6068"/>
<polygon fill="#191970" stroke="#191970" points="378.8454,-73.9563 371.273,-81.3664 381.8136,-80.2958 378.8454,-73.9563"/>
</g>
</g>
</svg>
