<?xml version="1.0" encoding="UTF-8" standalone="no"?>
<!DOCTYPE svg PUBLIC "-//W3C//DTD SVG 1.1//EN"
 "http://www.w3.org/Graphics/SVG/1.1/DTD/svg11.dtd">
<!-- Generated by graphviz version 2.40.1 (20161225.0304)
 -->
<!-- Title: G4ITPathFinder::GetNavigator Pages: 1 -->
<svg width="1059pt" height="99pt"
 viewBox="0.00 0.00 1059.00 99.00" xmlns="http://www.w3.org/2000/svg" xmlns:xlink="http://www.w3.org/1999/xlink">
<g id="graph0" class="graph" transform="scale(1 1) rotate(0) translate(4 95)">
<title>G4ITPathFinder::GetNavigator</title>
<!-- Node1 -->
<g id="node1" class="node">
<title>Node1</title>
<polygon fill="#bfbfbf" stroke="#000000" points="0,-41.5 0,-61.5 167,-61.5 167,-41.5 0,-41.5"/>
<text text-anchor="middle" x="83.5" y="-48.5" font-family="FreeSans" font-size="10.00" fill="#000000">G4ITPathFinder::GetNavigator</text>
</g>
<!-- Node2 -->
<g id="node2" class="node">
<title>Node2</title>
<g id="a_node2"><a xlink:href="../../dd/d11/classG4ITPathFinder.html#ade663e1310aaedd9e4e49df7d9ed19b3" target="_top" xlink:title="G4ITPathFinder::CreateTouchable\lHandle">
<polygon fill="none" stroke="#000000" points="203,-58.5 203,-90.5 387,-90.5 387,-58.5 203,-58.5"/>
<text text-anchor="start" x="211" y="-77.5" font-family="FreeSans" font-size="10.00" fill="#000000">G4ITPathFinder::CreateTouchable</text>
<text text-anchor="middle" x="295" y="-65.5" font-family="FreeSans" font-size="10.00" fill="#000000">Handle</text>
</a>
</g>
</g>
<!-- Node1&#45;&gt;Node2 -->
<g id="edge1" class="edge">
<title>Node1&#45;&gt;Node2</title>
<path fill="none" stroke="#191970" d="M177.1049,-61.6793C185.6898,-62.6128 194.383,-63.5582 202.954,-64.4903"/>
<polygon fill="#191970" stroke="#191970" points="177.4102,-58.1919 167.0904,-60.5902 176.6534,-65.1509 177.4102,-58.1919"/>
</g>
<!-- Node3 -->
<g id="node3" class="node">
<title>Node3</title>
<g id="a_node3"><a xlink:href="../../dd/d11/classG4ITPathFinder.html#a373a536bc2101918125343bc37312eaa" target="_top" xlink:title="G4ITPathFinder::PrintLimited">
<polygon fill="none" stroke="#000000" points="215,-19.5 215,-39.5 375,-39.5 375,-19.5 215,-19.5"/>
<text text-anchor="middle" x="295" y="-26.5" font-family="FreeSans" font-size="10.00" fill="#000000">G4ITPathFinder::PrintLimited</text>
</a>
</g>
</g>
<!-- Node1&#45;&gt;Node3 -->
<g id="edge2" class="edge">
<title>Node1&#45;&gt;Node3</title>
<path fill="none" stroke="#191970" d="M177.1049,-41.7633C189.6713,-40.4562 202.4695,-39.1249 214.7771,-37.8447"/>
<polygon fill="#191970" stroke="#191970" points="176.6746,-38.2891 167.0904,-42.805 177.3989,-45.2515 176.6746,-38.2891"/>
</g>
<!-- Node4 -->
<g id="node4" class="node">
<title>Node4</title>
<g id="a_node4"><a xlink:href="../../dd/d11/classG4ITPathFinder.html#a493c2505dd56ee223d54d602aea72890" target="_top" xlink:title="G4ITPathFinder::WhichLimited">
<polygon fill="none" stroke="#000000" points="437,-39.5 437,-59.5 605,-59.5 605,-39.5 437,-39.5"/>
<text text-anchor="middle" x="521" y="-46.5" font-family="FreeSans" font-size="10.00" fill="#000000">G4ITPathFinder::WhichLimited</text>
</a>
</g>
</g>
<!-- Node3&#45;&gt;Node4 -->
<g id="edge3" class="edge">
<title>Node3&#45;&gt;Node4</title>
<path fill="none" stroke="#191970" d="M385.7035,-37.5269C402.5529,-39.018 420.0911,-40.57 436.738,-42.0432"/>
<polygon fill="#191970" stroke="#191970" points="385.5851,-34.0028 375.3155,-36.6076 384.968,-40.9755 385.5851,-34.0028"/>
</g>
<!-- Node7 -->
<g id="node7" class="node">
<title>Node7</title>
<g id="a_node7"><a xlink:href="../../dd/d11/classG4ITPathFinder.html#a9ef7fbf8d3bb236eb4168c6464782d24" target="_top" xlink:title="G4ITPathFinder::DoNextCurvedStep">
<polygon fill="none" stroke="#000000" points="423,-.5 423,-20.5 619,-20.5 619,-.5 423,-.5"/>
<text text-anchor="middle" x="521" y="-7.5" font-family="FreeSans" font-size="10.00" fill="#000000">G4ITPathFinder::DoNextCurvedStep</text>
</a>
</g>
</g>
<!-- Node3&#45;&gt;Node7 -->
<g id="edge6" class="edge">
<title>Node3&#45;&gt;Node7</title>
<path fill="none" stroke="#191970" d="M385.5031,-21.8913C397.7499,-20.8617 410.3641,-19.8012 422.7385,-18.7609"/>
<polygon fill="#191970" stroke="#191970" points="384.9871,-18.4223 375.3155,-22.7478 385.5736,-25.3977 384.9871,-18.4223"/>
</g>
<!-- Node5 -->
<g id="node5" class="node">
<title>Node5</title>
<g id="a_node5"><a xlink:href="../../dd/d11/classG4ITPathFinder.html#a4cb8428d7ef81a323e1a606496facb43" target="_top" xlink:title="G4ITPathFinder::DoNextLinearStep">
<polygon fill="none" stroke="#000000" points="655,-39.5 655,-59.5 846,-59.5 846,-39.5 655,-39.5"/>
<text text-anchor="middle" x="750.5" y="-46.5" font-family="FreeSans" font-size="10.00" fill="#000000">G4ITPathFinder::DoNextLinearStep</text>
</a>
</g>
</g>
<!-- Node4&#45;&gt;Node5 -->
<g id="edge4" class="edge">
<title>Node4&#45;&gt;Node5</title>
<path fill="none" stroke="#191970" d="M615.4572,-49.5C628.4161,-49.5 641.7315,-49.5 654.7139,-49.5"/>
<polygon fill="#191970" stroke="#191970" points="615.1542,-46.0001 605.1542,-49.5 615.1541,-53.0001 615.1542,-46.0001"/>
</g>
<!-- Node6 -->
<g id="node6" class="node">
<title>Node6</title>
<g id="a_node6"><a xlink:href="../../dd/d11/classG4ITPathFinder.html#a58fd8293bb90d45391e5b8ba69c155ff" target="_top" xlink:title="G4ITPathFinder::ComputeStep">
<polygon fill="none" stroke="#000000" points="882,-39.5 882,-59.5 1051,-59.5 1051,-39.5 882,-39.5"/>
<text text-anchor="middle" x="966.5" y="-46.5" font-family="FreeSans" font-size="10.00" fill="#000000">G4ITPathFinder::ComputeStep</text>
</a>
</g>
</g>
<!-- Node5&#45;&gt;Node6 -->
<g id="edge5" class="edge">
<title>Node5&#45;&gt;Node6</title>
<path fill="none" stroke="#191970" d="M856.2159,-49.5C864.7801,-49.5 873.3635,-49.5 881.7504,-49.5"/>
<polygon fill="#191970" stroke="#191970" points="856.1841,-46.0001 846.184,-49.5 856.184,-53.0001 856.1841,-46.0001"/>
</g>
</g>
</svg>
