<?xml version="1.0" encoding="UTF-8" standalone="no"?>
<!DOCTYPE svg PUBLIC "-//W3C//DTD SVG 1.1//EN"
 "http://www.w3.org/Graphics/SVG/1.1/DTD/svg11.dtd">
<!-- Generated by graphviz version 2.40.1 (20161225.0304)
 -->
<!-- Title: G4GMocrenFileCTtoDensityMap::GetMaxCT Pages: 1 -->
<svg width="762pt" height="245pt"
 viewBox="0.00 0.00 762.00 245.00" xmlns="http://www.w3.org/2000/svg" xmlns:xlink="http://www.w3.org/1999/xlink">
<g id="graph0" class="graph" transform="scale(1 1) rotate(0) translate(4 241)">
<title>G4GMocrenFileCTtoDensityMap::GetMaxCT</title>
<!-- Node1 -->
<g id="node1" class="node">
<title>Node1</title>
<polygon fill="#bfbfbf" stroke="#000000" points="0,-102.5 0,-134.5 154,-134.5 154,-102.5 0,-102.5"/>
<text text-anchor="start" x="8" y="-121.5" font-family="FreeSans" font-size="10.00" fill="#000000">G4GMocrenFileCTtoDensity</text>
<text text-anchor="middle" x="77" y="-109.5" font-family="FreeSans" font-size="10.00" fill="#000000">Map::GetMaxCT</text>
</g>
<!-- Node2 -->
<g id="node2" class="node">
<title>Node2</title>
<g id="a_node2"><a xlink:href="../../df/d82/classG4GMocrenFileSceneHandler.html#a75a47e3a7ea7521f21367bf000b49465" target="_top" xlink:title="G4GMocrenFileSceneHandler\l::BeginSavingGdd">
<polygon fill="none" stroke="#000000" points="190,-102.5 190,-134.5 354,-134.5 354,-102.5 190,-102.5"/>
<text text-anchor="start" x="198" y="-121.5" font-family="FreeSans" font-size="10.00" fill="#000000">G4GMocrenFileSceneHandler</text>
<text text-anchor="middle" x="272" y="-109.5" font-family="FreeSans" font-size="10.00" fill="#000000">::BeginSavingGdd</text>
</a>
</g>
</g>
<!-- Node1&#45;&gt;Node2 -->
<g id="edge1" class="edge">
<title>Node1&#45;&gt;Node2</title>
<path fill="none" stroke="#191970" d="M164.31,-118.5C172.7618,-118.5 181.317,-118.5 189.7175,-118.5"/>
<polygon fill="#191970" stroke="#191970" points="164.0692,-115.0001 154.0692,-118.5 164.0691,-122.0001 164.0692,-115.0001"/>
</g>
<!-- Node3 -->
<g id="node3" class="node">
<title>Node3</title>
<g id="a_node3"><a xlink:href="../../df/d82/classG4GMocrenFileSceneHandler.html#a87a6923ae2d3216e9879ac46d19d2bd3" target="_top" xlink:title="G4GMocrenFileSceneHandler\l::GFBeginModeling">
<polygon fill="none" stroke="#000000" points="390,-102.5 390,-134.5 554,-134.5 554,-102.5 390,-102.5"/>
<text text-anchor="start" x="398" y="-121.5" font-family="FreeSans" font-size="10.00" fill="#000000">G4GMocrenFileSceneHandler</text>
<text text-anchor="middle" x="472" y="-109.5" font-family="FreeSans" font-size="10.00" fill="#000000">::GFBeginModeling</text>
</a>
</g>
</g>
<!-- Node2&#45;&gt;Node3 -->
<g id="edge2" class="edge">
<title>Node2&#45;&gt;Node3</title>
<path fill="none" stroke="#191970" d="M364.4658,-118.5C372.9136,-118.5 381.4335,-118.5 389.7826,-118.5"/>
<polygon fill="#191970" stroke="#191970" points="364.2135,-115.0001 354.2135,-118.5 364.2134,-122.0001 364.2135,-115.0001"/>
</g>
<!-- Node4 -->
<g id="node4" class="node">
<title>Node4</title>
<g id="a_node4"><a xlink:href="../../df/d82/classG4GMocrenFileSceneHandler.html#ada9789a89bec73e4f6da878ab46b88d7" target="_top" xlink:title="G4GMocrenFileSceneHandler\l::AddPrimitive">
<polygon fill="none" stroke="#000000" points="590,-204.5 590,-236.5 754,-236.5 754,-204.5 590,-204.5"/>
<text text-anchor="start" x="598" y="-223.5" font-family="FreeSans" font-size="10.00" fill="#000000">G4GMocrenFileSceneHandler</text>
<text text-anchor="middle" x="672" y="-211.5" font-family="FreeSans" font-size="10.00" fill="#000000">::AddPrimitive</text>
</a>
</g>
</g>
<!-- Node3&#45;&gt;Node4 -->
<g id="edge3" class="edge">
<title>Node3&#45;&gt;Node4</title>
<path fill="none" stroke="#191970" d="M500.989,-140.7606C524.0804,-157.6458 557.7706,-180.4433 590,-195.5 597.0118,-198.7757 604.5583,-201.7521 612.133,-204.4158"/>
<polygon fill="#191970" stroke="#191970" points="502.8017,-137.7477 492.6831,-134.6071 498.6347,-143.3723 502.8017,-137.7477"/>
</g>
<!-- Node5 -->
<g id="node5" class="node">
<title>Node5</title>
<g id="a_node5"><a xlink:href="../../df/d82/classG4GMocrenFileSceneHandler.html#a906357eb813f40652972d9e3cd7f5f73" target="_top" xlink:title="G4GMocrenFileSceneHandler\l::BeginPrimitives">
<polygon fill="none" stroke="#000000" points="590,-153.5 590,-185.5 754,-185.5 754,-153.5 590,-153.5"/>
<text text-anchor="start" x="598" y="-172.5" font-family="FreeSans" font-size="10.00" fill="#000000">G4GMocrenFileSceneHandler</text>
<text text-anchor="middle" x="672" y="-160.5" font-family="FreeSans" font-size="10.00" fill="#000000">::BeginPrimitives</text>
</a>
</g>
</g>
<!-- Node3&#45;&gt;Node5 -->
<g id="edge4" class="edge">
<title>Node3&#45;&gt;Node5</title>
<path fill="none" stroke="#191970" d="M544.844,-137.0752C565.8576,-142.4337 588.6022,-148.2336 608.9665,-153.4264"/>
<polygon fill="#191970" stroke="#191970" points="545.5615,-133.6462 535.0067,-134.5667 543.8318,-140.4292 545.5615,-133.6462"/>
</g>
<!-- Node6 -->
<g id="node6" class="node">
<title>Node6</title>
<g id="a_node6"><a xlink:href="../../df/d82/classG4GMocrenFileSceneHandler.html#a7b10fa770ac50af7107447130f5c42e9" target="_top" xlink:title="G4GMocrenFileSceneHandler\l::AddSolid">
<polygon fill="none" stroke="#000000" points="590,-102.5 590,-134.5 754,-134.5 754,-102.5 590,-102.5"/>
<text text-anchor="start" x="598" y="-121.5" font-family="FreeSans" font-size="10.00" fill="#000000">G4GMocrenFileSceneHandler</text>
<text text-anchor="middle" x="672" y="-109.5" font-family="FreeSans" font-size="10.00" fill="#000000">::AddSolid</text>
</a>
</g>
</g>
<!-- Node3&#45;&gt;Node6 -->
<g id="edge5" class="edge">
<title>Node3&#45;&gt;Node6</title>
<path fill="none" stroke="#191970" d="M564.4658,-118.5C572.9136,-118.5 581.4335,-118.5 589.7826,-118.5"/>
<polygon fill="#191970" stroke="#191970" points="564.2135,-115.0001 554.2135,-118.5 564.2134,-122.0001 564.2135,-115.0001"/>
</g>
<!-- Node7 -->
<g id="node7" class="node">
<title>Node7</title>
<g id="a_node7"><a xlink:href="../../df/dd1/classG4GMocrenFileViewer.html#a60ead4cb6e7bd5ceae7a457aa31bd05c" target="_top" xlink:title="G4GMocrenFileViewer\l::ClearView">
<polygon fill="none" stroke="#000000" points="608.5,-51.5 608.5,-83.5 735.5,-83.5 735.5,-51.5 608.5,-51.5"/>
<text text-anchor="start" x="616.5" y="-70.5" font-family="FreeSans" font-size="10.00" fill="#000000">G4GMocrenFileViewer</text>
<text text-anchor="middle" x="672" y="-58.5" font-family="FreeSans" font-size="10.00" fill="#000000">::ClearView</text>
</a>
</g>
</g>
<!-- Node3&#45;&gt;Node7 -->
<g id="edge6" class="edge">
<title>Node3&#45;&gt;Node7</title>
<path fill="none" stroke="#191970" d="M544.844,-99.9248C565.8576,-94.5663 588.6022,-88.7664 608.9665,-83.5736"/>
<polygon fill="#191970" stroke="#191970" points="543.8318,-96.5708 535.0067,-102.4333 545.5615,-103.3538 543.8318,-96.5708"/>
</g>
<!-- Node8 -->
<g id="node8" class="node">
<title>Node8</title>
<g id="a_node8"><a xlink:href="../../df/dd1/classG4GMocrenFileViewer.html#aa0d06a737d18e940a8a36e4199e8fb3d" target="_top" xlink:title="G4GMocrenFileViewer\l::DrawView">
<polygon fill="none" stroke="#000000" points="608.5,-.5 608.5,-32.5 735.5,-32.5 735.5,-.5 608.5,-.5"/>
<text text-anchor="start" x="616.5" y="-19.5" font-family="FreeSans" font-size="10.00" fill="#000000">G4GMocrenFileViewer</text>
<text text-anchor="middle" x="672" y="-7.5" font-family="FreeSans" font-size="10.00" fill="#000000">::DrawView</text>
</a>
</g>
</g>
<!-- Node3&#45;&gt;Node8 -->
<g id="edge7" class="edge">
<title>Node3&#45;&gt;Node8</title>
<path fill="none" stroke="#191970" d="M501.5048,-96.3474C524.6324,-79.7789 558.1293,-57.4893 590,-42.5 597.7033,-38.877 606.0414,-35.5784 614.3498,-32.6394"/>
<polygon fill="#191970" stroke="#191970" points="499.2135,-93.6856 493.1736,-102.3902 503.3235,-99.352 499.2135,-93.6856"/>
</g>
</g>
</svg>
