<?xml version="1.0" encoding="UTF-8" standalone="no"?>
<!DOCTYPE svg PUBLIC "-//W3C//DTD SVG 1.1//EN"
 "http://www.w3.org/Graphics/SVG/1.1/DTD/svg11.dtd">
<!-- Generated by graphviz version 2.40.1 (20161225.0304)
 -->
<!-- Title: geant4/tree/geant4&#45;10.6&#45;release/examples/extended/exoticphysics/phonon/src/XActionInitialization.cc Pages: 1 -->
<svg width="1139pt" height="521pt"
 viewBox="0.00 0.00 1138.50 521.00" xmlns="http://www.w3.org/2000/svg" xmlns:xlink="http://www.w3.org/1999/xlink">
<g id="graph0" class="graph" transform="scale(1 1) rotate(0) translate(4 517)">
<title>geant4/tree/geant4&#45;10.6&#45;release/examples/extended/exoticphysics/phonon/src/XActionInitialization.cc</title>
<!-- Node1 -->
<g id="node1" class="node">
<title>Node1</title>
<polygon fill="#bfbfbf" stroke="#000000" points="673.5,-456.5 673.5,-512.5 868.5,-512.5 868.5,-456.5 673.5,-456.5"/>
<text text-anchor="start" x="681.5" y="-499.5" font-family="FreeSans" font-size="10.00" fill="#000000">geant4/tree/geant4</text>
<text text-anchor="start" x="681.5" y="-487.5" font-family="FreeSans" font-size="10.00" fill="#000000">&#45;10.6&#45;release/examples</text>
<text text-anchor="start" x="681.5" y="-475.5" font-family="FreeSans" font-size="10.00" fill="#000000">/extended/exoticphysics</text>
<text text-anchor="middle" x="771" y="-463.5" font-family="FreeSans" font-size="10.00" fill="#000000">/phonon/src/XActionInitialization.cc</text>
</g>
<!-- Node2 -->
<g id="node2" class="node">
<title>Node2</title>
<g id="a_node2"><a xlink:href="../../df/d8f/XActionInitialization_8hh.html" target="_top" xlink:title="Definition of the XActionInitialization class.">
<polygon fill="none" stroke="#000000" points="545,-399.5 545,-419.5 677,-419.5 677,-399.5 545,-399.5"/>
<text text-anchor="middle" x="611" y="-406.5" font-family="FreeSans" font-size="10.00" fill="#000000">XActionInitialization.hh</text>
</a>
</g>
</g>
<!-- Node1&#45;&gt;Node2 -->
<g id="edge1" class="edge">
<title>Node1&#45;&gt;Node2</title>
<path fill="none" stroke="#191970" d="M710.9667,-456.3594C687.3436,-445.2861 661.2391,-433.0496 641.6311,-423.8583"/>
<polygon fill="#191970" stroke="#191970" points="643.1068,-420.6846 632.5666,-419.6094 640.1357,-427.0229 643.1068,-420.6846"/>
</g>
<!-- Node29 -->
<g id="node29" class="node">
<title>Node29</title>
<g id="a_node29"><a xlink:href="../../d8/deb/XPrimaryGeneratorAction_8hh.html" target="_top" xlink:title="Definition of the XPrimaryGeneratorAction class.">
<polygon fill="none" stroke="#000000" points="873,-399.5 873,-419.5 1033,-419.5 1033,-399.5 873,-399.5"/>
<text text-anchor="middle" x="953" y="-406.5" font-family="FreeSans" font-size="10.00" fill="#000000">XPrimaryGeneratorAction.hh</text>
</a>
</g>
</g>
<!-- Node1&#45;&gt;Node29 -->
<g id="edge41" class="edge">
<title>Node1&#45;&gt;Node29</title>
<path fill="none" stroke="#191970" d="M839.0289,-456.4661C866.2936,-445.2307 896.502,-432.7822 918.9646,-423.5256"/>
<polygon fill="#191970" stroke="#191970" points="920.4811,-426.6862 928.3933,-419.6401 917.814,-420.2142 920.4811,-426.6862"/>
</g>
<!-- Node31 -->
<g id="node31" class="node">
<title>Node31</title>
<g id="a_node31"><a xlink:href="../../d7/df1/XPhononStackingAction_8hh.html" target="_top" xlink:title="Definition of the XPhononStackingAction class.">
<polygon fill="none" stroke="#000000" points="695,-399.5 695,-419.5 847,-419.5 847,-399.5 695,-399.5"/>
<text text-anchor="middle" x="771" y="-406.5" font-family="FreeSans" font-size="10.00" fill="#000000">XPhononStackingAction.hh</text>
</a>
</g>
</g>
<!-- Node1&#45;&gt;Node31 -->
<g id="edge43" class="edge">
<title>Node1&#45;&gt;Node31</title>
<path fill="none" stroke="#191970" d="M771,-456.1457C771,-447.3619 771,-437.8652 771,-429.7476"/>
<polygon fill="#191970" stroke="#191970" points="774.5001,-429.7295 771,-419.7296 767.5001,-429.7296 774.5001,-429.7295"/>
</g>
<!-- Node3 -->
<g id="node3" class="node">
<title>Node3</title>
<g id="a_node3"><a xlink:href="../../da/d46/globals_8hh.html" target="_top" xlink:title="globals.hh">
<polygon fill="none" stroke="#000000" points="595,-342.5 595,-362.5 663,-362.5 663,-342.5 595,-342.5"/>
<text text-anchor="middle" x="629" y="-349.5" font-family="FreeSans" font-size="10.00" fill="#000000">globals.hh</text>
</a>
</g>
</g>
<!-- Node2&#45;&gt;Node3 -->
<g id="edge2" class="edge">
<title>Node2&#45;&gt;Node3</title>
<path fill="none" stroke="#191970" d="M614.218,-399.3095C616.5729,-391.8524 619.8436,-381.4951 622.7099,-372.4186"/>
<polygon fill="#191970" stroke="#191970" points="626.136,-373.192 625.8098,-362.6022 619.4609,-371.0841 626.136,-373.192"/>
</g>
<!-- Node28 -->
<g id="node28" class="node">
<title>Node28</title>
<g id="a_node28"><a xlink:href="../../d8/d59/G4VUserActionInitialization_8hh.html" target="_top" xlink:title="G4VUserActionInitialization.hh">
<polygon fill="none" stroke="#000000" points="407,-342.5 407,-362.5 577,-362.5 577,-342.5 407,-342.5"/>
<text text-anchor="middle" x="492" y="-349.5" font-family="FreeSans" font-size="10.00" fill="#000000">G4VUserActionInitialization.hh</text>
</a>
</g>
</g>
<!-- Node2&#45;&gt;Node28 -->
<g id="edge40" class="edge">
<title>Node2&#45;&gt;Node28</title>
<path fill="none" stroke="#191970" d="M589.9991,-399.4408C571.2518,-390.461 543.5684,-377.2008 522.4021,-367.0624"/>
<polygon fill="#191970" stroke="#191970" points="523.722,-363.8138 513.1912,-362.6504 520.698,-370.127 523.722,-363.8138"/>
</g>
<!-- Node4 -->
<g id="node4" class="node">
<title>Node4</title>
<g id="a_node4"><a xlink:href="../../df/de9/G4ios_8hh.html" target="_top" xlink:title="G4ios.hh">
<polygon fill="none" stroke="#000000" points="641.5,-171.5 641.5,-191.5 702.5,-191.5 702.5,-171.5 641.5,-171.5"/>
<text text-anchor="middle" x="672" y="-178.5" font-family="FreeSans" font-size="10.00" fill="#000000">G4ios.hh</text>
</a>
</g>
</g>
<!-- Node3&#45;&gt;Node4 -->
<g id="edge3" class="edge">
<title>Node3&#45;&gt;Node4</title>
<path fill="none" stroke="#191970" d="M663.268,-343.5897C705.2822,-330.6177 774.6387,-302.0765 805,-249 809.6343,-240.8985 810.4019,-235.6112 805,-228 799.387,-220.0913 749.687,-204.1361 712.6772,-193.1389"/>
<polygon fill="#191970" stroke="#191970" points="713.2036,-189.6455 702.6222,-190.1794 711.2271,-196.3606 713.2036,-189.6455"/>
</g>
<!-- Node5 -->
<g id="node5" class="node">
<title>Node5</title>
<g id="a_node5"><a xlink:href="../../de/d29/G4Types_8hh.html" target="_top" xlink:title="G4Types.hh">
<polygon fill="none" stroke="#000000" points="678.5,-114.5 678.5,-134.5 753.5,-134.5 753.5,-114.5 678.5,-114.5"/>
<text text-anchor="middle" x="716" y="-121.5" font-family="FreeSans" font-size="10.00" fill="#000000">G4Types.hh</text>
</a>
</g>
</g>
<!-- Node3&#45;&gt;Node5 -->
<g id="edge11" class="edge">
<title>Node3&#45;&gt;Node5</title>
<path fill="none" stroke="#191970" d="M663.1723,-347.3125C694.5823,-341.3018 741.3821,-329.1102 776,-306 831.0906,-269.2226 849.2903,-254.224 872,-192 875.1999,-183.2323 877.578,-178.4831 872,-171 858.921,-153.4537 804.5708,-140.1187 763.673,-132.3214"/>
<polygon fill="#191970" stroke="#191970" points="764.068,-128.8352 753.5984,-130.4592 762.7956,-135.7186 764.068,-128.8352"/>
</g>
<!-- Node10 -->
<g id="node10" class="node">
<title>Node10</title>
<polygon fill="none" stroke="#bfbfbf" points="204.5,-285.5 204.5,-305.5 269.5,-305.5 269.5,-285.5 204.5,-285.5"/>
<text text-anchor="middle" x="237" y="-292.5" font-family="FreeSans" font-size="10.00" fill="#000000">algorithm</text>
</g>
<!-- Node3&#45;&gt;Node10 -->
<g id="edge10" class="edge">
<title>Node3&#45;&gt;Node10</title>
<path fill="none" stroke="#191970" d="M594.8135,-343.7497C591.8423,-343.1116 588.8741,-342.5168 586,-342 453.5342,-318.1788 415.2877,-330.5387 279.5314,-306.0909"/>
<polygon fill="#191970" stroke="#191970" points="280.0533,-302.6283 269.5858,-304.266 278.7899,-309.5134 280.0533,-302.6283"/>
</g>
<!-- Node11 -->
<g id="node11" class="node">
<title>Node11</title>
<g id="a_node11"><a xlink:href="../../d2/df2/source_2global_2management_2include_2G4String_8hh.html" target="_top" xlink:title="G4String.hh">
<polygon fill="none" stroke="#000000" points="151,-171.5 151,-191.5 227,-191.5 227,-171.5 151,-171.5"/>
<text text-anchor="middle" x="189" y="-178.5" font-family="FreeSans" font-size="10.00" fill="#000000">G4String.hh</text>
</a>
</g>
</g>
<!-- Node3&#45;&gt;Node11 -->
<g id="edge12" class="edge">
<title>Node3&#45;&gt;Node11</title>
<path fill="none" stroke="#191970" d="M594.8268,-343.6729C591.8528,-343.0515 588.8802,-342.4815 586,-342 413.8762,-313.2229 363.7883,-350.331 195,-306 135.1606,-290.2836 101.6185,-300.9379 68,-249 47.2472,-216.9386 98.7788,-198.6824 140.9156,-189.4398"/>
<polygon fill="#191970" stroke="#191970" points="141.7437,-192.8427 150.8266,-187.3882 140.3247,-185.988 141.7437,-192.8427"/>
</g>
<!-- Node16 -->
<g id="node16" class="node">
<title>Node16</title>
<g id="a_node16"><a xlink:href="../../d2/d54/templates_8hh.html" target="_top" xlink:title="templates.hh">
<polygon fill="none" stroke="#000000" points="287.5,-285.5 287.5,-305.5 370.5,-305.5 370.5,-285.5 287.5,-285.5"/>
<text text-anchor="middle" x="329" y="-292.5" font-family="FreeSans" font-size="10.00" fill="#000000">templates.hh</text>
</a>
</g>
</g>
<!-- Node3&#45;&gt;Node16 -->
<g id="edge19" class="edge">
<title>Node3&#45;&gt;Node16</title>
<path fill="none" stroke="#191970" d="M594.7752,-343.945C591.8124,-343.2644 588.8565,-342.6066 586,-342 515.1038,-326.9447 432.5466,-312.5615 380.5303,-303.8807"/>
<polygon fill="#191970" stroke="#191970" points="380.9851,-300.4083 370.5467,-302.222 379.8378,-307.3137 380.9851,-300.4083"/>
</g>
<!-- Node19 -->
<g id="node19" class="node">
<title>Node19</title>
<g id="a_node19"><a xlink:href="../../d5/d4f/G4Exception_8hh.html" target="_top" xlink:title="G4Exception.hh">
<polygon fill="none" stroke="#000000" points="700,-228.5 700,-248.5 796,-248.5 796,-228.5 700,-228.5"/>
<text text-anchor="middle" x="748" y="-235.5" font-family="FreeSans" font-size="10.00" fill="#000000">G4Exception.hh</text>
</a>
</g>
</g>
<!-- Node3&#45;&gt;Node19 -->
<g id="edge22" class="edge">
<title>Node3&#45;&gt;Node19</title>
<path fill="none" stroke="#191970" d="M639.5605,-342.3833C659.8861,-322.9116 704.659,-280.02 729.8552,-255.8824"/>
<polygon fill="#191970" stroke="#191970" points="732.4922,-258.2031 737.2921,-248.7579 727.6498,-253.1483 732.4922,-258.2031"/>
</g>
<!-- Node22 -->
<g id="node22" class="node">
<title>Node22</title>
<g id="a_node22"><a xlink:href="../../dc/d3a/G4EnvironmentUtils_8hh.html" target="_top" xlink:title="G4EnvironmentUtils.hh">
<polygon fill="none" stroke="#000000" points="479.5,-285.5 479.5,-305.5 612.5,-305.5 612.5,-285.5 479.5,-285.5"/>
<text text-anchor="middle" x="546" y="-292.5" font-family="FreeSans" font-size="10.00" fill="#000000">G4EnvironmentUtils.hh</text>
</a>
</g>
</g>
<!-- Node3&#45;&gt;Node22 -->
<g id="edge28" class="edge">
<title>Node3&#45;&gt;Node22</title>
<path fill="none" stroke="#191970" d="M614.1613,-342.3095C601.6503,-333.7177 583.5331,-321.2758 569.1215,-311.3786"/>
<polygon fill="#191970" stroke="#191970" points="570.935,-308.3782 560.7103,-305.6022 566.9722,-314.1485 570.935,-308.3782"/>
</g>
<!-- Node4&#45;&gt;Node5 -->
<g id="edge4" class="edge">
<title>Node4&#45;&gt;Node5</title>
<path fill="none" stroke="#191970" d="M679.8663,-171.3095C685.9981,-163.3661 694.6701,-152.1319 701.9816,-142.6602"/>
<polygon fill="#191970" stroke="#191970" points="704.8618,-144.6569 708.2018,-134.6022 699.3207,-140.3795 704.8618,-144.6569"/>
</g>
<!-- Node9 -->
<g id="node9" class="node">
<title>Node9</title>
<polygon fill="none" stroke="#bfbfbf" points="583,-114.5 583,-134.5 643,-134.5 643,-114.5 583,-114.5"/>
<text text-anchor="middle" x="613" y="-121.5" font-family="FreeSans" font-size="10.00" fill="#000000">iostream</text>
</g>
<!-- Node4&#45;&gt;Node9 -->
<g id="edge9" class="edge">
<title>Node4&#45;&gt;Node9</title>
<path fill="none" stroke="#191970" d="M661.452,-171.3095C652.9781,-163.1229 640.8863,-151.441 630.9023,-141.7955"/>
<polygon fill="#191970" stroke="#191970" points="633.0805,-139.0332 623.4567,-134.6022 628.2168,-144.0676 633.0805,-139.0332"/>
</g>
<!-- Node6 -->
<g id="node6" class="node">
<title>Node6</title>
<polygon fill="none" stroke="#bfbfbf" points="654.5,-.5 654.5,-20.5 765.5,-20.5 765.5,-.5 654.5,-.5"/>
<text text-anchor="middle" x="710" y="-7.5" font-family="FreeSans" font-size="10.00" fill="#000000">G4GlobalConfig.hh</text>
</g>
<!-- Node5&#45;&gt;Node6 -->
<g id="edge5" class="edge">
<title>Node5&#45;&gt;Node6</title>
<path fill="none" stroke="#191970" d="M728.3525,-114.4082C742.461,-101.5736 762.5558,-78.4903 754,-57 749.4047,-45.4576 740.4334,-35.1294 731.7838,-27.1557"/>
<polygon fill="#191970" stroke="#191970" points="733.9323,-24.3873 724.0654,-20.5276 729.3718,-29.6979 733.9323,-24.3873"/>
</g>
<!-- Node7 -->
<g id="node7" class="node">
<title>Node7</title>
<polygon fill="none" stroke="#bfbfbf" points="686.5,-57.5 686.5,-77.5 745.5,-77.5 745.5,-57.5 686.5,-57.5"/>
<text text-anchor="middle" x="716" y="-64.5" font-family="FreeSans" font-size="10.00" fill="#000000">complex</text>
</g>
<!-- Node5&#45;&gt;Node7 -->
<g id="edge6" class="edge">
<title>Node5&#45;&gt;Node7</title>
<path fill="none" stroke="#191970" d="M716,-114.3095C716,-106.9335 716,-96.72 716,-87.715"/>
<polygon fill="#191970" stroke="#191970" points="719.5001,-87.6022 716,-77.6022 712.5001,-87.6023 719.5001,-87.6022"/>
</g>
<!-- Node8 -->
<g id="node8" class="node">
<title>Node8</title>
<g id="a_node8"><a xlink:href="../../d0/d00/tls_8hh.html" target="_top" xlink:title="tls.hh">
<polygon fill="none" stroke="#000000" points="624,-57.5 624,-77.5 668,-77.5 668,-57.5 624,-57.5"/>
<text text-anchor="middle" x="646" y="-64.5" font-family="FreeSans" font-size="10.00" fill="#000000">tls.hh</text>
</a>
</g>
</g>
<!-- Node5&#45;&gt;Node8 -->
<g id="edge7" class="edge">
<title>Node5&#45;&gt;Node8</title>
<path fill="none" stroke="#191970" d="M703.4854,-114.3095C693.1331,-105.8798 678.2294,-93.7439 666.1913,-83.9415"/>
<polygon fill="#191970" stroke="#191970" points="668.3706,-81.2025 658.4063,-77.6022 663.9506,-86.6306 668.3706,-81.2025"/>
</g>
<!-- Node8&#45;&gt;Node6 -->
<g id="edge8" class="edge">
<title>Node8&#45;&gt;Node6</title>
<path fill="none" stroke="#191970" d="M657.4419,-57.3095C666.7249,-49.0419 680.0106,-37.2093 690.9015,-27.5096"/>
<polygon fill="#191970" stroke="#191970" points="693.5173,-29.8668 698.6571,-20.6022 688.8616,-24.6395 693.5173,-29.8668"/>
</g>
<!-- Node11&#45;&gt;Node5 -->
<g id="edge16" class="edge">
<title>Node11&#45;&gt;Node5</title>
<path fill="none" stroke="#191970" d="M227.2054,-178.4768C306.5352,-172.0203 494.8227,-155.7656 652,-135 657.372,-134.2903 662.986,-133.4763 668.5612,-132.6224"/>
<polygon fill="#191970" stroke="#191970" points="669.1611,-136.0711 678.4939,-131.0561 668.0707,-129.1566 669.1611,-136.0711"/>
</g>
<!-- Node11&#45;&gt;Node9 -->
<g id="edge17" class="edge">
<title>Node11&#45;&gt;Node9</title>
<path fill="none" stroke="#191970" d="M227.0003,-176.3915C306.6604,-165.6824 490.5262,-140.9646 572.3992,-129.9581"/>
<polygon fill="#191970" stroke="#191970" points="573.3471,-133.3623 582.7915,-128.561 572.4144,-126.4247 573.3471,-133.3623"/>
</g>
<!-- Node12 -->
<g id="node12" class="node">
<title>Node12</title>
<polygon fill="none" stroke="#bfbfbf" points="96,-114.5 96,-134.5 146,-134.5 146,-114.5 96,-114.5"/>
<text text-anchor="middle" x="121" y="-121.5" font-family="FreeSans" font-size="10.00" fill="#000000">stdio.h</text>
</g>
<!-- Node11&#45;&gt;Node12 -->
<g id="edge13" class="edge">
<title>Node11&#45;&gt;Node12</title>
<path fill="none" stroke="#191970" d="M176.843,-171.3095C166.8831,-162.9608 152.5865,-150.9769 140.9525,-141.2249"/>
<polygon fill="#191970" stroke="#191970" points="142.9639,-138.344 133.0518,-134.6022 138.4671,-143.7086 142.9639,-138.344"/>
</g>
<!-- Node13 -->
<g id="node13" class="node">
<title>Node13</title>
<polygon fill="none" stroke="#bfbfbf" points="232.5,-114.5 232.5,-134.5 277.5,-134.5 277.5,-114.5 232.5,-114.5"/>
<text text-anchor="middle" x="255" y="-121.5" font-family="FreeSans" font-size="10.00" fill="#000000">string</text>
</g>
<!-- Node11&#45;&gt;Node13 -->
<g id="edge14" class="edge">
<title>Node11&#45;&gt;Node13</title>
<path fill="none" stroke="#191970" d="M200.7995,-171.3095C210.4664,-162.9608 224.3425,-150.9769 235.6343,-141.2249"/>
<polygon fill="#191970" stroke="#191970" points="238.0221,-143.7874 243.3027,-134.6022 233.4467,-138.4896 238.0221,-143.7874"/>
</g>
<!-- Node14 -->
<g id="node14" class="node">
<title>Node14</title>
<polygon fill="none" stroke="#bfbfbf" points="164,-114.5 164,-134.5 214,-134.5 214,-114.5 164,-114.5"/>
<text text-anchor="middle" x="189" y="-121.5" font-family="FreeSans" font-size="10.00" fill="#000000">cstring</text>
</g>
<!-- Node11&#45;&gt;Node14 -->
<g id="edge15" class="edge">
<title>Node11&#45;&gt;Node14</title>
<path fill="none" stroke="#191970" d="M189,-171.3095C189,-163.9335 189,-153.72 189,-144.715"/>
<polygon fill="#191970" stroke="#191970" points="192.5001,-144.6022 189,-134.6022 185.5001,-144.6023 192.5001,-144.6022"/>
</g>
<!-- Node15 -->
<g id="node15" class="node">
<title>Node15</title>
<polygon fill="none" stroke="#bfbfbf" points="0,-114.5 0,-134.5 78,-134.5 78,-114.5 0,-114.5"/>
<text text-anchor="middle" x="39" y="-121.5" font-family="FreeSans" font-size="10.00" fill="#000000">G4String.icc</text>
</g>
<!-- Node11&#45;&gt;Node15 -->
<g id="edge18" class="edge">
<title>Node11&#45;&gt;Node15</title>
<path fill="none" stroke="#191970" d="M162.5283,-171.4408C138.1837,-162.1898 101.8844,-148.3961 74.9281,-138.1527"/>
<polygon fill="#191970" stroke="#191970" points="76.05,-134.8349 65.4589,-134.5544 73.5635,-141.3784 76.05,-134.8349"/>
</g>
<!-- Node17 -->
<g id="node17" class="node">
<title>Node17</title>
<polygon fill="none" stroke="#bfbfbf" points="145,-228.5 145,-248.5 189,-248.5 189,-228.5 145,-228.5"/>
<text text-anchor="middle" x="167" y="-235.5" font-family="FreeSans" font-size="10.00" fill="#000000">limits</text>
</g>
<!-- Node16&#45;&gt;Node17 -->
<g id="edge20" class="edge">
<title>Node16&#45;&gt;Node17</title>
<path fill="none" stroke="#191970" d="M300.4106,-285.4408C271.9717,-275.4345 228.4275,-260.1134 198.8857,-249.719"/>
<polygon fill="#191970" stroke="#191970" points="199.6629,-246.2822 189.0681,-246.2647 197.3395,-252.8854 199.6629,-246.2822"/>
</g>
<!-- Node18 -->
<g id="node18" class="node">
<title>Node18</title>
<polygon fill="none" stroke="#bfbfbf" points="77.5,-228.5 77.5,-248.5 126.5,-248.5 126.5,-228.5 77.5,-228.5"/>
<text text-anchor="middle" x="102" y="-235.5" font-family="FreeSans" font-size="10.00" fill="#000000">climits</text>
</g>
<!-- Node16&#45;&gt;Node18 -->
<g id="edge21" class="edge">
<title>Node16&#45;&gt;Node18</title>
<path fill="none" stroke="#191970" d="M287.3929,-286.2742C250.2423,-277.858 194.1514,-264.7145 136.4739,-249.0119"/>
<polygon fill="#191970" stroke="#191970" points="137.3991,-245.6365 126.8294,-246.366 135.547,-252.3871 137.3991,-245.6365"/>
</g>
<!-- Node19&#45;&gt;Node4 -->
<g id="edge23" class="edge">
<title>Node19&#45;&gt;Node4</title>
<path fill="none" stroke="#191970" d="M734.4127,-228.3095C723.065,-219.7987 706.6802,-207.5102 693.5458,-197.6594"/>
<polygon fill="#191970" stroke="#191970" points="695.5697,-194.8023 685.4696,-191.6022 691.3697,-200.4023 695.5697,-194.8023"/>
</g>
<!-- Node19&#45;&gt;Node11 -->
<g id="edge24" class="edge">
<title>Node19&#45;&gt;Node11</title>
<path fill="none" stroke="#191970" d="M699.8562,-233.5909C594.1342,-222.8106 342.709,-197.1734 237.0622,-186.4008"/>
<polygon fill="#191970" stroke="#191970" points="237.3073,-182.9077 227.0038,-185.3752 236.5972,-189.8716 237.3073,-182.9077"/>
</g>
<!-- Node20 -->
<g id="node20" class="node">
<title>Node20</title>
<g id="a_node20"><a xlink:href="../../d9/d05/G4VExceptionHandler_8hh.html" target="_top" xlink:title="G4VExceptionHandler.hh">
<polygon fill="none" stroke="#000000" points="721,-171.5 721,-191.5 863,-191.5 863,-171.5 721,-171.5"/>
<text text-anchor="middle" x="792" y="-178.5" font-family="FreeSans" font-size="10.00" fill="#000000">G4VExceptionHandler.hh</text>
</a>
</g>
</g>
<!-- Node19&#45;&gt;Node20 -->
<g id="edge25" class="edge">
<title>Node19&#45;&gt;Node20</title>
<path fill="none" stroke="#191970" d="M755.8663,-228.3095C761.9981,-220.3661 770.6701,-209.1319 777.9816,-199.6602"/>
<polygon fill="#191970" stroke="#191970" points="780.8618,-201.6569 784.2018,-191.6022 775.3207,-197.3795 780.8618,-201.6569"/>
</g>
<!-- Node20&#45;&gt;Node5 -->
<g id="edge26" class="edge">
<title>Node20&#45;&gt;Node5</title>
<path fill="none" stroke="#191970" d="M778.4127,-171.3095C767.065,-162.7987 750.6802,-150.5102 737.5458,-140.6594"/>
<polygon fill="#191970" stroke="#191970" points="739.5697,-137.8023 729.4696,-134.6022 735.3697,-143.4023 739.5697,-137.8023"/>
</g>
<!-- Node21 -->
<g id="node21" class="node">
<title>Node21</title>
<g id="a_node21"><a xlink:href="../../d6/d7e/G4ExceptionSeverity_8hh.html" target="_top" xlink:title="G4ExceptionSeverity.hh">
<polygon fill="none" stroke="#000000" points="806,-114.5 806,-134.5 942,-134.5 942,-114.5 806,-114.5"/>
<text text-anchor="middle" x="874" y="-121.5" font-family="FreeSans" font-size="10.00" fill="#000000">G4ExceptionSeverity.hh</text>
</a>
</g>
</g>
<!-- Node20&#45;&gt;Node21 -->
<g id="edge27" class="edge">
<title>Node20&#45;&gt;Node21</title>
<path fill="none" stroke="#191970" d="M806.66,-171.3095C819.0202,-162.7177 836.9191,-150.2758 851.1571,-140.3786"/>
<polygon fill="#191970" stroke="#191970" points="853.2536,-143.1839 859.467,-134.6022 849.2581,-137.4361 853.2536,-143.1839"/>
</g>
<!-- Node22&#45;&gt;Node4 -->
<g id="edge36" class="edge">
<title>Node22&#45;&gt;Node4</title>
<path fill="none" stroke="#191970" d="M586.1255,-285.43C607.0479,-278.3409 631.6203,-266.8547 648,-249 659.9261,-236 666.0042,-216.6834 669.0536,-202.041"/>
<polygon fill="#191970" stroke="#191970" points="672.5454,-202.3939 670.8417,-191.937 665.6525,-201.174 672.5454,-202.3939"/>
</g>
<!-- Node22&#45;&gt;Node9 -->
<g id="edge33" class="edge">
<title>Node22&#45;&gt;Node9</title>
<path fill="none" stroke="#191970" d="M572.2305,-285.3585C587.7053,-277.8502 605.9768,-265.9618 615,-249 632.6783,-215.7684 625.3826,-170.1449 618.9077,-144.3611"/>
<polygon fill="#191970" stroke="#191970" points="622.26,-143.3504 616.2582,-134.6195 615.5054,-145.1875 622.26,-143.3504"/>
</g>
<!-- Node22&#45;&gt;Node11 -->
<g id="edge37" class="edge">
<title>Node22&#45;&gt;Node11</title>
<path fill="none" stroke="#191970" d="M479.483,-291.1396C402.2054,-285.0825 280.2747,-272.1618 241,-249 221.7952,-237.6742 207.1796,-216.2875 198.4062,-200.6123"/>
<polygon fill="#191970" stroke="#191970" points="201.4786,-198.9352 193.7097,-191.7313 195.2906,-202.2076 201.4786,-198.9352"/>
</g>
<!-- Node22&#45;&gt;Node13 -->
<g id="edge30" class="edge">
<title>Node22&#45;&gt;Node13</title>
<path fill="none" stroke="#191970" d="M479.4363,-292.837C408.28,-288.5309 301.9063,-277.4097 274,-249 246.7975,-221.3068 248.1873,-172.1454 251.5945,-144.6119"/>
<polygon fill="#191970" stroke="#191970" points="255.0784,-144.9743 253.0482,-134.5758 248.1507,-143.9708 255.0784,-144.9743"/>
</g>
<!-- Node22&#45;&gt;Node19 -->
<g id="edge38" class="edge">
<title>Node22&#45;&gt;Node19</title>
<path fill="none" stroke="#191970" d="M581.6486,-285.4408C615.2954,-275.9464 665.8996,-261.6669 702.4561,-251.3515"/>
<polygon fill="#191970" stroke="#191970" points="703.695,-254.6387 712.3687,-248.5544 701.7939,-247.9017 703.695,-254.6387"/>
</g>
<!-- Node22&#45;&gt;Node21 -->
<g id="edge39" class="edge">
<title>Node22&#45;&gt;Node21</title>
<path fill="none" stroke="#191970" d="M612.7917,-287.5311C677.8797,-279.0494 771.7472,-264.707 805,-249 840.3507,-232.302 855.074,-227.2421 872,-192 879.0488,-177.3234 879.0385,-158.7061 877.5536,-144.7427"/>
<polygon fill="#191970" stroke="#191970" points="881.0017,-144.1267 876.1533,-134.7063 874.0688,-145.094 881.0017,-144.1267"/>
</g>
<!-- Node23 -->
<g id="node23" class="node">
<title>Node23</title>
<polygon fill="none" stroke="#bfbfbf" points="283,-228.5 283,-248.5 333,-248.5 333,-228.5 283,-228.5"/>
<text text-anchor="middle" x="308" y="-235.5" font-family="FreeSans" font-size="10.00" fill="#000000">cstdlib</text>
</g>
<!-- Node22&#45;&gt;Node23 -->
<g id="edge29" class="edge">
<title>Node22&#45;&gt;Node23</title>
<path fill="none" stroke="#191970" d="M497.1082,-285.4392C457.8104,-277.1079 401.0092,-264.5185 342.9033,-249.1102"/>
<polygon fill="#191970" stroke="#191970" points="343.7545,-245.7149 333.1896,-246.5109 341.945,-252.477 343.7545,-245.7149"/>
</g>
<!-- Node24 -->
<g id="node24" class="node">
<title>Node24</title>
<polygon fill="none" stroke="#bfbfbf" points="351,-228.5 351,-248.5 407,-248.5 407,-228.5 351,-228.5"/>
<text text-anchor="middle" x="379" y="-235.5" font-family="FreeSans" font-size="10.00" fill="#000000">sstream</text>
</g>
<!-- Node22&#45;&gt;Node24 -->
<g id="edge31" class="edge">
<title>Node22&#45;&gt;Node24</title>
<path fill="none" stroke="#191970" d="M516.5282,-285.4408C488.7661,-275.9651 447.0401,-261.7233 416.8316,-251.4126"/>
<polygon fill="#191970" stroke="#191970" points="417.6598,-247.9971 407.0653,-248.0792 415.3986,-254.6218 417.6598,-247.9971"/>
</g>
<!-- Node25 -->
<g id="node25" class="node">
<title>Node25</title>
<polygon fill="none" stroke="#bfbfbf" points="425.5,-228.5 425.5,-248.5 464.5,-248.5 464.5,-228.5 425.5,-228.5"/>
<text text-anchor="middle" x="445" y="-235.5" font-family="FreeSans" font-size="10.00" fill="#000000">map</text>
</g>
<!-- Node22&#45;&gt;Node25 -->
<g id="edge32" class="edge">
<title>Node22&#45;&gt;Node25</title>
<path fill="none" stroke="#191970" d="M527.9432,-285.3095C512.2881,-276.4745 489.4195,-263.5684 471.6579,-253.5445"/>
<polygon fill="#191970" stroke="#191970" points="473.3295,-250.4691 462.9004,-248.6022 469.8891,-256.5653 473.3295,-250.4691"/>
</g>
<!-- Node26 -->
<g id="node26" class="node">
<title>Node26</title>
<polygon fill="none" stroke="#bfbfbf" points="482.5,-228.5 482.5,-248.5 539.5,-248.5 539.5,-228.5 482.5,-228.5"/>
<text text-anchor="middle" x="511" y="-235.5" font-family="FreeSans" font-size="10.00" fill="#000000">iomanip</text>
</g>
<!-- Node22&#45;&gt;Node26 -->
<g id="edge34" class="edge">
<title>Node22&#45;&gt;Node26</title>
<path fill="none" stroke="#191970" d="M539.7427,-285.3095C534.9647,-277.5282 528.2477,-266.589 522.5084,-257.2423"/>
<polygon fill="#191970" stroke="#191970" points="525.4184,-255.2925 517.2031,-248.6022 519.4532,-258.9554 525.4184,-255.2925"/>
</g>
<!-- Node27 -->
<g id="node27" class="node">
<title>Node27</title>
<polygon fill="none" stroke="#bfbfbf" points="558,-228.5 558,-248.5 606,-248.5 606,-228.5 558,-228.5"/>
<text text-anchor="middle" x="582" y="-235.5" font-family="FreeSans" font-size="10.00" fill="#000000">mutex</text>
</g>
<!-- Node22&#45;&gt;Node27 -->
<g id="edge35" class="edge">
<title>Node22&#45;&gt;Node27</title>
<path fill="none" stroke="#191970" d="M552.4361,-285.3095C557.3506,-277.5282 564.2596,-266.589 570.1628,-257.2423"/>
<polygon fill="#191970" stroke="#191970" points="573.2389,-258.9261 575.6196,-248.6022 567.3204,-255.1881 573.2389,-258.9261"/>
</g>
<!-- Node30 -->
<g id="node30" class="node">
<title>Node30</title>
<g id="a_node30"><a xlink:href="../../da/d51/G4VUserPrimaryGeneratorAction_8hh.html" target="_top" xlink:title="G4VUserPrimaryGeneratorAction.hh">
<polygon fill="none" stroke="#000000" points="862,-342.5 862,-362.5 1060,-362.5 1060,-342.5 862,-342.5"/>
<text text-anchor="middle" x="961" y="-349.5" font-family="FreeSans" font-size="10.00" fill="#000000">G4VUserPrimaryGeneratorAction.hh</text>
</a>
</g>
</g>
<!-- Node29&#45;&gt;Node30 -->
<g id="edge42" class="edge">
<title>Node29&#45;&gt;Node30</title>
<path fill="none" stroke="#191970" d="M954.4302,-399.3095C955.4655,-391.9335 956.899,-381.72 958.1628,-372.715"/>
<polygon fill="#191970" stroke="#191970" points="961.6582,-372.9917 959.5821,-362.6022 954.7261,-372.0187 961.6582,-372.9917"/>
</g>
<!-- Node31&#45;&gt;Node3 -->
<g id="edge44" class="edge">
<title>Node31&#45;&gt;Node3</title>
<path fill="none" stroke="#191970" d="M745.9401,-399.4408C723.0656,-390.2587 689.0419,-376.6013 663.5836,-366.3822"/>
<polygon fill="#191970" stroke="#191970" points="664.8711,-363.1276 654.287,-362.6504 662.2634,-369.6237 664.8711,-363.1276"/>
</g>
<!-- Node32 -->
<g id="node32" class="node">
<title>Node32</title>
<g id="a_node32"><a xlink:href="../../dd/d48/G4UserStackingAction_8hh.html" target="_top" xlink:title="G4UserStackingAction.hh">
<polygon fill="none" stroke="#000000" points="698.5,-342.5 698.5,-362.5 843.5,-362.5 843.5,-342.5 698.5,-342.5"/>
<text text-anchor="middle" x="771" y="-349.5" font-family="FreeSans" font-size="10.00" fill="#000000">G4UserStackingAction.hh</text>
</a>
</g>
</g>
<!-- Node31&#45;&gt;Node32 -->
<g id="edge45" class="edge">
<title>Node31&#45;&gt;Node32</title>
<path fill="none" stroke="#191970" d="M771,-399.3095C771,-391.9335 771,-381.72 771,-372.715"/>
<polygon fill="#191970" stroke="#191970" points="774.5001,-372.6022 771,-362.6022 767.5001,-372.6023 774.5001,-372.6022"/>
</g>
<!-- Node33 -->
<g id="node33" class="node">
<title>Node33</title>
<g id="a_node33"><a xlink:href="../../d1/dec/G4ClassificationOfNewTrack_8hh.html" target="_top" xlink:title="G4ClassificationOfNewTrack.hh">
<polygon fill="none" stroke="#000000" points="957.5,-285.5 957.5,-305.5 1130.5,-305.5 1130.5,-285.5 957.5,-285.5"/>
<text text-anchor="middle" x="1044" y="-292.5" font-family="FreeSans" font-size="10.00" fill="#000000">G4ClassificationOfNewTrack.hh</text>
</a>
</g>
</g>
<!-- Node32&#45;&gt;Node33 -->
<g id="edge46" class="edge">
<title>Node32&#45;&gt;Node33</title>
<path fill="none" stroke="#191970" d="M819.1785,-342.4408C865.7205,-332.7232 936.2701,-317.9931 985.8998,-307.6308"/>
<polygon fill="#191970" stroke="#191970" points="986.7712,-311.0244 995.8448,-305.5544 985.3405,-304.1722 986.7712,-311.0244"/>
</g>
</g>
</svg>
