<?xml version="1.0" encoding="UTF-8" standalone="no"?>
<!DOCTYPE svg PUBLIC "-//W3C//DTD SVG 1.1//EN"
 "http://www.w3.org/Graphics/SVG/1.1/DTD/svg11.dtd">
<!-- Generated by graphviz version 2.40.1 (20161225.0304)
 -->
<!-- Title: geant4/tree/geant4&#45;10.6&#45;release/source/processes/hadronic/models/im_r_matrix/src/G4BaryonWidth.cc Pages: 1 -->
<svg width="1441pt" height="578pt"
 viewBox="0.00 0.00 1441.16 578.00" xmlns="http://www.w3.org/2000/svg" xmlns:xlink="http://www.w3.org/1999/xlink">
<g id="graph0" class="graph" transform="scale(1 1) rotate(0) translate(4 574)">
<title>geant4/tree/geant4&#45;10.6&#45;release/source/processes/hadronic/models/im_r_matrix/src/G4BaryonWidth.cc</title>
<!-- Node1 -->
<g id="node1" class="node">
<title>Node1</title>
<polygon fill="#bfbfbf" stroke="#000000" points="594.5,-513.5 594.5,-569.5 789.5,-569.5 789.5,-513.5 594.5,-513.5"/>
<text text-anchor="start" x="602.5" y="-556.5" font-family="FreeSans" font-size="10.00" fill="#000000">geant4/tree/geant4</text>
<text text-anchor="start" x="602.5" y="-544.5" font-family="FreeSans" font-size="10.00" fill="#000000">&#45;10.6&#45;release/source</text>
<text text-anchor="start" x="602.5" y="-532.5" font-family="FreeSans" font-size="10.00" fill="#000000">/processes/hadronic/models</text>
<text text-anchor="middle" x="692" y="-520.5" font-family="FreeSans" font-size="10.00" fill="#000000">/im_r_matrix/src/G4BaryonWidth.cc</text>
</g>
<!-- Node2 -->
<g id="node2" class="node">
<title>Node2</title>
<g id="a_node2"><a xlink:href="../../da/d46/globals_8hh.html" target="_top" xlink:title="globals.hh">
<polygon fill="none" stroke="#000000" points="623,-342.5 623,-362.5 691,-362.5 691,-342.5 623,-342.5"/>
<text text-anchor="middle" x="657" y="-349.5" font-family="FreeSans" font-size="10.00" fill="#000000">globals.hh</text>
</a>
</g>
</g>
<!-- Node1&#45;&gt;Node2 -->
<g id="edge1" class="edge">
<title>Node1&#45;&gt;Node2</title>
<path fill="none" stroke="#191970" d="M686.7601,-513.2048C679.6327,-474.7168 667.0527,-406.7848 660.7787,-372.905"/>
<polygon fill="#191970" stroke="#191970" points="664.1722,-372.008 658.9097,-362.8125 657.2892,-373.2827 664.1722,-372.008"/>
</g>
<!-- Node27 -->
<g id="node27" class="node">
<title>Node27</title>
<g id="a_node27"><a xlink:href="../../da/d91/G4SystemOfUnits_8hh.html" target="_top" xlink:title="G4SystemOfUnits.hh">
<polygon fill="none" stroke="#000000" points="220.5,-456.5 220.5,-476.5 341.5,-476.5 341.5,-456.5 220.5,-456.5"/>
<text text-anchor="middle" x="281" y="-463.5" font-family="FreeSans" font-size="10.00" fill="#000000">G4SystemOfUnits.hh</text>
</a>
</g>
</g>
<!-- Node1&#45;&gt;Node27 -->
<g id="edge39" class="edge">
<title>Node1&#45;&gt;Node27</title>
<path fill="none" stroke="#191970" d="M594.3382,-523.6785C517.5614,-509.6681 412.7635,-490.5444 345.9742,-478.3566"/>
<polygon fill="#191970" stroke="#191970" points="346.4637,-474.8882 335.9978,-476.5361 345.207,-481.7745 346.4637,-474.8882"/>
</g>
<!-- Node29 -->
<g id="node29" class="node">
<title>Node29</title>
<g id="a_node29"><a xlink:href="../../d2/dfa/G4BaryonWidth_8hh.html" target="_top" xlink:title="G4BaryonWidth.hh">
<polygon fill="none" stroke="#000000" points="552,-456.5 552,-476.5 664,-476.5 664,-456.5 552,-456.5"/>
<text text-anchor="middle" x="608" y="-463.5" font-family="FreeSans" font-size="10.00" fill="#000000">G4BaryonWidth.hh</text>
</a>
</g>
</g>
<!-- Node1&#45;&gt;Node29 -->
<g id="edge41" class="edge">
<title>Node1&#45;&gt;Node29</title>
<path fill="none" stroke="#191970" d="M660.2432,-513.1457C649.0639,-503.1642 636.8534,-492.2619 627.0501,-483.509"/>
<polygon fill="#191970" stroke="#191970" points="629.2476,-480.779 619.4571,-476.7296 624.5854,-486.0005 629.2476,-480.779"/>
</g>
<!-- Node32 -->
<g id="node32" class="node">
<title>Node32</title>
<g id="a_node32"><a xlink:href="../../d1/d6f/G4PhysicsVector_8hh.html" target="_top" xlink:title="G4PhysicsVector.hh">
<polygon fill="none" stroke="#000000" points="981.5,-399.5 981.5,-419.5 1096.5,-419.5 1096.5,-399.5 981.5,-399.5"/>
<text text-anchor="middle" x="1039" y="-406.5" font-family="FreeSans" font-size="10.00" fill="#000000">G4PhysicsVector.hh</text>
</a>
</g>
</g>
<!-- Node1&#45;&gt;Node32 -->
<g id="edge48" class="edge">
<title>Node1&#45;&gt;Node32</title>
<path fill="none" stroke="#191970" d="M774.773,-513.341C806.2799,-502.357 842.4271,-489.4341 875,-477 920.7498,-459.5359 972.9546,-437.7179 1005.9349,-423.6968"/>
<polygon fill="#191970" stroke="#191970" points="1007.6978,-426.7501 1015.5246,-419.6092 1004.953,-420.3107 1007.6978,-426.7501"/>
</g>
<!-- Node38 -->
<g id="node38" class="node">
<title>Node38</title>
<g id="a_node38"><a xlink:href="../../d2/d11/G4PhysicsFreeVector_8hh.html" target="_top" xlink:title="G4PhysicsFreeVector.hh">
<polygon fill="none" stroke="#000000" points="730,-456.5 730,-476.5 866,-476.5 866,-456.5 730,-456.5"/>
<text text-anchor="middle" x="798" y="-463.5" font-family="FreeSans" font-size="10.00" fill="#000000">G4PhysicsFreeVector.hh</text>
</a>
</g>
</g>
<!-- Node1&#45;&gt;Node38 -->
<g id="edge60" class="edge">
<title>Node1&#45;&gt;Node38</title>
<path fill="none" stroke="#191970" d="M731.7721,-513.3594C746.5687,-502.8901 762.8348,-491.381 775.5437,-482.3889"/>
<polygon fill="#191970" stroke="#191970" points="777.5704,-485.2424 783.7121,-476.6094 773.5272,-479.5281 777.5704,-485.2424"/>
</g>
<!-- Node3 -->
<g id="node3" class="node">
<title>Node3</title>
<g id="a_node3"><a xlink:href="../../df/de9/G4ios_8hh.html" target="_top" xlink:title="G4ios.hh">
<polygon fill="none" stroke="#000000" points="881.5,-171.5 881.5,-191.5 942.5,-191.5 942.5,-171.5 881.5,-171.5"/>
<text text-anchor="middle" x="912" y="-178.5" font-family="FreeSans" font-size="10.00" fill="#000000">G4ios.hh</text>
</a>
</g>
</g>
<!-- Node2&#45;&gt;Node3 -->
<g id="edge2" class="edge">
<title>Node2&#45;&gt;Node3</title>
<path fill="none" stroke="#191970" d="M691.3903,-345.0413C740.0396,-332.8471 829.0282,-304.2648 883,-249 895.6403,-236.0569 903.1762,-216.7341 907.3836,-202.0749"/>
<polygon fill="#191970" stroke="#191970" points="910.8846,-202.5132 909.9817,-191.9569 904.1045,-200.7722 910.8846,-202.5132"/>
</g>
<!-- Node4 -->
<g id="node4" class="node">
<title>Node4</title>
<g id="a_node4"><a xlink:href="../../de/d29/G4Types_8hh.html" target="_top" xlink:title="G4Types.hh">
<polygon fill="none" stroke="#000000" points="509.5,-114.5 509.5,-134.5 584.5,-134.5 584.5,-114.5 509.5,-114.5"/>
<text text-anchor="middle" x="547" y="-121.5" font-family="FreeSans" font-size="10.00" fill="#000000">G4Types.hh</text>
</a>
</g>
</g>
<!-- Node2&#45;&gt;Node4 -->
<g id="edge10" class="edge">
<title>Node2&#45;&gt;Node4</title>
<path fill="none" stroke="#191970" d="M622.6991,-349.0656C582.1283,-343.9726 513.3693,-332.0525 460,-306 423.6351,-288.2483 406.4983,-285.4875 389,-249 362.7162,-194.1929 445.206,-156.3617 500.7124,-137.7572"/>
<polygon fill="#191970" stroke="#191970" points="501.9594,-141.0323 510.3893,-134.6145 499.7971,-134.3746 501.9594,-141.0323"/>
</g>
<!-- Node9 -->
<g id="node9" class="node">
<title>Node9</title>
<polygon fill="none" stroke="#bfbfbf" points="468.5,-285.5 468.5,-305.5 533.5,-305.5 533.5,-285.5 468.5,-285.5"/>
<text text-anchor="middle" x="501" y="-292.5" font-family="FreeSans" font-size="10.00" fill="#000000">algorithm</text>
</g>
<!-- Node2&#45;&gt;Node9 -->
<g id="edge9" class="edge">
<title>Node2&#45;&gt;Node9</title>
<path fill="none" stroke="#191970" d="M629.4694,-342.4408C604.04,-333.1492 566.0684,-319.275 537.9969,-309.0181"/>
<polygon fill="#191970" stroke="#191970" points="539.1111,-305.699 528.5173,-305.5544 536.7087,-312.2738 539.1111,-305.699"/>
</g>
<!-- Node10 -->
<g id="node10" class="node">
<title>Node10</title>
<g id="a_node10"><a xlink:href="../../d2/df2/source_2global_2management_2include_2G4String_8hh.html" target="_top" xlink:title="G4String.hh">
<polygon fill="none" stroke="#000000" points="266,-171.5 266,-191.5 342,-191.5 342,-171.5 266,-171.5"/>
<text text-anchor="middle" x="304" y="-178.5" font-family="FreeSans" font-size="10.00" fill="#000000">G4String.hh</text>
</a>
</g>
</g>
<!-- Node2&#45;&gt;Node10 -->
<g id="edge11" class="edge">
<title>Node2&#45;&gt;Node10</title>
<path fill="none" stroke="#191970" d="M622.7391,-350.1641C540.8723,-344.2546 339.1088,-327.629 318,-306 291.0285,-278.364 294.7337,-229.1804 299.5385,-201.628"/>
<polygon fill="#191970" stroke="#191970" points="303.0181,-202.0714 301.5097,-191.5845 296.1492,-200.7232 303.0181,-202.0714"/>
</g>
<!-- Node15 -->
<g id="node15" class="node">
<title>Node15</title>
<g id="a_node15"><a xlink:href="../../d2/d54/templates_8hh.html" target="_top" xlink:title="templates.hh">
<polygon fill="none" stroke="#000000" points="914.5,-285.5 914.5,-305.5 997.5,-305.5 997.5,-285.5 914.5,-285.5"/>
<text text-anchor="middle" x="956" y="-292.5" font-family="FreeSans" font-size="10.00" fill="#000000">templates.hh</text>
</a>
</g>
</g>
<!-- Node2&#45;&gt;Node15 -->
<g id="edge18" class="edge">
<title>Node2&#45;&gt;Node15</title>
<path fill="none" stroke="#191970" d="M691.2752,-345.8114C697.8226,-344.5405 704.6222,-343.2253 711,-342 777.824,-329.1618 854.9442,-314.5601 904.5294,-305.1995"/>
<polygon fill="#191970" stroke="#191970" points="905.1958,-308.6356 914.3733,-303.3418 903.8976,-301.757 905.1958,-308.6356"/>
</g>
<!-- Node18 -->
<g id="node18" class="node">
<title>Node18</title>
<g id="a_node18"><a xlink:href="../../d5/d4f/G4Exception_8hh.html" target="_top" xlink:title="G4Exception.hh">
<polygon fill="none" stroke="#000000" points="398,-228.5 398,-248.5 494,-248.5 494,-228.5 398,-228.5"/>
<text text-anchor="middle" x="446" y="-235.5" font-family="FreeSans" font-size="10.00" fill="#000000">G4Exception.hh</text>
</a>
</g>
</g>
<!-- Node2&#45;&gt;Node18 -->
<g id="edge21" class="edge">
<title>Node2&#45;&gt;Node18</title>
<path fill="none" stroke="#191970" d="M641.0194,-342.4344C619.1971,-328.8296 578.7028,-304.0804 543,-285 521.5829,-273.5542 496.897,-261.7389 477.7885,-252.8825"/>
<polygon fill="#191970" stroke="#191970" points="479.171,-249.6659 468.6237,-248.6631 476.2435,-256.0244 479.171,-249.6659"/>
</g>
<!-- Node21 -->
<g id="node21" class="node">
<title>Node21</title>
<g id="a_node21"><a xlink:href="../../dc/d3a/G4EnvironmentUtils_8hh.html" target="_top" xlink:title="G4EnvironmentUtils.hh">
<polygon fill="none" stroke="#000000" points="590.5,-285.5 590.5,-305.5 723.5,-305.5 723.5,-285.5 590.5,-285.5"/>
<text text-anchor="middle" x="657" y="-292.5" font-family="FreeSans" font-size="10.00" fill="#000000">G4EnvironmentUtils.hh</text>
</a>
</g>
</g>
<!-- Node2&#45;&gt;Node21 -->
<g id="edge27" class="edge">
<title>Node2&#45;&gt;Node21</title>
<path fill="none" stroke="#191970" d="M657,-342.3095C657,-334.9335 657,-324.72 657,-315.715"/>
<polygon fill="#191970" stroke="#191970" points="660.5001,-315.6022 657,-305.6022 653.5001,-315.6023 660.5001,-315.6022"/>
</g>
<!-- Node3&#45;&gt;Node4 -->
<g id="edge3" class="edge">
<title>Node3&#45;&gt;Node4</title>
<path fill="none" stroke="#191970" d="M881.1949,-176.6893C817.5055,-166.7433 670.9434,-143.8555 594.8333,-131.9699"/>
<polygon fill="#191970" stroke="#191970" points="594.9977,-128.4532 584.5774,-130.3683 593.9176,-135.3694 594.9977,-128.4532"/>
</g>
<!-- Node8 -->
<g id="node8" class="node">
<title>Node8</title>
<polygon fill="none" stroke="#bfbfbf" points="882,-114.5 882,-134.5 942,-134.5 942,-114.5 882,-114.5"/>
<text text-anchor="middle" x="912" y="-121.5" font-family="FreeSans" font-size="10.00" fill="#000000">iostream</text>
</g>
<!-- Node3&#45;&gt;Node8 -->
<g id="edge8" class="edge">
<title>Node3&#45;&gt;Node8</title>
<path fill="none" stroke="#191970" d="M912,-171.3095C912,-163.9335 912,-153.72 912,-144.715"/>
<polygon fill="#191970" stroke="#191970" points="915.5001,-144.6022 912,-134.6022 908.5001,-144.6023 915.5001,-144.6022"/>
</g>
<!-- Node5 -->
<g id="node5" class="node">
<title>Node5</title>
<polygon fill="none" stroke="#bfbfbf" points="485.5,-.5 485.5,-20.5 596.5,-20.5 596.5,-.5 485.5,-.5"/>
<text text-anchor="middle" x="541" y="-7.5" font-family="FreeSans" font-size="10.00" fill="#000000">G4GlobalConfig.hh</text>
</g>
<!-- Node4&#45;&gt;Node5 -->
<g id="edge4" class="edge">
<title>Node4&#45;&gt;Node5</title>
<path fill="none" stroke="#191970" d="M559.6617,-114.4369C574.125,-101.6318 594.7318,-78.579 586,-57 581.3541,-45.5186 572.3637,-35.3021 563.6324,-27.3904"/>
<polygon fill="#191970" stroke="#191970" points="565.7201,-24.5726 555.8188,-20.8023 561.2079,-29.9242 565.7201,-24.5726"/>
</g>
<!-- Node6 -->
<g id="node6" class="node">
<title>Node6</title>
<polygon fill="none" stroke="#bfbfbf" points="517.5,-57.5 517.5,-77.5 576.5,-77.5 576.5,-57.5 517.5,-57.5"/>
<text text-anchor="middle" x="547" y="-64.5" font-family="FreeSans" font-size="10.00" fill="#000000">complex</text>
</g>
<!-- Node4&#45;&gt;Node6 -->
<g id="edge5" class="edge">
<title>Node4&#45;&gt;Node6</title>
<path fill="none" stroke="#191970" d="M547,-114.3095C547,-106.9335 547,-96.72 547,-87.715"/>
<polygon fill="#191970" stroke="#191970" points="550.5001,-87.6022 547,-77.6022 543.5001,-87.6023 550.5001,-87.6022"/>
</g>
<!-- Node7 -->
<g id="node7" class="node">
<title>Node7</title>
<g id="a_node7"><a xlink:href="../../d0/d00/tls_8hh.html" target="_top" xlink:title="tls.hh">
<polygon fill="none" stroke="#000000" points="455,-57.5 455,-77.5 499,-77.5 499,-57.5 455,-57.5"/>
<text text-anchor="middle" x="477" y="-64.5" font-family="FreeSans" font-size="10.00" fill="#000000">tls.hh</text>
</a>
</g>
</g>
<!-- Node4&#45;&gt;Node7 -->
<g id="edge6" class="edge">
<title>Node4&#45;&gt;Node7</title>
<path fill="none" stroke="#191970" d="M534.4854,-114.3095C524.1331,-105.8798 509.2294,-93.7439 497.1913,-83.9415"/>
<polygon fill="#191970" stroke="#191970" points="499.3706,-81.2025 489.4063,-77.6022 494.9506,-86.6306 499.3706,-81.2025"/>
</g>
<!-- Node7&#45;&gt;Node5 -->
<g id="edge7" class="edge">
<title>Node7&#45;&gt;Node5</title>
<path fill="none" stroke="#191970" d="M488.4419,-57.3095C497.7249,-49.0419 511.0106,-37.2093 521.9015,-27.5096"/>
<polygon fill="#191970" stroke="#191970" points="524.5173,-29.8668 529.6571,-20.6022 519.8616,-24.6395 524.5173,-29.8668"/>
</g>
<!-- Node10&#45;&gt;Node4 -->
<g id="edge15" class="edge">
<title>Node10&#45;&gt;Node4</title>
<path fill="none" stroke="#191970" d="M342.2361,-172.531C384.7326,-162.5627 453.4142,-146.4522 499.3703,-135.6724"/>
<polygon fill="#191970" stroke="#191970" points="500.4498,-139.0143 509.3862,-133.323 498.8512,-132.1992 500.4498,-139.0143"/>
</g>
<!-- Node10&#45;&gt;Node8 -->
<g id="edge16" class="edge">
<title>Node10&#45;&gt;Node8</title>
<path fill="none" stroke="#191970" d="M342.3034,-178.7509C429.636,-172.3492 650.1658,-155.4268 834,-135 846.184,-133.6462 859.4083,-131.9516 871.4471,-130.3214"/>
<polygon fill="#191970" stroke="#191970" points="872.236,-133.746 881.6656,-128.9156 871.2819,-126.8113 872.236,-133.746"/>
</g>
<!-- Node11 -->
<g id="node11" class="node">
<title>Node11</title>
<polygon fill="none" stroke="#bfbfbf" points="279,-114.5 279,-134.5 329,-134.5 329,-114.5 279,-114.5"/>
<text text-anchor="middle" x="304" y="-121.5" font-family="FreeSans" font-size="10.00" fill="#000000">stdio.h</text>
</g>
<!-- Node10&#45;&gt;Node11 -->
<g id="edge12" class="edge">
<title>Node10&#45;&gt;Node11</title>
<path fill="none" stroke="#191970" d="M304,-171.3095C304,-163.9335 304,-153.72 304,-144.715"/>
<polygon fill="#191970" stroke="#191970" points="307.5001,-144.6022 304,-134.6022 300.5001,-144.6023 307.5001,-144.6022"/>
</g>
<!-- Node12 -->
<g id="node12" class="node">
<title>Node12</title>
<polygon fill="none" stroke="#bfbfbf" points="347.5,-114.5 347.5,-134.5 392.5,-134.5 392.5,-114.5 347.5,-114.5"/>
<text text-anchor="middle" x="370" y="-121.5" font-family="FreeSans" font-size="10.00" fill="#000000">string</text>
</g>
<!-- Node10&#45;&gt;Node12 -->
<g id="edge13" class="edge">
<title>Node10&#45;&gt;Node12</title>
<path fill="none" stroke="#191970" d="M315.7995,-171.3095C325.4664,-162.9608 339.3425,-150.9769 350.6343,-141.2249"/>
<polygon fill="#191970" stroke="#191970" points="353.0221,-143.7874 358.3027,-134.6022 348.4467,-138.4896 353.0221,-143.7874"/>
</g>
<!-- Node13 -->
<g id="node13" class="node">
<title>Node13</title>
<polygon fill="none" stroke="#bfbfbf" points="115,-114.5 115,-134.5 165,-134.5 165,-114.5 115,-114.5"/>
<text text-anchor="middle" x="140" y="-121.5" font-family="FreeSans" font-size="10.00" fill="#000000">cstring</text>
</g>
<!-- Node10&#45;&gt;Node13 -->
<g id="edge14" class="edge">
<title>Node10&#45;&gt;Node13</title>
<path fill="none" stroke="#191970" d="M275.0576,-171.4408C247.0507,-161.7067 204.5725,-146.9429 174.7505,-136.5779"/>
<polygon fill="#191970" stroke="#191970" points="175.7562,-133.2221 165.1613,-133.2451 173.458,-139.8342 175.7562,-133.2221"/>
</g>
<!-- Node14 -->
<g id="node14" class="node">
<title>Node14</title>
<polygon fill="none" stroke="#bfbfbf" points="183,-114.5 183,-134.5 261,-134.5 261,-114.5 183,-114.5"/>
<text text-anchor="middle" x="222" y="-121.5" font-family="FreeSans" font-size="10.00" fill="#000000">G4String.icc</text>
</g>
<!-- Node10&#45;&gt;Node14 -->
<g id="edge17" class="edge">
<title>Node10&#45;&gt;Node14</title>
<path fill="none" stroke="#191970" d="M289.34,-171.3095C276.9798,-162.7177 259.0809,-150.2758 244.8429,-140.3786"/>
<polygon fill="#191970" stroke="#191970" points="246.7419,-137.4361 236.533,-134.6022 242.7464,-143.1839 246.7419,-137.4361"/>
</g>
<!-- Node16 -->
<g id="node16" class="node">
<title>Node16</title>
<polygon fill="none" stroke="#bfbfbf" points="1092,-228.5 1092,-248.5 1136,-248.5 1136,-228.5 1092,-228.5"/>
<text text-anchor="middle" x="1114" y="-235.5" font-family="FreeSans" font-size="10.00" fill="#000000">limits</text>
</g>
<!-- Node15&#45;&gt;Node16 -->
<g id="edge19" class="edge">
<title>Node15&#45;&gt;Node16</title>
<path fill="none" stroke="#191970" d="M983.8835,-285.4408C1011.4617,-275.4917 1053.6043,-260.2883 1082.4063,-249.8977"/>
<polygon fill="#191970" stroke="#191970" points="1083.773,-253.1256 1091.9918,-246.4397 1081.3975,-246.5409 1083.773,-253.1256"/>
</g>
<!-- Node17 -->
<g id="node17" class="node">
<title>Node17</title>
<polygon fill="none" stroke="#bfbfbf" points="948.5,-228.5 948.5,-248.5 997.5,-248.5 997.5,-228.5 948.5,-228.5"/>
<text text-anchor="middle" x="973" y="-235.5" font-family="FreeSans" font-size="10.00" fill="#000000">climits</text>
</g>
<!-- Node15&#45;&gt;Node17 -->
<g id="edge20" class="edge">
<title>Node15&#45;&gt;Node17</title>
<path fill="none" stroke="#191970" d="M959.0393,-285.3095C961.2633,-277.8524 964.3523,-267.4951 967.0594,-258.4186"/>
<polygon fill="#191970" stroke="#191970" points="970.4829,-259.1855 969.9871,-248.6022 963.7749,-257.1848 970.4829,-259.1855"/>
</g>
<!-- Node18&#45;&gt;Node3 -->
<g id="edge22" class="edge">
<title>Node18&#45;&gt;Node3</title>
<path fill="none" stroke="#191970" d="M494.1631,-229.3866C497.1498,-228.8963 500.1137,-228.4294 503,-228 637.2407,-208.029 797.3936,-192.0985 871.1379,-185.2042"/>
<polygon fill="#191970" stroke="#191970" points="871.7444,-188.663 881.3778,-184.2531 871.097,-181.693 871.7444,-188.663"/>
</g>
<!-- Node18&#45;&gt;Node10 -->
<g id="edge23" class="edge">
<title>Node18&#45;&gt;Node10</title>
<path fill="none" stroke="#191970" d="M420.9401,-228.4408C398.0656,-219.2587 364.0419,-205.6013 338.5836,-195.3822"/>
<polygon fill="#191970" stroke="#191970" points="339.8711,-192.1276 329.287,-191.6504 337.2634,-198.6237 339.8711,-192.1276"/>
</g>
<!-- Node19 -->
<g id="node19" class="node">
<title>Node19</title>
<g id="a_node19"><a xlink:href="../../d9/d05/G4VExceptionHandler_8hh.html" target="_top" xlink:title="G4VExceptionHandler.hh">
<polygon fill="none" stroke="#000000" points="476,-171.5 476,-191.5 618,-191.5 618,-171.5 476,-171.5"/>
<text text-anchor="middle" x="547" y="-178.5" font-family="FreeSans" font-size="10.00" fill="#000000">G4VExceptionHandler.hh</text>
</a>
</g>
</g>
<!-- Node18&#45;&gt;Node19 -->
<g id="edge24" class="edge">
<title>Node18&#45;&gt;Node19</title>
<path fill="none" stroke="#191970" d="M464.0568,-228.3095C479.7119,-219.4745 502.5805,-206.5684 520.3421,-196.5445"/>
<polygon fill="#191970" stroke="#191970" points="522.1109,-199.5653 529.0996,-191.6022 518.6705,-193.4691 522.1109,-199.5653"/>
</g>
<!-- Node19&#45;&gt;Node4 -->
<g id="edge25" class="edge">
<title>Node19&#45;&gt;Node4</title>
<path fill="none" stroke="#191970" d="M547,-171.3095C547,-163.9335 547,-153.72 547,-144.715"/>
<polygon fill="#191970" stroke="#191970" points="550.5001,-144.6022 547,-134.6022 543.5001,-144.6023 550.5001,-144.6022"/>
</g>
<!-- Node20 -->
<g id="node20" class="node">
<title>Node20</title>
<g id="a_node20"><a xlink:href="../../d6/d7e/G4ExceptionSeverity_8hh.html" target="_top" xlink:title="G4ExceptionSeverity.hh">
<polygon fill="none" stroke="#000000" points="689,-114.5 689,-134.5 825,-134.5 825,-114.5 689,-114.5"/>
<text text-anchor="middle" x="757" y="-121.5" font-family="FreeSans" font-size="10.00" fill="#000000">G4ExceptionSeverity.hh</text>
</a>
</g>
</g>
<!-- Node19&#45;&gt;Node20 -->
<g id="edge26" class="edge">
<title>Node19&#45;&gt;Node20</title>
<path fill="none" stroke="#191970" d="M584.0604,-171.4408C619.1892,-161.9058 672.0981,-147.5448 710.1388,-137.2195"/>
<polygon fill="#191970" stroke="#191970" points="711.2235,-140.5518 719.9575,-134.5544 709.3898,-133.7962 711.2235,-140.5518"/>
</g>
<!-- Node21&#45;&gt;Node3 -->
<g id="edge35" class="edge">
<title>Node21&#45;&gt;Node3</title>
<path fill="none" stroke="#191970" d="M720.6517,-285.4569C770.5977,-276.7233 835.3402,-263.2603 858,-249 877.1435,-236.9526 892.4632,-215.694 901.8261,-200.2462"/>
<polygon fill="#191970" stroke="#191970" points="904.8992,-201.9234 906.867,-191.5129 898.8366,-198.4241 904.8992,-201.9234"/>
</g>
<!-- Node21&#45;&gt;Node8 -->
<g id="edge32" class="edge">
<title>Node21&#45;&gt;Node8</title>
<path fill="none" stroke="#191970" d="M713.6472,-285.477C742.6644,-278.4875 777.563,-267.0794 805,-249 807.8795,-247.1026 867.5947,-176.8762 896.5377,-142.7502"/>
<polygon fill="#191970" stroke="#191970" points="899.3829,-144.8066 903.1798,-134.9154 894.0434,-140.2799 899.3829,-144.8066"/>
</g>
<!-- Node21&#45;&gt;Node10 -->
<g id="edge36" class="edge">
<title>Node21&#45;&gt;Node10</title>
<path fill="none" stroke="#191970" d="M590.2311,-287.8461C507.7396,-277.9797 375.8011,-260.7039 356,-249 336.8064,-237.6552 322.1888,-216.2719 313.4119,-200.6027"/>
<polygon fill="#191970" stroke="#191970" points="316.4848,-198.9264 308.7131,-191.7256 310.298,-202.2012 316.4848,-198.9264"/>
</g>
<!-- Node21&#45;&gt;Node12 -->
<g id="edge29" class="edge">
<title>Node21&#45;&gt;Node12</title>
<path fill="none" stroke="#191970" d="M590.3505,-288.0165C515.6195,-278.9976 402.9843,-263.2719 389,-249 361.8319,-221.2732 363.2084,-172.1247 366.6042,-144.6024"/>
<polygon fill="#191970" stroke="#191970" points="370.0875,-144.9684 368.0534,-134.5707 363.1595,-143.9675 370.0875,-144.9684"/>
</g>
<!-- Node21&#45;&gt;Node18 -->
<g id="edge37" class="edge">
<title>Node21&#45;&gt;Node18</title>
<path fill="none" stroke="#191970" d="M619.7631,-285.4408C584.467,-275.9058 531.3062,-261.5448 493.0843,-251.2195"/>
<polygon fill="#191970" stroke="#191970" points="493.7856,-247.7835 483.2189,-248.5544 491.96,-254.5413 493.7856,-247.7835"/>
</g>
<!-- Node21&#45;&gt;Node20 -->
<g id="edge38" class="edge">
<title>Node21&#45;&gt;Node20</title>
<path fill="none" stroke="#191970" d="M701.0967,-285.485C734.6489,-276.867 776.7513,-263.5505 787,-249 809.8053,-216.6224 786.3506,-169.0262 769.9704,-143.0649"/>
<polygon fill="#191970" stroke="#191970" points="772.7811,-140.9694 764.3544,-134.5474 766.937,-144.8227 772.7811,-140.9694"/>
</g>
<!-- Node22 -->
<g id="node22" class="node">
<title>Node22</title>
<polygon fill="none" stroke="#bfbfbf" points="512,-228.5 512,-248.5 562,-248.5 562,-228.5 512,-228.5"/>
<text text-anchor="middle" x="537" y="-235.5" font-family="FreeSans" font-size="10.00" fill="#000000">cstdlib</text>
</g>
<!-- Node21&#45;&gt;Node22 -->
<g id="edge28" class="edge">
<title>Node21&#45;&gt;Node22</title>
<path fill="none" stroke="#191970" d="M635.8226,-285.4408C616.9178,-276.461 589.0017,-263.2008 567.6576,-253.0624"/>
<polygon fill="#191970" stroke="#191970" points="568.9038,-249.7796 558.3693,-248.6504 565.9004,-256.1025 568.9038,-249.7796"/>
</g>
<!-- Node23 -->
<g id="node23" class="node">
<title>Node23</title>
<polygon fill="none" stroke="#bfbfbf" points="580,-228.5 580,-248.5 636,-248.5 636,-228.5 580,-228.5"/>
<text text-anchor="middle" x="608" y="-235.5" font-family="FreeSans" font-size="10.00" fill="#000000">sstream</text>
</g>
<!-- Node21&#45;&gt;Node23 -->
<g id="edge30" class="edge">
<title>Node21&#45;&gt;Node23</title>
<path fill="none" stroke="#191970" d="M648.2398,-285.3095C641.3415,-277.2851 631.5563,-265.9022 623.3626,-256.3708"/>
<polygon fill="#191970" stroke="#191970" points="625.8574,-253.9038 616.6844,-248.6022 620.5492,-258.467 625.8574,-253.9038"/>
</g>
<!-- Node24 -->
<g id="node24" class="node">
<title>Node24</title>
<polygon fill="none" stroke="#bfbfbf" points="188.5,-228.5 188.5,-248.5 227.5,-248.5 227.5,-228.5 188.5,-228.5"/>
<text text-anchor="middle" x="208" y="-235.5" font-family="FreeSans" font-size="10.00" fill="#000000">map</text>
</g>
<!-- Node21&#45;&gt;Node24 -->
<g id="edge31" class="edge">
<title>Node21&#45;&gt;Node24</title>
<path fill="none" stroke="#191970" d="M590.2039,-287.7129C514.803,-278.8177 388.4947,-263.6002 280,-249 266.1113,-247.131 250.7389,-244.91 237.7769,-242.9931"/>
<polygon fill="#191970" stroke="#191970" points="237.9478,-239.4801 227.5413,-241.4689 236.9167,-246.4037 237.9478,-239.4801"/>
</g>
<!-- Node25 -->
<g id="node25" class="node">
<title>Node25</title>
<polygon fill="none" stroke="#bfbfbf" points="654.5,-228.5 654.5,-248.5 711.5,-248.5 711.5,-228.5 654.5,-228.5"/>
<text text-anchor="middle" x="683" y="-235.5" font-family="FreeSans" font-size="10.00" fill="#000000">iomanip</text>
</g>
<!-- Node21&#45;&gt;Node25 -->
<g id="edge33" class="edge">
<title>Node21&#45;&gt;Node25</title>
<path fill="none" stroke="#191970" d="M661.6483,-285.3095C665.1237,-277.6903 669.9802,-267.0435 674.1835,-257.8285"/>
<polygon fill="#191970" stroke="#191970" points="677.4262,-259.153 678.392,-248.6022 671.0575,-256.2479 677.4262,-259.153"/>
</g>
<!-- Node26 -->
<g id="node26" class="node">
<title>Node26</title>
<polygon fill="none" stroke="#bfbfbf" points="730,-228.5 730,-248.5 778,-248.5 778,-228.5 730,-228.5"/>
<text text-anchor="middle" x="754" y="-235.5" font-family="FreeSans" font-size="10.00" fill="#000000">mutex</text>
</g>
<!-- Node21&#45;&gt;Node26 -->
<g id="edge34" class="edge">
<title>Node21&#45;&gt;Node26</title>
<path fill="none" stroke="#191970" d="M674.3417,-285.3095C689.2388,-276.5556 710.9373,-263.8049 727.9272,-253.8211"/>
<polygon fill="#191970" stroke="#191970" points="729.9601,-256.6862 736.8085,-248.6022 726.4136,-250.651 729.9601,-256.6862"/>
</g>
<!-- Node28 -->
<g id="node28" class="node">
<title>Node28</title>
<g id="a_node28"><a xlink:href="../../da/db6/SystemOfUnits_8h.html" target="_top" xlink:title="CLHEP/Units/SystemOfUnits.h">
<polygon fill="none" stroke="#000000" points="0,-399.5 0,-419.5 166,-419.5 166,-399.5 0,-399.5"/>
<text text-anchor="middle" x="83" y="-406.5" font-family="FreeSans" font-size="10.00" fill="#000000">CLHEP/Units/SystemOfUnits.h</text>
</a>
</g>
</g>
<!-- Node27&#45;&gt;Node28 -->
<g id="edge40" class="edge">
<title>Node27&#45;&gt;Node28</title>
<path fill="none" stroke="#191970" d="M246.0574,-456.4408C213.0768,-446.9464 163.4747,-432.6669 127.642,-422.3515"/>
<polygon fill="#191970" stroke="#191970" points="128.5038,-418.9575 117.9258,-419.5544 126.5672,-425.6843 128.5038,-418.9575"/>
</g>
<!-- Node29&#45;&gt;Node2 -->
<g id="edge42" class="edge">
<title>Node29&#45;&gt;Node2</title>
<path fill="none" stroke="#191970" d="M614.6479,-456.4866C620.5521,-447.285 629.1305,-433.1233 635,-420 641.9091,-404.5522 647.7352,-386.2588 651.6527,-372.6155"/>
<polygon fill="#191970" stroke="#191970" points="655.0712,-373.3855 654.3695,-362.8139 648.3255,-371.5157 655.0712,-373.3855"/>
</g>
<!-- Node29&#45;&gt;Node24 -->
<g id="edge46" class="edge">
<title>Node29&#45;&gt;Node24</title>
<path fill="none" stroke="#191970" d="M569.8643,-456.3718C512.8658,-440.4916 402.8642,-406.9513 316,-363 275.7427,-342.6308 259.5945,-341.6945 232,-306 221.21,-292.0427 215.0089,-272.8296 211.6241,-258.4699"/>
<polygon fill="#191970" stroke="#191970" points="215.0329,-257.6714 209.5553,-248.6024 208.1818,-259.1079 215.0329,-257.6714"/>
</g>
<!-- Node30 -->
<g id="node30" class="node">
<title>Node30</title>
<g id="a_node30"><a xlink:href="../../d4/ded/G4ResonanceWidth_8hh.html" target="_top" xlink:title="G4ResonanceWidth.hh">
<polygon fill="none" stroke="#000000" points="494.5,-399.5 494.5,-419.5 625.5,-419.5 625.5,-399.5 494.5,-399.5"/>
<text text-anchor="middle" x="560" y="-406.5" font-family="FreeSans" font-size="10.00" fill="#000000">G4ResonanceWidth.hh</text>
</a>
</g>
</g>
<!-- Node29&#45;&gt;Node30 -->
<g id="edge43" class="edge">
<title>Node29&#45;&gt;Node30</title>
<path fill="none" stroke="#191970" d="M599.4186,-456.3095C592.6611,-448.2851 583.0756,-436.9022 575.0491,-427.3708"/>
<polygon fill="#191970" stroke="#191970" points="577.6257,-424.9969 568.5071,-419.6022 572.2713,-429.5059 577.6257,-424.9969"/>
</g>
<!-- Node31 -->
<g id="node31" class="node">
<title>Node31</title>
<polygon fill="none" stroke="#bfbfbf" points="986.5,-342.5 986.5,-362.5 1035.5,-362.5 1035.5,-342.5 986.5,-342.5"/>
<text text-anchor="middle" x="1011" y="-349.5" font-family="FreeSans" font-size="10.00" fill="#000000">vector</text>
</g>
<!-- Node29&#45;&gt;Node31 -->
<g id="edge47" class="edge">
<title>Node29&#45;&gt;Node31</title>
<path fill="none" stroke="#191970" d="M664.0347,-460.9069C717.6095,-454.54 800.1841,-442.0454 869,-420 911.0885,-406.5168 956.7394,-383.0883 984.6108,-367.6879"/>
<polygon fill="#191970" stroke="#191970" points="986.6759,-370.5431 993.6928,-362.6049 983.2571,-364.4347 986.6759,-370.5431"/>
</g>
<!-- Node30&#45;&gt;Node2 -->
<g id="edge45" class="edge">
<title>Node30&#45;&gt;Node2</title>
<path fill="none" stroke="#191970" d="M577.3417,-399.3095C592.2388,-390.5556 613.9373,-377.8049 630.9272,-367.8211"/>
<polygon fill="#191970" stroke="#191970" points="632.9601,-370.6862 639.8085,-362.6022 629.4136,-364.651 632.9601,-370.6862"/>
</g>
<!-- Node30&#45;&gt;Node24 -->
<g id="edge44" class="edge">
<title>Node30&#45;&gt;Node24</title>
<path fill="none" stroke="#191970" d="M495.2145,-399.4773C429.6588,-386.7434 327.9761,-359.6343 256,-306 238.9747,-293.3133 225.6206,-272.8057 217.3667,-257.7198"/>
<polygon fill="#191970" stroke="#191970" points="220.4095,-255.9846 212.6919,-248.7258 214.1983,-259.213 220.4095,-255.9846"/>
</g>
<!-- Node32&#45;&gt;Node2 -->
<g id="edge52" class="edge">
<title>Node32&#45;&gt;Node2</title>
<path fill="none" stroke="#191970" d="M981.3971,-400.9048C904.674,-389.4566 770.5931,-369.4497 701.2869,-359.1083"/>
<polygon fill="#191970" stroke="#191970" points="701.5492,-355.6087 691.1421,-357.5945 700.516,-362.5321 701.5492,-355.6087"/>
</g>
<!-- Node32&#45;&gt;Node3 -->
<g id="edge53" class="edge">
<title>Node32&#45;&gt;Node3</title>
<path fill="none" stroke="#191970" d="M1041.7941,-399.4736C1049.463,-369.6047 1067.6189,-280.0679 1026,-228 1020.912,-221.6346 981.4335,-206.3526 950.342,-195.0356"/>
<polygon fill="#191970" stroke="#191970" points="951.1906,-191.6209 940.5962,-191.517 948.8134,-198.205 951.1906,-191.6209"/>
</g>
<!-- Node32&#45;&gt;Node8 -->
<g id="edge49" class="edge">
<title>Node32&#45;&gt;Node8</title>
<path fill="none" stroke="#191970" d="M1096.8407,-405.8075C1195.8556,-398.9775 1389.4937,-383.2067 1413,-363 1436.6338,-342.6837 1432,-326.6658 1432,-295.5 1432,-295.5 1432,-295.5 1432,-238.5 1432,-189.4444 1074.3382,-143.3462 952.2638,-129.041"/>
<polygon fill="#191970" stroke="#191970" points="952.5423,-125.5499 942.205,-127.872 951.7341,-132.5031 952.5423,-125.5499"/>
</g>
<!-- Node32&#45;&gt;Node31 -->
<g id="edge51" class="edge">
<title>Node32&#45;&gt;Node31</title>
<path fill="none" stroke="#191970" d="M1033.9942,-399.3095C1030.2514,-391.6903 1025.0213,-381.0435 1020.4947,-371.8285"/>
<polygon fill="#191970" stroke="#191970" points="1023.513,-370.0346 1015.9625,-362.6022 1017.2302,-373.121 1023.513,-370.0346"/>
</g>
<!-- Node33 -->
<g id="node33" class="node">
<title>Node33</title>
<polygon fill="none" stroke="#bfbfbf" points="913.5,-342.5 913.5,-362.5 968.5,-362.5 968.5,-342.5 913.5,-342.5"/>
<text text-anchor="middle" x="941" y="-349.5" font-family="FreeSans" font-size="10.00" fill="#000000">fstream</text>
</g>
<!-- Node32&#45;&gt;Node33 -->
<g id="edge50" class="edge">
<title>Node32&#45;&gt;Node33</title>
<path fill="none" stroke="#191970" d="M1021.4796,-399.3095C1006.4288,-390.5556 984.5067,-377.8049 967.3416,-367.8211"/>
<polygon fill="#191970" stroke="#191970" points="968.7727,-364.6046 958.3688,-362.6022 965.2532,-370.6555 968.7727,-364.6046"/>
</g>
<!-- Node34 -->
<g id="node34" class="node">
<title>Node34</title>
<g id="a_node34"><a xlink:href="../../dd/de7/G4PhysicsVectorType_8hh.html" target="_top" xlink:title="G4PhysicsVectorType.hh">
<polygon fill="none" stroke="#000000" points="1092.5,-342.5 1092.5,-362.5 1231.5,-362.5 1231.5,-342.5 1092.5,-342.5"/>
<text text-anchor="middle" x="1162" y="-349.5" font-family="FreeSans" font-size="10.00" fill="#000000">G4PhysicsVectorType.hh</text>
</a>
</g>
</g>
<!-- Node32&#45;&gt;Node34 -->
<g id="edge54" class="edge">
<title>Node32&#45;&gt;Node34</title>
<path fill="none" stroke="#191970" d="M1060.7068,-399.4408C1080.1715,-390.4205 1108.9562,-377.0813 1130.8712,-366.9255"/>
<polygon fill="#191970" stroke="#191970" points="1132.495,-370.0307 1140.0965,-362.6504 1129.5517,-363.6795 1132.495,-370.0307"/>
</g>
<!-- Node35 -->
<g id="node35" class="node">
<title>Node35</title>
<g id="a_node35"><a xlink:href="../../db/dfe/G4Log_8hh.html" target="_top" xlink:title="G4Log.hh">
<polygon fill="none" stroke="#000000" points="1145,-285.5 1145,-305.5 1209,-305.5 1209,-285.5 1145,-285.5"/>
<text text-anchor="middle" x="1177" y="-292.5" font-family="FreeSans" font-size="10.00" fill="#000000">G4Log.hh</text>
</a>
</g>
</g>
<!-- Node32&#45;&gt;Node35 -->
<g id="edge55" class="edge">
<title>Node32&#45;&gt;Node35</title>
<path fill="none" stroke="#191970" d="M1096.6033,-404.1426C1149.8065,-397.8614 1223.2111,-385.3491 1241,-363 1256.2708,-343.8145 1230.91,-323.6409 1207.7456,-310.401"/>
<polygon fill="#191970" stroke="#191970" points="1209.1959,-307.206 1198.7371,-305.5136 1205.8578,-313.3588 1209.1959,-307.206"/>
</g>
<!-- Node37 -->
<g id="node37" class="node">
<title>Node37</title>
<polygon fill="none" stroke="#bfbfbf" points="1288,-342.5 1288,-362.5 1404,-362.5 1404,-342.5 1288,-342.5"/>
<text text-anchor="middle" x="1346" y="-349.5" font-family="FreeSans" font-size="10.00" fill="#000000">G4PhysicsVector.icc</text>
</g>
<!-- Node32&#45;&gt;Node37 -->
<g id="edge59" class="edge">
<title>Node32&#45;&gt;Node37</title>
<path fill="none" stroke="#191970" d="M1093.1788,-399.4408C1145.926,-389.6473 1226.0943,-374.7626 1281.9674,-364.3888"/>
<polygon fill="#191970" stroke="#191970" points="1282.9123,-367.7732 1292.1054,-362.5065 1281.6344,-360.8909 1282.9123,-367.7732"/>
</g>
<!-- Node35&#45;&gt;Node4 -->
<g id="edge58" class="edge">
<title>Node35&#45;&gt;Node4</title>
<path fill="none" stroke="#191970" d="M1174.9039,-285.1972C1171.3529,-270.3809 1162.7391,-243.1746 1145,-228 1077.0342,-169.86 1039.6444,-188.8343 952,-171 884.7196,-157.3095 686.7857,-137.6609 594.8896,-128.9494"/>
<polygon fill="#191970" stroke="#191970" points="595.0356,-125.4477 584.7508,-127.9919 594.3774,-132.4167 595.0356,-125.4477"/>
</g>
<!-- Node35&#45;&gt;Node16 -->
<g id="edge56" class="edge">
<title>Node35&#45;&gt;Node16</title>
<path fill="none" stroke="#191970" d="M1165.7369,-285.3095C1156.5989,-277.0419 1143.5208,-265.2093 1132.8,-255.5096"/>
<polygon fill="#191970" stroke="#191970" points="1134.9292,-252.716 1125.1656,-248.6022 1130.2328,-257.9068 1134.9292,-252.716"/>
</g>
<!-- Node36 -->
<g id="node36" class="node">
<title>Node36</title>
<polygon fill="none" stroke="#bfbfbf" points="1192,-228.5 1192,-248.5 1246,-248.5 1246,-228.5 1192,-228.5"/>
<text text-anchor="middle" x="1219" y="-235.5" font-family="FreeSans" font-size="10.00" fill="#000000">stdint.h</text>
</g>
<!-- Node35&#45;&gt;Node36 -->
<g id="edge57" class="edge">
<title>Node35&#45;&gt;Node36</title>
<path fill="none" stroke="#191970" d="M1184.5088,-285.3095C1190.3618,-277.3661 1198.6397,-266.1319 1205.6188,-256.6602"/>
<polygon fill="#191970" stroke="#191970" points="1208.4419,-258.729 1211.5562,-248.6022 1202.8065,-254.5766 1208.4419,-258.729"/>
</g>
<!-- Node38&#45;&gt;Node2 -->
<g id="edge61" class="edge">
<title>Node38&#45;&gt;Node2</title>
<path fill="none" stroke="#191970" d="M785.4872,-456.3833C761.1953,-436.743 707.4329,-393.2755 677.7291,-369.2597"/>
<polygon fill="#191970" stroke="#191970" points="679.6643,-366.3235 669.6875,-362.7579 675.2632,-371.7669 679.6643,-366.3235"/>
</g>
<!-- Node38&#45;&gt;Node32 -->
<g id="edge62" class="edge">
<title>Node38&#45;&gt;Node32</title>
<path fill="none" stroke="#191970" d="M840.5312,-456.4408C881.2746,-446.8043 942.8591,-432.2387 986.6087,-421.8913"/>
<polygon fill="#191970" stroke="#191970" points="987.5634,-425.2621 996.4893,-419.5544 985.9522,-418.4501 987.5634,-425.2621"/>
</g>
<!-- Node39 -->
<g id="node39" class="node">
<title>Node39</title>
<g id="a_node39"><a xlink:href="../../d3/d76/G4DataVector_8hh.html" target="_top" xlink:title="G4DataVector.hh">
<polygon fill="none" stroke="#000000" points="758.5,-399.5 758.5,-419.5 859.5,-419.5 859.5,-399.5 758.5,-399.5"/>
<text text-anchor="middle" x="809" y="-406.5" font-family="FreeSans" font-size="10.00" fill="#000000">G4DataVector.hh</text>
</a>
</g>
</g>
<!-- Node38&#45;&gt;Node39 -->
<g id="edge63" class="edge">
<title>Node38&#45;&gt;Node39</title>
<path fill="none" stroke="#191970" d="M799.9666,-456.3095C801.39,-448.9335 803.3611,-438.72 805.0989,-429.715"/>
<polygon fill="#191970" stroke="#191970" points="808.5921,-430.0843 807.0504,-419.6022 801.7189,-428.7578 808.5921,-430.0843"/>
</g>
<!-- Node39&#45;&gt;Node2 -->
<g id="edge64" class="edge">
<title>Node39&#45;&gt;Node2</title>
<path fill="none" stroke="#191970" d="M782.1753,-399.4408C757.5061,-390.1898 720.7229,-376.3961 693.4071,-366.1527"/>
<polygon fill="#191970" stroke="#191970" points="694.404,-362.7885 683.8117,-362.5544 691.946,-369.3428 694.404,-362.7885"/>
</g>
<!-- Node39&#45;&gt;Node3 -->
<g id="edge66" class="edge">
<title>Node39&#45;&gt;Node3</title>
<path fill="none" stroke="#191970" d="M787.3895,-399.4548C762.3215,-386.4797 726.6389,-363.0565 745,-342 822.2486,-253.4113 929.7514,-394.5887 1007,-306 1029.7836,-279.8718 1025.3499,-257.4119 1007,-228 1000.3366,-217.3196 973.5601,-204.7412 950.1264,-195.3615"/>
<polygon fill="#191970" stroke="#191970" points="951.2803,-192.0548 940.6921,-191.6801 948.7356,-198.5759 951.2803,-192.0548"/>
</g>
<!-- Node39&#45;&gt;Node8 -->
<g id="edge67" class="edge">
<title>Node39&#45;&gt;Node8</title>
<path fill="none" stroke="#191970" d="M821.5874,-399.4569C843.2554,-382.3763 887.0056,-348.8486 905,-342 1055.4268,-284.7484 1209.3022,-403.3298 1255,-249 1257.6499,-240.0508 1260.5653,-235.4925 1255,-228 1218.4093,-178.7385 1034.4638,-143.9291 952.0465,-130.5577"/>
<polygon fill="#191970" stroke="#191970" points="952.4752,-127.0819 942.0482,-128.9603 951.3708,-133.9943 952.4752,-127.0819"/>
</g>
<!-- Node39&#45;&gt;Node31 -->
<g id="edge65" class="edge">
<title>Node39&#45;&gt;Node31</title>
<path fill="none" stroke="#191970" d="M847.045,-399.4927C879.2987,-390.906 927.0033,-377.9661 976.5642,-363.3613"/>
<polygon fill="#191970" stroke="#191970" points="977.5718,-366.7133 986.1662,-360.5175 975.5839,-360.0014 977.5718,-366.7133"/>
</g>
<!-- Node39&#45;&gt;Node33 -->
<g id="edge68" class="edge">
<title>Node39&#45;&gt;Node33</title>
<path fill="none" stroke="#191970" d="M832.2951,-399.4408C853.3714,-390.3396 884.6299,-376.8416 908.2245,-366.6531"/>
<polygon fill="#191970" stroke="#191970" points="909.7007,-369.8281 917.4938,-362.6504 906.9256,-363.4016 909.7007,-369.8281"/>
</g>
<!-- Node40 -->
<g id="node40" class="node">
<title>Node40</title>
<polygon fill="none" stroke="#bfbfbf" points="753.5,-342.5 753.5,-362.5 856.5,-362.5 856.5,-342.5 753.5,-342.5"/>
<text text-anchor="middle" x="805" y="-349.5" font-family="FreeSans" font-size="10.00" fill="#000000">G4DataVector.icc</text>
</g>
<!-- Node39&#45;&gt;Node40 -->
<g id="edge69" class="edge">
<title>Node39&#45;&gt;Node40</title>
<path fill="none" stroke="#191970" d="M808.2849,-399.3095C807.7673,-391.9335 807.0505,-381.72 806.4186,-372.715"/>
<polygon fill="#191970" stroke="#191970" points="809.9005,-372.3327 805.7089,-362.6022 802.9176,-372.8227 809.9005,-372.3327"/>
</g>
</g>
</svg>
