<?xml version="1.0" encoding="UTF-8" standalone="no"?>
<!DOCTYPE svg PUBLIC "-//W3C//DTD SVG 1.1//EN"
 "http://www.w3.org/Graphics/SVG/1.1/DTD/svg11.dtd">
<!-- Generated by graphviz version 2.40.1 (20161225.0304)
 -->
<!-- Title: pyG4VUserDetectorConstruction::CB_G4VUserDetectorConstruction Pages: 1 -->
<svg width="352pt" height="110pt"
 viewBox="0.00 0.00 352.00 110.00" xmlns="http://www.w3.org/2000/svg" xmlns:xlink="http://www.w3.org/1999/xlink">
<g id="graph0" class="graph" transform="scale(1 1) rotate(0) translate(4 106)">
<title>pyG4VUserDetectorConstruction::CB_G4VUserDetectorConstruction</title>
<!-- Node1 -->
<g id="node1" class="node">
<title>Node1</title>
<polygon fill="#bfbfbf" stroke="#000000" points="77,-.5 77,-32.5 271,-32.5 271,-.5 77,-.5"/>
<text text-anchor="start" x="85" y="-19.5" font-family="FreeSans" font-size="10.00" fill="#000000">pyG4VUserDetectorConstruction</text>
<text text-anchor="middle" x="174" y="-7.5" font-family="FreeSans" font-size="10.00" fill="#000000">::CB_G4VUserDetectorConstruction</text>
</g>
<!-- Node2 -->
<g id="node2" class="node">
<title>Node2</title>
<g id="a_node2"><a xlink:href="../../d6/df8/classG4VUserDetectorConstruction.html" target="_top" xlink:title="G4VUserDetectorConstruction">
<polygon fill="none" stroke="#000000" points="0,-75.5 0,-95.5 168,-95.5 168,-75.5 0,-75.5"/>
<text text-anchor="middle" x="84" y="-82.5" font-family="FreeSans" font-size="10.00" fill="#000000">G4VUserDetectorConstruction</text>
</a>
</g>
</g>
<!-- Node2&#45;&gt;Node1 -->
<g id="edge1" class="edge">
<title>Node2&#45;&gt;Node1</title>
<path fill="none" stroke="#191970" d="M105.5743,-68.9597C119.9412,-57.9451 138.7253,-43.544 152.9771,-32.6175"/>
<polygon fill="#191970" stroke="#191970" points="103.0864,-66.4568 97.2798,-75.3188 107.3454,-72.0121 103.0864,-66.4568"/>
</g>
<!-- Node3 -->
<g id="node3" class="node">
<title>Node3</title>
<polygon fill="none" stroke="#bfbfbf" points="186,-69.5 186,-101.5 344,-101.5 344,-69.5 186,-69.5"/>
<text text-anchor="start" x="194" y="-88.5" font-family="FreeSans" font-size="10.00" fill="#000000">wrapper&lt; G4VUserDetector</text>
<text text-anchor="middle" x="265" y="-76.5" font-family="FreeSans" font-size="10.00" fill="#000000">Construction &gt;</text>
</g>
<!-- Node3&#45;&gt;Node1 -->
<g id="edge2" class="edge">
<title>Node3&#45;&gt;Node1</title>
<path fill="none" stroke="#191970" d="M235.6201,-63.2229C222.4955,-53.2713 207.3158,-41.7614 195.3067,-32.6557"/>
<polygon fill="#191970" stroke="#191970" points="233.811,-66.2435 243.894,-69.4966 238.0404,-60.6657 233.811,-66.2435"/>
</g>
</g>
</svg>
