<?xml version="1.0" encoding="UTF-8" standalone="no"?>
<!DOCTYPE svg PUBLIC "-//W3C//DTD SVG 1.1//EN"
 "http://www.w3.org/Graphics/SVG/1.1/DTD/svg11.dtd">
<!-- Generated by graphviz version 2.40.1 (20161225.0304)
 -->
<!-- Title: G4VAlphaBuilder Pages: 1 -->
<svg width="272pt" height="143pt"
 viewBox="0.00 0.00 271.50 143.00" xmlns="http://www.w3.org/2000/svg" xmlns:xlink="http://www.w3.org/1999/xlink">
<g id="graph0" class="graph" transform="scale(1 1) rotate(0) translate(4 139)">
<title>G4VAlphaBuilder</title>
<!-- Node1 -->
<g id="node1" class="node">
<title>Node1</title>
<polygon fill="#bfbfbf" stroke="#000000" points="77,-57.5 77,-77.5 179,-77.5 179,-57.5 77,-57.5"/>
<text text-anchor="middle" x="128" y="-64.5" font-family="FreeSans" font-size="10.00" fill="#000000">G4VAlphaBuilder</text>
</g>
<!-- Node3 -->
<g id="node3" class="node">
<title>Node3</title>
<g id="a_node3"><a xlink:href="../../d8/d23/classG4AlphaPHPBuilder.html" target="_top" xlink:title="G4AlphaPHPBuilder">
<polygon fill="none" stroke="#000000" points="0,-.5 0,-20.5 116,-20.5 116,-.5 0,-.5"/>
<text text-anchor="middle" x="58" y="-7.5" font-family="FreeSans" font-size="10.00" fill="#000000">G4AlphaPHPBuilder</text>
</a>
</g>
</g>
<!-- Node1&#45;&gt;Node3 -->
<g id="edge2" class="edge">
<title>Node1&#45;&gt;Node3</title>
<path fill="none" stroke="#191970" d="M107.6824,-50.9557C95.6244,-41.137 80.7267,-29.006 70.4063,-20.6022"/>
<polygon fill="#191970" stroke="#191970" points="105.521,-53.7093 115.4854,-57.3095 109.941,-48.2812 105.521,-53.7093"/>
</g>
<!-- Node4 -->
<g id="node4" class="node">
<title>Node4</title>
<g id="a_node4"><a xlink:href="../../df/da9/classG4BinaryAlphaBuilder.html" target="_top" xlink:title="G4BinaryAlphaBuilder">
<polygon fill="none" stroke="#000000" points="134.5,-.5 134.5,-20.5 263.5,-20.5 263.5,-.5 134.5,-.5"/>
<text text-anchor="middle" x="199" y="-7.5" font-family="FreeSans" font-size="10.00" fill="#000000">G4BinaryAlphaBuilder</text>
</a>
</g>
</g>
<!-- Node1&#45;&gt;Node4 -->
<g id="edge3" class="edge">
<title>Node1&#45;&gt;Node4</title>
<path fill="none" stroke="#191970" d="M148.6078,-50.9557C160.8381,-41.137 175.9486,-29.006 186.4165,-20.6022"/>
<polygon fill="#191970" stroke="#191970" points="146.3002,-48.3199 140.6934,-57.3095 150.6825,-53.7785 146.3002,-48.3199"/>
</g>
<!-- Node2 -->
<g id="node2" class="node">
<title>Node2</title>
<g id="a_node2"><a xlink:href="../../de/dc8/classG4PhysicsBuilderInterface.html" target="_top" xlink:title="G4PhysicsBuilderInterface">
<polygon fill="none" stroke="#000000" points="53.5,-114.5 53.5,-134.5 202.5,-134.5 202.5,-114.5 53.5,-114.5"/>
<text text-anchor="middle" x="128" y="-121.5" font-family="FreeSans" font-size="10.00" fill="#000000">G4PhysicsBuilderInterface</text>
</a>
</g>
</g>
<!-- Node2&#45;&gt;Node1 -->
<g id="edge1" class="edge">
<title>Node2&#45;&gt;Node1</title>
<path fill="none" stroke="#191970" d="M128,-104.1771C128,-95.1625 128,-84.9556 128,-77.6022"/>
<polygon fill="#191970" stroke="#191970" points="124.5001,-104.3095 128,-114.3095 131.5001,-104.3096 124.5001,-104.3095"/>
</g>
</g>
</svg>
