<?xml version="1.0" encoding="UTF-8" standalone="no"?>
<!DOCTYPE svg PUBLIC "-//W3C//DTD SVG 1.1//EN"
 "http://www.w3.org/Graphics/SVG/1.1/DTD/svg11.dtd">
<!-- Generated by graphviz version 2.40.1 (20161225.0304)
 -->
<!-- Title: ecce&#45;detectors/blob/master/FastPID/mRICH/PID.h Pages: 1 -->
<svg width="290pt" height="365pt"
 viewBox="0.00 0.00 289.50 365.00" xmlns="http://www.w3.org/2000/svg" xmlns:xlink="http://www.w3.org/1999/xlink">
<g id="graph0" class="graph" transform="scale(1 1) rotate(0) translate(4 361)">
<title>ecce&#45;detectors/blob/master/FastPID/mRICH/PID.h</title>
<!-- Node1 -->
<g id="node1" class="node">
<title>Node1</title>
<polygon fill="#bfbfbf" stroke="#000000" points="58.5,-324.5 58.5,-356.5 221.5,-356.5 221.5,-324.5 58.5,-324.5"/>
<text text-anchor="start" x="66.5" y="-343.5" font-family="FreeSans" font-size="10.00" fill="#000000">ecce&#45;detectors/blob</text>
<text text-anchor="middle" x="140" y="-331.5" font-family="FreeSans" font-size="10.00" fill="#000000">/master/FastPID/mRICH/PID.h</text>
</g>
<!-- Node2 -->
<g id="node2" class="node">
<title>Node2</title>
<g id="a_node2"><a xlink:href="../../d8/d37/genericDetector_8h.html" target="_top" xlink:title="ecce&#45;detectors/blob\l/master/FastPID/dRICH\l/genericDetector.h">
<polygon fill="none" stroke="#000000" points="0,-243.5 0,-287.5 130,-287.5 130,-243.5 0,-243.5"/>
<text text-anchor="start" x="8" y="-274.5" font-family="FreeSans" font-size="10.00" fill="#000000">ecce&#45;detectors/blob</text>
<text text-anchor="start" x="8" y="-262.5" font-family="FreeSans" font-size="10.00" fill="#000000">/master/FastPID/dRICH</text>
<text text-anchor="middle" x="65" y="-250.5" font-family="FreeSans" font-size="10.00" fill="#000000">/genericDetector.h</text>
</a>
</g>
</g>
<!-- Node1&#45;&gt;Node2 -->
<g id="edge1" class="edge">
<title>Node1&#45;&gt;Node2</title>
<path fill="none" stroke="#191970" d="M116.562,-317.062C107.1949,-307.6949 96.459,-296.959 87.2171,-287.7171"/>
<polygon fill="#191970" stroke="#191970" points="114.1801,-319.6299 123.7261,-324.2261 119.1299,-314.6801 114.1801,-319.6299"/>
</g>
<!-- Node6 -->
<g id="node6" class="node">
<title>Node6</title>
<g id="a_node6"><a xlink:href="../../d5/d57/mRICH_8h.html" target="_top" xlink:title="ecce&#45;detectors/blob\l/master/FastPID/mRICH\l/mRICH.h">
<polygon fill="none" stroke="#000000" points="148.5,-243.5 148.5,-287.5 281.5,-287.5 281.5,-243.5 148.5,-243.5"/>
<text text-anchor="start" x="156.5" y="-274.5" font-family="FreeSans" font-size="10.00" fill="#000000">ecce&#45;detectors/blob</text>
<text text-anchor="start" x="156.5" y="-262.5" font-family="FreeSans" font-size="10.00" fill="#000000">/master/FastPID/mRICH</text>
<text text-anchor="middle" x="215" y="-250.5" font-family="FreeSans" font-size="10.00" fill="#000000">/mRICH.h</text>
</a>
</g>
</g>
<!-- Node1&#45;&gt;Node6 -->
<g id="edge5" class="edge">
<title>Node1&#45;&gt;Node6</title>
<path fill="none" stroke="#191970" d="M163.438,-317.062C172.8051,-307.6949 183.541,-296.959 192.7829,-287.7171"/>
<polygon fill="#191970" stroke="#191970" points="160.8701,-314.6801 156.2739,-324.2261 165.8199,-319.6299 160.8701,-314.6801"/>
</g>
<!-- Node3 -->
<g id="node3" class="node">
<title>Node3</title>
<g id="a_node3"><a xlink:href="../../d9/da3/genericRICH_8h.html" target="_top" xlink:title="ecce&#45;detectors/blob\l/master/FastPID/dRICH\l/genericRICH.h">
<polygon fill="none" stroke="#000000" points="0,-162.5 0,-206.5 130,-206.5 130,-162.5 0,-162.5"/>
<text text-anchor="start" x="8" y="-193.5" font-family="FreeSans" font-size="10.00" fill="#000000">ecce&#45;detectors/blob</text>
<text text-anchor="start" x="8" y="-181.5" font-family="FreeSans" font-size="10.00" fill="#000000">/master/FastPID/dRICH</text>
<text text-anchor="middle" x="65" y="-169.5" font-family="FreeSans" font-size="10.00" fill="#000000">/genericRICH.h</text>
</a>
</g>
</g>
<!-- Node2&#45;&gt;Node3 -->
<g id="edge2" class="edge">
<title>Node2&#45;&gt;Node3</title>
<path fill="none" stroke="#191970" d="M65,-233.2457C65,-224.3118 65,-214.8188 65,-206.6068"/>
<polygon fill="#191970" stroke="#191970" points="61.5001,-233.3664 65,-243.3664 68.5001,-233.3664 61.5001,-233.3664"/>
</g>
<!-- Node4 -->
<g id="node4" class="node">
<title>Node4</title>
<g id="a_node4"><a xlink:href="../../d3/ddb/dualRICH_8h.html" target="_top" xlink:title="ecce&#45;detectors/blob\l/master/FastPID/dRICH\l/dualRICH.h">
<polygon fill="none" stroke="#000000" points="0,-81.5 0,-125.5 130,-125.5 130,-81.5 0,-81.5"/>
<text text-anchor="start" x="8" y="-112.5" font-family="FreeSans" font-size="10.00" fill="#000000">ecce&#45;detectors/blob</text>
<text text-anchor="start" x="8" y="-100.5" font-family="FreeSans" font-size="10.00" fill="#000000">/master/FastPID/dRICH</text>
<text text-anchor="middle" x="65" y="-88.5" font-family="FreeSans" font-size="10.00" fill="#000000">/dualRICH.h</text>
</a>
</g>
</g>
<!-- Node3&#45;&gt;Node4 -->
<g id="edge3" class="edge">
<title>Node3&#45;&gt;Node4</title>
<path fill="none" stroke="#191970" d="M65,-152.2457C65,-143.3118 65,-133.8188 65,-125.6068"/>
<polygon fill="#191970" stroke="#191970" points="61.5001,-152.3664 65,-162.3664 68.5001,-152.3664 61.5001,-152.3664"/>
</g>
<!-- Node5 -->
<g id="node5" class="node">
<title>Node5</title>
<g id="a_node5"><a xlink:href="../../de/db3/dRICH_8C.html" target="_top" xlink:title="ecce&#45;detectors/blob\l/master/FastPID/dRICH\l/dRICH.C">
<polygon fill="none" stroke="#000000" points="0,-.5 0,-44.5 130,-44.5 130,-.5 0,-.5"/>
<text text-anchor="start" x="8" y="-31.5" font-family="FreeSans" font-size="10.00" fill="#000000">ecce&#45;detectors/blob</text>
<text text-anchor="start" x="8" y="-19.5" font-family="FreeSans" font-size="10.00" fill="#000000">/master/FastPID/dRICH</text>
<text text-anchor="middle" x="65" y="-7.5" font-family="FreeSans" font-size="10.00" fill="#000000">/dRICH.C</text>
</a>
</g>
</g>
<!-- Node4&#45;&gt;Node5 -->
<g id="edge4" class="edge">
<title>Node4&#45;&gt;Node5</title>
<path fill="none" stroke="#191970" d="M65,-71.2457C65,-62.3118 65,-52.8188 65,-44.6068"/>
<polygon fill="#191970" stroke="#191970" points="61.5001,-71.3664 65,-81.3664 68.5001,-71.3664 61.5001,-71.3664"/>
</g>
<!-- Node7 -->
<g id="node7" class="node">
<title>Node7</title>
<g id="a_node7"><a xlink:href="../../df/d97/mRICH_8C.html" target="_top" xlink:title="ecce&#45;detectors/blob\l/master/FastPID/mRICH\l/mRICH.C">
<polygon fill="none" stroke="#000000" points="148.5,-162.5 148.5,-206.5 281.5,-206.5 281.5,-162.5 148.5,-162.5"/>
<text text-anchor="start" x="156.5" y="-193.5" font-family="FreeSans" font-size="10.00" fill="#000000">ecce&#45;detectors/blob</text>
<text text-anchor="start" x="156.5" y="-181.5" font-family="FreeSans" font-size="10.00" fill="#000000">/master/FastPID/mRICH</text>
<text text-anchor="middle" x="215" y="-169.5" font-family="FreeSans" font-size="10.00" fill="#000000">/mRICH.C</text>
</a>
</g>
</g>
<!-- Node6&#45;&gt;Node7 -->
<g id="edge6" class="edge">
<title>Node6&#45;&gt;Node7</title>
<path fill="none" stroke="#191970" d="M215,-233.2457C215,-224.3118 215,-214.8188 215,-206.6068"/>
<polygon fill="#191970" stroke="#191970" points="211.5001,-233.3664 215,-243.3664 218.5001,-233.3664 211.5001,-233.3664"/>
</g>
<!-- Node8 -->
<g id="node8" class="node">
<title>Node8</title>
<g id="a_node8"><a xlink:href="../../d3/dad/RUNME_8C.html" target="_top" xlink:title="ecce&#45;detectors/blob\l/master/FastPID/mRICH\l/RUNME.C">
<polygon fill="none" stroke="#000000" points="148.5,-81.5 148.5,-125.5 281.5,-125.5 281.5,-81.5 148.5,-81.5"/>
<text text-anchor="start" x="156.5" y="-112.5" font-family="FreeSans" font-size="10.00" fill="#000000">ecce&#45;detectors/blob</text>
<text text-anchor="start" x="156.5" y="-100.5" font-family="FreeSans" font-size="10.00" fill="#000000">/master/FastPID/mRICH</text>
<text text-anchor="middle" x="215" y="-88.5" font-family="FreeSans" font-size="10.00" fill="#000000">/RUNME.C</text>
</a>
</g>
</g>
<!-- Node7&#45;&gt;Node8 -->
<g id="edge7" class="edge">
<title>Node7&#45;&gt;Node8</title>
<path fill="none" stroke="#191970" d="M215,-152.2457C215,-143.3118 215,-133.8188 215,-125.6068"/>
<polygon fill="#191970" stroke="#191970" points="211.5001,-152.3664 215,-162.3664 218.5001,-152.3664 211.5001,-152.3664"/>
</g>
</g>
</svg>
