<?xml version="1.0" encoding="UTF-8" standalone="no"?>
<!DOCTYPE svg PUBLIC "-//W3C//DTD SVG 1.1//EN"
 "http://www.w3.org/Graphics/SVG/1.1/DTD/svg11.dtd">
<!-- Generated by graphviz version 2.40.1 (20161225.0304)
 -->
<!-- Title: Par01PionShowerModel::IsApplicable Pages: 1 -->
<svg width="1872pt" height="361pt"
 viewBox="0.00 0.00 1872.00 361.41" xmlns="http://www.w3.org/2000/svg" xmlns:xlink="http://www.w3.org/1999/xlink">
<g id="graph0" class="graph" transform="scale(1 1) rotate(0) translate(4 357.4064)">
<title>Par01PionShowerModel::IsApplicable</title>
<!-- Node1 -->
<g id="node1" class="node">
<title>Node1</title>
<polygon fill="#bfbfbf" stroke="#000000" points="0,-108.9584 0,-140.9584 134,-140.9584 134,-108.9584 0,-108.9584"/>
<text text-anchor="start" x="8" y="-127.9584" font-family="FreeSans" font-size="10.00" fill="#000000">Par01PionShowerModel</text>
<text text-anchor="middle" x="67" y="-115.9584" font-family="FreeSans" font-size="10.00" fill="#000000">::IsApplicable</text>
</g>
<!-- Node2 -->
<g id="node2" class="node">
<title>Node2</title>
<g id="a_node2"><a xlink:href="../../d8/d83/classG4PionMinus.html#a86d1fa247ac084a34349a2be73398541" target="_top" xlink:title="G4PionMinus::PionMinusDefinition">
<polygon fill="none" stroke="#000000" points="170,-134.9584 170,-154.9584 358,-154.9584 358,-134.9584 170,-134.9584"/>
<text text-anchor="middle" x="264" y="-141.9584" font-family="FreeSans" font-size="10.00" fill="#000000">G4PionMinus::PionMinusDefinition</text>
</a>
</g>
</g>
<!-- Node1&#45;&gt;Node2 -->
<g id="edge1" class="edge">
<title>Node1&#45;&gt;Node2</title>
<path fill="none" stroke="#191970" d="M134.2452,-131.7853C142.497,-132.6231 151.0753,-133.494 159.7131,-134.3709"/>
<polygon fill="#191970" stroke="#191970" points="159.5621,-137.8735 169.8645,-135.4015 160.2692,-130.9093 159.5621,-137.8735"/>
</g>
<!-- Node25 -->
<g id="node25" class="node">
<title>Node25</title>
<g id="a_node25"><a xlink:href="../../d0/dc2/classG4PionPlus.html#aa5dee945dcf2c16926bf421209774b60" target="_top" xlink:title="G4PionPlus::PionPlusDefinition">
<polygon fill="none" stroke="#000000" points="179,-95.9584 179,-115.9584 349,-115.9584 349,-95.9584 179,-95.9584"/>
<text text-anchor="middle" x="264" y="-102.9584" font-family="FreeSans" font-size="10.00" fill="#000000">G4PionPlus::PionPlusDefinition</text>
</a>
</g>
</g>
<!-- Node1&#45;&gt;Node25 -->
<g id="edge28" class="edge">
<title>Node1&#45;&gt;Node25</title>
<path fill="none" stroke="#191970" d="M134.2452,-118.4728C145.3663,-117.4002 157.0805,-116.2704 168.7342,-115.1465"/>
<polygon fill="#191970" stroke="#191970" points="169.3255,-118.6058 178.9433,-114.1618 168.6534,-111.6381 169.3255,-118.6058"/>
</g>
<!-- Node3 -->
<g id="node3" class="node">
<title>Node3</title>
<g id="a_node3"><a xlink:href="../../d8/d83/classG4PionMinus.html#aeb880456d39effd51a89a831d874c16c" target="_top" xlink:title="G4PionMinus::Definition">
<polygon fill="none" stroke="#000000" points="394,-135.9584 394,-155.9584 531,-155.9584 531,-135.9584 394,-135.9584"/>
<text text-anchor="middle" x="462.5" y="-142.9584" font-family="FreeSans" font-size="10.00" fill="#000000">G4PionMinus::Definition</text>
</a>
</g>
</g>
<!-- Node2&#45;&gt;Node3 -->
<g id="edge2" class="edge">
<title>Node2&#45;&gt;Node3</title>
<path fill="none" stroke="#191970" d="M358.0183,-145.432C366.6384,-145.4755 375.3114,-145.5192 383.776,-145.5618"/>
<polygon fill="#191970" stroke="#191970" points="383.9627,-149.0627 393.9802,-145.6132 383.998,-142.0628 383.9627,-149.0627"/>
</g>
<!-- Node4 -->
<g id="node4" class="node">
<title>Node4</title>
<g id="a_node4"><a xlink:href="../../d8/dd3/classG4ParticleTable.html#a891da3f41417c3800e7596fab298c3c5" target="_top" xlink:title="G4ParticleTable::FindParticle">
<polygon fill="none" stroke="#000000" points="1370,-187.9584 1370,-207.9584 1529,-207.9584 1529,-187.9584 1370,-187.9584"/>
<text text-anchor="middle" x="1449.5" y="-194.9584" font-family="FreeSans" font-size="10.00" fill="#000000">G4ParticleTable::FindParticle</text>
</a>
</g>
</g>
<!-- Node3&#45;&gt;Node4 -->
<g id="edge3" class="edge">
<title>Node3&#45;&gt;Node4</title>
<path fill="none" stroke="#191970" d="M473.8074,-156.1337C492.0581,-172.0026 529.743,-202.5248 567,-218.9584 800.3899,-321.9039 900.3299,-410.2664 1134,-307.9584 1155.6087,-298.4974 1149.7375,-281.0363 1170,-268.9584 1248.7969,-221.9896 1281.0747,-240.4819 1370,-217.9584 1379.5228,-215.5464 1389.6898,-212.9811 1399.4614,-210.5206"/>
<polygon fill="#191970" stroke="#191970" points="1400.6142,-213.8397 1409.4578,-208.0052 1398.9059,-207.0513 1400.6142,-213.8397"/>
</g>
<!-- Node9 -->
<g id="node9" class="node">
<title>Node9</title>
<g id="a_node9"><a xlink:href="../../d5/d38/classG4ParticleDefinition.html#a62ed9b48da6b7fd47ba568dd9777007f" target="_top" xlink:title="G4ParticleDefinition\l::G4ParticleDefinition">
<polygon fill="none" stroke="#000000" points="583.5,-86.9584 583.5,-118.9584 706.5,-118.9584 706.5,-86.9584 583.5,-86.9584"/>
<text text-anchor="start" x="591.5" y="-105.9584" font-family="FreeSans" font-size="10.00" fill="#000000">G4ParticleDefinition</text>
<text text-anchor="middle" x="645" y="-93.9584" font-family="FreeSans" font-size="10.00" fill="#000000">::G4ParticleDefinition</text>
</a>
</g>
</g>
<!-- Node3&#45;&gt;Node9 -->
<g id="edge8" class="edge">
<title>Node3&#45;&gt;Node9</title>
<path fill="none" stroke="#191970" d="M505.2881,-135.8768C525.6611,-131.0766 550.5743,-125.2066 573.692,-119.7597"/>
<polygon fill="#191970" stroke="#191970" points="574.5405,-123.1557 583.4712,-117.4556 572.9351,-116.3423 574.5405,-123.1557"/>
</g>
<!-- Node10 -->
<g id="node10" class="node">
<title>Node10</title>
<g id="a_node10"><a xlink:href="../../d8/dd3/classG4ParticleTable.html#a8bb5b636696da4abae3ca7ea0ea5af95" target="_top" xlink:title="G4ParticleTable::GetParticle\lTable">
<polygon fill="none" stroke="#000000" points="567,-176.9584 567,-208.9584 723,-208.9584 723,-176.9584 567,-176.9584"/>
<text text-anchor="start" x="575" y="-195.9584" font-family="FreeSans" font-size="10.00" fill="#000000">G4ParticleTable::GetParticle</text>
<text text-anchor="middle" x="645" y="-183.9584" font-family="FreeSans" font-size="10.00" fill="#000000">Table</text>
</a>
</g>
</g>
<!-- Node3&#45;&gt;Node10 -->
<g id="edge10" class="edge">
<title>Node3&#45;&gt;Node10</title>
<path fill="none" stroke="#191970" d="M501.6508,-156.0411C522.3627,-161.3751 548.4599,-168.096 572.6927,-174.3368"/>
<polygon fill="#191970" stroke="#191970" points="572.0268,-177.7794 582.5837,-176.8841 573.7726,-171.0006 572.0268,-177.7794"/>
</g>
<!-- Node16 -->
<g id="node16" class="node">
<title>Node16</title>
<g id="a_node16"><a xlink:href="../../db/d89/classG4DecayTable.html#a3edb3d6c42c02f3554e3121f5f079f6f" target="_top" xlink:title="G4DecayTable::Insert">
<polygon fill="none" stroke="#000000" points="582.5,-137.9584 582.5,-157.9584 707.5,-157.9584 707.5,-137.9584 582.5,-137.9584"/>
<text text-anchor="middle" x="645" y="-144.9584" font-family="FreeSans" font-size="10.00" fill="#000000">G4DecayTable::Insert</text>
</a>
</g>
</g>
<!-- Node3&#45;&gt;Node16 -->
<g id="edge17" class="edge">
<title>Node3&#45;&gt;Node16</title>
<path fill="none" stroke="#191970" d="M531.2354,-146.7117C544.6013,-146.8581 558.6546,-147.0121 572.1479,-147.16"/>
<polygon fill="#191970" stroke="#191970" points="572.2987,-150.6618 582.3365,-147.2717 572.3755,-143.6622 572.2987,-150.6618"/>
</g>
<!-- Node24 -->
<g id="node24" class="node">
<title>Node24</title>
<g id="a_node24"><a xlink:href="../../d5/d38/classG4ParticleDefinition.html#ad3c610e90b4ba111581b30943d66cfea" target="_top" xlink:title="G4ParticleDefinition\l::SetDecayTable">
<polygon fill="none" stroke="#000000" points="587,-35.9584 587,-67.9584 703,-67.9584 703,-35.9584 587,-35.9584"/>
<text text-anchor="start" x="595" y="-54.9584" font-family="FreeSans" font-size="10.00" fill="#000000">G4ParticleDefinition</text>
<text text-anchor="middle" x="645" y="-42.9584" font-family="FreeSans" font-size="10.00" fill="#000000">::SetDecayTable</text>
</a>
</g>
</g>
<!-- Node3&#45;&gt;Node24 -->
<g id="edge27" class="edge">
<title>Node3&#45;&gt;Node24</title>
<path fill="none" stroke="#191970" d="M509.6625,-135.8286C517.1829,-133.0221 524.5877,-129.4629 531,-124.9584 552.8208,-109.6299 545.2769,-92.4251 567,-76.9584 570.2942,-74.6129 573.819,-72.4801 577.4826,-70.5415"/>
<polygon fill="#191970" stroke="#191970" points="579.2866,-73.5597 586.8227,-66.1126 576.2874,-67.2347 579.2866,-73.5597"/>
</g>
<!-- Node5 -->
<g id="node5" class="node">
<title>Node5</title>
<g id="a_node5"><a xlink:href="../../d8/dd3/classG4ParticleTable.html#a5dcd173398768b18c5ba132bbd8f427b" target="_top" xlink:title="G4ParticleTable::CheckReadiness">
<polygon fill="none" stroke="#000000" points="1565,-207.9584 1565,-227.9584 1748,-227.9584 1748,-207.9584 1565,-207.9584"/>
<text text-anchor="middle" x="1656.5" y="-214.9584" font-family="FreeSans" font-size="10.00" fill="#000000">G4ParticleTable::CheckReadiness</text>
</a>
</g>
</g>
<!-- Node4&#45;&gt;Node5 -->
<g id="edge4" class="edge">
<title>Node4&#45;&gt;Node5</title>
<path fill="none" stroke="#191970" d="M1529.2355,-205.6623C1537.5852,-206.469 1546.1531,-207.2968 1554.7054,-208.1232"/>
<polygon fill="#191970" stroke="#191970" points="1554.4336,-211.6131 1564.7239,-209.0911 1555.1069,-204.6456 1554.4336,-211.6131"/>
</g>
<!-- Node7 -->
<g id="node7" class="node">
<title>Node7</title>
<g id="a_node7"><a xlink:href="../../d8/dd3/classG4ParticleTable.html#ad3150940809a36b87123558264d30108" target="_top" xlink:title="G4ParticleTable::GetKey">
<polygon fill="none" stroke="#000000" points="1588,-316.9584 1588,-336.9584 1725,-336.9584 1725,-316.9584 1588,-316.9584"/>
<text text-anchor="middle" x="1656.5" y="-323.9584" font-family="FreeSans" font-size="10.00" fill="#000000">G4ParticleTable::GetKey</text>
</a>
</g>
</g>
<!-- Node4&#45;&gt;Node7 -->
<g id="edge6" class="edge">
<title>Node4&#45;&gt;Node7</title>
<path fill="none" stroke="#191970" d="M1503.7635,-208.0292C1512.4554,-210.6464 1521.1606,-213.908 1529,-217.9584 1575.0248,-241.7381 1618.651,-285.1018 1640.9884,-309.3498"/>
<polygon fill="#191970" stroke="#191970" points="1638.4137,-311.7209 1647.7202,-316.7844 1643.6026,-307.0224 1638.4137,-311.7209"/>
</g>
<!-- Node8 -->
<g id="node8" class="node">
<title>Node8</title>
<g id="a_node8"><a xlink:href="../../d7/d23/namespaceG4Threading.html#a4bce96528c21592b91483fb2ab5b6215" target="_top" xlink:title="G4Threading::IsWorkerThread">
<polygon fill="none" stroke="#000000" points="1572.5,-168.9584 1572.5,-188.9584 1740.5,-188.9584 1740.5,-168.9584 1572.5,-168.9584"/>
<text text-anchor="middle" x="1656.5" y="-175.9584" font-family="FreeSans" font-size="10.00" fill="#000000">G4Threading::IsWorkerThread</text>
</a>
</g>
</g>
<!-- Node4&#45;&gt;Node8 -->
<g id="edge7" class="edge">
<title>Node4&#45;&gt;Node8</title>
<path fill="none" stroke="#191970" d="M1529.2355,-190.6397C1540.0481,-189.6472 1551.2266,-188.6212 1562.2634,-187.6081"/>
<polygon fill="#191970" stroke="#191970" points="1562.7066,-191.0822 1572.3448,-186.6828 1562.0667,-184.1116 1562.7066,-191.0822"/>
</g>
<!-- Node6 -->
<g id="node6" class="node">
<title>Node6</title>
<g id="a_node6"><a xlink:href="../../d5/d4f/G4Exception_8hh.html#ad36b5da5d062a20ca47b1c1f1ae353dd" target="_top" xlink:title="G4Exception">
<polygon fill="none" stroke="#000000" points="1784,-207.9584 1784,-227.9584 1864,-227.9584 1864,-207.9584 1784,-207.9584"/>
<text text-anchor="middle" x="1824" y="-214.9584" font-family="FreeSans" font-size="10.00" fill="#000000">G4Exception</text>
</a>
</g>
</g>
<!-- Node5&#45;&gt;Node6 -->
<g id="edge5" class="edge">
<title>Node5&#45;&gt;Node6</title>
<path fill="none" stroke="#191970" d="M1748.0913,-217.9584C1756.8984,-217.9584 1765.5889,-217.9584 1773.7684,-217.9584"/>
<polygon fill="#191970" stroke="#191970" points="1773.8264,-221.4585 1783.8263,-217.9584 1773.8263,-214.4585 1773.8264,-221.4585"/>
</g>
<!-- Node9&#45;&gt;Node6 -->
<g id="edge9" class="edge">
<title>Node9&#45;&gt;Node6</title>
<path fill="none" stroke="#191970" d="M701.174,-86.8957C719.4858,-82.1369 739.9942,-77.3084 759,-73.9584 886.3475,-51.5117 919.1894,-44.9584 1048.5,-44.9584 1048.5,-44.9584 1048.5,-44.9584 1449.5,-44.9584 1597.7361,-44.9584 1751.0765,-158.0454 1804.3683,-201.3563"/>
<polygon fill="#191970" stroke="#191970" points="1802.3771,-204.2508 1812.3202,-207.9094 1806.8289,-198.8487 1802.3771,-204.2508"/>
</g>
<!-- Node11 -->
<g id="node11" class="node">
<title>Node11</title>
<g id="a_node11"><a xlink:href="../../d8/dd3/classG4ParticleTable.html#aba540bf07478ff0c30af3ee28d843041" target="_top" xlink:title="G4ParticleTable::WorkerG4\lParticleTable">
<polygon fill="none" stroke="#000000" points="767.5,-219.9584 767.5,-251.9584 918.5,-251.9584 918.5,-219.9584 767.5,-219.9584"/>
<text text-anchor="start" x="775.5" y="-238.9584" font-family="FreeSans" font-size="10.00" fill="#000000">G4ParticleTable::WorkerG4</text>
<text text-anchor="middle" x="843" y="-226.9584" font-family="FreeSans" font-size="10.00" fill="#000000">ParticleTable</text>
</a>
</g>
</g>
<!-- Node10&#45;&gt;Node11 -->
<g id="edge11" class="edge">
<title>Node10&#45;&gt;Node11</title>
<path fill="none" stroke="#191970" d="M718.7279,-208.97C731.8703,-211.8242 745.6495,-214.8166 759.0519,-217.7272"/>
<polygon fill="#191970" stroke="#191970" points="758.6955,-221.2314 769.2105,-219.9334 760.1811,-214.3908 758.6955,-221.2314"/>
</g>
<!-- Node11&#45;&gt;Node7 -->
<g id="edge12" class="edge">
<title>Node11&#45;&gt;Node7</title>
<path fill="none" stroke="#191970" d="M862.7107,-252.2093C885.3211,-269.7413 924.2837,-296.6615 963,-307.9584 1178.0169,-370.6975 1446.5997,-352.3126 1577.4637,-337.5575"/>
<polygon fill="#191970" stroke="#191970" points="1578.2549,-340.9896 1587.7888,-336.3684 1577.454,-334.0355 1578.2549,-340.9896"/>
</g>
<!-- Node12 -->
<g id="node12" class="node">
<title>Node12</title>
<g id="a_node12"><a xlink:href="../../d5/d38/classG4ParticleDefinition.html#af84019c7513ca66581ed8b3651934467" target="_top" xlink:title="G4ParticleDefinition\l::GetPDGEncoding">
<polygon fill="none" stroke="#000000" points="990.5,-226.9584 990.5,-258.9584 1106.5,-258.9584 1106.5,-226.9584 990.5,-226.9584"/>
<text text-anchor="start" x="998.5" y="-245.9584" font-family="FreeSans" font-size="10.00" fill="#000000">G4ParticleDefinition</text>
<text text-anchor="middle" x="1048.5" y="-233.9584" font-family="FreeSans" font-size="10.00" fill="#000000">::GetPDGEncoding</text>
</a>
</g>
</g>
<!-- Node11&#45;&gt;Node12 -->
<g id="edge13" class="edge">
<title>Node11&#45;&gt;Node12</title>
<path fill="none" stroke="#191970" d="M918.6451,-238.5351C938.8184,-239.2223 960.4929,-239.9606 980.2437,-240.6334"/>
<polygon fill="#191970" stroke="#191970" points="980.2653,-244.136 990.3787,-240.9786 980.5036,-237.1401 980.2653,-244.136"/>
</g>
<!-- Node13 -->
<g id="node13" class="node">
<title>Node13</title>
<g id="a_node13"><a xlink:href="../../d4/d96/classG4ParticleTableIterator.html#ae35fb8d216907e4b1614fd52f2d50f84" target="_top" xlink:title="G4ParticleTableIterator\l::reset">
<polygon fill="none" stroke="#000000" points="982.5,-175.9584 982.5,-207.9584 1114.5,-207.9584 1114.5,-175.9584 982.5,-175.9584"/>
<text text-anchor="start" x="990.5" y="-194.9584" font-family="FreeSans" font-size="10.00" fill="#000000">G4ParticleTableIterator</text>
<text text-anchor="middle" x="1048.5" y="-182.9584" font-family="FreeSans" font-size="10.00" fill="#000000">::reset</text>
</a>
</g>
</g>
<!-- Node11&#45;&gt;Node13 -->
<g id="edge14" class="edge">
<title>Node11&#45;&gt;Node13</title>
<path fill="none" stroke="#191970" d="M917.7715,-219.9489C935.5882,-216.1342 954.6197,-212.0593 972.4912,-208.2328"/>
<polygon fill="#191970" stroke="#191970" points="973.2398,-211.6519 982.2853,-206.1357 971.7742,-204.807 973.2398,-211.6519"/>
</g>
<!-- Node14 -->
<g id="node14" class="node">
<title>Node14</title>
<g id="a_node14"><a xlink:href="../../d4/d96/classG4ParticleTableIterator.html#a7220383ce5a9ddecb53331a2ecdd90d5" target="_top" xlink:title="G4ParticleTableIterator\l::value">
<polygon fill="none" stroke="#000000" points="982.5,-124.9584 982.5,-156.9584 1114.5,-156.9584 1114.5,-124.9584 982.5,-124.9584"/>
<text text-anchor="start" x="990.5" y="-143.9584" font-family="FreeSans" font-size="10.00" fill="#000000">G4ParticleTableIterator</text>
<text text-anchor="middle" x="1048.5" y="-131.9584" font-family="FreeSans" font-size="10.00" fill="#000000">::value</text>
</a>
</g>
</g>
<!-- Node11&#45;&gt;Node14 -->
<g id="edge15" class="edge">
<title>Node11&#45;&gt;Node14</title>
<path fill="none" stroke="#191970" d="M895.8109,-219.8738C906.5597,-215.5072 917.4805,-210.2162 927,-203.9584 946.1723,-191.3551 943.4057,-178.8951 963,-166.9584 966.4056,-164.8837 969.9893,-162.9635 973.6809,-161.1877"/>
<polygon fill="#191970" stroke="#191970" points="975.2991,-164.2995 983.0397,-157.0653 972.4773,-157.8935 975.2991,-164.2995"/>
</g>
<!-- Node15 -->
<g id="node15" class="node">
<title>Node15</title>
<g id="a_node15"><a xlink:href="../../da/d2b/classG4IonTable.html#a66f8ee295224ed611872572a0e47ab6e" target="_top" xlink:title="G4IonTable::WorkerG4IonTable">
<polygon fill="none" stroke="#000000" points="963,-277.9584 963,-297.9584 1134,-297.9584 1134,-277.9584 963,-277.9584"/>
<text text-anchor="middle" x="1048.5" y="-284.9584" font-family="FreeSans" font-size="10.00" fill="#000000">G4IonTable::WorkerG4IonTable</text>
</a>
</g>
</g>
<!-- Node11&#45;&gt;Node15 -->
<g id="edge16" class="edge">
<title>Node11&#45;&gt;Node15</title>
<path fill="none" stroke="#191970" d="M899.0134,-251.9823C919.1332,-257.5736 942.0308,-263.7486 963,-268.9584 972.2002,-271.2442 981.9901,-273.5435 991.5368,-275.7141"/>
<polygon fill="#191970" stroke="#191970" points="990.8383,-279.1444 1001.3626,-277.9237 992.3741,-272.3149 990.8383,-279.1444"/>
</g>
<!-- Node17 -->
<g id="node17" class="node">
<title>Node17</title>
<g id="a_node17"><a xlink:href="../../df/d2d/classG4VDecayChannel.html#a5d58c7fe44af8cd34c06d1887ef9e75b" target="_top" xlink:title="G4VDecayChannel::GetBR">
<polygon fill="none" stroke="#000000" points="768,-83.9584 768,-103.9584 918,-103.9584 918,-83.9584 768,-83.9584"/>
<text text-anchor="middle" x="843" y="-90.9584" font-family="FreeSans" font-size="10.00" fill="#000000">G4VDecayChannel::GetBR</text>
</a>
</g>
</g>
<!-- Node16&#45;&gt;Node17 -->
<g id="edge18" class="edge">
<title>Node16&#45;&gt;Node17</title>
<path fill="none" stroke="#191970" d="M688.6438,-137.9465C699.9289,-135.037 711.9965,-131.6403 723,-127.9584 739.4375,-122.4583 742.4856,-118.2233 759,-112.9584 766.412,-110.5954 774.2811,-108.4081 782.1152,-106.4226"/>
<polygon fill="#191970" stroke="#191970" points="783.096,-109.7861 791.9828,-104.0176 781.4383,-102.9852 783.096,-109.7861"/>
</g>
<!-- Node18 -->
<g id="node18" class="node">
<title>Node18</title>
<g id="a_node18"><a xlink:href="../../df/d2d/classG4VDecayChannel.html#ac39f0f3b9b175652872f0a54e7c28c12" target="_top" xlink:title="G4VDecayChannel::GetParent">
<polygon fill="none" stroke="#000000" points="759,-173.9584 759,-193.9584 927,-193.9584 927,-173.9584 759,-173.9584"/>
<text text-anchor="middle" x="843" y="-180.9584" font-family="FreeSans" font-size="10.00" fill="#000000">G4VDecayChannel::GetParent</text>
</a>
</g>
</g>
<!-- Node16&#45;&gt;Node18 -->
<g id="edge19" class="edge">
<title>Node16&#45;&gt;Node18</title>
<path fill="none" stroke="#191970" d="M700.154,-157.9864C724.1904,-162.3566 752.5481,-167.5126 777.6354,-172.0739"/>
<polygon fill="#191970" stroke="#191970" points="777.3339,-175.5764 787.7987,-173.9218 778.5861,-168.6893 777.3339,-175.5764"/>
</g>
<!-- Node23 -->
<g id="node23" class="node">
<title>Node23</title>
<g id="a_node23"><a xlink:href="../../d5/d38/classG4ParticleDefinition.html#a02a571907ec0c42bf356545826d9234f" target="_top" xlink:title="G4ParticleDefinition\l::GetParticleName">
<polygon fill="none" stroke="#000000" points="785,-122.9584 785,-154.9584 901,-154.9584 901,-122.9584 785,-122.9584"/>
<text text-anchor="start" x="793" y="-141.9584" font-family="FreeSans" font-size="10.00" fill="#000000">G4ParticleDefinition</text>
<text text-anchor="middle" x="843" y="-129.9584" font-family="FreeSans" font-size="10.00" fill="#000000">::GetParticleName</text>
</a>
</g>
</g>
<!-- Node16&#45;&gt;Node23 -->
<g id="edge26" class="edge">
<title>Node16&#45;&gt;Node23</title>
<path fill="none" stroke="#191970" d="M707.6484,-145.1107C728.9703,-144.1416 752.9046,-143.0536 774.6501,-142.0652"/>
<polygon fill="#191970" stroke="#191970" points="774.9672,-145.5545 784.7979,-141.6039 774.6492,-138.5617 774.9672,-145.5545"/>
</g>
<!-- Node19 -->
<g id="node19" class="node">
<title>Node19</title>
<g id="a_node19"><a xlink:href="../../df/d2d/classG4VDecayChannel.html#a1c515b1f4f1f9e5aafe3d0e10cb5b643" target="_top" xlink:title="G4VDecayChannel::CheckAnd\lFillParent">
<polygon fill="none" stroke="#000000" points="964.5,-73.9584 964.5,-105.9584 1132.5,-105.9584 1132.5,-73.9584 964.5,-73.9584"/>
<text text-anchor="start" x="972.5" y="-92.9584" font-family="FreeSans" font-size="10.00" fill="#000000">G4VDecayChannel::CheckAnd</text>
<text text-anchor="middle" x="1048.5" y="-80.9584" font-family="FreeSans" font-size="10.00" fill="#000000">FillParent</text>
</a>
</g>
</g>
<!-- Node18&#45;&gt;Node19 -->
<g id="edge20" class="edge">
<title>Node18&#45;&gt;Node19</title>
<path fill="none" stroke="#191970" d="M909.1215,-173.9189C915.432,-171.5329 921.5138,-168.589 927,-164.9584 949.8354,-149.8464 940.6441,-130.7711 963,-114.9584 965.0991,-113.4737 967.2861,-112.0763 969.5408,-110.7613"/>
<polygon fill="#191970" stroke="#191970" points="971.2729,-113.8056 978.5301,-106.0866 968.0432,-107.5952 971.2729,-113.8056"/>
</g>
<!-- Node20 -->
<g id="node20" class="node">
<title>Node20</title>
<g id="a_node20"><a xlink:href="../../df/d2d/classG4VDecayChannel.html#a58f654382302cd3c1c6894bd5a8c8565" target="_top" xlink:title="G4VDecayChannel::FillParent">
<polygon fill="none" stroke="#000000" points="1170,-277.9584 1170,-297.9584 1334,-297.9584 1334,-277.9584 1170,-277.9584"/>
<text text-anchor="middle" x="1252" y="-284.9584" font-family="FreeSans" font-size="10.00" fill="#000000">G4VDecayChannel::FillParent</text>
</a>
</g>
</g>
<!-- Node19&#45;&gt;Node20 -->
<g id="edge21" class="edge">
<title>Node19&#45;&gt;Node20</title>
<path fill="none" stroke="#191970" d="M1118.9947,-106.1582C1124.2936,-108.6815 1129.3707,-111.5949 1134,-114.9584 1190.2167,-155.8035 1228.266,-232.0931 1243.939,-268.1323"/>
<polygon fill="#191970" stroke="#191970" points="1240.8048,-269.7073 1247.9222,-277.5554 1247.2525,-266.9818 1240.8048,-269.7073"/>
</g>
<!-- Node22 -->
<g id="node22" class="node">
<title>Node22</title>
<g id="a_node22"><a xlink:href="../../d7/d27/classG4TemplateAutoLock.html#a1fc2695a8c9b5527f9f3c62b32a2c172" target="_top" xlink:title="G4TemplateAutoLock\l::unlock">
<polygon fill="none" stroke="#000000" points="1190,-73.9584 1190,-105.9584 1314,-105.9584 1314,-73.9584 1190,-73.9584"/>
<text text-anchor="start" x="1198" y="-92.9584" font-family="FreeSans" font-size="10.00" fill="#000000">G4TemplateAutoLock</text>
<text text-anchor="middle" x="1252" y="-80.9584" font-family="FreeSans" font-size="10.00" fill="#000000">::unlock</text>
</a>
</g>
</g>
<!-- Node19&#45;&gt;Node22 -->
<g id="edge25" class="edge">
<title>Node19&#45;&gt;Node22</title>
<path fill="none" stroke="#191970" d="M1132.7402,-89.9584C1148.2876,-89.9584 1164.3972,-89.9584 1179.5579,-89.9584"/>
<polygon fill="#191970" stroke="#191970" points="1179.8836,-93.4585 1189.8835,-89.9584 1179.8835,-86.4585 1179.8836,-93.4585"/>
</g>
<!-- Node20&#45;&gt;Node4 -->
<g id="edge22" class="edge">
<title>Node20&#45;&gt;Node4</title>
<path fill="none" stroke="#191970" d="M1301.8673,-277.9579C1313.0274,-274.341 1324.3927,-269.4747 1334,-262.9584 1355.1967,-248.5814 1348.4542,-231.8068 1370,-217.9584 1373.5693,-215.6643 1377.3854,-213.6332 1381.3424,-211.8351"/>
<polygon fill="#191970" stroke="#191970" points="1382.8039,-215.02 1390.7815,-208.0481 1380.1974,-208.5234 1382.8039,-215.02"/>
</g>
<!-- Node20&#45;&gt;Node6 -->
<g id="edge23" class="edge">
<title>Node20&#45;&gt;Node6</title>
<path fill="none" stroke="#191970" d="M1334.3624,-284.6222C1433.3792,-279.4731 1604.1962,-266.9548 1748,-237.9584 1758.3381,-235.8738 1769.3619,-233.2247 1779.715,-230.5421"/>
<polygon fill="#191970" stroke="#191970" points="1780.622,-233.9226 1789.3913,-227.9771 1778.8283,-227.1563 1780.622,-233.9226"/>
</g>
<!-- Node21 -->
<g id="node21" class="node">
<title>Node21</title>
<g id="a_node21"><a xlink:href="../../d5/d38/classG4ParticleDefinition.html#ad823b2f7c489766de74c562e2a3909bf" target="_top" xlink:title="G4ParticleDefinition\l::GetPDGMass">
<polygon fill="none" stroke="#000000" points="1391.5,-226.9584 1391.5,-258.9584 1507.5,-258.9584 1507.5,-226.9584 1391.5,-226.9584"/>
<text text-anchor="start" x="1399.5" y="-245.9584" font-family="FreeSans" font-size="10.00" fill="#000000">G4ParticleDefinition</text>
<text text-anchor="middle" x="1449.5" y="-233.9584" font-family="FreeSans" font-size="10.00" fill="#000000">::GetPDGMass</text>
</a>
</g>
</g>
<!-- Node20&#45;&gt;Node21 -->
<g id="edge24" class="edge">
<title>Node20&#45;&gt;Node21</title>
<path fill="none" stroke="#191970" d="M1296.3229,-277.8595C1321.4513,-272.134 1353.4177,-264.8506 1381.6407,-258.42"/>
<polygon fill="#191970" stroke="#191970" points="1382.4775,-261.8191 1391.4501,-256.185 1380.9224,-254.994 1382.4775,-261.8191"/>
</g>
<!-- Node26 -->
<g id="node26" class="node">
<title>Node26</title>
<g id="a_node26"><a xlink:href="../../d0/dc2/classG4PionPlus.html#a5cfffef14b8502c5a679b10ff926734f" target="_top" xlink:title="G4PionPlus::Definition">
<polygon fill="none" stroke="#000000" points="398.5,-95.9584 398.5,-115.9584 526.5,-115.9584 526.5,-95.9584 398.5,-95.9584"/>
<text text-anchor="middle" x="462.5" y="-102.9584" font-family="FreeSans" font-size="10.00" fill="#000000">G4PionPlus::Definition</text>
</a>
</g>
</g>
<!-- Node25&#45;&gt;Node26 -->
<g id="edge29" class="edge">
<title>Node25&#45;&gt;Node26</title>
<path fill="none" stroke="#191970" d="M349.0457,-105.9584C362.0815,-105.9584 375.4511,-105.9584 388.2299,-105.9584"/>
<polygon fill="#191970" stroke="#191970" points="388.3339,-109.4585 398.3338,-105.9584 388.3338,-102.4585 388.3339,-109.4585"/>
</g>
<!-- Node26&#45;&gt;Node4 -->
<g id="edge30" class="edge">
<title>Node26&#45;&gt;Node4</title>
<path fill="none" stroke="#191970" d="M471.6578,-95.806C488.496,-77.9333 526.3872,-41.2941 567,-25.9584 682.0293,17.4776 720.043,-6.9584 843,-6.9584 843,-6.9584 843,-6.9584 1048.5,-6.9584 1177.8931,-6.9584 1222.2435,1.257 1334,-63.9584 1382.8571,-92.4688 1421.1976,-149.3154 1438.8649,-178.9678"/>
<polygon fill="#191970" stroke="#191970" points="1436.0026,-181.0088 1444.0492,-187.9011 1442.057,-177.4952 1436.0026,-181.0088"/>
</g>
<!-- Node26&#45;&gt;Node9 -->
<g id="edge31" class="edge">
<title>Node26&#45;&gt;Node9</title>
<path fill="none" stroke="#191970" d="M526.5861,-104.9049C541.5234,-104.6594 557.5293,-104.3963 572.7914,-104.1454"/>
<polygon fill="#191970" stroke="#191970" points="573.2752,-107.638 583.2163,-103.974 573.1601,-100.6389 573.2752,-107.638"/>
</g>
<!-- Node26&#45;&gt;Node10 -->
<g id="edge32" class="edge">
<title>Node26&#45;&gt;Node10</title>
<path fill="none" stroke="#191970" d="M510.1331,-115.9598C517.4374,-118.5798 524.6503,-121.8604 531,-125.9584 551.657,-139.29 546.5187,-154.3584 567,-167.9584 569.3878,-169.5439 571.8831,-171.0348 574.4542,-172.436"/>
<polygon fill="#191970" stroke="#191970" points="572.9245,-175.584 583.4419,-176.8623 576.0172,-169.3043 572.9245,-175.584"/>
</g>
<!-- Node26&#45;&gt;Node16 -->
<g id="edge33" class="edge">
<title>Node26&#45;&gt;Node16</title>
<path fill="none" stroke="#191970" d="M506.2133,-116.0184C531.7403,-121.8931 564.1534,-129.3526 591.2348,-135.585"/>
<polygon fill="#191970" stroke="#191970" points="590.7972,-139.0758 601.3275,-137.9077 592.3672,-132.2541 590.7972,-139.0758"/>
</g>
<!-- Node26&#45;&gt;Node24 -->
<g id="edge34" class="edge">
<title>Node26&#45;&gt;Node24</title>
<path fill="none" stroke="#191970" d="M496.3991,-95.928C520.097,-88.916 552.4733,-79.3361 580.9569,-70.9081"/>
<polygon fill="#191970" stroke="#191970" points="582.253,-74.1747 590.8489,-67.9812 580.2668,-67.4624 582.253,-74.1747"/>
</g>
</g>
</svg>
