<?xml version="1.0" encoding="UTF-8" standalone="no"?>
<!DOCTYPE svg PUBLIC "-//W3C//DTD SVG 1.1//EN"
 "http://www.w3.org/Graphics/SVG/1.1/DTD/svg11.dtd">
<!-- Generated by graphviz version 2.40.1 (20161225.0304)
 -->
<!-- Title: G4PDefManager::UseWorkArea Pages: 1 -->
<svg width="344pt" height="92pt"
 viewBox="0.00 0.00 344.00 92.00" xmlns="http://www.w3.org/2000/svg" xmlns:xlink="http://www.w3.org/1999/xlink">
<g id="graph0" class="graph" transform="scale(1 1) rotate(0) translate(4 88)">
<title>G4PDefManager::UseWorkArea</title>
<!-- Node1 -->
<g id="node1" class="node">
<title>Node1</title>
<polygon fill="#bfbfbf" stroke="#000000" points="0,-31.5 0,-51.5 172,-51.5 172,-31.5 0,-31.5"/>
<text text-anchor="middle" x="86" y="-38.5" font-family="FreeSans" font-size="10.00" fill="#000000">G4PDefManager::UseWorkArea</text>
</g>
<!-- Node2 -->
<g id="node2" class="node">
<title>Node2</title>
<g id="a_node2"><a xlink:href="../../d5/d80/classG4ParticlesWorkspace.html#aca3d1026e073509e1b7ef6a603f19944" target="_top" xlink:title="G4ParticlesWorkspace\l::ReleaseWorkspace">
<polygon fill="none" stroke="#000000" points="208,-51.5 208,-83.5 336,-83.5 336,-51.5 208,-51.5"/>
<text text-anchor="start" x="216" y="-70.5" font-family="FreeSans" font-size="10.00" fill="#000000">G4ParticlesWorkspace</text>
<text text-anchor="middle" x="272" y="-58.5" font-family="FreeSans" font-size="10.00" fill="#000000">::ReleaseWorkspace</text>
</a>
</g>
</g>
<!-- Node1&#45;&gt;Node2 -->
<g id="edge1" class="edge">
<title>Node1&#45;&gt;Node2</title>
<path fill="none" stroke="#191970" d="M167.8485,-52.9412C181.295,-54.8208 195.0571,-56.7445 207.9883,-58.5521"/>
<polygon fill="#191970" stroke="#191970" points="168.0347,-49.4333 157.6464,-51.5151 167.0655,-56.3659 168.0347,-49.4333"/>
</g>
<!-- Node3 -->
<g id="node3" class="node">
<title>Node3</title>
<g id="a_node3"><a xlink:href="../../d5/d80/classG4ParticlesWorkspace.html#a96e315280027487940e34e7588919f6b" target="_top" xlink:title="G4ParticlesWorkspace\l::UseWorkspace">
<polygon fill="none" stroke="#000000" points="208,-.5 208,-32.5 336,-32.5 336,-.5 208,-.5"/>
<text text-anchor="start" x="216" y="-19.5" font-family="FreeSans" font-size="10.00" fill="#000000">G4ParticlesWorkspace</text>
<text text-anchor="middle" x="272" y="-7.5" font-family="FreeSans" font-size="10.00" fill="#000000">::UseWorkspace</text>
</a>
</g>
</g>
<!-- Node1&#45;&gt;Node3 -->
<g id="edge2" class="edge">
<title>Node1&#45;&gt;Node3</title>
<path fill="none" stroke="#191970" d="M170.5743,-30.1325C183.1112,-28.4474 195.8541,-26.7347 207.8815,-25.1181"/>
<polygon fill="#191970" stroke="#191970" points="170.0262,-26.6746 160.5816,-31.4756 170.9587,-33.6122 170.0262,-26.6746"/>
</g>
</g>
</svg>
