<?xml version="1.0" encoding="UTF-8" standalone="no"?>
<!DOCTYPE svg PUBLIC "-//W3C//DTD SVG 1.1//EN"
 "http://www.w3.org/Graphics/SVG/1.1/DTD/svg11.dtd">
<!-- Generated by graphviz version 2.40.1 (20161225.0304)
 -->
<!-- Title: G4Analysis::GetWidth Pages: 1 -->
<svg width="359pt" height="341pt"
 viewBox="0.00 0.00 359.00 341.00" xmlns="http://www.w3.org/2000/svg" xmlns:xlink="http://www.w3.org/1999/xlink">
<g id="graph0" class="graph" transform="scale(1 1) rotate(0) translate(4 337)">
<title>G4Analysis::GetWidth</title>
<!-- Node1 -->
<g id="node1" class="node">
<title>Node1</title>
<polygon fill="#bfbfbf" stroke="#000000" points="0,-156.5 0,-176.5 126,-176.5 126,-156.5 0,-156.5"/>
<text text-anchor="middle" x="63" y="-163.5" font-family="FreeSans" font-size="10.00" fill="#000000">G4Analysis::GetWidth</text>
</g>
<!-- Node2 -->
<g id="node2" class="node">
<title>Node2</title>
<g id="a_node2"><a xlink:href="../../df/d39/classG4H1ToolsManager.html#a8b7d1e808a5dd6943afedf8d098a73fb" target="_top" xlink:title="G4H1ToolsManager::GetH1Width">
<polygon fill="none" stroke="#000000" points="165.5,-312.5 165.5,-332.5 347.5,-332.5 347.5,-312.5 165.5,-312.5"/>
<text text-anchor="middle" x="256.5" y="-319.5" font-family="FreeSans" font-size="10.00" fill="#000000">G4H1ToolsManager::GetH1Width</text>
</a>
</g>
</g>
<!-- Node1&#45;&gt;Node2 -->
<g id="edge1" class="edge">
<title>Node1&#45;&gt;Node2</title>
<path fill="none" stroke="#191970" d="M71.4551,-186.2898C85.5259,-216.6829 116.7456,-274.3828 162,-303.5 167.6293,-307.1219 173.8066,-310.0759 180.2231,-312.4822"/>
<polygon fill="#191970" stroke="#191970" points="74.4755,-184.4701 67.1984,-176.7698 68.0852,-187.3275 74.4755,-184.4701"/>
</g>
<!-- Node3 -->
<g id="node3" class="node">
<title>Node3</title>
<g id="a_node3"><a xlink:href="../../d7/d26/classG4H2ToolsManager.html#a40d8ddc1154bdaeeba1ce158fa1f89d3" target="_top" xlink:title="G4H2ToolsManager::GetH2XWidth">
<polygon fill="none" stroke="#000000" points="162,-273.5 162,-293.5 351,-293.5 351,-273.5 162,-273.5"/>
<text text-anchor="middle" x="256.5" y="-280.5" font-family="FreeSans" font-size="10.00" fill="#000000">G4H2ToolsManager::GetH2XWidth</text>
</a>
</g>
</g>
<!-- Node1&#45;&gt;Node3 -->
<g id="edge2" class="edge">
<title>Node1&#45;&gt;Node3</title>
<path fill="none" stroke="#191970" d="M76.0788,-184.8556C93.1604,-207.3645 125.2535,-244.9297 162,-264.5 168.7944,-268.1185 176.1982,-271.0501 183.7731,-273.4248"/>
<polygon fill="#191970" stroke="#191970" points="78.855,-182.7232 70.0942,-176.765 73.2273,-186.886 78.855,-182.7232"/>
</g>
<!-- Node4 -->
<g id="node4" class="node">
<title>Node4</title>
<g id="a_node4"><a xlink:href="../../d7/d26/classG4H2ToolsManager.html#ae87ecc55cbbc9363e786a22d4a88dfdb" target="_top" xlink:title="G4H2ToolsManager::GetH2YWidth">
<polygon fill="none" stroke="#000000" points="162.5,-234.5 162.5,-254.5 350.5,-254.5 350.5,-234.5 162.5,-234.5"/>
<text text-anchor="middle" x="256.5" y="-241.5" font-family="FreeSans" font-size="10.00" fill="#000000">G4H2ToolsManager::GetH2YWidth</text>
</a>
</g>
</g>
<!-- Node1&#45;&gt;Node4 -->
<g id="edge3" class="edge">
<title>Node1&#45;&gt;Node4</title>
<path fill="none" stroke="#191970" d="M85.046,-182.6303C104.4025,-196.0405 133.7957,-214.6277 162,-225.5 171.3688,-229.1115 181.537,-232.0738 191.6152,-234.4928"/>
<polygon fill="#191970" stroke="#191970" points="86.8365,-179.61 76.6492,-176.6997 82.7981,-185.3277 86.8365,-179.61"/>
</g>
<!-- Node5 -->
<g id="node5" class="node">
<title>Node5</title>
<g id="a_node5"><a xlink:href="../../d4/de3/classG4H3ToolsManager.html#a8b9fc0e1eff57ab68505c1278197d8f6" target="_top" xlink:title="G4H3ToolsManager::GetH3XWidth">
<polygon fill="none" stroke="#000000" points="162,-195.5 162,-215.5 351,-215.5 351,-195.5 162,-195.5"/>
<text text-anchor="middle" x="256.5" y="-202.5" font-family="FreeSans" font-size="10.00" fill="#000000">G4H3ToolsManager::GetH3XWidth</text>
</a>
</g>
</g>
<!-- Node1&#45;&gt;Node5 -->
<g id="edge4" class="edge">
<title>Node1&#45;&gt;Node5</title>
<path fill="none" stroke="#191970" d="M122.4119,-178.5117C135.4545,-181.146 149.1928,-183.9188 162,-186.5 176.4362,-189.4095 192.114,-192.5638 206.4739,-195.4508"/>
<polygon fill="#191970" stroke="#191970" points="123.0958,-175.0792 112.6008,-176.5297 121.7097,-181.9406 123.0958,-175.0792"/>
</g>
<!-- Node6 -->
<g id="node6" class="node">
<title>Node6</title>
<g id="a_node6"><a xlink:href="../../d4/de3/classG4H3ToolsManager.html#ab581abb7ab88117f98d6b90afa5e11a1" target="_top" xlink:title="G4H3ToolsManager::GetH3YWidth">
<polygon fill="none" stroke="#000000" points="162.5,-156.5 162.5,-176.5 350.5,-176.5 350.5,-156.5 162.5,-156.5"/>
<text text-anchor="middle" x="256.5" y="-163.5" font-family="FreeSans" font-size="10.00" fill="#000000">G4H3ToolsManager::GetH3YWidth</text>
</a>
</g>
</g>
<!-- Node1&#45;&gt;Node6 -->
<g id="edge5" class="edge">
<title>Node1&#45;&gt;Node6</title>
<path fill="none" stroke="#191970" d="M136.2987,-166.5C144.7867,-166.5 153.531,-166.5 162.2482,-166.5"/>
<polygon fill="#191970" stroke="#191970" points="136.0914,-163.0001 126.0914,-166.5 136.0914,-170.0001 136.0914,-163.0001"/>
</g>
<!-- Node7 -->
<g id="node7" class="node">
<title>Node7</title>
<g id="a_node7"><a xlink:href="../../d4/de3/classG4H3ToolsManager.html#a6499e8fa40df1510cf157c122fc16b63" target="_top" xlink:title="G4H3ToolsManager::GetH3ZWidth">
<polygon fill="none" stroke="#000000" points="162,-117.5 162,-137.5 351,-137.5 351,-117.5 162,-117.5"/>
<text text-anchor="middle" x="256.5" y="-124.5" font-family="FreeSans" font-size="10.00" fill="#000000">G4H3ToolsManager::GetH3ZWidth</text>
</a>
</g>
</g>
<!-- Node1&#45;&gt;Node7 -->
<g id="edge6" class="edge">
<title>Node1&#45;&gt;Node7</title>
<path fill="none" stroke="#191970" d="M122.9113,-154.4249C149.8405,-148.9973 181.2458,-142.6675 206.8378,-137.5094"/>
<polygon fill="#191970" stroke="#191970" points="121.9424,-151.0497 112.8311,-156.4565 123.3255,-157.9117 121.9424,-151.0497"/>
</g>
<!-- Node8 -->
<g id="node8" class="node">
<title>Node8</title>
<g id="a_node8"><a xlink:href="../../dc/d19/classG4P1ToolsManager.html#a8eee1f1dfc342af20e629325b5d4d780" target="_top" xlink:title="G4P1ToolsManager::GetP1XWidth">
<polygon fill="none" stroke="#000000" points="164,-78.5 164,-98.5 349,-98.5 349,-78.5 164,-78.5"/>
<text text-anchor="middle" x="256.5" y="-85.5" font-family="FreeSans" font-size="10.00" fill="#000000">G4P1ToolsManager::GetP1XWidth</text>
</a>
</g>
</g>
<!-- Node1&#45;&gt;Node8 -->
<g id="edge7" class="edge">
<title>Node1&#45;&gt;Node8</title>
<path fill="none" stroke="#191970" d="M85.4495,-150.5051C104.8525,-137.3944 134.095,-119.2996 162,-108.5 172.4001,-104.475 183.7738,-101.1916 194.9133,-98.536"/>
<polygon fill="#191970" stroke="#191970" points="83.2684,-147.7574 77.0157,-156.3104 87.2374,-153.5234 83.2684,-147.7574"/>
</g>
<!-- Node9 -->
<g id="node9" class="node">
<title>Node9</title>
<g id="a_node9"><a xlink:href="../../da/dd0/classG4P2ToolsManager.html#aed9de53f58687363a9c1fe258b1404ae" target="_top" xlink:title="G4P2ToolsManager::GetP2XWidth">
<polygon fill="none" stroke="#000000" points="164,-39.5 164,-59.5 349,-59.5 349,-39.5 164,-39.5"/>
<text text-anchor="middle" x="256.5" y="-46.5" font-family="FreeSans" font-size="10.00" fill="#000000">G4P2ToolsManager::GetP2XWidth</text>
</a>
</g>
</g>
<!-- Node1&#45;&gt;Node9 -->
<g id="edge8" class="edge">
<title>Node1&#45;&gt;Node9</title>
<path fill="none" stroke="#191970" d="M76.3829,-148.0981C93.5985,-125.8507 125.6491,-88.9769 162,-69.5 169.6864,-65.3816 178.1493,-62.1111 186.756,-59.514"/>
<polygon fill="#191970" stroke="#191970" points="73.3661,-146.2854 70.1394,-156.3769 78.955,-150.5002 73.3661,-146.2854"/>
</g>
<!-- Node10 -->
<g id="node10" class="node">
<title>Node10</title>
<g id="a_node10"><a xlink:href="../../da/dd0/classG4P2ToolsManager.html#a7934fe1082fdabf19465fa91d3430494" target="_top" xlink:title="G4P2ToolsManager::GetP2YWidth">
<polygon fill="none" stroke="#000000" points="164,-.5 164,-20.5 349,-20.5 349,-.5 164,-.5"/>
<text text-anchor="middle" x="256.5" y="-7.5" font-family="FreeSans" font-size="10.00" fill="#000000">G4P2ToolsManager::GetP2YWidth</text>
</a>
</g>
</g>
<!-- Node1&#45;&gt;Node10 -->
<g id="edge9" class="edge">
<title>Node1&#45;&gt;Node10</title>
<path fill="none" stroke="#191970" d="M71.5308,-146.9085C85.7039,-116.81 117.0592,-59.6277 162,-30.5 168.1919,-26.4868 175.0469,-23.2624 182.1542,-20.6741"/>
<polygon fill="#191970" stroke="#191970" points="68.1975,-145.7833 67.2401,-156.3348 74.5685,-148.6833 68.1975,-145.7833"/>
</g>
</g>
</svg>
