<?xml version="1.0" encoding="UTF-8" standalone="no"?>
<!DOCTYPE svg PUBLIC "-//W3C//DTD SVG 1.1//EN"
 "http://www.w3.org/Graphics/SVG/1.1/DTD/svg11.dtd">
<!-- Generated by graphviz version 2.40.1 (20161225.0304)
 -->
<!-- Title: G4RPGFragmentation::FragmentationIntegral Pages: 1 -->
<svg width="866pt" height="1112pt"
 viewBox="0.00 0.00 866.00 1112.00" xmlns="http://www.w3.org/2000/svg" xmlns:xlink="http://www.w3.org/1999/xlink">
<g id="graph0" class="graph" transform="scale(1 1) rotate(0) translate(4 1108)">
<title>G4RPGFragmentation::FragmentationIntegral</title>
<!-- Node1 -->
<g id="node1" class="node">
<title>Node1</title>
<polygon fill="#bfbfbf" stroke="#000000" points="0,-535.5 0,-567.5 135,-567.5 135,-535.5 0,-535.5"/>
<text text-anchor="start" x="8" y="-554.5" font-family="FreeSans" font-size="10.00" fill="#000000">G4RPGFragmentation</text>
<text text-anchor="middle" x="67.5" y="-542.5" font-family="FreeSans" font-size="10.00" fill="#000000">::FragmentationIntegral</text>
</g>
<!-- Node2 -->
<g id="node2" class="node">
<title>Node2</title>
<g id="a_node2"><a xlink:href="../../d5/d33/classG4RPGFragmentation.html#a374bd6bc0cea32dbe15ebbae9eebf449" target="_top" xlink:title="G4RPGFragmentation\l::ReactionStage">
<polygon fill="none" stroke="#000000" points="171,-535.5 171,-567.5 296,-567.5 296,-535.5 171,-535.5"/>
<text text-anchor="start" x="179" y="-554.5" font-family="FreeSans" font-size="10.00" fill="#000000">G4RPGFragmentation</text>
<text text-anchor="middle" x="233.5" y="-542.5" font-family="FreeSans" font-size="10.00" fill="#000000">::ReactionStage</text>
</a>
</g>
</g>
<!-- Node1&#45;&gt;Node2 -->
<g id="edge1" class="edge">
<title>Node1&#45;&gt;Node2</title>
<path fill="none" stroke="#191970" d="M145.0968,-551.5C153.7318,-551.5 162.4451,-551.5 170.8608,-551.5"/>
<polygon fill="#191970" stroke="#191970" points="145.0186,-548.0001 135.0186,-551.5 145.0185,-555.0001 145.0186,-548.0001"/>
</g>
<!-- Node3 -->
<g id="node3" class="node">
<title>Node3</title>
<g id="a_node3"><a xlink:href="../../d1/dd5/classG4RPGInelastic.html#a7d138daa28d129df9e5d27863bbc6b4c" target="_top" xlink:title="G4RPGInelastic::Calculate\lMomenta">
<polygon fill="none" stroke="#000000" points="332,-535.5 332,-567.5 479,-567.5 479,-535.5 332,-535.5"/>
<text text-anchor="start" x="340" y="-554.5" font-family="FreeSans" font-size="10.00" fill="#000000">G4RPGInelastic::Calculate</text>
<text text-anchor="middle" x="405.5" y="-542.5" font-family="FreeSans" font-size="10.00" fill="#000000">Momenta</text>
</a>
</g>
</g>
<!-- Node2&#45;&gt;Node3 -->
<g id="edge2" class="edge">
<title>Node2&#45;&gt;Node3</title>
<path fill="none" stroke="#191970" d="M306.2934,-551.5C314.7542,-551.5 323.3896,-551.5 331.8616,-551.5"/>
<polygon fill="#191970" stroke="#191970" points="306.0825,-548.0001 296.0825,-551.5 306.0825,-555.0001 306.0825,-548.0001"/>
</g>
<!-- Node4 -->
<g id="node4" class="node">
<title>Node4</title>
<g id="a_node4"><a xlink:href="../../d1/d7f/classG4RPGAntiKZeroInelastic.html#a904f082af389b721281686449f6979b4" target="_top" xlink:title="G4RPGAntiKZeroInelastic\l::ApplyYourself">
<polygon fill="none" stroke="#000000" points="533,-1071.5 533,-1103.5 677,-1103.5 677,-1071.5 533,-1071.5"/>
<text text-anchor="start" x="541" y="-1090.5" font-family="FreeSans" font-size="10.00" fill="#000000">G4RPGAntiKZeroInelastic</text>
<text text-anchor="middle" x="605" y="-1078.5" font-family="FreeSans" font-size="10.00" fill="#000000">::ApplyYourself</text>
</a>
</g>
</g>
<!-- Node3&#45;&gt;Node4 -->
<g id="edge3" class="edge">
<title>Node3&#45;&gt;Node4</title>
<path fill="none" stroke="#191970" d="M407.58,-577.65C415.5723,-671.6481 447.3086,-990.6308 515,-1062.5 520.1146,-1067.9302 526.297,-1072.2162 532.9983,-1075.5937"/>
<polygon fill="#191970" stroke="#191970" points="411.0587,-577.2475 406.7416,-567.5721 404.0828,-577.8279 411.0587,-577.2475"/>
</g>
<!-- Node7 -->
<g id="node7" class="node">
<title>Node7</title>
<g id="a_node7"><a xlink:href="../../da/d6f/classG4RPGAntiLambdaInelastic.html#ac03e79b4fa34e26161f495128c271078" target="_top" xlink:title="G4RPGAntiLambdaInelastic\l::ApplyYourself">
<polygon fill="none" stroke="#000000" points="528,-969.5 528,-1001.5 682,-1001.5 682,-969.5 528,-969.5"/>
<text text-anchor="start" x="536" y="-988.5" font-family="FreeSans" font-size="10.00" fill="#000000">G4RPGAntiLambdaInelastic</text>
<text text-anchor="middle" x="605" y="-976.5" font-family="FreeSans" font-size="10.00" fill="#000000">::ApplyYourself</text>
</a>
</g>
</g>
<!-- Node3&#45;&gt;Node7 -->
<g id="edge6" class="edge">
<title>Node3&#45;&gt;Node7</title>
<path fill="none" stroke="#191970" d="M409.0768,-577.6035C420.709,-658.816 459.9189,-904.9011 515,-960.5 518.7663,-964.3017 523.0572,-967.5387 527.6747,-970.2935"/>
<polygon fill="#191970" stroke="#191970" points="412.5414,-577.1064 407.6778,-567.6938 405.6101,-578.0849 412.5414,-577.1064"/>
</g>
<!-- Node8 -->
<g id="node8" class="node">
<title>Node8</title>
<g id="a_node8"><a xlink:href="../../d2/dfa/classG4RPGAntiNeutronInelastic.html#acbc2e41efe84f36db8fbb7f51f1190eb" target="_top" xlink:title="G4RPGAntiNeutronInelastic\l::ApplyYourself">
<polygon fill="none" stroke="#000000" points="528,-918.5 528,-950.5 682,-950.5 682,-918.5 528,-918.5"/>
<text text-anchor="start" x="536" y="-937.5" font-family="FreeSans" font-size="10.00" fill="#000000">G4RPGAntiNeutronInelastic</text>
<text text-anchor="middle" x="605" y="-925.5" font-family="FreeSans" font-size="10.00" fill="#000000">::ApplyYourself</text>
</a>
</g>
</g>
<!-- Node3&#45;&gt;Node8 -->
<g id="edge7" class="edge">
<title>Node3&#45;&gt;Node8</title>
<path fill="none" stroke="#191970" d="M410.1627,-577.7411C423.8771,-652.1068 466.1959,-861.943 515,-909.5 518.8327,-913.2348 523.1728,-916.4221 527.8258,-919.1411"/>
<polygon fill="#191970" stroke="#191970" points="413.5851,-576.9983 408.3494,-567.7875 406.6984,-578.2529 413.5851,-576.9983"/>
</g>
<!-- Node9 -->
<g id="node9" class="node">
<title>Node9</title>
<g id="a_node9"><a xlink:href="../../d4/d63/classG4RPGAntiOmegaMinusInelastic.html#a0130a5e1c6bc76c08a7b7244faadefdc" target="_top" xlink:title="G4RPGAntiOmegaMinusInelastic\l::ApplyYourself">
<polygon fill="none" stroke="#000000" points="515,-867.5 515,-899.5 695,-899.5 695,-867.5 515,-867.5"/>
<text text-anchor="start" x="523" y="-886.5" font-family="FreeSans" font-size="10.00" fill="#000000">G4RPGAntiOmegaMinusInelastic</text>
<text text-anchor="middle" x="605" y="-874.5" font-family="FreeSans" font-size="10.00" fill="#000000">::ApplyYourself</text>
</a>
</g>
</g>
<!-- Node3&#45;&gt;Node9 -->
<g id="edge8" class="edge">
<title>Node3&#45;&gt;Node9</title>
<path fill="none" stroke="#191970" d="M406.9967,-577.6144C411.8183,-636.6385 431.9425,-781.1913 515,-858.5 518.6798,-861.9251 522.7881,-864.8873 527.1672,-867.4484"/>
<polygon fill="#191970" stroke="#191970" points="410.4861,-577.3408 406.2627,-567.6242 403.5049,-577.8538 410.4861,-577.3408"/>
</g>
<!-- Node10 -->
<g id="node10" class="node">
<title>Node10</title>
<g id="a_node10"><a xlink:href="../../d5/d1a/classG4RPGAntiProtonInelastic.html#acf30044a6c153b704c5b4f7455da2f20" target="_top" xlink:title="G4RPGAntiProtonInelastic\l::ApplyYourself">
<polygon fill="none" stroke="#000000" points="532,-816.5 532,-848.5 678,-848.5 678,-816.5 532,-816.5"/>
<text text-anchor="start" x="540" y="-835.5" font-family="FreeSans" font-size="10.00" fill="#000000">G4RPGAntiProtonInelastic</text>
<text text-anchor="middle" x="605" y="-823.5" font-family="FreeSans" font-size="10.00" fill="#000000">::ApplyYourself</text>
</a>
</g>
</g>
<!-- Node3&#45;&gt;Node10 -->
<g id="edge9" class="edge">
<title>Node3&#45;&gt;Node10</title>
<path fill="none" stroke="#191970" d="M409.1504,-577.8822C417.7516,-629.7967 444.1833,-745.5417 515,-807.5 520.004,-811.878 525.7136,-815.495 531.7745,-818.4823"/>
<polygon fill="#191970" stroke="#191970" points="412.5793,-577.1545 407.5761,-567.8154 405.6633,-578.2361 412.5793,-577.1545"/>
</g>
<!-- Node11 -->
<g id="node11" class="node">
<title>Node11</title>
<g id="a_node11"><a xlink:href="../../db/d76/classG4RPGAntiSigmaMinusInelastic.html#a4c1b6fc20c5a3879c862bfc2c9f12e53" target="_top" xlink:title="G4RPGAntiSigmaMinusInelastic\l::ApplyYourself">
<polygon fill="none" stroke="#000000" points="517.5,-765.5 517.5,-797.5 692.5,-797.5 692.5,-765.5 517.5,-765.5"/>
<text text-anchor="start" x="525.5" y="-784.5" font-family="FreeSans" font-size="10.00" fill="#000000">G4RPGAntiSigmaMinusInelastic</text>
<text text-anchor="middle" x="605" y="-772.5" font-family="FreeSans" font-size="10.00" fill="#000000">::ApplyYourself</text>
</a>
</g>
</g>
<!-- Node3&#45;&gt;Node11 -->
<g id="edge10" class="edge">
<title>Node3&#45;&gt;Node11</title>
<path fill="none" stroke="#191970" d="M412.1361,-577.49C424.6532,-621.1761 455.9513,-709.1801 515,-756.5 519.3026,-759.9479 524.0498,-762.921 529.0476,-765.4845"/>
<polygon fill="#191970" stroke="#191970" points="415.451,-576.3448 409.4179,-567.6355 408.703,-578.2062 415.451,-576.3448"/>
</g>
<!-- Node12 -->
<g id="node12" class="node">
<title>Node12</title>
<g id="a_node12"><a xlink:href="../../d3/d09/classG4RPGAntiSigmaPlusInelastic.html#a6d989a4b9cee0e743425d9917904705b" target="_top" xlink:title="G4RPGAntiSigmaPlusInelastic\l::ApplyYourself">
<polygon fill="none" stroke="#000000" points="522,-714.5 522,-746.5 688,-746.5 688,-714.5 522,-714.5"/>
<text text-anchor="start" x="530" y="-733.5" font-family="FreeSans" font-size="10.00" fill="#000000">G4RPGAntiSigmaPlusInelastic</text>
<text text-anchor="middle" x="605" y="-721.5" font-family="FreeSans" font-size="10.00" fill="#000000">::ApplyYourself</text>
</a>
</g>
</g>
<!-- Node3&#45;&gt;Node12 -->
<g id="edge11" class="edge">
<title>Node3&#45;&gt;Node12</title>
<path fill="none" stroke="#191970" d="M416.8884,-577.1678C433.4834,-611.5929 467.5823,-672.23 515,-705.5 519.9117,-708.9463 525.2837,-711.9186 530.8803,-714.4819"/>
<polygon fill="#191970" stroke="#191970" points="419.9054,-575.3579 412.4896,-567.791 413.568,-578.3308 419.9054,-575.3579"/>
</g>
<!-- Node13 -->
<g id="node13" class="node">
<title>Node13</title>
<g id="a_node13"><a xlink:href="../../d2/dcd/classG4RPGAntiXiMinusInelastic.html#a9a2f8c3a066398848266312d745e29bb" target="_top" xlink:title="G4RPGAntiXiMinusInelastic\l::ApplyYourself">
<polygon fill="none" stroke="#000000" points="528.5,-663.5 528.5,-695.5 681.5,-695.5 681.5,-663.5 528.5,-663.5"/>
<text text-anchor="start" x="536.5" y="-682.5" font-family="FreeSans" font-size="10.00" fill="#000000">G4RPGAntiXiMinusInelastic</text>
<text text-anchor="middle" x="605" y="-670.5" font-family="FreeSans" font-size="10.00" fill="#000000">::ApplyYourself</text>
</a>
</g>
</g>
<!-- Node3&#45;&gt;Node13 -->
<g id="edge12" class="edge">
<title>Node3&#45;&gt;Node13</title>
<path fill="none" stroke="#191970" d="M424.7506,-575.3922C444.8864,-598.8446 478.5869,-633.994 515,-654.5 521.0759,-657.9217 527.6499,-660.8992 534.3833,-663.4853"/>
<polygon fill="#191970" stroke="#191970" points="427.3306,-573.0222 418.2118,-567.6278 421.9763,-577.5313 427.3306,-573.0222"/>
</g>
<!-- Node14 -->
<g id="node14" class="node">
<title>Node14</title>
<g id="a_node14"><a xlink:href="../../dc/d23/classG4RPGAntiXiZeroInelastic.html#a415f619c26824fbcebc4883251a7c345" target="_top" xlink:title="G4RPGAntiXiZeroInelastic\l::ApplyYourself">
<polygon fill="none" stroke="#000000" points="532,-612.5 532,-644.5 678,-644.5 678,-612.5 532,-612.5"/>
<text text-anchor="start" x="540" y="-631.5" font-family="FreeSans" font-size="10.00" fill="#000000">G4RPGAntiXiZeroInelastic</text>
<text text-anchor="middle" x="605" y="-619.5" font-family="FreeSans" font-size="10.00" fill="#000000">::ApplyYourself</text>
</a>
</g>
</g>
<!-- Node3&#45;&gt;Node14 -->
<g id="edge13" class="edge">
<title>Node3&#45;&gt;Node14</title>
<path fill="none" stroke="#191970" d="M444.6262,-572.0999C465.2018,-582.4122 491.0622,-594.5675 515,-603.5 523.5082,-606.6749 532.6008,-609.657 541.6148,-612.3789"/>
<polygon fill="#191970" stroke="#191970" points="446.0723,-568.909 435.5702,-567.5097 442.9074,-575.1527 446.0723,-568.909"/>
</g>
<!-- Node15 -->
<g id="node15" class="node">
<title>Node15</title>
<g id="a_node15"><a xlink:href="../../de/dc3/classG4RPGKMinusInelastic.html#aa312b1791a0c4f4b1642bf2690170dd6" target="_top" xlink:title="G4RPGKMinusInelastic\l::ApplyYourself">
<polygon fill="none" stroke="#000000" points="540,-561.5 540,-593.5 670,-593.5 670,-561.5 540,-561.5"/>
<text text-anchor="start" x="548" y="-580.5" font-family="FreeSans" font-size="10.00" fill="#000000">G4RPGKMinusInelastic</text>
<text text-anchor="middle" x="605" y="-568.5" font-family="FreeSans" font-size="10.00" fill="#000000">::ApplyYourself</text>
</a>
</g>
</g>
<!-- Node3&#45;&gt;Node15 -->
<g id="edge14" class="edge">
<title>Node3&#45;&gt;Node15</title>
<path fill="none" stroke="#191970" d="M489.5779,-562.4575C506.3684,-564.6458 523.7664,-566.9132 539.8046,-569.0034"/>
<polygon fill="#191970" stroke="#191970" points="489.5881,-558.9293 479.2196,-561.1076 488.6834,-565.8706 489.5881,-558.9293"/>
</g>
<!-- Node16 -->
<g id="node16" class="node">
<title>Node16</title>
<g id="a_node16"><a xlink:href="../../d2/d05/classG4RPGKPlusInelastic.html#ab567724fee13dcf0003fa28f5f09921b" target="_top" xlink:title="G4RPGKPlusInelastic\l::ApplyYourself">
<polygon fill="none" stroke="#000000" points="544.5,-510.5 544.5,-542.5 665.5,-542.5 665.5,-510.5 544.5,-510.5"/>
<text text-anchor="start" x="552.5" y="-529.5" font-family="FreeSans" font-size="10.00" fill="#000000">G4RPGKPlusInelastic</text>
<text text-anchor="middle" x="605" y="-517.5" font-family="FreeSans" font-size="10.00" fill="#000000">::ApplyYourself</text>
</a>
</g>
</g>
<!-- Node3&#45;&gt;Node16 -->
<g id="edge15" class="edge">
<title>Node3&#45;&gt;Node16</title>
<path fill="none" stroke="#191970" d="M489.3709,-540.9899C507.8106,-538.6791 526.9933,-536.2753 544.3107,-534.1052"/>
<polygon fill="#191970" stroke="#191970" points="488.7068,-537.5456 479.2196,-542.262 489.5772,-544.4913 488.7068,-537.5456"/>
</g>
<!-- Node17 -->
<g id="node17" class="node">
<title>Node17</title>
<g id="a_node17"><a xlink:href="../../dc/d0e/classG4RPGKZeroInelastic.html#a38d655a9dea8c689901ecb1d071497a9" target="_top" xlink:title="G4RPGKZeroInelastic\l::ApplyYourself">
<polygon fill="none" stroke="#000000" points="543.5,-1020.5 543.5,-1052.5 666.5,-1052.5 666.5,-1020.5 543.5,-1020.5"/>
<text text-anchor="start" x="551.5" y="-1039.5" font-family="FreeSans" font-size="10.00" fill="#000000">G4RPGKZeroInelastic</text>
<text text-anchor="middle" x="605" y="-1027.5" font-family="FreeSans" font-size="10.00" fill="#000000">::ApplyYourself</text>
</a>
</g>
</g>
<!-- Node3&#45;&gt;Node17 -->
<g id="edge16" class="edge">
<title>Node3&#45;&gt;Node17</title>
<path fill="none" stroke="#191970" d="M408.2749,-577.8679C418.0565,-665.9235 453.6881,-947.8604 515,-1011.5 522.6509,-1019.4414 532.5874,-1024.9278 543.0553,-1028.7031"/>
<polygon fill="#191970" stroke="#191970" points="411.7258,-577.2271 407.1617,-567.6657 404.7671,-577.9864 411.7258,-577.2271"/>
</g>
<!-- Node18 -->
<g id="node18" class="node">
<title>Node18</title>
<g id="a_node18"><a xlink:href="../../df/d0e/classG4RPGLambdaInelastic.html#a4e7ddf36630e446c4fd34e6bf2cec5ae" target="_top" xlink:title="G4RPGLambdaInelastic\l::ApplyYourself">
<polygon fill="none" stroke="#000000" points="538,-459.5 538,-491.5 672,-491.5 672,-459.5 538,-459.5"/>
<text text-anchor="start" x="546" y="-478.5" font-family="FreeSans" font-size="10.00" fill="#000000">G4RPGLambdaInelastic</text>
<text text-anchor="middle" x="605" y="-466.5" font-family="FreeSans" font-size="10.00" fill="#000000">::ApplyYourself</text>
</a>
</g>
</g>
<!-- Node3&#45;&gt;Node18 -->
<g id="edge19" class="edge">
<title>Node3&#45;&gt;Node18</title>
<path fill="none" stroke="#191970" d="M446.8009,-530.8982C467.0565,-521.2457 491.992,-510.0237 515,-501.5 524.4556,-497.997 534.6101,-494.6658 544.5703,-491.6285"/>
<polygon fill="#191970" stroke="#191970" points="445.0475,-527.8578 437.5555,-535.3492 448.084,-534.1649 445.0475,-527.8578"/>
</g>
<!-- Node19 -->
<g id="node19" class="node">
<title>Node19</title>
<g id="a_node19"><a xlink:href="../../d6/df8/classG4RPGNeutronInelastic.html#adba5d23a0362b1e539dedf29211220d4" target="_top" xlink:title="G4RPGNeutronInelastic\l::ApplyYourself">
<polygon fill="none" stroke="#000000" points="538,-408.5 538,-440.5 672,-440.5 672,-408.5 538,-408.5"/>
<text text-anchor="start" x="546" y="-427.5" font-family="FreeSans" font-size="10.00" fill="#000000">G4RPGNeutronInelastic</text>
<text text-anchor="middle" x="605" y="-415.5" font-family="FreeSans" font-size="10.00" fill="#000000">::ApplyYourself</text>
</a>
</g>
</g>
<!-- Node3&#45;&gt;Node19 -->
<g id="edge20" class="edge">
<title>Node3&#45;&gt;Node19</title>
<path fill="none" stroke="#191970" d="M425.2323,-527.7796C445.5152,-504.8565 479.1238,-470.7156 515,-450.5 522.0846,-446.5079 529.8351,-443.0834 537.721,-440.1571"/>
<polygon fill="#191970" stroke="#191970" points="422.547,-525.5338 418.6319,-535.3788 427.8319,-530.1241 422.547,-525.5338"/>
</g>
<!-- Node20 -->
<g id="node20" class="node">
<title>Node20</title>
<g id="a_node20"><a xlink:href="../../d9/db6/classG4RPGOmegaMinusInelastic.html#a948f3dc9e36de246a4a9840d275f30aa" target="_top" xlink:title="G4RPGOmegaMinusInelastic\l::ApplyYourself">
<polygon fill="none" stroke="#000000" points="525,-357.5 525,-389.5 685,-389.5 685,-357.5 525,-357.5"/>
<text text-anchor="start" x="533" y="-376.5" font-family="FreeSans" font-size="10.00" fill="#000000">G4RPGOmegaMinusInelastic</text>
<text text-anchor="middle" x="605" y="-364.5" font-family="FreeSans" font-size="10.00" fill="#000000">::ApplyYourself</text>
</a>
</g>
</g>
<!-- Node3&#45;&gt;Node20 -->
<g id="edge21" class="edge">
<title>Node3&#45;&gt;Node20</title>
<path fill="none" stroke="#191970" d="M417.0258,-526.2354C433.7787,-492.3376 468.0582,-432.5799 515,-399.5 520.4508,-395.6589 526.4641,-392.3812 532.7199,-389.585"/>
<polygon fill="#191970" stroke="#191970" points="413.7655,-524.9389 412.5816,-535.4673 420.0728,-527.9751 413.7655,-524.9389"/>
</g>
<!-- Node21 -->
<g id="node21" class="node">
<title>Node21</title>
<g id="a_node21"><a xlink:href="../../dd/df6/classG4RPGPiMinusInelastic.html#a4bf9ed510631d0770b1837fbe3593c42" target="_top" xlink:title="G4RPGPiMinusInelastic\l::ApplyYourself">
<polygon fill="none" stroke="#000000" points="539,-306.5 539,-338.5 671,-338.5 671,-306.5 539,-306.5"/>
<text text-anchor="start" x="547" y="-325.5" font-family="FreeSans" font-size="10.00" fill="#000000">G4RPGPiMinusInelastic</text>
<text text-anchor="middle" x="605" y="-313.5" font-family="FreeSans" font-size="10.00" fill="#000000">::ApplyYourself</text>
</a>
</g>
</g>
<!-- Node3&#45;&gt;Node21 -->
<g id="edge22" class="edge">
<title>Node3&#45;&gt;Node21</title>
<path fill="none" stroke="#191970" d="M412.3577,-525.5048C425.1264,-482.2274 456.6888,-395.5265 515,-348.5 521.963,-342.8846 530.0882,-338.4819 538.555,-335.0301"/>
<polygon fill="#191970" stroke="#191970" points="408.9474,-524.7015 409.5781,-535.2775 415.6804,-526.6165 408.9474,-524.7015"/>
</g>
<!-- Node22 -->
<g id="node22" class="node">
<title>Node22</title>
<g id="a_node22"><a xlink:href="../../d6/d77/classG4RPGPiPlusInelastic.html#a1744c35271ab7fba50eb0680b2a0510f" target="_top" xlink:title="G4RPGPiPlusInelastic\l::ApplyYourself">
<polygon fill="none" stroke="#000000" points="543.5,-255.5 543.5,-287.5 666.5,-287.5 666.5,-255.5 543.5,-255.5"/>
<text text-anchor="start" x="551.5" y="-274.5" font-family="FreeSans" font-size="10.00" fill="#000000">G4RPGPiPlusInelastic</text>
<text text-anchor="middle" x="605" y="-262.5" font-family="FreeSans" font-size="10.00" fill="#000000">::ApplyYourself</text>
</a>
</g>
</g>
<!-- Node3&#45;&gt;Node22 -->
<g id="edge23" class="edge">
<title>Node3&#45;&gt;Node22</title>
<path fill="none" stroke="#191970" d="M409.2705,-525.3819C418.0856,-473.9763 444.8802,-359.3107 515,-297.5 523.0523,-290.4019 532.9347,-285.2356 543.1683,-281.4768"/>
<polygon fill="#191970" stroke="#191970" points="405.8001,-524.9178 407.6532,-535.3493 412.7097,-526.039 405.8001,-524.9178"/>
</g>
<!-- Node23 -->
<g id="node23" class="node">
<title>Node23</title>
<g id="a_node23"><a xlink:href="../../d2/d5f/classG4RPGProtonInelastic.html#a1678640647f4bd14c907ac1f88769a89" target="_top" xlink:title="G4RPGProtonInelastic\l::ApplyYourself">
<polygon fill="none" stroke="#000000" points="542,-204.5 542,-236.5 668,-236.5 668,-204.5 542,-204.5"/>
<text text-anchor="start" x="550" y="-223.5" font-family="FreeSans" font-size="10.00" fill="#000000">G4RPGProtonInelastic</text>
<text text-anchor="middle" x="605" y="-211.5" font-family="FreeSans" font-size="10.00" fill="#000000">::ApplyYourself</text>
</a>
</g>
</g>
<!-- Node3&#45;&gt;Node23 -->
<g id="edge24" class="edge">
<title>Node3&#45;&gt;Node23</title>
<path fill="none" stroke="#191970" d="M407.1767,-524.8309C412.3464,-465.8221 433.102,-323.3595 515,-246.5 522.59,-239.377 532.01,-234.1904 541.8706,-230.4174"/>
<polygon fill="#191970" stroke="#191970" points="403.6592,-524.9153 406.3592,-535.1603 410.6374,-525.4676 403.6592,-524.9153"/>
</g>
<!-- Node24 -->
<g id="node24" class="node">
<title>Node24</title>
<g id="a_node24"><a xlink:href="../../dc/dcf/classG4RPGSigmaMinusInelastic.html#ab1603f4eded7d315fe76c53ff2f1c6c7" target="_top" xlink:title="G4RPGSigmaMinusInelastic\l::ApplyYourself">
<polygon fill="none" stroke="#000000" points="527.5,-153.5 527.5,-185.5 682.5,-185.5 682.5,-153.5 527.5,-153.5"/>
<text text-anchor="start" x="535.5" y="-172.5" font-family="FreeSans" font-size="10.00" fill="#000000">G4RPGSigmaMinusInelastic</text>
<text text-anchor="middle" x="605" y="-160.5" font-family="FreeSans" font-size="10.00" fill="#000000">::ApplyYourself</text>
</a>
</g>
</g>
<!-- Node3&#45;&gt;Node24 -->
<g id="edge25" class="edge">
<title>Node3&#45;&gt;Node24</title>
<path fill="none" stroke="#191970" d="M410.2074,-525.4285C424.042,-451.5399 466.6518,-243.0252 515,-195.5 518.9435,-191.6236 523.4271,-188.3182 528.2377,-185.5006"/>
<polygon fill="#191970" stroke="#191970" points="406.7555,-524.8482 408.3778,-535.318 413.6387,-526.1217 406.7555,-524.8482"/>
</g>
<!-- Node25 -->
<g id="node25" class="node">
<title>Node25</title>
<g id="a_node25"><a xlink:href="../../d9/d66/classG4RPGSigmaPlusInelastic.html#adc9e450c3feb644905489f102ada7381" target="_top" xlink:title="G4RPGSigmaPlusInelastic\l::ApplyYourself">
<polygon fill="none" stroke="#000000" points="532,-102.5 532,-134.5 678,-134.5 678,-102.5 532,-102.5"/>
<text text-anchor="start" x="540" y="-121.5" font-family="FreeSans" font-size="10.00" fill="#000000">G4RPGSigmaPlusInelastic</text>
<text text-anchor="middle" x="605" y="-109.5" font-family="FreeSans" font-size="10.00" fill="#000000">::ApplyYourself</text>
</a>
</g>
</g>
<!-- Node3&#45;&gt;Node25 -->
<g id="edge26" class="edge">
<title>Node3&#45;&gt;Node25</title>
<path fill="none" stroke="#191970" d="M409.1918,-525.0503C421.0395,-443.8002 460.5328,-199.9795 515,-144.5 519.8994,-139.5095 525.6921,-135.462 531.9399,-132.1814"/>
<polygon fill="#191970" stroke="#191970" points="405.6627,-525.0035 407.7048,-535.3996 412.5915,-525.9991 405.6627,-525.0035"/>
</g>
<!-- Node26 -->
<g id="node26" class="node">
<title>Node26</title>
<g id="a_node26"><a xlink:href="../../d4/d55/classG4RPGXiMinusInelastic.html#a34d3fe5afa0ae6e404d7cb411af028a4" target="_top" xlink:title="G4RPGXiMinusInelastic\l::ApplyYourself">
<polygon fill="none" stroke="#000000" points="538.5,-51.5 538.5,-83.5 671.5,-83.5 671.5,-51.5 538.5,-51.5"/>
<text text-anchor="start" x="546.5" y="-70.5" font-family="FreeSans" font-size="10.00" fill="#000000">G4RPGXiMinusInelastic</text>
<text text-anchor="middle" x="605" y="-58.5" font-family="FreeSans" font-size="10.00" fill="#000000">::ApplyYourself</text>
</a>
</g>
</g>
<!-- Node3&#45;&gt;Node26 -->
<g id="edge27" class="edge">
<title>Node3&#45;&gt;Node26</title>
<path fill="none" stroke="#191970" d="M408.3164,-525.2694C418.2307,-437.6688 454.2357,-157.1611 515,-93.5 521.5131,-86.6764 529.6948,-81.6101 538.4545,-77.8551"/>
<polygon fill="#191970" stroke="#191970" points="404.8145,-525.093 407.1876,-535.4187 411.7716,-525.8669 404.8145,-525.093"/>
</g>
<!-- Node27 -->
<g id="node27" class="node">
<title>Node27</title>
<g id="a_node27"><a xlink:href="../../d4/da6/classG4RPGXiZeroInelastic.html#a2357cb2a02c3ddb6ca03c8bda790ccd9" target="_top" xlink:title="G4RPGXiZeroInelastic\l::ApplyYourself">
<polygon fill="none" stroke="#000000" points="542,-.5 542,-32.5 668,-32.5 668,-.5 542,-.5"/>
<text text-anchor="start" x="550" y="-19.5" font-family="FreeSans" font-size="10.00" fill="#000000">G4RPGXiZeroInelastic</text>
<text text-anchor="middle" x="605" y="-7.5" font-family="FreeSans" font-size="10.00" fill="#000000">::ApplyYourself</text>
</a>
</g>
</g>
<!-- Node3&#45;&gt;Node27 -->
<g id="edge28" class="edge">
<title>Node3&#45;&gt;Node27</title>
<path fill="none" stroke="#191970" d="M407.5876,-525.4007C415.6059,-431.5848 447.4209,-113.2212 515,-41.5 522.3399,-33.7103 531.8772,-28.2754 541.991,-24.499"/>
<polygon fill="#191970" stroke="#191970" points="404.0921,-525.2021 406.7463,-535.459 411.0677,-525.7856 404.0921,-525.2021"/>
</g>
<!-- Node5 -->
<g id="node5" class="node">
<title>Node5</title>
<g id="a_node5"><a xlink:href="../../de/dc9/classG4RPGKShortInelastic.html#ad577c004b4511ce8a9398f9356917eaa" target="_top" xlink:title="G4RPGKShortInelastic\l::ApplyYourself">
<polygon fill="none" stroke="#000000" points="731,-1071.5 731,-1103.5 858,-1103.5 858,-1071.5 731,-1071.5"/>
<text text-anchor="start" x="739" y="-1090.5" font-family="FreeSans" font-size="10.00" fill="#000000">G4RPGKShortInelastic</text>
<text text-anchor="middle" x="794.5" y="-1078.5" font-family="FreeSans" font-size="10.00" fill="#000000">::ApplyYourself</text>
</a>
</g>
</g>
<!-- Node4&#45;&gt;Node5 -->
<g id="edge4" class="edge">
<title>Node4&#45;&gt;Node5</title>
<path fill="none" stroke="#191970" d="M687.2253,-1087.5C701.8505,-1087.5 716.8809,-1087.5 730.8896,-1087.5"/>
<polygon fill="#191970" stroke="#191970" points="687.1824,-1084.0001 677.1824,-1087.5 687.1824,-1091.0001 687.1824,-1084.0001"/>
</g>
<!-- Node6 -->
<g id="node6" class="node">
<title>Node6</title>
<g id="a_node6"><a xlink:href="../../d7/d74/classG4RPGKLongInelastic.html#a5653d69266ed59d796bf0420ca3f27d5" target="_top" xlink:title="G4RPGKLongInelastic\l::ApplyYourself">
<polygon fill="none" stroke="#000000" points="732,-1020.5 732,-1052.5 857,-1052.5 857,-1020.5 732,-1020.5"/>
<text text-anchor="start" x="740" y="-1039.5" font-family="FreeSans" font-size="10.00" fill="#000000">G4RPGKLongInelastic</text>
<text text-anchor="middle" x="794.5" y="-1027.5" font-family="FreeSans" font-size="10.00" fill="#000000">::ApplyYourself</text>
</a>
</g>
</g>
<!-- Node4&#45;&gt;Node6 -->
<g id="edge5" class="edge">
<title>Node4&#45;&gt;Node6</title>
<path fill="none" stroke="#191970" d="M674.5606,-1068.7792C694.3199,-1063.4614 715.6552,-1057.7194 734.7757,-1052.5736"/>
<polygon fill="#191970" stroke="#191970" points="673.4457,-1065.4546 664.6989,-1071.4333 675.2649,-1072.2141 673.4457,-1065.4546"/>
</g>
<!-- Node17&#45;&gt;Node5 -->
<g id="edge18" class="edge">
<title>Node17&#45;&gt;Node5</title>
<path fill="none" stroke="#191970" d="M674.5606,-1055.2208C694.3199,-1060.5386 715.6552,-1066.2806 734.7757,-1071.4264"/>
<polygon fill="#191970" stroke="#191970" points="675.2649,-1051.7859 664.6989,-1052.5667 673.4457,-1058.5454 675.2649,-1051.7859"/>
</g>
<!-- Node17&#45;&gt;Node6 -->
<g id="edge17" class="edge">
<title>Node17&#45;&gt;Node6</title>
<path fill="none" stroke="#191970" d="M676.7698,-1036.5C694.941,-1036.5 714.3123,-1036.5 731.985,-1036.5"/>
<polygon fill="#191970" stroke="#191970" points="676.5253,-1033.0001 666.5252,-1036.5 676.5252,-1040.0001 676.5253,-1033.0001"/>
</g>
</g>
</svg>
