<?xml version="1.0" encoding="UTF-8" standalone="no"?>
<!DOCTYPE svg PUBLIC "-//W3C//DTD SVG 1.1//EN"
 "http://www.w3.org/Graphics/SVG/1.1/DTD/svg11.dtd">
<!-- Generated by graphviz version 2.40.1 (20161225.0304)
 -->
<!-- Title: G4VPhononProcess Pages: 1 -->
<svg width="434pt" height="200pt"
 viewBox="0.00 0.00 434.00 200.00" xmlns="http://www.w3.org/2000/svg" xmlns:xlink="http://www.w3.org/1999/xlink">
<g id="graph0" class="graph" transform="scale(1 1) rotate(0) translate(4 196)">
<title>G4VPhononProcess</title>
<!-- Node1 -->
<g id="node1" class="node">
<title>Node1</title>
<polygon fill="#bfbfbf" stroke="#000000" points="172,-57.5 172,-77.5 286,-77.5 286,-57.5 172,-57.5"/>
<text text-anchor="middle" x="229" y="-64.5" font-family="FreeSans" font-size="10.00" fill="#000000">G4VPhononProcess</text>
</g>
<!-- Node4 -->
<g id="node4" class="node">
<title>Node4</title>
<g id="a_node4"><a xlink:href="../../df/dda/classG4PhononDownconversion.html" target="_top" xlink:title="G4PhononDownconversion">
<polygon fill="none" stroke="#000000" points="0,-.5 0,-20.5 152,-20.5 152,-.5 0,-.5"/>
<text text-anchor="middle" x="76" y="-7.5" font-family="FreeSans" font-size="10.00" fill="#000000">G4PhononDownconversion</text>
</a>
</g>
</g>
<!-- Node1&#45;&gt;Node4 -->
<g id="edge3" class="edge">
<title>Node1&#45;&gt;Node4</title>
<path fill="none" stroke="#191970" d="M192.3389,-53.842C164.8401,-43.5973 127.8153,-29.8037 102.9881,-20.5544"/>
<polygon fill="#191970" stroke="#191970" points="191.4061,-57.2294 201.9989,-57.4408 193.8499,-50.6698 191.4061,-57.2294"/>
</g>
<!-- Node5 -->
<g id="node5" class="node">
<title>Node5</title>
<g id="a_node5"><a xlink:href="../../db/d78/classG4PhononReflection.html" target="_top" xlink:title="G4PhononReflection">
<polygon fill="none" stroke="#000000" points="170,-.5 170,-20.5 288,-20.5 288,-.5 170,-.5"/>
<text text-anchor="middle" x="229" y="-7.5" font-family="FreeSans" font-size="10.00" fill="#000000">G4PhononReflection</text>
</a>
</g>
</g>
<!-- Node1&#45;&gt;Node5 -->
<g id="edge4" class="edge">
<title>Node1&#45;&gt;Node5</title>
<path fill="none" stroke="#191970" d="M229,-47.1771C229,-38.1625 229,-27.9556 229,-20.6022"/>
<polygon fill="#191970" stroke="#191970" points="225.5001,-47.3095 229,-57.3095 232.5001,-47.3096 225.5001,-47.3095"/>
</g>
<!-- Node6 -->
<g id="node6" class="node">
<title>Node6</title>
<g id="a_node6"><a xlink:href="../../d0/d18/classG4PhononScattering.html" target="_top" xlink:title="G4PhononScattering">
<polygon fill="none" stroke="#000000" points="306,-.5 306,-20.5 426,-20.5 426,-.5 306,-.5"/>
<text text-anchor="middle" x="366" y="-7.5" font-family="FreeSans" font-size="10.00" fill="#000000">G4PhononScattering</text>
</a>
</g>
</g>
<!-- Node1&#45;&gt;Node6 -->
<g id="edge5" class="edge">
<title>Node1&#45;&gt;Node6</title>
<path fill="none" stroke="#191970" d="M262.4471,-53.5841C286.9188,-43.4024 319.5609,-29.8214 341.6034,-20.6504"/>
<polygon fill="#191970" stroke="#191970" points="261.0658,-50.3679 253.1775,-57.4408 263.7548,-56.8308 261.0658,-50.3679"/>
</g>
<!-- Node2 -->
<g id="node2" class="node">
<title>Node2</title>
<g id="a_node2"><a xlink:href="../../da/dea/classG4VDiscreteProcess.html" target="_top" xlink:title="G4VDiscreteProcess">
<polygon fill="none" stroke="#000000" points="170.5,-114.5 170.5,-134.5 287.5,-134.5 287.5,-114.5 170.5,-114.5"/>
<text text-anchor="middle" x="229" y="-121.5" font-family="FreeSans" font-size="10.00" fill="#000000">G4VDiscreteProcess</text>
</a>
</g>
</g>
<!-- Node2&#45;&gt;Node1 -->
<g id="edge1" class="edge">
<title>Node2&#45;&gt;Node1</title>
<path fill="none" stroke="#191970" d="M229,-104.1771C229,-95.1625 229,-84.9556 229,-77.6022"/>
<polygon fill="#191970" stroke="#191970" points="225.5001,-104.3095 229,-114.3095 232.5001,-104.3096 225.5001,-104.3095"/>
</g>
<!-- Node3 -->
<g id="node3" class="node">
<title>Node3</title>
<g id="a_node3"><a xlink:href="../../d2/d84/classG4VProcess.html" target="_top" xlink:title="G4VProcess">
<polygon fill="none" stroke="#000000" points="191,-171.5 191,-191.5 267,-191.5 267,-171.5 191,-171.5"/>
<text text-anchor="middle" x="229" y="-178.5" font-family="FreeSans" font-size="10.00" fill="#000000">G4VProcess</text>
</a>
</g>
</g>
<!-- Node3&#45;&gt;Node2 -->
<g id="edge2" class="edge">
<title>Node3&#45;&gt;Node2</title>
<path fill="none" stroke="#191970" d="M229,-161.1771C229,-152.1625 229,-141.9556 229,-134.6022"/>
<polygon fill="#191970" stroke="#191970" points="225.5001,-161.3095 229,-171.3095 232.5001,-161.3096 225.5001,-161.3095"/>
</g>
</g>
</svg>
