<?xml version="1.0" encoding="UTF-8" standalone="no"?>
<!DOCTYPE svg PUBLIC "-//W3C//DTD SVG 1.1//EN"
 "http://www.w3.org/Graphics/SVG/1.1/DTD/svg11.dtd">
<!-- Generated by graphviz version 2.40.1 (20161225.0304)
 -->
<!-- Title: G4TablesForExtrapolator::PrepareTable Pages: 1 -->
<svg width="340pt" height="68pt"
 viewBox="0.00 0.00 340.00 68.00" xmlns="http://www.w3.org/2000/svg" xmlns:xlink="http://www.w3.org/1999/xlink">
<g id="graph0" class="graph" transform="scale(1 1) rotate(0) translate(4 64)">
<title>G4TablesForExtrapolator::PrepareTable</title>
<!-- Node1 -->
<g id="node1" class="node">
<title>Node1</title>
<polygon fill="#bfbfbf" stroke="#000000" points="0,-13.5 0,-45.5 141,-45.5 141,-13.5 0,-13.5"/>
<text text-anchor="start" x="8" y="-32.5" font-family="FreeSans" font-size="10.00" fill="#000000">G4TablesForExtrapolator</text>
<text text-anchor="middle" x="70.5" y="-20.5" font-family="FreeSans" font-size="10.00" fill="#000000">::PrepareTable</text>
</g>
<!-- Node2 -->
<g id="node2" class="node">
<title>Node2</title>
<g id="a_node2"><a xlink:href="../../dd/d15/classG4PhysicsTable.html#a13bf1c4db37ea2f171b60e78f5816e5d" target="_top" xlink:title="G4PhysicsTable::push_back">
<polygon fill="none" stroke="#000000" points="177,-39.5 177,-59.5 332,-59.5 332,-39.5 177,-39.5"/>
<text text-anchor="middle" x="254.5" y="-46.5" font-family="FreeSans" font-size="10.00" fill="#000000">G4PhysicsTable::push_back</text>
</a>
</g>
</g>
<!-- Node1&#45;&gt;Node2 -->
<g id="edge1" class="edge">
<title>Node1&#45;&gt;Node2</title>
<path fill="none" stroke="#191970" d="M141.113,-37.1753C149.4898,-38.0859 158.1171,-39.0236 166.6957,-39.956"/>
<polygon fill="#191970" stroke="#191970" points="166.4061,-43.4451 176.7258,-41.0463 167.1626,-36.4861 166.4061,-43.4451"/>
</g>
<!-- Node3 -->
<g id="node3" class="node">
<title>Node3</title>
<g id="a_node3"><a xlink:href="../../d7/d2c/classG4PhysicsVector.html#aba40887d022724e54654532e8bfef1cc" target="_top" xlink:title="G4PhysicsVector::SetSpline">
<polygon fill="none" stroke="#000000" points="177.5,-.5 177.5,-20.5 331.5,-20.5 331.5,-.5 177.5,-.5"/>
<text text-anchor="middle" x="254.5" y="-7.5" font-family="FreeSans" font-size="10.00" fill="#000000">G4PhysicsVector::SetSpline</text>
</a>
</g>
</g>
<!-- Node1&#45;&gt;Node3 -->
<g id="edge2" class="edge">
<title>Node1&#45;&gt;Node3</title>
<path fill="none" stroke="#191970" d="M141.113,-22.2084C149.6355,-21.3284 158.4173,-20.4216 167.1432,-19.5205"/>
<polygon fill="#191970" stroke="#191970" points="167.7545,-22.9761 177.3421,-18.4674 167.0355,-16.0131 167.7545,-22.9761"/>
</g>
</g>
</svg>
