<?xml version="1.0" encoding="UTF-8" standalone="no"?>
<!DOCTYPE svg PUBLIC "-//W3C//DTD SVG 1.1//EN"
 "http://www.w3.org/Graphics/SVG/1.1/DTD/svg11.dtd">
<!-- Generated by graphviz version 2.40.1 (20161225.0304)
 -->
<!-- Title: xDataXML_W_XYs_LegendreSeriesToTOM Pages: 1 -->
<svg width="1501pt" height="917pt"
 viewBox="0.00 0.00 1501.00 917.00" xmlns="http://www.w3.org/2000/svg" xmlns:xlink="http://www.w3.org/1999/xlink">
<g id="graph0" class="graph" transform="scale(1 1) rotate(0) translate(4 913)">
<title>xDataXML_W_XYs_LegendreSeriesToTOM</title>
<!-- Node1 -->
<g id="node1" class="node">
<title>Node1</title>
<polygon fill="#bfbfbf" stroke="#000000" points="0,-290.5 0,-322.5 189,-322.5 189,-290.5 0,-290.5"/>
<text text-anchor="start" x="8" y="-309.5" font-family="FreeSans" font-size="10.00" fill="#000000">xDataXML_W_XYs_LegendreSeries</text>
<text text-anchor="middle" x="94.5" y="-297.5" font-family="FreeSans" font-size="10.00" fill="#000000">ToTOM</text>
</g>
<!-- Node2 -->
<g id="node2" class="node">
<title>Node2</title>
<g id="a_node2"><a xlink:href="../../d7/dc7/namespacecheck__license.html#a5d6111870e0d2f540b9458f3674194ff" target="_top" xlink:title="check_license.err">
<polygon fill="none" stroke="#000000" points="1125.5,-760.5 1125.5,-780.5 1229.5,-780.5 1229.5,-760.5 1125.5,-760.5"/>
<text text-anchor="middle" x="1177.5" y="-767.5" font-family="FreeSans" font-size="10.00" fill="#000000">check_license.err</text>
</a>
</g>
</g>
<!-- Node1&#45;&gt;Node2 -->
<g id="edge1" class="edge">
<title>Node1&#45;&gt;Node2</title>
<path fill="none" stroke="#191970" d="M98.9979,-322.6911C125.0823,-412.7068 265.6129,-847.5 546.5,-847.5 546.5,-847.5 546.5,-847.5 764,-847.5 902.0891,-847.5 1061.8008,-805.4836 1135.8394,-783.5252"/>
<polygon fill="#191970" stroke="#191970" points="1137.1335,-786.7912 1145.7068,-780.5664 1135.1229,-780.0862 1137.1335,-786.7912"/>
</g>
<!-- Node3 -->
<g id="node3" class="node">
<title>Node3</title>
<g id="a_node3"><a xlink:href="../../dd/d05/xDataTOM_8h.html#aa6a1560fa6a67e9acefb11cfcf5d6f97" target="_top" xlink:title="xDataTOM_axes_getLabel">
<polygon fill="none" stroke="#000000" points="247.5,-.5 247.5,-20.5 393.5,-20.5 393.5,-.5 247.5,-.5"/>
<text text-anchor="middle" x="320.5" y="-7.5" font-family="FreeSans" font-size="10.00" fill="#000000">xDataTOM_axes_getLabel</text>
</a>
</g>
</g>
<!-- Node1&#45;&gt;Node3 -->
<g id="edge2" class="edge">
<title>Node1&#45;&gt;Node3</title>
<path fill="none" stroke="#191970" d="M97.3613,-290.4839C106.6065,-243.5713 140.1549,-105.3869 225,-35.5 230.3328,-31.1074 236.3542,-27.4782 242.7151,-24.4811"/>
<polygon fill="#191970" stroke="#191970" points="244.3439,-27.5945 252.2368,-20.5267 241.6591,-21.1298 244.3439,-27.5945"/>
</g>
<!-- Node4 -->
<g id="node4" class="node">
<title>Node4</title>
<g id="a_node4"><a xlink:href="../../dd/d05/xDataTOM_8h.html#a6ac8f81c110a7fd2a1df7588c810b2ce" target="_top" xlink:title="xDataTOM_W_XYs_LegendreSeries\l_initialize">
<polygon fill="none" stroke="#000000" points="225,-876.5 225,-908.5 416,-908.5 416,-876.5 225,-876.5"/>
<text text-anchor="start" x="233" y="-895.5" font-family="FreeSans" font-size="10.00" fill="#000000">xDataTOM_W_XYs_LegendreSeries</text>
<text text-anchor="middle" x="320.5" y="-883.5" font-family="FreeSans" font-size="10.00" fill="#000000">_initialize</text>
</a>
</g>
</g>
<!-- Node1&#45;&gt;Node4 -->
<g id="edge3" class="edge">
<title>Node1&#45;&gt;Node4</title>
<path fill="none" stroke="#191970" d="M96.1572,-322.524C104.9627,-404.7492 148.7544,-778.6533 225,-861.5 228.2941,-865.0793 232.0049,-868.2467 236.0024,-871.0494"/>
<polygon fill="#191970" stroke="#191970" points="234.2147,-874.0587 244.5686,-876.3051 237.8754,-868.0922 234.2147,-874.0587"/>
</g>
<!-- Node8 -->
<g id="node8" class="node">
<title>Node8</title>
<g id="a_node8"><a xlink:href="../../dc/da1/xDataTOM__importXML__private_8h.html#a48817f2332657efa0e76d282a6b20ce9" target="_top" xlink:title="xDataXML_get_smrUserInterface\lFromElement">
<polygon fill="none" stroke="#000000" points="1087,-255.5 1087,-287.5 1268,-287.5 1268,-255.5 1087,-255.5"/>
<text text-anchor="start" x="1095" y="-274.5" font-family="FreeSans" font-size="10.00" fill="#000000">xDataXML_get_smrUserInterface</text>
<text text-anchor="middle" x="1177.5" y="-262.5" font-family="FreeSans" font-size="10.00" fill="#000000">FromElement</text>
</a>
</g>
</g>
<!-- Node1&#45;&gt;Node8 -->
<g id="edge8" class="edge">
<title>Node1&#45;&gt;Node8</title>
<path fill="none" stroke="#191970" d="M106.3987,-290.121C127.4326,-262.2169 173.8228,-205.2139 225,-171.5 352.6263,-87.4237 393.6691,-49.5 546.5,-49.5 546.5,-49.5 546.5,-49.5 764,-49.5 891.8348,-49.5 941.3429,-2.7957 1051,-68.5 1068.6053,-79.0487 1134.4596,-194.3673 1163.5434,-246.3483"/>
<polygon fill="#191970" stroke="#191970" points="1160.5969,-248.2508 1168.5261,-255.2777 1166.7096,-244.8397 1160.5969,-248.2508"/>
</g>
<!-- Node11 -->
<g id="node11" class="node">
<title>Node11</title>
<g id="a_node11"><a xlink:href="../../dc/da1/xDataTOM__importXML__private_8h.html#adfd107e81716ff66af59ea9fa7803e3c" target="_top" xlink:title="xDataXML_getFirstElement">
<polygon fill="none" stroke="#000000" points="893,-270.5 893,-290.5 1045,-290.5 1045,-270.5 893,-270.5"/>
<text text-anchor="middle" x="969" y="-277.5" font-family="FreeSans" font-size="10.00" fill="#000000">xDataXML_getFirstElement</text>
</a>
</g>
</g>
<!-- Node1&#45;&gt;Node11 -->
<g id="edge11" class="edge">
<title>Node1&#45;&gt;Node11</title>
<path fill="none" stroke="#191970" d="M170.2524,-290.4615C306.8392,-263.8596 603.2331,-216.7273 851,-250.5 867.4537,-252.7428 870.9315,-256.3098 887,-260.5 896.6773,-263.0236 907.023,-265.6231 916.9927,-268.0787"/>
<polygon fill="#191970" stroke="#191970" points="916.2531,-271.5009 926.7985,-270.4782 917.917,-264.7015 916.2531,-271.5009"/>
</g>
<!-- Node12 -->
<g id="node12" class="node">
<title>Node12</title>
<g id="a_node12"><a xlink:href="../../dc/da1/xDataTOM__importXML__private_8h.html#aa17b7773316c96b06868bbf0a1c05522" target="_top" xlink:title="xDataXML_getNextElement">
<polygon fill="none" stroke="#000000" points="892,-309.5 892,-329.5 1046,-329.5 1046,-309.5 892,-309.5"/>
<text text-anchor="middle" x="969" y="-316.5" font-family="FreeSans" font-size="10.00" fill="#000000">xDataXML_getNextElement</text>
</a>
</g>
</g>
<!-- Node1&#45;&gt;Node12 -->
<g id="edge12" class="edge">
<title>Node1&#45;&gt;Node12</title>
<path fill="none" stroke="#191970" d="M189.2179,-317.589C201.249,-318.7243 213.404,-319.7382 225,-320.5 502.6666,-338.7414 573.092,-345.5946 851,-331.5 861.0521,-330.9902 871.5674,-330.2376 882.0026,-329.3535"/>
<polygon fill="#191970" stroke="#191970" points="882.3137,-332.8397 891.9651,-328.4692 881.6948,-325.8672 882.3137,-332.8397"/>
</g>
<!-- Node13 -->
<g id="node13" class="node">
<title>Node13</title>
<g id="a_node13"><a xlink:href="../../dc/da1/xDataTOM__importXML__private_8h.html#ab0f35daccc6f30d4537d3abcf28d634a" target="_top" xlink:title="xDataXML_initializeData">
<polygon fill="none" stroke="#000000" points="251.5,-543.5 251.5,-563.5 389.5,-563.5 389.5,-543.5 251.5,-543.5"/>
<text text-anchor="middle" x="320.5" y="-550.5" font-family="FreeSans" font-size="10.00" fill="#000000">xDataXML_initializeData</text>
</a>
</g>
</g>
<!-- Node1&#45;&gt;Node13 -->
<g id="edge13" class="edge">
<title>Node1&#45;&gt;Node13</title>
<path fill="none" stroke="#191970" d="M109.3285,-322.7064C149.9043,-367.0525 262.5197,-490.1322 304.4749,-535.9858"/>
<polygon fill="#191970" stroke="#191970" points="301.9042,-538.3611 311.2369,-543.3762 307.0686,-533.6358 301.9042,-538.3611"/>
</g>
<!-- Node26 -->
<g id="node26" class="node">
<title>Node26</title>
<g id="a_node26"><a xlink:href="../../dc/da1/xDataTOM__importXML__private_8h.html#ad18791aee6c698481434cf65ad8a4c57" target="_top" xlink:title="xDataXML_numberOfElements\lByTagName">
<polygon fill="none" stroke="#000000" points="679,-290.5 679,-322.5 849,-322.5 849,-290.5 679,-290.5"/>
<text text-anchor="start" x="687" y="-309.5" font-family="FreeSans" font-size="10.00" fill="#000000">xDataXML_numberOfElements</text>
<text text-anchor="middle" x="764" y="-297.5" font-family="FreeSans" font-size="10.00" fill="#000000">ByTagName</text>
</a>
</g>
</g>
<!-- Node1&#45;&gt;Node26 -->
<g id="edge42" class="edge">
<title>Node1&#45;&gt;Node26</title>
<path fill="none" stroke="#191970" d="M189.003,-306.5C316.2193,-306.5 541.2775,-306.5 668.8331,-306.5"/>
<polygon fill="#191970" stroke="#191970" points="668.9779,-310.0001 678.9778,-306.5 668.9778,-303.0001 668.9779,-310.0001"/>
</g>
<!-- Node27 -->
<g id="node27" class="node">
<title>Node27</title>
<g id="a_node27"><a xlink:href="../../dc/da1/xDataTOM__importXML__private_8h.html#a875e103e39589f1dc849eb3f6452ff8f" target="_top" xlink:title="xDataXML_W_XYs_LegendreSeries\l_LegendreSeriesToTOM">
<polygon fill="none" stroke="#000000" points="452,-162.5 452,-194.5 641,-194.5 641,-162.5 452,-162.5"/>
<text text-anchor="start" x="460" y="-181.5" font-family="FreeSans" font-size="10.00" fill="#000000">xDataXML_W_XYs_LegendreSeries</text>
<text text-anchor="middle" x="546.5" y="-169.5" font-family="FreeSans" font-size="10.00" fill="#000000">_LegendreSeriesToTOM</text>
</a>
</g>
</g>
<!-- Node1&#45;&gt;Node27 -->
<g id="edge45" class="edge">
<title>Node1&#45;&gt;Node27</title>
<path fill="none" stroke="#191970" d="M110.0186,-290.3819C132.8317,-267.8498 177.8463,-227.6624 225,-209.5 294.0415,-182.907 377.3166,-175.4912 441.8137,-174.5489"/>
<polygon fill="#191970" stroke="#191970" points="442.0329,-178.0471 451.9988,-174.4513 441.9657,-171.0474 442.0329,-178.0471"/>
</g>
<!-- Node5 -->
<g id="node5" class="node">
<title>Node5</title>
<g id="a_node5"><a xlink:href="../../dd/d05/xDataTOM_8h.html#ae54e9e4ce71dc47d97ab7d69cf22f02e" target="_top" xlink:title="xDataTOM_subAxes_initialize">
<polygon fill="none" stroke="#000000" points="887,-877.5 887,-897.5 1051,-897.5 1051,-877.5 887,-877.5"/>
<text text-anchor="middle" x="969" y="-884.5" font-family="FreeSans" font-size="10.00" fill="#000000">xDataTOM_subAxes_initialize</text>
</a>
</g>
</g>
<!-- Node4&#45;&gt;Node5 -->
<g id="edge4" class="edge">
<title>Node4&#45;&gt;Node5</title>
<path fill="none" stroke="#191970" d="M416.1884,-891.7622C540.0718,-890.8071 754.5206,-889.1537 876.7173,-888.2115"/>
<polygon fill="#191970" stroke="#191970" points="876.8275,-891.7109 886.8002,-888.1338 876.7735,-884.7111 876.8275,-891.7109"/>
</g>
<!-- Node6 -->
<g id="node6" class="node">
<title>Node6</title>
<g id="a_node6"><a xlink:href="../../dd/d05/xDataTOM_8h.html#adf856d0fd604c9bd38cb4c5afd18c557" target="_top" xlink:title="xDataTOM_interpolation_copy">
<polygon fill="none" stroke="#000000" points="1093.5,-838.5 1093.5,-858.5 1261.5,-858.5 1261.5,-838.5 1093.5,-838.5"/>
<text text-anchor="middle" x="1177.5" y="-845.5" font-family="FreeSans" font-size="10.00" fill="#000000">xDataTOM_interpolation_copy</text>
</a>
</g>
</g>
<!-- Node5&#45;&gt;Node6 -->
<g id="edge5" class="edge">
<title>Node5&#45;&gt;Node6</title>
<path fill="none" stroke="#191970" d="M1022.6939,-877.4565C1050.5406,-872.2478 1084.7371,-865.8513 1113.901,-860.3962"/>
<polygon fill="#191970" stroke="#191970" points="1114.802,-863.7885 1123.988,-858.5094 1113.515,-856.9078 1114.802,-863.7885"/>
</g>
<!-- Node7 -->
<g id="node7" class="node">
<title>Node7</title>
<g id="a_node7"><a xlink:href="../../dd/d05/xDataTOM_8h.html#ab60adca52a658e7f9750ad40f9e11855" target="_top" xlink:title="xDataTOM_interpolation_set">
<polygon fill="none" stroke="#000000" points="1318.5,-818.5 1318.5,-838.5 1478.5,-838.5 1478.5,-818.5 1318.5,-818.5"/>
<text text-anchor="middle" x="1398.5" y="-825.5" font-family="FreeSans" font-size="10.00" fill="#000000">xDataTOM_interpolation_set</text>
</a>
</g>
</g>
<!-- Node5&#45;&gt;Node7 -->
<g id="edge7" class="edge">
<title>Node5&#45;&gt;Node7</title>
<path fill="none" stroke="#191970" d="M1051.163,-887.4312C1111.5861,-886.1358 1195.4666,-881.7319 1268,-868.5 1300.5165,-862.5682 1336.341,-851.2255 1362.2155,-842.1292"/>
<polygon fill="#191970" stroke="#191970" points="1363.7251,-845.3065 1371.9625,-838.6435 1361.3679,-838.7153 1363.7251,-845.3065"/>
</g>
<!-- Node6&#45;&gt;Node7 -->
<g id="edge6" class="edge">
<title>Node6&#45;&gt;Node7</title>
<path fill="none" stroke="#191970" d="M1261.6811,-840.8818C1276.8906,-839.5054 1292.8065,-838.065 1308.1827,-836.6735"/>
<polygon fill="#191970" stroke="#191970" points="1308.5525,-840.1544 1318.1963,-835.7673 1307.9215,-833.1829 1308.5525,-840.1544"/>
</g>
<!-- Node9 -->
<g id="node9" class="node">
<title>Node9</title>
<g id="a_node9"><a xlink:href="../../dc/da1/xDataTOM__importXML__private_8h.html#a985bf5b787af0dd289b628d2942a961d" target="_top" xlink:title="xDataXML_get_smrUserInterface\lFromDocument">
<polygon fill="none" stroke="#000000" points="1308,-278.5 1308,-310.5 1489,-310.5 1489,-278.5 1308,-278.5"/>
<text text-anchor="start" x="1316" y="-297.5" font-family="FreeSans" font-size="10.00" fill="#000000">xDataXML_get_smrUserInterface</text>
<text text-anchor="middle" x="1398.5" y="-285.5" font-family="FreeSans" font-size="10.00" fill="#000000">FromDocument</text>
</a>
</g>
</g>
<!-- Node8&#45;&gt;Node9 -->
<g id="edge9" class="edge">
<title>Node8&#45;&gt;Node9</title>
<path fill="none" stroke="#191970" d="M1268.0268,-280.9213C1277.7587,-281.9342 1287.7043,-282.9692 1297.5481,-283.9937"/>
<polygon fill="#191970" stroke="#191970" points="1297.4477,-287.5021 1307.7563,-285.0561 1298.1724,-280.5397 1297.4477,-287.5021"/>
</g>
<!-- Node10 -->
<g id="node10" class="node">
<title>Node10</title>
<g id="a_node10"><a xlink:href="../../dc/da1/xDataTOM__importXML__private_8h.html#ab62d17b73fe2382ebc2411f813df87d0" target="_top" xlink:title="xDataXML_getElementsDocument">
<polygon fill="none" stroke="#000000" points="1304,-239.5 1304,-259.5 1493,-259.5 1493,-239.5 1304,-239.5"/>
<text text-anchor="middle" x="1398.5" y="-246.5" font-family="FreeSans" font-size="10.00" fill="#000000">xDataXML_getElementsDocument</text>
</a>
</g>
</g>
<!-- Node8&#45;&gt;Node10 -->
<g id="edge10" class="edge">
<title>Node8&#45;&gt;Node10</title>
<path fill="none" stroke="#191970" d="M1268.0268,-262.4883C1276.5089,-261.6439 1285.1534,-260.7834 1293.7513,-259.9275"/>
<polygon fill="#191970" stroke="#191970" points="1294.2065,-263.3995 1303.8106,-258.9261 1293.5131,-256.434 1294.2065,-263.3995"/>
</g>
<!-- Node14 -->
<g id="node14" class="node">
<title>Node14</title>
<g id="a_node14"><a xlink:href="../../dd/dc6/statusMessageReporting_8h.html#a23c74a6eff07826813358d99f43e1121" target="_top" xlink:title="smr_freeMemory">
<polygon fill="none" stroke="#000000" points="1127,-592.5 1127,-612.5 1228,-612.5 1228,-592.5 1127,-592.5"/>
<text text-anchor="middle" x="1177.5" y="-599.5" font-family="FreeSans" font-size="10.00" fill="#000000">smr_freeMemory</text>
</a>
</g>
</g>
<!-- Node13&#45;&gt;Node14 -->
<g id="edge14" class="edge">
<title>Node13&#45;&gt;Node14</title>
<path fill="none" stroke="#191970" d="M368.3121,-563.513C484.8978,-586.7148 793.1545,-640.7559 1051,-621.5 1072.6015,-619.8868 1096.1061,-616.7447 1116.9278,-613.4729"/>
<polygon fill="#191970" stroke="#191970" points="1117.5986,-616.91 1126.9137,-611.8624 1116.484,-609.9993 1117.5986,-616.91"/>
</g>
<!-- Node15 -->
<g id="node15" class="node">
<title>Node15</title>
<g id="a_node15"><a xlink:href="../../dd/d05/xDataTOM_8h.html#afe714a74ce880fcbc895fca28a8942d3" target="_top" xlink:title="xData_initializeData">
<polygon fill="none" stroke="#000000" points="488,-670.5 488,-690.5 605,-690.5 605,-670.5 488,-670.5"/>
<text text-anchor="middle" x="546.5" y="-677.5" font-family="FreeSans" font-size="10.00" fill="#000000">xData_initializeData</text>
</a>
</g>
</g>
<!-- Node13&#45;&gt;Node15 -->
<g id="edge15" class="edge">
<title>Node13&#45;&gt;Node15</title>
<path fill="none" stroke="#191970" d="M330.4189,-563.5465C351.1215,-583.9444 401.2361,-630.4012 452,-655.5 461.9002,-660.3949 472.8738,-664.4167 483.7354,-667.693"/>
<polygon fill="#191970" stroke="#191970" points="483.0696,-671.1419 493.6447,-670.4959 484.9749,-664.4062 483.0696,-671.1419"/>
</g>
<!-- Node16 -->
<g id="node16" class="node">
<title>Node16</title>
<g id="a_node16"><a xlink:href="../../dc/da1/xDataTOM__importXML__private_8h.html#ac95583cbd337b53e4066e34c2a0d71d2" target="_top" xlink:title="xDataXML_axesElememtToTOM">
<polygon fill="none" stroke="#000000" points="459.5,-455.5 459.5,-475.5 633.5,-475.5 633.5,-455.5 459.5,-455.5"/>
<text text-anchor="middle" x="546.5" y="-462.5" font-family="FreeSans" font-size="10.00" fill="#000000">xDataXML_axesElememtToTOM</text>
</a>
</g>
</g>
<!-- Node13&#45;&gt;Node16 -->
<g id="edge16" class="edge">
<title>Node13&#45;&gt;Node16</title>
<path fill="none" stroke="#191970" d="M346.4251,-543.4053C386.9316,-527.6328 465.3148,-497.1119 511.024,-479.3137"/>
<polygon fill="#191970" stroke="#191970" points="512.4816,-482.5021 520.5301,-475.6122 509.9417,-475.9792 512.4816,-482.5021"/>
</g>
<!-- Node16&#45;&gt;Node8 -->
<g id="edge39" class="edge">
<title>Node16&#45;&gt;Node8</title>
<path fill="none" stroke="#191970" d="M633.7417,-464.6952C697.4342,-460.7387 783.9925,-448.1452 851,-411.5 871.6963,-400.1816 866.4694,-384.1164 887,-372.5 951.7873,-335.8428 980.9664,-363.7276 1051,-338.5 1083.9019,-326.6481 1118.8547,-307.5816 1143.6624,-292.8131"/>
<polygon fill="#191970" stroke="#191970" points="1145.5672,-295.7515 1152.3204,-287.5879 1141.9503,-289.7584 1145.5672,-295.7515"/>
</g>
<!-- Node16&#45;&gt;Node11 -->
<g id="edge40" class="edge">
<title>Node16&#45;&gt;Node11</title>
<path fill="none" stroke="#191970" d="M549.8552,-455.321C561.3046,-422.4778 602.3239,-319.209 677,-280.5 755.4971,-239.8104 862.5691,-254.5636 922.8456,-268.1007"/>
<polygon fill="#191970" stroke="#191970" points="922.2888,-271.5647 932.8224,-270.4269 923.8784,-264.7476 922.2888,-271.5647"/>
</g>
<!-- Node16&#45;&gt;Node12 -->
<g id="edge41" class="edge">
<title>Node16&#45;&gt;Node12</title>
<path fill="none" stroke="#191970" d="M585.9423,-455.418C644.9649,-439.6968 759.1513,-406.8141 851,-365.5 867.893,-357.9014 870.0267,-351.9175 887,-344.5 897.3369,-339.9827 908.7412,-335.9487 919.6745,-332.5079"/>
<polygon fill="#191970" stroke="#191970" points="920.9841,-335.7683 929.5389,-329.5179 918.9535,-329.0693 920.9841,-335.7683"/>
</g>
<!-- Node17 -->
<g id="node17" class="node">
<title>Node17</title>
<g id="a_node17"><a xlink:href="../../dc/da1/xDataTOM__importXML__private_8h.html#ae291ce82cbd5722d70211656e3166faf" target="_top" xlink:title="xDataXML_axesToTOM">
<polygon fill="none" stroke="#000000" points="699.5,-514.5 699.5,-534.5 828.5,-534.5 828.5,-514.5 699.5,-514.5"/>
<text text-anchor="middle" x="764" y="-521.5" font-family="FreeSans" font-size="10.00" fill="#000000">xDataXML_axesToTOM</text>
</a>
</g>
</g>
<!-- Node16&#45;&gt;Node17 -->
<g id="edge17" class="edge">
<title>Node16&#45;&gt;Node17</title>
<path fill="none" stroke="#191970" d="M583.3959,-475.5085C620.2668,-485.5103 677.0837,-500.9227 717.1265,-511.7849"/>
<polygon fill="#191970" stroke="#191970" points="716.3555,-515.2022 726.9231,-514.4424 718.1882,-508.4463 716.3555,-515.2022"/>
</g>
<!-- Node17&#45;&gt;Node2 -->
<g id="edge18" class="edge">
<title>Node17&#45;&gt;Node2</title>
<path fill="none" stroke="#191970" d="M767.4421,-534.6305C778.8183,-566.4667 818.4402,-665.1292 887,-711.5 905.7283,-724.167 1035.6359,-747.2457 1115.257,-760.4726"/>
<polygon fill="#191970" stroke="#191970" points="1114.7476,-763.9358 1125.1846,-762.114 1115.8896,-757.0295 1114.7476,-763.9358"/>
</g>
<!-- Node17&#45;&gt;Node7 -->
<g id="edge27" class="edge">
<title>Node17&#45;&gt;Node7</title>
<path fill="none" stroke="#191970" d="M765.1199,-534.7409C770.1724,-575.4381 794.7839,-726.6076 887,-790.5 920.6956,-813.8461 1170.5657,-823.2675 1308.1858,-826.7171"/>
<polygon fill="#191970" stroke="#191970" points="1308.2189,-830.2188 1318.3017,-826.965 1308.3904,-823.2209 1308.2189,-830.2188"/>
</g>
<!-- Node17&#45;&gt;Node8 -->
<g id="edge35" class="edge">
<title>Node17&#45;&gt;Node8</title>
<path fill="none" stroke="#191970" d="M793.2749,-514.365C811.539,-506.9153 834.6075,-495.3279 851,-479.5 874.4777,-456.831 861.1664,-435.4428 887,-415.5 946.6473,-369.454 983.6515,-406.2966 1051,-372.5 1091.3437,-352.2548 1130.8593,-317.6557 1154.7048,-294.6836"/>
<polygon fill="#191970" stroke="#191970" points="1157.1768,-297.1616 1161.8774,-287.6666 1152.2816,-292.1579 1157.1768,-297.1616"/>
</g>
<!-- Node17&#45;&gt;Node11 -->
<g id="edge37" class="edge">
<title>Node17&#45;&gt;Node11</title>
<path fill="none" stroke="#191970" d="M766.3359,-514.491C775.1738,-478.9594 810.0421,-357.8948 887,-299.5 889.0882,-297.9155 891.2863,-296.4598 893.5687,-295.1226"/>
<polygon fill="#191970" stroke="#191970" points="895.3624,-298.1387 902.7358,-290.5306 892.2272,-291.88 895.3624,-298.1387"/>
</g>
<!-- Node17&#45;&gt;Node12 -->
<g id="edge38" class="edge">
<title>Node17&#45;&gt;Node12</title>
<path fill="none" stroke="#191970" d="M776.5134,-514.3863C794.3589,-499.5805 827.5508,-470.593 851,-441.5 870.277,-417.5834 866.4744,-405.3539 887,-382.5 903.7529,-363.8468 926.6309,-346.7963 943.9654,-335.1511"/>
<polygon fill="#191970" stroke="#191970" points="946.0231,-337.9872 952.4632,-329.5743 942.1824,-332.1349 946.0231,-337.9872"/>
</g>
<!-- Node17&#45;&gt;Node14 -->
<g id="edge19" class="edge">
<title>Node17&#45;&gt;Node14</title>
<path fill="none" stroke="#191970" d="M828.6177,-522.0428C887.4971,-521.379 976.3931,-524.3497 1051,-543.5 1088.0475,-553.0094 1127.4984,-573.2205 1152.3062,-587.3223"/>
<polygon fill="#191970" stroke="#191970" points="1150.6539,-590.4099 1161.0615,-592.3927 1154.162,-584.3524 1150.6539,-590.4099"/>
</g>
<!-- Node18 -->
<g id="node18" class="node">
<title>Node18</title>
<g id="a_node18"><a xlink:href="../../dd/d05/xDataTOM_8h.html#aa50d4969537ffe30273ecc7cb3ba35b4" target="_top" xlink:title="xDataTOM_axes_initialize">
<polygon fill="none" stroke="#000000" points="896.5,-553.5 896.5,-573.5 1041.5,-573.5 1041.5,-553.5 896.5,-553.5"/>
<text text-anchor="middle" x="969" y="-560.5" font-family="FreeSans" font-size="10.00" fill="#000000">xDataTOM_axes_initialize</text>
</a>
</g>
</g>
<!-- Node17&#45;&gt;Node18 -->
<g id="edge20" class="edge">
<title>Node17&#45;&gt;Node18</title>
<path fill="none" stroke="#191970" d="M816.7926,-534.5435C844.1718,-539.7522 877.7943,-546.1487 906.4686,-551.6038"/>
<polygon fill="#191970" stroke="#191970" points="905.9084,-555.0599 916.3863,-553.4906 907.2167,-548.1832 905.9084,-555.0599"/>
</g>
<!-- Node19 -->
<g id="node19" class="node">
<title>Node19</title>
<g id="a_node19"><a xlink:href="../../dd/d05/xDataTOM_8h.html#a870fd846fb0f0d9a5de7dc346cf07ca9" target="_top" xlink:title="xDataTOM_axis_initialize">
<polygon fill="none" stroke="#000000" points="898,-760.5 898,-780.5 1040,-780.5 1040,-760.5 898,-760.5"/>
<text text-anchor="middle" x="969" y="-767.5" font-family="FreeSans" font-size="10.00" fill="#000000">xDataTOM_axis_initialize</text>
</a>
</g>
</g>
<!-- Node17&#45;&gt;Node19 -->
<g id="edge21" class="edge">
<title>Node17&#45;&gt;Node19</title>
<path fill="none" stroke="#191970" d="M766.6663,-534.6355C776.3771,-569.5431 813.2162,-685.9036 887,-745.5 892.4453,-749.8982 898.6574,-753.5242 905.1708,-756.5132"/>
<polygon fill="#191970" stroke="#191970" points="904.293,-759.9342 914.8751,-760.4525 906.9259,-753.4482 904.293,-759.9342"/>
</g>
<!-- Node20 -->
<g id="node20" class="node">
<title>Node20</title>
<g id="a_node20"><a xlink:href="../../dd/d05/xDataTOM_8h.html#aaec990b043cdae79edbfaeb9b4768981" target="_top" xlink:title="xDataTOM_axis_release">
<polygon fill="none" stroke="#000000" points="901,-592.5 901,-612.5 1037,-612.5 1037,-592.5 901,-592.5"/>
<text text-anchor="middle" x="969" y="-599.5" font-family="FreeSans" font-size="10.00" fill="#000000">xDataTOM_axis_release</text>
</a>
</g>
</g>
<!-- Node17&#45;&gt;Node20 -->
<g id="edge25" class="edge">
<title>Node17&#45;&gt;Node20</title>
<path fill="none" stroke="#191970" d="M782.2613,-534.5425C805.8591,-547.182 848.4932,-568.8818 887,-582.5 894.6608,-585.2093 902.8503,-587.6833 910.98,-589.8968"/>
<polygon fill="#191970" stroke="#191970" points="910.2675,-593.328 920.8272,-592.4659 912.0347,-586.5547 910.2675,-593.328"/>
</g>
<!-- Node21 -->
<g id="node21" class="node">
<title>Node21</title>
<g id="a_node21"><a xlink:href="../../dd/d05/xDataTOM_8h.html#a0d724b2c3557840c9069a9593ea7fa9e" target="_top" xlink:title="xDataTOM_interpolation\l_setFromString">
<polygon fill="none" stroke="#000000" points="900,-670.5 900,-702.5 1038,-702.5 1038,-670.5 900,-670.5"/>
<text text-anchor="start" x="908" y="-689.5" font-family="FreeSans" font-size="10.00" fill="#000000">xDataTOM_interpolation</text>
<text text-anchor="middle" x="969" y="-677.5" font-family="FreeSans" font-size="10.00" fill="#000000">_setFromString</text>
</a>
</g>
</g>
<!-- Node17&#45;&gt;Node21 -->
<g id="edge28" class="edge">
<title>Node17&#45;&gt;Node21</title>
<path fill="none" stroke="#191970" d="M776.8237,-534.6338C809.3362,-560.3267 895.599,-628.4953 940.6711,-664.1133"/>
<polygon fill="#191970" stroke="#191970" points="938.5695,-666.9134 948.5855,-670.3676 942.9097,-661.4213 938.5695,-666.9134"/>
</g>
<!-- Node23 -->
<g id="node23" class="node">
<title>Node23</title>
<g id="a_node23"><a xlink:href="../../dc/da1/xDataTOM__importXML__private_8h.html#a84a97032588de9c4cae9760ed7ec9af4" target="_top" xlink:title="xDataXML_convertAttribute\lTo_xDataTOM_Int">
<polygon fill="none" stroke="#000000" points="891.5,-425.5 891.5,-457.5 1046.5,-457.5 1046.5,-425.5 891.5,-425.5"/>
<text text-anchor="start" x="899.5" y="-444.5" font-family="FreeSans" font-size="10.00" fill="#000000">xDataXML_convertAttribute</text>
<text text-anchor="middle" x="969" y="-432.5" font-family="FreeSans" font-size="10.00" fill="#000000">To_xDataTOM_Int</text>
</a>
</g>
</g>
<!-- Node17&#45;&gt;Node23 -->
<g id="edge31" class="edge">
<title>Node17&#45;&gt;Node23</title>
<path fill="none" stroke="#191970" d="M787.0135,-514.4578C811.6435,-503.7837 851.9157,-486.5419 887,-472.5 896.3257,-468.7676 906.2931,-464.8992 915.9515,-461.213"/>
<polygon fill="#191970" stroke="#191970" points="917.3647,-464.4204 925.4718,-457.5994 914.8805,-457.8759 917.3647,-464.4204"/>
</g>
<!-- Node24 -->
<g id="node24" class="node">
<title>Node24</title>
<g id="a_node24"><a xlink:href="../../dc/da1/xDataTOM__importXML__private_8h.html#ac945e956635f1b096398cef017322990" target="_top" xlink:title="xDataXML_getAttributesValue\lInElement">
<polygon fill="none" stroke="#000000" points="1094.5,-425.5 1094.5,-457.5 1260.5,-457.5 1260.5,-425.5 1094.5,-425.5"/>
<text text-anchor="start" x="1102.5" y="-444.5" font-family="FreeSans" font-size="10.00" fill="#000000">xDataXML_getAttributesValue</text>
<text text-anchor="middle" x="1177.5" y="-432.5" font-family="FreeSans" font-size="10.00" fill="#000000">InElement</text>
</a>
</g>
</g>
<!-- Node17&#45;&gt;Node24 -->
<g id="edge36" class="edge">
<title>Node17&#45;&gt;Node24</title>
<path fill="none" stroke="#191970" d="M813.8778,-514.4883C881.5805,-500.8986 1003.7273,-476.3806 1087.6297,-459.5393"/>
<polygon fill="#191970" stroke="#191970" points="1088.5503,-462.9244 1097.6659,-457.5247 1087.1726,-456.0613 1088.5503,-462.9244"/>
</g>
<!-- Node19&#45;&gt;Node2 -->
<g id="edge22" class="edge">
<title>Node19&#45;&gt;Node2</title>
<path fill="none" stroke="#191970" d="M1040.1707,-770.5C1064.5256,-770.5 1091.5677,-770.5 1115.1701,-770.5"/>
<polygon fill="#191970" stroke="#191970" points="1115.4025,-774.0001 1125.4025,-770.5 1115.4024,-767.0001 1115.4025,-774.0001"/>
</g>
<!-- Node19&#45;&gt;Node6 -->
<g id="edge24" class="edge">
<title>Node19&#45;&gt;Node6</title>
<path fill="none" stroke="#191970" d="M995.8309,-780.5375C1032.7924,-794.3648 1099.4991,-819.3198 1140.9801,-834.8379"/>
<polygon fill="#191970" stroke="#191970" points="1139.8494,-838.1517 1150.4418,-838.3775 1142.3021,-831.5955 1139.8494,-838.1517"/>
</g>
<!-- Node19&#45;&gt;Node14 -->
<g id="edge23" class="edge">
<title>Node19&#45;&gt;Node14</title>
<path fill="none" stroke="#191970" d="M986.2845,-760.4413C1003.8156,-749.7213 1031.1243,-731.5562 1051,-711.5 1070.5297,-691.793 1066.9477,-679.675 1087,-660.5 1105.2302,-643.0674 1129.4384,-627.8745 1148.2299,-617.416"/>
<polygon fill="#191970" stroke="#191970" points="1150.1134,-620.3762 1157.2357,-612.5325 1146.7765,-614.2227 1150.1134,-620.3762"/>
</g>
<!-- Node20&#45;&gt;Node14 -->
<g id="edge26" class="edge">
<title>Node20&#45;&gt;Node14</title>
<path fill="none" stroke="#191970" d="M1037.2707,-602.5C1062.9489,-602.5 1091.9465,-602.5 1116.881,-602.5"/>
<polygon fill="#191970" stroke="#191970" points="1116.9365,-606.0001 1126.9365,-602.5 1116.9365,-599.0001 1116.9365,-606.0001"/>
</g>
<!-- Node21&#45;&gt;Node7 -->
<g id="edge30" class="edge">
<title>Node21&#45;&gt;Node7</title>
<path fill="none" stroke="#191970" d="M1038.2341,-701.2673C1124.854,-719.7837 1262.5905,-749.3796 1268,-751.5 1308.5723,-767.403 1351.2808,-794.9668 1376.372,-812.4411"/>
<polygon fill="#191970" stroke="#191970" points="1374.5953,-815.4712 1384.7824,-818.3822 1378.6341,-809.7538 1374.5953,-815.4712"/>
</g>
<!-- Node22 -->
<g id="node22" class="node">
<title>Node22</title>
<g id="a_node22"><a xlink:href="../../d8/d15/xDataTOM__interpolation_8cc.html#ac74ed6213a202074b7445bbf3123c410" target="_top" xlink:title="xDataTOM_interpolation\l_getFromString">
<polygon fill="none" stroke="#000000" points="1108.5,-670.5 1108.5,-702.5 1246.5,-702.5 1246.5,-670.5 1108.5,-670.5"/>
<text text-anchor="start" x="1116.5" y="-689.5" font-family="FreeSans" font-size="10.00" fill="#000000">xDataTOM_interpolation</text>
<text text-anchor="middle" x="1177.5" y="-677.5" font-family="FreeSans" font-size="10.00" fill="#000000">_getFromString</text>
</a>
</g>
</g>
<!-- Node21&#45;&gt;Node22 -->
<g id="edge29" class="edge">
<title>Node21&#45;&gt;Node22</title>
<path fill="none" stroke="#191970" d="M1038.1379,-686.5C1057.3173,-686.5 1078.2919,-686.5 1098.0119,-686.5"/>
<polygon fill="#191970" stroke="#191970" points="1098.1936,-690.0001 1108.1936,-686.5 1098.1936,-683.0001 1098.1936,-690.0001"/>
</g>
<!-- Node23&#45;&gt;Node8 -->
<g id="edge32" class="edge">
<title>Node23&#45;&gt;Node8</title>
<path fill="none" stroke="#191970" d="M1022.437,-425.4915C1032.3543,-421.376 1042.3147,-416.403 1051,-410.5 1097.6674,-378.7822 1139.0096,-326.4886 1160.9263,-295.8905"/>
<polygon fill="#191970" stroke="#191970" points="1163.9366,-297.6947 1166.8352,-287.5041 1158.2143,-293.6629 1163.9366,-297.6947"/>
</g>
<!-- Node23&#45;&gt;Node24 -->
<g id="edge33" class="edge">
<title>Node23&#45;&gt;Node24</title>
<path fill="none" stroke="#191970" d="M1046.6377,-441.5C1058.8797,-441.5 1071.6463,-441.5 1084.1989,-441.5"/>
<polygon fill="#191970" stroke="#191970" points="1084.2058,-445.0001 1094.2058,-441.5 1084.2057,-438.0001 1084.2058,-445.0001"/>
</g>
<!-- Node25 -->
<g id="node25" class="node">
<title>Node25</title>
<g id="a_node25"><a xlink:href="../../dc/da1/xDataTOM__importXML__private_8h.html#a825f97e31c0f9a36a00dc11e8aa5b30f" target="_top" xlink:title="xDataXML_getAttributesValue">
<polygon fill="none" stroke="#000000" points="1315.5,-431.5 1315.5,-451.5 1481.5,-451.5 1481.5,-431.5 1315.5,-431.5"/>
<text text-anchor="middle" x="1398.5" y="-438.5" font-family="FreeSans" font-size="10.00" fill="#000000">xDataXML_getAttributesValue</text>
</a>
</g>
</g>
<!-- Node24&#45;&gt;Node25 -->
<g id="edge34" class="edge">
<title>Node24&#45;&gt;Node25</title>
<path fill="none" stroke="#191970" d="M1260.7357,-441.5C1275.2503,-441.5 1290.4343,-441.5 1305.1985,-441.5"/>
<polygon fill="#191970" stroke="#191970" points="1305.3393,-445.0001 1315.3393,-441.5 1305.3393,-438.0001 1305.3393,-445.0001"/>
</g>
<!-- Node26&#45;&gt;Node11 -->
<g id="edge43" class="edge">
<title>Node26&#45;&gt;Node11</title>
<path fill="none" stroke="#191970" d="M849.1575,-295.6995C860.2751,-294.2895 871.673,-292.8439 882.8074,-291.4317"/>
<polygon fill="#191970" stroke="#191970" points="883.4631,-294.8767 892.9432,-290.1462 882.5823,-287.9323 883.4631,-294.8767"/>
</g>
<!-- Node26&#45;&gt;Node12 -->
<g id="edge44" class="edge">
<title>Node26&#45;&gt;Node12</title>
<path fill="none" stroke="#191970" d="M849.1575,-311.9002C859.9115,-312.5822 870.9279,-313.2808 881.7143,-313.9648"/>
<polygon fill="#191970" stroke="#191970" points="881.768,-317.4752 891.9695,-314.6151 882.211,-310.4892 881.768,-317.4752"/>
</g>
<!-- Node27&#45;&gt;Node23 -->
<g id="edge46" class="edge">
<title>Node27&#45;&gt;Node23</title>
<path fill="none" stroke="#191970" d="M556.303,-194.6999C575.6906,-225.474 621.8656,-292.7654 677,-331.5 741.2704,-376.653 826.4074,-405.945 888.1571,-422.8582"/>
<polygon fill="#191970" stroke="#191970" points="887.2941,-426.2504 897.8599,-425.4669 889.1116,-419.4905 887.2941,-426.2504"/>
</g>
<!-- Node28 -->
<g id="node28" class="node">
<title>Node28</title>
<g id="a_node28"><a xlink:href="../../dc/da1/xDataTOM__importXML__private_8h.html#ad3fbfba390d1d96b39fb3b23f059ef23" target="_top" xlink:title="xDataXML_convertAttribute\lToDouble">
<polygon fill="none" stroke="#000000" points="891.5,-168.5 891.5,-200.5 1046.5,-200.5 1046.5,-168.5 891.5,-168.5"/>
<text text-anchor="start" x="899.5" y="-187.5" font-family="FreeSans" font-size="10.00" fill="#000000">xDataXML_convertAttribute</text>
<text text-anchor="middle" x="969" y="-175.5" font-family="FreeSans" font-size="10.00" fill="#000000">ToDouble</text>
</a>
</g>
</g>
<!-- Node27&#45;&gt;Node28 -->
<g id="edge47" class="edge">
<title>Node27&#45;&gt;Node28</title>
<path fill="none" stroke="#191970" d="M641.0542,-179.8428C712.9269,-180.8635 811.0617,-182.2571 881.2118,-183.2533"/>
<polygon fill="#191970" stroke="#191970" points="881.3036,-186.7549 891.3523,-183.3973 881.403,-179.7556 881.3036,-186.7549"/>
</g>
<!-- Node29 -->
<g id="node29" class="node">
<title>Node29</title>
<g id="a_node29"><a xlink:href="../../dc/df4/xDataTOM__importXML__W__XYs__LegendreSeries_8cc.html#a8585243a183c1d63e66a3cc2aeb65634" target="_top" xlink:title="xDataXML_LegendreSeriesData\lToTOM">
<polygon fill="none" stroke="#000000" points="677,-118.5 677,-150.5 851,-150.5 851,-118.5 677,-118.5"/>
<text text-anchor="start" x="685" y="-137.5" font-family="FreeSans" font-size="10.00" fill="#000000">xDataXML_LegendreSeriesData</text>
<text text-anchor="middle" x="764" y="-125.5" font-family="FreeSans" font-size="10.00" fill="#000000">ToTOM</text>
</a>
</g>
</g>
<!-- Node27&#45;&gt;Node29 -->
<g id="edge50" class="edge">
<title>Node27&#45;&gt;Node29</title>
<path fill="none" stroke="#191970" d="M625.6378,-162.4905C641.5303,-159.2755 658.3362,-155.8757 674.5507,-152.5955"/>
<polygon fill="#191970" stroke="#191970" points="675.4492,-155.9847 684.5567,-150.5713 674.0612,-149.1237 675.4492,-155.9847"/>
</g>
<!-- Node28&#45;&gt;Node8 -->
<g id="edge48" class="edge">
<title>Node28&#45;&gt;Node8</title>
<path fill="none" stroke="#191970" d="M1025.8697,-200.5458C1034.3699,-203.3158 1042.9703,-206.3317 1051,-209.5 1081.3612,-221.4797 1114.4442,-237.8178 1139.1607,-250.7149"/>
<polygon fill="#191970" stroke="#191970" points="1137.7215,-253.9126 1148.2008,-255.4731 1140.9819,-247.7182 1137.7215,-253.9126"/>
</g>
<!-- Node28&#45;&gt;Node24 -->
<g id="edge49" class="edge">
<title>Node28&#45;&gt;Node24</title>
<path fill="none" stroke="#191970" d="M1038.5929,-200.6202C1043.0559,-203.1595 1047.2536,-206.0985 1051,-209.5 1081.9813,-237.6295 1067.8561,-259.2895 1087,-296.5 1109.662,-340.5489 1141.2508,-388.8066 1160.4881,-417.054"/>
<polygon fill="#191970" stroke="#191970" points="1157.7315,-419.2229 1166.2731,-425.4913 1163.5049,-415.2645 1157.7315,-419.2229"/>
</g>
<!-- Node30 -->
<g id="node30" class="node">
<title>Node30</title>
<g id="a_node30"><a xlink:href="../../dd/d05/xDataTOM_8h.html#acea441c21e758d39c901b2717372cd77" target="_top" xlink:title="xDataTOM_LegendreSeries\l_initialize">
<polygon fill="none" stroke="#000000" points="893,-117.5 893,-149.5 1045,-149.5 1045,-117.5 893,-117.5"/>
<text text-anchor="start" x="901" y="-136.5" font-family="FreeSans" font-size="10.00" fill="#000000">xDataTOM_LegendreSeries</text>
<text text-anchor="middle" x="969" y="-124.5" font-family="FreeSans" font-size="10.00" fill="#000000">_initialize</text>
</a>
</g>
</g>
<!-- Node29&#45;&gt;Node30 -->
<g id="edge51" class="edge">
<title>Node29&#45;&gt;Node30</title>
<path fill="none" stroke="#191970" d="M851.2357,-134.0745C861.6157,-134.0238 872.2093,-133.9721 882.5778,-133.9216"/>
<polygon fill="#191970" stroke="#191970" points="882.8723,-137.4203 892.8551,-133.8714 882.8381,-130.4204 882.8723,-137.4203"/>
</g>
<!-- Node31 -->
<g id="node31" class="node">
<title>Node31</title>
<g id="a_node31"><a xlink:href="../../dd/d05/xDataTOM_8h.html#a38aa36afb5317f4d68d0dbc166e5117b" target="_top" xlink:title="xDataTOM_LegendreSeries\l_release">
<polygon fill="none" stroke="#000000" points="893,-219.5 893,-251.5 1045,-251.5 1045,-219.5 893,-219.5"/>
<text text-anchor="start" x="901" y="-238.5" font-family="FreeSans" font-size="10.00" fill="#000000">xDataTOM_LegendreSeries</text>
<text text-anchor="middle" x="969" y="-226.5" font-family="FreeSans" font-size="10.00" fill="#000000">_release</text>
</a>
</g>
</g>
<!-- Node29&#45;&gt;Node31 -->
<g id="edge52" class="edge">
<title>Node29&#45;&gt;Node31</title>
<path fill="none" stroke="#191970" d="M786.6574,-150.6183C810.6647,-167.1351 850.1255,-192.7088 887,-209.5 892.012,-211.7823 897.2814,-213.9465 902.6302,-215.9793"/>
<polygon fill="#191970" stroke="#191970" points="901.7111,-219.3692 912.3052,-219.4937 904.101,-212.7898 901.7111,-219.3692"/>
</g>
<!-- Node32 -->
<g id="node32" class="node">
<title>Node32</title>
<g id="a_node32"><a xlink:href="../../dc/da1/xDataTOM__importXML__private_8h.html#a3791a5245cca063b972cc0c81e4902fb" target="_top" xlink:title="xDataXML_stringToDoubles">
<polygon fill="none" stroke="#000000" points="892.5,-78.5 892.5,-98.5 1045.5,-98.5 1045.5,-78.5 892.5,-78.5"/>
<text text-anchor="middle" x="969" y="-85.5" font-family="FreeSans" font-size="10.00" fill="#000000">xDataXML_stringToDoubles</text>
</a>
</g>
</g>
<!-- Node29&#45;&gt;Node32 -->
<g id="edge54" class="edge">
<title>Node29&#45;&gt;Node32</title>
<path fill="none" stroke="#191970" d="M835.4113,-118.476C861.295,-112.668 890.1002,-106.2044 914.3162,-100.7705"/>
<polygon fill="#191970" stroke="#191970" points="915.4006,-104.1143 924.3917,-98.5097 913.868,-97.2841 915.4006,-104.1143"/>
</g>
<!-- Node31&#45;&gt;Node14 -->
<g id="edge53" class="edge">
<title>Node31&#45;&gt;Node14</title>
<path fill="none" stroke="#191970" d="M1040.9713,-251.7294C1044.6524,-254.2504 1048.0427,-257.1549 1051,-260.5 1112.5601,-330.1331 1052.5184,-380.1899 1087,-466.5 1105.5418,-512.9117 1141.4401,-559.8706 1162.0134,-584.631"/>
<polygon fill="#191970" stroke="#191970" points="1159.471,-587.0451 1168.5977,-592.426 1164.8186,-582.5281 1159.471,-587.0451"/>
</g>
<!-- Node32&#45;&gt;Node8 -->
<g id="edge55" class="edge">
<title>Node32&#45;&gt;Node8</title>
<path fill="none" stroke="#191970" d="M1032.5894,-98.5488C1039.0719,-100.9284 1045.3433,-103.8684 1051,-107.5 1105.7203,-142.6306 1146.2558,-209.9657 1165.341,-246.476"/>
<polygon fill="#191970" stroke="#191970" points="1162.2738,-248.1657 1169.9384,-255.4804 1168.5082,-244.9826 1162.2738,-248.1657"/>
</g>
<!-- Node33 -->
<g id="node33" class="node">
<title>Node33</title>
<g id="a_node33"><a xlink:href="../../dc/da1/xDataTOM__importXML__private_8h.html#a415e0d605a3aad217d16134d57ac8b2d" target="_top" xlink:title="xDataXML_stringTo_double">
<polygon fill="none" stroke="#000000" points="1101.5,-78.5 1101.5,-98.5 1253.5,-98.5 1253.5,-78.5 1101.5,-78.5"/>
<text text-anchor="middle" x="1177.5" y="-85.5" font-family="FreeSans" font-size="10.00" fill="#000000">xDataXML_stringTo_double</text>
</a>
</g>
</g>
<!-- Node32&#45;&gt;Node33 -->
<g id="edge56" class="edge">
<title>Node32&#45;&gt;Node33</title>
<path fill="none" stroke="#191970" d="M1045.7494,-88.5C1060.4668,-88.5 1075.9718,-88.5 1090.9723,-88.5"/>
<polygon fill="#191970" stroke="#191970" points="1091.2609,-92.0001 1101.2609,-88.5 1091.2609,-85.0001 1091.2609,-92.0001"/>
</g>
<!-- Node34 -->
<g id="node34" class="node">
<title>Node34</title>
<g id="a_node34"><a xlink:href="../../d0/d11/xDataTOM__importXML_8cc.html#ac44c28ff4ce0ca8e18e51c72d8f2b6ee" target="_top" xlink:title="xDataXML_shortStringForMessage">
<polygon fill="none" stroke="#000000" points="1304.5,-78.5 1304.5,-98.5 1492.5,-98.5 1492.5,-78.5 1304.5,-78.5"/>
<text text-anchor="middle" x="1398.5" y="-85.5" font-family="FreeSans" font-size="10.00" fill="#000000">xDataXML_shortStringForMessage</text>
</a>
</g>
</g>
<!-- Node33&#45;&gt;Node34 -->
<g id="edge57" class="edge">
<title>Node33&#45;&gt;Node34</title>
<path fill="none" stroke="#191970" d="M1253.5557,-88.5C1266.5897,-88.5 1280.3341,-88.5 1293.9575,-88.5"/>
<polygon fill="#191970" stroke="#191970" points="1294.338,-92.0001 1304.338,-88.5 1294.3379,-85.0001 1294.338,-92.0001"/>
</g>
</g>
</svg>
