<?xml version="1.0" encoding="UTF-8" standalone="no"?>
<!DOCTYPE svg PUBLIC "-//W3C//DTD SVG 1.1//EN"
 "http://www.w3.org/Graphics/SVG/1.1/DTD/svg11.dtd">
<!-- Generated by graphviz version 2.40.1 (20161225.0304)
 -->
<!-- Title: G4tgrPlaceSimple Pages: 1 -->
<svg width="588pt" height="423pt"
 viewBox="0.00 0.00 588.22 423.00" xmlns="http://www.w3.org/2000/svg" xmlns:xlink="http://www.w3.org/1999/xlink">
<g id="graph0" class="graph" transform="scale(1 1) rotate(0) translate(4 419)">
<title>G4tgrPlaceSimple</title>
<!-- Node1 -->
<g id="node1" class="node">
<title>Node1</title>
<polygon fill="#bfbfbf" stroke="#000000" points="252.222,-69.5 252.222,-89.5 358.222,-89.5 358.222,-69.5 252.222,-69.5"/>
<text text-anchor="middle" x="305.222" y="-76.5" font-family="FreeSans" font-size="10.00" fill="#000000">G4tgrPlaceSimple</text>
</g>
<!-- Node2 -->
<g id="node2" class="node">
<title>Node2</title>
<g id="a_node2"><a xlink:href="../../dd/dc9/classG4tgrPlace.html" target="_top" xlink:title="G4tgrPlace">
<polygon fill="none" stroke="#000000" points="10.222,-162.5 10.222,-182.5 82.222,-182.5 82.222,-162.5 10.222,-162.5"/>
<text text-anchor="middle" x="46.222" y="-169.5" font-family="FreeSans" font-size="10.00" fill="#000000">G4tgrPlace</text>
</a>
</g>
</g>
<!-- Node2&#45;&gt;Node1 -->
<g id="edge1" class="edge">
<title>Node2&#45;&gt;Node1</title>
<path fill="none" stroke="#191970" d="M81.7179,-157.8313C89.2083,-153.9141 96.7848,-149.2772 103.222,-144 118.8975,-131.1492 113.7872,-118.3389 131.222,-108 174.2098,-82.5082 192.9063,-98.1082 242.222,-90 245.395,-89.4783 248.6576,-88.9401 251.9488,-88.3957"/>
<polygon fill="#191970" stroke="#191970" points="79.8152,-154.8656 72.3686,-162.4022 82.8897,-161.1543 79.8152,-154.8656"/>
</g>
<!-- Node7 -->
<g id="node7" class="node">
<title>Node7</title>
<polygon fill="none" stroke="#bfbfbf" points="76.722,-69.5 76.722,-89.5 233.722,-89.5 233.722,-69.5 76.722,-69.5"/>
<text text-anchor="middle" x="155.222" y="-76.5" font-family="FreeSans" font-size="10.00" fill="#000000">std::vector&lt; G4tgrPlace * &gt;</text>
</g>
<!-- Node2&#45;&gt;Node7 -->
<g id="edge9" class="edge">
<title>Node2&#45;&gt;Node7</title>
<path fill="none" stroke="#9a32cd" stroke-dasharray="5,2" d="M42.5901,-152.345C41.265,-138.3504 42.0848,-120.1137 52.222,-108 58.5627,-100.4231 77.4538,-94.218 97.3557,-89.5545"/>
<polygon fill="#9a32cd" stroke="#9a32cd" points="39.1509,-153.0284 43.9756,-162.4609 46.0862,-152.0785 39.1509,-153.0284"/>
<text text-anchor="middle" x="77.722" y="-123" font-family="FreeSans" font-size="10.00" fill="#000000"> elements</text>
</g>
<!-- Node3 -->
<g id="node3" class="node">
<title>Node3</title>
<g id="a_node3"><a xlink:href="../../d5/df8/classG4tgrVolume.html" target="_top" xlink:title="G4tgrVolume">
<polygon fill="none" stroke="#000000" points="290.722,-.5 290.722,-20.5 373.722,-20.5 373.722,-.5 290.722,-.5"/>
<text text-anchor="middle" x="332.222" y="-7.5" font-family="FreeSans" font-size="10.00" fill="#000000">G4tgrVolume</text>
</a>
</g>
</g>
<!-- Node3&#45;&gt;Node2 -->
<g id="edge2" class="edge">
<title>Node3&#45;&gt;Node2</title>
<path fill="none" stroke="#9a32cd" stroke-dasharray="5,2" d="M280.4983,-12.0775C197.9721,-15.8046 42.3159,-28.199 8.222,-69 -15.5893,-97.4956 18.511,-142.2405 36.425,-162.2424"/>
<polygon fill="#9a32cd" stroke="#9a32cd" points="280.8282,-15.5667 290.6706,-11.6453 280.531,-8.573 280.8282,-15.5667"/>
<text text-anchor="middle" x="37.722" y="-76.5" font-family="FreeSans" font-size="10.00" fill="#000000"> theVolume</text>
</g>
<!-- Node4 -->
<g id="node4" class="node">
<title>Node4</title>
<g id="a_node4"><a xlink:href="../../d5/d72/classG4String.html" target="_top" xlink:title="G4String">
<polygon fill="none" stroke="#000000" points="229.222,-249.5 229.222,-269.5 289.222,-269.5 289.222,-249.5 229.222,-249.5"/>
<text text-anchor="middle" x="259.222" y="-256.5" font-family="FreeSans" font-size="10.00" fill="#000000">G4String</text>
</a>
</g>
</g>
<!-- Node4&#45;&gt;Node1 -->
<g id="edge15" class="edge">
<title>Node4&#45;&gt;Node1</title>
<path fill="none" stroke="#9a32cd" stroke-dasharray="5,2" d="M221.8399,-245.505C182.9992,-228.6663 130.6696,-198.1075 152.222,-162 175.887,-122.3534 225.9155,-100.6284 262.3418,-89.5647"/>
<polygon fill="#9a32cd" stroke="#9a32cd" points="220.7944,-248.8613 231.3709,-249.4854 223.4921,-242.4019 220.7944,-248.8613"/>
<text text-anchor="middle" x="195.222" y="-169.5" font-family="FreeSans" font-size="10.00" fill="#000000"> theRotMatName</text>
</g>
<!-- Node4&#45;&gt;Node2 -->
<g id="edge14" class="edge">
<title>Node4&#45;&gt;Node2</title>
<path fill="none" stroke="#9a32cd" stroke-dasharray="5,2" d="M218.9535,-255.7788C160.343,-249.9506 57.2732,-237.9852 46.222,-225 36.2977,-213.3389 39.3991,-194.3731 42.7039,-182.7121"/>
<polygon fill="#9a32cd" stroke="#9a32cd" points="218.7071,-259.2713 229.0003,-256.7611 219.3884,-252.3045 218.7071,-259.2713"/>
<text text-anchor="middle" x="87.722" y="-216" font-family="FreeSans" font-size="10.00" fill="#000000"> theParentName</text>
<text text-anchor="middle" x="87.722" y="-204" font-family="FreeSans" font-size="10.00" fill="#000000">theType</text>
</g>
<!-- Node4&#45;&gt;Node3 -->
<g id="edge3" class="edge">
<title>Node4&#45;&gt;Node3</title>
<path fill="none" stroke="#9a32cd" stroke-dasharray="5,2" d="M296.8312,-245.3075C323.1779,-233.1466 356.3983,-212.8214 372.222,-183 380.8723,-166.6977 398.418,-171.1357 367.222,-69 361.5522,-50.4369 348.7828,-31.6493 340.3371,-20.5432"/>
<polygon fill="#9a32cd" stroke="#9a32cd" points="295.2246,-242.1905 287.4805,-249.4209 298.0433,-248.5979 295.2246,-242.1905"/>
<text text-anchor="middle" x="429.722" y="-135" font-family="FreeSans" font-size="10.00" fill="#000000"> theMaterialName</text>
<text text-anchor="middle" x="429.722" y="-123" font-family="FreeSans" font-size="10.00" fill="#000000">theName</text>
<text text-anchor="middle" x="429.722" y="-111" font-family="FreeSans" font-size="10.00" fill="#000000">theType</text>
</g>
<!-- Node8 -->
<g id="node8" class="node">
<title>Node8</title>
<g id="a_node8"><a xlink:href="../../d8/d3d/classG4tgrSolid.html" target="_top" xlink:title="G4tgrSolid">
<polygon fill="none" stroke="#000000" points="462.722,-162.5 462.722,-182.5 531.722,-182.5 531.722,-162.5 462.722,-162.5"/>
<text text-anchor="middle" x="497.222" y="-169.5" font-family="FreeSans" font-size="10.00" fill="#000000">G4tgrSolid</text>
</a>
</g>
</g>
<!-- Node4&#45;&gt;Node8 -->
<g id="edge13" class="edge">
<title>Node4&#45;&gt;Node8</title>
<path fill="none" stroke="#9a32cd" stroke-dasharray="5,2" d="M299.1624,-253.1095C328.3907,-247.662 368.6381,-238.5371 402.222,-225 421.8056,-217.1062 424.7697,-211.2635 443.222,-201 454.5241,-194.7136 467.3179,-187.9462 477.6148,-182.584"/>
<polygon fill="#9a32cd" stroke="#9a32cd" points="298.5334,-249.6664 289.3125,-254.8842 299.7747,-256.5555 298.5334,-249.6664"/>
<text text-anchor="middle" x="468.222" y="-216" font-family="FreeSans" font-size="10.00" fill="#000000"> theName</text>
<text text-anchor="middle" x="468.222" y="-204" font-family="FreeSans" font-size="10.00" fill="#000000">theType</text>
</g>
<!-- Node5 -->
<g id="node5" class="node">
<title>Node5</title>
<g id="a_node5"><a xlink:title="STL class.">
<polygon fill="none" stroke="#bfbfbf" points="225.722,-324.5 225.722,-344.5 292.722,-344.5 292.722,-324.5 225.722,-324.5"/>
<text text-anchor="middle" x="259.222" y="-331.5" font-family="FreeSans" font-size="10.00" fill="#000000">std::string</text>
</a>
</g>
</g>
<!-- Node5&#45;&gt;Node4 -->
<g id="edge4" class="edge">
<title>Node5&#45;&gt;Node4</title>
<path fill="none" stroke="#191970" d="M247.1191,-314.471C244.6501,-300.1364 245.4536,-281.4156 249.5294,-269.9358"/>
<polygon fill="#191970" stroke="#191970" points="243.7843,-315.5589 249.645,-324.3852 250.5677,-313.8306 243.7843,-315.5589"/>
</g>
<!-- Node5&#45;&gt;Node4 -->
<g id="edge6" class="edge">
<title>Node5&#45;&gt;Node4</title>
<path fill="none" stroke="#191970" d="M259.222,-314.0481C259.222,-299.77 259.222,-281.303 259.222,-269.9358"/>
<polygon fill="#191970" stroke="#191970" points="255.7221,-314.3851 259.222,-324.3852 262.7221,-314.3852 255.7221,-314.3851"/>
</g>
<!-- Node5&#45;&gt;Node4 -->
<g id="edge7" class="edge">
<title>Node5&#45;&gt;Node4</title>
<path fill="none" stroke="#191970" d="M271.325,-314.471C273.7939,-300.1364 272.9904,-281.4156 268.9146,-269.9358"/>
<polygon fill="#191970" stroke="#191970" points="267.8764,-313.8306 268.7991,-324.3852 274.6597,-315.5589 267.8764,-313.8306"/>
</g>
<!-- Node6 -->
<g id="node6" class="node">
<title>Node6</title>
<g id="a_node6"><a xlink:title="STL class.">
<polygon fill="none" stroke="#bfbfbf" points="205.722,-382.5 205.722,-414.5 312.722,-414.5 312.722,-382.5 205.722,-382.5"/>
<text text-anchor="start" x="213.722" y="-401.5" font-family="FreeSans" font-size="10.00" fill="#000000">std::basic_string&lt;</text>
<text text-anchor="middle" x="259.222" y="-389.5" font-family="FreeSans" font-size="10.00" fill="#000000"> char &gt;</text>
</a>
</g>
</g>
<!-- Node6&#45;&gt;Node5 -->
<g id="edge5" class="edge">
<title>Node6&#45;&gt;Node5</title>
<path fill="none" stroke="#191970" d="M259.222,-372.2639C259.222,-362.5394 259.222,-352.0805 259.222,-344.641"/>
<polygon fill="#191970" stroke="#191970" points="255.7221,-372.3501 259.222,-382.3501 262.7221,-372.3501 255.7221,-372.3501"/>
</g>
<!-- Node7&#45;&gt;Node3 -->
<g id="edge8" class="edge">
<title>Node7&#45;&gt;Node3</title>
<path fill="none" stroke="#9a32cd" stroke-dasharray="5,2" d="M190.569,-65.7207C224.8043,-52.3747 275.8967,-32.4573 306.4536,-20.5453"/>
<polygon fill="#9a32cd" stroke="#9a32cd" points="189.0052,-62.5737 180.9593,-69.4668 191.5477,-69.0956 189.0052,-62.5737"/>
<text text-anchor="middle" x="294.722" y="-42" font-family="FreeSans" font-size="10.00" fill="#000000"> thePlacements</text>
</g>
<!-- Node8&#45;&gt;Node3 -->
<g id="edge10" class="edge">
<title>Node8&#45;&gt;Node3</title>
<path fill="none" stroke="#9a32cd" stroke-dasharray="5,2" d="M496.0697,-152.1136C494.5575,-138.792 491.0984,-121.4385 483.222,-108 459.8181,-68.069 444.7231,-63.1223 405.222,-39 392.7979,-31.4129 378.0066,-25.1892 364.9974,-20.5147"/>
<polygon fill="#9a32cd" stroke="#9a32cd" points="492.5915,-152.5179 496.9362,-162.1809 499.5657,-151.9176 492.5915,-152.5179"/>
<text text-anchor="middle" x="493.722" y="-76.5" font-family="FreeSans" font-size="10.00" fill="#000000"> theSolid</text>
</g>
<!-- Node9 -->
<g id="node9" class="node">
<title>Node9</title>
<polygon fill="none" stroke="#bfbfbf" points="428.722,-243.5 428.722,-275.5 565.722,-275.5 565.722,-243.5 428.722,-243.5"/>
<text text-anchor="start" x="436.722" y="-262.5" font-family="FreeSans" font-size="10.00" fill="#000000">std::vector&lt; std::vector</text>
<text text-anchor="middle" x="497.222" y="-250.5" font-family="FreeSans" font-size="10.00" fill="#000000">&lt; G4double &gt; * &gt;</text>
</g>
<!-- Node9&#45;&gt;Node8 -->
<g id="edge11" class="edge">
<title>Node9&#45;&gt;Node8</title>
<path fill="none" stroke="#9a32cd" stroke-dasharray="5,2" d="M497.222,-232.7473C497.222,-215.8672 497.222,-195.0163 497.222,-182.7948"/>
<polygon fill="#9a32cd" stroke="#9a32cd" points="493.7221,-233.1359 497.222,-243.136 500.7221,-233.136 493.7221,-233.1359"/>
<text text-anchor="middle" x="538.722" y="-210" font-family="FreeSans" font-size="10.00" fill="#000000"> theSolidParams</text>
</g>
<!-- Node10 -->
<g id="node10" class="node">
<title>Node10</title>
<polygon fill="none" stroke="#bfbfbf" points="426.222,-324.5 426.222,-344.5 568.222,-344.5 568.222,-324.5 426.222,-324.5"/>
<text text-anchor="middle" x="497.222" y="-331.5" font-family="FreeSans" font-size="10.00" fill="#000000">std::vector&lt; G4double &gt;</text>
</g>
<!-- Node10&#45;&gt;Node9 -->
<g id="edge12" class="edge">
<title>Node10&#45;&gt;Node9</title>
<path fill="none" stroke="#9a32cd" stroke-dasharray="5,2" d="M497.222,-314.3477C497.222,-302.2564 497.222,-287.0788 497.222,-275.7566"/>
<polygon fill="#9a32cd" stroke="#9a32cd" points="493.7221,-314.3851 497.222,-324.3852 500.7221,-314.3852 493.7221,-314.3851"/>
<text text-anchor="middle" x="522.722" y="-297" font-family="FreeSans" font-size="10.00" fill="#000000"> elements</text>
</g>
<!-- Node11 -->
<g id="node11" class="node">
<title>Node11</title>
<g id="a_node11"><a xlink:href="../../da/dcf/classCLHEP_1_1Hep3Vector.html" target="_top" xlink:title="CLHEP::Hep3Vector">
<polygon fill="none" stroke="#000000" points="247.722,-162.5 247.722,-182.5 362.722,-182.5 362.722,-162.5 247.722,-162.5"/>
<text text-anchor="middle" x="305.222" y="-169.5" font-family="FreeSans" font-size="10.00" fill="#000000">CLHEP::Hep3Vector</text>
</a>
</g>
</g>
<!-- Node11&#45;&gt;Node1 -->
<g id="edge16" class="edge">
<title>Node11&#45;&gt;Node1</title>
<path fill="none" stroke="#9a32cd" stroke-dasharray="5,2" d="M305.222,-151.9902C305.222,-132.6435 305.222,-104.4545 305.222,-89.5714"/>
<polygon fill="#9a32cd" stroke="#9a32cd" points="301.7221,-152.192 305.222,-162.192 308.7221,-152.1921 301.7221,-152.192"/>
<text text-anchor="middle" x="328.722" y="-123" font-family="FreeSans" font-size="10.00" fill="#000000"> thePlace</text>
</g>
</g>
</svg>
