<?xml version="1.0" encoding="UTF-8" standalone="no"?>
<!DOCTYPE svg PUBLIC "-//W3C//DTD SVG 1.1//EN"
 "http://www.w3.org/Graphics/SVG/1.1/DTD/svg11.dtd">
<!-- Generated by graphviz version 2.40.1 (20161225.0304)
 -->
<!-- Title: G4RDeIonisationParameters::G4RDeIonisationParameters Pages: 1 -->
<svg width="599pt" height="302pt"
 viewBox="0.00 0.00 599.00 302.00" xmlns="http://www.w3.org/2000/svg" xmlns:xlink="http://www.w3.org/1999/xlink">
<g id="graph0" class="graph" transform="scale(1 1) rotate(0) translate(4 298)">
<title>G4RDeIonisationParameters::G4RDeIonisationParameters</title>
<!-- Node1 -->
<g id="node1" class="node">
<title>Node1</title>
<polygon fill="#bfbfbf" stroke="#000000" points="0,-130.5 0,-162.5 165,-162.5 165,-130.5 0,-130.5"/>
<text text-anchor="start" x="8" y="-149.5" font-family="FreeSans" font-size="10.00" fill="#000000">G4RDeIonisationParameters</text>
<text text-anchor="middle" x="82.5" y="-137.5" font-family="FreeSans" font-size="10.00" fill="#000000">::G4RDeIonisationParameters</text>
</g>
<!-- Node2 -->
<g id="node2" class="node">
<title>Node2</title>
<g id="a_node2"><a xlink:href="../../d7/d02/classG4RDeIonisationParameters.html#ab1cf3ff8bca1d77c89b5a0af6ededa56" target="_top" xlink:title="G4RDeIonisationParameters\l::LoadData">
<polygon fill="none" stroke="#000000" points="201,-130.5 201,-162.5 359,-162.5 359,-130.5 201,-130.5"/>
<text text-anchor="start" x="209" y="-149.5" font-family="FreeSans" font-size="10.00" fill="#000000">G4RDeIonisationParameters</text>
<text text-anchor="middle" x="280" y="-137.5" font-family="FreeSans" font-size="10.00" fill="#000000">::LoadData</text>
</a>
</g>
</g>
<!-- Node1&#45;&gt;Node2 -->
<g id="edge1" class="edge">
<title>Node1&#45;&gt;Node2</title>
<path fill="none" stroke="#191970" d="M165.1134,-146.5C173.6226,-146.5 182.296,-146.5 190.8717,-146.5"/>
<polygon fill="#191970" stroke="#191970" points="190.8783,-150.0001 200.8782,-146.5 190.8782,-143.0001 190.8783,-150.0001"/>
</g>
<!-- Node3 -->
<g id="node3" class="node">
<title>Node3</title>
<g id="a_node3"><a xlink:href="../../d5/de4/classG4Material.html#abfa83cce2e474310e98da5ac80d37bb4" target="_top" xlink:title="G4Material::GetMaterialTable">
<polygon fill="none" stroke="#000000" points="411,-273.5 411,-293.5 575,-293.5 575,-273.5 411,-273.5"/>
<text text-anchor="middle" x="493" y="-280.5" font-family="FreeSans" font-size="10.00" fill="#000000">G4Material::GetMaterialTable</text>
</a>
</g>
</g>
<!-- Node2&#45;&gt;Node3 -->
<g id="edge2" class="edge">
<title>Node2&#45;&gt;Node3</title>
<path fill="none" stroke="#191970" d="M290.8839,-162.8951C309.1107,-188.9352 348.4285,-239.3662 395,-264.5 398.7747,-266.5372 402.7356,-268.358 406.8113,-269.9853"/>
<polygon fill="#191970" stroke="#191970" points="405.9015,-273.3768 416.4961,-273.4419 408.2545,-266.7841 405.9015,-273.3768"/>
</g>
<!-- Node4 -->
<g id="node4" class="node">
<title>Node4</title>
<g id="a_node4"><a xlink:href="../../d5/d4f/G4Exception_8hh.html#ad36b5da5d062a20ca47b1c1f1ae353dd" target="_top" xlink:title="G4Exception">
<polygon fill="none" stroke="#000000" points="453,-234.5 453,-254.5 533,-254.5 533,-234.5 453,-234.5"/>
<text text-anchor="middle" x="493" y="-241.5" font-family="FreeSans" font-size="10.00" fill="#000000">G4Exception</text>
</a>
</g>
</g>
<!-- Node2&#45;&gt;Node4 -->
<g id="edge3" class="edge">
<title>Node2&#45;&gt;Node4</title>
<path fill="none" stroke="#191970" d="M298.1191,-162.5133C319.6696,-180.6677 357.4669,-209.7766 395,-225.5 409.9482,-231.7621 427.0526,-235.9846 442.7432,-238.8219"/>
<polygon fill="#191970" stroke="#191970" points="442.3748,-242.3086 452.8131,-240.4939 443.5215,-235.4031 442.3748,-242.3086"/>
</g>
<!-- Node5 -->
<g id="node5" class="node">
<title>Node5</title>
<g id="a_node5"><a xlink:href="../../d5/de4/classG4Material.html#a367ef71701dd787b47c15c2a0c3167d7" target="_top" xlink:title="G4Material::GetNumberOfMaterials">
<polygon fill="none" stroke="#000000" points="395.5,-195.5 395.5,-215.5 590.5,-215.5 590.5,-195.5 395.5,-195.5"/>
<text text-anchor="middle" x="493" y="-202.5" font-family="FreeSans" font-size="10.00" fill="#000000">G4Material::GetNumberOfMaterials</text>
</a>
</g>
</g>
<!-- Node2&#45;&gt;Node5 -->
<g id="edge4" class="edge">
<title>Node2&#45;&gt;Node5</title>
<path fill="none" stroke="#191970" d="M321.6077,-162.5889C343.2606,-170.5474 370.3027,-179.8474 395,-186.5 404.2529,-188.9924 414.0805,-191.2945 423.8029,-193.3722"/>
<polygon fill="#191970" stroke="#191970" points="423.3664,-196.856 433.8682,-195.4548 424.7848,-190.0012 423.3664,-196.856"/>
</g>
<!-- Node6 -->
<g id="node6" class="node">
<title>Node6</title>
<g id="a_node6"><a xlink:href="../../dc/de5/PHG4mRICHDetector_8cc.html#ae62b03935debe2916d1bd671371ec87d" target="_top" xlink:title="material">
<polygon fill="none" stroke="#000000" points="464,-156.5 464,-176.5 522,-176.5 522,-156.5 464,-156.5"/>
<text text-anchor="middle" x="493" y="-163.5" font-family="FreeSans" font-size="10.00" fill="#000000">material</text>
</a>
</g>
</g>
<!-- Node2&#45;&gt;Node6 -->
<g id="edge5" class="edge">
<title>Node2&#45;&gt;Node6</title>
<path fill="none" stroke="#191970" d="M359.0106,-153.9188C391.3072,-156.9514 427.2242,-160.3239 453.7358,-162.8132"/>
<polygon fill="#191970" stroke="#191970" points="453.4825,-166.3047 463.7659,-163.755 454.1369,-159.3354 453.4825,-166.3047"/>
</g>
<!-- Node7 -->
<g id="node7" class="node">
<title>Node7</title>
<g id="a_node7"><a xlink:href="../../d5/de4/classG4Material.html#ad04e40f52334a1335ec07c3dba5affff" target="_top" xlink:title="G4Material::GetElementVector">
<polygon fill="none" stroke="#000000" points="407.5,-117.5 407.5,-137.5 578.5,-137.5 578.5,-117.5 407.5,-117.5"/>
<text text-anchor="middle" x="493" y="-124.5" font-family="FreeSans" font-size="10.00" fill="#000000">G4Material::GetElementVector</text>
</a>
</g>
</g>
<!-- Node2&#45;&gt;Node7 -->
<g id="edge6" class="edge">
<title>Node2&#45;&gt;Node7</title>
<path fill="none" stroke="#191970" d="M359.0106,-139.4521C371.4355,-138.3438 384.3962,-137.1877 397.1511,-136.0499"/>
<polygon fill="#191970" stroke="#191970" points="397.6725,-139.5174 407.322,-135.1426 397.0505,-132.5451 397.6725,-139.5174"/>
</g>
<!-- Node8 -->
<g id="node8" class="node">
<title>Node8</title>
<g id="a_node8"><a xlink:href="../../d5/de4/classG4Material.html#a4f4c62a46fecf76d2cea99a0e3cd63f3" target="_top" xlink:title="G4Material::GetNumberOfElements">
<polygon fill="none" stroke="#000000" points="395,-78.5 395,-98.5 591,-98.5 591,-78.5 395,-78.5"/>
<text text-anchor="middle" x="493" y="-85.5" font-family="FreeSans" font-size="10.00" fill="#000000">G4Material::GetNumberOfElements</text>
</a>
</g>
</g>
<!-- Node2&#45;&gt;Node8 -->
<g id="edge7" class="edge">
<title>Node2&#45;&gt;Node8</title>
<path fill="none" stroke="#191970" d="M324.4147,-130.4668C345.6081,-123.1665 371.4299,-114.7759 395,-108.5 405.5989,-105.6779 416.9336,-103.0308 427.9958,-100.6443"/>
<polygon fill="#191970" stroke="#191970" points="428.9847,-104.0129 438.0494,-98.5282 427.5429,-97.163 428.9847,-104.0129"/>
</g>
<!-- Node9 -->
<g id="node9" class="node">
<title>Node9</title>
<g id="a_node9"><a xlink:href="../../de/d80/classG4Element.html#ad1340161ff1cd3ab74ae508ae3c19fe4" target="_top" xlink:title="G4Element::GetZ">
<polygon fill="none" stroke="#000000" points="441,-39.5 441,-59.5 545,-59.5 545,-39.5 441,-39.5"/>
<text text-anchor="middle" x="493" y="-46.5" font-family="FreeSans" font-size="10.00" fill="#000000">G4Element::GetZ</text>
</a>
</g>
</g>
<!-- Node2&#45;&gt;Node9 -->
<g id="edge8" class="edge">
<title>Node2&#45;&gt;Node9</title>
<path fill="none" stroke="#191970" d="M299.0003,-130.3409C320.768,-112.6852 358.196,-84.8726 395,-69.5 406.2036,-64.8204 418.598,-61.205 430.6969,-58.4217"/>
<polygon fill="#191970" stroke="#191970" points="431.7087,-61.7847 440.7578,-56.2743 430.2475,-54.9389 431.7087,-61.7847"/>
</g>
<!-- Node10 -->
<g id="node10" class="node">
<title>Node10</title>
<g id="a_node10"><a xlink:href="../../de/d4e/classG4DataVector.html#af21c3a04df8fe64b502f1d48d8b47866" target="_top" xlink:title="G4DataVector::contains">
<polygon fill="none" stroke="#000000" points="425,-.5 425,-20.5 561,-20.5 561,-.5 425,-.5"/>
<text text-anchor="middle" x="493" y="-7.5" font-family="FreeSans" font-size="10.00" fill="#000000">G4DataVector::contains</text>
</a>
</g>
</g>
<!-- Node2&#45;&gt;Node10 -->
<g id="edge9" class="edge">
<title>Node2&#45;&gt;Node10</title>
<path fill="none" stroke="#191970" d="M290.9805,-130.4377C309.3431,-104.9159 348.8475,-55.4455 395,-30.5 401.3013,-27.0941 408.1164,-24.2665 415.1161,-21.9194"/>
<polygon fill="#191970" stroke="#191970" points="416.1861,-25.2524 424.7446,-19.0072 414.1595,-18.5522 416.1861,-25.2524"/>
</g>
</g>
</svg>
