<?xml version="1.0" encoding="UTF-8" standalone="no"?>
<!DOCTYPE svg PUBLIC "-//W3C//DTD SVG 1.1//EN"
 "http://www.w3.org/Graphics/SVG/1.1/DTD/svg11.dtd">
<!-- Generated by graphviz version 2.40.1 (20161225.0304)
 -->
<!-- Title: CLHEP::correctPsiPhi Pages: 1 -->
<svg width="443pt" height="68pt"
 viewBox="0.00 0.00 443.00 68.00" xmlns="http://www.w3.org/2000/svg" xmlns:xlink="http://www.w3.org/1999/xlink">
<g id="graph0" class="graph" transform="scale(1 1) rotate(0) translate(4 64)">
<title>CLHEP::correctPsiPhi</title>
<!-- Node1 -->
<g id="node1" class="node">
<title>Node1</title>
<polygon fill="#bfbfbf" stroke="#000000" points="0,-19.5 0,-39.5 119,-39.5 119,-19.5 0,-19.5"/>
<text text-anchor="middle" x="59.5" y="-26.5" font-family="FreeSans" font-size="10.00" fill="#000000">CLHEP::correctPsiPhi</text>
</g>
<!-- Node2 -->
<g id="node2" class="node">
<title>Node2</title>
<g id="a_node2"><a xlink:href="../../df/d28/namespacekdfinder.html#ab72d428625e99a2d7380eb7691c246c7" target="_top" xlink:title="kdfinder::abs">
<polygon fill="none" stroke="#000000" points="169.5,-39.5 169.5,-59.5 252.5,-59.5 252.5,-39.5 169.5,-39.5"/>
<text text-anchor="middle" x="211" y="-46.5" font-family="FreeSans" font-size="10.00" fill="#000000">kdfinder::abs</text>
</a>
</g>
</g>
<!-- Node1&#45;&gt;Node2 -->
<g id="edge1" class="edge">
<title>Node1&#45;&gt;Node2</title>
<path fill="none" stroke="#191970" d="M119.3768,-37.4045C132.5598,-39.1449 146.4144,-40.9738 159.2447,-42.6676"/>
<polygon fill="#191970" stroke="#191970" points="158.9104,-46.1538 169.2825,-43.9927 159.8266,-39.214 158.9104,-46.1538"/>
</g>
<!-- Node4 -->
<g id="node4" class="node">
<title>Node4</title>
<g id="a_node4"><a xlink:href="../../db/da0/namespaceCLHEP.html#ad0b24756db6405e96079cc2439d039c0" target="_top" xlink:title="CLHEP::correctByPi">
<polygon fill="none" stroke="#000000" points="155,-.5 155,-20.5 267,-20.5 267,-.5 155,-.5"/>
<text text-anchor="middle" x="211" y="-7.5" font-family="FreeSans" font-size="10.00" fill="#000000">CLHEP::correctByPi</text>
</a>
</g>
</g>
<!-- Node1&#45;&gt;Node4 -->
<g id="edge3" class="edge">
<title>Node1&#45;&gt;Node4</title>
<path fill="none" stroke="#191970" d="M119.3768,-21.9907C127.6089,-20.9583 136.1029,-19.893 144.4458,-18.8467"/>
<polygon fill="#191970" stroke="#191970" points="145.033,-22.3006 154.5197,-17.5833 144.1618,-15.355 145.033,-22.3006"/>
</g>
<!-- Node3 -->
<g id="node3" class="node">
<title>Node3</title>
<g id="a_node3"><a xlink:href="../../d8/dc7/classkdfinder_1_1TVector.html#ac9649c7577f12a7502ed523260f4ee90" target="_top" xlink:title="kdfinder::TVector::mag">
<polygon fill="none" stroke="#000000" points="303,-39.5 303,-59.5 435,-59.5 435,-39.5 303,-39.5"/>
<text text-anchor="middle" x="369" y="-46.5" font-family="FreeSans" font-size="10.00" fill="#000000">kdfinder::TVector::mag</text>
</a>
</g>
</g>
<!-- Node2&#45;&gt;Node3 -->
<g id="edge2" class="edge">
<title>Node2&#45;&gt;Node3</title>
<path fill="none" stroke="#191970" d="M252.5126,-49.5C264.873,-49.5 278.8271,-49.5 292.6718,-49.5"/>
<polygon fill="#191970" stroke="#191970" points="292.7092,-53.0001 302.7091,-49.5 292.7091,-46.0001 292.7092,-53.0001"/>
</g>
</g>
</svg>
