<?xml version="1.0" encoding="UTF-8" standalone="no"?>
<!DOCTYPE svg PUBLIC "-//W3C//DTD SVG 1.1//EN"
 "http://www.w3.org/Graphics/SVG/1.1/DTD/svg11.dtd">
<!-- Generated by graphviz version 2.40.1 (20161225.0304)
 -->
<!-- Title: HepGeom::operator* Pages: 1 -->
<svg width="325pt" height="458pt"
 viewBox="0.00 0.00 325.00 458.00" xmlns="http://www.w3.org/2000/svg" xmlns:xlink="http://www.w3.org/1999/xlink">
<g id="graph0" class="graph" transform="scale(1 1) rotate(0) translate(4 454)">
<title>HepGeom::operator*</title>
<!-- Node1 -->
<g id="node1" class="node">
<title>Node1</title>
<polygon fill="#bfbfbf" stroke="#000000" points="0,-214.5 0,-234.5 122,-234.5 122,-214.5 0,-214.5"/>
<text text-anchor="middle" x="61" y="-221.5" font-family="FreeSans" font-size="10.00" fill="#000000">HepGeom::operator*</text>
</g>
<!-- Node2 -->
<g id="node2" class="node">
<title>Node2</title>
<g id="a_node2"><a xlink:href="../../d3/d15/classHepGeom_1_1BasicVector3D.html#a0a1be6cd758b74f7d069ef3ba759e2ce" target="_top" xlink:title="HepGeom::BasicVector3D::x">
<polygon fill="none" stroke="#000000" points="158,-429.5 158,-449.5 317,-449.5 317,-429.5 158,-429.5"/>
<text text-anchor="middle" x="237.5" y="-436.5" font-family="FreeSans" font-size="10.00" fill="#000000">HepGeom::BasicVector3D::x</text>
</a>
</g>
</g>
<!-- Node1&#45;&gt;Node2 -->
<g id="edge1" class="edge">
<title>Node1&#45;&gt;Node2</title>
<path fill="none" stroke="#191970" d="M62.8454,-234.5067C69.369,-266.9206 94.4626,-369.8599 158,-420.5 159.8484,-421.9732 161.7928,-423.3351 163.8129,-424.594"/>
<polygon fill="#191970" stroke="#191970" points="162.6129,-427.9176 173.092,-429.4793 165.8739,-421.7236 162.6129,-427.9176"/>
</g>
<!-- Node3 -->
<g id="node3" class="node">
<title>Node3</title>
<g id="a_node3"><a xlink:href="../../dd/de6/classHepGeom_1_1Transform3D.html#ab78b639df8a39f8857193e5f840766d4" target="_top" xlink:title="HepGeom::Transform3D::xx">
<polygon fill="none" stroke="#000000" points="159,-390.5 159,-410.5 316,-410.5 316,-390.5 159,-390.5"/>
<text text-anchor="middle" x="237.5" y="-397.5" font-family="FreeSans" font-size="10.00" fill="#000000">HepGeom::Transform3D::xx</text>
</a>
</g>
</g>
<!-- Node1&#45;&gt;Node3 -->
<g id="edge2" class="edge">
<title>Node1&#45;&gt;Node3</title>
<path fill="none" stroke="#191970" d="M64.2557,-234.8707C73.7125,-263.2135 103.9937,-342.4548 158,-381.5 160.2407,-383.12 162.6009,-384.6034 165.0493,-385.9617"/>
<polygon fill="#191970" stroke="#191970" points="163.7132,-389.2023 174.2454,-390.353 166.7296,-382.8855 163.7132,-389.2023"/>
</g>
<!-- Node4 -->
<g id="node4" class="node">
<title>Node4</title>
<g id="a_node4"><a xlink:href="../../dd/de6/classHepGeom_1_1Transform3D.html#a7758398183b2b99bfd3ba7801a7a0f52" target="_top" xlink:title="HepGeom::Transform3D::xy">
<polygon fill="none" stroke="#000000" points="159,-351.5 159,-371.5 316,-371.5 316,-351.5 159,-351.5"/>
<text text-anchor="middle" x="237.5" y="-358.5" font-family="FreeSans" font-size="10.00" fill="#000000">HepGeom::Transform3D::xy</text>
</a>
</g>
</g>
<!-- Node1&#45;&gt;Node4 -->
<g id="edge3" class="edge">
<title>Node1&#45;&gt;Node4</title>
<path fill="none" stroke="#191970" d="M66.2492,-234.587C78.7808,-257.6159 112.8006,-314.2454 158,-342.5 160.9782,-344.3617 164.1236,-346.041 167.3761,-347.5558"/>
<polygon fill="#191970" stroke="#191970" points="166.1951,-350.8542 176.7757,-351.4041 168.8473,-344.3761 166.1951,-350.8542"/>
</g>
<!-- Node5 -->
<g id="node5" class="node">
<title>Node5</title>
<g id="a_node5"><a xlink:href="../../dd/de6/classHepGeom_1_1Transform3D.html#aada521900b8df5297963cb31577efa65" target="_top" xlink:title="HepGeom::Transform3D::xz">
<polygon fill="none" stroke="#000000" points="159.5,-312.5 159.5,-332.5 315.5,-332.5 315.5,-312.5 159.5,-312.5"/>
<text text-anchor="middle" x="237.5" y="-319.5" font-family="FreeSans" font-size="10.00" fill="#000000">HepGeom::Transform3D::xz</text>
</a>
</g>
</g>
<!-- Node1&#45;&gt;Node5 -->
<g id="edge4" class="edge">
<title>Node1&#45;&gt;Node5</title>
<path fill="none" stroke="#191970" d="M70.4065,-234.7017C86.6152,-251.6461 121.5903,-285.5045 158,-303.5 162.3055,-305.628 166.8621,-307.5254 171.5281,-309.216"/>
<polygon fill="#191970" stroke="#191970" points="170.621,-312.6021 181.214,-312.4034 172.8092,-305.9529 170.621,-312.6021"/>
</g>
<!-- Node6 -->
<g id="node6" class="node">
<title>Node6</title>
<g id="a_node6"><a xlink:href="../../d3/d15/classHepGeom_1_1BasicVector3D.html#ae839ce17881ac166c394b8098572542e" target="_top" xlink:title="HepGeom::BasicVector3D::y">
<polygon fill="none" stroke="#000000" points="158,-273.5 158,-293.5 317,-293.5 317,-273.5 158,-273.5"/>
<text text-anchor="middle" x="237.5" y="-280.5" font-family="FreeSans" font-size="10.00" fill="#000000">HepGeom::BasicVector3D::y</text>
</a>
</g>
</g>
<!-- Node1&#45;&gt;Node6 -->
<g id="edge5" class="edge">
<title>Node1&#45;&gt;Node6</title>
<path fill="none" stroke="#191970" d="M82.5937,-234.5493C102.014,-243.3097 131.4825,-255.922 158,-264.5 165.1349,-266.808 172.7117,-268.9728 180.2439,-270.9551"/>
<polygon fill="#191970" stroke="#191970" points="179.5254,-274.3836 190.0792,-273.4526 181.2483,-267.599 179.5254,-274.3836"/>
</g>
<!-- Node7 -->
<g id="node7" class="node">
<title>Node7</title>
<g id="a_node7"><a xlink:href="../../dd/de6/classHepGeom_1_1Transform3D.html#a870806a23e58d1f21f907ac60f1e506b" target="_top" xlink:title="HepGeom::Transform3D::yx">
<polygon fill="none" stroke="#000000" points="159,-234.5 159,-254.5 316,-254.5 316,-234.5 159,-234.5"/>
<text text-anchor="middle" x="237.5" y="-241.5" font-family="FreeSans" font-size="10.00" fill="#000000">HepGeom::Transform3D::yx</text>
</a>
</g>
</g>
<!-- Node1&#45;&gt;Node7 -->
<g id="edge6" class="edge">
<title>Node1&#45;&gt;Node7</title>
<path fill="none" stroke="#191970" d="M122.2358,-231.4389C130.8443,-232.4144 139.8323,-233.4328 148.8263,-234.452"/>
<polygon fill="#191970" stroke="#191970" points="148.6327,-237.9524 158.9633,-235.6007 149.421,-230.9969 148.6327,-237.9524"/>
</g>
<!-- Node8 -->
<g id="node8" class="node">
<title>Node8</title>
<g id="a_node8"><a xlink:href="../../dd/de6/classHepGeom_1_1Transform3D.html#a72fea5e8e170a4cceef8cd93b68cc3aa" target="_top" xlink:title="HepGeom::Transform3D::yy">
<polygon fill="none" stroke="#000000" points="159,-195.5 159,-215.5 316,-215.5 316,-195.5 159,-195.5"/>
<text text-anchor="middle" x="237.5" y="-202.5" font-family="FreeSans" font-size="10.00" fill="#000000">HepGeom::Transform3D::yy</text>
</a>
</g>
</g>
<!-- Node1&#45;&gt;Node8 -->
<g id="edge7" class="edge">
<title>Node1&#45;&gt;Node8</title>
<path fill="none" stroke="#191970" d="M122.2358,-217.908C130.8443,-216.9814 139.8323,-216.0138 148.8263,-215.0456"/>
<polygon fill="#191970" stroke="#191970" points="149.3953,-218.5047 158.9633,-213.9544 148.6461,-211.5449 149.3953,-218.5047"/>
</g>
<!-- Node9 -->
<g id="node9" class="node">
<title>Node9</title>
<g id="a_node9"><a xlink:href="../../dd/de6/classHepGeom_1_1Transform3D.html#a181885c403926e40e4f0323e768a011d" target="_top" xlink:title="HepGeom::Transform3D::yz">
<polygon fill="none" stroke="#000000" points="159.5,-156.5 159.5,-176.5 315.5,-176.5 315.5,-156.5 159.5,-156.5"/>
<text text-anchor="middle" x="237.5" y="-163.5" font-family="FreeSans" font-size="10.00" fill="#000000">HepGeom::Transform3D::yz</text>
</a>
</g>
</g>
<!-- Node1&#45;&gt;Node9 -->
<g id="edge8" class="edge">
<title>Node1&#45;&gt;Node9</title>
<path fill="none" stroke="#191970" d="M84.2207,-214.4413C103.686,-206.2433 132.3351,-194.7188 158,-186.5 166.2722,-183.8509 175.1187,-181.3282 183.7954,-179.0222"/>
<polygon fill="#191970" stroke="#191970" points="184.676,-182.4097 193.4799,-176.5155 182.9219,-175.633 184.676,-182.4097"/>
</g>
<!-- Node10 -->
<g id="node10" class="node">
<title>Node10</title>
<g id="a_node10"><a xlink:href="../../d3/d15/classHepGeom_1_1BasicVector3D.html#a95b6d75cb9fe2b331e3035b5e7501ccd" target="_top" xlink:title="HepGeom::BasicVector3D::z">
<polygon fill="none" stroke="#000000" points="158,-117.5 158,-137.5 317,-137.5 317,-117.5 158,-117.5"/>
<text text-anchor="middle" x="237.5" y="-124.5" font-family="FreeSans" font-size="10.00" fill="#000000">HepGeom::BasicVector3D::z</text>
</a>
</g>
</g>
<!-- Node1&#45;&gt;Node10 -->
<g id="edge9" class="edge">
<title>Node1&#45;&gt;Node10</title>
<path fill="none" stroke="#191970" d="M70.7482,-214.349C87.1845,-197.8319 122.142,-165.2081 158,-147.5 163.232,-144.9162 168.8272,-142.6471 174.5353,-140.6581"/>
<polygon fill="#191970" stroke="#191970" points="175.7432,-143.9465 184.2036,-137.569 173.6128,-137.2785 175.7432,-143.9465"/>
</g>
<!-- Node11 -->
<g id="node11" class="node">
<title>Node11</title>
<g id="a_node11"><a xlink:href="../../dd/de6/classHepGeom_1_1Transform3D.html#a605ad2f71e15868b585ccf95ff0e8040" target="_top" xlink:title="HepGeom::Transform3D::zx">
<polygon fill="none" stroke="#000000" points="159.5,-78.5 159.5,-98.5 315.5,-98.5 315.5,-78.5 159.5,-78.5"/>
<text text-anchor="middle" x="237.5" y="-85.5" font-family="FreeSans" font-size="10.00" fill="#000000">HepGeom::Transform3D::zx</text>
</a>
</g>
</g>
<!-- Node1&#45;&gt;Node11 -->
<g id="edge10" class="edge">
<title>Node1&#45;&gt;Node11</title>
<path fill="none" stroke="#191970" d="M66.5098,-214.2824C79.339,-191.5104 113.5271,-136.4077 158,-108.5 161.7635,-106.1383 165.7913,-104.0553 169.9631,-102.2179"/>
<polygon fill="#191970" stroke="#191970" points="171.2401,-105.4767 179.279,-98.5755 168.691,-98.9573 171.2401,-105.4767"/>
</g>
<!-- Node12 -->
<g id="node12" class="node">
<title>Node12</title>
<g id="a_node12"><a xlink:href="../../dd/de6/classHepGeom_1_1Transform3D.html#af88754d0ac119a5073d94bb5627aff38" target="_top" xlink:title="HepGeom::Transform3D::zy">
<polygon fill="none" stroke="#000000" points="159.5,-39.5 159.5,-59.5 315.5,-59.5 315.5,-39.5 159.5,-39.5"/>
<text text-anchor="middle" x="237.5" y="-46.5" font-family="FreeSans" font-size="10.00" fill="#000000">HepGeom::Transform3D::zy</text>
</a>
</g>
</g>
<!-- Node1&#45;&gt;Node12 -->
<g id="edge11" class="edge">
<title>Node1&#45;&gt;Node12</title>
<path fill="none" stroke="#191970" d="M64.3206,-214.2932C73.9433,-186.3927 104.6093,-108.3493 158,-69.5 160.9957,-67.3202 164.2041,-65.3769 167.5511,-63.6446"/>
<polygon fill="#191970" stroke="#191970" points="169.0011,-66.8302 176.6834,-59.5342 166.128,-60.447 169.0011,-66.8302"/>
</g>
<!-- Node13 -->
<g id="node13" class="node">
<title>Node13</title>
<g id="a_node13"><a xlink:href="../../dd/de6/classHepGeom_1_1Transform3D.html#a812d685834220832f422d4d2596e84f3" target="_top" xlink:title="HepGeom::Transform3D::zz">
<polygon fill="none" stroke="#000000" points="160,-.5 160,-20.5 315,-20.5 315,-.5 160,-.5"/>
<text text-anchor="middle" x="237.5" y="-7.5" font-family="FreeSans" font-size="10.00" fill="#000000">HepGeom::Transform3D::zz</text>
</a>
</g>
</g>
<!-- Node1&#45;&gt;Node13 -->
<g id="edge12" class="edge">
<title>Node1&#45;&gt;Node13</title>
<path fill="none" stroke="#191970" d="M62.9984,-214.1703C69.8438,-181.6771 95.4721,-80.7342 158,-30.5 160.4721,-28.5139 163.1162,-26.7221 165.8834,-25.1057"/>
<polygon fill="#191970" stroke="#191970" points="167.6952,-28.1133 175.0812,-20.5174 164.5704,-21.8494 167.6952,-28.1133"/>
</g>
</g>
</svg>
