<?xml version="1.0" encoding="UTF-8" standalone="no"?>
<!DOCTYPE svg PUBLIC "-//W3C//DTD SVG 1.1//EN"
 "http://www.w3.org/Graphics/SVG/1.1/DTD/svg11.dtd">
<!-- Generated by graphviz version 2.40.1 (20161225.0304)
 -->
<!-- Title: G4DrawVoxels::CreatePlacedPolyhedra Pages: 1 -->
<svg width="360pt" height="80pt"
 viewBox="0.00 0.00 360.00 80.00" xmlns="http://www.w3.org/2000/svg" xmlns:xlink="http://www.w3.org/1999/xlink">
<g id="graph0" class="graph" transform="scale(1 1) rotate(0) translate(4 76)">
<title>G4DrawVoxels::CreatePlacedPolyhedra</title>
<!-- Node1 -->
<g id="node1" class="node">
<title>Node1</title>
<polygon fill="#bfbfbf" stroke="#000000" points="0,-16.5 0,-48.5 162,-48.5 162,-16.5 0,-16.5"/>
<text text-anchor="start" x="8" y="-35.5" font-family="FreeSans" font-size="10.00" fill="#000000">G4DrawVoxels::CreatePlaced</text>
<text text-anchor="middle" x="81" y="-23.5" font-family="FreeSans" font-size="10.00" fill="#000000">Polyhedra</text>
</g>
<!-- Node2 -->
<g id="node2" class="node">
<title>Node2</title>
<g id="a_node2"><a xlink:href="../../d1/d7a/classG4LogicalVolumeModel.html#a220e73649d9bc48e3b7db1d048317995" target="_top" xlink:title="G4LogicalVolumeModel\l::DescribeYourselfTo">
<polygon fill="none" stroke="#000000" points="208,-39.5 208,-71.5 342,-71.5 342,-39.5 208,-39.5"/>
<text text-anchor="start" x="216" y="-58.5" font-family="FreeSans" font-size="10.00" fill="#000000">G4LogicalVolumeModel</text>
<text text-anchor="middle" x="275" y="-46.5" font-family="FreeSans" font-size="10.00" fill="#000000">::DescribeYourselfTo</text>
</a>
</g>
</g>
<!-- Node1&#45;&gt;Node2 -->
<g id="edge1" class="edge">
<title>Node1&#45;&gt;Node2</title>
<path fill="none" stroke="#191970" d="M172.2266,-43.3155C184.2762,-44.7441 196.445,-46.1868 207.9858,-47.555"/>
<polygon fill="#191970" stroke="#191970" points="172.4919,-39.8226 162.1494,-42.1208 171.6678,-46.7739 172.4919,-39.8226"/>
</g>
<!-- Node3 -->
<g id="node3" class="node">
<title>Node3</title>
<g id="a_node3"><a xlink:href="../../d7/d0d/classG4DrawVoxels.html#a07b8e2dc1a9f0e6f3b0ef7d1fab5d90c" target="_top" xlink:title="G4DrawVoxels::DrawVoxels">
<polygon fill="none" stroke="#000000" points="198,-.5 198,-20.5 352,-20.5 352,-.5 198,-.5"/>
<text text-anchor="middle" x="275" y="-7.5" font-family="FreeSans" font-size="10.00" fill="#000000">G4DrawVoxels::DrawVoxels</text>
</a>
</g>
</g>
<!-- Node1&#45;&gt;Node3 -->
<g id="edge2" class="edge">
<title>Node1&#45;&gt;Node3</title>
<path fill="none" stroke="#191970" d="M172.1971,-22.1581C180.794,-21.1832 189.4519,-20.2013 197.8993,-19.2434"/>
<polygon fill="#191970" stroke="#191970" points="171.6913,-18.6929 162.1494,-23.2975 172.4801,-25.6483 171.6913,-18.6929"/>
</g>
</g>
</svg>
