<?xml version="1.0" encoding="UTF-8" standalone="no"?>
<!DOCTYPE svg PUBLIC "-//W3C//DTD SVG 1.1//EN"
 "http://www.w3.org/Graphics/SVG/1.1/DTD/svg11.dtd">
<!-- Generated by graphviz version 2.40.1 (20161225.0304)
 -->
<!-- Title: HCALOuter_Eval Pages: 1 -->
<svg width="678pt" height="326pt"
 viewBox="0.00 0.00 678.00 326.00" xmlns="http://www.w3.org/2000/svg" xmlns:xlink="http://www.w3.org/1999/xlink">
<g id="graph0" class="graph" transform="scale(1 1) rotate(0) translate(4 322)">
<title>HCALOuter_Eval</title>
<!-- Node1 -->
<g id="node1" class="node">
<title>Node1</title>
<polygon fill="#bfbfbf" stroke="#000000" points="0,-180.5 0,-200.5 98,-200.5 98,-180.5 0,-180.5"/>
<text text-anchor="middle" x="49" y="-187.5" font-family="FreeSans" font-size="10.00" fill="#000000">HCALOuter_Eval</text>
</g>
<!-- Node2 -->
<g id="node2" class="node">
<title>Node2</title>
<g id="a_node2"><a xlink:href="../../da/d29/classFun4AllServer.html#a3e55156f91b2c94bb6c4ef33ffce587a" target="_top" xlink:title="Fun4AllServer::instance">
<polygon fill="none" stroke="#000000" points="358,-297.5 358,-317.5 494,-317.5 494,-297.5 358,-297.5"/>
<text text-anchor="middle" x="426" y="-304.5" font-family="FreeSans" font-size="10.00" fill="#000000">Fun4AllServer::instance</text>
</a>
</g>
</g>
<!-- Node1&#45;&gt;Node2 -->
<g id="edge1" class="edge">
<title>Node1&#45;&gt;Node2</title>
<path fill="none" stroke="#191970" d="M79.592,-200.5899C134.9527,-218.7623 255.5281,-257.9445 358,-288.5 364.9452,-290.5709 372.3095,-292.6988 379.5289,-294.7468"/>
<polygon fill="#191970" stroke="#191970" points="378.6564,-298.1371 389.2306,-297.4771 380.5528,-291.3989 378.6564,-298.1371"/>
</g>
<!-- Node3 -->
<g id="node3" class="node">
<title>Node3</title>
<g id="a_node3"><a xlink:href="../../da/d29/classFun4AllServer.html#a0a9947db0ede1e55622001eb7515f8c0" target="_top" xlink:title="Fun4AllServer::registerSubsystem">
<polygon fill="none" stroke="#000000" points="134,-180.5 134,-200.5 322,-200.5 322,-180.5 134,-180.5"/>
<text text-anchor="middle" x="228" y="-187.5" font-family="FreeSans" font-size="10.00" fill="#000000">Fun4AllServer::registerSubsystem</text>
</a>
</g>
</g>
<!-- Node1&#45;&gt;Node3 -->
<g id="edge2" class="edge">
<title>Node1&#45;&gt;Node3</title>
<path fill="none" stroke="#191970" d="M98.3864,-190.5C106.3448,-190.5 114.8368,-190.5 123.5225,-190.5"/>
<polygon fill="#191970" stroke="#191970" points="123.7874,-194.0001 133.7873,-190.5 123.7873,-187.0001 123.7874,-194.0001"/>
</g>
<!-- Node14 -->
<g id="node14" class="node">
<title>Node14</title>
<g id="a_node14"><a xlink:href="../../d5/dec/classFun4AllBase.html#a05da2261577843028cf78e99171343b9" target="_top" xlink:title="Sets the verbosity of this module (0 by default=quiet).">
<polygon fill="none" stroke="#000000" points="162,-141.5 162,-161.5 294,-161.5 294,-141.5 162,-141.5"/>
<text text-anchor="middle" x="228" y="-148.5" font-family="FreeSans" font-size="10.00" fill="#000000">Fun4AllBase::Verbosity</text>
</a>
</g>
</g>
<!-- Node1&#45;&gt;Node14 -->
<g id="edge18" class="edge">
<title>Node1&#45;&gt;Node14</title>
<path fill="none" stroke="#191970" d="M93.5365,-180.4543C106.5717,-177.5386 120.8514,-174.3683 134,-171.5 145.7166,-168.9441 158.2638,-166.2469 170.2517,-163.6891"/>
<polygon fill="#191970" stroke="#191970" points="171.1075,-167.0854 180.1594,-161.5796 169.6497,-160.2389 171.1075,-167.0854"/>
</g>
<!-- Node3&#45;&gt;Node2 -->
<g id="edge3" class="edge">
<title>Node3&#45;&gt;Node2</title>
<path fill="none" stroke="#191970" d="M244.5234,-200.6198C263.7479,-212.6471 296.1532,-233.714 322,-254.5 339.1501,-268.2921 338.8429,-277.6671 358,-288.5 361.4427,-290.4468 365.0978,-292.2047 368.8571,-293.7903"/>
<polygon fill="#191970" stroke="#191970" points="367.7631,-297.1185 378.3545,-297.3866 370.242,-290.5721 367.7631,-297.1185"/>
</g>
<!-- Node4 -->
<g id="node4" class="node">
<title>Node4</title>
<g id="a_node4"><a xlink:href="../../d0/d12/namespaceg4zmq.html#ac0a320baaea2957915124839b1e2be53" target="_top" xlink:title="g4zmq.exit">
<polygon fill="none" stroke="#000000" points="389.5,-258.5 389.5,-278.5 462.5,-278.5 462.5,-258.5 389.5,-258.5"/>
<text text-anchor="middle" x="426" y="-265.5" font-family="FreeSans" font-size="10.00" fill="#000000">g4zmq.exit</text>
</a>
</g>
</g>
<!-- Node3&#45;&gt;Node4 -->
<g id="edge4" class="edge">
<title>Node3&#45;&gt;Node4</title>
<path fill="none" stroke="#191970" d="M251.8605,-200.5188C277.8595,-211.3673 320.7291,-229.0562 358,-243.5 367.7637,-247.2838 378.3684,-251.2504 388.2345,-254.8809"/>
<polygon fill="#191970" stroke="#191970" points="387.2021,-258.23 397.7959,-258.38 389.6078,-251.6564 387.2021,-258.23"/>
</g>
<!-- Node6 -->
<g id="node6" class="node">
<title>Node6</title>
<g id="a_node6"><a xlink:href="../../d5/dec/classFun4AllBase.html#a41f9ac377743d046f590617fd6f4f0ed" target="_top" xlink:title="Returns the name of this module.">
<polygon fill="none" stroke="#000000" points="368.5,-90.5 368.5,-110.5 483.5,-110.5 483.5,-90.5 368.5,-90.5"/>
<text text-anchor="middle" x="426" y="-97.5" font-family="FreeSans" font-size="10.00" fill="#000000">Fun4AllBase::Name</text>
</a>
</g>
</g>
<!-- Node3&#45;&gt;Node6 -->
<g id="edge6" class="edge">
<title>Node3&#45;&gt;Node6</title>
<path fill="none" stroke="#191970" d="M304.3952,-180.3331C310.5971,-177.9533 316.5607,-175.0465 322,-171.5 345.2411,-156.3465 335.4367,-136.6454 358,-120.5 361.0304,-118.3316 364.2953,-116.3963 367.6968,-114.6694"/>
<polygon fill="#191970" stroke="#191970" points="369.2283,-117.8191 376.9528,-110.5677 366.3923,-111.4193 369.2283,-117.8191"/>
</g>
<!-- Node7 -->
<g id="node7" class="node">
<title>Node7</title>
<g id="a_node7"><a xlink:href="../../da/d29/classFun4AllServer.html#abcaf6825367e5db292ff795237bdcf62" target="_top" xlink:title="Fun4AllServer::topNode">
<polygon fill="none" stroke="#000000" points="358,-51.5 358,-71.5 494,-71.5 494,-51.5 358,-51.5"/>
<text text-anchor="middle" x="426" y="-58.5" font-family="FreeSans" font-size="10.00" fill="#000000">Fun4AllServer::topNode</text>
</a>
</g>
</g>
<!-- Node3&#45;&gt;Node7 -->
<g id="edge7" class="edge">
<title>Node3&#45;&gt;Node7</title>
<path fill="none" stroke="#191970" d="M308.1094,-180.374C313.0853,-177.9446 317.7796,-175.0179 322,-171.5 355.0925,-143.9158 326.1327,-110.491 358,-81.5 359.9513,-79.7248 362.0527,-78.1066 364.2653,-76.6317"/>
<polygon fill="#191970" stroke="#191970" points="366.2312,-79.5433 373.2687,-71.6234 362.8283,-73.426 366.2312,-79.5433"/>
</g>
<!-- Node8 -->
<g id="node8" class="node">
<title>Node8</title>
<g id="a_node8"><a xlink:href="../../d7/d96/classFun4AllMemoryTracker.html#a3841cc0bc6c4047da2b4868ba39dbb8c" target="_top" xlink:title="Fun4AllMemoryTracker\l::Start">
<polygon fill="none" stroke="#000000" points="360,-129.5 360,-161.5 492,-161.5 492,-129.5 360,-129.5"/>
<text text-anchor="start" x="368" y="-148.5" font-family="FreeSans" font-size="10.00" fill="#000000">Fun4AllMemoryTracker</text>
<text text-anchor="middle" x="426" y="-136.5" font-family="FreeSans" font-size="10.00" fill="#000000">::Start</text>
</a>
</g>
</g>
<!-- Node3&#45;&gt;Node8 -->
<g id="edge8" class="edge">
<title>Node3&#45;&gt;Node8</title>
<path fill="none" stroke="#191970" d="M279.8056,-180.4686C293.5484,-177.6874 308.3583,-174.5822 322,-171.5 332.3547,-169.1605 343.2581,-166.5727 353.9516,-163.9635"/>
<polygon fill="#191970" stroke="#191970" points="354.8169,-167.3551 363.6915,-161.5678 353.1449,-160.5577 354.8169,-167.3551"/>
</g>
<!-- Node11 -->
<g id="node11" class="node">
<title>Node11</title>
<g id="a_node11"><a xlink:href="../../d5/dec/classFun4AllBase.html#a8a5c77a92bdac6bc043476e132379a40" target="_top" xlink:title="Gets the verbosity of this module.">
<polygon fill="none" stroke="#000000" points="534,-135.5 534,-155.5 666,-155.5 666,-135.5 534,-135.5"/>
<text text-anchor="middle" x="600" y="-142.5" font-family="FreeSans" font-size="10.00" fill="#000000">Fun4AllBase::Verbosity</text>
</a>
</g>
</g>
<!-- Node3&#45;&gt;Node11 -->
<g id="edge17" class="edge">
<title>Node3&#45;&gt;Node11</title>
<path fill="none" stroke="#191970" d="M262.3429,-200.5058C313.7595,-213.8409 413.3277,-233.2648 494,-210.5 527.2673,-201.1123 560.389,-178.0381 580.5318,-162.0717"/>
<polygon fill="#191970" stroke="#191970" points="582.7846,-164.7509 588.3324,-155.7247 578.3667,-159.3212 582.7846,-164.7509"/>
</g>
<!-- Node12 -->
<g id="node12" class="node">
<title>Node12</title>
<g id="a_node12"><a xlink:href="../../d0/d32/classSubsysReco.html#a6670c0a093dd2c2bdd44f8fc6f9ba8e8" target="_top" xlink:title="SubsysReco::Init">
<polygon fill="none" stroke="#000000" points="376,-180.5 376,-200.5 476,-200.5 476,-180.5 376,-180.5"/>
<text text-anchor="middle" x="426" y="-187.5" font-family="FreeSans" font-size="10.00" fill="#000000">SubsysReco::Init</text>
</a>
</g>
</g>
<!-- Node3&#45;&gt;Node12 -->
<g id="edge12" class="edge">
<title>Node3&#45;&gt;Node12</title>
<path fill="none" stroke="#191970" d="M322.0711,-190.5C336.8604,-190.5 351.7966,-190.5 365.5554,-190.5"/>
<polygon fill="#191970" stroke="#191970" points="365.8253,-194.0001 375.8253,-190.5 365.8253,-187.0001 365.8253,-194.0001"/>
</g>
<!-- Node13 -->
<g id="node13" class="node">
<title>Node13</title>
<g id="a_node13"><a xlink:href="../../d7/d96/classFun4AllMemoryTracker.html#a766ac66dd36ffa4e3fbe6e622923565f" target="_top" xlink:title="Fun4AllMemoryTracker\l::Stop">
<polygon fill="none" stroke="#000000" points="360,-.5 360,-32.5 492,-32.5 492,-.5 360,-.5"/>
<text text-anchor="start" x="368" y="-19.5" font-family="FreeSans" font-size="10.00" fill="#000000">Fun4AllMemoryTracker</text>
<text text-anchor="middle" x="426" y="-7.5" font-family="FreeSans" font-size="10.00" fill="#000000">::Stop</text>
</a>
</g>
</g>
<!-- Node3&#45;&gt;Node13 -->
<g id="edge13" class="edge">
<title>Node3&#45;&gt;Node13</title>
<path fill="none" stroke="#191970" d="M309.4473,-180.4218C313.9835,-177.9632 318.2237,-175.0183 322,-171.5 365.8647,-130.6324 317.384,-85.5978 358,-41.5 358.8868,-40.5372 359.8138,-39.6114 360.7763,-38.7212"/>
<polygon fill="#191970" stroke="#191970" points="362.9815,-41.4406 368.7729,-32.5688 358.713,-35.8926 362.9815,-41.4406"/>
</g>
<!-- Node5 -->
<g id="node5" class="node">
<title>Node5</title>
<g id="a_node5"><a xlink:href="../../d8/d03/G4ecpssrBaseKxsModel_8cc.html#afca89815e8ce05521ca0a7ec9bd17385" target="_top" xlink:title="print">
<polygon fill="none" stroke="#000000" points="580,-258.5 580,-278.5 620,-278.5 620,-258.5 580,-258.5"/>
<text text-anchor="middle" x="600" y="-265.5" font-family="FreeSans" font-size="10.00" fill="#000000">print</text>
</a>
</g>
</g>
<!-- Node4&#45;&gt;Node5 -->
<g id="edge5" class="edge">
<title>Node4&#45;&gt;Node5</title>
<path fill="none" stroke="#191970" d="M462.9009,-268.5C494.7082,-268.5 540.068,-268.5 569.7659,-268.5"/>
<polygon fill="#191970" stroke="#191970" points="569.9445,-272.0001 579.9444,-268.5 569.9444,-265.0001 569.9445,-272.0001"/>
</g>
<!-- Node9 -->
<g id="node9" class="node">
<title>Node9</title>
<g id="a_node9"><a xlink:href="../../d7/d96/classFun4AllMemoryTracker.html#aa8eb9ed150f51165b9abfd456c18a432" target="_top" xlink:title="Fun4AllMemoryTracker\l::CreateFullTrackerName">
<polygon fill="none" stroke="#000000" points="530,-76.5 530,-108.5 670,-108.5 670,-76.5 530,-76.5"/>
<text text-anchor="start" x="538" y="-95.5" font-family="FreeSans" font-size="10.00" fill="#000000">Fun4AllMemoryTracker</text>
<text text-anchor="middle" x="600" y="-83.5" font-family="FreeSans" font-size="10.00" fill="#000000">::CreateFullTrackerName</text>
</a>
</g>
</g>
<!-- Node8&#45;&gt;Node9 -->
<g id="edge9" class="edge">
<title>Node8&#45;&gt;Node9</title>
<path fill="none" stroke="#191970" d="M478.6779,-129.4544C497.2462,-123.7986 518.2986,-117.3861 537.5928,-111.5091"/>
<polygon fill="#191970" stroke="#191970" points="538.6549,-114.8444 547.2011,-108.5824 536.6151,-108.1482 538.6549,-114.8444"/>
</g>
<!-- Node10 -->
<g id="node10" class="node">
<title>Node10</title>
<g id="a_node10"><a xlink:href="../../d7/d96/classFun4AllMemoryTracker.html#a4059a8c86c92e1708e5bbdc585af99ed" target="_top" xlink:title="Fun4AllMemoryTracker\l::GetRSSMemory">
<polygon fill="none" stroke="#000000" points="534,-9.5 534,-41.5 666,-41.5 666,-9.5 534,-9.5"/>
<text text-anchor="start" x="542" y="-28.5" font-family="FreeSans" font-size="10.00" fill="#000000">Fun4AllMemoryTracker</text>
<text text-anchor="middle" x="600" y="-16.5" font-family="FreeSans" font-size="10.00" fill="#000000">::GetRSSMemory</text>
</a>
</g>
</g>
<!-- Node8&#45;&gt;Node10 -->
<g id="edge10" class="edge">
<title>Node8&#45;&gt;Node10</title>
<path fill="none" stroke="#191970" d="M479.6916,-129.4718C484.768,-126.8818 489.6388,-123.9073 494,-120.5 516.4392,-102.9687 509.3065,-87.0612 530,-67.5 538.2008,-59.7479 548.0721,-52.755 557.7814,-46.7989"/>
<polygon fill="#191970" stroke="#191970" points="559.7436,-49.7057 566.6,-41.6285 556.2031,-43.6671 559.7436,-49.7057"/>
</g>
<!-- Node8&#45;&gt;Node11 -->
<g id="edge11" class="edge">
<title>Node8&#45;&gt;Node11</title>
<path fill="none" stroke="#191970" d="M492.2783,-145.5C502.6131,-145.5 513.3621,-145.5 523.8946,-145.5"/>
<polygon fill="#191970" stroke="#191970" points="523.906,-149.0001 533.906,-145.5 523.9059,-142.0001 523.906,-149.0001"/>
</g>
<!-- Node13&#45;&gt;Node9 -->
<g id="edge14" class="edge">
<title>Node13&#45;&gt;Node9</title>
<path fill="none" stroke="#191970" d="M471.5935,-32.5745C479.1267,-35.4268 486.8183,-38.4605 494,-41.5 515.819,-50.7345 539.6319,-62.0734 559.1503,-71.7127"/>
<polygon fill="#191970" stroke="#191970" points="557.847,-74.9735 568.3596,-76.2916 560.9635,-68.7055 557.847,-74.9735"/>
</g>
<!-- Node13&#45;&gt;Node10 -->
<g id="edge15" class="edge">
<title>Node13&#45;&gt;Node10</title>
<path fill="none" stroke="#191970" d="M492.2783,-19.9282C502.6131,-20.4627 513.3621,-21.0187 523.8946,-21.5635"/>
<polygon fill="#191970" stroke="#191970" points="523.7385,-25.06 533.906,-22.0813 524.1001,-18.0694 523.7385,-25.06"/>
</g>
<!-- Node13&#45;&gt;Node11 -->
<g id="edge16" class="edge">
<title>Node13&#45;&gt;Node11</title>
<path fill="none" stroke="#191970" d="M481.6241,-32.5913C486.0866,-35.1467 490.2944,-38.0968 494,-41.5 521.8241,-67.0534 502.3789,-92.7272 530,-118.5 535.4998,-123.6318 542.0805,-127.8223 548.9746,-131.235"/>
<polygon fill="#191970" stroke="#191970" points="547.9346,-134.6011 558.4976,-135.4219 550.752,-128.1931 547.9346,-134.6011"/>
</g>
</g>
</svg>
