<?xml version="1.0" encoding="UTF-8" standalone="no"?>
<!DOCTYPE svg PUBLIC "-//W3C//DTD SVG 1.1//EN"
 "http://www.w3.org/Graphics/SVG/1.1/DTD/svg11.dtd">
<!-- Generated by graphviz version 2.40.1 (20161225.0304)
 -->
<!-- Title: G4ResonanceNames::MinMass Pages: 1 -->
<svg width="1882pt" height="534pt"
 viewBox="0.00 0.00 1882.00 533.88" xmlns="http://www.w3.org/2000/svg" xmlns:xlink="http://www.w3.org/1999/xlink">
<g id="graph0" class="graph" transform="scale(1 1) rotate(0) translate(4 529.88)">
<title>G4ResonanceNames::MinMass</title>
<!-- Node1 -->
<g id="node1" class="node">
<title>Node1</title>
<polygon fill="#bfbfbf" stroke="#000000" points="0,-236.5 0,-256.5 171,-256.5 171,-236.5 0,-236.5"/>
<text text-anchor="middle" x="85.5" y="-243.5" font-family="FreeSans" font-size="10.00" fill="#000000">G4ResonanceNames::MinMass</text>
</g>
<!-- Node2 -->
<g id="node2" class="node">
<title>Node2</title>
<g id="a_node2"><a xlink:href="../../d8/dd3/classG4ParticleTable.html#a891da3f41417c3800e7596fab298c3c5" target="_top" xlink:title="G4ParticleTable::FindParticle">
<polygon fill="none" stroke="#000000" points="1380,-329.5 1380,-349.5 1539,-349.5 1539,-329.5 1380,-329.5"/>
<text text-anchor="middle" x="1459.5" y="-336.5" font-family="FreeSans" font-size="10.00" fill="#000000">G4ParticleTable::FindParticle</text>
</a>
</g>
</g>
<!-- Node1&#45;&gt;Node2 -->
<g id="edge1" class="edge">
<title>Node1&#45;&gt;Node2</title>
<path fill="none" stroke="#191970" d="M92.4213,-256.54C127.2749,-305.7928 289.3175,-519.5 477,-519.5 477,-519.5 477,-519.5 1058.5,-519.5 1186.3388,-519.5 1232.4339,-546.9161 1344,-484.5 1396.4625,-455.1496 1433.8561,-391.437 1450.2414,-359.1304"/>
<polygon fill="#191970" stroke="#191970" points="1453.5436,-360.3464 1454.8155,-349.8282 1447.262,-357.2575 1453.5436,-360.3464"/>
</g>
<!-- Node7 -->
<g id="node7" class="node">
<title>Node7</title>
<g id="a_node7"><a xlink:href="../../d8/dd3/classG4ParticleTable.html#a8bb5b636696da4abae3ca7ea0ea5af95" target="_top" xlink:title="G4ParticleTable::GetParticle\lTable">
<polygon fill="none" stroke="#000000" points="577,-230.5 577,-262.5 733,-262.5 733,-230.5 577,-230.5"/>
<text text-anchor="start" x="585" y="-249.5" font-family="FreeSans" font-size="10.00" fill="#000000">G4ParticleTable::GetParticle</text>
<text text-anchor="middle" x="655" y="-237.5" font-family="FreeSans" font-size="10.00" fill="#000000">Table</text>
</a>
</g>
</g>
<!-- Node1&#45;&gt;Node7 -->
<g id="edge6" class="edge">
<title>Node1&#45;&gt;Node7</title>
<path fill="none" stroke="#191970" d="M171.068,-246.5C277.5552,-246.5 458.4994,-246.5 566.3846,-246.5"/>
<polygon fill="#191970" stroke="#191970" points="566.5921,-250.0001 576.5921,-246.5 566.592,-243.0001 566.5921,-250.0001"/>
</g>
<!-- Node13 -->
<g id="node13" class="node">
<title>Node13</title>
<g id="a_node13"><a xlink:href="../../d5/d38/classG4ParticleDefinition.html#ad823b2f7c489766de74c562e2a3909bf" target="_top" xlink:title="G4ParticleDefinition\l::GetPDGMass">
<polygon fill="none" stroke="#000000" points="1401.5,-38.5 1401.5,-70.5 1517.5,-70.5 1517.5,-38.5 1401.5,-38.5"/>
<text text-anchor="start" x="1409.5" y="-57.5" font-family="FreeSans" font-size="10.00" fill="#000000">G4ParticleDefinition</text>
<text text-anchor="middle" x="1459.5" y="-45.5" font-family="FreeSans" font-size="10.00" fill="#000000">::GetPDGMass</text>
</a>
</g>
</g>
<!-- Node1&#45;&gt;Node13 -->
<g id="edge13" class="edge">
<title>Node1&#45;&gt;Node13</title>
<path fill="none" stroke="#191970" d="M97.0432,-236.2901C142.1265,-197.5069 311.9903,-61.5 477,-61.5 477,-61.5 477,-61.5 1058.5,-61.5 1175.281,-61.5 1311.1632,-58.4954 1390.9924,-56.4232"/>
<polygon fill="#191970" stroke="#191970" points="1391.4944,-59.9113 1401.3991,-56.15 1391.3107,-52.9137 1391.4944,-59.9113"/>
</g>
<!-- Node14 -->
<g id="node14" class="node">
<title>Node14</title>
<g id="a_node14"><a xlink:href="../../db/d32/namespaceG4InuclParticleNames.html#a9a178129b9632f6c41b08c465e6992f1" target="_top" xlink:title="G4InuclParticleNames\l::pion">
<polygon fill="none" stroke="#000000" points="228.5,-.5 228.5,-32.5 355.5,-32.5 355.5,-.5 228.5,-.5"/>
<text text-anchor="start" x="236.5" y="-19.5" font-family="FreeSans" font-size="10.00" fill="#000000">G4InuclParticleNames</text>
<text text-anchor="middle" x="292" y="-7.5" font-family="FreeSans" font-size="10.00" fill="#000000">::pion</text>
</a>
</g>
</g>
<!-- Node1&#45;&gt;Node14 -->
<g id="edge14" class="edge">
<title>Node1&#45;&gt;Node14</title>
<path fill="none" stroke="#191970" d="M88.9862,-236.1664C100.4794,-203.6146 140.294,-102.1283 207,-47.5 211.6711,-43.6746 216.8558,-40.2991 222.2945,-37.3246"/>
<polygon fill="#191970" stroke="#191970" points="224.238,-40.2676 231.6414,-32.6887 221.1276,-33.9965 224.238,-40.2676"/>
</g>
<!-- Node15 -->
<g id="node15" class="node">
<title>Node15</title>
<g id="a_node15"><a xlink:href="../../d0/dc2/classG4PionPlus.html#aa5dee945dcf2c16926bf421209774b60" target="_top" xlink:title="G4PionPlus::PionPlusDefinition">
<polygon fill="none" stroke="#000000" points="207,-298.5 207,-318.5 377,-318.5 377,-298.5 207,-298.5"/>
<text text-anchor="middle" x="292" y="-305.5" font-family="FreeSans" font-size="10.00" fill="#000000">G4PionPlus::PionPlusDefinition</text>
</a>
</g>
</g>
<!-- Node1&#45;&gt;Node15 -->
<g id="edge15" class="edge">
<title>Node1&#45;&gt;Node15</title>
<path fill="none" stroke="#191970" d="M119.1374,-256.5994C154.3873,-267.1829 209.8999,-283.8501 248.4695,-295.4303"/>
<polygon fill="#191970" stroke="#191970" points="247.7929,-298.8815 258.377,-298.405 249.8059,-292.1771 247.7929,-298.8815"/>
</g>
<!-- Node3 -->
<g id="node3" class="node">
<title>Node3</title>
<g id="a_node3"><a xlink:href="../../d8/dd3/classG4ParticleTable.html#a5dcd173398768b18c5ba132bbd8f427b" target="_top" xlink:title="G4ParticleTable::CheckReadiness">
<polygon fill="none" stroke="#000000" points="1575,-378.5 1575,-398.5 1758,-398.5 1758,-378.5 1575,-378.5"/>
<text text-anchor="middle" x="1666.5" y="-385.5" font-family="FreeSans" font-size="10.00" fill="#000000">G4ParticleTable::CheckReadiness</text>
</a>
</g>
</g>
<!-- Node2&#45;&gt;Node3 -->
<g id="edge2" class="edge">
<title>Node2&#45;&gt;Node3</title>
<path fill="none" stroke="#191970" d="M1496.3168,-349.558C1518.9464,-355.6167 1548.5713,-363.3277 1575,-369.5 1585.0571,-371.8488 1595.7702,-374.2043 1606.1911,-376.4179"/>
<polygon fill="#191970" stroke="#191970" points="1605.5559,-379.8608 1616.0619,-378.4919 1606.9953,-373.0104 1605.5559,-379.8608"/>
</g>
<!-- Node5 -->
<g id="node5" class="node">
<title>Node5</title>
<g id="a_node5"><a xlink:href="../../d8/dd3/classG4ParticleTable.html#ad3150940809a36b87123558264d30108" target="_top" xlink:title="G4ParticleTable::GetKey">
<polygon fill="none" stroke="#000000" points="1598,-300.5 1598,-320.5 1735,-320.5 1735,-300.5 1598,-300.5"/>
<text text-anchor="middle" x="1666.5" y="-307.5" font-family="FreeSans" font-size="10.00" fill="#000000">G4ParticleTable::GetKey</text>
</a>
</g>
</g>
<!-- Node2&#45;&gt;Node5 -->
<g id="edge4" class="edge">
<title>Node2&#45;&gt;Node5</title>
<path fill="none" stroke="#191970" d="M1531.0275,-329.4792C1549.3531,-326.9119 1569.1616,-324.1368 1587.8255,-321.522"/>
<polygon fill="#191970" stroke="#191970" points="1588.3447,-324.9836 1597.7624,-320.1299 1587.3735,-318.0513 1588.3447,-324.9836"/>
</g>
<!-- Node6 -->
<g id="node6" class="node">
<title>Node6</title>
<g id="a_node6"><a xlink:href="../../d7/d23/namespaceG4Threading.html#a4bce96528c21592b91483fb2ab5b6215" target="_top" xlink:title="G4Threading::IsWorkerThread">
<polygon fill="none" stroke="#000000" points="1582.5,-339.5 1582.5,-359.5 1750.5,-359.5 1750.5,-339.5 1582.5,-339.5"/>
<text text-anchor="middle" x="1666.5" y="-346.5" font-family="FreeSans" font-size="10.00" fill="#000000">G4Threading::IsWorkerThread</text>
</a>
</g>
</g>
<!-- Node2&#45;&gt;Node6 -->
<g id="edge5" class="edge">
<title>Node2&#45;&gt;Node6</title>
<path fill="none" stroke="#191970" d="M1539.2355,-343.352C1550.0481,-343.8743 1561.2266,-344.4143 1572.2634,-344.9475"/>
<polygon fill="#191970" stroke="#191970" points="1572.1875,-348.4478 1582.3448,-345.4345 1572.5254,-341.456 1572.1875,-348.4478"/>
</g>
<!-- Node4 -->
<g id="node4" class="node">
<title>Node4</title>
<g id="a_node4"><a xlink:href="../../d5/d4f/G4Exception_8hh.html#ad36b5da5d062a20ca47b1c1f1ae353dd" target="_top" xlink:title="G4Exception">
<polygon fill="none" stroke="#000000" points="1794,-378.5 1794,-398.5 1874,-398.5 1874,-378.5 1794,-378.5"/>
<text text-anchor="middle" x="1834" y="-385.5" font-family="FreeSans" font-size="10.00" fill="#000000">G4Exception</text>
</a>
</g>
</g>
<!-- Node3&#45;&gt;Node4 -->
<g id="edge3" class="edge">
<title>Node3&#45;&gt;Node4</title>
<path fill="none" stroke="#191970" d="M1758.0913,-388.5C1766.8984,-388.5 1775.5889,-388.5 1783.7684,-388.5"/>
<polygon fill="#191970" stroke="#191970" points="1783.8264,-392.0001 1793.8263,-388.5 1783.8263,-385.0001 1783.8264,-392.0001"/>
</g>
<!-- Node8 -->
<g id="node8" class="node">
<title>Node8</title>
<g id="a_node8"><a xlink:href="../../d8/dd3/classG4ParticleTable.html#aba540bf07478ff0c30af3ee28d843041" target="_top" xlink:title="G4ParticleTable::WorkerG4\lParticleTable">
<polygon fill="none" stroke="#000000" points="777.5,-188.5 777.5,-220.5 928.5,-220.5 928.5,-188.5 777.5,-188.5"/>
<text text-anchor="start" x="785.5" y="-207.5" font-family="FreeSans" font-size="10.00" fill="#000000">G4ParticleTable::WorkerG4</text>
<text text-anchor="middle" x="853" y="-195.5" font-family="FreeSans" font-size="10.00" fill="#000000">ParticleTable</text>
</a>
</g>
</g>
<!-- Node7&#45;&gt;Node8 -->
<g id="edge7" class="edge">
<title>Node7&#45;&gt;Node8</title>
<path fill="none" stroke="#191970" d="M730.7028,-230.4418C742.6435,-227.9089 755.0636,-225.2744 767.2134,-222.6972"/>
<polygon fill="#191970" stroke="#191970" points="768.2831,-226.0482 777.3391,-220.5493 766.8305,-219.2006 768.2831,-226.0482"/>
</g>
<!-- Node8&#45;&gt;Node5 -->
<g id="edge8" class="edge">
<title>Node8&#45;&gt;Node5</title>
<path fill="none" stroke="#191970" d="M868.6127,-188.2405C889.9005,-167.3714 930.2963,-132.2221 973,-118.5 1045.3562,-95.2495 1069.175,-105.1874 1144,-118.5 1340.6343,-153.4844 1560.3,-257.1086 1637.6684,-295.7521"/>
<polygon fill="#191970" stroke="#191970" points="1636.295,-298.979 1646.8017,-300.3433 1639.4391,-292.7248 1636.295,-298.979"/>
</g>
<!-- Node9 -->
<g id="node9" class="node">
<title>Node9</title>
<g id="a_node9"><a xlink:href="../../d5/d38/classG4ParticleDefinition.html#af84019c7513ca66581ed8b3651934467" target="_top" xlink:title="G4ParticleDefinition\l::GetPDGEncoding">
<polygon fill="none" stroke="#000000" points="1000.5,-269.5 1000.5,-301.5 1116.5,-301.5 1116.5,-269.5 1000.5,-269.5"/>
<text text-anchor="start" x="1008.5" y="-288.5" font-family="FreeSans" font-size="10.00" fill="#000000">G4ParticleDefinition</text>
<text text-anchor="middle" x="1058.5" y="-276.5" font-family="FreeSans" font-size="10.00" fill="#000000">::GetPDGEncoding</text>
</a>
</g>
</g>
<!-- Node8&#45;&gt;Node9 -->
<g id="edge9" class="edge">
<title>Node8&#45;&gt;Node9</title>
<path fill="none" stroke="#191970" d="M884.0208,-220.5709C907.9261,-232.5619 942.0227,-248.8207 973,-260.5 978.5623,-262.5971 984.3817,-264.6281 990.2558,-266.5655"/>
<polygon fill="#191970" stroke="#191970" points="989.5661,-270.0196 1000.1571,-269.7329 991.6989,-263.3524 989.5661,-270.0196"/>
</g>
<!-- Node10 -->
<g id="node10" class="node">
<title>Node10</title>
<g id="a_node10"><a xlink:href="../../d4/d96/classG4ParticleTableIterator.html#ae35fb8d216907e4b1614fd52f2d50f84" target="_top" xlink:title="G4ParticleTableIterator\l::reset">
<polygon fill="none" stroke="#000000" points="992.5,-218.5 992.5,-250.5 1124.5,-250.5 1124.5,-218.5 992.5,-218.5"/>
<text text-anchor="start" x="1000.5" y="-237.5" font-family="FreeSans" font-size="10.00" fill="#000000">G4ParticleTableIterator</text>
<text text-anchor="middle" x="1058.5" y="-225.5" font-family="FreeSans" font-size="10.00" fill="#000000">::reset</text>
</a>
</g>
</g>
<!-- Node8&#45;&gt;Node10 -->
<g id="edge10" class="edge">
<title>Node8&#45;&gt;Node10</title>
<path fill="none" stroke="#191970" d="M928.6451,-215.5431C946.1522,-218.0989 964.7899,-220.8197 982.3198,-223.3788"/>
<polygon fill="#191970" stroke="#191970" points="982.0954,-226.8831 992.4962,-224.8644 983.1067,-219.9565 982.0954,-226.8831"/>
</g>
<!-- Node11 -->
<g id="node11" class="node">
<title>Node11</title>
<g id="a_node11"><a xlink:href="../../d4/d96/classG4ParticleTableIterator.html#a7220383ce5a9ddecb53331a2ecdd90d5" target="_top" xlink:title="G4ParticleTableIterator\l::value">
<polygon fill="none" stroke="#000000" points="992.5,-167.5 992.5,-199.5 1124.5,-199.5 1124.5,-167.5 992.5,-167.5"/>
<text text-anchor="start" x="1000.5" y="-186.5" font-family="FreeSans" font-size="10.00" fill="#000000">G4ParticleTableIterator</text>
<text text-anchor="middle" x="1058.5" y="-174.5" font-family="FreeSans" font-size="10.00" fill="#000000">::value</text>
</a>
</g>
</g>
<!-- Node8&#45;&gt;Node11 -->
<g id="edge11" class="edge">
<title>Node8&#45;&gt;Node11</title>
<path fill="none" stroke="#191970" d="M928.6451,-196.7698C946.1522,-194.9808 964.7899,-193.0762 982.3198,-191.2848"/>
<polygon fill="#191970" stroke="#191970" points="982.9038,-194.7435 992.4962,-190.2449 982.1921,-187.7797 982.9038,-194.7435"/>
</g>
<!-- Node12 -->
<g id="node12" class="node">
<title>Node12</title>
<g id="a_node12"><a xlink:href="../../da/d2b/classG4IonTable.html#a66f8ee295224ed611872572a0e47ab6e" target="_top" xlink:title="G4IonTable::WorkerG4IonTable">
<polygon fill="none" stroke="#000000" points="973,-128.5 973,-148.5 1144,-148.5 1144,-128.5 973,-128.5"/>
<text text-anchor="middle" x="1058.5" y="-135.5" font-family="FreeSans" font-size="10.00" fill="#000000">G4IonTable::WorkerG4IonTable</text>
</a>
</g>
</g>
<!-- Node8&#45;&gt;Node12 -->
<g id="edge12" class="edge">
<title>Node8&#45;&gt;Node12</title>
<path fill="none" stroke="#191970" d="M889.509,-188.4986C913.0233,-178.6196 944.4292,-166.2125 973,-157.5 980.7552,-155.1351 988.989,-152.9311 997.1656,-150.9235"/>
<polygon fill="#191970" stroke="#191970" points="998.1518,-154.2868 1007.0749,-148.5746 996.5372,-147.4756 998.1518,-154.2868"/>
</g>
<!-- Node16 -->
<g id="node16" class="node">
<title>Node16</title>
<g id="a_node16"><a xlink:href="../../d0/dc2/classG4PionPlus.html#a5cfffef14b8502c5a679b10ff926734f" target="_top" xlink:title="G4PionPlus::Definition">
<polygon fill="none" stroke="#000000" points="413,-322.5 413,-342.5 541,-342.5 541,-322.5 413,-322.5"/>
<text text-anchor="middle" x="477" y="-329.5" font-family="FreeSans" font-size="10.00" fill="#000000">G4PionPlus::Definition</text>
</a>
</g>
</g>
<!-- Node15&#45;&gt;Node16 -->
<g id="edge16" class="edge">
<title>Node15&#45;&gt;Node16</title>
<path fill="none" stroke="#191970" d="M369.117,-318.5044C380.2754,-319.9519 391.7411,-321.4394 402.8398,-322.8792"/>
<polygon fill="#191970" stroke="#191970" points="402.5427,-326.3699 412.9099,-324.1856 403.4433,-319.4281 402.5427,-326.3699"/>
</g>
<!-- Node16&#45;&gt;Node2 -->
<g id="edge17" class="edge">
<title>Node16&#45;&gt;Node2</title>
<path fill="none" stroke="#191970" d="M541.3754,-332.4511C630.3285,-332.4266 795.8484,-332.5362 937,-333.5 1088.8805,-334.5371 1265.5841,-336.784 1369.6797,-338.2147"/>
<polygon fill="#191970" stroke="#191970" points="1369.7863,-341.7164 1379.8336,-338.3548 1369.8829,-334.717 1369.7863,-341.7164"/>
</g>
<!-- Node16&#45;&gt;Node7 -->
<g id="edge20" class="edge">
<title>Node16&#45;&gt;Node7</title>
<path fill="none" stroke="#191970" d="M497.7672,-322.4664C525.7166,-308.9627 576.1028,-284.6189 612.312,-267.1245"/>
<polygon fill="#191970" stroke="#191970" points="614.1719,-270.1131 621.6534,-262.6113 611.1266,-263.8102 614.1719,-270.1131"/>
</g>
<!-- Node17 -->
<g id="node17" class="node">
<title>Node17</title>
<g id="a_node17"><a xlink:href="../../d5/d38/classG4ParticleDefinition.html#a62ed9b48da6b7fd47ba568dd9777007f" target="_top" xlink:title="G4ParticleDefinition\l::G4ParticleDefinition">
<polygon fill="none" stroke="#000000" points="1200.5,-442.5 1200.5,-474.5 1323.5,-474.5 1323.5,-442.5 1200.5,-442.5"/>
<text text-anchor="start" x="1208.5" y="-461.5" font-family="FreeSans" font-size="10.00" fill="#000000">G4ParticleDefinition</text>
<text text-anchor="middle" x="1262" y="-449.5" font-family="FreeSans" font-size="10.00" fill="#000000">::G4ParticleDefinition</text>
</a>
</g>
</g>
<!-- Node16&#45;&gt;Node17 -->
<g id="edge18" class="edge">
<title>Node16&#45;&gt;Node17</title>
<path fill="none" stroke="#191970" d="M484.8469,-342.5979C500.2759,-361.6923 536.5953,-403.0086 577,-423.5 779.3524,-526.1241 1059.9498,-495.3741 1190.2254,-472.9367"/>
<polygon fill="#191970" stroke="#191970" points="1190.8535,-476.3801 1200.0971,-471.2025 1189.6423,-469.4856 1190.8535,-476.3801"/>
</g>
<!-- Node18 -->
<g id="node18" class="node">
<title>Node18</title>
<g id="a_node18"><a xlink:href="../../db/d89/classG4DecayTable.html#a3edb3d6c42c02f3554e3121f5f079f6f" target="_top" xlink:title="G4DecayTable::Insert">
<polygon fill="none" stroke="#000000" points="592.5,-342.5 592.5,-362.5 717.5,-362.5 717.5,-342.5 592.5,-342.5"/>
<text text-anchor="middle" x="655" y="-349.5" font-family="FreeSans" font-size="10.00" fill="#000000">G4DecayTable::Insert</text>
</a>
</g>
</g>
<!-- Node16&#45;&gt;Node18 -->
<g id="edge21" class="edge">
<title>Node16&#45;&gt;Node18</title>
<path fill="none" stroke="#191970" d="M541.0106,-339.6922C554.3539,-341.1914 568.5126,-342.7823 582.1482,-344.3144"/>
<polygon fill="#191970" stroke="#191970" points="582.1228,-347.8335 592.4511,-345.472 582.9045,-340.8773 582.1228,-347.8335"/>
</g>
<!-- Node25 -->
<g id="node25" class="node">
<title>Node25</title>
<g id="a_node25"><a xlink:href="../../d5/d38/classG4ParticleDefinition.html#ad3c610e90b4ba111581b30943d66cfea" target="_top" xlink:title="G4ParticleDefinition\l::SetDecayTable">
<polygon fill="none" stroke="#000000" points="597,-381.5 597,-413.5 713,-413.5 713,-381.5 597,-381.5"/>
<text text-anchor="start" x="605" y="-400.5" font-family="FreeSans" font-size="10.00" fill="#000000">G4ParticleDefinition</text>
<text text-anchor="middle" x="655" y="-388.5" font-family="FreeSans" font-size="10.00" fill="#000000">::SetDecayTable</text>
</a>
</g>
</g>
<!-- Node16&#45;&gt;Node25 -->
<g id="edge31" class="edge">
<title>Node16&#45;&gt;Node25</title>
<path fill="none" stroke="#191970" d="M500.6618,-342.5111C520.812,-350.9044 550.6082,-363.0054 577,-372.5 582.4004,-374.4428 588.0366,-376.3944 593.7002,-378.3037"/>
<polygon fill="#191970" stroke="#191970" points="592.6269,-381.6352 603.2204,-381.468 594.8348,-374.9925 592.6269,-381.6352"/>
</g>
<!-- Node17&#45;&gt;Node4 -->
<g id="edge19" class="edge">
<title>Node17&#45;&gt;Node4</title>
<path fill="none" stroke="#191970" d="M1323.5183,-455.4078C1417.6947,-449.9758 1602.9973,-436.5289 1758,-408.5 1768.6831,-406.5682 1780.0674,-403.9051 1790.685,-401.1519"/>
<polygon fill="#191970" stroke="#191970" points="1791.8255,-404.47 1800.582,-398.5056 1790.0172,-397.7076 1791.8255,-404.47"/>
</g>
<!-- Node19 -->
<g id="node19" class="node">
<title>Node19</title>
<g id="a_node19"><a xlink:href="../../df/d2d/classG4VDecayChannel.html#a5d58c7fe44af8cd34c06d1887ef9e75b" target="_top" xlink:title="G4VDecayChannel::GetBR">
<polygon fill="none" stroke="#000000" points="778,-432.5 778,-452.5 928,-452.5 928,-432.5 778,-432.5"/>
<text text-anchor="middle" x="853" y="-439.5" font-family="FreeSans" font-size="10.00" fill="#000000">G4VDecayChannel::GetBR</text>
</a>
</g>
</g>
<!-- Node18&#45;&gt;Node19 -->
<g id="edge22" class="edge">
<title>Node18&#45;&gt;Node19</title>
<path fill="none" stroke="#191970" d="M713.6541,-362.6502C720.5032,-365.2252 727.13,-368.4533 733,-372.5 755.8428,-388.2475 745.9347,-408.0802 769,-423.5 771.5889,-425.2308 774.3126,-426.8057 777.132,-428.2386"/>
<polygon fill="#191970" stroke="#191970" points="775.8532,-431.5001 786.414,-432.349 778.6876,-425.0996 775.8532,-431.5001"/>
</g>
<!-- Node20 -->
<g id="node20" class="node">
<title>Node20</title>
<g id="a_node20"><a xlink:href="../../df/d2d/classG4VDecayChannel.html#ac39f0f3b9b175652872f0a54e7c28c12" target="_top" xlink:title="G4VDecayChannel::GetParent">
<polygon fill="none" stroke="#000000" points="769,-342.5 769,-362.5 937,-362.5 937,-342.5 769,-342.5"/>
<text text-anchor="middle" x="853" y="-349.5" font-family="FreeSans" font-size="10.00" fill="#000000">G4VDecayChannel::GetParent</text>
</a>
</g>
</g>
<!-- Node18&#45;&gt;Node20 -->
<g id="edge23" class="edge">
<title>Node18&#45;&gt;Node20</title>
<path fill="none" stroke="#191970" d="M717.6484,-352.5C730.6855,-352.5 744.6992,-352.5 758.5921,-352.5"/>
<polygon fill="#191970" stroke="#191970" points="758.6713,-356.0001 768.6713,-352.5 758.6712,-349.0001 758.6713,-356.0001"/>
</g>
<!-- Node24 -->
<g id="node24" class="node">
<title>Node24</title>
<g id="a_node24"><a xlink:href="../../d5/d38/classG4ParticleDefinition.html#a02a571907ec0c42bf356545826d9234f" target="_top" xlink:title="G4ParticleDefinition\l::GetParticleName">
<polygon fill="none" stroke="#000000" points="795,-381.5 795,-413.5 911,-413.5 911,-381.5 795,-381.5"/>
<text text-anchor="start" x="803" y="-400.5" font-family="FreeSans" font-size="10.00" fill="#000000">G4ParticleDefinition</text>
<text text-anchor="middle" x="853" y="-388.5" font-family="FreeSans" font-size="10.00" fill="#000000">::GetParticleName</text>
</a>
</g>
</g>
<!-- Node18&#45;&gt;Node24 -->
<g id="edge30" class="edge">
<title>Node18&#45;&gt;Node24</title>
<path fill="none" stroke="#191970" d="M699.4351,-362.5989C724.6272,-368.3244 756.6745,-375.6078 784.9689,-382.0384"/>
<polygon fill="#191970" stroke="#191970" points="784.2761,-385.4701 794.8031,-384.2734 785.8275,-378.6442 784.2761,-385.4701"/>
</g>
<!-- Node21 -->
<g id="node21" class="node">
<title>Node21</title>
<g id="a_node21"><a xlink:href="../../df/d2d/classG4VDecayChannel.html#a1c515b1f4f1f9e5aafe3d0e10cb5b643" target="_top" xlink:title="G4VDecayChannel::CheckAnd\lFillParent">
<polygon fill="none" stroke="#000000" points="974.5,-359.5 974.5,-391.5 1142.5,-391.5 1142.5,-359.5 974.5,-359.5"/>
<text text-anchor="start" x="982.5" y="-378.5" font-family="FreeSans" font-size="10.00" fill="#000000">G4VDecayChannel::CheckAnd</text>
<text text-anchor="middle" x="1058.5" y="-366.5" font-family="FreeSans" font-size="10.00" fill="#000000">FillParent</text>
</a>
</g>
</g>
<!-- Node20&#45;&gt;Node21 -->
<g id="edge24" class="edge">
<title>Node20&#45;&gt;Node21</title>
<path fill="none" stroke="#191970" d="M937.1777,-361.9213C946.117,-362.9219 955.2503,-363.9441 964.2947,-364.9563"/>
<polygon fill="#191970" stroke="#191970" points="964.126,-368.4592 974.4533,-366.0933 964.9046,-361.5027 964.126,-368.4592"/>
</g>
<!-- Node22 -->
<g id="node22" class="node">
<title>Node22</title>
<g id="a_node22"><a xlink:href="../../d7/d27/classG4TemplateAutoLock.html#a1fc2695a8c9b5527f9f3c62b32a2c172" target="_top" xlink:title="G4TemplateAutoLock\l::unlock">
<polygon fill="none" stroke="#000000" points="1200,-359.5 1200,-391.5 1324,-391.5 1324,-359.5 1200,-359.5"/>
<text text-anchor="start" x="1208" y="-378.5" font-family="FreeSans" font-size="10.00" fill="#000000">G4TemplateAutoLock</text>
<text text-anchor="middle" x="1262" y="-366.5" font-family="FreeSans" font-size="10.00" fill="#000000">::unlock</text>
</a>
</g>
</g>
<!-- Node21&#45;&gt;Node22 -->
<g id="edge25" class="edge">
<title>Node21&#45;&gt;Node22</title>
<path fill="none" stroke="#191970" d="M1142.7402,-375.5C1158.2876,-375.5 1174.3972,-375.5 1189.5579,-375.5"/>
<polygon fill="#191970" stroke="#191970" points="1189.8836,-379.0001 1199.8835,-375.5 1189.8835,-372.0001 1189.8836,-379.0001"/>
</g>
<!-- Node23 -->
<g id="node23" class="node">
<title>Node23</title>
<g id="a_node23"><a xlink:href="../../df/d2d/classG4VDecayChannel.html#a58f654382302cd3c1c6894bd5a8c8565" target="_top" xlink:title="G4VDecayChannel::FillParent">
<polygon fill="none" stroke="#000000" points="1180,-271.5 1180,-291.5 1344,-291.5 1344,-271.5 1180,-271.5"/>
<text text-anchor="middle" x="1262" y="-278.5" font-family="FreeSans" font-size="10.00" fill="#000000">G4VDecayChannel::FillParent</text>
</a>
</g>
</g>
<!-- Node21&#45;&gt;Node23 -->
<g id="edge26" class="edge">
<title>Node21&#45;&gt;Node23</title>
<path fill="none" stroke="#191970" d="M1093.4829,-359.3408C1132.1848,-341.4638 1193.9604,-312.9286 1230.9903,-295.8239"/>
<polygon fill="#191970" stroke="#191970" points="1232.6799,-298.8988 1240.2905,-291.528 1229.7445,-292.544 1232.6799,-298.8988"/>
</g>
<!-- Node23&#45;&gt;Node2 -->
<g id="edge28" class="edge">
<title>Node23&#45;&gt;Node2</title>
<path fill="none" stroke="#191970" d="M1296.4019,-291.6028C1329.4354,-301.3038 1379.4848,-316.0019 1415.4247,-326.5564"/>
<polygon fill="#191970" stroke="#191970" points="1414.5805,-329.9562 1425.1616,-329.4158 1416.553,-323.2398 1414.5805,-329.9562"/>
</g>
<!-- Node23&#45;&gt;Node4 -->
<g id="edge27" class="edge">
<title>Node23&#45;&gt;Node4</title>
<path fill="none" stroke="#191970" d="M1301.6823,-271.4526C1389.4629,-251.4478 1604.4701,-214.8254 1758,-291.5 1790.8445,-307.9029 1813.8059,-345.9017 1825.3755,-369.1728"/>
<polygon fill="#191970" stroke="#191970" points="1822.3122,-370.8819 1829.7585,-378.4187 1828.6375,-367.8833 1822.3122,-370.8819"/>
</g>
<!-- Node23&#45;&gt;Node13 -->
<g id="edge29" class="edge">
<title>Node23&#45;&gt;Node13</title>
<path fill="none" stroke="#191970" d="M1270.7412,-271.4532C1300.159,-237.6413 1396.1081,-127.3605 1438.7504,-78.349"/>
<polygon fill="#191970" stroke="#191970" points="1441.4324,-80.5986 1445.3557,-70.7569 1436.1514,-76.0039 1441.4324,-80.5986"/>
</g>
</g>
</svg>
