<?xml version="1.0" encoding="UTF-8" standalone="no"?>
<!DOCTYPE svg PUBLIC "-//W3C//DTD SVG 1.1//EN"
 "http://www.w3.org/Graphics/SVG/1.1/DTD/svg11.dtd">
<!-- Generated by graphviz version 2.40.1 (20161225.0304)
 -->
<!-- Title: PHG4TpcDigitizer::added_noise Pages: 1 -->
<svg width="382pt" height="80pt"
 viewBox="0.00 0.00 382.00 80.00" xmlns="http://www.w3.org/2000/svg" xmlns:xlink="http://www.w3.org/1999/xlink">
<g id="graph0" class="graph" transform="scale(1 1) rotate(0) translate(4 76)">
<title>PHG4TpcDigitizer::added_noise</title>
<!-- Node1 -->
<g id="node1" class="node">
<title>Node1</title>
<polygon fill="#bfbfbf" stroke="#000000" points="0,-22.5 0,-54.5 143,-54.5 143,-22.5 0,-22.5"/>
<text text-anchor="start" x="8" y="-41.5" font-family="FreeSans" font-size="10.00" fill="#000000">PHG4TpcDigitizer::added</text>
<text text-anchor="middle" x="71.5" y="-29.5" font-family="FreeSans" font-size="10.00" fill="#000000">_noise</text>
</g>
<!-- Node2 -->
<g id="node2" class="node">
<title>Node2</title>
<g id="a_node2"><a xlink:href="../../d1/dcb/chem4_8cc.html#a467d54c3fde6ba7aa6e2f350cccacdf5" target="_top" xlink:title="noise">
<polygon fill="none" stroke="#000000" points="179,-28.5 179,-48.5 222,-48.5 222,-28.5 179,-28.5"/>
<text text-anchor="middle" x="200.5" y="-35.5" font-family="FreeSans" font-size="10.00" fill="#000000">noise</text>
</a>
</g>
</g>
<!-- Node1&#45;&gt;Node2 -->
<g id="edge1" class="edge">
<title>Node1&#45;&gt;Node2</title>
<path fill="none" stroke="#191970" d="M143.1675,-38.5C152.0983,-38.5 160.8435,-38.5 168.7068,-38.5"/>
<polygon fill="#191970" stroke="#191970" points="168.8174,-42.0001 178.8174,-38.5 168.8174,-35.0001 168.8174,-42.0001"/>
</g>
<!-- Node3 -->
<g id="node3" class="node">
<title>Node3</title>
<g id="a_node3"><a xlink:href="../../d9/d04/expat_8h.html#a14bb8924daea0b48c7803f281f66e390" target="_top" xlink:title="int">
<polygon fill="none" stroke="#000000" points="301,-51.5 301,-71.5 331,-71.5 331,-51.5 301,-51.5"/>
<text text-anchor="middle" x="316" y="-58.5" font-family="FreeSans" font-size="10.00" fill="#000000">int</text>
</a>
</g>
</g>
<!-- Node2&#45;&gt;Node3 -->
<g id="edge2" class="edge">
<title>Node2&#45;&gt;Node3</title>
<path fill="none" stroke="#191970" d="M222.2247,-42.8261C241.8124,-46.7267 270.6064,-52.4606 291.1134,-56.5442"/>
<polygon fill="#191970" stroke="#191970" points="290.4982,-59.9904 300.9892,-58.5108 291.8654,-53.1252 290.4982,-59.9904"/>
</g>
<!-- Node4 -->
<g id="node4" class="node">
<title>Node4</title>
<g id="a_node4"><a xlink:href="../../df/da1/namespaceActs_1_1VectorHelpers.html#ab52a0c8023eda1c81cc9ddfe7f03b535" target="_top" xlink:title="Access to the time component of input parameter.">
<polygon fill="none" stroke="#000000" points="258,-.5 258,-32.5 374,-32.5 374,-.5 258,-.5"/>
<text text-anchor="start" x="266" y="-19.5" font-family="FreeSans" font-size="10.00" fill="#000000">Acts::VectorHelpers</text>
<text text-anchor="middle" x="316" y="-7.5" font-family="FreeSans" font-size="10.00" fill="#000000">::time</text>
</a>
</g>
</g>
<!-- Node2&#45;&gt;Node4 -->
<g id="edge3" class="edge">
<title>Node2&#45;&gt;Node4</title>
<path fill="none" stroke="#191970" d="M222.2247,-34.362C229.711,-32.936 238.542,-31.2539 247.7413,-29.5017"/>
<polygon fill="#191970" stroke="#191970" points="248.6533,-32.891 257.8217,-27.5816 247.3434,-26.0146 248.6533,-32.891"/>
</g>
</g>
</svg>
