<?xml version="1.0" encoding="UTF-8" standalone="no"?>
<!DOCTYPE svg PUBLIC "-//W3C//DTD SVG 1.1//EN"
 "http://www.w3.org/Graphics/SVG/1.1/DTD/svg11.dtd">
<!-- Generated by graphviz version 2.40.1 (20161225.0304)
 -->
<!-- Title: setContext Pages: 1 -->
<svg width="338pt" height="224pt"
 viewBox="0.00 0.00 338.00 224.00" xmlns="http://www.w3.org/2000/svg" xmlns:xlink="http://www.w3.org/1999/xlink">
<g id="graph0" class="graph" transform="scale(1 1) rotate(0) translate(4 220)">
<title>setContext</title>
<!-- Node1 -->
<g id="node1" class="node">
<title>Node1</title>
<polygon fill="#bfbfbf" stroke="#000000" points="0,-97.5 0,-117.5 71,-117.5 71,-97.5 0,-97.5"/>
<text text-anchor="middle" x="35.5" y="-104.5" font-family="FreeSans" font-size="10.00" fill="#000000">setContext</text>
</g>
<!-- Node2 -->
<g id="node2" class="node">
<title>Node2</title>
<g id="a_node2"><a xlink:href="../../d3/df1/xmlparse_8cc.html#a4ad0462dee1033d9d36ee976c962f8f5" target="_top" xlink:title="addBinding">
<polygon fill="none" stroke="#000000" points="116.5,-165.5 116.5,-185.5 190.5,-185.5 190.5,-165.5 116.5,-165.5"/>
<text text-anchor="middle" x="153.5" y="-172.5" font-family="FreeSans" font-size="10.00" fill="#000000">addBinding</text>
</a>
</g>
</g>
<!-- Node1&#45;&gt;Node2 -->
<g id="edge1" class="edge">
<title>Node1&#45;&gt;Node2</title>
<path fill="none" stroke="#191970" d="M52.9113,-117.5336C72.5196,-128.8333 104.5972,-147.3187 127.2487,-160.3721"/>
<polygon fill="#191970" stroke="#191970" points="125.6054,-163.4647 136.0173,-165.4252 129.1005,-157.3997 125.6054,-163.4647"/>
</g>
<!-- Node4 -->
<g id="node4" class="node">
<title>Node4</title>
<g id="a_node4"><a xlink:href="../../d3/df1/xmlparse_8cc.html#a2135495bc5c285c27f01f3dcf37abc75" target="_top" xlink:title="lookup">
<polygon fill="none" stroke="#000000" points="128.5,-97.5 128.5,-117.5 178.5,-117.5 178.5,-97.5 128.5,-97.5"/>
<text text-anchor="middle" x="153.5" y="-104.5" font-family="FreeSans" font-size="10.00" fill="#000000">lookup</text>
</a>
</g>
</g>
<!-- Node1&#45;&gt;Node4 -->
<g id="edge3" class="edge">
<title>Node1&#45;&gt;Node4</title>
<path fill="none" stroke="#191970" d="M71.2241,-107.5C86.071,-107.5 103.2599,-107.5 118.0751,-107.5"/>
<polygon fill="#191970" stroke="#191970" points="118.376,-111.0001 128.3759,-107.5 118.3759,-104.0001 118.376,-111.0001"/>
</g>
<!-- Node10 -->
<g id="node10" class="node">
<title>Node10</title>
<g id="a_node10"><a xlink:href="../../d3/df1/xmlparse_8cc.html#a124601b6af034f69d5875f7f81e3b3b7" target="_top" xlink:title="poolCopyString">
<polygon fill="none" stroke="#000000" points="107,-58.5 107,-78.5 200,-78.5 200,-58.5 107,-58.5"/>
<text text-anchor="middle" x="153.5" y="-65.5" font-family="FreeSans" font-size="10.00" fill="#000000">poolCopyString</text>
</a>
</g>
</g>
<!-- Node1&#45;&gt;Node10 -->
<g id="edge9" class="edge">
<title>Node1&#45;&gt;Node10</title>
<path fill="none" stroke="#191970" d="M65.8879,-97.4565C80.3401,-92.68 97.8143,-86.9046 113.3429,-81.7723"/>
<polygon fill="#191970" stroke="#191970" points="114.8186,-84.9708 123.215,-78.5094 112.6218,-78.3244 114.8186,-84.9708"/>
</g>
<!-- Node3 -->
<g id="node3" class="node">
<title>Node3</title>
<g id="a_node3"><a xlink:href="../../d9/d04/expat_8h.html#a14bb8924daea0b48c7803f281f66e390" target="_top" xlink:title="int">
<polygon fill="none" stroke="#000000" points="268,-195.5 268,-215.5 298,-215.5 298,-195.5 268,-195.5"/>
<text text-anchor="middle" x="283" y="-202.5" font-family="FreeSans" font-size="10.00" fill="#000000">int</text>
</a>
</g>
</g>
<!-- Node2&#45;&gt;Node3 -->
<g id="edge2" class="edge">
<title>Node2&#45;&gt;Node3</title>
<path fill="none" stroke="#191970" d="M190.6095,-184.0968C212.3029,-189.1223 239.092,-195.3283 258.2278,-199.7613"/>
<polygon fill="#191970" stroke="#191970" points="257.4585,-203.1757 267.9905,-202.0229 259.0384,-196.3563 257.4585,-203.1757"/>
</g>
<!-- Node5 -->
<g id="node5" class="node">
<title>Node5</title>
<g id="a_node5"><a xlink:href="../../d3/df1/xmlparse_8cc.html#ac90fb1922dfd1451b559829cbefd4c7b" target="_top" xlink:title="hash">
<polygon fill="none" stroke="#000000" points="263,-156.5 263,-176.5 303,-176.5 303,-156.5 263,-156.5"/>
<text text-anchor="middle" x="283" y="-163.5" font-family="FreeSans" font-size="10.00" fill="#000000">hash</text>
</a>
</g>
</g>
<!-- Node4&#45;&gt;Node5 -->
<g id="edge4" class="edge">
<title>Node4&#45;&gt;Node5</title>
<path fill="none" stroke="#191970" d="M173.3289,-117.5786C189.9316,-125.9049 214.3229,-137.8765 236,-147.5 241.5655,-149.9708 247.5558,-152.4939 253.3346,-154.8605"/>
<polygon fill="#191970" stroke="#191970" points="252.1648,-158.1627 262.748,-158.6588 254.7841,-151.6712 252.1648,-158.1627"/>
</g>
<!-- Node6 -->
<g id="node6" class="node">
<title>Node6</title>
<g id="a_node6"><a xlink:href="../../d8/deb/comparison__ascii_8C.html#a5b384f33dd8d6a4bcc55a1cf25e97093" target="_top" xlink:title="if">
<polygon fill="none" stroke="#000000" points="268.5,-117.5 268.5,-137.5 297.5,-137.5 297.5,-117.5 268.5,-117.5"/>
<text text-anchor="middle" x="283" y="-124.5" font-family="FreeSans" font-size="10.00" fill="#000000">if</text>
</a>
</g>
</g>
<!-- Node4&#45;&gt;Node6 -->
<g id="edge5" class="edge">
<title>Node4&#45;&gt;Node6</title>
<path fill="none" stroke="#191970" d="M178.7763,-111.4037C201.7791,-114.9562 235.5299,-120.1687 258.3386,-123.6913"/>
<polygon fill="#191970" stroke="#191970" points="257.8488,-127.1571 268.2659,-125.2245 258.9173,-120.2391 257.8488,-127.1571"/>
</g>
<!-- Node7 -->
<g id="node7" class="node">
<title>Node7</title>
<g id="a_node7"><a xlink:href="../../d3/df1/xmlparse_8cc.html#a86e99602bce67eb0d9bdf513d436931f" target="_top" xlink:title="keyeq">
<polygon fill="none" stroke="#000000" points="260,-78.5 260,-98.5 306,-98.5 306,-78.5 260,-78.5"/>
<text text-anchor="middle" x="283" y="-85.5" font-family="FreeSans" font-size="10.00" fill="#000000">keyeq</text>
</a>
</g>
</g>
<!-- Node4&#45;&gt;Node7 -->
<g id="edge6" class="edge">
<title>Node4&#45;&gt;Node7</title>
<path fill="none" stroke="#191970" d="M178.7763,-103.7915C199.1103,-100.8081 227.8429,-96.5925 249.9917,-93.3429"/>
<polygon fill="#191970" stroke="#191970" points="250.574,-96.795 259.9599,-91.8804 249.5578,-89.8692 250.574,-96.795"/>
</g>
<!-- Node8 -->
<g id="node8" class="node">
<title>Node8</title>
<g id="a_node8"><a xlink:href="../../dd/d7e/namespaceActs_1_1Test.html#a2ece2a4f7e271a41a607a812dafc8962" target="_top" xlink:title="Acts::Test::step">
<polygon fill="none" stroke="#000000" points="236,-39.5 236,-59.5 330,-59.5 330,-39.5 236,-39.5"/>
<text text-anchor="middle" x="283" y="-46.5" font-family="FreeSans" font-size="10.00" fill="#000000">Acts::Test::step</text>
</a>
</g>
</g>
<!-- Node4&#45;&gt;Node8 -->
<g id="edge7" class="edge">
<title>Node4&#45;&gt;Node8</title>
<path fill="none" stroke="#191970" d="M178.7922,-97.6891C185.7265,-94.8577 193.2041,-91.6725 200,-88.5 216.3933,-80.8471 219.6623,-77.2709 236,-69.5 240.0741,-67.5622 244.3851,-65.6047 248.678,-63.7119"/>
<polygon fill="#191970" stroke="#191970" points="250.1578,-66.8853 257.9478,-59.7043 247.3799,-60.4601 250.1578,-66.8853"/>
</g>
<!-- Node9 -->
<g id="node9" class="node">
<title>Node9</title>
<g id="a_node9"><a xlink:href="../../d5/d6b/compare_8C.html#a8fdafe3be7e00ce3d4f0cb50a9a5eb39" target="_top" xlink:title="while">
<polygon fill="none" stroke="#000000" points="261.5,-.5 261.5,-20.5 304.5,-20.5 304.5,-.5 261.5,-.5"/>
<text text-anchor="middle" x="283" y="-7.5" font-family="FreeSans" font-size="10.00" fill="#000000">while</text>
</a>
</g>
</g>
<!-- Node4&#45;&gt;Node9 -->
<g id="edge8" class="edge">
<title>Node4&#45;&gt;Node9</title>
<path fill="none" stroke="#191970" d="M178.755,-100.4736C186.1428,-97.5888 193.8718,-93.6785 200,-88.5 223.1737,-68.9175 212.9681,-50.2491 236,-30.5 240.6576,-26.5063 246.2306,-23.2104 251.8841,-20.5269"/>
<polygon fill="#191970" stroke="#191970" points="253.4542,-23.664 261.3269,-16.5738 250.751,-17.207 253.4542,-23.664"/>
</g>
</g>
</svg>
