<?xml version="1.0" encoding="UTF-8" standalone="no"?>
<!DOCTYPE svg PUBLIC "-//W3C//DTD SVG 1.1//EN"
 "http://www.w3.org/Graphics/SVG/1.1/DTD/svg11.dtd">
<!-- Generated by graphviz version 2.40.1 (20161225.0304)
 -->
<!-- Title: G4HadronPhysicsQGS_BIC::ConstructParticle Pages: 1 -->
<svg width="765pt" height="1734pt"
 viewBox="0.00 0.00 765.00 1734.00" xmlns="http://www.w3.org/2000/svg" xmlns:xlink="http://www.w3.org/1999/xlink">
<g id="graph0" class="graph" transform="scale(1 1) rotate(0) translate(4 1730)">
<title>G4HadronPhysicsQGS_BIC::ConstructParticle</title>
<!-- Node1 -->
<g id="node1" class="node">
<title>Node1</title>
<polygon fill="#bfbfbf" stroke="#000000" points="0,-255.5 0,-287.5 131,-287.5 131,-255.5 0,-255.5"/>
<text text-anchor="start" x="8" y="-274.5" font-family="FreeSans" font-size="10.00" fill="#000000">G4HadronPhysicsQGS</text>
<text text-anchor="middle" x="65.5" y="-262.5" font-family="FreeSans" font-size="10.00" fill="#000000">_BIC::ConstructParticle</text>
</g>
<!-- Node2 -->
<g id="node2" class="node">
<title>Node2</title>
<g id="a_node2"><a xlink:href="../../d8/d9b/classG4MesonConstructor.html#a9a4c5974ded49b7fe2a7e897890be42c" target="_top" xlink:title="G4MesonConstructor\l::ConstructParticle">
<polygon fill="none" stroke="#000000" points="186,-857.5 186,-889.5 309,-889.5 309,-857.5 186,-857.5"/>
<text text-anchor="start" x="194" y="-876.5" font-family="FreeSans" font-size="10.00" fill="#000000">G4MesonConstructor</text>
<text text-anchor="middle" x="247.5" y="-864.5" font-family="FreeSans" font-size="10.00" fill="#000000">::ConstructParticle</text>
</a>
</g>
</g>
<!-- Node1&#45;&gt;Node2 -->
<g id="edge1" class="edge">
<title>Node1&#45;&gt;Node2</title>
<path fill="none" stroke="#191970" d="M70.3681,-287.602C95.2918,-370.042 208.6409,-744.9659 239.6425,-847.5097"/>
<polygon fill="#191970" stroke="#191970" points="236.3727,-848.7889 242.6169,-857.3481 243.0732,-846.7631 236.3727,-848.7889"/>
</g>
<!-- Node34 -->
<g id="node34" class="node">
<title>Node34</title>
<g id="a_node34"><a xlink:href="../../d3/d46/classG4IonConstructor.html#abbb8e711607437137f447c5046b9fbb0" target="_top" xlink:title="G4IonConstructor::Construct\lParticle">
<polygon fill="none" stroke="#000000" points="167,-281.5 167,-313.5 328,-313.5 328,-281.5 167,-281.5"/>
<text text-anchor="start" x="175" y="-300.5" font-family="FreeSans" font-size="10.00" fill="#000000">G4IonConstructor::Construct</text>
<text text-anchor="middle" x="247.5" y="-288.5" font-family="FreeSans" font-size="10.00" fill="#000000">Particle</text>
</a>
</g>
</g>
<!-- Node1&#45;&gt;Node34 -->
<g id="edge33" class="edge">
<title>Node1&#45;&gt;Node34</title>
<path fill="none" stroke="#191970" d="M131.2062,-280.8866C139.549,-282.0784 148.2,-283.3143 156.8468,-284.5495"/>
<polygon fill="#191970" stroke="#191970" points="156.5822,-288.0472 166.9767,-285.9967 157.5722,-281.1176 156.5822,-288.0472"/>
</g>
<!-- Node43 -->
<g id="node43" class="node">
<title>Node43</title>
<g id="a_node43"><a xlink:href="../../dd/dc8/classG4BaryonConstructor.html#a5f5e24fd455615f362784720c36047e5" target="_top" xlink:title="G4BaryonConstructor\l::ConstructParticle">
<polygon fill="none" stroke="#000000" points="184.5,-204.5 184.5,-236.5 310.5,-236.5 310.5,-204.5 184.5,-204.5"/>
<text text-anchor="start" x="192.5" y="-223.5" font-family="FreeSans" font-size="10.00" fill="#000000">G4BaryonConstructor</text>
<text text-anchor="middle" x="247.5" y="-211.5" font-family="FreeSans" font-size="10.00" fill="#000000">::ConstructParticle</text>
</a>
</g>
</g>
<!-- Node1&#45;&gt;Node43 -->
<g id="edge42" class="edge">
<title>Node1&#45;&gt;Node43</title>
<path fill="none" stroke="#191970" d="M123.0859,-255.3633C141.3546,-250.244 161.7096,-244.5402 180.5769,-239.2532"/>
<polygon fill="#191970" stroke="#191970" points="181.604,-242.6003 190.2887,-236.5317 179.7152,-235.8599 181.604,-242.6003"/>
</g>
<!-- Node48 -->
<g id="node48" class="node">
<title>Node48</title>
<g id="a_node48"><a xlink:href="../../d7/d9f/classG4ShortLivedConstructor.html#a74161e4ab00b4b47012881232c8e9dde" target="_top" xlink:title="G4ShortLivedConstructor\l::ConstructParticle">
<polygon fill="none" stroke="#000000" points="175.5,-51.5 175.5,-83.5 319.5,-83.5 319.5,-51.5 175.5,-51.5"/>
<text text-anchor="start" x="183.5" y="-70.5" font-family="FreeSans" font-size="10.00" fill="#000000">G4ShortLivedConstructor</text>
<text text-anchor="middle" x="247.5" y="-58.5" font-family="FreeSans" font-size="10.00" fill="#000000">::ConstructParticle</text>
</a>
</g>
</g>
<!-- Node1&#45;&gt;Node48 -->
<g id="edge47" class="edge">
<title>Node1&#45;&gt;Node48</title>
<path fill="none" stroke="#191970" d="M79.7812,-255.4925C111.6647,-219.7549 188.781,-133.3169 226.296,-91.2671"/>
<polygon fill="#191970" stroke="#191970" points="228.9877,-93.5075 233.0333,-83.7155 223.7643,-88.8474 228.9877,-93.5075"/>
</g>
<!-- Node3 -->
<g id="node3" class="node">
<title>Node3</title>
<g id="a_node3"><a xlink:href="../../d8/d9b/classG4MesonConstructor.html#a42434490f1c87e411db05922a4e4ac54" target="_top" xlink:title="G4MesonConstructor\l::ConstructLightMesons">
<polygon fill="none" stroke="#000000" points="377,-1484.5 377,-1516.5 512,-1516.5 512,-1484.5 377,-1484.5"/>
<text text-anchor="start" x="385" y="-1503.5" font-family="FreeSans" font-size="10.00" fill="#000000">G4MesonConstructor</text>
<text text-anchor="middle" x="444.5" y="-1491.5" font-family="FreeSans" font-size="10.00" fill="#000000">::ConstructLightMesons</text>
</a>
</g>
</g>
<!-- Node2&#45;&gt;Node3 -->
<g id="edge2" class="edge">
<title>Node2&#45;&gt;Node3</title>
<path fill="none" stroke="#191970" d="M252.5677,-889.629C279.2347,-974.5034 403.329,-1369.4633 436.3894,-1474.686"/>
<polygon fill="#191970" stroke="#191970" points="433.1292,-1475.9865 439.4658,-1484.4776 439.8074,-1473.8883 433.1292,-1475.9865"/>
</g>
<!-- Node15 -->
<g id="node15" class="node">
<title>Node15</title>
<g id="a_node15"><a xlink:href="../../d8/d9b/classG4MesonConstructor.html#a84d64a06dcb783eb91207ce13b4b2fa0" target="_top" xlink:title="G4MesonConstructor\l::ConstructCharmMesons">
<polygon fill="none" stroke="#000000" points="373,-1024.5 373,-1056.5 516,-1056.5 516,-1024.5 373,-1024.5"/>
<text text-anchor="start" x="381" y="-1043.5" font-family="FreeSans" font-size="10.00" fill="#000000">G4MesonConstructor</text>
<text text-anchor="middle" x="444.5" y="-1031.5" font-family="FreeSans" font-size="10.00" fill="#000000">::ConstructCharmMesons</text>
</a>
</g>
</g>
<!-- Node2&#45;&gt;Node15 -->
<g id="edge14" class="edge">
<title>Node2&#45;&gt;Node15</title>
<path fill="none" stroke="#191970" d="M266.3892,-889.5127C301.5269,-919.2994 377.0351,-983.309 417.5318,-1017.6387"/>
<polygon fill="#191970" stroke="#191970" points="415.4873,-1020.4938 425.3785,-1024.2904 420.0138,-1015.1542 415.4873,-1020.4938"/>
</g>
<!-- Node24 -->
<g id="node24" class="node">
<title>Node24</title>
<g id="a_node24"><a xlink:href="../../d8/d9b/classG4MesonConstructor.html#ae1fcb8aab30b562a05cf432e4d09d3db" target="_top" xlink:title="G4MesonConstructor\l::ConstructBottomMesons">
<polygon fill="none" stroke="#000000" points="371,-665.5 371,-697.5 518,-697.5 518,-665.5 371,-665.5"/>
<text text-anchor="start" x="379" y="-684.5" font-family="FreeSans" font-size="10.00" fill="#000000">G4MesonConstructor</text>
<text text-anchor="middle" x="444.5" y="-672.5" font-family="FreeSans" font-size="10.00" fill="#000000">::ConstructBottomMesons</text>
</a>
</g>
</g>
<!-- Node2&#45;&gt;Node24 -->
<g id="edge23" class="edge">
<title>Node2&#45;&gt;Node24</title>
<path fill="none" stroke="#191970" d="M263.9573,-857.4604C298.7943,-823.5076 380.1079,-744.2578 420.6448,-704.7497"/>
<polygon fill="#191970" stroke="#191970" points="423.2325,-707.1151 427.951,-697.6289 418.3468,-702.1021 423.2325,-707.1151"/>
</g>
<!-- Node4 -->
<g id="node4" class="node">
<title>Node4</title>
<g id="a_node4"><a xlink:href="../../d0/dc2/classG4PionPlus.html#aa5dee945dcf2c16926bf421209774b60" target="_top" xlink:title="G4PionPlus::PionPlusDefinition">
<polygon fill="none" stroke="#ff0000" points="574,-1705.5 574,-1725.5 744,-1725.5 744,-1705.5 574,-1705.5"/>
<text text-anchor="middle" x="659" y="-1712.5" font-family="FreeSans" font-size="10.00" fill="#000000">G4PionPlus::PionPlusDefinition</text>
</a>
</g>
</g>
<!-- Node3&#45;&gt;Node4 -->
<g id="edge3" class="edge">
<title>Node3&#45;&gt;Node4</title>
<path fill="none" stroke="#191970" d="M449.0471,-1516.5601C460.7015,-1554.5857 495.4358,-1650.3818 561,-1696.5 563.3921,-1698.1826 565.8946,-1699.7259 568.4826,-1701.141"/>
<polygon fill="#191970" stroke="#191970" points="567.0421,-1704.3316 577.5751,-1705.4744 570.0537,-1698.0125 567.0421,-1704.3316"/>
</g>
<!-- Node5 -->
<g id="node5" class="node">
<title>Node5</title>
<g id="a_node5"><a xlink:href="../../d8/d83/classG4PionMinus.html#a86d1fa247ac084a34349a2be73398541" target="_top" xlink:title="G4PionMinus::PionMinusDefinition">
<polygon fill="none" stroke="#ff0000" points="565,-1666.5 565,-1686.5 753,-1686.5 753,-1666.5 565,-1666.5"/>
<text text-anchor="middle" x="659" y="-1673.5" font-family="FreeSans" font-size="10.00" fill="#000000">G4PionMinus::PionMinusDefinition</text>
</a>
</g>
</g>
<!-- Node3&#45;&gt;Node5 -->
<g id="edge4" class="edge">
<title>Node3&#45;&gt;Node5</title>
<path fill="none" stroke="#191970" d="M451.5363,-1516.7371C466.5177,-1549.2267 504.849,-1622.143 561,-1657.5 563.9491,-1659.357 567.0397,-1661.0395 570.2312,-1662.5635"/>
<polygon fill="#191970" stroke="#191970" points="568.8848,-1665.7941 579.4592,-1666.4517 571.6029,-1659.3434 568.8848,-1665.7941"/>
</g>
<!-- Node6 -->
<g id="node6" class="node">
<title>Node6</title>
<g id="a_node6"><a xlink:href="../../dc/d7f/classG4PionZero.html#a83174f3e0a2a655461386fc2f6a12c7f" target="_top" xlink:title="G4PionZero::PionZeroDefinition">
<polygon fill="none" stroke="#ff0000" points="571.5,-1627.5 571.5,-1647.5 746.5,-1647.5 746.5,-1627.5 571.5,-1627.5"/>
<text text-anchor="middle" x="659" y="-1634.5" font-family="FreeSans" font-size="10.00" fill="#000000">G4PionZero::PionZeroDefinition</text>
</a>
</g>
</g>
<!-- Node3&#45;&gt;Node6 -->
<g id="edge5" class="edge">
<title>Node3&#45;&gt;Node6</title>
<path fill="none" stroke="#191970" d="M455.5786,-1516.8931C474.1174,-1542.9306 514.05,-1593.3579 561,-1618.5 564.9305,-1620.6048 569.0607,-1622.4785 573.3108,-1624.1462"/>
<polygon fill="#191970" stroke="#191970" points="572.1808,-1627.4588 582.7757,-1627.4778 574.5051,-1620.856 572.1808,-1627.4588"/>
</g>
<!-- Node7 -->
<g id="node7" class="node">
<title>Node7</title>
<g id="a_node7"><a xlink:href="../../d5/d9a/classG4Eta.html#a55130b2fa3f714a4c3786d81276c1c13" target="_top" xlink:title="G4Eta::EtaDefinition">
<polygon fill="none" stroke="#ff0000" points="599.5,-1588.5 599.5,-1608.5 718.5,-1608.5 718.5,-1588.5 599.5,-1588.5"/>
<text text-anchor="middle" x="659" y="-1595.5" font-family="FreeSans" font-size="10.00" fill="#000000">G4Eta::EtaDefinition</text>
</a>
</g>
</g>
<!-- Node3&#45;&gt;Node7 -->
<g id="edge6" class="edge">
<title>Node3&#45;&gt;Node7</title>
<path fill="none" stroke="#191970" d="M462.8939,-1516.5043C484.7617,-1534.6503 523.0859,-1563.7513 561,-1579.5 570.0027,-1583.2395 579.7806,-1586.2531 589.5583,-1588.679"/>
<polygon fill="#191970" stroke="#191970" points="588.778,-1592.0909 599.3073,-1590.9143 590.3425,-1585.2679 588.778,-1592.0909"/>
</g>
<!-- Node8 -->
<g id="node8" class="node">
<title>Node8</title>
<g id="a_node8"><a xlink:href="../../da/d1f/classG4EtaPrime.html#a3fb9ab92f57721fb7a423028acbc9411" target="_top" xlink:title="G4EtaPrime::EtaPrimeDefinition">
<polygon fill="none" stroke="#ff0000" points="570.5,-1549.5 570.5,-1569.5 747.5,-1569.5 747.5,-1549.5 570.5,-1549.5"/>
<text text-anchor="middle" x="659" y="-1556.5" font-family="FreeSans" font-size="10.00" fill="#000000">G4EtaPrime::EtaPrimeDefinition</text>
</a>
</g>
</g>
<!-- Node3&#45;&gt;Node8 -->
<g id="edge7" class="edge">
<title>Node3&#45;&gt;Node8</title>
<path fill="none" stroke="#191970" d="M486.6681,-1516.566C508.608,-1524.5185 536.0017,-1533.8199 561,-1540.5 570.4181,-1543.0167 580.4287,-1545.3447 590.3169,-1547.4455"/>
<polygon fill="#191970" stroke="#191970" points="589.6371,-1550.8789 600.1378,-1549.4691 591.0499,-1544.0229 589.6371,-1550.8789"/>
</g>
<!-- Node9 -->
<g id="node9" class="node">
<title>Node9</title>
<g id="a_node9"><a xlink:href="../../d8/d80/classG4KaonPlus.html#a5251d30dec89bdbcbb5b9942c40a5408" target="_top" xlink:title="G4KaonPlus::KaonPlusDefinition">
<polygon fill="none" stroke="#ff0000" points="570,-1510.5 570,-1530.5 748,-1530.5 748,-1510.5 570,-1510.5"/>
<text text-anchor="middle" x="659" y="-1517.5" font-family="FreeSans" font-size="10.00" fill="#000000">G4KaonPlus::KaonPlusDefinition</text>
</a>
</g>
</g>
<!-- Node3&#45;&gt;Node9 -->
<g id="edge8" class="edge">
<title>Node3&#45;&gt;Node9</title>
<path fill="none" stroke="#191970" d="M512.0747,-1506.8007C527.2272,-1508.2135 543.6097,-1509.741 559.7492,-1511.2458"/>
<polygon fill="#191970" stroke="#191970" points="559.472,-1514.7351 569.7538,-1512.1787 560.1219,-1507.7653 559.472,-1514.7351"/>
</g>
<!-- Node10 -->
<g id="node10" class="node">
<title>Node10</title>
<g id="a_node10"><a xlink:href="../../d4/db6/classG4KaonMinus.html#a3b00da9c7be04067eccdecb4b5cc5890" target="_top" xlink:title="G4KaonMinus::KaonMinusDefinition">
<polygon fill="none" stroke="#ff0000" points="561,-1471.5 561,-1491.5 757,-1491.5 757,-1471.5 561,-1471.5"/>
<text text-anchor="middle" x="659" y="-1478.5" font-family="FreeSans" font-size="10.00" fill="#000000">G4KaonMinus::KaonMinusDefinition</text>
</a>
</g>
</g>
<!-- Node3&#45;&gt;Node10 -->
<g id="edge9" class="edge">
<title>Node3&#45;&gt;Node10</title>
<path fill="none" stroke="#191970" d="M512.0747,-1494.5144C524.4047,-1493.4222 537.5491,-1492.2579 550.7144,-1491.0917"/>
<polygon fill="#191970" stroke="#191970" points="551.1206,-1494.5695 560.7728,-1490.2008 550.5029,-1487.5968 551.1206,-1494.5695"/>
</g>
<!-- Node11 -->
<g id="node11" class="node">
<title>Node11</title>
<g id="a_node11"><a xlink:href="../../d1/dd9/classG4KaonZero.html#ad55a6925183777f4194636fdf38b4881" target="_top" xlink:title="G4KaonZero::KaonZeroDefinition">
<polygon fill="none" stroke="#ff0000" points="567.5,-1432.5 567.5,-1452.5 750.5,-1452.5 750.5,-1432.5 567.5,-1432.5"/>
<text text-anchor="middle" x="659" y="-1439.5" font-family="FreeSans" font-size="10.00" fill="#000000">G4KaonZero::KaonZeroDefinition</text>
</a>
</g>
</g>
<!-- Node3&#45;&gt;Node11 -->
<g id="edge10" class="edge">
<title>Node3&#45;&gt;Node11</title>
<path fill="none" stroke="#191970" d="M489.5102,-1484.492C510.9835,-1477.1972 537.1404,-1468.804 561,-1462.5 571.6686,-1459.6813 583.0792,-1457.0295 594.2061,-1454.6356"/>
<polygon fill="#191970" stroke="#191970" points="595.2485,-1457.9931 604.3155,-1452.5122 593.8096,-1451.1426 595.2485,-1457.9931"/>
</g>
<!-- Node12 -->
<g id="node12" class="node">
<title>Node12</title>
<g id="a_node12"><a xlink:href="../../d7/d22/classG4AntiKaonZero.html#a5268370d13354179ef61bcf9caa3e4e9" target="_top" xlink:title="G4AntiKaonZero::AntiKaon\lZeroDefinition">
<polygon fill="none" stroke="#ff0000" points="583.5,-1381.5 583.5,-1413.5 734.5,-1413.5 734.5,-1381.5 583.5,-1381.5"/>
<text text-anchor="start" x="591.5" y="-1400.5" font-family="FreeSans" font-size="10.00" fill="#000000">G4AntiKaonZero::AntiKaon</text>
<text text-anchor="middle" x="659" y="-1388.5" font-family="FreeSans" font-size="10.00" fill="#000000">ZeroDefinition</text>
</a>
</g>
</g>
<!-- Node3&#45;&gt;Node12 -->
<g id="edge11" class="edge">
<title>Node3&#45;&gt;Node12</title>
<path fill="none" stroke="#191970" d="M464.3609,-1484.435C486.6551,-1467.1276 524.5012,-1439.873 561,-1423.5 566.3502,-1421.1 571.9674,-1418.8843 577.6915,-1416.8456"/>
<polygon fill="#191970" stroke="#191970" points="579.0354,-1420.0864 587.3975,-1413.5806 576.8035,-1413.4517 579.0354,-1420.0864"/>
</g>
<!-- Node13 -->
<g id="node13" class="node">
<title>Node13</title>
<g id="a_node13"><a xlink:href="../../d6/d08/classG4KaonZeroLong.html#a8af502912d646678315d647cdf6d6bf8" target="_top" xlink:title="G4KaonZeroLong::KaonZero\lLongDefinition">
<polygon fill="none" stroke="#ff0000" points="579.5,-1330.5 579.5,-1362.5 738.5,-1362.5 738.5,-1330.5 579.5,-1330.5"/>
<text text-anchor="start" x="587.5" y="-1349.5" font-family="FreeSans" font-size="10.00" fill="#000000">G4KaonZeroLong::KaonZero</text>
<text text-anchor="middle" x="659" y="-1337.5" font-family="FreeSans" font-size="10.00" fill="#000000">LongDefinition</text>
</a>
</g>
</g>
<!-- Node3&#45;&gt;Node13 -->
<g id="edge12" class="edge">
<title>Node3&#45;&gt;Node13</title>
<path fill="none" stroke="#191970" d="M454.573,-1484.4119C472.5212,-1457.1116 512.7184,-1401.8277 561,-1372.5 564.4555,-1370.401 568.0799,-1368.4694 571.8149,-1366.6919"/>
<polygon fill="#191970" stroke="#191970" points="573.5105,-1369.7717 581.2942,-1362.5839 570.727,-1363.3489 573.5105,-1369.7717"/>
</g>
<!-- Node14 -->
<g id="node14" class="node">
<title>Node14</title>
<g id="a_node14"><a xlink:href="../../d8/dcc/classG4KaonZeroShort.html#a3321cf0f3055f335428030b776d82b99" target="_top" xlink:title="G4KaonZeroShort::KaonZero\lShortDefinition">
<polygon fill="none" stroke="#ff0000" points="578,-1279.5 578,-1311.5 740,-1311.5 740,-1279.5 578,-1279.5"/>
<text text-anchor="start" x="586" y="-1298.5" font-family="FreeSans" font-size="10.00" fill="#000000">G4KaonZeroShort::KaonZero</text>
<text text-anchor="middle" x="659" y="-1286.5" font-family="FreeSans" font-size="10.00" fill="#000000">ShortDefinition</text>
</a>
</g>
</g>
<!-- Node3&#45;&gt;Node14 -->
<g id="edge13" class="edge">
<title>Node3&#45;&gt;Node14</title>
<path fill="none" stroke="#191970" d="M450.3654,-1484.2645C463.9872,-1448.9304 501.2304,-1364.7668 561,-1321.5 563.5554,-1319.6502 566.2333,-1317.9319 569.0041,-1316.3358"/>
<polygon fill="#191970" stroke="#191970" points="570.8391,-1319.328 578.1324,-1311.643 567.6386,-1313.1025 570.8391,-1319.328"/>
</g>
<!-- Node16 -->
<g id="node16" class="node">
<title>Node16</title>
<g id="a_node16"><a xlink:href="../../d7/d18/classG4DMesonPlus.html#ab2e9565ba87fef29ae081f2bb2ef5a0a" target="_top" xlink:title="G4DMesonPlus::DMesonPlus\lDefinition">
<polygon fill="none" stroke="#ff0000" points="579,-1228.5 579,-1260.5 739,-1260.5 739,-1228.5 579,-1228.5"/>
<text text-anchor="start" x="587" y="-1247.5" font-family="FreeSans" font-size="10.00" fill="#000000">G4DMesonPlus::DMesonPlus</text>
<text text-anchor="middle" x="659" y="-1235.5" font-family="FreeSans" font-size="10.00" fill="#000000">Definition</text>
</a>
</g>
</g>
<!-- Node15&#45;&gt;Node16 -->
<g id="edge15" class="edge">
<title>Node15&#45;&gt;Node16</title>
<path fill="none" stroke="#191970" d="M450.233,-1056.512C463.709,-1091.773 500.8736,-1176.4113 561,-1219.5 563.7117,-1221.4433 566.5608,-1223.2359 569.5118,-1224.8894"/>
<polygon fill="#191970" stroke="#191970" points="568.1251,-1228.109 578.6355,-1229.4443 571.2518,-1221.8461 568.1251,-1228.109"/>
</g>
<!-- Node17 -->
<g id="node17" class="node">
<title>Node17</title>
<g id="a_node17"><a xlink:href="../../d7/dfe/classG4DMesonMinus.html#a8f6d122a6a4a4ead837c76ef38aa0dfa" target="_top" xlink:title="G4DMesonMinus::DMesonMinus\lDefinition">
<polygon fill="none" stroke="#ff0000" points="570,-1177.5 570,-1209.5 748,-1209.5 748,-1177.5 570,-1177.5"/>
<text text-anchor="start" x="578" y="-1196.5" font-family="FreeSans" font-size="10.00" fill="#000000">G4DMesonMinus::DMesonMinus</text>
<text text-anchor="middle" x="659" y="-1184.5" font-family="FreeSans" font-size="10.00" fill="#000000">Definition</text>
</a>
</g>
</g>
<!-- Node15&#45;&gt;Node17 -->
<g id="edge16" class="edge">
<title>Node15&#45;&gt;Node17</title>
<path fill="none" stroke="#191970" d="M454.5434,-1056.637C472.447,-1084.0111 512.5788,-1139.4033 561,-1168.5 563.8596,-1170.2184 566.8345,-1171.8193 569.892,-1173.3109"/>
<polygon fill="#191970" stroke="#191970" points="568.7179,-1176.6187 579.2788,-1177.4655 571.551,-1170.2176 568.7179,-1176.6187"/>
</g>
<!-- Node18 -->
<g id="node18" class="node">
<title>Node18</title>
<g id="a_node18"><a xlink:href="../../da/dde/classG4DMesonZero.html#aa1f40da0c2b4bd78d292a36c3f988f41" target="_top" xlink:title="G4DMesonZero::DMesonZero\lDefinition">
<polygon fill="none" stroke="#ff0000" points="576.5,-1126.5 576.5,-1158.5 741.5,-1158.5 741.5,-1126.5 576.5,-1126.5"/>
<text text-anchor="start" x="584.5" y="-1145.5" font-family="FreeSans" font-size="10.00" fill="#000000">G4DMesonZero::DMesonZero</text>
<text text-anchor="middle" x="659" y="-1133.5" font-family="FreeSans" font-size="10.00" fill="#000000">Definition</text>
</a>
</g>
</g>
<!-- Node15&#45;&gt;Node18 -->
<g id="edge17" class="edge">
<title>Node15&#45;&gt;Node18</title>
<path fill="none" stroke="#191970" d="M464.3314,-1056.6312C486.5998,-1073.9965 524.4233,-1101.3016 561,-1117.5 565.6471,-1119.558 570.4962,-1121.4703 575.4422,-1123.2434"/>
<polygon fill="#191970" stroke="#191970" points="574.4514,-1126.6029 585.0455,-1126.4835 576.6892,-1119.9702 574.4514,-1126.6029"/>
</g>
<!-- Node19 -->
<g id="node19" class="node">
<title>Node19</title>
<g id="a_node19"><a xlink:href="../../dd/d55/classG4AntiDMesonZero.html#a6f7bf9b1a18c6e77655279a0c534db6e" target="_top" xlink:title="G4AntiDMesonZero::AntiDMeson\lZeroDefinition">
<polygon fill="none" stroke="#ff0000" points="568,-1075.5 568,-1107.5 750,-1107.5 750,-1075.5 568,-1075.5"/>
<text text-anchor="start" x="576" y="-1094.5" font-family="FreeSans" font-size="10.00" fill="#000000">G4AntiDMesonZero::AntiDMeson</text>
<text text-anchor="middle" x="659" y="-1082.5" font-family="FreeSans" font-size="10.00" fill="#000000">ZeroDefinition</text>
</a>
</g>
</g>
<!-- Node15&#45;&gt;Node19 -->
<g id="edge18" class="edge">
<title>Node15&#45;&gt;Node19</title>
<path fill="none" stroke="#191970" d="M512.0747,-1056.5667C534.1108,-1061.8061 558.7482,-1067.6639 581.4566,-1073.0631"/>
<polygon fill="#191970" stroke="#191970" points="580.8581,-1076.5183 591.3965,-1075.4264 582.4774,-1069.7082 580.8581,-1076.5183"/>
</g>
<!-- Node20 -->
<g id="node20" class="node">
<title>Node20</title>
<g id="a_node20"><a xlink:href="../../d7/d86/classG4DsMesonPlus.html#aa6f7f7d473a75b1215c262af391f0643" target="_top" xlink:title="G4DsMesonPlus::DsMesonPlus\lDefinition">
<polygon fill="none" stroke="#ff0000" points="574,-1024.5 574,-1056.5 744,-1056.5 744,-1024.5 574,-1024.5"/>
<text text-anchor="start" x="582" y="-1043.5" font-family="FreeSans" font-size="10.00" fill="#000000">G4DsMesonPlus::DsMesonPlus</text>
<text text-anchor="middle" x="659" y="-1031.5" font-family="FreeSans" font-size="10.00" fill="#000000">Definition</text>
</a>
</g>
</g>
<!-- Node15&#45;&gt;Node20 -->
<g id="edge19" class="edge">
<title>Node15&#45;&gt;Node20</title>
<path fill="none" stroke="#191970" d="M516.2236,-1040.5C531.4094,-1040.5 547.6664,-1040.5 563.5722,-1040.5"/>
<polygon fill="#191970" stroke="#191970" points="563.9592,-1044.0001 573.9592,-1040.5 563.9591,-1037.0001 563.9592,-1044.0001"/>
</g>
<!-- Node21 -->
<g id="node21" class="node">
<title>Node21</title>
<g id="a_node21"><a xlink:href="../../db/d20/classG4DsMesonMinus.html#a16c0c31fa25034d694896ff0778c112b" target="_top" xlink:title="G4DsMesonMinus::DsMesonMinus\lDefinition">
<polygon fill="none" stroke="#ff0000" points="565,-973.5 565,-1005.5 753,-1005.5 753,-973.5 565,-973.5"/>
<text text-anchor="start" x="573" y="-992.5" font-family="FreeSans" font-size="10.00" fill="#000000">G4DsMesonMinus::DsMesonMinus</text>
<text text-anchor="middle" x="659" y="-980.5" font-family="FreeSans" font-size="10.00" fill="#000000">Definition</text>
</a>
</g>
</g>
<!-- Node15&#45;&gt;Node21 -->
<g id="edge20" class="edge">
<title>Node15&#45;&gt;Node21</title>
<path fill="none" stroke="#191970" d="M512.0747,-1024.4333C534.1108,-1019.1939 558.7482,-1013.3361 581.4566,-1007.9369"/>
<polygon fill="#191970" stroke="#191970" points="582.4774,-1011.2918 591.3965,-1005.5736 580.8581,-1004.4817 582.4774,-1011.2918"/>
</g>
<!-- Node22 -->
<g id="node22" class="node">
<title>Node22</title>
<g id="a_node22"><a xlink:href="../../db/df3/classG4Etac.html#a3ba473820ba3f831a75f1bab0cbef855" target="_top" xlink:title="G4Etac::EtacDefinition">
<polygon fill="none" stroke="#ff0000" points="594,-934.5 594,-954.5 724,-954.5 724,-934.5 594,-934.5"/>
<text text-anchor="middle" x="659" y="-941.5" font-family="FreeSans" font-size="10.00" fill="#000000">G4Etac::EtacDefinition</text>
</a>
</g>
</g>
<!-- Node15&#45;&gt;Node22 -->
<g id="edge21" class="edge">
<title>Node15&#45;&gt;Node22</title>
<path fill="none" stroke="#191970" d="M464.2245,-1024.2557C486.3993,-1006.8334 524.1414,-979.6369 561,-964.5 568.3657,-961.4751 576.237,-958.8922 584.1964,-956.6899"/>
<polygon fill="#191970" stroke="#191970" points="585.1081,-960.0694 593.9208,-954.1883 583.3641,-953.2901 585.1081,-960.0694"/>
</g>
<!-- Node23 -->
<g id="node23" class="node">
<title>Node23</title>
<g id="a_node23"><a xlink:href="../../d9/de5/classG4JPsi.html#a6d71a577749832ad682d40572478b9ef" target="_top" xlink:title="G4JPsi::JPsiDefinition">
<polygon fill="none" stroke="#ff0000" points="599,-895.5 599,-915.5 719,-915.5 719,-895.5 599,-895.5"/>
<text text-anchor="middle" x="659" y="-902.5" font-family="FreeSans" font-size="10.00" fill="#000000">G4JPsi::JPsiDefinition</text>
</a>
</g>
</g>
<!-- Node15&#45;&gt;Node23 -->
<g id="edge22" class="edge">
<title>Node15&#45;&gt;Node23</title>
<path fill="none" stroke="#191970" d="M456.0139,-1024.1683C474.8641,-998.7555 514.8634,-950.1157 561,-925.5 569.6752,-920.8715 579.3073,-917.312 589.0486,-914.5751"/>
<polygon fill="#191970" stroke="#191970" points="589.9622,-917.9543 598.7949,-912.1033 588.2414,-911.1691 589.9622,-917.9543"/>
</g>
<!-- Node25 -->
<g id="node25" class="node">
<title>Node25</title>
<g id="a_node25"><a xlink:href="../../dc/d9a/classG4BMesonPlus.html#a0defb5faf6aed335107bff838816351a" target="_top" xlink:title="G4BMesonPlus::BMesonPlus\lDefinition">
<polygon fill="none" stroke="#ff0000" points="580,-844.5 580,-876.5 738,-876.5 738,-844.5 580,-844.5"/>
<text text-anchor="start" x="588" y="-863.5" font-family="FreeSans" font-size="10.00" fill="#000000">G4BMesonPlus::BMesonPlus</text>
<text text-anchor="middle" x="659" y="-851.5" font-family="FreeSans" font-size="10.00" fill="#000000">Definition</text>
</a>
</g>
</g>
<!-- Node24&#45;&gt;Node25 -->
<g id="edge24" class="edge">
<title>Node24&#45;&gt;Node25</title>
<path fill="none" stroke="#191970" d="M452.158,-697.8897C467.8578,-729.6268 506.8299,-799.5069 561,-835.5 564.1078,-837.5649 567.3748,-839.4593 570.7534,-841.1972"/>
<polygon fill="#191970" stroke="#191970" points="569.3787,-844.4177 579.9239,-845.4418 572.319,-838.0651 569.3787,-844.4177"/>
</g>
<!-- Node26 -->
<g id="node26" class="node">
<title>Node26</title>
<g id="a_node26"><a xlink:href="../../db/d0f/classG4BMesonMinus.html#afd472d8e9121a3704bbd208eab55f030" target="_top" xlink:title="G4BMesonMinus::BMesonMinus\lDefinition">
<polygon fill="none" stroke="#ff0000" points="571,-793.5 571,-825.5 747,-825.5 747,-793.5 571,-793.5"/>
<text text-anchor="start" x="579" y="-812.5" font-family="FreeSans" font-size="10.00" fill="#000000">G4BMesonMinus::BMesonMinus</text>
<text text-anchor="middle" x="659" y="-800.5" font-family="FreeSans" font-size="10.00" fill="#000000">Definition</text>
</a>
</g>
</g>
<!-- Node24&#45;&gt;Node26 -->
<g id="edge25" class="edge">
<title>Node24&#45;&gt;Node26</title>
<path fill="none" stroke="#191970" d="M458.1871,-697.7131C478.35,-720.5416 518.2906,-761.8905 561,-784.5 564.522,-786.3645 568.1897,-788.0948 571.9496,-789.7002"/>
<polygon fill="#191970" stroke="#191970" points="570.8681,-793.0358 581.4553,-793.4385 573.4301,-786.5214 570.8681,-793.0358"/>
</g>
<!-- Node27 -->
<g id="node27" class="node">
<title>Node27</title>
<g id="a_node27"><a xlink:href="../../de/d25/classG4BMesonZero.html#a2edb70c0a43a7ba58e5181081f6844f3" target="_top" xlink:title="G4BMesonZero::BMesonZero\lDefinition">
<polygon fill="none" stroke="#ff0000" points="577.5,-742.5 577.5,-774.5 740.5,-774.5 740.5,-742.5 577.5,-742.5"/>
<text text-anchor="start" x="585.5" y="-761.5" font-family="FreeSans" font-size="10.00" fill="#000000">G4BMesonZero::BMesonZero</text>
<text text-anchor="middle" x="659" y="-749.5" font-family="FreeSans" font-size="10.00" fill="#000000">Definition</text>
</a>
</g>
</g>
<!-- Node24&#45;&gt;Node27 -->
<g id="edge26" class="edge">
<title>Node24&#45;&gt;Node27</title>
<path fill="none" stroke="#191970" d="M476.5428,-697.5786C499.6168,-708.7147 531.713,-723.3113 561,-733.5 567.2397,-735.6707 573.7621,-737.7434 580.3494,-739.7"/>
<polygon fill="#191970" stroke="#191970" points="579.4438,-743.0813 590.0217,-742.4814 581.3784,-736.354 579.4438,-743.0813"/>
</g>
<!-- Node28 -->
<g id="node28" class="node">
<title>Node28</title>
<g id="a_node28"><a xlink:href="../../db/df9/classG4AntiBMesonZero.html#a9ff3c5a7dff5e718d0d45de5380366fa" target="_top" xlink:title="G4AntiBMesonZero::AntiBMeson\lZeroDefinition">
<polygon fill="none" stroke="#ff0000" points="569,-691.5 569,-723.5 749,-723.5 749,-691.5 569,-691.5"/>
<text text-anchor="start" x="577" y="-710.5" font-family="FreeSans" font-size="10.00" fill="#000000">G4AntiBMesonZero::AntiBMeson</text>
<text text-anchor="middle" x="659" y="-698.5" font-family="FreeSans" font-size="10.00" fill="#000000">ZeroDefinition</text>
</a>
</g>
</g>
<!-- Node24&#45;&gt;Node28 -->
<g id="edge27" class="edge">
<title>Node24&#45;&gt;Node28</title>
<path fill="none" stroke="#191970" d="M518.0186,-690.4113C531.1932,-692.0083 545.1238,-693.6968 558.8966,-695.3663"/>
<polygon fill="#191970" stroke="#191970" points="558.5358,-698.8481 568.8843,-696.5769 559.3782,-691.8989 558.5358,-698.8481"/>
</g>
<!-- Node29 -->
<g id="node29" class="node">
<title>Node29</title>
<g id="a_node29"><a xlink:href="../../d7/de3/classG4BsMesonZero.html#ae21124546af453215ab42e236f83205f" target="_top" xlink:title="G4BsMesonZero::BsMesonZero\lDefinition">
<polygon fill="none" stroke="#ff0000" points="572,-640.5 572,-672.5 746,-672.5 746,-640.5 572,-640.5"/>
<text text-anchor="start" x="580" y="-659.5" font-family="FreeSans" font-size="10.00" fill="#000000">G4BsMesonZero::BsMesonZero</text>
<text text-anchor="middle" x="659" y="-647.5" font-family="FreeSans" font-size="10.00" fill="#000000">Definition</text>
</a>
</g>
</g>
<!-- Node24&#45;&gt;Node29 -->
<g id="edge28" class="edge">
<title>Node24&#45;&gt;Node29</title>
<path fill="none" stroke="#191970" d="M518.0186,-672.9314C532.1094,-671.2891 547.0651,-669.546 561.7674,-667.8325"/>
<polygon fill="#191970" stroke="#191970" points="562.3642,-671.2867 571.8918,-666.6525 561.5538,-664.3338 562.3642,-671.2867"/>
</g>
<!-- Node30 -->
<g id="node30" class="node">
<title>Node30</title>
<g id="a_node30"><a xlink:href="../../d2/d9d/classG4AntiBsMesonZero.html#a60bf3e886da5ee5a3864d97c51e9e6f0" target="_top" xlink:title="G4AntiBsMesonZero::\lAntiBsMesonZeroDefinition">
<polygon fill="none" stroke="#ff0000" points="582,-589.5 582,-621.5 736,-621.5 736,-589.5 582,-589.5"/>
<text text-anchor="start" x="590" y="-608.5" font-family="FreeSans" font-size="10.00" fill="#000000">G4AntiBsMesonZero::</text>
<text text-anchor="middle" x="659" y="-596.5" font-family="FreeSans" font-size="10.00" fill="#000000">AntiBsMesonZeroDefinition</text>
</a>
</g>
</g>
<!-- Node24&#45;&gt;Node30 -->
<g id="edge29" class="edge">
<title>Node24&#45;&gt;Node30</title>
<path fill="none" stroke="#191970" d="M478.3918,-665.3946C501.3651,-654.867 532.6009,-641.3027 561,-631.5 568.2536,-628.9962 575.8786,-626.5912 583.5382,-624.324"/>
<polygon fill="#191970" stroke="#191970" points="584.5945,-627.6621 593.2335,-621.5287 582.6553,-620.936 584.5945,-627.6621"/>
</g>
<!-- Node31 -->
<g id="node31" class="node">
<title>Node31</title>
<g id="a_node31"><a xlink:href="../../d1/d2e/classG4BcMesonPlus.html#ac09519bf25d30679f96d4a594f0d299d" target="_top" xlink:title="G4BcMesonPlus::BcMesonPlus\lDefinition">
<polygon fill="none" stroke="#ff0000" points="574.5,-538.5 574.5,-570.5 743.5,-570.5 743.5,-538.5 574.5,-538.5"/>
<text text-anchor="start" x="582.5" y="-557.5" font-family="FreeSans" font-size="10.00" fill="#000000">G4BcMesonPlus::BcMesonPlus</text>
<text text-anchor="middle" x="659" y="-545.5" font-family="FreeSans" font-size="10.00" fill="#000000">Definition</text>
</a>
</g>
</g>
<!-- Node24&#45;&gt;Node31 -->
<g id="edge30" class="edge">
<title>Node24&#45;&gt;Node31</title>
<path fill="none" stroke="#191970" d="M458.6266,-665.2925C479.0145,-642.9119 518.8872,-602.7893 561,-580.5 565.2954,-578.2266 569.8042,-576.1411 574.4303,-574.2294"/>
<polygon fill="#191970" stroke="#191970" points="575.971,-577.3875 584.0602,-570.5452 573.4697,-570.8496 575.971,-577.3875"/>
</g>
<!-- Node32 -->
<g id="node32" class="node">
<title>Node32</title>
<g id="a_node32"><a xlink:href="../../de/d00/classG4BcMesonMinus.html#ae4afd11bbc4d952c836b044be87e0a37" target="_top" xlink:title="G4BcMesonMinus::BcMesonMinus\lDefinition">
<polygon fill="none" stroke="#ff0000" points="565,-487.5 565,-519.5 753,-519.5 753,-487.5 565,-487.5"/>
<text text-anchor="start" x="573" y="-506.5" font-family="FreeSans" font-size="10.00" fill="#000000">G4BcMesonMinus::BcMesonMinus</text>
<text text-anchor="middle" x="659" y="-494.5" font-family="FreeSans" font-size="10.00" fill="#000000">Definition</text>
</a>
</g>
</g>
<!-- Node24&#45;&gt;Node32 -->
<g id="edge31" class="edge">
<title>Node24&#45;&gt;Node32</title>
<path fill="none" stroke="#191970" d="M452.2468,-665.3686C468.1022,-634.1234 507.3345,-565.2839 561,-529.5 563.9451,-527.5362 567.0322,-525.7206 570.2208,-524.0418"/>
<polygon fill="#191970" stroke="#191970" points="571.9095,-527.1146 579.4422,-519.6641 568.9074,-520.791 571.9095,-527.1146"/>
</g>
<!-- Node33 -->
<g id="node33" class="node">
<title>Node33</title>
<g id="a_node33"><a xlink:href="../../dc/d48/classG4Upsilon.html#a0279f27fea153bb3697dbebee8b021f5" target="_top" xlink:title="G4Upsilon::UpsilonDefinition">
<polygon fill="none" stroke="#ff0000" points="578.5,-448.5 578.5,-468.5 739.5,-468.5 739.5,-448.5 578.5,-448.5"/>
<text text-anchor="middle" x="659" y="-455.5" font-family="FreeSans" font-size="10.00" fill="#000000">G4Upsilon::UpsilonDefinition</text>
</a>
</g>
</g>
<!-- Node24&#45;&gt;Node33 -->
<g id="edge32" class="edge">
<title>Node24&#45;&gt;Node33</title>
<path fill="none" stroke="#191970" d="M448.7318,-665.4982C459.8898,-626.6354 493.9676,-526.9195 561,-478.5 563.9033,-476.4029 566.9748,-474.5139 570.1687,-472.813"/>
<polygon fill="#191970" stroke="#191970" points="571.8592,-475.8871 579.4555,-468.5014 568.9114,-469.538 571.8592,-475.8871"/>
</g>
<!-- Node35 -->
<g id="node35" class="node">
<title>Node35</title>
<g id="a_node35"><a xlink:href="../../d3/d46/classG4IonConstructor.html#a2dcb8c57b28c77b2d52c74a2c3dd31a3" target="_top" xlink:title="G4IonConstructor::Construct\lLightIons">
<polygon fill="none" stroke="#ff0000" points="364,-306.5 364,-338.5 525,-338.5 525,-306.5 364,-306.5"/>
<text text-anchor="start" x="372" y="-325.5" font-family="FreeSans" font-size="10.00" fill="#000000">G4IonConstructor::Construct</text>
<text text-anchor="middle" x="444.5" y="-313.5" font-family="FreeSans" font-size="10.00" fill="#000000">LightIons</text>
</a>
</g>
</g>
<!-- Node34&#45;&gt;Node35 -->
<g id="edge34" class="edge">
<title>Node34&#45;&gt;Node35</title>
<path fill="none" stroke="#191970" d="M328.1959,-307.7406C336.6733,-308.8164 345.3327,-309.9153 353.9115,-311.004"/>
<polygon fill="#191970" stroke="#191970" points="353.5685,-314.4885 363.9296,-312.2753 354.4499,-307.5442 353.5685,-314.4885"/>
</g>
<!-- Node36 -->
<g id="node36" class="node">
<title>Node36</title>
<g id="a_node36"><a xlink:href="../../dc/d9e/classG4Alpha.html#a2a401f82777cf6cbdf677a3b62e89f68" target="_top" xlink:title="G4Alpha::AlphaDefinition">
<polygon fill="none" stroke="#ff0000" points="587,-409.5 587,-429.5 731,-429.5 731,-409.5 587,-409.5"/>
<text text-anchor="middle" x="659" y="-416.5" font-family="FreeSans" font-size="10.00" fill="#000000">G4Alpha::AlphaDefinition</text>
</a>
</g>
</g>
<!-- Node35&#45;&gt;Node36 -->
<g id="edge35" class="edge">
<title>Node35&#45;&gt;Node36</title>
<path fill="none" stroke="#191970" d="M463.3237,-338.6137C485.29,-356.5421 523.4153,-385.0181 561,-400.5 566.7838,-402.8825 572.8848,-404.9708 579.0985,-406.8006"/>
<polygon fill="#191970" stroke="#191970" points="578.3587,-410.2264 588.9264,-409.4683 580.1925,-403.4709 578.3587,-410.2264"/>
</g>
<!-- Node37 -->
<g id="node37" class="node">
<title>Node37</title>
<g id="a_node37"><a xlink:href="../../df/dfb/classG4Deuteron.html#a746c5d50268d2eb7316e54a080aa1e0f" target="_top" xlink:title="G4Deuteron::DeuteronDefinition">
<polygon fill="none" stroke="#ff0000" points="569,-370.5 569,-390.5 749,-390.5 749,-370.5 569,-370.5"/>
<text text-anchor="middle" x="659" y="-377.5" font-family="FreeSans" font-size="10.00" fill="#000000">G4Deuteron::DeuteronDefinition</text>
</a>
</g>
</g>
<!-- Node35&#45;&gt;Node37 -->
<g id="edge36" class="edge">
<title>Node35&#45;&gt;Node37</title>
<path fill="none" stroke="#191970" d="M487.794,-338.5046C509.5547,-346.1607 536.4539,-355.0419 561,-361.5 570.5534,-364.0135 580.711,-366.3496 590.73,-368.4628"/>
<polygon fill="#191970" stroke="#191970" points="590.1765,-371.922 600.6755,-370.4999 591.5812,-365.0644 590.1765,-371.922"/>
</g>
<!-- Node38 -->
<g id="node38" class="node">
<title>Node38</title>
<g id="a_node38"><a xlink:href="../../da/d5b/classG4Triton.html#ac89804967e72a571825231851f2b0134" target="_top" xlink:title="G4Triton::TritonDefinition">
<polygon fill="none" stroke="#ff0000" points="587.5,-331.5 587.5,-351.5 730.5,-351.5 730.5,-331.5 587.5,-331.5"/>
<text text-anchor="middle" x="659" y="-338.5" font-family="FreeSans" font-size="10.00" fill="#000000">G4Triton::TritonDefinition</text>
</a>
</g>
</g>
<!-- Node35&#45;&gt;Node38 -->
<g id="edge37" class="edge">
<title>Node35&#45;&gt;Node38</title>
<path fill="none" stroke="#191970" d="M525.2876,-329.656C542.2032,-331.1544 560.0556,-332.7357 577.0144,-334.2379"/>
<polygon fill="#191970" stroke="#191970" points="577.172,-337.7655 587.4418,-335.1615 577.7897,-330.7928 577.172,-337.7655"/>
</g>
<!-- Node39 -->
<g id="node39" class="node">
<title>Node39</title>
<g id="a_node39"><a xlink:href="../../d2/db5/classG4He3.html#ac75b55c9cc2dc5c64de7672c0544eb8f" target="_top" xlink:title="G4He3::He3Definition">
<polygon fill="none" stroke="#ff0000" points="595.5,-292.5 595.5,-312.5 722.5,-312.5 722.5,-292.5 595.5,-292.5"/>
<text text-anchor="middle" x="659" y="-299.5" font-family="FreeSans" font-size="10.00" fill="#000000">G4He3::He3Definition</text>
</a>
</g>
</g>
<!-- Node35&#45;&gt;Node39 -->
<g id="edge38" class="edge">
<title>Node35&#45;&gt;Node39</title>
<path fill="none" stroke="#191970" d="M525.2876,-314.9674C545.008,-313.1286 566.0015,-311.1712 585.3681,-309.3654"/>
<polygon fill="#191970" stroke="#191970" points="585.7,-312.8498 595.3319,-308.4364 585.0501,-305.88 585.7,-312.8498"/>
</g>
<!-- Node40 -->
<g id="node40" class="node">
<title>Node40</title>
<g id="a_node40"><a xlink:href="../../df/dd3/classG4AntiAlpha.html#ab6210cd991ee86794f7096ce8b5ba2db" target="_top" xlink:title="G4AntiAlpha::AntiAlphaDefinition">
<polygon fill="none" stroke="#ff0000" points="567,-253.5 567,-273.5 751,-273.5 751,-253.5 567,-253.5"/>
<text text-anchor="middle" x="659" y="-260.5" font-family="FreeSans" font-size="10.00" fill="#000000">G4AntiAlpha::AntiAlphaDefinition</text>
</a>
</g>
</g>
<!-- Node35&#45;&gt;Node40 -->
<g id="edge39" class="edge">
<title>Node35&#45;&gt;Node40</title>
<path fill="none" stroke="#191970" d="M497.9325,-306.4802C507.0008,-303.5975 516.296,-300.5398 525,-297.5 541.2073,-291.8397 544.5305,-288.3449 561,-283.5 570.8469,-280.6033 581.3712,-277.978 591.7352,-275.6532"/>
<polygon fill="#191970" stroke="#191970" points="592.563,-279.0552 601.5953,-273.5173 591.081,-272.2138 592.563,-279.0552"/>
</g>
<!-- Node41 -->
<g id="node41" class="node">
<title>Node41</title>
<g id="a_node41"><a xlink:href="../../d6/d9f/classG4AntiDeuteron.html#a59b49e9301aea8e4a8e044a3d028eef0" target="_top" xlink:title="G4AntiDeuteron::AntiDeuteron\lDefinition">
<polygon fill="none" stroke="#ff0000" points="573.5,-202.5 573.5,-234.5 744.5,-234.5 744.5,-202.5 573.5,-202.5"/>
<text text-anchor="start" x="581.5" y="-221.5" font-family="FreeSans" font-size="10.00" fill="#000000">G4AntiDeuteron::AntiDeuteron</text>
<text text-anchor="middle" x="659" y="-209.5" font-family="FreeSans" font-size="10.00" fill="#000000">Definition</text>
</a>
</g>
</g>
<!-- Node35&#45;&gt;Node41 -->
<g id="edge40" class="edge">
<title>Node35&#45;&gt;Node41</title>
<path fill="none" stroke="#191970" d="M510.0792,-306.3874C515.3572,-303.84 520.4141,-300.8975 525,-297.5 547.8805,-280.5487 537.7703,-260.9696 561,-244.5 563.7283,-242.5656 566.5915,-240.7752 569.5545,-239.118"/>
<polygon fill="#191970" stroke="#191970" points="571.3328,-242.1418 578.7077,-234.5352 568.1989,-235.8825 571.3328,-242.1418"/>
</g>
<!-- Node42 -->
<g id="node42" class="node">
<title>Node42</title>
<g id="a_node42"><a xlink:href="../../d2/d74/classG4AntiTriton.html#a595a9e454a9bba89a7a1b30dea5f5956" target="_top" xlink:title="G4AntiTriton::AntiTriton\lDefinition">
<polygon fill="none" stroke="#ff0000" points="592,-151.5 592,-183.5 726,-183.5 726,-151.5 592,-151.5"/>
<text text-anchor="start" x="600" y="-170.5" font-family="FreeSans" font-size="10.00" fill="#000000">G4AntiTriton::AntiTriton</text>
<text text-anchor="middle" x="659" y="-158.5" font-family="FreeSans" font-size="10.00" fill="#000000">Definition</text>
</a>
</g>
</g>
<!-- Node35&#45;&gt;Node42 -->
<g id="edge41" class="edge">
<title>Node35&#45;&gt;Node42</title>
<path fill="none" stroke="#191970" d="M513.4345,-306.2868C517.6183,-303.7683 521.5308,-300.8595 525,-297.5 560.1379,-263.4733 525.1589,-226.7853 561,-193.5 567.2113,-187.7316 574.5536,-183.2134 582.3815,-179.6791"/>
<polygon fill="#191970" stroke="#191970" points="583.7469,-182.9029 591.7553,-175.9662 581.1691,-176.3949 583.7469,-182.9029"/>
</g>
<!-- Node44 -->
<g id="node44" class="node">
<title>Node44</title>
<g id="a_node44"><a xlink:href="../../dd/dc8/classG4BaryonConstructor.html#adfba29904ed8c6fb9ee7bc00eeadc66e" target="_top" xlink:title="G4BaryonConstructor\l::ConstructBottomBaryons">
<polygon fill="none" stroke="#ff0000" points="369.5,-255.5 369.5,-287.5 519.5,-287.5 519.5,-255.5 369.5,-255.5"/>
<text text-anchor="start" x="377.5" y="-274.5" font-family="FreeSans" font-size="10.00" fill="#000000">G4BaryonConstructor</text>
<text text-anchor="middle" x="444.5" y="-262.5" font-family="FreeSans" font-size="10.00" fill="#000000">::ConstructBottomBaryons</text>
</a>
</g>
</g>
<!-- Node43&#45;&gt;Node44 -->
<g id="edge43" class="edge">
<title>Node43&#45;&gt;Node44</title>
<path fill="none" stroke="#191970" d="M309.5616,-236.5667C329.6184,-241.7591 352.0215,-247.5589 372.7214,-252.9177"/>
<polygon fill="#191970" stroke="#191970" points="371.8539,-256.3085 382.412,-255.4264 373.6083,-249.5319 371.8539,-256.3085"/>
</g>
<!-- Node45 -->
<g id="node45" class="node">
<title>Node45</title>
<g id="a_node45"><a xlink:href="../../dd/dc8/classG4BaryonConstructor.html#a21c3140640364b580f73ddee4383e06b" target="_top" xlink:title="G4BaryonConstructor\l::ConstructCharmBaryons">
<polygon fill="none" stroke="#ff0000" points="371.5,-204.5 371.5,-236.5 517.5,-236.5 517.5,-204.5 371.5,-204.5"/>
<text text-anchor="start" x="379.5" y="-223.5" font-family="FreeSans" font-size="10.00" fill="#000000">G4BaryonConstructor</text>
<text text-anchor="middle" x="444.5" y="-211.5" font-family="FreeSans" font-size="10.00" fill="#000000">::ConstructCharmBaryons</text>
</a>
</g>
</g>
<!-- Node43&#45;&gt;Node45 -->
<g id="edge44" class="edge">
<title>Node43&#45;&gt;Node45</title>
<path fill="none" stroke="#191970" d="M310.6449,-220.5C326.6752,-220.5 344.1459,-220.5 361.0149,-220.5"/>
<polygon fill="#191970" stroke="#191970" points="361.4223,-224.0001 371.4222,-220.5 361.4222,-217.0001 361.4223,-224.0001"/>
</g>
<!-- Node46 -->
<g id="node46" class="node">
<title>Node46</title>
<g id="a_node46"><a xlink:href="../../dd/dc8/classG4BaryonConstructor.html#a2f0eb04caca8d23648dd6f98a26675bc" target="_top" xlink:title="G4BaryonConstructor\l::ConstructNucleons">
<polygon fill="none" stroke="#ff0000" points="381.5,-153.5 381.5,-185.5 507.5,-185.5 507.5,-153.5 381.5,-153.5"/>
<text text-anchor="start" x="389.5" y="-172.5" font-family="FreeSans" font-size="10.00" fill="#000000">G4BaryonConstructor</text>
<text text-anchor="middle" x="444.5" y="-160.5" font-family="FreeSans" font-size="10.00" fill="#000000">::ConstructNucleons</text>
</a>
</g>
</g>
<!-- Node43&#45;&gt;Node46 -->
<g id="edge45" class="edge">
<title>Node43&#45;&gt;Node46</title>
<path fill="none" stroke="#191970" d="M309.5616,-204.4333C329.6184,-199.2409 352.0215,-193.4411 372.7214,-188.0823"/>
<polygon fill="#191970" stroke="#191970" points="373.6083,-191.4681 382.412,-185.5736 371.8539,-184.6915 373.6083,-191.4681"/>
</g>
<!-- Node47 -->
<g id="node47" class="node">
<title>Node47</title>
<g id="a_node47"><a xlink:href="../../dd/dc8/classG4BaryonConstructor.html#af268a7a5f1f9da0fca33eecec77a130a" target="_top" xlink:title="G4BaryonConstructor\l::ConstructStrangeBaryons">
<polygon fill="none" stroke="#ff0000" points="368,-102.5 368,-134.5 521,-134.5 521,-102.5 368,-102.5"/>
<text text-anchor="start" x="376" y="-121.5" font-family="FreeSans" font-size="10.00" fill="#000000">G4BaryonConstructor</text>
<text text-anchor="middle" x="444.5" y="-109.5" font-family="FreeSans" font-size="10.00" fill="#000000">::ConstructStrangeBaryons</text>
</a>
</g>
</g>
<!-- Node43&#45;&gt;Node47 -->
<g id="edge46" class="edge">
<title>Node43&#45;&gt;Node47</title>
<path fill="none" stroke="#191970" d="M268.3886,-204.409C290.9581,-187.6278 328.4744,-161.4518 364,-144.5 368.6848,-142.2646 373.6104,-140.1508 378.621,-138.1677"/>
<polygon fill="#191970" stroke="#191970" points="380.1942,-141.3154 388.3207,-134.5176 377.7287,-134.7639 380.1942,-141.3154"/>
</g>
<!-- Node49 -->
<g id="node49" class="node">
<title>Node49</title>
<g id="a_node49"><a xlink:href="../../d7/d9f/classG4ShortLivedConstructor.html#a3f16796e408d8316dde7cce2ff31b613" target="_top" xlink:title="G4ShortLivedConstructor\l::ConstructQuarks">
<polygon fill="none" stroke="#ff0000" points="372.5,-51.5 372.5,-83.5 516.5,-83.5 516.5,-51.5 372.5,-51.5"/>
<text text-anchor="start" x="380.5" y="-70.5" font-family="FreeSans" font-size="10.00" fill="#000000">G4ShortLivedConstructor</text>
<text text-anchor="middle" x="444.5" y="-58.5" font-family="FreeSans" font-size="10.00" fill="#000000">::ConstructQuarks</text>
</a>
</g>
</g>
<!-- Node48&#45;&gt;Node49 -->
<g id="edge48" class="edge">
<title>Node48&#45;&gt;Node49</title>
<path fill="none" stroke="#191970" d="M319.7369,-67.5C333.5217,-67.5 348.0469,-67.5 362.1207,-67.5"/>
<polygon fill="#191970" stroke="#191970" points="362.2719,-71.0001 372.2718,-67.5 362.2718,-64.0001 362.2719,-71.0001"/>
</g>
<!-- Node50 -->
<g id="node50" class="node">
<title>Node50</title>
<g id="a_node50"><a xlink:href="../../d7/d9f/classG4ShortLivedConstructor.html#a456d944dfff26b2a7d56f2e58446aa89" target="_top" xlink:title="G4ShortLivedConstructor\l::ConstructResonances">
<polygon fill="none" stroke="#ff0000" points="372.5,-.5 372.5,-32.5 516.5,-32.5 516.5,-.5 372.5,-.5"/>
<text text-anchor="start" x="380.5" y="-19.5" font-family="FreeSans" font-size="10.00" fill="#000000">G4ShortLivedConstructor</text>
<text text-anchor="middle" x="444.5" y="-7.5" font-family="FreeSans" font-size="10.00" fill="#000000">::ConstructResonances</text>
</a>
</g>
</g>
<!-- Node48&#45;&gt;Node50 -->
<g id="edge49" class="edge">
<title>Node48&#45;&gt;Node50</title>
<path fill="none" stroke="#191970" d="M309.5616,-51.4333C329.6184,-46.2409 352.0215,-40.4411 372.7214,-35.0823"/>
<polygon fill="#191970" stroke="#191970" points="373.6083,-38.4681 382.412,-32.5736 371.8539,-31.6915 373.6083,-38.4681"/>
</g>
</g>
</svg>
