<?xml version="1.0" encoding="UTF-8" standalone="no"?>
<!DOCTYPE svg PUBLIC "-//W3C//DTD SVG 1.1//EN"
 "http://www.w3.org/Graphics/SVG/1.1/DTD/svg11.dtd">
<!-- Generated by graphviz version 2.40.1 (20161225.0304)
 -->
<!-- Title: G4VSolid::GetExtent Pages: 1 -->
<svg width="1325pt" height="246pt"
 viewBox="0.00 0.00 1325.00 246.00" xmlns="http://www.w3.org/2000/svg" xmlns:xlink="http://www.w3.org/1999/xlink">
<g id="graph0" class="graph" transform="scale(1 1) rotate(0) translate(4 242)">
<title>G4VSolid::GetExtent</title>
<!-- Node1 -->
<g id="node1" class="node">
<title>Node1</title>
<polygon fill="#bfbfbf" stroke="#000000" points="0,-82.5 0,-102.5 121,-102.5 121,-82.5 0,-82.5"/>
<text text-anchor="middle" x="60.5" y="-89.5" font-family="FreeSans" font-size="10.00" fill="#000000">G4VSolid::GetExtent</text>
</g>
<!-- Node2 -->
<g id="node2" class="node">
<title>Node2</title>
<g id="a_node2"><a xlink:href="../../d1/d78/classG4tgbVolume.html#a54dfdcc4d1e1ed8870e5298a62101c2d" target="_top" xlink:title="G4tgbVolume::BuildSolidFor\lDivision">
<polygon fill="none" stroke="#000000" points="157,-153.5 157,-185.5 316,-185.5 316,-153.5 157,-153.5"/>
<text text-anchor="start" x="165" y="-172.5" font-family="FreeSans" font-size="10.00" fill="#000000">G4tgbVolume::BuildSolidFor</text>
<text text-anchor="middle" x="236.5" y="-160.5" font-family="FreeSans" font-size="10.00" fill="#000000">Division</text>
</a>
</g>
</g>
<!-- Node1&#45;&gt;Node2 -->
<g id="edge1" class="edge">
<title>Node1&#45;&gt;Node2</title>
<path fill="none" stroke="#191970" d="M85.4461,-107.6433C104.5597,-118.8225 131.8378,-133.8775 157,-144.5 164.5977,-147.7075 172.7534,-150.726 180.8418,-153.4807"/>
<polygon fill="#191970" stroke="#191970" points="87.1521,-104.5859 76.764,-102.503 83.5859,-110.6093 87.1521,-104.5859"/>
</g>
<!-- Node14 -->
<g id="node14" class="node">
<title>Node14</title>
<g id="a_node14"><a xlink:href="../../d0/d6c/classG4BoundingExtentScene.html#abedc869d02f7525a5ab6ec0d075fdb80" target="_top" xlink:title="G4BoundingExtentScene\l::ProcessVolume">
<polygon fill="none" stroke="#000000" points="165,-102.5 165,-134.5 308,-134.5 308,-102.5 165,-102.5"/>
<text text-anchor="start" x="173" y="-121.5" font-family="FreeSans" font-size="10.00" fill="#000000">G4BoundingExtentScene</text>
<text text-anchor="middle" x="236.5" y="-109.5" font-family="FreeSans" font-size="10.00" fill="#000000">::ProcessVolume</text>
</a>
</g>
</g>
<!-- Node1&#45;&gt;Node14 -->
<g id="edge15" class="edge">
<title>Node1&#45;&gt;Node14</title>
<path fill="none" stroke="#191970" d="M131.1482,-102.9367C142.2642,-104.5788 153.7649,-106.2778 164.9022,-107.923"/>
<polygon fill="#191970" stroke="#191970" points="131.4734,-99.4468 121.0692,-101.4477 130.4503,-106.3716 131.4734,-99.4468"/>
</g>
<!-- Node15 -->
<g id="node15" class="node">
<title>Node15</title>
<g id="a_node15"><a xlink:href="../../d5/dba/classG4BoundingSphereScene.html#a5494db2c800517fdecbd17be52940f36" target="_top" xlink:title="G4BoundingSphereScene\l::ProcessVolume">
<polygon fill="none" stroke="#000000" points="163.5,-51.5 163.5,-83.5 309.5,-83.5 309.5,-51.5 163.5,-51.5"/>
<text text-anchor="start" x="171.5" y="-70.5" font-family="FreeSans" font-size="10.00" fill="#000000">G4BoundingSphereScene</text>
<text text-anchor="middle" x="236.5" y="-58.5" font-family="FreeSans" font-size="10.00" fill="#000000">::ProcessVolume</text>
</a>
</g>
</g>
<!-- Node1&#45;&gt;Node15 -->
<g id="edge16" class="edge">
<title>Node1&#45;&gt;Node15</title>
<path fill="none" stroke="#191970" d="M131.117,-82.4692C141.7315,-80.9614 152.6974,-79.4038 163.3633,-77.8887"/>
<polygon fill="#191970" stroke="#191970" points="130.4776,-79.0248 121.0692,-83.8964 131.4621,-85.9552 130.4776,-79.0248"/>
</g>
<!-- Node16 -->
<g id="node16" class="node">
<title>Node16</title>
<g id="a_node16"><a xlink:href="../../d8/d36/classG4VisCommandsTouchable.html#aba62ca50a585e5b7a39d42657cc144e2" target="_top" xlink:title="G4VisCommandsTouchable\l::SetNewValue">
<polygon fill="none" stroke="#000000" points="159.5,-.5 159.5,-32.5 313.5,-32.5 313.5,-.5 159.5,-.5"/>
<text text-anchor="start" x="167.5" y="-19.5" font-family="FreeSans" font-size="10.00" fill="#000000">G4VisCommandsTouchable</text>
<text text-anchor="middle" x="236.5" y="-7.5" font-family="FreeSans" font-size="10.00" fill="#000000">::SetNewValue</text>
</a>
</g>
</g>
<!-- Node1&#45;&gt;Node16 -->
<g id="edge17" class="edge">
<title>Node1&#45;&gt;Node16</title>
<path fill="none" stroke="#191970" d="M86.5967,-77.51C105.7062,-66.899 132.4758,-52.7839 157,-42.5 165.4368,-38.9621 174.5357,-35.591 183.4601,-32.5187"/>
<polygon fill="#191970" stroke="#191970" points="84.8818,-74.4588 77.8744,-82.4053 88.3079,-80.5631 84.8818,-74.4588"/>
</g>
<!-- Node3 -->
<g id="node3" class="node">
<title>Node3</title>
<g id="a_node3"><a xlink:href="../../d1/d78/classG4tgbVolume.html#a0cc2371fc97f047c9f0ac69f791fd8f7" target="_top" xlink:title="G4tgbVolume::ConstructG4\lPhysVol">
<polygon fill="none" stroke="#000000" points="352,-153.5 352,-185.5 507,-185.5 507,-153.5 352,-153.5"/>
<text text-anchor="start" x="360" y="-172.5" font-family="FreeSans" font-size="10.00" fill="#000000">G4tgbVolume::ConstructG4</text>
<text text-anchor="middle" x="429.5" y="-160.5" font-family="FreeSans" font-size="10.00" fill="#000000">PhysVol</text>
</a>
</g>
</g>
<!-- Node2&#45;&gt;Node3 -->
<g id="edge2" class="edge">
<title>Node2&#45;&gt;Node3</title>
<path fill="none" stroke="#191970" d="M326.169,-169.5C334.7763,-169.5 343.4564,-169.5 351.9336,-169.5"/>
<polygon fill="#191970" stroke="#191970" points="326.1148,-166.0001 316.1148,-169.5 326.1147,-173.0001 326.1148,-166.0001"/>
</g>
<!-- Node4 -->
<g id="node4" class="node">
<title>Node4</title>
<g id="a_node4"><a xlink:href="../../d1/d78/classG4tgbVolume.html#a914b6aefd21c8a951b8d863b12170f61" target="_top" xlink:title="G4tgbVolume::ConstructG4\lVolumes">
<polygon fill="none" stroke="#000000" points="543,-153.5 543,-185.5 698,-185.5 698,-153.5 543,-153.5"/>
<text text-anchor="start" x="551" y="-172.5" font-family="FreeSans" font-size="10.00" fill="#000000">G4tgbVolume::ConstructG4</text>
<text text-anchor="middle" x="620.5" y="-160.5" font-family="FreeSans" font-size="10.00" fill="#000000">Volumes</text>
</a>
</g>
</g>
<!-- Node3&#45;&gt;Node4 -->
<g id="edge3" class="edge">
<title>Node3&#45;&gt;Node4</title>
<path fill="none" stroke="#191970" d="M517.1934,-162.7701C525.7647,-162.7259 534.4204,-162.7546 542.8818,-162.8563"/>
<polygon fill="#191970" stroke="#191970" points="517.1567,-159.2702 507.187,-162.8555 517.2165,-166.2699 517.1567,-159.2702"/>
</g>
<!-- Node4&#45;&gt;Node3 -->
<g id="edge13" class="edge">
<title>Node4&#45;&gt;Node3</title>
<path fill="none" stroke="#191970" d="M532.8763,-176.2296C524.3055,-176.2741 515.6495,-176.2458 507.187,-176.1445"/>
<polygon fill="#191970" stroke="#191970" points="532.9123,-179.7295 542.8818,-176.1437 532.8521,-172.7297 532.9123,-179.7295"/>
</g>
<!-- Node4&#45;&gt;Node4 -->
<g id="edge14" class="edge">
<title>Node4&#45;&gt;Node4</title>
<path fill="none" stroke="#191970" d="M587.0626,-196.0753C591.4895,-200.7466 602.6353,-204 620.5,-204 649.8164,-204 661.0391,-195.2388 654.1681,-185.8274"/>
<polygon fill="#191970" stroke="#191970" points="590.5562,-195.7461 586.8319,-185.8274 583.5579,-195.9037 590.5562,-195.7461"/>
</g>
<!-- Node5 -->
<g id="node5" class="node">
<title>Node5</title>
<g id="a_node5"><a xlink:href="../../da/d27/classG4tgbDetectorConstruction.html#a7853d57e0b71d49746d04bc716d725c3" target="_top" xlink:title="G4tgbDetectorConstruction\l::Construct">
<polygon fill="none" stroke="#000000" points="734,-179.5 734,-211.5 889,-211.5 889,-179.5 734,-179.5"/>
<text text-anchor="start" x="742" y="-198.5" font-family="FreeSans" font-size="10.00" fill="#000000">G4tgbDetectorConstruction</text>
<text text-anchor="middle" x="811.5" y="-186.5" font-family="FreeSans" font-size="10.00" fill="#000000">::Construct</text>
</a>
</g>
</g>
<!-- Node4&#45;&gt;Node5 -->
<g id="edge4" class="edge">
<title>Node4&#45;&gt;Node5</title>
<path fill="none" stroke="#191970" d="M708.1934,-181.4373C716.7647,-182.6041 725.4204,-183.7824 733.8818,-184.9342"/>
<polygon fill="#191970" stroke="#191970" points="708.5677,-177.9561 698.187,-180.0752 707.6235,-184.8921 708.5677,-177.9561"/>
</g>
<!-- Node6 -->
<g id="node6" class="node">
<title>Node6</title>
<g id="a_node6"><a xlink:href="../../d9/d6c/classG4tgbDetectorBuilder.html#aa7113e3f68d1d769caad5cfa89bc0244" target="_top" xlink:title="G4tgbDetectorBuilder\l::ConstructDetector">
<polygon fill="none" stroke="#000000" points="747.5,-128.5 747.5,-160.5 875.5,-160.5 875.5,-128.5 747.5,-128.5"/>
<text text-anchor="start" x="755.5" y="-147.5" font-family="FreeSans" font-size="10.00" fill="#000000">G4tgbDetectorBuilder</text>
<text text-anchor="middle" x="811.5" y="-135.5" font-family="FreeSans" font-size="10.00" fill="#000000">::ConstructDetector</text>
</a>
</g>
</g>
<!-- Node4&#45;&gt;Node6 -->
<g id="edge5" class="edge">
<title>Node4&#45;&gt;Node6</title>
<path fill="none" stroke="#191970" d="M708.2032,-158.0205C721.374,-156.2966 734.744,-154.5466 747.3019,-152.9029"/>
<polygon fill="#191970" stroke="#191970" points="707.6482,-154.5632 698.187,-159.3315 708.5567,-161.504 707.6482,-154.5632"/>
</g>
<!-- Node7 -->
<g id="node7" class="node">
<title>Node7</title>
<g id="a_node7"><a xlink:href="../../db/df1/classExTGRCDetectorBuilder.html#a1ebdf86f4ee2d4d102c10e1dd5601de1" target="_top" xlink:title="ExTGRCDetectorBuilder\l::ConstructDetector">
<polygon fill="none" stroke="#000000" points="960,-179.5 960,-211.5 1096,-211.5 1096,-179.5 960,-179.5"/>
<text text-anchor="start" x="968" y="-198.5" font-family="FreeSans" font-size="10.00" fill="#000000">ExTGRCDetectorBuilder</text>
<text text-anchor="middle" x="1028" y="-186.5" font-family="FreeSans" font-size="10.00" fill="#000000">::ConstructDetector</text>
</a>
</g>
</g>
<!-- Node6&#45;&gt;Node7 -->
<g id="edge6" class="edge">
<title>Node6&#45;&gt;Node7</title>
<path fill="none" stroke="#191970" d="M885.4005,-161.9084C909.5494,-167.5971 936.2426,-173.8851 959.9408,-179.4676"/>
<polygon fill="#191970" stroke="#191970" points="886.1145,-158.4809 875.5784,-159.5947 884.5094,-165.2944 886.1145,-158.4809"/>
</g>
<!-- Node9 -->
<g id="node9" class="node">
<title>Node9</title>
<g id="a_node9"><a xlink:href="../../de/dd0/classG4tgbVolumeMgr.html#a93803d6bb5fccb055fae6c61d57cd701" target="_top" xlink:title="G4tgbVolumeMgr::ReadAndConstruct\lDetector">
<polygon fill="none" stroke="#000000" points="925,-103.5 925,-135.5 1131,-135.5 1131,-103.5 925,-103.5"/>
<text text-anchor="start" x="933" y="-122.5" font-family="FreeSans" font-size="10.00" fill="#000000">G4tgbVolumeMgr::ReadAndConstruct</text>
<text text-anchor="middle" x="1028" y="-110.5" font-family="FreeSans" font-size="10.00" fill="#000000">Detector</text>
</a>
</g>
</g>
<!-- Node6&#45;&gt;Node9 -->
<g id="edge8" class="edge">
<title>Node6&#45;&gt;Node9</title>
<path fill="none" stroke="#191970" d="M885.5412,-135.9502C898.1677,-134.4922 911.4864,-132.9542 924.7062,-131.4277"/>
<polygon fill="#191970" stroke="#191970" points="885.1109,-132.4766 875.5784,-137.1006 885.9139,-139.4303 885.1109,-132.4766"/>
</g>
<!-- Node8 -->
<g id="node8" class="node">
<title>Node8</title>
<g id="a_node8"><a xlink:href="../../d2/df7/classExTGDetectorConstructionWithCuts.html#abf59f7df480dc283c3c0db9ff401dd01" target="_top" xlink:title="ExTGDetectorConstruction\lWithCuts::Construct">
<polygon fill="none" stroke="#000000" points="1167,-205.5 1167,-237.5 1317,-237.5 1317,-205.5 1167,-205.5"/>
<text text-anchor="start" x="1175" y="-224.5" font-family="FreeSans" font-size="10.00" fill="#000000">ExTGDetectorConstruction</text>
<text text-anchor="middle" x="1242" y="-212.5" font-family="FreeSans" font-size="10.00" fill="#000000">WithCuts::Construct</text>
</a>
</g>
</g>
<!-- Node7&#45;&gt;Node8 -->
<g id="edge7" class="edge">
<title>Node7&#45;&gt;Node8</title>
<path fill="none" stroke="#191970" d="M1106.1938,-205.0002C1125.9546,-207.401 1147.1318,-209.974 1166.7444,-212.3568"/>
<polygon fill="#191970" stroke="#191970" points="1106.3541,-201.494 1096.005,-203.7623 1105.5098,-208.4429 1106.3541,-201.494"/>
</g>
<!-- Node10 -->
<g id="node10" class="node">
<title>Node10</title>
<g id="a_node10"><a xlink:href="../../d1/d9e/classExTGDetectorConstruction.html#ad1890aaa7d14667f91da538a415f2f6f" target="_top" xlink:title="ExTGDetectorConstruction\l::Construct">
<polygon fill="none" stroke="#000000" points="1167,-154.5 1167,-186.5 1317,-186.5 1317,-154.5 1167,-154.5"/>
<text text-anchor="start" x="1175" y="-173.5" font-family="FreeSans" font-size="10.00" fill="#000000">ExTGDetectorConstruction</text>
<text text-anchor="middle" x="1242" y="-161.5" font-family="FreeSans" font-size="10.00" fill="#000000">::Construct</text>
</a>
</g>
</g>
<!-- Node9&#45;&gt;Node10 -->
<g id="edge9" class="edge">
<title>Node9&#45;&gt;Node10</title>
<path fill="none" stroke="#191970" d="M1105.3331,-137.9298C1127.9869,-143.3287 1152.5671,-149.1866 1174.5541,-154.4264"/>
<polygon fill="#191970" stroke="#191970" points="1105.9562,-134.4804 1095.4172,-135.5667 1104.3334,-141.2897 1105.9562,-134.4804"/>
</g>
<!-- Node11 -->
<g id="node11" class="node">
<title>Node11</title>
<g id="a_node11"><a xlink:href="../../dd/d04/classExTGDetectorConstructionWithSD.html#a5c23eff76ef15a2939eb7dd855f544d1" target="_top" xlink:title="ExTGDetectorConstruction\lWithSD::Construct">
<polygon fill="none" stroke="#000000" points="1167,-103.5 1167,-135.5 1317,-135.5 1317,-103.5 1167,-103.5"/>
<text text-anchor="start" x="1175" y="-122.5" font-family="FreeSans" font-size="10.00" fill="#000000">ExTGDetectorConstruction</text>
<text text-anchor="middle" x="1242" y="-110.5" font-family="FreeSans" font-size="10.00" fill="#000000">WithSD::Construct</text>
</a>
</g>
</g>
<!-- Node9&#45;&gt;Node11 -->
<g id="edge10" class="edge">
<title>Node9&#45;&gt;Node11</title>
<path fill="none" stroke="#191970" d="M1141.3409,-119.5C1149.9362,-119.5 1158.4768,-119.5 1166.7397,-119.5"/>
<polygon fill="#191970" stroke="#191970" points="1141.239,-116.0001 1131.239,-119.5 1141.2389,-123.0001 1141.239,-116.0001"/>
</g>
<!-- Node12 -->
<g id="node12" class="node">
<title>Node12</title>
<g id="a_node12"><a xlink:href="../../da/d45/classExTGDetectorConstructionWithCpp.html#ac70c77fdcf1806ced6b5132d801b37c5" target="_top" xlink:title="ExTGDetectorConstruction\lWithCpp::Construct">
<polygon fill="none" stroke="#000000" points="1167,-52.5 1167,-84.5 1317,-84.5 1317,-52.5 1167,-52.5"/>
<text text-anchor="start" x="1175" y="-71.5" font-family="FreeSans" font-size="10.00" fill="#000000">ExTGDetectorConstruction</text>
<text text-anchor="middle" x="1242" y="-59.5" font-family="FreeSans" font-size="10.00" fill="#000000">WithCpp::Construct</text>
</a>
</g>
</g>
<!-- Node9&#45;&gt;Node12 -->
<g id="edge11" class="edge">
<title>Node9&#45;&gt;Node12</title>
<path fill="none" stroke="#191970" d="M1105.3331,-101.0702C1127.9869,-95.6713 1152.5671,-89.8134 1174.5541,-84.5736"/>
<polygon fill="#191970" stroke="#191970" points="1104.3334,-97.7103 1095.4172,-103.4333 1105.9562,-104.5196 1104.3334,-97.7103"/>
</g>
<!-- Node13 -->
<g id="node13" class="node">
<title>Node13</title>
<g id="a_node13"><a xlink:href="../../de/d16/classEICG4dRICHDetector.html#adba1c475f57b8c1a9491350a9efc99af" target="_top" xlink:title="construct">
<polygon fill="none" stroke="#000000" points="1181,-1.5 1181,-33.5 1303,-33.5 1303,-1.5 1181,-1.5"/>
<text text-anchor="start" x="1189" y="-20.5" font-family="FreeSans" font-size="10.00" fill="#000000">EICG4dRICHDetector</text>
<text text-anchor="middle" x="1242" y="-8.5" font-family="FreeSans" font-size="10.00" fill="#000000">::ConstructMe</text>
</a>
</g>
</g>
<!-- Node9&#45;&gt;Node13 -->
<g id="edge12" class="edge">
<title>Node9&#45;&gt;Node13</title>
<path fill="none" stroke="#191970" d="M1063.1148,-98.1692C1090.7334,-81.9199 1130.5132,-59.6641 1167,-43.5 1174.938,-39.9834 1183.5111,-36.623 1191.9261,-33.5549"/>
<polygon fill="#191970" stroke="#191970" points="1061.0543,-95.3219 1054.2371,-103.4321 1064.624,-101.3433 1061.0543,-95.3219"/>
</g>
</g>
</svg>
