<?xml version="1.0" encoding="UTF-8" standalone="no"?>
<!DOCTYPE svg PUBLIC "-//W3C//DTD SVG 1.1//EN"
 "http://www.w3.org/Graphics/SVG/1.1/DTD/svg11.dtd">
<!-- Generated by graphviz version 2.40.1 (20161225.0304)
 -->
<!-- Title: PHG4DisplayAction::FindVolumes Pages: 1 -->
<svg width="358pt" height="221pt"
 viewBox="0.00 0.00 358.00 221.00" xmlns="http://www.w3.org/2000/svg" xmlns:xlink="http://www.w3.org/1999/xlink">
<g id="graph0" class="graph" transform="scale(1 1) rotate(0) translate(4 217)">
<title>PHG4DisplayAction::FindVolumes</title>
<!-- Node1 -->
<g id="node1" class="node">
<title>Node1</title>
<polygon fill="#bfbfbf" stroke="#000000" points="0,-84.5 0,-116.5 119,-116.5 119,-84.5 0,-84.5"/>
<text text-anchor="start" x="8" y="-103.5" font-family="FreeSans" font-size="10.00" fill="#000000">PHG4DisplayAction::</text>
<text text-anchor="middle" x="59.5" y="-91.5" font-family="FreeSans" font-size="10.00" fill="#000000">FindVolumes</text>
</g>
<!-- Node2 -->
<g id="node2" class="node">
<title>Node2</title>
<g id="a_node2"><a xlink:href="../../d2/d44/classPHG4DisplayAction.html#aec8d9c349df57b3b18c5374e2bf73d8e" target="_top" xlink:title="ApplyVisAttributes method.">
<polygon fill="none" stroke="#000000" points="193,-180.5 193,-212.5 312,-212.5 312,-180.5 193,-180.5"/>
<text text-anchor="start" x="201" y="-199.5" font-family="FreeSans" font-size="10.00" fill="#000000">PHG4DisplayAction::</text>
<text text-anchor="middle" x="252.5" y="-187.5" font-family="FreeSans" font-size="10.00" fill="#000000">ApplyVisAttributes</text>
</a>
</g>
</g>
<!-- Node1&#45;&gt;Node2 -->
<g id="edge1" class="edge">
<title>Node1&#45;&gt;Node2</title>
<path fill="none" stroke="#191970" d="M76.7907,-116.6585C94.9464,-132.7878 124.9791,-157.1774 155,-171.5 163.8716,-175.7325 173.5518,-179.3121 183.257,-182.3212"/>
<polygon fill="#191970" stroke="#191970" points="182.3615,-185.7058 192.9414,-185.1433 184.3199,-178.9853 182.3615,-185.7058"/>
</g>
<!-- Node3 -->
<g id="node3" class="node">
<title>Node3</title>
<g id="a_node3"><a xlink:href="../../d2/d44/classPHG4DisplayAction.html#aae11b07f1ea3c3b333d60322df04ba94" target="_top" xlink:title="find CheckVolume method">
<polygon fill="none" stroke="#000000" points="193,-129.5 193,-161.5 312,-161.5 312,-129.5 193,-129.5"/>
<text text-anchor="start" x="201" y="-148.5" font-family="FreeSans" font-size="10.00" fill="#000000">PHG4DisplayAction::</text>
<text text-anchor="middle" x="252.5" y="-136.5" font-family="FreeSans" font-size="10.00" fill="#000000">CheckVolume</text>
</a>
</g>
</g>
<!-- Node1&#45;&gt;Node3 -->
<g id="edge2" class="edge">
<title>Node1&#45;&gt;Node3</title>
<path fill="none" stroke="#191970" d="M119.2447,-114.4301C139.4103,-119.1319 162.0935,-124.4208 182.9506,-129.2838"/>
<polygon fill="#191970" stroke="#191970" points="182.1718,-132.696 192.7054,-131.5582 183.7614,-125.8789 182.1718,-132.696"/>
</g>
<!-- Node4 -->
<g id="node4" class="node">
<title>Node4</title>
<g id="a_node4"><a xlink:href="../../da/dc4/classG4LogicalVolume.html#ab8e71d7314a32cce675f385254e572e8" target="_top" xlink:title="G4LogicalVolume::GetDaughter">
<polygon fill="none" stroke="#000000" points="164,-90.5 164,-110.5 341,-110.5 341,-90.5 164,-90.5"/>
<text text-anchor="middle" x="252.5" y="-97.5" font-family="FreeSans" font-size="10.00" fill="#000000">G4LogicalVolume::GetDaughter</text>
</a>
</g>
</g>
<!-- Node1&#45;&gt;Node4 -->
<g id="edge3" class="edge">
<title>Node1&#45;&gt;Node4</title>
<path fill="none" stroke="#191970" d="M119.2447,-100.5C130.2047,-100.5 141.9084,-100.5 153.6584,-100.5"/>
<polygon fill="#191970" stroke="#191970" points="153.9786,-104.0001 163.9786,-100.5 153.9786,-97.0001 153.9786,-104.0001"/>
</g>
<!-- Node5 -->
<g id="node5" class="node">
<title>Node5</title>
<g id="a_node5"><a xlink:href="../../d1/d28/classG4VPhysicalVolume.html#ac9405fb42d546b5d545dae05a0ae7554" target="_top" xlink:title="G4VPhysicalVolume::\lGetLogicalVolume">
<polygon fill="none" stroke="#000000" points="191,-39.5 191,-71.5 314,-71.5 314,-39.5 191,-39.5"/>
<text text-anchor="start" x="199" y="-58.5" font-family="FreeSans" font-size="10.00" fill="#000000">G4VPhysicalVolume::</text>
<text text-anchor="middle" x="252.5" y="-46.5" font-family="FreeSans" font-size="10.00" fill="#000000">GetLogicalVolume</text>
</a>
</g>
</g>
<!-- Node1&#45;&gt;Node5 -->
<g id="edge4" class="edge">
<title>Node1&#45;&gt;Node5</title>
<path fill="none" stroke="#191970" d="M119.2447,-86.5699C138.7482,-82.0224 160.6067,-76.9259 180.8904,-72.1965"/>
<polygon fill="#191970" stroke="#191970" points="181.7602,-75.5877 190.7042,-69.9083 180.1706,-68.7705 181.7602,-75.5877"/>
</g>
<!-- Node6 -->
<g id="node6" class="node">
<title>Node6</title>
<g id="a_node6"><a xlink:href="../../da/dc4/classG4LogicalVolume.html#ad6683871d75da05168f6bfce5a32f85f" target="_top" xlink:title="G4LogicalVolume::GetNoDaughters">
<polygon fill="none" stroke="#000000" points="155,-.5 155,-20.5 350,-20.5 350,-.5 155,-.5"/>
<text text-anchor="middle" x="252.5" y="-7.5" font-family="FreeSans" font-size="10.00" fill="#000000">G4LogicalVolume::GetNoDaughters</text>
</a>
</g>
</g>
<!-- Node1&#45;&gt;Node6 -->
<g id="edge5" class="edge">
<title>Node1&#45;&gt;Node6</title>
<path fill="none" stroke="#191970" d="M76.6941,-84.2785C94.7729,-68.1449 124.7453,-43.9175 155,-30.5 161.2085,-27.7466 167.8089,-25.3673 174.5346,-23.312"/>
<polygon fill="#191970" stroke="#191970" points="175.7665,-26.6015 184.4469,-20.5268 173.8729,-19.8624 175.7665,-26.6015"/>
</g>
</g>
</svg>
