<?xml version="1.0" encoding="UTF-8" standalone="no"?>
<!DOCTYPE svg PUBLIC "-//W3C//DTD SVG 1.1//EN"
 "http://www.w3.org/Graphics/SVG/1.1/DTD/svg11.dtd">
<!-- Generated by graphviz version 2.40.1 (20161225.0304)
 -->
<!-- Title: G4VMscModel::ConvertTrueToGeom Pages: 1 -->
<svg width="388pt" height="245pt"
 viewBox="0.00 0.00 388.00 245.00" xmlns="http://www.w3.org/2000/svg" xmlns:xlink="http://www.w3.org/1999/xlink">
<g id="graph0" class="graph" transform="scale(1 1) rotate(0) translate(4 241)">
<title>G4VMscModel::ConvertTrueToGeom</title>
<!-- Node1 -->
<g id="node1" class="node">
<title>Node1</title>
<polygon fill="#bfbfbf" stroke="#000000" points="0,-102.5 0,-134.5 155,-134.5 155,-102.5 0,-102.5"/>
<text text-anchor="start" x="8" y="-121.5" font-family="FreeSans" font-size="10.00" fill="#000000">G4VMscModel::ConvertTrue</text>
<text text-anchor="middle" x="77.5" y="-109.5" font-family="FreeSans" font-size="10.00" fill="#000000">ToGeom</text>
</g>
<!-- Node2 -->
<g id="node2" class="node">
<title>Node2</title>
<g id="a_node2"><a xlink:href="../../d4/d8e/classG4LowEWentzelVIModel.html#abb79f918337f06fc12ffdc5afbb28d7d" target="_top" xlink:title="G4LowEWentzelVIModel\l::ComputeTruePathLengthLimit">
<polygon fill="none" stroke="#000000" points="199,-204.5 199,-236.5 372,-236.5 372,-204.5 199,-204.5"/>
<text text-anchor="start" x="207" y="-223.5" font-family="FreeSans" font-size="10.00" fill="#000000">G4LowEWentzelVIModel</text>
<text text-anchor="middle" x="285.5" y="-211.5" font-family="FreeSans" font-size="10.00" fill="#000000">::ComputeTruePathLengthLimit</text>
</a>
</g>
</g>
<!-- Node1&#45;&gt;Node2 -->
<g id="edge1" class="edge">
<title>Node1&#45;&gt;Node2</title>
<path fill="none" stroke="#191970" d="M104.6943,-140.843C126.7571,-157.9753 159.295,-181.0607 191,-195.5 198.4133,-198.8762 206.3689,-201.8653 214.4028,-204.4936"/>
<polygon fill="#191970" stroke="#191970" points="106.7947,-138.042 96.7749,-134.5987 102.4605,-143.5388 106.7947,-138.042"/>
</g>
<!-- Node3 -->
<g id="node3" class="node">
<title>Node3</title>
<g id="a_node3"><a xlink:href="../../d8/d2f/classG4WentzelVIModel.html#a2c800adcd96eb414b0827d208bfb46ee" target="_top" xlink:title="G4WentzelVIModel::Compute\lTruePathLengthLimit">
<polygon fill="none" stroke="#000000" points="203.5,-153.5 203.5,-185.5 367.5,-185.5 367.5,-153.5 203.5,-153.5"/>
<text text-anchor="start" x="211.5" y="-172.5" font-family="FreeSans" font-size="10.00" fill="#000000">G4WentzelVIModel::Compute</text>
<text text-anchor="middle" x="285.5" y="-160.5" font-family="FreeSans" font-size="10.00" fill="#000000">TruePathLengthLimit</text>
</a>
</g>
</g>
<!-- Node1&#45;&gt;Node3 -->
<g id="edge2" class="edge">
<title>Node1&#45;&gt;Node3</title>
<path fill="none" stroke="#191970" d="M152.9612,-137.0025C174.8978,-142.3812 198.6704,-148.2101 219.9451,-153.4264"/>
<polygon fill="#191970" stroke="#191970" points="153.5728,-133.5489 143.027,-134.5667 151.9058,-140.3475 153.5728,-133.5489"/>
</g>
<!-- Node4 -->
<g id="node4" class="node">
<title>Node4</title>
<g id="a_node4"><a xlink:href="../../d4/da8/classG4UrbanMscModel.html#aea643fad3aceb315f928ed32b62446b8" target="_top" xlink:title="G4UrbanMscModel::Compute\lTruePathLengthLimit">
<polygon fill="none" stroke="#000000" points="203.5,-102.5 203.5,-134.5 367.5,-134.5 367.5,-102.5 203.5,-102.5"/>
<text text-anchor="start" x="211.5" y="-121.5" font-family="FreeSans" font-size="10.00" fill="#000000">G4UrbanMscModel::Compute</text>
<text text-anchor="middle" x="285.5" y="-109.5" font-family="FreeSans" font-size="10.00" fill="#000000">TruePathLengthLimit</text>
</a>
</g>
</g>
<!-- Node1&#45;&gt;Node4 -->
<g id="edge3" class="edge">
<title>Node1&#45;&gt;Node4</title>
<path fill="none" stroke="#191970" d="M165.2773,-118.5C177.8893,-118.5 190.8276,-118.5 203.3256,-118.5"/>
<polygon fill="#191970" stroke="#191970" points="165.2473,-115.0001 155.2473,-118.5 165.2473,-122.0001 165.2473,-115.0001"/>
</g>
<!-- Node5 -->
<g id="node5" class="node">
<title>Node5</title>
<g id="a_node5"><a xlink:href="../../db/dfc/classG4UrbanAdjointMscModel.html#ae7a844555aab4e856ec528f2f53c026c" target="_top" xlink:title="G4UrbanAdjointMscModel\l::ComputeTruePathLengthLimit">
<polygon fill="none" stroke="#000000" points="199,-51.5 199,-83.5 372,-83.5 372,-51.5 199,-51.5"/>
<text text-anchor="start" x="207" y="-70.5" font-family="FreeSans" font-size="10.00" fill="#000000">G4UrbanAdjointMscModel</text>
<text text-anchor="middle" x="285.5" y="-58.5" font-family="FreeSans" font-size="10.00" fill="#000000">::ComputeTruePathLengthLimit</text>
</a>
</g>
</g>
<!-- Node1&#45;&gt;Node5 -->
<g id="edge4" class="edge">
<title>Node1&#45;&gt;Node5</title>
<path fill="none" stroke="#191970" d="M152.9612,-99.9975C174.8978,-94.6188 198.6704,-88.7899 219.9451,-83.5736"/>
<polygon fill="#191970" stroke="#191970" points="151.9058,-96.6525 143.027,-102.4333 153.5728,-103.4511 151.9058,-96.6525"/>
</g>
<!-- Node6 -->
<g id="node6" class="node">
<title>Node6</title>
<g id="a_node6"><a xlink:href="../../d9/d3b/classG4GoudsmitSaundersonMscModel.html#a0de90a47374946419b4f1d4d37521b3c" target="_top" xlink:title="G4GoudsmitSaundersonMscModel\l::ComputeTruePathLengthLimit">
<polygon fill="none" stroke="#000000" points="191,-.5 191,-32.5 380,-32.5 380,-.5 191,-.5"/>
<text text-anchor="start" x="199" y="-19.5" font-family="FreeSans" font-size="10.00" fill="#000000">G4GoudsmitSaundersonMscModel</text>
<text text-anchor="middle" x="285.5" y="-7.5" font-family="FreeSans" font-size="10.00" fill="#000000">::ComputeTruePathLengthLimit</text>
</a>
</g>
</g>
<!-- Node1&#45;&gt;Node6 -->
<g id="edge5" class="edge">
<title>Node1&#45;&gt;Node6</title>
<path fill="none" stroke="#191970" d="M105.1837,-96.2441C127.286,-79.4236 159.6428,-56.853 191,-42.5 199.2002,-38.7465 208.0555,-35.4328 216.9431,-32.5377"/>
<polygon fill="#191970" stroke="#191970" points="103.0137,-93.4977 97.2384,-102.3801 107.2923,-99.038 103.0137,-93.4977"/>
</g>
</g>
</svg>
