<?xml version="1.0" encoding="UTF-8" standalone="no"?>
<!DOCTYPE svg PUBLIC "-//W3C//DTD SVG 1.1//EN"
 "http://www.w3.org/Graphics/SVG/1.1/DTD/svg11.dtd">
<!-- Generated by graphviz version 2.40.1 (20161225.0304)
 -->
<!-- Title: geant4/tree/geant4&#45;10.6&#45;release/source/processes/electromagnetic/dna/models/include/G4VDNAModel.hh Pages: 1 -->
<svg width="2979pt" height="692pt"
 viewBox="0.00 0.00 2979.00 692.00" xmlns="http://www.w3.org/2000/svg" xmlns:xlink="http://www.w3.org/1999/xlink">
<g id="graph0" class="graph" transform="scale(1 1) rotate(0) translate(4 688)">
<title>geant4/tree/geant4&#45;10.6&#45;release/source/processes/electromagnetic/dna/models/include/G4VDNAModel.hh</title>
<!-- Node1 -->
<g id="node1" class="node">
<title>Node1</title>
<polygon fill="#bfbfbf" stroke="#000000" points="2196.5,-627.5 2196.5,-683.5 2409.5,-683.5 2409.5,-627.5 2196.5,-627.5"/>
<text text-anchor="start" x="2204.5" y="-670.5" font-family="FreeSans" font-size="10.00" fill="#000000">geant4/tree/geant4</text>
<text text-anchor="start" x="2204.5" y="-658.5" font-family="FreeSans" font-size="10.00" fill="#000000">&#45;10.6&#45;release/source</text>
<text text-anchor="start" x="2204.5" y="-646.5" font-family="FreeSans" font-size="10.00" fill="#000000">/processes/electromagnetic</text>
<text text-anchor="middle" x="2303" y="-634.5" font-family="FreeSans" font-size="10.00" fill="#000000">/dna/models/include/G4VDNAModel.hh</text>
</g>
<!-- Node2 -->
<g id="node2" class="node">
<title>Node2</title>
<g id="a_node2"><a xlink:href="../../d1/dcb/G4DNACrossSectionDataSet_8hh.html" target="_top" xlink:title="G4DNACrossSectionDataSet.hh">
<polygon fill="none" stroke="#000000" points="500,-456.5 500,-476.5 674,-476.5 674,-456.5 500,-456.5"/>
<text text-anchor="middle" x="587" y="-463.5" font-family="FreeSans" font-size="10.00" fill="#000000">G4DNACrossSectionDataSet.hh</text>
</a>
</g>
</g>
<!-- Node1&#45;&gt;Node2 -->
<g id="edge1" class="edge">
<title>Node1&#45;&gt;Node2</title>
<path fill="none" stroke="#191970" d="M2196.3824,-652.2975C1956.2918,-643.8281 1355.5135,-615.5917 860,-534 777.6312,-520.4371 683.5095,-494.8809 630.0773,-479.402"/>
<polygon fill="#191970" stroke="#191970" points="630.8475,-475.9809 620.2674,-476.5407 628.8873,-482.7008 630.8475,-475.9809"/>
</g>
<!-- Node20 -->
<g id="node20" class="node">
<title>Node20</title>
<g id="a_node20"><a xlink:href="../../d1/d9b/G4DNAMolecularMaterial_8hh.html" target="_top" xlink:title="G4DNAMolecularMaterial.hh">
<polygon fill="none" stroke="#000000" points="2349,-285.5 2349,-305.5 2507,-305.5 2507,-285.5 2349,-285.5"/>
<text text-anchor="middle" x="2428" y="-292.5" font-family="FreeSans" font-size="10.00" fill="#000000">G4DNAMolecularMaterial.hh</text>
</a>
</g>
</g>
<!-- Node1&#45;&gt;Node20 -->
<g id="edge34" class="edge">
<title>Node1&#45;&gt;Node20</title>
<path fill="none" stroke="#191970" d="M2409.6733,-645.1048C2540.7565,-629.3114 2746,-593.419 2746,-523.5 2746,-523.5 2746,-523.5 2746,-409.5 2746,-369.9463 2722.3458,-361.6178 2688,-342 2659.3226,-325.6199 2580.6013,-312.9511 2517.2319,-305.0032"/>
<polygon fill="#191970" stroke="#191970" points="2517.5561,-301.5167 2507.2033,-303.7682 2516.7006,-308.4643 2517.5561,-301.5167"/>
</g>
<!-- Node23 -->
<g id="node23" class="node">
<title>Node23</title>
<g id="a_node23"><a xlink:href="../../d6/df4/G4LogLogInterpolation_8hh.html" target="_top" xlink:title="G4LogLogInterpolation.hh">
<polygon fill="none" stroke="#000000" points="2516.5,-399.5 2516.5,-419.5 2663.5,-419.5 2663.5,-399.5 2516.5,-399.5"/>
<text text-anchor="middle" x="2590" y="-406.5" font-family="FreeSans" font-size="10.00" fill="#000000">G4LogLogInterpolation.hh</text>
</a>
</g>
</g>
<!-- Node1&#45;&gt;Node23 -->
<g id="edge42" class="edge">
<title>Node1&#45;&gt;Node23</title>
<path fill="none" stroke="#191970" d="M2352.4779,-627.3838C2390.417,-604.6561 2443.0454,-570.5284 2484,-534 2521.5474,-500.5106 2557.9118,-453.7181 2576.7345,-428.0943"/>
<polygon fill="#191970" stroke="#191970" points="2579.8035,-429.8244 2582.8451,-419.6755 2574.1384,-425.7124 2579.8035,-429.8244"/>
</g>
<!-- Node25 -->
<g id="node25" class="node">
<title>Node25</title>
<g id="a_node25"><a xlink:href="../../d0/d59/G4VEmModel_8hh.html" target="_top" xlink:title="G4VEmModel.hh">
<polygon fill="none" stroke="#000000" points="1935,-570.5 1935,-590.5 2035,-590.5 2035,-570.5 1935,-570.5"/>
<text text-anchor="middle" x="1985" y="-577.5" font-family="FreeSans" font-size="10.00" fill="#000000">G4VEmModel.hh</text>
</a>
</g>
</g>
<!-- Node1&#45;&gt;Node25 -->
<g id="edge48" class="edge">
<title>Node1&#45;&gt;Node25</title>
<path fill="none" stroke="#191970" d="M2196.226,-630.3174C2142.7723,-617.7105 2080.4596,-603.0141 2037.4357,-592.8669"/>
<polygon fill="#191970" stroke="#191970" points="2038.011,-589.4066 2027.4746,-590.5176 2036.4041,-596.2197 2038.011,-589.4066"/>
</g>
<!-- Node3 -->
<g id="node3" class="node">
<title>Node3</title>
<g id="a_node3"><a xlink:href="../../da/db6/SystemOfUnits_8h.html" target="_top" xlink:title="CLHEP/Units/SystemOfUnits.h">
<polygon fill="none" stroke="#000000" points="0,-228.5 0,-248.5 166,-248.5 166,-228.5 0,-228.5"/>
<text text-anchor="middle" x="83" y="-235.5" font-family="FreeSans" font-size="10.00" fill="#000000">CLHEP/Units/SystemOfUnits.h</text>
</a>
</g>
</g>
<!-- Node2&#45;&gt;Node3 -->
<g id="edge2" class="edge">
<title>Node2&#45;&gt;Node3</title>
<path fill="none" stroke="#191970" d="M499.6644,-462.9517C422.1429,-458.1135 306.3975,-446.726 209,-420 119.4839,-395.4367 64.443,-393.691 34,-306 30.939,-297.1829 30.3158,-293.5754 34,-285 39.156,-272.9989 49.1002,-262.6389 58.6904,-254.7635"/>
<polygon fill="#191970" stroke="#191970" points="61.0692,-257.351 66.8978,-248.5034 56.824,-251.7852 61.0692,-257.351"/>
</g>
<!-- Node4 -->
<g id="node4" class="node">
<title>Node4</title>
<g id="a_node4"><a xlink:href="../../d1/df0/G4ShellEMDataSet_8hh.html" target="_top" xlink:title="G4ShellEMDataSet.hh">
<polygon fill="none" stroke="#000000" points="952.5,-399.5 952.5,-419.5 1079.5,-419.5 1079.5,-399.5 952.5,-399.5"/>
<text text-anchor="middle" x="1016" y="-406.5" font-family="FreeSans" font-size="10.00" fill="#000000">G4ShellEMDataSet.hh</text>
</a>
</g>
</g>
<!-- Node2&#45;&gt;Node4 -->
<g id="edge3" class="edge">
<title>Node2&#45;&gt;Node4</title>
<path fill="none" stroke="#191970" d="M662.7091,-456.4408C741.4395,-445.9801 863.8871,-429.7108 941.9838,-419.3343"/>
<polygon fill="#191970" stroke="#191970" points="942.7749,-422.7601 952.2268,-417.9734 941.8529,-415.821 942.7749,-422.7601"/>
</g>
<!-- Node4&#45;&gt;Node3 -->
<g id="edge5" class="edge">
<title>Node4&#45;&gt;Node3</title>
<path fill="none" stroke="#191970" d="M952.2847,-405.2178C835.5092,-397.112 591.5184,-378.9115 508,-363 386.9766,-339.9432 360.2347,-319.6242 242,-285 203.2714,-273.6586 159.231,-260.7803 127.3364,-251.4571"/>
<polygon fill="#191970" stroke="#191970" points="128.0103,-248.0076 117.4299,-248.5614 126.0463,-254.7265 128.0103,-248.0076"/>
</g>
<!-- Node5 -->
<g id="node5" class="node">
<title>Node5</title>
<polygon fill="none" stroke="#bfbfbf" points="2158.5,-228.5 2158.5,-248.5 2207.5,-248.5 2207.5,-228.5 2158.5,-228.5"/>
<text text-anchor="middle" x="2183" y="-235.5" font-family="FreeSans" font-size="10.00" fill="#000000">vector</text>
</g>
<!-- Node4&#45;&gt;Node5 -->
<g id="edge4" class="edge">
<title>Node4&#45;&gt;Node5</title>
<path fill="none" stroke="#191970" d="M1079.7103,-407.5844C1179.7274,-403.7544 1379.3778,-392.7837 1546,-363 1580.9187,-356.7583 1588.108,-348.3892 1623,-342 1787.2594,-311.922 1834.1092,-342.775 1997,-306 2052.8984,-293.3801 2114.9258,-268.5455 2151.3592,-252.7736"/>
<polygon fill="#191970" stroke="#191970" points="2153.1735,-255.8001 2160.9302,-248.5831 2150.366,-249.3878 2153.1735,-255.8001"/>
</g>
<!-- Node6 -->
<g id="node6" class="node">
<title>Node6</title>
<g id="a_node6"><a xlink:href="../../da/d46/globals_8hh.html" target="_top" xlink:title="globals.hh">
<polygon fill="none" stroke="#000000" points="1349,-228.5 1349,-248.5 1417,-248.5 1417,-228.5 1349,-228.5"/>
<text text-anchor="middle" x="1383" y="-235.5" font-family="FreeSans" font-size="10.00" fill="#000000">globals.hh</text>
</a>
</g>
</g>
<!-- Node4&#45;&gt;Node6 -->
<g id="edge6" class="edge">
<title>Node4&#45;&gt;Node6</title>
<path fill="none" stroke="#191970" d="M1026.4796,-399.4411C1039.333,-385.8438 1058.0203,-361.1031 1046,-342 1026.3084,-310.7054 990.6916,-337.2946 971,-306 966.0293,-298.1004 964.7814,-291.9599 971,-285 995.2025,-257.9122 1237.3924,-244.6313 1338.7553,-240.2252"/>
<polygon fill="#191970" stroke="#191970" points="1339.1296,-243.7125 1348.9717,-239.7905 1338.8319,-236.7188 1339.1296,-243.7125"/>
</g>
<!-- Node16 -->
<g id="node16" class="node">
<title>Node16</title>
<g id="a_node16"><a xlink:href="../../d8/d76/G4VEMDataSet_8hh.html" target="_top" xlink:title="G4VEMDataSet.hh">
<polygon fill="none" stroke="#000000" points="1632.5,-342.5 1632.5,-362.5 1741.5,-362.5 1741.5,-342.5 1632.5,-342.5"/>
<text text-anchor="middle" x="1687" y="-349.5" font-family="FreeSans" font-size="10.00" fill="#000000">G4VEMDataSet.hh</text>
</a>
</g>
</g>
<!-- Node4&#45;&gt;Node16 -->
<g id="edge25" class="edge">
<title>Node4&#45;&gt;Node16</title>
<path fill="none" stroke="#191970" d="M1079.8564,-406.123C1189.9427,-399.9538 1422.4693,-385.3979 1618,-363 1619.4672,-362.8319 1620.951,-362.6561 1622.4467,-362.4735"/>
<polygon fill="#191970" stroke="#191970" points="1622.967,-365.9355 1632.4365,-361.1839 1622.0707,-358.9931 1622.967,-365.9355"/>
</g>
<!-- Node7 -->
<g id="node7" class="node">
<title>Node7</title>
<g id="a_node7"><a xlink:href="../../df/de9/G4ios_8hh.html" target="_top" xlink:title="G4ios.hh">
<polygon fill="none" stroke="#000000" points="1434.5,-57.5 1434.5,-77.5 1495.5,-77.5 1495.5,-57.5 1434.5,-57.5"/>
<text text-anchor="middle" x="1465" y="-64.5" font-family="FreeSans" font-size="10.00" fill="#000000">G4ios.hh</text>
</a>
</g>
</g>
<!-- Node6&#45;&gt;Node7 -->
<g id="edge7" class="edge">
<title>Node6&#45;&gt;Node7</title>
<path fill="none" stroke="#191970" d="M1411.851,-228.4092C1428.3517,-221.0272 1447.7507,-209.2553 1458,-192 1477.2508,-159.5904 1473.5522,-113.6707 1469.2173,-87.6133"/>
<polygon fill="#191970" stroke="#191970" points="1472.6543,-86.9511 1467.3856,-77.7592 1465.7721,-88.2305 1472.6543,-86.9511"/>
</g>
<!-- Node8 -->
<g id="node8" class="node">
<title>Node8</title>
<g id="a_node8"><a xlink:href="../../de/d29/G4Types_8hh.html" target="_top" xlink:title="G4Types.hh">
<polygon fill="none" stroke="#ff0000" points="719.5,-.5 719.5,-20.5 794.5,-20.5 794.5,-.5 719.5,-.5"/>
<text text-anchor="middle" x="757" y="-7.5" font-family="FreeSans" font-size="10.00" fill="#000000">G4Types.hh</text>
</a>
</g>
</g>
<!-- Node6&#45;&gt;Node8 -->
<g id="edge11" class="edge">
<title>Node6&#45;&gt;Node8</title>
<path fill="none" stroke="#191970" d="M1348.7667,-235.5906C1221.6381,-224.4396 781.959,-182.6551 743,-135 718.4635,-104.9866 734.8782,-56.4179 747.1158,-29.6787"/>
<polygon fill="#191970" stroke="#191970" points="750.3109,-31.1108 751.5073,-20.5837 744.0073,-28.067 750.3109,-31.1108"/>
</g>
<!-- Node10 -->
<g id="node10" class="node">
<title>Node10</title>
<polygon fill="none" stroke="#bfbfbf" points="1093.5,-171.5 1093.5,-191.5 1158.5,-191.5 1158.5,-171.5 1093.5,-171.5"/>
<text text-anchor="middle" x="1126" y="-178.5" font-family="FreeSans" font-size="10.00" fill="#000000">algorithm</text>
</g>
<!-- Node6&#45;&gt;Node10 -->
<g id="edge10" class="edge">
<title>Node6&#45;&gt;Node10</title>
<path fill="none" stroke="#191970" d="M1348.8646,-231.5766C1308.1275,-223.221 1237.7215,-208.486 1168.4147,-192.278"/>
<polygon fill="#191970" stroke="#191970" points="1169.1812,-188.8629 1158.6457,-189.9817 1167.5794,-195.6771 1169.1812,-188.8629"/>
</g>
<!-- Node11 -->
<g id="node11" class="node">
<title>Node11</title>
<g id="a_node11"><a xlink:href="../../d2/df2/source_2global_2management_2include_2G4String_8hh.html" target="_top" xlink:title="G4String.hh">
<polygon fill="none" stroke="#ff0000" points="833,-57.5 833,-77.5 909,-77.5 909,-57.5 833,-57.5"/>
<text text-anchor="middle" x="871" y="-64.5" font-family="FreeSans" font-size="10.00" fill="#000000">G4String.hh</text>
</a>
</g>
</g>
<!-- Node6&#45;&gt;Node11 -->
<g id="edge12" class="edge">
<title>Node6&#45;&gt;Node11</title>
<path fill="none" stroke="#191970" d="M1348.7977,-235.0918C1279.3318,-227.8867 1124.0735,-210.2643 1074,-192 1001.3142,-165.4879 926.417,-111.2062 891.384,-83.9228"/>
<polygon fill="#191970" stroke="#191970" points="893.3825,-81.0416 883.3617,-77.6014 889.05,-86.5398 893.3825,-81.0416"/>
</g>
<!-- Node12 -->
<g id="node12" class="node">
<title>Node12</title>
<g id="a_node12"><a xlink:href="../../d2/d54/templates_8hh.html" target="_top" xlink:title="templates.hh">
<polygon fill="none" stroke="#ff0000" points="1176.5,-171.5 1176.5,-191.5 1259.5,-191.5 1259.5,-171.5 1176.5,-171.5"/>
<text text-anchor="middle" x="1218" y="-178.5" font-family="FreeSans" font-size="10.00" fill="#000000">templates.hh</text>
</a>
</g>
</g>
<!-- Node6&#45;&gt;Node12 -->
<g id="edge15" class="edge">
<title>Node6&#45;&gt;Node12</title>
<path fill="none" stroke="#191970" d="M1353.8811,-228.4408C1326.8672,-219.1087 1286.4713,-205.1537 1256.7429,-194.8839"/>
<polygon fill="#191970" stroke="#191970" points="1257.6996,-191.5115 1247.1048,-191.5544 1255.4139,-198.1278 1257.6996,-191.5115"/>
</g>
<!-- Node13 -->
<g id="node13" class="node">
<title>Node13</title>
<g id="a_node13"><a xlink:href="../../d5/d4f/G4Exception_8hh.html" target="_top" xlink:title="G4Exception.hh">
<polygon fill="none" stroke="#ff0000" points="1160,-114.5 1160,-134.5 1256,-134.5 1256,-114.5 1160,-114.5"/>
<text text-anchor="middle" x="1208" y="-121.5" font-family="FreeSans" font-size="10.00" fill="#000000">G4Exception.hh</text>
</a>
</g>
</g>
<!-- Node6&#45;&gt;Node13 -->
<g id="edge16" class="edge">
<title>Node6&#45;&gt;Node13</title>
<path fill="none" stroke="#191970" d="M1348.7896,-235.662C1273.9706,-229.1093 1101.0869,-211.9496 1084,-192 1060.0366,-164.0218 1106.9486,-145.6297 1149.7761,-135.2111"/>
<polygon fill="#191970" stroke="#191970" points="1150.7208,-138.5851 1159.6744,-132.9209 1149.1428,-131.7653 1150.7208,-138.5851"/>
</g>
<!-- Node14 -->
<g id="node14" class="node">
<title>Node14</title>
<g id="a_node14"><a xlink:href="../../dc/d3a/G4EnvironmentUtils_8hh.html" target="_top" xlink:title="G4EnvironmentUtils.hh">
<polygon fill="none" stroke="#ff0000" points="1316.5,-171.5 1316.5,-191.5 1449.5,-191.5 1449.5,-171.5 1316.5,-171.5"/>
<text text-anchor="middle" x="1383" y="-178.5" font-family="FreeSans" font-size="10.00" fill="#000000">G4EnvironmentUtils.hh</text>
</a>
</g>
</g>
<!-- Node6&#45;&gt;Node14 -->
<g id="edge19" class="edge">
<title>Node6&#45;&gt;Node14</title>
<path fill="none" stroke="#191970" d="M1383,-228.3095C1383,-220.9335 1383,-210.72 1383,-201.715"/>
<polygon fill="#191970" stroke="#191970" points="1386.5001,-201.6022 1383,-191.6022 1379.5001,-201.6023 1386.5001,-201.6022"/>
</g>
<!-- Node7&#45;&gt;Node8 -->
<g id="edge8" class="edge">
<title>Node7&#45;&gt;Node8</title>
<path fill="none" stroke="#191970" d="M1434.1229,-65.0141C1322.5835,-56.0343 939.9835,-25.2317 804.7883,-14.3474"/>
<polygon fill="#191970" stroke="#191970" points="804.9835,-10.8518 794.7348,-13.538 804.4217,-17.8293 804.9835,-10.8518"/>
</g>
<!-- Node9 -->
<g id="node9" class="node">
<title>Node9</title>
<polygon fill="none" stroke="#bfbfbf" points="1435,-.5 1435,-20.5 1495,-20.5 1495,-.5 1435,-.5"/>
<text text-anchor="middle" x="1465" y="-7.5" font-family="FreeSans" font-size="10.00" fill="#000000">iostream</text>
</g>
<!-- Node7&#45;&gt;Node9 -->
<g id="edge9" class="edge">
<title>Node7&#45;&gt;Node9</title>
<path fill="none" stroke="#191970" d="M1465,-57.3095C1465,-49.9335 1465,-39.72 1465,-30.715"/>
<polygon fill="#191970" stroke="#191970" points="1468.5001,-30.6022 1465,-20.6022 1461.5001,-30.6023 1468.5001,-30.6022"/>
</g>
<!-- Node11&#45;&gt;Node8 -->
<g id="edge13" class="edge">
<title>Node11&#45;&gt;Node8</title>
<path fill="none" stroke="#191970" d="M850.8815,-57.4408C833.0028,-48.5014 806.6404,-35.3202 786.3991,-25.1996"/>
<polygon fill="#191970" stroke="#191970" points="787.8104,-21.9921 777.3008,-20.6504 784.6798,-28.2531 787.8104,-21.9921"/>
</g>
<!-- Node11&#45;&gt;Node9 -->
<g id="edge14" class="edge">
<title>Node11&#45;&gt;Node9</title>
<path fill="none" stroke="#191970" d="M909.061,-63.8477C1015.494,-53.6344 1315.5199,-24.844 1424.6612,-14.3709"/>
<polygon fill="#191970" stroke="#191970" points="1425.2952,-17.8262 1434.9151,-13.3869 1424.6265,-10.8582 1425.2952,-17.8262"/>
</g>
<!-- Node13&#45;&gt;Node7 -->
<g id="edge17" class="edge">
<title>Node13&#45;&gt;Node7</title>
<path fill="none" stroke="#191970" d="M1253.3548,-114.4408C1301.7176,-103.7144 1377.6169,-86.8807 1424.1716,-76.5553"/>
<polygon fill="#191970" stroke="#191970" points="1425.2014,-79.9121 1434.2063,-74.3297 1423.6856,-73.0781 1425.2014,-79.9121"/>
</g>
<!-- Node13&#45;&gt;Node11 -->
<g id="edge18" class="edge">
<title>Node13&#45;&gt;Node11</title>
<path fill="none" stroke="#191970" d="M1159.7161,-116.3333C1095.7552,-105.515 983.5733,-86.5406 919.5027,-75.7037"/>
<polygon fill="#191970" stroke="#191970" points="919.7098,-72.1891 909.2661,-73.9723 918.5424,-79.0911 919.7098,-72.1891"/>
</g>
<!-- Node14&#45;&gt;Node7 -->
<g id="edge22" class="edge">
<title>Node14&#45;&gt;Node7</title>
<path fill="none" stroke="#191970" d="M1390.277,-171.3833C1404.0403,-152.2488 1434.0713,-110.4984 1451.583,-86.1529"/>
<polygon fill="#191970" stroke="#191970" points="1454.6235,-87.9198 1457.6215,-77.7579 1448.9408,-83.8322 1454.6235,-87.9198"/>
</g>
<!-- Node14&#45;&gt;Node9 -->
<g id="edge21" class="edge">
<title>Node14&#45;&gt;Node9</title>
<path fill="none" stroke="#191970" d="M1385.0477,-171.267C1389.7439,-149.259 1402.6409,-96.2439 1425,-57 1430.9923,-46.4826 1439.5496,-36.1372 1447.2125,-27.8847"/>
<polygon fill="#191970" stroke="#191970" points="1449.7442,-30.3015 1454.1726,-20.6765 1444.7085,-25.4392 1449.7442,-30.3015"/>
</g>
<!-- Node14&#45;&gt;Node11 -->
<g id="edge23" class="edge">
<title>Node14&#45;&gt;Node11</title>
<path fill="none" stroke="#191970" d="M1329.8955,-171.4632C1282.7926,-162.4162 1212.1736,-148.4988 1151,-135 1069.4069,-116.9953 975.034,-93.7361 919.3284,-79.753"/>
<polygon fill="#191970" stroke="#191970" points="919.9404,-76.298 909.3887,-77.2533 918.2331,-83.0866 919.9404,-76.298"/>
</g>
<!-- Node14&#45;&gt;Node13 -->
<g id="edge24" class="edge">
<title>Node14&#45;&gt;Node13</title>
<path fill="none" stroke="#191970" d="M1352.1163,-171.4408C1323.3406,-162.0681 1280.2483,-148.0323 1248.6804,-137.7502"/>
<polygon fill="#191970" stroke="#191970" points="1249.4611,-134.3235 1238.8687,-134.5544 1247.2931,-140.9794 1249.4611,-134.3235"/>
</g>
<!-- Node15 -->
<g id="node15" class="node">
<title>Node15</title>
<polygon fill="none" stroke="#bfbfbf" points="1800.5,-114.5 1800.5,-134.5 1839.5,-134.5 1839.5,-114.5 1800.5,-114.5"/>
<text text-anchor="middle" x="1820" y="-121.5" font-family="FreeSans" font-size="10.00" fill="#000000">map</text>
</g>
<!-- Node14&#45;&gt;Node15 -->
<g id="edge20" class="edge">
<title>Node14&#45;&gt;Node15</title>
<path fill="none" stroke="#191970" d="M1449.8466,-172.7809C1546.3019,-160.1998 1720.5592,-137.4705 1790.132,-128.3958"/>
<polygon fill="#191970" stroke="#191970" points="1790.908,-131.8243 1800.3713,-127.0603 1790.0025,-124.8831 1790.908,-131.8243"/>
</g>
<!-- Node16&#45;&gt;Node6 -->
<g id="edge26" class="edge">
<title>Node16&#45;&gt;Node6</title>
<path fill="none" stroke="#191970" d="M1657.8232,-342.4982C1631.7483,-333.4183 1592.5877,-319.4323 1559,-306 1537.3792,-297.3535 1532.6208,-293.6465 1511,-285 1481.3483,-273.1418 1447.3534,-260.8521 1421.8529,-251.8873"/>
<polygon fill="#191970" stroke="#191970" points="1422.7717,-248.5008 1412.1768,-248.5018 1420.4598,-255.1081 1422.7717,-248.5008"/>
</g>
<!-- Node17 -->
<g id="node17" class="node">
<title>Node17</title>
<g id="a_node17"><a xlink:href="../../d3/d76/G4DataVector_8hh.html" target="_top" xlink:title="G4DataVector.hh">
<polygon fill="none" stroke="#000000" points="2803.5,-285.5 2803.5,-305.5 2904.5,-305.5 2904.5,-285.5 2803.5,-285.5"/>
<text text-anchor="middle" x="2854" y="-292.5" font-family="FreeSans" font-size="10.00" fill="#000000">G4DataVector.hh</text>
</a>
</g>
</g>
<!-- Node16&#45;&gt;Node17 -->
<g id="edge27" class="edge">
<title>Node16&#45;&gt;Node17</title>
<path fill="none" stroke="#191970" d="M1741.5357,-350.233C1950.9108,-341.5268 2695.98,-310.5189 2793.0979,-305.468"/>
<polygon fill="#191970" stroke="#191970" points="2793.557,-308.9467 2803.3274,-304.8493 2793.1344,-301.9595 2793.557,-308.9467"/>
</g>
<!-- Node17&#45;&gt;Node5 -->
<g id="edge29" class="edge">
<title>Node17&#45;&gt;Node5</title>
<path fill="none" stroke="#191970" d="M2803.3192,-286.2237C2800.171,-285.7738 2797.0455,-285.3604 2794,-285 2542.0763,-255.1909 2471.5335,-294.2183 2217.6005,-248.6743"/>
<polygon fill="#191970" stroke="#191970" points="2218.1782,-245.222 2207.7131,-246.8751 2216.925,-252.1089 2218.1782,-245.222"/>
</g>
<!-- Node17&#45;&gt;Node6 -->
<g id="edge28" class="edge">
<title>Node17&#45;&gt;Node6</title>
<path fill="none" stroke="#191970" d="M2803.3309,-286.1182C2800.1798,-285.6944 2797.0505,-285.3156 2794,-285 2519.4734,-256.5971 1635.9694,-242.1806 1427.4118,-239.1236"/>
<polygon fill="#191970" stroke="#191970" points="1427.2019,-235.6203 1417.1521,-238.9744 1427.1001,-242.6195 1427.2019,-235.6203"/>
</g>
<!-- Node17&#45;&gt;Node7 -->
<g id="edge30" class="edge">
<title>Node17&#45;&gt;Node7</title>
<path fill="none" stroke="#191970" d="M2854.0629,-285.1214C2853.6115,-270.7026 2850.7726,-244.5236 2837,-228 2758.8122,-134.1945 2705.7721,-142.3899 2587,-114 2480.342,-88.5057 1694.4756,-71.9059 1505.6905,-68.2591"/>
<polygon fill="#191970" stroke="#191970" points="1505.6975,-64.7587 1495.6321,-68.0662 1505.5632,-71.7574 1505.6975,-64.7587"/>
</g>
<!-- Node17&#45;&gt;Node9 -->
<g id="edge31" class="edge">
<title>Node17&#45;&gt;Node9</title>
<path fill="none" stroke="#191970" d="M2860.4063,-285.2593C2871.9375,-265.8164 2895,-221.8829 2895,-181.5 2895,-181.5 2895,-181.5 2895,-124.5 2895,-52.7934 1737.3545,-17.8344 1505.2366,-11.5455"/>
<polygon fill="#191970" stroke="#191970" points="1505.2879,-8.0457 1495.1975,-11.2758 1505.0999,-15.0432 1505.2879,-8.0457"/>
</g>
<!-- Node18 -->
<g id="node18" class="node">
<title>Node18</title>
<polygon fill="none" stroke="#bfbfbf" points="2652.5,-228.5 2652.5,-248.5 2707.5,-248.5 2707.5,-228.5 2652.5,-228.5"/>
<text text-anchor="middle" x="2680" y="-235.5" font-family="FreeSans" font-size="10.00" fill="#000000">fstream</text>
</g>
<!-- Node17&#45;&gt;Node18 -->
<g id="edge32" class="edge">
<title>Node17&#45;&gt;Node18</title>
<path fill="none" stroke="#191970" d="M2823.2928,-285.4408C2793.7131,-275.7509 2748.9188,-261.0768 2717.3012,-250.7194"/>
<polygon fill="#191970" stroke="#191970" points="2718.1275,-247.3071 2707.5348,-247.52 2715.9483,-253.9593 2718.1275,-247.3071"/>
</g>
<!-- Node19 -->
<g id="node19" class="node">
<title>Node19</title>
<polygon fill="none" stroke="#bfbfbf" points="2725.5,-228.5 2725.5,-248.5 2828.5,-248.5 2828.5,-228.5 2725.5,-228.5"/>
<text text-anchor="middle" x="2777" y="-235.5" font-family="FreeSans" font-size="10.00" fill="#000000">G4DataVector.icc</text>
</g>
<!-- Node17&#45;&gt;Node19 -->
<g id="edge33" class="edge">
<title>Node17&#45;&gt;Node19</title>
<path fill="none" stroke="#191970" d="M2840.2339,-285.3095C2828.7369,-276.7987 2812.1366,-264.5102 2798.8293,-254.6594"/>
<polygon fill="#191970" stroke="#191970" points="2800.7668,-251.7389 2790.6469,-248.6022 2796.6019,-257.3652 2800.7668,-251.7389"/>
</g>
<!-- Node20&#45;&gt;Node5 -->
<g id="edge38" class="edge">
<title>Node20&#45;&gt;Node5</title>
<path fill="none" stroke="#191970" d="M2376.9823,-285.4881C2336.3343,-277.2328 2277.793,-264.7261 2217.8376,-249.0669"/>
<polygon fill="#191970" stroke="#191970" points="2218.3762,-245.5893 2207.8142,-246.4225 2216.5905,-252.3577 2218.3762,-245.5893"/>
</g>
<!-- Node20&#45;&gt;Node6 -->
<g id="edge35" class="edge">
<title>Node20&#45;&gt;Node6</title>
<path fill="none" stroke="#191970" d="M2348.5974,-291.169C2141.1971,-279.8562 1588.1593,-249.6905 1427.4027,-240.922"/>
<polygon fill="#191970" stroke="#191970" points="1427.5648,-237.4257 1417.389,-240.3758 1427.1835,-244.4153 1427.5648,-237.4257"/>
</g>
<!-- Node20&#45;&gt;Node7 -->
<g id="edge36" class="edge">
<title>Node20&#45;&gt;Node7</title>
<path fill="none" stroke="#191970" d="M2428.5132,-285.2322C2429.1096,-260.6577 2426.7461,-198.465 2390,-171 2318.132,-117.284 1674.7271,-78.8701 1505.5849,-69.6383"/>
<polygon fill="#191970" stroke="#191970" points="1505.7689,-66.1432 1495.5941,-69.097 1505.39,-73.133 1505.7689,-66.1432"/>
</g>
<!-- Node20&#45;&gt;Node15 -->
<g id="edge37" class="edge">
<title>Node20&#45;&gt;Node15</title>
<path fill="none" stroke="#191970" d="M2424.4947,-285.1107C2415.0584,-257.7938 2388.4512,-185.0872 2368,-171 2325.1432,-141.4795 1957.8479,-128.5152 1849.7872,-125.3177"/>
<polygon fill="#191970" stroke="#191970" points="1849.6917,-121.8136 1839.5946,-125.0226 1849.489,-128.8107 1849.6917,-121.8136"/>
</g>
<!-- Node21 -->
<g id="node21" class="node">
<title>Node21</title>
<g id="a_node21"><a xlink:href="../../d5/db9/G4VStateDependent_8hh.html" target="_top" xlink:title="G4VStateDependent.hh">
<polygon fill="none" stroke="#000000" points="2226,-228.5 2226,-248.5 2362,-248.5 2362,-228.5 2226,-228.5"/>
<text text-anchor="middle" x="2294" y="-235.5" font-family="FreeSans" font-size="10.00" fill="#000000">G4VStateDependent.hh</text>
</a>
</g>
</g>
<!-- Node20&#45;&gt;Node21 -->
<g id="edge39" class="edge">
<title>Node20&#45;&gt;Node21</title>
<path fill="none" stroke="#191970" d="M2404.3519,-285.4408C2382.9563,-276.3396 2351.2242,-262.8416 2327.2721,-252.6531"/>
<polygon fill="#191970" stroke="#191970" points="2328.4345,-249.3441 2317.8624,-248.6504 2325.6944,-255.7855 2328.4345,-249.3441"/>
</g>
<!-- Node21&#45;&gt;Node8 -->
<g id="edge40" class="edge">
<title>Node21&#45;&gt;Node8</title>
<path fill="none" stroke="#191970" d="M2225.9776,-228.9592C2222.607,-228.6069 2219.267,-228.284 2216,-228 2014.6009,-210.4954 1502.0079,-245.2909 1307,-192 1288.0099,-186.8105 1286.5992,-177.4516 1268,-171 1180.6033,-140.6842 1153.5875,-153.7385 1063,-135 956.0626,-112.8794 919.2185,-131.4637 824,-78 802.3366,-65.8363 782.9927,-44.6521 770.7257,-29.2536"/>
<polygon fill="#191970" stroke="#191970" points="773.2261,-26.7633 764.3569,-20.9677 767.6761,-31.0292 773.2261,-26.7633"/>
</g>
<!-- Node22 -->
<g id="node22" class="node">
<title>Node22</title>
<g id="a_node22"><a xlink:href="../../d8/d65/G4ApplicationState_8hh.html" target="_top" xlink:title="G4ApplicationState.hh">
<polygon fill="none" stroke="#000000" points="2229,-171.5 2229,-191.5 2359,-191.5 2359,-171.5 2229,-171.5"/>
<text text-anchor="middle" x="2294" y="-178.5" font-family="FreeSans" font-size="10.00" fill="#000000">G4ApplicationState.hh</text>
</a>
</g>
</g>
<!-- Node21&#45;&gt;Node22 -->
<g id="edge41" class="edge">
<title>Node21&#45;&gt;Node22</title>
<path fill="none" stroke="#191970" d="M2294,-228.3095C2294,-220.9335 2294,-210.72 2294,-201.715"/>
<polygon fill="#191970" stroke="#191970" points="2297.5001,-201.6022 2294,-191.6022 2290.5001,-201.6023 2297.5001,-201.6022"/>
</g>
<!-- Node23&#45;&gt;Node6 -->
<g id="edge43" class="edge">
<title>Node23&#45;&gt;Node6</title>
<path fill="none" stroke="#191970" d="M2549.1186,-399.4465C2490.6248,-385.2986 2379.5523,-359.3114 2284,-342 2172.2422,-321.7527 2137.7952,-344.6592 2031,-306 2014.2994,-299.9545 2013.8903,-290.4932 1997,-285 1890.9329,-250.5036 1549.8341,-241.3491 1427.3285,-239.1432"/>
<polygon fill="#191970" stroke="#191970" points="1427.2444,-235.6413 1417.1853,-238.9676 1427.1232,-242.6403 1427.2444,-235.6413"/>
</g>
<!-- Node23&#45;&gt;Node17 -->
<g id="edge47" class="edge">
<title>Node23&#45;&gt;Node17</title>
<path fill="none" stroke="#191970" d="M2613.4282,-399.3833C2660.5913,-379.0174 2767.0861,-333.031 2821.163,-309.6796"/>
<polygon fill="#191970" stroke="#191970" points="2822.8312,-312.7717 2830.6243,-305.5941 2820.0561,-306.3453 2822.8312,-312.7717"/>
</g>
<!-- Node24 -->
<g id="node24" class="node">
<title>Node24</title>
<g id="a_node24"><a xlink:href="../../dd/d79/G4VDataSetAlgorithm_8hh.html" target="_top" xlink:title="G4VDataSetAlgorithm.hh">
<polygon fill="none" stroke="#000000" points="2536.5,-342.5 2536.5,-362.5 2679.5,-362.5 2679.5,-342.5 2536.5,-342.5"/>
<text text-anchor="middle" x="2608" y="-349.5" font-family="FreeSans" font-size="10.00" fill="#000000">G4VDataSetAlgorithm.hh</text>
</a>
</g>
</g>
<!-- Node23&#45;&gt;Node24 -->
<g id="edge44" class="edge">
<title>Node23&#45;&gt;Node24</title>
<path fill="none" stroke="#191970" d="M2593.218,-399.3095C2595.5729,-391.8524 2598.8436,-381.4951 2601.7099,-372.4186"/>
<polygon fill="#191970" stroke="#191970" points="2605.136,-373.192 2604.8098,-362.6022 2598.4609,-371.0841 2605.136,-373.192"/>
</g>
<!-- Node24&#45;&gt;Node6 -->
<g id="edge45" class="edge">
<title>Node24&#45;&gt;Node6</title>
<path fill="none" stroke="#191970" d="M2536.2078,-343.7025C2531.4,-343.1232 2526.6301,-342.5514 2522,-342 2303.8537,-316.0209 2249.726,-305.5337 2031,-285 1804.3665,-263.7239 1532.334,-247.0941 1427.3371,-241.0079"/>
<polygon fill="#191970" stroke="#191970" points="1427.3039,-237.5003 1417.1189,-240.4184 1426.9006,-244.4887 1427.3039,-237.5003"/>
</g>
<!-- Node24&#45;&gt;Node17 -->
<g id="edge46" class="edge">
<title>Node24&#45;&gt;Node17</title>
<path fill="none" stroke="#191970" d="M2651.4136,-342.4408C2693.0898,-332.7841 2756.1293,-318.1774 2800.8035,-307.826"/>
<polygon fill="#191970" stroke="#191970" points="2801.6555,-311.2214 2810.6074,-305.5544 2800.0754,-304.4021 2801.6555,-311.2214"/>
</g>
<!-- Node25&#45;&gt;Node5 -->
<g id="edge136" class="edge">
<title>Node25&#45;&gt;Node5</title>
<path fill="none" stroke="#191970" d="M2035.4077,-578.2689C2152.3095,-571.7232 2432,-547.5893 2432,-466.5 2432,-466.5 2432,-466.5 2432,-409.5 2432,-370.2948 2339.984,-306.1921 2307,-285 2291.7711,-275.2155 2248.3648,-259.8757 2217.2048,-249.516"/>
<polygon fill="#191970" stroke="#191970" points="2218.1626,-246.1466 2207.5695,-246.3409 2215.9717,-252.7949 2218.1626,-246.1466"/>
</g>
<!-- Node25&#45;&gt;Node6 -->
<g id="edge49" class="edge">
<title>Node25&#45;&gt;Node6</title>
<path fill="none" stroke="#191970" d="M1934.6988,-579.2947C1748.3476,-574.1733 1108,-550.466 1108,-466.5 1108,-466.5 1108,-466.5 1108,-409.5 1108,-378.1862 1021.4079,-308.5907 1042,-285 1061.2558,-262.9401 1250.9732,-247.3987 1338.8002,-241.3279"/>
<polygon fill="#191970" stroke="#191970" points="1339.2481,-244.8057 1348.9874,-240.6348 1338.7728,-237.8218 1339.2481,-244.8057"/>
</g>
<!-- Node25&#45;&gt;Node17 -->
<g id="edge118" class="edge">
<title>Node25&#45;&gt;Node17</title>
<path fill="none" stroke="#191970" d="M2035.2514,-580.0288C2236.179,-577.4923 2971,-561.7073 2971,-466.5 2971,-466.5 2971,-466.5 2971,-409.5 2971,-362.3199 2921.5916,-328.3175 2886.9901,-310.2898"/>
<polygon fill="#191970" stroke="#191970" points="2888.186,-306.9746 2877.6767,-305.631 2885.0543,-313.235 2888.186,-306.9746"/>
</g>
<!-- Node26 -->
<g id="node26" class="node">
<title>Node26</title>
<g id="a_node26"><a xlink:href="../../d3/dab/G4DynamicParticle_8hh.html" target="_top" xlink:title="G4DynamicParticle.hh">
<polygon fill="none" stroke="#000000" points="672,-399.5 672,-419.5 800,-419.5 800,-399.5 672,-399.5"/>
<text text-anchor="middle" x="736" y="-406.5" font-family="FreeSans" font-size="10.00" fill="#000000">G4DynamicParticle.hh</text>
</a>
</g>
</g>
<!-- Node25&#45;&gt;Node26 -->
<g id="edge50" class="edge">
<title>Node25&#45;&gt;Node26</title>
<path fill="none" stroke="#191970" d="M1934.9147,-579.7428C1771.7931,-576.9856 1256.9355,-565.9126 1094,-534 1089.8909,-533.1952 865.8378,-454.9085 774.3178,-422.904"/>
<polygon fill="#191970" stroke="#191970" points="775.1974,-419.5038 764.6026,-419.5064 772.8866,-426.1114 775.1974,-419.5038"/>
</g>
<!-- Node29 -->
<g id="node29" class="node">
<title>Node29</title>
<g id="a_node29"><a xlink:href="../../da/d12/G4ParticleDefinition_8hh.html" target="_top" xlink:title="G4ParticleDefinition.hh">
<polygon fill="none" stroke="#000000" points="1202.5,-342.5 1202.5,-362.5 1335.5,-362.5 1335.5,-342.5 1202.5,-342.5"/>
<text text-anchor="middle" x="1269" y="-349.5" font-family="FreeSans" font-size="10.00" fill="#000000">G4ParticleDefinition.hh</text>
</a>
</g>
</g>
<!-- Node25&#45;&gt;Node29 -->
<g id="edge76" class="edge">
<title>Node25&#45;&gt;Node29</title>
<path fill="none" stroke="#191970" d="M1934.8976,-575.3872C1837.3192,-564.4822 1615.7772,-535.0613 1438,-477 1380.7259,-458.2945 1360.9552,-458.9659 1315,-420 1299.3568,-406.736 1286.7073,-386.9155 1278.6616,-372.18"/>
<polygon fill="#191970" stroke="#191970" points="1281.5699,-370.1868 1273.8468,-362.9339 1275.3612,-373.4199 1281.5699,-370.1868"/>
</g>
<!-- Node38 -->
<g id="node38" class="node">
<title>Node38</title>
<g id="a_node38"><a xlink:href="../../dd/dff/G4MaterialCutsCouple_8hh.html" target="_top" xlink:title="G4MaterialCutsCouple.hh">
<polygon fill="none" stroke="#000000" points="2223.5,-456.5 2223.5,-476.5 2368.5,-476.5 2368.5,-456.5 2223.5,-456.5"/>
<text text-anchor="middle" x="2296" y="-463.5" font-family="FreeSans" font-size="10.00" fill="#000000">G4MaterialCutsCouple.hh</text>
</a>
</g>
</g>
<!-- Node25&#45;&gt;Node38 -->
<g id="edge77" class="edge">
<title>Node25&#45;&gt;Node38</title>
<path fill="none" stroke="#191970" d="M2035.082,-576.6393C2081.8665,-571.546 2152.7391,-559.9568 2209,-534 2236.1501,-521.4739 2262.5997,-499.0577 2279.0704,-483.512"/>
<polygon fill="#191970" stroke="#191970" points="2281.5593,-485.9741 2286.3137,-476.5059 2276.6925,-480.9426 2281.5593,-485.9741"/>
</g>
<!-- Node40 -->
<g id="node40" class="node">
<title>Node40</title>
<g id="a_node40"><a xlink:href="../../d4/dc8/G4Material_8hh.html" target="_top" xlink:title="G4Material.hh">
<polygon fill="none" stroke="#ff0000" points="1622.5,-456.5 1622.5,-476.5 1709.5,-476.5 1709.5,-456.5 1622.5,-456.5"/>
<text text-anchor="middle" x="1666" y="-463.5" font-family="FreeSans" font-size="10.00" fill="#000000">G4Material.hh</text>
</a>
</g>
</g>
<!-- Node25&#45;&gt;Node40 -->
<g id="edge85" class="edge">
<title>Node25&#45;&gt;Node40</title>
<path fill="none" stroke="#191970" d="M1934.579,-575.6304C1888.6394,-569.8754 1819.6697,-557.8832 1764,-534 1734.1998,-521.2152 1704.1015,-498.7328 1685.2733,-483.2507"/>
<polygon fill="#191970" stroke="#191970" points="1687.3668,-480.4383 1677.4572,-476.6899 1682.8663,-485.7999 1687.3668,-480.4383"/>
</g>
<!-- Node41 -->
<g id="node41" class="node">
<title>Node41</title>
<g id="a_node41"><a xlink:href="../../dc/d43/G4Element_8hh.html" target="_top" xlink:title="G4Element.hh">
<polygon fill="none" stroke="#ff0000" points="1950,-342.5 1950,-362.5 2038,-362.5 2038,-342.5 1950,-342.5"/>
<text text-anchor="middle" x="1994" y="-349.5" font-family="FreeSans" font-size="10.00" fill="#000000">G4Element.hh</text>
</a>
</g>
</g>
<!-- Node25&#45;&gt;Node41 -->
<g id="edge115" class="edge">
<title>Node25&#45;&gt;Node41</title>
<path fill="none" stroke="#191970" d="M1989.8327,-570.2946C2001.3477,-545.3443 2030.1746,-478.9814 2040,-420 2041.5337,-410.7935 2043.5484,-407.6325 2040,-399 2035.2402,-387.4205 2026.0485,-377.1904 2017.125,-369.295"/>
<polygon fill="#191970" stroke="#191970" points="2019.0871,-366.377 2009.1401,-362.7287 2014.6409,-371.7837 2019.0871,-366.377"/>
</g>
<!-- Node42 -->
<g id="node42" class="node">
<title>Node42</title>
<g id="a_node42"><a xlink:href="../../d3/d2d/G4Isotope_8hh.html" target="_top" xlink:title="G4Isotope.hh">
<polygon fill="none" stroke="#000000" points="1905.5,-285.5 1905.5,-305.5 1988.5,-305.5 1988.5,-285.5 1905.5,-285.5"/>
<text text-anchor="middle" x="1947" y="-292.5" font-family="FreeSans" font-size="10.00" fill="#000000">G4Isotope.hh</text>
</a>
</g>
</g>
<!-- Node25&#45;&gt;Node42 -->
<g id="edge117" class="edge">
<title>Node25&#45;&gt;Node42</title>
<path fill="none" stroke="#191970" d="M1977.5676,-570.2915C1960.2939,-545.8557 1917.789,-481.4525 1903,-420 1893.7189,-381.4341 1917.0852,-338.1246 1933.206,-314.1026"/>
<polygon fill="#191970" stroke="#191970" points="1936.282,-315.8115 1939.1495,-305.6121 1930.5474,-311.7972 1936.282,-315.8115"/>
</g>
<!-- Node46 -->
<g id="node46" class="node">
<title>Node46</title>
<g id="a_node46"><a xlink:href="../../d1/d10/G4ElementVector_8hh.html" target="_top" xlink:title="G4ElementVector.hh">
<polygon fill="none" stroke="#000000" points="1912.5,-399.5 1912.5,-419.5 2031.5,-419.5 2031.5,-399.5 1912.5,-399.5"/>
<text text-anchor="middle" x="1972" y="-406.5" font-family="FreeSans" font-size="10.00" fill="#000000">G4ElementVector.hh</text>
</a>
</g>
</g>
<!-- Node25&#45;&gt;Node46 -->
<g id="edge116" class="edge">
<title>Node25&#45;&gt;Node46</title>
<path fill="none" stroke="#191970" d="M1984.2257,-570.3153C1982.1353,-542.8178 1976.3466,-466.6748 1973.5508,-429.8993"/>
<polygon fill="#191970" stroke="#191970" points="1977.0347,-429.5534 1972.7867,-419.8476 1970.0549,-430.0841 1977.0347,-429.5534"/>
</g>
<!-- Node47 -->
<g id="node47" class="node">
<title>Node47</title>
<g id="a_node47"><a xlink:href="../../d0/d82/G4VEmFluctuationModel_8hh.html" target="_top" xlink:title="G4VEmFluctuationModel.hh">
<polygon fill="none" stroke="#000000" points="2094.5,-342.5 2094.5,-362.5 2251.5,-362.5 2251.5,-342.5 2094.5,-342.5"/>
<text text-anchor="middle" x="2173" y="-349.5" font-family="FreeSans" font-size="10.00" fill="#000000">G4VEmFluctuationModel.hh</text>
</a>
</g>
</g>
<!-- Node25&#45;&gt;Node47 -->
<g id="edge119" class="edge">
<title>Node25&#45;&gt;Node47</title>
<path fill="none" stroke="#191970" d="M1993.3207,-570.4089C2022.4945,-535.0279 2120.4067,-416.2833 2158.0661,-370.6113"/>
<polygon fill="#191970" stroke="#191970" points="2160.9006,-372.6753 2164.5621,-362.7332 2155.4998,-368.222 2160.9006,-372.6753"/>
</g>
<!-- Node48 -->
<g id="node48" class="node">
<title>Node48</title>
<g id="a_node48"><a xlink:href="../../d6/daa/RandomEngine_8h.html" target="_top" xlink:title="CLHEP/Random/RandomEngine.h">
<polygon fill="none" stroke="#ff0000" points="2601,-285.5 2601,-305.5 2785,-305.5 2785,-285.5 2601,-285.5"/>
<text text-anchor="middle" x="2693" y="-292.5" font-family="FreeSans" font-size="10.00" fill="#000000">CLHEP/Random/RandomEngine.h</text>
</a>
</g>
</g>
<!-- Node25&#45;&gt;Node48 -->
<g id="edge135" class="edge">
<title>Node25&#45;&gt;Node48</title>
<path fill="none" stroke="#191970" d="M2035.2879,-578.4365C2148.138,-573.3813 2414.188,-558.9378 2446,-534 2471.0582,-514.3566 2470,-498.3399 2470,-466.5 2470,-466.5 2470,-466.5 2470,-409.5 2470,-349.5716 2534.639,-321.1284 2594.3153,-307.6389"/>
<polygon fill="#191970" stroke="#191970" points="2595.1756,-311.0342 2604.2237,-305.5222 2593.7132,-304.1886 2595.1756,-311.0342"/>
</g>
<!-- Node49 -->
<g id="node49" class="node">
<title>Node49</title>
<g id="a_node49"><a xlink:href="../../d2/dd1/G4VEmAngularDistribution_8hh.html" target="_top" xlink:title="G4VEmAngularDistribution.hh">
<polygon fill="none" stroke="#ff0000" points="692,-456.5 692,-476.5 860,-476.5 860,-456.5 692,-456.5"/>
<text text-anchor="middle" x="776" y="-463.5" font-family="FreeSans" font-size="10.00" fill="#000000">G4VEmAngularDistribution.hh</text>
</a>
</g>
</g>
<!-- Node25&#45;&gt;Node49 -->
<g id="edge125" class="edge">
<title>Node25&#45;&gt;Node49</title>
<path fill="none" stroke="#191970" d="M1934.6689,-579.4541C1737.0135,-575.1891 1019.9556,-558.1824 921,-534 876.4089,-523.103 828.943,-498.1323 800.9094,-481.8082"/>
<polygon fill="#191970" stroke="#191970" points="802.5671,-478.7221 792.1796,-476.6364 798.9992,-484.7447 802.5671,-478.7221"/>
</g>
<!-- Node50 -->
<g id="node50" class="node">
<title>Node50</title>
<g id="a_node50"><a xlink:href="../../d7/d70/G4EmElementSelector_8hh.html" target="_top" xlink:title="G4EmElementSelector.hh">
<polygon fill="none" stroke="#ff0000" points="1773.5,-513.5 1773.5,-533.5 1918.5,-533.5 1918.5,-513.5 1773.5,-513.5"/>
<text text-anchor="middle" x="1846" y="-520.5" font-family="FreeSans" font-size="10.00" fill="#000000">G4EmElementSelector.hh</text>
</a>
</g>
</g>
<!-- Node25&#45;&gt;Node50 -->
<g id="edge128" class="edge">
<title>Node25&#45;&gt;Node50</title>
<path fill="none" stroke="#191970" d="M1960.4696,-570.4408C1938.1769,-561.2992 1905.0667,-547.7216 1880.1828,-537.5174"/>
<polygon fill="#191970" stroke="#191970" points="1881.333,-534.2063 1870.7528,-533.6504 1878.6771,-540.6829 1881.333,-534.2063"/>
</g>
<!-- Node26&#45;&gt;Node3 -->
<g id="edge52" class="edge">
<title>Node26&#45;&gt;Node3</title>
<path fill="none" stroke="#191970" d="M671.7755,-407.8079C574.956,-404.3151 386.2124,-393.8327 229,-363 143.7379,-346.2783 93.7113,-375.8225 42,-306 29.8392,-289.58 45.7301,-269.4034 61.1345,-255.408"/>
<polygon fill="#191970" stroke="#191970" points="63.6565,-257.8572 68.9946,-248.7054 59.1144,-252.5308 63.6565,-257.8572"/>
</g>
<!-- Node26&#45;&gt;Node6 -->
<g id="edge55" class="edge">
<title>Node26&#45;&gt;Node6</title>
<path fill="none" stroke="#191970" d="M800.2804,-403.0297C877.5072,-394.5964 998.4495,-379.0244 1012,-363 1039.3094,-330.7046 969.2163,-318.2807 963,-306 958.7849,-297.6727 956.774,-291.9533 963,-285 987.78,-257.3251 1236.2592,-244.3343 1338.95,-240.1157"/>
<polygon fill="#191970" stroke="#191970" points="1339.1481,-243.6107 1348.9994,-239.7119 1338.8669,-236.6163 1339.1481,-243.6107"/>
</g>
<!-- Node26&#45;&gt;Node7 -->
<g id="edge56" class="edge">
<title>Node26&#45;&gt;Node7</title>
<path fill="none" stroke="#191970" d="M671.7531,-405.857C609.2054,-400.8087 520.5139,-389.1451 499,-363 493.0696,-355.793 494.9073,-350.3882 499,-342 517.0501,-305.0052 535.0357,-303.1124 572,-285 630.4661,-256.3517 652.4454,-270.2141 714,-249 854.5352,-200.5661 876.3413,-152.1862 1020,-114 1095.8857,-93.8287 1329.4482,-76.5163 1424.315,-70.1276"/>
<polygon fill="#191970" stroke="#191970" points="1424.6389,-73.6139 1434.3836,-69.4556 1424.1727,-66.6294 1424.6389,-73.6139"/>
</g>
<!-- Node27 -->
<g id="node27" class="node">
<title>Node27</title>
<polygon fill="none" stroke="#bfbfbf" points="1136,-342.5 1136,-362.5 1184,-362.5 1184,-342.5 1136,-342.5"/>
<text text-anchor="middle" x="1160" y="-349.5" font-family="FreeSans" font-size="10.00" fill="#000000">cmath</text>
</g>
<!-- Node26&#45;&gt;Node27 -->
<g id="edge51" class="edge">
<title>Node26&#45;&gt;Node27</title>
<path fill="none" stroke="#191970" d="M800.3965,-400.8429C891.4025,-388.6086 1054.4499,-366.6895 1125.4174,-357.1491"/>
<polygon fill="#191970" stroke="#191970" points="1126.152,-360.5819 1135.5965,-355.7807 1125.2193,-353.6443 1126.152,-360.5819"/>
</g>
<!-- Node28 -->
<g id="node28" class="node">
<title>Node28</title>
<g id="a_node28"><a xlink:href="../../dd/d09/PhysicalConstants_8h.html" target="_top" xlink:title="CLHEP/Units/PhysicalConstants.h">
<polygon fill="none" stroke="#000000" points="51,-285.5 51,-305.5 233,-305.5 233,-285.5 51,-285.5"/>
<text text-anchor="middle" x="142" y="-292.5" font-family="FreeSans" font-size="10.00" fill="#000000">CLHEP/Units/PhysicalConstants.h</text>
</a>
</g>
</g>
<!-- Node26&#45;&gt;Node28 -->
<g id="edge53" class="edge">
<title>Node26&#45;&gt;Node28</title>
<path fill="none" stroke="#191970" d="M671.6767,-405.5503C564.976,-398.5497 356.0834,-382.8169 285,-363 241.5211,-350.8788 194.9062,-326.485 167.1174,-310.5823"/>
<polygon fill="#191970" stroke="#191970" points="168.8517,-307.5421 158.4469,-305.5447 165.3352,-313.5947 168.8517,-307.5421"/>
</g>
<!-- Node26&#45;&gt;Node29 -->
<g id="edge57" class="edge">
<title>Node26&#45;&gt;Node29</title>
<path fill="none" stroke="#191970" d="M800.0349,-403.7153C886.5122,-395.7404 1045.6913,-380.4875 1192.2107,-363.0592"/>
<polygon fill="#191970" stroke="#191970" points="1192.7755,-366.5167 1202.2894,-361.8545 1191.9446,-359.5662 1192.7755,-366.5167"/>
</g>
<!-- Node32 -->
<g id="node32" class="node">
<title>Node32</title>
<g id="a_node32"><a xlink:href="../../dd/d3c/G4Allocator_8hh.html" target="_top" xlink:title="G4Allocator.hh">
<polygon fill="none" stroke="#ff0000" points="581,-285.5 581,-305.5 671,-305.5 671,-285.5 581,-285.5"/>
<text text-anchor="middle" x="626" y="-292.5" font-family="FreeSans" font-size="10.00" fill="#000000">G4Allocator.hh</text>
</a>
</g>
</g>
<!-- Node26&#45;&gt;Node32 -->
<g id="edge65" class="edge">
<title>Node26&#45;&gt;Node32</title>
<path fill="none" stroke="#191970" d="M671.9194,-405.2966C611.87,-399.8636 528.3783,-387.9539 508,-363 485.5206,-335.4732 530.3149,-316.9749 571.0176,-306.4079"/>
<polygon fill="#191970" stroke="#191970" points="572.0913,-309.748 580.9622,-303.9552 570.415,-302.9517 572.0913,-309.748"/>
</g>
<!-- Node33 -->
<g id="node33" class="node">
<title>Node33</title>
<g id="a_node33"><a xlink:href="../../d7/dd0/G4LorentzVector_8hh.html" target="_top" xlink:title="G4LorentzVector.hh">
<polygon fill="none" stroke="#ff0000" points="765.5,-285.5 765.5,-305.5 880.5,-305.5 880.5,-285.5 765.5,-285.5"/>
<text text-anchor="middle" x="823" y="-292.5" font-family="FreeSans" font-size="10.00" fill="#000000">G4LorentzVector.hh</text>
</a>
</g>
</g>
<!-- Node26&#45;&gt;Node33 -->
<g id="edge66" class="edge">
<title>Node26&#45;&gt;Node33</title>
<path fill="none" stroke="#191970" d="M725.3288,-399.3159C712.2583,-385.5766 693.3258,-360.6757 706,-342 717.5502,-324.9805 736.4179,-314.1902 755.6628,-307.3493"/>
<polygon fill="#191970" stroke="#191970" points="756.9698,-310.6055 765.416,-304.2091 754.8245,-303.9423 756.9698,-310.6055"/>
</g>
<!-- Node34 -->
<g id="node34" class="node">
<title>Node34</title>
<g id="a_node34"><a xlink:href="../../db/dfe/G4Log_8hh.html" target="_top" xlink:title="G4Log.hh">
<polygon fill="none" stroke="#ff0000" points="356,-228.5 356,-248.5 420,-248.5 420,-228.5 356,-228.5"/>
<text text-anchor="middle" x="388" y="-235.5" font-family="FreeSans" font-size="10.00" fill="#000000">G4Log.hh</text>
</a>
</g>
</g>
<!-- Node26&#45;&gt;Node34 -->
<g id="edge68" class="edge">
<title>Node26&#45;&gt;Node34</title>
<path fill="none" stroke="#191970" d="M671.6499,-404.2629C588.1088,-396.8391 447.2904,-382.0174 399,-363 358.0415,-346.87 338.2805,-345.0702 318,-306 306.6703,-284.1736 330.8971,-265.3317 353.8852,-253.1446"/>
<polygon fill="#191970" stroke="#191970" points="355.5034,-256.2487 362.8882,-248.6517 352.3776,-249.9853 355.5034,-256.2487"/>
</g>
<!-- Node35 -->
<g id="node35" class="node">
<title>Node35</title>
<g id="a_node35"><a xlink:href="../../dc/d2b/G4ParticleMomentum_8hh.html" target="_top" xlink:title="G4ParticleMomentum.hh">
<polygon fill="none" stroke="#ff0000" points="715.5,-342.5 715.5,-362.5 856.5,-362.5 856.5,-342.5 715.5,-342.5"/>
<text text-anchor="middle" x="786" y="-349.5" font-family="FreeSans" font-size="10.00" fill="#000000">G4ParticleMomentum.hh</text>
</a>
</g>
</g>
<!-- Node26&#45;&gt;Node35 -->
<g id="edge70" class="edge">
<title>Node26&#45;&gt;Node35</title>
<path fill="none" stroke="#191970" d="M744.939,-399.3095C751.978,-391.2851 761.9629,-379.9022 770.3238,-370.3708"/>
<polygon fill="#191970" stroke="#191970" points="773.1751,-372.4279 777.1384,-362.6022 767.9128,-367.8118 773.1751,-372.4279"/>
</g>
<!-- Node36 -->
<g id="node36" class="node">
<title>Node36</title>
<g id="a_node36"><a xlink:href="../../d2/dbb/G4ElectronOccupancy_8hh.html" target="_top" xlink:title="G4ElectronOccupancy.hh">
<polygon fill="none" stroke="#ff0000" points="517,-342.5 517,-362.5 659,-362.5 659,-342.5 517,-342.5"/>
<text text-anchor="middle" x="588" y="-349.5" font-family="FreeSans" font-size="10.00" fill="#000000">G4ElectronOccupancy.hh</text>
</a>
</g>
</g>
<!-- Node26&#45;&gt;Node36 -->
<g id="edge71" class="edge">
<title>Node26&#45;&gt;Node36</title>
<path fill="none" stroke="#191970" d="M709.8813,-399.4408C685.9352,-390.2183 650.2663,-376.4809 623.6948,-366.2473"/>
<polygon fill="#191970" stroke="#191970" points="624.9452,-362.9784 614.3555,-362.6504 622.4294,-369.5106 624.9452,-362.9784"/>
</g>
<!-- Node37 -->
<g id="node37" class="node">
<title>Node37</title>
<polygon fill="none" stroke="#bfbfbf" points="874.5,-342.5 874.5,-362.5 1003.5,-362.5 1003.5,-342.5 874.5,-342.5"/>
<text text-anchor="middle" x="939" y="-349.5" font-family="FreeSans" font-size="10.00" fill="#000000">G4DynamicParticle.icc</text>
</g>
<!-- Node26&#45;&gt;Node37 -->
<g id="edge75" class="edge">
<title>Node26&#45;&gt;Node37</title>
<path fill="none" stroke="#191970" d="M771.825,-399.4408C805.6384,-389.9464 856.4931,-375.6669 893.2307,-365.3515"/>
<polygon fill="#191970" stroke="#191970" points="894.5108,-368.6275 903.1923,-362.5544 892.6184,-361.8881 894.5108,-368.6275"/>
</g>
<!-- Node28&#45;&gt;Node3 -->
<g id="edge54" class="edge">
<title>Node28&#45;&gt;Node3</title>
<path fill="none" stroke="#191970" d="M131.452,-285.3095C122.9781,-277.1229 110.8863,-265.441 100.9023,-255.7955"/>
<polygon fill="#191970" stroke="#191970" points="103.0805,-253.0332 93.4567,-248.6022 98.2168,-258.0676 103.0805,-253.0332"/>
</g>
<!-- Node29&#45;&gt;Node5 -->
<g id="edge58" class="edge">
<title>Node29&#45;&gt;Node5</title>
<path fill="none" stroke="#191970" d="M1335.5262,-343.0084C1431.1208,-329.4815 1612.916,-304.175 1768,-285 1908.6407,-267.6108 2076.4535,-249.6672 2147.9522,-242.1535"/>
<polygon fill="#191970" stroke="#191970" points="2148.6048,-245.6043 2158.1852,-241.0803 2147.8746,-238.6425 2148.6048,-245.6043"/>
</g>
<!-- Node29&#45;&gt;Node6 -->
<g id="edge60" class="edge">
<title>Node29&#45;&gt;Node6</title>
<path fill="none" stroke="#191970" d="M1282.7248,-342.4507C1294.6584,-333.4507 1312.1577,-319.6094 1326,-306 1341.9411,-290.3271 1358.2067,-270.6208 1369.2601,-256.5541"/>
<polygon fill="#191970" stroke="#191970" points="1372.0575,-258.6582 1375.4193,-248.6109 1366.5256,-254.3688 1372.0575,-258.6582"/>
</g>
<!-- Node29&#45;&gt;Node7 -->
<g id="edge61" class="edge">
<title>Node29&#45;&gt;Node7</title>
<path fill="none" stroke="#191970" d="M1202.4398,-342.4576C1139.7766,-332.4318 1053.8006,-316.9765 1042,-306 1019.18,-284.7737 1023,-269.6658 1023,-238.5 1023,-238.5 1023,-238.5 1023,-181.5 1023,-99.0673 1314.8987,-75.3268 1424.2716,-69.3247"/>
<polygon fill="#191970" stroke="#191970" points="1424.4684,-72.8193 1434.2703,-68.7978 1424.1,-65.829 1424.4684,-72.8193"/>
</g>
<!-- Node29&#45;&gt;Node28 -->
<g id="edge59" class="edge">
<title>Node29&#45;&gt;Node28</title>
<path fill="none" stroke="#191970" d="M1202.3133,-342.9173C1199.1679,-342.5816 1196.0514,-342.2729 1193,-342 805.3297,-307.3261 706.7246,-325.5904 318,-306 293.8178,-304.7813 267.7761,-303.3132 243.3329,-301.8663"/>
<polygon fill="#191970" stroke="#191970" points="243.5203,-298.3713 233.3297,-301.2701 243.1038,-305.3589 243.5203,-298.3713"/>
</g>
<!-- Node30 -->
<g id="node30" class="node">
<title>Node30</title>
<g id="a_node30"><a xlink:href="../../d2/d0a/G4PDefManager_8hh.html" target="_top" xlink:title="G4PDefManager.hh">
<polygon fill="none" stroke="#ff0000" points="1051.5,-285.5 1051.5,-305.5 1164.5,-305.5 1164.5,-285.5 1051.5,-285.5"/>
<text text-anchor="middle" x="1108" y="-292.5" font-family="FreeSans" font-size="10.00" fill="#000000">G4PDefManager.hh</text>
</a>
</g>
</g>
<!-- Node29&#45;&gt;Node30 -->
<g id="edge62" class="edge">
<title>Node29&#45;&gt;Node30</title>
<path fill="none" stroke="#191970" d="M1240.587,-342.4408C1214.3426,-333.1492 1175.1539,-319.275 1146.1827,-309.0181"/>
<polygon fill="#191970" stroke="#191970" points="1146.994,-305.5925 1136.3992,-305.5544 1144.6578,-312.1912 1146.994,-305.5925"/>
</g>
<!-- Node31 -->
<g id="node31" class="node">
<title>Node31</title>
<polygon fill="none" stroke="#bfbfbf" points="1183,-285.5 1183,-305.5 1317,-305.5 1317,-285.5 1183,-285.5"/>
<text text-anchor="middle" x="1250" y="-292.5" font-family="FreeSans" font-size="10.00" fill="#000000">G4ParticleDefinition.icc</text>
</g>
<!-- Node29&#45;&gt;Node31 -->
<g id="edge64" class="edge">
<title>Node29&#45;&gt;Node31</title>
<path fill="none" stroke="#191970" d="M1265.6032,-342.3095C1263.0905,-334.7714 1259.5899,-324.2696 1256.541,-315.123"/>
<polygon fill="#191970" stroke="#191970" points="1259.8502,-313.9823 1253.3674,-305.6022 1253.2094,-316.1959 1259.8502,-313.9823"/>
</g>
<!-- Node30&#45;&gt;Node6 -->
<g id="edge63" class="edge">
<title>Node30&#45;&gt;Node6</title>
<path fill="none" stroke="#191970" d="M1156.5315,-285.4408C1208.1748,-274.7365 1289.1622,-257.95 1339.0037,-247.6192"/>
<polygon fill="#191970" stroke="#191970" points="1339.7603,-251.0369 1348.8418,-245.5801 1338.3395,-244.1826 1339.7603,-251.0369"/>
</g>
<!-- Node33&#45;&gt;Node6 -->
<g id="edge67" class="edge">
<title>Node33&#45;&gt;Node6</title>
<path fill="none" stroke="#191970" d="M880.7348,-286.8221C885.5566,-286.1759 890.3596,-285.5591 895,-285 1058.2375,-265.3325 1253.0178,-248.8673 1338.768,-241.972"/>
<polygon fill="#191970" stroke="#191970" points="1339.2296,-245.4463 1348.9185,-241.1596 1338.6711,-238.4686 1339.2296,-245.4463"/>
</g>
<!-- Node34&#45;&gt;Node8 -->
<g id="edge69" class="edge">
<title>Node34&#45;&gt;Node8</title>
<path fill="none" stroke="#191970" d="M404.3316,-228.4089C462.6643,-192.3659 661.0107,-69.8105 731.7115,-26.1254"/>
<polygon fill="#191970" stroke="#191970" points="733.771,-28.9671 740.4383,-20.7332 730.0915,-23.0122 733.771,-28.9671"/>
</g>
<!-- Node36&#45;&gt;Node6 -->
<g id="edge72" class="edge">
<title>Node36&#45;&gt;Node6</title>
<path fill="none" stroke="#191970" d="M617.3661,-342.4938C642.9028,-333.5753 680.762,-319.8288 713,-306 732.546,-297.6155 735.4694,-290.5532 756,-285 866.0614,-255.23 1214.0418,-243.0814 1338.3336,-239.6194"/>
<polygon fill="#191970" stroke="#191970" points="1338.7191,-243.1102 1348.6198,-239.3386 1338.528,-236.1128 1338.7191,-243.1102"/>
</g>
<!-- Node36&#45;&gt;Node7 -->
<g id="edge74" class="edge">
<title>Node36&#45;&gt;Node7</title>
<path fill="none" stroke="#191970" d="M609.5082,-342.3738C628.3568,-333.3245 656.3574,-319.454 680,-306 695.1094,-297.4019 697.4438,-292.7606 713,-285 818.3368,-232.4497 858.8744,-250.547 961,-192 1008.6933,-164.6582 1006.32,-135.3017 1057,-114 1122.669,-86.3981 1334.4328,-73.5539 1424.1874,-69.2467"/>
<polygon fill="#191970" stroke="#191970" points="1424.433,-72.7391 1434.2582,-68.7748 1424.1053,-65.7468 1424.433,-72.7391"/>
</g>
<!-- Node36&#45;&gt;Node32 -->
<g id="edge73" class="edge">
<title>Node36&#45;&gt;Node32</title>
<path fill="none" stroke="#191970" d="M594.7936,-342.3095C600.0352,-334.4472 607.4261,-323.3608 613.6995,-313.9507"/>
<polygon fill="#191970" stroke="#191970" points="616.6303,-315.8642 619.2652,-305.6022 610.8059,-311.9813 616.6303,-315.8642"/>
</g>
<!-- Node38&#45;&gt;Node6 -->
<g id="edge78" class="edge">
<title>Node38&#45;&gt;Node6</title>
<path fill="none" stroke="#191970" d="M2258.7463,-456.4499C2208.9637,-443.0718 2117.9612,-418.799 2040,-399 1809.8145,-340.5422 1533.2327,-274.2665 1427.2636,-249.0191"/>
<polygon fill="#191970" stroke="#191970" points="1427.7917,-245.5471 1417.2529,-246.6352 1426.1701,-252.3567 1427.7917,-245.5471"/>
</g>
<!-- Node38&#45;&gt;Node7 -->
<g id="edge79" class="edge">
<title>Node38&#45;&gt;Node7</title>
<path fill="none" stroke="#191970" d="M2368.7616,-461.0212C2535.9003,-447.4611 2933,-409.2705 2933,-352.5 2933,-352.5 2933,-352.5 2933,-181.5 2933,-52.194 2778.1001,-131.6187 2650,-114 2421.7687,-82.6094 1686.9899,-70.5659 1505.7137,-68.0323"/>
<polygon fill="#191970" stroke="#191970" points="1505.5951,-64.5304 1495.5478,-67.8921 1505.4985,-71.5298 1505.5951,-64.5304"/>
</g>
<!-- Node39 -->
<g id="node39" class="node">
<title>Node39</title>
<g id="a_node39"><a xlink:href="../../d4/d6a/G4ProductionCuts_8hh.html" target="_top" xlink:title="G4ProductionCuts.hh">
<polygon fill="none" stroke="#000000" points="2235,-399.5 2235,-419.5 2357,-419.5 2357,-399.5 2235,-399.5"/>
<text text-anchor="middle" x="2296" y="-406.5" font-family="FreeSans" font-size="10.00" fill="#000000">G4ProductionCuts.hh</text>
</a>
</g>
</g>
<!-- Node38&#45;&gt;Node39 -->
<g id="edge80" class="edge">
<title>Node38&#45;&gt;Node39</title>
<path fill="none" stroke="#191970" d="M2296,-456.3095C2296,-448.9335 2296,-438.72 2296,-429.715"/>
<polygon fill="#191970" stroke="#191970" points="2299.5001,-429.6022 2296,-419.6022 2292.5001,-429.6023 2299.5001,-429.6022"/>
</g>
<!-- Node39&#45;&gt;Node5 -->
<g id="edge83" class="edge">
<title>Node39&#45;&gt;Node5</title>
<path fill="none" stroke="#191970" d="M2308.3198,-399.0982C2322.3227,-385.9436 2342.017,-362.5304 2332,-342 2309.2131,-295.2969 2253.909,-265.8028 2217.4662,-250.7345"/>
<polygon fill="#191970" stroke="#191970" points="2218.316,-247.306 2207.7303,-246.8647 2215.7303,-253.811 2218.316,-247.306"/>
</g>
<!-- Node39&#45;&gt;Node6 -->
<g id="edge81" class="edge">
<title>Node39&#45;&gt;Node6</title>
<path fill="none" stroke="#191970" d="M2293.8151,-399.4614C2289.9162,-384.2011 2280.1997,-355.5163 2260,-342 2192.4451,-296.7966 1976.7494,-315.3031 1896,-306 1722.1718,-285.9733 1515.8691,-257.3435 1427.1491,-244.7971"/>
<polygon fill="#191970" stroke="#191970" points="1427.5652,-241.3212 1417.1731,-243.384 1426.5833,-248.252 1427.5652,-241.3212"/>
</g>
<!-- Node39&#45;&gt;Node7 -->
<g id="edge82" class="edge">
<title>Node39&#45;&gt;Node7</title>
<path fill="none" stroke="#191970" d="M2326.5936,-399.4323C2384.3689,-379.952 2506.6427,-336.3515 2539,-306 2563.4996,-283.0192 2573,-272.0909 2573,-238.5 2573,-238.5 2573,-238.5 2573,-181.5 2573,-158.955 2889.5257,-208.9146 2372,-114 2202.3753,-82.8907 1660.3843,-70.9944 1506.2478,-68.1911"/>
<polygon fill="#191970" stroke="#191970" points="1505.8917,-64.6842 1495.8307,-68.0048 1505.7665,-71.6831 1505.8917,-64.6842"/>
</g>
<!-- Node39&#45;&gt;Node29 -->
<g id="edge84" class="edge">
<title>Node39&#45;&gt;Node29</title>
<path fill="none" stroke="#191970" d="M2234.9842,-406.5914C2092.4611,-399.7243 1726.5797,-381.6731 1421,-363 1396.5117,-361.5036 1369.8156,-359.7132 1345.7259,-358.0383"/>
<polygon fill="#191970" stroke="#191970" points="1345.7952,-354.5347 1335.5754,-357.3288 1345.307,-361.5177 1345.7952,-354.5347"/>
</g>
<!-- Node40&#45;&gt;Node5 -->
<g id="edge86" class="edge">
<title>Node40&#45;&gt;Node5</title>
<path fill="none" stroke="#191970" d="M1684.3721,-456.3001C1709.4582,-442.5429 1756.0019,-417.6217 1797,-399 1859.6699,-370.5348 1876.3926,-365.7414 1941,-342 1987.7006,-324.8388 2001.0591,-325.1022 2047,-306 2085.5367,-289.9765 2128.4278,-267.9533 2155.5459,-253.4811"/>
<polygon fill="#191970" stroke="#191970" points="2157.2942,-256.5151 2164.4471,-248.6993 2153.9814,-250.3486 2157.2942,-256.5151"/>
</g>
<!-- Node40&#45;&gt;Node6 -->
<g id="edge89" class="edge">
<title>Node40&#45;&gt;Node6</title>
<path fill="none" stroke="#191970" d="M1622.3904,-465.0365C1555.0155,-461.7975 1430.3077,-451.5879 1401,-420 1359.8171,-375.613 1370.1144,-296.271 1377.9631,-258.958"/>
<polygon fill="#191970" stroke="#191970" points="1381.4654,-259.3388 1380.2606,-248.8127 1374.6383,-257.7927 1381.4654,-259.3388"/>
</g>
<!-- Node40&#45;&gt;Node7 -->
<g id="edge90" class="edge">
<title>Node40&#45;&gt;Node7</title>
<path fill="none" stroke="#191970" d="M1622.4029,-466.0721C1454.698,-464.1795 851.1914,-455.031 663,-420 584.2418,-405.3395 538.8417,-427.9895 492,-363 472.1665,-335.4824 513.431,-295.7366 526,-285 603.7198,-218.6107 853.6121,-137.8737 953,-114 1042.3583,-92.5355 1319.2547,-75.5147 1424.1551,-69.6775"/>
<polygon fill="#191970" stroke="#191970" points="1424.5478,-73.1612 1434.3399,-69.1159 1424.1623,-66.1718 1424.5478,-73.1612"/>
</g>
<!-- Node40&#45;&gt;Node15 -->
<g id="edge87" class="edge">
<title>Node40&#45;&gt;Node15</title>
<path fill="none" stroke="#191970" d="M1679.6863,-456.2931C1709.3418,-433.2866 1779.249,-374.0474 1809,-306 1833.204,-250.64 1828.2344,-231.3333 1825,-171 1824.5398,-162.4159 1823.6051,-152.9785 1822.667,-144.862"/>
<polygon fill="#191970" stroke="#191970" points="1826.126,-144.3141 1821.43,-134.8169 1819.1785,-145.1697 1826.126,-144.3141"/>
</g>
<!-- Node40&#45;&gt;Node28 -->
<g id="edge88" class="edge">
<title>Node40&#45;&gt;Node28</title>
<path fill="none" stroke="#191970" d="M1622.1543,-466.0276C1407.5213,-463.571 472.8784,-451.154 347,-420 270.2397,-401.0023 194.553,-341.6782 160.5882,-312.3121"/>
<polygon fill="#191970" stroke="#191970" points="162.6985,-309.5071 152.8767,-305.5343 158.0773,-314.765 162.6985,-309.5071"/>
</g>
<!-- Node40&#45;&gt;Node41 -->
<g id="edge91" class="edge">
<title>Node40&#45;&gt;Node41</title>
<path fill="none" stroke="#191970" d="M1694.8203,-456.4832C1753.8508,-435.9665 1888.5466,-389.1515 1955.1873,-365.9898"/>
<polygon fill="#191970" stroke="#191970" points="1956.5961,-369.2056 1964.8928,-362.6165 1954.2979,-362.5936 1956.5961,-369.2056"/>
</g>
<!-- Node43 -->
<g id="node43" class="node">
<title>Node43</title>
<g id="a_node43"><a xlink:href="../../df/d70/G4MaterialPropertiesTable_8hh.html" target="_top" xlink:title="G4MaterialPropertiesTable.hh">
<polygon fill="none" stroke="#ff0000" points="1410,-399.5 1410,-419.5 1574,-419.5 1574,-399.5 1410,-399.5"/>
<text text-anchor="middle" x="1492" y="-406.5" font-family="FreeSans" font-size="10.00" fill="#000000">G4MaterialPropertiesTable.hh</text>
</a>
</g>
</g>
<!-- Node40&#45;&gt;Node43 -->
<g id="edge99" class="edge">
<title>Node40&#45;&gt;Node43</title>
<path fill="none" stroke="#191970" d="M1635.2928,-456.4408C1606.6815,-447.0681 1563.8354,-433.0323 1532.4479,-422.7502"/>
<polygon fill="#191970" stroke="#191970" points="1533.285,-419.3415 1522.6923,-419.5544 1531.1058,-425.9936 1533.285,-419.3415"/>
</g>
<!-- Node44 -->
<g id="node44" class="node">
<title>Node44</title>
<g id="a_node44"><a xlink:href="../../d6/d29/G4IonisParamMat_8hh.html" target="_top" xlink:title="G4IonisParamMat.hh">
<polygon fill="none" stroke="#ff0000" points="327.5,-285.5 327.5,-305.5 448.5,-305.5 448.5,-285.5 327.5,-285.5"/>
<text text-anchor="middle" x="388" y="-292.5" font-family="FreeSans" font-size="10.00" fill="#000000">G4IonisParamMat.hh</text>
</a>
</g>
</g>
<!-- Node40&#45;&gt;Node44 -->
<g id="edge103" class="edge">
<title>Node40&#45;&gt;Node44</title>
<path fill="none" stroke="#191970" d="M1622.2819,-465.7682C1397.7053,-461.908 383.3962,-443.2085 361,-420 333.386,-391.3845 357.8801,-341.5503 374.9081,-314.4189"/>
<polygon fill="#191970" stroke="#191970" points="377.9744,-316.125 380.5221,-305.841 372.1173,-312.2916 377.9744,-316.125"/>
</g>
<!-- Node45 -->
<g id="node45" class="node">
<title>Node45</title>
<g id="a_node45"><a xlink:href="../../d3/d36/G4SandiaTable_8hh.html" target="_top" xlink:title="G4SandiaTable.hh">
<polygon fill="none" stroke="#ff0000" points="1430.5,-342.5 1430.5,-362.5 1537.5,-362.5 1537.5,-342.5 1430.5,-342.5"/>
<text text-anchor="middle" x="1484" y="-349.5" font-family="FreeSans" font-size="10.00" fill="#000000">G4SandiaTable.hh</text>
</a>
</g>
</g>
<!-- Node40&#45;&gt;Node45 -->
<g id="edge107" class="edge">
<title>Node40&#45;&gt;Node45</title>
<path fill="none" stroke="#191970" d="M1655.3761,-456.4178C1640.1861,-442.351 1610.9942,-416.5877 1583,-399 1562.78,-386.2965 1538.5362,-374.853 1519.1009,-366.497"/>
<polygon fill="#191970" stroke="#191970" points="1520.2787,-363.1953 1509.7045,-362.535 1517.559,-369.6453 1520.2787,-363.1953"/>
</g>
<!-- Node40&#45;&gt;Node46 -->
<g id="edge112" class="edge">
<title>Node40&#45;&gt;Node46</title>
<path fill="none" stroke="#191970" d="M1709.5174,-458.3938C1761.3803,-448.7331 1848.4884,-432.5071 1908.022,-421.4175"/>
<polygon fill="#191970" stroke="#191970" points="1908.8754,-424.8188 1918.0653,-419.5467 1907.5935,-417.9372 1908.8754,-424.8188"/>
</g>
<!-- Node41&#45;&gt;Node5 -->
<g id="edge93" class="edge">
<title>Node41&#45;&gt;Node5</title>
<path fill="none" stroke="#191970" d="M2038.2367,-342.7269C2076.5845,-333.5731 2128.4486,-319.3405 2145,-306 2160.3131,-293.6575 2170.5319,-273.3873 2176.4793,-258.2755"/>
<polygon fill="#191970" stroke="#191970" points="2179.7972,-259.3926 2179.9244,-248.7985 2173.2184,-257.001 2179.7972,-259.3926"/>
</g>
<!-- Node41&#45;&gt;Node6 -->
<g id="edge92" class="edge">
<title>Node41&#45;&gt;Node6</title>
<path fill="none" stroke="#191970" d="M1949.5662,-344.2096C1836.6554,-323.1427 1539.7149,-267.7398 1427.1324,-246.7342"/>
<polygon fill="#191970" stroke="#191970" points="1427.611,-243.2632 1417.1386,-244.8696 1426.327,-250.1444 1427.611,-243.2632"/>
</g>
<!-- Node41&#45;&gt;Node7 -->
<g id="edge94" class="edge">
<title>Node41&#45;&gt;Node7</title>
<path fill="none" stroke="#191970" d="M2038.4035,-347.0925C2053.2127,-345.3648 2069.8076,-343.5106 2085,-342 2132.8198,-337.2452 2478.9334,-336.5845 2516,-306 2540.039,-286.1648 2535,-269.6658 2535,-238.5 2535,-238.5 2535,-238.5 2535,-181.5 2535,-25.2594 2344.9498,-134.042 2190,-114 1930.6838,-80.4587 1615.909,-70.7472 1505.5574,-68.2664"/>
<polygon fill="#191970" stroke="#191970" points="1505.5988,-64.7666 1495.5251,-68.0484 1505.4466,-71.7649 1505.5988,-64.7666"/>
</g>
<!-- Node41&#45;&gt;Node42 -->
<g id="edge95" class="edge">
<title>Node41&#45;&gt;Node42</title>
<path fill="none" stroke="#191970" d="M1985.5973,-342.3095C1978.9807,-334.2851 1969.5948,-322.9022 1961.7356,-313.3708"/>
<polygon fill="#191970" stroke="#191970" points="1964.3922,-311.091 1955.3299,-305.6022 1958.9914,-315.5443 1964.3922,-311.091"/>
</g>
<!-- Node42&#45;&gt;Node5 -->
<g id="edge98" class="edge">
<title>Node42&#45;&gt;Node5</title>
<path fill="none" stroke="#191970" d="M1988.6488,-285.4408C2034.1245,-274.4572 2106.1139,-257.07 2148.5356,-246.824"/>
<polygon fill="#191970" stroke="#191970" points="2149.4957,-250.1929 2158.3944,-244.4429 2147.8522,-243.3885 2149.4957,-250.1929"/>
</g>
<!-- Node42&#45;&gt;Node6 -->
<g id="edge96" class="edge">
<title>Node42&#45;&gt;Node6</title>
<path fill="none" stroke="#191970" d="M1905.4814,-287.2655C1900.6105,-286.4329 1895.7026,-285.6546 1891,-285 1720.3109,-261.2395 1515.5982,-246.7339 1427.206,-241.1418"/>
<polygon fill="#191970" stroke="#191970" points="1427.2123,-237.6355 1417.0132,-240.504 1426.7751,-244.6218 1427.2123,-237.6355"/>
</g>
<!-- Node42&#45;&gt;Node7 -->
<g id="edge97" class="edge">
<title>Node42&#45;&gt;Node7</title>
<path fill="none" stroke="#191970" d="M1944.9137,-285.4911C1937.7885,-254.0679 1911.2653,-156.924 1848,-114 1820.0803,-95.0571 1598.8604,-77.1279 1505.909,-70.3509"/>
<polygon fill="#191970" stroke="#191970" points="1505.9782,-66.8468 1495.7521,-69.6176 1505.4741,-73.8287 1505.9782,-66.8468"/>
</g>
<!-- Node43&#45;&gt;Node6 -->
<g id="edge102" class="edge">
<title>Node43&#45;&gt;Node6</title>
<path fill="none" stroke="#191970" d="M1468.4291,-399.3368C1452.8805,-391.5075 1433.202,-379.2659 1421,-363 1420.1896,-361.9197 1399.3885,-292.9908 1388.9128,-258.1748"/>
<polygon fill="#191970" stroke="#191970" points="1392.2584,-257.1463 1386.0268,-248.5779 1385.555,-259.1622 1392.2584,-257.1463"/>
</g>
<!-- Node43&#45;&gt;Node15 -->
<g id="edge101" class="edge">
<title>Node43&#45;&gt;Node15</title>
<path fill="none" stroke="#191970" d="M1574.0285,-404.0077C1639.5488,-397.974 1724.4778,-385.9238 1750,-363 1814.5192,-305.0494 1820.8784,-191.1027 1820.6309,-144.7914"/>
<polygon fill="#191970" stroke="#191970" points="1824.1264,-144.4889 1820.457,-134.5498 1817.1274,-144.6078 1824.1264,-144.4889"/>
</g>
<!-- Node43&#45;&gt;Node27 -->
<g id="edge100" class="edge">
<title>Node43&#45;&gt;Node27</title>
<path fill="none" stroke="#191970" d="M1409.8085,-400.1765C1351.8502,-392.8007 1272.3275,-381.0725 1194.0642,-362.9742"/>
<polygon fill="#191970" stroke="#191970" points="1194.5665,-359.497 1184.031,-360.6169 1192.9654,-366.3114 1194.5665,-359.497"/>
</g>
<!-- Node44&#45;&gt;Node6 -->
<g id="edge105" class="edge">
<title>Node44&#45;&gt;Node6</title>
<path fill="none" stroke="#191970" d="M448.6031,-291.086C476.1776,-289.129 509.2315,-286.8549 539,-285 844.6278,-265.9556 1212.7725,-247.063 1338.4572,-240.7279"/>
<polygon fill="#191970" stroke="#191970" points="1339.0098,-244.2046 1348.8212,-240.2062 1338.6579,-237.2134 1339.0098,-244.2046"/>
</g>
<!-- Node44&#45;&gt;Node7 -->
<g id="edge104" class="edge">
<title>Node44&#45;&gt;Node7</title>
<path fill="none" stroke="#191970" d="M409.3163,-285.4655C457.7173,-262.933 579.9476,-207.4439 686,-171 777.0552,-139.7098 800.1694,-130.652 895,-114 1091.3276,-79.5254 1330.2823,-70.5245 1424.2608,-68.2454"/>
<polygon fill="#191970" stroke="#191970" points="1424.5528,-71.7397 1434.4697,-68.0107 1424.3919,-64.7415 1424.5528,-71.7397"/>
</g>
<!-- Node44&#45;&gt;Node34 -->
<g id="edge106" class="edge">
<title>Node44&#45;&gt;Node34</title>
<path fill="none" stroke="#191970" d="M388,-285.3095C388,-277.9335 388,-267.72 388,-258.715"/>
<polygon fill="#191970" stroke="#191970" points="391.5001,-258.6022 388,-248.6022 384.5001,-258.6023 391.5001,-258.6022"/>
</g>
<!-- Node45&#45;&gt;Node5 -->
<g id="edge110" class="edge">
<title>Node45&#45;&gt;Node5</title>
<path fill="none" stroke="#191970" d="M1537.6553,-343.6783C1616.2776,-330.7588 1767.4103,-305.9508 1896,-285 1987.0758,-270.1612 2094.4322,-252.8026 2148.3723,-244.0902"/>
<polygon fill="#191970" stroke="#191970" points="2149.1134,-247.5159 2158.4274,-242.4663 2147.9973,-240.6055 2149.1134,-247.5159"/>
</g>
<!-- Node45&#45;&gt;Node6 -->
<g id="edge109" class="edge">
<title>Node45&#45;&gt;Node6</title>
<path fill="none" stroke="#191970" d="M1477.6398,-342.3858C1468.8366,-328.7258 1452.0823,-303.9144 1435,-285 1425.3607,-274.3269 1413.4751,-263.5501 1403.5013,-255.0623"/>
<polygon fill="#191970" stroke="#191970" points="1405.585,-252.2425 1395.6643,-248.5235 1401.1004,-257.6174 1405.585,-252.2425"/>
</g>
<!-- Node45&#45;&gt;Node7 -->
<g id="edge108" class="edge">
<title>Node45&#45;&gt;Node7</title>
<path fill="none" stroke="#191970" d="M1514.3912,-342.4258C1571.0214,-322.7258 1687,-277.6064 1687,-238.5 1687,-238.5 1687,-238.5 1687,-181.5 1687,-101.0586 1570.2307,-77.3349 1506.066,-70.371"/>
<polygon fill="#191970" stroke="#191970" points="1506.1654,-66.8637 1495.8681,-69.3569 1505.4727,-73.8294 1506.1654,-66.8637"/>
</g>
<!-- Node45&#45;&gt;Node28 -->
<g id="edge111" class="edge">
<title>Node45&#45;&gt;Node28</title>
<path fill="none" stroke="#191970" d="M1430.1827,-347.9606C1404.1642,-345.8946 1372.4743,-343.5667 1344,-342 888.4085,-316.9324 773.7696,-327.5881 318,-306 293.8142,-304.8544 267.7712,-303.4143 243.3277,-301.971"/>
<polygon fill="#191970" stroke="#191970" points="243.5151,-298.4761 233.3246,-301.375 243.0987,-305.4637 243.5151,-298.4761"/>
</g>
<!-- Node46&#45;&gt;Node5 -->
<g id="edge113" class="edge">
<title>Node46&#45;&gt;Node5</title>
<path fill="none" stroke="#191970" d="M1988.4843,-399.2947C2015.0065,-382.9362 2066.0896,-351.6977 2085,-342 2120.7789,-323.6517 2142.4019,-337.0085 2168,-306 2178.8403,-292.8686 2182.2729,-273.5662 2183.1787,-258.9626"/>
<polygon fill="#191970" stroke="#191970" points="2186.6793,-258.9848 2183.4596,-248.8911 2179.682,-258.7896 2186.6793,-258.9848"/>
</g>
<!-- Node46&#45;&gt;Node41 -->
<g id="edge114" class="edge">
<title>Node46&#45;&gt;Node41</title>
<path fill="none" stroke="#191970" d="M1975.9332,-399.3095C1978.8426,-391.7714 1982.8959,-381.2696 1986.4262,-372.123"/>
<polygon fill="#191970" stroke="#191970" points="1989.7653,-373.1918 1990.1009,-362.6022 1983.2348,-370.6712 1989.7653,-373.1918"/>
</g>
<!-- Node47&#45;&gt;Node6 -->
<g id="edge120" class="edge">
<title>Node47&#45;&gt;Node6</title>
<path fill="none" stroke="#191970" d="M2103.5852,-342.4832C1944.6704,-319.5512 1558.0782,-263.7645 1427.175,-244.8746"/>
<polygon fill="#191970" stroke="#191970" points="1427.5095,-241.3867 1417.1121,-243.4225 1426.5097,-248.315 1427.5095,-241.3867"/>
</g>
<!-- Node47&#45;&gt;Node48 -->
<g id="edge121" class="edge">
<title>Node47&#45;&gt;Node48</title>
<path fill="none" stroke="#191970" d="M2251.6944,-343.8739C2342.4148,-333.9295 2491.7776,-317.5571 2591.2555,-306.6528"/>
<polygon fill="#191970" stroke="#191970" points="2591.7648,-310.118 2601.3238,-305.5491 2591.002,-303.1597 2591.7648,-310.118"/>
</g>
<!-- Node48&#45;&gt;Node5 -->
<g id="edge124" class="edge">
<title>Node48&#45;&gt;Node5</title>
<path fill="none" stroke="#191970" d="M2600.8332,-288.7243C2488.2446,-280.0749 2303.2356,-264.5656 2217.6641,-248.7071"/>
<polygon fill="#191970" stroke="#191970" points="2218.2178,-245.2492 2207.733,-246.7718 2216.8789,-252.12 2218.2178,-245.2492"/>
</g>
<!-- Node48&#45;&gt;Node9 -->
<g id="edge122" class="edge">
<title>Node48&#45;&gt;Node9</title>
<path fill="none" stroke="#191970" d="M2679.1583,-285.3467C2668.1604,-276.6966 2653.0136,-263.4059 2643,-249 2605.9249,-195.6625 2639.3036,-152.52 2587,-114 2498.2077,-48.6072 1695.3587,-18.1137 1505.2352,-11.7736"/>
<polygon fill="#191970" stroke="#191970" points="1505.228,-8.2716 1495.118,-11.4398 1504.9971,-15.2678 1505.228,-8.2716"/>
</g>
<!-- Node48&#45;&gt;Node18 -->
<g id="edge123" class="edge">
<title>Node48&#45;&gt;Node18</title>
<path fill="none" stroke="#191970" d="M2690.6759,-285.3095C2688.9751,-277.8524 2686.6129,-267.4951 2684.5428,-258.4186"/>
<polygon fill="#191970" stroke="#191970" points="2687.9401,-257.5736 2682.304,-248.6022 2681.1153,-259.1302 2687.9401,-257.5736"/>
</g>
<!-- Node49&#45;&gt;Node6 -->
<g id="edge126" class="edge">
<title>Node49&#45;&gt;Node6</title>
<path fill="none" stroke="#191970" d="M731.8718,-456.4535C660.8319,-439.2867 526.2912,-402.3313 499,-363 493.6792,-355.3319 494.9073,-350.3882 499,-342 517.0501,-305.0052 533.4769,-299.5048 572,-285 643.7672,-257.978 1179.0071,-243.3067 1338.364,-239.5052"/>
<polygon fill="#191970" stroke="#191970" points="1338.8285,-242.9953 1348.7431,-239.2603 1338.6633,-235.9972 1338.8285,-242.9953"/>
</g>
<!-- Node49&#45;&gt;Node26 -->
<g id="edge127" class="edge">
<title>Node49&#45;&gt;Node26</title>
<path fill="none" stroke="#191970" d="M768.8488,-456.3095C763.3313,-448.4472 755.5514,-437.3608 748.9479,-427.9507"/>
<polygon fill="#191970" stroke="#191970" points="751.6985,-425.7773 743.0893,-419.6022 745.9686,-429.7983 751.6985,-425.7773"/>
</g>
<!-- Node50&#45;&gt;Node5 -->
<g id="edge134" class="edge">
<title>Node50&#45;&gt;Node5</title>
<path fill="none" stroke="#191970" d="M1888.3345,-513.4872C1984.8251,-489.72 2216.1162,-427.0791 2260,-363 2285.8583,-325.2418 2237.2418,-279.0028 2206.1276,-254.8955"/>
<polygon fill="#191970" stroke="#191970" points="2207.9898,-251.9167 2197.8924,-248.7083 2203.7851,-257.5132 2207.9898,-251.9167"/>
</g>
<!-- Node50&#45;&gt;Node6 -->
<g id="edge129" class="edge">
<title>Node50&#45;&gt;Node6</title>
<path fill="none" stroke="#191970" d="M1829.5216,-513.3567C1760.1158,-470.6339 1491.3273,-305.181 1407.8656,-253.8061"/>
<polygon fill="#191970" stroke="#191970" points="1409.6316,-250.7832 1399.281,-248.5218 1405.9622,-256.7444 1409.6316,-250.7832"/>
</g>
<!-- Node50&#45;&gt;Node29 -->
<g id="edge130" class="edge">
<title>Node50&#45;&gt;Node29</title>
<path fill="none" stroke="#191970" d="M1773.4242,-519.5257C1673.467,-511.6288 1489.9216,-488.2959 1350,-420 1324.7848,-407.6924 1300.726,-385.924 1285.4785,-370.4366"/>
<polygon fill="#191970" stroke="#191970" points="1287.7938,-367.794 1278.3489,-362.9936 1282.7388,-372.6362 1287.7938,-367.794"/>
</g>
<!-- Node50&#45;&gt;Node40 -->
<g id="edge131" class="edge">
<title>Node50&#45;&gt;Node40</title>
<path fill="none" stroke="#191970" d="M1814.234,-513.4408C1784.5079,-504.0275 1739.9285,-489.9107 1707.4216,-479.6169"/>
<polygon fill="#191970" stroke="#191970" points="1708.3408,-476.2367 1697.7507,-476.5544 1706.2275,-482.9101 1708.3408,-476.2367"/>
</g>
<!-- Node50&#45;&gt;Node41 -->
<g id="edge132" class="edge">
<title>Node50&#45;&gt;Node41</title>
<path fill="none" stroke="#191970" d="M1848.2682,-513.1628C1853.8217,-490.0103 1870.1125,-433.3348 1903,-399 1916.7719,-384.6221 1935.9559,-373.9142 1953.1609,-366.4216"/>
<polygon fill="#191970" stroke="#191970" points="1954.5558,-369.6324 1962.4686,-362.587 1951.8893,-363.1601 1954.5558,-369.6324"/>
</g>
<!-- Node50&#45;&gt;Node46 -->
<g id="edge133" class="edge">
<title>Node50&#45;&gt;Node46</title>
<path fill="none" stroke="#191970" d="M1857.1817,-513.3833C1878.7961,-493.8273 1926.5204,-450.6482 1953.1332,-426.57"/>
<polygon fill="#191970" stroke="#191970" points="1955.5951,-429.0625 1960.6623,-419.7579 1950.8987,-423.8717 1955.5951,-429.0625"/>
</g>
</g>
</svg>
