<?xml version="1.0" encoding="UTF-8" standalone="no"?>
<!DOCTYPE svg PUBLIC "-//W3C//DTD SVG 1.1//EN"
 "http://www.w3.org/Graphics/SVG/1.1/DTD/svg11.dtd">
<!-- Generated by graphviz version 2.40.1 (20161225.0304)
 -->
<!-- Title: geant4/tree/geant4&#45;10.6&#45;release/source/graphics_reps/include/G4DimensionedThreeVector.hh Pages: 1 -->
<svg width="404pt" height="344pt"
 viewBox="0.00 0.00 404.00 344.00" xmlns="http://www.w3.org/2000/svg" xmlns:xlink="http://www.w3.org/1999/xlink">
<g id="graph0" class="graph" transform="scale(1 1) rotate(0) translate(4 340)">
<title>geant4/tree/geant4&#45;10.6&#45;release/source/graphics_reps/include/G4DimensionedThreeVector.hh</title>
<!-- Node1 -->
<g id="node1" class="node">
<title>Node1</title>
<polygon fill="#bfbfbf" stroke="#000000" points="103,-279.5 103,-335.5 280,-335.5 280,-279.5 103,-279.5"/>
<text text-anchor="start" x="111" y="-322.5" font-family="FreeSans" font-size="10.00" fill="#000000">geant4/tree/geant4</text>
<text text-anchor="start" x="111" y="-310.5" font-family="FreeSans" font-size="10.00" fill="#000000">&#45;10.6&#45;release/source</text>
<text text-anchor="start" x="111" y="-298.5" font-family="FreeSans" font-size="10.00" fill="#000000">/graphics_reps/include</text>
<text text-anchor="middle" x="191.5" y="-286.5" font-family="FreeSans" font-size="10.00" fill="#000000">/G4DimensionedThreeVector.hh</text>
</g>
<!-- Node2 -->
<g id="node2" class="node">
<title>Node2</title>
<g id="a_node2"><a xlink:href="../../d4/db9/G4ConversionUtils_8hh.html" target="_top" xlink:title="geant4/tree/geant4\l&#45;10.6&#45;release/source\l/graphics_reps/include\l/G4ConversionUtils.hh">
<polygon fill="none" stroke="#000000" points="24,-186.5 24,-242.5 155,-242.5 155,-186.5 24,-186.5"/>
<text text-anchor="start" x="32" y="-229.5" font-family="FreeSans" font-size="10.00" fill="#000000">geant4/tree/geant4</text>
<text text-anchor="start" x="32" y="-217.5" font-family="FreeSans" font-size="10.00" fill="#000000">&#45;10.6&#45;release/source</text>
<text text-anchor="start" x="32" y="-205.5" font-family="FreeSans" font-size="10.00" fill="#000000">/graphics_reps/include</text>
<text text-anchor="middle" x="89.5" y="-193.5" font-family="FreeSans" font-size="10.00" fill="#000000">/G4ConversionUtils.hh</text>
</a>
</g>
</g>
<!-- Node1&#45;&gt;Node2 -->
<g id="edge1" class="edge">
<title>Node1&#45;&gt;Node2</title>
<path fill="none" stroke="#191970" d="M152.9303,-272.3335C142.1368,-262.4923 130.5522,-251.93 120.2752,-242.5597"/>
<polygon fill="#191970" stroke="#191970" points="150.8721,-275.1933 160.6198,-279.3446 155.5884,-270.0206 150.8721,-275.1933"/>
</g>
<!-- Node4 -->
<g id="node4" class="node">
<title>Node4</title>
<g id="a_node4"><a xlink:href="../../dc/d4c/G4AttFilterUtils_8cc.html" target="_top" xlink:title="geant4/tree/geant4\l&#45;10.6&#45;release/source\l/visualization/modeling\l/src/G4AttFilterUtils.cc">
<polygon fill="none" stroke="#000000" points="69,-.5 69,-56.5 204,-56.5 204,-.5 69,-.5"/>
<text text-anchor="start" x="77" y="-43.5" font-family="FreeSans" font-size="10.00" fill="#000000">geant4/tree/geant4</text>
<text text-anchor="start" x="77" y="-31.5" font-family="FreeSans" font-size="10.00" fill="#000000">&#45;10.6&#45;release/source</text>
<text text-anchor="start" x="77" y="-19.5" font-family="FreeSans" font-size="10.00" fill="#000000">/visualization/modeling</text>
<text text-anchor="middle" x="136.5" y="-7.5" font-family="FreeSans" font-size="10.00" fill="#000000">/src/G4AttFilterUtils.cc</text>
</a>
</g>
</g>
<!-- Node1&#45;&gt;Node4 -->
<g id="edge5" class="edge">
<title>Node1&#45;&gt;Node4</title>
<path fill="none" stroke="#191970" d="M192.8717,-269.1901C193.3533,-225.5515 190.846,-152.5799 172.5,-93 168.6128,-80.3762 162.0259,-67.4693 155.541,-56.5507"/>
<polygon fill="#191970" stroke="#191970" points="189.3694,-269.3041 192.6988,-279.3622 196.3684,-269.4232 189.3694,-269.3041"/>
</g>
<!-- Node5 -->
<g id="node5" class="node">
<title>Node5</title>
<g id="a_node5"><a xlink:href="../../d1/d12/G4AttUtils_8cc.html" target="_top" xlink:title="geant4/tree/geant4\l&#45;10.6&#45;release/source\l/graphics_reps/src/G4AttUtils.cc">
<polygon fill="none" stroke="#000000" points="219,-192.5 219,-236.5 396,-236.5 396,-192.5 219,-192.5"/>
<text text-anchor="start" x="227" y="-223.5" font-family="FreeSans" font-size="10.00" fill="#000000">geant4/tree/geant4</text>
<text text-anchor="start" x="227" y="-211.5" font-family="FreeSans" font-size="10.00" fill="#000000">&#45;10.6&#45;release/source</text>
<text text-anchor="middle" x="307.5" y="-199.5" font-family="FreeSans" font-size="10.00" fill="#000000">/graphics_reps/src/G4AttUtils.cc</text>
</a>
</g>
</g>
<!-- Node1&#45;&gt;Node5 -->
<g id="edge4" class="edge">
<title>Node1&#45;&gt;Node5</title>
<path fill="none" stroke="#191970" d="M234.823,-272.7669C249.9042,-260.676 266.4025,-247.4489 279.8625,-236.6577"/>
<polygon fill="#191970" stroke="#191970" points="232.2314,-270.3586 226.6186,-279.3446 236.6101,-275.8201 232.2314,-270.3586"/>
</g>
<!-- Node3 -->
<g id="node3" class="node">
<title>Node3</title>
<g id="a_node3"><a xlink:href="../../d0/de5/G4AttValueFilterT_8hh.html" target="_top" xlink:title="geant4/tree/geant4\l&#45;10.6&#45;release/source\l/visualization/modeling\l/include/G4AttValueFilterT.hh">
<polygon fill="none" stroke="#000000" points="0,-93.5 0,-149.5 163,-149.5 163,-93.5 0,-93.5"/>
<text text-anchor="start" x="8" y="-136.5" font-family="FreeSans" font-size="10.00" fill="#000000">geant4/tree/geant4</text>
<text text-anchor="start" x="8" y="-124.5" font-family="FreeSans" font-size="10.00" fill="#000000">&#45;10.6&#45;release/source</text>
<text text-anchor="start" x="8" y="-112.5" font-family="FreeSans" font-size="10.00" fill="#000000">/visualization/modeling</text>
<text text-anchor="middle" x="81.5" y="-100.5" font-family="FreeSans" font-size="10.00" fill="#000000">/include/G4AttValueFilterT.hh</text>
</a>
</g>
</g>
<!-- Node2&#45;&gt;Node3 -->
<g id="edge2" class="edge">
<title>Node2&#45;&gt;Node3</title>
<path fill="none" stroke="#191970" d="M86.2018,-176.1582C85.4355,-167.2499 84.6337,-157.9293 83.9137,-149.5597"/>
<polygon fill="#191970" stroke="#191970" points="82.7338,-176.6813 87.078,-186.3446 89.708,-176.0813 82.7338,-176.6813"/>
</g>
<!-- Node3&#45;&gt;Node4 -->
<g id="edge3" class="edge">
<title>Node3&#45;&gt;Node4</title>
<path fill="none" stroke="#191970" d="M103.3186,-84.6067C108.8428,-75.2658 114.6868,-65.3841 119.9055,-56.5597"/>
<polygon fill="#191970" stroke="#191970" points="100.2289,-82.9555 98.1511,-93.3446 106.2541,-86.5188 100.2289,-82.9555"/>
</g>
</g>
</svg>
