<?xml version="1.0" encoding="UTF-8" standalone="no"?>
<!DOCTYPE svg PUBLIC "-//W3C//DTD SVG 1.1//EN"
 "http://www.w3.org/Graphics/SVG/1.1/DTD/svg11.dtd">
<!-- Generated by graphviz version 2.40.1 (20161225.0304)
 -->
<!-- Title: G4Box::SetZHalfLength Pages: 1 -->
<svg width="872pt" height="936pt"
 viewBox="0.00 0.00 872.00 936.00" xmlns="http://www.w3.org/2000/svg" xmlns:xlink="http://www.w3.org/1999/xlink">
<g id="graph0" class="graph" transform="scale(1 1) rotate(0) translate(4 932)">
<title>G4Box::SetZHalfLength</title>
<!-- Node1 -->
<g id="node1" class="node">
<title>Node1</title>
<polygon fill="#bfbfbf" stroke="#000000" points="0,-403.5 0,-423.5 134,-423.5 134,-403.5 0,-403.5"/>
<text text-anchor="middle" x="67" y="-410.5" font-family="FreeSans" font-size="10.00" fill="#000000">G4Box::SetZHalfLength</text>
</g>
<!-- Node2 -->
<g id="node2" class="node">
<title>Node2</title>
<g id="a_node2"><a xlink:href="../../da/d11/classG4Voxelizer.html#aae07191930619abb362addfaff466954" target="_top" xlink:title="G4Voxelizer::BuildBoundingBox">
<polygon fill="none" stroke="#000000" points="189.5,-819.5 189.5,-839.5 365.5,-839.5 365.5,-819.5 189.5,-819.5"/>
<text text-anchor="middle" x="277.5" y="-826.5" font-family="FreeSans" font-size="10.00" fill="#000000">G4Voxelizer::BuildBoundingBox</text>
</a>
</g>
</g>
<!-- Node1&#45;&gt;Node2 -->
<g id="edge1" class="edge">
<title>Node1&#45;&gt;Node2</title>
<path fill="none" stroke="#191970" d="M69.3859,-433.8194C78.4347,-507.3294 113.0368,-757.8634 170,-810.5 175.707,-815.7736 182.3434,-819.8453 189.4651,-822.9649"/>
<polygon fill="#191970" stroke="#191970" points="72.8255,-433.1079 68.1535,-423.5988 65.8758,-433.9459 72.8255,-433.1079"/>
</g>
<!-- Node3 -->
<g id="node3" class="node">
<title>Node3</title>
<g id="a_node3"><a xlink:href="../../dc/d5b/classDetectorConstruction.html#aef6451f88a532e6af5528e8bf91f5497" target="_top" xlink:title="DetectorConstruction\l::ChangeGeometry">
<polygon fill="none" stroke="#000000" points="215.5,-768.5 215.5,-800.5 339.5,-800.5 339.5,-768.5 215.5,-768.5"/>
<text text-anchor="start" x="223.5" y="-787.5" font-family="FreeSans" font-size="10.00" fill="#000000">DetectorConstruction</text>
<text text-anchor="middle" x="277.5" y="-775.5" font-family="FreeSans" font-size="10.00" fill="#000000">::ChangeGeometry</text>
</a>
</g>
</g>
<!-- Node1&#45;&gt;Node3 -->
<g id="edge2" class="edge">
<title>Node1&#45;&gt;Node3</title>
<path fill="none" stroke="#191970" d="M70.2945,-433.6745C81.6116,-500.5483 120.9183,-713.317 170,-759.5 182.2803,-771.055 198.8205,-777.62 215.2409,-781.2603"/>
<polygon fill="#191970" stroke="#191970" points="73.7109,-432.8824 68.615,-423.5936 66.8061,-434.0329 73.7109,-432.8824"/>
</g>
<!-- Node10 -->
<g id="node10" class="node">
<title>Node10</title>
<g id="a_node10"><a xlink:href="../../d6/dc3/classVoxelParam.html#ab5f432a7a414ee5d0846c8ae45e92302" target="_top" xlink:title="VoxelParam::ComputeDimensions">
<polygon fill="none" stroke="#000000" points="183.5,-729.5 183.5,-749.5 371.5,-749.5 371.5,-729.5 183.5,-729.5"/>
<text text-anchor="middle" x="277.5" y="-736.5" font-family="FreeSans" font-size="10.00" fill="#000000">VoxelParam::ComputeDimensions</text>
</a>
</g>
</g>
<!-- Node1&#45;&gt;Node10 -->
<g id="edge9" class="edge">
<title>Node1&#45;&gt;Node10</title>
<path fill="none" stroke="#191970" d="M71.029,-433.8902C83.7313,-496.0925 124.7864,-681.5577 170,-720.5 174.0927,-724.025 178.6064,-727.0006 183.3968,-729.5055"/>
<polygon fill="#191970" stroke="#191970" points="74.3971,-432.8859 68.9925,-423.7733 67.5348,-434.2673 74.3971,-432.8859"/>
</g>
<!-- Node11 -->
<g id="node11" class="node">
<title>Node11</title>
<g id="a_node11"><a xlink:href="../../d0/d41/classExN02ChamberParameterisation.html#a76d8c6cccf86d18218649e1c086a94b8" target="_top" xlink:title="ExN02ChamberParameterisation\l::ComputeDimensions">
<polygon fill="none" stroke="#000000" points="187,-678.5 187,-710.5 368,-710.5 368,-678.5 187,-678.5"/>
<text text-anchor="start" x="195" y="-697.5" font-family="FreeSans" font-size="10.00" fill="#000000">ExN02ChamberParameterisation</text>
<text text-anchor="middle" x="277.5" y="-685.5" font-family="FreeSans" font-size="10.00" fill="#000000">::ComputeDimensions</text>
</a>
</g>
</g>
<!-- Node1&#45;&gt;Node11 -->
<g id="edge10" class="edge">
<title>Node1&#45;&gt;Node11</title>
<path fill="none" stroke="#191970" d="M68.9414,-433.9214C74.7074,-482.6385 96.2385,-606.3069 170,-669.5 175.093,-673.8633 180.8027,-677.5007 186.8654,-680.5293"/>
<polygon fill="#191970" stroke="#191970" points="72.3932,-433.2859 67.8398,-423.7195 65.4337,-434.0375 72.3932,-433.2859"/>
</g>
<!-- Node12 -->
<g id="node12" class="node">
<title>Node12</title>
<g id="a_node12"><a xlink:href="../../db/db5/classExP01ChamberParameterisation.html#a5f96b176d71c38a0be719aa962727593" target="_top" xlink:title="ExP01ChamberParameterisation\l::ComputeDimensions">
<polygon fill="none" stroke="#000000" points="187.5,-627.5 187.5,-659.5 367.5,-659.5 367.5,-627.5 187.5,-627.5"/>
<text text-anchor="start" x="195.5" y="-646.5" font-family="FreeSans" font-size="10.00" fill="#000000">ExP01ChamberParameterisation</text>
<text text-anchor="middle" x="277.5" y="-634.5" font-family="FreeSans" font-size="10.00" fill="#000000">::ComputeDimensions</text>
</a>
</g>
</g>
<!-- Node1&#45;&gt;Node12 -->
<g id="edge11" class="edge">
<title>Node1&#45;&gt;Node12</title>
<path fill="none" stroke="#191970" d="M71.0745,-433.4495C80.602,-474.7881 108.3617,-569.9823 170,-618.5 175.2697,-622.648 181.1079,-626.1291 187.2606,-629.0481"/>
<polygon fill="#191970" stroke="#191970" points="74.4576,-432.536 68.9017,-423.5147 67.6192,-434.0317 74.4576,-432.536"/>
</g>
<!-- Node13 -->
<g id="node13" class="node">
<title>Node13</title>
<g id="a_node13"><a xlink:href="../../de/d34/classG4ParameterisationBoxX.html#a2d0e405ea19b8e0b6b8c3c58bdb2c0cd" target="_top" xlink:title="G4ParameterisationBoxX\l::ComputeDimensions">
<polygon fill="none" stroke="#000000" points="206,-576.5 206,-608.5 349,-608.5 349,-576.5 206,-576.5"/>
<text text-anchor="start" x="214" y="-595.5" font-family="FreeSans" font-size="10.00" fill="#000000">G4ParameterisationBoxX</text>
<text text-anchor="middle" x="277.5" y="-583.5" font-family="FreeSans" font-size="10.00" fill="#000000">::ComputeDimensions</text>
</a>
</g>
</g>
<!-- Node1&#45;&gt;Node13 -->
<g id="edge12" class="edge">
<title>Node1&#45;&gt;Node13</title>
<path fill="none" stroke="#191970" d="M74.4807,-433.2114C88.1341,-466.4006 120.3423,-533.1692 170,-567.5 180.6389,-574.8552 193.1411,-580.0697 205.7844,-583.7611"/>
<polygon fill="#191970" stroke="#191970" points="77.6465,-431.7001 70.7012,-423.6992 71.1412,-434.2849 77.6465,-431.7001"/>
</g>
<!-- Node14 -->
<g id="node14" class="node">
<title>Node14</title>
<g id="a_node14"><a xlink:href="../../de/d7c/classG02ChamberParameterisation.html#ae4639a477bd931d3aa6a12e73d6783a1" target="_top" xlink:title="G02ChamberParameterisation\l::ComputeDimensions">
<polygon fill="none" stroke="#000000" points="193,-525.5 193,-557.5 362,-557.5 362,-525.5 193,-525.5"/>
<text text-anchor="start" x="201" y="-544.5" font-family="FreeSans" font-size="10.00" fill="#000000">G02ChamberParameterisation</text>
<text text-anchor="middle" x="277.5" y="-532.5" font-family="FreeSans" font-size="10.00" fill="#000000">::ComputeDimensions</text>
</a>
</g>
</g>
<!-- Node1&#45;&gt;Node14 -->
<g id="edge13" class="edge">
<title>Node1&#45;&gt;Node14</title>
<path fill="none" stroke="#191970" d="M80.119,-431.8923C97.806,-455.2698 131.5505,-495.1468 170,-516.5 177.1193,-520.4538 184.8376,-523.7838 192.7598,-526.5882"/>
<polygon fill="#191970" stroke="#191970" points="82.7059,-429.5034 73.9509,-423.5368 77.0742,-433.6608 82.7059,-429.5034"/>
</g>
<!-- Node15 -->
<g id="node15" class="node">
<title>Node15</title>
<g id="a_node15"><a xlink:href="../../dc/d7a/classG4GDMLParameterisation.html#abf69afb2899faccd7fd30bfb20edbfbd" target="_top" xlink:title="G4GDMLParameterisation\l::ComputeDimensions">
<polygon fill="none" stroke="#000000" points="204.5,-474.5 204.5,-506.5 350.5,-506.5 350.5,-474.5 204.5,-474.5"/>
<text text-anchor="start" x="212.5" y="-493.5" font-family="FreeSans" font-size="10.00" fill="#000000">G4GDMLParameterisation</text>
<text text-anchor="middle" x="277.5" y="-481.5" font-family="FreeSans" font-size="10.00" fill="#000000">::ComputeDimensions</text>
</a>
</g>
</g>
<!-- Node1&#45;&gt;Node15 -->
<g id="edge14" class="edge">
<title>Node1&#45;&gt;Node15</title>
<path fill="none" stroke="#191970" d="M92.8873,-428.7566C113.2651,-440.2211 142.6895,-455.5924 170,-465.5 180.8976,-469.4534 192.6484,-472.9344 204.2404,-475.9456"/>
<polygon fill="#191970" stroke="#191970" points="94.3499,-425.5614 83.9306,-423.6409 90.8781,-431.6398 94.3499,-425.5614"/>
</g>
<!-- Node16 -->
<g id="node16" class="node">
<title>Node16</title>
<g id="a_node16"><a xlink:href="../../d1/d28/classDicomNestedPhantomParameterisation.html#a2b2838a98f6f20dc97afea701530da87" target="_top" xlink:title="DicomNestedPhantomParameterisation\l::ComputeDimensions">
<polygon fill="none" stroke="#000000" points="170,-423.5 170,-455.5 385,-455.5 385,-423.5 170,-423.5"/>
<text text-anchor="start" x="178" y="-442.5" font-family="FreeSans" font-size="10.00" fill="#000000">DicomNestedPhantomParameterisation</text>
<text text-anchor="middle" x="277.5" y="-430.5" font-family="FreeSans" font-size="10.00" fill="#000000">::ComputeDimensions</text>
</a>
</g>
</g>
<!-- Node1&#45;&gt;Node16 -->
<g id="edge15" class="edge">
<title>Node1&#45;&gt;Node16</title>
<path fill="none" stroke="#191970" d="M144.2525,-423.0419C152.6247,-424.076 161.2519,-425.1416 169.9002,-426.2098"/>
<polygon fill="#191970" stroke="#191970" points="144.5359,-419.5504 134.1823,-421.798 143.6778,-426.4976 144.5359,-419.5504"/>
</g>
<!-- Node17 -->
<g id="node17" class="node">
<title>Node17</title>
<g id="a_node17"><a xlink:href="../../dc/d61/classRE02NestedPhantomParameterisation.html#ac0b78f57128783c9a04a542ae9bc4b95" target="_top" xlink:title="RE02NestedPhantomParameterisation\l::ComputeDimensions">
<polygon fill="none" stroke="#000000" points="173,-372.5 173,-404.5 382,-404.5 382,-372.5 173,-372.5"/>
<text text-anchor="start" x="181" y="-391.5" font-family="FreeSans" font-size="10.00" fill="#000000">RE02NestedPhantomParameterisation</text>
<text text-anchor="middle" x="277.5" y="-379.5" font-family="FreeSans" font-size="10.00" fill="#000000">::ComputeDimensions</text>
</a>
</g>
</g>
<!-- Node1&#45;&gt;Node17 -->
<g id="edge16" class="edge">
<title>Node1&#45;&gt;Node17</title>
<path fill="none" stroke="#191970" d="M144.2147,-404.3296C153.5904,-403.2161 163.2862,-402.0646 172.9739,-400.914"/>
<polygon fill="#191970" stroke="#191970" points="143.6997,-400.8661 134.1823,-405.5211 144.5253,-407.8172 143.6997,-400.8661"/>
</g>
<!-- Node18 -->
<g id="node18" class="node">
<title>Node18</title>
<g id="a_node18"><a xlink:href="../../df/d37/classG4ParameterisationBoxY.html#af374d590beadb992923cfaeb979d9b93" target="_top" xlink:title="G4ParameterisationBoxY\l::ComputeDimensions">
<polygon fill="none" stroke="#000000" points="206.5,-321.5 206.5,-353.5 348.5,-353.5 348.5,-321.5 206.5,-321.5"/>
<text text-anchor="start" x="214.5" y="-340.5" font-family="FreeSans" font-size="10.00" fill="#000000">G4ParameterisationBoxY</text>
<text text-anchor="middle" x="277.5" y="-328.5" font-family="FreeSans" font-size="10.00" fill="#000000">::ComputeDimensions</text>
</a>
</g>
</g>
<!-- Node1&#45;&gt;Node18 -->
<g id="edge17" class="edge">
<title>Node1&#45;&gt;Node18</title>
<path fill="none" stroke="#191970" d="M93.7205,-398.5572C114.1192,-387.6406 143.1894,-373.1234 170,-363.5 181.5663,-359.3484 194.0682,-355.6476 206.315,-352.4317"/>
<polygon fill="#191970" stroke="#191970" points="91.8444,-395.5931 84.7247,-403.4391 95.1833,-401.7455 91.8444,-395.5931"/>
</g>
<!-- Node19 -->
<g id="node19" class="node">
<title>Node19</title>
<g id="a_node19"><a xlink:href="../../d9/d1a/classG4ParameterisationBoxZ.html#a576fa8266252542196474fdb619462b1" target="_top" xlink:title="G4ParameterisationBoxZ\l::ComputeDimensions">
<polygon fill="none" stroke="#000000" points="206,-270.5 206,-302.5 349,-302.5 349,-270.5 206,-270.5"/>
<text text-anchor="start" x="214" y="-289.5" font-family="FreeSans" font-size="10.00" fill="#000000">G4ParameterisationBoxZ</text>
<text text-anchor="middle" x="277.5" y="-277.5" font-family="FreeSans" font-size="10.00" fill="#000000">::ComputeDimensions</text>
</a>
</g>
</g>
<!-- Node1&#45;&gt;Node19 -->
<g id="edge18" class="edge">
<title>Node1&#45;&gt;Node19</title>
<path fill="none" stroke="#191970" d="M80.5028,-395.1739C98.3815,-372.2668 132.1048,-333.5207 170,-312.5 180.9981,-306.3993 193.4057,-301.7184 205.7814,-298.1301"/>
<polygon fill="#191970" stroke="#191970" points="77.5261,-393.3054 74.2478,-403.3803 83.0934,-397.5488 77.5261,-393.3054"/>
</g>
<!-- Node20 -->
<g id="node20" class="node">
<title>Node20</title>
<g id="a_node20"><a xlink:href="../../dc/d89/classEICG4RPDetector.html#abd7d67b442f22b2683d3e67ed0412dec" target="_top" xlink:title="construct">
<polygon fill="none" stroke="#000000" points="191,-231.5 191,-251.5 364,-251.5 364,-231.5 191,-231.5"/>
<text text-anchor="middle" x="277.5" y="-238.5" font-family="FreeSans" font-size="10.00" fill="#000000">EICG4RPDetector::ConstructMe</text>
</a>
</g>
</g>
<!-- Node1&#45;&gt;Node20 -->
<g id="edge19" class="edge">
<title>Node1&#45;&gt;Node20</title>
<path fill="none" stroke="#191970" d="M74.3952,-393.8059C87.9204,-360.6899 119.9419,-294.2673 170,-261.5 176.4327,-257.2893 183.5206,-253.9102 190.8953,-251.2052"/>
<polygon fill="#191970" stroke="#191970" points="71.063,-392.7156 70.6544,-403.3026 77.5759,-395.2811 71.063,-392.7156"/>
</g>
<!-- Node21 -->
<g id="node21" class="node">
<title>Node21</title>
<g id="a_node21"><a xlink:href="../../df/d79/pymodG4geometry_8cc.html#a57bf40b00291c260f8ed7eb7fb6deda4" target="_top" xlink:title="export_G4Box">
<polygon fill="none" stroke="#000000" points="234,-192.5 234,-212.5 321,-212.5 321,-192.5 234,-192.5"/>
<text text-anchor="middle" x="277.5" y="-199.5" font-family="FreeSans" font-size="10.00" fill="#000000">export_G4Box</text>
</a>
</g>
</g>
<!-- Node1&#45;&gt;Node21 -->
<g id="edge20" class="edge">
<title>Node1&#45;&gt;Node21</title>
<path fill="none" stroke="#191970" d="M71.6952,-393.3217C82.04,-353.6744 110.7353,-265.7187 170,-222.5 188.2524,-209.1895 212.7644,-203.932 233.7725,-202.1168"/>
<polygon fill="#191970" stroke="#191970" points="68.269,-392.597 69.2539,-403.1459 75.0623,-394.2852 68.269,-392.597"/>
</g>
<!-- Node23 -->
<g id="node23" class="node">
<title>Node23</title>
<g id="a_node23"><a xlink:href="../../dd/d4f/classG4STRead.html#a6bd98ca96b70b79548cb88782a623680" target="_top" xlink:title="G4STRead::Read">
<polygon fill="none" stroke="#000000" points="227.5,-153.5 227.5,-173.5 327.5,-173.5 327.5,-153.5 227.5,-153.5"/>
<text text-anchor="middle" x="277.5" y="-160.5" font-family="FreeSans" font-size="10.00" fill="#000000">G4STRead::Read</text>
</a>
</g>
</g>
<!-- Node1&#45;&gt;Node23 -->
<g id="edge22" class="edge">
<title>Node1&#45;&gt;Node23</title>
<path fill="none" stroke="#191970" d="M69.7542,-393.0989C77.0408,-347.6107 101.2258,-237.6346 170,-183.5 186.1101,-170.8192 207.7599,-165.2782 227.4082,-163.1098"/>
<polygon fill="#191970" stroke="#191970" points="66.261,-392.7944 68.2488,-403.2011 73.1845,-393.8261 66.261,-392.7944"/>
</g>
<!-- Node24 -->
<g id="node24" class="node">
<title>Node24</title>
<g id="a_node24"><a xlink:href="../../d6/dd9/classGB03DetectorConstruction.html#a4d9f85837fe3dd77fff2479e660512e8" target="_top" xlink:title="GB03DetectorConstruction\l::SetNumberOfLayers">
<polygon fill="none" stroke="#000000" points="201.5,-102.5 201.5,-134.5 353.5,-134.5 353.5,-102.5 201.5,-102.5"/>
<text text-anchor="start" x="209.5" y="-121.5" font-family="FreeSans" font-size="10.00" fill="#000000">GB03DetectorConstruction</text>
<text text-anchor="middle" x="277.5" y="-109.5" font-family="FreeSans" font-size="10.00" fill="#000000">::SetNumberOfLayers</text>
</a>
</g>
</g>
<!-- Node1&#45;&gt;Node24 -->
<g id="edge23" class="edge">
<title>Node1&#45;&gt;Node24</title>
<path fill="none" stroke="#191970" d="M68.5321,-393.1253C73.4495,-342.8131 93.3472,-211.8941 170,-144.5 178.9406,-136.6393 189.856,-131.0611 201.2652,-127.1209"/>
<polygon fill="#191970" stroke="#191970" points="65.0228,-393.0796 67.636,-403.3471 71.9961,-393.691 65.0228,-393.0796"/>
</g>
<!-- Node26 -->
<g id="node26" class="node">
<title>Node26</title>
<g id="a_node26"><a xlink:href="../../d8/dbd/classRE06DetectorConstruction.html#acf85597401c7571493a12fbeacd9626a" target="_top" xlink:title="RE06DetectorConstruction\l::SetNumberOfLayers">
<polygon fill="none" stroke="#000000" points="202.5,-51.5 202.5,-83.5 352.5,-83.5 352.5,-51.5 202.5,-51.5"/>
<text text-anchor="start" x="210.5" y="-70.5" font-family="FreeSans" font-size="10.00" fill="#000000">RE06DetectorConstruction</text>
<text text-anchor="middle" x="277.5" y="-58.5" font-family="FreeSans" font-size="10.00" fill="#000000">::SetNumberOfLayers</text>
</a>
</g>
</g>
<!-- Node1&#45;&gt;Node26 -->
<g id="edge25" class="edge">
<title>Node1&#45;&gt;Node26</title>
<path fill="none" stroke="#191970" d="M70.8514,-393.2063C83.3172,-329.5981 124.4086,-135.8324 170,-93.5 179.0758,-85.073 190.4024,-79.2419 202.2694,-75.2336"/>
<polygon fill="#191970" stroke="#191970" points="67.3822,-392.7126 68.9209,-403.1951 74.255,-394.041 67.3822,-392.7126"/>
</g>
<!-- Node28 -->
<g id="node28" class="node">
<title>Node28</title>
<g id="a_node28"><a xlink:href="../../dd/d73/classHadrontherapyDetectorROGeometry.html#a0c93af06ac500250ef9e70796363b8f4" target="_top" xlink:title="HadrontherapyDetectorROGeometry\l::UpdateROGeometry">
<polygon fill="none" stroke="#000000" points="177,-.5 177,-32.5 378,-32.5 378,-.5 177,-.5"/>
<text text-anchor="start" x="185" y="-19.5" font-family="FreeSans" font-size="10.00" fill="#000000">HadrontherapyDetectorROGeometry</text>
<text text-anchor="middle" x="277.5" y="-7.5" font-family="FreeSans" font-size="10.00" fill="#000000">::UpdateROGeometry</text>
</a>
</g>
</g>
<!-- Node1&#45;&gt;Node28 -->
<g id="edge27" class="edge">
<title>Node1&#45;&gt;Node28</title>
<path fill="none" stroke="#191970" d="M69.8918,-393.2723C80.2983,-323.2613 117.9953,-92.7909 170,-42.5 173.8648,-38.7626 178.1702,-35.5316 182.7736,-32.7412"/>
<polygon fill="#191970" stroke="#191970" points="66.3926,-393.0133 68.4098,-403.4143 73.319,-394.0255 66.3926,-393.0133"/>
</g>
<!-- Node4 -->
<g id="node4" class="node">
<title>Node4</title>
<g id="a_node4"><a xlink:href="../../dc/d5b/classDetectorConstruction.html#a6510420f0287852bba351f7a721a6adf" target="_top" xlink:title="DetectorConstruction\l::SetAbsorberSizeYZ">
<polygon fill="none" stroke="#000000" points="459,-895.5 459,-927.5 583,-927.5 583,-895.5 459,-895.5"/>
<text text-anchor="start" x="467" y="-914.5" font-family="FreeSans" font-size="10.00" fill="#000000">DetectorConstruction</text>
<text text-anchor="middle" x="521" y="-902.5" font-family="FreeSans" font-size="10.00" fill="#000000">::SetAbsorberSizeYZ</text>
</a>
</g>
</g>
<!-- Node3&#45;&gt;Node4 -->
<g id="edge3" class="edge">
<title>Node3&#45;&gt;Node4</title>
<path fill="none" stroke="#191970" d="M349.3677,-792.481C362.2004,-796.409 374.7324,-802.1482 385,-810.5 413.9949,-834.0846 392.0958,-862.8043 421,-886.5 431.7946,-895.3495 445.2947,-901.1272 458.8496,-904.8834"/>
<polygon fill="#191970" stroke="#191970" points="350.0957,-789.0521 339.5285,-789.817 348.2662,-795.8089 350.0957,-789.0521"/>
</g>
<!-- Node5 -->
<g id="node5" class="node">
<title>Node5</title>
<g id="a_node5"><a xlink:href="../../dc/d5b/classDetectorConstruction.html#aefcb87b7ccde67a6aef3d45ab674d065" target="_top" xlink:title="DetectorConstruction\l::SetContainerThickness">
<polygon fill="none" stroke="#000000" points="451.5,-844.5 451.5,-876.5 590.5,-876.5 590.5,-844.5 451.5,-844.5"/>
<text text-anchor="start" x="459.5" y="-863.5" font-family="FreeSans" font-size="10.00" fill="#000000">DetectorConstruction</text>
<text text-anchor="middle" x="521" y="-851.5" font-family="FreeSans" font-size="10.00" fill="#000000">::SetContainerThickness</text>
</a>
</g>
</g>
<!-- Node3&#45;&gt;Node5 -->
<g id="edge4" class="edge">
<title>Node3&#45;&gt;Node5</title>
<path fill="none" stroke="#191970" d="M349.3353,-797.9546C361.4993,-801.3337 373.805,-805.4718 385,-810.5 402.7696,-818.4812 403.2612,-827.4507 421,-835.5 430.5333,-839.8259 440.9315,-843.4802 451.3015,-846.544"/>
<polygon fill="#191970" stroke="#191970" points="350.1955,-794.5619 339.6343,-795.4049 348.4161,-801.332 350.1955,-794.5619"/>
</g>
<!-- Node6 -->
<g id="node6" class="node">
<title>Node6</title>
<g id="a_node6"><a xlink:href="../../dc/d5b/classDetectorConstruction.html#a95d5bbad5097f4dee20451f933dc4861" target="_top" xlink:title="DetectorConstruction\l::SetGasRadius">
<polygon fill="none" stroke="#000000" points="459,-793.5 459,-825.5 583,-825.5 583,-793.5 459,-793.5"/>
<text text-anchor="start" x="467" y="-812.5" font-family="FreeSans" font-size="10.00" fill="#000000">DetectorConstruction</text>
<text text-anchor="middle" x="521" y="-800.5" font-family="FreeSans" font-size="10.00" fill="#000000">::SetGasRadius</text>
</a>
</g>
</g>
<!-- Node3&#45;&gt;Node6 -->
<g id="edge5" class="edge">
<title>Node3&#45;&gt;Node6</title>
<path fill="none" stroke="#191970" d="M349.6281,-791.9053C384.2585,-795.4608 425.3509,-799.6798 458.6151,-803.095"/>
<polygon fill="#191970" stroke="#191970" points="349.8806,-788.413 339.5754,-790.8732 349.1656,-795.3764 349.8806,-788.413"/>
</g>
<!-- Node7 -->
<g id="node7" class="node">
<title>Node7</title>
<g id="a_node7"><a xlink:href="../../dc/d5b/classDetectorConstruction.html#a3ef647383ea4639014d6dc7244ffba0a" target="_top" xlink:title="DetectorConstruction\l::SetGasThickness">
<polygon fill="none" stroke="#000000" points="459,-742.5 459,-774.5 583,-774.5 583,-742.5 459,-742.5"/>
<text text-anchor="start" x="467" y="-761.5" font-family="FreeSans" font-size="10.00" fill="#000000">DetectorConstruction</text>
<text text-anchor="middle" x="521" y="-749.5" font-family="FreeSans" font-size="10.00" fill="#000000">::SetGasThickness</text>
</a>
</g>
</g>
<!-- Node3&#45;&gt;Node7 -->
<g id="edge6" class="edge">
<title>Node3&#45;&gt;Node7</title>
<path fill="none" stroke="#191970" d="M349.6281,-776.7984C384.2585,-773.1007 425.3509,-768.713 458.6151,-765.1612"/>
<polygon fill="#191970" stroke="#191970" points="349.1472,-773.3298 339.5754,-777.8718 349.8905,-780.2902 349.1472,-773.3298"/>
</g>
<!-- Node8 -->
<g id="node8" class="node">
<title>Node8</title>
<g id="a_node8"><a xlink:href="../../dc/d5b/classDetectorConstruction.html#a6d062bc73a477763063328cf6a34a2cd" target="_top" xlink:title="DetectorConstruction\l::SetWorldSizeX">
<polygon fill="none" stroke="#000000" points="459,-691.5 459,-723.5 583,-723.5 583,-691.5 459,-691.5"/>
<text text-anchor="start" x="467" y="-710.5" font-family="FreeSans" font-size="10.00" fill="#000000">DetectorConstruction</text>
<text text-anchor="middle" x="521" y="-698.5" font-family="FreeSans" font-size="10.00" fill="#000000">::SetWorldSizeX</text>
</a>
</g>
</g>
<!-- Node3&#45;&gt;Node8 -->
<g id="edge7" class="edge">
<title>Node3&#45;&gt;Node8</title>
<path fill="none" stroke="#191970" d="M349.416,-771.9631C361.5711,-768.6694 373.8528,-764.5718 385,-759.5 402.9645,-751.3264 403.1427,-741.9053 421,-733.5 432.8481,-727.9232 446.0705,-723.4128 458.92,-719.814"/>
<polygon fill="#191970" stroke="#191970" points="348.5444,-768.5733 339.7192,-774.4355 350.274,-775.3563 348.5444,-768.5733"/>
</g>
<!-- Node9 -->
<g id="node9" class="node">
<title>Node9</title>
<g id="a_node9"><a xlink:href="../../dc/d5b/classDetectorConstruction.html#ac2d7009279105b3bb1cf1d559746548e" target="_top" xlink:title="DetectorConstruction\l::SetWorldSizeYZ">
<polygon fill="none" stroke="#000000" points="459,-640.5 459,-672.5 583,-672.5 583,-640.5 459,-640.5"/>
<text text-anchor="start" x="467" y="-659.5" font-family="FreeSans" font-size="10.00" fill="#000000">DetectorConstruction</text>
<text text-anchor="middle" x="521" y="-647.5" font-family="FreeSans" font-size="10.00" fill="#000000">::SetWorldSizeYZ</text>
</a>
</g>
</g>
<!-- Node3&#45;&gt;Node9 -->
<g id="edge8" class="edge">
<title>Node3&#45;&gt;Node9</title>
<path fill="none" stroke="#191970" d="M349.3769,-777.2817C362.2087,-773.4647 374.7381,-767.815 385,-759.5 414.3517,-735.7169 391.9584,-706.6608 421,-682.5 431.7563,-673.5515 445.2414,-667.6423 458.7939,-663.751"/>
<polygon fill="#191970" stroke="#191970" points="348.3257,-773.9388 339.5379,-779.857 350.0983,-780.7107 348.3257,-773.9388"/>
</g>
<!-- Node22 -->
<g id="node22" class="node">
<title>Node22</title>
<g id="a_node22"><a xlink:href="../../df/d79/pymodG4geometry_8cc.html#a015bf5fe322d79f1de02b734fde3252b" target="_top" xlink:title="BOOST_PYTHON_MODULE">
<polygon fill="none" stroke="#000000" points="448,-192.5 448,-212.5 594,-212.5 594,-192.5 448,-192.5"/>
<text text-anchor="middle" x="521" y="-199.5" font-family="FreeSans" font-size="10.00" fill="#000000">BOOST_PYTHON_MODULE</text>
</a>
</g>
</g>
<!-- Node21&#45;&gt;Node22 -->
<g id="edge21" class="edge">
<title>Node21&#45;&gt;Node22</title>
<path fill="none" stroke="#191970" d="M331.2987,-202.5C365.532,-202.5 410.3097,-202.5 447.764,-202.5"/>
<polygon fill="#191970" stroke="#191970" points="331.033,-199.0001 321.0329,-202.5 331.0329,-206.0001 331.033,-199.0001"/>
</g>
<!-- Node25 -->
<g id="node25" class="node">
<title>Node25</title>
<g id="a_node25"><a xlink:href="../../d6/d81/classGB03DetectorMessenger.html#ab4c4da69d5fabc60099dbb6a1789f801" target="_top" xlink:title="GB03DetectorMessenger\l::SetNewValue">
<polygon fill="none" stroke="#000000" points="449.5,-102.5 449.5,-134.5 592.5,-134.5 592.5,-102.5 449.5,-102.5"/>
<text text-anchor="start" x="457.5" y="-121.5" font-family="FreeSans" font-size="10.00" fill="#000000">GB03DetectorMessenger</text>
<text text-anchor="middle" x="521" y="-109.5" font-family="FreeSans" font-size="10.00" fill="#000000">::SetNewValue</text>
</a>
</g>
</g>
<!-- Node24&#45;&gt;Node25 -->
<g id="edge24" class="edge">
<title>Node24&#45;&gt;Node25</title>
<path fill="none" stroke="#191970" d="M363.7197,-118.5C391.7121,-118.5 422.4508,-118.5 449.2699,-118.5"/>
<polygon fill="#191970" stroke="#191970" points="363.5433,-115.0001 353.5433,-118.5 363.5433,-122.0001 363.5433,-115.0001"/>
</g>
<!-- Node27 -->
<g id="node27" class="node">
<title>Node27</title>
<g id="a_node27"><a xlink:href="../../df/d71/classRE06DetectorMessenger.html#a79bbb15ae547ced7367c77b43cb14fb7" target="_top" xlink:title="RE06DetectorMessenger\l::SetNewValue">
<polygon fill="none" stroke="#000000" points="450,-51.5 450,-83.5 592,-83.5 592,-51.5 450,-51.5"/>
<text text-anchor="start" x="458" y="-70.5" font-family="FreeSans" font-size="10.00" fill="#000000">RE06DetectorMessenger</text>
<text text-anchor="middle" x="521" y="-58.5" font-family="FreeSans" font-size="10.00" fill="#000000">::SetNewValue</text>
</a>
</g>
</g>
<!-- Node26&#45;&gt;Node27 -->
<g id="edge26" class="edge">
<title>Node26&#45;&gt;Node27</title>
<path fill="none" stroke="#191970" d="M362.8821,-67.5C391.3338,-67.5 422.703,-67.5 449.9484,-67.5"/>
<polygon fill="#191970" stroke="#191970" points="362.5449,-64.0001 352.5449,-67.5 362.5449,-71.0001 362.5449,-64.0001"/>
</g>
<!-- Node29 -->
<g id="node29" class="node">
<title>Node29</title>
<g id="a_node29"><a xlink:href="../../db/df7/classHadrontherapyDetectorConstruction.html#a1a59dea0a6ce7b6f77a8bd16c6f08e77" target="_top" xlink:title="HadrontherapyDetectorConstruction\l::UpdateGeometry">
<polygon fill="none" stroke="#000000" points="421,-.5 421,-32.5 621,-32.5 621,-.5 421,-.5"/>
<text text-anchor="start" x="429" y="-19.5" font-family="FreeSans" font-size="10.00" fill="#000000">HadrontherapyDetectorConstruction</text>
<text text-anchor="middle" x="521" y="-7.5" font-family="FreeSans" font-size="10.00" fill="#000000">::UpdateGeometry</text>
</a>
</g>
</g>
<!-- Node28&#45;&gt;Node29 -->
<g id="edge28" class="edge">
<title>Node28&#45;&gt;Node29</title>
<path fill="none" stroke="#191970" d="M388.5261,-16.5C399.2407,-16.5 410.067,-16.5 420.6695,-16.5"/>
<polygon fill="#191970" stroke="#191970" points="388.2985,-13.0001 378.2985,-16.5 388.2984,-20.0001 388.2985,-13.0001"/>
</g>
<!-- Node30 -->
<g id="node30" class="node">
<title>Node30</title>
<g id="a_node30"><a xlink:href="../../db/df7/classHadrontherapyDetectorConstruction.html#aad7e8923e69986c17ebbf1376d480980" target="_top" xlink:title="HadrontherapyDetectorConstruction\l::HadrontherapyDetectorConstruction">
<polygon fill="none" stroke="#000000" points="657,-.5 657,-32.5 864,-32.5 864,-.5 657,-.5"/>
<text text-anchor="start" x="665" y="-19.5" font-family="FreeSans" font-size="10.00" fill="#000000">HadrontherapyDetectorConstruction</text>
<text text-anchor="middle" x="760.5" y="-7.5" font-family="FreeSans" font-size="10.00" fill="#000000">::HadrontherapyDetectorConstruction</text>
</a>
</g>
</g>
<!-- Node29&#45;&gt;Node30 -->
<g id="edge29" class="edge">
<title>Node29&#45;&gt;Node30</title>
<path fill="none" stroke="#191970" d="M631.1832,-16.5C639.7375,-16.5 648.3573,-16.5 656.8665,-16.5"/>
<polygon fill="#191970" stroke="#191970" points="631.1819,-13.0001 621.1819,-16.5 631.1818,-20.0001 631.1819,-13.0001"/>
</g>
</g>
</svg>
