<?xml version="1.0" encoding="UTF-8" standalone="no"?>
<!DOCTYPE svg PUBLIC "-//W3C//DTD SVG 1.1//EN"
 "http://www.w3.org/Graphics/SVG/1.1/DTD/svg11.dtd">
<!-- Generated by graphviz version 2.40.1 (20161225.0304)
 -->
<!-- Title: G4GDMLReadMaterials::AtomRead Pages: 1 -->
<svg width="476pt" height="143pt"
 viewBox="0.00 0.00 476.00 143.00" xmlns="http://www.w3.org/2000/svg" xmlns:xlink="http://www.w3.org/1999/xlink">
<g id="graph0" class="graph" transform="scale(1 1) rotate(0) translate(4 139)">
<title>G4GDMLReadMaterials::AtomRead</title>
<!-- Node1 -->
<g id="node1" class="node">
<title>Node1</title>
<polygon fill="#bfbfbf" stroke="#000000" points="0,-51.5 0,-83.5 132,-83.5 132,-51.5 0,-51.5"/>
<text text-anchor="start" x="8" y="-70.5" font-family="FreeSans" font-size="10.00" fill="#000000">G4GDMLReadMaterials</text>
<text text-anchor="middle" x="66" y="-58.5" font-family="FreeSans" font-size="10.00" fill="#000000">::AtomRead</text>
</g>
<!-- Node2 -->
<g id="node2" class="node">
<title>Node2</title>
<g id="a_node2"><a xlink:href="../../db/d87/classG4GDMLReadMaterials.html#acd53bfa1b80bc8f0c3bf4b1e22e7daed" target="_top" xlink:title="G4GDMLReadMaterials\l::ElementRead">
<polygon fill="none" stroke="#000000" points="168,-102.5 168,-134.5 300,-134.5 300,-102.5 168,-102.5"/>
<text text-anchor="start" x="176" y="-121.5" font-family="FreeSans" font-size="10.00" fill="#000000">G4GDMLReadMaterials</text>
<text text-anchor="middle" x="234" y="-109.5" font-family="FreeSans" font-size="10.00" fill="#000000">::ElementRead</text>
</a>
</g>
</g>
<!-- Node1&#45;&gt;Node2 -->
<g id="edge1" class="edge">
<title>Node1&#45;&gt;Node2</title>
<path fill="none" stroke="#191970" d="M129.0938,-86.6535C146.256,-91.8634 164.6616,-97.4508 181.1895,-102.4683"/>
<polygon fill="#191970" stroke="#191970" points="129.7418,-83.1925 119.1563,-83.6367 127.7084,-89.8907 129.7418,-83.1925"/>
</g>
<!-- Node4 -->
<g id="node4" class="node">
<title>Node4</title>
<g id="a_node4"><a xlink:href="../../db/d87/classG4GDMLReadMaterials.html#ae2e21385c2949ada6006c655ba994aa9" target="_top" xlink:title="G4GDMLReadMaterials\l::IsotopeRead">
<polygon fill="none" stroke="#000000" points="168,-51.5 168,-83.5 300,-83.5 300,-51.5 168,-51.5"/>
<text text-anchor="start" x="176" y="-70.5" font-family="FreeSans" font-size="10.00" fill="#000000">G4GDMLReadMaterials</text>
<text text-anchor="middle" x="234" y="-58.5" font-family="FreeSans" font-size="10.00" fill="#000000">::IsotopeRead</text>
</a>
</g>
</g>
<!-- Node1&#45;&gt;Node4 -->
<g id="edge3" class="edge">
<title>Node1&#45;&gt;Node4</title>
<path fill="none" stroke="#191970" d="M142.5946,-67.5C151.0134,-67.5 159.5322,-67.5 167.8092,-67.5"/>
<polygon fill="#191970" stroke="#191970" points="142.3981,-64.0001 132.398,-67.5 142.398,-71.0001 142.3981,-64.0001"/>
</g>
<!-- Node5 -->
<g id="node5" class="node">
<title>Node5</title>
<g id="a_node5"><a xlink:href="../../db/d87/classG4GDMLReadMaterials.html#aea2d34239b0d61bca0ea6a645f2b55f2" target="_top" xlink:title="G4GDMLReadMaterials\l::MaterialRead">
<polygon fill="none" stroke="#000000" points="168,-.5 168,-32.5 300,-32.5 300,-.5 168,-.5"/>
<text text-anchor="start" x="176" y="-19.5" font-family="FreeSans" font-size="10.00" fill="#000000">G4GDMLReadMaterials</text>
<text text-anchor="middle" x="234" y="-7.5" font-family="FreeSans" font-size="10.00" fill="#000000">::MaterialRead</text>
</a>
</g>
</g>
<!-- Node1&#45;&gt;Node5 -->
<g id="edge5" class="edge">
<title>Node1&#45;&gt;Node5</title>
<path fill="none" stroke="#191970" d="M129.0938,-48.3465C146.256,-43.1366 164.6616,-37.5492 181.1895,-32.5317"/>
<polygon fill="#191970" stroke="#191970" points="127.7084,-45.1093 119.1563,-51.3633 129.7418,-51.8075 127.7084,-45.1093"/>
</g>
<!-- Node3 -->
<g id="node3" class="node">
<title>Node3</title>
<g id="a_node3"><a xlink:href="../../db/d87/classG4GDMLReadMaterials.html#aa810ff8fc6c63b50a82825ccccd774e6" target="_top" xlink:title="G4GDMLReadMaterials\l::MaterialsRead">
<polygon fill="none" stroke="#000000" points="336,-51.5 336,-83.5 468,-83.5 468,-51.5 336,-51.5"/>
<text text-anchor="start" x="344" y="-70.5" font-family="FreeSans" font-size="10.00" fill="#000000">G4GDMLReadMaterials</text>
<text text-anchor="middle" x="402" y="-58.5" font-family="FreeSans" font-size="10.00" fill="#000000">::MaterialsRead</text>
</a>
</g>
</g>
<!-- Node2&#45;&gt;Node3 -->
<g id="edge2" class="edge">
<title>Node2&#45;&gt;Node3</title>
<path fill="none" stroke="#191970" d="M297.0938,-99.3465C314.256,-94.1366 332.6616,-88.5492 349.1895,-83.5317"/>
<polygon fill="#191970" stroke="#191970" points="295.7084,-96.1093 287.1563,-102.3633 297.7418,-102.8075 295.7084,-96.1093"/>
</g>
<!-- Node4&#45;&gt;Node3 -->
<g id="edge4" class="edge">
<title>Node4&#45;&gt;Node3</title>
<path fill="none" stroke="#191970" d="M310.5946,-67.5C319.0134,-67.5 327.5322,-67.5 335.8092,-67.5"/>
<polygon fill="#191970" stroke="#191970" points="310.3981,-64.0001 300.398,-67.5 310.398,-71.0001 310.3981,-64.0001"/>
</g>
<!-- Node5&#45;&gt;Node3 -->
<g id="edge6" class="edge">
<title>Node5&#45;&gt;Node3</title>
<path fill="none" stroke="#191970" d="M297.0938,-35.6535C314.256,-40.8634 332.6616,-46.4508 349.1895,-51.4683"/>
<polygon fill="#191970" stroke="#191970" points="297.7418,-32.1925 287.1563,-32.6367 295.7084,-38.8907 297.7418,-32.1925"/>
</g>
</g>
</svg>
