<?xml version="1.0" encoding="UTF-8" standalone="no"?>
<!DOCTYPE svg PUBLIC "-//W3C//DTD SVG 1.1//EN"
 "http://www.w3.org/Graphics/SVG/1.1/DTD/svg11.dtd">
<!-- Generated by graphviz version 2.40.1 (20161225.0304)
 -->
<!-- Title: G4IonConstructor::ConstructLightIons Pages: 1 -->
<svg width="1212pt" height="377pt"
 viewBox="0.00 0.00 1212.00 377.00" xmlns="http://www.w3.org/2000/svg" xmlns:xlink="http://www.w3.org/1999/xlink">
<g id="graph0" class="graph" transform="scale(1 1) rotate(0) translate(4 373)">
<title>G4IonConstructor::ConstructLightIons</title>
<!-- Node1 -->
<g id="node1" class="node">
<title>Node1</title>
<polygon fill="#bfbfbf" stroke="#000000" points="0,-174.5 0,-206.5 161,-206.5 161,-174.5 0,-174.5"/>
<text text-anchor="start" x="8" y="-193.5" font-family="FreeSans" font-size="10.00" fill="#000000">G4IonConstructor::Construct</text>
<text text-anchor="middle" x="80.5" y="-181.5" font-family="FreeSans" font-size="10.00" fill="#000000">LightIons</text>
</g>
<!-- Node2 -->
<g id="node2" class="node">
<title>Node2</title>
<g id="a_node2"><a xlink:href="../../dc/d9e/classG4Alpha.html#a2a401f82777cf6cbdf677a3b62e89f68" target="_top" xlink:title="G4Alpha::AlphaDefinition">
<polygon fill="none" stroke="#000000" points="217,-258.5 217,-278.5 361,-278.5 361,-258.5 217,-258.5"/>
<text text-anchor="middle" x="289" y="-265.5" font-family="FreeSans" font-size="10.00" fill="#000000">G4Alpha::AlphaDefinition</text>
</a>
</g>
</g>
<!-- Node1&#45;&gt;Node2 -->
<g id="edge1" class="edge">
<title>Node1&#45;&gt;Node2</title>
<path fill="none" stroke="#191970" d="M107.8985,-206.5768C130.9852,-219.5203 165.2402,-237.337 197,-248.5 204.9801,-251.3049 213.4934,-253.793 221.9981,-255.9779"/>
<polygon fill="#191970" stroke="#191970" points="221.401,-259.4348 231.9456,-258.4042 223.0598,-252.6342 221.401,-259.4348"/>
</g>
<!-- Node16 -->
<g id="node16" class="node">
<title>Node16</title>
<g id="a_node16"><a xlink:href="../../df/dd3/classG4AntiAlpha.html#ab6210cd991ee86794f7096ce8b5ba2db" target="_top" xlink:title="G4AntiAlpha::AntiAlphaDefinition">
<polygon fill="none" stroke="#000000" points="197,-297.5 197,-317.5 381,-317.5 381,-297.5 197,-297.5"/>
<text text-anchor="middle" x="289" y="-304.5" font-family="FreeSans" font-size="10.00" fill="#000000">G4AntiAlpha::AntiAlphaDefinition</text>
</a>
</g>
</g>
<!-- Node1&#45;&gt;Node16 -->
<g id="edge16" class="edge">
<title>Node1&#45;&gt;Node16</title>
<path fill="none" stroke="#191970" d="M94.9763,-206.6719C115.4718,-228.5158 155.1387,-267.062 197,-287.5 202.3635,-290.1186 208.0687,-292.3971 213.909,-294.3792"/>
<polygon fill="#191970" stroke="#191970" points="213.2415,-297.8361 223.829,-297.443 215.3071,-291.1478 213.2415,-297.8361"/>
</g>
<!-- Node18 -->
<g id="node18" class="node">
<title>Node18</title>
<g id="a_node18"><a xlink:href="../../d6/d9f/classG4AntiDeuteron.html#a59b49e9301aea8e4a8e044a3d028eef0" target="_top" xlink:title="G4AntiDeuteron::AntiDeuteron\lDefinition">
<polygon fill="none" stroke="#000000" points="203.5,-129.5 203.5,-161.5 374.5,-161.5 374.5,-129.5 203.5,-129.5"/>
<text text-anchor="start" x="211.5" y="-148.5" font-family="FreeSans" font-size="10.00" fill="#000000">G4AntiDeuteron::AntiDeuteron</text>
<text text-anchor="middle" x="289" y="-136.5" font-family="FreeSans" font-size="10.00" fill="#000000">Definition</text>
</a>
</g>
</g>
<!-- Node1&#45;&gt;Node18 -->
<g id="edge21" class="edge">
<title>Node1&#45;&gt;Node18</title>
<path fill="none" stroke="#191970" d="M154.8903,-174.4445C170.9672,-170.9747 188.0788,-167.2816 204.5106,-163.7351"/>
<polygon fill="#191970" stroke="#191970" points="205.6019,-167.0803 214.6385,-161.5493 204.1251,-160.2378 205.6019,-167.0803"/>
</g>
<!-- Node21 -->
<g id="node21" class="node">
<title>Node21</title>
<g id="a_node21"><a xlink:href="../../d1/dfc/classG4AntiHe3.html#af5b6c730012a6f30fb5ff80a68c896d1" target="_top" xlink:title="G4AntiHe3::AntiHe3Definition">
<polygon fill="none" stroke="#000000" points="205.5,-90.5 205.5,-110.5 372.5,-110.5 372.5,-90.5 205.5,-90.5"/>
<text text-anchor="middle" x="289" y="-97.5" font-family="FreeSans" font-size="10.00" fill="#000000">G4AntiHe3::AntiHe3Definition</text>
</a>
</g>
</g>
<!-- Node1&#45;&gt;Node21 -->
<g id="edge27" class="edge">
<title>Node1&#45;&gt;Node21</title>
<path fill="none" stroke="#191970" d="M102.066,-174.202C124.5908,-157.9617 161.5228,-133.4851 197,-119.5 202.9743,-117.1449 209.2873,-115.0648 215.6935,-113.2308"/>
<polygon fill="#191970" stroke="#191970" points="217.0345,-116.4961 225.8016,-110.5472 215.2383,-109.7305 217.0345,-116.4961"/>
</g>
<!-- Node23 -->
<g id="node23" class="node">
<title>Node23</title>
<g id="a_node23"><a xlink:href="../../d2/d74/classG4AntiTriton.html#a595a9e454a9bba89a7a1b30dea5f5956" target="_top" xlink:title="G4AntiTriton::AntiTriton\lDefinition">
<polygon fill="none" stroke="#000000" points="222,-39.5 222,-71.5 356,-71.5 356,-39.5 222,-39.5"/>
<text text-anchor="start" x="230" y="-58.5" font-family="FreeSans" font-size="10.00" fill="#000000">G4AntiTriton::AntiTriton</text>
<text text-anchor="middle" x="289" y="-46.5" font-family="FreeSans" font-size="10.00" fill="#000000">Definition</text>
</a>
</g>
</g>
<!-- Node1&#45;&gt;Node23 -->
<g id="edge33" class="edge">
<title>Node1&#45;&gt;Node23</title>
<path fill="none" stroke="#191970" d="M93.0061,-174.4465C112.5877,-150.4119 152.8409,-105.2599 197,-80.5 201.7822,-77.8186 206.8672,-75.4126 212.0966,-73.2555"/>
<polygon fill="#191970" stroke="#191970" points="213.5242,-76.4573 221.631,-69.636 211.0398,-69.913 213.5242,-76.4573"/>
</g>
<!-- Node25 -->
<g id="node25" class="node">
<title>Node25</title>
<g id="a_node25"><a xlink:href="../../df/dfb/classG4Deuteron.html#a746c5d50268d2eb7316e54a080aa1e0f" target="_top" xlink:title="G4Deuteron::DeuteronDefinition">
<polygon fill="none" stroke="#000000" points="199,-.5 199,-20.5 379,-20.5 379,-.5 199,-.5"/>
<text text-anchor="middle" x="289" y="-7.5" font-family="FreeSans" font-size="10.00" fill="#000000">G4Deuteron::DeuteronDefinition</text>
</a>
</g>
</g>
<!-- Node1&#45;&gt;Node25 -->
<g id="edge39" class="edge">
<title>Node1&#45;&gt;Node25</title>
<path fill="none" stroke="#191970" d="M87.3411,-174.165C102.0922,-141.0881 140.2156,-66.2208 197,-29.5 199.8075,-27.6845 202.7553,-26.0379 205.803,-24.5448"/>
<polygon fill="#191970" stroke="#191970" points="207.3953,-27.6702 215.205,-20.5106 204.6351,-21.2373 207.3953,-27.6702"/>
</g>
<!-- Node27 -->
<g id="node27" class="node">
<title>Node27</title>
<g id="a_node27"><a xlink:href="../../d4/d78/classG4GenericIon.html#a3d1cfbae0b390866df6410872881d0ca" target="_top" xlink:title="G4GenericIon::GenericIon\lDefinition">
<polygon fill="none" stroke="#000000" points="215.5,-336.5 215.5,-368.5 362.5,-368.5 362.5,-336.5 215.5,-336.5"/>
<text text-anchor="start" x="223.5" y="-355.5" font-family="FreeSans" font-size="10.00" fill="#000000">G4GenericIon::GenericIon</text>
<text text-anchor="middle" x="289" y="-343.5" font-family="FreeSans" font-size="10.00" fill="#000000">Definition</text>
</a>
</g>
</g>
<!-- Node1&#45;&gt;Node27 -->
<g id="edge45" class="edge">
<title>Node1&#45;&gt;Node27</title>
<path fill="none" stroke="#191970" d="M89.8144,-206.6119C107.1669,-235.1762 147.2352,-294.6761 197,-326.5 200.1943,-328.5427 203.551,-330.4279 207.0158,-332.1674"/>
<polygon fill="#191970" stroke="#191970" points="205.8509,-335.4826 216.4024,-336.4398 208.7508,-329.1115 205.8509,-335.4826"/>
</g>
<!-- Node30 -->
<g id="node30" class="node">
<title>Node30</title>
<g id="a_node30"><a xlink:href="../../d2/db5/classG4He3.html#ac75b55c9cc2dc5c64de7672c0544eb8f" target="_top" xlink:title="G4He3::He3Definition">
<polygon fill="none" stroke="#000000" points="225.5,-180.5 225.5,-200.5 352.5,-200.5 352.5,-180.5 225.5,-180.5"/>
<text text-anchor="middle" x="289" y="-187.5" font-family="FreeSans" font-size="10.00" fill="#000000">G4He3::He3Definition</text>
</a>
</g>
</g>
<!-- Node1&#45;&gt;Node30 -->
<g id="edge51" class="edge">
<title>Node1&#45;&gt;Node30</title>
<path fill="none" stroke="#191970" d="M161.1115,-190.5C178.929,-190.5 197.719,-190.5 215.2476,-190.5"/>
<polygon fill="#191970" stroke="#191970" points="215.4056,-194.0001 225.4055,-190.5 215.4055,-187.0001 215.4056,-194.0001"/>
</g>
<!-- Node32 -->
<g id="node32" class="node">
<title>Node32</title>
<g id="a_node32"><a xlink:href="../../da/d5b/classG4Triton.html#ac89804967e72a571825231851f2b0134" target="_top" xlink:title="G4Triton::TritonDefinition">
<polygon fill="none" stroke="#000000" points="217.5,-219.5 217.5,-239.5 360.5,-239.5 360.5,-219.5 217.5,-219.5"/>
<text text-anchor="middle" x="289" y="-226.5" font-family="FreeSans" font-size="10.00" fill="#000000">G4Triton::TritonDefinition</text>
</a>
</g>
</g>
<!-- Node1&#45;&gt;Node32 -->
<g id="edge57" class="edge">
<title>Node1&#45;&gt;Node32</title>
<path fill="none" stroke="#191970" d="M161.1115,-205.5784C182.3843,-209.5575 205.0433,-213.7959 225.2867,-217.5824"/>
<polygon fill="#191970" stroke="#191970" points="224.8489,-221.0611 235.3219,-219.4595 226.136,-214.1805 224.8489,-221.0611"/>
</g>
<!-- Node3 -->
<g id="node3" class="node">
<title>Node3</title>
<g id="a_node3"><a xlink:href="../../dc/d9e/classG4Alpha.html#a6775b51f1bda0a28a4c36910a447b3c7" target="_top" xlink:title="G4Alpha::Definition">
<polygon fill="none" stroke="#000000" points="436,-258.5 436,-278.5 551,-278.5 551,-258.5 436,-258.5"/>
<text text-anchor="middle" x="493.5" y="-265.5" font-family="FreeSans" font-size="10.00" fill="#000000">G4Alpha::Definition</text>
</a>
</g>
</g>
<!-- Node2&#45;&gt;Node3 -->
<g id="edge2" class="edge">
<title>Node2&#45;&gt;Node3</title>
<path fill="none" stroke="#191970" d="M361.099,-268.5C382.1483,-268.5 405.0697,-268.5 425.8342,-268.5"/>
<polygon fill="#191970" stroke="#191970" points="425.8368,-272.0001 435.8368,-268.5 425.8367,-265.0001 425.8368,-272.0001"/>
</g>
<!-- Node4 -->
<g id="node4" class="node">
<title>Node4</title>
<g id="a_node4"><a xlink:href="../../d8/dd3/classG4ParticleTable.html#a891da3f41417c3800e7596fab298c3c5" target="_top" xlink:title="G4ParticleTable::FindParticle">
<polygon fill="none" stroke="#000000" points="612.5,-231.5 612.5,-251.5 771.5,-251.5 771.5,-231.5 612.5,-231.5"/>
<text text-anchor="middle" x="692" y="-238.5" font-family="FreeSans" font-size="10.00" fill="#000000">G4ParticleTable::FindParticle</text>
</a>
</g>
</g>
<!-- Node3&#45;&gt;Node4 -->
<g id="edge3" class="edge">
<title>Node3&#45;&gt;Node4</title>
<path fill="none" stroke="#191970" d="M551.1811,-260.6542C569.0193,-258.2279 589.0442,-255.5041 608.2721,-252.8887"/>
<polygon fill="#191970" stroke="#191970" points="608.8016,-256.349 618.2386,-251.533 607.858,-249.4129 608.8016,-256.349"/>
</g>
<!-- Node9 -->
<g id="node9" class="node">
<title>Node9</title>
<g id="a_node9"><a xlink:href="../../df/d1a/classG4Ions.html#ae983e0b83e4ab01690f4e778fc97a50e" target="_top" xlink:title="G4Ions::G4Ions">
<polygon fill="none" stroke="#000000" points="645.5,-141.5 645.5,-161.5 738.5,-161.5 738.5,-141.5 645.5,-141.5"/>
<text text-anchor="middle" x="692" y="-148.5" font-family="FreeSans" font-size="10.00" fill="#000000">G4Ions::G4Ions</text>
</a>
</g>
</g>
<!-- Node3&#45;&gt;Node9 -->
<g id="edge8" class="edge">
<title>Node3&#45;&gt;Node9</title>
<path fill="none" stroke="#191970" d="M551.3864,-259.3702C558.1206,-256.6286 564.5267,-253.0825 570,-248.5 599.2747,-223.9894 576.2616,-194.4458 606,-170.5 614.48,-163.6718 624.8958,-159.1721 635.5145,-156.2338"/>
<polygon fill="#191970" stroke="#191970" points="636.333,-159.6369 645.2737,-153.9524 634.7395,-152.8207 636.333,-159.6369"/>
</g>
<!-- Node10 -->
<g id="node10" class="node">
<title>Node10</title>
<g id="a_node10"><a xlink:href="../../d8/dd3/classG4ParticleTable.html#a8bb5b636696da4abae3ca7ea0ea5af95" target="_top" xlink:title="G4ParticleTable::GetParticle\lTable">
<polygon fill="none" stroke="#000000" points="614,-180.5 614,-212.5 770,-212.5 770,-180.5 614,-180.5"/>
<text text-anchor="start" x="622" y="-199.5" font-family="FreeSans" font-size="10.00" fill="#000000">G4ParticleTable::GetParticle</text>
<text text-anchor="middle" x="692" y="-187.5" font-family="FreeSans" font-size="10.00" fill="#000000">Table</text>
</a>
</g>
</g>
<!-- Node3&#45;&gt;Node10 -->
<g id="edge9" class="edge">
<title>Node3&#45;&gt;Node10</title>
<path fill="none" stroke="#191970" d="M543.4779,-258.4291C552.529,-255.7723 561.7166,-252.4974 570,-248.5 588.0124,-239.8078 588.1075,-230.4363 606,-221.5 609.7558,-219.6242 613.6759,-217.866 617.684,-216.2215"/>
<polygon fill="#191970" stroke="#191970" points="619.0756,-219.4365 627.1599,-212.5886 616.5697,-212.9003 619.0756,-219.4365"/>
</g>
<!-- Node5 -->
<g id="node5" class="node">
<title>Node5</title>
<g id="a_node5"><a xlink:href="../../d8/dd3/classG4ParticleTable.html#a5dcd173398768b18c5ba132bbd8f427b" target="_top" xlink:title="G4ParticleTable::CheckReadiness">
<polygon fill="none" stroke="#000000" points="814,-250.5 814,-270.5 997,-270.5 997,-250.5 814,-250.5"/>
<text text-anchor="middle" x="905.5" y="-257.5" font-family="FreeSans" font-size="10.00" fill="#000000">G4ParticleTable::CheckReadiness</text>
</a>
</g>
</g>
<!-- Node4&#45;&gt;Node5 -->
<g id="edge4" class="edge">
<title>Node4&#45;&gt;Node5</title>
<path fill="none" stroke="#191970" d="M771.8031,-248.6019C782.2148,-249.5285 792.9924,-250.4876 803.7034,-251.4408"/>
<polygon fill="#191970" stroke="#191970" points="803.6672,-254.9513 813.9381,-252.3516 804.2877,-247.9789 803.6672,-254.9513"/>
</g>
<!-- Node7 -->
<g id="node7" class="node">
<title>Node7</title>
<g id="a_node7"><a xlink:href="../../d7/d23/namespaceG4Threading.html#a4bce96528c21592b91483fb2ab5b6215" target="_top" xlink:title="G4Threading::IsWorkerThread">
<polygon fill="none" stroke="#000000" points="821.5,-289.5 821.5,-309.5 989.5,-309.5 989.5,-289.5 821.5,-289.5"/>
<text text-anchor="middle" x="905.5" y="-296.5" font-family="FreeSans" font-size="10.00" fill="#000000">G4Threading::IsWorkerThread</text>
</a>
</g>
</g>
<!-- Node4&#45;&gt;Node7 -->
<g id="edge6" class="edge">
<title>Node4&#45;&gt;Node7</title>
<path fill="none" stroke="#191970" d="M721.8717,-251.6005C746.4425,-259.7157 782.2589,-271.1047 814,-279.5 824.245,-282.2097 835.2037,-284.836 845.8489,-287.2456"/>
<polygon fill="#191970" stroke="#191970" points="845.4043,-290.7322 855.9255,-289.4852 846.9231,-283.8989 845.4043,-290.7322"/>
</g>
<!-- Node8 -->
<g id="node8" class="node">
<title>Node8</title>
<g id="a_node8"><a xlink:href="../../d8/dd3/classG4ParticleTable.html#ad3150940809a36b87123558264d30108" target="_top" xlink:title="G4ParticleTable::GetKey">
<polygon fill="none" stroke="#000000" points="1050,-211.5 1050,-231.5 1187,-231.5 1187,-211.5 1050,-211.5"/>
<text text-anchor="middle" x="1118.5" y="-218.5" font-family="FreeSans" font-size="10.00" fill="#000000">G4ParticleTable::GetKey</text>
</a>
</g>
</g>
<!-- Node4&#45;&gt;Node8 -->
<g id="edge7" class="edge">
<title>Node4&#45;&gt;Node8</title>
<path fill="none" stroke="#191970" d="M771.7211,-237.7616C848.3277,-234.1693 963.4032,-228.773 1039.6997,-225.1952"/>
<polygon fill="#191970" stroke="#191970" points="1039.9098,-228.6893 1049.7348,-224.7246 1039.5818,-221.697 1039.9098,-228.6893"/>
</g>
<!-- Node6 -->
<g id="node6" class="node">
<title>Node6</title>
<g id="a_node6"><a xlink:href="../../d5/d4f/G4Exception_8hh.html#ad36b5da5d062a20ca47b1c1f1ae353dd" target="_top" xlink:title="G4Exception">
<polygon fill="none" stroke="#000000" points="1078.5,-250.5 1078.5,-270.5 1158.5,-270.5 1158.5,-250.5 1078.5,-250.5"/>
<text text-anchor="middle" x="1118.5" y="-257.5" font-family="FreeSans" font-size="10.00" fill="#000000">G4Exception</text>
</a>
</g>
</g>
<!-- Node5&#45;&gt;Node6 -->
<g id="edge5" class="edge">
<title>Node5&#45;&gt;Node6</title>
<path fill="none" stroke="#191970" d="M997.0673,-260.5C1021.4857,-260.5 1046.9725,-260.5 1068.2554,-260.5"/>
<polygon fill="#191970" stroke="#191970" points="1068.3425,-264.0001 1078.3425,-260.5 1068.3425,-257.0001 1068.3425,-264.0001"/>
</g>
<!-- Node11 -->
<g id="node11" class="node">
<title>Node11</title>
<g id="a_node11"><a xlink:href="../../d8/dd3/classG4ParticleTable.html#aba540bf07478ff0c30af3ee28d843041" target="_top" xlink:title="G4ParticleTable::WorkerG4\lParticleTable">
<polygon fill="none" stroke="#000000" points="830,-135.5 830,-167.5 981,-167.5 981,-135.5 830,-135.5"/>
<text text-anchor="start" x="838" y="-154.5" font-family="FreeSans" font-size="10.00" fill="#000000">G4ParticleTable::WorkerG4</text>
<text text-anchor="middle" x="905.5" y="-142.5" font-family="FreeSans" font-size="10.00" fill="#000000">ParticleTable</text>
</a>
</g>
</g>
<!-- Node10&#45;&gt;Node11 -->
<g id="edge10" class="edge">
<title>Node10&#45;&gt;Node11</title>
<path fill="none" stroke="#191970" d="M768.1742,-180.4445C784.8921,-176.9209 802.7026,-173.1669 819.7671,-169.5702"/>
<polygon fill="#191970" stroke="#191970" points="820.6511,-172.9608 829.7143,-167.4736 819.2074,-166.1113 820.6511,-172.9608"/>
</g>
<!-- Node11&#45;&gt;Node8 -->
<g id="edge13" class="edge">
<title>Node11&#45;&gt;Node8</title>
<path fill="none" stroke="#191970" d="M942.3758,-167.5921C967.5697,-178.1802 1001.8978,-191.8191 1033,-201.5 1041.7652,-204.2283 1051.1377,-206.7797 1060.3468,-209.0864"/>
<polygon fill="#191970" stroke="#191970" points="1059.6954,-212.5299 1070.2391,-211.4903 1061.3483,-205.7279 1059.6954,-212.5299"/>
</g>
<!-- Node12 -->
<g id="node12" class="node">
<title>Node12</title>
<g id="a_node12"><a xlink:href="../../d4/d96/classG4ParticleTableIterator.html#ae35fb8d216907e4b1614fd52f2d50f84" target="_top" xlink:title="G4ParticleTableIterator\l::reset">
<polygon fill="none" stroke="#000000" points="1052.5,-160.5 1052.5,-192.5 1184.5,-192.5 1184.5,-160.5 1052.5,-160.5"/>
<text text-anchor="start" x="1060.5" y="-179.5" font-family="FreeSans" font-size="10.00" fill="#000000">G4ParticleTableIterator</text>
<text text-anchor="middle" x="1118.5" y="-167.5" font-family="FreeSans" font-size="10.00" fill="#000000">::reset</text>
</a>
</g>
</g>
<!-- Node11&#45;&gt;Node12 -->
<g id="edge11" class="edge">
<title>Node11&#45;&gt;Node12</title>
<path fill="none" stroke="#191970" d="M981.1956,-160.3845C1000.9497,-162.703 1022.2509,-165.2032 1042.0442,-167.5263"/>
<polygon fill="#191970" stroke="#191970" points="1041.9013,-171.0335 1052.2412,-168.7231 1042.7174,-164.0812 1041.9013,-171.0335"/>
</g>
<!-- Node13 -->
<g id="node13" class="node">
<title>Node13</title>
<g id="a_node13"><a xlink:href="../../d4/d96/classG4ParticleTableIterator.html#a7220383ce5a9ddecb53331a2ecdd90d5" target="_top" xlink:title="G4ParticleTableIterator\l::value">
<polygon fill="none" stroke="#000000" points="1052.5,-109.5 1052.5,-141.5 1184.5,-141.5 1184.5,-109.5 1052.5,-109.5"/>
<text text-anchor="start" x="1060.5" y="-128.5" font-family="FreeSans" font-size="10.00" fill="#000000">G4ParticleTableIterator</text>
<text text-anchor="middle" x="1118.5" y="-116.5" font-family="FreeSans" font-size="10.00" fill="#000000">::value</text>
</a>
</g>
</g>
<!-- Node11&#45;&gt;Node13 -->
<g id="edge12" class="edge">
<title>Node11&#45;&gt;Node13</title>
<path fill="none" stroke="#191970" d="M981.1956,-142.2602C1000.9497,-139.8489 1022.2509,-137.2487 1042.0442,-134.8326"/>
<polygon fill="#191970" stroke="#191970" points="1042.739,-138.2739 1052.2412,-133.5879 1041.8908,-131.3255 1042.739,-138.2739"/>
</g>
<!-- Node14 -->
<g id="node14" class="node">
<title>Node14</title>
<g id="a_node14"><a xlink:href="../../d5/d38/classG4ParticleDefinition.html#af84019c7513ca66581ed8b3651934467" target="_top" xlink:title="G4ParticleDefinition\l::GetPDGEncoding">
<polygon fill="none" stroke="#000000" points="1060.5,-58.5 1060.5,-90.5 1176.5,-90.5 1176.5,-58.5 1060.5,-58.5"/>
<text text-anchor="start" x="1068.5" y="-77.5" font-family="FreeSans" font-size="10.00" fill="#000000">G4ParticleDefinition</text>
<text text-anchor="middle" x="1118.5" y="-65.5" font-family="FreeSans" font-size="10.00" fill="#000000">::GetPDGEncoding</text>
</a>
</g>
</g>
<!-- Node11&#45;&gt;Node14 -->
<g id="edge14" class="edge">
<title>Node11&#45;&gt;Node14</title>
<path fill="none" stroke="#191970" d="M941.942,-135.4709C967.2368,-124.6339 1001.8535,-110.3727 1033,-99.5 1038.845,-97.4596 1044.9527,-95.446 1051.098,-93.5007"/>
<polygon fill="#191970" stroke="#191970" points="1052.2392,-96.8114 1060.7535,-90.5061 1050.1655,-90.1255 1052.2392,-96.8114"/>
</g>
<!-- Node15 -->
<g id="node15" class="node">
<title>Node15</title>
<g id="a_node15"><a xlink:href="../../da/d2b/classG4IonTable.html#a66f8ee295224ed611872572a0e47ab6e" target="_top" xlink:title="G4IonTable::WorkerG4IonTable">
<polygon fill="none" stroke="#000000" points="1033,-19.5 1033,-39.5 1204,-39.5 1204,-19.5 1033,-19.5"/>
<text text-anchor="middle" x="1118.5" y="-26.5" font-family="FreeSans" font-size="10.00" fill="#000000">G4IonTable::WorkerG4IonTable</text>
</a>
</g>
</g>
<!-- Node11&#45;&gt;Node15 -->
<g id="edge15" class="edge">
<title>Node11&#45;&gt;Node15</title>
<path fill="none" stroke="#191970" d="M920.7119,-135.1523C943.0614,-112.1601 987.1145,-70.6136 1033,-48.5 1037.591,-46.2875 1042.4454,-44.3286 1047.4155,-42.5949"/>
<polygon fill="#191970" stroke="#191970" points="1048.603,-45.8902 1057.0771,-39.5309 1046.4869,-39.2176 1048.603,-45.8902"/>
</g>
<!-- Node17 -->
<g id="node17" class="node">
<title>Node17</title>
<g id="a_node17"><a xlink:href="../../df/dd3/classG4AntiAlpha.html#a0eaa9600b4536bc17b8f454b2bfaae65" target="_top" xlink:title="G4AntiAlpha::Definition">
<polygon fill="none" stroke="#000000" points="426,-297.5 426,-317.5 561,-317.5 561,-297.5 426,-297.5"/>
<text text-anchor="middle" x="493.5" y="-304.5" font-family="FreeSans" font-size="10.00" fill="#000000">G4AntiAlpha::Definition</text>
</a>
</g>
</g>
<!-- Node16&#45;&gt;Node17 -->
<g id="edge17" class="edge">
<title>Node16&#45;&gt;Node17</title>
<path fill="none" stroke="#191970" d="M381.0799,-307.5C392.6057,-307.5 404.3056,-307.5 415.5859,-307.5"/>
<polygon fill="#191970" stroke="#191970" points="415.8105,-311.0001 425.8105,-307.5 415.8104,-304.0001 415.8105,-311.0001"/>
</g>
<!-- Node17&#45;&gt;Node4 -->
<g id="edge18" class="edge">
<title>Node17&#45;&gt;Node4</title>
<path fill="none" stroke="#191970" d="M535.0179,-297.4916C546.4257,-294.5125 558.7503,-291.0805 570,-287.5 600.1432,-277.9061 633.7316,-265.079 658.0216,-255.4075"/>
<polygon fill="#191970" stroke="#191970" points="659.5203,-258.5775 667.4986,-251.6064 656.9144,-252.0806 659.5203,-258.5775"/>
</g>
<!-- Node17&#45;&gt;Node9 -->
<g id="edge19" class="edge">
<title>Node17&#45;&gt;Node9</title>
<path fill="none" stroke="#191970" d="M555.398,-297.4845C560.7489,-294.8599 565.7377,-291.5837 570,-287.5 609.2849,-249.8609 566.002,-207.3804 606,-170.5 614.1763,-162.961 624.6487,-158.1722 635.4525,-155.1794"/>
<polygon fill="#191970" stroke="#191970" points="636.4396,-158.5442 645.4112,-152.9085 634.8833,-151.7194 636.4396,-158.5442"/>
</g>
<!-- Node17&#45;&gt;Node10 -->
<g id="edge20" class="edge">
<title>Node17&#45;&gt;Node10</title>
<path fill="none" stroke="#191970" d="M552.6596,-297.3837C558.8752,-294.7984 564.809,-291.5586 570,-287.5 596.3226,-266.9194 579.9595,-242.4365 606,-221.5 607.5905,-220.2213 609.2439,-219.008 610.9496,-217.8567"/>
<polygon fill="#191970" stroke="#191970" points="613.0274,-220.6948 619.8653,-212.6021 609.4731,-214.6643 613.0274,-220.6948"/>
</g>
<!-- Node19 -->
<g id="node19" class="node">
<title>Node19</title>
<g id="a_node19"><a xlink:href="../../d6/d9f/classG4AntiDeuteron.html#ad5e6cd07fb6e0c0ce8b0cf7afe2d6403" target="_top" xlink:title="G4AntiDeuteron::Definition">
<polygon fill="none" stroke="#000000" points="417,-141.5 417,-161.5 570,-161.5 570,-141.5 417,-141.5"/>
<text text-anchor="middle" x="493.5" y="-148.5" font-family="FreeSans" font-size="10.00" fill="#000000">G4AntiDeuteron::Definition</text>
</a>
</g>
</g>
<!-- Node18&#45;&gt;Node19 -->
<g id="edge22" class="edge">
<title>Node18&#45;&gt;Node19</title>
<path fill="none" stroke="#191970" d="M374.5415,-148.0098C385.1581,-148.3213 396.0218,-148.64 406.6578,-148.9521"/>
<polygon fill="#191970" stroke="#191970" points="406.6715,-152.4539 416.7699,-149.2488 406.8769,-145.4569 406.6715,-152.4539"/>
</g>
<!-- Node19&#45;&gt;Node4 -->
<g id="edge23" class="edge">
<title>Node19&#45;&gt;Node4</title>
<path fill="none" stroke="#191970" d="M552.5951,-161.5544C558.7525,-163.9316 564.6908,-166.8694 570,-170.5 592.9022,-186.161 582.9815,-206.0105 606,-221.5 609.3384,-223.7465 612.8964,-225.7425 616.5938,-227.5159"/>
<polygon fill="#191970" stroke="#191970" points="615.4513,-230.8322 626.0263,-231.4811 618.1641,-224.3792 615.4513,-230.8322"/>
</g>
<!-- Node19&#45;&gt;Node9 -->
<g id="edge24" class="edge">
<title>Node19&#45;&gt;Node9</title>
<path fill="none" stroke="#191970" d="M570.2453,-151.5C591.7988,-151.5 614.8471,-151.5 635.0274,-151.5"/>
<polygon fill="#191970" stroke="#191970" points="635.296,-155.0001 645.2959,-151.5 635.2959,-148.0001 635.296,-155.0001"/>
</g>
<!-- Node19&#45;&gt;Node10 -->
<g id="edge25" class="edge">
<title>Node19&#45;&gt;Node10</title>
<path fill="none" stroke="#191970" d="M538.0473,-161.5989C559.6421,-166.4944 586.2614,-172.529 611.2572,-178.1956"/>
<polygon fill="#191970" stroke="#191970" points="610.5834,-181.6316 621.1098,-180.4292 612.1311,-174.8048 610.5834,-181.6316"/>
</g>
<!-- Node20 -->
<g id="node20" class="node">
<title>Node20</title>
<g id="a_node20"><a xlink:href="../../d5/d38/classG4ParticleDefinition.html#a45d19537b85dd40b3527949cf75155f5" target="_top" xlink:title="G4ParticleDefinition\l::SetPDGMagneticMoment">
<polygon fill="none" stroke="#000000" points="617.5,-90.5 617.5,-122.5 766.5,-122.5 766.5,-90.5 617.5,-90.5"/>
<text text-anchor="start" x="625.5" y="-109.5" font-family="FreeSans" font-size="10.00" fill="#000000">G4ParticleDefinition</text>
<text text-anchor="middle" x="692" y="-97.5" font-family="FreeSans" font-size="10.00" fill="#000000">::SetPDGMagneticMoment</text>
</a>
</g>
</g>
<!-- Node19&#45;&gt;Node20 -->
<g id="edge26" class="edge">
<title>Node19&#45;&gt;Node20</title>
<path fill="none" stroke="#191970" d="M538.0473,-141.4011C559.6421,-136.5056 586.2614,-130.471 611.2572,-124.8044"/>
<polygon fill="#191970" stroke="#191970" points="612.1311,-128.1952 621.1098,-122.5708 610.5834,-121.3684 612.1311,-128.1952"/>
</g>
<!-- Node22 -->
<g id="node22" class="node">
<title>Node22</title>
<g id="a_node22"><a xlink:href="../../d1/dfc/classG4AntiHe3.html#a2af9bb776b339cf0a0385a6de5a7b78c" target="_top" xlink:title="G4AntiHe3::Definition">
<polygon fill="none" stroke="#000000" points="430,-102.5 430,-122.5 557,-122.5 557,-102.5 430,-102.5"/>
<text text-anchor="middle" x="493.5" y="-109.5" font-family="FreeSans" font-size="10.00" fill="#000000">G4AntiHe3::Definition</text>
</a>
</g>
</g>
<!-- Node21&#45;&gt;Node22 -->
<g id="edge28" class="edge">
<title>Node21&#45;&gt;Node22</title>
<path fill="none" stroke="#191970" d="M372.768,-105.4155C388.2726,-106.3253 404.3636,-107.2695 419.5505,-108.1607"/>
<polygon fill="#191970" stroke="#191970" points="419.7138,-111.6762 429.9017,-108.7681 420.1239,-104.6882 419.7138,-111.6762"/>
</g>
<!-- Node22&#45;&gt;Node4 -->
<g id="edge29" class="edge">
<title>Node22&#45;&gt;Node4</title>
<path fill="none" stroke="#191970" d="M556.1673,-122.5722C561.1687,-124.9671 565.8734,-127.9035 570,-131.5 602.4777,-159.8055 573.3117,-193.438 606,-221.5 608.0354,-223.2474 610.1944,-224.8493 612.4506,-226.3175"/>
<polygon fill="#191970" stroke="#191970" points="611.1307,-229.5861 621.579,-231.3423 614.5064,-223.4538 611.1307,-229.5861"/>
</g>
<!-- Node22&#45;&gt;Node9 -->
<g id="edge30" class="edge">
<title>Node22&#45;&gt;Node9</title>
<path fill="none" stroke="#191970" d="M544.6187,-122.5435C572.4656,-128.0146 606.9824,-134.7963 635.6104,-140.4209"/>
<polygon fill="#191970" stroke="#191970" points="634.9832,-143.8645 645.4704,-142.3582 636.3327,-136.9959 634.9832,-143.8645"/>
</g>
<!-- Node22&#45;&gt;Node10 -->
<g id="edge31" class="edge">
<title>Node22&#45;&gt;Node10</title>
<path fill="none" stroke="#191970" d="M550.147,-122.562C557.0837,-124.9396 563.8761,-127.8756 570,-131.5 590.3001,-143.5147 586.0076,-157.9801 606,-170.5 609.3256,-172.5826 612.828,-174.5069 616.4405,-176.284"/>
<polygon fill="#191970" stroke="#191970" points="615.0525,-179.4974 625.6084,-180.4044 617.922,-173.1126 615.0525,-179.4974"/>
</g>
<!-- Node22&#45;&gt;Node20 -->
<g id="edge32" class="edge">
<title>Node22&#45;&gt;Node20</title>
<path fill="none" stroke="#191970" d="M557.1257,-110.5768C572.9963,-110.0971 590.2681,-109.575 606.9893,-109.0696"/>
<polygon fill="#191970" stroke="#191970" points="607.4223,-112.5582 617.312,-108.7576 607.2107,-105.5614 607.4223,-112.5582"/>
</g>
<!-- Node24 -->
<g id="node24" class="node">
<title>Node24</title>
<g id="a_node24"><a xlink:href="../../d2/d74/classG4AntiTriton.html#a3a218bc8fb6ec13e947564b50d374465" target="_top" xlink:title="G4AntiTriton::Definition">
<polygon fill="none" stroke="#000000" points="426.5,-63.5 426.5,-83.5 560.5,-83.5 560.5,-63.5 426.5,-63.5"/>
<text text-anchor="middle" x="493.5" y="-70.5" font-family="FreeSans" font-size="10.00" fill="#000000">G4AntiTriton::Definition</text>
</a>
</g>
</g>
<!-- Node23&#45;&gt;Node24 -->
<g id="edge34" class="edge">
<title>Node23&#45;&gt;Node24</title>
<path fill="none" stroke="#191970" d="M356.2442,-61.4188C375.377,-63.1029 396.3695,-64.9506 416.0563,-66.6834"/>
<polygon fill="#191970" stroke="#191970" points="415.947,-70.1873 426.2154,-67.5776 416.5608,-63.2142 415.947,-70.1873"/>
</g>
<!-- Node24&#45;&gt;Node4 -->
<g id="edge35" class="edge">
<title>Node24&#45;&gt;Node4</title>
<path fill="none" stroke="#191970" d="M557.6953,-83.6771C562.189,-86.0659 566.3686,-88.9714 570,-92.5 612.6896,-133.9814 563.0017,-180.3387 606,-221.5 607.7094,-223.1364 609.5254,-224.6482 611.4289,-226.0444"/>
<polygon fill="#191970" stroke="#191970" points="609.9188,-229.2234 620.2761,-231.4541 613.5705,-223.2514 609.9188,-229.2234"/>
</g>
<!-- Node24&#45;&gt;Node9 -->
<g id="edge36" class="edge">
<title>Node24&#45;&gt;Node9</title>
<path fill="none" stroke="#191970" d="M550.147,-83.562C557.0837,-85.9396 563.8761,-88.8756 570,-92.5 590.3001,-104.5147 585.6107,-119.6373 606,-131.5 615.0367,-136.7576 625.3624,-140.6334 635.649,-143.4904"/>
<polygon fill="#191970" stroke="#191970" points="634.9069,-146.9123 645.4561,-145.9292 636.5963,-140.1193 634.9069,-146.9123"/>
</g>
<!-- Node24&#45;&gt;Node10 -->
<g id="edge37" class="edge">
<title>Node24&#45;&gt;Node10</title>
<path fill="none" stroke="#191970" d="M555.5922,-83.6285C560.7748,-86.0071 565.676,-88.9246 570,-92.5 599.4246,-116.8304 577.1947,-145.4395 606,-170.5 607.7688,-172.0389 609.6265,-173.4867 611.5563,-174.8488"/>
<polygon fill="#191970" stroke="#191970" points="610.0748,-178.0459 620.4295,-180.2889 613.7336,-172.0782 610.0748,-178.0459"/>
</g>
<!-- Node24&#45;&gt;Node20 -->
<g id="edge38" class="edge">
<title>Node24&#45;&gt;Node20</title>
<path fill="none" stroke="#191970" d="M553.865,-83.5355C570.707,-86.3354 589.3234,-89.4303 607.2901,-92.4172"/>
<polygon fill="#191970" stroke="#191970" points="606.7507,-95.8755 617.1894,-94.063 607.8988,-88.9703 606.7507,-95.8755"/>
</g>
<!-- Node26 -->
<g id="node26" class="node">
<title>Node26</title>
<g id="a_node26"><a xlink:href="../../df/dfb/classG4Deuteron.html#a74d694cab30a36b98c5cff2279bea1f9" target="_top" xlink:title="G4Deuteron::Definition">
<polygon fill="none" stroke="#000000" points="427,-24.5 427,-44.5 560,-44.5 560,-24.5 427,-24.5"/>
<text text-anchor="middle" x="493.5" y="-31.5" font-family="FreeSans" font-size="10.00" fill="#000000">G4Deuteron::Definition</text>
</a>
</g>
</g>
<!-- Node25&#45;&gt;Node26 -->
<g id="edge40" class="edge">
<title>Node25&#45;&gt;Node26</title>
<path fill="none" stroke="#191970" d="M374.2456,-20.5044C388.3559,-22.1604 402.9107,-23.8685 416.7942,-25.4979"/>
<polygon fill="#191970" stroke="#191970" points="416.4292,-28.9789 426.769,-26.6685 417.2451,-22.0267 416.4292,-28.9789"/>
</g>
<!-- Node26&#45;&gt;Node4 -->
<g id="edge41" class="edge">
<title>Node26&#45;&gt;Node4</title>
<path fill="none" stroke="#191970" d="M558.2947,-44.6366C562.5974,-47.0408 566.5732,-49.9605 570,-53.5 623.1156,-108.3621 552.476,-167.0363 606,-221.5 607.4505,-222.976 608.9872,-224.3519 610.5969,-225.6342"/>
<polygon fill="#191970" stroke="#191970" points="608.917,-228.7186 619.1936,-231.2956 612.767,-222.8725 608.917,-228.7186"/>
</g>
<!-- Node26&#45;&gt;Node9 -->
<g id="edge42" class="edge">
<title>Node26&#45;&gt;Node9</title>
<path fill="none" stroke="#191970" d="M555.5922,-44.6285C560.7748,-47.0071 565.676,-49.9246 570,-53.5 599.4246,-77.8304 576.3944,-107.3901 606,-131.5 614.4633,-138.3923 624.8717,-142.9978 635.4884,-146.0553"/>
<polygon fill="#191970" stroke="#191970" points="634.7013,-149.466 645.2472,-148.4494 636.3691,-142.6675 634.7013,-149.466"/>
</g>
<!-- Node26&#45;&gt;Node10 -->
<g id="edge43" class="edge">
<title>Node26&#45;&gt;Node10</title>
<path fill="none" stroke="#191970" d="M557.2271,-44.5921C561.8819,-46.9936 566.2231,-49.9255 570,-53.5 609.5151,-90.8972 567.4349,-132.1238 606,-170.5 607.4512,-171.9441 608.9796,-173.3084 610.5735,-174.5974"/>
<polygon fill="#191970" stroke="#191970" points="608.8161,-177.637 619.0349,-180.4346 612.7911,-171.8751 608.8161,-177.637"/>
</g>
<!-- Node26&#45;&gt;Node20 -->
<g id="edge44" class="edge">
<title>Node26&#45;&gt;Node20</title>
<path fill="none" stroke="#191970" d="M539.1665,-44.5212C549.4054,-47.1327 560.1495,-50.163 570,-53.5 597.2011,-62.7149 626.7659,-75.4847 649.9783,-86.1808"/>
<polygon fill="#191970" stroke="#191970" points="648.6453,-89.4209 659.1882,-90.469 651.6,-83.075 648.6453,-89.4209"/>
</g>
<!-- Node28 -->
<g id="node28" class="node">
<title>Node28</title>
<g id="a_node28"><a xlink:href="../../d4/d78/classG4GenericIon.html#a09a232545874038c6f7b5e92aa4c8ab8" target="_top" xlink:title="G4GenericIon::Definition">
<polygon fill="none" stroke="#000000" points="423,-336.5 423,-356.5 564,-356.5 564,-336.5 423,-336.5"/>
<text text-anchor="middle" x="493.5" y="-343.5" font-family="FreeSans" font-size="10.00" fill="#000000">G4GenericIon::Definition</text>
</a>
</g>
</g>
<!-- Node27&#45;&gt;Node28 -->
<g id="edge46" class="edge">
<title>Node27&#45;&gt;Node28</title>
<path fill="none" stroke="#191970" d="M362.5403,-350.3423C378.7557,-349.8666 396.0194,-349.3601 412.5111,-348.8762"/>
<polygon fill="#191970" stroke="#191970" points="412.7704,-352.3702 422.6634,-348.5783 412.565,-345.3732 412.7704,-352.3702"/>
</g>
<!-- Node28&#45;&gt;Node4 -->
<g id="edge47" class="edge">
<title>Node28&#45;&gt;Node4</title>
<path fill="none" stroke="#191970" d="M542.5546,-336.4256C551.8764,-333.7483 561.3986,-330.4669 570,-326.5 609.4587,-308.3021 649.7732,-277.286 672.7581,-258.1763"/>
<polygon fill="#191970" stroke="#191970" points="675.0233,-260.8445 680.4085,-251.7204 670.5088,-255.4948 675.0233,-260.8445"/>
</g>
<!-- Node28&#45;&gt;Node9 -->
<g id="edge48" class="edge">
<title>Node28&#45;&gt;Node9</title>
<path fill="none" stroke="#191970" d="M556.4431,-336.4169C561.4502,-333.7938 566.0781,-330.537 570,-326.5 619.5819,-275.4633 555.4505,-220.5785 606,-170.5 613.984,-162.5904 624.4726,-157.6564 635.3694,-154.6414"/>
<polygon fill="#191970" stroke="#191970" points="636.4413,-157.988 645.4313,-152.3818 634.9074,-151.1581 636.4413,-157.988"/>
</g>
<!-- Node28&#45;&gt;Node10 -->
<g id="edge49" class="edge">
<title>Node28&#45;&gt;Node10</title>
<path fill="none" stroke="#191970" d="M555.2643,-336.3426C560.6418,-333.7462 565.6733,-330.5154 570,-326.5 606.1603,-292.9409 570.2992,-255.5475 606,-221.5 607.1252,-220.4269 608.2937,-219.3995 609.5004,-218.4159"/>
<polygon fill="#191970" stroke="#191970" points="611.7474,-221.1168 617.9655,-212.5386 607.7551,-215.3668 611.7474,-221.1168"/>
</g>
<!-- Node29 -->
<g id="node29" class="node">
<title>Node29</title>
<g id="a_node29"><a xlink:href="../../d8/dd3/classG4ParticleTable.html#aaf9d10fc04506d47b91b658bf3b3df51" target="_top" xlink:title="G4ParticleTable::SetGenericIon">
<polygon fill="none" stroke="#000000" points="606,-336.5 606,-356.5 778,-356.5 778,-336.5 606,-336.5"/>
<text text-anchor="middle" x="692" y="-343.5" font-family="FreeSans" font-size="10.00" fill="#000000">G4ParticleTable::SetGenericIon</text>
</a>
</g>
</g>
<!-- Node28&#45;&gt;Node29 -->
<g id="edge50" class="edge">
<title>Node28&#45;&gt;Node29</title>
<path fill="none" stroke="#191970" d="M564.0426,-346.5C574.2606,-346.5 584.9228,-346.5 595.5424,-346.5"/>
<polygon fill="#191970" stroke="#191970" points="595.6951,-350.0001 605.6951,-346.5 595.695,-343.0001 595.6951,-350.0001"/>
</g>
<!-- Node31 -->
<g id="node31" class="node">
<title>Node31</title>
<g id="a_node31"><a xlink:href="../../d2/db5/classG4He3.html#aa681f88951f8cdb2692633431817bc17" target="_top" xlink:title="G4He3::Definition">
<polygon fill="none" stroke="#000000" points="440.5,-180.5 440.5,-200.5 546.5,-200.5 546.5,-180.5 440.5,-180.5"/>
<text text-anchor="middle" x="493.5" y="-187.5" font-family="FreeSans" font-size="10.00" fill="#000000">G4He3::Definition</text>
</a>
</g>
</g>
<!-- Node30&#45;&gt;Node31 -->
<g id="edge52" class="edge">
<title>Node30&#45;&gt;Node31</title>
<path fill="none" stroke="#191970" d="M352.5841,-190.5C377.2064,-190.5 405.3367,-190.5 429.9552,-190.5"/>
<polygon fill="#191970" stroke="#191970" points="430.2706,-194.0001 440.2706,-190.5 430.2705,-187.0001 430.2706,-194.0001"/>
</g>
<!-- Node31&#45;&gt;Node4 -->
<g id="edge53" class="edge">
<title>Node31&#45;&gt;Node4</title>
<path fill="none" stroke="#191970" d="M536.5462,-200.5639C547.5019,-203.297 559.2236,-206.3709 570,-209.5 586.1965,-214.2029 589.7688,-216.9182 606,-221.5 615.5154,-224.186 625.6952,-226.7881 635.6006,-229.1781"/>
<polygon fill="#191970" stroke="#191970" points="634.8425,-232.5953 645.3798,-231.4927 636.4548,-225.7835 634.8425,-232.5953"/>
</g>
<!-- Node31&#45;&gt;Node9 -->
<g id="edge54" class="edge">
<title>Node31&#45;&gt;Node9</title>
<path fill="none" stroke="#191970" d="M544.6187,-180.4565C572.4656,-174.9854 606.9824,-168.2037 635.6104,-162.5791"/>
<polygon fill="#191970" stroke="#191970" points="636.3327,-166.0041 645.4704,-160.6418 634.9832,-159.1355 636.3327,-166.0041"/>
</g>
<!-- Node31&#45;&gt;Node10 -->
<g id="edge55" class="edge">
<title>Node31&#45;&gt;Node10</title>
<path fill="none" stroke="#191970" d="M546.6944,-192.1079C564.1994,-192.637 584.1604,-193.2404 603.5635,-193.8269"/>
<polygon fill="#191970" stroke="#191970" points="603.5421,-197.3277 613.6433,-194.1315 603.7536,-190.3309 603.5421,-197.3277"/>
</g>
<!-- Node31&#45;&gt;Node20 -->
<g id="edge56" class="edge">
<title>Node31&#45;&gt;Node20</title>
<path fill="none" stroke="#191970" d="M546.5416,-180.8663C554.7182,-178.2004 562.82,-174.8092 570,-170.5 590.2259,-158.361 585.9409,-143.9128 606,-131.5 608.6258,-129.8751 611.3617,-128.3519 614.1749,-126.9244"/>
<polygon fill="#191970" stroke="#191970" points="615.7635,-130.0461 623.3819,-122.6834 612.8348,-123.6882 615.7635,-130.0461"/>
</g>
<!-- Node33 -->
<g id="node33" class="node">
<title>Node33</title>
<g id="a_node33"><a xlink:href="../../da/d5b/classG4Triton.html#ab5a5c3ad6e7dc2c64f885996e2cc49f9" target="_top" xlink:title="G4Triton::Definition">
<polygon fill="none" stroke="#000000" points="436.5,-219.5 436.5,-239.5 550.5,-239.5 550.5,-219.5 436.5,-219.5"/>
<text text-anchor="middle" x="493.5" y="-226.5" font-family="FreeSans" font-size="10.00" fill="#000000">G4Triton::Definition</text>
</a>
</g>
</g>
<!-- Node32&#45;&gt;Node33 -->
<g id="edge58" class="edge">
<title>Node32&#45;&gt;Node33</title>
<path fill="none" stroke="#191970" d="M360.5242,-229.5C381.8054,-229.5 405.0442,-229.5 426.0563,-229.5"/>
<polygon fill="#191970" stroke="#191970" points="426.1742,-233.0001 436.1741,-229.5 426.1741,-226.0001 426.1742,-233.0001"/>
</g>
<!-- Node33&#45;&gt;Node4 -->
<g id="edge60" class="edge">
<title>Node33&#45;&gt;Node4</title>
<path fill="none" stroke="#191970" d="M550.6481,-232.9548C566.7328,-233.9272 584.6285,-235.009 602.1315,-236.0671"/>
<polygon fill="#191970" stroke="#191970" points="602.182,-239.5765 612.375,-236.6864 602.6044,-232.5892 602.182,-239.5765"/>
</g>
<!-- Node33&#45;&gt;Node9 -->
<g id="edge61" class="edge">
<title>Node33&#45;&gt;Node9</title>
<path fill="none" stroke="#191970" d="M547.7474,-219.4677C555.5129,-216.8646 563.1731,-213.5973 570,-209.5 590.2259,-197.361 585.5455,-182.2497 606,-170.5 615.0429,-165.3055 625.3716,-161.5302 635.6591,-158.7866"/>
<polygon fill="#191970" stroke="#191970" points="636.5446,-162.1738 645.4664,-156.4597 634.9285,-155.3629 636.5446,-162.1738"/>
</g>
<!-- Node33&#45;&gt;Node10 -->
<g id="edge59" class="edge">
<title>Node33&#45;&gt;Node10</title>
<path fill="none" stroke="#191970" d="M550.6481,-219.9993C567.2697,-217.236 585.8251,-214.1512 603.8827,-211.1492"/>
<polygon fill="#191970" stroke="#191970" points="604.5575,-214.5852 613.8481,-209.4925 603.4094,-207.6799 604.5575,-214.5852"/>
</g>
<!-- Node33&#45;&gt;Node20 -->
<g id="edge62" class="edge">
<title>Node33&#45;&gt;Node20</title>
<path fill="none" stroke="#191970" d="M550.608,-220.683C557.6265,-217.8999 564.3162,-214.2588 570,-209.5 599.2747,-184.9894 577.0611,-156.4062 606,-131.5 607.5026,-130.2068 609.0688,-128.9804 610.6886,-127.8174"/>
<polygon fill="#191970" stroke="#191970" points="612.5566,-130.7773 619.1877,-122.5142 608.8509,-124.8386 612.5566,-130.7773"/>
</g>
</g>
</svg>
