<?xml version="1.0" encoding="UTF-8" standalone="no"?>
<!DOCTYPE svg PUBLIC "-//W3C//DTD SVG 1.1//EN"
 "http://www.w3.org/Graphics/SVG/1.1/DTD/svg11.dtd">
<!-- Generated by graphviz version 2.40.1 (20161225.0304)
 -->
<!-- Title: G4VisManager::ClearTransientStoreIfMarked Pages: 1 -->
<svg width="402pt" height="245pt"
 viewBox="0.00 0.00 402.00 245.00" xmlns="http://www.w3.org/2000/svg" xmlns:xlink="http://www.w3.org/1999/xlink">
<g id="graph0" class="graph" transform="scale(1 1) rotate(0) translate(4 241)">
<title>G4VisManager::ClearTransientStoreIfMarked</title>
<!-- Node1 -->
<g id="node1" class="node">
<title>Node1</title>
<polygon fill="#bfbfbf" stroke="#000000" points="0,-102.5 0,-134.5 170,-134.5 170,-102.5 0,-102.5"/>
<text text-anchor="start" x="8" y="-121.5" font-family="FreeSans" font-size="10.00" fill="#000000">G4VisManager::ClearTransient</text>
<text text-anchor="middle" x="85" y="-109.5" font-family="FreeSans" font-size="10.00" fill="#000000">StoreIfMarked</text>
</g>
<!-- Node2 -->
<g id="node2" class="node">
<title>Node2</title>
<g id="a_node2"><a xlink:href="../../da/d94/classG4VSceneHandler.html#a178952f8baeb7156bb4c47124bbc4e43" target="_top" xlink:title="G4VSceneHandler::ClearTransient\lStore">
<polygon fill="none" stroke="#000000" points="206,-204.5 206,-236.5 394,-236.5 394,-204.5 206,-204.5"/>
<text text-anchor="start" x="214" y="-223.5" font-family="FreeSans" font-size="10.00" fill="#000000">G4VSceneHandler::ClearTransient</text>
<text text-anchor="middle" x="300" y="-211.5" font-family="FreeSans" font-size="10.00" fill="#000000">Store</text>
</a>
</g>
</g>
<!-- Node1&#45;&gt;Node2 -->
<g id="edge1" class="edge">
<title>Node1&#45;&gt;Node2</title>
<path fill="none" stroke="#191970" d="M105.7357,-134.516C128.9853,-151.7806 168.3753,-178.9978 206,-195.5 210.6648,-197.546 215.5353,-199.4569 220.4984,-201.2362"/>
<polygon fill="#191970" stroke="#191970" points="219.5326,-204.6043 230.1269,-204.4965 221.7777,-197.9741 219.5326,-204.6043"/>
</g>
<!-- Node3 -->
<g id="node3" class="node">
<title>Node3</title>
<g id="a_node3"><a xlink:href="../../da/d94/classG4VSceneHandler.html#a92a559fd69e9e3a9abb1fa6449557c20" target="_top" xlink:title="G4VSceneHandler::GetMark\lForClearingTransientStore">
<polygon fill="none" stroke="#000000" points="221,-153.5 221,-185.5 379,-185.5 379,-153.5 221,-153.5"/>
<text text-anchor="start" x="229" y="-172.5" font-family="FreeSans" font-size="10.00" fill="#000000">G4VSceneHandler::GetMark</text>
<text text-anchor="middle" x="300" y="-160.5" font-family="FreeSans" font-size="10.00" fill="#000000">ForClearingTransientStore</text>
</a>
</g>
</g>
<!-- Node1&#45;&gt;Node3 -->
<g id="edge2" class="edge">
<title>Node1&#45;&gt;Node3</title>
<path fill="none" stroke="#191970" d="M152.7322,-134.5667C174.8197,-139.8061 199.5145,-145.6639 222.2759,-151.0631"/>
<polygon fill="#191970" stroke="#191970" points="221.7011,-154.5238 232.239,-153.4264 223.3168,-147.7128 221.7011,-154.5238"/>
</g>
<!-- Node4 -->
<g id="node4" class="node">
<title>Node4</title>
<g id="a_node4"><a xlink:href="../../da/d94/classG4VSceneHandler.html#aed63d81e0350c4ebcb5b6689a302da99" target="_top" xlink:title="G4VSceneHandler::GetTransients\lDrawnThisEvent">
<polygon fill="none" stroke="#000000" points="207.5,-102.5 207.5,-134.5 392.5,-134.5 392.5,-102.5 207.5,-102.5"/>
<text text-anchor="start" x="215.5" y="-121.5" font-family="FreeSans" font-size="10.00" fill="#000000">G4VSceneHandler::GetTransients</text>
<text text-anchor="middle" x="300" y="-109.5" font-family="FreeSans" font-size="10.00" fill="#000000">DrawnThisEvent</text>
</a>
</g>
</g>
<!-- Node1&#45;&gt;Node4 -->
<g id="edge3" class="edge">
<title>Node1&#45;&gt;Node4</title>
<path fill="none" stroke="#191970" d="M170.2825,-118.5C179.1414,-118.5 188.2108,-118.5 197.2356,-118.5"/>
<polygon fill="#191970" stroke="#191970" points="197.3924,-122.0001 207.3924,-118.5 197.3924,-115.0001 197.3924,-122.0001"/>
</g>
<!-- Node5 -->
<g id="node5" class="node">
<title>Node5</title>
<g id="a_node5"><a xlink:href="../../da/d94/classG4VSceneHandler.html#adbf0cfc0babe514db418dfb60139aa9e" target="_top" xlink:title="G4VSceneHandler::GetTransients\lDrawnThisRun">
<polygon fill="none" stroke="#000000" points="207.5,-51.5 207.5,-83.5 392.5,-83.5 392.5,-51.5 207.5,-51.5"/>
<text text-anchor="start" x="215.5" y="-70.5" font-family="FreeSans" font-size="10.00" fill="#000000">G4VSceneHandler::GetTransients</text>
<text text-anchor="middle" x="300" y="-58.5" font-family="FreeSans" font-size="10.00" fill="#000000">DrawnThisRun</text>
</a>
</g>
</g>
<!-- Node1&#45;&gt;Node5 -->
<g id="edge4" class="edge">
<title>Node1&#45;&gt;Node5</title>
<path fill="none" stroke="#191970" d="M152.7322,-102.4333C174.8197,-97.1939 199.5145,-91.3361 222.2759,-85.9369"/>
<polygon fill="#191970" stroke="#191970" points="223.3168,-89.2872 232.239,-83.5736 221.7011,-82.4762 223.3168,-89.2872"/>
</g>
<!-- Node6 -->
<g id="node6" class="node">
<title>Node6</title>
<g id="a_node6"><a xlink:href="../../da/d94/classG4VSceneHandler.html#a31e35d3f02d4bdbab333d1ca84758ff9" target="_top" xlink:title="G4VSceneHandler::SetMark\lForClearingTransientStore">
<polygon fill="none" stroke="#000000" points="221.5,-.5 221.5,-32.5 378.5,-32.5 378.5,-.5 221.5,-.5"/>
<text text-anchor="start" x="229.5" y="-19.5" font-family="FreeSans" font-size="10.00" fill="#000000">G4VSceneHandler::SetMark</text>
<text text-anchor="middle" x="300" y="-7.5" font-family="FreeSans" font-size="10.00" fill="#000000">ForClearingTransientStore</text>
</a>
</g>
</g>
<!-- Node1&#45;&gt;Node6 -->
<g id="edge5" class="edge">
<title>Node1&#45;&gt;Node6</title>
<path fill="none" stroke="#191970" d="M106.2269,-102.4688C129.5864,-85.4892 168.7755,-58.9157 206,-42.5 211.4091,-40.1146 217.0912,-37.8963 222.8713,-35.8438"/>
<polygon fill="#191970" stroke="#191970" points="224.301,-39.0555 232.6602,-32.546 222.0661,-32.4218 224.301,-39.0555"/>
</g>
</g>
</svg>
