<?xml version="1.0" encoding="UTF-8" standalone="no"?>
<!DOCTYPE svg PUBLIC "-//W3C//DTD SVG 1.1//EN"
 "http://www.w3.org/Graphics/SVG/1.1/DTD/svg11.dtd">
<!-- Generated by graphviz version 2.40.1 (20161225.0304)
 -->
<!-- Title: G4SurfBits::GetNbytes Pages: 1 -->
<svg width="1473pt" height="260pt"
 viewBox="0.00 0.00 1473.00 260.00" xmlns="http://www.w3.org/2000/svg" xmlns:xlink="http://www.w3.org/1999/xlink">
<g id="graph0" class="graph" transform="scale(1 1) rotate(0) translate(4 256)">
<title>G4SurfBits::GetNbytes</title>
<!-- Node1 -->
<g id="node1" class="node">
<title>Node1</title>
<polygon fill="#bfbfbf" stroke="#000000" points="0,-118.5 0,-138.5 130,-138.5 130,-118.5 0,-118.5"/>
<text text-anchor="middle" x="65" y="-125.5" font-family="FreeSans" font-size="10.00" fill="#000000">G4SurfBits::GetNbytes</text>
</g>
<!-- Node2 -->
<g id="node2" class="node">
<title>Node2</title>
<g id="a_node2"><a xlink:href="../../da/d11/classG4Voxelizer.html#abefde3ebd1f95a95fe9968fe1f55f122" target="_top" xlink:title="G4Voxelizer::AllocatedMemory">
<polygon fill="none" stroke="#000000" points="166,-138.5 166,-158.5 337,-158.5 337,-138.5 166,-138.5"/>
<text text-anchor="middle" x="251.5" y="-145.5" font-family="FreeSans" font-size="10.00" fill="#000000">G4Voxelizer::AllocatedMemory</text>
</a>
</g>
</g>
<!-- Node1&#45;&gt;Node2 -->
<g id="edge1" class="edge">
<title>Node1&#45;&gt;Node2</title>
<path fill="none" stroke="#191970" d="M140.3878,-136.5845C148.8146,-137.4882 157.4436,-138.4135 165.9854,-139.3295"/>
<polygon fill="#191970" stroke="#191970" points="140.5449,-133.0813 130.2286,-135.495 139.7984,-140.0414 140.5449,-133.0813"/>
</g>
<!-- Node3 -->
<g id="node3" class="node">
<title>Node3</title>
<g id="a_node3"><a xlink:href="../../da/db4/classG4TessellatedSolid.html#a63148432593b7571ef36c0aadcf030f9" target="_top" xlink:title="G4TessellatedSolid\l::AllocatedMemory">
<polygon fill="none" stroke="#000000" points="373,-112.5 373,-144.5 484,-144.5 484,-112.5 373,-112.5"/>
<text text-anchor="start" x="381" y="-131.5" font-family="FreeSans" font-size="10.00" fill="#000000">G4TessellatedSolid</text>
<text text-anchor="middle" x="428.5" y="-119.5" font-family="FreeSans" font-size="10.00" fill="#000000">::AllocatedMemory</text>
</a>
</g>
</g>
<!-- Node1&#45;&gt;Node3 -->
<g id="edge18" class="edge">
<title>Node1&#45;&gt;Node3</title>
<path fill="none" stroke="#191970" d="M140.8097,-128.5C210.0412,-128.5 310.7806,-128.5 372.8435,-128.5"/>
<polygon fill="#191970" stroke="#191970" points="140.4064,-125.0001 130.4063,-128.5 140.4063,-132.0001 140.4064,-125.0001"/>
</g>
<!-- Node2&#45;&gt;Node3 -->
<g id="edge2" class="edge">
<title>Node2&#45;&gt;Node3</title>
<path fill="none" stroke="#191970" d="M347.1349,-137.6938C355.961,-136.6965 364.6918,-135.71 372.9732,-134.7742"/>
<polygon fill="#191970" stroke="#191970" points="346.6921,-134.2215 337.1484,-138.8222 347.4782,-141.1772 346.6921,-134.2215"/>
</g>
<!-- Node4 -->
<g id="node4" class="node">
<title>Node4</title>
<g id="a_node4"><a xlink:href="../../da/db4/classG4TessellatedSolid.html#a6fcd91306d06ef5a5b631eb0249463c8" target="_top" xlink:title="G4TessellatedSolid\l::DisplayAllocatedMemory">
<polygon fill="none" stroke="#000000" points="520,-112.5 520,-144.5 669,-144.5 669,-112.5 520,-112.5"/>
<text text-anchor="start" x="528" y="-131.5" font-family="FreeSans" font-size="10.00" fill="#000000">G4TessellatedSolid</text>
<text text-anchor="middle" x="594.5" y="-119.5" font-family="FreeSans" font-size="10.00" fill="#000000">::DisplayAllocatedMemory</text>
</a>
</g>
</g>
<!-- Node3&#45;&gt;Node4 -->
<g id="edge3" class="edge">
<title>Node3&#45;&gt;Node4</title>
<path fill="none" stroke="#191970" d="M494.2898,-128.5C502.6499,-128.5 511.2536,-128.5 519.7412,-128.5"/>
<polygon fill="#191970" stroke="#191970" points="494.2374,-125.0001 484.2374,-128.5 494.2374,-132.0001 494.2374,-125.0001"/>
</g>
<!-- Node5 -->
<g id="node5" class="node">
<title>Node5</title>
<g id="a_node5"><a xlink:href="../../da/db4/classG4TessellatedSolid.html#a907a016a90286b62ce1692b5e28db182" target="_top" xlink:title="G4TessellatedSolid\l::SetSolidClosed">
<polygon fill="none" stroke="#000000" points="705,-112.5 705,-144.5 816,-144.5 816,-112.5 705,-112.5"/>
<text text-anchor="start" x="713" y="-131.5" font-family="FreeSans" font-size="10.00" fill="#000000">G4TessellatedSolid</text>
<text text-anchor="middle" x="760.5" y="-119.5" font-family="FreeSans" font-size="10.00" fill="#000000">::SetSolidClosed</text>
</a>
</g>
</g>
<!-- Node4&#45;&gt;Node5 -->
<g id="edge4" class="edge">
<title>Node4&#45;&gt;Node5</title>
<path fill="none" stroke="#191970" d="M679.2968,-128.5C687.8685,-128.5 696.4147,-128.5 704.5693,-128.5"/>
<polygon fill="#191970" stroke="#191970" points="679.2446,-125.0001 669.2446,-128.5 679.2445,-132.0001 679.2446,-125.0001"/>
</g>
<!-- Node6 -->
<g id="node6" class="node">
<title>Node6</title>
<g id="a_node6"><a xlink:href="../../da/d21/classG4ExtrudedSolid.html#a7280757103445b37d7f93d2b193a094c" target="_top" xlink:title="G4ExtrudedSolid::MakeFacets">
<polygon fill="none" stroke="#000000" points="870.5,-208.5 870.5,-228.5 1037.5,-228.5 1037.5,-208.5 870.5,-208.5"/>
<text text-anchor="middle" x="954" y="-215.5" font-family="FreeSans" font-size="10.00" fill="#000000">G4ExtrudedSolid::MakeFacets</text>
</a>
</g>
</g>
<!-- Node5&#45;&gt;Node6 -->
<g id="edge5" class="edge">
<title>Node5&#45;&gt;Node6</title>
<path fill="none" stroke="#191970" d="M795.2434,-149.9903C812.0514,-159.9314 832.7218,-171.5017 852,-180.5 875.2884,-191.3701 902.62,-201.4153 923.1262,-208.4443"/>
<polygon fill="#191970" stroke="#191970" points="796.7148,-146.7921 786.3363,-144.6618 793.1211,-152.7992 796.7148,-146.7921"/>
</g>
<!-- Node9 -->
<g id="node9" class="node">
<title>Node9</title>
<g id="a_node9"><a xlink:href="../../d6/dd3/classG4GenericTrap.html#a7cc2d83dcbef8644c3321572d2a09844" target="_top" xlink:title="G4GenericTrap::CreateTessellated\lSolid">
<polygon fill="none" stroke="#000000" points="860.5,-138.5 860.5,-170.5 1047.5,-170.5 1047.5,-138.5 860.5,-138.5"/>
<text text-anchor="start" x="868.5" y="-157.5" font-family="FreeSans" font-size="10.00" fill="#000000">G4GenericTrap::CreateTessellated</text>
<text text-anchor="middle" x="954" y="-145.5" font-family="FreeSans" font-size="10.00" fill="#000000">Solid</text>
</a>
</g>
</g>
<!-- Node5&#45;&gt;Node9 -->
<g id="edge8" class="edge">
<title>Node5&#45;&gt;Node9</title>
<path fill="none" stroke="#191970" d="M826.1507,-137.3213C837.182,-138.8035 848.8169,-140.3669 860.3918,-141.9222"/>
<polygon fill="#191970" stroke="#191970" points="826.5857,-133.8484 816.2086,-135.9854 825.6534,-140.786 826.5857,-133.8484"/>
</g>
<!-- Node13 -->
<g id="node13" class="node">
<title>Node13</title>
<g id="a_node13"><a xlink:href="../../da/db4/classG4TessellatedSolid.html#a25c4056e77b96ba95ce312c73ec9e0ec" target="_top" xlink:title="G4TessellatedSolid\l::CopyObjects">
<polygon fill="none" stroke="#000000" points="898.5,-87.5 898.5,-119.5 1009.5,-119.5 1009.5,-87.5 898.5,-87.5"/>
<text text-anchor="start" x="906.5" y="-106.5" font-family="FreeSans" font-size="10.00" fill="#000000">G4TessellatedSolid</text>
<text text-anchor="middle" x="954" y="-94.5" font-family="FreeSans" font-size="10.00" fill="#000000">::CopyObjects</text>
</a>
</g>
</g>
<!-- Node5&#45;&gt;Node13 -->
<g id="edge12" class="edge">
<title>Node5&#45;&gt;Node13</title>
<path fill="none" stroke="#191970" d="M826.4,-119.9858C849.8003,-116.9625 875.8898,-113.5918 898.3497,-110.69"/>
<polygon fill="#191970" stroke="#191970" points="825.6777,-116.5499 816.2086,-121.3025 826.5747,-123.4922 825.6777,-116.5499"/>
</g>
<!-- Node17 -->
<g id="node17" class="node">
<title>Node17</title>
<g id="a_node17"><a xlink:href="../../d4/db9/classG4GDMLReadSolids.html#aba018e0556f24f212485efaa1864d23d" target="_top" xlink:title="G4GDMLReadSolids::TessellatedRead">
<polygon fill="none" stroke="#000000" points="852,-26.5 852,-46.5 1056,-46.5 1056,-26.5 852,-26.5"/>
<text text-anchor="middle" x="954" y="-33.5" font-family="FreeSans" font-size="10.00" fill="#000000">G4GDMLReadSolids::TessellatedRead</text>
</a>
</g>
</g>
<!-- Node5&#45;&gt;Node17 -->
<g id="edge16" class="edge">
<title>Node5&#45;&gt;Node17</title>
<path fill="none" stroke="#191970" d="M796.1277,-107.265C812.8328,-97.6671 833.1667,-86.4896 852,-77.5 876.6301,-65.7435 905.5705,-54.3281 926.3206,-46.5411"/>
<polygon fill="#191970" stroke="#191970" points="794.1484,-104.3668 787.253,-112.4106 797.6596,-110.4225 794.1484,-104.3668"/>
</g>
<!-- Node7 -->
<g id="node7" class="node">
<title>Node7</title>
<g id="a_node7"><a xlink:href="../../da/d21/classG4ExtrudedSolid.html#ad1a1805311f8ae1b91e9085e92906b9e" target="_top" xlink:title="G4ExtrudedSolid::G4Extruded\lSolid">
<polygon fill="none" stroke="#000000" points="1097,-219.5 1097,-251.5 1265,-251.5 1265,-219.5 1097,-219.5"/>
<text text-anchor="start" x="1105" y="-238.5" font-family="FreeSans" font-size="10.00" fill="#000000">G4ExtrudedSolid::G4Extruded</text>
<text text-anchor="middle" x="1181" y="-226.5" font-family="FreeSans" font-size="10.00" fill="#000000">Solid</text>
</a>
</g>
</g>
<!-- Node6&#45;&gt;Node7 -->
<g id="edge6" class="edge">
<title>Node6&#45;&gt;Node7</title>
<path fill="none" stroke="#191970" d="M1047.6306,-225.512C1063.943,-226.7336 1080.8206,-227.9976 1096.8585,-229.1987"/>
<polygon fill="#191970" stroke="#191970" points="1047.7928,-222.0144 1037.5593,-224.7577 1047.27,-228.9949 1047.7928,-222.0144"/>
</g>
<!-- Node8 -->
<g id="node8" class="node">
<title>Node8</title>
<g id="a_node8"><a xlink:href="../../da/d21/classG4ExtrudedSolid.html#a2693c22a4c1a0d2a6ee9d2576279f23b" target="_top" xlink:title="G4ExtrudedSolid::Clone">
<polygon fill="none" stroke="#000000" points="1317,-225.5 1317,-245.5 1454,-245.5 1454,-225.5 1317,-225.5"/>
<text text-anchor="middle" x="1385.5" y="-232.5" font-family="FreeSans" font-size="10.00" fill="#000000">G4ExtrudedSolid::Clone</text>
</a>
</g>
</g>
<!-- Node7&#45;&gt;Node8 -->
<g id="edge7" class="edge">
<title>Node7&#45;&gt;Node8</title>
<path fill="none" stroke="#191970" d="M1275.1989,-235.5C1289.1883,-235.5 1303.3799,-235.5 1316.7177,-235.5"/>
<polygon fill="#191970" stroke="#191970" points="1275.0633,-232.0001 1265.0633,-235.5 1275.0632,-239.0001 1275.0633,-232.0001"/>
</g>
<!-- Node10 -->
<g id="node10" class="node">
<title>Node10</title>
<g id="a_node10"><a xlink:href="../../d6/dd3/classG4GenericTrap.html#ae3000a4617d4e18a9a50e633e68d3e85" target="_top" xlink:title="G4GenericTrap::G4GenericTrap">
<polygon fill="none" stroke="#000000" points="1094,-180.5 1094,-200.5 1268,-200.5 1268,-180.5 1094,-180.5"/>
<text text-anchor="middle" x="1181" y="-187.5" font-family="FreeSans" font-size="10.00" fill="#000000">G4GenericTrap::G4GenericTrap</text>
</a>
</g>
</g>
<!-- Node9&#45;&gt;Node10 -->
<g id="edge9" class="edge">
<title>Node9&#45;&gt;Node10</title>
<path fill="none" stroke="#191970" d="M1057.6423,-170.9367C1078.1114,-174.1829 1099.0115,-177.4974 1117.6523,-180.4537"/>
<polygon fill="#191970" stroke="#191970" points="1058.065,-167.46 1047.6402,-169.3504 1056.9685,-174.3736 1058.065,-167.46"/>
</g>
<!-- Node12 -->
<g id="node12" class="node">
<title>Node12</title>
<g id="a_node12"><a xlink:href="../../d6/dd3/classG4GenericTrap.html#a1d1121456fa65c4d0011ecffb981d0e0" target="_top" xlink:title="G4GenericTrap::operator=">
<polygon fill="none" stroke="#000000" points="1106.5,-141.5 1106.5,-161.5 1255.5,-161.5 1255.5,-141.5 1106.5,-141.5"/>
<text text-anchor="middle" x="1181" y="-148.5" font-family="FreeSans" font-size="10.00" fill="#000000">G4GenericTrap::operator=</text>
</a>
</g>
</g>
<!-- Node9&#45;&gt;Node12 -->
<g id="edge11" class="edge">
<title>Node9&#45;&gt;Node12</title>
<path fill="none" stroke="#191970" d="M1057.7753,-153.1285C1074.129,-152.9124 1090.7539,-152.6927 1106.2787,-152.4875"/>
<polygon fill="#191970" stroke="#191970" points="1057.593,-149.6305 1047.6402,-153.2625 1057.6856,-156.6299 1057.593,-149.6305"/>
</g>
<!-- Node11 -->
<g id="node11" class="node">
<title>Node11</title>
<g id="a_node11"><a xlink:href="../../d6/dd3/classG4GenericTrap.html#a6f2362fc442ed8076aa64d7b210a5402" target="_top" xlink:title="G4GenericTrap::Clone">
<polygon fill="none" stroke="#000000" points="1322,-180.5 1322,-200.5 1449,-200.5 1449,-180.5 1322,-180.5"/>
<text text-anchor="middle" x="1385.5" y="-187.5" font-family="FreeSans" font-size="10.00" fill="#000000">G4GenericTrap::Clone</text>
</a>
</g>
</g>
<!-- Node10&#45;&gt;Node11 -->
<g id="edge10" class="edge">
<title>Node10&#45;&gt;Node11</title>
<path fill="none" stroke="#191970" d="M1278.2268,-190.5C1293.0201,-190.5 1307.954,-190.5 1321.7859,-190.5"/>
<polygon fill="#191970" stroke="#191970" points="1278.023,-187.0001 1268.0229,-190.5 1278.0229,-194.0001 1278.023,-187.0001"/>
</g>
<!-- Node14 -->
<g id="node14" class="node">
<title>Node14</title>
<g id="a_node14"><a xlink:href="../../da/db4/classG4TessellatedSolid.html#a08a3a0d6f522b046a3fffe5f0e3d1d73" target="_top" xlink:title="G4TessellatedSolid\l::G4TessellatedSolid">
<polygon fill="none" stroke="#000000" points="1122,-90.5 1122,-122.5 1240,-122.5 1240,-90.5 1122,-90.5"/>
<text text-anchor="start" x="1130" y="-109.5" font-family="FreeSans" font-size="10.00" fill="#000000">G4TessellatedSolid</text>
<text text-anchor="middle" x="1181" y="-97.5" font-family="FreeSans" font-size="10.00" fill="#000000">::G4TessellatedSolid</text>
</a>
</g>
</g>
<!-- Node13&#45;&gt;Node14 -->
<g id="edge13" class="edge">
<title>Node13&#45;&gt;Node14</title>
<path fill="none" stroke="#191970" d="M1019.7443,-104.3689C1051.9338,-104.7943 1090.391,-105.3025 1121.6746,-105.716"/>
<polygon fill="#191970" stroke="#191970" points="1019.5759,-100.8664 1009.5304,-104.2339 1019.4833,-107.8658 1019.5759,-100.8664"/>
</g>
<!-- Node15 -->
<g id="node15" class="node">
<title>Node15</title>
<g id="a_node15"><a xlink:href="../../da/db4/classG4TessellatedSolid.html#a417163d25faed45d428645c1665802c7" target="_top" xlink:title="G4TessellatedSolid\l::operator=">
<polygon fill="none" stroke="#000000" points="1125.5,-39.5 1125.5,-71.5 1236.5,-71.5 1236.5,-39.5 1125.5,-39.5"/>
<text text-anchor="start" x="1133.5" y="-58.5" font-family="FreeSans" font-size="10.00" fill="#000000">G4TessellatedSolid</text>
<text text-anchor="middle" x="1181" y="-46.5" font-family="FreeSans" font-size="10.00" fill="#000000">::operator=</text>
</a>
</g>
</g>
<!-- Node13&#45;&gt;Node15 -->
<g id="edge14" class="edge">
<title>Node13&#45;&gt;Node15</title>
<path fill="none" stroke="#191970" d="M1019.6749,-89.6128C1053.1178,-82.5412 1093.3402,-74.036 1125.2561,-67.2873"/>
<polygon fill="#191970" stroke="#191970" points="1018.59,-86.2647 1009.5304,-91.7579 1020.0382,-93.1133 1018.59,-86.2647"/>
</g>
<!-- Node16 -->
<g id="node16" class="node">
<title>Node16</title>
<g id="a_node16"><a xlink:href="../../da/d21/classG4ExtrudedSolid.html#a29ff377f9cf5e4492b86457c995d35a7" target="_top" xlink:title="G4ExtrudedSolid::operator=">
<polygon fill="none" stroke="#000000" points="1306,-45.5 1306,-65.5 1465,-65.5 1465,-45.5 1306,-45.5"/>
<text text-anchor="middle" x="1385.5" y="-52.5" font-family="FreeSans" font-size="10.00" fill="#000000">G4ExtrudedSolid::operator=</text>
</a>
</g>
</g>
<!-- Node15&#45;&gt;Node16 -->
<g id="edge15" class="edge">
<title>Node15&#45;&gt;Node16</title>
<path fill="none" stroke="#191970" d="M1246.822,-55.5C1265.5862,-55.5 1286.2333,-55.5 1305.7327,-55.5"/>
<polygon fill="#191970" stroke="#191970" points="1246.6104,-52.0001 1236.6104,-55.5 1246.6104,-59.0001 1246.6104,-52.0001"/>
</g>
<!-- Node18 -->
<g id="node18" class="node">
<title>Node18</title>
<g id="a_node18"><a xlink:href="../../d4/db9/classG4GDMLReadSolids.html#aaa40a604da13ce30b7e99c45277e30e7" target="_top" xlink:title="G4GDMLReadSolids::SolidsRead">
<polygon fill="none" stroke="#000000" points="1092,-.5 1092,-20.5 1270,-20.5 1270,-.5 1092,-.5"/>
<text text-anchor="middle" x="1181" y="-7.5" font-family="FreeSans" font-size="10.00" fill="#000000">G4GDMLReadSolids::SolidsRead</text>
</a>
</g>
</g>
<!-- Node17&#45;&gt;Node18 -->
<g id="edge17" class="edge">
<title>Node17&#45;&gt;Node18</title>
<path fill="none" stroke="#191970" d="M1051.5484,-25.3271C1065.5285,-23.7258 1079.8379,-22.0868 1093.6056,-20.5099"/>
<polygon fill="#191970" stroke="#191970" points="1050.9762,-21.8696 1041.4394,-26.4849 1051.7728,-28.8242 1050.9762,-21.8696"/>
</g>
</g>
</svg>
