<?xml version="1.0" encoding="UTF-8" standalone="no"?>
<!DOCTYPE svg PUBLIC "-//W3C//DTD SVG 1.1//EN"
 "http://www.w3.org/Graphics/SVG/1.1/DTD/svg11.dtd">
<!-- Generated by graphviz version 2.40.1 (20161225.0304)
 -->
<!-- Title: G4PhysicsVector::DeleteData Pages: 1 -->
<svg width="365pt" height="80pt"
 viewBox="0.00 0.00 365.00 80.00" xmlns="http://www.w3.org/2000/svg" xmlns:xlink="http://www.w3.org/1999/xlink">
<g id="graph0" class="graph" transform="scale(1 1) rotate(0) translate(4 76)">
<title>G4PhysicsVector::DeleteData</title>
<!-- Node1 -->
<g id="node1" class="node">
<title>Node1</title>
<polygon fill="#bfbfbf" stroke="#000000" points="0,-22.5 0,-42.5 163,-42.5 163,-22.5 0,-22.5"/>
<text text-anchor="middle" x="81.5" y="-29.5" font-family="FreeSans" font-size="10.00" fill="#000000">G4PhysicsVector::DeleteData</text>
</g>
<!-- Node2 -->
<g id="node2" class="node">
<title>Node2</title>
<g id="a_node2"><a xlink:href="../../d7/d2c/classG4PhysicsVector.html#a9652468909cf91cf2fac727272af5681" target="_top" xlink:title="G4PhysicsVector::G4Physics\lVector">
<polygon fill="none" stroke="#000000" points="199,-39.5 199,-71.5 357,-71.5 357,-39.5 199,-39.5"/>
<text text-anchor="start" x="207" y="-58.5" font-family="FreeSans" font-size="10.00" fill="#000000">G4PhysicsVector::G4Physics</text>
<text text-anchor="middle" x="278" y="-46.5" font-family="FreeSans" font-size="10.00" fill="#000000">Vector</text>
</a>
</g>
</g>
<!-- Node1&#45;&gt;Node2 -->
<g id="edge1" class="edge">
<title>Node1&#45;&gt;Node2</title>
<path fill="none" stroke="#191970" d="M173.1537,-43.2279C181.7352,-44.2324 190.3841,-45.2447 198.8369,-46.2341"/>
<polygon fill="#191970" stroke="#191970" points="173.4657,-39.7406 163.1266,-42.0543 172.6519,-46.6932 173.4657,-39.7406"/>
</g>
<!-- Node3 -->
<g id="node3" class="node">
<title>Node3</title>
<g id="a_node3"><a xlink:href="../../d7/d2c/classG4PhysicsVector.html#af58ccfd77319bf6e38018f30a523e2e7" target="_top" xlink:title="G4PhysicsVector::operator=">
<polygon fill="none" stroke="#000000" points="199,-.5 199,-20.5 357,-20.5 357,-.5 199,-.5"/>
<text text-anchor="middle" x="278" y="-7.5" font-family="FreeSans" font-size="10.00" fill="#000000">G4PhysicsVector::operator=</text>
</a>
</g>
</g>
<!-- Node1&#45;&gt;Node3 -->
<g id="edge2" class="edge">
<title>Node1&#45;&gt;Node3</title>
<path fill="none" stroke="#191970" d="M173.1537,-22.2385C181.7352,-21.2777 190.3841,-20.3094 198.8369,-19.363"/>
<polygon fill="#191970" stroke="#191970" points="172.675,-18.7701 163.1266,-23.3611 173.454,-25.7267 172.675,-18.7701"/>
</g>
</g>
</svg>
