<?xml version="1.0" encoding="UTF-8" standalone="no"?>
<!DOCTYPE svg PUBLIC "-//W3C//DTD SVG 1.1//EN"
 "http://www.w3.org/Graphics/SVG/1.1/DTD/svg11.dtd">
<!-- Generated by graphviz version 2.40.1 (20161225.0304)
 -->
<!-- Title: xDataXML_axesElememtToTOM Pages: 1 -->
<svg width="980pt" height="510pt"
 viewBox="0.00 0.00 980.00 510.00" xmlns="http://www.w3.org/2000/svg" xmlns:xlink="http://www.w3.org/1999/xlink">
<g id="graph0" class="graph" transform="scale(1 1) rotate(0) translate(4 506)">
<title>xDataXML_axesElememtToTOM</title>
<!-- Node1 -->
<g id="node1" class="node">
<title>Node1</title>
<polygon fill="#bfbfbf" stroke="#000000" points="0,-165.5 0,-185.5 174,-185.5 174,-165.5 0,-165.5"/>
<text text-anchor="middle" x="87" y="-172.5" font-family="FreeSans" font-size="10.00" fill="#000000">xDataXML_axesElememtToTOM</text>
</g>
<!-- Node2 -->
<g id="node2" class="node">
<title>Node2</title>
<g id="a_node2"><a xlink:href="../../dc/da1/xDataTOM__importXML__private_8h.html#ae291ce82cbd5722d70211656e3166faf" target="_top" xlink:title="xDataXML_axesToTOM">
<polygon fill="none" stroke="#000000" points="210,-207.5 210,-227.5 339,-227.5 339,-207.5 210,-207.5"/>
<text text-anchor="middle" x="274.5" y="-214.5" font-family="FreeSans" font-size="10.00" fill="#000000">xDataXML_axesToTOM</text>
</a>
</g>
</g>
<!-- Node1&#45;&gt;Node2 -->
<g id="edge1" class="edge">
<title>Node1&#45;&gt;Node2</title>
<path fill="none" stroke="#191970" d="M131.9109,-185.56C158.2528,-191.4606 191.732,-198.96 219.6292,-205.2089"/>
<polygon fill="#191970" stroke="#191970" points="219.1077,-208.6788 229.631,-207.4493 220.6379,-201.8481 219.1077,-208.6788"/>
</g>
<!-- Node13 -->
<g id="node13" class="node">
<title>Node13</title>
<g id="a_node13"><a xlink:href="../../dc/da1/xDataTOM__importXML__private_8h.html#a48817f2332657efa0e76d282a6b20ce9" target="_top" xlink:title="xDataXML_get_smrUserInterface\lFromElement">
<polygon fill="none" stroke="#000000" points="566,-447.5 566,-479.5 747,-479.5 747,-447.5 566,-447.5"/>
<text text-anchor="start" x="574" y="-466.5" font-family="FreeSans" font-size="10.00" fill="#000000">xDataXML_get_smrUserInterface</text>
<text text-anchor="middle" x="656.5" y="-454.5" font-family="FreeSans" font-size="10.00" fill="#000000">FromElement</text>
</a>
</g>
</g>
<!-- Node1&#45;&gt;Node13 -->
<g id="edge26" class="edge">
<title>Node1&#45;&gt;Node13</title>
<path fill="none" stroke="#191970" d="M92.5593,-185.7515C117.7405,-230.9508 226.3515,-412.9973 375,-476.5 444.7489,-506.2967 533.2566,-495.2366 592.223,-481.877"/>
<polygon fill="#191970" stroke="#191970" points="593.2175,-485.2387 602.1509,-479.5428 591.6153,-478.4245 593.2175,-485.2387"/>
</g>
<!-- Node18 -->
<g id="node18" class="node">
<title>Node18</title>
<g id="a_node18"><a xlink:href="../../dc/da1/xDataTOM__importXML__private_8h.html#adfd107e81716ff66af59ea9fa7803e3c" target="_top" xlink:title="xDataXML_getFirstElement">
<polygon fill="none" stroke="#000000" points="376.5,-39.5 376.5,-59.5 528.5,-59.5 528.5,-39.5 376.5,-39.5"/>
<text text-anchor="middle" x="452.5" y="-46.5" font-family="FreeSans" font-size="10.00" fill="#000000">xDataXML_getFirstElement</text>
</a>
</g>
</g>
<!-- Node1&#45;&gt;Node18 -->
<g id="edge27" class="edge">
<title>Node1&#45;&gt;Node18</title>
<path fill="none" stroke="#191970" d="M115.1255,-165.3713C166.5682,-146.9048 279.3359,-106.6984 375,-74.5 386.7241,-70.5539 399.4876,-66.3847 411.2104,-62.6059"/>
<polygon fill="#191970" stroke="#191970" points="412.316,-65.927 420.767,-59.5371 410.1757,-59.2622 412.316,-65.927"/>
</g>
<!-- Node19 -->
<g id="node19" class="node">
<title>Node19</title>
<g id="a_node19"><a xlink:href="../../dc/da1/xDataTOM__importXML__private_8h.html#aa17b7773316c96b06868bbf0a1c05522" target="_top" xlink:title="xDataXML_getNextElement">
<polygon fill="none" stroke="#000000" points="375.5,-.5 375.5,-20.5 529.5,-20.5 529.5,-.5 375.5,-.5"/>
<text text-anchor="middle" x="452.5" y="-7.5" font-family="FreeSans" font-size="10.00" fill="#000000">xDataXML_getNextElement</text>
</a>
</g>
</g>
<!-- Node1&#45;&gt;Node19 -->
<g id="edge28" class="edge">
<title>Node1&#45;&gt;Node19</title>
<path fill="none" stroke="#191970" d="M98.021,-165.2609C118.5805,-146.6387 164.8046,-106.9857 210,-83.5 278.4681,-47.9206 300.8092,-50.7016 375,-29.5 382.7652,-27.2809 391.0127,-25.0872 399.1202,-23.0224"/>
<polygon fill="#191970" stroke="#191970" points="400.0476,-26.3984 408.8983,-20.5747 398.3477,-19.6079 400.0476,-26.3984"/>
</g>
<!-- Node3 -->
<g id="node3" class="node">
<title>Node3</title>
<g id="a_node3"><a xlink:href="../../d7/dc7/namespacecheck__license.html#a5d6111870e0d2f540b9458f3674194ff" target="_top" xlink:title="check_license.err">
<polygon fill="none" stroke="#000000" points="604.5,-207.5 604.5,-227.5 708.5,-227.5 708.5,-207.5 604.5,-207.5"/>
<text text-anchor="middle" x="656.5" y="-214.5" font-family="FreeSans" font-size="10.00" fill="#000000">check_license.err</text>
</a>
</g>
</g>
<!-- Node2&#45;&gt;Node3 -->
<g id="edge2" class="edge">
<title>Node2&#45;&gt;Node3</title>
<path fill="none" stroke="#191970" d="M317.7801,-207.4844C335.4222,-203.8825 356.0829,-200.2725 375,-198.5 443.5885,-192.0734 461.3024,-193.3697 530,-198.5 551.0296,-200.0705 573.863,-203.09 594.2687,-206.2676"/>
<polygon fill="#191970" stroke="#191970" points="593.9556,-209.7619 604.383,-207.8854 595.0613,-202.8498 593.9556,-209.7619"/>
</g>
<!-- Node4 -->
<g id="node4" class="node">
<title>Node4</title>
<g id="a_node4"><a xlink:href="../../dd/dc6/statusMessageReporting_8h.html#a23c74a6eff07826813358d99f43e1121" target="_top" xlink:title="smr_freeMemory">
<polygon fill="none" stroke="#000000" points="606,-285.5 606,-305.5 707,-305.5 707,-285.5 606,-285.5"/>
<text text-anchor="middle" x="656.5" y="-292.5" font-family="FreeSans" font-size="10.00" fill="#000000">smr_freeMemory</text>
</a>
</g>
</g>
<!-- Node2&#45;&gt;Node4 -->
<g id="edge3" class="edge">
<title>Node2&#45;&gt;Node4</title>
<path fill="none" stroke="#191970" d="M323.6578,-227.5375C393.6155,-241.822 521.734,-267.9823 596.9745,-283.3456"/>
<polygon fill="#191970" stroke="#191970" points="596.7306,-286.8679 607.2287,-285.4394 598.1311,-280.0094 596.7306,-286.8679"/>
</g>
<!-- Node5 -->
<g id="node5" class="node">
<title>Node5</title>
<g id="a_node5"><a xlink:href="../../dd/d05/xDataTOM_8h.html#aa50d4969537ffe30273ecc7cb3ba35b4" target="_top" xlink:title="xDataTOM_axes_initialize">
<polygon fill="none" stroke="#000000" points="380,-285.5 380,-305.5 525,-305.5 525,-285.5 380,-285.5"/>
<text text-anchor="middle" x="452.5" y="-292.5" font-family="FreeSans" font-size="10.00" fill="#000000">xDataTOM_axes_initialize</text>
</a>
</g>
</g>
<!-- Node2&#45;&gt;Node5 -->
<g id="edge4" class="edge">
<title>Node2&#45;&gt;Node5</title>
<path fill="none" stroke="#191970" d="M291.4871,-227.6267C311.1235,-239.0543 344.6418,-257.7123 375,-270.5 385.2745,-274.8279 396.5731,-278.8617 407.2898,-282.3719"/>
<polygon fill="#191970" stroke="#191970" points="406.3315,-285.7399 416.9221,-285.4418 408.4572,-279.0704 406.3315,-285.7399"/>
</g>
<!-- Node6 -->
<g id="node6" class="node">
<title>Node6</title>
<g id="a_node6"><a xlink:href="../../dd/d05/xDataTOM_8h.html#a870fd846fb0f0d9a5de7dc346cf07ca9" target="_top" xlink:title="xDataTOM_axis_initialize">
<polygon fill="none" stroke="#000000" points="381.5,-207.5 381.5,-227.5 523.5,-227.5 523.5,-207.5 381.5,-207.5"/>
<text text-anchor="middle" x="452.5" y="-214.5" font-family="FreeSans" font-size="10.00" fill="#000000">xDataTOM_axis_initialize</text>
</a>
</g>
</g>
<!-- Node2&#45;&gt;Node6 -->
<g id="edge5" class="edge">
<title>Node2&#45;&gt;Node6</title>
<path fill="none" stroke="#191970" d="M339.0138,-217.5C349.4186,-217.5 360.3076,-217.5 371.0488,-217.5"/>
<polygon fill="#191970" stroke="#191970" points="371.2813,-221.0001 381.2813,-217.5 371.2812,-214.0001 371.2813,-221.0001"/>
</g>
<!-- Node8 -->
<g id="node8" class="node">
<title>Node8</title>
<g id="a_node8"><a xlink:href="../../dd/d05/xDataTOM_8h.html#ab60adca52a658e7f9750ad40f9e11855" target="_top" xlink:title="xDataTOM_interpolation_set">
<polygon fill="none" stroke="#000000" points="797.5,-168.5 797.5,-188.5 957.5,-188.5 957.5,-168.5 797.5,-168.5"/>
<text text-anchor="middle" x="877.5" y="-175.5" font-family="FreeSans" font-size="10.00" fill="#000000">xDataTOM_interpolation_set</text>
</a>
</g>
</g>
<!-- Node2&#45;&gt;Node8 -->
<g id="edge12" class="edge">
<title>Node2&#45;&gt;Node8</title>
<path fill="none" stroke="#191970" d="M279.8614,-207.4435C292.683,-184.6172 327.6126,-129.2638 375,-108.5 450.717,-75.3229 666.8255,-88.3548 747,-108.5 788.306,-118.8788 830.7987,-145.1367 855.6461,-162.3772"/>
<polygon fill="#191970" stroke="#191970" points="853.7847,-165.3478 863.9672,-168.2748 857.8325,-159.6368 853.7847,-165.3478"/>
</g>
<!-- Node9 -->
<g id="node9" class="node">
<title>Node9</title>
<g id="a_node9"><a xlink:href="../../dd/d05/xDataTOM_8h.html#aaec990b043cdae79edbfaeb9b4768981" target="_top" xlink:title="xDataTOM_axis_release">
<polygon fill="none" stroke="#000000" points="384.5,-324.5 384.5,-344.5 520.5,-344.5 520.5,-324.5 384.5,-324.5"/>
<text text-anchor="middle" x="452.5" y="-331.5" font-family="FreeSans" font-size="10.00" fill="#000000">xDataTOM_axis_release</text>
</a>
</g>
</g>
<!-- Node2&#45;&gt;Node9 -->
<g id="edge10" class="edge">
<title>Node2&#45;&gt;Node9</title>
<path fill="none" stroke="#191970" d="M281.8214,-227.6134C296.8859,-247.6501 333.4473,-292.4416 375,-315.5 378.6794,-317.5418 382.5767,-319.3665 386.5885,-320.997"/>
<polygon fill="#191970" stroke="#191970" points="385.5141,-324.3305 396.1082,-324.4595 387.9069,-317.7521 385.5141,-324.3305"/>
</g>
<!-- Node10 -->
<g id="node10" class="node">
<title>Node10</title>
<g id="a_node10"><a xlink:href="../../dd/d05/xDataTOM_8h.html#a0d724b2c3557840c9069a9593ea7fa9e" target="_top" xlink:title="xDataTOM_interpolation\l_setFromString">
<polygon fill="none" stroke="#000000" points="383.5,-117.5 383.5,-149.5 521.5,-149.5 521.5,-117.5 383.5,-117.5"/>
<text text-anchor="start" x="391.5" y="-136.5" font-family="FreeSans" font-size="10.00" fill="#000000">xDataTOM_interpolation</text>
<text text-anchor="middle" x="452.5" y="-124.5" font-family="FreeSans" font-size="10.00" fill="#000000">_setFromString</text>
</a>
</g>
</g>
<!-- Node2&#45;&gt;Node10 -->
<g id="edge13" class="edge">
<title>Node2&#45;&gt;Node10</title>
<path fill="none" stroke="#191970" d="M292.3691,-207.346C312.2458,-196.2242 345.4553,-178.1537 375,-164.5 383.124,-160.7456 391.8385,-156.9985 400.386,-153.4737"/>
<polygon fill="#191970" stroke="#191970" points="401.9767,-156.6054 409.9249,-149.6 399.3429,-150.1198 401.9767,-156.6054"/>
</g>
<!-- Node12 -->
<g id="node12" class="node">
<title>Node12</title>
<g id="a_node12"><a xlink:href="../../dc/da1/xDataTOM__importXML__private_8h.html#a84a97032588de9c4cae9760ed7ec9af4" target="_top" xlink:title="xDataXML_convertAttribute\lTo_xDataTOM_Int">
<polygon fill="none" stroke="#000000" points="375,-402.5 375,-434.5 530,-434.5 530,-402.5 375,-402.5"/>
<text text-anchor="start" x="383" y="-421.5" font-family="FreeSans" font-size="10.00" fill="#000000">xDataXML_convertAttribute</text>
<text text-anchor="middle" x="452.5" y="-409.5" font-family="FreeSans" font-size="10.00" fill="#000000">To_xDataTOM_Int</text>
</a>
</g>
</g>
<!-- Node2&#45;&gt;Node12 -->
<g id="edge16" class="edge">
<title>Node2&#45;&gt;Node12</title>
<path fill="none" stroke="#191970" d="M277.9175,-227.8704C288.0389,-257.067 320.5974,-340.8625 375,-387.5 379.4403,-391.3065 384.4068,-394.6834 389.6232,-397.6713"/>
<polygon fill="#191970" stroke="#191970" points="388.1031,-400.8258 398.5892,-402.3399 391.3361,-394.6171 388.1031,-400.8258"/>
</g>
<!-- Node2&#45;&gt;Node13 -->
<g id="edge22" class="edge">
<title>Node2&#45;&gt;Node13</title>
<path fill="none" stroke="#191970" d="M275.4246,-227.7108C279.3563,-264.4747 298.2028,-390.7451 375,-444.5 428.203,-481.7399 501.8007,-485.5034 560.399,-480.4766"/>
<polygon fill="#191970" stroke="#191970" points="560.7895,-483.9554 570.4115,-479.5207 560.1241,-476.987 560.7895,-483.9554"/>
</g>
<!-- Node16 -->
<g id="node16" class="node">
<title>Node16</title>
<g id="a_node16"><a xlink:href="../../dc/da1/xDataTOM__importXML__private_8h.html#ac945e956635f1b096398cef017322990" target="_top" xlink:title="xDataXML_getAttributesValue\lInElement">
<polygon fill="none" stroke="#000000" points="573.5,-360.5 573.5,-392.5 739.5,-392.5 739.5,-360.5 573.5,-360.5"/>
<text text-anchor="start" x="581.5" y="-379.5" font-family="FreeSans" font-size="10.00" fill="#000000">xDataXML_getAttributesValue</text>
<text text-anchor="middle" x="656.5" y="-367.5" font-family="FreeSans" font-size="10.00" fill="#000000">InElement</text>
</a>
</g>
</g>
<!-- Node2&#45;&gt;Node16 -->
<g id="edge23" class="edge">
<title>Node2&#45;&gt;Node16</title>
<path fill="none" stroke="#191970" d="M278.4276,-227.7546C289.1841,-254.2444 321.9056,-324.9445 375,-354.5 431.8708,-386.1577 505.4748,-390.8943 563.1553,-388.1194"/>
<polygon fill="#191970" stroke="#191970" points="563.5791,-391.6012 573.3657,-387.5426 563.1842,-384.6123 563.5791,-391.6012"/>
</g>
<!-- Node2&#45;&gt;Node18 -->
<g id="edge24" class="edge">
<title>Node2&#45;&gt;Node18</title>
<path fill="none" stroke="#191970" d="M278.9145,-207.1292C290.6022,-180.9032 324.9242,-111.4051 375,-74.5 381.0247,-70.0599 387.8717,-66.3871 394.9433,-63.3541"/>
<polygon fill="#191970" stroke="#191970" points="396.5989,-66.4669 404.6695,-59.6028 394.0799,-59.9358 396.5989,-66.4669"/>
</g>
<!-- Node2&#45;&gt;Node19 -->
<g id="edge25" class="edge">
<title>Node2&#45;&gt;Node19</title>
<path fill="none" stroke="#191970" d="M278.5783,-207.4543C293.1242,-172.0848 343.2809,-54.1248 375,-29.5 376.8671,-28.0505 378.8296,-26.7098 380.8665,-25.4699"/>
<polygon fill="#191970" stroke="#191970" points="382.924,-28.3469 390.2085,-20.6537 379.7163,-22.1251 382.924,-28.3469"/>
</g>
<!-- Node6&#45;&gt;Node3 -->
<g id="edge6" class="edge">
<title>Node6&#45;&gt;Node3</title>
<path fill="none" stroke="#191970" d="M523.5629,-217.5C546.5975,-217.5 571.9571,-217.5 594.2963,-217.5"/>
<polygon fill="#191970" stroke="#191970" points="594.3286,-221.0001 604.3286,-217.5 594.3285,-214.0001 594.3286,-221.0001"/>
</g>
<!-- Node6&#45;&gt;Node4 -->
<g id="edge7" class="edge">
<title>Node6&#45;&gt;Node4</title>
<path fill="none" stroke="#191970" d="M495.393,-227.6095C507.0743,-231.341 519.4154,-236.2351 530,-242.5 548.939,-253.7099 546.4984,-266.3004 566,-276.5 575.2714,-281.3491 585.6875,-284.9606 596.0646,-287.6504"/>
<polygon fill="#191970" stroke="#191970" points="595.4298,-291.0962 605.9632,-289.9572 597.0186,-284.2788 595.4298,-291.0962"/>
</g>
<!-- Node7 -->
<g id="node7" class="node">
<title>Node7</title>
<g id="a_node7"><a xlink:href="../../dd/d05/xDataTOM_8h.html#adf856d0fd604c9bd38cb4c5afd18c557" target="_top" xlink:title="xDataTOM_interpolation_copy">
<polygon fill="none" stroke="#000000" points="572.5,-246.5 572.5,-266.5 740.5,-266.5 740.5,-246.5 572.5,-246.5"/>
<text text-anchor="middle" x="656.5" y="-253.5" font-family="FreeSans" font-size="10.00" fill="#000000">xDataTOM_interpolation_copy</text>
</a>
</g>
</g>
<!-- Node6&#45;&gt;Node7 -->
<g id="edge8" class="edge">
<title>Node6&#45;&gt;Node7</title>
<path fill="none" stroke="#191970" d="M505.0351,-227.5435C532.2807,-232.7522 565.7392,-239.1487 594.2736,-244.6038"/>
<polygon fill="#191970" stroke="#191970" points="593.6636,-248.0505 604.143,-246.4906 594.9781,-241.175 593.6636,-248.0505"/>
</g>
<!-- Node7&#45;&gt;Node8 -->
<g id="edge9" class="edge">
<title>Node7&#45;&gt;Node8</title>
<path fill="none" stroke="#191970" d="M713.9648,-246.4036C725.0421,-243.9061 736.4702,-240.9401 747,-237.5 783.4659,-225.5865 823.3789,-206.6023 849.3381,-193.3978"/>
<polygon fill="#191970" stroke="#191970" points="851.2784,-196.3355 858.5677,-188.6468 848.0746,-190.1117 851.2784,-196.3355"/>
</g>
<!-- Node9&#45;&gt;Node4 -->
<g id="edge11" class="edge">
<title>Node9&#45;&gt;Node4</title>
<path fill="none" stroke="#191970" d="M505.0351,-324.4565C532.8087,-319.1469 567.0383,-312.603 595.9269,-307.0801"/>
<polygon fill="#191970" stroke="#191970" points="596.7382,-310.4885 605.9031,-305.1729 595.4237,-303.613 596.7382,-310.4885"/>
</g>
<!-- Node10&#45;&gt;Node8 -->
<g id="edge15" class="edge">
<title>Node10&#45;&gt;Node8</title>
<path fill="none" stroke="#191970" d="M514.0057,-149.5253C530.7663,-153.361 548.9926,-157.0503 566,-159.5 640.0395,-170.1645 724.8203,-174.8523 787.2217,-176.9082"/>
<polygon fill="#191970" stroke="#191970" points="787.325,-180.413 797.4296,-177.2277 787.544,-173.4165 787.325,-180.413"/>
</g>
<!-- Node11 -->
<g id="node11" class="node">
<title>Node11</title>
<g id="a_node11"><a xlink:href="../../d8/d15/xDataTOM__interpolation_8cc.html#ac74ed6213a202074b7445bbf3123c410" target="_top" xlink:title="xDataTOM_interpolation\l_getFromString">
<polygon fill="none" stroke="#000000" points="587.5,-117.5 587.5,-149.5 725.5,-149.5 725.5,-117.5 587.5,-117.5"/>
<text text-anchor="start" x="595.5" y="-136.5" font-family="FreeSans" font-size="10.00" fill="#000000">xDataTOM_interpolation</text>
<text text-anchor="middle" x="656.5" y="-124.5" font-family="FreeSans" font-size="10.00" fill="#000000">_getFromString</text>
</a>
</g>
</g>
<!-- Node10&#45;&gt;Node11 -->
<g id="edge14" class="edge">
<title>Node10&#45;&gt;Node11</title>
<path fill="none" stroke="#191970" d="M521.5651,-133.5C539.4129,-133.5 558.7678,-133.5 577.0975,-133.5"/>
<polygon fill="#191970" stroke="#191970" points="577.1592,-137.0001 587.1591,-133.5 577.1591,-130.0001 577.1592,-137.0001"/>
</g>
<!-- Node12&#45;&gt;Node13 -->
<g id="edge17" class="edge">
<title>Node12&#45;&gt;Node13</title>
<path fill="none" stroke="#191970" d="M525.2847,-434.5555C541.0146,-438.0253 557.757,-441.7184 573.8341,-445.2649"/>
<polygon fill="#191970" stroke="#191970" points="573.2242,-448.7144 583.7434,-447.4507 574.7321,-441.8787 573.2242,-448.7144"/>
</g>
<!-- Node12&#45;&gt;Node16 -->
<g id="edge20" class="edge">
<title>Node12&#45;&gt;Node16</title>
<path fill="none" stroke="#191970" d="M530.2056,-402.5018C542.733,-399.9226 555.7796,-397.2366 568.5281,-394.6119"/>
<polygon fill="#191970" stroke="#191970" points="569.5839,-397.968 578.6727,-392.5233 568.1723,-391.1118 569.5839,-397.968"/>
</g>
<!-- Node14 -->
<g id="node14" class="node">
<title>Node14</title>
<g id="a_node14"><a xlink:href="../../dc/da1/xDataTOM__importXML__private_8h.html#a985bf5b787af0dd289b628d2942a961d" target="_top" xlink:title="xDataXML_get_smrUserInterface\lFromDocument">
<polygon fill="none" stroke="#000000" points="787,-469.5 787,-501.5 968,-501.5 968,-469.5 787,-469.5"/>
<text text-anchor="start" x="795" y="-488.5" font-family="FreeSans" font-size="10.00" fill="#000000">xDataXML_get_smrUserInterface</text>
<text text-anchor="middle" x="877.5" y="-476.5" font-family="FreeSans" font-size="10.00" fill="#000000">FromDocument</text>
</a>
</g>
</g>
<!-- Node13&#45;&gt;Node14 -->
<g id="edge18" class="edge">
<title>Node13&#45;&gt;Node14</title>
<path fill="none" stroke="#191970" d="M747.0268,-472.5117C756.7587,-473.4805 766.7043,-474.4706 776.5481,-475.4505"/>
<polygon fill="#191970" stroke="#191970" points="776.4588,-478.9588 786.7563,-476.4667 777.1523,-471.9932 776.4588,-478.9588"/>
</g>
<!-- Node15 -->
<g id="node15" class="node">
<title>Node15</title>
<g id="a_node15"><a xlink:href="../../dc/da1/xDataTOM__importXML__private_8h.html#ab62d17b73fe2382ebc2411f813df87d0" target="_top" xlink:title="xDataXML_getElementsDocument">
<polygon fill="none" stroke="#000000" points="783,-430.5 783,-450.5 972,-450.5 972,-430.5 783,-430.5"/>
<text text-anchor="middle" x="877.5" y="-437.5" font-family="FreeSans" font-size="10.00" fill="#000000">xDataXML_getElementsDocument</text>
</a>
</g>
</g>
<!-- Node13&#45;&gt;Node15 -->
<g id="edge19" class="edge">
<title>Node13&#45;&gt;Node15</title>
<path fill="none" stroke="#191970" d="M747.0268,-454.0787C755.5089,-453.1959 764.1534,-452.2963 772.7513,-451.4014"/>
<polygon fill="#191970" stroke="#191970" points="773.2267,-454.871 782.8106,-450.3546 772.502,-447.9086 773.2267,-454.871"/>
</g>
<!-- Node17 -->
<g id="node17" class="node">
<title>Node17</title>
<g id="a_node17"><a xlink:href="../../dc/da1/xDataTOM__importXML__private_8h.html#a825f97e31c0f9a36a00dc11e8aa5b30f" target="_top" xlink:title="xDataXML_getAttributesValue">
<polygon fill="none" stroke="#000000" points="794.5,-366.5 794.5,-386.5 960.5,-386.5 960.5,-366.5 794.5,-366.5"/>
<text text-anchor="middle" x="877.5" y="-373.5" font-family="FreeSans" font-size="10.00" fill="#000000">xDataXML_getAttributesValue</text>
</a>
</g>
</g>
<!-- Node16&#45;&gt;Node17 -->
<g id="edge21" class="edge">
<title>Node16&#45;&gt;Node17</title>
<path fill="none" stroke="#191970" d="M739.7357,-376.5C754.2503,-376.5 769.4343,-376.5 784.1985,-376.5"/>
<polygon fill="#191970" stroke="#191970" points="784.3393,-380.0001 794.3393,-376.5 784.3393,-373.0001 784.3393,-380.0001"/>
</g>
</g>
</svg>
