<?xml version="1.0" encoding="UTF-8" standalone="no"?>
<!DOCTYPE svg PUBLIC "-//W3C//DTD SVG 1.1//EN"
 "http://www.w3.org/Graphics/SVG/1.1/DTD/svg11.dtd">
<!-- Generated by graphviz version 2.40.1 (20161225.0304)
 -->
<!-- Title: DicomIntersectVolume::DicomIntersectVolume Pages: 1 -->
<svg width="579pt" height="176pt"
 viewBox="0.00 0.00 579.00 176.00" xmlns="http://www.w3.org/2000/svg" xmlns:xlink="http://www.w3.org/1999/xlink">
<g id="graph0" class="graph" transform="scale(1 1) rotate(0) translate(4 172)">
<title>DicomIntersectVolume::DicomIntersectVolume</title>
<!-- Node1 -->
<g id="node1" class="node">
<title>Node1</title>
<polygon fill="#bfbfbf" stroke="#000000" points="0,-90.5 0,-122.5 137,-122.5 137,-90.5 0,-90.5"/>
<text text-anchor="start" x="8" y="-109.5" font-family="FreeSans" font-size="10.00" fill="#000000">DicomIntersectVolume</text>
<text text-anchor="middle" x="68.5" y="-97.5" font-family="FreeSans" font-size="10.00" fill="#000000">::DicomIntersectVolume</text>
</g>
<!-- Node2 -->
<g id="node2" class="node">
<title>Node2</title>
<g id="a_node2"><a xlink:href="../../d2/dd2/classG4UIcommand.html#ae6928a74b5faefb6c6b2606ec7272e47" target="_top" xlink:title="G4UIcommand::AvailableFor\lStates">
<polygon fill="none" stroke="#000000" points="174,-135.5 174,-167.5 335,-167.5 335,-135.5 174,-135.5"/>
<text text-anchor="start" x="182" y="-154.5" font-family="FreeSans" font-size="10.00" fill="#000000">G4UIcommand::AvailableFor</text>
<text text-anchor="middle" x="254.5" y="-142.5" font-family="FreeSans" font-size="10.00" fill="#000000">States</text>
</a>
</g>
</g>
<!-- Node1&#45;&gt;Node2 -->
<g id="edge1" class="edge">
<title>Node1&#45;&gt;Node2</title>
<path fill="none" stroke="#191970" d="M134.8625,-122.5555C148.9339,-125.9598 163.8939,-129.5792 178.2978,-133.064"/>
<polygon fill="#191970" stroke="#191970" points="177.6204,-136.501 188.1631,-135.4507 179.2665,-129.6973 177.6204,-136.501"/>
</g>
<!-- Node3 -->
<g id="node3" class="node">
<title>Node3</title>
<g id="a_node3"><a xlink:href="../../d2/dd2/classG4UIcommand.html#a791eb299b62778e033543435923778c0" target="_top" xlink:title="G4UIcommand::SetGuidance">
<polygon fill="none" stroke="#000000" points="173,-96.5 173,-116.5 336,-116.5 336,-96.5 173,-96.5"/>
<text text-anchor="middle" x="254.5" y="-103.5" font-family="FreeSans" font-size="10.00" fill="#000000">G4UIcommand::SetGuidance</text>
</a>
</g>
</g>
<!-- Node1&#45;&gt;Node3 -->
<g id="edge2" class="edge">
<title>Node1&#45;&gt;Node3</title>
<path fill="none" stroke="#191970" d="M137.2311,-106.5C145.5616,-106.5 154.1715,-106.5 162.767,-106.5"/>
<polygon fill="#191970" stroke="#191970" points="162.8332,-110.0001 172.8331,-106.5 162.8331,-103.0001 162.8332,-110.0001"/>
</g>
<!-- Node4 -->
<g id="node4" class="node">
<title>Node4</title>
<g id="a_node4"><a xlink:href="../../d0/d84/classG4UIcmdWithAString.html#a6d580fd73a2260e4e74b67d9a778dadf" target="_top" xlink:title="G4UIcmdWithAString\l::SetParameterName">
<polygon fill="none" stroke="#000000" points="193.5,-45.5 193.5,-77.5 315.5,-77.5 315.5,-45.5 193.5,-45.5"/>
<text text-anchor="start" x="201.5" y="-64.5" font-family="FreeSans" font-size="10.00" fill="#000000">G4UIcmdWithAString</text>
<text text-anchor="middle" x="254.5" y="-52.5" font-family="FreeSans" font-size="10.00" fill="#000000">::SetParameterName</text>
</a>
</g>
</g>
<!-- Node1&#45;&gt;Node4 -->
<g id="edge3" class="edge">
<title>Node1&#45;&gt;Node4</title>
<path fill="none" stroke="#191970" d="M134.8625,-90.4445C150.6733,-86.6194 167.6058,-82.5228 183.6109,-78.6506"/>
<polygon fill="#191970" stroke="#191970" points="184.5416,-82.0265 193.4382,-76.273 182.8955,-75.2228 184.5416,-82.0265"/>
</g>
<!-- Node5 -->
<g id="node5" class="node">
<title>Node5</title>
<g id="a_node5"><a xlink:href="../../d9/d78/classG4UIparameter.html#a57a456cfc18368f5ca588f3974b3acbc" target="_top" xlink:title="G4UIparameter::SetParameterName">
<polygon fill="none" stroke="#000000" points="372,-90.5 372,-110.5 571,-110.5 571,-90.5 372,-90.5"/>
<text text-anchor="middle" x="471.5" y="-97.5" font-family="FreeSans" font-size="10.00" fill="#000000">G4UIparameter::SetParameterName</text>
</a>
</g>
</g>
<!-- Node4&#45;&gt;Node5 -->
<g id="edge4" class="edge">
<title>Node4&#45;&gt;Node5</title>
<path fill="none" stroke="#191970" d="M315.5241,-72.4675C343.6703,-77.526 377.1261,-83.5388 405.8219,-88.6961"/>
<polygon fill="#191970" stroke="#191970" points="405.2955,-92.1575 415.757,-90.4817 406.5338,-85.2679 405.2955,-92.1575"/>
</g>
<!-- Node6 -->
<g id="node6" class="node">
<title>Node6</title>
<g id="a_node6"><a xlink:href="../../d9/d78/classG4UIparameter.html#a48710feba421297f95f3d40edda04421" target="_top" xlink:title="G4UIparameter::SetOmittable">
<polygon fill="none" stroke="#000000" points="388,-51.5 388,-71.5 555,-71.5 555,-51.5 388,-51.5"/>
<text text-anchor="middle" x="471.5" y="-58.5" font-family="FreeSans" font-size="10.00" fill="#000000">G4UIparameter::SetOmittable</text>
</a>
</g>
</g>
<!-- Node4&#45;&gt;Node6 -->
<g id="edge5" class="edge">
<title>Node4&#45;&gt;Node6</title>
<path fill="none" stroke="#191970" d="M315.5241,-61.5C334.8076,-61.5 356.5834,-61.5 377.6132,-61.5"/>
<polygon fill="#191970" stroke="#191970" points="377.8629,-65.0001 387.8628,-61.5 377.8628,-58.0001 377.8629,-65.0001"/>
</g>
<!-- Node7 -->
<g id="node7" class="node">
<title>Node7</title>
<g id="a_node7"><a xlink:href="../../d9/d78/classG4UIparameter.html#ab0d217931a392ea4127cc8257385985e" target="_top" xlink:title="G4UIparameter::SetCurrent\lAsDefault">
<polygon fill="none" stroke="#000000" points="394,-.5 394,-32.5 549,-32.5 549,-.5 394,-.5"/>
<text text-anchor="start" x="402" y="-19.5" font-family="FreeSans" font-size="10.00" fill="#000000">G4UIparameter::SetCurrent</text>
<text text-anchor="middle" x="471.5" y="-7.5" font-family="FreeSans" font-size="10.00" fill="#000000">AsDefault</text>
</a>
</g>
</g>
<!-- Node4&#45;&gt;Node7 -->
<g id="edge6" class="edge">
<title>Node4&#45;&gt;Node7</title>
<path fill="none" stroke="#191970" d="M315.5241,-48.8452C336.9133,-44.4097 361.3687,-39.3383 384.4712,-34.5474"/>
<polygon fill="#191970" stroke="#191970" points="385.1956,-37.9718 394.2766,-32.5141 383.7742,-31.1176 385.1956,-37.9718"/>
</g>
</g>
</svg>
