<?xml version="1.0" encoding="UTF-8" standalone="no"?>
<!DOCTYPE svg PUBLIC "-//W3C//DTD SVG 1.1//EN"
 "http://www.w3.org/Graphics/SVG/1.1/DTD/svg11.dtd">
<!-- Generated by graphviz version 2.40.1 (20161225.0304)
 -->
<!-- Title: geant4/tree/geant4&#45;10.6&#45;release/source/digits_hits/scorer/include/G4PSFlatSurfaceFlux.hh Pages: 1 -->
<svg width="1035pt" height="263pt"
 viewBox="0.00 0.00 1034.50 263.00" xmlns="http://www.w3.org/2000/svg" xmlns:xlink="http://www.w3.org/1999/xlink">
<g id="graph0" class="graph" transform="scale(1 1) rotate(0) translate(4 259)">
<title>geant4/tree/geant4&#45;10.6&#45;release/source/digits_hits/scorer/include/G4PSFlatSurfaceFlux.hh</title>
<!-- Node1 -->
<g id="node1" class="node">
<title>Node1</title>
<polygon fill="#bfbfbf" stroke="#000000" points="556.5,-198.5 556.5,-254.5 703.5,-254.5 703.5,-198.5 556.5,-198.5"/>
<text text-anchor="start" x="564.5" y="-241.5" font-family="FreeSans" font-size="10.00" fill="#000000">geant4/tree/geant4</text>
<text text-anchor="start" x="564.5" y="-229.5" font-family="FreeSans" font-size="10.00" fill="#000000">&#45;10.6&#45;release/source</text>
<text text-anchor="start" x="564.5" y="-217.5" font-family="FreeSans" font-size="10.00" fill="#000000">/digits_hits/scorer/include</text>
<text text-anchor="middle" x="630" y="-205.5" font-family="FreeSans" font-size="10.00" fill="#000000">/G4PSFlatSurfaceFlux.hh</text>
</g>
<!-- Node2 -->
<g id="node2" class="node">
<title>Node2</title>
<g id="a_node2"><a xlink:href="../../db/dd9/GB03DetectorConstruction_8cc.html" target="_top" xlink:title="Implementation of the GB03DetectorConstruction class.">
<polygon fill="none" stroke="#000000" points="140,-99.5 140,-155.5 328,-155.5 328,-99.5 140,-99.5"/>
<text text-anchor="start" x="148" y="-142.5" font-family="FreeSans" font-size="10.00" fill="#000000">geant4/tree/geant4</text>
<text text-anchor="start" x="148" y="-130.5" font-family="FreeSans" font-size="10.00" fill="#000000">&#45;10.6&#45;release/examples</text>
<text text-anchor="start" x="148" y="-118.5" font-family="FreeSans" font-size="10.00" fill="#000000">/extended/biasing/GB03</text>
<text text-anchor="middle" x="234" y="-106.5" font-family="FreeSans" font-size="10.00" fill="#000000">/src/GB03DetectorConstruction.cc</text>
</a>
</g>
</g>
<!-- Node1&#45;&gt;Node2 -->
<g id="edge1" class="edge">
<title>Node1&#45;&gt;Node2</title>
<path fill="none" stroke="#191970" d="M546.3139,-210.5459C487.3902,-198.7129 406.8767,-181.3347 337,-162 329.8207,-160.0135 322.4047,-157.8187 314.996,-155.5271"/>
<polygon fill="#191970" stroke="#191970" points="545.8256,-214.0174 556.3173,-212.5432 547.1962,-207.1529 545.8256,-214.0174"/>
</g>
<!-- Node3 -->
<g id="node3" class="node">
<title>Node3</title>
<g id="a_node3"><a xlink:href="../../d7/d5a/RE02PSFlatSurfaceFlux_8hh.html" target="_top" xlink:title="Definition of the RE02PSFlatSurfaceFlux class.">
<polygon fill="none" stroke="#000000" points="346.5,-93.5 346.5,-161.5 533.5,-161.5 533.5,-93.5 346.5,-93.5"/>
<text text-anchor="start" x="354.5" y="-148.5" font-family="FreeSans" font-size="10.00" fill="#000000">geant4/tree/geant4</text>
<text text-anchor="start" x="354.5" y="-136.5" font-family="FreeSans" font-size="10.00" fill="#000000">&#45;10.6&#45;release/examples</text>
<text text-anchor="start" x="354.5" y="-124.5" font-family="FreeSans" font-size="10.00" fill="#000000">/extended/runAndEvent</text>
<text text-anchor="start" x="354.5" y="-112.5" font-family="FreeSans" font-size="10.00" fill="#000000">/RE02/include/RE02PSFlatSurface</text>
<text text-anchor="middle" x="440" y="-100.5" font-family="FreeSans" font-size="10.00" fill="#000000">Flux.hh</text>
</a>
</g>
</g>
<!-- Node1&#45;&gt;Node3 -->
<g id="edge2" class="edge">
<title>Node1&#45;&gt;Node3</title>
<path fill="none" stroke="#191970" d="M567.1422,-193.7478C547.3749,-183.448 525.5029,-172.0515 505.5535,-161.6568"/>
<polygon fill="#191970" stroke="#191970" points="565.5762,-196.8784 576.0618,-198.3954 568.8108,-190.6705 565.5762,-196.8784"/>
</g>
<!-- Node5 -->
<g id="node5" class="node">
<title>Node5</title>
<g id="a_node5"><a xlink:href="../../d5/d8e/G4PSFlatSurfaceFlux3D_8hh.html" target="_top" xlink:title="geant4/tree/geant4\l&#45;10.6&#45;release/source\l/digits_hits/scorer/include\l/G4PSFlatSurfaceFlux3D.hh">
<polygon fill="none" stroke="#000000" points="552,-99.5 552,-155.5 708,-155.5 708,-99.5 552,-99.5"/>
<text text-anchor="start" x="560" y="-142.5" font-family="FreeSans" font-size="10.00" fill="#000000">geant4/tree/geant4</text>
<text text-anchor="start" x="560" y="-130.5" font-family="FreeSans" font-size="10.00" fill="#000000">&#45;10.6&#45;release/source</text>
<text text-anchor="start" x="560" y="-118.5" font-family="FreeSans" font-size="10.00" fill="#000000">/digits_hits/scorer/include</text>
<text text-anchor="middle" x="630" y="-106.5" font-family="FreeSans" font-size="10.00" fill="#000000">/G4PSFlatSurfaceFlux3D.hh</text>
</a>
</g>
</g>
<!-- Node1&#45;&gt;Node5 -->
<g id="edge4" class="edge">
<title>Node1&#45;&gt;Node5</title>
<path fill="none" stroke="#191970" d="M630,-188.2953C630,-177.4399 630,-165.8188 630,-155.6749"/>
<polygon fill="#191970" stroke="#191970" points="626.5001,-188.3954 630,-198.3954 633.5001,-188.3954 626.5001,-188.3954"/>
</g>
<!-- Node8 -->
<g id="node8" class="node">
<title>Node8</title>
<g id="a_node8"><a xlink:href="../../d3/dfc/G4ScoreQuantityMessenger_8cc.html" target="_top" xlink:title="geant4/tree/geant4\l&#45;10.6&#45;release/source\l/digits_hits/utils/src\l/G4ScoreQuantityMessenger.cc">
<polygon fill="none" stroke="#000000" points="851.5,-.5 851.5,-56.5 1026.5,-56.5 1026.5,-.5 851.5,-.5"/>
<text text-anchor="start" x="859.5" y="-43.5" font-family="FreeSans" font-size="10.00" fill="#000000">geant4/tree/geant4</text>
<text text-anchor="start" x="859.5" y="-31.5" font-family="FreeSans" font-size="10.00" fill="#000000">&#45;10.6&#45;release/source</text>
<text text-anchor="start" x="859.5" y="-19.5" font-family="FreeSans" font-size="10.00" fill="#000000">/digits_hits/utils/src</text>
<text text-anchor="middle" x="939" y="-7.5" font-family="FreeSans" font-size="10.00" fill="#000000">/G4ScoreQuantityMessenger.cc</text>
</a>
</g>
</g>
<!-- Node1&#45;&gt;Node8 -->
<g id="edge10" class="edge">
<title>Node1&#45;&gt;Node8</title>
<path fill="none" stroke="#191970" d="M683.6962,-192.3327C695.5043,-183.346 707.3503,-173.0441 717,-162 740.0353,-135.6361 728.2746,-115.6148 755,-93 763.1559,-86.0986 808.0182,-70.3171 851.3987,-56.0928"/>
<polygon fill="#191970" stroke="#191970" points="681.5254,-189.5848 675.5549,-198.3371 685.6803,-195.2183 681.5254,-189.5848"/>
</g>
<!-- Node10 -->
<g id="node10" class="node">
<title>Node10</title>
<g id="a_node10"><a xlink:href="../../d4/ddf/G4PSFlatSurfaceFlux_8cc.html" target="_top" xlink:title="geant4/tree/geant4\l&#45;10.6&#45;release/source\l/digits_hits/scorer/src\l/G4PSFlatSurfaceFlux.cc">
<polygon fill="none" stroke="#000000" points="764,-99.5 764,-155.5 904,-155.5 904,-99.5 764,-99.5"/>
<text text-anchor="start" x="772" y="-142.5" font-family="FreeSans" font-size="10.00" fill="#000000">geant4/tree/geant4</text>
<text text-anchor="start" x="772" y="-130.5" font-family="FreeSans" font-size="10.00" fill="#000000">&#45;10.6&#45;release/source</text>
<text text-anchor="start" x="772" y="-118.5" font-family="FreeSans" font-size="10.00" fill="#000000">/digits_hits/scorer/src</text>
<text text-anchor="middle" x="834" y="-106.5" font-family="FreeSans" font-size="10.00" fill="#000000">/G4PSFlatSurfaceFlux.cc</text>
</a>
</g>
</g>
<!-- Node1&#45;&gt;Node10 -->
<g id="edge9" class="edge">
<title>Node1&#45;&gt;Node10</title>
<path fill="none" stroke="#191970" d="M697.1741,-193.9008C722.7589,-181.4846 751.6658,-167.4563 776.296,-155.5034"/>
<polygon fill="#191970" stroke="#191970" points="695.381,-190.8805 687.9125,-198.3954 698.4372,-197.1782 695.381,-190.8805"/>
</g>
<!-- Node4 -->
<g id="node4" class="node">
<title>Node4</title>
<g id="a_node4"><a xlink:href="../../d3/da1/RE02PSFlatSurfaceFlux_8cc.html" target="_top" xlink:title="Implementation of the RE02PSFlatSurfaceFlux class.">
<polygon fill="none" stroke="#000000" points="0,-.5 0,-56.5 200,-56.5 200,-.5 0,-.5"/>
<text text-anchor="start" x="8" y="-43.5" font-family="FreeSans" font-size="10.00" fill="#000000">geant4/tree/geant4</text>
<text text-anchor="start" x="8" y="-31.5" font-family="FreeSans" font-size="10.00" fill="#000000">&#45;10.6&#45;release/examples</text>
<text text-anchor="start" x="8" y="-19.5" font-family="FreeSans" font-size="10.00" fill="#000000">/extended/runAndEvent</text>
<text text-anchor="middle" x="100" y="-7.5" font-family="FreeSans" font-size="10.00" fill="#000000">/RE02/src/RE02PSFlatSurfaceFlux.cc</text>
</a>
</g>
</g>
<!-- Node3&#45;&gt;Node4 -->
<g id="edge3" class="edge">
<title>Node3&#45;&gt;Node4</title>
<path fill="none" stroke="#191970" d="M336.7424,-92.9925C301.0729,-82.4162 248.0535,-67.9972 200.1495,-55.1415"/>
<polygon fill="#191970" stroke="#191970" points="335.7402,-96.3459 346.3243,-95.8691 337.753,-89.6415 335.7402,-96.3459"/>
</g>
<!-- Node6 -->
<g id="node6" class="node">
<title>Node6</title>
<g id="a_node6"><a xlink:href="../../d4/d13/RE02DetectorConstruction_8cc.html" target="_top" xlink:title="Implementation of the RE02DetectorConstruction class.">
<polygon fill="none" stroke="#000000" points="218.5,-.5 218.5,-56.5 435.5,-56.5 435.5,-.5 218.5,-.5"/>
<text text-anchor="start" x="226.5" y="-43.5" font-family="FreeSans" font-size="10.00" fill="#000000">geant4/tree/geant4</text>
<text text-anchor="start" x="226.5" y="-31.5" font-family="FreeSans" font-size="10.00" fill="#000000">&#45;10.6&#45;release/examples</text>
<text text-anchor="start" x="226.5" y="-19.5" font-family="FreeSans" font-size="10.00" fill="#000000">/extended/runAndEvent</text>
<text text-anchor="middle" x="327" y="-7.5" font-family="FreeSans" font-size="10.00" fill="#000000">/RE02/src/RE02DetectorConstruction.cc</text>
</a>
</g>
</g>
<!-- Node5&#45;&gt;Node6 -->
<g id="edge5" class="edge">
<title>Node5&#45;&gt;Node6</title>
<path fill="none" stroke="#191970" d="M550.3942,-95.956C547.5673,-94.9427 544.7629,-93.9542 542,-93 504.6125,-80.0875 463.0742,-67.2748 426.5538,-56.5127"/>
<polygon fill="#191970" stroke="#191970" points="549.4699,-99.3444 560.0638,-99.4833 551.8688,-92.7682 549.4699,-99.3444"/>
</g>
<!-- Node7 -->
<g id="node7" class="node">
<title>Node7</title>
<g id="a_node7"><a xlink:href="../../db/d7f/G4PSFlatSurfaceFlux3D_8cc.html" target="_top" xlink:title="geant4/tree/geant4\l&#45;10.6&#45;release/source\l/digits_hits/scorer/src\l/G4PSFlatSurfaceFlux3D.cc">
<polygon fill="none" stroke="#000000" points="454,-.5 454,-56.5 608,-56.5 608,-.5 454,-.5"/>
<text text-anchor="start" x="462" y="-43.5" font-family="FreeSans" font-size="10.00" fill="#000000">geant4/tree/geant4</text>
<text text-anchor="start" x="462" y="-31.5" font-family="FreeSans" font-size="10.00" fill="#000000">&#45;10.6&#45;release/source</text>
<text text-anchor="start" x="462" y="-19.5" font-family="FreeSans" font-size="10.00" fill="#000000">/digits_hits/scorer/src</text>
<text text-anchor="middle" x="531" y="-7.5" font-family="FreeSans" font-size="10.00" fill="#000000">/G4PSFlatSurfaceFlux3D.cc</text>
</a>
</g>
</g>
<!-- Node5&#45;&gt;Node7 -->
<g id="edge6" class="edge">
<title>Node5&#45;&gt;Node7</title>
<path fill="none" stroke="#191970" d="M594.7954,-92.2954C583.1091,-80.6091 570.26,-67.76 559.1749,-56.6749"/>
<polygon fill="#191970" stroke="#191970" points="592.3494,-94.7992 601.8954,-99.3954 597.2992,-89.8494 592.3494,-94.7992"/>
</g>
<!-- Node5&#45;&gt;Node8 -->
<g id="edge7" class="edge">
<title>Node5&#45;&gt;Node8</title>
<path fill="none" stroke="#191970" d="M713.0701,-96.0495C716.0788,-95.0057 719.0626,-93.986 722,-93 723.6738,-92.4382 791.8898,-72.1699 851.3902,-54.5036"/>
<polygon fill="#191970" stroke="#191970" points="711.673,-92.8307 703.4026,-99.4527 713.9974,-99.4335 711.673,-92.8307"/>
</g>
<!-- Node9 -->
<g id="node9" class="node">
<title>Node9</title>
<g id="a_node9"><a xlink:href="../../d9/d44/G4ScoreQuantityMessengerQCmd_8cc.html" target="_top" xlink:title="geant4/tree/geant4\l&#45;10.6&#45;release/source\l/digits_hits/utils/src\l/G4ScoreQuantityMessengerQCmd.cc">
<polygon fill="none" stroke="#000000" points="626.5,-.5 626.5,-56.5 833.5,-56.5 833.5,-.5 626.5,-.5"/>
<text text-anchor="start" x="634.5" y="-43.5" font-family="FreeSans" font-size="10.00" fill="#000000">geant4/tree/geant4</text>
<text text-anchor="start" x="634.5" y="-31.5" font-family="FreeSans" font-size="10.00" fill="#000000">&#45;10.6&#45;release/source</text>
<text text-anchor="start" x="634.5" y="-19.5" font-family="FreeSans" font-size="10.00" fill="#000000">/digits_hits/utils/src</text>
<text text-anchor="middle" x="730" y="-7.5" font-family="FreeSans" font-size="10.00" fill="#000000">/G4ScoreQuantityMessengerQCmd.cc</text>
</a>
</g>
</g>
<!-- Node5&#45;&gt;Node9 -->
<g id="edge8" class="edge">
<title>Node5&#45;&gt;Node9</title>
<path fill="none" stroke="#191970" d="M665.5602,-92.2954C677.3646,-80.6091 690.3435,-67.76 701.5405,-56.6749"/>
<polygon fill="#191970" stroke="#191970" points="663.0326,-89.8726 658.3885,-99.3954 667.9575,-94.8472 663.0326,-89.8726"/>
</g>
</g>
</svg>
