<?xml version="1.0" encoding="UTF-8" standalone="no"?>
<!DOCTYPE svg PUBLIC "-//W3C//DTD SVG 1.1//EN"
 "http://www.w3.org/Graphics/SVG/1.1/DTD/svg11.dtd">
<!-- Generated by graphviz version 2.40.1 (20161225.0304)
 -->
<!-- Title: G4EmCaptureCascade::AddNewParticle Pages: 1 -->
<svg width="355pt" height="107pt"
 viewBox="0.00 0.00 355.00 107.00" xmlns="http://www.w3.org/2000/svg" xmlns:xlink="http://www.w3.org/1999/xlink">
<g id="graph0" class="graph" transform="scale(1 1) rotate(0) translate(4 103)">
<title>G4EmCaptureCascade::AddNewParticle</title>
<!-- Node1 -->
<g id="node1" class="node">
<title>Node1</title>
<polygon fill="#bfbfbf" stroke="#000000" points="0,-33.5 0,-65.5 130,-65.5 130,-33.5 0,-33.5"/>
<text text-anchor="start" x="8" y="-52.5" font-family="FreeSans" font-size="10.00" fill="#000000">G4EmCaptureCascade</text>
<text text-anchor="middle" x="65" y="-40.5" font-family="FreeSans" font-size="10.00" fill="#000000">::AddNewParticle</text>
</g>
<!-- Node2 -->
<g id="node2" class="node">
<title>Node2</title>
<g id="a_node2"><a xlink:href="../../dd/d4a/classG4HadFinalState.html#a65877381727fe2836e02093d5e22936d" target="_top" xlink:title="G4HadFinalState::AddSecondary">
<polygon fill="none" stroke="#000000" points="166,-78.5 166,-98.5 347,-98.5 347,-78.5 166,-78.5"/>
<text text-anchor="middle" x="256.5" y="-85.5" font-family="FreeSans" font-size="10.00" fill="#000000">G4HadFinalState::AddSecondary</text>
</a>
</g>
</g>
<!-- Node1&#45;&gt;Node2 -->
<g id="edge1" class="edge">
<title>Node1&#45;&gt;Node2</title>
<path fill="none" stroke="#191970" d="M130.1004,-62.758C151.9105,-67.1998 176.0924,-72.1246 197.4163,-76.4673"/>
<polygon fill="#191970" stroke="#191970" points="196.8144,-79.9165 207.3118,-78.4826 198.2114,-73.0573 196.8144,-79.9165"/>
</g>
<!-- Node3 -->
<g id="node3" class="node">
<title>Node3</title>
<g id="a_node3"><a xlink:href="../../db/d84/G4RandomDirection_8hh.html#a4443665124c96cff96548814539083ea" target="_top" xlink:title="G4RandomDirection">
<polygon fill="none" stroke="#000000" points="197.5,-39.5 197.5,-59.5 315.5,-59.5 315.5,-39.5 197.5,-39.5"/>
<text text-anchor="middle" x="256.5" y="-46.5" font-family="FreeSans" font-size="10.00" fill="#000000">G4RandomDirection</text>
</a>
</g>
</g>
<!-- Node1&#45;&gt;Node3 -->
<g id="edge2" class="edge">
<title>Node1&#45;&gt;Node3</title>
<path fill="none" stroke="#191970" d="M130.1004,-49.5C148.4894,-49.5 168.5646,-49.5 187.1912,-49.5"/>
<polygon fill="#191970" stroke="#191970" points="187.3704,-53.0001 197.3703,-49.5 187.3703,-46.0001 187.3704,-53.0001"/>
</g>
<!-- Node4 -->
<g id="node4" class="node">
<title>Node4</title>
<g id="a_node4"><a xlink:href="../../db/d85/classG4HadSecondary.html#a7238e281f2b7531e2a6d1e2b24acdf09" target="_top" xlink:title="G4HadSecondary::SetTime">
<polygon fill="none" stroke="#000000" points="180.5,-.5 180.5,-20.5 332.5,-20.5 332.5,-.5 180.5,-.5"/>
<text text-anchor="middle" x="256.5" y="-7.5" font-family="FreeSans" font-size="10.00" fill="#000000">G4HadSecondary::SetTime</text>
</a>
</g>
</g>
<!-- Node1&#45;&gt;Node4 -->
<g id="edge3" class="edge">
<title>Node1&#45;&gt;Node4</title>
<path fill="none" stroke="#191970" d="M130.1004,-36.242C151.9105,-31.8002 176.0924,-26.8754 197.4163,-22.5327"/>
<polygon fill="#191970" stroke="#191970" points="198.2114,-25.9427 207.3118,-20.5174 196.8144,-19.0835 198.2114,-25.9427"/>
</g>
</g>
</svg>
