<?xml version="1.0" encoding="UTF-8" standalone="no"?>
<!DOCTYPE svg PUBLIC "-//W3C//DTD SVG 1.1//EN"
 "http://www.w3.org/Graphics/SVG/1.1/DTD/svg11.dtd">
<!-- Generated by graphviz version 2.40.1 (20161225.0304)
 -->
<!-- Title: Input::ApplyEICIP8BeamParameter Pages: 1 -->
<svg width="602pt" height="294pt"
 viewBox="0.00 0.00 602.00 293.95" xmlns="http://www.w3.org/2000/svg" xmlns:xlink="http://www.w3.org/1999/xlink">
<g id="graph0" class="graph" transform="scale(1 1) rotate(0) translate(4 289.9516)">
<title>Input::ApplyEICIP8BeamParameter</title>
<!-- Node1 -->
<g id="node1" class="node">
<title>Node1</title>
<polygon fill="#bfbfbf" stroke="#000000" points="0,-145.5 0,-165.5 192,-165.5 192,-145.5 0,-145.5"/>
<text text-anchor="middle" x="96" y="-152.5" font-family="FreeSans" font-size="10.00" fill="#000000">Input::ApplyEICIP8BeamParameter</text>
</g>
<!-- Node2 -->
<g id="node2" class="node">
<title>Node2</title>
<g id="a_node2"><a xlink:href="../../d0/d12/namespaceg4zmq.html#ac0a320baaea2957915124839b1e2be53" target="_top" xlink:title="g4zmq.exit">
<polygon fill="none" stroke="#000000" points="445,-63.5 445,-83.5 518,-83.5 518,-63.5 445,-63.5"/>
<text text-anchor="middle" x="481.5" y="-70.5" font-family="FreeSans" font-size="10.00" fill="#000000">g4zmq.exit</text>
</a>
</g>
</g>
<!-- Node1&#45;&gt;Node2 -->
<g id="edge1" class="edge">
<title>Node1&#45;&gt;Node2</title>
<path fill="none" stroke="#191970" d="M104.5826,-165.7466C123.879,-187.882 173.3008,-239.6842 228,-258.5 304.0697,-284.6669 342.5451,-303.8327 409,-258.5 437.504,-239.0558 465.7313,-137.0323 476.7087,-93.3633"/>
<polygon fill="#191970" stroke="#191970" points="480.1192,-94.1514 479.1176,-83.604 473.3231,-92.4739 480.1192,-94.1514"/>
</g>
<!-- Node4 -->
<g id="node4" class="node">
<title>Node4</title>
<g id="a_node4"><a xlink:href="../../dd/d2a/classPHHepMCGenHelper.html#a1d4bc5e383b9e22df08a98a5b2f00c6a" target="_top" xlink:title="PHHepMCGenHelper::set\l_beam_angular_divergence_hv">
<polygon fill="none" stroke="#000000" points="231.5,-216.5 231.5,-248.5 405.5,-248.5 405.5,-216.5 231.5,-216.5"/>
<text text-anchor="start" x="239.5" y="-235.5" font-family="FreeSans" font-size="10.00" fill="#000000">PHHepMCGenHelper::set</text>
<text text-anchor="middle" x="318.5" y="-223.5" font-family="FreeSans" font-size="10.00" fill="#000000">_beam_angular_divergence_hv</text>
</a>
</g>
</g>
<!-- Node1&#45;&gt;Node4 -->
<g id="edge3" class="edge">
<title>Node1&#45;&gt;Node4</title>
<path fill="none" stroke="#191970" d="M119.5677,-165.6594C145.7601,-176.7437 189.4531,-194.6234 228,-207.5 234.2325,-209.582 240.7463,-211.6282 247.2981,-213.5982"/>
<polygon fill="#191970" stroke="#191970" points="246.3149,-216.9572 256.8964,-216.4254 248.2928,-210.2425 246.3149,-216.9572"/>
</g>
<!-- Node5 -->
<g id="node5" class="node">
<title>Node5</title>
<g id="a_node5"><a xlink:href="../../dd/d2a/classPHHepMCGenHelper.html#a5db065e12d85a2f467d62d19a8cdd8ec" target="_top" xlink:title="PHHepMCGenHelper::set\l_beam_angular_z_coefficient_hv">
<polygon fill="none" stroke="#000000" points="228,-165.5 228,-197.5 409,-197.5 409,-165.5 228,-165.5"/>
<text text-anchor="start" x="236" y="-184.5" font-family="FreeSans" font-size="10.00" fill="#000000">PHHepMCGenHelper::set</text>
<text text-anchor="middle" x="318.5" y="-172.5" font-family="FreeSans" font-size="10.00" fill="#000000">_beam_angular_z_coefficient_hv</text>
</a>
</g>
</g>
<!-- Node1&#45;&gt;Node5 -->
<g id="edge4" class="edge">
<title>Node1&#45;&gt;Node5</title>
<path fill="none" stroke="#191970" d="M181.706,-165.5151C193.4699,-166.8897 205.6365,-168.3115 217.6404,-169.7142"/>
<polygon fill="#191970" stroke="#191970" points="217.3342,-173.2021 227.6729,-170.8865 218.1468,-166.2494 217.3342,-173.2021"/>
</g>
<!-- Node6 -->
<g id="node6" class="node">
<title>Node6</title>
<g id="a_node6"><a xlink:href="../../dd/d2a/classPHHepMCGenHelper.html#af11152924161c3851c708c943cc956ac" target="_top" xlink:title="PHHepMCGenHelper::set\l_beam_direction_theta_phi">
<polygon fill="none" stroke="#000000" points="242,-114.5 242,-146.5 395,-146.5 395,-114.5 242,-114.5"/>
<text text-anchor="start" x="250" y="-133.5" font-family="FreeSans" font-size="10.00" fill="#000000">PHHepMCGenHelper::set</text>
<text text-anchor="middle" x="318.5" y="-121.5" font-family="FreeSans" font-size="10.00" fill="#000000">_beam_direction_theta_phi</text>
</a>
</g>
</g>
<!-- Node1&#45;&gt;Node6 -->
<g id="edge5" class="edge">
<title>Node1&#45;&gt;Node6</title>
<path fill="none" stroke="#191970" d="M185.2172,-145.4756C200.5896,-143.7484 216.5466,-141.9554 231.8498,-140.236"/>
<polygon fill="#191970" stroke="#191970" points="232.2525,-143.7128 241.7991,-139.1181 231.4709,-136.7566 232.2525,-143.7128"/>
</g>
<!-- Node7 -->
<g id="node7" class="node">
<title>Node7</title>
<g id="a_node7"><a xlink:href="../../dd/d2a/classPHHepMCGenHelper.html#a1efa535f8b08a7a72e5b66121c7da777" target="_top" xlink:title="toss a new vertex according to a Uniform or Gaus distribution">
<polygon fill="none" stroke="#000000" points="247.5,-51.5 247.5,-95.5 389.5,-95.5 389.5,-51.5 247.5,-51.5"/>
<text text-anchor="start" x="255.5" y="-82.5" font-family="FreeSans" font-size="10.00" fill="#000000">PHHepMCGenHelper::set</text>
<text text-anchor="start" x="255.5" y="-70.5" font-family="FreeSans" font-size="10.00" fill="#000000">_vertex_distribution</text>
<text text-anchor="middle" x="318.5" y="-58.5" font-family="FreeSans" font-size="10.00" fill="#000000">_function</text>
</a>
</g>
</g>
<!-- Node1&#45;&gt;Node7 -->
<g id="edge6" class="edge">
<title>Node1&#45;&gt;Node7</title>
<path fill="none" stroke="#191970" d="M122.2327,-145.3669C148.8235,-135.1418 191.1813,-118.9807 228,-105.5 233.8538,-103.3567 239.929,-101.1566 246.0362,-98.9619"/>
<polygon fill="#191970" stroke="#191970" points="247.3968,-102.1924 255.632,-95.5267 245.0374,-95.602 247.3968,-102.1924"/>
</g>
<!-- Node8 -->
<g id="node8" class="node">
<title>Node8</title>
<g id="a_node8"><a xlink:href="../../dd/d2a/classPHHepMCGenHelper.html#a4a9dfd6131b1e3bfb1428875a88a98ea" target="_top" xlink:title="set the width of the vertex distribution function about the mean, use PHENIX units of cm...">
<polygon fill="none" stroke="#000000" points="243.5,-.5 243.5,-32.5 393.5,-32.5 393.5,-.5 243.5,-.5"/>
<text text-anchor="start" x="251.5" y="-19.5" font-family="FreeSans" font-size="10.00" fill="#000000">PHHepMCGenHelper::set</text>
<text text-anchor="middle" x="318.5" y="-7.5" font-family="FreeSans" font-size="10.00" fill="#000000">_vertex_distribution_width</text>
</a>
</g>
</g>
<!-- Node1&#45;&gt;Node8 -->
<g id="edge8" class="edge">
<title>Node1&#45;&gt;Node8</title>
<path fill="none" stroke="#191970" d="M104.8564,-145.421C124.6988,-123.4545 175.1417,-70.958 228,-42.5 232.1877,-40.2454 236.5924,-38.1675 241.1108,-36.2551"/>
<polygon fill="#191970" stroke="#191970" points="242.486,-39.4753 250.5118,-32.5589 239.9245,-32.9608 242.486,-39.4753"/>
</g>
<!-- Node3 -->
<g id="node3" class="node">
<title>Node3</title>
<g id="a_node3"><a xlink:href="../../d8/d03/G4ecpssrBaseKxsModel_8cc.html#afca89815e8ce05521ca0a7ec9bd17385" target="_top" xlink:title="print">
<polygon fill="none" stroke="#000000" points="554,-63.5 554,-83.5 594,-83.5 594,-63.5 554,-63.5"/>
<text text-anchor="middle" x="574" y="-70.5" font-family="FreeSans" font-size="10.00" fill="#000000">print</text>
</a>
</g>
</g>
<!-- Node2&#45;&gt;Node3 -->
<g id="edge2" class="edge">
<title>Node2&#45;&gt;Node3</title>
<path fill="none" stroke="#191970" d="M518.0584,-73.5C526.5556,-73.5 535.5098,-73.5 543.7028,-73.5"/>
<polygon fill="#191970" stroke="#191970" points="543.9325,-77.0001 553.9324,-73.5 543.9324,-70.0001 543.9325,-77.0001"/>
</g>
<!-- Node7&#45;&gt;Node2 -->
<g id="edge7" class="edge">
<title>Node7&#45;&gt;Node2</title>
<path fill="none" stroke="#191970" d="M389.52,-73.5C404.697,-73.5 420.3671,-73.5 434.3775,-73.5"/>
<polygon fill="#191970" stroke="#191970" points="434.7323,-77.0001 444.7323,-73.5 434.7322,-70.0001 434.7323,-77.0001"/>
</g>
<!-- Node8&#45;&gt;Node2 -->
<g id="edge9" class="edge">
<title>Node8&#45;&gt;Node2</title>
<path fill="none" stroke="#191970" d="M378.2262,-32.518C388.5587,-35.6132 399.1433,-38.9921 409,-42.5 422.8741,-47.4376 437.8905,-53.6997 450.6391,-59.3012"/>
<polygon fill="#191970" stroke="#191970" points="449.3307,-62.5498 459.8895,-63.423 452.1798,-56.1559 449.3307,-62.5498"/>
</g>
</g>
</svg>
