<?xml version="1.0" encoding="UTF-8" standalone="no"?>
<!DOCTYPE svg PUBLIC "-//W3C//DTD SVG 1.1//EN"
 "http://www.w3.org/Graphics/SVG/1.1/DTD/svg11.dtd">
<!-- Generated by graphviz version 2.40.1 (20161225.0304)
 -->
<!-- Title: G4RDFluoData::StartShellId Pages: 1 -->
<svg width="280pt" height="68pt"
 viewBox="0.00 0.00 280.00 68.00" xmlns="http://www.w3.org/2000/svg" xmlns:xlink="http://www.w3.org/1999/xlink">
<g id="graph0" class="graph" transform="scale(1 1) rotate(0) translate(4 64)">
<title>G4RDFluoData::StartShellId</title>
<!-- Node1 -->
<g id="node1" class="node">
<title>Node1</title>
<polygon fill="#bfbfbf" stroke="#000000" points="0,-19.5 0,-39.5 156,-39.5 156,-19.5 0,-19.5"/>
<text text-anchor="middle" x="78" y="-26.5" font-family="FreeSans" font-size="10.00" fill="#000000">G4RDFluoData::StartShellId</text>
</g>
<!-- Node2 -->
<g id="node2" class="node">
<title>Node2</title>
<g id="a_node2"><a xlink:href="../../d5/d4f/G4Exception_8hh.html#ad36b5da5d062a20ca47b1c1f1ae353dd" target="_top" xlink:title="G4Exception">
<polygon fill="none" stroke="#000000" points="192,-39.5 192,-59.5 272,-59.5 272,-39.5 192,-39.5"/>
<text text-anchor="middle" x="232" y="-46.5" font-family="FreeSans" font-size="10.00" fill="#000000">G4Exception</text>
</a>
</g>
</g>
<!-- Node1&#45;&gt;Node2 -->
<g id="edge1" class="edge">
<title>Node1&#45;&gt;Node2</title>
<path fill="none" stroke="#191970" d="M155.4512,-39.5586C164.3971,-40.7204 173.3349,-41.8812 181.7815,-42.9781"/>
<polygon fill="#191970" stroke="#191970" points="181.441,-46.4632 191.8085,-44.2803 182.3426,-39.5215 181.441,-46.4632"/>
</g>
<!-- Node3 -->
<g id="node3" class="node">
<title>Node3</title>
<g id="a_node3"><a xlink:href="../../dc/de5/PHG4mRICHDetector_8cc.html#a11ded6fc3d3fab0e72612c3886df87a0" target="_top" xlink:title="pos">
<polygon fill="none" stroke="#000000" points="215,-.5 215,-20.5 249,-20.5 249,-.5 215,-.5"/>
<text text-anchor="middle" x="232" y="-7.5" font-family="FreeSans" font-size="10.00" fill="#000000">pos</text>
</a>
</g>
</g>
<!-- Node1&#45;&gt;Node3 -->
<g id="edge2" class="edge">
<title>Node1&#45;&gt;Node3</title>
<path fill="none" stroke="#191970" d="M156.3535,-19.833C173.7081,-17.6919 190.971,-15.562 204.6144,-13.8787"/>
<polygon fill="#191970" stroke="#191970" points="205.2166,-17.3311 214.7128,-12.6328 204.3594,-10.3837 205.2166,-17.3311"/>
</g>
</g>
</svg>
