<?xml version="1.0" encoding="UTF-8" standalone="no"?>
<!DOCTYPE svg PUBLIC "-//W3C//DTD SVG 1.1//EN"
 "http://www.w3.org/Graphics/SVG/1.1/DTD/svg11.dtd">
<!-- Generated by graphviz version 2.40.1 (20161225.0304)
 -->
<!-- Title: G4P2ToolsManager::AddP2Vector Pages: 1 -->
<svg width="548pt" height="194pt"
 viewBox="0.00 0.00 548.00 194.00" xmlns="http://www.w3.org/2000/svg" xmlns:xlink="http://www.w3.org/1999/xlink">
<g id="graph0" class="graph" transform="scale(1 1) rotate(0) translate(4 190)">
<title>G4P2ToolsManager::AddP2Vector</title>
<!-- Node1 -->
<g id="node1" class="node">
<title>Node1</title>
<polygon fill="#bfbfbf" stroke="#000000" points="0,-82.5 0,-102.5 184,-102.5 184,-82.5 0,-82.5"/>
<text text-anchor="middle" x="92" y="-89.5" font-family="FreeSans" font-size="10.00" fill="#000000">G4P2ToolsManager::AddP2Vector</text>
</g>
<!-- Node2 -->
<g id="node2" class="node">
<title>Node2</title>
<g id="a_node2"><a xlink:href="../../de/dc0/classG4XmlAnalysisManager.html#a1a555cd294c0f44574ff46738ad77c14" target="_top" xlink:title="G4XmlAnalysisManager\l::WriteP2">
<polygon fill="none" stroke="#000000" points="222.5,-153.5 222.5,-185.5 359.5,-185.5 359.5,-153.5 222.5,-153.5"/>
<text text-anchor="start" x="230.5" y="-172.5" font-family="FreeSans" font-size="10.00" fill="#000000">G4XmlAnalysisManager</text>
<text text-anchor="middle" x="291" y="-160.5" font-family="FreeSans" font-size="10.00" fill="#000000">::WriteP2</text>
</a>
</g>
</g>
<!-- Node1&#45;&gt;Node2 -->
<g id="edge1" class="edge">
<title>Node1&#45;&gt;Node2</title>
<path fill="none" stroke="#191970" d="M125.2297,-106.5031C150.9676,-117.2266 187.5813,-132.2153 220,-144.5 227.821,-147.4637 236.1689,-150.508 244.2916,-153.4074"/>
<polygon fill="#191970" stroke="#191970" points="126.5056,-103.243 115.9293,-102.6166 123.8065,-109.7018 126.5056,-103.243"/>
</g>
<!-- Node4 -->
<g id="node4" class="node">
<title>Node4</title>
<g id="a_node4"><a xlink:href="../../db/d34/classG4CsvAnalysisManager.html#acdeec6e14e55d6f776de5e09ba21c434" target="_top" xlink:title="G4CsvAnalysisManager\l::WriteP2">
<polygon fill="none" stroke="#000000" points="223,-102.5 223,-134.5 359,-134.5 359,-102.5 223,-102.5"/>
<text text-anchor="start" x="231" y="-121.5" font-family="FreeSans" font-size="10.00" fill="#000000">G4CsvAnalysisManager</text>
<text text-anchor="middle" x="291" y="-109.5" font-family="FreeSans" font-size="10.00" fill="#000000">::WriteP2</text>
</a>
</g>
</g>
<!-- Node1&#45;&gt;Node4 -->
<g id="edge3" class="edge">
<title>Node1&#45;&gt;Node4</title>
<path fill="none" stroke="#191970" d="M178.7859,-103.8389C193.5319,-105.7655 208.6566,-107.7416 222.8358,-109.5941"/>
<polygon fill="#191970" stroke="#191970" points="179.0231,-100.3402 168.6539,-102.5151 178.1162,-107.2812 179.0231,-100.3402"/>
</g>
<!-- Node6 -->
<g id="node6" class="node">
<title>Node6</title>
<g id="a_node6"><a xlink:href="../../dc/d6a/classG4Hdf5AnalysisManager.html#ab019fcde7c098987059839f4478cb510" target="_top" xlink:title="G4Hdf5AnalysisManager\l::WriteP2">
<polygon fill="none" stroke="#000000" points="220,-51.5 220,-83.5 362,-83.5 362,-51.5 220,-51.5"/>
<text text-anchor="start" x="228" y="-70.5" font-family="FreeSans" font-size="10.00" fill="#000000">G4Hdf5AnalysisManager</text>
<text text-anchor="middle" x="291" y="-58.5" font-family="FreeSans" font-size="10.00" fill="#000000">::WriteP2</text>
</a>
</g>
</g>
<!-- Node1&#45;&gt;Node6 -->
<g id="edge5" class="edge">
<title>Node1&#45;&gt;Node6</title>
<path fill="none" stroke="#191970" d="M181.9303,-81.2022C194.6453,-79.6049 207.5706,-77.9811 219.8655,-76.4365"/>
<polygon fill="#191970" stroke="#191970" points="181.28,-77.7563 171.7943,-82.4756 182.1526,-84.7017 181.28,-77.7563"/>
</g>
<!-- Node8 -->
<g id="node8" class="node">
<title>Node8</title>
<g id="a_node8"><a xlink:href="../../d9/d51/classG4RootAnalysisManager.html#ad61aaf41ff8416b1904a9148552af93f" target="_top" xlink:title="G4RootAnalysisManager\l::WriteP2">
<polygon fill="none" stroke="#000000" points="221,-.5 221,-32.5 361,-32.5 361,-.5 221,-.5"/>
<text text-anchor="start" x="229" y="-19.5" font-family="FreeSans" font-size="10.00" fill="#000000">G4RootAnalysisManager</text>
<text text-anchor="middle" x="291" y="-7.5" font-family="FreeSans" font-size="10.00" fill="#000000">::WriteP2</text>
</a>
</g>
</g>
<!-- Node1&#45;&gt;Node8 -->
<g id="edge7" class="edge">
<title>Node1&#45;&gt;Node8</title>
<path fill="none" stroke="#191970" d="M126.7598,-78.6905C152.4606,-68.5364 188.3424,-54.478 220,-42.5 228.5942,-39.2483 237.797,-35.8309 246.633,-32.5815"/>
<polygon fill="#191970" stroke="#191970" points="125.4493,-75.4449 117.4383,-82.3785 128.0246,-81.954 125.4493,-75.4449"/>
</g>
<!-- Node3 -->
<g id="node3" class="node">
<title>Node3</title>
<g id="a_node3"><a xlink:href="../../de/dc0/classG4XmlAnalysisManager.html#a7e8a3ecfa155ec821b25d6701f1f5df5" target="_top" xlink:title="G4XmlAnalysisManager\l::WriteImpl">
<polygon fill="none" stroke="#000000" points="400.5,-153.5 400.5,-185.5 537.5,-185.5 537.5,-153.5 400.5,-153.5"/>
<text text-anchor="start" x="408.5" y="-172.5" font-family="FreeSans" font-size="10.00" fill="#000000">G4XmlAnalysisManager</text>
<text text-anchor="middle" x="469" y="-160.5" font-family="FreeSans" font-size="10.00" fill="#000000">::WriteImpl</text>
</a>
</g>
</g>
<!-- Node2&#45;&gt;Node3 -->
<g id="edge2" class="edge">
<title>Node2&#45;&gt;Node3</title>
<path fill="none" stroke="#191970" d="M369.7301,-169.5C379.9772,-169.5 390.4084,-169.5 400.4705,-169.5"/>
<polygon fill="#191970" stroke="#191970" points="369.5649,-166.0001 359.5648,-169.5 369.5648,-173.0001 369.5649,-166.0001"/>
</g>
<!-- Node5 -->
<g id="node5" class="node">
<title>Node5</title>
<g id="a_node5"><a xlink:href="../../db/d34/classG4CsvAnalysisManager.html#aaf4c88fed5dce6314d1d57185e0c6209" target="_top" xlink:title="G4CsvAnalysisManager\l::WriteImpl">
<polygon fill="none" stroke="#000000" points="401,-102.5 401,-134.5 537,-134.5 537,-102.5 401,-102.5"/>
<text text-anchor="start" x="409" y="-121.5" font-family="FreeSans" font-size="10.00" fill="#000000">G4CsvAnalysisManager</text>
<text text-anchor="middle" x="469" y="-109.5" font-family="FreeSans" font-size="10.00" fill="#000000">::WriteImpl</text>
</a>
</g>
</g>
<!-- Node4&#45;&gt;Node5 -->
<g id="edge4" class="edge">
<title>Node4&#45;&gt;Node5</title>
<path fill="none" stroke="#191970" d="M369.1434,-118.5C379.7523,-118.5 390.5701,-118.5 400.9817,-118.5"/>
<polygon fill="#191970" stroke="#191970" points="369.0561,-115.0001 359.0561,-118.5 369.056,-122.0001 369.0561,-115.0001"/>
</g>
<!-- Node7 -->
<g id="node7" class="node">
<title>Node7</title>
<g id="a_node7"><a xlink:href="../../dc/d6a/classG4Hdf5AnalysisManager.html#a876053375b4504565a53d6a452768eb7" target="_top" xlink:title="G4Hdf5AnalysisManager\l::WriteImpl">
<polygon fill="none" stroke="#000000" points="398,-51.5 398,-83.5 540,-83.5 540,-51.5 398,-51.5"/>
<text text-anchor="start" x="406" y="-70.5" font-family="FreeSans" font-size="10.00" fill="#000000">G4Hdf5AnalysisManager</text>
<text text-anchor="middle" x="469" y="-58.5" font-family="FreeSans" font-size="10.00" fill="#000000">::WriteImpl</text>
</a>
</g>
</g>
<!-- Node6&#45;&gt;Node7 -->
<g id="edge6" class="edge">
<title>Node6&#45;&gt;Node7</title>
<path fill="none" stroke="#191970" d="M372.1702,-67.5C380.7888,-67.5 389.506,-67.5 397.9953,-67.5"/>
<polygon fill="#191970" stroke="#191970" points="372.1177,-64.0001 362.1177,-67.5 372.1177,-71.0001 372.1177,-64.0001"/>
</g>
<!-- Node9 -->
<g id="node9" class="node">
<title>Node9</title>
<g id="a_node9"><a xlink:href="../../d9/d51/classG4RootAnalysisManager.html#ac4b65ce31f2208c2e30e93c7034ced53" target="_top" xlink:title="G4RootAnalysisManager\l::WriteImpl">
<polygon fill="none" stroke="#000000" points="399,-.5 399,-32.5 539,-32.5 539,-.5 399,-.5"/>
<text text-anchor="start" x="407" y="-19.5" font-family="FreeSans" font-size="10.00" fill="#000000">G4RootAnalysisManager</text>
<text text-anchor="middle" x="469" y="-7.5" font-family="FreeSans" font-size="10.00" fill="#000000">::WriteImpl</text>
</a>
</g>
</g>
<!-- Node8&#45;&gt;Node9 -->
<g id="edge8" class="edge">
<title>Node8&#45;&gt;Node9</title>
<path fill="none" stroke="#191970" d="M371.1083,-16.5C380.4015,-16.5 389.8253,-16.5 398.9691,-16.5"/>
<polygon fill="#191970" stroke="#191970" points="371.0948,-13.0001 361.0948,-16.5 371.0948,-20.0001 371.0948,-13.0001"/>
</g>
</g>
</svg>
