<?xml version="1.0" encoding="UTF-8" standalone="no"?>
<!DOCTYPE svg PUBLIC "-//W3C//DTD SVG 1.1//EN"
 "http://www.w3.org/Graphics/SVG/1.1/DTD/svg11.dtd">
<!-- Generated by graphviz version 2.40.1 (20161225.0304)
 -->
<!-- Title: PyG4ExceptionHandler::PyG4ExceptionHandler Pages: 1 -->
<svg width="708pt" height="41pt"
 viewBox="0.00 0.00 708.00 41.00" xmlns="http://www.w3.org/2000/svg" xmlns:xlink="http://www.w3.org/1999/xlink">
<g id="graph0" class="graph" transform="scale(1 1) rotate(0) translate(4 37)">
<title>PyG4ExceptionHandler::PyG4ExceptionHandler</title>
<!-- Node1 -->
<g id="node1" class="node">
<title>Node1</title>
<polygon fill="#bfbfbf" stroke="#000000" points="0,-.5 0,-32.5 140,-32.5 140,-.5 0,-.5"/>
<text text-anchor="start" x="8" y="-19.5" font-family="FreeSans" font-size="10.00" fill="#000000">PyG4ExceptionHandler</text>
<text text-anchor="middle" x="70" y="-7.5" font-family="FreeSans" font-size="10.00" fill="#000000">::PyG4ExceptionHandler</text>
</g>
<!-- Node2 -->
<g id="node2" class="node">
<title>Node2</title>
<g id="a_node2"><a xlink:href="../../de/dd6/classG4StateManager.html#a9e2e3ebb3df0c07330d50cb22c7ad98c" target="_top" xlink:title="G4StateManager::GetState\lManager">
<polygon fill="none" stroke="#000000" points="176,-.5 176,-32.5 328,-32.5 328,-.5 176,-.5"/>
<text text-anchor="start" x="184" y="-19.5" font-family="FreeSans" font-size="10.00" fill="#000000">G4StateManager::GetState</text>
<text text-anchor="middle" x="252" y="-7.5" font-family="FreeSans" font-size="10.00" fill="#000000">Manager</text>
</a>
</g>
</g>
<!-- Node1&#45;&gt;Node2 -->
<g id="edge1" class="edge">
<title>Node1&#45;&gt;Node2</title>
<path fill="none" stroke="#191970" d="M140.1056,-16.5C148.5265,-16.5 157.1997,-16.5 165.8153,-16.5"/>
<polygon fill="#191970" stroke="#191970" points="165.8841,-20.0001 175.884,-16.5 165.884,-13.0001 165.8841,-20.0001"/>
</g>
<!-- Node3 -->
<g id="node3" class="node">
<title>Node3</title>
<g id="a_node3"><a xlink:href="../../de/dd6/classG4StateManager.html#a68a238e60d06ac64a264239fb3d8ae24" target="_top" xlink:title="G4StateManager::G4StateManager">
<polygon fill="none" stroke="#000000" points="364,-6.5 364,-26.5 558,-26.5 558,-6.5 364,-6.5"/>
<text text-anchor="middle" x="461" y="-13.5" font-family="FreeSans" font-size="10.00" fill="#000000">G4StateManager::G4StateManager</text>
</a>
</g>
</g>
<!-- Node2&#45;&gt;Node3 -->
<g id="edge2" class="edge">
<title>Node2&#45;&gt;Node3</title>
<path fill="none" stroke="#191970" d="M328.045,-16.5C336.4339,-16.5 345.0877,-16.5 353.7666,-16.5"/>
<polygon fill="#191970" stroke="#191970" points="353.9521,-20.0001 363.9521,-16.5 353.952,-13.0001 353.9521,-20.0001"/>
</g>
<!-- Node4 -->
<g id="node4" class="node">
<title>Node4</title>
<g id="a_node4"><a xlink:href="../../df/de9/G4ios_8hh.html#af64ccf1dd18073363753e820abe5b75d" target="_top" xlink:title="G4iosInitialization">
<polygon fill="none" stroke="#000000" points="594,-6.5 594,-26.5 700,-26.5 700,-6.5 594,-6.5"/>
<text text-anchor="middle" x="647" y="-13.5" font-family="FreeSans" font-size="10.00" fill="#000000">G4iosInitialization</text>
</a>
</g>
</g>
<!-- Node3&#45;&gt;Node4 -->
<g id="edge3" class="edge">
<title>Node3&#45;&gt;Node4</title>
<path fill="none" stroke="#191970" d="M558.0857,-16.5C566.7565,-16.5 575.3798,-16.5 583.6534,-16.5"/>
<polygon fill="#191970" stroke="#191970" points="583.9236,-20.0001 593.9235,-16.5 583.9235,-13.0001 583.9236,-20.0001"/>
</g>
</g>
</svg>
