<?xml version="1.0" encoding="UTF-8" standalone="no"?>
<!DOCTYPE svg PUBLIC "-//W3C//DTD SVG 1.1//EN"
 "http://www.w3.org/Graphics/SVG/1.1/DTD/svg11.dtd">
<!-- Generated by graphviz version 2.40.1 (20161225.0304)
 -->
<!-- Title: geant4/tree/geant4&#45;10.6&#45;release/source/processes/electromagnetic/standard/include/G4GoudsmitSaundersonTable.hh Pages: 1 -->
<svg width="256pt" height="248pt"
 viewBox="0.00 0.00 256.00 248.00" xmlns="http://www.w3.org/2000/svg" xmlns:xlink="http://www.w3.org/1999/xlink">
<g id="graph0" class="graph" transform="scale(1 1) rotate(0) translate(4 244)">
<title>geant4/tree/geant4&#45;10.6&#45;release/source/processes/electromagnetic/standard/include/G4GoudsmitSaundersonTable.hh</title>
<!-- Node1 -->
<g id="node1" class="node">
<title>Node1</title>
<polygon fill="#bfbfbf" stroke="#000000" points="0,-171.5 0,-239.5 232,-239.5 232,-171.5 0,-171.5"/>
<text text-anchor="start" x="8" y="-226.5" font-family="FreeSans" font-size="10.00" fill="#000000">geant4/tree/geant4</text>
<text text-anchor="start" x="8" y="-214.5" font-family="FreeSans" font-size="10.00" fill="#000000">&#45;10.6&#45;release/source</text>
<text text-anchor="start" x="8" y="-202.5" font-family="FreeSans" font-size="10.00" fill="#000000">/processes/electromagnetic</text>
<text text-anchor="start" x="8" y="-190.5" font-family="FreeSans" font-size="10.00" fill="#000000">/standard/include/G4GoudsmitSaunderson</text>
<text text-anchor="middle" x="116" y="-178.5" font-family="FreeSans" font-size="10.00" fill="#000000">Table.hh</text>
</g>
<!-- Node2 -->
<g id="node2" class="node">
<title>Node2</title>
<polygon fill="none" stroke="#bfbfbf" points="51.5,-114.5 51.5,-134.5 100.5,-134.5 100.5,-114.5 51.5,-114.5"/>
<text text-anchor="middle" x="76" y="-121.5" font-family="FreeSans" font-size="10.00" fill="#000000">vector</text>
</g>
<!-- Node1&#45;&gt;Node2 -->
<g id="edge1" class="edge">
<title>Node1&#45;&gt;Node2</title>
<path fill="none" stroke="#191970" d="M99.0364,-171.1487C94.4345,-161.8298 89.6129,-152.0662 85.5772,-143.8938"/>
<polygon fill="#191970" stroke="#191970" points="88.6778,-142.2678 81.1117,-134.8513 82.4014,-145.3673 88.6778,-142.2678"/>
</g>
<!-- Node3 -->
<g id="node3" class="node">
<title>Node3</title>
<g id="a_node3"><a xlink:href="../../de/d29/G4Types_8hh.html" target="_top" xlink:title="G4Types.hh">
<polygon fill="none" stroke="#000000" points="118.5,-114.5 118.5,-134.5 193.5,-134.5 193.5,-114.5 118.5,-114.5"/>
<text text-anchor="middle" x="156" y="-121.5" font-family="FreeSans" font-size="10.00" fill="#000000">G4Types.hh</text>
</a>
</g>
</g>
<!-- Node1&#45;&gt;Node3 -->
<g id="edge2" class="edge">
<title>Node1&#45;&gt;Node3</title>
<path fill="none" stroke="#191970" d="M132.9636,-171.1487C137.5655,-161.8298 142.3871,-152.0662 146.4228,-143.8938"/>
<polygon fill="#191970" stroke="#191970" points="149.5986,-145.3673 150.8883,-134.8513 143.3222,-142.2678 149.5986,-145.3673"/>
</g>
<!-- Node4 -->
<g id="node4" class="node">
<title>Node4</title>
<polygon fill="none" stroke="#bfbfbf" points="106.5,-.5 106.5,-20.5 217.5,-20.5 217.5,-.5 106.5,-.5"/>
<text text-anchor="middle" x="162" y="-7.5" font-family="FreeSans" font-size="10.00" fill="#000000">G4GlobalConfig.hh</text>
</g>
<!-- Node3&#45;&gt;Node4 -->
<g id="edge3" class="edge">
<title>Node3&#45;&gt;Node4</title>
<path fill="none" stroke="#191970" d="M143.3383,-114.4369C128.875,-101.6318 108.2682,-78.579 117,-57 121.6459,-45.5186 130.6363,-35.3021 139.3676,-27.3904"/>
<polygon fill="#191970" stroke="#191970" points="141.7921,-29.9242 147.1812,-20.8023 137.2799,-24.5726 141.7921,-29.9242"/>
</g>
<!-- Node5 -->
<g id="node5" class="node">
<title>Node5</title>
<polygon fill="none" stroke="#bfbfbf" points="126.5,-57.5 126.5,-77.5 185.5,-77.5 185.5,-57.5 126.5,-57.5"/>
<text text-anchor="middle" x="156" y="-64.5" font-family="FreeSans" font-size="10.00" fill="#000000">complex</text>
</g>
<!-- Node3&#45;&gt;Node5 -->
<g id="edge4" class="edge">
<title>Node3&#45;&gt;Node5</title>
<path fill="none" stroke="#191970" d="M156,-114.3095C156,-106.9335 156,-96.72 156,-87.715"/>
<polygon fill="#191970" stroke="#191970" points="159.5001,-87.6022 156,-77.6022 152.5001,-87.6023 159.5001,-87.6022"/>
</g>
<!-- Node6 -->
<g id="node6" class="node">
<title>Node6</title>
<g id="a_node6"><a xlink:href="../../d0/d00/tls_8hh.html" target="_top" xlink:title="tls.hh">
<polygon fill="none" stroke="#000000" points="204,-57.5 204,-77.5 248,-77.5 248,-57.5 204,-57.5"/>
<text text-anchor="middle" x="226" y="-64.5" font-family="FreeSans" font-size="10.00" fill="#000000">tls.hh</text>
</a>
</g>
</g>
<!-- Node3&#45;&gt;Node6 -->
<g id="edge5" class="edge">
<title>Node3&#45;&gt;Node6</title>
<path fill="none" stroke="#191970" d="M168.5146,-114.3095C178.8669,-105.8798 193.7706,-93.7439 205.8087,-83.9415"/>
<polygon fill="#191970" stroke="#191970" points="208.0494,-86.6306 213.5937,-77.6022 203.6294,-81.2025 208.0494,-86.6306"/>
</g>
<!-- Node6&#45;&gt;Node4 -->
<g id="edge6" class="edge">
<title>Node6&#45;&gt;Node4</title>
<path fill="none" stroke="#191970" d="M214.5581,-57.3095C205.2751,-49.0419 191.9894,-37.2093 181.0985,-27.5096"/>
<polygon fill="#191970" stroke="#191970" points="183.1384,-24.6395 173.3429,-20.6022 178.4827,-29.8668 183.1384,-24.6395"/>
</g>
</g>
</svg>
