<?xml version="1.0" encoding="UTF-8" standalone="no"?>
<!DOCTYPE svg PUBLIC "-//W3C//DTD SVG 1.1//EN"
 "http://www.w3.org/Graphics/SVG/1.1/DTD/svg11.dtd">
<!-- Generated by graphviz version 2.40.1 (20161225.0304)
 -->
<!-- Title: STCyclotronPhysicsList::SetCutFoil Pages: 1 -->
<svg width="933pt" height="203pt"
 viewBox="0.00 0.00 933.00 203.00" xmlns="http://www.w3.org/2000/svg" xmlns:xlink="http://www.w3.org/1999/xlink">
<g id="graph0" class="graph" transform="scale(1 1) rotate(0) translate(4 199)">
<title>STCyclotronPhysicsList::SetCutFoil</title>
<!-- Node1 -->
<g id="node1" class="node">
<title>Node1</title>
<polygon fill="#bfbfbf" stroke="#000000" points="0,-109.5 0,-141.5 132,-141.5 132,-109.5 0,-109.5"/>
<text text-anchor="start" x="8" y="-128.5" font-family="FreeSans" font-size="10.00" fill="#000000">STCyclotronPhysicsList</text>
<text text-anchor="middle" x="66" y="-116.5" font-family="FreeSans" font-size="10.00" fill="#000000">::SetCutFoil</text>
</g>
<!-- Node2 -->
<g id="node2" class="node">
<title>Node2</title>
<g id="a_node2"><a xlink:href="../../d4/d1f/classG4ProductionCuts.html#a846c52f7591e0145abb3e59cb7dc584b" target="_top" xlink:title="G4ProductionCuts::GetIndex">
<polygon fill="none" stroke="#000000" points="189.5,-174.5 189.5,-194.5 348.5,-194.5 348.5,-174.5 189.5,-174.5"/>
<text text-anchor="middle" x="269" y="-181.5" font-family="FreeSans" font-size="10.00" fill="#000000">G4ProductionCuts::GetIndex</text>
</a>
</g>
</g>
<!-- Node1&#45;&gt;Node2 -->
<g id="edge1" class="edge">
<title>Node1&#45;&gt;Node2</title>
<path fill="none" stroke="#191970" d="M111.4564,-141.5079C129.0251,-147.4692 149.355,-154.0941 168,-159.5 183.2282,-163.9152 199.8871,-168.2417 215.2055,-172.0212"/>
<polygon fill="#191970" stroke="#191970" points="214.5054,-175.453 225.0499,-174.4214 216.1635,-168.6522 214.5054,-175.453"/>
</g>
<!-- Node3 -->
<g id="node3" class="node">
<title>Node3</title>
<g id="a_node3"><a xlink:href="../../db/d69/classG4RegionStore.html#a2a97721b88d990603fdb8aa367c13282" target="_top" xlink:title="G4RegionStore::GetInstance">
<polygon fill="none" stroke="#000000" points="406,-135.5 406,-155.5 565,-155.5 565,-135.5 406,-135.5"/>
<text text-anchor="middle" x="485.5" y="-142.5" font-family="FreeSans" font-size="10.00" fill="#000000">G4RegionStore::GetInstance</text>
</a>
</g>
</g>
<!-- Node1&#45;&gt;Node3 -->
<g id="edge2" class="edge">
<title>Node1&#45;&gt;Node3</title>
<path fill="none" stroke="#191970" d="M132.0084,-128.647C203.0026,-132.0317 316.3287,-137.4346 395.4693,-141.2077"/>
<polygon fill="#191970" stroke="#191970" points="395.7601,-144.7255 405.9154,-141.7057 396.0935,-137.7334 395.7601,-144.7255"/>
</g>
<!-- Node4 -->
<g id="node4" class="node">
<title>Node4</title>
<g id="a_node4"><a xlink:href="../../db/d69/classG4RegionStore.html#acef4d472a500f195f17d2c9d83e6f276" target="_top" xlink:title="G4RegionStore::GetRegion">
<polygon fill="none" stroke="#000000" points="193.5,-96.5 193.5,-116.5 344.5,-116.5 344.5,-96.5 193.5,-96.5"/>
<text text-anchor="middle" x="269" y="-103.5" font-family="FreeSans" font-size="10.00" fill="#000000">G4RegionStore::GetRegion</text>
</a>
</g>
</g>
<!-- Node1&#45;&gt;Node4 -->
<g id="edge3" class="edge">
<title>Node1&#45;&gt;Node4</title>
<path fill="none" stroke="#191970" d="M132.1889,-119.305C148.5345,-117.7751 166.2758,-116.1146 183.3982,-114.512"/>
<polygon fill="#191970" stroke="#191970" points="183.7625,-117.9933 193.3928,-113.5765 183.1101,-111.0237 183.7625,-117.9933"/>
</g>
<!-- Node11 -->
<g id="node11" class="node">
<title>Node11</title>
<g id="a_node11"><a xlink:href="../../d4/d1f/classG4ProductionCuts.html#ab065a375060b5aa9eeb3ea15f48640c5" target="_top" xlink:title="G4ProductionCuts::SetProductionCut">
<polygon fill="none" stroke="#000000" points="168,-57.5 168,-77.5 370,-77.5 370,-57.5 168,-57.5"/>
<text text-anchor="middle" x="269" y="-64.5" font-family="FreeSans" font-size="10.00" fill="#000000">G4ProductionCuts::SetProductionCut</text>
</a>
</g>
</g>
<!-- Node1&#45;&gt;Node11 -->
<g id="edge11" class="edge">
<title>Node1&#45;&gt;Node11</title>
<path fill="none" stroke="#191970" d="M104.7435,-109.3868C123.5936,-101.9816 146.7273,-93.5263 168,-87.5 178.2707,-84.5904 189.2457,-81.95 200.0377,-79.6114"/>
<polygon fill="#191970" stroke="#191970" points="200.8027,-83.0272 209.8717,-77.5496 199.3662,-76.1762 200.8027,-83.0272"/>
</g>
<!-- Node4&#45;&gt;Node3 -->
<g id="edge5" class="edge">
<title>Node4&#45;&gt;Node3</title>
<path fill="none" stroke="#191970" d="M324.7541,-116.5435C353.7955,-121.7749 389.4881,-128.2046 419.8571,-133.6752"/>
<polygon fill="#191970" stroke="#191970" points="419.4727,-137.1622 429.9348,-135.4906 420.7137,-130.2731 419.4727,-137.1622"/>
</g>
<!-- Node5 -->
<g id="node5" class="node">
<title>Node5</title>
<g id="a_node5"><a xlink:href="../../d5/d4f/G4Exception_8hh.html#ad36b5da5d062a20ca47b1c1f1ae353dd" target="_top" xlink:title="G4Exception">
<polygon fill="none" stroke="#000000" points="445.5,-96.5 445.5,-116.5 525.5,-116.5 525.5,-96.5 445.5,-96.5"/>
<text text-anchor="middle" x="485.5" y="-103.5" font-family="FreeSans" font-size="10.00" fill="#000000">G4Exception</text>
</a>
</g>
</g>
<!-- Node4&#45;&gt;Node5 -->
<g id="edge4" class="edge">
<title>Node4&#45;&gt;Node5</title>
<path fill="none" stroke="#191970" d="M344.7212,-106.5C374.6475,-106.5 408.2303,-106.5 435.0882,-106.5"/>
<polygon fill="#191970" stroke="#191970" points="435.404,-110.0001 445.404,-106.5 435.404,-103.0001 435.404,-110.0001"/>
</g>
<!-- Node6 -->
<g id="node6" class="node">
<title>Node6</title>
<g id="a_node6"><a xlink:href="../../d8/d3c/ts__scorers_8cc.html#ad81d1cdebbda7d39795160acd3aebd24" target="_top" xlink:title="message">
<polygon fill="none" stroke="#000000" points="454.5,-57.5 454.5,-77.5 516.5,-77.5 516.5,-57.5 454.5,-57.5"/>
<text text-anchor="middle" x="485.5" y="-64.5" font-family="FreeSans" font-size="10.00" fill="#000000">message</text>
</a>
</g>
</g>
<!-- Node4&#45;&gt;Node6 -->
<g id="edge6" class="edge">
<title>Node4&#45;&gt;Node6</title>
<path fill="none" stroke="#191970" d="M324.7541,-96.4565C362.1095,-89.7274 410.4695,-81.0159 444.3496,-74.9128"/>
<polygon fill="#191970" stroke="#191970" points="445.15,-78.325 454.371,-73.1075 443.9089,-71.4359 445.15,-78.325"/>
</g>
<!-- Node7 -->
<g id="node7" class="node">
<title>Node7</title>
<g id="a_node7"><a xlink:href="../../d7/d23/namespaceG4Threading.html#a457962a93ab41c7f9575dde6cbe9b78c" target="_top" xlink:title="G4Threading::G4GetNumber\lOfCores">
<polygon fill="none" stroke="#000000" points="601,-102.5 601,-134.5 763,-134.5 763,-102.5 601,-102.5"/>
<text text-anchor="start" x="609" y="-121.5" font-family="FreeSans" font-size="10.00" fill="#000000">G4Threading::G4GetNumber</text>
<text text-anchor="middle" x="682" y="-109.5" font-family="FreeSans" font-size="10.00" fill="#000000">OfCores</text>
</a>
</g>
</g>
<!-- Node6&#45;&gt;Node7 -->
<g id="edge7" class="edge">
<title>Node6&#45;&gt;Node7</title>
<path fill="none" stroke="#191970" d="M516.8628,-75.2936C531.5006,-78.9558 549.153,-83.4074 565,-87.5 580.1879,-91.4223 596.4666,-95.6931 611.9086,-99.7755"/>
<polygon fill="#191970" stroke="#191970" points="611.3527,-103.2489 621.9155,-102.4255 613.1447,-96.4821 611.3527,-103.2489"/>
</g>
<!-- Node8 -->
<g id="node8" class="node">
<title>Node8</title>
<g id="a_node8"><a xlink:href="../../d4/daa/classG4RunManager.html#a3a19f2283ba22cbee8ba640d160d2e7e" target="_top" xlink:title="G4RunManager::GetVerbose\lLevel">
<polygon fill="none" stroke="#000000" points="602.5,-51.5 602.5,-83.5 761.5,-83.5 761.5,-51.5 602.5,-51.5"/>
<text text-anchor="start" x="610.5" y="-70.5" font-family="FreeSans" font-size="10.00" fill="#000000">G4RunManager::GetVerbose</text>
<text text-anchor="middle" x="682" y="-58.5" font-family="FreeSans" font-size="10.00" fill="#000000">Level</text>
</a>
</g>
</g>
<!-- Node6&#45;&gt;Node8 -->
<g id="edge8" class="edge">
<title>Node6&#45;&gt;Node8</title>
<path fill="none" stroke="#191970" d="M516.636,-67.5C537.0753,-67.5 564.9375,-67.5 591.9648,-67.5"/>
<polygon fill="#191970" stroke="#191970" points="592.2652,-71.0001 602.2652,-67.5 592.2651,-64.0001 592.2652,-71.0001"/>
</g>
<!-- Node9 -->
<g id="node9" class="node">
<title>Node9</title>
<g id="a_node9"><a xlink:href="../../d4/daa/classG4RunManager.html#a9e042965b0d460b1d492ab48de141b2a" target="_top" xlink:title="G4RunManager::SetVerbose\lLevel">
<polygon fill="none" stroke="#000000" points="603,-.5 603,-32.5 761,-32.5 761,-.5 603,-.5"/>
<text text-anchor="start" x="611" y="-19.5" font-family="FreeSans" font-size="10.00" fill="#000000">G4RunManager::SetVerbose</text>
<text text-anchor="middle" x="682" y="-7.5" font-family="FreeSans" font-size="10.00" fill="#000000">Level</text>
</a>
</g>
</g>
<!-- Node6&#45;&gt;Node9 -->
<g id="edge9" class="edge">
<title>Node6&#45;&gt;Node9</title>
<path fill="none" stroke="#191970" d="M516.636,-59.4189C541.7426,-52.9027 578.0493,-43.4796 610.251,-35.1219"/>
<polygon fill="#191970" stroke="#191970" points="611.2959,-38.4667 620.0959,-32.5667 609.5373,-31.6912 611.2959,-38.4667"/>
</g>
<!-- Node10 -->
<g id="node10" class="node">
<title>Node10</title>
<g id="a_node10"><a xlink:href="../../de/d51/classG4RunManagerKernel.html#aea8a72d21f60b3e6436eed9b651dc247" target="_top" xlink:title="G4RunManagerKernel\l::SetVerboseLevel">
<polygon fill="none" stroke="#000000" points="799,-.5 799,-32.5 925,-32.5 925,-.5 799,-.5"/>
<text text-anchor="start" x="807" y="-19.5" font-family="FreeSans" font-size="10.00" fill="#000000">G4RunManagerKernel</text>
<text text-anchor="middle" x="862" y="-7.5" font-family="FreeSans" font-size="10.00" fill="#000000">::SetVerboseLevel</text>
</a>
</g>
</g>
<!-- Node9&#45;&gt;Node10 -->
<g id="edge10" class="edge">
<title>Node9&#45;&gt;Node10</title>
<path fill="none" stroke="#191970" d="M761.2126,-16.5C770.3955,-16.5 779.7304,-16.5 788.8275,-16.5"/>
<polygon fill="#191970" stroke="#191970" points="788.9766,-20.0001 798.9766,-16.5 788.9766,-13.0001 788.9766,-20.0001"/>
</g>
</g>
</svg>
