<?xml version="1.0" encoding="UTF-8" standalone="no"?>
<!DOCTYPE svg PUBLIC "-//W3C//DTD SVG 1.1//EN"
 "http://www.w3.org/Graphics/SVG/1.1/DTD/svg11.dtd">
<!-- Generated by graphviz version 2.40.1 (20161225.0304)
 -->
<!-- Title: G4EllipticalCone::Inside Pages: 1 -->
<svg width="475pt" height="146pt"
 viewBox="0.00 0.00 475.00 146.00" xmlns="http://www.w3.org/2000/svg" xmlns:xlink="http://www.w3.org/1999/xlink">
<g id="graph0" class="graph" transform="scale(1 1) rotate(0) translate(4 142)">
<title>G4EllipticalCone::Inside</title>
<!-- Node1 -->
<g id="node1" class="node">
<title>Node1</title>
<polygon fill="#bfbfbf" stroke="#000000" points="0,-58.5 0,-78.5 136,-78.5 136,-58.5 0,-58.5"/>
<text text-anchor="middle" x="68" y="-65.5" font-family="FreeSans" font-size="10.00" fill="#000000">G4EllipticalCone::Inside</text>
</g>
<!-- Node2 -->
<g id="node2" class="node">
<title>Node2</title>
<g id="a_node2"><a xlink:href="../../df/d28/namespacekdfinder.html#ab72d428625e99a2d7380eb7691c246c7" target="_top" xlink:title="kdfinder::abs">
<polygon fill="none" stroke="#000000" points="194,-117.5 194,-137.5 277,-137.5 277,-117.5 194,-117.5"/>
<text text-anchor="middle" x="235.5" y="-124.5" font-family="FreeSans" font-size="10.00" fill="#000000">kdfinder::abs</text>
</a>
</g>
</g>
<!-- Node1&#45;&gt;Node2 -->
<g id="edge1" class="edge">
<title>Node1&#45;&gt;Node2</title>
<path fill="none" stroke="#191970" d="M92.6011,-78.573C113.5528,-87.0041 144.5384,-99.1258 172,-108.5 177.9318,-110.5248 184.214,-112.5482 190.4291,-114.479"/>
<polygon fill="#191970" stroke="#191970" points="189.4941,-117.853 200.0803,-117.4239 191.5371,-111.1577 189.4941,-117.853"/>
</g>
<!-- Node4 -->
<g id="node4" class="node">
<title>Node4</title>
<g id="a_node4"><a xlink:href="../../da/dcf/classCLHEP_1_1Hep3Vector.html#a86646a7299d9b55d1ee3a27b578d30ec" target="_top" xlink:title="CLHEP::Hep3Vector::x">
<polygon fill="none" stroke="#000000" points="172,-78.5 172,-98.5 299,-98.5 299,-78.5 172,-78.5"/>
<text text-anchor="middle" x="235.5" y="-85.5" font-family="FreeSans" font-size="10.00" fill="#000000">CLHEP::Hep3Vector::x</text>
</a>
</g>
</g>
<!-- Node1&#45;&gt;Node4 -->
<g id="edge3" class="edge">
<title>Node1&#45;&gt;Node4</title>
<path fill="none" stroke="#191970" d="M136.1287,-76.6348C144.5916,-77.6453 153.2751,-78.6821 161.8169,-79.702"/>
<polygon fill="#191970" stroke="#191970" points="161.4129,-83.1786 171.7574,-80.8889 162.2429,-76.2279 161.4129,-83.1786"/>
</g>
<!-- Node5 -->
<g id="node5" class="node">
<title>Node5</title>
<g id="a_node5"><a xlink:href="../../da/dcf/classCLHEP_1_1Hep3Vector.html#a86ef096e76d7db9e0ea8e10eb742a576" target="_top" xlink:title="CLHEP::Hep3Vector::y">
<polygon fill="none" stroke="#000000" points="172,-39.5 172,-59.5 299,-59.5 299,-39.5 172,-39.5"/>
<text text-anchor="middle" x="235.5" y="-46.5" font-family="FreeSans" font-size="10.00" fill="#000000">CLHEP::Hep3Vector::y</text>
</a>
</g>
</g>
<!-- Node1&#45;&gt;Node5 -->
<g id="edge4" class="edge">
<title>Node1&#45;&gt;Node5</title>
<path fill="none" stroke="#191970" d="M136.1287,-60.772C144.5916,-59.812 153.2751,-58.827 161.8169,-57.8581"/>
<polygon fill="#191970" stroke="#191970" points="162.2156,-61.3354 171.7574,-56.7305 161.4266,-54.38 162.2156,-61.3354"/>
</g>
<!-- Node6 -->
<g id="node6" class="node">
<title>Node6</title>
<g id="a_node6"><a xlink:href="../../da/dcf/classCLHEP_1_1Hep3Vector.html#a2dcfdfeae86f250117ea40f086bb231a" target="_top" xlink:title="CLHEP::Hep3Vector::z">
<polygon fill="none" stroke="#000000" points="172.5,-.5 172.5,-20.5 298.5,-20.5 298.5,-.5 172.5,-.5"/>
<text text-anchor="middle" x="235.5" y="-7.5" font-family="FreeSans" font-size="10.00" fill="#000000">CLHEP::Hep3Vector::z</text>
</a>
</g>
</g>
<!-- Node1&#45;&gt;Node6 -->
<g id="edge5" class="edge">
<title>Node1&#45;&gt;Node6</title>
<path fill="none" stroke="#191970" d="M94.3855,-58.4852C115.338,-50.6233 145.428,-39.5339 172,-30.5 178.6171,-28.2503 185.6511,-25.9475 192.5358,-23.7423"/>
<polygon fill="#191970" stroke="#191970" points="193.9757,-26.9575 202.45,-20.5986 191.8598,-20.285 193.9757,-26.9575"/>
</g>
<!-- Node3 -->
<g id="node3" class="node">
<title>Node3</title>
<g id="a_node3"><a xlink:href="../../d8/dc7/classkdfinder_1_1TVector.html#ac9649c7577f12a7502ed523260f4ee90" target="_top" xlink:title="kdfinder::TVector::mag">
<polygon fill="none" stroke="#000000" points="335,-117.5 335,-137.5 467,-137.5 467,-117.5 335,-117.5"/>
<text text-anchor="middle" x="401" y="-124.5" font-family="FreeSans" font-size="10.00" fill="#000000">kdfinder::TVector::mag</text>
</a>
</g>
</g>
<!-- Node2&#45;&gt;Node3 -->
<g id="edge2" class="edge">
<title>Node2&#45;&gt;Node3</title>
<path fill="none" stroke="#191970" d="M277.2626,-127.5C291.6951,-127.5 308.3531,-127.5 324.6755,-127.5"/>
<polygon fill="#191970" stroke="#191970" points="324.7724,-131.0001 334.7724,-127.5 324.7723,-124.0001 324.7724,-131.0001"/>
</g>
</g>
</svg>
