<?xml version="1.0" encoding="UTF-8" standalone="no"?>
<!DOCTYPE svg PUBLIC "-//W3C//DTD SVG 1.1//EN"
 "http://www.w3.org/Graphics/SVG/1.1/DTD/svg11.dtd">
<!-- Generated by graphviz version 2.40.1 (20161225.0304)
 -->
<!-- Title: B3PhysicsList::B3PhysicsList Pages: 1 -->
<svg width="910pt" height="233pt"
 viewBox="0.00 0.00 910.00 233.00" xmlns="http://www.w3.org/2000/svg" xmlns:xlink="http://www.w3.org/1999/xlink">
<g id="graph0" class="graph" transform="scale(1 1) rotate(0) translate(4 229)">
<title>B3PhysicsList::B3PhysicsList</title>
<!-- Node1 -->
<g id="node1" class="node">
<title>Node1</title>
<polygon fill="#bfbfbf" stroke="#000000" points="0,-76.5 0,-96.5 160,-96.5 160,-76.5 0,-76.5"/>
<text text-anchor="middle" x="80" y="-83.5" font-family="FreeSans" font-size="10.00" fill="#000000">B3PhysicsList::B3PhysicsList</text>
</g>
<!-- Node2 -->
<g id="node2" class="node">
<title>Node2</title>
<g id="a_node2"><a xlink:href="../../dc/d2e/classG4VModularPhysicsList.html#a749b7064b776c809d258bcb4a95e9916" target="_top" xlink:title="G4VModularPhysicsList\l::RegisterPhysics">
<polygon fill="none" stroke="#000000" points="196,-96.5 196,-128.5 330,-128.5 330,-96.5 196,-96.5"/>
<text text-anchor="start" x="204" y="-115.5" font-family="FreeSans" font-size="10.00" fill="#000000">G4VModularPhysicsList</text>
<text text-anchor="middle" x="263" y="-103.5" font-family="FreeSans" font-size="10.00" fill="#000000">::RegisterPhysics</text>
</a>
</g>
</g>
<!-- Node1&#45;&gt;Node2 -->
<g id="edge1" class="edge">
<title>Node1&#45;&gt;Node2</title>
<path fill="none" stroke="#191970" d="M150.4908,-96.5151C162.0163,-98.1526 174.012,-99.8569 185.6915,-101.5163"/>
<polygon fill="#191970" stroke="#191970" points="185.4612,-105.0186 195.8541,-102.9601 186.4459,-98.0882 185.4612,-105.0186"/>
</g>
<!-- Node10 -->
<g id="node10" class="node">
<title>Node10</title>
<g id="a_node10"><a xlink:href="../../dc/d2e/classG4VModularPhysicsList.html#a24f4328684c0fc6a6f4736815a719d91" target="_top" xlink:title="G4VModularPhysicsList\l::SetVerboseLevel">
<polygon fill="none" stroke="#000000" points="196,-45.5 196,-77.5 330,-77.5 330,-45.5 196,-45.5"/>
<text text-anchor="start" x="204" y="-64.5" font-family="FreeSans" font-size="10.00" fill="#000000">G4VModularPhysicsList</text>
<text text-anchor="middle" x="263" y="-52.5" font-family="FreeSans" font-size="10.00" fill="#000000">::SetVerboseLevel</text>
</a>
</g>
</g>
<!-- Node1&#45;&gt;Node10 -->
<g id="edge9" class="edge">
<title>Node1&#45;&gt;Node10</title>
<path fill="none" stroke="#191970" d="M153.3787,-76.4756C164.0037,-75.0241 174.9684,-73.5262 185.6681,-72.0645"/>
<polygon fill="#191970" stroke="#191970" points="186.3915,-75.4982 195.8257,-70.6768 185.444,-68.5627 186.3915,-75.4982"/>
</g>
<!-- Node3 -->
<g id="node3" class="node">
<title>Node3</title>
<g id="a_node3"><a xlink:href="../../de/dd6/classG4StateManager.html#a9e2e3ebb3df0c07330d50cb22c7ad98c" target="_top" xlink:title="G4StateManager::GetState\lManager">
<polygon fill="none" stroke="#000000" points="372,-192.5 372,-224.5 524,-224.5 524,-192.5 372,-192.5"/>
<text text-anchor="start" x="380" y="-211.5" font-family="FreeSans" font-size="10.00" fill="#000000">G4StateManager::GetState</text>
<text text-anchor="middle" x="448" y="-199.5" font-family="FreeSans" font-size="10.00" fill="#000000">Manager</text>
</a>
</g>
</g>
<!-- Node2&#45;&gt;Node3 -->
<g id="edge2" class="edge">
<title>Node2&#45;&gt;Node3</title>
<path fill="none" stroke="#191970" d="M282.3874,-128.5918C302.2946,-144.4358 334.7053,-168.3936 366,-183.5 369.845,-185.3561 373.858,-187.1101 377.9531,-188.7616"/>
<polygon fill="#191970" stroke="#191970" points="377.0254,-192.1531 387.6166,-192.429 379.5091,-185.6085 377.0254,-192.1531"/>
</g>
<!-- Node6 -->
<g id="node6" class="node">
<title>Node6</title>
<g id="a_node6"><a xlink:href="../../de/dd6/classG4StateManager.html#a3100e316616b0f747601a23c220bd193" target="_top" xlink:title="G4StateManager::GetCurrent\lState">
<polygon fill="none" stroke="#000000" points="366,-141.5 366,-173.5 530,-173.5 530,-141.5 366,-141.5"/>
<text text-anchor="start" x="374" y="-160.5" font-family="FreeSans" font-size="10.00" fill="#000000">G4StateManager::GetCurrent</text>
<text text-anchor="middle" x="448" y="-148.5" font-family="FreeSans" font-size="10.00" fill="#000000">State</text>
</a>
</g>
</g>
<!-- Node2&#45;&gt;Node6 -->
<g id="edge5" class="edge">
<title>Node2&#45;&gt;Node6</title>
<path fill="none" stroke="#191970" d="M329.0057,-128.5555C343.0015,-131.9598 357.881,-135.5792 372.2074,-139.064"/>
<polygon fill="#191970" stroke="#191970" points="371.4758,-142.488 382.0197,-141.4507 373.1303,-135.6863 371.4758,-142.488"/>
</g>
<!-- Node7 -->
<g id="node7" class="node">
<title>Node7</title>
<g id="a_node7"><a xlink:href="../../d5/d4f/G4Exception_8hh.html#ad36b5da5d062a20ca47b1c1f1ae353dd" target="_top" xlink:title="G4Exception">
<polygon fill="none" stroke="#000000" points="408,-102.5 408,-122.5 488,-122.5 488,-102.5 408,-102.5"/>
<text text-anchor="middle" x="448" y="-109.5" font-family="FreeSans" font-size="10.00" fill="#000000">G4Exception</text>
</a>
</g>
</g>
<!-- Node2&#45;&gt;Node7 -->
<g id="edge6" class="edge">
<title>Node2&#45;&gt;Node7</title>
<path fill="none" stroke="#191970" d="M330.0508,-112.5C352.3429,-112.5 376.7732,-112.5 397.5892,-112.5"/>
<polygon fill="#191970" stroke="#191970" points="397.8026,-116.0001 407.8025,-112.5 397.8025,-109.0001 397.8026,-116.0001"/>
</g>
<!-- Node8 -->
<g id="node8" class="node">
<title>Node8</title>
<g id="a_node8"><a xlink:href="../../d1/d2f/classG4VPhysicsConstructor.html#a79beb456199fd30b7ceaea70c0171339" target="_top" xlink:title="G4VPhysicsConstructor\l::GetPhysicsName">
<polygon fill="none" stroke="#000000" points="381,-51.5 381,-83.5 515,-83.5 515,-51.5 381,-51.5"/>
<text text-anchor="start" x="389" y="-70.5" font-family="FreeSans" font-size="10.00" fill="#000000">G4VPhysicsConstructor</text>
<text text-anchor="middle" x="448" y="-58.5" font-family="FreeSans" font-size="10.00" fill="#000000">::GetPhysicsName</text>
</a>
</g>
</g>
<!-- Node2&#45;&gt;Node8 -->
<g id="edge7" class="edge">
<title>Node2&#45;&gt;Node8</title>
<path fill="none" stroke="#191970" d="M329.0057,-96.4445C343.0015,-93.0402 357.881,-89.4208 372.2074,-85.936"/>
<polygon fill="#191970" stroke="#191970" points="373.1303,-89.3137 382.0197,-83.5493 371.4758,-82.512 373.1303,-89.3137"/>
</g>
<!-- Node9 -->
<g id="node9" class="node">
<title>Node9</title>
<g id="a_node9"><a xlink:href="../../d1/d2f/classG4VPhysicsConstructor.html#a58a22988c11e11cb12fe75fd2c5e22e7" target="_top" xlink:title="G4VPhysicsConstructor\l::GetPhysicsType">
<polygon fill="none" stroke="#000000" points="381,-.5 381,-32.5 515,-32.5 515,-.5 381,-.5"/>
<text text-anchor="start" x="389" y="-19.5" font-family="FreeSans" font-size="10.00" fill="#000000">G4VPhysicsConstructor</text>
<text text-anchor="middle" x="448" y="-7.5" font-family="FreeSans" font-size="10.00" fill="#000000">::GetPhysicsType</text>
</a>
</g>
</g>
<!-- Node2&#45;&gt;Node9 -->
<g id="edge8" class="edge">
<title>Node2&#45;&gt;Node9</title>
<path fill="none" stroke="#191970" d="M314.9487,-96.392C320.247,-93.8015 325.3739,-90.8489 330,-87.5 350.7469,-72.4811 344.8835,-56.9947 366,-42.5 368.857,-40.5389 371.8697,-38.7197 374.9865,-37.0328"/>
<polygon fill="#191970" stroke="#191970" points="376.5586,-40.1602 384.0027,-32.6211 373.482,-33.8725 376.5586,-40.1602"/>
</g>
<!-- Node4 -->
<g id="node4" class="node">
<title>Node4</title>
<g id="a_node4"><a xlink:href="../../de/dd6/classG4StateManager.html#a68a238e60d06ac64a264239fb3d8ae24" target="_top" xlink:title="G4StateManager::G4StateManager">
<polygon fill="none" stroke="#000000" points="566,-198.5 566,-218.5 760,-218.5 760,-198.5 566,-198.5"/>
<text text-anchor="middle" x="663" y="-205.5" font-family="FreeSans" font-size="10.00" fill="#000000">G4StateManager::G4StateManager</text>
</a>
</g>
</g>
<!-- Node3&#45;&gt;Node4 -->
<g id="edge3" class="edge">
<title>Node3&#45;&gt;Node4</title>
<path fill="none" stroke="#191970" d="M524.1035,-208.5C534.3563,-208.5 545.0267,-208.5 555.6946,-208.5"/>
<polygon fill="#191970" stroke="#191970" points="555.9081,-212.0001 565.9081,-208.5 555.908,-205.0001 555.9081,-212.0001"/>
</g>
<!-- Node5 -->
<g id="node5" class="node">
<title>Node5</title>
<g id="a_node5"><a xlink:href="../../df/de9/G4ios_8hh.html#af64ccf1dd18073363753e820abe5b75d" target="_top" xlink:title="G4iosInitialization">
<polygon fill="none" stroke="#000000" points="796,-198.5 796,-218.5 902,-218.5 902,-198.5 796,-198.5"/>
<text text-anchor="middle" x="849" y="-205.5" font-family="FreeSans" font-size="10.00" fill="#000000">G4iosInitialization</text>
</a>
</g>
</g>
<!-- Node4&#45;&gt;Node5 -->
<g id="edge4" class="edge">
<title>Node4&#45;&gt;Node5</title>
<path fill="none" stroke="#191970" d="M760.0857,-208.5C768.7565,-208.5 777.3798,-208.5 785.6534,-208.5"/>
<polygon fill="#191970" stroke="#191970" points="785.9236,-212.0001 795.9235,-208.5 785.9235,-205.0001 785.9236,-212.0001"/>
</g>
</g>
</svg>
