<?xml version="1.0" encoding="UTF-8" standalone="no"?>
<!DOCTYPE svg PUBLIC "-//W3C//DTD SVG 1.1//EN"
 "http://www.w3.org/Graphics/SVG/1.1/DTD/svg11.dtd">
<!-- Generated by graphviz version 2.40.1 (20161225.0304)
 -->
<!-- Title: G4ProcessPlacer::RemoveProcess Pages: 1 -->
<svg width="1199pt" height="391pt"
 viewBox="0.00 0.00 1199.00 391.17" xmlns="http://www.w3.org/2000/svg" xmlns:xlink="http://www.w3.org/1999/xlink">
<g id="graph0" class="graph" transform="scale(1 1) rotate(0) translate(4 387.1726)">
<title>G4ProcessPlacer::RemoveProcess</title>
<!-- Node1 -->
<g id="node1" class="node">
<title>Node1</title>
<polygon fill="#bfbfbf" stroke="#000000" points="0,-200.5 0,-220.5 185,-220.5 185,-200.5 0,-200.5"/>
<text text-anchor="middle" x="92.5" y="-207.5" font-family="FreeSans" font-size="10.00" fill="#000000">G4ProcessPlacer::RemoveProcess</text>
</g>
<!-- Node2 -->
<g id="node2" class="node">
<title>Node2</title>
<g id="a_node2"><a xlink:href="../../d9/dc5/classG4ProcessPlacer.html#a954e560d0ac25eb206bc539a55dc65c6" target="_top" xlink:title="G4ProcessPlacer::GetProcess\lManager">
<polygon fill="none" stroke="#000000" points="424,-190.5 424,-222.5 586,-222.5 586,-190.5 424,-190.5"/>
<text text-anchor="start" x="432" y="-209.5" font-family="FreeSans" font-size="10.00" fill="#000000">G4ProcessPlacer::GetProcess</text>
<text text-anchor="middle" x="505" y="-197.5" font-family="FreeSans" font-size="10.00" fill="#000000">Manager</text>
</a>
</g>
</g>
<!-- Node1&#45;&gt;Node2 -->
<g id="edge1" class="edge">
<title>Node1&#45;&gt;Node2</title>
<path fill="none" stroke="#191970" d="M104.2226,-200.4125C125.66,-182.7091 173.3747,-146.6768 221,-133.5 289.5363,-114.5377 317.3963,-101.6981 381,-133.5 404.8514,-145.4257 395.0219,-166.3979 417,-181.5 419.2539,-183.0488 421.6027,-184.5023 424.0235,-185.8664"/>
<polygon fill="#191970" stroke="#191970" points="422.5575,-189.0469 433.0624,-190.4247 425.7096,-182.7967 422.5575,-189.0469"/>
</g>
<!-- Node14 -->
<g id="node14" class="node">
<title>Node14</title>
<g id="a_node14"><a xlink:href="../../d2/d84/classG4VProcess.html#a9f7dc4cdc99786b5697c69952e9e2add" target="_top" xlink:title="G4VProcess::GetProcessName">
<polygon fill="none" stroke="#000000" points="629,-347.5 629,-367.5 797,-367.5 797,-347.5 629,-347.5"/>
<text text-anchor="middle" x="713" y="-354.5" font-family="FreeSans" font-size="10.00" fill="#000000">G4VProcess::GetProcessName</text>
</a>
</g>
</g>
<!-- Node1&#45;&gt;Node14 -->
<g id="edge15" class="edge">
<title>Node1&#45;&gt;Node14</title>
<path fill="none" stroke="#191970" d="M98.7221,-220.6453C115.0218,-246.1437 161.8251,-312.7087 221,-338.5 364.04,-400.8438 553.242,-383.9398 650.048,-369.1049"/>
<polygon fill="#191970" stroke="#191970" points="650.639,-372.5551 659.9724,-367.5413 649.5495,-365.6404 650.639,-372.5551"/>
</g>
<!-- Node15 -->
<g id="node15" class="node">
<title>Node15</title>
<g id="a_node15"><a xlink:href="../../d9/dc5/classG4ProcessPlacer.html#aa0e1bd197ab26fa33d2c62f7249d2642" target="_top" xlink:title="G4ProcessPlacer::PrintAlong\lStepDoItVec">
<polygon fill="none" stroke="#000000" points="222,-245.5 222,-277.5 380,-277.5 380,-245.5 222,-245.5"/>
<text text-anchor="start" x="230" y="-264.5" font-family="FreeSans" font-size="10.00" fill="#000000">G4ProcessPlacer::PrintAlong</text>
<text text-anchor="middle" x="301" y="-252.5" font-family="FreeSans" font-size="10.00" fill="#000000">StepDoItVec</text>
</a>
</g>
</g>
<!-- Node1&#45;&gt;Node15 -->
<g id="edge16" class="edge">
<title>Node1&#45;&gt;Node15</title>
<path fill="none" stroke="#191970" d="M133.6929,-220.576C159.8225,-226.9674 194.4179,-235.4295 225.3661,-242.9996"/>
<polygon fill="#191970" stroke="#191970" points="224.7255,-246.4461 235.2708,-245.4223 226.3888,-239.6465 224.7255,-246.4461"/>
</g>
<!-- Node19 -->
<g id="node19" class="node">
<title>Node19</title>
<g id="a_node19"><a xlink:href="../../d9/dc5/classG4ProcessPlacer.html#a4e0d198a3c708ff234d3a8212900db9c" target="_top" xlink:title="G4ProcessPlacer::PrintAlong\lStepGPILVec">
<polygon fill="none" stroke="#000000" points="222,-296.5 222,-328.5 380,-328.5 380,-296.5 222,-296.5"/>
<text text-anchor="start" x="230" y="-315.5" font-family="FreeSans" font-size="10.00" fill="#000000">G4ProcessPlacer::PrintAlong</text>
<text text-anchor="middle" x="301" y="-303.5" font-family="FreeSans" font-size="10.00" fill="#000000">StepGPILVec</text>
</a>
</g>
</g>
<!-- Node1&#45;&gt;Node19 -->
<g id="edge23" class="edge">
<title>Node1&#45;&gt;Node19</title>
<path fill="none" stroke="#191970" d="M106.9134,-220.7017C130.0533,-236.7121 177.3317,-267.9273 221,-287.5 225.1454,-289.358 229.4694,-291.1346 233.8669,-292.8221"/>
<polygon fill="#191970" stroke="#191970" points="232.9765,-296.2231 243.5703,-296.3708 235.3808,-289.649 232.9765,-296.2231"/>
</g>
<!-- Node20 -->
<g id="node20" class="node">
<title>Node20</title>
<g id="a_node20"><a xlink:href="../../d9/dc5/classG4ProcessPlacer.html#ae11e7e0f4ef9fb5526c8ebf05e2e0c14" target="_top" xlink:title="G4ProcessPlacer::PrintPost\lStepDoItVec">
<polygon fill="none" stroke="#000000" points="225.5,-143.5 225.5,-175.5 376.5,-175.5 376.5,-143.5 225.5,-143.5"/>
<text text-anchor="start" x="233.5" y="-162.5" font-family="FreeSans" font-size="10.00" fill="#000000">G4ProcessPlacer::PrintPost</text>
<text text-anchor="middle" x="301" y="-150.5" font-family="FreeSans" font-size="10.00" fill="#000000">StepDoItVec</text>
</a>
</g>
</g>
<!-- Node1&#45;&gt;Node20 -->
<g id="edge27" class="edge">
<title>Node1&#45;&gt;Node20</title>
<path fill="none" stroke="#191970" d="M133.6929,-200.424C159.8225,-194.0326 194.4179,-185.5705 225.3661,-178.0004"/>
<polygon fill="#191970" stroke="#191970" points="226.3888,-181.3535 235.2708,-175.5777 224.7255,-174.5539 226.3888,-181.3535"/>
</g>
<!-- Node22 -->
<g id="node22" class="node">
<title>Node22</title>
<g id="a_node22"><a xlink:href="../../d9/dc5/classG4ProcessPlacer.html#aef69e158de8990b1917c07209b0b1d1b" target="_top" xlink:title="G4ProcessPlacer::PrintPost\lStepGPILVec">
<polygon fill="none" stroke="#000000" points="225.5,-194.5 225.5,-226.5 376.5,-226.5 376.5,-194.5 225.5,-194.5"/>
<text text-anchor="start" x="233.5" y="-213.5" font-family="FreeSans" font-size="10.00" fill="#000000">G4ProcessPlacer::PrintPost</text>
<text text-anchor="middle" x="301" y="-201.5" font-family="FreeSans" font-size="10.00" fill="#000000">StepGPILVec</text>
</a>
</g>
</g>
<!-- Node1&#45;&gt;Node22 -->
<g id="edge31" class="edge">
<title>Node1&#45;&gt;Node22</title>
<path fill="none" stroke="#191970" d="M185.1654,-210.5C195.1747,-210.5 205.3283,-210.5 215.2508,-210.5"/>
<polygon fill="#191970" stroke="#191970" points="215.4919,-214.0001 225.4918,-210.5 215.4918,-207.0001 215.4919,-214.0001"/>
</g>
<!-- Node23 -->
<g id="node23" class="node">
<title>Node23</title>
<g id="a_node23"><a xlink:href="../../d5/d2e/classG4ProcessManager.html#ac326fbb0bc88c019d89e4330e3e4ed8a" target="_top" xlink:title="G4ProcessManager::Remove\lProcess">
<polygon fill="none" stroke="#000000" points="221,-53.5 221,-85.5 381,-85.5 381,-53.5 221,-53.5"/>
<text text-anchor="start" x="229" y="-72.5" font-family="FreeSans" font-size="10.00" fill="#000000">G4ProcessManager::Remove</text>
<text text-anchor="middle" x="301" y="-60.5" font-family="FreeSans" font-size="10.00" fill="#000000">Process</text>
</a>
</g>
</g>
<!-- Node1&#45;&gt;Node23 -->
<g id="edge35" class="edge">
<title>Node1&#45;&gt;Node23</title>
<path fill="none" stroke="#191970" d="M101.9177,-200.3953C122.0173,-179.323 171.3451,-130.186 221,-100.5 227.652,-96.5231 234.9048,-92.8822 242.2393,-89.605"/>
<polygon fill="#191970" stroke="#191970" points="243.7027,-92.7861 251.5343,-85.6505 240.9623,-86.3448 243.7027,-92.7861"/>
</g>
<!-- Node3 -->
<g id="node3" class="node">
<title>Node3</title>
<g id="a_node3"><a xlink:href="../../d5/d4f/G4Exception_8hh.html#ad36b5da5d062a20ca47b1c1f1ae353dd" target="_top" xlink:title="G4Exception">
<polygon fill="none" stroke="#000000" points="673,-269.5 673,-289.5 753,-289.5 753,-269.5 673,-269.5"/>
<text text-anchor="middle" x="713" y="-276.5" font-family="FreeSans" font-size="10.00" fill="#000000">G4Exception</text>
</a>
</g>
</g>
<!-- Node2&#45;&gt;Node3 -->
<g id="edge2" class="edge">
<title>Node2&#45;&gt;Node3</title>
<path fill="none" stroke="#191970" d="M544.076,-222.5505C568.342,-232.2866 600.2751,-244.6834 629,-254.5 641.2698,-258.6931 654.6789,-262.8649 667.1093,-266.5649"/>
<polygon fill="#191970" stroke="#191970" points="666.2467,-269.9594 676.8279,-269.4225 668.2214,-263.2437 666.2467,-269.9594"/>
</g>
<!-- Node4 -->
<g id="node4" class="node">
<title>Node4</title>
<g id="a_node4"><a xlink:href="../../d8/dd3/classG4ParticleTable.html#adf609084147cd80731be50a22c47723f" target="_top" xlink:title="G4ParticleTable::GetIterator">
<polygon fill="none" stroke="#000000" points="634.5,-102.5 634.5,-122.5 791.5,-122.5 791.5,-102.5 634.5,-102.5"/>
<text text-anchor="middle" x="713" y="-109.5" font-family="FreeSans" font-size="10.00" fill="#000000">G4ParticleTable::GetIterator</text>
</a>
</g>
</g>
<!-- Node2&#45;&gt;Node4 -->
<g id="edge3" class="edge">
<title>Node2&#45;&gt;Node4</title>
<path fill="none" stroke="#191970" d="M577.455,-190.3256C582.9311,-187.7967 588.1894,-184.875 593,-181.5 615.4164,-165.7731 606.1646,-146.612 629,-131.5 631.7431,-129.6847 634.6351,-128.041 637.6301,-126.553"/>
<polygon fill="#191970" stroke="#191970" points="639.0984,-129.7312 646.8785,-122.5395 636.3117,-123.3098 639.0984,-129.7312"/>
</g>
<!-- Node5 -->
<g id="node5" class="node">
<title>Node5</title>
<g id="a_node5"><a xlink:href="../../d5/d38/classG4ParticleDefinition.html#a02a571907ec0c42bf356545826d9234f" target="_top" xlink:title="G4ParticleDefinition\l::GetParticleName">
<polygon fill="none" stroke="#000000" points="655,-51.5 655,-83.5 771,-83.5 771,-51.5 655,-51.5"/>
<text text-anchor="start" x="663" y="-70.5" font-family="FreeSans" font-size="10.00" fill="#000000">G4ParticleDefinition</text>
<text text-anchor="middle" x="713" y="-58.5" font-family="FreeSans" font-size="10.00" fill="#000000">::GetParticleName</text>
</a>
</g>
</g>
<!-- Node2&#45;&gt;Node5 -->
<g id="edge4" class="edge">
<title>Node2&#45;&gt;Node5</title>
<path fill="none" stroke="#191970" d="M580.5325,-190.3729C585.0069,-187.8325 589.2182,-184.8954 593,-181.5 624.75,-152.9942 597.4284,-121.2032 629,-92.5 633.8023,-88.134 639.3365,-84.5288 645.2252,-81.5522"/>
<polygon fill="#191970" stroke="#191970" points="646.975,-84.6061 654.7166,-77.373 644.1541,-78.1996 646.975,-84.6061"/>
</g>
<!-- Node6 -->
<g id="node6" class="node">
<title>Node6</title>
<g id="a_node6"><a xlink:href="../../d8/dd3/classG4ParticleTable.html#a8bb5b636696da4abae3ca7ea0ea5af95" target="_top" xlink:title="G4ParticleTable::GetParticle\lTable">
<polygon fill="none" stroke="#000000" points="635,-.5 635,-32.5 791,-32.5 791,-.5 635,-.5"/>
<text text-anchor="start" x="643" y="-19.5" font-family="FreeSans" font-size="10.00" fill="#000000">G4ParticleTable::GetParticle</text>
<text text-anchor="middle" x="713" y="-7.5" font-family="FreeSans" font-size="10.00" fill="#000000">Table</text>
</a>
</g>
</g>
<!-- Node2&#45;&gt;Node6 -->
<g id="edge5" class="edge">
<title>Node2&#45;&gt;Node6</title>
<path fill="none" stroke="#191970" d="M581.8799,-190.4251C585.918,-187.8662 589.6734,-184.9112 593,-181.5 637.8552,-135.5042 584.4325,-87.7747 629,-41.5 629.9203,-40.5445 630.8753,-39.6251 631.8616,-38.7404"/>
<polygon fill="#191970" stroke="#191970" points="634.1046,-41.4326 639.9796,-32.6159 629.8887,-35.8445 634.1046,-41.4326"/>
</g>
<!-- Node10 -->
<g id="node10" class="node">
<title>Node10</title>
<g id="a_node10"><a xlink:href="../../d4/d96/classG4ParticleTableIterator.html#ae35fb8d216907e4b1614fd52f2d50f84" target="_top" xlink:title="G4ParticleTableIterator\l::reset">
<polygon fill="none" stroke="#000000" points="1039.5,-224.5 1039.5,-256.5 1171.5,-256.5 1171.5,-224.5 1039.5,-224.5"/>
<text text-anchor="start" x="1047.5" y="-243.5" font-family="FreeSans" font-size="10.00" fill="#000000">G4ParticleTableIterator</text>
<text text-anchor="middle" x="1105.5" y="-231.5" font-family="FreeSans" font-size="10.00" fill="#000000">::reset</text>
</a>
</g>
</g>
<!-- Node2&#45;&gt;Node10 -->
<g id="edge13" class="edge">
<title>Node2&#45;&gt;Node10</title>
<path fill="none" stroke="#191970" d="M586.0349,-211.8441C600.3482,-212.7549 615.1103,-213.673 629,-214.5 770.2368,-222.9091 935.0883,-231.6693 1029.1944,-236.57"/>
<polygon fill="#191970" stroke="#191970" points="1029.0267,-240.0659 1039.195,-237.0901 1029.3903,-233.0754 1029.0267,-240.0659"/>
</g>
<!-- Node11 -->
<g id="node11" class="node">
<title>Node11</title>
<g id="a_node11"><a xlink:href="../../d4/d96/classG4ParticleTableIterator.html#a7220383ce5a9ddecb53331a2ecdd90d5" target="_top" xlink:title="G4ParticleTableIterator\l::value">
<polygon fill="none" stroke="#000000" points="1039.5,-173.5 1039.5,-205.5 1171.5,-205.5 1171.5,-173.5 1039.5,-173.5"/>
<text text-anchor="start" x="1047.5" y="-192.5" font-family="FreeSans" font-size="10.00" fill="#000000">G4ParticleTableIterator</text>
<text text-anchor="middle" x="1105.5" y="-180.5" font-family="FreeSans" font-size="10.00" fill="#000000">::value</text>
</a>
</g>
</g>
<!-- Node2&#45;&gt;Node11 -->
<g id="edge14" class="edge">
<title>Node2&#45;&gt;Node11</title>
<path fill="none" stroke="#191970" d="M586.2983,-204.1985C702.7763,-200.901 915.5933,-194.8762 1029.2256,-191.6593"/>
<polygon fill="#191970" stroke="#191970" points="1029.3409,-195.1575 1039.2378,-191.3759 1029.1427,-188.1603 1029.3409,-195.1575"/>
</g>
<!-- Node13 -->
<g id="node13" class="node">
<title>Node13</title>
<g id="a_node13"><a xlink:href="../../d5/d38/classG4ParticleDefinition.html#a521580d7f34f68e8475b519aa8650f9b" target="_top" xlink:title="G4ParticleDefinition\l::GetProcessManager">
<polygon fill="none" stroke="#000000" points="651,-141.5 651,-173.5 775,-173.5 775,-141.5 651,-141.5"/>
<text text-anchor="start" x="659" y="-160.5" font-family="FreeSans" font-size="10.00" fill="#000000">G4ParticleDefinition</text>
<text text-anchor="middle" x="713" y="-148.5" font-family="FreeSans" font-size="10.00" fill="#000000">::GetProcessManager</text>
</a>
</g>
</g>
<!-- Node2&#45;&gt;Node13 -->
<g id="edge12" class="edge">
<title>Node2&#45;&gt;Node13</title>
<path fill="none" stroke="#191970" d="M573.107,-190.4556C594.786,-185.3485 618.8367,-179.6827 640.7951,-174.5098"/>
<polygon fill="#191970" stroke="#191970" points="641.7899,-177.8714 650.7208,-172.1715 640.1847,-171.0579 641.7899,-177.8714"/>
</g>
<!-- Node7 -->
<g id="node7" class="node">
<title>Node7</title>
<g id="a_node7"><a xlink:href="../../d8/dd3/classG4ParticleTable.html#aba540bf07478ff0c30af3ee28d843041" target="_top" xlink:title="G4ParticleTable::WorkerG4\lParticleTable">
<polygon fill="none" stroke="#000000" points="833,-99.5 833,-131.5 984,-131.5 984,-99.5 833,-99.5"/>
<text text-anchor="start" x="841" y="-118.5" font-family="FreeSans" font-size="10.00" fill="#000000">G4ParticleTable::WorkerG4</text>
<text text-anchor="middle" x="908.5" y="-106.5" font-family="FreeSans" font-size="10.00" fill="#000000">ParticleTable</text>
</a>
</g>
</g>
<!-- Node6&#45;&gt;Node7 -->
<g id="edge6" class="edge">
<title>Node6&#45;&gt;Node7</title>
<path fill="none" stroke="#191970" d="M774.8054,-32.5927C782.4093,-35.2412 789.9713,-38.2116 797,-41.5 827.0958,-55.5804 858.3639,-77.0237 880.1017,-93.2088"/>
<polygon fill="#191970" stroke="#191970" points="878.1401,-96.1133 888.2295,-99.3467 882.3586,-90.5272 878.1401,-96.1133"/>
</g>
<!-- Node8 -->
<g id="node8" class="node">
<title>Node8</title>
<g id="a_node8"><a xlink:href="../../d8/dd3/classG4ParticleTable.html#ad3150940809a36b87123558264d30108" target="_top" xlink:title="G4ParticleTable::GetKey">
<polygon fill="none" stroke="#000000" points="1037,-44.5 1037,-64.5 1174,-64.5 1174,-44.5 1037,-44.5"/>
<text text-anchor="middle" x="1105.5" y="-51.5" font-family="FreeSans" font-size="10.00" fill="#000000">G4ParticleTable::GetKey</text>
</a>
</g>
</g>
<!-- Node7&#45;&gt;Node8 -->
<g id="edge7" class="edge">
<title>Node7&#45;&gt;Node8</title>
<path fill="none" stroke="#191970" d="M946.9984,-99.4576C968.2717,-90.9854 995.318,-80.8508 1020,-73.5 1027.9606,-71.1292 1036.4169,-68.905 1044.7948,-66.8729"/>
<polygon fill="#191970" stroke="#191970" points="1045.6252,-70.2732 1054.5593,-64.5783 1044.0238,-63.4588 1045.6252,-70.2732"/>
</g>
<!-- Node9 -->
<g id="node9" class="node">
<title>Node9</title>
<g id="a_node9"><a xlink:href="../../d5/d38/classG4ParticleDefinition.html#af84019c7513ca66581ed8b3651934467" target="_top" xlink:title="G4ParticleDefinition\l::GetPDGEncoding">
<polygon fill="none" stroke="#000000" points="1047.5,-122.5 1047.5,-154.5 1163.5,-154.5 1163.5,-122.5 1047.5,-122.5"/>
<text text-anchor="start" x="1055.5" y="-141.5" font-family="FreeSans" font-size="10.00" fill="#000000">G4ParticleDefinition</text>
<text text-anchor="middle" x="1105.5" y="-129.5" font-family="FreeSans" font-size="10.00" fill="#000000">::GetPDGEncoding</text>
</a>
</g>
</g>
<!-- Node7&#45;&gt;Node9 -->
<g id="edge8" class="edge">
<title>Node7&#45;&gt;Node9</title>
<path fill="none" stroke="#191970" d="M984.1019,-124.3266C1001.4442,-126.3514 1019.7891,-128.4931 1036.8206,-130.4816"/>
<polygon fill="#191970" stroke="#191970" points="1036.8962,-134.0141 1047.2347,-131.6974 1037.708,-127.0613 1036.8962,-134.0141"/>
</g>
<!-- Node7&#45;&gt;Node10 -->
<g id="edge9" class="edge">
<title>Node7&#45;&gt;Node10</title>
<path fill="none" stroke="#191970" d="M922.3114,-131.7982C941.8766,-153.884 979.7826,-193.1215 1020,-215.5 1023.2307,-217.2977 1026.6036,-218.9776 1030.064,-220.5462"/>
<polygon fill="#191970" stroke="#191970" points="1028.8142,-223.8171 1039.3906,-224.4422 1031.5124,-217.358 1028.8142,-223.8171"/>
</g>
<!-- Node7&#45;&gt;Node11 -->
<g id="edge10" class="edge">
<title>Node7&#45;&gt;Node11</title>
<path fill="none" stroke="#191970" d="M943.2497,-131.6453C965.0476,-141.4754 993.8756,-153.9383 1020,-163.5 1026.3629,-165.8288 1033.043,-168.1198 1039.7471,-170.3179"/>
<polygon fill="#191970" stroke="#191970" points="1038.9609,-173.7414 1049.5521,-173.4657 1041.1007,-167.0765 1038.9609,-173.7414"/>
</g>
<!-- Node12 -->
<g id="node12" class="node">
<title>Node12</title>
<g id="a_node12"><a xlink:href="../../da/d2b/classG4IonTable.html#a66f8ee295224ed611872572a0e47ab6e" target="_top" xlink:title="G4IonTable::WorkerG4IonTable">
<polygon fill="none" stroke="#000000" points="1020,-83.5 1020,-103.5 1191,-103.5 1191,-83.5 1020,-83.5"/>
<text text-anchor="middle" x="1105.5" y="-90.5" font-family="FreeSans" font-size="10.00" fill="#000000">G4IonTable::WorkerG4IonTable</text>
</a>
</g>
</g>
<!-- Node7&#45;&gt;Node12 -->
<g id="edge11" class="edge">
<title>Node7&#45;&gt;Node12</title>
<path fill="none" stroke="#191970" d="M984.1019,-107.0571C992.5247,-106.1165 1001.184,-105.1495 1009.8144,-104.1857"/>
<polygon fill="#191970" stroke="#191970" points="1010.3669,-107.6459 1019.9166,-103.0575 1009.5899,-100.6891 1010.3669,-107.6459"/>
</g>
<!-- Node15&#45;&gt;Node2 -->
<g id="edge18" class="edge">
<title>Node15&#45;&gt;Node2</title>
<path fill="none" stroke="#191970" d="M360.5536,-245.4439C384.0171,-239.1179 411.1277,-231.8087 435.4804,-225.243"/>
<polygon fill="#191970" stroke="#191970" points="436.6282,-228.5586 445.3724,-222.5761 434.806,-221.7999 436.6282,-228.5586"/>
</g>
<!-- Node16 -->
<g id="node16" class="node">
<title>Node16</title>
<g id="a_node16"><a xlink:href="../../d5/d2e/classG4ProcessManager.html#a0daefc70529e18ffa366844af55da9f4" target="_top" xlink:title="G4ProcessManager::GetAlong\lStepProcessVector">
<polygon fill="none" stroke="#000000" points="422,-296.5 422,-328.5 588,-328.5 588,-296.5 422,-296.5"/>
<text text-anchor="start" x="430" y="-315.5" font-family="FreeSans" font-size="10.00" fill="#000000">G4ProcessManager::GetAlong</text>
<text text-anchor="middle" x="505" y="-303.5" font-family="FreeSans" font-size="10.00" fill="#000000">StepProcessVector</text>
</a>
</g>
</g>
<!-- Node15&#45;&gt;Node16 -->
<g id="edge17" class="edge">
<title>Node15&#45;&gt;Node16</title>
<path fill="none" stroke="#191970" d="M365.2669,-277.5667C386.1303,-282.7826 409.4455,-288.6114 430.9618,-293.9904"/>
<polygon fill="#191970" stroke="#191970" points="430.1555,-297.3965 440.7058,-296.4264 431.8533,-290.6055 430.1555,-297.3965"/>
</g>
<!-- Node17 -->
<g id="node17" class="node">
<title>Node17</title>
<g id="a_node17"><a xlink:href="../../d9/dc5/classG4ProcessPlacer.html#ae4b44479090825724a24bdf28a018f8d" target="_top" xlink:title="G4ProcessPlacer::PrintProcVec">
<polygon fill="none" stroke="#000000" points="421,-257.5 421,-277.5 589,-277.5 589,-257.5 421,-257.5"/>
<text text-anchor="middle" x="505" y="-264.5" font-family="FreeSans" font-size="10.00" fill="#000000">G4ProcessPlacer::PrintProcVec</text>
</a>
</g>
</g>
<!-- Node15&#45;&gt;Node17 -->
<g id="edge19" class="edge">
<title>Node15&#45;&gt;Node17</title>
<path fill="none" stroke="#191970" d="M380.1637,-263.8283C390.1595,-264.1223 400.4638,-264.4254 410.6652,-264.7254"/>
<polygon fill="#191970" stroke="#191970" points="410.7185,-268.2284 420.8171,-265.024 410.9244,-261.2315 410.7185,-268.2284"/>
</g>
<!-- Node17&#45;&gt;Node3 -->
<g id="edge20" class="edge">
<title>Node17&#45;&gt;Node3</title>
<path fill="none" stroke="#191970" d="M589.002,-272.3463C614.0169,-273.7894 640.636,-275.3252 662.7718,-276.6022"/>
<polygon fill="#191970" stroke="#191970" points="662.7422,-280.1062 672.9273,-277.1881 663.1455,-273.1179 662.7422,-280.1062"/>
</g>
<!-- Node17&#45;&gt;Node14 -->
<g id="edge21" class="edge">
<title>Node17&#45;&gt;Node14</title>
<path fill="none" stroke="#191970" d="M572.9542,-277.5356C580.0417,-280.1384 586.8804,-283.4043 593,-287.5 616.0574,-302.9317 605.9347,-323.0802 629,-338.5 631.5889,-340.2308 634.3126,-341.8057 637.132,-343.2386"/>
<polygon fill="#191970" stroke="#191970" points="635.8532,-346.5001 646.414,-347.349 638.6876,-340.0996 635.8532,-346.5001"/>
</g>
<!-- Node18 -->
<g id="node18" class="node">
<title>Node18</title>
<g id="a_node18"><a xlink:href="../../d5/da4/classG4ProcessVector.html#adf726f897625f3dcc6d7e62c5ee8cd19" target="_top" xlink:title="G4ProcessVector::length">
<polygon fill="none" stroke="#000000" points="643.5,-308.5 643.5,-328.5 782.5,-328.5 782.5,-308.5 643.5,-308.5"/>
<text text-anchor="middle" x="713" y="-315.5" font-family="FreeSans" font-size="10.00" fill="#000000">G4ProcessVector::length</text>
</a>
</g>
</g>
<!-- Node17&#45;&gt;Node18 -->
<g id="edge22" class="edge">
<title>Node17&#45;&gt;Node18</title>
<path fill="none" stroke="#191970" d="M553.1703,-277.5499C566.1644,-280.5049 580.1745,-283.9143 593,-287.5 609.2426,-292.041 612.755,-294.9673 629,-299.5 637.371,-301.8357 646.271,-304.0902 655.0284,-306.18"/>
<polygon fill="#191970" stroke="#191970" points="654.2855,-309.6006 664.8193,-308.465 655.8765,-302.7838 654.2855,-309.6006"/>
</g>
<!-- Node19&#45;&gt;Node2 -->
<g id="edge25" class="edge">
<title>Node19&#45;&gt;Node2</title>
<path fill="none" stroke="#191970" d="M364.0057,-296.3271C369.9441,-293.7725 375.7125,-290.8455 381,-287.5 400.934,-274.8874 398.0138,-262.4989 417,-248.5 428.0749,-240.3342 440.9883,-233.1198 453.4564,-227.0758"/>
<polygon fill="#191970" stroke="#191970" points="455.2837,-230.0855 462.8661,-222.6857 452.324,-223.742 455.2837,-230.0855"/>
</g>
<!-- Node19&#45;&gt;Node16 -->
<g id="edge24" class="edge">
<title>Node19&#45;&gt;Node16</title>
<path fill="none" stroke="#191970" d="M380.1637,-312.5C390.5183,-312.5 401.2038,-312.5 411.7631,-312.5"/>
<polygon fill="#191970" stroke="#191970" points="411.8335,-316.0001 421.8335,-312.5 411.8334,-309.0001 411.8335,-316.0001"/>
</g>
<!-- Node19&#45;&gt;Node17 -->
<g id="edge26" class="edge">
<title>Node19&#45;&gt;Node17</title>
<path fill="none" stroke="#191970" d="M373.7847,-296.4445C398.7035,-290.9477 426.163,-284.8905 449.4938,-279.744"/>
<polygon fill="#191970" stroke="#191970" points="450.5472,-283.0959 459.5585,-277.5239 449.0393,-276.2602 450.5472,-283.0959"/>
</g>
<!-- Node20&#45;&gt;Node2 -->
<g id="edge29" class="edge">
<title>Node20&#45;&gt;Node2</title>
<path fill="none" stroke="#191970" d="M370.6347,-175.5433C388.2621,-179.6045 407.3283,-183.9972 425.4066,-188.1623"/>
<polygon fill="#191970" stroke="#191970" points="424.8025,-191.6148 435.3331,-190.4493 426.3741,-184.7934 424.8025,-191.6148"/>
</g>
<!-- Node20&#45;&gt;Node17 -->
<g id="edge30" class="edge">
<title>Node20&#45;&gt;Node17</title>
<path fill="none" stroke="#191970" d="M363.5193,-175.6373C369.6842,-178.4402 375.635,-181.7046 381,-185.5 402.4807,-200.6962 396.0189,-216.6211 417,-232.5 429.037,-241.6098 443.759,-248.6872 457.6918,-254.0182"/>
<polygon fill="#191970" stroke="#191970" points="456.5744,-257.3358 467.1688,-257.4334 458.9476,-250.7503 456.5744,-257.3358"/>
</g>
<!-- Node21 -->
<g id="node21" class="node">
<title>Node21</title>
<g id="a_node21"><a xlink:href="../../d5/d2e/classG4ProcessManager.html#a27de54c034033b955a6059d2c3aed6bd" target="_top" xlink:title="G4ProcessManager::GetPost\lStepProcessVector">
<polygon fill="none" stroke="#000000" points="425.5,-139.5 425.5,-171.5 584.5,-171.5 584.5,-139.5 425.5,-139.5"/>
<text text-anchor="start" x="433.5" y="-158.5" font-family="FreeSans" font-size="10.00" fill="#000000">G4ProcessManager::GetPost</text>
<text text-anchor="middle" x="505" y="-146.5" font-family="FreeSans" font-size="10.00" fill="#000000">StepProcessVector</text>
</a>
</g>
</g>
<!-- Node20&#45;&gt;Node21 -->
<g id="edge28" class="edge">
<title>Node20&#45;&gt;Node21</title>
<path fill="none" stroke="#191970" d="M376.6722,-158.0162C389.1984,-157.7706 402.2932,-157.5139 415.1282,-157.2622"/>
<polygon fill="#191970" stroke="#191970" points="415.4206,-160.7572 425.35,-157.0618 415.2833,-153.7586 415.4206,-160.7572"/>
</g>
<!-- Node22&#45;&gt;Node2 -->
<g id="edge33" class="edge">
<title>Node22&#45;&gt;Node2</title>
<path fill="none" stroke="#191970" d="M376.6722,-209.0162C388.72,-208.78 401.2939,-208.5335 413.6566,-208.291"/>
<polygon fill="#191970" stroke="#191970" points="414.046,-211.7842 423.9755,-208.0887 413.9087,-204.7855 414.046,-211.7842"/>
</g>
<!-- Node22&#45;&gt;Node17 -->
<g id="edge34" class="edge">
<title>Node22&#45;&gt;Node17</title>
<path fill="none" stroke="#191970" d="M358.3683,-226.5294C390.3437,-235.4637 429.6083,-246.4347 459.4567,-254.7747"/>
<polygon fill="#191970" stroke="#191970" points="458.6211,-258.1752 469.1941,-257.4954 460.5049,-251.4334 458.6211,-258.1752"/>
</g>
<!-- Node22&#45;&gt;Node21 -->
<g id="edge32" class="edge">
<title>Node22&#45;&gt;Node21</title>
<path fill="none" stroke="#191970" d="M360.5536,-194.4439C384.0171,-188.1179 411.1277,-180.8087 435.4804,-174.243"/>
<polygon fill="#191970" stroke="#191970" points="436.6282,-177.5586 445.3724,-171.5761 434.806,-170.7999 436.6282,-177.5586"/>
</g>
<!-- Node24 -->
<g id="node24" class="node">
<title>Node24</title>
<g id="a_node24"><a xlink:href="../../d5/d2e/classG4ProcessManager.html#a86fa6d1da65aaf05282760ddee51c37d" target="_top" xlink:title="G4ProcessManager::GetProcess\lIndex">
<polygon fill="none" stroke="#000000" points="417,-53.5 417,-85.5 593,-85.5 593,-53.5 417,-53.5"/>
<text text-anchor="start" x="425" y="-72.5" font-family="FreeSans" font-size="10.00" fill="#000000">G4ProcessManager::GetProcess</text>
<text text-anchor="middle" x="505" y="-60.5" font-family="FreeSans" font-size="10.00" fill="#000000">Index</text>
</a>
</g>
</g>
<!-- Node23&#45;&gt;Node24 -->
<g id="edge36" class="edge">
<title>Node23&#45;&gt;Node24</title>
<path fill="none" stroke="#191970" d="M381.0407,-69.5C389.4649,-69.5 398.0988,-69.5 406.6977,-69.5"/>
<polygon fill="#191970" stroke="#191970" points="406.7612,-73.0001 416.7612,-69.5 406.7612,-66.0001 406.7612,-73.0001"/>
</g>
</g>
</svg>
