<?xml version="1.0" encoding="UTF-8" standalone="no"?>
<!DOCTYPE svg PUBLIC "-//W3C//DTD SVG 1.1//EN"
 "http://www.w3.org/Graphics/SVG/1.1/DTD/svg11.dtd">
<!-- Generated by graphviz version 2.40.1 (20161225.0304)
 -->
<!-- Title: G4TScoreNtupleWriterMessenger&lt; T &gt; Pages: 1 -->
<svg width="1910pt" height="397pt"
 viewBox="0.00 0.00 1910.00 396.50" xmlns="http://www.w3.org/2000/svg" xmlns:xlink="http://www.w3.org/1999/xlink">
<g id="graph0" class="graph" transform="scale(1 1) rotate(0) translate(4 392.5)">
<title>G4TScoreNtupleWriterMessenger&lt; T &gt;</title>
<!-- Node1 -->
<g id="node1" class="node">
<title>Node1</title>
<polygon fill="#bfbfbf" stroke="#000000" points="1689,-270.5 1689,-290.5 1902,-290.5 1902,-270.5 1689,-270.5"/>
<text text-anchor="middle" x="1795.5" y="-277.5" font-family="FreeSans" font-size="10.00" fill="#000000">G4TScoreNtupleWriterMessenger&lt; T &gt;</text>
</g>
<!-- Node2 -->
<g id="node2" class="node">
<title>Node2</title>
<g id="a_node2"><a xlink:href="../../d7/d0e/classG4UImessenger.html" target="_top" xlink:title="G4UImessenger">
<polygon fill="none" stroke="#000000" points="1011.5,-331.5 1011.5,-351.5 1109.5,-351.5 1109.5,-331.5 1011.5,-331.5"/>
<text text-anchor="middle" x="1060.5" y="-338.5" font-family="FreeSans" font-size="10.00" fill="#000000">G4UImessenger</text>
</a>
</g>
</g>
<!-- Node2&#45;&gt;Node1 -->
<g id="edge1" class="edge">
<title>Node2&#45;&gt;Node1</title>
<path fill="none" stroke="#191970" d="M1119.7097,-342.4542C1229.2539,-343.3227 1470.6578,-341.037 1671,-309.5 1700.8156,-304.8066 1734.0893,-296.9153 1758.7322,-290.5486"/>
<polygon fill="#191970" stroke="#191970" points="1119.5577,-338.9527 1109.5261,-342.3611 1119.4937,-345.9524 1119.5577,-338.9527"/>
</g>
<!-- Node4 -->
<g id="node4" class="node">
<title>Node4</title>
<g id="a_node4"><a xlink:href="../../d2/dd2/classG4UIcommand.html" target="_top" xlink:title="G4UIcommand">
<polygon fill="none" stroke="#000000" points="1281,-211.5 1281,-231.5 1372,-231.5 1372,-211.5 1281,-211.5"/>
<text text-anchor="middle" x="1326.5" y="-218.5" font-family="FreeSans" font-size="10.00" fill="#000000">G4UIcommand</text>
</a>
</g>
</g>
<!-- Node2&#45;&gt;Node4 -->
<g id="edge17" class="edge">
<title>Node2&#45;&gt;Node4</title>
<path fill="none" stroke="#9a32cd" stroke-dasharray="5,2" d="M1094.4134,-327.7025C1115.3978,-319.461 1143.0131,-309.144 1168,-301.5 1209.5416,-288.7917 1224.5582,-298.7346 1263,-278.5 1285.8099,-266.4935 1306.948,-244.4758 1318.1493,-231.6025"/>
<polygon fill="#9a32cd" stroke="#9a32cd" points="1092.9851,-324.5037 1084.9792,-331.4431 1095.5652,-331.0108 1092.9851,-324.5037"/>
<text text-anchor="middle" x="1215.5" y="-304.5" font-family="FreeSans" font-size="10.00" fill="#000000"> messenger</text>
</g>
<!-- Node3 -->
<g id="node3" class="node">
<title>Node3</title>
<g id="a_node3"><a xlink:href="../../d3/dd7/classG4UIdirectory.html" target="_top" xlink:title="G4UIdirectory">
<polygon fill="none" stroke="#000000" points="1434,-289.5 1434,-309.5 1520,-309.5 1520,-289.5 1434,-289.5"/>
<text text-anchor="middle" x="1477" y="-296.5" font-family="FreeSans" font-size="10.00" fill="#000000">G4UIdirectory</text>
</a>
</g>
</g>
<!-- Node3&#45;&gt;Node1 -->
<g id="edge26" class="edge">
<title>Node3&#45;&gt;Node1</title>
<path fill="none" stroke="#9a32cd" stroke-dasharray="5,2" d="M1530.281,-296.3215C1573.4226,-293.7479 1635.5618,-290.0411 1688.8494,-286.8622"/>
<polygon fill="#9a32cd" stroke="#9a32cd" points="1530.0596,-292.8284 1520.2858,-296.9178 1530.4765,-299.816 1530.0596,-292.8284"/>
<text text-anchor="middle" x="1617" y="-296.5" font-family="FreeSans" font-size="10.00" fill="#000000"> fDirectory</text>
</g>
<!-- Node3&#45;&gt;Node2 -->
<g id="edge2" class="edge">
<title>Node3&#45;&gt;Node2</title>
<path fill="none" stroke="#9a32cd" stroke-dasharray="5,2" d="M1423.8148,-304.8632C1342.4592,-313.0671 1188.2772,-328.6149 1109.5026,-336.5586"/>
<polygon fill="#9a32cd" stroke="#9a32cd" points="1424.2439,-308.3378 1433.8422,-303.852 1423.5415,-301.3731 1424.2439,-308.3378"/>
<text text-anchor="middle" x="1326.5" y="-321.5" font-family="FreeSans" font-size="10.00" fill="#000000"> baseDir</text>
</g>
<!-- Node4&#45;&gt;Node3 -->
<g id="edge3" class="edge">
<title>Node4&#45;&gt;Node3</title>
<path fill="none" stroke="#191970" d="M1345.9972,-238.4493C1361.9779,-251.5704 1385.6842,-269.3336 1409,-280.5 1416.7387,-284.2062 1425.3295,-287.3062 1433.7279,-289.8544"/>
<polygon fill="#191970" stroke="#191970" points="1347.8753,-235.4563 1337.9653,-231.7087 1343.3753,-240.8182 1347.8753,-235.4563"/>
</g>
<!-- Node14 -->
<g id="node14" class="node">
<title>Node14</title>
<g id="a_node14"><a xlink:href="../../d0/da4/classG4UIcmdWithAnInteger.html" target="_top" xlink:title="G4UIcmdWithAnInteger">
<polygon fill="none" stroke="#000000" points="1409,-250.5 1409,-270.5 1545,-270.5 1545,-250.5 1409,-250.5"/>
<text text-anchor="middle" x="1477" y="-257.5" font-family="FreeSans" font-size="10.00" fill="#000000">G4UIcmdWithAnInteger</text>
</a>
</g>
</g>
<!-- Node4&#45;&gt;Node14 -->
<g id="edge23" class="edge">
<title>Node4&#45;&gt;Node14</title>
<path fill="none" stroke="#191970" d="M1375.045,-234.0798C1395.5448,-239.392 1419.0827,-245.4915 1438.3738,-250.4906"/>
<polygon fill="#191970" stroke="#191970" points="1375.8158,-230.664 1365.2575,-231.5435 1374.0597,-237.4401 1375.8158,-230.664"/>
</g>
<!-- Node15 -->
<g id="node15" class="node">
<title>Node15</title>
<g id="a_node15"><a xlink:href="../../d0/d84/classG4UIcmdWithAString.html" target="_top" xlink:title="G4UIcmdWithAString">
<polygon fill="none" stroke="#000000" points="1416,-211.5 1416,-231.5 1538,-231.5 1538,-211.5 1416,-211.5"/>
<text text-anchor="middle" x="1477" y="-218.5" font-family="FreeSans" font-size="10.00" fill="#000000">G4UIcmdWithAString</text>
</a>
</g>
</g>
<!-- Node4&#45;&gt;Node15 -->
<g id="edge25" class="edge">
<title>Node4&#45;&gt;Node15</title>
<path fill="none" stroke="#191970" d="M1382.3026,-221.5C1393.2032,-221.5 1404.6883,-221.5 1415.7545,-221.5"/>
<polygon fill="#191970" stroke="#191970" points="1382.0634,-218.0001 1372.0634,-221.5 1382.0633,-225.0001 1382.0634,-218.0001"/>
</g>
<!-- Node5 -->
<g id="node5" class="node">
<title>Node5</title>
<polygon fill="none" stroke="#bfbfbf" points="552,-230.5 552,-250.5 689,-250.5 689,-230.5 552,-230.5"/>
<text text-anchor="middle" x="620.5" y="-237.5" font-family="FreeSans" font-size="10.00" fill="#000000">std::vector&lt; G4String &gt;</text>
</g>
<!-- Node5&#45;&gt;Node4 -->
<g id="edge4" class="edge">
<title>Node5&#45;&gt;Node4</title>
<path fill="none" stroke="#9a32cd" stroke-dasharray="5,2" d="M699.5306,-238.3731C847.6803,-234.3861 1162.821,-225.905 1280.719,-222.7321"/>
<polygon fill="#9a32cd" stroke="#9a32cd" points="699.0596,-234.8844 689.1574,-238.6523 699.248,-241.8819 699.0596,-234.8844"/>
<text text-anchor="middle" x="886.5" y="-237.5" font-family="FreeSans" font-size="10.00" fill="#000000"> commandGuidance</text>
</g>
<!-- Node6 -->
<g id="node6" class="node">
<title>Node6</title>
<g id="a_node6"><a xlink:href="../../d5/d72/classG4String.html" target="_top" xlink:title="G4String">
<polygon fill="none" stroke="#000000" points="248,-239.5 248,-259.5 308,-259.5 308,-239.5 248,-239.5"/>
<text text-anchor="middle" x="278" y="-246.5" font-family="FreeSans" font-size="10.00" fill="#000000">G4String</text>
</a>
</g>
</g>
<!-- Node6&#45;&gt;Node2 -->
<g id="edge21" class="edge">
<title>Node6&#45;&gt;Node2</title>
<path fill="none" stroke="#9a32cd" stroke-dasharray="5,2" d="M289.6459,-267.9809C298.1646,-279.7602 310.8515,-294.1454 326,-301.5 560.6479,-415.4207 888.426,-373.0205 1011.357,-351.2229"/>
<polygon fill="#9a32cd" stroke="#9a32cd" points="292.4909,-265.9403 283.9723,-259.6408 286.7031,-269.8776 292.4909,-265.9403"/>
<text text-anchor="middle" x="620.5" y="-379.5" font-family="FreeSans" font-size="10.00" fill="#000000"> baseDirName</text>
</g>
<!-- Node6&#45;&gt;Node4 -->
<g id="edge16" class="edge">
<title>Node6&#45;&gt;Node4</title>
<path fill="none" stroke="#9a32cd" stroke-dasharray="5,2" d="M317.2831,-261.9239C320.2124,-262.5525 323.14,-263.0914 326,-263.5 348.4389,-266.7056 354.3336,-263.609 377,-263.5 515.6715,-262.8333 550.366,-263.7915 689,-260.5 806.3844,-257.713 835.6728,-255.1044 953,-250.5 1040.5603,-247.0638 1062.451,-246.2146 1150,-242.5 1200.2262,-240.369 1213.26,-244.7899 1263,-237.5 1272.5614,-236.0987 1282.774,-233.864 1292.1512,-231.5039"/>
<polygon fill="#9a32cd" stroke="#9a32cd" points="317.9588,-258.486 307.4128,-259.5012 316.2901,-265.2842 317.9588,-258.486"/>
<text text-anchor="middle" x="754.5" y="-310.5" font-family="FreeSans" font-size="10.00" fill="#000000"> failureDescription</text>
<text text-anchor="middle" x="754.5" y="-298.5" font-family="FreeSans" font-size="10.00" fill="#000000">commandPath</text>
<text text-anchor="middle" x="754.5" y="-286.5" font-family="FreeSans" font-size="10.00" fill="#000000">rangeBuf</text>
<text text-anchor="middle" x="754.5" y="-274.5" font-family="FreeSans" font-size="10.00" fill="#000000">rangeString</text>
<text text-anchor="middle" x="754.5" y="-262.5" font-family="FreeSans" font-size="10.00" fill="#000000">commandName</text>
</g>
<!-- Node6&#45;&gt;Node5 -->
<g id="edge5" class="edge">
<title>Node6&#45;&gt;Node5</title>
<path fill="none" stroke="#9a32cd" stroke-dasharray="5,2" d="M318.2292,-248.4429C375.656,-246.9339 481.9136,-244.1417 551.9073,-242.3024"/>
<polygon fill="#9a32cd" stroke="#9a32cd" points="317.999,-244.9476 308.0944,-248.7092 318.1829,-251.9452 317.999,-244.9476"/>
<text text-anchor="middle" x="351.5" y="-250.5" font-family="FreeSans" font-size="10.00" fill="#000000"> elements</text>
</g>
<!-- Node11 -->
<g id="node11" class="node">
<title>Node11</title>
<g id="a_node11"><a xlink:href="../../d9/d78/classG4UIparameter.html" target="_top" xlink:title="G4UIparameter">
<polygon fill="none" stroke="#000000" points="707,-164.5 707,-184.5 802,-184.5 802,-164.5 707,-164.5"/>
<text text-anchor="middle" x="754.5" y="-171.5" font-family="FreeSans" font-size="10.00" fill="#000000">G4UIparameter</text>
</a>
</g>
</g>
<!-- Node6&#45;&gt;Node11 -->
<g id="edge13" class="edge">
<title>Node6&#45;&gt;Node11</title>
<path fill="none" stroke="#9a32cd" stroke-dasharray="5,2" d="M294.9896,-232.1345C316.1899,-211.8336 354.6017,-179.3741 395,-166.5 423.8856,-157.2948 615.9211,-166.6653 706.8825,-171.7214"/>
<polygon fill="#9a32cd" stroke="#9a32cd" points="292.4224,-229.7501 287.7389,-239.2535 297.3266,-234.745 292.4224,-229.7501"/>
<text text-anchor="middle" x="464.5" y="-229.5" font-family="FreeSans" font-size="10.00" fill="#000000"> parameterRange</text>
<text text-anchor="middle" x="464.5" y="-217.5" font-family="FreeSans" font-size="10.00" fill="#000000">defaultValue</text>
<text text-anchor="middle" x="464.5" y="-205.5" font-family="FreeSans" font-size="10.00" fill="#000000">parameterGuidance</text>
<text text-anchor="middle" x="464.5" y="-193.5" font-family="FreeSans" font-size="10.00" fill="#000000">rangeBuf</text>
<text text-anchor="middle" x="464.5" y="-181.5" font-family="FreeSans" font-size="10.00" fill="#000000">parameterName</text>
<text text-anchor="middle" x="464.5" y="-169.5" font-family="FreeSans" font-size="10.00" fill="#000000">parameterCandidate</text>
</g>
<!-- Node12 -->
<g id="node12" class="node">
<title>Node12</title>
<g id="a_node12"><a xlink:href="../../d3/df5/structG4UItokenNum_1_1yystype.html" target="_top" xlink:title="G4UItokenNum::yystype">
<polygon fill="none" stroke="#000000" points="395,-92.5 395,-112.5 534,-112.5 534,-92.5 395,-92.5"/>
<text text-anchor="middle" x="464.5" y="-99.5" font-family="FreeSans" font-size="10.00" fill="#000000">G4UItokenNum::yystype</text>
</a>
</g>
</g>
<!-- Node6&#45;&gt;Node12 -->
<g id="edge15" class="edge">
<title>Node6&#45;&gt;Node12</title>
<path fill="none" stroke="#9a32cd" stroke-dasharray="5,2" d="M279.551,-229.399C282.8867,-201.0458 293.3447,-149.8342 326,-123.5 345.1205,-108.0807 370.712,-101.5594 394.6921,-99.3152"/>
<polygon fill="#9a32cd" stroke="#9a32cd" points="276.0661,-229.0739 278.5638,-239.3701 283.0321,-229.7636 276.0661,-229.0739"/>
<text text-anchor="middle" x="351.5" y="-126.5" font-family="FreeSans" font-size="10.00" fill="#000000"> S</text>
</g>
<!-- Node7 -->
<g id="node7" class="node">
<title>Node7</title>
<g id="a_node7"><a xlink:title="STL class.">
<polygon fill="none" stroke="#bfbfbf" points="144,-239.5 144,-259.5 211,-259.5 211,-239.5 144,-239.5"/>
<text text-anchor="middle" x="177.5" y="-246.5" font-family="FreeSans" font-size="10.00" fill="#000000">std::string</text>
</a>
</g>
</g>
<!-- Node7&#45;&gt;Node6 -->
<g id="edge6" class="edge">
<title>Node7&#45;&gt;Node6</title>
<path fill="none" stroke="#191970" d="M202.7399,-237.6121C221.5639,-234.966 246.6728,-235.5774 262.5926,-239.4462"/>
<polygon fill="#191970" stroke="#191970" points="201.9481,-234.1995 192.7638,-239.4813 203.2373,-241.0797 201.9481,-234.1995"/>
</g>
<!-- Node7&#45;&gt;Node6 -->
<g id="edge8" class="edge">
<title>Node7&#45;&gt;Node6</title>
<path fill="none" stroke="#191970" d="M221.5114,-249.5C230.4194,-249.5 239.5931,-249.5 247.8892,-249.5"/>
<polygon fill="#191970" stroke="#191970" points="221.2447,-246.0001 211.2446,-249.5 221.2446,-253.0001 221.2447,-246.0001"/>
</g>
<!-- Node7&#45;&gt;Node6 -->
<g id="edge9" class="edge">
<title>Node7&#45;&gt;Node6</title>
<path fill="none" stroke="#191970" d="M202.7399,-261.3879C221.5639,-264.034 246.6728,-263.4226 262.5926,-259.5538"/>
<polygon fill="#191970" stroke="#191970" points="203.2373,-257.9203 192.7638,-259.5187 201.9481,-264.8005 203.2373,-257.9203"/>
</g>
<!-- Node8 -->
<g id="node8" class="node">
<title>Node8</title>
<g id="a_node8"><a xlink:title="STL class.">
<polygon fill="none" stroke="#bfbfbf" points="0,-233.5 0,-265.5 107,-265.5 107,-233.5 0,-233.5"/>
<text text-anchor="start" x="8" y="-252.5" font-family="FreeSans" font-size="10.00" fill="#000000">std::basic_string&lt;</text>
<text text-anchor="middle" x="53.5" y="-240.5" font-family="FreeSans" font-size="10.00" fill="#000000"> char &gt;</text>
</a>
</g>
</g>
<!-- Node8&#45;&gt;Node7 -->
<g id="edge7" class="edge">
<title>Node8&#45;&gt;Node7</title>
<path fill="none" stroke="#191970" d="M117.4289,-249.5C126.5342,-249.5 135.584,-249.5 143.7918,-249.5"/>
<polygon fill="#191970" stroke="#191970" points="117.167,-246.0001 107.167,-249.5 117.167,-253.0001 117.167,-246.0001"/>
</g>
<!-- Node9 -->
<g id="node9" class="node">
<title>Node9</title>
<polygon fill="none" stroke="#bfbfbf" points="984,-.5 984,-32.5 1137,-32.5 1137,-.5 984,-.5"/>
<text text-anchor="start" x="992" y="-19.5" font-family="FreeSans" font-size="10.00" fill="#000000">std::vector&lt; G4Application</text>
<text text-anchor="middle" x="1060.5" y="-7.5" font-family="FreeSans" font-size="10.00" fill="#000000">State &gt;</text>
</g>
<!-- Node9&#45;&gt;Node4 -->
<g id="edge10" class="edge">
<title>Node9&#45;&gt;Node4</title>
<path fill="none" stroke="#9a32cd" stroke-dasharray="5,2" d="M1147.5922,-8.6809C1186.6998,-9.6955 1231.1104,-17.6942 1263,-43.5 1290.5458,-65.7907 1316.8146,-177.1866 1324.3511,-211.4535"/>
<polygon fill="#9a32cd" stroke="#9a32cd" points="1147.2853,-5.1774 1137.2478,-8.5685 1147.2092,-12.177 1147.2853,-5.1774"/>
<text text-anchor="middle" x="1215.5" y="-46.5" font-family="FreeSans" font-size="10.00" fill="#000000"> availabelStateList</text>
</g>
<!-- Node10 -->
<g id="node10" class="node">
<title>Node10</title>
<polygon fill="none" stroke="#bfbfbf" points="971,-172.5 971,-192.5 1150,-192.5 1150,-172.5 971,-172.5"/>
<text text-anchor="middle" x="1060.5" y="-179.5" font-family="FreeSans" font-size="10.00" fill="#000000">std::vector&lt; G4UIparameter * &gt;</text>
</g>
<!-- Node10&#45;&gt;Node4 -->
<g id="edge11" class="edge">
<title>Node10&#45;&gt;Node4</title>
<path fill="none" stroke="#9a32cd" stroke-dasharray="5,2" d="M1160.2421,-182.4884C1193.2798,-184.179 1230.0219,-187.9046 1263,-195.5 1278.2074,-199.0025 1294.4788,-205.7287 1306.7432,-211.4621"/>
<polygon fill="#9a32cd" stroke="#9a32cd" points="1160.2653,-178.9859 1150.1163,-182.027 1159.9466,-185.9787 1160.2653,-178.9859"/>
<text text-anchor="middle" x="1215.5" y="-198.5" font-family="FreeSans" font-size="10.00" fill="#000000"> parameter</text>
</g>
<!-- Node11&#45;&gt;Node10 -->
<g id="edge12" class="edge">
<title>Node11&#45;&gt;Node10</title>
<path fill="none" stroke="#9a32cd" stroke-dasharray="5,2" d="M812.4148,-176.0141C857.1013,-177.1824 919.717,-178.8194 970.8606,-180.1565"/>
<polygon fill="#9a32cd" stroke="#9a32cd" points="812.4006,-172.5126 802.3125,-175.75 812.2176,-179.5102 812.4006,-172.5126"/>
<text text-anchor="middle" x="886.5" y="-182.5" font-family="FreeSans" font-size="10.00" fill="#000000"> elements</text>
</g>
<!-- Node12&#45;&gt;Node4 -->
<g id="edge20" class="edge">
<title>Node12&#45;&gt;Node4</title>
<path fill="none" stroke="#9a32cd" stroke-dasharray="5,2" d="M544.4252,-106.7188C587.3195,-109.176 641.0778,-112.5644 689,-116.5 894.26,-133.3569 945.4519,-139.5023 1150,-163.5 1200.3177,-169.4033 1215.6495,-160.4821 1263,-178.5 1283.1587,-186.1709 1303.2327,-201.3527 1315.2567,-211.4676"/>
<polygon fill="#9a32cd" stroke="#9a32cd" points="544.5091,-103.218 534.3269,-106.1459 544.1126,-110.2068 544.5091,-103.218"/>
<text text-anchor="middle" x="886.5" y="-143.5" font-family="FreeSans" font-size="10.00" fill="#000000"> yylval</text>
</g>
<!-- Node12&#45;&gt;Node11 -->
<g id="edge14" class="edge">
<title>Node12&#45;&gt;Node11</title>
<path fill="none" stroke="#9a32cd" stroke-dasharray="5,2" d="M544.2283,-113.0917C603.1099,-121.1653 675.3112,-131.6885 689,-136.5 708.1003,-143.2136 727.9236,-155.6012 740.688,-164.4068"/>
<polygon fill="#9a32cd" stroke="#9a32cd" points="544.5383,-109.6016 534.1568,-111.7167 543.5914,-116.5373 544.5383,-109.6016"/>
<text text-anchor="middle" x="620.5" y="-151.5" font-family="FreeSans" font-size="10.00" fill="#000000"> newVal</text>
<text text-anchor="middle" x="620.5" y="-139.5" font-family="FreeSans" font-size="10.00" fill="#000000">yylval</text>
</g>
<!-- Node13 -->
<g id="node13" class="node">
<title>Node13</title>
<polygon fill="none" stroke="#bfbfbf" points="820,-59.5 820,-79.5 953,-79.5 953,-59.5 820,-59.5"/>
<text text-anchor="middle" x="886.5" y="-66.5" font-family="FreeSans" font-size="10.00" fill="#000000">std::vector&lt; yystype &gt;</text>
</g>
<!-- Node12&#45;&gt;Node13 -->
<g id="edge19" class="edge">
<title>Node12&#45;&gt;Node13</title>
<path fill="none" stroke="#9a32cd" stroke-dasharray="5,2" d="M501.3444,-89.1638C516.7794,-84.2064 535.0456,-79.1471 552,-76.5 643.9681,-62.1411 751.8691,-63.016 819.7184,-65.6791"/>
<polygon fill="#9a32cd" stroke="#9a32cd" points="500.0409,-85.9086 491.6524,-92.3805 502.2459,-92.5523 500.0409,-85.9086"/>
<text text-anchor="middle" x="620.5" y="-79.5" font-family="FreeSans" font-size="10.00" fill="#000000"> elements</text>
</g>
<!-- Node13&#45;&gt;Node4 -->
<g id="edge18" class="edge">
<title>Node13&#45;&gt;Node4</title>
<path fill="none" stroke="#9a32cd" stroke-dasharray="5,2" d="M939.2397,-57.5505C1017.4393,-43.0069 1165.3869,-28.0164 1263,-95.5 1303.9035,-123.7781 1319.8654,-186.4376 1324.7214,-211.1705"/>
<polygon fill="#9a32cd" stroke="#9a32cd" points="938.2952,-54.1681 929.1394,-59.4993 939.6214,-61.0414 938.2952,-54.1681"/>
<text text-anchor="middle" x="1060.5" y="-55.5" font-family="FreeSans" font-size="10.00" fill="#000000"> newVal</text>
</g>
<!-- Node14&#45;&gt;Node1 -->
<g id="edge22" class="edge">
<title>Node14&#45;&gt;Node1</title>
<path fill="none" stroke="#9a32cd" stroke-dasharray="5,2" d="M1555.4951,-264.6731C1590.8072,-266.622 1633.0062,-269.0497 1671,-271.5 1676.839,-271.8766 1682.8313,-272.2738 1688.8795,-272.6832"/>
<polygon fill="#9a32cd" stroke="#9a32cd" points="1555.4268,-261.1642 1545.2499,-264.1105 1555.0429,-268.1537 1555.4268,-261.1642"/>
<text text-anchor="middle" x="1617" y="-274.5" font-family="FreeSans" font-size="10.00" fill="#000000"> fWriterVerboseCmd</text>
</g>
<!-- Node15&#45;&gt;Node1 -->
<g id="edge24" class="edge">
<title>Node15&#45;&gt;Node1</title>
<path fill="none" stroke="#9a32cd" stroke-dasharray="5,2" d="M1548.1686,-229.4441C1584.9998,-234.05 1630.5952,-240.5224 1671,-248.5 1701.6522,-254.552 1736.0131,-263.555 1760.859,-270.4713"/>
<polygon fill="#9a32cd" stroke="#9a32cd" points="1548.3772,-225.9434 1538.0243,-228.1948 1547.5215,-232.891 1548.3772,-225.9434"/>
<text text-anchor="middle" x="1617" y="-251.5" font-family="FreeSans" font-size="10.00" fill="#000000"> fWriterFileNameCmd</text>
</g>
</g>
</svg>
