<?xml version="1.0" encoding="UTF-8" standalone="no"?>
<!DOCTYPE svg PUBLIC "-//W3C//DTD SVG 1.1//EN"
 "http://www.w3.org/Graphics/SVG/1.1/DTD/svg11.dtd">
<!-- Generated by graphviz version 2.40.1 (20161225.0304)
 -->
<!-- Title: DetectorConstructionMessenger::DetectorConstructionMessenger Pages: 1 -->
<svg width="1622pt" height="654pt"
 viewBox="0.00 0.00 1622.00 653.66" xmlns="http://www.w3.org/2000/svg" xmlns:xlink="http://www.w3.org/1999/xlink">
<g id="graph0" class="graph" transform="scale(1 1) rotate(0) translate(4 649.6632)">
<title>DetectorConstructionMessenger::DetectorConstructionMessenger</title>
<!-- Node1 -->
<g id="node1" class="node">
<title>Node1</title>
<polygon fill="#bfbfbf" stroke="#000000" points="0,-126.5 0,-158.5 186,-158.5 186,-126.5 0,-126.5"/>
<text text-anchor="start" x="8" y="-145.5" font-family="FreeSans" font-size="10.00" fill="#000000">DetectorConstructionMessenger</text>
<text text-anchor="middle" x="93" y="-133.5" font-family="FreeSans" font-size="10.00" fill="#000000">::DetectorConstructionMessenger</text>
</g>
<!-- Node2 -->
<g id="node2" class="node">
<title>Node2</title>
<g id="a_node2"><a xlink:href="../../d0/db2/classG4UIcmdWith3VectorAndUnit.html#a4d80da39e79edb7c7458e530eaf3d008" target="_top" xlink:title="G4UIcmdWith3VectorAndUnit\l::SetDefaultUnit">
<polygon fill="none" stroke="#000000" points="222,-352.5 222,-384.5 387,-384.5 387,-352.5 222,-352.5"/>
<text text-anchor="start" x="230" y="-371.5" font-family="FreeSans" font-size="10.00" fill="#000000">G4UIcmdWith3VectorAndUnit</text>
<text text-anchor="middle" x="304.5" y="-359.5" font-family="FreeSans" font-size="10.00" fill="#000000">::SetDefaultUnit</text>
</a>
</g>
</g>
<!-- Node1&#45;&gt;Node2 -->
<g id="edge1" class="edge">
<title>Node1&#45;&gt;Node2</title>
<path fill="none" stroke="#191970" d="M100.6915,-158.6252C117.9986,-193.4726 163.1363,-276.7458 222,-327.5 231.1795,-335.4149 242.1537,-342.2366 253.0556,-347.9187"/>
<polygon fill="#191970" stroke="#191970" points="251.6404,-351.1235 262.1553,-352.4227 254.7456,-344.8499 251.6404,-351.1235"/>
</g>
<!-- Node23 -->
<g id="node23" class="node">
<title>Node23</title>
<g id="a_node23"><a xlink:href="../../d0/d84/classG4UIcmdWithAString.html#ab44aec76b1569f7bfac05547c78a97e4" target="_top" xlink:title="G4UIcmdWithAString\l::SetDefaultValue">
<polygon fill="none" stroke="#000000" points="243.5,-285.5 243.5,-317.5 365.5,-317.5 365.5,-285.5 243.5,-285.5"/>
<text text-anchor="start" x="251.5" y="-304.5" font-family="FreeSans" font-size="10.00" fill="#000000">G4UIcmdWithAString</text>
<text text-anchor="middle" x="304.5" y="-292.5" font-family="FreeSans" font-size="10.00" fill="#000000">::SetDefaultValue</text>
</a>
</g>
</g>
<!-- Node1&#45;&gt;Node23 -->
<g id="edge26" class="edge">
<title>Node1&#45;&gt;Node23</title>
<path fill="none" stroke="#191970" d="M114.4437,-158.6208C152.4472,-187.1908 231.6722,-246.75 274.8645,-279.2208"/>
<polygon fill="#191970" stroke="#191970" points="272.9032,-282.1251 282.9996,-285.3366 277.1096,-276.5298 272.9032,-282.1251"/>
</g>
<!-- Node24 -->
<g id="node24" class="node">
<title>Node24</title>
<g id="a_node24"><a xlink:href="../../d0/db2/classG4UIcmdWith3VectorAndUnit.html#acd7fea78d55b90360c53718e2504b7d7" target="_top" xlink:title="G4UIcmdWith3VectorAndUnit\l::SetDefaultValue">
<polygon fill="none" stroke="#000000" points="222,-181.5 222,-213.5 387,-213.5 387,-181.5 222,-181.5"/>
<text text-anchor="start" x="230" y="-200.5" font-family="FreeSans" font-size="10.00" fill="#000000">G4UIcmdWith3VectorAndUnit</text>
<text text-anchor="middle" x="304.5" y="-188.5" font-family="FreeSans" font-size="10.00" fill="#000000">::SetDefaultValue</text>
</a>
</g>
</g>
<!-- Node1&#45;&gt;Node24 -->
<g id="edge29" class="edge">
<title>Node1&#45;&gt;Node24</title>
<path fill="none" stroke="#191970" d="M154.7431,-158.5561C179.1773,-164.9102 207.4265,-172.2563 232.761,-178.8445"/>
<polygon fill="#191970" stroke="#191970" points="232.1211,-182.2944 242.6802,-181.4239 233.8829,-175.5197 232.1211,-182.2944"/>
</g>
<!-- Node28 -->
<g id="node28" class="node">
<title>Node28</title>
<g id="a_node28"><a xlink:href="../../d2/dd2/classG4UIcommand.html#a791eb299b62778e033543435923778c0" target="_top" xlink:title="G4UIcommand::SetGuidance">
<polygon fill="none" stroke="#000000" points="223,-.5 223,-20.5 386,-20.5 386,-.5 223,-.5"/>
<text text-anchor="middle" x="304.5" y="-7.5" font-family="FreeSans" font-size="10.00" fill="#000000">G4UIcommand::SetGuidance</text>
</a>
</g>
</g>
<!-- Node1&#45;&gt;Node28 -->
<g id="edge35" class="edge">
<title>Node1&#45;&gt;Node28</title>
<path fill="none" stroke="#191970" d="M106.7203,-126.4442C128.5733,-101.9275 173.7676,-55.3904 222,-30.5 226.9113,-27.9655 232.1539,-25.7444 237.5256,-23.7993"/>
<polygon fill="#191970" stroke="#191970" points="238.884,-27.037 247.29,-20.5879 236.697,-20.3874 238.884,-27.037"/>
</g>
<!-- Node29 -->
<g id="node29" class="node">
<title>Node29</title>
<g id="a_node29"><a xlink:href="../../d0/d84/classG4UIcmdWithAString.html#a6d580fd73a2260e4e74b67d9a778dadf" target="_top" xlink:title="G4UIcmdWithAString\l::SetParameterName">
<polygon fill="none" stroke="#000000" points="243.5,-39.5 243.5,-71.5 365.5,-71.5 365.5,-39.5 243.5,-39.5"/>
<text text-anchor="start" x="251.5" y="-58.5" font-family="FreeSans" font-size="10.00" fill="#000000">G4UIcmdWithAString</text>
<text text-anchor="middle" x="304.5" y="-46.5" font-family="FreeSans" font-size="10.00" fill="#000000">::SetParameterName</text>
</a>
</g>
</g>
<!-- Node1&#45;&gt;Node29 -->
<g id="edge36" class="edge">
<title>Node1&#45;&gt;Node29</title>
<path fill="none" stroke="#191970" d="M123.7575,-126.4973C149.5707,-113.4233 187.6324,-94.9686 222,-81.5 227.8724,-79.1986 234.0386,-76.9525 240.244,-74.8055"/>
<polygon fill="#191970" stroke="#191970" points="241.6333,-78.0308 249.9912,-71.5196 239.397,-71.3976 241.6333,-78.0308"/>
</g>
<!-- Node32 -->
<g id="node32" class="node">
<title>Node32</title>
<g id="a_node32"><a xlink:href="../../d0/db2/classG4UIcmdWith3VectorAndUnit.html#a6ce68de9a0e7d5ef14f8668d261a0d2f" target="_top" xlink:title="G4UIcmdWith3VectorAndUnit\l::SetParameterName">
<polygon fill="none" stroke="#000000" points="222,-90.5 222,-122.5 387,-122.5 387,-90.5 222,-90.5"/>
<text text-anchor="start" x="230" y="-109.5" font-family="FreeSans" font-size="10.00" fill="#000000">G4UIcmdWith3VectorAndUnit</text>
<text text-anchor="middle" x="304.5" y="-97.5" font-family="FreeSans" font-size="10.00" fill="#000000">::SetParameterName</text>
</a>
</g>
</g>
<!-- Node1&#45;&gt;Node32 -->
<g id="edge40" class="edge">
<title>Node1&#45;&gt;Node32</title>
<path fill="none" stroke="#191970" d="M186.0748,-126.6575C194.598,-125.2067 203.2326,-123.737 211.7529,-122.2867"/>
<polygon fill="#191970" stroke="#191970" points="212.4181,-125.7239 221.689,-120.5955 211.2435,-118.8232 212.4181,-125.7239"/>
</g>
<!-- Node3 -->
<g id="node3" class="node">
<title>Node3</title>
<g id="a_node3"><a xlink:href="../../d2/dd2/classG4UIcommand.html#a2b5ccdefabaa952282b757d913797186" target="_top" xlink:title="G4UIcommand::GetParameter">
<polygon fill="none" stroke="#000000" points="865.5,-352.5 865.5,-372.5 1034.5,-372.5 1034.5,-352.5 865.5,-352.5"/>
<text text-anchor="middle" x="950" y="-359.5" font-family="FreeSans" font-size="10.00" fill="#000000">G4UIcommand::GetParameter</text>
</a>
</g>
</g>
<!-- Node2&#45;&gt;Node3 -->
<g id="edge2" class="edge">
<title>Node2&#45;&gt;Node3</title>
<path fill="none" stroke="#191970" d="M387.2373,-367.7309C507.2232,-366.6157 728.9511,-364.5547 855.3108,-363.3801"/>
<polygon fill="#191970" stroke="#191970" points="855.396,-366.8796 865.363,-363.2867 855.3308,-359.8799 855.396,-366.8796"/>
</g>
<!-- Node4 -->
<g id="node4" class="node">
<title>Node4</title>
<g id="a_node4"><a xlink:href="../../d9/d78/classG4UIparameter.html#a48710feba421297f95f3d40edda04421" target="_top" xlink:title="G4UIparameter::SetOmittable">
<polygon fill="none" stroke="#000000" points="439,-90.5 439,-110.5 606,-110.5 606,-90.5 439,-90.5"/>
<text text-anchor="middle" x="522.5" y="-97.5" font-family="FreeSans" font-size="10.00" fill="#000000">G4UIparameter::SetOmittable</text>
</a>
</g>
</g>
<!-- Node2&#45;&gt;Node4 -->
<g id="edge3" class="edge">
<title>Node2&#45;&gt;Node4</title>
<path fill="none" stroke="#191970" d="M355.3032,-352.4301C367.3234,-346.3853 378.9671,-338.2691 387,-327.5 442.8328,-252.6488 357.8394,-187.3887 423,-120.5 425.1324,-118.311 427.4326,-116.3269 429.868,-114.5298"/>
<polygon fill="#191970" stroke="#191970" points="431.9588,-117.3521 438.6222,-109.115 428.2764,-111.3988 431.9588,-117.3521"/>
</g>
<!-- Node5 -->
<g id="node5" class="node">
<title>Node5</title>
<g id="a_node5"><a xlink:href="../../d9/d78/classG4UIparameter.html#a05b29f65c6bcbe11ac2b97db295e2bd5" target="_top" xlink:title="G4UIparameter::SetDefault\lValue">
<polygon fill="none" stroke="#000000" points="445,-285.5 445,-317.5 600,-317.5 600,-285.5 445,-285.5"/>
<text text-anchor="start" x="453" y="-304.5" font-family="FreeSans" font-size="10.00" fill="#000000">G4UIparameter::SetDefault</text>
<text text-anchor="middle" x="522.5" y="-292.5" font-family="FreeSans" font-size="10.00" fill="#000000">Value</text>
</a>
</g>
</g>
<!-- Node2&#45;&gt;Node5 -->
<g id="edge4" class="edge">
<title>Node2&#45;&gt;Node5</title>
<path fill="none" stroke="#191970" d="M356.7164,-352.4518C387.8806,-342.8738 427.6368,-330.6552 460.4046,-320.5844"/>
<polygon fill="#191970" stroke="#191970" points="461.8018,-323.8166 470.3323,-317.5332 459.7453,-317.1255 461.8018,-323.8166"/>
</g>
<!-- Node6 -->
<g id="node6" class="node">
<title>Node6</title>
<g id="a_node6"><a xlink:href="../../d0/db2/classG4UIcmdWith3VectorAndUnit.html#aa07f9a220a155e6b3f25db7a43cab3e0" target="_top" xlink:title="G4UIcmdWith3VectorAndUnit\l::SetUnitCategory">
<polygon fill="none" stroke="#000000" points="440,-413.5 440,-445.5 605,-445.5 605,-413.5 440,-413.5"/>
<text text-anchor="start" x="448" y="-432.5" font-family="FreeSans" font-size="10.00" fill="#000000">G4UIcmdWith3VectorAndUnit</text>
<text text-anchor="middle" x="522.5" y="-420.5" font-family="FreeSans" font-size="10.00" fill="#000000">::SetUnitCategory</text>
</a>
</g>
</g>
<!-- Node2&#45;&gt;Node6 -->
<g id="edge5" class="edge">
<title>Node2&#45;&gt;Node6</title>
<path fill="none" stroke="#191970" d="M361.7769,-384.527C390.4518,-392.5507 425.3438,-402.3141 455.281,-410.691"/>
<polygon fill="#191970" stroke="#191970" points="454.6543,-414.15 465.2275,-413.4742 456.5406,-407.4089 454.6543,-414.15"/>
</g>
<!-- Node16 -->
<g id="node16" class="node">
<title>Node16</title>
<g id="a_node16"><a xlink:href="../../d2/dd2/classG4UIcommand.html#a33b3decc2add9821af54572c2d0621e1" target="_top" xlink:title="G4UIcommand::CategoryOf">
<polygon fill="none" stroke="#000000" points="444,-492.5 444,-512.5 601,-512.5 601,-492.5 444,-492.5"/>
<text text-anchor="middle" x="522.5" y="-499.5" font-family="FreeSans" font-size="10.00" fill="#000000">G4UIcommand::CategoryOf</text>
</a>
</g>
</g>
<!-- Node2&#45;&gt;Node16 -->
<g id="edge17" class="edge">
<title>Node2&#45;&gt;Node16</title>
<path fill="none" stroke="#191970" d="M324.2319,-384.8245C347.1122,-403.309 386.3836,-433.6854 423,-455.5 443.9203,-467.9635 468.6752,-479.6675 488.2597,-488.2786"/>
<polygon fill="#191970" stroke="#191970" points="487.1325,-491.6045 497.6999,-492.3669 489.9145,-485.181 487.1325,-491.6045"/>
</g>
<!-- Node7 -->
<g id="node7" class="node">
<title>Node7</title>
<g id="a_node7"><a xlink:href="../../d0/db2/classG4UIcmdWith3VectorAndUnit.html#a9114aee5f32aaf243ca3488a2760c0e8" target="_top" xlink:title="G4UIcmdWith3VectorAndUnit\l::SetUnitCandidates">
<polygon fill="none" stroke="#000000" points="661,-413.5 661,-445.5 826,-445.5 826,-413.5 661,-413.5"/>
<text text-anchor="start" x="669" y="-432.5" font-family="FreeSans" font-size="10.00" fill="#000000">G4UIcmdWith3VectorAndUnit</text>
<text text-anchor="middle" x="743.5" y="-420.5" font-family="FreeSans" font-size="10.00" fill="#000000">::SetUnitCandidates</text>
</a>
</g>
</g>
<!-- Node6&#45;&gt;Node7 -->
<g id="edge6" class="edge">
<title>Node6&#45;&gt;Node7</title>
<path fill="none" stroke="#191970" d="M605.1065,-429.5C619.9489,-429.5 635.5098,-429.5 650.6195,-429.5"/>
<polygon fill="#191970" stroke="#191970" points="650.9936,-433.0001 660.9936,-429.5 650.9935,-426.0001 650.9936,-433.0001"/>
</g>
<!-- Node9 -->
<g id="node9" class="node">
<title>Node9</title>
<g id="a_node9"><a xlink:href="../../d2/dd2/classG4UIcommand.html#abdbe12c2eb5a51b3f8e34701504ec24f" target="_top" xlink:title="G4UIcommand::UnitsList">
<polygon fill="none" stroke="#000000" points="672.5,-464.5 672.5,-484.5 814.5,-484.5 814.5,-464.5 672.5,-464.5"/>
<text text-anchor="middle" x="743.5" y="-471.5" font-family="FreeSans" font-size="10.00" fill="#000000">G4UIcommand::UnitsList</text>
</a>
</g>
</g>
<!-- Node6&#45;&gt;Node9 -->
<g id="edge9" class="edge">
<title>Node6&#45;&gt;Node9</title>
<path fill="none" stroke="#191970" d="M601.3501,-445.5555C628.7087,-451.1262 658.8942,-457.2726 684.3859,-462.4632"/>
<polygon fill="#191970" stroke="#191970" points="683.7744,-465.9104 694.2717,-464.4761 685.1712,-459.0512 683.7744,-465.9104"/>
</g>
<!-- Node7&#45;&gt;Node3 -->
<g id="edge7" class="edge">
<title>Node7&#45;&gt;Node3</title>
<path fill="none" stroke="#191970" d="M792.9619,-413.4518C828.4294,-401.9442 875.6453,-386.6248 909.0135,-375.7983"/>
<polygon fill="#191970" stroke="#191970" points="910.4646,-379.0072 918.8963,-372.5918 908.3042,-372.3489 910.4646,-379.0072"/>
</g>
<!-- Node8 -->
<g id="node8" class="node">
<title>Node8</title>
<g id="a_node8"><a xlink:href="../../d9/d78/classG4UIparameter.html#aa89971285388365dd2aca23d44e02c74" target="_top" xlink:title="G4UIparameter::SetParameter\lCandidates">
<polygon fill="none" stroke="#000000" points="865,-407.5 865,-439.5 1035,-439.5 1035,-407.5 865,-407.5"/>
<text text-anchor="start" x="873" y="-426.5" font-family="FreeSans" font-size="10.00" fill="#000000">G4UIparameter::SetParameter</text>
<text text-anchor="middle" x="950" y="-414.5" font-family="FreeSans" font-size="10.00" fill="#000000">Candidates</text>
</a>
</g>
</g>
<!-- Node7&#45;&gt;Node8 -->
<g id="edge8" class="edge">
<title>Node7&#45;&gt;Node8</title>
<path fill="none" stroke="#191970" d="M826.0045,-427.1028C835.5096,-426.8266 845.2593,-426.5433 854.9132,-426.2628"/>
<polygon fill="#191970" stroke="#191970" points="855.0306,-429.761 864.9247,-425.9719 854.8272,-422.7639 855.0306,-429.761"/>
</g>
<!-- Node10 -->
<g id="node10" class="node">
<title>Node10</title>
<g id="a_node10"><a xlink:href="../../dd/db6/classG4UnitDefinition.html#ad760642d8d8cc28d245e8101f86ed432" target="_top" xlink:title="G4UnitDefinition::GetUnits\lTable">
<polygon fill="none" stroke="#000000" points="874.5,-458.5 874.5,-490.5 1025.5,-490.5 1025.5,-458.5 874.5,-458.5"/>
<text text-anchor="start" x="882.5" y="-477.5" font-family="FreeSans" font-size="10.00" fill="#000000">G4UnitDefinition::GetUnits</text>
<text text-anchor="middle" x="950" y="-465.5" font-family="FreeSans" font-size="10.00" fill="#000000">Table</text>
</a>
</g>
</g>
<!-- Node9&#45;&gt;Node10 -->
<g id="edge10" class="edge">
<title>Node9&#45;&gt;Node10</title>
<path fill="none" stroke="#191970" d="M814.5656,-474.5C830.5069,-474.5 847.5856,-474.5 864.0591,-474.5"/>
<polygon fill="#191970" stroke="#191970" points="864.2224,-478.0001 874.2224,-474.5 864.2224,-471.0001 864.2224,-478.0001"/>
</g>
<!-- Node11 -->
<g id="node11" class="node">
<title>Node11</title>
<g id="a_node11"><a xlink:href="../../dd/db6/classG4UnitDefinition.html#a935e1332ba986a91d04e0f55996d301e" target="_top" xlink:title="G4UnitDefinition::BuildUnits\lTable">
<polygon fill="none" stroke="#000000" points="1072.5,-443.5 1072.5,-475.5 1231.5,-475.5 1231.5,-443.5 1072.5,-443.5"/>
<text text-anchor="start" x="1080.5" y="-462.5" font-family="FreeSans" font-size="10.00" fill="#000000">G4UnitDefinition::BuildUnits</text>
<text text-anchor="middle" x="1152" y="-450.5" font-family="FreeSans" font-size="10.00" fill="#000000">Table</text>
</a>
</g>
</g>
<!-- Node10&#45;&gt;Node11 -->
<g id="edge11" class="edge">
<title>Node10&#45;&gt;Node11</title>
<path fill="none" stroke="#191970" d="M1025.5046,-468.8932C1037.4111,-468.0091 1049.8233,-467.0874 1062.0187,-466.1818"/>
<polygon fill="#191970" stroke="#191970" points="1062.4827,-469.6571 1072.196,-465.426 1061.9642,-462.6763 1062.4827,-469.6571"/>
</g>
<!-- Node14 -->
<g id="node14" class="node">
<title>Node14</title>
<g id="a_node14"><a xlink:href="../../d7/d23/namespaceG4Threading.html#abb1b4c9b1d7bd6bf5f9b9e552b93bd38" target="_top" xlink:title="G4Threading::IsMasterThread">
<polygon fill="none" stroke="#000000" points="1448,-407.5 1448,-427.5 1614,-427.5 1614,-407.5 1448,-407.5"/>
<text text-anchor="middle" x="1531" y="-414.5" font-family="FreeSans" font-size="10.00" fill="#000000">G4Threading::IsMasterThread</text>
</a>
</g>
</g>
<!-- Node10&#45;&gt;Node14 -->
<g id="edge16" class="edge">
<title>Node10&#45;&gt;Node14</title>
<path fill="none" stroke="#191970" d="M1007.8825,-458.3951C1017.0096,-455.5918 1026.3004,-452.5815 1035,-449.5 1051.3386,-443.7127 1054.0689,-438.2127 1071,-434.5 1195.6489,-407.1667 1343.7699,-407.3178 1437.5838,-411.3008"/>
<polygon fill="#191970" stroke="#191970" points="1437.472,-414.7992 1447.6187,-411.7503 1437.7853,-407.8062 1437.472,-414.7992"/>
</g>
<!-- Node12 -->
<g id="node12" class="node">
<title>Node12</title>
<g id="a_node12"><a xlink:href="../../dd/db6/classG4UnitDefinition.html#a7109cd0b74ba54198d1ba74d757e6c85" target="_top" xlink:title="G4UnitDefinition::G4Unit\lDefinition">
<polygon fill="none" stroke="#000000" points="1269,-443.5 1269,-475.5 1412,-475.5 1412,-443.5 1269,-443.5"/>
<text text-anchor="start" x="1277" y="-462.5" font-family="FreeSans" font-size="10.00" fill="#000000">G4UnitDefinition::G4Unit</text>
<text text-anchor="middle" x="1340.5" y="-450.5" font-family="FreeSans" font-size="10.00" fill="#000000">Definition</text>
</a>
</g>
</g>
<!-- Node11&#45;&gt;Node12 -->
<g id="edge12" class="edge">
<title>Node11&#45;&gt;Node12</title>
<path fill="none" stroke="#191970" d="M1231.6678,-459.5C1240.6474,-459.5 1249.808,-459.5 1258.8129,-459.5"/>
<polygon fill="#191970" stroke="#191970" points="1258.8955,-463.0001 1268.8955,-459.5 1258.8955,-456.0001 1258.8955,-463.0001"/>
</g>
<!-- Node13 -->
<g id="node13" class="node">
<title>Node13</title>
<g id="a_node13"><a xlink:href="../../d5/d4f/G4Exception_8hh.html#ad36b5da5d062a20ca47b1c1f1ae353dd" target="_top" xlink:title="G4Exception">
<polygon fill="none" stroke="#000000" points="1491,-567.5 1491,-587.5 1571,-587.5 1571,-567.5 1491,-567.5"/>
<text text-anchor="middle" x="1531" y="-574.5" font-family="FreeSans" font-size="10.00" fill="#000000">G4Exception</text>
</a>
</g>
</g>
<!-- Node12&#45;&gt;Node13 -->
<g id="edge13" class="edge">
<title>Node12&#45;&gt;Node13</title>
<path fill="none" stroke="#191970" d="M1390.9897,-475.6225C1398.2027,-478.564 1405.4053,-481.8677 1412,-485.5 1450.9105,-506.9315 1490.6538,-540.5033 1512.9423,-560.6181"/>
<polygon fill="#191970" stroke="#191970" points="1510.5882,-563.2081 1520.3303,-567.3726 1515.3115,-558.0418 1510.5882,-563.2081"/>
</g>
<!-- Node12&#45;&gt;Node14 -->
<g id="edge14" class="edge">
<title>Node12&#45;&gt;Node14</title>
<path fill="none" stroke="#191970" d="M1412.2484,-443.6814C1433.2713,-439.0465 1455.9233,-434.0523 1475.7499,-429.6811"/>
<polygon fill="#191970" stroke="#191970" points="1476.5236,-433.0947 1485.5355,-427.5237 1475.0165,-426.2588 1476.5236,-433.0947"/>
</g>
<!-- Node15 -->
<g id="node15" class="node">
<title>Node15</title>
<g id="a_node15"><a xlink:href="../../dd/db6/classG4UnitDefinition.html#a94a28970a26fc3e3ff90a28a86c7ff9d" target="_top" xlink:title="G4UnitDefinition::GetName">
<polygon fill="none" stroke="#000000" points="1453.5,-449.5 1453.5,-469.5 1608.5,-469.5 1608.5,-449.5 1453.5,-449.5"/>
<text text-anchor="middle" x="1531" y="-456.5" font-family="FreeSans" font-size="10.00" fill="#000000">G4UnitDefinition::GetName</text>
</a>
</g>
</g>
<!-- Node12&#45;&gt;Node15 -->
<g id="edge15" class="edge">
<title>Node12&#45;&gt;Node15</title>
<path fill="none" stroke="#191970" d="M1412.2484,-459.5C1422.2945,-459.5 1432.7126,-459.5 1443.0167,-459.5"/>
<polygon fill="#191970" stroke="#191970" points="1443.2647,-463.0001 1453.2647,-459.5 1443.2646,-456.0001 1443.2647,-463.0001"/>
</g>
<!-- Node17 -->
<g id="node17" class="node">
<title>Node17</title>
<g id="a_node17"><a xlink:href="../../dd/db6/classG4UnitDefinition.html#ab312cecd9b92e02f18c9c473a7110c6d" target="_top" xlink:title="G4UnitDefinition::GetCategory">
<polygon fill="none" stroke="#000000" points="658,-520.5 658,-540.5 829,-540.5 829,-520.5 658,-520.5"/>
<text text-anchor="middle" x="743.5" y="-527.5" font-family="FreeSans" font-size="10.00" fill="#000000">G4UnitDefinition::GetCategory</text>
</a>
</g>
</g>
<!-- Node16&#45;&gt;Node17 -->
<g id="edge18" class="edge">
<title>Node16&#45;&gt;Node17</title>
<path fill="none" stroke="#191970" d="M601.0386,-512.4506C618.2547,-514.6318 636.6033,-516.9565 654.2059,-519.1867"/>
<polygon fill="#191970" stroke="#191970" points="654.1091,-522.7023 664.4697,-520.4871 654.989,-515.7579 654.1091,-522.7023"/>
</g>
<!-- Node17&#45;&gt;Node10 -->
<g id="edge19" class="edge">
<title>Node17&#45;&gt;Node10</title>
<path fill="none" stroke="#191970" d="M780.4181,-520.4883C808.2929,-512.929 847.3535,-502.3363 880.9617,-493.2223"/>
<polygon fill="#191970" stroke="#191970" points="882.0036,-496.5662 890.739,-490.5708 880.1715,-489.8102 882.0036,-496.5662"/>
</g>
<!-- Node17&#45;&gt;Node13 -->
<g id="edge25" class="edge">
<title>Node17&#45;&gt;Node13</title>
<path fill="none" stroke="#191970" d="M765.902,-540.6703C818.0528,-563.7205 952.1854,-619.4147 1071,-638.5 1226.0354,-663.4035 1411.6513,-615.0231 1491.4067,-590.5162"/>
<polygon fill="#191970" stroke="#191970" points="1492.5433,-593.8281 1501.0484,-587.5103 1490.4599,-587.1453 1492.5433,-593.8281"/>
</g>
<!-- Node18 -->
<g id="node18" class="node">
<title>Node18</title>
<g id="a_node18"><a xlink:href="../../d8/d3c/ts__scorers_8cc.html#ad81d1cdebbda7d39795160acd3aebd24" target="_top" xlink:title="message">
<polygon fill="none" stroke="#000000" points="919,-537.5 919,-557.5 981,-557.5 981,-537.5 919,-537.5"/>
<text text-anchor="middle" x="950" y="-544.5" font-family="FreeSans" font-size="10.00" fill="#000000">message</text>
</a>
</g>
</g>
<!-- Node17&#45;&gt;Node18 -->
<g id="edge20" class="edge">
<title>Node17&#45;&gt;Node18</title>
<path fill="none" stroke="#191970" d="M829.2806,-537.5618C856.8598,-539.8323 886.1516,-542.2437 908.9743,-544.1226"/>
<polygon fill="#191970" stroke="#191970" points="908.7223,-547.6136 918.9758,-544.9459 909.2967,-540.6372 908.7223,-547.6136"/>
</g>
<!-- Node19 -->
<g id="node19" class="node">
<title>Node19</title>
<g id="a_node19"><a xlink:href="../../d7/d23/namespaceG4Threading.html#a457962a93ab41c7f9575dde6cbe9b78c" target="_top" xlink:title="G4Threading::G4GetNumber\lOfCores">
<polygon fill="none" stroke="#000000" points="1071,-596.5 1071,-628.5 1233,-628.5 1233,-596.5 1071,-596.5"/>
<text text-anchor="start" x="1079" y="-615.5" font-family="FreeSans" font-size="10.00" fill="#000000">G4Threading::G4GetNumber</text>
<text text-anchor="middle" x="1152" y="-603.5" font-family="FreeSans" font-size="10.00" fill="#000000">OfCores</text>
</a>
</g>
</g>
<!-- Node18&#45;&gt;Node19 -->
<g id="edge21" class="edge">
<title>Node18&#45;&gt;Node19</title>
<path fill="none" stroke="#191970" d="M979.7817,-557.5284C1004.2409,-565.7205 1039.809,-577.5321 1071,-587.5 1076.9798,-589.411 1083.2157,-591.3793 1089.4564,-593.3326"/>
<polygon fill="#191970" stroke="#191970" points="1088.6424,-596.745 1099.231,-596.3796 1090.7257,-590.0621 1088.6424,-596.745"/>
</g>
<!-- Node20 -->
<g id="node20" class="node">
<title>Node20</title>
<g id="a_node20"><a xlink:href="../../d4/daa/classG4RunManager.html#a3a19f2283ba22cbee8ba640d160d2e7e" target="_top" xlink:title="G4RunManager::GetVerbose\lLevel">
<polygon fill="none" stroke="#000000" points="1072.5,-545.5 1072.5,-577.5 1231.5,-577.5 1231.5,-545.5 1072.5,-545.5"/>
<text text-anchor="start" x="1080.5" y="-564.5" font-family="FreeSans" font-size="10.00" fill="#000000">G4RunManager::GetVerbose</text>
<text text-anchor="middle" x="1152" y="-552.5" font-family="FreeSans" font-size="10.00" fill="#000000">Level</text>
</a>
</g>
</g>
<!-- Node18&#45;&gt;Node20 -->
<g id="edge22" class="edge">
<title>Node18&#45;&gt;Node20</title>
<path fill="none" stroke="#191970" d="M981.1198,-549.6568C1002.8992,-551.1663 1033.1816,-553.2651 1062.2129,-555.2771"/>
<polygon fill="#191970" stroke="#191970" points="1062.1954,-558.7842 1072.4135,-555.9841 1062.6794,-551.801 1062.1954,-558.7842"/>
</g>
<!-- Node21 -->
<g id="node21" class="node">
<title>Node21</title>
<g id="a_node21"><a xlink:href="../../d4/daa/classG4RunManager.html#a9e042965b0d460b1d492ab48de141b2a" target="_top" xlink:title="G4RunManager::SetVerbose\lLevel">
<polygon fill="none" stroke="#000000" points="1073,-494.5 1073,-526.5 1231,-526.5 1231,-494.5 1073,-494.5"/>
<text text-anchor="start" x="1081" y="-513.5" font-family="FreeSans" font-size="10.00" fill="#000000">G4RunManager::SetVerbose</text>
<text text-anchor="middle" x="1152" y="-501.5" font-family="FreeSans" font-size="10.00" fill="#000000">Level</text>
</a>
</g>
</g>
<!-- Node18&#45;&gt;Node21 -->
<g id="edge23" class="edge">
<title>Node18&#45;&gt;Node21</title>
<path fill="none" stroke="#191970" d="M981.1198,-541.7998C1003.0937,-537.7749 1033.7233,-532.1645 1062.9905,-526.8037"/>
<polygon fill="#191970" stroke="#191970" points="1063.6435,-530.2424 1072.8493,-524.9979 1062.3823,-523.357 1063.6435,-530.2424"/>
</g>
<!-- Node22 -->
<g id="node22" class="node">
<title>Node22</title>
<g id="a_node22"><a xlink:href="../../de/d51/classG4RunManagerKernel.html#aea8a72d21f60b3e6436eed9b651dc247" target="_top" xlink:title="G4RunManagerKernel\l::SetVerboseLevel">
<polygon fill="none" stroke="#000000" points="1277.5,-494.5 1277.5,-526.5 1403.5,-526.5 1403.5,-494.5 1277.5,-494.5"/>
<text text-anchor="start" x="1285.5" y="-513.5" font-family="FreeSans" font-size="10.00" fill="#000000">G4RunManagerKernel</text>
<text text-anchor="middle" x="1340.5" y="-501.5" font-family="FreeSans" font-size="10.00" fill="#000000">::SetVerboseLevel</text>
</a>
</g>
</g>
<!-- Node21&#45;&gt;Node22 -->
<g id="edge24" class="edge">
<title>Node21&#45;&gt;Node22</title>
<path fill="none" stroke="#191970" d="M1231.1216,-510.5C1243.0442,-510.5 1255.2985,-510.5 1267.0941,-510.5"/>
<polygon fill="#191970" stroke="#191970" points="1267.3222,-514.0001 1277.3221,-510.5 1267.3221,-507.0001 1267.3222,-514.0001"/>
</g>
<!-- Node23&#45;&gt;Node3 -->
<g id="edge27" class="edge">
<title>Node23&#45;&gt;Node3</title>
<path fill="none" stroke="#191970" d="M365.686,-316.7551C384.0147,-320.828 404.2325,-324.8332 423,-327.5 573.1673,-348.8382 749.3006,-357.2139 855.148,-360.4696"/>
<polygon fill="#191970" stroke="#191970" points="855.0686,-363.9687 865.1687,-360.769 855.2777,-356.9718 855.0686,-363.9687"/>
</g>
<!-- Node23&#45;&gt;Node5 -->
<g id="edge28" class="edge">
<title>Node23&#45;&gt;Node5</title>
<path fill="none" stroke="#191970" d="M365.515,-301.5C386.9112,-301.5 411.3893,-301.5 434.5495,-301.5"/>
<polygon fill="#191970" stroke="#191970" points="434.7305,-305.0001 444.7305,-301.5 434.7304,-298.0001 434.7305,-305.0001"/>
</g>
<!-- Node24&#45;&gt;Node3 -->
<g id="edge30" class="edge">
<title>Node24&#45;&gt;Node3</title>
<path fill="none" stroke="#191970" d="M347.4206,-213.5139C369.7447,-221.4526 397.6067,-230.7575 423,-237.5 510.1085,-260.6294 534.1443,-256.3943 622,-276.5 723.6524,-299.7631 841.6722,-332.0086 904.7383,-349.6676"/>
<polygon fill="#191970" stroke="#191970" points="904.1739,-353.1444 914.7477,-352.4771 906.0657,-346.4048 904.1739,-353.1444"/>
</g>
<!-- Node24&#45;&gt;Node5 -->
<g id="edge31" class="edge">
<title>Node24&#45;&gt;Node5</title>
<path fill="none" stroke="#191970" d="M326.7161,-213.5403C349.8506,-229.6672 387.5913,-254.386 423,-270.5 432.4222,-274.7879 442.6029,-278.7077 452.7322,-282.2096"/>
<polygon fill="#191970" stroke="#191970" points="451.8081,-285.5909 462.4018,-285.4374 454.0246,-278.951 451.8081,-285.5909"/>
</g>
<!-- Node25 -->
<g id="node25" class="node">
<title>Node25</title>
<g id="a_node25"><a xlink:href="../../da/dcf/classCLHEP_1_1Hep3Vector.html#a86646a7299d9b55d1ee3a27b578d30ec" target="_top" xlink:title="CLHEP::Hep3Vector::x">
<polygon fill="none" stroke="#000000" points="459,-168.5 459,-188.5 586,-188.5 586,-168.5 459,-168.5"/>
<text text-anchor="middle" x="522.5" y="-175.5" font-family="FreeSans" font-size="10.00" fill="#000000">CLHEP::Hep3Vector::x</text>
</a>
</g>
</g>
<!-- Node24&#45;&gt;Node25 -->
<g id="edge32" class="edge">
<title>Node24&#45;&gt;Node25</title>
<path fill="none" stroke="#191970" d="M387.2273,-190.2898C407.4338,-188.5287 428.9212,-186.656 448.6808,-184.9338"/>
<polygon fill="#191970" stroke="#191970" points="449.1821,-188.4035 458.8404,-184.0483 448.5743,-181.4299 449.1821,-188.4035"/>
</g>
<!-- Node26 -->
<g id="node26" class="node">
<title>Node26</title>
<g id="a_node26"><a xlink:href="../../da/dcf/classCLHEP_1_1Hep3Vector.html#a86ef096e76d7db9e0ea8e10eb742a576" target="_top" xlink:title="CLHEP::Hep3Vector::y">
<polygon fill="none" stroke="#000000" points="459,-129.5 459,-149.5 586,-149.5 586,-129.5 459,-129.5"/>
<text text-anchor="middle" x="522.5" y="-136.5" font-family="FreeSans" font-size="10.00" fill="#000000">CLHEP::Hep3Vector::y</text>
</a>
</g>
</g>
<!-- Node24&#45;&gt;Node26 -->
<g id="edge33" class="edge">
<title>Node24&#45;&gt;Node26</title>
<path fill="none" stroke="#191970" d="M350.2953,-181.4935C372.14,-174.199 398.7446,-165.8056 423,-159.5 433.9472,-156.6541 445.6609,-153.9778 457.0682,-151.5651"/>
<polygon fill="#191970" stroke="#191970" points="457.9025,-154.9667 466.987,-149.515 456.4856,-148.1116 457.9025,-154.9667"/>
</g>
<!-- Node27 -->
<g id="node27" class="node">
<title>Node27</title>
<g id="a_node27"><a xlink:href="../../da/dcf/classCLHEP_1_1Hep3Vector.html#a2dcfdfeae86f250117ea40f086bb231a" target="_top" xlink:title="CLHEP::Hep3Vector::z">
<polygon fill="none" stroke="#000000" points="459.5,-207.5 459.5,-227.5 585.5,-227.5 585.5,-207.5 459.5,-207.5"/>
<text text-anchor="middle" x="522.5" y="-214.5" font-family="FreeSans" font-size="10.00" fill="#000000">CLHEP::Hep3Vector::z</text>
</a>
</g>
</g>
<!-- Node24&#45;&gt;Node27 -->
<g id="edge34" class="edge">
<title>Node24&#45;&gt;Node27</title>
<path fill="none" stroke="#191970" d="M387.2273,-205.0897C407.5363,-206.9529 429.1394,-208.9348 448.9816,-210.7552"/>
<polygon fill="#191970" stroke="#191970" points="448.9032,-214.2626 459.1811,-211.6909 449.5428,-207.2919 448.9032,-214.2626"/>
</g>
<!-- Node29&#45;&gt;Node4 -->
<g id="edge38" class="edge">
<title>Node29&#45;&gt;Node4</title>
<path fill="none" stroke="#191970" d="M365.6306,-69.2466C384.0477,-73.2979 404.3275,-77.6695 423,-81.5 434.5075,-83.8607 446.784,-86.283 458.6447,-88.5741"/>
<polygon fill="#191970" stroke="#191970" points="458.0033,-92.0148 468.4839,-90.4635 459.3234,-85.1404 458.0033,-92.0148"/>
</g>
<!-- Node30 -->
<g id="node30" class="node">
<title>Node30</title>
<g id="a_node30"><a xlink:href="../../d9/d78/classG4UIparameter.html#a57a456cfc18368f5ca588f3974b3acbc" target="_top" xlink:title="G4UIparameter::SetParameterName">
<polygon fill="none" stroke="#000000" points="423,-.5 423,-20.5 622,-20.5 622,-.5 423,-.5"/>
<text text-anchor="middle" x="522.5" y="-7.5" font-family="FreeSans" font-size="10.00" fill="#000000">G4UIparameter::SetParameterName</text>
</a>
</g>
</g>
<!-- Node29&#45;&gt;Node30 -->
<g id="edge37" class="edge">
<title>Node29&#45;&gt;Node30</title>
<path fill="none" stroke="#191970" d="M365.675,-42.4773C384.0935,-38.5879 404.3629,-34.3389 423,-30.5 435.596,-27.9054 449.0976,-25.1646 461.9646,-22.5718"/>
<polygon fill="#191970" stroke="#191970" points="463.0045,-25.9328 472.1181,-20.5298 461.6243,-19.0702 463.0045,-25.9328"/>
</g>
<!-- Node31 -->
<g id="node31" class="node">
<title>Node31</title>
<g id="a_node31"><a xlink:href="../../d9/d78/classG4UIparameter.html#ab0d217931a392ea4127cc8257385985e" target="_top" xlink:title="G4UIparameter::SetCurrent\lAsDefault">
<polygon fill="none" stroke="#000000" points="445,-39.5 445,-71.5 600,-71.5 600,-39.5 445,-39.5"/>
<text text-anchor="start" x="453" y="-58.5" font-family="FreeSans" font-size="10.00" fill="#000000">G4UIparameter::SetCurrent</text>
<text text-anchor="middle" x="522.5" y="-46.5" font-family="FreeSans" font-size="10.00" fill="#000000">AsDefault</text>
</a>
</g>
</g>
<!-- Node29&#45;&gt;Node31 -->
<g id="edge39" class="edge">
<title>Node29&#45;&gt;Node31</title>
<path fill="none" stroke="#191970" d="M365.515,-55.5C386.9112,-55.5 411.3893,-55.5 434.5495,-55.5"/>
<polygon fill="#191970" stroke="#191970" points="434.7305,-59.0001 444.7305,-55.5 434.7304,-52.0001 434.7305,-59.0001"/>
</g>
<!-- Node32&#45;&gt;Node4 -->
<g id="edge42" class="edge">
<title>Node32&#45;&gt;Node4</title>
<path fill="none" stroke="#191970" d="M387.2273,-104.2231C400.665,-103.8533 414.6693,-103.4678 428.3551,-103.0911"/>
<polygon fill="#191970" stroke="#191970" points="428.8442,-106.5791 438.744,-102.8052 428.6515,-99.5818 428.8442,-106.5791"/>
</g>
<!-- Node32&#45;&gt;Node30 -->
<g id="edge41" class="edge">
<title>Node32&#45;&gt;Node30</title>
<path fill="none" stroke="#191970" d="M371.6374,-90.4272C377.0617,-87.8713 382.2672,-84.916 387,-81.5 409.4971,-65.2624 399.7507,-45.6409 423,-30.5 426.5297,-28.2013 430.2679,-26.1575 434.1448,-24.3411"/>
<polygon fill="#191970" stroke="#191970" points="435.5112,-27.5635 443.4099,-20.5023 432.8318,-21.0966 435.5112,-27.5635"/>
</g>
<!-- Node32&#45;&gt;Node31 -->
<g id="edge43" class="edge">
<title>Node32&#45;&gt;Node31</title>
<path fill="none" stroke="#191970" d="M373.1773,-90.4333C395.6734,-85.1704 420.837,-79.2835 444.0017,-73.8643"/>
<polygon fill="#191970" stroke="#191970" points="444.8537,-77.2596 453.7935,-71.5736 443.259,-70.4436 444.8537,-77.2596"/>
</g>
</g>
</svg>
