<?xml version="1.0" encoding="UTF-8" standalone="no"?>
<!DOCTYPE svg PUBLIC "-//W3C//DTD SVG 1.1//EN"
 "http://www.w3.org/Graphics/SVG/1.1/DTD/svg11.dtd">
<!-- Generated by graphviz version 2.40.1 (20161225.0304)
 -->
<!-- Title: G4VExtDecayer Pages: 1 -->
<svg width="119pt" height="86pt"
 viewBox="0.00 0.00 119.00 86.00" xmlns="http://www.w3.org/2000/svg" xmlns:xlink="http://www.w3.org/1999/xlink">
<g id="graph0" class="graph" transform="scale(1 1) rotate(0) translate(4 82)">
<title>G4VExtDecayer</title>
<!-- Node1 -->
<g id="node1" class="node">
<title>Node1</title>
<polygon fill="#bfbfbf" stroke="#000000" points="7.5,-57.5 7.5,-77.5 103.5,-77.5 103.5,-57.5 7.5,-57.5"/>
<text text-anchor="middle" x="55.5" y="-64.5" font-family="FreeSans" font-size="10.00" fill="#000000">G4VExtDecayer</text>
</g>
<!-- Node2 -->
<g id="node2" class="node">
<title>Node2</title>
<g id="a_node2"><a xlink:href="../../d8/d46/classG4Pythia6Decayer.html" target="_top" xlink:title="G4Pythia6Decayer">
<polygon fill="none" stroke="#000000" points="0,-.5 0,-20.5 111,-20.5 111,-.5 0,-.5"/>
<text text-anchor="middle" x="55.5" y="-7.5" font-family="FreeSans" font-size="10.00" fill="#000000">G4Pythia6Decayer</text>
</a>
</g>
</g>
<!-- Node1&#45;&gt;Node2 -->
<g id="edge1" class="edge">
<title>Node1&#45;&gt;Node2</title>
<path fill="none" stroke="#191970" d="M49.0033,-47.1771C48.4304,-38.1625 48.8294,-27.9556 50.2005,-20.6022"/>
<polygon fill="#191970" stroke="#191970" points="45.55,-47.782 50.1841,-57.3095 52.5029,-46.9716 45.55,-47.782"/>
</g>
<!-- Node1&#45;&gt;Node2 -->
<g id="edge2" class="edge">
<title>Node1&#45;&gt;Node2</title>
<path fill="none" stroke="#191970" d="M61.9967,-47.1771C62.5696,-38.1625 62.1706,-27.9556 60.7995,-20.6022"/>
<polygon fill="#191970" stroke="#191970" points="58.4971,-46.9716 60.8159,-57.3095 65.45,-47.782 58.4971,-46.9716"/>
</g>
</g>
</svg>
