<?xml version="1.0" encoding="UTF-8" standalone="no"?>
<!DOCTYPE svg PUBLIC "-//W3C//DTD SVG 1.1//EN"
 "http://www.w3.org/Graphics/SVG/1.1/DTD/svg11.dtd">
<!-- Generated by graphviz version 2.40.1 (20161225.0304)
 -->
<!-- Title: G4MaterialPropertiesTable::AddProperty Pages: 1 -->
<svg width="934pt" height="243pt"
 viewBox="0.00 0.00 934.00 243.02" xmlns="http://www.w3.org/2000/svg" xmlns:xlink="http://www.w3.org/1999/xlink">
<g id="graph0" class="graph" transform="scale(1 1) rotate(0) translate(4 239.0151)">
<title>G4MaterialPropertiesTable::AddProperty</title>
<!-- Node1 -->
<g id="node1" class="node">
<title>Node1</title>
<polygon fill="#bfbfbf" stroke="#000000" points="0,-187.5 0,-219.5 149,-219.5 149,-187.5 0,-187.5"/>
<text text-anchor="start" x="8" y="-206.5" font-family="FreeSans" font-size="10.00" fill="#000000">G4MaterialPropertiesTable</text>
<text text-anchor="middle" x="74.5" y="-194.5" font-family="FreeSans" font-size="10.00" fill="#000000">::AddProperty</text>
</g>
<!-- Node2 -->
<g id="node2" class="node">
<title>Node2</title>
<g id="a_node2"><a xlink:href="../../da/dbc/classG4MaterialPropertiesTable.html#a086f7d7eb71abeb9270dc37028d3d8b8" target="_top" xlink:title="G4MaterialPropertiesTable\l::CalculateGROUPVEL">
<polygon fill="none" stroke="#000000" points="185,-165.5 185,-197.5 334,-197.5 334,-165.5 185,-165.5"/>
<text text-anchor="start" x="193" y="-184.5" font-family="FreeSans" font-size="10.00" fill="#000000">G4MaterialPropertiesTable</text>
<text text-anchor="middle" x="259.5" y="-172.5" font-family="FreeSans" font-size="10.00" fill="#000000">::CalculateGROUPVEL</text>
</a>
</g>
</g>
<!-- Node1&#45;&gt;Node2 -->
<g id="edge1" class="edge">
<title>Node1&#45;&gt;Node2</title>
<path fill="none" stroke="#191970" d="M149.2133,-194.6152C157.6464,-193.6123 166.2845,-192.5851 174.8326,-191.5686"/>
<polygon fill="#191970" stroke="#191970" points="175.2918,-195.0387 184.8085,-190.3822 174.4652,-188.0877 175.2918,-195.0387"/>
</g>
<!-- Node12 -->
<g id="node12" class="node">
<title>Node12</title>
<g id="a_node12"><a xlink:href="../../da/dbc/classG4MaterialPropertiesTable.html#a59b10e3bdf0363b867694888c9c3bbf9" target="_top" xlink:title="G4MaterialPropertiesTable\l::GetPropertyIndex">
<polygon fill="none" stroke="#000000" points="584.5,-187.5 584.5,-219.5 733.5,-219.5 733.5,-187.5 584.5,-187.5"/>
<text text-anchor="start" x="592.5" y="-206.5" font-family="FreeSans" font-size="10.00" fill="#000000">G4MaterialPropertiesTable</text>
<text text-anchor="middle" x="659" y="-194.5" font-family="FreeSans" font-size="10.00" fill="#000000">::GetPropertyIndex</text>
</a>
</g>
</g>
<!-- Node1&#45;&gt;Node12 -->
<g id="edge14" class="edge">
<title>Node1&#45;&gt;Node12</title>
<path fill="none" stroke="#191970" d="M149.3146,-214.9921C240.2171,-227.2841 398.1624,-243.2668 533,-229.5 549.5611,-227.8091 567.159,-224.899 583.7862,-221.6229"/>
<polygon fill="#191970" stroke="#191970" points="584.8954,-224.9689 593.9957,-219.5434 583.4983,-218.1098 584.8954,-224.9689"/>
</g>
<!-- Node3 -->
<g id="node3" class="node">
<title>Node3</title>
<g id="a_node3"><a xlink:href="../../d5/d4f/G4Exception_8hh.html#ad36b5da5d062a20ca47b1c1f1ae353dd" target="_top" xlink:title="G4Exception">
<polygon fill="none" stroke="#000000" points="815.5,-170.5 815.5,-190.5 895.5,-190.5 895.5,-170.5 815.5,-170.5"/>
<text text-anchor="middle" x="855.5" y="-177.5" font-family="FreeSans" font-size="10.00" fill="#000000">G4Exception</text>
</a>
</g>
</g>
<!-- Node2&#45;&gt;Node3 -->
<g id="edge2" class="edge">
<title>Node2&#45;&gt;Node3</title>
<path fill="none" stroke="#191970" d="M334.0905,-179.1991C346.0967,-178.9082 358.3905,-178.6576 370,-178.5 538.4289,-176.2141 580.563,-176.9186 749,-178.5 767.3179,-178.672 787.4058,-179.0103 805.1511,-179.3605"/>
<polygon fill="#191970" stroke="#191970" points="805.2284,-182.8627 815.2975,-179.5669 805.3708,-175.8642 805.2284,-182.8627"/>
</g>
<!-- Node4 -->
<g id="node4" class="node">
<title>Node4</title>
<g id="a_node4"><a xlink:href="../../db/dfe/G4Log_8hh.html#ae72e5c92ee3e3857a2617f563c9e0589" target="_top" xlink:title="G4Log">
<polygon fill="none" stroke="#000000" points="427.5,-58.5 427.5,-78.5 475.5,-78.5 475.5,-58.5 427.5,-58.5"/>
<text text-anchor="middle" x="451.5" y="-65.5" font-family="FreeSans" font-size="10.00" fill="#000000">G4Log</text>
</a>
</g>
</g>
<!-- Node2&#45;&gt;Node4 -->
<g id="edge3" class="edge">
<title>Node2&#45;&gt;Node4</title>
<path fill="none" stroke="#191970" d="M273.8664,-165.1826C293.4575,-143.9825 330.6427,-107.342 370,-87.5 384.6517,-80.1133 402.2377,-75.5462 417.3174,-72.7486"/>
<polygon fill="#191970" stroke="#191970" points="418.0039,-76.1825 427.29,-71.0815 416.8497,-69.2783 418.0039,-76.1825"/>
</g>
<!-- Node10 -->
<g id="node10" class="node">
<title>Node10</title>
<g id="a_node10"><a xlink:href="../../dc/d99/classG4PhysicsOrderedFreeVector.html#a27c29e664f582dd93ee469bd001c9f7f" target="_top" xlink:title="G4PhysicsOrderedFreeVector\l::InsertValues">
<polygon fill="none" stroke="#000000" points="370,-97.5 370,-129.5 533,-129.5 533,-97.5 370,-97.5"/>
<text text-anchor="start" x="378" y="-116.5" font-family="FreeSans" font-size="10.00" fill="#000000">G4PhysicsOrderedFreeVector</text>
<text text-anchor="middle" x="451.5" y="-104.5" font-family="FreeSans" font-size="10.00" fill="#000000">::InsertValues</text>
</a>
</g>
</g>
<!-- Node2&#45;&gt;Node10 -->
<g id="edge9" class="edge">
<title>Node2&#45;&gt;Node10</title>
<path fill="none" stroke="#191970" d="M305.0013,-165.3849C332.3996,-155.6814 367.4695,-143.2608 396.4269,-133.0051"/>
<polygon fill="#191970" stroke="#191970" points="397.7352,-136.2548 405.993,-129.6171 395.3982,-129.6564 397.7352,-136.2548"/>
</g>
<!-- Node11 -->
<g id="node11" class="node">
<title>Node11</title>
<g id="a_node11"><a xlink:href="../../da/dbc/classG4MaterialPropertiesTable.html#af8f630001ea7d2f78f339ac0d730bac2" target="_top" xlink:title="G4MaterialPropertiesTable\l::AddProperty">
<polygon fill="none" stroke="#000000" points="377,-187.5 377,-219.5 526,-219.5 526,-187.5 377,-187.5"/>
<text text-anchor="start" x="385" y="-206.5" font-family="FreeSans" font-size="10.00" fill="#000000">G4MaterialPropertiesTable</text>
<text text-anchor="middle" x="451.5" y="-194.5" font-family="FreeSans" font-size="10.00" fill="#000000">::AddProperty</text>
</a>
</g>
</g>
<!-- Node2&#45;&gt;Node11 -->
<g id="edge10" class="edge">
<title>Node2&#45;&gt;Node11</title>
<path fill="none" stroke="#191970" d="M334.007,-183.4399C344.7407,-184.515 355.8523,-185.7511 366.7668,-187.0825"/>
<polygon fill="#191970" stroke="#191970" points="366.3608,-190.5589 376.7185,-188.33 367.2316,-183.6133 366.3608,-190.5589"/>
</g>
<!-- Node5 -->
<g id="node5" class="node">
<title>Node5</title>
<g id="a_node5"><a xlink:href="../../d3/d9f/namespaceG4LogConsts.html#a080084213a00e3dc29211e4e578127f4" target="_top" xlink:title="G4LogConsts::get_log_px">
<polygon fill="none" stroke="#000000" points="587,-97.5 587,-117.5 731,-117.5 731,-97.5 587,-97.5"/>
<text text-anchor="middle" x="659" y="-104.5" font-family="FreeSans" font-size="10.00" fill="#000000">G4LogConsts::get_log_px</text>
</a>
</g>
</g>
<!-- Node4&#45;&gt;Node5 -->
<g id="edge4" class="edge">
<title>Node4&#45;&gt;Node5</title>
<path fill="none" stroke="#191970" d="M475.709,-73.0501C504.8811,-78.5331 555.0211,-87.957 595.4927,-95.5637"/>
<polygon fill="#191970" stroke="#191970" points="595.0807,-99.0475 605.5552,-97.4549 596.3738,-92.1679 595.0807,-99.0475"/>
</g>
<!-- Node6 -->
<g id="node6" class="node">
<title>Node6</title>
<g id="a_node6"><a xlink:href="../../d3/d9f/namespaceG4LogConsts.html#abafea919b94d1e25edf69344bdb8269a" target="_top" xlink:title="G4LogConsts::get_log_qx">
<polygon fill="none" stroke="#000000" points="587,-58.5 587,-78.5 731,-78.5 731,-58.5 587,-58.5"/>
<text text-anchor="middle" x="659" y="-65.5" font-family="FreeSans" font-size="10.00" fill="#000000">G4LogConsts::get_log_qx</text>
</a>
</g>
</g>
<!-- Node4&#45;&gt;Node6 -->
<g id="edge5" class="edge">
<title>Node4&#45;&gt;Node6</title>
<path fill="none" stroke="#191970" d="M475.709,-68.5C500.5297,-68.5 540.5295,-68.5 576.8383,-68.5"/>
<polygon fill="#191970" stroke="#191970" points="576.9658,-72.0001 586.9657,-68.5 576.9657,-65.0001 576.9658,-72.0001"/>
</g>
<!-- Node7 -->
<g id="node7" class="node">
<title>Node7</title>
<g id="a_node7"><a xlink:href="../../d3/d9f/namespaceG4LogConsts.html#aab62ca6c71dcc1505d4ce94f673f1b52" target="_top" xlink:title="Like frexp but vectorising and the exponent is a double.">
<polygon fill="none" stroke="#000000" points="569,-19.5 569,-39.5 749,-39.5 749,-19.5 569,-19.5"/>
<text text-anchor="middle" x="659" y="-26.5" font-family="FreeSans" font-size="10.00" fill="#000000">G4LogConsts::getMantExponent</text>
</a>
</g>
</g>
<!-- Node4&#45;&gt;Node7 -->
<g id="edge6" class="edge">
<title>Node4&#45;&gt;Node7</title>
<path fill="none" stroke="#191970" d="M475.709,-63.9499C504.8811,-58.4669 555.0211,-49.043 595.4927,-41.4363"/>
<polygon fill="#191970" stroke="#191970" points="596.3738,-44.8321 605.5552,-39.5451 595.0807,-37.9525 596.3738,-44.8321"/>
</g>
<!-- Node8 -->
<g id="node8" class="node">
<title>Node8</title>
<g id="a_node8"><a xlink:href="../../d3/d9f/namespaceG4LogConsts.html#a1f15a1e0545d715b1662d9489af3643b" target="_top" xlink:title="G4LogConsts::dp2uint64">
<polygon fill="none" stroke="#000000" points="785,-.5 785,-20.5 926,-20.5 926,-.5 785,-.5"/>
<text text-anchor="middle" x="855.5" y="-7.5" font-family="FreeSans" font-size="10.00" fill="#000000">G4LogConsts::dp2uint64</text>
</a>
</g>
</g>
<!-- Node7&#45;&gt;Node8 -->
<g id="edge7" class="edge">
<title>Node7&#45;&gt;Node8</title>
<path fill="none" stroke="#191970" d="M749.1985,-20.7785C757.7341,-19.9532 766.3513,-19.12 774.79,-18.304"/>
<polygon fill="#191970" stroke="#191970" points="775.3608,-21.7652 784.9775,-17.319 774.687,-14.7977 775.3608,-21.7652"/>
</g>
<!-- Node9 -->
<g id="node9" class="node">
<title>Node9</title>
<g id="a_node9"><a xlink:href="../../d3/d9f/namespaceG4LogConsts.html#acaeec03b136462b4d5e9f1fb97d6ce13" target="_top" xlink:title="G4LogConsts::uint642dp">
<polygon fill="none" stroke="#000000" points="785,-39.5 785,-59.5 926,-59.5 926,-39.5 785,-39.5"/>
<text text-anchor="middle" x="855.5" y="-46.5" font-family="FreeSans" font-size="10.00" fill="#000000">G4LogConsts::uint642dp</text>
</a>
</g>
</g>
<!-- Node7&#45;&gt;Node9 -->
<g id="edge8" class="edge">
<title>Node7&#45;&gt;Node9</title>
<path fill="none" stroke="#191970" d="M749.1985,-38.6805C757.7341,-39.5493 766.3513,-40.4263 774.79,-41.2852"/>
<polygon fill="#191970" stroke="#191970" points="774.6745,-44.7915 784.9775,-42.3221 775.3833,-37.8275 774.6745,-44.7915"/>
</g>
<!-- Node11&#45;&gt;Node2 -->
<g id="edge11" class="edge">
<title>Node11&#45;&gt;Node2</title>
<path fill="none" stroke="#191970" d="M376.7185,-201.5326C365.9785,-200.4548 354.8654,-199.2164 343.9542,-197.8835"/>
<polygon fill="#191970" stroke="#191970" points="344.3652,-194.4077 334.007,-196.6346 343.4931,-201.3531 344.3652,-194.4077"/>
</g>
<!-- Node11&#45;&gt;Node12 -->
<g id="edge12" class="edge">
<title>Node11&#45;&gt;Node12</title>
<path fill="none" stroke="#191970" d="M526.1191,-203.5C541.6547,-203.5 558.1386,-203.5 574.0159,-203.5"/>
<polygon fill="#191970" stroke="#191970" points="574.346,-207.0001 584.346,-203.5 574.3459,-200.0001 574.346,-207.0001"/>
</g>
<!-- Node12&#45;&gt;Node3 -->
<g id="edge13" class="edge">
<title>Node12&#45;&gt;Node3</title>
<path fill="none" stroke="#191970" d="M733.5684,-194.7719C757.5626,-191.9634 783.5606,-188.9204 805.3621,-186.3686"/>
<polygon fill="#191970" stroke="#191970" points="805.8546,-189.8349 815.3798,-185.196 805.0407,-182.8824 805.8546,-189.8349"/>
</g>
</g>
</svg>
