<?xml version="1.0" encoding="UTF-8" standalone="no"?>
<!DOCTYPE svg PUBLIC "-//W3C//DTD SVG 1.1//EN"
 "http://www.w3.org/Graphics/SVG/1.1/DTD/svg11.dtd">
<!-- Generated by graphviz version 2.40.1 (20161225.0304)
 -->
<!-- Title: xDataXML_mallocDoc Pages: 1 -->
<svg width="1829pt" height="197pt"
 viewBox="0.00 0.00 1829.00 197.00" xmlns="http://www.w3.org/2000/svg" xmlns:xlink="http://www.w3.org/1999/xlink">
<g id="graph0" class="graph" transform="scale(1 1) rotate(0) translate(4 193)">
<title>xDataXML_mallocDoc</title>
<!-- Node1 -->
<g id="node1" class="node">
<title>Node1</title>
<polygon fill="#bfbfbf" stroke="#000000" points="0,-90.5 0,-110.5 125,-110.5 125,-90.5 0,-90.5"/>
<text text-anchor="middle" x="62.5" y="-97.5" font-family="FreeSans" font-size="10.00" fill="#000000">xDataXML_mallocDoc</text>
</g>
<!-- Node2 -->
<g id="node2" class="node">
<title>Node2</title>
<g id="a_node2"><a xlink:href="../../d0/d11/xDataTOM__importXML_8cc.html#a6d00785e1a6aedfb49542cbc7b45d497" target="_top" xlink:title="xDataXML_importFile2">
<polygon fill="none" stroke="#000000" points="161,-90.5 161,-110.5 289,-110.5 289,-90.5 161,-90.5"/>
<text text-anchor="middle" x="225" y="-97.5" font-family="FreeSans" font-size="10.00" fill="#000000">xDataXML_importFile2</text>
</a>
</g>
</g>
<!-- Node1&#45;&gt;Node2 -->
<g id="edge1" class="edge">
<title>Node1&#45;&gt;Node2</title>
<path fill="none" stroke="#191970" d="M135.5824,-100.5C144.0595,-100.5 152.6564,-100.5 160.9989,-100.5"/>
<polygon fill="#191970" stroke="#191970" points="135.3268,-97.0001 125.3267,-100.5 135.3267,-104.0001 135.3268,-97.0001"/>
</g>
<!-- Node3 -->
<g id="node3" class="node">
<title>Node3</title>
<g id="a_node3"><a xlink:href="../../db/d26/MCGIDI__map_8cc.html#a5d5c8c41f856f89944806588e7e5c96f" target="_top" xlink:title="MCGIDI_map_readFile">
<polygon fill="none" stroke="#000000" points="325,-129.5 325,-149.5 450,-149.5 450,-129.5 325,-129.5"/>
<text text-anchor="middle" x="387.5" y="-136.5" font-family="FreeSans" font-size="10.00" fill="#000000">MCGIDI_map_readFile</text>
</a>
</g>
</g>
<!-- Node2&#45;&gt;Node3 -->
<g id="edge2" class="edge">
<title>Node2&#45;&gt;Node3</title>
<path fill="none" stroke="#191970" d="M276.8129,-112.9351C299.0875,-118.281 324.7754,-124.4461 345.794,-129.4906"/>
<polygon fill="#191970" stroke="#191970" points="277.3885,-109.4739 266.8478,-110.5435 275.7548,-116.2806 277.3885,-109.4739"/>
</g>
<!-- Node6 -->
<g id="node6" class="node">
<title>Node6</title>
<g id="a_node6"><a xlink:href="../../d0/d24/MCGIDI__target_8cc.html#aceade9a3c57ad1b495684ce80626d3d1" target="_top" xlink:title="MCGIDI_target_read">
<polygon fill="none" stroke="#000000" points="1251.5,-90.5 1251.5,-110.5 1367.5,-110.5 1367.5,-90.5 1251.5,-90.5"/>
<text text-anchor="middle" x="1309.5" y="-97.5" font-family="FreeSans" font-size="10.00" fill="#000000">MCGIDI_target_read</text>
</a>
</g>
</g>
<!-- Node2&#45;&gt;Node6 -->
<g id="edge6" class="edge">
<title>Node2&#45;&gt;Node6</title>
<path fill="none" stroke="#191970" d="M299.2986,-100.5C367.3835,-100.5 470.9755,-100.5 561,-100.5 561,-100.5 561,-100.5 929.5,-100.5 1043.467,-100.5 1176.6604,-100.5 1251.2359,-100.5"/>
<polygon fill="#191970" stroke="#191970" points="299.1006,-97.0001 289.1006,-100.5 299.1006,-104.0001 299.1006,-97.0001"/>
</g>
<!-- Node13 -->
<g id="node13" class="node">
<title>Node13</title>
<g id="a_node13"><a xlink:href="../../d0/d11/xDataTOM__importXML_8cc.html#a37c62d5d9f5a43969e9f9e2595763615" target="_top" xlink:title="xDataXML_importFile">
<polygon fill="none" stroke="#000000" points="326.5,-51.5 326.5,-71.5 448.5,-71.5 448.5,-51.5 326.5,-51.5"/>
<text text-anchor="middle" x="387.5" y="-58.5" font-family="FreeSans" font-size="10.00" fill="#000000">xDataXML_importFile</text>
</a>
</g>
</g>
<!-- Node2&#45;&gt;Node13 -->
<g id="edge13" class="edge">
<title>Node2&#45;&gt;Node13</title>
<path fill="none" stroke="#191970" d="M276.8129,-88.0649C299.0875,-82.719 324.7754,-76.5539 345.794,-71.5094"/>
<polygon fill="#191970" stroke="#191970" points="275.7548,-84.7194 266.8478,-90.4565 277.3885,-91.5261 275.7548,-84.7194"/>
</g>
<!-- Node4 -->
<g id="node4" class="node">
<title>Node4</title>
<g id="a_node4"><a xlink:href="../../d6/def/classG4GIDI__map.html#a9750a65e702e882cc9a7734fafb68023" target="_top" xlink:title="G4GIDI_map::G4GIDI_map">
<polygon fill="none" stroke="#000000" points="486,-168.5 486,-188.5 636,-188.5 636,-168.5 486,-168.5"/>
<text text-anchor="middle" x="561" y="-175.5" font-family="FreeSans" font-size="10.00" fill="#000000">G4GIDI_map::G4GIDI_map</text>
</a>
</g>
</g>
<!-- Node3&#45;&gt;Node4 -->
<g id="edge3" class="edge">
<title>Node3&#45;&gt;Node4</title>
<path fill="none" stroke="#191970" d="M442.1783,-151.7908C466.1081,-157.1698 493.8272,-163.4006 516.4709,-168.4906"/>
<polygon fill="#191970" stroke="#191970" points="442.7047,-148.3219 432.1806,-149.5435 441.1695,-155.1515 442.7047,-148.3219"/>
</g>
<!-- Node5 -->
<g id="node5" class="node">
<title>Node5</title>
<g id="a_node5"><a xlink:href="../../db/d26/MCGIDI__map_8cc.html#a102479fb4cfc6b6497eb744bf96eb404" target="_top" xlink:title="MCGIDI_map_addPath">
<polygon fill="none" stroke="#000000" points="497.5,-129.5 497.5,-149.5 624.5,-149.5 624.5,-129.5 497.5,-129.5"/>
<text text-anchor="middle" x="561" y="-136.5" font-family="FreeSans" font-size="10.00" fill="#000000">MCGIDI_map_addPath</text>
</a>
</g>
</g>
<!-- Node3&#45;&gt;Node5 -->
<g id="edge4" class="edge">
<title>Node3&#45;&gt;Node5</title>
<path fill="none" stroke="#191970" d="M460.3363,-132.8278C472.6112,-132.6895 485.2677,-132.7356 497.2879,-132.9662"/>
<polygon fill="#191970" stroke="#191970" points="460.0815,-129.3312 450.1375,-132.9873 460.191,-136.3304 460.0815,-129.3312"/>
</g>
<!-- Node5&#45;&gt;Node3 -->
<g id="edge5" class="edge">
<title>Node5&#45;&gt;Node3</title>
<path fill="none" stroke="#191970" d="M487.0636,-146.1841C474.7669,-146.3114 462.1189,-146.2543 450.1375,-146.0127"/>
<polygon fill="#191970" stroke="#191970" points="487.3405,-149.6805 497.2879,-146.0338 487.2376,-142.6813 487.3405,-149.6805"/>
</g>
<!-- Node7 -->
<g id="node7" class="node">
<title>Node7</title>
<g id="a_node7"><a xlink:href="../../d0/d24/MCGIDI__target_8cc.html#aaafb33a4730d63f1a901e27b04186c45" target="_top" xlink:title="MCGIDI_target_newRead">
<polygon fill="none" stroke="#000000" points="1447.5,-129.5 1447.5,-149.5 1587.5,-149.5 1587.5,-129.5 1447.5,-129.5"/>
<text text-anchor="middle" x="1517.5" y="-136.5" font-family="FreeSans" font-size="10.00" fill="#000000">MCGIDI_target_newRead</text>
</a>
</g>
</g>
<!-- Node6&#45;&gt;Node7 -->
<g id="edge7" class="edge">
<title>Node6&#45;&gt;Node7</title>
<path fill="none" stroke="#191970" d="M1373.1368,-112.4319C1402.2526,-117.8911 1436.3642,-124.287 1464.1164,-129.4906"/>
<polygon fill="#191970" stroke="#191970" points="1373.5389,-108.9464 1363.0652,-110.5435 1372.2489,-115.8265 1373.5389,-108.9464"/>
</g>
<!-- Node11 -->
<g id="node11" class="node">
<title>Node11</title>
<g id="a_node11"><a xlink:href="../../d0/d24/MCGIDI__target_8cc.html#a4560dca48e241a7fb5e51e49e283c8a8" target="_top" xlink:title="MCGIDI_target_readFromMap">
<polygon fill="none" stroke="#000000" points="1436,-90.5 1436,-110.5 1599,-110.5 1599,-90.5 1436,-90.5"/>
<text text-anchor="middle" x="1517.5" y="-97.5" font-family="FreeSans" font-size="10.00" fill="#000000">MCGIDI_target_readFromMap</text>
</a>
</g>
</g>
<!-- Node6&#45;&gt;Node11 -->
<g id="edge11" class="edge">
<title>Node6&#45;&gt;Node11</title>
<path fill="none" stroke="#191970" d="M1377.8447,-100.5C1396.4281,-100.5 1416.7395,-100.5 1435.9738,-100.5"/>
<polygon fill="#191970" stroke="#191970" points="1377.7162,-97.0001 1367.7162,-100.5 1377.7161,-104.0001 1377.7162,-97.0001"/>
</g>
<!-- Node12 -->
<g id="node12" class="node">
<title>Node12</title>
<g id="a_node12"><a xlink:href="../../d0/d24/MCGIDI__target_8cc.html#aa4199e5c62d5cadb67be229a06a9e34c" target="_top" xlink:title="MCGIDI_target_readFromMap\lViaPoPIDs">
<polygon fill="none" stroke="#000000" points="1436,-39.5 1436,-71.5 1599,-71.5 1599,-39.5 1436,-39.5"/>
<text text-anchor="start" x="1444" y="-58.5" font-family="FreeSans" font-size="10.00" fill="#000000">MCGIDI_target_readFromMap</text>
<text text-anchor="middle" x="1517.5" y="-46.5" font-family="FreeSans" font-size="10.00" fill="#000000">ViaPoPIDs</text>
</a>
</g>
</g>
<!-- Node6&#45;&gt;Node12 -->
<g id="edge12" class="edge">
<title>Node6&#45;&gt;Node12</title>
<path fill="none" stroke="#191970" d="M1367.9732,-88.3207C1378.6333,-86.0728 1389.6532,-83.7308 1400,-81.5 1414.807,-78.3076 1430.6512,-74.838 1445.7575,-71.5044"/>
<polygon fill="#191970" stroke="#191970" points="1366.9621,-84.9567 1357.8968,-90.4404 1368.4031,-91.8068 1366.9621,-84.9567"/>
</g>
<!-- Node8 -->
<g id="node8" class="node">
<title>Node8</title>
<g id="a_node8"><a xlink:href="../../d6/d19/classG4GIDI__target.html#ad9abda532ded0d6729329d77b63e8016" target="_top" xlink:title="G4GIDI_target::init">
<polygon fill="none" stroke="#000000" points="1672.5,-168.5 1672.5,-188.5 1783.5,-188.5 1783.5,-168.5 1672.5,-168.5"/>
<text text-anchor="middle" x="1728" y="-175.5" font-family="FreeSans" font-size="10.00" fill="#000000">G4GIDI_target::init</text>
</a>
</g>
</g>
<!-- Node7&#45;&gt;Node8 -->
<g id="edge8" class="edge">
<title>Node7&#45;&gt;Node8</title>
<path fill="none" stroke="#191970" d="M1581.9017,-151.4319C1611.3674,-156.8911 1645.889,-163.287 1673.9747,-168.4906"/>
<polygon fill="#191970" stroke="#191970" points="1582.1793,-147.9238 1571.709,-149.5435 1580.904,-154.8067 1582.1793,-147.9238"/>
</g>
<!-- Node9 -->
<g id="node9" class="node">
<title>Node9</title>
<g id="a_node9"><a xlink:href="../../d0/d24/MCGIDI__target_8cc.html#a829194d1b0216594e41504b4a5071648" target="_top" xlink:title="MCGIDI_target_newReadFromMap">
<polygon fill="none" stroke="#000000" points="1635,-129.5 1635,-149.5 1821,-149.5 1821,-129.5 1635,-129.5"/>
<text text-anchor="middle" x="1728" y="-136.5" font-family="FreeSans" font-size="10.00" fill="#000000">MCGIDI_target_newReadFromMap</text>
</a>
</g>
</g>
<!-- Node7&#45;&gt;Node9 -->
<g id="edge9" class="edge">
<title>Node7&#45;&gt;Node9</title>
<path fill="none" stroke="#191970" d="M1597.7042,-139.5C1609.8924,-139.5 1622.5564,-139.5 1634.9895,-139.5"/>
<polygon fill="#191970" stroke="#191970" points="1597.5935,-136.0001 1587.5935,-139.5 1597.5934,-143.0001 1597.5935,-136.0001"/>
</g>
<!-- Node10 -->
<g id="node10" class="node">
<title>Node10</title>
<g id="a_node10"><a xlink:href="../../d0/d24/MCGIDI__target_8cc.html#a4a5295fc164f2a595e31633df6421077" target="_top" xlink:title="MCGIDI_target_newReadFrom\lMapViaPoPIDs">
<polygon fill="none" stroke="#000000" points="1645.5,-78.5 1645.5,-110.5 1810.5,-110.5 1810.5,-78.5 1645.5,-78.5"/>
<text text-anchor="start" x="1653.5" y="-97.5" font-family="FreeSans" font-size="10.00" fill="#000000">MCGIDI_target_newReadFrom</text>
<text text-anchor="middle" x="1728" y="-85.5" font-family="FreeSans" font-size="10.00" fill="#000000">MapViaPoPIDs</text>
</a>
</g>
</g>
<!-- Node7&#45;&gt;Node10 -->
<g id="edge10" class="edge">
<title>Node7&#45;&gt;Node10</title>
<path fill="none" stroke="#191970" d="M1574.5533,-127.3033C1598.7272,-122.1355 1627.2276,-116.0428 1653.0637,-110.5196"/>
<polygon fill="#191970" stroke="#191970" points="1573.5256,-123.9439 1564.4783,-129.4571 1574.9891,-130.7892 1573.5256,-123.9439"/>
</g>
<!-- Node14 -->
<g id="node14" class="node">
<title>Node14</title>
<g id="a_node14"><a xlink:href="../../de/d7d/xDataTOM_8cc.html#a83e1ba863e749ea27dd961cbbe5c6c9a" target="_top" xlink:title="xDataTOM_importFile">
<polygon fill="none" stroke="#000000" points="499,-50.5 499,-70.5 623,-70.5 623,-50.5 499,-50.5"/>
<text text-anchor="middle" x="561" y="-57.5" font-family="FreeSans" font-size="10.00" fill="#000000">xDataTOM_importFile</text>
</a>
</g>
</g>
<!-- Node13&#45;&gt;Node14 -->
<g id="edge14" class="edge">
<title>Node13&#45;&gt;Node14</title>
<path fill="none" stroke="#191970" d="M458.7399,-61.0894C472.066,-61.0126 485.8967,-60.9329 498.9186,-60.8578"/>
<polygon fill="#191970" stroke="#191970" points="458.6492,-57.5898 448.6696,-61.1474 458.6897,-64.5896 458.6492,-57.5898"/>
</g>
<!-- Node15 -->
<g id="node15" class="node">
<title>Node15</title>
<g id="a_node15"><a xlink:href="../../df/da0/MCGIDI__target__heated_8cc.html#affe7058a90aef52f8e693d6ba5db8aa5" target="_top" xlink:title="MCGIDI_target_heated_read">
<polygon fill="none" stroke="#000000" points="672,-48.5 672,-68.5 829,-68.5 829,-48.5 672,-48.5"/>
<text text-anchor="middle" x="750.5" y="-55.5" font-family="FreeSans" font-size="10.00" fill="#000000">MCGIDI_target_heated_read</text>
</a>
</g>
</g>
<!-- Node14&#45;&gt;Node15 -->
<g id="edge15" class="edge">
<title>Node14&#45;&gt;Node15</title>
<path fill="none" stroke="#191970" d="M633.4212,-59.7357C645.948,-59.6035 659.0269,-59.4654 671.7127,-59.3315"/>
<polygon fill="#191970" stroke="#191970" points="633.0119,-56.2397 623.0494,-59.8451 633.0858,-63.2393 633.0119,-56.2397"/>
</g>
<!-- Node16 -->
<g id="node16" class="node">
<title>Node16</title>
<g id="a_node16"><a xlink:href="../../df/da0/MCGIDI__target__heated_8cc.html#a49ca2312307b553d1f6c92c329e924a1" target="_top" xlink:title="MCGIDI_target_heated\l_newRead">
<polygon fill="none" stroke="#000000" points="865,-39.5 865,-71.5 994,-71.5 994,-39.5 865,-39.5"/>
<text text-anchor="start" x="873" y="-58.5" font-family="FreeSans" font-size="10.00" fill="#000000">MCGIDI_target_heated</text>
<text text-anchor="middle" x="929.5" y="-46.5" font-family="FreeSans" font-size="10.00" fill="#000000">_newRead</text>
</a>
</g>
</g>
<!-- Node15&#45;&gt;Node16 -->
<g id="edge16" class="edge">
<title>Node15&#45;&gt;Node16</title>
<path fill="none" stroke="#191970" d="M839.1213,-57.0147C847.7536,-56.8701 856.3968,-56.7252 864.7296,-56.5855"/>
<polygon fill="#191970" stroke="#191970" points="838.9519,-53.517 829.012,-57.1842 839.0693,-60.516 838.9519,-53.517"/>
</g>
<!-- Node17 -->
<g id="node17" class="node">
<title>Node17</title>
<g id="a_node17"><a xlink:href="../../d0/d24/MCGIDI__target_8cc.html#a208fecc858d8265d3777be7d110f84c5" target="_top" xlink:title="MCGIDI_target_readHeated\lTarget">
<polygon fill="none" stroke="#000000" points="1030,-39.5 1030,-71.5 1183,-71.5 1183,-39.5 1030,-39.5"/>
<text text-anchor="start" x="1038" y="-58.5" font-family="FreeSans" font-size="10.00" fill="#000000">MCGIDI_target_readHeated</text>
<text text-anchor="middle" x="1106.5" y="-46.5" font-family="FreeSans" font-size="10.00" fill="#000000">Target</text>
</a>
</g>
</g>
<!-- Node16&#45;&gt;Node17 -->
<g id="edge17" class="edge">
<title>Node16&#45;&gt;Node17</title>
<path fill="none" stroke="#191970" d="M1004.298,-55.5C1012.7015,-55.5 1021.274,-55.5 1029.7023,-55.5"/>
<polygon fill="#191970" stroke="#191970" points="1004.1524,-52.0001 994.1524,-55.5 1004.1524,-59.0001 1004.1524,-52.0001"/>
</g>
<!-- Node17&#45;&gt;Node6 -->
<g id="edge19" class="edge">
<title>Node17&#45;&gt;Node6</title>
<path fill="none" stroke="#191970" d="M1184.8521,-73.8217C1196.2977,-76.436 1207.9473,-79.0628 1219,-81.5 1232.4828,-84.473 1247.1202,-87.5928 1260.6148,-90.4252"/>
<polygon fill="#191970" stroke="#191970" points="1185.3957,-70.3556 1174.8665,-71.5326 1183.8316,-77.1786 1185.3957,-70.3556"/>
</g>
<!-- Node18 -->
<g id="node18" class="node">
<title>Node18</title>
<g id="a_node18"><a xlink:href="../../d0/d24/MCGIDI__target_8cc.html#ad84900f08012646e62d5fb6b529c6bf0" target="_top" xlink:title="MCGIDI_target_getHeatedTarget\lAtIndex_ReadIfNeeded">
<polygon fill="none" stroke="#000000" points="1220,-39.5 1220,-71.5 1399,-71.5 1399,-39.5 1220,-39.5"/>
<text text-anchor="start" x="1228" y="-58.5" font-family="FreeSans" font-size="10.00" fill="#000000">MCGIDI_target_getHeatedTarget</text>
<text text-anchor="middle" x="1309.5" y="-46.5" font-family="FreeSans" font-size="10.00" fill="#000000">AtIndex_ReadIfNeeded</text>
</a>
</g>
</g>
<!-- Node17&#45;&gt;Node18 -->
<g id="edge18" class="edge">
<title>Node17&#45;&gt;Node18</title>
<path fill="none" stroke="#191970" d="M1193.3864,-55.5C1202.0956,-55.5 1210.9515,-55.5 1219.6902,-55.5"/>
<polygon fill="#191970" stroke="#191970" points="1193.2456,-52.0001 1183.2456,-55.5 1193.2456,-59.0001 1193.2456,-52.0001"/>
</g>
<!-- Node19 -->
<g id="node19" class="node">
<title>Node19</title>
<g id="a_node19"><a xlink:href="../../d6/d19/classG4GIDI__target.html#a39033a3f6c4c47077398a69a08d3fc16" target="_top" xlink:title="G4GIDI_target::readTemperature">
<polygon fill="none" stroke="#000000" points="1219,-.5 1219,-20.5 1400,-20.5 1400,-.5 1219,-.5"/>
<text text-anchor="middle" x="1309.5" y="-7.5" font-family="FreeSans" font-size="10.00" fill="#000000">G4GIDI_target::readTemperature</text>
</a>
</g>
</g>
<!-- Node17&#45;&gt;Node19 -->
<g id="edge20" class="edge">
<title>Node17&#45;&gt;Node19</title>
<path fill="none" stroke="#191970" d="M1184.8521,-37.1783C1196.2977,-34.564 1207.9473,-31.9372 1219,-29.5 1232.4828,-26.527 1247.1202,-23.4072 1260.6148,-20.5748"/>
<polygon fill="#191970" stroke="#191970" points="1183.8316,-33.8214 1174.8665,-39.4674 1185.3957,-40.6444 1183.8316,-33.8214"/>
</g>
</g>
</svg>
