<?xml version="1.0" encoding="UTF-8" standalone="no"?>
<!DOCTYPE svg PUBLIC "-//W3C//DTD SVG 1.1//EN"
 "http://www.w3.org/Graphics/SVG/1.1/DTD/svg11.dtd">
<!-- Generated by graphviz version 2.40.1 (20161225.0304)
 -->
<!-- Title: G4PSMinKinEAtGeneration3D::G4PSMinKinEAtGeneration3D Pages: 1 -->
<svg width="1497pt" height="336pt"
 viewBox="0.00 0.00 1497.00 335.50" xmlns="http://www.w3.org/2000/svg" xmlns:xlink="http://www.w3.org/1999/xlink">
<g id="graph0" class="graph" transform="scale(1 1) rotate(0) translate(4 331.5)">
<title>G4PSMinKinEAtGeneration3D::G4PSMinKinEAtGeneration3D</title>
<!-- Node1 -->
<g id="node1" class="node">
<title>Node1</title>
<polygon fill="#bfbfbf" stroke="#000000" points="0,-113.5 0,-145.5 179,-145.5 179,-113.5 0,-113.5"/>
<text text-anchor="start" x="8" y="-132.5" font-family="FreeSans" font-size="10.00" fill="#000000">G4PSMinKinEAtGeneration3</text>
<text text-anchor="middle" x="89.5" y="-120.5" font-family="FreeSans" font-size="10.00" fill="#000000">D::G4PSMinKinEAtGeneration3D</text>
</g>
<!-- Node2 -->
<g id="node2" class="node">
<title>Node2</title>
<g id="a_node2"><a xlink:href="../../da/dde/classG4PSMinKinEAtGeneration.html#a36a5ec6b9cb4c7ac8ede49d573426f97" target="_top" xlink:title="G4PSMinKinEAtGeneration\l::SetUnit">
<polygon fill="none" stroke="#000000" points="215,-113.5 215,-145.5 365,-145.5 365,-113.5 215,-113.5"/>
<text text-anchor="start" x="223" y="-132.5" font-family="FreeSans" font-size="10.00" fill="#000000">G4PSMinKinEAtGeneration</text>
<text text-anchor="middle" x="290" y="-120.5" font-family="FreeSans" font-size="10.00" fill="#000000">::SetUnit</text>
</a>
</g>
</g>
<!-- Node1&#45;&gt;Node2 -->
<g id="edge1" class="edge">
<title>Node1&#45;&gt;Node2</title>
<path fill="none" stroke="#191970" d="M179.1942,-129.5C187.6446,-129.5 196.1962,-129.5 204.6052,-129.5"/>
<polygon fill="#191970" stroke="#191970" points="204.7753,-133.0001 214.7752,-129.5 204.7752,-126.0001 204.7753,-133.0001"/>
</g>
<!-- Node3 -->
<g id="node3" class="node">
<title>Node3</title>
<g id="a_node3"><a xlink:href="../../dc/d0d/classG4VPrimitiveScorer.html#ad26820f9ea80593cb761329190a47e6e" target="_top" xlink:title="G4VPrimitiveScorer\l::CheckAndSetUnit">
<polygon fill="none" stroke="#000000" points="401,-113.5 401,-145.5 516,-145.5 516,-113.5 401,-113.5"/>
<text text-anchor="start" x="409" y="-132.5" font-family="FreeSans" font-size="10.00" fill="#000000">G4VPrimitiveScorer</text>
<text text-anchor="middle" x="458.5" y="-120.5" font-family="FreeSans" font-size="10.00" fill="#000000">::CheckAndSetUnit</text>
</a>
</g>
</g>
<!-- Node2&#45;&gt;Node3 -->
<g id="edge2" class="edge">
<title>Node2&#45;&gt;Node3</title>
<path fill="none" stroke="#191970" d="M365.3789,-129.5C373.8511,-129.5 382.4444,-129.5 390.8108,-129.5"/>
<polygon fill="#191970" stroke="#191970" points="390.8801,-133.0001 400.8801,-129.5 390.8801,-126.0001 390.8801,-133.0001"/>
</g>
<!-- Node4 -->
<g id="node4" class="node">
<title>Node4</title>
<g id="a_node4"><a xlink:href="../../dd/db6/classG4UnitDefinition.html#ab312cecd9b92e02f18c9c473a7110c6d" target="_top" xlink:title="G4UnitDefinition::GetCategory">
<polygon fill="none" stroke="#000000" points="552,-158.5 552,-178.5 723,-178.5 723,-158.5 552,-158.5"/>
<text text-anchor="middle" x="637.5" y="-165.5" font-family="FreeSans" font-size="10.00" fill="#000000">G4UnitDefinition::GetCategory</text>
</a>
</g>
</g>
<!-- Node3&#45;&gt;Node4 -->
<g id="edge3" class="edge">
<title>Node3&#45;&gt;Node4</title>
<path fill="none" stroke="#191970" d="M516.122,-142.0545C537.0255,-146.6089 560.5977,-151.7447 581.3706,-156.2707"/>
<polygon fill="#191970" stroke="#191970" points="580.8035,-159.7292 591.3194,-158.4383 582.2938,-152.8896 580.8035,-159.7292"/>
</g>
<!-- Node8 -->
<g id="node8" class="node">
<title>Node8</title>
<g id="a_node8"><a xlink:href="../../d5/d4f/G4Exception_8hh.html#ad36b5da5d062a20ca47b1c1f1ae353dd" target="_top" xlink:title="G4Exception">
<polygon fill="none" stroke="#000000" points="1366,-183.5 1366,-203.5 1446,-203.5 1446,-183.5 1366,-183.5"/>
<text text-anchor="middle" x="1406" y="-190.5" font-family="FreeSans" font-size="10.00" fill="#000000">G4Exception</text>
</a>
</g>
</g>
<!-- Node3&#45;&gt;Node8 -->
<g id="edge23" class="edge">
<title>Node3&#45;&gt;Node8</title>
<path fill="none" stroke="#191970" d="M474.8398,-145.7032C524.343,-192.9914 678.8336,-327.5 834.5,-327.5 834.5,-327.5 834.5,-327.5 1027,-327.5 1145.8995,-327.5 1176.9312,-309.466 1287,-264.5 1322.7829,-249.8818 1360.5249,-225.6453 1383.6716,-209.6221"/>
<polygon fill="#191970" stroke="#191970" points="1385.9074,-212.3289 1392.079,-203.7171 1381.8841,-206.6006 1385.9074,-212.3289"/>
</g>
<!-- Node16 -->
<g id="node16" class="node">
<title>Node16</title>
<g id="a_node16"><a xlink:href="../../dd/db6/classG4UnitDefinition.html#aa2bc282875d27f9319e636c72f6d0d5d" target="_top" xlink:title="G4UnitDefinition::GetValueOf">
<polygon fill="none" stroke="#000000" points="555,-119.5 555,-139.5 720,-139.5 720,-119.5 555,-119.5"/>
<text text-anchor="middle" x="637.5" y="-126.5" font-family="FreeSans" font-size="10.00" fill="#000000">G4UnitDefinition::GetValueOf</text>
</a>
</g>
</g>
<!-- Node3&#45;&gt;Node16 -->
<g id="edge17" class="edge">
<title>Node3&#45;&gt;Node16</title>
<path fill="none" stroke="#191970" d="M516.122,-129.5C525.3002,-129.5 534.9929,-129.5 544.7373,-129.5"/>
<polygon fill="#191970" stroke="#191970" points="544.8912,-133.0001 554.8912,-129.5 544.8912,-126.0001 544.8912,-133.0001"/>
</g>
<!-- Node17 -->
<g id="node17" class="node">
<title>Node17</title>
<g id="a_node17"><a xlink:href="../../dc/d0d/classG4VPrimitiveScorer.html#a7977089aca485dd2f2d0aa890da85bce" target="_top" xlink:title="G4VPrimitiveScorer\l::GetUnit">
<polygon fill="none" stroke="#000000" points="580,-68.5 580,-100.5 695,-100.5 695,-68.5 580,-68.5"/>
<text text-anchor="start" x="588" y="-87.5" font-family="FreeSans" font-size="10.00" fill="#000000">G4VPrimitiveScorer</text>
<text text-anchor="middle" x="637.5" y="-75.5" font-family="FreeSans" font-size="10.00" fill="#000000">::GetUnit</text>
</a>
</g>
</g>
<!-- Node3&#45;&gt;Node17 -->
<g id="edge21" class="edge">
<title>Node3&#45;&gt;Node17</title>
<path fill="none" stroke="#191970" d="M516.122,-115.014C533.3686,-110.6783 552.4318,-105.8859 570.2407,-101.4088"/>
<polygon fill="#191970" stroke="#191970" points="571.1411,-104.7914 579.9859,-98.9588 569.4343,-98.0026 571.1411,-104.7914"/>
</g>
<!-- Node18 -->
<g id="node18" class="node">
<title>Node18</title>
<g id="a_node18"><a xlink:href="../../dc/d0d/classG4VPrimitiveScorer.html#a8decffb8a73523e3bfc154c14dd6f239" target="_top" xlink:title="G4VPrimitiveScorer\l::GetName">
<polygon fill="none" stroke="#000000" points="580,-17.5 580,-49.5 695,-49.5 695,-17.5 580,-17.5"/>
<text text-anchor="start" x="588" y="-36.5" font-family="FreeSans" font-size="10.00" fill="#000000">G4VPrimitiveScorer</text>
<text text-anchor="middle" x="637.5" y="-24.5" font-family="FreeSans" font-size="10.00" fill="#000000">::GetName</text>
</a>
</g>
</g>
<!-- Node3&#45;&gt;Node18 -->
<g id="edge22" class="edge">
<title>Node3&#45;&gt;Node18</title>
<path fill="none" stroke="#191970" d="M475.7989,-113.2287C493.6364,-97.2452 522.8798,-73.1811 552,-58.5 557.7094,-55.6216 563.8047,-53.0209 570.0123,-50.6832"/>
<polygon fill="#191970" stroke="#191970" points="571.5537,-53.8509 579.8202,-47.2241 569.2254,-47.2494 571.5537,-53.8509"/>
</g>
<!-- Node5 -->
<g id="node5" class="node">
<title>Node5</title>
<g id="a_node5"><a xlink:href="../../dd/db6/classG4UnitDefinition.html#ad760642d8d8cc28d245e8101f86ed432" target="_top" xlink:title="G4UnitDefinition::GetUnits\lTable">
<polygon fill="none" stroke="#000000" points="759,-36.5 759,-68.5 910,-68.5 910,-36.5 759,-36.5"/>
<text text-anchor="start" x="767" y="-55.5" font-family="FreeSans" font-size="10.00" fill="#000000">G4UnitDefinition::GetUnits</text>
<text text-anchor="middle" x="834.5" y="-43.5" font-family="FreeSans" font-size="10.00" fill="#000000">Table</text>
</a>
</g>
</g>
<!-- Node4&#45;&gt;Node5 -->
<g id="edge4" class="edge">
<title>Node4&#45;&gt;Node5</title>
<path fill="none" stroke="#191970" d="M699.9507,-158.4546C707.9245,-156.0722 715.805,-153.1306 723,-149.5 759.2685,-131.1991 793.3253,-98.4311 814.0327,-76.0919"/>
<polygon fill="#191970" stroke="#191970" points="816.6462,-78.4202 820.7821,-68.666 811.4661,-73.712 816.6462,-78.4202"/>
</g>
<!-- Node4&#45;&gt;Node8 -->
<g id="edge16" class="edge">
<title>Node4&#45;&gt;Node8</title>
<path fill="none" stroke="#191970" d="M659.7118,-178.5976C709.6032,-200.6576 834.8922,-252.6084 946,-270.5 1104.9441,-296.0947 1294.4668,-235.4873 1371.1967,-207.1376"/>
<polygon fill="#191970" stroke="#191970" points="1372.7009,-210.3117 1380.8366,-203.5249 1370.2443,-203.7569 1372.7009,-210.3117"/>
</g>
<!-- Node11 -->
<g id="node11" class="node">
<title>Node11</title>
<g id="a_node11"><a xlink:href="../../d8/d3c/ts__scorers_8cc.html#ad81d1cdebbda7d39795160acd3aebd24" target="_top" xlink:title="message">
<polygon fill="none" stroke="#000000" points="803.5,-158.5 803.5,-178.5 865.5,-178.5 865.5,-158.5 803.5,-158.5"/>
<text text-anchor="middle" x="834.5" y="-165.5" font-family="FreeSans" font-size="10.00" fill="#000000">message</text>
</a>
</g>
</g>
<!-- Node4&#45;&gt;Node11 -->
<g id="edge11" class="edge">
<title>Node4&#45;&gt;Node11</title>
<path fill="none" stroke="#191970" d="M723.0476,-168.5C747.2758,-168.5 772.5679,-168.5 792.9225,-168.5"/>
<polygon fill="#191970" stroke="#191970" points="793.0849,-172.0001 803.0848,-168.5 793.0848,-165.0001 793.0849,-172.0001"/>
</g>
<!-- Node6 -->
<g id="node6" class="node">
<title>Node6</title>
<g id="a_node6"><a xlink:href="../../dd/db6/classG4UnitDefinition.html#a935e1332ba986a91d04e0f55996d301e" target="_top" xlink:title="G4UnitDefinition::BuildUnits\lTable">
<polygon fill="none" stroke="#000000" points="947.5,-36.5 947.5,-68.5 1106.5,-68.5 1106.5,-36.5 947.5,-36.5"/>
<text text-anchor="start" x="955.5" y="-55.5" font-family="FreeSans" font-size="10.00" fill="#000000">G4UnitDefinition::BuildUnits</text>
<text text-anchor="middle" x="1027" y="-43.5" font-family="FreeSans" font-size="10.00" fill="#000000">Table</text>
</a>
</g>
</g>
<!-- Node5&#45;&gt;Node6 -->
<g id="edge5" class="edge">
<title>Node5&#45;&gt;Node6</title>
<path fill="none" stroke="#191970" d="M910.0286,-52.5C918.9061,-52.5 928.0305,-52.5 937.08,-52.5"/>
<polygon fill="#191970" stroke="#191970" points="937.2481,-56.0001 947.2481,-52.5 937.2481,-49.0001 937.2481,-56.0001"/>
</g>
<!-- Node9 -->
<g id="node9" class="node">
<title>Node9</title>
<g id="a_node9"><a xlink:href="../../d7/d23/namespaceG4Threading.html#abb1b4c9b1d7bd6bf5f9b9e552b93bd38" target="_top" xlink:title="G4Threading::IsMasterThread">
<polygon fill="none" stroke="#000000" points="1323,-.5 1323,-20.5 1489,-20.5 1489,-.5 1323,-.5"/>
<text text-anchor="middle" x="1406" y="-7.5" font-family="FreeSans" font-size="10.00" fill="#000000">G4Threading::IsMasterThread</text>
</a>
</g>
</g>
<!-- Node5&#45;&gt;Node9 -->
<g id="edge10" class="edge">
<title>Node5&#45;&gt;Node9</title>
<path fill="none" stroke="#191970" d="M893.7074,-36.4417C910.4888,-32.5063 928.8573,-28.7748 946,-26.5 1072.1729,-9.7568 1219.4122,-7.6545 1312.6604,-8.4559"/>
<polygon fill="#191970" stroke="#191970" points="1312.8814,-11.9582 1322.9157,-8.5577 1312.9509,-4.9586 1312.8814,-11.9582"/>
</g>
<!-- Node7 -->
<g id="node7" class="node">
<title>Node7</title>
<g id="a_node7"><a xlink:href="../../dd/db6/classG4UnitDefinition.html#a7109cd0b74ba54198d1ba74d757e6c85" target="_top" xlink:title="G4UnitDefinition::G4Unit\lDefinition">
<polygon fill="none" stroke="#000000" points="1144,-36.5 1144,-68.5 1287,-68.5 1287,-36.5 1144,-36.5"/>
<text text-anchor="start" x="1152" y="-55.5" font-family="FreeSans" font-size="10.00" fill="#000000">G4UnitDefinition::G4Unit</text>
<text text-anchor="middle" x="1215.5" y="-43.5" font-family="FreeSans" font-size="10.00" fill="#000000">Definition</text>
</a>
</g>
</g>
<!-- Node6&#45;&gt;Node7 -->
<g id="edge6" class="edge">
<title>Node6&#45;&gt;Node7</title>
<path fill="none" stroke="#191970" d="M1106.6678,-52.5C1115.6474,-52.5 1124.808,-52.5 1133.8129,-52.5"/>
<polygon fill="#191970" stroke="#191970" points="1133.8955,-56.0001 1143.8955,-52.5 1133.8955,-49.0001 1133.8955,-56.0001"/>
</g>
<!-- Node7&#45;&gt;Node8 -->
<g id="edge7" class="edge">
<title>Node7&#45;&gt;Node8</title>
<path fill="none" stroke="#191970" d="M1259.0602,-68.5985C1268.5843,-72.8724 1278.3856,-77.8855 1287,-83.5 1328.5355,-110.5711 1369.2759,-152.4962 1390.6342,-175.9974"/>
<polygon fill="#191970" stroke="#191970" points="1388.0682,-178.3786 1397.3501,-183.4872 1393.2799,-173.7054 1388.0682,-178.3786"/>
</g>
<!-- Node7&#45;&gt;Node9 -->
<g id="edge8" class="edge">
<title>Node7&#45;&gt;Node9</title>
<path fill="none" stroke="#191970" d="M1287.2484,-36.6814C1308.2713,-32.0465 1330.9233,-27.0523 1350.7499,-22.6811"/>
<polygon fill="#191970" stroke="#191970" points="1351.5236,-26.0947 1360.5355,-20.5237 1350.0165,-19.2588 1351.5236,-26.0947"/>
</g>
<!-- Node10 -->
<g id="node10" class="node">
<title>Node10</title>
<g id="a_node10"><a xlink:href="../../dd/db6/classG4UnitDefinition.html#a94a28970a26fc3e3ff90a28a86c7ff9d" target="_top" xlink:title="G4UnitDefinition::GetName">
<polygon fill="none" stroke="#000000" points="1328.5,-42.5 1328.5,-62.5 1483.5,-62.5 1483.5,-42.5 1328.5,-42.5"/>
<text text-anchor="middle" x="1406" y="-49.5" font-family="FreeSans" font-size="10.00" fill="#000000">G4UnitDefinition::GetName</text>
</a>
</g>
</g>
<!-- Node7&#45;&gt;Node10 -->
<g id="edge9" class="edge">
<title>Node7&#45;&gt;Node10</title>
<path fill="none" stroke="#191970" d="M1287.2484,-52.5C1297.2945,-52.5 1307.7126,-52.5 1318.0167,-52.5"/>
<polygon fill="#191970" stroke="#191970" points="1318.2647,-56.0001 1328.2647,-52.5 1318.2646,-49.0001 1318.2647,-56.0001"/>
</g>
<!-- Node12 -->
<g id="node12" class="node">
<title>Node12</title>
<g id="a_node12"><a xlink:href="../../d7/d23/namespaceG4Threading.html#a457962a93ab41c7f9575dde6cbe9b78c" target="_top" xlink:title="G4Threading::G4GetNumber\lOfCores">
<polygon fill="none" stroke="#000000" points="946,-126.5 946,-158.5 1108,-158.5 1108,-126.5 946,-126.5"/>
<text text-anchor="start" x="954" y="-145.5" font-family="FreeSans" font-size="10.00" fill="#000000">G4Threading::G4GetNumber</text>
<text text-anchor="middle" x="1027" y="-133.5" font-family="FreeSans" font-size="10.00" fill="#000000">OfCores</text>
</a>
</g>
</g>
<!-- Node11&#45;&gt;Node12 -->
<g id="edge12" class="edge">
<title>Node11&#45;&gt;Node12</title>
<path fill="none" stroke="#191970" d="M865.8569,-164.2648C885.0436,-161.6733 910.6701,-158.2121 935.8321,-154.8136"/>
<polygon fill="#191970" stroke="#191970" points="936.3701,-158.2728 945.8117,-153.4657 935.4331,-151.3358 936.3701,-158.2728"/>
</g>
<!-- Node13 -->
<g id="node13" class="node">
<title>Node13</title>
<g id="a_node13"><a xlink:href="../../d4/daa/classG4RunManager.html#a3a19f2283ba22cbee8ba640d160d2e7e" target="_top" xlink:title="G4RunManager::GetVerbose\lLevel">
<polygon fill="none" stroke="#000000" points="947.5,-228.5 947.5,-260.5 1106.5,-260.5 1106.5,-228.5 947.5,-228.5"/>
<text text-anchor="start" x="955.5" y="-247.5" font-family="FreeSans" font-size="10.00" fill="#000000">G4RunManager::GetVerbose</text>
<text text-anchor="middle" x="1027" y="-235.5" font-family="FreeSans" font-size="10.00" fill="#000000">Level</text>
</a>
</g>
</g>
<!-- Node11&#45;&gt;Node13 -->
<g id="edge13" class="edge">
<title>Node11&#45;&gt;Node13</title>
<path fill="none" stroke="#191970" d="M854.3095,-178.5091C876.3482,-189.4197 913.1808,-206.9899 946,-219.5 951.071,-221.433 956.3617,-223.3278 961.7037,-225.1553"/>
<polygon fill="#191970" stroke="#191970" points="960.7445,-228.5248 971.3381,-228.366 962.9576,-221.8839 960.7445,-228.5248"/>
</g>
<!-- Node14 -->
<g id="node14" class="node">
<title>Node14</title>
<g id="a_node14"><a xlink:href="../../d4/daa/classG4RunManager.html#a9e042965b0d460b1d492ab48de141b2a" target="_top" xlink:title="G4RunManager::SetVerbose\lLevel">
<polygon fill="none" stroke="#000000" points="948,-177.5 948,-209.5 1106,-209.5 1106,-177.5 948,-177.5"/>
<text text-anchor="start" x="956" y="-196.5" font-family="FreeSans" font-size="10.00" fill="#000000">G4RunManager::SetVerbose</text>
<text text-anchor="middle" x="1027" y="-184.5" font-family="FreeSans" font-size="10.00" fill="#000000">Level</text>
</a>
</g>
</g>
<!-- Node11&#45;&gt;Node14 -->
<g id="edge14" class="edge">
<title>Node11&#45;&gt;Node14</title>
<path fill="none" stroke="#191970" d="M865.8569,-172.5723C885.5139,-175.1252 911.9301,-178.5559 937.6813,-181.9002"/>
<polygon fill="#191970" stroke="#191970" points="937.5161,-185.408 947.8837,-183.2252 938.4177,-178.4663 937.5161,-185.408"/>
</g>
<!-- Node15 -->
<g id="node15" class="node">
<title>Node15</title>
<g id="a_node15"><a xlink:href="../../de/d51/classG4RunManagerKernel.html#aea8a72d21f60b3e6436eed9b651dc247" target="_top" xlink:title="G4RunManagerKernel\l::SetVerboseLevel">
<polygon fill="none" stroke="#000000" points="1152.5,-177.5 1152.5,-209.5 1278.5,-209.5 1278.5,-177.5 1152.5,-177.5"/>
<text text-anchor="start" x="1160.5" y="-196.5" font-family="FreeSans" font-size="10.00" fill="#000000">G4RunManagerKernel</text>
<text text-anchor="middle" x="1215.5" y="-184.5" font-family="FreeSans" font-size="10.00" fill="#000000">::SetVerboseLevel</text>
</a>
</g>
</g>
<!-- Node14&#45;&gt;Node15 -->
<g id="edge15" class="edge">
<title>Node14&#45;&gt;Node15</title>
<path fill="none" stroke="#191970" d="M1106.1216,-193.5C1118.0442,-193.5 1130.2985,-193.5 1142.0941,-193.5"/>
<polygon fill="#191970" stroke="#191970" points="1142.3222,-197.0001 1152.3221,-193.5 1142.3221,-190.0001 1142.3222,-197.0001"/>
</g>
<!-- Node16&#45;&gt;Node5 -->
<g id="edge18" class="edge">
<title>Node16&#45;&gt;Node5</title>
<path fill="none" stroke="#191970" d="M694.6592,-119.453C704.3394,-116.8193 714.1221,-113.5462 723,-109.5 740.9592,-101.3149 741.7515,-93.0926 759,-83.5 765.8785,-79.6746 773.3266,-76.0497 780.7733,-72.7185"/>
<polygon fill="#191970" stroke="#191970" points="782.3697,-75.8416 790.1619,-68.6631 779.5938,-69.4155 782.3697,-75.8416"/>
</g>
<!-- Node16&#45;&gt;Node8 -->
<g id="edge20" class="edge">
<title>Node16&#45;&gt;Node8</title>
<path fill="none" stroke="#191970" d="M720.3218,-119.5535C814.6013,-110.0035 973.0301,-99.3443 1108,-116.5 1203.2621,-128.6085 1311.63,-161.6619 1367.7589,-180.2869"/>
<polygon fill="#191970" stroke="#191970" points="1366.6961,-183.622 1377.2899,-183.478 1368.9185,-176.9842 1366.6961,-183.622"/>
</g>
<!-- Node16&#45;&gt;Node11 -->
<g id="edge19" class="edge">
<title>Node16&#45;&gt;Node11</title>
<path fill="none" stroke="#191970" d="M688.2324,-139.5435C720.9059,-146.0118 762.8319,-154.3119 793.4138,-160.3662"/>
<polygon fill="#191970" stroke="#191970" points="792.8311,-163.8187 803.3204,-162.3274 794.1906,-156.9519 792.8311,-163.8187"/>
</g>
</g>
</svg>
