<?xml version="1.0" encoding="UTF-8" standalone="no"?>
<!DOCTYPE svg PUBLIC "-//W3C//DTD SVG 1.1//EN"
 "http://www.w3.org/Graphics/SVG/1.1/DTD/svg11.dtd">
<!-- Generated by graphviz version 2.40.1 (20161225.0304)
 -->
<!-- Title: acts/blob/master/Core/include/Acts/Vertexing/IterativeVertexFinder.ipp Pages: 1 -->
<svg width="936pt" height="296pt"
 viewBox="0.00 0.00 935.50 296.00" xmlns="http://www.w3.org/2000/svg" xmlns:xlink="http://www.w3.org/1999/xlink">
<g id="graph0" class="graph" transform="scale(1 1) rotate(0) translate(4 292)">
<title>acts/blob/master/Core/include/Acts/Vertexing/IterativeVertexFinder.ipp</title>
<!-- Node1 -->
<g id="node1" class="node">
<title>Node1</title>
<polygon fill="#bfbfbf" stroke="#000000" points="418.5,-243.5 418.5,-287.5 562.5,-287.5 562.5,-243.5 418.5,-243.5"/>
<text text-anchor="start" x="426.5" y="-274.5" font-family="FreeSans" font-size="10.00" fill="#000000">acts/blob/master/Core</text>
<text text-anchor="start" x="426.5" y="-262.5" font-family="FreeSans" font-size="10.00" fill="#000000">/include/Acts/Vertexing</text>
<text text-anchor="middle" x="490.5" y="-250.5" font-family="FreeSans" font-size="10.00" fill="#000000">/IterativeVertexFinder.ipp</text>
</g>
<!-- Node2 -->
<g id="node2" class="node">
<title>Node2</title>
<g id="a_node2"><a xlink:href="../../d8/ddf/IterativeVertexFinder_8hpp.html" target="_top" xlink:title="acts/blob/master/Core\l/include/Acts/Vertexing\l/IterativeVertexFinder.hpp">
<polygon fill="none" stroke="#000000" points="416.5,-162.5 416.5,-206.5 564.5,-206.5 564.5,-162.5 416.5,-162.5"/>
<text text-anchor="start" x="424.5" y="-193.5" font-family="FreeSans" font-size="10.00" fill="#000000">acts/blob/master/Core</text>
<text text-anchor="start" x="424.5" y="-181.5" font-family="FreeSans" font-size="10.00" fill="#000000">/include/Acts/Vertexing</text>
<text text-anchor="middle" x="490.5" y="-169.5" font-family="FreeSans" font-size="10.00" fill="#000000">/IterativeVertexFinder.hpp</text>
</a>
</g>
</g>
<!-- Node1&#45;&gt;Node2 -->
<g id="edge1" class="edge">
<title>Node1&#45;&gt;Node2</title>
<path fill="none" stroke="#191970" d="M490.5,-233.2457C490.5,-224.3118 490.5,-214.8188 490.5,-206.6068"/>
<polygon fill="#191970" stroke="#191970" points="487.0001,-233.3664 490.5,-243.3664 494.0001,-233.3664 487.0001,-233.3664"/>
</g>
<!-- Node3 -->
<g id="node3" class="node">
<title>Node3</title>
<g id="a_node3"><a xlink:href="../../d8/ddc/VertexFindingAlgorithm_8hpp.html" target="_top" xlink:title="acts/blob/master/Examples\l/Algorithms/Vertexing/include\l/ACTFW/Vertexing/VertexFindingAlgorithm.hpp">
<polygon fill="none" stroke="#000000" points="133,-81.5 133,-125.5 386,-125.5 386,-81.5 133,-81.5"/>
<text text-anchor="start" x="141" y="-112.5" font-family="FreeSans" font-size="10.00" fill="#000000">acts/blob/master/Examples</text>
<text text-anchor="start" x="141" y="-100.5" font-family="FreeSans" font-size="10.00" fill="#000000">/Algorithms/Vertexing/include</text>
<text text-anchor="middle" x="259.5" y="-88.5" font-family="FreeSans" font-size="10.00" fill="#000000">/ACTFW/Vertexing/VertexFindingAlgorithm.hpp</text>
</a>
</g>
</g>
<!-- Node2&#45;&gt;Node3 -->
<g id="edge2" class="edge">
<title>Node2&#45;&gt;Node3</title>
<path fill="none" stroke="#191970" d="M417.9017,-159.0434C387.2235,-148.2861 351.8382,-135.8783 322.3041,-125.5222"/>
<polygon fill="#191970" stroke="#191970" points="417.0885,-162.4672 427.6834,-162.4734 419.4048,-155.8615 417.0885,-162.4672"/>
</g>
<!-- Node4 -->
<g id="node4" class="node">
<title>Node4</title>
<g id="a_node4"><a xlink:href="../../d7/d3d/VertexFindingAlgorithm_8cpp.html" target="_top" xlink:title="acts/blob/master/Examples\l/Algorithms/Vertexing/src\l/VertexFindingAlgorithm.cpp">
<polygon fill="none" stroke="#000000" points="0,-.5 0,-44.5 161,-44.5 161,-.5 0,-.5"/>
<text text-anchor="start" x="8" y="-31.5" font-family="FreeSans" font-size="10.00" fill="#000000">acts/blob/master/Examples</text>
<text text-anchor="start" x="8" y="-19.5" font-family="FreeSans" font-size="10.00" fill="#000000">/Algorithms/Vertexing/src</text>
<text text-anchor="middle" x="80.5" y="-7.5" font-family="FreeSans" font-size="10.00" fill="#000000">/VertexFindingAlgorithm.cpp</text>
</a>
</g>
</g>
<!-- Node2&#45;&gt;Node4 -->
<g id="edge6" class="edge">
<title>Node2&#45;&gt;Node4</title>
<path fill="none" stroke="#191970" d="M406.325,-180.4745C311.8619,-174.3663 166.2163,-159.6723 123.5,-126 98.2864,-106.1247 87.7116,-68.8738 83.3796,-44.9023"/>
<polygon fill="#191970" stroke="#191970" points="406.2402,-183.976 416.4396,-181.1085 406.6782,-176.9897 406.2402,-183.976"/>
</g>
<!-- Node7 -->
<g id="node7" class="node">
<title>Node7</title>
<g id="a_node7"><a xlink:href="../../dc/d36/IterativeVertexFinderTests_8cpp.html" target="_top" xlink:title="acts/blob/master/Tests\l/UnitTests/Core/Vertexing\l/IterativeVertexFinderTests.cpp">
<polygon fill="none" stroke="#000000" points="404,-81.5 404,-125.5 577,-125.5 577,-81.5 404,-81.5"/>
<text text-anchor="start" x="412" y="-112.5" font-family="FreeSans" font-size="10.00" fill="#000000">acts/blob/master/Tests</text>
<text text-anchor="start" x="412" y="-100.5" font-family="FreeSans" font-size="10.00" fill="#000000">/UnitTests/Core/Vertexing</text>
<text text-anchor="middle" x="490.5" y="-88.5" font-family="FreeSans" font-size="10.00" fill="#000000">/IterativeVertexFinderTests.cpp</text>
</a>
</g>
</g>
<!-- Node2&#45;&gt;Node7 -->
<g id="edge7" class="edge">
<title>Node2&#45;&gt;Node7</title>
<path fill="none" stroke="#191970" d="M490.5,-152.2457C490.5,-143.3118 490.5,-133.8188 490.5,-125.6068"/>
<polygon fill="#191970" stroke="#191970" points="487.0001,-152.3664 490.5,-162.3664 494.0001,-152.3664 487.0001,-152.3664"/>
</g>
<!-- Node8 -->
<g id="node8" class="node">
<title>Node8</title>
<g id="a_node8"><a xlink:href="../../d1/d49/PHActsInitialVertexFinder_8cc.html" target="_top" xlink:title="coresoftware/blob/master\l/offline/packages/trackreco\l/PHActsInitialVertexFinder.cc">
<polygon fill="none" stroke="#000000" points="595.5,-81.5 595.5,-125.5 755.5,-125.5 755.5,-81.5 595.5,-81.5"/>
<text text-anchor="start" x="603.5" y="-112.5" font-family="FreeSans" font-size="10.00" fill="#000000">coresoftware/blob/master</text>
<text text-anchor="start" x="603.5" y="-100.5" font-family="FreeSans" font-size="10.00" fill="#000000">/offline/packages/trackreco</text>
<text text-anchor="middle" x="675.5" y="-88.5" font-family="FreeSans" font-size="10.00" fill="#000000">/PHActsInitialVertexFinder.cc</text>
</a>
</g>
</g>
<!-- Node2&#45;&gt;Node8 -->
<g id="edge8" class="edge">
<title>Node2&#45;&gt;Node8</title>
<path fill="none" stroke="#191970" d="M550.4439,-158.2543C574.5214,-147.7123 601.9721,-135.6933 625.0091,-125.6068"/>
<polygon fill="#191970" stroke="#191970" points="548.8087,-155.1494 541.0521,-162.3664 551.6163,-161.5617 548.8087,-155.1494"/>
</g>
<!-- Node9 -->
<g id="node9" class="node">
<title>Node9</title>
<g id="a_node9"><a xlink:href="../../da/d99/PHActsVertexFinder_8cc.html" target="_top" xlink:title="coresoftware/blob/master\l/offline/packages/trackreco\l/PHActsVertexFinder.cc">
<polygon fill="none" stroke="#000000" points="773.5,-81.5 773.5,-125.5 927.5,-125.5 927.5,-81.5 773.5,-81.5"/>
<text text-anchor="start" x="781.5" y="-112.5" font-family="FreeSans" font-size="10.00" fill="#000000">coresoftware/blob/master</text>
<text text-anchor="start" x="781.5" y="-100.5" font-family="FreeSans" font-size="10.00" fill="#000000">/offline/packages/trackreco</text>
<text text-anchor="middle" x="850.5" y="-88.5" font-family="FreeSans" font-size="10.00" fill="#000000">/PHActsVertexFinder.cc</text>
</a>
</g>
</g>
<!-- Node2&#45;&gt;Node9 -->
<g id="edge9" class="edge">
<title>Node2&#45;&gt;Node9</title>
<path fill="none" stroke="#191970" d="M574.4834,-167.6019C628.8218,-156.4142 701.0122,-141.0743 764.5,-126 767.353,-125.3226 770.2562,-124.6218 773.1864,-123.9048"/>
<polygon fill="#191970" stroke="#191970" points="573.6426,-164.2014 564.5511,-169.6416 575.0508,-171.0583 573.6426,-164.2014"/>
</g>
<!-- Node3&#45;&gt;Node4 -->
<g id="edge3" class="edge">
<title>Node3&#45;&gt;Node4</title>
<path fill="none" stroke="#191970" d="M201.1908,-77.1143C177.9687,-66.6059 151.5445,-54.6486 129.3534,-44.6068"/>
<polygon fill="#191970" stroke="#191970" points="200.0339,-80.4324 210.5875,-81.3664 202.9198,-74.0549 200.0339,-80.4324"/>
</g>
<!-- Node5 -->
<g id="node5" class="node">
<title>Node5</title>
<g id="a_node5"><a xlink:href="../../da/de2/VertexAndTracksReaderAndFinderExample_8cpp.html" target="_top" xlink:title="acts/blob/master/Examples\l/Run/Vertexing/VertexAndTracks\lReaderAndFinderExample.cpp">
<polygon fill="none" stroke="#000000" points="179,-.5 179,-44.5 358,-44.5 358,-.5 179,-.5"/>
<text text-anchor="start" x="187" y="-31.5" font-family="FreeSans" font-size="10.00" fill="#000000">acts/blob/master/Examples</text>
<text text-anchor="start" x="187" y="-19.5" font-family="FreeSans" font-size="10.00" fill="#000000">/Run/Vertexing/VertexAndTracks</text>
<text text-anchor="middle" x="268.5" y="-7.5" font-family="FreeSans" font-size="10.00" fill="#000000">ReaderAndFinderExample.cpp</text>
</a>
</g>
</g>
<!-- Node3&#45;&gt;Node5 -->
<g id="edge4" class="edge">
<title>Node3&#45;&gt;Node5</title>
<path fill="none" stroke="#191970" d="M263.0838,-71.2457C264.0765,-62.3118 265.1312,-52.8188 266.0437,-44.6068"/>
<polygon fill="#191970" stroke="#191970" points="259.5851,-71.041 261.9593,-81.3664 266.5423,-71.8141 259.5851,-71.041"/>
</g>
<!-- Node6 -->
<g id="node6" class="node">
<title>Node6</title>
<g id="a_node6"><a xlink:href="../../d2/d79/VertexFinderExample_8cpp.html" target="_top" xlink:title="acts/blob/master/Examples\l/Run/Vertexing/VertexFinderExample.cpp">
<polygon fill="none" stroke="#000000" points="376.5,-6.5 376.5,-38.5 600.5,-38.5 600.5,-6.5 376.5,-6.5"/>
<text text-anchor="start" x="384.5" y="-25.5" font-family="FreeSans" font-size="10.00" fill="#000000">acts/blob/master/Examples</text>
<text text-anchor="middle" x="488.5" y="-13.5" font-family="FreeSans" font-size="10.00" fill="#000000">/Run/Vertexing/VertexFinderExample.cpp</text>
</a>
</g>
</g>
<!-- Node3&#45;&gt;Node6 -->
<g id="edge5" class="edge">
<title>Node3&#45;&gt;Node6</title>
<path fill="none" stroke="#191970" d="M331.3795,-78.0754C367.8641,-65.1704 411.0832,-49.8832 442.9494,-38.6118"/>
<polygon fill="#191970" stroke="#191970" points="330.0332,-74.839 321.7728,-81.4734 332.3676,-81.4383 330.0332,-74.839"/>
</g>
</g>
</svg>
