<?xml version="1.0" encoding="UTF-8" standalone="no"?>
<!DOCTYPE svg PUBLIC "-//W3C//DTD SVG 1.1//EN"
 "http://www.w3.org/Graphics/SVG/1.1/DTD/svg11.dtd">
<!-- Generated by graphviz version 2.40.1 (20161225.0304)
 -->
<!-- Title: xDataTOM_freeElement Pages: 1 -->
<svg width="1387pt" height="856pt"
 viewBox="0.00 0.00 1387.00 856.25" xmlns="http://www.w3.org/2000/svg" xmlns:xlink="http://www.w3.org/1999/xlink">
<g id="graph0" class="graph" transform="scale(1 1) rotate(0) translate(4 852.2454)">
<title>xDataTOM_freeElement</title>
<!-- Node1 -->
<g id="node1" class="node">
<title>Node1</title>
<polygon fill="#bfbfbf" stroke="#000000" points="0,-492.0233 0,-512.0233 136,-512.0233 136,-492.0233 0,-492.0233"/>
<text text-anchor="middle" x="68" y="-499.0233" font-family="FreeSans" font-size="10.00" fill="#000000">xDataTOM_freeElement</text>
</g>
<!-- Node2 -->
<g id="node2" class="node">
<title>Node2</title>
<g id="a_node2"><a xlink:href="../../dd/dc6/statusMessageReporting_8h.html#a23c74a6eff07826813358d99f43e1121" target="_top" xlink:title="smr_freeMemory">
<polygon fill="none" stroke="#000000" points="1249.5,-419.0233 1249.5,-439.0233 1350.5,-439.0233 1350.5,-419.0233 1249.5,-419.0233"/>
<text text-anchor="middle" x="1300" y="-426.0233" font-family="FreeSans" font-size="10.00" fill="#000000">smr_freeMemory</text>
</a>
</g>
</g>
<!-- Node1&#45;&gt;Node2 -->
<g id="edge1" class="edge">
<title>Node1&#45;&gt;Node2</title>
<path fill="none" stroke="#191970" d="M72.6333,-512.3185C99.1664,-569.5559 237.7677,-846.0233 439.5,-846.0233 439.5,-846.0233 439.5,-846.0233 901.5,-846.0233 1030.9709,-846.0233 1089.6263,-866.5823 1185,-779.0233 1235.6629,-732.5115 1282.3628,-517.1435 1296.0042,-449.4467"/>
<polygon fill="#191970" stroke="#191970" points="1299.5159,-449.7323 1298.0342,-439.2416 1292.6504,-448.3666 1299.5159,-449.7323"/>
</g>
<!-- Node3 -->
<g id="node3" class="node">
<title>Node3</title>
<g id="a_node3"><a xlink:href="../../dd/d05/xDataTOM_8h.html#abcd8a9cff099374e87f4f44e5185f774" target="_top" xlink:title="xDataTOM_releaseElement">
<polygon fill="none" stroke="#000000" points="172,-492.0233 172,-512.0233 325,-512.0233 325,-492.0233 172,-492.0233"/>
<text text-anchor="middle" x="248.5" y="-499.0233" font-family="FreeSans" font-size="10.00" fill="#000000">xDataTOM_releaseElement</text>
</a>
</g>
</g>
<!-- Node1&#45;&gt;Node3 -->
<g id="edge2" class="edge">
<title>Node1&#45;&gt;Node3</title>
<path fill="none" stroke="#191970" d="M136.2393,-495.455C144.4724,-495.3165 152.9658,-495.2572 161.4219,-495.277"/>
<polygon fill="#191970" stroke="#191970" points="161.6768,-498.7785 171.6982,-495.3403 161.72,-491.7786 161.6768,-498.7785"/>
</g>
<!-- Node3&#45;&gt;Node1 -->
<g id="edge6" class="edge">
<title>Node3&#45;&gt;Node1</title>
<path fill="none" stroke="#191970" d="M171.6982,-508.7062C163.3214,-508.7903 154.7865,-508.7953 146.391,-508.7212"/>
<polygon fill="#191970" stroke="#191970" points="146.2832,-505.2196 136.2393,-508.5916 146.1938,-512.2191 146.2832,-505.2196"/>
</g>
<!-- Node3&#45;&gt;Node2 -->
<g id="edge54" class="edge">
<title>Node3&#45;&gt;Node2</title>
<path fill="none" stroke="#191970" d="M250.2421,-512.2316C256.994,-548.4595 284.9471,-671.7966 361,-730.0233 433.4777,-785.5127 678.7831,-771.4254 770,-768.0233 954.8298,-761.1296 1037.0893,-848.0728 1185,-737.0233 1233.6575,-700.4918 1281.0309,-511.1878 1295.5115,-448.9093"/>
<polygon fill="#191970" stroke="#191970" points="1298.9312,-449.6553 1297.7573,-439.1257 1292.1087,-448.0892 1298.9312,-449.6553"/>
</g>
<!-- Node4 -->
<g id="node4" class="node">
<title>Node4</title>
<g id="a_node4"><a xlink:href="../../dd/d05/xDataTOM_8h.html#af59d05039bb06f6e84185e3ee5d05c21" target="_top" xlink:title="xDataTOMAL_release">
<polygon fill="none" stroke="#000000" points="378,-700.0233 378,-720.0233 501,-720.0233 501,-700.0233 378,-700.0233"/>
<text text-anchor="middle" x="439.5" y="-707.0233" font-family="FreeSans" font-size="10.00" fill="#000000">xDataTOMAL_release</text>
</a>
</g>
</g>
<!-- Node3&#45;&gt;Node4 -->
<g id="edge3" class="edge">
<title>Node3&#45;&gt;Node4</title>
<path fill="none" stroke="#191970" d="M251.8094,-512.0651C262.4441,-542.7753 298.7326,-636.3012 361,-685.0233 366.7308,-689.5074 373.284,-693.1966 380.1066,-696.2297"/>
<polygon fill="#191970" stroke="#191970" points="378.9393,-699.532 389.525,-699.9722 381.5242,-693.0268 378.9393,-699.532"/>
</g>
<!-- Node6 -->
<g id="node6" class="node">
<title>Node6</title>
<g id="a_node6"><a xlink:href="../../dd/d05/xDataTOM_8h.html#af7ae7174b614a3d81fa234e716021e0c" target="_top" xlink:title="xDataTOM_axes_release">
<polygon fill="none" stroke="#000000" points="832,-662.0233 832,-682.0233 971,-682.0233 971,-662.0233 832,-662.0233"/>
<text text-anchor="middle" x="901.5" y="-669.0233" font-family="FreeSans" font-size="10.00" fill="#000000">xDataTOM_axes_release</text>
</a>
</g>
</g>
<!-- Node3&#45;&gt;Node6 -->
<g id="edge7" class="edge">
<title>Node3&#45;&gt;Node6</title>
<path fill="none" stroke="#191970" d="M259.8611,-512.2513C279.3252,-529.3316 320.844,-563.8677 361,-585.0233 441.333,-627.3454 464.9357,-634.357 554,-652.0233 644.5354,-669.9813 750.7381,-673.63 821.6848,-673.6517"/>
<polygon fill="#191970" stroke="#191970" points="821.898,-677.1514 831.8904,-673.6299 821.8829,-670.1514 821.898,-677.1514"/>
</g>
<!-- Node8 -->
<g id="node8" class="node">
<title>Node8</title>
<g id="a_node8"><a xlink:href="../../dd/d05/xDataTOM_8h.html#a8e6e62c0fca8f3c58536f0ee800d59dd" target="_top" xlink:title="xDataTOM_XYs_free">
<polygon fill="none" stroke="#000000" points="843,-254.0233 843,-274.0233 960,-274.0233 960,-254.0233 843,-254.0233"/>
<text text-anchor="middle" x="901.5" y="-261.0233" font-family="FreeSans" font-size="10.00" fill="#000000">xDataTOM_XYs_free</text>
</a>
</g>
</g>
<!-- Node3&#45;&gt;Node8 -->
<g id="edge11" class="edge">
<title>Node3&#45;&gt;Node8</title>
<path fill="none" stroke="#191970" d="M257.332,-491.9186C275.0114,-472.3313 316.8563,-429.0987 361,-406.0233 518.22,-323.8388 726.5954,-286.6126 832.8398,-272.0488"/>
<polygon fill="#191970" stroke="#191970" points="833.3534,-275.5113 842.7975,-270.7094 832.4202,-268.5738 833.3534,-275.5113"/>
</g>
<!-- Node11 -->
<g id="node11" class="node">
<title>Node11</title>
<g id="a_node11"><a xlink:href="../../dd/d05/xDataTOM_8h.html#a1516b3d32e5c6d1f084992b4114aedf7" target="_top" xlink:title="xDataTOM_regionsXYs_free">
<polygon fill="none" stroke="#000000" points="824.5,-9.0233 824.5,-29.0233 978.5,-29.0233 978.5,-9.0233 824.5,-9.0233"/>
<text text-anchor="middle" x="901.5" y="-16.0233" font-family="FreeSans" font-size="10.00" fill="#000000">xDataTOM_regionsXYs_free</text>
</a>
</g>
</g>
<!-- Node3&#45;&gt;Node11 -->
<g id="edge16" class="edge">
<title>Node3&#45;&gt;Node11</title>
<path fill="none" stroke="#191970" d="M248.8344,-491.8264C250.8528,-447.4934 264.877,-269.6308 361,-178.0233 486.2195,-58.6861 696.3666,-28.3497 814.3488,-20.9988"/>
<polygon fill="#191970" stroke="#191970" points="814.6456,-24.4876 824.4255,-20.413 814.2392,-17.4993 814.6456,-24.4876"/>
</g>
<!-- Node12 -->
<g id="node12" class="node">
<title>Node12</title>
<g id="a_node12"><a xlink:href="../../dd/d05/xDataTOM_8h.html#aed25f9f02adde6dfeab9465a93079907" target="_top" xlink:title="xDataTOM_W_XYs_freeFrom\l_xDataInfo">
<polygon fill="none" stroke="#000000" points="361,-270.0233 361,-302.0233 518,-302.0233 518,-270.0233 361,-270.0233"/>
<text text-anchor="start" x="369" y="-289.0233" font-family="FreeSans" font-size="10.00" fill="#000000">xDataTOM_W_XYs_freeFrom</text>
<text text-anchor="middle" x="439.5" y="-277.0233" font-family="FreeSans" font-size="10.00" fill="#000000">_xDataInfo</text>
</a>
</g>
</g>
<!-- Node3&#45;&gt;Node12 -->
<g id="edge19" class="edge">
<title>Node3&#45;&gt;Node12</title>
<path fill="none" stroke="#191970" d="M252.6277,-491.9733C265.0251,-462.8423 304.5902,-377.1855 361,-326.0233 369.154,-318.6278 378.9274,-312.2292 388.7653,-306.8514"/>
<polygon fill="#191970" stroke="#191970" points="390.4938,-309.898 397.7737,-302.2003 387.2824,-303.6781 390.4938,-309.898"/>
</g>
<!-- Node15 -->
<g id="node15" class="node">
<title>Node15</title>
<g id="a_node15"><a xlink:href="../../dd/d05/xDataTOM_8h.html#a6d1fb8bd25ae2bf009da85070af9b9c2" target="_top" xlink:title="xDataTOM_V_W_XYs_free">
<polygon fill="none" stroke="#000000" points="590,-144.0233 590,-164.0233 734,-164.0233 734,-144.0233 590,-144.0233"/>
<text text-anchor="middle" x="662" y="-151.0233" font-family="FreeSans" font-size="10.00" fill="#000000">xDataTOM_V_W_XYs_free</text>
</a>
</g>
</g>
<!-- Node3&#45;&gt;Node15 -->
<g id="edge26" class="edge">
<title>Node3&#45;&gt;Node15</title>
<path fill="none" stroke="#191970" d="M250.3054,-491.8453C257.3515,-455.0809 286.3878,-327.7577 361,-260.0233 421.965,-204.678 513.5919,-177.8681 579.7317,-165.1146"/>
<polygon fill="#191970" stroke="#191970" points="580.5167,-168.5287 589.7084,-163.2597 579.2371,-161.6466 580.5167,-168.5287"/>
</g>
<!-- Node16 -->
<g id="node16" class="node">
<title>Node16</title>
<g id="a_node16"><a xlink:href="../../dd/d05/xDataTOM_8h.html#af22a3dbaf7c2f62b5ca3d670a137e57b" target="_top" xlink:title="xDataTOM_W_XYs_LegendreSeries_free">
<polygon fill="none" stroke="#000000" points="554,-469.0233 554,-489.0233 770,-489.0233 770,-469.0233 554,-469.0233"/>
<text text-anchor="middle" x="662" y="-476.0233" font-family="FreeSans" font-size="10.00" fill="#000000">xDataTOM_W_XYs_LegendreSeries_free</text>
</a>
</g>
</g>
<!-- Node3&#45;&gt;Node16 -->
<g id="edge29" class="edge">
<title>Node3&#45;&gt;Node16</title>
<path fill="none" stroke="#191970" d="M325.3071,-497.751C386.5245,-494.346 473.3023,-489.5191 543.4265,-485.6186"/>
<polygon fill="#191970" stroke="#191970" points="543.8567,-489.1002 553.6469,-485.0502 543.4679,-482.111 543.8567,-489.1002"/>
</g>
<!-- Node19 -->
<g id="node19" class="node">
<title>Node19</title>
<g id="a_node19"><a xlink:href="../../dd/d05/xDataTOM_8h.html#a244f8b496ec6a72e68602f22e597cba7" target="_top" xlink:title="xDataTOM_regionsW_XYs\l_LegendreSeries_free">
<polygon fill="none" stroke="#000000" points="367,-508.0233 367,-540.0233 512,-540.0233 512,-508.0233 367,-508.0233"/>
<text text-anchor="start" x="375" y="-527.0233" font-family="FreeSans" font-size="10.00" fill="#000000">xDataTOM_regionsW_XYs</text>
<text text-anchor="middle" x="439.5" y="-515.0233" font-family="FreeSans" font-size="10.00" fill="#000000">_LegendreSeries_free</text>
</a>
</g>
</g>
<!-- Node3&#45;&gt;Node19 -->
<g id="edge35" class="edge">
<title>Node3&#45;&gt;Node19</title>
<path fill="none" stroke="#191970" d="M325.0865,-510.8447C335.5468,-512.0496 346.3225,-513.2908 356.8841,-514.5073"/>
<polygon fill="#191970" stroke="#191970" points="356.5924,-517.9968 366.9272,-515.6641 357.3934,-511.0427 356.5924,-517.9968"/>
</g>
<!-- Node21 -->
<g id="node21" class="node">
<title>Node21</title>
<g id="a_node21"><a xlink:href="../../dd/d05/xDataTOM_8h.html#a1448ec84284915b669cd26de947920bd" target="_top" xlink:title="xDataTOM_V_W_XYs_Legendre\lSeries_free">
<polygon fill="none" stroke="#000000" points="576.5,-610.0233 576.5,-642.0233 747.5,-642.0233 747.5,-610.0233 576.5,-610.0233"/>
<text text-anchor="start" x="584.5" y="-629.0233" font-family="FreeSans" font-size="10.00" fill="#000000">xDataTOM_V_W_XYs_Legendre</text>
<text text-anchor="middle" x="662" y="-617.0233" font-family="FreeSans" font-size="10.00" fill="#000000">Series_free</text>
</a>
</g>
</g>
<!-- Node3&#45;&gt;Node21 -->
<g id="edge40" class="edge">
<title>Node3&#45;&gt;Node21</title>
<path fill="none" stroke="#191970" d="M269.2686,-512.0452C291.562,-522.5263 328.2027,-538.9612 361,-550.0233 431.7516,-573.8866 514.0768,-594.1792 574.7292,-607.7772"/>
<polygon fill="#191970" stroke="#191970" points="574.13,-611.2294 584.6516,-609.9854 575.6507,-604.3966 574.13,-611.2294"/>
</g>
<!-- Node22 -->
<g id="node22" class="node">
<title>Node22</title>
<g id="a_node22"><a xlink:href="../../dd/d05/xDataTOM_8h.html#aee99fba387adf6bbf52a51acd1ac3571" target="_top" xlink:title="xDataTOM_KalbachMann_free">
<polygon fill="none" stroke="#000000" points="818,-380.0233 818,-400.0233 985,-400.0233 985,-380.0233 818,-380.0233"/>
<text text-anchor="middle" x="901.5" y="-387.0233" font-family="FreeSans" font-size="10.00" fill="#000000">xDataTOM_KalbachMann_free</text>
</a>
</g>
</g>
<!-- Node3&#45;&gt;Node22 -->
<g id="edge43" class="edge">
<title>Node3&#45;&gt;Node22</title>
<path fill="none" stroke="#191970" d="M307.0241,-491.9854C427.7216,-471.2839 703.7507,-423.9404 832.7237,-401.8195"/>
<polygon fill="#191970" stroke="#191970" points="833.608,-405.219 842.8724,-400.0788 832.4246,-398.3198 833.608,-405.219"/>
</g>
<!-- Node24 -->
<g id="node24" class="node">
<title>Node24</title>
<g id="a_node24"><a xlink:href="../../dd/d05/xDataTOM_8h.html#afb4b5d25ec86464ee8947fd399738d48" target="_top" xlink:title="xDataTOM_polynomial_free">
<polygon fill="none" stroke="#000000" points="824,-341.0233 824,-361.0233 979,-361.0233 979,-341.0233 824,-341.0233"/>
<text text-anchor="middle" x="901.5" y="-348.0233" font-family="FreeSans" font-size="10.00" fill="#000000">xDataTOM_polynomial_free</text>
</a>
</g>
</g>
<!-- Node3&#45;&gt;Node24 -->
<g id="edge48" class="edge">
<title>Node3&#45;&gt;Node24</title>
<path fill="none" stroke="#191970" d="M268.3705,-491.9786C290.5048,-481.1211 327.5788,-463.9135 361,-453.0233 516.2445,-402.4374 705.2285,-373.9226 813.6275,-360.5624"/>
<polygon fill="#191970" stroke="#191970" points="814.3585,-363.9994 823.8623,-359.3166 813.5126,-357.0507 814.3585,-363.9994"/>
</g>
<!-- Node26 -->
<g id="node26" class="node">
<title>Node26</title>
<g id="a_node26"><a xlink:href="../../d8/deb/comparison__ascii_8C.html#abdedbca3600eb6c52e42ed70d25d71aa" target="_top" xlink:title="printf">
<polygon fill="none" stroke="#000000" points="417.5,-797.0233 417.5,-817.0233 461.5,-817.0233 461.5,-797.0233 417.5,-797.0233"/>
<text text-anchor="middle" x="439.5" y="-804.0233" font-family="FreeSans" font-size="10.00" fill="#000000">printf</text>
</a>
</g>
</g>
<!-- Node3&#45;&gt;Node26 -->
<g id="edge53" class="edge">
<title>Node3&#45;&gt;Node26</title>
<path fill="none" stroke="#191970" d="M249.5074,-512.1477C254.0643,-552.4915 276.3631,-703.4073 361,-782.0233 373.6369,-793.7612 391.7862,-799.988 407.451,-803.2912"/>
<polygon fill="#191970" stroke="#191970" points="406.8409,-806.7376 417.3034,-805.0683 408.0834,-799.8487 406.8409,-806.7376"/>
</g>
<!-- Node4&#45;&gt;Node2 -->
<g id="edge4" class="edge">
<title>Node4&#45;&gt;Node2</title>
<path fill="none" stroke="#191970" d="M501.2676,-712.6784C674.9686,-719.8928 1156.9433,-738.0796 1185,-719.0233 1278.069,-655.8103 1295.8182,-504.2437 1299.2027,-449.328"/>
<polygon fill="#191970" stroke="#191970" points="1302.7082,-449.3105 1299.7288,-439.1432 1295.7175,-448.9493 1302.7082,-449.3105"/>
</g>
<!-- Node5 -->
<g id="node5" class="node">
<title>Node5</title>
<g id="a_node5"><a xlink:href="../../dd/d05/xDataTOM_8h.html#a76eaacff67868e0e81079bb0c2b638d7" target="_top" xlink:title="xDataTOMAL_initial">
<polygon fill="none" stroke="#000000" points="605,-738.0233 605,-758.0233 719,-758.0233 719,-738.0233 605,-738.0233"/>
<text text-anchor="middle" x="662" y="-745.0233" font-family="FreeSans" font-size="10.00" fill="#000000">xDataTOMAL_initial</text>
</a>
</g>
</g>
<!-- Node4&#45;&gt;Node5 -->
<g id="edge5" class="edge">
<title>Node4&#45;&gt;Node5</title>
<path fill="none" stroke="#191970" d="M498.2503,-720.057C527.8629,-725.1145 563.9147,-731.2716 594.6448,-736.5199"/>
<polygon fill="#191970" stroke="#191970" points="594.3987,-740.0285 604.8452,-738.262 595.5772,-733.1284 594.3987,-740.0285"/>
</g>
<!-- Node6&#45;&gt;Node2 -->
<g id="edge8" class="edge">
<title>Node6&#45;&gt;Node2</title>
<path fill="none" stroke="#191970" d="M924.0233,-682.072C975.2024,-703.2372 1102.2114,-746.1801 1185,-692.0233 1270.6845,-635.9721 1292.9072,-500.484 1298.342,-449.173"/>
<polygon fill="#191970" stroke="#191970" points="1301.8425,-449.3332 1299.3073,-439.0462 1294.8741,-448.669 1301.8425,-449.3332"/>
</g>
<!-- Node7 -->
<g id="node7" class="node">
<title>Node7</title>
<g id="a_node7"><a xlink:href="../../dd/d05/xDataTOM_8h.html#aaec990b043cdae79edbfaeb9b4768981" target="_top" xlink:title="xDataTOM_axis_release">
<polygon fill="none" stroke="#000000" points="1041,-662.0233 1041,-682.0233 1177,-682.0233 1177,-662.0233 1041,-662.0233"/>
<text text-anchor="middle" x="1109" y="-669.0233" font-family="FreeSans" font-size="10.00" fill="#000000">xDataTOM_axis_release</text>
</a>
</g>
</g>
<!-- Node6&#45;&gt;Node7 -->
<g id="edge9" class="edge">
<title>Node6&#45;&gt;Node7</title>
<path fill="none" stroke="#191970" d="M971.1717,-672.0233C990.3213,-672.0233 1011.2134,-672.0233 1030.8084,-672.0233"/>
<polygon fill="#191970" stroke="#191970" points="1030.921,-675.5234 1040.9209,-672.0233 1030.9209,-668.5234 1030.921,-675.5234"/>
</g>
<!-- Node7&#45;&gt;Node2 -->
<g id="edge10" class="edge">
<title>Node7&#45;&gt;Node2</title>
<path fill="none" stroke="#191970" d="M1158.1119,-661.9951C1167.7474,-658.4126 1177.2551,-653.5677 1185,-647.0233 1249.6439,-592.399 1283.0443,-492.0557 1294.8924,-449.2426"/>
<polygon fill="#191970" stroke="#191970" points="1298.3121,-450.0019 1297.5029,-439.4381 1291.5478,-448.2008 1298.3121,-450.0019"/>
</g>
<!-- Node8&#45;&gt;Node2 -->
<g id="edge15" class="edge">
<title>Node8&#45;&gt;Node2</title>
<path fill="none" stroke="#191970" d="M960.0704,-254.3862C1020.1549,-247.4363 1114.5434,-244.8785 1185,-282.0233 1238.7972,-310.3851 1275.5253,-376.1745 1291.2961,-409.2662"/>
<polygon fill="#191970" stroke="#191970" points="1288.3123,-411.1541 1295.6752,-418.7724 1294.6701,-408.2253 1288.3123,-411.1541"/>
</g>
<!-- Node9 -->
<g id="node9" class="node">
<title>Node9</title>
<g id="a_node9"><a xlink:href="../../dd/d05/xDataTOM_8h.html#af7237afbf0f76e8018a3336d1b7d148f" target="_top" xlink:title="xDataTOM_XYs_release">
<polygon fill="none" stroke="#000000" points="1042,-87.0233 1042,-107.0233 1176,-107.0233 1176,-87.0233 1042,-87.0233"/>
<text text-anchor="middle" x="1109" y="-94.0233" font-family="FreeSans" font-size="10.00" fill="#000000">xDataTOM_XYs_release</text>
</a>
</g>
</g>
<!-- Node8&#45;&gt;Node9 -->
<g id="edge12" class="edge">
<title>Node8&#45;&gt;Node9</title>
<path fill="none" stroke="#191970" d="M913.8883,-253.9528C933.051,-238.013 970.4386,-205.4416 997,-173.0233 1015.9897,-149.8463 1008.7227,-133.5844 1033,-116.0233 1035.247,-114.3979 1037.6182,-112.9109 1040.0796,-111.5506"/>
<polygon fill="#191970" stroke="#191970" points="1041.795,-114.6106 1049.3256,-107.158 1038.7912,-108.2878 1041.795,-114.6106"/>
</g>
<!-- Node9&#45;&gt;Node2 -->
<g id="edge14" class="edge">
<title>Node9&#45;&gt;Node2</title>
<path fill="none" stroke="#191970" d="M1171.7399,-107.1944C1176.5464,-109.5733 1181.0539,-112.4788 1185,-116.0233 1274.6513,-196.5508 1294.542,-353.0662 1298.8453,-408.7526"/>
<polygon fill="#191970" stroke="#191970" points="1295.356,-409.0306 1299.5305,-418.7684 1302.3397,-408.5528 1295.356,-409.0306"/>
</g>
<!-- Node10 -->
<g id="node10" class="node">
<title>Node10</title>
<g id="a_node10"><a xlink:href="../../dd/d05/xDataTOM_8h.html#a10f296737a2ce3383868a81f21b09bd8" target="_top" xlink:title="xDataTOM_subAxes_release">
<polygon fill="none" stroke="#000000" points="1221,-110.0233 1221,-130.0233 1379,-130.0233 1379,-110.0233 1221,-110.0233"/>
<text text-anchor="middle" x="1300" y="-117.0233" font-family="FreeSans" font-size="10.00" fill="#000000">xDataTOM_subAxes_release</text>
</a>
</g>
</g>
<!-- Node9&#45;&gt;Node10 -->
<g id="edge13" class="edge">
<title>Node9&#45;&gt;Node10</title>
<path fill="none" stroke="#191970" d="M1176.0709,-105.0999C1187.2943,-106.4514 1199.0942,-107.8723 1210.7686,-109.2781"/>
<polygon fill="#191970" stroke="#191970" points="1210.6312,-112.7868 1220.9779,-110.5075 1211.4681,-105.837 1210.6312,-112.7868"/>
</g>
<!-- Node11&#45;&gt;Node2 -->
<g id="edge18" class="edge">
<title>Node11&#45;&gt;Node2</title>
<path fill="none" stroke="#191970" d="M945.9523,-8.9962C1007.0294,1.993 1117.0397,11.4122 1185,-44.0233 1199.8447,-56.1322 1273.9057,-331.003 1294.6132,-408.7212"/>
<polygon fill="#191970" stroke="#191970" points="1291.3151,-409.9381 1297.2678,-418.7025 1298.0799,-408.1388 1291.3151,-409.9381"/>
</g>
<!-- Node11&#45;&gt;Node9 -->
<g id="edge17" class="edge">
<title>Node11&#45;&gt;Node9</title>
<path fill="none" stroke="#191970" d="M928.2022,-29.0607C964.9865,-42.8881 1031.3732,-67.8431 1072.6553,-83.3611"/>
<polygon fill="#191970" stroke="#191970" points="1071.4796,-86.6583 1082.0716,-86.9008 1073.9427,-80.1059 1071.4796,-86.6583"/>
</g>
<!-- Node13 -->
<g id="node13" class="node">
<title>Node13</title>
<g id="a_node13"><a xlink:href="../../dd/d05/xDataTOM_8h.html#a889a5c6707642de48e9604c2a142dadb" target="_top" xlink:title="xDataTOM_W_XYs_free">
<polygon fill="none" stroke="#000000" points="596,-215.0233 596,-235.0233 728,-235.0233 728,-215.0233 596,-215.0233"/>
<text text-anchor="middle" x="662" y="-222.0233" font-family="FreeSans" font-size="10.00" fill="#000000">xDataTOM_W_XYs_free</text>
</a>
</g>
</g>
<!-- Node12&#45;&gt;Node13 -->
<g id="edge20" class="edge">
<title>Node12&#45;&gt;Node13</title>
<path fill="none" stroke="#191970" d="M497.9593,-269.9962C534.7562,-259.9081 581.5841,-247.0699 615.78,-237.6948"/>
<polygon fill="#191970" stroke="#191970" points="616.7969,-241.0453 625.5156,-235.0257 614.946,-234.2944 616.7969,-241.0453"/>
</g>
<!-- Node13&#45;&gt;Node2 -->
<g id="edge25" class="edge">
<title>Node13&#45;&gt;Node2</title>
<path fill="none" stroke="#191970" d="M728.1197,-220.3541C851.0518,-212.8722 1109.1959,-203.1508 1185,-247.0233 1247.9823,-283.475 1281.6813,-369.751 1294.2094,-408.9819"/>
<polygon fill="#191970" stroke="#191970" points="1290.9159,-410.1805 1297.1883,-418.719 1297.6097,-408.1326 1290.9159,-410.1805"/>
</g>
<!-- Node14 -->
<g id="node14" class="node">
<title>Node14</title>
<g id="a_node14"><a xlink:href="../../dd/d05/xDataTOM_8h.html#a68c1f1d71ff99aa53e5ba913d603cc2f" target="_top" xlink:title="xDataTOM_W_XYs_release">
<polygon fill="none" stroke="#000000" points="827,-144.0233 827,-164.0233 976,-164.0233 976,-144.0233 827,-144.0233"/>
<text text-anchor="middle" x="901.5" y="-151.0233" font-family="FreeSans" font-size="10.00" fill="#000000">xDataTOM_W_XYs_release</text>
</a>
</g>
</g>
<!-- Node13&#45;&gt;Node14 -->
<g id="edge21" class="edge">
<title>Node13&#45;&gt;Node14</title>
<path fill="none" stroke="#191970" d="M695.8065,-215.0013C738.2116,-202.4303 811.0059,-180.8503 857.6546,-167.0213"/>
<polygon fill="#191970" stroke="#191970" points="858.8858,-170.3069 867.4785,-164.109 856.8961,-163.5956 858.8858,-170.3069"/>
</g>
<!-- Node14&#45;&gt;Node2 -->
<g id="edge24" class="edge">
<title>Node14&#45;&gt;Node2</title>
<path fill="none" stroke="#191970" d="M976.274,-161.7497C1048.8445,-170.5202 1152.6299,-186.8269 1185,-211.0233 1253.1027,-261.9294 1284.7681,-365.1471 1295.5309,-408.8006"/>
<polygon fill="#191970" stroke="#191970" points="1292.1798,-409.8399 1297.8767,-418.7727 1298.9938,-408.2369 1292.1798,-409.8399"/>
</g>
<!-- Node14&#45;&gt;Node9 -->
<g id="edge23" class="edge">
<title>Node14&#45;&gt;Node9</title>
<path fill="none" stroke="#191970" d="M934.9162,-144.0035C961.4388,-136.1388 999.4989,-125.0482 1033,-116.0233 1040.9358,-113.8854 1049.3599,-111.6982 1057.5996,-109.6039"/>
<polygon fill="#191970" stroke="#191970" points="1058.6721,-112.9432 1067.5134,-107.1052 1056.9612,-106.1554 1058.6721,-112.9432"/>
</g>
<!-- Node14&#45;&gt;Node10 -->
<g id="edge22" class="edge">
<title>Node14&#45;&gt;Node10</title>
<path fill="none" stroke="#191970" d="M913.541,-143.9321C935.5497,-126.223 984.4869,-90.1818 1033,-77.0233 1098.1998,-59.3387 1118.5227,-65.0014 1185,-77.0233 1215.2828,-82.4997 1247.9852,-95.4755 1270.7464,-105.7501"/>
<polygon fill="#191970" stroke="#191970" points="1269.3106,-108.9422 1279.8566,-109.9584 1272.2461,-102.5874 1269.3106,-108.9422"/>
</g>
<!-- Node15&#45;&gt;Node2 -->
<g id="edge28" class="edge">
<title>Node15&#45;&gt;Node2</title>
<path fill="none" stroke="#191970" d="M692.8433,-143.9414C792.7188,-112.1278 1105.4136,-19.2984 1185,-77.0233 1213.2811,-97.5358 1276.4477,-336.9989 1294.8667,-408.7991"/>
<polygon fill="#191970" stroke="#191970" points="1291.5611,-410.0006 1297.4264,-418.8238 1298.3435,-408.2687 1291.5611,-410.0006"/>
</g>
<!-- Node15&#45;&gt;Node14 -->
<g id="edge27" class="edge">
<title>Node15&#45;&gt;Node14</title>
<path fill="none" stroke="#191970" d="M734.1827,-154.0233C760.1964,-154.0233 789.7861,-154.0233 816.7737,-154.0233"/>
<polygon fill="#191970" stroke="#191970" points="816.9766,-157.5234 826.9766,-154.0233 816.9766,-150.5234 816.9766,-157.5234"/>
</g>
<!-- Node16&#45;&gt;Node2 -->
<g id="edge34" class="edge">
<title>Node16&#45;&gt;Node2</title>
<path fill="none" stroke="#191970" d="M708.7908,-468.9832C736.8479,-463.3616 773.3135,-456.7521 806,-453.0233 961.4131,-435.2939 1145.7933,-430.644 1239.216,-429.4365"/>
<polygon fill="#191970" stroke="#191970" points="1239.3756,-432.935 1249.3327,-429.3148 1239.2912,-425.9355 1239.3756,-432.935"/>
</g>
<!-- Node17 -->
<g id="node17" class="node">
<title>Node17</title>
<g id="a_node17"><a xlink:href="../../dd/d05/xDataTOM_8h.html#a747c91c6f23c433cdfe6057cf0b41af0" target="_top" xlink:title="xDataTOM_W_XYs_LegendreSeries\l_release">
<polygon fill="none" stroke="#000000" points="806,-508.0233 806,-540.0233 997,-540.0233 997,-508.0233 806,-508.0233"/>
<text text-anchor="start" x="814" y="-527.0233" font-family="FreeSans" font-size="10.00" fill="#000000">xDataTOM_W_XYs_LegendreSeries</text>
<text text-anchor="middle" x="901.5" y="-515.0233" font-family="FreeSans" font-size="10.00" fill="#000000">_release</text>
</a>
</g>
</g>
<!-- Node16&#45;&gt;Node17 -->
<g id="edge30" class="edge">
<title>Node16&#45;&gt;Node17</title>
<path fill="none" stroke="#191970" d="M716.3978,-489.0447C733.5512,-492.2188 752.5702,-495.7526 770,-499.0233 782.0749,-501.2891 794.7708,-503.6853 807.316,-506.0613"/>
<polygon fill="#191970" stroke="#191970" points="806.8532,-509.5359 817.3301,-507.9597 808.157,-502.6583 806.8532,-509.5359"/>
</g>
<!-- Node17&#45;&gt;Node2 -->
<g id="edge33" class="edge">
<title>Node17&#45;&gt;Node2</title>
<path fill="none" stroke="#191970" d="M957.2888,-540.0636C1016.1436,-553.9995 1110.4995,-567.7201 1185,-538.0233 1230.9448,-519.7091 1269.0797,-473.352 1287.7111,-447.3779"/>
<polygon fill="#191970" stroke="#191970" points="1290.6204,-449.3248 1293.4687,-439.12 1284.8782,-445.3213 1290.6204,-449.3248"/>
</g>
<!-- Node18 -->
<g id="node18" class="node">
<title>Node18</title>
<g id="a_node18"><a xlink:href="../../dd/d05/xDataTOM_8h.html#a38aa36afb5317f4d68d0dbc166e5117b" target="_top" xlink:title="xDataTOM_LegendreSeries\l_release">
<polygon fill="none" stroke="#000000" points="1033,-496.0233 1033,-528.0233 1185,-528.0233 1185,-496.0233 1033,-496.0233"/>
<text text-anchor="start" x="1041" y="-515.0233" font-family="FreeSans" font-size="10.00" fill="#000000">xDataTOM_LegendreSeries</text>
<text text-anchor="middle" x="1109" y="-503.0233" font-family="FreeSans" font-size="10.00" fill="#000000">_release</text>
</a>
</g>
</g>
<!-- Node17&#45;&gt;Node18 -->
<g id="edge31" class="edge">
<title>Node17&#45;&gt;Node18</title>
<path fill="none" stroke="#191970" d="M997.0508,-518.4974C1005.5957,-518.0033 1014.2153,-517.5048 1022.6757,-517.0155"/>
<polygon fill="#191970" stroke="#191970" points="1023.1196,-520.4958 1032.9008,-516.4242 1022.7154,-513.5075 1023.1196,-520.4958"/>
</g>
<!-- Node18&#45;&gt;Node2 -->
<g id="edge32" class="edge">
<title>Node18&#45;&gt;Node2</title>
<path fill="none" stroke="#191970" d="M1149.3481,-495.8924C1160.8987,-491.1861 1173.4794,-485.9755 1185,-481.0233 1213.7111,-468.6816 1246.1257,-453.9513 1269.2056,-443.3247"/>
<polygon fill="#191970" stroke="#191970" points="1270.8746,-446.4093 1278.4874,-439.0406 1267.9411,-440.0536 1270.8746,-446.4093"/>
</g>
<!-- Node19&#45;&gt;Node2 -->
<g id="edge39" class="edge">
<title>Node19&#45;&gt;Node2</title>
<path fill="none" stroke="#191970" d="M499.4123,-540.0283C516.8843,-544.0411 536.094,-547.8264 554,-550.0233 693.1961,-567.1014 1057.2461,-617.8693 1185,-560.0233 1236.0237,-536.9201 1273.3785,-478.7521 1290.1598,-448.2958"/>
<polygon fill="#191970" stroke="#191970" points="1293.4357,-449.5909 1295.0522,-439.1201 1287.2588,-446.2975 1293.4357,-449.5909"/>
</g>
<!-- Node20 -->
<g id="node20" class="node">
<title>Node20</title>
<g id="a_node20"><a xlink:href="../../dd/d05/xDataTOM_8h.html#a58fe1c3107eb1db4c474c61ebb421574" target="_top" xlink:title="xDataTOM_regionsW_XYs\l_LegendreSeries_release">
<polygon fill="none" stroke="#000000" points="589.5,-508.0233 589.5,-540.0233 734.5,-540.0233 734.5,-508.0233 589.5,-508.0233"/>
<text text-anchor="start" x="597.5" y="-527.0233" font-family="FreeSans" font-size="10.00" fill="#000000">xDataTOM_regionsW_XYs</text>
<text text-anchor="middle" x="662" y="-515.0233" font-family="FreeSans" font-size="10.00" fill="#000000">_LegendreSeries_release</text>
</a>
</g>
</g>
<!-- Node19&#45;&gt;Node20 -->
<g id="edge36" class="edge">
<title>Node19&#45;&gt;Node20</title>
<path fill="none" stroke="#191970" d="M512.0469,-524.0233C533.4917,-524.0233 557.1284,-524.0233 579.1698,-524.0233"/>
<polygon fill="#191970" stroke="#191970" points="579.1711,-527.5234 589.171,-524.0233 579.171,-520.5234 579.1711,-527.5234"/>
</g>
<!-- Node20&#45;&gt;Node2 -->
<g id="edge38" class="edge">
<title>Node20&#45;&gt;Node2</title>
<path fill="none" stroke="#191970" d="M734.8098,-510.9023C757.5806,-506.928 782.812,-502.6564 806,-499.0233 974.0334,-472.6953 1016.649,-470.2375 1185,-446.0233 1202.6177,-443.4893 1221.7449,-440.6837 1239.2508,-438.0943"/>
<polygon fill="#191970" stroke="#191970" points="1239.968,-441.5263 1249.347,-436.5984 1238.9419,-434.6019 1239.968,-441.5263"/>
</g>
<!-- Node20&#45;&gt;Node17 -->
<g id="edge37" class="edge">
<title>Node20&#45;&gt;Node17</title>
<path fill="none" stroke="#191970" d="M734.5078,-524.0233C753.7935,-524.0233 775.026,-524.0233 795.6966,-524.0233"/>
<polygon fill="#191970" stroke="#191970" points="795.7879,-527.5234 805.7879,-524.0233 795.7878,-520.5234 795.7879,-527.5234"/>
</g>
<!-- Node21&#45;&gt;Node2 -->
<g id="edge42" class="edge">
<title>Node21&#45;&gt;Node2</title>
<path fill="none" stroke="#191970" d="M747.7044,-632.6941C876.5439,-641.1581 1112.755,-650.1373 1185,-609.0233 1247.7498,-573.3129 1281.57,-487.8074 1294.1695,-448.903"/>
<polygon fill="#191970" stroke="#191970" points="1297.5452,-449.8339 1297.1668,-439.2458 1290.8598,-447.7588 1297.5452,-449.8339"/>
</g>
<!-- Node21&#45;&gt;Node17 -->
<g id="edge41" class="edge">
<title>Node21&#45;&gt;Node17</title>
<path fill="none" stroke="#191970" d="M699.6853,-609.9736C741.4998,-592.1653 809.036,-563.4025 854.3291,-544.1127"/>
<polygon fill="#191970" stroke="#191970" points="855.8104,-547.2862 863.6393,-540.1476 853.0675,-540.8459 855.8104,-547.2862"/>
</g>
<!-- Node22&#45;&gt;Node2 -->
<g id="edge47" class="edge">
<title>Node22&#45;&gt;Node2</title>
<path fill="none" stroke="#191970" d="M985.3037,-396.679C1041.7776,-401.3446 1117.924,-407.9848 1185,-415.0233 1202.6408,-416.8744 1221.7752,-419.1116 1239.2806,-421.2491"/>
<polygon fill="#191970" stroke="#191970" points="1239.0227,-424.7438 1249.3756,-422.4925 1239.8785,-417.7963 1239.0227,-424.7438"/>
</g>
<!-- Node23 -->
<g id="node23" class="node">
<title>Node23</title>
<g id="a_node23"><a xlink:href="../../dd/d05/xDataTOM_8h.html#aa4586493d3238b1deb0e41cfe900632f" target="_top" xlink:title="xDataTOM_KalbachMann\l_release">
<polygon fill="none" stroke="#000000" points="1038,-292.0233 1038,-324.0233 1180,-324.0233 1180,-292.0233 1038,-292.0233"/>
<text text-anchor="start" x="1046" y="-311.0233" font-family="FreeSans" font-size="10.00" fill="#000000">xDataTOM_KalbachMann</text>
<text text-anchor="middle" x="1109" y="-299.0233" font-family="FreeSans" font-size="10.00" fill="#000000">_release</text>
</a>
</g>
</g>
<!-- Node22&#45;&gt;Node23 -->
<g id="edge44" class="edge">
<title>Node22&#45;&gt;Node23</title>
<path fill="none" stroke="#191970" d="M966.4831,-379.9743C976.8443,-377.5535 987.3289,-374.6017 997,-371.0233 1025.5038,-360.4766 1055.3876,-343.3142 1077.1108,-329.5638"/>
<polygon fill="#191970" stroke="#191970" points="1079.0848,-332.4556 1085.6001,-324.1008 1075.2967,-326.5691 1079.0848,-332.4556"/>
</g>
<!-- Node23&#45;&gt;Node2 -->
<g id="edge46" class="edge">
<title>Node23&#45;&gt;Node2</title>
<path fill="none" stroke="#191970" d="M1154.1888,-324.0541C1164.5748,-328.3894 1175.3857,-333.4459 1185,-339.0233 1221.9464,-360.4564 1260.0708,-392.6587 1281.8209,-412.1727"/>
<polygon fill="#191970" stroke="#191970" points="1279.5625,-414.8496 1289.3184,-418.9814 1284.2684,-409.6675 1279.5625,-414.8496"/>
</g>
<!-- Node23&#45;&gt;Node10 -->
<g id="edge45" class="edge">
<title>Node23&#45;&gt;Node10</title>
<path fill="none" stroke="#191970" d="M1125.2846,-291.9945C1160.8455,-256.9921 1245.2111,-173.9516 1282.1537,-137.5893"/>
<polygon fill="#191970" stroke="#191970" points="1285.0086,-139.6902 1289.6802,-130.1809 1280.0982,-134.7014 1285.0086,-139.6902"/>
</g>
<!-- Node24&#45;&gt;Node2 -->
<g id="edge52" class="edge">
<title>Node24&#45;&gt;Node2</title>
<path fill="none" stroke="#191970" d="M977.7386,-361.0611C1035.0573,-369.1711 1115.3555,-381.7325 1185,-397.0233 1209.2892,-402.3561 1236.075,-409.7203 1257.6802,-416.0399"/>
<polygon fill="#191970" stroke="#191970" points="1256.9427,-419.4716 1267.5248,-418.9516 1258.9281,-412.7591 1256.9427,-419.4716"/>
</g>
<!-- Node25 -->
<g id="node25" class="node">
<title>Node25</title>
<g id="a_node25"><a xlink:href="../../dd/d05/xDataTOM_8h.html#a51d87d889d515d18d12457cbe4d650c0" target="_top" xlink:title="xDataTOM_polynomial\l_release">
<polygon fill="none" stroke="#000000" points="1044,-126.0233 1044,-158.0233 1174,-158.0233 1174,-126.0233 1044,-126.0233"/>
<text text-anchor="start" x="1052" y="-145.0233" font-family="FreeSans" font-size="10.00" fill="#000000">xDataTOM_polynomial</text>
<text text-anchor="middle" x="1109" y="-133.0233" font-family="FreeSans" font-size="10.00" fill="#000000">_release</text>
</a>
</g>
</g>
<!-- Node24&#45;&gt;Node25 -->
<g id="edge49" class="edge">
<title>Node24&#45;&gt;Node25</title>
<path fill="none" stroke="#191970" d="M918.4466,-341.0037C938.4205,-328.7502 972.0473,-306.699 997,-283.0233 1035.4326,-246.5575 1072.0629,-196.5815 1092.4348,-166.9627"/>
<polygon fill="#191970" stroke="#191970" points="1095.4873,-168.6983 1098.2192,-158.4617 1089.6999,-164.7604 1095.4873,-168.6983"/>
</g>
<!-- Node25&#45;&gt;Node2 -->
<g id="edge51" class="edge">
<title>Node25&#45;&gt;Node2</title>
<path fill="none" stroke="#191970" d="M1163.2271,-158.0713C1171.1591,-162.0643 1178.7472,-166.985 1185,-173.0233 1255.897,-241.4874 1286.555,-361.593 1296.2994,-408.9823"/>
<polygon fill="#191970" stroke="#191970" points="1292.8883,-409.7756 1298.2498,-418.9137 1299.7571,-408.4266 1292.8883,-409.7756"/>
</g>
<!-- Node25&#45;&gt;Node10 -->
<g id="edge50" class="edge">
<title>Node25&#45;&gt;Node10</title>
<path fill="none" stroke="#191970" d="M1174.1972,-134.5136C1185.9328,-133.1619 1198.3494,-131.7317 1210.6304,-130.3171"/>
<polygon fill="#191970" stroke="#191970" points="1211.3627,-133.756 1220.8965,-129.1347 1210.5617,-126.802 1211.3627,-133.756"/>
</g>
</g>
</svg>
