<?xml version="1.0" encoding="UTF-8" standalone="no"?>
<!DOCTYPE svg PUBLIC "-//W3C//DTD SVG 1.1//EN"
 "http://www.w3.org/Graphics/SVG/1.1/DTD/svg11.dtd">
<!-- Generated by graphviz version 2.40.1 (20161225.0304)
 -->
<!-- Title: G4LowEnergyPhotoElectric::GetMeanFreePath Pages: 1 -->
<svg width="790pt" height="340pt"
 viewBox="0.00 0.00 790.00 340.00" xmlns="http://www.w3.org/2000/svg" xmlns:xlink="http://www.w3.org/1999/xlink">
<g id="graph0" class="graph" transform="scale(1 1) rotate(0) translate(4 336)">
<title>G4LowEnergyPhotoElectric::GetMeanFreePath</title>
<!-- Node1 -->
<g id="node1" class="node">
<title>Node1</title>
<polygon fill="#bfbfbf" stroke="#000000" points="0,-186.5 0,-218.5 152,-218.5 152,-186.5 0,-186.5"/>
<text text-anchor="start" x="8" y="-205.5" font-family="FreeSans" font-size="10.00" fill="#000000">G4LowEnergyPhotoElectric</text>
<text text-anchor="middle" x="76" y="-193.5" font-family="FreeSans" font-size="10.00" fill="#000000">::GetMeanFreePath</text>
</g>
<!-- Node2 -->
<g id="node2" class="node">
<title>Node2</title>
<g id="a_node2"><a xlink:href="../../df/da1/namespaceActs_1_1VectorHelpers.html#a6e1abd01ea4cac3276aba94096c85dae" target="_top" xlink:title="Calculates column&#45;wise cross products of a matrix and a vector and stores the result column&#45;wise in a...">
<polygon fill="none" stroke="#000000" points="211.5,-299.5 211.5,-331.5 327.5,-331.5 327.5,-299.5 211.5,-299.5"/>
<text text-anchor="start" x="219.5" y="-318.5" font-family="FreeSans" font-size="10.00" fill="#000000">Acts::VectorHelpers</text>
<text text-anchor="middle" x="269.5" y="-306.5" font-family="FreeSans" font-size="10.00" fill="#000000">::cross</text>
</a>
</g>
</g>
<!-- Node1&#45;&gt;Node2 -->
<g id="edge1" class="edge">
<title>Node1&#45;&gt;Node2</title>
<path fill="none" stroke="#191970" d="M92.4495,-218.6817C113.1439,-238.2242 150.5281,-270.9058 188,-290.5 192.4756,-292.8403 197.2061,-295.0009 202.0442,-296.9881"/>
<polygon fill="#191970" stroke="#191970" points="200.8517,-300.2793 211.4417,-300.5976 203.3616,-293.7447 200.8517,-300.2793"/>
</g>
<!-- Node3 -->
<g id="node3" class="node">
<title>Node3</title>
<g id="a_node3"><a xlink:href="../../d1/d33/classG4Track.html#a1dd96352858e4c1c6024af3b0b06da53" target="_top" xlink:title="G4Track::GetDynamicParticle">
<polygon fill="none" stroke="#000000" points="188,-260.5 188,-280.5 351,-280.5 351,-260.5 188,-260.5"/>
<text text-anchor="middle" x="269.5" y="-267.5" font-family="FreeSans" font-size="10.00" fill="#000000">G4Track::GetDynamicParticle</text>
</a>
</g>
</g>
<!-- Node1&#45;&gt;Node3 -->
<g id="edge2" class="edge">
<title>Node1&#45;&gt;Node3</title>
<path fill="none" stroke="#191970" d="M108.7002,-218.7078C130.71,-229.14 160.6074,-242.4003 188,-251.5 195.0943,-253.8567 202.6291,-256.0336 210.1409,-258.0077"/>
<polygon fill="#191970" stroke="#191970" points="209.4113,-261.4332 219.9635,-260.4842 211.1227,-254.6456 209.4113,-261.4332"/>
</g>
<!-- Node4 -->
<g id="node4" class="node">
<title>Node4</title>
<g id="a_node4"><a xlink:href="../../d7/d5c/classG4DynamicParticle.html#aba63ef4aeef93871bec7279ada8391da" target="_top" xlink:title="G4DynamicParticle::\lGetKineticEnergy">
<polygon fill="none" stroke="#000000" points="210.5,-209.5 210.5,-241.5 328.5,-241.5 328.5,-209.5 210.5,-209.5"/>
<text text-anchor="start" x="218.5" y="-228.5" font-family="FreeSans" font-size="10.00" fill="#000000">G4DynamicParticle::</text>
<text text-anchor="middle" x="269.5" y="-216.5" font-family="FreeSans" font-size="10.00" fill="#000000">GetKineticEnergy</text>
</a>
</g>
</g>
<!-- Node1&#45;&gt;Node4 -->
<g id="edge3" class="edge">
<title>Node1&#45;&gt;Node4</title>
<path fill="none" stroke="#191970" d="M152.1986,-211.5572C168.0748,-213.4443 184.7251,-215.4234 200.3307,-217.2783"/>
<polygon fill="#191970" stroke="#191970" points="200.0731,-220.7723 210.4164,-218.4771 200.8994,-213.8212 200.0731,-220.7723"/>
</g>
<!-- Node5 -->
<g id="node5" class="node">
<title>Node5</title>
<g id="a_node5"><a xlink:href="../../d1/d33/classG4Track.html#ab0ce8d7a62c3faf66df09004838c1560" target="_top" xlink:title="G4Track::GetMaterial">
<polygon fill="none" stroke="#000000" points="208.5,-170.5 208.5,-190.5 330.5,-190.5 330.5,-170.5 208.5,-170.5"/>
<text text-anchor="middle" x="269.5" y="-177.5" font-family="FreeSans" font-size="10.00" fill="#000000">G4Track::GetMaterial</text>
</a>
</g>
</g>
<!-- Node1&#45;&gt;Node5 -->
<g id="edge4" class="edge">
<title>Node1&#45;&gt;Node5</title>
<path fill="none" stroke="#191970" d="M152.1986,-193.8366C167.3221,-192.1171 183.148,-190.3178 198.1043,-188.6173"/>
<polygon fill="#191970" stroke="#191970" points="198.7597,-192.0655 208.3003,-187.4581 197.9689,-185.1103 198.7597,-192.0655"/>
</g>
<!-- Node6 -->
<g id="node6" class="node">
<title>Node6</title>
<g id="a_node6"><a xlink:href="../../dc/de5/PHG4mRICHDetector_8cc.html#ae62b03935debe2916d1bd671371ec87d" target="_top" xlink:title="material">
<polygon fill="none" stroke="#000000" points="240.5,-131.5 240.5,-151.5 298.5,-151.5 298.5,-131.5 240.5,-131.5"/>
<text text-anchor="middle" x="269.5" y="-138.5" font-family="FreeSans" font-size="10.00" fill="#000000">material</text>
</a>
</g>
</g>
<!-- Node1&#45;&gt;Node6 -->
<g id="edge5" class="edge">
<title>Node1&#45;&gt;Node6</title>
<path fill="none" stroke="#191970" d="M116.5944,-186.4129C137.7014,-178.3621 164.0333,-168.8031 188,-161.5 201.6599,-157.3376 216.807,-153.4306 230.3001,-150.1938"/>
<polygon fill="#191970" stroke="#191970" points="231.3103,-153.5518 240.2439,-147.856 229.7083,-146.7376 231.3103,-153.5518"/>
</g>
<!-- Node7 -->
<g id="node7" class="node">
<title>Node7</title>
<g id="a_node7"><a xlink:href="../../dc/d2b/classG4RDVCrossSectionHandler.html#ab1a0ebafba9af597796f1390976762bd" target="_top" xlink:title="G4RDVCrossSectionHandler\l::ValueForMaterial">
<polygon fill="none" stroke="#000000" points="190.5,-80.5 190.5,-112.5 348.5,-112.5 348.5,-80.5 190.5,-80.5"/>
<text text-anchor="start" x="198.5" y="-99.5" font-family="FreeSans" font-size="10.00" fill="#000000">G4RDVCrossSectionHandler</text>
<text text-anchor="middle" x="269.5" y="-87.5" font-family="FreeSans" font-size="10.00" fill="#000000">::ValueForMaterial</text>
</a>
</g>
</g>
<!-- Node1&#45;&gt;Node7 -->
<g id="edge6" class="edge">
<title>Node1&#45;&gt;Node7</title>
<path fill="none" stroke="#191970" d="M94.6459,-186.3783C115.9724,-168.6327 152.5371,-140.2706 188,-122.5 192.3361,-120.3272 196.8922,-118.2856 201.5415,-116.3771"/>
<polygon fill="#191970" stroke="#191970" points="203.1134,-119.5218 211.1753,-112.6474 200.5861,-112.9939 203.1134,-119.5218"/>
</g>
<!-- Node8 -->
<g id="node8" class="node">
<title>Node8</title>
<g id="a_node8"><a xlink:href="../../d5/de4/classG4Material.html#ad04e40f52334a1335ec07c3dba5affff" target="_top" xlink:title="G4Material::GetElementVector">
<polygon fill="none" stroke="#000000" points="399.5,-154.5 399.5,-174.5 570.5,-174.5 570.5,-154.5 399.5,-154.5"/>
<text text-anchor="middle" x="485" y="-161.5" font-family="FreeSans" font-size="10.00" fill="#000000">G4Material::GetElementVector</text>
</a>
</g>
</g>
<!-- Node7&#45;&gt;Node8 -->
<g id="edge7" class="edge">
<title>Node7&#45;&gt;Node8</title>
<path fill="none" stroke="#191970" d="M326.35,-112.535C334.7533,-115.5059 343.2015,-118.8413 351,-122.5 368.189,-130.5643 369.3678,-138.4572 387,-145.5 392.9675,-147.8836 399.2621,-149.9753 405.664,-151.8096"/>
<polygon fill="#191970" stroke="#191970" points="405.2183,-155.312 415.7808,-154.4853 407.0081,-148.5447 405.2183,-155.312"/>
</g>
<!-- Node9 -->
<g id="node9" class="node">
<title>Node9</title>
<g id="a_node9"><a xlink:href="../../d5/de4/classG4Material.html#a68362f19c346886e3bf1194a9339e1f3" target="_top" xlink:title="G4Material::GetVecNbOfAtoms\lPerVolume">
<polygon fill="none" stroke="#000000" points="399,-103.5 399,-135.5 571,-135.5 571,-103.5 399,-103.5"/>
<text text-anchor="start" x="407" y="-122.5" font-family="FreeSans" font-size="10.00" fill="#000000">G4Material::GetVecNbOfAtoms</text>
<text text-anchor="middle" x="485" y="-110.5" font-family="FreeSans" font-size="10.00" fill="#000000">PerVolume</text>
</a>
</g>
</g>
<!-- Node7&#45;&gt;Node9 -->
<g id="edge8" class="edge">
<title>Node7&#45;&gt;Node9</title>
<path fill="none" stroke="#191970" d="M348.5206,-104.9338C361.539,-106.3232 375.1611,-107.7771 388.548,-109.2058"/>
<polygon fill="#191970" stroke="#191970" points="388.4103,-112.7109 398.7253,-110.292 389.1532,-105.7504 388.4103,-112.7109"/>
</g>
<!-- Node10 -->
<g id="node10" class="node">
<title>Node10</title>
<g id="a_node10"><a xlink:href="../../d5/de4/classG4Material.html#a4f4c62a46fecf76d2cea99a0e3cd63f3" target="_top" xlink:title="G4Material::GetNumberOfElements">
<polygon fill="none" stroke="#000000" points="387,-64.5 387,-84.5 583,-84.5 583,-64.5 387,-64.5"/>
<text text-anchor="middle" x="485" y="-71.5" font-family="FreeSans" font-size="10.00" fill="#000000">G4Material::GetNumberOfElements</text>
</a>
</g>
</g>
<!-- Node7&#45;&gt;Node10 -->
<g id="edge9" class="edge">
<title>Node7&#45;&gt;Node10</title>
<path fill="none" stroke="#191970" d="M348.5206,-88.4329C357.7927,-87.4864 367.3709,-86.5085 376.9524,-85.5304"/>
<polygon fill="#191970" stroke="#191970" points="377.3328,-89.0098 386.9256,-84.5122 376.6219,-82.046 377.3328,-89.0098"/>
</g>
<!-- Node11 -->
<g id="node11" class="node">
<title>Node11</title>
<g id="a_node11"><a xlink:href="../../dc/d2b/classG4RDVCrossSectionHandler.html#a6729083098332c4cc6bf6d8bae418e43" target="_top" xlink:title="G4RDVCrossSectionHandler\l::FindValue">
<polygon fill="none" stroke="#000000" points="406,-13.5 406,-45.5 564,-45.5 564,-13.5 406,-13.5"/>
<text text-anchor="start" x="414" y="-32.5" font-family="FreeSans" font-size="10.00" fill="#000000">G4RDVCrossSectionHandler</text>
<text text-anchor="middle" x="485" y="-20.5" font-family="FreeSans" font-size="10.00" fill="#000000">::FindValue</text>
</a>
</g>
</g>
<!-- Node7&#45;&gt;Node11 -->
<g id="edge10" class="edge">
<title>Node7&#45;&gt;Node11</title>
<path fill="none" stroke="#191970" d="M313.0399,-80.4167C335.0734,-72.5054 362.3158,-63.069 387,-55.5 395.0438,-53.0335 403.5001,-50.5817 411.9346,-48.2251"/>
<polygon fill="#191970" stroke="#191970" points="413.0887,-51.5376 421.7998,-45.5072 411.2293,-44.7891 413.0887,-51.5376"/>
</g>
<!-- Node12 -->
<g id="node12" class="node">
<title>Node12</title>
<g id="a_node12"><a xlink:href="../../dc/de5/PHG4mRICHDetector_8cc.html#a11ded6fc3d3fab0e72612c3886df87a0" target="_top" xlink:title="pos">
<polygon fill="none" stroke="#000000" points="683.5,-39.5 683.5,-59.5 717.5,-59.5 717.5,-39.5 683.5,-39.5"/>
<text text-anchor="middle" x="700.5" y="-46.5" font-family="FreeSans" font-size="10.00" fill="#000000">pos</text>
</a>
</g>
</g>
<!-- Node11&#45;&gt;Node12 -->
<g id="edge11" class="edge">
<title>Node11&#45;&gt;Node12</title>
<path fill="none" stroke="#191970" d="M564.0206,-36.8337C602.4096,-40.3965 646.0474,-44.4464 673.4255,-46.9873"/>
<polygon fill="#191970" stroke="#191970" points="673.1377,-50.4755 683.4184,-47.9147 673.7847,-43.5055 673.1377,-50.4755"/>
</g>
<!-- Node13 -->
<g id="node13" class="node">
<title>Node13</title>
<g id="a_node13"><a xlink:href="../../d7/d74/classG4RDVEMDataSet.html#a7739b9a1c7d80dec7b20a8c676de8275" target="_top" xlink:title="G4RDVEMDataSet::FindValue">
<polygon fill="none" stroke="#000000" points="619,-.5 619,-20.5 782,-20.5 782,-.5 619,-.5"/>
<text text-anchor="middle" x="700.5" y="-7.5" font-family="FreeSans" font-size="10.00" fill="#000000">G4RDVEMDataSet::FindValue</text>
</a>
</g>
</g>
<!-- Node11&#45;&gt;Node13 -->
<g id="edge12" class="edge">
<title>Node11&#45;&gt;Node13</title>
<path fill="none" stroke="#191970" d="M564.0206,-22.533C578.5631,-21.2508 593.8589,-19.9022 608.7386,-18.5903"/>
<polygon fill="#191970" stroke="#191970" points="609.3052,-22.054 618.9591,-17.6892 608.6903,-15.0811 609.3052,-22.054"/>
</g>
</g>
</svg>
