<?xml version="1.0" encoding="UTF-8" standalone="no"?>
<!DOCTYPE svg PUBLIC "-//W3C//DTD SVG 1.1//EN"
 "http://www.w3.org/Graphics/SVG/1.1/DTD/svg11.dtd">
<!-- Generated by graphviz version 2.40.1 (20161225.0304)
 -->
<!-- Title: geant4/tree/geant4&#45;10.6&#45;release/examples/extended/parameterisations/gflash/gflasha/cmpR.C Pages: 1 -->
<svg width="473pt" height="122pt"
 viewBox="0.00 0.00 473.00 122.00" xmlns="http://www.w3.org/2000/svg" xmlns:xlink="http://www.w3.org/1999/xlink">
<g id="graph0" class="graph" transform="scale(1 1) rotate(0) translate(4 118)">
<title>geant4/tree/geant4&#45;10.6&#45;release/examples/extended/parameterisations/gflash/gflasha/cmpR.C</title>
<!-- Node1 -->
<g id="node1" class="node">
<title>Node1</title>
<polygon fill="#bfbfbf" stroke="#000000" points="135,-57.5 135,-113.5 299,-113.5 299,-57.5 135,-57.5"/>
<text text-anchor="start" x="143" y="-100.5" font-family="FreeSans" font-size="10.00" fill="#000000">geant4/tree/geant4</text>
<text text-anchor="start" x="143" y="-88.5" font-family="FreeSans" font-size="10.00" fill="#000000">&#45;10.6&#45;release/examples</text>
<text text-anchor="start" x="143" y="-76.5" font-family="FreeSans" font-size="10.00" fill="#000000">/extended/parameterisations</text>
<text text-anchor="middle" x="217" y="-64.5" font-family="FreeSans" font-size="10.00" fill="#000000">/gflash/gflasha/cmpR.C</text>
</g>
<!-- Node2 -->
<g id="node2" class="node">
<title>Node2</title>
<polygon fill="none" stroke="#bfbfbf" points="0,-.5 0,-20.5 54,-20.5 54,-.5 0,-.5"/>
<text text-anchor="middle" x="27" y="-7.5" font-family="FreeSans" font-size="10.00" fill="#000000">TH1D.h</text>
</g>
<!-- Node1&#45;&gt;Node2 -->
<g id="edge1" class="edge">
<title>Node1&#45;&gt;Node2</title>
<path fill="none" stroke="#191970" d="M145.9808,-57.4661C117.39,-46.1803 85.6986,-33.6705 62.2165,-24.4012"/>
<polygon fill="#191970" stroke="#191970" points="63.275,-21.0563 52.6883,-20.6401 60.7047,-27.5674 63.275,-21.0563"/>
</g>
<!-- Node3 -->
<g id="node3" class="node">
<title>Node3</title>
<polygon fill="none" stroke="#bfbfbf" points="72,-.5 72,-20.5 122,-20.5 122,-.5 72,-.5"/>
<text text-anchor="middle" x="97" y="-7.5" font-family="FreeSans" font-size="10.00" fill="#000000">TFile.h</text>
</g>
<!-- Node1&#45;&gt;Node3 -->
<g id="edge2" class="edge">
<title>Node1&#45;&gt;Node3</title>
<path fill="none" stroke="#191970" d="M171.975,-57.3594C155.063,-46.7894 136.4553,-35.1596 122.0083,-26.1302"/>
<polygon fill="#191970" stroke="#191970" points="123.51,-22.9414 113.175,-20.6094 119.8,-28.8774 123.51,-22.9414"/>
</g>
<!-- Node4 -->
<g id="node4" class="node">
<title>Node4</title>
<polygon fill="none" stroke="#bfbfbf" points="140,-.5 140,-20.5 208,-20.5 208,-.5 140,-.5"/>
<text text-anchor="middle" x="174" y="-7.5" font-family="FreeSans" font-size="10.00" fill="#000000">THStack.h</text>
</g>
<!-- Node1&#45;&gt;Node4 -->
<g id="edge3" class="edge">
<title>Node1&#45;&gt;Node4</title>
<path fill="none" stroke="#191970" d="M200.7435,-57.1457C195.4786,-47.9627 189.7669,-38.0004 184.979,-29.6494"/>
<polygon fill="#191970" stroke="#191970" points="187.8752,-27.664 179.8649,-20.7296 181.8025,-31.1457 187.8752,-27.664"/>
</g>
<!-- Node5 -->
<g id="node5" class="node">
<title>Node5</title>
<polygon fill="none" stroke="#bfbfbf" points="226.5,-.5 226.5,-20.5 295.5,-20.5 295.5,-.5 226.5,-.5"/>
<text text-anchor="middle" x="261" y="-7.5" font-family="FreeSans" font-size="10.00" fill="#000000">TCanvas.h</text>
</g>
<!-- Node1&#45;&gt;Node5 -->
<g id="edge4" class="edge">
<title>Node1&#45;&gt;Node5</title>
<path fill="none" stroke="#191970" d="M233.6345,-57.1457C239.0805,-47.8629 244.9935,-37.7837 249.9251,-29.3777"/>
<polygon fill="#191970" stroke="#191970" points="252.9573,-31.1259 254.9987,-20.7296 246.9196,-27.5837 252.9573,-31.1259"/>
</g>
<!-- Node6 -->
<g id="node6" class="node">
<title>Node6</title>
<polygon fill="none" stroke="#bfbfbf" points="313.5,-.5 313.5,-20.5 376.5,-20.5 376.5,-.5 313.5,-.5"/>
<text text-anchor="middle" x="345" y="-7.5" font-family="FreeSans" font-size="10.00" fill="#000000">TString.h</text>
</g>
<!-- Node1&#45;&gt;Node6 -->
<g id="edge5" class="edge">
<title>Node1&#45;&gt;Node6</title>
<path fill="none" stroke="#191970" d="M265.0266,-57.3594C283.2379,-46.6887 303.2925,-34.938 318.7636,-25.8729"/>
<polygon fill="#191970" stroke="#191970" points="320.8881,-28.6847 327.7467,-20.6094 317.3493,-22.6451 320.8881,-28.6847"/>
</g>
<!-- Node7 -->
<g id="node7" class="node">
<title>Node7</title>
<polygon fill="none" stroke="#bfbfbf" points="395,-.5 395,-20.5 465,-20.5 465,-.5 395,-.5"/>
<text text-anchor="middle" x="430" y="-7.5" font-family="FreeSans" font-size="10.00" fill="#000000">TLegend.h</text>
</g>
<!-- Node1&#45;&gt;Node7 -->
<g id="edge6" class="edge">
<title>Node1&#45;&gt;Node7</title>
<path fill="none" stroke="#191970" d="M296.6162,-57.4661C329.2021,-45.9922 365.3807,-33.2533 391.8286,-23.9406"/>
<polygon fill="#191970" stroke="#191970" points="393.1909,-27.1716 401.4608,-20.549 390.866,-20.569 393.1909,-27.1716"/>
</g>
</g>
</svg>
