<?xml version="1.0" encoding="UTF-8" standalone="no"?>
<!DOCTYPE svg PUBLIC "-//W3C//DTD SVG 1.1//EN"
 "http://www.w3.org/Graphics/SVG/1.1/DTD/svg11.dtd">
<!-- Generated by graphviz version 2.40.1 (20161225.0304)
 -->
<!-- Title: G4ErrorFreeTrajState::SetParameters Pages: 1 -->
<svg width="503pt" height="287pt"
 viewBox="0.00 0.00 503.00 287.00" xmlns="http://www.w3.org/2000/svg" xmlns:xlink="http://www.w3.org/1999/xlink">
<g id="graph0" class="graph" transform="scale(1 1) rotate(0) translate(4 283)">
<title>G4ErrorFreeTrajState::SetParameters</title>
<!-- Node1 -->
<g id="node1" class="node">
<title>Node1</title>
<polygon fill="#bfbfbf" stroke="#000000" points="0,-145.5 0,-177.5 121,-177.5 121,-145.5 0,-145.5"/>
<text text-anchor="start" x="8" y="-164.5" font-family="FreeSans" font-size="10.00" fill="#000000">G4ErrorFreeTrajState</text>
<text text-anchor="middle" x="60.5" y="-152.5" font-family="FreeSans" font-size="10.00" fill="#000000">::SetParameters</text>
</g>
<!-- Node2 -->
<g id="node2" class="node">
<title>Node2</title>
<g id="a_node2"><a xlink:href="../../dc/de5/PHG4mRICHDetector_8cc.html#a11ded6fc3d3fab0e72612c3886df87a0" target="_top" xlink:title="pos">
<polygon fill="none" stroke="#000000" points="203,-174.5 203,-194.5 237,-194.5 237,-174.5 203,-174.5"/>
<text text-anchor="middle" x="220" y="-181.5" font-family="FreeSans" font-size="10.00" fill="#000000">pos</text>
</a>
</g>
</g>
<!-- Node1&#45;&gt;Node2 -->
<g id="edge1" class="edge">
<title>Node1&#45;&gt;Node2</title>
<path fill="none" stroke="#191970" d="M121.2551,-170.2609C145.9163,-173.8171 173.1505,-177.7443 192.7602,-180.572"/>
<polygon fill="#191970" stroke="#191970" points="192.4081,-184.0573 202.8052,-182.0205 193.4072,-177.129 192.4081,-184.0573"/>
</g>
<!-- Node3 -->
<g id="node3" class="node">
<title>Node3</title>
<g id="a_node3"><a xlink:href="../../d5/d3e/classG4ErrorFreeTrajParam.html#acd1a562d8673d38ef51f0466184e37a0" target="_top" xlink:title="G4ErrorFreeTrajParam\l::SetParameters">
<polygon fill="none" stroke="#000000" points="157,-123.5 157,-155.5 283,-155.5 283,-123.5 157,-123.5"/>
<text text-anchor="start" x="165" y="-142.5" font-family="FreeSans" font-size="10.00" fill="#000000">G4ErrorFreeTrajParam</text>
<text text-anchor="middle" x="220" y="-130.5" font-family="FreeSans" font-size="10.00" fill="#000000">::SetParameters</text>
</a>
</g>
</g>
<!-- Node1&#45;&gt;Node3 -->
<g id="edge2" class="edge">
<title>Node1&#45;&gt;Node3</title>
<path fill="none" stroke="#191970" d="M121.2551,-153.12C129.6076,-151.9679 138.2552,-150.7751 146.8017,-149.5963"/>
<polygon fill="#191970" stroke="#191970" points="147.3366,-153.0558 156.7645,-148.2221 146.38,-146.1214 147.3366,-153.0558"/>
</g>
<!-- Node4 -->
<g id="node4" class="node">
<title>Node4</title>
<g id="a_node4"><a xlink:href="../../d3/d15/classHepGeom_1_1BasicVector3D.html#aaf2d750066deae48481f6091b8872575" target="_top" xlink:title="HepGeom::BasicVector3D\l::cross">
<polygon fill="none" stroke="#000000" points="333.5,-246.5 333.5,-278.5 480.5,-278.5 480.5,-246.5 333.5,-246.5"/>
<text text-anchor="start" x="341.5" y="-265.5" font-family="FreeSans" font-size="10.00" fill="#000000">HepGeom::BasicVector3D</text>
<text text-anchor="middle" x="407" y="-253.5" font-family="FreeSans" font-size="10.00" fill="#000000">::cross</text>
</a>
</g>
</g>
<!-- Node3&#45;&gt;Node4 -->
<g id="edge3" class="edge">
<title>Node3&#45;&gt;Node4</title>
<path fill="none" stroke="#191970" d="M269.2674,-155.6188C274.228,-158.4389 278.9282,-161.7122 283,-165.5 309.1953,-189.8681 291.4521,-214.6721 319,-237.5 320.7885,-238.9821 322.6599,-240.3764 324.5988,-241.6882"/>
<polygon fill="#191970" stroke="#191970" points="323.0934,-244.8636 333.4854,-246.9269 326.6483,-238.8334 323.0934,-244.8636"/>
</g>
<!-- Node5 -->
<g id="node5" class="node">
<title>Node5</title>
<g id="a_node5"><a xlink:href="../../da/dcf/classCLHEP_1_1Hep3Vector.html#a3b24b40b735f0f3fd9ff2bf60c3046d4" target="_top" xlink:title="CLHEP::Hep3Vector::dot">
<polygon fill="none" stroke="#000000" points="338,-207.5 338,-227.5 476,-227.5 476,-207.5 338,-207.5"/>
<text text-anchor="middle" x="407" y="-214.5" font-family="FreeSans" font-size="10.00" fill="#000000">CLHEP::Hep3Vector::dot</text>
</a>
</g>
</g>
<!-- Node3&#45;&gt;Node5 -->
<g id="edge4" class="edge">
<title>Node3&#45;&gt;Node5</title>
<path fill="none" stroke="#191970" d="M264.7059,-155.6437C271.0302,-158.5821 277.3098,-161.8794 283,-165.5 301.3124,-177.152 299.7207,-188.5291 319,-198.5 323.0131,-200.5755 327.2418,-202.4245 331.5865,-204.0717"/>
<polygon fill="#191970" stroke="#191970" points="330.6494,-207.45 341.2439,-207.3651 332.9088,-200.8247 330.6494,-207.45"/>
</g>
<!-- Node6 -->
<g id="node6" class="node">
<title>Node6</title>
<g id="a_node6"><a xlink:href="../../d3/d15/classHepGeom_1_1BasicVector3D.html#a517e3824e8931f6d149d21caa574a610" target="_top" xlink:title="HepGeom::BasicVector3D::mag">
<polygon fill="none" stroke="#000000" points="319,-168.5 319,-188.5 495,-188.5 495,-168.5 319,-168.5"/>
<text text-anchor="middle" x="407" y="-175.5" font-family="FreeSans" font-size="10.00" fill="#000000">HepGeom::BasicVector3D::mag</text>
</a>
</g>
</g>
<!-- Node3&#45;&gt;Node6 -->
<g id="edge5" class="edge">
<title>Node3&#45;&gt;Node6</title>
<path fill="none" stroke="#191970" d="M283.049,-152.6493C304.3712,-157.0961 328.0652,-162.0377 348.9787,-166.3993"/>
<polygon fill="#191970" stroke="#191970" points="348.4954,-169.8738 358.9994,-168.4892 349.9246,-163.0212 348.4954,-169.8738"/>
</g>
<!-- Node7 -->
<g id="node7" class="node">
<title>Node7</title>
<g id="a_node7"><a xlink:href="../../d3/d15/classHepGeom_1_1BasicVector3D.html#adaeebd8d7c33a1d48c48e92bb437b932" target="_top" xlink:title="HepGeom::BasicVector3D::phi">
<polygon fill="none" stroke="#000000" points="322.5,-129.5 322.5,-149.5 491.5,-149.5 491.5,-129.5 322.5,-129.5"/>
<text text-anchor="middle" x="407" y="-136.5" font-family="FreeSans" font-size="10.00" fill="#000000">HepGeom::BasicVector3D::phi</text>
</a>
</g>
</g>
<!-- Node3&#45;&gt;Node7 -->
<g id="edge6" class="edge">
<title>Node3&#45;&gt;Node7</title>
<path fill="none" stroke="#191970" d="M283.049,-139.5C292.4137,-139.5 302.2359,-139.5 312.0792,-139.5"/>
<polygon fill="#191970" stroke="#191970" points="312.3262,-143.0001 322.3262,-139.5 312.3261,-136.0001 312.3262,-143.0001"/>
</g>
<!-- Node8 -->
<g id="node8" class="node">
<title>Node8</title>
<g id="a_node8"><a xlink:href="../../d3/d15/classHepGeom_1_1BasicVector3D.html#a6cadf14d707d8afaeab342a00a86e42b" target="_top" xlink:title="HepGeom::BasicVector3D\l::theta">
<polygon fill="none" stroke="#000000" points="333.5,-78.5 333.5,-110.5 480.5,-110.5 480.5,-78.5 333.5,-78.5"/>
<text text-anchor="start" x="341.5" y="-97.5" font-family="FreeSans" font-size="10.00" fill="#000000">HepGeom::BasicVector3D</text>
<text text-anchor="middle" x="407" y="-85.5" font-family="FreeSans" font-size="10.00" fill="#000000">::theta</text>
</a>
</g>
</g>
<!-- Node3&#45;&gt;Node8 -->
<g id="edge7" class="edge">
<title>Node3&#45;&gt;Node8</title>
<path fill="none" stroke="#191970" d="M283.049,-124.3278C298.3274,-120.6512 314.8237,-116.6815 330.6421,-112.8749"/>
<polygon fill="#191970" stroke="#191970" points="331.4832,-116.2725 340.3868,-110.5299 329.8454,-109.4668 331.4832,-116.2725"/>
</g>
<!-- Node9 -->
<g id="node9" class="node">
<title>Node9</title>
<g id="a_node9"><a xlink:href="../../d3/d15/classHepGeom_1_1BasicVector3D.html#a0a1be6cd758b74f7d069ef3ba759e2ce" target="_top" xlink:title="HepGeom::BasicVector3D::x">
<polygon fill="none" stroke="#000000" points="327.5,-39.5 327.5,-59.5 486.5,-59.5 486.5,-39.5 327.5,-39.5"/>
<text text-anchor="middle" x="407" y="-46.5" font-family="FreeSans" font-size="10.00" fill="#000000">HepGeom::BasicVector3D::x</text>
</a>
</g>
</g>
<!-- Node3&#45;&gt;Node9 -->
<g id="edge8" class="edge">
<title>Node3&#45;&gt;Node9</title>
<path fill="none" stroke="#191970" d="M237.9942,-123.4376C256.8708,-107.4308 288.0477,-83.3026 319,-69.5 325.0568,-66.7991 331.5165,-64.4446 338.0802,-62.3957"/>
<polygon fill="#191970" stroke="#191970" points="339.0998,-65.7444 347.7366,-59.6079 337.1581,-59.019 339.0998,-65.7444"/>
</g>
<!-- Node10 -->
<g id="node10" class="node">
<title>Node10</title>
<g id="a_node10"><a xlink:href="../../d3/d15/classHepGeom_1_1BasicVector3D.html#ae839ce17881ac166c394b8098572542e" target="_top" xlink:title="HepGeom::BasicVector3D::y">
<polygon fill="none" stroke="#000000" points="327.5,-.5 327.5,-20.5 486.5,-20.5 486.5,-.5 327.5,-.5"/>
<text text-anchor="middle" x="407" y="-7.5" font-family="FreeSans" font-size="10.00" fill="#000000">HepGeom::BasicVector3D::y</text>
</a>
</g>
</g>
<!-- Node3&#45;&gt;Node10 -->
<g id="edge9" class="edge">
<title>Node3&#45;&gt;Node10</title>
<path fill="none" stroke="#191970" d="M229.9623,-123.3226C245.7335,-99.1541 278.8205,-53.9586 319,-30.5 323.1774,-28.061 327.6272,-25.9194 332.223,-24.039"/>
<polygon fill="#191970" stroke="#191970" points="333.6279,-27.2521 341.8207,-20.5343 331.2268,-20.6767 333.6279,-27.2521"/>
</g>
</g>
</svg>
