<?xml version="1.0" encoding="UTF-8" standalone="no"?>
<!DOCTYPE svg PUBLIC "-//W3C//DTD SVG 1.1//EN"
 "http://www.w3.org/Graphics/SVG/1.1/DTD/svg11.dtd">
<!-- Generated by graphviz version 2.40.1 (20161225.0304)
 -->
<!-- Title: G4Abla::spdef Pages: 1 -->
<svg width="228pt" height="68pt"
 viewBox="0.00 0.00 228.00 68.00" xmlns="http://www.w3.org/2000/svg" xmlns:xlink="http://www.w3.org/1999/xlink">
<g id="graph0" class="graph" transform="scale(1 1) rotate(0) translate(4 64)">
<title>G4Abla::spdef</title>
<!-- Node1 -->
<g id="node1" class="node">
<title>Node1</title>
<polygon fill="#bfbfbf" stroke="#000000" points="0,-19.5 0,-39.5 89,-39.5 89,-19.5 0,-19.5"/>
<text text-anchor="middle" x="44.5" y="-26.5" font-family="FreeSans" font-size="10.00" fill="#000000">G4Abla::spdef</text>
</g>
<!-- Node2 -->
<g id="node2" class="node">
<title>Node2</title>
<g id="a_node2"><a xlink:href="../../d2/ddc/classG4Abla.html#a573d419a5edb8f5552527850b88b2665" target="_top" xlink:title="G4Abla::fissility">
<polygon fill="none" stroke="#000000" points="125,-39.5 125,-59.5 220,-59.5 220,-39.5 125,-39.5"/>
<text text-anchor="middle" x="172.5" y="-46.5" font-family="FreeSans" font-size="10.00" fill="#000000">G4Abla::fissility</text>
</a>
</g>
</g>
<!-- Node1&#45;&gt;Node2 -->
<g id="edge1" class="edge">
<title>Node1&#45;&gt;Node2</title>
<path fill="none" stroke="#191970" d="M89.2682,-36.495C97.5589,-37.7904 106.3242,-39.16 114.9327,-40.5051"/>
<polygon fill="#191970" stroke="#191970" points="114.508,-43.9811 124.9285,-42.067 115.5887,-37.0651 114.508,-43.9811"/>
</g>
<!-- Node3 -->
<g id="node3" class="node">
<title>Node3</title>
<g id="a_node3"><a xlink:href="../../d2/ddc/classG4Abla.html#a7b657e63a31d3dcf6c6ecb403e4f4687" target="_top" xlink:title="G4Abla::idnint">
<polygon fill="none" stroke="#000000" points="128,-.5 128,-20.5 217,-20.5 217,-.5 128,-.5"/>
<text text-anchor="middle" x="172.5" y="-7.5" font-family="FreeSans" font-size="10.00" fill="#000000">G4Abla::idnint</text>
</a>
</g>
</g>
<!-- Node1&#45;&gt;Node3 -->
<g id="edge2" class="edge">
<title>Node1&#45;&gt;Node3</title>
<path fill="none" stroke="#191970" d="M89.2682,-22.8547C98.4803,-21.4873 108.2784,-20.0329 117.7963,-18.6201"/>
<polygon fill="#191970" stroke="#191970" points="118.5955,-22.0399 127.9732,-17.1094 117.5677,-15.1157 118.5955,-22.0399"/>
</g>
</g>
</svg>
