<?xml version="1.0" encoding="UTF-8" standalone="no"?>
<!DOCTYPE svg PUBLIC "-//W3C//DTD SVG 1.1//EN"
 "http://www.w3.org/Graphics/SVG/1.1/DTD/svg11.dtd">
<!-- Generated by graphviz version 2.40.1 (20161225.0304)
 -->
<!-- Title: G4ICRU90StoppingData::FillData Pages: 1 -->
<svg width="1028pt" height="170pt"
 viewBox="0.00 0.00 1028.00 170.00" xmlns="http://www.w3.org/2000/svg" xmlns:xlink="http://www.w3.org/1999/xlink">
<g id="graph0" class="graph" transform="scale(1 1) rotate(0) translate(4 166)">
<title>G4ICRU90StoppingData::FillData</title>
<!-- Node1 -->
<g id="node1" class="node">
<title>Node1</title>
<polygon fill="#bfbfbf" stroke="#000000" points="0,-39.5 0,-71.5 136,-71.5 136,-39.5 0,-39.5"/>
<text text-anchor="start" x="8" y="-58.5" font-family="FreeSans" font-size="10.00" fill="#000000">G4ICRU90StoppingData</text>
<text text-anchor="middle" x="68" y="-46.5" font-family="FreeSans" font-size="10.00" fill="#000000">::FillData</text>
</g>
<!-- Node2 -->
<g id="node2" class="node">
<title>Node2</title>
<g id="a_node2"><a xlink:href="../../d9/d2c/classG4ICRU90StoppingData.html#a661d5348f974acfaa09ce713989e4371" target="_top" xlink:title="G4ICRU90StoppingData\l::AddData">
<polygon fill="none" stroke="#000000" points="172,-39.5 172,-71.5 308,-71.5 308,-39.5 172,-39.5"/>
<text text-anchor="start" x="180" y="-58.5" font-family="FreeSans" font-size="10.00" fill="#000000">G4ICRU90StoppingData</text>
<text text-anchor="middle" x="240" y="-46.5" font-family="FreeSans" font-size="10.00" fill="#000000">::AddData</text>
</a>
</g>
</g>
<!-- Node1&#45;&gt;Node2 -->
<g id="edge1" class="edge">
<title>Node1&#45;&gt;Node2</title>
<path fill="none" stroke="#191970" d="M136.4732,-55.5C144.7318,-55.5 153.2157,-55.5 161.6024,-55.5"/>
<polygon fill="#191970" stroke="#191970" points="161.7625,-59.0001 171.7624,-55.5 161.7624,-52.0001 161.7625,-59.0001"/>
</g>
<!-- Node3 -->
<g id="node3" class="node">
<title>Node3</title>
<g id="a_node3"><a xlink:href="../../d7/d2c/classG4PhysicsVector.html#aaf35369666419821e80d4736a3bc8142" target="_top" xlink:title="G4PhysicsVector::FillSecond\lDerivatives">
<polygon fill="none" stroke="#000000" points="344,-90.5 344,-122.5 501,-122.5 501,-90.5 344,-90.5"/>
<text text-anchor="start" x="352" y="-109.5" font-family="FreeSans" font-size="10.00" fill="#000000">G4PhysicsVector::FillSecond</text>
<text text-anchor="middle" x="422.5" y="-97.5" font-family="FreeSans" font-size="10.00" fill="#000000">Derivatives</text>
</a>
</g>
</g>
<!-- Node2&#45;&gt;Node3 -->
<g id="edge2" class="edge">
<title>Node2&#45;&gt;Node3</title>
<path fill="none" stroke="#191970" d="M297.7441,-71.6367C316.063,-76.756 336.474,-82.4598 355.393,-87.7468"/>
<polygon fill="#191970" stroke="#191970" points="354.5585,-91.1476 365.1315,-90.4683 356.4425,-84.4059 354.5585,-91.1476"/>
</g>
<!-- Node6 -->
<g id="node6" class="node">
<title>Node6</title>
<g id="a_node6"><a xlink:href="../../d9/d66/classG4LPhysicsFreeVector.html#aacfb58b14d1abe4203e3595baf20e936" target="_top" xlink:title="G4LPhysicsFreeVector\l::PutValues">
<polygon fill="none" stroke="#000000" points="358.5,-39.5 358.5,-71.5 486.5,-71.5 486.5,-39.5 358.5,-39.5"/>
<text text-anchor="start" x="366.5" y="-58.5" font-family="FreeSans" font-size="10.00" fill="#000000">G4LPhysicsFreeVector</text>
<text text-anchor="middle" x="422.5" y="-46.5" font-family="FreeSans" font-size="10.00" fill="#000000">::PutValues</text>
</a>
</g>
</g>
<!-- Node2&#45;&gt;Node6 -->
<g id="edge6" class="edge">
<title>Node2&#45;&gt;Node6</title>
<path fill="none" stroke="#191970" d="M308.2158,-55.5C321.2856,-55.5 335.0301,-55.5 348.2781,-55.5"/>
<polygon fill="#191970" stroke="#191970" points="348.2927,-59.0001 358.2927,-55.5 348.2926,-52.0001 348.2927,-59.0001"/>
</g>
<!-- Node10 -->
<g id="node10" class="node">
<title>Node10</title>
<g id="a_node10"><a xlink:href="../../d7/d2c/classG4PhysicsVector.html#aba40887d022724e54654532e8bfef1cc" target="_top" xlink:title="G4PhysicsVector::SetSpline">
<polygon fill="none" stroke="#000000" points="345.5,-.5 345.5,-20.5 499.5,-20.5 499.5,-.5 345.5,-.5"/>
<text text-anchor="middle" x="422.5" y="-7.5" font-family="FreeSans" font-size="10.00" fill="#000000">G4PhysicsVector::SetSpline</text>
</a>
</g>
</g>
<!-- Node2&#45;&gt;Node10 -->
<g id="edge10" class="edge">
<title>Node2&#45;&gt;Node10</title>
<path fill="none" stroke="#191970" d="M303.7815,-39.4743C317.0685,-36.1583 330.9879,-32.7012 344,-29.5 352.6068,-27.3826 361.7493,-25.1524 370.6381,-22.9943"/>
<polygon fill="#191970" stroke="#191970" points="371.63,-26.3553 380.5241,-20.5982 369.981,-19.5523 371.63,-26.3553"/>
</g>
<!-- Node4 -->
<g id="node4" class="node">
<title>Node4</title>
<g id="a_node4"><a xlink:href="../../d7/d2c/classG4PhysicsVector.html#aadd5f909cf32df812808fe6b381a47dc" target="_top" xlink:title="G4PhysicsVector::Compute\lSecDerivatives">
<polygon fill="none" stroke="#000000" points="537,-129.5 537,-161.5 689,-161.5 689,-129.5 537,-129.5"/>
<text text-anchor="start" x="545" y="-148.5" font-family="FreeSans" font-size="10.00" fill="#000000">G4PhysicsVector::Compute</text>
<text text-anchor="middle" x="613" y="-136.5" font-family="FreeSans" font-size="10.00" fill="#000000">SecDerivatives</text>
</a>
</g>
</g>
<!-- Node3&#45;&gt;Node4 -->
<g id="edge3" class="edge">
<title>Node3&#45;&gt;Node4</title>
<path fill="none" stroke="#191970" d="M500.8083,-122.5316C509.4574,-124.3023 518.2991,-126.1124 527.0356,-127.901"/>
<polygon fill="#191970" stroke="#191970" points="526.34,-131.3311 536.8388,-129.908 527.744,-124.4733 526.34,-131.3311"/>
</g>
<!-- Node5 -->
<g id="node5" class="node">
<title>Node5</title>
<g id="a_node5"><a xlink:href="../../d7/d2c/classG4PhysicsVector.html#a73a675619c3e2606ace9a9f1252c9393" target="_top" xlink:title="G4PhysicsVector::SplinePossible">
<polygon fill="none" stroke="#000000" points="725,-112.5 725,-132.5 904,-132.5 904,-112.5 725,-112.5"/>
<text text-anchor="middle" x="814.5" y="-119.5" font-family="FreeSans" font-size="10.00" fill="#000000">G4PhysicsVector::SplinePossible</text>
</a>
</g>
</g>
<!-- Node3&#45;&gt;Node5 -->
<g id="edge5" class="edge">
<title>Node3&#45;&gt;Node5</title>
<path fill="none" stroke="#191970" d="M501.3555,-109.7186C562.8137,-112.2271 648.5439,-115.7263 714.7677,-118.4293"/>
<polygon fill="#191970" stroke="#191970" points="714.6719,-121.9282 724.8063,-118.839 714.9574,-114.934 714.6719,-121.9282"/>
</g>
<!-- Node4&#45;&gt;Node5 -->
<g id="edge4" class="edge">
<title>Node4&#45;&gt;Node5</title>
<path fill="none" stroke="#191970" d="M689.1785,-136.8047C698.1814,-135.7771 707.4631,-134.7176 716.7114,-133.662"/>
<polygon fill="#191970" stroke="#191970" points="717.1805,-137.1312 726.7191,-132.5197 716.3866,-130.1764 717.1805,-137.1312"/>
</g>
<!-- Node7 -->
<g id="node7" class="node">
<title>Node7</title>
<g id="a_node7"><a xlink:href="../../d4/dc2/classG4PhysicsFreeVector.html#a81714f2a435774457cbca7f421188309" target="_top" xlink:title="G4PhysicsFreeVector\l::PutValue">
<polygon fill="none" stroke="#000000" points="552,-39.5 552,-71.5 674,-71.5 674,-39.5 552,-39.5"/>
<text text-anchor="start" x="560" y="-58.5" font-family="FreeSans" font-size="10.00" fill="#000000">G4PhysicsFreeVector</text>
<text text-anchor="middle" x="613" y="-46.5" font-family="FreeSans" font-size="10.00" fill="#000000">::PutValue</text>
</a>
</g>
</g>
<!-- Node6&#45;&gt;Node7 -->
<g id="edge7" class="edge">
<title>Node6&#45;&gt;Node7</title>
<path fill="none" stroke="#191970" d="M486.729,-55.5C504.4188,-55.5 523.711,-55.5 541.7706,-55.5"/>
<polygon fill="#191970" stroke="#191970" points="541.9483,-59.0001 551.9483,-55.5 541.9483,-52.0001 541.9483,-59.0001"/>
</g>
<!-- Node8 -->
<g id="node8" class="node">
<title>Node8</title>
<g id="a_node8"><a xlink:href="../../d7/d2c/classG4PhysicsVector.html#a3ab62fa83db33d15a7e85748b03f2d78" target="_top" xlink:title="G4PhysicsVector::PrintPut\lValueError">
<polygon fill="none" stroke="#000000" points="741.5,-39.5 741.5,-71.5 887.5,-71.5 887.5,-39.5 741.5,-39.5"/>
<text text-anchor="start" x="749.5" y="-58.5" font-family="FreeSans" font-size="10.00" fill="#000000">G4PhysicsVector::PrintPut</text>
<text text-anchor="middle" x="814.5" y="-46.5" font-family="FreeSans" font-size="10.00" fill="#000000">ValueError</text>
</a>
</g>
</g>
<!-- Node7&#45;&gt;Node8 -->
<g id="edge8" class="edge">
<title>Node7&#45;&gt;Node8</title>
<path fill="none" stroke="#191970" d="M674.0035,-55.5C691.9717,-55.5 711.9485,-55.5 731.0676,-55.5"/>
<polygon fill="#191970" stroke="#191970" points="731.2764,-59.0001 741.2763,-55.5 731.2763,-52.0001 731.2764,-59.0001"/>
</g>
<!-- Node9 -->
<g id="node9" class="node">
<title>Node9</title>
<g id="a_node9"><a xlink:href="../../d5/d4f/G4Exception_8hh.html#ad36b5da5d062a20ca47b1c1f1ae353dd" target="_top" xlink:title="G4Exception">
<polygon fill="none" stroke="#000000" points="940,-45.5 940,-65.5 1020,-65.5 1020,-45.5 940,-45.5"/>
<text text-anchor="middle" x="980" y="-52.5" font-family="FreeSans" font-size="10.00" fill="#000000">G4Exception</text>
</a>
</g>
</g>
<!-- Node8&#45;&gt;Node9 -->
<g id="edge9" class="edge">
<title>Node8&#45;&gt;Node9</title>
<path fill="none" stroke="#191970" d="M887.5725,-55.5C901.7844,-55.5 916.3824,-55.5 929.6586,-55.5"/>
<polygon fill="#191970" stroke="#191970" points="929.9899,-59.0001 939.9898,-55.5 929.9898,-52.0001 929.9899,-59.0001"/>
</g>
</g>
</svg>
