<?xml version="1.0" encoding="UTF-8" standalone="no"?>
<!DOCTYPE svg PUBLIC "-//W3C//DTD SVG 1.1//EN"
 "http://www.w3.org/Graphics/SVG/1.1/DTD/svg11.dtd">
<!-- Generated by graphviz version 2.40.1 (20161225.0304)
 -->
<!-- Title: G4FragmentingString::GetDecayParton Pages: 1 -->
<svg width="912pt" height="150pt"
 viewBox="0.00 0.00 912.00 150.36" xmlns="http://www.w3.org/2000/svg" xmlns:xlink="http://www.w3.org/1999/xlink">
<g id="graph0" class="graph" transform="scale(1 1) rotate(0) translate(4 146.3563)">
<title>G4FragmentingString::GetDecayParton</title>
<!-- Node1 -->
<g id="node1" class="node">
<title>Node1</title>
<polygon fill="#bfbfbf" stroke="#000000" points="0,-41.8563 0,-73.8563 124,-73.8563 124,-41.8563 0,-41.8563"/>
<text text-anchor="start" x="8" y="-60.8563" font-family="FreeSans" font-size="10.00" fill="#000000">G4FragmentingString</text>
<text text-anchor="middle" x="62" y="-48.8563" font-family="FreeSans" font-size="10.00" fill="#000000">::GetDecayParton</text>
</g>
<!-- Node2 -->
<g id="node2" class="node">
<title>Node2</title>
<g id="a_node2"><a xlink:href="../../d9/d84/classG4LundStringFragmentation.html#a3ef841775a117ba1635503e66c361742" target="_top" xlink:title="G4LundStringFragmentation\l::SplitEandP">
<polygon fill="none" stroke="#000000" points="160,-109.8563 160,-141.8563 319,-141.8563 319,-109.8563 160,-109.8563"/>
<text text-anchor="start" x="168" y="-128.8563" font-family="FreeSans" font-size="10.00" fill="#000000">G4LundStringFragmentation</text>
<text text-anchor="middle" x="239.5" y="-116.8563" font-family="FreeSans" font-size="10.00" fill="#000000">::SplitEandP</text>
</a>
</g>
</g>
<!-- Node1&#45;&gt;Node2 -->
<g id="edge1" class="edge">
<title>Node1&#45;&gt;Node2</title>
<path fill="none" stroke="#191970" d="M113.608,-77.6272C140.2414,-87.8305 172.3199,-100.1197 197.4297,-109.7392"/>
<polygon fill="#191970" stroke="#191970" points="114.6554,-74.2805 104.065,-73.9713 112.1511,-80.8172 114.6554,-74.2805"/>
</g>
<!-- Node3 -->
<g id="node3" class="node">
<title>Node3</title>
<g id="a_node3"><a xlink:href="../../d9/d84/classG4LundStringFragmentation.html#a8d6adeed61520ef367d8d3403c9a3d4b" target="_top" xlink:title="G4LundStringFragmentation\l::Splitup">
<polygon fill="none" stroke="#000000" points="355,-76.8563 355,-108.8563 514,-108.8563 514,-76.8563 355,-76.8563"/>
<text text-anchor="start" x="363" y="-95.8563" font-family="FreeSans" font-size="10.00" fill="#000000">G4LundStringFragmentation</text>
<text text-anchor="middle" x="434.5" y="-83.8563" font-family="FreeSans" font-size="10.00" fill="#000000">::Splitup</text>
</a>
</g>
</g>
<!-- Node1&#45;&gt;Node3 -->
<g id="edge9" class="edge">
<title>Node1&#45;&gt;Node3</title>
<path fill="none" stroke="#191970" d="M134.64,-64.6815C197.8954,-70.625 289.4429,-79.2268 354.7189,-85.3601"/>
<polygon fill="#191970" stroke="#191970" points="134.6317,-61.1654 124.3481,-63.7145 133.9768,-68.1347 134.6317,-61.1654"/>
</g>
<!-- Node6 -->
<g id="node6" class="node">
<title>Node6</title>
<g id="a_node6"><a xlink:href="../../d4/dc9/classG4QGSMFragmentation.html#ad8578d5ff90b49d882a0f2f08a49dbaf" target="_top" xlink:title="G4QGSMFragmentation\l::SplitEandP">
<polygon fill="none" stroke="#000000" points="172,-19.8563 172,-51.8563 307,-51.8563 307,-19.8563 172,-19.8563"/>
<text text-anchor="start" x="180" y="-38.8563" font-family="FreeSans" font-size="10.00" fill="#000000">G4QGSMFragmentation</text>
<text text-anchor="middle" x="239.5" y="-26.8563" font-family="FreeSans" font-size="10.00" fill="#000000">::SplitEandP</text>
</a>
</g>
</g>
<!-- Node1&#45;&gt;Node6 -->
<g id="edge5" class="edge">
<title>Node1&#45;&gt;Node6</title>
<path fill="none" stroke="#191970" d="M134.3318,-48.8912C146.6846,-47.3602 159.477,-45.7746 171.7064,-44.2589"/>
<polygon fill="#191970" stroke="#191970" points="133.5744,-45.4582 124.0809,-50.1618 134.4355,-52.4051 133.5744,-45.4582"/>
</g>
<!-- Node7 -->
<g id="node7" class="node">
<title>Node7</title>
<g id="a_node7"><a xlink:href="../../d4/dc9/classG4QGSMFragmentation.html#a11e702aaf507272910cacb5c1151da6d" target="_top" xlink:title="G4QGSMFragmentation\l::Splitup">
<polygon fill="none" stroke="#000000" points="367,-6.8563 367,-38.8563 502,-38.8563 502,-6.8563 367,-6.8563"/>
<text text-anchor="start" x="375" y="-25.8563" font-family="FreeSans" font-size="10.00" fill="#000000">G4QGSMFragmentation</text>
<text text-anchor="middle" x="434.5" y="-13.8563" font-family="FreeSans" font-size="10.00" fill="#000000">::Splitup</text>
</a>
</g>
</g>
<!-- Node1&#45;&gt;Node7 -->
<g id="edge8" class="edge">
<title>Node1&#45;&gt;Node7</title>
<path fill="none" stroke="#191970" d="M95.7865,-36.5426C114.0444,-26.281 137.4224,-15.0885 160,-9.8563 229.1359,6.1656 310.6063,-.8208 366.7351,-9.4867"/>
<polygon fill="#191970" stroke="#191970" points="93.8995,-33.5908 86.9995,-41.6308 97.4073,-39.6485 93.8995,-33.5908"/>
</g>
<!-- Node2&#45;&gt;Node3 -->
<g id="edge2" class="edge">
<title>Node2&#45;&gt;Node3</title>
<path fill="none" stroke="#191970" d="M329.117,-110.6903C337.6999,-109.2378 346.3647,-107.7715 354.8432,-106.3367"/>
<polygon fill="#191970" stroke="#191970" points="328.371,-107.2667 319.0952,-112.3863 329.5391,-114.1686 328.371,-107.2667"/>
</g>
<!-- Node4 -->
<g id="node4" class="node">
<title>Node4</title>
<g id="a_node4"><a xlink:href="../../d9/d84/classG4LundStringFragmentation.html#aa0b0a4f2a1f980274971a285e5aed95c" target="_top" xlink:title="G4LundStringFragmentation\l::Loop_toFragmentString">
<polygon fill="none" stroke="#000000" points="550,-76.8563 550,-108.8563 709,-108.8563 709,-76.8563 550,-76.8563"/>
<text text-anchor="start" x="558" y="-95.8563" font-family="FreeSans" font-size="10.00" fill="#000000">G4LundStringFragmentation</text>
<text text-anchor="middle" x="629.5" y="-83.8563" font-family="FreeSans" font-size="10.00" fill="#000000">::Loop_toFragmentString</text>
</a>
</g>
</g>
<!-- Node3&#45;&gt;Node4 -->
<g id="edge3" class="edge">
<title>Node3&#45;&gt;Node4</title>
<path fill="none" stroke="#191970" d="M524.117,-92.8563C532.6999,-92.8563 541.3647,-92.8563 549.8432,-92.8563"/>
<polygon fill="#191970" stroke="#191970" points="524.0953,-89.3564 514.0952,-92.8563 524.0952,-96.3564 524.0953,-89.3564"/>
</g>
<!-- Node5 -->
<g id="node5" class="node">
<title>Node5</title>
<g id="a_node5"><a xlink:href="../../d9/d84/classG4LundStringFragmentation.html#a36964aef154384f1cace515b3f5398d0" target="_top" xlink:title="G4LundStringFragmentation\l::FragmentString">
<polygon fill="none" stroke="#000000" points="745,-76.8563 745,-108.8563 904,-108.8563 904,-76.8563 745,-76.8563"/>
<text text-anchor="start" x="753" y="-95.8563" font-family="FreeSans" font-size="10.00" fill="#000000">G4LundStringFragmentation</text>
<text text-anchor="middle" x="824.5" y="-83.8563" font-family="FreeSans" font-size="10.00" fill="#000000">::FragmentString</text>
</a>
</g>
</g>
<!-- Node4&#45;&gt;Node5 -->
<g id="edge4" class="edge">
<title>Node4&#45;&gt;Node5</title>
<path fill="none" stroke="#191970" d="M719.117,-92.8563C727.6999,-92.8563 736.3647,-92.8563 744.8432,-92.8563"/>
<polygon fill="#191970" stroke="#191970" points="719.0953,-89.3564 709.0952,-92.8563 719.0952,-96.3564 719.0953,-89.3564"/>
</g>
<!-- Node6&#45;&gt;Node7 -->
<g id="edge6" class="edge">
<title>Node6&#45;&gt;Node7</title>
<path fill="none" stroke="#191970" d="M317.2732,-30.6714C333.7153,-29.5753 350.9386,-28.4271 366.9653,-27.3586"/>
<polygon fill="#191970" stroke="#191970" points="316.8993,-27.1885 307.1543,-31.346 317.365,-34.173 316.8993,-27.1885"/>
</g>
<!-- Node8 -->
<g id="node8" class="node">
<title>Node8</title>
<g id="a_node8"><a xlink:href="../../d4/dc9/classG4QGSMFragmentation.html#a87dc0419e971242d32aca30cc0fd79f7" target="_top" xlink:title="G4QGSMFragmentation\l::FragmentString">
<polygon fill="none" stroke="#000000" points="562,-6.8563 562,-38.8563 697,-38.8563 697,-6.8563 562,-6.8563"/>
<text text-anchor="start" x="570" y="-25.8563" font-family="FreeSans" font-size="10.00" fill="#000000">G4QGSMFragmentation</text>
<text text-anchor="middle" x="629.5" y="-13.8563" font-family="FreeSans" font-size="10.00" fill="#000000">::FragmentString</text>
</a>
</g>
</g>
<!-- Node7&#45;&gt;Node8 -->
<g id="edge7" class="edge">
<title>Node7&#45;&gt;Node8</title>
<path fill="none" stroke="#191970" d="M512.2732,-22.8563C528.7153,-22.8563 545.9386,-22.8563 561.9653,-22.8563"/>
<polygon fill="#191970" stroke="#191970" points="512.1543,-19.3564 502.1543,-22.8563 512.1542,-26.3564 512.1543,-19.3564"/>
</g>
</g>
</svg>
