<?xml version="1.0" encoding="UTF-8" standalone="no"?>
<!DOCTYPE svg PUBLIC "-//W3C//DTD SVG 1.1//EN"
 "http://www.w3.org/Graphics/SVG/1.1/DTD/svg11.dtd">
<!-- Generated by graphviz version 2.40.1 (20161225.0304)
 -->
<!-- Title: SBPoint Pages: 1 -->
<svg width="224pt" height="236pt"
 viewBox="0.00 0.00 223.50 236.00" xmlns="http://www.w3.org/2000/svg" xmlns:xlink="http://www.w3.org/1999/xlink">
<g id="graph0" class="graph" transform="scale(1 1) rotate(0) translate(4 232)">
<title>SBPoint</title>
<!-- Node1 -->
<g id="node1" class="node">
<title>Node1</title>
<polygon fill="#bfbfbf" stroke="#000000" points="90,-138.5 90,-158.5 145,-158.5 145,-138.5 90,-138.5"/>
<text text-anchor="middle" x="117.5" y="-145.5" font-family="FreeSans" font-size="10.00" fill="#000000">SBPoint</text>
</g>
<!-- Node3 -->
<g id="node3" class="node">
<title>Node3</title>
<polygon fill="none" stroke="#bfbfbf" points="0,-69.5 0,-89.5 123,-89.5 123,-69.5 0,-69.5"/>
<text text-anchor="middle" x="61.5" y="-76.5" font-family="FreeSans" font-size="10.00" fill="#000000">std::set&lt; SBPoint * &gt;</text>
</g>
<!-- Node1&#45;&gt;Node3 -->
<g id="edge3" class="edge">
<title>Node1&#45;&gt;Node3</title>
<path fill="none" stroke="#9a32cd" stroke-dasharray="5,2" d="M102.8763,-130.4815C92.3381,-117.4969 78.4955,-100.4409 69.7969,-89.723"/>
<polygon fill="#9a32cd" stroke="#9a32cd" points="100.2177,-132.7598 109.237,-138.3188 105.6529,-128.3486 100.2177,-132.7598"/>
<text text-anchor="middle" x="107" y="-111" font-family="FreeSans" font-size="10.00" fill="#000000"> keys</text>
</g>
<!-- Node2 -->
<g id="node2" class="node">
<title>Node2</title>
<g id="a_node2"><a xlink:href="../../dd/d2c/classClusterSBPoints.html" target="_top" xlink:title="define a cluster of SB Points">
<polygon fill="none" stroke="#000000" points="61.5,-.5 61.5,-20.5 157.5,-20.5 157.5,-.5 61.5,-.5"/>
<text text-anchor="middle" x="109.5" y="-7.5" font-family="FreeSans" font-size="10.00" fill="#000000">ClusterSBPoints</text>
</a>
</g>
</g>
<!-- Node2&#45;&gt;Node1 -->
<g id="edge1" class="edge">
<title>Node2&#45;&gt;Node1</title>
<path fill="none" stroke="#9a32cd" stroke-dasharray="5,2" d="M147.1977,-25.8827C152.1098,-29.4657 156.4772,-33.7976 159.5,-39 179.3445,-73.1533 144.9924,-118.4266 127.1892,-138.3527"/>
<polygon fill="#9a32cd" stroke="#9a32cd" points="148.9037,-22.8224 138.558,-20.5382 145.2211,-28.7755 148.9037,-22.8224"/>
<text text-anchor="middle" x="190" y="-76.5" font-family="FreeSans" font-size="10.00" fill="#000000"> fpCluster</text>
</g>
<!-- Node3&#45;&gt;Node2 -->
<g id="edge2" class="edge">
<title>Node3&#45;&gt;Node2</title>
<path fill="none" stroke="#9a32cd" stroke-dasharray="5,2" d="M48.0563,-60.3316C44.8275,-53.2865 43.3602,-45.4592 47.5,-39 52.8057,-30.7216 61.1883,-24.8154 70.0949,-20.6133"/>
<polygon fill="#9a32cd" stroke="#9a32cd" points="45.1682,-62.3303 53.1898,-69.2517 51.2353,-58.8386 45.1682,-62.3303"/>
<text text-anchor="middle" x="103.5" y="-42" font-family="FreeSans" font-size="10.00" fill="#000000"> fpRegisteredSBPoints</text>
</g>
<!-- Node4 -->
<g id="node4" class="node">
<title>Node4</title>
<g id="a_node4"><a xlink:href="../../da/dcf/classCLHEP_1_1Hep3Vector.html" target="_top" xlink:title="CLHEP::Hep3Vector">
<polygon fill="none" stroke="#000000" points="60,-207.5 60,-227.5 175,-227.5 175,-207.5 60,-207.5"/>
<text text-anchor="middle" x="117.5" y="-214.5" font-family="FreeSans" font-size="10.00" fill="#000000">CLHEP::Hep3Vector</text>
</a>
</g>
</g>
<!-- Node4&#45;&gt;Node1 -->
<g id="edge4" class="edge">
<title>Node4&#45;&gt;Node1</title>
<path fill="none" stroke="#9a32cd" stroke-dasharray="5,2" d="M117.5,-197.2177C117.5,-184.5684 117.5,-168.8285 117.5,-158.723"/>
<polygon fill="#9a32cd" stroke="#9a32cd" points="114.0001,-197.3188 117.5,-207.3188 121.0001,-197.3188 114.0001,-197.3188"/>
<text text-anchor="middle" x="141" y="-180" font-family="FreeSans" font-size="10.00" fill="#000000"> fPosition</text>
</g>
</g>
</svg>
