<?xml version="1.0" encoding="UTF-8" standalone="no"?>
<!DOCTYPE svg PUBLIC "-//W3C//DTD SVG 1.1//EN"
 "http://www.w3.org/Graphics/SVG/1.1/DTD/svg11.dtd">
<!-- Generated by graphviz version 2.40.1 (20161225.0304)
 -->
<!-- Title: G4InuclElementaryParticle::print Pages: 1 -->
<svg width="680pt" height="230pt"
 viewBox="0.00 0.00 680.00 230.00" xmlns="http://www.w3.org/2000/svg" xmlns:xlink="http://www.w3.org/1999/xlink">
<g id="graph0" class="graph" transform="scale(1 1) rotate(0) translate(4 226)">
<title>G4InuclElementaryParticle::print</title>
<!-- Node1 -->
<g id="node1" class="node">
<title>Node1</title>
<polygon fill="#bfbfbf" stroke="#000000" points="0,-91.5 0,-123.5 150,-123.5 150,-91.5 0,-91.5"/>
<text text-anchor="start" x="8" y="-110.5" font-family="FreeSans" font-size="10.00" fill="#000000">G4InuclElementaryParticle</text>
<text text-anchor="middle" x="75" y="-98.5" font-family="FreeSans" font-size="10.00" fill="#000000">::print</text>
</g>
<!-- Node2 -->
<g id="node2" class="node">
<title>Node2</title>
<g id="a_node2"><a xlink:href="../../d9/da2/classG4InuclParticle.html#a9f86eefbd4b8546e7b52c790aa323935" target="_top" xlink:title="G4InuclParticle::print">
<polygon fill="none" stroke="#000000" points="186,-97.5 186,-117.5 309,-117.5 309,-97.5 186,-97.5"/>
<text text-anchor="middle" x="247.5" y="-104.5" font-family="FreeSans" font-size="10.00" fill="#000000">G4InuclParticle::print</text>
</a>
</g>
</g>
<!-- Node1&#45;&gt;Node2 -->
<g id="edge1" class="edge">
<title>Node1&#45;&gt;Node2</title>
<path fill="none" stroke="#191970" d="M150.1592,-107.5C158.6149,-107.5 167.2151,-107.5 175.6276,-107.5"/>
<polygon fill="#191970" stroke="#191970" points="175.7736,-111.0001 185.7735,-107.5 175.7735,-104.0001 175.7736,-111.0001"/>
</g>
<!-- Node3 -->
<g id="node3" class="node">
<title>Node3</title>
<g id="a_node3"><a xlink:href="../../d9/da2/classG4InuclParticle.html#ab11174eda75ffc99101afc15f7e7bfb3" target="_top" xlink:title="G4InuclParticle::getMomentum">
<polygon fill="none" stroke="#000000" points="345,-195.5 345,-215.5 518,-215.5 518,-195.5 345,-195.5"/>
<text text-anchor="middle" x="431.5" y="-202.5" font-family="FreeSans" font-size="10.00" fill="#000000">G4InuclParticle::getMomentum</text>
</a>
</g>
</g>
<!-- Node2&#45;&gt;Node3 -->
<g id="edge2" class="edge">
<title>Node2&#45;&gt;Node3</title>
<path fill="none" stroke="#191970" d="M256.6714,-117.5008C272.8116,-134.458 308.0945,-168.7367 345,-186.5 349.5589,-188.6943 354.3749,-190.6384 359.3068,-192.3603"/>
<polygon fill="#191970" stroke="#191970" points="358.3062,-195.7148 368.8965,-195.4054 360.4248,-189.0431 358.3062,-195.7148"/>
</g>
<!-- Node5 -->
<g id="node5" class="node">
<title>Node5</title>
<g id="a_node5"><a xlink:href="../../dc/df4/classCLHEP_1_1HepLorentzVector.html#a42ea7f1d3b864efbd2c3da5a5642625d" target="_top" xlink:title="CLHEP::HepLorentzVector::px">
<polygon fill="none" stroke="#000000" points="349.5,-156.5 349.5,-176.5 513.5,-176.5 513.5,-156.5 349.5,-156.5"/>
<text text-anchor="middle" x="431.5" y="-163.5" font-family="FreeSans" font-size="10.00" fill="#000000">CLHEP::HepLorentzVector::px</text>
</a>
</g>
</g>
<!-- Node2&#45;&gt;Node5 -->
<g id="edge4" class="edge">
<title>Node2&#45;&gt;Node5</title>
<path fill="none" stroke="#191970" d="M269.1731,-117.6617C288.6725,-126.4959 318.2801,-139.1534 345,-147.5 352.721,-149.9118 360.9216,-152.1348 369.0788,-154.1446"/>
<polygon fill="#191970" stroke="#191970" points="368.4343,-157.5888 378.9719,-156.4889 370.0484,-150.7774 368.4343,-157.5888"/>
</g>
<!-- Node6 -->
<g id="node6" class="node">
<title>Node6</title>
<g id="a_node6"><a xlink:href="../../dc/df4/classCLHEP_1_1HepLorentzVector.html#aa5339620739d73bedfdd848824221d55" target="_top" xlink:title="CLHEP::HepLorentzVector::py">
<polygon fill="none" stroke="#000000" points="349.5,-117.5 349.5,-137.5 513.5,-137.5 513.5,-117.5 349.5,-117.5"/>
<text text-anchor="middle" x="431.5" y="-124.5" font-family="FreeSans" font-size="10.00" fill="#000000">CLHEP::HepLorentzVector::py</text>
</a>
</g>
</g>
<!-- Node2&#45;&gt;Node6 -->
<g id="edge5" class="edge">
<title>Node2&#45;&gt;Node6</title>
<path fill="none" stroke="#191970" d="M309.0252,-114.1875C318.7411,-115.2436 328.9683,-116.3553 339.2005,-117.4674"/>
<polygon fill="#191970" stroke="#191970" points="339.0958,-120.9766 349.4155,-118.5778 339.8523,-114.0176 339.0958,-120.9766"/>
</g>
<!-- Node7 -->
<g id="node7" class="node">
<title>Node7</title>
<g id="a_node7"><a xlink:href="../../dc/df4/classCLHEP_1_1HepLorentzVector.html#aa4446a4bb6a0196882d9144c4d011143" target="_top" xlink:title="CLHEP::HepLorentzVector::pz">
<polygon fill="none" stroke="#000000" points="349.5,-78.5 349.5,-98.5 513.5,-98.5 513.5,-78.5 349.5,-78.5"/>
<text text-anchor="middle" x="431.5" y="-85.5" font-family="FreeSans" font-size="10.00" fill="#000000">CLHEP::HepLorentzVector::pz</text>
</a>
</g>
</g>
<!-- Node2&#45;&gt;Node7 -->
<g id="edge6" class="edge">
<title>Node2&#45;&gt;Node7</title>
<path fill="none" stroke="#191970" d="M309.0252,-101.1469C318.7411,-100.1436 328.9683,-99.0875 339.2005,-98.0309"/>
<polygon fill="#191970" stroke="#191970" points="339.8279,-101.4848 349.4155,-96.9761 339.1089,-94.5219 339.8279,-101.4848"/>
</g>
<!-- Node8 -->
<g id="node8" class="node">
<title>Node8</title>
<g id="a_node8"><a xlink:href="../../dc/df4/classCLHEP_1_1HepLorentzVector.html#ac8e5a617ac991b6794d1271dac972a76" target="_top" xlink:title="CLHEP::HepLorentzVector::rho">
<polygon fill="none" stroke="#000000" points="347.5,-39.5 347.5,-59.5 515.5,-59.5 515.5,-39.5 347.5,-39.5"/>
<text text-anchor="middle" x="431.5" y="-46.5" font-family="FreeSans" font-size="10.00" fill="#000000">CLHEP::HepLorentzVector::rho</text>
</a>
</g>
</g>
<!-- Node2&#45;&gt;Node8 -->
<g id="edge7" class="edge">
<title>Node2&#45;&gt;Node8</title>
<path fill="none" stroke="#191970" d="M270.4127,-97.4846C289.963,-89.203 318.9616,-77.5383 345,-69.5 353.7607,-66.7955 363.1204,-64.268 372.3277,-61.9813"/>
<polygon fill="#191970" stroke="#191970" points="373.3211,-65.3422 382.2232,-59.5975 371.6816,-58.5369 373.3211,-65.3422"/>
</g>
<!-- Node9 -->
<g id="node9" class="node">
<title>Node9</title>
<g id="a_node9"><a xlink:href="../../dc/df4/classCLHEP_1_1HepLorentzVector.html#af7bc7b339695350b833e78b55270db0d" target="_top" xlink:title="CLHEP::HepLorentzVector::e">
<polygon fill="none" stroke="#000000" points="352.5,-.5 352.5,-20.5 510.5,-20.5 510.5,-.5 352.5,-.5"/>
<text text-anchor="middle" x="431.5" y="-7.5" font-family="FreeSans" font-size="10.00" fill="#000000">CLHEP::HepLorentzVector::e</text>
</a>
</g>
</g>
<!-- Node2&#45;&gt;Node9 -->
<g id="edge8" class="edge">
<title>Node2&#45;&gt;Node9</title>
<path fill="none" stroke="#191970" d="M257.2716,-97.2737C273.7541,-80.6482 308.8376,-47.8721 345,-30.5 350.5618,-27.8282 356.4992,-25.5029 362.5589,-23.4811"/>
<polygon fill="#191970" stroke="#191970" points="363.6072,-26.8206 372.1454,-20.5477 361.5589,-20.127 363.6072,-26.8206"/>
</g>
<!-- Node4 -->
<g id="node4" class="node">
<title>Node4</title>
<g id="a_node4"><a xlink:href="../../d7/d5c/classG4DynamicParticle.html#a6a2f12f20a7938ac1677677696d71a57" target="_top" xlink:title="G4DynamicParticle::\lGet4Momentum">
<polygon fill="none" stroke="#000000" points="554,-189.5 554,-221.5 672,-221.5 672,-189.5 554,-189.5"/>
<text text-anchor="start" x="562" y="-208.5" font-family="FreeSans" font-size="10.00" fill="#000000">G4DynamicParticle::</text>
<text text-anchor="middle" x="613" y="-196.5" font-family="FreeSans" font-size="10.00" fill="#000000">Get4Momentum</text>
</a>
</g>
</g>
<!-- Node3&#45;&gt;Node4 -->
<g id="edge3" class="edge">
<title>Node3&#45;&gt;Node4</title>
<path fill="none" stroke="#191970" d="M518.2631,-205.5C526.8161,-205.5 535.4165,-205.5 543.7594,-205.5"/>
<polygon fill="#191970" stroke="#191970" points="543.7879,-209.0001 553.7879,-205.5 543.7879,-202.0001 543.7879,-209.0001"/>
</g>
</g>
</svg>
