<?xml version="1.0" encoding="UTF-8" standalone="no"?>
<!DOCTYPE svg PUBLIC "-//W3C//DTD SVG 1.1//EN"
 "http://www.w3.org/Graphics/SVG/1.1/DTD/svg11.dtd">
<!-- Generated by graphviz version 2.40.1 (20161225.0304)
 -->
<!-- Title: make_release.minor Pages: 1 -->
<svg width="668pt" height="344pt"
 viewBox="0.00 0.00 668.00 344.00" xmlns="http://www.w3.org/2000/svg" xmlns:xlink="http://www.w3.org/1999/xlink">
<g id="graph0" class="graph" transform="scale(1 1) rotate(0) translate(4 340)">
<title>make_release.minor</title>
<!-- Node1 -->
<g id="node1" class="node">
<title>Node1</title>
<polygon fill="#bfbfbf" stroke="#000000" points="0,-157.5 0,-177.5 119,-177.5 119,-157.5 0,-157.5"/>
<text text-anchor="middle" x="59.5" y="-164.5" font-family="FreeSans" font-size="10.00" fill="#000000">make_release.minor</text>
</g>
<!-- Node2 -->
<g id="node2" class="node">
<title>Node2</title>
<g id="a_node2"><a xlink:href="../../df/d1f/namespacemake__release.html#a6d5f3cfd9952e2d632ad6216bade945d" target="_top" xlink:title="make_release.current\l_branch">
<polygon fill="none" stroke="#000000" points="173.5,-303.5 173.5,-335.5 299.5,-335.5 299.5,-303.5 173.5,-303.5"/>
<text text-anchor="start" x="181.5" y="-322.5" font-family="FreeSans" font-size="10.00" fill="#000000">make_release.current</text>
<text text-anchor="middle" x="236.5" y="-310.5" font-family="FreeSans" font-size="10.00" fill="#000000">_branch</text>
</a>
</g>
</g>
<!-- Node1&#45;&gt;Node2 -->
<g id="edge1" class="edge">
<title>Node1&#45;&gt;Node2</title>
<path fill="none" stroke="#191970" d="M65.0155,-177.7913C77.8326,-200.7941 111.8483,-256.8351 155,-288.5 160.4121,-292.4714 166.3946,-295.9971 172.5875,-299.1124"/>
<polygon fill="#191970" stroke="#191970" points="171.2266,-302.3395 181.7695,-303.387 174.181,-295.9934 171.2266,-302.3395"/>
</g>
<!-- Node3 -->
<g id="node3" class="node">
<title>Node3</title>
<g id="a_node3"><a xlink:href="../../d8/d03/G4ecpssrBaseKxsModel_8cc.html#afca89815e8ce05521ca0a7ec9bd17385" target="_top" xlink:title="print">
<polygon fill="none" stroke="#000000" points="424,-277.5 424,-297.5 464,-297.5 464,-277.5 424,-277.5"/>
<text text-anchor="middle" x="444" y="-284.5" font-family="FreeSans" font-size="10.00" fill="#000000">print</text>
</a>
</g>
</g>
<!-- Node1&#45;&gt;Node3 -->
<g id="edge16" class="edge">
<title>Node1&#45;&gt;Node3</title>
<path fill="none" stroke="#191970" d="M66.8099,-177.5882C81.2303,-196.6055 115.4014,-237.4631 155,-255.5 242.4278,-295.3228 359.5841,-293.6214 413.9505,-290.1264"/>
<polygon fill="#191970" stroke="#191970" points="414.2324,-293.6152 423.9592,-289.4152 413.7362,-286.6328 414.2324,-293.6152"/>
</g>
<!-- Node4 -->
<g id="node4" class="node">
<title>Node4</title>
<g id="a_node4"><a xlink:href="../../df/d1f/namespacemake__release.html#aa224e1211df20809f86838554380b725" target="_top" xlink:title="make_release.find_milestone">
<polygon fill="none" stroke="#000000" points="155,-225.5 155,-245.5 318,-245.5 318,-225.5 155,-225.5"/>
<text text-anchor="middle" x="236.5" y="-232.5" font-family="FreeSans" font-size="10.00" fill="#000000">make_release.find_milestone</text>
</a>
</g>
</g>
<!-- Node1&#45;&gt;Node4 -->
<g id="edge3" class="edge">
<title>Node1&#45;&gt;Node4</title>
<path fill="none" stroke="#191970" d="M76.1798,-177.6592C94.8047,-188.6169 126.1329,-205.9119 155,-216.5 161.3235,-218.8194 168.0294,-220.9218 174.7719,-222.8098"/>
<polygon fill="#191970" stroke="#191970" points="174.0735,-226.2454 184.6364,-225.4228 175.866,-219.4788 174.0735,-226.2454"/>
</g>
<!-- Node5 -->
<g id="node5" class="node">
<title>Node5</title>
<g id="a_node5"><a xlink:href="../../df/d1f/namespacemake__release.html#aad28fb597180feb2be0df4486f1a5d13" target="_top" xlink:title="make_release.format\l_version">
<polygon fill="none" stroke="#000000" points="175,-174.5 175,-206.5 298,-206.5 298,-174.5 175,-174.5"/>
<text text-anchor="start" x="183" y="-193.5" font-family="FreeSans" font-size="10.00" fill="#000000">make_release.format</text>
<text text-anchor="middle" x="236.5" y="-181.5" font-family="FreeSans" font-size="10.00" fill="#000000">_version</text>
</a>
</g>
</g>
<!-- Node1&#45;&gt;Node5 -->
<g id="edge4" class="edge">
<title>Node1&#45;&gt;Node5</title>
<path fill="none" stroke="#191970" d="M119.4241,-175.2868C133.9287,-177.1715 149.5805,-179.2054 164.5741,-181.1537"/>
<polygon fill="#191970" stroke="#191970" points="164.4593,-184.6681 174.8269,-182.486 165.3614,-177.7265 164.4593,-184.6681"/>
</g>
<!-- Node6 -->
<g id="node6" class="node">
<title>Node6</title>
<g id="a_node6"><a xlink:href="../../df/d1f/namespacemake__release.html#a3731d9b7dea87cead7328e3e2f0f20bd" target="_top" xlink:title="make_release.get_branches">
<polygon fill="none" stroke="#000000" points="157.5,-135.5 157.5,-155.5 315.5,-155.5 315.5,-135.5 157.5,-135.5"/>
<text text-anchor="middle" x="236.5" y="-142.5" font-family="FreeSans" font-size="10.00" fill="#000000">make_release.get_branches</text>
</a>
</g>
</g>
<!-- Node1&#45;&gt;Node6 -->
<g id="edge5" class="edge">
<title>Node1&#45;&gt;Node6</title>
<path fill="none" stroke="#191970" d="M119.4241,-160.0518C128.4096,-158.935 137.8353,-157.7634 147.2721,-156.5905"/>
<polygon fill="#191970" stroke="#191970" points="148.0041,-160.0265 157.496,-155.3197 147.1406,-153.08 148.0041,-160.0265"/>
</g>
<!-- Node10 -->
<g id="node10" class="node">
<title>Node10</title>
<g id="a_node10"><a xlink:href="../../d7/d9b/G4RichTrajectory_8cc.html#a496dd09155decc16fd062ec37f55ade8" target="_top" xlink:title="Path">
<polygon fill="none" stroke="#000000" points="217.5,-96.5 217.5,-116.5 255.5,-116.5 255.5,-96.5 217.5,-96.5"/>
<text text-anchor="middle" x="236.5" y="-103.5" font-family="FreeSans" font-size="10.00" fill="#000000">Path</text>
</a>
</g>
</g>
<!-- Node1&#45;&gt;Node10 -->
<g id="edge9" class="edge">
<title>Node1&#45;&gt;Node10</title>
<path fill="none" stroke="#191970" d="M80.3524,-157.3617C99.4439,-148.367 128.6511,-135.322 155,-126.5 172.0619,-120.7874 191.6293,-115.932 207.314,-112.4361"/>
<polygon fill="#191970" stroke="#191970" points="208.4393,-115.7738 217.4737,-110.2394 206.9599,-108.9319 208.4393,-115.7738"/>
</g>
<!-- Node16 -->
<g id="node16" class="node">
<title>Node16</title>
<g id="a_node16"><a xlink:href="../../d6/d72/namespaceutil.html#ac8015eb2508544e525f64f4bd01fd5d8" target="_top" xlink:title="util.Spinner">
<polygon fill="none" stroke="#000000" points="199,-57.5 199,-77.5 274,-77.5 274,-57.5 199,-57.5"/>
<text text-anchor="middle" x="236.5" y="-64.5" font-family="FreeSans" font-size="10.00" fill="#000000">util.Spinner</text>
</a>
</g>
</g>
<!-- Node1&#45;&gt;Node16 -->
<g id="edge17" class="edge">
<title>Node1&#45;&gt;Node16</title>
<path fill="none" stroke="#191970" d="M68.4573,-157.4551C84.227,-140.4078 118.7285,-105.8779 155,-87.5 165.4538,-82.2033 177.3845,-78.2606 188.8319,-75.344"/>
<polygon fill="#191970" stroke="#191970" points="189.7752,-78.7179 198.7181,-73.0367 188.1843,-71.9011 189.7752,-78.7179"/>
</g>
<!-- Node17 -->
<g id="node17" class="node">
<title>Node17</title>
<g id="a_node17"><a xlink:href="../../df/d1f/namespacemake__release.html#ac223dbf131aeff704432dfc0df5b196f" target="_top" xlink:title="make_release.split\l_version">
<polygon fill="none" stroke="#000000" points="181,-6.5 181,-38.5 292,-38.5 292,-6.5 181,-6.5"/>
<text text-anchor="start" x="189" y="-25.5" font-family="FreeSans" font-size="10.00" fill="#000000">make_release.split</text>
<text text-anchor="middle" x="236.5" y="-13.5" font-family="FreeSans" font-size="10.00" fill="#000000">_version</text>
</a>
</g>
</g>
<!-- Node1&#45;&gt;Node17 -->
<g id="edge18" class="edge">
<title>Node1&#45;&gt;Node17</title>
<path fill="none" stroke="#191970" d="M64.7059,-157.4361C77.1235,-134.4251 110.7735,-77.635 155,-47.5 160.1369,-43.9998 165.7819,-40.9752 171.6301,-38.3644"/>
<polygon fill="#191970" stroke="#191970" points="172.9881,-41.5906 180.9435,-34.5933 170.3609,-35.1023 172.9881,-41.5906"/>
</g>
<!-- Node2&#45;&gt;Node3 -->
<g id="edge2" class="edge">
<title>Node2&#45;&gt;Node3</title>
<path fill="none" stroke="#191970" d="M299.602,-309.7686C337.4065,-303.9385 383.7638,-296.7894 413.5836,-292.1907"/>
<polygon fill="#191970" stroke="#191970" points="414.4254,-295.6024 423.7751,-290.619 413.3584,-288.6841 414.4254,-295.6024"/>
</g>
<!-- Node7 -->
<g id="node7" class="node">
<title>Node7</title>
<g id="a_node7"><a xlink:href="../../de/d31/HadrontherapyRBE_8cc.html#a113a28e3ab6abd3cfa7b104f88f37396" target="_top" xlink:title="Split string into parts using a delimiter.">
<polygon fill="none" stroke="#000000" points="425,-219.5 425,-239.5 463,-239.5 463,-219.5 425,-219.5"/>
<text text-anchor="middle" x="444" y="-226.5" font-family="FreeSans" font-size="10.00" fill="#000000">split</text>
</a>
</g>
</g>
<!-- Node6&#45;&gt;Node7 -->
<g id="edge6" class="edge">
<title>Node6&#45;&gt;Node7</title>
<path fill="none" stroke="#191970" d="M297.1146,-155.5915C304.4613,-158.176 311.6151,-161.4223 318,-165.5 339.586,-179.2857 332.1923,-197.0678 354,-210.5 372.2711,-221.7539 396.1582,-226.4283 414.7314,-228.3297"/>
<polygon fill="#191970" stroke="#191970" points="414.4504,-231.8183 424.7015,-229.1414 415.0185,-224.8414 414.4504,-231.8183"/>
</g>
<!-- Node8 -->
<g id="node8" class="node">
<title>Node8</title>
<g id="a_node8"><a xlink:href="../../dc/de5/PHG4mRICHDetector_8cc.html#a11ded6fc3d3fab0e72612c3886df87a0" target="_top" xlink:title="pos">
<polygon fill="none" stroke="#000000" points="598,-238.5 598,-258.5 632,-258.5 632,-238.5 598,-238.5"/>
<text text-anchor="middle" x="615" y="-245.5" font-family="FreeSans" font-size="10.00" fill="#000000">pos</text>
</a>
</g>
</g>
<!-- Node7&#45;&gt;Node8 -->
<g id="edge7" class="edge">
<title>Node7&#45;&gt;Node8</title>
<path fill="none" stroke="#191970" d="M463.2835,-231.6426C493.6797,-235.02 552.8453,-241.5939 587.6296,-245.4588"/>
<polygon fill="#191970" stroke="#191970" points="587.2578,-248.939 597.5832,-246.5648 588.0309,-241.9818 587.2578,-248.939"/>
</g>
<!-- Node9 -->
<g id="node9" class="node">
<title>Node9</title>
<g id="a_node9"><a xlink:href="../../d5/d72/classG4String.html#aaa5bb42cc474cf37f7ebc42da259f096" target="_top" xlink:title="G4String::strip">
<polygon fill="none" stroke="#000000" points="570,-199.5 570,-219.5 660,-219.5 660,-199.5 570,-199.5"/>
<text text-anchor="middle" x="615" y="-206.5" font-family="FreeSans" font-size="10.00" fill="#000000">G4String::strip</text>
</a>
</g>
</g>
<!-- Node7&#45;&gt;Node9 -->
<g id="edge8" class="edge">
<title>Node7&#45;&gt;Node9</title>
<path fill="none" stroke="#191970" d="M463.2835,-227.2446C486.5556,-224.5227 526.6918,-219.8284 559.8383,-215.9517"/>
<polygon fill="#191970" stroke="#191970" points="560.3486,-219.4159 569.8743,-214.7779 559.5354,-212.4633 560.3486,-219.4159"/>
</g>
<!-- Node11 -->
<g id="node11" class="node">
<title>Node11</title>
<g id="a_node11"><a xlink:href="../../d9/d81/classG4VTouchable.html#a746181931d89e35b9104a785304ee10c" target="_top" xlink:title="G4VTouchable::GetCopyNumber">
<polygon fill="none" stroke="#000000" points="354,-180.5 354,-200.5 534,-200.5 534,-180.5 354,-180.5"/>
<text text-anchor="middle" x="444" y="-187.5" font-family="FreeSans" font-size="10.00" fill="#000000">G4VTouchable::GetCopyNumber</text>
</a>
</g>
</g>
<!-- Node10&#45;&gt;Node11 -->
<g id="edge10" class="edge">
<title>Node10&#45;&gt;Node11</title>
<path fill="none" stroke="#191970" d="M255.6604,-107.7071C273.1053,-109.5774 298.968,-114.3454 318,-126.5 339.586,-140.2857 332.1923,-158.0678 354,-171.5 357.0147,-173.3569 360.1824,-175.0346 363.4538,-176.5504"/>
<polygon fill="#191970" stroke="#191970" points="362.3261,-179.8703 372.9073,-180.4072 364.9704,-173.389 362.3261,-179.8703"/>
</g>
<!-- Node12 -->
<g id="node12" class="node">
<title>Node12</title>
<g id="a_node12"><a xlink:href="../../d9/d81/classG4VTouchable.html#a6796ff76d916916c8dc39011eab6e7e6" target="_top" xlink:title="G4VTouchable::GetHistory\lDepth">
<polygon fill="none" stroke="#000000" points="369.5,-129.5 369.5,-161.5 518.5,-161.5 518.5,-129.5 369.5,-129.5"/>
<text text-anchor="start" x="377.5" y="-148.5" font-family="FreeSans" font-size="10.00" fill="#000000">G4VTouchable::GetHistory</text>
<text text-anchor="middle" x="444" y="-136.5" font-family="FreeSans" font-size="10.00" fill="#000000">Depth</text>
</a>
</g>
</g>
<!-- Node10&#45;&gt;Node12 -->
<g id="edge11" class="edge">
<title>Node10&#45;&gt;Node12</title>
<path fill="none" stroke="#191970" d="M255.6492,-110.0991C279.2265,-114.5305 320.8398,-122.3518 358.9657,-129.5176"/>
<polygon fill="#191970" stroke="#191970" points="358.6133,-133.0126 369.0877,-131.4201 359.9064,-126.1331 358.6133,-133.0126"/>
</g>
<!-- Node14 -->
<g id="node14" class="node">
<title>Node14</title>
<g id="a_node14"><a xlink:href="../../d1/d28/classG4VPhysicalVolume.html#a58405900b1878b174d4b5630dc449d4d" target="_top" xlink:title="G4VPhysicalVolume::\lGetName">
<polygon fill="none" stroke="#000000" points="382.5,-78.5 382.5,-110.5 505.5,-110.5 505.5,-78.5 382.5,-78.5"/>
<text text-anchor="start" x="390.5" y="-97.5" font-family="FreeSans" font-size="10.00" fill="#000000">G4VPhysicalVolume::</text>
<text text-anchor="middle" x="444" y="-85.5" font-family="FreeSans" font-size="10.00" fill="#000000">GetName</text>
</a>
</g>
</g>
<!-- Node10&#45;&gt;Node14 -->
<g id="edge13" class="edge">
<title>Node10&#45;&gt;Node14</title>
<path fill="none" stroke="#191970" d="M255.6492,-105.3926C281.9722,-103.8703 330.7766,-101.0479 372.1098,-98.6575"/>
<polygon fill="#191970" stroke="#191970" points="372.3834,-102.1476 382.1646,-98.076 371.9792,-95.1593 372.3834,-102.1476"/>
</g>
<!-- Node15 -->
<g id="node15" class="node">
<title>Node15</title>
<g id="a_node15"><a xlink:href="../../d9/d81/classG4VTouchable.html#a50a059f59cf5a4c974ab560b64f9251d" target="_top" xlink:title="G4VTouchable::GetVolume">
<polygon fill="none" stroke="#000000" points="368.5,-39.5 368.5,-59.5 519.5,-59.5 519.5,-39.5 368.5,-39.5"/>
<text text-anchor="middle" x="444" y="-46.5" font-family="FreeSans" font-size="10.00" fill="#000000">G4VTouchable::GetVolume</text>
</a>
</g>
</g>
<!-- Node10&#45;&gt;Node15 -->
<g id="edge14" class="edge">
<title>Node10&#45;&gt;Node15</title>
<path fill="none" stroke="#191970" d="M255.6386,-103.3522C272.3905,-100.2892 297.2277,-94.9965 318,-87.5 334.8263,-81.4276 337.1424,-75.4851 354,-69.5 361.9142,-66.6901 370.3649,-64.1919 378.7998,-61.9957"/>
<polygon fill="#191970" stroke="#191970" points="379.7946,-65.3551 388.6612,-59.5555 378.1132,-58.5601 379.7946,-65.3551"/>
</g>
<!-- Node13 -->
<g id="node13" class="node">
<title>Node13</title>
<g id="a_node13"><a xlink:href="../../d5/d4f/G4Exception_8hh.html#ad36b5da5d062a20ca47b1c1f1ae353dd" target="_top" xlink:title="G4Exception">
<polygon fill="none" stroke="#000000" points="575,-87.5 575,-107.5 655,-107.5 655,-87.5 575,-87.5"/>
<text text-anchor="middle" x="615" y="-94.5" font-family="FreeSans" font-size="10.00" fill="#000000">G4Exception</text>
</a>
</g>
</g>
<!-- Node12&#45;&gt;Node13 -->
<g id="edge12" class="edge">
<title>Node12&#45;&gt;Node13</title>
<path fill="none" stroke="#191970" d="M502.1103,-129.4108C512.7226,-126.4576 523.6957,-123.3941 534,-120.5 545.7649,-117.1957 558.4832,-113.5969 570.2778,-110.2483"/>
<polygon fill="#191970" stroke="#191970" points="571.2645,-113.6066 579.9268,-107.5063 569.3509,-106.8732 571.2645,-113.6066"/>
</g>
<!-- Node15&#45;&gt;Node13 -->
<g id="edge15" class="edge">
<title>Node15&#45;&gt;Node13</title>
<path fill="none" stroke="#191970" d="M494.2393,-59.6007C507.2621,-62.509 521.2168,-65.883 534,-69.5 548.7464,-73.6725 564.7389,-79.0201 578.5876,-83.9218"/>
<polygon fill="#191970" stroke="#191970" points="577.6497,-87.3038 588.2442,-87.389 580.0152,-80.7156 577.6497,-87.3038"/>
</g>
<!-- Node18 -->
<g id="node18" class="node">
<title>Node18</title>
<g id="a_node18"><a xlink:href="../../d9/d04/expat_8h.html#a14bb8924daea0b48c7803f281f66e390" target="_top" xlink:title="int">
<polygon fill="none" stroke="#000000" points="429,-.5 429,-20.5 459,-20.5 459,-.5 429,-.5"/>
<text text-anchor="middle" x="444" y="-7.5" font-family="FreeSans" font-size="10.00" fill="#000000">int</text>
</a>
</g>
</g>
<!-- Node17&#45;&gt;Node18 -->
<g id="edge19" class="edge">
<title>Node17&#45;&gt;Node18</title>
<path fill="none" stroke="#191970" d="M292.1062,-19.2842C333.3423,-16.8995 387.616,-13.7608 418.873,-11.9531"/>
<polygon fill="#191970" stroke="#191970" points="419.1288,-15.4443 428.91,-11.3727 418.7245,-8.456 419.1288,-15.4443"/>
</g>
</g>
</svg>
