<?xml version="1.0" encoding="UTF-8" standalone="no"?>
<!DOCTYPE svg PUBLIC "-//W3C//DTD SVG 1.1//EN"
 "http://www.w3.org/Graphics/SVG/1.1/DTD/svg11.dtd">
<!-- Generated by graphviz version 2.40.1 (20161225.0304)
 -->
<!-- Title: geant4/tree/geant4&#45;10.6&#45;release/examples/advanced/hadrontherapy/include/HadrontherapySteppingAction.hh Pages: 1 -->
<svg width="1004pt" height="158pt"
 viewBox="0.00 0.00 1003.50 158.00" xmlns="http://www.w3.org/2000/svg" xmlns:xlink="http://www.w3.org/1999/xlink">
<g id="graph0" class="graph" transform="scale(1 1) rotate(0) translate(4 154)">
<title>geant4/tree/geant4&#45;10.6&#45;release/examples/advanced/hadrontherapy/include/HadrontherapySteppingAction.hh</title>
<!-- Node1 -->
<g id="node1" class="node">
<title>Node1</title>
<polygon fill="#bfbfbf" stroke="#000000" points="384.5,-93.5 384.5,-149.5 614.5,-149.5 614.5,-93.5 384.5,-93.5"/>
<text text-anchor="start" x="392.5" y="-136.5" font-family="FreeSans" font-size="10.00" fill="#000000">geant4/tree/geant4</text>
<text text-anchor="start" x="392.5" y="-124.5" font-family="FreeSans" font-size="10.00" fill="#000000">&#45;10.6&#45;release/examples</text>
<text text-anchor="start" x="392.5" y="-112.5" font-family="FreeSans" font-size="10.00" fill="#000000">/advanced/hadrontherapy</text>
<text text-anchor="middle" x="499.5" y="-100.5" font-family="FreeSans" font-size="10.00" fill="#000000">/include/HadrontherapySteppingAction.hh</text>
</g>
<!-- Node2 -->
<g id="node2" class="node">
<title>Node2</title>
<g id="a_node2"><a xlink:href="../../dd/d22/hadrontherapy_8cc.html" target="_top" xlink:title="geant4/tree/geant4\l&#45;10.6&#45;release/examples\l/advanced/hadrontherapy\l/hadrontherapy.cc">
<polygon fill="none" stroke="#000000" points="0,-.5 0,-56.5 149,-56.5 149,-.5 0,-.5"/>
<text text-anchor="start" x="8" y="-43.5" font-family="FreeSans" font-size="10.00" fill="#000000">geant4/tree/geant4</text>
<text text-anchor="start" x="8" y="-31.5" font-family="FreeSans" font-size="10.00" fill="#000000">&#45;10.6&#45;release/examples</text>
<text text-anchor="start" x="8" y="-19.5" font-family="FreeSans" font-size="10.00" fill="#000000">/advanced/hadrontherapy</text>
<text text-anchor="middle" x="74.5" y="-7.5" font-family="FreeSans" font-size="10.00" fill="#000000">/hadrontherapy.cc</text>
</a>
</g>
</g>
<!-- Node1&#45;&gt;Node2 -->
<g id="edge1" class="edge">
<title>Node1&#45;&gt;Node2</title>
<path fill="none" stroke="#191970" d="M374.2775,-102.3444C309.1288,-91.2576 228.4788,-75.7742 157.5,-57 154.7015,-56.2598 151.8612,-55.4724 149.0007,-54.6491"/>
<polygon fill="#191970" stroke="#191970" points="373.7416,-105.8034 384.1847,-104.0169 374.9069,-98.9011 373.7416,-105.8034"/>
</g>
<!-- Node3 -->
<g id="node3" class="node">
<title>Node3</title>
<g id="a_node3"><a xlink:href="../../d4/d09/HadrontherapyActionInitialization_8cc.html" target="_top" xlink:title="geant4/tree/geant4\l&#45;10.6&#45;release/examples\l/advanced/hadrontherapy\l/src/HadrontherapyActionInitialization.cc">
<polygon fill="none" stroke="#000000" points="166.5,-.5 166.5,-56.5 388.5,-56.5 388.5,-.5 166.5,-.5"/>
<text text-anchor="start" x="174.5" y="-43.5" font-family="FreeSans" font-size="10.00" fill="#000000">geant4/tree/geant4</text>
<text text-anchor="start" x="174.5" y="-31.5" font-family="FreeSans" font-size="10.00" fill="#000000">&#45;10.6&#45;release/examples</text>
<text text-anchor="start" x="174.5" y="-19.5" font-family="FreeSans" font-size="10.00" fill="#000000">/advanced/hadrontherapy</text>
<text text-anchor="middle" x="277.5" y="-7.5" font-family="FreeSans" font-size="10.00" fill="#000000">/src/HadrontherapyActionInitialization.cc</text>
</a>
</g>
</g>
<!-- Node1&#45;&gt;Node3 -->
<g id="edge2" class="edge">
<title>Node1&#45;&gt;Node3</title>
<path fill="none" stroke="#191970" d="M423.3124,-89.5836C397.7582,-78.8784 369.4652,-67.0259 344.6544,-56.6323"/>
<polygon fill="#191970" stroke="#191970" points="422.0159,-92.8351 432.5916,-93.4708 424.7206,-86.3787 422.0159,-92.8351"/>
</g>
<!-- Node4 -->
<g id="node4" class="node">
<title>Node4</title>
<g id="a_node4"><a xlink:href="../../d9/d90/HadrontherapyDetectorSD_8cc.html" target="_top" xlink:title="geant4/tree/geant4\l&#45;10.6&#45;release/examples\l/advanced/hadrontherapy\l/src/HadrontherapyDetectorSD.cc">
<polygon fill="none" stroke="#000000" points="406,-.5 406,-56.5 593,-56.5 593,-.5 406,-.5"/>
<text text-anchor="start" x="414" y="-43.5" font-family="FreeSans" font-size="10.00" fill="#000000">geant4/tree/geant4</text>
<text text-anchor="start" x="414" y="-31.5" font-family="FreeSans" font-size="10.00" fill="#000000">&#45;10.6&#45;release/examples</text>
<text text-anchor="start" x="414" y="-19.5" font-family="FreeSans" font-size="10.00" fill="#000000">/advanced/hadrontherapy</text>
<text text-anchor="middle" x="499.5" y="-7.5" font-family="FreeSans" font-size="10.00" fill="#000000">/src/HadrontherapyDetectorSD.cc</text>
</a>
</g>
</g>
<!-- Node1&#45;&gt;Node4 -->
<g id="edge3" class="edge">
<title>Node1&#45;&gt;Node4</title>
<path fill="none" stroke="#191970" d="M499.5,-83.1582C499.5,-74.2499 499.5,-64.9293 499.5,-56.5597"/>
<polygon fill="#191970" stroke="#191970" points="496.0001,-83.3445 499.5,-93.3446 503.0001,-83.3446 496.0001,-83.3445"/>
</g>
<!-- Node5 -->
<g id="node5" class="node">
<title>Node5</title>
<g id="a_node5"><a xlink:href="../../d7/d66/HadrontherapyMatrix_8cc.html" target="_top" xlink:title="geant4/tree/geant4\l&#45;10.6&#45;release/examples\l/advanced/hadrontherapy\l/src/HadrontherapyMatrix.cc">
<polygon fill="none" stroke="#000000" points="611.5,-.5 611.5,-56.5 771.5,-56.5 771.5,-.5 611.5,-.5"/>
<text text-anchor="start" x="619.5" y="-43.5" font-family="FreeSans" font-size="10.00" fill="#000000">geant4/tree/geant4</text>
<text text-anchor="start" x="619.5" y="-31.5" font-family="FreeSans" font-size="10.00" fill="#000000">&#45;10.6&#45;release/examples</text>
<text text-anchor="start" x="619.5" y="-19.5" font-family="FreeSans" font-size="10.00" fill="#000000">/advanced/hadrontherapy</text>
<text text-anchor="middle" x="691.5" y="-7.5" font-family="FreeSans" font-size="10.00" fill="#000000">/src/HadrontherapyMatrix.cc</text>
</a>
</g>
</g>
<!-- Node1&#45;&gt;Node5 -->
<g id="edge4" class="edge">
<title>Node1&#45;&gt;Node5</title>
<path fill="none" stroke="#191970" d="M566.5574,-89.0191C588.3506,-78.463 612.339,-66.8436 633.4205,-56.6323"/>
<polygon fill="#191970" stroke="#191970" points="564.8408,-85.9615 557.3667,-93.4708 567.8923,-92.2614 564.8408,-85.9615"/>
</g>
<!-- Node6 -->
<g id="node6" class="node">
<title>Node6</title>
<g id="a_node6"><a xlink:href="../../d6/d4e/HadrontherapySteppingAction_8cc.html" target="_top" xlink:title="geant4/tree/geant4\l&#45;10.6&#45;release/examples\l/advanced/hadrontherapy\l/src/HadrontherapySteppingAction.cc">
<polygon fill="none" stroke="#000000" points="789.5,-.5 789.5,-56.5 995.5,-56.5 995.5,-.5 789.5,-.5"/>
<text text-anchor="start" x="797.5" y="-43.5" font-family="FreeSans" font-size="10.00" fill="#000000">geant4/tree/geant4</text>
<text text-anchor="start" x="797.5" y="-31.5" font-family="FreeSans" font-size="10.00" fill="#000000">&#45;10.6&#45;release/examples</text>
<text text-anchor="start" x="797.5" y="-19.5" font-family="FreeSans" font-size="10.00" fill="#000000">/advanced/hadrontherapy</text>
<text text-anchor="middle" x="892.5" y="-7.5" font-family="FreeSans" font-size="10.00" fill="#000000">/src/HadrontherapySteppingAction.cc</text>
</a>
</g>
</g>
<!-- Node1&#45;&gt;Node6 -->
<g id="edge5" class="edge">
<title>Node1&#45;&gt;Node6</title>
<path fill="none" stroke="#191970" d="M624.7767,-93.408C673.4537,-82.319 729.6382,-69.3068 780.5,-57 783.4252,-56.2922 786.3921,-55.5695 789.3858,-54.8361"/>
<polygon fill="#191970" stroke="#191970" points="623.8016,-90.0404 614.8272,-95.6717 625.3545,-96.8659 623.8016,-90.0404"/>
</g>
</g>
</svg>
