<?xml version="1.0" encoding="UTF-8" standalone="no"?>
<!DOCTYPE svg PUBLIC "-//W3C//DTD SVG 1.1//EN"
 "http://www.w3.org/Graphics/SVG/1.1/DTD/svg11.dtd">
<!-- Generated by graphviz version 2.40.1 (20161225.0304)
 -->
<!-- Title: G4H2::Definition Pages: 1 -->
<svg width="547pt" height="245pt"
 viewBox="0.00 0.00 547.00 245.00" xmlns="http://www.w3.org/2000/svg" xmlns:xlink="http://www.w3.org/1999/xlink">
<g id="graph0" class="graph" transform="scale(1 1) rotate(0) translate(4 241)">
<title>G4H2::Definition</title>
<!-- Node1 -->
<g id="node1" class="node">
<title>Node1</title>
<polygon fill="#bfbfbf" stroke="#000000" points="0,-108.5 0,-128.5 100,-128.5 100,-108.5 0,-108.5"/>
<text text-anchor="middle" x="50" y="-115.5" font-family="FreeSans" font-size="10.00" fill="#000000">G4H2::Definition</text>
</g>
<!-- Node2 -->
<g id="node2" class="node">
<title>Node2</title>
<g id="a_node2"><a xlink:href="../../d3/df8/classG4EmDNAChemistry.html#a11cbed258e89c1dabb0db9d0dbb1e638" target="_top" xlink:title="G4EmDNAChemistry::Construct\lMolecule">
<polygon fill="none" stroke="#000000" points="143.5,-204.5 143.5,-236.5 319.5,-236.5 319.5,-204.5 143.5,-204.5"/>
<text text-anchor="start" x="151.5" y="-223.5" font-family="FreeSans" font-size="10.00" fill="#000000">G4EmDNAChemistry::Construct</text>
<text text-anchor="middle" x="231.5" y="-211.5" font-family="FreeSans" font-size="10.00" fill="#000000">Molecule</text>
</a>
</g>
</g>
<!-- Node1&#45;&gt;Node2 -->
<g id="edge1" class="edge">
<title>Node1&#45;&gt;Node2</title>
<path fill="none" stroke="#191970" d="M65.342,-136.511C81.2747,-154.0887 107.7831,-180.3355 136,-195.5 142.3405,-198.9076 149.1711,-201.8699 156.1603,-204.4415"/>
<polygon fill="#191970" stroke="#191970" points="67.6533,-133.841 58.4089,-128.6649 62.4078,-138.4761 67.6533,-133.841"/>
</g>
<!-- Node4 -->
<g id="node4" class="node">
<title>Node4</title>
<g id="a_node4"><a xlink:href="../../d6/d81/classG4EmDNAChemistry__option1.html#ae4e5d1e518a82ab7ef5e75571f77e36f" target="_top" xlink:title="G4EmDNAChemistry_option1\l::ConstructMolecule">
<polygon fill="none" stroke="#000000" points="149.5,-153.5 149.5,-185.5 313.5,-185.5 313.5,-153.5 149.5,-153.5"/>
<text text-anchor="start" x="157.5" y="-172.5" font-family="FreeSans" font-size="10.00" fill="#000000">G4EmDNAChemistry_option1</text>
<text text-anchor="middle" x="231.5" y="-160.5" font-family="FreeSans" font-size="10.00" fill="#000000">::ConstructMolecule</text>
</a>
</g>
</g>
<!-- Node1&#45;&gt;Node4 -->
<g id="edge3" class="edge">
<title>Node1&#45;&gt;Node4</title>
<path fill="none" stroke="#191970" d="M92.0057,-131.5438C105.9702,-135.788 121.6242,-140.4468 136,-144.5 146.6396,-147.4998 157.9802,-150.575 168.9931,-153.4971"/>
<polygon fill="#191970" stroke="#191970" points="92.7647,-128.116 82.1784,-128.5412 90.7193,-134.8105 92.7647,-128.116"/>
</g>
<!-- Node6 -->
<g id="node6" class="node">
<title>Node6</title>
<g id="a_node6"><a xlink:href="../../df/dbe/classG4EmDNAChemistry__option2.html#a718452efe603438139997734b355f6b8" target="_top" xlink:title="G4EmDNAChemistry_option2\l::ConstructMolecule">
<polygon fill="none" stroke="#000000" points="149.5,-102.5 149.5,-134.5 313.5,-134.5 313.5,-102.5 149.5,-102.5"/>
<text text-anchor="start" x="157.5" y="-121.5" font-family="FreeSans" font-size="10.00" fill="#000000">G4EmDNAChemistry_option2</text>
<text text-anchor="middle" x="231.5" y="-109.5" font-family="FreeSans" font-size="10.00" fill="#000000">::ConstructMolecule</text>
</a>
</g>
</g>
<!-- Node1&#45;&gt;Node6 -->
<g id="edge5" class="edge">
<title>Node1&#45;&gt;Node6</title>
<path fill="none" stroke="#191970" d="M110.3125,-118.5C122.7699,-118.5 136.0926,-118.5 149.1795,-118.5"/>
<polygon fill="#191970" stroke="#191970" points="110.0762,-115.0001 100.0761,-118.5 110.0761,-122.0001 110.0762,-115.0001"/>
</g>
<!-- Node8 -->
<g id="node8" class="node">
<title>Node8</title>
<g id="a_node8"><a xlink:href="../../df/dbe/classG4EmDNAChemistry__option2.html#a9a2cd3ed9f060d93ad240dc4027e4c66" target="_top" xlink:title="G4EmDNAChemistry_option2\l::ConstructReactionTable">
<polygon fill="none" stroke="#000000" points="149.5,-51.5 149.5,-83.5 313.5,-83.5 313.5,-51.5 149.5,-51.5"/>
<text text-anchor="start" x="157.5" y="-70.5" font-family="FreeSans" font-size="10.00" fill="#000000">G4EmDNAChemistry_option2</text>
<text text-anchor="middle" x="231.5" y="-58.5" font-family="FreeSans" font-size="10.00" fill="#000000">::ConstructReactionTable</text>
</a>
</g>
</g>
<!-- Node1&#45;&gt;Node8 -->
<g id="edge7" class="edge">
<title>Node1&#45;&gt;Node8</title>
<path fill="none" stroke="#191970" d="M94.2202,-105.4883C107.6269,-101.5858 122.4033,-97.3268 136,-93.5 147.6612,-90.2179 160.1423,-86.7717 172.1074,-83.5007"/>
<polygon fill="#191970" stroke="#191970" points="92.8963,-102.2286 84.2773,-108.3901 94.8574,-108.9483 92.8963,-102.2286"/>
</g>
<!-- Node9 -->
<g id="node9" class="node">
<title>Node9</title>
<g id="a_node9"><a xlink:href="../../d8/dcc/classG4DNAWaterDissociationDisplacer.html#a53172326e9f28ecef02232e86747d667" target="_top" xlink:title="G4DNAWaterDissociationDisplacer\l::GetProductsDisplacement">
<polygon fill="none" stroke="#000000" points="136,-.5 136,-32.5 327,-32.5 327,-.5 136,-.5"/>
<text text-anchor="start" x="144" y="-19.5" font-family="FreeSans" font-size="10.00" fill="#000000">G4DNAWaterDissociationDisplacer</text>
<text text-anchor="middle" x="231.5" y="-7.5" font-family="FreeSans" font-size="10.00" fill="#000000">::GetProductsDisplacement</text>
</a>
</g>
</g>
<!-- Node1&#45;&gt;Node9 -->
<g id="edge8" class="edge">
<title>Node1&#45;&gt;Node9</title>
<path fill="none" stroke="#191970" d="M65.6801,-100.509C81.7009,-83.2126 108.121,-57.5419 136,-42.5 143.1076,-38.6651 150.8244,-35.362 158.6871,-32.5246"/>
<polygon fill="#191970" stroke="#191970" points="62.798,-98.478 58.6899,-108.244 67.9915,-103.1715 62.798,-98.478"/>
</g>
<!-- Node3 -->
<g id="node3" class="node">
<title>Node3</title>
<g id="a_node3"><a xlink:href="../../d3/df8/classG4EmDNAChemistry.html#aa4fcc6170e369f7dace979a1650af427" target="_top" xlink:title="G4EmDNAChemistry::Construct\lParticle">
<polygon fill="none" stroke="#000000" points="363,-204.5 363,-236.5 539,-236.5 539,-204.5 363,-204.5"/>
<text text-anchor="start" x="371" y="-223.5" font-family="FreeSans" font-size="10.00" fill="#000000">G4EmDNAChemistry::Construct</text>
<text text-anchor="middle" x="451" y="-211.5" font-family="FreeSans" font-size="10.00" fill="#000000">Particle</text>
</a>
</g>
</g>
<!-- Node2&#45;&gt;Node3 -->
<g id="edge2" class="edge">
<title>Node2&#45;&gt;Node3</title>
<path fill="none" stroke="#191970" d="M329.6492,-220.5C340.7484,-220.5 352.0076,-220.5 362.966,-220.5"/>
<polygon fill="#191970" stroke="#191970" points="329.5143,-217.0001 319.5143,-220.5 329.5143,-224.0001 329.5143,-217.0001"/>
</g>
<!-- Node5 -->
<g id="node5" class="node">
<title>Node5</title>
<g id="a_node5"><a xlink:href="../../d6/d81/classG4EmDNAChemistry__option1.html#a4ea31c3610f9173e7f3825a8a0954fa6" target="_top" xlink:title="G4EmDNAChemistry_option1\l::ConstructParticle">
<polygon fill="none" stroke="#000000" points="369,-153.5 369,-185.5 533,-185.5 533,-153.5 369,-153.5"/>
<text text-anchor="start" x="377" y="-172.5" font-family="FreeSans" font-size="10.00" fill="#000000">G4EmDNAChemistry_option1</text>
<text text-anchor="middle" x="451" y="-160.5" font-family="FreeSans" font-size="10.00" fill="#000000">::ConstructParticle</text>
</a>
</g>
</g>
<!-- Node4&#45;&gt;Node5 -->
<g id="edge4" class="edge">
<title>Node4&#45;&gt;Node5</title>
<path fill="none" stroke="#191970" d="M323.7816,-169.5C338.6886,-169.5 354.037,-169.5 368.6882,-169.5"/>
<polygon fill="#191970" stroke="#191970" points="323.5459,-166.0001 313.5458,-169.5 323.5458,-173.0001 323.5459,-166.0001"/>
</g>
<!-- Node7 -->
<g id="node7" class="node">
<title>Node7</title>
<g id="a_node7"><a xlink:href="../../df/dbe/classG4EmDNAChemistry__option2.html#a60d12b90b24c897ff45b3af722a2f612" target="_top" xlink:title="G4EmDNAChemistry_option2\l::ConstructParticle">
<polygon fill="none" stroke="#000000" points="369,-102.5 369,-134.5 533,-134.5 533,-102.5 369,-102.5"/>
<text text-anchor="start" x="377" y="-121.5" font-family="FreeSans" font-size="10.00" fill="#000000">G4EmDNAChemistry_option2</text>
<text text-anchor="middle" x="451" y="-109.5" font-family="FreeSans" font-size="10.00" fill="#000000">::ConstructParticle</text>
</a>
</g>
</g>
<!-- Node6&#45;&gt;Node7 -->
<g id="edge6" class="edge">
<title>Node6&#45;&gt;Node7</title>
<path fill="none" stroke="#191970" d="M323.7816,-118.5C338.6886,-118.5 354.037,-118.5 368.6882,-118.5"/>
<polygon fill="#191970" stroke="#191970" points="323.5459,-115.0001 313.5458,-118.5 323.5458,-122.0001 323.5459,-115.0001"/>
</g>
</g>
</svg>
