<?xml version="1.0" encoding="UTF-8" standalone="no"?>
<!DOCTYPE svg PUBLIC "-//W3C//DTD SVG 1.1//EN"
 "http://www.w3.org/Graphics/SVG/1.1/DTD/svg11.dtd">
<!-- Generated by graphviz version 2.40.1 (20161225.0304)
 -->
<!-- Title: G4VPartonStringModel Pages: 1 -->
<svg width="743pt" height="146pt"
 viewBox="0.00 0.00 743.00 146.00" xmlns="http://www.w3.org/2000/svg" xmlns:xlink="http://www.w3.org/1999/xlink">
<g id="graph0" class="graph" transform="scale(1 1) rotate(0) translate(4 142)">
<title>G4VPartonStringModel</title>
<!-- Node1 -->
<g id="node1" class="node">
<title>Node1</title>
<polygon fill="#bfbfbf" stroke="#000000" points="350,-58.5 350,-78.5 480,-78.5 480,-58.5 350,-58.5"/>
<text text-anchor="middle" x="415" y="-65.5" font-family="FreeSans" font-size="10.00" fill="#000000">G4VPartonStringModel</text>
</g>
<!-- Node4 -->
<g id="node4" class="node">
<title>Node4</title>
<g id="a_node4"><a xlink:href="../../dd/dbb/classG4FTFModel.html" target="_top" xlink:title="G4FTFModel">
<polygon fill="none" stroke="#000000" points="586.5,-117.5 586.5,-137.5 664.5,-137.5 664.5,-117.5 586.5,-117.5"/>
<text text-anchor="middle" x="625.5" y="-124.5" font-family="FreeSans" font-size="10.00" fill="#000000">G4FTFModel</text>
</a>
</g>
</g>
<!-- Node1&#45;&gt;Node4 -->
<g id="edge3" class="edge">
<title>Node1&#45;&gt;Node4</title>
<path fill="none" stroke="#191970" d="M446.0001,-82.6984C465.6964,-91.2347 491.9283,-101.7226 516,-108.5 538.9369,-114.9579 565.2273,-119.6068 586.2975,-122.6892"/>
<polygon fill="#191970" stroke="#191970" points="447.1812,-79.3942 436.6187,-78.5662 444.3594,-85.8003 447.1812,-79.3942"/>
</g>
<!-- Node5 -->
<g id="node5" class="node">
<title>Node5</title>
<g id="a_node5"><a xlink:href="../../df/d4a/classG4QGSModel.html" target="_top" xlink:title="G4QGSModel\&lt; ParticipantType \&gt;">
<polygon fill="none" stroke="#000000" points="534,-78.5 534,-98.5 717,-98.5 717,-78.5 534,-78.5"/>
<text text-anchor="middle" x="625.5" y="-85.5" font-family="FreeSans" font-size="10.00" fill="#000000">G4QGSModel&lt; ParticipantType &gt;</text>
</a>
</g>
</g>
<!-- Node1&#45;&gt;Node5 -->
<g id="edge4" class="edge">
<title>Node1&#45;&gt;Node5</title>
<path fill="none" stroke="#191970" d="M490.3095,-75.6553C504.4591,-76.9997 519.3962,-78.4189 533.9759,-79.8041"/>
<polygon fill="#191970" stroke="#191970" points="490.4482,-72.1528 480.1619,-74.6912 489.786,-79.1214 490.4482,-72.1528"/>
</g>
<!-- Node6 -->
<g id="node6" class="node">
<title>Node6</title>
<g id="a_node6"><a xlink:href="../../df/d4a/classG4QGSModel.html" target="_top" xlink:title="G4QGSModel\&lt; G4GammaParticipants \&gt;">
<polygon fill="none" stroke="#000000" points="516,-39.5 516,-59.5 735,-59.5 735,-39.5 516,-39.5"/>
<text text-anchor="middle" x="625.5" y="-46.5" font-family="FreeSans" font-size="10.00" fill="#000000">G4QGSModel&lt; G4GammaParticipants &gt;</text>
</a>
</g>
</g>
<!-- Node1&#45;&gt;Node6 -->
<g id="edge5" class="edge">
<title>Node1&#45;&gt;Node6</title>
<path fill="none" stroke="#191970" d="M490.1722,-61.7149C498.5032,-60.9629 507.1088,-60.1861 515.7549,-59.4057"/>
<polygon fill="#191970" stroke="#191970" points="489.8068,-58.2335 480.1619,-62.6184 490.4361,-65.2052 489.8068,-58.2335"/>
</g>
<!-- Node7 -->
<g id="node7" class="node">
<title>Node7</title>
<g id="a_node7"><a xlink:href="../../df/d4a/classG4QGSModel.html" target="_top" xlink:title="G4QGSModel\&lt; G4QGSParticipants \&gt;">
<polygon fill="none" stroke="#000000" points="524.5,-.5 524.5,-20.5 726.5,-20.5 726.5,-.5 524.5,-.5"/>
<text text-anchor="middle" x="625.5" y="-7.5" font-family="FreeSans" font-size="10.00" fill="#000000">G4QGSModel&lt; G4QGSParticipants &gt;</text>
</a>
</g>
</g>
<!-- Node1&#45;&gt;Node7 -->
<g id="edge6" class="edge">
<title>Node1&#45;&gt;Node7</title>
<path fill="none" stroke="#191970" d="M446.8026,-54.3643C466.4231,-46.1125 492.2901,-36.0658 516,-29.5 528.6444,-25.9985 542.2974,-23.0166 555.531,-20.5253"/>
<polygon fill="#191970" stroke="#191970" points="445.2538,-51.2198 437.4333,-58.3676 448.0043,-57.6569 445.2538,-51.2198"/>
</g>
<!-- Node2 -->
<g id="node2" class="node">
<title>Node2</title>
<g id="a_node2"><a xlink:href="../../d0/d72/classG4VHighEnergyGenerator.html" target="_top" xlink:title="G4VHighEnergyGenerator">
<polygon fill="none" stroke="#000000" points="166,-58.5 166,-78.5 314,-78.5 314,-58.5 166,-58.5"/>
<text text-anchor="middle" x="240" y="-65.5" font-family="FreeSans" font-size="10.00" fill="#000000">G4VHighEnergyGenerator</text>
</a>
</g>
</g>
<!-- Node2&#45;&gt;Node1 -->
<g id="edge1" class="edge">
<title>Node2&#45;&gt;Node1</title>
<path fill="none" stroke="#191970" d="M324.2569,-68.5C332.8438,-68.5 341.4723,-68.5 349.8112,-68.5"/>
<polygon fill="#191970" stroke="#191970" points="324.2158,-65.0001 314.2158,-68.5 324.2157,-72.0001 324.2158,-65.0001"/>
</g>
<!-- Node3 -->
<g id="node3" class="node">
<title>Node3</title>
<g id="a_node3"><a xlink:href="../../db/d92/classG4HadronicInteraction.html" target="_top" xlink:title="G4HadronicInteraction">
<polygon fill="none" stroke="#000000" points="0,-58.5 0,-78.5 130,-78.5 130,-58.5 0,-58.5"/>
<text text-anchor="middle" x="65" y="-65.5" font-family="FreeSans" font-size="10.00" fill="#000000">G4HadronicInteraction</text>
</a>
</g>
</g>
<!-- Node3&#45;&gt;Node2 -->
<g id="edge2" class="edge">
<title>Node3&#45;&gt;Node2</title>
<path fill="none" stroke="#191970" d="M140.3964,-68.5C148.8662,-68.5 157.4902,-68.5 165.9428,-68.5"/>
<polygon fill="#191970" stroke="#191970" points="140.1636,-65.0001 130.1635,-68.5 140.1635,-72.0001 140.1636,-65.0001"/>
</g>
</g>
</svg>
