<?xml version="1.0" encoding="UTF-8" standalone="no"?>
<!DOCTYPE svg PUBLIC "-//W3C//DTD SVG 1.1//EN"
 "http://www.w3.org/Graphics/SVG/1.1/DTD/svg11.dtd">
<!-- Generated by graphviz version 2.40.1 (20161225.0304)
 -->
<!-- Title: G4UIterminal::~G4UIterminal Pages: 1 -->
<svg width="1024pt" height="158pt"
 viewBox="0.00 0.00 1024.00 158.00" xmlns="http://www.w3.org/2000/svg" xmlns:xlink="http://www.w3.org/1999/xlink">
<g id="graph0" class="graph" transform="scale(1 1) rotate(0) translate(4 154)">
<title>G4UIterminal::~G4UIterminal</title>
<!-- Node1 -->
<g id="node1" class="node">
<title>Node1</title>
<polygon fill="#bfbfbf" stroke="#000000" points="0,-67.5 0,-87.5 165,-87.5 165,-67.5 0,-67.5"/>
<text text-anchor="middle" x="82.5" y="-74.5" font-family="FreeSans" font-size="10.00" fill="#000000">G4UIterminal::~G4UIterminal</text>
</g>
<!-- Node2 -->
<g id="node2" class="node">
<title>Node2</title>
<g id="a_node2"><a xlink:href="../../d8/def/classG4UImanager.html#acdbb899618bfca924527db37576291d1" target="_top" xlink:title="G4UImanager::GetUIpointer">
<polygon fill="none" stroke="#000000" points="201,-67.5 201,-87.5 359,-87.5 359,-67.5 201,-67.5"/>
<text text-anchor="middle" x="280" y="-74.5" font-family="FreeSans" font-size="10.00" fill="#000000">G4UImanager::GetUIpointer</text>
</a>
</g>
</g>
<!-- Node1&#45;&gt;Node2 -->
<g id="edge1" class="edge">
<title>Node1&#45;&gt;Node2</title>
<path fill="none" stroke="#191970" d="M165.1134,-77.5C173.6226,-77.5 182.296,-77.5 190.8717,-77.5"/>
<polygon fill="#191970" stroke="#191970" points="190.8783,-81.0001 200.8782,-77.5 190.8782,-74.0001 190.8783,-81.0001"/>
</g>
<!-- Node3 -->
<g id="node3" class="node">
<title>Node3</title>
<g id="a_node3"><a xlink:href="../../d8/def/classG4UImanager.html#a3e92dbf1941e2e850e9090060fd429d3" target="_top" xlink:title="G4UImanager::CreateMessenger">
<polygon fill="none" stroke="#000000" points="395,-129.5 395,-149.5 577,-149.5 577,-129.5 395,-129.5"/>
<text text-anchor="middle" x="486" y="-136.5" font-family="FreeSans" font-size="10.00" fill="#000000">G4UImanager::CreateMessenger</text>
</a>
</g>
</g>
<!-- Node2&#45;&gt;Node3 -->
<g id="edge2" class="edge">
<title>Node2&#45;&gt;Node3</title>
<path fill="none" stroke="#191970" d="M303.8714,-87.6428C326.8849,-97.1288 362.8552,-111.193 395,-120.5 403.4477,-122.9459 412.4222,-125.2114 421.3165,-127.2625"/>
<polygon fill="#191970" stroke="#191970" points="420.7701,-130.7265 431.2919,-129.4853 422.2926,-123.8941 420.7701,-130.7265"/>
</g>
<!-- Node4 -->
<g id="node4" class="node">
<title>Node4</title>
<g id="a_node4"><a xlink:href="../../d8/def/classG4UImanager.html#aaf9882646bb6ec655c5c8becffe98772" target="_top" xlink:title="G4UImanager::fUImanager">
<polygon fill="none" stroke="#000000" points="409.5,-90.5 409.5,-110.5 562.5,-110.5 562.5,-90.5 409.5,-90.5"/>
<text text-anchor="middle" x="486" y="-97.5" font-family="FreeSans" font-size="10.00" fill="#000000">G4UImanager::fUImanager</text>
</a>
</g>
</g>
<!-- Node2&#45;&gt;Node4 -->
<g id="edge3" class="edge">
<title>Node2&#45;&gt;Node4</title>
<path fill="none" stroke="#191970" d="M359.0558,-86.3266C372.1661,-87.7904 385.8243,-89.3153 399.1155,-90.7993"/>
<polygon fill="#191970" stroke="#191970" points="398.8659,-94.2931 409.1925,-91.9244 399.6427,-87.3363 398.8659,-94.2931"/>
</g>
<!-- Node5 -->
<g id="node5" class="node">
<title>Node5</title>
<g id="a_node5"><a xlink:href="../../d8/def/classG4UImanager.html#aedc7f38c4d4db62a0871da5cfc8d2dec" target="_top" xlink:title="G4UImanager::fUImanagerHas\lBeenKilled">
<polygon fill="none" stroke="#000000" points="400,-39.5 400,-71.5 572,-71.5 572,-39.5 400,-39.5"/>
<text text-anchor="start" x="408" y="-58.5" font-family="FreeSans" font-size="10.00" fill="#000000">G4UImanager::fUImanagerHas</text>
<text text-anchor="middle" x="486" y="-46.5" font-family="FreeSans" font-size="10.00" fill="#000000">BeenKilled</text>
</a>
</g>
</g>
<!-- Node2&#45;&gt;Node5 -->
<g id="edge4" class="edge">
<title>Node2&#45;&gt;Node5</title>
<path fill="none" stroke="#191970" d="M359.0558,-69.0571C369.0973,-67.9848 379.4602,-66.878 389.7334,-65.7809"/>
<polygon fill="#191970" stroke="#191970" points="390.3897,-69.2308 399.9615,-64.6886 389.6463,-62.2704 390.3897,-69.2308"/>
</g>
<!-- Node6 -->
<g id="node6" class="node">
<title>Node6</title>
<g id="a_node6"><a xlink:href="../../d8/def/classG4UImanager.html#ae4d4d81368fb46e5006bf03646da897b" target="_top" xlink:title="G4UImanager::G4UImanager">
<polygon fill="none" stroke="#000000" points="404,-.5 404,-20.5 568,-20.5 568,-.5 404,-.5"/>
<text text-anchor="middle" x="486" y="-7.5" font-family="FreeSans" font-size="10.00" fill="#000000">G4UImanager::G4UImanager</text>
</a>
</g>
</g>
<!-- Node2&#45;&gt;Node6 -->
<g id="edge5" class="edge">
<title>Node2&#45;&gt;Node6</title>
<path fill="none" stroke="#191970" d="M301.6361,-67.3488C324.451,-56.9571 361.6422,-40.8978 395,-30.5 404.0546,-27.6776 413.7351,-25.099 423.2799,-22.8004"/>
<polygon fill="#191970" stroke="#191970" points="424.1971,-26.1806 433.1455,-20.5081 422.6128,-19.3623 424.1971,-26.1806"/>
</g>
<!-- Node7 -->
<g id="node7" class="node">
<title>Node7</title>
<g id="a_node7"><a xlink:href="../../d8/def/classG4UImanager.html#a18c91362ccd08d23b96b834da174e5c0" target="_top" xlink:title="G4UImanager::SetCoutDestination">
<polygon fill="none" stroke="#000000" points="613,-.5 613,-20.5 804,-20.5 804,-.5 613,-.5"/>
<text text-anchor="middle" x="708.5" y="-7.5" font-family="FreeSans" font-size="10.00" fill="#000000">G4UImanager::SetCoutDestination</text>
</a>
</g>
</g>
<!-- Node6&#45;&gt;Node7 -->
<g id="edge6" class="edge">
<title>Node6&#45;&gt;Node7</title>
<path fill="none" stroke="#191970" d="M568.2186,-10.5C579.4209,-10.5 591.0455,-10.5 602.5931,-10.5"/>
<polygon fill="#191970" stroke="#191970" points="602.7086,-14.0001 612.7086,-10.5 602.7086,-7.0001 602.7086,-14.0001"/>
</g>
<!-- Node8 -->
<g id="node8" class="node">
<title>Node8</title>
<g id="a_node8"><a xlink:href="../../d2/dce/classG4strstreambuf.html#a88d7accfe65495690b4b41b08fffb723" target="_top" xlink:title="G4strstreambuf::SetDestination">
<polygon fill="none" stroke="#000000" points="840,-.5 840,-20.5 1016,-20.5 1016,-.5 840,-.5"/>
<text text-anchor="middle" x="928" y="-7.5" font-family="FreeSans" font-size="10.00" fill="#000000">G4strstreambuf::SetDestination</text>
</a>
</g>
</g>
<!-- Node7&#45;&gt;Node8 -->
<g id="edge7" class="edge">
<title>Node7&#45;&gt;Node8</title>
<path fill="none" stroke="#191970" d="M804.1374,-10.5C812.6901,-10.5 821.3591,-10.5 829.932,-10.5"/>
<polygon fill="#191970" stroke="#191970" points="829.9388,-14.0001 839.9388,-10.5 829.9388,-7.0001 829.9388,-14.0001"/>
</g>
</g>
</svg>
