<?xml version="1.0" encoding="UTF-8" standalone="no"?>
<!DOCTYPE svg PUBLIC "-//W3C//DTD SVG 1.1//EN"
 "http://www.w3.org/Graphics/SVG/1.1/DTD/svg11.dtd">
<!-- Generated by graphviz version 2.40.1 (20161225.0304)
 -->
<!-- Title: G4GEMChannelVI::GetEmissionProbability Pages: 1 -->
<svg width="1487pt" height="655pt"
 viewBox="0.00 0.00 1487.00 654.65" xmlns="http://www.w3.org/2000/svg" xmlns:xlink="http://www.w3.org/1999/xlink">
<g id="graph0" class="graph" transform="scale(1 1) rotate(0) translate(4 650.6546)">
<title>G4GEMChannelVI::GetEmissionProbability</title>
<!-- Node1 -->
<g id="node1" class="node">
<title>Node1</title>
<polygon fill="#bfbfbf" stroke="#000000" points="0,-267.1546 0,-299.1546 175,-299.1546 175,-267.1546 0,-267.1546"/>
<text text-anchor="start" x="8" y="-286.1546" font-family="FreeSans" font-size="10.00" fill="#000000">G4GEMChannelVI::GetEmission</text>
<text text-anchor="middle" x="87.5" y="-274.1546" font-family="FreeSans" font-size="10.00" fill="#000000">Probability</text>
</g>
<!-- Node2 -->
<g id="node2" class="node">
<title>Node2</title>
<g id="a_node2"><a xlink:href="../../de/dec/classG4GEMProbabilityVI.html#ab9d529c1e881258c0222b1965583b86e" target="_top" xlink:title="G4GEMProbabilityVI\l::ComputeTotalProbability">
<polygon fill="none" stroke="#000000" points="234.5,-410.1546 234.5,-442.1546 380.5,-442.1546 380.5,-410.1546 234.5,-410.1546"/>
<text text-anchor="start" x="242.5" y="-429.1546" font-family="FreeSans" font-size="10.00" fill="#000000">G4GEMProbabilityVI</text>
<text text-anchor="middle" x="307.5" y="-417.1546" font-family="FreeSans" font-size="10.00" fill="#000000">::ComputeTotalProbability</text>
</a>
</g>
</g>
<!-- Node1&#45;&gt;Node2 -->
<g id="edge1" class="edge">
<title>Node1&#45;&gt;Node2</title>
<path fill="none" stroke="#191970" d="M111.5326,-299.3419C136.3435,-315.999 176.2252,-342.6229 211,-365.1546 231.4412,-378.3991 254.4946,-392.9846 272.9418,-404.5716"/>
<polygon fill="#191970" stroke="#191970" points="271.2648,-407.6512 281.5961,-409.9998 274.9844,-401.7211 271.2648,-407.6512"/>
</g>
<!-- Node3 -->
<g id="node3" class="node">
<title>Node3</title>
<g id="a_node3"><a xlink:href="../../df/d5d/classG4Fragment.html#af1209ab905b48c4fac6c006cd2199c70" target="_top" xlink:title="G4Fragment::GetA_asInt">
<polygon fill="none" stroke="#000000" points="471,-623.1546 471,-643.1546 612,-643.1546 612,-623.1546 471,-623.1546"/>
<text text-anchor="middle" x="541.5" y="-630.1546" font-family="FreeSans" font-size="10.00" fill="#000000">G4Fragment::GetA_asInt</text>
</a>
</g>
</g>
<!-- Node1&#45;&gt;Node3 -->
<g id="edge29" class="edge">
<title>Node1&#45;&gt;Node3</title>
<path fill="none" stroke="#191970" d="M91.6812,-299.4537C103.3422,-341.8151 140.1165,-456.5677 211,-521.1546 280.6085,-584.5797 387.5328,-612.2747 460.7951,-624.246"/>
<polygon fill="#191970" stroke="#191970" points="460.48,-627.7393 470.9019,-625.8329 461.5659,-620.824 460.48,-627.7393"/>
</g>
<!-- Node4 -->
<g id="node4" class="node">
<title>Node4</title>
<g id="a_node4"><a xlink:href="../../df/d5d/classG4Fragment.html#a5a707b5c62397f90a097700964f9d9a4" target="_top" xlink:title="G4Fragment::GetZ_asInt">
<polygon fill="none" stroke="#000000" points="471,-584.1546 471,-604.1546 612,-604.1546 612,-584.1546 471,-584.1546"/>
<text text-anchor="middle" x="541.5" y="-591.1546" font-family="FreeSans" font-size="10.00" fill="#000000">G4Fragment::GetZ_asInt</text>
</a>
</g>
</g>
<!-- Node1&#45;&gt;Node4 -->
<g id="edge50" class="edge">
<title>Node1&#45;&gt;Node4</title>
<path fill="none" stroke="#191970" d="M95.9545,-299.1937C113.6487,-331.5463 157.4162,-405.5068 211,-452.1546 298.1367,-528.012 331.0442,-536.7385 440,-575.1546 447.1923,-577.6904 454.7969,-579.9082 462.4782,-581.8435"/>
<polygon fill="#191970" stroke="#191970" points="461.6868,-585.2528 472.2237,-584.1465 463.2967,-578.4404 461.6868,-585.2528"/>
</g>
<!-- Node5 -->
<g id="node5" class="node">
<title>Node5</title>
<g id="a_node5"><a xlink:href="../../df/d5d/classG4Fragment.html#a955c932293c02b54b5de570150f6baab" target="_top" xlink:title="G4Fragment::GetExcitation\lEnergy">
<polygon fill="none" stroke="#000000" points="465,-251.1546 465,-283.1546 618,-283.1546 618,-251.1546 465,-251.1546"/>
<text text-anchor="start" x="473" y="-270.1546" font-family="FreeSans" font-size="10.00" fill="#000000">G4Fragment::GetExcitation</text>
<text text-anchor="middle" x="541.5" y="-258.1546" font-family="FreeSans" font-size="10.00" fill="#000000">Energy</text>
</a>
</g>
</g>
<!-- Node1&#45;&gt;Node5 -->
<g id="edge31" class="edge">
<title>Node1&#45;&gt;Node5</title>
<path fill="none" stroke="#191970" d="M120.0087,-299.3128C179.1109,-326.3038 307.0157,-373.6173 404,-331.1546 425.6087,-321.6936 419.6883,-304.1495 440,-292.1546 444.7857,-289.3284 449.8789,-286.8207 455.1377,-284.5956"/>
<polygon fill="#191970" stroke="#191970" points="456.6806,-287.7518 464.7514,-280.888 454.1618,-281.2207 456.6806,-287.7518"/>
</g>
<!-- Node27 -->
<g id="node27" class="node">
<title>Node27</title>
<g id="a_node27"><a xlink:href="../../d1/dd8/classG4VCoulombBarrier.html#a5d4e63dc08180d5c02070cfce9fcb060" target="_top" xlink:title="G4VCoulombBarrier::\lGetCoulombBarrier">
<polygon fill="none" stroke="#000000" points="246,-290.1546 246,-322.1546 369,-322.1546 369,-290.1546 246,-290.1546"/>
<text text-anchor="start" x="254" y="-309.1546" font-family="FreeSans" font-size="10.00" fill="#000000">G4VCoulombBarrier::</text>
<text text-anchor="middle" x="307.5" y="-297.1546" font-family="FreeSans" font-size="10.00" fill="#000000">GetCoulombBarrier</text>
</a>
</g>
</g>
<!-- Node1&#45;&gt;Node27 -->
<g id="edge30" class="edge">
<title>Node1&#45;&gt;Node27</title>
<path fill="none" stroke="#191970" d="M175.082,-292.3109C195.2857,-294.4231 216.5432,-296.6455 235.9694,-298.6764"/>
<polygon fill="#191970" stroke="#191970" points="235.636,-302.1605 245.9458,-299.7194 236.3639,-295.1985 235.636,-302.1605"/>
</g>
<!-- Node28 -->
<g id="node28" class="node">
<title>Node28</title>
<g id="a_node28"><a xlink:href="../../df/d5d/classG4Fragment.html#a33aa5fe6180d1d40bde2f03ef7836b2d" target="_top" xlink:title="G4Fragment::GetGroundStateMass">
<polygon fill="none" stroke="#000000" points="211,-251.1546 211,-271.1546 404,-271.1546 404,-251.1546 211,-251.1546"/>
<text text-anchor="middle" x="307.5" y="-258.1546" font-family="FreeSans" font-size="10.00" fill="#000000">G4Fragment::GetGroundStateMass</text>
</a>
</g>
</g>
<!-- Node1&#45;&gt;Node28 -->
<g id="edge32" class="edge">
<title>Node1&#45;&gt;Node28</title>
<path fill="none" stroke="#191970" d="M175.082,-274.3964C183.5222,-273.5523 192.1463,-272.6899 200.744,-271.8302"/>
<polygon fill="#191970" stroke="#191970" points="201.2101,-275.3011 210.8122,-270.8233 200.5136,-268.3358 201.2101,-275.3011"/>
</g>
<!-- Node29 -->
<g id="node29" class="node">
<title>Node29</title>
<g id="a_node29"><a xlink:href="../../d3/df1/classG4NucleiProperties.html#acfcf06bdfd3034735124c76e06dd3794" target="_top" xlink:title="G4NucleiProperties\l::GetNuclearMass">
<polygon fill="none" stroke="#000000" points="251,-200.1546 251,-232.1546 364,-232.1546 364,-200.1546 251,-200.1546"/>
<text text-anchor="start" x="259" y="-219.1546" font-family="FreeSans" font-size="10.00" fill="#000000">G4NucleiProperties</text>
<text text-anchor="middle" x="307.5" y="-207.1546" font-family="FreeSans" font-size="10.00" fill="#000000">::GetNuclearMass</text>
</a>
</g>
</g>
<!-- Node1&#45;&gt;Node29 -->
<g id="edge33" class="edge">
<title>Node1&#45;&gt;Node29</title>
<path fill="none" stroke="#191970" d="M132.1191,-267.0863C155.4805,-258.9012 184.6381,-249.04 211,-241.1546 220.6375,-238.2718 230.8734,-235.4092 240.9391,-232.7064"/>
<polygon fill="#191970" stroke="#191970" points="242.1496,-236.0065 250.9196,-230.062 240.3567,-229.24 242.1496,-236.0065"/>
</g>
<!-- Node42 -->
<g id="node42" class="node">
<title>Node42</title>
<g id="a_node42"><a xlink:href="../../d9/d50/classG4PairingCorrection.html#a96fefe9c209a0ffe538c80bb8735a031" target="_top" xlink:title="G4PairingCorrection\l::GetPairingCorrection">
<polygon fill="none" stroke="#000000" points="244,-149.1546 244,-181.1546 371,-181.1546 371,-149.1546 244,-149.1546"/>
<text text-anchor="start" x="252" y="-168.1546" font-family="FreeSans" font-size="10.00" fill="#000000">G4PairingCorrection</text>
<text text-anchor="middle" x="307.5" y="-156.1546" font-family="FreeSans" font-size="10.00" fill="#000000">::GetPairingCorrection</text>
</a>
</g>
</g>
<!-- Node1&#45;&gt;Node42 -->
<g id="edge48" class="edge">
<title>Node1&#45;&gt;Node42</title>
<path fill="none" stroke="#191970" d="M104.4487,-266.8876C126.9991,-246.1175 168.9364,-210.446 211,-190.1546 218.314,-186.6263 226.1888,-183.5515 234.173,-180.8826"/>
<polygon fill="#191970" stroke="#191970" points="235.439,-184.1538 243.9359,-177.8251 233.3469,-177.4737 235.439,-184.1538"/>
</g>
<!-- Node44 -->
<g id="node44" class="node">
<title>Node44</title>
<g id="a_node44"><a xlink:href="../../d9/dc0/classG4VEmissionProbability.html#a800ac6ff2f6745c42131a5096226adf0" target="_top" xlink:title="G4VEmissionProbability\l::ResetProbability">
<polygon fill="none" stroke="#000000" points="239.5,-98.1546 239.5,-130.1546 375.5,-130.1546 375.5,-98.1546 239.5,-98.1546"/>
<text text-anchor="start" x="247.5" y="-117.1546" font-family="FreeSans" font-size="10.00" fill="#000000">G4VEmissionProbability</text>
<text text-anchor="middle" x="307.5" y="-105.1546" font-family="FreeSans" font-size="10.00" fill="#000000">::ResetProbability</text>
</a>
</g>
</g>
<!-- Node1&#45;&gt;Node44 -->
<g id="edge51" class="edge">
<title>Node1&#45;&gt;Node44</title>
<path fill="none" stroke="#191970" d="M96.7368,-266.9294C114.7043,-236.8875 157.3462,-172.6204 211,-139.1546 216.8209,-135.5238 223.153,-132.4181 229.6983,-129.7618"/>
<polygon fill="#191970" stroke="#191970" points="231.2339,-132.926 239.4058,-126.1828 228.8124,-126.3582 231.2339,-132.926"/>
</g>
<!-- Node45 -->
<g id="node45" class="node">
<title>Node45</title>
<g id="a_node45"><a xlink:href="../../d9/dc0/classG4VEmissionProbability.html#afe2a792ea4e4a1f3b75b95d59723cc23" target="_top" xlink:title="G4VEmissionProbability\l::SetDecayKinematics">
<polygon fill="none" stroke="#000000" points="907,-33.1546 907,-65.1546 1043,-65.1546 1043,-33.1546 907,-33.1546"/>
<text text-anchor="start" x="915" y="-52.1546" font-family="FreeSans" font-size="10.00" fill="#000000">G4VEmissionProbability</text>
<text text-anchor="middle" x="975" y="-40.1546" font-family="FreeSans" font-size="10.00" fill="#000000">::SetDecayKinematics</text>
</a>
</g>
</g>
<!-- Node1&#45;&gt;Node45 -->
<g id="edge52" class="edge">
<title>Node1&#45;&gt;Node45</title>
<path fill="none" stroke="#191970" d="M92.0672,-267.1041C104.0782,-228.244 140.5829,-129.2823 211,-88.1546 431.0717,40.38 750.4952,-1.868 896.6703,-31.0867"/>
<polygon fill="#191970" stroke="#191970" points="896.3948,-34.6022 906.8917,-33.1654 897.7898,-27.7426 896.3948,-34.6022"/>
</g>
<!-- Node2&#45;&gt;Node3 -->
<g id="edge2" class="edge">
<title>Node2&#45;&gt;Node3</title>
<path fill="none" stroke="#191970" d="M313.754,-442.1761C329.0863,-479.1663 372.302,-570.6708 440,-614.1546 446.5227,-618.3442 453.7378,-621.6606 461.2253,-624.2791"/>
<polygon fill="#191970" stroke="#191970" points="460.2364,-627.6367 470.8237,-627.236 462.2973,-620.947 460.2364,-627.6367"/>
</g>
<!-- Node2&#45;&gt;Node4 -->
<g id="edge3" class="edge">
<title>Node2&#45;&gt;Node4</title>
<path fill="none" stroke="#191970" d="M324.1787,-442.3875C343.9335,-461.8867 377.5007,-495.8881 404,-527.1546 421.2415,-547.4977 417.3525,-561.0762 440,-575.1546 446.5839,-579.2473 453.8395,-582.4995 461.3522,-585.0784"/>
<polygon fill="#191970" stroke="#191970" points="460.389,-588.4436 470.9745,-587.9974 462.4211,-581.7451 460.389,-588.4436"/>
</g>
<!-- Node2&#45;&gt;Node5 -->
<g id="edge4" class="edge">
<title>Node2&#45;&gt;Node5</title>
<path fill="none" stroke="#191970" d="M342.559,-410.0459C362.5299,-399.503 386.8997,-384.1623 404,-365.1546 428.1947,-338.2611 411.8047,-314.8188 440,-292.1546 444.712,-288.3669 449.9164,-285.1417 455.4053,-282.3967"/>
<polygon fill="#191970" stroke="#191970" points="457.1401,-285.4567 464.8744,-278.2158 454.3127,-279.0531 457.1401,-285.4567"/>
</g>
<!-- Node6 -->
<g id="node6" class="node">
<title>Node6</title>
<g id="a_node6"><a xlink:href="../../d8/dd6/classG4NuclearLevelData.html#ac1224efb2df3aa8cfb5a1fc086ebd4bc" target="_top" xlink:title="G4NuclearLevelData\l::GetPairingCorrection">
<polygon fill="none" stroke="#000000" points="478,-533.1546 478,-565.1546 605,-565.1546 605,-533.1546 478,-533.1546"/>
<text text-anchor="start" x="486" y="-552.1546" font-family="FreeSans" font-size="10.00" fill="#000000">G4NuclearLevelData</text>
<text text-anchor="middle" x="541.5" y="-540.1546" font-family="FreeSans" font-size="10.00" fill="#000000">::GetPairingCorrection</text>
</a>
</g>
</g>
<!-- Node2&#45;&gt;Node6 -->
<g id="edge5" class="edge">
<title>Node2&#45;&gt;Node6</title>
<path fill="none" stroke="#191970" d="M326.5066,-442.2276C351.2245,-462.428 396.41,-497.0084 440,-518.1546 448.9518,-522.4972 458.6433,-526.3872 468.364,-529.8221"/>
<polygon fill="#191970" stroke="#191970" points="467.474,-533.2158 478.0683,-533.1054 469.7175,-526.5851 467.474,-533.2158"/>
</g>
<!-- Node7 -->
<g id="node7" class="node">
<title>Node7</title>
<g id="a_node7"><a xlink:href="../../de/d0f/classG4Pow.html#ab61696b492c40c146e135e72a3111cd3" target="_top" xlink:title="G4Pow::Z13">
<polygon fill="none" stroke="#000000" points="727.5,-626.1546 727.5,-646.1546 803.5,-646.1546 803.5,-626.1546 727.5,-626.1546"/>
<text text-anchor="middle" x="765.5" y="-633.1546" font-family="FreeSans" font-size="10.00" fill="#000000">G4Pow::Z13</text>
</a>
</g>
</g>
<!-- Node2&#45;&gt;Node7 -->
<g id="edge6" class="edge">
<title>Node2&#45;&gt;Node7</title>
<path fill="none" stroke="#191970" d="M338.0404,-442.1698C364.406,-455.4023 403.8445,-473.7972 440,-485.1546 527.6495,-512.6875 572.4746,-465.2762 643,-524.1546 677.0237,-552.5593 645.3544,-588.3029 679,-617.1546 689.707,-626.336 703.8476,-631.377 717.5863,-634.066"/>
<polygon fill="#191970" stroke="#191970" points="717.0392,-637.5229 727.4643,-635.6339 718.1366,-630.6094 717.0392,-637.5229"/>
</g>
<!-- Node8 -->
<g id="node8" class="node">
<title>Node8</title>
<g id="a_node8"><a xlink:href="../../d8/dd6/classG4NuclearLevelData.html#a10495b69be1343a236f86d834deecc59" target="_top" xlink:title="G4NuclearLevelData\l::GetLevelDensity">
<polygon fill="none" stroke="#000000" points="482,-443.1546 482,-475.1546 601,-475.1546 601,-443.1546 482,-443.1546"/>
<text text-anchor="start" x="490" y="-462.1546" font-family="FreeSans" font-size="10.00" fill="#000000">G4NuclearLevelData</text>
<text text-anchor="middle" x="541.5" y="-450.1546" font-family="FreeSans" font-size="10.00" fill="#000000">::GetLevelDensity</text>
</a>
</g>
</g>
<!-- Node2&#45;&gt;Node8 -->
<g id="edge7" class="edge">
<title>Node2&#45;&gt;Node8</title>
<path fill="none" stroke="#191970" d="M380.5765,-436.4602C409.7256,-440.571 443.1297,-445.2818 471.9219,-449.3423"/>
<polygon fill="#191970" stroke="#191970" points="471.5084,-452.8185 481.8992,-450.7493 472.4859,-445.8871 471.5084,-452.8185"/>
</g>
<!-- Node20 -->
<g id="node20" class="node">
<title>Node20</title>
<g id="a_node20"><a xlink:href="../../d8/d78/G4DNAElectronHoleRecombination_8cc.html#ab42bda1d2fdb27a0805df2018646485d" target="_top" xlink:title="C">
<polygon fill="none" stroke="#000000" points="527,-302.1546 527,-322.1546 556,-322.1546 556,-302.1546 527,-302.1546"/>
<text text-anchor="middle" x="541.5" y="-309.1546" font-family="FreeSans" font-size="10.00" fill="#000000">C</text>
</a>
</g>
</g>
<!-- Node2&#45;&gt;Node20 -->
<g id="edge21" class="edge">
<title>Node2&#45;&gt;Node20</title>
<path fill="none" stroke="#191970" d="M336.3376,-409.9141C356.0429,-398.3454 382.397,-381.9301 404,-365.1546 421.3824,-351.6565 420.3879,-341.1401 440,-331.1546 464.2162,-318.8249 495.3398,-314.4349 516.7012,-312.9051"/>
<polygon fill="#191970" stroke="#191970" points="517.1033,-316.3882 526.8938,-312.3389 516.715,-309.399 517.1033,-316.3882"/>
</g>
<!-- Node22 -->
<g id="node22" class="node">
<title>Node22</title>
<g id="a_node22"><a xlink:href="../../de/dec/classG4GEMProbabilityVI.html#a91f8834860769dd7082047a4a24d707c" target="_top" xlink:title="G4GEMProbabilityVI\l::Integrated2DProbability">
<polygon fill="none" stroke="#000000" points="470,-341.1546 470,-373.1546 613,-373.1546 613,-341.1546 470,-341.1546"/>
<text text-anchor="start" x="478" y="-360.1546" font-family="FreeSans" font-size="10.00" fill="#000000">G4GEMProbabilityVI</text>
<text text-anchor="middle" x="541.5" y="-348.1546" font-family="FreeSans" font-size="10.00" fill="#000000">::Integrated2DProbability</text>
</a>
</g>
</g>
<!-- Node2&#45;&gt;Node22 -->
<g id="edge24" class="edge">
<title>Node2&#45;&gt;Node22</title>
<path fill="none" stroke="#191970" d="M354.496,-410.105C379.7268,-401.6909 411.4304,-391.4406 440,-383.1546 448.596,-380.6615 457.6373,-378.1662 466.635,-375.7618"/>
<polygon fill="#191970" stroke="#191970" points="467.5841,-379.1312 476.3583,-373.1928 465.7959,-372.3635 467.5841,-379.1312"/>
</g>
<!-- Node23 -->
<g id="node23" class="node">
<title>Node23</title>
<g id="a_node23"><a xlink:href="../../d9/dc0/classG4VEmissionProbability.html#a35f94f26b10643d87f19d0684a98d49a" target="_top" xlink:title="G4VEmissionProbability\l::IntegrateProbability">
<polygon fill="none" stroke="#000000" points="473.5,-392.1546 473.5,-424.1546 609.5,-424.1546 609.5,-392.1546 473.5,-392.1546"/>
<text text-anchor="start" x="481.5" y="-411.1546" font-family="FreeSans" font-size="10.00" fill="#000000">G4VEmissionProbability</text>
<text text-anchor="middle" x="541.5" y="-399.1546" font-family="FreeSans" font-size="10.00" fill="#000000">::IntegrateProbability</text>
</a>
</g>
</g>
<!-- Node2&#45;&gt;Node23 -->
<g id="edge25" class="edge">
<title>Node2&#45;&gt;Node23</title>
<path fill="none" stroke="#191970" d="M380.5765,-420.5333C406.8551,-418.5119 436.5918,-416.2244 463.29,-414.1707"/>
<polygon fill="#191970" stroke="#191970" points="463.6579,-417.6529 473.36,-413.3961 463.121,-410.6735 463.6579,-417.6529"/>
</g>
<!-- Node8&#45;&gt;Node7 -->
<g id="edge20" class="edge">
<title>Node8&#45;&gt;Node7</title>
<path fill="none" stroke="#191970" d="M601.131,-466.8789C616.4638,-471.4584 631.7803,-478.7059 643,-490.1546 684.0636,-532.0563 636.2895,-576.9328 679,-617.1546 689.3581,-626.9091 703.5305,-632.0942 717.4062,-634.7388"/>
<polygon fill="#191970" stroke="#191970" points="716.9886,-638.2153 727.3985,-636.2444 718.0317,-631.2934 716.9886,-638.2153"/>
</g>
<!-- Node9 -->
<g id="node9" class="node">
<title>Node9</title>
<g id="a_node9"><a xlink:href="../../d1/d89/classG4DeexPrecoParameters.html#ae79a77fcb5da2decd29ae658602c9d2d" target="_top" xlink:title="G4DeexPrecoParameters\l::GetLevelDensityFlag">
<polygon fill="none" stroke="#000000" points="694.5,-575.1546 694.5,-607.1546 836.5,-607.1546 836.5,-575.1546 694.5,-575.1546"/>
<text text-anchor="start" x="702.5" y="-594.1546" font-family="FreeSans" font-size="10.00" fill="#000000">G4DeexPrecoParameters</text>
<text text-anchor="middle" x="765.5" y="-582.1546" font-family="FreeSans" font-size="10.00" fill="#000000">::GetLevelDensityFlag</text>
</a>
</g>
</g>
<!-- Node8&#45;&gt;Node9 -->
<g id="edge8" class="edge">
<title>Node8&#45;&gt;Node9</title>
<path fill="none" stroke="#191970" d="M601.2609,-468.5495C616.1547,-473.1414 631.2175,-479.9775 643,-490.1546 671.2852,-514.5858 650.5315,-541.9371 679,-566.1546 681.0316,-567.8828 683.1766,-569.4917 685.4109,-570.9895"/>
<polygon fill="#191970" stroke="#191970" points="684.0172,-574.2279 694.4205,-576.2333 687.5384,-568.178 684.0172,-574.2279"/>
</g>
<!-- Node10 -->
<g id="node10" class="node">
<title>Node10</title>
<g id="a_node10"><a xlink:href="../../d1/d89/classG4DeexPrecoParameters.html#a63cdbaa7201a0626cf38f754434a3c92" target="_top" xlink:title="G4DeexPrecoParameters\l::GetLevelDensity">
<polygon fill="none" stroke="#000000" points="694.5,-524.1546 694.5,-556.1546 836.5,-556.1546 836.5,-524.1546 694.5,-524.1546"/>
<text text-anchor="start" x="702.5" y="-543.1546" font-family="FreeSans" font-size="10.00" fill="#000000">G4DeexPrecoParameters</text>
<text text-anchor="middle" x="765.5" y="-531.1546" font-family="FreeSans" font-size="10.00" fill="#000000">::GetLevelDensity</text>
</a>
</g>
</g>
<!-- Node8&#45;&gt;Node10 -->
<g id="edge9" class="edge">
<title>Node8&#45;&gt;Node10</title>
<path fill="none" stroke="#191970" d="M601.1868,-474.0083C615.2249,-478.4166 629.9041,-483.801 643,-490.1546 660.5259,-498.6574 661.4105,-506.784 679,-515.1546 682.9986,-517.0574 687.1714,-518.8453 691.4309,-520.5203"/>
<polygon fill="#191970" stroke="#191970" points="690.2672,-523.8215 700.8604,-524.0077 692.6954,-517.2562 690.2672,-523.8215"/>
</g>
<!-- Node11 -->
<g id="node11" class="node">
<title>Node11</title>
<g id="a_node11"><a xlink:href="../../d8/dd6/classG4NuclearLevelData.html#aaa757c26457b575f789aa8ffcc633cb7" target="_top" xlink:title="G4NuclearLevelData\l::GetLevelManager">
<polygon fill="none" stroke="#000000" points="706,-434.1546 706,-466.1546 825,-466.1546 825,-434.1546 706,-434.1546"/>
<text text-anchor="start" x="714" y="-453.1546" font-family="FreeSans" font-size="10.00" fill="#000000">G4NuclearLevelData</text>
<text text-anchor="middle" x="765.5" y="-441.1546" font-family="FreeSans" font-size="10.00" fill="#000000">::GetLevelManager</text>
</a>
</g>
</g>
<!-- Node8&#45;&gt;Node11 -->
<g id="edge10" class="edge">
<title>Node8&#45;&gt;Node11</title>
<path fill="none" stroke="#191970" d="M601.2336,-456.7546C630.3437,-455.585 665.5261,-454.1714 695.8508,-452.953"/>
<polygon fill="#191970" stroke="#191970" points="696.0815,-456.4466 705.9328,-452.5479 695.8004,-449.4523 696.0815,-456.4466"/>
</g>
<!-- Node19 -->
<g id="node19" class="node">
<title>Node19</title>
<g id="a_node19"><a xlink:href="../../db/dff/classG4LevelManager.html#a0fecec5b013772efd5eb6de15d9dfa3b" target="_top" xlink:title="G4LevelManager::LevelDensity">
<polygon fill="none" stroke="#000000" points="679,-485.1546 679,-505.1546 852,-505.1546 852,-485.1546 679,-485.1546"/>
<text text-anchor="middle" x="765.5" y="-492.1546" font-family="FreeSans" font-size="10.00" fill="#000000">G4LevelManager::LevelDensity</text>
</a>
</g>
</g>
<!-- Node8&#45;&gt;Node19 -->
<g id="edge19" class="edge">
<title>Node8&#45;&gt;Node19</title>
<path fill="none" stroke="#191970" d="M601.2336,-468.7546C629.5286,-473.302 663.5606,-478.7715 693.2923,-483.5498"/>
<polygon fill="#191970" stroke="#191970" points="692.7672,-487.0102 703.1959,-485.1414 693.878,-480.0989 692.7672,-487.0102"/>
</g>
<!-- Node12 -->
<g id="node12" class="node">
<title>Node12</title>
<g id="a_node12"><a xlink:href="../../d6/d60/classG4LevelReader.html#a93c79ac333e79662d02a75be87f2290f" target="_top" xlink:title="G4LevelReader::CreateLevel\lManager">
<polygon fill="none" stroke="#000000" points="895.5,-415.1546 895.5,-447.1546 1054.5,-447.1546 1054.5,-415.1546 895.5,-415.1546"/>
<text text-anchor="start" x="903.5" y="-434.1546" font-family="FreeSans" font-size="10.00" fill="#000000">G4LevelReader::CreateLevel</text>
<text text-anchor="middle" x="975" y="-422.1546" font-family="FreeSans" font-size="10.00" fill="#000000">Manager</text>
</a>
</g>
</g>
<!-- Node11&#45;&gt;Node12 -->
<g id="edge11" class="edge">
<title>Node11&#45;&gt;Node12</title>
<path fill="none" stroke="#191970" d="M825.2539,-444.7354C843.8772,-443.0464 864.8432,-441.1449 885.0583,-439.3116"/>
<polygon fill="#191970" stroke="#191970" points="885.5821,-442.7785 895.2251,-438.3895 884.9498,-435.8071 885.5821,-442.7785"/>
</g>
<!-- Node13 -->
<g id="node13" class="node">
<title>Node13</title>
<g id="a_node13"><a xlink:href="../../d8/d78/G4DNAElectronHoleRecombination_8cc.html#acd7c90d16eed59d534d702f94b65af4c" target="_top" xlink:title="A">
<polygon fill="none" stroke="#000000" points="1379,-283.1546 1379,-303.1546 1408,-303.1546 1408,-283.1546 1379,-283.1546"/>
<text text-anchor="middle" x="1393.5" y="-290.1546" font-family="FreeSans" font-size="10.00" fill="#000000">A</text>
</a>
</g>
</g>
<!-- Node12&#45;&gt;Node13 -->
<g id="edge12" class="edge">
<title>Node12&#45;&gt;Node13</title>
<path fill="none" stroke="#191970" d="M1043.6241,-415.0864C1125.0856,-395.673 1252.4284,-364.1265 1272,-352.1546 1292.4031,-339.674 1287.3435,-324.2111 1308,-312.1546 1326.6847,-301.2489 1351.0099,-296.5966 1368.9346,-294.6153"/>
<polygon fill="#191970" stroke="#191970" points="1369.2651,-298.0998 1378.9088,-293.7125 1368.634,-291.1283 1369.2651,-298.0998"/>
</g>
<!-- Node14 -->
<g id="node14" class="node">
<title>Node14</title>
<g id="a_node14"><a xlink:href="../../d6/d60/classG4LevelReader.html#a5bb154ffce96f1cdaf4444ebbb79ab85" target="_top" xlink:title="G4LevelReader::LevelManager">
<polygon fill="none" stroke="#000000" points="1099.5,-411.1546 1099.5,-431.1546 1270.5,-431.1546 1270.5,-411.1546 1099.5,-411.1546"/>
<text text-anchor="middle" x="1185" y="-418.1546" font-family="FreeSans" font-size="10.00" fill="#000000">G4LevelReader::LevelManager</text>
</a>
</g>
</g>
<!-- Node12&#45;&gt;Node14 -->
<g id="edge13" class="edge">
<title>Node12&#45;&gt;Node14</title>
<path fill="none" stroke="#191970" d="M1054.6914,-427.3597C1065.9989,-426.8213 1077.7228,-426.263 1089.295,-425.712"/>
<polygon fill="#191970" stroke="#191970" points="1089.5889,-429.202 1099.4111,-425.2302 1089.2559,-422.2099 1089.5889,-429.202"/>
</g>
<!-- Node14&#45;&gt;Node13 -->
<g id="edge16" class="edge">
<title>Node14&#45;&gt;Node13</title>
<path fill="none" stroke="#191970" d="M1240.2453,-411.0461C1251.7179,-406.956 1263.0298,-401.2141 1272,-393.1546 1301.3046,-366.8251 1277.5069,-337.0979 1308,-312.1546 1325.021,-298.2314 1350.0965,-293.9755 1368.6944,-292.9079"/>
<polygon fill="#191970" stroke="#191970" points="1368.8982,-296.4034 1378.7863,-292.5987 1368.6838,-289.4067 1368.8982,-296.4034"/>
</g>
<!-- Node15 -->
<g id="node15" class="node">
<title>Node15</title>
<g id="a_node15"><a xlink:href="../../d5/d4f/G4Exception_8hh.html#ad36b5da5d062a20ca47b1c1f1ae353dd" target="_top" xlink:title="G4Exception">
<polygon fill="none" stroke="#000000" points="1353.5,-322.1546 1353.5,-342.1546 1433.5,-342.1546 1433.5,-322.1546 1353.5,-322.1546"/>
<text text-anchor="middle" x="1393.5" y="-329.1546" font-family="FreeSans" font-size="10.00" fill="#000000">G4Exception</text>
</a>
</g>
</g>
<!-- Node14&#45;&gt;Node15 -->
<g id="edge14" class="edge">
<title>Node14&#45;&gt;Node15</title>
<path fill="none" stroke="#191970" d="M1232.3015,-411.077C1245.825,-406.8693 1260.1082,-401.0613 1272,-393.1546 1292.4731,-379.5422 1286.9181,-363.8037 1308,-351.1546 1318.5941,-344.7981 1331.076,-340.5626 1343.1802,-337.742"/>
<polygon fill="#191970" stroke="#191970" points="1344.1138,-341.1236 1353.2092,-335.6901 1342.7106,-334.2657 1344.1138,-341.1236"/>
</g>
<!-- Node16 -->
<g id="node16" class="node">
<title>Node16</title>
<g id="a_node16"><a xlink:href="../../d1/d89/classG4DeexPrecoParameters.html#af3e0d92696663d703070a9c61b9294b1" target="_top" xlink:title="G4DeexPrecoParameters\l::StoreICLevelData">
<polygon fill="none" stroke="#000000" points="1322.5,-451.1546 1322.5,-483.1546 1464.5,-483.1546 1464.5,-451.1546 1322.5,-451.1546"/>
<text text-anchor="start" x="1330.5" y="-470.1546" font-family="FreeSans" font-size="10.00" fill="#000000">G4DeexPrecoParameters</text>
<text text-anchor="middle" x="1393.5" y="-458.1546" font-family="FreeSans" font-size="10.00" fill="#000000">::StoreICLevelData</text>
</a>
</g>
</g>
<!-- Node14&#45;&gt;Node16 -->
<g id="edge15" class="edge">
<title>Node14&#45;&gt;Node16</title>
<path fill="none" stroke="#191970" d="M1230.4986,-431.1926C1254.4031,-436.4665 1284.4267,-443.0904 1312.1715,-449.2116"/>
<polygon fill="#191970" stroke="#191970" points="1311.7554,-452.7039 1322.2747,-451.4406 1313.2636,-445.8683 1311.7554,-452.7039"/>
</g>
<!-- Node17 -->
<g id="node17" class="node">
<title>Node17</title>
<g id="a_node17"><a xlink:href="../../d6/d60/classG4LevelReader.html#aa2c3aad26caefc43f916ef550bb15dc5" target="_top" xlink:title="G4LevelReader::ReadDataItem">
<polygon fill="none" stroke="#000000" points="1308,-412.1546 1308,-432.1546 1479,-432.1546 1479,-412.1546 1308,-412.1546"/>
<text text-anchor="middle" x="1393.5" y="-419.1546" font-family="FreeSans" font-size="10.00" fill="#000000">G4LevelReader::ReadDataItem</text>
</a>
</g>
</g>
<!-- Node14&#45;&gt;Node17 -->
<g id="edge17" class="edge">
<title>Node14&#45;&gt;Node17</title>
<path fill="none" stroke="#191970" d="M1270.7075,-421.5656C1279.6026,-421.6083 1288.6839,-421.6519 1297.6808,-421.695"/>
<polygon fill="#191970" stroke="#191970" points="1297.7716,-425.1954 1307.7883,-421.7435 1297.8053,-418.1955 1297.7716,-425.1954"/>
</g>
<!-- Node18 -->
<g id="node18" class="node">
<title>Node18</title>
<g id="a_node18"><a xlink:href="../../d6/d60/classG4LevelReader.html#a73c6e35bbd7fd7416a49d73f37156dac" target="_top" xlink:title="G4LevelReader::Normalized\lICCProbability">
<polygon fill="none" stroke="#000000" points="1315.5,-361.1546 1315.5,-393.1546 1471.5,-393.1546 1471.5,-361.1546 1315.5,-361.1546"/>
<text text-anchor="start" x="1323.5" y="-380.1546" font-family="FreeSans" font-size="10.00" fill="#000000">G4LevelReader::Normalized</text>
<text text-anchor="middle" x="1393.5" y="-368.1546" font-family="FreeSans" font-size="10.00" fill="#000000">ICCProbability</text>
</a>
</g>
</g>
<!-- Node14&#45;&gt;Node18 -->
<g id="edge18" class="edge">
<title>Node14&#45;&gt;Node18</title>
<path fill="none" stroke="#191970" d="M1232.5728,-411.1152C1254.7486,-406.4355 1281.8402,-400.7183 1307.4248,-395.3191"/>
<polygon fill="#191970" stroke="#191970" points="1308.4569,-398.6785 1317.5187,-393.189 1307.0115,-391.8293 1308.4569,-398.6785"/>
</g>
<!-- Node20&#45;&gt;Node13 -->
<g id="edge22" class="edge">
<title>Node20&#45;&gt;Node13</title>
<path fill="none" stroke="#191970" d="M556.2987,-309.7316C581.4332,-305.7498 634.1093,-297.9822 679,-295.1546 948.7746,-278.1618 1276.9802,-288.6489 1368.6721,-292.1457"/>
<polygon fill="#191970" stroke="#191970" points="1368.7607,-295.6517 1378.8895,-292.5443 1369.0336,-288.6571 1368.7607,-295.6517"/>
</g>
<!-- Node21 -->
<g id="node21" class="node">
<title>Node21</title>
<g id="a_node21"><a xlink:href="../../d8/d78/G4DNAElectronHoleRecombination_8cc.html#a0a45f4b6e4ca7ef6fbc7b39610bbe8b6" target="_top" xlink:title="B">
<polygon fill="none" stroke="#000000" points="751,-305.1546 751,-325.1546 780,-325.1546 780,-305.1546 751,-305.1546"/>
<text text-anchor="middle" x="765.5" y="-312.1546" font-family="FreeSans" font-size="10.00" fill="#000000">B</text>
</a>
</g>
</g>
<!-- Node20&#45;&gt;Node21 -->
<g id="edge23" class="edge">
<title>Node20&#45;&gt;Node21</title>
<path fill="none" stroke="#191970" d="M556.1973,-312.3514C593.7724,-312.8546 693.6775,-314.1927 740.5559,-314.8205"/>
<polygon fill="#191970" stroke="#191970" points="740.7026,-318.3227 750.7486,-314.957 740.7964,-311.3233 740.7026,-318.3227"/>
</g>
<!-- Node24 -->
<g id="node24" class="node">
<title>Node24</title>
<g id="a_node24"><a xlink:href="../../d9/dc0/classG4VEmissionProbability.html#a92e01bc86e2a265baa8778a3d9f2150e" target="_top" xlink:title="G4VEmissionProbability\l::ComputeProbability">
<polygon fill="none" stroke="#000000" points="697.5,-344.1546 697.5,-376.1546 833.5,-376.1546 833.5,-344.1546 697.5,-344.1546"/>
<text text-anchor="start" x="705.5" y="-363.1546" font-family="FreeSans" font-size="10.00" fill="#000000">G4VEmissionProbability</text>
<text text-anchor="middle" x="765.5" y="-351.1546" font-family="FreeSans" font-size="10.00" fill="#000000">::ComputeProbability</text>
</a>
</g>
</g>
<!-- Node23&#45;&gt;Node24 -->
<g id="edge26" class="edge">
<title>Node23&#45;&gt;Node24</title>
<path fill="none" stroke="#191970" d="M609.6197,-393.5575C634.1641,-388.298 662.048,-382.3229 687.3794,-376.8947"/>
<polygon fill="#191970" stroke="#191970" points="688.2737,-380.2826 697.3184,-374.7649 686.807,-373.438 688.2737,-380.2826"/>
</g>
<!-- Node25 -->
<g id="node25" class="node">
<title>Node25</title>
<g id="a_node25"><a xlink:href="../../df/d28/namespacekdfinder.html#ab72d428625e99a2d7380eb7691c246c7" target="_top" xlink:title="kdfinder::abs">
<polygon fill="none" stroke="#000000" points="724,-395.1546 724,-415.1546 807,-415.1546 807,-395.1546 724,-395.1546"/>
<text text-anchor="middle" x="765.5" y="-402.1546" font-family="FreeSans" font-size="10.00" fill="#000000">kdfinder::abs</text>
</a>
</g>
</g>
<!-- Node23&#45;&gt;Node25 -->
<g id="edge27" class="edge">
<title>Node23&#45;&gt;Node25</title>
<path fill="none" stroke="#191970" d="M609.6197,-407.2423C643.0404,-406.7947 682.6528,-406.2641 713.582,-405.8499"/>
<polygon fill="#191970" stroke="#191970" points="713.7645,-409.3479 723.7167,-405.7142 713.6707,-402.3485 713.7645,-409.3479"/>
</g>
<!-- Node26 -->
<g id="node26" class="node">
<title>Node26</title>
<g id="a_node26"><a xlink:href="../../d8/dc7/classkdfinder_1_1TVector.html#ac9649c7577f12a7502ed523260f4ee90" target="_top" xlink:title="kdfinder::TVector::mag">
<polygon fill="none" stroke="#000000" points="909,-376.1546 909,-396.1546 1041,-396.1546 1041,-376.1546 909,-376.1546"/>
<text text-anchor="middle" x="975" y="-383.1546" font-family="FreeSans" font-size="10.00" fill="#000000">kdfinder::TVector::mag</text>
</a>
</g>
</g>
<!-- Node25&#45;&gt;Node26 -->
<g id="edge28" class="edge">
<title>Node25&#45;&gt;Node26</title>
<path fill="none" stroke="#191970" d="M807.1409,-401.3781C833.1929,-399.0154 867.548,-395.8996 898.3884,-393.1026"/>
<polygon fill="#191970" stroke="#191970" points="899.0525,-396.5569 908.6955,-392.1679 898.4202,-389.5855 899.0525,-396.5569"/>
</g>
<!-- Node30 -->
<g id="node30" class="node">
<title>Node30</title>
<g id="a_node30"><a xlink:href="../../d3/df1/classG4NucleiProperties.html#a84f621a35ef0b3c6cfffba0c4b4bd79c" target="_top" xlink:title="G4NucleiProperties\l::NuclearMass">
<polygon fill="none" stroke="#000000" points="485,-200.1546 485,-232.1546 598,-232.1546 598,-200.1546 485,-200.1546"/>
<text text-anchor="start" x="493" y="-219.1546" font-family="FreeSans" font-size="10.00" fill="#000000">G4NucleiProperties</text>
<text text-anchor="middle" x="541.5" y="-207.1546" font-family="FreeSans" font-size="10.00" fill="#000000">::NuclearMass</text>
</a>
</g>
</g>
<!-- Node29&#45;&gt;Node30 -->
<g id="edge34" class="edge">
<title>Node29&#45;&gt;Node30</title>
<path fill="none" stroke="#191970" d="M364.1449,-216.1546C397.507,-216.1546 439.8851,-216.1546 474.8498,-216.1546"/>
<polygon fill="#191970" stroke="#191970" points="474.9717,-219.6547 484.9717,-216.1546 474.9717,-212.6547 474.9717,-219.6547"/>
</g>
<!-- Node31 -->
<g id="node31" class="node">
<title>Node31</title>
<g id="a_node31"><a xlink:href="../../d8/dd3/classG4ParticleTable.html#a8bb5b636696da4abae3ca7ea0ea5af95" target="_top" xlink:title="G4ParticleTable::GetParticle\lTable">
<polygon fill="none" stroke="#000000" points="687.5,-135.1546 687.5,-167.1546 843.5,-167.1546 843.5,-135.1546 687.5,-135.1546"/>
<text text-anchor="start" x="695.5" y="-154.1546" font-family="FreeSans" font-size="10.00" fill="#000000">G4ParticleTable::GetParticle</text>
<text text-anchor="middle" x="765.5" y="-142.1546" font-family="FreeSans" font-size="10.00" fill="#000000">Table</text>
</a>
</g>
</g>
<!-- Node30&#45;&gt;Node31 -->
<g id="edge35" class="edge">
<title>Node30&#45;&gt;Node31</title>
<path fill="none" stroke="#191970" d="M598.0278,-202.2879C612.7164,-198.517 628.4878,-194.3197 643,-190.1546 664.2017,-184.0696 687.2901,-176.8705 707.6489,-170.3244"/>
<polygon fill="#191970" stroke="#191970" points="708.965,-173.5773 717.4036,-167.171 706.8119,-166.9167 708.965,-173.5773"/>
</g>
<!-- Node38 -->
<g id="node38" class="node">
<title>Node38</title>
<g id="a_node38"><a xlink:href="../../d3/df1/classG4NucleiProperties.html#aee1660bc4a3c6d59e2a1af5406410422" target="_top" xlink:title="G4NucleiProperties\l::AtomicMass">
<polygon fill="none" stroke="#000000" points="709,-200.1546 709,-232.1546 822,-232.1546 822,-200.1546 709,-200.1546"/>
<text text-anchor="start" x="717" y="-219.1546" font-family="FreeSans" font-size="10.00" fill="#000000">G4NucleiProperties</text>
<text text-anchor="middle" x="765.5" y="-207.1546" font-family="FreeSans" font-size="10.00" fill="#000000">::AtomicMass</text>
</a>
</g>
</g>
<!-- Node30&#45;&gt;Node38 -->
<g id="edge42" class="edge">
<title>Node30&#45;&gt;Node38</title>
<path fill="none" stroke="#191970" d="M598.0247,-216.1546C628.6653,-216.1546 666.7169,-216.1546 698.8026,-216.1546"/>
<polygon fill="#191970" stroke="#191970" points="698.9935,-219.6547 708.9934,-216.1546 698.9934,-212.6547 698.9935,-219.6547"/>
</g>
<!-- Node32 -->
<g id="node32" class="node">
<title>Node32</title>
<g id="a_node32"><a xlink:href="../../d8/dd3/classG4ParticleTable.html#aba540bf07478ff0c30af3ee28d843041" target="_top" xlink:title="G4ParticleTable::WorkerG4\lParticleTable">
<polygon fill="none" stroke="#000000" points="899.5,-119.1546 899.5,-151.1546 1050.5,-151.1546 1050.5,-119.1546 899.5,-119.1546"/>
<text text-anchor="start" x="907.5" y="-138.1546" font-family="FreeSans" font-size="10.00" fill="#000000">G4ParticleTable::WorkerG4</text>
<text text-anchor="middle" x="975" y="-126.1546" font-family="FreeSans" font-size="10.00" fill="#000000">ParticleTable</text>
</a>
</g>
</g>
<!-- Node31&#45;&gt;Node32 -->
<g id="edge36" class="edge">
<title>Node31&#45;&gt;Node32</title>
<path fill="none" stroke="#191970" d="M843.5101,-145.1968C858.3501,-144.0634 873.9576,-142.8714 889.0288,-141.7204"/>
<polygon fill="#191970" stroke="#191970" points="889.6567,-145.1827 899.3611,-140.9313 889.1235,-138.203 889.6567,-145.1827"/>
</g>
<!-- Node33 -->
<g id="node33" class="node">
<title>Node33</title>
<g id="a_node33"><a xlink:href="../../d4/d96/classG4ParticleTableIterator.html#ae35fb8d216907e4b1614fd52f2d50f84" target="_top" xlink:title="G4ParticleTableIterator\l::reset">
<polygon fill="none" stroke="#000000" points="1119,-221.1546 1119,-253.1546 1251,-253.1546 1251,-221.1546 1119,-221.1546"/>
<text text-anchor="start" x="1127" y="-240.1546" font-family="FreeSans" font-size="10.00" fill="#000000">G4ParticleTableIterator</text>
<text text-anchor="middle" x="1185" y="-228.1546" font-family="FreeSans" font-size="10.00" fill="#000000">::reset</text>
</a>
</g>
</g>
<!-- Node32&#45;&gt;Node33 -->
<g id="edge37" class="edge">
<title>Node32&#45;&gt;Node33</title>
<path fill="none" stroke="#191970" d="M1046.6682,-151.3424C1052.074,-153.8683 1057.2607,-156.7856 1062,-160.1546 1084.6135,-176.2296 1075.4718,-194.9601 1098,-211.1546 1101.626,-213.7612 1105.5149,-216.1093 1109.564,-218.2241"/>
<polygon fill="#191970" stroke="#191970" points="1108.1053,-221.4058 1118.6444,-222.4913 1111.0825,-215.0705 1108.1053,-221.4058"/>
</g>
<!-- Node34 -->
<g id="node34" class="node">
<title>Node34</title>
<g id="a_node34"><a xlink:href="../../d4/d96/classG4ParticleTableIterator.html#a7220383ce5a9ddecb53331a2ecdd90d5" target="_top" xlink:title="G4ParticleTableIterator\l::value">
<polygon fill="none" stroke="#000000" points="1119,-170.1546 1119,-202.1546 1251,-202.1546 1251,-170.1546 1119,-170.1546"/>
<text text-anchor="start" x="1127" y="-189.1546" font-family="FreeSans" font-size="10.00" fill="#000000">G4ParticleTableIterator</text>
<text text-anchor="middle" x="1185" y="-177.1546" font-family="FreeSans" font-size="10.00" fill="#000000">::value</text>
</a>
</g>
</g>
<!-- Node32&#45;&gt;Node34 -->
<g id="edge38" class="edge">
<title>Node32&#45;&gt;Node34</title>
<path fill="none" stroke="#191970" d="M1041.1571,-151.2213C1062.7309,-156.4606 1086.8514,-162.3185 1109.0834,-167.7177"/>
<polygon fill="#191970" stroke="#191970" points="1108.2712,-171.1221 1118.8148,-170.081 1109.9233,-164.3198 1108.2712,-171.1221"/>
</g>
<!-- Node35 -->
<g id="node35" class="node">
<title>Node35</title>
<g id="a_node35"><a xlink:href="../../d8/dd3/classG4ParticleTable.html#ad3150940809a36b87123558264d30108" target="_top" xlink:title="G4ParticleTable::GetKey">
<polygon fill="none" stroke="#000000" points="1116.5,-131.1546 1116.5,-151.1546 1253.5,-151.1546 1253.5,-131.1546 1116.5,-131.1546"/>
<text text-anchor="middle" x="1185" y="-138.1546" font-family="FreeSans" font-size="10.00" fill="#000000">G4ParticleTable::GetKey</text>
</a>
</g>
</g>
<!-- Node32&#45;&gt;Node35 -->
<g id="edge39" class="edge">
<title>Node32&#45;&gt;Node35</title>
<path fill="none" stroke="#191970" d="M1050.5181,-137.3122C1068.6744,-137.831 1088.1105,-138.3863 1106.4032,-138.9089"/>
<polygon fill="#191970" stroke="#191970" points="1106.3369,-142.4084 1116.4328,-139.1955 1106.5369,-135.4112 1106.3369,-142.4084"/>
</g>
<!-- Node36 -->
<g id="node36" class="node">
<title>Node36</title>
<g id="a_node36"><a xlink:href="../../d5/d38/classG4ParticleDefinition.html#af84019c7513ca66581ed8b3651934467" target="_top" xlink:title="G4ParticleDefinition\l::GetPDGEncoding">
<polygon fill="none" stroke="#000000" points="1127,-80.1546 1127,-112.1546 1243,-112.1546 1243,-80.1546 1127,-80.1546"/>
<text text-anchor="start" x="1135" y="-99.1546" font-family="FreeSans" font-size="10.00" fill="#000000">G4ParticleDefinition</text>
<text text-anchor="middle" x="1185" y="-87.1546" font-family="FreeSans" font-size="10.00" fill="#000000">::GetPDGEncoding</text>
</a>
</g>
</g>
<!-- Node32&#45;&gt;Node36 -->
<g id="edge40" class="edge">
<title>Node32&#45;&gt;Node36</title>
<path fill="none" stroke="#191970" d="M1050.5181,-121.1298C1072.2416,-117.0954 1095.7971,-112.7208 1117.0343,-108.7768"/>
<polygon fill="#191970" stroke="#191970" points="1117.7406,-112.2055 1126.9334,-106.9384 1116.4624,-105.3232 1117.7406,-112.2055"/>
</g>
<!-- Node37 -->
<g id="node37" class="node">
<title>Node37</title>
<g id="a_node37"><a xlink:href="../../da/d2b/classG4IonTable.html#a66f8ee295224ed611872572a0e47ab6e" target="_top" xlink:title="G4IonTable::WorkerG4IonTable">
<polygon fill="none" stroke="#000000" points="1099.5,-41.1546 1099.5,-61.1546 1270.5,-61.1546 1270.5,-41.1546 1099.5,-41.1546"/>
<text text-anchor="middle" x="1185" y="-48.1546" font-family="FreeSans" font-size="10.00" fill="#000000">G4IonTable::WorkerG4IonTable</text>
</a>
</g>
</g>
<!-- Node32&#45;&gt;Node37 -->
<g id="edge41" class="edge">
<title>Node32&#45;&gt;Node37</title>
<path fill="none" stroke="#191970" d="M1000.4437,-119.0722C1024.68,-104.4012 1062.6139,-83.0949 1098,-70.1546 1104.4386,-67.8 1111.257,-65.6911 1118.1305,-63.8134"/>
<polygon fill="#191970" stroke="#191970" points="1119.3879,-67.1041 1128.2025,-61.226 1117.6461,-60.3242 1119.3879,-67.1041"/>
</g>
<!-- Node39 -->
<g id="node39" class="node">
<title>Node39</title>
<g id="a_node39"><a xlink:href="../../da/d39/classG4NucleiPropertiesTableAME12.html#ad495a18931051e6c1ba10bfde6d31c97" target="_top" xlink:title="G4NucleiPropertiesTableAME12\l::GetMassExcess">
<polygon fill="none" stroke="#000000" points="888,-221.1546 888,-253.1546 1062,-253.1546 1062,-221.1546 888,-221.1546"/>
<text text-anchor="start" x="896" y="-240.1546" font-family="FreeSans" font-size="10.00" fill="#000000">G4NucleiPropertiesTableAME12</text>
<text text-anchor="middle" x="975" y="-228.1546" font-family="FreeSans" font-size="10.00" fill="#000000">::GetMassExcess</text>
</a>
</g>
</g>
<!-- Node38&#45;&gt;Node39 -->
<g id="edge43" class="edge">
<title>Node38&#45;&gt;Node39</title>
<path fill="none" stroke="#191970" d="M822.1937,-221.8375C839.3478,-223.557 858.6972,-225.4965 877.7166,-227.403"/>
<polygon fill="#191970" stroke="#191970" points="877.6254,-230.9113 887.9247,-228.4263 878.3236,-223.9462 877.6254,-230.9113"/>
</g>
<!-- Node41 -->
<g id="node41" class="node">
<title>Node41</title>
<g id="a_node41"><a xlink:href="../../d3/df1/classG4NucleiProperties.html#ac66a063606af1c1d4518dcd10221eb49" target="_top" xlink:title="G4NucleiProperties\l::BindingEnergy">
<polygon fill="none" stroke="#000000" points="918.5,-170.1546 918.5,-202.1546 1031.5,-202.1546 1031.5,-170.1546 918.5,-170.1546"/>
<text text-anchor="start" x="926.5" y="-189.1546" font-family="FreeSans" font-size="10.00" fill="#000000">G4NucleiProperties</text>
<text text-anchor="middle" x="975" y="-177.1546" font-family="FreeSans" font-size="10.00" fill="#000000">::BindingEnergy</text>
</a>
</g>
</g>
<!-- Node38&#45;&gt;Node41 -->
<g id="edge47" class="edge">
<title>Node38&#45;&gt;Node41</title>
<path fill="none" stroke="#191970" d="M822.1937,-208.0361C848.7436,-204.2343 880.552,-199.6793 908.2569,-195.7121"/>
<polygon fill="#191970" stroke="#191970" points="908.8581,-199.1618 918.261,-194.2795 907.8658,-192.2324 908.8581,-199.1618"/>
</g>
<!-- Node40 -->
<g id="node40" class="node">
<title>Node40</title>
<g id="a_node40"><a xlink:href="../../da/d39/classG4NucleiPropertiesTableAME12.html#a6c90fbe73e1ff7c54df96d044efa3af7" target="_top" xlink:title="G4NucleiPropertiesTableAME12\l::GetIndex">
<polygon fill="none" stroke="#000000" points="1098,-311.1546 1098,-343.1546 1272,-343.1546 1272,-311.1546 1098,-311.1546"/>
<text text-anchor="start" x="1106" y="-330.1546" font-family="FreeSans" font-size="10.00" fill="#000000">G4NucleiPropertiesTableAME12</text>
<text text-anchor="middle" x="1185" y="-318.1546" font-family="FreeSans" font-size="10.00" fill="#000000">::GetIndex</text>
</a>
</g>
</g>
<!-- Node39&#45;&gt;Node40 -->
<g id="edge44" class="edge">
<title>Node39&#45;&gt;Node40</title>
<path fill="none" stroke="#191970" d="M1012.5438,-253.2448C1047.6728,-268.3001 1100.2711,-290.8422 1138.1377,-307.0707"/>
<polygon fill="#191970" stroke="#191970" points="1136.8576,-310.33 1147.4278,-311.0522 1139.6151,-303.8959 1136.8576,-310.33"/>
</g>
<!-- Node40&#45;&gt;Node13 -->
<g id="edge46" class="edge">
<title>Node40&#45;&gt;Node13</title>
<path fill="none" stroke="#191970" d="M1272.2147,-312.9325C1307.2454,-307.2201 1344.9139,-301.0775 1368.8165,-297.1797"/>
<polygon fill="#191970" stroke="#191970" points="1369.4649,-300.6203 1378.7712,-295.5564 1368.3382,-293.7115 1369.4649,-300.6203"/>
</g>
<!-- Node40&#45;&gt;Node15 -->
<g id="edge45" class="edge">
<title>Node40&#45;&gt;Node15</title>
<path fill="none" stroke="#191970" d="M1272.2147,-329.246C1296.4769,-329.8279 1322.0045,-330.44 1343.3475,-330.9519"/>
<polygon fill="#191970" stroke="#191970" points="1343.3838,-334.4537 1353.4649,-331.1945 1343.5517,-327.4557 1343.3838,-334.4537"/>
</g>
<!-- Node43 -->
<g id="node43" class="node">
<title>Node43</title>
<g id="a_node43"><a xlink:href="../../db/d1f/classG4CameronGilbertPairingCorrections.html#a6de3e4d7719f83969c2fa0f70a540b8c" target="_top" xlink:title="G4CameronGilbertPairingCorrections\l::GetPairingCorrection">
<polygon fill="none" stroke="#000000" points="440,-149.1546 440,-181.1546 643,-181.1546 643,-149.1546 440,-149.1546"/>
<text text-anchor="start" x="448" y="-168.1546" font-family="FreeSans" font-size="10.00" fill="#000000">G4CameronGilbertPairingCorrections</text>
<text text-anchor="middle" x="541.5" y="-156.1546" font-family="FreeSans" font-size="10.00" fill="#000000">::GetPairingCorrection</text>
</a>
</g>
</g>
<!-- Node42&#45;&gt;Node43 -->
<g id="edge49" class="edge">
<title>Node42&#45;&gt;Node43</title>
<path fill="none" stroke="#191970" d="M371.1324,-165.1546C389.1934,-165.1546 409.4138,-165.1546 429.4408,-165.1546"/>
<polygon fill="#191970" stroke="#191970" points="429.5635,-168.6547 439.5635,-165.1546 429.5635,-161.6547 429.5635,-168.6547"/>
</g>
<!-- Node45&#45;&gt;Node13 -->
<g id="edge53" class="edge">
<title>Node45&#45;&gt;Node13</title>
<path fill="none" stroke="#191970" d="M1014.7393,-33.0081C1075.4353,-11.168 1192.5434,19.5828 1272,-31.1546 1358.8246,-86.5969 1384.5442,-221.8092 1391.3154,-273.0352"/>
<polygon fill="#191970" stroke="#191970" points="1387.8632,-273.6415 1392.5448,-283.1459 1394.812,-272.7965 1387.8632,-273.6415"/>
</g>
</g>
</svg>
