<?xml version="1.0" encoding="UTF-8" standalone="no"?>
<!DOCTYPE svg PUBLIC "-//W3C//DTD SVG 1.1//EN"
 "http://www.w3.org/Graphics/SVG/1.1/DTD/svg11.dtd">
<!-- Generated by graphviz version 2.40.1 (20161225.0304)
 -->
<!-- Title: G4VMaterialExtension Pages: 1 -->
<svg width="294pt" height="86pt"
 viewBox="0.00 0.00 293.50 86.00" xmlns="http://www.w3.org/2000/svg" xmlns:xlink="http://www.w3.org/1999/xlink">
<g id="graph0" class="graph" transform="scale(1 1) rotate(0) translate(4 82)">
<title>G4VMaterialExtension</title>
<!-- Node1 -->
<g id="node1" class="node">
<title>Node1</title>
<polygon fill="#bfbfbf" stroke="#000000" points="88,-57.5 88,-77.5 216,-77.5 216,-57.5 88,-57.5"/>
<text text-anchor="middle" x="152" y="-64.5" font-family="FreeSans" font-size="10.00" fill="#000000">G4VMaterialExtension</text>
</g>
<!-- Node2 -->
<g id="node2" class="node">
<title>Node2</title>
<g id="a_node2"><a xlink:href="../../d7/dbe/classG4ChannelingMaterialData.html" target="_top" xlink:title="G4ChannelingMaterialData">
<polygon fill="none" stroke="#000000" points="0,-.5 0,-20.5 152,-20.5 152,-.5 0,-.5"/>
<text text-anchor="middle" x="76" y="-7.5" font-family="FreeSans" font-size="10.00" fill="#000000">G4ChannelingMaterialData</text>
</a>
</g>
</g>
<!-- Node1&#45;&gt;Node2 -->
<g id="edge1" class="edge">
<title>Node1&#45;&gt;Node2</title>
<path fill="none" stroke="#191970" d="M130.3177,-51.2383C117.1609,-41.3707 100.7824,-29.0868 89.4696,-20.6022"/>
<polygon fill="#191970" stroke="#191970" points="128.3127,-54.1095 138.4127,-57.3095 132.5127,-48.5095 128.3127,-54.1095"/>
</g>
<!-- Node3 -->
<g id="node3" class="node">
<title>Node3</title>
<g id="a_node3"><a xlink:href="../../dd/db5/classG4CrystalExtension.html" target="_top" xlink:title="G4CrystalExtension">
<polygon fill="none" stroke="#000000" points="170.5,-.5 170.5,-20.5 285.5,-20.5 285.5,-.5 170.5,-.5"/>
<text text-anchor="middle" x="228" y="-7.5" font-family="FreeSans" font-size="10.00" fill="#000000">G4CrystalExtension</text>
</a>
</g>
</g>
<!-- Node1&#45;&gt;Node3 -->
<g id="edge2" class="edge">
<title>Node1&#45;&gt;Node3</title>
<path fill="none" stroke="#191970" d="M173.6823,-51.2383C186.8391,-41.3707 203.2176,-29.0868 214.5304,-20.6022"/>
<polygon fill="#191970" stroke="#191970" points="171.4873,-48.5095 165.5873,-57.3095 175.6873,-54.1095 171.4873,-48.5095"/>
</g>
</g>
</svg>
