<?xml version="1.0" encoding="UTF-8" standalone="no"?>
<!DOCTYPE svg PUBLIC "-//W3C//DTD SVG 1.1//EN"
 "http://www.w3.org/Graphics/SVG/1.1/DTD/svg11.dtd">
<!-- Generated by graphviz version 2.40.1 (20161225.0304)
 -->
<!-- Title: G4VScatteringCollision::BrWigInv Pages: 1 -->
<svg width="486pt" height="41pt"
 viewBox="0.00 0.00 486.00 41.00" xmlns="http://www.w3.org/2000/svg" xmlns:xlink="http://www.w3.org/1999/xlink">
<g id="graph0" class="graph" transform="scale(1 1) rotate(0) translate(4 37)">
<title>G4VScatteringCollision::BrWigInv</title>
<!-- Node1 -->
<g id="node1" class="node">
<title>Node1</title>
<polygon fill="#bfbfbf" stroke="#000000" points="0,-.5 0,-32.5 132,-32.5 132,-.5 0,-.5"/>
<text text-anchor="start" x="8" y="-19.5" font-family="FreeSans" font-size="10.00" fill="#000000">G4VScatteringCollision</text>
<text text-anchor="middle" x="66" y="-7.5" font-family="FreeSans" font-size="10.00" fill="#000000">::BrWigInv</text>
</g>
<!-- Node2 -->
<g id="node2" class="node">
<title>Node2</title>
<g id="a_node2"><a xlink:href="../../d2/d66/classG4VScatteringCollision.html#a3de989ce41a0da3a6cc89715435da8de" target="_top" xlink:title="G4VScatteringCollision\l::SampleResonanceMass">
<polygon fill="none" stroke="#000000" points="168,-.5 168,-32.5 310,-32.5 310,-.5 168,-.5"/>
<text text-anchor="start" x="176" y="-19.5" font-family="FreeSans" font-size="10.00" fill="#000000">G4VScatteringCollision</text>
<text text-anchor="middle" x="239" y="-7.5" font-family="FreeSans" font-size="10.00" fill="#000000">::SampleResonanceMass</text>
</a>
</g>
</g>
<!-- Node1&#45;&gt;Node2 -->
<g id="edge1" class="edge">
<title>Node1&#45;&gt;Node2</title>
<path fill="none" stroke="#191970" d="M142.5793,-16.5C151.0011,-16.5 159.55,-16.5 167.901,-16.5"/>
<polygon fill="#191970" stroke="#191970" points="142.3916,-13.0001 132.3915,-16.5 142.3915,-20.0001 142.3916,-13.0001"/>
</g>
<!-- Node3 -->
<g id="node3" class="node">
<title>Node3</title>
<g id="a_node3"><a xlink:href="../../d2/d66/classG4VScatteringCollision.html#a7b23c018fc7b05b455e417f2e338a1e8" target="_top" xlink:title="G4VScatteringCollision\l::FinalState">
<polygon fill="none" stroke="#000000" points="346,-.5 346,-32.5 478,-32.5 478,-.5 346,-.5"/>
<text text-anchor="start" x="354" y="-19.5" font-family="FreeSans" font-size="10.00" fill="#000000">G4VScatteringCollision</text>
<text text-anchor="middle" x="412" y="-7.5" font-family="FreeSans" font-size="10.00" fill="#000000">::FinalState</text>
</a>
</g>
</g>
<!-- Node2&#45;&gt;Node3 -->
<g id="edge2" class="edge">
<title>Node2&#45;&gt;Node3</title>
<path fill="none" stroke="#191970" d="M320.6088,-16.5C329.0505,-16.5 337.5544,-16.5 345.7977,-16.5"/>
<polygon fill="#191970" stroke="#191970" points="320.3646,-13.0001 310.3645,-16.5 320.3645,-20.0001 320.3646,-13.0001"/>
</g>
</g>
</svg>
