<?xml version="1.0" encoding="UTF-8" standalone="no"?>
<!DOCTYPE svg PUBLIC "-//W3C//DTD SVG 1.1//EN"
 "http://www.w3.org/Graphics/SVG/1.1/DTD/svg11.dtd">
<!-- Generated by graphviz version 2.40.1 (20161225.0304)
 -->
<!-- Title: geant4/tree/geant4&#45;10.6&#45;release/examples/extended/electromagnetic/TestEm2/src/RunActionMessenger.cc Pages: 1 -->
<svg width="1126pt" height="692pt"
 viewBox="0.00 0.00 1125.50 692.00" xmlns="http://www.w3.org/2000/svg" xmlns:xlink="http://www.w3.org/1999/xlink">
<g id="graph0" class="graph" transform="scale(1 1) rotate(0) translate(4 688)">
<title>geant4/tree/geant4&#45;10.6&#45;release/examples/extended/electromagnetic/TestEm2/src/RunActionMessenger.cc</title>
<!-- Node1 -->
<g id="node1" class="node">
<title>Node1</title>
<polygon fill="#bfbfbf" stroke="#000000" points="313.5,-627.5 313.5,-683.5 517.5,-683.5 517.5,-627.5 313.5,-627.5"/>
<text text-anchor="start" x="321.5" y="-670.5" font-family="FreeSans" font-size="10.00" fill="#000000">geant4/tree/geant4</text>
<text text-anchor="start" x="321.5" y="-658.5" font-family="FreeSans" font-size="10.00" fill="#000000">&#45;10.6&#45;release/examples</text>
<text text-anchor="start" x="321.5" y="-646.5" font-family="FreeSans" font-size="10.00" fill="#000000">/extended/electromagnetic</text>
<text text-anchor="middle" x="415.5" y="-634.5" font-family="FreeSans" font-size="10.00" fill="#000000">/TestEm2/src/RunActionMessenger.cc</text>
</g>
<!-- Node2 -->
<g id="node2" class="node">
<title>Node2</title>
<polygon fill="none" stroke="#bfbfbf" points="40,-570.5 40,-590.5 177,-590.5 177,-570.5 40,-570.5"/>
<text text-anchor="middle" x="108.5" y="-577.5" font-family="FreeSans" font-size="10.00" fill="#000000">RunActionMessenger.hh</text>
</g>
<!-- Node1&#45;&gt;Node2 -->
<g id="edge1" class="edge">
<title>Node1&#45;&gt;Node2</title>
<path fill="none" stroke="#191970" d="M313.2734,-630.5261C261.7085,-617.9288 201.4222,-603.2009 159.6766,-593.0024"/>
<polygon fill="#191970" stroke="#191970" points="160.289,-589.5492 149.744,-590.5759 158.6277,-596.3492 160.289,-589.5492"/>
</g>
<!-- Node3 -->
<g id="node3" class="node">
<title>Node3</title>
<polygon fill="none" stroke="#bfbfbf" points="195,-570.5 195,-590.5 278,-590.5 278,-570.5 195,-570.5"/>
<text text-anchor="middle" x="236.5" y="-577.5" font-family="FreeSans" font-size="10.00" fill="#000000">RunAction.hh</text>
</g>
<!-- Node1&#45;&gt;Node3 -->
<g id="edge2" class="edge">
<title>Node1&#45;&gt;Node3</title>
<path fill="none" stroke="#191970" d="M348.5925,-627.4661C321.7772,-616.2307 292.0668,-603.7822 269.9744,-594.5256"/>
<polygon fill="#191970" stroke="#191970" points="271.2768,-591.2765 260.7011,-590.6401 268.5716,-597.7327 271.2768,-591.2765"/>
</g>
<!-- Node4 -->
<g id="node4" class="node">
<title>Node4</title>
<g id="a_node4"><a xlink:href="../../d1/d47/G4UIdirectory_8hh.html" target="_top" xlink:title="G4UIdirectory.hh">
<polygon fill="none" stroke="#000000" points="296.5,-570.5 296.5,-590.5 396.5,-590.5 396.5,-570.5 296.5,-570.5"/>
<text text-anchor="middle" x="346.5" y="-577.5" font-family="FreeSans" font-size="10.00" fill="#000000">G4UIdirectory.hh</text>
</a>
</g>
</g>
<!-- Node1&#45;&gt;Node4 -->
<g id="edge3" class="edge">
<title>Node1&#45;&gt;Node4</title>
<path fill="none" stroke="#191970" d="M389.4141,-627.1457C380.5065,-617.4636 370.802,-606.9152 362.8783,-598.3025"/>
<polygon fill="#191970" stroke="#191970" points="365.2576,-595.7192 355.9112,-590.7296 360.106,-600.4586 365.2576,-595.7192"/>
</g>
<!-- Node39 -->
<g id="node39" class="node">
<title>Node39</title>
<g id="a_node39"><a xlink:href="../../d9/dbb/G4UIcmdWith3Vector_8hh.html" target="_top" xlink:title="G4UIcmdWith3Vector.hh">
<polygon fill="none" stroke="#000000" points="741,-570.5 741,-590.5 880,-590.5 880,-570.5 741,-570.5"/>
<text text-anchor="middle" x="810.5" y="-577.5" font-family="FreeSans" font-size="10.00" fill="#000000">G4UIcmdWith3Vector.hh</text>
</a>
</g>
</g>
<!-- Node1&#45;&gt;Node39 -->
<g id="edge56" class="edge">
<title>Node1&#45;&gt;Node39</title>
<path fill="none" stroke="#191970" d="M517.736,-636.0881C590.4912,-622.2738 685.9266,-604.1532 747.7287,-592.4186"/>
<polygon fill="#191970" stroke="#191970" points="748.5563,-595.8241 757.7279,-590.52 747.2505,-588.9469 748.5563,-595.8241"/>
</g>
<!-- Node40 -->
<g id="node40" class="node">
<title>Node40</title>
<g id="a_node40"><a xlink:href="../../d9/dcf/G4UIcmdWithAString_8hh.html" target="_top" xlink:title="G4UIcmdWithAString.hh">
<polygon fill="none" stroke="#000000" points="415,-570.5 415,-590.5 554,-590.5 554,-570.5 415,-570.5"/>
<text text-anchor="middle" x="484.5" y="-577.5" font-family="FreeSans" font-size="10.00" fill="#000000">G4UIcmdWithAString.hh</text>
</a>
</g>
</g>
<!-- Node1&#45;&gt;Node40 -->
<g id="edge59" class="edge">
<title>Node1&#45;&gt;Node40</title>
<path fill="none" stroke="#191970" d="M441.5859,-627.1457C450.4935,-617.4636 460.198,-606.9152 468.1217,-598.3025"/>
<polygon fill="#191970" stroke="#191970" points="470.894,-600.4586 475.0888,-590.7296 465.7424,-595.7192 470.894,-600.4586"/>
</g>
<!-- Node41 -->
<g id="node41" class="node">
<title>Node41</title>
<g id="a_node41"><a xlink:href="../../db/d96/G4UIcmdWithAnInteger_8hh.html" target="_top" xlink:title="G4UIcmdWithAnInteger.hh">
<polygon fill="none" stroke="#000000" points="572.5,-570.5 572.5,-590.5 722.5,-590.5 722.5,-570.5 572.5,-570.5"/>
<text text-anchor="middle" x="647.5" y="-577.5" font-family="FreeSans" font-size="10.00" fill="#000000">G4UIcmdWithAnInteger.hh</text>
</a>
</g>
</g>
<!-- Node1&#45;&gt;Node41 -->
<g id="edge61" class="edge">
<title>Node1&#45;&gt;Node41</title>
<path fill="none" stroke="#191970" d="M502.2182,-627.4661C538.0234,-615.8911 577.8112,-603.0287 606.6826,-593.6953"/>
<polygon fill="#191970" stroke="#191970" points="607.9766,-596.9554 616.4151,-590.549 605.8233,-590.2948 607.9766,-596.9554"/>
</g>
<!-- Node5 -->
<g id="node5" class="node">
<title>Node5</title>
<g id="a_node5"><a xlink:href="../../da/d5c/G4UIcommand_8hh.html" target="_top" xlink:title="G4UIcommand.hh">
<polygon fill="none" stroke="#000000" points="544,-513.5 544,-533.5 651,-533.5 651,-513.5 544,-513.5"/>
<text text-anchor="middle" x="597.5" y="-520.5" font-family="FreeSans" font-size="10.00" fill="#000000">G4UIcommand.hh</text>
</a>
</g>
</g>
<!-- Node4&#45;&gt;Node5 -->
<g id="edge4" class="edge">
<title>Node4&#45;&gt;Node5</title>
<path fill="none" stroke="#191970" d="M390.796,-570.4408C433.3193,-560.7841 497.64,-546.1774 543.2223,-535.826"/>
<polygon fill="#191970" stroke="#191970" points="544.2488,-539.1821 553.2254,-533.5544 542.6986,-532.3559 544.2488,-539.1821"/>
</g>
<!-- Node6 -->
<g id="node6" class="node">
<title>Node6</title>
<g id="a_node6"><a xlink:href="../../dd/d3f/G4UIparameter_8hh.html" target="_top" xlink:title="G4UIparameter.hh">
<polygon fill="none" stroke="#000000" points="592,-456.5 592,-476.5 701,-476.5 701,-456.5 592,-456.5"/>
<text text-anchor="middle" x="646.5" y="-463.5" font-family="FreeSans" font-size="10.00" fill="#000000">G4UIparameter.hh</text>
</a>
</g>
</g>
<!-- Node5&#45;&gt;Node6 -->
<g id="edge5" class="edge">
<title>Node5&#45;&gt;Node6</title>
<path fill="none" stroke="#191970" d="M606.2602,-513.3095C613.1585,-505.2851 622.9437,-493.9022 631.1374,-484.3708"/>
<polygon fill="#191970" stroke="#191970" points="633.9508,-486.467 637.8156,-476.6022 628.6426,-481.9038 633.9508,-486.467"/>
</g>
<!-- Node7 -->
<g id="node7" class="node">
<title>Node7</title>
<g id="a_node7"><a xlink:href="../../da/d46/globals_8hh.html" target="_top" xlink:title="globals.hh">
<polygon fill="none" stroke="#000000" points="556.5,-342.5 556.5,-362.5 624.5,-362.5 624.5,-342.5 556.5,-342.5"/>
<text text-anchor="middle" x="590.5" y="-349.5" font-family="FreeSans" font-size="10.00" fill="#000000">globals.hh</text>
</a>
</g>
</g>
<!-- Node5&#45;&gt;Node7 -->
<g id="edge46" class="edge">
<title>Node5&#45;&gt;Node7</title>
<path fill="none" stroke="#191970" d="M543.9557,-520.3139C483.1027,-515.4441 389.3611,-503.7231 367.5,-477 313.4932,-410.9817 466.5625,-373.8817 545.9999,-359.5164"/>
<polygon fill="#191970" stroke="#191970" points="546.9859,-362.8969 556.229,-357.7185 545.774,-356.0026 546.9859,-362.8969"/>
</g>
<!-- Node32 -->
<g id="node32" class="node">
<title>Node32</title>
<g id="a_node32"><a xlink:href="../../d7/deb/G4UItokenNum_8hh.html" target="_top" xlink:title="G4UItokenNum.hh">
<polygon fill="none" stroke="#000000" points="619,-399.5 619,-419.5 728,-419.5 728,-399.5 619,-399.5"/>
<text text-anchor="middle" x="673.5" y="-406.5" font-family="FreeSans" font-size="10.00" fill="#000000">G4UItokenNum.hh</text>
</a>
</g>
</g>
<!-- Node5&#45;&gt;Node32 -->
<g id="edge49" class="edge">
<title>Node5&#45;&gt;Node32</title>
<path fill="none" stroke="#191970" d="M651.2257,-514.6166C673.1274,-508.0646 696.3492,-496.6991 709.5,-477 720.3883,-460.6899 706.7399,-440.7388 693.2371,-426.7728"/>
<polygon fill="#191970" stroke="#191970" points="695.5309,-424.1223 685.9073,-419.6909 690.6669,-429.1564 695.5309,-424.1223"/>
</g>
<!-- Node33 -->
<g id="node33" class="node">
<title>Node33</title>
<g id="a_node33"><a xlink:href="../../d8/d65/G4ApplicationState_8hh.html" target="_top" xlink:title="G4ApplicationState.hh">
<polygon fill="none" stroke="#000000" points="376.5,-456.5 376.5,-476.5 506.5,-476.5 506.5,-456.5 376.5,-456.5"/>
<text text-anchor="middle" x="441.5" y="-463.5" font-family="FreeSans" font-size="10.00" fill="#000000">G4ApplicationState.hh</text>
</a>
</g>
</g>
<!-- Node5&#45;&gt;Node33 -->
<g id="edge47" class="edge">
<title>Node5&#45;&gt;Node33</title>
<path fill="none" stroke="#191970" d="M569.9694,-513.4408C544.54,-504.1492 506.5684,-490.275 478.4969,-480.0181"/>
<polygon fill="#191970" stroke="#191970" points="479.6111,-476.699 469.0173,-476.5544 477.2087,-483.2738 479.6111,-476.699"/>
</g>
<!-- Node34 -->
<g id="node34" class="node">
<title>Node34</title>
<polygon fill="none" stroke="#bfbfbf" points="525,-456.5 525,-476.5 574,-476.5 574,-456.5 525,-456.5"/>
<text text-anchor="middle" x="549.5" y="-463.5" font-family="FreeSans" font-size="10.00" fill="#000000">vector</text>
</g>
<!-- Node5&#45;&gt;Node34 -->
<g id="edge48" class="edge">
<title>Node5&#45;&gt;Node34</title>
<path fill="none" stroke="#191970" d="M588.9186,-513.3095C582.1611,-505.2851 572.5756,-493.9022 564.5491,-484.3708"/>
<polygon fill="#191970" stroke="#191970" points="567.1257,-481.9969 558.0071,-476.6022 561.7713,-486.5059 567.1257,-481.9969"/>
</g>
<!-- Node35 -->
<g id="node35" class="node">
<title>Node35</title>
<g id="a_node35"><a xlink:href="../../d8/dbe/G4ThreeVector_8hh.html" target="_top" xlink:title="G4ThreeVector.hh">
<polygon fill="none" stroke="#000000" points="757.5,-456.5 757.5,-476.5 863.5,-476.5 863.5,-456.5 757.5,-456.5"/>
<text text-anchor="middle" x="810.5" y="-463.5" font-family="FreeSans" font-size="10.00" fill="#000000">G4ThreeVector.hh</text>
</a>
</g>
</g>
<!-- Node5&#45;&gt;Node35 -->
<g id="edge50" class="edge">
<title>Node5&#45;&gt;Node35</title>
<path fill="none" stroke="#191970" d="M635.0898,-513.4408C670.7205,-503.9058 724.3852,-489.5448 762.9694,-479.2195"/>
<polygon fill="#191970" stroke="#191970" points="764.1731,-482.5206 772.9283,-476.5544 762.3634,-475.7585 764.1731,-482.5206"/>
</g>
<!-- Node6&#45;&gt;Node7 -->
<g id="edge6" class="edge">
<title>Node6&#45;&gt;Node7</title>
<path fill="none" stroke="#191970" d="M636.3503,-456.2698C628.0439,-447.3713 616.5532,-433.7743 609.5,-420 601.7942,-404.9513 596.8575,-386.3656 593.9532,-372.5091"/>
<polygon fill="#191970" stroke="#191970" points="597.3675,-371.7294 592.0457,-362.5681 590.4929,-373.0486 597.3675,-371.7294"/>
</g>
<!-- Node6&#45;&gt;Node32 -->
<g id="edge44" class="edge">
<title>Node6&#45;&gt;Node32</title>
<path fill="none" stroke="#191970" d="M651.3271,-456.3095C654.9362,-448.6903 659.9794,-438.0435 664.3444,-428.8285"/>
<polygon fill="#191970" stroke="#191970" points="667.5969,-430.1379 668.7147,-419.6022 661.2707,-427.1413 667.5969,-430.1379"/>
</g>
<!-- Node8 -->
<g id="node8" class="node">
<title>Node8</title>
<g id="a_node8"><a xlink:href="../../df/de9/G4ios_8hh.html" target="_top" xlink:title="G4ios.hh">
<polygon fill="none" stroke="#000000" points="699,-171.5 699,-191.5 760,-191.5 760,-171.5 699,-171.5"/>
<text text-anchor="middle" x="729.5" y="-178.5" font-family="FreeSans" font-size="10.00" fill="#000000">G4ios.hh</text>
</a>
</g>
</g>
<!-- Node7&#45;&gt;Node8 -->
<g id="edge7" class="edge">
<title>Node7&#45;&gt;Node8</title>
<path fill="none" stroke="#191970" d="M616.1284,-342.4632C649.7637,-327.719 707.3532,-296.6786 731.5,-249 738.8562,-234.475 737.6426,-215.8448 734.9923,-201.8379"/>
<polygon fill="#191970" stroke="#191970" points="738.3306,-200.7343 732.6951,-191.7626 731.5058,-202.2904 738.3306,-200.7343"/>
</g>
<!-- Node9 -->
<g id="node9" class="node">
<title>Node9</title>
<g id="a_node9"><a xlink:href="../../de/d29/G4Types_8hh.html" target="_top" xlink:title="G4Types.hh">
<polygon fill="none" stroke="#000000" points="219,-114.5 219,-134.5 294,-134.5 294,-114.5 219,-114.5"/>
<text text-anchor="middle" x="256.5" y="-121.5" font-family="FreeSans" font-size="10.00" fill="#000000">G4Types.hh</text>
</a>
</g>
</g>
<!-- Node7&#45;&gt;Node9 -->
<g id="edge15" class="edge">
<title>Node7&#45;&gt;Node9</title>
<path fill="none" stroke="#191970" d="M556.3798,-350.1275C484.6252,-344.7231 320.5952,-330.0696 270.5,-306 237.0551,-289.9305 224.2783,-283.0352 209.5,-249 198.1794,-222.9281 225.6435,-217.3498 238.5,-192 246.1184,-176.9783 250.7683,-158.3903 253.4284,-144.526"/>
<polygon fill="#191970" stroke="#191970" points="256.8933,-145.0292 255.1538,-134.5782 249.9962,-143.8329 256.8933,-145.0292"/>
</g>
<!-- Node14 -->
<g id="node14" class="node">
<title>Node14</title>
<polygon fill="none" stroke="#bfbfbf" points="559,-285.5 559,-305.5 624,-305.5 624,-285.5 559,-285.5"/>
<text text-anchor="middle" x="591.5" y="-292.5" font-family="FreeSans" font-size="10.00" fill="#000000">algorithm</text>
</g>
<!-- Node7&#45;&gt;Node14 -->
<g id="edge14" class="edge">
<title>Node7&#45;&gt;Node14</title>
<path fill="none" stroke="#191970" d="M590.6788,-342.3095C590.8082,-334.9335 590.9874,-324.72 591.1454,-315.715"/>
<polygon fill="#191970" stroke="#191970" points="594.6467,-315.6621 591.3228,-305.6022 587.6478,-315.5393 594.6467,-315.6621"/>
</g>
<!-- Node15 -->
<g id="node15" class="node">
<title>Node15</title>
<g id="a_node15"><a xlink:href="../../d2/df2/source_2global_2management_2include_2G4String_8hh.html" target="_top" xlink:title="G4String.hh">
<polygon fill="none" stroke="#000000" points="299.5,-171.5 299.5,-191.5 375.5,-191.5 375.5,-171.5 299.5,-171.5"/>
<text text-anchor="middle" x="337.5" y="-178.5" font-family="FreeSans" font-size="10.00" fill="#000000">G4String.hh</text>
</a>
</g>
</g>
<!-- Node7&#45;&gt;Node15 -->
<g id="edge16" class="edge">
<title>Node7&#45;&gt;Node15</title>
<path fill="none" stroke="#191970" d="M556.4929,-348.6667C471.7638,-338.3031 255.3411,-306.5589 217.5,-249 196.7124,-217.3806 247.5238,-199.055 289.3309,-189.6731"/>
<polygon fill="#191970" stroke="#191970" points="290.1141,-193.085 299.1707,-187.5869 288.6622,-186.2372 290.1141,-193.085"/>
</g>
<!-- Node20 -->
<g id="node20" class="node">
<title>Node20</title>
<g id="a_node20"><a xlink:href="../../d2/d54/templates_8hh.html" target="_top" xlink:title="templates.hh">
<polygon fill="none" stroke="#000000" points="814,-285.5 814,-305.5 897,-305.5 897,-285.5 814,-285.5"/>
<text text-anchor="middle" x="855.5" y="-292.5" font-family="FreeSans" font-size="10.00" fill="#000000">templates.hh</text>
</a>
</g>
</g>
<!-- Node7&#45;&gt;Node20 -->
<g id="edge23" class="edge">
<title>Node7&#45;&gt;Node20</title>
<path fill="none" stroke="#191970" d="M624.6016,-345.1649C670.0403,-335.3913 750.8485,-318.0099 803.8023,-306.6199"/>
<polygon fill="#191970" stroke="#191970" points="804.6364,-310.0206 813.6767,-304.4959 803.1643,-303.1771 804.6364,-310.0206"/>
</g>
<!-- Node23 -->
<g id="node23" class="node">
<title>Node23</title>
<g id="a_node23"><a xlink:href="../../d5/d4f/G4Exception_8hh.html" target="_top" xlink:title="G4Exception.hh">
<polygon fill="none" stroke="#000000" points="226.5,-228.5 226.5,-248.5 322.5,-248.5 322.5,-228.5 226.5,-228.5"/>
<text text-anchor="middle" x="274.5" y="-235.5" font-family="FreeSans" font-size="10.00" fill="#000000">G4Exception.hh</text>
</a>
</g>
</g>
<!-- Node7&#45;&gt;Node23 -->
<g id="edge26" class="edge">
<title>Node7&#45;&gt;Node23</title>
<path fill="none" stroke="#191970" d="M556.3944,-347.0195C517.3636,-340.1172 451.9401,-326.608 398.5,-306 361.9986,-291.9241 322.8113,-269.1615 298.4761,-254.0157"/>
<polygon fill="#191970" stroke="#191970" points="300.2391,-250.9897 289.9131,-248.6178 296.5062,-256.9113 300.2391,-250.9897"/>
</g>
<!-- Node26 -->
<g id="node26" class="node">
<title>Node26</title>
<g id="a_node26"><a xlink:href="../../dc/d3a/G4EnvironmentUtils_8hh.html" target="_top" xlink:title="G4EnvironmentUtils.hh">
<polygon fill="none" stroke="#000000" points="408,-285.5 408,-305.5 541,-305.5 541,-285.5 408,-285.5"/>
<text text-anchor="middle" x="474.5" y="-292.5" font-family="FreeSans" font-size="10.00" fill="#000000">G4EnvironmentUtils.hh</text>
</a>
</g>
</g>
<!-- Node7&#45;&gt;Node26 -->
<g id="edge32" class="edge">
<title>Node7&#45;&gt;Node26</title>
<path fill="none" stroke="#191970" d="M570.0286,-342.4408C551.7539,-333.461 524.7683,-320.2008 504.1357,-310.0624"/>
<polygon fill="#191970" stroke="#191970" points="505.6756,-306.9193 495.157,-305.6504 502.5884,-313.2019 505.6756,-306.9193"/>
</g>
<!-- Node8&#45;&gt;Node9 -->
<g id="edge8" class="edge">
<title>Node8&#45;&gt;Node9</title>
<path fill="none" stroke="#191970" d="M698.8643,-179.3304C630.128,-174.2121 458.2564,-160.0197 304.2548,-134.9611"/>
<polygon fill="#191970" stroke="#191970" points="304.574,-131.4666 294.1381,-133.2948 303.4363,-138.3735 304.574,-131.4666"/>
</g>
<!-- Node13 -->
<g id="node13" class="node">
<title>Node13</title>
<polygon fill="none" stroke="#bfbfbf" points="737.5,-114.5 737.5,-134.5 797.5,-134.5 797.5,-114.5 737.5,-114.5"/>
<text text-anchor="middle" x="767.5" y="-121.5" font-family="FreeSans" font-size="10.00" fill="#000000">iostream</text>
</g>
<!-- Node8&#45;&gt;Node13 -->
<g id="edge13" class="edge">
<title>Node8&#45;&gt;Node13</title>
<path fill="none" stroke="#191970" d="M736.2936,-171.3095C741.5352,-163.4472 748.9261,-152.3608 755.1995,-142.9507"/>
<polygon fill="#191970" stroke="#191970" points="758.1303,-144.8642 760.7652,-134.6022 752.3059,-140.9813 758.1303,-144.8642"/>
</g>
<!-- Node10 -->
<g id="node10" class="node">
<title>Node10</title>
<polygon fill="none" stroke="#bfbfbf" points="176,-.5 176,-20.5 287,-20.5 287,-.5 176,-.5"/>
<text text-anchor="middle" x="231.5" y="-7.5" font-family="FreeSans" font-size="10.00" fill="#000000">G4GlobalConfig.hh</text>
</g>
<!-- Node9&#45;&gt;Node10 -->
<g id="edge9" class="edge">
<title>Node9&#45;&gt;Node10</title>
<path fill="none" stroke="#191970" d="M247.1259,-114.3495C239.6356,-105.4996 229.7174,-91.9292 225.5,-78 220.8191,-62.5402 222.8849,-44.2477 225.8071,-30.6078"/>
<polygon fill="#191970" stroke="#191970" points="229.2273,-31.3562 228.2216,-20.8092 222.4306,-29.6813 229.2273,-31.3562"/>
</g>
<!-- Node11 -->
<g id="node11" class="node">
<title>Node11</title>
<polygon fill="none" stroke="#bfbfbf" points="297,-57.5 297,-77.5 356,-77.5 356,-57.5 297,-57.5"/>
<text text-anchor="middle" x="326.5" y="-64.5" font-family="FreeSans" font-size="10.00" fill="#000000">complex</text>
</g>
<!-- Node9&#45;&gt;Node11 -->
<g id="edge10" class="edge">
<title>Node9&#45;&gt;Node11</title>
<path fill="none" stroke="#191970" d="M269.0146,-114.3095C279.3669,-105.8798 294.2706,-93.7439 306.3087,-83.9415"/>
<polygon fill="#191970" stroke="#191970" points="308.5494,-86.6306 314.0937,-77.6022 304.1294,-81.2025 308.5494,-86.6306"/>
</g>
<!-- Node12 -->
<g id="node12" class="node">
<title>Node12</title>
<g id="a_node12"><a xlink:href="../../d0/d00/tls_8hh.html" target="_top" xlink:title="tls.hh">
<polygon fill="none" stroke="#000000" points="234.5,-57.5 234.5,-77.5 278.5,-77.5 278.5,-57.5 234.5,-57.5"/>
<text text-anchor="middle" x="256.5" y="-64.5" font-family="FreeSans" font-size="10.00" fill="#000000">tls.hh</text>
</a>
</g>
</g>
<!-- Node9&#45;&gt;Node12 -->
<g id="edge11" class="edge">
<title>Node9&#45;&gt;Node12</title>
<path fill="none" stroke="#191970" d="M256.5,-114.3095C256.5,-106.9335 256.5,-96.72 256.5,-87.715"/>
<polygon fill="#191970" stroke="#191970" points="260.0001,-87.6022 256.5,-77.6022 253.0001,-87.6023 260.0001,-87.6022"/>
</g>
<!-- Node12&#45;&gt;Node10 -->
<g id="edge12" class="edge">
<title>Node12&#45;&gt;Node10</title>
<path fill="none" stroke="#191970" d="M252.0305,-57.3095C248.6887,-49.6903 244.0191,-39.0435 239.9774,-29.8285"/>
<polygon fill="#191970" stroke="#191970" points="243.1527,-28.3543 235.9308,-20.6022 236.7422,-31.166 243.1527,-28.3543"/>
</g>
<!-- Node15&#45;&gt;Node9 -->
<g id="edge20" class="edge">
<title>Node15&#45;&gt;Node9</title>
<path fill="none" stroke="#191970" d="M323.0188,-171.3095C310.8093,-162.7177 293.1287,-150.2758 279.0643,-140.3786"/>
<polygon fill="#191970" stroke="#191970" points="281.0481,-137.4949 270.8558,-134.6022 277.0196,-143.2195 281.0481,-137.4949"/>
</g>
<!-- Node15&#45;&gt;Node13 -->
<g id="edge21" class="edge">
<title>Node15&#45;&gt;Node13</title>
<path fill="none" stroke="#191970" d="M375.6596,-176.4416C456.5736,-165.7158 644.7051,-140.7775 727.3472,-129.8226"/>
<polygon fill="#191970" stroke="#191970" points="727.9021,-133.2797 737.3554,-128.4959 726.9822,-126.3404 727.9021,-133.2797"/>
</g>
<!-- Node16 -->
<g id="node16" class="node">
<title>Node16</title>
<polygon fill="none" stroke="#bfbfbf" points="476.5,-114.5 476.5,-134.5 526.5,-134.5 526.5,-114.5 476.5,-114.5"/>
<text text-anchor="middle" x="501.5" y="-121.5" font-family="FreeSans" font-size="10.00" fill="#000000">stdio.h</text>
</g>
<!-- Node15&#45;&gt;Node16 -->
<g id="edge17" class="edge">
<title>Node15&#45;&gt;Node16</title>
<path fill="none" stroke="#191970" d="M366.4424,-171.4408C394.4493,-161.7067 436.9275,-146.9429 466.7495,-136.5779"/>
<polygon fill="#191970" stroke="#191970" points="468.042,-139.8342 476.3387,-133.2451 465.7438,-133.2221 468.042,-139.8342"/>
</g>
<!-- Node17 -->
<g id="node17" class="node">
<title>Node17</title>
<polygon fill="none" stroke="#bfbfbf" points="0,-114.5 0,-134.5 45,-134.5 45,-114.5 0,-114.5"/>
<text text-anchor="middle" x="22.5" y="-121.5" font-family="FreeSans" font-size="10.00" fill="#000000">string</text>
</g>
<!-- Node15&#45;&gt;Node17 -->
<g id="edge18" class="edge">
<title>Node15&#45;&gt;Node17</title>
<path fill="none" stroke="#191970" d="M299.2924,-176.983C244.7462,-170.1324 141.6211,-155.6866 55.5,-135 55.2881,-134.9491 55.0756,-134.8975 54.8625,-134.8453"/>
<polygon fill="#191970" stroke="#191970" points="55.6708,-131.4378 45.101,-132.1657 53.8177,-138.1881 55.6708,-131.4378"/>
</g>
<!-- Node18 -->
<g id="node18" class="node">
<title>Node18</title>
<polygon fill="none" stroke="#bfbfbf" points="312.5,-114.5 312.5,-134.5 362.5,-134.5 362.5,-114.5 312.5,-114.5"/>
<text text-anchor="middle" x="337.5" y="-121.5" font-family="FreeSans" font-size="10.00" fill="#000000">cstring</text>
</g>
<!-- Node15&#45;&gt;Node18 -->
<g id="edge19" class="edge">
<title>Node15&#45;&gt;Node18</title>
<path fill="none" stroke="#191970" d="M337.5,-171.3095C337.5,-163.9335 337.5,-153.72 337.5,-144.715"/>
<polygon fill="#191970" stroke="#191970" points="341.0001,-144.6022 337.5,-134.6022 334.0001,-144.6023 341.0001,-144.6022"/>
</g>
<!-- Node19 -->
<g id="node19" class="node">
<title>Node19</title>
<polygon fill="none" stroke="#bfbfbf" points="380.5,-114.5 380.5,-134.5 458.5,-134.5 458.5,-114.5 380.5,-114.5"/>
<text text-anchor="middle" x="419.5" y="-121.5" font-family="FreeSans" font-size="10.00" fill="#000000">G4String.icc</text>
</g>
<!-- Node15&#45;&gt;Node19 -->
<g id="edge22" class="edge">
<title>Node15&#45;&gt;Node19</title>
<path fill="none" stroke="#191970" d="M352.16,-171.3095C364.5202,-162.7177 382.4191,-150.2758 396.6571,-140.3786"/>
<polygon fill="#191970" stroke="#191970" points="398.7536,-143.1839 404.967,-134.6022 394.7581,-137.4361 398.7536,-143.1839"/>
</g>
<!-- Node21 -->
<g id="node21" class="node">
<title>Node21</title>
<polygon fill="none" stroke="#bfbfbf" points="833.5,-228.5 833.5,-248.5 877.5,-248.5 877.5,-228.5 833.5,-228.5"/>
<text text-anchor="middle" x="855.5" y="-235.5" font-family="FreeSans" font-size="10.00" fill="#000000">limits</text>
</g>
<!-- Node20&#45;&gt;Node21 -->
<g id="edge24" class="edge">
<title>Node20&#45;&gt;Node21</title>
<path fill="none" stroke="#191970" d="M855.5,-285.3095C855.5,-277.9335 855.5,-267.72 855.5,-258.715"/>
<polygon fill="#191970" stroke="#191970" points="859.0001,-258.6022 855.5,-248.6022 852.0001,-258.6023 859.0001,-258.6022"/>
</g>
<!-- Node22 -->
<g id="node22" class="node">
<title>Node22</title>
<polygon fill="none" stroke="#bfbfbf" points="896,-228.5 896,-248.5 945,-248.5 945,-228.5 896,-228.5"/>
<text text-anchor="middle" x="920.5" y="-235.5" font-family="FreeSans" font-size="10.00" fill="#000000">climits</text>
</g>
<!-- Node20&#45;&gt;Node22 -->
<g id="edge25" class="edge">
<title>Node20&#45;&gt;Node22</title>
<path fill="none" stroke="#191970" d="M867.1207,-285.3095C876.6412,-276.9608 890.307,-264.9769 901.4277,-255.2249"/>
<polygon fill="#191970" stroke="#191970" points="903.7689,-257.827 908.9799,-248.6022 899.1536,-252.564 903.7689,-257.827"/>
</g>
<!-- Node23&#45;&gt;Node8 -->
<g id="edge27" class="edge">
<title>Node23&#45;&gt;Node8</title>
<path fill="none" stroke="#191970" d="M322.6647,-229.3971C325.651,-228.9042 328.6144,-228.4339 331.5,-228 461.6549,-208.4305 616.8115,-192.3888 688.9263,-185.3491"/>
<polygon fill="#191970" stroke="#191970" points="689.3355,-188.8259 698.9507,-184.3764 688.6594,-181.8586 689.3355,-188.8259"/>
</g>
<!-- Node23&#45;&gt;Node15 -->
<g id="edge28" class="edge">
<title>Node23&#45;&gt;Node15</title>
<path fill="none" stroke="#191970" d="M285.7631,-228.3095C294.9011,-220.0419 307.9792,-208.2093 318.7,-198.5096"/>
<polygon fill="#191970" stroke="#191970" points="321.2672,-200.9068 326.3344,-191.6022 316.5708,-195.716 321.2672,-200.9068"/>
</g>
<!-- Node24 -->
<g id="node24" class="node">
<title>Node24</title>
<g id="a_node24"><a xlink:href="../../d9/d05/G4VExceptionHandler_8hh.html" target="_top" xlink:title="G4VExceptionHandler.hh">
<polygon fill="none" stroke="#000000" points="87.5,-171.5 87.5,-191.5 229.5,-191.5 229.5,-171.5 87.5,-171.5"/>
<text text-anchor="middle" x="158.5" y="-178.5" font-family="FreeSans" font-size="10.00" fill="#000000">G4VExceptionHandler.hh</text>
</a>
</g>
</g>
<!-- Node23&#45;&gt;Node24 -->
<g id="edge29" class="edge">
<title>Node23&#45;&gt;Node24</title>
<path fill="none" stroke="#191970" d="M254.0286,-228.4408C235.7539,-219.461 208.7683,-206.2008 188.1357,-196.0624"/>
<polygon fill="#191970" stroke="#191970" points="189.6756,-192.9193 179.157,-191.6504 186.5884,-199.2019 189.6756,-192.9193"/>
</g>
<!-- Node24&#45;&gt;Node9 -->
<g id="edge30" class="edge">
<title>Node24&#45;&gt;Node9</title>
<path fill="none" stroke="#191970" d="M176.0204,-171.3095C191.0712,-162.5556 212.9933,-149.8049 230.1584,-139.8211"/>
<polygon fill="#191970" stroke="#191970" points="232.2468,-142.6555 239.1312,-134.6022 228.7273,-136.6046 232.2468,-142.6555"/>
</g>
<!-- Node25 -->
<g id="node25" class="node">
<title>Node25</title>
<g id="a_node25"><a xlink:href="../../d6/d7e/G4ExceptionSeverity_8hh.html" target="_top" xlink:title="G4ExceptionSeverity.hh">
<polygon fill="none" stroke="#000000" points="64.5,-114.5 64.5,-134.5 200.5,-134.5 200.5,-114.5 64.5,-114.5"/>
<text text-anchor="middle" x="132.5" y="-121.5" font-family="FreeSans" font-size="10.00" fill="#000000">G4ExceptionSeverity.hh</text>
</a>
</g>
</g>
<!-- Node24&#45;&gt;Node25 -->
<g id="edge31" class="edge">
<title>Node24&#45;&gt;Node25</title>
<path fill="none" stroke="#191970" d="M153.8517,-171.3095C150.3763,-163.6903 145.5198,-153.0435 141.3165,-143.8285"/>
<polygon fill="#191970" stroke="#191970" points="144.4425,-142.2479 137.108,-134.6022 138.0738,-145.153 144.4425,-142.2479"/>
</g>
<!-- Node26&#45;&gt;Node8 -->
<g id="edge40" class="edge">
<title>Node26&#45;&gt;Node8</title>
<path fill="none" stroke="#191970" d="M541.2616,-285.9819C606.5857,-276.0941 698.0539,-260.49 710.5,-249 723.3307,-237.1549 727.7481,-217.3926 729.1521,-202.3038"/>
<polygon fill="#191970" stroke="#191970" points="732.6707,-202.0627 729.7278,-191.8848 725.6813,-201.6764 732.6707,-202.0627"/>
</g>
<!-- Node26&#45;&gt;Node13 -->
<g id="edge37" class="edge">
<title>Node26&#45;&gt;Node13</title>
<path fill="none" stroke="#191970" d="M541.3063,-286.1748C612.0667,-275.8623 715.7457,-259.3419 731.5,-249 756.9527,-232.2916 760.677,-221.1405 769.5,-192 774.1183,-176.7467 773.268,-158.6598 771.4546,-145.0495"/>
<polygon fill="#191970" stroke="#191970" points="774.8538,-144.1441 769.8037,-134.8303 767.9434,-145.2605 774.8538,-144.1441"/>
</g>
<!-- Node26&#45;&gt;Node15 -->
<g id="edge41" class="edge">
<title>Node26&#45;&gt;Node15</title>
<path fill="none" stroke="#191970" d="M463.5914,-285.1188C449.231,-271.5851 423.0439,-247.3589 399.5,-228 386.7883,-217.5479 372.0704,-206.4686 360.165,-197.7474"/>
<polygon fill="#191970" stroke="#191970" points="362.2086,-194.9059 352.0621,-191.8565 358.0923,-200.5678 362.2086,-194.9059"/>
</g>
<!-- Node26&#45;&gt;Node17 -->
<g id="edge34" class="edge">
<title>Node26&#45;&gt;Node17</title>
<path fill="none" stroke="#191970" d="M407.742,-291.5163C321.5962,-285.5215 177.1303,-272.3225 129.5,-249 82.7903,-226.1283 48.3032,-172.6021 32.3479,-143.7461"/>
<polygon fill="#191970" stroke="#191970" points="35.2902,-141.826 27.4875,-134.6588 29.1176,-145.1275 35.2902,-141.826"/>
</g>
<!-- Node26&#45;&gt;Node23 -->
<g id="edge42" class="edge">
<title>Node26&#45;&gt;Node23</title>
<path fill="none" stroke="#191970" d="M439.2044,-285.4408C405.8907,-275.9464 355.7875,-261.6669 319.593,-251.3515"/>
<polygon fill="#191970" stroke="#191970" points="320.3549,-247.9294 309.7786,-248.5544 318.4363,-254.6613 320.3549,-247.9294"/>
</g>
<!-- Node26&#45;&gt;Node25 -->
<g id="edge43" class="edge">
<title>Node26&#45;&gt;Node25</title>
<path fill="none" stroke="#191970" d="M407.6286,-288.5289C304.5848,-276.1692 115.0153,-246.4402 78.5,-192 66.031,-173.4101 86.4234,-153.5684 105.6172,-140.2443"/>
<polygon fill="#191970" stroke="#191970" points="107.7779,-143.0132 114.2292,-134.609 103.945,-137.1558 107.7779,-143.0132"/>
</g>
<!-- Node27 -->
<g id="node27" class="node">
<title>Node27</title>
<polygon fill="none" stroke="#bfbfbf" points="340.5,-228.5 340.5,-248.5 390.5,-248.5 390.5,-228.5 340.5,-228.5"/>
<text text-anchor="middle" x="365.5" y="-235.5" font-family="FreeSans" font-size="10.00" fill="#000000">cstdlib</text>
</g>
<!-- Node26&#45;&gt;Node27 -->
<g id="edge33" class="edge">
<title>Node26&#45;&gt;Node27</title>
<path fill="none" stroke="#191970" d="M455.2639,-285.4408C438.2467,-276.5419 413.1911,-263.4394 393.8728,-253.3371"/>
<polygon fill="#191970" stroke="#191970" points="395.3939,-250.1829 384.9104,-248.6504 392.15,-256.386 395.3939,-250.1829"/>
</g>
<!-- Node28 -->
<g id="node28" class="node">
<title>Node28</title>
<polygon fill="none" stroke="#bfbfbf" points="446.5,-228.5 446.5,-248.5 502.5,-248.5 502.5,-228.5 446.5,-228.5"/>
<text text-anchor="middle" x="474.5" y="-235.5" font-family="FreeSans" font-size="10.00" fill="#000000">sstream</text>
</g>
<!-- Node26&#45;&gt;Node28 -->
<g id="edge35" class="edge">
<title>Node26&#45;&gt;Node28</title>
<path fill="none" stroke="#191970" d="M474.5,-285.3095C474.5,-277.9335 474.5,-267.72 474.5,-258.715"/>
<polygon fill="#191970" stroke="#191970" points="478.0001,-258.6022 474.5,-248.6022 471.0001,-258.6023 478.0001,-258.6022"/>
</g>
<!-- Node29 -->
<g id="node29" class="node">
<title>Node29</title>
<polygon fill="none" stroke="#bfbfbf" points="521,-228.5 521,-248.5 560,-248.5 560,-228.5 521,-228.5"/>
<text text-anchor="middle" x="540.5" y="-235.5" font-family="FreeSans" font-size="10.00" fill="#000000">map</text>
</g>
<!-- Node26&#45;&gt;Node29 -->
<g id="edge36" class="edge">
<title>Node26&#45;&gt;Node29</title>
<path fill="none" stroke="#191970" d="M486.2995,-285.3095C495.9664,-276.9608 509.8425,-264.9769 521.1343,-255.2249"/>
<polygon fill="#191970" stroke="#191970" points="523.5221,-257.7874 528.8027,-248.6022 518.9467,-252.4896 523.5221,-257.7874"/>
</g>
<!-- Node30 -->
<g id="node30" class="node">
<title>Node30</title>
<polygon fill="none" stroke="#bfbfbf" points="578,-228.5 578,-248.5 635,-248.5 635,-228.5 578,-228.5"/>
<text text-anchor="middle" x="606.5" y="-235.5" font-family="FreeSans" font-size="10.00" fill="#000000">iomanip</text>
</g>
<!-- Node26&#45;&gt;Node30 -->
<g id="edge38" class="edge">
<title>Node26&#45;&gt;Node30</title>
<path fill="none" stroke="#191970" d="M497.7951,-285.4408C518.8714,-276.3396 550.1299,-262.8416 573.7245,-252.6531"/>
<polygon fill="#191970" stroke="#191970" points="575.2007,-255.8281 582.9938,-248.6504 572.4256,-249.4016 575.2007,-255.8281"/>
</g>
<!-- Node31 -->
<g id="node31" class="node">
<title>Node31</title>
<polygon fill="none" stroke="#bfbfbf" points="653.5,-228.5 653.5,-248.5 701.5,-248.5 701.5,-228.5 653.5,-228.5"/>
<text text-anchor="middle" x="677.5" y="-235.5" font-family="FreeSans" font-size="10.00" fill="#000000">mutex</text>
</g>
<!-- Node26&#45;&gt;Node31 -->
<g id="edge39" class="edge">
<title>Node26&#45;&gt;Node31</title>
<path fill="none" stroke="#191970" d="M512.1832,-285.4907C546.4947,-276.2917 598.5143,-262.1318 643.5,-249 643.6001,-248.9708 643.7003,-248.9415 643.8007,-248.9122"/>
<polygon fill="#191970" stroke="#191970" points="644.8024,-252.2658 653.3818,-246.0494 642.7984,-245.5588 644.8024,-252.2658"/>
</g>
<!-- Node32&#45;&gt;Node7 -->
<g id="edge45" class="edge">
<title>Node32&#45;&gt;Node7</title>
<path fill="none" stroke="#191970" d="M658.6613,-399.3095C646.1503,-390.7177 628.0331,-378.2758 613.6215,-368.3786"/>
<polygon fill="#191970" stroke="#191970" points="615.435,-365.3782 605.2103,-362.6022 611.4722,-371.1485 615.435,-365.3782"/>
</g>
<!-- Node35&#45;&gt;Node7 -->
<g id="edge51" class="edge">
<title>Node35&#45;&gt;Node7</title>
<path fill="none" stroke="#191970" d="M802.1219,-456.3119C789.5413,-441.6384 764.3652,-414.6082 737.5,-399 705.3733,-380.3349 664.8676,-368.2399 634.5148,-361.0776"/>
<polygon fill="#191970" stroke="#191970" points="635.164,-357.636 624.6373,-358.8354 633.6144,-364.4623 635.164,-357.636"/>
</g>
<!-- Node36 -->
<g id="node36" class="node">
<title>Node36</title>
<g id="a_node36"><a xlink:href="../../dd/dbb/ThreeVector_8h.html" target="_top" xlink:title="CLHEP/Vector/ThreeVector.h">
<polygon fill="none" stroke="#000000" points="867,-399.5 867,-419.5 1024,-419.5 1024,-399.5 867,-399.5"/>
<text text-anchor="middle" x="945.5" y="-406.5" font-family="FreeSans" font-size="10.00" fill="#000000">CLHEP/Vector/ThreeVector.h</text>
</a>
</g>
</g>
<!-- Node35&#45;&gt;Node36 -->
<g id="edge52" class="edge">
<title>Node35&#45;&gt;Node36</title>
<path fill="none" stroke="#191970" d="M834.3245,-456.4408C855.8799,-447.3396 887.8487,-433.8416 911.9796,-423.6531"/>
<polygon fill="#191970" stroke="#191970" points="913.6085,-426.7646 921.4595,-419.6504 910.8856,-420.3158 913.6085,-426.7646"/>
</g>
<!-- Node36&#45;&gt;Node13 -->
<g id="edge53" class="edge">
<title>Node36&#45;&gt;Node13</title>
<path fill="none" stroke="#191970" d="M949.7526,-399.3322C957.5855,-379.654 973.5,-334.8332 973.5,-295.5 973.5,-295.5 973.5,-295.5 973.5,-238.5 973.5,-163.5391 867.7838,-137.4745 807.8151,-128.7194"/>
<polygon fill="#191970" stroke="#191970" points="808.2771,-125.25 797.896,-127.3676 807.3318,-132.1859 808.2771,-125.25"/>
</g>
<!-- Node37 -->
<g id="node37" class="node">
<title>Node37</title>
<g id="a_node37"><a xlink:href="../../d5/d64/defs_8h.html" target="_top" xlink:title="CLHEP/Utility/defs.h">
<polygon fill="none" stroke="#000000" points="1001.5,-342.5 1001.5,-362.5 1117.5,-362.5 1117.5,-342.5 1001.5,-342.5"/>
<text text-anchor="middle" x="1059.5" y="-349.5" font-family="FreeSans" font-size="10.00" fill="#000000">CLHEP/Utility/defs.h</text>
</a>
</g>
</g>
<!-- Node36&#45;&gt;Node37 -->
<g id="edge54" class="edge">
<title>Node36&#45;&gt;Node37</title>
<path fill="none" stroke="#191970" d="M965.6185,-399.4408C983.4972,-390.5014 1009.8596,-377.3202 1030.1009,-367.1996"/>
<polygon fill="#191970" stroke="#191970" points="1031.8202,-370.2531 1039.1992,-362.6504 1028.6896,-363.9921 1031.8202,-370.2531"/>
</g>
<!-- Node38 -->
<g id="node38" class="node">
<title>Node38</title>
<polygon fill="none" stroke="#bfbfbf" points="780,-342.5 780,-362.5 945,-362.5 945,-342.5 780,-342.5"/>
<text text-anchor="middle" x="862.5" y="-349.5" font-family="FreeSans" font-size="10.00" fill="#000000">CLHEP/Vector/ThreeVector.icc</text>
</g>
<!-- Node36&#45;&gt;Node38 -->
<g id="edge55" class="edge">
<title>Node36&#45;&gt;Node38</title>
<path fill="none" stroke="#191970" d="M930.6613,-399.3095C918.1503,-390.7177 900.0331,-378.2758 885.6215,-368.3786"/>
<polygon fill="#191970" stroke="#191970" points="887.435,-365.3782 877.2103,-362.6022 883.4722,-371.1485 887.435,-365.3782"/>
</g>
<!-- Node39&#45;&gt;Node5 -->
<g id="edge57" class="edge">
<title>Node39&#45;&gt;Node5</title>
<path fill="none" stroke="#191970" d="M772.9102,-570.4408C737.2795,-560.9058 683.6148,-546.5448 645.0306,-536.2195"/>
<polygon fill="#191970" stroke="#191970" points="645.6366,-532.7585 635.0717,-533.5544 643.8269,-539.5206 645.6366,-532.7585"/>
</g>
<!-- Node39&#45;&gt;Node35 -->
<g id="edge58" class="edge">
<title>Node39&#45;&gt;Node35</title>
<path fill="none" stroke="#191970" d="M810.5,-570.3833C810.5,-551.6703 810.5,-511.3266 810.5,-486.7866"/>
<polygon fill="#191970" stroke="#191970" points="814.0001,-486.7579 810.5,-476.7579 807.0001,-486.758 814.0001,-486.7579"/>
</g>
<!-- Node40&#45;&gt;Node5 -->
<g id="edge60" class="edge">
<title>Node40&#45;&gt;Node5</title>
<path fill="none" stroke="#191970" d="M504.442,-570.4408C522.1639,-561.5014 548.2951,-548.3202 568.3588,-538.1996"/>
<polygon fill="#191970" stroke="#191970" points="570.0251,-541.2791 577.3772,-533.6504 566.8725,-535.0292 570.0251,-541.2791"/>
</g>
<!-- Node41&#45;&gt;Node5 -->
<g id="edge62" class="edge">
<title>Node41&#45;&gt;Node5</title>
<path fill="none" stroke="#191970" d="M638.561,-570.3095C631.522,-562.2851 621.5371,-550.9022 613.1762,-541.3708"/>
<polygon fill="#191970" stroke="#191970" points="615.5872,-538.8118 606.3616,-533.6022 610.3249,-543.4279 615.5872,-538.8118"/>
</g>
</g>
</svg>
