<?xml version="1.0" encoding="UTF-8" standalone="no"?>
<!DOCTYPE svg PUBLIC "-//W3C//DTD SVG 1.1//EN"
 "http://www.w3.org/Graphics/SVG/1.1/DTD/svg11.dtd">
<!-- Generated by graphviz version 2.40.1 (20161225.0304)
 -->
<!-- Title: G4NuclNuclDiffuseElastic::SampleInvariantT Pages: 1 -->
<svg width="1654pt" height="545pt"
 viewBox="0.00 0.00 1654.00 545.00" xmlns="http://www.w3.org/2000/svg" xmlns:xlink="http://www.w3.org/1999/xlink">
<g id="graph0" class="graph" transform="scale(1 1) rotate(0) translate(4 541)">
<title>G4NuclNuclDiffuseElastic::SampleInvariantT</title>
<!-- Node1 -->
<g id="node1" class="node">
<title>Node1</title>
<polygon fill="#bfbfbf" stroke="#000000" points="0,-223.5 0,-255.5 144,-255.5 144,-223.5 0,-223.5"/>
<text text-anchor="start" x="8" y="-242.5" font-family="FreeSans" font-size="10.00" fill="#000000">G4NuclNuclDiffuseElastic</text>
<text text-anchor="middle" x="72" y="-230.5" font-family="FreeSans" font-size="10.00" fill="#000000">::SampleInvariantT</text>
</g>
<!-- Node2 -->
<g id="node2" class="node">
<title>Node2</title>
<g id="a_node2"><a xlink:href="../../dc/df4/classCLHEP_1_1HepLorentzVector.html#a2a6aac189de495232a7a4ef3b0945903" target="_top" xlink:title="CLHEP::HepLorentzVector\l::boost">
<polygon fill="none" stroke="#000000" points="180,-405.5 180,-437.5 326,-437.5 326,-405.5 180,-405.5"/>
<text text-anchor="start" x="188" y="-424.5" font-family="FreeSans" font-size="10.00" fill="#000000">CLHEP::HepLorentzVector</text>
<text text-anchor="middle" x="253" y="-412.5" font-family="FreeSans" font-size="10.00" fill="#000000">::boost</text>
</a>
</g>
</g>
<!-- Node1&#45;&gt;Node2 -->
<g id="edge1" class="edge">
<title>Node1&#45;&gt;Node2</title>
<path fill="none" stroke="#191970" d="M78.9389,-255.8393C93.2121,-287.5465 128.8709,-357.7046 180,-396.5 181.8209,-397.8816 183.7233,-399.1902 185.6884,-400.4292"/>
<polygon fill="#191970" stroke="#191970" points="184.2083,-403.6113 194.6463,-405.4276 187.6192,-397.4985 184.2083,-403.6113"/>
</g>
<!-- Node3 -->
<g id="node3" class="node">
<title>Node3</title>
<g id="a_node3"><a xlink:href="../../dc/df4/classCLHEP_1_1HepLorentzVector.html#a4bf2074d0469443c61ccac560657d114" target="_top" xlink:title="CLHEP::HepLorentzVector\l::boostVector">
<polygon fill="none" stroke="#000000" points="180,-354.5 180,-386.5 326,-386.5 326,-354.5 180,-354.5"/>
<text text-anchor="start" x="188" y="-373.5" font-family="FreeSans" font-size="10.00" fill="#000000">CLHEP::HepLorentzVector</text>
<text text-anchor="middle" x="253" y="-361.5" font-family="FreeSans" font-size="10.00" fill="#000000">::boostVector</text>
</a>
</g>
</g>
<!-- Node1&#45;&gt;Node3 -->
<g id="edge2" class="edge">
<title>Node1&#45;&gt;Node3</title>
<path fill="none" stroke="#191970" d="M87.7236,-255.7563C107.8224,-275.9382 144.3053,-310.6108 180,-334.5 188.2792,-340.041 197.5347,-345.2603 206.6008,-349.915"/>
<polygon fill="#191970" stroke="#191970" points="205.0485,-353.0519 215.5607,-354.3724 208.1664,-346.7846 205.0485,-353.0519"/>
</g>
<!-- Node6 -->
<g id="node6" class="node">
<title>Node6</title>
<g id="a_node6"><a xlink:href="../../d3/df1/classG4NucleiProperties.html#acfcf06bdfd3034735124c76e06dd3794" target="_top" xlink:title="G4NucleiProperties\l::GetNuclearMass">
<polygon fill="none" stroke="#000000" points="196.5,-293.5 196.5,-325.5 309.5,-325.5 309.5,-293.5 196.5,-293.5"/>
<text text-anchor="start" x="204.5" y="-312.5" font-family="FreeSans" font-size="10.00" fill="#000000">G4NucleiProperties</text>
<text text-anchor="middle" x="253" y="-300.5" font-family="FreeSans" font-size="10.00" fill="#000000">::GetNuclearMass</text>
</a>
</g>
</g>
<!-- Node1&#45;&gt;Node6 -->
<g id="edge5" class="edge">
<title>Node1&#45;&gt;Node6</title>
<path fill="none" stroke="#191970" d="M113.5251,-255.5594C139.7598,-265.7055 173.8521,-278.8903 201.7634,-289.6847"/>
<polygon fill="#191970" stroke="#191970" points="200.7658,-293.0515 211.3551,-293.3943 203.2908,-286.5228 200.7658,-293.0515"/>
</g>
<!-- Node21 -->
<g id="node21" class="node">
<title>Node21</title>
<g id="a_node21"><a xlink:href="../../d5/d38/classG4ParticleDefinition.html#ad823b2f7c489766de74c562e2a3909bf" target="_top" xlink:title="G4ParticleDefinition\l::GetPDGMass">
<polygon fill="none" stroke="#000000" points="574.5,-.5 574.5,-32.5 690.5,-32.5 690.5,-.5 574.5,-.5"/>
<text text-anchor="start" x="582.5" y="-19.5" font-family="FreeSans" font-size="10.00" fill="#000000">G4ParticleDefinition</text>
<text text-anchor="middle" x="632.5" y="-7.5" font-family="FreeSans" font-size="10.00" fill="#000000">::GetPDGMass</text>
</a>
</g>
</g>
<!-- Node1&#45;&gt;Node21 -->
<g id="edge20" class="edge">
<title>Node1&#45;&gt;Node21</title>
<path fill="none" stroke="#191970" d="M109.0877,-223.4697C205.2212,-182.0156 461.012,-72.3613 548,-41.5 553.542,-39.5338 559.3248,-37.5945 565.151,-35.7182"/>
<polygon fill="#191970" stroke="#191970" points="566.4766,-38.9703 574.9624,-32.6266 564.3728,-32.2939 566.4766,-38.9703"/>
</g>
<!-- Node22 -->
<g id="node22" class="node">
<title>Node22</title>
<g id="a_node22"><a xlink:href="../../da/dcf/classCLHEP_1_1Hep3Vector.html#aeef00a2607300d7c8e7fb8fd6e520102" target="_top" xlink:title="CLHEP::Hep3Vector::mag">
<polygon fill="none" stroke="#000000" points="181.5,-100.5 181.5,-120.5 324.5,-120.5 324.5,-100.5 181.5,-100.5"/>
<text text-anchor="middle" x="253" y="-107.5" font-family="FreeSans" font-size="10.00" fill="#000000">CLHEP::Hep3Vector::mag</text>
</a>
</g>
</g>
<!-- Node1&#45;&gt;Node22 -->
<g id="edge21" class="edge">
<title>Node1&#45;&gt;Node22</title>
<path fill="none" stroke="#191970" d="M84.9558,-223.1444C103.6898,-200.4952 140.4569,-159.6484 180,-135.5 187.3135,-131.0338 195.5301,-127.2386 203.7418,-124.0579"/>
<polygon fill="#191970" stroke="#191970" points="205.1046,-127.2872 213.3249,-120.6031 202.7305,-120.702 205.1046,-127.2872"/>
</g>
<!-- Node23 -->
<g id="node23" class="node">
<title>Node23</title>
<g id="a_node23"><a xlink:href="../../d9/d47/classG4NuclNuclDiffuseElastic.html#aed645fc65f007d9560ced61a9c783a32" target="_top" xlink:title="G4NuclNuclDiffuseElastic\l::SampleCoulombMuCMS">
<polygon fill="none" stroke="#000000" points="181,-223.5 181,-255.5 325,-255.5 325,-223.5 181,-223.5"/>
<text text-anchor="start" x="189" y="-242.5" font-family="FreeSans" font-size="10.00" fill="#000000">G4NuclNuclDiffuseElastic</text>
<text text-anchor="middle" x="253" y="-230.5" font-family="FreeSans" font-size="10.00" fill="#000000">::SampleCoulombMuCMS</text>
</a>
</g>
</g>
<!-- Node1&#45;&gt;Node23 -->
<g id="edge22" class="edge">
<title>Node1&#45;&gt;Node23</title>
<path fill="none" stroke="#191970" d="M144.0561,-239.5C152.8663,-239.5 161.92,-239.5 170.8638,-239.5"/>
<polygon fill="#191970" stroke="#191970" points="170.8962,-243.0001 180.8962,-239.5 170.8961,-236.0001 170.8962,-243.0001"/>
</g>
<!-- Node47 -->
<g id="node47" class="node">
<title>Node47</title>
<g id="a_node47"><a xlink:href="../../dc/df4/classCLHEP_1_1HepLorentzVector.html#a609a46bf7d9e939b077bbf539090fdcd" target="_top" xlink:title="CLHEP::HepLorentzVector\l::vect">
<polygon fill="none" stroke="#000000" points="180,-49.5 180,-81.5 326,-81.5 326,-49.5 180,-49.5"/>
<text text-anchor="start" x="188" y="-68.5" font-family="FreeSans" font-size="10.00" fill="#000000">CLHEP::HepLorentzVector</text>
<text text-anchor="middle" x="253" y="-56.5" font-family="FreeSans" font-size="10.00" fill="#000000">::vect</text>
</a>
</g>
</g>
<!-- Node1&#45;&gt;Node47 -->
<g id="edge51" class="edge">
<title>Node1&#45;&gt;Node47</title>
<path fill="none" stroke="#191970" d="M79.6276,-223.0576C94.5901,-192.5494 130.6803,-126.9739 180,-90.5 181.8815,-89.1085 183.8462,-87.7906 185.8739,-86.5425"/>
<polygon fill="#191970" stroke="#191970" points="188.0023,-89.3685 195.1056,-81.5075 184.6505,-83.223 188.0023,-89.3685"/>
</g>
<!-- Node4 -->
<g id="node4" class="node">
<title>Node4</title>
<g id="a_node4"><a xlink:href="../../da/dcf/classCLHEP_1_1Hep3Vector.html#a7aa4cc075d04401cf3aadb8bd30f4aa2" target="_top" xlink:title="CLHEP::Hep3Vector::mag2">
<polygon fill="none" stroke="#000000" points="362,-370.5 362,-390.5 512,-390.5 512,-370.5 362,-370.5"/>
<text text-anchor="middle" x="437" y="-377.5" font-family="FreeSans" font-size="10.00" fill="#000000">CLHEP::Hep3Vector::mag2</text>
</a>
</g>
</g>
<!-- Node3&#45;&gt;Node4 -->
<g id="edge3" class="edge">
<title>Node3&#45;&gt;Node4</title>
<path fill="none" stroke="#191970" d="M326.2504,-374.481C334.6781,-374.939 343.325,-375.409 351.8918,-375.8746"/>
<polygon fill="#191970" stroke="#191970" points="351.7185,-379.3702 361.8937,-376.4181 352.0984,-372.3805 351.7185,-379.3702"/>
</g>
<!-- Node5 -->
<g id="node5" class="node">
<title>Node5</title>
<g id="a_node5"><a xlink:href="../../dc/df4/classCLHEP_1_1HepLorentzVector.html#a3f9d79afe78a2a9c3a2cb424d64335e1" target="_top" xlink:title="CLHEP::HepLorentzVector\l::restMass2">
<polygon fill="none" stroke="#000000" points="364,-409.5 364,-441.5 510,-441.5 510,-409.5 364,-409.5"/>
<text text-anchor="start" x="372" y="-428.5" font-family="FreeSans" font-size="10.00" fill="#000000">CLHEP::HepLorentzVector</text>
<text text-anchor="middle" x="437" y="-416.5" font-family="FreeSans" font-size="10.00" fill="#000000">::restMass2</text>
</a>
</g>
</g>
<!-- Node3&#45;&gt;Node5 -->
<g id="edge4" class="edge">
<title>Node3&#45;&gt;Node5</title>
<path fill="none" stroke="#191970" d="M306.715,-386.5561C327.596,-392.7977 351.6794,-399.9966 373.4161,-406.494"/>
<polygon fill="#191970" stroke="#191970" points="372.6347,-409.9133 383.2182,-409.4239 374.6395,-403.2065 372.6347,-409.9133"/>
</g>
<!-- Node7 -->
<g id="node7" class="node">
<title>Node7</title>
<g id="a_node7"><a xlink:href="../../d3/df1/classG4NucleiProperties.html#a84f621a35ef0b3c6cfffba0c4b4bd79c" target="_top" xlink:title="G4NucleiProperties\l::NuclearMass">
<polygon fill="none" stroke="#000000" points="380.5,-319.5 380.5,-351.5 493.5,-351.5 493.5,-319.5 380.5,-319.5"/>
<text text-anchor="start" x="388.5" y="-338.5" font-family="FreeSans" font-size="10.00" fill="#000000">G4NucleiProperties</text>
<text text-anchor="middle" x="437" y="-326.5" font-family="FreeSans" font-size="10.00" fill="#000000">::NuclearMass</text>
</a>
</g>
</g>
<!-- Node6&#45;&gt;Node7 -->
<g id="edge6" class="edge">
<title>Node6&#45;&gt;Node7</title>
<path fill="none" stroke="#191970" d="M309.7074,-317.513C328.948,-320.2318 350.6161,-323.2936 370.5468,-326.1099"/>
<polygon fill="#191970" stroke="#191970" points="370.0884,-329.5798 380.4798,-327.5134 371.0679,-322.6486 370.0884,-329.5798"/>
</g>
<!-- Node8 -->
<g id="node8" class="node">
<title>Node8</title>
<g id="a_node8"><a xlink:href="../../d3/df1/classG4NucleiProperties.html#aee1660bc4a3c6d59e2a1af5406410422" target="_top" xlink:title="G4NucleiProperties\l::AtomicMass">
<polygon fill="none" stroke="#000000" points="576,-357.5 576,-389.5 689,-389.5 689,-357.5 576,-357.5"/>
<text text-anchor="start" x="584" y="-376.5" font-family="FreeSans" font-size="10.00" fill="#000000">G4NucleiProperties</text>
<text text-anchor="middle" x="632.5" y="-364.5" font-family="FreeSans" font-size="10.00" fill="#000000">::AtomicMass</text>
</a>
</g>
</g>
<!-- Node7&#45;&gt;Node8 -->
<g id="edge7" class="edge">
<title>Node7&#45;&gt;Node8</title>
<path fill="none" stroke="#191970" d="M493.5467,-346.4912C516.1431,-350.8833 542.3352,-355.9744 565.8476,-360.5445"/>
<polygon fill="#191970" stroke="#191970" points="565.2579,-363.9954 575.742,-362.4678 566.5936,-357.124 565.2579,-363.9954"/>
</g>
<!-- Node14 -->
<g id="node14" class="node">
<title>Node14</title>
<g id="a_node14"><a xlink:href="../../d8/dd3/classG4ParticleTable.html#a8bb5b636696da4abae3ca7ea0ea5af95" target="_top" xlink:title="G4ParticleTable::GetParticle\lTable">
<polygon fill="none" stroke="#000000" points="554.5,-408.5 554.5,-440.5 710.5,-440.5 710.5,-408.5 554.5,-408.5"/>
<text text-anchor="start" x="562.5" y="-427.5" font-family="FreeSans" font-size="10.00" fill="#000000">G4ParticleTable::GetParticle</text>
<text text-anchor="middle" x="632.5" y="-415.5" font-family="FreeSans" font-size="10.00" fill="#000000">Table</text>
</a>
</g>
</g>
<!-- Node7&#45;&gt;Node14 -->
<g id="edge13" class="edge">
<title>Node7&#45;&gt;Node14</title>
<path fill="none" stroke="#191970" d="M493.2876,-351.6544C499.8211,-354.4954 506.2103,-357.7639 512,-361.5 531.5478,-374.1141 528.1669,-387.3393 548,-399.5 550.6533,-401.1269 553.4185,-402.6531 556.2611,-404.0843"/>
<polygon fill="#191970" stroke="#191970" points="555.0108,-407.3611 565.5604,-408.339 557.9232,-400.9958 555.0108,-407.3611"/>
</g>
<!-- Node9 -->
<g id="node9" class="node">
<title>Node9</title>
<g id="a_node9"><a xlink:href="../../d3/df1/classG4NucleiProperties.html#ac66a063606af1c1d4518dcd10221eb49" target="_top" xlink:title="G4NucleiProperties\l::BindingEnergy">
<polygon fill="none" stroke="#000000" points="783.5,-306.5 783.5,-338.5 896.5,-338.5 896.5,-306.5 783.5,-306.5"/>
<text text-anchor="start" x="791.5" y="-325.5" font-family="FreeSans" font-size="10.00" fill="#000000">G4NucleiProperties</text>
<text text-anchor="middle" x="840" y="-313.5" font-family="FreeSans" font-size="10.00" fill="#000000">::BindingEnergy</text>
</a>
</g>
</g>
<!-- Node8&#45;&gt;Node9 -->
<g id="edge8" class="edge">
<title>Node8&#45;&gt;Node9</title>
<path fill="none" stroke="#191970" d="M689.2003,-359.564C715.2765,-353.1549 746.3835,-345.5094 773.5531,-338.8315"/>
<polygon fill="#191970" stroke="#191970" points="774.4927,-342.2048 783.3683,-336.4191 772.8219,-335.4072 774.4927,-342.2048"/>
</g>
<!-- Node10 -->
<g id="node10" class="node">
<title>Node10</title>
<g id="a_node10"><a xlink:href="../../da/d39/classG4NucleiPropertiesTableAME12.html#ad495a18931051e6c1ba10bfde6d31c97" target="_top" xlink:title="G4NucleiPropertiesTableAME12\l::GetMassExcess">
<polygon fill="none" stroke="#000000" points="753,-357.5 753,-389.5 927,-389.5 927,-357.5 753,-357.5"/>
<text text-anchor="start" x="761" y="-376.5" font-family="FreeSans" font-size="10.00" fill="#000000">G4NucleiPropertiesTableAME12</text>
<text text-anchor="middle" x="840" y="-364.5" font-family="FreeSans" font-size="10.00" fill="#000000">::GetMassExcess</text>
</a>
</g>
</g>
<!-- Node8&#45;&gt;Node10 -->
<g id="edge9" class="edge">
<title>Node8&#45;&gt;Node10</title>
<path fill="none" stroke="#191970" d="M689.2003,-373.5C705.8045,-373.5 724.4484,-373.5 742.8167,-373.5"/>
<polygon fill="#191970" stroke="#191970" points="742.9784,-377.0001 752.9783,-373.5 742.9783,-370.0001 742.9784,-377.0001"/>
</g>
<!-- Node11 -->
<g id="node11" class="node">
<title>Node11</title>
<g id="a_node11"><a xlink:href="../../da/d39/classG4NucleiPropertiesTableAME12.html#a6c90fbe73e1ff7c54df96d044efa3af7" target="_top" xlink:title="G4NucleiPropertiesTableAME12\l::GetIndex">
<polygon fill="none" stroke="#000000" points="963,-273.5 963,-305.5 1137,-305.5 1137,-273.5 963,-273.5"/>
<text text-anchor="start" x="971" y="-292.5" font-family="FreeSans" font-size="10.00" fill="#000000">G4NucleiPropertiesTableAME12</text>
<text text-anchor="middle" x="1050" y="-280.5" font-family="FreeSans" font-size="10.00" fill="#000000">::GetIndex</text>
</a>
</g>
</g>
<!-- Node10&#45;&gt;Node11 -->
<g id="edge10" class="edge">
<title>Node10&#45;&gt;Node11</title>
<path fill="none" stroke="#191970" d="M905.4808,-357.471C912.9482,-354.618 920.2819,-351.3125 927,-347.5 945.8772,-336.7873 944.0664,-325.1126 963,-314.5 966.2044,-312.7039 969.549,-311.0273 972.9814,-309.4635"/>
<polygon fill="#191970" stroke="#191970" points="974.3681,-312.6773 982.2365,-305.5824 971.661,-306.2219 974.3681,-312.6773"/>
</g>
<!-- Node12 -->
<g id="node12" class="node">
<title>Node12</title>
<g id="a_node12"><a xlink:href="../../d8/d78/G4DNAElectronHoleRecombination_8cc.html#acd7c90d16eed59d534d702f94b65af4c" target="_top" xlink:title="A">
<polygon fill="none" stroke="#000000" points="1198.5,-218.5 1198.5,-238.5 1227.5,-238.5 1227.5,-218.5 1198.5,-218.5"/>
<text text-anchor="middle" x="1213" y="-225.5" font-family="FreeSans" font-size="10.00" fill="#000000">A</text>
</a>
</g>
</g>
<!-- Node11&#45;&gt;Node12 -->
<g id="edge11" class="edge">
<title>Node11&#45;&gt;Node12</title>
<path fill="none" stroke="#191970" d="M1105.103,-273.4935C1115.764,-270.0893 1126.7903,-266.3522 1137,-262.5 1154.6911,-255.825 1174.1465,-247.0941 1188.9439,-240.1511"/>
<polygon fill="#191970" stroke="#191970" points="1190.8332,-243.1286 1198.3651,-235.6774 1187.8305,-236.8053 1190.8332,-243.1286"/>
</g>
<!-- Node13 -->
<g id="node13" class="node">
<title>Node13</title>
<g id="a_node13"><a xlink:href="../../d5/d4f/G4Exception_8hh.html#ad36b5da5d062a20ca47b1c1f1ae353dd" target="_top" xlink:title="G4Exception">
<polygon fill="none" stroke="#000000" points="1173,-279.5 1173,-299.5 1253,-299.5 1253,-279.5 1173,-279.5"/>
<text text-anchor="middle" x="1213" y="-286.5" font-family="FreeSans" font-size="10.00" fill="#000000">G4Exception</text>
</a>
</g>
</g>
<!-- Node11&#45;&gt;Node13 -->
<g id="edge12" class="edge">
<title>Node11&#45;&gt;Node13</title>
<path fill="none" stroke="#191970" d="M1137.2263,-289.5C1145.9546,-289.5 1154.5948,-289.5 1162.744,-289.5"/>
<polygon fill="#191970" stroke="#191970" points="1162.7733,-293.0001 1172.7732,-289.5 1162.7732,-286.0001 1162.7733,-293.0001"/>
</g>
<!-- Node15 -->
<g id="node15" class="node">
<title>Node15</title>
<g id="a_node15"><a xlink:href="../../d8/dd3/classG4ParticleTable.html#aba540bf07478ff0c30af3ee28d843041" target="_top" xlink:title="G4ParticleTable::WorkerG4\lParticleTable">
<polygon fill="none" stroke="#000000" points="764.5,-408.5 764.5,-440.5 915.5,-440.5 915.5,-408.5 764.5,-408.5"/>
<text text-anchor="start" x="772.5" y="-427.5" font-family="FreeSans" font-size="10.00" fill="#000000">G4ParticleTable::WorkerG4</text>
<text text-anchor="middle" x="840" y="-415.5" font-family="FreeSans" font-size="10.00" fill="#000000">ParticleTable</text>
</a>
</g>
</g>
<!-- Node14&#45;&gt;Node15 -->
<g id="edge14" class="edge">
<title>Node14&#45;&gt;Node15</title>
<path fill="none" stroke="#191970" d="M710.6512,-424.5C724.7952,-424.5 739.6163,-424.5 753.971,-424.5"/>
<polygon fill="#191970" stroke="#191970" points="754.3246,-428.0001 764.3246,-424.5 754.3246,-421.0001 754.3246,-428.0001"/>
</g>
<!-- Node16 -->
<g id="node16" class="node">
<title>Node16</title>
<g id="a_node16"><a xlink:href="../../d4/d96/classG4ParticleTableIterator.html#ae35fb8d216907e4b1614fd52f2d50f84" target="_top" xlink:title="G4ParticleTableIterator\l::reset">
<polygon fill="none" stroke="#000000" points="984,-504.5 984,-536.5 1116,-536.5 1116,-504.5 984,-504.5"/>
<text text-anchor="start" x="992" y="-523.5" font-family="FreeSans" font-size="10.00" fill="#000000">G4ParticleTableIterator</text>
<text text-anchor="middle" x="1050" y="-511.5" font-family="FreeSans" font-size="10.00" fill="#000000">::reset</text>
</a>
</g>
</g>
<!-- Node15&#45;&gt;Node16 -->
<g id="edge15" class="edge">
<title>Node15&#45;&gt;Node16</title>
<path fill="none" stroke="#191970" d="M864.0535,-440.7543C888.2073,-456.4964 926.9164,-480.1732 963,-495.5 967.6716,-497.4843 972.5492,-499.3658 977.5065,-501.139"/>
<polygon fill="#191970" stroke="#191970" points="976.51,-504.497 987.1045,-504.4136 978.7704,-497.872 976.51,-504.497"/>
</g>
<!-- Node17 -->
<g id="node17" class="node">
<title>Node17</title>
<g id="a_node17"><a xlink:href="../../d4/d96/classG4ParticleTableIterator.html#a7220383ce5a9ddecb53331a2ecdd90d5" target="_top" xlink:title="G4ParticleTableIterator\l::value">
<polygon fill="none" stroke="#000000" points="984,-453.5 984,-485.5 1116,-485.5 1116,-453.5 984,-453.5"/>
<text text-anchor="start" x="992" y="-472.5" font-family="FreeSans" font-size="10.00" fill="#000000">G4ParticleTableIterator</text>
<text text-anchor="middle" x="1050" y="-460.5" font-family="FreeSans" font-size="10.00" fill="#000000">::value</text>
</a>
</g>
</g>
<!-- Node15&#45;&gt;Node17 -->
<g id="edge16" class="edge">
<title>Node15&#45;&gt;Node17</title>
<path fill="none" stroke="#191970" d="M914.9254,-440.5555C934.084,-444.6608 954.7014,-449.0789 973.9174,-453.1966"/>
<polygon fill="#191970" stroke="#191970" points="973.3118,-456.6462 983.8232,-455.3193 974.7786,-449.8016 973.3118,-456.6462"/>
</g>
<!-- Node18 -->
<g id="node18" class="node">
<title>Node18</title>
<g id="a_node18"><a xlink:href="../../d8/dd3/classG4ParticleTable.html#ad3150940809a36b87123558264d30108" target="_top" xlink:title="G4ParticleTable::GetKey">
<polygon fill="none" stroke="#000000" points="981.5,-414.5 981.5,-434.5 1118.5,-434.5 1118.5,-414.5 981.5,-414.5"/>
<text text-anchor="middle" x="1050" y="-421.5" font-family="FreeSans" font-size="10.00" fill="#000000">G4ParticleTable::GetKey</text>
</a>
</g>
</g>
<!-- Node15&#45;&gt;Node18 -->
<g id="edge17" class="edge">
<title>Node15&#45;&gt;Node18</title>
<path fill="none" stroke="#191970" d="M915.5181,-424.5C933.6744,-424.5 953.1105,-424.5 971.4032,-424.5"/>
<polygon fill="#191970" stroke="#191970" points="971.4329,-428.0001 981.4328,-424.5 971.4328,-421.0001 971.4329,-428.0001"/>
</g>
<!-- Node19 -->
<g id="node19" class="node">
<title>Node19</title>
<g id="a_node19"><a xlink:href="../../d5/d38/classG4ParticleDefinition.html#af84019c7513ca66581ed8b3651934467" target="_top" xlink:title="G4ParticleDefinition\l::GetPDGEncoding">
<polygon fill="none" stroke="#000000" points="992,-363.5 992,-395.5 1108,-395.5 1108,-363.5 992,-363.5"/>
<text text-anchor="start" x="1000" y="-382.5" font-family="FreeSans" font-size="10.00" fill="#000000">G4ParticleDefinition</text>
<text text-anchor="middle" x="1050" y="-370.5" font-family="FreeSans" font-size="10.00" fill="#000000">::GetPDGEncoding</text>
</a>
</g>
</g>
<!-- Node15&#45;&gt;Node19 -->
<g id="edge18" class="edge">
<title>Node15&#45;&gt;Node19</title>
<path fill="none" stroke="#191970" d="M914.9254,-408.4445C936.7881,-403.7597 960.5505,-398.6677 981.9623,-394.0795"/>
<polygon fill="#191970" stroke="#191970" points="982.8969,-397.4588 991.9416,-391.9411 981.4302,-390.6141 982.8969,-397.4588"/>
</g>
<!-- Node20 -->
<g id="node20" class="node">
<title>Node20</title>
<g id="a_node20"><a xlink:href="../../da/d2b/classG4IonTable.html#a66f8ee295224ed611872572a0e47ab6e" target="_top" xlink:title="G4IonTable::WorkerG4IonTable">
<polygon fill="none" stroke="#000000" points="964.5,-324.5 964.5,-344.5 1135.5,-344.5 1135.5,-324.5 964.5,-324.5"/>
<text text-anchor="middle" x="1050" y="-331.5" font-family="FreeSans" font-size="10.00" fill="#000000">G4IonTable::WorkerG4IonTable</text>
</a>
</g>
</g>
<!-- Node15&#45;&gt;Node20 -->
<g id="edge19" class="edge">
<title>Node15&#45;&gt;Node20</title>
<path fill="none" stroke="#191970" d="M910.604,-408.4502C916.3659,-405.8894 921.9184,-402.9266 927,-399.5 948.5245,-384.9855 941.0166,-367.3095 963,-353.5 965.9701,-351.6342 969.0971,-349.9499 972.3298,-348.4296"/>
<polygon fill="#191970" stroke="#191970" points="973.7738,-351.62 981.6777,-344.5646 971.0991,-345.1511 973.7738,-351.62"/>
</g>
<!-- Node24 -->
<g id="node24" class="node">
<title>Node24</title>
<g id="a_node24"><a xlink:href="../../d9/d47/classG4NuclNuclDiffuseElastic.html#ad86c0a8ac2c742caa1e8bdfa5256db53" target="_top" xlink:title="G4NuclNuclDiffuseElastic\l::CalculateNuclearRad">
<polygon fill="none" stroke="#000000" points="560.5,-306.5 560.5,-338.5 704.5,-338.5 704.5,-306.5 560.5,-306.5"/>
<text text-anchor="start" x="568.5" y="-325.5" font-family="FreeSans" font-size="10.00" fill="#000000">G4NuclNuclDiffuseElastic</text>
<text text-anchor="middle" x="632.5" y="-313.5" font-family="FreeSans" font-size="10.00" fill="#000000">::CalculateNuclearRad</text>
</a>
</g>
</g>
<!-- Node23&#45;&gt;Node24 -->
<g id="edge23" class="edge">
<title>Node23&#45;&gt;Node24</title>
<path fill="none" stroke="#191970" d="M325.2244,-231.2214C379.2397,-228.1642 453.5419,-230.7772 512,-258.5 533.0205,-268.4686 528.2332,-284.2319 548,-296.5 551.352,-298.5804 554.8828,-300.5052 558.5225,-302.2845"/>
<polygon fill="#191970" stroke="#191970" points="557.1974,-305.5259 567.7549,-306.414 560.0555,-299.136 557.1974,-305.5259"/>
</g>
<!-- Node39 -->
<g id="node39" class="node">
<title>Node39</title>
<g id="a_node39"><a xlink:href="../../d5/d38/classG4ParticleDefinition.html#a48ebd992c974d96c776e3d6e41ca8ff5" target="_top" xlink:title="G4ParticleDefinition\l::GetBaryonNumber">
<polygon fill="none" stroke="#000000" points="378,-268.5 378,-300.5 496,-300.5 496,-268.5 378,-268.5"/>
<text text-anchor="start" x="386" y="-287.5" font-family="FreeSans" font-size="10.00" fill="#000000">G4ParticleDefinition</text>
<text text-anchor="middle" x="437" y="-275.5" font-family="FreeSans" font-size="10.00" fill="#000000">::GetBaryonNumber</text>
</a>
</g>
</g>
<!-- Node23&#45;&gt;Node39 -->
<g id="edge39" class="edge">
<title>Node23&#45;&gt;Node39</title>
<path fill="none" stroke="#191970" d="M318.649,-255.5555C334.6316,-259.4642 351.773,-263.6564 367.9101,-267.603"/>
<polygon fill="#191970" stroke="#191970" points="367.2633,-271.0479 377.8086,-270.0238 368.9263,-264.2483 367.2633,-271.0479"/>
</g>
<!-- Node40 -->
<g id="node40" class="node">
<title>Node40</title>
<g id="a_node40"><a xlink:href="../../d9/d47/classG4NuclNuclDiffuseElastic.html#ad645074bd607ffe3c142692b9f4901fb" target="_top" xlink:title="G4NuclNuclDiffuseElastic\l::InitDynParameters">
<polygon fill="none" stroke="#000000" points="365,-178.5 365,-210.5 509,-210.5 509,-178.5 365,-178.5"/>
<text text-anchor="start" x="373" y="-197.5" font-family="FreeSans" font-size="10.00" fill="#000000">G4NuclNuclDiffuseElastic</text>
<text text-anchor="middle" x="437" y="-185.5" font-family="FreeSans" font-size="10.00" fill="#000000">::InitDynParameters</text>
</a>
</g>
</g>
<!-- Node23&#45;&gt;Node40 -->
<g id="edge40" class="edge">
<title>Node23&#45;&gt;Node40</title>
<path fill="none" stroke="#191970" d="M318.649,-223.4445C332.569,-220.0402 347.3681,-216.4208 361.6171,-212.936"/>
<polygon fill="#191970" stroke="#191970" points="362.4942,-216.3248 371.3764,-210.5493 360.8312,-209.5252 362.4942,-216.3248"/>
</g>
<!-- Node25 -->
<g id="node25" class="node">
<title>Node25</title>
<g id="a_node25"><a xlink:href="../../de/d0f/classG4Pow.html#a7b6d5e23775381837d5d1fceec32d51a" target="_top" xlink:title="G4Pow::A13">
<polygon fill="none" stroke="#000000" points="802,-194.5 802,-214.5 878,-214.5 878,-194.5 802,-194.5"/>
<text text-anchor="middle" x="840" y="-201.5" font-family="FreeSans" font-size="10.00" fill="#000000">G4Pow::A13</text>
</a>
</g>
</g>
<!-- Node24&#45;&gt;Node25 -->
<g id="edge24" class="edge">
<title>Node24&#45;&gt;Node25</title>
<path fill="none" stroke="#191970" d="M700.583,-306.335C706.4112,-303.5553 711.9863,-300.3033 717,-296.5 740.5729,-278.6177 730.2918,-259.4682 753,-240.5 764.5182,-230.8788 778.9649,-223.5283 792.758,-218.0572"/>
<polygon fill="#191970" stroke="#191970" points="794.0034,-221.3284 802.1586,-214.565 791.5657,-214.7665 794.0034,-221.3284"/>
</g>
<!-- Node38 -->
<g id="node38" class="node">
<title>Node38</title>
<g id="a_node38"><a xlink:href="../../de/d0f/classG4Pow.html#a1606c8b5588e4236b12b03470dbf3b06" target="_top" xlink:title="G4Pow::GetInstance">
<polygon fill="none" stroke="#000000" points="781,-250.5 781,-270.5 899,-270.5 899,-250.5 781,-250.5"/>
<text text-anchor="middle" x="840" y="-257.5" font-family="FreeSans" font-size="10.00" fill="#000000">G4Pow::GetInstance</text>
</a>
</g>
</g>
<!-- Node24&#45;&gt;Node38 -->
<g id="edge38" class="edge">
<title>Node24&#45;&gt;Node38</title>
<path fill="none" stroke="#191970" d="M686.2063,-306.4528C720.4462,-296.2221 764.2485,-283.1342 796.3426,-273.5446"/>
<polygon fill="#191970" stroke="#191970" points="797.745,-276.7786 806.3244,-270.5621 795.741,-270.0716 797.745,-276.7786"/>
</g>
<!-- Node25&#45;&gt;Node12 -->
<g id="edge25" class="edge">
<title>Node25&#45;&gt;Node12</title>
<path fill="none" stroke="#191970" d="M878.4475,-206.9373C935.0635,-210.5315 1044.1929,-217.4786 1137,-223.5 1154.0342,-224.6052 1173.2147,-225.8672 1188.0453,-226.8468"/>
<polygon fill="#191970" stroke="#191970" points="1188.2216,-230.3661 1198.4308,-227.5336 1188.6836,-223.3813 1188.2216,-230.3661"/>
</g>
<!-- Node26 -->
<g id="node26" class="node">
<title>Node26</title>
<g id="a_node26"><a xlink:href="../../de/d0f/classG4Pow.html#a3bfc336621a01fb1fcf200d8f7dae783" target="_top" xlink:title="G4Pow::A13Low">
<polygon fill="none" stroke="#000000" points="1001.5,-233.5 1001.5,-253.5 1098.5,-253.5 1098.5,-233.5 1001.5,-233.5"/>
<text text-anchor="middle" x="1050" y="-240.5" font-family="FreeSans" font-size="10.00" fill="#000000">G4Pow::A13Low</text>
</a>
</g>
</g>
<!-- Node25&#45;&gt;Node26 -->
<g id="edge26" class="edge">
<title>Node25&#45;&gt;Node26</title>
<path fill="none" stroke="#191970" d="M878.0294,-211.5626C909.5766,-217.4214 954.9665,-225.8509 991.1935,-232.5788"/>
<polygon fill="#191970" stroke="#191970" points="990.6783,-236.0429 1001.1493,-234.4277 991.9565,-229.1606 990.6783,-236.0429"/>
</g>
<!-- Node27 -->
<g id="node27" class="node">
<title>Node27</title>
<g id="a_node27"><a xlink:href="../../de/d0f/classG4Pow.html#ab667e62bac474227ed1696c8dfc108c0" target="_top" xlink:title="G4Pow::A13High">
<polygon fill="none" stroke="#000000" points="1000,-154.5 1000,-174.5 1100,-174.5 1100,-154.5 1000,-154.5"/>
<text text-anchor="middle" x="1050" y="-161.5" font-family="FreeSans" font-size="10.00" fill="#000000">G4Pow::A13High</text>
</a>
</g>
</g>
<!-- Node25&#45;&gt;Node27 -->
<g id="edge27" class="edge">
<title>Node25&#45;&gt;Node27</title>
<path fill="none" stroke="#191970" d="M878.0294,-197.2563C909.2525,-191.309 954.0353,-182.779 990.0741,-175.9145"/>
<polygon fill="#191970" stroke="#191970" points="990.82,-179.3354 999.9884,-174.026 989.5101,-172.459 990.82,-179.3354"/>
</g>
<!-- Node28 -->
<g id="node28" class="node">
<title>Node28</title>
<g id="a_node28"><a xlink:href="../../d0/dcc/G4Exp_8hh.html#a224eb86aa032b59b4fa6398ea1eb566a" target="_top" xlink:title="Exponential Function double precision.">
<polygon fill="none" stroke="#000000" points="1188,-154.5 1188,-174.5 1238,-174.5 1238,-154.5 1188,-154.5"/>
<text text-anchor="middle" x="1213" y="-161.5" font-family="FreeSans" font-size="10.00" fill="#000000">G4Exp</text>
</a>
</g>
</g>
<!-- Node27&#45;&gt;Node28 -->
<g id="edge28" class="edge">
<title>Node27&#45;&gt;Node28</title>
<path fill="none" stroke="#191970" d="M1100.2354,-164.5C1125.2687,-164.5 1154.9405,-164.5 1177.5626,-164.5"/>
<polygon fill="#191970" stroke="#191970" points="1177.7338,-168.0001 1187.7338,-164.5 1177.7338,-161.0001 1177.7338,-168.0001"/>
</g>
<!-- Node32 -->
<g id="node32" class="node">
<title>Node32</title>
<g id="a_node32"><a xlink:href="../../db/dfe/G4Log_8hh.html#ae72e5c92ee3e3857a2617f563c9e0589" target="_top" xlink:title="G4Log">
<polygon fill="none" stroke="#000000" points="1189,-73.5 1189,-93.5 1237,-93.5 1237,-73.5 1189,-73.5"/>
<text text-anchor="middle" x="1213" y="-80.5" font-family="FreeSans" font-size="10.00" fill="#000000">G4Log</text>
</a>
</g>
</g>
<!-- Node27&#45;&gt;Node32 -->
<g id="edge32" class="edge">
<title>Node27&#45;&gt;Node32</title>
<path fill="none" stroke="#191970" d="M1070.3145,-154.4051C1098.821,-140.2393 1150.8625,-114.3782 1183.5976,-98.111"/>
<polygon fill="#191970" stroke="#191970" points="1185.2885,-101.1791 1192.6862,-93.5946 1182.1733,-94.9105 1185.2885,-101.1791"/>
</g>
<!-- Node29 -->
<g id="node29" class="node">
<title>Node29</title>
<g id="a_node29"><a xlink:href="../../d6/d3d/namespaceG4ExpConsts.html#a43fce99281fccf6a12240390cb3d356d" target="_top" xlink:title="G4ExpConsts::fpfloor">
<polygon fill="none" stroke="#000000" points="1317,-154.5 1317,-174.5 1441,-174.5 1441,-154.5 1317,-154.5"/>
<text text-anchor="middle" x="1379" y="-161.5" font-family="FreeSans" font-size="10.00" fill="#000000">G4ExpConsts::fpfloor</text>
</a>
</g>
</g>
<!-- Node28&#45;&gt;Node29 -->
<g id="edge29" class="edge">
<title>Node28&#45;&gt;Node29</title>
<path fill="none" stroke="#191970" d="M1238.2118,-164.5C1256.5465,-164.5 1282.35,-164.5 1306.8664,-164.5"/>
<polygon fill="#191970" stroke="#191970" points="1306.9037,-168.0001 1316.9037,-164.5 1306.9037,-161.0001 1306.9037,-168.0001"/>
</g>
<!-- Node31 -->
<g id="node31" class="node">
<title>Node31</title>
<g id="a_node31"><a xlink:href="../../d6/d3d/namespaceG4ExpConsts.html#a3329e0caa20fcb41a3b5ca0f9e0b4369" target="_top" xlink:title="G4ExpConsts::uint642dp">
<polygon fill="none" stroke="#000000" points="1308,-193.5 1308,-213.5 1450,-213.5 1450,-193.5 1308,-193.5"/>
<text text-anchor="middle" x="1379" y="-200.5" font-family="FreeSans" font-size="10.00" fill="#000000">G4ExpConsts::uint642dp</text>
</a>
</g>
</g>
<!-- Node28&#45;&gt;Node31 -->
<g id="edge31" class="edge">
<title>Node28&#45;&gt;Node31</title>
<path fill="none" stroke="#191970" d="M1238.2928,-171.0002C1253.057,-174.7503 1272.057,-179.5003 1289,-183.5 1299.8535,-186.0622 1311.4655,-188.7111 1322.6192,-191.2098"/>
<polygon fill="#191970" stroke="#191970" points="1322.1768,-194.697 1332.6987,-193.4554 1323.6991,-187.8645 1322.1768,-194.697"/>
</g>
<!-- Node30 -->
<g id="node30" class="node">
<title>Node30</title>
<g id="a_node30"><a xlink:href="../../d6/d3d/namespaceG4ExpConsts.html#ae65bec55d9eb97e48fade672e413332f" target="_top" xlink:title="G4ExpConsts::sp2uint32">
<polygon fill="none" stroke="#000000" points="1505,-154.5 1505,-174.5 1646,-174.5 1646,-154.5 1505,-154.5"/>
<text text-anchor="middle" x="1575.5" y="-161.5" font-family="FreeSans" font-size="10.00" fill="#000000">G4ExpConsts::sp2uint32</text>
</a>
</g>
</g>
<!-- Node29&#45;&gt;Node30 -->
<g id="edge30" class="edge">
<title>Node29&#45;&gt;Node30</title>
<path fill="none" stroke="#191970" d="M1441.1738,-164.5C1458.0923,-164.5 1476.6681,-164.5 1494.4658,-164.5"/>
<polygon fill="#191970" stroke="#191970" points="1494.8366,-168.0001 1504.8366,-164.5 1494.8366,-161.0001 1494.8366,-168.0001"/>
</g>
<!-- Node33 -->
<g id="node33" class="node">
<title>Node33</title>
<g id="a_node33"><a xlink:href="../../d3/d9f/namespaceG4LogConsts.html#a080084213a00e3dc29211e4e578127f4" target="_top" xlink:title="G4LogConsts::get_log_px">
<polygon fill="none" stroke="#000000" points="1307,-34.5 1307,-54.5 1451,-54.5 1451,-34.5 1307,-34.5"/>
<text text-anchor="middle" x="1379" y="-41.5" font-family="FreeSans" font-size="10.00" fill="#000000">G4LogConsts::get_log_px</text>
</a>
</g>
</g>
<!-- Node32&#45;&gt;Node33 -->
<g id="edge33" class="edge">
<title>Node32&#45;&gt;Node33</title>
<path fill="none" stroke="#191970" d="M1237.2249,-76.7994C1252.115,-72.762 1271.6085,-67.6215 1289,-63.5 1298.7896,-61.18 1309.2114,-58.8513 1319.3615,-56.6585"/>
<polygon fill="#191970" stroke="#191970" points="1320.3395,-60.0286 1329.3875,-54.5164 1318.8769,-53.1831 1320.3395,-60.0286"/>
</g>
<!-- Node34 -->
<g id="node34" class="node">
<title>Node34</title>
<g id="a_node34"><a xlink:href="../../d3/d9f/namespaceG4LogConsts.html#abafea919b94d1e25edf69344bdb8269a" target="_top" xlink:title="G4LogConsts::get_log_qx">
<polygon fill="none" stroke="#000000" points="1307,-112.5 1307,-132.5 1451,-132.5 1451,-112.5 1307,-112.5"/>
<text text-anchor="middle" x="1379" y="-119.5" font-family="FreeSans" font-size="10.00" fill="#000000">G4LogConsts::get_log_qx</text>
</a>
</g>
</g>
<!-- Node32&#45;&gt;Node34 -->
<g id="edge34" class="edge">
<title>Node32&#45;&gt;Node34</title>
<path fill="none" stroke="#191970" d="M1237.2617,-89.7382C1252.1653,-93.5272 1271.6599,-98.4066 1289,-102.5 1299.8535,-105.0622 1311.4655,-107.7111 1322.6192,-110.2098"/>
<polygon fill="#191970" stroke="#191970" points="1322.1768,-113.697 1332.6987,-112.4554 1323.6991,-106.8645 1322.1768,-113.697"/>
</g>
<!-- Node35 -->
<g id="node35" class="node">
<title>Node35</title>
<g id="a_node35"><a xlink:href="../../d3/d9f/namespaceG4LogConsts.html#aab62ca6c71dcc1505d4ce94f673f1b52" target="_top" xlink:title="Like frexp but vectorising and the exponent is a double.">
<polygon fill="none" stroke="#000000" points="1289,-73.5 1289,-93.5 1469,-93.5 1469,-73.5 1289,-73.5"/>
<text text-anchor="middle" x="1379" y="-80.5" font-family="FreeSans" font-size="10.00" fill="#000000">G4LogConsts::getMantExponent</text>
</a>
</g>
</g>
<!-- Node32&#45;&gt;Node35 -->
<g id="edge35" class="edge">
<title>Node32&#45;&gt;Node35</title>
<path fill="none" stroke="#191970" d="M1237.1378,-83.5C1248.6449,-83.5 1263.262,-83.5 1278.7155,-83.5"/>
<polygon fill="#191970" stroke="#191970" points="1278.9672,-87.0001 1288.9671,-83.5 1278.9671,-80.0001 1278.9672,-87.0001"/>
</g>
<!-- Node36 -->
<g id="node36" class="node">
<title>Node36</title>
<g id="a_node36"><a xlink:href="../../d3/d9f/namespaceG4LogConsts.html#a1f15a1e0545d715b1662d9489af3643b" target="_top" xlink:title="G4LogConsts::dp2uint64">
<polygon fill="none" stroke="#000000" points="1505,-54.5 1505,-74.5 1646,-74.5 1646,-54.5 1505,-54.5"/>
<text text-anchor="middle" x="1575.5" y="-61.5" font-family="FreeSans" font-size="10.00" fill="#000000">G4LogConsts::dp2uint64</text>
</a>
</g>
</g>
<!-- Node35&#45;&gt;Node36 -->
<g id="edge36" class="edge">
<title>Node35&#45;&gt;Node36</title>
<path fill="none" stroke="#191970" d="M1469.1985,-74.7785C1477.7341,-73.9532 1486.3513,-73.12 1494.79,-72.304"/>
<polygon fill="#191970" stroke="#191970" points="1495.3608,-75.7652 1504.9775,-71.319 1494.687,-68.7977 1495.3608,-75.7652"/>
</g>
<!-- Node37 -->
<g id="node37" class="node">
<title>Node37</title>
<g id="a_node37"><a xlink:href="../../d3/d9f/namespaceG4LogConsts.html#acaeec03b136462b4d5e9f1fb97d6ce13" target="_top" xlink:title="G4LogConsts::uint642dp">
<polygon fill="none" stroke="#000000" points="1505,-93.5 1505,-113.5 1646,-113.5 1646,-93.5 1505,-93.5"/>
<text text-anchor="middle" x="1575.5" y="-100.5" font-family="FreeSans" font-size="10.00" fill="#000000">G4LogConsts::uint642dp</text>
</a>
</g>
</g>
<!-- Node35&#45;&gt;Node37 -->
<g id="edge37" class="edge">
<title>Node35&#45;&gt;Node37</title>
<path fill="none" stroke="#191970" d="M1469.1985,-92.6805C1477.7341,-93.5493 1486.3513,-94.4263 1494.79,-95.2852"/>
<polygon fill="#191970" stroke="#191970" points="1494.6745,-98.7915 1504.9775,-96.3221 1495.3833,-91.8275 1494.6745,-98.7915"/>
</g>
<!-- Node40&#45;&gt;Node21 -->
<g id="edge50" class="edge">
<title>Node40&#45;&gt;Node21</title>
<path fill="none" stroke="#191970" d="M492.3837,-178.4525C499.6933,-174.4864 506.5329,-169.5736 512,-163.5 549.8223,-121.4819 508.039,-81.4896 548,-41.5 552.868,-36.6285 558.6367,-32.6973 564.839,-29.5262"/>
<polygon fill="#191970" stroke="#191970" points="566.4461,-32.6427 574.1817,-25.4032 563.6199,-26.2386 566.4461,-32.6427"/>
</g>
<!-- Node41 -->
<g id="node41" class="node">
<title>Node41</title>
<g id="a_node41"><a xlink:href="../../d9/d47/classG4NuclNuclDiffuseElastic.html#afbdbf5a8375a27258a602df307e03d32" target="_top" xlink:title="G4NuclNuclDiffuseElastic\l::CalculateAm">
<polygon fill="none" stroke="#000000" points="560.5,-102.5 560.5,-134.5 704.5,-134.5 704.5,-102.5 560.5,-102.5"/>
<text text-anchor="start" x="568.5" y="-121.5" font-family="FreeSans" font-size="10.00" fill="#000000">G4NuclNuclDiffuseElastic</text>
<text text-anchor="middle" x="632.5" y="-109.5" font-family="FreeSans" font-size="10.00" fill="#000000">::CalculateAm</text>
</a>
</g>
</g>
<!-- Node40&#45;&gt;Node41 -->
<g id="edge41" class="edge">
<title>Node40&#45;&gt;Node41</title>
<path fill="none" stroke="#191970" d="M478.2479,-178.449C489.3221,-173.8697 501.2139,-168.7039 512,-163.5 528.485,-155.5465 531.1229,-150.5834 548,-143.5 552.7279,-141.5157 557.6662,-139.6224 562.6788,-137.8304"/>
<polygon fill="#191970" stroke="#191970" points="564.0465,-141.0617 572.374,-134.5117 561.7794,-134.4389 564.0465,-141.0617"/>
</g>
<!-- Node42 -->
<g id="node42" class="node">
<title>Node42</title>
<g id="a_node42"><a xlink:href="../../d9/d47/classG4NuclNuclDiffuseElastic.html#a9ed39017386fe268e6cbee14fc4708c5" target="_top" xlink:title="G4NuclNuclDiffuseElastic\l::CalculateCoulombPhaseZero">
<polygon fill="none" stroke="#000000" points="548,-51.5 548,-83.5 717,-83.5 717,-51.5 548,-51.5"/>
<text text-anchor="start" x="556" y="-70.5" font-family="FreeSans" font-size="10.00" fill="#000000">G4NuclNuclDiffuseElastic</text>
<text text-anchor="middle" x="632.5" y="-58.5" font-family="FreeSans" font-size="10.00" fill="#000000">::CalculateCoulombPhaseZero</text>
</a>
</g>
</g>
<!-- Node40&#45;&gt;Node42 -->
<g id="edge44" class="edge">
<title>Node40&#45;&gt;Node42</title>
<path fill="none" stroke="#191970" d="M489.5014,-178.4887C497.6354,-174.4683 505.4857,-169.5292 512,-163.5 537.9657,-139.4681 520.8169,-115.1458 548,-92.5 549.5427,-91.2148 551.1494,-89.9956 552.8094,-88.8391"/>
<polygon fill="#191970" stroke="#191970" points="554.7707,-91.743 561.5044,-83.5632 551.1395,-85.7585 554.7707,-91.743"/>
</g>
<!-- Node44 -->
<g id="node44" class="node">
<title>Node44</title>
<g id="a_node44"><a xlink:href="../../d9/d47/classG4NuclNuclDiffuseElastic.html#a78e27e382eddad1411abccc31de7d2bb" target="_top" xlink:title="G4NuclNuclDiffuseElastic\l::CalculateRutherfordAnglePar">
<polygon fill="none" stroke="#000000" points="548,-204.5 548,-236.5 717,-236.5 717,-204.5 548,-204.5"/>
<text text-anchor="start" x="556" y="-223.5" font-family="FreeSans" font-size="10.00" fill="#000000">G4NuclNuclDiffuseElastic</text>
<text text-anchor="middle" x="632.5" y="-211.5" font-family="FreeSans" font-size="10.00" fill="#000000">::CalculateRutherfordAnglePar</text>
</a>
</g>
</g>
<!-- Node40&#45;&gt;Node44 -->
<g id="edge47" class="edge">
<title>Node40&#45;&gt;Node44</title>
<path fill="none" stroke="#191970" d="M509.2415,-204.1076C518.606,-205.353 528.3063,-206.643 537.9648,-207.9275"/>
<polygon fill="#191970" stroke="#191970" points="537.6247,-211.413 547.9989,-209.262 538.5476,-204.4741 537.6247,-211.413"/>
</g>
<!-- Node45 -->
<g id="node45" class="node">
<title>Node45</title>
<g id="a_node45"><a xlink:href="../../d9/d47/classG4NuclNuclDiffuseElastic.html#a1306f7becebbe8a1a61991e5154b9289" target="_top" xlink:title="G4NuclNuclDiffuseElastic\l::CalculateZommerfeld">
<polygon fill="none" stroke="#000000" points="560.5,-153.5 560.5,-185.5 704.5,-185.5 704.5,-153.5 560.5,-153.5"/>
<text text-anchor="start" x="568.5" y="-172.5" font-family="FreeSans" font-size="10.00" fill="#000000">G4NuclNuclDiffuseElastic</text>
<text text-anchor="middle" x="632.5" y="-160.5" font-family="FreeSans" font-size="10.00" fill="#000000">::CalculateZommerfeld</text>
</a>
</g>
</g>
<!-- Node40&#45;&gt;Node45 -->
<g id="edge48" class="edge">
<title>Node40&#45;&gt;Node45</title>
<path fill="none" stroke="#191970" d="M509.2415,-185.262C522.5031,-183.5661 536.4381,-181.7841 549.9739,-180.0532"/>
<polygon fill="#191970" stroke="#191970" points="550.7539,-183.482 560.2292,-178.7418 549.866,-176.5386 550.7539,-183.482"/>
</g>
<!-- Node46 -->
<g id="node46" class="node">
<title>Node46</title>
<g id="a_node46"><a xlink:href="../../d5/d38/classG4ParticleDefinition.html#aa751e870d4b72ded8ba24677bb6a656c" target="_top" xlink:title="G4ParticleDefinition\l::GetPDGCharge">
<polygon fill="none" stroke="#000000" points="574.5,-255.5 574.5,-287.5 690.5,-287.5 690.5,-255.5 574.5,-255.5"/>
<text text-anchor="start" x="582.5" y="-274.5" font-family="FreeSans" font-size="10.00" fill="#000000">G4ParticleDefinition</text>
<text text-anchor="middle" x="632.5" y="-262.5" font-family="FreeSans" font-size="10.00" fill="#000000">::GetPDGCharge</text>
</a>
</g>
</g>
<!-- Node40&#45;&gt;Node46 -->
<g id="edge49" class="edge">
<title>Node40&#45;&gt;Node46</title>
<path fill="none" stroke="#191970" d="M478.2479,-210.551C489.3221,-215.1303 501.2139,-220.2961 512,-225.5 528.485,-233.4535 531.1615,-238.3252 548,-245.5 553.4276,-247.8127 559.1302,-250.017 564.903,-252.0934"/>
<polygon fill="#191970" stroke="#191970" points="564.0535,-255.5029 574.6483,-255.4635 566.3414,-248.8873 564.0535,-255.5029"/>
</g>
<!-- Node41&#45;&gt;Node25 -->
<g id="edge42" class="edge">
<title>Node41&#45;&gt;Node25</title>
<path fill="none" stroke="#191970" d="M691.5829,-134.5581C700.1908,-137.3073 708.8826,-140.3139 717,-143.5 751.083,-156.8775 788.5493,-176.1637 813.0673,-189.4512"/>
<polygon fill="#191970" stroke="#191970" points="811.6557,-192.6685 822.1085,-194.3978 815.0156,-186.5275 811.6557,-192.6685"/>
</g>
<!-- Node41&#45;&gt;Node38 -->
<g id="edge43" class="edge">
<title>Node41&#45;&gt;Node38</title>
<path fill="none" stroke="#191970" d="M704.085,-134.5758C708.714,-137.1254 713.0819,-140.0788 717,-143.5 746.3692,-169.1446 725.1457,-196.2175 753,-223.5 763.3791,-233.666 776.9819,-241.2254 790.3382,-246.7654"/>
<polygon fill="#191970" stroke="#191970" points="789.38,-250.1462 799.9705,-250.4508 791.8815,-243.6083 789.38,-250.1462"/>
</g>
<!-- Node43 -->
<g id="node43" class="node">
<title>Node43</title>
<g id="a_node43"><a xlink:href="../../d9/d47/classG4NuclNuclDiffuseElastic.html#a454a683a94d0413ba1e4d0d6a8eb5354" target="_top" xlink:title="G4NuclNuclDiffuseElastic\l::GammaLogB2n">
<polygon fill="none" stroke="#000000" points="768,-52.5 768,-84.5 912,-84.5 912,-52.5 768,-52.5"/>
<text text-anchor="start" x="776" y="-71.5" font-family="FreeSans" font-size="10.00" fill="#000000">G4NuclNuclDiffuseElastic</text>
<text text-anchor="middle" x="840" y="-59.5" font-family="FreeSans" font-size="10.00" fill="#000000">::GammaLogB2n</text>
</a>
</g>
</g>
<!-- Node42&#45;&gt;Node43 -->
<g id="edge45" class="edge">
<title>Node42&#45;&gt;Node43</title>
<path fill="none" stroke="#191970" d="M717.1975,-67.9082C730.5924,-67.9727 744.4262,-68.0394 757.7638,-68.1037"/>
<polygon fill="#191970" stroke="#191970" points="757.8341,-71.604 767.8509,-68.1523 757.8679,-64.604 757.8341,-71.604"/>
</g>
<!-- Node43&#45;&gt;Node32 -->
<g id="edge46" class="edge">
<title>Node43&#45;&gt;Node32</title>
<path fill="none" stroke="#191970" d="M912.3604,-71.4099C992.503,-74.6328 1118.3355,-79.6931 1178.5939,-82.1164"/>
<polygon fill="#191970" stroke="#191970" points="1178.582,-85.6186 1188.7146,-82.5234 1178.8634,-78.6243 1178.582,-85.6186"/>
</g>
</g>
</svg>
