<?xml version="1.0" encoding="UTF-8" standalone="no"?>
<!DOCTYPE svg PUBLIC "-//W3C//DTD SVG 1.1//EN"
 "http://www.w3.org/Graphics/SVG/1.1/DTD/svg11.dtd">
<!-- Generated by graphviz version 2.40.1 (20161225.0304)
 -->
<!-- Title: CLHEP::NonRandomEngine::getState Pages: 1 -->
<svg width="541pt" height="41pt"
 viewBox="0.00 0.00 541.00 41.00" xmlns="http://www.w3.org/2000/svg" xmlns:xlink="http://www.w3.org/1999/xlink">
<g id="graph0" class="graph" transform="scale(1 1) rotate(0) translate(4 37)">
<title>CLHEP::NonRandomEngine::getState</title>
<!-- Node1 -->
<g id="node1" class="node">
<title>Node1</title>
<polygon fill="#bfbfbf" stroke="#000000" points="0,-.5 0,-32.5 152,-32.5 152,-.5 0,-.5"/>
<text text-anchor="start" x="8" y="-19.5" font-family="FreeSans" font-size="10.00" fill="#000000">CLHEP::NonRandomEngine</text>
<text text-anchor="middle" x="76" y="-7.5" font-family="FreeSans" font-size="10.00" fill="#000000">::getState</text>
</g>
<!-- Node2 -->
<g id="node2" class="node">
<title>Node2</title>
<g id="a_node2"><a xlink:href="../../d3/d9d/classCLHEP_1_1DoubConv.html#a57c350d390f66796e5315eecb458bfbc" target="_top" xlink:title="CLHEP::DoubConv::longs2double">
<polygon fill="none" stroke="#000000" points="188,-6.5 188,-26.5 371,-26.5 371,-6.5 188,-6.5"/>
<text text-anchor="middle" x="279.5" y="-13.5" font-family="FreeSans" font-size="10.00" fill="#000000">CLHEP::DoubConv::longs2double</text>
</a>
</g>
</g>
<!-- Node1&#45;&gt;Node2 -->
<g id="edge1" class="edge">
<title>Node1&#45;&gt;Node2</title>
<path fill="none" stroke="#191970" d="M152.0653,-16.5C160.4229,-16.5 169.0279,-16.5 177.634,-16.5"/>
<polygon fill="#191970" stroke="#191970" points="177.7226,-20.0001 187.7225,-16.5 177.7225,-13.0001 177.7226,-20.0001"/>
</g>
<!-- Node3 -->
<g id="node3" class="node">
<title>Node3</title>
<g id="a_node3"><a xlink:href="../../d3/d9d/classCLHEP_1_1DoubConv.html#a8e7bccc74b7a9f02de04c073358a9fdd" target="_top" xlink:title="CLHEP::DoubConv::fill\l_byte_order">
<polygon fill="none" stroke="#000000" points="407,-.5 407,-32.5 533,-32.5 533,-.5 407,-.5"/>
<text text-anchor="start" x="415" y="-19.5" font-family="FreeSans" font-size="10.00" fill="#000000">CLHEP::DoubConv::fill</text>
<text text-anchor="middle" x="470" y="-7.5" font-family="FreeSans" font-size="10.00" fill="#000000">_byte_order</text>
</a>
</g>
</g>
<!-- Node2&#45;&gt;Node3 -->
<g id="edge2" class="edge">
<title>Node2&#45;&gt;Node3</title>
<path fill="none" stroke="#191970" d="M371.1231,-16.5C379.7293,-16.5 388.375,-16.5 396.7786,-16.5"/>
<polygon fill="#191970" stroke="#191970" points="396.8903,-20.0001 406.8903,-16.5 396.8902,-13.0001 396.8903,-20.0001"/>
</g>
</g>
</svg>
