<?xml version="1.0" encoding="UTF-8" standalone="no"?>
<!DOCTYPE svg PUBLIC "-//W3C//DTD SVG 1.1//EN"
 "http://www.w3.org/Graphics/SVG/1.1/DTD/svg11.dtd">
<!-- Generated by graphviz version 2.40.1 (20161225.0304)
 -->
<!-- Title: G4FTFParticipants::SortInteractionsIncT Pages: 1 -->
<svg width="450pt" height="41pt"
 viewBox="0.00 0.00 450.00 41.00" xmlns="http://www.w3.org/2000/svg" xmlns:xlink="http://www.w3.org/1999/xlink">
<g id="graph0" class="graph" transform="scale(1 1) rotate(0) translate(4 37)">
<title>G4FTFParticipants::SortInteractionsIncT</title>
<!-- Node1 -->
<g id="node1" class="node">
<title>Node1</title>
<polygon fill="#bfbfbf" stroke="#000000" points="0,-.5 0,-32.5 118,-32.5 118,-.5 0,-.5"/>
<text text-anchor="start" x="8" y="-19.5" font-family="FreeSans" font-size="10.00" fill="#000000">G4FTFParticipants::</text>
<text text-anchor="middle" x="59" y="-7.5" font-family="FreeSans" font-size="10.00" fill="#000000">SortInteractionsIncT</text>
</g>
<!-- Node2 -->
<g id="node2" class="node">
<title>Node2</title>
<g id="a_node2"><a xlink:href="../../d3/d32/classG4FTFParticipants.html#a6321f640dc8dc559fa8efa6de07dbb4e" target="_top" xlink:title="G4FTFParticipants::\lGetList">
<polygon fill="none" stroke="#000000" points="154,-.5 154,-32.5 267,-32.5 267,-.5 154,-.5"/>
<text text-anchor="start" x="162" y="-19.5" font-family="FreeSans" font-size="10.00" fill="#000000">G4FTFParticipants::</text>
<text text-anchor="middle" x="210.5" y="-7.5" font-family="FreeSans" font-size="10.00" fill="#000000">GetList</text>
</a>
</g>
</g>
<!-- Node1&#45;&gt;Node2 -->
<g id="edge1" class="edge">
<title>Node1&#45;&gt;Node2</title>
<path fill="none" stroke="#191970" d="M128.0702,-16.5C136.7109,-16.5 145.4684,-16.5 153.8884,-16.5"/>
<polygon fill="#191970" stroke="#191970" points="128.0077,-13.0001 118.0077,-16.5 128.0076,-20.0001 128.0077,-13.0001"/>
</g>
<!-- Node3 -->
<g id="node3" class="node">
<title>Node3</title>
<g id="a_node3"><a xlink:href="../../dd/dbb/classG4FTFModel.html#ae51a4d0d59f37d979b53116356e63f49" target="_top" xlink:title="G4FTFModel::GetStrings">
<polygon fill="none" stroke="#000000" points="303,-6.5 303,-26.5 442,-26.5 442,-6.5 303,-6.5"/>
<text text-anchor="middle" x="372.5" y="-13.5" font-family="FreeSans" font-size="10.00" fill="#000000">G4FTFModel::GetStrings</text>
</a>
</g>
</g>
<!-- Node2&#45;&gt;Node3 -->
<g id="edge2" class="edge">
<title>Node2&#45;&gt;Node3</title>
<path fill="none" stroke="#191970" d="M277.2848,-16.5C285.6921,-16.5 294.3103,-16.5 302.7617,-16.5"/>
<polygon fill="#191970" stroke="#191970" points="277.1598,-13.0001 267.1597,-16.5 277.1597,-20.0001 277.1598,-13.0001"/>
</g>
</g>
</svg>
