<?xml version="1.0" encoding="UTF-8" standalone="no"?>
<!DOCTYPE svg PUBLIC "-//W3C//DTD SVG 1.1//EN"
 "http://www.w3.org/Graphics/SVG/1.1/DTD/svg11.dtd">
<!-- Generated by graphviz version 2.40.1 (20161225.0304)
 -->
<!-- Title: G4UImanager::GetCurrentIntValue Pages: 1 -->
<svg width="1045pt" height="255pt"
 viewBox="0.00 0.00 1045.00 255.00" xmlns="http://www.w3.org/2000/svg" xmlns:xlink="http://www.w3.org/1999/xlink">
<g id="graph0" class="graph" transform="scale(1 1) rotate(0) translate(4 251)">
<title>G4UImanager::GetCurrentIntValue</title>
<!-- Node1 -->
<g id="node1" class="node">
<title>Node1</title>
<polygon fill="#bfbfbf" stroke="#000000" points="0,-33.5 0,-65.5 162,-65.5 162,-33.5 0,-33.5"/>
<text text-anchor="start" x="8" y="-52.5" font-family="FreeSans" font-size="10.00" fill="#000000">G4UImanager::GetCurrentInt</text>
<text text-anchor="middle" x="81" y="-40.5" font-family="FreeSans" font-size="10.00" fill="#000000">Value</text>
</g>
<!-- Node2 -->
<g id="node2" class="node">
<title>Node2</title>
<g id="a_node2"><a xlink:href="../../d8/def/classG4UImanager.html#a81c5dbdd1f59c2f996cf9d9a67f2ebe3" target="_top" xlink:title="G4UImanager::GetCurrentString\lValue">
<polygon fill="none" stroke="#000000" points="198,-33.5 198,-65.5 376,-65.5 376,-33.5 198,-33.5"/>
<text text-anchor="start" x="206" y="-52.5" font-family="FreeSans" font-size="10.00" fill="#000000">G4UImanager::GetCurrentString</text>
<text text-anchor="middle" x="287" y="-40.5" font-family="FreeSans" font-size="10.00" fill="#000000">Value</text>
</a>
</g>
</g>
<!-- Node1&#45;&gt;Node2 -->
<g id="edge1" class="edge">
<title>Node1&#45;&gt;Node2</title>
<path fill="none" stroke="#191970" d="M162.1209,-49.5C170.5371,-49.5 179.1576,-49.5 187.7434,-49.5"/>
<polygon fill="#191970" stroke="#191970" points="187.7921,-53.0001 197.7921,-49.5 187.792,-46.0001 187.7921,-53.0001"/>
</g>
<!-- Node3 -->
<g id="node3" class="node">
<title>Node3</title>
<g id="a_node3"><a xlink:href="../../d8/def/classG4UImanager.html#a95f877b411b80f8cfd10db6e1e02b7a7" target="_top" xlink:title="G4UImanager::GetCurrentValues">
<polygon fill="none" stroke="#000000" points="412,-97.5 412,-117.5 594,-117.5 594,-97.5 412,-97.5"/>
<text text-anchor="middle" x="503" y="-104.5" font-family="FreeSans" font-size="10.00" fill="#000000">G4UImanager::GetCurrentValues</text>
</a>
</g>
</g>
<!-- Node2&#45;&gt;Node3 -->
<g id="edge2" class="edge">
<title>Node2&#45;&gt;Node3</title>
<path fill="none" stroke="#191970" d="M346.5947,-65.5023C380.9615,-74.7304 423.5733,-86.1725 455.6365,-94.782"/>
<polygon fill="#191970" stroke="#191970" points="455.0865,-98.2583 465.6521,-97.4714 456.9019,-91.4977 455.0865,-98.2583"/>
</g>
<!-- Node5 -->
<g id="node5" class="node">
<title>Node5</title>
<g id="a_node5"><a xlink:href="../../d5/d72/classG4String.html#aa95cfd24fc070ec0b60a686ca6017abc" target="_top" xlink:title="G4String::append">
<polygon fill="none" stroke="#000000" points="890,-19.5 890,-39.5 995,-39.5 995,-19.5 890,-19.5"/>
<text text-anchor="middle" x="942.5" y="-26.5" font-family="FreeSans" font-size="10.00" fill="#000000">G4String::append</text>
</a>
</g>
</g>
<!-- Node2&#45;&gt;Node5 -->
<g id="edge12" class="edge">
<title>Node2&#45;&gt;Node5</title>
<path fill="none" stroke="#191970" d="M376.0858,-46.7819C510.6447,-42.6764 762.4253,-34.9943 879.5661,-31.4202"/>
<polygon fill="#191970" stroke="#191970" points="879.909,-34.9114 889.7976,-31.108 879.6954,-27.9147 879.909,-34.9114"/>
</g>
<!-- Node12 -->
<g id="node12" class="node">
<title>Node12</title>
<g id="a_node12"><a xlink:href="../../d5/d72/classG4String.html#ab37edd5326efe646514318907798d264" target="_top" xlink:title="G4String::isNull">
<polygon fill="none" stroke="#000000" points="455.5,-.5 455.5,-20.5 550.5,-20.5 550.5,-.5 455.5,-.5"/>
<text text-anchor="middle" x="503" y="-7.5" font-family="FreeSans" font-size="10.00" fill="#000000">G4String::isNull</text>
</a>
</g>
</g>
<!-- Node2&#45;&gt;Node12 -->
<g id="edge11" class="edge">
<title>Node2&#45;&gt;Node12</title>
<path fill="none" stroke="#191970" d="M375.7905,-33.4684C399.296,-29.2243 424.0557,-24.7538 445.421,-20.8962"/>
<polygon fill="#191970" stroke="#191970" points="446.0791,-24.3341 455.2981,-19.1128 444.8353,-17.4454 446.0791,-24.3341"/>
</g>
<!-- Node4 -->
<g id="node4" class="node">
<title>Node4</title>
<g id="a_node4"><a xlink:href="../../d3/d31/classG4UIcommandTree.html#ac0f4ce28609f8d169e17020ad9aeffdc" target="_top" xlink:title="G4UIcommandTree::FindPath">
<polygon fill="none" stroke="#000000" points="640,-97.5 640,-117.5 802,-117.5 802,-97.5 640,-97.5"/>
<text text-anchor="middle" x="721" y="-104.5" font-family="FreeSans" font-size="10.00" fill="#000000">G4UIcommandTree::FindPath</text>
</a>
</g>
</g>
<!-- Node3&#45;&gt;Node4 -->
<g id="edge3" class="edge">
<title>Node3&#45;&gt;Node4</title>
<path fill="none" stroke="#191970" d="M594.1885,-107.5C605.9198,-107.5 617.9341,-107.5 629.6677,-107.5"/>
<polygon fill="#191970" stroke="#191970" points="629.8927,-111.0001 639.8926,-107.5 629.8926,-104.0001 629.8927,-111.0001"/>
</g>
<!-- Node10 -->
<g id="node10" class="node">
<title>Node10</title>
<g id="a_node10"><a xlink:href="../../d2/dd2/classG4UIcommand.html#afcda49aef465eb9a0137fcbe115df258" target="_top" xlink:title="G4UIcommand::GetCurrentValue">
<polygon fill="none" stroke="#000000" points="630,-178.5 630,-198.5 812,-198.5 812,-178.5 630,-178.5"/>
<text text-anchor="middle" x="721" y="-185.5" font-family="FreeSans" font-size="10.00" fill="#000000">G4UIcommand::GetCurrentValue</text>
</a>
</g>
</g>
<!-- Node3&#45;&gt;Node10 -->
<g id="edge9" class="edge">
<title>Node3&#45;&gt;Node10</title>
<path fill="none" stroke="#191970" d="M530.1691,-117.5949C569.0307,-132.0343 640.596,-158.6251 684.1839,-174.8206"/>
<polygon fill="#191970" stroke="#191970" points="683.2389,-178.2032 693.8318,-178.4054 685.677,-171.6415 683.2389,-178.2032"/>
</g>
<!-- Node4&#45;&gt;Node5 -->
<g id="edge4" class="edge">
<title>Node4&#45;&gt;Node5</title>
<path fill="none" stroke="#191970" d="M741.8841,-97.4681C775.0826,-81.5708 837.2571,-52.0203 848,-48.5 858.2273,-45.1487 869.2801,-42.2821 880.0981,-39.8681"/>
<polygon fill="#191970" stroke="#191970" points="880.8824,-43.2797 889.9366,-37.7776 879.4275,-36.4326 880.8824,-43.2797"/>
</g>
<!-- Node6 -->
<g id="node6" class="node">
<title>Node6</title>
<g id="a_node6"><a xlink:href="../../d5/d72/classG4String.html#ab6261a741b9eef5c5731c3a0523f08da" target="_top" xlink:title="G4String::first">
<polygon fill="none" stroke="#000000" points="898.5,-136.5 898.5,-156.5 986.5,-156.5 986.5,-136.5 898.5,-136.5"/>
<text text-anchor="middle" x="942.5" y="-143.5" font-family="FreeSans" font-size="10.00" fill="#000000">G4String::first</text>
</a>
</g>
</g>
<!-- Node4&#45;&gt;Node6 -->
<g id="edge5" class="edge">
<title>Node4&#45;&gt;Node6</title>
<path fill="none" stroke="#191970" d="M778.0418,-117.5435C811.9618,-123.5158 854.7506,-131.0498 888.1796,-136.9357"/>
<polygon fill="#191970" stroke="#191970" points="887.778,-140.4187 898.2334,-138.7059 888.9919,-133.5248 887.778,-140.4187"/>
</g>
<!-- Node7 -->
<g id="node7" class="node">
<title>Node7</title>
<g id="a_node7"><a xlink:href="../../d3/d31/classG4UIcommandTree.html#a7155e483dc9ca94fd9d26b315cd6b0c6" target="_top" xlink:title="G4UIcommandTree::GetPathName">
<polygon fill="none" stroke="#000000" points="848,-97.5 848,-117.5 1037,-117.5 1037,-97.5 848,-97.5"/>
<text text-anchor="middle" x="942.5" y="-104.5" font-family="FreeSans" font-size="10.00" fill="#000000">G4UIcommandTree::GetPathName</text>
</a>
</g>
</g>
<!-- Node4&#45;&gt;Node7 -->
<g id="edge6" class="edge">
<title>Node4&#45;&gt;Node7</title>
<path fill="none" stroke="#191970" d="M802.2207,-107.5C813.6801,-107.5 825.5946,-107.5 837.4226,-107.5"/>
<polygon fill="#191970" stroke="#191970" points="837.781,-111.0001 847.781,-107.5 837.7809,-104.0001 837.781,-111.0001"/>
</g>
<!-- Node8 -->
<g id="node8" class="node">
<title>Node8</title>
<g id="a_node8"><a xlink:href="../../d5/d72/classG4String.html#acf651813ef2b99ae348f378717100d6c" target="_top" xlink:title="G4String::index">
<polygon fill="none" stroke="#000000" points="895,-58.5 895,-78.5 990,-78.5 990,-58.5 895,-58.5"/>
<text text-anchor="middle" x="942.5" y="-65.5" font-family="FreeSans" font-size="10.00" fill="#000000">G4String::index</text>
</a>
</g>
</g>
<!-- Node4&#45;&gt;Node8 -->
<g id="edge7" class="edge">
<title>Node4&#45;&gt;Node8</title>
<path fill="none" stroke="#191970" d="M778.0418,-97.4565C810.8001,-91.6887 851.8303,-84.4644 884.7129,-78.6747"/>
<polygon fill="#191970" stroke="#191970" points="885.3966,-82.1083 894.6381,-76.9271 884.1827,-75.2143 885.3966,-82.1083"/>
</g>
<!-- Node9 -->
<g id="node9" class="node">
<title>Node9</title>
<g id="a_node9"><a xlink:href="../../d5/d72/classG4String.html#afb274c4b23618f6ac01f89880e5069b9" target="_top" xlink:title="G4String::remove">
<polygon fill="none" stroke="#000000" points="889.5,-175.5 889.5,-195.5 995.5,-195.5 995.5,-175.5 889.5,-175.5"/>
<text text-anchor="middle" x="942.5" y="-182.5" font-family="FreeSans" font-size="10.00" fill="#000000">G4String::remove</text>
</a>
</g>
</g>
<!-- Node4&#45;&gt;Node9 -->
<g id="edge8" class="edge">
<title>Node4&#45;&gt;Node9</title>
<path fill="none" stroke="#191970" d="M738.9544,-117.5032C763.0681,-130.5456 807.5697,-153.2517 848,-166.5 858.0025,-169.7776 868.7945,-172.5916 879.3842,-174.972"/>
<polygon fill="#191970" stroke="#191970" points="878.9321,-178.4543 889.4429,-177.1222 880.3955,-171.609 878.9321,-178.4543"/>
</g>
<!-- Node11 -->
<g id="node11" class="node">
<title>Node11</title>
<g id="a_node11"><a xlink:href="../../d7/d0e/classG4UImessenger.html#a2ec470bda075e60546d83f05adb815d8" target="_top" xlink:title="G4UImessenger::GetCurrent\lValue">
<polygon fill="none" stroke="#000000" points="862.5,-214.5 862.5,-246.5 1022.5,-246.5 1022.5,-214.5 862.5,-214.5"/>
<text text-anchor="start" x="870.5" y="-233.5" font-family="FreeSans" font-size="10.00" fill="#000000">G4UImessenger::GetCurrent</text>
<text text-anchor="middle" x="942.5" y="-221.5" font-family="FreeSans" font-size="10.00" fill="#000000">Value</text>
</a>
</g>
</g>
<!-- Node10&#45;&gt;Node11 -->
<g id="edge10" class="edge">
<title>Node10&#45;&gt;Node11</title>
<path fill="none" stroke="#191970" d="M773.7734,-198.5067C797.2604,-202.9602 825.5922,-208.3324 852.2765,-213.3921"/>
<polygon fill="#191970" stroke="#191970" points="851.9323,-216.8892 862.4093,-215.3135 853.2364,-210.0117 851.9323,-216.8892"/>
</g>
</g>
</svg>
