<?xml version="1.0" encoding="UTF-8" standalone="no"?>
<!DOCTYPE svg PUBLIC "-//W3C//DTD SVG 1.1//EN"
 "http://www.w3.org/Graphics/SVG/1.1/DTD/svg11.dtd">
<!-- Generated by graphviz version 2.40.1 (20161225.0304)
 -->
<!-- Title: G4RunManagerKernel::GetRunManagerKernel Pages: 1 -->
<svg width="736pt" height="329pt"
 viewBox="0.00 0.00 736.00 329.00" xmlns="http://www.w3.org/2000/svg" xmlns:xlink="http://www.w3.org/1999/xlink">
<g id="graph0" class="graph" transform="scale(1 1) rotate(0) translate(4 325)">
<title>G4RunManagerKernel::GetRunManagerKernel</title>
<!-- Node1 -->
<g id="node1" class="node">
<title>Node1</title>
<polygon fill="#bfbfbf" stroke="#000000" points="0,-141.5 0,-173.5 136,-173.5 136,-141.5 0,-141.5"/>
<text text-anchor="start" x="8" y="-160.5" font-family="FreeSans" font-size="10.00" fill="#000000">G4RunManagerKernel</text>
<text text-anchor="middle" x="68" y="-148.5" font-family="FreeSans" font-size="10.00" fill="#000000">::GetRunManagerKernel</text>
</g>
<!-- Node2 -->
<g id="node2" class="node">
<title>Node2</title>
<g id="a_node2"><a xlink:href="../../d9/d74/classG4PhysicsListHelper.html#ac20fb3026110750773f336b82e50dcd8" target="_top" xlink:title="G4PhysicsListHelper\l::AddTransportation">
<polygon fill="none" stroke="#000000" points="194,-282.5 194,-314.5 314,-314.5 314,-282.5 194,-282.5"/>
<text text-anchor="start" x="202" y="-301.5" font-family="FreeSans" font-size="10.00" fill="#000000">G4PhysicsListHelper</text>
<text text-anchor="middle" x="254" y="-289.5" font-family="FreeSans" font-size="10.00" fill="#000000">::AddTransportation</text>
</a>
</g>
</g>
<!-- Node1&#45;&gt;Node2 -->
<g id="edge1" class="edge">
<title>Node1&#45;&gt;Node2</title>
<path fill="none" stroke="#191970" d="M83.7157,-181.8033C101.926,-208.0893 134.3055,-249.4501 172,-273.5 178.6498,-277.7427 186.0609,-281.3002 193.6329,-284.2744"/>
<polygon fill="#191970" stroke="#191970" points="86.6044,-179.827 78.096,-173.5137 80.8103,-183.7549 86.6044,-179.827"/>
</g>
<!-- Node3 -->
<g id="node3" class="node">
<title>Node3</title>
<g id="a_node3"><a xlink:href="../../d0/d0d/classG4VisManager.html#a25012a9168c470575712dffb8d1c336b" target="_top" xlink:title="G4VisManager::Disable">
<polygon fill="none" stroke="#000000" points="187,-243.5 187,-263.5 321,-263.5 321,-243.5 187,-243.5"/>
<text text-anchor="middle" x="254" y="-250.5" font-family="FreeSans" font-size="10.00" fill="#000000">G4VisManager::Disable</text>
</a>
</g>
</g>
<!-- Node1&#45;&gt;Node3 -->
<g id="edge2" class="edge">
<title>Node1&#45;&gt;Node3</title>
<path fill="none" stroke="#191970" d="M92.6505,-180.3537C112.6227,-197.6728 142.241,-220.7616 172,-234.5 179.8279,-238.1138 188.4032,-241.0711 196.9655,-243.4825"/>
<polygon fill="#191970" stroke="#191970" points="94.7797,-177.5645 84.9695,-173.5633 90.1433,-182.8089 94.7797,-177.5645"/>
</g>
<!-- Node6 -->
<g id="node6" class="node">
<title>Node6</title>
<g id="a_node6"><a xlink:href="../../d2/dc8/classG4MaterialScanner.html#a9b9141c56b72d7c8a66022549fd54647" target="_top" xlink:title="G4MaterialScanner::\lDoScan">
<polygon fill="none" stroke="#000000" points="194.5,-192.5 194.5,-224.5 313.5,-224.5 313.5,-192.5 194.5,-192.5"/>
<text text-anchor="start" x="202.5" y="-211.5" font-family="FreeSans" font-size="10.00" fill="#000000">G4MaterialScanner::</text>
<text text-anchor="middle" x="254" y="-199.5" font-family="FreeSans" font-size="10.00" fill="#000000">DoScan</text>
</a>
</g>
</g>
<!-- Node1&#45;&gt;Node6 -->
<g id="edge5" class="edge">
<title>Node1&#45;&gt;Node6</title>
<path fill="none" stroke="#191970" d="M136.2759,-176.2208C155.6702,-181.5386 176.6114,-187.2806 195.3788,-192.4264"/>
<polygon fill="#191970" stroke="#191970" points="137.1658,-172.8357 126.5963,-173.5667 135.3148,-179.5865 137.1658,-172.8357"/>
</g>
<!-- Node9 -->
<g id="node9" class="node">
<title>Node9</title>
<g id="a_node9"><a xlink:href="../../da/dda/classG4ExceptionHandler.html#a3180168492e32d3096770ee93634e0e4" target="_top" xlink:title="G4ExceptionHandler\l::DumpTrackInfo">
<polygon fill="none" stroke="#000000" points="193.5,-141.5 193.5,-173.5 314.5,-173.5 314.5,-141.5 193.5,-141.5"/>
<text text-anchor="start" x="201.5" y="-160.5" font-family="FreeSans" font-size="10.00" fill="#000000">G4ExceptionHandler</text>
<text text-anchor="middle" x="254" y="-148.5" font-family="FreeSans" font-size="10.00" fill="#000000">::DumpTrackInfo</text>
</a>
</g>
</g>
<!-- Node1&#45;&gt;Node9 -->
<g id="edge8" class="edge">
<title>Node1&#45;&gt;Node9</title>
<path fill="none" stroke="#191970" d="M146.4407,-157.5C162.1739,-157.5 178.4771,-157.5 193.4886,-157.5"/>
<polygon fill="#191970" stroke="#191970" points="146.2034,-154.0001 136.2034,-157.5 146.2033,-161.0001 146.2034,-154.0001"/>
</g>
<!-- Node11 -->
<g id="node11" class="node">
<title>Node11</title>
<g id="a_node11"><a xlink:href="../../dd/d36/pymodG4run_8cc.html#a065d1b3b03d3007e924e293df71580c8" target="_top" xlink:title="export_G4RunManagerKernel">
<polygon fill="none" stroke="#000000" points="172,-102.5 172,-122.5 336,-122.5 336,-102.5 172,-102.5"/>
<text text-anchor="middle" x="254" y="-109.5" font-family="FreeSans" font-size="10.00" fill="#000000">export_G4RunManagerKernel</text>
</a>
</g>
</g>
<!-- Node1&#45;&gt;Node11 -->
<g id="edge10" class="edge">
<title>Node1&#45;&gt;Node11</title>
<path fill="none" stroke="#191970" d="M141.2897,-139.009C151.5947,-136.4582 162.059,-133.8941 172,-131.5 184.3601,-128.5232 197.7897,-125.3754 210.1344,-122.5165"/>
<polygon fill="#191970" stroke="#191970" points="140.3426,-135.6378 131.4807,-141.4445 142.0295,-142.4315 140.3426,-135.6378"/>
</g>
<!-- Node13 -->
<g id="node13" class="node">
<title>Node13</title>
<g id="a_node13"><a xlink:href="../../d8/db0/classG4ErrorRunManagerHelper.html#a63949ac6358c67cd143b285b055400e1" target="_top" xlink:title="G4ErrorRunManagerHelper\l::G4ErrorRunManagerHelper">
<polygon fill="none" stroke="#000000" points="174,-51.5 174,-83.5 334,-83.5 334,-51.5 174,-51.5"/>
<text text-anchor="start" x="182" y="-70.5" font-family="FreeSans" font-size="10.00" fill="#000000">G4ErrorRunManagerHelper</text>
<text text-anchor="middle" x="254" y="-58.5" font-family="FreeSans" font-size="10.00" fill="#000000">::G4ErrorRunManagerHelper</text>
</a>
</g>
</g>
<!-- Node1&#45;&gt;Node13 -->
<g id="edge12" class="edge">
<title>Node1&#45;&gt;Node13</title>
<path fill="none" stroke="#191970" d="M98.5878,-135.3845C118.6957,-121.616 146.0049,-104.3359 172,-92.5 179.1789,-89.2314 186.9,-86.2446 194.631,-83.5631"/>
<polygon fill="#191970" stroke="#191970" points="96.3781,-132.6578 90.1617,-141.2373 100.3715,-138.407 96.3781,-132.6578"/>
</g>
<!-- Node14 -->
<g id="node14" class="node">
<title>Node14</title>
<g id="a_node14"><a xlink:href="../../d1/deb/classRE06SteppingVerbose.html#aeaf4de78143c23fa728c3faba74a7fa0" target="_top" xlink:title="RE06SteppingVerbose\l::InitializeTimers">
<polygon fill="none" stroke="#000000" points="190,-.5 190,-32.5 318,-32.5 318,-.5 190,-.5"/>
<text text-anchor="start" x="198" y="-19.5" font-family="FreeSans" font-size="10.00" fill="#000000">RE06SteppingVerbose</text>
<text text-anchor="middle" x="254" y="-7.5" font-family="FreeSans" font-size="10.00" fill="#000000">::InitializeTimers</text>
</a>
</g>
</g>
<!-- Node1&#45;&gt;Node14 -->
<g id="edge13" class="edge">
<title>Node1&#45;&gt;Node14</title>
<path fill="none" stroke="#191970" d="M83.7157,-133.1967C101.926,-106.9107 134.3055,-65.5499 172,-41.5 177.5206,-37.9777 183.5659,-34.9277 189.7923,-32.2917"/>
<polygon fill="#191970" stroke="#191970" points="80.8103,-131.2451 78.096,-141.4863 86.6044,-135.173 80.8103,-131.2451"/>
</g>
<!-- Node4 -->
<g id="node4" class="node">
<title>Node4</title>
<g id="a_node4"><a xlink:href="../../da/dc1/classG4VisCommandEnable.html#a83fe9560b75eab27e34a3d78251f5e96" target="_top" xlink:title="G4VisCommandEnable\l::SetNewValue">
<polygon fill="none" stroke="#000000" points="401.5,-288.5 401.5,-320.5 533.5,-320.5 533.5,-288.5 401.5,-288.5"/>
<text text-anchor="start" x="409.5" y="-307.5" font-family="FreeSans" font-size="10.00" fill="#000000">G4VisCommandEnable</text>
<text text-anchor="middle" x="467.5" y="-295.5" font-family="FreeSans" font-size="10.00" fill="#000000">::SetNewValue</text>
</a>
</g>
</g>
<!-- Node3&#45;&gt;Node4 -->
<g id="edge3" class="edge">
<title>Node3&#45;&gt;Node4</title>
<path fill="none" stroke="#191970" d="M305.7629,-265.8649C334.4934,-272.7279 370.5337,-281.3371 401.2971,-288.6857"/>
<polygon fill="#191970" stroke="#191970" points="306.4656,-262.4344 295.926,-263.5151 304.8391,-269.2428 306.4656,-262.4344"/>
</g>
<!-- Node5 -->
<g id="node5" class="node">
<title>Node5</title>
<g id="a_node5"><a xlink:href="../../da/d3f/classG4VisCommandReviewKeptEvents.html#a71ac6d1016d269b4d59f868da4f95238" target="_top" xlink:title="G4VisCommandReviewKeptEvents\l::SetNewValue">
<polygon fill="none" stroke="#000000" points="372,-237.5 372,-269.5 563,-269.5 563,-237.5 372,-237.5"/>
<text text-anchor="start" x="380" y="-256.5" font-family="FreeSans" font-size="10.00" fill="#000000">G4VisCommandReviewKeptEvents</text>
<text text-anchor="middle" x="467.5" y="-244.5" font-family="FreeSans" font-size="10.00" fill="#000000">::SetNewValue</text>
</a>
</g>
</g>
<!-- Node3&#45;&gt;Node5 -->
<g id="edge4" class="edge">
<title>Node3&#45;&gt;Node5</title>
<path fill="none" stroke="#191970" d="M331.56,-253.5C344.5921,-253.5 358.2531,-253.5 371.6808,-253.5"/>
<polygon fill="#191970" stroke="#191970" points="331.2597,-250.0001 321.2597,-253.5 331.2597,-257.0001 331.2597,-250.0001"/>
</g>
<!-- Node7 -->
<g id="node7" class="node">
<title>Node7</title>
<g id="a_node7"><a xlink:href="../../d2/dc8/classG4MaterialScanner.html#a23308c4b255bd7e571a2a04a77b43a6b" target="_top" xlink:title="G4MaterialScanner::Scan">
<polygon fill="none" stroke="#000000" points="395.5,-198.5 395.5,-218.5 539.5,-218.5 539.5,-198.5 395.5,-198.5"/>
<text text-anchor="middle" x="467.5" y="-205.5" font-family="FreeSans" font-size="10.00" fill="#000000">G4MaterialScanner::Scan</text>
</a>
</g>
</g>
<!-- Node6&#45;&gt;Node7 -->
<g id="edge6" class="edge">
<title>Node6&#45;&gt;Node7</title>
<path fill="none" stroke="#191970" d="M324.0465,-208.5C346.8736,-208.5 372.2502,-208.5 395.2367,-208.5"/>
<polygon fill="#191970" stroke="#191970" points="323.7556,-205.0001 313.7555,-208.5 323.7555,-212.0001 323.7556,-205.0001"/>
</g>
<!-- Node8 -->
<g id="node8" class="node">
<title>Node8</title>
<g id="a_node8"><a xlink:href="../../d4/d36/classG4MatScanMessenger.html#ae7172e8e059a99c2d11cb622a26d1ab3" target="_top" xlink:title="G4MatScanMessenger\l::SetNewValue">
<polygon fill="none" stroke="#000000" points="599,-192.5 599,-224.5 728,-224.5 728,-192.5 599,-192.5"/>
<text text-anchor="start" x="607" y="-211.5" font-family="FreeSans" font-size="10.00" fill="#000000">G4MatScanMessenger</text>
<text text-anchor="middle" x="663.5" y="-199.5" font-family="FreeSans" font-size="10.00" fill="#000000">::SetNewValue</text>
</a>
</g>
</g>
<!-- Node7&#45;&gt;Node8 -->
<g id="edge7" class="edge">
<title>Node7&#45;&gt;Node8</title>
<path fill="none" stroke="#191970" d="M549.7786,-208.5C566.2017,-208.5 583.2296,-208.5 598.9521,-208.5"/>
<polygon fill="#191970" stroke="#191970" points="549.6482,-205.0001 539.6482,-208.5 549.6481,-212.0001 549.6482,-205.0001"/>
</g>
<!-- Node10 -->
<g id="node10" class="node">
<title>Node10</title>
<g id="a_node10"><a xlink:href="../../da/dda/classG4ExceptionHandler.html#abf407f52dde1e6bb6e467863084d3b09" target="_top" xlink:title="G4ExceptionHandler\l::Notify">
<polygon fill="none" stroke="#000000" points="407,-141.5 407,-173.5 528,-173.5 528,-141.5 407,-141.5"/>
<text text-anchor="start" x="415" y="-160.5" font-family="FreeSans" font-size="10.00" fill="#000000">G4ExceptionHandler</text>
<text text-anchor="middle" x="467.5" y="-148.5" font-family="FreeSans" font-size="10.00" fill="#000000">::Notify</text>
</a>
</g>
</g>
<!-- Node9&#45;&gt;Node10 -->
<g id="edge9" class="edge">
<title>Node9&#45;&gt;Node10</title>
<path fill="none" stroke="#191970" d="M324.6113,-157.5C351.1831,-157.5 381.1419,-157.5 406.739,-157.5"/>
<polygon fill="#191970" stroke="#191970" points="324.6095,-154.0001 314.6094,-157.5 324.6094,-161.0001 324.6095,-154.0001"/>
</g>
<!-- Node12 -->
<g id="node12" class="node">
<title>Node12</title>
<g id="a_node12"><a xlink:href="../../dd/d36/pymodG4run_8cc.html#a6d23b1bd4c250a6083c97cde722122ab" target="_top" xlink:title="BOOST_PYTHON_MODULE">
<polygon fill="none" stroke="#000000" points="394.5,-102.5 394.5,-122.5 540.5,-122.5 540.5,-102.5 394.5,-102.5"/>
<text text-anchor="middle" x="467.5" y="-109.5" font-family="FreeSans" font-size="10.00" fill="#000000">BOOST_PYTHON_MODULE</text>
</a>
</g>
</g>
<!-- Node11&#45;&gt;Node12 -->
<g id="edge11" class="edge">
<title>Node11&#45;&gt;Node12</title>
<path fill="none" stroke="#191970" d="M346.6533,-112.5C362.6178,-112.5 379.0104,-112.5 394.369,-112.5"/>
<polygon fill="#191970" stroke="#191970" points="346.2393,-109.0001 336.2393,-112.5 346.2392,-116.0001 346.2393,-109.0001"/>
</g>
<!-- Node15 -->
<g id="node15" class="node">
<title>Node15</title>
<g id="a_node15"><a xlink:href="../../d1/d72/classRE06RunAction.html#a0679027cc0ce167938f81e6cfe093d82" target="_top" xlink:title="RE06RunAction::BeginOfRun\lAction">
<polygon fill="none" stroke="#000000" points="387.5,-.5 387.5,-32.5 547.5,-32.5 547.5,-.5 387.5,-.5"/>
<text text-anchor="start" x="395.5" y="-19.5" font-family="FreeSans" font-size="10.00" fill="#000000">RE06RunAction::BeginOfRun</text>
<text text-anchor="middle" x="467.5" y="-7.5" font-family="FreeSans" font-size="10.00" fill="#000000">Action</text>
</a>
</g>
</g>
<!-- Node14&#45;&gt;Node15 -->
<g id="edge14" class="edge">
<title>Node14&#45;&gt;Node15</title>
<path fill="none" stroke="#191970" d="M328.174,-16.5C347.2434,-16.5 367.8466,-16.5 387.2102,-16.5"/>
<polygon fill="#191970" stroke="#191970" points="328.0571,-13.0001 318.057,-16.5 328.057,-20.0001 328.0571,-13.0001"/>
</g>
</g>
</svg>
