<?xml version="1.0" encoding="UTF-8" standalone="no"?>
<!DOCTYPE svg PUBLIC "-//W3C//DTD SVG 1.1//EN"
 "http://www.w3.org/Graphics/SVG/1.1/DTD/svg11.dtd">
<!-- Generated by graphviz version 2.40.1 (20161225.0304)
 -->
<!-- Title: G4PVReplica::TerminateWorker Pages: 1 -->
<svg width="929pt" height="41pt"
 viewBox="0.00 0.00 929.00 41.00" xmlns="http://www.w3.org/2000/svg" xmlns:xlink="http://www.w3.org/1999/xlink">
<g id="graph0" class="graph" transform="scale(1 1) rotate(0) translate(4 37)">
<title>G4PVReplica::TerminateWorker</title>
<!-- Node1 -->
<g id="node1" class="node">
<title>Node1</title>
<polygon fill="#bfbfbf" stroke="#000000" points="0,-6.5 0,-26.5 173,-26.5 173,-6.5 0,-6.5"/>
<text text-anchor="middle" x="86.5" y="-13.5" font-family="FreeSans" font-size="10.00" fill="#000000">G4PVReplica::TerminateWorker</text>
</g>
<!-- Node2 -->
<g id="node2" class="node">
<title>Node2</title>
<g id="a_node2"><a xlink:href="../../d6/d0e/classG4GeometryWorkspace.html#aaf467004b1449b538aedd0b871b96b7d" target="_top" xlink:title="G4GeometryWorkspace\l::DestroyWorkspace">
<polygon fill="none" stroke="#000000" points="209,-.5 209,-32.5 345,-32.5 345,-.5 209,-.5"/>
<text text-anchor="start" x="217" y="-19.5" font-family="FreeSans" font-size="10.00" fill="#000000">G4GeometryWorkspace</text>
<text text-anchor="middle" x="277" y="-7.5" font-family="FreeSans" font-size="10.00" fill="#000000">::DestroyWorkspace</text>
</a>
</g>
</g>
<!-- Node1&#45;&gt;Node2 -->
<g id="edge1" class="edge">
<title>Node1&#45;&gt;Node2</title>
<path fill="none" stroke="#191970" d="M183.254,-16.5C191.9034,-16.5 200.5362,-16.5 208.8671,-16.5"/>
<polygon fill="#191970" stroke="#191970" points="183.11,-13.0001 173.1099,-16.5 183.1099,-20.0001 183.11,-13.0001"/>
</g>
<!-- Node3 -->
<g id="node3" class="node">
<title>Node3</title>
<g id="a_node3"><a xlink:href="../../dd/d14/classG4WorkerThread.html#a6d3c23031827d571c330dd1b3ddcadfc" target="_top" xlink:title="G4WorkerThread::UpdateGeometry\lAndPhysicsVectorFromMaster">
<polygon fill="none" stroke="#000000" points="381,-.5 381,-32.5 577,-32.5 577,-.5 381,-.5"/>
<text text-anchor="start" x="389" y="-19.5" font-family="FreeSans" font-size="10.00" fill="#000000">G4WorkerThread::UpdateGeometry</text>
<text text-anchor="middle" x="479" y="-7.5" font-family="FreeSans" font-size="10.00" fill="#000000">AndPhysicsVectorFromMaster</text>
</a>
</g>
</g>
<!-- Node2&#45;&gt;Node3 -->
<g id="edge2" class="edge">
<title>Node2&#45;&gt;Node3</title>
<path fill="none" stroke="#191970" d="M355.1811,-16.5C363.5437,-16.5 372.1265,-16.5 380.6836,-16.5"/>
<polygon fill="#191970" stroke="#191970" points="355.1064,-13.0001 345.1064,-16.5 355.1063,-20.0001 355.1064,-13.0001"/>
</g>
<!-- Node4 -->
<g id="node4" class="node">
<title>Node4</title>
<g id="a_node4"><a xlink:href="../../d3/db3/classG4WorkerRunManager.html#a7842c4718bc1dac68e953d55f2b8ff41" target="_top" xlink:title="G4WorkerRunManager\l::DoWork">
<polygon fill="none" stroke="#000000" points="613,-.5 613,-32.5 744,-32.5 744,-.5 613,-.5"/>
<text text-anchor="start" x="621" y="-19.5" font-family="FreeSans" font-size="10.00" fill="#000000">G4WorkerRunManager</text>
<text text-anchor="middle" x="678.5" y="-7.5" font-family="FreeSans" font-size="10.00" fill="#000000">::DoWork</text>
</a>
</g>
</g>
<!-- Node3&#45;&gt;Node4 -->
<g id="edge3" class="edge">
<title>Node3&#45;&gt;Node4</title>
<path fill="none" stroke="#191970" d="M587.4871,-16.5C596.1534,-16.5 604.7309,-16.5 612.9555,-16.5"/>
<polygon fill="#191970" stroke="#191970" points="587.2889,-13.0001 577.2889,-16.5 587.2888,-20.0001 587.2889,-13.0001"/>
</g>
<!-- Node5 -->
<g id="node5" class="node">
<title>Node5</title>
<g id="a_node5"><a xlink:href="../../de/da2/classG4MTRunManagerKernel.html#ae882e6568e1ba24a8506ca216d565031" target="_top" xlink:title="G4MTRunManagerKernel\l::StartThread">
<polygon fill="none" stroke="#000000" points="780,-.5 780,-32.5 921,-32.5 921,-.5 780,-.5"/>
<text text-anchor="start" x="788" y="-19.5" font-family="FreeSans" font-size="10.00" fill="#000000">G4MTRunManagerKernel</text>
<text text-anchor="middle" x="850.5" y="-7.5" font-family="FreeSans" font-size="10.00" fill="#000000">::StartThread</text>
</a>
</g>
</g>
<!-- Node4&#45;&gt;Node5 -->
<g id="edge4" class="edge">
<title>Node4&#45;&gt;Node5</title>
<path fill="none" stroke="#191970" d="M754.2543,-16.5C762.7206,-16.5 771.3212,-16.5 779.7217,-16.5"/>
<polygon fill="#191970" stroke="#191970" points="754.0165,-13.0001 744.0165,-16.5 754.0165,-20.0001 754.0165,-13.0001"/>
</g>
</g>
</svg>
