<?xml version="1.0" encoding="UTF-8" standalone="no"?>
<!DOCTYPE svg PUBLIC "-//W3C//DTD SVG 1.1//EN"
 "http://www.w3.org/Graphics/SVG/1.1/DTD/svg11.dtd">
<!-- Generated by graphviz version 2.40.1 (20161225.0304)
 -->
<!-- Title: G4Field::GetFieldValue Pages: 1 -->
<svg width="1255pt" height="690pt"
 viewBox="0.00 0.00 1255.00 690.00" xmlns="http://www.w3.org/2000/svg" xmlns:xlink="http://www.w3.org/1999/xlink">
<g id="graph0" class="graph" transform="scale(1 1) rotate(0) translate(4 686)">
<title>G4Field::GetFieldValue</title>
<!-- Node1 -->
<g id="node1" class="node">
<title>Node1</title>
<polygon fill="#bfbfbf" stroke="#000000" points="0,-349.5 0,-369.5 130,-369.5 130,-349.5 0,-349.5"/>
<text text-anchor="middle" x="65" y="-356.5" font-family="FreeSans" font-size="10.00" fill="#000000">G4Field::GetFieldValue</text>
</g>
<!-- Node2 -->
<g id="node2" class="node">
<title>Node2</title>
<g id="a_node2"><a xlink:href="../../d8/d3c/classG4ErrorSurfaceTrajState.html#a16ee1fc3318b012e3b9ddf02377da6d8" target="_top" xlink:title="G4ErrorSurfaceTrajState\l::BuildErrorMatrix">
<polygon fill="none" stroke="#000000" points="187.5,-649.5 187.5,-681.5 325.5,-681.5 325.5,-649.5 187.5,-649.5"/>
<text text-anchor="start" x="195.5" y="-668.5" font-family="FreeSans" font-size="10.00" fill="#000000">G4ErrorSurfaceTrajState</text>
<text text-anchor="middle" x="256.5" y="-656.5" font-family="FreeSans" font-size="10.00" fill="#000000">::BuildErrorMatrix</text>
</a>
</g>
</g>
<!-- Node1&#45;&gt;Node2 -->
<g id="edge1" class="edge">
<title>Node1&#45;&gt;Node2</title>
<path fill="none" stroke="#191970" d="M66.1499,-379.9135C70.1843,-431.5246 88.0718,-568.2461 166,-640.5 172.096,-646.1521 179.3549,-650.5445 187.0715,-653.9546"/>
<polygon fill="#191970" stroke="#191970" points="69.6276,-379.466 65.4523,-369.7286 62.644,-379.9444 69.6276,-379.466"/>
</g>
<!-- Node4 -->
<g id="node4" class="node">
<title>Node4</title>
<g id="a_node4"><a xlink:href="../../d3/d77/classPHG4OuterHcalSteppingAction.html#a03f0a2b7a371616bee75f13243d9a4a3" target="_top" xlink:title="PHG4OuterHcalSteppingAction\l::FieldChecker">
<polygon fill="none" stroke="#000000" points="170.5,-598.5 170.5,-630.5 342.5,-630.5 342.5,-598.5 170.5,-598.5"/>
<text text-anchor="start" x="178.5" y="-617.5" font-family="FreeSans" font-size="10.00" fill="#000000">PHG4OuterHcalSteppingAction</text>
<text text-anchor="middle" x="256.5" y="-605.5" font-family="FreeSans" font-size="10.00" fill="#000000">::FieldChecker</text>
</a>
</g>
</g>
<!-- Node1&#45;&gt;Node4 -->
<g id="edge3" class="edge">
<title>Node1&#45;&gt;Node4</title>
<path fill="none" stroke="#191970" d="M67.9105,-379.4784C75.4857,-424.1002 100.025,-532.4164 166,-589.5 169.9445,-592.9129 174.317,-595.8633 178.9488,-598.4133"/>
<polygon fill="#191970" stroke="#191970" points="71.3629,-378.9021 66.3352,-369.5762 64.4498,-380.0019 71.3629,-378.9021"/>
</g>
<!-- Node6 -->
<g id="node6" class="node">
<title>Node6</title>
<g id="a_node6"><a xlink:href="../../de/d15/classG4ErrorFreeTrajState.html#a9cd80cbe18b812e160b6e03ca7c9c1b0" target="_top" xlink:title="G4ErrorFreeTrajState\l::G4ErrorFreeTrajState">
<polygon fill="none" stroke="#000000" points="192.5,-547.5 192.5,-579.5 320.5,-579.5 320.5,-547.5 192.5,-547.5"/>
<text text-anchor="start" x="200.5" y="-566.5" font-family="FreeSans" font-size="10.00" fill="#000000">G4ErrorFreeTrajState</text>
<text text-anchor="middle" x="256.5" y="-554.5" font-family="FreeSans" font-size="10.00" fill="#000000">::G4ErrorFreeTrajState</text>
</a>
</g>
</g>
<!-- Node1&#45;&gt;Node6 -->
<g id="edge5" class="edge">
<title>Node1&#45;&gt;Node6</title>
<path fill="none" stroke="#191970" d="M70.6517,-379.5345C82.1826,-416.6855 112.0049,-496.3078 166,-538.5 173.7064,-544.5219 182.7718,-549.0943 192.1357,-552.5659"/>
<polygon fill="#191970" stroke="#191970" points="73.9762,-378.4351 67.766,-369.8511 67.2678,-380.4343 73.9762,-378.4351"/>
</g>
<!-- Node7 -->
<g id="node7" class="node">
<title>Node7</title>
<g id="a_node7"><a xlink:href="../../d1/dbe/classG4ElectricFieldModel.html#ad12ff2fb4dc06be95fa79fddea5e6c0b" target="_top" xlink:title="G4ElectricFieldModel\l::GetFieldAtLocation">
<polygon fill="none" stroke="#000000" points="195.5,-496.5 195.5,-528.5 317.5,-528.5 317.5,-496.5 195.5,-496.5"/>
<text text-anchor="start" x="203.5" y="-515.5" font-family="FreeSans" font-size="10.00" fill="#000000">G4ElectricFieldModel</text>
<text text-anchor="middle" x="256.5" y="-503.5" font-family="FreeSans" font-size="10.00" fill="#000000">::GetFieldAtLocation</text>
</a>
</g>
</g>
<!-- Node1&#45;&gt;Node7 -->
<g id="edge6" class="edge">
<title>Node1&#45;&gt;Node7</title>
<path fill="none" stroke="#191970" d="M74.7849,-378.4493C90.287,-406.5667 123.1772,-459.0665 166,-487.5 174.8266,-493.3607 185.0054,-497.857 195.2806,-501.3039"/>
<polygon fill="#191970" stroke="#191970" points="77.8498,-376.7585 70.039,-369.6001 71.6809,-380.0669 77.8498,-376.7585"/>
</g>
<!-- Node8 -->
<g id="node8" class="node">
<title>Node8</title>
<g id="a_node8"><a xlink:href="../../dd/dc0/classG4MagneticFieldModel.html#a409892b9d53b21f26672dd8567ee89f0" target="_top" xlink:title="G4MagneticFieldModel\l::GetFieldAtLocation">
<polygon fill="none" stroke="#000000" points="191.5,-445.5 191.5,-477.5 321.5,-477.5 321.5,-445.5 191.5,-445.5"/>
<text text-anchor="start" x="199.5" y="-464.5" font-family="FreeSans" font-size="10.00" fill="#000000">G4MagneticFieldModel</text>
<text text-anchor="middle" x="256.5" y="-452.5" font-family="FreeSans" font-size="10.00" fill="#000000">::GetFieldAtLocation</text>
</a>
</g>
</g>
<!-- Node1&#45;&gt;Node8 -->
<g id="edge7" class="edge">
<title>Node1&#45;&gt;Node8</title>
<path fill="none" stroke="#191970" d="M82.6438,-376.3598C101.7588,-393.7624 133.8521,-420.5544 166,-436.5 173.8854,-440.4112 182.471,-443.7848 191.1104,-446.6734"/>
<polygon fill="#191970" stroke="#191970" points="84.9965,-373.7682 75.2839,-369.5354 80.2369,-378.9012 84.9965,-373.7682"/>
</g>
<!-- Node9 -->
<g id="node9" class="node">
<title>Node9</title>
<g id="a_node9"><a xlink:href="../../d8/d1e/classPHG4OuterHcalField.html#af89f6b751ebde1d2713a6c558fd24480" target="_top" xlink:title="PHG4OuterHcalField\l::GetFieldValue">
<polygon fill="none" stroke="#000000" points="197.5,-394.5 197.5,-426.5 315.5,-426.5 315.5,-394.5 197.5,-394.5"/>
<text text-anchor="start" x="205.5" y="-413.5" font-family="FreeSans" font-size="10.00" fill="#000000">PHG4OuterHcalField</text>
<text text-anchor="middle" x="256.5" y="-401.5" font-family="FreeSans" font-size="10.00" fill="#000000">::GetFieldValue</text>
</a>
</g>
</g>
<!-- Node1&#45;&gt;Node9 -->
<g id="edge8" class="edge">
<title>Node1&#45;&gt;Node9</title>
<path fill="none" stroke="#191970" d="M112.6774,-372.1974C138.2801,-379.0159 170.0749,-387.4834 197.2544,-394.7218"/>
<polygon fill="#191970" stroke="#191970" points="113.3982,-368.7674 102.8342,-369.576 111.5967,-375.5316 113.3982,-368.7674"/>
</g>
<!-- Node10 -->
<g id="node10" class="node">
<title>Node10</title>
<g id="a_node10"><a xlink:href="../../d3/d05/classG4SynchrotronRadiation.html#a4f87db3318798b20031d5d92d1056bf6" target="_top" xlink:title="G4SynchrotronRadiation\l::GetMeanFreePath">
<polygon fill="none" stroke="#000000" points="186.5,-343.5 186.5,-375.5 326.5,-375.5 326.5,-343.5 186.5,-343.5"/>
<text text-anchor="start" x="194.5" y="-362.5" font-family="FreeSans" font-size="10.00" fill="#000000">G4SynchrotronRadiation</text>
<text text-anchor="middle" x="256.5" y="-350.5" font-family="FreeSans" font-size="10.00" fill="#000000">::GetMeanFreePath</text>
</a>
</g>
</g>
<!-- Node1&#45;&gt;Node10 -->
<g id="edge9" class="edge">
<title>Node1&#45;&gt;Node10</title>
<path fill="none" stroke="#191970" d="M140.4387,-359.5C155.564,-359.5 171.398,-359.5 186.3355,-359.5"/>
<polygon fill="#191970" stroke="#191970" points="140.1004,-356.0001 130.1004,-359.5 140.1003,-363.0001 140.1004,-356.0001"/>
</g>
<!-- Node11 -->
<g id="node11" class="node">
<title>Node11</title>
<g id="a_node11"><a xlink:href="../../d9/d5c/classG4SynchrotronRadiationInMat.html#a2b04f01db6e570c1830f2d34cd781b63" target="_top" xlink:title="G4SynchrotronRadiationIn\lMat::GetMeanFreePath">
<polygon fill="none" stroke="#000000" points="182,-292.5 182,-324.5 331,-324.5 331,-292.5 182,-292.5"/>
<text text-anchor="start" x="190" y="-311.5" font-family="FreeSans" font-size="10.00" fill="#000000">G4SynchrotronRadiationIn</text>
<text text-anchor="middle" x="256.5" y="-299.5" font-family="FreeSans" font-size="10.00" fill="#000000">Mat::GetMeanFreePath</text>
</a>
</g>
</g>
<!-- Node1&#45;&gt;Node11 -->
<g id="edge10" class="edge">
<title>Node1&#45;&gt;Node11</title>
<path fill="none" stroke="#191970" d="M112.5536,-346.8356C137.8256,-340.1052 169.1572,-331.761 196.13,-324.5777"/>
<polygon fill="#191970" stroke="#191970" points="111.5967,-343.4684 102.8342,-349.424 113.3982,-350.2326 111.5967,-343.4684"/>
</g>
<!-- Node12 -->
<g id="node12" class="node">
<title>Node12</title>
<g id="a_node12"><a xlink:href="../../d9/d5c/classG4SynchrotronRadiationInMat.html#aae5227d13061e00f1265f474999aee0b" target="_top" xlink:title="G4SynchrotronRadiationIn\lMat::GetPhotonEnergy">
<polygon fill="none" stroke="#000000" points="182,-241.5 182,-273.5 331,-273.5 331,-241.5 182,-241.5"/>
<text text-anchor="start" x="190" y="-260.5" font-family="FreeSans" font-size="10.00" fill="#000000">G4SynchrotronRadiationIn</text>
<text text-anchor="middle" x="256.5" y="-248.5" font-family="FreeSans" font-size="10.00" fill="#000000">Mat::GetPhotonEnergy</text>
</a>
</g>
</g>
<!-- Node1&#45;&gt;Node12 -->
<g id="edge11" class="edge">
<title>Node1&#45;&gt;Node12</title>
<path fill="none" stroke="#191970" d="M83.0275,-342.6597C102.2386,-325.5406 134.2081,-299.3472 166,-283.5 173.4615,-279.7807 181.5419,-276.5114 189.6984,-273.6604"/>
<polygon fill="#191970" stroke="#191970" points="80.669,-340.0736 75.613,-349.3843 85.3717,-345.2588 80.669,-340.0736"/>
</g>
<!-- Node13 -->
<g id="node13" class="node">
<title>Node13</title>
<g id="a_node13"><a xlink:href="../../d3/d05/classG4SynchrotronRadiation.html#aa0a05cdf9dd16d17d2aa3a1ba6ed9c8e" target="_top" xlink:title="G4SynchrotronRadiation\l::PostStepDoIt">
<polygon fill="none" stroke="#000000" points="186.5,-190.5 186.5,-222.5 326.5,-222.5 326.5,-190.5 186.5,-190.5"/>
<text text-anchor="start" x="194.5" y="-209.5" font-family="FreeSans" font-size="10.00" fill="#000000">G4SynchrotronRadiation</text>
<text text-anchor="middle" x="256.5" y="-197.5" font-family="FreeSans" font-size="10.00" fill="#000000">::PostStepDoIt</text>
</a>
</g>
</g>
<!-- Node1&#45;&gt;Node13 -->
<g id="edge12" class="edge">
<title>Node1&#45;&gt;Node13</title>
<path fill="none" stroke="#191970" d="M75.092,-340.3421C90.7851,-312.4184 123.6836,-260.7934 166,-232.5 172.2512,-228.3203 179.1779,-224.8033 186.3355,-221.8456"/>
<polygon fill="#191970" stroke="#191970" points="72.0005,-338.7007 70.2714,-349.1535 78.1415,-342.0604 72.0005,-338.7007"/>
</g>
<!-- Node14 -->
<g id="node14" class="node">
<title>Node14</title>
<g id="a_node14"><a xlink:href="../../d9/d5c/classG4SynchrotronRadiationInMat.html#a1e6312ec1399033b62de6afcf22b73c0" target="_top" xlink:title="G4SynchrotronRadiationIn\lMat::PostStepDoIt">
<polygon fill="none" stroke="#000000" points="182,-139.5 182,-171.5 331,-171.5 331,-139.5 182,-139.5"/>
<text text-anchor="start" x="190" y="-158.5" font-family="FreeSans" font-size="10.00" fill="#000000">G4SynchrotronRadiationIn</text>
<text text-anchor="middle" x="256.5" y="-146.5" font-family="FreeSans" font-size="10.00" fill="#000000">Mat::PostStepDoIt</text>
</a>
</g>
</g>
<!-- Node1&#45;&gt;Node14 -->
<g id="edge13" class="edge">
<title>Node1&#45;&gt;Node14</title>
<path fill="none" stroke="#191970" d="M70.7254,-339.6275C82.3793,-302.7676 112.3986,-223.7239 166,-181.5 170.8798,-177.656 176.305,-174.3803 182.0061,-171.5889"/>
<polygon fill="#191970" stroke="#191970" points="67.365,-338.6483 67.8061,-349.2339 74.0626,-340.6836 67.365,-338.6483"/>
</g>
<!-- Node15 -->
<g id="node15" class="node">
<title>Node15</title>
<g id="a_node15"><a xlink:href="../../d1/d20/classG4ErrorMagFieldLimitProcess.html#afb3dc36e959a35bfa77c44a205d59fd4" target="_top" xlink:title="G4ErrorMagFieldLimitProcess\l::PostStepGetPhysicalInteraction\lLength">
<polygon fill="none" stroke="#000000" points="166,-76.5 166,-120.5 347,-120.5 347,-76.5 166,-76.5"/>
<text text-anchor="start" x="174" y="-107.5" font-family="FreeSans" font-size="10.00" fill="#000000">G4ErrorMagFieldLimitProcess</text>
<text text-anchor="start" x="174" y="-95.5" font-family="FreeSans" font-size="10.00" fill="#000000">::PostStepGetPhysicalInteraction</text>
<text text-anchor="middle" x="256.5" y="-83.5" font-family="FreeSans" font-size="10.00" fill="#000000">Length</text>
</a>
</g>
</g>
<!-- Node1&#45;&gt;Node15 -->
<g id="edge14" class="edge">
<title>Node1&#45;&gt;Node15</title>
<path fill="none" stroke="#191970" d="M68.3988,-339.0428C76.8104,-294.7415 102.6869,-189.2039 166,-130.5 170.0327,-126.7608 174.5296,-123.454 179.3039,-120.53"/>
<polygon fill="#191970" stroke="#191970" points="64.9068,-338.6877 66.586,-349.1485 71.7968,-339.9237 64.9068,-338.6877"/>
</g>
<!-- Node16 -->
<g id="node16" class="node">
<title>Node16</title>
<g id="a_node16"><a xlink:href="../../de/d15/classG4ErrorFreeTrajState.html#aba94476e89b755f16d94b639b6b95be5" target="_top" xlink:title="G4ErrorFreeTrajState\l::PropagateError">
<polygon fill="none" stroke="#000000" points="196,-25.5 196,-57.5 317,-57.5 317,-25.5 196,-25.5"/>
<text text-anchor="start" x="204" y="-44.5" font-family="FreeSans" font-size="10.00" fill="#000000">G4ErrorFreeTrajState</text>
<text text-anchor="middle" x="256.5" y="-32.5" font-family="FreeSans" font-size="10.00" fill="#000000">::PropagateError</text>
</a>
</g>
</g>
<!-- Node1&#45;&gt;Node16 -->
<g id="edge15" class="edge">
<title>Node1&#45;&gt;Node16</title>
<path fill="none" stroke="#191970" d="M65.859,-339.4102C69.2193,-286.7719 85.6719,-143.6605 166,-67.5 174.3041,-59.6268 184.8334,-54.1152 195.7501,-50.2625"/>
<polygon fill="#191970" stroke="#191970" points="62.36,-339.2982 65.3108,-349.4738 69.3497,-339.679 62.36,-339.2982"/>
</g>
<!-- Node3 -->
<g id="node3" class="node">
<title>Node3</title>
<g id="a_node3"><a xlink:href="../../d8/d3c/classG4ErrorSurfaceTrajState.html#adb7a43d441ce461e4144f459ccf078bd" target="_top" xlink:title="G4ErrorSurfaceTrajState\l::G4ErrorSurfaceTrajState">
<polygon fill="none" stroke="#000000" points="396.5,-649.5 396.5,-681.5 541.5,-681.5 541.5,-649.5 396.5,-649.5"/>
<text text-anchor="start" x="404.5" y="-668.5" font-family="FreeSans" font-size="10.00" fill="#000000">G4ErrorSurfaceTrajState</text>
<text text-anchor="middle" x="469" y="-656.5" font-family="FreeSans" font-size="10.00" fill="#000000">::G4ErrorSurfaceTrajState</text>
</a>
</g>
</g>
<!-- Node2&#45;&gt;Node3 -->
<g id="edge2" class="edge">
<title>Node2&#45;&gt;Node3</title>
<path fill="none" stroke="#191970" d="M335.9699,-665.5C355.7036,-665.5 376.7557,-665.5 396.1541,-665.5"/>
<polygon fill="#191970" stroke="#191970" points="335.7864,-662.0001 325.7864,-665.5 335.7864,-669.0001 335.7864,-662.0001"/>
</g>
<!-- Node5 -->
<g id="node5" class="node">
<title>Node5</title>
<g id="a_node5"><a xlink:href="../../d3/d77/classPHG4OuterHcalSteppingAction.html#a212d3081cbabd0b44034b5467a86a5e2" target="_top" xlink:title="stepping action">
<polygon fill="none" stroke="#000000" points="383,-598.5 383,-630.5 555,-630.5 555,-598.5 383,-598.5"/>
<text text-anchor="start" x="391" y="-617.5" font-family="FreeSans" font-size="10.00" fill="#000000">PHG4OuterHcalSteppingAction</text>
<text text-anchor="middle" x="469" y="-605.5" font-family="FreeSans" font-size="10.00" fill="#000000">::UserSteppingAction</text>
</a>
</g>
</g>
<!-- Node4&#45;&gt;Node5 -->
<g id="edge4" class="edge">
<title>Node4&#45;&gt;Node5</title>
<path fill="none" stroke="#191970" d="M352.9299,-614.5C362.8723,-614.5 372.9303,-614.5 382.7518,-614.5"/>
<polygon fill="#191970" stroke="#191970" points="352.6256,-611.0001 342.6255,-614.5 352.6255,-618.0001 352.6256,-611.0001"/>
</g>
<!-- Node17 -->
<g id="node17" class="node">
<title>Node17</title>
<g id="a_node17"><a xlink:href="../../d7/de8/classG4ErrorPropagator.html#ab12283985ad650af4b65ab9500c79c08" target="_top" xlink:title="G4ErrorPropagator::\lMakeOneStep">
<polygon fill="none" stroke="#000000" points="411,-25.5 411,-57.5 527,-57.5 527,-25.5 411,-25.5"/>
<text text-anchor="start" x="419" y="-44.5" font-family="FreeSans" font-size="10.00" fill="#000000">G4ErrorPropagator::</text>
<text text-anchor="middle" x="469" y="-32.5" font-family="FreeSans" font-size="10.00" fill="#000000">MakeOneStep</text>
</a>
</g>
</g>
<!-- Node16&#45;&gt;Node17 -->
<g id="edge16" class="edge">
<title>Node16&#45;&gt;Node17</title>
<path fill="none" stroke="#191970" d="M327.3202,-41.5C354.4513,-41.5 385.0631,-41.5 410.872,-41.5"/>
<polygon fill="#191970" stroke="#191970" points="327.1096,-38.0001 317.1096,-41.5 327.1096,-45.0001 327.1096,-38.0001"/>
</g>
<!-- Node18 -->
<g id="node18" class="node">
<title>Node18</title>
<g id="a_node18"><a xlink:href="../../d7/de8/classG4ErrorPropagator.html#a49889dad1ec230c8c161792892c1f6b3" target="_top" xlink:title="G4ErrorPropagator::\lMakeSteps">
<polygon fill="none" stroke="#000000" points="591,-49.5 591,-81.5 707,-81.5 707,-49.5 591,-49.5"/>
<text text-anchor="start" x="599" y="-68.5" font-family="FreeSans" font-size="10.00" fill="#000000">G4ErrorPropagator::</text>
<text text-anchor="middle" x="649" y="-56.5" font-family="FreeSans" font-size="10.00" fill="#000000">MakeSteps</text>
</a>
</g>
</g>
<!-- Node17&#45;&gt;Node18 -->
<g id="edge17" class="edge">
<title>Node17&#45;&gt;Node18</title>
<path fill="none" stroke="#191970" d="M537.6215,-50.6495C555.1756,-52.9901 573.8814,-55.4842 590.8524,-57.747"/>
<polygon fill="#191970" stroke="#191970" points="537.8157,-47.1445 527.4408,-49.2921 536.8905,-54.0831 537.8157,-47.1445"/>
</g>
<!-- Node23 -->
<g id="node23" class="node">
<title>Node23</title>
<g id="a_node23"><a xlink:href="../../d7/de8/classG4ErrorPropagator.html#a5e25ebdd7ad89c111a4a3cfadc313478" target="_top" xlink:title="G4ErrorPropagator::\lPropagateOneStep">
<polygon fill="none" stroke="#000000" points="743,-.5 743,-32.5 859,-32.5 859,-.5 743,-.5"/>
<text text-anchor="start" x="751" y="-19.5" font-family="FreeSans" font-size="10.00" fill="#000000">G4ErrorPropagator::</text>
<text text-anchor="middle" x="801" y="-7.5" font-family="FreeSans" font-size="10.00" fill="#000000">PropagateOneStep</text>
</a>
</g>
</g>
<!-- Node17&#45;&gt;Node23 -->
<g id="edge22" class="edge">
<title>Node17&#45;&gt;Node23</title>
<path fill="none" stroke="#191970" d="M537.4485,-36.3457C598.0619,-31.7815 685.57,-25.192 742.8569,-20.8782"/>
<polygon fill="#191970" stroke="#191970" points="536.9188,-32.8756 527.2099,-37.1167 537.4445,-39.8559 536.9188,-32.8756"/>
</g>
<!-- Node19 -->
<g id="node19" class="node">
<title>Node19</title>
<g id="a_node19"><a xlink:href="../../d7/de8/classG4ErrorPropagator.html#ae98058a2abe76bf8e941d94871b05e5e" target="_top" xlink:title="G4ErrorPropagator::\lPropagate">
<polygon fill="none" stroke="#000000" points="743,-51.5 743,-83.5 859,-83.5 859,-51.5 743,-51.5"/>
<text text-anchor="start" x="751" y="-70.5" font-family="FreeSans" font-size="10.00" fill="#000000">G4ErrorPropagator::</text>
<text text-anchor="middle" x="801" y="-58.5" font-family="FreeSans" font-size="10.00" fill="#000000">Propagate</text>
</a>
</g>
</g>
<!-- Node18&#45;&gt;Node19 -->
<g id="edge18" class="edge">
<title>Node18&#45;&gt;Node19</title>
<path fill="none" stroke="#191970" d="M717.5423,-66.4019C725.9862,-66.513 734.5541,-66.6257 742.8236,-66.7345"/>
<polygon fill="#191970" stroke="#191970" points="717.3777,-62.8995 707.3325,-66.2675 717.2855,-69.8989 717.3777,-62.8995"/>
</g>
<!-- Node20 -->
<g id="node20" class="node">
<title>Node20</title>
<g id="a_node20"><a xlink:href="../../dd/d88/classG4ErrorPropagatorManager.html#a4b42e52a50fdce30d6569241ebeae237" target="_top" xlink:title="G4ErrorPropagatorManager\l::Propagate">
<polygon fill="none" stroke="#000000" points="895,-51.5 895,-83.5 1050,-83.5 1050,-51.5 895,-51.5"/>
<text text-anchor="start" x="903" y="-70.5" font-family="FreeSans" font-size="10.00" fill="#000000">G4ErrorPropagatorManager</text>
<text text-anchor="middle" x="972.5" y="-58.5" font-family="FreeSans" font-size="10.00" fill="#000000">::Propagate</text>
</a>
</g>
</g>
<!-- Node19&#45;&gt;Node20 -->
<g id="edge19" class="edge">
<title>Node19&#45;&gt;Node20</title>
<path fill="none" stroke="#191970" d="M869.1683,-67.5C877.5681,-67.5 886.203,-67.5 894.7317,-67.5"/>
<polygon fill="#191970" stroke="#191970" points="869.0621,-64.0001 859.0621,-67.5 869.062,-71.0001 869.0621,-64.0001"/>
</g>
<!-- Node21 -->
<g id="node21" class="node">
<title>Node21</title>
<g id="a_node21"><a xlink:href="../../d3/dd6/errprop_8cc.html#a0aa8f3a7acd1c667334594ded9b06a90" target="_top" xlink:title="ProcessEvent">
<polygon fill="none" stroke="#000000" points="1086,-31.5 1086,-51.5 1170,-51.5 1170,-31.5 1086,-31.5"/>
<text text-anchor="middle" x="1128" y="-38.5" font-family="FreeSans" font-size="10.00" fill="#000000">ProcessEvent</text>
</a>
</g>
</g>
<!-- Node20&#45;&gt;Node21 -->
<g id="edge20" class="edge">
<title>Node20&#45;&gt;Node21</title>
<path fill="none" stroke="#191970" d="M1060.3149,-52.8171C1069.1849,-51.334 1077.8772,-49.8807 1085.9195,-48.536"/>
<polygon fill="#191970" stroke="#191970" points="1059.5359,-49.3987 1050.25,-54.5 1060.6903,-56.3029 1059.5359,-49.3987"/>
</g>
<!-- Node22 -->
<g id="node22" class="node">
<title>Node22</title>
<g id="a_node22"><a xlink:href="../../d3/dd6/errprop_8cc.html#ae66f6b31b5ad750f1fe042a706a4e3d4" target="_top" xlink:title="main">
<polygon fill="none" stroke="#000000" points="1206,-31.5 1206,-51.5 1247,-51.5 1247,-31.5 1206,-31.5"/>
<text text-anchor="middle" x="1226.5" y="-38.5" font-family="FreeSans" font-size="10.00" fill="#000000">main</text>
</a>
</g>
</g>
<!-- Node21&#45;&gt;Node22 -->
<g id="edge21" class="edge">
<title>Node21&#45;&gt;Node22</title>
<path fill="none" stroke="#191970" d="M1180.2543,-41.5C1189.2916,-41.5 1198.1935,-41.5 1205.7367,-41.5"/>
<polygon fill="#191970" stroke="#191970" points="1180.0586,-38.0001 1170.0586,-41.5 1180.0585,-45.0001 1180.0586,-38.0001"/>
</g>
<!-- Node24 -->
<g id="node24" class="node">
<title>Node24</title>
<g id="a_node24"><a xlink:href="../../dd/d88/classG4ErrorPropagatorManager.html#a7548ed4f2f8f0539b485482e86eca2c9" target="_top" xlink:title="G4ErrorPropagatorManager\l::PropagateOneStep">
<polygon fill="none" stroke="#000000" points="895,-.5 895,-32.5 1050,-32.5 1050,-.5 895,-.5"/>
<text text-anchor="start" x="903" y="-19.5" font-family="FreeSans" font-size="10.00" fill="#000000">G4ErrorPropagatorManager</text>
<text text-anchor="middle" x="972.5" y="-7.5" font-family="FreeSans" font-size="10.00" fill="#000000">::PropagateOneStep</text>
</a>
</g>
</g>
<!-- Node23&#45;&gt;Node24 -->
<g id="edge23" class="edge">
<title>Node23&#45;&gt;Node24</title>
<path fill="none" stroke="#191970" d="M869.1683,-16.5C877.5681,-16.5 886.203,-16.5 894.7317,-16.5"/>
<polygon fill="#191970" stroke="#191970" points="869.0621,-13.0001 859.0621,-16.5 869.062,-20.0001 869.0621,-13.0001"/>
</g>
<!-- Node24&#45;&gt;Node21 -->
<g id="edge24" class="edge">
<title>Node24&#45;&gt;Node21</title>
<path fill="none" stroke="#191970" d="M1060.3149,-30.6182C1069.1849,-32.0442 1077.8772,-33.4417 1085.9195,-34.7346"/>
<polygon fill="#191970" stroke="#191970" points="1060.6788,-27.1318 1050.25,-29 1059.5676,-34.043 1060.6788,-27.1318"/>
</g>
</g>
</svg>
