<?xml version="1.0" encoding="UTF-8" standalone="no"?>
<!DOCTYPE svg PUBLIC "-//W3C//DTD SVG 1.1//EN"
 "http://www.w3.org/Graphics/SVG/1.1/DTD/svg11.dtd">
<!-- Generated by graphviz version 2.40.1 (20161225.0304)
 -->
<!-- Title: geant4/tree/geant4&#45;10.6&#45;release/examples/extended/parallel/MPI/source/include/G4MPIstatus.hh Pages: 1 -->
<svg width="1257pt" height="464pt"
 viewBox="0.00 0.00 1257.00 464.00" xmlns="http://www.w3.org/2000/svg" xmlns:xlink="http://www.w3.org/1999/xlink">
<g id="graph0" class="graph" transform="scale(1 1) rotate(0) translate(4 460)">
<title>geant4/tree/geant4&#45;10.6&#45;release/examples/extended/parallel/MPI/source/include/G4MPIstatus.hh</title>
<!-- Node1 -->
<g id="node1" class="node">
<title>Node1</title>
<polygon fill="#bfbfbf" stroke="#000000" points="796.5,-399.5 796.5,-455.5 972.5,-455.5 972.5,-399.5 796.5,-399.5"/>
<text text-anchor="start" x="804.5" y="-442.5" font-family="FreeSans" font-size="10.00" fill="#000000">geant4/tree/geant4</text>
<text text-anchor="start" x="804.5" y="-430.5" font-family="FreeSans" font-size="10.00" fill="#000000">&#45;10.6&#45;release/examples</text>
<text text-anchor="start" x="804.5" y="-418.5" font-family="FreeSans" font-size="10.00" fill="#000000">/extended/parallel/MPI</text>
<text text-anchor="middle" x="884.5" y="-406.5" font-family="FreeSans" font-size="10.00" fill="#000000">/source/include/G4MPIstatus.hh</text>
</g>
<!-- Node2 -->
<g id="node2" class="node">
<title>Node2</title>
<g id="a_node2"><a xlink:href="../../da/d46/globals_8hh.html" target="_top" xlink:title="globals.hh">
<polygon fill="none" stroke="#000000" points="701.5,-342.5 701.5,-362.5 769.5,-362.5 769.5,-342.5 701.5,-342.5"/>
<text text-anchor="middle" x="735.5" y="-349.5" font-family="FreeSans" font-size="10.00" fill="#000000">globals.hh</text>
</a>
</g>
</g>
<!-- Node1&#45;&gt;Node2 -->
<g id="edge1" class="edge">
<title>Node1&#45;&gt;Node2</title>
<path fill="none" stroke="#191970" d="M828.594,-399.3594C806.795,-388.3867 782.727,-376.272 764.5247,-367.1098"/>
<polygon fill="#191970" stroke="#191970" points="766.0898,-363.9792 755.5839,-362.6094 762.9425,-370.2318 766.0898,-363.9792"/>
</g>
<!-- Node27 -->
<g id="node27" class="node">
<title>Node27</title>
<g id="a_node27"><a xlink:href="../../d8/d65/G4ApplicationState_8hh.html" target="_top" xlink:title="G4ApplicationState.hh">
<polygon fill="none" stroke="#000000" points="819.5,-342.5 819.5,-362.5 949.5,-362.5 949.5,-342.5 819.5,-342.5"/>
<text text-anchor="middle" x="884.5" y="-349.5" font-family="FreeSans" font-size="10.00" fill="#000000">G4ApplicationState.hh</text>
</a>
</g>
</g>
<!-- Node1&#45;&gt;Node27 -->
<g id="edge39" class="edge">
<title>Node1&#45;&gt;Node27</title>
<path fill="none" stroke="#191970" d="M884.5,-399.1457C884.5,-390.3619 884.5,-380.8652 884.5,-372.7476"/>
<polygon fill="#191970" stroke="#191970" points="888.0001,-372.7295 884.5,-362.7296 881.0001,-372.7296 888.0001,-372.7295"/>
</g>
<!-- Node28 -->
<g id="node28" class="node">
<title>Node28</title>
<g id="a_node28"><a xlink:href="../../dd/d2e/G4Timer_8hh.html" target="_top" xlink:title="G4Timer.hh">
<polygon fill="none" stroke="#000000" points="956.5,-228.5 956.5,-248.5 1030.5,-248.5 1030.5,-228.5 956.5,-228.5"/>
<text text-anchor="middle" x="993.5" y="-235.5" font-family="FreeSans" font-size="10.00" fill="#000000">G4Timer.hh</text>
</a>
</g>
</g>
<!-- Node1&#45;&gt;Node28 -->
<g id="edge40" class="edge">
<title>Node1&#45;&gt;Node28</title>
<path fill="none" stroke="#191970" d="M925.2225,-399.2906C937.4238,-389.0931 949.8456,-376.6831 958.5,-363 979.3048,-330.1064 987.9823,-284.6745 991.4168,-258.7669"/>
<polygon fill="#191970" stroke="#191970" points="994.9142,-258.9952 992.6194,-248.6519 987.9631,-258.1687 994.9142,-258.9952"/>
</g>
<!-- Node3 -->
<g id="node3" class="node">
<title>Node3</title>
<g id="a_node3"><a xlink:href="../../df/de9/G4ios_8hh.html" target="_top" xlink:title="G4ios.hh">
<polygon fill="none" stroke="#000000" points="782,-171.5 782,-191.5 843,-191.5 843,-171.5 782,-171.5"/>
<text text-anchor="middle" x="812.5" y="-178.5" font-family="FreeSans" font-size="10.00" fill="#000000">G4ios.hh</text>
</a>
</g>
</g>
<!-- Node2&#45;&gt;Node3 -->
<g id="edge2" class="edge">
<title>Node2&#45;&gt;Node3</title>
<path fill="none" stroke="#191970" d="M743.4027,-342.2589C756.8158,-324.3627 783.9911,-285.7897 798.5,-249 804.4688,-233.8652 808.0462,-215.771 810.0889,-202.1278"/>
<polygon fill="#191970" stroke="#191970" points="813.6033,-202.2533 811.4626,-191.877 806.6653,-201.3235 813.6033,-202.2533"/>
</g>
<!-- Node4 -->
<g id="node4" class="node">
<title>Node4</title>
<g id="a_node4"><a xlink:href="../../de/d29/G4Types_8hh.html" target="_top" xlink:title="G4Types.hh">
<polygon fill="none" stroke="#000000" points="775,-114.5 775,-134.5 850,-134.5 850,-114.5 775,-114.5"/>
<text text-anchor="middle" x="812.5" y="-121.5" font-family="FreeSans" font-size="10.00" fill="#000000">G4Types.hh</text>
</a>
</g>
</g>
<!-- Node2&#45;&gt;Node4 -->
<g id="edge10" class="edge">
<title>Node2&#45;&gt;Node4</title>
<path fill="none" stroke="#191970" d="M749.7491,-342.1697C761.1613,-333.4169 777.0931,-320.0744 788.5,-306 825.0855,-260.8591 837.7995,-248.2147 852.5,-192 854.8613,-182.9703 855.7459,-179.7507 852.5,-171 848.4448,-160.0674 840.5404,-149.9798 832.8216,-142.0146"/>
<polygon fill="#191970" stroke="#191970" points="834.9509,-139.2068 825.3142,-134.804 830.102,-144.2554 834.9509,-139.2068"/>
</g>
<!-- Node9 -->
<g id="node9" class="node">
<title>Node9</title>
<polygon fill="none" stroke="#bfbfbf" points="900,-285.5 900,-305.5 965,-305.5 965,-285.5 900,-285.5"/>
<text text-anchor="middle" x="932.5" y="-292.5" font-family="FreeSans" font-size="10.00" fill="#000000">algorithm</text>
</g>
<!-- Node2&#45;&gt;Node9 -->
<g id="edge9" class="edge">
<title>Node2&#45;&gt;Node9</title>
<path fill="none" stroke="#191970" d="M769.8148,-342.5714C803.2685,-332.8918 854.218,-318.1501 890.1708,-307.7475"/>
<polygon fill="#191970" stroke="#191970" points="891.2534,-311.0779 899.8866,-304.9364 889.3078,-304.3537 891.2534,-311.0779"/>
</g>
<!-- Node10 -->
<g id="node10" class="node">
<title>Node10</title>
<g id="a_node10"><a xlink:href="../../d2/df2/source_2global_2management_2include_2G4String_8hh.html" target="_top" xlink:title="G4String.hh">
<polygon fill="none" stroke="#000000" points="303.5,-171.5 303.5,-191.5 379.5,-191.5 379.5,-171.5 303.5,-171.5"/>
<text text-anchor="middle" x="341.5" y="-178.5" font-family="FreeSans" font-size="10.00" fill="#000000">G4String.hh</text>
</a>
</g>
</g>
<!-- Node2&#45;&gt;Node10 -->
<g id="edge11" class="edge">
<title>Node2&#45;&gt;Node10</title>
<path fill="none" stroke="#191970" d="M701.2501,-351.43C593.8501,-347.2664 267.2091,-328.1879 206.5,-249 180.0803,-214.5387 244.4318,-196.4084 293.1096,-187.9063"/>
<polygon fill="#191970" stroke="#191970" points="293.925,-191.3192 303.2207,-186.2358 292.7839,-184.4128 293.925,-191.3192"/>
</g>
<!-- Node15 -->
<g id="node15" class="node">
<title>Node15</title>
<g id="a_node15"><a xlink:href="../../d2/d54/templates_8hh.html" target="_top" xlink:title="templates.hh">
<polygon fill="none" stroke="#000000" points="38,-285.5 38,-305.5 121,-305.5 121,-285.5 38,-285.5"/>
<text text-anchor="middle" x="79.5" y="-292.5" font-family="FreeSans" font-size="10.00" fill="#000000">templates.hh</text>
</a>
</g>
</g>
<!-- Node2&#45;&gt;Node15 -->
<g id="edge18" class="edge">
<title>Node2&#45;&gt;Node15</title>
<path fill="none" stroke="#191970" d="M701.2021,-351.1404C609.2448,-347.2147 349.6498,-334.2907 135.5,-306 134.029,-305.8057 132.5382,-305.5981 131.0348,-305.3794"/>
<polygon fill="#191970" stroke="#191970" points="131.4328,-301.899 121.0098,-303.7995 130.343,-308.8137 131.4328,-301.899"/>
</g>
<!-- Node18 -->
<g id="node18" class="node">
<title>Node18</title>
<g id="a_node18"><a xlink:href="../../d5/d4f/G4Exception_8hh.html" target="_top" xlink:title="G4Exception.hh">
<polygon fill="none" stroke="#000000" points="671.5,-228.5 671.5,-248.5 767.5,-248.5 767.5,-228.5 671.5,-228.5"/>
<text text-anchor="middle" x="719.5" y="-235.5" font-family="FreeSans" font-size="10.00" fill="#000000">G4Exception.hh</text>
</a>
</g>
</g>
<!-- Node2&#45;&gt;Node18 -->
<g id="edge21" class="edge">
<title>Node2&#45;&gt;Node18</title>
<path fill="none" stroke="#191970" d="M734.0801,-342.3833C731.4537,-323.6703 725.7915,-283.3266 722.3472,-258.7866"/>
<polygon fill="#191970" stroke="#191970" points="725.7957,-258.1744 720.9397,-248.7579 718.8637,-259.1474 725.7957,-258.1744"/>
</g>
<!-- Node21 -->
<g id="node21" class="node">
<title>Node21</title>
<g id="a_node21"><a xlink:href="../../dc/d3a/G4EnvironmentUtils_8hh.html" target="_top" xlink:title="G4EnvironmentUtils.hh">
<polygon fill="none" stroke="#000000" points="427,-285.5 427,-305.5 560,-305.5 560,-285.5 427,-285.5"/>
<text text-anchor="middle" x="493.5" y="-292.5" font-family="FreeSans" font-size="10.00" fill="#000000">G4EnvironmentUtils.hh</text>
</a>
</g>
</g>
<!-- Node2&#45;&gt;Node21 -->
<g id="edge27" class="edge">
<title>Node2&#45;&gt;Node21</title>
<path fill="none" stroke="#191970" d="M701.3406,-344.4542C660.9205,-334.9338 593.1749,-318.9772 546.0589,-307.8796"/>
<polygon fill="#191970" stroke="#191970" points="546.5756,-304.4056 536.0395,-305.5196 544.9707,-311.2191 546.5756,-304.4056"/>
</g>
<!-- Node3&#45;&gt;Node4 -->
<g id="edge3" class="edge">
<title>Node3&#45;&gt;Node4</title>
<path fill="none" stroke="#191970" d="M812.5,-171.3095C812.5,-163.9335 812.5,-153.72 812.5,-144.715"/>
<polygon fill="#191970" stroke="#191970" points="816.0001,-144.6022 812.5,-134.6022 809.0001,-144.6023 816.0001,-144.6022"/>
</g>
<!-- Node8 -->
<g id="node8" class="node">
<title>Node8</title>
<polygon fill="none" stroke="#bfbfbf" points="455.5,-114.5 455.5,-134.5 515.5,-134.5 515.5,-114.5 455.5,-114.5"/>
<text text-anchor="middle" x="485.5" y="-121.5" font-family="FreeSans" font-size="10.00" fill="#000000">iostream</text>
</g>
<!-- Node3&#45;&gt;Node8 -->
<g id="edge8" class="edge">
<title>Node3&#45;&gt;Node8</title>
<path fill="none" stroke="#191970" d="M781.9971,-173.1703C778.8004,-172.3941 775.5905,-171.6544 772.5,-171 685.2843,-152.5322 581.8053,-137.4137 526.0161,-129.8134"/>
<polygon fill="#191970" stroke="#191970" points="526.2195,-126.3091 515.8409,-128.4387 525.2822,-133.2461 526.2195,-126.3091"/>
</g>
<!-- Node5 -->
<g id="node5" class="node">
<title>Node5</title>
<polygon fill="none" stroke="#bfbfbf" points="751,-.5 751,-20.5 862,-20.5 862,-.5 751,-.5"/>
<text text-anchor="middle" x="806.5" y="-7.5" font-family="FreeSans" font-size="10.00" fill="#000000">G4GlobalConfig.hh</text>
</g>
<!-- Node4&#45;&gt;Node5 -->
<g id="edge4" class="edge">
<title>Node4&#45;&gt;Node5</title>
<path fill="none" stroke="#191970" d="M825.1617,-114.4369C839.625,-101.6318 860.2318,-78.579 851.5,-57 846.8541,-45.5186 837.8637,-35.3021 829.1324,-27.3904"/>
<polygon fill="#191970" stroke="#191970" points="831.2201,-24.5726 821.3188,-20.8023 826.7079,-29.9242 831.2201,-24.5726"/>
</g>
<!-- Node6 -->
<g id="node6" class="node">
<title>Node6</title>
<polygon fill="none" stroke="#bfbfbf" points="783,-57.5 783,-77.5 842,-77.5 842,-57.5 783,-57.5"/>
<text text-anchor="middle" x="812.5" y="-64.5" font-family="FreeSans" font-size="10.00" fill="#000000">complex</text>
</g>
<!-- Node4&#45;&gt;Node6 -->
<g id="edge5" class="edge">
<title>Node4&#45;&gt;Node6</title>
<path fill="none" stroke="#191970" d="M812.5,-114.3095C812.5,-106.9335 812.5,-96.72 812.5,-87.715"/>
<polygon fill="#191970" stroke="#191970" points="816.0001,-87.6022 812.5,-77.6022 809.0001,-87.6023 816.0001,-87.6022"/>
</g>
<!-- Node7 -->
<g id="node7" class="node">
<title>Node7</title>
<g id="a_node7"><a xlink:href="../../d0/d00/tls_8hh.html" target="_top" xlink:title="tls.hh">
<polygon fill="none" stroke="#000000" points="720.5,-57.5 720.5,-77.5 764.5,-77.5 764.5,-57.5 720.5,-57.5"/>
<text text-anchor="middle" x="742.5" y="-64.5" font-family="FreeSans" font-size="10.00" fill="#000000">tls.hh</text>
</a>
</g>
</g>
<!-- Node4&#45;&gt;Node7 -->
<g id="edge6" class="edge">
<title>Node4&#45;&gt;Node7</title>
<path fill="none" stroke="#191970" d="M799.9854,-114.3095C789.6331,-105.8798 774.7294,-93.7439 762.6913,-83.9415"/>
<polygon fill="#191970" stroke="#191970" points="764.8706,-81.2025 754.9063,-77.6022 760.4506,-86.6306 764.8706,-81.2025"/>
</g>
<!-- Node7&#45;&gt;Node5 -->
<g id="edge7" class="edge">
<title>Node7&#45;&gt;Node5</title>
<path fill="none" stroke="#191970" d="M753.9419,-57.3095C763.2249,-49.0419 776.5106,-37.2093 787.4015,-27.5096"/>
<polygon fill="#191970" stroke="#191970" points="790.0173,-29.8668 795.1571,-20.6022 785.3616,-24.6395 790.0173,-29.8668"/>
</g>
<!-- Node10&#45;&gt;Node4 -->
<g id="edge15" class="edge">
<title>Node10&#45;&gt;Node4</title>
<path fill="none" stroke="#191970" d="M379.6449,-176.8837C465.0303,-166.5505 671.3752,-141.5788 764.9475,-130.2548"/>
<polygon fill="#191970" stroke="#191970" points="765.476,-133.7164 774.983,-129.0403 764.6349,-126.7671 765.476,-133.7164"/>
</g>
<!-- Node10&#45;&gt;Node8 -->
<g id="edge16" class="edge">
<title>Node10&#45;&gt;Node8</title>
<path fill="none" stroke="#191970" d="M366.9128,-171.4408C390.1096,-162.2587 424.6124,-148.6013 450.4293,-138.3822"/>
<polygon fill="#191970" stroke="#191970" points="451.847,-141.5853 459.8568,-134.6504 449.2706,-135.0766 451.847,-141.5853"/>
</g>
<!-- Node11 -->
<g id="node11" class="node">
<title>Node11</title>
<polygon fill="none" stroke="#bfbfbf" points="319.5,-114.5 319.5,-134.5 369.5,-134.5 369.5,-114.5 319.5,-114.5"/>
<text text-anchor="middle" x="344.5" y="-121.5" font-family="FreeSans" font-size="10.00" fill="#000000">stdio.h</text>
</g>
<!-- Node10&#45;&gt;Node11 -->
<g id="edge12" class="edge">
<title>Node10&#45;&gt;Node11</title>
<path fill="none" stroke="#191970" d="M342.0363,-171.3095C342.4246,-163.9335 342.9621,-153.72 343.4361,-144.715"/>
<polygon fill="#191970" stroke="#191970" points="346.9378,-144.7724 343.9683,-134.6022 339.9475,-144.4044 346.9378,-144.7724"/>
</g>
<!-- Node12 -->
<g id="node12" class="node">
<title>Node12</title>
<polygon fill="none" stroke="#bfbfbf" points="160,-114.5 160,-134.5 205,-134.5 205,-114.5 160,-114.5"/>
<text text-anchor="middle" x="182.5" y="-121.5" font-family="FreeSans" font-size="10.00" fill="#000000">string</text>
</g>
<!-- Node10&#45;&gt;Node12 -->
<g id="edge13" class="edge">
<title>Node10&#45;&gt;Node12</title>
<path fill="none" stroke="#191970" d="M313.44,-171.4408C285.8468,-161.5489 243.7649,-146.4629 214.7947,-136.0773"/>
<polygon fill="#191970" stroke="#191970" points="215.7342,-132.6961 205.1396,-132.6161 213.3719,-139.2855 215.7342,-132.6961"/>
</g>
<!-- Node13 -->
<g id="node13" class="node">
<title>Node13</title>
<polygon fill="none" stroke="#bfbfbf" points="387.5,-114.5 387.5,-134.5 437.5,-134.5 437.5,-114.5 387.5,-114.5"/>
<text text-anchor="middle" x="412.5" y="-121.5" font-family="FreeSans" font-size="10.00" fill="#000000">cstring</text>
</g>
<!-- Node10&#45;&gt;Node13 -->
<g id="edge14" class="edge">
<title>Node10&#45;&gt;Node13</title>
<path fill="none" stroke="#191970" d="M354.1934,-171.3095C364.6936,-162.8798 379.8102,-150.7439 392.0202,-140.9415"/>
<polygon fill="#191970" stroke="#191970" points="394.3097,-143.5919 399.9165,-134.6022 389.9274,-138.1333 394.3097,-143.5919"/>
</g>
<!-- Node14 -->
<g id="node14" class="node">
<title>Node14</title>
<polygon fill="none" stroke="#bfbfbf" points="223.5,-114.5 223.5,-134.5 301.5,-134.5 301.5,-114.5 223.5,-114.5"/>
<text text-anchor="middle" x="262.5" y="-121.5" font-family="FreeSans" font-size="10.00" fill="#000000">G4String.icc</text>
</g>
<!-- Node10&#45;&gt;Node14 -->
<g id="edge17" class="edge">
<title>Node10&#45;&gt;Node14</title>
<path fill="none" stroke="#191970" d="M327.3764,-171.3095C315.5807,-162.7987 298.5492,-150.5102 284.8963,-140.6594"/>
<polygon fill="#191970" stroke="#191970" points="286.6588,-137.6151 276.5013,-134.6022 282.5629,-143.2918 286.6588,-137.6151"/>
</g>
<!-- Node16 -->
<g id="node16" class="node">
<title>Node16</title>
<polygon fill="none" stroke="#bfbfbf" points="67.5,-228.5 67.5,-248.5 111.5,-248.5 111.5,-228.5 67.5,-228.5"/>
<text text-anchor="middle" x="89.5" y="-235.5" font-family="FreeSans" font-size="10.00" fill="#000000">limits</text>
</g>
<!-- Node15&#45;&gt;Node16 -->
<g id="edge19" class="edge">
<title>Node15&#45;&gt;Node16</title>
<path fill="none" stroke="#191970" d="M81.2878,-285.3095C82.5818,-277.9335 84.3737,-267.72 85.9535,-258.715"/>
<polygon fill="#191970" stroke="#191970" points="89.447,-259.0566 87.7277,-248.6022 82.5523,-257.847 89.447,-259.0566"/>
</g>
<!-- Node17 -->
<g id="node17" class="node">
<title>Node17</title>
<polygon fill="none" stroke="#bfbfbf" points="0,-228.5 0,-248.5 49,-248.5 49,-228.5 0,-228.5"/>
<text text-anchor="middle" x="24.5" y="-235.5" font-family="FreeSans" font-size="10.00" fill="#000000">climits</text>
</g>
<!-- Node15&#45;&gt;Node17 -->
<g id="edge20" class="edge">
<title>Node15&#45;&gt;Node17</title>
<path fill="none" stroke="#191970" d="M69.6671,-285.3095C61.846,-277.204 50.7185,-265.672 41.4656,-256.0826"/>
<polygon fill="#191970" stroke="#191970" points="43.7102,-253.3681 34.2478,-248.6022 38.6728,-258.2288 43.7102,-253.3681"/>
</g>
<!-- Node18&#45;&gt;Node3 -->
<g id="edge22" class="edge">
<title>Node18&#45;&gt;Node3</title>
<path fill="none" stroke="#191970" d="M736.1265,-228.3095C750.2771,-219.6366 770.8284,-207.0407 787.0487,-197.0992"/>
<polygon fill="#191970" stroke="#191970" points="789.3204,-199.812 796.0174,-191.6022 785.6624,-193.8438 789.3204,-199.812"/>
</g>
<!-- Node18&#45;&gt;Node10 -->
<g id="edge23" class="edge">
<title>Node18&#45;&gt;Node10</title>
<path fill="none" stroke="#191970" d="M671.2421,-231.223C598.6811,-220.2813 462.2695,-199.7113 389.7268,-188.7723"/>
<polygon fill="#191970" stroke="#191970" points="389.9125,-185.2608 379.5024,-187.2305 388.8687,-192.1826 389.9125,-185.2608"/>
</g>
<!-- Node19 -->
<g id="node19" class="node">
<title>Node19</title>
<g id="a_node19"><a xlink:href="../../d9/d05/G4VExceptionHandler_8hh.html" target="_top" xlink:title="G4VExceptionHandler.hh">
<polygon fill="none" stroke="#000000" points="621.5,-171.5 621.5,-191.5 763.5,-191.5 763.5,-171.5 621.5,-171.5"/>
<text text-anchor="middle" x="692.5" y="-178.5" font-family="FreeSans" font-size="10.00" fill="#000000">G4VExceptionHandler.hh</text>
</a>
</g>
</g>
<!-- Node18&#45;&gt;Node19 -->
<g id="edge24" class="edge">
<title>Node18&#45;&gt;Node19</title>
<path fill="none" stroke="#191970" d="M714.6729,-228.3095C711.0638,-220.6903 706.0206,-210.0435 701.6556,-200.8285"/>
<polygon fill="#191970" stroke="#191970" points="704.7293,-199.1413 697.2853,-191.6022 698.4031,-202.1379 704.7293,-199.1413"/>
</g>
<!-- Node19&#45;&gt;Node4 -->
<g id="edge25" class="edge">
<title>Node19&#45;&gt;Node4</title>
<path fill="none" stroke="#191970" d="M713.6774,-171.4408C732.5822,-162.461 760.4983,-149.2008 781.8424,-139.0624"/>
<polygon fill="#191970" stroke="#191970" points="783.5996,-142.1025 791.1307,-134.6504 780.5962,-135.7796 783.5996,-142.1025"/>
</g>
<!-- Node20 -->
<g id="node20" class="node">
<title>Node20</title>
<g id="a_node20"><a xlink:href="../../d6/d7e/G4ExceptionSeverity_8hh.html" target="_top" xlink:title="G4ExceptionSeverity.hh">
<polygon fill="none" stroke="#000000" points="577.5,-114.5 577.5,-134.5 713.5,-134.5 713.5,-114.5 577.5,-114.5"/>
<text text-anchor="middle" x="645.5" y="-121.5" font-family="FreeSans" font-size="10.00" fill="#000000">G4ExceptionSeverity.hh</text>
</a>
</g>
</g>
<!-- Node19&#45;&gt;Node20 -->
<g id="edge26" class="edge">
<title>Node19&#45;&gt;Node20</title>
<path fill="none" stroke="#191970" d="M684.0973,-171.3095C677.4807,-163.2851 668.0948,-151.9022 660.2356,-142.3708"/>
<polygon fill="#191970" stroke="#191970" points="662.8922,-140.091 653.8299,-134.6022 657.4914,-144.5443 662.8922,-140.091"/>
</g>
<!-- Node21&#45;&gt;Node3 -->
<g id="edge35" class="edge">
<title>Node21&#45;&gt;Node3</title>
<path fill="none" stroke="#191970" d="M560.0783,-291.3289C632.5723,-285.6281 742.7075,-273.2192 776.5,-249 792.4632,-237.5592 801.9964,-216.8133 807.2017,-201.3296"/>
<polygon fill="#191970" stroke="#191970" points="810.5905,-202.2152 810.1398,-191.6299 803.8911,-200.1859 810.5905,-202.2152"/>
</g>
<!-- Node21&#45;&gt;Node8 -->
<g id="edge32" class="edge">
<title>Node21&#45;&gt;Node8</title>
<path fill="none" stroke="#191970" d="M467.2695,-285.3585C451.7947,-277.8502 433.5232,-265.9618 424.5,-249 404.4052,-211.2259 441.6295,-165.8814 466.2592,-141.6934"/>
<polygon fill="#191970" stroke="#191970" points="468.8728,-144.0386 473.7247,-134.62 464.0583,-138.9572 468.8728,-144.0386"/>
</g>
<!-- Node21&#45;&gt;Node10 -->
<g id="edge36" class="edge">
<title>Node21&#45;&gt;Node10</title>
<path fill="none" stroke="#191970" d="M460.836,-285.4041C439.5739,-277.7357 412.0725,-265.6529 391.5,-249 374.9487,-235.6021 361.0119,-215.5284 352.0918,-200.7528"/>
<polygon fill="#191970" stroke="#191970" points="355.0211,-198.8272 346.9773,-191.9317 348.9654,-202.3384 355.0211,-198.8272"/>
</g>
<!-- Node21&#45;&gt;Node12 -->
<g id="edge29" class="edge">
<title>Node21&#45;&gt;Node12</title>
<path fill="none" stroke="#191970" d="M426.8614,-293.3145C352.038,-289.4246 237.0606,-278.6629 206.5,-249 178.4569,-221.7806 177.7672,-172.4358 179.9787,-144.7454"/>
<polygon fill="#191970" stroke="#191970" points="183.4759,-144.9478 180.9941,-134.6478 176.511,-144.2474 183.4759,-144.9478"/>
</g>
<!-- Node21&#45;&gt;Node18 -->
<g id="edge37" class="edge">
<title>Node21&#45;&gt;Node18</title>
<path fill="none" stroke="#191970" d="M533.384,-285.4408C571.4307,-275.8449 628.857,-261.3613 669.8504,-251.0222"/>
<polygon fill="#191970" stroke="#191970" points="670.7948,-254.3937 679.6352,-248.5544 669.0829,-247.6063 670.7948,-254.3937"/>
</g>
<!-- Node21&#45;&gt;Node20 -->
<g id="edge38" class="edge">
<title>Node21&#45;&gt;Node20</title>
<path fill="none" stroke="#191970" d="M538.273,-285.4439C572.0241,-276.8502 614.1984,-263.588 624.5,-249 644.7324,-220.3491 601.8471,-204.4176 612.5,-171 615.8472,-160.4999 622.524,-150.3384 629.0015,-142.2067"/>
<polygon fill="#191970" stroke="#191970" points="631.713,-144.421 635.5317,-134.5382 626.3835,-139.8826 631.713,-144.421"/>
</g>
<!-- Node22 -->
<g id="node22" class="node">
<title>Node22</title>
<polygon fill="none" stroke="#bfbfbf" points="433.5,-228.5 433.5,-248.5 483.5,-248.5 483.5,-228.5 433.5,-228.5"/>
<text text-anchor="middle" x="458.5" y="-235.5" font-family="FreeSans" font-size="10.00" fill="#000000">cstdlib</text>
</g>
<!-- Node21&#45;&gt;Node22 -->
<g id="edge28" class="edge">
<title>Node21&#45;&gt;Node22</title>
<path fill="none" stroke="#191970" d="M487.2427,-285.3095C482.4647,-277.5282 475.7477,-266.589 470.0084,-257.2423"/>
<polygon fill="#191970" stroke="#191970" points="472.9184,-255.2925 464.7031,-248.6022 466.9532,-258.9554 472.9184,-255.2925"/>
</g>
<!-- Node23 -->
<g id="node23" class="node">
<title>Node23</title>
<polygon fill="none" stroke="#bfbfbf" points="501.5,-228.5 501.5,-248.5 557.5,-248.5 557.5,-228.5 501.5,-228.5"/>
<text text-anchor="middle" x="529.5" y="-235.5" font-family="FreeSans" font-size="10.00" fill="#000000">sstream</text>
</g>
<!-- Node21&#45;&gt;Node23 -->
<g id="edge30" class="edge">
<title>Node21&#45;&gt;Node23</title>
<path fill="none" stroke="#191970" d="M499.9361,-285.3095C504.8506,-277.5282 511.7596,-266.589 517.6628,-257.2423"/>
<polygon fill="#191970" stroke="#191970" points="520.7389,-258.9261 523.1196,-248.6022 514.8204,-255.1881 520.7389,-258.9261"/>
</g>
<!-- Node24 -->
<g id="node24" class="node">
<title>Node24</title>
<polygon fill="none" stroke="#bfbfbf" points="576,-228.5 576,-248.5 615,-248.5 615,-228.5 576,-228.5"/>
<text text-anchor="middle" x="595.5" y="-235.5" font-family="FreeSans" font-size="10.00" fill="#000000">map</text>
</g>
<!-- Node21&#45;&gt;Node24 -->
<g id="edge31" class="edge">
<title>Node21&#45;&gt;Node24</title>
<path fill="none" stroke="#191970" d="M511.7356,-285.3095C527.5456,-276.4745 550.6407,-263.5684 568.5782,-253.5445"/>
<polygon fill="#191970" stroke="#191970" points="570.4003,-256.5358 577.4223,-248.6022 566.9855,-250.4252 570.4003,-256.5358"/>
</g>
<!-- Node25 -->
<g id="node25" class="node">
<title>Node25</title>
<polygon fill="none" stroke="#bfbfbf" points="216,-228.5 216,-248.5 273,-248.5 273,-228.5 216,-228.5"/>
<text text-anchor="middle" x="244.5" y="-235.5" font-family="FreeSans" font-size="10.00" fill="#000000">iomanip</text>
</g>
<!-- Node21&#45;&gt;Node25 -->
<g id="edge33" class="edge">
<title>Node21&#45;&gt;Node25</title>
<path fill="none" stroke="#191970" d="M444.2992,-285.4233C403.604,-276.9153 344.0789,-264.0741 282.9186,-249.0103"/>
<polygon fill="#191970" stroke="#191970" points="283.6398,-245.5832 273.0914,-246.5739 281.9553,-252.3775 283.6398,-245.5832"/>
</g>
<!-- Node26 -->
<g id="node26" class="node">
<title>Node26</title>
<polygon fill="none" stroke="#bfbfbf" points="291.5,-228.5 291.5,-248.5 339.5,-248.5 339.5,-228.5 291.5,-228.5"/>
<text text-anchor="middle" x="315.5" y="-235.5" font-family="FreeSans" font-size="10.00" fill="#000000">mutex</text>
</g>
<!-- Node21&#45;&gt;Node26 -->
<g id="edge34" class="edge">
<title>Node21&#45;&gt;Node26</title>
<path fill="none" stroke="#191970" d="M462.0869,-285.4408C430.5664,-275.3471 382.1574,-259.8454 349.688,-249.4478"/>
<polygon fill="#191970" stroke="#191970" points="350.3387,-245.9812 339.7477,-246.2647 348.2039,-252.6477 350.3387,-245.9812"/>
</g>
<!-- Node28&#45;&gt;Node3 -->
<g id="edge44" class="edge">
<title>Node28&#45;&gt;Node3</title>
<path fill="none" stroke="#191970" d="M961.5575,-228.4408C931.2984,-218.9117 885.7335,-204.5625 852.9504,-194.2385"/>
<polygon fill="#191970" stroke="#191970" points="853.8073,-190.839 843.2178,-191.1736 851.7047,-197.5158 853.8073,-190.839"/>
</g>
<!-- Node28&#45;&gt;Node4 -->
<g id="edge43" class="edge">
<title>Node28&#45;&gt;Node4</title>
<path fill="none" stroke="#191970" d="M992.2027,-228.2432C989.7937,-213.4842 983.2499,-186.3485 966.5,-171 950.8255,-156.6369 899.3271,-142.9113 860.1586,-134.145"/>
<polygon fill="#191970" stroke="#191970" points="860.7595,-130.6937 850.242,-131.9713 859.2606,-137.5313 860.7595,-130.6937"/>
</g>
<!-- Node29 -->
<g id="node29" class="node">
<title>Node29</title>
<polygon fill="none" stroke="#bfbfbf" points="900,-171.5 900,-191.5 957,-191.5 957,-171.5 900,-171.5"/>
<text text-anchor="middle" x="928.5" y="-178.5" font-family="FreeSans" font-size="10.00" fill="#000000">unistd.h</text>
</g>
<!-- Node28&#45;&gt;Node29 -->
<g id="edge41" class="edge">
<title>Node28&#45;&gt;Node29</title>
<path fill="none" stroke="#191970" d="M981.8793,-228.3095C972.3588,-219.9608 958.693,-207.9769 947.5723,-198.2249"/>
<polygon fill="#191970" stroke="#191970" points="949.8464,-195.564 940.0201,-191.6022 945.2311,-200.827 949.8464,-195.564"/>
</g>
<!-- Node30 -->
<g id="node30" class="node">
<title>Node30</title>
<polygon fill="none" stroke="#bfbfbf" points="1014,-171.5 1014,-191.5 1087,-191.5 1087,-171.5 1014,-171.5"/>
<text text-anchor="middle" x="1050.5" y="-178.5" font-family="FreeSans" font-size="10.00" fill="#000000">sys/times.h</text>
</g>
<!-- Node28&#45;&gt;Node30 -->
<g id="edge42" class="edge">
<title>Node28&#45;&gt;Node30</title>
<path fill="none" stroke="#191970" d="M1003.6905,-228.3095C1011.8771,-220.1229 1023.559,-208.441 1033.2045,-198.7955"/>
<polygon fill="#191970" stroke="#191970" points="1035.8016,-201.1482 1040.3978,-191.6022 1030.8518,-196.1984 1035.8016,-201.1482"/>
</g>
<!-- Node31 -->
<g id="node31" class="node">
<title>Node31</title>
<polygon fill="none" stroke="#bfbfbf" points="1105,-171.5 1105,-191.5 1156,-191.5 1156,-171.5 1105,-171.5"/>
<text text-anchor="middle" x="1130.5" y="-178.5" font-family="FreeSans" font-size="10.00" fill="#000000">chrono</text>
</g>
<!-- Node28&#45;&gt;Node31 -->
<g id="edge45" class="edge">
<title>Node28&#45;&gt;Node31</title>
<path fill="none" stroke="#191970" d="M1017.6775,-228.4408C1039.6494,-219.2992 1072.2832,-205.7216 1096.809,-195.5174"/>
<polygon fill="#191970" stroke="#191970" points="1098.2151,-198.7233 1106.1034,-191.6504 1095.5261,-192.2604 1098.2151,-198.7233"/>
</g>
<!-- Node32 -->
<g id="node32" class="node">
<title>Node32</title>
<polygon fill="none" stroke="#bfbfbf" points="1174,-171.5 1174,-191.5 1249,-191.5 1249,-171.5 1174,-171.5"/>
<text text-anchor="middle" x="1211.5" y="-178.5" font-family="FreeSans" font-size="10.00" fill="#000000">G4Timer.icc</text>
</g>
<!-- Node28&#45;&gt;Node32 -->
<g id="edge46" class="edge">
<title>Node28&#45;&gt;Node32</title>
<path fill="none" stroke="#191970" d="M1030.9755,-228.7014C1067.7858,-219.0766 1124.0809,-204.3573 1164.0076,-193.9177"/>
<polygon fill="#191970" stroke="#191970" points="1164.9946,-197.2774 1173.7839,-191.3615 1163.2238,-190.5051 1164.9946,-197.2774"/>
</g>
</g>
</svg>
