<?xml version="1.0" encoding="UTF-8" standalone="no"?>
<!DOCTYPE svg PUBLIC "-//W3C//DTD SVG 1.1//EN"
 "http://www.w3.org/Graphics/SVG/1.1/DTD/svg11.dtd">
<!-- Generated by graphviz version 2.40.1 (20161225.0304)
 -->
<!-- Title: geant4/tree/geant4&#45;10.6&#45;release/source/processes/electromagnetic/dna/management/include/G4ManyFastLists.hh Pages: 1 -->
<svg width="1214pt" height="533pt"
 viewBox="0.00 0.00 1214.08 533.00" xmlns="http://www.w3.org/2000/svg" xmlns:xlink="http://www.w3.org/1999/xlink">
<g id="graph0" class="graph" transform="scale(1 1) rotate(0) translate(4 529)">
<title>geant4/tree/geant4&#45;10.6&#45;release/source/processes/electromagnetic/dna/management/include/G4ManyFastLists.hh</title>
<!-- Node1 -->
<g id="node1" class="node">
<title>Node1</title>
<polygon fill="#bfbfbf" stroke="#000000" points="511.5791,-456.5 511.5791,-524.5 728.5791,-524.5 728.5791,-456.5 511.5791,-456.5"/>
<text text-anchor="start" x="519.5791" y="-511.5" font-family="FreeSans" font-size="10.00" fill="#000000">geant4/tree/geant4</text>
<text text-anchor="start" x="519.5791" y="-499.5" font-family="FreeSans" font-size="10.00" fill="#000000">&#45;10.6&#45;release/source</text>
<text text-anchor="start" x="519.5791" y="-487.5" font-family="FreeSans" font-size="10.00" fill="#000000">/processes/electromagnetic</text>
<text text-anchor="start" x="519.5791" y="-475.5" font-family="FreeSans" font-size="10.00" fill="#000000">/dna/management/include/G4ManyFast</text>
<text text-anchor="middle" x="620.0791" y="-463.5" font-family="FreeSans" font-size="10.00" fill="#000000">Lists.hh</text>
</g>
<!-- Node2 -->
<g id="node2" class="node">
<title>Node2</title>
<g id="a_node2"><a xlink:href="../../d7/dc3/G4FastList_8hh.html" target="_top" xlink:title="G4FastList.hh">
<polygon fill="none" stroke="#000000" points="456.0791,-399.5 456.0791,-419.5 540.0791,-419.5 540.0791,-399.5 456.0791,-399.5"/>
<text text-anchor="middle" x="498.0791" y="-406.5" font-family="FreeSans" font-size="10.00" fill="#000000">G4FastList.hh</text>
</a>
</g>
</g>
<!-- Node1&#45;&gt;Node2 -->
<g id="edge1" class="edge">
<title>Node1&#45;&gt;Node2</title>
<path fill="none" stroke="#191970" d="M568.6937,-456.3835C552.3973,-445.5637 535.1617,-434.1204 521.7982,-425.2479"/>
<polygon fill="#191970" stroke="#191970" points="523.4913,-422.1708 513.2243,-419.5554 519.6194,-428.0026 523.4913,-422.1708"/>
</g>
<!-- Node36 -->
<g id="node36" class="node">
<title>Node36</title>
<polygon fill="none" stroke="#bfbfbf" points="656.0791,-342.5 656.0791,-362.5 688.0791,-362.5 688.0791,-342.5 656.0791,-342.5"/>
<text text-anchor="middle" x="672.0791" y="-349.5" font-family="FreeSans" font-size="10.00" fill="#000000">set</text>
</g>
<!-- Node1&#45;&gt;Node36 -->
<g id="edge51" class="edge">
<title>Node1&#45;&gt;Node36</title>
<path fill="none" stroke="#191970" d="M623.747,-456.4505C626.4859,-438.7768 631.1717,-417.1455 639.0791,-399 643.4355,-389.0033 650.1529,-379 656.3929,-370.8466"/>
<polygon fill="#191970" stroke="#191970" points="659.3111,-372.8025 662.8422,-362.8134 653.8525,-368.4202 659.3111,-372.8025"/>
</g>
<!-- Node38 -->
<g id="node38" class="node">
<title>Node38</title>
<polygon fill="none" stroke="#bfbfbf" points="648.0791,-399.5 648.0791,-419.5 766.0791,-419.5 766.0791,-399.5 648.0791,-399.5"/>
<text text-anchor="middle" x="707.0791" y="-406.5" font-family="FreeSans" font-size="10.00" fill="#000000">G4ManyFastLists.icc</text>
</g>
<!-- Node1&#45;&gt;Node38 -->
<g id="edge52" class="edge">
<title>Node1&#45;&gt;Node38</title>
<path fill="none" stroke="#191970" d="M656.7228,-456.3835C667.7853,-446.0839 679.4547,-435.2193 688.7714,-426.5451"/>
<polygon fill="#191970" stroke="#191970" points="691.3448,-428.9313 696.2788,-419.5554 686.5749,-423.808 691.3448,-428.9313"/>
</g>
<!-- Node3 -->
<g id="node3" class="node">
<title>Node3</title>
<g id="a_node3"><a xlink:href="../../da/d46/globals_8hh.html" target="_top" xlink:title="globals.hh">
<polygon fill="none" stroke="#000000" points="464.0791,-342.5 464.0791,-362.5 532.0791,-362.5 532.0791,-342.5 464.0791,-342.5"/>
<text text-anchor="middle" x="498.0791" y="-349.5" font-family="FreeSans" font-size="10.00" fill="#000000">globals.hh</text>
</a>
</g>
</g>
<!-- Node2&#45;&gt;Node3 -->
<g id="edge2" class="edge">
<title>Node2&#45;&gt;Node3</title>
<path fill="none" stroke="#191970" d="M498.0791,-399.3095C498.0791,-391.9335 498.0791,-381.72 498.0791,-372.715"/>
<polygon fill="#191970" stroke="#191970" points="501.5792,-372.6022 498.0791,-362.6022 494.5792,-372.6023 501.5792,-372.6022"/>
</g>
<!-- Node28 -->
<g id="node28" class="node">
<title>Node28</title>
<g id="a_node28"><a xlink:href="../../d7/dbe/G4ReferenceCountedHandle_8hh.html" target="_top" xlink:title="G4ReferenceCountedHandle.hh">
<polygon fill="none" stroke="#000000" points="88.0791,-342.5 88.0791,-362.5 264.0791,-362.5 264.0791,-342.5 88.0791,-342.5"/>
<text text-anchor="middle" x="176.0791" y="-349.5" font-family="FreeSans" font-size="10.00" fill="#000000">G4ReferenceCountedHandle.hh</text>
</a>
</g>
</g>
<!-- Node2&#45;&gt;Node28 -->
<g id="edge40" class="edge">
<title>Node2&#45;&gt;Node28</title>
<path fill="none" stroke="#191970" d="M455.9832,-402.0482C401.775,-392.4524 306.9339,-375.6637 242.8414,-364.3182"/>
<polygon fill="#191970" stroke="#191970" points="243.287,-360.8427 232.8299,-362.546 242.0667,-367.7355 243.287,-360.8427"/>
</g>
<!-- Node33 -->
<g id="node33" class="node">
<title>Node33</title>
<g id="a_node33"><a xlink:href="../../de/d81/G4memory_8hh.html" target="_top" xlink:title="G4memory.hh">
<polygon fill="none" stroke="#000000" points="550.5791,-342.5 550.5791,-362.5 637.5791,-362.5 637.5791,-342.5 550.5791,-342.5"/>
<text text-anchor="middle" x="594.0791" y="-349.5" font-family="FreeSans" font-size="10.00" fill="#000000">G4memory.hh</text>
</a>
</g>
</g>
<!-- Node2&#45;&gt;Node33 -->
<g id="edge46" class="edge">
<title>Node2&#45;&gt;Node33</title>
<path fill="none" stroke="#191970" d="M515.242,-399.3095C529.9855,-390.5556 551.4603,-377.8049 568.2751,-367.8211"/>
<polygon fill="#191970" stroke="#191970" points="570.2532,-370.7172 577.0648,-362.6022 566.6794,-364.6982 570.2532,-370.7172"/>
</g>
<!-- Node35 -->
<g id="node35" class="node">
<title>Node35</title>
<polygon fill="none" stroke="#bfbfbf" points="293.5791,-342.5 293.5791,-362.5 342.5791,-362.5 342.5791,-342.5 293.5791,-342.5"/>
<text text-anchor="middle" x="318.0791" y="-349.5" font-family="FreeSans" font-size="10.00" fill="#000000">vector</text>
</g>
<!-- Node2&#45;&gt;Node35 -->
<g id="edge48" class="edge">
<title>Node2&#45;&gt;Node35</title>
<path fill="none" stroke="#191970" d="M466.2447,-399.4469C438.4444,-390.6641 396.7545,-377.4841 352.1454,-363.3353"/>
<polygon fill="#191970" stroke="#191970" points="353.1762,-359.9905 342.5859,-360.3027 351.0594,-366.6628 353.1762,-359.9905"/>
</g>
<!-- Node2&#45;&gt;Node36 -->
<g id="edge49" class="edge">
<title>Node2&#45;&gt;Node36</title>
<path fill="none" stroke="#191970" d="M532.7279,-399.4622C562.887,-390.5238 607.6681,-376.7657 646.0791,-363 646.1794,-362.9641 646.2798,-362.928 646.3804,-362.8918"/>
<polygon fill="#191970" stroke="#191970" points="647.8299,-366.085 655.9282,-359.2535 645.3373,-359.5438 647.8299,-366.085"/>
</g>
<!-- Node37 -->
<g id="node37" class="node">
<title>Node37</title>
<polygon fill="none" stroke="#bfbfbf" points="360.5791,-342.5 360.5791,-362.5 445.5791,-362.5 445.5791,-342.5 360.5791,-342.5"/>
<text text-anchor="middle" x="403.0791" y="-349.5" font-family="FreeSans" font-size="10.00" fill="#000000">G4FastList.icc</text>
</g>
<!-- Node2&#45;&gt;Node37 -->
<g id="edge50" class="edge">
<title>Node2&#45;&gt;Node37</title>
<path fill="none" stroke="#191970" d="M481.095,-399.3095C466.505,-390.5556 445.2539,-377.8049 428.6143,-367.8211"/>
<polygon fill="#191970" stroke="#191970" points="430.2919,-364.746 419.9162,-362.6022 426.6904,-370.7485 430.2919,-364.746"/>
</g>
<!-- Node4 -->
<g id="node4" class="node">
<title>Node4</title>
<g id="a_node4"><a xlink:href="../../df/de9/G4ios_8hh.html" target="_top" xlink:title="G4ios.hh">
<polygon fill="none" stroke="#000000" points="569.5791,-171.5 569.5791,-191.5 630.5791,-191.5 630.5791,-171.5 569.5791,-171.5"/>
<text text-anchor="middle" x="600.0791" y="-178.5" font-family="FreeSans" font-size="10.00" fill="#000000">G4ios.hh</text>
</a>
</g>
</g>
<!-- Node3&#45;&gt;Node4 -->
<g id="edge3" class="edge">
<title>Node3&#45;&gt;Node4</title>
<path fill="none" stroke="#191970" d="M463.9244,-342.8787C426.243,-331.9231 370.0927,-314.4522 364.0791,-306 343.982,-277.7532 341.8904,-254.6353 364.0791,-228 390.7627,-195.9689 502.6025,-200.8748 559.5918,-191.66"/>
<polygon fill="#191970" stroke="#191970" points="560.3923,-195.0705 569.5617,-189.7629 559.0837,-188.1939 560.3923,-195.0705"/>
</g>
<!-- Node5 -->
<g id="node5" class="node">
<title>Node5</title>
<g id="a_node5"><a xlink:href="../../de/d29/G4Types_8hh.html" target="_top" xlink:title="G4Types.hh">
<polygon fill="none" stroke="#000000" points="431.5791,-114.5 431.5791,-134.5 506.5791,-134.5 506.5791,-114.5 431.5791,-114.5"/>
<text text-anchor="middle" x="469.0791" y="-121.5" font-family="FreeSans" font-size="10.00" fill="#000000">G4Types.hh</text>
</a>
</g>
</g>
<!-- Node3&#45;&gt;Node5 -->
<g id="edge11" class="edge">
<title>Node3&#45;&gt;Node5</title>
<path fill="none" stroke="#191970" d="M463.8252,-344.0558C422.0603,-333.4219 356.126,-315.4073 349.0791,-306 328.2936,-278.2523 335.5492,-260.3261 348.0791,-228 364.1953,-186.4216 408.0452,-156.1468 438.2783,-139.4394"/>
<polygon fill="#191970" stroke="#191970" points="440.0019,-142.4868 447.178,-134.6924 436.7075,-136.3105 440.0019,-142.4868"/>
</g>
<!-- Node10 -->
<g id="node10" class="node">
<title>Node10</title>
<polygon fill="none" stroke="#bfbfbf" points="373.5791,-285.5 373.5791,-305.5 438.5791,-305.5 438.5791,-285.5 373.5791,-285.5"/>
<text text-anchor="middle" x="406.0791" y="-292.5" font-family="FreeSans" font-size="10.00" fill="#000000">algorithm</text>
</g>
<!-- Node3&#45;&gt;Node10 -->
<g id="edge10" class="edge">
<title>Node3&#45;&gt;Node10</title>
<path fill="none" stroke="#191970" d="M481.6313,-342.3095C467.6329,-333.6366 447.3027,-321.0407 431.2567,-311.0992"/>
<polygon fill="#191970" stroke="#191970" points="432.7285,-307.8938 422.3845,-305.6022 429.0418,-313.8442 432.7285,-307.8938"/>
</g>
<!-- Node11 -->
<g id="node11" class="node">
<title>Node11</title>
<g id="a_node11"><a xlink:href="../../d2/df2/source_2global_2management_2include_2G4String_8hh.html" target="_top" xlink:title="G4String.hh">
<polygon fill="none" stroke="#000000" points="854.0791,-171.5 854.0791,-191.5 930.0791,-191.5 930.0791,-171.5 854.0791,-171.5"/>
<text text-anchor="middle" x="892.0791" y="-178.5" font-family="FreeSans" font-size="10.00" fill="#000000">G4String.hh</text>
</a>
</g>
</g>
<!-- Node3&#45;&gt;Node11 -->
<g id="edge12" class="edge">
<title>Node3&#45;&gt;Node11</title>
<path fill="none" stroke="#191970" d="M532.2636,-343.7384C535.2352,-343.1027 538.2041,-342.5116 541.0791,-342 665.2767,-319.8982 1022.7684,-347.8987 1101.0791,-249 1106.8731,-241.6828 1106.9183,-235.2811 1101.0791,-228 1081.3205,-203.3622 995.71,-190.9447 940.3733,-185.3797"/>
<polygon fill="#191970" stroke="#191970" points="940.7057,-181.8956 930.4157,-184.4189 940.0333,-188.8632 940.7057,-181.8956"/>
</g>
<!-- Node16 -->
<g id="node16" class="node">
<title>Node16</title>
<g id="a_node16"><a xlink:href="../../d2/d54/templates_8hh.html" target="_top" xlink:title="templates.hh">
<polygon fill="none" stroke="#000000" points="456.5791,-285.5 456.5791,-305.5 539.5791,-305.5 539.5791,-285.5 456.5791,-285.5"/>
<text text-anchor="middle" x="498.0791" y="-292.5" font-family="FreeSans" font-size="10.00" fill="#000000">templates.hh</text>
</a>
</g>
</g>
<!-- Node3&#45;&gt;Node16 -->
<g id="edge19" class="edge">
<title>Node3&#45;&gt;Node16</title>
<path fill="none" stroke="#191970" d="M498.0791,-342.3095C498.0791,-334.9335 498.0791,-324.72 498.0791,-315.715"/>
<polygon fill="#191970" stroke="#191970" points="501.5792,-315.6022 498.0791,-305.6022 494.5792,-315.6023 501.5792,-315.6022"/>
</g>
<!-- Node19 -->
<g id="node19" class="node">
<title>Node19</title>
<g id="a_node19"><a xlink:href="../../d5/d4f/G4Exception_8hh.html" target="_top" xlink:title="G4Exception.hh">
<polygon fill="none" stroke="#000000" points="503.0791,-228.5 503.0791,-248.5 599.0791,-248.5 599.0791,-228.5 503.0791,-228.5"/>
<text text-anchor="middle" x="551.0791" y="-235.5" font-family="FreeSans" font-size="10.00" fill="#000000">G4Exception.hh</text>
</a>
</g>
</g>
<!-- Node3&#45;&gt;Node19 -->
<g id="edge22" class="edge">
<title>Node3&#45;&gt;Node19</title>
<path fill="none" stroke="#191970" d="M514.3028,-342.4839C525.9911,-334.2706 540.916,-321.4945 548.0791,-306 554.915,-291.2132 555.2171,-272.6052 554.0626,-258.6735"/>
<polygon fill="#191970" stroke="#191970" points="557.5319,-258.2044 552.9214,-248.6654 550.5769,-258.9975 557.5319,-258.2044"/>
</g>
<!-- Node22 -->
<g id="node22" class="node">
<title>Node22</title>
<g id="a_node22"><a xlink:href="../../dc/d3a/G4EnvironmentUtils_8hh.html" target="_top" xlink:title="G4EnvironmentUtils.hh">
<polygon fill="none" stroke="#000000" points="717.5791,-285.5 717.5791,-305.5 850.5791,-305.5 850.5791,-285.5 717.5791,-285.5"/>
<text text-anchor="middle" x="784.0791" y="-292.5" font-family="FreeSans" font-size="10.00" fill="#000000">G4EnvironmentUtils.hh</text>
</a>
</g>
</g>
<!-- Node3&#45;&gt;Node22 -->
<g id="edge28" class="edge">
<title>Node3&#45;&gt;Node22</title>
<path fill="none" stroke="#191970" d="M532.3106,-343.9763C535.272,-343.2889 538.2257,-342.621 541.0791,-342 600.442,-329.081 668.3859,-316.2431 717.308,-307.3403"/>
<polygon fill="#191970" stroke="#191970" points="718.2337,-310.7297 727.4488,-305.5017 716.9848,-303.8419 718.2337,-310.7297"/>
</g>
<!-- Node4&#45;&gt;Node5 -->
<g id="edge4" class="edge">
<title>Node4&#45;&gt;Node5</title>
<path fill="none" stroke="#191970" d="M576.9605,-171.4408C556.0438,-162.3396 525.0222,-148.8416 501.6063,-138.6531"/>
<polygon fill="#191970" stroke="#191970" points="502.9733,-135.4309 492.4073,-134.6504 500.1804,-141.8497 502.9733,-135.4309"/>
</g>
<!-- Node9 -->
<g id="node9" class="node">
<title>Node9</title>
<polygon fill="none" stroke="#bfbfbf" points="679.0791,-114.5 679.0791,-134.5 739.0791,-134.5 739.0791,-114.5 679.0791,-114.5"/>
<text text-anchor="middle" x="709.0791" y="-121.5" font-family="FreeSans" font-size="10.00" fill="#000000">iostream</text>
</g>
<!-- Node4&#45;&gt;Node9 -->
<g id="edge9" class="edge">
<title>Node4&#45;&gt;Node9</title>
<path fill="none" stroke="#191970" d="M619.3152,-171.4408C636.3324,-162.5419 661.388,-149.4394 680.7063,-139.3371"/>
<polygon fill="#191970" stroke="#191970" points="682.4291,-142.386 689.6687,-134.6504 679.1852,-136.1829 682.4291,-142.386"/>
</g>
<!-- Node6 -->
<g id="node6" class="node">
<title>Node6</title>
<polygon fill="none" stroke="#bfbfbf" points="388.5791,-.5 388.5791,-20.5 499.5791,-20.5 499.5791,-.5 388.5791,-.5"/>
<text text-anchor="middle" x="444.0791" y="-7.5" font-family="FreeSans" font-size="10.00" fill="#000000">G4GlobalConfig.hh</text>
</g>
<!-- Node5&#45;&gt;Node6 -->
<g id="edge5" class="edge">
<title>Node5&#45;&gt;Node6</title>
<path fill="none" stroke="#191970" d="M459.7051,-114.3495C452.2147,-105.4996 442.2965,-91.9292 438.0791,-78 433.3982,-62.5402 435.464,-44.2477 438.3862,-30.6078"/>
<polygon fill="#191970" stroke="#191970" points="441.8064,-31.3562 440.8007,-20.8092 435.0097,-29.6813 441.8064,-31.3562"/>
</g>
<!-- Node7 -->
<g id="node7" class="node">
<title>Node7</title>
<polygon fill="none" stroke="#bfbfbf" points="509.5791,-57.5 509.5791,-77.5 568.5791,-77.5 568.5791,-57.5 509.5791,-57.5"/>
<text text-anchor="middle" x="539.0791" y="-64.5" font-family="FreeSans" font-size="10.00" fill="#000000">complex</text>
</g>
<!-- Node5&#45;&gt;Node7 -->
<g id="edge6" class="edge">
<title>Node5&#45;&gt;Node7</title>
<path fill="none" stroke="#191970" d="M481.5937,-114.3095C491.9461,-105.8798 506.8497,-93.7439 518.8878,-83.9415"/>
<polygon fill="#191970" stroke="#191970" points="521.1285,-86.6306 526.6729,-77.6022 516.7085,-81.2025 521.1285,-86.6306"/>
</g>
<!-- Node8 -->
<g id="node8" class="node">
<title>Node8</title>
<g id="a_node8"><a xlink:href="../../d0/d00/tls_8hh.html" target="_top" xlink:title="tls.hh">
<polygon fill="none" stroke="#000000" points="447.0791,-57.5 447.0791,-77.5 491.0791,-77.5 491.0791,-57.5 447.0791,-57.5"/>
<text text-anchor="middle" x="469.0791" y="-64.5" font-family="FreeSans" font-size="10.00" fill="#000000">tls.hh</text>
</a>
</g>
</g>
<!-- Node5&#45;&gt;Node8 -->
<g id="edge7" class="edge">
<title>Node5&#45;&gt;Node8</title>
<path fill="none" stroke="#191970" d="M469.0791,-114.3095C469.0791,-106.9335 469.0791,-96.72 469.0791,-87.715"/>
<polygon fill="#191970" stroke="#191970" points="472.5792,-87.6022 469.0791,-77.6022 465.5792,-87.6023 472.5792,-87.6022"/>
</g>
<!-- Node8&#45;&gt;Node6 -->
<g id="edge8" class="edge">
<title>Node8&#45;&gt;Node6</title>
<path fill="none" stroke="#191970" d="M464.6096,-57.3095C461.2678,-49.6903 456.5982,-39.0435 452.5565,-29.8285"/>
<polygon fill="#191970" stroke="#191970" points="455.7318,-28.3543 448.5099,-20.6022 449.3213,-31.166 455.7318,-28.3543"/>
</g>
<!-- Node11&#45;&gt;Node5 -->
<g id="edge16" class="edge">
<title>Node11&#45;&gt;Node5</title>
<path fill="none" stroke="#191970" d="M854.0075,-178.0211C787.6433,-171.6907 646.3109,-157.0314 516.8202,-134.9849"/>
<polygon fill="#191970" stroke="#191970" points="517.1742,-131.4945 506.7253,-133.2468 515.9864,-138.393 517.1742,-131.4945"/>
</g>
<!-- Node11&#45;&gt;Node9 -->
<g id="edge17" class="edge">
<title>Node11&#45;&gt;Node9</title>
<path fill="none" stroke="#191970" d="M859.7836,-171.4408C828.9112,-161.8248 782.2804,-147.3004 749.073,-136.9571"/>
<polygon fill="#191970" stroke="#191970" points="749.819,-133.5237 739.2305,-133.8914 747.7373,-140.207 749.819,-133.5237"/>
</g>
<!-- Node12 -->
<g id="node12" class="node">
<title>Node12</title>
<polygon fill="none" stroke="#bfbfbf" points="799.0791,-114.5 799.0791,-134.5 849.0791,-134.5 849.0791,-114.5 799.0791,-114.5"/>
<text text-anchor="middle" x="824.0791" y="-121.5" font-family="FreeSans" font-size="10.00" fill="#000000">stdio.h</text>
</g>
<!-- Node11&#45;&gt;Node12 -->
<g id="edge13" class="edge">
<title>Node11&#45;&gt;Node12</title>
<path fill="none" stroke="#191970" d="M879.9221,-171.3095C869.9622,-162.9608 855.6656,-150.9769 844.0316,-141.2249"/>
<polygon fill="#191970" stroke="#191970" points="846.043,-138.344 836.1309,-134.6022 841.5462,-143.7086 846.043,-138.344"/>
</g>
<!-- Node13 -->
<g id="node13" class="node">
<title>Node13</title>
<polygon fill="none" stroke="#bfbfbf" points="1083.5791,-114.5 1083.5791,-134.5 1128.5791,-134.5 1128.5791,-114.5 1083.5791,-114.5"/>
<text text-anchor="middle" x="1106.0791" y="-121.5" font-family="FreeSans" font-size="10.00" fill="#000000">string</text>
</g>
<!-- Node11&#45;&gt;Node13 -->
<g id="edge14" class="edge">
<title>Node11&#45;&gt;Node13</title>
<path fill="none" stroke="#191970" d="M929.8454,-171.4408C970.7101,-160.5562 1035.1855,-143.3829 1073.7808,-133.1028"/>
<polygon fill="#191970" stroke="#191970" points="1074.7101,-136.4774 1083.4723,-130.5214 1072.9083,-129.7132 1074.7101,-136.4774"/>
</g>
<!-- Node14 -->
<g id="node14" class="node">
<title>Node14</title>
<polygon fill="none" stroke="#bfbfbf" points="867.0791,-114.5 867.0791,-134.5 917.0791,-134.5 917.0791,-114.5 867.0791,-114.5"/>
<text text-anchor="middle" x="892.0791" y="-121.5" font-family="FreeSans" font-size="10.00" fill="#000000">cstring</text>
</g>
<!-- Node11&#45;&gt;Node14 -->
<g id="edge15" class="edge">
<title>Node11&#45;&gt;Node14</title>
<path fill="none" stroke="#191970" d="M892.0791,-171.3095C892.0791,-163.9335 892.0791,-153.72 892.0791,-144.715"/>
<polygon fill="#191970" stroke="#191970" points="895.5792,-144.6022 892.0791,-134.6022 888.5792,-144.6023 895.5792,-144.6022"/>
</g>
<!-- Node15 -->
<g id="node15" class="node">
<title>Node15</title>
<polygon fill="none" stroke="#bfbfbf" points="935.0791,-114.5 935.0791,-134.5 1013.0791,-134.5 1013.0791,-114.5 935.0791,-114.5"/>
<text text-anchor="middle" x="974.0791" y="-121.5" font-family="FreeSans" font-size="10.00" fill="#000000">G4String.icc</text>
</g>
<!-- Node11&#45;&gt;Node15 -->
<g id="edge18" class="edge">
<title>Node11&#45;&gt;Node15</title>
<path fill="none" stroke="#191970" d="M906.7391,-171.3095C919.0993,-162.7177 936.9982,-150.2758 951.2362,-140.3786"/>
<polygon fill="#191970" stroke="#191970" points="953.3327,-143.1839 959.5461,-134.6022 949.3372,-137.4361 953.3327,-143.1839"/>
</g>
<!-- Node17 -->
<g id="node17" class="node">
<title>Node17</title>
<polygon fill="none" stroke="#bfbfbf" points="373.0791,-228.5 373.0791,-248.5 417.0791,-248.5 417.0791,-228.5 373.0791,-228.5"/>
<text text-anchor="middle" x="395.0791" y="-235.5" font-family="FreeSans" font-size="10.00" fill="#000000">limits</text>
</g>
<!-- Node16&#45;&gt;Node17 -->
<g id="edge20" class="edge">
<title>Node16&#45;&gt;Node17</title>
<path fill="none" stroke="#191970" d="M479.6648,-285.3095C463.6997,-276.4745 440.3782,-263.5684 422.2648,-253.5445"/>
<polygon fill="#191970" stroke="#191970" points="423.7783,-250.3819 413.334,-248.6022 420.3889,-256.5066 423.7783,-250.3819"/>
</g>
<!-- Node18 -->
<g id="node18" class="node">
<title>Node18</title>
<polygon fill="none" stroke="#bfbfbf" points="435.5791,-228.5 435.5791,-248.5 484.5791,-248.5 484.5791,-228.5 435.5791,-228.5"/>
<text text-anchor="middle" x="460.0791" y="-235.5" font-family="FreeSans" font-size="10.00" fill="#000000">climits</text>
</g>
<!-- Node16&#45;&gt;Node18 -->
<g id="edge21" class="edge">
<title>Node16&#45;&gt;Node18</title>
<path fill="none" stroke="#191970" d="M491.2855,-285.3095C486.0439,-277.4472 478.653,-266.3608 472.3796,-256.9507"/>
<polygon fill="#191970" stroke="#191970" points="475.2732,-254.9813 466.8139,-248.6022 469.4488,-258.8642 475.2732,-254.9813"/>
</g>
<!-- Node19&#45;&gt;Node4 -->
<g id="edge23" class="edge">
<title>Node19&#45;&gt;Node4</title>
<path fill="none" stroke="#191970" d="M559.8393,-228.3095C566.7376,-220.2851 576.5228,-208.9022 584.7165,-199.3708"/>
<polygon fill="#191970" stroke="#191970" points="587.5299,-201.467 591.3947,-191.6022 582.2217,-196.9038 587.5299,-201.467"/>
</g>
<!-- Node19&#45;&gt;Node11 -->
<g id="edge24" class="edge">
<title>Node19&#45;&gt;Node11</title>
<path fill="none" stroke="#191970" d="M599.2128,-230.4542C664.1265,-219.6035 779.0559,-200.3924 843.9613,-189.5431"/>
<polygon fill="#191970" stroke="#191970" points="844.6474,-192.9771 853.9334,-187.8763 843.4932,-186.0729 844.6474,-192.9771"/>
</g>
<!-- Node20 -->
<g id="node20" class="node">
<title>Node20</title>
<g id="a_node20"><a xlink:href="../../d9/d05/G4VExceptionHandler_8hh.html" target="_top" xlink:title="G4VExceptionHandler.hh">
<polygon fill="none" stroke="#000000" points="409.0791,-171.5 409.0791,-191.5 551.0791,-191.5 551.0791,-171.5 409.0791,-171.5"/>
<text text-anchor="middle" x="480.0791" y="-178.5" font-family="FreeSans" font-size="10.00" fill="#000000">G4VExceptionHandler.hh</text>
</a>
</g>
</g>
<!-- Node19&#45;&gt;Node20 -->
<g id="edge25" class="edge">
<title>Node19&#45;&gt;Node20</title>
<path fill="none" stroke="#191970" d="M538.3857,-228.3095C527.8855,-219.8798 512.7689,-207.7439 500.5589,-197.9415"/>
<polygon fill="#191970" stroke="#191970" points="502.6517,-195.1333 492.6626,-191.6022 498.2694,-200.5919 502.6517,-195.1333"/>
</g>
<!-- Node20&#45;&gt;Node5 -->
<g id="edge26" class="edge">
<title>Node20&#45;&gt;Node5</title>
<path fill="none" stroke="#191970" d="M478.1125,-171.3095C476.6891,-163.9335 474.718,-153.72 472.9802,-144.715"/>
<polygon fill="#191970" stroke="#191970" points="476.3602,-143.7578 471.0287,-134.6022 469.487,-145.0843 476.3602,-143.7578"/>
</g>
<!-- Node21 -->
<g id="node21" class="node">
<title>Node21</title>
<g id="a_node21"><a xlink:href="../../d6/d7e/G4ExceptionSeverity_8hh.html" target="_top" xlink:title="G4ExceptionSeverity.hh">
<polygon fill="none" stroke="#000000" points="525.0791,-114.5 525.0791,-134.5 661.0791,-134.5 661.0791,-114.5 525.0791,-114.5"/>
<text text-anchor="middle" x="593.0791" y="-121.5" font-family="FreeSans" font-size="10.00" fill="#000000">G4ExceptionSeverity.hh</text>
</a>
</g>
</g>
<!-- Node20&#45;&gt;Node21 -->
<g id="edge27" class="edge">
<title>Node20&#45;&gt;Node21</title>
<path fill="none" stroke="#191970" d="M500.0211,-171.4408C517.743,-162.5014 543.8742,-149.3202 563.9379,-139.1996"/>
<polygon fill="#191970" stroke="#191970" points="565.6042,-142.2791 572.9564,-134.6504 562.4516,-136.0292 565.6042,-142.2791"/>
</g>
<!-- Node22&#45;&gt;Node4 -->
<g id="edge36" class="edge">
<title>Node22&#45;&gt;Node4</title>
<path fill="none" stroke="#191970" d="M734.3303,-285.4997C707.8151,-278.4313 675.6858,-266.9428 651.0791,-249 633.5559,-236.2224 619.2802,-215.7288 610.3355,-200.671"/>
<polygon fill="#191970" stroke="#191970" points="613.2239,-198.669 605.2468,-191.6965 607.1347,-202.1218 613.2239,-198.669"/>
</g>
<!-- Node22&#45;&gt;Node9 -->
<g id="edge33" class="edge">
<title>Node22&#45;&gt;Node9</title>
<path fill="none" stroke="#191970" d="M762.8444,-285.4352C748.7875,-277.581 731.3015,-265.2703 722.0791,-249 703.5024,-216.2267 704.123,-170.7521 706.4602,-144.8045"/>
<polygon fill="#191970" stroke="#191970" points="709.9603,-144.9903 707.5538,-134.6724 703.0008,-144.239 709.9603,-144.9903"/>
</g>
<!-- Node22&#45;&gt;Node11 -->
<g id="edge37" class="edge">
<title>Node22&#45;&gt;Node11</title>
<path fill="none" stroke="#191970" d="M831.9497,-285.4638C867.0452,-277.0217 910.3621,-263.955 921.0791,-249 932.0096,-233.7471 920.7981,-213.7316 909.2847,-199.4656"/>
<polygon fill="#191970" stroke="#191970" points="911.8356,-197.0651 902.636,-191.8099 906.5504,-201.655 911.8356,-197.0651"/>
</g>
<!-- Node22&#45;&gt;Node13 -->
<g id="edge30" class="edge">
<title>Node22&#45;&gt;Node13</title>
<path fill="none" stroke="#191970" d="M850.9353,-290.2083C938.9687,-282.5652 1084.5935,-267.3237 1101.0791,-249 1126.6388,-220.5905 1119.3031,-172.1026 1112.3011,-144.7765"/>
<polygon fill="#191970" stroke="#191970" points="1115.5743,-143.4844 1109.5129,-134.7947 1108.8323,-145.3677 1115.5743,-143.4844"/>
</g>
<!-- Node22&#45;&gt;Node19 -->
<g id="edge38" class="edge">
<title>Node22&#45;&gt;Node19</title>
<path fill="none" stroke="#191970" d="M742.9597,-285.4408C703.6517,-275.8246 644.2792,-261.3 601.9987,-250.9567"/>
<polygon fill="#191970" stroke="#191970" points="602.7239,-247.531 592.1786,-248.5544 601.0605,-254.3305 602.7239,-247.531"/>
</g>
<!-- Node22&#45;&gt;Node21 -->
<g id="edge39" class="edge">
<title>Node22&#45;&gt;Node21</title>
<path fill="none" stroke="#191970" d="M764.8766,-285.3487C749.3442,-276.6998 727.3024,-263.4096 710.0791,-249 674.125,-218.9195 671.3478,-205.0038 639.0791,-171 629.8627,-161.288 619.3781,-150.6583 610.7486,-142.0164"/>
<polygon fill="#191970" stroke="#191970" points="612.9868,-139.3054 603.4346,-134.7221 608.0437,-144.2619 612.9868,-139.3054"/>
</g>
<!-- Node23 -->
<g id="node23" class="node">
<title>Node23</title>
<polygon fill="none" stroke="#bfbfbf" points="968.0791,-228.5 968.0791,-248.5 1018.0791,-248.5 1018.0791,-228.5 968.0791,-228.5"/>
<text text-anchor="middle" x="993.0791" y="-235.5" font-family="FreeSans" font-size="10.00" fill="#000000">cstdlib</text>
</g>
<!-- Node22&#45;&gt;Node23 -->
<g id="edge29" class="edge">
<title>Node22&#45;&gt;Node23</title>
<path fill="none" stroke="#191970" d="M820.963,-285.4408C859.632,-274.8947 919.9482,-258.4448 957.9474,-248.0814"/>
<polygon fill="#191970" stroke="#191970" points="959.31,-251.3377 968.0367,-245.3297 957.4682,-244.5843 959.31,-251.3377"/>
</g>
<!-- Node24 -->
<g id="node24" class="node">
<title>Node24</title>
<polygon fill="none" stroke="#bfbfbf" points="1036.0791,-228.5 1036.0791,-248.5 1092.0791,-248.5 1092.0791,-228.5 1036.0791,-228.5"/>
<text text-anchor="middle" x="1064.0791" y="-235.5" font-family="FreeSans" font-size="10.00" fill="#000000">sstream</text>
</g>
<!-- Node22&#45;&gt;Node24 -->
<g id="edge31" class="edge">
<title>Node22&#45;&gt;Node24</title>
<path fill="none" stroke="#191970" d="M844.3074,-285.4853C891.357,-277.3173 958.5642,-264.8974 1025.9265,-249.1319"/>
<polygon fill="#191970" stroke="#191970" points="1026.938,-252.4893 1035.8639,-246.7816 1025.3268,-245.6772 1026.938,-252.4893"/>
</g>
<!-- Node25 -->
<g id="node25" class="node">
<title>Node25</title>
<polygon fill="none" stroke="#bfbfbf" points="731.5791,-228.5 731.5791,-248.5 770.5791,-248.5 770.5791,-228.5 731.5791,-228.5"/>
<text text-anchor="middle" x="751.0791" y="-235.5" font-family="FreeSans" font-size="10.00" fill="#000000">map</text>
</g>
<!-- Node22&#45;&gt;Node25 -->
<g id="edge32" class="edge">
<title>Node22&#45;&gt;Node25</title>
<path fill="none" stroke="#191970" d="M778.1794,-285.3095C773.7213,-277.6093 767.4729,-266.8166 762.0993,-257.5349"/>
<polygon fill="#191970" stroke="#191970" points="764.9672,-255.5029 756.9278,-248.6022 758.9092,-259.0102 764.9672,-255.5029"/>
</g>
<!-- Node26 -->
<g id="node26" class="node">
<title>Node26</title>
<polygon fill="none" stroke="#bfbfbf" points="788.5791,-228.5 788.5791,-248.5 845.5791,-248.5 845.5791,-228.5 788.5791,-228.5"/>
<text text-anchor="middle" x="817.0791" y="-235.5" font-family="FreeSans" font-size="10.00" fill="#000000">iomanip</text>
</g>
<!-- Node22&#45;&gt;Node26 -->
<g id="edge34" class="edge">
<title>Node22&#45;&gt;Node26</title>
<path fill="none" stroke="#191970" d="M789.9788,-285.3095C794.4369,-277.6093 800.6853,-266.8166 806.0589,-257.5349"/>
<polygon fill="#191970" stroke="#191970" points="809.249,-259.0102 811.2304,-248.6022 803.191,-255.5029 809.249,-259.0102"/>
</g>
<!-- Node27 -->
<g id="node27" class="node">
<title>Node27</title>
<polygon fill="none" stroke="#bfbfbf" points="864.0791,-228.5 864.0791,-248.5 912.0791,-248.5 912.0791,-228.5 864.0791,-228.5"/>
<text text-anchor="middle" x="888.0791" y="-235.5" font-family="FreeSans" font-size="10.00" fill="#000000">mutex</text>
</g>
<!-- Node22&#45;&gt;Node27 -->
<g id="edge35" class="edge">
<title>Node22&#45;&gt;Node27</title>
<path fill="none" stroke="#191970" d="M802.6722,-285.3095C818.7923,-276.4745 842.3402,-263.5684 860.6294,-253.5445"/>
<polygon fill="#191970" stroke="#191970" points="862.5599,-256.4778 869.647,-248.6022 859.1955,-250.3393 862.5599,-256.4778"/>
</g>
<!-- Node28&#45;&gt;Node5 -->
<g id="edge41" class="edge">
<title>Node28&#45;&gt;Node5</title>
<path fill="none" stroke="#191970" d="M139.664,-342.4547C78.8891,-323.9191 -32.5539,-281.3168 10.0791,-228 61.2401,-164.0181 313.9873,-136.7607 421.0381,-127.9567"/>
<polygon fill="#191970" stroke="#191970" points="421.5471,-131.4272 431.2349,-127.1379 420.9868,-124.4497 421.5471,-131.4272"/>
</g>
<!-- Node29 -->
<g id="node29" class="node">
<title>Node29</title>
<g id="a_node29"><a xlink:href="../../dd/d3c/G4Allocator_8hh.html" target="_top" xlink:title="G4Allocator.hh">
<polygon fill="none" stroke="#000000" points="131.0791,-285.5 131.0791,-305.5 221.0791,-305.5 221.0791,-285.5 131.0791,-285.5"/>
<text text-anchor="middle" x="176.0791" y="-292.5" font-family="FreeSans" font-size="10.00" fill="#000000">G4Allocator.hh</text>
</a>
</g>
</g>
<!-- Node28&#45;&gt;Node29 -->
<g id="edge42" class="edge">
<title>Node28&#45;&gt;Node29</title>
<path fill="none" stroke="#191970" d="M176.0791,-342.3095C176.0791,-334.9335 176.0791,-324.72 176.0791,-315.715"/>
<polygon fill="#191970" stroke="#191970" points="179.5792,-315.6022 176.0791,-305.6022 172.5792,-315.6023 179.5792,-315.6022"/>
</g>
<!-- Node30 -->
<g id="node30" class="node">
<title>Node30</title>
<polygon fill="none" stroke="#bfbfbf" points="149.0791,-228.5 149.0791,-248.5 203.0791,-248.5 203.0791,-228.5 149.0791,-228.5"/>
<text text-anchor="middle" x="176.0791" y="-235.5" font-family="FreeSans" font-size="10.00" fill="#000000">cstddef</text>
</g>
<!-- Node29&#45;&gt;Node30 -->
<g id="edge43" class="edge">
<title>Node29&#45;&gt;Node30</title>
<path fill="none" stroke="#191970" d="M176.0791,-285.3095C176.0791,-277.9335 176.0791,-267.72 176.0791,-258.715"/>
<polygon fill="#191970" stroke="#191970" points="179.5792,-258.6022 176.0791,-248.6022 172.5792,-258.6023 179.5792,-258.6022"/>
</g>
<!-- Node31 -->
<g id="node31" class="node">
<title>Node31</title>
<polygon fill="none" stroke="#bfbfbf" points="221.0791,-228.5 221.0791,-248.5 279.0791,-248.5 279.0791,-228.5 221.0791,-228.5"/>
<text text-anchor="middle" x="250.0791" y="-235.5" font-family="FreeSans" font-size="10.00" fill="#000000">typeinfo</text>
</g>
<!-- Node29&#45;&gt;Node31 -->
<g id="edge44" class="edge">
<title>Node29&#45;&gt;Node31</title>
<path fill="none" stroke="#191970" d="M189.3088,-285.3095C200.2527,-276.8798 216.0081,-264.7439 228.734,-254.9415"/>
<polygon fill="#191970" stroke="#191970" points="231.1775,-257.4773 236.9639,-248.6022 226.9058,-251.9318 231.1775,-257.4773"/>
</g>
<!-- Node32 -->
<g id="node32" class="node">
<title>Node32</title>
<g id="a_node32"><a xlink:href="../../dd/d53/G4AllocatorPool_8hh.html" target="_top" xlink:title="G4AllocatorPool.hh">
<polygon fill="none" stroke="#000000" points="19.0791,-228.5 19.0791,-248.5 131.0791,-248.5 131.0791,-228.5 19.0791,-228.5"/>
<text text-anchor="middle" x="75.0791" y="-235.5" font-family="FreeSans" font-size="10.00" fill="#000000">G4AllocatorPool.hh</text>
</a>
</g>
</g>
<!-- Node29&#45;&gt;Node32 -->
<g id="edge45" class="edge">
<title>Node29&#45;&gt;Node32</title>
<path fill="none" stroke="#191970" d="M158.0223,-285.3095C142.3672,-276.4745 119.4986,-263.5684 101.737,-253.5445"/>
<polygon fill="#191970" stroke="#191970" points="103.4086,-250.4691 92.9796,-248.6022 99.9682,-256.5653 103.4086,-250.4691"/>
</g>
<!-- Node34 -->
<g id="node34" class="node">
<title>Node34</title>
<polygon fill="none" stroke="#bfbfbf" points="1148.0791,-285.5 1148.0791,-305.5 1206.0791,-305.5 1206.0791,-285.5 1148.0791,-285.5"/>
<text text-anchor="middle" x="1177.0791" y="-292.5" font-family="FreeSans" font-size="10.00" fill="#000000">memory</text>
</g>
<!-- Node33&#45;&gt;Node34 -->
<g id="edge47" class="edge">
<title>Node33&#45;&gt;Node34</title>
<path fill="none" stroke="#191970" d="M637.6813,-343.4246C640.8544,-342.8986 644.0117,-342.4157 647.0791,-342 862.1486,-312.8571 919.7014,-339.8583 1134.0791,-306 1135.36,-305.7977 1136.6589,-305.5764 1137.9678,-305.3396"/>
<polygon fill="#191970" stroke="#191970" points="1138.9707,-308.7071 1148.067,-303.2751 1137.5687,-301.8489 1138.9707,-308.7071"/>
</g>
</g>
</svg>
