<?xml version="1.0" encoding="UTF-8" standalone="no"?>
<!DOCTYPE svg PUBLIC "-//W3C//DTD SVG 1.1//EN"
 "http://www.w3.org/Graphics/SVG/1.1/DTD/svg11.dtd">
<!-- Generated by graphviz version 2.40.1 (20161225.0304)
 -->
<!-- Title: DicomDetectorConstruction::ConstructPhantomContainer Pages: 1 -->
<svg width="373pt" height="602pt"
 viewBox="0.00 0.00 373.00 602.00" xmlns="http://www.w3.org/2000/svg" xmlns:xlink="http://www.w3.org/1999/xlink">
<g id="graph0" class="graph" transform="scale(1 1) rotate(0) translate(4 598)">
<title>DicomDetectorConstruction::ConstructPhantomContainer</title>
<!-- Node1 -->
<g id="node1" class="node">
<title>Node1</title>
<polygon fill="#bfbfbf" stroke="#000000" points="0,-280.5 0,-312.5 167,-312.5 167,-280.5 0,-280.5"/>
<text text-anchor="start" x="8" y="-299.5" font-family="FreeSans" font-size="10.00" fill="#000000">DicomDetectorConstruction</text>
<text text-anchor="middle" x="83.5" y="-287.5" font-family="FreeSans" font-size="10.00" fill="#000000">::ConstructPhantomContainer</text>
</g>
<!-- Node2 -->
<g id="node2" class="node">
<title>Node2</title>
<g id="a_node2"><a xlink:href="../../d7/d8a/classDicomPhantomZSliceHeader.html#a2b021544f28e705ee1a5d5725805b095" target="_top" xlink:title="DicomPhantomZSliceHeader\l::GetMaxX">
<polygon fill="none" stroke="#000000" points="203,-561.5 203,-593.5 365,-593.5 365,-561.5 203,-561.5"/>
<text text-anchor="start" x="211" y="-580.5" font-family="FreeSans" font-size="10.00" fill="#000000">DicomPhantomZSliceHeader</text>
<text text-anchor="middle" x="284" y="-568.5" font-family="FreeSans" font-size="10.00" fill="#000000">::GetMaxX</text>
</a>
</g>
</g>
<!-- Node1&#45;&gt;Node2 -->
<g id="edge1" class="edge">
<title>Node1&#45;&gt;Node2</title>
<path fill="none" stroke="#191970" d="M86.352,-312.7313C95.1184,-357.7567 125.895,-485.3207 203,-552.5 204.335,-553.6632 205.7234,-554.7722 207.1573,-555.8297"/>
<polygon fill="#191970" stroke="#191970" points="205.496,-558.921 215.8111,-561.3393 209.2554,-553.0162 205.496,-558.921"/>
</g>
<!-- Node3 -->
<g id="node3" class="node">
<title>Node3</title>
<g id="a_node3"><a xlink:href="../../d7/d8a/classDicomPhantomZSliceHeader.html#a59299cb6b0231ad318adc141269a11e9" target="_top" xlink:title="DicomPhantomZSliceHeader\l::GetMaxY">
<polygon fill="none" stroke="#000000" points="203,-510.5 203,-542.5 365,-542.5 365,-510.5 203,-510.5"/>
<text text-anchor="start" x="211" y="-529.5" font-family="FreeSans" font-size="10.00" fill="#000000">DicomPhantomZSliceHeader</text>
<text text-anchor="middle" x="284" y="-517.5" font-family="FreeSans" font-size="10.00" fill="#000000">::GetMaxY</text>
</a>
</g>
</g>
<!-- Node1&#45;&gt;Node3 -->
<g id="edge2" class="edge">
<title>Node1&#45;&gt;Node3</title>
<path fill="none" stroke="#191970" d="M88.3245,-312.5341C100.7429,-351.0608 137.5133,-449.4903 203,-501.5 204.599,-502.77 206.2627,-503.9757 207.9792,-505.1204"/>
<polygon fill="#191970" stroke="#191970" points="206.5471,-508.3369 216.9488,-510.3509 210.0733,-502.2899 206.5471,-508.3369"/>
</g>
<!-- Node4 -->
<g id="node4" class="node">
<title>Node4</title>
<g id="a_node4"><a xlink:href="../../d7/d8a/classDicomPhantomZSliceHeader.html#af6377d6f304391e63e204e61b34dc5bd" target="_top" xlink:title="DicomPhantomZSliceHeader\l::GetMaxZ">
<polygon fill="none" stroke="#000000" points="203,-459.5 203,-491.5 365,-491.5 365,-459.5 203,-459.5"/>
<text text-anchor="start" x="211" y="-478.5" font-family="FreeSans" font-size="10.00" fill="#000000">DicomPhantomZSliceHeader</text>
<text text-anchor="middle" x="284" y="-466.5" font-family="FreeSans" font-size="10.00" fill="#000000">::GetMaxZ</text>
</a>
</g>
</g>
<!-- Node1&#45;&gt;Node4 -->
<g id="edge3" class="edge">
<title>Node1&#45;&gt;Node4</title>
<path fill="none" stroke="#191970" d="M91.6315,-312.6515C108.22,-343.9709 149.0054,-413.1529 203,-450.5 205.2487,-452.0554 207.5975,-453.5166 210.0202,-454.8893"/>
<polygon fill="#191970" stroke="#191970" points="208.567,-458.0767 219.0683,-459.4816 211.7352,-451.8346 208.567,-458.0767"/>
</g>
<!-- Node5 -->
<g id="node5" class="node">
<title>Node5</title>
<g id="a_node5"><a xlink:href="../../d7/d8a/classDicomPhantomZSliceHeader.html#a417e5acd8b99fd7c55e4f5b0e183f8b1" target="_top" xlink:title="DicomPhantomZSliceHeader\l::GetMinX">
<polygon fill="none" stroke="#000000" points="203,-408.5 203,-440.5 365,-440.5 365,-408.5 203,-408.5"/>
<text text-anchor="start" x="211" y="-427.5" font-family="FreeSans" font-size="10.00" fill="#000000">DicomPhantomZSliceHeader</text>
<text text-anchor="middle" x="284" y="-415.5" font-family="FreeSans" font-size="10.00" fill="#000000">::GetMinX</text>
</a>
</g>
</g>
<!-- Node1&#45;&gt;Node5 -->
<g id="edge4" class="edge">
<title>Node1&#45;&gt;Node5</title>
<path fill="none" stroke="#191970" d="M98.1403,-312.7855C119.2314,-335.3206 160.3412,-375.897 203,-399.5 206.2153,-401.279 209.574,-402.9488 213.0174,-404.5138"/>
<polygon fill="#191970" stroke="#191970" points="211.7154,-407.7632 222.2902,-408.4146 214.4298,-401.3108 211.7154,-407.7632"/>
</g>
<!-- Node6 -->
<g id="node6" class="node">
<title>Node6</title>
<g id="a_node6"><a xlink:href="../../d7/d8a/classDicomPhantomZSliceHeader.html#a16213e6a3ea9587032f7ed7eed866ef1" target="_top" xlink:title="DicomPhantomZSliceHeader\l::GetMinY">
<polygon fill="none" stroke="#000000" points="203,-357.5 203,-389.5 365,-389.5 365,-357.5 203,-357.5"/>
<text text-anchor="start" x="211" y="-376.5" font-family="FreeSans" font-size="10.00" fill="#000000">DicomPhantomZSliceHeader</text>
<text text-anchor="middle" x="284" y="-364.5" font-family="FreeSans" font-size="10.00" fill="#000000">::GetMinY</text>
</a>
</g>
</g>
<!-- Node1&#45;&gt;Node6 -->
<g id="edge5" class="edge">
<title>Node1&#45;&gt;Node6</title>
<path fill="none" stroke="#191970" d="M117.6011,-312.5436C141.2844,-323.3871 173.7224,-337.65 203,-348.5 208.175,-350.4178 213.5719,-352.3102 219.0147,-354.1434"/>
<polygon fill="#191970" stroke="#191970" points="218.2304,-357.5699 228.8234,-357.3722 220.4191,-350.9209 218.2304,-357.5699"/>
</g>
<!-- Node7 -->
<g id="node7" class="node">
<title>Node7</title>
<g id="a_node7"><a xlink:href="../../d7/d8a/classDicomPhantomZSliceHeader.html#aa55639ed3059516e7cd925c0b4ae22e1" target="_top" xlink:title="DicomPhantomZSliceHeader\l::GetMinZ">
<polygon fill="none" stroke="#000000" points="203,-306.5 203,-338.5 365,-338.5 365,-306.5 203,-306.5"/>
<text text-anchor="start" x="211" y="-325.5" font-family="FreeSans" font-size="10.00" fill="#000000">DicomPhantomZSliceHeader</text>
<text text-anchor="middle" x="284" y="-313.5" font-family="FreeSans" font-size="10.00" fill="#000000">::GetMinZ</text>
</a>
</g>
</g>
<!-- Node1&#45;&gt;Node7 -->
<g id="edge6" class="edge">
<title>Node1&#45;&gt;Node7</title>
<path fill="none" stroke="#191970" d="M167.0782,-307.3381C175.5735,-308.4397 184.2332,-309.5627 192.8039,-310.6741"/>
<polygon fill="#191970" stroke="#191970" points="192.442,-314.1564 202.8091,-311.9715 193.3423,-307.2145 192.442,-314.1564"/>
</g>
<!-- Node8 -->
<g id="node8" class="node">
<title>Node8</title>
<g id="a_node8"><a xlink:href="../../d7/d8a/classDicomPhantomZSliceHeader.html#aa80dfed15ce89e4f32db8a5521d5a28b" target="_top" xlink:title="DicomPhantomZSliceHeader\l::GetNoVoxelX">
<polygon fill="none" stroke="#000000" points="203,-255.5 203,-287.5 365,-287.5 365,-255.5 203,-255.5"/>
<text text-anchor="start" x="211" y="-274.5" font-family="FreeSans" font-size="10.00" fill="#000000">DicomPhantomZSliceHeader</text>
<text text-anchor="middle" x="284" y="-262.5" font-family="FreeSans" font-size="10.00" fill="#000000">::GetNoVoxelX</text>
</a>
</g>
</g>
<!-- Node1&#45;&gt;Node8 -->
<g id="edge7" class="edge">
<title>Node1&#45;&gt;Node8</title>
<path fill="none" stroke="#191970" d="M167.0782,-286.0788C175.5735,-285.0195 184.2332,-283.9397 192.8039,-282.8711"/>
<polygon fill="#191970" stroke="#191970" points="193.319,-286.334 202.8091,-281.6236 192.4529,-279.3878 193.319,-286.334"/>
</g>
<!-- Node9 -->
<g id="node9" class="node">
<title>Node9</title>
<g id="a_node9"><a xlink:href="../../d7/d8a/classDicomPhantomZSliceHeader.html#a9e04e3dfa80815e1ebf75e1a55dab2e9" target="_top" xlink:title="DicomPhantomZSliceHeader\l::GetNoVoxelY">
<polygon fill="none" stroke="#000000" points="203,-204.5 203,-236.5 365,-236.5 365,-204.5 203,-204.5"/>
<text text-anchor="start" x="211" y="-223.5" font-family="FreeSans" font-size="10.00" fill="#000000">DicomPhantomZSliceHeader</text>
<text text-anchor="middle" x="284" y="-211.5" font-family="FreeSans" font-size="10.00" fill="#000000">::GetNoVoxelY</text>
</a>
</g>
</g>
<!-- Node1&#45;&gt;Node9 -->
<g id="edge8" class="edge">
<title>Node1&#45;&gt;Node9</title>
<path fill="none" stroke="#191970" d="M119.5255,-280.4776C143.0764,-270.2397 174.6215,-256.9696 203,-246.5 209.0015,-244.2859 215.2909,-242.0767 221.5989,-239.9342"/>
<polygon fill="#191970" stroke="#191970" points="223.112,-243.119 231.4881,-236.6312 220.8944,-236.4795 223.112,-243.119"/>
</g>
<!-- Node10 -->
<g id="node10" class="node">
<title>Node10</title>
<g id="a_node10"><a xlink:href="../../d7/d8a/classDicomPhantomZSliceHeader.html#a31b7201ef362296691cda3bbfb774a35" target="_top" xlink:title="DicomPhantomZSliceHeader\l::GetNoVoxelZ">
<polygon fill="none" stroke="#000000" points="203,-153.5 203,-185.5 365,-185.5 365,-153.5 203,-153.5"/>
<text text-anchor="start" x="211" y="-172.5" font-family="FreeSans" font-size="10.00" fill="#000000">DicomPhantomZSliceHeader</text>
<text text-anchor="middle" x="284" y="-160.5" font-family="FreeSans" font-size="10.00" fill="#000000">::GetNoVoxelZ</text>
</a>
</g>
</g>
<!-- Node1&#45;&gt;Node10 -->
<g id="edge9" class="edge">
<title>Node1&#45;&gt;Node10</title>
<path fill="none" stroke="#191970" d="M98.6026,-280.2409C119.9199,-258.1688 160.948,-218.8098 203,-195.5 206.8833,-193.3474 210.9716,-191.3419 215.1631,-189.4785"/>
<polygon fill="#191970" stroke="#191970" points="216.566,-192.6859 224.4646,-185.6245 213.8865,-186.219 216.566,-192.6859"/>
</g>
<!-- Node11 -->
<g id="node11" class="node">
<title>Node11</title>
<g id="a_node11"><a xlink:href="../../d7/d8a/classDicomPhantomZSliceHeader.html#ad3ea64a71319a38400b37900a22a07cb" target="_top" xlink:title="DicomPhantomZSliceHeader\l::GetVoxelHalfX">
<polygon fill="none" stroke="#000000" points="203,-102.5 203,-134.5 365,-134.5 365,-102.5 203,-102.5"/>
<text text-anchor="start" x="211" y="-121.5" font-family="FreeSans" font-size="10.00" fill="#000000">DicomPhantomZSliceHeader</text>
<text text-anchor="middle" x="284" y="-109.5" font-family="FreeSans" font-size="10.00" fill="#000000">::GetVoxelHalfX</text>
</a>
</g>
</g>
<!-- Node1&#45;&gt;Node11 -->
<g id="edge10" class="edge">
<title>Node1&#45;&gt;Node11</title>
<path fill="none" stroke="#191970" d="M91.9853,-280.134C108.899,-249.0962 149.8084,-181.4843 203,-144.5 205.7284,-142.603 208.6028,-140.8385 211.5767,-139.1981"/>
<polygon fill="#191970" stroke="#191970" points="213.3517,-142.2244 220.7495,-134.6399 210.2366,-135.9557 213.3517,-142.2244"/>
</g>
<!-- Node12 -->
<g id="node12" class="node">
<title>Node12</title>
<g id="a_node12"><a xlink:href="../../d7/d8a/classDicomPhantomZSliceHeader.html#a3ecb045f0bf04ff5ddca9a41edd27a0e" target="_top" xlink:title="DicomPhantomZSliceHeader\l::GetVoxelHalfY">
<polygon fill="none" stroke="#000000" points="203,-51.5 203,-83.5 365,-83.5 365,-51.5 203,-51.5"/>
<text text-anchor="start" x="211" y="-70.5" font-family="FreeSans" font-size="10.00" fill="#000000">DicomPhantomZSliceHeader</text>
<text text-anchor="middle" x="284" y="-58.5" font-family="FreeSans" font-size="10.00" fill="#000000">::GetVoxelHalfY</text>
</a>
</g>
</g>
<!-- Node1&#45;&gt;Node12 -->
<g id="edge11" class="edge">
<title>Node1&#45;&gt;Node12</title>
<path fill="none" stroke="#191970" d="M88.5025,-280.3857C101.1978,-242.1396 138.3292,-145.2295 203,-93.5 205.2706,-91.6837 207.6711,-89.9931 210.168,-88.4194"/>
<polygon fill="#191970" stroke="#191970" points="211.9496,-91.4333 218.9802,-83.5073 208.5414,-85.319 211.9496,-91.4333"/>
</g>
<!-- Node13 -->
<g id="node13" class="node">
<title>Node13</title>
<g id="a_node13"><a xlink:href="../../d7/d8a/classDicomPhantomZSliceHeader.html#a33673b982b5c6266c3059d549ea76732" target="_top" xlink:title="DicomPhantomZSliceHeader\l::GetVoxelHalfZ">
<polygon fill="none" stroke="#000000" points="203,-.5 203,-32.5 365,-32.5 365,-.5 203,-.5"/>
<text text-anchor="start" x="211" y="-19.5" font-family="FreeSans" font-size="10.00" fill="#000000">DicomPhantomZSliceHeader</text>
<text text-anchor="middle" x="284" y="-7.5" font-family="FreeSans" font-size="10.00" fill="#000000">::GetVoxelHalfZ</text>
</a>
</g>
</g>
<!-- Node1&#45;&gt;Node13 -->
<g id="edge12" class="edge">
<title>Node1&#45;&gt;Node13</title>
<path fill="none" stroke="#191970" d="M86.4314,-280.4377C95.4039,-235.8735 126.6642,-109.563 203,-42.5 204.7579,-40.9556 206.6086,-39.5028 208.5336,-38.1361"/>
<polygon fill="#191970" stroke="#191970" points="210.7152,-40.9031 217.3946,-32.679 207.0444,-34.9428 210.7152,-40.9031"/>
</g>
</g>
</svg>
