<?xml version="1.0" encoding="UTF-8" standalone="no"?>
<!DOCTYPE svg PUBLIC "-//W3C//DTD SVG 1.1//EN"
 "http://www.w3.org/Graphics/SVG/1.1/DTD/svg11.dtd">
<!-- Generated by graphviz version 2.40.1 (20161225.0304)
 -->
<!-- Title: G4SPSEneDistribution::GenerateCPowEnergies Pages: 1 -->
<svg width="921pt" height="653pt"
 viewBox="0.00 0.00 921.00 653.00" xmlns="http://www.w3.org/2000/svg" xmlns:xlink="http://www.w3.org/1999/xlink">
<g id="graph0" class="graph" transform="scale(1 1) rotate(0) translate(4 649)">
<title>G4SPSEneDistribution::GenerateCPowEnergies</title>
<!-- Node1 -->
<g id="node1" class="node">
<title>Node1</title>
<polygon fill="#bfbfbf" stroke="#000000" points="0,-484.5 0,-516.5 141,-516.5 141,-484.5 0,-484.5"/>
<text text-anchor="start" x="8" y="-503.5" font-family="FreeSans" font-size="10.00" fill="#000000">G4SPSEneDistribution</text>
<text text-anchor="middle" x="70.5" y="-491.5" font-family="FreeSans" font-size="10.00" fill="#000000">::GenerateCPowEnergies</text>
</g>
<!-- Node2 -->
<g id="node2" class="node">
<title>Node2</title>
<g id="a_node2"><a xlink:href="../../d1/d55/classG4SPSEneDistribution.html#a24a4a37333a45156133c3084e3fa7ec9" target="_top" xlink:title="G4SPSEneDistribution\l::GenerateOne">
<polygon fill="none" stroke="#000000" points="177,-484.5 177,-516.5 304,-516.5 304,-484.5 177,-484.5"/>
<text text-anchor="start" x="185" y="-503.5" font-family="FreeSans" font-size="10.00" fill="#000000">G4SPSEneDistribution</text>
<text text-anchor="middle" x="240.5" y="-491.5" font-family="FreeSans" font-size="10.00" fill="#000000">::GenerateOne</text>
</a>
</g>
</g>
<!-- Node1&#45;&gt;Node2 -->
<g id="edge1" class="edge">
<title>Node1&#45;&gt;Node2</title>
<path fill="none" stroke="#191970" d="M151.1946,-500.5C159.8194,-500.5 168.5035,-500.5 176.8904,-500.5"/>
<polygon fill="#191970" stroke="#191970" points="151.1185,-497.0001 141.1184,-500.5 151.1184,-504.0001 151.1185,-497.0001"/>
</g>
<!-- Node3 -->
<g id="node3" class="node">
<title>Node3</title>
<g id="a_node3"><a xlink:href="../../d9/d88/classG4SingleParticleSource.html#a5e6c4baa7ec17c5e117f5877d5ec9fa9" target="_top" xlink:title="G4SingleParticleSource\l::GeneratePrimaryVertex">
<polygon fill="none" stroke="#000000" points="340,-484.5 340,-516.5 481,-516.5 481,-484.5 340,-484.5"/>
<text text-anchor="start" x="348" y="-503.5" font-family="FreeSans" font-size="10.00" fill="#000000">G4SingleParticleSource</text>
<text text-anchor="middle" x="410.5" y="-491.5" font-family="FreeSans" font-size="10.00" fill="#000000">::GeneratePrimaryVertex</text>
</a>
</g>
</g>
<!-- Node2&#45;&gt;Node3 -->
<g id="edge2" class="edge">
<title>Node2&#45;&gt;Node3</title>
<path fill="none" stroke="#191970" d="M314.453,-500.5C322.8669,-500.5 331.4277,-500.5 339.798,-500.5"/>
<polygon fill="#191970" stroke="#191970" points="314.2854,-497.0001 304.2854,-500.5 314.2854,-504.0001 314.2854,-497.0001"/>
</g>
<!-- Node4 -->
<g id="node4" class="node">
<title>Node4</title>
<g id="a_node4"><a xlink:href="../../dc/d93/classG4AdjointPrimaryGenerator.html#a7b685604fbcf7f8265ee3e91146ed628" target="_top" xlink:title="G4AdjointPrimaryGenerator\l::GenerateAdjointPrimaryVertex">
<polygon fill="none" stroke="#000000" points="517,-535.5 517,-567.5 694,-567.5 694,-535.5 517,-535.5"/>
<text text-anchor="start" x="525" y="-554.5" font-family="FreeSans" font-size="10.00" fill="#000000">G4AdjointPrimaryGenerator</text>
<text text-anchor="middle" x="605.5" y="-542.5" font-family="FreeSans" font-size="10.00" fill="#000000">::GenerateAdjointPrimaryVertex</text>
</a>
</g>
</g>
<!-- Node3&#45;&gt;Node4 -->
<g id="edge3" class="edge">
<title>Node3&#45;&gt;Node4</title>
<path fill="none" stroke="#191970" d="M481.8011,-519.148C502.2118,-524.4862 524.277,-530.2571 544.0423,-535.4264"/>
<polygon fill="#191970" stroke="#191970" points="482.4918,-515.711 471.9316,-516.5667 480.7205,-522.4832 482.4918,-515.711"/>
</g>
<!-- Node5 -->
<g id="node5" class="node">
<title>Node5</title>
<g id="a_node5"><a xlink:href="../../dc/d93/classG4AdjointPrimaryGenerator.html#a8a91cf18718187801f85d9fde599bda0" target="_top" xlink:title="G4AdjointPrimaryGenerator\l::GenerateFwdPrimaryVertex">
<polygon fill="none" stroke="#000000" points="524.5,-484.5 524.5,-516.5 686.5,-516.5 686.5,-484.5 524.5,-484.5"/>
<text text-anchor="start" x="532.5" y="-503.5" font-family="FreeSans" font-size="10.00" fill="#000000">G4AdjointPrimaryGenerator</text>
<text text-anchor="middle" x="605.5" y="-491.5" font-family="FreeSans" font-size="10.00" fill="#000000">::GenerateFwdPrimaryVertex</text>
</a>
</g>
</g>
<!-- Node3&#45;&gt;Node5 -->
<g id="edge4" class="edge">
<title>Node3&#45;&gt;Node5</title>
<path fill="none" stroke="#191970" d="M491.1777,-500.5C502.1777,-500.5 513.4723,-500.5 524.4783,-500.5"/>
<polygon fill="#191970" stroke="#191970" points="491.1752,-497.0001 481.1752,-500.5 491.1751,-504.0001 491.1752,-497.0001"/>
</g>
<!-- Node7 -->
<g id="node7" class="node">
<title>Node7</title>
<g id="a_node7"><a xlink:href="../../d0/d8e/classG4GeneralParticleSource.html#a3bad822716e610498134bd9ad9c4738b" target="_top" xlink:title="G4GeneralParticleSource\l::GeneratePrimaryVertex">
<polygon fill="none" stroke="#000000" points="534.5,-306.5 534.5,-338.5 676.5,-338.5 676.5,-306.5 534.5,-306.5"/>
<text text-anchor="start" x="542.5" y="-325.5" font-family="FreeSans" font-size="10.00" fill="#000000">G4GeneralParticleSource</text>
<text text-anchor="middle" x="605.5" y="-313.5" font-family="FreeSans" font-size="10.00" fill="#000000">::GeneratePrimaryVertex</text>
</a>
</g>
</g>
<!-- Node3&#45;&gt;Node7 -->
<g id="edge6" class="edge">
<title>Node3&#45;&gt;Node7</title>
<path fill="none" stroke="#191970" d="M435.6362,-477.5552C475.6734,-441.0084 552.9509,-370.4679 587.7505,-338.7021"/>
<polygon fill="#191970" stroke="#191970" points="433.1749,-475.0629 428.1489,-484.3897 437.8942,-480.2329 433.1749,-475.0629"/>
</g>
<!-- Node6 -->
<g id="node6" class="node">
<title>Node6</title>
<g id="a_node6"><a xlink:href="../../d4/d34/classG4AdjointPrimaryGeneratorAction.html#a159749d1cb5a47a017be08d70c26ff0f" target="_top" xlink:title="G4AdjointPrimaryGenerator\lAction::GeneratePrimaries">
<polygon fill="none" stroke="#000000" points="743,-612.5 743,-644.5 900,-644.5 900,-612.5 743,-612.5"/>
<text text-anchor="start" x="751" y="-631.5" font-family="FreeSans" font-size="10.00" fill="#000000">G4AdjointPrimaryGenerator</text>
<text text-anchor="middle" x="821.5" y="-619.5" font-family="FreeSans" font-size="10.00" fill="#000000">Action::GeneratePrimaries</text>
</a>
</g>
</g>
<!-- Node5&#45;&gt;Node6 -->
<g id="edge5" class="edge">
<title>Node5&#45;&gt;Node6</title>
<path fill="none" stroke="#191970" d="M687.8061,-521.755C689.9618,-523.2318 692.0335,-524.8111 694,-526.5 722.659,-551.1134 701.1081,-579.1604 730,-603.5 734.0302,-606.8952 738.4825,-609.8321 743.1884,-612.3725"/>
<polygon fill="#191970" stroke="#191970" points="689.497,-518.688 679.1197,-516.5521 685.9001,-524.6932 689.497,-518.688"/>
</g>
<!-- Node8 -->
<g id="node8" class="node">
<title>Node8</title>
<g id="a_node8"><a xlink:href="../../d3/df8/classGammaKnifePrimaryGeneratorAction.html#a7e3141006347cdf1d345f2a9ed5b6483" target="_top" xlink:title="GammaKnifePrimaryGenerator\lAction::GeneratePrimaries">
<polygon fill="none" stroke="#000000" points="735,-561.5 735,-593.5 908,-593.5 908,-561.5 735,-561.5"/>
<text text-anchor="start" x="743" y="-580.5" font-family="FreeSans" font-size="10.00" fill="#000000">GammaKnifePrimaryGenerator</text>
<text text-anchor="middle" x="821.5" y="-568.5" font-family="FreeSans" font-size="10.00" fill="#000000">Action::GeneratePrimaries</text>
</a>
</g>
</g>
<!-- Node7&#45;&gt;Node8 -->
<g id="edge7" class="edge">
<title>Node7&#45;&gt;Node8</title>
<path fill="none" stroke="#191970" d="M620.7537,-347.3215C638.9555,-377.2826 669.9456,-429.3943 694,-475.5 711.4743,-508.9934 701.1081,-528.1604 730,-552.5 734.0302,-555.8952 738.4825,-558.8321 743.1884,-561.3725"/>
<polygon fill="#191970" stroke="#191970" points="623.7313,-345.4818 615.5373,-338.7655 617.7546,-349.1257 623.7313,-345.4818"/>
</g>
<!-- Node9 -->
<g id="node9" class="node">
<title>Node9</title>
<g id="a_node9"><a xlink:href="../../d8/d5f/classExGflashPrimaryGeneratorAction.html#a378041d12781f3aade9c6e9be9e4c064" target="_top" xlink:title="ExGflashPrimaryGenerator\lAction::GeneratePrimaries">
<polygon fill="none" stroke="#000000" points="745.5,-510.5 745.5,-542.5 897.5,-542.5 897.5,-510.5 745.5,-510.5"/>
<text text-anchor="start" x="753.5" y="-529.5" font-family="FreeSans" font-size="10.00" fill="#000000">ExGflashPrimaryGenerator</text>
<text text-anchor="middle" x="821.5" y="-517.5" font-family="FreeSans" font-size="10.00" fill="#000000">Action::GeneratePrimaries</text>
</a>
</g>
</g>
<!-- Node7&#45;&gt;Node9 -->
<g id="edge8" class="edge">
<title>Node7&#45;&gt;Node9</title>
<path fill="none" stroke="#191970" d="M616.275,-348.075C634.0818,-387.1877 673.3956,-461.5242 730,-501.5 734.8425,-504.9199 740.1325,-507.8724 745.6483,-510.4212"/>
<polygon fill="#191970" stroke="#191970" points="619.373,-346.4272 612.1165,-338.7074 612.9751,-349.2674 619.373,-346.4272"/>
</g>
<!-- Node10 -->
<g id="node10" class="node">
<title>Node10</title>
<g id="a_node10"><a xlink:href="../../db/da5/classElectronPrimaryGeneratorAction.html#aeb5d0186c5a741174b99cfd02b1a5589" target="_top" xlink:title="ElectronPrimaryGenerator\lAction::GeneratePrimaries">
<polygon fill="none" stroke="#000000" points="746.5,-459.5 746.5,-491.5 896.5,-491.5 896.5,-459.5 746.5,-459.5"/>
<text text-anchor="start" x="754.5" y="-478.5" font-family="FreeSans" font-size="10.00" fill="#000000">ElectronPrimaryGenerator</text>
<text text-anchor="middle" x="821.5" y="-466.5" font-family="FreeSans" font-size="10.00" fill="#000000">Action::GeneratePrimaries</text>
</a>
</g>
</g>
<!-- Node7&#45;&gt;Node10 -->
<g id="edge9" class="edge">
<title>Node7&#45;&gt;Node10</title>
<path fill="none" stroke="#191970" d="M622.6997,-346.873C644.4248,-375.8532 684.5093,-423.6634 730,-450.5 735.8152,-453.9306 742.1148,-456.9036 748.5943,-459.4776"/>
<polygon fill="#191970" stroke="#191970" points="625.3059,-344.5093 616.5611,-338.5278 619.6671,-348.6571 625.3059,-344.5093"/>
</g>
<!-- Node11 -->
<g id="node11" class="node">
<title>Node11</title>
<g id="a_node11"><a xlink:href="../../dd/d8c/classSTCyclotronPrimaryGeneratorAction.html#a2e6aa43d9e7a1835a954fd2fc9695f53" target="_top" xlink:title="STCyclotronPrimaryGenerator\lAction::GeneratePrimaries">
<polygon fill="none" stroke="#000000" points="738,-408.5 738,-440.5 905,-440.5 905,-408.5 738,-408.5"/>
<text text-anchor="start" x="746" y="-427.5" font-family="FreeSans" font-size="10.00" fill="#000000">STCyclotronPrimaryGenerator</text>
<text text-anchor="middle" x="821.5" y="-415.5" font-family="FreeSans" font-size="10.00" fill="#000000">Action::GeneratePrimaries</text>
</a>
</g>
</g>
<!-- Node7&#45;&gt;Node11 -->
<g id="edge10" class="edge">
<title>Node7&#45;&gt;Node11</title>
<path fill="none" stroke="#191970" d="M635.8279,-344.7125C660.2344,-361.7162 695.96,-384.6929 730,-399.5 737.5504,-402.7844 745.6419,-405.7395 753.7751,-408.3686"/>
<polygon fill="#191970" stroke="#191970" points="637.5605,-341.6514 627.3722,-338.7445 633.524,-347.3704 637.5605,-341.6514"/>
</g>
<!-- Node12 -->
<g id="node12" class="node">
<title>Node12</title>
<g id="a_node12"><a xlink:href="../../d4/d20/classHadrontherapyPrimaryGeneratorAction.html#af907ca21052fe930d642b84ffcff5cbc" target="_top" xlink:title="HadrontherapyPrimaryGenerator\lAction::GeneratePrimaries">
<polygon fill="none" stroke="#000000" points="730,-357.5 730,-389.5 913,-389.5 913,-357.5 730,-357.5"/>
<text text-anchor="start" x="738" y="-376.5" font-family="FreeSans" font-size="10.00" fill="#000000">HadrontherapyPrimaryGenerator</text>
<text text-anchor="middle" x="821.5" y="-364.5" font-family="FreeSans" font-size="10.00" fill="#000000">Action::GeneratePrimaries</text>
</a>
</g>
</g>
<!-- Node7&#45;&gt;Node12 -->
<g id="edge11" class="edge">
<title>Node7&#45;&gt;Node12</title>
<path fill="none" stroke="#191970" d="M683.5558,-340.9298C706.4214,-346.3287 731.2313,-352.1866 753.4238,-357.4264"/>
<polygon fill="#191970" stroke="#191970" points="684.084,-337.4584 673.5473,-338.5667 682.4754,-344.2711 684.084,-337.4584"/>
</g>
<!-- Node13 -->
<g id="node13" class="node">
<title>Node13</title>
<g id="a_node13"><a xlink:href="../../d1/d9e/classGpsPrimaryGeneratorAction.html#ab33078dccaf5e79ff91a4941f2d1d0c5" target="_top" xlink:title="GpsPrimaryGeneratorAction\l::GeneratePrimaries">
<polygon fill="none" stroke="#000000" points="743,-306.5 743,-338.5 900,-338.5 900,-306.5 743,-306.5"/>
<text text-anchor="start" x="751" y="-325.5" font-family="FreeSans" font-size="10.00" fill="#000000">GpsPrimaryGeneratorAction</text>
<text text-anchor="middle" x="821.5" y="-313.5" font-family="FreeSans" font-size="10.00" fill="#000000">::GeneratePrimaries</text>
</a>
</g>
</g>
<!-- Node7&#45;&gt;Node13 -->
<g id="edge12" class="edge">
<title>Node7&#45;&gt;Node13</title>
<path fill="none" stroke="#191970" d="M686.6415,-322.5C705.0834,-322.5 724.641,-322.5 742.9719,-322.5"/>
<polygon fill="#191970" stroke="#191970" points="686.5257,-319.0001 676.5256,-322.5 686.5256,-326.0001 686.5257,-319.0001"/>
</g>
<!-- Node14 -->
<g id="node14" class="node">
<title>Node14</title>
<g id="a_node14"><a xlink:href="../../dc/d36/classWLSPrimaryGeneratorAction.html#aa00ccd425aec3109b7189c01e012ee44" target="_top" xlink:title="WLSPrimaryGeneratorAction\l::GeneratePrimaries">
<polygon fill="none" stroke="#000000" points="741.5,-255.5 741.5,-287.5 901.5,-287.5 901.5,-255.5 741.5,-255.5"/>
<text text-anchor="start" x="749.5" y="-274.5" font-family="FreeSans" font-size="10.00" fill="#000000">WLSPrimaryGeneratorAction</text>
<text text-anchor="middle" x="821.5" y="-262.5" font-family="FreeSans" font-size="10.00" fill="#000000">::GeneratePrimaries</text>
</a>
</g>
</g>
<!-- Node7&#45;&gt;Node14 -->
<g id="edge13" class="edge">
<title>Node7&#45;&gt;Node14</title>
<path fill="none" stroke="#191970" d="M683.5558,-304.0702C706.4214,-298.6713 731.2313,-292.8134 753.4238,-287.5736"/>
<polygon fill="#191970" stroke="#191970" points="682.4754,-300.7289 673.5473,-306.4333 684.084,-307.5416 682.4754,-300.7289"/>
</g>
<!-- Node15 -->
<g id="node15" class="node">
<title>Node15</title>
<g id="a_node15"><a xlink:href="../../d0/dbb/classRMC01PrimaryGeneratorAction.html#a7455e9d469e79da4d0b7f20307a47311" target="_top" xlink:title="RMC01PrimaryGeneratorAction\l::GeneratePrimaries">
<polygon fill="none" stroke="#000000" points="735,-204.5 735,-236.5 908,-236.5 908,-204.5 735,-204.5"/>
<text text-anchor="start" x="743" y="-223.5" font-family="FreeSans" font-size="10.00" fill="#000000">RMC01PrimaryGeneratorAction</text>
<text text-anchor="middle" x="821.5" y="-211.5" font-family="FreeSans" font-size="10.00" fill="#000000">::GeneratePrimaries</text>
</a>
</g>
</g>
<!-- Node7&#45;&gt;Node15 -->
<g id="edge14" class="edge">
<title>Node7&#45;&gt;Node15</title>
<path fill="none" stroke="#191970" d="M636.3615,-300.387C660.8023,-283.6996 696.3203,-261.2368 730,-246.5 738.4724,-242.7928 747.6166,-239.4634 756.7332,-236.5238"/>
<polygon fill="#191970" stroke="#191970" points="634.1177,-297.6831 627.8821,-306.2486 638.0982,-303.4412 634.1177,-297.6831"/>
</g>
<!-- Node16 -->
<g id="node16" class="node">
<title>Node16</title>
<g id="a_node16"><a xlink:href="../../df/d11/classUltraPrimaryGeneratorAction.html#a510c25b2e4a768c58d3e7ebd14dfdaa8" target="_top" xlink:title="UltraPrimaryGeneratorAction\l::GeneratePrimaries">
<polygon fill="none" stroke="#000000" points="740.5,-153.5 740.5,-185.5 902.5,-185.5 902.5,-153.5 740.5,-153.5"/>
<text text-anchor="start" x="748.5" y="-172.5" font-family="FreeSans" font-size="10.00" fill="#000000">UltraPrimaryGeneratorAction</text>
<text text-anchor="middle" x="821.5" y="-160.5" font-family="FreeSans" font-size="10.00" fill="#000000">::GeneratePrimaries</text>
</a>
</g>
</g>
<!-- Node7&#45;&gt;Node16 -->
<g id="edge15" class="edge">
<title>Node7&#45;&gt;Node16</title>
<path fill="none" stroke="#191970" d="M623.1385,-297.9398C645.03,-269.2229 685.0155,-222.2269 730,-195.5 736.3889,-191.7041 743.3589,-188.4394 750.5084,-185.6363"/>
<polygon fill="#191970" stroke="#191970" points="620.1295,-296.1191 616.9399,-306.2224 625.7338,-300.3133 620.1295,-296.1191"/>
</g>
<!-- Node17 -->
<g id="node17" class="node">
<title>Node17</title>
<g id="a_node17"><a xlink:href="../../d4/dca/classdoiPETPrimaryGeneratorAction.html#aaa920c00a1a449e72156642475d2f468" target="_top" xlink:title="doiPETPrimaryGeneratorAction\l::GeneratePrimaries">
<polygon fill="none" stroke="#000000" points="735.5,-102.5 735.5,-134.5 907.5,-134.5 907.5,-102.5 735.5,-102.5"/>
<text text-anchor="start" x="743.5" y="-121.5" font-family="FreeSans" font-size="10.00" fill="#000000">doiPETPrimaryGeneratorAction</text>
<text text-anchor="middle" x="821.5" y="-109.5" font-family="FreeSans" font-size="10.00" fill="#000000">::GeneratePrimaries</text>
</a>
</g>
</g>
<!-- Node7&#45;&gt;Node17 -->
<g id="edge16" class="edge">
<title>Node7&#45;&gt;Node17</title>
<path fill="none" stroke="#191970" d="M616.4779,-296.8896C634.4562,-258.0226 673.8779,-184.4519 730,-144.5 735.3814,-140.6691 741.315,-137.4006 747.4969,-134.6123"/>
<polygon fill="#191970" stroke="#191970" points="613.0963,-295.8744 612.1752,-306.4291 619.4772,-298.7524 613.0963,-295.8744"/>
</g>
<!-- Node18 -->
<g id="node18" class="node">
<title>Node18</title>
<g id="a_node18"><a xlink:href="../../dd/de2/classGammaRayTelPrimaryGeneratorAction.html#a0ebeecb66d212b820a300b5de074de92" target="_top" xlink:title="GammaRayTelPrimaryGenerator\lAction::GeneratePrimaries">
<polygon fill="none" stroke="#000000" points="731.5,-51.5 731.5,-83.5 911.5,-83.5 911.5,-51.5 731.5,-51.5"/>
<text text-anchor="start" x="739.5" y="-70.5" font-family="FreeSans" font-size="10.00" fill="#000000">GammaRayTelPrimaryGenerator</text>
<text text-anchor="middle" x="821.5" y="-58.5" font-family="FreeSans" font-size="10.00" fill="#000000">Action::GeneratePrimaries</text>
</a>
</g>
</g>
<!-- Node7&#45;&gt;Node18 -->
<g id="edge17" class="edge">
<title>Node7&#45;&gt;Node18</title>
<path fill="none" stroke="#191970" d="M612.338,-296.5368C626.2309,-248.9416 662.3307,-147.6466 730,-93.5 734.7709,-89.6825 740.0742,-86.4253 745.6561,-83.6463"/>
<polygon fill="#191970" stroke="#191970" points="608.9105,-295.7959 609.5629,-306.3706 615.6474,-297.6971 608.9105,-295.7959"/>
</g>
<!-- Node19 -->
<g id="node19" class="node">
<title>Node19</title>
<g id="a_node19"><a xlink:href="../../df/dd8/classXrayTelPrimaryGeneratorAction.html#a20668ece5ade2bdea96731471304c2ce" target="_top" xlink:title="XrayTelPrimaryGeneratorAction\l::GeneratePrimaries">
<polygon fill="none" stroke="#000000" points="734.5,-.5 734.5,-32.5 908.5,-32.5 908.5,-.5 734.5,-.5"/>
<text text-anchor="start" x="742.5" y="-19.5" font-family="FreeSans" font-size="10.00" fill="#000000">XrayTelPrimaryGeneratorAction</text>
<text text-anchor="middle" x="821.5" y="-7.5" font-family="FreeSans" font-size="10.00" fill="#000000">::GeneratePrimaries</text>
</a>
</g>
</g>
<!-- Node7&#45;&gt;Node19 -->
<g id="edge18" class="edge">
<title>Node7&#45;&gt;Node19</title>
<path fill="none" stroke="#191970" d="M609.5523,-296.3679C619.5297,-241.0314 650.5115,-111.4653 730,-42.5 734.3658,-38.7121 739.2482,-35.474 744.4243,-32.7062"/>
<polygon fill="#191970" stroke="#191970" points="606.0717,-295.9574 607.8288,-306.4055 612.9707,-297.1421 606.0717,-295.9574"/>
</g>
</g>
</svg>
