<?xml version="1.0" encoding="UTF-8" standalone="no"?>
<!DOCTYPE svg PUBLIC "-//W3C//DTD SVG 1.1//EN"
 "http://www.w3.org/Graphics/SVG/1.1/DTD/svg11.dtd">
<!-- Generated by graphviz version 2.40.1 (20161225.0304)
 -->
<!-- Title: geant4/tree/geant4&#45;10.6&#45;release/source/processes/biasing/importance/include/G4ImportanceConfigurator.hh Pages: 1 -->
<svg width="399pt" height="350pt"
 viewBox="0.00 0.00 398.50 350.00" xmlns="http://www.w3.org/2000/svg" xmlns:xlink="http://www.w3.org/1999/xlink">
<g id="graph0" class="graph" transform="scale(1 1) rotate(0) translate(4 346)">
<title>geant4/tree/geant4&#45;10.6&#45;release/source/processes/biasing/importance/include/G4ImportanceConfigurator.hh</title>
<!-- Node1 -->
<g id="node1" class="node">
<title>Node1</title>
<polygon fill="#bfbfbf" stroke="#000000" points="0,-285.5 0,-341.5 211,-341.5 211,-285.5 0,-285.5"/>
<text text-anchor="start" x="8" y="-328.5" font-family="FreeSans" font-size="10.00" fill="#000000">geant4/tree/geant4</text>
<text text-anchor="start" x="8" y="-316.5" font-family="FreeSans" font-size="10.00" fill="#000000">&#45;10.6&#45;release/source</text>
<text text-anchor="start" x="8" y="-304.5" font-family="FreeSans" font-size="10.00" fill="#000000">/processes/biasing/importance</text>
<text text-anchor="middle" x="105.5" y="-292.5" font-family="FreeSans" font-size="10.00" fill="#000000">/include/G4ImportanceConfigurator.hh</text>
</g>
<!-- Node2 -->
<g id="node2" class="node">
<title>Node2</title>
<g id="a_node2"><a xlink:href="../../de/d29/G4Types_8hh.html" target="_top" xlink:title="G4Types.hh">
<polygon fill="none" stroke="#000000" points="93,-114.5 93,-134.5 168,-134.5 168,-114.5 93,-114.5"/>
<text text-anchor="middle" x="130.5" y="-121.5" font-family="FreeSans" font-size="10.00" fill="#000000">G4Types.hh</text>
</a>
</g>
</g>
<!-- Node1&#45;&gt;Node2 -->
<g id="edge1" class="edge">
<title>Node1&#45;&gt;Node2</title>
<path fill="none" stroke="#191970" d="M66.6805,-285.3779C55.7938,-275.2637 45.3431,-262.8804 39.5,-249 35.8788,-240.3978 38.5334,-237.2831 39.5,-228 42.1811,-202.2506 36.3916,-192.0228 51.5,-171 61.6527,-156.8729 77.5391,-146.3321 92.4114,-138.8906"/>
<polygon fill="#191970" stroke="#191970" points="93.9019,-142.0574 101.4801,-134.6533 90.9387,-135.7155 93.9019,-142.0574"/>
</g>
<!-- Node6 -->
<g id="node6" class="node">
<title>Node6</title>
<g id="a_node6"><a xlink:href="../../dc/dd7/G4ProcessPlacer_8hh.html" target="_top" xlink:title="G4ProcessPlacer.hh">
<polygon fill="none" stroke="#000000" points="48.5,-228.5 48.5,-248.5 162.5,-248.5 162.5,-228.5 48.5,-228.5"/>
<text text-anchor="middle" x="105.5" y="-235.5" font-family="FreeSans" font-size="10.00" fill="#000000">G4ProcessPlacer.hh</text>
</a>
</g>
</g>
<!-- Node1&#45;&gt;Node6 -->
<g id="edge6" class="edge">
<title>Node1&#45;&gt;Node6</title>
<path fill="none" stroke="#191970" d="M105.5,-285.1457C105.5,-276.3619 105.5,-266.8652 105.5,-258.7476"/>
<polygon fill="#191970" stroke="#191970" points="109.0001,-258.7295 105.5,-248.7296 102.0001,-258.7296 109.0001,-258.7295"/>
</g>
<!-- Node9 -->
<g id="node9" class="node">
<title>Node9</title>
<g id="a_node9"><a xlink:href="../../dd/d2a/G4VSamplerConfigurator_8hh.html" target="_top" xlink:title="G4VSamplerConfigurator.hh">
<polygon fill="none" stroke="#000000" points="232.5,-228.5 232.5,-248.5 390.5,-248.5 390.5,-228.5 232.5,-228.5"/>
<text text-anchor="middle" x="311.5" y="-235.5" font-family="FreeSans" font-size="10.00" fill="#000000">G4VSamplerConfigurator.hh</text>
</a>
</g>
</g>
<!-- Node1&#45;&gt;Node9 -->
<g id="edge11" class="edge">
<title>Node1&#45;&gt;Node9</title>
<path fill="none" stroke="#191970" d="M182.4997,-285.4661C213.8758,-274.0428 248.6961,-261.3655 274.2445,-252.0639"/>
<polygon fill="#191970" stroke="#191970" points="275.6995,-255.259 283.8987,-248.549 273.3047,-248.6813 275.6995,-255.259"/>
</g>
<!-- Node3 -->
<g id="node3" class="node">
<title>Node3</title>
<polygon fill="none" stroke="#bfbfbf" points="81,-.5 81,-20.5 192,-20.5 192,-.5 81,-.5"/>
<text text-anchor="middle" x="136.5" y="-7.5" font-family="FreeSans" font-size="10.00" fill="#000000">G4GlobalConfig.hh</text>
</g>
<!-- Node2&#45;&gt;Node3 -->
<g id="edge2" class="edge">
<title>Node2&#45;&gt;Node3</title>
<path fill="none" stroke="#191970" d="M117.8383,-114.4369C103.375,-101.6318 82.7682,-78.579 91.5,-57 96.1459,-45.5186 105.1363,-35.3021 113.8676,-27.3904"/>
<polygon fill="#191970" stroke="#191970" points="116.2921,-29.9242 121.6812,-20.8023 111.7799,-24.5726 116.2921,-29.9242"/>
</g>
<!-- Node4 -->
<g id="node4" class="node">
<title>Node4</title>
<polygon fill="none" stroke="#bfbfbf" points="101,-57.5 101,-77.5 160,-77.5 160,-57.5 101,-57.5"/>
<text text-anchor="middle" x="130.5" y="-64.5" font-family="FreeSans" font-size="10.00" fill="#000000">complex</text>
</g>
<!-- Node2&#45;&gt;Node4 -->
<g id="edge3" class="edge">
<title>Node2&#45;&gt;Node4</title>
<path fill="none" stroke="#191970" d="M130.5,-114.3095C130.5,-106.9335 130.5,-96.72 130.5,-87.715"/>
<polygon fill="#191970" stroke="#191970" points="134.0001,-87.6022 130.5,-77.6022 127.0001,-87.6023 134.0001,-87.6022"/>
</g>
<!-- Node5 -->
<g id="node5" class="node">
<title>Node5</title>
<g id="a_node5"><a xlink:href="../../d0/d00/tls_8hh.html" target="_top" xlink:title="tls.hh">
<polygon fill="none" stroke="#000000" points="178.5,-57.5 178.5,-77.5 222.5,-77.5 222.5,-57.5 178.5,-57.5"/>
<text text-anchor="middle" x="200.5" y="-64.5" font-family="FreeSans" font-size="10.00" fill="#000000">tls.hh</text>
</a>
</g>
</g>
<!-- Node2&#45;&gt;Node5 -->
<g id="edge4" class="edge">
<title>Node2&#45;&gt;Node5</title>
<path fill="none" stroke="#191970" d="M143.0146,-114.3095C153.3669,-105.8798 168.2706,-93.7439 180.3087,-83.9415"/>
<polygon fill="#191970" stroke="#191970" points="182.5494,-86.6306 188.0937,-77.6022 178.1294,-81.2025 182.5494,-86.6306"/>
</g>
<!-- Node5&#45;&gt;Node3 -->
<g id="edge5" class="edge">
<title>Node5&#45;&gt;Node3</title>
<path fill="none" stroke="#191970" d="M189.0581,-57.3095C179.7751,-49.0419 166.4894,-37.2093 155.5985,-27.5096"/>
<polygon fill="#191970" stroke="#191970" points="157.6384,-24.6395 147.8429,-20.6022 152.9827,-29.8668 157.6384,-24.6395"/>
</g>
<!-- Node6&#45;&gt;Node2 -->
<g id="edge7" class="edge">
<title>Node6&#45;&gt;Node2</title>
<path fill="none" stroke="#191970" d="M89.8458,-228.434C72.0078,-215.6259 46.7533,-192.5699 58.5,-171 66.1327,-156.9845 80.0071,-146.551 93.5537,-139.1581"/>
<polygon fill="#191970" stroke="#191970" points="95.4308,-142.1322 102.799,-134.5191 92.2914,-135.8756 95.4308,-142.1322"/>
</g>
<!-- Node7 -->
<g id="node7" class="node">
<title>Node7</title>
<polygon fill="none" stroke="#bfbfbf" points="67.5,-171.5 67.5,-191.5 143.5,-191.5 143.5,-171.5 67.5,-171.5"/>
<text text-anchor="middle" x="105.5" y="-178.5" font-family="FreeSans" font-size="10.00" fill="#000000">G4String.hh</text>
</g>
<!-- Node6&#45;&gt;Node7 -->
<g id="edge8" class="edge">
<title>Node6&#45;&gt;Node7</title>
<path fill="none" stroke="#191970" d="M105.5,-228.3095C105.5,-220.9335 105.5,-210.72 105.5,-201.715"/>
<polygon fill="#191970" stroke="#191970" points="109.0001,-201.6022 105.5,-191.6022 102.0001,-201.6023 109.0001,-201.6022"/>
</g>
<!-- Node8 -->
<g id="node8" class="node">
<title>Node8</title>
<g id="a_node8"><a xlink:href="../../d4/da3/G4VProcessPlacer_8hh.html" target="_top" xlink:title="G4VProcessPlacer.hh">
<polygon fill="none" stroke="#000000" points="162,-171.5 162,-191.5 283,-191.5 283,-171.5 162,-171.5"/>
<text text-anchor="middle" x="222.5" y="-178.5" font-family="FreeSans" font-size="10.00" fill="#000000">G4VProcessPlacer.hh</text>
</a>
</g>
</g>
<!-- Node6&#45;&gt;Node8 -->
<g id="edge9" class="edge">
<title>Node6&#45;&gt;Node8</title>
<path fill="none" stroke="#191970" d="M126.1479,-228.4408C144.5801,-219.461 171.7983,-206.2008 192.6088,-196.0624"/>
<polygon fill="#191970" stroke="#191970" points="194.2079,-199.1766 201.6649,-191.6504 191.1421,-192.8837 194.2079,-199.1766"/>
</g>
<!-- Node8&#45;&gt;Node2 -->
<g id="edge10" class="edge">
<title>Node8&#45;&gt;Node2</title>
<path fill="none" stroke="#191970" d="M206.0522,-171.3095C192.0538,-162.6366 171.7235,-150.0407 155.6776,-140.0992"/>
<polygon fill="#191970" stroke="#191970" points="157.1494,-136.8938 146.8054,-134.6022 153.4627,-142.8442 157.1494,-136.8938"/>
</g>
<!-- Node9&#45;&gt;Node2 -->
<g id="edge12" class="edge">
<title>Node9&#45;&gt;Node2</title>
<path fill="none" stroke="#191970" d="M311.3859,-228.284C310.6561,-213.5758 307.11,-186.5028 291.5,-171 275.4806,-155.0905 219.7089,-141.3804 178.2736,-133.0505"/>
<polygon fill="#191970" stroke="#191970" points="178.834,-129.5938 168.347,-131.1015 177.4853,-136.4626 178.834,-129.5938"/>
</g>
<!-- Node10 -->
<g id="node10" class="node">
<title>Node10</title>
<polygon fill="none" stroke="#bfbfbf" points="340,-171.5 340,-191.5 389,-191.5 389,-171.5 340,-171.5"/>
<text text-anchor="middle" x="364.5" y="-178.5" font-family="FreeSans" font-size="10.00" fill="#000000">vector</text>
</g>
<!-- Node9&#45;&gt;Node10 -->
<g id="edge13" class="edge">
<title>Node9&#45;&gt;Node10</title>
<path fill="none" stroke="#191970" d="M320.9753,-228.3095C328.5121,-220.204 339.2349,-208.672 348.1513,-199.0826"/>
<polygon fill="#191970" stroke="#191970" points="350.8604,-201.3089 355.1067,-191.6022 345.734,-196.5423 350.8604,-201.3089"/>
</g>
</g>
</svg>
