<?xml version="1.0" encoding="UTF-8" standalone="no"?>
<!DOCTYPE svg PUBLIC "-//W3C//DTD SVG 1.1//EN"
 "http://www.w3.org/Graphics/SVG/1.1/DTD/svg11.dtd">
<!-- Generated by graphviz version 2.40.1 (20161225.0304)
 -->
<!-- Title: H02MuonSD::Initialize Pages: 1 -->
<svg width="846pt" height="68pt"
 viewBox="0.00 0.00 846.00 68.00" xmlns="http://www.w3.org/2000/svg" xmlns:xlink="http://www.w3.org/1999/xlink">
<g id="graph0" class="graph" transform="scale(1 1) rotate(0) translate(4 64)">
<title>H02MuonSD::Initialize</title>
<!-- Node1 -->
<g id="node1" class="node">
<title>Node1</title>
<polygon fill="#bfbfbf" stroke="#000000" points="0,-19.5 0,-39.5 128,-39.5 128,-19.5 0,-19.5"/>
<text text-anchor="middle" x="64" y="-26.5" font-family="FreeSans" font-size="10.00" fill="#000000">H02MuonSD::Initialize</text>
</g>
<!-- Node2 -->
<g id="node2" class="node">
<title>Node2</title>
<g id="a_node2"><a xlink:href="../../df/dbc/classG4VSensitiveDetector.html#a446282e29fc4e8cd4508c1207b17b598" target="_top" xlink:title="G4VSensitiveDetector\l::GetCollectionID">
<polygon fill="none" stroke="#000000" points="164,-13.5 164,-45.5 292,-45.5 292,-13.5 164,-13.5"/>
<text text-anchor="start" x="172" y="-32.5" font-family="FreeSans" font-size="10.00" fill="#000000">G4VSensitiveDetector</text>
<text text-anchor="middle" x="228" y="-20.5" font-family="FreeSans" font-size="10.00" fill="#000000">::GetCollectionID</text>
</a>
</g>
</g>
<!-- Node1&#45;&gt;Node2 -->
<g id="edge1" class="edge">
<title>Node1&#45;&gt;Node2</title>
<path fill="none" stroke="#191970" d="M128.3464,-29.5C136.6401,-29.5 145.1868,-29.5 153.6248,-29.5"/>
<polygon fill="#191970" stroke="#191970" points="153.8392,-33.0001 163.8391,-29.5 153.8391,-26.0001 153.8392,-33.0001"/>
</g>
<!-- Node3 -->
<g id="node3" class="node">
<title>Node3</title>
<g id="a_node3"><a xlink:href="../../d9/d6b/classG4SDManager.html#a9b1b726ac4340092a45f16aea25b241e" target="_top" xlink:title="G4SDManager::GetCollectionID">
<polygon fill="none" stroke="#000000" points="328,-39.5 328,-59.5 502,-59.5 502,-39.5 328,-39.5"/>
<text text-anchor="middle" x="415" y="-46.5" font-family="FreeSans" font-size="10.00" fill="#000000">G4SDManager::GetCollectionID</text>
</a>
</g>
</g>
<!-- Node2&#45;&gt;Node3 -->
<g id="edge2" class="edge">
<title>Node2&#45;&gt;Node3</title>
<path fill="none" stroke="#191970" d="M292.0932,-36.3549C300.3763,-37.2408 309.0022,-38.1633 317.6721,-39.0906"/>
<polygon fill="#191970" stroke="#191970" points="317.5366,-42.596 327.8521,-40.1794 318.2811,-35.6357 317.5366,-42.596"/>
</g>
<!-- Node6 -->
<g id="node6" class="node">
<title>Node6</title>
<g id="a_node6"><a xlink:href="../../d9/d6b/classG4SDManager.html#a08beb9db9dbec2cae46d06717f6369f7" target="_top" xlink:title="G4SDManager::GetSDMpointer">
<polygon fill="none" stroke="#000000" points="328.5,-.5 328.5,-20.5 501.5,-20.5 501.5,-.5 328.5,-.5"/>
<text text-anchor="middle" x="415" y="-7.5" font-family="FreeSans" font-size="10.00" fill="#000000">G4SDManager::GetSDMpointer</text>
</a>
</g>
</g>
<!-- Node2&#45;&gt;Node6 -->
<g id="edge5" class="edge">
<title>Node2&#45;&gt;Node6</title>
<path fill="none" stroke="#191970" d="M292.0932,-22.9879C300.5431,-22.1293 309.3499,-21.2345 318.1961,-20.3357"/>
<polygon fill="#191970" stroke="#191970" points="318.5887,-23.8139 328.1836,-19.3209 317.881,-16.8498 318.5887,-23.8139"/>
</g>
<!-- Node4 -->
<g id="node4" class="node">
<title>Node4</title>
<g id="a_node4"><a xlink:href="../../de/dd7/classG4HCtable.html#abb4b13f5c296512f00406935f619435c" target="_top" xlink:title="G4HCtable::GetCollectionID">
<polygon fill="none" stroke="#000000" points="544.5,-39.5 544.5,-59.5 700.5,-59.5 700.5,-39.5 544.5,-39.5"/>
<text text-anchor="middle" x="622.5" y="-46.5" font-family="FreeSans" font-size="10.00" fill="#000000">G4HCtable::GetCollectionID</text>
</a>
</g>
</g>
<!-- Node3&#45;&gt;Node4 -->
<g id="edge3" class="edge">
<title>Node3&#45;&gt;Node4</title>
<path fill="none" stroke="#191970" d="M502.0968,-49.5C512.6867,-49.5 523.5143,-49.5 534.1226,-49.5"/>
<polygon fill="#191970" stroke="#191970" points="534.2114,-53.0001 544.2114,-49.5 534.2114,-46.0001 534.2114,-53.0001"/>
</g>
<!-- Node5 -->
<g id="node5" class="node">
<title>Node5</title>
<g id="a_node5"><a xlink:href="../../d5/d72/classG4String.html#acf651813ef2b99ae348f378717100d6c" target="_top" xlink:title="G4String::index">
<polygon fill="none" stroke="#000000" points="743,-39.5 743,-59.5 838,-59.5 838,-39.5 743,-39.5"/>
<text text-anchor="middle" x="790.5" y="-46.5" font-family="FreeSans" font-size="10.00" fill="#000000">G4String::index</text>
</a>
</g>
</g>
<!-- Node4&#45;&gt;Node5 -->
<g id="edge4" class="edge">
<title>Node4&#45;&gt;Node5</title>
<path fill="none" stroke="#191970" d="M700.5981,-49.5C711.3947,-49.5 722.3221,-49.5 732.6619,-49.5"/>
<polygon fill="#191970" stroke="#191970" points="732.7793,-53.0001 742.7793,-49.5 732.7792,-46.0001 732.7793,-53.0001"/>
</g>
<!-- Node7 -->
<g id="node7" class="node">
<title>Node7</title>
<g id="a_node7"><a xlink:href="../../d9/d6b/classG4SDManager.html#a56303fb2a382670fba72f15beff2834c" target="_top" xlink:title="G4SDManager::G4SDManager">
<polygon fill="none" stroke="#000000" points="538,-.5 538,-20.5 707,-20.5 707,-.5 538,-.5"/>
<text text-anchor="middle" x="622.5" y="-7.5" font-family="FreeSans" font-size="10.00" fill="#000000">G4SDManager::G4SDManager</text>
</a>
</g>
</g>
<!-- Node6&#45;&gt;Node7 -->
<g id="edge6" class="edge">
<title>Node6&#45;&gt;Node7</title>
<path fill="none" stroke="#191970" d="M501.7964,-10.5C510.3372,-10.5 519.0357,-10.5 527.6516,-10.5"/>
<polygon fill="#191970" stroke="#191970" points="527.7137,-14.0001 537.7137,-10.5 527.7136,-7.0001 527.7137,-14.0001"/>
</g>
</g>
</svg>
