<?xml version="1.0" encoding="UTF-8" standalone="no"?>
<!DOCTYPE svg PUBLIC "-//W3C//DTD SVG 1.1//EN"
 "http://www.w3.org/Graphics/SVG/1.1/DTD/svg11.dtd">
<!-- Generated by graphviz version 2.40.1 (20161225.0304)
 -->
<!-- Title: G4VUserPhysicsList::Construct Pages: 1 -->
<svg width="1904pt" height="777pt"
 viewBox="0.00 0.00 1904.00 777.44" xmlns="http://www.w3.org/2000/svg" xmlns:xlink="http://www.w3.org/1999/xlink">
<g id="graph0" class="graph" transform="scale(1 1) rotate(0) translate(4 773.4386)">
<title>G4VUserPhysicsList::Construct</title>
<!-- Node1 -->
<g id="node1" class="node">
<title>Node1</title>
<polygon fill="#bfbfbf" stroke="#000000" points="0,-432.9386 0,-464.9386 116,-464.9386 116,-432.9386 0,-432.9386"/>
<text text-anchor="start" x="8" y="-451.9386" font-family="FreeSans" font-size="10.00" fill="#000000">G4VUserPhysicsList</text>
<text text-anchor="middle" x="58" y="-439.9386" font-family="FreeSans" font-size="10.00" fill="#000000">::Construct</text>
</g>
<!-- Node2 -->
<g id="node2" class="node">
<title>Node2</title>
<g id="a_node2"><a xlink:href="../../de/d51/classG4RunManagerKernel.html#a73fdfbd654e5c9417e2ea14340dc0658" target="_top" xlink:title="G4RunManagerKernel\l::InitializePhysics">
<polygon fill="none" stroke="#000000" points="152,-432.9386 152,-464.9386 278,-464.9386 278,-432.9386 152,-432.9386"/>
<text text-anchor="start" x="160" y="-451.9386" font-family="FreeSans" font-size="10.00" fill="#000000">G4RunManagerKernel</text>
<text text-anchor="middle" x="215" y="-439.9386" font-family="FreeSans" font-size="10.00" fill="#000000">::InitializePhysics</text>
</a>
</g>
</g>
<!-- Node1&#45;&gt;Node2 -->
<g id="edge1" class="edge">
<title>Node1&#45;&gt;Node2</title>
<path fill="none" stroke="#191970" d="M126.0206,-448.9386C134.6327,-448.9386 143.416,-448.9386 151.9461,-448.9386"/>
<polygon fill="#191970" stroke="#191970" points="126.015,-445.4387 116.0149,-448.9386 126.0149,-452.4387 126.015,-445.4387"/>
</g>
<!-- Node3 -->
<g id="node3" class="node">
<title>Node3</title>
<g id="a_node3"><a xlink:href="../../d8/db0/classG4ErrorRunManagerHelper.html#ac3fa52e7d5805ff6b4ca87971ad3a975" target="_top" xlink:title="G4ErrorRunManagerHelper\l::InitializePhysics">
<polygon fill="none" stroke="#000000" points="314,-503.9386 314,-535.9386 467,-535.9386 467,-503.9386 314,-503.9386"/>
<text text-anchor="start" x="322" y="-522.9386" font-family="FreeSans" font-size="10.00" fill="#000000">G4ErrorRunManagerHelper</text>
<text text-anchor="middle" x="390.5" y="-510.9386" font-family="FreeSans" font-size="10.00" fill="#000000">::InitializePhysics</text>
</a>
</g>
</g>
<!-- Node2&#45;&gt;Node3 -->
<g id="edge2" class="edge">
<title>Node2&#45;&gt;Node3</title>
<path fill="none" stroke="#191970" d="M264.2179,-468.8502C291.5779,-479.9189 325.1739,-493.5104 350.8339,-503.8914"/>
<polygon fill="#191970" stroke="#191970" points="265.4064,-465.5555 254.8237,-465.0496 262.7812,-472.0446 265.4064,-465.5555"/>
</g>
<!-- Node30 -->
<g id="node30" class="node">
<title>Node30</title>
<g id="a_node30"><a xlink:href="../../d4/daa/classG4RunManager.html#a5a985609123c8cfa520f51baa5f2341f" target="_top" xlink:title="G4RunManager::Initialize\lPhysics">
<polygon fill="none" stroke="#000000" points="319,-407.9386 319,-439.9386 462,-439.9386 462,-407.9386 319,-407.9386"/>
<text text-anchor="start" x="327" y="-426.9386" font-family="FreeSans" font-size="10.00" fill="#000000">G4RunManager::Initialize</text>
<text text-anchor="middle" x="390.5" y="-414.9386" font-family="FreeSans" font-size="10.00" fill="#000000">Physics</text>
</a>
</g>
</g>
<!-- Node2&#45;&gt;Node30 -->
<g id="edge29" class="edge">
<title>Node2&#45;&gt;Node30</title>
<path fill="none" stroke="#191970" d="M288.3554,-438.4892C298.459,-437.0499 308.8244,-435.5733 318.896,-434.1387"/>
<polygon fill="#191970" stroke="#191970" points="287.766,-435.0377 278.3595,-439.9131 288.7532,-441.9677 287.766,-435.0377"/>
</g>
<!-- Node4 -->
<g id="node4" class="node">
<title>Node4</title>
<g id="a_node4"><a xlink:href="../../dd/d88/classG4ErrorPropagatorManager.html#aa0e56394c96f87ecdd15709e9de6c8f7" target="_top" xlink:title="G4ErrorPropagatorManager\l::InitGeant4e">
<polygon fill="none" stroke="#000000" points="503,-526.9386 503,-558.9386 658,-558.9386 658,-526.9386 503,-526.9386"/>
<text text-anchor="start" x="511" y="-545.9386" font-family="FreeSans" font-size="10.00" fill="#000000">G4ErrorPropagatorManager</text>
<text text-anchor="middle" x="580.5" y="-533.9386" font-family="FreeSans" font-size="10.00" fill="#000000">::InitGeant4e</text>
</a>
</g>
</g>
<!-- Node3&#45;&gt;Node4 -->
<g id="edge3" class="edge">
<title>Node3&#45;&gt;Node4</title>
<path fill="none" stroke="#191970" d="M477.2142,-530.4356C485.7666,-531.4709 494.4093,-532.5171 502.8622,-533.5404"/>
<polygon fill="#191970" stroke="#191970" points="477.5808,-526.9545 467.2326,-529.2273 476.7395,-533.9038 477.5808,-526.9545"/>
</g>
<!-- Node5 -->
<g id="node5" class="node">
<title>Node5</title>
<g id="a_node5"><a xlink:href="../../d3/dd6/errprop_8cc.html#a98b1050f09da390896f964fb7a892391" target="_top" xlink:title="Initialize">
<polygon fill="none" stroke="#000000" points="750,-578.9386 750,-598.9386 808,-598.9386 808,-578.9386 750,-578.9386"/>
<text text-anchor="middle" x="779" y="-585.9386" font-family="FreeSans" font-size="10.00" fill="#000000">Initialize</text>
</a>
</g>
</g>
<!-- Node4&#45;&gt;Node5 -->
<g id="edge4" class="edge">
<title>Node4&#45;&gt;Node5</title>
<path fill="none" stroke="#191970" d="M659.4326,-561.2303C691.3158,-568.6189 726.1215,-576.6847 749.9151,-582.1986"/>
<polygon fill="#191970" stroke="#191970" points="660.179,-557.8106 649.647,-558.9626 658.5987,-564.6299 660.179,-557.8106"/>
</g>
<!-- Node6 -->
<g id="node6" class="node">
<title>Node6</title>
<g id="a_node6"><a xlink:href="../../d9/df8/classPHG4GDMLUtility.html#afcf39153171628039001dd7d5f34ee48" target="_top" xlink:title="same as above but use default Geant functions as much as possible">
<polygon fill="none" stroke="#000000" points="930,-595.9386 930,-627.9386 1070,-627.9386 1070,-595.9386 930,-595.9386"/>
<text text-anchor="start" x="938" y="-614.9386" font-family="FreeSans" font-size="10.00" fill="#000000">PHG4GDMLUtility::Dump</text>
<text text-anchor="middle" x="1000" y="-602.9386" font-family="FreeSans" font-size="10.00" fill="#000000">_G4_GDML</text>
</a>
</g>
</g>
<!-- Node5&#45;&gt;Node6 -->
<g id="edge5" class="edge">
<title>Node5&#45;&gt;Node6</title>
<path fill="none" stroke="#191970" d="M818.6728,-593.0675C849.4492,-596.2705 892.8954,-600.792 929.545,-604.6062"/>
<polygon fill="#191970" stroke="#191970" points="818.6557,-589.5469 808.3471,-591.9929 817.931,-596.5093 818.6557,-589.5469"/>
</g>
<!-- Node8 -->
<g id="node8" class="node">
<title>Node8</title>
<g id="a_node8"><a xlink:href="../../d9/df8/classPHG4GDMLUtility.html#adb03ec38807279cb5abaf38987c5a73f" target="_top" xlink:title="save the current Geant4 geometry to GDML file. Reading PHG4GDMLConfig from topNode">
<polygon fill="none" stroke="#000000" points="912.5,-556.9386 912.5,-576.9386 1087.5,-576.9386 1087.5,-556.9386 912.5,-556.9386"/>
<text text-anchor="middle" x="1000" y="-563.9386" font-family="FreeSans" font-size="10.00" fill="#000000">PHG4GDMLUtility::Dump_GDML</text>
</a>
</g>
</g>
<!-- Node5&#45;&gt;Node8 -->
<g id="edge7" class="edge">
<title>Node5&#45;&gt;Node8</title>
<path fill="none" stroke="#191970" d="M818.5682,-584.9997C844.6277,-582.4056 879.8038,-578.9039 912.2457,-575.6744"/>
<polygon fill="#191970" stroke="#191970" points="817.9512,-581.5438 808.3471,-586.0172 818.6446,-588.5093 817.9512,-581.5438"/>
</g>
<!-- Node23 -->
<g id="node23" class="node">
<title>Node23</title>
<g id="a_node23"><a xlink:href="../../d5/dc4/classG4GDMLParser.html#acfbec4923024be46b2d44e60d22429d4" target="_top" xlink:title="G4GDMLParser::G4GDMLParser">
<polygon fill="none" stroke="#000000" points="913,-478.9386 913,-498.9386 1087,-498.9386 1087,-478.9386 913,-478.9386"/>
<text text-anchor="middle" x="1000" y="-485.9386" font-family="FreeSans" font-size="10.00" fill="#000000">G4GDMLParser::G4GDMLParser</text>
</a>
</g>
</g>
<!-- Node5&#45;&gt;Node23 -->
<g id="edge22" class="edge">
<title>Node5&#45;&gt;Node23</title>
<path fill="none" stroke="#191970" d="M798.7277,-572.365C821.6117,-554.018 861.1838,-524.93 900,-508.9386 909.9039,-504.8585 920.7118,-501.5898 931.4432,-498.9769"/>
<polygon fill="#191970" stroke="#191970" points="796.3487,-569.7888 790.8107,-578.821 800.7726,-575.2137 796.3487,-569.7888"/>
</g>
<!-- Node24 -->
<g id="node24" class="node">
<title>Node24</title>
<g id="a_node24"><a xlink:href="../../df/dda/gammaknife_8cc.html#a3c04138a5bfe5d72780bb7e82a18e627" target="_top" xlink:title="main">
<polygon fill="none" stroke="#000000" points="979.5,-748.9386 979.5,-768.9386 1020.5,-768.9386 1020.5,-748.9386 979.5,-748.9386"/>
<text text-anchor="middle" x="1000" y="-755.9386" font-family="FreeSans" font-size="10.00" fill="#000000">main</text>
</a>
</g>
</g>
<!-- Node5&#45;&gt;Node24 -->
<g id="edge23" class="edge">
<title>Node5&#45;&gt;Node24</title>
<path fill="none" stroke="#191970" d="M788.4828,-608.089C805.7803,-640.8577 845.7355,-707.2998 900,-739.9386 924.5324,-754.6944 958.0612,-758.3835 979.3762,-759.1032"/>
<polygon fill="#191970" stroke="#191970" points="791.5346,-606.3702 783.8512,-599.0752 785.3084,-609.5694 791.5346,-606.3702"/>
</g>
<!-- Node25 -->
<g id="node25" class="node">
<title>Node25</title>
<g id="a_node25"><a xlink:href="../../d2/d3b/classHepMCG4AsciiReaderMessenger.html#ab7cbaf09ff5ed12bb49d8be46467b37c" target="_top" xlink:title="HepMCG4AsciiReaderMessenger\l::SetNewValue">
<polygon fill="none" stroke="#000000" points="909.5,-697.9386 909.5,-729.9386 1090.5,-729.9386 1090.5,-697.9386 909.5,-697.9386"/>
<text text-anchor="start" x="917.5" y="-716.9386" font-family="FreeSans" font-size="10.00" fill="#000000">HepMCG4AsciiReaderMessenger</text>
<text text-anchor="middle" x="1000" y="-704.9386" font-family="FreeSans" font-size="10.00" fill="#000000">::SetNewValue</text>
</a>
</g>
</g>
<!-- Node5&#45;&gt;Node25 -->
<g id="edge24" class="edge">
<title>Node5&#45;&gt;Node25</title>
<path fill="none" stroke="#191970" d="M795.3864,-606.6914C817.1404,-629.1876 857.7555,-667.5956 900,-688.9386 906.7884,-692.3683 914.0789,-695.3482 921.5178,-697.9332"/>
<polygon fill="#191970" stroke="#191970" points="797.6812,-604.0253 788.257,-599.1843 792.6054,-608.8457 797.6812,-604.0253"/>
</g>
<!-- Node26 -->
<g id="node26" class="node">
<title>Node26</title>
<g id="a_node26"><a xlink:href="../../db/df7/classHadrontherapyDetectorConstruction.html#a1a59dea0a6ce7b6f77a8bd16c6f08e77" target="_top" xlink:title="HadrontherapyDetectorConstruction\l::UpdateGeometry">
<polygon fill="none" stroke="#000000" points="900,-646.9386 900,-678.9386 1100,-678.9386 1100,-646.9386 900,-646.9386"/>
<text text-anchor="start" x="908" y="-665.9386" font-family="FreeSans" font-size="10.00" fill="#000000">HadrontherapyDetectorConstruction</text>
<text text-anchor="middle" x="1000" y="-653.9386" font-family="FreeSans" font-size="10.00" fill="#000000">::UpdateGeometry</text>
</a>
</g>
</g>
<!-- Node5&#45;&gt;Node26 -->
<g id="edge25" class="edge">
<title>Node5&#45;&gt;Node26</title>
<path fill="none" stroke="#191970" d="M810.7689,-603.2272C834.9148,-613.7367 869.1274,-627.8831 900,-637.9386 909.784,-641.1254 920.2177,-644.1419 930.5158,-646.9037"/>
<polygon fill="#191970" stroke="#191970" points="811.9601,-599.9277 801.3969,-599.1105 809.145,-606.3367 811.9601,-599.9277"/>
</g>
<!-- Node28 -->
<g id="node28" class="node">
<title>Node28</title>
<g id="a_node28"><a xlink:href="../../dc/d4b/ml2_8cc.html#a31ac0168d355ebbc2d5292645680a728" target="_top" xlink:title="visio">
<polygon fill="none" stroke="#000000" points="980.5,-517.9386 980.5,-537.9386 1019.5,-537.9386 1019.5,-517.9386 980.5,-517.9386"/>
<text text-anchor="middle" x="1000" y="-524.9386" font-family="FreeSans" font-size="10.00" fill="#000000">visio</text>
</a>
</g>
</g>
<!-- Node5&#45;&gt;Node28 -->
<g id="edge27" class="edge">
<title>Node5&#45;&gt;Node28</title>
<path fill="none" stroke="#191970" d="M815.2915,-575.2694C839.1303,-566.6326 871.1326,-555.6813 900,-547.9386 927.5318,-540.5542 959.9861,-534.5475 980.2818,-531.1064"/>
<polygon fill="#191970" stroke="#191970" points="813.7958,-572.0897 805.6076,-578.8131 816.2014,-578.6634 813.7958,-572.0897"/>
</g>
<!-- Node7 -->
<g id="node7" class="node">
<title>Node7</title>
<g id="a_node7"><a xlink:href="../../d0/d78/classPHG4Reco.html#a3b9a955d6f0e8960df1a6e8ac8303c93" target="_top" xlink:title="PHG4Reco::Dump_G4_GDML">
<polygon fill="none" stroke="#000000" points="1159,-601.9386 1159,-621.9386 1320,-621.9386 1320,-601.9386 1159,-601.9386"/>
<text text-anchor="middle" x="1239.5" y="-608.9386" font-family="FreeSans" font-size="10.00" fill="#000000">PHG4Reco::Dump_G4_GDML</text>
</a>
</g>
</g>
<!-- Node6&#45;&gt;Node7 -->
<g id="edge6" class="edge">
<title>Node6&#45;&gt;Node7</title>
<path fill="none" stroke="#191970" d="M1080.494,-611.9386C1105.6951,-611.9386 1133.5043,-611.9386 1158.7247,-611.9386"/>
<polygon fill="#191970" stroke="#191970" points="1080.2397,-608.4387 1070.2396,-611.9386 1080.2396,-615.4387 1080.2397,-608.4387"/>
</g>
<!-- Node9 -->
<g id="node9" class="node">
<title>Node9</title>
<g id="a_node9"><a xlink:href="../../d0/d78/classPHG4Reco.html#a490f5037508d384c5b60855ef0f7e227" target="_top" xlink:title="PHG4Reco::Dump_GDML">
<polygon fill="none" stroke="#000000" points="1169,-527.9386 1169,-547.9386 1310,-547.9386 1310,-527.9386 1169,-527.9386"/>
<text text-anchor="middle" x="1239.5" y="-534.9386" font-family="FreeSans" font-size="10.00" fill="#000000">PHG4Reco::Dump_GDML</text>
</a>
</g>
</g>
<!-- Node8&#45;&gt;Node9 -->
<g id="edge8" class="edge">
<title>Node8&#45;&gt;Node9</title>
<path fill="none" stroke="#191970" d="M1092.7091,-555.7129C1117.9511,-552.6565 1144.8844,-549.3952 1168.6982,-546.5117"/>
<polygon fill="#191970" stroke="#191970" points="1092.2644,-552.2411 1082.7577,-556.9179 1093.1059,-559.1903 1092.2644,-552.2411"/>
</g>
<!-- Node10 -->
<g id="node10" class="node">
<title>Node10</title>
<g id="a_node10"><a xlink:href="../../d0/d78/classPHG4Reco.html#afb33612dcc374f0614d800dc9480305a" target="_top" xlink:title="PHG4Reco::InitRun">
<polygon fill="none" stroke="#000000" points="1397,-493.9386 1397,-513.9386 1507,-513.9386 1507,-493.9386 1397,-493.9386"/>
<text text-anchor="middle" x="1452" y="-500.9386" font-family="FreeSans" font-size="10.00" fill="#000000">PHG4Reco::InitRun</text>
</a>
</g>
</g>
<!-- Node9&#45;&gt;Node10 -->
<g id="edge9" class="edge">
<title>Node9&#45;&gt;Node10</title>
<path fill="none" stroke="#191970" d="M1312.1351,-526.317C1339.8127,-521.8886 1370.883,-516.9174 1396.6969,-512.7871"/>
<polygon fill="#191970" stroke="#191970" points="1311.4291,-522.8854 1302.1077,-527.9214 1312.5351,-529.7975 1311.4291,-522.8854"/>
</g>
<!-- Node11 -->
<g id="node11" class="node">
<title>Node11</title>
<g id="a_node11"><a xlink:href="../../db/d14/analysis_2blob_2master_2dRICH_2TestImports_2DisplayOn_8C.html#a36f5cc4ebb7cd23dac7e492d5c38fbc0" target="_top" xlink:title="QTGui">
<polygon fill="none" stroke="#000000" points="1613.5,-618.9386 1613.5,-638.9386 1660.5,-638.9386 1660.5,-618.9386 1613.5,-618.9386"/>
<text text-anchor="middle" x="1637" y="-625.9386" font-family="FreeSans" font-size="10.00" fill="#000000">QTGui</text>
</a>
</g>
</g>
<!-- Node10&#45;&gt;Node11 -->
<g id="edge10" class="edge">
<title>Node10&#45;&gt;Node11</title>
<path fill="none" stroke="#191970" d="M1475.345,-519.7123C1513.939,-545.7893 1589.9696,-597.1614 1622.1028,-618.873"/>
<polygon fill="#191970" stroke="#191970" points="1477.072,-516.6552 1466.8266,-513.9566 1473.153,-522.4553 1477.072,-516.6552"/>
</g>
<!-- Node13 -->
<g id="node13" class="node">
<title>Node13</title>
<g id="a_node13"><a xlink:href="../../db/d14/analysis_2blob_2master_2dRICH_2TestImports_2DisplayOn_8C.html#a8ac4d6fb78f920957b354f88d6195f54" target="_top" xlink:title="DisplayOn">
<polygon fill="none" stroke="#000000" points="1603,-512.9386 1603,-532.9386 1671,-532.9386 1671,-512.9386 1603,-512.9386"/>
<text text-anchor="middle" x="1637" y="-519.9386" font-family="FreeSans" font-size="10.00" fill="#000000">DisplayOn</text>
</a>
</g>
</g>
<!-- Node10&#45;&gt;Node13 -->
<g id="edge12" class="edge">
<title>Node10&#45;&gt;Node13</title>
<path fill="none" stroke="#191970" d="M1517.0519,-510.6197C1545.9791,-513.5906 1578.8444,-516.9659 1602.8492,-519.4313"/>
<polygon fill="#191970" stroke="#191970" points="1517.3105,-507.1279 1507.0052,-509.5878 1516.5953,-514.0913 1517.3105,-507.1279"/>
</g>
<!-- Node21 -->
<g id="node21" class="node">
<title>Node21</title>
<g id="a_node21"><a xlink:href="../../d4/dfa/Fun4All__Generator__Display_8C.html#af87924a94b22e18901f0d64805565f09" target="_top" xlink:title="Fun4All_Generator_Display">
<polygon fill="none" stroke="#000000" points="1561,-473.9386 1561,-493.9386 1713,-493.9386 1713,-473.9386 1561,-473.9386"/>
<text text-anchor="middle" x="1637" y="-480.9386" font-family="FreeSans" font-size="10.00" fill="#000000">Fun4All_Generator_Display</text>
</a>
</g>
</g>
<!-- Node10&#45;&gt;Node21 -->
<g id="edge20" class="edge">
<title>Node10&#45;&gt;Node21</title>
<path fill="none" stroke="#191970" d="M1517.1376,-496.8968C1531.3108,-495.3645 1546.4259,-493.7304 1560.9786,-492.1572"/>
<polygon fill="#191970" stroke="#191970" points="1516.5711,-493.4375 1507.0052,-497.9921 1517.3235,-500.397 1516.5711,-493.4375"/>
</g>
<!-- Node22 -->
<g id="node22" class="node">
<title>Node22</title>
<g id="a_node22"><a xlink:href="../../d9/d1d/matscan_8C.html#a98ccbc6135fead542f3c4d1dd6882d63" target="_top" xlink:title="matscan">
<polygon fill="none" stroke="#000000" points="1607.5,-434.9386 1607.5,-454.9386 1666.5,-454.9386 1666.5,-434.9386 1607.5,-434.9386"/>
<text text-anchor="middle" x="1637" y="-441.9386" font-family="FreeSans" font-size="10.00" fill="#000000">matscan</text>
</a>
</g>
</g>
<!-- Node10&#45;&gt;Node22 -->
<g id="edge21" class="edge">
<title>Node10&#45;&gt;Node22</title>
<path fill="none" stroke="#191970" d="M1487.7592,-490.2646C1508.9087,-482.3985 1536.3058,-472.59 1561,-464.9386 1576.1176,-460.2545 1593.1394,-455.709 1607.2357,-452.1381"/>
<polygon fill="#191970" stroke="#191970" points="1486.3531,-487.0538 1478.2165,-493.8395 1488.8088,-493.6089 1486.3531,-487.0538"/>
</g>
<!-- Node12 -->
<g id="node12" class="node">
<title>Node12</title>
<g id="a_node12"><a xlink:href="../../d5/d21/Fun4All__G4__dRICHImport_8C.html#a3a58b6c3d01066a007bf8f28289d1946" target="_top" xlink:title="Fun4All_G4_dRICHImport">
<polygon fill="none" stroke="#000000" points="1751,-664.9386 1751,-684.9386 1894,-684.9386 1894,-664.9386 1751,-664.9386"/>
<text text-anchor="middle" x="1822.5" y="-671.9386" font-family="FreeSans" font-size="10.00" fill="#000000">Fun4All_G4_dRICHImport</text>
</a>
</g>
</g>
<!-- Node11&#45;&gt;Node12 -->
<g id="edge11" class="edge">
<title>Node11&#45;&gt;Node12</title>
<path fill="none" stroke="#191970" d="M1670.8721,-637.3382C1702.2126,-645.11 1748.8444,-656.6736 1782.1108,-664.923"/>
<polygon fill="#191970" stroke="#191970" points="1671.4196,-633.868 1660.8711,-634.8582 1669.7347,-640.6622 1671.4196,-633.868"/>
</g>
<!-- Node14 -->
<g id="node14" class="node">
<title>Node14</title>
<g id="a_node14"><a xlink:href="../../d4/de9/Fun4All__AnaTutorial__sPHENIX_8C.html#a5028836c74f0bebec560d3ab54daa022" target="_top" xlink:title="Fun4All_AnaTutorial\l_sPHENIX">
<polygon fill="none" stroke="#000000" points="1765,-484.9386 1765,-516.9386 1880,-516.9386 1880,-484.9386 1765,-484.9386"/>
<text text-anchor="start" x="1773" y="-503.9386" font-family="FreeSans" font-size="10.00" fill="#000000">Fun4All_AnaTutorial</text>
<text text-anchor="middle" x="1822.5" y="-491.9386" font-family="FreeSans" font-size="10.00" fill="#000000">_sPHENIX</text>
</a>
</g>
</g>
<!-- Node13&#45;&gt;Node14 -->
<g id="edge13" class="edge">
<title>Node13&#45;&gt;Node14</title>
<path fill="none" stroke="#191970" d="M1680.9588,-517.7252C1705.9793,-514.7578 1737.6224,-511.005 1764.6411,-507.8006"/>
<polygon fill="#191970" stroke="#191970" points="1680.5417,-514.2501 1671.0236,-518.9035 1681.3662,-521.2013 1680.5417,-514.2501"/>
</g>
<!-- Node15 -->
<g id="node15" class="node">
<title>Node15</title>
<g id="a_node15"><a xlink:href="../../d6/d14/Fun4All__AnaTutorial__sPHENIX__Jets_8C.html#a61b352bca84476d24b0ff40991b27900" target="_top" xlink:title="Fun4All_AnaTutorial\l_sPHENIX_Jets">
<polygon fill="none" stroke="#000000" points="1765,-433.9386 1765,-465.9386 1880,-465.9386 1880,-433.9386 1765,-433.9386"/>
<text text-anchor="start" x="1773" y="-452.9386" font-family="FreeSans" font-size="10.00" fill="#000000">Fun4All_AnaTutorial</text>
<text text-anchor="middle" x="1822.5" y="-440.9386" font-family="FreeSans" font-size="10.00" fill="#000000">_sPHENIX_Jets</text>
</a>
</g>
</g>
<!-- Node13&#45;&gt;Node15 -->
<g id="edge14" class="edge">
<title>Node13&#45;&gt;Node15</title>
<path fill="none" stroke="#191970" d="M1681.3704,-515.1317C1692.0356,-512.3718 1703.1769,-508.7203 1713,-503.9386 1731.2252,-495.0671 1731.2167,-485.6658 1749,-475.9386 1755.65,-472.3012 1762.9076,-469.0111 1770.189,-466.0902"/>
<polygon fill="#191970" stroke="#191970" points="1680.2697,-511.7957 1671.3495,-517.5124 1681.8878,-518.6062 1680.2697,-511.7957"/>
</g>
<!-- Node16 -->
<g id="node16" class="node">
<title>Node16</title>
<g id="a_node16"><a xlink:href="../../d2/d7e/Fun4All__G4__ECCEModular_8C.html#abfc0f0fda62657d78ec09187a1c5d74a" target="_top" xlink:title="Fun4All_G4_ECCEModular">
<polygon fill="none" stroke="#000000" points="1749.5,-394.9386 1749.5,-414.9386 1895.5,-414.9386 1895.5,-394.9386 1749.5,-394.9386"/>
<text text-anchor="middle" x="1822.5" y="-401.9386" font-family="FreeSans" font-size="10.00" fill="#000000">Fun4All_G4_ECCEModular</text>
</a>
</g>
</g>
<!-- Node13&#45;&gt;Node16 -->
<g id="edge15" class="edge">
<title>Node13&#45;&gt;Node16</title>
<path fill="none" stroke="#191970" d="M1681.1971,-518.8145C1692.5227,-516.0042 1704.0253,-511.4079 1713,-503.9386 1742.6575,-479.2562 1719.5995,-449.9266 1749,-424.9386 1753.8368,-420.8278 1759.4437,-417.5554 1765.362,-414.9515"/>
<polygon fill="#191970" stroke="#191970" points="1680.4405,-515.3968 1671.3578,-520.8517 1681.8598,-522.2514 1680.4405,-515.3968"/>
</g>
<!-- Node17 -->
<g id="node17" class="node">
<title>Node17</title>
<g id="a_node17"><a xlink:href="../../da/d02/Fun4All__G4__EICDetector_8C.html#add9dee08cdb08b59c0b3870bb04994d9" target="_top" xlink:title="Fun4All_G4_EICDetector">
<polygon fill="none" stroke="#000000" points="1753,-355.9386 1753,-375.9386 1892,-375.9386 1892,-355.9386 1753,-355.9386"/>
<text text-anchor="middle" x="1822.5" y="-362.9386" font-family="FreeSans" font-size="10.00" fill="#000000">Fun4All_G4_EICDetector</text>
</a>
</g>
</g>
<!-- Node13&#45;&gt;Node17 -->
<g id="edge16" class="edge">
<title>Node13&#45;&gt;Node17</title>
<path fill="none" stroke="#191970" d="M1681.2607,-519.7242C1692.7912,-516.9377 1704.3827,-512.1261 1713,-503.9386 1752.7498,-466.1713 1709.6432,-424.1154 1749,-385.9386 1753.1766,-381.8873 1758.0888,-378.6377 1763.3603,-376.0341"/>
<polygon fill="#191970" stroke="#191970" points="1680.3632,-516.3333 1671.2198,-521.6856 1681.7053,-523.2035 1680.3632,-516.3333"/>
</g>
<!-- Node18 -->
<g id="node18" class="node">
<title>Node18</title>
<g id="a_node18"><a xlink:href="../../d6/dda/macro_2Fun4All__G4__EICDetector__AnaTutorial_8C.html#a598434aca3dac5cdb0ca67ccc548d865" target="_top" xlink:title="Fun4All_G4_EICDetector\l_AnaTutorial">
<polygon fill="none" stroke="#000000" points="1753,-613.9386 1753,-645.9386 1892,-645.9386 1892,-613.9386 1753,-613.9386"/>
<text text-anchor="start" x="1761" y="-632.9386" font-family="FreeSans" font-size="10.00" fill="#000000">Fun4All_G4_EICDetector</text>
<text text-anchor="middle" x="1822.5" y="-620.9386" font-family="FreeSans" font-size="10.00" fill="#000000">_AnaTutorial</text>
</a>
</g>
</g>
<!-- Node13&#45;&gt;Node18 -->
<g id="edge17" class="edge">
<title>Node13&#45;&gt;Node18</title>
<path fill="none" stroke="#191970" d="M1655.9913,-539.6688C1677.3595,-557.7922 1713.7105,-586.5703 1749,-604.9386 1755.3365,-608.2369 1762.1997,-611.241 1769.0999,-613.9313"/>
<polygon fill="#191970" stroke="#191970" points="1658.1754,-536.9308 1648.3114,-533.064 1653.611,-542.2381 1658.1754,-536.9308"/>
</g>
<!-- Node19 -->
<g id="node19" class="node">
<title>Node19</title>
<g id="a_node19"><a xlink:href="../../d0/d13/Fun4All__G4__sPHENIX_8C.html#a4102cd3e195333de974409428a2e6dae" target="_top" xlink:title="Fun4All_G4_sPHENIX">
<polygon fill="none" stroke="#000000" points="1762,-574.9386 1762,-594.9386 1883,-594.9386 1883,-574.9386 1762,-574.9386"/>
<text text-anchor="middle" x="1822.5" y="-581.9386" font-family="FreeSans" font-size="10.00" fill="#000000">Fun4All_G4_sPHENIX</text>
</a>
</g>
</g>
<!-- Node13&#45;&gt;Node19 -->
<g id="edge18" class="edge">
<title>Node13&#45;&gt;Node19</title>
<path fill="none" stroke="#191970" d="M1670.0267,-536.7553C1692.1467,-545.7262 1722.0435,-557.3106 1749,-565.9386 1759.042,-569.1529 1769.9855,-572.2136 1780.2864,-574.903"/>
<polygon fill="#191970" stroke="#191970" points="1671.3331,-533.5082 1660.7523,-532.9624 1668.6833,-539.9873 1671.3331,-533.5082"/>
</g>
<!-- Node20 -->
<g id="node20" class="node">
<title>Node20</title>
<g id="a_node20"><a xlink:href="../../d5/d9d/Fun4All__photonDispersion_8C.html#ac302dd70db86b0d1047fc47ebab58aef" target="_top" xlink:title="Fun4All_photonDispersion">
<polygon fill="none" stroke="#000000" points="1749,-535.9386 1749,-555.9386 1896,-555.9386 1896,-535.9386 1749,-535.9386"/>
<text text-anchor="middle" x="1822.5" y="-542.9386" font-family="FreeSans" font-size="10.00" fill="#000000">Fun4All_photonDispersion</text>
</a>
</g>
</g>
<!-- Node13&#45;&gt;Node20 -->
<g id="edge19" class="edge">
<title>Node13&#45;&gt;Node20</title>
<path fill="none" stroke="#191970" d="M1681.1645,-528.4146C1701.3631,-530.919 1725.8451,-533.9545 1748.7191,-536.7906"/>
<polygon fill="#191970" stroke="#191970" points="1681.3783,-524.9144 1671.0236,-527.1572 1680.5169,-531.8612 1681.3783,-524.9144"/>
</g>
<!-- Node27 -->
<g id="node27" class="node">
<title>Node27</title>
<g id="a_node27"><a xlink:href="../../db/df7/classHadrontherapyDetectorConstruction.html#aad7e8923e69986c17ebbf1376d480980" target="_top" xlink:title="HadrontherapyDetectorConstruction\l::HadrontherapyDetectorConstruction">
<polygon fill="none" stroke="#000000" points="1136,-646.9386 1136,-678.9386 1343,-678.9386 1343,-646.9386 1136,-646.9386"/>
<text text-anchor="start" x="1144" y="-665.9386" font-family="FreeSans" font-size="10.00" fill="#000000">HadrontherapyDetectorConstruction</text>
<text text-anchor="middle" x="1239.5" y="-653.9386" font-family="FreeSans" font-size="10.00" fill="#000000">::HadrontherapyDetectorConstruction</text>
</a>
</g>
</g>
<!-- Node26&#45;&gt;Node27 -->
<g id="edge26" class="edge">
<title>Node26&#45;&gt;Node27</title>
<path fill="none" stroke="#191970" d="M1110.1832,-662.9386C1118.7375,-662.9386 1127.3573,-662.9386 1135.8665,-662.9386"/>
<polygon fill="#191970" stroke="#191970" points="1110.1819,-659.4387 1100.1819,-662.9386 1110.1818,-666.4387 1110.1819,-659.4387"/>
</g>
<!-- Node29 -->
<g id="node29" class="node">
<title>Node29</title>
<g id="a_node29"><a xlink:href="../../dc/d4b/ml2_8cc.html#a0ddf1224851353fc92bfbff6f499fa97" target="_top" xlink:title="main">
<polygon fill="none" stroke="#000000" points="1219,-420.9386 1219,-440.9386 1260,-440.9386 1260,-420.9386 1219,-420.9386"/>
<text text-anchor="middle" x="1239.5" y="-427.9386" font-family="FreeSans" font-size="10.00" fill="#000000">main</text>
</a>
</g>
</g>
<!-- Node28&#45;&gt;Node29 -->
<g id="edge28" class="edge">
<title>Node28&#45;&gt;Node29</title>
<path fill="none" stroke="#191970" d="M1029.8445,-524.8218C1050.0817,-522.0953 1077.1944,-517.2323 1100,-508.9386 1148.7634,-491.205 1200.7216,-457.7595 1225.1878,-441.0186"/>
<polygon fill="#191970" stroke="#191970" points="1029.154,-521.3807 1019.6644,-526.0923 1030.0209,-528.3268 1029.154,-521.3807"/>
</g>
<!-- Node31 -->
<g id="node31" class="node">
<title>Node31</title>
<g id="a_node31"><a xlink:href="../../d4/daa/classG4RunManager.html#a132930138102eb05d93cf24050d5c25c" target="_top" xlink:title="G4RunManager::Initialize">
<polygon fill="none" stroke="#000000" points="509,-322.9386 509,-342.9386 652,-342.9386 652,-322.9386 509,-322.9386"/>
<text text-anchor="middle" x="580.5" y="-329.9386" font-family="FreeSans" font-size="10.00" fill="#000000">G4RunManager::Initialize</text>
</a>
</g>
</g>
<!-- Node30&#45;&gt;Node31 -->
<g id="edge30" class="edge">
<title>Node30&#45;&gt;Node31</title>
<path fill="none" stroke="#191970" d="M433.116,-403.5278C472.3769,-384.7239 529.0038,-357.6026 559.3671,-343.0602"/>
<polygon fill="#191970" stroke="#191970" points="431.5379,-400.4029 424.0308,-407.8792 434.5616,-406.7161 431.5379,-400.4029"/>
</g>
<!-- Node31&#45;&gt;Node10 -->
<g id="edge50" class="edge">
<title>Node31&#45;&gt;Node10</title>
<path fill="none" stroke="#191970" d="M602.6974,-348.7923C624.7583,-363.7185 660.1064,-385.449 694,-396.9386 825.2158,-441.4197 1245.5005,-484.422 1396.948,-498.8485"/>
<polygon fill="#191970" stroke="#191970" points="604.594,-345.8487 594.3741,-343.0549 600.6211,-351.6121 604.594,-345.8487"/>
</g>
<!-- Node32 -->
<g id="node32" class="node">
<title>Node32</title>
<g id="a_node32"><a xlink:href="../../d4/daa/classG4RunManager.html#a457de55cbcf3c02058b49ca0639c39ef" target="_top" xlink:title="G4RunManager::ConfirmBeam\lOnCondition">
<polygon fill="none" stroke="#000000" points="694,-250.9386 694,-282.9386 864,-282.9386 864,-250.9386 694,-250.9386"/>
<text text-anchor="start" x="702" y="-269.9386" font-family="FreeSans" font-size="10.00" fill="#000000">G4RunManager::ConfirmBeam</text>
<text text-anchor="middle" x="779" y="-257.9386" font-family="FreeSans" font-size="10.00" fill="#000000">OnCondition</text>
</a>
</g>
</g>
<!-- Node31&#45;&gt;Node32 -->
<g id="edge31" class="edge">
<title>Node31&#45;&gt;Node32</title>
<path fill="none" stroke="#191970" d="M620.5,-319.6389C652.3245,-309.0575 696.9694,-294.2133 730.7705,-282.9746"/>
<polygon fill="#191970" stroke="#191970" points="619.0328,-316.4383 610.6479,-322.9147 621.2414,-323.0807 619.0328,-316.4383"/>
</g>
<!-- Node39 -->
<g id="node39" class="node">
<title>Node39</title>
<g id="a_node39"><a xlink:href="../../de/da2/classG4MTRunManagerKernel.html#ae882e6568e1ba24a8506ca216d565031" target="_top" xlink:title="G4MTRunManagerKernel\l::StartThread">
<polygon fill="none" stroke="#000000" points="1381.5,-108.9386 1381.5,-140.9386 1522.5,-140.9386 1522.5,-108.9386 1381.5,-108.9386"/>
<text text-anchor="start" x="1389.5" y="-127.9386" font-family="FreeSans" font-size="10.00" fill="#000000">G4MTRunManagerKernel</text>
<text text-anchor="middle" x="1452" y="-115.9386" font-family="FreeSans" font-size="10.00" fill="#000000">::StartThread</text>
</a>
</g>
</g>
<!-- Node31&#45;&gt;Node39 -->
<g id="edge53" class="edge">
<title>Node31&#45;&gt;Node39</title>
<path fill="none" stroke="#191970" d="M597.3673,-315.7652C618.3155,-295.3179 655.9566,-261.3735 694,-240.9386 875.4144,-143.4926 932.4557,-133.1895 1136,-101.9386 1226.9345,-87.9772 1251.4969,-92.3898 1343,-101.9386 1357.3307,-103.4341 1372.5517,-106.0071 1386.9312,-108.9037"/>
<polygon fill="#191970" stroke="#191970" points="594.8248,-313.3574 590.19,-322.8847 599.7545,-318.3271 594.8248,-313.3574"/>
</g>
<!-- Node40 -->
<g id="node40" class="node">
<title>Node40</title>
<g id="a_node40"><a xlink:href="../../dd/d36/pymodG4run_8cc.html#a40df4755f58bb0bd961be91b7372bd01" target="_top" xlink:title="export_G4RunManager">
<polygon fill="none" stroke="#000000" points="1173,-33.9386 1173,-53.9386 1306,-53.9386 1306,-33.9386 1173,-33.9386"/>
<text text-anchor="middle" x="1239.5" y="-40.9386" font-family="FreeSans" font-size="10.00" fill="#000000">export_G4RunManager</text>
</a>
</g>
</g>
<!-- Node31&#45;&gt;Node40 -->
<g id="edge48" class="edge">
<title>Node31&#45;&gt;Node40</title>
<path fill="none" stroke="#191970" d="M582.2055,-312.6061C587.7087,-261.41 609.8975,-127.1305 694,-68.9386 854.9907,42.4534 1111.1981,-9.5945 1204.2592,-33.8871"/>
<polygon fill="#191970" stroke="#191970" points="578.7056,-312.4363 581.2237,-322.7275 585.6729,-313.1122 578.7056,-312.4363"/>
</g>
<!-- Node42 -->
<g id="node42" class="node">
<title>Node42</title>
<g id="a_node42"><a xlink:href="../../de/d16/classG4MTRunManager.html#a940295ba3e5d03a139c4cee22a9bf95a" target="_top" xlink:title="G4MTRunManager::Initialize">
<polygon fill="none" stroke="#000000" points="1160.5,-381.9386 1160.5,-401.9386 1318.5,-401.9386 1318.5,-381.9386 1160.5,-381.9386"/>
<text text-anchor="middle" x="1239.5" y="-388.9386" font-family="FreeSans" font-size="10.00" fill="#000000">G4MTRunManager::Initialize</text>
</a>
</g>
</g>
<!-- Node31&#45;&gt;Node42 -->
<g id="edge49" class="edge">
<title>Node31&#45;&gt;Node42</title>
<path fill="none" stroke="#191970" d="M611.8903,-346.9121C634.2879,-356.1544 665.3874,-367.5301 694,-372.9386 857.4139,-403.8285 1053.1431,-401.295 1160.08,-396.6472"/>
<polygon fill="#191970" stroke="#191970" points="613.1291,-343.6361 602.5549,-342.9755 610.4092,-350.0861 613.1291,-343.6361"/>
</g>
<!-- Node47 -->
<g id="node47" class="node">
<title>Node47</title>
<g id="a_node47"><a xlink:href="../../d7/dcf/classG4RunMessenger.html#aeef7c7062232da161237e3642a24fbf2" target="_top" xlink:title="G4RunMessenger::SetNewValue">
<polygon fill="none" stroke="#000000" points="1150.5,-342.9386 1150.5,-362.9386 1328.5,-362.9386 1328.5,-342.9386 1150.5,-342.9386"/>
<text text-anchor="middle" x="1239.5" y="-349.9386" font-family="FreeSans" font-size="10.00" fill="#000000">G4RunMessenger::SetNewValue</text>
</a>
</g>
</g>
<!-- Node31&#45;&gt;Node47 -->
<g id="edge52" class="edge">
<title>Node31&#45;&gt;Node47</title>
<path fill="none" stroke="#191970" d="M662.4987,-332.2091C719.119,-331.9552 796.1439,-332.1033 864,-333.9386 962.0389,-336.5904 1074.3447,-342.6744 1150.3993,-347.2483"/>
<polygon fill="#191970" stroke="#191970" points="662.153,-328.7107 652.1707,-332.2609 662.1882,-335.7106 662.153,-328.7107"/>
</g>
<!-- Node48 -->
<g id="node48" class="node">
<title>Node48</title>
<g id="a_node48"><a xlink:href="../../d1/d2b/ChargeExchangeMC_8cc.html#a3c04138a5bfe5d72780bb7e82a18e627" target="_top" xlink:title="main">
<polygon fill="none" stroke="#000000" points="758.5,-342.9386 758.5,-362.9386 799.5,-362.9386 799.5,-342.9386 758.5,-342.9386"/>
<text text-anchor="middle" x="779" y="-349.9386" font-family="FreeSans" font-size="10.00" fill="#000000">main</text>
</a>
</g>
</g>
<!-- Node31&#45;&gt;Node48 -->
<g id="edge51" class="edge">
<title>Node31&#45;&gt;Node48</title>
<path fill="none" stroke="#191970" d="M662.4623,-341.1968C697.5948,-344.7366 735.7092,-348.5769 758.4582,-350.869"/>
<polygon fill="#191970" stroke="#191970" points="662.4636,-337.6793 652.1631,-340.1591 661.7618,-344.644 662.4636,-337.6793"/>
</g>
<!-- Node33 -->
<g id="node33" class="node">
<title>Node33</title>
<g id="a_node33"><a xlink:href="../../d4/daa/classG4RunManager.html#a2e8622295d194ab03d48a9447c22521c" target="_top" xlink:title="G4RunManager::BeamOn">
<polygon fill="none" stroke="#000000" points="928,-255.9386 928,-275.9386 1072,-275.9386 1072,-255.9386 928,-255.9386"/>
<text text-anchor="middle" x="1000" y="-262.9386" font-family="FreeSans" font-size="10.00" fill="#000000">G4RunManager::BeamOn</text>
</a>
</g>
</g>
<!-- Node32&#45;&gt;Node33 -->
<g id="edge32" class="edge">
<title>Node32&#45;&gt;Node33</title>
<path fill="none" stroke="#191970" d="M874.3217,-266.5073C892.2668,-266.4261 910.7563,-266.3425 927.8484,-266.2651"/>
<polygon fill="#191970" stroke="#191970" points="874.1123,-263.0081 864.1282,-266.5535 874.144,-270.0081 874.1123,-263.0081"/>
</g>
<!-- Node33&#45;&gt;Node29 -->
<g id="edge43" class="edge">
<title>Node33&#45;&gt;Node29</title>
<path fill="none" stroke="#191970" d="M1011.7346,-284.9534C1032.5136,-316.8534 1079.009,-380.7156 1136,-411.9386 1162.1159,-426.2465 1196.9349,-430.037 1218.7864,-430.9028"/>
<polygon fill="#191970" stroke="#191970" points="1014.4525,-282.7054 1006.1284,-276.151 1008.5483,-286.4658 1014.4525,-282.7054"/>
</g>
<!-- Node34 -->
<g id="node34" class="node">
<title>Node34</title>
<g id="a_node34"><a xlink:href="../../d2/d11/classGammaKnifeController.html#a9c6d1498cab6c2e2e801760c995ba7aa" target="_top" xlink:title="GammaKnifeController\l::BeamOn">
<polygon fill="none" stroke="#000000" points="1173.5,-291.9386 1173.5,-323.9386 1305.5,-323.9386 1305.5,-291.9386 1173.5,-291.9386"/>
<text text-anchor="start" x="1181.5" y="-310.9386" font-family="FreeSans" font-size="10.00" fill="#000000">GammaKnifeController</text>
<text text-anchor="middle" x="1239.5" y="-298.9386" font-family="FreeSans" font-size="10.00" fill="#000000">::BeamOn</text>
</a>
</g>
</g>
<!-- Node33&#45;&gt;Node34 -->
<g id="edge33" class="edge">
<title>Node33&#45;&gt;Node34</title>
<path fill="none" stroke="#191970" d="M1067.1134,-277.708C1100.244,-283.518 1140.0852,-290.5047 1173.1164,-296.2973"/>
<polygon fill="#191970" stroke="#191970" points="1067.5162,-274.2253 1057.0619,-275.9453 1066.307,-281.1201 1067.5162,-274.2253"/>
</g>
<!-- Node36 -->
<g id="node36" class="node">
<title>Node36</title>
<g id="a_node36"><a xlink:href="../../d6/dfa/classG4BlineTracer.html#a101e07bb8610d82a5fb2b3b0fea44cf7" target="_top" xlink:title="G4BlineTracer::ComputeBlines">
<polygon fill="none" stroke="#000000" points="1154.5,-252.9386 1154.5,-272.9386 1324.5,-272.9386 1324.5,-252.9386 1154.5,-252.9386"/>
<text text-anchor="middle" x="1239.5" y="-259.9386" font-family="FreeSans" font-size="10.00" fill="#000000">G4BlineTracer::ComputeBlines</text>
</a>
</g>
</g>
<!-- Node33&#45;&gt;Node36 -->
<g id="edge35" class="edge">
<title>Node33&#45;&gt;Node36</title>
<path fill="none" stroke="#191970" d="M1082.3598,-264.907C1105.6232,-264.6156 1130.9791,-264.298 1154.4001,-264.0046"/>
<polygon fill="#191970" stroke="#191970" points="1082.138,-261.4094 1072.1827,-265.0345 1082.2258,-268.4089 1082.138,-261.4094"/>
</g>
<!-- Node38 -->
<g id="node38" class="node">
<title>Node38</title>
<g id="a_node38"><a xlink:href="../../d3/db3/classG4WorkerRunManager.html#a7842c4718bc1dac68e953d55f2b8ff41" target="_top" xlink:title="G4WorkerRunManager\l::DoWork">
<polygon fill="none" stroke="#000000" points="1174,-150.9386 1174,-182.9386 1305,-182.9386 1305,-150.9386 1174,-150.9386"/>
<text text-anchor="start" x="1182" y="-169.9386" font-family="FreeSans" font-size="10.00" fill="#000000">G4WorkerRunManager</text>
<text text-anchor="middle" x="1239.5" y="-157.9386" font-family="FreeSans" font-size="10.00" fill="#000000">::DoWork</text>
</a>
</g>
</g>
<!-- Node33&#45;&gt;Node38 -->
<g id="edge37" class="edge">
<title>Node33&#45;&gt;Node38</title>
<path fill="none" stroke="#191970" d="M1023.8433,-250.4553C1050.2978,-233.8846 1094.7139,-207.841 1136,-191.9386 1147.9888,-187.3209 1161.0965,-183.3678 1173.8318,-180.0589"/>
<polygon fill="#191970" stroke="#191970" points="1021.8423,-247.5797 1015.2696,-255.8893 1025.5897,-253.4922 1021.8423,-247.5797"/>
</g>
<!-- Node33&#45;&gt;Node40 -->
<g id="edge39" class="edge">
<title>Node33&#45;&gt;Node40</title>
<path fill="none" stroke="#191970" d="M1012.2405,-247.0036C1034.065,-214.3209 1082.4596,-146.5451 1136,-101.9386 1160.8456,-81.2389 1194.1443,-64.1141 1216.1831,-53.9648"/>
<polygon fill="#191970" stroke="#191970" points="1009.1554,-245.3245 1006.5748,-255.6003 1015.0002,-249.1766 1009.1554,-245.3245"/>
</g>
<!-- Node33&#45;&gt;Node42 -->
<g id="edge41" class="edge">
<title>Node33&#45;&gt;Node42</title>
<path fill="none" stroke="#191970" d="M1016.653,-283.6017C1040.6066,-307.8523 1087.291,-350.9474 1136,-372.9386 1144.0756,-376.5846 1152.8061,-379.5311 1161.6536,-381.9122"/>
<polygon fill="#191970" stroke="#191970" points="1018.9063,-280.8978 1009.4309,-276.1577 1013.8822,-285.7722 1018.9063,-280.8978"/>
</g>
<!-- Node44 -->
<g id="node44" class="node">
<title>Node44</title>
<g id="a_node44"><a xlink:href="../../d0/d78/classPHG4Reco.html#a6d817542976ebb31fc3577289e9e77b0" target="_top" xlink:title="event processing method">
<polygon fill="none" stroke="#000000" points="1165,-111.9386 1165,-131.9386 1314,-131.9386 1314,-111.9386 1165,-111.9386"/>
<text text-anchor="middle" x="1239.5" y="-118.9386" font-family="FreeSans" font-size="10.00" fill="#000000">PHG4Reco::process_event</text>
</a>
</g>
</g>
<!-- Node33&#45;&gt;Node44 -->
<g id="edge44" class="edge">
<title>Node33&#45;&gt;Node44</title>
<path fill="none" stroke="#191970" d="M1013.9918,-247.7096C1036.459,-219.8462 1083.4263,-167.1446 1136,-140.9386 1144.9927,-136.4561 1154.8987,-133.0227 1164.9104,-130.3945"/>
<polygon fill="#191970" stroke="#191970" points="1011.0377,-245.8028 1007.5821,-255.8183 1016.5292,-250.1437 1011.0377,-245.8028"/>
</g>
<!-- Node45 -->
<g id="node45" class="node">
<title>Node45</title>
<g id="a_node45"><a xlink:href="../../db/d16/classG4AdjointSimManager.html#a36783373c75cd61d440156d98abe6473" target="_top" xlink:title="G4AdjointSimManager\l::RunAdjointSimulation">
<polygon fill="none" stroke="#000000" points="1173.5,-201.9386 1173.5,-233.9386 1305.5,-233.9386 1305.5,-201.9386 1173.5,-201.9386"/>
<text text-anchor="start" x="1181.5" y="-220.9386" font-family="FreeSans" font-size="10.00" fill="#000000">G4AdjointSimManager</text>
<text text-anchor="middle" x="1239.5" y="-208.9386" font-family="FreeSans" font-size="10.00" fill="#000000">::RunAdjointSimulation</text>
</a>
</g>
</g>
<!-- Node33&#45;&gt;Node45 -->
<g id="edge45" class="edge">
<title>Node33&#45;&gt;Node45</title>
<path fill="none" stroke="#191970" d="M1059.853,-253.9431C1094.346,-247.0301 1137.7686,-238.3274 1173.282,-231.2099"/>
<polygon fill="#191970" stroke="#191970" points="1059.0327,-250.5378 1049.9155,-255.9347 1060.4084,-257.4013 1059.0327,-250.5378"/>
</g>
<!-- Node33&#45;&gt;Node47 -->
<g id="edge47" class="edge">
<title>Node33&#45;&gt;Node47</title>
<path fill="none" stroke="#191970" d="M1052.3602,-279.0752C1068.2941,-284.2808 1085.4324,-291.161 1100,-299.9386 1118.8504,-311.2968 1116.3705,-323.9874 1136,-333.9386 1143.1697,-337.5733 1150.9323,-340.5199 1158.8722,-342.9075"/>
<polygon fill="#191970" stroke="#191970" points="1053.2167,-275.6763 1042.6284,-276.0484 1051.1377,-282.3605 1053.2167,-275.6763"/>
</g>
<!-- Node35 -->
<g id="node35" class="node">
<title>Node35</title>
<g id="a_node35"><a xlink:href="../../dd/dfe/classGammaKnifeMessenger.html#ab8e6d15aefdd7f105ab498174587a53e" target="_top" xlink:title="GammaKnifeMessenger\l::SetNewValue">
<polygon fill="none" stroke="#000000" points="1383,-297.9386 1383,-329.9386 1521,-329.9386 1521,-297.9386 1383,-297.9386"/>
<text text-anchor="start" x="1391" y="-316.9386" font-family="FreeSans" font-size="10.00" fill="#000000">GammaKnifeMessenger</text>
<text text-anchor="middle" x="1452" y="-304.9386" font-family="FreeSans" font-size="10.00" fill="#000000">::SetNewValue</text>
</a>
</g>
</g>
<!-- Node34&#45;&gt;Node35 -->
<g id="edge34" class="edge">
<title>Node34&#45;&gt;Node35</title>
<path fill="none" stroke="#191970" d="M1315.7867,-310.0926C1337.6127,-310.7089 1361.2757,-311.377 1382.6608,-311.9808"/>
<polygon fill="#191970" stroke="#191970" points="1315.6663,-306.5879 1305.5715,-309.8042 1315.4687,-313.5851 1315.6663,-306.5879"/>
</g>
<!-- Node37 -->
<g id="node37" class="node">
<title>Node37</title>
<g id="a_node37"><a xlink:href="../../d3/da7/classG4BlineTracerMessenger.html#acf8db65272c7e08eadae136c2cb710c9" target="_top" xlink:title="G4BlineTracerMessenger\l::SetNewValue">
<polygon fill="none" stroke="#000000" points="1381,-246.9386 1381,-278.9386 1523,-278.9386 1523,-246.9386 1381,-246.9386"/>
<text text-anchor="start" x="1389" y="-265.9386" font-family="FreeSans" font-size="10.00" fill="#000000">G4BlineTracerMessenger</text>
<text text-anchor="middle" x="1452" y="-253.9386" font-family="FreeSans" font-size="10.00" fill="#000000">::SetNewValue</text>
</a>
</g>
</g>
<!-- Node36&#45;&gt;Node37 -->
<g id="edge36" class="edge">
<title>Node36&#45;&gt;Node37</title>
<path fill="none" stroke="#191970" d="M1334.8015,-262.9386C1350.2516,-262.9386 1366.0138,-262.9386 1380.7627,-262.9386"/>
<polygon fill="#191970" stroke="#191970" points="1334.7075,-259.4387 1324.7075,-262.9386 1334.7074,-266.4387 1334.7075,-259.4387"/>
</g>
<!-- Node38&#45;&gt;Node39 -->
<g id="edge38" class="edge">
<title>Node38&#45;&gt;Node39</title>
<path fill="none" stroke="#191970" d="M1315.348,-151.9475C1336.8572,-147.6963 1360.1813,-143.0863 1381.3686,-138.8987"/>
<polygon fill="#191970" stroke="#191970" points="1314.4126,-148.5646 1305.2811,-153.9372 1315.7699,-155.4318 1314.4126,-148.5646"/>
</g>
<!-- Node41 -->
<g id="node41" class="node">
<title>Node41</title>
<g id="a_node41"><a xlink:href="../../dd/d36/pymodG4run_8cc.html#a6d23b1bd4c250a6083c97cde722122ab" target="_top" xlink:title="BOOST_PYTHON_MODULE">
<polygon fill="none" stroke="#000000" points="1379,-33.9386 1379,-53.9386 1525,-53.9386 1525,-33.9386 1379,-33.9386"/>
<text text-anchor="middle" x="1452" y="-40.9386" font-family="FreeSans" font-size="10.00" fill="#000000">BOOST_PYTHON_MODULE</text>
</a>
</g>
</g>
<!-- Node40&#45;&gt;Node41 -->
<g id="edge40" class="edge">
<title>Node40&#45;&gt;Node41</title>
<path fill="none" stroke="#191970" d="M1316.3476,-43.9386C1336.758,-43.9386 1358.7396,-43.9386 1378.9416,-43.9386"/>
<polygon fill="#191970" stroke="#191970" points="1316.1533,-40.4387 1306.1533,-43.9386 1316.1533,-47.4387 1316.1533,-40.4387"/>
</g>
<!-- Node43 -->
<g id="node43" class="node">
<title>Node43</title>
<g id="a_node43"><a xlink:href="../../dc/d7e/extended_2parallel_2TBB_2B2b_2exampleB2b_8cc.html#a3c04138a5bfe5d72780bb7e82a18e627" target="_top" xlink:title="main">
<polygon fill="none" stroke="#000000" points="1431.5,-381.9386 1431.5,-401.9386 1472.5,-401.9386 1472.5,-381.9386 1431.5,-381.9386"/>
<text text-anchor="middle" x="1452" y="-388.9386" font-family="FreeSans" font-size="10.00" fill="#000000">main</text>
</a>
</g>
</g>
<!-- Node42&#45;&gt;Node43 -->
<g id="edge42" class="edge">
<title>Node42&#45;&gt;Node43</title>
<path fill="none" stroke="#191970" d="M1328.7167,-391.9386C1366.6716,-391.9386 1407.6041,-391.9386 1431.4557,-391.9386"/>
<polygon fill="#191970" stroke="#191970" points="1328.6272,-388.4387 1318.6272,-391.9386 1328.6271,-395.4387 1328.6272,-388.4387"/>
</g>
<!-- Node46 -->
<g id="node46" class="node">
<title>Node46</title>
<g id="a_node46"><a xlink:href="../../d6/d97/classG4AdjointSimMessenger.html#a5bfcad72a393216a5db8742d7d8556af" target="_top" xlink:title="G4AdjointSimMessenger\l::SetNewValue">
<polygon fill="none" stroke="#000000" points="1381.5,-195.9386 1381.5,-227.9386 1522.5,-227.9386 1522.5,-195.9386 1381.5,-195.9386"/>
<text text-anchor="start" x="1389.5" y="-214.9386" font-family="FreeSans" font-size="10.00" fill="#000000">G4AdjointSimMessenger</text>
<text text-anchor="middle" x="1452" y="-202.9386" font-family="FreeSans" font-size="10.00" fill="#000000">::SetNewValue</text>
</a>
</g>
</g>
<!-- Node45&#45;&gt;Node46 -->
<g id="edge46" class="edge">
<title>Node45&#45;&gt;Node46</title>
<path fill="none" stroke="#191970" d="M1315.5804,-215.7905C1336.9606,-215.1868 1360.118,-214.533 1381.1783,-213.9383"/>
<polygon fill="#191970" stroke="#191970" points="1315.4687,-212.2922 1305.5715,-216.0731 1315.6663,-219.2894 1315.4687,-212.2922"/>
</g>
</g>
</svg>
