<?xml version="1.0" encoding="UTF-8" standalone="no"?>
<!DOCTYPE svg PUBLIC "-//W3C//DTD SVG 1.1//EN"
 "http://www.w3.org/Graphics/SVG/1.1/DTD/svg11.dtd">
<!-- Generated by graphviz version 2.40.1 (20161225.0304)
 -->
<!-- Title: G4VUserPhysicsList::G4VUserPhysicsList Pages: 1 -->
<svg width="932pt" height="435pt"
 viewBox="0.00 0.00 932.00 435.00" xmlns="http://www.w3.org/2000/svg" xmlns:xlink="http://www.w3.org/1999/xlink">
<g id="graph0" class="graph" transform="scale(1 1) rotate(0) translate(4 431)">
<title>G4VUserPhysicsList::G4VUserPhysicsList</title>
<!-- Node1 -->
<g id="node1" class="node">
<title>Node1</title>
<polygon fill="#bfbfbf" stroke="#000000" points="0,-208.5 0,-240.5 123,-240.5 123,-208.5 0,-208.5"/>
<text text-anchor="start" x="8" y="-227.5" font-family="FreeSans" font-size="10.00" fill="#000000">G4VUserPhysicsList</text>
<text text-anchor="middle" x="61.5" y="-215.5" font-family="FreeSans" font-size="10.00" fill="#000000">::G4VUserPhysicsList</text>
</g>
<!-- Node2 -->
<g id="node2" class="node">
<title>Node2</title>
<g id="a_node2"><a xlink:href="../../de/de6/classG4VUPLSplitter.html#af1429054687eff8c1fd7dd753b26e251" target="_top" xlink:title="G4VUPLSplitter::CreateSub\lInstance">
<polygon fill="none" stroke="#000000" points="161.5,-349.5 161.5,-381.5 313.5,-381.5 313.5,-349.5 161.5,-349.5"/>
<text text-anchor="start" x="169.5" y="-368.5" font-family="FreeSans" font-size="10.00" fill="#000000">G4VUPLSplitter::CreateSub</text>
<text text-anchor="middle" x="237.5" y="-356.5" font-family="FreeSans" font-size="10.00" fill="#000000">Instance</text>
</a>
</g>
</g>
<!-- Node1&#45;&gt;Node2 -->
<g id="edge1" class="edge">
<title>Node1&#45;&gt;Node2</title>
<path fill="none" stroke="#191970" d="M71.0046,-240.8831C86.3636,-265.9463 118.9978,-313.712 159,-340.5 161.3954,-342.1041 163.9003,-343.6106 166.4825,-345.0249"/>
<polygon fill="#191970" stroke="#191970" points="164.9975,-348.1951 175.5133,-349.4863 168.0979,-341.9191 164.9975,-348.1951"/>
</g>
<!-- Node7 -->
<g id="node7" class="node">
<title>Node7</title>
<g id="a_node7"><a xlink:href="../../d5/d8b/classG4VUserPhysicsList.html#afb2322e114972b88ba1f0fe0626007e9" target="_top" xlink:title="G4VUserPhysicsList\l::GetInstanceID">
<polygon fill="none" stroke="#000000" points="179.5,-298.5 179.5,-330.5 295.5,-330.5 295.5,-298.5 179.5,-298.5"/>
<text text-anchor="start" x="187.5" y="-317.5" font-family="FreeSans" font-size="10.00" fill="#000000">G4VUserPhysicsList</text>
<text text-anchor="middle" x="237.5" y="-305.5" font-family="FreeSans" font-size="10.00" fill="#000000">::GetInstanceID</text>
</a>
</g>
</g>
<!-- Node1&#45;&gt;Node7 -->
<g id="edge6" class="edge">
<title>Node1&#45;&gt;Node7</title>
<path fill="none" stroke="#191970" d="M82.1534,-240.7685C101.2167,-255.1602 130.7644,-275.9247 159,-289.5 162.843,-291.3476 166.8555,-293.104 170.9459,-294.7653"/>
<polygon fill="#191970" stroke="#191970" points="169.9985,-298.1506 180.5886,-298.4672 172.5074,-291.6156 169.9985,-298.1506"/>
</g>
<!-- Node8 -->
<g id="node8" class="node">
<title>Node8</title>
<g id="a_node8"><a xlink:href="../../d8/dd3/classG4ParticleTable.html#adf609084147cd80731be50a22c47723f" target="_top" xlink:title="G4ParticleTable::GetIterator">
<polygon fill="none" stroke="#000000" points="159,-259.5 159,-279.5 316,-279.5 316,-259.5 159,-259.5"/>
<text text-anchor="middle" x="237.5" y="-266.5" font-family="FreeSans" font-size="10.00" fill="#000000">G4ParticleTable::GetIterator</text>
</a>
</g>
</g>
<!-- Node1&#45;&gt;Node8 -->
<g id="edge7" class="edge">
<title>Node1&#45;&gt;Node8</title>
<path fill="none" stroke="#191970" d="M120.737,-240.5312C133.3523,-243.8794 146.6059,-247.348 159,-250.5 167.4913,-252.6595 176.5141,-254.8967 185.3031,-257.0451"/>
<polygon fill="#191970" stroke="#191970" points="184.5421,-260.462 195.086,-259.424 186.1962,-253.6602 184.5421,-260.462"/>
</g>
<!-- Node9 -->
<g id="node9" class="node">
<title>Node9</title>
<g id="a_node9"><a xlink:href="../../d8/dd3/classG4ParticleTable.html#a8bb5b636696da4abae3ca7ea0ea5af95" target="_top" xlink:title="G4ParticleTable::GetParticle\lTable">
<polygon fill="none" stroke="#000000" points="159.5,-208.5 159.5,-240.5 315.5,-240.5 315.5,-208.5 159.5,-208.5"/>
<text text-anchor="start" x="167.5" y="-227.5" font-family="FreeSans" font-size="10.00" fill="#000000">G4ParticleTable::GetParticle</text>
<text text-anchor="middle" x="237.5" y="-215.5" font-family="FreeSans" font-size="10.00" fill="#000000">Table</text>
</a>
</g>
</g>
<!-- Node1&#45;&gt;Node9 -->
<g id="edge8" class="edge">
<title>Node1&#45;&gt;Node9</title>
<path fill="none" stroke="#191970" d="M123.0563,-224.5C131.4635,-224.5 140.2258,-224.5 148.9947,-224.5"/>
<polygon fill="#191970" stroke="#191970" points="149.2709,-228.0001 159.2709,-224.5 149.2708,-221.0001 149.2709,-228.0001"/>
</g>
<!-- Node16 -->
<g id="node16" class="node">
<title>Node16</title>
<g id="a_node16"><a xlink:href="../../d9/d74/classG4PhysicsListHelper.html#a7e0d0bf850bdf5bde1837d9be1df1a94" target="_top" xlink:title="G4PhysicsListHelper\l::GetPhysicsListHelper">
<polygon fill="none" stroke="#000000" points="172.5,-157.5 172.5,-189.5 302.5,-189.5 302.5,-157.5 172.5,-157.5"/>
<text text-anchor="start" x="180.5" y="-176.5" font-family="FreeSans" font-size="10.00" fill="#000000">G4PhysicsListHelper</text>
<text text-anchor="middle" x="237.5" y="-164.5" font-family="FreeSans" font-size="10.00" fill="#000000">::GetPhysicsListHelper</text>
</a>
</g>
</g>
<!-- Node1&#45;&gt;Node16 -->
<g id="edge15" class="edge">
<title>Node1&#45;&gt;Node16</title>
<path fill="none" stroke="#191970" d="M117.1875,-208.3633C134.7728,-203.2675 154.3574,-197.5925 172.532,-192.326"/>
<polygon fill="#191970" stroke="#191970" points="173.544,-195.6768 182.1748,-189.5317 171.5957,-188.9533 173.544,-195.6768"/>
</g>
<!-- Node22 -->
<g id="node22" class="node">
<title>Node22</title>
<g id="a_node22"><a xlink:href="../../d5/dda/classG4ProductionCutsTable.html#ae16e900827b6e8c4d97d157f605e5ba3" target="_top" xlink:title="G4ProductionCutsTable\l::GetProductionCutsTable">
<polygon fill="none" stroke="#000000" points="166,-106.5 166,-138.5 309,-138.5 309,-106.5 166,-106.5"/>
<text text-anchor="start" x="174" y="-125.5" font-family="FreeSans" font-size="10.00" fill="#000000">G4ProductionCutsTable</text>
<text text-anchor="middle" x="237.5" y="-113.5" font-family="FreeSans" font-size="10.00" fill="#000000">::GetProductionCutsTable</text>
</a>
</g>
</g>
<!-- Node1&#45;&gt;Node22 -->
<g id="edge21" class="edge">
<title>Node1&#45;&gt;Node22</title>
<path fill="none" stroke="#191970" d="M78.5388,-208.2278C97.0575,-191.2951 128.1493,-164.994 159,-148.5 163.0257,-146.3477 167.2624,-144.329 171.5956,-142.4438"/>
<polygon fill="#191970" stroke="#191970" points="173.2536,-145.5475 181.1914,-138.5302 170.6101,-139.0659 173.2536,-145.5475"/>
</g>
<!-- Node23 -->
<g id="node23" class="node">
<title>Node23</title>
<g id="a_node23"><a xlink:href="../../d5/d8b/classG4VUserPhysicsList.html#af1e8efa92c78526280f431ba3954c839" target="_top" xlink:title="G4VUserPhysicsList\l::GetSubInstanceManager">
<polygon fill="none" stroke="#000000" points="163.5,-55.5 163.5,-87.5 311.5,-87.5 311.5,-55.5 163.5,-55.5"/>
<text text-anchor="start" x="171.5" y="-74.5" font-family="FreeSans" font-size="10.00" fill="#000000">G4VUserPhysicsList</text>
<text text-anchor="middle" x="237.5" y="-62.5" font-family="FreeSans" font-size="10.00" fill="#000000">::GetSubInstanceManager</text>
</a>
</g>
</g>
<!-- Node1&#45;&gt;Node23 -->
<g id="edge22" class="edge">
<title>Node1&#45;&gt;Node23</title>
<path fill="none" stroke="#191970" d="M69.6974,-208.3583C84.1368,-181.4993 116.6325,-127.6153 159,-97.5 161.6914,-95.5869 164.5328,-93.8078 167.4755,-92.1539"/>
<polygon fill="#191970" stroke="#191970" points="169.2155,-95.1961 176.5592,-87.5593 166.056,-88.9497 169.2155,-95.1961"/>
</g>
<!-- Node3 -->
<g id="node3" class="node">
<title>Node3</title>
<g id="a_node3"><a xlink:href="../../d7/d27/classG4TemplateAutoLock.html#a602b9f6e1be6c2798aa1a2d55a33e21d" target="_top" xlink:title="G4TemplateAutoLock\l::lock">
<polygon fill="none" stroke="#000000" points="384.5,-394.5 384.5,-426.5 508.5,-426.5 508.5,-394.5 384.5,-394.5"/>
<text text-anchor="start" x="392.5" y="-413.5" font-family="FreeSans" font-size="10.00" fill="#000000">G4TemplateAutoLock</text>
<text text-anchor="middle" x="446.5" y="-401.5" font-family="FreeSans" font-size="10.00" fill="#000000">::lock</text>
</a>
</g>
</g>
<!-- Node2&#45;&gt;Node3 -->
<g id="edge2" class="edge">
<title>Node2&#45;&gt;Node3</title>
<path fill="none" stroke="#191970" d="M312.0686,-381.5555C332.3265,-385.9172 354.2234,-390.6318 374.3452,-394.9643"/>
<polygon fill="#191970" stroke="#191970" points="373.8628,-398.4406 384.3755,-397.1239 375.3363,-391.5974 373.8628,-398.4406"/>
</g>
<!-- Node4 -->
<g id="node4" class="node">
<title>Node4</title>
<g id="a_node4"><a xlink:href="../../de/de6/classG4VUPLSplitter.html#a618c6eec2c3b75dee62a71e0820949a2" target="_top" xlink:title="G4VUPLSplitter::NewSubInstances">
<polygon fill="none" stroke="#000000" points="352,-355.5 352,-375.5 541,-375.5 541,-355.5 352,-355.5"/>
<text text-anchor="middle" x="446.5" y="-362.5" font-family="FreeSans" font-size="10.00" fill="#000000">G4VUPLSplitter::NewSubInstances</text>
</a>
</g>
</g>
<!-- Node2&#45;&gt;Node4 -->
<g id="edge3" class="edge">
<title>Node2&#45;&gt;Node4</title>
<path fill="none" stroke="#191970" d="M313.545,-365.5C322.7163,-365.5 332.2041,-365.5 341.6952,-365.5"/>
<polygon fill="#191970" stroke="#191970" points="341.9807,-369.0001 351.9807,-365.5 341.9806,-362.0001 341.9807,-369.0001"/>
</g>
<!-- Node6 -->
<g id="node6" class="node">
<title>Node6</title>
<g id="a_node6"><a xlink:href="../../d7/d27/classG4TemplateAutoLock.html#a1fc2695a8c9b5527f9f3c62b32a2c172" target="_top" xlink:title="G4TemplateAutoLock\l::unlock">
<polygon fill="none" stroke="#000000" points="384.5,-304.5 384.5,-336.5 508.5,-336.5 508.5,-304.5 384.5,-304.5"/>
<text text-anchor="start" x="392.5" y="-323.5" font-family="FreeSans" font-size="10.00" fill="#000000">G4TemplateAutoLock</text>
<text text-anchor="middle" x="446.5" y="-311.5" font-family="FreeSans" font-size="10.00" fill="#000000">::unlock</text>
</a>
</g>
</g>
<!-- Node2&#45;&gt;Node6 -->
<g id="edge5" class="edge">
<title>Node2&#45;&gt;Node6</title>
<path fill="none" stroke="#191970" d="M312.0686,-349.4445C332.3265,-345.0828 354.2234,-340.3682 374.3452,-336.0357"/>
<polygon fill="#191970" stroke="#191970" points="375.3363,-339.4026 384.3755,-333.8761 373.8628,-332.5594 375.3363,-339.4026"/>
</g>
<!-- Node5 -->
<g id="node5" class="node">
<title>Node5</title>
<g id="a_node5"><a xlink:href="../../d5/d4f/G4Exception_8hh.html#ad36b5da5d062a20ca47b1c1f1ae353dd" target="_top" xlink:title="G4Exception">
<polygon fill="none" stroke="#000000" points="622.5,-355.5 622.5,-375.5 702.5,-375.5 702.5,-355.5 622.5,-355.5"/>
<text text-anchor="middle" x="662.5" y="-362.5" font-family="FreeSans" font-size="10.00" fill="#000000">G4Exception</text>
</a>
</g>
</g>
<!-- Node4&#45;&gt;Node5 -->
<g id="edge4" class="edge">
<title>Node4&#45;&gt;Node5</title>
<path fill="none" stroke="#191970" d="M541.2407,-365.5C565.6912,-365.5 591.0622,-365.5 612.2384,-365.5"/>
<polygon fill="#191970" stroke="#191970" points="612.2747,-369.0001 622.2746,-365.5 612.2746,-362.0001 612.2747,-369.0001"/>
</g>
<!-- Node10 -->
<g id="node10" class="node">
<title>Node10</title>
<g id="a_node10"><a xlink:href="../../d8/dd3/classG4ParticleTable.html#aba540bf07478ff0c30af3ee28d843041" target="_top" xlink:title="G4ParticleTable::WorkerG4\lParticleTable">
<polygon fill="none" stroke="#000000" points="371,-211.5 371,-243.5 522,-243.5 522,-211.5 371,-211.5"/>
<text text-anchor="start" x="379" y="-230.5" font-family="FreeSans" font-size="10.00" fill="#000000">G4ParticleTable::WorkerG4</text>
<text text-anchor="middle" x="446.5" y="-218.5" font-family="FreeSans" font-size="10.00" fill="#000000">ParticleTable</text>
</a>
</g>
</g>
<!-- Node9&#45;&gt;Node10 -->
<g id="edge9" class="edge">
<title>Node9&#45;&gt;Node10</title>
<path fill="none" stroke="#191970" d="M315.6211,-225.6214C330.317,-225.8323 345.7577,-226.0539 360.6737,-226.268"/>
<polygon fill="#191970" stroke="#191970" points="360.8516,-229.7709 370.9008,-226.4148 360.9521,-222.7716 360.8516,-229.7709"/>
</g>
<!-- Node11 -->
<g id="node11" class="node">
<title>Node11</title>
<g id="a_node11"><a xlink:href="../../d8/dd3/classG4ParticleTable.html#ad3150940809a36b87123558264d30108" target="_top" xlink:title="G4ParticleTable::GetKey">
<polygon fill="none" stroke="#000000" points="594,-315.5 594,-335.5 731,-335.5 731,-315.5 594,-315.5"/>
<text text-anchor="middle" x="662.5" y="-322.5" font-family="FreeSans" font-size="10.00" fill="#000000">G4ParticleTable::GetKey</text>
</a>
</g>
</g>
<!-- Node10&#45;&gt;Node11 -->
<g id="edge10" class="edge">
<title>Node10&#45;&gt;Node11</title>
<path fill="none" stroke="#191970" d="M467.9675,-243.5349C492.9237,-261.4314 535.9512,-290.0326 577,-306.5 582.8347,-308.8407 589.0148,-310.9209 595.2765,-312.7637"/>
<polygon fill="#191970" stroke="#191970" points="594.5763,-316.2008 605.1457,-315.4674 596.4259,-309.4495 594.5763,-316.2008"/>
</g>
<!-- Node12 -->
<g id="node12" class="node">
<title>Node12</title>
<g id="a_node12"><a xlink:href="../../d5/d38/classG4ParticleDefinition.html#af84019c7513ca66581ed8b3651934467" target="_top" xlink:title="G4ParticleDefinition\l::GetPDGEncoding">
<polygon fill="none" stroke="#000000" points="604.5,-264.5 604.5,-296.5 720.5,-296.5 720.5,-264.5 604.5,-264.5"/>
<text text-anchor="start" x="612.5" y="-283.5" font-family="FreeSans" font-size="10.00" fill="#000000">G4ParticleDefinition</text>
<text text-anchor="middle" x="662.5" y="-271.5" font-family="FreeSans" font-size="10.00" fill="#000000">::GetPDGEncoding</text>
</a>
</g>
</g>
<!-- Node10&#45;&gt;Node12 -->
<g id="edge11" class="edge">
<title>Node10&#45;&gt;Node12</title>
<path fill="none" stroke="#191970" d="M511.8933,-243.5456C537.9876,-249.9484 568.034,-257.3208 594.392,-263.7883"/>
<polygon fill="#191970" stroke="#191970" points="593.7514,-267.2349 604.2974,-266.2188 595.4196,-260.4365 593.7514,-267.2349"/>
</g>
<!-- Node13 -->
<g id="node13" class="node">
<title>Node13</title>
<g id="a_node13"><a xlink:href="../../d4/d96/classG4ParticleTableIterator.html#ae35fb8d216907e4b1614fd52f2d50f84" target="_top" xlink:title="G4ParticleTableIterator\l::reset">
<polygon fill="none" stroke="#000000" points="596.5,-213.5 596.5,-245.5 728.5,-245.5 728.5,-213.5 596.5,-213.5"/>
<text text-anchor="start" x="604.5" y="-232.5" font-family="FreeSans" font-size="10.00" fill="#000000">G4ParticleTableIterator</text>
<text text-anchor="middle" x="662.5" y="-220.5" font-family="FreeSans" font-size="10.00" fill="#000000">::reset</text>
</a>
</g>
</g>
<!-- Node10&#45;&gt;Node13 -->
<g id="edge12" class="edge">
<title>Node10&#45;&gt;Node13</title>
<path fill="none" stroke="#191970" d="M522.0463,-228.1995C542.8515,-228.3921 565.428,-228.6012 586.2715,-228.7942"/>
<polygon fill="#191970" stroke="#191970" points="586.3171,-232.2947 596.3491,-228.8875 586.382,-225.295 586.3171,-232.2947"/>
</g>
<!-- Node14 -->
<g id="node14" class="node">
<title>Node14</title>
<g id="a_node14"><a xlink:href="../../d4/d96/classG4ParticleTableIterator.html#a7220383ce5a9ddecb53331a2ecdd90d5" target="_top" xlink:title="G4ParticleTableIterator\l::value">
<polygon fill="none" stroke="#000000" points="596.5,-162.5 596.5,-194.5 728.5,-194.5 728.5,-162.5 596.5,-162.5"/>
<text text-anchor="start" x="604.5" y="-181.5" font-family="FreeSans" font-size="10.00" fill="#000000">G4ParticleTableIterator</text>
<text text-anchor="middle" x="662.5" y="-169.5" font-family="FreeSans" font-size="10.00" fill="#000000">::value</text>
</a>
</g>
</g>
<!-- Node10&#45;&gt;Node14 -->
<g id="edge13" class="edge">
<title>Node10&#45;&gt;Node14</title>
<path fill="none" stroke="#191970" d="M517.2265,-211.4556C539.412,-206.4227 563.9893,-200.8473 586.5221,-195.7357"/>
<polygon fill="#191970" stroke="#191970" points="587.3988,-199.1258 596.3767,-193.5002 585.8502,-192.2993 587.3988,-199.1258"/>
</g>
<!-- Node15 -->
<g id="node15" class="node">
<title>Node15</title>
<g id="a_node15"><a xlink:href="../../da/d2b/classG4IonTable.html#a66f8ee295224ed611872572a0e47ab6e" target="_top" xlink:title="G4IonTable::WorkerG4IonTable">
<polygon fill="none" stroke="#000000" points="577,-123.5 577,-143.5 748,-143.5 748,-123.5 577,-123.5"/>
<text text-anchor="middle" x="662.5" y="-130.5" font-family="FreeSans" font-size="10.00" fill="#000000">G4IonTable::WorkerG4IonTable</text>
</a>
</g>
</g>
<!-- Node10&#45;&gt;Node15 -->
<g id="edge14" class="edge">
<title>Node10&#45;&gt;Node15</title>
<path fill="none" stroke="#191970" d="M470.0006,-211.4198C495.3674,-194.7354 537.4625,-168.9632 577,-153.5 584.0088,-150.7588 591.4939,-148.3312 599.0111,-146.198"/>
<polygon fill="#191970" stroke="#191970" points="600.1172,-149.5253 608.8743,-143.5617 598.3096,-142.7627 600.1172,-149.5253"/>
</g>
<!-- Node17 -->
<g id="node17" class="node">
<title>Node17</title>
<g id="a_node17"><a xlink:href="../../d5/dd7/classG4ThreadLocalSingleton.html#a47059d0f59f2f9b8a970f73b6ec4c4c2" target="_top" xlink:title="G4ThreadLocalSingleton\l::Instance">
<polygon fill="none" stroke="#000000" points="376.5,-59.5 376.5,-91.5 516.5,-91.5 516.5,-59.5 376.5,-59.5"/>
<text text-anchor="start" x="384.5" y="-78.5" font-family="FreeSans" font-size="10.00" fill="#000000">G4ThreadLocalSingleton</text>
<text text-anchor="middle" x="446.5" y="-66.5" font-family="FreeSans" font-size="10.00" fill="#000000">::Instance</text>
</a>
</g>
</g>
<!-- Node16&#45;&gt;Node17 -->
<g id="edge16" class="edge">
<title>Node16&#45;&gt;Node17</title>
<path fill="none" stroke="#191970" d="M292.9189,-157.4003C300.7617,-154.6754 308.6515,-151.6866 316,-148.5 350.0883,-133.7179 386.851,-112.6468 412.6426,-96.9393"/>
<polygon fill="#191970" stroke="#191970" points="414.5995,-99.8449 421.2855,-91.6262 410.9335,-93.8815 414.5995,-99.8449"/>
</g>
<!-- Node18 -->
<g id="node18" class="node">
<title>Node18</title>
<g id="a_node18"><a xlink:href="../../da/dc8/classG4Cache.html#a70890f74a94670d28d3282c1d8e60840" target="_top" xlink:title="G4Cache::Get">
<polygon fill="none" stroke="#000000" points="619,-84.5 619,-104.5 706,-104.5 706,-84.5 619,-84.5"/>
<text text-anchor="middle" x="662.5" y="-91.5" font-family="FreeSans" font-size="10.00" fill="#000000">G4Cache::Get</text>
</a>
</g>
</g>
<!-- Node17&#45;&gt;Node18 -->
<g id="edge17" class="edge">
<title>Node17&#45;&gt;Node18</title>
<path fill="none" stroke="#191970" d="M516.629,-81.6688C546.4489,-84.2918 580.6791,-87.3028 608.4834,-89.7485"/>
<polygon fill="#191970" stroke="#191970" points="608.5341,-93.2664 618.8024,-90.6562 609.1476,-86.2934 608.5341,-93.2664"/>
</g>
<!-- Node19 -->
<g id="node19" class="node">
<title>Node19</title>
<g id="a_node19"><a xlink:href="../../da/dc8/classG4Cache.html#af35fe0499dd94627a5119e1e82639016" target="_top" xlink:title="G4Cache::Put">
<polygon fill="none" stroke="#000000" points="620,-45.5 620,-65.5 705,-65.5 705,-45.5 620,-45.5"/>
<text text-anchor="middle" x="662.5" y="-52.5" font-family="FreeSans" font-size="10.00" fill="#000000">G4Cache::Put</text>
</a>
</g>
</g>
<!-- Node17&#45;&gt;Node19 -->
<g id="edge18" class="edge">
<title>Node17&#45;&gt;Node19</title>
<path fill="none" stroke="#191970" d="M516.629,-69.0066C546.9094,-66.2028 581.7374,-62.978 609.7668,-60.3827"/>
<polygon fill="#191970" stroke="#191970" points="610.1302,-63.8641 619.7649,-59.457 609.4847,-56.8939 610.1302,-63.8641"/>
</g>
<!-- Node20 -->
<g id="node20" class="node">
<title>Node20</title>
<g id="a_node20"><a xlink:href="../../dc/d02/namespaceG4AutoDelete.html#ad9f605c8057f73fbe433da3bbd7d3936" target="_top" xlink:title="G4AutoDelete::Register">
<polygon fill="none" stroke="#000000" points="594.5,-6.5 594.5,-26.5 730.5,-26.5 730.5,-6.5 594.5,-6.5"/>
<text text-anchor="middle" x="662.5" y="-13.5" font-family="FreeSans" font-size="10.00" fill="#000000">G4AutoDelete::Register</text>
</a>
</g>
</g>
<!-- Node17&#45;&gt;Node20 -->
<g id="edge19" class="edge">
<title>Node17&#45;&gt;Node20</title>
<path fill="none" stroke="#191970" d="M497.4281,-59.4996C521.4656,-52.1483 550.6071,-43.5238 577,-36.5 586.7229,-33.9125 597.1154,-31.3298 607.186,-28.9215"/>
<polygon fill="#191970" stroke="#191970" points="608.1845,-32.2821 617.1125,-26.5776 606.5758,-25.4694 608.1845,-32.2821"/>
</g>
<!-- Node21 -->
<g id="node21" class="node">
<title>Node21</title>
<g id="a_node21"><a xlink:href="../../d5/dd7/classG4ThreadLocalSingleton.html#ac51b4a79569468a146e91b3803f80d84" target="_top" xlink:title="G4ThreadLocalSingleton\l::Register">
<polygon fill="none" stroke="#000000" points="784,-.5 784,-32.5 924,-32.5 924,-.5 784,-.5"/>
<text text-anchor="start" x="792" y="-19.5" font-family="FreeSans" font-size="10.00" fill="#000000">G4ThreadLocalSingleton</text>
<text text-anchor="middle" x="854" y="-7.5" font-family="FreeSans" font-size="10.00" fill="#000000">::Register</text>
</a>
</g>
</g>
<!-- Node20&#45;&gt;Node21 -->
<g id="edge20" class="edge">
<title>Node20&#45;&gt;Node21</title>
<path fill="none" stroke="#191970" d="M730.5549,-16.5C744.4827,-16.5 759.2659,-16.5 773.5798,-16.5"/>
<polygon fill="#191970" stroke="#191970" points="773.9008,-20.0001 783.9007,-16.5 773.9007,-13.0001 773.9008,-20.0001"/>
</g>
</g>
</svg>
