<?xml version="1.0" encoding="UTF-8" standalone="no"?>
<!DOCTYPE svg PUBLIC "-//W3C//DTD SVG 1.1//EN"
 "http://www.w3.org/Graphics/SVG/1.1/DTD/svg11.dtd">
<!-- Generated by graphviz version 2.40.1 (20161225.0304)
 -->
<!-- Title: G4Polyhedron Pages: 1 -->
<svg width="416pt" height="692pt"
 viewBox="0.00 0.00 416.00 692.00" xmlns="http://www.w3.org/2000/svg" xmlns:xlink="http://www.w3.org/1999/xlink">
<g id="graph0" class="graph" transform="scale(1 1) rotate(0) translate(4 688)">
<title>G4Polyhedron</title>
<!-- Node1 -->
<g id="node1" class="node">
<title>Node1</title>
<polygon fill="#bfbfbf" stroke="#000000" points="129,-331.5 129,-351.5 216,-351.5 216,-331.5 129,-331.5"/>
<text text-anchor="middle" x="172.5" y="-338.5" font-family="FreeSans" font-size="10.00" fill="#000000">G4Polyhedron</text>
</g>
<!-- Node4 -->
<g id="node4" class="node">
<title>Node4</title>
<g id="a_node4"><a xlink:href="../../d8/da7/classG4PolyhedronArbitrary.html" target="_top" xlink:title="G4PolyhedronArbitrary">
<polygon fill="none" stroke="#000000" points="264,-663.5 264,-683.5 396,-683.5 396,-663.5 264,-663.5"/>
<text text-anchor="middle" x="330" y="-670.5" font-family="FreeSans" font-size="10.00" fill="#000000">G4PolyhedronArbitrary</text>
</a>
</g>
</g>
<!-- Node1&#45;&gt;Node4 -->
<g id="edge3" class="edge">
<title>Node1&#45;&gt;Node4</title>
<path fill="none" stroke="#191970" d="M174.9111,-361.6826C182.7721,-424.1326 209.6206,-612.5338 252,-654.5 255.5653,-658.0305 259.6703,-660.9438 264.0928,-663.3437"/>
<polygon fill="#191970" stroke="#191970" points="178.3596,-361.049 173.6648,-351.5512 171.412,-361.9037 178.3596,-361.049"/>
</g>
<!-- Node5 -->
<g id="node5" class="node">
<title>Node5</title>
<g id="a_node5"><a xlink:href="../../dd/d4d/classG4PolyhedronBox.html" target="_top" xlink:title="G4PolyhedronBox">
<polygon fill="none" stroke="#000000" points="277,-624.5 277,-644.5 383,-644.5 383,-624.5 277,-624.5"/>
<text text-anchor="middle" x="330" y="-631.5" font-family="FreeSans" font-size="10.00" fill="#000000">G4PolyhedronBox</text>
</a>
</g>
</g>
<!-- Node1&#45;&gt;Node5 -->
<g id="edge4" class="edge">
<title>Node1&#45;&gt;Node5</title>
<path fill="none" stroke="#191970" d="M175.7024,-361.7592C185.1348,-418.9158 214.5184,-579.6128 252,-615.5 258.8457,-622.0545 267.558,-626.4675 276.6623,-629.4142"/>
<polygon fill="#191970" stroke="#191970" points="179.1394,-361.0878 174.0855,-351.7761 172.2294,-362.2071 179.1394,-361.0878"/>
</g>
<!-- Node6 -->
<g id="node6" class="node">
<title>Node6</title>
<g id="a_node6"><a xlink:href="../../da/d1d/classG4PolyhedronCone.html" target="_top" xlink:title="G4PolyhedronCone">
<polygon fill="none" stroke="#000000" points="273.5,-585.5 273.5,-605.5 386.5,-605.5 386.5,-585.5 273.5,-585.5"/>
<text text-anchor="middle" x="330" y="-592.5" font-family="FreeSans" font-size="10.00" fill="#000000">G4PolyhedronCone</text>
</a>
</g>
</g>
<!-- Node1&#45;&gt;Node6 -->
<g id="edge5" class="edge">
<title>Node1&#45;&gt;Node6</title>
<path fill="none" stroke="#191970" d="M176.6877,-361.5421C187.7786,-412.7648 219.3098,-546.5452 252,-576.5 258.0628,-582.0555 265.4741,-586.0594 273.2902,-588.9319"/>
<polygon fill="#191970" stroke="#191970" points="180.0921,-360.7243 174.5841,-351.6738 173.2459,-362.1837 180.0921,-360.7243"/>
</g>
<!-- Node7 -->
<g id="node7" class="node">
<title>Node7</title>
<g id="a_node7"><a xlink:href="../../dd/d77/classG4PolyhedronCons.html" target="_top" xlink:title="G4PolyhedronCons">
<polygon fill="none" stroke="#000000" points="274,-546.5 274,-566.5 386,-566.5 386,-546.5 274,-546.5"/>
<text text-anchor="middle" x="330" y="-553.5" font-family="FreeSans" font-size="10.00" fill="#000000">G4PolyhedronCons</text>
</a>
</g>
</g>
<!-- Node1&#45;&gt;Node7 -->
<g id="edge6" class="edge">
<title>Node1&#45;&gt;Node7</title>
<path fill="none" stroke="#191970" d="M174.7186,-362.0555C180.1751,-402.1366 198.0008,-490.8793 252,-537.5 258.3299,-542.9649 265.9773,-546.9119 273.9769,-549.7522"/>
<polygon fill="#191970" stroke="#191970" points="178.1644,-361.4009 173.4645,-351.9056 171.2173,-362.2594 178.1644,-361.4009"/>
</g>
<!-- Node8 -->
<g id="node8" class="node">
<title>Node8</title>
<g id="a_node8"><a xlink:href="../../d1/d69/classG4PolyhedronEllipsoid.html" target="_top" xlink:title="G4PolyhedronEllipsoid">
<polygon fill="none" stroke="#000000" points="265.5,-507.5 265.5,-527.5 394.5,-527.5 394.5,-507.5 265.5,-507.5"/>
<text text-anchor="middle" x="330" y="-514.5" font-family="FreeSans" font-size="10.00" fill="#000000">G4PolyhedronEllipsoid</text>
</a>
</g>
</g>
<!-- Node1&#45;&gt;Node8 -->
<g id="edge7" class="edge">
<title>Node1&#45;&gt;Node8</title>
<path fill="none" stroke="#191970" d="M176.9741,-361.8991C185.4786,-395.6801 207.2659,-463.0227 252,-498.5 256.5865,-502.1374 261.7676,-505.0927 267.2246,-507.4919"/>
<polygon fill="#191970" stroke="#191970" points="180.298,-360.7468 174.5853,-351.824 173.4869,-362.3618 180.298,-360.7468"/>
</g>
<!-- Node9 -->
<g id="node9" class="node">
<title>Node9</title>
<g id="a_node9"><a xlink:href="../../da/dba/classG4PolyhedronEllipticalCone.html" target="_top" xlink:title="G4PolyhedronEllipticalCone">
<polygon fill="none" stroke="#000000" points="252,-468.5 252,-488.5 408,-488.5 408,-468.5 252,-468.5"/>
<text text-anchor="middle" x="330" y="-475.5" font-family="FreeSans" font-size="10.00" fill="#000000">G4PolyhedronEllipticalCone</text>
</a>
</g>
</g>
<!-- Node1&#45;&gt;Node9 -->
<g id="edge8" class="edge">
<title>Node1&#45;&gt;Node9</title>
<path fill="none" stroke="#191970" d="M180.2033,-360.9366C191.7313,-387.4312 216.0336,-434.4465 252,-459.5 257.1464,-463.0849 262.8937,-465.9966 268.8715,-468.3609"/>
<polygon fill="#191970" stroke="#191970" points="183.3746,-359.4479 176.2904,-351.5698 176.9155,-362.1461 183.3746,-359.4479"/>
</g>
<!-- Node10 -->
<g id="node10" class="node">
<title>Node10</title>
<g id="a_node10"><a xlink:href="../../d3/dbf/classG4PolyhedronHype.html" target="_top" xlink:title="G4PolyhedronHype">
<polygon fill="none" stroke="#000000" points="273.5,-429.5 273.5,-449.5 386.5,-449.5 386.5,-429.5 273.5,-429.5"/>
<text text-anchor="middle" x="330" y="-436.5" font-family="FreeSans" font-size="10.00" fill="#000000">G4PolyhedronHype</text>
</a>
</g>
</g>
<!-- Node1&#45;&gt;Node10 -->
<g id="edge9" class="edge">
<title>Node1&#45;&gt;Node10</title>
<path fill="none" stroke="#191970" d="M186.0064,-359.8388C200.3608,-377.9919 224.7189,-405.2189 252,-420.5 258.5664,-424.1781 265.8332,-427.1498 273.2127,-429.5496"/>
<polygon fill="#191970" stroke="#191970" points="188.6606,-357.5484 179.7944,-351.7483 183.1084,-361.8115 188.6606,-357.5484"/>
</g>
<!-- Node11 -->
<g id="node11" class="node">
<title>Node11</title>
<g id="a_node11"><a xlink:href="../../d7/d7d/classG4PolyhedronPara.html" target="_top" xlink:title="G4PolyhedronPara">
<polygon fill="none" stroke="#000000" points="275.5,-390.5 275.5,-410.5 384.5,-410.5 384.5,-390.5 275.5,-390.5"/>
<text text-anchor="middle" x="330" y="-397.5" font-family="FreeSans" font-size="10.00" fill="#000000">G4PolyhedronPara</text>
</a>
</g>
</g>
<!-- Node1&#45;&gt;Node11 -->
<g id="edge10" class="edge">
<title>Node1&#45;&gt;Node11</title>
<path fill="none" stroke="#191970" d="M198.4972,-356.4696C213.7101,-364.7444 233.5075,-374.6963 252,-381.5 261.2871,-384.9169 271.4225,-387.9 281.2213,-390.427"/>
<polygon fill="#191970" stroke="#191970" points="200.1133,-353.3637 189.6701,-351.5772 196.7198,-359.4862 200.1133,-353.3637"/>
</g>
<!-- Node12 -->
<g id="node12" class="node">
<title>Node12</title>
<g id="a_node12"><a xlink:href="../../d4/daa/classG4PolyhedronParaboloid.html" target="_top" xlink:title="G4PolyhedronParaboloid">
<polygon fill="none" stroke="#000000" points="260,-351.5 260,-371.5 400,-371.5 400,-351.5 260,-351.5"/>
<text text-anchor="middle" x="330" y="-358.5" font-family="FreeSans" font-size="10.00" fill="#000000">G4PolyhedronParaboloid</text>
</a>
</g>
</g>
<!-- Node1&#45;&gt;Node12 -->
<g id="edge11" class="edge">
<title>Node1&#45;&gt;Node12</title>
<path fill="none" stroke="#191970" d="M226.4304,-348.3483C237.1715,-349.7123 248.5988,-351.1633 259.793,-352.5848"/>
<polygon fill="#191970" stroke="#191970" points="226.7338,-344.8588 216.3725,-347.0711 225.8519,-351.803 226.7338,-344.8588"/>
</g>
<!-- Node13 -->
<g id="node13" class="node">
<title>Node13</title>
<g id="a_node13"><a xlink:href="../../d2/d9c/classG4PolyhedronPcon.html" target="_top" xlink:title="G4PolyhedronPcon">
<polygon fill="none" stroke="#000000" points="274.5,-312.5 274.5,-332.5 385.5,-332.5 385.5,-312.5 274.5,-312.5"/>
<text text-anchor="middle" x="330" y="-319.5" font-family="FreeSans" font-size="10.00" fill="#000000">G4PolyhedronPcon</text>
</a>
</g>
</g>
<!-- Node1&#45;&gt;Node13 -->
<g id="edge12" class="edge">
<title>Node1&#45;&gt;Node13</title>
<path fill="none" stroke="#191970" d="M226.3025,-335.0095C241.7711,-333.1435 258.6717,-331.1047 274.2549,-329.2248"/>
<polygon fill="#191970" stroke="#191970" points="225.8813,-331.5349 216.3725,-336.2074 226.7198,-338.4845 225.8813,-331.5349"/>
</g>
<!-- Node14 -->
<g id="node14" class="node">
<title>Node14</title>
<g id="a_node14"><a xlink:href="../../df/d0a/classG4PolyhedronPgon.html" target="_top" xlink:title="G4PolyhedronPgon">
<polygon fill="none" stroke="#000000" points="274,-273.5 274,-293.5 386,-293.5 386,-273.5 274,-273.5"/>
<text text-anchor="middle" x="330" y="-280.5" font-family="FreeSans" font-size="10.00" fill="#000000">G4PolyhedronPgon</text>
</a>
</g>
</g>
<!-- Node1&#45;&gt;Node14 -->
<g id="edge13" class="edge">
<title>Node1&#45;&gt;Node14</title>
<path fill="none" stroke="#191970" d="M199.137,-326.6225C214.2828,-318.6285 233.8054,-309.0901 252,-302.5 261.4353,-299.0825 271.7331,-296.0845 281.662,-293.5402"/>
<polygon fill="#191970" stroke="#191970" points="197.4742,-323.5427 190.3232,-331.3602 200.7885,-329.7084 197.4742,-323.5427"/>
</g>
<!-- Node15 -->
<g id="node15" class="node">
<title>Node15</title>
<g id="a_node15"><a xlink:href="../../d4/d16/classG4PolyhedronSphere.html" target="_top" xlink:title="G4PolyhedronSphere">
<polygon fill="none" stroke="#000000" points="268.5,-234.5 268.5,-254.5 391.5,-254.5 391.5,-234.5 268.5,-234.5"/>
<text text-anchor="middle" x="330" y="-241.5" font-family="FreeSans" font-size="10.00" fill="#000000">G4PolyhedronSphere</text>
</a>
</g>
</g>
<!-- Node1&#45;&gt;Node15 -->
<g id="edge14" class="edge">
<title>Node1&#45;&gt;Node15</title>
<path fill="none" stroke="#191970" d="M186.0575,-323.398C200.4522,-305.4783 224.8417,-278.5989 252,-263.5 258.4562,-259.9106 265.5824,-256.9931 272.8244,-254.623"/>
<polygon fill="#191970" stroke="#191970" points="183.2182,-321.3473 179.8255,-331.3843 188.7368,-325.6537 183.2182,-321.3473"/>
</g>
<!-- Node16 -->
<g id="node16" class="node">
<title>Node16</title>
<g id="a_node16"><a xlink:href="../../d0/d10/classG4PolyhedronTorus.html" target="_top" xlink:title="G4PolyhedronTorus">
<polygon fill="none" stroke="#000000" points="273,-195.5 273,-215.5 387,-215.5 387,-195.5 273,-195.5"/>
<text text-anchor="middle" x="330" y="-202.5" font-family="FreeSans" font-size="10.00" fill="#000000">G4PolyhedronTorus</text>
</a>
</g>
</g>
<!-- Node1&#45;&gt;Node16 -->
<g id="edge15" class="edge">
<title>Node1&#45;&gt;Node16</title>
<path fill="none" stroke="#191970" d="M180.4224,-321.8333C192.0723,-295.4921 216.372,-249.2135 252,-224.5 258.2987,-220.1309 265.4913,-216.7621 272.9028,-214.1655"/>
<polygon fill="#191970" stroke="#191970" points="177.1437,-320.5998 176.4548,-331.1722 183.5864,-323.337 177.1437,-320.5998"/>
</g>
<!-- Node17 -->
<g id="node17" class="node">
<title>Node17</title>
<g id="a_node17"><a xlink:href="../../d8/db4/classG4PolyhedronTrap.html" target="_top" xlink:title="G4PolyhedronTrap">
<polygon fill="none" stroke="#000000" points="275.5,-156.5 275.5,-176.5 384.5,-176.5 384.5,-156.5 275.5,-156.5"/>
<text text-anchor="middle" x="330" y="-163.5" font-family="FreeSans" font-size="10.00" fill="#000000">G4PolyhedronTrap</text>
</a>
</g>
</g>
<!-- Node1&#45;&gt;Node17 -->
<g id="edge16" class="edge">
<title>Node1&#45;&gt;Node17</title>
<path fill="none" stroke="#191970" d="M177.0137,-321.2284C185.5764,-287.659 207.447,-220.7401 252,-185.5 258.7775,-180.1392 266.8472,-176.2606 275.1857,-173.4607"/>
<polygon fill="#191970" stroke="#191970" points="173.5413,-320.6993 174.6065,-331.2404 180.3473,-322.3357 173.5413,-320.6993"/>
</g>
<!-- Node18 -->
<g id="node18" class="node">
<title>Node18</title>
<g id="a_node18"><a xlink:href="../../df/d80/classG4PolyhedronTrd1.html" target="_top" xlink:title="G4PolyhedronTrd1">
<polygon fill="none" stroke="#000000" points="276,-117.5 276,-137.5 384,-137.5 384,-117.5 276,-117.5"/>
<text text-anchor="middle" x="330" y="-124.5" font-family="FreeSans" font-size="10.00" fill="#000000">G4PolyhedronTrd1</text>
</a>
</g>
</g>
<!-- Node1&#45;&gt;Node18 -->
<g id="edge17" class="edge">
<title>Node1&#45;&gt;Node18</title>
<path fill="none" stroke="#191970" d="M174.7526,-321.0469C180.2692,-281.1658 198.1958,-192.8686 252,-146.5 258.8626,-140.5858 267.2689,-136.45 275.9924,-133.5707"/>
<polygon fill="#191970" stroke="#191970" points="171.2578,-320.7876 173.4826,-331.1461 178.203,-321.661 171.2578,-320.7876"/>
</g>
<!-- Node19 -->
<g id="node19" class="node">
<title>Node19</title>
<g id="a_node19"><a xlink:href="../../d9/dc6/classG4PolyhedronTrd2.html" target="_top" xlink:title="G4PolyhedronTrd2">
<polygon fill="none" stroke="#000000" points="276,-78.5 276,-98.5 384,-98.5 384,-78.5 276,-78.5"/>
<text text-anchor="middle" x="330" y="-85.5" font-family="FreeSans" font-size="10.00" fill="#000000">G4PolyhedronTrd2</text>
</a>
</g>
</g>
<!-- Node1&#45;&gt;Node19 -->
<g id="edge18" class="edge">
<title>Node1&#45;&gt;Node19</title>
<path fill="none" stroke="#191970" d="M176.6998,-321.5423C187.8199,-270.5354 219.4152,-137.3193 252,-107.5 258.6833,-101.3839 267.0013,-97.1487 275.693,-94.2336"/>
<polygon fill="#191970" stroke="#191970" points="173.2672,-320.8572 174.5904,-331.369 180.1113,-322.3264 173.2672,-320.8572"/>
</g>
<!-- Node20 -->
<g id="node20" class="node">
<title>Node20</title>
<g id="a_node20"><a xlink:href="../../dd/d87/classG4PolyhedronTube.html" target="_top" xlink:title="G4PolyhedronTube">
<polygon fill="none" stroke="#000000" points="274.5,-39.5 274.5,-59.5 385.5,-59.5 385.5,-39.5 274.5,-39.5"/>
<text text-anchor="middle" x="330" y="-46.5" font-family="FreeSans" font-size="10.00" fill="#000000">G4PolyhedronTube</text>
</a>
</g>
</g>
<!-- Node1&#45;&gt;Node20 -->
<g id="edge19" class="edge">
<title>Node1&#45;&gt;Node20</title>
<path fill="none" stroke="#191970" d="M175.7132,-321.3139C185.1742,-264.3638 214.6271,-104.2481 252,-68.5 258.2446,-62.5269 266.0395,-58.3326 274.2676,-55.4058"/>
<polygon fill="#191970" stroke="#191970" points="172.2463,-320.828 174.0911,-331.261 179.155,-321.9547 172.2463,-320.828"/>
</g>
<!-- Node21 -->
<g id="node21" class="node">
<title>Node21</title>
<g id="a_node21"><a xlink:href="../../da/d19/classG4PolyhedronTubs.html" target="_top" xlink:title="G4PolyhedronTubs">
<polygon fill="none" stroke="#000000" points="275,-.5 275,-20.5 385,-20.5 385,-.5 275,-.5"/>
<text text-anchor="middle" x="330" y="-7.5" font-family="FreeSans" font-size="10.00" fill="#000000">G4PolyhedronTubs</text>
</a>
</g>
</g>
<!-- Node1&#45;&gt;Node21 -->
<g id="edge20" class="edge">
<title>Node1&#45;&gt;Node21</title>
<path fill="none" stroke="#191970" d="M174.9206,-321.3812C182.8097,-259.1286 209.7318,-71.3241 252,-29.5 258.3407,-23.2259 266.386,-18.9014 274.8874,-15.9438"/>
<polygon fill="#191970" stroke="#191970" points="171.4255,-321.1261 173.6696,-331.4806 178.3725,-321.9867 171.4255,-321.1261"/>
</g>
<!-- Node2 -->
<g id="node2" class="node">
<title>Node2</title>
<g id="a_node2"><a xlink:href="../../d3/d94/classHepPolyhedron.html" target="_top" xlink:title="HepPolyhedron">
<polygon fill="none" stroke="#000000" points="0,-351.5 0,-371.5 93,-371.5 93,-351.5 0,-351.5"/>
<text text-anchor="middle" x="46.5" y="-358.5" font-family="FreeSans" font-size="10.00" fill="#000000">HepPolyhedron</text>
</a>
</g>
</g>
<!-- Node2&#45;&gt;Node1 -->
<g id="edge1" class="edge">
<title>Node2&#45;&gt;Node1</title>
<path fill="none" stroke="#191970" d="M103.0307,-352.5269C111.6209,-351.1633 120.3734,-349.7741 128.64,-348.4619"/>
<polygon fill="#191970" stroke="#191970" points="102.3874,-349.0851 93.0598,-354.1096 103.4848,-355.9985 102.3874,-349.0851"/>
</g>
<!-- Node3 -->
<g id="node3" class="node">
<title>Node3</title>
<g id="a_node3"><a xlink:href="../../d8/dda/classG4Visible.html" target="_top" xlink:title="G4Visible">
<polygon fill="none" stroke="#000000" points="14.5,-312.5 14.5,-332.5 78.5,-332.5 78.5,-312.5 14.5,-312.5"/>
<text text-anchor="middle" x="46.5" y="-319.5" font-family="FreeSans" font-size="10.00" fill="#000000">G4Visible</text>
</a>
</g>
</g>
<!-- Node3&#45;&gt;Node1 -->
<g id="edge2" class="edge">
<title>Node3&#45;&gt;Node1</title>
<path fill="none" stroke="#191970" d="M88.5938,-328.8475C101.4378,-330.7843 115.5894,-332.9182 128.5529,-334.8731"/>
<polygon fill="#191970" stroke="#191970" points="89.0313,-325.374 78.6211,-327.3437 87.9874,-332.2957 89.0313,-325.374"/>
</g>
</g>
</svg>
