<?xml version="1.0" encoding="UTF-8" standalone="no"?>
<!DOCTYPE svg PUBLIC "-//W3C//DTD SVG 1.1//EN"
 "http://www.w3.org/Graphics/SVG/1.1/DTD/svg11.dtd">
<!-- Generated by graphviz version 2.40.1 (20161225.0304)
 -->
<!-- Title: G4HepRepFileXMLWriter Pages: 1 -->
<svg width="146pt" height="354pt"
 viewBox="0.00 0.00 146.00 354.00" xmlns="http://www.w3.org/2000/svg" xmlns:xlink="http://www.w3.org/1999/xlink">
<g id="graph0" class="graph" transform="scale(1 1) rotate(0) translate(4 350)">
<title>G4HepRepFileXMLWriter</title>
<!-- Node1 -->
<g id="node1" class="node">
<title>Node1</title>
<polygon fill="#bfbfbf" stroke="#000000" points="0,-.5 0,-20.5 138,-20.5 138,-.5 0,-.5"/>
<text text-anchor="middle" x="69" y="-7.5" font-family="FreeSans" font-size="10.00" fill="#000000">G4HepRepFileXMLWriter</text>
</g>
<!-- Node2 -->
<g id="node2" class="node">
<title>Node2</title>
<g id="a_node2"><a xlink:title="STL class.">
<polygon fill="none" stroke="#bfbfbf" points="27.5,-69.5 27.5,-89.5 110.5,-89.5 110.5,-69.5 27.5,-69.5"/>
<text text-anchor="middle" x="69" y="-76.5" font-family="FreeSans" font-size="10.00" fill="#000000">std::ofstream</text>
</a>
</g>
</g>
<!-- Node2&#45;&gt;Node1 -->
<g id="edge1" class="edge">
<title>Node2&#45;&gt;Node1</title>
<path fill="none" stroke="#9a32cd" stroke-dasharray="5,2" d="M69,-59.2177C69,-46.5684 69,-30.8285 69,-20.723"/>
<polygon fill="#9a32cd" stroke="#9a32cd" points="65.5001,-59.3188 69,-69.3188 72.5001,-59.3188 65.5001,-59.3188"/>
<text text-anchor="middle" x="81.5" y="-42" font-family="FreeSans" font-size="10.00" fill="#000000"> fout</text>
</g>
<!-- Node3 -->
<g id="node3" class="node">
<title>Node3</title>
<g id="a_node3"><a xlink:title="STL class.">
<polygon fill="none" stroke="#bfbfbf" points="11.5,-127.5 11.5,-159.5 126.5,-159.5 126.5,-127.5 11.5,-127.5"/>
<text text-anchor="start" x="19.5" y="-146.5" font-family="FreeSans" font-size="10.00" fill="#000000">std::basic_ofstream</text>
<text text-anchor="middle" x="69" y="-134.5" font-family="FreeSans" font-size="10.00" fill="#000000">&lt; char &gt;</text>
</a>
</g>
</g>
<!-- Node3&#45;&gt;Node2 -->
<g id="edge2" class="edge">
<title>Node3&#45;&gt;Node2</title>
<path fill="none" stroke="#191970" d="M69,-117.2639C69,-107.5394 69,-97.0805 69,-89.641"/>
<polygon fill="#191970" stroke="#191970" points="65.5001,-117.3501 69,-127.3501 72.5001,-117.3501 65.5001,-117.3501"/>
</g>
<!-- Node4 -->
<g id="node4" class="node">
<title>Node4</title>
<g id="a_node4"><a xlink:title="STL class.">
<polygon fill="none" stroke="#bfbfbf" points="13.5,-197.5 13.5,-229.5 124.5,-229.5 124.5,-197.5 13.5,-197.5"/>
<text text-anchor="start" x="21.5" y="-216.5" font-family="FreeSans" font-size="10.00" fill="#000000">std::basic_ostream</text>
<text text-anchor="middle" x="69" y="-204.5" font-family="FreeSans" font-size="10.00" fill="#000000">&lt; Char &gt;</text>
</a>
</g>
</g>
<!-- Node4&#45;&gt;Node3 -->
<g id="edge3" class="edge">
<title>Node4&#45;&gt;Node3</title>
<path fill="none" stroke="#191970" d="M69,-187.0079C69,-177.8027 69,-167.7615 69,-159.6473"/>
<polygon fill="#191970" stroke="#191970" points="65.5001,-187.2646 69,-197.2646 72.5001,-187.2647 65.5001,-187.2646"/>
</g>
<!-- Node5 -->
<g id="node5" class="node">
<title>Node5</title>
<g id="a_node5"><a xlink:title="STL class.">
<polygon fill="none" stroke="#bfbfbf" points="4,-267.5 4,-287.5 134,-287.5 134,-267.5 4,-267.5"/>
<text text-anchor="middle" x="69" y="-274.5" font-family="FreeSans" font-size="10.00" fill="#000000">std::basic_ios&lt; Char &gt;</text>
</a>
</g>
</g>
<!-- Node5&#45;&gt;Node4 -->
<g id="edge4" class="edge">
<title>Node5&#45;&gt;Node4</title>
<path fill="none" stroke="#191970" d="M69,-256.9346C69,-248.0494 69,-237.8101 69,-229.5054"/>
<polygon fill="#191970" stroke="#191970" points="65.5001,-257.2173 69,-267.2173 72.5001,-257.2173 65.5001,-257.2173"/>
</g>
<!-- Node6 -->
<g id="node6" class="node">
<title>Node6</title>
<g id="a_node6"><a xlink:title="STL class.">
<polygon fill="none" stroke="#bfbfbf" points="28,-325.5 28,-345.5 110,-345.5 110,-325.5 28,-325.5"/>
<text text-anchor="middle" x="69" y="-332.5" font-family="FreeSans" font-size="10.00" fill="#000000">std::ios_base</text>
</a>
</g>
</g>
<!-- Node6&#45;&gt;Node5 -->
<g id="edge5" class="edge">
<title>Node6&#45;&gt;Node5</title>
<path fill="none" stroke="#191970" d="M69,-315.3902C69,-306.1201 69,-295.5083 69,-287.8776"/>
<polygon fill="#191970" stroke="#191970" points="65.5001,-315.3971 69,-325.3972 72.5001,-315.3972 65.5001,-315.3971"/>
</g>
</g>
</svg>
