<?xml version="1.0" encoding="UTF-8" standalone="no"?>
<!DOCTYPE svg PUBLIC "-//W3C//DTD SVG 1.1//EN"
 "http://www.w3.org/Graphics/SVG/1.1/DTD/svg11.dtd">
<!-- Generated by graphviz version 2.40.1 (20161225.0304)
 -->
<!-- Title: G4SDParticleFilter::Accept Pages: 1 -->
<svg width="281pt" height="170pt"
 viewBox="0.00 0.00 281.00 170.00" xmlns="http://www.w3.org/2000/svg" xmlns:xlink="http://www.w3.org/1999/xlink">
<g id="graph0" class="graph" transform="scale(1 1) rotate(0) translate(4 166)">
<title>G4SDParticleFilter::Accept</title>
<!-- Node1 -->
<g id="node1" class="node">
<title>Node1</title>
<polygon fill="#bfbfbf" stroke="#000000" points="0,-55.5 0,-87.5 107,-87.5 107,-55.5 0,-55.5"/>
<text text-anchor="start" x="8" y="-74.5" font-family="FreeSans" font-size="10.00" fill="#000000">G4SDParticleFilter</text>
<text text-anchor="middle" x="53.5" y="-62.5" font-family="FreeSans" font-size="10.00" fill="#000000">::Accept</text>
</g>
<!-- Node2 -->
<g id="node2" class="node">
<title>Node2</title>
<g id="a_node2"><a xlink:href="../../d5/d38/classG4ParticleDefinition.html#af6c9bdf842d9fff4f4a0c0622b366be4" target="_top" xlink:title="G4ParticleDefinition\l::GetAtomicMass">
<polygon fill="none" stroke="#000000" points="150,-129.5 150,-161.5 266,-161.5 266,-129.5 150,-129.5"/>
<text text-anchor="start" x="158" y="-148.5" font-family="FreeSans" font-size="10.00" fill="#000000">G4ParticleDefinition</text>
<text text-anchor="middle" x="208" y="-136.5" font-family="FreeSans" font-size="10.00" fill="#000000">::GetAtomicMass</text>
</a>
</g>
</g>
<!-- Node1&#45;&gt;Node2 -->
<g id="edge1" class="edge">
<title>Node1&#45;&gt;Node2</title>
<path fill="none" stroke="#191970" d="M80.8256,-87.7033C98.3022,-97.7532 121.6244,-110.5919 143,-120.5 146.7639,-122.2447 150.6866,-123.9708 154.6578,-125.6519"/>
<polygon fill="#191970" stroke="#191970" points="153.3807,-128.9111 163.9603,-129.4807 156.045,-122.438 153.3807,-128.9111"/>
</g>
<!-- Node3 -->
<g id="node3" class="node">
<title>Node3</title>
<g id="a_node3"><a xlink:href="../../d5/d38/classG4ParticleDefinition.html#a0f10c50f4f54b66eb46f0ad8c6f913ed" target="_top" xlink:title="G4ParticleDefinition\l::GetAtomicNumber">
<polygon fill="none" stroke="#000000" points="149.5,-78.5 149.5,-110.5 266.5,-110.5 266.5,-78.5 149.5,-78.5"/>
<text text-anchor="start" x="157.5" y="-97.5" font-family="FreeSans" font-size="10.00" fill="#000000">G4ParticleDefinition</text>
<text text-anchor="middle" x="208" y="-85.5" font-family="FreeSans" font-size="10.00" fill="#000000">::GetAtomicNumber</text>
</a>
</g>
</g>
<!-- Node1&#45;&gt;Node3 -->
<g id="edge2" class="edge">
<title>Node1&#45;&gt;Node3</title>
<path fill="none" stroke="#191970" d="M107.103,-79.4797C117.5793,-81.0393 128.6977,-82.6945 139.5794,-84.3144"/>
<polygon fill="#191970" stroke="#191970" points="139.0745,-87.7777 149.4809,-85.7884 140.1053,-80.854 139.0745,-87.7777"/>
</g>
<!-- Node4 -->
<g id="node4" class="node">
<title>Node4</title>
<g id="a_node4"><a xlink:href="../../d1/d33/classG4Track.html#aa5811897dbdf45b5b9c947dcdf0b4fb2" target="_top" xlink:title="G4Track::GetDefinition">
<polygon fill="none" stroke="#000000" points="143,-39.5 143,-59.5 273,-59.5 273,-39.5 143,-39.5"/>
<text text-anchor="middle" x="208" y="-46.5" font-family="FreeSans" font-size="10.00" fill="#000000">G4Track::GetDefinition</text>
</a>
</g>
</g>
<!-- Node1&#45;&gt;Node4 -->
<g id="edge3" class="edge">
<title>Node1&#45;&gt;Node4</title>
<path fill="none" stroke="#191970" d="M107.103,-63.8672C115.3718,-62.6898 124.0407,-61.4554 132.6774,-60.2255"/>
<polygon fill="#191970" stroke="#191970" points="133.3688,-63.6625 142.7755,-58.7876 132.3819,-56.7324 133.3688,-63.6625"/>
</g>
<!-- Node5 -->
<g id="node5" class="node">
<title>Node5</title>
<g id="a_node5"><a xlink:href="../../d9/d7a/classG4Step.html#a16f0fc39fe4f0f2b5615d7de1c586451" target="_top" xlink:title="G4Step::GetTrack">
<polygon fill="none" stroke="#000000" points="155.5,-.5 155.5,-20.5 260.5,-20.5 260.5,-.5 155.5,-.5"/>
<text text-anchor="middle" x="208" y="-7.5" font-family="FreeSans" font-size="10.00" fill="#000000">G4Step::GetTrack</text>
</a>
</g>
</g>
<!-- Node1&#45;&gt;Node5 -->
<g id="edge4" class="edge">
<title>Node1&#45;&gt;Node5</title>
<path fill="none" stroke="#191970" d="M85.795,-55.4629C102.6236,-47.4253 123.6751,-37.8631 143,-30.5 149.3009,-28.0992 156.0254,-25.7743 162.6709,-23.6108"/>
<polygon fill="#191970" stroke="#191970" points="163.8139,-26.9203 172.2922,-20.5666 161.7022,-20.2464 163.8139,-26.9203"/>
</g>
</g>
</svg>
