<?xml version="1.0" encoding="UTF-8" standalone="no"?>
<!DOCTYPE svg PUBLIC "-//W3C//DTD SVG 1.1//EN"
 "http://www.w3.org/Graphics/SVG/1.1/DTD/svg11.dtd">
<!-- Generated by graphviz version 2.40.1 (20161225.0304)
 -->
<!-- Title: G4TwistTubsSide::G4TwistTubsSide Pages: 1 -->
<svg width="1134pt" height="248pt"
 viewBox="0.00 0.00 1134.00 248.00" xmlns="http://www.w3.org/2000/svg" xmlns:xlink="http://www.w3.org/1999/xlink">
<g id="graph0" class="graph" transform="scale(1 1) rotate(0) translate(4 244)">
<title>G4TwistTubsSide::G4TwistTubsSide</title>
<!-- Node1 -->
<g id="node1" class="node">
<title>Node1</title>
<polygon fill="#bfbfbf" stroke="#000000" points="0,-110.5 0,-142.5 147,-142.5 147,-110.5 0,-110.5"/>
<text text-anchor="start" x="8" y="-129.5" font-family="FreeSans" font-size="10.00" fill="#000000">G4TwistTubsSide::G4Twist</text>
<text text-anchor="middle" x="73.5" y="-117.5" font-family="FreeSans" font-size="10.00" fill="#000000">TubsSide</text>
</g>
<!-- Node2 -->
<g id="node2" class="node">
<title>Node2</title>
<g id="a_node2"><a xlink:href="../../dd/d65/classCLHEP_1_1HepRotation.html#ac60c2a08a88c544733d840a166dcb7a8" target="_top" xlink:title="CLHEP::HepRotation\l::rotateZ">
<polygon fill="none" stroke="#000000" points="214.5,-175.5 214.5,-207.5 332.5,-207.5 332.5,-175.5 214.5,-175.5"/>
<text text-anchor="start" x="222.5" y="-194.5" font-family="FreeSans" font-size="10.00" fill="#000000">CLHEP::HepRotation</text>
<text text-anchor="middle" x="273.5" y="-182.5" font-family="FreeSans" font-size="10.00" fill="#000000">::rotateZ</text>
</a>
</g>
</g>
<!-- Node1&#45;&gt;Node2 -->
<g id="edge1" class="edge">
<title>Node1&#45;&gt;Node2</title>
<path fill="none" stroke="#191970" d="M115.0844,-142.5876C135.4259,-150.2266 160.3517,-159.2482 183,-166.5 189.9372,-168.7213 197.2102,-170.9288 204.4903,-173.0598"/>
<polygon fill="#191970" stroke="#191970" points="203.8131,-176.507 214.3913,-175.9122 205.751,-169.7806 203.8131,-176.507"/>
</g>
<!-- Node3 -->
<g id="node3" class="node">
<title>Node3</title>
<g id="a_node3"><a xlink:href="../../da/dcf/classCLHEP_1_1Hep3Vector.html#abd8b55ba393986873db4fe1a9b709ff9" target="_top" xlink:title="CLHEP::Hep3Vector::set">
<polygon fill="none" stroke="#000000" points="205,-136.5 205,-156.5 342,-156.5 342,-136.5 205,-136.5"/>
<text text-anchor="middle" x="273.5" y="-143.5" font-family="FreeSans" font-size="10.00" fill="#000000">CLHEP::Hep3Vector::set</text>
</a>
</g>
</g>
<!-- Node1&#45;&gt;Node3 -->
<g id="edge2" class="edge">
<title>Node1&#45;&gt;Node3</title>
<path fill="none" stroke="#191970" d="M147.1206,-133.8621C162.5615,-135.4061 178.9061,-137.0406 194.533,-138.6033"/>
<polygon fill="#191970" stroke="#191970" points="194.3831,-142.1057 204.6817,-139.6182 195.0797,-135.1404 194.3831,-142.1057"/>
</g>
<!-- Node4 -->
<g id="node4" class="node">
<title>Node4</title>
<g id="a_node4"><a xlink:href="../../dd/dcc/classG4TwistTubsSide.html#af03fc3f29afcdc1bd10673b6641f51c5" target="_top" xlink:title="G4TwistTubsSide::SetBoundaries">
<polygon fill="none" stroke="#000000" points="183,-97.5 183,-117.5 364,-117.5 364,-97.5 183,-97.5"/>
<text text-anchor="middle" x="273.5" y="-104.5" font-family="FreeSans" font-size="10.00" fill="#000000">G4TwistTubsSide::SetBoundaries</text>
</a>
</g>
</g>
<!-- Node1&#45;&gt;Node4 -->
<g id="edge3" class="edge">
<title>Node1&#45;&gt;Node4</title>
<path fill="none" stroke="#191970" d="M147.1206,-119.506C155.4462,-118.7151 164.0346,-117.8992 172.6315,-117.0825"/>
<polygon fill="#191970" stroke="#191970" points="173.0882,-120.555 182.7123,-116.1248 172.4261,-113.5863 173.0882,-120.555"/>
</g>
<!-- Node15 -->
<g id="node15" class="node">
<title>Node15</title>
<g id="a_node15"><a xlink:href="../../dd/dcc/classG4TwistTubsSide.html#a3edcc68d957ea0edece836684ef9de23" target="_top" xlink:title="G4TwistTubsSide::SetCorners">
<polygon fill="none" stroke="#000000" points="405,-.5 405,-20.5 568,-20.5 568,-.5 405,-.5"/>
<text text-anchor="middle" x="486.5" y="-7.5" font-family="FreeSans" font-size="10.00" fill="#000000">G4TwistTubsSide::SetCorners</text>
</a>
</g>
</g>
<!-- Node1&#45;&gt;Node15 -->
<g id="edge16" class="edge">
<title>Node1&#45;&gt;Node15</title>
<path fill="none" stroke="#191970" d="M117.1869,-110.4129C137.1316,-103.3083 161.1328,-95.092 183,-88.5 269.717,-62.3586 372.0015,-37.2303 432.9317,-22.853"/>
<polygon fill="#191970" stroke="#191970" points="433.7797,-26.2492 442.7133,-20.5535 432.1777,-19.4349 433.7797,-26.2492"/>
</g>
<!-- Node5 -->
<g id="node5" class="node">
<title>Node5</title>
<g id="a_node5"><a xlink:href="../../d1/d19/classG4VTwistSurface.html#ade5a8f99c6d887ab4a30cc804e03ac0f" target="_top" xlink:title="G4VTwistSurface::GetCorner">
<polygon fill="none" stroke="#000000" points="406.5,-156.5 406.5,-176.5 566.5,-176.5 566.5,-156.5 406.5,-156.5"/>
<text text-anchor="middle" x="486.5" y="-163.5" font-family="FreeSans" font-size="10.00" fill="#000000">G4VTwistSurface::GetCorner</text>
</a>
</g>
</g>
<!-- Node4&#45;&gt;Node5 -->
<g id="edge4" class="edge">
<title>Node4&#45;&gt;Node5</title>
<path fill="none" stroke="#191970" d="M330.7209,-117.5095C341.9285,-120.2036 353.4676,-123.5079 364,-127.5 381.1152,-133.9872 382.8807,-141.0238 400,-147.5 406.2803,-149.8758 412.9352,-151.994 419.6541,-153.8733"/>
<polygon fill="#191970" stroke="#191970" points="418.9469,-157.3061 429.5077,-156.4579 420.723,-150.5352 418.9469,-157.3061"/>
</g>
<!-- Node6 -->
<g id="node6" class="node">
<title>Node6</title>
<g id="a_node6"><a xlink:href="../../da/dcf/classCLHEP_1_1Hep3Vector.html#ae4a83ec7ab138bcf10beda58dfa76baf" target="_top" xlink:title="CLHEP::Hep3Vector::unit">
<polygon fill="none" stroke="#000000" points="416,-117.5 416,-137.5 557,-137.5 557,-117.5 416,-117.5"/>
<text text-anchor="middle" x="486.5" y="-124.5" font-family="FreeSans" font-size="10.00" fill="#000000">CLHEP::Hep3Vector::unit</text>
</a>
</g>
</g>
<!-- Node4&#45;&gt;Node6 -->
<g id="edge5" class="edge">
<title>Node4&#45;&gt;Node6</title>
<path fill="none" stroke="#191970" d="M364.14,-116.0108C377.9451,-117.3071 392.1139,-118.6375 405.6903,-119.9122"/>
<polygon fill="#191970" stroke="#191970" points="405.6575,-123.4245 415.941,-120.8747 406.312,-116.4551 405.6575,-123.4245"/>
</g>
<!-- Node7 -->
<g id="node7" class="node">
<title>Node7</title>
<g id="a_node7"><a xlink:href="../../d1/d19/classG4VTwistSurface.html#a9dcabd2199396f1ee9a4fa291df14007" target="_top" xlink:title="G4VTwistSurface::SetBoundary">
<polygon fill="none" stroke="#000000" points="400,-78.5 400,-98.5 573,-98.5 573,-78.5 400,-78.5"/>
<text text-anchor="middle" x="486.5" y="-85.5" font-family="FreeSans" font-size="10.00" fill="#000000">G4VTwistSurface::SetBoundary</text>
</a>
</g>
</g>
<!-- Node4&#45;&gt;Node7 -->
<g id="edge6" class="edge">
<title>Node4&#45;&gt;Node7</title>
<path fill="none" stroke="#191970" d="M364.14,-99.4147C372.5119,-98.668 381.0175,-97.9092 389.4437,-97.1576"/>
<polygon fill="#191970" stroke="#191970" points="390.0185,-100.6203 399.668,-96.2456 389.3965,-93.648 390.0185,-100.6203"/>
</g>
<!-- Node9 -->
<g id="node9" class="node">
<title>Node9</title>
<g id="a_node9"><a xlink:href="../../d5/d4f/G4Exception_8hh.html#ad36b5da5d062a20ca47b1c1f1ae353dd" target="_top" xlink:title="G4Exception">
<polygon fill="none" stroke="#000000" points="647.5,-36.5 647.5,-56.5 727.5,-56.5 727.5,-36.5 647.5,-36.5"/>
<text text-anchor="middle" x="687.5" y="-43.5" font-family="FreeSans" font-size="10.00" fill="#000000">G4Exception</text>
</a>
</g>
</g>
<!-- Node4&#45;&gt;Node9 -->
<g id="edge15" class="edge">
<title>Node4&#45;&gt;Node9</title>
<path fill="none" stroke="#191970" d="M300.2038,-97.359C325.5087,-88.209 364.7781,-75.1904 400,-68.5 481.9477,-52.934 579.02,-48.3111 636.8097,-46.9804"/>
<polygon fill="#191970" stroke="#191970" points="637.2047,-50.4731 647.1306,-46.7683 637.0608,-43.4746 637.2047,-50.4731"/>
</g>
<!-- Node10 -->
<g id="node10" class="node">
<title>Node10</title>
<g id="a_node10"><a xlink:href="../../d8/d3c/ts__scorers_8cc.html#ad81d1cdebbda7d39795160acd3aebd24" target="_top" xlink:title="message">
<polygon fill="none" stroke="#000000" points="656.5,-162.5 656.5,-182.5 718.5,-182.5 718.5,-162.5 656.5,-162.5"/>
<text text-anchor="middle" x="687.5" y="-169.5" font-family="FreeSans" font-size="10.00" fill="#000000">message</text>
</a>
</g>
</g>
<!-- Node4&#45;&gt;Node10 -->
<g id="edge14" class="edge">
<title>Node4&#45;&gt;Node10</title>
<path fill="none" stroke="#191970" d="M345.5044,-117.6449C352.0773,-120.2438 358.3696,-123.4786 364,-127.5 388.997,-145.3537 373.2129,-171.4648 400,-186.5 480.1626,-231.4941 593.57,-204.5961 651.0526,-185.893"/>
<polygon fill="#191970" stroke="#191970" points="652.4143,-189.128 660.7825,-182.63 650.1886,-182.4912 652.4143,-189.128"/>
</g>
<!-- Node8 -->
<g id="node8" class="node">
<title>Node8</title>
<g id="a_node8"><a xlink:href="../../d5/d81/classG4VTwistSurface_1_1Boundary.html#a7337614edc294ba4ab2949f2ed081ef5" target="_top" xlink:title="G4VTwistSurface::Boundary\l::SetFields">
<polygon fill="none" stroke="#000000" points="609,-75.5 609,-107.5 766,-107.5 766,-75.5 609,-75.5"/>
<text text-anchor="start" x="617" y="-94.5" font-family="FreeSans" font-size="10.00" fill="#000000">G4VTwistSurface::Boundary</text>
<text text-anchor="middle" x="687.5" y="-82.5" font-family="FreeSans" font-size="10.00" fill="#000000">::SetFields</text>
</a>
</g>
</g>
<!-- Node7&#45;&gt;Node8 -->
<g id="edge7" class="edge">
<title>Node7&#45;&gt;Node8</title>
<path fill="none" stroke="#191970" d="M573.2005,-89.794C581.5852,-89.9192 590.1005,-90.0463 598.507,-90.1717"/>
<polygon fill="#191970" stroke="#191970" points="598.6398,-93.674 608.691,-90.3237 598.7444,-86.6748 598.6398,-93.674"/>
</g>
<!-- Node7&#45;&gt;Node9 -->
<g id="edge8" class="edge">
<title>Node7&#45;&gt;Node9</title>
<path fill="none" stroke="#191970" d="M534.3891,-78.4933C565.5079,-71.9909 605.9988,-63.5301 637.5247,-56.9426"/>
<polygon fill="#191970" stroke="#191970" points="638.3494,-60.3459 647.4221,-54.8745 636.9176,-53.4939 638.3494,-60.3459"/>
</g>
<!-- Node7&#45;&gt;Node10 -->
<g id="edge9" class="edge">
<title>Node7&#45;&gt;Node10</title>
<path fill="none" stroke="#191970" d="M540.7354,-98.5628C551.5911,-101.2647 562.7909,-104.5584 573,-108.5 606.2362,-121.3321 641.6114,-142.3819 664.0989,-156.8133"/>
<polygon fill="#191970" stroke="#191970" points="662.3306,-159.8385 672.6205,-162.3625 666.1505,-153.9726 662.3306,-159.8385"/>
</g>
<!-- Node11 -->
<g id="node11" class="node">
<title>Node11</title>
<g id="a_node11"><a xlink:href="../../d7/d23/namespaceG4Threading.html#a457962a93ab41c7f9575dde6cbe9b78c" target="_top" xlink:title="G4Threading::G4GetNumber\lOfCores">
<polygon fill="none" stroke="#000000" points="802,-207.5 802,-239.5 964,-239.5 964,-207.5 802,-207.5"/>
<text text-anchor="start" x="810" y="-226.5" font-family="FreeSans" font-size="10.00" fill="#000000">G4Threading::G4GetNumber</text>
<text text-anchor="middle" x="883" y="-214.5" font-family="FreeSans" font-size="10.00" fill="#000000">OfCores</text>
</a>
</g>
</g>
<!-- Node10&#45;&gt;Node11 -->
<g id="edge10" class="edge">
<title>Node10&#45;&gt;Node11</title>
<path fill="none" stroke="#191970" d="M718.9105,-180.694C743.8538,-187.201 779.7091,-196.5546 811.5445,-204.8594"/>
<polygon fill="#191970" stroke="#191970" points="810.7192,-208.2612 821.2789,-207.3988 812.4862,-201.4879 810.7192,-208.2612"/>
</g>
<!-- Node12 -->
<g id="node12" class="node">
<title>Node12</title>
<g id="a_node12"><a xlink:href="../../d4/daa/classG4RunManager.html#a3a19f2283ba22cbee8ba640d160d2e7e" target="_top" xlink:title="G4RunManager::GetVerbose\lLevel">
<polygon fill="none" stroke="#000000" points="803.5,-156.5 803.5,-188.5 962.5,-188.5 962.5,-156.5 803.5,-156.5"/>
<text text-anchor="start" x="811.5" y="-175.5" font-family="FreeSans" font-size="10.00" fill="#000000">G4RunManager::GetVerbose</text>
<text text-anchor="middle" x="883" y="-163.5" font-family="FreeSans" font-size="10.00" fill="#000000">Level</text>
</a>
</g>
</g>
<!-- Node10&#45;&gt;Node12 -->
<g id="edge11" class="edge">
<title>Node10&#45;&gt;Node12</title>
<path fill="none" stroke="#191970" d="M718.9105,-172.5C739.1051,-172.5 766.4522,-172.5 793.0278,-172.5"/>
<polygon fill="#191970" stroke="#191970" points="793.1589,-176.0001 803.1588,-172.5 793.1588,-169.0001 793.1589,-176.0001"/>
</g>
<!-- Node13 -->
<g id="node13" class="node">
<title>Node13</title>
<g id="a_node13"><a xlink:href="../../d4/daa/classG4RunManager.html#a9e042965b0d460b1d492ab48de141b2a" target="_top" xlink:title="G4RunManager::SetVerbose\lLevel">
<polygon fill="none" stroke="#000000" points="804,-105.5 804,-137.5 962,-137.5 962,-105.5 804,-105.5"/>
<text text-anchor="start" x="812" y="-124.5" font-family="FreeSans" font-size="10.00" fill="#000000">G4RunManager::SetVerbose</text>
<text text-anchor="middle" x="883" y="-112.5" font-family="FreeSans" font-size="10.00" fill="#000000">Level</text>
</a>
</g>
</g>
<!-- Node10&#45;&gt;Node13 -->
<g id="edge12" class="edge">
<title>Node10&#45;&gt;Node13</title>
<path fill="none" stroke="#191970" d="M718.9105,-164.306C743.8538,-157.799 779.7091,-148.4454 811.5445,-140.1406"/>
<polygon fill="#191970" stroke="#191970" points="812.4862,-143.5121 821.2789,-137.6012 810.7192,-136.7388 812.4862,-143.5121"/>
</g>
<!-- Node14 -->
<g id="node14" class="node">
<title>Node14</title>
<g id="a_node14"><a xlink:href="../../de/d51/classG4RunManagerKernel.html#aea8a72d21f60b3e6436eed9b651dc247" target="_top" xlink:title="G4RunManagerKernel\l::SetVerboseLevel">
<polygon fill="none" stroke="#000000" points="1000,-105.5 1000,-137.5 1126,-137.5 1126,-105.5 1000,-105.5"/>
<text text-anchor="start" x="1008" y="-124.5" font-family="FreeSans" font-size="10.00" fill="#000000">G4RunManagerKernel</text>
<text text-anchor="middle" x="1063" y="-112.5" font-family="FreeSans" font-size="10.00" fill="#000000">::SetVerboseLevel</text>
</a>
</g>
</g>
<!-- Node13&#45;&gt;Node14 -->
<g id="edge13" class="edge">
<title>Node13&#45;&gt;Node14</title>
<path fill="none" stroke="#191970" d="M962.2126,-121.5C971.3955,-121.5 980.7304,-121.5 989.8275,-121.5"/>
<polygon fill="#191970" stroke="#191970" points="989.9766,-125.0001 999.9766,-121.5 989.9766,-118.0001 989.9766,-125.0001"/>
</g>
<!-- Node15&#45;&gt;Node9 -->
<g id="edge17" class="edge">
<title>Node15&#45;&gt;Node9</title>
<path fill="none" stroke="#191970" d="M542.4897,-20.528C572.3117,-25.8693 608.6864,-32.3841 637.5442,-37.5527"/>
<polygon fill="#191970" stroke="#191970" points="636.9546,-41.0027 647.415,-39.3206 638.1887,-34.1124 636.9546,-41.0027"/>
</g>
</g>
</svg>
