<?xml version="1.0" encoding="UTF-8" standalone="no"?>
<!DOCTYPE svg PUBLIC "-//W3C//DTD SVG 1.1//EN"
 "http://www.w3.org/Graphics/SVG/1.1/DTD/svg11.dtd">
<!-- Generated by graphviz version 2.40.1 (20161225.0304)
 -->
<!-- Title: G4ScreeningMottCrossSection::Initialise Pages: 1 -->
<svg width="2556pt" height="357pt"
 viewBox="0.00 0.00 2556.00 356.50" xmlns="http://www.w3.org/2000/svg" xmlns:xlink="http://www.w3.org/1999/xlink">
<g id="graph0" class="graph" transform="scale(1 1) rotate(0) translate(4 352.5)">
<title>G4ScreeningMottCrossSection::Initialise</title>
<!-- Node1 -->
<g id="node1" class="node">
<title>Node1</title>
<polygon fill="#bfbfbf" stroke="#000000" points="0,-95.5 0,-127.5 169,-127.5 169,-95.5 0,-95.5"/>
<text text-anchor="start" x="8" y="-114.5" font-family="FreeSans" font-size="10.00" fill="#000000">G4ScreeningMottCrossSection</text>
<text text-anchor="middle" x="84.5" y="-102.5" font-family="FreeSans" font-size="10.00" fill="#000000">::Initialise</text>
</g>
<!-- Node2 -->
<g id="node2" class="node">
<title>Node2</title>
<g id="a_node2"><a xlink:href="../../df/d59/classG4eSingleCoulombScatteringModel.html#aae6d7c5406bcb79bea3198fc6cc9d145" target="_top" xlink:title="G4eSingleCoulombScattering\lModel::Initialise">
<polygon fill="none" stroke="#000000" points="205,-121.5 205,-153.5 370,-153.5 370,-121.5 205,-121.5"/>
<text text-anchor="start" x="213" y="-140.5" font-family="FreeSans" font-size="10.00" fill="#000000">G4eSingleCoulombScattering</text>
<text text-anchor="middle" x="287.5" y="-128.5" font-family="FreeSans" font-size="10.00" fill="#000000">Model::Initialise</text>
</a>
</g>
</g>
<!-- Node1&#45;&gt;Node2 -->
<g id="edge1" class="edge">
<title>Node1&#45;&gt;Node2</title>
<path fill="none" stroke="#191970" d="M179.1858,-123.6272C187.7985,-124.7303 196.4769,-125.8419 204.9716,-126.9299"/>
<polygon fill="#191970" stroke="#191970" points="179.484,-120.1369 169.1203,-122.3381 178.5946,-127.0802 179.484,-120.1369"/>
</g>
<!-- Node3 -->
<g id="node3" class="node">
<title>Node3</title>
<g id="a_node3"><a xlink:href="../../d9/d5f/classG4WentzelOKandVIxSection.html#a53d2aa56a5128c80b6c04653c0f57089" target="_top" xlink:title="G4WentzelOKandVIxSection\l::Initialise">
<polygon fill="none" stroke="#000000" points="208.5,-70.5 208.5,-102.5 366.5,-102.5 366.5,-70.5 208.5,-70.5"/>
<text text-anchor="start" x="216.5" y="-89.5" font-family="FreeSans" font-size="10.00" fill="#000000">G4WentzelOKandVIxSection</text>
<text text-anchor="middle" x="287.5" y="-77.5" font-family="FreeSans" font-size="10.00" fill="#000000">::Initialise</text>
</a>
</g>
</g>
<!-- Node1&#45;&gt;Node3 -->
<g id="edge2" class="edge">
<title>Node1&#45;&gt;Node3</title>
<path fill="none" stroke="#191970" d="M179.1935,-99.8382C188.903,-98.6425 198.696,-97.4364 208.2149,-96.2642"/>
<polygon fill="#191970" stroke="#191970" points="178.6175,-96.3826 169.1203,-101.0788 179.4732,-103.3302 178.6175,-96.3826"/>
</g>
<!-- Node4 -->
<g id="node4" class="node">
<title>Node4</title>
<g id="a_node4"><a xlink:href="../../db/d99/classG4eCoulombScatteringModel.html#acbc812b1198eed6dd8796d4f97ec12b6" target="_top" xlink:title="G4eCoulombScatteringModel\l::Initialise">
<polygon fill="none" stroke="#000000" points="406,-121.5 406,-153.5 570,-153.5 570,-121.5 406,-121.5"/>
<text text-anchor="start" x="414" y="-140.5" font-family="FreeSans" font-size="10.00" fill="#000000">G4eCoulombScatteringModel</text>
<text text-anchor="middle" x="488" y="-128.5" font-family="FreeSans" font-size="10.00" fill="#000000">::Initialise</text>
</a>
</g>
</g>
<!-- Node3&#45;&gt;Node4 -->
<g id="edge3" class="edge">
<title>Node3&#45;&gt;Node4</title>
<path fill="none" stroke="#191970" d="M360.5261,-105.0752C381.5922,-110.4337 404.3937,-116.2336 424.8089,-121.4264"/>
<polygon fill="#191970" stroke="#191970" points="361.2185,-101.6399 350.6643,-102.5667 359.4928,-108.4239 361.2185,-101.6399"/>
</g>
<!-- Node5 -->
<g id="node5" class="node">
<title>Node5</title>
<g id="a_node5"><a xlink:href="../../d8/d6d/classG4hCoulombScatteringModel.html#ae485199e19951e84a867ff48a8f561ba" target="_top" xlink:title="G4hCoulombScatteringModel\l::Initialise">
<polygon fill="none" stroke="#000000" points="406,-70.5 406,-102.5 570,-102.5 570,-70.5 406,-70.5"/>
<text text-anchor="start" x="414" y="-89.5" font-family="FreeSans" font-size="10.00" fill="#000000">G4hCoulombScatteringModel</text>
<text text-anchor="middle" x="488" y="-77.5" font-family="FreeSans" font-size="10.00" fill="#000000">::Initialise</text>
</a>
</g>
</g>
<!-- Node3&#45;&gt;Node5 -->
<g id="edge4" class="edge">
<title>Node3&#45;&gt;Node5</title>
<path fill="none" stroke="#191970" d="M377.033,-86.5C386.5788,-86.5 396.2557,-86.5 405.7122,-86.5"/>
<polygon fill="#191970" stroke="#191970" points="376.7429,-83.0001 366.7429,-86.5 376.7429,-90.0001 376.7429,-83.0001"/>
</g>
<!-- Node6 -->
<g id="node6" class="node">
<title>Node6</title>
<g id="a_node6"><a xlink:href="../../d8/d2f/classG4WentzelVIModel.html#a776f3b62a8e5129361d5dc6636805356" target="_top" xlink:title="G4WentzelVIModel::Initialise">
<polygon fill="none" stroke="#000000" points="408,-31.5 408,-51.5 568,-51.5 568,-31.5 408,-31.5"/>
<text text-anchor="middle" x="488" y="-38.5" font-family="FreeSans" font-size="10.00" fill="#000000">G4WentzelVIModel::Initialise</text>
</a>
</g>
</g>
<!-- Node3&#45;&gt;Node6 -->
<g id="edge5" class="edge">
<title>Node3&#45;&gt;Node6</title>
<path fill="none" stroke="#191970" d="M369.04,-68.1993C394.4214,-62.5027 421.4618,-56.4337 443.3382,-51.5239"/>
<polygon fill="#191970" stroke="#191970" points="368.0267,-64.8395 359.036,-70.4445 369.5597,-71.6696 368.0267,-64.8395"/>
</g>
<!-- Node7 -->
<g id="node7" class="node">
<title>Node7</title>
<g id="a_node7"><a xlink:href="../../dc/dd9/classG4TablesForExtrapolator.html#a721be67f1a54942b53147602bbd023ba" target="_top" xlink:title="G4TablesForExtrapolator\l::ComputeTrasportXS">
<polygon fill="none" stroke="#000000" points="606,-51.5 606,-83.5 747,-83.5 747,-51.5 606,-51.5"/>
<text text-anchor="start" x="614" y="-70.5" font-family="FreeSans" font-size="10.00" fill="#000000">G4TablesForExtrapolator</text>
<text text-anchor="middle" x="676.5" y="-58.5" font-family="FreeSans" font-size="10.00" fill="#000000">::ComputeTrasportXS</text>
</a>
</g>
</g>
<!-- Node6&#45;&gt;Node7 -->
<g id="edge6" class="edge">
<title>Node6&#45;&gt;Node7</title>
<path fill="none" stroke="#191970" d="M570.7878,-52.919C582.4609,-54.5291 594.372,-56.172 605.7906,-57.747"/>
<polygon fill="#191970" stroke="#191970" points="570.9939,-49.4144 560.6094,-51.5151 570.0373,-56.3487 570.9939,-49.4144"/>
</g>
<!-- Node27 -->
<g id="node27" class="node">
<title>Node27</title>
<g id="a_node27"><a xlink:href="../../df/d39/classG4WentzelVIRelModel.html#a99f0b7c6cf20e6b6e55e9fb81eb6647a" target="_top" xlink:title="G4WentzelVIRelModel\l::Initialise">
<polygon fill="none" stroke="#000000" points="613,-.5 613,-32.5 740,-32.5 740,-.5 613,-.5"/>
<text text-anchor="start" x="621" y="-19.5" font-family="FreeSans" font-size="10.00" fill="#000000">G4WentzelVIRelModel</text>
<text text-anchor="middle" x="676.5" y="-7.5" font-family="FreeSans" font-size="10.00" fill="#000000">::Initialise</text>
</a>
</g>
</g>
<!-- Node6&#45;&gt;Node27 -->
<g id="edge35" class="edge">
<title>Node6&#45;&gt;Node27</title>
<path fill="none" stroke="#191970" d="M573.5868,-30.149C586.7478,-28.4035 600.1361,-26.6278 612.7133,-24.9598"/>
<polygon fill="#191970" stroke="#191970" points="573.037,-26.6911 563.584,-31.4756 573.9574,-33.6304 573.037,-26.6911"/>
</g>
<!-- Node8 -->
<g id="node8" class="node">
<title>Node8</title>
<g id="a_node8"><a xlink:href="../../dc/dd9/classG4TablesForExtrapolator.html#a174966c4aab7851aec39cf223c04c49e" target="_top" xlink:title="G4TablesForExtrapolator\l::Initialisation">
<polygon fill="none" stroke="#000000" points="783,-51.5 783,-83.5 924,-83.5 924,-51.5 783,-51.5"/>
<text text-anchor="start" x="791" y="-70.5" font-family="FreeSans" font-size="10.00" fill="#000000">G4TablesForExtrapolator</text>
<text text-anchor="middle" x="853.5" y="-58.5" font-family="FreeSans" font-size="10.00" fill="#000000">::Initialisation</text>
</a>
</g>
</g>
<!-- Node7&#45;&gt;Node8 -->
<g id="edge7" class="edge">
<title>Node7&#45;&gt;Node8</title>
<path fill="none" stroke="#191970" d="M757.4937,-67.5C765.9728,-67.5 774.5444,-67.5 782.8942,-67.5"/>
<polygon fill="#191970" stroke="#191970" points="757.2182,-64.0001 747.2182,-67.5 757.2181,-71.0001 757.2182,-64.0001"/>
</g>
<!-- Node9 -->
<g id="node9" class="node">
<title>Node9</title>
<g id="a_node9"><a xlink:href="../../da/de2/classG4EnergyLossForExtrapolator.html#aa13b7b10633a6d8c33436d3073c5703a" target="_top" xlink:title="G4EnergyLossForExtrapolator\l::BuildTables">
<polygon fill="none" stroke="#000000" points="960,-77.5 960,-109.5 1127,-109.5 1127,-77.5 960,-77.5"/>
<text text-anchor="start" x="968" y="-96.5" font-family="FreeSans" font-size="10.00" fill="#000000">G4EnergyLossForExtrapolator</text>
<text text-anchor="middle" x="1043.5" y="-84.5" font-family="FreeSans" font-size="10.00" fill="#000000">::BuildTables</text>
</a>
</g>
</g>
<!-- Node8&#45;&gt;Node9 -->
<g id="edge8" class="edge">
<title>Node8&#45;&gt;Node9</title>
<path fill="none" stroke="#191970" d="M934.4248,-78.5739C942.8435,-79.7259 951.4129,-80.8986 959.8608,-82.0546"/>
<polygon fill="#191970" stroke="#191970" points="934.6312,-75.0696 924.249,-77.1814 933.6821,-82.005 934.6312,-75.0696"/>
</g>
<!-- Node26 -->
<g id="node26" class="node">
<title>Node26</title>
<g id="a_node26"><a xlink:href="../../dc/dd9/classG4TablesForExtrapolator.html#a88db07b686cd332a9f712ed4a45d95c8" target="_top" xlink:title="G4TablesForExtrapolator\l::G4TablesForExtrapolator">
<polygon fill="none" stroke="#000000" points="969.5,-26.5 969.5,-58.5 1117.5,-58.5 1117.5,-26.5 969.5,-26.5"/>
<text text-anchor="start" x="977.5" y="-45.5" font-family="FreeSans" font-size="10.00" fill="#000000">G4TablesForExtrapolator</text>
<text text-anchor="middle" x="1043.5" y="-33.5" font-family="FreeSans" font-size="10.00" fill="#000000">::G4TablesForExtrapolator</text>
</a>
</g>
</g>
<!-- Node8&#45;&gt;Node26 -->
<g id="edge34" class="edge">
<title>Node8&#45;&gt;Node26</title>
<path fill="none" stroke="#191970" d="M934.3264,-56.8649C945.8981,-55.3424 957.7569,-53.782 969.1949,-52.277"/>
<polygon fill="#191970" stroke="#191970" points="933.7069,-53.4162 924.249,-58.1909 934.6202,-60.3564 933.7069,-53.4162"/>
</g>
<!-- Node10 -->
<g id="node10" class="node">
<title>Node10</title>
<g id="a_node10"><a xlink:href="../../da/de2/classG4EnergyLossForExtrapolator.html#a2469d740bba25f47a141a65707316dad" target="_top" xlink:title="G4EnergyLossForExtrapolator\l::Initialisation">
<polygon fill="none" stroke="#000000" points="1163,-77.5 1163,-109.5 1330,-109.5 1330,-77.5 1163,-77.5"/>
<text text-anchor="start" x="1171" y="-96.5" font-family="FreeSans" font-size="10.00" fill="#000000">G4EnergyLossForExtrapolator</text>
<text text-anchor="middle" x="1246.5" y="-84.5" font-family="FreeSans" font-size="10.00" fill="#000000">::Initialisation</text>
</a>
</g>
</g>
<!-- Node9&#45;&gt;Node10 -->
<g id="edge9" class="edge">
<title>Node9&#45;&gt;Node10</title>
<path fill="none" stroke="#191970" d="M1137.2558,-93.5C1145.8295,-93.5 1154.4773,-93.5 1162.9526,-93.5"/>
<polygon fill="#191970" stroke="#191970" points="1137.2399,-90.0001 1127.2399,-93.5 1137.2398,-97.0001 1137.2399,-90.0001"/>
</g>
<!-- Node11 -->
<g id="node11" class="node">
<title>Node11</title>
<g id="a_node11"><a xlink:href="../../da/de2/classG4EnergyLossForExtrapolator.html#ad14ca9754b75248c0d312cdb43720dae" target="_top" xlink:title="G4EnergyLossForExtrapolator\l::EnergyAfterStep">
<polygon fill="none" stroke="#000000" points="2178,-255.5 2178,-287.5 2345,-287.5 2345,-255.5 2178,-255.5"/>
<text text-anchor="start" x="2186" y="-274.5" font-family="FreeSans" font-size="10.00" fill="#000000">G4EnergyLossForExtrapolator</text>
<text text-anchor="middle" x="2261.5" y="-262.5" font-family="FreeSans" font-size="10.00" fill="#000000">::EnergyAfterStep</text>
</a>
</g>
</g>
<!-- Node10&#45;&gt;Node11 -->
<g id="edge10" class="edge">
<title>Node10&#45;&gt;Node11</title>
<path fill="none" stroke="#191970" d="M1266.3361,-117.7683C1320.7864,-181.457 1480.0377,-348.5 1652.5,-348.5 1652.5,-348.5 1652.5,-348.5 1855.5,-348.5 1983.9485,-348.5 2016.751,-338.9903 2142,-310.5 2167.9614,-304.5946 2196.3182,-295.4604 2218.8912,-287.5161"/>
<polygon fill="#191970" stroke="#191970" points="1268.7686,-115.2239 1259.644,-109.8393 1263.4192,-119.7388 1268.7686,-115.2239"/>
</g>
<!-- Node15 -->
<g id="node15" class="node">
<title>Node15</title>
<g id="a_node15"><a xlink:href="../../da/de2/classG4EnergyLossForExtrapolator.html#a696617cc14056b31669918a1f7db6b41" target="_top" xlink:title="G4EnergyLossForExtrapolator\l::EnergyBeforeStep">
<polygon fill="none" stroke="#000000" points="2178,-115.5 2178,-147.5 2345,-147.5 2345,-115.5 2178,-115.5"/>
<text text-anchor="start" x="2186" y="-134.5" font-family="FreeSans" font-size="10.00" fill="#000000">G4EnergyLossForExtrapolator</text>
<text text-anchor="middle" x="2261.5" y="-122.5" font-family="FreeSans" font-size="10.00" fill="#000000">::EnergyBeforeStep</text>
</a>
</g>
</g>
<!-- Node10&#45;&gt;Node15 -->
<g id="edge14" class="edge">
<title>Node10&#45;&gt;Node15</title>
<path fill="none" stroke="#191970" d="M1307.933,-74.6576C1386.8778,-52.1503 1528.5436,-17.5 1652.5,-17.5 1652.5,-17.5 1652.5,-17.5 1855.5,-17.5 1984.2595,-17.5 2030.7665,4.3546 2142,-60.5 2164.4274,-73.5763 2156.5563,-91.8664 2178,-106.5 2182.9997,-109.9119 2188.4756,-112.8679 2194.1567,-115.4272"/>
<polygon fill="#191970" stroke="#191970" points="1306.7942,-71.3433 1298.1541,-77.4752 1308.7323,-78.0697 1306.7942,-71.3433"/>
</g>
<!-- Node17 -->
<g id="node17" class="node">
<title>Node17</title>
<g id="a_node17"><a xlink:href="../../da/de2/classG4EnergyLossForExtrapolator.html#a6fb85ecb8a42ff1180824cc76a26cb0f" target="_top" xlink:title="G4EnergyLossForExtrapolator\l::SetupKinematics">
<polygon fill="none" stroke="#000000" points="1366,-137.5 1366,-169.5 1533,-169.5 1533,-137.5 1366,-137.5"/>
<text text-anchor="start" x="1374" y="-156.5" font-family="FreeSans" font-size="10.00" fill="#000000">G4EnergyLossForExtrapolator</text>
<text text-anchor="middle" x="1449.5" y="-144.5" font-family="FreeSans" font-size="10.00" fill="#000000">::SetupKinematics</text>
</a>
</g>
</g>
<!-- Node10&#45;&gt;Node17 -->
<g id="edge18" class="edge">
<title>Node10&#45;&gt;Node17</title>
<path fill="none" stroke="#191970" d="M1310.4549,-112.4029C1337.6757,-120.4485 1369.0903,-129.7336 1395.1649,-137.4404"/>
<polygon fill="#191970" stroke="#191970" points="1311.2156,-108.9781 1300.6336,-109.5001 1309.2314,-115.6911 1311.2156,-108.9781"/>
</g>
<!-- Node23 -->
<g id="node23" class="node">
<title>Node23</title>
<g id="a_node23"><a xlink:href="../../da/de2/classG4EnergyLossForExtrapolator.html#a0159186159b590367a48d4b85ec692e0" target="_top" xlink:title="G4EnergyLossForExtrapolator\l::TrueStepLength">
<polygon fill="none" stroke="#000000" points="1975,-70.5 1975,-102.5 2142,-102.5 2142,-70.5 1975,-70.5"/>
<text text-anchor="start" x="1983" y="-89.5" font-family="FreeSans" font-size="10.00" fill="#000000">G4EnergyLossForExtrapolator</text>
<text text-anchor="middle" x="2058.5" y="-77.5" font-family="FreeSans" font-size="10.00" fill="#000000">::TrueStepLength</text>
</a>
</g>
</g>
<!-- Node10&#45;&gt;Node23 -->
<g id="edge33" class="edge">
<title>Node10&#45;&gt;Node23</title>
<path fill="none" stroke="#191970" d="M1340.3423,-90.0697C1473.4887,-85.6444 1724.8691,-78.9172 1939,-82.5 1950.6229,-82.6945 1962.8791,-82.9953 1974.9353,-83.3466"/>
<polygon fill="#191970" stroke="#191970" points="1340.0565,-86.5773 1330.1795,-90.4107 1340.2913,-93.5733 1340.0565,-86.5773"/>
</g>
<!-- Node12 -->
<g id="node12" class="node">
<title>Node12</title>
<g id="a_node12"><a xlink:href="../../d9/d11/classG4ErrorEnergyLoss.html#a6cd08338c876907863c78a7f830a3537" target="_top" xlink:title="G4ErrorEnergyLoss::\lAlongStepDoIt">
<polygon fill="none" stroke="#000000" points="2405,-166.5 2405,-198.5 2524,-198.5 2524,-166.5 2405,-166.5"/>
<text text-anchor="start" x="2413" y="-185.5" font-family="FreeSans" font-size="10.00" fill="#000000">G4ErrorEnergyLoss::</text>
<text text-anchor="middle" x="2464.5" y="-173.5" font-family="FreeSans" font-size="10.00" fill="#000000">AlongStepDoIt</text>
</a>
</g>
</g>
<!-- Node11&#45;&gt;Node12 -->
<g id="edge11" class="edge">
<title>Node11&#45;&gt;Node12</title>
<path fill="none" stroke="#191970" d="M2297.6397,-250.2181C2320.9197,-237.0735 2352.1255,-220.4878 2381,-208.5 2389.5538,-204.9487 2398.7721,-201.6137 2407.8526,-198.5934"/>
<polygon fill="#191970" stroke="#191970" points="2295.7651,-247.258 2288.8119,-255.252 2299.2326,-253.3388 2295.7651,-247.258"/>
</g>
<!-- Node13 -->
<g id="node13" class="node">
<title>Node13</title>
<g id="a_node13"><a xlink:href="../../da/de2/classG4EnergyLossForExtrapolator.html#a9225030167b6d3784adfb14d2b5515c7" target="_top" xlink:title="G4EnergyLossForExtrapolator\l::EnergyAfterStep">
<polygon fill="none" stroke="#000000" points="2381,-268.5 2381,-300.5 2548,-300.5 2548,-268.5 2381,-268.5"/>
<text text-anchor="start" x="2389" y="-287.5" font-family="FreeSans" font-size="10.00" fill="#000000">G4EnergyLossForExtrapolator</text>
<text text-anchor="middle" x="2464.5" y="-275.5" font-family="FreeSans" font-size="10.00" fill="#000000">::EnergyAfterStep</text>
</a>
</g>
</g>
<!-- Node11&#45;&gt;Node13 -->
<g id="edge12" class="edge">
<title>Node11&#45;&gt;Node13</title>
<path fill="none" stroke="#191970" d="M2355.2558,-277.5041C2363.8295,-278.0531 2372.4773,-278.6069 2380.9526,-279.1497"/>
<polygon fill="#191970" stroke="#191970" points="2355.4431,-274.009 2345.2399,-276.8627 2354.9957,-280.9947 2355.4431,-274.009"/>
</g>
<!-- Node14 -->
<g id="node14" class="node">
<title>Node14</title>
<g id="a_node14"><a xlink:href="../../d9/d11/classG4ErrorEnergyLoss.html#a50c6b03ec237ac098af4855402483115" target="_top" xlink:title="G4ErrorEnergyLoss::\lGetContinuousStepLimit">
<polygon fill="none" stroke="#000000" points="2394.5,-217.5 2394.5,-249.5 2534.5,-249.5 2534.5,-217.5 2394.5,-217.5"/>
<text text-anchor="start" x="2402.5" y="-236.5" font-family="FreeSans" font-size="10.00" fill="#000000">G4ErrorEnergyLoss::</text>
<text text-anchor="middle" x="2464.5" y="-224.5" font-family="FreeSans" font-size="10.00" fill="#000000">GetContinuousStepLimit</text>
</a>
</g>
</g>
<!-- Node11&#45;&gt;Node14 -->
<g id="edge13" class="edge">
<title>Node11&#45;&gt;Node14</title>
<path fill="none" stroke="#191970" d="M2355.2196,-253.9564C2368.3334,-251.5016 2381.6215,-249.0142 2394.2013,-246.6594"/>
<polygon fill="#191970" stroke="#191970" points="2354.4251,-250.5443 2345.2399,-255.8246 2355.7132,-257.4248 2354.4251,-250.5443"/>
</g>
<!-- Node15&#45;&gt;Node12 -->
<g id="edge15" class="edge">
<title>Node15&#45;&gt;Node12</title>
<path fill="none" stroke="#191970" d="M2335.4142,-150.0696C2358.1884,-155.7912 2382.9676,-162.0165 2404.6709,-167.4691"/>
<polygon fill="#191970" stroke="#191970" points="2336.0033,-146.6089 2325.4518,-147.5667 2334.2976,-153.3979 2336.0033,-146.6089"/>
</g>
<!-- Node15&#45;&gt;Node14 -->
<g id="edge17" class="edge">
<title>Node15&#45;&gt;Node14</title>
<path fill="none" stroke="#191970" d="M2313.1014,-151.8944C2324.0692,-157.2287 2335.2664,-163.482 2345,-170.5 2363.8709,-184.1061 2361.1867,-196.307 2381,-208.5 2386.5416,-211.9103 2392.5774,-214.8803 2398.7851,-217.4617"/>
<polygon fill="#191970" stroke="#191970" points="2314.5212,-148.6946 2303.9796,-147.6331 2311.5584,-155.0367 2314.5212,-148.6946"/>
</g>
<!-- Node16 -->
<g id="node16" class="node">
<title>Node16</title>
<g id="a_node16"><a xlink:href="../../da/de2/classG4EnergyLossForExtrapolator.html#a7c8d34b3555e1710916257ef649112aa" target="_top" xlink:title="G4EnergyLossForExtrapolator\l::EnergyBeforeStep">
<polygon fill="none" stroke="#000000" points="2381,-115.5 2381,-147.5 2548,-147.5 2548,-115.5 2381,-115.5"/>
<text text-anchor="start" x="2389" y="-134.5" font-family="FreeSans" font-size="10.00" fill="#000000">G4EnergyLossForExtrapolator</text>
<text text-anchor="middle" x="2464.5" y="-122.5" font-family="FreeSans" font-size="10.00" fill="#000000">::EnergyBeforeStep</text>
</a>
</g>
</g>
<!-- Node15&#45;&gt;Node16 -->
<g id="edge16" class="edge">
<title>Node15&#45;&gt;Node16</title>
<path fill="none" stroke="#191970" d="M2355.2558,-131.5C2363.8295,-131.5 2372.4773,-131.5 2380.9526,-131.5"/>
<polygon fill="#191970" stroke="#191970" points="2355.2399,-128.0001 2345.2399,-131.5 2355.2398,-135.0001 2355.2399,-128.0001"/>
</g>
<!-- Node17&#45;&gt;Node11 -->
<g id="edge29" class="edge">
<title>Node17&#45;&gt;Node11</title>
<path fill="none" stroke="#191970" d="M1472.594,-176.6352C1495.1412,-197.7278 1531.4527,-227.9033 1569,-243.5 1774.1527,-328.7181 2043.5777,-305.5824 2177.8664,-286.0571"/>
<polygon fill="#191970" stroke="#191970" points="1474.8642,-173.9638 1465.2133,-169.5922 1470.0316,-179.028 1474.8642,-173.9638"/>
</g>
<!-- Node17&#45;&gt;Node15 -->
<g id="edge30" class="edge">
<title>Node17&#45;&gt;Node15</title>
<path fill="none" stroke="#191970" d="M1543.6297,-150.9497C1703.4599,-146.6193 2025.3729,-137.8975 2177.8127,-133.7674"/>
<polygon fill="#191970" stroke="#191970" points="1543.2414,-147.4588 1533.3399,-151.2285 1543.4311,-154.4563 1543.2414,-147.4588"/>
</g>
<!-- Node18 -->
<g id="node18" class="node">
<title>Node18</title>
<g id="a_node18"><a xlink:href="../../da/de2/classG4EnergyLossForExtrapolator.html#aa5117e9038b4b8035cbe8867ae22fa21" target="_top" xlink:title="G4EnergyLossForExtrapolator\l::AverageScatteringAngle">
<polygon fill="none" stroke="#000000" points="1569,-160.5 1569,-192.5 1736,-192.5 1736,-160.5 1569,-160.5"/>
<text text-anchor="start" x="1577" y="-179.5" font-family="FreeSans" font-size="10.00" fill="#000000">G4EnergyLossForExtrapolator</text>
<text text-anchor="middle" x="1652.5" y="-167.5" font-family="FreeSans" font-size="10.00" fill="#000000">::AverageScatteringAngle</text>
</a>
</g>
</g>
<!-- Node17&#45;&gt;Node18 -->
<g id="edge19" class="edge">
<title>Node17&#45;&gt;Node18</title>
<path fill="none" stroke="#191970" d="M1543.2558,-164.1226C1551.8295,-165.094 1560.4773,-166.0738 1568.9526,-167.034"/>
<polygon fill="#191970" stroke="#191970" points="1543.5704,-160.6359 1533.2399,-162.9878 1542.7822,-167.5914 1543.5704,-160.6359"/>
</g>
<!-- Node21 -->
<g id="node21" class="node">
<title>Node21</title>
<g id="a_node21"><a xlink:href="../../da/de2/classG4EnergyLossForExtrapolator.html#a10c4ae346f7dbd49b65c971f824c1522" target="_top" xlink:title="G4EnergyLossForExtrapolator\l::EnergyDispersion">
<polygon fill="none" stroke="#000000" points="1975,-179.5 1975,-211.5 2142,-211.5 2142,-179.5 1975,-179.5"/>
<text text-anchor="start" x="1983" y="-198.5" font-family="FreeSans" font-size="10.00" fill="#000000">G4EnergyLossForExtrapolator</text>
<text text-anchor="middle" x="2058.5" y="-186.5" font-family="FreeSans" font-size="10.00" fill="#000000">::EnergyDispersion</text>
</a>
</g>
</g>
<!-- Node17&#45;&gt;Node21 -->
<g id="edge31" class="edge">
<title>Node17&#45;&gt;Node21</title>
<path fill="none" stroke="#191970" d="M1490.6362,-173.8557C1574.9925,-212.9687 1773.5616,-291.527 1939,-253.5 1973.8362,-245.4927 2010.2957,-225.9194 2033.6422,-211.7212"/>
<polygon fill="#191970" stroke="#191970" points="1491.9397,-170.6012 1481.4003,-169.5182 1488.964,-176.9372 1491.9397,-170.6012"/>
</g>
<!-- Node17&#45;&gt;Node23 -->
<g id="edge32" class="edge">
<title>Node17&#45;&gt;Node23</title>
<path fill="none" stroke="#191970" d="M1503.6879,-134.3067C1523.934,-127.9003 1547.283,-121.4053 1569,-117.5 1709.7984,-92.1805 1876.6089,-86.7422 1974.6539,-85.9953"/>
<polygon fill="#191970" stroke="#191970" points="1502.4573,-131.0261 1494.0189,-137.4327 1504.6107,-137.6866 1502.4573,-131.0261"/>
</g>
<!-- Node19 -->
<g id="node19" class="node">
<title>Node19</title>
<g id="a_node19"><a xlink:href="../../da/de2/classG4EnergyLossForExtrapolator.html#a15587285d4f3df572c868e8c49b26a01" target="_top" xlink:title="G4EnergyLossForExtrapolator\l::AverageScatteringAngle">
<polygon fill="none" stroke="#000000" points="1772,-211.5 1772,-243.5 1939,-243.5 1939,-211.5 1772,-211.5"/>
<text text-anchor="start" x="1780" y="-230.5" font-family="FreeSans" font-size="10.00" fill="#000000">G4EnergyLossForExtrapolator</text>
<text text-anchor="middle" x="1855.5" y="-218.5" font-family="FreeSans" font-size="10.00" fill="#000000">::AverageScatteringAngle</text>
</a>
</g>
</g>
<!-- Node18&#45;&gt;Node19 -->
<g id="edge20" class="edge">
<title>Node18&#45;&gt;Node19</title>
<path fill="none" stroke="#191970" d="M1726.4366,-195.0752C1747.7654,-200.4337 1770.8512,-206.2336 1791.521,-211.4264"/>
<polygon fill="#191970" stroke="#191970" points="1727.0033,-191.6089 1716.4518,-192.5667 1725.2976,-198.3979 1727.0033,-191.6089"/>
</g>
<!-- Node20 -->
<g id="node20" class="node">
<title>Node20</title>
<g id="a_node20"><a xlink:href="../../da/de2/classG4EnergyLossForExtrapolator.html#acd6e6295b395b59336c36ac92419c00f" target="_top" xlink:title="G4EnergyLossForExtrapolator\l::ComputeTrueStep">
<polygon fill="none" stroke="#000000" points="1772,-160.5 1772,-192.5 1939,-192.5 1939,-160.5 1772,-160.5"/>
<text text-anchor="start" x="1780" y="-179.5" font-family="FreeSans" font-size="10.00" fill="#000000">G4EnergyLossForExtrapolator</text>
<text text-anchor="middle" x="1855.5" y="-167.5" font-family="FreeSans" font-size="10.00" fill="#000000">::ComputeTrueStep</text>
</a>
</g>
</g>
<!-- Node18&#45;&gt;Node20 -->
<g id="edge21" class="edge">
<title>Node18&#45;&gt;Node20</title>
<path fill="none" stroke="#191970" d="M1746.2558,-176.5C1754.8295,-176.5 1763.4773,-176.5 1771.9526,-176.5"/>
<polygon fill="#191970" stroke="#191970" points="1746.2399,-173.0001 1736.2399,-176.5 1746.2398,-180.0001 1746.2399,-173.0001"/>
</g>
<!-- Node20&#45;&gt;Node21 -->
<g id="edge22" class="edge">
<title>Node20&#45;&gt;Node21</title>
<path fill="none" stroke="#191970" d="M1949.2558,-185.2752C1957.8295,-186.0776 1966.4773,-186.887 1974.9526,-187.6803"/>
<polygon fill="#191970" stroke="#191970" points="1949.5226,-181.7849 1939.2399,-184.3377 1948.8702,-188.7545 1949.5226,-181.7849"/>
</g>
<!-- Node20&#45;&gt;Node23 -->
<g id="edge24" class="edge">
<title>Node20&#45;&gt;Node23</title>
<path fill="none" stroke="#191970" d="M1901.2366,-156.2227C1937.7979,-140.0132 1988.357,-117.5979 2022.1802,-102.6024"/>
<polygon fill="#191970" stroke="#191970" points="1899.5156,-153.1571 1891.7923,-160.4098 1902.3527,-159.5564 1899.5156,-153.1571"/>
</g>
<!-- Node22 -->
<g id="node22" class="node">
<title>Node22</title>
<g id="a_node22"><a xlink:href="../../da/de2/classG4EnergyLossForExtrapolator.html#ae3e9f7e6d77d6e168ececda93f01b9b8" target="_top" xlink:title="G4EnergyLossForExtrapolator\l::EnergyDispersion">
<polygon fill="none" stroke="#000000" points="2178,-179.5 2178,-211.5 2345,-211.5 2345,-179.5 2178,-179.5"/>
<text text-anchor="start" x="2186" y="-198.5" font-family="FreeSans" font-size="10.00" fill="#000000">G4EnergyLossForExtrapolator</text>
<text text-anchor="middle" x="2261.5" y="-186.5" font-family="FreeSans" font-size="10.00" fill="#000000">::EnergyDispersion</text>
</a>
</g>
</g>
<!-- Node21&#45;&gt;Node22 -->
<g id="edge23" class="edge">
<title>Node21&#45;&gt;Node22</title>
<path fill="none" stroke="#191970" d="M2152.2558,-195.5C2160.8295,-195.5 2169.4773,-195.5 2177.9526,-195.5"/>
<polygon fill="#191970" stroke="#191970" points="2152.2399,-192.0001 2142.2399,-195.5 2152.2398,-199.0001 2152.2399,-192.0001"/>
</g>
<!-- Node23&#45;&gt;Node11 -->
<g id="edge25" class="edge">
<title>Node23&#45;&gt;Node11</title>
<path fill="none" stroke="#191970" d="M2083.7795,-109.7791C2100.9515,-126.0966 2123.7666,-148.7882 2142,-170.5 2159.8427,-191.7466 2157.6585,-202.632 2178,-221.5 2192.6179,-235.0591 2211.5007,-246.7415 2227.6108,-255.3966"/>
<polygon fill="#191970" stroke="#191970" points="2086.0028,-107.0651 2076.3235,-102.7568 2081.2035,-112.1609 2086.0028,-107.0651"/>
</g>
<!-- Node23&#45;&gt;Node15 -->
<g id="edge26" class="edge">
<title>Node23&#45;&gt;Node15</title>
<path fill="none" stroke="#191970" d="M2140.7893,-104.7415C2156.7884,-108.2881 2173.4484,-111.9812 2189.1,-115.4507"/>
<polygon fill="#191970" stroke="#191970" points="2141.4484,-101.3027 2130.9279,-102.5555 2139.9334,-108.1368 2141.4484,-101.3027"/>
</g>
<!-- Node24 -->
<g id="node24" class="node">
<title>Node24</title>
<g id="a_node24"><a xlink:href="../../da/d76/classG4EnergySplitter.html#ab21723d5a691168fffee8d7dc66539b9" target="_top" xlink:title="G4EnergySplitter::SplitEnergy\lInVolumes">
<polygon fill="none" stroke="#000000" points="2178,-64.5 2178,-96.5 2345,-96.5 2345,-64.5 2178,-64.5"/>
<text text-anchor="start" x="2186" y="-83.5" font-family="FreeSans" font-size="10.00" fill="#000000">G4EnergySplitter::SplitEnergy</text>
<text text-anchor="middle" x="2261.5" y="-71.5" font-family="FreeSans" font-size="10.00" fill="#000000">InVolumes</text>
</a>
</g>
</g>
<!-- Node23&#45;&gt;Node24 -->
<g id="edge27" class="edge">
<title>Node23&#45;&gt;Node24</title>
<path fill="none" stroke="#191970" d="M2152.2558,-83.7289C2160.8295,-83.4755 2169.4773,-83.2199 2177.9526,-82.9694"/>
<polygon fill="#191970" stroke="#191970" points="2152.1321,-80.2309 2142.2399,-84.0249 2152.3389,-87.2279 2152.1321,-80.2309"/>
</g>
<!-- Node25 -->
<g id="node25" class="node">
<title>Node25</title>
<g id="a_node25"><a xlink:href="../../dd/d79/classG4ScoreSplittingProcess.html#a360c639b35f911e9708a32b88a8e4aee" target="_top" xlink:title="G4ScoreSplittingProcess\l::PostStepDoIt">
<polygon fill="none" stroke="#000000" points="2395,-64.5 2395,-96.5 2534,-96.5 2534,-64.5 2395,-64.5"/>
<text text-anchor="start" x="2403" y="-83.5" font-family="FreeSans" font-size="10.00" fill="#000000">G4ScoreSplittingProcess</text>
<text text-anchor="middle" x="2464.5" y="-71.5" font-family="FreeSans" font-size="10.00" fill="#000000">::PostStepDoIt</text>
</a>
</g>
</g>
<!-- Node24&#45;&gt;Node25 -->
<g id="edge28" class="edge">
<title>Node24&#45;&gt;Node25</title>
<path fill="none" stroke="#191970" d="M2355.3542,-80.5C2368.6453,-80.5 2382.1122,-80.5 2394.8364,-80.5"/>
<polygon fill="#191970" stroke="#191970" points="2355.2399,-77.0001 2345.2399,-80.5 2355.2398,-84.0001 2355.2399,-77.0001"/>
</g>
</g>
</svg>
