<?xml version="1.0" encoding="UTF-8" standalone="no"?>
<!DOCTYPE svg PUBLIC "-//W3C//DTD SVG 1.1//EN"
 "http://www.w3.org/Graphics/SVG/1.1/DTD/svg11.dtd">
<!-- Generated by graphviz version 2.40.1 (20161225.0304)
 -->
<!-- Title: G4ITSafetyHelper::Locate Pages: 1 -->
<svg width="1052pt" height="236pt"
 viewBox="0.00 0.00 1052.00 236.00" xmlns="http://www.w3.org/2000/svg" xmlns:xlink="http://www.w3.org/1999/xlink">
<g id="graph0" class="graph" transform="scale(1 1) rotate(0) translate(4 232)">
<title>G4ITSafetyHelper::Locate</title>
<!-- Node1 -->
<g id="node1" class="node">
<title>Node1</title>
<polygon fill="#bfbfbf" stroke="#000000" points="0,-117.5 0,-137.5 145,-137.5 145,-117.5 0,-117.5"/>
<text text-anchor="middle" x="72.5" y="-124.5" font-family="FreeSans" font-size="10.00" fill="#000000">G4ITSafetyHelper::Locate</text>
</g>
<!-- Node2 -->
<g id="node2" class="node">
<title>Node2</title>
<g id="a_node2"><a xlink:href="../../dd/dfc/classG4PathFinder.html#a7c534ebc249595172cf228a48ebb888d" target="_top" xlink:title="G4PathFinder::Locate">
<polygon fill="none" stroke="#000000" points="181,-117.5 181,-137.5 304,-137.5 304,-117.5 181,-117.5"/>
<text text-anchor="middle" x="242.5" y="-124.5" font-family="FreeSans" font-size="10.00" fill="#000000">G4PathFinder::Locate</text>
</a>
</g>
</g>
<!-- Node1&#45;&gt;Node2 -->
<g id="edge1" class="edge">
<title>Node1&#45;&gt;Node2</title>
<path fill="none" stroke="#191970" d="M145.0884,-127.5C153.5573,-127.5 162.1943,-127.5 170.6531,-127.5"/>
<polygon fill="#191970" stroke="#191970" points="170.8595,-131.0001 180.8594,-127.5 170.8594,-124.0001 170.8595,-131.0001"/>
</g>
<!-- Node3 -->
<g id="node3" class="node">
<title>Node3</title>
<g id="a_node3"><a xlink:href="../../d2/d54/templates_8hh.html#a8108dbac66a414c0760f65eb9523ad41" target="_top" xlink:title="sqr">
<polygon fill="none" stroke="#000000" points="406.5,-207.5 406.5,-227.5 438.5,-227.5 438.5,-207.5 406.5,-207.5"/>
<text text-anchor="middle" x="422.5" y="-214.5" font-family="FreeSans" font-size="10.00" fill="#000000">sqr</text>
</a>
</g>
</g>
<!-- Node2&#45;&gt;Node3 -->
<g id="edge2" class="edge">
<title>Node2&#45;&gt;Node3</title>
<path fill="none" stroke="#191970" d="M253.2579,-137.6485C270.2935,-153.1507 305.1352,-182.5996 340,-198.5 357.8809,-206.6547 379.5896,-211.4742 396.2495,-214.2178"/>
<polygon fill="#191970" stroke="#191970" points="395.9692,-217.7148 406.3774,-215.7352 397.0064,-210.7921 395.9692,-217.7148"/>
</g>
<!-- Node4 -->
<g id="node4" class="node">
<title>Node4</title>
<g id="a_node4"><a xlink:href="../../d1/dd0/classG4TransportationManager.html#ada2d42372c2dd53e07a1fe2ced036119" target="_top" xlink:title="G4TransportationManager\l::GetActiveNavigatorsIterator">
<polygon fill="none" stroke="#000000" points="340,-156.5 340,-188.5 505,-188.5 505,-156.5 340,-156.5"/>
<text text-anchor="start" x="348" y="-175.5" font-family="FreeSans" font-size="10.00" fill="#000000">G4TransportationManager</text>
<text text-anchor="middle" x="422.5" y="-163.5" font-family="FreeSans" font-size="10.00" fill="#000000">::GetActiveNavigatorsIterator</text>
</a>
</g>
</g>
<!-- Node2&#45;&gt;Node4 -->
<g id="edge3" class="edge">
<title>Node2&#45;&gt;Node4</title>
<path fill="none" stroke="#191970" d="M282.8955,-137.5989C302.2178,-142.4294 325.9761,-148.369 348.3789,-153.9697"/>
<polygon fill="#191970" stroke="#191970" points="347.6664,-157.3992 358.2167,-156.4292 349.3642,-150.6082 347.6664,-157.3992"/>
</g>
<!-- Node5 -->
<g id="node5" class="node">
<title>Node5</title>
<g id="a_node5"><a xlink:href="../../d5/d40/classG4FieldTrack.html#a122ded2912adbdf734036c7e859fd0f9" target="_top" xlink:title="G4FieldTrack::GetPosition">
<polygon fill="none" stroke="#000000" points="350.5,-117.5 350.5,-137.5 494.5,-137.5 494.5,-117.5 350.5,-117.5"/>
<text text-anchor="middle" x="422.5" y="-124.5" font-family="FreeSans" font-size="10.00" fill="#000000">G4FieldTrack::GetPosition</text>
</a>
</g>
</g>
<!-- Node2&#45;&gt;Node5 -->
<g id="edge4" class="edge">
<title>Node2&#45;&gt;Node5</title>
<path fill="none" stroke="#191970" d="M304.194,-127.5C315.8021,-127.5 328.1098,-127.5 340.2291,-127.5"/>
<polygon fill="#191970" stroke="#191970" points="340.3455,-131.0001 350.3455,-127.5 340.3455,-124.0001 340.3455,-131.0001"/>
</g>
<!-- Node6 -->
<g id="node6" class="node">
<title>Node6</title>
<g id="a_node6"><a xlink:href="../../da/dcf/classCLHEP_1_1Hep3Vector.html#a7aa4cc075d04401cf3aadb8bd30f4aa2" target="_top" xlink:title="CLHEP::Hep3Vector::mag2">
<polygon fill="none" stroke="#000000" points="347.5,-78.5 347.5,-98.5 497.5,-98.5 497.5,-78.5 347.5,-78.5"/>
<text text-anchor="middle" x="422.5" y="-85.5" font-family="FreeSans" font-size="10.00" fill="#000000">CLHEP::Hep3Vector::mag2</text>
</a>
</g>
</g>
<!-- Node2&#45;&gt;Node6 -->
<g id="edge5" class="edge">
<title>Node2&#45;&gt;Node6</title>
<path fill="none" stroke="#191970" d="M288.8545,-117.4565C312.4748,-112.3388 341.3872,-106.0744 366.2711,-100.6829"/>
<polygon fill="#191970" stroke="#191970" points="367.2705,-104.0477 376.3026,-98.5094 365.7882,-97.2064 367.2705,-104.0477"/>
</g>
<!-- Node7 -->
<g id="node7" class="node">
<title>Node7</title>
<g id="a_node7"><a xlink:href="../../dd/dfc/classG4PathFinder.html#ad064b710aa989c4bf3822a51d3e7cf8a" target="_top" xlink:title="G4PathFinder::ReportMove">
<polygon fill="none" stroke="#000000" points="347,-39.5 347,-59.5 498,-59.5 498,-39.5 347,-39.5"/>
<text text-anchor="middle" x="422.5" y="-46.5" font-family="FreeSans" font-size="10.00" fill="#000000">G4PathFinder::ReportMove</text>
</a>
</g>
</g>
<!-- Node2&#45;&gt;Node7 -->
<g id="edge6" class="edge">
<title>Node2&#45;&gt;Node7</title>
<path fill="none" stroke="#191970" d="M256.3346,-117.4433C274.6285,-104.5853 308.2671,-82.4416 340,-69.5 346.6612,-66.7834 353.7816,-64.3756 360.9439,-62.2576"/>
<polygon fill="#191970" stroke="#191970" points="361.9995,-65.597 370.6974,-59.5474 360.1254,-58.8525 361.9995,-65.597"/>
</g>
<!-- Node8 -->
<g id="node8" class="node">
<title>Node8</title>
<g id="a_node8"><a xlink:href="../../d8/d3c/ts__scorers_8cc.html#ad81d1cdebbda7d39795160acd3aebd24" target="_top" xlink:title="message">
<polygon fill="none" stroke="#000000" points="581.5,-78.5 581.5,-98.5 643.5,-98.5 643.5,-78.5 581.5,-78.5"/>
<text text-anchor="middle" x="612.5" y="-85.5" font-family="FreeSans" font-size="10.00" fill="#000000">message</text>
</a>
</g>
</g>
<!-- Node7&#45;&gt;Node8 -->
<g id="edge7" class="edge">
<title>Node7&#45;&gt;Node8</title>
<path fill="none" stroke="#191970" d="M471.4297,-59.5435C502.4118,-65.903 542.0197,-74.033 571.3751,-80.0586"/>
<polygon fill="#191970" stroke="#191970" points="570.8004,-83.5135 581.2999,-82.0958 572.2079,-76.6565 570.8004,-83.5135"/>
</g>
<!-- Node13 -->
<g id="node13" class="node">
<title>Node13</title>
<g id="a_node13"><a xlink:href="../../da/dcf/classCLHEP_1_1Hep3Vector.html#aeef00a2607300d7c8e7fb8fd6e520102" target="_top" xlink:title="CLHEP::Hep3Vector::mag">
<polygon fill="none" stroke="#000000" points="541,-39.5 541,-59.5 684,-59.5 684,-39.5 541,-39.5"/>
<text text-anchor="middle" x="612.5" y="-46.5" font-family="FreeSans" font-size="10.00" fill="#000000">CLHEP::Hep3Vector::mag</text>
</a>
</g>
</g>
<!-- Node7&#45;&gt;Node13 -->
<g id="edge12" class="edge">
<title>Node7&#45;&gt;Node13</title>
<path fill="none" stroke="#191970" d="M498.139,-49.5C508.8045,-49.5 519.81,-49.5 530.5866,-49.5"/>
<polygon fill="#191970" stroke="#191970" points="530.83,-53.0001 540.8299,-49.5 530.8299,-46.0001 530.83,-53.0001"/>
</g>
<!-- Node14 -->
<g id="node14" class="node">
<title>Node14</title>
<g id="a_node14"><a xlink:href="../../d5/d4f/G4Exception_8hh.html#ad36b5da5d062a20ca47b1c1f1ae353dd" target="_top" xlink:title="G4Exception">
<polygon fill="none" stroke="#000000" points="572.5,-.5 572.5,-20.5 652.5,-20.5 652.5,-.5 572.5,-.5"/>
<text text-anchor="middle" x="612.5" y="-7.5" font-family="FreeSans" font-size="10.00" fill="#000000">G4Exception</text>
</a>
</g>
</g>
<!-- Node7&#45;&gt;Node14 -->
<g id="edge13" class="edge">
<title>Node7&#45;&gt;Node14</title>
<path fill="none" stroke="#191970" d="M471.4297,-39.4565C499.3387,-33.7278 534.2472,-26.5624 562.3557,-20.7928"/>
<polygon fill="#191970" stroke="#191970" points="563.2862,-24.1748 572.3782,-18.7355 561.8787,-17.3178 563.2862,-24.1748"/>
</g>
<!-- Node9 -->
<g id="node9" class="node">
<title>Node9</title>
<g id="a_node9"><a xlink:href="../../d7/d23/namespaceG4Threading.html#a457962a93ab41c7f9575dde6cbe9b78c" target="_top" xlink:title="G4Threading::G4GetNumber\lOfCores">
<polygon fill="none" stroke="#000000" points="720,-123.5 720,-155.5 882,-155.5 882,-123.5 720,-123.5"/>
<text text-anchor="start" x="728" y="-142.5" font-family="FreeSans" font-size="10.00" fill="#000000">G4Threading::G4GetNumber</text>
<text text-anchor="middle" x="801" y="-130.5" font-family="FreeSans" font-size="10.00" fill="#000000">OfCores</text>
</a>
</g>
</g>
<!-- Node8&#45;&gt;Node9 -->
<g id="edge8" class="edge">
<title>Node8&#45;&gt;Node9</title>
<path fill="none" stroke="#191970" d="M643.6269,-96.9216C667.5936,-103.406 701.6388,-112.6171 731.9365,-120.8144"/>
<polygon fill="#191970" stroke="#191970" points="731.0572,-124.2023 741.6242,-123.4355 732.8854,-117.4452 731.0572,-124.2023"/>
</g>
<!-- Node10 -->
<g id="node10" class="node">
<title>Node10</title>
<g id="a_node10"><a xlink:href="../../d4/daa/classG4RunManager.html#a3a19f2283ba22cbee8ba640d160d2e7e" target="_top" xlink:title="G4RunManager::GetVerbose\lLevel">
<polygon fill="none" stroke="#000000" points="721.5,-72.5 721.5,-104.5 880.5,-104.5 880.5,-72.5 721.5,-72.5"/>
<text text-anchor="start" x="729.5" y="-91.5" font-family="FreeSans" font-size="10.00" fill="#000000">G4RunManager::GetVerbose</text>
<text text-anchor="middle" x="801" y="-79.5" font-family="FreeSans" font-size="10.00" fill="#000000">Level</text>
</a>
</g>
</g>
<!-- Node8&#45;&gt;Node10 -->
<g id="edge9" class="edge">
<title>Node8&#45;&gt;Node10</title>
<path fill="none" stroke="#191970" d="M643.6269,-88.5C662.2839,-88.5 687.0483,-88.5 711.398,-88.5"/>
<polygon fill="#191970" stroke="#191970" points="711.4219,-92.0001 721.4219,-88.5 711.4218,-85.0001 711.4219,-92.0001"/>
</g>
<!-- Node11 -->
<g id="node11" class="node">
<title>Node11</title>
<g id="a_node11"><a xlink:href="../../d4/daa/classG4RunManager.html#a9e042965b0d460b1d492ab48de141b2a" target="_top" xlink:title="G4RunManager::SetVerbose\lLevel">
<polygon fill="none" stroke="#000000" points="722,-21.5 722,-53.5 880,-53.5 880,-21.5 722,-21.5"/>
<text text-anchor="start" x="730" y="-40.5" font-family="FreeSans" font-size="10.00" fill="#000000">G4RunManager::SetVerbose</text>
<text text-anchor="middle" x="801" y="-28.5" font-family="FreeSans" font-size="10.00" fill="#000000">Level</text>
</a>
</g>
</g>
<!-- Node8&#45;&gt;Node11 -->
<g id="edge10" class="edge">
<title>Node8&#45;&gt;Node11</title>
<path fill="none" stroke="#191970" d="M643.8369,-80.2253C656.3369,-76.9108 670.8548,-73.0442 684,-69.5 699.8276,-65.2326 716.8477,-60.6017 732.8717,-56.2228"/>
<polygon fill="#191970" stroke="#191970" points="733.9783,-59.5488 742.7005,-53.5344 732.1314,-52.7968 733.9783,-59.5488"/>
</g>
<!-- Node12 -->
<g id="node12" class="node">
<title>Node12</title>
<g id="a_node12"><a xlink:href="../../de/d51/classG4RunManagerKernel.html#aea8a72d21f60b3e6436eed9b651dc247" target="_top" xlink:title="G4RunManagerKernel\l::SetVerboseLevel">
<polygon fill="none" stroke="#000000" points="918,-21.5 918,-53.5 1044,-53.5 1044,-21.5 918,-21.5"/>
<text text-anchor="start" x="926" y="-40.5" font-family="FreeSans" font-size="10.00" fill="#000000">G4RunManagerKernel</text>
<text text-anchor="middle" x="981" y="-28.5" font-family="FreeSans" font-size="10.00" fill="#000000">::SetVerboseLevel</text>
</a>
</g>
</g>
<!-- Node11&#45;&gt;Node12 -->
<g id="edge11" class="edge">
<title>Node11&#45;&gt;Node12</title>
<path fill="none" stroke="#191970" d="M880.2126,-37.5C889.3955,-37.5 898.7304,-37.5 907.8275,-37.5"/>
<polygon fill="#191970" stroke="#191970" points="907.9766,-41.0001 917.9766,-37.5 907.9766,-34.0001 907.9766,-41.0001"/>
</g>
</g>
</svg>
