<?xml version="1.0" encoding="UTF-8" standalone="no"?>
<!DOCTYPE svg PUBLIC "-//W3C//DTD SVG 1.1//EN"
 "http://www.w3.org/Graphics/SVG/1.1/DTD/svg11.dtd">
<!-- Generated by graphviz version 2.40.1 (20161225.0304)
 -->
<!-- Title: G4GDMLWriteMaterials::ElementWrite Pages: 1 -->
<svg width="940pt" height="662pt"
 viewBox="0.00 0.00 940.00 662.29" xmlns="http://www.w3.org/2000/svg" xmlns:xlink="http://www.w3.org/1999/xlink">
<g id="graph0" class="graph" transform="scale(1 1) rotate(0) translate(4 658.2934)">
<title>G4GDMLWriteMaterials::ElementWrite</title>
<!-- Node1 -->
<g id="node1" class="node">
<title>Node1</title>
<polygon fill="#bfbfbf" stroke="#000000" points="0,-220.5 0,-252.5 132,-252.5 132,-220.5 0,-220.5"/>
<text text-anchor="start" x="8" y="-239.5" font-family="FreeSans" font-size="10.00" fill="#000000">G4GDMLWriteMaterials</text>
<text text-anchor="middle" x="66" y="-227.5" font-family="FreeSans" font-size="10.00" fill="#000000">::ElementWrite</text>
</g>
<!-- Node2 -->
<g id="node2" class="node">
<title>Node2</title>
<g id="a_node2"><a xlink:href="../../d6/dc2/classG4GDMLWriteMaterials.html#a510606ee6d4f74c7c75201de42e5d7a7" target="_top" xlink:title="G4GDMLWriteMaterials\l::AddIsotope">
<polygon fill="none" stroke="#000000" points="199.5,-362.5 199.5,-394.5 331.5,-394.5 331.5,-362.5 199.5,-362.5"/>
<text text-anchor="start" x="207.5" y="-381.5" font-family="FreeSans" font-size="10.00" fill="#000000">G4GDMLWriteMaterials</text>
<text text-anchor="middle" x="265.5" y="-369.5" font-family="FreeSans" font-size="10.00" fill="#000000">::AddIsotope</text>
</a>
</g>
</g>
<!-- Node1&#45;&gt;Node2 -->
<g id="edge1" class="edge">
<title>Node1&#45;&gt;Node2</title>
<path fill="none" stroke="#191970" d="M88.4974,-252.5132C124.2685,-277.9743 194.1912,-327.7439 234.6218,-356.5216"/>
<polygon fill="#191970" stroke="#191970" points="232.6021,-359.38 242.7787,-362.3275 236.6614,-353.6771 232.6021,-359.38"/>
</g>
<!-- Node4 -->
<g id="node4" class="node">
<title>Node4</title>
<g id="a_node4"><a xlink:href="../../d8/dfc/classG4GDMLWrite.html#a47ccd0a68cfae388b5f3dd222d4923c7" target="_top" xlink:title="G4GDMLWrite::GenerateName">
<polygon fill="none" stroke="#000000" points="567,-602.5 567,-622.5 737,-622.5 737,-602.5 567,-602.5"/>
<text text-anchor="middle" x="652" y="-609.5" font-family="FreeSans" font-size="10.00" fill="#000000">G4GDMLWrite::GenerateName</text>
</a>
</g>
</g>
<!-- Node1&#45;&gt;Node4 -->
<g id="edge15" class="edge">
<title>Node1&#45;&gt;Node4</title>
<path fill="none" stroke="#191970" d="M68.2375,-252.8003C77.2796,-316.0892 113.2772,-544.1637 168,-587.5 298.4935,-690.8409 516.3448,-649.3906 608.6049,-625.2196"/>
<polygon fill="#191970" stroke="#191970" points="609.6875,-628.553 618.44,-622.5827 607.8747,-621.7918 609.6875,-628.553"/>
</g>
<!-- Node6 -->
<g id="node6" class="node">
<title>Node6</title>
<g id="a_node6"><a xlink:href="../../d8/d66/classG4Isotope.html#a24bd90749fca18602f17d2fe63ff1922" target="_top" xlink:title="G4Isotope::GetName">
<polygon fill="none" stroke="#000000" points="591,-524.5 591,-544.5 713,-544.5 713,-524.5 591,-524.5"/>
<text text-anchor="middle" x="652" y="-531.5" font-family="FreeSans" font-size="10.00" fill="#000000">G4Isotope::GetName</text>
</a>
</g>
</g>
<!-- Node1&#45;&gt;Node6 -->
<g id="edge18" class="edge">
<title>Node1&#45;&gt;Node6</title>
<path fill="none" stroke="#191970" d="M71.1889,-252.7282C82.8157,-286.417 114.2354,-364.1538 168,-404.5 292.4681,-497.9037 479.2681,-524.2489 580.5458,-531.645"/>
<polygon fill="#191970" stroke="#191970" points="580.4551,-535.147 590.6718,-532.3419 580.9358,-528.1635 580.4551,-535.147"/>
</g>
<!-- Node7 -->
<g id="node7" class="node">
<title>Node7</title>
<g id="a_node7"><a xlink:href="../../d8/dfc/classG4GDMLWrite.html#a1cf06b2ac1a7aaa25f556ab12480f449" target="_top" xlink:title="G4GDMLWrite::NewElement">
<polygon fill="none" stroke="#000000" points="774,-485.5 774,-505.5 931,-505.5 931,-485.5 774,-485.5"/>
<text text-anchor="middle" x="852.5" y="-492.5" font-family="FreeSans" font-size="10.00" fill="#000000">G4GDMLWrite::NewElement</text>
</a>
</g>
</g>
<!-- Node1&#45;&gt;Node7 -->
<g id="edge24" class="edge">
<title>Node1&#45;&gt;Node7</title>
<path fill="none" stroke="#191970" d="M68.5407,-252.6465C75.9096,-293.9992 101.178,-404.5317 168,-462.5 361.5071,-630.368 487.9357,-614.4306 737,-554.5 771.6337,-546.1663 807.571,-525.6006 829.974,-511.1039"/>
<polygon fill="#191970" stroke="#191970" points="832.021,-513.9462 838.4244,-505.5053 828.1549,-508.1107 832.021,-513.9462"/>
</g>
<!-- Node8 -->
<g id="node8" class="node">
<title>Node8</title>
<g id="a_node8"><a xlink:href="../../d8/dfc/classG4GDMLWrite.html#aa641dc958fb5078c33ac09c9485379f7" target="_top" xlink:title="G4GDMLWrite::NewAttribute">
<polygon fill="none" stroke="#000000" points="773,-284.5 773,-304.5 932,-304.5 932,-284.5 773,-284.5"/>
<text text-anchor="middle" x="852.5" y="-291.5" font-family="FreeSans" font-size="10.00" fill="#000000">G4GDMLWrite::NewAttribute</text>
</a>
</g>
</g>
<!-- Node1&#45;&gt;Node8 -->
<g id="edge23" class="edge">
<title>Node1&#45;&gt;Node8</title>
<path fill="none" stroke="#191970" d="M132.2324,-238.193C277.7525,-242.1518 621.5729,-252.8766 737,-268.5 759.8425,-271.5918 784.8374,-276.9645 805.7151,-282.0262"/>
<polygon fill="#191970" stroke="#191970" points="805.0578,-285.4691 815.6059,-284.4747 806.74,-278.6742 805.0578,-285.4691"/>
</g>
<!-- Node11 -->
<g id="node11" class="node">
<title>Node11</title>
<g id="a_node11"><a xlink:href="../../d6/dc2/classG4GDMLWriteMaterials.html#a31f02fd59af1e2f3cf361c6197467c37" target="_top" xlink:title="G4GDMLWriteMaterials\l::AtomWrite">
<polygon fill="none" stroke="#000000" points="586,-278.5 586,-310.5 718,-310.5 718,-278.5 586,-278.5"/>
<text text-anchor="start" x="594" y="-297.5" font-family="FreeSans" font-size="10.00" fill="#000000">G4GDMLWriteMaterials</text>
<text text-anchor="middle" x="652" y="-285.5" font-family="FreeSans" font-size="10.00" fill="#000000">::AtomWrite</text>
</a>
</g>
</g>
<!-- Node1&#45;&gt;Node11 -->
<g id="edge14" class="edge">
<title>Node1&#45;&gt;Node11</title>
<path fill="none" stroke="#191970" d="M106.0296,-252.6524C124.5718,-259.4002 147.0862,-266.5722 168,-270.5 310.2051,-297.2077 479.7837,-298.8623 575.775,-297.0717"/>
<polygon fill="#191970" stroke="#191970" points="576.0436,-300.567 585.97,-296.8633 575.9005,-293.5685 576.0436,-300.567"/>
</g>
<!-- Node13 -->
<g id="node13" class="node">
<title>Node13</title>
<g id="a_node13"><a xlink:href="../../de/d80/classG4Element.html#acd081e1705555cd8dce5081291c7a3f9" target="_top" xlink:title="G4Element::GetA">
<polygon fill="none" stroke="#000000" points="213.5,-207.5 213.5,-227.5 317.5,-227.5 317.5,-207.5 213.5,-207.5"/>
<text text-anchor="middle" x="265.5" y="-214.5" font-family="FreeSans" font-size="10.00" fill="#000000">G4Element::GetA</text>
</a>
</g>
</g>
<!-- Node1&#45;&gt;Node13 -->
<g id="edge16" class="edge">
<title>Node1&#45;&gt;Node13</title>
<path fill="none" stroke="#191970" d="M132.1535,-230.1997C155.0712,-228.017 180.6677,-225.5793 203.2597,-223.4277"/>
<polygon fill="#191970" stroke="#191970" points="203.7848,-226.8936 213.4079,-222.4612 203.1211,-219.9251 203.7848,-226.8936"/>
</g>
<!-- Node14 -->
<g id="node14" class="node">
<title>Node14</title>
<g id="a_node14"><a xlink:href="../../de/d80/classG4Element.html#a234032e9239515c70a4637535cbe46ed" target="_top" xlink:title="G4Element::GetIsotope">
<polygon fill="none" stroke="#000000" points="198.5,-168.5 198.5,-188.5 332.5,-188.5 332.5,-168.5 198.5,-168.5"/>
<text text-anchor="middle" x="265.5" y="-175.5" font-family="FreeSans" font-size="10.00" fill="#000000">G4Element::GetIsotope</text>
</a>
</g>
</g>
<!-- Node1&#45;&gt;Node14 -->
<g id="edge17" class="edge">
<title>Node1&#45;&gt;Node14</title>
<path fill="none" stroke="#191970" d="M103.2567,-220.4758C122.3492,-212.7223 146.1283,-203.7616 168,-197.5 176.7664,-194.9903 186.0708,-192.7068 195.3171,-190.663"/>
<polygon fill="#191970" stroke="#191970" points="196.2461,-194.0438 205.2993,-188.5402 194.79,-187.197 196.2461,-194.0438"/>
</g>
<!-- Node15 -->
<g id="node15" class="node">
<title>Node15</title>
<g id="a_node15"><a xlink:href="../../de/d80/classG4Element.html#a0bcbf2b47ad07b5b806078c46112fc6a" target="_top" xlink:title="G4Element::GetName">
<polygon fill="none" stroke="#000000" points="202,-129.5 202,-149.5 329,-149.5 329,-129.5 202,-129.5"/>
<text text-anchor="middle" x="265.5" y="-136.5" font-family="FreeSans" font-size="10.00" fill="#000000">G4Element::GetName</text>
</a>
</g>
</g>
<!-- Node1&#45;&gt;Node15 -->
<g id="edge19" class="edge">
<title>Node1&#45;&gt;Node15</title>
<path fill="none" stroke="#191970" d="M82.1016,-220.3097C100.9859,-202.3109 134.0473,-173.7705 168,-158.5 175.574,-155.0935 183.7486,-152.2963 192.0298,-149.9997"/>
<polygon fill="#191970" stroke="#191970" points="192.9392,-153.3799 201.7706,-147.5271 191.2168,-146.5951 192.9392,-153.3799"/>
</g>
<!-- Node16 -->
<g id="node16" class="node">
<title>Node16</title>
<g id="a_node16"><a xlink:href="../../de/d80/classG4Element.html#a8db620c908d7ef03465ebcd094d9af1a" target="_top" xlink:title="G4Element::GetNumberOfIsotopes">
<polygon fill="none" stroke="#000000" points="169.5,-90.5 169.5,-110.5 361.5,-110.5 361.5,-90.5 169.5,-90.5"/>
<text text-anchor="middle" x="265.5" y="-97.5" font-family="FreeSans" font-size="10.00" fill="#000000">G4Element::GetNumberOfIsotopes</text>
</a>
</g>
</g>
<!-- Node1&#45;&gt;Node16 -->
<g id="edge20" class="edge">
<title>Node1&#45;&gt;Node16</title>
<path fill="none" stroke="#191970" d="M75.2198,-220.2405C90.7775,-194.4163 124.8138,-144.4061 168,-119.5 171.4313,-117.5211 175.0318,-115.7443 178.7435,-114.1494"/>
<polygon fill="#191970" stroke="#191970" points="180.0745,-117.3877 188.1655,-110.5477 177.575,-110.8491 180.0745,-117.3877"/>
</g>
<!-- Node17 -->
<g id="node17" class="node">
<title>Node17</title>
<g id="a_node17"><a xlink:href="../../de/d80/classG4Element.html#a53f6ad00e10dbc5aeb9eb8020bc7fb51" target="_top" xlink:title="G4Element::GetRelativeAbundance\lVector">
<polygon fill="none" stroke="#000000" points="168,-39.5 168,-71.5 363,-71.5 363,-39.5 168,-39.5"/>
<text text-anchor="start" x="176" y="-58.5" font-family="FreeSans" font-size="10.00" fill="#000000">G4Element::GetRelativeAbundance</text>
<text text-anchor="middle" x="265.5" y="-46.5" font-family="FreeSans" font-size="10.00" fill="#000000">Vector</text>
</a>
</g>
</g>
<!-- Node1&#45;&gt;Node17 -->
<g id="edge21" class="edge">
<title>Node1&#45;&gt;Node17</title>
<path fill="none" stroke="#191970" d="M71.8751,-220.4059C84.3678,-188.5192 116.6945,-117.2331 168,-80.5 169.9048,-79.1362 171.8775,-77.8467 173.9058,-76.6274"/>
<polygon fill="#191970" stroke="#191970" points="175.9374,-79.5108 183.1163,-71.7189 172.6452,-73.3333 175.9374,-79.5108"/>
</g>
<!-- Node18 -->
<g id="node18" class="node">
<title>Node18</title>
<g id="a_node18"><a xlink:href="../../de/d80/classG4Element.html#ad1340161ff1cd3ab74ae508ae3c19fe4" target="_top" xlink:title="G4Element::GetZ">
<polygon fill="none" stroke="#000000" points="213.5,-.5 213.5,-20.5 317.5,-20.5 317.5,-.5 213.5,-.5"/>
<text text-anchor="middle" x="265.5" y="-7.5" font-family="FreeSans" font-size="10.00" fill="#000000">G4Element::GetZ</text>
</a>
</g>
</g>
<!-- Node1&#45;&gt;Node18 -->
<g id="edge22" class="edge">
<title>Node1&#45;&gt;Node18</title>
<path fill="none" stroke="#191970" d="M68.8789,-220.4915C76.8515,-181.1124 103.0707,-79.1379 168,-29.5 178.1619,-21.7313 190.6201,-16.8693 203.1908,-13.8819"/>
<polygon fill="#191970" stroke="#191970" points="204.1357,-17.2623 213.2546,-11.8682 202.7623,-10.3983 204.1357,-17.2623"/>
</g>
<!-- Node3 -->
<g id="node3" class="node">
<title>Node3</title>
<g id="a_node3"><a xlink:href="../../d6/dc2/classG4GDMLWriteMaterials.html#ade41597b36f30752225ab5f7158f9a34" target="_top" xlink:title="G4GDMLWriteMaterials\l::IsotopeWrite">
<polygon fill="none" stroke="#000000" points="399,-401.5 399,-433.5 531,-433.5 531,-401.5 399,-401.5"/>
<text text-anchor="start" x="407" y="-420.5" font-family="FreeSans" font-size="10.00" fill="#000000">G4GDMLWriteMaterials</text>
<text text-anchor="middle" x="465" y="-408.5" font-family="FreeSans" font-size="10.00" fill="#000000">::IsotopeWrite</text>
</a>
</g>
</g>
<!-- Node2&#45;&gt;Node3 -->
<g id="edge2" class="edge">
<title>Node2&#45;&gt;Node3</title>
<path fill="none" stroke="#191970" d="M331.6535,-391.4323C349.9208,-395.0033 369.8902,-398.9071 388.6833,-402.5809"/>
<polygon fill="#191970" stroke="#191970" points="388.1995,-406.0525 398.6852,-404.5362 389.5425,-399.1826 388.1995,-406.0525"/>
</g>
<!-- Node3&#45;&gt;Node4 -->
<g id="edge3" class="edge">
<title>Node3&#45;&gt;Node4</title>
<path fill="none" stroke="#191970" d="M474.5159,-433.6253C491.0069,-460.7023 526.9908,-516.1063 567,-554.5 584.5627,-571.3536 607.5083,-586.6967 625.132,-597.3631"/>
<polygon fill="#191970" stroke="#191970" points="623.418,-600.4158 633.8063,-602.4979 626.9839,-594.392 623.418,-600.4158"/>
</g>
<!-- Node3&#45;&gt;Node6 -->
<g id="edge5" class="edge">
<title>Node3&#45;&gt;Node6</title>
<path fill="none" stroke="#191970" d="M481.2844,-433.8497C504.9743,-457.3368 548.1643,-498.9647 567,-509.5 575.4691,-514.237 584.926,-518.1575 594.3695,-521.3763"/>
<polygon fill="#191970" stroke="#191970" points="593.5736,-524.7956 604.1638,-524.4814 595.6891,-518.1229 593.5736,-524.7956"/>
</g>
<!-- Node3&#45;&gt;Node7 -->
<g id="edge6" class="edge">
<title>Node3&#45;&gt;Node7</title>
<path fill="none" stroke="#191970" d="M486.3205,-433.7668C506.0711,-447.8398 536.8605,-467.3274 567,-476.5 630.8852,-495.9426 706.4012,-500.2052 763.7171,-499.8691"/>
<polygon fill="#191970" stroke="#191970" points="763.8758,-503.3677 773.8378,-499.7611 763.801,-496.3681 763.8758,-503.3677"/>
</g>
<!-- Node3&#45;&gt;Node8 -->
<g id="edge7" class="edge">
<title>Node3&#45;&gt;Node8</title>
<path fill="none" stroke="#191970" d="M488.7332,-401.3317C508.7945,-388.3339 538.7061,-370.4886 567,-359.5 569.7258,-358.4414 716.1377,-325.2996 798.1963,-306.7596"/>
<polygon fill="#191970" stroke="#191970" points="799.1302,-310.1369 808.1131,-304.5194 797.5877,-303.309 799.1302,-310.1369"/>
</g>
<!-- Node9 -->
<g id="node9" class="node">
<title>Node9</title>
<g id="a_node9"><a xlink:href="../../d8/d66/classG4Isotope.html#ab76a4582cdd212ce4ccda3b5d373a21b" target="_top" xlink:title="G4Isotope::GetN">
<polygon fill="none" stroke="#000000" points="602.5,-446.5 602.5,-466.5 701.5,-466.5 701.5,-446.5 602.5,-446.5"/>
<text text-anchor="middle" x="652" y="-453.5" font-family="FreeSans" font-size="10.00" fill="#000000">G4Isotope::GetN</text>
</a>
</g>
</g>
<!-- Node3&#45;&gt;Node9 -->
<g id="edge8" class="edge">
<title>Node3&#45;&gt;Node9</title>
<path fill="none" stroke="#191970" d="M531.1924,-431.3048C551.6853,-435.5787 574.0966,-440.2528 593.9908,-444.4018"/>
<polygon fill="#191970" stroke="#191970" points="593.3332,-447.8399 603.8372,-446.4553 594.7624,-440.9874 593.3332,-447.8399"/>
</g>
<!-- Node10 -->
<g id="node10" class="node">
<title>Node10</title>
<g id="a_node10"><a xlink:href="../../d8/d66/classG4Isotope.html#a288db701d3b8fbd9b155ac9d3b146207" target="_top" xlink:title="G4Isotope::GetZ">
<polygon fill="none" stroke="#000000" points="602.5,-407.5 602.5,-427.5 701.5,-427.5 701.5,-407.5 602.5,-407.5"/>
<text text-anchor="middle" x="652" y="-414.5" font-family="FreeSans" font-size="10.00" fill="#000000">G4Isotope::GetZ</text>
</a>
</g>
</g>
<!-- Node3&#45;&gt;Node10 -->
<g id="edge9" class="edge">
<title>Node3&#45;&gt;Node10</title>
<path fill="none" stroke="#191970" d="M531.1924,-417.5C551.0528,-417.5 572.7151,-417.5 592.1418,-417.5"/>
<polygon fill="#191970" stroke="#191970" points="592.376,-421.0001 602.376,-417.5 592.376,-414.0001 592.376,-421.0001"/>
</g>
<!-- Node3&#45;&gt;Node11 -->
<g id="edge10" class="edge">
<title>Node3&#45;&gt;Node11</title>
<path fill="none" stroke="#191970" d="M479.0666,-401.4676C497.4982,-381.3101 531.6528,-346.775 567,-325.5 573.7185,-321.4562 581.0491,-317.8107 588.4975,-314.5619"/>
<polygon fill="#191970" stroke="#191970" points="590.0487,-317.7082 597.958,-310.6588 587.3789,-311.2373 590.0487,-317.7082"/>
</g>
<!-- Node12 -->
<g id="node12" class="node">
<title>Node12</title>
<g id="a_node12"><a xlink:href="../../d8/d66/classG4Isotope.html#a0bf589a3259f2bcd7ce7612186836238" target="_top" xlink:title="G4Isotope::GetA">
<polygon fill="none" stroke="#000000" points="602,-368.5 602,-388.5 702,-388.5 702,-368.5 602,-368.5"/>
<text text-anchor="middle" x="652" y="-375.5" font-family="FreeSans" font-size="10.00" fill="#000000">G4Isotope::GetA</text>
</a>
</g>
</g>
<!-- Node3&#45;&gt;Node12 -->
<g id="edge13" class="edge">
<title>Node3&#45;&gt;Node12</title>
<path fill="none" stroke="#191970" d="M531.1924,-403.6952C551.6853,-399.4213 574.0966,-394.7472 593.9908,-390.5982"/>
<polygon fill="#191970" stroke="#191970" points="594.7624,-394.0126 603.8372,-388.5447 593.3332,-387.1601 594.7624,-394.0126"/>
</g>
<!-- Node5 -->
<g id="node5" class="node">
<title>Node5</title>
<g id="a_node5"><a xlink:href="../../d5/d72/classG4String.html#a2d1a2d77f4af63b9592e015a21e9ff33" target="_top" xlink:title="G4String::contains">
<polygon fill="none" stroke="#000000" points="797.5,-602.5 797.5,-622.5 907.5,-622.5 907.5,-602.5 797.5,-602.5"/>
<text text-anchor="middle" x="852.5" y="-609.5" font-family="FreeSans" font-size="10.00" fill="#000000">G4String::contains</text>
</a>
</g>
</g>
<!-- Node4&#45;&gt;Node5 -->
<g id="edge4" class="edge">
<title>Node4&#45;&gt;Node5</title>
<path fill="none" stroke="#191970" d="M737.0301,-612.5C753.7526,-612.5 771.0537,-612.5 787.0132,-612.5"/>
<polygon fill="#191970" stroke="#191970" points="787.2876,-616.0001 797.2876,-612.5 787.2876,-609.0001 787.2876,-616.0001"/>
</g>
<!-- Node11&#45;&gt;Node7 -->
<g id="edge12" class="edge">
<title>Node11&#45;&gt;Node7</title>
<path fill="none" stroke="#191970" d="M675.806,-310.6181C693.4752,-323.0651 717.7406,-341.2026 737,-359.5 777.5555,-398.0297 818.368,-449.8754 838.8941,-477.0778"/>
<polygon fill="#191970" stroke="#191970" points="836.2549,-479.3928 845.0478,-485.3034 841.86,-475.1995 836.2549,-479.3928"/>
</g>
<!-- Node11&#45;&gt;Node8 -->
<g id="edge11" class="edge">
<title>Node11&#45;&gt;Node8</title>
<path fill="none" stroke="#191970" d="M718.2069,-294.5C732.3866,-294.5 747.5973,-294.5 762.5026,-294.5"/>
<polygon fill="#191970" stroke="#191970" points="762.7564,-298.0001 772.7564,-294.5 762.7564,-291.0001 762.7564,-298.0001"/>
</g>
</g>
</svg>
