<?xml version="1.0" encoding="UTF-8" standalone="no"?>
<!DOCTYPE svg PUBLIC "-//W3C//DTD SVG 1.1//EN"
 "http://www.w3.org/Graphics/SVG/1.1/DTD/svg11.dtd">
<!-- Generated by graphviz version 2.40.1 (20161225.0304)
 -->
<!-- Title: geant4/tree/geant4&#45;10.6&#45;release/examples/extended/electromagnetic/TestEm10/src/DetectorHarris73.cc Pages: 1 -->
<svg width="2704pt" height="578pt"
 viewBox="0.00 0.00 2703.87 578.00" xmlns="http://www.w3.org/2000/svg" xmlns:xlink="http://www.w3.org/1999/xlink">
<g id="graph0" class="graph" transform="scale(1 1) rotate(0) translate(4 574)">
<title>geant4/tree/geant4&#45;10.6&#45;release/examples/extended/electromagnetic/TestEm10/src/DetectorHarris73.cc</title>
<!-- Node1 -->
<g id="node1" class="node">
<title>Node1</title>
<polygon fill="#bfbfbf" stroke="#000000" points="800.366,-513.5 800.366,-569.5 992.366,-569.5 992.366,-513.5 800.366,-513.5"/>
<text text-anchor="start" x="808.366" y="-556.5" font-family="FreeSans" font-size="10.00" fill="#000000">geant4/tree/geant4</text>
<text text-anchor="start" x="808.366" y="-544.5" font-family="FreeSans" font-size="10.00" fill="#000000">&#45;10.6&#45;release/examples</text>
<text text-anchor="start" x="808.366" y="-532.5" font-family="FreeSans" font-size="10.00" fill="#000000">/extended/electromagnetic</text>
<text text-anchor="middle" x="896.366" y="-520.5" font-family="FreeSans" font-size="10.00" fill="#000000">/TestEm10/src/DetectorHarris73.cc</text>
</g>
<!-- Node2 -->
<g id="node2" class="node">
<title>Node2</title>
<g id="a_node2"><a xlink:href="../../dd/d1a/DetectorHarris73_8hh.html" target="_top" xlink:title="Definition of the DetectorHarris73 class.">
<polygon fill="none" stroke="#000000" points="156.366,-228.5 156.366,-248.5 274.366,-248.5 274.366,-228.5 156.366,-228.5"/>
<text text-anchor="middle" x="215.366" y="-235.5" font-family="FreeSans" font-size="10.00" fill="#000000">DetectorHarris73.hh</text>
</a>
</g>
</g>
<!-- Node1&#45;&gt;Node2 -->
<g id="edge1" class="edge">
<title>Node1&#45;&gt;Node2</title>
<path fill="none" stroke="#191970" d="M800.3222,-538.4578C613.2854,-531.7553 213.9899,-513.3412 163.366,-477 92.6836,-426.2593 168.8228,-303.502 201.7447,-256.8798"/>
<polygon fill="#191970" stroke="#191970" points="204.6932,-258.7746 207.6965,-248.6144 199.0127,-254.6841 204.6932,-258.7746"/>
</g>
<!-- Node4 -->
<g id="node4" class="node">
<title>Node4</title>
<g id="a_node4"><a xlink:href="../../df/de9/G4ios_8hh.html" target="_top" xlink:title="G4ios.hh">
<polygon fill="none" stroke="#ff0000" points="2155.866,-57.5 2155.866,-77.5 2216.866,-77.5 2216.866,-57.5 2155.866,-57.5"/>
<text text-anchor="middle" x="2186.366" y="-64.5" font-family="FreeSans" font-size="10.00" fill="#000000">G4ios.hh</text>
</a>
</g>
</g>
<!-- Node1&#45;&gt;Node4 -->
<g id="edge110" class="edge">
<title>Node1&#45;&gt;Node4</title>
<path fill="none" stroke="#191970" d="M992.3765,-538.696C1339.4102,-527.9371 2508.366,-486.0174 2508.366,-409.5 2508.366,-409.5 2508.366,-409.5 2508.366,-181.5 2508.366,-146.3994 2496.6216,-133.3948 2467.366,-114 2378.4119,-55.0283 2332.7055,-98.6409 2227.0078,-78.7769"/>
<polygon fill="#191970" stroke="#191970" points="2227.4273,-75.2905 2216.9301,-76.7258 2226.0312,-82.1499 2227.4273,-75.2905"/>
</g>
<!-- Node8 -->
<g id="node8" class="node">
<title>Node8</title>
<polygon fill="none" stroke="#bfbfbf" points="255.866,-456.5 255.866,-476.5 376.866,-476.5 376.866,-456.5 255.866,-456.5"/>
<text text-anchor="middle" x="316.366" y="-463.5" font-family="FreeSans" font-size="10.00" fill="#000000">SensitiveDetector.hh</text>
</g>
<!-- Node1&#45;&gt;Node8 -->
<g id="edge9" class="edge">
<title>Node1&#45;&gt;Node8</title>
<path fill="none" stroke="#191970" d="M799.9299,-529.9764C699.6167,-517.8357 537.72,-497.8112 387.4024,-477.119"/>
<polygon fill="#191970" stroke="#191970" points="387.4447,-473.5917 377.06,-475.6917 386.4876,-480.526 387.4447,-473.5917"/>
</g>
<!-- Node9 -->
<g id="node9" class="node">
<title>Node9</title>
<polygon fill="none" stroke="#bfbfbf" points="395.366,-456.5 395.366,-476.5 473.366,-476.5 473.366,-456.5 395.366,-456.5"/>
<text text-anchor="middle" x="434.366" y="-463.5" font-family="FreeSans" font-size="10.00" fill="#000000">Materials.hh</text>
</g>
<!-- Node1&#45;&gt;Node9 -->
<g id="edge10" class="edge">
<title>Node1&#45;&gt;Node9</title>
<path fill="none" stroke="#191970" d="M800.327,-527.4405C717.3294,-515.0308 594.2349,-496.0052 487.366,-477 486.0933,-476.7737 484.804,-476.5413 483.5036,-476.3041"/>
<polygon fill="#191970" stroke="#191970" points="483.8811,-472.8141 473.4079,-474.4147 482.5934,-479.6946 483.8811,-472.8141"/>
</g>
<!-- Node10 -->
<g id="node10" class="node">
<title>Node10</title>
<g id="a_node10"><a xlink:href="../../d4/dc8/G4Material_8hh.html" target="_top" xlink:title="G4Material.hh">
<polygon fill="none" stroke="#000000" points="2004.866,-285.5 2004.866,-305.5 2091.866,-305.5 2091.866,-285.5 2004.866,-285.5"/>
<text text-anchor="middle" x="2048.366" y="-292.5" font-family="FreeSans" font-size="10.00" fill="#000000">G4Material.hh</text>
</a>
</g>
</g>
<!-- Node1&#45;&gt;Node10 -->
<g id="edge11" class="edge">
<title>Node1&#45;&gt;Node10</title>
<path fill="none" stroke="#191970" d="M992.5597,-538.5231C1218.3686,-531.0289 1769.1853,-509.6217 1846.366,-477 1931.9995,-440.8056 2005.5623,-352.6814 2034.841,-314.1035"/>
<polygon fill="#191970" stroke="#191970" points="2037.8371,-315.9408 2041.0123,-305.8329 2032.2268,-311.7545 2037.8371,-315.9408"/>
</g>
<!-- Node21 -->
<g id="node21" class="node">
<title>Node21</title>
<g id="a_node21"><a xlink:href="../../d1/d8f/G4Box_8hh.html" target="_top" xlink:title="G4Box.hh">
<polygon fill="none" stroke="#000000" points="172.866,-456.5 172.866,-476.5 237.866,-476.5 237.866,-456.5 172.866,-456.5"/>
<text text-anchor="middle" x="205.366" y="-463.5" font-family="FreeSans" font-size="10.00" fill="#000000">G4Box.hh</text>
</a>
</g>
</g>
<!-- Node1&#45;&gt;Node21 -->
<g id="edge42" class="edge">
<title>Node1&#45;&gt;Node21</title>
<path fill="none" stroke="#191970" d="M800.2003,-536.5315C674.8397,-529.0301 448.806,-512.0011 247.7976,-477.0499"/>
<polygon fill="#191970" stroke="#191970" points="248.3973,-473.6017 237.9424,-475.3182 247.1858,-480.4961 248.3973,-473.6017"/>
</g>
<!-- Node26 -->
<g id="node26" class="node">
<title>Node26</title>
<g id="a_node26"><a xlink:href="../../dd/da7/G4LogicalVolume_8hh.html" target="_top" xlink:title="G4LogicalVolume.hh">
<polygon fill="none" stroke="#000000" points="971.366,-285.5 971.366,-305.5 1091.366,-305.5 1091.366,-285.5 971.366,-285.5"/>
<text text-anchor="middle" x="1031.366" y="-292.5" font-family="FreeSans" font-size="10.00" fill="#000000">G4LogicalVolume.hh</text>
</a>
</g>
</g>
<!-- Node1&#45;&gt;Node26 -->
<g id="edge48" class="edge">
<title>Node1&#45;&gt;Node26</title>
<path fill="none" stroke="#191970" d="M956.3489,-513.338C991.8408,-492.9912 1033.4516,-461.7434 1052.366,-420 1068.1096,-385.2546 1052.7448,-340.2162 1041.2901,-314.9346"/>
<polygon fill="#191970" stroke="#191970" points="1044.3408,-313.2009 1036.8698,-305.6885 1038.0254,-316.2202 1044.3408,-313.2009"/>
</g>
<!-- Node27 -->
<g id="node27" class="node">
<title>Node27</title>
<g id="a_node27"><a xlink:href="../../d1/d02/G4Region_8hh.html" target="_top" xlink:title="G4Region.hh">
<polygon fill="none" stroke="#000000" points="1109.866,-228.5 1109.866,-248.5 1190.866,-248.5 1190.866,-228.5 1109.866,-228.5"/>
<text text-anchor="middle" x="1150.366" y="-235.5" font-family="FreeSans" font-size="10.00" fill="#000000">G4Region.hh</text>
</a>
</g>
</g>
<!-- Node1&#45;&gt;Node27 -->
<g id="edge103" class="edge">
<title>Node1&#45;&gt;Node27</title>
<path fill="none" stroke="#191970" d="M992.4837,-527.0465C1058.5375,-511.03 1134.366,-477.7748 1134.366,-409.5 1134.366,-409.5 1134.366,-409.5 1134.366,-352.5 1134.366,-319.3519 1141.0822,-281.3038 1145.8119,-258.6192"/>
<polygon fill="#191970" stroke="#191970" points="1149.2411,-259.3202 1147.936,-248.8061 1142.3995,-257.8393 1149.2411,-259.3202"/>
</g>
<!-- Node34 -->
<g id="node34" class="node">
<title>Node34</title>
<g id="a_node34"><a xlink:href="../../d7/da4/G4PVPlacement_8hh.html" target="_top" xlink:title="G4PVPlacement.hh">
<polygon fill="none" stroke="#000000" points="576.366,-285.5 576.366,-305.5 688.366,-305.5 688.366,-285.5 576.366,-285.5"/>
<text text-anchor="middle" x="632.366" y="-292.5" font-family="FreeSans" font-size="10.00" fill="#000000">G4PVPlacement.hh</text>
</a>
</g>
</g>
<!-- Node1&#45;&gt;Node34 -->
<g id="edge69" class="edge">
<title>Node1&#45;&gt;Node34</title>
<path fill="none" stroke="#191970" d="M856.8808,-513.3217C841.1409,-502.058 822.8734,-488.9463 806.366,-477 771.5825,-451.8274 759.1236,-449.9588 728.366,-420 705.4407,-397.67 703.9092,-388.3429 684.366,-363 671.4721,-346.2796 656.7912,-327.2207 646.3243,-313.6288"/>
<polygon fill="#191970" stroke="#191970" points="648.9899,-311.3538 640.1157,-305.566 643.4437,-315.6246 648.9899,-311.3538"/>
</g>
<!-- Node36 -->
<g id="node36" class="node">
<title>Node36</title>
<g id="a_node36"><a xlink:href="../../d9/d7b/G4UniformMagField_8hh.html" target="_top" xlink:title="G4UniformMagField.hh">
<polygon fill="none" stroke="#000000" points="2536.866,-228.5 2536.866,-248.5 2667.866,-248.5 2667.866,-228.5 2536.866,-228.5"/>
<text text-anchor="middle" x="2602.366" y="-235.5" font-family="FreeSans" font-size="10.00" fill="#000000">G4UniformMagField.hh</text>
</a>
</g>
</g>
<!-- Node1&#45;&gt;Node36 -->
<g id="edge73" class="edge">
<title>Node1&#45;&gt;Node36</title>
<path fill="none" stroke="#191970" d="M992.6052,-540.6395C1332.6507,-537.2175 2460.5742,-522.4724 2522.366,-477 2548.0105,-458.1283 2546.366,-441.3399 2546.366,-409.5 2546.366,-409.5 2546.366,-409.5 2546.366,-352.5 2546.366,-315.4833 2570.4462,-277.9934 2587.0256,-256.5681"/>
<polygon fill="#191970" stroke="#191970" points="2589.8355,-258.6589 2593.3687,-248.6705 2584.3778,-254.2755 2589.8355,-258.6589"/>
</g>
<!-- Node38 -->
<g id="node38" class="node">
<title>Node38</title>
<g id="a_node38"><a xlink:href="../../d3/d88/G4FieldManager_8hh.html" target="_top" xlink:title="G4FieldManager.hh">
<polygon fill="none" stroke="#000000" points="541.866,-456.5 541.866,-476.5 654.866,-476.5 654.866,-456.5 541.866,-456.5"/>
<text text-anchor="middle" x="598.366" y="-463.5" font-family="FreeSans" font-size="10.00" fill="#000000">G4FieldManager.hh</text>
</a>
</g>
</g>
<!-- Node1&#45;&gt;Node38 -->
<g id="edge78" class="edge">
<title>Node1&#45;&gt;Node38</title>
<path fill="none" stroke="#191970" d="M800.0255,-517.2532C749.4407,-504.5221 689.5629,-489.4522 648.2661,-479.0587"/>
<polygon fill="#191970" stroke="#191970" points="648.9975,-475.6337 638.4456,-476.5871 647.289,-482.422 648.9975,-475.6337"/>
</g>
<!-- Node40 -->
<g id="node40" class="node">
<title>Node40</title>
<g id="a_node40"><a xlink:href="../../d1/d2e/G4TransportationManager_8hh.html" target="_top" xlink:title="G4TransportationManager.hh">
<polygon fill="none" stroke="#000000" points="814.866,-456.5 814.866,-476.5 977.866,-476.5 977.866,-456.5 814.866,-456.5"/>
<text text-anchor="middle" x="896.366" y="-463.5" font-family="FreeSans" font-size="10.00" fill="#000000">G4TransportationManager.hh</text>
</a>
</g>
</g>
<!-- Node1&#45;&gt;Node40 -->
<g id="edge81" class="edge">
<title>Node1&#45;&gt;Node40</title>
<path fill="none" stroke="#191970" d="M896.366,-513.1457C896.366,-504.3619 896.366,-494.8652 896.366,-486.7476"/>
<polygon fill="#191970" stroke="#191970" points="899.8661,-486.7295 896.366,-476.7296 892.8661,-486.7296 899.8661,-486.7295"/>
</g>
<!-- Node44 -->
<g id="node44" class="node">
<title>Node44</title>
<g id="a_node44"><a xlink:href="../../d3/d4b/G4SDManager_8hh.html" target="_top" xlink:title="G4SDManager.hh">
<polygon fill="none" stroke="#000000" points="1366.366,-228.5 1366.366,-248.5 1470.366,-248.5 1470.366,-228.5 1366.366,-228.5"/>
<text text-anchor="middle" x="1418.366" y="-235.5" font-family="FreeSans" font-size="10.00" fill="#000000">G4SDManager.hh</text>
</a>
</g>
</g>
<!-- Node1&#45;&gt;Node44 -->
<g id="edge92" class="edge">
<title>Node1&#45;&gt;Node44</title>
<path fill="none" stroke="#191970" d="M992.572,-537.9035C1231.4233,-527.6973 1832.366,-493.6566 1832.366,-409.5 1832.366,-409.5 1832.366,-409.5 1832.366,-352.5 1832.366,-280.4053 1596.0518,-252.1762 1480.5026,-242.6824"/>
<polygon fill="#191970" stroke="#191970" points="1480.6273,-239.1813 1470.3802,-241.8734 1480.0695,-246.1591 1480.6273,-239.1813"/>
</g>
<!-- Node48 -->
<g id="node48" class="node">
<title>Node48</title>
<g id="a_node48"><a xlink:href="../../d5/dba/G4UnitsTable_8hh.html" target="_top" xlink:title="G4UnitsTable.hh">
<polygon fill="none" stroke="#000000" points="422.366,-228.5 422.366,-248.5 520.366,-248.5 520.366,-228.5 422.366,-228.5"/>
<text text-anchor="middle" x="471.366" y="-235.5" font-family="FreeSans" font-size="10.00" fill="#000000">G4UnitsTable.hh</text>
</a>
</g>
</g>
<!-- Node1&#45;&gt;Node48 -->
<g id="edge104" class="edge">
<title>Node1&#45;&gt;Node48</title>
<path fill="none" stroke="#191970" d="M800.1895,-533.0361C707.6052,-523.3823 575.4726,-505.1858 532.366,-477 459.676,-429.4707 463.9507,-307.1199 468.8049,-258.6799"/>
<polygon fill="#191970" stroke="#191970" points="472.3066,-258.8596 469.9441,-248.5315 465.3503,-258.0786 472.3066,-258.8596"/>
</g>
<!-- Node50 -->
<g id="node50" class="node">
<title>Node50</title>
<g id="a_node50"><a xlink:href="../../da/d91/G4SystemOfUnits_8hh.html" target="_top" xlink:title="G4SystemOfUnits.hh">
<polygon fill="none" stroke="#ff0000" points="2574.866,-456.5 2574.866,-476.5 2695.866,-476.5 2695.866,-456.5 2574.866,-456.5"/>
<text text-anchor="middle" x="2635.366" y="-463.5" font-family="FreeSans" font-size="10.00" fill="#000000">G4SystemOfUnits.hh</text>
</a>
</g>
</g>
<!-- Node1&#45;&gt;Node50 -->
<g id="edge109" class="edge">
<title>Node1&#45;&gt;Node50</title>
<path fill="none" stroke="#191970" d="M992.4979,-539.0444C1299.2647,-531.008 2252.6949,-504.4302 2560.366,-477 2561.8393,-476.8687 2563.328,-476.7286 2564.8278,-476.5808"/>
<polygon fill="#191970" stroke="#191970" points="2565.2751,-480.0529 2574.8437,-475.5042 2564.5269,-473.093 2565.2751,-480.0529"/>
</g>
<!-- Node3 -->
<g id="node3" class="node">
<title>Node3</title>
<g id="a_node3"><a xlink:href="../../da/d46/globals_8hh.html" target="_top" xlink:title="globals.hh">
<polygon fill="none" stroke="#ff0000" points="1170.366,-114.5 1170.366,-134.5 1238.366,-134.5 1238.366,-114.5 1170.366,-114.5"/>
<text text-anchor="middle" x="1204.366" y="-121.5" font-family="FreeSans" font-size="10.00" fill="#000000">globals.hh</text>
</a>
</g>
</g>
<!-- Node2&#45;&gt;Node3 -->
<g id="edge2" class="edge">
<title>Node2&#45;&gt;Node3</title>
<path fill="none" stroke="#191970" d="M204.3164,-228.1162C190.2607,-213.6911 169.5973,-187.5048 185.366,-171 219.4913,-135.282 968.427,-126.5012 1160.0368,-124.836"/>
<polygon fill="#191970" stroke="#191970" points="1160.3281,-128.3338 1170.298,-124.7491 1160.2687,-121.334 1160.3281,-128.3338"/>
</g>
<!-- Node7 -->
<g id="node7" class="node">
<title>Node7</title>
<g id="a_node7"><a xlink:href="../../d3/dbd/RadiatorDescription_8hh.html" target="_top" xlink:title="RadiatorDescription.hh">
<polygon fill="none" stroke="#000000" points="194.366,-171.5 194.366,-191.5 326.366,-191.5 326.366,-171.5 194.366,-171.5"/>
<text text-anchor="middle" x="260.366" y="-178.5" font-family="FreeSans" font-size="10.00" fill="#000000">RadiatorDescription.hh</text>
</a>
</g>
</g>
<!-- Node2&#45;&gt;Node7 -->
<g id="edge7" class="edge">
<title>Node2&#45;&gt;Node7</title>
<path fill="none" stroke="#191970" d="M223.4111,-228.3095C229.6823,-220.3661 238.5514,-209.1319 246.029,-199.6602"/>
<polygon fill="#191970" stroke="#191970" points="248.9412,-201.6199 252.3906,-191.6022 243.447,-197.2823 248.9412,-201.6199"/>
</g>
<!-- Node3&#45;&gt;Node4 -->
<g id="edge3" class="edge">
<title>Node3&#45;&gt;Node4</title>
<path fill="none" stroke="#191970" d="M1238.4539,-122.5214C1387.7769,-113.854 1983.9202,-79.2509 2145.6873,-69.8612"/>
<polygon fill="#191970" stroke="#191970" points="2145.9247,-73.3534 2155.7051,-69.2797 2145.519,-66.3652 2145.9247,-73.3534"/>
</g>
<!-- Node5 -->
<g id="node5" class="node">
<title>Node5</title>
<g id="a_node5"><a xlink:href="../../de/d29/G4Types_8hh.html" target="_top" xlink:title="G4Types.hh">
<polygon fill="none" stroke="#ff0000" points="1166.866,-.5 1166.866,-20.5 1241.866,-20.5 1241.866,-.5 1166.866,-.5"/>
<text text-anchor="middle" x="1204.366" y="-7.5" font-family="FreeSans" font-size="10.00" fill="#000000">G4Types.hh</text>
</a>
</g>
</g>
<!-- Node3&#45;&gt;Node5 -->
<g id="edge6" class="edge">
<title>Node3&#45;&gt;Node5</title>
<path fill="none" stroke="#191970" d="M1204.366,-114.3833C1204.366,-95.6703 1204.366,-55.3266 1204.366,-30.7866"/>
<polygon fill="#191970" stroke="#191970" points="1207.8661,-30.7579 1204.366,-20.7579 1200.8661,-30.758 1207.8661,-30.7579"/>
</g>
<!-- Node6 -->
<g id="node6" class="node">
<title>Node6</title>
<polygon fill="none" stroke="#bfbfbf" points="1083.866,-57.5 1083.866,-77.5 1148.866,-77.5 1148.866,-57.5 1083.866,-57.5"/>
<text text-anchor="middle" x="1116.366" y="-64.5" font-family="FreeSans" font-size="10.00" fill="#000000">algorithm</text>
</g>
<!-- Node3&#45;&gt;Node6 -->
<g id="edge5" class="edge">
<title>Node3&#45;&gt;Node6</title>
<path fill="none" stroke="#191970" d="M1188.6334,-114.3095C1175.2436,-105.6366 1155.7973,-93.0407 1140.449,-83.0992"/>
<polygon fill="#191970" stroke="#191970" points="1142.2584,-80.1011 1131.9625,-77.6022 1138.4529,-85.9764 1142.2584,-80.1011"/>
</g>
<!-- Node4&#45;&gt;Node5 -->
<g id="edge4" class="edge">
<title>Node4&#45;&gt;Node5</title>
<path fill="none" stroke="#191970" d="M2155.6279,-65.7158C2014.1114,-57.5015 1424.84,-23.2974 1252.1332,-13.2726"/>
<polygon fill="#191970" stroke="#191970" points="1252.2638,-9.7744 1242.0777,-12.689 1251.8581,-16.7627 1252.2638,-9.7744"/>
</g>
<!-- Node7&#45;&gt;Node3 -->
<g id="edge8" class="edge">
<title>Node7&#45;&gt;Node3</title>
<path fill="none" stroke="#191970" d="M326.5829,-171.9163C329.5487,-171.5859 332.4869,-171.2781 335.366,-171 650.5825,-140.5577 1032.1905,-128.7929 1160.1492,-125.5286"/>
<polygon fill="#191970" stroke="#191970" points="1160.4234,-129.0229 1170.3324,-125.2732 1160.2478,-122.0251 1160.4234,-129.0229"/>
</g>
<!-- Node10&#45;&gt;Node3 -->
<g id="edge15" class="edge">
<title>Node10&#45;&gt;Node3</title>
<path fill="none" stroke="#191970" d="M2004.7167,-294.2363C1873.1343,-290.1631 1481.7608,-276.0435 1357.366,-249 1287.27,-233.7611 1248.0302,-250.3933 1206.366,-192 1196.7072,-178.463 1197.1379,-159.2045 1199.4426,-144.7206"/>
<polygon fill="#191970" stroke="#191970" points="1202.9076,-145.2412 1201.4342,-134.7493 1196.0432,-143.8701 1202.9076,-145.2412"/>
</g>
<!-- Node10&#45;&gt;Node4 -->
<g id="edge16" class="edge">
<title>Node10&#45;&gt;Node4</title>
<path fill="none" stroke="#191970" d="M2092.0243,-292.5966C2183.5793,-286.1309 2389.229,-269.489 2413.366,-249 2460.5365,-208.9589 2487.0955,-161.4333 2447.366,-114 2419.734,-81.0099 2293.21,-71.4046 2227.0095,-68.6234"/>
<polygon fill="#191970" stroke="#191970" points="2227.0549,-65.1226 2216.927,-68.2331 2226.7841,-72.1174 2227.0549,-65.1226"/>
</g>
<!-- Node11 -->
<g id="node11" class="node">
<title>Node11</title>
<polygon fill="none" stroke="#bfbfbf" points="1768.866,-114.5 1768.866,-134.5 1817.866,-134.5 1817.866,-114.5 1768.866,-114.5"/>
<text text-anchor="middle" x="1793.366" y="-121.5" font-family="FreeSans" font-size="10.00" fill="#000000">vector</text>
</g>
<!-- Node10&#45;&gt;Node11 -->
<g id="edge12" class="edge">
<title>Node10&#45;&gt;Node11</title>
<path fill="none" stroke="#191970" d="M2091.9124,-288.5459C2133.47,-280.9154 2191.7162,-267.2787 2205.366,-249 2210.9505,-241.5217 2208.9378,-236.6229 2205.366,-228 2191.6557,-194.9004 2180.5033,-186.8352 2148.366,-171 2092.4509,-143.4485 1906.2468,-130.5258 1828.2282,-126.2212"/>
<polygon fill="#191970" stroke="#191970" points="1828.1355,-122.7112 1817.9623,-125.6703 1827.7604,-129.7012 1828.1355,-122.7112"/>
</g>
<!-- Node12 -->
<g id="node12" class="node">
<title>Node12</title>
<polygon fill="none" stroke="#bfbfbf" points="1782.866,-171.5 1782.866,-191.5 1821.866,-191.5 1821.866,-171.5 1782.866,-171.5"/>
<text text-anchor="middle" x="1802.366" y="-178.5" font-family="FreeSans" font-size="10.00" fill="#000000">map</text>
</g>
<!-- Node10&#45;&gt;Node12 -->
<g id="edge13" class="edge">
<title>Node10&#45;&gt;Node12</title>
<path fill="none" stroke="#191970" d="M2004.5592,-288.698C1969.6837,-282.0399 1920.4157,-269.7942 1881.366,-249 1856.959,-236.0031 1833.4576,-214.3709 1818.5273,-199.1037"/>
<polygon fill="#191970" stroke="#191970" points="1820.9763,-196.6002 1811.5417,-191.7796 1815.9109,-201.4316 1820.9763,-196.6002"/>
</g>
<!-- Node13 -->
<g id="node13" class="node">
<title>Node13</title>
<g id="a_node13"><a xlink:href="../../dd/d09/PhysicalConstants_8h.html" target="_top" xlink:title="CLHEP/Units/PhysicalConstants.h">
<polygon fill="none" stroke="#ff0000" points="2256.366,-114.5 2256.366,-134.5 2438.366,-134.5 2438.366,-114.5 2256.366,-114.5"/>
<text text-anchor="middle" x="2347.366" y="-121.5" font-family="FreeSans" font-size="10.00" fill="#000000">CLHEP/Units/PhysicalConstants.h</text>
</a>
</g>
</g>
<!-- Node10&#45;&gt;Node13 -->
<g id="edge14" class="edge">
<title>Node10&#45;&gt;Node13</title>
<path fill="none" stroke="#191970" d="M2092.0633,-292.2456C2179.4089,-285.3599 2369.1216,-268.3507 2391.366,-249 2418.0658,-225.7735 2422.9416,-202.7765 2407.366,-171 2400.9875,-157.9867 2389.0173,-147.573 2377.4365,-139.9269"/>
<polygon fill="#191970" stroke="#191970" points="2379.1136,-136.85 2368.7556,-134.6221 2375.4635,-142.823 2379.1136,-136.85"/>
</g>
<!-- Node14 -->
<g id="node14" class="node">
<title>Node14</title>
<g id="a_node14"><a xlink:href="../../dc/d43/G4Element_8hh.html" target="_top" xlink:title="G4Element.hh">
<polygon fill="none" stroke="#ff0000" points="2032.366,-171.5 2032.366,-191.5 2120.366,-191.5 2120.366,-171.5 2032.366,-171.5"/>
<text text-anchor="middle" x="2076.366" y="-178.5" font-family="FreeSans" font-size="10.00" fill="#000000">G4Element.hh</text>
</a>
</g>
</g>
<!-- Node10&#45;&gt;Node14 -->
<g id="edge17" class="edge">
<title>Node10&#45;&gt;Node14</title>
<path fill="none" stroke="#191970" d="M2050.8509,-285.3833C2055.447,-266.6703 2065.356,-226.3266 2071.3834,-201.7866"/>
<polygon fill="#191970" stroke="#191970" points="2074.8602,-202.3042 2073.8465,-191.7579 2068.0622,-200.6344 2074.8602,-202.3042"/>
</g>
<!-- Node15 -->
<g id="node15" class="node">
<title>Node15</title>
<g id="a_node15"><a xlink:href="../../df/d70/G4MaterialPropertiesTable_8hh.html" target="_top" xlink:title="G4MaterialPropertiesTable.hh">
<polygon fill="none" stroke="#ff0000" points="1564.366,-228.5 1564.366,-248.5 1728.366,-248.5 1728.366,-228.5 1564.366,-228.5"/>
<text text-anchor="middle" x="1646.366" y="-235.5" font-family="FreeSans" font-size="10.00" fill="#000000">G4MaterialPropertiesTable.hh</text>
</a>
</g>
</g>
<!-- Node10&#45;&gt;Node15 -->
<g id="edge21" class="edge">
<title>Node10&#45;&gt;Node15</title>
<path fill="none" stroke="#191970" d="M2004.5797,-289.2915C1938.094,-279.8644 1810.5956,-261.7863 1727.0247,-249.9367"/>
<polygon fill="#191970" stroke="#191970" points="1727.4503,-246.4621 1717.0579,-248.5235 1726.4675,-253.3928 1727.4503,-246.4621"/>
</g>
<!-- Node16 -->
<g id="node16" class="node">
<title>Node16</title>
<g id="a_node16"><a xlink:href="../../d6/d29/G4IonisParamMat_8hh.html" target="_top" xlink:title="G4IonisParamMat.hh">
<polygon fill="none" stroke="#ff0000" points="1898.866,-228.5 1898.866,-248.5 2019.866,-248.5 2019.866,-228.5 1898.866,-228.5"/>
<text text-anchor="middle" x="1959.366" y="-235.5" font-family="FreeSans" font-size="10.00" fill="#000000">G4IonisParamMat.hh</text>
</a>
</g>
</g>
<!-- Node10&#45;&gt;Node16 -->
<g id="edge24" class="edge">
<title>Node10&#45;&gt;Node16</title>
<path fill="none" stroke="#191970" d="M2032.4546,-285.3095C2018.9127,-276.6366 1999.2453,-264.0407 1983.7227,-254.0992"/>
<polygon fill="#191970" stroke="#191970" points="1985.4484,-251.0481 1975.1397,-248.6022 1981.6731,-256.9429 1985.4484,-251.0481"/>
</g>
<!-- Node17 -->
<g id="node17" class="node">
<title>Node17</title>
<g id="a_node17"><a xlink:href="../../d9/d7a/G4Threading_8hh.html" target="_top" xlink:title="G4Threading.hh">
<polygon fill="none" stroke="#ff0000" points="1916.366,-171.5 1916.366,-191.5 2014.366,-191.5 2014.366,-171.5 1916.366,-171.5"/>
<text text-anchor="middle" x="1965.366" y="-178.5" font-family="FreeSans" font-size="10.00" fill="#000000">G4Threading.hh</text>
</a>
</g>
</g>
<!-- Node10&#45;&gt;Node17 -->
<g id="edge41" class="edge">
<title>Node10&#45;&gt;Node17</title>
<path fill="none" stroke="#191970" d="M2004.546,-288.5857C1962.7267,-280.9865 1904.1117,-267.3739 1890.366,-249 1874.5961,-227.9201 1903.1871,-208.3283 1929.4905,-195.7418"/>
<polygon fill="#191970" stroke="#191970" points="1930.9671,-198.9153 1938.6225,-191.591 1928.0705,-192.5427 1930.9671,-198.9153"/>
</g>
<!-- Node18 -->
<g id="node18" class="node">
<title>Node18</title>
<g id="a_node18"><a xlink:href="../../d3/d36/G4SandiaTable_8hh.html" target="_top" xlink:title="G4SandiaTable.hh">
<polygon fill="none" stroke="#ff0000" points="2290.866,-171.5 2290.866,-191.5 2397.866,-191.5 2397.866,-171.5 2290.866,-171.5"/>
<text text-anchor="middle" x="2344.366" y="-178.5" font-family="FreeSans" font-size="10.00" fill="#000000">G4SandiaTable.hh</text>
</a>
</g>
</g>
<!-- Node10&#45;&gt;Node18 -->
<g id="edge31" class="edge">
<title>Node10&#45;&gt;Node18</title>
<path fill="none" stroke="#191970" d="M2092.0962,-292.4338C2176.9038,-286.0413 2357.0436,-270.1122 2375.366,-249 2388.0603,-234.3729 2375.1903,-213.6761 2362.3824,-199.0658"/>
<polygon fill="#191970" stroke="#191970" points="2364.8276,-196.5565 2355.4361,-191.6523 2359.7195,-201.3427 2364.8276,-196.5565"/>
</g>
<!-- Node19 -->
<g id="node19" class="node">
<title>Node19</title>
<g id="a_node19"><a xlink:href="../../d1/d10/G4ElementVector_8hh.html" target="_top" xlink:title="G4ElementVector.hh">
<polygon fill="none" stroke="#000000" points="2076.866,-228.5 2076.866,-248.5 2195.866,-248.5 2195.866,-228.5 2076.866,-228.5"/>
<text text-anchor="middle" x="2136.366" y="-235.5" font-family="FreeSans" font-size="10.00" fill="#000000">G4ElementVector.hh</text>
</a>
</g>
</g>
<!-- Node10&#45;&gt;Node19 -->
<g id="edge36" class="edge">
<title>Node10&#45;&gt;Node19</title>
<path fill="none" stroke="#191970" d="M2064.0987,-285.3095C2077.4885,-276.6366 2096.9348,-264.0407 2112.2831,-254.0992"/>
<polygon fill="#191970" stroke="#191970" points="2114.2792,-256.9764 2120.7696,-248.6022 2110.4737,-251.1011 2114.2792,-256.9764"/>
</g>
<!-- Node20 -->
<g id="node20" class="node">
<title>Node20</title>
<g id="a_node20"><a xlink:href="../../d1/db0/G4MaterialTable_8hh.html" target="_top" xlink:title="G4MaterialTable.hh">
<polygon fill="none" stroke="#000000" points="2252.366,-228.5 2252.366,-248.5 2366.366,-248.5 2366.366,-228.5 2252.366,-228.5"/>
<text text-anchor="middle" x="2309.366" y="-235.5" font-family="FreeSans" font-size="10.00" fill="#000000">G4MaterialTable.hh</text>
</a>
</g>
</g>
<!-- Node10&#45;&gt;Node20 -->
<g id="edge39" class="edge">
<title>Node10&#45;&gt;Node20</title>
<path fill="none" stroke="#191970" d="M2092.0516,-285.9595C2136.3539,-276.2843 2205.0858,-261.2739 2253.3638,-250.7304"/>
<polygon fill="#191970" stroke="#191970" points="2254.3163,-254.1049 2263.3392,-248.5518 2252.8227,-247.2661 2254.3163,-254.1049"/>
</g>
<!-- Node14&#45;&gt;Node3 -->
<g id="edge18" class="edge">
<title>Node14&#45;&gt;Node3</title>
<path fill="none" stroke="#191970" d="M2032.1946,-172.2724C2029.2141,-171.7971 2026.2508,-171.3659 2023.366,-171 1729.2359,-133.6979 1371.8698,-126.3138 1248.6288,-124.8567"/>
<polygon fill="#191970" stroke="#191970" points="1248.4952,-121.3551 1238.457,-124.7438 1248.4175,-128.3546 1248.4952,-121.3551"/>
</g>
<!-- Node14&#45;&gt;Node4 -->
<g id="edge20" class="edge">
<title>Node14&#45;&gt;Node4</title>
<path fill="none" stroke="#191970" d="M2086.1278,-171.3833C2104.8349,-151.9959 2145.945,-109.3909 2169.2901,-85.1969"/>
<polygon fill="#191970" stroke="#191970" points="2172.043,-87.3845 2176.468,-77.7579 2167.0056,-82.5239 2172.043,-87.3845"/>
</g>
<!-- Node14&#45;&gt;Node11 -->
<g id="edge19" class="edge">
<title>Node14&#45;&gt;Node11</title>
<path fill="none" stroke="#191970" d="M2032.1473,-172.5938C1975.7178,-161.2281 1879.2815,-141.8045 1827.9291,-131.4615"/>
<polygon fill="#191970" stroke="#191970" points="1828.4796,-128.0021 1817.9854,-129.4587 1827.0974,-134.8643 1828.4796,-128.0021"/>
</g>
<!-- Node15&#45;&gt;Node3 -->
<g id="edge23" class="edge">
<title>Node15&#45;&gt;Node3</title>
<path fill="none" stroke="#191970" d="M1645.7984,-228.352C1644.3605,-213.2155 1639.2837,-185.0088 1621.366,-171 1592.441,-148.3851 1350.4327,-132.5498 1248.9129,-126.8422"/>
<polygon fill="#191970" stroke="#191970" points="1248.8568,-123.3338 1238.6783,-126.2745 1248.469,-130.3231 1248.8568,-123.3338"/>
</g>
<!-- Node15&#45;&gt;Node12 -->
<g id="edge22" class="edge">
<title>Node15&#45;&gt;Node12</title>
<path fill="none" stroke="#191970" d="M1673.8966,-228.4408C1701.7516,-218.263 1744.6556,-202.5865 1773.1123,-192.1889"/>
<polygon fill="#191970" stroke="#191970" points="1774.3354,-195.4683 1782.5269,-188.7489 1771.933,-188.8935 1774.3354,-195.4683"/>
</g>
<!-- Node16&#45;&gt;Node3 -->
<g id="edge26" class="edge">
<title>Node16&#45;&gt;Node3</title>
<path fill="none" stroke="#191970" d="M1944.8568,-228.2598C1921.9756,-212.73 1875.5547,-183.6901 1831.366,-171 1721.6516,-139.4921 1372.6885,-128.4298 1248.6475,-125.4362"/>
<polygon fill="#191970" stroke="#191970" points="1248.466,-121.9311 1238.3864,-125.1947 1248.3012,-128.9291 1248.466,-121.9311"/>
</g>
<!-- Node16&#45;&gt;Node4 -->
<g id="edge25" class="edge">
<title>Node16&#45;&gt;Node4</title>
<path fill="none" stroke="#191970" d="M2015.3926,-228.4822C2057.9873,-219.9108 2112.1098,-206.6598 2129.366,-192 2161.531,-164.6747 2176.4971,-115.3709 2182.6495,-87.7156"/>
<polygon fill="#191970" stroke="#191970" points="2186.1371,-88.1303 2184.7125,-77.6317 2179.2791,-86.7272 2186.1371,-88.1303"/>
</g>
<!-- Node16&#45;&gt;Node17 -->
<g id="edge27" class="edge">
<title>Node16&#45;&gt;Node17</title>
<path fill="none" stroke="#191970" d="M1960.4387,-228.3095C1961.2151,-220.9335 1962.2903,-210.72 1963.2381,-201.715"/>
<polygon fill="#191970" stroke="#191970" points="1966.7365,-201.9137 1964.3026,-191.6022 1959.7749,-201.1809 1966.7365,-201.9137"/>
</g>
<!-- Node17&#45;&gt;Node3 -->
<g id="edge28" class="edge">
<title>Node17&#45;&gt;Node3</title>
<path fill="none" stroke="#191970" d="M1916.3377,-176.0719C1899.8362,-174.3332 1881.314,-172.4776 1864.366,-171 1632.6311,-150.7966 1354.5273,-133.4594 1248.4214,-127.0961"/>
<polygon fill="#191970" stroke="#191970" points="1248.5928,-123.6002 1238.4017,-126.4972 1248.1751,-130.5877 1248.5928,-123.6002"/>
</g>
<!-- Node17&#45;&gt;Node5 -->
<g id="edge29" class="edge">
<title>Node17&#45;&gt;Node5</title>
<path fill="none" stroke="#191970" d="M1948.6109,-171.3032C1923.2906,-156.3654 1873.3425,-128.7159 1827.366,-114 1619.4385,-47.4476 1358.0594,-21.8091 1252.1728,-13.7015"/>
<polygon fill="#191970" stroke="#191970" points="1252.3532,-10.2053 1242.1198,-12.949 1251.8306,-17.1858 1252.3532,-10.2053"/>
</g>
<!-- Node17&#45;&gt;Node11 -->
<g id="edge30" class="edge">
<title>Node17&#45;&gt;Node11</title>
<path fill="none" stroke="#191970" d="M1935.0118,-171.4408C1904.9889,-161.4913 1859.1098,-146.2872 1827.7556,-135.8965"/>
<polygon fill="#191970" stroke="#191970" points="1828.718,-132.5283 1818.1246,-132.7049 1826.5159,-139.173 1828.718,-132.5283"/>
</g>
<!-- Node18&#45;&gt;Node3 -->
<g id="edge33" class="edge">
<title>Node18&#45;&gt;Node3</title>
<path fill="none" stroke="#191970" d="M2290.5301,-178.8082C2095.3706,-169.0502 1427.1422,-135.6388 1248.5511,-126.7093"/>
<polygon fill="#191970" stroke="#191970" points="1248.6312,-123.209 1238.4688,-126.2051 1248.2816,-130.2002 1248.6312,-123.209"/>
</g>
<!-- Node18&#45;&gt;Node4 -->
<g id="edge32" class="edge">
<title>Node18&#45;&gt;Node4</title>
<path fill="none" stroke="#191970" d="M2316.4316,-171.4895C2296.1342,-163.4398 2268.6133,-150.8684 2247.366,-135 2228.7115,-121.068 2211.3151,-100.8005 2199.9128,-86.1127"/>
<polygon fill="#191970" stroke="#191970" points="2202.4503,-83.6651 2193.6303,-77.795 2196.8647,-87.8841 2202.4503,-83.6651"/>
</g>
<!-- Node18&#45;&gt;Node11 -->
<g id="edge34" class="edge">
<title>Node18&#45;&gt;Node11</title>
<path fill="none" stroke="#191970" d="M2290.5841,-172.9047C2285.781,-172.2252 2280.9887,-171.5789 2276.366,-171 2109.114,-150.0536 1908.2475,-133.4439 1828.4858,-127.1879"/>
<polygon fill="#191970" stroke="#191970" points="1828.2927,-123.6623 1818.0509,-126.3744 1827.7487,-130.6411 1828.2927,-123.6623"/>
</g>
<!-- Node18&#45;&gt;Node13 -->
<g id="edge35" class="edge">
<title>Node18&#45;&gt;Node13</title>
<path fill="none" stroke="#191970" d="M2344.9024,-171.3095C2345.2906,-163.9335 2345.8281,-153.72 2346.3021,-144.715"/>
<polygon fill="#191970" stroke="#191970" points="2349.8038,-144.7724 2346.8343,-134.6022 2342.8135,-144.4044 2349.8038,-144.7724"/>
</g>
<!-- Node19&#45;&gt;Node11 -->
<g id="edge37" class="edge">
<title>Node19&#45;&gt;Node11</title>
<path fill="none" stroke="#191970" d="M2138.7781,-228.2171C2141.5768,-213.4254 2144.1031,-186.2496 2129.366,-171 2108.6332,-149.546 1910.1733,-132.9194 1828.3584,-126.9214"/>
<polygon fill="#191970" stroke="#191970" points="1828.2967,-123.4079 1818.0705,-126.1783 1827.7923,-130.3897 1828.2967,-123.4079"/>
</g>
<!-- Node19&#45;&gt;Node14 -->
<g id="edge38" class="edge">
<title>Node19&#45;&gt;Node14</title>
<path fill="none" stroke="#191970" d="M2125.6392,-228.3095C2116.9364,-220.0419 2104.4811,-208.2093 2094.2708,-198.5096"/>
<polygon fill="#191970" stroke="#191970" points="2096.6606,-195.9523 2087,-191.6022 2091.8394,-201.0273 2096.6606,-195.9523"/>
</g>
<!-- Node20&#45;&gt;Node11 -->
<g id="edge40" class="edge">
<title>Node20&#45;&gt;Node11</title>
<path fill="none" stroke="#191970" d="M2302.2334,-228.344C2290.7662,-212.9266 2266.6295,-184.035 2238.366,-171 2165.4264,-137.3606 1919.9144,-127.7254 1828.2607,-125.2647"/>
<polygon fill="#191970" stroke="#191970" points="1828.2041,-121.7622 1818.1178,-125.0051 1828.0249,-128.7599 1828.2041,-121.7622"/>
</g>
<!-- Node22 -->
<g id="node22" class="node">
<title>Node22</title>
<g id="a_node22"><a xlink:href="../../d9/dbc/G4GeomTypes_8hh.html" target="_top" xlink:title="G4GeomTypes.hh">
<polygon fill="none" stroke="#ff0000" points="341.866,-399.5 341.866,-419.5 446.866,-419.5 446.866,-399.5 341.866,-399.5"/>
<text text-anchor="middle" x="394.366" y="-406.5" font-family="FreeSans" font-size="10.00" fill="#000000">G4GeomTypes.hh</text>
</a>
</g>
</g>
<!-- Node21&#45;&gt;Node22 -->
<g id="edge43" class="edge">
<title>Node21&#45;&gt;Node22</title>
<path fill="none" stroke="#191970" d="M238.2873,-456.5714C269.6678,-447.1074 317.0943,-432.8042 351.4304,-422.4489"/>
<polygon fill="#191970" stroke="#191970" points="352.6244,-425.7445 361.1879,-419.5061 350.6032,-419.0427 352.6244,-425.7445"/>
</g>
<!-- Node23 -->
<g id="node23" class="node">
<title>Node23</title>
<g id="a_node23"><a xlink:href="../../d8/df5/G4CSGSolid_8hh.html" target="_top" xlink:title="G4CSGSolid.hh">
<polygon fill="none" stroke="#ff0000" points="147.366,-399.5 147.366,-419.5 239.366,-419.5 239.366,-399.5 147.366,-399.5"/>
<text text-anchor="middle" x="193.366" y="-406.5" font-family="FreeSans" font-size="10.00" fill="#000000">G4CSGSolid.hh</text>
</a>
</g>
</g>
<!-- Node21&#45;&gt;Node23 -->
<g id="edge44" class="edge">
<title>Node21&#45;&gt;Node23</title>
<path fill="none" stroke="#191970" d="M203.2207,-456.3095C201.6508,-448.8524 199.4703,-438.4951 197.5594,-429.4186"/>
<polygon fill="#191970" stroke="#191970" points="200.9779,-428.6667 195.4928,-419.6022 194.1281,-430.1088 200.9779,-428.6667"/>
</g>
<!-- Node24 -->
<g id="node24" class="node">
<title>Node24</title>
<g id="a_node24"><a xlink:href="../../d7/dab/G4Polyhedron_8hh.html" target="_top" xlink:title="G4Polyhedron.hh">
<polygon fill="none" stroke="#ff0000" points="29.866,-342.5 29.866,-362.5 132.866,-362.5 132.866,-342.5 29.866,-342.5"/>
<text text-anchor="middle" x="81.366" y="-349.5" font-family="FreeSans" font-size="10.00" fill="#000000">G4Polyhedron.hh</text>
</a>
</g>
</g>
<!-- Node21&#45;&gt;Node24 -->
<g id="edge45" class="edge">
<title>Node21&#45;&gt;Node24</title>
<path fill="none" stroke="#191970" d="M188.2152,-456.3604C174.1086,-447.6193 153.972,-434.196 138.366,-420 121.8291,-404.9572 105.6461,-385.1635 94.7744,-370.9047"/>
<polygon fill="#191970" stroke="#191970" points="97.5291,-368.744 88.7359,-362.8338 91.9242,-372.9375 97.5291,-368.744"/>
</g>
<!-- Node25 -->
<g id="node25" class="node">
<title>Node25</title>
<polygon fill="none" stroke="#bfbfbf" points="257.366,-399.5 257.366,-419.5 323.366,-419.5 323.366,-399.5 257.366,-399.5"/>
<text text-anchor="middle" x="290.366" y="-406.5" font-family="FreeSans" font-size="10.00" fill="#000000">G4Box.icc</text>
</g>
<!-- Node21&#45;&gt;Node25 -->
<g id="edge47" class="edge">
<title>Node21&#45;&gt;Node25</title>
<path fill="none" stroke="#191970" d="M220.5623,-456.3095C233.3748,-447.7177 251.9285,-435.2758 266.6874,-425.3786"/>
<polygon fill="#191970" stroke="#191970" points="268.9452,-428.0787 275.3013,-419.6022 265.0465,-422.2649 268.9452,-428.0787"/>
</g>
<!-- Node24&#45;&gt;Node3 -->
<g id="edge46" class="edge">
<title>Node24&#45;&gt;Node3</title>
<path fill="none" stroke="#191970" d="M83.0975,-342.3013C89.1318,-310.3147 112.4611,-211.6818 176.366,-171 218.4053,-144.2378 968.2965,-128.7992 1160.0212,-125.2783"/>
<polygon fill="#191970" stroke="#191970" points="1160.3535,-128.7729 1170.2881,-125.0913 1160.226,-121.774 1160.3535,-128.7729"/>
</g>
<!-- Node26&#45;&gt;Node5 -->
<g id="edge50" class="edge">
<title>Node26&#45;&gt;Node5</title>
<path fill="none" stroke="#191970" d="M971.1616,-293.2705C774.6271,-285.8733 163.4766,-261.8816 147.366,-249 123.0246,-229.5371 128.366,-212.6658 128.366,-181.5 128.366,-181.5 128.366,-181.5 128.366,-124.5 128.366,-72.0244 948.3383,-24.2924 1156.6798,-13.0115"/>
<polygon fill="#191970" stroke="#191970" points="1156.9044,-16.5045 1166.7015,-12.4714 1156.5277,-9.5147 1156.9044,-16.5045"/>
</g>
<!-- Node26&#45;&gt;Node11 -->
<g id="edge49" class="edge">
<title>Node26&#45;&gt;Node11</title>
<path fill="none" stroke="#191970" d="M1091.5173,-291.8722C1196.3229,-285.1164 1408.0439,-269.4212 1479.366,-249 1499.8128,-243.1456 1502.4027,-235.3356 1522.366,-228 1583.0742,-205.6924 1602.937,-215.0529 1663.366,-192 1701.4567,-177.4689 1742.8208,-154.6669 1768.4213,-139.6512"/>
<polygon fill="#191970" stroke="#191970" points="1770.289,-142.6128 1777.1045,-134.5011 1766.7181,-136.5921 1770.289,-142.6128"/>
</g>
<!-- Node26&#45;&gt;Node17 -->
<g id="edge67" class="edge">
<title>Node26&#45;&gt;Node17</title>
<path fill="none" stroke="#191970" d="M1091.3831,-293.2619C1238.4831,-287.5004 1613.9519,-271.0499 1737.366,-249 1806.5047,-236.6473 1884.4472,-210.9007 1928.9555,-195.0187"/>
<polygon fill="#191970" stroke="#191970" points="1930.2398,-198.2763 1938.462,-191.5946 1927.8676,-191.6905 1930.2398,-198.2763"/>
</g>
<!-- Node26&#45;&gt;Node27 -->
<g id="edge51" class="edge">
<title>Node26&#45;&gt;Node27</title>
<path fill="none" stroke="#191970" d="M1052.3669,-285.4408C1071.1142,-276.461 1098.7977,-263.2008 1119.9639,-253.0624"/>
<polygon fill="#191970" stroke="#191970" points="1121.668,-256.127 1129.1748,-248.6504 1118.644,-249.8138 1121.668,-256.127"/>
</g>
<!-- Node29 -->
<g id="node29" class="node">
<title>Node29</title>
<g id="a_node29"><a xlink:href="../../db/d63/G4GeomSplitter_8hh.html" target="_top" xlink:title="G4GeomSplitter.hh">
<polygon fill="none" stroke="#ff0000" points="832.366,-171.5 832.366,-191.5 944.366,-191.5 944.366,-171.5 832.366,-171.5"/>
<text text-anchor="middle" x="888.366" y="-178.5" font-family="FreeSans" font-size="10.00" fill="#000000">G4GeomSplitter.hh</text>
</a>
</g>
</g>
<!-- Node26&#45;&gt;Node29 -->
<g id="edge66" class="edge">
<title>Node26&#45;&gt;Node29</title>
<path fill="none" stroke="#191970" d="M1015.0019,-285.4314C1000.7162,-276.419 979.6276,-262.5704 962.366,-249 942.0656,-233.0405 920.4165,-212.8834 905.8144,-198.7688"/>
<polygon fill="#191970" stroke="#191970" points="908.0825,-196.0918 898.4804,-191.614 903.1943,-201.1024 908.0825,-196.0918"/>
</g>
<!-- Node31 -->
<g id="node31" class="node">
<title>Node31</title>
<g id="a_node31"><a xlink:href="../../d2/d16/G4VPhysicalVolume_8hh.html" target="_top" xlink:title="G4VPhysicalVolume.hh">
<polygon fill="none" stroke="#ff0000" points="782.366,-228.5 782.366,-248.5 914.366,-248.5 914.366,-228.5 782.366,-228.5"/>
<text text-anchor="middle" x="848.366" y="-235.5" font-family="FreeSans" font-size="10.00" fill="#000000">G4VPhysicalVolume.hh</text>
</a>
</g>
</g>
<!-- Node26&#45;&gt;Node31 -->
<g id="edge60" class="edge">
<title>Node26&#45;&gt;Node31</title>
<path fill="none" stroke="#191970" d="M999.0706,-285.4408C968.8491,-276.0275 923.5267,-261.9107 890.478,-251.6169"/>
<polygon fill="#191970" stroke="#191970" points="891.2344,-248.1866 880.6459,-248.5544 889.1526,-254.8699 891.2344,-248.1866"/>
</g>
<!-- Node33 -->
<g id="node33" class="node">
<title>Node33</title>
<polygon fill="none" stroke="#bfbfbf" points="970.866,-228.5 970.866,-248.5 1091.866,-248.5 1091.866,-228.5 970.866,-228.5"/>
<text text-anchor="middle" x="1031.366" y="-235.5" font-family="FreeSans" font-size="10.00" fill="#000000">G4LogicalVolume.icc</text>
</g>
<!-- Node26&#45;&gt;Node33 -->
<g id="edge68" class="edge">
<title>Node26&#45;&gt;Node33</title>
<path fill="none" stroke="#191970" d="M1031.366,-285.3095C1031.366,-277.9335 1031.366,-267.72 1031.366,-258.715"/>
<polygon fill="#191970" stroke="#191970" points="1034.8661,-258.6022 1031.366,-248.6022 1027.8661,-258.6023 1034.8661,-258.6022"/>
</g>
<!-- Node27&#45;&gt;Node5 -->
<g id="edge55" class="edge">
<title>Node27&#45;&gt;Node5</title>
<path fill="none" stroke="#191970" d="M1109.7185,-229.7163C1074.7804,-221.2449 1028.338,-207.4593 1017.366,-192 1011.9641,-184.3888 1016.2448,-180.2657 1017.366,-171 1024.1952,-114.5645 1029.4215,-90.4769 1075.366,-57 1099.486,-39.4254 1130.9167,-27.9125 1156.7144,-20.7389"/>
<polygon fill="#191970" stroke="#191970" points="1157.8877,-24.049 1166.6598,-18.1076 1156.0972,-17.2819 1157.8877,-24.049"/>
</g>
<!-- Node27&#45;&gt;Node6 -->
<g id="edge54" class="edge">
<title>Node27&#45;&gt;Node6</title>
<path fill="none" stroke="#191970" d="M1110.5397,-228.429C1079.0892,-219.5758 1038.9554,-205.9582 1029.366,-192 1002.501,-152.8954 1056.3727,-107.2603 1090.7645,-83.5901"/>
<polygon fill="#191970" stroke="#191970" points="1093.0748,-86.256 1099.4462,-77.7911 1089.1866,-80.4351 1093.0748,-86.256"/>
</g>
<!-- Node27&#45;&gt;Node11 -->
<g id="edge52" class="edge">
<title>Node27&#45;&gt;Node11</title>
<path fill="none" stroke="#191970" d="M1186.0344,-228.4319C1251.8566,-209.8629 1386.2233,-172.0111 1391.366,-171 1525.7872,-144.573 1688.6597,-131.4265 1758.6564,-126.6614"/>
<polygon fill="#191970" stroke="#191970" points="1758.9403,-130.1503 1768.6855,-125.9931 1758.4749,-123.1658 1758.9403,-130.1503"/>
</g>
<!-- Node27&#45;&gt;Node12 -->
<g id="edge53" class="edge">
<title>Node27&#45;&gt;Node12</title>
<path fill="none" stroke="#191970" d="M1191.1516,-234.9344C1312.0483,-224.3652 1666.6202,-193.3674 1772.3031,-184.1282"/>
<polygon fill="#191970" stroke="#191970" points="1772.9096,-187.5886 1782.5667,-183.2309 1772.2999,-180.6152 1772.9096,-187.5886"/>
</g>
<!-- Node28 -->
<g id="node28" class="node">
<title>Node28</title>
<polygon fill="none" stroke="#bfbfbf" points="738.366,-171.5 738.366,-191.5 814.366,-191.5 814.366,-171.5 738.366,-171.5"/>
<text text-anchor="middle" x="776.366" y="-178.5" font-family="FreeSans" font-size="10.00" fill="#000000">G4String.hh</text>
</g>
<!-- Node27&#45;&gt;Node28 -->
<g id="edge56" class="edge">
<title>Node27&#45;&gt;Node28</title>
<path fill="none" stroke="#191970" d="M1109.7739,-229.5326C1106.9335,-228.988 1104.11,-228.4708 1101.366,-228 981.8111,-207.4854 947.8428,-213.2715 824.7291,-192.1099"/>
<polygon fill="#191970" stroke="#191970" points="824.98,-188.6009 814.5273,-190.3304 823.777,-195.4968 824.98,-188.6009"/>
</g>
<!-- Node27&#45;&gt;Node29 -->
<g id="edge57" class="edge">
<title>Node27&#45;&gt;Node29</title>
<path fill="none" stroke="#191970" d="M1109.716,-229.6563C1065.3415,-220.0023 993.9997,-204.4814 944.347,-193.6791"/>
<polygon fill="#191970" stroke="#191970" points="944.925,-190.223 934.4095,-191.5171 943.4369,-197.063 944.925,-190.223"/>
</g>
<!-- Node30 -->
<g id="node30" class="node">
<title>Node30</title>
<polygon fill="none" stroke="#bfbfbf" points="1038.366,-171.5 1038.366,-191.5 1120.366,-191.5 1120.366,-171.5 1038.366,-171.5"/>
<text text-anchor="middle" x="1079.366" y="-178.5" font-family="FreeSans" font-size="10.00" fill="#000000">G4Region.icc</text>
</g>
<!-- Node27&#45;&gt;Node30 -->
<g id="edge59" class="edge">
<title>Node27&#45;&gt;Node30</title>
<path fill="none" stroke="#191970" d="M1137.6727,-228.3095C1127.1724,-219.8798 1112.0558,-207.7439 1099.8458,-197.9415"/>
<polygon fill="#191970" stroke="#191970" points="1101.9386,-195.1333 1091.9495,-191.6022 1097.5564,-200.5919 1101.9386,-195.1333"/>
</g>
<!-- Node29&#45;&gt;Node3 -->
<g id="edge58" class="edge">
<title>Node29&#45;&gt;Node3</title>
<path fill="none" stroke="#191970" d="M944.1331,-171.4408C1005.6825,-160.3385 1103.5049,-142.6933 1160.0468,-132.4943"/>
<polygon fill="#191970" stroke="#191970" points="1160.8861,-135.8995 1170.106,-130.6798 1159.6435,-129.0106 1160.8861,-135.8995"/>
</g>
<!-- Node31&#45;&gt;Node5 -->
<g id="edge61" class="edge">
<title>Node31&#45;&gt;Node5</title>
<path fill="none" stroke="#191970" d="M782.2121,-235.074C718.1115,-230.2057 627.4329,-218.6899 605.366,-192 599.4188,-184.8068 599.6843,-178.4046 605.366,-171 673.5653,-82.1213 1026.7472,-31.6784 1156.4896,-15.917"/>
<polygon fill="#191970" stroke="#191970" points="1157.0167,-19.379 1166.5287,-14.7128 1156.1829,-12.4288 1157.0167,-19.379"/>
</g>
<!-- Node31&#45;&gt;Node28 -->
<g id="edge62" class="edge">
<title>Node31&#45;&gt;Node28</title>
<path fill="none" stroke="#191970" d="M835.4939,-228.3095C824.8458,-219.8798 809.5162,-207.7439 797.1342,-197.9415"/>
<polygon fill="#191970" stroke="#191970" points="799.1397,-195.0651 789.1268,-191.6022 794.7948,-200.5535 799.1397,-195.0651"/>
</g>
<!-- Node31&#45;&gt;Node29 -->
<g id="edge65" class="edge">
<title>Node31&#45;&gt;Node29</title>
<path fill="none" stroke="#191970" d="M855.5172,-228.3095C861.0347,-220.4472 868.8146,-209.3608 875.4182,-199.9507"/>
<polygon fill="#191970" stroke="#191970" points="878.3974,-201.7983 881.2768,-191.6022 872.6675,-197.7773 878.3974,-201.7983"/>
</g>
<!-- Node32 -->
<g id="node32" class="node">
<title>Node32</title>
<g id="a_node32"><a xlink:href="../../d8/dbe/G4ThreeVector_8hh.html" target="_top" xlink:title="G4ThreeVector.hh">
<polygon fill="none" stroke="#ff0000" points="614.366,-171.5 614.366,-191.5 720.366,-191.5 720.366,-171.5 614.366,-171.5"/>
<text text-anchor="middle" x="667.366" y="-178.5" font-family="FreeSans" font-size="10.00" fill="#000000">G4ThreeVector.hh</text>
</a>
</g>
</g>
<!-- Node31&#45;&gt;Node32 -->
<g id="edge63" class="edge">
<title>Node31&#45;&gt;Node32</title>
<path fill="none" stroke="#191970" d="M816.4235,-228.4408C786.5323,-219.0275 741.7053,-204.9107 709.0178,-194.6169"/>
<polygon fill="#191970" stroke="#191970" points="709.8827,-191.2198 699.2931,-191.5544 707.78,-197.8966 709.8827,-191.2198"/>
</g>
<!-- Node32&#45;&gt;Node3 -->
<g id="edge64" class="edge">
<title>Node32&#45;&gt;Node3</title>
<path fill="none" stroke="#191970" d="M720.4287,-172.2618C723.4492,-171.8144 726.4443,-171.3899 729.366,-171 887.2851,-149.9245 1075.9419,-134.2762 1160.078,-127.7916"/>
<polygon fill="#191970" stroke="#191970" points="1160.5856,-131.2631 1170.2893,-127.0102 1160.0514,-124.2835 1160.5856,-131.2631"/>
</g>
<!-- Node34&#45;&gt;Node31 -->
<g id="edge70" class="edge">
<title>Node34&#45;&gt;Node31</title>
<path fill="none" stroke="#191970" d="M670.4853,-285.4408C706.6947,-275.8855 761.27,-261.4837 800.4155,-251.1536"/>
<polygon fill="#191970" stroke="#191970" points="801.4893,-254.4902 810.2652,-248.5544 799.7031,-247.7219 801.4893,-254.4902"/>
</g>
<!-- Node35 -->
<g id="node35" class="node">
<title>Node35</title>
<g id="a_node35"><a xlink:href="../../d3/dd7/G4Transform3D_8hh.html" target="_top" xlink:title="G4Transform3D.hh">
<polygon fill="none" stroke="#ff0000" points="576.866,-228.5 576.866,-248.5 687.866,-248.5 687.866,-228.5 576.866,-228.5"/>
<text text-anchor="middle" x="632.366" y="-235.5" font-family="FreeSans" font-size="10.00" fill="#000000">G4Transform3D.hh</text>
</a>
</g>
</g>
<!-- Node34&#45;&gt;Node35 -->
<g id="edge71" class="edge">
<title>Node34&#45;&gt;Node35</title>
<path fill="none" stroke="#191970" d="M632.366,-285.3095C632.366,-277.9335 632.366,-267.72 632.366,-258.715"/>
<polygon fill="#191970" stroke="#191970" points="635.8661,-258.6022 632.366,-248.6022 628.8661,-258.6023 635.8661,-258.6022"/>
</g>
<!-- Node35&#45;&gt;Node3 -->
<g id="edge72" class="edge">
<title>Node35&#45;&gt;Node3</title>
<path fill="none" stroke="#191970" d="M622.1242,-228.1119C609.1211,-213.6817 590.1072,-187.4893 605.366,-171 624.1808,-150.6681 1024.3575,-132.0555 1159.9209,-126.313"/>
<polygon fill="#191970" stroke="#191970" points="1160.1217,-129.8077 1169.9658,-125.8906 1159.8275,-122.8139 1160.1217,-129.8077"/>
</g>
<!-- Node36&#45;&gt;Node5 -->
<g id="edge74" class="edge">
<title>Node36&#45;&gt;Node5</title>
<path fill="none" stroke="#191970" d="M2599.0531,-228.4594C2590.5549,-204.3891 2565.5598,-143.2313 2522.366,-114 2411.4132,-38.9127 2359.4093,-72.7526 2226.366,-57 2033.9613,-34.2189 1427.2427,-16.4949 1252.1221,-11.7539"/>
<polygon fill="#191970" stroke="#191970" points="1252.028,-8.2501 1241.9373,-11.4796 1251.8395,-15.2476 1252.028,-8.2501"/>
</g>
<!-- Node36&#45;&gt;Node32 -->
<g id="edge75" class="edge">
<title>Node36&#45;&gt;Node32</title>
<path fill="none" stroke="#191970" d="M2536.8214,-235.0452C2491.4907,-232.7596 2429.7781,-229.8532 2375.366,-228 1647.3626,-203.2054 1459.5034,-260.7515 730.3565,-191.9487"/>
<polygon fill="#191970" stroke="#191970" points="730.6841,-188.4641 720.3983,-191.0043 730.0232,-195.4328 730.6841,-188.4641"/>
</g>
<!-- Node37 -->
<g id="node37" class="node">
<title>Node37</title>
<g id="a_node37"><a xlink:href="../../d7/dd4/G4MagneticField_8hh.html" target="_top" xlink:title="G4MagneticField.hh">
<polygon fill="none" stroke="#ff0000" points="2574.366,-57.5 2574.366,-77.5 2690.366,-77.5 2690.366,-57.5 2574.366,-57.5"/>
<text text-anchor="middle" x="2632.366" y="-64.5" font-family="FreeSans" font-size="10.00" fill="#000000">G4MagneticField.hh</text>
</a>
</g>
</g>
<!-- Node36&#45;&gt;Node37 -->
<g id="edge76" class="edge">
<title>Node36&#45;&gt;Node37</title>
<path fill="none" stroke="#191970" d="M2604.1528,-228.3153C2608.977,-200.8178 2622.3354,-124.6748 2628.7872,-87.8993"/>
<polygon fill="#191970" stroke="#191970" points="2632.27,-88.302 2630.5507,-77.8476 2625.3753,-87.0923 2632.27,-88.302"/>
</g>
<!-- Node37&#45;&gt;Node5 -->
<g id="edge77" class="edge">
<title>Node37&#45;&gt;Node5</title>
<path fill="none" stroke="#191970" d="M2574.2723,-58.4655C2569.5747,-57.9066 2564.8954,-57.4067 2560.366,-57 2298.3588,-33.4755 1461.3312,-15.6036 1252.1131,-11.428"/>
<polygon fill="#191970" stroke="#191970" points="1252.1273,-7.9277 1242.0597,-11.2283 1251.9882,-14.9263 1252.1273,-7.9277"/>
</g>
<!-- Node38&#45;&gt;Node3 -->
<g id="edge79" class="edge">
<title>Node38&#45;&gt;Node3</title>
<path fill="none" stroke="#191970" d="M607.3975,-456.2355C617.7206,-443.2227 632.4525,-419.9556 626.366,-399 612.7131,-351.9931 581.019,-353.0069 567.366,-306 550.2747,-247.1549 544.8722,-205.7165 595.366,-171 641.5715,-139.2319 1027.1863,-128.2155 1159.7874,-125.3464"/>
<polygon fill="#191970" stroke="#191970" points="1160.0681,-128.8413 1169.9919,-125.1309 1159.9203,-121.8429 1160.0681,-128.8413"/>
</g>
<!-- Node39 -->
<g id="node39" class="node">
<title>Node39</title>
<polygon fill="none" stroke="#bfbfbf" points="503.366,-399.5 503.366,-419.5 617.366,-419.5 617.366,-399.5 503.366,-399.5"/>
<text text-anchor="middle" x="560.366" y="-406.5" font-family="FreeSans" font-size="10.00" fill="#000000">G4FieldManager.icc</text>
</g>
<!-- Node38&#45;&gt;Node39 -->
<g id="edge80" class="edge">
<title>Node38&#45;&gt;Node39</title>
<path fill="none" stroke="#191970" d="M591.5724,-456.3095C586.3308,-448.4472 578.9399,-437.3608 572.6665,-427.9507"/>
<polygon fill="#191970" stroke="#191970" points="575.5601,-425.9813 567.1009,-419.6022 569.7357,-429.8642 575.5601,-425.9813"/>
</g>
<!-- Node40&#45;&gt;Node11 -->
<g id="edge90" class="edge">
<title>Node40&#45;&gt;Node11</title>
<path fill="none" stroke="#191970" d="M978.0393,-464.6317C1199.4062,-458.4899 1794.366,-434.3674 1794.366,-352.5 1794.366,-352.5 1794.366,-352.5 1794.366,-295.5 1794.366,-237.7748 1850.7565,-225.371 1831.366,-171 1827.4787,-160.0999 1819.8183,-149.9101 1812.3876,-141.8638"/>
<polygon fill="#191970" stroke="#191970" points="1814.7045,-139.2293 1805.1817,-134.5852 1809.7299,-144.1541 1814.7045,-139.2293"/>
</g>
<!-- Node41 -->
<g id="node41" class="node">
<title>Node41</title>
<g id="a_node41"><a xlink:href="../../dc/d33/G4Navigator_8hh.html" target="_top" xlink:title="G4Navigator.hh">
<polygon fill="none" stroke="#ff0000" points="692.866,-342.5 692.866,-362.5 787.866,-362.5 787.866,-342.5 692.866,-342.5"/>
<text text-anchor="middle" x="740.366" y="-349.5" font-family="FreeSans" font-size="10.00" fill="#000000">G4Navigator.hh</text>
</a>
</g>
</g>
<!-- Node40&#45;&gt;Node41 -->
<g id="edge82" class="edge">
<title>Node40&#45;&gt;Node41</title>
<path fill="none" stroke="#191970" d="M837.4166,-456.4506C798.3882,-448.4582 752.2734,-435.9743 740.366,-420 730.4319,-406.6728 731.5063,-387.3916 734.4399,-372.8458"/>
<polygon fill="#191970" stroke="#191970" points="737.9153,-373.3682 736.8941,-362.8227 731.1162,-371.7033 737.9153,-373.3682"/>
</g>
<!-- Node42 -->
<g id="node42" class="node">
<title>Node42</title>
<g id="a_node42"><a xlink:href="../../d3/d97/G4SafetyHelper_8hh.html" target="_top" xlink:title="G4SafetyHelper.hh">
<polygon fill="none" stroke="#000000" points="931.866,-399.5 931.866,-419.5 1042.866,-419.5 1042.866,-399.5 931.866,-399.5"/>
<text text-anchor="middle" x="987.366" y="-406.5" font-family="FreeSans" font-size="10.00" fill="#000000">G4SafetyHelper.hh</text>
</a>
</g>
</g>
<!-- Node40&#45;&gt;Node42 -->
<g id="edge85" class="edge">
<title>Node40&#45;&gt;Node42</title>
<path fill="none" stroke="#191970" d="M912.635,-456.3095C926.4813,-447.6366 946.5906,-435.0407 962.4621,-425.0992"/>
<polygon fill="#191970" stroke="#191970" points="964.6211,-427.8768 971.2379,-419.6022 960.9052,-421.9445 964.6211,-427.8768"/>
</g>
<!-- Node43 -->
<g id="node43" class="node">
<title>Node43</title>
<polygon fill="none" stroke="#bfbfbf" points="749.366,-399.5 749.366,-419.5 913.366,-419.5 913.366,-399.5 749.366,-399.5"/>
<text text-anchor="middle" x="831.366" y="-406.5" font-family="FreeSans" font-size="10.00" fill="#000000">G4TransportationManager.icc</text>
</g>
<!-- Node40&#45;&gt;Node43 -->
<g id="edge91" class="edge">
<title>Node40&#45;&gt;Node43</title>
<path fill="none" stroke="#191970" d="M884.7453,-456.3095C875.2249,-447.9608 861.559,-435.9769 850.4383,-426.2249"/>
<polygon fill="#191970" stroke="#191970" points="852.7124,-423.564 842.8861,-419.6022 848.0971,-428.827 852.7124,-423.564"/>
</g>
<!-- Node41&#45;&gt;Node26 -->
<g id="edge84" class="edge">
<title>Node41&#45;&gt;Node26</title>
<path fill="none" stroke="#191970" d="M788.0929,-343.1514C837.8814,-333.399 916.0984,-318.0782 970.3453,-307.4525"/>
<polygon fill="#191970" stroke="#191970" points="971.0424,-310.8826 980.1831,-305.5255 969.6968,-304.0131 971.0424,-310.8826"/>
</g>
<!-- Node41&#45;&gt;Node32 -->
<g id="edge83" class="edge">
<title>Node41&#45;&gt;Node32</title>
<path fill="none" stroke="#191970" d="M737.7946,-342.4937C732.0638,-320.9258 717.1727,-268.7155 697.366,-228 692.7247,-218.4591 686.5048,-208.4962 680.9321,-200.251"/>
<polygon fill="#191970" stroke="#191970" points="683.6224,-197.9898 675.0339,-191.7859 677.879,-201.9916 683.6224,-197.9898"/>
</g>
<!-- Node42&#45;&gt;Node5 -->
<g id="edge87" class="edge">
<title>Node42&#45;&gt;Node5</title>
<path fill="none" stroke="#191970" d="M931.7546,-400.0656C928.5832,-399.6682 925.437,-399.3082 922.366,-399 872.4657,-393.9921 59.733,-394.0704 20.366,-363 -4.0981,-343.6916 1.366,-326.6658 1.366,-295.5 1.366,-295.5 1.366,-295.5 1.366,-124.5 1.366,24.768 182.3145,-76.0181 330.366,-57 492.2418,-36.2061 997.8519,-17.5677 1156.3491,-12.1088"/>
<polygon fill="#191970" stroke="#191970" points="1156.8422,-15.594 1166.7164,-11.7535 1156.6023,-8.5982 1156.8422,-15.594"/>
</g>
<!-- Node42&#45;&gt;Node11 -->
<g id="edge86" class="edge">
<title>Node42&#45;&gt;Node11</title>
<path fill="none" stroke="#191970" d="M1029.2296,-399.4556C1119.5678,-377.198 1338.8209,-320.0311 1514.366,-249 1533.3447,-241.3206 1536.1932,-235.1807 1555.366,-228 1617.5489,-204.7109 1640.1657,-220.0179 1700.366,-192 1728.5004,-178.906 1756.7797,-156.804 1774.6411,-141.4748"/>
<polygon fill="#191970" stroke="#191970" points="1777.3135,-143.7865 1782.5262,-134.5627 1772.6992,-138.5226 1777.3135,-143.7865"/>
</g>
<!-- Node42&#45;&gt;Node32 -->
<g id="edge88" class="edge">
<title>Node42&#45;&gt;Node32</title>
<path fill="none" stroke="#191970" d="M973.2031,-399.4089C922.823,-363.513 752.011,-241.8095 690.0527,-197.6642"/>
<polygon fill="#191970" stroke="#191970" points="691.9037,-194.6855 681.7285,-191.7332 687.8417,-200.3865 691.9037,-194.6855"/>
</g>
<!-- Node42&#45;&gt;Node41 -->
<g id="edge89" class="edge">
<title>Node42&#45;&gt;Node41</title>
<path fill="none" stroke="#191970" d="M943.776,-399.4408C901.9303,-389.7841 838.6346,-375.1774 793.7788,-364.826"/>
<polygon fill="#191970" stroke="#191970" points="794.466,-361.3927 783.9351,-362.5544 792.8919,-368.2134 794.466,-361.3927"/>
</g>
<!-- Node44&#45;&gt;Node3 -->
<g id="edge93" class="edge">
<title>Node44&#45;&gt;Node3</title>
<path fill="none" stroke="#191970" d="M1404.8665,-228.4928C1385.6412,-214.515 1348.9724,-188.8568 1315.366,-171 1291.6859,-158.4175 1263.8502,-146.7638 1241.9776,-138.2701"/>
<polygon fill="#191970" stroke="#191970" points="1242.9744,-134.904 1232.384,-134.598 1240.4721,-141.4415 1242.9744,-134.904"/>
</g>
<!-- Node44&#45;&gt;Node11 -->
<g id="edge102" class="edge">
<title>Node44&#45;&gt;Node11</title>
<path fill="none" stroke="#191970" d="M1470.6606,-228.7508C1511.9952,-220.5121 1570.9296,-207.5784 1621.366,-192 1671.2997,-176.5769 1727.3384,-153.4466 1761.4885,-138.6652"/>
<polygon fill="#191970" stroke="#191970" points="1763.1665,-141.7518 1770.9348,-134.5473 1760.3693,-135.335 1763.1665,-141.7518"/>
</g>
<!-- Node45 -->
<g id="node45" class="node">
<title>Node45</title>
<g id="a_node45"><a xlink:href="../../d2/d88/G4SDStructure_8hh.html" target="_top" xlink:title="G4SDStructure.hh">
<polygon fill="none" stroke="#ff0000" points="1504.866,-171.5 1504.866,-191.5 1611.866,-191.5 1611.866,-171.5 1504.866,-171.5"/>
<text text-anchor="middle" x="1558.366" y="-178.5" font-family="FreeSans" font-size="10.00" fill="#000000">G4SDStructure.hh</text>
</a>
</g>
</g>
<!-- Node44&#45;&gt;Node45 -->
<g id="edge94" class="edge">
<title>Node44&#45;&gt;Node45</title>
<path fill="none" stroke="#191970" d="M1443.073,-228.4408C1465.526,-219.2992 1498.8744,-205.7216 1523.9373,-195.5174"/>
<polygon fill="#191970" stroke="#191970" points="1525.4932,-198.663 1533.4352,-191.6504 1522.8536,-192.1797 1525.4932,-198.663"/>
</g>
<!-- Node46 -->
<g id="node46" class="node">
<title>Node46</title>
<g id="a_node46"><a xlink:href="../../d2/d29/G4HCtable_8hh.html" target="_top" xlink:title="G4HCtable.hh">
<polygon fill="none" stroke="#000000" points="1400.366,-171.5 1400.366,-191.5 1486.366,-191.5 1486.366,-171.5 1400.366,-171.5"/>
<text text-anchor="middle" x="1443.366" y="-178.5" font-family="FreeSans" font-size="10.00" fill="#000000">G4HCtable.hh</text>
</a>
</g>
</g>
<!-- Node44&#45;&gt;Node46 -->
<g id="edge97" class="edge">
<title>Node44&#45;&gt;Node46</title>
<path fill="none" stroke="#191970" d="M1422.8355,-228.3095C1426.1773,-220.6903 1430.847,-210.0435 1434.8886,-200.8285"/>
<polygon fill="#191970" stroke="#191970" points="1438.1238,-202.166 1438.9352,-191.6022 1431.7133,-199.3543 1438.1238,-202.166"/>
</g>
<!-- Node47 -->
<g id="node47" class="node">
<title>Node47</title>
<g id="a_node47"><a xlink:href="../../d1/d3d/G4VSDFilter_8hh.html" target="_top" xlink:title="G4VSDFilter.hh">
<polygon fill="none" stroke="#000000" points="1214.866,-171.5 1214.866,-191.5 1305.866,-191.5 1305.866,-171.5 1214.866,-171.5"/>
<text text-anchor="middle" x="1260.366" y="-178.5" font-family="FreeSans" font-size="10.00" fill="#000000">G4VSDFilter.hh</text>
</a>
</g>
</g>
<!-- Node44&#45;&gt;Node47 -->
<g id="edge100" class="edge">
<title>Node44&#45;&gt;Node47</title>
<path fill="none" stroke="#191970" d="M1390.4825,-228.4408C1364.7271,-219.1492 1326.2687,-205.275 1297.8372,-195.0181"/>
<polygon fill="#191970" stroke="#191970" points="1298.8305,-191.6557 1288.2361,-191.5544 1296.455,-198.2403 1298.8305,-191.6557"/>
</g>
<!-- Node45&#45;&gt;Node3 -->
<g id="edge95" class="edge">
<title>Node45&#45;&gt;Node3</title>
<path fill="none" stroke="#191970" d="M1504.7538,-172.5396C1501.5778,-172.0165 1498.4302,-171.5002 1495.366,-171 1407.9018,-156.7234 1305.5702,-140.4775 1248.535,-131.4637"/>
<polygon fill="#191970" stroke="#191970" points="1248.8499,-127.9701 1238.4262,-129.8669 1247.7576,-134.8844 1248.8499,-127.9701"/>
</g>
<!-- Node45&#45;&gt;Node11 -->
<g id="edge96" class="edge">
<title>Node45&#45;&gt;Node11</title>
<path fill="none" stroke="#191970" d="M1599.8384,-171.4408C1645.1214,-160.4572 1716.8057,-143.07 1759.0477,-132.824"/>
<polygon fill="#191970" stroke="#191970" points="1759.9716,-136.2015 1768.8647,-130.4429 1758.3215,-129.3988 1759.9716,-136.2015"/>
</g>
<!-- Node46&#45;&gt;Node3 -->
<g id="edge98" class="edge">
<title>Node46&#45;&gt;Node3</title>
<path fill="none" stroke="#191970" d="M1401.1878,-171.4408C1358.1717,-161.1817 1291.7302,-145.3358 1248.1442,-134.9408"/>
<polygon fill="#191970" stroke="#191970" points="1248.9359,-131.5315 1238.3967,-132.6161 1247.3119,-138.3406 1248.9359,-131.5315"/>
</g>
<!-- Node46&#45;&gt;Node11 -->
<g id="edge99" class="edge">
<title>Node46&#45;&gt;Node11</title>
<path fill="none" stroke="#191970" d="M1486.4374,-172.8163C1489.7939,-172.1857 1493.1334,-171.573 1496.366,-171 1590.9909,-154.2263 1703.1466,-137.5255 1758.6604,-129.4706"/>
<polygon fill="#191970" stroke="#191970" points="1759.2721,-132.9186 1768.6682,-128.0233 1758.2701,-125.9907 1759.2721,-132.9186"/>
</g>
<!-- Node47&#45;&gt;Node3 -->
<g id="edge101" class="edge">
<title>Node47&#45;&gt;Node3</title>
<path fill="none" stroke="#191970" d="M1250.3544,-171.3095C1242.3114,-163.1229 1230.8344,-151.441 1221.3581,-141.7955"/>
<polygon fill="#191970" stroke="#191970" points="1223.796,-139.2827 1214.291,-134.6022 1218.8026,-144.1885 1223.796,-139.2827"/>
</g>
<!-- Node48&#45;&gt;Node3 -->
<g id="edge105" class="edge">
<title>Node48&#45;&gt;Node3</title>
<path fill="none" stroke="#191970" d="M477.1942,-228.4956C486.842,-213.006 507.7382,-183.6852 534.366,-171 590.5352,-144.2417 1018.7833,-129.779 1159.6251,-125.7096"/>
<polygon fill="#191970" stroke="#191970" points="1160.1398,-129.1965 1170.036,-125.4127 1159.9402,-122.1993 1160.1398,-129.1965"/>
</g>
<!-- Node48&#45;&gt;Node11 -->
<g id="edge106" class="edge">
<title>Node48&#45;&gt;Node11</title>
<path fill="none" stroke="#191970" d="M520.6718,-232.7407C535.9457,-231.0702 552.84,-229.3378 568.366,-228 817.2898,-206.5508 882.9201,-233.0791 1129.366,-192 1164.3554,-186.1678 1171.4213,-177.0939 1206.366,-171 1413.9175,-134.8055 1667.7227,-126.7509 1758.7977,-124.986"/>
<polygon fill="#191970" stroke="#191970" points="1758.9024,-128.4847 1768.8375,-124.8045 1758.7759,-121.4859 1758.9024,-128.4847"/>
</g>
<!-- Node48&#45;&gt;Node32 -->
<g id="edge107" class="edge">
<title>Node48&#45;&gt;Node32</title>
<path fill="none" stroke="#191970" d="M505.9557,-228.4408C538.6031,-218.9464 587.7043,-204.6669 623.1749,-194.3515"/>
<polygon fill="#191970" stroke="#191970" points="624.1682,-197.7077 632.7931,-191.5544 622.2135,-190.9862 624.1682,-197.7077"/>
</g>
<!-- Node49 -->
<g id="node49" class="node">
<title>Node49</title>
<polygon fill="none" stroke="#bfbfbf" points="344.366,-171.5 344.366,-191.5 444.366,-191.5 444.366,-171.5 344.366,-171.5"/>
<text text-anchor="middle" x="394.366" y="-178.5" font-family="FreeSans" font-size="10.00" fill="#000000">G4UnitsTable.icc</text>
</g>
<!-- Node48&#45;&gt;Node49 -->
<g id="edge108" class="edge">
<title>Node48&#45;&gt;Node49</title>
<path fill="none" stroke="#191970" d="M457.6,-228.3095C446.1029,-219.7987 429.5026,-207.5102 416.1954,-197.6594"/>
<polygon fill="#191970" stroke="#191970" points="418.1328,-194.7389 408.0129,-191.6022 413.9679,-200.3652 418.1328,-194.7389"/>
</g>
</g>
</svg>
