<?xml version="1.0" encoding="UTF-8" standalone="no"?>
<!DOCTYPE svg PUBLIC "-//W3C//DTD SVG 1.1//EN"
 "http://www.w3.org/Graphics/SVG/1.1/DTD/svg11.dtd">
<!-- Generated by graphviz version 2.40.1 (20161225.0304)
 -->
<!-- Title: G4KDTree::Build Pages: 1 -->
<svg width="468pt" height="209pt"
 viewBox="0.00 0.00 468.00 209.00" xmlns="http://www.w3.org/2000/svg" xmlns:xlink="http://www.w3.org/1999/xlink">
<g id="graph0" class="graph" transform="scale(1 1) rotate(0) translate(4 205)">
<title>G4KDTree::Build</title>
<!-- Node1 -->
<g id="node1" class="node">
<title>Node1</title>
<polygon fill="#bfbfbf" stroke="#000000" points="0,-90.5 0,-110.5 98,-110.5 98,-90.5 0,-90.5"/>
<text text-anchor="middle" x="49" y="-97.5" font-family="FreeSans" font-size="10.00" fill="#000000">G4KDTree::Build</text>
</g>
<!-- Node2 -->
<g id="node2" class="node">
<title>Node2</title>
<g id="a_node2"><a xlink:href="../../d2/dfb/classG4KDTree_1_1HyperRect.html#a7516877aa9b875ba0fc525377350b01a" target="_top" xlink:title="G4KDTree::HyperRect\l::Extend">
<polygon fill="none" stroke="#000000" points="142.5,-168.5 142.5,-200.5 268.5,-200.5 268.5,-168.5 142.5,-168.5"/>
<text text-anchor="start" x="150.5" y="-187.5" font-family="FreeSans" font-size="10.00" fill="#000000">G4KDTree::HyperRect</text>
<text text-anchor="middle" x="205.5" y="-175.5" font-family="FreeSans" font-size="10.00" fill="#000000">::Extend</text>
</a>
</g>
</g>
<!-- Node1&#45;&gt;Node2 -->
<g id="edge1" class="edge">
<title>Node1&#45;&gt;Node2</title>
<path fill="none" stroke="#191970" d="M61.2807,-110.6322C77.2301,-123.4015 106.3149,-145.3824 134,-159.5 137.4596,-161.2642 141.0724,-162.954 144.7571,-164.5631"/>
<polygon fill="#191970" stroke="#191970" points="143.4396,-167.8057 154.0181,-168.3933 146.1149,-161.3371 143.4396,-167.8057"/>
</g>
<!-- Node3 -->
<g id="node3" class="node">
<title>Node3</title>
<g id="a_node3"><a xlink:href="../../d2/d17/classG4KDMap.html#af1bcbed9c13fbd629fe23dcb36b8707a" target="_top" xlink:title="G4KDMap::GetSize">
<polygon fill="none" stroke="#000000" points="149.5,-129.5 149.5,-149.5 261.5,-149.5 261.5,-129.5 149.5,-129.5"/>
<text text-anchor="middle" x="205.5" y="-136.5" font-family="FreeSans" font-size="10.00" fill="#000000">G4KDMap::GetSize</text>
</a>
</g>
</g>
<!-- Node1&#45;&gt;Node3 -->
<g id="edge2" class="edge">
<title>Node1&#45;&gt;Node3</title>
<path fill="none" stroke="#191970" d="M89.3026,-110.5435C109.4741,-115.5702 134.0846,-121.7032 155.4549,-127.0287"/>
<polygon fill="#191970" stroke="#191970" points="154.7843,-130.4686 165.3339,-129.4906 156.477,-123.6763 154.7843,-130.4686"/>
</g>
<!-- Node4 -->
<g id="node4" class="node">
<title>Node4</title>
<g id="a_node4"><a xlink:href="../../df/d17/classG4KDNode__Base.html#a7a9fe29347160afe2b0a1b9c346e355d" target="_top" xlink:title="G4KDNode_Base::Insert">
<polygon fill="none" stroke="#000000" points="137,-90.5 137,-110.5 274,-110.5 274,-90.5 137,-90.5"/>
<text text-anchor="middle" x="205.5" y="-97.5" font-family="FreeSans" font-size="10.00" fill="#000000">G4KDNode_Base::Insert</text>
</a>
</g>
</g>
<!-- Node1&#45;&gt;Node4 -->
<g id="edge3" class="edge">
<title>Node1&#45;&gt;Node4</title>
<path fill="none" stroke="#191970" d="M98.0882,-100.5C107.2029,-100.5 116.9336,-100.5 126.6761,-100.5"/>
<polygon fill="#191970" stroke="#191970" points="126.8079,-104.0001 136.8079,-100.5 126.8079,-97.0001 126.8079,-104.0001"/>
</g>
<!-- Node5 -->
<g id="node5" class="node">
<title>Node5</title>
<g id="a_node5"><a xlink:href="../../d2/d17/classG4KDMap.html#a00ce1efdaf93b8cc6d3efb5434c2bbbd" target="_top" xlink:title="G4KDMap::PopOutMiddle">
<polygon fill="none" stroke="#000000" points="134,-51.5 134,-71.5 277,-71.5 277,-51.5 134,-51.5"/>
<text text-anchor="middle" x="205.5" y="-58.5" font-family="FreeSans" font-size="10.00" fill="#000000">G4KDMap::PopOutMiddle</text>
</a>
</g>
</g>
<!-- Node1&#45;&gt;Node5 -->
<g id="edge4" class="edge">
<title>Node1&#45;&gt;Node5</title>
<path fill="none" stroke="#191970" d="M89.3026,-90.4565C109.4741,-85.4298 134.0846,-79.2968 155.4549,-73.9713"/>
<polygon fill="#191970" stroke="#191970" points="156.477,-77.3237 165.3339,-71.5094 154.7843,-70.5314 156.477,-77.3237"/>
</g>
<!-- Node8 -->
<g id="node8" class="node">
<title>Node8</title>
<g id="a_node8"><a xlink:href="../../d2/dfb/classG4KDTree_1_1HyperRect.html#a20b0c4119478e48819971ac2e82dd7a6" target="_top" xlink:title="G4KDTree::HyperRect\l::SetMinMax">
<polygon fill="none" stroke="#000000" points="142.5,-.5 142.5,-32.5 268.5,-32.5 268.5,-.5 142.5,-.5"/>
<text text-anchor="start" x="150.5" y="-19.5" font-family="FreeSans" font-size="10.00" fill="#000000">G4KDTree::HyperRect</text>
<text text-anchor="middle" x="205.5" y="-7.5" font-family="FreeSans" font-size="10.00" fill="#000000">::SetMinMax</text>
</a>
</g>
</g>
<!-- Node1&#45;&gt;Node8 -->
<g id="edge7" class="edge">
<title>Node1&#45;&gt;Node8</title>
<path fill="none" stroke="#191970" d="M61.6173,-90.3925C77.6856,-77.8825 106.6567,-56.5196 134,-42.5 138.1872,-40.3531 142.5936,-38.3002 147.0772,-36.3568"/>
<polygon fill="#191970" stroke="#191970" points="148.4389,-39.5812 156.3432,-32.5262 145.7646,-33.1122 148.4389,-39.5812"/>
</g>
<!-- Node6 -->
<g id="node6" class="node">
<title>Node6</title>
<g id="a_node6"><a xlink:href="../../df/d17/classG4KDNode__Base.html#ae28dd709d76166d88c9a877f5d44ee75" target="_top" xlink:title="G4KDNode_Base::GetAxis">
<polygon fill="none" stroke="#000000" points="313,-70.5 313,-90.5 460,-90.5 460,-70.5 313,-70.5"/>
<text text-anchor="middle" x="386.5" y="-77.5" font-family="FreeSans" font-size="10.00" fill="#000000">G4KDNode_Base::GetAxis</text>
</a>
</g>
</g>
<!-- Node5&#45;&gt;Node6 -->
<g id="edge5" class="edge">
<title>Node5&#45;&gt;Node6</title>
<path fill="none" stroke="#191970" d="M277.036,-69.0093C285.4877,-69.8965 294.1703,-70.8079 302.771,-71.7108"/>
<polygon fill="#191970" stroke="#191970" points="302.5003,-75.2015 312.811,-72.7647 303.2311,-68.2397 302.5003,-75.2015"/>
</g>
<!-- Node7 -->
<g id="node7" class="node">
<title>Node7</title>
<g id="a_node7"><a xlink:href="../../d2/d17/classG4KDMap.html#aba85420773d8d8ac27cac9d4135d2e1d" target="_top" xlink:title="G4KDMap::Sort">
<polygon fill="none" stroke="#000000" points="339.5,-31.5 339.5,-51.5 433.5,-51.5 433.5,-31.5 339.5,-31.5"/>
<text text-anchor="middle" x="386.5" y="-38.5" font-family="FreeSans" font-size="10.00" fill="#000000">G4KDMap::Sort</text>
</a>
</g>
</g>
<!-- Node5&#45;&gt;Node7 -->
<g id="edge6" class="edge">
<title>Node5&#45;&gt;Node7</title>
<path fill="none" stroke="#191970" d="M277.036,-53.5955C294.384,-51.6786 312.7053,-49.6541 329.2928,-47.8212"/>
<polygon fill="#191970" stroke="#191970" points="329.8176,-51.2846 339.3726,-46.7074 329.0487,-44.327 329.8176,-51.2846"/>
</g>
</g>
</svg>
