<?xml version="1.0" encoding="UTF-8" standalone="no"?>
<!DOCTYPE svg PUBLIC "-//W3C//DTD SVG 1.1//EN"
 "http://www.w3.org/Graphics/SVG/1.1/DTD/svg11.dtd">
<!-- Generated by graphviz version 2.40.1 (20161225.0304)
 -->
<!-- Title: G4KDTree::GetDim Pages: 1 -->
<svg width="301pt" height="68pt"
 viewBox="0.00 0.00 301.00 68.00" xmlns="http://www.w3.org/2000/svg" xmlns:xlink="http://www.w3.org/1999/xlink">
<g id="graph0" class="graph" transform="scale(1 1) rotate(0) translate(4 64)">
<title>G4KDTree::GetDim</title>
<!-- Node1 -->
<g id="node1" class="node">
<title>Node1</title>
<polygon fill="#bfbfbf" stroke="#000000" points="0,-19.5 0,-39.5 111,-39.5 111,-19.5 0,-19.5"/>
<text text-anchor="middle" x="55.5" y="-26.5" font-family="FreeSans" font-size="10.00" fill="#000000">G4KDTree::GetDim</text>
</g>
<!-- Node2 -->
<g id="node2" class="node">
<title>Node2</title>
<g id="a_node2"><a xlink:href="../../df/d17/classG4KDNode__Base.html#a1c1068d35d616a0a4e25077a9903cf43" target="_top" xlink:title="G4KDNode_Base::GetDim">
<polygon fill="none" stroke="#000000" points="147,-39.5 147,-59.5 293,-59.5 293,-39.5 147,-39.5"/>
<text text-anchor="middle" x="220" y="-46.5" font-family="FreeSans" font-size="10.00" fill="#000000">G4KDNode_Base::GetDim</text>
</a>
</g>
</g>
<!-- Node1&#45;&gt;Node2 -->
<g id="edge1" class="edge">
<title>Node1&#45;&gt;Node2</title>
<path fill="none" stroke="#191970" d="M121.3026,-37.5003C129.7089,-38.5224 138.3541,-39.5734 146.8675,-40.6085"/>
<polygon fill="#191970" stroke="#191970" points="121.5415,-34.0037 111.1922,-36.2711 120.6966,-40.9525 121.5415,-34.0037"/>
</g>
<!-- Node3 -->
<g id="node3" class="node">
<title>Node3</title>
<g id="a_node3"><a xlink:href="../../df/d17/classG4KDNode__Base.html#a1b37d4c3c6385911f8cd8b06a4041049" target="_top" xlink:title="G4KDNode_Base::Insert">
<polygon fill="none" stroke="#000000" points="151.5,-.5 151.5,-20.5 288.5,-20.5 288.5,-.5 151.5,-.5"/>
<text text-anchor="middle" x="220" y="-7.5" font-family="FreeSans" font-size="10.00" fill="#000000">G4KDNode_Base::Insert</text>
</a>
</g>
</g>
<!-- Node1&#45;&gt;Node3 -->
<g id="edge2" class="edge">
<title>Node1&#45;&gt;Node3</title>
<path fill="none" stroke="#191970" d="M121.3093,-21.8989C131.1555,-20.7617 141.3294,-19.5866 151.235,-18.4425"/>
<polygon fill="#191970" stroke="#191970" points="120.7245,-18.4431 111.1922,-23.0675 121.5278,-25.3969 120.7245,-18.4431"/>
</g>
</g>
</svg>
