<?xml version="1.0" encoding="UTF-8" standalone="no"?>
<!DOCTYPE svg PUBLIC "-//W3C//DTD SVG 1.1//EN"
 "http://www.w3.org/Graphics/SVG/1.1/DTD/svg11.dtd">
<!-- Generated by graphviz version 2.40.1 (20161225.0304)
 -->
<!-- Title: G4VITSteppingVerbose::TrackBanner Pages: 1 -->
<svg width="667pt" height="254pt"
 viewBox="0.00 0.00 667.00 254.00" xmlns="http://www.w3.org/2000/svg" xmlns:xlink="http://www.w3.org/1999/xlink">
<g id="graph0" class="graph" transform="scale(1 1) rotate(0) translate(4 250)">
<title>G4VITSteppingVerbose::TrackBanner</title>
<!-- Node1 -->
<g id="node1" class="node">
<title>Node1</title>
<polygon fill="#bfbfbf" stroke="#000000" points="0,-135.5 0,-167.5 133,-167.5 133,-135.5 0,-135.5"/>
<text text-anchor="start" x="8" y="-154.5" font-family="FreeSans" font-size="10.00" fill="#000000">G4VITSteppingVerbose</text>
<text text-anchor="middle" x="66.5" y="-142.5" font-family="FreeSans" font-size="10.00" fill="#000000">::TrackBanner</text>
</g>
<!-- Node2 -->
<g id="node2" class="node">
<title>Node2</title>
<g id="a_node2"><a xlink:href="../../d1/d33/classG4Track.html#aa5811897dbdf45b5b9c947dcdf0b4fb2" target="_top" xlink:title="G4Track::GetDefinition">
<polygon fill="none" stroke="#000000" points="169,-225.5 169,-245.5 299,-245.5 299,-225.5 169,-225.5"/>
<text text-anchor="middle" x="234" y="-232.5" font-family="FreeSans" font-size="10.00" fill="#000000">G4Track::GetDefinition</text>
</a>
</g>
</g>
<!-- Node1&#45;&gt;Node2 -->
<g id="edge1" class="edge">
<title>Node1&#45;&gt;Node2</title>
<path fill="none" stroke="#191970" d="M87.8785,-167.584C107.9429,-182.0508 139.2415,-203.0401 169,-216.5 173.6347,-218.5963 178.5594,-220.5267 183.5437,-222.2874"/>
<polygon fill="#191970" stroke="#191970" points="182.5484,-225.6447 193.1417,-225.4633 184.7474,-218.999 182.5484,-225.6447"/>
</g>
<!-- Node3 -->
<g id="node3" class="node">
<title>Node3</title>
<g id="a_node3"><a xlink:href="../../d1/d33/classG4Track.html#ab95cf561ef469d0122a65e232bc0ffa5" target="_top" xlink:title="G4Track::GetParentID">
<polygon fill="none" stroke="#000000" points="172,-186.5 172,-206.5 296,-206.5 296,-186.5 172,-186.5"/>
<text text-anchor="middle" x="234" y="-193.5" font-family="FreeSans" font-size="10.00" fill="#000000">G4Track::GetParentID</text>
</a>
</g>
</g>
<!-- Node1&#45;&gt;Node3 -->
<g id="edge2" class="edge">
<title>Node1&#45;&gt;Node3</title>
<path fill="none" stroke="#191970" d="M126.4982,-167.6189C146.2318,-172.9205 167.8834,-178.7373 186.5512,-183.7526"/>
<polygon fill="#191970" stroke="#191970" points="185.7331,-187.1568 196.2988,-186.3713 187.5494,-180.3965 185.7331,-187.1568"/>
</g>
<!-- Node4 -->
<g id="node4" class="node">
<title>Node4</title>
<g id="a_node4"><a xlink:href="../../d5/d38/classG4ParticleDefinition.html#a02a571907ec0c42bf356545826d9234f" target="_top" xlink:title="G4ParticleDefinition\l::GetParticleName">
<polygon fill="none" stroke="#000000" points="176,-135.5 176,-167.5 292,-167.5 292,-135.5 176,-135.5"/>
<text text-anchor="start" x="184" y="-154.5" font-family="FreeSans" font-size="10.00" fill="#000000">G4ParticleDefinition</text>
<text text-anchor="middle" x="234" y="-142.5" font-family="FreeSans" font-size="10.00" fill="#000000">::GetParticleName</text>
</a>
</g>
</g>
<!-- Node1&#45;&gt;Node4 -->
<g id="edge3" class="edge">
<title>Node1&#45;&gt;Node4</title>
<path fill="none" stroke="#191970" d="M133.1817,-151.5C143.8978,-151.5 155.0033,-151.5 165.7554,-151.5"/>
<polygon fill="#191970" stroke="#191970" points="165.9317,-155.0001 175.9317,-151.5 165.9316,-148.0001 165.9317,-155.0001"/>
</g>
<!-- Node5 -->
<g id="node5" class="node">
<title>Node5</title>
<g id="a_node5"><a xlink:href="../../d1/d33/classG4Track.html#a94a0f60712ca9284908d20670e0d0824" target="_top" xlink:title="G4Track::GetTrackID">
<polygon fill="none" stroke="#000000" points="174.5,-96.5 174.5,-116.5 293.5,-116.5 293.5,-96.5 174.5,-96.5"/>
<text text-anchor="middle" x="234" y="-103.5" font-family="FreeSans" font-size="10.00" fill="#000000">G4Track::GetTrackID</text>
</a>
</g>
</g>
<!-- Node1&#45;&gt;Node5 -->
<g id="edge4" class="edge">
<title>Node1&#45;&gt;Node5</title>
<path fill="none" stroke="#191970" d="M126.4982,-135.3811C146.2318,-130.0795 167.8834,-124.2627 186.5512,-119.2474"/>
<polygon fill="#191970" stroke="#191970" points="187.5494,-122.6035 196.2988,-116.6287 185.7331,-115.8432 187.5494,-122.6035"/>
</g>
<!-- Node6 -->
<g id="node6" class="node">
<title>Node6</title>
<g id="a_node6"><a xlink:href="../../d8/d3c/ts__scorers_8cc.html#ad81d1cdebbda7d39795160acd3aebd24" target="_top" xlink:title="message">
<polygon fill="none" stroke="#000000" points="203,-57.5 203,-77.5 265,-77.5 265,-57.5 203,-57.5"/>
<text text-anchor="middle" x="234" y="-64.5" font-family="FreeSans" font-size="10.00" fill="#000000">message</text>
</a>
</g>
</g>
<!-- Node1&#45;&gt;Node6 -->
<g id="edge5" class="edge">
<title>Node1&#45;&gt;Node6</title>
<path fill="none" stroke="#191970" d="M88.7463,-135.2304C108.8922,-121.0884 139.8017,-100.832 169,-87.5 176.6356,-84.0136 185.0432,-80.9211 193.2052,-78.2727"/>
<polygon fill="#191970" stroke="#191970" points="194.4435,-81.5536 202.9708,-75.2658 192.3836,-74.8636 194.4435,-81.5536"/>
</g>
<!-- Node7 -->
<g id="node7" class="node">
<title>Node7</title>
<g id="a_node7"><a xlink:href="../../d7/d23/namespaceG4Threading.html#a457962a93ab41c7f9575dde6cbe9b78c" target="_top" xlink:title="G4Threading::G4GetNumber\lOfCores">
<polygon fill="none" stroke="#000000" points="335,-102.5 335,-134.5 497,-134.5 497,-102.5 335,-102.5"/>
<text text-anchor="start" x="343" y="-121.5" font-family="FreeSans" font-size="10.00" fill="#000000">G4Threading::G4GetNumber</text>
<text text-anchor="middle" x="416" y="-109.5" font-family="FreeSans" font-size="10.00" fill="#000000">OfCores</text>
</a>
</g>
</g>
<!-- Node6&#45;&gt;Node7 -->
<g id="edge6" class="edge">
<title>Node6&#45;&gt;Node7</title>
<path fill="none" stroke="#191970" d="M265.2869,-76.2672C288.1974,-82.6872 320.1488,-91.6406 348.739,-99.6521"/>
<polygon fill="#191970" stroke="#191970" points="348.1177,-103.1128 358.6912,-102.4409 350.0065,-96.3724 348.1177,-103.1128"/>
</g>
<!-- Node8 -->
<g id="node8" class="node">
<title>Node8</title>
<g id="a_node8"><a xlink:href="../../d4/daa/classG4RunManager.html#a3a19f2283ba22cbee8ba640d160d2e7e" target="_top" xlink:title="G4RunManager::GetVerbose\lLevel">
<polygon fill="none" stroke="#000000" points="336.5,-51.5 336.5,-83.5 495.5,-83.5 495.5,-51.5 336.5,-51.5"/>
<text text-anchor="start" x="344.5" y="-70.5" font-family="FreeSans" font-size="10.00" fill="#000000">G4RunManager::GetVerbose</text>
<text text-anchor="middle" x="416" y="-58.5" font-family="FreeSans" font-size="10.00" fill="#000000">Level</text>
</a>
</g>
</g>
<!-- Node6&#45;&gt;Node8 -->
<g id="edge7" class="edge">
<title>Node6&#45;&gt;Node8</title>
<path fill="none" stroke="#191970" d="M265.2869,-67.5C282.2971,-67.5 304.291,-67.5 326.1928,-67.5"/>
<polygon fill="#191970" stroke="#191970" points="326.2311,-71.0001 336.2311,-67.5 326.2311,-64.0001 326.2311,-71.0001"/>
</g>
<!-- Node9 -->
<g id="node9" class="node">
<title>Node9</title>
<g id="a_node9"><a xlink:href="../../d4/daa/classG4RunManager.html#a9e042965b0d460b1d492ab48de141b2a" target="_top" xlink:title="G4RunManager::SetVerbose\lLevel">
<polygon fill="none" stroke="#000000" points="337,-.5 337,-32.5 495,-32.5 495,-.5 337,-.5"/>
<text text-anchor="start" x="345" y="-19.5" font-family="FreeSans" font-size="10.00" fill="#000000">G4RunManager::SetVerbose</text>
<text text-anchor="middle" x="416" y="-7.5" font-family="FreeSans" font-size="10.00" fill="#000000">Level</text>
</a>
</g>
</g>
<!-- Node6&#45;&gt;Node9 -->
<g id="edge8" class="edge">
<title>Node6&#45;&gt;Node9</title>
<path fill="none" stroke="#191970" d="M265.2869,-58.7328C288.1974,-52.3128 320.1488,-43.3594 348.739,-35.3479"/>
<polygon fill="#191970" stroke="#191970" points="350.0065,-38.6276 358.6912,-32.5591 348.1177,-31.8872 350.0065,-38.6276"/>
</g>
<!-- Node10 -->
<g id="node10" class="node">
<title>Node10</title>
<g id="a_node10"><a xlink:href="../../de/d51/classG4RunManagerKernel.html#aea8a72d21f60b3e6436eed9b651dc247" target="_top" xlink:title="G4RunManagerKernel\l::SetVerboseLevel">
<polygon fill="none" stroke="#000000" points="533,-.5 533,-32.5 659,-32.5 659,-.5 533,-.5"/>
<text text-anchor="start" x="541" y="-19.5" font-family="FreeSans" font-size="10.00" fill="#000000">G4RunManagerKernel</text>
<text text-anchor="middle" x="596" y="-7.5" font-family="FreeSans" font-size="10.00" fill="#000000">::SetVerboseLevel</text>
</a>
</g>
</g>
<!-- Node9&#45;&gt;Node10 -->
<g id="edge9" class="edge">
<title>Node9&#45;&gt;Node10</title>
<path fill="none" stroke="#191970" d="M495.2126,-16.5C504.3955,-16.5 513.7304,-16.5 522.8275,-16.5"/>
<polygon fill="#191970" stroke="#191970" points="522.9766,-20.0001 532.9766,-16.5 522.9766,-13.0001 522.9766,-20.0001"/>
</g>
</g>
</svg>
