<?xml version="1.0" encoding="UTF-8" standalone="no"?>
<!DOCTYPE svg PUBLIC "-//W3C//DTD SVG 1.1//EN"
 "http://www.w3.org/Graphics/SVG/1.1/DTD/svg11.dtd">
<!-- Generated by graphviz version 2.40.1 (20161225.0304)
 -->
<!-- Title: geant4/tree/geant4&#45;10.6&#45;release/examples/extended/electromagnetic/TestEm3/include/EventAction.hh Pages: 1 -->
<svg width="1385pt" height="692pt"
 viewBox="0.00 0.00 1384.50 692.00" xmlns="http://www.w3.org/2000/svg" xmlns:xlink="http://www.w3.org/1999/xlink">
<g id="graph0" class="graph" transform="scale(1 1) rotate(0) translate(4 688)">
<title>geant4/tree/geant4&#45;10.6&#45;release/examples/extended/electromagnetic/TestEm3/include/EventAction.hh</title>
<!-- Node1 -->
<g id="node1" class="node">
<title>Node1</title>
<polygon fill="#bfbfbf" stroke="#000000" points="311,-627.5 311,-683.5 494,-683.5 494,-627.5 311,-627.5"/>
<text text-anchor="start" x="319" y="-670.5" font-family="FreeSans" font-size="10.00" fill="#000000">geant4/tree/geant4</text>
<text text-anchor="start" x="319" y="-658.5" font-family="FreeSans" font-size="10.00" fill="#000000">&#45;10.6&#45;release/examples</text>
<text text-anchor="start" x="319" y="-646.5" font-family="FreeSans" font-size="10.00" fill="#000000">/extended/electromagnetic</text>
<text text-anchor="middle" x="402.5" y="-634.5" font-family="FreeSans" font-size="10.00" fill="#000000">/TestEm3/include/EventAction.hh</text>
</g>
<!-- Node2 -->
<g id="node2" class="node">
<title>Node2</title>
<g id="a_node2"><a xlink:href="../../d3/d92/G4UserEventAction_8hh.html" target="_top" xlink:title="G4UserEventAction.hh">
<polygon fill="none" stroke="#000000" points="244.5,-570.5 244.5,-590.5 374.5,-590.5 374.5,-570.5 244.5,-570.5"/>
<text text-anchor="middle" x="309.5" y="-577.5" font-family="FreeSans" font-size="10.00" fill="#000000">G4UserEventAction.hh</text>
</a>
</g>
</g>
<!-- Node1&#45;&gt;Node2 -->
<g id="edge1" class="edge">
<title>Node1&#45;&gt;Node2</title>
<path fill="none" stroke="#191970" d="M367.6056,-627.3594C354.9555,-617.1576 341.0811,-605.9686 330.0632,-597.0832"/>
<polygon fill="#191970" stroke="#191970" points="332.2434,-594.3451 322.2621,-590.792 327.8491,-599.794 332.2434,-594.3451"/>
</g>
<!-- Node3 -->
<g id="node3" class="node">
<title>Node3</title>
<g id="a_node3"><a xlink:href="../../da/d46/globals_8hh.html" target="_top" xlink:title="globals.hh">
<polygon fill="none" stroke="#000000" points="502.5,-342.5 502.5,-362.5 570.5,-362.5 570.5,-342.5 502.5,-342.5"/>
<text text-anchor="middle" x="536.5" y="-349.5" font-family="FreeSans" font-size="10.00" fill="#000000">globals.hh</text>
</a>
</g>
</g>
<!-- Node1&#45;&gt;Node3 -->
<g id="edge2" class="edge">
<title>Node1&#45;&gt;Node3</title>
<path fill="none" stroke="#191970" d="M402.5,-627.4324C402.5,-600.7104 402.5,-559.3646 402.5,-523.5 402.5,-523.5 402.5,-523.5 402.5,-466.5 402.5,-416.1324 458.1011,-383.3513 497.6721,-366.3991"/>
<polygon fill="#191970" stroke="#191970" points="499.174,-369.566 507.0931,-362.5277 496.5133,-363.0913 499.174,-369.566"/>
</g>
<!-- Node28 -->
<g id="node28" class="node">
<title>Node28</title>
<g id="a_node28"><a xlink:href="../../df/ddc/examples_2extended_2electromagnetic_2TestEm3_2include_2DetectorConstruction_8hh.html" target="_top" xlink:title="Definition of the DetectorConstruction class.">
<polygon fill="none" stroke="#000000" points="445.5,-570.5 445.5,-590.5 585.5,-590.5 585.5,-570.5 445.5,-570.5"/>
<text text-anchor="middle" x="515.5" y="-577.5" font-family="FreeSans" font-size="10.00" fill="#000000">DetectorConstruction.hh</text>
</a>
</g>
</g>
<!-- Node1&#45;&gt;Node28 -->
<g id="edge40" class="edge">
<title>Node1&#45;&gt;Node28</title>
<path fill="none" stroke="#191970" d="M444.8985,-627.3594C460.6723,-616.8901 478.0126,-605.381 491.5608,-596.3889"/>
<polygon fill="#191970" stroke="#191970" points="493.8722,-599.0555 500.2686,-590.6094 490.0012,-593.2232 493.8722,-599.0555"/>
</g>
<!-- Node4 -->
<g id="node4" class="node">
<title>Node4</title>
<g id="a_node4"><a xlink:href="../../df/de9/G4ios_8hh.html" target="_top" xlink:title="G4ios.hh">
<polygon fill="none" stroke="#000000" points="572,-171.5 572,-191.5 633,-191.5 633,-171.5 572,-171.5"/>
<text text-anchor="middle" x="602.5" y="-178.5" font-family="FreeSans" font-size="10.00" fill="#000000">G4ios.hh</text>
</a>
</g>
</g>
<!-- Node3&#45;&gt;Node4 -->
<g id="edge3" class="edge">
<title>Node3&#45;&gt;Node4</title>
<path fill="none" stroke="#191970" d="M570.5554,-349.2749C625.0085,-342.0762 730.2432,-319.3231 776.5,-249 781.6291,-241.2023 782.1842,-235.4028 776.5,-228 760.3891,-207.0183 689.5625,-193.4585 643.387,-186.6756"/>
<polygon fill="#191970" stroke="#191970" points="643.7603,-183.1936 633.3675,-185.2527 642.776,-190.1241 643.7603,-183.1936"/>
</g>
<!-- Node5 -->
<g id="node5" class="node">
<title>Node5</title>
<g id="a_node5"><a xlink:href="../../de/d29/G4Types_8hh.html" target="_top" xlink:title="G4Types.hh">
<polygon fill="none" stroke="#000000" points="565,-114.5 565,-134.5 640,-134.5 640,-114.5 565,-114.5"/>
<text text-anchor="middle" x="602.5" y="-121.5" font-family="FreeSans" font-size="10.00" fill="#000000">G4Types.hh</text>
</a>
</g>
</g>
<!-- Node3&#45;&gt;Node5 -->
<g id="edge11" class="edge">
<title>Node3&#45;&gt;Node5</title>
<path fill="none" stroke="#191970" d="M570.5261,-347.4977C595.1123,-341.9106 626.673,-330.2259 642.5,-306 675.3161,-255.7695 663.3665,-227.2547 642.5,-171 638.4448,-160.0674 630.5404,-149.9798 622.8216,-142.0146"/>
<polygon fill="#191970" stroke="#191970" points="624.9509,-139.2068 615.3142,-134.804 620.102,-144.2554 624.9509,-139.2068"/>
</g>
<!-- Node10 -->
<g id="node10" class="node">
<title>Node10</title>
<polygon fill="none" stroke="#bfbfbf" points="568,-285.5 568,-305.5 633,-305.5 633,-285.5 568,-285.5"/>
<text text-anchor="middle" x="600.5" y="-292.5" font-family="FreeSans" font-size="10.00" fill="#000000">algorithm</text>
</g>
<!-- Node3&#45;&gt;Node10 -->
<g id="edge10" class="edge">
<title>Node3&#45;&gt;Node10</title>
<path fill="none" stroke="#191970" d="M547.9419,-342.3095C557.2249,-334.0419 570.5106,-322.2093 581.4015,-312.5096"/>
<polygon fill="#191970" stroke="#191970" points="584.0173,-314.8668 589.1571,-305.6022 579.3616,-309.6395 584.0173,-314.8668"/>
</g>
<!-- Node11 -->
<g id="node11" class="node">
<title>Node11</title>
<g id="a_node11"><a xlink:href="../../d2/df2/source_2global_2management_2include_2G4String_8hh.html" target="_top" xlink:title="G4String.hh">
<polygon fill="none" stroke="#000000" points="333.5,-171.5 333.5,-191.5 409.5,-191.5 409.5,-171.5 333.5,-171.5"/>
<text text-anchor="middle" x="371.5" y="-178.5" font-family="FreeSans" font-size="10.00" fill="#000000">G4String.hh</text>
</a>
</g>
</g>
<!-- Node3&#45;&gt;Node11 -->
<g id="edge12" class="edge">
<title>Node3&#45;&gt;Node11</title>
<path fill="none" stroke="#191970" d="M502.2923,-347.4251C423.344,-334.9257 232.419,-299.9264 196.5,-249 191.1205,-241.3729 190.8105,-235.3987 196.5,-228 200.4861,-222.8164 273.2331,-204.724 323.6643,-192.6951"/>
<polygon fill="#191970" stroke="#191970" points="324.5059,-196.0927 333.426,-190.3758 322.8877,-189.2823 324.5059,-196.0927"/>
</g>
<!-- Node16 -->
<g id="node16" class="node">
<title>Node16</title>
<g id="a_node16"><a xlink:href="../../d2/d54/templates_8hh.html" target="_top" xlink:title="templates.hh">
<polygon fill="none" stroke="#000000" points="48,-285.5 48,-305.5 131,-305.5 131,-285.5 48,-285.5"/>
<text text-anchor="middle" x="89.5" y="-292.5" font-family="FreeSans" font-size="10.00" fill="#000000">templates.hh</text>
</a>
</g>
</g>
<!-- Node3&#45;&gt;Node16 -->
<g id="edge19" class="edge">
<title>Node3&#45;&gt;Node16</title>
<path fill="none" stroke="#191970" d="M502.2766,-348.43C436.5657,-340.5718 288.1829,-322.6163 163.5,-306 156.3374,-305.0454 148.7893,-304.0093 141.3624,-302.9723"/>
<polygon fill="#191970" stroke="#191970" points="141.7475,-299.4921 131.3575,-301.5652 140.7726,-306.4239 141.7475,-299.4921"/>
</g>
<!-- Node19 -->
<g id="node19" class="node">
<title>Node19</title>
<g id="a_node19"><a xlink:href="../../d5/d4f/G4Exception_8hh.html" target="_top" xlink:title="G4Exception.hh">
<polygon fill="none" stroke="#000000" points="205.5,-228.5 205.5,-248.5 301.5,-248.5 301.5,-228.5 205.5,-228.5"/>
<text text-anchor="middle" x="253.5" y="-235.5" font-family="FreeSans" font-size="10.00" fill="#000000">G4Exception.hh</text>
</a>
</g>
</g>
<!-- Node3&#45;&gt;Node19 -->
<g id="edge22" class="edge">
<title>Node3&#45;&gt;Node19</title>
<path fill="none" stroke="#191970" d="M507.3287,-342.4844C481.2575,-333.3954 442.0991,-319.4038 408.5,-306 365.2054,-288.7283 315.976,-266.9088 284.837,-252.8309"/>
<polygon fill="#191970" stroke="#191970" points="285.9458,-249.4907 275.393,-248.5478 283.0545,-255.8658 285.9458,-249.4907"/>
</g>
<!-- Node22 -->
<g id="node22" class="node">
<title>Node22</title>
<g id="a_node22"><a xlink:href="../../dc/d3a/G4EnvironmentUtils_8hh.html" target="_top" xlink:title="G4EnvironmentUtils.hh">
<polygon fill="none" stroke="#000000" points="417,-285.5 417,-305.5 550,-305.5 550,-285.5 417,-285.5"/>
<text text-anchor="middle" x="483.5" y="-292.5" font-family="FreeSans" font-size="10.00" fill="#000000">G4EnvironmentUtils.hh</text>
</a>
</g>
</g>
<!-- Node3&#45;&gt;Node22 -->
<g id="edge28" class="edge">
<title>Node3&#45;&gt;Node22</title>
<path fill="none" stroke="#191970" d="M527.0247,-342.3095C519.4879,-334.204 508.7651,-322.672 499.8487,-313.0826"/>
<polygon fill="#191970" stroke="#191970" points="502.266,-310.5423 492.8933,-305.6022 497.1396,-315.3089 502.266,-310.5423"/>
</g>
<!-- Node4&#45;&gt;Node5 -->
<g id="edge4" class="edge">
<title>Node4&#45;&gt;Node5</title>
<path fill="none" stroke="#191970" d="M602.5,-171.3095C602.5,-163.9335 602.5,-153.72 602.5,-144.715"/>
<polygon fill="#191970" stroke="#191970" points="606.0001,-144.6022 602.5,-134.6022 599.0001,-144.6023 606.0001,-144.6022"/>
</g>
<!-- Node9 -->
<g id="node9" class="node">
<title>Node9</title>
<polygon fill="none" stroke="#bfbfbf" points="663.5,-114.5 663.5,-134.5 723.5,-134.5 723.5,-114.5 663.5,-114.5"/>
<text text-anchor="middle" x="693.5" y="-121.5" font-family="FreeSans" font-size="10.00" fill="#000000">iostream</text>
</g>
<!-- Node4&#45;&gt;Node9 -->
<g id="edge9" class="edge">
<title>Node4&#45;&gt;Node9</title>
<path fill="none" stroke="#191970" d="M618.769,-171.3095C632.6152,-162.6366 652.7245,-150.0407 668.596,-140.0992"/>
<polygon fill="#191970" stroke="#191970" points="670.7551,-142.8768 677.3719,-134.6022 667.0392,-136.9445 670.7551,-142.8768"/>
</g>
<!-- Node6 -->
<g id="node6" class="node">
<title>Node6</title>
<polygon fill="none" stroke="#bfbfbf" points="522,-.5 522,-20.5 633,-20.5 633,-.5 522,-.5"/>
<text text-anchor="middle" x="577.5" y="-7.5" font-family="FreeSans" font-size="10.00" fill="#000000">G4GlobalConfig.hh</text>
</g>
<!-- Node5&#45;&gt;Node6 -->
<g id="edge5" class="edge">
<title>Node5&#45;&gt;Node6</title>
<path fill="none" stroke="#191970" d="M593.1259,-114.3495C585.6356,-105.4996 575.7174,-91.9292 571.5,-78 566.8191,-62.5402 568.8849,-44.2477 571.8071,-30.6078"/>
<polygon fill="#191970" stroke="#191970" points="575.2273,-31.3562 574.2216,-20.8092 568.4306,-29.6813 575.2273,-31.3562"/>
</g>
<!-- Node7 -->
<g id="node7" class="node">
<title>Node7</title>
<polygon fill="none" stroke="#bfbfbf" points="643,-57.5 643,-77.5 702,-77.5 702,-57.5 643,-57.5"/>
<text text-anchor="middle" x="672.5" y="-64.5" font-family="FreeSans" font-size="10.00" fill="#000000">complex</text>
</g>
<!-- Node5&#45;&gt;Node7 -->
<g id="edge6" class="edge">
<title>Node5&#45;&gt;Node7</title>
<path fill="none" stroke="#191970" d="M615.0146,-114.3095C625.3669,-105.8798 640.2706,-93.7439 652.3087,-83.9415"/>
<polygon fill="#191970" stroke="#191970" points="654.5494,-86.6306 660.0937,-77.6022 650.1294,-81.2025 654.5494,-86.6306"/>
</g>
<!-- Node8 -->
<g id="node8" class="node">
<title>Node8</title>
<g id="a_node8"><a xlink:href="../../d0/d00/tls_8hh.html" target="_top" xlink:title="tls.hh">
<polygon fill="none" stroke="#000000" points="580.5,-57.5 580.5,-77.5 624.5,-77.5 624.5,-57.5 580.5,-57.5"/>
<text text-anchor="middle" x="602.5" y="-64.5" font-family="FreeSans" font-size="10.00" fill="#000000">tls.hh</text>
</a>
</g>
</g>
<!-- Node5&#45;&gt;Node8 -->
<g id="edge7" class="edge">
<title>Node5&#45;&gt;Node8</title>
<path fill="none" stroke="#191970" d="M602.5,-114.3095C602.5,-106.9335 602.5,-96.72 602.5,-87.715"/>
<polygon fill="#191970" stroke="#191970" points="606.0001,-87.6022 602.5,-77.6022 599.0001,-87.6023 606.0001,-87.6022"/>
</g>
<!-- Node8&#45;&gt;Node6 -->
<g id="edge8" class="edge">
<title>Node8&#45;&gt;Node6</title>
<path fill="none" stroke="#191970" d="M598.0305,-57.3095C594.6887,-49.6903 590.0191,-39.0435 585.9774,-29.8285"/>
<polygon fill="#191970" stroke="#191970" points="589.1527,-28.3543 581.9308,-20.6022 582.7422,-31.166 589.1527,-28.3543"/>
</g>
<!-- Node11&#45;&gt;Node5 -->
<g id="edge16" class="edge">
<title>Node11&#45;&gt;Node5</title>
<path fill="none" stroke="#191970" d="M409.645,-172.0876C449.3876,-162.281 511.7447,-146.8942 554.7373,-136.2856"/>
<polygon fill="#191970" stroke="#191970" points="555.812,-139.6255 564.6823,-133.8316 554.135,-132.8293 555.812,-139.6255"/>
</g>
<!-- Node11&#45;&gt;Node9 -->
<g id="edge17" class="edge">
<title>Node11&#45;&gt;Node9</title>
<path fill="none" stroke="#191970" d="M409.8755,-175.932C463.6453,-167.9373 564.3727,-152.2556 649.5,-135 650.7555,-134.7455 652.0297,-134.4808 653.3151,-134.2082"/>
<polygon fill="#191970" stroke="#191970" points="654.2579,-137.5843 663.2637,-132.0034 652.7433,-130.7501 654.2579,-137.5843"/>
</g>
<!-- Node12 -->
<g id="node12" class="node">
<title>Node12</title>
<polygon fill="none" stroke="#bfbfbf" points="321.5,-114.5 321.5,-134.5 371.5,-134.5 371.5,-114.5 321.5,-114.5"/>
<text text-anchor="middle" x="346.5" y="-121.5" font-family="FreeSans" font-size="10.00" fill="#000000">stdio.h</text>
</g>
<!-- Node11&#45;&gt;Node12 -->
<g id="edge13" class="edge">
<title>Node11&#45;&gt;Node12</title>
<path fill="none" stroke="#191970" d="M367.0305,-171.3095C363.6887,-163.6903 359.0191,-153.0435 354.9774,-143.8285"/>
<polygon fill="#191970" stroke="#191970" points="358.1527,-142.3543 350.9308,-134.6022 351.7422,-145.166 358.1527,-142.3543"/>
</g>
<!-- Node13 -->
<g id="node13" class="node">
<title>Node13</title>
<polygon fill="none" stroke="#bfbfbf" points="458,-114.5 458,-134.5 503,-134.5 503,-114.5 458,-114.5"/>
<text text-anchor="middle" x="480.5" y="-121.5" font-family="FreeSans" font-size="10.00" fill="#000000">string</text>
</g>
<!-- Node11&#45;&gt;Node13 -->
<g id="edge14" class="edge">
<title>Node11&#45;&gt;Node13</title>
<path fill="none" stroke="#191970" d="M390.7361,-171.4408C407.7533,-162.5419 432.8089,-149.4394 452.1272,-139.3371"/>
<polygon fill="#191970" stroke="#191970" points="453.85,-142.386 461.0896,-134.6504 450.6061,-136.1829 453.85,-142.386"/>
</g>
<!-- Node14 -->
<g id="node14" class="node">
<title>Node14</title>
<polygon fill="none" stroke="#bfbfbf" points="389.5,-114.5 389.5,-134.5 439.5,-134.5 439.5,-114.5 389.5,-114.5"/>
<text text-anchor="middle" x="414.5" y="-121.5" font-family="FreeSans" font-size="10.00" fill="#000000">cstring</text>
</g>
<!-- Node11&#45;&gt;Node14 -->
<g id="edge15" class="edge">
<title>Node11&#45;&gt;Node14</title>
<path fill="none" stroke="#191970" d="M379.1875,-171.3095C385.18,-163.3661 393.6549,-152.1319 400.8002,-142.6602"/>
<polygon fill="#191970" stroke="#191970" points="403.6507,-144.6933 406.879,-134.6022 398.0625,-140.4776 403.6507,-144.6933"/>
</g>
<!-- Node15 -->
<g id="node15" class="node">
<title>Node15</title>
<polygon fill="none" stroke="#bfbfbf" points="225.5,-114.5 225.5,-134.5 303.5,-134.5 303.5,-114.5 225.5,-114.5"/>
<text text-anchor="middle" x="264.5" y="-121.5" font-family="FreeSans" font-size="10.00" fill="#000000">G4String.icc</text>
</g>
<!-- Node11&#45;&gt;Node15 -->
<g id="edge18" class="edge">
<title>Node11&#45;&gt;Node15</title>
<path fill="none" stroke="#191970" d="M352.3705,-171.3095C335.7094,-162.434 311.3358,-149.4499 292.4829,-139.4068"/>
<polygon fill="#191970" stroke="#191970" points="293.9352,-136.2148 283.4638,-134.6022 290.6441,-142.3929 293.9352,-136.2148"/>
</g>
<!-- Node17 -->
<g id="node17" class="node">
<title>Node17</title>
<polygon fill="none" stroke="#bfbfbf" points="67.5,-228.5 67.5,-248.5 111.5,-248.5 111.5,-228.5 67.5,-228.5"/>
<text text-anchor="middle" x="89.5" y="-235.5" font-family="FreeSans" font-size="10.00" fill="#000000">limits</text>
</g>
<!-- Node16&#45;&gt;Node17 -->
<g id="edge20" class="edge">
<title>Node16&#45;&gt;Node17</title>
<path fill="none" stroke="#191970" d="M89.5,-285.3095C89.5,-277.9335 89.5,-267.72 89.5,-258.715"/>
<polygon fill="#191970" stroke="#191970" points="93.0001,-258.6022 89.5,-248.6022 86.0001,-258.6023 93.0001,-258.6022"/>
</g>
<!-- Node18 -->
<g id="node18" class="node">
<title>Node18</title>
<polygon fill="none" stroke="#bfbfbf" points="0,-228.5 0,-248.5 49,-248.5 49,-228.5 0,-228.5"/>
<text text-anchor="middle" x="24.5" y="-235.5" font-family="FreeSans" font-size="10.00" fill="#000000">climits</text>
</g>
<!-- Node16&#45;&gt;Node18 -->
<g id="edge21" class="edge">
<title>Node16&#45;&gt;Node18</title>
<path fill="none" stroke="#191970" d="M77.8793,-285.3095C68.3588,-276.9608 54.693,-264.9769 43.5723,-255.2249"/>
<polygon fill="#191970" stroke="#191970" points="45.8464,-252.564 36.0201,-248.6022 41.2311,-257.827 45.8464,-252.564"/>
</g>
<!-- Node19&#45;&gt;Node4 -->
<g id="edge23" class="edge">
<title>Node19&#45;&gt;Node4</title>
<path fill="none" stroke="#191970" d="M301.6605,-230.6342C370.7416,-219.3517 496.7592,-198.77 561.5822,-188.1829"/>
<polygon fill="#191970" stroke="#191970" points="562.5139,-191.5771 571.819,-186.5109 561.3855,-184.6687 562.5139,-191.5771"/>
</g>
<!-- Node19&#45;&gt;Node11 -->
<g id="edge24" class="edge">
<title>Node19&#45;&gt;Node11</title>
<path fill="none" stroke="#191970" d="M274.3244,-228.4408C292.9141,-219.461 320.365,-206.2008 341.3534,-196.0624"/>
<polygon fill="#191970" stroke="#191970" points="343.0048,-199.1517 350.4869,-191.6504 339.96,-192.8485 343.0048,-199.1517"/>
</g>
<!-- Node20 -->
<g id="node20" class="node">
<title>Node20</title>
<g id="a_node20"><a xlink:href="../../d9/d05/G4VExceptionHandler_8hh.html" target="_top" xlink:title="G4VExceptionHandler.hh">
<polygon fill="none" stroke="#000000" points="173.5,-171.5 173.5,-191.5 315.5,-191.5 315.5,-171.5 173.5,-171.5"/>
<text text-anchor="middle" x="244.5" y="-178.5" font-family="FreeSans" font-size="10.00" fill="#000000">G4VExceptionHandler.hh</text>
</a>
</g>
</g>
<!-- Node19&#45;&gt;Node20 -->
<g id="edge25" class="edge">
<title>Node19&#45;&gt;Node20</title>
<path fill="none" stroke="#191970" d="M251.891,-228.3095C250.7263,-220.9335 249.1137,-210.72 247.6918,-201.715"/>
<polygon fill="#191970" stroke="#191970" points="251.112,-200.934 246.0951,-191.6022 244.1976,-202.0258 251.112,-200.934"/>
</g>
<!-- Node20&#45;&gt;Node5 -->
<g id="edge26" class="edge">
<title>Node20&#45;&gt;Node5</title>
<path fill="none" stroke="#191970" d="M307.6791,-171.4408C378.2234,-160.2088 490.8272,-142.2803 554.5151,-132.1401"/>
<polygon fill="#191970" stroke="#191970" points="555.3559,-135.5504 564.6812,-130.5214 554.2552,-128.6374 555.3559,-135.5504"/>
</g>
<!-- Node21 -->
<g id="node21" class="node">
<title>Node21</title>
<g id="a_node21"><a xlink:href="../../d6/d7e/G4ExceptionSeverity_8hh.html" target="_top" xlink:title="G4ExceptionSeverity.hh">
<polygon fill="none" stroke="#000000" points="71.5,-114.5 71.5,-134.5 207.5,-134.5 207.5,-114.5 71.5,-114.5"/>
<text text-anchor="middle" x="139.5" y="-121.5" font-family="FreeSans" font-size="10.00" fill="#000000">G4ExceptionSeverity.hh</text>
</a>
</g>
</g>
<!-- Node20&#45;&gt;Node21 -->
<g id="edge27" class="edge">
<title>Node20&#45;&gt;Node21</title>
<path fill="none" stroke="#191970" d="M225.7281,-171.3095C209.3784,-162.434 185.4604,-149.4499 166.9599,-139.4068"/>
<polygon fill="#191970" stroke="#191970" points="168.5678,-136.2972 158.1094,-134.6022 165.2281,-142.4492 168.5678,-136.2972"/>
</g>
<!-- Node22&#45;&gt;Node4 -->
<g id="edge36" class="edge">
<title>Node22&#45;&gt;Node4</title>
<path fill="none" stroke="#191970" d="M523.3264,-285.429C554.7768,-276.5758 594.9106,-262.9582 604.5,-249 613.9165,-235.2933 612.2841,-216.0532 608.9558,-201.6194"/>
<polygon fill="#191970" stroke="#191970" points="612.2533,-200.4095 606.2349,-191.69 605.5022,-202.2595 612.2533,-200.4095"/>
</g>
<!-- Node22&#45;&gt;Node9 -->
<g id="edge33" class="edge">
<title>Node22&#45;&gt;Node9</title>
<path fill="none" stroke="#191970" d="M542.497,-285.4758C568.8647,-278.6646 598.9981,-267.4111 621.5,-249 655.9612,-220.8038 677.349,-171.4774 687.155,-144.1412"/>
<polygon fill="#191970" stroke="#191970" points="690.5217,-145.113 690.4513,-134.5184 683.8995,-142.8445 690.5217,-145.113"/>
</g>
<!-- Node22&#45;&gt;Node11 -->
<g id="edge37" class="edge">
<title>Node22&#45;&gt;Node11</title>
<path fill="none" stroke="#191970" d="M437.3657,-285.4962C402.9089,-276.9801 360.0283,-263.7976 349.5,-249 339.0666,-234.3357 347.6923,-214.4402 357.0296,-200.0516"/>
<polygon fill="#191970" stroke="#191970" points="360.1595,-201.6875 363.0753,-191.5018 354.444,-197.646 360.1595,-201.6875"/>
</g>
<!-- Node22&#45;&gt;Node13 -->
<g id="edge30" class="edge">
<title>Node22&#45;&gt;Node13</title>
<path fill="none" stroke="#191970" d="M477.3219,-285.2294C472.2062,-276.0876 465.3343,-262.1624 462.5,-249 454.6106,-212.3623 465.3865,-168.8998 473.3488,-144.2254"/>
<polygon fill="#191970" stroke="#191970" points="476.72,-145.183 476.6292,-134.5886 470.0934,-142.9273 476.72,-145.183"/>
</g>
<!-- Node22&#45;&gt;Node19 -->
<g id="edge38" class="edge">
<title>Node22&#45;&gt;Node19</title>
<path fill="none" stroke="#191970" d="M442.9101,-285.4408C404.19,-275.8449 345.7473,-261.3613 304.0283,-251.0222"/>
<polygon fill="#191970" stroke="#191970" points="304.6187,-247.5627 294.0703,-248.5544 302.9348,-254.3572 304.6187,-247.5627"/>
</g>
<!-- Node22&#45;&gt;Node21 -->
<g id="edge39" class="edge">
<title>Node22&#45;&gt;Node21</title>
<path fill="none" stroke="#191970" d="M416.7398,-291.3524C343.324,-285.6492 231.1512,-273.2149 196.5,-249 161.5794,-224.5968 147.6172,-173.3477 142.3831,-144.7983"/>
<polygon fill="#191970" stroke="#191970" points="145.8063,-144.0452 140.7314,-134.7449 138.8989,-145.1801 145.8063,-144.0452"/>
</g>
<!-- Node23 -->
<g id="node23" class="node">
<title>Node23</title>
<polygon fill="none" stroke="#bfbfbf" points="471.5,-228.5 471.5,-248.5 521.5,-248.5 521.5,-228.5 471.5,-228.5"/>
<text text-anchor="middle" x="496.5" y="-235.5" font-family="FreeSans" font-size="10.00" fill="#000000">cstdlib</text>
</g>
<!-- Node22&#45;&gt;Node23 -->
<g id="edge29" class="edge">
<title>Node22&#45;&gt;Node23</title>
<path fill="none" stroke="#191970" d="M485.8241,-285.3095C487.5249,-277.8524 489.8871,-267.4951 491.9572,-258.4186"/>
<polygon fill="#191970" stroke="#191970" points="495.3847,-259.1302 494.196,-248.6022 488.5599,-257.5736 495.3847,-259.1302"/>
</g>
<!-- Node24 -->
<g id="node24" class="node">
<title>Node24</title>
<polygon fill="none" stroke="#bfbfbf" points="539.5,-228.5 539.5,-248.5 595.5,-248.5 595.5,-228.5 539.5,-228.5"/>
<text text-anchor="middle" x="567.5" y="-235.5" font-family="FreeSans" font-size="10.00" fill="#000000">sstream</text>
</g>
<!-- Node22&#45;&gt;Node24 -->
<g id="edge31" class="edge">
<title>Node22&#45;&gt;Node24</title>
<path fill="none" stroke="#191970" d="M498.5175,-285.3095C511.1792,-276.7177 529.5147,-264.2758 544.1,-254.3786"/>
<polygon fill="#191970" stroke="#191970" points="546.303,-257.1135 552.6125,-248.6022 542.3725,-251.3211 546.303,-257.1135"/>
</g>
<!-- Node25 -->
<g id="node25" class="node">
<title>Node25</title>
<polygon fill="none" stroke="#bfbfbf" points="728,-228.5 728,-248.5 767,-248.5 767,-228.5 728,-228.5"/>
<text text-anchor="middle" x="747.5" y="-235.5" font-family="FreeSans" font-size="10.00" fill="#000000">map</text>
</g>
<!-- Node22&#45;&gt;Node25 -->
<g id="edge32" class="edge">
<title>Node22&#45;&gt;Node25</title>
<path fill="none" stroke="#191970" d="M541.5213,-285.4311C588.2456,-276.9247 655.4689,-263.7874 713.5,-249 714.9592,-248.6282 716.4488,-248.2319 717.9497,-247.8194"/>
<polygon fill="#191970" stroke="#191970" points="719.1966,-251.1017 727.8183,-244.9439 717.2384,-244.3811 719.1966,-251.1017"/>
</g>
<!-- Node26 -->
<g id="node26" class="node">
<title>Node26</title>
<polygon fill="none" stroke="#bfbfbf" points="358,-228.5 358,-248.5 415,-248.5 415,-228.5 358,-228.5"/>
<text text-anchor="middle" x="386.5" y="-235.5" font-family="FreeSans" font-size="10.00" fill="#000000">iomanip</text>
</g>
<!-- Node22&#45;&gt;Node26 -->
<g id="edge34" class="edge">
<title>Node22&#45;&gt;Node26</title>
<path fill="none" stroke="#191970" d="M466.1583,-285.3095C451.2612,-276.5556 429.5627,-263.8049 412.5728,-253.8211"/>
<polygon fill="#191970" stroke="#191970" points="414.0864,-250.651 403.6915,-248.6022 410.5399,-256.6862 414.0864,-250.651"/>
</g>
<!-- Node27 -->
<g id="node27" class="node">
<title>Node27</title>
<polygon fill="none" stroke="#bfbfbf" points="1044.5,-228.5 1044.5,-248.5 1092.5,-248.5 1092.5,-228.5 1044.5,-228.5"/>
<text text-anchor="middle" x="1068.5" y="-235.5" font-family="FreeSans" font-size="10.00" fill="#000000">mutex</text>
</g>
<!-- Node22&#45;&gt;Node27 -->
<g id="edge35" class="edge">
<title>Node22&#45;&gt;Node27</title>
<path fill="none" stroke="#191970" d="M550.206,-286.1066C553.3462,-285.7202 556.4564,-285.3491 559.5,-285 737.9136,-264.5369 952.3439,-247.3671 1034.3442,-241.0723"/>
<polygon fill="#191970" stroke="#191970" points="1034.6453,-244.5596 1044.3496,-240.3078 1034.112,-237.5799 1034.6453,-244.5596"/>
</g>
<!-- Node28&#45;&gt;Node3 -->
<g id="edge44" class="edge">
<title>Node28&#45;&gt;Node3</title>
<path fill="none" stroke="#191970" d="M507.1053,-570.4626C484.388,-542.0129 425.6289,-459.0228 459.5,-399 467.6215,-384.6079 482.1856,-374.1687 496.4783,-366.8737"/>
<polygon fill="#191970" stroke="#191970" points="498.191,-369.9364 505.761,-362.5238 495.2207,-363.5978 498.191,-369.9364"/>
</g>
<!-- Node29 -->
<g id="node29" class="node">
<title>Node29</title>
<g id="a_node29"><a xlink:href="../../d3/dc7/G4VUserDetectorConstruction_8hh.html" target="_top" xlink:title="G4VUserDetectorConstruction.hh">
<polygon fill="none" stroke="#000000" points="468.5,-399.5 468.5,-419.5 652.5,-419.5 652.5,-399.5 468.5,-399.5"/>
<text text-anchor="middle" x="560.5" y="-406.5" font-family="FreeSans" font-size="10.00" fill="#000000">G4VUserDetectorConstruction.hh</text>
</a>
</g>
</g>
<!-- Node28&#45;&gt;Node29 -->
<g id="edge41" class="edge">
<title>Node28&#45;&gt;Node29</title>
<path fill="none" stroke="#191970" d="M518.1802,-570.3153C525.4164,-542.8178 545.454,-466.6748 555.1318,-429.8993"/>
<polygon fill="#191970" stroke="#191970" points="558.6167,-430.4091 557.777,-419.8476 551.8472,-428.6276 558.6167,-430.4091"/>
</g>
<!-- Node31 -->
<g id="node31" class="node">
<title>Node31</title>
<g id="a_node31"><a xlink:href="../../d2/d5f/G4Cache_8hh.html" target="_top" xlink:title="G4Cache.hh">
<polygon fill="none" stroke="#000000" points="782.5,-513.5 782.5,-533.5 860.5,-533.5 860.5,-513.5 782.5,-513.5"/>
<text text-anchor="middle" x="821.5" y="-520.5" font-family="FreeSans" font-size="10.00" fill="#000000">G4Cache.hh</text>
</a>
</g>
</g>
<!-- Node28&#45;&gt;Node31 -->
<g id="edge45" class="edge">
<title>Node28&#45;&gt;Node31</title>
<path fill="none" stroke="#191970" d="M569.5023,-570.4408C626.8426,-559.7597 716.6933,-543.0228 772.1828,-532.6865"/>
<polygon fill="#191970" stroke="#191970" points="772.9385,-536.1061 782.1284,-530.8339 771.6565,-529.2244 772.9385,-536.1061"/>
</g>
<!-- Node29&#45;&gt;Node3 -->
<g id="edge43" class="edge">
<title>Node29&#45;&gt;Node3</title>
<path fill="none" stroke="#191970" d="M556.2093,-399.3095C553.0012,-391.6903 548.5183,-381.0435 544.6383,-371.8285"/>
<polygon fill="#191970" stroke="#191970" points="547.8599,-370.4604 540.7536,-362.6022 541.4085,-373.1768 547.8599,-370.4604"/>
</g>
<!-- Node30 -->
<g id="node30" class="node">
<title>Node30</title>
<polygon fill="none" stroke="#bfbfbf" points="747,-342.5 747,-362.5 796,-362.5 796,-342.5 747,-342.5"/>
<text text-anchor="middle" x="771.5" y="-349.5" font-family="FreeSans" font-size="10.00" fill="#000000">vector</text>
</g>
<!-- Node29&#45;&gt;Node30 -->
<g id="edge42" class="edge">
<title>Node29&#45;&gt;Node30</title>
<path fill="none" stroke="#191970" d="M597.7369,-399.4408C637.1599,-388.7909 698.8694,-372.1206 737.1576,-361.7773"/>
<polygon fill="#191970" stroke="#191970" points="738.0873,-365.1517 746.8284,-359.1648 736.2617,-358.394 738.0873,-365.1517"/>
</g>
<!-- Node31&#45;&gt;Node25 -->
<g id="edge48" class="edge">
<title>Node31&#45;&gt;Node25</title>
<path fill="none" stroke="#191970" d="M785.9031,-513.3629C768.0314,-506.2724 747.9954,-494.8062 737.5,-477 695.5965,-405.9079 724.931,-301.1133 740.0337,-258.0583"/>
<polygon fill="#191970" stroke="#191970" points="743.3812,-259.0944 743.5147,-248.5004 736.8038,-256.6989 743.3812,-259.0944"/>
</g>
<!-- Node32 -->
<g id="node32" class="node">
<title>Node32</title>
<polygon fill="none" stroke="#bfbfbf" points="1294.5,-399.5 1294.5,-419.5 1376.5,-419.5 1376.5,-399.5 1294.5,-399.5"/>
<text text-anchor="middle" x="1335.5" y="-406.5" font-family="FreeSans" font-size="10.00" fill="#000000">system_error</text>
</g>
<!-- Node31&#45;&gt;Node32 -->
<g id="edge46" class="edge">
<title>Node31&#45;&gt;Node32</title>
<path fill="none" stroke="#191970" d="M860.5722,-522.3907C954.1128,-519.253 1188.4162,-508.4037 1259.5,-477 1284.6552,-465.8868 1307.3471,-443.291 1321.2532,-427.3103"/>
<polygon fill="#191970" stroke="#191970" points="1323.9352,-429.5591 1327.6909,-419.6523 1318.5769,-425.0547 1323.9352,-429.5591"/>
</g>
<!-- Node33 -->
<g id="node33" class="node">
<title>Node33</title>
<polygon fill="none" stroke="#bfbfbf" points="746.5,-456.5 746.5,-476.5 796.5,-476.5 796.5,-456.5 746.5,-456.5"/>
<text text-anchor="middle" x="771.5" y="-463.5" font-family="FreeSans" font-size="10.00" fill="#000000">atomic</text>
</g>
<!-- Node31&#45;&gt;Node33 -->
<g id="edge47" class="edge">
<title>Node31&#45;&gt;Node33</title>
<path fill="none" stroke="#191970" d="M812.561,-513.3095C805.522,-505.2851 795.5371,-493.9022 787.1762,-484.3708"/>
<polygon fill="#191970" stroke="#191970" points="789.5872,-481.8118 780.3616,-476.6022 784.3249,-486.4279 789.5872,-481.8118"/>
</g>
<!-- Node34 -->
<g id="node34" class="node">
<title>Node34</title>
<g id="a_node34"><a xlink:href="../../d8/d7b/G4AutoLock_8hh.html" target="_top" xlink:title="G4AutoLock.hh">
<polygon fill="none" stroke="#000000" points="1158.5,-456.5 1158.5,-476.5 1250.5,-476.5 1250.5,-456.5 1158.5,-456.5"/>
<text text-anchor="middle" x="1204.5" y="-463.5" font-family="FreeSans" font-size="10.00" fill="#000000">G4AutoLock.hh</text>
</a>
</g>
</g>
<!-- Node31&#45;&gt;Node34 -->
<g id="edge49" class="edge">
<title>Node31&#45;&gt;Node34</title>
<path fill="none" stroke="#191970" d="M860.6878,-517.6679C928.8366,-507.5256 1069.4068,-486.6053 1148.0605,-474.8996"/>
<polygon fill="#191970" stroke="#191970" points="1148.8923,-478.3145 1158.2681,-473.3805 1147.8618,-471.3907 1148.8923,-478.3145"/>
</g>
<!-- Node40 -->
<g id="node40" class="node">
<title>Node40</title>
<g id="a_node40"><a xlink:href="../../d0/db9/G4CacheDetails_8hh.html" target="_top" xlink:title="G4CacheDetails.hh">
<polygon fill="none" stroke="#000000" points="815,-456.5 815,-476.5 928,-476.5 928,-456.5 815,-456.5"/>
<text text-anchor="middle" x="871.5" y="-463.5" font-family="FreeSans" font-size="10.00" fill="#000000">G4CacheDetails.hh</text>
</a>
</g>
</g>
<!-- Node31&#45;&gt;Node40 -->
<g id="edge63" class="edge">
<title>Node31&#45;&gt;Node40</title>
<path fill="none" stroke="#191970" d="M830.439,-513.3095C837.478,-505.2851 847.4629,-493.9022 855.8238,-484.3708"/>
<polygon fill="#191970" stroke="#191970" points="858.6751,-486.4279 862.6384,-476.6022 853.4128,-481.8118 858.6751,-486.4279"/>
</g>
<!-- Node34&#45;&gt;Node9 -->
<g id="edge62" class="edge">
<title>Node34&#45;&gt;Node9</title>
<path fill="none" stroke="#191970" d="M1214.738,-456.2108C1232.3478,-437.3677 1266.5,-395.3058 1266.5,-352.5 1266.5,-352.5 1266.5,-352.5 1266.5,-238.5 1266.5,-184.1162 864.3291,-140.8422 733.8457,-128.2333"/>
<polygon fill="#191970" stroke="#191970" points="733.7882,-124.7119 723.5002,-127.243 733.1212,-131.68 733.7882,-124.7119"/>
</g>
<!-- Node34&#45;&gt;Node27 -->
<g id="edge59" class="edge">
<title>Node34&#45;&gt;Node27</title>
<path fill="none" stroke="#191970" d="M1208.0259,-456.4436C1215.1397,-434.3323 1228.9494,-380.4035 1209.5,-342 1187.1148,-297.7997 1135.9885,-267.8985 1101.85,-252.024"/>
<polygon fill="#191970" stroke="#191970" points="1103.2659,-248.8232 1092.7097,-247.9183 1100.3976,-255.2086 1103.2659,-248.8232"/>
</g>
<!-- Node34&#45;&gt;Node32 -->
<g id="edge61" class="edge">
<title>Node34&#45;&gt;Node32</title>
<path fill="none" stroke="#191970" d="M1227.6186,-456.4408C1248.5353,-447.3396 1279.5569,-433.8416 1302.9728,-423.6531"/>
<polygon fill="#191970" stroke="#191970" points="1304.3987,-426.8497 1312.1719,-419.6504 1301.6058,-420.4309 1304.3987,-426.8497"/>
</g>
<!-- Node35 -->
<g id="node35" class="node">
<title>Node35</title>
<g id="a_node35"><a xlink:href="../../d9/d7a/G4Threading_8hh.html" target="_top" xlink:title="G4Threading.hh">
<polygon fill="none" stroke="#000000" points="913.5,-399.5 913.5,-419.5 1011.5,-419.5 1011.5,-399.5 913.5,-399.5"/>
<text text-anchor="middle" x="962.5" y="-406.5" font-family="FreeSans" font-size="10.00" fill="#000000">G4Threading.hh</text>
</a>
</g>
</g>
<!-- Node34&#45;&gt;Node35 -->
<g id="edge50" class="edge">
<title>Node34&#45;&gt;Node35</title>
<path fill="none" stroke="#191970" d="M1161.7923,-456.4408C1120.8799,-446.8043 1059.0398,-432.2387 1015.1087,-421.8913"/>
<polygon fill="#191970" stroke="#191970" points="1015.7232,-418.4403 1005.1871,-419.5544 1014.1183,-425.2539 1015.7232,-418.4403"/>
</g>
<!-- Node36 -->
<g id="node36" class="node">
<title>Node36</title>
<polygon fill="none" stroke="#bfbfbf" points="1149,-342.5 1149,-362.5 1200,-362.5 1200,-342.5 1149,-342.5"/>
<text text-anchor="middle" x="1174.5" y="-349.5" font-family="FreeSans" font-size="10.00" fill="#000000">chrono</text>
</g>
<!-- Node34&#45;&gt;Node36 -->
<g id="edge60" class="edge">
<title>Node34&#45;&gt;Node36</title>
<path fill="none" stroke="#191970" d="M1201.8377,-456.3833C1196.891,-437.586 1186.2007,-396.9627 1179.7516,-372.4559"/>
<polygon fill="#191970" stroke="#191970" points="1183.1292,-371.5379 1177.1995,-362.7579 1176.3597,-373.3194 1183.1292,-371.5379"/>
</g>
<!-- Node35&#45;&gt;Node3 -->
<g id="edge51" class="edge">
<title>Node35&#45;&gt;Node3</title>
<path fill="none" stroke="#191970" d="M913.2162,-402.9057C829.5836,-391.7154 661.1567,-369.1794 580.9359,-358.4457"/>
<polygon fill="#191970" stroke="#191970" points="581.0556,-354.9306 570.6798,-357.0733 580.1272,-361.8687 581.0556,-354.9306"/>
</g>
<!-- Node35&#45;&gt;Node5 -->
<g id="edge52" class="edge">
<title>Node35&#45;&gt;Node5</title>
<path fill="none" stroke="#191970" d="M1008.1471,-399.4552C1032.0646,-392.3918 1060.6362,-380.9219 1081.5,-363 1107.7822,-340.4237 1120.5,-330.1474 1120.5,-295.5 1120.5,-295.5 1120.5,-295.5 1120.5,-238.5 1120.5,-228.8519 1110.5476,-231.3508 1101.5,-228 1090.7946,-224.0353 772.8405,-159.1559 650.1494,-134.1871"/>
<polygon fill="#191970" stroke="#191970" points="650.7732,-130.7424 640.2761,-132.1782 649.3774,-137.6019 650.7732,-130.7424"/>
</g>
<!-- Node35&#45;&gt;Node27 -->
<g id="edge55" class="edge">
<title>Node35&#45;&gt;Node27</title>
<path fill="none" stroke="#191970" d="M1009.6932,-399.4219C1029.7065,-392.609 1051.2077,-381.3695 1063.5,-363 1084.5533,-331.5383 1079.1593,-284.9118 1073.6382,-258.5556"/>
<polygon fill="#191970" stroke="#191970" points="1077.0007,-257.5609 1071.341,-248.6045 1070.1801,-259.1355 1077.0007,-257.5609"/>
</g>
<!-- Node35&#45;&gt;Node30 -->
<g id="edge58" class="edge">
<title>Node35&#45;&gt;Node30</title>
<path fill="none" stroke="#191970" d="M928.1638,-399.4547C898.3232,-390.6969 853.6917,-377.5324 805.6534,-363.0233"/>
<polygon fill="#191970" stroke="#191970" points="806.5887,-359.6496 796.0037,-360.1044 804.562,-366.3498 806.5887,-359.6496"/>
</g>
<!-- Node35&#45;&gt;Node36 -->
<g id="edge53" class="edge">
<title>Node35&#45;&gt;Node36</title>
<path fill="none" stroke="#191970" d="M999.9133,-399.4408C1039.1959,-388.8789 1100.5019,-372.3957 1139.0363,-362.0351"/>
<polygon fill="#191970" stroke="#191970" points="1140.041,-365.3893 1148.7893,-359.4128 1138.2235,-358.6294 1140.041,-365.3893"/>
</g>
<!-- Node37 -->
<g id="node37" class="node">
<title>Node37</title>
<polygon fill="none" stroke="#bfbfbf" points="814,-342.5 814,-362.5 863,-362.5 863,-342.5 814,-342.5"/>
<text text-anchor="middle" x="838.5" y="-349.5" font-family="FreeSans" font-size="10.00" fill="#000000">thread</text>
</g>
<!-- Node35&#45;&gt;Node37 -->
<g id="edge54" class="edge">
<title>Node35&#45;&gt;Node37</title>
<path fill="none" stroke="#191970" d="M940.6167,-399.4408C920.9938,-390.4205 891.975,-377.0813 869.8819,-366.9255"/>
<polygon fill="#191970" stroke="#191970" points="871.1295,-363.647 860.5816,-362.6504 868.2058,-370.0072 871.1295,-363.647"/>
</g>
<!-- Node38 -->
<g id="node38" class="node">
<title>Node38</title>
<polygon fill="none" stroke="#bfbfbf" points="881,-342.5 881,-362.5 990,-362.5 990,-342.5 881,-342.5"/>
<text text-anchor="middle" x="935.5" y="-349.5" font-family="FreeSans" font-size="10.00" fill="#000000">condition_variable</text>
</g>
<!-- Node35&#45;&gt;Node38 -->
<g id="edge56" class="edge">
<title>Node35&#45;&gt;Node38</title>
<path fill="none" stroke="#191970" d="M957.6729,-399.3095C954.0638,-391.6903 949.0206,-381.0435 944.6556,-371.8285"/>
<polygon fill="#191970" stroke="#191970" points="947.7293,-370.1413 940.2853,-362.6022 941.4031,-373.1379 947.7293,-370.1413"/>
</g>
<!-- Node39 -->
<g id="node39" class="node">
<title>Node39</title>
<polygon fill="none" stroke="#bfbfbf" points="1008.5,-342.5 1008.5,-362.5 1054.5,-362.5 1054.5,-342.5 1008.5,-342.5"/>
<text text-anchor="middle" x="1031.5" y="-349.5" font-family="FreeSans" font-size="10.00" fill="#000000">future</text>
</g>
<!-- Node35&#45;&gt;Node39 -->
<g id="edge57" class="edge">
<title>Node35&#45;&gt;Node39</title>
<path fill="none" stroke="#191970" d="M974.8358,-399.3095C984.9422,-390.9608 999.449,-378.9769 1011.2541,-369.2249"/>
<polygon fill="#191970" stroke="#191970" points="1013.7904,-371.6695 1019.271,-362.6022 1009.3322,-366.2727 1013.7904,-371.6695"/>
</g>
<!-- Node40&#45;&gt;Node3 -->
<g id="edge66" class="edge">
<title>Node40&#45;&gt;Node3</title>
<path fill="none" stroke="#191970" d="M842.0646,-456.4832C781.6506,-435.9244 643.6386,-388.9591 575.7226,-365.8474"/>
<polygon fill="#191970" stroke="#191970" points="576.8229,-362.5248 566.2284,-362.6165 574.5677,-369.1516 576.8229,-362.5248"/>
</g>
<!-- Node40&#45;&gt;Node30 -->
<g id="edge64" class="edge">
<title>Node40&#45;&gt;Node30</title>
<path fill="none" stroke="#191970" d="M862.6257,-456.3833C845.6932,-437.0802 808.571,-394.7609 787.3013,-370.5135"/>
<polygon fill="#191970" stroke="#191970" points="789.7238,-367.9675 780.4982,-362.7579 784.4614,-372.5836 789.7238,-367.9675"/>
</g>
<!-- Node40&#45;&gt;Node35 -->
<g id="edge65" class="edge">
<title>Node40&#45;&gt;Node35</title>
<path fill="none" stroke="#191970" d="M887.769,-456.3095C901.6152,-447.6366 921.7245,-435.0407 937.596,-425.0992"/>
<polygon fill="#191970" stroke="#191970" points="939.7551,-427.8768 946.3719,-419.6022 936.0392,-421.9445 939.7551,-427.8768"/>
</g>
</g>
</svg>
