<?xml version="1.0" encoding="UTF-8" standalone="no"?>
<!DOCTYPE svg PUBLIC "-//W3C//DTD SVG 1.1//EN"
 "http://www.w3.org/Graphics/SVG/1.1/DTD/svg11.dtd">
<!-- Generated by graphviz version 2.40.1 (20161225.0304)
 -->
<!-- Title: G4VScoreColorMap::SetMinMax Pages: 1 -->
<svg width="379pt" height="209pt"
 viewBox="0.00 0.00 379.00 209.00" xmlns="http://www.w3.org/2000/svg" xmlns:xlink="http://www.w3.org/1999/xlink">
<g id="graph0" class="graph" transform="scale(1 1) rotate(0) translate(4 205)">
<title>G4VScoreColorMap::SetMinMax</title>
<!-- Node1 -->
<g id="node1" class="node">
<title>Node1</title>
<polygon fill="#bfbfbf" stroke="#000000" points="0,-96.5 0,-116.5 176,-116.5 176,-96.5 0,-96.5"/>
<text text-anchor="middle" x="88" y="-103.5" font-family="FreeSans" font-size="10.00" fill="#000000">G4VScoreColorMap::SetMinMax</text>
</g>
<!-- Node2 -->
<g id="node2" class="node">
<title>Node2</title>
<g id="a_node2"><a xlink:href="../../d2/d9c/classG4ScoringCylinder.html#ae884d624718bb3ce0d38d9da013212c0" target="_top" xlink:title="G4ScoringCylinder::Draw">
<polygon fill="none" stroke="#000000" points="219.5,-180.5 219.5,-200.5 363.5,-200.5 363.5,-180.5 219.5,-180.5"/>
<text text-anchor="middle" x="291.5" y="-187.5" font-family="FreeSans" font-size="10.00" fill="#000000">G4ScoringCylinder::Draw</text>
</a>
</g>
</g>
<!-- Node1&#45;&gt;Node2 -->
<g id="edge1" class="edge">
<title>Node1&#45;&gt;Node2</title>
<path fill="none" stroke="#191970" d="M112.8693,-121.9016C137.315,-136.4628 176.0779,-158.0319 212,-171.5 221.1684,-174.9375 231.1699,-177.9022 240.8894,-180.3994"/>
<polygon fill="#191970" stroke="#191970" points="114.6079,-118.8629 104.2371,-116.6955 110.9927,-124.8571 114.6079,-118.8629"/>
</g>
<!-- Node3 -->
<g id="node3" class="node">
<title>Node3</title>
<g id="a_node3"><a xlink:href="../../dc/da1/classG4ScoringBox.html#a372650a9284cc4295a783d3cf18c2d9b" target="_top" xlink:title="G4ScoringBox::Draw">
<polygon fill="none" stroke="#000000" points="231,-141.5 231,-161.5 352,-161.5 352,-141.5 231,-141.5"/>
<text text-anchor="middle" x="291.5" y="-148.5" font-family="FreeSans" font-size="10.00" fill="#000000">G4ScoringBox::Draw</text>
</a>
</g>
</g>
<!-- Node1&#45;&gt;Node3 -->
<g id="edge2" class="edge">
<title>Node1&#45;&gt;Node3</title>
<path fill="none" stroke="#191970" d="M143.586,-118.7917C175.8273,-125.9213 215.9163,-134.7862 246.2227,-141.4878"/>
<polygon fill="#191970" stroke="#191970" points="143.9359,-115.2846 133.4161,-116.5429 142.4245,-122.1195 143.9359,-115.2846"/>
</g>
<!-- Node4 -->
<g id="node4" class="node">
<title>Node4</title>
<g id="a_node4"><a xlink:href="../../d2/d9c/classG4ScoringCylinder.html#a60493628d399478181ea80ff3ff97d95" target="_top" xlink:title="G4ScoringCylinder::\lDrawColumn">
<polygon fill="none" stroke="#000000" points="233.5,-90.5 233.5,-122.5 349.5,-122.5 349.5,-90.5 233.5,-90.5"/>
<text text-anchor="start" x="241.5" y="-109.5" font-family="FreeSans" font-size="10.00" fill="#000000">G4ScoringCylinder::</text>
<text text-anchor="middle" x="291.5" y="-97.5" font-family="FreeSans" font-size="10.00" fill="#000000">DrawColumn</text>
</a>
</g>
</g>
<!-- Node1&#45;&gt;Node4 -->
<g id="edge3" class="edge">
<title>Node1&#45;&gt;Node4</title>
<path fill="none" stroke="#191970" d="M186.0892,-106.5C202.2223,-106.5 218.4782,-106.5 233.2319,-106.5"/>
<polygon fill="#191970" stroke="#191970" points="186.0745,-103.0001 176.0745,-106.5 186.0745,-110.0001 186.0745,-103.0001"/>
</g>
<!-- Node5 -->
<g id="node5" class="node">
<title>Node5</title>
<g id="a_node5"><a xlink:href="../../dc/da1/classG4ScoringBox.html#abb34edfe864d0b79b472be896e9572aa" target="_top" xlink:title="G4ScoringBox::DrawColumn">
<polygon fill="none" stroke="#000000" points="212,-51.5 212,-71.5 371,-71.5 371,-51.5 212,-51.5"/>
<text text-anchor="middle" x="291.5" y="-58.5" font-family="FreeSans" font-size="10.00" fill="#000000">G4ScoringBox::DrawColumn</text>
</a>
</g>
</g>
<!-- Node1&#45;&gt;Node5 -->
<g id="edge4" class="edge">
<title>Node1&#45;&gt;Node5</title>
<path fill="none" stroke="#191970" d="M143.586,-94.2083C175.8273,-87.0787 215.9163,-78.2138 246.2227,-71.5122"/>
<polygon fill="#191970" stroke="#191970" points="142.4245,-90.8805 133.4161,-96.4571 143.9359,-97.7154 142.4245,-90.8805"/>
</g>
<!-- Node6 -->
<g id="node6" class="node">
<title>Node6</title>
<g id="a_node6"><a xlink:href="../../d9/d02/classG4ScoringMessenger.html#af5d9ad44f9f5e19682527349572cec98" target="_top" xlink:title="G4ScoringMessenger\l::SetNewValue">
<polygon fill="none" stroke="#000000" points="229.5,-.5 229.5,-32.5 353.5,-32.5 353.5,-.5 229.5,-.5"/>
<text text-anchor="start" x="237.5" y="-19.5" font-family="FreeSans" font-size="10.00" fill="#000000">G4ScoringMessenger</text>
<text text-anchor="middle" x="291.5" y="-7.5" font-family="FreeSans" font-size="10.00" fill="#000000">::SetNewValue</text>
</a>
</g>
</g>
<!-- Node1&#45;&gt;Node6 -->
<g id="edge5" class="edge">
<title>Node1&#45;&gt;Node6</title>
<path fill="none" stroke="#191970" d="M113.9916,-91.5267C138.6859,-77.6785 177.1221,-57.0932 212,-42.5 220.4396,-38.9688 229.54,-35.601 238.4648,-32.5301"/>
<polygon fill="#191970" stroke="#191970" points="112.218,-88.5088 105.2362,-96.4778 115.6637,-94.602 112.218,-88.5088"/>
</g>
</g>
</svg>
