<?xml version="1.0" encoding="UTF-8" standalone="no"?>
<!DOCTYPE svg PUBLIC "-//W3C//DTD SVG 1.1//EN"
 "http://www.w3.org/Graphics/SVG/1.1/DTD/svg11.dtd">
<!-- Generated by graphviz version 2.40.1 (20161225.0304)
 -->
<!-- Title: geant4/tree/geant4&#45;10.6&#45;release/source/processes/electromagnetic/lowenergy/src/G4PenelopeIonisationModel.cc Pages: 1 -->
<svg width="3916pt" height="590pt"
 viewBox="0.00 0.00 3916.00 590.00" xmlns="http://www.w3.org/2000/svg" xmlns:xlink="http://www.w3.org/1999/xlink">
<g id="graph0" class="graph" transform="scale(1 1) rotate(0) translate(4 586)">
<title>geant4/tree/geant4&#45;10.6&#45;release/source/processes/electromagnetic/lowenergy/src/G4PenelopeIonisationModel.cc</title>
<!-- Node1 -->
<g id="node1" class="node">
<title>Node1</title>
<polygon fill="#bfbfbf" stroke="#000000" points="1399,-513.5 1399,-581.5 1603,-581.5 1603,-513.5 1399,-513.5"/>
<text text-anchor="start" x="1407" y="-568.5" font-family="FreeSans" font-size="10.00" fill="#000000">geant4/tree/geant4</text>
<text text-anchor="start" x="1407" y="-556.5" font-family="FreeSans" font-size="10.00" fill="#000000">&#45;10.6&#45;release/source</text>
<text text-anchor="start" x="1407" y="-544.5" font-family="FreeSans" font-size="10.00" fill="#000000">/processes/electromagnetic</text>
<text text-anchor="start" x="1407" y="-532.5" font-family="FreeSans" font-size="10.00" fill="#000000">/lowenergy/src/G4PenelopeIonisation</text>
<text text-anchor="middle" x="1501" y="-520.5" font-family="FreeSans" font-size="10.00" fill="#000000">Model.cc</text>
</g>
<!-- Node2 -->
<g id="node2" class="node">
<title>Node2</title>
<g id="a_node2"><a xlink:href="../../db/db7/G4PenelopeIonisationModel_8hh.html" target="_top" xlink:title="G4PenelopeIonisationModel.hh">
<polygon fill="none" stroke="#000000" points="2363.5,-456.5 2363.5,-476.5 2536.5,-476.5 2536.5,-456.5 2363.5,-456.5"/>
<text text-anchor="middle" x="2450" y="-463.5" font-family="FreeSans" font-size="10.00" fill="#000000">G4PenelopeIonisationModel.hh</text>
</a>
</g>
</g>
<!-- Node1&#45;&gt;Node2 -->
<g id="edge1" class="edge">
<title>Node1&#45;&gt;Node2</title>
<path fill="none" stroke="#191970" d="M1603.0101,-538.7931C1787.3033,-523.0632 2173.3036,-490.1169 2353.4943,-474.7371"/>
<polygon fill="#191970" stroke="#191970" points="2353.8245,-478.2217 2363.4906,-473.8838 2353.2291,-471.247 2353.8245,-478.2217"/>
</g>
<!-- Node6 -->
<g id="node6" class="node">
<title>Node6</title>
<g id="a_node6"><a xlink:href="../../d3/dab/G4DynamicParticle_8hh.html" target="_top" xlink:title="G4DynamicParticle.hh">
<polygon fill="none" stroke="#000000" points="1191,-228.5 1191,-248.5 1319,-248.5 1319,-228.5 1191,-228.5"/>
<text text-anchor="middle" x="1255" y="-235.5" font-family="FreeSans" font-size="10.00" fill="#000000">G4DynamicParticle.hh</text>
</a>
</g>
</g>
<!-- Node1&#45;&gt;Node6 -->
<g id="edge79" class="edge">
<title>Node1&#45;&gt;Node6</title>
<path fill="none" stroke="#191970" d="M1398.811,-531.3247C1331.2228,-514.1356 1255,-479.2814 1255,-409.5 1255,-409.5 1255,-409.5 1255,-352.5 1255,-319.6536 1255,-281.4837 1255,-258.697"/>
<polygon fill="#191970" stroke="#191970" points="1258.5001,-258.5648 1255,-248.5648 1251.5001,-258.5648 1258.5001,-258.5648"/>
</g>
<!-- Node10 -->
<g id="node10" class="node">
<title>Node10</title>
<g id="a_node10"><a xlink:href="../../da/d12/G4ParticleDefinition_8hh.html" target="_top" xlink:title="G4ParticleDefinition.hh">
<polygon fill="none" stroke="#000000" points="552.5,-171.5 552.5,-191.5 685.5,-191.5 685.5,-171.5 552.5,-171.5"/>
<text text-anchor="middle" x="619" y="-178.5" font-family="FreeSans" font-size="10.00" fill="#000000">G4ParticleDefinition.hh</text>
</a>
</g>
</g>
<!-- Node1&#45;&gt;Node10 -->
<g id="edge76" class="edge">
<title>Node1&#45;&gt;Node10</title>
<path fill="none" stroke="#191970" d="M1398.9958,-538.9975C1195.6127,-520.6676 759,-473.8268 759,-409.5 759,-409.5 759,-409.5 759,-295.5 759,-244.1381 701.6397,-211.8211 660.3507,-195.2119"/>
<polygon fill="#191970" stroke="#191970" points="661.3578,-191.8491 650.7682,-191.5184 658.8403,-198.3807 661.3578,-191.8491"/>
</g>
<!-- Node13 -->
<g id="node13" class="node">
<title>Node13</title>
<g id="a_node13"><a xlink:href="../../d8/d7b/G4AutoLock_8hh.html" target="_top" xlink:title="G4AutoLock.hh">
<polygon fill="none" stroke="#ff0000" points="0,-57.5 0,-77.5 92,-77.5 92,-57.5 0,-57.5"/>
<text text-anchor="middle" x="46" y="-64.5" font-family="FreeSans" font-size="10.00" fill="#000000">G4AutoLock.hh</text>
</a>
</g>
</g>
<!-- Node1&#45;&gt;Node13 -->
<g id="edge147" class="edge">
<title>Node1&#45;&gt;Node13</title>
<path fill="none" stroke="#191970" d="M1398.779,-544.6499C1103.2571,-536.0672 261.2155,-509.0724 141,-477 76.952,-459.9126 8,-475.7882 8,-409.5 8,-409.5 8,-409.5 8,-181.5 8,-146.7644 24.0743,-108.9893 35.3138,-86.8219"/>
<polygon fill="#191970" stroke="#191970" points="38.5008,-88.2812 40.0625,-77.8021 32.3068,-85.0201 38.5008,-88.2812"/>
</g>
<!-- Node21 -->
<g id="node21" class="node">
<title>Node21</title>
<g id="a_node21"><a xlink:href="../../dd/dff/G4MaterialCutsCouple_8hh.html" target="_top" xlink:title="G4MaterialCutsCouple.hh">
<polygon fill="none" stroke="#000000" points="1705.5,-285.5 1705.5,-305.5 1850.5,-305.5 1850.5,-285.5 1705.5,-285.5"/>
<text text-anchor="middle" x="1778" y="-292.5" font-family="FreeSans" font-size="10.00" fill="#000000">G4MaterialCutsCouple.hh</text>
</a>
</g>
</g>
<!-- Node1&#45;&gt;Node21 -->
<g id="edge77" class="edge">
<title>Node1&#45;&gt;Node21</title>
<path fill="none" stroke="#191970" d="M1555.4041,-513.3311C1568.5249,-502.9877 1581.4854,-490.691 1591,-477 1626.9356,-425.2905 1589.5623,-386.6153 1634,-342 1646.6975,-329.2518 1687.0344,-316.8329 1721.7972,-308.0408"/>
<polygon fill="#191970" stroke="#191970" points="1723.0278,-311.3421 1731.8969,-305.5463 1721.3493,-304.5463 1723.0278,-311.3421"/>
</g>
<!-- Node26 -->
<g id="node26" class="node">
<title>Node26</title>
<g id="a_node26"><a xlink:href="../../d4/d30/G4EmParameters_8hh.html" target="_top" xlink:title="G4EmParameters.hh">
<polygon fill="none" stroke="#ff0000" points="2660,-285.5 2660,-305.5 2780,-305.5 2780,-285.5 2660,-285.5"/>
<text text-anchor="middle" x="2720" y="-292.5" font-family="FreeSans" font-size="10.00" fill="#000000">G4EmParameters.hh</text>
</a>
</g>
</g>
<!-- Node1&#45;&gt;Node26 -->
<g id="edge146" class="edge">
<title>Node1&#45;&gt;Node26</title>
<path fill="none" stroke="#191970" d="M1603.1341,-545.857C1830.1815,-541.3558 2370.5755,-525.7166 2546,-477 2599.4355,-462.1606 2617.9022,-459.3309 2657,-420 2687.0203,-389.8007 2705.5174,-342.3743 2714.1619,-315.6171"/>
<polygon fill="#191970" stroke="#191970" points="2717.5766,-316.4209 2717.1783,-305.8336 2710.8873,-314.3585 2717.5766,-316.4209"/>
</g>
<!-- Node27 -->
<g id="node27" class="node">
<title>Node27</title>
<g id="a_node27"><a xlink:href="../../df/db5/G4AtomicShell_8hh.html" target="_top" xlink:title="G4AtomicShell.hh">
<polygon fill="none" stroke="#000000" points="3670,-228.5 3670,-248.5 3776,-248.5 3776,-228.5 3670,-228.5"/>
<text text-anchor="middle" x="3723" y="-235.5" font-family="FreeSans" font-size="10.00" fill="#000000">G4AtomicShell.hh</text>
</a>
</g>
</g>
<!-- Node1&#45;&gt;Node27 -->
<g id="edge97" class="edge">
<title>Node1&#45;&gt;Node27</title>
<path fill="none" stroke="#191970" d="M1603.2867,-545.8772C2012.2742,-538.7272 3508,-505.9831 3508,-409.5 3508,-409.5 3508,-409.5 3508,-352.5 3508,-283.121 3596.4674,-255.842 3659.9049,-245.1995"/>
<polygon fill="#191970" stroke="#191970" points="3660.5213,-248.6457 3669.8539,-243.6304 3659.4307,-241.7311 3660.5213,-248.6457"/>
</g>
<!-- Node28 -->
<g id="node28" class="node">
<title>Node28</title>
<g id="a_node28"><a xlink:href="../../dd/d0a/G4ProductionCutsTable_8hh.html" target="_top" xlink:title="G4ProductionCutsTable.hh">
<polygon fill="none" stroke="#000000" points="2431.5,-342.5 2431.5,-362.5 2580.5,-362.5 2580.5,-342.5 2431.5,-342.5"/>
<text text-anchor="middle" x="2506" y="-349.5" font-family="FreeSans" font-size="10.00" fill="#000000">G4ProductionCutsTable.hh</text>
</a>
</g>
</g>
<!-- Node1&#45;&gt;Node28 -->
<g id="edge78" class="edge">
<title>Node1&#45;&gt;Node28</title>
<path fill="none" stroke="#191970" d="M1603.3621,-527.6387C1811.0952,-487.3323 2276.6447,-397.0018 2444.328,-364.4662"/>
<polygon fill="#191970" stroke="#191970" points="2445.0767,-367.8863 2454.2269,-362.5455 2443.7433,-361.0145 2445.0767,-367.8863"/>
</g>
<!-- Node32 -->
<g id="node32" class="node">
<title>Node32</title>
<g id="a_node32"><a xlink:href="../../d4/d2b/G4PhysicalConstants_8hh.html" target="_top" xlink:title="G4PhysicalConstants.hh">
<polygon fill="none" stroke="#000000" points="412,-456.5 412,-476.5 550,-476.5 550,-456.5 412,-456.5"/>
<text text-anchor="middle" x="481" y="-463.5" font-family="FreeSans" font-size="10.00" fill="#000000">G4PhysicalConstants.hh</text>
</a>
</g>
</g>
<!-- Node1&#45;&gt;Node32 -->
<g id="edge72" class="edge">
<title>Node1&#45;&gt;Node32</title>
<path fill="none" stroke="#191970" d="M1398.9993,-539.3999C1195.6019,-523.2478 743.3971,-487.3374 560.2808,-472.7958"/>
<polygon fill="#191970" stroke="#191970" points="560.4329,-469.297 550.1872,-471.9943 559.8787,-476.275 560.4329,-469.297"/>
</g>
<!-- Node33 -->
<g id="node33" class="node">
<title>Node33</title>
<g id="a_node33"><a xlink:href="../../da/d91/G4SystemOfUnits_8hh.html" target="_top" xlink:title="G4SystemOfUnits.hh">
<polygon fill="none" stroke="#000000" points="38.5,-399.5 38.5,-419.5 159.5,-419.5 159.5,-399.5 38.5,-399.5"/>
<text text-anchor="middle" x="99" y="-406.5" font-family="FreeSans" font-size="10.00" fill="#000000">G4SystemOfUnits.hh</text>
</a>
</g>
</g>
<!-- Node1&#45;&gt;Node33 -->
<g id="edge74" class="edge">
<title>Node1&#45;&gt;Node33</title>
<path fill="none" stroke="#191970" d="M1398.8041,-545.8247C1108.0752,-540.532 290.1027,-521.7946 178,-477 151.7517,-466.5116 128.0397,-443.5755 113.5923,-427.3584"/>
<polygon fill="#191970" stroke="#191970" points="116.0898,-424.8945 106.9174,-419.5919 110.781,-429.4571 116.0898,-424.8945"/>
</g>
<!-- Node34 -->
<g id="node34" class="node">
<title>Node34</title>
<g id="a_node34"><a xlink:href="../../dc/dec/G4AtomicTransitionManager_8hh.html" target="_top" xlink:title="G4AtomicTransitionManager.hh">
<polygon fill="none" stroke="#000000" points="2964,-285.5 2964,-305.5 3138,-305.5 3138,-285.5 2964,-285.5"/>
<text text-anchor="middle" x="3051" y="-292.5" font-family="FreeSans" font-size="10.00" fill="#000000">G4AtomicTransitionManager.hh</text>
</a>
</g>
</g>
<!-- Node1&#45;&gt;Node34 -->
<g id="edge80" class="edge">
<title>Node1&#45;&gt;Node34</title>
<path fill="none" stroke="#191970" d="M1603.171,-544.078C1836.7742,-535.7385 2404.201,-512.4182 2592,-477 2756.0907,-446.0531 2799.547,-435.4386 2950,-363 2979.6296,-348.7342 3010.6348,-326.8051 3030.3477,-311.8403"/>
<polygon fill="#191970" stroke="#191970" points="3032.5303,-314.5771 3038.3162,-305.7017 3028.2583,-309.0318 3032.5303,-314.5771"/>
</g>
<!-- Node38 -->
<g id="node38" class="node">
<title>Node38</title>
<g id="a_node38"><a xlink:href="../../d1/d48/G4Gamma_8hh.html" target="_top" xlink:title="G4Gamma.hh">
<polygon fill="none" stroke="#000000" points="3794,-228.5 3794,-248.5 3880,-248.5 3880,-228.5 3794,-228.5"/>
<text text-anchor="middle" x="3837" y="-235.5" font-family="FreeSans" font-size="10.00" fill="#000000">G4Gamma.hh</text>
</a>
</g>
</g>
<!-- Node1&#45;&gt;Node38 -->
<g id="edge98" class="edge">
<title>Node1&#45;&gt;Node38</title>
<path fill="none" stroke="#191970" d="M1603.0807,-546.788C2048.419,-543.024 3799,-521.1286 3799,-409.5 3799,-409.5 3799,-409.5 3799,-352.5 3799,-317.7644 3815.0743,-279.9893 3826.3138,-257.8219"/>
<polygon fill="#191970" stroke="#191970" points="3829.5008,-259.2812 3831.0625,-248.8021 3823.3068,-256.0201 3829.5008,-259.2812"/>
</g>
<!-- Node39 -->
<g id="node39" class="node">
<title>Node39</title>
<g id="a_node39"><a xlink:href="../../d6/d69/G4Electron_8hh.html" target="_top" xlink:title="G4Electron.hh">
<polygon fill="none" stroke="#000000" points="116,-228.5 116,-248.5 204,-248.5 204,-228.5 116,-228.5"/>
<text text-anchor="middle" x="160" y="-235.5" font-family="FreeSans" font-size="10.00" fill="#000000">G4Electron.hh</text>
</a>
</g>
</g>
<!-- Node1&#45;&gt;Node39 -->
<g id="edge102" class="edge">
<title>Node1&#45;&gt;Node39</title>
<path fill="none" stroke="#191970" d="M1398.6336,-543.998C1163.8519,-535.4685 592.289,-511.7381 403,-477 306.1578,-459.2276 192,-507.9595 192,-409.5 192,-409.5 192,-409.5 192,-352.5 192,-318.25 178.4453,-280.2935 168.9796,-257.9629"/>
<polygon fill="#191970" stroke="#191970" points="172.0928,-256.3479 164.8601,-248.6059 165.6862,-259.1685 172.0928,-256.3479"/>
</g>
<!-- Node40 -->
<g id="node40" class="node">
<title>Node40</title>
<g id="a_node40"><a xlink:href="../../d9/d5f/G4Positron_8hh.html" target="_top" xlink:title="G4Positron.hh">
<polygon fill="none" stroke="#000000" points="527.5,-228.5 527.5,-248.5 614.5,-248.5 614.5,-228.5 527.5,-228.5"/>
<text text-anchor="middle" x="571" y="-235.5" font-family="FreeSans" font-size="10.00" fill="#000000">G4Positron.hh</text>
</a>
</g>
</g>
<!-- Node1&#45;&gt;Node40 -->
<g id="edge106" class="edge">
<title>Node1&#45;&gt;Node40</title>
<path fill="none" stroke="#191970" d="M1398.954,-544.2938C1221.2423,-537.6666 862.6647,-519.3787 745,-477 694.8965,-458.9545 646,-462.7541 646,-409.5 646,-409.5 646,-409.5 646,-352.5 646,-312.6218 613.5739,-275.8983 591.3641,-255.4221"/>
<polygon fill="#191970" stroke="#191970" points="593.5244,-252.6597 583.7227,-248.6376 588.8769,-257.8943 593.5244,-252.6597"/>
</g>
<!-- Node41 -->
<g id="node41" class="node">
<title>Node41</title>
<g id="a_node41"><a xlink:href="../../d9/d4a/G4PenelopeOscillatorManager_8hh.html" target="_top" xlink:title="G4PenelopeOscillatorManager.hh">
<polygon fill="none" stroke="#000000" points="1515,-228.5 1515,-248.5 1699,-248.5 1699,-228.5 1515,-228.5"/>
<text text-anchor="middle" x="1607" y="-235.5" font-family="FreeSans" font-size="10.00" fill="#000000">G4PenelopeOscillatorManager.hh</text>
</a>
</g>
</g>
<!-- Node1&#45;&gt;Node41 -->
<g id="edge110" class="edge">
<title>Node1&#45;&gt;Node41</title>
<path fill="none" stroke="#191970" d="M1398.828,-520.8223C1346.2259,-500.2759 1293,-465.6202 1293,-409.5 1293,-409.5 1293,-409.5 1293,-352.5 1293,-301.7894 1439.5277,-267.1634 1532.392,-250.3107"/>
<polygon fill="#191970" stroke="#191970" points="1533.09,-253.7415 1542.3197,-248.5394 1531.8604,-246.8503 1533.09,-253.7415"/>
</g>
<!-- Node42 -->
<g id="node42" class="node">
<title>Node42</title>
<g id="a_node42"><a xlink:href="../../dd/d8d/G4PenelopeOscillator_8hh.html" target="_top" xlink:title="G4PenelopeOscillator.hh">
<polygon fill="none" stroke="#000000" points="856,-171.5 856,-191.5 996,-191.5 996,-171.5 856,-171.5"/>
<text text-anchor="middle" x="926" y="-178.5" font-family="FreeSans" font-size="10.00" fill="#000000">G4PenelopeOscillator.hh</text>
</a>
</g>
</g>
<!-- Node1&#45;&gt;Node42 -->
<g id="edge116" class="edge">
<title>Node1&#45;&gt;Node42</title>
<path fill="none" stroke="#191970" d="M1398.8639,-543.2939C1236.3345,-533.7809 937,-503.5008 937,-409.5 937,-409.5 937,-409.5 937,-295.5 937,-262.501 932.377,-224.3764 929.125,-201.6404"/>
<polygon fill="#191970" stroke="#191970" points="932.5551,-200.9103 927.6231,-191.5334 925.6311,-201.9393 932.5551,-200.9103"/>
</g>
<!-- Node43 -->
<g id="node43" class="node">
<title>Node43</title>
<g id="a_node43"><a xlink:href="../../d5/d02/G4PenelopeCrossSection_8hh.html" target="_top" xlink:title="G4PenelopeCrossSection.hh">
<polygon fill="none" stroke="#000000" points="1023,-456.5 1023,-476.5 1181,-476.5 1181,-456.5 1023,-456.5"/>
<text text-anchor="middle" x="1102" y="-463.5" font-family="FreeSans" font-size="10.00" fill="#000000">G4PenelopeCrossSection.hh</text>
</a>
</g>
</g>
<!-- Node1&#45;&gt;Node43 -->
<g id="edge117" class="edge">
<title>Node1&#45;&gt;Node43</title>
<path fill="none" stroke="#191970" d="M1398.7657,-526.7457C1323.6359,-511.4938 1224.1399,-491.2953 1161.5918,-478.5976"/>
<polygon fill="#191970" stroke="#191970" points="1161.9962,-475.1084 1151.4997,-476.5488 1160.6035,-481.9684 1161.9962,-475.1084"/>
</g>
<!-- Node44 -->
<g id="node44" class="node">
<title>Node44</title>
<g id="a_node44"><a xlink:href="../../d2/d11/G4PhysicsFreeVector_8hh.html" target="_top" xlink:title="G4PhysicsFreeVector.hh">
<polygon fill="none" stroke="#000000" points="1907,-228.5 1907,-248.5 2043,-248.5 2043,-228.5 1907,-228.5"/>
<text text-anchor="middle" x="1975" y="-235.5" font-family="FreeSans" font-size="10.00" fill="#000000">G4PhysicsFreeVector.hh</text>
</a>
</g>
</g>
<!-- Node1&#45;&gt;Node44 -->
<g id="edge119" class="edge">
<title>Node1&#45;&gt;Node44</title>
<path fill="none" stroke="#191970" d="M1532.3509,-513.4353C1553.2859,-487.0886 1577,-448.6124 1577,-409.5 1577,-409.5 1577,-409.5 1577,-352.5 1577,-291.3081 1639.2919,-305.3525 1697,-285 1732.9029,-272.3377 1827.8622,-257.8895 1896.825,-248.5042"/>
<polygon fill="#191970" stroke="#191970" points="1897.3595,-251.9639 1906.8011,-247.157 1896.4226,-245.0268 1897.3595,-251.9639"/>
</g>
<!-- Node46 -->
<g id="node46" class="node">
<title>Node46</title>
<g id="a_node46"><a xlink:href="../../d5/d8a/G4PhysicsLogVector_8hh.html" target="_top" xlink:title="G4PhysicsLogVector.hh">
<polygon fill="none" stroke="#000000" points="1717.5,-228.5 1717.5,-248.5 1850.5,-248.5 1850.5,-228.5 1717.5,-228.5"/>
<text text-anchor="middle" x="1784" y="-235.5" font-family="FreeSans" font-size="10.00" fill="#000000">G4PhysicsLogVector.hh</text>
</a>
</g>
</g>
<!-- Node1&#45;&gt;Node46 -->
<g id="edge127" class="edge">
<title>Node1&#45;&gt;Node46</title>
<path fill="none" stroke="#191970" d="M1501,-513.4727C1501,-485.5415 1501,-444.9583 1501,-409.5 1501,-409.5 1501,-409.5 1501,-352.5 1501,-311.7654 1527.6015,-305.1558 1563,-285 1587.3669,-271.1256 1653.4939,-258.2392 1707.1103,-249.568"/>
<polygon fill="#191970" stroke="#191970" points="1707.9811,-252.9735 1717.3065,-247.9448 1706.8806,-246.0605 1707.9811,-252.9735"/>
</g>
<!-- Node47 -->
<g id="node47" class="node">
<title>Node47</title>
<g id="a_node47"><a xlink:href="../../db/d97/G4LossTableManager_8hh.html" target="_top" xlink:title="G4LossTableManager.hh">
<polygon fill="none" stroke="#000000" points="1992,-399.5 1992,-419.5 2130,-419.5 2130,-399.5 1992,-399.5"/>
<text text-anchor="middle" x="2061" y="-406.5" font-family="FreeSans" font-size="10.00" fill="#000000">G4LossTableManager.hh</text>
</a>
</g>
</g>
<!-- Node1&#45;&gt;Node47 -->
<g id="edge130" class="edge">
<title>Node1&#45;&gt;Node47</title>
<path fill="none" stroke="#191970" d="M1603.0615,-522.3491C1723.4756,-492.6757 1918.8569,-444.5281 2010.5097,-421.9423"/>
<polygon fill="#191970" stroke="#191970" points="2011.4984,-425.3034 2020.3704,-419.5123 2009.8234,-418.5067 2011.4984,-425.3034"/>
</g>
<!-- Node50 -->
<g id="node50" class="node">
<title>Node50</title>
<g id="a_node50"><a xlink:href="../../d7/d76/G4PenelopeIonisationXSHandler_8hh.html" target="_top" xlink:title="G4PenelopeIonisationXSHandler.hh">
<polygon fill="none" stroke="#ff0000" points="3208,-228.5 3208,-248.5 3402,-248.5 3402,-228.5 3208,-228.5"/>
<text text-anchor="middle" x="3305" y="-235.5" font-family="FreeSans" font-size="10.00" fill="#000000">G4PenelopeIonisationXSHandler.hh</text>
</a>
</g>
</g>
<!-- Node1&#45;&gt;Node50 -->
<g id="edge142" class="edge">
<title>Node1&#45;&gt;Node50</title>
<path fill="none" stroke="#191970" d="M1603.1471,-544.8426C1977.6894,-534.4354 3254,-492.8563 3254,-409.5 3254,-409.5 3254,-409.5 3254,-352.5 3254,-316.0743 3275.9639,-278.3617 3291.064,-256.7384"/>
<polygon fill="#191970" stroke="#191970" points="3293.9956,-258.6577 3297.0313,-248.507 3288.3281,-254.5491 3293.9956,-258.6577"/>
</g>
<!-- Node3 -->
<g id="node3" class="node">
<title>Node3</title>
<g id="a_node3"><a xlink:href="../../da/d46/globals_8hh.html" target="_top" xlink:title="globals.hh">
<polygon fill="none" stroke="#ff0000" points="2075,-57.5 2075,-77.5 2143,-77.5 2143,-57.5 2075,-57.5"/>
<text text-anchor="middle" x="2109" y="-64.5" font-family="FreeSans" font-size="10.00" fill="#000000">globals.hh</text>
</a>
</g>
</g>
<!-- Node2&#45;&gt;Node3 -->
<g id="edge2" class="edge">
<title>Node2&#45;&gt;Node3</title>
<path fill="none" stroke="#191970" d="M2534.6152,-456.4853C2619.8565,-441.0724 2744.896,-402.365 2789,-306 2825.6507,-225.9202 2813.6689,-162.2591 2740,-114 2691.1939,-82.0281 2288.7663,-71.0965 2153.3047,-68.3031"/>
<polygon fill="#191970" stroke="#191970" points="2153.3405,-64.8032 2143.2721,-68.1011 2153.1996,-71.8018 2153.3405,-64.8032"/>
</g>
<!-- Node5 -->
<g id="node5" class="node">
<title>Node5</title>
<g id="a_node5"><a xlink:href="../../d0/d59/G4VEmModel_8hh.html" target="_top" xlink:title="G4VEmModel.hh">
<polygon fill="none" stroke="#ff0000" points="1817,-342.5 1817,-362.5 1917,-362.5 1917,-342.5 1817,-342.5"/>
<text text-anchor="middle" x="1867" y="-349.5" font-family="FreeSans" font-size="10.00" fill="#000000">G4VEmModel.hh</text>
</a>
</g>
</g>
<!-- Node2&#45;&gt;Node5 -->
<g id="edge4" class="edge">
<title>Node2&#45;&gt;Node5</title>
<path fill="none" stroke="#191970" d="M2363.1412,-462.267C2248.0296,-455.8988 2051.5044,-442.18 1983,-420 1947.1876,-408.4049 1910.3783,-384.5624 1888.0928,-368.5483"/>
<polygon fill="#191970" stroke="#191970" points="1890.1564,-365.7214 1880.022,-362.6318 1886.0178,-371.3669 1890.1564,-365.7214"/>
</g>
<!-- Node23 -->
<g id="node23" class="node">
<title>Node23</title>
<g id="a_node23"><a xlink:href="../../d3/d76/G4DataVector_8hh.html" target="_top" xlink:title="G4DataVector.hh">
<polygon fill="none" stroke="#ff0000" points="3115.5,-171.5 3115.5,-191.5 3216.5,-191.5 3216.5,-171.5 3115.5,-171.5"/>
<text text-anchor="middle" x="3166" y="-178.5" font-family="FreeSans" font-size="10.00" fill="#000000">G4DataVector.hh</text>
</a>
</g>
</g>
<!-- Node2&#45;&gt;Node23 -->
<g id="edge46" class="edge">
<title>Node2&#45;&gt;Node23</title>
<path fill="none" stroke="#191970" d="M2536.6552,-458.6837C2638.5296,-449.0244 2796.9779,-432.3538 2822,-420 2897.5235,-382.7129 2880.6486,-324.5726 2955,-285 3031.641,-244.2087 3082.9375,-307.5984 3147,-249 3160.0113,-237.0985 3164.3815,-217.0562 3165.7235,-201.8951"/>
<polygon fill="#191970" stroke="#191970" points="3169.2189,-202.0735 3166.2458,-191.9044 3162.2285,-201.708 3169.2189,-202.0735"/>
</g>
<!-- Node24 -->
<g id="node24" class="node">
<title>Node24</title>
<g id="a_node24"><a xlink:href="../../d2/d72/G4ParticleChangeForLoss_8hh.html" target="_top" xlink:title="G4ParticleChangeForLoss.hh">
<polygon fill="none" stroke="#ff0000" points="2216,-285.5 2216,-305.5 2376,-305.5 2376,-285.5 2216,-285.5"/>
<text text-anchor="middle" x="2296" y="-292.5" font-family="FreeSans" font-size="10.00" fill="#000000">G4ParticleChangeForLoss.hh</text>
</a>
</g>
</g>
<!-- Node2&#45;&gt;Node24 -->
<g id="edge47" class="edge">
<title>Node2&#45;&gt;Node24</title>
<path fill="none" stroke="#191970" d="M2440.8278,-456.3153C2415.5302,-428.2251 2344.5146,-349.3701 2312.2802,-313.5773"/>
<polygon fill="#191970" stroke="#191970" points="2314.6117,-310.9361 2305.3189,-305.8476 2309.4102,-315.6206 2314.6117,-310.9361"/>
</g>
<!-- Node25 -->
<g id="node25" class="node">
<title>Node25</title>
<g id="a_node25"><a xlink:href="../../d6/d79/G4VAtomDeexcitation_8hh.html" target="_top" xlink:title="G4VAtomDeexcitation.hh">
<polygon fill="none" stroke="#ff0000" points="2504.5,-399.5 2504.5,-419.5 2647.5,-419.5 2647.5,-399.5 2504.5,-399.5"/>
<text text-anchor="middle" x="2576" y="-406.5" font-family="FreeSans" font-size="10.00" fill="#000000">G4VAtomDeexcitation.hh</text>
</a>
</g>
</g>
<!-- Node2&#45;&gt;Node25 -->
<g id="edge50" class="edge">
<title>Node2&#45;&gt;Node25</title>
<path fill="none" stroke="#191970" d="M2472.2362,-456.4408C2492.2651,-447.3801 2521.9271,-433.9615 2544.4135,-423.7891"/>
<polygon fill="#191970" stroke="#191970" points="2545.8938,-426.961 2553.5622,-419.6504 2543.0085,-420.5833 2545.8938,-426.961"/>
</g>
<!-- Node4 -->
<g id="node4" class="node">
<title>Node4</title>
<g id="a_node4"><a xlink:href="../../df/de9/G4ios_8hh.html" target="_top" xlink:title="G4ios.hh">
<polygon fill="none" stroke="#ff0000" points="1916.5,-.5 1916.5,-20.5 1977.5,-20.5 1977.5,-.5 1916.5,-.5"/>
<text text-anchor="middle" x="1947" y="-7.5" font-family="FreeSans" font-size="10.00" fill="#000000">G4ios.hh</text>
</a>
</g>
</g>
<!-- Node3&#45;&gt;Node4 -->
<g id="edge3" class="edge">
<title>Node3&#45;&gt;Node4</title>
<path fill="none" stroke="#191970" d="M2080.4106,-57.4408C2053.8878,-48.1087 2014.2264,-34.1537 1985.0385,-23.8839"/>
<polygon fill="#191970" stroke="#191970" points="1986.1705,-20.5719 1975.5756,-20.5544 1983.8471,-27.1751 1986.1705,-20.5719"/>
</g>
<!-- Node5&#45;&gt;Node3 -->
<g id="edge5" class="edge">
<title>Node5&#45;&gt;Node3</title>
<path fill="none" stroke="#191970" d="M1906.2398,-342.388C1951.7528,-328.6788 2026.018,-299.8659 2069,-249 2108.6513,-202.0757 2111.4483,-124.5558 2110.2777,-87.9053"/>
<polygon fill="#191970" stroke="#191970" points="2113.7565,-87.3608 2109.8,-77.5324 2106.7639,-87.6829 2113.7565,-87.3608"/>
</g>
<!-- Node5&#45;&gt;Node6 -->
<g id="edge6" class="edge">
<title>Node5&#45;&gt;Node6</title>
<path fill="none" stroke="#191970" d="M1816.9175,-343.1709C1706.2661,-322.5594 1441.1107,-273.1677 1318.7971,-250.3838"/>
<polygon fill="#191970" stroke="#191970" points="1319.2987,-246.9171 1308.8268,-248.5266 1318.0168,-253.7987 1319.2987,-246.9171"/>
</g>
<!-- Node5&#45;&gt;Node10 -->
<g id="edge32" class="edge">
<title>Node5&#45;&gt;Node10</title>
<path fill="none" stroke="#191970" d="M1816.8208,-343.3621C1813.8391,-342.8837 1810.8819,-342.4256 1808,-342 1672.5312,-321.9946 1637.9367,-322.5295 1502,-306 1300.1251,-281.4526 1249.3585,-277.4744 1048,-249 921.2055,-231.0698 773.8204,-207.2195 688.979,-193.197"/>
<polygon fill="#191970" stroke="#191970" points="689.3854,-189.7168 678.9481,-191.5367 688.2423,-196.6228 689.3854,-189.7168"/>
</g>
<!-- Node11 -->
<g id="node11" class="node">
<title>Node11</title>
<polygon fill="none" stroke="#bfbfbf" points="2681.5,-114.5 2681.5,-134.5 2730.5,-134.5 2730.5,-114.5 2681.5,-114.5"/>
<text text-anchor="middle" x="2706" y="-121.5" font-family="FreeSans" font-size="10.00" fill="#000000">vector</text>
</g>
<!-- Node5&#45;&gt;Node11 -->
<g id="edge45" class="edge">
<title>Node5&#45;&gt;Node11</title>
<path fill="none" stroke="#191970" d="M1893.6601,-342.4266C1973.9304,-312.4265 2220.8158,-222.5609 2432,-171 2516.853,-150.283 2618.7134,-135.6134 2671.0972,-128.798"/>
<polygon fill="#191970" stroke="#191970" points="2671.7245,-132.2463 2681.1976,-127.5018 2670.8335,-125.3032 2671.7245,-132.2463"/>
</g>
<!-- Node5&#45;&gt;Node21 -->
<g id="edge33" class="edge">
<title>Node5&#45;&gt;Node21</title>
<path fill="none" stroke="#191970" d="M1851.0886,-342.3095C1837.5466,-333.6366 1817.8793,-321.0407 1802.3566,-311.0992"/>
<polygon fill="#191970" stroke="#191970" points="1804.0823,-308.0481 1793.7737,-305.6022 1800.307,-313.9429 1804.0823,-308.0481"/>
</g>
<!-- Node5&#45;&gt;Node23 -->
<g id="edge41" class="edge">
<title>Node5&#45;&gt;Node23</title>
<path fill="none" stroke="#191970" d="M1906.9754,-342.4434C1970.1928,-327.022 2097.3332,-297.9601 2207,-285 2308.1525,-273.0461 3034.6798,-299.7371 3123,-249 3141.0862,-238.61 3152.7471,-217.1948 3159.299,-201.2573"/>
<polygon fill="#191970" stroke="#191970" points="3162.632,-202.338 3162.883,-191.7461 3156.0816,-199.8696 3162.632,-202.338"/>
</g>
<!-- Node6&#45;&gt;Node3 -->
<g id="edge11" class="edge">
<title>Node6&#45;&gt;Node3</title>
<path fill="none" stroke="#191970" d="M1319.0872,-229.2316C1322.0996,-228.8118 1325.0823,-228.3994 1328,-228 1450.9993,-211.1622 1484.916,-223.499 1605,-192 1629.109,-185.676 1633.8679,-180.2811 1657,-171 1720.4982,-145.5232 1733.9579,-131.8753 1800,-114 1892.321,-89.0119 2004.0341,-76.3874 2064.6442,-70.9488"/>
<polygon fill="#191970" stroke="#191970" points="2064.9791,-74.4329 2074.6366,-70.076 2064.3699,-67.4595 2064.9791,-74.4329"/>
</g>
<!-- Node6&#45;&gt;Node4 -->
<g id="edge12" class="edge">
<title>Node6&#45;&gt;Node4</title>
<path fill="none" stroke="#191970" d="M1190.8464,-233.5657C1077.0344,-224.5027 850.5823,-204.949 839,-192 832.7777,-185.0434 834.6071,-179.2349 839,-171 844.3521,-160.9669 913.5595,-118.506 924,-114 1028.6333,-68.8412 1061.1865,-73.1425 1174,-57 1317.4908,-36.4679 1767.6907,-17.5333 1906.1035,-12.0724"/>
<polygon fill="#191970" stroke="#191970" points="1906.4205,-15.5628 1916.2756,-11.6733 1906.146,-8.5682 1906.4205,-15.5628"/>
</g>
<!-- Node7 -->
<g id="node7" class="node">
<title>Node7</title>
<polygon fill="none" stroke="#bfbfbf" points="1709,-171.5 1709,-191.5 1757,-191.5 1757,-171.5 1709,-171.5"/>
<text text-anchor="middle" x="1733" y="-178.5" font-family="FreeSans" font-size="10.00" fill="#000000">cmath</text>
</g>
<!-- Node6&#45;&gt;Node7 -->
<g id="edge7" class="edge">
<title>Node6&#45;&gt;Node7</title>
<path fill="none" stroke="#191970" d="M1319.0775,-229.1582C1322.0925,-228.758 1325.0784,-228.3699 1328,-228 1473.9303,-209.5264 1511.0188,-210.0674 1657,-192 1670.664,-190.3089 1685.6844,-188.2715 1698.738,-186.4433"/>
<polygon fill="#191970" stroke="#191970" points="1699.3097,-189.8974 1708.7216,-185.0325 1698.3302,-182.9662 1699.3097,-189.8974"/>
</g>
<!-- Node8 -->
<g id="node8" class="node">
<title>Node8</title>
<g id="a_node8"><a xlink:href="../../da/db6/SystemOfUnits_8h.html" target="_top" xlink:title="CLHEP/Units/SystemOfUnits.h">
<polygon fill="none" stroke="#000000" points="234,-57.5 234,-77.5 400,-77.5 400,-57.5 234,-57.5"/>
<text text-anchor="middle" x="317" y="-64.5" font-family="FreeSans" font-size="10.00" fill="#000000">CLHEP/Units/SystemOfUnits.h</text>
</a>
</g>
</g>
<!-- Node6&#45;&gt;Node8 -->
<g id="edge8" class="edge">
<title>Node6&#45;&gt;Node8</title>
<path fill="none" stroke="#191970" d="M1190.6642,-234.5323C1063.2298,-226.3626 789.7574,-207.1576 776,-192 752.6994,-166.3279 800.2496,-139.7183 777,-114 752.9082,-87.3501 537.548,-75.233 410.2184,-70.3557"/>
<polygon fill="#191970" stroke="#191970" points="410.197,-66.8525 400.0729,-69.9752 409.9347,-73.8476 410.197,-66.8525"/>
</g>
<!-- Node9 -->
<g id="node9" class="node">
<title>Node9</title>
<g id="a_node9"><a xlink:href="../../dd/d09/PhysicalConstants_8h.html" target="_top" xlink:title="CLHEP/Units/PhysicalConstants.h">
<polygon fill="none" stroke="#000000" points="226,-114.5 226,-134.5 408,-134.5 408,-114.5 226,-114.5"/>
<text text-anchor="middle" x="317" y="-121.5" font-family="FreeSans" font-size="10.00" fill="#000000">CLHEP/Units/PhysicalConstants.h</text>
</a>
</g>
</g>
<!-- Node6&#45;&gt;Node9 -->
<g id="edge9" class="edge">
<title>Node6&#45;&gt;Node9</title>
<path fill="none" stroke="#191970" d="M1190.8831,-236.1616C1040.0996,-230.3633 666.4472,-214.1739 543,-192 474.4301,-179.6833 397.1837,-153.9249 353.0785,-138.0309"/>
<polygon fill="#191970" stroke="#191970" points="354.2522,-134.7335 343.6582,-134.604 351.8592,-141.3118 354.2522,-134.7335"/>
</g>
<!-- Node6&#45;&gt;Node10 -->
<g id="edge13" class="edge">
<title>Node6&#45;&gt;Node10</title>
<path fill="none" stroke="#191970" d="M1190.8153,-234.0717C1087.3633,-226.7207 877.3903,-210.9189 700,-192 698.6913,-191.8604 697.3711,-191.7172 696.0418,-191.5707"/>
<polygon fill="#191970" stroke="#191970" points="696.0493,-188.0489 685.7168,-190.3919 695.2552,-195.0037 696.0493,-188.0489"/>
</g>
<!-- Node15 -->
<g id="node15" class="node">
<title>Node15</title>
<g id="a_node15"><a xlink:href="../../dd/d3c/G4Allocator_8hh.html" target="_top" xlink:title="G4Allocator.hh">
<polygon fill="none" stroke="#ff0000" points="1356,-114.5 1356,-134.5 1446,-134.5 1446,-114.5 1356,-114.5"/>
<text text-anchor="middle" x="1401" y="-121.5" font-family="FreeSans" font-size="10.00" fill="#000000">G4Allocator.hh</text>
</a>
</g>
</g>
<!-- Node6&#45;&gt;Node15 -->
<g id="edge22" class="edge">
<title>Node6&#45;&gt;Node15</title>
<path fill="none" stroke="#191970" d="M1298.0166,-228.4149C1332.1169,-219.553 1375.9689,-205.9307 1388,-192 1399.1887,-179.0447 1401.9205,-159.4163 1402.1596,-144.6599"/>
<polygon fill="#191970" stroke="#191970" points="1405.6561,-144.4439 1401.9555,-134.5164 1398.6575,-144.5849 1405.6561,-144.4439"/>
</g>
<!-- Node16 -->
<g id="node16" class="node">
<title>Node16</title>
<g id="a_node16"><a xlink:href="../../d7/dd0/G4LorentzVector_8hh.html" target="_top" xlink:title="G4LorentzVector.hh">
<polygon fill="none" stroke="#ff0000" points="1540.5,-114.5 1540.5,-134.5 1655.5,-134.5 1655.5,-114.5 1540.5,-114.5"/>
<text text-anchor="middle" x="1598" y="-121.5" font-family="FreeSans" font-size="10.00" fill="#000000">G4LorentzVector.hh</text>
</a>
</g>
</g>
<!-- Node6&#45;&gt;Node16 -->
<g id="edge23" class="edge">
<title>Node6&#45;&gt;Node16</title>
<path fill="none" stroke="#191970" d="M1319.0919,-229.2657C1322.1031,-228.8368 1325.0842,-228.4131 1328,-228 1385.3163,-219.8792 1544.3102,-232.1631 1586,-192 1598.2952,-180.1551 1600.5796,-160.3927 1600.2114,-145.3039"/>
<polygon fill="#191970" stroke="#191970" points="1603.6756,-144.6369 1599.5347,-134.8848 1596.6903,-145.0907 1603.6756,-144.6369"/>
</g>
<!-- Node17 -->
<g id="node17" class="node">
<title>Node17</title>
<g id="a_node17"><a xlink:href="../../db/dfe/G4Log_8hh.html" target="_top" xlink:title="G4Log.hh">
<polygon fill="none" stroke="#ff0000" points="1160,-114.5 1160,-134.5 1224,-134.5 1224,-114.5 1160,-114.5"/>
<text text-anchor="middle" x="1192" y="-121.5" font-family="FreeSans" font-size="10.00" fill="#000000">G4Log.hh</text>
</a>
</g>
</g>
<!-- Node6&#45;&gt;Node17 -->
<g id="edge25" class="edge">
<title>Node6&#45;&gt;Node17</title>
<path fill="none" stroke="#191970" d="M1190.6278,-229.4743C1147.1944,-221.9141 1095.4355,-209.5237 1082,-192 1059.8176,-163.0679 1110.2701,-143.6454 1149.9867,-133.332"/>
<polygon fill="#191970" stroke="#191970" points="1150.9341,-136.7032 1159.8021,-130.9059 1149.2544,-129.9077 1150.9341,-136.7032"/>
</g>
<!-- Node18 -->
<g id="node18" class="node">
<title>Node18</title>
<g id="a_node18"><a xlink:href="../../dc/d2b/G4ParticleMomentum_8hh.html" target="_top" xlink:title="G4ParticleMomentum.hh">
<polygon fill="none" stroke="#ff0000" points="1090.5,-171.5 1090.5,-191.5 1231.5,-191.5 1231.5,-171.5 1090.5,-171.5"/>
<text text-anchor="middle" x="1161" y="-178.5" font-family="FreeSans" font-size="10.00" fill="#000000">G4ParticleMomentum.hh</text>
</a>
</g>
</g>
<!-- Node6&#45;&gt;Node18 -->
<g id="edge26" class="edge">
<title>Node6&#45;&gt;Node18</title>
<path fill="none" stroke="#191970" d="M1238.1947,-228.3095C1223.7583,-219.5556 1202.7309,-206.8049 1186.2665,-196.8211"/>
<polygon fill="#191970" stroke="#191970" points="1188.0254,-193.7945 1177.6598,-191.6022 1184.3958,-199.7801 1188.0254,-193.7945"/>
</g>
<!-- Node19 -->
<g id="node19" class="node">
<title>Node19</title>
<g id="a_node19"><a xlink:href="../../d2/dbb/G4ElectronOccupancy_8hh.html" target="_top" xlink:title="G4ElectronOccupancy.hh">
<polygon fill="none" stroke="#ff0000" points="1435,-171.5 1435,-191.5 1577,-191.5 1577,-171.5 1435,-171.5"/>
<text text-anchor="middle" x="1506" y="-178.5" font-family="FreeSans" font-size="10.00" fill="#000000">G4ElectronOccupancy.hh</text>
</a>
</g>
</g>
<!-- Node6&#45;&gt;Node19 -->
<g id="edge27" class="edge">
<title>Node6&#45;&gt;Node19</title>
<path fill="none" stroke="#191970" d="M1299.296,-228.4408C1341.8193,-218.7841 1406.14,-204.1774 1451.7223,-193.826"/>
<polygon fill="#191970" stroke="#191970" points="1452.7488,-197.1821 1461.7254,-191.5544 1451.1986,-190.3559 1452.7488,-197.1821"/>
</g>
<!-- Node20 -->
<g id="node20" class="node">
<title>Node20</title>
<polygon fill="none" stroke="#bfbfbf" points="1249.5,-171.5 1249.5,-191.5 1378.5,-191.5 1378.5,-171.5 1249.5,-171.5"/>
<text text-anchor="middle" x="1314" y="-178.5" font-family="FreeSans" font-size="10.00" fill="#000000">G4DynamicParticle.icc</text>
</g>
<!-- Node6&#45;&gt;Node20 -->
<g id="edge31" class="edge">
<title>Node6&#45;&gt;Node20</title>
<path fill="none" stroke="#191970" d="M1265.548,-228.3095C1274.0219,-220.1229 1286.1137,-208.441 1296.0977,-198.7955"/>
<polygon fill="#191970" stroke="#191970" points="1298.7832,-201.0676 1303.5433,-191.6022 1293.9195,-196.0332 1298.7832,-201.0676"/>
</g>
<!-- Node9&#45;&gt;Node8 -->
<g id="edge10" class="edge">
<title>Node9&#45;&gt;Node8</title>
<path fill="none" stroke="#191970" d="M317,-114.3095C317,-106.9335 317,-96.72 317,-87.715"/>
<polygon fill="#191970" stroke="#191970" points="320.5001,-87.6022 317,-77.6022 313.5001,-87.6023 320.5001,-87.6022"/>
</g>
<!-- Node10&#45;&gt;Node3 -->
<g id="edge16" class="edge">
<title>Node10&#45;&gt;Node3</title>
<path fill="none" stroke="#191970" d="M660.2935,-171.4797C725.5897,-156.1074 856.8881,-127.1108 970,-114 1187.9181,-88.741 1882.6037,-72.3576 2064.865,-68.4204"/>
<polygon fill="#191970" stroke="#191970" points="2064.9704,-71.9191 2074.8929,-68.2052 2064.8201,-64.9207 2064.9704,-71.9191"/>
</g>
<!-- Node10&#45;&gt;Node4 -->
<g id="edge17" class="edge">
<title>Node10&#45;&gt;Node4</title>
<path fill="none" stroke="#191970" d="M616.6237,-171.4321C613.8399,-156.9084 611.2,-130.063 625,-114 694.4725,-33.1353 752.4532,-72.0136 858,-57 1066.2802,-27.3729 1734.2522,-14.1328 1906.2836,-11.1635"/>
<polygon fill="#191970" stroke="#191970" points="1906.4893,-14.6606 1916.4281,-10.9905 1906.3699,-7.6617 1906.4893,-14.6606"/>
</g>
<!-- Node10&#45;&gt;Node9 -->
<g id="edge15" class="edge">
<title>Node10&#45;&gt;Node9</title>
<path fill="none" stroke="#191970" d="M565.7036,-171.4408C513.8155,-161.6473 434.9529,-146.7626 379.9897,-136.3888"/>
<polygon fill="#191970" stroke="#191970" points="380.4926,-132.922 370.0169,-134.5065 379.1942,-139.8005 380.4926,-132.922"/>
</g>
<!-- Node10&#45;&gt;Node11 -->
<g id="edge14" class="edge">
<title>Node10&#45;&gt;Node11</title>
<path fill="none" stroke="#191970" d="M685.8278,-178.0523C731.2648,-175.7991 792.7476,-172.9275 847,-171 1583.6454,-144.8276 2485.0082,-128.3525 2671.3302,-125.0955"/>
<polygon fill="#191970" stroke="#191970" points="2671.4289,-128.5944 2681.3664,-124.9208 2671.307,-121.5955 2671.4289,-128.5944"/>
</g>
<!-- Node12 -->
<g id="node12" class="node">
<title>Node12</title>
<g id="a_node12"><a xlink:href="../../d2/d0a/G4PDefManager_8hh.html" target="_top" xlink:title="G4PDefManager.hh">
<polygon fill="none" stroke="#ff0000" points="426.5,-114.5 426.5,-134.5 539.5,-134.5 539.5,-114.5 426.5,-114.5"/>
<text text-anchor="middle" x="483" y="-121.5" font-family="FreeSans" font-size="10.00" fill="#000000">G4PDefManager.hh</text>
</a>
</g>
</g>
<!-- Node10&#45;&gt;Node12 -->
<g id="edge18" class="edge">
<title>Node10&#45;&gt;Node12</title>
<path fill="none" stroke="#191970" d="M594.999,-171.4408C573.1875,-162.2992 540.7918,-148.7216 516.4451,-138.5174"/>
<polygon fill="#191970" stroke="#191970" points="517.7942,-135.2879 507.2185,-134.6504 515.0884,-141.7438 517.7942,-135.2879"/>
</g>
<!-- Node14 -->
<g id="node14" class="node">
<title>Node14</title>
<polygon fill="none" stroke="#bfbfbf" points="634,-114.5 634,-134.5 768,-134.5 768,-114.5 634,-114.5"/>
<text text-anchor="middle" x="701" y="-121.5" font-family="FreeSans" font-size="10.00" fill="#000000">G4ParticleDefinition.icc</text>
</g>
<!-- Node10&#45;&gt;Node14 -->
<g id="edge21" class="edge">
<title>Node10&#45;&gt;Node14</title>
<path fill="none" stroke="#191970" d="M633.66,-171.3095C646.0202,-162.7177 663.9191,-150.2758 678.1571,-140.3786"/>
<polygon fill="#191970" stroke="#191970" points="680.2536,-143.1839 686.467,-134.6022 676.2581,-137.4361 680.2536,-143.1839"/>
</g>
<!-- Node12&#45;&gt;Node3 -->
<g id="edge19" class="edge">
<title>Node12&#45;&gt;Node3</title>
<path fill="none" stroke="#191970" d="M539.5106,-115.5344C544.4028,-114.943 549.2835,-114.4178 554,-114 858.8982,-86.9892 1842.9029,-71.3562 2064.4288,-68.1279"/>
<polygon fill="#191970" stroke="#191970" points="2064.7446,-71.6238 2074.6929,-67.9792 2064.6432,-64.6245 2064.7446,-71.6238"/>
</g>
<!-- Node12&#45;&gt;Node13 -->
<g id="edge20" class="edge">
<title>Node12&#45;&gt;Node13</title>
<path fill="none" stroke="#191970" d="M426.4929,-115.3843C423.2829,-114.9057 420.1015,-114.4409 417,-114 305.6693,-98.1716 175.1293,-82.4725 102.3553,-73.9755"/>
<polygon fill="#191970" stroke="#191970" points="102.3842,-70.4553 92.0465,-72.775 101.5745,-77.4084 102.3842,-70.4553"/>
</g>
<!-- Node16&#45;&gt;Node3 -->
<g id="edge24" class="edge">
<title>Node16&#45;&gt;Node3</title>
<path fill="none" stroke="#191970" d="M1655.7415,-115.8757C1660.5617,-115.2177 1665.3626,-114.5835 1670,-114 1814.0937,-95.8689 1985.3988,-79.1018 2064.6822,-71.6135"/>
<polygon fill="#191970" stroke="#191970" points="2065.1659,-75.0835 2074.7939,-70.6617 2064.5099,-68.1143 2065.1659,-75.0835"/>
</g>
<!-- Node19&#45;&gt;Node3 -->
<g id="edge28" class="edge">
<title>Node19&#45;&gt;Node3</title>
<path fill="none" stroke="#191970" d="M1506.6721,-171.27C1508.2743,-156.0264 1513.6918,-127.6817 1532,-114 1574.3318,-82.3654 1936.619,-71.3237 2064.5155,-68.3911"/>
<polygon fill="#191970" stroke="#191970" points="2064.8147,-71.8854 2074.7339,-68.1627 2064.6582,-64.8871 2064.8147,-71.8854"/>
</g>
<!-- Node19&#45;&gt;Node4 -->
<g id="edge30" class="edge">
<title>Node19&#45;&gt;Node4</title>
<path fill="none" stroke="#191970" d="M1503.6102,-171.4205C1500.8097,-156.8824 1498.1491,-130.0192 1512,-114 1563.683,-54.226 1808.2635,-24.0671 1906.2561,-14.2227"/>
<polygon fill="#191970" stroke="#191970" points="1906.7587,-17.6902 1916.3676,-13.2271 1906.0727,-10.7239 1906.7587,-17.6902"/>
</g>
<!-- Node19&#45;&gt;Node15 -->
<g id="edge29" class="edge">
<title>Node19&#45;&gt;Node15</title>
<path fill="none" stroke="#191970" d="M1487.2281,-171.3095C1470.8784,-162.434 1446.9604,-149.4499 1428.4599,-139.4068"/>
<polygon fill="#191970" stroke="#191970" points="1430.0678,-136.2972 1419.6094,-134.6022 1426.7281,-142.4492 1430.0678,-136.2972"/>
</g>
<!-- Node21&#45;&gt;Node3 -->
<g id="edge34" class="edge">
<title>Node21&#45;&gt;Node3</title>
<path fill="none" stroke="#191970" d="M1850.7715,-291.6146C1921.5897,-286.3782 2022.6848,-274.5719 2052,-249 2053.5803,-247.6215 2088.5552,-134.1085 2102.9222,-87.3198"/>
<polygon fill="#191970" stroke="#191970" points="2106.291,-88.272 2105.8789,-77.6851 2099.599,-86.2183 2106.291,-88.272"/>
</g>
<!-- Node21&#45;&gt;Node4 -->
<g id="edge35" class="edge">
<title>Node21&#45;&gt;Node4</title>
<path fill="none" stroke="#191970" d="M1705.3297,-291.7824C1592.8834,-285.5901 1370.0616,-271.5667 1182,-249 1162.3853,-246.6463 843.8008,-207.0472 831,-192 824.9524,-184.891 827.5054,-179.6544 831,-171 868.4446,-78.2677 927.3986,-78.8025 1025,-57 1196.4441,-18.7023 1750.3309,-11.8971 1905.9763,-10.7322"/>
<polygon fill="#191970" stroke="#191970" points="1906.09,-14.2315 1916.0649,-10.6605 1906.0402,-7.2317 1906.09,-14.2315"/>
</g>
<!-- Node22 -->
<g id="node22" class="node">
<title>Node22</title>
<g id="a_node22"><a xlink:href="../../d4/d6a/G4ProductionCuts_8hh.html" target="_top" xlink:title="G4ProductionCuts.hh">
<polygon fill="none" stroke="#000000" points="1337,-228.5 1337,-248.5 1459,-248.5 1459,-228.5 1337,-228.5"/>
<text text-anchor="middle" x="1398" y="-235.5" font-family="FreeSans" font-size="10.00" fill="#000000">G4ProductionCuts.hh</text>
</a>
</g>
</g>
<!-- Node21&#45;&gt;Node22 -->
<g id="edge36" class="edge">
<title>Node21&#45;&gt;Node22</title>
<path fill="none" stroke="#191970" d="M1710.9384,-285.4408C1643.0082,-275.2512 1538.3358,-259.5504 1469.0196,-249.1529"/>
<polygon fill="#191970" stroke="#191970" points="1469.4663,-245.6809 1459.0577,-247.6587 1468.4278,-252.6034 1469.4663,-245.6809"/>
</g>
<!-- Node22&#45;&gt;Node3 -->
<g id="edge37" class="edge">
<title>Node22&#45;&gt;Node3</title>
<path fill="none" stroke="#191970" d="M1459.0403,-229.5346C1523.6429,-219.6916 1621.1221,-203.7294 1657,-192 1677.2155,-185.391 1680.222,-178.8215 1700,-171 1780.0074,-139.3599 1801.6762,-135.4341 1885,-114 1946.9151,-98.073 2019.5263,-83.7913 2064.9058,-75.3825"/>
<polygon fill="#191970" stroke="#191970" points="2065.7949,-78.7777 2074.9967,-73.5263 2064.5285,-71.8932 2065.7949,-78.7777"/>
</g>
<!-- Node22&#45;&gt;Node4 -->
<g id="edge38" class="edge">
<title>Node22&#45;&gt;Node4</title>
<path fill="none" stroke="#191970" d="M1336.9517,-229.0703C1333.9275,-228.6887 1330.9309,-228.329 1328,-228 1274.7407,-222.0208 883.455,-231.2854 847,-192 840.6514,-185.1585 841.9758,-178.8657 847,-171 847.5068,-170.2066 969.0926,-114.2509 970,-114 1151.1766,-63.907 1744.6101,-23.3491 1906.1079,-13.0404"/>
<polygon fill="#191970" stroke="#191970" points="1906.3537,-16.5319 1916.1118,-12.4053 1905.9102,-9.546 1906.3537,-16.5319"/>
</g>
<!-- Node22&#45;&gt;Node10 -->
<g id="edge40" class="edge">
<title>Node22&#45;&gt;Node10</title>
<path fill="none" stroke="#191970" d="M1336.9553,-229.037C1333.9302,-228.6642 1330.9324,-228.3155 1328,-228 1207.3132,-215.0137 853.1669,-194.5127 695.8382,-185.726"/>
<polygon fill="#191970" stroke="#191970" points="695.9438,-182.2266 685.7644,-185.1644 695.554,-189.2157 695.9438,-182.2266"/>
</g>
<!-- Node22&#45;&gt;Node11 -->
<g id="edge39" class="edge">
<title>Node22&#45;&gt;Node11</title>
<path fill="none" stroke="#191970" d="M1459.0264,-231.828C1532.1456,-223.594 1658.284,-208.6275 1766,-192 1817.3481,-184.0737 1829.4078,-177.1404 1881,-171 2185.6339,-134.7429 2557.0148,-126.6124 2671.0471,-124.9179"/>
<polygon fill="#191970" stroke="#191970" points="2671.3187,-128.4145 2681.2682,-124.7733 2671.2196,-121.4152 2671.3187,-128.4145"/>
</g>
<!-- Node23&#45;&gt;Node3 -->
<g id="edge42" class="edge">
<title>Node23&#45;&gt;Node3</title>
<path fill="none" stroke="#191970" d="M3159.9374,-171.4179C3149.9155,-155.8218 3128.2648,-126.3577 3101,-114 3014.0086,-74.5713 2334.3937,-68.5609 2153.2445,-67.6574"/>
<polygon fill="#191970" stroke="#191970" points="2153.0373,-64.1565 2143.0209,-67.6093 2153.0043,-71.1564 2153.0373,-64.1565"/>
</g>
<!-- Node23&#45;&gt;Node4 -->
<g id="edge44" class="edge">
<title>Node23&#45;&gt;Node4</title>
<path fill="none" stroke="#191970" d="M3163.6855,-171.4254C3159.5861,-156.117 3149.4783,-127.3688 3129,-114 3031.5566,-50.3866 2185.2011,-18.4341 1987.9625,-11.8126"/>
<polygon fill="#191970" stroke="#191970" points="1987.8544,-8.3072 1977.7435,-11.4728 1987.6217,-15.3033 1987.8544,-8.3072"/>
</g>
<!-- Node23&#45;&gt;Node11 -->
<g id="edge43" class="edge">
<title>Node23&#45;&gt;Node11</title>
<path fill="none" stroke="#191970" d="M3115.4561,-175.237C3021.3094,-163.5709 2821.3487,-138.7932 2740.7493,-128.8059"/>
<polygon fill="#191970" stroke="#191970" points="2740.9898,-125.309 2730.6353,-127.5526 2740.129,-132.2559 2740.9898,-125.309"/>
</g>
<!-- Node24&#45;&gt;Node3 -->
<g id="edge48" class="edge">
<title>Node24&#45;&gt;Node3</title>
<path fill="none" stroke="#191970" d="M2292.9044,-285.1284C2283.4709,-255.0666 2252.4217,-166.683 2199,-114 2184.6306,-99.8293 2165.0602,-89.0196 2147.8386,-81.4049"/>
<polygon fill="#191970" stroke="#191970" points="2149.1355,-78.1535 2138.5606,-77.5023 2146.4213,-84.6059 2149.1355,-78.1535"/>
</g>
<!-- Node24&#45;&gt;Node4 -->
<g id="edge49" class="edge">
<title>Node24&#45;&gt;Node4</title>
<path fill="none" stroke="#191970" d="M2376.2829,-293.1418C2650.7486,-285.0015 3535.4585,-258.0835 3547,-249 3571.4906,-229.7251 3566,-212.6658 3566,-181.5 3566,-181.5 3566,-181.5 3566,-124.5 3566,-42.858 2238.675,-15.5997 1987.6819,-11.1751"/>
<polygon fill="#191970" stroke="#191970" points="1987.5993,-7.6732 1977.5398,-10.9985 1987.4773,-14.6721 1987.5993,-7.6732"/>
</g>
<!-- Node25&#45;&gt;Node3 -->
<g id="edge51" class="edge">
<title>Node25&#45;&gt;Node3</title>
<path fill="none" stroke="#191970" d="M2504.1998,-400.2644C2476.3211,-393.6702 2445.7055,-382.3686 2423,-363 2393.6623,-337.9738 2407.0084,-316.6645 2385,-285 2325.0755,-198.7837 2308.6651,-173.2736 2222,-114 2200.969,-99.6161 2174.7992,-88.4937 2152.9415,-80.7386"/>
<polygon fill="#191970" stroke="#191970" points="2153.8308,-77.3436 2143.2362,-77.4127 2151.5616,-83.9655 2153.8308,-77.3436"/>
</g>
<!-- Node25&#45;&gt;Node11 -->
<g id="edge71" class="edge">
<title>Node25&#45;&gt;Node11</title>
<path fill="none" stroke="#191970" d="M2579.4616,-399.2513C2582.5328,-389.8911 2586.9871,-375.6291 2590,-363 2604.1417,-303.7228 2577.531,-276.8241 2614,-228 2635.4102,-199.3364 2663.0174,-219.419 2686,-192 2697.1367,-178.7135 2702.0723,-159.4279 2704.2595,-144.8701"/>
<polygon fill="#191970" stroke="#191970" points="2707.7472,-145.1805 2705.4536,-134.8369 2700.7962,-144.3531 2707.7472,-145.1805"/>
</g>
<!-- Node25&#45;&gt;Node26 -->
<g id="edge52" class="edge">
<title>Node25&#45;&gt;Node26</title>
<path fill="none" stroke="#191970" d="M2599.0383,-399.3717C2616.6864,-391.0134 2641.1286,-378.101 2660,-363 2678.0457,-348.5597 2695.2029,-328.3693 2706.5117,-313.8383"/>
<polygon fill="#191970" stroke="#191970" points="2709.4898,-315.7039 2712.7529,-305.6241 2703.9162,-311.469 2709.4898,-315.7039"/>
</g>
<!-- Node25&#45;&gt;Node27 -->
<g id="edge56" class="edge">
<title>Node25&#45;&gt;Node27</title>
<path fill="none" stroke="#191970" d="M2644.8902,-399.4554C2816.016,-374.4622 3274.1966,-307.2866 3656,-249 3657.2767,-248.8051 3658.5669,-248.6076 3659.8673,-248.4082"/>
<polygon fill="#191970" stroke="#191970" points="3660.626,-251.8326 3669.9758,-246.8494 3659.5592,-244.9144 3660.626,-251.8326"/>
</g>
<!-- Node25&#45;&gt;Node28 -->
<g id="edge58" class="edge">
<title>Node25&#45;&gt;Node28</title>
<path fill="none" stroke="#191970" d="M2563.4854,-399.3095C2553.1331,-390.8798 2538.2294,-378.7439 2526.1913,-368.9415"/>
<polygon fill="#191970" stroke="#191970" points="2528.3706,-366.2025 2518.4063,-362.6022 2523.9506,-371.6306 2528.3706,-366.2025"/>
</g>
<!-- Node26&#45;&gt;Node3 -->
<g id="edge53" class="edge">
<title>Node26&#45;&gt;Node3</title>
<path fill="none" stroke="#191970" d="M2659.9725,-286.7467C2596.9436,-274.8647 2498.0037,-248.2729 2432,-192 2401.8765,-166.3175 2421.3148,-136.8641 2389,-114 2351.838,-87.7064 2222.4646,-75.1448 2153.3428,-70.19"/>
<polygon fill="#191970" stroke="#191970" points="2153.4129,-66.6865 2143.1947,-69.4862 2152.9286,-73.6697 2153.4129,-66.6865"/>
</g>
<!-- Node26&#45;&gt;Node4 -->
<g id="edge54" class="edge">
<title>Node26&#45;&gt;Node4</title>
<path fill="none" stroke="#191970" d="M2780.1198,-292.6958C2972.5979,-283.6563 3561.5573,-255.4941 3569,-249 3614.3594,-209.4219 3618.0194,-160.6736 3580,-114 3500.8933,-16.8866 3428.3701,-71.8647 3304,-57 3039.5472,-25.3925 2184.6674,-13.3543 1987.7273,-10.9647"/>
<polygon fill="#191970" stroke="#191970" points="1987.5741,-7.4627 1977.5329,-10.8426 1987.4902,-14.4622 1987.5741,-7.4627"/>
</g>
<!-- Node26&#45;&gt;Node11 -->
<g id="edge55" class="edge">
<title>Node26&#45;&gt;Node11</title>
<path fill="none" stroke="#191970" d="M2727.3285,-285.186C2741.8009,-263.4609 2771.2147,-211.6447 2754,-171 2748.9603,-159.1011 2739.2205,-148.7543 2729.8241,-140.8612"/>
<polygon fill="#191970" stroke="#191970" points="2731.8171,-137.9768 2721.7818,-134.5793 2727.5081,-143.4934 2731.8171,-137.9768"/>
</g>
<!-- Node27&#45;&gt;Node3 -->
<g id="edge57" class="edge">
<title>Node27&#45;&gt;Node3</title>
<path fill="none" stroke="#191970" d="M3702.2628,-228.3845C3641.7051,-198.8536 3469.1732,-114.7856 3466,-114 3336.3371,-81.8999 2372.4797,-70.1897 2153.2703,-67.9274"/>
<polygon fill="#191970" stroke="#191970" points="2153.1415,-64.426 2143.1063,-67.8238 2153.07,-71.4256 2153.1415,-64.426"/>
</g>
<!-- Node28&#45;&gt;Node3 -->
<g id="edge59" class="edge">
<title>Node28&#45;&gt;Node3</title>
<path fill="none" stroke="#191970" d="M2500.0759,-342.3984C2474.5039,-298.9365 2373.8431,-129.3665 2351,-114 2319.2889,-92.668 2213.9688,-78.4626 2153.2297,-71.8266"/>
<polygon fill="#191970" stroke="#191970" points="2153.4739,-68.3329 2143.1587,-70.751 2152.7304,-75.2933 2153.4739,-68.3329"/>
</g>
<!-- Node28&#45;&gt;Node4 -->
<g id="edge61" class="edge">
<title>Node28&#45;&gt;Node4</title>
<path fill="none" stroke="#191970" d="M2580.882,-350.3699C2871.4105,-341.6205 3908,-305.6948 3908,-238.5 3908,-238.5 3908,-238.5 3908,-124.5 3908,-22.2234 3788.9341,-73.5167 3688,-57 3515.536,-28.7782 2234.695,-13.6063 1988.0332,-10.9304"/>
<polygon fill="#191970" stroke="#191970" points="1987.7623,-7.4274 1977.7251,-10.8194 1987.6868,-14.427 1987.7623,-7.4274"/>
</g>
<!-- Node28&#45;&gt;Node7 -->
<g id="edge60" class="edge">
<title>Node28&#45;&gt;Node7</title>
<path fill="none" stroke="#191970" d="M2431.4026,-344.6377C2311.1426,-331.978 2066.9516,-306.335 1860,-285 1820.6722,-280.9456 1532.5044,-278.3365 1506,-249 1463.5332,-201.9955 1437.4663,-249.1718 1692,-192 1694.2986,-191.4837 1696.6646,-190.932 1699.045,-190.3619"/>
<polygon fill="#191970" stroke="#191970" points="1699.9073,-193.7542 1708.7761,-187.9581 1698.2285,-186.9585 1699.9073,-193.7542"/>
</g>
<!-- Node28&#45;&gt;Node11 -->
<g id="edge62" class="edge">
<title>Node28&#45;&gt;Node11</title>
<path fill="none" stroke="#191970" d="M2505.8599,-342.1746C2506.1191,-318.5443 2510.1444,-260.1019 2542,-228 2581.5209,-188.1735 2618.2113,-225.7938 2663,-192 2679.2214,-179.7607 2690.9426,-159.4757 2698.0112,-144.3324"/>
<polygon fill="#191970" stroke="#191970" points="2701.3653,-145.3971 2702.1596,-134.8321 2694.9502,-142.5958 2701.3653,-145.3971"/>
</g>
<!-- Node28&#45;&gt;Node21 -->
<g id="edge63" class="edge">
<title>Node28&#45;&gt;Node21</title>
<path fill="none" stroke="#191970" d="M2431.1731,-346.6413C2294.0458,-335.9047 2003.4723,-313.1537 1860.698,-301.975"/>
<polygon fill="#191970" stroke="#191970" points="1860.9206,-298.4818 1850.6778,-301.1904 1860.3741,-305.4604 1860.9206,-298.4818"/>
</g>
<!-- Node29 -->
<g id="node29" class="node">
<title>Node29</title>
<g id="a_node29"><a xlink:href="../../d1/d2f/G4MCCIndexConversionTable_8hh.html" target="_top" xlink:title="G4MCCIndexConversionTable.hh">
<polygon fill="none" stroke="#000000" points="2441,-171.5 2441,-191.5 2621,-191.5 2621,-171.5 2441,-171.5"/>
<text text-anchor="middle" x="2531" y="-178.5" font-family="FreeSans" font-size="10.00" fill="#000000">G4MCCIndexConversionTable.hh</text>
</a>
</g>
</g>
<!-- Node28&#45;&gt;Node29 -->
<g id="edge64" class="edge">
<title>Node28&#45;&gt;Node29</title>
<path fill="none" stroke="#191970" d="M2503.9658,-342.262C2500.0805,-320.6806 2492.9271,-269.1215 2504,-228 2506.6806,-218.0451 2512.0731,-208.0254 2517.339,-199.8495"/>
<polygon fill="#191970" stroke="#191970" points="2520.2959,-201.7265 2523.0791,-191.5038 2514.5284,-197.7597 2520.2959,-201.7265"/>
</g>
<!-- Node30 -->
<g id="node30" class="node">
<title>Node30</title>
<g id="a_node30"><a xlink:href="../../d1/d02/G4Region_8hh.html" target="_top" xlink:title="G4Region.hh">
<polygon fill="none" stroke="#ff0000" points="2622.5,-228.5 2622.5,-248.5 2703.5,-248.5 2703.5,-228.5 2622.5,-228.5"/>
<text text-anchor="middle" x="2663" y="-235.5" font-family="FreeSans" font-size="10.00" fill="#000000">G4Region.hh</text>
</a>
</g>
</g>
<!-- Node28&#45;&gt;Node30 -->
<g id="edge68" class="edge">
<title>Node28&#45;&gt;Node30</title>
<path fill="none" stroke="#191970" d="M2519.9327,-342.3833C2547.2133,-322.5744 2607.8744,-278.5275 2640.7644,-254.6456"/>
<polygon fill="#191970" stroke="#191970" points="2642.8375,-257.4657 2648.8728,-248.7579 2638.7245,-251.8014 2642.8375,-257.4657"/>
</g>
<!-- Node29&#45;&gt;Node3 -->
<g id="edge66" class="edge">
<title>Node29&#45;&gt;Node3</title>
<path fill="none" stroke="#191970" d="M2519.1432,-171.3039C2500.758,-156.1046 2463.6583,-127.817 2427,-114 2377.7587,-95.4402 2228.4351,-78.9856 2153.2499,-71.6103"/>
<polygon fill="#191970" stroke="#191970" points="2153.4423,-68.1126 2143.1511,-70.6305 2152.7663,-75.0799 2153.4423,-68.1126"/>
</g>
<!-- Node29&#45;&gt;Node4 -->
<g id="edge67" class="edge">
<title>Node29&#45;&gt;Node4</title>
<path fill="none" stroke="#191970" d="M2523.516,-171.4208C2511.7622,-156.3742 2487.462,-128.2833 2460,-114 2376.7259,-70.6881 2093.6941,-29.8687 1987.6033,-15.7327"/>
<polygon fill="#191970" stroke="#191970" points="1987.9801,-12.2521 1977.6074,-14.4102 1987.0619,-19.1917 1987.9801,-12.2521"/>
</g>
<!-- Node29&#45;&gt;Node11 -->
<g id="edge65" class="edge">
<title>Node29&#45;&gt;Node11</title>
<path fill="none" stroke="#191970" d="M2561.8837,-171.4408C2592.6073,-161.4336 2639.6513,-146.1107 2671.5639,-135.7163"/>
<polygon fill="#191970" stroke="#191970" points="2672.9292,-138.9527 2681.3536,-132.5277 2670.7613,-132.2968 2672.9292,-138.9527"/>
</g>
<!-- Node30&#45;&gt;Node11 -->
<g id="edge69" class="edge">
<title>Node30&#45;&gt;Node11</title>
<path fill="none" stroke="#191970" d="M2693.3516,-228.374C2710.0222,-221.0777 2729.244,-209.4064 2739,-192 2748.2765,-175.4491 2736.3584,-155.9152 2724.3356,-142.1311"/>
<polygon fill="#191970" stroke="#191970" points="2726.7996,-139.6421 2717.4041,-134.7457 2721.6955,-144.4325 2726.7996,-139.6421"/>
</g>
<!-- Node31 -->
<g id="node31" class="node">
<title>Node31</title>
<polygon fill="none" stroke="#bfbfbf" points="2905.5,-171.5 2905.5,-191.5 2944.5,-191.5 2944.5,-171.5 2905.5,-171.5"/>
<text text-anchor="middle" x="2925" y="-178.5" font-family="FreeSans" font-size="10.00" fill="#000000">map</text>
</g>
<!-- Node30&#45;&gt;Node31 -->
<g id="edge70" class="edge">
<title>Node30&#45;&gt;Node31</title>
<path fill="none" stroke="#191970" d="M2703.65,-229.6563C2756.8332,-218.0859 2848.7526,-198.0882 2895.6437,-187.8867"/>
<polygon fill="#191970" stroke="#191970" points="2896.4465,-191.294 2905.4739,-185.748 2894.9584,-184.454 2896.4465,-191.294"/>
</g>
<!-- Node32&#45;&gt;Node9 -->
<g id="edge73" class="edge">
<title>Node32&#45;&gt;Node9</title>
<path fill="none" stroke="#191970" d="M439.0421,-456.4663C368.079,-438.2622 232,-397.4889 232,-352.5 232,-352.5 232,-352.5 232,-238.5 232,-196.8011 269.0024,-160.5004 294.1796,-140.6271"/>
<polygon fill="#191970" stroke="#191970" points="296.3524,-143.3719 302.1941,-134.5331 292.1154,-137.7998 296.3524,-143.3719"/>
</g>
<!-- Node33&#45;&gt;Node8 -->
<g id="edge75" class="edge">
<title>Node33&#45;&gt;Node8</title>
<path fill="none" stroke="#191970" d="M90.4846,-399.2465C75.5028,-380.1283 46,-337.1877 46,-295.5 46,-295.5 46,-295.5 46,-238.5 46,-142.8697 168.1886,-98.5658 248.4723,-79.7772"/>
<polygon fill="#191970" stroke="#191970" points="249.548,-83.1225 258.5307,-77.5045 248.0052,-76.2946 249.548,-83.1225"/>
</g>
<!-- Node34&#45;&gt;Node3 -->
<g id="edge96" class="edge">
<title>Node34&#45;&gt;Node3</title>
<path fill="none" stroke="#191970" d="M3138.0989,-290.3582C3276.7288,-281.7497 3533.4336,-263.8977 3547,-249 3553.2841,-242.0992 3552.4125,-235.6037 3547,-228 3457.2579,-101.927 3370.0326,-142.8814 3218,-114 3008.5969,-74.2201 2332.9778,-68.4677 2153.2558,-67.6389"/>
<polygon fill="#191970" stroke="#191970" points="2153.1285,-64.1384 2143.1134,-67.595 2153.0981,-71.1384 2153.1285,-64.1384"/>
</g>
<!-- Node34&#45;&gt;Node11 -->
<g id="edge95" class="edge">
<title>Node34&#45;&gt;Node11</title>
<path fill="none" stroke="#191970" d="M2981.6949,-285.4871C2945.835,-278.5004 2902.1259,-267.0917 2866,-249 2816.8447,-224.3833 2813.5867,-204.5025 2770,-171 2756.5059,-160.6279 2741.0793,-149.4014 2728.7531,-140.5781"/>
<polygon fill="#191970" stroke="#191970" points="2730.5727,-137.5771 2720.3976,-134.6247 2726.5107,-143.278 2730.5727,-137.5771"/>
</g>
<!-- Node34&#45;&gt;Node27 -->
<g id="edge94" class="edge">
<title>Node34&#45;&gt;Node27</title>
<path fill="none" stroke="#191970" d="M3138.0291,-286.2723C3142.7535,-285.8276 3147.4339,-285.4003 3152,-285 3375.7126,-265.3868 3432.8712,-274.4073 3656,-249 3657.1113,-248.8735 3658.2325,-248.7418 3659.3611,-248.6057"/>
<polygon fill="#191970" stroke="#191970" points="3660.1929,-252.0274 3669.6613,-247.2734 3659.2949,-245.0852 3660.1929,-252.0274"/>
</g>
<!-- Node35 -->
<g id="node35" class="node">
<title>Node35</title>
<g id="a_node35"><a xlink:href="../../db/dae/G4ShellData_8hh.html" target="_top" xlink:title="G4ShellData.hh">
<polygon fill="none" stroke="#000000" points="2874.5,-228.5 2874.5,-248.5 2969.5,-248.5 2969.5,-228.5 2874.5,-228.5"/>
<text text-anchor="middle" x="2922" y="-235.5" font-family="FreeSans" font-size="10.00" fill="#000000">G4ShellData.hh</text>
</a>
</g>
</g>
<!-- Node34&#45;&gt;Node35 -->
<g id="edge81" class="edge">
<title>Node34&#45;&gt;Node35</title>
<path fill="none" stroke="#191970" d="M3028.2343,-285.4408C3007.7286,-276.3801 2977.3603,-262.9615 2954.3385,-252.7891"/>
<polygon fill="#191970" stroke="#191970" points="2955.5335,-249.4907 2944.972,-248.6504 2952.7043,-255.8935 2955.5335,-249.4907"/>
</g>
<!-- Node36 -->
<g id="node36" class="node">
<title>Node36</title>
<g id="a_node36"><a xlink:href="../../d9/d58/G4FluoTransition_8hh.html" target="_top" xlink:title="G4FluoTransition.hh">
<polygon fill="none" stroke="#000000" points="3420.5,-228.5 3420.5,-248.5 3537.5,-248.5 3537.5,-228.5 3420.5,-228.5"/>
<text text-anchor="middle" x="3479" y="-235.5" font-family="FreeSans" font-size="10.00" fill="#000000">G4FluoTransition.hh</text>
</a>
</g>
</g>
<!-- Node34&#45;&gt;Node36 -->
<g id="edge85" class="edge">
<title>Node34&#45;&gt;Node36</title>
<path fill="none" stroke="#191970" d="M3133.2915,-285.4586C3203.9565,-276.7003 3308.825,-263.3816 3410.2852,-249.0739"/>
<polygon fill="#191970" stroke="#191970" points="3410.9973,-252.5081 3420.4083,-247.6414 3410.0165,-245.5771 3410.9973,-252.5081"/>
</g>
<!-- Node37 -->
<g id="node37" class="node">
<title>Node37</title>
<g id="a_node37"><a xlink:href="../../df/d06/G4AugerTransition_8hh.html" target="_top" xlink:title="G4AugerTransition.hh">
<polygon fill="none" stroke="#000000" points="2988,-228.5 2988,-248.5 3114,-248.5 3114,-228.5 2988,-228.5"/>
<text text-anchor="middle" x="3051" y="-235.5" font-family="FreeSans" font-size="10.00" fill="#000000">G4AugerTransition.hh</text>
</a>
</g>
</g>
<!-- Node34&#45;&gt;Node37 -->
<g id="edge89" class="edge">
<title>Node34&#45;&gt;Node37</title>
<path fill="none" stroke="#191970" d="M3051,-285.3095C3051,-277.9335 3051,-267.72 3051,-258.715"/>
<polygon fill="#191970" stroke="#191970" points="3054.5001,-258.6022 3051,-248.6022 3047.5001,-258.6023 3054.5001,-258.6022"/>
</g>
<!-- Node35&#45;&gt;Node3 -->
<g id="edge82" class="edge">
<title>Node35&#45;&gt;Node3</title>
<path fill="none" stroke="#191970" d="M2938.0652,-228.3571C2956.0203,-215.6541 2981.1993,-192.8907 2970,-171 2950.2804,-132.4552 2931.7858,-128.5288 2891,-114 2821.5701,-89.2675 2309.0311,-73.0795 2153.5735,-68.6989"/>
<polygon fill="#191970" stroke="#191970" points="2153.5268,-65.1963 2143.4329,-68.4157 2153.3313,-72.1936 2153.5268,-65.1963"/>
</g>
<!-- Node35&#45;&gt;Node11 -->
<g id="edge83" class="edge">
<title>Node35&#45;&gt;Node11</title>
<path fill="none" stroke="#191970" d="M2933.2077,-228.4669C2947.5131,-214.4584 2968.7427,-188.7639 2954,-171 2927.2895,-138.8158 2802.4434,-128.7729 2740.7237,-125.7471"/>
<polygon fill="#191970" stroke="#191970" points="2740.826,-122.2483 2730.6771,-125.2895 2740.5074,-129.241 2740.826,-122.2483"/>
</g>
<!-- Node35&#45;&gt;Node31 -->
<g id="edge84" class="edge">
<title>Node35&#45;&gt;Node31</title>
<path fill="none" stroke="#191970" d="M2922.5363,-228.3095C2922.9246,-220.9335 2923.4621,-210.72 2923.9361,-201.715"/>
<polygon fill="#191970" stroke="#191970" points="2927.4378,-201.7724 2924.4683,-191.6022 2920.4475,-201.4044 2927.4378,-201.7724"/>
</g>
<!-- Node36&#45;&gt;Node3 -->
<g id="edge87" class="edge">
<title>Node36&#45;&gt;Node3</title>
<path fill="none" stroke="#191970" d="M3460.2922,-228.4565C3412.7816,-203.5372 3282.935,-139.0792 3166,-114 3066.0782,-92.5697 2341.1117,-73.2586 2153.3231,-68.577"/>
<polygon fill="#191970" stroke="#191970" points="2153.34,-65.0764 2143.2563,-68.3273 2153.1663,-72.0743 2153.34,-65.0764"/>
</g>
<!-- Node36&#45;&gt;Node11 -->
<g id="edge88" class="edge">
<title>Node36&#45;&gt;Node11</title>
<path fill="none" stroke="#191970" d="M3448.2249,-228.4504C3400.9766,-213.4426 3307.4742,-185.4016 3226,-171 3045.154,-139.0331 2824.8313,-128.5391 2740.8109,-125.5525"/>
<polygon fill="#191970" stroke="#191970" points="2740.6766,-122.046 2730.5628,-125.2019 2740.4372,-129.0419 2740.6766,-122.046"/>
</g>
<!-- Node36&#45;&gt;Node23 -->
<g id="edge86" class="edge">
<title>Node36&#45;&gt;Node23</title>
<path fill="none" stroke="#191970" d="M3423.7624,-228.4408C3368.4654,-218.3707 3283.61,-202.9178 3226.518,-192.5208"/>
<polygon fill="#191970" stroke="#191970" points="3227.0123,-189.0534 3216.547,-190.705 3225.7581,-195.9401 3227.0123,-189.0534"/>
</g>
<!-- Node37&#45;&gt;Node3 -->
<g id="edge91" class="edge">
<title>Node37&#45;&gt;Node3</title>
<path fill="none" stroke="#191970" d="M3045.2899,-228.3164C3030.2778,-202.7746 2986.839,-136.4349 2929,-114 2856.6322,-85.9296 2314.1229,-71.9695 2153.6082,-68.4242"/>
<polygon fill="#191970" stroke="#191970" points="2153.2331,-64.9153 2143.1591,-68.1963 2153.0804,-71.9136 2153.2331,-64.9153"/>
</g>
<!-- Node37&#45;&gt;Node11 -->
<g id="edge92" class="edge">
<title>Node37&#45;&gt;Node11</title>
<path fill="none" stroke="#191970" d="M3042.1836,-228.3562C3028.4106,-213.2253 3000.2193,-185.0257 2970,-171 2929.6958,-152.2936 2802.6333,-135.622 2740.6648,-128.3576"/>
<polygon fill="#191970" stroke="#191970" points="2740.9289,-124.8649 2730.593,-127.1927 2740.1246,-131.8185 2740.9289,-124.8649"/>
</g>
<!-- Node37&#45;&gt;Node23 -->
<g id="edge90" class="edge">
<title>Node37&#45;&gt;Node23</title>
<path fill="none" stroke="#191970" d="M3071.295,-228.4408C3089.3305,-219.5014 3115.9242,-206.3202 3136.343,-196.1996"/>
<polygon fill="#191970" stroke="#191970" points="3138.1156,-199.2273 3145.5211,-191.6504 3135.0069,-192.9555 3138.1156,-199.2273"/>
</g>
<!-- Node37&#45;&gt;Node31 -->
<g id="edge93" class="edge">
<title>Node37&#45;&gt;Node31</title>
<path fill="none" stroke="#191970" d="M3028.7638,-228.4408C3007.8694,-218.9886 2976.4915,-204.7938 2953.7131,-194.4893"/>
<polygon fill="#191970" stroke="#191970" points="2955.0868,-191.2692 2944.5331,-190.3364 2952.2016,-197.647 2955.0868,-191.2692"/>
</g>
<!-- Node38&#45;&gt;Node3 -->
<g id="edge99" class="edge">
<title>Node38&#45;&gt;Node3</title>
<path fill="none" stroke="#191970" d="M3816.8326,-228.3911C3765.6343,-203.3206 3625.8281,-138.5409 3501,-114 3366.3423,-87.5266 2375.819,-71.4381 2153.2953,-68.1349"/>
<polygon fill="#191970" stroke="#191970" points="2153.3365,-64.6353 2143.2859,-67.9873 2153.2332,-71.6345 2153.3365,-64.6353"/>
</g>
<!-- Node38&#45;&gt;Node4 -->
<g id="edge100" class="edge">
<title>Node38&#45;&gt;Node4</title>
<path fill="none" stroke="#191970" d="M3831.0448,-228.491C3811.1769,-196.2001 3743.4535,-94.6974 3656,-57 3577.0253,-22.9574 2239.9553,-12.44 1987.8255,-10.7555"/>
<polygon fill="#191970" stroke="#191970" points="1987.6624,-7.2544 1977.6395,-10.6883 1987.6162,-14.2543 1987.6624,-7.2544"/>
</g>
<!-- Node38&#45;&gt;Node10 -->
<g id="edge101" class="edge">
<title>Node38&#45;&gt;Node10</title>
<path fill="none" stroke="#191970" d="M3793.9659,-229.1657C3790.9413,-228.7085 3787.9307,-228.3111 3785,-228 3460.3548,-193.5408 1173.3304,-201.5108 847,-192 796.6578,-190.5328 740.1028,-187.9343 695.9131,-185.6895"/>
<polygon fill="#191970" stroke="#191970" points="695.9867,-182.1887 685.8206,-185.172 695.6282,-189.1795 695.9867,-182.1887"/>
</g>
<!-- Node39&#45;&gt;Node3 -->
<g id="edge103" class="edge">
<title>Node39&#45;&gt;Node3</title>
<path fill="none" stroke="#191970" d="M161.0889,-228.4811C164.3577,-203.905 176.5157,-140.6986 217,-114 256.839,-87.727 1783.4146,-70.8358 2064.6949,-67.9433"/>
<polygon fill="#191970" stroke="#191970" points="2064.9584,-71.4409 2074.922,-67.8387 2064.8867,-64.4412 2064.9584,-71.4409"/>
</g>
<!-- Node39&#45;&gt;Node4 -->
<g id="edge104" class="edge">
<title>Node39&#45;&gt;Node4</title>
<path fill="none" stroke="#191970" d="M158.8755,-228.251C155.9978,-196.1149 152.2017,-97.0874 209,-57 244.8204,-31.7185 1647.974,-14.0165 1906.3371,-10.968"/>
<polygon fill="#191970" stroke="#191970" points="1906.4561,-14.4669 1916.4143,-10.8497 1906.3739,-7.4674 1906.4561,-14.4669"/>
</g>
<!-- Node39&#45;&gt;Node10 -->
<g id="edge105" class="edge">
<title>Node39&#45;&gt;Node10</title>
<path fill="none" stroke="#191970" d="M204.0108,-233.0346C282.0277,-223.3462 445.4623,-203.0504 542.3229,-191.022"/>
<polygon fill="#191970" stroke="#191970" points="542.8571,-194.4826 552.3495,-189.7769 541.9943,-187.536 542.8571,-194.4826"/>
</g>
<!-- Node40&#45;&gt;Node3 -->
<g id="edge107" class="edge">
<title>Node40&#45;&gt;Node3</title>
<path fill="none" stroke="#191970" d="M561.0742,-228.1818C549.3838,-214.7163 532.7733,-190.5636 543,-171 563.5617,-131.6657 582.8602,-127.9359 625,-114 695.0074,-90.8481 1825.7497,-71.9296 2064.8218,-68.177"/>
<polygon fill="#191970" stroke="#191970" points="2064.9424,-71.6756 2074.8865,-68.0197 2064.833,-64.6765 2064.9424,-71.6756"/>
</g>
<!-- Node40&#45;&gt;Node4 -->
<g id="edge108" class="edge">
<title>Node40&#45;&gt;Node4</title>
<path fill="none" stroke="#191970" d="M527.3209,-232.2823C441.1935,-219.0335 254.538,-185.0847 217,-135 205.1576,-119.1994 204.5051,-75.3108 225,-57 257.3772,-28.0731 1648.6787,-13.3573 1906.2234,-10.8786"/>
<polygon fill="#191970" stroke="#191970" points="1906.3069,-14.3781 1916.273,-10.7826 1906.24,-7.3784 1906.3069,-14.3781"/>
</g>
<!-- Node40&#45;&gt;Node10 -->
<g id="edge109" class="edge">
<title>Node40&#45;&gt;Node10</title>
<path fill="none" stroke="#191970" d="M579.5814,-228.3095C586.3389,-220.2851 595.9244,-208.9022 603.9509,-199.3708"/>
<polygon fill="#191970" stroke="#191970" points="606.7287,-201.5059 610.4929,-191.6022 601.3743,-196.9969 606.7287,-201.5059"/>
</g>
<!-- Node41&#45;&gt;Node3 -->
<g id="edge111" class="edge">
<title>Node41&#45;&gt;Node3</title>
<path fill="none" stroke="#191970" d="M1647.0223,-228.4245C1679.474,-219.8673 1726.1936,-206.6645 1766,-192 1845.5233,-162.7039 1860.2446,-142.6584 1940,-114 1981.704,-99.0145 2030.6479,-86.0311 2065.0999,-77.6212"/>
<polygon fill="#191970" stroke="#191970" points="2065.9578,-81.0147 2074.8579,-75.2668 2064.316,-74.21 2065.9578,-81.0147"/>
</g>
<!-- Node41&#45;&gt;Node11 -->
<g id="edge114" class="edge">
<title>Node41&#45;&gt;Node11</title>
<path fill="none" stroke="#191970" d="M1699.2809,-228.9276C1929.6211,-205.0343 2522.0653,-143.5797 2671.4151,-128.0875"/>
<polygon fill="#191970" stroke="#191970" points="2671.806,-131.5658 2681.3915,-127.0527 2671.0837,-124.6032 2671.806,-131.5658"/>
</g>
<!-- Node41&#45;&gt;Node31 -->
<g id="edge115" class="edge">
<title>Node41&#45;&gt;Node31</title>
<path fill="none" stroke="#191970" d="M1699.27,-228.7329C1702.5524,-228.471 1705.8036,-228.2254 1709,-228 1769.9243,-223.7038 2713.227,-189.2184 2894.868,-182.5972"/>
<polygon fill="#191970" stroke="#191970" points="2895.1665,-186.0888 2905.0324,-182.2268 2894.9115,-179.0934 2895.1665,-186.0888"/>
</g>
<!-- Node41&#45;&gt;Node42 -->
<g id="edge112" class="edge">
<title>Node41&#45;&gt;Node42</title>
<path fill="none" stroke="#191970" d="M1514.8032,-230.7831C1380.5432,-219.5455 1133.4145,-198.8607 1006.2474,-188.2167"/>
<polygon fill="#191970" stroke="#191970" points="1006.4416,-184.7208 996.1844,-187.3745 1005.8576,-191.6965 1006.4416,-184.7208"/>
</g>
<!-- Node42&#45;&gt;Node3 -->
<g id="edge113" class="edge">
<title>Node42&#45;&gt;Node3</title>
<path fill="none" stroke="#191970" d="M934.5497,-171.3599C948.4808,-155.6845 977.7784,-126.1136 1010,-114 1109.8298,-76.4693 1872.2779,-69.0305 2064.9042,-67.7444"/>
<polygon fill="#191970" stroke="#191970" points="2064.9729,-71.2441 2074.9501,-67.6795 2064.9277,-64.2443 2064.9729,-71.2441"/>
</g>
<!-- Node43&#45;&gt;Node3 -->
<g id="edge118" class="edge">
<title>Node43&#45;&gt;Node3</title>
<path fill="none" stroke="#191970" d="M1088.7684,-456.4751C1066.5146,-438.361 1024,-397.824 1024,-352.5 1024,-352.5 1024,-352.5 1024,-181.5 1024,-117.5784 1089.3689,-130.9583 1151,-114 1239.5989,-89.6213 1887.6846,-72.7115 2064.5282,-68.5159"/>
<polygon fill="#191970" stroke="#191970" points="2064.8526,-72.0094 2074.7674,-68.2748 2064.6877,-65.0113 2064.8526,-72.0094"/>
</g>
<!-- Node44&#45;&gt;Node3 -->
<g id="edge120" class="edge">
<title>Node44&#45;&gt;Node3</title>
<path fill="none" stroke="#191970" d="M1984.5969,-228.253C1992.8943,-219.1264 2004.9456,-205.2102 2014,-192 2036.3799,-159.348 2032.3404,-144.9664 2057,-114 2065.8411,-102.8978 2077.4844,-92.216 2087.5118,-83.8961"/>
<polygon fill="#191970" stroke="#191970" points="2089.8587,-86.5002 2095.4577,-77.5056 2085.4717,-81.0454 2089.8587,-86.5002"/>
</g>
<!-- Node44&#45;&gt;Node23 -->
<g id="edge126" class="edge">
<title>Node44&#45;&gt;Node23</title>
<path fill="none" stroke="#191970" d="M2043.2489,-235.306C2202.6717,-227.8347 2611.9615,-208.5933 2954,-192 3005.0055,-189.5256 3062.9104,-186.6534 3105.3001,-184.5391"/>
<polygon fill="#191970" stroke="#191970" points="3105.6434,-188.0264 3115.4565,-184.0322 3105.2944,-181.0351 3105.6434,-188.0264"/>
</g>
<!-- Node45 -->
<g id="node45" class="node">
<title>Node45</title>
<g id="a_node45"><a xlink:href="../../d1/d6f/G4PhysicsVector_8hh.html" target="_top" xlink:title="G4PhysicsVector.hh">
<polygon fill="none" stroke="#ff0000" points="1889.5,-171.5 1889.5,-191.5 2004.5,-191.5 2004.5,-171.5 1889.5,-171.5"/>
<text text-anchor="middle" x="1947" y="-178.5" font-family="FreeSans" font-size="10.00" fill="#000000">G4PhysicsVector.hh</text>
</a>
</g>
</g>
<!-- Node44&#45;&gt;Node45 -->
<g id="edge121" class="edge">
<title>Node44&#45;&gt;Node45</title>
<path fill="none" stroke="#191970" d="M1969.9942,-228.3095C1966.2514,-220.6903 1961.0213,-210.0435 1956.4947,-200.8285"/>
<polygon fill="#191970" stroke="#191970" points="1959.513,-199.0346 1951.9625,-191.6022 1953.2302,-202.121 1959.513,-199.0346"/>
</g>
<!-- Node45&#45;&gt;Node3 -->
<g id="edge123" class="edge">
<title>Node45&#45;&gt;Node3</title>
<path fill="none" stroke="#191970" d="M1956.0416,-171.4204C1969.0113,-157.3567 1994.0898,-131.5971 2019,-114 2036.6954,-101.4996 2058.2006,-90.2623 2075.7516,-81.9671"/>
<polygon fill="#191970" stroke="#191970" points="2077.4367,-85.0441 2085.0461,-77.6719 2074.5002,-78.6898 2077.4367,-85.0441"/>
</g>
<!-- Node45&#45;&gt;Node4 -->
<g id="edge124" class="edge">
<title>Node45&#45;&gt;Node4</title>
<path fill="none" stroke="#191970" d="M1947,-171.3153C1947,-143.8178 1947,-67.6748 1947,-30.8993"/>
<polygon fill="#191970" stroke="#191970" points="1950.5001,-30.8475 1947,-20.8476 1943.5001,-30.8476 1950.5001,-30.8475"/>
</g>
<!-- Node45&#45;&gt;Node11 -->
<g id="edge122" class="edge">
<title>Node45&#45;&gt;Node11</title>
<path fill="none" stroke="#191970" d="M2004.6713,-177.169C2154.2747,-165.9339 2551.4828,-136.1041 2671.3033,-127.1057"/>
<polygon fill="#191970" stroke="#191970" points="2671.67,-130.5881 2681.3798,-126.349 2671.1457,-123.6078 2671.67,-130.5881"/>
</g>
<!-- Node45&#45;&gt;Node17 -->
<g id="edge125" class="edge">
<title>Node45&#45;&gt;Node17</title>
<path fill="none" stroke="#191970" d="M1889.3217,-177.1455C1743.4725,-166.1344 1362.4752,-137.3703 1234.5726,-127.7141"/>
<polygon fill="#191970" stroke="#191970" points="1234.6317,-124.2087 1224.3965,-126.9458 1234.1046,-131.1888 1234.6317,-124.2087"/>
</g>
<!-- Node46&#45;&gt;Node3 -->
<g id="edge128" class="edge">
<title>Node46&#45;&gt;Node3</title>
<path fill="none" stroke="#191970" d="M1797.4612,-228.3449C1815.8747,-214.6385 1850.1558,-189.7747 1881,-171 1927.3617,-142.7799 1939.6129,-136.5098 1989,-114 2015.6839,-101.8379 2046.5492,-89.9239 2070.2942,-81.2004"/>
<polygon fill="#191970" stroke="#191970" points="2071.8028,-84.376 2080.0018,-77.6657 2069.4078,-77.7985 2071.8028,-84.376"/>
</g>
<!-- Node46&#45;&gt;Node45 -->
<g id="edge129" class="edge">
<title>Node46&#45;&gt;Node45</title>
<path fill="none" stroke="#191970" d="M1812.7659,-228.4408C1839.4524,-219.1087 1879.3586,-205.1537 1908.7267,-194.8839"/>
<polygon fill="#191970" stroke="#191970" points="1909.9638,-198.1592 1918.248,-191.5544 1907.6531,-191.5516 1909.9638,-198.1592"/>
</g>
<!-- Node47&#45;&gt;Node3 -->
<g id="edge133" class="edge">
<title>Node47&#45;&gt;Node3</title>
<path fill="none" stroke="#191970" d="M2069.3397,-399.2491C2076.5011,-390.1199 2086.7814,-376.2023 2094,-363 2132.2351,-293.0709 2142.4479,-271.5058 2148,-192 2150.4277,-157.2361 2152.3975,-146.5687 2140,-114 2136.1978,-104.0114 2129.9279,-94.0091 2124.018,-85.8545"/>
<polygon fill="#191970" stroke="#191970" points="2126.7318,-83.6414 2117.8802,-77.819 2121.169,-87.8905 2126.7318,-83.6414"/>
</g>
<!-- Node47&#45;&gt;Node11 -->
<g id="edge132" class="edge">
<title>Node47&#45;&gt;Node11</title>
<path fill="none" stroke="#191970" d="M2076.4381,-399.3894C2089.9102,-390.3501 2109.7849,-376.4856 2126,-363 2164.4254,-331.0428 2162.9377,-308.5858 2207,-285 2291.8533,-239.5795 2544.2488,-235.7017 2630,-192 2654.1447,-179.6951 2676.6695,-157.8643 2690.8299,-142.3635"/>
<polygon fill="#191970" stroke="#191970" points="2693.7816,-144.3098 2697.7935,-134.5039 2688.5422,-139.6678 2693.7816,-144.3098"/>
</g>
<!-- Node47&#45;&gt;Node31 -->
<g id="edge131" class="edge">
<title>Node47&#45;&gt;Node31</title>
<path fill="none" stroke="#191970" d="M2130.0648,-406.4904C2264.2423,-400.1997 2550.5011,-384.4445 2590,-363 2628.6765,-342.002 2615.547,-311.0744 2651,-285 2691.5633,-255.1672 2833.3461,-209.5509 2895.4648,-190.4254"/>
<polygon fill="#191970" stroke="#191970" points="2896.8736,-193.6545 2905.4108,-187.3802 2894.8243,-186.9611 2896.8736,-193.6545"/>
</g>
<!-- Node48 -->
<g id="node48" class="node">
<title>Node48</title>
<g id="a_node48"><a xlink:href="../../d7/d4b/G4ThreadLocalSingleton_8hh.html" target="_top" xlink:title="G4ThreadLocalSingleton.hh">
<polygon fill="none" stroke="#ff0000" points="1643,-342.5 1643,-362.5 1799,-362.5 1799,-342.5 1643,-342.5"/>
<text text-anchor="middle" x="1721" y="-349.5" font-family="FreeSans" font-size="10.00" fill="#000000">G4ThreadLocalSingleton.hh</text>
</a>
</g>
</g>
<!-- Node47&#45;&gt;Node48 -->
<g id="edge134" class="edge">
<title>Node47&#45;&gt;Node48</title>
<path fill="none" stroke="#191970" d="M2000.9975,-399.4408C1942.2167,-389.5863 1852.6882,-374.5771 1790.7633,-364.1956"/>
<polygon fill="#191970" stroke="#191970" points="1791.129,-360.7081 1780.6879,-362.5065 1789.9715,-367.6118 1791.129,-360.7081"/>
</g>
<!-- Node49 -->
<g id="node49" class="node">
<title>Node49</title>
<g id="a_node49"><a xlink:href="../../d7/d4d/G4VEnergyLossProcess_8hh.html" target="_top" xlink:title="G4VEnergyLossProcess.hh">
<polygon fill="none" stroke="#ff0000" points="1935.5,-342.5 1935.5,-362.5 2084.5,-362.5 2084.5,-342.5 1935.5,-342.5"/>
<text text-anchor="middle" x="2010" y="-349.5" font-family="FreeSans" font-size="10.00" fill="#000000">G4VEnergyLossProcess.hh</text>
</a>
</g>
</g>
<!-- Node47&#45;&gt;Node49 -->
<g id="edge136" class="edge">
<title>Node47&#45;&gt;Node49</title>
<path fill="none" stroke="#191970" d="M2051.8822,-399.3095C2044.6299,-391.204 2034.3117,-379.672 2025.7318,-370.0826"/>
<polygon fill="#191970" stroke="#191970" points="2028.3152,-367.7209 2019.0388,-362.6022 2023.0985,-372.3885 2028.3152,-367.7209"/>
</g>
<!-- Node48&#45;&gt;Node13 -->
<g id="edge135" class="edge">
<title>Node48&#45;&gt;Node13</title>
<path fill="none" stroke="#191970" d="M1642.9925,-349.9033C1328.6231,-339.1316 168.5518,-296.3092 107,-249 56.1439,-209.9117 47.2966,-126.637 46.0234,-87.9906"/>
<polygon fill="#191970" stroke="#191970" points="49.5218,-87.8684 45.8346,-77.9359 42.5231,-87.9999 49.5218,-87.8684"/>
</g>
<!-- Node49&#45;&gt;Node3 -->
<g id="edge137" class="edge">
<title>Node49&#45;&gt;Node3</title>
<path fill="none" stroke="#191970" d="M2023.5576,-342.3633C2051.218,-321.3456 2112.4436,-272.984 2123,-249 2146.8956,-194.7093 2128.2276,-122.4665 2116.5632,-87.777"/>
<polygon fill="#191970" stroke="#191970" points="2119.709,-86.1729 2113.085,-77.9041 2113.1067,-88.4989 2119.709,-86.1729"/>
</g>
<!-- Node49&#45;&gt;Node21 -->
<g id="edge138" class="edge">
<title>Node49&#45;&gt;Node21</title>
<path fill="none" stroke="#191970" d="M1969.0571,-342.4408C1929.9178,-332.8246 1870.8001,-318.3 1828.701,-307.9567"/>
<polygon fill="#191970" stroke="#191970" points="1829.4694,-304.5415 1818.9231,-305.5544 1827.7992,-311.3393 1829.4694,-304.5415"/>
</g>
<!-- Node49&#45;&gt;Node24 -->
<g id="edge139" class="edge">
<title>Node49&#45;&gt;Node24</title>
<path fill="none" stroke="#191970" d="M2060.4727,-342.4408C2109.3328,-332.7029 2183.4488,-317.9315 2235.4585,-307.566"/>
<polygon fill="#191970" stroke="#191970" points="2236.4287,-310.9415 2245.5517,-305.5544 2235.0604,-304.0765 2236.4287,-310.9415"/>
</g>
<!-- Node49&#45;&gt;Node26 -->
<g id="edge141" class="edge">
<title>Node49&#45;&gt;Node26</title>
<path fill="none" stroke="#191970" d="M2084.6405,-346.5077C2222.3974,-335.4484 2514.7933,-311.9743 2649.4346,-301.1651"/>
<polygon fill="#191970" stroke="#191970" points="2649.9432,-304.6356 2659.631,-300.3465 2649.3829,-297.6581 2649.9432,-304.6356"/>
</g>
<!-- Node49&#45;&gt;Node45 -->
<g id="edge140" class="edge">
<title>Node49&#45;&gt;Node45</title>
<path fill="none" stroke="#191970" d="M1991.7393,-342.3595C1965.2425,-326.4635 1917.2076,-292.9032 1898,-249 1889.5975,-229.7942 1906.3673,-210.7247 1922.5269,-197.7789"/>
<polygon fill="#191970" stroke="#191970" points="1924.8757,-200.3928 1930.7852,-191.599 1920.6817,-194.7882 1924.8757,-200.3928"/>
</g>
<!-- Node50&#45;&gt;Node3 -->
<g id="edge143" class="edge">
<title>Node50&#45;&gt;Node3</title>
<path fill="none" stroke="#191970" d="M3295.5859,-228.2437C3271.1682,-202.5311 3202.5576,-135.8236 3129,-114 3034.7052,-86.0239 2337.2594,-71.6058 2153.3508,-68.2646"/>
<polygon fill="#191970" stroke="#191970" points="2153.2905,-64.7631 2143.2291,-68.0825 2153.1645,-71.7619 2153.2905,-64.7631"/>
</g>
<!-- Node50&#45;&gt;Node23 -->
<g id="edge144" class="edge">
<title>Node50&#45;&gt;Node23</title>
<path fill="none" stroke="#191970" d="M3280.4696,-228.4408C3258.1769,-219.2992 3225.0667,-205.7216 3200.1828,-195.5174"/>
<polygon fill="#191970" stroke="#191970" points="3201.333,-192.2063 3190.7528,-191.6504 3198.6771,-198.6829 3201.333,-192.2063"/>
</g>
<!-- Node50&#45;&gt;Node31 -->
<g id="edge145" class="edge">
<title>Node50&#45;&gt;Node31</title>
<path fill="none" stroke="#191970" d="M3237.9384,-228.4408C3154.3227,-215.8984 3015.038,-195.0057 2954.5461,-185.9319"/>
<polygon fill="#191970" stroke="#191970" points="2954.9398,-182.4519 2944.5312,-184.4297 2953.9014,-189.3745 2954.9398,-182.4519"/>
</g>
</g>
</svg>
