<?xml version="1.0" encoding="UTF-8" standalone="no"?>
<!DOCTYPE svg PUBLIC "-//W3C//DTD SVG 1.1//EN"
 "http://www.w3.org/Graphics/SVG/1.1/DTD/svg11.dtd">
<!-- Generated by graphviz version 2.40.1 (20161225.0304)
 -->
<!-- Title: G4GeneralParticleSource::ClearAll Pages: 1 -->
<svg width="352pt" height="92pt"
 viewBox="0.00 0.00 352.00 92.00" xmlns="http://www.w3.org/2000/svg" xmlns:xlink="http://www.w3.org/1999/xlink">
<g id="graph0" class="graph" transform="scale(1 1) rotate(0) translate(4 88)">
<title>G4GeneralParticleSource::ClearAll</title>
<!-- Node1 -->
<g id="node1" class="node">
<title>Node1</title>
<polygon fill="#bfbfbf" stroke="#000000" points="0,-25.5 0,-57.5 142,-57.5 142,-25.5 0,-25.5"/>
<text text-anchor="start" x="8" y="-44.5" font-family="FreeSans" font-size="10.00" fill="#000000">G4GeneralParticleSource</text>
<text text-anchor="middle" x="71" y="-32.5" font-family="FreeSans" font-size="10.00" fill="#000000">::ClearAll</text>
</g>
<!-- Node2 -->
<g id="node2" class="node">
<title>Node2</title>
<g id="a_node2"><a xlink:href="../../d6/d54/classG4GeneralParticleSourceData.html#a381f7e90d5023fef2b8745890d88947e" target="_top" xlink:title="G4GeneralParticleSourceData\l::ClearSources">
<polygon fill="none" stroke="#000000" points="178,-51.5 178,-83.5 344,-83.5 344,-51.5 178,-51.5"/>
<text text-anchor="start" x="186" y="-70.5" font-family="FreeSans" font-size="10.00" fill="#000000">G4GeneralParticleSourceData</text>
<text text-anchor="middle" x="261" y="-58.5" font-family="FreeSans" font-size="10.00" fill="#000000">::ClearSources</text>
</a>
</g>
</g>
<!-- Node1&#45;&gt;Node2 -->
<g id="edge1" class="edge">
<title>Node1&#45;&gt;Node2</title>
<path fill="none" stroke="#191970" d="M142.0192,-51.2184C150.4284,-52.3692 159.1059,-53.5566 167.7639,-54.7414"/>
<polygon fill="#191970" stroke="#191970" points="167.5191,-58.2404 177.9013,-56.1286 168.4682,-51.305 167.5191,-58.2404"/>
</g>
<!-- Node3 -->
<g id="node3" class="node">
<title>Node3</title>
<g id="a_node3"><a xlink:href="../../d6/d54/classG4GeneralParticleSourceData.html#a8ac8373e65f1e2f0d6776225832b6c0d" target="_top" xlink:title="G4GeneralParticleSourceData\l::Normalised">
<polygon fill="none" stroke="#000000" points="178,-.5 178,-32.5 344,-32.5 344,-.5 178,-.5"/>
<text text-anchor="start" x="186" y="-19.5" font-family="FreeSans" font-size="10.00" fill="#000000">G4GeneralParticleSourceData</text>
<text text-anchor="middle" x="261" y="-7.5" font-family="FreeSans" font-size="10.00" fill="#000000">::Normalised</text>
</a>
</g>
</g>
<!-- Node1&#45;&gt;Node3 -->
<g id="edge2" class="edge">
<title>Node1&#45;&gt;Node3</title>
<path fill="none" stroke="#191970" d="M142.0192,-32.1554C150.4284,-31.0489 159.1059,-29.9071 167.7639,-28.7679"/>
<polygon fill="#191970" stroke="#191970" points="168.4434,-32.2088 177.9013,-27.434 167.5301,-25.2686 168.4434,-32.2088"/>
</g>
</g>
</svg>
