<?xml version="1.0" encoding="UTF-8" standalone="no"?>
<!DOCTYPE svg PUBLIC "-//W3C//DTD SVG 1.1//EN"
 "http://www.w3.org/Graphics/SVG/1.1/DTD/svg11.dtd">
<!-- Generated by graphviz version 2.40.1 (20161225.0304)
 -->
<!-- Title: CCalEcal::getLayNum Pages: 1 -->
<svg width="504pt" height="29pt"
 viewBox="0.00 0.00 504.00 29.00" xmlns="http://www.w3.org/2000/svg" xmlns:xlink="http://www.w3.org/1999/xlink">
<g id="graph0" class="graph" transform="scale(1 1) rotate(0) translate(4 25)">
<title>CCalEcal::getLayNum</title>
<!-- Node1 -->
<g id="node1" class="node">
<title>Node1</title>
<polygon fill="#bfbfbf" stroke="#000000" points="0,-.5 0,-20.5 125,-20.5 125,-.5 0,-.5"/>
<text text-anchor="middle" x="62.5" y="-7.5" font-family="FreeSans" font-size="10.00" fill="#000000">CCalEcal::getLayNum</text>
</g>
<!-- Node2 -->
<g id="node2" class="node">
<title>Node2</title>
<g id="a_node2"><a xlink:href="../../d6/dd4/classCCalG4Ecal.html#a121bc8e36f3471f9d3c2851f2e6c56c2" target="_top" xlink:title="CCalG4Ecal::constructGlobal">
<polygon fill="none" stroke="#000000" points="161,-.5 161,-20.5 322,-20.5 322,-.5 161,-.5"/>
<text text-anchor="middle" x="241.5" y="-7.5" font-family="FreeSans" font-size="10.00" fill="#000000">CCalG4Ecal::constructGlobal</text>
</a>
</g>
</g>
<!-- Node1&#45;&gt;Node2 -->
<g id="edge1" class="edge">
<title>Node1&#45;&gt;Node2</title>
<path fill="none" stroke="#191970" d="M135.3047,-10.5C143.7677,-10.5 152.4371,-10.5 160.9957,-10.5"/>
<polygon fill="#191970" stroke="#191970" points="135.1055,-7.0001 125.1055,-10.5 135.1055,-14.0001 135.1055,-7.0001"/>
</g>
<!-- Node3 -->
<g id="node3" class="node">
<title>Node3</title>
<g id="a_node3"><a xlink:href="../../d6/dd4/classCCalG4Ecal.html#a0b060b1162f84cce45b91cec7ba62223" target="_top" xlink:title="CCalG4Ecal::constructIn">
<polygon fill="none" stroke="#000000" points="358,-.5 358,-20.5 496,-20.5 496,-.5 358,-.5"/>
<text text-anchor="middle" x="427" y="-7.5" font-family="FreeSans" font-size="10.00" fill="#000000">CCalG4Ecal::constructIn</text>
</a>
</g>
</g>
<!-- Node2&#45;&gt;Node3 -->
<g id="edge2" class="edge">
<title>Node2&#45;&gt;Node3</title>
<path fill="none" stroke="#191970" d="M332.1655,-10.5C340.804,-10.5 349.4667,-10.5 357.8535,-10.5"/>
<polygon fill="#191970" stroke="#191970" points="332.0537,-7.0001 322.0537,-10.5 332.0537,-14.0001 332.0537,-7.0001"/>
</g>
</g>
</svg>
