<?xml version="1.0" encoding="UTF-8" standalone="no"?>
<!DOCTYPE svg PUBLIC "-//W3C//DTD SVG 1.1//EN"
 "http://www.w3.org/Graphics/SVG/1.1/DTD/svg11.dtd">
<!-- Generated by graphviz version 2.40.1 (20161225.0304)
 -->
<!-- Title: G4INCL::CrossSectionsMultiPions::NNThreePi Pages: 1 -->
<svg width="934pt" height="294pt"
 viewBox="0.00 0.00 934.00 294.00" xmlns="http://www.w3.org/2000/svg" xmlns:xlink="http://www.w3.org/1999/xlink">
<g id="graph0" class="graph" transform="scale(1 1) rotate(0) translate(4 290)">
<title>G4INCL::CrossSectionsMultiPions::NNThreePi</title>
<!-- Node1 -->
<g id="node1" class="node">
<title>Node1</title>
<polygon fill="#bfbfbf" stroke="#000000" points="0,-131.5 0,-163.5 155,-163.5 155,-131.5 0,-131.5"/>
<text text-anchor="start" x="8" y="-150.5" font-family="FreeSans" font-size="10.00" fill="#000000">G4INCL::CrossSectionsMulti</text>
<text text-anchor="middle" x="77.5" y="-138.5" font-family="FreeSans" font-size="10.00" fill="#000000">Pions::NNThreePi</text>
</g>
<!-- Node2 -->
<g id="node2" class="node">
<title>Node2</title>
<g id="a_node2"><a xlink:href="../../d5/da6/classG4INCL_1_1CrossSectionsMultiPions.html#ae2fa32f212fc20d515296a18bf03829e" target="_top" xlink:title="Cross section for direct 4&#45;pion production &#45; NN entrance channel.">
<polygon fill="none" stroke="#000000" points="225.5,-221.5 225.5,-253.5 380.5,-253.5 380.5,-221.5 225.5,-221.5"/>
<text text-anchor="start" x="233.5" y="-240.5" font-family="FreeSans" font-size="10.00" fill="#000000">G4INCL::CrossSectionsMulti</text>
<text text-anchor="middle" x="303" y="-228.5" font-family="FreeSans" font-size="10.00" fill="#000000">Pions::NNFourPi</text>
</a>
</g>
</g>
<!-- Node1&#45;&gt;Node2 -->
<g id="edge1" class="edge">
<title>Node1&#45;&gt;Node2</title>
<path fill="none" stroke="#191970" d="M113.6471,-168.771C135.5056,-180.9997 164.2359,-195.9741 191,-206.5 205.3634,-212.1489 221.1438,-217.1899 236.2117,-221.482"/>
<polygon fill="#191970" stroke="#191970" points="115.1521,-165.601 104.7257,-163.7192 111.7028,-171.6923 115.1521,-165.601"/>
</g>
<!-- Node3 -->
<g id="node3" class="node">
<title>Node3</title>
<g id="a_node3"><a xlink:href="../../d5/da6/classG4INCL_1_1CrossSectionsMultiPions.html#abd9fee23f38682877d25d9becee17427" target="_top" xlink:title="Cross section for X pion production &#45; NN Channel.">
<polygon fill="none" stroke="#000000" points="482.5,-202.5 482.5,-234.5 637.5,-234.5 637.5,-202.5 482.5,-202.5"/>
<text text-anchor="start" x="490.5" y="-221.5" font-family="FreeSans" font-size="10.00" fill="#000000">G4INCL::CrossSectionsMulti</text>
<text text-anchor="middle" x="560" y="-209.5" font-family="FreeSans" font-size="10.00" fill="#000000">Pions::NNToxPiNN</text>
</a>
</g>
</g>
<!-- Node1&#45;&gt;Node3 -->
<g id="edge15" class="edge">
<title>Node1&#45;&gt;Node3</title>
<path fill="none" stroke="#191970" d="M151.9128,-165.7069C164.8954,-168.5506 178.3057,-171.2782 191,-173.5 290.965,-190.9965 407.3498,-203.9773 482.2644,-211.3884"/>
<polygon fill="#191970" stroke="#191970" points="152.6093,-162.2763 142.0872,-163.5162 151.0859,-169.1086 152.6093,-162.2763"/>
</g>
<!-- Node7 -->
<g id="node7" class="node">
<title>Node7</title>
<g id="a_node7"><a xlink:href="../../d5/da6/classG4INCL_1_1CrossSectionsMultiPions.html#a951187cdb306ec74bbd6b48e9b7b9bb9" target="_top" xlink:title="Cross section for direct 3&#45;pion production &#45; NN entrance channel.">
<polygon fill="none" stroke="#000000" points="225.5,-131.5 225.5,-163.5 380.5,-163.5 380.5,-131.5 225.5,-131.5"/>
<text text-anchor="start" x="233.5" y="-150.5" font-family="FreeSans" font-size="10.00" fill="#000000">G4INCL::CrossSectionsMulti</text>
<text text-anchor="middle" x="303" y="-138.5" font-family="FreeSans" font-size="10.00" fill="#000000">Pions::NNThreePi</text>
</a>
</g>
</g>
<!-- Node1&#45;&gt;Node7 -->
<g id="edge6" class="edge">
<title>Node1&#45;&gt;Node7</title>
<path fill="none" stroke="#191970" d="M165.3284,-147.5C185.0934,-147.5 205.934,-147.5 225.2526,-147.5"/>
<polygon fill="#191970" stroke="#191970" points="165.1043,-144.0001 155.1043,-147.5 165.1043,-151.0001 165.1043,-144.0001"/>
</g>
<!-- Node8 -->
<g id="node8" class="node">
<title>Node8</title>
<g id="a_node8"><a xlink:href="../../d7/d43/classG4INCL_1_1CrossSectionsMultiPionsAndResonances.html#ab8d5aeac542e44221579f967cb679a7c" target="_top" xlink:title="Cross section for direct 3&#45;pion production &#45; NNEta channel.">
<polygon fill="none" stroke="#000000" points="191,-80.5 191,-112.5 415,-112.5 415,-80.5 191,-80.5"/>
<text text-anchor="start" x="199" y="-99.5" font-family="FreeSans" font-size="10.00" fill="#000000">G4INCL::CrossSectionsMulti</text>
<text text-anchor="middle" x="303" y="-87.5" font-family="FreeSans" font-size="10.00" fill="#000000">PionsAndResonances::NNToNNEtaThreePi</text>
</a>
</g>
</g>
<!-- Node1&#45;&gt;Node8 -->
<g id="edge7" class="edge">
<title>Node1&#45;&gt;Node8</title>
<path fill="none" stroke="#191970" d="M158.3471,-129.2153C182.3952,-123.7765 208.5534,-117.8604 231.9297,-112.5736"/>
<polygon fill="#191970" stroke="#191970" points="157.5217,-125.8135 148.5401,-131.4333 159.0659,-132.6411 157.5217,-125.8135"/>
</g>
<!-- Node11 -->
<g id="node11" class="node">
<title>Node11</title>
<g id="a_node11"><a xlink:href="../../d7/d43/classG4INCL_1_1CrossSectionsMultiPionsAndResonances.html#a3244459ae21e25844154ad7d49ae7a68" target="_top" xlink:title="Cross section for direct 3&#45;pion production &#45; NNOmega channel.">
<polygon fill="none" stroke="#000000" points="200,-17.5 200,-61.5 406,-61.5 406,-17.5 200,-17.5"/>
<text text-anchor="start" x="208" y="-48.5" font-family="FreeSans" font-size="10.00" fill="#000000">G4INCL::CrossSectionsMulti</text>
<text text-anchor="start" x="208" y="-36.5" font-family="FreeSans" font-size="10.00" fill="#000000">PionsAndResonances::NNToNNOmega</text>
<text text-anchor="middle" x="303" y="-24.5" font-family="FreeSans" font-size="10.00" fill="#000000">ThreePi</text>
</a>
</g>
</g>
<!-- Node1&#45;&gt;Node11 -->
<g id="edge11" class="edge">
<title>Node1&#45;&gt;Node11</title>
<path fill="none" stroke="#191970" d="M105.2233,-125.3301C127.3471,-108.5563 159.7136,-86.0067 191,-71.5 198.7972,-67.8847 207.0923,-64.5878 215.5051,-61.6032"/>
<polygon fill="#191970" stroke="#191970" points="103.0625,-122.5765 97.2693,-131.4472 107.3299,-128.1254 103.0625,-122.5765"/>
</g>
<!-- Node2&#45;&gt;Node3 -->
<g id="edge2" class="edge">
<title>Node2&#45;&gt;Node3</title>
<path fill="none" stroke="#191970" d="M391.1533,-230.9828C420.8171,-228.7898 453.6734,-226.3607 482.4585,-224.2326"/>
<polygon fill="#191970" stroke="#191970" points="390.5206,-227.52 380.8059,-231.7478 391.0368,-234.5009 390.5206,-227.52"/>
</g>
<!-- Node4 -->
<g id="node4" class="node">
<title>Node4</title>
<g id="a_node4"><a xlink:href="../../d7/d43/classG4INCL_1_1CrossSectionsMultiPionsAndResonances.html#a86be6e64105effd0e50d8384b4c5bbea" target="_top" xlink:title="Cross section for X pion production &#45; NN Channel.">
<polygon fill="none" stroke="#000000" points="723.5,-253.5 723.5,-285.5 907.5,-285.5 907.5,-253.5 723.5,-253.5"/>
<text text-anchor="start" x="731.5" y="-272.5" font-family="FreeSans" font-size="10.00" fill="#000000">G4INCL::CrossSectionsMulti</text>
<text text-anchor="middle" x="815.5" y="-260.5" font-family="FreeSans" font-size="10.00" fill="#000000">PionsAndResonances::NNToxPiNN</text>
</a>
</g>
</g>
<!-- Node3&#45;&gt;Node4 -->
<g id="edge3" class="edge">
<title>Node3&#45;&gt;Node4</title>
<path fill="none" stroke="#191970" d="M647.5979,-235.9853C675.9598,-241.6466 707.2609,-247.8945 735.076,-253.4467"/>
<polygon fill="#191970" stroke="#191970" points="648.1908,-232.5347 637.6991,-234.0094 646.8205,-239.3992 648.1908,-232.5347"/>
</g>
<!-- Node5 -->
<g id="node5" class="node">
<title>Node5</title>
<g id="a_node5"><a xlink:href="../../d0/d36/classG4INCL_1_1CrossSectionsStrangeness.html#ac144354ef3de156a1713bb7b20dfc6c5" target="_top" xlink:title="Cross section for X pion production &#45; NN Channel.">
<polygon fill="none" stroke="#000000" points="718.5,-202.5 718.5,-234.5 912.5,-234.5 912.5,-202.5 718.5,-202.5"/>
<text text-anchor="start" x="726.5" y="-221.5" font-family="FreeSans" font-size="10.00" fill="#000000">G4INCL::CrossSectionsStrangeness</text>
<text text-anchor="middle" x="815.5" y="-209.5" font-family="FreeSans" font-size="10.00" fill="#000000">::NNToxPiNN</text>
</a>
</g>
</g>
<!-- Node3&#45;&gt;Node5 -->
<g id="edge4" class="edge">
<title>Node3&#45;&gt;Node5</title>
<path fill="none" stroke="#191970" d="M647.9732,-218.5C670.6444,-218.5 695.1721,-218.5 718.2837,-218.5"/>
<polygon fill="#191970" stroke="#191970" points="647.6991,-215.0001 637.6991,-218.5 647.699,-222.0001 647.6991,-215.0001"/>
</g>
<!-- Node6 -->
<g id="node6" class="node">
<title>Node6</title>
<g id="a_node6"><a xlink:href="../../dd/dae/classG4INCL_1_1CrossSectionsTruncatedMultiPions.html#a86f97b56c0a099f95304dc890725f5cb" target="_top" xlink:title="Cross section for X pion production &#45; NN Channel.">
<polygon fill="none" stroke="#000000" points="725.5,-151.5 725.5,-183.5 905.5,-183.5 905.5,-151.5 725.5,-151.5"/>
<text text-anchor="start" x="733.5" y="-170.5" font-family="FreeSans" font-size="10.00" fill="#000000">G4INCL::CrossSectionsTruncated</text>
<text text-anchor="middle" x="815.5" y="-158.5" font-family="FreeSans" font-size="10.00" fill="#000000">MultiPions::NNToxPiNN</text>
</a>
</g>
</g>
<!-- Node3&#45;&gt;Node6 -->
<g id="edge5" class="edge">
<title>Node3&#45;&gt;Node6</title>
<path fill="none" stroke="#191970" d="M647.5979,-201.0147C675.9598,-195.3534 707.2609,-189.1055 735.076,-183.5533"/>
<polygon fill="#191970" stroke="#191970" points="646.8205,-197.6008 637.6991,-202.9906 648.1908,-204.4653 646.8205,-197.6008"/>
</g>
<!-- Node9 -->
<g id="node9" class="node">
<title>Node9</title>
<g id="a_node9"><a xlink:href="../../d7/d43/classG4INCL_1_1CrossSectionsMultiPionsAndResonances.html#ad7dce2e6f3b506d7558be82d1c5c852a" target="_top" xlink:title="Cross section for direct 4&#45;pion production &#45; NNEta channel.">
<polygon fill="none" stroke="#000000" points="451,-124.5 451,-156.5 669,-156.5 669,-124.5 451,-124.5"/>
<text text-anchor="start" x="459" y="-143.5" font-family="FreeSans" font-size="10.00" fill="#000000">G4INCL::CrossSectionsMulti</text>
<text text-anchor="middle" x="560" y="-131.5" font-family="FreeSans" font-size="10.00" fill="#000000">PionsAndResonances::NNToNNEtaFourPi</text>
</a>
</g>
</g>
<!-- Node8&#45;&gt;Node9 -->
<g id="edge8" class="edge">
<title>Node8&#45;&gt;Node9</title>
<path fill="none" stroke="#191970" d="M406.4314,-114.2081C426.1634,-117.5863 446.716,-121.1051 466.129,-124.4287"/>
<polygon fill="#191970" stroke="#191970" points="406.9572,-110.7473 396.5099,-112.5095 405.7758,-117.6469 406.9572,-110.7473"/>
</g>
<!-- Node10 -->
<g id="node10" class="node">
<title>Node10</title>
<g id="a_node10"><a xlink:href="../../d7/d43/classG4INCL_1_1CrossSectionsMultiPionsAndResonances.html#aec74e8db583161f010adf31f6745ef50" target="_top" xlink:title="Cross section for X pion production &#45; NNEta Channel.">
<polygon fill="none" stroke="#000000" points="715,-89.5 715,-121.5 916,-121.5 916,-89.5 715,-89.5"/>
<text text-anchor="start" x="723" y="-108.5" font-family="FreeSans" font-size="10.00" fill="#000000">G4INCL::CrossSectionsMulti</text>
<text text-anchor="middle" x="815.5" y="-96.5" font-family="FreeSans" font-size="10.00" fill="#000000">PionsAndResonances::NNToNNEtaxPi</text>
</a>
</g>
</g>
<!-- Node8&#45;&gt;Node10 -->
<g id="edge10" class="edge">
<title>Node8&#45;&gt;Node10</title>
<path fill="none" stroke="#191970" d="M425.2467,-98.6468C513.7191,-100.2004 631.8464,-102.2749 714.8804,-103.733"/>
<polygon fill="#191970" stroke="#191970" points="425.2135,-95.1457 415.1535,-98.4695 425.0905,-102.1447 425.2135,-95.1457"/>
</g>
<!-- Node9&#45;&gt;Node10 -->
<g id="edge9" class="edge">
<title>Node9&#45;&gt;Node10</title>
<path fill="none" stroke="#191970" d="M679.1075,-124.1839C691.0653,-122.5459 703.1245,-120.8939 714.8635,-119.2858"/>
<polygon fill="#191970" stroke="#191970" points="678.5285,-120.7304 669.0961,-125.5553 679.4786,-127.6657 678.5285,-120.7304"/>
</g>
<!-- Node12 -->
<g id="node12" class="node">
<title>Node12</title>
<g id="a_node12"><a xlink:href="../../d7/d43/classG4INCL_1_1CrossSectionsMultiPionsAndResonances.html#ab6d538fb41cdbdac0cb9e331a8c228d8" target="_top" xlink:title="Cross section for direct 4&#45;pion production &#45; NNOmega channel.">
<polygon fill="none" stroke="#000000" points="457,-19.5 457,-63.5 663,-63.5 663,-19.5 457,-19.5"/>
<text text-anchor="start" x="465" y="-50.5" font-family="FreeSans" font-size="10.00" fill="#000000">G4INCL::CrossSectionsMulti</text>
<text text-anchor="start" x="465" y="-38.5" font-family="FreeSans" font-size="10.00" fill="#000000">PionsAndResonances::NNToNNOmega</text>
<text text-anchor="middle" x="560" y="-26.5" font-family="FreeSans" font-size="10.00" fill="#000000">FourPi</text>
</a>
</g>
</g>
<!-- Node11&#45;&gt;Node12 -->
<g id="edge12" class="edge">
<title>Node11&#45;&gt;Node12</title>
<path fill="none" stroke="#191970" d="M416.327,-40.3819C429.8359,-40.4871 443.5718,-40.5939 456.926,-40.6979"/>
<polygon fill="#191970" stroke="#191970" points="416.0779,-36.88 406.0509,-40.302 416.0233,-43.8798 416.0779,-36.88"/>
</g>
<!-- Node13 -->
<g id="node13" class="node">
<title>Node13</title>
<g id="a_node13"><a xlink:href="../../d7/d43/classG4INCL_1_1CrossSectionsMultiPionsAndResonances.html#a85b9a340115dd088794859b0c3486cc0" target="_top" xlink:title="Cross section for X pion production &#45; NNOmega Channel.">
<polygon fill="none" stroke="#000000" points="705,-.5 705,-32.5 926,-32.5 926,-.5 705,-.5"/>
<text text-anchor="start" x="713" y="-19.5" font-family="FreeSans" font-size="10.00" fill="#000000">G4INCL::CrossSectionsMulti</text>
<text text-anchor="middle" x="815.5" y="-7.5" font-family="FreeSans" font-size="10.00" fill="#000000">PionsAndResonances::NNToNNOmegaxPi</text>
</a>
</g>
</g>
<!-- Node11&#45;&gt;Node13 -->
<g id="edge14" class="edge">
<title>Node11&#45;&gt;Node13</title>
<path fill="none" stroke="#191970" d="M411.4343,-15.7649C424.7062,-13.597 438.1244,-11.7496 451,-10.5 535.8842,-2.262 632.3972,-4.3588 704.7786,-8.193"/>
<polygon fill="#191970" stroke="#191970" points="410.5985,-12.3566 401.3252,-17.4806 411.7699,-19.2579 410.5985,-12.3566"/>
</g>
<!-- Node12&#45;&gt;Node13 -->
<g id="edge13" class="edge">
<title>Node12&#45;&gt;Node13</title>
<path fill="none" stroke="#191970" d="M673.2068,-30.423C683.7119,-29.3951 694.3498,-28.3542 704.8315,-27.3286"/>
<polygon fill="#191970" stroke="#191970" points="672.7968,-26.9463 663.1852,-31.4036 673.4785,-33.9131 672.7968,-26.9463"/>
</g>
</g>
</svg>
