<?xml version="1.0" encoding="UTF-8" standalone="no"?>
<!DOCTYPE svg PUBLIC "-//W3C//DTD SVG 1.1//EN"
 "http://www.w3.org/Graphics/SVG/1.1/DTD/svg11.dtd">
<!-- Generated by graphviz version 2.40.1 (20161225.0304)
 -->
<!-- Title: G4tgrSolidBoolean::G4tgrSolidBoolean Pages: 1 -->
<svg width="1365pt" height="914pt"
 viewBox="0.00 0.00 1365.00 914.00" xmlns="http://www.w3.org/2000/svg" xmlns:xlink="http://www.w3.org/1999/xlink">
<g id="graph0" class="graph" transform="scale(1 1) rotate(0) translate(4 910)">
<title>G4tgrSolidBoolean::G4tgrSolidBoolean</title>
<!-- Node1 -->
<g id="node1" class="node">
<title>Node1</title>
<polygon fill="#bfbfbf" stroke="#000000" points="0,-320.5 0,-352.5 117,-352.5 117,-320.5 0,-320.5"/>
<text text-anchor="start" x="8" y="-339.5" font-family="FreeSans" font-size="10.00" fill="#000000">G4tgrSolidBoolean::</text>
<text text-anchor="middle" x="58.5" y="-327.5" font-family="FreeSans" font-size="10.00" fill="#000000">G4tgrSolidBoolean</text>
</g>
<!-- Node2 -->
<g id="node2" class="node">
<title>Node2</title>
<g id="a_node2"><a xlink:href="../../d1/dc7/classG4tgrUtils.html#a6ce4693fe75abd32c451db2a1767dc9d" target="_top" xlink:title="G4tgrUtils::DumpVS">
<polygon fill="none" stroke="#000000" points="178.5,-885.5 178.5,-905.5 296.5,-905.5 296.5,-885.5 178.5,-885.5"/>
<text text-anchor="middle" x="237.5" y="-892.5" font-family="FreeSans" font-size="10.00" fill="#000000">G4tgrUtils::DumpVS</text>
</a>
</g>
</g>
<!-- Node1&#45;&gt;Node2 -->
<g id="edge1" class="edge">
<title>Node1&#45;&gt;Node2</title>
<path fill="none" stroke="#191970" d="M59.134,-352.7033C62.6102,-433.3659 81.8853,-790.8986 153,-870.5 157.5198,-875.5591 163.0091,-879.6157 168.9965,-882.8653"/>
<polygon fill="#191970" stroke="#191970" points="167.5255,-886.0411 178.0701,-887.0716 170.4696,-879.6903 167.5255,-886.0411"/>
</g>
<!-- Node3 -->
<g id="node3" class="node">
<title>Node3</title>
<g id="a_node3"><a xlink:href="../../dc/df7/classG4tgrVolumeMgr.html#a17fd84288dc3592ed81d98d7f7685084" target="_top" xlink:title="G4tgrVolumeMgr::FindSolid">
<polygon fill="none" stroke="#000000" points="994.5,-155.5 994.5,-175.5 1148.5,-175.5 1148.5,-155.5 994.5,-155.5"/>
<text text-anchor="middle" x="1071.5" y="-162.5" font-family="FreeSans" font-size="10.00" fill="#000000">G4tgrVolumeMgr::FindSolid</text>
</a>
</g>
</g>
<!-- Node1&#45;&gt;Node3 -->
<g id="edge2" class="edge">
<title>Node1&#45;&gt;Node3</title>
<path fill="none" stroke="#191970" d="M64.3963,-320.2273C76.1923,-290.1478 105.6971,-226.0456 153,-194.5 266.9609,-118.5012 318.5222,-135.5 455.5,-135.5 455.5,-135.5 455.5,-135.5 671.5,-135.5 779.3548,-135.5 903.1111,-146.4802 984.0531,-155.1549"/>
<polygon fill="#191970" stroke="#191970" points="983.8803,-158.6565 994.1991,-156.2542 984.6344,-151.6973 983.8803,-158.6565"/>
</g>
<!-- Node4 -->
<g id="node4" class="node">
<title>Node4</title>
<g id="a_node4"><a xlink:href="../../d5/d4f/G4Exception_8hh.html#ad36b5da5d062a20ca47b1c1f1ae353dd" target="_top" xlink:title="G4Exception">
<polygon fill="none" stroke="#000000" points="1234,-299.5 1234,-319.5 1314,-319.5 1314,-299.5 1234,-299.5"/>
<text text-anchor="middle" x="1274" y="-306.5" font-family="FreeSans" font-size="10.00" fill="#000000">G4Exception</text>
</a>
</g>
</g>
<!-- Node1&#45;&gt;Node4 -->
<g id="edge6" class="edge">
<title>Node1&#45;&gt;Node4</title>
<path fill="none" stroke="#191970" d="M59.5517,-352.5134C64.6748,-425.5516 89.4053,-726.2921 153,-790.5 249.835,-888.2687 317.8928,-856.5 455.5,-856.5 455.5,-856.5 455.5,-856.5 871,-856.5 1137.9093,-856.5 1247.8325,-429.1369 1269.7584,-329.9062"/>
<polygon fill="#191970" stroke="#191970" points="1273.2211,-330.4514 1271.9053,-319.9386 1266.3781,-328.9774 1273.2211,-330.4514"/>
</g>
<!-- Node5 -->
<g id="node5" class="node">
<title>Node5</title>
<g id="a_node5"><a xlink:href="../../dc/df7/classG4tgrVolumeMgr.html#a150e15733f97a65cf0fb069f6a8267df" target="_top" xlink:title="G4tgrVolumeMgr::FindVolume">
<polygon fill="none" stroke="#000000" points="988,-97.5 988,-117.5 1155,-117.5 1155,-97.5 988,-97.5"/>
<text text-anchor="middle" x="1071.5" y="-104.5" font-family="FreeSans" font-size="10.00" fill="#000000">G4tgrVolumeMgr::FindVolume</text>
</a>
</g>
</g>
<!-- Node1&#45;&gt;Node5 -->
<g id="edge4" class="edge">
<title>Node1&#45;&gt;Node5</title>
<path fill="none" stroke="#191970" d="M60.5903,-320.3545C66.6601,-280.6903 88.1842,-178.302 153,-131.5 262.6851,-52.2988 320.209,-97.5 455.5,-97.5 455.5,-97.5 455.5,-97.5 671.5,-97.5 776.2551,-97.5 896.3938,-100.97 977.4426,-103.8218"/>
<polygon fill="#191970" stroke="#191970" points="977.505,-107.3262 987.6232,-104.184 977.754,-100.3306 977.505,-107.3262"/>
</g>
<!-- Node6 -->
<g id="node6" class="node">
<title>Node6</title>
<g id="a_node6"><a xlink:href="../../d1/dc7/classG4tgrUtils.html#acdba90678f1c5958b45b386d41304d93" target="_top" xlink:title="G4tgrUtils::GetDouble">
<polygon fill="none" stroke="#000000" points="173.5,-449.5 173.5,-469.5 301.5,-469.5 301.5,-449.5 173.5,-449.5"/>
<text text-anchor="middle" x="237.5" y="-456.5" font-family="FreeSans" font-size="10.00" fill="#000000">G4tgrUtils::GetDouble</text>
</a>
</g>
</g>
<!-- Node1&#45;&gt;Node6 -->
<g id="edge7" class="edge">
<title>Node1&#45;&gt;Node6</title>
<path fill="none" stroke="#191970" d="M81.9011,-352.5801C116.35,-376.2517 180.3175,-420.207 214.5225,-443.711"/>
<polygon fill="#191970" stroke="#191970" points="212.7131,-446.7143 222.937,-449.4931 216.6775,-440.9451 212.7131,-446.7143"/>
</g>
<!-- Node7 -->
<g id="node7" class="node">
<title>Node7</title>
<g id="a_node7"><a xlink:href="../../d1/dda/classG4tgrMessenger.html#a554edbbce90ae4c6fcc85cdb6a711608" target="_top" xlink:title="G4tgrMessenger::GetVerbose\lLevel">
<polygon fill="none" stroke="#000000" points="589,-712.5 589,-744.5 754,-744.5 754,-712.5 589,-712.5"/>
<text text-anchor="start" x="597" y="-731.5" font-family="FreeSans" font-size="10.00" fill="#000000">G4tgrMessenger::GetVerbose</text>
<text text-anchor="middle" x="671.5" y="-719.5" font-family="FreeSans" font-size="10.00" fill="#000000">Level</text>
</a>
</g>
</g>
<!-- Node1&#45;&gt;Node7 -->
<g id="edge47" class="edge">
<title>Node1&#45;&gt;Node7</title>
<path fill="none" stroke="#191970" d="M65.4656,-352.8479C92.3433,-413.5403 195.9545,-626.4906 358,-705.5 426.5629,-738.9296 513.7117,-742.7113 578.7124,-739.2544"/>
<polygon fill="#191970" stroke="#191970" points="579.1755,-742.7331 588.9482,-738.6409 578.7566,-735.7456 579.1755,-742.7331"/>
</g>
<!-- Node32 -->
<g id="node32" class="node">
<title>Node32</title>
<g id="a_node32"><a xlink:href="../../dc/df7/classG4tgrVolumeMgr.html#ab9a9efdf98a4f859a13543f75ce3247f" target="_top" xlink:title="G4tgrVolumeMgr::GetInstance">
<polygon fill="none" stroke="#000000" points="153,-48.5 153,-68.5 322,-68.5 322,-48.5 153,-48.5"/>
<text text-anchor="middle" x="237.5" y="-55.5" font-family="FreeSans" font-size="10.00" fill="#000000">G4tgrVolumeMgr::GetInstance</text>
</a>
</g>
</g>
<!-- Node1&#45;&gt;Node32 -->
<g id="edge40" class="edge">
<title>Node1&#45;&gt;Node32</title>
<path fill="none" stroke="#191970" d="M59.6684,-320.4878C63.7826,-276.0652 81.5022,-150.1724 153,-83.5 157.4441,-79.3559 162.5432,-75.8959 167.9871,-73.0075"/>
<polygon fill="#191970" stroke="#191970" points="169.7989,-76.0266 177.4197,-68.6663 166.8723,-69.6677 169.7989,-76.0266"/>
</g>
<!-- Node34 -->
<g id="node34" class="node">
<title>Node34</title>
<g id="a_node34"><a xlink:href="../../d5/df8/classG4tgrVolume.html#a1defd37053f0471aff536da07233a882" target="_top" xlink:title="G4tgrVolume::GetSolid">
<polygon fill="none" stroke="#000000" points="171.5,-9.5 171.5,-29.5 303.5,-29.5 303.5,-9.5 171.5,-9.5"/>
<text text-anchor="middle" x="237.5" y="-16.5" font-family="FreeSans" font-size="10.00" fill="#000000">G4tgrVolume::GetSolid</text>
</a>
</g>
</g>
<!-- Node1&#45;&gt;Node34 -->
<g id="edge42" class="edge">
<title>Node1&#45;&gt;Node34</title>
<path fill="none" stroke="#191970" d="M61.4633,-320.2425C72.0532,-263.8917 109.7098,-78.2222 153,-38.5 155.8252,-35.9077 158.9259,-33.6433 162.2193,-31.6672"/>
<polygon fill="#191970" stroke="#191970" points="163.9707,-34.7041 171.3302,-27.0826 160.8241,-28.4512 163.9707,-34.7041"/>
</g>
<!-- Node35 -->
<g id="node35" class="node">
<title>Node35</title>
<g id="a_node35"><a xlink:href="../../d1/dc7/classG4tgrUtils.html#a2e54369d7d45c2e1f8c2f1fd804b9268" target="_top" xlink:title="G4tgrUtils::GetString">
<polygon fill="none" stroke="#000000" points="176.5,-760.5 176.5,-780.5 298.5,-780.5 298.5,-760.5 176.5,-760.5"/>
<text text-anchor="middle" x="237.5" y="-767.5" font-family="FreeSans" font-size="10.00" fill="#000000">G4tgrUtils::GetString</text>
</a>
</g>
</g>
<!-- Node1&#45;&gt;Node35 -->
<g id="edge43" class="edge">
<title>Node1&#45;&gt;Node35</title>
<path fill="none" stroke="#191970" d="M60.1924,-352.9424C67.5506,-421.4213 98.8483,-683.1648 153,-742.5 158.0853,-748.0721 164.3035,-752.5372 171.0376,-756.115"/>
<polygon fill="#191970" stroke="#191970" points="169.9351,-759.4606 180.4823,-760.4644 172.8632,-753.1024 169.9351,-759.4606"/>
</g>
<!-- Node36 -->
<g id="node36" class="node">
<title>Node36</title>
<g id="a_node36"><a xlink:href="../../dc/df7/classG4tgrVolumeMgr.html#a66627bf86e2a37d0a17dc516d13b3247" target="_top" xlink:title="G4tgrVolumeMgr::RegisterMe">
<polygon fill="none" stroke="#000000" points="155,-203.5 155,-223.5 320,-223.5 320,-203.5 155,-203.5"/>
<text text-anchor="middle" x="237.5" y="-210.5" font-family="FreeSans" font-size="10.00" fill="#000000">G4tgrVolumeMgr::RegisterMe</text>
</a>
</g>
</g>
<!-- Node1&#45;&gt;Node36 -->
<g id="edge48" class="edge">
<title>Node1&#45;&gt;Node36</title>
<path fill="none" stroke="#191970" d="M81.9011,-320.4199C116.35,-296.7483 180.3175,-252.793 214.5225,-229.289"/>
<polygon fill="#191970" stroke="#191970" points="216.6775,-232.0549 222.937,-223.5069 212.7131,-226.2857 216.6775,-232.0549"/>
</g>
<!-- Node3&#45;&gt;Node4 -->
<g id="edge3" class="edge">
<title>Node3&#45;&gt;Node4</title>
<path fill="none" stroke="#191970" d="M1103.7395,-175.5582C1119.8127,-181.3206 1139.1505,-189.4212 1155,-199.5 1196.8363,-226.1039 1237.4634,-268.205 1258.7218,-291.8613"/>
<polygon fill="#191970" stroke="#191970" points="1256.1528,-294.2395 1265.4037,-299.404 1261.3925,-289.5978 1256.1528,-294.2395"/>
</g>
<!-- Node5&#45;&gt;Node4 -->
<g id="edge5" class="edge">
<title>Node5&#45;&gt;Node4</title>
<path fill="none" stroke="#191970" d="M1103.4112,-117.5756C1119.9613,-123.8479 1139.8299,-133.1045 1155,-145.5 1206.3486,-187.4572 1246.5977,-256.5432 1264.2529,-290.0583"/>
<polygon fill="#191970" stroke="#191970" points="1261.2986,-291.9659 1268.994,-299.2482 1267.5195,-288.7564 1261.2986,-291.9659"/>
</g>
<!-- Node6&#45;&gt;Node4 -->
<g id="edge16" class="edge">
<title>Node6&#45;&gt;Node4</title>
<path fill="none" stroke="#191970" d="M262.2611,-469.5245C280.6224,-477.9655 305.2671,-491.541 322,-509.5 346.3889,-535.676 327.5662,-562.6909 358,-581.5 449.431,-638.0075 853.4635,-568.0754 952,-530.5 1081.689,-481.045 1209.8647,-369.3685 1256.0201,-326.6038"/>
<polygon fill="#191970" stroke="#191970" points="1258.5164,-329.0613 1263.4293,-319.6745 1253.7349,-323.9488 1258.5164,-329.0613"/>
</g>
<!-- Node6&#45;&gt;Node7 -->
<g id="edge8" class="edge">
<title>Node6&#45;&gt;Node7</title>
<path fill="none" stroke="#191970" d="M239.9432,-469.5353C248.9051,-504.0425 283.4105,-618.5986 358,-671.5 375.9585,-684.2368 492.8161,-703.1751 578.6247,-715.6766"/>
<polygon fill="#191970" stroke="#191970" points="578.2646,-719.1608 588.6631,-717.1304 579.268,-712.2331 578.2646,-719.1608"/>
</g>
<!-- Node8 -->
<g id="node8" class="node">
<title>Node8</title>
<g id="a_node8"><a xlink:href="../../d1/dc7/classG4tgrUtils.html#a0e52f564ae4e844c1a046c8a25333f30" target="_top" xlink:title="G4tgrUtils::IsNumber">
<polygon fill="none" stroke="#000000" points="610,-442.5 610,-462.5 733,-462.5 733,-442.5 610,-442.5"/>
<text text-anchor="middle" x="671.5" y="-449.5" font-family="FreeSans" font-size="10.00" fill="#000000">G4tgrUtils::IsNumber</text>
</a>
</g>
</g>
<!-- Node6&#45;&gt;Node8 -->
<g id="edge9" class="edge">
<title>Node6&#45;&gt;Node8</title>
<path fill="none" stroke="#191970" d="M245.8001,-449.2207C263.6429,-428.0483 308.1026,-380.088 358,-362.5 439.7376,-333.6889 477.0988,-320.6656 553,-362.5 579.241,-376.9632 565.9675,-400.3353 589,-419.5 598.8246,-427.6748 610.9312,-434.0147 622.8137,-438.8512"/>
<polygon fill="#191970" stroke="#191970" points="621.6556,-442.1551 632.2472,-442.414 624.1288,-435.6065 621.6556,-442.1551"/>
</g>
<!-- Node9 -->
<g id="node9" class="node">
<title>Node9</title>
<g id="a_node9"><a xlink:href="../../d3/d15/classG4tgrParameterMgr.html#afc0a6409be6d0fc1de83082f79fd1ab9" target="_top" xlink:title="G4tgrParameterMgr::\lGetInstance">
<polygon fill="none" stroke="#000000" points="394.5,-757.5 394.5,-789.5 516.5,-789.5 516.5,-757.5 394.5,-757.5"/>
<text text-anchor="start" x="402.5" y="-776.5" font-family="FreeSans" font-size="10.00" fill="#000000">G4tgrParameterMgr::</text>
<text text-anchor="middle" x="455.5" y="-764.5" font-family="FreeSans" font-size="10.00" fill="#000000">GetInstance</text>
</a>
</g>
</g>
<!-- Node6&#45;&gt;Node9 -->
<g id="edge10" class="edge">
<title>Node6&#45;&gt;Node9</title>
<path fill="none" stroke="#191970" d="M240.541,-469.8687C251.4554,-505.7338 291.5715,-626.5886 358,-704.5 374.3344,-723.6579 397.1042,-740.1634 416.5318,-752.2234"/>
<polygon fill="#191970" stroke="#191970" points="414.8172,-755.2766 425.1877,-757.4453 418.4331,-749.2828 414.8172,-755.2766"/>
</g>
<!-- Node11 -->
<g id="node11" class="node">
<title>Node11</title>
<g id="a_node11"><a xlink:href="../../d3/d15/classG4tgrParameterMgr.html#ae05b964d99f66a9f0617118fbe738bb5" target="_top" xlink:title="G4tgrParameterMgr::\lFindParameter">
<polygon fill="none" stroke="#000000" points="394.5,-629.5 394.5,-661.5 516.5,-661.5 516.5,-629.5 394.5,-629.5"/>
<text text-anchor="start" x="402.5" y="-648.5" font-family="FreeSans" font-size="10.00" fill="#000000">G4tgrParameterMgr::</text>
<text text-anchor="middle" x="455.5" y="-636.5" font-family="FreeSans" font-size="10.00" fill="#000000">FindParameter</text>
</a>
</g>
</g>
<!-- Node6&#45;&gt;Node11 -->
<g id="edge12" class="edge">
<title>Node6&#45;&gt;Node11</title>
<path fill="none" stroke="#191970" d="M242.4869,-469.5273C256.6432,-496.9692 299.8453,-573.949 358,-614.5 366.1408,-620.1766 375.3727,-624.852 384.8316,-628.6928"/>
<polygon fill="#191970" stroke="#191970" points="383.742,-632.0222 394.3341,-632.2616 386.2032,-625.4692 383.742,-632.0222"/>
</g>
<!-- Node13 -->
<g id="node13" class="node">
<title>Node13</title>
<g id="a_node13"><a xlink:href="../../d1/dc7/classG4tgrUtils.html#aad8a4ef92243ed064c340d95e8dcdbba" target="_top" xlink:title="G4tgrUtils::IsFunction">
<polygon fill="none" stroke="#000000" points="393,-410.5 393,-430.5 518,-430.5 518,-410.5 393,-410.5"/>
<text text-anchor="middle" x="455.5" y="-417.5" font-family="FreeSans" font-size="10.00" fill="#000000">G4tgrUtils::IsFunction</text>
</a>
</g>
</g>
<!-- Node6&#45;&gt;Node13 -->
<g id="edge17" class="edge">
<title>Node6&#45;&gt;Node13</title>
<path fill="none" stroke="#191970" d="M293.6404,-449.4565C322.883,-444.2251 358.8229,-437.7954 389.4023,-432.3248"/>
<polygon fill="#191970" stroke="#191970" points="390.3225,-435.7158 399.5498,-430.5094 389.0897,-428.8252 390.3225,-435.7158"/>
</g>
<!-- Node14 -->
<g id="node14" class="node">
<title>Node14</title>
<g id="a_node14"><a xlink:href="../../d1/dc7/classG4tgrUtils.html#aead7796772e67a48f8f9c01af3f20462" target="_top" xlink:title="G4tgrUtils::WordIsUnit">
<polygon fill="none" stroke="#000000" points="391,-449.5 391,-469.5 520,-469.5 520,-449.5 391,-449.5"/>
<text text-anchor="middle" x="455.5" y="-456.5" font-family="FreeSans" font-size="10.00" fill="#000000">G4tgrUtils::WordIsUnit</text>
</a>
</g>
</g>
<!-- Node6&#45;&gt;Node14 -->
<g id="edge18" class="edge">
<title>Node6&#45;&gt;Node14</title>
<path fill="none" stroke="#191970" d="M301.7281,-459.5C326.5645,-459.5 355.1545,-459.5 380.8937,-459.5"/>
<polygon fill="#191970" stroke="#191970" points="380.9777,-463.0001 390.9776,-459.5 380.9776,-456.0001 380.9777,-463.0001"/>
</g>
<!-- Node15 -->
<g id="node15" class="node">
<title>Node15</title>
<g id="a_node15"><a xlink:href="../../dd/db6/classG4UnitDefinition.html#aa2bc282875d27f9319e636c72f6d0d5d" target="_top" xlink:title="G4UnitDefinition::GetValueOf">
<polygon fill="none" stroke="#000000" points="373,-242.5 373,-262.5 538,-262.5 538,-242.5 373,-242.5"/>
<text text-anchor="middle" x="455.5" y="-249.5" font-family="FreeSans" font-size="10.00" fill="#000000">G4UnitDefinition::GetValueOf</text>
</a>
</g>
</g>
<!-- Node6&#45;&gt;Node15 -->
<g id="edge20" class="edge">
<title>Node6&#45;&gt;Node15</title>
<path fill="none" stroke="#191970" d="M240.8117,-449.3782C251.7774,-417.5679 290.1204,-318.9738 358,-272.5 361.1056,-270.3738 364.3885,-268.4646 367.7961,-266.7509"/>
<polygon fill="#191970" stroke="#191970" points="369.3365,-269.8968 377.0713,-262.6564 366.5096,-263.493 369.3365,-269.8968"/>
</g>
<!-- Node26 -->
<g id="node26" class="node">
<title>Node26</title>
<g id="a_node26"><a xlink:href="../../d2/dd2/classG4UIcommand.html#a7077e02d61d600dd306afd89e4025f3e" target="_top" xlink:title="G4UIcommand::ConvertToString">
<polygon fill="none" stroke="#000000" points="366,-371.5 366,-391.5 545,-391.5 545,-371.5 366,-371.5"/>
<text text-anchor="middle" x="455.5" y="-378.5" font-family="FreeSans" font-size="10.00" fill="#000000">G4UIcommand::ConvertToString</text>
</a>
</g>
</g>
<!-- Node6&#45;&gt;Node26 -->
<g id="edge34" class="edge">
<title>Node6&#45;&gt;Node26</title>
<path fill="none" stroke="#191970" d="M254.8879,-449.4357C277.8105,-436.5696 319.7225,-414.4171 358,-401.5 366.5968,-398.5989 375.7688,-396.0465 384.9185,-393.8218"/>
<polygon fill="#191970" stroke="#191970" points="385.8549,-397.1977 394.8097,-391.5354 384.2783,-390.3776 385.8549,-397.1977"/>
</g>
<!-- Node27 -->
<g id="node27" class="node">
<title>Node27</title>
<g id="a_node27"><a xlink:href="../../d5/df7/classHepTool_1_1Evaluator.html#a7dc9b53ee92056ac4b3b34302c91c865" target="_top" xlink:title="HepTool::Evaluator\l::evaluate">
<polygon fill="none" stroke="#000000" points="399.5,-281.5 399.5,-313.5 511.5,-313.5 511.5,-281.5 399.5,-281.5"/>
<text text-anchor="start" x="407.5" y="-300.5" font-family="FreeSans" font-size="10.00" fill="#000000">HepTool::Evaluator</text>
<text text-anchor="middle" x="455.5" y="-288.5" font-family="FreeSans" font-size="10.00" fill="#000000">::evaluate</text>
</a>
</g>
</g>
<!-- Node6&#45;&gt;Node27 -->
<g id="edge35" class="edge">
<title>Node6&#45;&gt;Node27</title>
<path fill="none" stroke="#191970" d="M244.0542,-449.3158C260.3268,-424.8341 305.1026,-362.218 358,-328.5 367.6731,-322.3342 378.6707,-317.3064 389.709,-313.2348"/>
<polygon fill="#191970" stroke="#191970" points="391.0742,-316.4664 399.3876,-309.8984 388.7928,-309.8486 391.0742,-316.4664"/>
</g>
<!-- Node28 -->
<g id="node28" class="node">
<title>Node28</title>
<g id="a_node28"><a xlink:href="../../d5/df7/classHepTool_1_1Evaluator.html#ae7260e78df579a539d083e038ae62100" target="_top" xlink:title="HepTool::Evaluator\l::status">
<polygon fill="none" stroke="#000000" points="399.5,-539.5 399.5,-571.5 511.5,-571.5 511.5,-539.5 399.5,-539.5"/>
<text text-anchor="start" x="407.5" y="-558.5" font-family="FreeSans" font-size="10.00" fill="#000000">HepTool::Evaluator</text>
<text text-anchor="middle" x="455.5" y="-546.5" font-family="FreeSans" font-size="10.00" fill="#000000">::status</text>
</a>
</g>
</g>
<!-- Node6&#45;&gt;Node28 -->
<g id="edge36" class="edge">
<title>Node6&#45;&gt;Node28</title>
<path fill="none" stroke="#191970" d="M251.6463,-469.6386C273.482,-484.8602 317.1551,-513.6281 358,-530.5 368.0161,-534.6374 378.9012,-538.2374 389.6464,-541.3175"/>
<polygon fill="#191970" stroke="#191970" points="388.8769,-544.7355 399.4462,-544.0005 390.7254,-537.984 388.8769,-544.7355"/>
</g>
<!-- Node29 -->
<g id="node29" class="node">
<title>Node29</title>
<g id="a_node29"><a xlink:href="../../de/d90/classG4tgrEvaluator.html#aa1a0a657b8d85e28a9ba60721cb6ad1f" target="_top" xlink:title="G4tgrEvaluator::print\l_error">
<polygon fill="none" stroke="#000000" points="393.5,-488.5 393.5,-520.5 517.5,-520.5 517.5,-488.5 393.5,-488.5"/>
<text text-anchor="start" x="401.5" y="-507.5" font-family="FreeSans" font-size="10.00" fill="#000000">G4tgrEvaluator::print</text>
<text text-anchor="middle" x="455.5" y="-495.5" font-family="FreeSans" font-size="10.00" fill="#000000">_error</text>
</a>
</g>
</g>
<!-- Node6&#45;&gt;Node29 -->
<g id="edge37" class="edge">
<title>Node6&#45;&gt;Node29</title>
<path fill="none" stroke="#191970" d="M286.1521,-469.5429C314.6868,-475.4331 351.2786,-482.9864 383.1426,-489.5638"/>
<polygon fill="#191970" stroke="#191970" points="382.8046,-493.0678 393.3057,-491.6617 384.2198,-486.2123 382.8046,-493.0678"/>
</g>
<!-- Node10 -->
<g id="node10" class="node">
<title>Node10</title>
<g id="a_node10"><a xlink:href="../../d3/d15/classG4tgrParameterMgr.html#a00a378f19c64e6d69d98556ad0ae96e8" target="_top" xlink:title="G4tgrParameterMgr::\lG4tgrParameterMgr">
<polygon fill="none" stroke="#000000" points="610.5,-763.5 610.5,-795.5 732.5,-795.5 732.5,-763.5 610.5,-763.5"/>
<text text-anchor="start" x="618.5" y="-782.5" font-family="FreeSans" font-size="10.00" fill="#000000">G4tgrParameterMgr::</text>
<text text-anchor="middle" x="671.5" y="-770.5" font-family="FreeSans" font-size="10.00" fill="#000000">G4tgrParameterMgr</text>
</a>
</g>
</g>
<!-- Node9&#45;&gt;Node10 -->
<g id="edge11" class="edge">
<title>Node9&#45;&gt;Node10</title>
<path fill="none" stroke="#191970" d="M516.5308,-775.1953C542.5268,-775.9174 573.0318,-776.7648 600.0695,-777.5158"/>
<polygon fill="#191970" stroke="#191970" points="600.1523,-781.0194 610.2456,-777.7985 600.3467,-774.0221 600.1523,-781.0194"/>
</g>
<!-- Node11&#45;&gt;Node4 -->
<g id="edge14" class="edge">
<title>Node11&#45;&gt;Node4</title>
<path fill="none" stroke="#191970" d="M516.6596,-645.9836C677.5622,-646.7392 1103.838,-645.2133 1155,-608.5 1249.5026,-540.686 1269.0004,-385.421 1272.987,-329.7939"/>
<polygon fill="#191970" stroke="#191970" points="1276.4994,-329.7004 1273.6237,-319.5033 1269.5128,-329.2681 1276.4994,-329.7004"/>
</g>
<!-- Node11&#45;&gt;Node7 -->
<g id="edge15" class="edge">
<title>Node11&#45;&gt;Node7</title>
<path fill="none" stroke="#191970" d="M516.5813,-661.4466C528.9447,-665.6293 541.631,-670.6436 553,-676.5 570.7797,-685.6587 571.1584,-694.4625 589,-703.5 592.5776,-705.3122 596.3102,-707.019 600.1262,-708.6225"/>
<polygon fill="#191970" stroke="#191970" points="599.1549,-712.0012 609.7423,-712.397 601.7126,-705.4852 599.1549,-712.0012"/>
</g>
<!-- Node12 -->
<g id="node12" class="node">
<title>Node12</title>
<g id="a_node12"><a xlink:href="../../d3/d15/classG4tgrParameterMgr.html#a69d1a1d8e0406b0561986970b290c2ea" target="_top" xlink:title="G4tgrParameterMgr::\lDumpList">
<polygon fill="none" stroke="#000000" points="610.5,-661.5 610.5,-693.5 732.5,-693.5 732.5,-661.5 610.5,-661.5"/>
<text text-anchor="start" x="618.5" y="-680.5" font-family="FreeSans" font-size="10.00" fill="#000000">G4tgrParameterMgr::</text>
<text text-anchor="middle" x="671.5" y="-668.5" font-family="FreeSans" font-size="10.00" fill="#000000">DumpList</text>
</a>
</g>
</g>
<!-- Node11&#45;&gt;Node12 -->
<g id="edge13" class="edge">
<title>Node11&#45;&gt;Node12</title>
<path fill="none" stroke="#191970" d="M516.5308,-654.5416C542.5268,-658.3929 573.0318,-662.9121 600.0695,-666.9177"/>
<polygon fill="#191970" stroke="#191970" points="599.8406,-670.4219 610.2456,-668.4253 600.8665,-663.4975 599.8406,-670.4219"/>
</g>
<!-- Node14&#45;&gt;Node8 -->
<g id="edge19" class="edge">
<title>Node14&#45;&gt;Node8</title>
<path fill="none" stroke="#191970" d="M520.0145,-457.4093C545.146,-456.5948 574.0489,-455.6581 599.8266,-454.8227"/>
<polygon fill="#191970" stroke="#191970" points="600.0294,-458.3181 609.9108,-454.4959 599.8026,-451.3218 600.0294,-458.3181"/>
</g>
<!-- Node15&#45;&gt;Node4 -->
<g id="edge33" class="edge">
<title>Node15&#45;&gt;Node4</title>
<path fill="none" stroke="#191970" d="M526.7477,-262.5443C535.8355,-265.1365 544.8121,-268.3975 553,-272.5 572.1393,-282.0896 570.8285,-293.1833 589,-304.5 670.8979,-355.5037 695.3226,-367.9306 790,-386.5 957.7449,-419.4004 1160.2958,-353.2363 1239.7072,-323.2348"/>
<polygon fill="#191970" stroke="#191970" points="1241.1227,-326.4406 1249.2084,-319.5943 1238.6181,-319.904 1241.1227,-326.4406"/>
</g>
<!-- Node16 -->
<g id="node16" class="node">
<title>Node16</title>
<g id="a_node16"><a xlink:href="../../dd/db6/classG4UnitDefinition.html#ad760642d8d8cc28d245e8101f86ed432" target="_top" xlink:title="G4UnitDefinition::GetUnits\lTable">
<polygon fill="none" stroke="#000000" points="596,-36.5 596,-68.5 747,-68.5 747,-36.5 596,-36.5"/>
<text text-anchor="start" x="604" y="-55.5" font-family="FreeSans" font-size="10.00" fill="#000000">G4UnitDefinition::GetUnits</text>
<text text-anchor="middle" x="671.5" y="-43.5" font-family="FreeSans" font-size="10.00" fill="#000000">Table</text>
</a>
</g>
</g>
<!-- Node15&#45;&gt;Node16 -->
<g id="edge21" class="edge">
<title>Node15&#45;&gt;Node16</title>
<path fill="none" stroke="#191970" d="M477.0143,-242.3849C497.7299,-232.0514 529.3195,-214.69 553,-194.5 594.8087,-158.8538 633.6681,-107.4202 654.8427,-77.2287"/>
<polygon fill="#191970" stroke="#191970" points="657.7641,-79.1577 660.5821,-68.9445 652.0101,-75.1712 657.7641,-79.1577"/>
</g>
<!-- Node21 -->
<g id="node21" class="node">
<title>Node21</title>
<g id="a_node21"><a xlink:href="../../d8/d3c/ts__scorers_8cc.html#ad81d1cdebbda7d39795160acd3aebd24" target="_top" xlink:title="message">
<polygon fill="none" stroke="#000000" points="640.5,-274.5 640.5,-294.5 702.5,-294.5 702.5,-274.5 640.5,-274.5"/>
<text text-anchor="middle" x="671.5" y="-281.5" font-family="FreeSans" font-size="10.00" fill="#000000">message</text>
</a>
</g>
</g>
<!-- Node15&#45;&gt;Node21 -->
<g id="edge28" class="edge">
<title>Node15&#45;&gt;Node21</title>
<path fill="none" stroke="#191970" d="M523.2511,-262.5372C558.3345,-267.7347 600.0305,-273.9119 630.2529,-278.3893"/>
<polygon fill="#191970" stroke="#191970" points="630.0298,-281.8944 640.4348,-279.8978 631.0557,-274.97 630.0298,-281.8944"/>
</g>
<!-- Node17 -->
<g id="node17" class="node">
<title>Node17</title>
<g id="a_node17"><a xlink:href="../../dd/db6/classG4UnitDefinition.html#a935e1332ba986a91d04e0f55996d301e" target="_top" xlink:title="G4UnitDefinition::BuildUnits\lTable">
<polygon fill="none" stroke="#000000" points="791.5,-36.5 791.5,-68.5 950.5,-68.5 950.5,-36.5 791.5,-36.5"/>
<text text-anchor="start" x="799.5" y="-55.5" font-family="FreeSans" font-size="10.00" fill="#000000">G4UnitDefinition::BuildUnits</text>
<text text-anchor="middle" x="871" y="-43.5" font-family="FreeSans" font-size="10.00" fill="#000000">Table</text>
</a>
</g>
</g>
<!-- Node16&#45;&gt;Node17 -->
<g id="edge22" class="edge">
<title>Node16&#45;&gt;Node17</title>
<path fill="none" stroke="#191970" d="M747.2069,-52.5C758.2624,-52.5 769.737,-52.5 781.0422,-52.5"/>
<polygon fill="#191970" stroke="#191970" points="781.3601,-56.0001 791.36,-52.5 781.36,-49.0001 781.3601,-56.0001"/>
</g>
<!-- Node19 -->
<g id="node19" class="node">
<title>Node19</title>
<g id="a_node19"><a xlink:href="../../d7/d23/namespaceG4Threading.html#abb1b4c9b1d7bd6bf5f9b9e552b93bd38" target="_top" xlink:title="G4Threading::IsMasterThread">
<polygon fill="none" stroke="#000000" points="1191,-.5 1191,-20.5 1357,-20.5 1357,-.5 1191,-.5"/>
<text text-anchor="middle" x="1274" y="-7.5" font-family="FreeSans" font-size="10.00" fill="#000000">G4Threading::IsMasterThread</text>
</a>
</g>
</g>
<!-- Node16&#45;&gt;Node19 -->
<g id="edge27" class="edge">
<title>Node16&#45;&gt;Node19</title>
<path fill="none" stroke="#191970" d="M734.4723,-36.4429C752.3076,-32.5076 771.8177,-28.7758 790,-26.5 925.1585,-9.583 1083.0975,-7.6702 1180.8471,-8.5459"/>
<polygon fill="#191970" stroke="#191970" points="1180.9602,-12.0471 1190.9952,-8.6487 1181.0312,-5.0474 1180.9602,-12.0471"/>
</g>
<!-- Node18 -->
<g id="node18" class="node">
<title>Node18</title>
<g id="a_node18"><a xlink:href="../../dd/db6/classG4UnitDefinition.html#a7109cd0b74ba54198d1ba74d757e6c85" target="_top" xlink:title="G4UnitDefinition::G4Unit\lDefinition">
<polygon fill="none" stroke="#000000" points="1000,-36.5 1000,-68.5 1143,-68.5 1143,-36.5 1000,-36.5"/>
<text text-anchor="start" x="1008" y="-55.5" font-family="FreeSans" font-size="10.00" fill="#000000">G4UnitDefinition::G4Unit</text>
<text text-anchor="middle" x="1071.5" y="-43.5" font-family="FreeSans" font-size="10.00" fill="#000000">Definition</text>
</a>
</g>
</g>
<!-- Node17&#45;&gt;Node18 -->
<g id="edge23" class="edge">
<title>Node17&#45;&gt;Node18</title>
<path fill="none" stroke="#191970" d="M950.5309,-52.5C963.3852,-52.5 976.7147,-52.5 989.6233,-52.5"/>
<polygon fill="#191970" stroke="#191970" points="989.8685,-56.0001 999.8685,-52.5 989.8685,-49.0001 989.8685,-56.0001"/>
</g>
<!-- Node18&#45;&gt;Node4 -->
<g id="edge24" class="edge">
<title>Node18&#45;&gt;Node4</title>
<path fill="none" stroke="#191970" d="M1125.0523,-68.5531C1135.7854,-73.4501 1146.3933,-79.6756 1155,-87.5 1218.9967,-145.6801 1255.1376,-246.4724 1268.2655,-289.3058"/>
<polygon fill="#191970" stroke="#191970" points="1264.9738,-290.5165 1271.1739,-299.1077 1271.6847,-288.5252 1264.9738,-290.5165"/>
</g>
<!-- Node18&#45;&gt;Node19 -->
<g id="edge25" class="edge">
<title>Node18&#45;&gt;Node19</title>
<path fill="none" stroke="#191970" d="M1143.1789,-37.6333C1166.965,-32.6998 1193.138,-27.2714 1215.7826,-22.5747"/>
<polygon fill="#191970" stroke="#191970" points="1216.5039,-25.9997 1225.5847,-20.5417 1215.0823,-19.1456 1216.5039,-25.9997"/>
</g>
<!-- Node20 -->
<g id="node20" class="node">
<title>Node20</title>
<g id="a_node20"><a xlink:href="../../dd/db6/classG4UnitDefinition.html#a94a28970a26fc3e3ff90a28a86c7ff9d" target="_top" xlink:title="G4UnitDefinition::GetName">
<polygon fill="none" stroke="#000000" points="1196.5,-42.5 1196.5,-62.5 1351.5,-62.5 1351.5,-42.5 1196.5,-42.5"/>
<text text-anchor="middle" x="1274" y="-49.5" font-family="FreeSans" font-size="10.00" fill="#000000">G4UnitDefinition::GetName</text>
</a>
</g>
</g>
<!-- Node18&#45;&gt;Node20 -->
<g id="edge26" class="edge">
<title>Node18&#45;&gt;Node20</title>
<path fill="none" stroke="#191970" d="M1143.1789,-52.5C1157.0035,-52.5 1171.6343,-52.5 1185.9101,-52.5"/>
<polygon fill="#191970" stroke="#191970" points="1186.2258,-56.0001 1196.2257,-52.5 1186.2257,-49.0001 1186.2258,-56.0001"/>
</g>
<!-- Node22 -->
<g id="node22" class="node">
<title>Node22</title>
<g id="a_node22"><a xlink:href="../../d7/d23/namespaceG4Threading.html#a457962a93ab41c7f9575dde6cbe9b78c" target="_top" xlink:title="G4Threading::G4GetNumber\lOfCores">
<polygon fill="none" stroke="#000000" points="790,-344.5 790,-376.5 952,-376.5 952,-344.5 790,-344.5"/>
<text text-anchor="start" x="798" y="-363.5" font-family="FreeSans" font-size="10.00" fill="#000000">G4Threading::G4GetNumber</text>
<text text-anchor="middle" x="871" y="-351.5" font-family="FreeSans" font-size="10.00" fill="#000000">OfCores</text>
</a>
</g>
</g>
<!-- Node21&#45;&gt;Node22 -->
<g id="edge29" class="edge">
<title>Node21&#45;&gt;Node22</title>
<path fill="none" stroke="#191970" d="M693.0583,-294.6072C716.5936,-305.4451 755.5319,-322.8051 790,-335.5 795.3967,-337.4877 801.0333,-339.4511 806.7107,-341.3513"/>
<polygon fill="#191970" stroke="#191970" points="805.6762,-344.6953 816.2689,-344.4826 807.8555,-338.0432 805.6762,-344.6953"/>
</g>
<!-- Node23 -->
<g id="node23" class="node">
<title>Node23</title>
<g id="a_node23"><a xlink:href="../../d4/daa/classG4RunManager.html#a3a19f2283ba22cbee8ba640d160d2e7e" target="_top" xlink:title="G4RunManager::GetVerbose\lLevel">
<polygon fill="none" stroke="#000000" points="791.5,-293.5 791.5,-325.5 950.5,-325.5 950.5,-293.5 791.5,-293.5"/>
<text text-anchor="start" x="799.5" y="-312.5" font-family="FreeSans" font-size="10.00" fill="#000000">G4RunManager::GetVerbose</text>
<text text-anchor="middle" x="871" y="-300.5" font-family="FreeSans" font-size="10.00" fill="#000000">Level</text>
</a>
</g>
</g>
<!-- Node21&#45;&gt;Node23 -->
<g id="edge30" class="edge">
<title>Node21&#45;&gt;Node23</title>
<path fill="none" stroke="#191970" d="M702.6719,-288.4063C723.9445,-291.072 753.2821,-294.7484 781.5118,-298.2859"/>
<polygon fill="#191970" stroke="#191970" points="781.0781,-301.7589 791.4357,-299.5295 781.9485,-294.8132 781.0781,-301.7589"/>
</g>
<!-- Node24 -->
<g id="node24" class="node">
<title>Node24</title>
<g id="a_node24"><a xlink:href="../../d4/daa/classG4RunManager.html#a9e042965b0d460b1d492ab48de141b2a" target="_top" xlink:title="G4RunManager::SetVerbose\lLevel">
<polygon fill="none" stroke="#000000" points="792,-242.5 792,-274.5 950,-274.5 950,-242.5 792,-242.5"/>
<text text-anchor="start" x="800" y="-261.5" font-family="FreeSans" font-size="10.00" fill="#000000">G4RunManager::SetVerbose</text>
<text text-anchor="middle" x="871" y="-249.5" font-family="FreeSans" font-size="10.00" fill="#000000">Level</text>
</a>
</g>
</g>
<!-- Node21&#45;&gt;Node24 -->
<g id="edge31" class="edge">
<title>Node21&#45;&gt;Node24</title>
<path fill="none" stroke="#191970" d="M702.6719,-280.4375C724.0425,-277.6524 753.5527,-273.8064 781.902,-270.1118"/>
<polygon fill="#191970" stroke="#191970" points="782.402,-273.5763 791.8658,-268.8132 781.4973,-266.635 782.402,-273.5763"/>
</g>
<!-- Node25 -->
<g id="node25" class="node">
<title>Node25</title>
<g id="a_node25"><a xlink:href="../../de/d51/classG4RunManagerKernel.html#aea8a72d21f60b3e6436eed9b651dc247" target="_top" xlink:title="G4RunManagerKernel\l::SetVerboseLevel">
<polygon fill="none" stroke="#000000" points="1008.5,-242.5 1008.5,-274.5 1134.5,-274.5 1134.5,-242.5 1008.5,-242.5"/>
<text text-anchor="start" x="1016.5" y="-261.5" font-family="FreeSans" font-size="10.00" fill="#000000">G4RunManagerKernel</text>
<text text-anchor="middle" x="1071.5" y="-249.5" font-family="FreeSans" font-size="10.00" fill="#000000">::SetVerboseLevel</text>
</a>
</g>
</g>
<!-- Node24&#45;&gt;Node25 -->
<g id="edge32" class="edge">
<title>Node24&#45;&gt;Node25</title>
<path fill="none" stroke="#191970" d="M950.2429,-258.5C966.0461,-258.5 982.5785,-258.5 998.1723,-258.5"/>
<polygon fill="#191970" stroke="#191970" points="998.267,-262.0001 1008.267,-258.5 998.2669,-255.0001 998.267,-262.0001"/>
</g>
<!-- Node30 -->
<g id="node30" class="node">
<title>Node30</title>
<g id="a_node30"><a xlink:href="../../d5/df7/classHepTool_1_1Evaluator.html#a71d40eedb07fbf64deb7991f3aaa43ef" target="_top" xlink:title="HepTool::Evaluator\l::print_error">
<polygon fill="none" stroke="#000000" points="615.5,-488.5 615.5,-520.5 727.5,-520.5 727.5,-488.5 615.5,-488.5"/>
<text text-anchor="start" x="623.5" y="-507.5" font-family="FreeSans" font-size="10.00" fill="#000000">HepTool::Evaluator</text>
<text text-anchor="middle" x="671.5" y="-495.5" font-family="FreeSans" font-size="10.00" fill="#000000">::print_error</text>
</a>
</g>
</g>
<!-- Node29&#45;&gt;Node30 -->
<g id="edge38" class="edge">
<title>Node29&#45;&gt;Node30</title>
<path fill="none" stroke="#191970" d="M517.6864,-504.5C545.1031,-504.5 577.355,-504.5 605.2259,-504.5"/>
<polygon fill="#191970" stroke="#191970" points="605.2789,-508.0001 615.2789,-504.5 605.2788,-501.0001 605.2789,-508.0001"/>
</g>
<!-- Node31 -->
<g id="node31" class="node">
<title>Node31</title>
<g id="a_node31"><a xlink:href="../../d5/df7/classHepTool_1_1Evaluator.html#a45e1f0240b875e851e8c455503df7df9" target="_top" xlink:title="HepTool::Evaluator\l::error_name">
<polygon fill="none" stroke="#000000" points="815,-488.5 815,-520.5 927,-520.5 927,-488.5 815,-488.5"/>
<text text-anchor="start" x="823" y="-507.5" font-family="FreeSans" font-size="10.00" fill="#000000">HepTool::Evaluator</text>
<text text-anchor="middle" x="871" y="-495.5" font-family="FreeSans" font-size="10.00" fill="#000000">::error_name</text>
</a>
</g>
</g>
<!-- Node30&#45;&gt;Node31 -->
<g id="edge39" class="edge">
<title>Node30&#45;&gt;Node31</title>
<path fill="none" stroke="#191970" d="M727.6028,-504.5C751.6091,-504.5 779.8167,-504.5 804.8337,-504.5"/>
<polygon fill="#191970" stroke="#191970" points="804.973,-508.0001 814.973,-504.5 804.973,-501.0001 804.973,-508.0001"/>
</g>
<!-- Node33 -->
<g id="node33" class="node">
<title>Node33</title>
<g id="a_node33"><a xlink:href="../../dc/df7/classG4tgrVolumeMgr.html#a6b55f914bc88b86e4e0ad8258be33503" target="_top" xlink:title="G4tgrVolumeMgr::G4tgrVolumeMgr">
<polygon fill="none" stroke="#000000" points="358,-48.5 358,-68.5 553,-68.5 553,-48.5 358,-48.5"/>
<text text-anchor="middle" x="455.5" y="-55.5" font-family="FreeSans" font-size="10.00" fill="#000000">G4tgrVolumeMgr::G4tgrVolumeMgr</text>
</a>
</g>
</g>
<!-- Node32&#45;&gt;Node33 -->
<g id="edge41" class="edge">
<title>Node32&#45;&gt;Node33</title>
<path fill="none" stroke="#191970" d="M322.0965,-58.5C330.5268,-58.5 339.1623,-58.5 347.7871,-58.5"/>
<polygon fill="#191970" stroke="#191970" points="347.894,-62.0001 357.894,-58.5 347.8939,-55.0001 347.894,-62.0001"/>
</g>
<!-- Node35&#45;&gt;Node7 -->
<g id="edge44" class="edge">
<title>Node35&#45;&gt;Node7</title>
<path fill="none" stroke="#191970" d="M261.1323,-780.5725C315.6859,-802.2016 453.3515,-847.3935 553,-799.5 576.0846,-788.405 567.8709,-768.9762 589,-754.5 591.8745,-752.5306 594.9058,-750.7045 598.0416,-749.0121"/>
<polygon fill="#191970" stroke="#191970" points="599.6591,-752.1174 607.113,-744.5881 596.5907,-745.8257 599.6591,-752.1174"/>
</g>
<!-- Node35&#45;&gt;Node9 -->
<g id="edge45" class="edge">
<title>Node35&#45;&gt;Node9</title>
<path fill="none" stroke="#191970" d="M298.515,-771.3397C325.2149,-771.7071 356.7139,-772.1406 384.4622,-772.5224"/>
<polygon fill="#191970" stroke="#191970" points="384.4524,-776.0225 394.4997,-772.6605 384.5488,-769.0232 384.4524,-776.0225"/>
</g>
<!-- Node35&#45;&gt;Node11 -->
<g id="edge46" class="edge">
<title>Node35&#45;&gt;Node11</title>
<path fill="none" stroke="#191970" d="M254.9713,-760.482C290.3761,-740.1811 371.2484,-693.8094 418.7677,-666.5621"/>
<polygon fill="#191970" stroke="#191970" points="420.5846,-669.5549 427.5187,-661.5443 417.1026,-663.4823 420.5846,-669.5549"/>
</g>
<!-- Node36&#45;&gt;Node4 -->
<g id="edge50" class="edge">
<title>Node36&#45;&gt;Node4</title>
<path fill="none" stroke="#191970" d="M320.2966,-213.5C407.6279,-213.5 549.2491,-213.5 671.5,-213.5 671.5,-213.5 671.5,-213.5 871,-213.5 997.5348,-213.5 1034.8621,-193.7765 1155,-233.5 1193.799,-246.3289 1232.5283,-274.6769 1254.8263,-292.8925"/>
<polygon fill="#191970" stroke="#191970" points="1252.6132,-295.6043 1262.5336,-299.3242 1257.0982,-290.2298 1252.6132,-295.6043"/>
</g>
<!-- Node37 -->
<g id="node37" class="node">
<title>Node37</title>
<g id="a_node37"><a xlink:href="../../d8/d3d/classG4tgrSolid.html#af711b3fcdafe4233a79f6f5446b2926e" target="_top" xlink:title="G4tgrSolid::GetName">
<polygon fill="none" stroke="#000000" points="393.5,-164.5 393.5,-184.5 517.5,-184.5 517.5,-164.5 393.5,-164.5"/>
<text text-anchor="middle" x="455.5" y="-171.5" font-family="FreeSans" font-size="10.00" fill="#000000">G4tgrSolid::GetName</text>
</a>
</g>
</g>
<!-- Node36&#45;&gt;Node37 -->
<g id="edge49" class="edge">
<title>Node36&#45;&gt;Node37</title>
<path fill="none" stroke="#191970" d="M293.6404,-203.4565C322.883,-198.2251 358.8229,-191.7954 389.4023,-186.3248"/>
<polygon fill="#191970" stroke="#191970" points="390.3225,-189.7158 399.5498,-184.5094 389.0897,-182.8252 390.3225,-189.7158"/>
</g>
</g>
</svg>
