<?xml version="1.0" encoding="UTF-8" standalone="no"?>
<!DOCTYPE svg PUBLIC "-//W3C//DTD SVG 1.1//EN"
 "http://www.w3.org/Graphics/SVG/1.1/DTD/svg11.dtd">
<!-- Generated by graphviz version 2.40.1 (20161225.0304)
 -->
<!-- Title: G4INCL::CrossSectionsMultiPionsAndResonances::NNToNNOmegaExcluIso Pages: 1 -->
<svg width="1260pt" height="271pt"
 viewBox="0.00 0.00 1260.00 271.36" xmlns="http://www.w3.org/2000/svg" xmlns:xlink="http://www.w3.org/1999/xlink">
<g id="graph0" class="graph" transform="scale(1 1) rotate(0) translate(4 267.3567)">
<title>G4INCL::CrossSectionsMultiPionsAndResonances::NNToNNOmegaExcluIso</title>
<!-- Node1 -->
<g id="node1" class="node">
<title>Node1</title>
<polygon fill="#bfbfbf" stroke="#000000" points="0,-140.5 0,-184.5 206,-184.5 206,-140.5 0,-140.5"/>
<text text-anchor="start" x="8" y="-171.5" font-family="FreeSans" font-size="10.00" fill="#000000">G4INCL::CrossSectionsMulti</text>
<text text-anchor="start" x="8" y="-159.5" font-family="FreeSans" font-size="10.00" fill="#000000">PionsAndResonances::NNToNNOmega</text>
<text text-anchor="middle" x="103" y="-147.5" font-family="FreeSans" font-size="10.00" fill="#000000">ExcluIso</text>
</g>
<!-- Node2 -->
<g id="node2" class="node">
<title>Node2</title>
<g id="a_node2"><a xlink:href="../../d7/d43/classG4INCL_1_1CrossSectionsMultiPionsAndResonances.html#a274ee70d05cd3ce5dabed9202c68ff0f" target="_top" xlink:title="Cross section for Omega production (exclusive) &#45; NN entrance channel.">
<polygon fill="none" stroke="#000000" points="499,-172.5 499,-204.5 733,-204.5 733,-172.5 499,-172.5"/>
<text text-anchor="start" x="507" y="-191.5" font-family="FreeSans" font-size="10.00" fill="#000000">G4INCL::CrossSectionsMulti</text>
<text text-anchor="middle" x="616" y="-179.5" font-family="FreeSans" font-size="10.00" fill="#000000">PionsAndResonances::NNToNNOmegaExclu</text>
</a>
</g>
</g>
<!-- Node1&#45;&gt;Node2 -->
<g id="edge1" class="edge">
<title>Node1&#45;&gt;Node2</title>
<path fill="none" stroke="#191970" d="M216.2619,-168.2404C300.0546,-172.4872 413.8655,-178.2554 498.6203,-182.5509"/>
<polygon fill="#191970" stroke="#191970" points="216.3605,-164.741 206.1961,-167.7302 216.0061,-171.732 216.3605,-164.741"/>
</g>
<!-- Node6 -->
<g id="node6" class="node">
<title>Node6</title>
<g id="a_node6"><a xlink:href="../../d7/d43/classG4INCL_1_1CrossSectionsMultiPionsAndResonances.html#a4954fa9adaf8a7772d42587d688deca9" target="_top" xlink:title="Isotopic Cross section for Omega production (inclusive) &#45; NN entrance channel.">
<polygon fill="none" stroke="#000000" points="242,-124.5 242,-156.5 463,-156.5 463,-124.5 242,-124.5"/>
<text text-anchor="start" x="250" y="-143.5" font-family="FreeSans" font-size="10.00" fill="#000000">G4INCL::CrossSectionsMulti</text>
<text text-anchor="middle" x="352.5" y="-131.5" font-family="FreeSans" font-size="10.00" fill="#000000">PionsAndResonances::NNToNNOmegaIso</text>
</a>
</g>
</g>
<!-- Node1&#45;&gt;Node6 -->
<g id="edge6" class="edge">
<title>Node1&#45;&gt;Node6</title>
<path fill="none" stroke="#191970" d="M216.4509,-152.4963C224.8236,-151.758 233.2648,-151.0137 241.6219,-150.2768"/>
<polygon fill="#191970" stroke="#191970" points="215.9361,-149.028 206.2822,-153.393 216.551,-156.001 215.9361,-149.028"/>
</g>
<!-- Node3 -->
<g id="node3" class="node">
<title>Node3</title>
<g id="a_node3"><a xlink:href="../../d7/d43/classG4INCL_1_1CrossSectionsMultiPionsAndResonances.html#af8545ff9631c937b2156447ebd8a65dd" target="_top" xlink:title="Cross section for N&#45;Delta&#45;Eta production &#45; NNOmega Channel.">
<polygon fill="none" stroke="#000000" points="769,-204.5 769,-236.5 995,-236.5 995,-204.5 769,-204.5"/>
<text text-anchor="start" x="777" y="-223.5" font-family="FreeSans" font-size="10.00" fill="#000000">G4INCL::CrossSectionsMulti</text>
<text text-anchor="middle" x="882" y="-211.5" font-family="FreeSans" font-size="10.00" fill="#000000">PionsAndResonances::NNToNDeltaOmega</text>
</a>
</g>
</g>
<!-- Node2&#45;&gt;Node3 -->
<g id="edge2" class="edge">
<title>Node2&#45;&gt;Node3</title>
<path fill="none" stroke="#191970" d="M743.0871,-203.7887C751.65,-204.8188 760.2457,-205.8529 768.7317,-206.8737"/>
<polygon fill="#191970" stroke="#191970" points="743.405,-200.3018 733.0586,-202.5822 742.5689,-207.2517 743.405,-200.3018"/>
</g>
<!-- Node4 -->
<g id="node4" class="node">
<title>Node4</title>
<g id="a_node4"><a xlink:href="../../d7/d43/classG4INCL_1_1CrossSectionsMultiPionsAndResonances.html#ab6d538fb41cdbdac0cb9e331a8c228d8" target="_top" xlink:title="Cross section for direct 4&#45;pion production &#45; NNOmega channel.">
<polygon fill="none" stroke="#000000" points="779,-141.5 779,-185.5 985,-185.5 985,-141.5 779,-141.5"/>
<text text-anchor="start" x="787" y="-172.5" font-family="FreeSans" font-size="10.00" fill="#000000">G4INCL::CrossSectionsMulti</text>
<text text-anchor="start" x="787" y="-160.5" font-family="FreeSans" font-size="10.00" fill="#000000">PionsAndResonances::NNToNNOmega</text>
<text text-anchor="middle" x="882" y="-148.5" font-family="FreeSans" font-size="10.00" fill="#000000">FourPi</text>
</a>
</g>
</g>
<!-- Node2&#45;&gt;Node4 -->
<g id="edge3" class="edge">
<title>Node2&#45;&gt;Node4</title>
<path fill="none" stroke="#191970" d="M743.0608,-176.5582C754.9963,-175.4364 766.9956,-174.3087 778.6733,-173.2112"/>
<polygon fill="#191970" stroke="#191970" points="742.6872,-173.0778 733.0586,-177.4983 743.3422,-180.0471 742.6872,-173.0778"/>
</g>
<!-- Node5 -->
<g id="node5" class="node">
<title>Node5</title>
<g id="a_node5"><a xlink:href="../../d7/d43/classG4INCL_1_1CrossSectionsMultiPionsAndResonances.html#a85b9a340115dd088794859b0c3486cc0" target="_top" xlink:title="Cross section for X pion production &#45; NNOmega Channel.">
<polygon fill="none" stroke="#000000" points="1031,-147.5 1031,-179.5 1252,-179.5 1252,-147.5 1031,-147.5"/>
<text text-anchor="start" x="1039" y="-166.5" font-family="FreeSans" font-size="10.00" fill="#000000">G4INCL::CrossSectionsMulti</text>
<text text-anchor="middle" x="1141.5" y="-154.5" font-family="FreeSans" font-size="10.00" fill="#000000">PionsAndResonances::NNToNNOmegaxPi</text>
</a>
</g>
</g>
<!-- Node2&#45;&gt;Node5 -->
<g id="edge5" class="edge">
<title>Node2&#45;&gt;Node5</title>
<path fill="none" stroke="#191970" d="M657.475,-208.928C687.6013,-222.5848 729.7932,-239.318 769,-246.5 867.8005,-264.5985 897.8732,-272.102 995,-246.5 1044.1843,-233.5353 1094.188,-199.8506 1121.1754,-179.6015"/>
<polygon fill="#191970" stroke="#191970" points="658.6831,-205.6308 648.1368,-204.6181 655.7497,-211.9866 658.6831,-205.6308"/>
</g>
<!-- Node4&#45;&gt;Node5 -->
<g id="edge4" class="edge">
<title>Node4&#45;&gt;Node5</title>
<path fill="none" stroke="#191970" d="M995.5558,-163.5C1007.2821,-163.5 1019.1876,-163.5 1030.8812,-163.5"/>
<polygon fill="#191970" stroke="#191970" points="995.3069,-160.0001 985.3069,-163.5 995.3069,-167.0001 995.3069,-160.0001"/>
</g>
<!-- Node7 -->
<g id="node7" class="node">
<title>Node7</title>
<g id="a_node7"><a xlink:href="../../d7/d43/classG4INCL_1_1CrossSectionsMultiPionsAndResonances.html#ad5bef7bcc9d2a9028041a794b3eccd05" target="_top" xlink:title="Cross section for Omega production (inclusive) &#45; NN entrance channel.">
<polygon fill="none" stroke="#000000" points="513,-121.5 513,-153.5 719,-153.5 719,-121.5 513,-121.5"/>
<text text-anchor="start" x="521" y="-140.5" font-family="FreeSans" font-size="10.00" fill="#000000">G4INCL::CrossSectionsMulti</text>
<text text-anchor="middle" x="616" y="-128.5" font-family="FreeSans" font-size="10.00" fill="#000000">PionsAndResonances::NNToNNOmega</text>
</a>
</g>
</g>
<!-- Node6&#45;&gt;Node7 -->
<g id="edge7" class="edge">
<title>Node6&#45;&gt;Node7</title>
<path fill="none" stroke="#191970" d="M473.1909,-139.1259C486.4336,-138.9751 499.8263,-138.8227 512.8289,-138.6746"/>
<polygon fill="#191970" stroke="#191970" points="473.0619,-135.6271 463.1024,-139.2408 473.1416,-142.6266 473.0619,-135.6271"/>
</g>
<!-- Node7&#45;&gt;Node3 -->
<g id="edge8" class="edge">
<title>Node7&#45;&gt;Node3</title>
<path fill="none" stroke="#191970" d="M721.2059,-157.1552C725.248,-158.7962 729.1951,-160.5741 733,-162.5 752.0998,-172.1679 749.9764,-184.683 769,-194.5 776.5134,-198.3772 784.6031,-201.6821 792.8777,-204.498"/>
<polygon fill="#191970" stroke="#191970" points="722.2167,-153.7964 711.6243,-153.5688 719.7628,-160.3522 722.2167,-153.7964"/>
</g>
<!-- Node7&#45;&gt;Node4 -->
<g id="edge9" class="edge">
<title>Node7&#45;&gt;Node4</title>
<path fill="none" stroke="#191970" d="M729.3846,-148.5827C745.8038,-150.1876 762.6307,-151.8323 778.8347,-153.4162"/>
<polygon fill="#191970" stroke="#191970" points="729.5163,-145.079 719.2233,-147.5895 728.8353,-152.0458 729.5163,-145.079"/>
</g>
<!-- Node7&#45;&gt;Node5 -->
<g id="edge10" class="edge">
<title>Node7&#45;&gt;Node5</title>
<path fill="none" stroke="#191970" d="M729.2726,-128.4401C804.7684,-124.1855 906.086,-121.9024 995,-131.5 1023.9894,-134.6292 1055.654,-141.1453 1082.1044,-147.4859"/>
<polygon fill="#191970" stroke="#191970" points="729.0425,-124.9475 719.2634,-129.0242 729.4504,-131.9356 729.0425,-124.9475"/>
</g>
<!-- Node8 -->
<g id="node8" class="node">
<title>Node8</title>
<g id="a_node8"><a xlink:href="../../d0/d36/classG4INCL_1_1CrossSectionsStrangeness.html#ac144354ef3de156a1713bb7b20dfc6c5" target="_top" xlink:title="Cross section for X pion production &#45; NN Channel.">
<polygon fill="none" stroke="#000000" points="785,-51.5 785,-83.5 979,-83.5 979,-51.5 785,-51.5"/>
<text text-anchor="start" x="793" y="-70.5" font-family="FreeSans" font-size="10.00" fill="#000000">G4INCL::CrossSectionsStrangeness</text>
<text text-anchor="middle" x="882" y="-58.5" font-family="FreeSans" font-size="10.00" fill="#000000">::NNToxPiNN</text>
</a>
</g>
</g>
<!-- Node7&#45;&gt;Node8 -->
<g id="edge11" class="edge">
<title>Node7&#45;&gt;Node8</title>
<path fill="none" stroke="#191970" d="M686.8491,-118.8555C728.5871,-107.8718 780.86,-94.1158 820.7982,-83.6057"/>
<polygon fill="#191970" stroke="#191970" points="685.8058,-115.5108 677.0258,-121.4406 687.5873,-122.2803 685.8058,-115.5108"/>
</g>
<!-- Node9 -->
<g id="node9" class="node">
<title>Node9</title>
<g id="a_node9"><a xlink:href="../../d7/d43/classG4INCL_1_1CrossSectionsMultiPionsAndResonances.html#a86be6e64105effd0e50d8384b4c5bbea" target="_top" xlink:title="Cross section for X pion production &#45; NN Channel.">
<polygon fill="none" stroke="#000000" points="790,-.5 790,-32.5 974,-32.5 974,-.5 790,-.5"/>
<text text-anchor="start" x="798" y="-19.5" font-family="FreeSans" font-size="10.00" fill="#000000">G4INCL::CrossSectionsMulti</text>
<text text-anchor="middle" x="882" y="-7.5" font-family="FreeSans" font-size="10.00" fill="#000000">PionsAndResonances::NNToxPiNN</text>
</a>
</g>
</g>
<!-- Node7&#45;&gt;Node9 -->
<g id="edge12" class="edge">
<title>Node7&#45;&gt;Node9</title>
<path fill="none" stroke="#191970" d="M644.7211,-115.2306C674.3036,-93.35 722.5217,-60.5533 769,-41.5 777.273,-38.1086 786.0842,-35.1408 794.9967,-32.5519"/>
<polygon fill="#191970" stroke="#191970" points="642.4321,-112.5721 636.525,-121.3674 646.6276,-118.1755 642.4321,-112.5721"/>
</g>
</g>
</svg>
