<?xml version="1.0" encoding="UTF-8" standalone="no"?>
<!DOCTYPE svg PUBLIC "-//W3C//DTD SVG 1.1//EN"
 "http://www.w3.org/Graphics/SVG/1.1/DTD/svg11.dtd">
<!-- Generated by graphviz version 2.40.1 (20161225.0304)
 -->
<!-- Title: G4VSplitableHadron::G4VSplitableHadron Pages: 1 -->
<svg width="288pt" height="143pt"
 viewBox="0.00 0.00 288.00 143.00" xmlns="http://www.w3.org/2000/svg" xmlns:xlink="http://www.w3.org/1999/xlink">
<g id="graph0" class="graph" transform="scale(1 1) rotate(0) translate(4 139)">
<title>G4VSplitableHadron::G4VSplitableHadron</title>
<!-- Node1 -->
<g id="node1" class="node">
<title>Node1</title>
<polygon fill="#bfbfbf" stroke="#000000" points="0,-51.5 0,-83.5 125,-83.5 125,-51.5 0,-51.5"/>
<text text-anchor="start" x="8" y="-70.5" font-family="FreeSans" font-size="10.00" fill="#000000">G4VSplitableHadron</text>
<text text-anchor="middle" x="62.5" y="-58.5" font-family="FreeSans" font-size="10.00" fill="#000000">::G4VSplitableHadron</text>
</g>
<!-- Node2 -->
<g id="node2" class="node">
<title>Node2</title>
<g id="a_node2"><a xlink:href="../../d8/d81/classG4VKineticNucleon.html#a108658a214f2aa3d19ca6c8a74610e84" target="_top" xlink:title="G4VKineticNucleon::\lGet4Momentum">
<polygon fill="none" stroke="#000000" points="161,-102.5 161,-134.5 280,-134.5 280,-102.5 161,-102.5"/>
<text text-anchor="start" x="169" y="-121.5" font-family="FreeSans" font-size="10.00" fill="#000000">G4VKineticNucleon::</text>
<text text-anchor="middle" x="220.5" y="-109.5" font-family="FreeSans" font-size="10.00" fill="#000000">Get4Momentum</text>
</a>
</g>
</g>
<!-- Node1&#45;&gt;Node2 -->
<g id="edge1" class="edge">
<title>Node1&#45;&gt;Node2</title>
<path fill="none" stroke="#191970" d="M112.4922,-83.6367C127.9153,-88.6151 145.0513,-94.1463 161.0466,-99.3094"/>
<polygon fill="#191970" stroke="#191970" points="160.2414,-102.7272 170.833,-102.4683 162.3917,-96.0656 160.2414,-102.7272"/>
</g>
<!-- Node3 -->
<g id="node3" class="node">
<title>Node3</title>
<g id="a_node3"><a xlink:href="../../d8/d81/classG4VKineticNucleon.html#ac3b61695aad6e1ff6a5b0f5fdcf01d86" target="_top" xlink:title="G4VKineticNucleon::\lGetDefinition">
<polygon fill="none" stroke="#000000" points="161,-51.5 161,-83.5 280,-83.5 280,-51.5 161,-51.5"/>
<text text-anchor="start" x="169" y="-70.5" font-family="FreeSans" font-size="10.00" fill="#000000">G4VKineticNucleon::</text>
<text text-anchor="middle" x="220.5" y="-58.5" font-family="FreeSans" font-size="10.00" fill="#000000">GetDefinition</text>
</a>
</g>
</g>
<!-- Node1&#45;&gt;Node3 -->
<g id="edge2" class="edge">
<title>Node1&#45;&gt;Node3</title>
<path fill="none" stroke="#191970" d="M125.3998,-67.5C133.7204,-67.5 142.2899,-67.5 150.7175,-67.5"/>
<polygon fill="#191970" stroke="#191970" points="150.9007,-71.0001 160.9007,-67.5 150.9006,-64.0001 150.9007,-71.0001"/>
</g>
<!-- Node4 -->
<g id="node4" class="node">
<title>Node4</title>
<g id="a_node4"><a xlink:href="../../d8/d81/classG4VKineticNucleon.html#ae820a96a2c48923979eeef5ae02431db" target="_top" xlink:title="G4VKineticNucleon::\lGetPosition">
<polygon fill="none" stroke="#000000" points="161,-.5 161,-32.5 280,-32.5 280,-.5 161,-.5"/>
<text text-anchor="start" x="169" y="-19.5" font-family="FreeSans" font-size="10.00" fill="#000000">G4VKineticNucleon::</text>
<text text-anchor="middle" x="220.5" y="-7.5" font-family="FreeSans" font-size="10.00" fill="#000000">GetPosition</text>
</a>
</g>
</g>
<!-- Node1&#45;&gt;Node4 -->
<g id="edge3" class="edge">
<title>Node1&#45;&gt;Node4</title>
<path fill="none" stroke="#191970" d="M112.4922,-51.3633C127.9153,-46.3849 145.0513,-40.8537 161.0466,-35.6906"/>
<polygon fill="#191970" stroke="#191970" points="162.3917,-38.9344 170.833,-32.5317 160.2414,-32.2728 162.3917,-38.9344"/>
</g>
</g>
</svg>
