<?xml version="1.0" encoding="UTF-8" standalone="no"?>
<!DOCTYPE svg PUBLIC "-//W3C//DTD SVG 1.1//EN"
 "http://www.w3.org/Graphics/SVG/1.1/DTD/svg11.dtd">
<!-- Generated by graphviz version 2.40.1 (20161225.0304)
 -->
<!-- Title: geant4/tree/geant4&#45;10.6&#45;release/source/global/management/include/G4FilecoutDestination.hh Pages: 1 -->
<svg width="1148pt" height="521pt"
 viewBox="0.00 0.00 1147.59 521.00" xmlns="http://www.w3.org/2000/svg" xmlns:xlink="http://www.w3.org/1999/xlink">
<g id="graph0" class="graph" transform="scale(1 1) rotate(0) translate(4 517)">
<title>geant4/tree/geant4&#45;10.6&#45;release/source/global/management/include/G4FilecoutDestination.hh</title>
<!-- Node1 -->
<g id="node1" class="node">
<title>Node1</title>
<polygon fill="#bfbfbf" stroke="#000000" points="21,-456.5 21,-512.5 184,-512.5 184,-456.5 21,-456.5"/>
<text text-anchor="start" x="29" y="-499.5" font-family="FreeSans" font-size="10.00" fill="#000000">geant4/tree/geant4</text>
<text text-anchor="start" x="29" y="-487.5" font-family="FreeSans" font-size="10.00" fill="#000000">&#45;10.6&#45;release/source</text>
<text text-anchor="start" x="29" y="-475.5" font-family="FreeSans" font-size="10.00" fill="#000000">/global/management/include</text>
<text text-anchor="middle" x="102.5" y="-463.5" font-family="FreeSans" font-size="10.00" fill="#000000">/G4FilecoutDestination.hh</text>
</g>
<!-- Node2 -->
<g id="node2" class="node">
<title>Node2</title>
<polygon fill="none" stroke="#bfbfbf" points="0,-399.5 0,-419.5 55,-419.5 55,-399.5 0,-399.5"/>
<text text-anchor="middle" x="27.5" y="-406.5" font-family="FreeSans" font-size="10.00" fill="#000000">fstream</text>
</g>
<!-- Node1&#45;&gt;Node2 -->
<g id="edge1" class="edge">
<title>Node1&#45;&gt;Node2</title>
<path fill="none" stroke="#191970" d="M74.1457,-456.1457C64.3638,-446.3638 53.6976,-435.6976 45.0368,-427.0368"/>
<polygon fill="#191970" stroke="#191970" points="47.2755,-424.3258 37.7296,-419.7296 42.3258,-429.2755 47.2755,-424.3258"/>
</g>
<!-- Node3 -->
<g id="node3" class="node">
<title>Node3</title>
<polygon fill="none" stroke="#bfbfbf" points="73.5,-399.5 73.5,-419.5 131.5,-419.5 131.5,-399.5 73.5,-399.5"/>
<text text-anchor="middle" x="102.5" y="-406.5" font-family="FreeSans" font-size="10.00" fill="#000000">memory</text>
</g>
<!-- Node1&#45;&gt;Node3 -->
<g id="edge2" class="edge">
<title>Node1&#45;&gt;Node3</title>
<path fill="none" stroke="#191970" d="M102.5,-456.1457C102.5,-447.3619 102.5,-437.8652 102.5,-429.7476"/>
<polygon fill="#191970" stroke="#191970" points="106.0001,-429.7295 102.5,-419.7296 99.0001,-429.7296 106.0001,-429.7295"/>
</g>
<!-- Node4 -->
<g id="node4" class="node">
<title>Node4</title>
<g id="a_node4"><a xlink:href="../../d8/dc1/G4coutDestination_8hh.html" target="_top" xlink:title="G4coutDestination.hh">
<polygon fill="none" stroke="#000000" points="149.5,-399.5 149.5,-419.5 275.5,-419.5 275.5,-399.5 149.5,-399.5"/>
<text text-anchor="middle" x="212.5" y="-406.5" font-family="FreeSans" font-size="10.00" fill="#000000">G4coutDestination.hh</text>
</a>
</g>
</g>
<!-- Node1&#45;&gt;Node4 -->
<g id="edge3" class="edge">
<title>Node1&#45;&gt;Node4</title>
<path fill="none" stroke="#191970" d="M143.7729,-456.3594C159.1279,-445.8901 176.0078,-434.381 189.1963,-425.3889"/>
<polygon fill="#191970" stroke="#191970" points="191.3824,-428.1346 197.6729,-419.6094 187.439,-422.351 191.3824,-428.1346"/>
</g>
<!-- Node5 -->
<g id="node5" class="node">
<title>Node5</title>
<polygon fill="none" stroke="#bfbfbf" points="50.5,-342.5 50.5,-362.5 116.5,-362.5 116.5,-342.5 50.5,-342.5"/>
<text text-anchor="middle" x="83.5" y="-349.5" font-family="FreeSans" font-size="10.00" fill="#000000">functional</text>
</g>
<!-- Node4&#45;&gt;Node5 -->
<g id="edge4" class="edge">
<title>Node4&#45;&gt;Node5</title>
<path fill="none" stroke="#191970" d="M189.7343,-399.4408C169.2286,-390.3801 138.8603,-376.9615 115.8385,-366.7891"/>
<polygon fill="#191970" stroke="#191970" points="117.0335,-363.4907 106.472,-362.6504 114.2043,-369.8935 117.0335,-363.4907"/>
</g>
<!-- Node6 -->
<g id="node6" class="node">
<title>Node6</title>
<polygon fill="none" stroke="#bfbfbf" points="135,-342.5 135,-362.5 184,-362.5 184,-342.5 135,-342.5"/>
<text text-anchor="middle" x="159.5" y="-349.5" font-family="FreeSans" font-size="10.00" fill="#000000">vector</text>
</g>
<!-- Node4&#45;&gt;Node6 -->
<g id="edge5" class="edge">
<title>Node4&#45;&gt;Node6</title>
<path fill="none" stroke="#191970" d="M203.0247,-399.3095C195.4879,-391.204 184.7651,-379.672 175.8487,-370.0826"/>
<polygon fill="#191970" stroke="#191970" points="178.266,-367.5423 168.8933,-362.6022 173.1396,-372.3089 178.266,-367.5423"/>
</g>
<!-- Node7 -->
<g id="node7" class="node">
<title>Node7</title>
<polygon fill="none" stroke="#bfbfbf" points="241,-285.5 241,-305.5 306,-305.5 306,-285.5 241,-285.5"/>
<text text-anchor="middle" x="273.5" y="-292.5" font-family="FreeSans" font-size="10.00" fill="#000000">algorithm</text>
</g>
<!-- Node4&#45;&gt;Node7 -->
<g id="edge6" class="edge">
<title>Node4&#45;&gt;Node7</title>
<path fill="none" stroke="#191970" d="M217.9133,-399.3833C228.0618,-380.4174 250.0994,-339.2323 263.1726,-314.8004"/>
<polygon fill="#191970" stroke="#191970" points="266.3791,-316.2263 268.0111,-305.7579 260.2071,-312.9238 266.3791,-316.2263"/>
</g>
<!-- Node8 -->
<g id="node8" class="node">
<title>Node8</title>
<polygon fill="none" stroke="#bfbfbf" points="388.5,-114.5 388.5,-134.5 448.5,-134.5 448.5,-114.5 388.5,-114.5"/>
<text text-anchor="middle" x="418.5" y="-121.5" font-family="FreeSans" font-size="10.00" fill="#000000">iostream</text>
</g>
<!-- Node4&#45;&gt;Node8 -->
<g id="edge7" class="edge">
<title>Node4&#45;&gt;Node8</title>
<path fill="none" stroke="#191970" d="M212.5,-399.4352C212.5,-379.5659 212.5,-333.8958 212.5,-295.5 212.5,-295.5 212.5,-295.5 212.5,-238.5 212.5,-163.5391 318.2162,-137.4745 378.1849,-128.7194"/>
<polygon fill="#191970" stroke="#191970" points="378.6682,-132.1859 388.104,-127.3676 377.7229,-125.25 378.6682,-132.1859"/>
</g>
<!-- Node9 -->
<g id="node9" class="node">
<title>Node9</title>
<g id="a_node9"><a xlink:href="../../da/d46/globals_8hh.html" target="_top" xlink:title="globals.hh">
<polygon fill="none" stroke="#000000" points="705.5,-342.5 705.5,-362.5 773.5,-362.5 773.5,-342.5 705.5,-342.5"/>
<text text-anchor="middle" x="739.5" y="-349.5" font-family="FreeSans" font-size="10.00" fill="#000000">globals.hh</text>
</a>
</g>
</g>
<!-- Node4&#45;&gt;Node9 -->
<g id="edge8" class="edge">
<title>Node4&#45;&gt;Node9</title>
<path fill="none" stroke="#191970" d="M275.5451,-402.6811C383.6448,-390.9891 601.7427,-367.3997 695.2709,-357.2838"/>
<polygon fill="#191970" stroke="#191970" points="695.6861,-360.7594 705.2517,-356.2043 694.9333,-353.8 695.6861,-360.7594"/>
</g>
<!-- Node9&#45;&gt;Node7 -->
<g id="edge16" class="edge">
<title>Node9&#45;&gt;Node7</title>
<path fill="none" stroke="#191970" d="M705.3818,-349.985C633.7428,-344.4255 462.5411,-329.6753 320.5,-306 319.031,-305.7551 317.5389,-305.4935 316.0339,-305.2187"/>
<polygon fill="#191970" stroke="#191970" points="316.5133,-301.746 306.0258,-303.2498 315.1621,-308.6143 316.5133,-301.746"/>
</g>
<!-- Node10 -->
<g id="node10" class="node">
<title>Node10</title>
<g id="a_node10"><a xlink:href="../../df/de9/G4ios_8hh.html" target="_top" xlink:title="G4ios.hh">
<polygon fill="none" stroke="#000000" points="639,-171.5 639,-191.5 700,-191.5 700,-171.5 639,-171.5"/>
<text text-anchor="middle" x="669.5" y="-178.5" font-family="FreeSans" font-size="10.00" fill="#000000">G4ios.hh</text>
</a>
</g>
</g>
<!-- Node9&#45;&gt;Node10 -->
<g id="edge9" class="edge">
<title>Node9&#45;&gt;Node10</title>
<path fill="none" stroke="#191970" d="M705.4016,-349.1507C615.7407,-339.5706 377.0677,-308.8199 330.5,-249 324.7667,-241.6352 324.3651,-235.0338 330.5,-228 349.8746,-205.7864 542.9672,-190.0671 628.772,-184.1239"/>
<polygon fill="#191970" stroke="#191970" points="629.1894,-187.6037 638.9282,-183.4315 628.7133,-180.6199 629.1894,-187.6037"/>
</g>
<!-- Node11 -->
<g id="node11" class="node">
<title>Node11</title>
<g id="a_node11"><a xlink:href="../../de/d29/G4Types_8hh.html" target="_top" xlink:title="G4Types.hh">
<polygon fill="none" stroke="#000000" points="908,-114.5 908,-134.5 983,-134.5 983,-114.5 908,-114.5"/>
<text text-anchor="middle" x="945.5" y="-121.5" font-family="FreeSans" font-size="10.00" fill="#000000">G4Types.hh</text>
</a>
</g>
</g>
<!-- Node9&#45;&gt;Node11 -->
<g id="edge17" class="edge">
<title>Node9&#45;&gt;Node11</title>
<path fill="none" stroke="#191970" d="M773.7669,-351.7848C849.7439,-349.5756 1029.4197,-340.7223 1077.5,-306 1275.791,-162.7994 936.7357,-246.6212 890.5,-192 875.6305,-174.4337 897.9011,-153.887 918.3947,-140.1181"/>
<polygon fill="#191970" stroke="#191970" points="920.4046,-142.9875 926.9554,-134.6605 916.6416,-137.0849 920.4046,-142.9875"/>
</g>
<!-- Node15 -->
<g id="node15" class="node">
<title>Node15</title>
<g id="a_node15"><a xlink:href="../../d2/df2/source_2global_2management_2include_2G4String_8hh.html" target="_top" xlink:title="G4String.hh">
<polygon fill="none" stroke="#000000" points="756.5,-171.5 756.5,-191.5 832.5,-191.5 832.5,-171.5 756.5,-171.5"/>
<text text-anchor="middle" x="794.5" y="-178.5" font-family="FreeSans" font-size="10.00" fill="#000000">G4String.hh</text>
</a>
</g>
</g>
<!-- Node9&#45;&gt;Node15 -->
<g id="edge18" class="edge">
<title>Node9&#45;&gt;Node15</title>
<path fill="none" stroke="#191970" d="M771.4254,-342.4044C809.7912,-328.3509 872.3829,-298.8375 899.5,-249 914.8659,-220.7596 877.1595,-202.5817 842.7327,-192.2877"/>
<polygon fill="#191970" stroke="#191970" points="843.2615,-188.8009 832.6877,-189.4676 841.3694,-195.5403 843.2615,-188.8009"/>
</g>
<!-- Node20 -->
<g id="node20" class="node">
<title>Node20</title>
<g id="a_node20"><a xlink:href="../../d2/d54/templates_8hh.html" target="_top" xlink:title="templates.hh">
<polygon fill="none" stroke="#000000" points="985,-285.5 985,-305.5 1068,-305.5 1068,-285.5 985,-285.5"/>
<text text-anchor="middle" x="1026.5" y="-292.5" font-family="FreeSans" font-size="10.00" fill="#000000">templates.hh</text>
</a>
</g>
</g>
<!-- Node9&#45;&gt;Node20 -->
<g id="edge25" class="edge">
<title>Node9&#45;&gt;Node20</title>
<path fill="none" stroke="#191970" d="M773.5497,-345.7375C823.2756,-335.8616 916.171,-317.412 974.4885,-305.8298"/>
<polygon fill="#191970" stroke="#191970" points="975.4756,-309.2022 984.6022,-303.8212 974.1119,-302.3363 975.4756,-309.2022"/>
</g>
<!-- Node23 -->
<g id="node23" class="node">
<title>Node23</title>
<g id="a_node23"><a xlink:href="../../d5/d4f/G4Exception_8hh.html" target="_top" xlink:title="G4Exception.hh">
<polygon fill="none" stroke="#000000" points="794.5,-228.5 794.5,-248.5 890.5,-248.5 890.5,-228.5 794.5,-228.5"/>
<text text-anchor="middle" x="842.5" y="-235.5" font-family="FreeSans" font-size="10.00" fill="#000000">G4Exception.hh</text>
</a>
</g>
</g>
<!-- Node9&#45;&gt;Node23 -->
<g id="edge28" class="edge">
<title>Node9&#45;&gt;Node23</title>
<path fill="none" stroke="#191970" d="M748.6406,-342.3833C766.1572,-322.9959 804.6512,-280.3909 826.5107,-256.1969"/>
<polygon fill="#191970" stroke="#191970" points="829.1248,-258.5244 833.2319,-248.7579 823.9308,-253.8315 829.1248,-258.5244"/>
</g>
<!-- Node26 -->
<g id="node26" class="node">
<title>Node26</title>
<g id="a_node26"><a xlink:href="../../dc/d3a/G4EnvironmentUtils_8hh.html" target="_top" xlink:title="G4EnvironmentUtils.hh">
<polygon fill="none" stroke="#000000" points="598,-285.5 598,-305.5 731,-305.5 731,-285.5 598,-285.5"/>
<text text-anchor="middle" x="664.5" y="-292.5" font-family="FreeSans" font-size="10.00" fill="#000000">G4EnvironmentUtils.hh</text>
</a>
</g>
</g>
<!-- Node9&#45;&gt;Node26 -->
<g id="edge34" class="edge">
<title>Node9&#45;&gt;Node26</title>
<path fill="none" stroke="#191970" d="M726.0915,-342.3095C714.893,-333.7987 698.7239,-321.5102 685.7623,-311.6594"/>
<polygon fill="#191970" stroke="#191970" points="687.8719,-308.8665 677.7924,-305.6022 683.6362,-314.4397 687.8719,-308.8665"/>
</g>
<!-- Node10&#45;&gt;Node8 -->
<g id="edge15" class="edge">
<title>Node10&#45;&gt;Node8</title>
<path fill="none" stroke="#191970" d="M638.7225,-174.5107C593.4088,-164.2203 508.7065,-144.9851 458.5873,-133.6035"/>
<polygon fill="#191970" stroke="#191970" points="459.2721,-130.17 448.7453,-131.3684 457.7219,-136.9962 459.2721,-130.17"/>
</g>
<!-- Node10&#45;&gt;Node11 -->
<g id="edge10" class="edge">
<title>Node10&#45;&gt;Node11</title>
<path fill="none" stroke="#191970" d="M700.2828,-175.447C742.4793,-167.1067 820.9028,-151.4525 897.9312,-135.0918"/>
<polygon fill="#191970" stroke="#191970" points="898.7525,-138.4954 907.8041,-132.9892 897.2943,-131.649 898.7525,-138.4954"/>
</g>
<!-- Node12 -->
<g id="node12" class="node">
<title>Node12</title>
<polygon fill="none" stroke="#bfbfbf" points="865,-.5 865,-20.5 976,-20.5 976,-.5 865,-.5"/>
<text text-anchor="middle" x="920.5" y="-7.5" font-family="FreeSans" font-size="10.00" fill="#000000">G4GlobalConfig.hh</text>
</g>
<!-- Node11&#45;&gt;Node12 -->
<g id="edge11" class="edge">
<title>Node11&#45;&gt;Node12</title>
<path fill="none" stroke="#191970" d="M943.2814,-114.3833C939.1777,-95.6703 930.3304,-55.3266 924.9488,-30.7866"/>
<polygon fill="#191970" stroke="#191970" points="928.3105,-29.7761 922.7495,-20.7579 921.4729,-31.2756 928.3105,-29.7761"/>
</g>
<!-- Node13 -->
<g id="node13" class="node">
<title>Node13</title>
<polygon fill="none" stroke="#bfbfbf" points="974,-57.5 974,-77.5 1033,-77.5 1033,-57.5 974,-57.5"/>
<text text-anchor="middle" x="1003.5" y="-64.5" font-family="FreeSans" font-size="10.00" fill="#000000">complex</text>
</g>
<!-- Node11&#45;&gt;Node13 -->
<g id="edge12" class="edge">
<title>Node11&#45;&gt;Node13</title>
<path fill="none" stroke="#191970" d="M955.8692,-114.3095C964.1995,-106.1229 976.0864,-94.441 985.9011,-84.7955"/>
<polygon fill="#191970" stroke="#191970" points="988.5415,-87.1079 993.2205,-77.6022 983.6349,-82.1153 988.5415,-87.1079"/>
</g>
<!-- Node14 -->
<g id="node14" class="node">
<title>Node14</title>
<g id="a_node14"><a xlink:href="../../d0/d00/tls_8hh.html" target="_top" xlink:title="tls.hh">
<polygon fill="none" stroke="#000000" points="873.5,-57.5 873.5,-77.5 917.5,-77.5 917.5,-57.5 873.5,-57.5"/>
<text text-anchor="middle" x="895.5" y="-64.5" font-family="FreeSans" font-size="10.00" fill="#000000">tls.hh</text>
</a>
</g>
</g>
<!-- Node11&#45;&gt;Node14 -->
<g id="edge13" class="edge">
<title>Node11&#45;&gt;Node14</title>
<path fill="none" stroke="#191970" d="M936.561,-114.3095C929.522,-106.2851 919.5371,-94.9022 911.1762,-85.3708"/>
<polygon fill="#191970" stroke="#191970" points="913.5872,-82.8118 904.3616,-77.6022 908.3249,-87.4279 913.5872,-82.8118"/>
</g>
<!-- Node14&#45;&gt;Node12 -->
<g id="edge14" class="edge">
<title>Node14&#45;&gt;Node12</title>
<path fill="none" stroke="#191970" d="M899.9695,-57.3095C903.3113,-49.6903 907.9809,-39.0435 912.0226,-29.8285"/>
<polygon fill="#191970" stroke="#191970" points="915.2578,-31.166 916.0692,-20.6022 908.8473,-28.3543 915.2578,-31.166"/>
</g>
<!-- Node15&#45;&gt;Node8 -->
<g id="edge23" class="edge">
<title>Node15&#45;&gt;Node8</title>
<path fill="none" stroke="#191970" d="M756.3779,-175.7209C685.0208,-164.9034 531.9167,-141.6935 458.8759,-130.6208"/>
<polygon fill="#191970" stroke="#191970" points="459.1113,-127.1166 448.6996,-129.0781 458.062,-134.0375 459.1113,-127.1166"/>
</g>
<!-- Node15&#45;&gt;Node11 -->
<g id="edge22" class="edge">
<title>Node15&#45;&gt;Node11</title>
<path fill="none" stroke="#191970" d="M821.1482,-171.4408C845.6551,-162.1898 882.1964,-148.3961 909.3324,-138.1527"/>
<polygon fill="#191970" stroke="#191970" points="910.7451,-141.3605 918.8647,-134.5544 908.273,-134.8116 910.7451,-141.3605"/>
</g>
<!-- Node16 -->
<g id="node16" class="node">
<title>Node16</title>
<polygon fill="none" stroke="#bfbfbf" points="839.5,-114.5 839.5,-134.5 889.5,-134.5 889.5,-114.5 839.5,-114.5"/>
<text text-anchor="middle" x="864.5" y="-121.5" font-family="FreeSans" font-size="10.00" fill="#000000">stdio.h</text>
</g>
<!-- Node15&#45;&gt;Node16 -->
<g id="edge19" class="edge">
<title>Node15&#45;&gt;Node16</title>
<path fill="none" stroke="#191970" d="M807.0146,-171.3095C817.3669,-162.8798 832.2706,-150.7439 844.3087,-140.9415"/>
<polygon fill="#191970" stroke="#191970" points="846.5494,-143.6306 852.0937,-134.6022 842.1294,-138.2025 846.5494,-143.6306"/>
</g>
<!-- Node17 -->
<g id="node17" class="node">
<title>Node17</title>
<polygon fill="none" stroke="#bfbfbf" points="612,-114.5 612,-134.5 657,-134.5 657,-114.5 612,-114.5"/>
<text text-anchor="middle" x="634.5" y="-121.5" font-family="FreeSans" font-size="10.00" fill="#000000">string</text>
</g>
<!-- Node15&#45;&gt;Node17 -->
<g id="edge20" class="edge">
<title>Node15&#45;&gt;Node17</title>
<path fill="none" stroke="#191970" d="M766.2635,-171.4408C738.4968,-161.5489 696.1502,-146.4629 666.9978,-136.0773"/>
<polygon fill="#191970" stroke="#191970" points="667.8767,-132.675 657.282,-132.6161 665.5275,-139.2691 667.8767,-132.675"/>
</g>
<!-- Node18 -->
<g id="node18" class="node">
<title>Node18</title>
<polygon fill="none" stroke="#bfbfbf" points="675.5,-114.5 675.5,-134.5 725.5,-134.5 725.5,-114.5 675.5,-114.5"/>
<text text-anchor="middle" x="700.5" y="-121.5" font-family="FreeSans" font-size="10.00" fill="#000000">cstring</text>
</g>
<!-- Node15&#45;&gt;Node18 -->
<g id="edge21" class="edge">
<title>Node15&#45;&gt;Node18</title>
<path fill="none" stroke="#191970" d="M777.6947,-171.3095C763.2583,-162.5556 742.2309,-149.8049 725.7665,-139.8211"/>
<polygon fill="#191970" stroke="#191970" points="727.5254,-136.7945 717.1598,-134.6022 723.8958,-142.7801 727.5254,-136.7945"/>
</g>
<!-- Node19 -->
<g id="node19" class="node">
<title>Node19</title>
<polygon fill="none" stroke="#bfbfbf" points="743.5,-114.5 743.5,-134.5 821.5,-134.5 821.5,-114.5 743.5,-114.5"/>
<text text-anchor="middle" x="782.5" y="-121.5" font-family="FreeSans" font-size="10.00" fill="#000000">G4String.icc</text>
</g>
<!-- Node15&#45;&gt;Node19 -->
<g id="edge24" class="edge">
<title>Node15&#45;&gt;Node19</title>
<path fill="none" stroke="#191970" d="M792.3546,-171.3095C790.7847,-163.8524 788.6042,-153.4951 786.6934,-144.4186"/>
<polygon fill="#191970" stroke="#191970" points="790.1119,-143.6667 784.6268,-134.6022 783.262,-145.1088 790.1119,-143.6667"/>
</g>
<!-- Node21 -->
<g id="node21" class="node">
<title>Node21</title>
<polygon fill="none" stroke="#bfbfbf" points="1052.5,-228.5 1052.5,-248.5 1096.5,-248.5 1096.5,-228.5 1052.5,-228.5"/>
<text text-anchor="middle" x="1074.5" y="-235.5" font-family="FreeSans" font-size="10.00" fill="#000000">limits</text>
</g>
<!-- Node20&#45;&gt;Node21 -->
<g id="edge26" class="edge">
<title>Node20&#45;&gt;Node21</title>
<path fill="none" stroke="#191970" d="M1035.0814,-285.3095C1041.8389,-277.2851 1051.4244,-265.9022 1059.4509,-256.3708"/>
<polygon fill="#191970" stroke="#191970" points="1062.2287,-258.5059 1065.9929,-248.6022 1056.8743,-253.9969 1062.2287,-258.5059"/>
</g>
<!-- Node22 -->
<g id="node22" class="node">
<title>Node22</title>
<polygon fill="none" stroke="#bfbfbf" points="985,-228.5 985,-248.5 1034,-248.5 1034,-228.5 985,-228.5"/>
<text text-anchor="middle" x="1009.5" y="-235.5" font-family="FreeSans" font-size="10.00" fill="#000000">climits</text>
</g>
<!-- Node20&#45;&gt;Node22 -->
<g id="edge27" class="edge">
<title>Node20&#45;&gt;Node22</title>
<path fill="none" stroke="#191970" d="M1023.4607,-285.3095C1021.2367,-277.8524 1018.1477,-267.4951 1015.4406,-258.4186"/>
<polygon fill="#191970" stroke="#191970" points="1018.7251,-257.1848 1012.5129,-248.6022 1012.0171,-259.1855 1018.7251,-257.1848"/>
</g>
<!-- Node23&#45;&gt;Node10 -->
<g id="edge29" class="edge">
<title>Node23&#45;&gt;Node10</title>
<path fill="none" stroke="#191970" d="M811.9693,-228.4408C783.5224,-219.0681 740.9226,-205.0323 709.7154,-194.7502"/>
<polygon fill="#191970" stroke="#191970" points="710.609,-191.3596 700.016,-191.5544 708.4184,-198.008 710.609,-191.3596"/>
</g>
<!-- Node23&#45;&gt;Node15 -->
<g id="edge30" class="edge">
<title>Node23&#45;&gt;Node15</title>
<path fill="none" stroke="#191970" d="M833.9186,-228.3095C827.1611,-220.2851 817.5756,-208.9022 809.5491,-199.3708"/>
<polygon fill="#191970" stroke="#191970" points="812.1257,-196.9969 803.0071,-191.6022 806.7713,-201.5059 812.1257,-196.9969"/>
</g>
<!-- Node24 -->
<g id="node24" class="node">
<title>Node24</title>
<g id="a_node24"><a xlink:href="../../d9/d05/G4VExceptionHandler_8hh.html" target="_top" xlink:title="G4VExceptionHandler.hh">
<polygon fill="none" stroke="#000000" points="899.5,-171.5 899.5,-191.5 1041.5,-191.5 1041.5,-171.5 899.5,-171.5"/>
<text text-anchor="middle" x="970.5" y="-178.5" font-family="FreeSans" font-size="10.00" fill="#000000">G4VExceptionHandler.hh</text>
</a>
</g>
</g>
<!-- Node23&#45;&gt;Node24 -->
<g id="edge31" class="edge">
<title>Node23&#45;&gt;Node24</title>
<path fill="none" stroke="#191970" d="M865.0892,-228.4408C885.436,-219.3801 915.5688,-205.9615 938.4122,-195.7891"/>
<polygon fill="#191970" stroke="#191970" points="939.9947,-198.9158 947.7061,-191.6504 937.1471,-192.5212 939.9947,-198.9158"/>
</g>
<!-- Node24&#45;&gt;Node11 -->
<g id="edge32" class="edge">
<title>Node24&#45;&gt;Node11</title>
<path fill="none" stroke="#191970" d="M966.0305,-171.3095C962.6887,-163.6903 958.0191,-153.0435 953.9774,-143.8285"/>
<polygon fill="#191970" stroke="#191970" points="957.1527,-142.3543 949.9308,-134.6022 950.7422,-145.166 957.1527,-142.3543"/>
</g>
<!-- Node25 -->
<g id="node25" class="node">
<title>Node25</title>
<g id="a_node25"><a xlink:href="../../d6/d7e/G4ExceptionSeverity_8hh.html" target="_top" xlink:title="G4ExceptionSeverity.hh">
<polygon fill="none" stroke="#000000" points="1001.5,-114.5 1001.5,-134.5 1137.5,-134.5 1137.5,-114.5 1001.5,-114.5"/>
<text text-anchor="middle" x="1069.5" y="-121.5" font-family="FreeSans" font-size="10.00" fill="#000000">G4ExceptionSeverity.hh</text>
</a>
</g>
</g>
<!-- Node24&#45;&gt;Node25 -->
<g id="edge33" class="edge">
<title>Node24&#45;&gt;Node25</title>
<path fill="none" stroke="#191970" d="M988.1992,-171.3095C1003.4035,-162.5556 1025.5494,-149.8049 1042.8896,-139.8211"/>
<polygon fill="#191970" stroke="#191970" points="1045.0342,-142.6251 1051.954,-134.6022 1041.5414,-136.5587 1045.0342,-142.6251"/>
</g>
<!-- Node26&#45;&gt;Node8 -->
<g id="edge39" class="edge">
<title>Node26&#45;&gt;Node8</title>
<path fill="none" stroke="#191970" d="M597.8554,-290.8631C505.4557,-283.7464 347.773,-268.8444 330.5,-249 298.6995,-212.4655 357.3261,-164.5474 393.3516,-140.1876"/>
<polygon fill="#191970" stroke="#191970" points="395.5273,-142.9457 401.9549,-134.5233 391.6779,-137.0991 395.5273,-142.9457"/>
</g>
<!-- Node26&#45;&gt;Node10 -->
<g id="edge42" class="edge">
<title>Node26&#45;&gt;Node10</title>
<path fill="none" stroke="#191970" d="M666.5013,-285.2075C668.2191,-275.818 670.5616,-261.5373 671.5,-249 672.6895,-233.1073 672.0518,-215.06 671.192,-201.6276"/>
<polygon fill="#191970" stroke="#191970" points="674.6771,-201.2946 670.4528,-191.5784 667.6959,-201.8082 674.6771,-201.2946"/>
</g>
<!-- Node26&#45;&gt;Node15 -->
<g id="edge43" class="edge">
<title>Node26&#45;&gt;Node15</title>
<path fill="none" stroke="#191970" d="M686.134,-285.4141C702.6512,-277.0784 725.4044,-264.1761 742.5,-249 758.6534,-234.6604 773.2968,-214.7191 782.8976,-200.2314"/>
<polygon fill="#191970" stroke="#191970" points="785.9759,-201.9154 788.4437,-191.612 780.0893,-198.1276 785.9759,-201.9154"/>
</g>
<!-- Node26&#45;&gt;Node17 -->
<g id="edge36" class="edge">
<title>Node26&#45;&gt;Node17</title>
<path fill="none" stroke="#191970" d="M673.6333,-285.3415C692.1277,-263.4781 730.4559,-210.7275 708.5,-171 699.5047,-154.7238 682.161,-143.374 666.5244,-135.9643"/>
<polygon fill="#191970" stroke="#191970" points="667.6642,-132.6429 657.099,-131.851 664.8643,-139.0586 667.6642,-132.6429"/>
</g>
<!-- Node26&#45;&gt;Node23 -->
<g id="edge44" class="edge">
<title>Node26&#45;&gt;Node23</title>
<path fill="none" stroke="#191970" d="M695.9131,-285.4408C725.3088,-276.0275 769.3929,-261.9107 801.5386,-251.6169"/>
<polygon fill="#191970" stroke="#191970" points="802.6459,-254.9374 811.1021,-248.5544 800.511,-248.2709 802.6459,-254.9374"/>
</g>
<!-- Node26&#45;&gt;Node25 -->
<g id="edge45" class="edge">
<title>Node26&#45;&gt;Node25</title>
<path fill="none" stroke="#191970" d="M730.2775,-285.4852C777.7822,-277.5282 843.2124,-265.0729 899.5,-249 933.9882,-239.1519 1026.2595,-218.4352 1050.5,-192 1062.3019,-179.1296 1066.8433,-159.4909 1068.5554,-144.7091"/>
<polygon fill="#191970" stroke="#191970" points="1072.0598,-144.7966 1069.3865,-134.5446 1065.0831,-144.2261 1072.0598,-144.7966"/>
</g>
<!-- Node27 -->
<g id="node27" class="node">
<title>Node27</title>
<polygon fill="none" stroke="#bfbfbf" points="339.5,-228.5 339.5,-248.5 389.5,-248.5 389.5,-228.5 339.5,-228.5"/>
<text text-anchor="middle" x="364.5" y="-235.5" font-family="FreeSans" font-size="10.00" fill="#000000">cstdlib</text>
</g>
<!-- Node26&#45;&gt;Node27 -->
<g id="edge35" class="edge">
<title>Node26&#45;&gt;Node27</title>
<path fill="none" stroke="#191970" d="M597.8859,-286.2455C546.1155,-278.5063 472.392,-266.2938 399.4682,-249.0143"/>
<polygon fill="#191970" stroke="#191970" points="400.1936,-245.5891 389.6527,-246.6562 398.5584,-252.3954 400.1936,-245.5891"/>
</g>
<!-- Node28 -->
<g id="node28" class="node">
<title>Node28</title>
<polygon fill="none" stroke="#bfbfbf" points="407.5,-228.5 407.5,-248.5 463.5,-248.5 463.5,-228.5 407.5,-228.5"/>
<text text-anchor="middle" x="435.5" y="-235.5" font-family="FreeSans" font-size="10.00" fill="#000000">sstream</text>
</g>
<!-- Node26&#45;&gt;Node28 -->
<g id="edge37" class="edge">
<title>Node26&#45;&gt;Node28</title>
<path fill="none" stroke="#191970" d="M620.9137,-285.4539C584.0516,-276.8431 529.6082,-263.8582 473.5018,-249.1996"/>
<polygon fill="#191970" stroke="#191970" points="474.3118,-245.7937 463.7507,-246.6393 472.534,-252.5642 474.3118,-245.7937"/>
</g>
<!-- Node29 -->
<g id="node29" class="node">
<title>Node29</title>
<polygon fill="none" stroke="#bfbfbf" points="482,-228.5 482,-248.5 521,-248.5 521,-228.5 482,-228.5"/>
<text text-anchor="middle" x="501.5" y="-235.5" font-family="FreeSans" font-size="10.00" fill="#000000">map</text>
</g>
<!-- Node26&#45;&gt;Node29 -->
<g id="edge38" class="edge">
<title>Node26&#45;&gt;Node29</title>
<path fill="none" stroke="#191970" d="M634.6584,-285.4796C609.2297,-276.8842 571.4926,-263.9953 530.653,-249.3612"/>
<polygon fill="#191970" stroke="#191970" points="531.6517,-246.001 521.0573,-245.9109 529.2832,-252.5881 531.6517,-246.001"/>
</g>
<!-- Node30 -->
<g id="node30" class="node">
<title>Node30</title>
<polygon fill="none" stroke="#bfbfbf" points="539,-228.5 539,-248.5 596,-248.5 596,-228.5 539,-228.5"/>
<text text-anchor="middle" x="567.5" y="-235.5" font-family="FreeSans" font-size="10.00" fill="#000000">iomanip</text>
</g>
<!-- Node26&#45;&gt;Node30 -->
<g id="edge40" class="edge">
<title>Node26&#45;&gt;Node30</title>
<path fill="none" stroke="#191970" d="M647.1583,-285.3095C632.2612,-276.5556 610.5627,-263.8049 593.5728,-253.8211"/>
<polygon fill="#191970" stroke="#191970" points="595.0864,-250.651 584.6915,-248.6022 591.5399,-256.6862 595.0864,-250.651"/>
</g>
<!-- Node31 -->
<g id="node31" class="node">
<title>Node31</title>
<polygon fill="none" stroke="#bfbfbf" points="614.5,-228.5 614.5,-248.5 662.5,-248.5 662.5,-228.5 614.5,-228.5"/>
<text text-anchor="middle" x="638.5" y="-235.5" font-family="FreeSans" font-size="10.00" fill="#000000">mutex</text>
</g>
<!-- Node26&#45;&gt;Node31 -->
<g id="edge41" class="edge">
<title>Node26&#45;&gt;Node31</title>
<path fill="none" stroke="#191970" d="M659.8517,-285.3095C656.3763,-277.6903 651.5198,-267.0435 647.3165,-257.8285"/>
<polygon fill="#191970" stroke="#191970" points="650.4425,-256.2479 643.108,-248.6022 644.0738,-259.153 650.4425,-256.2479"/>
</g>
</g>
</svg>
