<?xml version="1.0" encoding="UTF-8" standalone="no"?>
<!DOCTYPE svg PUBLIC "-//W3C//DTD SVG 1.1//EN"
 "http://www.w3.org/Graphics/SVG/1.1/DTD/svg11.dtd">
<!-- Generated by graphviz version 2.40.1 (20161225.0304)
 -->
<!-- Title: MarshaledG4THitsCollection::unmarshalTo Pages: 1 -->
<svg width="945pt" height="118pt"
 viewBox="0.00 0.00 945.00 118.00" xmlns="http://www.w3.org/2000/svg" xmlns:xlink="http://www.w3.org/1999/xlink">
<g id="graph0" class="graph" transform="scale(1 1) rotate(0) translate(4 114)">
<title>MarshaledG4THitsCollection::unmarshalTo</title>
<!-- Node1 -->
<g id="node1" class="node">
<title>Node1</title>
<polygon fill="#bfbfbf" stroke="#000000" points="0,-25.5 0,-57.5 159,-57.5 159,-25.5 0,-25.5"/>
<text text-anchor="start" x="8" y="-44.5" font-family="FreeSans" font-size="10.00" fill="#000000">MarshaledG4THitsCollection</text>
<text text-anchor="middle" x="79.5" y="-32.5" font-family="FreeSans" font-size="10.00" fill="#000000">::unmarshalTo</text>
</g>
<!-- Node2 -->
<g id="node2" class="node">
<title>Node2</title>
<g id="a_node2"><a xlink:href="../../d3/dfb/classMarshaledG4VHitsCollection.html#afa1c93ce342124d1b6a334245c6bc2ff" target="_top" xlink:title="MarshaledG4VHitsCollection\l::unmarshal3">
<polygon fill="none" stroke="#000000" points="195,-25.5 195,-57.5 354,-57.5 354,-25.5 195,-25.5"/>
<text text-anchor="start" x="203" y="-44.5" font-family="FreeSans" font-size="10.00" fill="#000000">MarshaledG4VHitsCollection</text>
<text text-anchor="middle" x="274.5" y="-32.5" font-family="FreeSans" font-size="10.00" fill="#000000">::unmarshal3</text>
</a>
</g>
</g>
<!-- Node1&#45;&gt;Node2 -->
<g id="edge1" class="edge">
<title>Node1&#45;&gt;Node2</title>
<path fill="none" stroke="#191970" d="M169.117,-41.5C177.6999,-41.5 186.3647,-41.5 194.8432,-41.5"/>
<polygon fill="#191970" stroke="#191970" points="169.0953,-38.0001 159.0952,-41.5 169.0952,-45.0001 169.0953,-38.0001"/>
</g>
<!-- Node3 -->
<g id="node3" class="node">
<title>Node3</title>
<g id="a_node3"><a xlink:href="../../d3/dfb/classMarshaledG4VHitsCollection.html#a2554aabc1ffcfa24f64ed0f4ec142c3a" target="_top" xlink:title="MarshaledG4VHitsCollection\l::unmarshal">
<polygon fill="none" stroke="#000000" points="390,-51.5 390,-83.5 549,-83.5 549,-51.5 390,-51.5"/>
<text text-anchor="start" x="398" y="-70.5" font-family="FreeSans" font-size="10.00" fill="#000000">MarshaledG4VHitsCollection</text>
<text text-anchor="middle" x="469.5" y="-58.5" font-family="FreeSans" font-size="10.00" fill="#000000">::unmarshal</text>
</a>
</g>
</g>
<!-- Node2&#45;&gt;Node3 -->
<g id="edge2" class="edge">
<title>Node2&#45;&gt;Node3</title>
<path fill="none" stroke="#191970" d="M364.117,-53.4489C372.6999,-54.5933 381.3647,-55.7486 389.8432,-56.8791"/>
<polygon fill="#191970" stroke="#191970" points="364.4701,-49.9651 354.0952,-52.1127 363.5449,-56.9037 364.4701,-49.9651"/>
</g>
<!-- Node7 -->
<g id="node7" class="node">
<title>Node7</title>
<g id="a_node7"><a xlink:href="../../d3/dfb/classMarshaledG4VHitsCollection.html#a78c1e6b4a3e3e361a2ed2bbe5712bd01" target="_top" xlink:title="MarshaledG4VHitsCollection\l::unmarshalTo">
<polygon fill="none" stroke="#000000" points="390,-.5 390,-32.5 549,-32.5 549,-.5 390,-.5"/>
<text text-anchor="start" x="398" y="-19.5" font-family="FreeSans" font-size="10.00" fill="#000000">MarshaledG4VHitsCollection</text>
<text text-anchor="middle" x="469.5" y="-7.5" font-family="FreeSans" font-size="10.00" fill="#000000">::unmarshalTo</text>
</a>
</g>
</g>
<!-- Node2&#45;&gt;Node7 -->
<g id="edge6" class="edge">
<title>Node2&#45;&gt;Node7</title>
<path fill="none" stroke="#191970" d="M364.117,-30.0106C372.6999,-28.9103 381.3647,-27.7994 389.8432,-26.7124"/>
<polygon fill="#191970" stroke="#191970" points="363.5689,-26.5522 354.0952,-31.2955 364.4591,-33.4953 363.5689,-26.5522"/>
</g>
<!-- Node4 -->
<g id="node4" class="node">
<title>Node4</title>
<g id="a_node4"><a xlink:href="../../dd/de6/classMarshaledG4HCofThisEvent.html#a3c053087afc4effd98ca7da94c239d2b" target="_top" xlink:title="MarshaledG4HCofThisEvent\l::unmarshal1">
<polygon fill="none" stroke="#000000" points="585,-51.5 585,-83.5 743,-83.5 743,-51.5 585,-51.5"/>
<text text-anchor="start" x="593" y="-70.5" font-family="FreeSans" font-size="10.00" fill="#000000">MarshaledG4HCofThisEvent</text>
<text text-anchor="middle" x="664" y="-58.5" font-family="FreeSans" font-size="10.00" fill="#000000">::unmarshal1</text>
</a>
</g>
</g>
<!-- Node3&#45;&gt;Node4 -->
<g id="edge3" class="edge">
<title>Node3&#45;&gt;Node4</title>
<path fill="none" stroke="#191970" d="M559.4326,-67.5C567.889,-67.5 576.4196,-67.5 584.7667,-67.5"/>
<polygon fill="#191970" stroke="#191970" points="559.1718,-64.0001 549.1718,-67.5 559.1718,-71.0001 559.1718,-64.0001"/>
</g>
<!-- Node5 -->
<g id="node5" class="node">
<title>Node5</title>
<g id="a_node5"><a xlink:href="../../dd/de6/classMarshaledG4HCofThisEvent.html#a06754cdddb86ba414a4dbc0740d93393" target="_top" xlink:title="MarshaledG4HCofThisEvent\l::unmarshal">
<polygon fill="none" stroke="#000000" points="779,-77.5 779,-109.5 937,-109.5 937,-77.5 779,-77.5"/>
<text text-anchor="start" x="787" y="-96.5" font-family="FreeSans" font-size="10.00" fill="#000000">MarshaledG4HCofThisEvent</text>
<text text-anchor="middle" x="858" y="-84.5" font-family="FreeSans" font-size="10.00" fill="#000000">::unmarshal</text>
</a>
</g>
</g>
<!-- Node4&#45;&gt;Node5 -->
<g id="edge4" class="edge">
<title>Node4&#45;&gt;Node5</title>
<path fill="none" stroke="#191970" d="M753.1574,-79.4489C761.6963,-80.5933 770.3167,-81.7486 778.7517,-82.8791"/>
<polygon fill="#191970" stroke="#191970" points="753.5634,-75.9721 743.187,-78.1127 752.6335,-82.9101 753.5634,-75.9721"/>
</g>
<!-- Node6 -->
<g id="node6" class="node">
<title>Node6</title>
<g id="a_node6"><a xlink:href="../../dd/de6/classMarshaledG4HCofThisEvent.html#a404c5e9628bf31472c63cbe90228ba9a" target="_top" xlink:title="MarshaledG4HCofThisEvent\l::unmarshalTo">
<polygon fill="none" stroke="#000000" points="779,-26.5 779,-58.5 937,-58.5 937,-26.5 779,-26.5"/>
<text text-anchor="start" x="787" y="-45.5" font-family="FreeSans" font-size="10.00" fill="#000000">MarshaledG4HCofThisEvent</text>
<text text-anchor="middle" x="858" y="-33.5" font-family="FreeSans" font-size="10.00" fill="#000000">::unmarshalTo</text>
</a>
</g>
</g>
<!-- Node4&#45;&gt;Node6 -->
<g id="edge5" class="edge">
<title>Node4&#45;&gt;Node6</title>
<path fill="none" stroke="#191970" d="M753.1574,-56.0106C761.6963,-54.9103 770.3167,-53.7994 778.7517,-52.7124"/>
<polygon fill="#191970" stroke="#191970" points="752.6577,-52.546 743.187,-57.2955 753.5524,-59.4886 752.6577,-52.546"/>
</g>
</g>
</svg>
