<?xml version="1.0" encoding="UTF-8" standalone="no"?>
<!DOCTYPE svg PUBLIC "-//W3C//DTD SVG 1.1//EN"
 "http://www.w3.org/Graphics/SVG/1.1/DTD/svg11.dtd">
<!-- Generated by graphviz version 2.40.1 (20161225.0304)
 -->
<!-- Title: F04StackingAction::ClassifyNewTrack Pages: 1 -->
<svg width="1846pt" height="622pt"
 viewBox="0.00 0.00 1846.00 621.62" xmlns="http://www.w3.org/2000/svg" xmlns:xlink="http://www.w3.org/1999/xlink">
<g id="graph0" class="graph" transform="scale(1 1) rotate(0) translate(4 617.6246)">
<title>F04StackingAction::ClassifyNewTrack</title>
<!-- Node1 -->
<g id="node1" class="node">
<title>Node1</title>
<polygon fill="#bfbfbf" stroke="#000000" points="0,-380.1246 0,-412.1246 116,-412.1246 116,-380.1246 0,-380.1246"/>
<text text-anchor="start" x="8" y="-399.1246" font-family="FreeSans" font-size="10.00" fill="#000000">F04StackingAction::</text>
<text text-anchor="middle" x="58" y="-387.1246" font-family="FreeSans" font-size="10.00" fill="#000000">ClassifyNewTrack</text>
</g>
<!-- Node2 -->
<g id="node2" class="node">
<title>Node2</title>
<g id="a_node2"><a xlink:href="../../d1/d33/classG4Track.html#aa5811897dbdf45b5b9c947dcdf0b4fb2" target="_top" xlink:title="G4Track::GetDefinition">
<polygon fill="none" stroke="#000000" points="178.5,-593.1246 178.5,-613.1246 308.5,-613.1246 308.5,-593.1246 178.5,-593.1246"/>
<text text-anchor="middle" x="243.5" y="-600.1246" font-family="FreeSans" font-size="10.00" fill="#000000">G4Track::GetDefinition</text>
</a>
</g>
</g>
<!-- Node1&#45;&gt;Node2 -->
<g id="edge1" class="edge">
<title>Node1&#45;&gt;Node2</title>
<path fill="none" stroke="#191970" d="M61.1033,-412.2343C69.0758,-449.006 93.874,-539.3893 152,-584.1246 157.0626,-588.0209 162.7324,-591.1681 168.703,-593.7045"/>
<polygon fill="#191970" stroke="#191970" points="167.6949,-597.0624 178.2888,-597.2073 170.0975,-590.4876 167.6949,-597.0624"/>
</g>
<!-- Node3 -->
<g id="node3" class="node">
<title>Node3</title>
<g id="a_node3"><a xlink:href="../../d1/d33/classG4Track.html#ab95cf561ef469d0122a65e232bc0ffa5" target="_top" xlink:title="G4Track::GetParentID">
<polygon fill="none" stroke="#000000" points="181.5,-554.1246 181.5,-574.1246 305.5,-574.1246 305.5,-554.1246 181.5,-554.1246"/>
<text text-anchor="middle" x="243.5" y="-561.1246" font-family="FreeSans" font-size="10.00" fill="#000000">G4Track::GetParentID</text>
</a>
</g>
</g>
<!-- Node1&#45;&gt;Node3 -->
<g id="edge2" class="edge">
<title>Node1&#45;&gt;Node3</title>
<path fill="none" stroke="#191970" d="M64.0326,-412.1845C76.0453,-441.9301 105.8405,-505.6106 152,-539.1246 158.3714,-543.7506 165.5545,-547.5206 173.024,-550.5931"/>
<polygon fill="#191970" stroke="#191970" points="172.0055,-553.9478 182.5989,-554.1238 174.4274,-547.3801 172.0055,-553.9478"/>
</g>
<!-- Node4 -->
<g id="node4" class="node">
<title>Node4</title>
<g id="a_node4"><a xlink:href="../../d5/d38/classG4ParticleDefinition.html#a02a571907ec0c42bf356545826d9234f" target="_top" xlink:title="G4ParticleDefinition\l::GetParticleName">
<polygon fill="none" stroke="#000000" points="759,-503.1246 759,-535.1246 875,-535.1246 875,-503.1246 759,-503.1246"/>
<text text-anchor="start" x="767" y="-522.1246" font-family="FreeSans" font-size="10.00" fill="#000000">G4ParticleDefinition</text>
<text text-anchor="middle" x="817" y="-510.1246" font-family="FreeSans" font-size="10.00" fill="#000000">::GetParticleName</text>
</a>
</g>
</g>
<!-- Node1&#45;&gt;Node4 -->
<g id="edge3" class="edge">
<title>Node1&#45;&gt;Node4</title>
<path fill="none" stroke="#191970" d="M77.9348,-412.2443C96.1033,-426.0179 124.2618,-445.1426 152,-455.1246 359.5218,-529.8044 625.6586,-528.8525 748.8356,-523.4223"/>
<polygon fill="#191970" stroke="#191970" points="749.0539,-526.916 758.8806,-522.9553 748.7288,-519.9236 749.0539,-526.916"/>
</g>
<!-- Node5 -->
<g id="node5" class="node">
<title>Node5</title>
<g id="a_node5"><a xlink:href="../../d8/d80/classG4KaonPlus.html#a5251d30dec89bdbcbb5b9942c40a5408" target="_top" xlink:title="G4KaonPlus::KaonPlusDefinition">
<polygon fill="none" stroke="#000000" points="154.5,-386.1246 154.5,-406.1246 332.5,-406.1246 332.5,-386.1246 154.5,-386.1246"/>
<text text-anchor="middle" x="243.5" y="-393.1246" font-family="FreeSans" font-size="10.00" fill="#000000">G4KaonPlus::KaonPlusDefinition</text>
</a>
</g>
</g>
<!-- Node1&#45;&gt;Node5 -->
<g id="edge4" class="edge">
<title>Node1&#45;&gt;Node5</title>
<path fill="none" stroke="#191970" d="M116.1844,-396.1246C125.1743,-396.1246 134.6698,-396.1246 144.2583,-396.1246"/>
<polygon fill="#191970" stroke="#191970" points="144.2669,-399.6247 154.2669,-396.1246 144.2668,-392.6247 144.2669,-399.6247"/>
</g>
<!-- Node27 -->
<g id="node27" class="node">
<title>Node27</title>
<g id="a_node27"><a xlink:href="../../de/db6/classG4MuonPlus.html#a081f0397a05805f00f8c4cd9bd4aee8a" target="_top" xlink:title="G4MuonPlus::MuonPlusDefinition">
<polygon fill="none" stroke="#000000" points="152,-344.1246 152,-364.1246 335,-364.1246 335,-344.1246 152,-344.1246"/>
<text text-anchor="middle" x="243.5" y="-351.1246" font-family="FreeSans" font-size="10.00" fill="#000000">G4MuonPlus::MuonPlusDefinition</text>
</a>
</g>
</g>
<!-- Node1&#45;&gt;Node27 -->
<g id="edge31" class="edge">
<title>Node1&#45;&gt;Node27</title>
<path fill="none" stroke="#191970" d="M116.1844,-382.9508C139.5084,-377.6699 166.2355,-371.6185 189.1602,-366.428"/>
<polygon fill="#191970" stroke="#191970" points="190.0842,-369.8074 199.0644,-364.1855 188.5384,-362.9802 190.0842,-369.8074"/>
</g>
<!-- Node30 -->
<g id="node30" class="node">
<title>Node30</title>
<g id="a_node30"><a xlink:href="../../d5/d43/classG4Neutron.html#a59e972cee9c54b192067c92f52965abe" target="_top" xlink:title="G4Neutron::NeutronDefinition">
<polygon fill="none" stroke="#000000" points="160,-226.1246 160,-246.1246 327,-246.1246 327,-226.1246 160,-226.1246"/>
<text text-anchor="middle" x="243.5" y="-233.1246" font-family="FreeSans" font-size="10.00" fill="#000000">G4Neutron::NeutronDefinition</text>
</a>
</g>
</g>
<!-- Node1&#45;&gt;Node30 -->
<g id="edge40" class="edge">
<title>Node1&#45;&gt;Node30</title>
<path fill="none" stroke="#191970" d="M68.1323,-379.9611C83.7459,-356.082 115.7092,-311.0861 152,-282.1246 168.5331,-268.9305 189.4606,-258.0652 207.1275,-250.2136"/>
<polygon fill="#191970" stroke="#191970" points="208.7493,-253.3263 216.5583,-246.166 205.9885,-246.8937 208.7493,-253.3263"/>
</g>
<!-- Node33 -->
<g id="node33" class="node">
<title>Node33</title>
<g id="a_node33"><a xlink:href="../../d0/dc2/classG4PionPlus.html#aa5dee945dcf2c16926bf421209774b60" target="_top" xlink:title="G4PionPlus::PionPlusDefinition">
<polygon fill="none" stroke="#000000" points="158.5,-425.1246 158.5,-445.1246 328.5,-445.1246 328.5,-425.1246 158.5,-425.1246"/>
<text text-anchor="middle" x="243.5" y="-432.1246" font-family="FreeSans" font-size="10.00" fill="#000000">G4PionPlus::PionPlusDefinition</text>
</a>
</g>
</g>
<!-- Node1&#45;&gt;Node33 -->
<g id="edge48" class="edge">
<title>Node1&#45;&gt;Node33</title>
<path fill="none" stroke="#191970" d="M116.1569,-408.5449C128.0143,-411.0642 140.4072,-413.6877 152,-416.1246 162.6973,-418.3733 174.1017,-420.7544 185.1001,-423.0424"/>
<polygon fill="#191970" stroke="#191970" points="184.5515,-426.5031 195.0545,-425.1111 185.9758,-419.6495 184.5515,-426.5031"/>
</g>
<!-- Node35 -->
<g id="node35" class="node">
<title>Node35</title>
<g id="a_node35"><a xlink:href="../../d3/d12/classG4Positron.html#aeff078728126a53a3730f1deadf6e33e" target="_top" xlink:title="G4Positron::PositronDefinition">
<polygon fill="none" stroke="#000000" points="160,-292.1246 160,-312.1246 327,-312.1246 327,-292.1246 160,-292.1246"/>
<text text-anchor="middle" x="243.5" y="-299.1246" font-family="FreeSans" font-size="10.00" fill="#000000">G4Positron::PositronDefinition</text>
</a>
</g>
</g>
<!-- Node1&#45;&gt;Node35 -->
<g id="edge55" class="edge">
<title>Node1&#45;&gt;Node35</title>
<path fill="none" stroke="#191970" d="M79.1172,-380.0009C97.5949,-366.4405 125.5454,-347.2234 152,-334.1246 166.722,-326.8351 183.5209,-320.452 198.6721,-315.3438"/>
<polygon fill="#191970" stroke="#191970" points="199.9377,-318.6124 208.3523,-312.1745 197.7596,-311.9598 199.9377,-318.6124"/>
</g>
<!-- Node37 -->
<g id="node37" class="node">
<title>Node37</title>
<g id="a_node37"><a xlink:href="../../d2/dd8/classG4Proton.html#a16a4c07451ddd7d28dc065be0a2840d8" target="_top" xlink:title="G4Proton::ProtonDefinition">
<polygon fill="none" stroke="#000000" points="168,-134.1246 168,-154.1246 319,-154.1246 319,-134.1246 168,-134.1246"/>
<text text-anchor="middle" x="243.5" y="-141.1246" font-family="FreeSans" font-size="10.00" fill="#000000">G4Proton::ProtonDefinition</text>
</a>
</g>
</g>
<!-- Node1&#45;&gt;Node37 -->
<g id="edge61" class="edge">
<title>Node1&#45;&gt;Node37</title>
<path fill="none" stroke="#191970" d="M63.7984,-379.8592C76.2144,-346.5626 107.873,-269.2987 152,-216.1246 170.9182,-193.3278 198.1634,-173.0356 218.0014,-159.8517"/>
<polygon fill="#191970" stroke="#191970" points="220.0557,-162.691 226.5384,-154.3109 216.2447,-156.8193 220.0557,-162.691"/>
</g>
<!-- Node6 -->
<g id="node6" class="node">
<title>Node6</title>
<g id="a_node6"><a xlink:href="../../d8/d80/classG4KaonPlus.html#a1298aac3eb3ccd09fc832fd83a2099fb" target="_top" xlink:title="G4KaonPlus::Definition">
<polygon fill="none" stroke="#000000" points="372,-386.1246 372,-406.1246 504,-406.1246 504,-386.1246 372,-386.1246"/>
<text text-anchor="middle" x="438" y="-393.1246" font-family="FreeSans" font-size="10.00" fill="#000000">G4KaonPlus::Definition</text>
</a>
</g>
</g>
<!-- Node5&#45;&gt;Node6 -->
<g id="edge5" class="edge">
<title>Node5&#45;&gt;Node6</title>
<path fill="none" stroke="#191970" d="M332.7804,-396.1246C342.4611,-396.1246 352.2477,-396.1246 361.7533,-396.1246"/>
<polygon fill="#191970" stroke="#191970" points="361.9392,-399.6247 371.9392,-396.1246 361.9391,-392.6247 361.9392,-399.6247"/>
</g>
<!-- Node7 -->
<g id="node7" class="node">
<title>Node7</title>
<g id="a_node7"><a xlink:href="../../d8/dd3/classG4ParticleTable.html#a8bb5b636696da4abae3ca7ea0ea5af95" target="_top" xlink:title="G4ParticleTable::GetParticle\lTable">
<polygon fill="none" stroke="#000000" points="541,-207.1246 541,-239.1246 697,-239.1246 697,-207.1246 541,-207.1246"/>
<text text-anchor="start" x="549" y="-226.1246" font-family="FreeSans" font-size="10.00" fill="#000000">G4ParticleTable::GetParticle</text>
<text text-anchor="middle" x="619" y="-214.1246" font-family="FreeSans" font-size="10.00" fill="#000000">Table</text>
</a>
</g>
</g>
<!-- Node6&#45;&gt;Node7 -->
<g id="edge6" class="edge">
<title>Node6&#45;&gt;Node7</title>
<path fill="none" stroke="#191970" d="M454.1391,-385.9489C468.1706,-376.7853 488.7424,-362.5724 505,-348.1246 541.0551,-316.0832 577.7658,-273.7097 599.453,-247.4465"/>
<polygon fill="#191970" stroke="#191970" points="602.3173,-249.473 605.9465,-239.5191 596.9021,-245.0373 602.3173,-249.473"/>
</g>
<!-- Node14 -->
<g id="node14" class="node">
<title>Node14</title>
<g id="a_node14"><a xlink:href="../../d8/dd3/classG4ParticleTable.html#a891da3f41417c3800e7596fab298c3c5" target="_top" xlink:title="G4ParticleTable::FindParticle">
<polygon fill="none" stroke="#000000" points="1344,-346.1246 1344,-366.1246 1503,-366.1246 1503,-346.1246 1344,-346.1246"/>
<text text-anchor="middle" x="1423.5" y="-353.1246" font-family="FreeSans" font-size="10.00" fill="#000000">G4ParticleTable::FindParticle</text>
</a>
</g>
</g>
<!-- Node6&#45;&gt;Node14 -->
<g id="edge13" class="edge">
<title>Node6&#45;&gt;Node14</title>
<path fill="none" stroke="#191970" d="M504.0092,-398.8028C649.6494,-403.8438 1009.3106,-411.5243 1308,-379.1246 1329.3012,-376.814 1352.5174,-372.541 1372.5113,-368.2994"/>
<polygon fill="#191970" stroke="#191970" points="1373.3162,-371.7062 1382.3445,-366.1618 1371.8292,-364.866 1373.3162,-371.7062"/>
</g>
<!-- Node18 -->
<g id="node18" class="node">
<title>Node18</title>
<g id="a_node18"><a xlink:href="../../d5/d38/classG4ParticleDefinition.html#a62ed9b48da6b7fd47ba568dd9777007f" target="_top" xlink:title="G4ParticleDefinition\l::G4ParticleDefinition">
<polygon fill="none" stroke="#000000" points="557.5,-464.1246 557.5,-496.1246 680.5,-496.1246 680.5,-464.1246 557.5,-464.1246"/>
<text text-anchor="start" x="565.5" y="-483.1246" font-family="FreeSans" font-size="10.00" fill="#000000">G4ParticleDefinition</text>
<text text-anchor="middle" x="619" y="-471.1246" font-family="FreeSans" font-size="10.00" fill="#000000">::G4ParticleDefinition</text>
</a>
</g>
</g>
<!-- Node6&#45;&gt;Node18 -->
<g id="edge18" class="edge">
<title>Node6&#45;&gt;Node18</title>
<path fill="none" stroke="#191970" d="M483.7601,-406.1854C491.1586,-408.8103 498.5113,-412.077 505,-416.1246 525.0143,-428.6094 521.112,-442.4395 541,-455.1246 543.4727,-456.7018 546.0533,-458.1871 548.7084,-459.5852"/>
<polygon fill="#191970" stroke="#191970" points="547.4413,-462.8587 557.9736,-464.0087 550.4573,-456.5417 547.4413,-462.8587"/>
</g>
<!-- Node19 -->
<g id="node19" class="node">
<title>Node19</title>
<g id="a_node19"><a xlink:href="../../db/d89/classG4DecayTable.html#a3edb3d6c42c02f3554e3121f5f079f6f" target="_top" xlink:title="G4DecayTable::Insert">
<polygon fill="none" stroke="#000000" points="556.5,-425.1246 556.5,-445.1246 681.5,-445.1246 681.5,-425.1246 556.5,-425.1246"/>
<text text-anchor="middle" x="619" y="-432.1246" font-family="FreeSans" font-size="10.00" fill="#000000">G4DecayTable::Insert</text>
</a>
</g>
</g>
<!-- Node6&#45;&gt;Node19 -->
<g id="edge20" class="edge">
<title>Node6&#45;&gt;Node19</title>
<path fill="none" stroke="#191970" d="M484.612,-406.1681C508.3636,-411.2858 537.4366,-417.5502 562.4587,-422.9417"/>
<polygon fill="#191970" stroke="#191970" points="562.0331,-426.4302 572.546,-425.1152 563.5076,-419.5873 562.0331,-426.4302"/>
</g>
<!-- Node26 -->
<g id="node26" class="node">
<title>Node26</title>
<g id="a_node26"><a xlink:href="../../d5/d38/classG4ParticleDefinition.html#ad3c610e90b4ba111581b30943d66cfea" target="_top" xlink:title="G4ParticleDefinition\l::SetDecayTable">
<polygon fill="none" stroke="#000000" points="561,-335.1246 561,-367.1246 677,-367.1246 677,-335.1246 561,-335.1246"/>
<text text-anchor="start" x="569" y="-354.1246" font-family="FreeSans" font-size="10.00" fill="#000000">G4ParticleDefinition</text>
<text text-anchor="middle" x="619" y="-342.1246" font-family="FreeSans" font-size="10.00" fill="#000000">::SetDecayTable</text>
</a>
</g>
</g>
<!-- Node6&#45;&gt;Node26 -->
<g id="edge30" class="edge">
<title>Node6&#45;&gt;Node26</title>
<path fill="none" stroke="#191970" d="M478.6199,-386.0257C499.8727,-380.7419 526.4627,-374.1311 550.7679,-368.0884"/>
<polygon fill="#191970" stroke="#191970" points="551.8039,-371.4375 560.664,-365.6281 550.1149,-364.6443 551.8039,-371.4375"/>
</g>
<!-- Node8 -->
<g id="node8" class="node">
<title>Node8</title>
<g id="a_node8"><a xlink:href="../../d8/dd3/classG4ParticleTable.html#aba540bf07478ff0c30af3ee28d843041" target="_top" xlink:title="G4ParticleTable::WorkerG4\lParticleTable">
<polygon fill="none" stroke="#000000" points="741.5,-203.1246 741.5,-235.1246 892.5,-235.1246 892.5,-203.1246 741.5,-203.1246"/>
<text text-anchor="start" x="749.5" y="-222.1246" font-family="FreeSans" font-size="10.00" fill="#000000">G4ParticleTable::WorkerG4</text>
<text text-anchor="middle" x="817" y="-210.1246" font-family="FreeSans" font-size="10.00" fill="#000000">ParticleTable</text>
</a>
</g>
</g>
<!-- Node7&#45;&gt;Node8 -->
<g id="edge7" class="edge">
<title>Node7&#45;&gt;Node8</title>
<path fill="none" stroke="#191970" d="M697.2548,-221.5437C708.3447,-221.3197 719.7981,-221.0883 731.0242,-220.8615"/>
<polygon fill="#191970" stroke="#191970" points="731.3257,-224.3562 741.253,-220.6549 731.1843,-217.3577 731.3257,-224.3562"/>
</g>
<!-- Node9 -->
<g id="node9" class="node">
<title>Node9</title>
<g id="a_node9"><a xlink:href="../../d4/d96/classG4ParticleTableIterator.html#ae35fb8d216907e4b1614fd52f2d50f84" target="_top" xlink:title="G4ParticleTableIterator\l::reset">
<polygon fill="none" stroke="#000000" points="956.5,-154.1246 956.5,-186.1246 1088.5,-186.1246 1088.5,-154.1246 956.5,-154.1246"/>
<text text-anchor="start" x="964.5" y="-173.1246" font-family="FreeSans" font-size="10.00" fill="#000000">G4ParticleTableIterator</text>
<text text-anchor="middle" x="1022.5" y="-161.1246" font-family="FreeSans" font-size="10.00" fill="#000000">::reset</text>
</a>
</g>
</g>
<!-- Node8&#45;&gt;Node9 -->
<g id="edge8" class="edge">
<title>Node8&#45;&gt;Node9</title>
<path fill="none" stroke="#191970" d="M884.2884,-203.0802C904.2061,-198.3309 926.1502,-193.0985 946.5739,-188.2286"/>
<polygon fill="#191970" stroke="#191970" points="947.547,-191.5948 956.4624,-185.8708 945.9233,-184.7857 947.547,-191.5948"/>
</g>
<!-- Node10 -->
<g id="node10" class="node">
<title>Node10</title>
<g id="a_node10"><a xlink:href="../../d4/d96/classG4ParticleTableIterator.html#a7220383ce5a9ddecb53331a2ecdd90d5" target="_top" xlink:title="G4ParticleTableIterator\l::value">
<polygon fill="none" stroke="#000000" points="956.5,-295.1246 956.5,-327.1246 1088.5,-327.1246 1088.5,-295.1246 956.5,-295.1246"/>
<text text-anchor="start" x="964.5" y="-314.1246" font-family="FreeSans" font-size="10.00" fill="#000000">G4ParticleTableIterator</text>
<text text-anchor="middle" x="1022.5" y="-302.1246" font-family="FreeSans" font-size="10.00" fill="#000000">::value</text>
</a>
</g>
</g>
<!-- Node8&#45;&gt;Node10 -->
<g id="edge9" class="edge">
<title>Node8&#45;&gt;Node10</title>
<path fill="none" stroke="#191970" d="M842.4398,-235.1519C866.2137,-249.6314 903.0417,-270.8063 937,-285.1246 942.495,-287.4416 948.2675,-289.6489 954.1101,-291.7273"/>
<polygon fill="#191970" stroke="#191970" points="953.378,-295.1759 963.9726,-295.1 955.643,-288.5525 953.378,-295.1759"/>
</g>
<!-- Node11 -->
<g id="node11" class="node">
<title>Node11</title>
<g id="a_node11"><a xlink:href="../../d8/dd3/classG4ParticleTable.html#ad3150940809a36b87123558264d30108" target="_top" xlink:title="G4ParticleTable::GetKey">
<polygon fill="none" stroke="#000000" points="1562,-211.1246 1562,-231.1246 1699,-231.1246 1699,-211.1246 1562,-211.1246"/>
<text text-anchor="middle" x="1630.5" y="-218.1246" font-family="FreeSans" font-size="10.00" fill="#000000">G4ParticleTable::GetKey</text>
</a>
</g>
</g>
<!-- Node8&#45;&gt;Node11 -->
<g id="edge10" class="edge">
<title>Node8&#45;&gt;Node11</title>
<path fill="none" stroke="#191970" d="M835.3296,-202.9919C857.5766,-184.5899 897.0896,-155.5708 937,-144.1246 1181.2249,-74.0818 1490.7602,-170.4909 1594.6651,-207.6257"/>
<polygon fill="#191970" stroke="#191970" points="1593.4751,-210.9171 1604.0693,-211.0268 1595.8558,-204.3344 1593.4751,-210.9171"/>
</g>
<!-- Node12 -->
<g id="node12" class="node">
<title>Node12</title>
<g id="a_node12"><a xlink:href="../../d5/d38/classG4ParticleDefinition.html#af84019c7513ca66581ed8b3651934467" target="_top" xlink:title="G4ParticleDefinition\l::GetPDGEncoding">
<polygon fill="none" stroke="#000000" points="964.5,-244.1246 964.5,-276.1246 1080.5,-276.1246 1080.5,-244.1246 964.5,-244.1246"/>
<text text-anchor="start" x="972.5" y="-263.1246" font-family="FreeSans" font-size="10.00" fill="#000000">G4ParticleDefinition</text>
<text text-anchor="middle" x="1022.5" y="-251.1246" font-family="FreeSans" font-size="10.00" fill="#000000">::GetPDGEncoding</text>
</a>
</g>
</g>
<!-- Node8&#45;&gt;Node12 -->
<g id="edge11" class="edge">
<title>Node8&#45;&gt;Node12</title>
<path fill="none" stroke="#191970" d="M892.6451,-234.2168C912.9109,-238.2601 934.6917,-242.6057 954.5154,-246.5608"/>
<polygon fill="#191970" stroke="#191970" points="953.8871,-250.0043 964.3787,-248.5286 955.2568,-243.1396 953.8871,-250.0043"/>
</g>
<!-- Node13 -->
<g id="node13" class="node">
<title>Node13</title>
<g id="a_node13"><a xlink:href="../../da/d2b/classG4IonTable.html#a66f8ee295224ed611872572a0e47ab6e" target="_top" xlink:title="G4IonTable::WorkerG4IonTable">
<polygon fill="none" stroke="#000000" points="937,-205.1246 937,-225.1246 1108,-225.1246 1108,-205.1246 937,-205.1246"/>
<text text-anchor="middle" x="1022.5" y="-212.1246" font-family="FreeSans" font-size="10.00" fill="#000000">G4IonTable::WorkerG4IonTable</text>
</a>
</g>
</g>
<!-- Node8&#45;&gt;Node13 -->
<g id="edge12" class="edge">
<title>Node8&#45;&gt;Node13</title>
<path fill="none" stroke="#191970" d="M892.6451,-217.6522C903.798,-217.4351 915.4096,-217.2091 926.9014,-216.9854"/>
<polygon fill="#191970" stroke="#191970" points="927.0249,-220.4838 936.9548,-216.7897 926.8886,-213.4851 927.0249,-220.4838"/>
</g>
<!-- Node14&#45;&gt;Node11 -->
<g id="edge17" class="edge">
<title>Node14&#45;&gt;Node11</title>
<path fill="none" stroke="#191970" d="M1439.0586,-345.9777C1474.9607,-322.5633 1563.7902,-264.631 1606.6343,-236.6892"/>
<polygon fill="#191970" stroke="#191970" points="1608.579,-239.5995 1615.0432,-231.2052 1604.7551,-233.7362 1608.579,-239.5995"/>
</g>
<!-- Node15 -->
<g id="node15" class="node">
<title>Node15</title>
<g id="a_node15"><a xlink:href="../../d8/dd3/classG4ParticleTable.html#a5dcd173398768b18c5ba132bbd8f427b" target="_top" xlink:title="G4ParticleTable::CheckReadiness">
<polygon fill="none" stroke="#000000" points="1539,-449.1246 1539,-469.1246 1722,-469.1246 1722,-449.1246 1539,-449.1246"/>
<text text-anchor="middle" x="1630.5" y="-456.1246" font-family="FreeSans" font-size="10.00" fill="#000000">G4ParticleTable::CheckReadiness</text>
</a>
</g>
</g>
<!-- Node14&#45;&gt;Node15 -->
<g id="edge14" class="edge">
<title>Node14&#45;&gt;Node15</title>
<path fill="none" stroke="#191970" d="M1443.7249,-366.1882C1480.516,-384.4949 1558.519,-423.308 1601.1585,-444.5247"/>
<polygon fill="#191970" stroke="#191970" points="1599.6809,-447.6988 1610.193,-449.0202 1602.7993,-441.4318 1599.6809,-447.6988"/>
</g>
<!-- Node17 -->
<g id="node17" class="node">
<title>Node17</title>
<g id="a_node17"><a xlink:href="../../d7/d23/namespaceG4Threading.html#a4bce96528c21592b91483fb2ab5b6215" target="_top" xlink:title="G4Threading::IsWorkerThread">
<polygon fill="none" stroke="#000000" points="1546.5,-346.1246 1546.5,-366.1246 1714.5,-366.1246 1714.5,-346.1246 1546.5,-346.1246"/>
<text text-anchor="middle" x="1630.5" y="-353.1246" font-family="FreeSans" font-size="10.00" fill="#000000">G4Threading::IsWorkerThread</text>
</a>
</g>
</g>
<!-- Node14&#45;&gt;Node17 -->
<g id="edge16" class="edge">
<title>Node14&#45;&gt;Node17</title>
<path fill="none" stroke="#191970" d="M1503.2355,-356.1246C1514.0481,-356.1246 1525.2266,-356.1246 1536.2634,-356.1246"/>
<polygon fill="#191970" stroke="#191970" points="1536.3449,-359.6247 1546.3448,-356.1246 1536.3448,-352.6247 1536.3449,-359.6247"/>
</g>
<!-- Node16 -->
<g id="node16" class="node">
<title>Node16</title>
<g id="a_node16"><a xlink:href="../../d5/d4f/G4Exception_8hh.html#ad36b5da5d062a20ca47b1c1f1ae353dd" target="_top" xlink:title="G4Exception">
<polygon fill="none" stroke="#000000" points="1758,-551.1246 1758,-571.1246 1838,-571.1246 1838,-551.1246 1758,-551.1246"/>
<text text-anchor="middle" x="1798" y="-558.1246" font-family="FreeSans" font-size="10.00" fill="#000000">G4Exception</text>
</a>
</g>
</g>
<!-- Node15&#45;&gt;Node16 -->
<g id="edge15" class="edge">
<title>Node15&#45;&gt;Node16</title>
<path fill="none" stroke="#191970" d="M1647.1729,-469.2777C1676.6455,-487.2252 1738.1022,-524.6496 1772.7811,-545.7674"/>
<polygon fill="#191970" stroke="#191970" points="1771.0331,-548.8008 1781.3945,-551.0126 1774.6739,-542.8221 1771.0331,-548.8008"/>
</g>
<!-- Node18&#45;&gt;Node16 -->
<g id="edge19" class="edge">
<title>Node18&#45;&gt;Node16</title>
<path fill="none" stroke="#191970" d="M641.9204,-496.171C664.1955,-511.0273 699.4776,-532.648 733,-545.1246 855.9006,-590.8667 891.3631,-602.1246 1022.5,-602.1246 1022.5,-602.1246 1022.5,-602.1246 1423.5,-602.1246 1556.7083,-602.1246 1590.0251,-593.2099 1722,-575.1246 1730.4073,-573.9725 1739.2996,-572.5351 1747.9239,-571.0237"/>
<polygon fill="#191970" stroke="#191970" points="1748.66,-574.4475 1757.88,-569.2281 1747.4175,-567.5586 1748.66,-574.4475"/>
</g>
<!-- Node19&#45;&gt;Node4 -->
<g id="edge28" class="edge">
<title>Node19&#45;&gt;Node4</title>
<path fill="none" stroke="#191970" d="M674.7181,-445.1873C682.4959,-447.783 690.158,-451.0401 697,-455.1246 717.2545,-467.216 712.9806,-481.648 733,-494.1246 738.0462,-497.2695 743.5091,-500.0368 749.1439,-502.4686"/>
<polygon fill="#191970" stroke="#191970" points="748.1592,-505.8424 758.7461,-506.2516 750.7251,-499.3296 748.1592,-505.8424"/>
</g>
<!-- Node20 -->
<g id="node20" class="node">
<title>Node20</title>
<g id="a_node20"><a xlink:href="../../df/d2d/classG4VDecayChannel.html#ac39f0f3b9b175652872f0a54e7c28c12" target="_top" xlink:title="G4VDecayChannel::GetParent">
<polygon fill="none" stroke="#000000" points="733,-464.1246 733,-484.1246 901,-484.1246 901,-464.1246 733,-464.1246"/>
<text text-anchor="middle" x="817" y="-471.1246" font-family="FreeSans" font-size="10.00" fill="#000000">G4VDecayChannel::GetParent</text>
</a>
</g>
</g>
<!-- Node19&#45;&gt;Node20 -->
<g id="edge21" class="edge">
<title>Node19&#45;&gt;Node20</title>
<path fill="none" stroke="#191970" d="M669.9899,-445.1681C696.3187,-450.3541 728.6251,-456.7174 756.2407,-462.1569"/>
<polygon fill="#191970" stroke="#191970" points="755.695,-465.6166 766.1829,-464.1152 757.0478,-458.7485 755.695,-465.6166"/>
</g>
<!-- Node25 -->
<g id="node25" class="node">
<title>Node25</title>
<g id="a_node25"><a xlink:href="../../df/d2d/classG4VDecayChannel.html#a5d58c7fe44af8cd34c06d1887ef9e75b" target="_top" xlink:title="G4VDecayChannel::GetBR">
<polygon fill="none" stroke="#000000" points="742,-425.1246 742,-445.1246 892,-445.1246 892,-425.1246 742,-425.1246"/>
<text text-anchor="middle" x="817" y="-432.1246" font-family="FreeSans" font-size="10.00" fill="#000000">G4VDecayChannel::GetBR</text>
</a>
</g>
</g>
<!-- Node19&#45;&gt;Node25 -->
<g id="edge29" class="edge">
<title>Node19&#45;&gt;Node25</title>
<path fill="none" stroke="#191970" d="M681.6484,-435.1246C697.5046,-435.1246 714.8056,-435.1246 731.5767,-435.1246"/>
<polygon fill="#191970" stroke="#191970" points="731.933,-438.6247 741.933,-435.1246 731.9329,-431.6247 731.933,-438.6247"/>
</g>
<!-- Node21 -->
<g id="node21" class="node">
<title>Node21</title>
<g id="a_node21"><a xlink:href="../../df/d2d/classG4VDecayChannel.html#a1c515b1f4f1f9e5aafe3d0e10cb5b643" target="_top" xlink:title="G4VDecayChannel::CheckAnd\lFillParent">
<polygon fill="none" stroke="#000000" points="938.5,-500.1246 938.5,-532.1246 1106.5,-532.1246 1106.5,-500.1246 938.5,-500.1246"/>
<text text-anchor="start" x="946.5" y="-519.1246" font-family="FreeSans" font-size="10.00" fill="#000000">G4VDecayChannel::CheckAnd</text>
<text text-anchor="middle" x="1022.5" y="-507.1246" font-family="FreeSans" font-size="10.00" fill="#000000">FillParent</text>
</a>
</g>
</g>
<!-- Node20&#45;&gt;Node21 -->
<g id="edge22" class="edge">
<title>Node20&#45;&gt;Node21</title>
<path fill="none" stroke="#191970" d="M865.9613,-484.1313C886.425,-488.3137 910.8528,-493.3062 934.256,-498.0894"/>
<polygon fill="#191970" stroke="#191970" points="933.7104,-501.5501 944.2087,-500.1235 935.1121,-494.6919 933.7104,-501.5501"/>
</g>
<!-- Node22 -->
<g id="node22" class="node">
<title>Node22</title>
<g id="a_node22"><a xlink:href="../../d7/d27/classG4TemplateAutoLock.html#a1fc2695a8c9b5527f9f3c62b32a2c172" target="_top" xlink:title="G4TemplateAutoLock\l::unlock">
<polygon fill="none" stroke="#000000" points="1164,-500.1246 1164,-532.1246 1288,-532.1246 1288,-500.1246 1164,-500.1246"/>
<text text-anchor="start" x="1172" y="-519.1246" font-family="FreeSans" font-size="10.00" fill="#000000">G4TemplateAutoLock</text>
<text text-anchor="middle" x="1226" y="-507.1246" font-family="FreeSans" font-size="10.00" fill="#000000">::unlock</text>
</a>
</g>
</g>
<!-- Node21&#45;&gt;Node22 -->
<g id="edge23" class="edge">
<title>Node21&#45;&gt;Node22</title>
<path fill="none" stroke="#191970" d="M1106.7402,-516.1246C1122.2876,-516.1246 1138.3972,-516.1246 1153.5579,-516.1246"/>
<polygon fill="#191970" stroke="#191970" points="1153.8836,-519.6247 1163.8835,-516.1246 1153.8835,-512.6247 1153.8836,-519.6247"/>
</g>
<!-- Node23 -->
<g id="node23" class="node">
<title>Node23</title>
<g id="a_node23"><a xlink:href="../../df/d2d/classG4VDecayChannel.html#a58f654382302cd3c1c6894bd5a8c8565" target="_top" xlink:title="G4VDecayChannel::FillParent">
<polygon fill="none" stroke="#000000" points="1144,-551.1246 1144,-571.1246 1308,-571.1246 1308,-551.1246 1144,-551.1246"/>
<text text-anchor="middle" x="1226" y="-558.1246" font-family="FreeSans" font-size="10.00" fill="#000000">G4VDecayChannel::FillParent</text>
</a>
</g>
</g>
<!-- Node21&#45;&gt;Node23 -->
<g id="edge24" class="edge">
<title>Node21&#45;&gt;Node23</title>
<path fill="none" stroke="#191970" d="M1095.1063,-532.1801C1119.9641,-537.6769 1147.3563,-543.7341 1170.6298,-548.8806"/>
<polygon fill="#191970" stroke="#191970" points="1170.15,-552.359 1180.6699,-551.1008 1171.6615,-545.5241 1170.15,-552.359"/>
</g>
<!-- Node23&#45;&gt;Node14 -->
<g id="edge26" class="edge">
<title>Node23&#45;&gt;Node14</title>
<path fill="none" stroke="#191970" d="M1294.982,-551.0032C1299.6997,-548.5955 1304.1142,-545.6709 1308,-542.1246 1345.6842,-507.7332 1316.8919,-476.3451 1344,-433.1246 1359.1787,-408.9241 1383.5403,-386.8626 1401.2996,-372.6179"/>
<polygon fill="#191970" stroke="#191970" points="1403.691,-375.1912 1409.4182,-366.2778 1399.3825,-369.6742 1403.691,-375.1912"/>
</g>
<!-- Node23&#45;&gt;Node16 -->
<g id="edge25" class="edge">
<title>Node23&#45;&gt;Node16</title>
<path fill="none" stroke="#191970" d="M1308.258,-561.1246C1428.5866,-561.1246 1648.9946,-561.1246 1747.7805,-561.1246"/>
<polygon fill="#191970" stroke="#191970" points="1747.8017,-564.6247 1757.8016,-561.1246 1747.8016,-557.6247 1747.8017,-564.6247"/>
</g>
<!-- Node24 -->
<g id="node24" class="node">
<title>Node24</title>
<g id="a_node24"><a xlink:href="../../d5/d38/classG4ParticleDefinition.html#ad823b2f7c489766de74c562e2a3909bf" target="_top" xlink:title="G4ParticleDefinition\l::GetPDGMass">
<polygon fill="none" stroke="#000000" points="1365.5,-442.1246 1365.5,-474.1246 1481.5,-474.1246 1481.5,-442.1246 1365.5,-442.1246"/>
<text text-anchor="start" x="1373.5" y="-461.1246" font-family="FreeSans" font-size="10.00" fill="#000000">G4ParticleDefinition</text>
<text text-anchor="middle" x="1423.5" y="-449.1246" font-family="FreeSans" font-size="10.00" fill="#000000">::GetPDGMass</text>
</a>
</g>
</g>
<!-- Node23&#45;&gt;Node24 -->
<g id="edge27" class="edge">
<title>Node23&#45;&gt;Node24</title>
<path fill="none" stroke="#191970" d="M1283.0073,-551.0478C1291.5732,-548.6443 1300.1567,-545.705 1308,-542.1246 1342.1502,-526.5352 1376.3062,-500.0035 1398.5158,-480.9258"/>
<polygon fill="#191970" stroke="#191970" points="1400.9077,-483.4837 1406.1356,-474.2685 1396.3021,-478.2122 1400.9077,-483.4837"/>
</g>
<!-- Node28 -->
<g id="node28" class="node">
<title>Node28</title>
<g id="a_node28"><a xlink:href="../../de/db6/classG4MuonPlus.html#a7231ece29e9df51388c7d8d2add29fd8" target="_top" xlink:title="G4MuonPlus::Definition">
<polygon fill="none" stroke="#000000" points="371,-319.1246 371,-339.1246 505,-339.1246 505,-319.1246 371,-319.1246"/>
<text text-anchor="middle" x="438" y="-326.1246" font-family="FreeSans" font-size="10.00" fill="#000000">G4MuonPlus::Definition</text>
</a>
</g>
</g>
<!-- Node27&#45;&gt;Node28 -->
<g id="edge32" class="edge">
<title>Node27&#45;&gt;Node28</title>
<path fill="none" stroke="#191970" d="M321.4899,-344.1002C334.4158,-342.4388 347.8146,-340.7166 360.7229,-339.0574"/>
<polygon fill="#191970" stroke="#191970" points="361.4792,-342.4891 370.9514,-337.7427 360.5868,-335.5462 361.4792,-342.4891"/>
</g>
<!-- Node28&#45;&gt;Node7 -->
<g id="edge33" class="edge">
<title>Node28&#45;&gt;Node7</title>
<path fill="none" stroke="#191970" d="M449.7017,-319.0745C468.1493,-303.5955 505.55,-273.6679 541,-254.1246 548.0765,-250.2234 555.7471,-246.5577 563.4225,-243.2086"/>
<polygon fill="#191970" stroke="#191970" points="564.887,-246.3897 572.7474,-239.2859 562.1726,-239.9374 564.887,-246.3897"/>
</g>
<!-- Node28&#45;&gt;Node14 -->
<g id="edge34" class="edge">
<title>Node28&#45;&gt;Node14</title>
<path fill="none" stroke="#191970" d="M459.1121,-319.1006C479.5299,-309.9996 511.6113,-297.2431 541,-292.1246 609.3051,-280.2284 627.8059,-287.733 697,-292.1246 788.2165,-297.914 813.5537,-291.5328 901,-318.1246 918.1147,-323.3291 919.6781,-331.6579 937,-336.1246 1071.7934,-370.8831 1234.4749,-369.2002 1333.3927,-363.5757"/>
<polygon fill="#191970" stroke="#191970" points="1333.8766,-367.0532 1343.651,-362.9652 1333.4607,-360.0655 1333.8766,-367.0532"/>
</g>
<!-- Node28&#45;&gt;Node18 -->
<g id="edge35" class="edge">
<title>Node28&#45;&gt;Node18</title>
<path fill="none" stroke="#191970" d="M457.1076,-339.1767C471.7692,-347.6747 491.6896,-361.0227 505,-377.1246 529.3263,-406.5527 512.4034,-429.8262 541,-455.1246 543.3215,-457.1784 545.8131,-459.0636 548.4291,-460.7942"/>
<polygon fill="#191970" stroke="#191970" points="546.7375,-463.8589 557.1508,-465.8117 550.2281,-457.7912 546.7375,-463.8589"/>
</g>
<!-- Node28&#45;&gt;Node19 -->
<g id="edge38" class="edge">
<title>Node28&#45;&gt;Node19</title>
<path fill="none" stroke="#191970" d="M455.355,-339.2883C487.2487,-357.9664 555.3428,-397.8447 592.859,-419.8155"/>
<polygon fill="#191970" stroke="#191970" points="591.2996,-422.9583 601.6975,-424.9917 594.8371,-416.9179 591.2996,-422.9583"/>
</g>
<!-- Node28&#45;&gt;Node24 -->
<g id="edge36" class="edge">
<title>Node28&#45;&gt;Node24</title>
<path fill="none" stroke="#191970" d="M505.2258,-324.1957C557.5932,-321.2955 632.0596,-319.2293 697,-325.1246 762.3481,-331.057 1187.6698,-412.5339 1355.5279,-444.9543"/>
<polygon fill="#191970" stroke="#191970" points="1355.0051,-448.4179 1365.4875,-446.8787 1356.3331,-441.545 1355.0051,-448.4179"/>
</g>
<!-- Node28&#45;&gt;Node26 -->
<g id="edge39" class="edge">
<title>Node28&#45;&gt;Node26</title>
<path fill="none" stroke="#191970" d="M505.1405,-337.2853C520.0178,-339.0936 535.7991,-341.0118 550.7212,-342.8255"/>
<polygon fill="#191970" stroke="#191970" points="550.5437,-346.3296 560.893,-344.0619 551.3884,-339.3808 550.5437,-346.3296"/>
</g>
<!-- Node29 -->
<g id="node29" class="node">
<title>Node29</title>
<g id="a_node29"><a xlink:href="../../d5/d38/classG4ParticleDefinition.html#a45d19537b85dd40b3527949cf75155f5" target="_top" xlink:title="G4ParticleDefinition\l::SetPDGMagneticMoment">
<polygon fill="none" stroke="#000000" points="544.5,-117.1246 544.5,-149.1246 693.5,-149.1246 693.5,-117.1246 544.5,-117.1246"/>
<text text-anchor="start" x="552.5" y="-136.1246" font-family="FreeSans" font-size="10.00" fill="#000000">G4ParticleDefinition</text>
<text text-anchor="middle" x="619" y="-124.1246" font-family="FreeSans" font-size="10.00" fill="#000000">::SetPDGMagneticMoment</text>
</a>
</g>
</g>
<!-- Node28&#45;&gt;Node29 -->
<g id="edge37" class="edge">
<title>Node28&#45;&gt;Node29</title>
<path fill="none" stroke="#191970" d="M449.9069,-319.0836C464.1495,-306.6778 488.1741,-284.4615 505,-262.1246 524.8695,-235.7472 519.8589,-222.4943 541,-197.1246 554.1517,-181.3424 571.6239,-166.5883 586.6976,-155.2327"/>
<polygon fill="#191970" stroke="#191970" points="588.7987,-158.0321 594.7824,-149.2887 584.6523,-152.3922 588.7987,-158.0321"/>
</g>
<!-- Node31 -->
<g id="node31" class="node">
<title>Node31</title>
<g id="a_node31"><a xlink:href="../../d5/d43/classG4Neutron.html#ae4466ed9869fbf712bccecea9f20a2d7" target="_top" xlink:title="G4Neutron::Definition">
<polygon fill="none" stroke="#000000" points="374.5,-194.1246 374.5,-214.1246 501.5,-214.1246 501.5,-194.1246 374.5,-194.1246"/>
<text text-anchor="middle" x="438" y="-201.1246" font-family="FreeSans" font-size="10.00" fill="#000000">G4Neutron::Definition</text>
</a>
</g>
</g>
<!-- Node30&#45;&gt;Node31 -->
<g id="edge41" class="edge">
<title>Node30&#45;&gt;Node31</title>
<path fill="none" stroke="#191970" d="M304.5074,-226.0874C324.4214,-222.8111 346.7014,-219.1455 367.2682,-215.7617"/>
<polygon fill="#191970" stroke="#191970" points="367.91,-219.2033 377.2091,-214.1262 366.7735,-212.2961 367.91,-219.2033"/>
</g>
<!-- Node31&#45;&gt;Node7 -->
<g id="edge42" class="edge">
<title>Node31&#45;&gt;Node7</title>
<path fill="none" stroke="#191970" d="M501.5593,-210.7966C511.0094,-211.7886 520.8907,-212.8259 530.7367,-213.8594"/>
<polygon fill="#191970" stroke="#191970" points="530.6542,-217.3699 540.9649,-214.9331 531.385,-210.4081 530.6542,-217.3699"/>
</g>
<!-- Node31&#45;&gt;Node14 -->
<g id="edge43" class="edge">
<title>Node31&#45;&gt;Node14</title>
<path fill="none" stroke="#191970" d="M452.9224,-194.089C467.0648,-184.2319 488.5338,-168.35 505,-152.1246 523.2437,-134.1477 517.9154,-118.2197 541,-107.1246 694.9227,-33.1456 1166.0233,-60.2157 1308,-155.1246 1374.0364,-199.2688 1406.9003,-294.8143 1418.4907,-336.2676"/>
<polygon fill="#191970" stroke="#191970" points="1415.1314,-337.2537 1421.0968,-346.0095 1421.8936,-335.4447 1415.1314,-337.2537"/>
</g>
<!-- Node31&#45;&gt;Node19 -->
<g id="edge46" class="edge">
<title>Node31&#45;&gt;Node19</title>
<path fill="none" stroke="#191970" d="M493.1528,-214.2305C497.5328,-216.6138 501.5775,-219.5385 505,-223.1246 553.5287,-273.9735 502.4486,-318.3502 541,-377.1246 552.9482,-395.3405 572.6807,-409.9337 589.3085,-419.9257"/>
<polygon fill="#191970" stroke="#191970" points="587.7411,-423.0614 598.1576,-424.9973 591.2218,-416.9881 587.7411,-423.0614"/>
</g>
<!-- Node31&#45;&gt;Node26 -->
<g id="edge47" class="edge">
<title>Node31&#45;&gt;Node26</title>
<path fill="none" stroke="#191970" d="M486.2789,-214.212C492.8292,-216.5981 499.2626,-219.5295 505,-223.1246 547.7773,-249.9293 583.9204,-297.4162 603.4375,-326.4044"/>
<polygon fill="#191970" stroke="#191970" points="600.7529,-328.6915 609.1773,-335.1165 606.5983,-324.8403 600.7529,-328.6915"/>
</g>
<!-- Node31&#45;&gt;Node29 -->
<g id="edge45" class="edge">
<title>Node31&#45;&gt;Node29</title>
<path fill="none" stroke="#191970" d="M463.549,-194.1026C490.7161,-183.4459 534.3875,-166.3152 568.5349,-152.9203"/>
<polygon fill="#191970" stroke="#191970" points="569.8608,-156.1599 577.8921,-149.2498 567.3045,-149.6434 569.8608,-156.1599"/>
</g>
<!-- Node32 -->
<g id="node32" class="node">
<title>Node32</title>
<g id="a_node32"><a xlink:href="../../df/d1a/classG4Ions.html#ae983e0b83e4ab01690f4e778fc97a50e" target="_top" xlink:title="G4Ions::G4Ions">
<polygon fill="none" stroke="#000000" points="572.5,-39.1246 572.5,-59.1246 665.5,-59.1246 665.5,-39.1246 572.5,-39.1246"/>
<text text-anchor="middle" x="619" y="-46.1246" font-family="FreeSans" font-size="10.00" fill="#000000">G4Ions::G4Ions</text>
</a>
</g>
</g>
<!-- Node31&#45;&gt;Node32 -->
<g id="edge44" class="edge">
<title>Node31&#45;&gt;Node32</title>
<path fill="none" stroke="#191970" d="M455.2934,-194.0261C470.0649,-184.6919 491.0738,-169.645 505,-152.1246 528.7576,-122.2356 512.4034,-99.4231 541,-74.1246 547.3538,-68.5037 554.982,-64.1448 562.9456,-60.7651"/>
<polygon fill="#191970" stroke="#191970" points="564.2529,-64.0131 572.3921,-57.2305 561.7997,-57.457 564.2529,-64.0131"/>
</g>
<!-- Node34 -->
<g id="node34" class="node">
<title>Node34</title>
<g id="a_node34"><a xlink:href="../../d0/dc2/classG4PionPlus.html#a5cfffef14b8502c5a679b10ff926734f" target="_top" xlink:title="G4PionPlus::Definition">
<polygon fill="none" stroke="#000000" points="374,-425.1246 374,-445.1246 502,-445.1246 502,-425.1246 374,-425.1246"/>
<text text-anchor="middle" x="438" y="-432.1246" font-family="FreeSans" font-size="10.00" fill="#000000">G4PionPlus::Definition</text>
</a>
</g>
</g>
<!-- Node33&#45;&gt;Node34 -->
<g id="edge49" class="edge">
<title>Node33&#45;&gt;Node34</title>
<path fill="none" stroke="#191970" d="M328.5276,-435.1246C340.3077,-435.1246 352.3309,-435.1246 363.891,-435.1246"/>
<polygon fill="#191970" stroke="#191970" points="363.913,-438.6247 373.9129,-435.1246 363.9129,-431.6247 363.913,-438.6247"/>
</g>
<!-- Node34&#45;&gt;Node7 -->
<g id="edge50" class="edge">
<title>Node34&#45;&gt;Node7</title>
<path fill="none" stroke="#191970" d="M491.293,-425.1169C496.2777,-422.7274 500.9646,-419.774 505,-416.1246 537.2594,-386.9513 519.5859,-362.9821 541,-325.1246 557.2062,-296.4741 580.6664,-266.9406 597.6211,-247.0742"/>
<polygon fill="#191970" stroke="#191970" points="600.3286,-249.2941 604.2226,-239.4408 595.0339,-244.7152 600.3286,-249.2941"/>
</g>
<!-- Node34&#45;&gt;Node14 -->
<g id="edge51" class="edge">
<title>Node34&#45;&gt;Node14</title>
<path fill="none" stroke="#191970" d="M449.4267,-445.3588C467.5063,-460.9756 504.4226,-490.5753 541,-506.1246 621.1356,-540.1908 646.3608,-536.4143 733,-545.1246 807.2922,-552.5937 835.1683,-580.3567 901,-545.1246 926.4314,-531.5142 913.4063,-507.718 937,-491.1246 1075.9581,-393.396 1145.6913,-449.2856 1308,-399.1246 1335.7797,-390.5394 1366.6119,-378.9524 1389.4285,-369.9696"/>
<polygon fill="#191970" stroke="#191970" points="1390.9928,-373.1143 1398.9953,-366.1709 1388.4095,-366.6084 1390.9928,-373.1143"/>
</g>
<!-- Node34&#45;&gt;Node18 -->
<g id="edge52" class="edge">
<title>Node34&#45;&gt;Node18</title>
<path fill="none" stroke="#191970" d="M478.6199,-445.2235C498.8663,-450.2571 523.9562,-456.495 547.3003,-462.2987"/>
<polygon fill="#191970" stroke="#191970" points="546.6297,-465.7385 557.1788,-464.7547 548.3187,-458.9453 546.6297,-465.7385"/>
</g>
<!-- Node34&#45;&gt;Node19 -->
<g id="edge53" class="edge">
<title>Node34&#45;&gt;Node19</title>
<path fill="none" stroke="#191970" d="M502.0685,-435.1246C516.2257,-435.1246 531.3287,-435.1246 545.8167,-435.1246"/>
<polygon fill="#191970" stroke="#191970" points="546.2352,-438.6247 556.2352,-435.1246 546.2351,-431.6247 546.2352,-438.6247"/>
</g>
<!-- Node34&#45;&gt;Node26 -->
<g id="edge54" class="edge">
<title>Node34&#45;&gt;Node26</title>
<path fill="none" stroke="#191970" d="M479.2861,-425.1133C487.916,-422.5517 496.8612,-419.5394 505,-416.1246 533.4354,-404.1939 563.67,-386.709 585.8523,-372.8781"/>
<polygon fill="#191970" stroke="#191970" points="587.9506,-375.6926 594.5367,-367.3935 584.2128,-369.774 587.9506,-375.6926"/>
</g>
<!-- Node36 -->
<g id="node36" class="node">
<title>Node36</title>
<g id="a_node36"><a xlink:href="../../d3/d12/classG4Positron.html#aeb7530a6ec5e82b7805cc036852f4b8f" target="_top" xlink:title="G4Positron::Definition">
<polygon fill="none" stroke="#000000" points="374.5,-233.1246 374.5,-253.1246 501.5,-253.1246 501.5,-233.1246 374.5,-233.1246"/>
<text text-anchor="middle" x="438" y="-240.1246" font-family="FreeSans" font-size="10.00" fill="#000000">G4Positron::Definition</text>
</a>
</g>
</g>
<!-- Node35&#45;&gt;Node36 -->
<g id="edge56" class="edge">
<title>Node35&#45;&gt;Node36</title>
<path fill="none" stroke="#191970" d="M276.4943,-292.1161C309.1868,-282.1991 359.4149,-266.9628 395.1696,-256.1169"/>
<polygon fill="#191970" stroke="#191970" points="396.2905,-259.4344 404.8439,-253.1823 394.2584,-252.7358 396.2905,-259.4344"/>
</g>
<!-- Node36&#45;&gt;Node7 -->
<g id="edge57" class="edge">
<title>Node36&#45;&gt;Node7</title>
<path fill="none" stroke="#191970" d="M501.5593,-236.1015C511.0094,-235.0573 520.8907,-233.9654 530.7367,-232.8775"/>
<polygon fill="#191970" stroke="#191970" points="531.4099,-236.3245 540.9649,-231.7473 530.641,-229.3668 531.4099,-236.3245"/>
</g>
<!-- Node36&#45;&gt;Node14 -->
<g id="edge58" class="edge">
<title>Node36&#45;&gt;Node14</title>
<path fill="none" stroke="#191970" d="M479.5769,-233.08C488.1872,-230.3503 497.0509,-227.0411 505,-223.1246 522.7043,-214.4018 522.666,-204.4319 541,-197.1246 623.4753,-164.2531 848.4117,-150.0266 937,-144.1246 1012.8319,-139.0725 1035.3013,-121.9684 1108,-144.1246 1237.252,-183.5165 1361.5783,-295.5165 1406.1727,-338.7767"/>
<polygon fill="#191970" stroke="#191970" points="1403.9661,-341.515 1413.5549,-346.0214 1408.8692,-336.519 1403.9661,-341.515"/>
</g>
<!-- Node36&#45;&gt;Node18 -->
<g id="edge59" class="edge">
<title>Node36&#45;&gt;Node18</title>
<path fill="none" stroke="#191970" d="M452.05,-253.1263C467.4032,-264.8098 491.5953,-285.5674 505,-309.1246 538.053,-367.2113 495.3863,-406.2784 541,-455.1246 543.3293,-457.619 545.9074,-459.8654 548.6672,-461.8884"/>
<polygon fill="#191970" stroke="#191970" points="547.08,-465.0222 557.4245,-467.3118 550.7656,-459.0711 547.08,-465.0222"/>
</g>
<!-- Node36&#45;&gt;Node29 -->
<g id="edge60" class="edge">
<title>Node36&#45;&gt;Node29</title>
<path fill="none" stroke="#191970" d="M487.2702,-233.0339C493.6026,-230.4469 499.7113,-227.1997 505,-223.1246 529.3327,-204.3756 517.5176,-183.9282 541,-164.1246 545.5672,-160.2729 550.6722,-156.8598 556.0255,-153.8437"/>
<polygon fill="#191970" stroke="#191970" points="557.9135,-156.8091 565.2181,-149.135 554.7222,-150.5789 557.9135,-156.8091"/>
</g>
<!-- Node38 -->
<g id="node38" class="node">
<title>Node38</title>
<g id="a_node38"><a xlink:href="../../d2/dd8/classG4Proton.html#a599298d143353675ad23093d308d347d" target="_top" xlink:title="G4Proton::Definition">
<polygon fill="none" stroke="#000000" points="379,-123.1246 379,-143.1246 497,-143.1246 497,-123.1246 379,-123.1246"/>
<text text-anchor="middle" x="438" y="-130.1246" font-family="FreeSans" font-size="10.00" fill="#000000">G4Proton::Definition</text>
</a>
</g>
</g>
<!-- Node37&#45;&gt;Node38 -->
<g id="edge62" class="edge">
<title>Node37&#45;&gt;Node38</title>
<path fill="none" stroke="#191970" d="M319.2557,-139.8402C335.4429,-138.9248 352.4665,-137.962 368.4084,-137.0604"/>
<polygon fill="#191970" stroke="#191970" points="368.9224,-140.537 378.7088,-136.4779 368.5271,-133.5482 368.9224,-140.537"/>
</g>
<!-- Node38&#45;&gt;Node7 -->
<g id="edge63" class="edge">
<title>Node38&#45;&gt;Node7</title>
<path fill="none" stroke="#191970" d="M458.4112,-143.2738C487.219,-157.5982 540.4406,-184.0619 577.6907,-202.5841"/>
<polygon fill="#191970" stroke="#191970" points="576.2799,-205.7914 586.7924,-207.1098 579.3966,-199.5235 576.2799,-205.7914"/>
</g>
<!-- Node38&#45;&gt;Node14 -->
<g id="edge64" class="edge">
<title>Node38&#45;&gt;Node14</title>
<path fill="none" stroke="#191970" d="M444.207,-123.0847C458.2867,-101.345 495.0229,-50.1818 541,-29.1246 652.7903,22.0745 694.043,-10.1246 817,-10.1246 817,-10.1246 817,-10.1246 1022.5,-10.1246 1154.6423,-10.1246 1208.6508,-5.9965 1308,-93.1246 1384.3501,-160.0828 1412.3167,-286.9308 1420.563,-336.0205"/>
<polygon fill="#191970" stroke="#191970" points="1417.124,-336.6818 1422.1447,-346.0115 1424.0379,-335.5873 1417.124,-336.6818"/>
</g>
<!-- Node38&#45;&gt;Node29 -->
<g id="edge66" class="edge">
<title>Node38&#45;&gt;Node29</title>
<path fill="none" stroke="#191970" d="M497.2662,-133.1246C509.1436,-133.1246 521.8392,-133.1246 534.3834,-133.1246"/>
<polygon fill="#191970" stroke="#191970" points="534.3926,-136.6247 544.3926,-133.1246 534.3925,-129.6247 534.3926,-136.6247"/>
</g>
<!-- Node38&#45;&gt;Node32 -->
<g id="edge65" class="edge">
<title>Node38&#45;&gt;Node32</title>
<path fill="none" stroke="#191970" d="M453.173,-123.0752C472.8081,-110.3934 508.3772,-88.5048 541,-74.1246 551.062,-69.6892 562.1622,-65.6523 572.7553,-62.1779"/>
<polygon fill="#191970" stroke="#191970" points="573.8239,-65.5108 582.2967,-59.1499 571.7065,-58.8388 573.8239,-65.5108"/>
</g>
</g>
</svg>
