<?xml version="1.0" encoding="UTF-8" standalone="no"?>
<!DOCTYPE svg PUBLIC "-//W3C//DTD SVG 1.1//EN"
 "http://www.w3.org/Graphics/SVG/1.1/DTD/svg11.dtd">
<!-- Generated by graphviz version 2.40.1 (20161225.0304)
 -->
<!-- Title: acts/blob/master/Examples/Detectors/DD4hepDetector/src/TestTracker/ZPlanarTracker_geo.cpp Pages: 1 -->
<svg width="540pt" height="191pt"
 viewBox="0.00 0.00 539.50 191.00" xmlns="http://www.w3.org/2000/svg" xmlns:xlink="http://www.w3.org/1999/xlink">
<g id="graph0" class="graph" transform="scale(1 1) rotate(0) translate(4 187)">
<title>acts/blob/master/Examples/Detectors/DD4hepDetector/src/TestTracker/ZPlanarTracker_geo.cpp</title>
<!-- Node1 -->
<g id="node1" class="node">
<title>Node1</title>
<polygon fill="#bfbfbf" stroke="#000000" points="153.5,-126.5 153.5,-182.5 327.5,-182.5 327.5,-126.5 153.5,-126.5"/>
<text text-anchor="start" x="161.5" y="-169.5" font-family="FreeSans" font-size="10.00" fill="#000000">acts/blob/master/Examples</text>
<text text-anchor="start" x="161.5" y="-157.5" font-family="FreeSans" font-size="10.00" fill="#000000">/Detectors/DD4hepDetector</text>
<text text-anchor="start" x="161.5" y="-145.5" font-family="FreeSans" font-size="10.00" fill="#000000">/src/TestTracker/ZPlanarTracker</text>
<text text-anchor="middle" x="240.5" y="-133.5" font-family="FreeSans" font-size="10.00" fill="#000000">_geo.cpp</text>
</g>
<!-- Node2 -->
<g id="node2" class="node">
<title>Node2</title>
<polygon fill="none" stroke="#bfbfbf" points="0,-63.5 0,-83.5 65,-83.5 65,-63.5 0,-63.5"/>
<text text-anchor="middle" x="32.5" y="-70.5" font-family="FreeSans" font-size="10.00" fill="#000000">exception</text>
</g>
<!-- Node1&#45;&gt;Node2 -->
<g id="edge1" class="edge">
<title>Node1&#45;&gt;Node2</title>
<path fill="none" stroke="#191970" d="M167.2517,-126.4647C138.0481,-115.2206 104.1486,-102.0851 73.5,-90 71.2716,-89.1213 68.977,-88.2116 66.6654,-87.2914"/>
<polygon fill="#191970" stroke="#191970" points="67.7785,-83.967 57.1938,-83.5029 65.1788,-90.4664 67.7785,-83.967"/>
</g>
<!-- Node3 -->
<g id="node3" class="node">
<title>Node3</title>
<polygon fill="none" stroke="#bfbfbf" points="83,-63.5 83,-83.5 240,-83.5 240,-63.5 83,-63.5"/>
<text text-anchor="middle" x="161.5" y="-70.5" font-family="FreeSans" font-size="10.00" fill="#000000">DD4hep/DetFactoryHelper.h</text>
</g>
<!-- Node1&#45;&gt;Node3 -->
<g id="edge2" class="edge">
<title>Node1&#45;&gt;Node3</title>
<path fill="none" stroke="#191970" d="M212.8696,-126.1701C201.3816,-114.3913 188.417,-101.0984 178.3862,-90.8137"/>
<polygon fill="#191970" stroke="#191970" points="180.8484,-88.3254 171.3606,-83.6102 175.8371,-93.2129 180.8484,-88.3254"/>
</g>
<!-- Node4 -->
<g id="node4" class="node">
<title>Node4</title>
<g id="a_node4"><a xlink:href="../../da/d24/ActsExtension_8hpp.html" target="_top" xlink:title="Acts/Plugins/DD4hep\l/ActsExtension.hpp">
<polygon fill="none" stroke="#000000" points="258,-57.5 258,-89.5 381,-89.5 381,-57.5 258,-57.5"/>
<text text-anchor="start" x="266" y="-76.5" font-family="FreeSans" font-size="10.00" fill="#000000">Acts/Plugins/DD4hep</text>
<text text-anchor="middle" x="319.5" y="-64.5" font-family="FreeSans" font-size="10.00" fill="#000000">/ActsExtension.hpp</text>
</a>
</g>
</g>
<!-- Node1&#45;&gt;Node4 -->
<g id="edge3" class="edge">
<title>Node1&#45;&gt;Node4</title>
<path fill="none" stroke="#191970" d="M268.1304,-126.1701C277.4465,-116.6182 287.7336,-106.0706 296.6398,-96.939"/>
<polygon fill="#191970" stroke="#191970" points="299.2679,-99.2571 303.7445,-89.6544 294.2567,-94.3696 299.2679,-99.2571"/>
</g>
<!-- Node8 -->
<g id="node8" class="node">
<title>Node8</title>
<g id="a_node8"><a xlink:href="../../df/d6f/Units_8hpp.html" target="_top" xlink:title="Acts/Utilities/Units.hpp">
<polygon fill="none" stroke="#000000" points="399.5,-63.5 399.5,-83.5 531.5,-83.5 531.5,-63.5 399.5,-63.5"/>
<text text-anchor="middle" x="465.5" y="-70.5" font-family="FreeSans" font-size="10.00" fill="#000000">Acts/Utilities/Units.hpp</text>
</a>
</g>
</g>
<!-- Node1&#45;&gt;Node8 -->
<g id="edge7" class="edge">
<title>Node1&#45;&gt;Node8</title>
<path fill="none" stroke="#191970" d="M318.5626,-126.3975C355.6236,-113.0555 398.2028,-97.727 427.9525,-87.0171"/>
<polygon fill="#191970" stroke="#191970" points="429.2998,-90.252 437.5232,-83.5717 426.9287,-83.6658 429.2998,-90.252"/>
</g>
<!-- Node5 -->
<g id="node5" class="node">
<title>Node5</title>
<polygon fill="none" stroke="#bfbfbf" points="234,-.5 234,-20.5 279,-20.5 279,-.5 234,-.5"/>
<text text-anchor="middle" x="256.5" y="-7.5" font-family="FreeSans" font-size="10.00" fill="#000000">string</text>
</g>
<!-- Node4&#45;&gt;Node5 -->
<g id="edge4" class="edge">
<title>Node4&#45;&gt;Node5</title>
<path fill="none" stroke="#191970" d="M303.2759,-57.2759C294.2754,-48.2754 283.0794,-37.0794 273.8977,-27.8977"/>
<polygon fill="#191970" stroke="#191970" points="276.2973,-25.3475 266.7513,-20.7513 271.3475,-30.2973 276.2973,-25.3475"/>
</g>
<!-- Node6 -->
<g id="node6" class="node">
<title>Node6</title>
<polygon fill="none" stroke="#bfbfbf" points="297,-.5 297,-20.5 342,-20.5 342,-.5 297,-.5"/>
<text text-anchor="middle" x="319.5" y="-7.5" font-family="FreeSans" font-size="10.00" fill="#000000">utility</text>
</g>
<!-- Node4&#45;&gt;Node6 -->
<g id="edge5" class="edge">
<title>Node4&#45;&gt;Node6</title>
<path fill="none" stroke="#191970" d="M319.5,-57.2759C319.5,-49.2654 319.5,-39.5159 319.5,-30.9952"/>
<polygon fill="#191970" stroke="#191970" points="323.0001,-30.7512 319.5,-20.7513 316.0001,-30.7513 323.0001,-30.7512"/>
</g>
<!-- Node7 -->
<g id="node7" class="node">
<title>Node7</title>
<polygon fill="none" stroke="#bfbfbf" points="360.5,-.5 360.5,-20.5 472.5,-20.5 472.5,-.5 360.5,-.5"/>
<text text-anchor="middle" x="416.5" y="-7.5" font-family="FreeSans" font-size="10.00" fill="#000000">DD4hep/Detector.h</text>
</g>
<!-- Node4&#45;&gt;Node7 -->
<g id="edge6" class="edge">
<title>Node4&#45;&gt;Node7</title>
<path fill="none" stroke="#191970" d="M344.2282,-57.4394C359.0097,-47.839 377.7051,-35.6967 392.3778,-26.167"/>
<polygon fill="#191970" stroke="#191970" points="394.4428,-28.9993 400.9228,-20.6171 390.63,-23.1288 394.4428,-28.9993"/>
</g>
</g>
</svg>
