<?xml version="1.0" encoding="UTF-8" standalone="no"?>
<!DOCTYPE svg PUBLIC "-//W3C//DTD SVG 1.1//EN"
 "http://www.w3.org/Graphics/SVG/1.1/DTD/svg11.dtd">
<!-- Generated by graphviz version 2.40.1 (20161225.0304)
 -->
<!-- Title: F03FieldSetup::GetGlobalFieldManager Pages: 1 -->
<svg width="716pt" height="87pt"
 viewBox="0.00 0.00 716.00 87.00" xmlns="http://www.w3.org/2000/svg" xmlns:xlink="http://www.w3.org/1999/xlink">
<g id="graph0" class="graph" transform="scale(1 1) rotate(0) translate(4 83)">
<title>F03FieldSetup::GetGlobalFieldManager</title>
<!-- Node1 -->
<g id="node1" class="node">
<title>Node1</title>
<polygon fill="#bfbfbf" stroke="#000000" points="0,-32.5 0,-64.5 145,-64.5 145,-32.5 0,-32.5"/>
<text text-anchor="start" x="8" y="-51.5" font-family="FreeSans" font-size="10.00" fill="#000000">F03FieldSetup::GetGlobal</text>
<text text-anchor="middle" x="72.5" y="-39.5" font-family="FreeSans" font-size="10.00" fill="#000000">FieldManager</text>
</g>
<!-- Node2 -->
<g id="node2" class="node">
<title>Node2</title>
<g id="a_node2"><a xlink:href="../../d9/d21/classF03FieldSetup.html#ae6294fa3f06e5e61ef93c39c9c58dc12" target="_top" xlink:title="F03FieldSetup::F03FieldSetup">
<polygon fill="none" stroke="#000000" points="181,-58.5 181,-78.5 347,-78.5 347,-58.5 181,-58.5"/>
<text text-anchor="middle" x="264" y="-65.5" font-family="FreeSans" font-size="10.00" fill="#000000">F03FieldSetup::F03FieldSetup</text>
</a>
</g>
</g>
<!-- Node1&#45;&gt;Node2 -->
<g id="edge1" class="edge">
<title>Node1&#45;&gt;Node2</title>
<path fill="none" stroke="#191970" d="M155.3674,-57.1546C163.7965,-58.0349 172.3613,-58.9294 180.794,-59.8101"/>
<polygon fill="#191970" stroke="#191970" points="155.4805,-53.6474 145.171,-56.0897 154.7533,-60.6096 155.4805,-53.6474"/>
</g>
<!-- Node3 -->
<g id="node3" class="node">
<title>Node3</title>
<g id="a_node3"><a xlink:href="../../d9/d21/classF03FieldSetup.html#a75c5ac502949dd3240b85e7d5994483b" target="_top" xlink:title="F03FieldSetup::SetFieldValue">
<polygon fill="none" stroke="#000000" points="182.5,-19.5 182.5,-39.5 345.5,-39.5 345.5,-19.5 182.5,-19.5"/>
<text text-anchor="middle" x="264" y="-26.5" font-family="FreeSans" font-size="10.00" fill="#000000">F03FieldSetup::SetFieldValue</text>
</a>
</g>
</g>
<!-- Node1&#45;&gt;Node3 -->
<g id="edge2" class="edge">
<title>Node1&#45;&gt;Node3</title>
<path fill="none" stroke="#191970" d="M155.2537,-40.2894C164.2584,-39.396 173.4192,-38.4871 182.4098,-37.5951"/>
<polygon fill="#191970" stroke="#191970" points="154.7765,-36.8195 145.171,-41.2898 155.4677,-43.7853 154.7765,-36.8195"/>
</g>
<!-- Node4 -->
<g id="node4" class="node">
<title>Node4</title>
<g id="a_node4"><a xlink:href="../../da/d90/classF03FieldMessenger.html#aa67a296c4c343658b8e89f74a49a512d" target="_top" xlink:title="F03FieldMessenger::\lSetNewValue">
<polygon fill="none" stroke="#000000" points="589,-13.5 589,-45.5 708,-45.5 708,-13.5 589,-13.5"/>
<text text-anchor="start" x="597" y="-32.5" font-family="FreeSans" font-size="10.00" fill="#000000">F03FieldMessenger::</text>
<text text-anchor="middle" x="648.5" y="-20.5" font-family="FreeSans" font-size="10.00" fill="#000000">SetNewValue</text>
</a>
</g>
</g>
<!-- Node3&#45;&gt;Node4 -->
<g id="edge3" class="edge">
<title>Node3&#45;&gt;Node4</title>
<path fill="none" stroke="#191970" d="M355.6305,-30.3475C364.876,-30.4098 374.1242,-30.4627 383,-30.5 458.5549,-30.8175 477.4455,-30.8956 553,-30.5 564.6064,-30.4392 577.0059,-30.3369 588.897,-30.2204"/>
<polygon fill="#191970" stroke="#191970" points="355.6415,-26.8476 345.6169,-30.2765 355.5918,-33.8474 355.6415,-26.8476"/>
</g>
<!-- Node5 -->
<g id="node5" class="node">
<title>Node5</title>
<g id="a_node5"><a xlink:href="../../d9/d21/classF03FieldSetup.html#afeae5bba6400b961f689527bd72ff68b" target="_top" xlink:title="F03FieldSetup::SetFieldZValue">
<polygon fill="none" stroke="#000000" points="383,-.5 383,-20.5 553,-20.5 553,-.5 383,-.5"/>
<text text-anchor="middle" x="468" y="-7.5" font-family="FreeSans" font-size="10.00" fill="#000000">F03FieldSetup::SetFieldZValue</text>
</a>
</g>
</g>
<!-- Node3&#45;&gt;Node5 -->
<g id="edge4" class="edge">
<title>Node3&#45;&gt;Node5</title>
<path fill="none" stroke="#191970" d="M355.6888,-20.9604C364.7632,-20.1152 373.9476,-19.2598 382.9507,-18.4213"/>
<polygon fill="#191970" stroke="#191970" points="355.138,-17.4964 345.5057,-21.9088 355.7872,-24.4663 355.138,-17.4964"/>
</g>
<!-- Node5&#45;&gt;Node4 -->
<g id="edge5" class="edge">
<title>Node5&#45;&gt;Node4</title>
<path fill="none" stroke="#191970" d="M563.4041,-20.5425C572.0636,-21.4541 580.6596,-22.3589 588.8719,-23.2234"/>
<polygon fill="#191970" stroke="#191970" points="563.5401,-17.0376 553.2286,-19.4714 562.8073,-23.9991 563.5401,-17.0376"/>
</g>
</g>
</svg>
