<?xml version="1.0" encoding="UTF-8" standalone="no"?>
<!DOCTYPE svg PUBLIC "-//W3C//DTD SVG 1.1//EN"
 "http://www.w3.org/Graphics/SVG/1.1/DTD/svg11.dtd">
<!-- Generated by graphviz version 2.40.1 (20161225.0304)
 -->
<!-- Title: G4GDMLWriteSolids::CutTubeWrite Pages: 1 -->
<svg width="482pt" height="536pt"
 viewBox="0.00 0.00 482.00 536.00" xmlns="http://www.w3.org/2000/svg" xmlns:xlink="http://www.w3.org/1999/xlink">
<g id="graph0" class="graph" transform="scale(1 1) rotate(0) translate(4 532)">
<title>G4GDMLWriteSolids::CutTubeWrite</title>
<!-- Node1 -->
<g id="node1" class="node">
<title>Node1</title>
<polygon fill="#bfbfbf" stroke="#000000" points="0,-247.5 0,-279.5 122,-279.5 122,-247.5 0,-247.5"/>
<text text-anchor="start" x="8" y="-266.5" font-family="FreeSans" font-size="10.00" fill="#000000">G4GDMLWriteSolids::</text>
<text text-anchor="middle" x="61" y="-254.5" font-family="FreeSans" font-size="10.00" fill="#000000">CutTubeWrite</text>
</g>
<!-- Node2 -->
<g id="node2" class="node">
<title>Node2</title>
<g id="a_node2"><a xlink:href="../../d8/dfc/classG4GDMLWrite.html#a47ccd0a68cfae388b5f3dd222d4923c7" target="_top" xlink:title="G4GDMLWrite::GenerateName">
<polygon fill="none" stroke="#000000" points="158,-507.5 158,-527.5 328,-527.5 328,-507.5 158,-507.5"/>
<text text-anchor="middle" x="243" y="-514.5" font-family="FreeSans" font-size="10.00" fill="#000000">G4GDMLWrite::GenerateName</text>
</a>
</g>
</g>
<!-- Node1&#45;&gt;Node2 -->
<g id="edge1" class="edge">
<title>Node1&#45;&gt;Node2</title>
<path fill="none" stroke="#191970" d="M62.6179,-279.5666C67.8198,-322.3296 88.0983,-439.6675 158,-498.5 159.739,-499.9636 161.5667,-501.3208 163.4669,-502.5791"/>
<polygon fill="#191970" stroke="#191970" points="161.7776,-505.6445 172.2113,-507.4855 165.203,-499.5398 161.7776,-505.6445"/>
</g>
<!-- Node4 -->
<g id="node4" class="node">
<title>Node4</title>
<g id="a_node4"><a xlink:href="../../d7/d40/classG4CutTubs.html#aad0a160eb587bb6135fb4da32e3a2c7c" target="_top" xlink:title="G4CutTubs::GetDeltaPhiAngle">
<polygon fill="none" stroke="#000000" points="159.5,-468.5 159.5,-488.5 326.5,-488.5 326.5,-468.5 159.5,-468.5"/>
<text text-anchor="middle" x="243" y="-475.5" font-family="FreeSans" font-size="10.00" fill="#000000">G4CutTubs::GetDeltaPhiAngle</text>
</a>
</g>
</g>
<!-- Node1&#45;&gt;Node4 -->
<g id="edge3" class="edge">
<title>Node1&#45;&gt;Node4</title>
<path fill="none" stroke="#191970" d="M64.0749,-279.662C72.1568,-317.487 97.6762,-412.141 158,-459.5 159.8361,-460.9415 161.7598,-462.2782 163.754,-463.5175"/>
<polygon fill="#191970" stroke="#191970" points="162.4185,-466.7705 172.8949,-468.3508 165.6906,-460.5823 162.4185,-466.7705"/>
</g>
<!-- Node5 -->
<g id="node5" class="node">
<title>Node5</title>
<g id="a_node5"><a xlink:href="../../d7/d40/classG4CutTubs.html#a9dc283ac83afe167176a2d035350da19" target="_top" xlink:title="G4CutTubs::GetHighNorm">
<polygon fill="none" stroke="#000000" points="170,-429.5 170,-449.5 316,-449.5 316,-429.5 170,-429.5"/>
<text text-anchor="middle" x="243" y="-436.5" font-family="FreeSans" font-size="10.00" fill="#000000">G4CutTubs::GetHighNorm</text>
</a>
</g>
</g>
<!-- Node1&#45;&gt;Node5 -->
<g id="edge4" class="edge">
<title>Node1&#45;&gt;Node5</title>
<path fill="none" stroke="#191970" d="M66.142,-279.5749C77.3111,-311.7691 106.9713,-384.1748 158,-420.5 160.3675,-422.1853 162.8586,-423.7247 165.4414,-425.1305"/>
<polygon fill="#191970" stroke="#191970" points="163.9918,-428.3165 174.5297,-429.4138 166.9761,-421.9845 163.9918,-428.3165"/>
</g>
<!-- Node6 -->
<g id="node6" class="node">
<title>Node6</title>
<g id="a_node6"><a xlink:href="../../d7/d40/classG4CutTubs.html#adff4e72d0affd002268c40b53f5198bd" target="_top" xlink:title="G4CutTubs::GetInnerRadius">
<polygon fill="none" stroke="#000000" points="165,-390.5 165,-410.5 321,-410.5 321,-390.5 165,-390.5"/>
<text text-anchor="middle" x="243" y="-397.5" font-family="FreeSans" font-size="10.00" fill="#000000">G4CutTubs::GetInnerRadius</text>
</a>
</g>
</g>
<!-- Node1&#45;&gt;Node6 -->
<g id="edge5" class="edge">
<title>Node1&#45;&gt;Node6</title>
<path fill="none" stroke="#191970" d="M69.6013,-279.7645C84.1625,-305.6215 116.2088,-355.8006 158,-381.5 161.1477,-383.4357 164.469,-385.1749 167.902,-386.7376"/>
<polygon fill="#191970" stroke="#191970" points="166.6242,-389.9961 177.2082,-390.4754 169.2332,-383.5004 166.6242,-389.9961"/>
</g>
<!-- Node7 -->
<g id="node7" class="node">
<title>Node7</title>
<g id="a_node7"><a xlink:href="../../d7/d40/classG4CutTubs.html#a1c39db3560d94b89f6f9999da1a31ab7" target="_top" xlink:title="G4CutTubs::GetLowNorm">
<polygon fill="none" stroke="#000000" points="172,-351.5 172,-371.5 314,-371.5 314,-351.5 172,-351.5"/>
<text text-anchor="middle" x="243" y="-358.5" font-family="FreeSans" font-size="10.00" fill="#000000">G4CutTubs::GetLowNorm</text>
</a>
</g>
</g>
<!-- Node1&#45;&gt;Node7 -->
<g id="edge6" class="edge">
<title>Node1&#45;&gt;Node7</title>
<path fill="none" stroke="#191970" d="M76.1875,-279.7654C94.0315,-297.8734 125.3673,-326.6683 158,-342.5 162.5597,-344.7121 167.3823,-346.6707 172.321,-348.4042"/>
<polygon fill="#191970" stroke="#191970" points="171.3319,-351.7624 181.9227,-351.4678 173.4598,-345.0936 171.3319,-351.7624"/>
</g>
<!-- Node8 -->
<g id="node8" class="node">
<title>Node8</title>
<g id="a_node8"><a xlink:href="../../da/d34/classG4VSolid.html#a548fddaea6da32e16c9ed8402c1bba72" target="_top" xlink:title="G4VSolid::GetName">
<polygon fill="none" stroke="#000000" points="184.5,-312.5 184.5,-332.5 301.5,-332.5 301.5,-312.5 184.5,-312.5"/>
<text text-anchor="middle" x="243" y="-319.5" font-family="FreeSans" font-size="10.00" fill="#000000">G4VSolid::GetName</text>
</a>
</g>
</g>
<!-- Node1&#45;&gt;Node8 -->
<g id="edge7" class="edge">
<title>Node1&#45;&gt;Node8</title>
<path fill="none" stroke="#191970" d="M95.9376,-279.6079C114.1597,-287.5715 136.9794,-296.8702 158,-303.5 165.5034,-305.8665 173.4679,-308.0559 181.3963,-310.0425"/>
<polygon fill="#191970" stroke="#191970" points="180.8404,-313.5087 191.3821,-312.4484 182.4801,-306.7034 180.8404,-313.5087"/>
</g>
<!-- Node9 -->
<g id="node9" class="node">
<title>Node9</title>
<g id="a_node9"><a xlink:href="../../d7/d40/classG4CutTubs.html#a08c97f84f180f94cc573cd2ca8e93a82" target="_top" xlink:title="G4CutTubs::GetOuterRadius">
<polygon fill="none" stroke="#000000" points="164,-273.5 164,-293.5 322,-293.5 322,-273.5 164,-273.5"/>
<text text-anchor="middle" x="243" y="-280.5" font-family="FreeSans" font-size="10.00" fill="#000000">G4CutTubs::GetOuterRadius</text>
</a>
</g>
</g>
<!-- Node1&#45;&gt;Node9 -->
<g id="edge8" class="edge">
<title>Node1&#45;&gt;Node9</title>
<path fill="none" stroke="#191970" d="M122.1097,-270.2153C132.2831,-271.3333 143.0173,-272.5129 153.7197,-273.689"/>
<polygon fill="#191970" stroke="#191970" points="153.6292,-277.2 163.9517,-274.8134 154.3939,-270.2419 153.6292,-277.2"/>
</g>
<!-- Node10 -->
<g id="node10" class="node">
<title>Node10</title>
<g id="a_node10"><a xlink:href="../../d7/d40/classG4CutTubs.html#a7ffb468802a0097f25e09f3ddb1c4c3d" target="_top" xlink:title="G4CutTubs::GetStartPhiAngle">
<polygon fill="none" stroke="#000000" points="161,-234.5 161,-254.5 325,-254.5 325,-234.5 161,-234.5"/>
<text text-anchor="middle" x="243" y="-241.5" font-family="FreeSans" font-size="10.00" fill="#000000">G4CutTubs::GetStartPhiAngle</text>
</a>
</g>
</g>
<!-- Node1&#45;&gt;Node10 -->
<g id="edge9" class="edge">
<title>Node1&#45;&gt;Node10</title>
<path fill="none" stroke="#191970" d="M122.1097,-257.1204C131.3069,-256.1603 140.9624,-255.1523 150.6385,-254.1421"/>
<polygon fill="#191970" stroke="#191970" points="151.1285,-257.6101 160.711,-253.0906 150.4016,-250.6479 151.1285,-257.6101"/>
</g>
<!-- Node11 -->
<g id="node11" class="node">
<title>Node11</title>
<g id="a_node11"><a xlink:href="../../da/dcf/classCLHEP_1_1Hep3Vector.html#a3613549b742e2eb4a24fe65491e25cca" target="_top" xlink:title="CLHEP::Hep3Vector::getX">
<polygon fill="none" stroke="#000000" points="170.5,-195.5 170.5,-215.5 315.5,-215.5 315.5,-195.5 170.5,-195.5"/>
<text text-anchor="middle" x="243" y="-202.5" font-family="FreeSans" font-size="10.00" fill="#000000">CLHEP::Hep3Vector::getX</text>
</a>
</g>
</g>
<!-- Node1&#45;&gt;Node11 -->
<g id="edge10" class="edge">
<title>Node1&#45;&gt;Node11</title>
<path fill="none" stroke="#191970" d="M98.3297,-247.4389C116.1767,-240.1325 137.9707,-231.7448 158,-225.5 166.7153,-222.7827 176.0338,-220.2371 185.1893,-217.9328"/>
<polygon fill="#191970" stroke="#191970" points="186.1401,-221.3035 195.0239,-215.5304 184.4789,-214.5035 186.1401,-221.3035"/>
</g>
<!-- Node12 -->
<g id="node12" class="node">
<title>Node12</title>
<g id="a_node12"><a xlink:href="../../da/dcf/classCLHEP_1_1Hep3Vector.html#a8ffa37518294768554dfc7c44b57ee57" target="_top" xlink:title="CLHEP::Hep3Vector::getY">
<polygon fill="none" stroke="#000000" points="171,-156.5 171,-176.5 315,-176.5 315,-156.5 171,-156.5"/>
<text text-anchor="middle" x="243" y="-163.5" font-family="FreeSans" font-size="10.00" fill="#000000">CLHEP::Hep3Vector::getY</text>
</a>
</g>
</g>
<!-- Node1&#45;&gt;Node12 -->
<g id="edge11" class="edge">
<title>Node1&#45;&gt;Node12</title>
<path fill="none" stroke="#191970" d="M76.6261,-247.4095C94.628,-229.8153 125.8772,-202.0577 158,-186.5 163.3318,-183.9177 169.0165,-181.6577 174.822,-179.6819"/>
<polygon fill="#191970" stroke="#191970" points="176.1575,-182.9319 184.6655,-176.6181 174.0771,-176.2482 176.1575,-182.9319"/>
</g>
<!-- Node13 -->
<g id="node13" class="node">
<title>Node13</title>
<g id="a_node13"><a xlink:href="../../da/dcf/classCLHEP_1_1Hep3Vector.html#ac078905f29dfb5db508223cfd6a5c68a" target="_top" xlink:title="CLHEP::Hep3Vector::getZ">
<polygon fill="none" stroke="#000000" points="170.5,-117.5 170.5,-137.5 315.5,-137.5 315.5,-117.5 170.5,-117.5"/>
<text text-anchor="middle" x="243" y="-124.5" font-family="FreeSans" font-size="10.00" fill="#000000">CLHEP::Hep3Vector::getZ</text>
</a>
</g>
</g>
<!-- Node1&#45;&gt;Node13 -->
<g id="edge12" class="edge">
<title>Node1&#45;&gt;Node13</title>
<path fill="none" stroke="#191970" d="M69.9467,-247.1521C84.7646,-221.6908 116.8889,-172.86 158,-147.5 161.8042,-145.1533 165.8597,-143.0819 170.0581,-141.2534"/>
<polygon fill="#191970" stroke="#191970" points="171.3713,-144.4982 179.4352,-137.6262 168.8459,-137.9696 171.3713,-144.4982"/>
</g>
<!-- Node14 -->
<g id="node14" class="node">
<title>Node14</title>
<g id="a_node14"><a xlink:href="../../d7/d40/classG4CutTubs.html#af90accc5d4c658ed018cb43d12d5506a" target="_top" xlink:title="G4CutTubs::GetZHalfLength">
<polygon fill="none" stroke="#000000" points="164.5,-78.5 164.5,-98.5 321.5,-98.5 321.5,-78.5 164.5,-78.5"/>
<text text-anchor="middle" x="243" y="-85.5" font-family="FreeSans" font-size="10.00" fill="#000000">G4CutTubs::GetZHalfLength</text>
</a>
</g>
</g>
<!-- Node1&#45;&gt;Node14 -->
<g id="edge13" class="edge">
<title>Node1&#45;&gt;Node14</title>
<path fill="none" stroke="#191970" d="M66.3245,-247.4304C77.7327,-215.6066 107.6679,-144.5356 158,-108.5 161.0123,-106.3434 164.224,-104.4162 167.5696,-102.6944"/>
<polygon fill="#191970" stroke="#191970" points="169.0034,-105.8873 176.6936,-98.5996 166.1372,-99.501 169.0034,-105.8873"/>
</g>
<!-- Node15 -->
<g id="node15" class="node">
<title>Node15</title>
<g id="a_node15"><a xlink:href="../../d8/dfc/classG4GDMLWrite.html#aa641dc958fb5078c33ac09c9485379f7" target="_top" xlink:title="G4GDMLWrite::NewAttribute">
<polygon fill="none" stroke="#000000" points="163.5,-39.5 163.5,-59.5 322.5,-59.5 322.5,-39.5 163.5,-39.5"/>
<text text-anchor="middle" x="243" y="-46.5" font-family="FreeSans" font-size="10.00" fill="#000000">G4GDMLWrite::NewAttribute</text>
</a>
</g>
</g>
<!-- Node1&#45;&gt;Node15 -->
<g id="edge14" class="edge">
<title>Node1&#45;&gt;Node15</title>
<path fill="none" stroke="#191970" d="M64.2248,-247.2655C72.564,-209.7308 98.4846,-116.5661 158,-69.5 160.4767,-67.5414 163.113,-65.7691 165.8666,-64.1658"/>
<polygon fill="#191970" stroke="#191970" points="167.6263,-67.1992 175.0079,-59.599 164.4979,-60.9371 167.6263,-67.1992"/>
</g>
<!-- Node16 -->
<g id="node16" class="node">
<title>Node16</title>
<g id="a_node16"><a xlink:href="../../d8/dfc/classG4GDMLWrite.html#a1cf06b2ac1a7aaa25f556ab12480f449" target="_top" xlink:title="G4GDMLWrite::NewElement">
<polygon fill="none" stroke="#000000" points="164.5,-.5 164.5,-20.5 321.5,-20.5 321.5,-.5 164.5,-.5"/>
<text text-anchor="middle" x="243" y="-7.5" font-family="FreeSans" font-size="10.00" fill="#000000">G4GDMLWrite::NewElement</text>
</a>
</g>
</g>
<!-- Node1&#45;&gt;Node16 -->
<g id="edge15" class="edge">
<title>Node1&#45;&gt;Node16</title>
<path fill="none" stroke="#191970" d="M62.7394,-247.3014C68.2061,-204.7466 89.012,-89.0456 158,-30.5 160.0733,-28.7405 162.2735,-27.1294 164.5724,-25.6544"/>
<polygon fill="#191970" stroke="#191970" points="166.7463,-28.4573 173.8704,-20.6153 163.4108,-22.303 166.7463,-28.4573"/>
</g>
<!-- Node3 -->
<g id="node3" class="node">
<title>Node3</title>
<g id="a_node3"><a xlink:href="../../d5/d72/classG4String.html#a2d1a2d77f4af63b9592e015a21e9ff33" target="_top" xlink:title="G4String::contains">
<polygon fill="none" stroke="#000000" points="364,-507.5 364,-527.5 474,-527.5 474,-507.5 364,-507.5"/>
<text text-anchor="middle" x="419" y="-514.5" font-family="FreeSans" font-size="10.00" fill="#000000">G4String::contains</text>
</a>
</g>
</g>
<!-- Node2&#45;&gt;Node3 -->
<g id="edge2" class="edge">
<title>Node2&#45;&gt;Node3</title>
<path fill="none" stroke="#191970" d="M328.1645,-517.5C336.7729,-517.5 345.4176,-517.5 353.7685,-517.5"/>
<polygon fill="#191970" stroke="#191970" points="353.7869,-521.0001 363.7869,-517.5 353.7869,-514.0001 353.7869,-521.0001"/>
</g>
</g>
</svg>
