<?xml version="1.0" encoding="UTF-8" standalone="no"?>
<!DOCTYPE svg PUBLIC "-//W3C//DTD SVG 1.1//EN"
 "http://www.w3.org/Graphics/SVG/1.1/DTD/svg11.dtd">
<!-- Generated by graphviz version 2.40.1 (20161225.0304)
 -->
<!-- Title: G3VolTableEntry::FindMother Pages: 1 -->
<svg width="1259pt" height="275pt"
 viewBox="0.00 0.00 1259.00 275.00" xmlns="http://www.w3.org/2000/svg" xmlns:xlink="http://www.w3.org/1999/xlink">
<g id="graph0" class="graph" transform="scale(1 1) rotate(0) translate(4 271)">
<title>G3VolTableEntry::FindMother</title>
<!-- Node1 -->
<g id="node1" class="node">
<title>Node1</title>
<polygon fill="#bfbfbf" stroke="#000000" points="0,-110.5 0,-130.5 162,-130.5 162,-110.5 0,-110.5"/>
<text text-anchor="middle" x="81" y="-117.5" font-family="FreeSans" font-size="10.00" fill="#000000">G3VolTableEntry::FindMother</text>
</g>
<!-- Node2 -->
<g id="node2" class="node">
<title>Node2</title>
<g id="a_node2"><a xlink:href="../../d2/db3/classG3VolTableEntry.html#a021df3bdbbfa1d6855294683ba9be551" target="_top" xlink:title="G3VolTableEntry::AddMother">
<polygon fill="none" stroke="#000000" points="198,-149.5 198,-169.5 359,-169.5 359,-149.5 198,-149.5"/>
<text text-anchor="middle" x="278.5" y="-156.5" font-family="FreeSans" font-size="10.00" fill="#000000">G3VolTableEntry::AddMother</text>
</a>
</g>
</g>
<!-- Node1&#45;&gt;Node2 -->
<g id="edge1" class="edge">
<title>Node1&#45;&gt;Node2</title>
<path fill="none" stroke="#191970" d="M141.7868,-132.5035C169.3531,-137.9469 201.575,-144.3098 227.8112,-149.4906"/>
<polygon fill="#191970" stroke="#191970" points="142.3498,-129.0471 131.8612,-130.5435 140.9936,-135.9145 142.3498,-129.0471"/>
</g>
<!-- Node19 -->
<g id="node19" class="node">
<title>Node19</title>
<g id="a_node19"><a xlink:href="../../db/dc6/G3toG4BuildTree_8cc.html#ae609dee46f3a937c027a40a164d4fa6f" target="_top" xlink:title="G3toG4BuildPVTree">
<polygon fill="none" stroke="#000000" points="221,-82.5 221,-102.5 336,-102.5 336,-82.5 221,-82.5"/>
<text text-anchor="middle" x="278.5" y="-89.5" font-family="FreeSans" font-size="10.00" fill="#000000">G3toG4BuildPVTree</text>
</a>
</g>
</g>
<!-- Node1&#45;&gt;Node19 -->
<g id="edge26" class="edge">
<title>Node1&#45;&gt;Node19</title>
<path fill="none" stroke="#191970" d="M161.7012,-109.0588C181.5481,-106.2451 202.4019,-103.2886 220.9072,-100.6651"/>
<polygon fill="#191970" stroke="#191970" points="161.1539,-105.6013 151.7442,-110.4704 162.1365,-112.532 161.1539,-105.6013"/>
</g>
<!-- Node3 -->
<g id="node3" class="node">
<title>Node3</title>
<g id="a_node3"><a xlink:href="../../db/daa/G4gsposp_8cc.html#a523c5970beb3c1735650ce7749dea4cf" target="_top" xlink:title="G4CloneDaughters">
<polygon fill="none" stroke="#000000" points="596.5,-169.5 596.5,-189.5 708.5,-189.5 708.5,-169.5 596.5,-169.5"/>
<text text-anchor="middle" x="652.5" y="-176.5" font-family="FreeSans" font-size="10.00" fill="#000000">G4CloneDaughters</text>
</a>
</g>
</g>
<!-- Node2&#45;&gt;Node3 -->
<g id="edge2" class="edge">
<title>Node2&#45;&gt;Node3</title>
<path fill="none" stroke="#191970" d="M369.4452,-164.3634C440.228,-168.1486 536.215,-173.2816 596.2373,-176.4913"/>
<polygon fill="#191970" stroke="#191970" points="369.3646,-160.8542 359.192,-163.8151 368.9908,-167.8442 369.3646,-160.8542"/>
</g>
<!-- Node4 -->
<g id="node4" class="node">
<title>Node4</title>
<g id="a_node4"><a xlink:href="../../db/daa/G4gsposp_8cc.html#a32b116363c08d2eda3639350ee0f6d29" target="_top" xlink:title="G4CreateCloneVTE">
<polygon fill="none" stroke="#000000" points="801.5,-207.5 801.5,-227.5 913.5,-227.5 913.5,-207.5 801.5,-207.5"/>
<text text-anchor="middle" x="857.5" y="-214.5" font-family="FreeSans" font-size="10.00" fill="#000000">G4CreateCloneVTE</text>
</a>
</g>
</g>
<!-- Node2&#45;&gt;Node4 -->
<g id="edge10" class="edge">
<title>Node2&#45;&gt;Node4</title>
<path fill="none" stroke="#191970" d="M331.2566,-171.6412C351.1498,-175.8832 374.0344,-180.3634 395,-183.5 540.5159,-205.2699 713.9667,-213.2848 801.3129,-216.0891"/>
<polygon fill="#191970" stroke="#191970" points="331.9678,-168.2141 321.4536,-169.5192 330.4867,-175.0557 331.9678,-168.2141"/>
</g>
<!-- Node5 -->
<g id="node5" class="node">
<title>Node5</title>
<g id="a_node5"><a xlink:href="../../d1/dc3/G4gspos_8cc.html#a3861a0ba75b5efab29554b64489bcd5c" target="_top" xlink:title="G4gspos">
<polygon fill="none" stroke="#000000" points="978.5,-246.5 978.5,-266.5 1038.5,-266.5 1038.5,-246.5 978.5,-246.5"/>
<text text-anchor="middle" x="1008.5" y="-253.5" font-family="FreeSans" font-size="10.00" fill="#000000">G4gspos</text>
</a>
</g>
</g>
<!-- Node2&#45;&gt;Node5 -->
<g id="edge20" class="edge">
<title>Node2&#45;&gt;Node5</title>
<path fill="none" stroke="#191970" d="M308.687,-173.7509C331.7942,-184.0159 364.7351,-197.2814 395,-204.5 614.1288,-256.7654 888.2514,-258.2185 978.3117,-257.0992"/>
<polygon fill="#191970" stroke="#191970" points="309.9763,-170.4928 299.4224,-169.5617 307.0921,-176.871 309.9763,-170.4928"/>
</g>
<!-- Node10 -->
<g id="node10" class="node">
<title>Node10</title>
<g id="a_node10"><a xlink:href="../../de/d3f/G4gsdvt2_8cc.html#a81c8d841f6af048fd9602ff0a39f4d84" target="_top" xlink:title="G4CreateCloneVTEWithDivision">
<polygon fill="none" stroke="#000000" points="565,-91.5 565,-111.5 740,-111.5 740,-91.5 565,-91.5"/>
<text text-anchor="middle" x="652.5" y="-98.5" font-family="FreeSans" font-size="10.00" fill="#000000">G4CreateCloneVTEWithDivision</text>
</a>
</g>
</g>
<!-- Node2&#45;&gt;Node10 -->
<g id="edge11" class="edge">
<title>Node2&#45;&gt;Node10</title>
<path fill="none" stroke="#191970" d="M312.1659,-145.74C335.1109,-136.9849 366.4021,-126.2478 395,-120.5 450.8134,-109.2822 514.6225,-104.5185 564.7579,-102.566"/>
<polygon fill="#191970" stroke="#191970" points="310.6152,-142.5876 302.5636,-149.474 313.1522,-149.1117 310.6152,-142.5876"/>
</g>
<!-- Node17 -->
<g id="node17" class="node">
<title>Node17</title>
<g id="a_node17"><a xlink:href="../../dc/db4/classG3Division.html#a75a36912ce670911d48f69a816b26ebb" target="_top" xlink:title="G3Division::UpdateVTE">
<polygon fill="none" stroke="#000000" points="395,-130.5 395,-150.5 529,-150.5 529,-130.5 395,-130.5"/>
<text text-anchor="middle" x="462" y="-137.5" font-family="FreeSans" font-size="10.00" fill="#000000">G3Division::UpdateVTE</text>
</a>
</g>
</g>
<!-- Node2&#45;&gt;Node17 -->
<g id="edge21" class="edge">
<title>Node2&#45;&gt;Node17</title>
<path fill="none" stroke="#191970" d="M369.3543,-150.0927C377.979,-149.1997 386.6142,-148.3056 394.9551,-147.442"/>
<polygon fill="#191970" stroke="#191970" points="368.8391,-146.6273 359.2528,-151.1387 369.5601,-153.5901 368.8391,-146.6273"/>
</g>
<!-- Node3&#45;&gt;Node4 -->
<g id="edge3" class="edge">
<title>Node3&#45;&gt;Node4</title>
<path fill="none" stroke="#191970" d="M716.6752,-191.3959C744.5345,-196.5601 776.8067,-202.5422 803.4229,-207.476"/>
<polygon fill="#191970" stroke="#191970" points="717.0999,-187.9151 706.6295,-189.5338 715.8241,-194.7978 717.0999,-187.9151"/>
</g>
<!-- Node4&#45;&gt;Node5 -->
<g id="edge4" class="edge">
<title>Node4&#45;&gt;Node5</title>
<path fill="none" stroke="#191970" d="M906.2672,-230.0955C929.9757,-236.2189 957.7226,-243.3853 978.3228,-248.7059"/>
<polygon fill="#191970" stroke="#191970" points="906.9438,-226.6555 896.3863,-227.5435 905.1933,-233.4331 906.9438,-226.6555"/>
</g>
<!-- Node8 -->
<g id="node8" class="node">
<title>Node8</title>
<g id="a_node8"><a xlink:href="../../db/daa/G4gsposp_8cc.html#a86b2480e17367e5a0a8480393296b3db" target="_top" xlink:title="G4gsposp">
<polygon fill="none" stroke="#000000" points="975,-207.5 975,-227.5 1042,-227.5 1042,-207.5 975,-207.5"/>
<text text-anchor="middle" x="1008.5" y="-214.5" font-family="FreeSans" font-size="10.00" fill="#000000">G4gsposp</text>
</a>
</g>
</g>
<!-- Node4&#45;&gt;Node8 -->
<g id="edge7" class="edge">
<title>Node4&#45;&gt;Node8</title>
<path fill="none" stroke="#191970" d="M923.9311,-217.5C941.4411,-217.5 959.6114,-217.5 974.6009,-217.5"/>
<polygon fill="#191970" stroke="#191970" points="923.7269,-214.0001 913.7268,-217.5 923.7268,-221.0001 923.7269,-214.0001"/>
</g>
<!-- Node6 -->
<g id="node6" class="node">
<title>Node6</title>
<g id="a_node6"><a xlink:href="../../d1/dc3/G4gspos_8cc.html#a73e9a6a8e7ccfac243bfb2b9866b8d61" target="_top" xlink:title="PG4gspos">
<polygon fill="none" stroke="#000000" points="1081.5,-246.5 1081.5,-266.5 1147.5,-266.5 1147.5,-246.5 1081.5,-246.5"/>
<text text-anchor="middle" x="1114.5" y="-253.5" font-family="FreeSans" font-size="10.00" fill="#000000">PG4gspos</text>
</a>
</g>
</g>
<!-- Node5&#45;&gt;Node6 -->
<g id="edge5" class="edge">
<title>Node5&#45;&gt;Node6</title>
<path fill="none" stroke="#191970" d="M1048.6452,-256.5C1059.4391,-256.5 1070.99,-256.5 1081.3561,-256.5"/>
<polygon fill="#191970" stroke="#191970" points="1048.5918,-253.0001 1038.5918,-256.5 1048.5918,-260.0001 1048.5918,-253.0001"/>
</g>
<!-- Node7 -->
<g id="node7" class="node">
<title>Node7</title>
<g id="a_node7"><a xlink:href="../../df/d23/clparse_8cc.html#a7a2d9a0d550218befab2dc41a2c17422" target="_top" xlink:title="G3CLEval">
<polygon fill="none" stroke="#000000" points="1187,-187.5 1187,-207.5 1251,-207.5 1251,-187.5 1187,-187.5"/>
<text text-anchor="middle" x="1219" y="-194.5" font-family="FreeSans" font-size="10.00" fill="#000000">G3CLEval</text>
</a>
</g>
</g>
<!-- Node6&#45;&gt;Node7 -->
<g id="edge6" class="edge">
<title>Node6&#45;&gt;Node7</title>
<path fill="none" stroke="#191970" d="M1143.2049,-241.7367C1145.8498,-240.3225 1148.4808,-238.8954 1151,-237.5 1168.7324,-227.6779 1188.6892,-215.8435 1202.3719,-207.6063"/>
<polygon fill="#191970" stroke="#191970" points="1141.5145,-238.6712 1134.3001,-246.4303 1144.7784,-244.8637 1141.5145,-238.6712"/>
</g>
<!-- Node9 -->
<g id="node9" class="node">
<title>Node9</title>
<g id="a_node9"><a xlink:href="../../db/daa/G4gsposp_8cc.html#a50ca83058398a70cadc0d8170665a4e8" target="_top" xlink:title="PG4gsposp">
<polygon fill="none" stroke="#000000" points="1078,-207.5 1078,-227.5 1151,-227.5 1151,-207.5 1078,-207.5"/>
<text text-anchor="middle" x="1114.5" y="-214.5" font-family="FreeSans" font-size="10.00" fill="#000000">PG4gsposp</text>
</a>
</g>
</g>
<!-- Node8&#45;&gt;Node9 -->
<g id="edge8" class="edge">
<title>Node8&#45;&gt;Node9</title>
<path fill="none" stroke="#191970" d="M1052.2155,-217.5C1060.7436,-217.5 1069.6029,-217.5 1077.8724,-217.5"/>
<polygon fill="#191970" stroke="#191970" points="1052.0391,-214.0001 1042.0391,-217.5 1052.039,-221.0001 1052.0391,-214.0001"/>
</g>
<!-- Node9&#45;&gt;Node7 -->
<g id="edge9" class="edge">
<title>Node9&#45;&gt;Node7</title>
<path fill="none" stroke="#191970" d="M1161.0959,-208.5821C1169.7868,-206.9188 1178.6889,-205.215 1186.8251,-203.6579"/>
<polygon fill="#191970" stroke="#191970" points="1160.2128,-205.1875 1151.049,-210.505 1161.5287,-212.0627 1160.2128,-205.1875"/>
</g>
<!-- Node11 -->
<g id="node11" class="node">
<title>Node11</title>
<g id="a_node11"><a xlink:href="../../d4/d7f/G4gsdvn_8cc.html#a80216efa6a9a729bf16502057ae93f7a" target="_top" xlink:title="G4gsdvn">
<polygon fill="none" stroke="#000000" points="978,-168.5 978,-188.5 1039,-188.5 1039,-168.5 978,-168.5"/>
<text text-anchor="middle" x="1008.5" y="-175.5" font-family="FreeSans" font-size="10.00" fill="#000000">G4gsdvn</text>
</a>
</g>
</g>
<!-- Node10&#45;&gt;Node11 -->
<g id="edge12" class="edge">
<title>Node10&#45;&gt;Node11</title>
<path fill="none" stroke="#191970" d="M729.0797,-115.2019C732.855,-116.7795 736.519,-118.5386 740,-120.5 760.2684,-131.9205 755.0426,-148.3993 776,-158.5 842.2402,-190.4254 931.4221,-187.1347 977.7188,-182.5157"/>
<polygon fill="#191970" stroke="#191970" points="730.1002,-111.8473 719.5073,-111.6423 727.6603,-118.4083 730.1002,-111.8473"/>
</g>
<!-- Node13 -->
<g id="node13" class="node">
<title>Node13</title>
<g id="a_node13"><a xlink:href="../../d7/dba/G4gsdvx_8cc.html#a47c5a8b12028e17cbd89ee0707cc5493" target="_top" xlink:title="G4gsdvn2">
<polygon fill="none" stroke="#000000" points="824,-90.5 824,-110.5 891,-110.5 891,-90.5 824,-90.5"/>
<text text-anchor="middle" x="857.5" y="-97.5" font-family="FreeSans" font-size="10.00" fill="#000000">G4gsdvn2</text>
</a>
</g>
</g>
<!-- Node10&#45;&gt;Node13 -->
<g id="edge15" class="edge">
<title>Node10&#45;&gt;Node13</title>
<path fill="none" stroke="#191970" d="M750.1433,-101.0237C776.6168,-100.8946 803.5233,-100.7633 823.7776,-100.6645"/>
<polygon fill="#191970" stroke="#191970" points="750.0159,-97.5242 740.0331,-101.073 750.0501,-104.5241 750.0159,-97.5242"/>
</g>
<!-- Node14 -->
<g id="node14" class="node">
<title>Node14</title>
<g id="a_node14"><a xlink:href="../../d3/d21/G4gsdvt_8cc.html#afc534374db5f606865566c9cd7964f23" target="_top" xlink:title="G4gsdvt">
<polygon fill="none" stroke="#000000" points="828,-129.5 828,-149.5 887,-149.5 887,-129.5 828,-129.5"/>
<text text-anchor="middle" x="857.5" y="-136.5" font-family="FreeSans" font-size="10.00" fill="#000000">G4gsdvt</text>
</a>
</g>
</g>
<!-- Node10&#45;&gt;Node14 -->
<g id="edge16" class="edge">
<title>Node10&#45;&gt;Node14</title>
<path fill="none" stroke="#191970" d="M716.876,-113.4331C754.0063,-120.3158 798.9202,-128.6413 827.8354,-134.0012"/>
<polygon fill="#191970" stroke="#191970" points="717.0999,-109.9151 706.6295,-111.5338 715.8241,-116.7978 717.0999,-109.9151"/>
</g>
<!-- Node16 -->
<g id="node16" class="node">
<title>Node16</title>
<g id="a_node16"><a xlink:href="../../d7/dba/G4gsdvx_8cc.html#aee86ebbb8f3b82296f7eeea81015ef2c" target="_top" xlink:title="G4gsdvt2">
<polygon fill="none" stroke="#000000" points="825,-51.5 825,-71.5 890,-71.5 890,-51.5 825,-51.5"/>
<text text-anchor="middle" x="857.5" y="-58.5" font-family="FreeSans" font-size="10.00" fill="#000000">G4gsdvt2</text>
</a>
</g>
</g>
<!-- Node10&#45;&gt;Node16 -->
<g id="edge19" class="edge">
<title>Node10&#45;&gt;Node16</title>
<path fill="none" stroke="#191970" d="M714.0087,-89.4983C750.4633,-82.3852 795.2001,-73.6561 824.9322,-67.8547"/>
<polygon fill="#191970" stroke="#191970" points="713.1101,-86.1075 703.9655,-91.4579 714.4508,-92.978 713.1101,-86.1075"/>
</g>
<!-- Node12 -->
<g id="node12" class="node">
<title>Node12</title>
<g id="a_node12"><a xlink:href="../../d4/d7f/G4gsdvn_8cc.html#a965ef018b61f0a6c8b89b9a546095e37" target="_top" xlink:title="PG4gsdvn">
<polygon fill="none" stroke="#000000" points="1081,-168.5 1081,-188.5 1148,-188.5 1148,-168.5 1081,-168.5"/>
<text text-anchor="middle" x="1114.5" y="-175.5" font-family="FreeSans" font-size="10.00" fill="#000000">PG4gsdvn</text>
</a>
</g>
</g>
<!-- Node11&#45;&gt;Node12 -->
<g id="edge13" class="edge">
<title>Node11&#45;&gt;Node12</title>
<path fill="none" stroke="#191970" d="M1049.3254,-178.5C1059.7787,-178.5 1070.8999,-178.5 1080.9405,-178.5"/>
<polygon fill="#191970" stroke="#191970" points="1049.1596,-175.0001 1039.1596,-178.5 1049.1596,-182.0001 1049.1596,-175.0001"/>
</g>
<!-- Node12&#45;&gt;Node7 -->
<g id="edge14" class="edge">
<title>Node12&#45;&gt;Node7</title>
<path fill="none" stroke="#191970" d="M1158.0021,-186.4095C1167.6639,-188.1662 1177.7365,-189.9976 1186.8473,-191.6541"/>
<polygon fill="#191970" stroke="#191970" points="1158.6045,-182.9617 1148.1397,-184.6163 1157.3522,-189.8488 1158.6045,-182.9617"/>
</g>
<!-- Node15 -->
<g id="node15" class="node">
<title>Node15</title>
<g id="a_node15"><a xlink:href="../../d3/d21/G4gsdvt_8cc.html#ab0f03d1393caf93a52ecce7198973bd3" target="_top" xlink:title="PG4gsdvt">
<polygon fill="none" stroke="#000000" points="1082,-129.5 1082,-149.5 1147,-149.5 1147,-129.5 1082,-129.5"/>
<text text-anchor="middle" x="1114.5" y="-136.5" font-family="FreeSans" font-size="10.00" fill="#000000">PG4gsdvt</text>
</a>
</g>
</g>
<!-- Node14&#45;&gt;Node15 -->
<g id="edge17" class="edge">
<title>Node14&#45;&gt;Node15</title>
<path fill="none" stroke="#191970" d="M897.4906,-139.5C948.2396,-139.5 1034.8108,-139.5 1081.8086,-139.5"/>
<polygon fill="#191970" stroke="#191970" points="897.2323,-136.0001 887.2322,-139.5 897.2322,-143.0001 897.2323,-136.0001"/>
</g>
<!-- Node15&#45;&gt;Node7 -->
<g id="edge18" class="edge">
<title>Node15&#45;&gt;Node7</title>
<path fill="none" stroke="#191970" d="M1143.1886,-154.2928C1145.837,-155.7009 1148.4731,-157.1184 1151,-158.5 1168.4341,-168.032 1188.0998,-179.3765 1201.7812,-187.3659"/>
<polygon fill="#191970" stroke="#191970" points="1144.7586,-151.164 1134.2785,-149.6089 1141.5014,-157.3601 1144.7586,-151.164"/>
</g>
<!-- Node17&#45;&gt;Node3 -->
<g id="edge22" class="edge">
<title>Node17&#45;&gt;Node3</title>
<path fill="none" stroke="#191970" d="M520.9825,-152.5751C547.4941,-158.0027 578.4125,-164.3325 603.6078,-169.4906"/>
<polygon fill="#191970" stroke="#191970" points="521.5573,-149.1203 511.0585,-150.5435 520.1533,-155.9781 521.5573,-149.1203"/>
</g>
<!-- Node17&#45;&gt;Node10 -->
<g id="edge23" class="edge">
<title>Node17&#45;&gt;Node10</title>
<path fill="none" stroke="#191970" d="M520.9825,-128.4249C547.4941,-122.9973 578.4125,-116.6675 603.6078,-111.5094"/>
<polygon fill="#191970" stroke="#191970" points="520.1533,-125.0219 511.0585,-130.4565 521.5573,-131.8797 520.1533,-125.0219"/>
</g>
<!-- Node18 -->
<g id="node18" class="node">
<title>Node18</title>
<g id="a_node18"><a xlink:href="../../db/daa/G4gsposp_8cc.html#ac6a73ad516b7040734c56230fc531f4c" target="_top" xlink:title="G4ProcessDaughters">
<polygon fill="none" stroke="#000000" points="591.5,-130.5 591.5,-150.5 713.5,-150.5 713.5,-130.5 591.5,-130.5"/>
<text text-anchor="middle" x="652.5" y="-137.5" font-family="FreeSans" font-size="10.00" fill="#000000">G4ProcessDaughters</text>
</a>
</g>
</g>
<!-- Node17&#45;&gt;Node18 -->
<g id="edge24" class="edge">
<title>Node17&#45;&gt;Node18</title>
<path fill="none" stroke="#191970" d="M539.2599,-140.5C556.6012,-140.5 574.7682,-140.5 591.3473,-140.5"/>
<polygon fill="#191970" stroke="#191970" points="539.1632,-137.0001 529.1632,-140.5 539.1631,-144.0001 539.1632,-137.0001"/>
</g>
<!-- Node18&#45;&gt;Node4 -->
<g id="edge25" class="edge">
<title>Node18&#45;&gt;Node4</title>
<path fill="none" stroke="#191970" d="M723.4698,-152.4903C729.1986,-154.4794 734.7827,-156.7978 740,-159.5 759.2735,-169.4822 757.1617,-181.7191 776,-192.5 787.0469,-198.822 799.8693,-203.7178 812.0276,-207.4321"/>
<polygon fill="#191970" stroke="#191970" points="724.3201,-149.0891 713.7312,-149.4441 722.2303,-155.7699 724.3201,-149.0891"/>
</g>
<!-- Node19&#45;&gt;Node19 -->
<g id="edge27" class="edge">
<title>Node19&#45;&gt;Node19</title>
<path fill="none" stroke="#191970" d="M244.4789,-111.2839C245.6649,-116.7597 257.0052,-121 278.5,-121 310.4922,-121 319.9899,-111.6067 306.993,-102.7271"/>
<polygon fill="#191970" stroke="#191970" points="247.5203,-113.026 250.007,-102.7271 241.6405,-109.2274 247.5203,-113.026"/>
</g>
<!-- Node20 -->
<g id="node20" class="node">
<title>Node20</title>
<g id="a_node20"><a xlink:href="../../db/dc6/G3toG4BuildTree_8cc.html#a27b477588fa35e1bca9c57dfa4533808" target="_top" xlink:title="G3toG4BuildTree">
<polygon fill="none" stroke="#000000" points="411,-52.5 411,-72.5 513,-72.5 513,-52.5 411,-52.5"/>
<text text-anchor="middle" x="462" y="-59.5" font-family="FreeSans" font-size="10.00" fill="#000000">G3toG4BuildTree</text>
</a>
</g>
</g>
<!-- Node19&#45;&gt;Node20 -->
<g id="edge28" class="edge">
<title>Node19&#45;&gt;Node20</title>
<path fill="none" stroke="#191970" d="M346.0694,-81.4532C367.4857,-77.9519 390.7948,-74.1412 410.8583,-70.861"/>
<polygon fill="#191970" stroke="#191970" points="345.3613,-78.0224 336.0571,-83.0901 346.4908,-84.9307 345.3613,-78.0224"/>
</g>
<!-- Node21 -->
<g id="node21" class="node">
<title>Node21</title>
<g id="a_node21"><a xlink:href="../../d6/db0/G4BuildGeom_8cc.html#a5ef3604b39aaad1dca7e8eb2c1409a18" target="_top" xlink:title="G4BuildGeom">
<polygon fill="none" stroke="#000000" points="609.5,-29.5 609.5,-49.5 695.5,-49.5 695.5,-29.5 609.5,-29.5"/>
<text text-anchor="middle" x="652.5" y="-36.5" font-family="FreeSans" font-size="10.00" fill="#000000">G4BuildGeom</text>
</a>
</g>
</g>
<!-- Node20&#45;&gt;Node21 -->
<g id="edge29" class="edge">
<title>Node20&#45;&gt;Node21</title>
<path fill="none" stroke="#191970" d="M523.1727,-55.1143C551.2655,-51.7225 583.9138,-47.7807 609.3786,-44.7063"/>
<polygon fill="#191970" stroke="#191970" points="522.5589,-51.6629 513.0505,-56.3364 523.398,-58.6125 522.5589,-51.6629"/>
</g>
<!-- Node22 -->
<g id="node22" class="node">
<title>Node22</title>
<g id="a_node22"><a xlink:href="../../de/dc0/classG3toG4DetectorConstruction.html#a6098fdedd69e0932d14e8f33588817ea" target="_top" xlink:title="G3toG4DetectorConstruction\l::Construct">
<polygon fill="none" stroke="#000000" points="776,-.5 776,-32.5 939,-32.5 939,-.5 776,-.5"/>
<text text-anchor="start" x="784" y="-19.5" font-family="FreeSans" font-size="10.00" fill="#000000">G3toG4DetectorConstruction</text>
<text text-anchor="middle" x="857.5" y="-7.5" font-family="FreeSans" font-size="10.00" fill="#000000">::Construct</text>
</a>
</g>
</g>
<!-- Node21&#45;&gt;Node22 -->
<g id="edge30" class="edge">
<title>Node21&#45;&gt;Node22</title>
<path fill="none" stroke="#191970" d="M706.0822,-33.4883C727.3151,-31.1061 752.2066,-28.3134 775.604,-25.6883"/>
<polygon fill="#191970" stroke="#191970" points="705.5226,-30.0291 695.9752,-34.6223 706.3031,-36.9854 705.5226,-30.0291"/>
</g>
</g>
</svg>
