<?xml version="1.0" encoding="UTF-8" standalone="no"?>
<!DOCTYPE svg PUBLIC "-//W3C//DTD SVG 1.1//EN"
 "http://www.w3.org/Graphics/SVG/1.1/DTD/svg11.dtd">
<!-- Generated by graphviz version 2.40.1 (20161225.0304)
 -->
<!-- Title: G3VolTableEntry::HasMANY Pages: 1 -->
<svg width="283pt" height="47pt"
 viewBox="0.00 0.00 283.00 47.00" xmlns="http://www.w3.org/2000/svg" xmlns:xlink="http://www.w3.org/1999/xlink">
<g id="graph0" class="graph" transform="scale(1 1) rotate(0) translate(4 43)">
<title>G3VolTableEntry::HasMANY</title>
<!-- Node1 -->
<g id="node1" class="node">
<title>Node1</title>
<polygon fill="#bfbfbf" stroke="#000000" points="0,-.5 0,-20.5 154,-20.5 154,-.5 0,-.5"/>
<text text-anchor="middle" x="77" y="-7.5" font-family="FreeSans" font-size="10.00" fill="#000000">G3VolTableEntry::HasMANY</text>
</g>
<!-- Node2 -->
<g id="node2" class="node">
<title>Node2</title>
<g id="a_node2"><a xlink:href="../../d7/dc2/G3toG4MANY_8cc.html#a4ebc4e029ab81f9d6d65466bf8be46b8" target="_top" xlink:title="G3toG4MANY">
<polygon fill="none" stroke="#000000" points="190,-.5 190,-20.5 275,-20.5 275,-.5 190,-.5"/>
<text text-anchor="middle" x="232.5" y="-7.5" font-family="FreeSans" font-size="10.00" fill="#000000">G3toG4MANY</text>
</a>
</g>
</g>
<!-- Node1&#45;&gt;Node2 -->
<g id="edge1" class="edge">
<title>Node1&#45;&gt;Node2</title>
<path fill="none" stroke="#191970" d="M164.5614,-10.5C173.2649,-10.5 181.8017,-10.5 189.7261,-10.5"/>
<polygon fill="#191970" stroke="#191970" points="164.2945,-7.0001 154.2944,-10.5 164.2944,-14.0001 164.2945,-7.0001"/>
</g>
<!-- Node2&#45;&gt;Node2 -->
<g id="edge2" class="edge">
<title>Node2&#45;&gt;Node2</title>
<path fill="none" stroke="#191970" d="M203.7969,-29.6639C205.1674,-34.9546 214.7351,-39 232.5,-39 259.5703,-39 267.6068,-29.6067 256.6095,-20.7271"/>
<polygon fill="#191970" stroke="#191970" points="206.9317,-31.221 208.3905,-20.7271 200.706,-28.0209 206.9317,-31.221"/>
</g>
</g>
</svg>
