<?xml version="1.0" encoding="UTF-8" standalone="no"?>
<!DOCTYPE svg PUBLIC "-//W3C//DTD SVG 1.1//EN"
 "http://www.w3.org/Graphics/SVG/1.1/DTD/svg11.dtd">
<!-- Generated by graphviz version 2.40.1 (20161225.0304)
 -->
<!-- Title: G4SolidStore::Register Pages: 1 -->
<svg width="346pt" height="68pt"
 viewBox="0.00 0.00 346.00 68.00" xmlns="http://www.w3.org/2000/svg" xmlns:xlink="http://www.w3.org/1999/xlink">
<g id="graph0" class="graph" transform="scale(1 1) rotate(0) translate(4 64)">
<title>G4SolidStore::Register</title>
<!-- Node1 -->
<g id="node1" class="node">
<title>Node1</title>
<polygon fill="#bfbfbf" stroke="#000000" points="0,-19.5 0,-39.5 131,-39.5 131,-19.5 0,-19.5"/>
<text text-anchor="middle" x="65.5" y="-26.5" font-family="FreeSans" font-size="10.00" fill="#000000">G4SolidStore::Register</text>
</g>
<!-- Node2 -->
<g id="node2" class="node">
<title>Node2</title>
<g id="a_node2"><a xlink:href="../../de/dbf/classG4SolidStore.html#aaf69d823b84f4bde79aa9a8ca66a8708" target="_top" xlink:title="G4SolidStore::GetInstance">
<polygon fill="none" stroke="#000000" points="177.5,-39.5 177.5,-59.5 327.5,-59.5 327.5,-39.5 177.5,-39.5"/>
<text text-anchor="middle" x="252.5" y="-46.5" font-family="FreeSans" font-size="10.00" fill="#000000">G4SolidStore::GetInstance</text>
</a>
</g>
</g>
<!-- Node1&#45;&gt;Node2 -->
<g id="edge1" class="edge">
<title>Node1&#45;&gt;Node2</title>
<path fill="none" stroke="#191970" d="M131.1663,-36.5231C142.8412,-37.7718 155.1531,-39.0886 167.278,-40.3853"/>
<polygon fill="#191970" stroke="#191970" points="167.0852,-43.8846 177.4007,-41.468 167.8297,-36.9243 167.0852,-43.8846"/>
</g>
<!-- Node3 -->
<g id="node3" class="node">
<title>Node3</title>
<g id="a_node3"><a xlink:href="../../dd/dd0/classG4VNotifier.html#a17921636b8d9df651e005e1b0f276d81" target="_top" xlink:title="G4VNotifier::NotifyRegistration">
<polygon fill="none" stroke="#000000" points="167,-.5 167,-20.5 338,-20.5 338,-.5 167,-.5"/>
<text text-anchor="middle" x="252.5" y="-7.5" font-family="FreeSans" font-size="10.00" fill="#000000">G4VNotifier::NotifyRegistration</text>
</a>
</g>
</g>
<!-- Node1&#45;&gt;Node3 -->
<g id="edge2" class="edge">
<title>Node1&#45;&gt;Node3</title>
<path fill="none" stroke="#191970" d="M131.1663,-22.828C139.4867,-21.9826 148.1307,-21.1044 156.7999,-20.2235"/>
<polygon fill="#191970" stroke="#191970" points="157.3756,-23.6832 166.9705,-19.1902 156.6679,-16.719 157.3756,-23.6832"/>
</g>
</g>
</svg>
