<?xml version="1.0" encoding="UTF-8" standalone="no"?>
<!DOCTYPE svg PUBLIC "-//W3C//DTD SVG 1.1//EN"
 "http://www.w3.org/Graphics/SVG/1.1/DTD/svg11.dtd">
<!-- Generated by graphviz version 2.40.1 (20161225.0304)
 -->
<!-- Title: G4eplusTo3GammaOKVIModel::ComputeCrossSectionPerElectron Pages: 1 -->
<svg width="412pt" height="194pt"
 viewBox="0.00 0.00 412.00 194.00" xmlns="http://www.w3.org/2000/svg" xmlns:xlink="http://www.w3.org/1999/xlink">
<g id="graph0" class="graph" transform="scale(1 1) rotate(0) translate(4 190)">
<title>G4eplusTo3GammaOKVIModel::ComputeCrossSectionPerElectron</title>
<!-- Node1 -->
<g id="node1" class="node">
<title>Node1</title>
<polygon fill="#bfbfbf" stroke="#000000" points="0,-76.5 0,-108.5 191,-108.5 191,-76.5 0,-76.5"/>
<text text-anchor="start" x="8" y="-95.5" font-family="FreeSans" font-size="10.00" fill="#000000">G4eplusTo3GammaOKVIModel</text>
<text text-anchor="middle" x="95.5" y="-83.5" font-family="FreeSans" font-size="10.00" fill="#000000">::ComputeCrossSectionPerElectron</text>
</g>
<!-- Node2 -->
<g id="node2" class="node">
<title>Node2</title>
<g id="a_node2"><a xlink:href="../../de/d47/classG4eplusTo3GammaOKVIModel.html#a73fe174308d45e7b9f6a1b08e0aa9877" target="_top" xlink:title="G4eplusTo3GammaOKVIModel\l::ComputeCrossSectionPerAtom">
<polygon fill="none" stroke="#000000" points="227,-153.5 227,-185.5 404,-185.5 404,-153.5 227,-153.5"/>
<text text-anchor="start" x="235" y="-172.5" font-family="FreeSans" font-size="10.00" fill="#000000">G4eplusTo3GammaOKVIModel</text>
<text text-anchor="middle" x="315.5" y="-160.5" font-family="FreeSans" font-size="10.00" fill="#000000">::ComputeCrossSectionPerAtom</text>
</a>
</g>
</g>
<!-- Node1&#45;&gt;Node2 -->
<g id="edge1" class="edge">
<title>Node1&#45;&gt;Node2</title>
<path fill="none" stroke="#191970" d="M142.6525,-112.4871C167.5185,-122.6849 198.6659,-134.9232 227,-144.5 236.0752,-147.5674 245.7578,-150.5702 255.2646,-153.3702"/>
<polygon fill="#191970" stroke="#191970" points="143.6823,-109.1258 133.1034,-108.5449 141.0111,-115.5961 143.6823,-109.1258"/>
</g>
<!-- Node3 -->
<g id="node3" class="node">
<title>Node3</title>
<g id="a_node3"><a xlink:href="../../de/d47/classG4eplusTo3GammaOKVIModel.html#addc95bf57a5eacb7cece6760a4456a1f" target="_top" xlink:title="G4eplusTo3GammaOKVIModel\l::CrossSectionPerVolume">
<polygon fill="none" stroke="#000000" points="230.5,-102.5 230.5,-134.5 400.5,-134.5 400.5,-102.5 230.5,-102.5"/>
<text text-anchor="start" x="238.5" y="-121.5" font-family="FreeSans" font-size="10.00" fill="#000000">G4eplusTo3GammaOKVIModel</text>
<text text-anchor="middle" x="315.5" y="-109.5" font-family="FreeSans" font-size="10.00" fill="#000000">::CrossSectionPerVolume</text>
</a>
</g>
</g>
<!-- Node1&#45;&gt;Node3 -->
<g id="edge2" class="edge">
<title>Node1&#45;&gt;Node3</title>
<path fill="none" stroke="#191970" d="M201.2127,-104.9933C211.007,-106.1508 220.8468,-107.3137 230.4207,-108.4452"/>
<polygon fill="#191970" stroke="#191970" points="201.3771,-101.4885 191.0354,-103.7905 200.5555,-108.4401 201.3771,-101.4885"/>
</g>
<!-- Node4 -->
<g id="node4" class="node">
<title>Node4</title>
<g id="a_node4"><a xlink:href="../../de/d51/classG4eplusTo2GammaOKVIModel.html#a157123ee98d2ac2f1e77d4188d08d257" target="_top" xlink:title="G4eplusTo2GammaOKVIModel\l::Initialise">
<polygon fill="none" stroke="#000000" points="230.5,-51.5 230.5,-83.5 400.5,-83.5 400.5,-51.5 230.5,-51.5"/>
<text text-anchor="start" x="238.5" y="-70.5" font-family="FreeSans" font-size="10.00" fill="#000000">G4eplusTo2GammaOKVIModel</text>
<text text-anchor="middle" x="315.5" y="-58.5" font-family="FreeSans" font-size="10.00" fill="#000000">::Initialise</text>
</a>
</g>
</g>
<!-- Node1&#45;&gt;Node4 -->
<g id="edge3" class="edge">
<title>Node1&#45;&gt;Node4</title>
<path fill="none" stroke="#191970" d="M201.2127,-80.4872C211.007,-79.3742 220.8468,-78.256 230.4207,-77.1681"/>
<polygon fill="#191970" stroke="#191970" points="200.5762,-77.0369 191.0354,-81.6437 201.3667,-83.9921 200.5762,-77.0369"/>
</g>
<!-- Node5 -->
<g id="node5" class="node">
<title>Node5</title>
<g id="a_node5"><a xlink:href="../../de/d51/classG4eplusTo2GammaOKVIModel.html#aa23f5dc158d940e077a43a29a182306b" target="_top" xlink:title="G4eplusTo2GammaOKVIModel\l::SampleSecondaries">
<polygon fill="none" stroke="#000000" points="230.5,-.5 230.5,-32.5 400.5,-32.5 400.5,-.5 230.5,-.5"/>
<text text-anchor="start" x="238.5" y="-19.5" font-family="FreeSans" font-size="10.00" fill="#000000">G4eplusTo2GammaOKVIModel</text>
<text text-anchor="middle" x="315.5" y="-7.5" font-family="FreeSans" font-size="10.00" fill="#000000">::SampleSecondaries</text>
</a>
</g>
</g>
<!-- Node1&#45;&gt;Node5 -->
<g id="edge4" class="edge">
<title>Node1&#45;&gt;Node5</title>
<path fill="none" stroke="#191970" d="M144.6671,-72.7673C169.2343,-63.1735 199.5128,-51.7479 227,-42.5 237.0174,-39.1297 247.752,-35.7691 258.168,-32.6371"/>
<polygon fill="#191970" stroke="#191970" points="143.235,-69.5694 135.2055,-76.4816 145.7929,-76.0853 143.235,-69.5694"/>
</g>
</g>
</svg>
