<?xml version="1.0" encoding="UTF-8" standalone="no"?>
<!DOCTYPE svg PUBLIC "-//W3C//DTD SVG 1.1//EN"
 "http://www.w3.org/Graphics/SVG/1.1/DTD/svg11.dtd">
<!-- Generated by graphviz version 2.40.1 (20161225.0304)
 -->
<!-- Title: G4RadioactiveDecay::GetMeanLifeTime Pages: 1 -->
<svg width="329pt" height="335pt"
 viewBox="0.00 0.00 329.00 335.00" xmlns="http://www.w3.org/2000/svg" xmlns:xlink="http://www.w3.org/1999/xlink">
<g id="graph0" class="graph" transform="scale(1 1) rotate(0) translate(4 331)">
<title>G4RadioactiveDecay::GetMeanLifeTime</title>
<!-- Node1 -->
<g id="node1" class="node">
<title>Node1</title>
<polygon fill="#bfbfbf" stroke="#000000" points="0,-153.5 0,-185.5 122,-185.5 122,-153.5 0,-153.5"/>
<text text-anchor="start" x="8" y="-172.5" font-family="FreeSans" font-size="10.00" fill="#000000">G4RadioactiveDecay</text>
<text text-anchor="middle" x="61" y="-160.5" font-family="FreeSans" font-size="10.00" fill="#000000">::GetMeanLifeTime</text>
</g>
<!-- Node2 -->
<g id="node2" class="node">
<title>Node2</title>
<g id="a_node2"><a xlink:href="../../d7/d5c/classG4DynamicParticle.html#a3595a77a2881a6dab2a3661440930496" target="_top" xlink:title="G4DynamicParticle::\lGetDefinition">
<polygon fill="none" stroke="#000000" points="180.5,-294.5 180.5,-326.5 298.5,-326.5 298.5,-294.5 180.5,-294.5"/>
<text text-anchor="start" x="188.5" y="-313.5" font-family="FreeSans" font-size="10.00" fill="#000000">G4DynamicParticle::</text>
<text text-anchor="middle" x="239.5" y="-301.5" font-family="FreeSans" font-size="10.00" fill="#000000">GetDefinition</text>
</a>
</g>
</g>
<!-- Node1&#45;&gt;Node2 -->
<g id="edge1" class="edge">
<title>Node1&#45;&gt;Node2</title>
<path fill="none" stroke="#191970" d="M70.1523,-185.5267C85.252,-210.5478 117.7553,-258.7864 158,-285.5 162.0268,-288.1729 166.3524,-290.5707 170.8351,-292.72"/>
<polygon fill="#191970" stroke="#191970" points="169.6451,-296.0189 180.2117,-296.7915 172.4332,-289.5981 169.6451,-296.0189"/>
</g>
<!-- Node3 -->
<g id="node3" class="node">
<title>Node3</title>
<g id="a_node3"><a xlink:href="../../d1/d33/classG4Track.html#a1dd96352858e4c1c6024af3b0b06da53" target="_top" xlink:title="G4Track::GetDynamicParticle">
<polygon fill="none" stroke="#000000" points="158,-255.5 158,-275.5 321,-275.5 321,-255.5 158,-255.5"/>
<text text-anchor="middle" x="239.5" y="-262.5" font-family="FreeSans" font-size="10.00" fill="#000000">G4Track::GetDynamicParticle</text>
</a>
</g>
</g>
<!-- Node1&#45;&gt;Node3 -->
<g id="edge2" class="edge">
<title>Node1&#45;&gt;Node3</title>
<path fill="none" stroke="#191970" d="M76.6202,-185.6028C94.6168,-203.2079 125.8613,-230.9753 158,-246.5 162.5441,-248.695 167.3554,-250.6442 172.2779,-252.3738"/>
<polygon fill="#191970" stroke="#191970" points="171.2488,-255.7193 181.8399,-255.4362 173.384,-249.0528 171.2488,-255.7193"/>
</g>
<!-- Node4 -->
<g id="node4" class="node">
<title>Node4</title>
<g id="a_node4"><a xlink:href="../../d7/d5c/classG4DynamicParticle.html#aba63ef4aeef93871bec7279ada8391da" target="_top" xlink:title="G4DynamicParticle::\lGetKineticEnergy">
<polygon fill="none" stroke="#000000" points="180.5,-204.5 180.5,-236.5 298.5,-236.5 298.5,-204.5 180.5,-204.5"/>
<text text-anchor="start" x="188.5" y="-223.5" font-family="FreeSans" font-size="10.00" fill="#000000">G4DynamicParticle::</text>
<text text-anchor="middle" x="239.5" y="-211.5" font-family="FreeSans" font-size="10.00" fill="#000000">GetKineticEnergy</text>
</a>
</g>
</g>
<!-- Node1&#45;&gt;Node4 -->
<g id="edge3" class="edge">
<title>Node1&#45;&gt;Node4</title>
<path fill="none" stroke="#191970" d="M117.4785,-185.6367C135.3137,-190.7325 155.1764,-196.4075 173.6091,-201.674"/>
<polygon fill="#191970" stroke="#191970" points="172.8121,-205.0863 183.3889,-204.4683 174.7352,-198.3556 172.8121,-205.0863"/>
</g>
<!-- Node5 -->
<g id="node5" class="node">
<title>Node5</title>
<g id="a_node5"><a xlink:href="../../d7/d5c/classG4DynamicParticle.html#a70dad8924abf2a8dec96b142eb161b8a" target="_top" xlink:title="G4DynamicParticle::\lGetMass">
<polygon fill="none" stroke="#000000" points="180.5,-153.5 180.5,-185.5 298.5,-185.5 298.5,-153.5 180.5,-153.5"/>
<text text-anchor="start" x="188.5" y="-172.5" font-family="FreeSans" font-size="10.00" fill="#000000">G4DynamicParticle::</text>
<text text-anchor="middle" x="239.5" y="-160.5" font-family="FreeSans" font-size="10.00" fill="#000000">GetMass</text>
</a>
</g>
</g>
<!-- Node1&#45;&gt;Node5 -->
<g id="edge4" class="edge">
<title>Node1&#45;&gt;Node5</title>
<path fill="none" stroke="#191970" d="M122.4296,-169.5C137.8166,-169.5 154.4295,-169.5 170.1711,-169.5"/>
<polygon fill="#191970" stroke="#191970" points="170.3681,-173.0001 180.3681,-169.5 170.3681,-166.0001 170.3681,-173.0001"/>
</g>
<!-- Node6 -->
<g id="node6" class="node">
<title>Node6</title>
<g id="a_node6"><a xlink:href="../../d5/d38/classG4ParticleDefinition.html#a85a41b1ac6bc9fcbc47989b3cbe65ecb" target="_top" xlink:title="G4ParticleDefinition\l::GetPDGLifeTime">
<polygon fill="none" stroke="#000000" points="181.5,-102.5 181.5,-134.5 297.5,-134.5 297.5,-102.5 181.5,-102.5"/>
<text text-anchor="start" x="189.5" y="-121.5" font-family="FreeSans" font-size="10.00" fill="#000000">G4ParticleDefinition</text>
<text text-anchor="middle" x="239.5" y="-109.5" font-family="FreeSans" font-size="10.00" fill="#000000">::GetPDGLifeTime</text>
</a>
</g>
</g>
<!-- Node1&#45;&gt;Node6 -->
<g id="edge5" class="edge">
<title>Node1&#45;&gt;Node6</title>
<path fill="none" stroke="#191970" d="M117.4785,-153.3633C135.3137,-148.2675 155.1764,-142.5925 173.6091,-137.326"/>
<polygon fill="#191970" stroke="#191970" points="174.7352,-140.6444 183.3889,-134.5317 172.8121,-133.9137 174.7352,-140.6444"/>
</g>
<!-- Node7 -->
<g id="node7" class="node">
<title>Node7</title>
<g id="a_node7"><a xlink:href="../../d5/d38/classG4ParticleDefinition.html#ac2e3e5f93698564efb959b489099629a" target="_top" xlink:title="G4ParticleDefinition\l::GetPDGStable">
<polygon fill="none" stroke="#000000" points="181.5,-51.5 181.5,-83.5 297.5,-83.5 297.5,-51.5 181.5,-51.5"/>
<text text-anchor="start" x="189.5" y="-70.5" font-family="FreeSans" font-size="10.00" fill="#000000">G4ParticleDefinition</text>
<text text-anchor="middle" x="239.5" y="-58.5" font-family="FreeSans" font-size="10.00" fill="#000000">::GetPDGStable</text>
</a>
</g>
</g>
<!-- Node1&#45;&gt;Node7 -->
<g id="edge6" class="edge">
<title>Node1&#45;&gt;Node7</title>
<path fill="none" stroke="#191970" d="M77.5632,-153.4667C95.9017,-136.4852 126.9886,-109.9102 158,-93.5 162.4797,-91.1295 167.2132,-88.929 172.0534,-86.8953"/>
<polygon fill="#191970" stroke="#191970" points="173.4347,-90.113 181.454,-83.189 170.8672,-83.6008 173.4347,-90.113"/>
</g>
<!-- Node8 -->
<g id="node8" class="node">
<title>Node8</title>
<g id="a_node8"><a xlink:href="../../df/d5e/classG4RadioactiveDecay.html#a28b3f2e31f30861e40e9ea153aa676b1" target="_top" xlink:title="G4RadioactiveDecay\l::GetVerboseLevel">
<polygon fill="none" stroke="#000000" points="178.5,-.5 178.5,-32.5 300.5,-32.5 300.5,-.5 178.5,-.5"/>
<text text-anchor="start" x="186.5" y="-19.5" font-family="FreeSans" font-size="10.00" fill="#000000">G4RadioactiveDecay</text>
<text text-anchor="middle" x="239.5" y="-7.5" font-family="FreeSans" font-size="10.00" fill="#000000">::GetVerboseLevel</text>
</a>
</g>
</g>
<!-- Node1&#45;&gt;Node8 -->
<g id="edge7" class="edge">
<title>Node1&#45;&gt;Node8</title>
<path fill="none" stroke="#191970" d="M69.0977,-153.3064C83.3779,-126.3709 115.5849,-72.3772 158,-42.5 161.4832,-40.0464 165.2092,-37.8162 169.0799,-35.7902"/>
<polygon fill="#191970" stroke="#191970" points="170.779,-38.8585 178.3276,-31.4242 167.7905,-32.5285 170.779,-38.8585"/>
</g>
</g>
</svg>
