<?xml version="1.0" encoding="UTF-8" standalone="no"?>
<!DOCTYPE svg PUBLIC "-//W3C//DTD SVG 1.1//EN"
 "http://www.w3.org/Graphics/SVG/1.1/DTD/svg11.dtd">
<!-- Generated by graphviz version 2.40.1 (20161225.0304)
 -->
<!-- Title: Analysis::Book Pages: 1 -->
<svg width="295pt" height="131pt"
 viewBox="0.00 0.00 295.00 131.00" xmlns="http://www.w3.org/2000/svg" xmlns:xlink="http://www.w3.org/1999/xlink">
<g id="graph0" class="graph" transform="scale(1 1) rotate(0) translate(4 127)">
<title>Analysis::Book</title>
<!-- Node1 -->
<g id="node1" class="node">
<title>Node1</title>
<polygon fill="#bfbfbf" stroke="#000000" points="0,-51.5 0,-71.5 92,-71.5 92,-51.5 0,-51.5"/>
<text text-anchor="middle" x="46" y="-58.5" font-family="FreeSans" font-size="10.00" fill="#000000">Analysis::Book</text>
</g>
<!-- Node2 -->
<g id="node2" class="node">
<title>Node2</title>
<g id="a_node2"><a xlink:href="../../d8/df4/classRunActionMaster.html#a0e7022e4ca4d85d29ca51e050b3c0892" target="_top" xlink:title="RunActionMaster::BeginOf\lRunAction">
<polygon fill="none" stroke="#000000" points="133,-90.5 133,-122.5 282,-122.5 282,-90.5 133,-90.5"/>
<text text-anchor="start" x="141" y="-109.5" font-family="FreeSans" font-size="10.00" fill="#000000">RunActionMaster::BeginOf</text>
<text text-anchor="middle" x="207.5" y="-97.5" font-family="FreeSans" font-size="10.00" fill="#000000">RunAction</text>
</a>
</g>
</g>
<!-- Node1&#45;&gt;Node2 -->
<g id="edge1" class="edge">
<title>Node1&#45;&gt;Node2</title>
<path fill="none" stroke="#191970" d="M91.9269,-74.297C109.9402,-79.3161 130.8132,-85.1322 149.8236,-90.4292"/>
<polygon fill="#191970" stroke="#191970" points="92.8163,-70.9115 82.2438,-71.5989 90.9373,-77.6546 92.8163,-70.9115"/>
</g>
<!-- Node3 -->
<g id="node3" class="node">
<title>Node3</title>
<g id="a_node3"><a xlink:href="../../d7/df6/classRunAction.html#a08e19bb72296a55450ade98491302a33" target="_top" xlink:title="RunAction::RunAction">
<polygon fill="none" stroke="#000000" points="145,-51.5 145,-71.5 270,-71.5 270,-51.5 145,-51.5"/>
<text text-anchor="middle" x="207.5" y="-58.5" font-family="FreeSans" font-size="10.00" fill="#000000">RunAction::RunAction</text>
</a>
</g>
</g>
<!-- Node1&#45;&gt;Node3 -->
<g id="edge2" class="edge">
<title>Node1&#45;&gt;Node3</title>
<path fill="none" stroke="#191970" d="M102.5356,-61.5C116.248,-61.5 130.987,-61.5 144.9588,-61.5"/>
<polygon fill="#191970" stroke="#191970" points="102.2795,-58.0001 92.2794,-61.5 102.2794,-65.0001 102.2795,-58.0001"/>
</g>
<!-- Node4 -->
<g id="node4" class="node">
<title>Node4</title>
<g id="a_node4"><a xlink:href="../../d8/df4/classRunActionMaster.html#ab009e20e30ef8f8520b3bcad45ff252b" target="_top" xlink:title="RunActionMaster::RunAction\lMaster">
<polygon fill="none" stroke="#000000" points="128,-.5 128,-32.5 287,-32.5 287,-.5 128,-.5"/>
<text text-anchor="start" x="136" y="-19.5" font-family="FreeSans" font-size="10.00" fill="#000000">RunActionMaster::RunAction</text>
<text text-anchor="middle" x="207.5" y="-7.5" font-family="FreeSans" font-size="10.00" fill="#000000">Master</text>
</a>
</g>
</g>
<!-- Node1&#45;&gt;Node4 -->
<g id="edge3" class="edge">
<title>Node1&#45;&gt;Node4</title>
<path fill="none" stroke="#191970" d="M91.9269,-48.703C109.9402,-43.6839 130.8132,-37.8678 149.8236,-32.5708"/>
<polygon fill="#191970" stroke="#191970" points="90.9373,-45.3454 82.2438,-51.4011 92.8163,-52.0885 90.9373,-45.3454"/>
</g>
</g>
</svg>
