<?xml version="1.0" encoding="UTF-8" standalone="no"?>
<!DOCTYPE svg PUBLIC "-//W3C//DTD SVG 1.1//EN"
 "http://www.w3.org/Graphics/SVG/1.1/DTD/svg11.dtd">
<!-- Generated by graphviz version 2.40.1 (20161225.0304)
 -->
<!-- Title: CLHEP::HepRandom::saveEngineStatus Pages: 1 -->
<svg width="730pt" height="194pt"
 viewBox="0.00 0.00 730.00 194.00" xmlns="http://www.w3.org/2000/svg" xmlns:xlink="http://www.w3.org/1999/xlink">
<g id="graph0" class="graph" transform="scale(1 1) rotate(0) translate(4 190)">
<title>CLHEP::HepRandom::saveEngineStatus</title>
<!-- Node1 -->
<g id="node1" class="node">
<title>Node1</title>
<polygon fill="#bfbfbf" stroke="#000000" points="0,-51.5 0,-83.5 183,-83.5 183,-51.5 0,-51.5"/>
<text text-anchor="start" x="8" y="-70.5" font-family="FreeSans" font-size="10.00" fill="#000000">CLHEP::HepRandom::saveEngine</text>
<text text-anchor="middle" x="91.5" y="-58.5" font-family="FreeSans" font-size="10.00" fill="#000000">Status</text>
</g>
<!-- Node2 -->
<g id="node2" class="node">
<title>Node2</title>
<g id="a_node2"><a xlink:href="../../dc/d8b/classG4CascadeInterface.html#a3e0ff37200e59c01d332761f8840fde0" target="_top" xlink:title="G4CascadeInterface\l::ApplyYourself">
<polygon fill="none" stroke="#000000" points="220,-102.5 220,-134.5 338,-134.5 338,-102.5 220,-102.5"/>
<text text-anchor="start" x="228" y="-121.5" font-family="FreeSans" font-size="10.00" fill="#000000">G4CascadeInterface</text>
<text text-anchor="middle" x="279" y="-109.5" font-family="FreeSans" font-size="10.00" fill="#000000">::ApplyYourself</text>
</a>
</g>
</g>
<!-- Node1&#45;&gt;Node2 -->
<g id="edge1" class="edge">
<title>Node1&#45;&gt;Node2</title>
<path fill="none" stroke="#191970" d="M160.3265,-86.2208C179.8772,-91.5386 200.9873,-97.2806 219.9061,-102.4264"/>
<polygon fill="#191970" stroke="#191970" points="161.1369,-82.8141 150.5688,-83.5667 159.2996,-89.5687 161.1369,-82.8141"/>
</g>
<!-- Node7 -->
<g id="node7" class="node">
<title>Node7</title>
<g id="a_node7"><a xlink:href="../../de/dc6/classG4HadronicProcess.html#a078f53fdc259fb5d5821b46c1b5683b3" target="_top" xlink:title="G4HadronicProcess::\lPostStepDoIt">
<polygon fill="none" stroke="#000000" points="219,-51.5 219,-83.5 339,-83.5 339,-51.5 219,-51.5"/>
<text text-anchor="start" x="227" y="-70.5" font-family="FreeSans" font-size="10.00" fill="#000000">G4HadronicProcess::</text>
<text text-anchor="middle" x="279" y="-58.5" font-family="FreeSans" font-size="10.00" fill="#000000">PostStepDoIt</text>
</a>
</g>
</g>
<!-- Node1&#45;&gt;Node7 -->
<g id="edge6" class="edge">
<title>Node1&#45;&gt;Node7</title>
<path fill="none" stroke="#191970" d="M193.3214,-67.5C202.0474,-67.5 210.6795,-67.5 218.9123,-67.5"/>
<polygon fill="#191970" stroke="#191970" points="193.0529,-64.0001 183.0529,-67.5 193.0529,-71.0001 193.0529,-64.0001"/>
</g>
<!-- Node10 -->
<g id="node10" class="node">
<title>Node10</title>
<g id="a_node10"><a xlink:href="../../dc/d8b/classG4CascadeInterface.html#ab8f6e4c678c2908475a4bca6dbc7bcb1" target="_top" xlink:title="G4CascadeInterface\l::Propagate">
<polygon fill="none" stroke="#000000" points="220,-.5 220,-32.5 338,-32.5 338,-.5 220,-.5"/>
<text text-anchor="start" x="228" y="-19.5" font-family="FreeSans" font-size="10.00" fill="#000000">G4CascadeInterface</text>
<text text-anchor="middle" x="279" y="-7.5" font-family="FreeSans" font-size="10.00" fill="#000000">::Propagate</text>
</a>
</g>
</g>
<!-- Node1&#45;&gt;Node10 -->
<g id="edge9" class="edge">
<title>Node1&#45;&gt;Node10</title>
<path fill="none" stroke="#191970" d="M160.3265,-48.7792C179.8772,-43.4614 200.9873,-37.7194 219.9061,-32.5736"/>
<polygon fill="#191970" stroke="#191970" points="159.2996,-45.4313 150.5688,-51.4333 161.1369,-52.1859 159.2996,-45.4313"/>
</g>
<!-- Node3 -->
<g id="node3" class="node">
<title>Node3</title>
<g id="a_node3"><a xlink:href="../../d8/d6b/classG4ElectroVDNuclearModel.html#a15792692047f53ba39b7f7ad0332ac24" target="_top" xlink:title="G4ElectroVDNuclearModel\l::CalculateHadronicVertex">
<polygon fill="none" stroke="#000000" points="381.5,-153.5 381.5,-185.5 530.5,-185.5 530.5,-153.5 381.5,-153.5"/>
<text text-anchor="start" x="389.5" y="-172.5" font-family="FreeSans" font-size="10.00" fill="#000000">G4ElectroVDNuclearModel</text>
<text text-anchor="middle" x="456" y="-160.5" font-family="FreeSans" font-size="10.00" fill="#000000">::CalculateHadronicVertex</text>
</a>
</g>
</g>
<!-- Node2&#45;&gt;Node3 -->
<g id="edge2" class="edge">
<title>Node2&#45;&gt;Node3</title>
<path fill="none" stroke="#191970" d="M344.7142,-137.4346C363.0114,-142.7067 382.7029,-148.3805 400.3604,-153.4683"/>
<polygon fill="#191970" stroke="#191970" points="345.5821,-134.0423 335.0039,-134.6367 343.6439,-140.7687 345.5821,-134.0423"/>
</g>
<!-- Node5 -->
<g id="node5" class="node">
<title>Node5</title>
<g id="a_node5"><a xlink:href="../../d5/da9/classG4MuonVDNuclearModel.html#a9f20635edab81218a1833ad64c6a3729" target="_top" xlink:title="G4MuonVDNuclearModel\l::CalculateHadronicVertex">
<polygon fill="none" stroke="#000000" points="382,-102.5 382,-134.5 530,-134.5 530,-102.5 382,-102.5"/>
<text text-anchor="start" x="390" y="-121.5" font-family="FreeSans" font-size="10.00" fill="#000000">G4MuonVDNuclearModel</text>
<text text-anchor="middle" x="456" y="-109.5" font-family="FreeSans" font-size="10.00" fill="#000000">::CalculateHadronicVertex</text>
</a>
</g>
</g>
<!-- Node2&#45;&gt;Node5 -->
<g id="edge4" class="edge">
<title>Node2&#45;&gt;Node5</title>
<path fill="none" stroke="#191970" d="M348.7415,-118.5C359.647,-118.5 370.9508,-118.5 381.9486,-118.5"/>
<polygon fill="#191970" stroke="#191970" points="348.4309,-115.0001 338.4308,-118.5 348.4308,-122.0001 348.4309,-115.0001"/>
</g>
<!-- Node4 -->
<g id="node4" class="node">
<title>Node4</title>
<g id="a_node4"><a xlink:href="../../d8/d6b/classG4ElectroVDNuclearModel.html#aff2070bcaa641e29a7d5896bab279936" target="_top" xlink:title="G4ElectroVDNuclearModel\l::ApplyYourself">
<polygon fill="none" stroke="#000000" points="573,-153.5 573,-185.5 722,-185.5 722,-153.5 573,-153.5"/>
<text text-anchor="start" x="581" y="-172.5" font-family="FreeSans" font-size="10.00" fill="#000000">G4ElectroVDNuclearModel</text>
<text text-anchor="middle" x="647.5" y="-160.5" font-family="FreeSans" font-size="10.00" fill="#000000">::ApplyYourself</text>
</a>
</g>
</g>
<!-- Node3&#45;&gt;Node4 -->
<g id="edge3" class="edge">
<title>Node3&#45;&gt;Node4</title>
<path fill="none" stroke="#191970" d="M540.7512,-169.5C551.4299,-169.5 562.2935,-169.5 572.8013,-169.5"/>
<polygon fill="#191970" stroke="#191970" points="540.5873,-166.0001 530.5872,-169.5 540.5872,-173.0001 540.5873,-166.0001"/>
</g>
<!-- Node6 -->
<g id="node6" class="node">
<title>Node6</title>
<g id="a_node6"><a xlink:href="../../d5/da9/classG4MuonVDNuclearModel.html#a6e88b64afe9457368de2eb053dac08a6" target="_top" xlink:title="G4MuonVDNuclearModel\l::ApplyYourself">
<polygon fill="none" stroke="#000000" points="576.5,-102.5 576.5,-134.5 718.5,-134.5 718.5,-102.5 576.5,-102.5"/>
<text text-anchor="start" x="584.5" y="-121.5" font-family="FreeSans" font-size="10.00" fill="#000000">G4MuonVDNuclearModel</text>
<text text-anchor="middle" x="647.5" y="-109.5" font-family="FreeSans" font-size="10.00" fill="#000000">::ApplyYourself</text>
</a>
</g>
</g>
<!-- Node5&#45;&gt;Node6 -->
<g id="edge5" class="edge">
<title>Node5&#45;&gt;Node6</title>
<path fill="none" stroke="#191970" d="M540.1482,-118.5C552.2744,-118.5 564.6525,-118.5 576.489,-118.5"/>
<polygon fill="#191970" stroke="#191970" points="540.0389,-115.0001 530.0389,-118.5 540.0389,-122.0001 540.0389,-115.0001"/>
</g>
<!-- Node8 -->
<g id="node8" class="node">
<title>Node8</title>
<g id="a_node8"><a xlink:href="../../d2/d90/classBiasingOperation.html#a938ee9aa8198466e50a891f7e1ac6ae3" target="_top" xlink:title="BiasingOperation::ApplyFinal\lStateBiasing">
<polygon fill="none" stroke="#000000" points="375,-51.5 375,-83.5 537,-83.5 537,-51.5 375,-51.5"/>
<text text-anchor="start" x="383" y="-70.5" font-family="FreeSans" font-size="10.00" fill="#000000">BiasingOperation::ApplyFinal</text>
<text text-anchor="middle" x="456" y="-58.5" font-family="FreeSans" font-size="10.00" fill="#000000">StateBiasing</text>
</a>
</g>
</g>
<!-- Node7&#45;&gt;Node8 -->
<g id="edge7" class="edge">
<title>Node7&#45;&gt;Node8</title>
<path fill="none" stroke="#191970" d="M349.472,-67.5C357.8226,-67.5 366.3967,-67.5 374.8798,-67.5"/>
<polygon fill="#191970" stroke="#191970" points="349.4183,-64.0001 339.4183,-67.5 349.4183,-71.0001 349.4183,-64.0001"/>
</g>
<!-- Node9 -->
<g id="node9" class="node">
<title>Node9</title>
<g id="a_node9"><a xlink:href="../../dd/d59/classG4GammaGeneralProcess.html#a109631ecff68b05eb743ced15d3029a4" target="_top" xlink:title="G4GammaGeneralProcess\l::SampleSecondaries">
<polygon fill="none" stroke="#000000" points="381.5,-.5 381.5,-32.5 530.5,-32.5 530.5,-.5 381.5,-.5"/>
<text text-anchor="start" x="389.5" y="-19.5" font-family="FreeSans" font-size="10.00" fill="#000000">G4GammaGeneralProcess</text>
<text text-anchor="middle" x="456" y="-7.5" font-family="FreeSans" font-size="10.00" fill="#000000">::SampleSecondaries</text>
</a>
</g>
</g>
<!-- Node7&#45;&gt;Node9 -->
<g id="edge8" class="edge">
<title>Node7&#45;&gt;Node9</title>
<path fill="none" stroke="#191970" d="M344.7142,-48.5654C363.0114,-43.2933 382.7029,-37.6195 400.3604,-32.5317"/>
<polygon fill="#191970" stroke="#191970" points="343.6439,-45.2313 335.0039,-51.3633 345.5821,-51.9577 343.6439,-45.2313"/>
</g>
</g>
</svg>
