<?xml version="1.0" encoding="UTF-8" standalone="no"?>
<!DOCTYPE svg PUBLIC "-//W3C//DTD SVG 1.1//EN"
 "http://www.w3.org/Graphics/SVG/1.1/DTD/svg11.dtd">
<!-- Generated by graphviz version 2.40.1 (20161225.0304)
 -->
<!-- Title: G4RunManager::GetGeometryToBeOptimized Pages: 1 -->
<svg width="528pt" height="41pt"
 viewBox="0.00 0.00 528.00 41.00" xmlns="http://www.w3.org/2000/svg" xmlns:xlink="http://www.w3.org/1999/xlink">
<g id="graph0" class="graph" transform="scale(1 1) rotate(0) translate(4 37)">
<title>G4RunManager::GetGeometryToBeOptimized</title>
<!-- Node1 -->
<g id="node1" class="node">
<title>Node1</title>
<polygon fill="#bfbfbf" stroke="#000000" points="0,-.5 0,-32.5 169,-32.5 169,-.5 0,-.5"/>
<text text-anchor="start" x="8" y="-19.5" font-family="FreeSans" font-size="10.00" fill="#000000">G4RunManager::GetGeometry</text>
<text text-anchor="middle" x="84.5" y="-7.5" font-family="FreeSans" font-size="10.00" fill="#000000">ToBeOptimized</text>
</g>
<!-- Node2 -->
<g id="node2" class="node">
<title>Node2</title>
<g id="a_node2"><a xlink:href="../../dd/d36/pymodG4run_8cc.html#a40df4755f58bb0bd961be91b7372bd01" target="_top" xlink:title="export_G4RunManager">
<polygon fill="none" stroke="#000000" points="205,-6.5 205,-26.5 338,-26.5 338,-6.5 205,-6.5"/>
<text text-anchor="middle" x="271.5" y="-13.5" font-family="FreeSans" font-size="10.00" fill="#000000">export_G4RunManager</text>
</a>
</g>
</g>
<!-- Node1&#45;&gt;Node2 -->
<g id="edge1" class="edge">
<title>Node1&#45;&gt;Node2</title>
<path fill="none" stroke="#191970" d="M179.3846,-16.5C188.0302,-16.5 196.6601,-16.5 204.9784,-16.5"/>
<polygon fill="#191970" stroke="#191970" points="179.2458,-13.0001 169.2458,-16.5 179.2458,-20.0001 179.2458,-13.0001"/>
</g>
<!-- Node3 -->
<g id="node3" class="node">
<title>Node3</title>
<g id="a_node3"><a xlink:href="../../dd/d36/pymodG4run_8cc.html#a6d23b1bd4c250a6083c97cde722122ab" target="_top" xlink:title="BOOST_PYTHON_MODULE">
<polygon fill="none" stroke="#000000" points="374,-6.5 374,-26.5 520,-26.5 520,-6.5 374,-6.5"/>
<text text-anchor="middle" x="447" y="-13.5" font-family="FreeSans" font-size="10.00" fill="#000000">BOOST_PYTHON_MODULE</text>
</a>
</g>
</g>
<!-- Node2&#45;&gt;Node3 -->
<g id="edge2" class="edge">
<title>Node2&#45;&gt;Node3</title>
<path fill="none" stroke="#191970" d="M348.1062,-16.5C356.7046,-16.5 365.4481,-16.5 373.9992,-16.5"/>
<polygon fill="#191970" stroke="#191970" points="348.0993,-13.0001 338.0993,-16.5 348.0992,-20.0001 348.0993,-13.0001"/>
</g>
</g>
</svg>
