<?xml version="1.0" encoding="UTF-8" standalone="no"?>
<!DOCTYPE svg PUBLIC "-//W3C//DTD SVG 1.1//EN"
 "http://www.w3.org/Graphics/SVG/1.1/DTD/svg11.dtd">
<!-- Generated by graphviz version 2.40.1 (20161225.0304)
 -->
<!-- Title: G4VEmProcess::BuildPhysicsTable Pages: 1 -->
<svg width="370pt" height="143pt"
 viewBox="0.00 0.00 370.00 143.00" xmlns="http://www.w3.org/2000/svg" xmlns:xlink="http://www.w3.org/1999/xlink">
<g id="graph0" class="graph" transform="scale(1 1) rotate(0) translate(4 139)">
<title>G4VEmProcess::BuildPhysicsTable</title>
<!-- Node1 -->
<g id="node1" class="node">
<title>Node1</title>
<polygon fill="#bfbfbf" stroke="#000000" points="0,-51.5 0,-83.5 162,-83.5 162,-51.5 0,-51.5"/>
<text text-anchor="start" x="8" y="-70.5" font-family="FreeSans" font-size="10.00" fill="#000000">G4VEmProcess::BuildPhysics</text>
<text text-anchor="middle" x="81" y="-58.5" font-family="FreeSans" font-size="10.00" fill="#000000">Table</text>
</g>
<!-- Node2 -->
<g id="node2" class="node">
<title>Node2</title>
<g id="a_node2"><a xlink:href="../../db/da7/classG4eplusPolarizedAnnihilation.html#a597271f70dbcf4f4d23cde4b954aae62" target="_top" xlink:title="G4eplusPolarizedAnnihilation\l::BuildPhysicsTable">
<polygon fill="none" stroke="#000000" points="198,-102.5 198,-134.5 362,-134.5 362,-102.5 198,-102.5"/>
<text text-anchor="start" x="206" y="-121.5" font-family="FreeSans" font-size="10.00" fill="#000000">G4eplusPolarizedAnnihilation</text>
<text text-anchor="middle" x="280" y="-109.5" font-family="FreeSans" font-size="10.00" fill="#000000">::BuildPhysicsTable</text>
</a>
</g>
</g>
<!-- Node1&#45;&gt;Node2 -->
<g id="edge1" class="edge">
<title>Node1&#45;&gt;Node2</title>
<path fill="none" stroke="#191970" d="M153.4798,-86.0752C174.3883,-91.4337 197.0192,-97.2336 217.2816,-102.4264"/>
<polygon fill="#191970" stroke="#191970" points="154.2476,-82.6589 143.6917,-83.5667 152.5097,-89.4398 154.2476,-82.6589"/>
</g>
<!-- Node3 -->
<g id="node3" class="node">
<title>Node3</title>
<g id="a_node3"><a xlink:href="../../d1/d92/classG4PolarizedCompton.html#a69ca427d4c341e99c538c4d2d334b74e" target="_top" xlink:title="G4PolarizedCompton\l::BuildPhysicsTable">
<polygon fill="none" stroke="#000000" points="219,-51.5 219,-83.5 341,-83.5 341,-51.5 219,-51.5"/>
<text text-anchor="start" x="227" y="-70.5" font-family="FreeSans" font-size="10.00" fill="#000000">G4PolarizedCompton</text>
<text text-anchor="middle" x="280" y="-58.5" font-family="FreeSans" font-size="10.00" fill="#000000">::BuildPhysicsTable</text>
</a>
</g>
</g>
<!-- Node1&#45;&gt;Node3 -->
<g id="edge2" class="edge">
<title>Node1&#45;&gt;Node3</title>
<path fill="none" stroke="#191970" d="M172.4961,-67.5C188.2055,-67.5 204.1827,-67.5 218.8478,-67.5"/>
<polygon fill="#191970" stroke="#191970" points="172.228,-64.0001 162.2279,-67.5 172.2279,-71.0001 172.228,-64.0001"/>
</g>
<!-- Node4 -->
<g id="node4" class="node">
<title>Node4</title>
<g id="a_node4"><a xlink:href="../../dd/d59/classG4GammaGeneralProcess.html#a4474a28ad49b0e36cc173c865a26f16c" target="_top" xlink:title="G4GammaGeneralProcess\l::BuildPhysicsTable">
<polygon fill="none" stroke="#000000" points="205.5,-.5 205.5,-32.5 354.5,-32.5 354.5,-.5 205.5,-.5"/>
<text text-anchor="start" x="213.5" y="-19.5" font-family="FreeSans" font-size="10.00" fill="#000000">G4GammaGeneralProcess</text>
<text text-anchor="middle" x="280" y="-7.5" font-family="FreeSans" font-size="10.00" fill="#000000">::BuildPhysicsTable</text>
</a>
</g>
</g>
<!-- Node1&#45;&gt;Node4 -->
<g id="edge3" class="edge">
<title>Node1&#45;&gt;Node4</title>
<path fill="none" stroke="#191970" d="M153.4798,-48.9248C174.3883,-43.5663 197.0192,-37.7664 217.2816,-32.5736"/>
<polygon fill="#191970" stroke="#191970" points="152.5097,-45.5602 143.6917,-51.4333 154.2476,-52.3411 152.5097,-45.5602"/>
</g>
</g>
</svg>
