<?xml version="1.0" encoding="UTF-8" standalone="no"?>
<!DOCTYPE svg PUBLIC "-//W3C//DTD SVG 1.1//EN"
 "http://www.w3.org/Graphics/SVG/1.1/DTD/svg11.dtd">
<!-- Generated by graphviz version 2.40.1 (20161225.0304)
 -->
<!-- Title: PrimaryGeneratorAction1::GeneratePrimaries Pages: 1 -->
<svg width="755pt" height="760pt"
 viewBox="0.00 0.00 755.00 760.00" xmlns="http://www.w3.org/2000/svg" xmlns:xlink="http://www.w3.org/1999/xlink">
<g id="graph0" class="graph" transform="scale(1 1) rotate(0) translate(4 756)">
<title>PrimaryGeneratorAction1::GeneratePrimaries</title>
<!-- Node1 -->
<g id="node1" class="node">
<title>Node1</title>
<polygon fill="#bfbfbf" stroke="#000000" points="0,-141.5 0,-173.5 144,-173.5 144,-141.5 0,-141.5"/>
<text text-anchor="start" x="8" y="-160.5" font-family="FreeSans" font-size="10.00" fill="#000000">PrimaryGeneratorAction1</text>
<text text-anchor="middle" x="72" y="-148.5" font-family="FreeSans" font-size="10.00" fill="#000000">::GeneratePrimaries</text>
</g>
<!-- Node2 -->
<g id="node2" class="node">
<title>Node2</title>
<g id="a_node2"><a xlink:href="../../dc/ded/classG4ParticleGun.html#ae379db98a1089954ae61be18581b3042" target="_top" xlink:title="G4ParticleGun::GeneratePrimary\lVertex">
<polygon fill="none" stroke="#000000" points="180,-443.5 180,-475.5 362,-475.5 362,-443.5 180,-443.5"/>
<text text-anchor="start" x="188" y="-462.5" font-family="FreeSans" font-size="10.00" fill="#000000">G4ParticleGun::GeneratePrimary</text>
<text text-anchor="middle" x="271" y="-450.5" font-family="FreeSans" font-size="10.00" fill="#000000">Vertex</text>
</a>
</g>
</g>
<!-- Node1&#45;&gt;Node2 -->
<g id="edge1" class="edge">
<title>Node1&#45;&gt;Node2</title>
<path fill="none" stroke="#191970" d="M82.6991,-173.7368C115.5649,-223.6135 215.213,-374.8384 254.6653,-434.7106"/>
<polygon fill="#191970" stroke="#191970" points="251.8231,-436.7585 260.248,-443.1829 257.6683,-432.9069 251.8231,-436.7585"/>
</g>
<!-- Node17 -->
<g id="node17" class="node">
<title>Node17</title>
<g id="a_node17"><a xlink:href="../../de/dbd/classG4PrimaryVertex.html#aef92aa1b596ca8e814b5b6a8ed384e61" target="_top" xlink:title="G4PrimaryVertex::GetNext">
<polygon fill="none" stroke="#000000" points="405,-192.5 405,-212.5 555,-212.5 555,-192.5 405,-192.5"/>
<text text-anchor="middle" x="480" y="-199.5" font-family="FreeSans" font-size="10.00" fill="#000000">G4PrimaryVertex::GetNext</text>
</a>
</g>
</g>
<!-- Node1&#45;&gt;Node17 -->
<g id="edge21" class="edge">
<title>Node1&#45;&gt;Node17</title>
<path fill="none" stroke="#191970" d="M130.4903,-173.5308C146.4389,-177.3664 163.7906,-181.0544 180,-183.5 251.8309,-194.3376 334.2429,-199.0069 394.4924,-201.0117"/>
<polygon fill="#191970" stroke="#191970" points="394.6149,-204.5172 404.7201,-201.3336 394.8351,-197.5207 394.6149,-204.5172"/>
</g>
<!-- Node18 -->
<g id="node18" class="node">
<title>Node18</title>
<g id="a_node18"><a xlink:href="../../d5/de2/classG4Event.html#ac9a0e25053307cc271ff3fd1d1bb36fc" target="_top" xlink:title="G4Event::GetPrimaryVertex">
<polygon fill="none" stroke="#000000" points="193,-231.5 193,-251.5 349,-251.5 349,-231.5 193,-231.5"/>
<text text-anchor="middle" x="271" y="-238.5" font-family="FreeSans" font-size="10.00" fill="#000000">G4Event::GetPrimaryVertex</text>
</a>
</g>
</g>
<!-- Node1&#45;&gt;Node18 -->
<g id="edge22" class="edge">
<title>Node1&#45;&gt;Node18</title>
<path fill="none" stroke="#191970" d="M97.3613,-173.5541C118.7408,-186.5422 150.4845,-204.5722 180,-216.5 191.6266,-221.1986 204.4354,-225.3223 216.6802,-228.7949"/>
<polygon fill="#191970" stroke="#191970" points="215.7768,-232.1763 226.346,-231.4389 217.6238,-225.4244 215.7768,-232.1763"/>
</g>
<!-- Node19 -->
<g id="node19" class="node">
<title>Node19</title>
<g id="a_node19"><a xlink:href="../../dc/ded/classG4ParticleGun.html#acffc63776206ba551cdc941ff690a21d" target="_top" xlink:title="G4ParticleGun::SetParticle\lEnergy">
<polygon fill="none" stroke="#000000" points="196.5,-141.5 196.5,-173.5 345.5,-173.5 345.5,-141.5 196.5,-141.5"/>
<text text-anchor="start" x="204.5" y="-160.5" font-family="FreeSans" font-size="10.00" fill="#000000">G4ParticleGun::SetParticle</text>
<text text-anchor="middle" x="271" y="-148.5" font-family="FreeSans" font-size="10.00" fill="#000000">Energy</text>
</a>
</g>
</g>
<!-- Node1&#45;&gt;Node19 -->
<g id="edge24" class="edge">
<title>Node1&#45;&gt;Node19</title>
<path fill="none" stroke="#191970" d="M144.1249,-157.5C157.8194,-157.5 172.2641,-157.5 186.3063,-157.5"/>
<polygon fill="#191970" stroke="#191970" points="186.4437,-161.0001 196.4437,-157.5 186.4436,-154.0001 186.4437,-161.0001"/>
</g>
<!-- Node21 -->
<g id="node21" class="node">
<title>Node21</title>
<g id="a_node21"><a xlink:href="../../dc/ded/classG4ParticleGun.html#a1cf3f060ee960071bfb26fcb3bed63b7" target="_top" xlink:title="G4ParticleGun::SetParticle\lMomentumDirection">
<polygon fill="none" stroke="#000000" points="196.5,-90.5 196.5,-122.5 345.5,-122.5 345.5,-90.5 196.5,-90.5"/>
<text text-anchor="start" x="204.5" y="-109.5" font-family="FreeSans" font-size="10.00" fill="#000000">G4ParticleGun::SetParticle</text>
<text text-anchor="middle" x="271" y="-97.5" font-family="FreeSans" font-size="10.00" fill="#000000">MomentumDirection</text>
</a>
</g>
</g>
<!-- Node1&#45;&gt;Node21 -->
<g id="edge26" class="edge">
<title>Node1&#45;&gt;Node21</title>
<path fill="none" stroke="#191970" d="M134.6917,-141.4333C154.9521,-136.2409 177.5827,-130.4411 198.4927,-125.0823"/>
<polygon fill="#191970" stroke="#191970" points="199.4636,-128.4466 208.2816,-122.5736 197.7258,-121.6658 199.4636,-128.4466"/>
</g>
<!-- Node23 -->
<g id="node23" class="node">
<title>Node23</title>
<g id="a_node23"><a xlink:href="../../db/d9d/classG4VPrimaryGenerator.html#aec08e7aabccac4a0c0089cc49178e59c" target="_top" xlink:title="G4VPrimaryGenerator\l::SetParticlePosition">
<polygon fill="none" stroke="#000000" points="207,-39.5 207,-71.5 335,-71.5 335,-39.5 207,-39.5"/>
<text text-anchor="start" x="215" y="-58.5" font-family="FreeSans" font-size="10.00" fill="#000000">G4VPrimaryGenerator</text>
<text text-anchor="middle" x="271" y="-46.5" font-family="FreeSans" font-size="10.00" fill="#000000">::SetParticlePosition</text>
</a>
</g>
</g>
<!-- Node1&#45;&gt;Node23 -->
<g id="edge28" class="edge">
<title>Node1&#45;&gt;Node23</title>
<path fill="none" stroke="#191970" d="M90.2299,-141.412C110.7383,-124.0844 145.6844,-96.8123 180,-80.5 185.4033,-77.9315 191.1166,-75.5871 196.9416,-73.4551"/>
<polygon fill="#191970" stroke="#191970" points="198.4933,-76.623 206.815,-70.0656 196.2204,-70.0022 198.4933,-76.623"/>
</g>
<!-- Node24 -->
<g id="node24" class="node">
<title>Node24</title>
<g id="a_node24"><a xlink:href="../../de/dbd/classG4PrimaryVertex.html#ae75a5e6f4620456205efea76ed8f0232" target="_top" xlink:title="G4PrimaryVertex::SetT0">
<polygon fill="none" stroke="#000000" points="202,-.5 202,-20.5 340,-20.5 340,-.5 202,-.5"/>
<text text-anchor="middle" x="271" y="-7.5" font-family="FreeSans" font-size="10.00" fill="#000000">G4PrimaryVertex::SetT0</text>
</a>
</g>
</g>
<!-- Node1&#45;&gt;Node24 -->
<g id="edge29" class="edge">
<title>Node1&#45;&gt;Node24</title>
<path fill="none" stroke="#191970" d="M80.8757,-141.1318C96.8162,-113.4087 133.0566,-57.5047 180,-29.5 183.8462,-27.2055 187.9279,-25.1852 192.1487,-23.4065"/>
<polygon fill="#191970" stroke="#191970" points="193.4306,-26.664 201.5739,-19.8863 190.9814,-20.1064 193.4306,-26.664"/>
</g>
<!-- Node3 -->
<g id="node3" class="node">
<title>Node3</title>
<g id="a_node3"><a xlink:href="../../d5/de2/classG4Event.html#aabf700be265d0bc4d4f9f273f061145d" target="_top" xlink:title="G4Event::AddPrimaryVertex">
<polygon fill="none" stroke="#000000" points="401.5,-488.5 401.5,-508.5 558.5,-508.5 558.5,-488.5 401.5,-488.5"/>
<text text-anchor="middle" x="480" y="-495.5" font-family="FreeSans" font-size="10.00" fill="#000000">G4Event::AddPrimaryVertex</text>
</a>
</g>
</g>
<!-- Node2&#45;&gt;Node3 -->
<g id="edge2" class="edge">
<title>Node2&#45;&gt;Node3</title>
<path fill="none" stroke="#191970" d="M356.9131,-475.5316C376.7637,-479.2358 397.539,-483.1125 416.2481,-486.6037"/>
<polygon fill="#191970" stroke="#191970" points="415.6455,-490.0516 426.1179,-488.4454 416.9296,-483.1704 415.6455,-490.0516"/>
</g>
<!-- Node5 -->
<g id="node5" class="node">
<title>Node5</title>
<g id="a_node5"><a xlink:href="../../d5/d4f/G4Exception_8hh.html#ad36b5da5d062a20ca47b1c1f1ae353dd" target="_top" xlink:title="G4Exception">
<polygon fill="none" stroke="#000000" points="440,-282.5 440,-302.5 520,-302.5 520,-282.5 440,-282.5"/>
<text text-anchor="middle" x="480" y="-289.5" font-family="FreeSans" font-size="10.00" fill="#000000">G4Exception</text>
</a>
</g>
</g>
<!-- Node2&#45;&gt;Node5 -->
<g id="edge5" class="edge">
<title>Node2&#45;&gt;Node5</title>
<path fill="none" stroke="#191970" d="M281.1088,-443.263C300.2714,-413.816 344.7651,-351.5104 398,-317.5 407.7004,-311.3026 419.0243,-306.5681 430.1051,-302.9781"/>
<polygon fill="#191970" stroke="#191970" points="431.1488,-306.3192 439.7334,-300.1098 429.1503,-299.6105 431.1488,-306.3192"/>
</g>
<!-- Node6 -->
<g id="node6" class="node">
<title>Node6</title>
<g id="a_node6"><a xlink:href="../../d5/d38/classG4ParticleDefinition.html#ad823b2f7c489766de74c562e2a3909bf" target="_top" xlink:title="G4ParticleDefinition\l::GetPDGMass">
<polygon fill="none" stroke="#000000" points="422,-231.5 422,-263.5 538,-263.5 538,-231.5 422,-231.5"/>
<text text-anchor="start" x="430" y="-250.5" font-family="FreeSans" font-size="10.00" fill="#000000">G4ParticleDefinition</text>
<text text-anchor="middle" x="480" y="-238.5" font-family="FreeSans" font-size="10.00" fill="#000000">::GetPDGMass</text>
</a>
</g>
</g>
<!-- Node2&#45;&gt;Node6 -->
<g id="edge6" class="edge">
<title>Node2&#45;&gt;Node6</title>
<path fill="none" stroke="#191970" d="M277.564,-443.3914C293.0302,-407.4404 335.2454,-320.1629 398,-273.5 402.4193,-270.2139 407.2668,-267.335 412.3275,-264.8143"/>
<polygon fill="#191970" stroke="#191970" points="413.9242,-267.9342 421.6205,-260.653 411.0633,-261.5455 413.9242,-267.9342"/>
</g>
<!-- Node7 -->
<g id="node7" class="node">
<title>Node7</title>
<g id="a_node7"><a xlink:href="../../df/d7e/classG4PrimaryParticle.html#a2c742ead33c25cd673e069fe99dd57d1" target="_top" xlink:title="G4PrimaryParticle::\lSetCharge">
<polygon fill="none" stroke="#000000" points="423.5,-719.5 423.5,-751.5 536.5,-751.5 536.5,-719.5 423.5,-719.5"/>
<text text-anchor="start" x="431.5" y="-738.5" font-family="FreeSans" font-size="10.00" fill="#000000">G4PrimaryParticle::</text>
<text text-anchor="middle" x="480" y="-726.5" font-family="FreeSans" font-size="10.00" fill="#000000">SetCharge</text>
</a>
</g>
</g>
<!-- Node2&#45;&gt;Node7 -->
<g id="edge7" class="edge">
<title>Node2&#45;&gt;Node7</title>
<path fill="none" stroke="#191970" d="M274.5202,-475.7686C285.0044,-520.2854 320.2513,-645.1257 398,-710.5 402.7843,-714.5229 408.206,-717.8987 413.927,-720.7314"/>
<polygon fill="#191970" stroke="#191970" points="412.5506,-723.9495 423.1151,-724.7508 415.3561,-717.5363 412.5506,-723.9495"/>
</g>
<!-- Node8 -->
<g id="node8" class="node">
<title>Node8</title>
<g id="a_node8"><a xlink:href="../../df/d7e/classG4PrimaryParticle.html#a6bf5d884c9134b54923afa830ab0cae4" target="_top" xlink:title="G4PrimaryParticle::\lSetKineticEnergy">
<polygon fill="none" stroke="#000000" points="423.5,-668.5 423.5,-700.5 536.5,-700.5 536.5,-668.5 423.5,-668.5"/>
<text text-anchor="start" x="431.5" y="-687.5" font-family="FreeSans" font-size="10.00" fill="#000000">G4PrimaryParticle::</text>
<text text-anchor="middle" x="480" y="-675.5" font-family="FreeSans" font-size="10.00" fill="#000000">SetKineticEnergy</text>
</a>
</g>
</g>
<!-- Node2&#45;&gt;Node8 -->
<g id="edge8" class="edge">
<title>Node2&#45;&gt;Node8</title>
<path fill="none" stroke="#191970" d="M276.7428,-475.7265C291.0336,-513.7499 331.8816,-609.1862 398,-659.5 402.7801,-663.1375 408.0911,-666.2494 413.6467,-668.9111"/>
<polygon fill="#191970" stroke="#191970" points="412.6057,-672.2722 423.177,-672.9787 415.3536,-665.8341 412.6057,-672.2722"/>
</g>
<!-- Node9 -->
<g id="node9" class="node">
<title>Node9</title>
<g id="a_node9"><a xlink:href="../../df/d7e/classG4PrimaryParticle.html#a9a1323191192c663fffe38cbefa315b1" target="_top" xlink:title="G4PrimaryParticle::\lSetMass">
<polygon fill="none" stroke="#000000" points="423.5,-617.5 423.5,-649.5 536.5,-649.5 536.5,-617.5 423.5,-617.5"/>
<text text-anchor="start" x="431.5" y="-636.5" font-family="FreeSans" font-size="10.00" fill="#000000">G4PrimaryParticle::</text>
<text text-anchor="middle" x="480" y="-624.5" font-family="FreeSans" font-size="10.00" fill="#000000">SetMass</text>
</a>
</g>
</g>
<!-- Node2&#45;&gt;Node9 -->
<g id="edge9" class="edge">
<title>Node2&#45;&gt;Node9</title>
<path fill="none" stroke="#191970" d="M280.3219,-475.5939C298.8168,-506.1061 343.1436,-572.5258 398,-608.5 402.9432,-611.7417 408.3265,-614.5793 413.8942,-617.0601"/>
<polygon fill="#191970" stroke="#191970" points="412.8107,-620.3974 423.3933,-620.9068 415.4381,-613.9092 412.8107,-620.3974"/>
</g>
<!-- Node10 -->
<g id="node10" class="node">
<title>Node10</title>
<g id="a_node10"><a xlink:href="../../df/d7e/classG4PrimaryParticle.html#a95efb520a8f56abc60d22d891822ab4d" target="_top" xlink:title="G4PrimaryParticle::\lSetMomentumDirection">
<polygon fill="none" stroke="#000000" points="412.5,-566.5 412.5,-598.5 547.5,-598.5 547.5,-566.5 412.5,-566.5"/>
<text text-anchor="start" x="420.5" y="-585.5" font-family="FreeSans" font-size="10.00" fill="#000000">G4PrimaryParticle::</text>
<text text-anchor="middle" x="480" y="-573.5" font-family="FreeSans" font-size="10.00" fill="#000000">SetMomentumDirection</text>
</a>
</g>
</g>
<!-- Node2&#45;&gt;Node10 -->
<g id="edge10" class="edge">
<title>Node2&#45;&gt;Node10</title>
<path fill="none" stroke="#191970" d="M287.6956,-475.642C310.7514,-497.1264 354.4459,-535.0148 398,-557.5 401.5438,-559.3295 405.2442,-561.05 409.0295,-562.6641"/>
<polygon fill="#191970" stroke="#191970" points="407.9874,-566.0162 418.573,-566.459 410.574,-559.5116 407.9874,-566.0162"/>
</g>
<!-- Node11 -->
<g id="node11" class="node">
<title>Node11</title>
<g id="a_node11"><a xlink:href="../../df/d7e/classG4PrimaryParticle.html#a53b70d9a9f83c52bbbc267f2b458c8ed" target="_top" xlink:title="G4PrimaryParticle::\lSetPolarization">
<polygon fill="none" stroke="#000000" points="423.5,-360.5 423.5,-392.5 536.5,-392.5 536.5,-360.5 423.5,-360.5"/>
<text text-anchor="start" x="431.5" y="-379.5" font-family="FreeSans" font-size="10.00" fill="#000000">G4PrimaryParticle::</text>
<text text-anchor="middle" x="480" y="-367.5" font-family="FreeSans" font-size="10.00" fill="#000000">SetPolarization</text>
</a>
</g>
</g>
<!-- Node2&#45;&gt;Node11 -->
<g id="edge11" class="edge">
<title>Node2&#45;&gt;Node11</title>
<path fill="none" stroke="#191970" d="M309.5176,-443.411C334.64,-432.9959 368.1823,-419.2382 398,-407.5 407.4529,-403.7787 417.5512,-399.8905 427.3155,-396.1753"/>
<polygon fill="#191970" stroke="#191970" points="428.8219,-399.3474 436.9324,-392.5304 426.341,-392.8017 428.8219,-399.3474"/>
</g>
<!-- Node12 -->
<g id="node12" class="node">
<title>Node12</title>
<g id="a_node12"><a xlink:href="../../da/dcf/classCLHEP_1_1Hep3Vector.html#a86646a7299d9b55d1ee3a27b578d30ec" target="_top" xlink:title="CLHEP::Hep3Vector::x">
<polygon fill="none" stroke="#000000" points="609,-371.5 609,-391.5 736,-391.5 736,-371.5 609,-371.5"/>
<text text-anchor="middle" x="672.5" y="-378.5" font-family="FreeSans" font-size="10.00" fill="#000000">CLHEP::Hep3Vector::x</text>
</a>
</g>
</g>
<!-- Node2&#45;&gt;Node12 -->
<g id="edge18" class="edge">
<title>Node2&#45;&gt;Node12</title>
<path fill="none" stroke="#191970" d="M353.7042,-443.4329C430.174,-428.577 542.0864,-406.8356 610.952,-393.457"/>
<polygon fill="#191970" stroke="#191970" points="611.6419,-396.8885 620.7908,-391.5456 610.3069,-390.017 611.6419,-396.8885"/>
</g>
<!-- Node13 -->
<g id="node13" class="node">
<title>Node13</title>
<g id="a_node13"><a xlink:href="../../da/dcf/classCLHEP_1_1Hep3Vector.html#a86ef096e76d7db9e0ea8e10eb742a576" target="_top" xlink:title="CLHEP::Hep3Vector::y">
<polygon fill="none" stroke="#000000" points="609,-329.5 609,-349.5 736,-349.5 736,-329.5 609,-329.5"/>
<text text-anchor="middle" x="672.5" y="-336.5" font-family="FreeSans" font-size="10.00" fill="#000000">CLHEP::Hep3Vector::y</text>
</a>
</g>
</g>
<!-- Node2&#45;&gt;Node13 -->
<g id="edge19" class="edge">
<title>Node2&#45;&gt;Node13</title>
<path fill="none" stroke="#191970" d="M283.7237,-443.296C304.5085,-418.2429 348.43,-370.9666 398,-351.5 462.3995,-326.2097 541.94,-325.7248 598.7924,-330.0555"/>
<polygon fill="#191970" stroke="#191970" points="598.5244,-333.5452 608.7794,-330.8834 599.1027,-326.5692 598.5244,-333.5452"/>
</g>
<!-- Node14 -->
<g id="node14" class="node">
<title>Node14</title>
<g id="a_node14"><a xlink:href="../../da/dcf/classCLHEP_1_1Hep3Vector.html#a2dcfdfeae86f250117ea40f086bb231a" target="_top" xlink:title="CLHEP::Hep3Vector::z">
<polygon fill="none" stroke="#000000" points="609.5,-427.5 609.5,-447.5 735.5,-447.5 735.5,-427.5 609.5,-427.5"/>
<text text-anchor="middle" x="672.5" y="-434.5" font-family="FreeSans" font-size="10.00" fill="#000000">CLHEP::Hep3Vector::z</text>
</a>
</g>
</g>
<!-- Node2&#45;&gt;Node14 -->
<g id="edge20" class="edge">
<title>Node2&#45;&gt;Node14</title>
<path fill="none" stroke="#191970" d="M362.1066,-454.5079C433.849,-450.5768 532.5409,-445.169 599.2254,-441.515"/>
<polygon fill="#191970" stroke="#191970" points="599.4406,-445.0086 609.2341,-440.9666 599.0575,-438.0191 599.4406,-445.0086"/>
</g>
<!-- Node15 -->
<g id="node15" class="node">
<title>Node15</title>
<g id="a_node15"><a xlink:href="../../de/dbd/classG4PrimaryVertex.html#ab3554dca89ed5a3ad41fac6d16a71796" target="_top" xlink:title="G4PrimaryVertex::SetPrimary">
<polygon fill="none" stroke="#000000" points="398,-527.5 398,-547.5 562,-547.5 562,-527.5 398,-527.5"/>
<text text-anchor="middle" x="480" y="-534.5" font-family="FreeSans" font-size="10.00" fill="#000000">G4PrimaryVertex::SetPrimary</text>
</a>
</g>
</g>
<!-- Node2&#45;&gt;Node15 -->
<g id="edge15" class="edge">
<title>Node2&#45;&gt;Node15</title>
<path fill="none" stroke="#191970" d="M301.0606,-475.6301C326.3427,-488.6635 363.7453,-506.7173 398,-518.5 404.8402,-520.8529 412.101,-523.0062 419.364,-524.9492"/>
<polygon fill="#191970" stroke="#191970" points="418.6751,-528.3855 429.2301,-527.4673 420.4063,-521.6029 418.6751,-528.3855"/>
</g>
<!-- Node4 -->
<g id="node4" class="node">
<title>Node4</title>
<g id="a_node4"><a xlink:href="../../de/dbd/classG4PrimaryVertex.html#a2ecd1d312d0f77ab258341007472e53c" target="_top" xlink:title="G4PrimaryVertex::SetNext">
<polygon fill="none" stroke="#000000" points="598,-476.5 598,-496.5 747,-496.5 747,-476.5 598,-476.5"/>
<text text-anchor="middle" x="672.5" y="-483.5" font-family="FreeSans" font-size="10.00" fill="#000000">G4PrimaryVertex::SetNext</text>
</a>
</g>
</g>
<!-- Node3&#45;&gt;Node4 -->
<g id="edge3" class="edge">
<title>Node3&#45;&gt;Node4</title>
<path fill="none" stroke="#191970" d="M558.5748,-493.6018C568.2196,-493.0006 578.1097,-492.3841 587.8395,-491.7775"/>
<polygon fill="#191970" stroke="#191970" points="588.1411,-495.2656 597.9039,-491.1501 587.7055,-488.2792 588.1411,-495.2656"/>
</g>
<!-- Node4&#45;&gt;Node4 -->
<g id="edge4" class="edge">
<title>Node4&#45;&gt;Node4</title>
<path fill="none" stroke="#191970" d="M642.4414,-496.7271C628.7305,-505.6067 638.75,-515 672.5,-515 695.7031,-515 707.6899,-510.5602 708.4603,-504.8999"/>
<polygon fill="#191970" stroke="#191970" points="711.2505,-502.7853 702.5586,-496.7271 705.5755,-506.8833 711.2505,-502.7853"/>
</g>
<!-- Node11&#45;&gt;Node12 -->
<g id="edge12" class="edge">
<title>Node11&#45;&gt;Node12</title>
<path fill="none" stroke="#191970" d="M536.7152,-377.9731C556.0696,-378.4758 578.0055,-379.0456 598.5144,-379.5783"/>
<polygon fill="#191970" stroke="#191970" points="598.6803,-383.0837 608.7679,-379.8446 598.8622,-376.0861 598.6803,-383.0837"/>
</g>
<!-- Node11&#45;&gt;Node13 -->
<g id="edge13" class="edge">
<title>Node11&#45;&gt;Node13</title>
<path fill="none" stroke="#191970" d="M536.7152,-365.5989C559.9079,-361.1411 586.8075,-355.9708 610.5166,-351.4137"/>
<polygon fill="#191970" stroke="#191970" points="611.3026,-354.8268 620.4622,-349.5021 609.9813,-347.9526 611.3026,-354.8268"/>
</g>
<!-- Node11&#45;&gt;Node14 -->
<g id="edge14" class="edge">
<title>Node11&#45;&gt;Node14</title>
<path fill="none" stroke="#191970" d="M530.5771,-392.527C562.0028,-402.4853 601.8848,-415.1232 631.3637,-424.4646"/>
<polygon fill="#191970" stroke="#191970" points="630.3447,-427.8132 640.9348,-427.4975 632.4593,-421.1402 630.3447,-427.8132"/>
</g>
<!-- Node16 -->
<g id="node16" class="node">
<title>Node16</title>
<g id="a_node16"><a xlink:href="../../df/d7e/classG4PrimaryParticle.html#a5cc6ce76c958eaaccd8621cbf5328d69" target="_top" xlink:title="G4PrimaryParticle::\lSetNext">
<polygon fill="none" stroke="#000000" points="616,-533.5 616,-565.5 729,-565.5 729,-533.5 616,-533.5"/>
<text text-anchor="start" x="624" y="-552.5" font-family="FreeSans" font-size="10.00" fill="#000000">G4PrimaryParticle::</text>
<text text-anchor="middle" x="672.5" y="-540.5" font-family="FreeSans" font-size="10.00" fill="#000000">SetNext</text>
</a>
</g>
</g>
<!-- Node15&#45;&gt;Node16 -->
<g id="edge16" class="edge">
<title>Node15&#45;&gt;Node16</title>
<path fill="none" stroke="#191970" d="M562.1957,-542.6239C576.7505,-543.5312 591.7435,-544.4658 605.8045,-545.3424"/>
<polygon fill="#191970" stroke="#191970" points="605.6604,-548.8401 615.8589,-545.9691 606.096,-541.8536 605.6604,-548.8401"/>
</g>
<!-- Node16&#45;&gt;Node16 -->
<g id="edge17" class="edge">
<title>Node16&#45;&gt;Node16</title>
<path fill="none" stroke="#191970" d="M638.4775,-565.8274C631.5342,-575.2388 642.875,-584 672.5,-584 690.5527,-584 701.8159,-580.7466 706.2894,-576.0753"/>
<polygon fill="#191970" stroke="#191970" points="709.7941,-575.9045 706.5225,-565.8274 702.7959,-575.7452 709.7941,-575.9045"/>
</g>
<!-- Node18&#45;&gt;Node17 -->
<g id="edge23" class="edge">
<title>Node18&#45;&gt;Node17</title>
<path fill="none" stroke="#191970" d="M324.8227,-231.4565C352.7361,-226.2478 387.0146,-219.8513 416.2484,-214.3962"/>
<polygon fill="#191970" stroke="#191970" points="417.1714,-217.7845 426.3597,-212.5094 415.8873,-210.9033 417.1714,-217.7845"/>
</g>
<!-- Node20 -->
<g id="node20" class="node">
<title>Node20</title>
<g id="a_node20"><a xlink:href="../../d5/d38/classG4ParticleDefinition.html#a02a571907ec0c42bf356545826d9234f" target="_top" xlink:title="G4ParticleDefinition\l::GetParticleName">
<polygon fill="none" stroke="#000000" points="422,-141.5 422,-173.5 538,-173.5 538,-141.5 422,-141.5"/>
<text text-anchor="start" x="430" y="-160.5" font-family="FreeSans" font-size="10.00" fill="#000000">G4ParticleDefinition</text>
<text text-anchor="middle" x="480" y="-148.5" font-family="FreeSans" font-size="10.00" fill="#000000">::GetParticleName</text>
</a>
</g>
</g>
<!-- Node19&#45;&gt;Node20 -->
<g id="edge25" class="edge">
<title>Node19&#45;&gt;Node20</title>
<path fill="none" stroke="#191970" d="M345.5686,-157.5C367.128,-157.5 390.5436,-157.5 411.7005,-157.5"/>
<polygon fill="#191970" stroke="#191970" points="411.8871,-161.0001 421.8871,-157.5 411.887,-154.0001 411.8871,-161.0001"/>
</g>
<!-- Node22 -->
<g id="node22" class="node">
<title>Node22</title>
<g id="a_node22"><a xlink:href="../../da/dcf/classCLHEP_1_1Hep3Vector.html#ae4a83ec7ab138bcf10beda58dfa76baf" target="_top" xlink:title="CLHEP::Hep3Vector::unit">
<polygon fill="none" stroke="#000000" points="409.5,-96.5 409.5,-116.5 550.5,-116.5 550.5,-96.5 409.5,-96.5"/>
<text text-anchor="middle" x="480" y="-103.5" font-family="FreeSans" font-size="10.00" fill="#000000">CLHEP::Hep3Vector::unit</text>
</a>
</g>
</g>
<!-- Node21&#45;&gt;Node22 -->
<g id="edge27" class="edge">
<title>Node21&#45;&gt;Node22</title>
<path fill="none" stroke="#191970" d="M345.5686,-106.5C362.9141,-106.5 381.4612,-106.5 399.0667,-106.5"/>
<polygon fill="#191970" stroke="#191970" points="399.3076,-110.0001 409.3076,-106.5 399.3076,-103.0001 399.3076,-110.0001"/>
</g>
</g>
</svg>
