<?xml version="1.0" encoding="UTF-8" standalone="no"?>
<!DOCTYPE svg PUBLIC "-//W3C//DTD SVG 1.1//EN"
 "http://www.w3.org/Graphics/SVG/1.1/DTD/svg11.dtd">
<!-- Generated by graphviz version 2.40.1 (20161225.0304)
 -->
<!-- Title: CexmcPhysicsList&lt; BasePhysics, StudiedPhysics, ProductionModel &gt; Pages: 1 -->
<svg width="1980pt" height="564pt"
 viewBox="0.00 0.00 1980.00 564.00" xmlns="http://www.w3.org/2000/svg" xmlns:xlink="http://www.w3.org/1999/xlink">
<g id="graph0" class="graph" transform="scale(1 1) rotate(0) translate(4 560)">
<title>CexmcPhysicsList&lt; BasePhysics, StudiedPhysics, ProductionModel &gt;</title>
<!-- Node1 -->
<g id="node1" class="node">
<title>Node1</title>
<polygon fill="#bfbfbf" stroke="#000000" points="1774,-470.5 1774,-502.5 1972,-502.5 1972,-470.5 1774,-470.5"/>
<text text-anchor="start" x="1782" y="-489.5" font-family="FreeSans" font-size="10.00" fill="#000000">CexmcPhysicsList&lt; BasePhysics,</text>
<text text-anchor="middle" x="1873" y="-477.5" font-family="FreeSans" font-size="10.00" fill="#000000"> StudiedPhysics, ProductionModel &gt;</text>
</g>
<!-- Node2 -->
<g id="node2" class="node">
<title>Node2</title>
<polygon fill="none" stroke="#bfbfbf" points="1513,-535.5 1513,-555.5 1591,-555.5 1591,-535.5 1513,-535.5"/>
<text text-anchor="middle" x="1552" y="-542.5" font-family="FreeSans" font-size="10.00" fill="#000000">BasePhysics</text>
</g>
<!-- Node2&#45;&gt;Node1 -->
<g id="edge1" class="edge">
<title>Node2&#45;&gt;Node1</title>
<path fill="none" stroke="#191970" d="M1601.4098,-539.5974C1642.8667,-534.3191 1703.5465,-525.8323 1756,-515.5 1774.6847,-511.8195 1794.8696,-507.0912 1813.1272,-502.5251"/>
<polygon fill="#191970" stroke="#191970" points="1600.7856,-536.1482 1591.3008,-540.8694 1601.6595,-543.0935 1600.7856,-536.1482"/>
</g>
<!-- Node3 -->
<g id="node3" class="node">
<title>Node3</title>
<g id="a_node3"><a xlink:href="../../d2/de4/classCexmcPhysicsManager.html" target="_top" xlink:title="CexmcPhysicsManager">
<polygon fill="none" stroke="#000000" points="1485.5,-405.5 1485.5,-425.5 1618.5,-425.5 1618.5,-405.5 1485.5,-405.5"/>
<text text-anchor="middle" x="1552" y="-412.5" font-family="FreeSans" font-size="10.00" fill="#000000">CexmcPhysicsManager</text>
</a>
</g>
</g>
<!-- Node3&#45;&gt;Node1 -->
<g id="edge2" class="edge">
<title>Node3&#45;&gt;Node1</title>
<path fill="none" stroke="#191970" d="M1615.816,-427.4302C1656.129,-435.1878 1709.2495,-445.8162 1756,-456.5 1774.6028,-460.7513 1794.764,-465.7709 1813.0251,-470.4754"/>
<polygon fill="#191970" stroke="#191970" points="1616.3346,-423.966 1605.8546,-425.5215 1615.0172,-430.8409 1616.3346,-423.966"/>
</g>
<!-- Node4 -->
<g id="node4" class="node">
<title>Node4</title>
<g id="a_node4"><a xlink:href="../../dd/da3/classCexmcPhysicsManagerMessenger.html" target="_top" xlink:title="CexmcPhysicsManagerMessenger">
<polygon fill="none" stroke="#000000" points="1779,-354.5 1779,-374.5 1967,-374.5 1967,-354.5 1779,-354.5"/>
<text text-anchor="middle" x="1873" y="-361.5" font-family="FreeSans" font-size="10.00" fill="#000000">CexmcPhysicsManagerMessenger</text>
</a>
</g>
</g>
<!-- Node3&#45;&gt;Node4 -->
<g id="edge27" class="edge">
<title>Node3&#45;&gt;Node4</title>
<path fill="none" stroke="#9a32cd" stroke-dasharray="5,2" d="M1628.996,-409.679C1667.3407,-406.1511 1714.3019,-400.8811 1756,-393.5 1783.8192,-388.5757 1814.8345,-380.7803 1837.9388,-374.5114"/>
<polygon fill="#9a32cd" stroke="#9a32cd" points="1628.5792,-406.2023 1618.9326,-410.5833 1629.2058,-413.1742 1628.5792,-406.2023"/>
<text text-anchor="middle" x="1705.5" y="-409.5" font-family="FreeSans" font-size="10.00" fill="#000000"> physicsManager</text>
</g>
<!-- Node4&#45;&gt;Node3 -->
<g id="edge3" class="edge">
<title>Node4&#45;&gt;Node3</title>
<path fill="none" stroke="#9a32cd" stroke-dasharray="5,2" d="M1768.8554,-367.5043C1732.5632,-369.899 1691.7411,-374.1161 1655,-381.5 1627.6764,-386.9913 1597.5202,-397.497 1576.9389,-405.3839"/>
<polygon fill="#9a32cd" stroke="#9a32cd" points="1769.2007,-370.9897 1778.9644,-366.8761 1768.7665,-364.0032 1769.2007,-370.9897"/>
<text text-anchor="middle" x="1705.5" y="-384.5" font-family="FreeSans" font-size="10.00" fill="#000000"> messenger</text>
</g>
<!-- Node5 -->
<g id="node5" class="node">
<title>Node5</title>
<g id="a_node5"><a xlink:href="../../d7/d0e/classG4UImessenger.html" target="_top" xlink:title="G4UImessenger">
<polygon fill="none" stroke="#000000" points="1011.5,-304.5 1011.5,-324.5 1109.5,-324.5 1109.5,-304.5 1011.5,-304.5"/>
<text text-anchor="middle" x="1060.5" y="-311.5" font-family="FreeSans" font-size="10.00" fill="#000000">G4UImessenger</text>
</a>
</g>
</g>
<!-- Node5&#45;&gt;Node4 -->
<g id="edge4" class="edge">
<title>Node5&#45;&gt;Node4</title>
<path fill="none" stroke="#191970" d="M1119.8059,-319.737C1135.4716,-321.0459 1152.3688,-322.3913 1168,-323.5 1386.603,-339.0048 1643.6476,-352.8466 1778.8725,-359.7886"/>
<polygon fill="#191970" stroke="#191970" points="1119.9738,-316.2388 1109.7148,-318.885 1119.3848,-323.214 1119.9738,-316.2388"/>
</g>
<!-- Node7 -->
<g id="node7" class="node">
<title>Node7</title>
<g id="a_node7"><a xlink:href="../../d2/dd2/classG4UIcommand.html" target="_top" xlink:title="G4UIcommand">
<polygon fill="none" stroke="#000000" points="1281,-218.5 1281,-238.5 1372,-238.5 1372,-218.5 1281,-218.5"/>
<text text-anchor="middle" x="1326.5" y="-225.5" font-family="FreeSans" font-size="10.00" fill="#000000">G4UIcommand</text>
</a>
</g>
</g>
<!-- Node5&#45;&gt;Node7 -->
<g id="edge20" class="edge">
<title>Node5&#45;&gt;Node7</title>
<path fill="none" stroke="#9a32cd" stroke-dasharray="5,2" d="M1113.3212,-302.1861C1172.1286,-288.4464 1259.4601,-267.9386 1263,-266.5 1281.0914,-259.1479 1300.0855,-247.1299 1312.5324,-238.5787"/>
<polygon fill="#9a32cd" stroke="#9a32cd" points="1112.3651,-298.8151 1103.4231,-304.4977 1113.9571,-305.6317 1112.3651,-298.8151"/>
<text text-anchor="middle" x="1215.5" y="-292.5" font-family="FreeSans" font-size="10.00" fill="#000000"> messenger</text>
</g>
<!-- Node6 -->
<g id="node6" class="node">
<title>Node6</title>
<g id="a_node6"><a xlink:href="../../d3/dd7/classG4UIdirectory.html" target="_top" xlink:title="G4UIdirectory">
<polygon fill="none" stroke="#000000" points="1509,-286.5 1509,-306.5 1595,-306.5 1595,-286.5 1509,-286.5"/>
<text text-anchor="middle" x="1552" y="-293.5" font-family="FreeSans" font-size="10.00" fill="#000000">G4UIdirectory</text>
</a>
</g>
</g>
<!-- Node6&#45;&gt;Node5 -->
<g id="edge5" class="edge">
<title>Node6&#45;&gt;Node5</title>
<path fill="none" stroke="#9a32cd" stroke-dasharray="5,2" d="M1498.646,-298.454C1402.7857,-301.9646 1202.7702,-309.2897 1109.8773,-312.6917"/>
<polygon fill="#9a32cd" stroke="#9a32cd" points="1498.8344,-301.9495 1508.6996,-298.0858 1498.5782,-294.9542 1498.8344,-301.9495"/>
<text text-anchor="middle" x="1326.5" y="-309.5" font-family="FreeSans" font-size="10.00" fill="#000000"> baseDir</text>
</g>
<!-- Node7&#45;&gt;Node6 -->
<g id="edge6" class="edge">
<title>Node7&#45;&gt;Node6</title>
<path fill="none" stroke="#191970" d="M1360.7745,-242.143C1370.1835,-245.6993 1380.4306,-249.4 1390,-252.5 1430.6177,-265.6581 1477.8002,-278.1658 1510.7321,-286.4584"/>
<polygon fill="#191970" stroke="#191970" points="1361.9262,-238.8362 1351.3361,-238.5205 1359.418,-245.3714 1361.9262,-238.8362"/>
</g>
<!-- Node17 -->
<g id="node17" class="node">
<title>Node17</title>
<g id="a_node17"><a xlink:href="../../d7/d89/classG4UIcmdWithADoubleAndUnit.html" target="_top" xlink:title="G4UIcmdWithADoubleAndUnit">
<polygon fill="none" stroke="#000000" points="1467,-242.5 1467,-262.5 1637,-262.5 1637,-242.5 1467,-242.5"/>
<text text-anchor="middle" x="1552" y="-249.5" font-family="FreeSans" font-size="10.00" fill="#000000">G4UIcmdWithADoubleAndUnit</text>
</a>
</g>
</g>
<!-- Node7&#45;&gt;Node17 -->
<g id="edge26" class="edge">
<title>Node7&#45;&gt;Node17</title>
<path fill="none" stroke="#191970" d="M1382.3371,-234.4428C1407.7956,-237.1523 1438.5012,-240.4203 1466.7531,-243.4272"/>
<polygon fill="#191970" stroke="#191970" points="1382.4476,-230.9348 1372.1333,-233.3568 1381.7067,-237.8955 1382.4476,-230.9348"/>
</g>
<!-- Node8 -->
<g id="node8" class="node">
<title>Node8</title>
<polygon fill="none" stroke="#bfbfbf" points="552,-118.5 552,-138.5 689,-138.5 689,-118.5 552,-118.5"/>
<text text-anchor="middle" x="620.5" y="-125.5" font-family="FreeSans" font-size="10.00" fill="#000000">std::vector&lt; G4String &gt;</text>
</g>
<!-- Node8&#45;&gt;Node7 -->
<g id="edge7" class="edge">
<title>Node8&#45;&gt;Node7</title>
<path fill="none" stroke="#9a32cd" stroke-dasharray="5,2" d="M699.2197,-130.4725C821.6669,-135.1162 1064.3357,-150.6498 1263,-202.5 1277.7539,-206.3507 1293.6289,-212.8507 1305.8154,-218.388"/>
<polygon fill="#9a32cd" stroke="#9a32cd" points="699.3026,-126.9733 689.1815,-130.1062 699.0472,-133.9687 699.3026,-126.9733"/>
<text text-anchor="middle" x="886.5" y="-151.5" font-family="FreeSans" font-size="10.00" fill="#000000"> commandGuidance</text>
</g>
<!-- Node9 -->
<g id="node9" class="node">
<title>Node9</title>
<g id="a_node9"><a xlink:href="../../d5/d72/classG4String.html" target="_top" xlink:title="G4String">
<polygon fill="none" stroke="#000000" points="248,-187.5 248,-207.5 308,-207.5 308,-187.5 248,-187.5"/>
<text text-anchor="middle" x="278" y="-194.5" font-family="FreeSans" font-size="10.00" fill="#000000">G4String</text>
</a>
</g>
</g>
<!-- Node9&#45;&gt;Node5 -->
<g id="edge24" class="edge">
<title>Node9&#45;&gt;Node5</title>
<path fill="none" stroke="#9a32cd" stroke-dasharray="5,2" d="M291.5545,-215.6707C300.4606,-226.7306 312.863,-240.5887 326,-250.5 353.2915,-271.0903 361.8875,-275.9941 395,-284.5 619.3175,-342.1221 899.9059,-327.9535 1011.4769,-319.0496"/>
<polygon fill="#9a32cd" stroke="#9a32cd" points="294.1201,-213.2688 285.2143,-207.5298 288.5974,-217.57 294.1201,-213.2688"/>
<text text-anchor="middle" x="620.5" y="-328.5" font-family="FreeSans" font-size="10.00" fill="#000000"> baseDirName</text>
</g>
<!-- Node9&#45;&gt;Node7 -->
<g id="edge19" class="edge">
<title>Node9&#45;&gt;Node7</title>
<path fill="none" stroke="#9a32cd" stroke-dasharray="5,2" d="M285.4113,-178.0416C293.115,-160.1413 306.7544,-133.9522 326,-117.5 376.4693,-74.3561 398.1031,-61.5 464.5,-61.5 464.5,-61.5 464.5,-61.5 1060.5,-61.5 1179.0972,-61.5 1288.1802,-182.0466 1318.308,-218.3048"/>
<polygon fill="#9a32cd" stroke="#9a32cd" points="282.0949,-176.9054 281.5638,-187.4869 288.5777,-179.5462 282.0949,-176.9054"/>
<text text-anchor="middle" x="754.5" y="-112.5" font-family="FreeSans" font-size="10.00" fill="#000000"> failureDescription</text>
<text text-anchor="middle" x="754.5" y="-100.5" font-family="FreeSans" font-size="10.00" fill="#000000">commandPath</text>
<text text-anchor="middle" x="754.5" y="-88.5" font-family="FreeSans" font-size="10.00" fill="#000000">rangeBuf</text>
<text text-anchor="middle" x="754.5" y="-76.5" font-family="FreeSans" font-size="10.00" fill="#000000">rangeString</text>
<text text-anchor="middle" x="754.5" y="-64.5" font-family="FreeSans" font-size="10.00" fill="#000000">commandName</text>
</g>
<!-- Node9&#45;&gt;Node8 -->
<g id="edge8" class="edge">
<title>Node9&#45;&gt;Node8</title>
<path fill="none" stroke="#9a32cd" stroke-dasharray="5,2" d="M287.638,-178.5378C295.7973,-164.7207 308.8954,-146.9935 326,-138.5 405.0393,-99.2522 511.2769,-108.3565 572.1714,-118.4711"/>
<polygon fill="#9a32cd" stroke="#9a32cd" points="284.5601,-176.8714 282.7897,-187.3173 290.6878,-180.2554 284.5601,-176.8714"/>
<text text-anchor="middle" x="351.5" y="-141.5" font-family="FreeSans" font-size="10.00" fill="#000000"> elements</text>
</g>
<!-- Node14 -->
<g id="node14" class="node">
<title>Node14</title>
<g id="a_node14"><a xlink:href="../../d9/d78/classG4UIparameter.html" target="_top" xlink:title="G4UIparameter">
<polygon fill="none" stroke="#000000" points="707,-226.5 707,-246.5 802,-246.5 802,-226.5 707,-226.5"/>
<text text-anchor="middle" x="754.5" y="-233.5" font-family="FreeSans" font-size="10.00" fill="#000000">G4UIparameter</text>
</a>
</g>
</g>
<!-- Node9&#45;&gt;Node14 -->
<g id="edge16" class="edge">
<title>Node9&#45;&gt;Node14</title>
<path fill="none" stroke="#9a32cd" stroke-dasharray="5,2" d="M318.0762,-185.0983C393.7274,-163.9269 561.4216,-127.766 689,-178.5 714.1228,-188.4906 735.9758,-212.6287 746.9602,-226.4103"/>
<polygon fill="#9a32cd" stroke="#9a32cd" points="316.6765,-181.8583 308.0261,-187.9756 318.6033,-188.5879 316.6765,-181.8583"/>
<text text-anchor="middle" x="464.5" y="-229.5" font-family="FreeSans" font-size="10.00" fill="#000000"> parameterRange</text>
<text text-anchor="middle" x="464.5" y="-217.5" font-family="FreeSans" font-size="10.00" fill="#000000">defaultValue</text>
<text text-anchor="middle" x="464.5" y="-205.5" font-family="FreeSans" font-size="10.00" fill="#000000">parameterGuidance</text>
<text text-anchor="middle" x="464.5" y="-193.5" font-family="FreeSans" font-size="10.00" fill="#000000">rangeBuf</text>
<text text-anchor="middle" x="464.5" y="-181.5" font-family="FreeSans" font-size="10.00" fill="#000000">parameterName</text>
<text text-anchor="middle" x="464.5" y="-169.5" font-family="FreeSans" font-size="10.00" fill="#000000">parameterCandidate</text>
</g>
<!-- Node15 -->
<g id="node15" class="node">
<title>Node15</title>
<g id="a_node15"><a xlink:href="../../d3/df5/structG4UItokenNum_1_1yystype.html" target="_top" xlink:title="G4UItokenNum::yystype">
<polygon fill="none" stroke="#000000" points="395,-255.5 395,-275.5 534,-275.5 534,-255.5 395,-255.5"/>
<text text-anchor="middle" x="464.5" y="-262.5" font-family="FreeSans" font-size="10.00" fill="#000000">G4UItokenNum::yystype</text>
</a>
</g>
</g>
<!-- Node9&#45;&gt;Node15 -->
<g id="edge18" class="edge">
<title>Node9&#45;&gt;Node15</title>
<path fill="none" stroke="#9a32cd" stroke-dasharray="5,2" d="M314.7973,-211.0976C337.8286,-219.59 368.1283,-230.7291 395,-240.5 408.6176,-245.4515 423.7547,-250.9027 436.4167,-255.4478"/>
<polygon fill="#9a32cd" stroke="#9a32cd" points="315.9963,-207.8094 305.403,-207.6318 313.5734,-214.3767 315.9963,-207.8094"/>
<text text-anchor="middle" x="351.5" y="-237.5" font-family="FreeSans" font-size="10.00" fill="#000000"> S</text>
</g>
<!-- Node19 -->
<g id="node19" class="node">
<title>Node19</title>
<g id="a_node19"><a xlink:href="../../da/d34/classG4VSolid.html" target="_top" xlink:title="G4VSolid">
<polygon fill="none" stroke="#000000" points="1184.5,-410.5 1184.5,-430.5 1246.5,-430.5 1246.5,-410.5 1184.5,-410.5"/>
<text text-anchor="middle" x="1215.5" y="-417.5" font-family="FreeSans" font-size="10.00" fill="#000000">G4VSolid</text>
</a>
</g>
</g>
<!-- Node9&#45;&gt;Node19 -->
<g id="edge30" class="edge">
<title>Node9&#45;&gt;Node19</title>
<path fill="none" stroke="#9a32cd" stroke-dasharray="5,2" d="M285.8644,-216.8834C293.8814,-234.804 307.7264,-261.3319 326,-279.5 376.411,-329.62 393.4135,-359.5 464.5,-359.5 464.5,-359.5 464.5,-359.5 886.5,-359.5 997.4548,-359.5 1125.984,-393.456 1184.0997,-410.6993"/>
<polygon fill="#9a32cd" stroke="#9a32cd" points="289.0797,-215.5005 281.9235,-207.6878 282.6457,-218.258 289.0797,-215.5005"/>
<text text-anchor="middle" x="620.5" y="-362.5" font-family="FreeSans" font-size="10.00" fill="#000000"> fshapeName</text>
</g>
<!-- Node10 -->
<g id="node10" class="node">
<title>Node10</title>
<g id="a_node10"><a xlink:title="STL class.">
<polygon fill="none" stroke="#bfbfbf" points="144,-187.5 144,-207.5 211,-207.5 211,-187.5 144,-187.5"/>
<text text-anchor="middle" x="177.5" y="-194.5" font-family="FreeSans" font-size="10.00" fill="#000000">std::string</text>
</a>
</g>
</g>
<!-- Node10&#45;&gt;Node9 -->
<g id="edge9" class="edge">
<title>Node10&#45;&gt;Node9</title>
<path fill="none" stroke="#191970" d="M202.7399,-185.6121C221.5639,-182.966 246.6728,-183.5774 262.5926,-187.4462"/>
<polygon fill="#191970" stroke="#191970" points="201.9481,-182.1995 192.7638,-187.4813 203.2373,-189.0797 201.9481,-182.1995"/>
</g>
<!-- Node10&#45;&gt;Node9 -->
<g id="edge11" class="edge">
<title>Node10&#45;&gt;Node9</title>
<path fill="none" stroke="#191970" d="M221.5114,-197.5C230.4194,-197.5 239.5931,-197.5 247.8892,-197.5"/>
<polygon fill="#191970" stroke="#191970" points="221.2447,-194.0001 211.2446,-197.5 221.2446,-201.0001 221.2447,-194.0001"/>
</g>
<!-- Node10&#45;&gt;Node9 -->
<g id="edge12" class="edge">
<title>Node10&#45;&gt;Node9</title>
<path fill="none" stroke="#191970" d="M202.7399,-209.3879C221.5639,-212.034 246.6728,-211.4226 262.5926,-207.5538"/>
<polygon fill="#191970" stroke="#191970" points="203.2373,-205.9203 192.7638,-207.5187 201.9481,-212.8005 203.2373,-205.9203"/>
</g>
<!-- Node11 -->
<g id="node11" class="node">
<title>Node11</title>
<g id="a_node11"><a xlink:title="STL class.">
<polygon fill="none" stroke="#bfbfbf" points="0,-181.5 0,-213.5 107,-213.5 107,-181.5 0,-181.5"/>
<text text-anchor="start" x="8" y="-200.5" font-family="FreeSans" font-size="10.00" fill="#000000">std::basic_string&lt;</text>
<text text-anchor="middle" x="53.5" y="-188.5" font-family="FreeSans" font-size="10.00" fill="#000000"> char &gt;</text>
</a>
</g>
</g>
<!-- Node11&#45;&gt;Node10 -->
<g id="edge10" class="edge">
<title>Node11&#45;&gt;Node10</title>
<path fill="none" stroke="#191970" d="M117.4289,-197.5C126.5342,-197.5 135.584,-197.5 143.7918,-197.5"/>
<polygon fill="#191970" stroke="#191970" points="117.167,-194.0001 107.167,-197.5 117.167,-201.0001 117.167,-194.0001"/>
</g>
<!-- Node12 -->
<g id="node12" class="node">
<title>Node12</title>
<polygon fill="none" stroke="#bfbfbf" points="984,-.5 984,-32.5 1137,-32.5 1137,-.5 984,-.5"/>
<text text-anchor="start" x="992" y="-19.5" font-family="FreeSans" font-size="10.00" fill="#000000">std::vector&lt; G4Application</text>
<text text-anchor="middle" x="1060.5" y="-7.5" font-family="FreeSans" font-size="10.00" fill="#000000">State &gt;</text>
</g>
<!-- Node12&#45;&gt;Node7 -->
<g id="edge13" class="edge">
<title>Node12&#45;&gt;Node7</title>
<path fill="none" stroke="#9a32cd" stroke-dasharray="5,2" d="M1147.5556,-4.4109C1186.6553,-3.7013 1231.0698,-10.0341 1263,-35.5 1292.9903,-59.4187 1317.8571,-182.0087 1324.6583,-218.3404"/>
<polygon fill="#9a32cd" stroke="#9a32cd" points="1147.0894,-.9246 1137.2136,-4.7612 1147.3264,-7.9205 1147.0894,-.9246"/>
<text text-anchor="middle" x="1215.5" y="-38.5" font-family="FreeSans" font-size="10.00" fill="#000000"> availabelStateList</text>
</g>
<!-- Node13 -->
<g id="node13" class="node">
<title>Node13</title>
<polygon fill="none" stroke="#bfbfbf" points="971,-226.5 971,-246.5 1150,-246.5 1150,-226.5 971,-226.5"/>
<text text-anchor="middle" x="1060.5" y="-233.5" font-family="FreeSans" font-size="10.00" fill="#000000">std::vector&lt; G4UIparameter * &gt;</text>
</g>
<!-- Node13&#45;&gt;Node7 -->
<g id="edge14" class="edge">
<title>Node13&#45;&gt;Node7</title>
<path fill="none" stroke="#9a32cd" stroke-dasharray="5,2" d="M1160.3064,-229.8002C1162.897,-229.691 1165.4651,-229.5905 1168,-229.5 1205.9506,-228.1459 1249.0439,-227.9611 1280.7075,-228.0784"/>
<polygon fill="#9a32cd" stroke="#9a32cd" points="1160.0545,-226.308 1150.2252,-230.2622 1160.375,-233.3007 1160.0545,-226.308"/>
<text text-anchor="middle" x="1215.5" y="-232.5" font-family="FreeSans" font-size="10.00" fill="#000000"> parameter</text>
</g>
<!-- Node14&#45;&gt;Node13 -->
<g id="edge15" class="edge">
<title>Node14&#45;&gt;Node13</title>
<path fill="none" stroke="#9a32cd" stroke-dasharray="5,2" d="M812.4148,-236.5C857.1013,-236.5 919.717,-236.5 970.8606,-236.5"/>
<polygon fill="#9a32cd" stroke="#9a32cd" points="812.3125,-233.0001 802.3125,-236.5 812.3125,-240.0001 812.3125,-233.0001"/>
<text text-anchor="middle" x="886.5" y="-239.5" font-family="FreeSans" font-size="10.00" fill="#000000"> elements</text>
</g>
<!-- Node15&#45;&gt;Node7 -->
<g id="edge23" class="edge">
<title>Node15&#45;&gt;Node7</title>
<path fill="none" stroke="#9a32cd" stroke-dasharray="5,2" d="M544.2819,-267.1427C672.2425,-269.1462 931.2088,-270.6044 1150,-255.5 1200.486,-252.0147 1213.0613,-249.6924 1263,-241.5 1268.7744,-240.5527 1274.8229,-239.4539 1280.7959,-238.3042"/>
<polygon fill="#9a32cd" stroke="#9a32cd" points="544.233,-263.6416 534.1775,-266.9791 544.1195,-270.6406 544.233,-263.6416"/>
<text text-anchor="middle" x="886.5" y="-271.5" font-family="FreeSans" font-size="10.00" fill="#000000"> yylval</text>
</g>
<!-- Node15&#45;&gt;Node14 -->
<g id="edge17" class="edge">
<title>Node15&#45;&gt;Node14</title>
<path fill="none" stroke="#9a32cd" stroke-dasharray="5,2" d="M498.3597,-252.006C514.35,-246.3272 533.867,-240.3765 552,-237.5 604.431,-229.1828 665.4627,-230.3294 706.7074,-232.6691"/>
<polygon fill="#9a32cd" stroke="#9a32cd" points="497.0849,-248.7456 488.9032,-255.4768 499.4968,-255.3169 497.0849,-248.7456"/>
<text text-anchor="middle" x="620.5" y="-252.5" font-family="FreeSans" font-size="10.00" fill="#000000"> newVal</text>
<text text-anchor="middle" x="620.5" y="-240.5" font-family="FreeSans" font-size="10.00" fill="#000000">yylval</text>
</g>
<!-- Node16 -->
<g id="node16" class="node">
<title>Node16</title>
<polygon fill="none" stroke="#bfbfbf" points="820,-186.5 820,-206.5 953,-206.5 953,-186.5 820,-186.5"/>
<text text-anchor="middle" x="886.5" y="-193.5" font-family="FreeSans" font-size="10.00" fill="#000000">std::vector&lt; yystype &gt;</text>
</g>
<!-- Node15&#45;&gt;Node16 -->
<g id="edge22" class="edge">
<title>Node15&#45;&gt;Node16</title>
<path fill="none" stroke="#9a32cd" stroke-dasharray="5,2" d="M514.5956,-251.653C521.4665,-248.5884 528.1575,-244.9051 534,-240.5 544.9323,-232.2574 539.9961,-222.0851 552,-215.5 641.7545,-166.262 766.2001,-175.7458 835.2135,-186.4815"/>
<polygon fill="#9a32cd" stroke="#9a32cd" points="513.1382,-248.4669 505.1774,-255.4581 515.7604,-254.9573 513.1382,-248.4669"/>
<text text-anchor="middle" x="620.5" y="-218.5" font-family="FreeSans" font-size="10.00" fill="#000000"> elements</text>
</g>
<!-- Node16&#45;&gt;Node7 -->
<g id="edge21" class="edge">
<title>Node16&#45;&gt;Node7</title>
<path fill="none" stroke="#9a32cd" stroke-dasharray="5,2" d="M963.4755,-196.7142C1016.0855,-197.381 1087.3561,-199.3044 1150,-204.5 1194.6869,-208.2063 1245.3759,-215.4136 1280.9316,-220.967"/>
<polygon fill="#9a32cd" stroke="#9a32cd" points="963.2497,-193.2115 953.2103,-196.597 963.1697,-200.211 963.2497,-193.2115"/>
<text text-anchor="middle" x="1060.5" y="-207.5" font-family="FreeSans" font-size="10.00" fill="#000000"> newVal</text>
</g>
<!-- Node17&#45;&gt;Node4 -->
<g id="edge25" class="edge">
<title>Node17&#45;&gt;Node4</title>
<path fill="none" stroke="#9a32cd" stroke-dasharray="5,2" d="M1600.1949,-265.3687C1612.2711,-268.7957 1625.1583,-272.6276 1637,-276.5 1714.929,-301.9837 1805.3044,-337.3446 1848.0899,-354.4437"/>
<polygon fill="#9a32cd" stroke="#9a32cd" points="1600.8557,-261.9192 1590.2823,-262.5932 1598.9683,-268.6599 1600.8557,-261.9192"/>
<text text-anchor="middle" x="1705.5" y="-321.5" font-family="FreeSans" font-size="10.00" fill="#000000"> setMaxILCorrection</text>
</g>
<!-- Node18 -->
<g id="node18" class="node">
<title>Node18</title>
<g id="a_node18"><a xlink:href="../../d8/d1e/classG4AffineTransform.html" target="_top" xlink:title="G4AffineTransform">
<polygon fill="none" stroke="#000000" points="1497,-496.5 1497,-516.5 1607,-516.5 1607,-496.5 1497,-496.5"/>
<text text-anchor="middle" x="1552" y="-503.5" font-family="FreeSans" font-size="10.00" fill="#000000">G4AffineTransform</text>
</a>
</g>
</g>
<!-- Node18&#45;&gt;Node1 -->
<g id="edge28" class="edge">
<title>Node18&#45;&gt;Node1</title>
<path fill="none" stroke="#9a32cd" stroke-dasharray="5,2" d="M1617.3994,-502.4253C1662.3888,-499.6222 1722.9711,-495.8476 1773.8631,-492.6768"/>
<polygon fill="#9a32cd" stroke="#9a32cd" points="1616.9448,-498.9467 1607.1819,-503.0619 1617.3802,-505.9332 1616.9448,-498.9467"/>
<text text-anchor="middle" x="1705.5" y="-502.5" font-family="FreeSans" font-size="10.00" fill="#000000"> targetTransform</text>
</g>
<!-- Node19&#45;&gt;Node1 -->
<g id="edge29" class="edge">
<title>Node19&#45;&gt;Node1</title>
<path fill="none" stroke="#9a32cd" stroke-dasharray="5,2" d="M1256.7226,-424.6379C1359.1276,-434.9174 1627.3754,-461.8441 1773.9254,-476.5549"/>
<polygon fill="#9a32cd" stroke="#9a32cd" points="1257.0699,-421.1553 1246.7703,-423.6389 1256.3707,-428.1203 1257.0699,-421.1553"/>
<text text-anchor="middle" x="1419.5" y="-446.5" font-family="FreeSans" font-size="10.00" fill="#000000"> targetSolid</text>
</g>
</g>
</svg>
