<?xml version="1.0" encoding="UTF-8" standalone="no"?>
<!DOCTYPE svg PUBLIC "-//W3C//DTD SVG 1.1//EN"
 "http://www.w3.org/Graphics/SVG/1.1/DTD/svg11.dtd">
<!-- Generated by graphviz version 2.40.1 (20161225.0304)
 -->
<!-- Title: G4LivermorePolarizedPhotoElectricGDModel::SetPerpendicularVector Pages: 1 -->
<svg width="705pt" height="53pt"
 viewBox="0.00 0.00 705.00 53.00" xmlns="http://www.w3.org/2000/svg" xmlns:xlink="http://www.w3.org/1999/xlink">
<g id="graph0" class="graph" transform="scale(1 1) rotate(0) translate(4 49)">
<title>G4LivermorePolarizedPhotoElectricGDModel::SetPerpendicularVector</title>
<!-- Node1 -->
<g id="node1" class="node">
<title>Node1</title>
<polygon fill="#bfbfbf" stroke="#000000" points="0,-.5 0,-44.5 193,-44.5 193,-.5 0,-.5"/>
<text text-anchor="start" x="8" y="-31.5" font-family="FreeSans" font-size="10.00" fill="#000000">G4LivermorePolarizedPhoto</text>
<text text-anchor="start" x="8" y="-19.5" font-family="FreeSans" font-size="10.00" fill="#000000">ElectricGDModel::SetPerpendicular</text>
<text text-anchor="middle" x="96.5" y="-7.5" font-family="FreeSans" font-size="10.00" fill="#000000">Vector</text>
</g>
<!-- Node2 -->
<g id="node2" class="node">
<title>Node2</title>
<g id="a_node2"><a xlink:href="../../d1/d96/classG4LivermorePolarizedPhotoElectricGDModel.html#abf02f72fb11f68d0b2261db50e0218c6" target="_top" xlink:title="G4LivermorePolarizedPhoto\lElectricGDModel::GetRandomPolarization">
<polygon fill="none" stroke="#000000" points="229,-6.5 229,-38.5 454,-38.5 454,-6.5 229,-6.5"/>
<text text-anchor="start" x="237" y="-25.5" font-family="FreeSans" font-size="10.00" fill="#000000">G4LivermorePolarizedPhoto</text>
<text text-anchor="middle" x="341.5" y="-13.5" font-family="FreeSans" font-size="10.00" fill="#000000">ElectricGDModel::GetRandomPolarization</text>
</a>
</g>
</g>
<!-- Node1&#45;&gt;Node2 -->
<g id="edge1" class="edge">
<title>Node1&#45;&gt;Node2</title>
<path fill="none" stroke="#191970" d="M203.4919,-22.5C211.8712,-22.5 220.349,-22.5 228.7648,-22.5"/>
<polygon fill="#191970" stroke="#191970" points="203.3305,-19.0001 193.3305,-22.5 203.3305,-26.0001 203.3305,-19.0001"/>
</g>
<!-- Node3 -->
<g id="node3" class="node">
<title>Node3</title>
<g id="a_node3"><a xlink:href="../../d1/d96/classG4LivermorePolarizedPhotoElectricGDModel.html#a9284da42e00b1d7566f246e5c77ee3e3" target="_top" xlink:title="G4LivermorePolarizedPhoto\lElectricGDModel::SampleSecondaries">
<polygon fill="none" stroke="#000000" points="490,-6.5 490,-38.5 697,-38.5 697,-6.5 490,-6.5"/>
<text text-anchor="start" x="498" y="-25.5" font-family="FreeSans" font-size="10.00" fill="#000000">G4LivermorePolarizedPhoto</text>
<text text-anchor="middle" x="593.5" y="-13.5" font-family="FreeSans" font-size="10.00" fill="#000000">ElectricGDModel::SampleSecondaries</text>
</a>
</g>
</g>
<!-- Node2&#45;&gt;Node3 -->
<g id="edge2" class="edge">
<title>Node2&#45;&gt;Node3</title>
<path fill="none" stroke="#191970" d="M464.4899,-22.5C472.9144,-22.5 481.3568,-22.5 489.6665,-22.5"/>
<polygon fill="#191970" stroke="#191970" points="464.2329,-19.0001 454.2328,-22.5 464.2328,-26.0001 464.2329,-19.0001"/>
</g>
</g>
</svg>
