<?xml version="1.0" encoding="UTF-8" standalone="no"?>
<!DOCTYPE svg PUBLIC "-//W3C//DTD SVG 1.1//EN"
 "http://www.w3.org/Graphics/SVG/1.1/DTD/svg11.dtd">
<!-- Generated by graphviz version 2.40.1 (20161225.0304)
 -->
<!-- Title: G4EmCalculator::ComputeTotalDEDX Pages: 1 -->
<svg width="450pt" height="182pt"
 viewBox="0.00 0.00 450.00 182.00" xmlns="http://www.w3.org/2000/svg" xmlns:xlink="http://www.w3.org/1999/xlink">
<g id="graph0" class="graph" transform="scale(1 1) rotate(0) translate(4 178)">
<title>G4EmCalculator::ComputeTotalDEDX</title>
<!-- Node1 -->
<g id="node1" class="node">
<title>Node1</title>
<polygon fill="#bfbfbf" stroke="#000000" points="0,-82.5 0,-102.5 203,-102.5 203,-82.5 0,-82.5"/>
<text text-anchor="middle" x="101.5" y="-89.5" font-family="FreeSans" font-size="10.00" fill="#000000">G4EmCalculator::ComputeTotalDEDX</text>
</g>
<!-- Node2 -->
<g id="node2" class="node">
<title>Node2</title>
<g id="a_node2"><a xlink:href="../../de/dc4/classG4EmCalculator.html#ac508cb0a692d89dd15e71fb63259d280" target="_top" xlink:title="G4EmCalculator::ComputeTotalDEDX">
<polygon fill="none" stroke="#000000" points="239,-153.5 239,-173.5 442,-173.5 442,-153.5 239,-153.5"/>
<text text-anchor="middle" x="340.5" y="-160.5" font-family="FreeSans" font-size="10.00" fill="#000000">G4EmCalculator::ComputeTotalDEDX</text>
</a>
</g>
</g>
<!-- Node1&#45;&gt;Node2 -->
<g id="edge1" class="edge">
<title>Node1&#45;&gt;Node2</title>
<path fill="none" stroke="#191970" d="M133.9472,-106.6348C161.4715,-118.1706 202.2307,-134.1929 239,-144.5 251.2562,-147.9356 264.5213,-150.927 277.2931,-153.4563"/>
<polygon fill="#191970" stroke="#191970" points="135.0105,-103.2842 124.4373,-102.6067 132.2802,-109.7299 135.0105,-103.2842"/>
</g>
<!-- Node3 -->
<g id="node3" class="node">
<title>Node3</title>
<g id="a_node3"><a xlink:href="../../d7/df6/classRunAction.html#a7fd2cbdf03bbb26d4bbdad5784721430" target="_top" xlink:title="RunAction::GetEnergyFrom\lCSDARange">
<polygon fill="none" stroke="#000000" points="264.5,-102.5 264.5,-134.5 416.5,-134.5 416.5,-102.5 264.5,-102.5"/>
<text text-anchor="start" x="272.5" y="-121.5" font-family="FreeSans" font-size="10.00" fill="#000000">RunAction::GetEnergyFrom</text>
<text text-anchor="middle" x="340.5" y="-109.5" font-family="FreeSans" font-size="10.00" fill="#000000">CSDARange</text>
</a>
</g>
</g>
<!-- Node1&#45;&gt;Node3 -->
<g id="edge2" class="edge">
<title>Node1&#45;&gt;Node3</title>
<path fill="none" stroke="#191970" d="M203.5138,-103.5977C223.9222,-105.8179 245.0261,-108.1137 264.3746,-110.2186"/>
<polygon fill="#191970" stroke="#191970" points="203.8817,-100.1172 193.5618,-102.5151 203.1246,-107.0761 203.8817,-100.1172"/>
</g>
<!-- Node4 -->
<g id="node4" class="node">
<title>Node4</title>
<g id="a_node4"><a xlink:href="../../d4/d54/classHadrontherapyInteractionParameters.html#a3d589623e4da13a1b93e08acc6262f32" target="_top" xlink:title="HadrontherapyInteraction\lParameters::GetStopping">
<polygon fill="none" stroke="#000000" points="267,-51.5 267,-83.5 414,-83.5 414,-51.5 267,-51.5"/>
<text text-anchor="start" x="275" y="-70.5" font-family="FreeSans" font-size="10.00" fill="#000000">HadrontherapyInteraction</text>
<text text-anchor="middle" x="340.5" y="-58.5" font-family="FreeSans" font-size="10.00" fill="#000000">Parameters::GetStopping</text>
</a>
</g>
</g>
<!-- Node1&#45;&gt;Node4 -->
<g id="edge3" class="edge">
<title>Node1&#45;&gt;Node4</title>
<path fill="none" stroke="#191970" d="M207.4225,-81.4202C227.4369,-79.3267 247.9659,-77.1793 266.7247,-75.2171"/>
<polygon fill="#191970" stroke="#191970" points="206.9149,-77.9541 197.3333,-82.4756 207.6432,-84.9162 206.9149,-77.9541"/>
</g>
<!-- Node5 -->
<g id="node5" class="node">
<title>Node5</title>
<g id="a_node5"><a xlink:href="../../d4/d54/classHadrontherapyInteractionParameters.html#a8ceab53090d32ea4f027b798f321043c" target="_top" xlink:title="HadrontherapyInteraction\lParameters::GetStoppingTable">
<polygon fill="none" stroke="#000000" points="255.5,-.5 255.5,-32.5 425.5,-32.5 425.5,-.5 255.5,-.5"/>
<text text-anchor="start" x="263.5" y="-19.5" font-family="FreeSans" font-size="10.00" fill="#000000">HadrontherapyInteraction</text>
<text text-anchor="middle" x="340.5" y="-7.5" font-family="FreeSans" font-size="10.00" fill="#000000">Parameters::GetStoppingTable</text>
</a>
</g>
</g>
<!-- Node1&#45;&gt;Node5 -->
<g id="edge4" class="edge">
<title>Node1&#45;&gt;Node5</title>
<path fill="none" stroke="#191970" d="M136.4358,-78.7208C164.0368,-68.0968 203.6615,-53.4225 239,-42.5 250.2096,-39.0353 262.2139,-35.666 273.9008,-32.564"/>
<polygon fill="#191970" stroke="#191970" points="134.902,-75.5614 126.8413,-82.4372 137.4304,-82.0889 134.902,-75.5614"/>
</g>
</g>
</svg>
