<?xml version="1.0" encoding="UTF-8" standalone="no"?>
<!DOCTYPE svg PUBLIC "-//W3C//DTD SVG 1.1//EN"
 "http://www.w3.org/Graphics/SVG/1.1/DTD/svg11.dtd">
<!-- Generated by graphviz version 2.40.1 (20161225.0304)
 -->
<!-- Title: G4ITTransportationManager::IsWorldExisting Pages: 1 -->
<svg width="360pt" height="92pt"
 viewBox="0.00 0.00 360.00 92.00" xmlns="http://www.w3.org/2000/svg" xmlns:xlink="http://www.w3.org/1999/xlink">
<g id="graph0" class="graph" transform="scale(1 1) rotate(0) translate(4 88)">
<title>G4ITTransportationManager::IsWorldExisting</title>
<!-- Node1 -->
<g id="node1" class="node">
<title>Node1</title>
<polygon fill="#bfbfbf" stroke="#000000" points="0,-25.5 0,-57.5 158,-57.5 158,-25.5 0,-25.5"/>
<text text-anchor="start" x="8" y="-44.5" font-family="FreeSans" font-size="10.00" fill="#000000">G4ITTransportationManager</text>
<text text-anchor="middle" x="79" y="-32.5" font-family="FreeSans" font-size="10.00" fill="#000000">::IsWorldExisting</text>
</g>
<!-- Node2 -->
<g id="node2" class="node">
<title>Node2</title>
<g id="a_node2"><a xlink:href="../../da/dcd/classG4ITTransportationManager.html#a3ed60be01705a81bd1e85252dfd32e21" target="_top" xlink:title="G4ITTransportationManager\l::GetNavigator">
<polygon fill="none" stroke="#000000" points="194,-51.5 194,-83.5 352,-83.5 352,-51.5 194,-51.5"/>
<text text-anchor="start" x="202" y="-70.5" font-family="FreeSans" font-size="10.00" fill="#000000">G4ITTransportationManager</text>
<text text-anchor="middle" x="273" y="-58.5" font-family="FreeSans" font-size="10.00" fill="#000000">::GetNavigator</text>
</a>
</g>
</g>
<!-- Node1&#45;&gt;Node2 -->
<g id="edge1" class="edge">
<title>Node1&#45;&gt;Node2</title>
<path fill="none" stroke="#191970" d="M168.1574,-53.4489C176.6963,-54.5933 185.3167,-55.7486 193.7517,-56.8791"/>
<polygon fill="#191970" stroke="#191970" points="168.5634,-49.9721 158.187,-52.1127 167.6335,-56.9101 168.5634,-49.9721"/>
</g>
<!-- Node3 -->
<g id="node3" class="node">
<title>Node3</title>
<g id="a_node3"><a xlink:href="../../da/dcd/classG4ITTransportationManager.html#ac666a5aa18ceb4cace6614655c3491b3" target="_top" xlink:title="G4ITTransportationManager\l::GetParallelWorld">
<polygon fill="none" stroke="#000000" points="194,-.5 194,-32.5 352,-32.5 352,-.5 194,-.5"/>
<text text-anchor="start" x="202" y="-19.5" font-family="FreeSans" font-size="10.00" fill="#000000">G4ITTransportationManager</text>
<text text-anchor="middle" x="273" y="-7.5" font-family="FreeSans" font-size="10.00" fill="#000000">::GetParallelWorld</text>
</a>
</g>
</g>
<!-- Node1&#45;&gt;Node3 -->
<g id="edge2" class="edge">
<title>Node1&#45;&gt;Node3</title>
<path fill="none" stroke="#191970" d="M168.1574,-30.0106C176.6963,-28.9103 185.3167,-27.7994 193.7517,-26.7124"/>
<polygon fill="#191970" stroke="#191970" points="167.6577,-26.546 158.187,-31.2955 168.5524,-33.4886 167.6577,-26.546"/>
</g>
</g>
</svg>
