<?xml version="1.0" encoding="UTF-8" standalone="no"?>
<!DOCTYPE svg PUBLIC "-//W3C//DTD SVG 1.1//EN"
 "http://www.w3.org/Graphics/SVG/1.1/DTD/svg11.dtd">
<!-- Generated by graphviz version 2.40.1 (20161225.0304)
 -->
<!-- Title: G4ProtonEvaporationProbability Pages: 1 -->
<svg width="186pt" height="143pt"
 viewBox="0.00 0.00 186.00 143.00" xmlns="http://www.w3.org/2000/svg" xmlns:xlink="http://www.w3.org/1999/xlink">
<g id="graph0" class="graph" transform="scale(1 1) rotate(0) translate(4 139)">
<title>G4ProtonEvaporationProbability</title>
<!-- Node1 -->
<g id="node1" class="node">
<title>Node1</title>
<polygon fill="#bfbfbf" stroke="#000000" points="0,-.5 0,-20.5 178,-20.5 178,-.5 0,-.5"/>
<text text-anchor="middle" x="89" y="-7.5" font-family="FreeSans" font-size="10.00" fill="#000000">G4ProtonEvaporationProbability</text>
</g>
<!-- Node2 -->
<g id="node2" class="node">
<title>Node2</title>
<g id="a_node2"><a xlink:href="../../d9/d84/classG4EvaporationProbability.html" target="_top" xlink:title="G4EvaporationProbability">
<polygon fill="none" stroke="#000000" points="16.5,-57.5 16.5,-77.5 161.5,-77.5 161.5,-57.5 16.5,-57.5"/>
<text text-anchor="middle" x="89" y="-64.5" font-family="FreeSans" font-size="10.00" fill="#000000">G4EvaporationProbability</text>
</a>
</g>
</g>
<!-- Node2&#45;&gt;Node1 -->
<g id="edge1" class="edge">
<title>Node2&#45;&gt;Node1</title>
<path fill="none" stroke="#191970" d="M89,-47.1771C89,-38.1625 89,-27.9556 89,-20.6022"/>
<polygon fill="#191970" stroke="#191970" points="85.5001,-47.3095 89,-57.3095 92.5001,-47.3096 85.5001,-47.3095"/>
</g>
<!-- Node3 -->
<g id="node3" class="node">
<title>Node3</title>
<g id="a_node3"><a xlink:href="../../d9/dc0/classG4VEmissionProbability.html" target="_top" xlink:title="G4VEmissionProbability">
<polygon fill="none" stroke="#000000" points="21,-114.5 21,-134.5 157,-134.5 157,-114.5 21,-114.5"/>
<text text-anchor="middle" x="89" y="-121.5" font-family="FreeSans" font-size="10.00" fill="#000000">G4VEmissionProbability</text>
</a>
</g>
</g>
<!-- Node3&#45;&gt;Node2 -->
<g id="edge2" class="edge">
<title>Node3&#45;&gt;Node2</title>
<path fill="none" stroke="#191970" d="M89,-104.1771C89,-95.1625 89,-84.9556 89,-77.6022"/>
<polygon fill="#191970" stroke="#191970" points="85.5001,-104.3095 89,-114.3095 92.5001,-104.3096 85.5001,-104.3095"/>
</g>
</g>
</svg>
