<?xml version="1.0" encoding="UTF-8" standalone="no"?>
<!DOCTYPE svg PUBLIC "-//W3C//DTD SVG 1.1//EN"
 "http://www.w3.org/Graphics/SVG/1.1/DTD/svg11.dtd">
<!-- Generated by graphviz version 2.40.1 (20161225.0304)
 -->
<!-- Title: G4MIRDHead::Construct Pages: 1 -->
<svg width="1218pt" height="545pt"
 viewBox="0.00 0.00 1218.00 545.00" xmlns="http://www.w3.org/2000/svg" xmlns:xlink="http://www.w3.org/1999/xlink">
<g id="graph0" class="graph" transform="scale(1 1) rotate(0) translate(4 541)">
<title>G4MIRDHead::Construct</title>
<!-- Node1 -->
<g id="node1" class="node">
<title>Node1</title>
<polygon fill="#bfbfbf" stroke="#000000" points="0,-231.5 0,-251.5 139,-251.5 139,-231.5 0,-231.5"/>
<text text-anchor="middle" x="69.5" y="-238.5" font-family="FreeSans" font-size="10.00" fill="#000000">G4MIRDHead::Construct</text>
</g>
<!-- Node2 -->
<g id="node2" class="node">
<title>Node2</title>
<g id="a_node2"><a xlink:href="../../da/d34/classG4VSolid.html#ad79cd6032a236810a66f4c9576748b14" target="_top" xlink:title="G4VSolid::GetCubicVolume">
<polygon fill="none" stroke="#000000" points="194.5,-438.5 194.5,-458.5 347.5,-458.5 347.5,-438.5 194.5,-438.5"/>
<text text-anchor="middle" x="271" y="-445.5" font-family="FreeSans" font-size="10.00" fill="#000000">G4VSolid::GetCubicVolume</text>
</a>
</g>
</g>
<!-- Node1&#45;&gt;Node2 -->
<g id="edge1" class="edge">
<title>Node1&#45;&gt;Node2</title>
<path fill="none" stroke="#191970" d="M71.9672,-251.6695C80.2845,-283.6306 110.463,-382.7012 175,-429.5 178.2344,-431.8454 181.6846,-433.9203 185.2837,-435.7545"/>
<polygon fill="#191970" stroke="#191970" points="183.9379,-438.9863 194.4987,-439.8351 186.7723,-432.5857 183.9379,-438.9863"/>
</g>
<!-- Node18 -->
<g id="node18" class="node">
<title>Node18</title>
<g id="a_node18"><a xlink:href="../../d5/de4/classG4Material.html#a32d5774ccabccc95879d98ec5919348b" target="_top" xlink:title="G4Material::GetDensity">
<polygon fill="none" stroke="#000000" points="203.5,-399.5 203.5,-419.5 338.5,-419.5 338.5,-399.5 203.5,-399.5"/>
<text text-anchor="middle" x="271" y="-406.5" font-family="FreeSans" font-size="10.00" fill="#000000">G4Material::GetDensity</text>
</a>
</g>
</g>
<!-- Node1&#45;&gt;Node18 -->
<g id="edge18" class="edge">
<title>Node1&#45;&gt;Node18</title>
<path fill="none" stroke="#191970" d="M73.5644,-251.8648C84.9445,-279.4202 119.9415,-354.8166 175,-390.5 180.7475,-394.225 187.0655,-397.248 193.6316,-399.6977"/>
<polygon fill="#191970" stroke="#191970" points="192.7992,-403.1078 203.3918,-402.8915 194.9763,-396.455 192.7992,-403.1078"/>
</g>
<!-- Node19 -->
<g id="node19" class="node">
<title>Node19</title>
<g id="a_node19"><a xlink:href="../../da/dc4/classG4LogicalVolume.html#a4173007bc4b83c269985c3c16c2f05bf" target="_top" xlink:title="G4LogicalVolume::GetMaterial">
<polygon fill="none" stroke="#000000" points="186.5,-360.5 186.5,-380.5 355.5,-380.5 355.5,-360.5 186.5,-360.5"/>
<text text-anchor="middle" x="271" y="-367.5" font-family="FreeSans" font-size="10.00" fill="#000000">G4LogicalVolume::GetMaterial</text>
</a>
</g>
</g>
<!-- Node1&#45;&gt;Node19 -->
<g id="edge19" class="edge">
<title>Node1&#45;&gt;Node19</title>
<path fill="none" stroke="#191970" d="M76.0346,-251.5437C90.809,-273.3737 129.0969,-325.2108 175,-350.5 179.5433,-353.003 184.365,-355.1935 189.3345,-357.1105"/>
<polygon fill="#191970" stroke="#191970" points="188.4441,-360.506 199.0389,-360.4699 190.7341,-353.8911 188.4441,-360.506"/>
</g>
<!-- Node20 -->
<g id="node20" class="node">
<title>Node20</title>
<g id="a_node20"><a xlink:href="../../d1/d28/classG4VPhysicalVolume.html#a58405900b1878b174d4b5630dc449d4d" target="_top" xlink:title="G4VPhysicalVolume::\lGetName">
<polygon fill="none" stroke="#000000" points="209.5,-309.5 209.5,-341.5 332.5,-341.5 332.5,-309.5 209.5,-309.5"/>
<text text-anchor="start" x="217.5" y="-328.5" font-family="FreeSans" font-size="10.00" fill="#000000">G4VPhysicalVolume::</text>
<text text-anchor="middle" x="271" y="-316.5" font-family="FreeSans" font-size="10.00" fill="#000000">GetName</text>
</a>
</g>
</g>
<!-- Node1&#45;&gt;Node20 -->
<g id="edge20" class="edge">
<title>Node1&#45;&gt;Node20</title>
<path fill="none" stroke="#191970" d="M85.0043,-251.5696C105.0769,-264.2377 141.4682,-285.9678 175,-299.5 182.826,-302.6583 191.163,-305.5583 199.5305,-308.1836"/>
<polygon fill="#191970" stroke="#191970" points="198.7539,-311.605 209.3385,-311.1383 200.7731,-304.9025 198.7539,-311.605"/>
</g>
<!-- Node21 -->
<g id="node21" class="node">
<title>Node21</title>
<g id="a_node21"><a xlink:href="../../d5/de4/classG4Material.html#ad8d8779fa3a56cfb69010ac6c6d7c71f" target="_top" xlink:title="G4Material::GetName">
<polygon fill="none" stroke="#000000" points="208,-270.5 208,-290.5 334,-290.5 334,-270.5 208,-270.5"/>
<text text-anchor="middle" x="271" y="-277.5" font-family="FreeSans" font-size="10.00" fill="#000000">G4Material::GetName</text>
</a>
</g>
</g>
<!-- Node1&#45;&gt;Node21 -->
<g id="edge21" class="edge">
<title>Node1&#45;&gt;Node21</title>
<path fill="none" stroke="#191970" d="M121.3913,-251.5435C148.1855,-256.7294 181.0629,-263.0928 209.1667,-268.5323"/>
<polygon fill="#191970" stroke="#191970" points="208.8017,-272.0265 219.2846,-270.4906 210.1319,-265.154 208.8017,-272.0265"/>
</g>
<!-- Node22 -->
<g id="node22" class="node">
<title>Node22</title>
<g id="a_node22"><a xlink:href="../../da/dc4/classG4LogicalVolume.html#ad04312d21410ca4cf06be8cc2390acf3" target="_top" xlink:title="G4LogicalVolume::GetSolid">
<polygon fill="none" stroke="#000000" points="194.5,-231.5 194.5,-251.5 347.5,-251.5 347.5,-231.5 194.5,-231.5"/>
<text text-anchor="middle" x="271" y="-238.5" font-family="FreeSans" font-size="10.00" fill="#000000">G4LogicalVolume::GetSolid</text>
</a>
</g>
</g>
<!-- Node1&#45;&gt;Node22 -->
<g id="edge22" class="edge">
<title>Node1&#45;&gt;Node22</title>
<path fill="none" stroke="#191970" d="M139.127,-241.5C153.6379,-241.5 169.104,-241.5 184.1485,-241.5"/>
<polygon fill="#191970" stroke="#191970" points="184.4798,-245.0001 194.4797,-241.5 184.4797,-238.0001 184.4798,-245.0001"/>
</g>
<!-- Node23 -->
<g id="node23" class="node">
<title>Node23</title>
<g id="a_node23"><a xlink:href="../../dc/de5/PHG4mRICHDetector_8cc.html#ae62b03935debe2916d1bd671371ec87d" target="_top" xlink:title="material">
<polygon fill="none" stroke="#000000" points="242,-192.5 242,-212.5 300,-212.5 300,-192.5 242,-192.5"/>
<text text-anchor="middle" x="271" y="-199.5" font-family="FreeSans" font-size="10.00" fill="#000000">material</text>
</a>
</g>
</g>
<!-- Node1&#45;&gt;Node23 -->
<g id="edge23" class="edge">
<title>Node1&#45;&gt;Node23</title>
<path fill="none" stroke="#191970" d="M121.3913,-231.4565C155.754,-224.8057 200.1221,-216.2183 231.5947,-210.1268"/>
<polygon fill="#191970" stroke="#191970" points="232.5879,-213.4996 241.7406,-208.1631 231.2577,-206.6272 232.5879,-213.4996"/>
</g>
<!-- Node24 -->
<g id="node24" class="node">
<title>Node24</title>
<g id="a_node24"><a xlink:href="../../dd/d65/classCLHEP_1_1HepRotation.html#aade1964498bb450b9d90a40977837e67" target="_top" xlink:title="CLHEP::HepRotation\l::rotateX">
<polygon fill="none" stroke="#000000" points="212,-141.5 212,-173.5 330,-173.5 330,-141.5 212,-141.5"/>
<text text-anchor="start" x="220" y="-160.5" font-family="FreeSans" font-size="10.00" fill="#000000">CLHEP::HepRotation</text>
<text text-anchor="middle" x="271" y="-148.5" font-family="FreeSans" font-size="10.00" fill="#000000">::rotateX</text>
</a>
</g>
</g>
<!-- Node1&#45;&gt;Node24 -->
<g id="edge24" class="edge">
<title>Node1&#45;&gt;Node24</title>
<path fill="none" stroke="#191970" d="M84.6108,-231.411C104.5583,-218.4839 141.1216,-196.1233 175,-182.5 183.6574,-179.0187 192.9502,-175.8911 202.2218,-173.1236"/>
<polygon fill="#191970" stroke="#191970" points="203.1966,-176.4852 211.8485,-170.3701 201.2715,-169.7551 203.1966,-176.4852"/>
</g>
<!-- Node25 -->
<g id="node25" class="node">
<title>Node25</title>
<g id="a_node25"><a xlink:href="../../dd/d65/classCLHEP_1_1HepRotation.html#ad3bd2245c819d7d0062c5ad0a49d6fbe" target="_top" xlink:title="CLHEP::HepRotation\l::rotateY">
<polygon fill="none" stroke="#000000" points="212,-90.5 212,-122.5 330,-122.5 330,-90.5 212,-90.5"/>
<text text-anchor="start" x="220" y="-109.5" font-family="FreeSans" font-size="10.00" fill="#000000">CLHEP::HepRotation</text>
<text text-anchor="middle" x="271" y="-97.5" font-family="FreeSans" font-size="10.00" fill="#000000">::rotateY</text>
</a>
</g>
</g>
<!-- Node1&#45;&gt;Node25 -->
<g id="edge25" class="edge">
<title>Node1&#45;&gt;Node25</title>
<path fill="none" stroke="#191970" d="M76.3332,-231.2017C91.4122,-209.3148 129.809,-158.0096 175,-131.5 183.3241,-126.617 192.6037,-122.6738 202.0216,-119.493"/>
<polygon fill="#191970" stroke="#191970" points="203.336,-122.75 211.8519,-116.4468 201.264,-116.0636 203.336,-122.75"/>
</g>
<!-- Node26 -->
<g id="node26" class="node">
<title>Node26</title>
<g id="a_node26"><a xlink:href="../../dc/df1/classG4VisAttributes.html#abd02e393157dda693addca38fab7fb63" target="_top" xlink:title="G4VisAttributes::SetForce\lSolid">
<polygon fill="none" stroke="#000000" points="198,-39.5 198,-71.5 344,-71.5 344,-39.5 198,-39.5"/>
<text text-anchor="start" x="206" y="-58.5" font-family="FreeSans" font-size="10.00" fill="#000000">G4VisAttributes::SetForce</text>
<text text-anchor="middle" x="271" y="-46.5" font-family="FreeSans" font-size="10.00" fill="#000000">Solid</text>
</a>
</g>
</g>
<!-- Node1&#45;&gt;Node26 -->
<g id="edge26" class="edge">
<title>Node1&#45;&gt;Node26</title>
<path fill="none" stroke="#191970" d="M73.1256,-231.3316C83.8507,-202.7677 118.2673,-121.237 175,-80.5 179.1772,-77.5006 183.686,-74.8607 188.3922,-72.5373"/>
<polygon fill="#191970" stroke="#191970" points="189.9171,-75.6901 197.6506,-68.4482 187.089,-69.2868 189.9171,-75.6901"/>
</g>
<!-- Node27 -->
<g id="node27" class="node">
<title>Node27</title>
<g id="a_node27"><a xlink:href="../../da/dc4/classG4LogicalVolume.html#ac048c68d9aacf76073be2b29c257094e" target="_top" xlink:title="G4LogicalVolume::SetVisAttributes">
<polygon fill="none" stroke="#000000" points="175,-.5 175,-20.5 367,-20.5 367,-.5 175,-.5"/>
<text text-anchor="middle" x="271" y="-7.5" font-family="FreeSans" font-size="10.00" fill="#000000">G4LogicalVolume::SetVisAttributes</text>
</a>
</g>
</g>
<!-- Node1&#45;&gt;Node27 -->
<g id="edge27" class="edge">
<title>Node1&#45;&gt;Node27</title>
<path fill="none" stroke="#191970" d="M71.346,-231.0566C78.0861,-196.2155 104.7537,-83.1474 175,-29.5 176.8651,-28.0757 178.8083,-26.7497 180.8159,-25.5157"/>
<polygon fill="#191970" stroke="#191970" points="182.7783,-28.4375 189.9875,-20.6737 179.5102,-22.2472 182.7783,-28.4375"/>
</g>
<!-- Node3 -->
<g id="node3" class="node">
<title>Node3</title>
<g id="a_node3"><a xlink:href="../../da/d34/classG4VSolid.html#a357592589246a98729ad94c0fe9ac2ac" target="_top" xlink:title="G4VSolid::EstimateCubicVolume">
<polygon fill="none" stroke="#000000" points="403,-438.5 403,-458.5 583,-458.5 583,-438.5 403,-438.5"/>
<text text-anchor="middle" x="493" y="-445.5" font-family="FreeSans" font-size="10.00" fill="#000000">G4VSolid::EstimateCubicVolume</text>
</a>
</g>
</g>
<!-- Node2&#45;&gt;Node3 -->
<g id="edge2" class="edge">
<title>Node2&#45;&gt;Node3</title>
<path fill="none" stroke="#191970" d="M347.7107,-448.5C362.1704,-448.5 377.491,-448.5 392.5503,-448.5"/>
<polygon fill="#191970" stroke="#191970" points="392.9204,-452.0001 402.9204,-448.5 392.9204,-445.0001 392.9204,-452.0001"/>
</g>
<!-- Node4 -->
<g id="node4" class="node">
<title>Node4</title>
<g id="a_node4"><a xlink:href="../../dd/d7e/namespaceActs_1_1Test.html#a51c29a20fb018e161cb50c4c3886c981" target="_top" xlink:title="Acts::Test::origin">
<polygon fill="none" stroke="#000000" points="644,-516.5 644,-536.5 744,-536.5 744,-516.5 644,-516.5"/>
<text text-anchor="middle" x="694" y="-523.5" font-family="FreeSans" font-size="10.00" fill="#000000">Acts::Test::origin</text>
</a>
</g>
</g>
<!-- Node3&#45;&gt;Node4 -->
<g id="edge3" class="edge">
<title>Node3&#45;&gt;Node4</title>
<path fill="none" stroke="#191970" d="M511.7361,-458.6522C535.9405,-471.4424 579.6473,-493.4456 619,-507.5 625.2892,-509.7461 631.9645,-511.8365 638.6386,-513.7468"/>
<polygon fill="#191970" stroke="#191970" points="637.8015,-517.1464 648.371,-516.4141 639.6518,-510.3953 637.8015,-517.1464"/>
</g>
<!-- Node5 -->
<g id="node5" class="node">
<title>Node5</title>
<g id="a_node5"><a xlink:href="../../da/d34/classG4VSolid.html#a4ed82441505459822c07079860c6c76f" target="_top" xlink:title="G4VSolid::CalculateExtent">
<polygon fill="none" stroke="#000000" points="619,-477.5 619,-497.5 769,-497.5 769,-477.5 619,-477.5"/>
<text text-anchor="middle" x="694" y="-484.5" font-family="FreeSans" font-size="10.00" fill="#000000">G4VSolid::CalculateExtent</text>
</a>
</g>
</g>
<!-- Node3&#45;&gt;Node5 -->
<g id="edge4" class="edge">
<title>Node3&#45;&gt;Node5</title>
<path fill="none" stroke="#191970" d="M544.7625,-458.5435C571.4902,-463.7294 604.2861,-470.0928 632.3201,-475.5323"/>
<polygon fill="#191970" stroke="#191970" points="631.9293,-479.0216 642.4129,-477.4906 633.2627,-472.1498 631.9293,-479.0216"/>
</g>
<!-- Node6 -->
<g id="node6" class="node">
<title>Node6</title>
<g id="a_node6"><a xlink:href="../../d8/d78/G4DNAElectronHoleRecombination_8cc.html#a52ed790cfb69e275fdf43ed0ba078867" target="_top" xlink:title="epsilon">
<polygon fill="none" stroke="#000000" points="668,-438.5 668,-458.5 720,-458.5 720,-438.5 668,-438.5"/>
<text text-anchor="middle" x="694" y="-445.5" font-family="FreeSans" font-size="10.00" fill="#000000">epsilon</text>
</a>
</g>
</g>
<!-- Node3&#45;&gt;Node6 -->
<g id="edge5" class="edge">
<title>Node3&#45;&gt;Node6</title>
<path fill="none" stroke="#191970" d="M583.2109,-448.5C609.6377,-448.5 637.0235,-448.5 657.9559,-448.5"/>
<polygon fill="#191970" stroke="#191970" points="657.9771,-452.0001 667.977,-448.5 657.977,-445.0001 657.9771,-452.0001"/>
</g>
<!-- Node16 -->
<g id="node16" class="node">
<title>Node16</title>
<g id="a_node16"><a xlink:href="../../d4/d14/G4QuickRand_8hh.html#a308c613707c48bab0df7deaf165da73a" target="_top" xlink:title="G4QuickRand">
<polygon fill="none" stroke="#000000" points="651.5,-399.5 651.5,-419.5 736.5,-419.5 736.5,-399.5 651.5,-399.5"/>
<text text-anchor="middle" x="694" y="-406.5" font-family="FreeSans" font-size="10.00" fill="#000000">G4QuickRand</text>
</a>
</g>
</g>
<!-- Node3&#45;&gt;Node16 -->
<g id="edge16" class="edge">
<title>Node3&#45;&gt;Node16</title>
<path fill="none" stroke="#191970" d="M544.7625,-438.4565C574.3127,-432.7229 611.2804,-425.5501 641.0295,-419.7779"/>
<polygon fill="#191970" stroke="#191970" points="642.0768,-423.14 651.227,-417.7992 640.7434,-416.2682 642.0768,-423.14"/>
</g>
<!-- Node17 -->
<g id="node17" class="node">
<title>Node17</title>
<g id="a_node17"><a xlink:href="../../da/d34/classG4VSolid.html#a65ec466e3542e3a700b4dc70937a2c47" target="_top" xlink:title="G4VSolid::Inside">
<polygon fill="none" stroke="#000000" points="644.5,-360.5 644.5,-380.5 743.5,-380.5 743.5,-360.5 644.5,-360.5"/>
<text text-anchor="middle" x="694" y="-367.5" font-family="FreeSans" font-size="10.00" fill="#000000">G4VSolid::Inside</text>
</a>
</g>
</g>
<!-- Node3&#45;&gt;Node17 -->
<g id="edge17" class="edge">
<title>Node3&#45;&gt;Node17</title>
<path fill="none" stroke="#191970" d="M512.2095,-438.4013C536.5507,-425.9005 580.0348,-404.5471 619,-390.5 626.1398,-387.9261 633.7682,-385.5166 641.3245,-383.3239"/>
<polygon fill="#191970" stroke="#191970" points="642.4817,-386.6347 651.1694,-380.5707 640.5963,-379.8934 642.4817,-386.6347"/>
</g>
<!-- Node7 -->
<g id="node7" class="node">
<title>Node7</title>
<g id="a_node7"><a xlink:href="../../d8/d78/G4DNAElectronHoleRecombination_8cc.html#ab42bda1d2fdb27a0805df2018646485d" target="_top" xlink:title="C">
<polygon fill="none" stroke="#000000" points="815.5,-496.5 815.5,-516.5 844.5,-516.5 844.5,-496.5 815.5,-496.5"/>
<text text-anchor="middle" x="830" y="-503.5" font-family="FreeSans" font-size="10.00" fill="#000000">C</text>
</a>
</g>
</g>
<!-- Node6&#45;&gt;Node7 -->
<g id="edge6" class="edge">
<title>Node6&#45;&gt;Node7</title>
<path fill="none" stroke="#191970" d="M720.3258,-453.512C735.0079,-456.799 753.42,-461.7495 769,-468.5 782.5505,-474.3712 796.6104,-482.9362 807.8122,-490.4492"/>
<polygon fill="#191970" stroke="#191970" points="805.8993,-493.3816 816.1186,-496.1773 809.8732,-487.6189 805.8993,-493.3816"/>
</g>
<!-- Node10 -->
<g id="node10" class="node">
<title>Node10</title>
<g id="a_node10"><a xlink:href="../../d8/d78/G4DNAElectronHoleRecombination_8cc.html#af897c249c47cdbc05d8382d8f42c08be" target="_top" xlink:title="D">
<polygon fill="none" stroke="#000000" points="815.5,-457.5 815.5,-477.5 844.5,-477.5 844.5,-457.5 815.5,-457.5"/>
<text text-anchor="middle" x="830" y="-464.5" font-family="FreeSans" font-size="10.00" fill="#000000">D</text>
</a>
</g>
</g>
<!-- Node6&#45;&gt;Node10 -->
<g id="edge9" class="edge">
<title>Node6&#45;&gt;Node10</title>
<path fill="none" stroke="#191970" d="M720.2222,-452.1634C744.7208,-455.586 781.0313,-460.6588 805.0949,-464.0206"/>
<polygon fill="#191970" stroke="#191970" points="804.8148,-467.5154 815.203,-465.4328 805.7834,-460.5827 804.8148,-467.5154"/>
</g>
<!-- Node11 -->
<g id="node11" class="node">
<title>Node11</title>
<g id="a_node11"><a xlink:href="../../d0/dcc/G4Exp_8hh.html#a224eb86aa032b59b4fa6398ea1eb566a" target="_top" xlink:title="Exponential Function double precision.">
<polygon fill="none" stroke="#000000" points="805,-418.5 805,-438.5 855,-438.5 855,-418.5 805,-418.5"/>
<text text-anchor="middle" x="830" y="-425.5" font-family="FreeSans" font-size="10.00" fill="#000000">G4Exp</text>
</a>
</g>
</g>
<!-- Node6&#45;&gt;Node11 -->
<g id="edge11" class="edge">
<title>Node6&#45;&gt;Node11</title>
<path fill="none" stroke="#191970" d="M720.2222,-444.6438C741.374,-441.5332 771.3308,-437.1278 794.6084,-433.7046"/>
<polygon fill="#191970" stroke="#191970" points="795.3936,-437.1269 804.7779,-432.2091 794.3751,-430.2014 795.3936,-437.1269"/>
</g>
<!-- Node15 -->
<g id="node15" class="node">
<title>Node15</title>
<g id="a_node15"><a xlink:href="../../d8/d78/G4DNAElectronHoleRecombination_8cc.html#a78a47533cb7a50cbc6a737462fe90407" target="_top" xlink:title="S">
<polygon fill="none" stroke="#000000" points="815.5,-379.5 815.5,-399.5 844.5,-399.5 844.5,-379.5 815.5,-379.5"/>
<text text-anchor="middle" x="830" y="-386.5" font-family="FreeSans" font-size="10.00" fill="#000000">S</text>
</a>
</g>
</g>
<!-- Node6&#45;&gt;Node15 -->
<g id="edge15" class="edge">
<title>Node6&#45;&gt;Node15</title>
<path fill="none" stroke="#191970" d="M720.0438,-444.1192C734.8039,-441.096 753.3841,-436.3663 769,-429.5 783.0872,-423.3059 797.5449,-413.9796 808.8473,-405.8903"/>
<polygon fill="#191970" stroke="#191970" points="811.1989,-408.5048 817.1678,-399.7514 807.043,-402.872 811.1989,-408.5048"/>
</g>
<!-- Node8 -->
<g id="node8" class="node">
<title>Node8</title>
<g id="a_node8"><a xlink:href="../../d8/d78/G4DNAElectronHoleRecombination_8cc.html#acd7c90d16eed59d534d702f94b65af4c" target="_top" xlink:title="A">
<polygon fill="none" stroke="#000000" points="947.5,-496.5 947.5,-516.5 976.5,-516.5 976.5,-496.5 947.5,-496.5"/>
<text text-anchor="middle" x="962" y="-503.5" font-family="FreeSans" font-size="10.00" fill="#000000">A</text>
</a>
</g>
</g>
<!-- Node7&#45;&gt;Node8 -->
<g id="edge7" class="edge">
<title>Node7&#45;&gt;Node8</title>
<path fill="none" stroke="#191970" d="M844.6307,-506.5C866.9312,-506.5 909.7088,-506.5 936.9996,-506.5"/>
<polygon fill="#191970" stroke="#191970" points="937.3038,-510.0001 947.3038,-506.5 937.3038,-503.0001 937.3038,-510.0001"/>
</g>
<!-- Node9 -->
<g id="node9" class="node">
<title>Node9</title>
<g id="a_node9"><a xlink:href="../../d8/d78/G4DNAElectronHoleRecombination_8cc.html#a0a45f4b6e4ca7ef6fbc7b39610bbe8b6" target="_top" xlink:title="B">
<polygon fill="none" stroke="#000000" points="947.5,-457.5 947.5,-477.5 976.5,-477.5 976.5,-457.5 947.5,-457.5"/>
<text text-anchor="middle" x="962" y="-464.5" font-family="FreeSans" font-size="10.00" fill="#000000">B</text>
</a>
</g>
</g>
<!-- Node7&#45;&gt;Node9 -->
<g id="edge8" class="edge">
<title>Node7&#45;&gt;Node9</title>
<path fill="none" stroke="#191970" d="M844.5095,-501.858C856.8473,-497.9402 875.0483,-492.23 891,-487.5 906.4584,-482.9162 923.8853,-478.0035 937.6052,-474.1941"/>
<polygon fill="#191970" stroke="#191970" points="938.5742,-477.5576 947.2804,-471.5199 936.7093,-470.8106 938.5742,-477.5576"/>
</g>
<!-- Node10&#45;&gt;Node9 -->
<g id="edge10" class="edge">
<title>Node10&#45;&gt;Node9</title>
<path fill="none" stroke="#191970" d="M844.6307,-467.5C866.9312,-467.5 909.7088,-467.5 936.9996,-467.5"/>
<polygon fill="#191970" stroke="#191970" points="937.3038,-471.0001 947.3038,-467.5 937.3038,-464.0001 937.3038,-471.0001"/>
</g>
<!-- Node12 -->
<g id="node12" class="node">
<title>Node12</title>
<g id="a_node12"><a xlink:href="../../d6/d3d/namespaceG4ExpConsts.html#a43fce99281fccf6a12240390cb3d356d" target="_top" xlink:title="G4ExpConsts::fpfloor">
<polygon fill="none" stroke="#000000" points="900,-418.5 900,-438.5 1024,-438.5 1024,-418.5 900,-418.5"/>
<text text-anchor="middle" x="962" y="-425.5" font-family="FreeSans" font-size="10.00" fill="#000000">G4ExpConsts::fpfloor</text>
</a>
</g>
</g>
<!-- Node11&#45;&gt;Node12 -->
<g id="edge12" class="edge">
<title>Node11&#45;&gt;Node12</title>
<path fill="none" stroke="#191970" d="M855.1389,-428.5C865.2319,-428.5 877.4267,-428.5 889.9146,-428.5"/>
<polygon fill="#191970" stroke="#191970" points="889.958,-432.0001 899.958,-428.5 889.9579,-425.0001 889.958,-432.0001"/>
</g>
<!-- Node14 -->
<g id="node14" class="node">
<title>Node14</title>
<g id="a_node14"><a xlink:href="../../d6/d3d/namespaceG4ExpConsts.html#a3329e0caa20fcb41a3b5ca0f9e0b4369" target="_top" xlink:title="G4ExpConsts::uint642dp">
<polygon fill="none" stroke="#000000" points="891,-379.5 891,-399.5 1033,-399.5 1033,-379.5 891,-379.5"/>
<text text-anchor="middle" x="962" y="-386.5" font-family="FreeSans" font-size="10.00" fill="#000000">G4ExpConsts::uint642dp</text>
</a>
</g>
</g>
<!-- Node11&#45;&gt;Node14 -->
<g id="edge14" class="edge">
<title>Node11&#45;&gt;Node14</title>
<path fill="none" stroke="#191970" d="M855.1795,-420.4873C866.1598,-417.0372 879.1958,-413.0002 891,-409.5 898.9431,-407.1447 907.4059,-404.7025 915.6186,-402.3678"/>
<polygon fill="#191970" stroke="#191970" points="916.7891,-405.6742 925.4603,-399.5864 914.8853,-398.938 916.7891,-405.6742"/>
</g>
<!-- Node13 -->
<g id="node13" class="node">
<title>Node13</title>
<g id="a_node13"><a xlink:href="../../d6/d3d/namespaceG4ExpConsts.html#ae65bec55d9eb97e48fade672e413332f" target="_top" xlink:title="G4ExpConsts::sp2uint32">
<polygon fill="none" stroke="#000000" points="1069,-418.5 1069,-438.5 1210,-438.5 1210,-418.5 1069,-418.5"/>
<text text-anchor="middle" x="1139.5" y="-425.5" font-family="FreeSans" font-size="10.00" fill="#000000">G4ExpConsts::sp2uint32</text>
</a>
</g>
</g>
<!-- Node12&#45;&gt;Node13 -->
<g id="edge13" class="edge">
<title>Node12&#45;&gt;Node13</title>
<path fill="none" stroke="#191970" d="M1024.0809,-428.5C1035.2926,-428.5 1047.1304,-428.5 1058.782,-428.5"/>
<polygon fill="#191970" stroke="#191970" points="1058.9529,-432.0001 1068.9529,-428.5 1058.9528,-425.0001 1058.9529,-432.0001"/>
</g>
</g>
</svg>
