<?xml version="1.0" encoding="UTF-8" standalone="no"?>
<!DOCTYPE svg PUBLIC "-//W3C//DTD SVG 1.1//EN"
 "http://www.w3.org/Graphics/SVG/1.1/DTD/svg11.dtd">
<!-- Generated by graphviz version 2.40.1 (20161225.0304)
 -->
<!-- Title: geant4/tree/geant4&#45;10.6&#45;release/examples/extended/runAndEvent/RE03/RE03.cc Pages: 1 -->
<svg width="3978pt" height="464pt"
 viewBox="0.00 0.00 3977.69 464.00" xmlns="http://www.w3.org/2000/svg" xmlns:xlink="http://www.w3.org/1999/xlink">
<g id="graph0" class="graph" transform="scale(1 1) rotate(0) translate(4 460)">
<title>geant4/tree/geant4&#45;10.6&#45;release/examples/extended/runAndEvent/RE03/RE03.cc</title>
<!-- Node1 -->
<g id="node1" class="node">
<title>Node1</title>
<polygon fill="#bfbfbf" stroke="#000000" points="1275.185,-399.5 1275.185,-455.5 1413.185,-455.5 1413.185,-399.5 1275.185,-399.5"/>
<text text-anchor="start" x="1283.185" y="-442.5" font-family="FreeSans" font-size="10.00" fill="#000000">geant4/tree/geant4</text>
<text text-anchor="start" x="1283.185" y="-430.5" font-family="FreeSans" font-size="10.00" fill="#000000">&#45;10.6&#45;release/examples</text>
<text text-anchor="start" x="1283.185" y="-418.5" font-family="FreeSans" font-size="10.00" fill="#000000">/extended/runAndEvent</text>
<text text-anchor="middle" x="1344.185" y="-406.5" font-family="FreeSans" font-size="10.00" fill="#000000">/RE03/RE03.cc</text>
</g>
<!-- Node2 -->
<g id="node2" class="node">
<title>Node2</title>
<g id="a_node2"><a xlink:href="../../de/d29/G4Types_8hh.html" target="_top" xlink:title="G4Types.hh">
<polygon fill="none" stroke="#000000" points="391.685,-114.5 391.685,-134.5 466.685,-134.5 466.685,-114.5 391.685,-114.5"/>
<text text-anchor="middle" x="429.185" y="-121.5" font-family="FreeSans" font-size="10.00" fill="#000000">G4Types.hh</text>
</a>
</g>
</g>
<!-- Node1&#45;&gt;Node2 -->
<g id="edge1" class="edge">
<title>Node1&#45;&gt;Node2</title>
<path fill="none" stroke="#191970" d="M1274.8075,-424.3582C999.7987,-411.4545 1.185,-360.1475 1.185,-295.5 1.185,-295.5 1.185,-295.5 1.185,-238.5 1.185,-207.3342 -3.5551,-191.192 20.185,-171 47.2892,-147.9467 279.7626,-132.6194 381.6589,-126.9497"/>
<polygon fill="#191970" stroke="#191970" points="381.8884,-130.4424 391.6816,-126.3998 381.5049,-123.4529 381.8884,-130.4424"/>
</g>
<!-- Node6 -->
<g id="node6" class="node">
<title>Node6</title>
<g id="a_node6"><a xlink:href="../../da/de4/G4RunManager_8hh.html" target="_top" xlink:title="G4RunManager.hh">
<polygon fill="none" stroke="#000000" points="724.685,-342.5 724.685,-362.5 833.685,-362.5 833.685,-342.5 724.685,-342.5"/>
<text text-anchor="middle" x="779.185" y="-349.5" font-family="FreeSans" font-size="10.00" fill="#000000">G4RunManager.hh</text>
</a>
</g>
</g>
<!-- Node1&#45;&gt;Node6 -->
<g id="edge6" class="edge">
<title>Node1&#45;&gt;Node6</title>
<path fill="none" stroke="#191970" d="M1274.9049,-418.3035C1164.7166,-403.6768 951.0595,-375.3152 843.845,-361.0832"/>
<polygon fill="#191970" stroke="#191970" points="844.1823,-357.5973 833.8087,-359.7509 843.2611,-364.5365 844.1823,-357.5973"/>
</g>
<!-- Node17 -->
<g id="node17" class="node">
<title>Node17</title>
<g id="a_node17"><a xlink:href="../../d6/de9/G4UImanager_8hh.html" target="_top" xlink:title="G4UImanager.hh">
<polygon fill="none" stroke="#000000" points="222.685,-228.5 222.685,-248.5 323.685,-248.5 323.685,-228.5 222.685,-228.5"/>
<text text-anchor="middle" x="273.185" y="-235.5" font-family="FreeSans" font-size="10.00" fill="#000000">G4UImanager.hh</text>
</a>
</g>
</g>
<!-- Node1&#45;&gt;Node17 -->
<g id="edge26" class="edge">
<title>Node1&#45;&gt;Node17</title>
<path fill="none" stroke="#191970" d="M1274.8135,-423.9281C1158.3807,-417.1441 916.6024,-399.672 715.185,-363 617.5045,-345.2153 594.7643,-332.8771 499.185,-306 434.8675,-287.9138 360.7318,-265.4628 315.4194,-251.5576"/>
<polygon fill="#191970" stroke="#191970" points="316.2367,-248.1473 305.6497,-248.5549 314.1801,-254.8384 316.2367,-248.1473"/>
</g>
<!-- Node23 -->
<g id="node23" class="node">
<title>Node23</title>
<g id="a_node23"><a xlink:href="../../d0/d2d/G4ScoringManager_8hh.html" target="_top" xlink:title="G4ScoringManager.hh">
<polygon fill="none" stroke="#000000" points="1851.185,-285.5 1851.185,-305.5 1979.185,-305.5 1979.185,-285.5 1851.185,-285.5"/>
<text text-anchor="middle" x="1915.185" y="-292.5" font-family="FreeSans" font-size="10.00" fill="#000000">G4ScoringManager.hh</text>
</a>
</g>
</g>
<!-- Node1&#45;&gt;Node23 -->
<g id="edge35" class="edge">
<title>Node1&#45;&gt;Node23</title>
<path fill="none" stroke="#191970" d="M1413.4305,-415.8585C1481.0424,-404.0756 1586.6758,-384.5591 1677.185,-363 1746.6152,-346.4619 1826.1946,-322.9516 1873.49,-308.4898"/>
<polygon fill="#191970" stroke="#191970" points="1874.5444,-311.8274 1883.0771,-305.5469 1872.4902,-305.1356 1874.5444,-311.8274"/>
</g>
<!-- Node27 -->
<g id="node27" class="node">
<title>Node27</title>
<g id="a_node27"><a xlink:href="../../d7/d39/RE03DetectorConstruction_8hh.html" target="_top" xlink:title="Definition of the RE03DetectorConstruction class.">
<polygon fill="none" stroke="#000000" points="1068.185,-285.5 1068.185,-305.5 1234.185,-305.5 1234.185,-285.5 1068.185,-285.5"/>
<text text-anchor="middle" x="1151.185" y="-292.5" font-family="FreeSans" font-size="10.00" fill="#000000">RE03DetectorConstruction.hh</text>
</a>
</g>
</g>
<!-- Node1&#45;&gt;Node27 -->
<g id="edge44" class="edge">
<title>Node1&#45;&gt;Node27</title>
<path fill="none" stroke="#191970" d="M1302.7817,-399.1827C1263.6674,-372.4309 1206.3913,-333.2577 1174.6144,-311.5243"/>
<polygon fill="#191970" stroke="#191970" points="1176.2215,-308.3831 1165.9915,-305.6267 1172.2698,-314.161 1176.2215,-308.3831"/>
</g>
<!-- Node29 -->
<g id="node29" class="node">
<title>Node29</title>
<g id="a_node29"><a xlink:href="../../d4/d72/FTFP__BERT_8hh.html" target="_top" xlink:title="FTFP_BERT.hh">
<polygon fill="none" stroke="#000000" points="1301.685,-285.5 1301.685,-305.5 1386.685,-305.5 1386.685,-285.5 1301.685,-285.5"/>
<text text-anchor="middle" x="1344.185" y="-292.5" font-family="FreeSans" font-size="10.00" fill="#000000">FTFP_BERT.hh</text>
</a>
</g>
</g>
<!-- Node1&#45;&gt;Node29 -->
<g id="edge49" class="edge">
<title>Node1&#45;&gt;Node29</title>
<path fill="none" stroke="#191970" d="M1344.185,-399.1827C1344.185,-374.1532 1344.185,-338.2499 1344.185,-315.9306"/>
<polygon fill="#191970" stroke="#191970" points="1347.6851,-315.6267 1344.185,-305.6267 1340.6851,-315.6267 1347.6851,-315.6267"/>
</g>
<!-- Node32 -->
<g id="node32" class="node">
<title>Node32</title>
<g id="a_node32"><a xlink:href="../../df/d65/RE03ActionInitialization_8hh.html" target="_top" xlink:title="Definition of the RE03ActionInitialization class.">
<polygon fill="none" stroke="#000000" points="1516.185,-342.5 1516.185,-362.5 1668.185,-362.5 1668.185,-342.5 1516.185,-342.5"/>
<text text-anchor="middle" x="1592.185" y="-349.5" font-family="FreeSans" font-size="10.00" fill="#000000">RE03ActionInitialization.hh</text>
</a>
</g>
</g>
<!-- Node1&#45;&gt;Node32 -->
<g id="edge55" class="edge">
<title>Node1&#45;&gt;Node32</title>
<path fill="none" stroke="#191970" d="M1413.2668,-406.6083C1456.9467,-393.3987 1512.0198,-376.7435 1549.4461,-365.4251"/>
<polygon fill="#191970" stroke="#191970" points="1550.4774,-368.7698 1559.0361,-362.5249 1548.4511,-362.0695 1550.4774,-368.7698"/>
</g>
<!-- Node34 -->
<g id="node34" class="node">
<title>Node34</title>
<g id="a_node34"><a xlink:href="../../db/d97/G4VisExecutive_8hh.html" target="_top" xlink:title="G4VisExecutive.hh">
<polygon fill="none" stroke="#000000" points="3045.185,-285.5 3045.185,-305.5 3155.185,-305.5 3155.185,-285.5 3045.185,-285.5"/>
<text text-anchor="middle" x="3100.185" y="-292.5" font-family="FreeSans" font-size="10.00" fill="#000000">G4VisExecutive.hh</text>
</a>
</g>
</g>
<!-- Node1&#45;&gt;Node34 -->
<g id="edge57" class="edge">
<title>Node1&#45;&gt;Node34</title>
<path fill="none" stroke="#191970" d="M1413.2925,-422.3051C1695.5924,-401.0844 2759.3096,-321.1239 3034.7392,-300.4196"/>
<polygon fill="#191970" stroke="#191970" points="3035.2603,-303.8904 3044.9698,-299.6506 3034.7355,-296.9101 3035.2603,-303.8904"/>
</g>
<!-- Node49 -->
<g id="node49" class="node">
<title>Node49</title>
<g id="a_node49"><a xlink:href="../../d5/d83/G4UIExecutive_8hh.html" target="_top" xlink:title="G4UIExecutive.hh">
<polygon fill="none" stroke="#000000" points="1421.185,-285.5 1421.185,-305.5 1527.185,-305.5 1527.185,-285.5 1421.185,-285.5"/>
<text text-anchor="middle" x="1474.185" y="-292.5" font-family="FreeSans" font-size="10.00" fill="#000000">G4UIExecutive.hh</text>
</a>
</g>
</g>
<!-- Node1&#45;&gt;Node49 -->
<g id="edge75" class="edge">
<title>Node1&#45;&gt;Node49</title>
<path fill="none" stroke="#191970" d="M1372.0733,-399.1827C1397.8543,-373.005 1435.3493,-334.9332 1457.0022,-312.9472"/>
<polygon fill="#191970" stroke="#191970" points="1459.6885,-315.2075 1464.2117,-305.6267 1454.7011,-310.2957 1459.6885,-315.2075"/>
</g>
<!-- Node3 -->
<g id="node3" class="node">
<title>Node3</title>
<polygon fill="none" stroke="#bfbfbf" points="379.685,-.5 379.685,-20.5 490.685,-20.5 490.685,-.5 379.685,-.5"/>
<text text-anchor="middle" x="435.185" y="-7.5" font-family="FreeSans" font-size="10.00" fill="#000000">G4GlobalConfig.hh</text>
</g>
<!-- Node2&#45;&gt;Node3 -->
<g id="edge2" class="edge">
<title>Node2&#45;&gt;Node3</title>
<path fill="none" stroke="#191970" d="M416.5233,-114.4369C402.06,-101.6318 381.4532,-78.579 390.185,-57 394.8309,-45.5186 403.8213,-35.3021 412.5526,-27.3904"/>
<polygon fill="#191970" stroke="#191970" points="414.9771,-29.9242 420.3662,-20.8023 410.4649,-24.5726 414.9771,-29.9242"/>
</g>
<!-- Node4 -->
<g id="node4" class="node">
<title>Node4</title>
<polygon fill="none" stroke="#bfbfbf" points="399.685,-57.5 399.685,-77.5 458.685,-77.5 458.685,-57.5 399.685,-57.5"/>
<text text-anchor="middle" x="429.185" y="-64.5" font-family="FreeSans" font-size="10.00" fill="#000000">complex</text>
</g>
<!-- Node2&#45;&gt;Node4 -->
<g id="edge3" class="edge">
<title>Node2&#45;&gt;Node4</title>
<path fill="none" stroke="#191970" d="M429.185,-114.3095C429.185,-106.9335 429.185,-96.72 429.185,-87.715"/>
<polygon fill="#191970" stroke="#191970" points="432.6851,-87.6022 429.185,-77.6022 425.6851,-87.6023 432.6851,-87.6022"/>
</g>
<!-- Node5 -->
<g id="node5" class="node">
<title>Node5</title>
<g id="a_node5"><a xlink:href="../../d0/d00/tls_8hh.html" target="_top" xlink:title="tls.hh">
<polygon fill="none" stroke="#000000" points="477.185,-57.5 477.185,-77.5 521.185,-77.5 521.185,-57.5 477.185,-57.5"/>
<text text-anchor="middle" x="499.185" y="-64.5" font-family="FreeSans" font-size="10.00" fill="#000000">tls.hh</text>
</a>
</g>
</g>
<!-- Node2&#45;&gt;Node5 -->
<g id="edge4" class="edge">
<title>Node2&#45;&gt;Node5</title>
<path fill="none" stroke="#191970" d="M441.6996,-114.3095C452.052,-105.8798 466.9557,-93.7439 478.9937,-83.9415"/>
<polygon fill="#191970" stroke="#191970" points="481.2344,-86.6306 486.7788,-77.6022 476.8144,-81.2025 481.2344,-86.6306"/>
</g>
<!-- Node5&#45;&gt;Node3 -->
<g id="edge5" class="edge">
<title>Node5&#45;&gt;Node3</title>
<path fill="none" stroke="#191970" d="M487.7431,-57.3095C478.4601,-49.0419 465.1744,-37.2093 454.2835,-27.5096"/>
<polygon fill="#191970" stroke="#191970" points="456.3234,-24.6395 446.5279,-20.6022 451.6677,-29.8668 456.3234,-24.6395"/>
</g>
<!-- Node7 -->
<g id="node7" class="node">
<title>Node7</title>
<g id="a_node7"><a xlink:href="../../dc/d47/G4RunManagerKernel_8hh.html" target="_top" xlink:title="G4RunManagerKernel.hh">
<polygon fill="none" stroke="#000000" points="807.185,-285.5 807.185,-305.5 949.185,-305.5 949.185,-285.5 807.185,-285.5"/>
<text text-anchor="middle" x="878.185" y="-292.5" font-family="FreeSans" font-size="10.00" fill="#000000">G4RunManagerKernel.hh</text>
</a>
</g>
</g>
<!-- Node6&#45;&gt;Node7 -->
<g id="edge7" class="edge">
<title>Node6&#45;&gt;Node7</title>
<path fill="none" stroke="#191970" d="M796.8842,-342.3095C812.0885,-333.5556 834.2344,-320.8049 851.5746,-310.8211"/>
<polygon fill="#191970" stroke="#191970" points="853.7192,-313.6251 860.639,-305.6022 850.2264,-307.5587 853.7192,-313.6251"/>
</g>
<!-- Node8 -->
<g id="node8" class="node">
<title>Node8</title>
<g id="a_node8"><a xlink:href="../../da/d46/globals_8hh.html" target="_top" xlink:title="globals.hh">
<polygon fill="none" stroke="#ff0000" points="959.185,-171.5 959.185,-191.5 1027.185,-191.5 1027.185,-171.5 959.185,-171.5"/>
<text text-anchor="middle" x="993.185" y="-178.5" font-family="FreeSans" font-size="10.00" fill="#000000">globals.hh</text>
</a>
</g>
</g>
<!-- Node6&#45;&gt;Node8 -->
<g id="edge23" class="edge">
<title>Node6&#45;&gt;Node8</title>
<path fill="none" stroke="#191970" d="M833.8304,-344.4025C879.7371,-336.5324 940.5875,-323.2509 958.185,-306 986.6506,-278.0951 992.4673,-229.0156 993.3589,-201.5523"/>
<polygon fill="#191970" stroke="#191970" points="996.8586,-201.5898 993.4933,-191.5437 989.8592,-201.4957 996.8586,-201.5898"/>
</g>
<!-- Node9 -->
<g id="node9" class="node">
<title>Node9</title>
<polygon fill="none" stroke="#bfbfbf" points="834.685,-114.5 834.685,-134.5 899.685,-134.5 899.685,-114.5 834.685,-114.5"/>
<text text-anchor="middle" x="867.185" y="-121.5" font-family="FreeSans" font-size="10.00" fill="#000000">algorithm</text>
</g>
<!-- Node6&#45;&gt;Node9 -->
<g id="edge25" class="edge">
<title>Node6&#45;&gt;Node9</title>
<path fill="none" stroke="#191970" d="M774.0988,-342.3616C763.8935,-320.5372 743.2858,-267.8578 760.185,-228 776.6097,-189.2614 815.4187,-157.9354 841.4983,-140.2612"/>
<polygon fill="#191970" stroke="#191970" points="843.6974,-143.0043 850.1346,-134.5892 839.8547,-137.1533 843.6974,-143.0043"/>
</g>
<!-- Node10 -->
<g id="node10" class="node">
<title>Node10</title>
<g id="a_node10"><a xlink:href="../../db/d5e/G4EventManager_8hh.html" target="_top" xlink:title="G4EventManager.hh">
<polygon fill="none" stroke="#ff0000" points="769.685,-228.5 769.685,-248.5 888.685,-248.5 888.685,-228.5 769.685,-228.5"/>
<text text-anchor="middle" x="829.185" y="-235.5" font-family="FreeSans" font-size="10.00" fill="#000000">G4EventManager.hh</text>
</a>
</g>
</g>
<!-- Node6&#45;&gt;Node10 -->
<g id="edge22" class="edge">
<title>Node6&#45;&gt;Node10</title>
<path fill="none" stroke="#191970" d="M781.0593,-342.0835C783.7357,-328.5116 789.3315,-304.2441 798.185,-285 802.7116,-275.161 809.1846,-265.0614 815.046,-256.7991"/>
<polygon fill="#191970" stroke="#191970" points="817.9328,-258.7815 821.0451,-248.6541 812.2966,-254.6302 817.9328,-258.7815"/>
</g>
<!-- Node11 -->
<g id="node11" class="node">
<title>Node11</title>
<g id="a_node11"><a xlink:href="../../dc/dab/G4Event_8hh.html" target="_top" xlink:title="G4Event.hh">
<polygon fill="none" stroke="#ff0000" points="508.685,-285.5 508.685,-305.5 583.685,-305.5 583.685,-285.5 508.685,-285.5"/>
<text text-anchor="middle" x="546.185" y="-292.5" font-family="FreeSans" font-size="10.00" fill="#000000">G4Event.hh</text>
</a>
</g>
</g>
<!-- Node6&#45;&gt;Node11 -->
<g id="edge13" class="edge">
<title>Node6&#45;&gt;Node11</title>
<path fill="none" stroke="#191970" d="M738.0656,-342.4408C697.6691,-332.5583 636.0814,-317.4918 593.6322,-307.1072"/>
<polygon fill="#191970" stroke="#191970" points="594.3579,-303.6816 583.8126,-304.705 592.6945,-310.4811 594.3579,-303.6816"/>
</g>
<!-- Node16 -->
<g id="node16" class="node">
<title>Node16</title>
<polygon fill="none" stroke="#bfbfbf" points="681.185,-285.5 681.185,-305.5 713.185,-305.5 713.185,-285.5 681.185,-285.5"/>
<text text-anchor="middle" x="697.185" y="-292.5" font-family="FreeSans" font-size="10.00" fill="#000000">list</text>
</g>
<!-- Node6&#45;&gt;Node16 -->
<g id="edge24" class="edge">
<title>Node6&#45;&gt;Node16</title>
<path fill="none" stroke="#191970" d="M764.5251,-342.3095C752.1648,-333.7177 734.266,-321.2758 720.0279,-311.3786"/>
<polygon fill="#191970" stroke="#191970" points="721.9269,-308.4361 711.7181,-305.6022 717.9315,-314.1839 721.9269,-308.4361"/>
</g>
<!-- Node7&#45;&gt;Node8 -->
<g id="edge8" class="edge">
<title>Node7&#45;&gt;Node8</title>
<path fill="none" stroke="#191970" d="M887.3006,-285.1657C899.3119,-271.6828 921.2533,-247.5114 941.185,-228 951.5974,-217.8072 963.7081,-206.9245 973.621,-198.2516"/>
<polygon fill="#191970" stroke="#191970" points="976.0857,-200.7469 981.3454,-191.5498 971.4983,-195.4596 976.0857,-200.7469"/>
</g>
<!-- Node7&#45;&gt;Node10 -->
<g id="edge11" class="edge">
<title>Node7&#45;&gt;Node10</title>
<path fill="none" stroke="#191970" d="M869.4248,-285.3095C862.5266,-277.2851 852.7413,-265.9022 844.5477,-256.3708"/>
<polygon fill="#191970" stroke="#191970" points="847.0424,-253.9038 837.8694,-248.6022 841.7342,-258.467 847.0424,-253.9038"/>
</g>
<!-- Node8&#45;&gt;Node2 -->
<g id="edge10" class="edge">
<title>Node8&#45;&gt;Node2</title>
<path fill="none" stroke="#191970" d="M959.1744,-178.0628C862.9656,-168.3395 588.6438,-140.6155 477.1641,-129.3489"/>
<polygon fill="#191970" stroke="#191970" points="477.1968,-125.8345 466.8955,-128.3112 476.4929,-132.799 477.1968,-125.8345"/>
</g>
<!-- Node8&#45;&gt;Node9 -->
<g id="edge9" class="edge">
<title>Node8&#45;&gt;Node9</title>
<path fill="none" stroke="#191970" d="M970.9488,-171.4408C950.9199,-162.3801 921.2579,-148.9615 898.7715,-138.7891"/>
<polygon fill="#191970" stroke="#191970" points="900.1765,-135.5833 889.6228,-134.6504 897.2913,-141.961 900.1765,-135.5833"/>
</g>
<!-- Node10&#45;&gt;Node8 -->
<g id="edge12" class="edge">
<title>Node10&#45;&gt;Node8</title>
<path fill="none" stroke="#191970" d="M858.1274,-228.4408C884.9777,-219.1087 925.1287,-205.1537 954.6769,-194.8839"/>
<polygon fill="#191970" stroke="#191970" points="955.9599,-198.1434 964.2566,-191.5544 953.6618,-191.5314 955.9599,-198.1434"/>
</g>
<!-- Node11&#45;&gt;Node8 -->
<g id="edge14" class="edge">
<title>Node11&#45;&gt;Node8</title>
<path fill="none" stroke="#191970" d="M574.6294,-285.4404C615.3613,-271.2852 692.8301,-245.2892 760.185,-228 825.3246,-211.2795 901.9978,-196.9962 949.0937,-188.8275"/>
<polygon fill="#191970" stroke="#191970" points="949.7046,-192.2739 958.9667,-187.1295 948.5182,-185.3751 949.7046,-192.2739"/>
</g>
<!-- Node12 -->
<g id="node12" class="node">
<title>Node12</title>
<g id="a_node12"><a xlink:href="../../da/d9b/evtdefs_8hh.html" target="_top" xlink:title="evtdefs.hh">
<polygon fill="none" stroke="#000000" points="515.685,-171.5 515.685,-191.5 584.685,-191.5 584.685,-171.5 515.685,-171.5"/>
<text text-anchor="middle" x="550.185" y="-178.5" font-family="FreeSans" font-size="10.00" fill="#000000">evtdefs.hh</text>
</a>
</g>
</g>
<!-- Node11&#45;&gt;Node12 -->
<g id="edge15" class="edge">
<title>Node11&#45;&gt;Node12</title>
<path fill="none" stroke="#191970" d="M508.3949,-293.7314C447.9743,-289.4827 339.9231,-275.2252 376.185,-228 378.2158,-225.3552 454.8351,-205.5794 505.7137,-192.6832"/>
<polygon fill="#191970" stroke="#191970" points="506.6806,-196.0489 515.5165,-190.2028 504.9635,-189.2628 506.6806,-196.0489"/>
</g>
<!-- Node13 -->
<g id="node13" class="node">
<title>Node13</title>
<g id="a_node13"><a xlink:href="../../dd/d3c/G4Allocator_8hh.html" target="_top" xlink:title="G4Allocator.hh">
<polygon fill="none" stroke="#ff0000" points="603.185,-171.5 603.185,-191.5 693.185,-191.5 693.185,-171.5 603.185,-171.5"/>
<text text-anchor="middle" x="648.185" y="-178.5" font-family="FreeSans" font-size="10.00" fill="#000000">G4Allocator.hh</text>
</a>
</g>
</g>
<!-- Node11&#45;&gt;Node13 -->
<g id="edge17" class="edge">
<title>Node11&#45;&gt;Node13</title>
<path fill="none" stroke="#191970" d="M508.2653,-290.7939C458.0064,-283.0336 378.9988,-264.6253 409.185,-228 409.5549,-227.5512 522.4961,-205.7189 592.9691,-192.1327"/>
<polygon fill="#191970" stroke="#191970" points="593.8833,-195.521 603.0402,-190.1915 592.5584,-188.6475 593.8833,-195.521"/>
</g>
<!-- Node14 -->
<g id="node14" class="node">
<title>Node14</title>
<g id="a_node14"><a xlink:href="../../d6/dd6/G4PrimaryVertex_8hh.html" target="_top" xlink:title="G4PrimaryVertex.hh">
<polygon fill="none" stroke="#ff0000" points="418.685,-228.5 418.685,-248.5 535.685,-248.5 535.685,-228.5 418.685,-228.5"/>
<text text-anchor="middle" x="477.185" y="-235.5" font-family="FreeSans" font-size="10.00" fill="#000000">G4PrimaryVertex.hh</text>
</a>
</g>
</g>
<!-- Node11&#45;&gt;Node14 -->
<g id="edge18" class="edge">
<title>Node11&#45;&gt;Node14</title>
<path fill="none" stroke="#191970" d="M533.8492,-285.3095C523.7429,-276.9608 509.2361,-264.9769 497.431,-255.2249"/>
<polygon fill="#191970" stroke="#191970" points="499.3528,-252.2727 489.414,-248.6022 494.8946,-257.6695 499.3528,-252.2727"/>
</g>
<!-- Node15 -->
<g id="node15" class="node">
<title>Node15</title>
<polygon fill="none" stroke="#bfbfbf" points="553.685,-228.5 553.685,-248.5 674.685,-248.5 674.685,-228.5 553.685,-228.5"/>
<text text-anchor="middle" x="614.185" y="-235.5" font-family="FreeSans" font-size="10.00" fill="#000000">G4HCofThisEvent.hh</text>
</g>
<!-- Node11&#45;&gt;Node15 -->
<g id="edge21" class="edge">
<title>Node11&#45;&gt;Node15</title>
<path fill="none" stroke="#191970" d="M558.3421,-285.3095C568.3019,-276.9608 582.5985,-264.9769 594.2325,-255.2249"/>
<polygon fill="#191970" stroke="#191970" points="596.7179,-257.7086 602.1332,-248.6022 592.2211,-252.344 596.7179,-257.7086"/>
</g>
<!-- Node12&#45;&gt;Node2 -->
<g id="edge16" class="edge">
<title>Node12&#45;&gt;Node2</title>
<path fill="none" stroke="#191970" d="M528.8312,-171.4408C509.683,-162.4205 481.3663,-149.0813 459.8077,-138.9255"/>
<polygon fill="#191970" stroke="#191970" points="461.2705,-135.7458 450.7324,-134.6504 458.2873,-142.0783 461.2705,-135.7458"/>
</g>
<!-- Node14&#45;&gt;Node8 -->
<g id="edge19" class="edge">
<title>Node14&#45;&gt;Node8</title>
<path fill="none" stroke="#191970" d="M535.9861,-229.1069C538.756,-228.7205 541.4996,-228.3492 544.185,-228 692.0046,-208.7761 868.0371,-192.4484 948.7524,-185.3259"/>
<polygon fill="#191970" stroke="#191970" points="949.3812,-188.7842 959.0366,-184.4227 948.7688,-181.811 949.3812,-188.7842"/>
</g>
<!-- Node14&#45;&gt;Node13 -->
<g id="edge20" class="edge">
<title>Node14&#45;&gt;Node13</title>
<path fill="none" stroke="#191970" d="M507.3628,-228.4408C535.4808,-219.0681 577.5881,-205.0323 608.4345,-194.7502"/>
<polygon fill="#191970" stroke="#191970" points="609.6418,-198.0371 618.0219,-191.5544 607.4282,-191.3963 609.6418,-198.0371"/>
</g>
<!-- Node17&#45;&gt;Node8 -->
<g id="edge27" class="edge">
<title>Node17&#45;&gt;Node8</title>
<path fill="none" stroke="#191970" d="M323.814,-234.4919C458.1572,-223.8564 822.0379,-195.0492 948.8664,-185.0086"/>
<polygon fill="#191970" stroke="#191970" points="949.2978,-188.4854 958.9904,-184.2071 948.7453,-181.5073 949.2978,-188.4854"/>
</g>
<!-- Node18 -->
<g id="node18" class="node">
<title>Node18</title>
<polygon fill="none" stroke="#bfbfbf" points="1600.685,-171.5 1600.685,-191.5 1649.685,-191.5 1649.685,-171.5 1600.685,-171.5"/>
<text text-anchor="middle" x="1625.185" y="-178.5" font-family="FreeSans" font-size="10.00" fill="#000000">vector</text>
</g>
<!-- Node17&#45;&gt;Node18 -->
<g id="edge28" class="edge">
<title>Node17&#45;&gt;Node18</title>
<path fill="none" stroke="#191970" d="M323.8517,-234.1182C349.4223,-232.0264 380.9328,-229.6302 409.185,-228 876.2723,-201.0485 1445.2225,-185.9288 1590.2552,-182.3392"/>
<polygon fill="#191970" stroke="#191970" points="1590.4279,-185.8362 1600.3388,-182.0914 1590.2558,-178.8383 1590.4279,-185.8362"/>
</g>
<!-- Node19 -->
<g id="node19" class="node">
<title>Node19</title>
<polygon fill="none" stroke="#bfbfbf" points="29.685,-171.5 29.685,-191.5 84.685,-191.5 84.685,-171.5 29.685,-171.5"/>
<text text-anchor="middle" x="57.185" y="-178.5" font-family="FreeSans" font-size="10.00" fill="#000000">fstream</text>
</g>
<!-- Node17&#45;&gt;Node19 -->
<g id="edge29" class="edge">
<title>Node17&#45;&gt;Node19</title>
<path fill="none" stroke="#191970" d="M232.6986,-228.4223C198.296,-219.7737 147.3606,-206.7693 94.882,-192.4196"/>
<polygon fill="#191970" stroke="#191970" points="95.6386,-188.9979 85.0688,-189.7253 93.7853,-195.7481 95.6386,-188.9979"/>
</g>
<!-- Node20 -->
<g id="node20" class="node">
<title>Node20</title>
<g id="a_node20"><a xlink:href="../../d5/d97/icomsdefs_8hh.html" target="_top" xlink:title="icomsdefs.hh">
<polygon fill="none" stroke="#000000" points="102.685,-171.5 102.685,-191.5 185.685,-191.5 185.685,-171.5 102.685,-171.5"/>
<text text-anchor="middle" x="144.185" y="-178.5" font-family="FreeSans" font-size="10.00" fill="#000000">icomsdefs.hh</text>
</a>
</g>
</g>
<!-- Node17&#45;&gt;Node20 -->
<g id="edge30" class="edge">
<title>Node17&#45;&gt;Node20</title>
<path fill="none" stroke="#191970" d="M250.4194,-228.4408C229.9136,-219.3801 199.5454,-205.9615 176.5236,-195.7891"/>
<polygon fill="#191970" stroke="#191970" points="177.7185,-192.4907 167.157,-191.6504 174.8893,-198.8935 177.7185,-192.4907"/>
</g>
<!-- Node21 -->
<g id="node21" class="node">
<title>Node21</title>
<g id="a_node21"><a xlink:href="../../d5/db9/G4VStateDependent_8hh.html" target="_top" xlink:title="G4VStateDependent.hh">
<polygon fill="none" stroke="#ff0000" points="361.185,-171.5 361.185,-191.5 497.185,-191.5 497.185,-171.5 361.185,-171.5"/>
<text text-anchor="middle" x="429.185" y="-178.5" font-family="FreeSans" font-size="10.00" fill="#000000">G4VStateDependent.hh</text>
</a>
</g>
</g>
<!-- Node17&#45;&gt;Node21 -->
<g id="edge32" class="edge">
<title>Node17&#45;&gt;Node21</title>
<path fill="none" stroke="#191970" d="M300.7156,-228.4408C326.145,-219.1492 364.1166,-205.275 392.1882,-195.0181"/>
<polygon fill="#191970" stroke="#191970" points="393.4763,-198.2738 401.6677,-191.5544 391.0739,-191.699 393.4763,-198.2738"/>
</g>
<!-- Node22 -->
<g id="node22" class="node">
<title>Node22</title>
<g id="a_node22"><a xlink:href="../../da/da0/G4UIcommandStatus_8hh.html" target="_top" xlink:title="G4UIcommandStatus.hh">
<polygon fill="none" stroke="#000000" points="203.685,-171.5 203.685,-191.5 342.685,-191.5 342.685,-171.5 203.685,-171.5"/>
<text text-anchor="middle" x="273.185" y="-178.5" font-family="FreeSans" font-size="10.00" fill="#000000">G4UIcommandStatus.hh</text>
</a>
</g>
</g>
<!-- Node17&#45;&gt;Node22 -->
<g id="edge34" class="edge">
<title>Node17&#45;&gt;Node22</title>
<path fill="none" stroke="#191970" d="M273.185,-228.3095C273.185,-220.9335 273.185,-210.72 273.185,-201.715"/>
<polygon fill="#191970" stroke="#191970" points="276.6851,-201.6022 273.185,-191.6022 269.6851,-201.6023 276.6851,-201.6022"/>
</g>
<!-- Node20&#45;&gt;Node2 -->
<g id="edge31" class="edge">
<title>Node20&#45;&gt;Node2</title>
<path fill="none" stroke="#191970" d="M185.9194,-172.6979C188.7159,-172.1198 191.4908,-171.5494 194.185,-171 258.9157,-157.7995 333.7933,-143.0778 381.3041,-133.8049"/>
<polygon fill="#191970" stroke="#191970" points="382.1605,-137.2039 391.3057,-131.8545 380.8206,-130.3333 382.1605,-137.2039"/>
</g>
<!-- Node21&#45;&gt;Node2 -->
<g id="edge33" class="edge">
<title>Node21&#45;&gt;Node2</title>
<path fill="none" stroke="#191970" d="M429.185,-171.3095C429.185,-163.9335 429.185,-153.72 429.185,-144.715"/>
<polygon fill="#191970" stroke="#191970" points="432.6851,-144.6022 429.185,-134.6022 425.6851,-144.6023 432.6851,-144.6022"/>
</g>
<!-- Node23&#45;&gt;Node8 -->
<g id="edge36" class="edge">
<title>Node23&#45;&gt;Node8</title>
<path fill="none" stroke="#191970" d="M1887.4156,-285.4351C1839.7456,-268.321 1744.1049,-234.7429 1709.185,-228 1579.4032,-202.9396 1172.7453,-187.4729 1037.4548,-182.9159"/>
<polygon fill="#191970" stroke="#191970" points="1037.5543,-179.4173 1027.4432,-182.582 1037.3209,-186.4135 1037.5543,-179.4173"/>
</g>
<!-- Node23&#45;&gt;Node18 -->
<g id="edge40" class="edge">
<title>Node23&#45;&gt;Node18</title>
<path fill="none" stroke="#191970" d="M1978.9496,-285.4182C2025.5652,-275.4101 2076.4235,-257.2659 2050.185,-228 2024.2761,-199.1017 1757.0015,-186.3845 1660.0614,-182.6982"/>
<polygon fill="#191970" stroke="#191970" points="1660.022,-179.1944 1649.8991,-182.3213 1659.7625,-186.1896 1660.022,-179.1944"/>
</g>
<!-- Node24 -->
<g id="node24" class="node">
<title>Node24</title>
<g id="a_node24"><a xlink:href="../../da/d3c/G4VScoringMesh_8hh.html" target="_top" xlink:title="G4VScoringMesh.hh">
<polygon fill="none" stroke="#ff0000" points="1923.185,-228.5 1923.185,-248.5 2041.185,-248.5 2041.185,-228.5 1923.185,-228.5"/>
<text text-anchor="middle" x="1982.185" y="-235.5" font-family="FreeSans" font-size="10.00" fill="#000000">G4VScoringMesh.hh</text>
</a>
</g>
</g>
<!-- Node23&#45;&gt;Node24 -->
<g id="edge37" class="edge">
<title>Node23&#45;&gt;Node24</title>
<path fill="none" stroke="#191970" d="M1927.1633,-285.3095C1936.9767,-276.9608 1951.063,-264.9769 1962.5259,-255.2249"/>
<polygon fill="#191970" stroke="#191970" points="1964.9618,-257.7479 1970.3105,-248.6022 1960.4259,-252.4162 1964.9618,-257.7479"/>
</g>
<!-- Node25 -->
<g id="node25" class="node">
<title>Node25</title>
<polygon fill="none" stroke="#bfbfbf" points="2045.685,-171.5 2045.685,-191.5 2084.685,-191.5 2084.685,-171.5 2045.685,-171.5"/>
<text text-anchor="middle" x="2065.185" y="-178.5" font-family="FreeSans" font-size="10.00" fill="#000000">map</text>
</g>
<!-- Node23&#45;&gt;Node25 -->
<g id="edge41" class="edge">
<title>Node23&#45;&gt;Node25</title>
<path fill="none" stroke="#191970" d="M1979.263,-289.7956C2061.4875,-281.817 2195.3628,-266.3416 2210.185,-249 2244.7017,-208.6163 2146.6417,-190.8934 2094.8868,-184.5156"/>
<polygon fill="#191970" stroke="#191970" points="2095.2453,-181.0338 2084.9079,-183.3553 2094.4367,-187.987 2095.2453,-181.0338"/>
</g>
<!-- Node26 -->
<g id="node26" class="node">
<title>Node26</title>
<g id="a_node26"><a xlink:href="../../d3/dc2/G4VScoreWriter_8hh.html" target="_top" xlink:title="G4VScoreWriter.hh">
<polygon fill="none" stroke="#000000" points="1793.685,-228.5 1793.685,-248.5 1904.685,-248.5 1904.685,-228.5 1793.685,-228.5"/>
<text text-anchor="middle" x="1849.185" y="-235.5" font-family="FreeSans" font-size="10.00" fill="#000000">G4VScoreWriter.hh</text>
</a>
</g>
</g>
<!-- Node23&#45;&gt;Node26 -->
<g id="edge42" class="edge">
<title>Node23&#45;&gt;Node26</title>
<path fill="none" stroke="#191970" d="M1903.3855,-285.3095C1893.7186,-276.9608 1879.8425,-264.9769 1868.5507,-255.2249"/>
<polygon fill="#191970" stroke="#191970" points="1870.7383,-252.4896 1860.8823,-248.6022 1866.1629,-257.7874 1870.7383,-252.4896"/>
</g>
<!-- Node24&#45;&gt;Node8 -->
<g id="edge38" class="edge">
<title>Node24&#45;&gt;Node8</title>
<path fill="none" stroke="#191970" d="M1922.893,-228.9776C1919.952,-228.6205 1917.0371,-228.2914 1914.185,-228 1578.4569,-193.6962 1171.1756,-184.3575 1037.7975,-182.1289"/>
<polygon fill="#191970" stroke="#191970" points="1037.6263,-178.6257 1027.5708,-181.9631 1037.5127,-185.6248 1037.6263,-178.6257"/>
</g>
<!-- Node24&#45;&gt;Node25 -->
<g id="edge39" class="edge">
<title>Node24&#45;&gt;Node25</title>
<path fill="none" stroke="#191970" d="M1997.0238,-228.3095C2009.5347,-219.7177 2027.6519,-207.2758 2042.0635,-197.3786"/>
<polygon fill="#191970" stroke="#191970" points="2044.2128,-200.1485 2050.4748,-191.6022 2040.25,-194.3782 2044.2128,-200.1485"/>
</g>
<!-- Node26&#45;&gt;Node8 -->
<g id="edge43" class="edge">
<title>Node26&#45;&gt;Node8</title>
<path fill="none" stroke="#191970" d="M1793.4582,-229.6799C1788.6375,-229.0569 1783.8295,-228.4847 1779.185,-228 1497.7477,-198.6272 1157.535,-186.3528 1037.6136,-182.7302"/>
<polygon fill="#191970" stroke="#191970" points="1037.4648,-179.2243 1027.3652,-182.4256 1037.2568,-186.2212 1037.4648,-179.2243"/>
</g>
<!-- Node27&#45;&gt;Node8 -->
<g id="edge48" class="edge">
<title>Node27&#45;&gt;Node8</title>
<path fill="none" stroke="#191970" d="M1086.8511,-285.4421C1062.3647,-278.7288 1035.8869,-267.5603 1017.185,-249 1004.5224,-236.4333 998.515,-216.758 995.6803,-201.8852"/>
<polygon fill="#191970" stroke="#191970" points="999.0815,-200.9818 994.0733,-191.6454 992.1661,-202.0671 999.0815,-200.9818"/>
</g>
<!-- Node28 -->
<g id="node28" class="node">
<title>Node28</title>
<g id="a_node28"><a xlink:href="../../d3/dc7/G4VUserDetectorConstruction_8hh.html" target="_top" xlink:title="G4VUserDetectorConstruction.hh">
<polygon fill="none" stroke="#000000" points="1059.185,-228.5 1059.185,-248.5 1243.185,-248.5 1243.185,-228.5 1059.185,-228.5"/>
<text text-anchor="middle" x="1151.185" y="-235.5" font-family="FreeSans" font-size="10.00" fill="#000000">G4VUserDetectorConstruction.hh</text>
</a>
</g>
</g>
<!-- Node27&#45;&gt;Node28 -->
<g id="edge45" class="edge">
<title>Node27&#45;&gt;Node28</title>
<path fill="none" stroke="#191970" d="M1151.185,-285.3095C1151.185,-277.9335 1151.185,-267.72 1151.185,-258.715"/>
<polygon fill="#191970" stroke="#191970" points="1154.6851,-258.6022 1151.185,-248.6022 1147.6851,-258.6023 1154.6851,-258.6022"/>
</g>
<!-- Node28&#45;&gt;Node8 -->
<g id="edge47" class="edge">
<title>Node28&#45;&gt;Node8</title>
<path fill="none" stroke="#191970" d="M1123.3015,-228.4408C1097.546,-219.1492 1059.0876,-205.275 1030.6562,-195.0181"/>
<polygon fill="#191970" stroke="#191970" points="1031.6494,-191.6557 1021.0551,-191.5544 1029.2739,-198.2403 1031.6494,-191.6557"/>
</g>
<!-- Node28&#45;&gt;Node18 -->
<g id="edge46" class="edge">
<title>Node28&#45;&gt;Node18</title>
<path fill="none" stroke="#191970" d="M1234.5636,-228.4735C1339.6376,-215.838 1515.4987,-194.6901 1590.0613,-185.7237"/>
<polygon fill="#191970" stroke="#191970" points="1590.7963,-189.1607 1600.3068,-184.4917 1589.9605,-182.2107 1590.7963,-189.1607"/>
</g>
<!-- Node29&#45;&gt;Node8 -->
<g id="edge51" class="edge">
<title>Node29&#45;&gt;Node8</title>
<path fill="none" stroke="#191970" d="M1301.4058,-290.4086C1225.1591,-281.0887 1071.7098,-261.1307 1050.185,-249 1030.0457,-237.6501 1013.8628,-216.2677 1003.9585,-200.6001"/>
<polygon fill="#191970" stroke="#191970" points="1006.7751,-198.4921 998.6237,-191.7241 1000.7753,-202.0981 1006.7751,-198.4921"/>
</g>
<!-- Node30 -->
<g id="node30" class="node">
<title>Node30</title>
<g id="a_node30"><a xlink:href="../../da/db6/SystemOfUnits_8h.html" target="_top" xlink:title="CLHEP/Units/SystemOfUnits.h">
<polygon fill="none" stroke="#000000" points="1261.185,-228.5 1261.185,-248.5 1427.185,-248.5 1427.185,-228.5 1261.185,-228.5"/>
<text text-anchor="middle" x="1344.185" y="-235.5" font-family="FreeSans" font-size="10.00" fill="#000000">CLHEP/Units/SystemOfUnits.h</text>
</a>
</g>
</g>
<!-- Node29&#45;&gt;Node30 -->
<g id="edge50" class="edge">
<title>Node29&#45;&gt;Node30</title>
<path fill="none" stroke="#191970" d="M1344.185,-285.3095C1344.185,-277.9335 1344.185,-267.72 1344.185,-258.715"/>
<polygon fill="#191970" stroke="#191970" points="1347.6851,-258.6022 1344.185,-248.6022 1340.6851,-258.6023 1347.6851,-258.6022"/>
</g>
<!-- Node31 -->
<g id="node31" class="node">
<title>Node31</title>
<g id="a_node31"><a xlink:href="../../de/d23/G4VModularPhysicsList_8hh.html" target="_top" xlink:title="G4VModularPhysicsList.hh">
<polygon fill="none" stroke="#ff0000" points="1550.685,-228.5 1550.685,-248.5 1699.685,-248.5 1699.685,-228.5 1550.685,-228.5"/>
<text text-anchor="middle" x="1625.185" y="-235.5" font-family="FreeSans" font-size="10.00" fill="#000000">G4VModularPhysicsList.hh</text>
</a>
</g>
</g>
<!-- Node29&#45;&gt;Node31 -->
<g id="edge52" class="edge">
<title>Node29&#45;&gt;Node31</title>
<path fill="none" stroke="#191970" d="M1386.8629,-286.8429C1434.4611,-277.1878 1511.7953,-261.5008 1565.4035,-250.6265"/>
<polygon fill="#191970" stroke="#191970" points="1566.3539,-254.0051 1575.4585,-248.5869 1564.9623,-247.1448 1566.3539,-254.0051"/>
</g>
<!-- Node31&#45;&gt;Node8 -->
<g id="edge54" class="edge">
<title>Node31&#45;&gt;Node8</title>
<path fill="none" stroke="#191970" d="M1550.5452,-228.9098C1547.7237,-228.5942 1544.9294,-228.2897 1542.185,-228 1354.8727,-208.2279 1130.9031,-191.3611 1037.4908,-184.6282"/>
<polygon fill="#191970" stroke="#191970" points="1037.5069,-181.1205 1027.2819,-183.8954 1037.0056,-188.1025 1037.5069,-181.1205"/>
</g>
<!-- Node31&#45;&gt;Node18 -->
<g id="edge53" class="edge">
<title>Node31&#45;&gt;Node18</title>
<path fill="none" stroke="#191970" d="M1625.185,-228.3095C1625.185,-220.9335 1625.185,-210.72 1625.185,-201.715"/>
<polygon fill="#191970" stroke="#191970" points="1628.6851,-201.6022 1625.185,-191.6022 1621.6851,-201.6023 1628.6851,-201.6022"/>
</g>
<!-- Node33 -->
<g id="node33" class="node">
<title>Node33</title>
<g id="a_node33"><a xlink:href="../../d8/d59/G4VUserActionInitialization_8hh.html" target="_top" xlink:title="G4VUserActionInitialization.hh">
<polygon fill="none" stroke="#000000" points="1545.185,-285.5 1545.185,-305.5 1715.185,-305.5 1715.185,-285.5 1545.185,-285.5"/>
<text text-anchor="middle" x="1630.185" y="-292.5" font-family="FreeSans" font-size="10.00" fill="#000000">G4VUserActionInitialization.hh</text>
</a>
</g>
</g>
<!-- Node32&#45;&gt;Node33 -->
<g id="edge56" class="edge">
<title>Node32&#45;&gt;Node33</title>
<path fill="none" stroke="#191970" d="M1598.9787,-342.3095C1604.2202,-334.4472 1611.6112,-323.3608 1617.8846,-313.9507"/>
<polygon fill="#191970" stroke="#191970" points="1620.8153,-315.8642 1623.4502,-305.6022 1614.991,-311.9813 1620.8153,-315.8642"/>
</g>
<!-- Node35 -->
<g id="node35" class="node">
<title>Node35</title>
<g id="a_node35"><a xlink:href="../../de/dd0/G4VisManager_8hh.html" target="_top" xlink:title="G4VisManager.hh">
<polygon fill="none" stroke="#ff0000" points="2097.185,-228.5 2097.185,-248.5 2201.185,-248.5 2201.185,-228.5 2097.185,-228.5"/>
<text text-anchor="middle" x="2149.185" y="-235.5" font-family="FreeSans" font-size="10.00" fill="#000000">G4VisManager.hh</text>
</a>
</g>
</g>
<!-- Node34&#45;&gt;Node35 -->
<g id="edge58" class="edge">
<title>Node34&#45;&gt;Node35</title>
<path fill="none" stroke="#191970" d="M3044.8639,-293.4367C2909.1557,-288.1664 2548.9684,-272.9139 2249.185,-249 2237.0177,-248.0294 2224.0369,-246.8057 2211.5946,-245.5396"/>
<polygon fill="#191970" stroke="#191970" points="2211.6074,-242.0222 2201.2994,-244.4706 2210.8844,-248.9847 2211.6074,-242.0222"/>
</g>
<!-- Node36 -->
<g id="node36" class="node">
<title>Node36</title>
<polygon fill="none" stroke="#bfbfbf" points="3293.185,-228.5 3293.185,-248.5 3405.185,-248.5 3405.185,-228.5 3293.185,-228.5"/>
<text text-anchor="middle" x="3349.185" y="-235.5" font-family="FreeSans" font-size="10.00" fill="#000000">G4VisExecutive.icc</text>
</g>
<!-- Node34&#45;&gt;Node36 -->
<g id="edge62" class="edge">
<title>Node34&#45;&gt;Node36</title>
<path fill="none" stroke="#191970" d="M3144.128,-285.4408C3186.3126,-275.7841 3250.1207,-261.1774 3295.3398,-250.826"/>
<polygon fill="#191970" stroke="#191970" points="3296.2964,-254.1977 3305.2632,-248.5544 3294.7343,-247.3742 3296.2964,-254.1977"/>
</g>
<!-- Node37 -->
<g id="node37" class="node">
<title>Node37</title>
<polygon fill="none" stroke="#bfbfbf" points="3422.685,-228.5 3422.685,-248.5 3515.685,-248.5 3515.685,-228.5 3422.685,-228.5"/>
<text text-anchor="middle" x="3469.185" y="-235.5" font-family="FreeSans" font-size="10.00" fill="#000000">G4ASCIITree.hh</text>
</g>
<!-- Node34&#45;&gt;Node37 -->
<g id="edge63" class="edge">
<title>Node34&#45;&gt;Node37</title>
<path fill="none" stroke="#191970" d="M3155.3149,-288.0436C3215.9587,-279.6828 3316.5491,-265.3491 3412.26,-249.2809"/>
<polygon fill="#191970" stroke="#191970" points="3413.1234,-252.6848 3422.4011,-247.5687 3411.9579,-245.7825 3413.1234,-252.6848"/>
</g>
<!-- Node38 -->
<g id="node38" class="node">
<title>Node38</title>
<polygon fill="none" stroke="#bfbfbf" points="3533.185,-228.5 3533.185,-248.5 3631.185,-248.5 3631.185,-228.5 3533.185,-228.5"/>
<text text-anchor="middle" x="3582.185" y="-235.5" font-family="FreeSans" font-size="10.00" fill="#000000">G4DAWNFILE.hh</text>
</g>
<!-- Node34&#45;&gt;Node38 -->
<g id="edge64" class="edge">
<title>Node34&#45;&gt;Node38</title>
<path fill="none" stroke="#191970" d="M3155.3645,-290.7629C3234.5997,-283.6736 3385.4007,-269.1141 3522.8084,-249.2772"/>
<polygon fill="#191970" stroke="#191970" points="3523.7069,-252.6833 3533.0978,-247.7781 3522.6976,-245.7565 3523.7069,-252.6833"/>
</g>
<!-- Node39 -->
<g id="node39" class="node">
<title>Node39</title>
<polygon fill="none" stroke="#bfbfbf" points="3649.185,-228.5 3649.185,-248.5 3735.185,-248.5 3735.185,-228.5 3649.185,-228.5"/>
<text text-anchor="middle" x="3692.185" y="-235.5" font-family="FreeSans" font-size="10.00" fill="#000000">G4HepRep.hh</text>
</g>
<!-- Node34&#45;&gt;Node39 -->
<g id="edge65" class="edge">
<title>Node34&#45;&gt;Node39</title>
<path fill="none" stroke="#191970" d="M3155.2258,-292.8253C3251.3818,-287.7017 3456.3348,-274.7811 3639.0578,-249.0219"/>
<polygon fill="#191970" stroke="#191970" points="3639.7143,-252.4637 3649.1201,-247.587 3638.7261,-245.5338 3639.7143,-252.4637"/>
</g>
<!-- Node40 -->
<g id="node40" class="node">
<title>Node40</title>
<polygon fill="none" stroke="#bfbfbf" points="3753.685,-228.5 3753.685,-248.5 3856.685,-248.5 3856.685,-228.5 3753.685,-228.5"/>
<text text-anchor="middle" x="3805.185" y="-235.5" font-family="FreeSans" font-size="10.00" fill="#000000">G4HepRepFile.hh</text>
</g>
<!-- Node34&#45;&gt;Node40 -->
<g id="edge66" class="edge">
<title>Node34&#45;&gt;Node40</title>
<path fill="none" stroke="#191970" d="M3155.495,-293.3419C3265.4851,-288.6517 3519.6142,-275.8265 3743.6804,-248.9452"/>
<polygon fill="#191970" stroke="#191970" points="3744.1465,-252.4145 3753.6529,-247.737 3743.3045,-245.4653 3744.1465,-252.4145"/>
</g>
<!-- Node41 -->
<g id="node41" class="node">
<title>Node41</title>
<polygon fill="none" stroke="#bfbfbf" points="3874.685,-228.5 3874.685,-248.5 3969.685,-248.5 3969.685,-228.5 3874.685,-228.5"/>
<text text-anchor="middle" x="3922.185" y="-235.5" font-family="FreeSans" font-size="10.00" fill="#000000">G4RayTracer.hh</text>
</g>
<!-- Node34&#45;&gt;Node41 -->
<g id="edge67" class="edge">
<title>Node34&#45;&gt;Node41</title>
<path fill="none" stroke="#191970" d="M3155.2013,-294.5118C3279.8249,-291.7667 3593.2982,-282.0132 3864.5526,-249.0739"/>
<polygon fill="#191970" stroke="#191970" points="3865.0901,-252.5343 3874.5892,-247.8421 3864.2373,-245.5864 3865.0901,-252.5343"/>
</g>
<!-- Node42 -->
<g id="node42" class="node">
<title>Node42</title>
<polygon fill="none" stroke="#bfbfbf" points="2257.685,-228.5 2257.685,-248.5 2388.685,-248.5 2388.685,-228.5 2257.685,-228.5"/>
<text text-anchor="middle" x="2323.185" y="-235.5" font-family="FreeSans" font-size="10.00" fill="#000000">G4HitFilterFactories.hh</text>
</g>
<!-- Node34&#45;&gt;Node42 -->
<g id="edge68" class="edge">
<title>Node34&#45;&gt;Node42</title>
<path fill="none" stroke="#191970" d="M3045.0074,-293.2162C2928.0265,-288.0775 2646.2924,-274.1311 2399.2544,-249.0409"/>
<polygon fill="#191970" stroke="#191970" points="2399.3066,-245.528 2389.0021,-247.9911 2398.5935,-252.4916 2399.3066,-245.528"/>
</g>
<!-- Node43 -->
<g id="node43" class="node">
<title>Node43</title>
<polygon fill="none" stroke="#bfbfbf" points="2407.185,-228.5 2407.185,-248.5 2543.185,-248.5 2543.185,-228.5 2407.185,-228.5"/>
<text text-anchor="middle" x="2475.185" y="-235.5" font-family="FreeSans" font-size="10.00" fill="#000000">G4DigiFilterFactories.hh</text>
</g>
<!-- Node34&#45;&gt;Node43 -->
<g id="edge69" class="edge">
<title>Node34&#45;&gt;Node43</title>
<path fill="none" stroke="#191970" d="M3044.8681,-291.7411C2947.6326,-284.9292 2739.509,-269.4361 2553.556,-249.1085"/>
<polygon fill="#191970" stroke="#191970" points="2553.9193,-245.6274 2543.5964,-248.0127 2553.1537,-252.5854 2553.9193,-245.6274"/>
</g>
<!-- Node44 -->
<g id="node44" class="node">
<title>Node44</title>
<polygon fill="none" stroke="#bfbfbf" points="2561.185,-228.5 2561.185,-248.5 2727.185,-248.5 2727.185,-228.5 2561.185,-228.5"/>
<text text-anchor="middle" x="2644.185" y="-235.5" font-family="FreeSans" font-size="10.00" fill="#000000">G4TrajectoryFilterFactories.hh</text>
</g>
<!-- Node34&#45;&gt;Node44 -->
<g id="edge70" class="edge">
<title>Node34&#45;&gt;Node44</title>
<path fill="none" stroke="#191970" d="M3045.1808,-288.6245C2968.1228,-278.9922 2827.1084,-261.3654 2734.5157,-249.7913"/>
<polygon fill="#191970" stroke="#191970" points="2734.6695,-246.2834 2724.3126,-248.5159 2733.8012,-253.2293 2734.6695,-246.2834"/>
</g>
<!-- Node45 -->
<g id="node45" class="node">
<title>Node45</title>
<polygon fill="none" stroke="#bfbfbf" points="2745.185,-228.5 2745.185,-248.5 2917.185,-248.5 2917.185,-228.5 2745.185,-228.5"/>
<text text-anchor="middle" x="2831.185" y="-235.5" font-family="FreeSans" font-size="10.00" fill="#000000">G4TrajectoryModelFactories.hh</text>
</g>
<!-- Node34&#45;&gt;Node45 -->
<g id="edge71" class="edge">
<title>Node34&#45;&gt;Node45</title>
<path fill="none" stroke="#191970" d="M3052.7124,-285.4408C3006.8524,-275.7232 2937.3364,-260.9931 2888.4339,-250.6308"/>
<polygon fill="#191970" stroke="#191970" points="2889.143,-247.2034 2878.6347,-248.5544 2887.6919,-254.0514 2889.143,-247.2034"/>
</g>
<!-- Node46 -->
<g id="node46" class="node">
<title>Node46</title>
<polygon fill="none" stroke="#bfbfbf" points="2935.185,-228.5 2935.185,-248.5 3033.185,-248.5 3033.185,-228.5 2935.185,-228.5"/>
<text text-anchor="middle" x="2984.185" y="-235.5" font-family="FreeSans" font-size="10.00" fill="#000000">G4VRML1File.hh</text>
</g>
<!-- Node34&#45;&gt;Node46 -->
<g id="edge72" class="edge">
<title>Node34&#45;&gt;Node46</title>
<path fill="none" stroke="#191970" d="M3079.7136,-285.4408C3061.4389,-276.461 3034.4533,-263.2008 3013.8207,-253.0624"/>
<polygon fill="#191970" stroke="#191970" points="3015.3606,-249.9193 3004.842,-248.6504 3012.2735,-256.2019 3015.3606,-249.9193"/>
</g>
<!-- Node47 -->
<g id="node47" class="node">
<title>Node47</title>
<polygon fill="none" stroke="#bfbfbf" points="3051.185,-228.5 3051.185,-248.5 3149.185,-248.5 3149.185,-228.5 3051.185,-228.5"/>
<text text-anchor="middle" x="3100.185" y="-235.5" font-family="FreeSans" font-size="10.00" fill="#000000">G4VRML2File.hh</text>
</g>
<!-- Node34&#45;&gt;Node47 -->
<g id="edge73" class="edge">
<title>Node34&#45;&gt;Node47</title>
<path fill="none" stroke="#191970" d="M3100.185,-285.3095C3100.185,-277.9335 3100.185,-267.72 3100.185,-258.715"/>
<polygon fill="#191970" stroke="#191970" points="3103.6851,-258.6022 3100.185,-248.6022 3096.6851,-258.6023 3103.6851,-258.6022"/>
</g>
<!-- Node48 -->
<g id="node48" class="node">
<title>Node48</title>
<polygon fill="none" stroke="#bfbfbf" points="3167.185,-228.5 3167.185,-248.5 3275.185,-248.5 3275.185,-228.5 3167.185,-228.5"/>
<text text-anchor="middle" x="3221.185" y="-235.5" font-family="FreeSans" font-size="10.00" fill="#000000">G4GMocrenFile.hh</text>
</g>
<!-- Node34&#45;&gt;Node48 -->
<g id="edge74" class="edge">
<title>Node34&#45;&gt;Node48</title>
<path fill="none" stroke="#191970" d="M3121.5389,-285.4408C3140.6871,-276.4205 3169.0037,-263.0813 3190.5624,-252.9255"/>
<polygon fill="#191970" stroke="#191970" points="3192.0827,-256.0783 3199.6376,-248.6504 3189.0996,-249.7458 3192.0827,-256.0783"/>
</g>
<!-- Node35&#45;&gt;Node8 -->
<g id="edge59" class="edge">
<title>Node35&#45;&gt;Node8</title>
<path fill="none" stroke="#191970" d="M2097.0895,-232.3653C2081.9772,-230.751 2065.4385,-229.1433 2050.185,-228 1658.3882,-198.633 1183.3988,-185.8778 1037.759,-182.4765"/>
<polygon fill="#191970" stroke="#191970" points="1037.5284,-178.9704 1027.4503,-182.2387 1037.3668,-185.9685 1037.5284,-178.9704"/>
</g>
<!-- Node35&#45;&gt;Node18 -->
<g id="edge60" class="edge">
<title>Node35&#45;&gt;Node18</title>
<path fill="none" stroke="#191970" d="M2096.9858,-229.9162C2092.3238,-229.2341 2087.6721,-228.5842 2083.185,-228 1925.7426,-207.5004 1736.8538,-190.815 1660.1318,-184.3685"/>
<polygon fill="#191970" stroke="#191970" points="1660.3221,-180.8723 1650.0653,-183.5275 1659.7392,-187.848 1660.3221,-180.8723"/>
</g>
<!-- Node35&#45;&gt;Node25 -->
<g id="edge61" class="edge">
<title>Node35&#45;&gt;Node25</title>
<path fill="none" stroke="#191970" d="M2134.1675,-228.3095C2121.5058,-219.7177 2103.1704,-207.2758 2088.5851,-197.3786"/>
<polygon fill="#191970" stroke="#191970" points="2090.3126,-194.3211 2080.0725,-191.6022 2086.382,-200.1135 2090.3126,-194.3211"/>
</g>
<!-- Node49&#45;&gt;Node25 -->
<g id="edge78" class="edge">
<title>Node49&#45;&gt;Node25</title>
<path fill="none" stroke="#191970" d="M1527.6278,-286.0942C1575.418,-277.4059 1647.2645,-263.6596 1709.185,-249 1743.2859,-240.9266 1750.9639,-235.5476 1785.185,-228 1875.4841,-208.0841 1983.8495,-192.3805 2035.2765,-185.4149"/>
<polygon fill="#191970" stroke="#191970" points="2035.9132,-188.8609 2045.3592,-184.0628 2034.9827,-181.9231 2035.9132,-188.8609"/>
</g>
<!-- Node50 -->
<g id="node50" class="node">
<title>Node50</title>
<g id="a_node50"><a xlink:href="../../d0/d35/G4VUIshell_8hh.html" target="_top" xlink:title="G4VUIshell.hh">
<polygon fill="none" stroke="#000000" points="1445.685,-228.5 1445.685,-248.5 1532.685,-248.5 1532.685,-228.5 1445.685,-228.5"/>
<text text-anchor="middle" x="1489.185" y="-235.5" font-family="FreeSans" font-size="10.00" fill="#000000">G4VUIshell.hh</text>
</a>
</g>
</g>
<!-- Node49&#45;&gt;Node50 -->
<g id="edge76" class="edge">
<title>Node49&#45;&gt;Node50</title>
<path fill="none" stroke="#191970" d="M1476.8667,-285.3095C1478.8291,-277.8524 1481.5547,-267.4951 1483.9433,-258.4186"/>
<polygon fill="#191970" stroke="#191970" points="1487.3663,-259.1637 1486.5265,-248.6022 1480.5968,-257.3822 1487.3663,-259.1637"/>
</g>
<!-- Node50&#45;&gt;Node8 -->
<g id="edge77" class="edge">
<title>Node50&#45;&gt;Node8</title>
<path fill="none" stroke="#191970" d="M1445.5674,-229.532C1442.398,-228.9808 1439.2457,-228.4628 1436.185,-228 1290.9278,-206.0343 1117.3056,-191.0627 1037.4054,-184.8008"/>
<polygon fill="#191970" stroke="#191970" points="1037.4621,-181.2947 1027.2212,-184.0101 1036.9202,-188.2737 1037.4621,-181.2947"/>
</g>
</g>
</svg>
