<?xml version="1.0" encoding="UTF-8" standalone="no"?>
<!DOCTYPE svg PUBLIC "-//W3C//DTD SVG 1.1//EN"
 "http://www.w3.org/Graphics/SVG/1.1/DTD/svg11.dtd">
<!-- Generated by graphviz version 2.40.1 (20161225.0304)
 -->
<!-- Title: G4PenelopeRayleighModel::SetParticle Pages: 1 -->
<svg width="353pt" height="92pt"
 viewBox="0.00 0.00 353.00 92.00" xmlns="http://www.w3.org/2000/svg" xmlns:xlink="http://www.w3.org/1999/xlink">
<g id="graph0" class="graph" transform="scale(1 1) rotate(0) translate(4 88)">
<title>G4PenelopeRayleighModel::SetParticle</title>
<!-- Node1 -->
<g id="node1" class="node">
<title>Node1</title>
<polygon fill="#bfbfbf" stroke="#000000" points="0,-25.5 0,-57.5 151,-57.5 151,-25.5 0,-25.5"/>
<text text-anchor="start" x="8" y="-44.5" font-family="FreeSans" font-size="10.00" fill="#000000">G4PenelopeRayleighModel</text>
<text text-anchor="middle" x="75.5" y="-32.5" font-family="FreeSans" font-size="10.00" fill="#000000">::SetParticle</text>
</g>
<!-- Node2 -->
<g id="node2" class="node">
<title>Node2</title>
<g id="a_node2"><a xlink:href="../../d2/d2c/classG4PenelopeRayleighModel.html#a9df10dbe56b7328d1cf736633cf06b71" target="_top" xlink:title="G4PenelopeRayleighModel\l::G4PenelopeRayleighModel">
<polygon fill="none" stroke="#000000" points="187,-51.5 187,-83.5 345,-83.5 345,-51.5 187,-51.5"/>
<text text-anchor="start" x="195" y="-70.5" font-family="FreeSans" font-size="10.00" fill="#000000">G4PenelopeRayleighModel</text>
<text text-anchor="middle" x="266" y="-58.5" font-family="FreeSans" font-size="10.00" fill="#000000">::G4PenelopeRayleighModel</text>
</a>
</g>
</g>
<!-- Node1&#45;&gt;Node2 -->
<g id="edge1" class="edge">
<title>Node1&#45;&gt;Node2</title>
<path fill="none" stroke="#191970" d="M161.0507,-53.1762C169.6133,-54.3449 178.2816,-55.5279 186.7749,-56.6871"/>
<polygon fill="#191970" stroke="#191970" points="161.4457,-49.6978 151.0643,-51.8132 160.4991,-56.6335 161.4457,-49.6978"/>
</g>
<!-- Node3 -->
<g id="node3" class="node">
<title>Node3</title>
<g id="a_node3"><a xlink:href="../../d2/d2c/classG4PenelopeRayleighModel.html#a4c91eaa6616dbec01932c1f2b239c616" target="_top" xlink:title="G4PenelopeRayleighModel\l::Initialise">
<polygon fill="none" stroke="#000000" points="190.5,-.5 190.5,-32.5 341.5,-32.5 341.5,-.5 190.5,-.5"/>
<text text-anchor="start" x="198.5" y="-19.5" font-family="FreeSans" font-size="10.00" fill="#000000">G4PenelopeRayleighModel</text>
<text text-anchor="middle" x="266" y="-7.5" font-family="FreeSans" font-size="10.00" fill="#000000">::Initialise</text>
</a>
</g>
</g>
<!-- Node1&#45;&gt;Node3 -->
<g id="edge2" class="edge">
<title>Node1&#45;&gt;Node3</title>
<path fill="none" stroke="#191970" d="M161.11,-30.2651C170.8131,-28.9917 180.6511,-27.7006 190.2155,-26.4455"/>
<polygon fill="#191970" stroke="#191970" points="160.5238,-26.8119 151.0643,-31.5834 161.4347,-33.7524 160.5238,-26.8119"/>
</g>
</g>
</svg>
