<?xml version="1.0" encoding="UTF-8" standalone="no"?>
<!DOCTYPE svg PUBLIC "-//W3C//DTD SVG 1.1//EN"
 "http://www.w3.org/Graphics/SVG/1.1/DTD/svg11.dtd">
<!-- Generated by graphviz version 2.40.1 (20161225.0304)
 -->
<!-- Title: coresoftware/blob/master/offline/QA/modules/QAG4SimulationVertex.h Pages: 1 -->
<svg width="3058pt" height="773pt"
 viewBox="0.00 0.00 3057.52 773.00" xmlns="http://www.w3.org/2000/svg" xmlns:xlink="http://www.w3.org/1999/xlink">
<g id="graph0" class="graph" transform="scale(1 1) rotate(0) translate(4 769)">
<title>coresoftware/blob/master/offline/QA/modules/QAG4SimulationVertex.h</title>
<!-- Node1 -->
<g id="node1" class="node">
<title>Node1</title>
<polygon fill="#bfbfbf" stroke="#000000" points="175.5,-720.5 175.5,-764.5 379.5,-764.5 379.5,-720.5 175.5,-720.5"/>
<text text-anchor="start" x="183.5" y="-751.5" font-family="FreeSans" font-size="10.00" fill="#000000">coresoftware/blob/master</text>
<text text-anchor="start" x="183.5" y="-739.5" font-family="FreeSans" font-size="10.00" fill="#000000">/offline/QA/modules/QAG4Simulation</text>
<text text-anchor="middle" x="277.5" y="-727.5" font-family="FreeSans" font-size="10.00" fill="#000000">Vertex.h</text>
</g>
<!-- Node2 -->
<g id="node2" class="node">
<title>Node2</title>
<g id="a_node2"><a xlink:href="../../d5/dc2/SubsysReco_8h.html" target="_top" xlink:title="fun4all/SubsysReco.h">
<polygon fill="none" stroke="#000000" points="1.5,-183.5 1.5,-203.5 125.5,-203.5 125.5,-183.5 1.5,-183.5"/>
<text text-anchor="middle" x="63.5" y="-190.5" font-family="FreeSans" font-size="10.00" fill="#000000">fun4all/SubsysReco.h</text>
</a>
</g>
</g>
<!-- Node1&#45;&gt;Node2 -->
<g id="edge1" class="edge">
<title>Node1&#45;&gt;Node2</title>
<path fill="none" stroke="#191970" d="M191.7523,-720.4184C142.1692,-701.9199 89.5,-669.7398 89.5,-616.5 89.5,-616.5 89.5,-616.5 89.5,-313.5 89.5,-277.4531 78.1554,-236.6683 70.4536,-213.1333"/>
<polygon fill="#191970" stroke="#191970" points="73.7513,-211.959 67.2252,-203.6127 67.122,-214.207 73.7513,-211.959"/>
</g>
<!-- Node5 -->
<g id="node5" class="node">
<title>Node5</title>
<polygon fill="none" stroke="#bfbfbf" points="245,-57.5 245,-77.5 290,-77.5 290,-57.5 245,-57.5"/>
<text text-anchor="middle" x="267.5" y="-64.5" font-family="FreeSans" font-size="10.00" fill="#000000">string</text>
</g>
<!-- Node1&#45;&gt;Node5 -->
<g id="edge120" class="edge">
<title>Node1&#45;&gt;Node5</title>
<path fill="none" stroke="#191970" d="M233.0834,-720.3184C197.5029,-699.0583 153.5,-663.3044 153.5,-616.5 153.5,-616.5 153.5,-616.5 153.5,-193.5 153.5,-142.672 205.1416,-103.186 238.91,-82.7995"/>
<polygon fill="#191970" stroke="#191970" points="241.0227,-85.6194 247.9027,-77.5624 237.4999,-79.5704 241.0227,-85.6194"/>
</g>
<!-- Node6 -->
<g id="node6" class="node">
<title>Node6</title>
<g id="a_node6"><a xlink:href="../../d3/d59/SvtxEvalStack_8h.html" target="_top" xlink:title="g4eval/SvtxEvalStack.h">
<polygon fill="none" stroke="#000000" points="210,-663.5 210,-683.5 345,-683.5 345,-663.5 210,-663.5"/>
<text text-anchor="middle" x="277.5" y="-670.5" font-family="FreeSans" font-size="10.00" fill="#000000">g4eval/SvtxEvalStack.h</text>
</a>
</g>
</g>
<!-- Node1&#45;&gt;Node6 -->
<g id="edge6" class="edge">
<title>Node1&#45;&gt;Node6</title>
<path fill="none" stroke="#191970" d="M277.5,-720.2882C277.5,-711.8377 277.5,-702.2557 277.5,-693.9736"/>
<polygon fill="#191970" stroke="#191970" points="281.0001,-693.7136 277.5,-683.7137 274.0001,-693.7137 281.0001,-693.7136"/>
</g>
<!-- Node13 -->
<g id="node13" class="node">
<title>Node13</title>
<polygon fill="none" stroke="#bfbfbf" points="574.5,-240.5 574.5,-260.5 606.5,-260.5 606.5,-240.5 574.5,-240.5"/>
<text text-anchor="middle" x="590.5" y="-247.5" font-family="FreeSans" font-size="10.00" fill="#000000">set</text>
</g>
<!-- Node1&#45;&gt;Node13 -->
<g id="edge119" class="edge">
<title>Node1&#45;&gt;Node13</title>
<path fill="none" stroke="#191970" d="M355.0032,-720.4607C430.3506,-696.6688 533.5,-656.7481 533.5,-616.5 533.5,-616.5 533.5,-616.5 533.5,-382.5 533.5,-339.1168 559.7711,-293.8004 576.6428,-269.1708"/>
<polygon fill="#191970" stroke="#191970" points="579.6534,-270.9756 582.5744,-260.7914 573.94,-266.9312 579.6534,-270.9756"/>
</g>
<!-- Node19 -->
<g id="node19" class="node">
<title>Node19</title>
<polygon fill="none" stroke="#bfbfbf" points="1067.5,-120.5 1067.5,-140.5 1125.5,-140.5 1125.5,-120.5 1067.5,-120.5"/>
<text text-anchor="middle" x="1096.5" y="-127.5" font-family="FreeSans" font-size="10.00" fill="#000000">memory</text>
</g>
<!-- Node1&#45;&gt;Node19 -->
<g id="edge118" class="edge">
<title>Node1&#45;&gt;Node19</title>
<path fill="none" stroke="#191970" d="M379.6839,-739.8161C629.2412,-731.9059 1249.5,-703.4953 1249.5,-616.5 1249.5,-616.5 1249.5,-616.5 1249.5,-445.5 1249.5,-352.0966 1250.0354,-322.1024 1205.5,-240 1184.2203,-200.7702 1144.5583,-166.2797 1119.3974,-146.9392"/>
<polygon fill="#191970" stroke="#191970" points="1121.2536,-143.956 1111.1564,-140.7471 1117.0487,-149.5523 1121.2536,-143.956"/>
</g>
<!-- Node3 -->
<g id="node3" class="node">
<title>Node3</title>
<g id="a_node3"><a xlink:href="../../d2/de7/Fun4AllBase_8h.html" target="_top" xlink:title="Fun4AllBase.h">
<polygon fill="none" stroke="#000000" points="0,-120.5 0,-140.5 87,-140.5 87,-120.5 0,-120.5"/>
<text text-anchor="middle" x="43.5" y="-127.5" font-family="FreeSans" font-size="10.00" fill="#000000">Fun4AllBase.h</text>
</a>
</g>
</g>
<!-- Node2&#45;&gt;Node3 -->
<g id="edge2" class="edge">
<title>Node2&#45;&gt;Node3</title>
<path fill="none" stroke="#191970" d="M60.2867,-183.378C57.4751,-174.5215 53.3083,-161.396 49.8295,-150.4381"/>
<polygon fill="#191970" stroke="#191970" points="53.1336,-149.2784 46.7718,-140.8062 46.4617,-151.3965 53.1336,-149.2784"/>
</g>
<!-- Node2&#45;&gt;Node5 -->
<g id="edge5" class="edge">
<title>Node2&#45;&gt;Node5</title>
<path fill="none" stroke="#191970" d="M70.7682,-183.272C83.1146,-166.5819 109.7574,-133.4091 139.5,-114 169.1716,-94.6372 207.966,-82.0095 235.0354,-74.8668"/>
<polygon fill="#191970" stroke="#191970" points="235.9581,-78.2437 244.7924,-72.3952 234.2391,-71.458 235.9581,-78.2437"/>
</g>
<!-- Node4 -->
<g id="node4" class="node">
<title>Node4</title>
<polygon fill="none" stroke="#bfbfbf" points="19,-57.5 19,-77.5 68,-77.5 68,-57.5 19,-57.5"/>
<text text-anchor="middle" x="43.5" y="-64.5" font-family="FreeSans" font-size="10.00" fill="#000000">climits</text>
</g>
<!-- Node3&#45;&gt;Node4 -->
<g id="edge3" class="edge">
<title>Node3&#45;&gt;Node4</title>
<path fill="none" stroke="#191970" d="M43.5,-120.378C43.5,-111.7041 43.5,-98.9355 43.5,-88.1186"/>
<polygon fill="#191970" stroke="#191970" points="47.0001,-87.8062 43.5,-77.8062 40.0001,-87.8062 47.0001,-87.8062"/>
</g>
<!-- Node3&#45;&gt;Node5 -->
<g id="edge4" class="edge">
<title>Node3&#45;&gt;Node5</title>
<path fill="none" stroke="#191970" d="M78.766,-120.4428C86.2686,-118.3101 94.1451,-116.0763 101.5,-114 147.963,-100.8835 201.7828,-85.8338 235.2393,-76.4953"/>
<polygon fill="#191970" stroke="#191970" points="236.2467,-79.848 244.9379,-73.789 234.3652,-73.1056 236.2467,-79.848"/>
</g>
<!-- Node6&#45;&gt;Node5 -->
<g id="edge117" class="edge">
<title>Node6&#45;&gt;Node5</title>
<path fill="none" stroke="#191970" d="M262.1249,-663.223C237.3883,-645.3199 191.5,-605.8606 191.5,-559.5 191.5,-559.5 191.5,-559.5 191.5,-193.5 191.5,-149.3959 226.0652,-107.4732 248.5746,-84.8486"/>
<polygon fill="#191970" stroke="#191970" points="251.2219,-87.1565 255.9572,-77.6788 246.3451,-82.1349 251.2219,-87.1565"/>
</g>
<!-- Node7 -->
<g id="node7" class="node">
<title>Node7</title>
<g id="a_node7"><a xlink:href="../../d5/d9c/SvtxVertexEval_8h.html" target="_top" xlink:title="SvtxVertexEval.h">
<polygon fill="none" stroke="#000000" points="240.5,-606.5 240.5,-626.5 342.5,-626.5 342.5,-606.5 240.5,-606.5"/>
<text text-anchor="middle" x="291.5" y="-613.5" font-family="FreeSans" font-size="10.00" fill="#000000">SvtxVertexEval.h</text>
</a>
</g>
</g>
<!-- Node6&#45;&gt;Node7 -->
<g id="edge7" class="edge">
<title>Node6&#45;&gt;Node7</title>
<path fill="none" stroke="#191970" d="M280.0029,-663.3095C281.8345,-655.8524 284.3784,-645.4951 286.6077,-636.4186"/>
<polygon fill="#191970" stroke="#191970" points="290.0324,-637.1485 289.0187,-626.6022 283.2344,-635.4787 290.0324,-637.1485"/>
</g>
<!-- Node7&#45;&gt;Node5 -->
<g id="edge115" class="edge">
<title>Node7&#45;&gt;Node5</title>
<path fill="none" stroke="#191970" d="M281.262,-606.2108C263.6522,-587.3677 229.5,-545.3058 229.5,-502.5 229.5,-502.5 229.5,-502.5 229.5,-193.5 229.5,-154.3154 246.5542,-111.0838 257.8127,-86.8135"/>
<polygon fill="#191970" stroke="#191970" points="261.044,-88.1696 262.2163,-77.6398 254.7334,-85.1403 261.044,-88.1696"/>
</g>
<!-- Node8 -->
<g id="node8" class="node">
<title>Node8</title>
<g id="a_node8"><a xlink:href="../../df/d8a/SvtxTrackEval_8h.html" target="_top" xlink:title="SvtxTrackEval.h">
<polygon fill="none" stroke="#000000" points="371.5,-549.5 371.5,-569.5 467.5,-569.5 467.5,-549.5 371.5,-549.5"/>
<text text-anchor="middle" x="419.5" y="-556.5" font-family="FreeSans" font-size="10.00" fill="#000000">SvtxTrackEval.h</text>
</a>
</g>
</g>
<!-- Node7&#45;&gt;Node8 -->
<g id="edge8" class="edge">
<title>Node7&#45;&gt;Node8</title>
<path fill="none" stroke="#191970" d="M314.0892,-606.4408C334.436,-597.3801 364.5688,-583.9615 387.4122,-573.7891"/>
<polygon fill="#191970" stroke="#191970" points="388.9947,-576.9158 396.7061,-569.6504 386.1471,-570.5212 388.9947,-576.9158"/>
</g>
<!-- Node7&#45;&gt;Node13 -->
<g id="edge114" class="edge">
<title>Node7&#45;&gt;Node13</title>
<path fill="none" stroke="#191970" d="M295.5274,-606.2264C312.9097,-563.0517 385.5817,-394.0662 494.5,-297 514.9611,-278.7654 543.8489,-266.0732 564.582,-258.6094"/>
<polygon fill="#191970" stroke="#191970" points="565.9884,-261.8272 574.3123,-255.2725 563.7177,-255.2057 565.9884,-261.8272"/>
</g>
<!-- Node17 -->
<g id="node17" class="node">
<title>Node17</title>
<polygon fill="none" stroke="#bfbfbf" points="906,-303.5 906,-323.5 945,-323.5 945,-303.5 906,-303.5"/>
<text text-anchor="middle" x="925.5" y="-310.5" font-family="FreeSans" font-size="10.00" fill="#000000">map</text>
</g>
<!-- Node7&#45;&gt;Node17 -->
<g id="edge113" class="edge">
<title>Node7&#45;&gt;Node17</title>
<path fill="none" stroke="#191970" d="M342.5038,-609.6093C454.3924,-593.9274 717.7615,-553.764 797.5,-513 858.0352,-482.0531 869.7106,-460.1131 899.5,-399 909.9149,-377.6339 917.1759,-351.2197 921.3279,-333.4516"/>
<polygon fill="#191970" stroke="#191970" points="924.7581,-334.1494 923.5117,-323.6282 917.9249,-332.6303 924.7581,-334.1494"/>
</g>
<!-- Node20 -->
<g id="node20" class="node">
<title>Node20</title>
<polygon fill="none" stroke="#bfbfbf" points="397,-183.5 397,-203.5 442,-203.5 442,-183.5 397,-183.5"/>
<text text-anchor="middle" x="419.5" y="-190.5" font-family="FreeSans" font-size="10.00" fill="#000000">utility</text>
</g>
<!-- Node7&#45;&gt;Node20 -->
<g id="edge116" class="edge">
<title>Node7&#45;&gt;Node20</title>
<path fill="none" stroke="#191970" d="M287.8549,-606.278C281.141,-586.5074 267.5,-541.5352 267.5,-502.5 267.5,-502.5 267.5,-502.5 267.5,-445.5 267.5,-343.9538 359.1174,-248.1899 400.0947,-210.4365"/>
<polygon fill="#191970" stroke="#191970" points="402.5028,-212.9777 407.5728,-203.6747 397.808,-207.7855 402.5028,-212.9777"/>
</g>
<!-- Node8&#45;&gt;Node5 -->
<g id="edge111" class="edge">
<title>Node8&#45;&gt;Node5</title>
<path fill="none" stroke="#191970" d="M410.2205,-549.4588C377.2191,-512.6587 267.5,-380.5324 267.5,-250.5 267.5,-250.5 267.5,-250.5 267.5,-193.5 267.5,-156.1296 267.5,-112.5247 267.5,-87.6482"/>
<polygon fill="#191970" stroke="#191970" points="271.0001,-87.626 267.5,-77.626 264.0001,-87.6261 271.0001,-87.626"/>
</g>
<!-- Node9 -->
<g id="node9" class="node">
<title>Node9</title>
<g id="a_node9"><a xlink:href="../../d7/dcd/SvtxClusterEval_8h.html" target="_top" xlink:title="SvtxClusterEval.h">
<polygon fill="none" stroke="#000000" points="655,-492.5 655,-512.5 760,-512.5 760,-492.5 655,-492.5"/>
<text text-anchor="middle" x="707.5" y="-499.5" font-family="FreeSans" font-size="10.00" fill="#000000">SvtxClusterEval.h</text>
</a>
</g>
</g>
<!-- Node8&#45;&gt;Node9 -->
<g id="edge9" class="edge">
<title>Node8&#45;&gt;Node9</title>
<path fill="none" stroke="#191970" d="M467.7047,-549.9595C516.8968,-540.2235 593.3852,-525.0852 646.7048,-514.5324"/>
<polygon fill="#191970" stroke="#191970" points="647.5816,-517.9268 656.7118,-512.5518 646.2225,-511.06 647.5816,-517.9268"/>
</g>
<!-- Node8&#45;&gt;Node13 -->
<g id="edge110" class="edge">
<title>Node8&#45;&gt;Node13</title>
<path fill="none" stroke="#191970" d="M421.051,-549.3411C427.2003,-511.9459 452.8599,-379.8355 519.5,-297 531.6224,-281.9316 549.9774,-270.0913 564.9877,-262.13"/>
<polygon fill="#191970" stroke="#191970" points="566.9073,-265.0824 574.2695,-257.4634 563.763,-258.8283 566.9073,-265.0824"/>
</g>
<!-- Node14 -->
<g id="node14" class="node">
<title>Node14</title>
<g id="a_node14"><a xlink:href="../../d8/d00/TrkrDefs_8h.html" target="_top" xlink:title="Namespace with Trkr key types and utility functions.">
<polygon fill="none" stroke="#000000" points="1077.5,-303.5 1077.5,-323.5 1197.5,-323.5 1197.5,-303.5 1077.5,-303.5"/>
<text text-anchor="middle" x="1137.5" y="-310.5" font-family="FreeSans" font-size="10.00" fill="#000000">trackbase/TrkrDefs.h</text>
</a>
</g>
</g>
<!-- Node8&#45;&gt;Node14 -->
<g id="edge108" class="edge">
<title>Node8&#45;&gt;Node14</title>
<path fill="none" stroke="#191970" d="M467.7099,-556.4137C540.019,-551.1467 680.5568,-538.4321 797.5,-513 961.9114,-477.2448 1059.0398,-534.71 1158.5,-399 1172.9541,-379.2778 1161.1434,-350.8171 1150.249,-332.2405"/>
<polygon fill="#191970" stroke="#191970" points="1153.2119,-330.3773 1144.9367,-323.7612 1147.2799,-334.0937 1153.2119,-330.3773"/>
</g>
<!-- Node8&#45;&gt;Node17 -->
<g id="edge109" class="edge">
<title>Node8&#45;&gt;Node17</title>
<path fill="none" stroke="#191970" d="M467.73,-557.5248C551.1282,-553.3848 718.1887,-541.6899 768.5,-513 844.3856,-469.7265 896.8763,-373.8733 916.7098,-332.7977"/>
<polygon fill="#191970" stroke="#191970" points="919.9472,-334.1384 921.043,-323.6003 913.6148,-331.1549 919.9472,-334.1384"/>
</g>
<!-- Node8&#45;&gt;Node20 -->
<g id="edge112" class="edge">
<title>Node8&#45;&gt;Node20</title>
<path fill="none" stroke="#191970" d="M419.5,-549.3291C419.5,-499.671 419.5,-282.3293 419.5,-214.0816"/>
<polygon fill="#191970" stroke="#191970" points="423.0001,-213.7952 419.5,-203.7952 416.0001,-213.7953 423.0001,-213.7952"/>
</g>
<!-- Node10 -->
<g id="node10" class="node">
<title>Node10</title>
<g id="a_node10"><a xlink:href="../../d7/d98/SvtxHitEval_8h.html" target="_top" xlink:title="SvtxHitEval.h">
<polygon fill="none" stroke="#000000" points="665.5,-435.5 665.5,-455.5 749.5,-455.5 749.5,-435.5 665.5,-435.5"/>
<text text-anchor="middle" x="707.5" y="-442.5" font-family="FreeSans" font-size="10.00" fill="#000000">SvtxHitEval.h</text>
</a>
</g>
</g>
<!-- Node9&#45;&gt;Node10 -->
<g id="edge10" class="edge">
<title>Node9&#45;&gt;Node10</title>
<path fill="none" stroke="#191970" d="M707.5,-492.3095C707.5,-484.9335 707.5,-474.72 707.5,-465.715"/>
<polygon fill="#191970" stroke="#191970" points="711.0001,-465.6022 707.5,-455.6022 704.0001,-465.6023 711.0001,-465.6022"/>
</g>
<!-- Node9&#45;&gt;Node13 -->
<g id="edge106" class="edge">
<title>Node9&#45;&gt;Node13</title>
<path fill="none" stroke="#191970" d="M694.3446,-492.317C673.4418,-475.3687 632.9255,-439.2347 612.5,-399 598.0468,-370.5297 597.3862,-361.5528 592.5,-330 589.4227,-310.128 589.1996,-287.1344 589.5791,-271.0036"/>
<polygon fill="#191970" stroke="#191970" points="593.0903,-270.726 589.9297,-260.6136 586.0943,-270.4898 593.0903,-270.726"/>
</g>
<!-- Node9&#45;&gt;Node14 -->
<g id="edge25" class="edge">
<title>Node9&#45;&gt;Node14</title>
<path fill="none" stroke="#191970" d="M760.2549,-497.8484C864.9119,-487.4126 1092.7547,-458.2676 1139.5,-399 1154.0179,-380.593 1149.8669,-352.3678 1144.5529,-333.4372"/>
<polygon fill="#191970" stroke="#191970" points="1147.8464,-332.243 1141.5074,-323.7538 1141.1689,-334.3432 1147.8464,-332.243"/>
</g>
<!-- Node9&#45;&gt;Node17 -->
<g id="edge104" class="edge">
<title>Node9&#45;&gt;Node17</title>
<path fill="none" stroke="#191970" d="M718.5786,-492.4184C743.7197,-469.5978 807.1317,-412.3652 861.5,-366 875.7154,-353.8772 891.9971,-340.5282 904.5809,-330.3246"/>
<polygon fill="#191970" stroke="#191970" points="907.0547,-332.8254 912.631,-323.8168 902.654,-327.3817 907.0547,-332.8254"/>
</g>
<!-- Node9&#45;&gt;Node19 -->
<g id="edge105" class="edge">
<title>Node9&#45;&gt;Node19</title>
<path fill="none" stroke="#191970" d="M682.3683,-492.4352C588.5903,-453.5643 270.3696,-309.1243 387.5,-183 410.4436,-158.2947 910.8625,-137.5115 1056.856,-131.957"/>
<polygon fill="#191970" stroke="#191970" points="1057.2768,-135.4437 1067.1376,-131.5688 1057.0126,-128.4487 1057.2768,-135.4437"/>
</g>
<!-- Node9&#45;&gt;Node20 -->
<g id="edge107" class="edge">
<title>Node9&#45;&gt;Node20</title>
<path fill="none" stroke="#191970" d="M688.2858,-492.3625C672.7468,-483.7216 650.7016,-470.4356 633.5,-456 541.8336,-379.0735 460.6613,-258.55 431.2346,-212.3711"/>
<polygon fill="#191970" stroke="#191970" points="434.052,-210.2772 425.7556,-203.6878 428.132,-214.0127 434.052,-210.2772"/>
</g>
<!-- Node21 -->
<g id="node21" class="node">
<title>Node21</title>
<g id="a_node21"><a xlink:href="../../da/d51/ActsSurfaceMaps_8h.html" target="_top" xlink:title="maps hitsetids to Acts Surfaces">
<polygon fill="none" stroke="#000000" points="942,-372.5 942,-392.5 1107,-392.5 1107,-372.5 942,-372.5"/>
<text text-anchor="middle" x="1024.5" y="-379.5" font-family="FreeSans" font-size="10.00" fill="#000000">trackbase/ActsSurfaceMaps.h</text>
</a>
</g>
</g>
<!-- Node9&#45;&gt;Node21 -->
<g id="edge26" class="edge">
<title>Node9&#45;&gt;Node21</title>
<path fill="none" stroke="#191970" d="M724.5046,-492.429C749.1705,-478.1426 796.622,-451.8584 839.5,-435 882.2433,-418.1946 932.4703,-404.2904 969.7953,-395.0222"/>
<polygon fill="#191970" stroke="#191970" points="971.0831,-398.3104 979.9637,-392.5325 969.4182,-391.5112 971.0831,-398.3104"/>
</g>
<!-- Node22 -->
<g id="node22" class="node">
<title>Node22</title>
<g id="a_node22"><a xlink:href="../../d4/d6a/ActsTrackingGeometry_8h.html" target="_top" xlink:title="trackbase/ActsTrackingGeometry.h">
<polygon fill="none" stroke="#000000" points="2406,-435.5 2406,-455.5 2597,-455.5 2597,-435.5 2406,-435.5"/>
<text text-anchor="middle" x="2501.5" y="-442.5" font-family="FreeSans" font-size="10.00" fill="#000000">trackbase/ActsTrackingGeometry.h</text>
</a>
</g>
</g>
<!-- Node9&#45;&gt;Node22 -->
<g id="edge32" class="edge">
<title>Node9&#45;&gt;Node22</title>
<path fill="none" stroke="#191970" d="M760.2194,-500.825C1007.8152,-492.9582 2057.3082,-459.6131 2395.7986,-448.8584"/>
<polygon fill="#191970" stroke="#191970" points="2395.9626,-452.3551 2405.8464,-448.5392 2395.7403,-445.3586 2395.9626,-452.3551"/>
</g>
<!-- Node11 -->
<g id="node11" class="node">
<title>Node11</title>
<g id="a_node11"><a xlink:href="../../d7/d20/SvtxTruthEval_8h.html" target="_top" xlink:title="SvtxTruthEval.h">
<polygon fill="none" stroke="#000000" points="676,-372.5 676,-392.5 771,-392.5 771,-372.5 676,-372.5"/>
<text text-anchor="middle" x="723.5" y="-379.5" font-family="FreeSans" font-size="10.00" fill="#000000">SvtxTruthEval.h</text>
</a>
</g>
</g>
<!-- Node10&#45;&gt;Node11 -->
<g id="edge11" class="edge">
<title>Node10&#45;&gt;Node11</title>
<path fill="none" stroke="#191970" d="M710.0707,-435.378C712.2968,-426.6128 715.5848,-413.6662 718.3501,-402.7777"/>
<polygon fill="#191970" stroke="#191970" points="721.8132,-403.3601 720.8825,-392.8062 715.0286,-401.637 721.8132,-403.3601"/>
</g>
<!-- Node10&#45;&gt;Node13 -->
<g id="edge23" class="edge">
<title>Node10&#45;&gt;Node13</title>
<path fill="none" stroke="#191970" d="M688.2442,-435.4584C668.9078,-425.0269 640.9425,-408.8757 633.5,-399 604.1361,-360.0361 594.7925,-301.5331 591.8428,-270.8846"/>
<polygon fill="#191970" stroke="#191970" points="595.305,-270.2803 590.997,-260.6009 588.3286,-270.8542 595.305,-270.2803"/>
</g>
<!-- Node10&#45;&gt;Node14 -->
<g id="edge21" class="edge">
<title>Node10&#45;&gt;Node14</title>
<path fill="none" stroke="#191970" d="M749.8392,-441.9693C851.4599,-433.3217 1101.8041,-410.9208 1115.5,-399 1134.0455,-382.8581 1137.9876,-353.3754 1138.3458,-333.6085"/>
<polygon fill="#191970" stroke="#191970" points="1141.8447,-333.4811 1138.2361,-323.5198 1134.8451,-333.5573 1141.8447,-333.4811"/>
</g>
<!-- Node10&#45;&gt;Node17 -->
<g id="edge22" class="edge">
<title>Node10&#45;&gt;Node17</title>
<path fill="none" stroke="#191970" d="M723.7271,-435.475C738.4614,-426.2655 760.6972,-412.0989 779.5,-399 799.5572,-385.0272 802.7818,-378.9726 823.5,-366 836.5971,-357.7993 871.2937,-340.2506 896.5923,-327.6998"/>
<polygon fill="#191970" stroke="#191970" points="898.3514,-330.7345 905.7635,-323.1641 895.2482,-324.4599 898.3514,-330.7345"/>
</g>
<!-- Node10&#45;&gt;Node20 -->
<g id="edge24" class="edge">
<title>Node10&#45;&gt;Node20</title>
<path fill="none" stroke="#191970" d="M695.3993,-435.3892C678.4502,-419.9672 651.326,-389.8449 666.5,-366 686.782,-334.1283 723.218,-361.8717 743.5,-330 751.3742,-317.6263 751.4876,-309.3008 743.5,-297 711.0192,-246.9801 528.0701,-211.457 452.3323,-198.6961"/>
<polygon fill="#191970" stroke="#191970" points="452.8215,-195.2295 442.3838,-197.0474 451.677,-202.1353 452.8215,-195.2295"/>
</g>
<!-- Node12 -->
<g id="node12" class="node">
<title>Node12</title>
<g id="a_node12"><a xlink:href="../../d8/d89/BaseTruthEval_8h.html" target="_top" xlink:title="BaseTruthEval.h">
<polygon fill="none" stroke="#000000" points="638,-303.5 638,-323.5 735,-323.5 735,-303.5 638,-303.5"/>
<text text-anchor="middle" x="686.5" y="-310.5" font-family="FreeSans" font-size="10.00" fill="#000000">BaseTruthEval.h</text>
</a>
</g>
</g>
<!-- Node11&#45;&gt;Node12 -->
<g id="edge12" class="edge">
<title>Node11&#45;&gt;Node12</title>
<path fill="none" stroke="#191970" d="M718.0405,-372.3188C712.466,-361.9231 703.6774,-345.5336 696.7917,-332.6927"/>
<polygon fill="#191970" stroke="#191970" points="699.7922,-330.8818 691.9819,-323.723 693.6232,-334.1899 699.7922,-330.8818"/>
</g>
<!-- Node11&#45;&gt;Node13 -->
<g id="edge18" class="edge">
<title>Node11&#45;&gt;Node13</title>
<path fill="none" stroke="#191970" d="M730.5962,-372.4805C741.7804,-355.3423 760.5664,-320.0241 743.5,-297 728.3185,-276.5189 656.1711,-261.4916 616.6093,-254.6343"/>
<polygon fill="#191970" stroke="#191970" points="617.0601,-251.1611 606.6185,-252.9563 615.9006,-258.0644 617.0601,-251.1611"/>
</g>
<!-- Node11&#45;&gt;Node14 -->
<g id="edge14" class="edge">
<title>Node11&#45;&gt;Node14</title>
<path fill="none" stroke="#191970" d="M771.3955,-374.5174C844.2091,-362.3818 983.1605,-339.2232 1067.3636,-325.1894"/>
<polygon fill="#191970" stroke="#191970" points="1068.0642,-328.621 1077.3527,-323.5245 1066.9134,-321.7162 1068.0642,-328.621"/>
</g>
<!-- Node11&#45;&gt;Node17 -->
<g id="edge17" class="edge">
<title>Node11&#45;&gt;Node17</title>
<path fill="none" stroke="#191970" d="M761.0883,-372.4891C795.5058,-362.9162 847.61,-347.3955 891.5,-330 893.1354,-329.3518 894.8013,-328.6584 896.4732,-327.9363"/>
<polygon fill="#191970" stroke="#191970" points="898.3082,-330.9458 905.9461,-323.6032 895.3964,-324.5802 898.3082,-330.9458"/>
</g>
<!-- Node18 -->
<g id="node18" class="node">
<title>Node18</title>
<polygon fill="none" stroke="#bfbfbf" points="1186,-57.5 1186,-77.5 1235,-77.5 1235,-57.5 1186,-57.5"/>
<text text-anchor="middle" x="1210.5" y="-64.5" font-family="FreeSans" font-size="10.00" fill="#000000">vector</text>
</g>
<!-- Node11&#45;&gt;Node18 -->
<g id="edge19" class="edge">
<title>Node11&#45;&gt;Node18</title>
<path fill="none" stroke="#191970" d="M742.3956,-372.4121C775.2655,-353.3345 839.5,-308.6181 839.5,-250.5 839.5,-250.5 839.5,-250.5 839.5,-193.5 839.5,-122.8433 1083.8146,-83.8874 1175.9219,-71.7116"/>
<polygon fill="#191970" stroke="#191970" points="1176.4029,-75.1786 1185.8703,-70.4229 1175.5035,-68.2366 1176.4029,-75.1786"/>
</g>
<!-- Node11&#45;&gt;Node19 -->
<g id="edge20" class="edge">
<title>Node11&#45;&gt;Node19</title>
<path fill="none" stroke="#191970" d="M756.0296,-372.4441C783.1285,-363.3567 822.2071,-348.5717 853.5,-330 865.806,-322.6966 1021.051,-193.4547 1076.7635,-146.9778"/>
<polygon fill="#191970" stroke="#191970" points="1079.0882,-149.5964 1084.5238,-140.5021 1074.6033,-144.2218 1079.0882,-149.5964"/>
</g>
<!-- Node12&#45;&gt;Node13 -->
<g id="edge13" class="edge">
<title>Node12&#45;&gt;Node13</title>
<path fill="none" stroke="#191970" d="M671.0759,-303.378C655.8205,-293.3666 632.2529,-277.9003 614.5399,-266.2762"/>
<polygon fill="#191970" stroke="#191970" points="616.1666,-263.1574 605.8858,-260.5969 612.326,-269.0097 616.1666,-263.1574"/>
</g>
<!-- Node15 -->
<g id="node15" class="node">
<title>Node15</title>
<polygon fill="none" stroke="#bfbfbf" points="1146,-240.5 1146,-260.5 1197,-260.5 1197,-240.5 1146,-240.5"/>
<text text-anchor="middle" x="1171.5" y="-247.5" font-family="FreeSans" font-size="10.00" fill="#000000">cstdint</text>
</g>
<!-- Node14&#45;&gt;Node15 -->
<g id="edge15" class="edge">
<title>Node14&#45;&gt;Node15</title>
<path fill="none" stroke="#191970" d="M1142.9627,-303.378C1147.8409,-294.3389 1155.119,-280.853 1161.1041,-269.7631"/>
<polygon fill="#191970" stroke="#191970" points="1164.2686,-271.2687 1165.9379,-260.8062 1158.1085,-267.9442 1164.2686,-271.2687"/>
</g>
<!-- Node16 -->
<g id="node16" class="node">
<title>Node16</title>
<polygon fill="none" stroke="#bfbfbf" points="1939.5,-120.5 1939.5,-140.5 1999.5,-140.5 1999.5,-120.5 1939.5,-120.5"/>
<text text-anchor="middle" x="1969.5" y="-127.5" font-family="FreeSans" font-size="10.00" fill="#000000">iostream</text>
</g>
<!-- Node14&#45;&gt;Node16 -->
<g id="edge16" class="edge">
<title>Node14&#45;&gt;Node16</title>
<path fill="none" stroke="#191970" d="M1133.471,-303.37C1127.9235,-287.5501 1120.3345,-257.0309 1136.5,-240 1189.3521,-184.3185 1753.3751,-227.3778 1826.5,-204 1843.0589,-198.7062 1844.294,-191.4262 1859.5,-183 1884.9744,-168.8836 1914.8522,-154.7712 1937.0353,-144.7387"/>
<polygon fill="#191970" stroke="#191970" points="1938.6467,-147.8519 1946.3387,-140.566 1935.7821,-141.4649 1938.6467,-147.8519"/>
</g>
<!-- Node21&#45;&gt;Node13 -->
<g id="edge30" class="edge">
<title>Node21&#45;&gt;Node13</title>
<path fill="none" stroke="#191970" d="M1019.4933,-372.4865C1009.6696,-354.0162 985.9642,-314.8448 953.5,-297 895.3764,-265.0508 690.6164,-254.2857 617.06,-251.4015"/>
<polygon fill="#191970" stroke="#191970" points="616.9308,-247.8943 606.8069,-251.0178 616.6689,-254.8894 616.9308,-247.8943"/>
</g>
<!-- Node21&#45;&gt;Node14 -->
<g id="edge27" class="edge">
<title>Node21&#45;&gt;Node14</title>
<path fill="none" stroke="#191970" d="M1041.1735,-372.3188C1059.8675,-360.9039 1090.3965,-342.2623 1112.0713,-329.0273"/>
<polygon fill="#191970" stroke="#191970" points="1114.0474,-331.9216 1120.7581,-323.723 1110.3993,-325.9473 1114.0474,-331.9216"/>
</g>
<!-- Node21&#45;&gt;Node17 -->
<g id="edge28" class="edge">
<title>Node21&#45;&gt;Node17</title>
<path fill="none" stroke="#191970" d="M1009.8922,-372.3188C993.7337,-361.0568 967.4822,-342.7603 948.5454,-329.5619"/>
<polygon fill="#191970" stroke="#191970" points="950.373,-326.5695 940.1677,-323.723 946.3704,-332.3123 950.373,-326.5695"/>
</g>
<!-- Node21&#45;&gt;Node18 -->
<g id="edge31" class="edge">
<title>Node21&#45;&gt;Node18</title>
<path fill="none" stroke="#191970" d="M1022.3247,-372.4928C1014.5592,-333.8889 992.0628,-192.887 1058.5,-114 1073.6266,-96.0388 1135.8165,-81.408 1175.8104,-73.6175"/>
<polygon fill="#191970" stroke="#191970" points="1176.5318,-77.0431 1185.7044,-71.7408 1175.2273,-70.1657 1176.5318,-77.0431"/>
</g>
<!-- Node21&#45;&gt;Node19 -->
<g id="edge29" class="edge">
<title>Node21&#45;&gt;Node19</title>
<path fill="none" stroke="#191970" d="M1027.4117,-372.3092C1038.2452,-334.3918 1076.3422,-201.0524 1090.8407,-150.3074"/>
<polygon fill="#191970" stroke="#191970" points="1094.249,-151.1183 1093.631,-140.5415 1087.5184,-149.1952 1094.249,-151.1183"/>
</g>
<!-- Node22&#45;&gt;Node19 -->
<g id="edge33" class="edge">
<title>Node22&#45;&gt;Node19</title>
<path fill="none" stroke="#191970" d="M2405.5212,-442.3586C2135.0922,-432.6759 1380.9402,-399.6427 1295.5,-330 1241.3083,-285.8281 1289.2351,-232.1358 1239.5,-183 1224.4958,-168.1766 1172.6752,-151.4441 1135.7407,-140.9361"/>
<polygon fill="#191970" stroke="#191970" points="1136.3342,-137.4678 1125.761,-138.1441 1134.4482,-144.209 1136.3342,-137.4678"/>
</g>
<!-- Node23 -->
<g id="node23" class="node">
<title>Node23</title>
<g id="a_node23"><a xlink:href="../../d5/d50/BinnedArray_8hpp.html" target="_top" xlink:title="Acts/Utilities/BinnedArray.hpp">
<polygon fill="none" stroke="#000000" points="2418,-372.5 2418,-392.5 2585,-392.5 2585,-372.5 2418,-372.5"/>
<text text-anchor="middle" x="2501.5" y="-379.5" font-family="FreeSans" font-size="10.00" fill="#000000">Acts/Utilities/BinnedArray.hpp</text>
</a>
</g>
</g>
<!-- Node22&#45;&gt;Node23 -->
<g id="edge34" class="edge">
<title>Node22&#45;&gt;Node23</title>
<path fill="none" stroke="#191970" d="M2501.5,-435.378C2501.5,-426.7041 2501.5,-413.9355 2501.5,-403.1186"/>
<polygon fill="#191970" stroke="#191970" points="2505.0001,-402.8062 2501.5,-392.8062 2498.0001,-402.8062 2505.0001,-402.8062"/>
</g>
<!-- Node29 -->
<g id="node29" class="node">
<title>Node29</title>
<g id="a_node29"><a xlink:href="../../d6/d1d/Definitions_8hpp.html" target="_top" xlink:title="Acts/Utilities/Definitions.hpp">
<polygon fill="none" stroke="#000000" points="2647.5,-57.5 2647.5,-77.5 2807.5,-77.5 2807.5,-57.5 2647.5,-57.5"/>
<text text-anchor="middle" x="2727.5" y="-64.5" font-family="FreeSans" font-size="10.00" fill="#000000">Acts/Utilities/Definitions.hpp</text>
</a>
</g>
</g>
<!-- Node22&#45;&gt;Node29 -->
<g id="edge77" class="edge">
<title>Node22&#45;&gt;Node29</title>
<path fill="none" stroke="#191970" d="M2597.1845,-442.3314C2737.2006,-436.8811 2984.9066,-423.843 3017.5,-399 3049.7693,-374.404 3049.5,-354.0743 3049.5,-313.5 3049.5,-313.5 3049.5,-313.5 3049.5,-193.5 3049.5,-139.0553 2887.8389,-98.5063 2793.6089,-79.4953"/>
<polygon fill="#191970" stroke="#191970" points="2794.0786,-76.0202 2783.5881,-77.5033 2792.7138,-82.8859 2794.0786,-76.0202"/>
</g>
<!-- Node40 -->
<g id="node40" class="node">
<title>Node40</title>
<g id="a_node40"><a xlink:href="../../d9/d11/Logger_8hpp.html" target="_top" xlink:title="Acts/Utilities/Logger.hpp">
<polygon fill="none" stroke="#000000" points="2145.5,-183.5 2145.5,-203.5 2285.5,-203.5 2285.5,-183.5 2145.5,-183.5"/>
<text text-anchor="middle" x="2215.5" y="-190.5" font-family="FreeSans" font-size="10.00" fill="#000000">Acts/Utilities/Logger.hpp</text>
</a>
</g>
</g>
<!-- Node22&#45;&gt;Node40 -->
<g id="edge78" class="edge">
<title>Node22&#45;&gt;Node40</title>
<path fill="none" stroke="#191970" d="M2555.7691,-435.4898C2643.9272,-416.8167 2803.0069,-371.6586 2746.5,-297 2693.1214,-226.4747 2430.8672,-203.7003 2295.9763,-196.5884"/>
<polygon fill="#191970" stroke="#191970" points="2295.8644,-193.0782 2285.699,-196.0639 2295.5076,-200.0691 2295.8644,-193.0782"/>
</g>
<!-- Node43 -->
<g id="node43" class="node">
<title>Node43</title>
<g id="a_node43"><a xlink:href="../../dd/d24/TrackingGeometry_8hpp.html" target="_top" xlink:title="Acts/Geometry/TrackingGeometry.hpp">
<polygon fill="none" stroke="#000000" points="1729,-372.5 1729,-392.5 1938,-392.5 1938,-372.5 1729,-372.5"/>
<text text-anchor="middle" x="1833.5" y="-379.5" font-family="FreeSans" font-size="10.00" fill="#000000">Acts/Geometry/TrackingGeometry.hpp</text>
</a>
</g>
</g>
<!-- Node22&#45;&gt;Node43 -->
<g id="edge87" class="edge">
<title>Node22&#45;&gt;Node43</title>
<path fill="none" stroke="#191970" d="M2405.7919,-436.4736C2285.0512,-425.0864 2077.6211,-405.5234 1948.4293,-393.3391"/>
<polygon fill="#191970" stroke="#191970" points="1948.3932,-389.8203 1938.1087,-392.3658 1947.7359,-396.7894 1948.3932,-389.8203"/>
</g>
<!-- Node48 -->
<g id="node48" class="node">
<title>Node48</title>
<g id="a_node48"><a xlink:href="../../d6/da8/MagneticFieldContext_8hpp.html" target="_top" xlink:title="Acts/MagneticField\l/MagneticFieldContext.hpp">
<polygon fill="none" stroke="#000000" points="2831.5,-297.5 2831.5,-329.5 2983.5,-329.5 2983.5,-297.5 2831.5,-297.5"/>
<text text-anchor="start" x="2839.5" y="-316.5" font-family="FreeSans" font-size="10.00" fill="#000000">Acts/MagneticField</text>
<text text-anchor="middle" x="2907.5" y="-304.5" font-family="FreeSans" font-size="10.00" fill="#000000">/MagneticFieldContext.hpp</text>
</a>
</g>
</g>
<!-- Node22&#45;&gt;Node48 -->
<g id="edge99" class="edge">
<title>Node22&#45;&gt;Node48</title>
<path fill="none" stroke="#191970" d="M2597.1496,-439.5233C2652.0415,-433.6564 2721.3838,-422.0318 2779.5,-399 2817.8917,-383.7851 2856.5745,-355.7844 2881.2078,-335.9779"/>
<polygon fill="#191970" stroke="#191970" points="2883.4758,-338.6446 2889.0024,-329.6053 2879.0452,-333.2252 2883.4758,-338.6446"/>
</g>
<!-- Node49 -->
<g id="node49" class="node">
<title>Node49</title>
<g id="a_node49"><a xlink:href="../../d0/d28/CalibrationContext_8hpp.html" target="_top" xlink:title="Acts/Utilities/Calibration\lContext.hpp">
<polygon fill="none" stroke="#000000" points="2870.5,-366.5 2870.5,-398.5 3008.5,-398.5 3008.5,-366.5 2870.5,-366.5"/>
<text text-anchor="start" x="2878.5" y="-385.5" font-family="FreeSans" font-size="10.00" fill="#000000">Acts/Utilities/Calibration</text>
<text text-anchor="middle" x="2939.5" y="-373.5" font-family="FreeSans" font-size="10.00" fill="#000000">Context.hpp</text>
</a>
</g>
</g>
<!-- Node22&#45;&gt;Node49 -->
<g id="edge101" class="edge">
<title>Node22&#45;&gt;Node49</title>
<path fill="none" stroke="#191970" d="M2573.7334,-435.4986C2640.4112,-426.2171 2742.1723,-411.927 2830.5,-399 2840.1581,-397.5865 2850.2941,-396.0813 2860.3342,-394.5771"/>
<polygon fill="#191970" stroke="#191970" points="2860.9521,-398.0237 2870.3211,-393.0767 2859.912,-391.1014 2860.9521,-398.0237"/>
</g>
<!-- Node50 -->
<g id="node50" class="node">
<title>Node50</title>
<polygon fill="none" stroke="#bfbfbf" points="2253,-366.5 2253,-398.5 2400,-398.5 2400,-366.5 2253,-366.5"/>
<text text-anchor="start" x="2261" y="-385.5" font-family="FreeSans" font-size="10.00" fill="#000000">ActsExamples/Plugins</text>
<text text-anchor="middle" x="2326.5" y="-373.5" font-family="FreeSans" font-size="10.00" fill="#000000">/BField/BFieldOptions.hpp</text>
</g>
<!-- Node22&#45;&gt;Node50 -->
<g id="edge103" class="edge">
<title>Node22&#45;&gt;Node50</title>
<path fill="none" stroke="#191970" d="M2473.3832,-435.378C2448.5362,-426.433 2411.5929,-413.1334 2380.9734,-402.1104"/>
<polygon fill="#191970" stroke="#191970" points="2381.8719,-398.7141 2371.2775,-398.6199 2379.5009,-405.3003 2381.8719,-398.7141"/>
</g>
<!-- Node23&#45;&gt;Node18 -->
<g id="edge36" class="edge">
<title>Node23&#45;&gt;Node18</title>
<path fill="none" stroke="#191970" d="M2452.0069,-372.4969C2438.2894,-370.0323 2423.3593,-367.6341 2409.5,-366 2131.8538,-333.2645 2056.8013,-378.6643 1781.5,-330 1676.8253,-311.4969 1653.4148,-294.3971 1552.5,-261 1455.601,-228.9319 1433.3049,-215.351 1336.5,-183 1284.8993,-165.7557 1254.2367,-188.8732 1219.5,-147 1205.9041,-130.6109 1205.3644,-105.3408 1207.1192,-87.7039"/>
<polygon fill="#191970" stroke="#191970" points="1210.6113,-87.9936 1208.4507,-77.6214 1203.6715,-87.077 1210.6113,-87.9936"/>
</g>
<!-- Node24 -->
<g id="node24" class="node">
<title>Node24</title>
<polygon fill="none" stroke="#bfbfbf" points="2492,-240.5 2492,-260.5 2535,-260.5 2535,-240.5 2492,-240.5"/>
<text text-anchor="middle" x="2513.5" y="-247.5" font-family="FreeSans" font-size="10.00" fill="#000000">array</text>
</g>
<!-- Node23&#45;&gt;Node24 -->
<g id="edge35" class="edge">
<title>Node23&#45;&gt;Node24</title>
<path fill="none" stroke="#191970" d="M2502.4416,-372.1422C2504.422,-350.3584 2509.0489,-299.4618 2511.6465,-270.8882"/>
<polygon fill="#191970" stroke="#191970" points="2515.1429,-271.0855 2512.5628,-260.8097 2508.1717,-270.4517 2515.1429,-271.0855"/>
</g>
<!-- Node25 -->
<g id="node25" class="node">
<title>Node25</title>
<g id="a_node25"><a xlink:href="../../d2/d0a/BinUtility_8hpp.html" target="_top" xlink:title="Acts/Utilities/BinUtility.hpp">
<polygon fill="none" stroke="#000000" points="1790,-303.5 1790,-323.5 1941,-323.5 1941,-303.5 1790,-303.5"/>
<text text-anchor="middle" x="1865.5" y="-310.5" font-family="FreeSans" font-size="10.00" fill="#000000">Acts/Utilities/BinUtility.hpp</text>
</a>
</g>
</g>
<!-- Node23&#45;&gt;Node25 -->
<g id="edge37" class="edge">
<title>Node23&#45;&gt;Node25</title>
<path fill="none" stroke="#191970" d="M2449.557,-372.4238C2436.5126,-370.1032 2422.5211,-367.7929 2409.5,-366 2248.3257,-343.807 2059.0047,-327.7906 1951.5503,-319.6331"/>
<polygon fill="#191970" stroke="#191970" points="1951.6457,-316.1304 1941.4107,-318.8682 1951.1191,-323.1106 1951.6457,-316.1304"/>
</g>
<!-- Node23&#45;&gt;Node29 -->
<g id="edge76" class="edge">
<title>Node23&#45;&gt;Node29</title>
<path fill="none" stroke="#191970" d="M2576.5613,-372.4699C2637.9252,-363.1777 2718.8905,-348.086 2746.5,-330 2782.8683,-306.1763 2803.5,-293.9767 2803.5,-250.5 2803.5,-250.5 2803.5,-250.5 2803.5,-193.5 2803.5,-156.5917 2799.3293,-145.1291 2779.5,-114 2772.0784,-102.3491 2760.9472,-91.8492 2750.8854,-83.7877"/>
<polygon fill="#191970" stroke="#191970" points="2752.8649,-80.8957 2742.7899,-77.6177 2748.6217,-86.4631 2752.8649,-80.8957"/>
</g>
<!-- Node25&#45;&gt;Node16 -->
<g id="edge39" class="edge">
<title>Node25&#45;&gt;Node16</title>
<path fill="none" stroke="#191970" d="M1871.2396,-303.4005C1887.9627,-273.9742 1936.8415,-187.9664 1958.7085,-149.4889"/>
<polygon fill="#191970" stroke="#191970" points="1961.7519,-151.2174 1963.6499,-140.7939 1955.666,-147.7587 1961.7519,-151.2174"/>
</g>
<!-- Node25&#45;&gt;Node18 -->
<g id="edge41" class="edge">
<title>Node25&#45;&gt;Node18</title>
<path fill="none" stroke="#191970" d="M1809.6963,-303.4415C1760.7215,-294.1055 1687.7919,-278.9658 1625.5,-261 1553.7716,-240.3126 1535.4942,-234.8177 1467.5,-204 1449.9247,-196.0342 1447.6224,-189.6275 1429.5,-183 1352.4693,-154.8295 1313.264,-197.3283 1248.5,-147 1229.6054,-132.3169 1219.6136,-105.896 1214.6993,-87.5633"/>
<polygon fill="#191970" stroke="#191970" points="1218.0484,-86.5202 1212.3123,-77.6125 1211.2415,-88.153 1218.0484,-86.5202"/>
</g>
<!-- Node25&#45;&gt;Node19 -->
<g id="edge40" class="edge">
<title>Node25&#45;&gt;Node19</title>
<path fill="none" stroke="#191970" d="M1789.9483,-304.8284C1724.226,-296.4218 1626.7355,-281.8659 1543.5,-261 1439.6153,-234.9577 1418.3552,-212.8501 1315.5,-183 1253.2761,-164.9417 1179.8431,-148.2636 1135.7864,-138.7457"/>
<polygon fill="#191970" stroke="#191970" points="1136.2896,-135.2741 1125.7778,-136.5976 1134.8206,-142.1182 1136.2896,-135.2741"/>
</g>
<!-- Node25&#45;&gt;Node24 -->
<g id="edge38" class="edge">
<title>Node25&#45;&gt;Node24</title>
<path fill="none" stroke="#191970" d="M1941.102,-306.1498C2082.8526,-292.3685 2383.1323,-263.1746 2481.5368,-253.6075"/>
<polygon fill="#191970" stroke="#191970" points="2482.1192,-257.0675 2491.7336,-252.6162 2481.4418,-250.1004 2482.1192,-257.0675"/>
</g>
<!-- Node26 -->
<g id="node26" class="node">
<title>Node26</title>
<g id="a_node26"><a xlink:href="../../d3/d5e/BinningData_8hpp.html" target="_top" xlink:title="Acts/Utilities/BinningData.hpp">
<polygon fill="none" stroke="#000000" points="1693,-240.5 1693,-260.5 1862,-260.5 1862,-240.5 1693,-240.5"/>
<text text-anchor="middle" x="1777.5" y="-247.5" font-family="FreeSans" font-size="10.00" fill="#000000">Acts/Utilities/BinningData.hpp</text>
</a>
</g>
</g>
<!-- Node25&#45;&gt;Node26 -->
<g id="edge42" class="edge">
<title>Node25&#45;&gt;Node26</title>
<path fill="none" stroke="#191970" d="M1851.3613,-303.378C1837.5054,-293.4584 1816.1692,-278.1837 1799.9848,-266.597"/>
<polygon fill="#191970" stroke="#191970" points="1801.7721,-263.5722 1791.6036,-260.5969 1797.6973,-269.264 1801.7721,-263.5722"/>
</g>
<!-- Node28 -->
<g id="node28" class="node">
<title>Node28</title>
<g id="a_node28"><a xlink:href="../../de/d09/BinningType_8hpp.html" target="_top" xlink:title="Acts/Utilities/BinningType.hpp">
<polygon fill="none" stroke="#000000" points="1257.5,-120.5 1257.5,-140.5 1425.5,-140.5 1425.5,-120.5 1257.5,-120.5"/>
<text text-anchor="middle" x="1341.5" y="-127.5" font-family="FreeSans" font-size="10.00" fill="#000000">Acts/Utilities/BinningType.hpp</text>
</a>
</g>
</g>
<!-- Node25&#45;&gt;Node28 -->
<g id="edge74" class="edge">
<title>Node25&#45;&gt;Node28</title>
<path fill="none" stroke="#191970" d="M1827.4363,-303.4272C1790.6166,-293.4566 1733.3684,-277.3536 1684.5,-261 1569.747,-222.5984 1436.4716,-169.3477 1375.3194,-144.4179"/>
<polygon fill="#191970" stroke="#191970" points="1376.3735,-141.0678 1365.7926,-140.5252 1373.7257,-147.5477 1376.3735,-141.0678"/>
</g>
<!-- Node25&#45;&gt;Node29 -->
<g id="edge75" class="edge">
<title>Node25&#45;&gt;Node29</title>
<path fill="none" stroke="#191970" d="M1941.0833,-306.4601C2120.5747,-288.4519 2566.2053,-235.771 2683.5,-147 2703.2682,-132.039 2715.3473,-105.4863 2721.728,-87.2122"/>
<polygon fill="#191970" stroke="#191970" points="2725.1026,-88.1512 2724.8413,-77.5595 2718.4406,-86.0023 2725.1026,-88.1512"/>
</g>
<!-- Node26&#45;&gt;Node16 -->
<g id="edge44" class="edge">
<title>Node26&#45;&gt;Node16</title>
<path fill="none" stroke="#191970" d="M1796.2897,-240.3564C1813.0585,-231.1833 1838.1853,-217.1402 1859.5,-204 1890.259,-185.0375 1924.7558,-161.6231 1946.7796,-146.3901"/>
<polygon fill="#191970" stroke="#191970" points="1948.9117,-149.1708 1955.1301,-140.5928 1944.9196,-143.4206 1948.9117,-149.1708"/>
</g>
<!-- Node26&#45;&gt;Node18 -->
<g id="edge47" class="edge">
<title>Node26&#45;&gt;Node18</title>
<path fill="none" stroke="#191970" d="M1749.4952,-240.3979C1689.0884,-218.5426 1548.2352,-167.2135 1501.5,-147 1471.0337,-133.823 1465.8901,-124.793 1434.5,-114 1369.4761,-91.6426 1289.9579,-78.2584 1245.2858,-71.9356"/>
<polygon fill="#191970" stroke="#191970" points="1245.6236,-68.4491 1235.2392,-70.55 1244.6673,-75.3835 1245.6236,-68.4491"/>
</g>
<!-- Node26&#45;&gt;Node19 -->
<g id="edge45" class="edge">
<title>Node26&#45;&gt;Node19</title>
<path fill="none" stroke="#191970" d="M1720.6096,-240.4753C1585.9176,-216.741 1250.2452,-157.5917 1135.6007,-137.39"/>
<polygon fill="#191970" stroke="#191970" points="1135.9783,-133.9027 1125.5226,-135.6141 1134.7635,-140.7965 1135.9783,-133.9027"/>
</g>
<!-- Node26&#45;&gt;Node20 -->
<g id="edge46" class="edge">
<title>Node26&#45;&gt;Node20</title>
<path fill="none" stroke="#191970" d="M1692.8077,-246.9452C1428.3244,-235.8439 625.1055,-202.13 452.425,-194.882"/>
<polygon fill="#191970" stroke="#191970" points="452.5566,-191.3845 442.4186,-194.462 452.263,-198.3784 452.5566,-191.3845"/>
</g>
<!-- Node27 -->
<g id="node27" class="node">
<title>Node27</title>
<polygon fill="none" stroke="#bfbfbf" points="2363.5,-57.5 2363.5,-77.5 2411.5,-77.5 2411.5,-57.5 2363.5,-57.5"/>
<text text-anchor="middle" x="2387.5" y="-64.5" font-family="FreeSans" font-size="10.00" fill="#000000">cmath</text>
</g>
<!-- Node26&#45;&gt;Node27 -->
<g id="edge43" class="edge">
<title>Node26&#45;&gt;Node27</title>
<path fill="none" stroke="#191970" d="M1862.2571,-247.301C1965.1486,-242.4024 2143.6307,-230.6373 2294.5,-204 2330.2771,-197.6832 2337.8863,-190.1808 2373.5,-183 2430.4625,-171.5146 2594.3439,-190.8264 2632.5,-147 2642.1306,-135.9382 2641.8541,-125.2965 2632.5,-114 2606.1913,-82.2284 2483.2983,-71.9914 2422.1871,-68.8338"/>
<polygon fill="#191970" stroke="#191970" points="2422.0385,-65.3227 2411.882,-68.3385 2421.7024,-72.3147 2422.0385,-65.3227"/>
</g>
<!-- Node26&#45;&gt;Node28 -->
<g id="edge48" class="edge">
<title>Node26&#45;&gt;Node28</title>
<path fill="none" stroke="#191970" d="M1743.8662,-240.4937C1698.4809,-227.061 1615.0637,-202.6177 1543.5,-183 1491.6851,-168.796 1432.1275,-153.4337 1391.1786,-143.0199"/>
<polygon fill="#191970" stroke="#191970" points="1391.9977,-139.6169 1381.4439,-140.5483 1390.275,-146.4016 1391.9977,-139.6169"/>
</g>
<!-- Node26&#45;&gt;Node29 -->
<g id="edge51" class="edge">
<title>Node26&#45;&gt;Node29</title>
<path fill="none" stroke="#191970" d="M1862.3012,-246.3726C1973.9119,-240.3027 2176.0426,-227.1091 2347.5,-204 2415.184,-194.8775 2589.2638,-179.1861 2649.5,-147 2677.0528,-132.2777 2700.895,-104.4738 2714.7361,-85.9638"/>
<polygon fill="#191970" stroke="#191970" points="2717.6733,-87.875 2720.6999,-77.7216 2712.0022,-83.7715 2717.6733,-87.875"/>
</g>
<!-- Node31 -->
<g id="node31" class="node">
<title>Node31</title>
<g id="a_node31"><a xlink:href="../../d9/d70/Core_2include_2Acts_2Utilities_2Helpers_8hpp.html" target="_top" xlink:title="Acts/Utilities/Helpers.hpp">
<polygon fill="none" stroke="#000000" points="1672,-183.5 1672,-203.5 1817,-203.5 1817,-183.5 1672,-183.5"/>
<text text-anchor="middle" x="1744.5" y="-190.5" font-family="FreeSans" font-size="10.00" fill="#000000">Acts/Utilities/Helpers.hpp</text>
</a>
</g>
</g>
<!-- Node26&#45;&gt;Node31 -->
<g id="edge53" class="edge">
<title>Node26&#45;&gt;Node31</title>
<path fill="none" stroke="#191970" d="M1771.6003,-240.3095C1767.1422,-232.6093 1760.8938,-221.8166 1755.5202,-212.5349"/>
<polygon fill="#191970" stroke="#191970" points="1758.3881,-210.5029 1750.3487,-203.6022 1752.3301,-214.0102 1758.3881,-210.5029"/>
</g>
<!-- Node38 -->
<g id="node38" class="node">
<title>Node38</title>
<g id="a_node38"><a xlink:href="../../d8/db0/ThrowAssert_8hpp.html" target="_top" xlink:title="Acts/Utilities/ThrowAssert.hpp">
<polygon fill="none" stroke="#ff0000" points="1949,-183.5 1949,-203.5 2118,-203.5 2118,-183.5 1949,-183.5"/>
<text text-anchor="middle" x="2033.5" y="-190.5" font-family="FreeSans" font-size="10.00" fill="#000000">Acts/Utilities/ThrowAssert.hpp</text>
</a>
</g>
</g>
<!-- Node26&#45;&gt;Node38 -->
<g id="edge70" class="edge">
<title>Node26&#45;&gt;Node38</title>
<path fill="none" stroke="#191970" d="M1822.6784,-240.4408C1866.1399,-230.7638 1931.9265,-216.116 1978.4338,-205.7608"/>
<polygon fill="#191970" stroke="#191970" points="1979.3432,-209.1441 1988.3434,-203.5544 1977.8218,-202.3115 1979.3432,-209.1441"/>
</g>
<!-- Node28&#45;&gt;Node5 -->
<g id="edge49" class="edge">
<title>Node28&#45;&gt;Node5</title>
<path fill="none" stroke="#191970" d="M1257.4389,-123.3017C1219.8442,-120.2107 1174.9681,-116.6976 1134.5,-114 809.5817,-92.3408 415.6343,-74.1232 300.542,-68.9626"/>
<polygon fill="#191970" stroke="#191970" points="300.4326,-65.4543 290.2863,-68.5043 300.12,-72.4473 300.4326,-65.4543"/>
</g>
<!-- Node28&#45;&gt;Node18 -->
<g id="edge50" class="edge">
<title>Node28&#45;&gt;Node18</title>
<path fill="none" stroke="#191970" d="M1320.4526,-120.378C1298.8713,-109.9992 1265.0996,-93.7578 1240.6766,-82.0124"/>
<polygon fill="#191970" stroke="#191970" points="1242.0241,-78.7768 1231.4952,-77.5969 1238.9903,-85.0852 1242.0241,-78.7768"/>
</g>
<!-- Node30 -->
<g id="node30" class="node">
<title>Node30</title>
<polygon fill="none" stroke="#bfbfbf" points="2687.5,-.5 2687.5,-20.5 2767.5,-20.5 2767.5,-.5 2687.5,-.5"/>
<text text-anchor="middle" x="2727.5" y="-7.5" font-family="FreeSans" font-size="10.00" fill="#000000">Eigen/Dense</text>
</g>
<!-- Node29&#45;&gt;Node30 -->
<g id="edge52" class="edge">
<title>Node29&#45;&gt;Node30</title>
<path fill="none" stroke="#191970" d="M2727.5,-57.3095C2727.5,-49.9335 2727.5,-39.72 2727.5,-30.715"/>
<polygon fill="#191970" stroke="#191970" points="2731.0001,-30.6022 2727.5,-20.6022 2724.0001,-30.6023 2731.0001,-30.6022"/>
</g>
<!-- Node31&#45;&gt;Node5 -->
<g id="edge60" class="edge">
<title>Node31&#45;&gt;Node5</title>
<path fill="none" stroke="#191970" d="M1671.9705,-184.0771C1623.9835,-176.7065 1560.084,-164.703 1505.5,-147 1472.3999,-136.2648 1468.3211,-122.1854 1434.5,-114 1321.7604,-86.7147 478.1711,-71.0554 300.3464,-68.0383"/>
<polygon fill="#191970" stroke="#191970" points="300.3512,-64.538 290.2937,-67.8692 300.2334,-71.537 300.3512,-64.538"/>
</g>
<!-- Node31&#45;&gt;Node16 -->
<g id="edge58" class="edge">
<title>Node31&#45;&gt;Node16</title>
<path fill="none" stroke="#191970" d="M1789.1348,-183.4442C1826.001,-174.8022 1879.546,-161.4734 1925.5,-147 1928.44,-146.074 1931.4705,-145.062 1934.5008,-144.0095"/>
<polygon fill="#191970" stroke="#191970" points="1935.8447,-147.2457 1944.0682,-140.5655 1933.4738,-140.6594 1935.8447,-147.2457"/>
</g>
<!-- Node31&#45;&gt;Node18 -->
<g id="edge61" class="edge">
<title>Node31&#45;&gt;Node18</title>
<path fill="none" stroke="#191970" d="M1706.4896,-183.4702C1674.2713,-174.694 1626.9846,-161.1639 1586.5,-147 1549.8078,-134.1629 1542.948,-124.4289 1505.5,-114 1413.5313,-88.3876 1301.2455,-75.5629 1245.4493,-70.3809"/>
<polygon fill="#191970" stroke="#191970" points="1245.6598,-66.8858 1235.3857,-69.4728 1245.0307,-73.8574 1245.6598,-66.8858"/>
</g>
<!-- Node31&#45;&gt;Node19 -->
<g id="edge59" class="edge">
<title>Node31&#45;&gt;Node19</title>
<path fill="none" stroke="#191970" d="M1671.7675,-187.0174C1575.0701,-178.3219 1398.8718,-162.2095 1248.5,-147 1210.2294,-143.1291 1166.5803,-138.3534 1135.9051,-134.9377"/>
<polygon fill="#191970" stroke="#191970" points="1135.9528,-131.4213 1125.6261,-133.7899 1135.1759,-138.3781 1135.9528,-131.4213"/>
</g>
<!-- Node31&#45;&gt;Node27 -->
<g id="edge55" class="edge">
<title>Node31&#45;&gt;Node27</title>
<path fill="none" stroke="#191970" d="M1793.5308,-183.4658C1823.3803,-176.079 1861.5861,-164.2821 1892.5,-147 1912.0246,-136.085 1909.9699,-122.8803 1930.5,-114 2006.5409,-81.1087 2260.1845,-70.9771 2353.0511,-68.3271"/>
<polygon fill="#191970" stroke="#191970" points="2353.4044,-71.8189 2363.3049,-68.0466 2353.2129,-64.8215 2353.4044,-71.8189"/>
</g>
<!-- Node31&#45;&gt;Node28 -->
<g id="edge62" class="edge">
<title>Node31&#45;&gt;Node28</title>
<path fill="none" stroke="#191970" d="M1680.1978,-183.4478C1608.1014,-172.1771 1491.3788,-153.9302 1415.534,-142.0736"/>
<polygon fill="#191970" stroke="#191970" points="1415.9937,-138.603 1405.5731,-140.5164 1414.9125,-145.519 1415.9937,-138.603"/>
</g>
<!-- Node31&#45;&gt;Node29 -->
<g id="edge63" class="edge">
<title>Node31&#45;&gt;Node29</title>
<path fill="none" stroke="#191970" d="M1817.0686,-189.4136C1996.8692,-179.21 2449.616,-153.0032 2464.5,-147 2485.5576,-138.5068 2483.089,-123.9471 2503.5,-114 2545.0653,-93.7435 2595.15,-82.2942 2637.41,-75.831"/>
<polygon fill="#191970" stroke="#191970" points="2638.0249,-79.2784 2647.4145,-74.3707 2637.0138,-72.3518 2638.0249,-79.2784"/>
</g>
<!-- Node32 -->
<g id="node32" class="node">
<title>Node32</title>
<polygon fill="none" stroke="#bfbfbf" points="1770,-120.5 1770,-140.5 1815,-140.5 1815,-120.5 1770,-120.5"/>
<text text-anchor="middle" x="1792.5" y="-127.5" font-family="FreeSans" font-size="10.00" fill="#000000">bitset</text>
</g>
<!-- Node31&#45;&gt;Node32 -->
<g id="edge54" class="edge">
<title>Node31&#45;&gt;Node32</title>
<path fill="none" stroke="#191970" d="M1752.212,-183.378C1759.3077,-174.0649 1769.9998,-160.0316 1778.5863,-148.7617"/>
<polygon fill="#191970" stroke="#191970" points="1781.3712,-150.8817 1784.6476,-140.8062 1775.8032,-146.6394 1781.3712,-150.8817"/>
</g>
<!-- Node33 -->
<g id="node33" class="node">
<title>Node33</title>
<polygon fill="none" stroke="#bfbfbf" points="1833.5,-120.5 1833.5,-140.5 1883.5,-140.5 1883.5,-120.5 1833.5,-120.5"/>
<text text-anchor="middle" x="1858.5" y="-127.5" font-family="FreeSans" font-size="10.00" fill="#000000">cstdlib</text>
</g>
<!-- Node31&#45;&gt;Node33 -->
<g id="edge56" class="edge">
<title>Node31&#45;&gt;Node33</title>
<path fill="none" stroke="#191970" d="M1762.8161,-183.378C1781.3474,-173.137 1810.2074,-157.188 1831.3888,-145.4825"/>
<polygon fill="#191970" stroke="#191970" points="1833.1699,-148.4972 1840.2294,-140.5969 1829.784,-142.3705 1833.1699,-148.4972"/>
</g>
<!-- Node34 -->
<g id="node34" class="node">
<title>Node34</title>
<polygon fill="none" stroke="#bfbfbf" points="2056,-120.5 2056,-140.5 2113,-140.5 2113,-120.5 2056,-120.5"/>
<text text-anchor="middle" x="2084.5" y="-127.5" font-family="FreeSans" font-size="10.00" fill="#000000">iomanip</text>
</g>
<!-- Node31&#45;&gt;Node34 -->
<g id="edge57" class="edge">
<title>Node31&#45;&gt;Node34</title>
<path fill="none" stroke="#191970" d="M1805.4434,-183.4669C1859.0331,-174.4773 1939.0888,-160.6422 2008.5,-147 2020.5912,-144.6236 2033.7206,-141.8445 2045.6111,-139.2519"/>
<polygon fill="#191970" stroke="#191970" points="2046.6696,-142.6028 2055.6843,-137.0363 2045.1659,-135.7662 2046.6696,-142.6028"/>
</g>
<!-- Node35 -->
<g id="node35" class="node">
<title>Node35</title>
<g id="a_node35"><a xlink:href="../../d8/dfd/ParameterDefinitions_8hpp.html" target="_top" xlink:title="Acts/Utilities/Parameter\lDefinitions.hpp">
<polygon fill="none" stroke="#ff0000" points="2319.5,-114.5 2319.5,-146.5 2455.5,-146.5 2455.5,-114.5 2319.5,-114.5"/>
<text text-anchor="start" x="2327.5" y="-133.5" font-family="FreeSans" font-size="10.00" fill="#000000">Acts/Utilities/Parameter</text>
<text text-anchor="middle" x="2387.5" y="-121.5" font-family="FreeSans" font-size="10.00" fill="#000000">Definitions.hpp</text>
</a>
</g>
</g>
<!-- Node31&#45;&gt;Node35 -->
<g id="edge64" class="edge">
<title>Node31&#45;&gt;Node35</title>
<path fill="none" stroke="#191970" d="M1817.0104,-186.3956C1938.724,-174.4703 2183.1127,-150.5255 2308.8309,-138.2079"/>
<polygon fill="#191970" stroke="#191970" points="2309.5359,-141.6556 2319.1469,-137.1971 2308.8532,-134.689 2309.5359,-141.6556"/>
</g>
<!-- Node36 -->
<g id="node36" class="node">
<title>Node36</title>
<g id="a_node36"><a xlink:href="../../d0/d81/TypeTraits_8hpp.html" target="_top" xlink:title="Acts/Utilities/TypeTraits.hpp">
<polygon fill="none" stroke="#ff0000" points="1595.5,-120.5 1595.5,-140.5 1751.5,-140.5 1751.5,-120.5 1595.5,-120.5"/>
<text text-anchor="middle" x="1673.5" y="-127.5" font-family="FreeSans" font-size="10.00" fill="#000000">Acts/Utilities/TypeTraits.hpp</text>
</a>
</g>
</g>
<!-- Node31&#45;&gt;Node36 -->
<g id="edge67" class="edge">
<title>Node31&#45;&gt;Node36</title>
<path fill="none" stroke="#191970" d="M1733.0926,-183.378C1722.1854,-173.6997 1705.533,-158.9236 1692.6013,-147.449"/>
<polygon fill="#191970" stroke="#191970" points="1694.9179,-144.8254 1685.1149,-140.8062 1690.2719,-150.0613 1694.9179,-144.8254"/>
</g>
<!-- Node35&#45;&gt;Node27 -->
<g id="edge65" class="edge">
<title>Node35&#45;&gt;Node27</title>
<path fill="none" stroke="#191970" d="M2387.5,-114.2759C2387.5,-106.2654 2387.5,-96.5159 2387.5,-87.9952"/>
<polygon fill="#191970" stroke="#191970" points="2391.0001,-87.7512 2387.5,-77.7513 2384.0001,-87.7513 2391.0001,-87.7512"/>
</g>
<!-- Node35&#45;&gt;Node29 -->
<g id="edge66" class="edge">
<title>Node35&#45;&gt;Node29</title>
<path fill="none" stroke="#191970" d="M2455.9364,-116.6215C2460.5246,-115.7243 2465.078,-114.8433 2469.5,-114 2534.0466,-101.6906 2607.8478,-88.4757 2659.9355,-79.2917"/>
<polygon fill="#191970" stroke="#191970" points="2660.8127,-82.6912 2670.0543,-77.5102 2659.5989,-75.7972 2660.8127,-82.6912"/>
</g>
<!-- Node36&#45;&gt;Node5 -->
<g id="edge69" class="edge">
<title>Node36&#45;&gt;Node5</title>
<path fill="none" stroke="#191970" d="M1595.3731,-121.8384C1567.0912,-118.9643 1534.886,-115.9931 1505.5,-114 1027.6139,-81.5872 444.3092,-70.3782 300.6377,-68.0104"/>
<polygon fill="#191970" stroke="#191970" points="300.3691,-64.5057 290.3137,-67.8432 300.2556,-71.5048 300.3691,-64.5057"/>
</g>
<!-- Node37 -->
<g id="node37" class="node">
<title>Node37</title>
<polygon fill="none" stroke="#bfbfbf" points="1930.5,-57.5 1930.5,-77.5 1996.5,-77.5 1996.5,-57.5 1930.5,-57.5"/>
<text text-anchor="middle" x="1963.5" y="-64.5" font-family="FreeSans" font-size="10.00" fill="#000000">functional</text>
</g>
<!-- Node36&#45;&gt;Node37 -->
<g id="edge68" class="edge">
<title>Node36&#45;&gt;Node37</title>
<path fill="none" stroke="#191970" d="M1719.772,-120.4478C1775.0566,-108.4377 1866.8062,-88.5059 1920.5698,-76.8262"/>
<polygon fill="#191970" stroke="#191970" points="1921.4426,-80.2183 1930.4716,-74.6751 1919.9565,-73.3779 1921.4426,-80.2183"/>
</g>
<!-- Node38&#45;&gt;Node5 -->
<g id="edge73" class="edge">
<title>Node38&#45;&gt;Node5</title>
<path fill="none" stroke="#191970" d="M2033.7446,-183.3985C2033.5523,-165.9536 2030.3284,-130.4708 2008.5,-114 1973.0665,-87.2633 536.9481,-70.4432 300.3405,-67.851"/>
<polygon fill="#191970" stroke="#191970" points="300.328,-64.3508 290.2904,-67.7416 300.2517,-71.3504 300.328,-64.3508"/>
</g>
<!-- Node38&#45;&gt;Node16 -->
<g id="edge71" class="edge">
<title>Node38&#45;&gt;Node16</title>
<path fill="none" stroke="#191970" d="M2023.2173,-183.378C2013.5709,-173.8823 1998.9394,-159.4794 1987.3814,-148.102"/>
<polygon fill="#191970" stroke="#191970" points="1989.5517,-145.3271 1979.9698,-140.8062 1984.641,-150.3157 1989.5517,-145.3271"/>
</g>
<!-- Node39 -->
<g id="node39" class="node">
<title>Node39</title>
<polygon fill="none" stroke="#bfbfbf" points="2131.5,-120.5 2131.5,-140.5 2187.5,-140.5 2187.5,-120.5 2131.5,-120.5"/>
<text text-anchor="middle" x="2159.5" y="-127.5" font-family="FreeSans" font-size="10.00" fill="#000000">sstream</text>
</g>
<!-- Node38&#45;&gt;Node39 -->
<g id="edge72" class="edge">
<title>Node38&#45;&gt;Node39</title>
<path fill="none" stroke="#191970" d="M2053.7441,-183.378C2074.4098,-173.0451 2106.6971,-156.9015 2130.1628,-145.1686"/>
<polygon fill="#191970" stroke="#191970" points="2131.9271,-148.1996 2139.3062,-140.5969 2128.7966,-141.9386 2131.9271,-148.1996"/>
</g>
<!-- Node40&#45;&gt;Node5 -->
<g id="edge85" class="edge">
<title>Node40&#45;&gt;Node5</title>
<path fill="none" stroke="#191970" d="M2216.5619,-183.4801C2217.771,-166.1614 2217.3524,-130.8678 2196.5,-114 2177.283,-98.4551 552.6365,-72.0297 300.2805,-68.017"/>
<polygon fill="#191970" stroke="#191970" points="300.3188,-64.5173 290.2645,-67.8581 300.2076,-71.5164 300.3188,-64.5173"/>
</g>
<!-- Node40&#45;&gt;Node16 -->
<g id="edge82" class="edge">
<title>Node40&#45;&gt;Node16</title>
<path fill="none" stroke="#191970" d="M2176.2486,-183.4478C2130.5962,-171.7563 2055.6308,-152.5579 2009.6133,-140.7729"/>
<polygon fill="#191970" stroke="#191970" points="2010.25,-137.3231 1999.6943,-138.2327 2008.5133,-144.1042 2010.25,-137.3231"/>
</g>
<!-- Node40&#45;&gt;Node19 -->
<g id="edge83" class="edge">
<title>Node40&#45;&gt;Node19</title>
<path fill="none" stroke="#191970" d="M2145.4202,-184.6399C2139.365,-184.0256 2133.3281,-183.4663 2127.5,-183 1737.7515,-151.8143 1638.4087,-176.1142 1248.5,-147 1210.1409,-144.1358 1166.5035,-139.227 1135.8552,-135.5063"/>
<polygon fill="#191970" stroke="#191970" points="1135.9382,-131.9903 1125.5861,-134.2451 1135.0848,-138.9381 1135.9382,-131.9903"/>
</g>
<!-- Node40&#45;&gt;Node34 -->
<g id="edge81" class="edge">
<title>Node40&#45;&gt;Node34</title>
<path fill="none" stroke="#191970" d="M2194.4526,-183.378C2172.8713,-172.9992 2139.0996,-156.7578 2114.6766,-145.0124"/>
<polygon fill="#191970" stroke="#191970" points="2116.0241,-141.7768 2105.4952,-140.5969 2112.9903,-148.0852 2116.0241,-141.7768"/>
</g>
<!-- Node40&#45;&gt;Node37 -->
<g id="edge80" class="edge">
<title>Node40&#45;&gt;Node37</title>
<path fill="none" stroke="#191970" d="M2221.8294,-183.3947C2231.2807,-166.881 2246.2701,-133.9561 2229.5,-114 2201.5865,-80.7836 2074.9776,-71.2912 2006.987,-68.5811"/>
<polygon fill="#191970" stroke="#191970" points="2006.7235,-65.0692 1996.6023,-68.2018 2006.4679,-72.0645 2006.7235,-65.0692"/>
</g>
<!-- Node40&#45;&gt;Node39 -->
<g id="edge84" class="edge">
<title>Node40&#45;&gt;Node39</title>
<path fill="none" stroke="#191970" d="M2206.5026,-183.378C2198.1432,-173.9736 2185.5053,-159.7559 2175.4387,-148.431"/>
<polygon fill="#191970" stroke="#191970" points="2177.9207,-145.955 2168.6611,-140.8062 2172.6888,-150.6056 2177.9207,-145.955"/>
</g>
<!-- Node41 -->
<g id="node41" class="node">
<title>Node41</title>
<polygon fill="none" stroke="#bfbfbf" points="2579.5,-120.5 2579.5,-140.5 2623.5,-140.5 2623.5,-120.5 2579.5,-120.5"/>
<text text-anchor="middle" x="2601.5" y="-127.5" font-family="FreeSans" font-size="10.00" fill="#000000">ctime</text>
</g>
<!-- Node40&#45;&gt;Node41 -->
<g id="edge79" class="edge">
<title>Node40&#45;&gt;Node41</title>
<path fill="none" stroke="#191970" d="M2285.5822,-187.3164C2373.5032,-179.0397 2518.9946,-163.4805 2570.5,-147 2572.3727,-146.4008 2574.2655,-145.6907 2576.1437,-144.9071"/>
<polygon fill="#191970" stroke="#191970" points="2577.7405,-148.0232 2585.2514,-140.5509 2574.72,-141.7084 2577.7405,-148.0232"/>
</g>
<!-- Node42 -->
<g id="node42" class="node">
<title>Node42</title>
<polygon fill="none" stroke="#bfbfbf" points="2512,-120.5 2512,-140.5 2561,-140.5 2561,-120.5 2512,-120.5"/>
<text text-anchor="middle" x="2536.5" y="-127.5" font-family="FreeSans" font-size="10.00" fill="#000000">thread</text>
</g>
<!-- Node40&#45;&gt;Node42 -->
<g id="edge86" class="edge">
<title>Node40&#45;&gt;Node42</title>
<path fill="none" stroke="#191970" d="M2285.7665,-186.5943C2343.4486,-179.816 2426.8413,-167.4584 2497.5,-147 2500.2806,-146.1949 2503.1285,-145.2471 2505.9571,-144.2196"/>
<polygon fill="#191970" stroke="#191970" points="2507.353,-147.4316 2515.3747,-140.5104 2504.7877,-140.9186 2507.353,-147.4316"/>
</g>
<!-- Node43&#45;&gt;Node17 -->
<g id="edge96" class="edge">
<title>Node43&#45;&gt;Node17</title>
<path fill="none" stroke="#191970" d="M1728.8178,-376.8567C1581.3588,-368.5567 1304.1353,-351.6681 1068.5,-330 1029.4414,-326.4083 984.5257,-321.0188 955.6155,-317.3858"/>
<polygon fill="#191970" stroke="#191970" points="955.7254,-313.8719 945.3647,-316.0869 954.8454,-320.8163 955.7254,-313.8719"/>
</g>
<!-- Node43&#45;&gt;Node18 -->
<g id="edge98" class="edge">
<title>Node43&#45;&gt;Node18</title>
<path fill="none" stroke="#191970" d="M1728.6791,-373.7443C1676.6649,-366.5773 1613.9155,-353.5723 1561.5,-330 1539.5292,-320.1193 1538.8293,-309.9254 1518.5,-297 1425.5678,-237.9136 1400.6205,-224.2191 1298.5,-183 1246.4709,-161.9994 1211.0435,-191.9765 1177.5,-147 1163.3729,-128.0578 1179.288,-102.1848 1193.5225,-85.1698"/>
<polygon fill="#191970" stroke="#191970" points="1196.2208,-87.4022 1200.2363,-77.5978 1190.9831,-82.7582 1196.2208,-87.4022"/>
</g>
<!-- Node43&#45;&gt;Node19 -->
<g id="edge97" class="edge">
<title>Node43&#45;&gt;Node19</title>
<path fill="none" stroke="#191970" d="M1728.9962,-377.9366C1588.3645,-370.8688 1352.1829,-355.3791 1321.5,-330 1268.9497,-286.5335 1326.5746,-230.3555 1277.5,-183 1231.8876,-138.9854 1199.8493,-166.384 1139.5,-147 1136.7165,-146.106 1133.851,-145.1307 1130.9837,-144.1157"/>
<polygon fill="#191970" stroke="#191970" points="1131.938,-140.7376 1121.3444,-140.5718 1129.5224,-147.3076 1131.938,-140.7376"/>
</g>
<!-- Node43&#45;&gt;Node29 -->
<g id="edge94" class="edge">
<title>Node43&#45;&gt;Node29</title>
<path fill="none" stroke="#191970" d="M1887.3495,-372.4875C1940.4277,-362.4354 2023.7694,-346.1612 2095.5,-330 2207.9135,-304.6727 2490.5786,-244.3887 2598.5,-204 2650.8102,-184.4233 2676.461,-191.2826 2710.5,-147 2723.5536,-130.018 2727.1049,-105.2324 2727.8325,-87.8629"/>
<polygon fill="#191970" stroke="#191970" points="2731.3347,-87.724 2727.9745,-77.6762 2724.3354,-87.6264 2731.3347,-87.724"/>
</g>
<!-- Node43&#45;&gt;Node37 -->
<g id="edge95" class="edge">
<title>Node43&#45;&gt;Node37</title>
<path fill="none" stroke="#191970" d="M1876.3255,-372.4305C1981.0138,-346.8602 2244.9602,-276.3056 2294.5,-204 2366.3397,-99.1466 2112.2434,-74.7094 2007.0549,-69.1201"/>
<polygon fill="#191970" stroke="#191970" points="2006.9249,-65.6094 1996.7634,-68.6084 2006.5772,-72.6007 2006.9249,-65.6094"/>
</g>
<!-- Node44 -->
<g id="node44" class="node">
<title>Node44</title>
<g id="a_node44"><a xlink:href="../../d1/db8/GeometryContext_8hpp.html" target="_top" xlink:title="Acts/Geometry/GeometryContext.hpp">
<polygon fill="none" stroke="#000000" points="2529.5,-303.5 2529.5,-323.5 2737.5,-323.5 2737.5,-303.5 2529.5,-303.5"/>
<text text-anchor="middle" x="2633.5" y="-310.5" font-family="FreeSans" font-size="10.00" fill="#000000">Acts/Geometry/GeometryContext.hpp</text>
</a>
</g>
</g>
<!-- Node43&#45;&gt;Node44 -->
<g id="edge88" class="edge">
<title>Node43&#45;&gt;Node44</title>
<path fill="none" stroke="#191970" d="M1938.1397,-374.7464C2065.6149,-365.1213 2287.4909,-347.7909 2477.5,-330 2495.2312,-328.3398 2514.0825,-326.4512 2532.3247,-324.5592"/>
<polygon fill="#191970" stroke="#191970" points="2532.803,-328.0283 2542.3857,-323.5091 2532.0763,-321.0662 2532.803,-328.0283"/>
</g>
<!-- Node46 -->
<g id="node46" class="node">
<title>Node46</title>
<g id="a_node46"><a xlink:href="../../d3/d69/GeometryID_8hpp.html" target="_top" xlink:title="Acts/Geometry/GeometryID.hpp">
<polygon fill="none" stroke="#000000" points="1330,-303.5 1330,-323.5 1509,-323.5 1509,-303.5 1330,-303.5"/>
<text text-anchor="middle" x="1419.5" y="-310.5" font-family="FreeSans" font-size="10.00" fill="#000000">Acts/Geometry/GeometryID.hpp</text>
</a>
</g>
</g>
<!-- Node43&#45;&gt;Node46 -->
<g id="edge90" class="edge">
<title>Node43&#45;&gt;Node46</title>
<path fill="none" stroke="#191970" d="M1773.3008,-372.4668C1698.0287,-359.9214 1569.3996,-338.4833 1489.719,-325.2032"/>
<polygon fill="#191970" stroke="#191970" points="1490.2112,-321.737 1479.7718,-323.5453 1489.0603,-328.6418 1490.2112,-321.737"/>
</g>
<!-- Node45 -->
<g id="node45" class="node">
<title>Node45</title>
<polygon fill="none" stroke="#bfbfbf" points="2890,-240.5 2890,-260.5 2925,-260.5 2925,-240.5 2890,-240.5"/>
<text text-anchor="middle" x="2907.5" y="-247.5" font-family="FreeSans" font-size="10.00" fill="#000000">any</text>
</g>
<!-- Node44&#45;&gt;Node45 -->
<g id="edge89" class="edge">
<title>Node44&#45;&gt;Node45</title>
<path fill="none" stroke="#191970" d="M2677.2191,-303.4478C2734.2482,-290.3353 2832.3459,-267.78 2879.9652,-256.831"/>
<polygon fill="#191970" stroke="#191970" points="2880.9024,-260.2069 2889.8638,-254.555 2879.3338,-253.3849 2880.9024,-260.2069"/>
</g>
<!-- Node46&#45;&gt;Node15 -->
<g id="edge91" class="edge">
<title>Node46&#45;&gt;Node15</title>
<path fill="none" stroke="#191970" d="M1379.9294,-303.4478C1332.2531,-291.3365 1252.8649,-271.1693 1207.057,-259.5326"/>
<polygon fill="#191970" stroke="#191970" points="1207.8221,-256.1159 1197.2681,-257.0459 1206.0985,-262.9004 1207.8221,-256.1159"/>
</g>
<!-- Node46&#45;&gt;Node37 -->
<g id="edge92" class="edge">
<title>Node46&#45;&gt;Node37</title>
<path fill="none" stroke="#191970" d="M1424.4144,-303.359C1441.3846,-269.5811 1501.1958,-160.4119 1586.5,-114 1643.2212,-83.1394 1833.7744,-72.2828 1920.213,-68.8843"/>
<polygon fill="#191970" stroke="#191970" points="1920.6074,-72.372 1930.4681,-68.4971 1920.3432,-65.377 1920.6074,-72.372"/>
</g>
<!-- Node47 -->
<g id="node47" class="node">
<title>Node47</title>
<polygon fill="none" stroke="#bfbfbf" points="1329.5,-240.5 1329.5,-260.5 1377.5,-260.5 1377.5,-240.5 1329.5,-240.5"/>
<text text-anchor="middle" x="1353.5" y="-247.5" font-family="FreeSans" font-size="10.00" fill="#000000">iosfwd</text>
</g>
<!-- Node46&#45;&gt;Node47 -->
<g id="edge93" class="edge">
<title>Node46&#45;&gt;Node47</title>
<path fill="none" stroke="#191970" d="M1408.896,-303.378C1398.8525,-293.791 1383.5687,-279.202 1371.5973,-267.7747"/>
<polygon fill="#191970" stroke="#191970" points="1373.9472,-265.1792 1364.297,-260.8062 1369.1139,-270.2428 1373.9472,-265.1792"/>
</g>
<!-- Node48&#45;&gt;Node45 -->
<g id="edge100" class="edge">
<title>Node48&#45;&gt;Node45</title>
<path fill="none" stroke="#191970" d="M2907.5,-297.2759C2907.5,-289.2654 2907.5,-279.5159 2907.5,-270.9952"/>
<polygon fill="#191970" stroke="#191970" points="2911.0001,-270.7512 2907.5,-260.7513 2904.0001,-270.7513 2911.0001,-270.7512"/>
</g>
<!-- Node49&#45;&gt;Node45 -->
<g id="edge102" class="edge">
<title>Node49&#45;&gt;Node45</title>
<path fill="none" stroke="#191970" d="M2962.8633,-366.3929C2974.0967,-357.1907 2986.4187,-344.5837 2992.5,-330 2998.1448,-316.4631 2999.979,-309.6165 2992.5,-297 2980.1558,-276.1764 2954.8281,-264.07 2935.0157,-257.4607"/>
<polygon fill="#191970" stroke="#191970" points="2935.8418,-254.0536 2925.2559,-254.4885 2933.8024,-260.75 2935.8418,-254.0536"/>
</g>
</g>
</svg>
