<?xml version="1.0" encoding="UTF-8" standalone="no"?>
<!DOCTYPE svg PUBLIC "-//W3C//DTD SVG 1.1//EN"
 "http://www.w3.org/Graphics/SVG/1.1/DTD/svg11.dtd">
<!-- Generated by graphviz version 2.40.1 (20161225.0304)
 -->
<!-- Title: G4SigmabMinus::SigmabMinusDefinition Pages: 1 -->
<svg width="1705pt" height="480pt"
 viewBox="0.00 0.00 1705.00 480.46" xmlns="http://www.w3.org/2000/svg" xmlns:xlink="http://www.w3.org/1999/xlink">
<g id="graph0" class="graph" transform="scale(1 1) rotate(0) translate(4 476.4641)">
<title>G4SigmabMinus::SigmabMinusDefinition</title>
<!-- Node1 -->
<g id="node1" class="node">
<title>Node1</title>
<polygon fill="#bfbfbf" stroke="#000000" points="0,-123.5 0,-155.5 174,-155.5 174,-123.5 0,-123.5"/>
<text text-anchor="start" x="8" y="-142.5" font-family="FreeSans" font-size="10.00" fill="#000000">G4SigmabMinus::SigmabMinus</text>
<text text-anchor="middle" x="87" y="-130.5" font-family="FreeSans" font-size="10.00" fill="#000000">Definition</text>
</g>
<!-- Node2 -->
<g id="node2" class="node">
<title>Node2</title>
<g id="a_node2"><a xlink:href="../../d7/dc7/classG4SigmabMinus.html#a6943d1722f763bf51e3e2269f399666b" target="_top" xlink:title="G4SigmabMinus::Definition">
<polygon fill="none" stroke="#000000" points="210,-129.5 210,-149.5 364,-149.5 364,-129.5 210,-129.5"/>
<text text-anchor="middle" x="287" y="-136.5" font-family="FreeSans" font-size="10.00" fill="#000000">G4SigmabMinus::Definition</text>
</a>
</g>
</g>
<!-- Node1&#45;&gt;Node2 -->
<g id="edge1" class="edge">
<title>Node1&#45;&gt;Node2</title>
<path fill="none" stroke="#191970" d="M174.1411,-139.5C182.5977,-139.5 191.179,-139.5 199.6378,-139.5"/>
<polygon fill="#191970" stroke="#191970" points="199.8782,-143.0001 209.8782,-139.5 199.8781,-136.0001 199.8782,-143.0001"/>
</g>
<!-- Node3 -->
<g id="node3" class="node">
<title>Node3</title>
<g id="a_node3"><a xlink:href="../../d8/dd3/classG4ParticleTable.html#a891da3f41417c3800e7596fab298c3c5" target="_top" xlink:title="G4ParticleTable::FindParticle">
<polygon fill="none" stroke="#000000" points="1203,-219.5 1203,-239.5 1362,-239.5 1362,-219.5 1203,-219.5"/>
<text text-anchor="middle" x="1282.5" y="-226.5" font-family="FreeSans" font-size="10.00" fill="#000000">G4ParticleTable::FindParticle</text>
</a>
</g>
</g>
<!-- Node2&#45;&gt;Node3 -->
<g id="edge2" class="edge">
<title>Node2&#45;&gt;Node3</title>
<path fill="none" stroke="#191970" d="M312.4753,-149.6492C373.9301,-173.1865 535.6297,-229.5 676,-229.5 676,-229.5 676,-229.5 881.5,-229.5 988.4871,-229.5 1111.5304,-229.5 1192.7986,-229.5"/>
<polygon fill="#191970" stroke="#191970" points="1192.9923,-233.0001 1202.9923,-229.5 1192.9923,-226.0001 1192.9923,-233.0001"/>
</g>
<!-- Node8 -->
<g id="node8" class="node">
<title>Node8</title>
<g id="a_node8"><a xlink:href="../../d5/d38/classG4ParticleDefinition.html#a62ed9b48da6b7fd47ba568dd9777007f" target="_top" xlink:title="G4ParticleDefinition\l::G4ParticleDefinition">
<polygon fill="none" stroke="#000000" points="1023.5,-45.5 1023.5,-77.5 1146.5,-77.5 1146.5,-45.5 1023.5,-45.5"/>
<text text-anchor="start" x="1031.5" y="-64.5" font-family="FreeSans" font-size="10.00" fill="#000000">G4ParticleDefinition</text>
<text text-anchor="middle" x="1085" y="-52.5" font-family="FreeSans" font-size="10.00" fill="#000000">::G4ParticleDefinition</text>
</a>
</g>
</g>
<!-- Node2&#45;&gt;Node8 -->
<g id="edge7" class="edge">
<title>Node2&#45;&gt;Node8</title>
<path fill="none" stroke="#191970" d="M328.1288,-129.4686C386.4295,-115.7253 496.6312,-91.4968 592,-80.5 741.0089,-63.318 916.8489,-60.7522 1013.0851,-60.846"/>
<polygon fill="#191970" stroke="#191970" points="1013.2757,-64.3463 1023.2826,-60.8663 1013.2897,-57.3463 1013.2757,-64.3463"/>
</g>
<!-- Node9 -->
<g id="node9" class="node">
<title>Node9</title>
<g id="a_node9"><a xlink:href="../../d8/dd3/classG4ParticleTable.html#a8bb5b636696da4abae3ca7ea0ea5af95" target="_top" xlink:title="G4ParticleTable::GetParticle\lTable">
<polygon fill="none" stroke="#000000" points="400,-296.5 400,-328.5 556,-328.5 556,-296.5 400,-296.5"/>
<text text-anchor="start" x="408" y="-315.5" font-family="FreeSans" font-size="10.00" fill="#000000">G4ParticleTable::GetParticle</text>
<text text-anchor="middle" x="478" y="-303.5" font-family="FreeSans" font-size="10.00" fill="#000000">Table</text>
</a>
</g>
</g>
<!-- Node2&#45;&gt;Node9 -->
<g id="edge9" class="edge">
<title>Node2&#45;&gt;Node9</title>
<path fill="none" stroke="#191970" d="M297.8431,-149.6113C317.8984,-168.2836 362.1917,-209.3846 400,-243.5 417.2601,-259.0743 436.8601,-276.4113 452.0946,-289.8109"/>
<polygon fill="#191970" stroke="#191970" points="449.8052,-292.4584 459.6279,-296.4289 454.4252,-287.1995 449.8052,-292.4584"/>
</g>
<!-- Node15 -->
<g id="node15" class="node">
<title>Node15</title>
<g id="a_node15"><a xlink:href="../../db/d89/classG4DecayTable.html#a3edb3d6c42c02f3554e3121f5f079f6f" target="_top" xlink:title="G4DecayTable::Insert">
<polygon fill="none" stroke="#000000" points="415.5,-129.5 415.5,-149.5 540.5,-149.5 540.5,-129.5 415.5,-129.5"/>
<text text-anchor="middle" x="478" y="-136.5" font-family="FreeSans" font-size="10.00" fill="#000000">G4DecayTable::Insert</text>
</a>
</g>
</g>
<!-- Node2&#45;&gt;Node15 -->
<g id="edge16" class="edge">
<title>Node2&#45;&gt;Node15</title>
<path fill="none" stroke="#191970" d="M364.1365,-139.5C377.6671,-139.5 391.7088,-139.5 405.1192,-139.5"/>
<polygon fill="#191970" stroke="#191970" points="405.2322,-143.0001 415.2321,-139.5 405.2321,-136.0001 405.2322,-143.0001"/>
</g>
<!-- Node23 -->
<g id="node23" class="node">
<title>Node23</title>
<g id="a_node23"><a xlink:href="../../d5/d38/classG4ParticleDefinition.html#ad3c610e90b4ba111581b30943d66cfea" target="_top" xlink:title="G4ParticleDefinition\l::SetDecayTable">
<polygon fill="none" stroke="#000000" points="420,-.5 420,-32.5 536,-32.5 536,-.5 420,-.5"/>
<text text-anchor="start" x="428" y="-19.5" font-family="FreeSans" font-size="10.00" fill="#000000">G4ParticleDefinition</text>
<text text-anchor="middle" x="478" y="-7.5" font-family="FreeSans" font-size="10.00" fill="#000000">::SetDecayTable</text>
</a>
</g>
</g>
<!-- Node2&#45;&gt;Node23 -->
<g id="edge26" class="edge">
<title>Node2&#45;&gt;Node23</title>
<path fill="none" stroke="#191970" d="M297.0962,-129.4494C315.9372,-111.1336 358.3298,-71.9603 400,-47.5 406.7154,-43.5581 414.0259,-39.9111 421.3905,-36.6076"/>
<polygon fill="#191970" stroke="#191970" points="422.8971,-39.7698 430.7071,-32.6107 420.1372,-33.3369 422.8971,-39.7698"/>
</g>
<!-- Node4 -->
<g id="node4" class="node">
<title>Node4</title>
<g id="a_node4"><a xlink:href="../../d8/dd3/classG4ParticleTable.html#a5dcd173398768b18c5ba132bbd8f427b" target="_top" xlink:title="G4ParticleTable::CheckReadiness">
<polygon fill="none" stroke="#000000" points="1398,-186.5 1398,-206.5 1581,-206.5 1581,-186.5 1398,-186.5"/>
<text text-anchor="middle" x="1489.5" y="-193.5" font-family="FreeSans" font-size="10.00" fill="#000000">G4ParticleTable::CheckReadiness</text>
</a>
</g>
</g>
<!-- Node3&#45;&gt;Node4 -->
<g id="edge3" class="edge">
<title>Node3&#45;&gt;Node4</title>
<path fill="none" stroke="#191970" d="M1345.4499,-219.4645C1367.8304,-215.8966 1393.2157,-211.8497 1416.3747,-208.1577"/>
<polygon fill="#191970" stroke="#191970" points="1417.1686,-211.5754 1426.4929,-206.5446 1416.0665,-204.6627 1417.1686,-211.5754"/>
</g>
<!-- Node6 -->
<g id="node6" class="node">
<title>Node6</title>
<g id="a_node6"><a xlink:href="../../d8/dd3/classG4ParticleTable.html#ad3150940809a36b87123558264d30108" target="_top" xlink:title="G4ParticleTable::GetKey">
<polygon fill="none" stroke="#000000" points="1421,-357.5 1421,-377.5 1558,-377.5 1558,-357.5 1421,-357.5"/>
<text text-anchor="middle" x="1489.5" y="-364.5" font-family="FreeSans" font-size="10.00" fill="#000000">G4ParticleTable::GetKey</text>
</a>
</g>
</g>
<!-- Node3&#45;&gt;Node6 -->
<g id="edge5" class="edge">
<title>Node3&#45;&gt;Node6</title>
<path fill="none" stroke="#191970" d="M1297.7212,-239.6475C1333.4598,-263.4732 1422.9492,-323.1328 1465.8461,-351.7307"/>
<polygon fill="#191970" stroke="#191970" points="1463.9945,-354.7028 1474.2565,-357.3377 1467.8774,-348.8784 1463.9945,-354.7028"/>
</g>
<!-- Node7 -->
<g id="node7" class="node">
<title>Node7</title>
<g id="a_node7"><a xlink:href="../../d7/d23/namespaceG4Threading.html#a4bce96528c21592b91483fb2ab5b6215" target="_top" xlink:title="G4Threading::IsWorkerThread">
<polygon fill="none" stroke="#000000" points="1405.5,-225.5 1405.5,-245.5 1573.5,-245.5 1573.5,-225.5 1405.5,-225.5"/>
<text text-anchor="middle" x="1489.5" y="-232.5" font-family="FreeSans" font-size="10.00" fill="#000000">G4Threading::IsWorkerThread</text>
</a>
</g>
</g>
<!-- Node3&#45;&gt;Node7 -->
<g id="edge6" class="edge">
<title>Node3&#45;&gt;Node7</title>
<path fill="none" stroke="#191970" d="M1362.2355,-231.8112C1373.0481,-232.1246 1384.2266,-232.4486 1395.2634,-232.7685"/>
<polygon fill="#191970" stroke="#191970" points="1395.2476,-236.2694 1405.3448,-233.0607 1395.4505,-229.2724 1395.2476,-236.2694"/>
</g>
<!-- Node5 -->
<g id="node5" class="node">
<title>Node5</title>
<g id="a_node5"><a xlink:href="../../d5/d4f/G4Exception_8hh.html#ad36b5da5d062a20ca47b1c1f1ae353dd" target="_top" xlink:title="G4Exception">
<polygon fill="none" stroke="#000000" points="1617,-147.5 1617,-167.5 1697,-167.5 1697,-147.5 1617,-147.5"/>
<text text-anchor="middle" x="1657" y="-154.5" font-family="FreeSans" font-size="10.00" fill="#000000">G4Exception</text>
</a>
</g>
</g>
<!-- Node4&#45;&gt;Node5 -->
<g id="edge4" class="edge">
<title>Node4&#45;&gt;Node5</title>
<path fill="none" stroke="#191970" d="M1532.6354,-186.4565C1555.3659,-181.1641 1583.363,-174.6453 1607.0342,-169.1338"/>
<polygon fill="#191970" stroke="#191970" points="1607.9405,-172.5165 1616.8862,-166.8399 1606.353,-165.6989 1607.9405,-172.5165"/>
</g>
<!-- Node8&#45;&gt;Node5 -->
<g id="edge8" class="edge">
<title>Node8&#45;&gt;Node5</title>
<path fill="none" stroke="#191970" d="M1146.6624,-64.4771C1203.0136,-67.81 1288.5077,-74.4062 1362,-86.5 1451.9784,-101.3068 1555.1571,-128.5532 1612.5421,-144.6456"/>
<polygon fill="#191970" stroke="#191970" points="1611.7958,-148.0716 1622.3705,-147.4185 1613.6966,-141.3346 1611.7958,-148.0716"/>
</g>
<!-- Node10 -->
<g id="node10" class="node">
<title>Node10</title>
<g id="a_node10"><a xlink:href="../../d8/dd3/classG4ParticleTable.html#aba540bf07478ff0c30af3ee28d843041" target="_top" xlink:title="G4ParticleTable::WorkerG4\lParticleTable">
<polygon fill="none" stroke="#000000" points="600.5,-334.5 600.5,-366.5 751.5,-366.5 751.5,-334.5 600.5,-334.5"/>
<text text-anchor="start" x="608.5" y="-353.5" font-family="FreeSans" font-size="10.00" fill="#000000">G4ParticleTable::WorkerG4</text>
<text text-anchor="middle" x="676" y="-341.5" font-family="FreeSans" font-size="10.00" fill="#000000">ParticleTable</text>
</a>
</g>
</g>
<!-- Node9&#45;&gt;Node10 -->
<g id="edge10" class="edge">
<title>Node9&#45;&gt;Node10</title>
<path fill="none" stroke="#191970" d="M556.2548,-327.5186C567.4578,-329.6687 579.0319,-331.89 590.3678,-334.0655"/>
<polygon fill="#191970" stroke="#191970" points="589.7725,-337.5151 600.253,-335.9627 591.0919,-330.6405 589.7725,-337.5151"/>
</g>
<!-- Node10&#45;&gt;Node6 -->
<g id="edge11" class="edge">
<title>Node10&#45;&gt;Node6</title>
<path fill="none" stroke="#191970" d="M690.3464,-366.5644C711.1037,-388.4654 751.8873,-426.6655 796,-441.5 1037.8518,-522.8316 1351.458,-420.1194 1454.8031,-381.2521"/>
<polygon fill="#191970" stroke="#191970" points="1456.3176,-384.4206 1464.4173,-377.5908 1453.8264,-377.8789 1456.3176,-384.4206"/>
</g>
<!-- Node11 -->
<g id="node11" class="node">
<title>Node11</title>
<g id="a_node11"><a xlink:href="../../d5/d38/classG4ParticleDefinition.html#af84019c7513ca66581ed8b3651934467" target="_top" xlink:title="G4ParticleDefinition\l::GetPDGEncoding">
<polygon fill="none" stroke="#000000" points="823.5,-360.5 823.5,-392.5 939.5,-392.5 939.5,-360.5 823.5,-360.5"/>
<text text-anchor="start" x="831.5" y="-379.5" font-family="FreeSans" font-size="10.00" fill="#000000">G4ParticleDefinition</text>
<text text-anchor="middle" x="881.5" y="-367.5" font-family="FreeSans" font-size="10.00" fill="#000000">::GetPDGEncoding</text>
</a>
</g>
</g>
<!-- Node10&#45;&gt;Node11 -->
<g id="edge12" class="edge">
<title>Node10&#45;&gt;Node11</title>
<path fill="none" stroke="#191970" d="M751.6451,-360.0707C771.8184,-362.623 793.4929,-365.3653 813.2437,-367.8642"/>
<polygon fill="#191970" stroke="#191970" points="813.0184,-371.3635 823.3787,-369.1464 813.8971,-364.4188 813.0184,-371.3635"/>
</g>
<!-- Node12 -->
<g id="node12" class="node">
<title>Node12</title>
<g id="a_node12"><a xlink:href="../../d4/d96/classG4ParticleTableIterator.html#ae35fb8d216907e4b1614fd52f2d50f84" target="_top" xlink:title="G4ParticleTableIterator\l::reset">
<polygon fill="none" stroke="#000000" points="815.5,-309.5 815.5,-341.5 947.5,-341.5 947.5,-309.5 815.5,-309.5"/>
<text text-anchor="start" x="823.5" y="-328.5" font-family="FreeSans" font-size="10.00" fill="#000000">G4ParticleTableIterator</text>
<text text-anchor="middle" x="881.5" y="-316.5" font-family="FreeSans" font-size="10.00" fill="#000000">::reset</text>
</a>
</g>
</g>
<!-- Node10&#45;&gt;Node12 -->
<g id="edge13" class="edge">
<title>Node10&#45;&gt;Node12</title>
<path fill="none" stroke="#191970" d="M751.6451,-341.2974C769.1522,-339.1676 787.7899,-336.9003 805.3198,-334.7677"/>
<polygon fill="#191970" stroke="#191970" points="805.9921,-338.2118 815.4962,-333.5297 805.1467,-331.263 805.9921,-338.2118"/>
</g>
<!-- Node13 -->
<g id="node13" class="node">
<title>Node13</title>
<g id="a_node13"><a xlink:href="../../d4/d96/classG4ParticleTableIterator.html#a7220383ce5a9ddecb53331a2ecdd90d5" target="_top" xlink:title="G4ParticleTableIterator\l::value">
<polygon fill="none" stroke="#000000" points="815.5,-258.5 815.5,-290.5 947.5,-290.5 947.5,-258.5 815.5,-258.5"/>
<text text-anchor="start" x="823.5" y="-277.5" font-family="FreeSans" font-size="10.00" fill="#000000">G4ParticleTableIterator</text>
<text text-anchor="middle" x="881.5" y="-265.5" font-family="FreeSans" font-size="10.00" fill="#000000">::value</text>
</a>
</g>
</g>
<!-- Node10&#45;&gt;Node13 -->
<g id="edge14" class="edge">
<title>Node10&#45;&gt;Node13</title>
<path fill="none" stroke="#191970" d="M710.751,-334.4493C734.4822,-323.8071 766.7958,-309.9348 796,-299.5 801.5979,-297.4998 807.4422,-295.5367 813.3329,-293.6446"/>
<polygon fill="#191970" stroke="#191970" points="814.7602,-296.8652 823.2548,-290.5333 812.6657,-290.1859 814.7602,-296.8652"/>
</g>
<!-- Node14 -->
<g id="node14" class="node">
<title>Node14</title>
<g id="a_node14"><a xlink:href="../../da/d2b/classG4IonTable.html#a66f8ee295224ed611872572a0e47ab6e" target="_top" xlink:title="G4IonTable::WorkerG4IonTable">
<polygon fill="none" stroke="#000000" points="796,-411.5 796,-431.5 967,-431.5 967,-411.5 796,-411.5"/>
<text text-anchor="middle" x="881.5" y="-418.5" font-family="FreeSans" font-size="10.00" fill="#000000">G4IonTable::WorkerG4IonTable</text>
</a>
</g>
</g>
<!-- Node10&#45;&gt;Node14 -->
<g id="edge15" class="edge">
<title>Node10&#45;&gt;Node14</title>
<path fill="none" stroke="#191970" d="M708.4559,-366.5704C732.2383,-377.8472 765.5488,-392.6183 796,-402.5 803.3221,-404.8761 811.0918,-407.0554 818.8459,-409.0229"/>
<polygon fill="#191970" stroke="#191970" points="818.0805,-412.4387 828.6243,-411.4007 819.7345,-405.6369 818.0805,-412.4387"/>
</g>
<!-- Node16 -->
<g id="node16" class="node">
<title>Node16</title>
<g id="a_node16"><a xlink:href="../../df/d2d/classG4VDecayChannel.html#a5d58c7fe44af8cd34c06d1887ef9e75b" target="_top" xlink:title="G4VDecayChannel::GetBR">
<polygon fill="none" stroke="#000000" points="601,-129.5 601,-149.5 751,-149.5 751,-129.5 601,-129.5"/>
<text text-anchor="middle" x="676" y="-136.5" font-family="FreeSans" font-size="10.00" fill="#000000">G4VDecayChannel::GetBR</text>
</a>
</g>
</g>
<!-- Node15&#45;&gt;Node16 -->
<g id="edge17" class="edge">
<title>Node15&#45;&gt;Node16</title>
<path fill="none" stroke="#191970" d="M540.6484,-139.5C556.5046,-139.5 573.8056,-139.5 590.5767,-139.5"/>
<polygon fill="#191970" stroke="#191970" points="590.933,-143.0001 600.933,-139.5 590.9329,-136.0001 590.933,-143.0001"/>
</g>
<!-- Node17 -->
<g id="node17" class="node">
<title>Node17</title>
<g id="a_node17"><a xlink:href="../../df/d2d/classG4VDecayChannel.html#ac39f0f3b9b175652872f0a54e7c28c12" target="_top" xlink:title="G4VDecayChannel::GetParent">
<polygon fill="none" stroke="#000000" points="592,-90.5 592,-110.5 760,-110.5 760,-90.5 592,-90.5"/>
<text text-anchor="middle" x="676" y="-97.5" font-family="FreeSans" font-size="10.00" fill="#000000">G4VDecayChannel::GetParent</text>
</a>
</g>
</g>
<!-- Node15&#45;&gt;Node17 -->
<g id="edge18" class="edge">
<title>Node15&#45;&gt;Node17</title>
<path fill="none" stroke="#191970" d="M528.9899,-129.4565C555.3187,-124.2706 587.6251,-117.9072 615.2407,-112.4677"/>
<polygon fill="#191970" stroke="#191970" points="616.0478,-115.8761 625.1829,-110.5094 614.695,-109.0081 616.0478,-115.8761"/>
</g>
<!-- Node22 -->
<g id="node22" class="node">
<title>Node22</title>
<g id="a_node22"><a xlink:href="../../d5/d38/classG4ParticleDefinition.html#a02a571907ec0c42bf356545826d9234f" target="_top" xlink:title="G4ParticleDefinition\l::GetParticleName">
<polygon fill="none" stroke="#000000" points="618,-168.5 618,-200.5 734,-200.5 734,-168.5 618,-168.5"/>
<text text-anchor="start" x="626" y="-187.5" font-family="FreeSans" font-size="10.00" fill="#000000">G4ParticleDefinition</text>
<text text-anchor="middle" x="676" y="-175.5" font-family="FreeSans" font-size="10.00" fill="#000000">::GetParticleName</text>
</a>
</g>
</g>
<!-- Node15&#45;&gt;Node22 -->
<g id="edge25" class="edge">
<title>Node15&#45;&gt;Node22</title>
<path fill="none" stroke="#191970" d="M522.4351,-149.5989C547.6272,-155.3244 579.6745,-162.6078 607.9689,-169.0384"/>
<polygon fill="#191970" stroke="#191970" points="607.2761,-172.4701 617.8031,-171.2734 608.8275,-165.6442 607.2761,-172.4701"/>
</g>
<!-- Node18 -->
<g id="node18" class="node">
<title>Node18</title>
<g id="a_node18"><a xlink:href="../../df/d2d/classG4VDecayChannel.html#a1c515b1f4f1f9e5aafe3d0e10cb5b643" target="_top" xlink:title="G4VDecayChannel::CheckAnd\lFillParent">
<polygon fill="none" stroke="#000000" points="797.5,-96.5 797.5,-128.5 965.5,-128.5 965.5,-96.5 797.5,-96.5"/>
<text text-anchor="start" x="805.5" y="-115.5" font-family="FreeSans" font-size="10.00" fill="#000000">G4VDecayChannel::CheckAnd</text>
<text text-anchor="middle" x="881.5" y="-103.5" font-family="FreeSans" font-size="10.00" fill="#000000">FillParent</text>
</a>
</g>
</g>
<!-- Node17&#45;&gt;Node18 -->
<g id="edge19" class="edge">
<title>Node17&#45;&gt;Node18</title>
<path fill="none" stroke="#191970" d="M760.1777,-105.4155C769.117,-105.9375 778.2503,-106.4708 787.2947,-106.999"/>
<polygon fill="#191970" stroke="#191970" points="787.2662,-110.5032 797.4533,-107.5922 787.6743,-103.5151 787.2662,-110.5032"/>
</g>
<!-- Node19 -->
<g id="node19" class="node">
<title>Node19</title>
<g id="a_node19"><a xlink:href="../../d7/d27/classG4TemplateAutoLock.html#a1fc2695a8c9b5527f9f3c62b32a2c172" target="_top" xlink:title="G4TemplateAutoLock\l::unlock">
<polygon fill="none" stroke="#000000" points="1023,-96.5 1023,-128.5 1147,-128.5 1147,-96.5 1023,-96.5"/>
<text text-anchor="start" x="1031" y="-115.5" font-family="FreeSans" font-size="10.00" fill="#000000">G4TemplateAutoLock</text>
<text text-anchor="middle" x="1085" y="-103.5" font-family="FreeSans" font-size="10.00" fill="#000000">::unlock</text>
</a>
</g>
</g>
<!-- Node18&#45;&gt;Node19 -->
<g id="edge20" class="edge">
<title>Node18&#45;&gt;Node19</title>
<path fill="none" stroke="#191970" d="M965.7402,-112.5C981.2876,-112.5 997.3972,-112.5 1012.5579,-112.5"/>
<polygon fill="#191970" stroke="#191970" points="1012.8836,-116.0001 1022.8835,-112.5 1012.8835,-109.0001 1012.8836,-116.0001"/>
</g>
<!-- Node20 -->
<g id="node20" class="node">
<title>Node20</title>
<g id="a_node20"><a xlink:href="../../df/d2d/classG4VDecayChannel.html#a58f654382302cd3c1c6894bd5a8c8565" target="_top" xlink:title="G4VDecayChannel::FillParent">
<polygon fill="none" stroke="#000000" points="1003,-147.5 1003,-167.5 1167,-167.5 1167,-147.5 1003,-147.5"/>
<text text-anchor="middle" x="1085" y="-154.5" font-family="FreeSans" font-size="10.00" fill="#000000">G4VDecayChannel::FillParent</text>
</a>
</g>
</g>
<!-- Node18&#45;&gt;Node20 -->
<g id="edge21" class="edge">
<title>Node18&#45;&gt;Node20</title>
<path fill="none" stroke="#191970" d="M954.1063,-128.5555C978.9641,-134.0523 1006.3563,-140.1095 1029.6298,-145.256"/>
<polygon fill="#191970" stroke="#191970" points="1029.15,-148.7344 1039.6699,-147.4761 1030.6615,-141.8995 1029.15,-148.7344"/>
</g>
<!-- Node20&#45;&gt;Node3 -->
<g id="edge23" class="edge">
<title>Node20&#45;&gt;Node3</title>
<path fill="none" stroke="#191970" d="M1112.4615,-167.5113C1147.0019,-180.1032 1206.4578,-201.7783 1245.1201,-215.8729"/>
<polygon fill="#191970" stroke="#191970" points="1244.3601,-219.3211 1254.9541,-219.4579 1246.7577,-212.7445 1244.3601,-219.3211"/>
</g>
<!-- Node20&#45;&gt;Node5 -->
<g id="edge22" class="edge">
<title>Node20&#45;&gt;Node5</title>
<path fill="none" stroke="#191970" d="M1167.258,-157.5C1287.5866,-157.5 1507.9946,-157.5 1606.7805,-157.5"/>
<polygon fill="#191970" stroke="#191970" points="1606.8017,-161.0001 1616.8016,-157.5 1606.8016,-154.0001 1606.8017,-161.0001"/>
</g>
<!-- Node21 -->
<g id="node21" class="node">
<title>Node21</title>
<g id="a_node21"><a xlink:href="../../d5/d38/classG4ParticleDefinition.html#ad823b2f7c489766de74c562e2a3909bf" target="_top" xlink:title="G4ParticleDefinition\l::GetPDGMass">
<polygon fill="none" stroke="#000000" points="1224.5,-96.5 1224.5,-128.5 1340.5,-128.5 1340.5,-96.5 1224.5,-96.5"/>
<text text-anchor="start" x="1232.5" y="-115.5" font-family="FreeSans" font-size="10.00" fill="#000000">G4ParticleDefinition</text>
<text text-anchor="middle" x="1282.5" y="-103.5" font-family="FreeSans" font-size="10.00" fill="#000000">::GetPDGMass</text>
</a>
</g>
</g>
<!-- Node20&#45;&gt;Node21 -->
<g id="edge24" class="edge">
<title>Node20&#45;&gt;Node21</title>
<path fill="none" stroke="#191970" d="M1129.3229,-147.4011C1154.4513,-141.6756 1186.4177,-134.3922 1214.6407,-127.9616"/>
<polygon fill="#191970" stroke="#191970" points="1215.4775,-131.3607 1224.4501,-125.7266 1213.9224,-124.5356 1215.4775,-131.3607"/>
</g>
</g>
</svg>
