<?xml version="1.0" encoding="UTF-8" standalone="no"?>
<!DOCTYPE svg PUBLIC "-//W3C//DTD SVG 1.1//EN"
 "http://www.w3.org/Graphics/SVG/1.1/DTD/svg11.dtd">
<!-- Generated by graphviz version 2.40.1 (20161225.0304)
 -->
<!-- Title: G4Polycone::BoundingLimits Pages: 1 -->
<svg width="924pt" height="810pt"
 viewBox="0.00 0.00 924.00 810.00" xmlns="http://www.w3.org/2000/svg" xmlns:xlink="http://www.w3.org/1999/xlink">
<g id="graph0" class="graph" transform="scale(1 1) rotate(0) translate(4 806)">
<title>G4Polycone::BoundingLimits</title>
<!-- Node1 -->
<g id="node1" class="node">
<title>Node1</title>
<polygon fill="#bfbfbf" stroke="#000000" points="0,-351.5 0,-371.5 161,-371.5 161,-351.5 0,-351.5"/>
<text text-anchor="middle" x="80.5" y="-358.5" font-family="FreeSans" font-size="10.00" fill="#000000">G4Polycone::BoundingLimits</text>
</g>
<!-- Node2 -->
<g id="node2" class="node">
<title>Node2</title>
<g id="a_node2"><a xlink:href="../../d4/d35/classG4GeomTools.html#a371d75d13d7e0b5271a8c38d02e4d0c4" target="_top" xlink:title="G4GeomTools::DiskExtent">
<polygon fill="none" stroke="#000000" points="209.5,-702.5 209.5,-722.5 357.5,-722.5 357.5,-702.5 209.5,-702.5"/>
<text text-anchor="middle" x="283.5" y="-709.5" font-family="FreeSans" font-size="10.00" fill="#000000">G4GeomTools::DiskExtent</text>
</a>
</g>
</g>
<!-- Node1&#45;&gt;Node2 -->
<g id="edge1" class="edge">
<title>Node1&#45;&gt;Node2</title>
<path fill="none" stroke="#191970" d="M82.6481,-371.5465C93.6398,-422.0446 145.0952,-647.5362 197,-693.5 198.5108,-694.8379 200.094,-696.0885 201.7384,-697.2573"/>
<polygon fill="#191970" stroke="#191970" points="200.0367,-700.3178 210.4159,-702.4448 203.6285,-694.3095 200.0367,-700.3178"/>
</g>
<!-- Node9 -->
<g id="node9" class="node">
<title>Node9</title>
<g id="a_node9"><a xlink:href="../../da/d34/classG4VSolid.html#ad94dde22758645569fca819a56a91454" target="_top" xlink:title="G4VSolid::DumpInfo">
<polygon fill="none" stroke="#000000" points="224,-663.5 224,-683.5 343,-683.5 343,-663.5 224,-663.5"/>
<text text-anchor="middle" x="283.5" y="-670.5" font-family="FreeSans" font-size="10.00" fill="#000000">G4VSolid::DumpInfo</text>
</a>
</g>
</g>
<!-- Node1&#45;&gt;Node9 -->
<g id="edge8" class="edge">
<title>Node1&#45;&gt;Node9</title>
<path fill="none" stroke="#191970" d="M81.2426,-371.7523C84.8789,-413.9904 104.5965,-575.9903 197,-654.5 201.9981,-658.7466 207.7322,-662.1055 213.8182,-664.7547"/>
<polygon fill="#191970" stroke="#191970" points="213.023,-668.1914 223.6165,-668.359 215.4397,-661.6218 213.023,-668.1914"/>
</g>
<!-- Node10 -->
<g id="node10" class="node">
<title>Node10</title>
<g id="a_node10"><a xlink:href="../../d5/d4f/G4Exception_8hh.html#ad36b5da5d062a20ca47b1c1f1ae353dd" target="_top" xlink:title="G4Exception">
<polygon fill="none" stroke="#000000" points="243.5,-624.5 243.5,-644.5 323.5,-644.5 323.5,-624.5 243.5,-624.5"/>
<text text-anchor="middle" x="283.5" y="-631.5" font-family="FreeSans" font-size="10.00" fill="#000000">G4Exception</text>
</a>
</g>
</g>
<!-- Node1&#45;&gt;Node10 -->
<g id="edge9" class="edge">
<title>Node1&#45;&gt;Node10</title>
<path fill="none" stroke="#191970" d="M81.9138,-371.7051C87.8324,-410.3406 114.2849,-548.8177 197,-615.5 207.2007,-623.7235 220.1954,-628.5775 232.9935,-631.394"/>
<polygon fill="#191970" stroke="#191970" points="232.6934,-634.8967 243.1581,-633.2414 233.9452,-628.0095 232.6934,-634.8967"/>
</g>
<!-- Node11 -->
<g id="node11" class="node">
<title>Node11</title>
<g id="a_node11"><a xlink:href="../../d9/de5/classG4Polycone.html#adbd228532b35566734159e12fb0a4312" target="_top" xlink:title="G4Polycone::GetCorner">
<polygon fill="none" stroke="#000000" points="216,-585.5 216,-605.5 351,-605.5 351,-585.5 216,-585.5"/>
<text text-anchor="middle" x="283.5" y="-592.5" font-family="FreeSans" font-size="10.00" fill="#000000">G4Polycone::GetCorner</text>
</a>
</g>
</g>
<!-- Node1&#45;&gt;Node11 -->
<g id="edge10" class="edge">
<title>Node1&#45;&gt;Node11</title>
<path fill="none" stroke="#191970" d="M82.7778,-371.5677C91.1665,-406.2052 123.7343,-521.3535 197,-576.5 200.002,-578.7596 203.2191,-580.7609 206.5828,-582.5327"/>
<polygon fill="#191970" stroke="#191970" points="205.2298,-585.7621 215.7825,-586.7063 208.1218,-579.3875 205.2298,-585.7621"/>
</g>
<!-- Node12 -->
<g id="node12" class="node">
<title>Node12</title>
<g id="a_node12"><a xlink:href="../../d9/de5/classG4Polycone.html#a1d0534babfcbd027cd02f2a99fe0e31a" target="_top" xlink:title="G4Polycone::GetCosEndPhi">
<polygon fill="none" stroke="#000000" points="207,-546.5 207,-566.5 360,-566.5 360,-546.5 207,-546.5"/>
<text text-anchor="middle" x="283.5" y="-553.5" font-family="FreeSans" font-size="10.00" fill="#000000">G4Polycone::GetCosEndPhi</text>
</a>
</g>
</g>
<!-- Node1&#45;&gt;Node12 -->
<g id="edge11" class="edge">
<title>Node1&#45;&gt;Node12</title>
<path fill="none" stroke="#191970" d="M84.1231,-371.8492C95.4409,-402.563 133.2377,-493.7702 197,-537.5 199.4369,-539.1713 201.9954,-540.6987 204.6436,-542.0945"/>
<polygon fill="#191970" stroke="#191970" points="203.3965,-545.3728 213.9461,-546.3504 206.3087,-539.0073 203.3965,-545.3728"/>
</g>
<!-- Node13 -->
<g id="node13" class="node">
<title>Node13</title>
<g id="a_node13"><a xlink:href="../../d9/de5/classG4Polycone.html#a83bb140870d8d5cab807e3e1870ef4d7" target="_top" xlink:title="G4Polycone::GetCosStartPhi">
<polygon fill="none" stroke="#000000" points="204.5,-507.5 204.5,-527.5 362.5,-527.5 362.5,-507.5 204.5,-507.5"/>
<text text-anchor="middle" x="283.5" y="-514.5" font-family="FreeSans" font-size="10.00" fill="#000000">G4Polycone::GetCosStartPhi</text>
</a>
</g>
</g>
<!-- Node1&#45;&gt;Node13 -->
<g id="edge12" class="edge">
<title>Node1&#45;&gt;Node13</title>
<path fill="none" stroke="#191970" d="M85.997,-371.7198C100.4364,-397.512 142.1409,-465.5297 197,-498.5 200.2205,-500.4355 203.6143,-502.1746 207.1191,-503.7372"/>
<polygon fill="#191970" stroke="#191970" points="206.0257,-507.0682 216.6127,-507.4748 208.59,-500.5548 206.0257,-507.0682"/>
</g>
<!-- Node14 -->
<g id="node14" class="node">
<title>Node14</title>
<g id="a_node14"><a xlink:href="../../da/d34/classG4VSolid.html#a548fddaea6da32e16c9ed8402c1bba72" target="_top" xlink:title="G4VSolid::GetName">
<polygon fill="none" stroke="#000000" points="225,-468.5 225,-488.5 342,-488.5 342,-468.5 225,-468.5"/>
<text text-anchor="middle" x="283.5" y="-475.5" font-family="FreeSans" font-size="10.00" fill="#000000">G4VSolid::GetName</text>
</a>
</g>
</g>
<!-- Node1&#45;&gt;Node14 -->
<g id="edge13" class="edge">
<title>Node1&#45;&gt;Node14</title>
<path fill="none" stroke="#191970" d="M89.3168,-371.6611C107.3725,-391.7835 150.7682,-436.7215 197,-459.5 202.7022,-462.3095 208.8187,-464.7071 215.0669,-466.7525"/>
<polygon fill="#191970" stroke="#191970" points="214.3709,-470.1967 224.9534,-469.6855 216.3619,-463.4858 214.3709,-470.1967"/>
</g>
<!-- Node15 -->
<g id="node15" class="node">
<title>Node15</title>
<g id="a_node15"><a xlink:href="../../d9/de5/classG4Polycone.html#a7971e114473a6f8986b8fbc64ea0e9f0" target="_top" xlink:title="G4Polycone::GetNumRZCorner">
<polygon fill="none" stroke="#000000" points="197,-429.5 197,-449.5 370,-449.5 370,-429.5 197,-429.5"/>
<text text-anchor="middle" x="283.5" y="-436.5" font-family="FreeSans" font-size="10.00" fill="#000000">G4Polycone::GetNumRZCorner</text>
</a>
</g>
</g>
<!-- Node1&#45;&gt;Node15 -->
<g id="edge14" class="edge">
<title>Node1&#45;&gt;Node15</title>
<path fill="none" stroke="#191970" d="M97.2644,-371.7043C119.3761,-384.7561 159.8428,-407.2514 197,-420.5 203.7705,-422.914 210.9529,-425.08 218.1709,-427.0081"/>
<polygon fill="#191970" stroke="#191970" points="217.4478,-430.4353 228.0004,-429.4906 219.1619,-423.6484 217.4478,-430.4353"/>
</g>
<!-- Node16 -->
<g id="node16" class="node">
<title>Node16</title>
<g id="a_node16"><a xlink:href="../../d9/de5/classG4Polycone.html#ad8b82c70aacdfdeae7a6c6672b35f297" target="_top" xlink:title="G4Polycone::GetSinEndPhi">
<polygon fill="none" stroke="#000000" points="208,-390.5 208,-410.5 359,-410.5 359,-390.5 208,-390.5"/>
<text text-anchor="middle" x="283.5" y="-397.5" font-family="FreeSans" font-size="10.00" fill="#000000">G4Polycone::GetSinEndPhi</text>
</a>
</g>
</g>
<!-- Node1&#45;&gt;Node16 -->
<g id="edge15" class="edge">
<title>Node1&#45;&gt;Node16</title>
<path fill="none" stroke="#191970" d="M132.7775,-371.5435C159.8896,-376.7522 193.1841,-383.1487 221.5786,-388.6038"/>
<polygon fill="#191970" stroke="#191970" points="220.9188,-392.0409 231.3996,-390.4906 222.2396,-385.1667 220.9188,-392.0409"/>
</g>
<!-- Node17 -->
<g id="node17" class="node">
<title>Node17</title>
<g id="a_node17"><a xlink:href="../../d9/de5/classG4Polycone.html#a4b302a9d9f9f60dff762e719b4417c57" target="_top" xlink:title="G4Polycone::GetSinStartPhi">
<polygon fill="none" stroke="#000000" points="205.5,-351.5 205.5,-371.5 361.5,-371.5 361.5,-351.5 205.5,-351.5"/>
<text text-anchor="middle" x="283.5" y="-358.5" font-family="FreeSans" font-size="10.00" fill="#000000">G4Polycone::GetSinStartPhi</text>
</a>
</g>
</g>
<!-- Node1&#45;&gt;Node17 -->
<g id="edge16" class="edge">
<title>Node1&#45;&gt;Node17</title>
<path fill="none" stroke="#191970" d="M161.0225,-361.5C172.2098,-361.5 183.7525,-361.5 195.0745,-361.5"/>
<polygon fill="#191970" stroke="#191970" points="195.3937,-365.0001 205.3937,-361.5 195.3937,-358.0001 195.3937,-365.0001"/>
</g>
<!-- Node18 -->
<g id="node18" class="node">
<title>Node18</title>
<g id="a_node18"><a xlink:href="../../d9/de5/classG4Polycone.html#a624e8118462b603ca9ed053fba882202" target="_top" xlink:title="G4Polycone::IsOpen">
<polygon fill="none" stroke="#000000" points="225,-312.5 225,-332.5 342,-332.5 342,-312.5 225,-312.5"/>
<text text-anchor="middle" x="283.5" y="-319.5" font-family="FreeSans" font-size="10.00" fill="#000000">G4Polycone::IsOpen</text>
</a>
</g>
</g>
<!-- Node1&#45;&gt;Node18 -->
<g id="edge17" class="edge">
<title>Node1&#45;&gt;Node18</title>
<path fill="none" stroke="#191970" d="M132.7775,-351.4565C159.8896,-346.2478 193.1841,-339.8513 221.5786,-334.3962"/>
<polygon fill="#191970" stroke="#191970" points="222.2396,-337.8333 231.3996,-332.5094 220.9188,-330.9591 222.2396,-337.8333"/>
</g>
<!-- Node19 -->
<g id="node19" class="node">
<title>Node19</title>
<g id="a_node19"><a xlink:href="../../d8/d3c/ts__scorers_8cc.html#ad81d1cdebbda7d39795160acd3aebd24" target="_top" xlink:title="message">
<polygon fill="none" stroke="#000000" points="252.5,-273.5 252.5,-293.5 314.5,-293.5 314.5,-273.5 252.5,-273.5"/>
<text text-anchor="middle" x="283.5" y="-280.5" font-family="FreeSans" font-size="10.00" fill="#000000">message</text>
</a>
</g>
</g>
<!-- Node1&#45;&gt;Node19 -->
<g id="edge18" class="edge">
<title>Node1&#45;&gt;Node19</title>
<path fill="none" stroke="#191970" d="M97.6961,-351.3267C119.9411,-338.5491 160.2106,-316.7035 197,-303.5 211.359,-298.3466 227.545,-294.1885 241.9987,-291.0264"/>
<polygon fill="#191970" stroke="#191970" points="243.0946,-294.373 252.1663,-288.8999 241.6615,-287.5213 243.0946,-294.373"/>
</g>
<!-- Node24 -->
<g id="node24" class="node">
<title>Node24</title>
<g id="a_node24"><a xlink:href="../../d6/dfd/EicFRichDetector_8cc.html#afa9eab74a86ef9511755e454d4ed5e85" target="_top" xlink:title="rmax">
<polygon fill="none" stroke="#000000" points="262.5,-234.5 262.5,-254.5 304.5,-254.5 304.5,-234.5 262.5,-234.5"/>
<text text-anchor="middle" x="283.5" y="-241.5" font-family="FreeSans" font-size="10.00" fill="#000000">rmax</text>
</a>
</g>
</g>
<!-- Node1&#45;&gt;Node24 -->
<g id="edge23" class="edge">
<title>Node1&#45;&gt;Node24</title>
<path fill="none" stroke="#191970" d="M89.3168,-351.3389C107.3725,-331.2165 150.7682,-286.2785 197,-263.5 214.2467,-255.0025 235.2833,-250.2731 252.2923,-247.6581"/>
<polygon fill="#191970" stroke="#191970" points="252.8599,-251.1132 262.2924,-246.2884 251.9099,-244.1779 252.8599,-251.1132"/>
</g>
<!-- Node25 -->
<g id="node25" class="node">
<title>Node25</title>
<g id="a_node25"><a xlink:href="../../da/dcf/classCLHEP_1_1Hep3Vector.html#abd8b55ba393986873db4fe1a9b709ff9" target="_top" xlink:title="CLHEP::Hep3Vector::set">
<polygon fill="none" stroke="#000000" points="215,-195.5 215,-215.5 352,-215.5 352,-195.5 215,-195.5"/>
<text text-anchor="middle" x="283.5" y="-202.5" font-family="FreeSans" font-size="10.00" fill="#000000">CLHEP::Hep3Vector::set</text>
</a>
</g>
</g>
<!-- Node1&#45;&gt;Node25 -->
<g id="edge24" class="edge">
<title>Node1&#45;&gt;Node25</title>
<path fill="none" stroke="#191970" d="M85.997,-351.2802C100.4364,-325.488 142.1409,-257.4703 197,-224.5 200.2205,-222.5645 203.6143,-220.8254 207.1191,-219.2628"/>
<polygon fill="#191970" stroke="#191970" points="208.59,-222.4452 216.6127,-215.5252 206.0257,-215.9318 208.59,-222.4452"/>
</g>
<!-- Node26 -->
<g id="node26" class="node">
<title>Node26</title>
<g id="a_node26"><a xlink:href="../../d4/da4/classCLHEP_1_1Hep2Vector.html#ab26c6f014e107086e697c86cb1c24dae" target="_top" xlink:title="CLHEP::Hep2Vector::x">
<polygon fill="none" stroke="#000000" points="220,-156.5 220,-176.5 347,-176.5 347,-156.5 220,-156.5"/>
<text text-anchor="middle" x="283.5" y="-163.5" font-family="FreeSans" font-size="10.00" fill="#000000">CLHEP::Hep2Vector::x</text>
</a>
</g>
</g>
<!-- Node1&#45;&gt;Node26 -->
<g id="edge25" class="edge">
<title>Node1&#45;&gt;Node26</title>
<path fill="none" stroke="#191970" d="M84.1231,-351.1508C95.4409,-320.437 133.2377,-229.2298 197,-185.5 201.0655,-182.7118 205.4694,-180.324 210.0634,-178.28"/>
<polygon fill="#191970" stroke="#191970" points="211.6473,-181.4201 219.7121,-174.5491 209.1228,-174.8912 211.6473,-181.4201"/>
</g>
<!-- Node27 -->
<g id="node27" class="node">
<title>Node27</title>
<g id="a_node27"><a xlink:href="../../da/dcf/classCLHEP_1_1Hep3Vector.html#a86646a7299d9b55d1ee3a27b578d30ec" target="_top" xlink:title="CLHEP::Hep3Vector::x">
<polygon fill="none" stroke="#000000" points="220,-117.5 220,-137.5 347,-137.5 347,-117.5 220,-117.5"/>
<text text-anchor="middle" x="283.5" y="-124.5" font-family="FreeSans" font-size="10.00" fill="#000000">CLHEP::Hep3Vector::x</text>
</a>
</g>
</g>
<!-- Node1&#45;&gt;Node27 -->
<g id="edge26" class="edge">
<title>Node1&#45;&gt;Node27</title>
<path fill="none" stroke="#191970" d="M82.7778,-351.4323C91.1665,-316.7948 123.7343,-201.6465 197,-146.5 201.1172,-143.401 205.639,-140.7878 210.3888,-138.5863"/>
<polygon fill="#191970" stroke="#191970" points="211.7716,-141.8029 219.7578,-134.8407 209.173,-135.3031 211.7716,-141.8029"/>
</g>
<!-- Node28 -->
<g id="node28" class="node">
<title>Node28</title>
<g id="a_node28"><a xlink:href="../../d4/da4/classCLHEP_1_1Hep2Vector.html#acf0b1799f84792d758f7d955658cdb1d" target="_top" xlink:title="CLHEP::Hep2Vector::y">
<polygon fill="none" stroke="#000000" points="220,-78.5 220,-98.5 347,-98.5 347,-78.5 220,-78.5"/>
<text text-anchor="middle" x="283.5" y="-85.5" font-family="FreeSans" font-size="10.00" fill="#000000">CLHEP::Hep2Vector::y</text>
</a>
</g>
</g>
<!-- Node1&#45;&gt;Node28 -->
<g id="edge27" class="edge">
<title>Node1&#45;&gt;Node28</title>
<path fill="none" stroke="#191970" d="M81.9138,-351.2949C87.8324,-312.6594 114.2849,-174.1823 197,-107.5 201.0848,-104.207 205.6176,-101.4543 210.4064,-99.1563"/>
<polygon fill="#191970" stroke="#191970" points="211.9536,-102.3049 219.8806,-95.2753 209.3001,-95.8273 211.9536,-102.3049"/>
</g>
<!-- Node29 -->
<g id="node29" class="node">
<title>Node29</title>
<g id="a_node29"><a xlink:href="../../da/dcf/classCLHEP_1_1Hep3Vector.html#a86ef096e76d7db9e0ea8e10eb742a576" target="_top" xlink:title="CLHEP::Hep3Vector::y">
<polygon fill="none" stroke="#000000" points="220,-39.5 220,-59.5 347,-59.5 347,-39.5 220,-39.5"/>
<text text-anchor="middle" x="283.5" y="-46.5" font-family="FreeSans" font-size="10.00" fill="#000000">CLHEP::Hep3Vector::y</text>
</a>
</g>
</g>
<!-- Node1&#45;&gt;Node29 -->
<g id="edge28" class="edge">
<title>Node1&#45;&gt;Node29</title>
<path fill="none" stroke="#191970" d="M81.2426,-351.2477C84.8789,-309.0096 104.5965,-147.0097 197,-68.5 200.9985,-65.1027 205.468,-62.2736 210.2119,-59.9214"/>
<polygon fill="#191970" stroke="#191970" points="211.7615,-63.0666 219.6213,-55.9621 209.0466,-56.6146 211.7615,-63.0666"/>
</g>
<!-- Node30 -->
<g id="node30" class="node">
<title>Node30</title>
<g id="a_node30"><a xlink:href="../../da/dcf/classCLHEP_1_1Hep3Vector.html#a2dcfdfeae86f250117ea40f086bb231a" target="_top" xlink:title="CLHEP::Hep3Vector::z">
<polygon fill="none" stroke="#000000" points="220.5,-.5 220.5,-20.5 346.5,-20.5 346.5,-.5 220.5,-.5"/>
<text text-anchor="middle" x="283.5" y="-7.5" font-family="FreeSans" font-size="10.00" fill="#000000">CLHEP::Hep3Vector::z</text>
</a>
</g>
</g>
<!-- Node1&#45;&gt;Node30 -->
<g id="edge29" class="edge">
<title>Node1&#45;&gt;Node30</title>
<path fill="none" stroke="#191970" d="M82.6481,-351.4535C93.6398,-300.9554 145.0952,-75.4638 197,-29.5 201.1727,-25.8049 205.898,-22.7754 210.9359,-20.2969"/>
<polygon fill="#191970" stroke="#191970" points="212.4008,-23.4783 220.2897,-16.4061 209.7124,-17.0151 212.4008,-23.4783"/>
</g>
<!-- Node3 -->
<g id="node3" class="node">
<title>Node3</title>
<g id="a_node3"><a xlink:href="../../d5/dd3/classG4GeometryTolerance.html#af64e4b5b8b0c0f6962603865e93a9f30" target="_top" xlink:title="G4GeometryTolerance\l::GetInstance">
<polygon fill="none" stroke="#000000" points="422.5,-747.5 422.5,-779.5 551.5,-779.5 551.5,-747.5 422.5,-747.5"/>
<text text-anchor="start" x="430.5" y="-766.5" font-family="FreeSans" font-size="10.00" fill="#000000">G4GeometryTolerance</text>
<text text-anchor="middle" x="487" y="-754.5" font-family="FreeSans" font-size="10.00" fill="#000000">::GetInstance</text>
</a>
</g>
</g>
<!-- Node2&#45;&gt;Node3 -->
<g id="edge2" class="edge">
<title>Node2&#45;&gt;Node3</title>
<path fill="none" stroke="#191970" d="M323.7051,-722.576C349.0977,-728.9397 382.6816,-737.3563 412.7874,-744.9013"/>
<polygon fill="#191970" stroke="#191970" points="412.2961,-748.3863 422.847,-747.4223 413.9979,-741.5963 412.2961,-748.3863"/>
</g>
<!-- Node7 -->
<g id="node7" class="node">
<title>Node7</title>
<g id="a_node7"><a xlink:href="../../d5/dd3/classG4GeometryTolerance.html#a7fc4b12f5342e092a1b4652f3133ab42" target="_top" xlink:title="G4GeometryTolerance\l::GetSurfaceTolerance">
<polygon fill="none" stroke="#000000" points="422.5,-696.5 422.5,-728.5 551.5,-728.5 551.5,-696.5 422.5,-696.5"/>
<text text-anchor="start" x="430.5" y="-715.5" font-family="FreeSans" font-size="10.00" fill="#000000">G4GeometryTolerance</text>
<text text-anchor="middle" x="487" y="-703.5" font-family="FreeSans" font-size="10.00" fill="#000000">::GetSurfaceTolerance</text>
</a>
</g>
</g>
<!-- Node2&#45;&gt;Node7 -->
<g id="edge6" class="edge">
<title>Node2&#45;&gt;Node7</title>
<path fill="none" stroke="#191970" d="M357.5438,-712.5C375.3087,-712.5 394.2932,-712.5 412.0968,-712.5"/>
<polygon fill="#191970" stroke="#191970" points="412.4246,-716.0001 422.4246,-712.5 412.4246,-709.0001 412.4246,-716.0001"/>
</g>
<!-- Node8 -->
<g id="node8" class="node">
<title>Node8</title>
<g id="a_node8"><a xlink:href="../../d4/da4/classCLHEP_1_1Hep2Vector.html#aac621c71ccc508d091f0b815b38455e0" target="_top" xlink:title="CLHEP::Hep2Vector::set">
<polygon fill="none" stroke="#000000" points="418.5,-657.5 418.5,-677.5 555.5,-677.5 555.5,-657.5 418.5,-657.5"/>
<text text-anchor="middle" x="487" y="-664.5" font-family="FreeSans" font-size="10.00" fill="#000000">CLHEP::Hep2Vector::set</text>
</a>
</g>
</g>
<!-- Node2&#45;&gt;Node8 -->
<g id="edge7" class="edge">
<title>Node2&#45;&gt;Node8</title>
<path fill="none" stroke="#191970" d="M329.2941,-702.4631C342.4384,-699.5763 356.7883,-696.419 370,-693.5 390.2434,-689.0275 412.4516,-684.0981 432.0291,-679.7449"/>
<polygon fill="#191970" stroke="#191970" points="433.0012,-683.1143 442.0026,-677.5264 431.4812,-676.2813 433.0012,-683.1143"/>
</g>
<!-- Node4 -->
<g id="node4" class="node">
<title>Node4</title>
<g id="a_node4"><a xlink:href="../../d5/dd3/classG4GeometryTolerance.html#ab48f017ac932f3aeed61f7a2f9d1160d" target="_top" xlink:title="G4GeometryTolerance\l::G4GeometryTolerance">
<polygon fill="none" stroke="#000000" points="604,-769.5 604,-801.5 740,-801.5 740,-769.5 604,-769.5"/>
<text text-anchor="start" x="612" y="-788.5" font-family="FreeSans" font-size="10.00" fill="#000000">G4GeometryTolerance</text>
<text text-anchor="middle" x="672" y="-776.5" font-family="FreeSans" font-size="10.00" fill="#000000">::G4GeometryTolerance</text>
</a>
</g>
</g>
<!-- Node3&#45;&gt;Node4 -->
<g id="edge3" class="edge">
<title>Node3&#45;&gt;Node4</title>
<path fill="none" stroke="#191970" d="M551.704,-771.1945C565.287,-772.8098 579.7516,-774.5299 593.7682,-776.1968"/>
<polygon fill="#191970" stroke="#191970" points="593.533,-779.6934 603.8764,-777.3988 594.3597,-772.7423 593.533,-779.6934"/>
</g>
<!-- Node5 -->
<g id="node5" class="node">
<title>Node5</title>
<g id="a_node5"><a xlink:href="../../dc/d02/namespaceG4AutoDelete.html#ad9f605c8057f73fbe433da3bbd7d3936" target="_top" xlink:title="G4AutoDelete::Register">
<polygon fill="none" stroke="#000000" points="604,-730.5 604,-750.5 740,-750.5 740,-730.5 604,-730.5"/>
<text text-anchor="middle" x="672" y="-737.5" font-family="FreeSans" font-size="10.00" fill="#000000">G4AutoDelete::Register</text>
</a>
</g>
</g>
<!-- Node3&#45;&gt;Node5 -->
<g id="edge4" class="edge">
<title>Node3&#45;&gt;Node5</title>
<path fill="none" stroke="#191970" d="M551.704,-755.4557C565.287,-753.767 579.7516,-751.9687 593.7682,-750.2261"/>
<polygon fill="#191970" stroke="#191970" points="594.3846,-753.6765 603.8764,-748.9694 593.5209,-746.73 594.3846,-753.6765"/>
</g>
<!-- Node6 -->
<g id="node6" class="node">
<title>Node6</title>
<g id="a_node6"><a xlink:href="../../d5/dd7/classG4ThreadLocalSingleton.html#ac51b4a79569468a146e91b3803f80d84" target="_top" xlink:title="G4ThreadLocalSingleton\l::Register">
<polygon fill="none" stroke="#000000" points="776,-724.5 776,-756.5 916,-756.5 916,-724.5 776,-724.5"/>
<text text-anchor="start" x="784" y="-743.5" font-family="FreeSans" font-size="10.00" fill="#000000">G4ThreadLocalSingleton</text>
<text text-anchor="middle" x="846" y="-731.5" font-family="FreeSans" font-size="10.00" fill="#000000">::Register</text>
</a>
</g>
</g>
<!-- Node5&#45;&gt;Node6 -->
<g id="edge5" class="edge">
<title>Node5&#45;&gt;Node6</title>
<path fill="none" stroke="#191970" d="M740.27,-740.5C748.6871,-740.5 757.3497,-740.5 765.9222,-740.5"/>
<polygon fill="#191970" stroke="#191970" points="765.9239,-744.0001 775.9239,-740.5 765.9239,-737.0001 765.9239,-744.0001"/>
</g>
<!-- Node20 -->
<g id="node20" class="node">
<title>Node20</title>
<g id="a_node20"><a xlink:href="../../d7/d23/namespaceG4Threading.html#a457962a93ab41c7f9575dde6cbe9b78c" target="_top" xlink:title="G4Threading::G4GetNumber\lOfCores">
<polygon fill="none" stroke="#000000" points="406,-318.5 406,-350.5 568,-350.5 568,-318.5 406,-318.5"/>
<text text-anchor="start" x="414" y="-337.5" font-family="FreeSans" font-size="10.00" fill="#000000">G4Threading::G4GetNumber</text>
<text text-anchor="middle" x="487" y="-325.5" font-family="FreeSans" font-size="10.00" fill="#000000">OfCores</text>
</a>
</g>
</g>
<!-- Node19&#45;&gt;Node20 -->
<g id="edge19" class="edge">
<title>Node19&#45;&gt;Node20</title>
<path fill="none" stroke="#191970" d="M314.7867,-290.4818C331.2477,-294.2188 351.7485,-298.9733 370,-303.5 385.6232,-307.3749 402.3724,-311.7064 418.1749,-315.8744"/>
<polygon fill="#191970" stroke="#191970" points="417.3105,-319.2661 427.8733,-318.4429 419.1026,-312.4994 417.3105,-319.2661"/>
</g>
<!-- Node21 -->
<g id="node21" class="node">
<title>Node21</title>
<g id="a_node21"><a xlink:href="../../d4/daa/classG4RunManager.html#a3a19f2283ba22cbee8ba640d160d2e7e" target="_top" xlink:title="G4RunManager::GetVerbose\lLevel">
<polygon fill="none" stroke="#000000" points="407.5,-267.5 407.5,-299.5 566.5,-299.5 566.5,-267.5 407.5,-267.5"/>
<text text-anchor="start" x="415.5" y="-286.5" font-family="FreeSans" font-size="10.00" fill="#000000">G4RunManager::GetVerbose</text>
<text text-anchor="middle" x="487" y="-274.5" font-family="FreeSans" font-size="10.00" fill="#000000">Level</text>
</a>
</g>
</g>
<!-- Node19&#45;&gt;Node21 -->
<g id="edge20" class="edge">
<title>Node19&#45;&gt;Node21</title>
<path fill="none" stroke="#191970" d="M314.8509,-283.5C336.8917,-283.5 367.5768,-283.5 396.9449,-283.5"/>
<polygon fill="#191970" stroke="#191970" points="397.2615,-287.0001 407.2615,-283.5 397.2615,-280.0001 397.2615,-287.0001"/>
</g>
<!-- Node22 -->
<g id="node22" class="node">
<title>Node22</title>
<g id="a_node22"><a xlink:href="../../d4/daa/classG4RunManager.html#a9e042965b0d460b1d492ab48de141b2a" target="_top" xlink:title="G4RunManager::SetVerbose\lLevel">
<polygon fill="none" stroke="#000000" points="408,-216.5 408,-248.5 566,-248.5 566,-216.5 408,-216.5"/>
<text text-anchor="start" x="416" y="-235.5" font-family="FreeSans" font-size="10.00" fill="#000000">G4RunManager::SetVerbose</text>
<text text-anchor="middle" x="487" y="-223.5" font-family="FreeSans" font-size="10.00" fill="#000000">Level</text>
</a>
</g>
</g>
<!-- Node19&#45;&gt;Node22 -->
<g id="edge21" class="edge">
<title>Node19&#45;&gt;Node22</title>
<path fill="none" stroke="#191970" d="M314.7867,-276.5182C331.2477,-272.7812 351.7485,-268.0267 370,-263.5 385.6232,-259.6251 402.3724,-255.2936 418.1749,-251.1256"/>
<polygon fill="#191970" stroke="#191970" points="419.1026,-254.5006 427.8733,-248.5571 417.3105,-247.7339 419.1026,-254.5006"/>
</g>
<!-- Node23 -->
<g id="node23" class="node">
<title>Node23</title>
<g id="a_node23"><a xlink:href="../../de/d51/classG4RunManagerKernel.html#aea8a72d21f60b3e6436eed9b651dc247" target="_top" xlink:title="G4RunManagerKernel\l::SetVerboseLevel">
<polygon fill="none" stroke="#000000" points="609,-216.5 609,-248.5 735,-248.5 735,-216.5 609,-216.5"/>
<text text-anchor="start" x="617" y="-235.5" font-family="FreeSans" font-size="10.00" fill="#000000">G4RunManagerKernel</text>
<text text-anchor="middle" x="672" y="-223.5" font-family="FreeSans" font-size="10.00" fill="#000000">::SetVerboseLevel</text>
</a>
</g>
</g>
<!-- Node22&#45;&gt;Node23 -->
<g id="edge22" class="edge">
<title>Node22&#45;&gt;Node23</title>
<path fill="none" stroke="#191970" d="M566.2617,-232.5C577.038,-232.5 588.059,-232.5 598.7234,-232.5"/>
<polygon fill="#191970" stroke="#191970" points="598.8191,-236.0001 608.8191,-232.5 598.8191,-229.0001 598.8191,-236.0001"/>
</g>
</g>
</svg>
