<?xml version="1.0" encoding="UTF-8" standalone="no"?>
<!DOCTYPE svg PUBLIC "-//W3C//DTD SVG 1.1//EN"
 "http://www.w3.org/Graphics/SVG/1.1/DTD/svg11.dtd">
<!-- Generated by graphviz version 2.40.1 (20161225.0304)
 -->
<!-- Title: ksdetd Pages: 1 -->
<svg width="622pt" height="236pt"
 viewBox="0.00 0.00 622.00 236.00" xmlns="http://www.w3.org/2000/svg" xmlns:xlink="http://www.w3.org/1999/xlink">
<g id="graph0" class="graph" transform="scale(1 1) rotate(0) translate(4 232)">
<title>ksdetd</title>
<!-- Node1 -->
<g id="node1" class="node">
<title>Node1</title>
<polygon fill="#bfbfbf" stroke="#000000" points="0,-168.5 0,-188.5 50,-188.5 50,-168.5 0,-168.5"/>
<text text-anchor="middle" x="25" y="-175.5" font-family="FreeSans" font-size="10.00" fill="#000000">ksdetd</text>
</g>
<!-- Node2 -->
<g id="node2" class="node">
<title>Node2</title>
<g id="a_node2"><a xlink:href="../../df/d69/g3tog4_8F.html#afa4bbf8bd3ec4456dc7f7c8ccfe433b1" target="_top" xlink:title="aitocp">
<polygon fill="none" stroke="#000000" points="203.5,-207.5 203.5,-227.5 250.5,-227.5 250.5,-207.5 203.5,-207.5"/>
<text text-anchor="middle" x="227" y="-214.5" font-family="FreeSans" font-size="10.00" fill="#000000">aitocp</text>
</a>
</g>
</g>
<!-- Node1&#45;&gt;Node2 -->
<g id="edge1" class="edge">
<title>Node1&#45;&gt;Node2</title>
<path fill="none" stroke="#191970" d="M50.2313,-187.9221C61.1077,-191.6823 74.0506,-195.7602 86,-198.5 122.0787,-206.7721 164.2337,-211.8703 192.9884,-214.6758"/>
<polygon fill="#191970" stroke="#191970" points="193.0299,-218.1949 203.3122,-215.6407 193.6813,-211.2252 193.0299,-218.1949"/>
</g>
<!-- Node4 -->
<g id="node4" class="node">
<title>Node4</title>
<g id="a_node4"><a xlink:href="../../df/d69/g3tog4_8F.html#aee639e7c736a63510e38d296e33228bf" target="_top" xlink:title="astocp">
<polygon fill="none" stroke="#000000" points="98,-168.5 98,-188.5 148,-188.5 148,-168.5 98,-168.5"/>
<text text-anchor="middle" x="123" y="-175.5" font-family="FreeSans" font-size="10.00" fill="#000000">astocp</text>
</a>
</g>
</g>
<!-- Node1&#45;&gt;Node4 -->
<g id="edge3" class="edge">
<title>Node1&#45;&gt;Node4</title>
<path fill="none" stroke="#191970" d="M50.2374,-178.5C61.6685,-178.5 75.3761,-178.5 87.7962,-178.5"/>
<polygon fill="#191970" stroke="#191970" points="87.8481,-182.0001 97.8481,-178.5 87.8481,-175.0001 87.8481,-182.0001"/>
</g>
<!-- Node5 -->
<g id="node5" class="node">
<title>Node5</title>
<g id="a_node5"><a xlink:href="../../df/d69/g3tog4_8F.html#a422d498c10a276880aee782b6ecaf14e" target="_top" xlink:title="check_lines">
<polygon fill="none" stroke="#000000" points="86,-110.5 86,-130.5 160,-130.5 160,-110.5 86,-110.5"/>
<text text-anchor="middle" x="123" y="-117.5" font-family="FreeSans" font-size="10.00" fill="#000000">check_lines</text>
</a>
</g>
</g>
<!-- Node1&#45;&gt;Node5 -->
<g id="edge5" class="edge">
<title>Node1&#45;&gt;Node5</title>
<path fill="none" stroke="#191970" d="M42.0703,-168.3972C57.1545,-159.4698 79.389,-146.3106 96.7375,-136.0431"/>
<polygon fill="#191970" stroke="#191970" points="98.9734,-138.7869 105.7965,-130.6817 95.4081,-132.7629 98.9734,-138.7869"/>
</g>
<!-- Node3 -->
<g id="node3" class="node">
<title>Node3</title>
<g id="a_node3"><a xlink:href="../../d0/d82/structnlohmann_1_1json__sax.html#a07eab82f6c82d606787eee9ad73d2bda" target="_top" xlink:title="a string was read">
<polygon fill="none" stroke="#000000" points="489.5,-162.5 489.5,-194.5 606.5,-194.5 606.5,-162.5 489.5,-162.5"/>
<text text-anchor="start" x="497.5" y="-181.5" font-family="FreeSans" font-size="10.00" fill="#000000">nlohmann::json_sax</text>
<text text-anchor="middle" x="548" y="-169.5" font-family="FreeSans" font-size="10.00" fill="#000000">::string</text>
</a>
</g>
</g>
<!-- Node2&#45;&gt;Node3 -->
<g id="edge2" class="edge">
<title>Node2&#45;&gt;Node3</title>
<path fill="none" stroke="#191970" d="M250.6785,-214.9754C290.8704,-210.6503 374.9979,-201.4242 446,-192.5 456.7268,-191.1518 468.0787,-189.6591 479.1615,-188.1655"/>
<polygon fill="#191970" stroke="#191970" points="479.7999,-191.6111 489.2382,-186.7977 478.8583,-184.6747 479.7999,-191.6111"/>
</g>
<!-- Node4&#45;&gt;Node3 -->
<g id="edge4" class="edge">
<title>Node4&#45;&gt;Node3</title>
<path fill="none" stroke="#191970" d="M148.3129,-178.5C212.3662,-178.5 382.6248,-178.5 478.9919,-178.5"/>
<polygon fill="#191970" stroke="#191970" points="479.223,-182.0001 489.2229,-178.5 479.2229,-175.0001 479.223,-182.0001"/>
</g>
<!-- Node6 -->
<g id="node6" class="node">
<title>Node6</title>
<g id="a_node6"><a xlink:href="../../df/d69/g3tog4_8F.html#af235d89c0f1ca3acc8a94d0db98a8936" target="_top" xlink:title="g3source">
<polygon fill="none" stroke="#000000" points="196,-90.5 196,-110.5 258,-110.5 258,-90.5 196,-90.5"/>
<text text-anchor="middle" x="227" y="-97.5" font-family="FreeSans" font-size="10.00" fill="#000000">g3source</text>
</a>
</g>
</g>
<!-- Node5&#45;&gt;Node6 -->
<g id="edge6" class="edge">
<title>Node5&#45;&gt;Node6</title>
<path fill="none" stroke="#191970" d="M160.2526,-113.336C168.54,-111.7423 177.3721,-110.0438 185.8073,-108.4217"/>
<polygon fill="#191970" stroke="#191970" points="186.6771,-111.8186 195.8362,-106.493 185.3551,-104.9446 186.6771,-111.8186"/>
</g>
<!-- Node7 -->
<g id="node7" class="node">
<title>Node7</title>
<g id="a_node7"><a xlink:href="../../d8/dc7/classkdfinder_1_1TVector.html#a43df24b54fc42e034041a4cc71f96b8a" target="_top" xlink:title="kdfinder::TVector::unit">
<polygon fill="none" stroke="#000000" points="305,-51.5 305,-71.5 435,-71.5 435,-51.5 305,-51.5"/>
<text text-anchor="middle" x="370" y="-58.5" font-family="FreeSans" font-size="10.00" fill="#000000">kdfinder::TVector::unit</text>
</a>
</g>
</g>
<!-- Node6&#45;&gt;Node7 -->
<g id="edge7" class="edge">
<title>Node6&#45;&gt;Node7</title>
<path fill="none" stroke="#191970" d="M258.2748,-90.846C269.5083,-87.4627 282.2927,-83.709 294,-80.5 301.9264,-78.3273 310.3455,-76.1217 318.583,-74.0197"/>
<polygon fill="#191970" stroke="#191970" points="319.657,-77.3585 328.4956,-71.5164 317.943,-70.5716 319.657,-77.3585"/>
</g>
<!-- Node9 -->
<g id="node9" class="node">
<title>Node9</title>
<g id="a_node9"><a xlink:href="../../d1/d40/structActs_1_1detail_1_1VoidNavigator.html#a8546b6149743722f397087658a21bfa6" target="_top" xlink:title="Acts::detail::VoidNavigator\l::status">
<polygon fill="none" stroke="#000000" points="294,-.5 294,-32.5 446,-32.5 446,-.5 294,-.5"/>
<text text-anchor="start" x="302" y="-19.5" font-family="FreeSans" font-size="10.00" fill="#000000">Acts::detail::VoidNavigator</text>
<text text-anchor="middle" x="370" y="-7.5" font-family="FreeSans" font-size="10.00" fill="#000000">::status</text>
</a>
</g>
</g>
<!-- Node6&#45;&gt;Node9 -->
<g id="edge9" class="edge">
<title>Node6&#45;&gt;Node9</title>
<path fill="none" stroke="#191970" d="M236.0147,-90.3415C248.0537,-77.3394 270.5949,-54.8976 294,-41.5 296.9835,-39.7922 300.1006,-38.1809 303.2973,-36.6634"/>
<polygon fill="#191970" stroke="#191970" points="304.7249,-39.8592 312.4732,-32.6332 301.9099,-33.4501 304.7249,-39.8592"/>
</g>
<!-- Node10 -->
<g id="node10" class="node">
<title>Node10</title>
<g id="a_node10"><a xlink:href="../../df/d69/g3tog4_8F.html#afbdda5e646dd6a124e4bf03301dfd968" target="_top" xlink:title="g3header">
<polygon fill="none" stroke="#000000" points="337.5,-90.5 337.5,-110.5 402.5,-110.5 402.5,-90.5 337.5,-90.5"/>
<text text-anchor="middle" x="370" y="-97.5" font-family="FreeSans" font-size="10.00" fill="#000000">g3header</text>
</a>
</g>
</g>
<!-- Node6&#45;&gt;Node10 -->
<g id="edge10" class="edge">
<title>Node6&#45;&gt;Node10</title>
<path fill="none" stroke="#191970" d="M258.0289,-100.5C278.239,-100.5 304.8817,-100.5 327.1078,-100.5"/>
<polygon fill="#191970" stroke="#191970" points="327.2924,-104.0001 337.2924,-100.5 327.2923,-97.0001 327.2924,-104.0001"/>
</g>
<!-- Node12 -->
<g id="node12" class="node">
<title>Node12</title>
<g id="a_node12"><a xlink:href="../../df/d69/g3tog4_8F.html#a12c124783be45cc1cd693d448d1643f4" target="_top" xlink:title="ctocp">
<polygon fill="none" stroke="#000000" points="348,-129.5 348,-149.5 392,-149.5 392,-129.5 348,-129.5"/>
<text text-anchor="middle" x="370" y="-136.5" font-family="FreeSans" font-size="10.00" fill="#000000">ctocp</text>
</a>
</g>
</g>
<!-- Node6&#45;&gt;Node12 -->
<g id="edge12" class="edge">
<title>Node6&#45;&gt;Node12</title>
<path fill="none" stroke="#191970" d="M258.3244,-109.5161C269.5626,-112.7155 282.3372,-116.3121 294,-119.5 308.368,-123.4274 324.3029,-127.6423 337.8554,-131.1853"/>
<polygon fill="#191970" stroke="#191970" points="337.1298,-134.613 347.6892,-133.7478 338.8949,-127.8392 337.1298,-134.613"/>
</g>
<!-- Node8 -->
<g id="node8" class="node">
<title>Node8</title>
<g id="a_node8"><a xlink:href="../../d8/dc7/classkdfinder_1_1TVector.html#ac9649c7577f12a7502ed523260f4ee90" target="_top" xlink:title="kdfinder::TVector::mag">
<polygon fill="none" stroke="#000000" points="482,-51.5 482,-71.5 614,-71.5 614,-51.5 482,-51.5"/>
<text text-anchor="middle" x="548" y="-58.5" font-family="FreeSans" font-size="10.00" fill="#000000">kdfinder::TVector::mag</text>
</a>
</g>
</g>
<!-- Node7&#45;&gt;Node8 -->
<g id="edge8" class="edge">
<title>Node7&#45;&gt;Node8</title>
<path fill="none" stroke="#191970" d="M435.0177,-61.5C446.9662,-61.5 459.538,-61.5 471.7803,-61.5"/>
<polygon fill="#191970" stroke="#191970" points="471.9654,-65.0001 481.9654,-61.5 471.9654,-58.0001 471.9654,-65.0001"/>
</g>
<!-- Node11 -->
<g id="node11" class="node">
<title>Node11</title>
<g id="a_node11"><a xlink:href="../../df/d69/g3tog4_8F.html#a32ae3461928517f73228a8becb3832ff" target="_top" xlink:title="g4init">
<polygon fill="none" stroke="#000000" points="525,-90.5 525,-110.5 571,-110.5 571,-90.5 525,-90.5"/>
<text text-anchor="middle" x="548" y="-97.5" font-family="FreeSans" font-size="10.00" fill="#000000">g4init</text>
</a>
</g>
</g>
<!-- Node10&#45;&gt;Node11 -->
<g id="edge11" class="edge">
<title>Node10&#45;&gt;Node11</title>
<path fill="none" stroke="#191970" d="M402.6479,-100.5C434.4787,-100.5 482.6463,-100.5 514.6984,-100.5"/>
<polygon fill="#191970" stroke="#191970" points="514.9036,-104.0001 524.9035,-100.5 514.9035,-97.0001 514.9036,-104.0001"/>
</g>
<!-- Node12&#45;&gt;Node3 -->
<g id="edge13" class="edge">
<title>Node12&#45;&gt;Node3</title>
<path fill="none" stroke="#191970" d="M392.1839,-144.3605C413.9643,-149.1326 448.3261,-156.6613 479.2453,-163.4358"/>
<polygon fill="#191970" stroke="#191970" points="478.6254,-166.8829 489.1428,-165.6043 480.1236,-160.0451 478.6254,-166.8829"/>
</g>
</g>
</svg>
