<?xml version="1.0" encoding="UTF-8" standalone="no"?>
<!DOCTYPE svg PUBLIC "-//W3C//DTD SVG 1.1//EN"
 "http://www.w3.org/Graphics/SVG/1.1/DTD/svg11.dtd">
<!-- Generated by graphviz version 2.40.1 (20161225.0304)
 -->
<!-- Title: geant4/tree/geant4&#45;10.6&#45;release/examples/advanced/xray_telescope/src/XrayTelDetectorConstruction.cc Pages: 1 -->
<svg width="2596pt" height="635pt"
 viewBox="0.00 0.00 2596.00 635.00" xmlns="http://www.w3.org/2000/svg" xmlns:xlink="http://www.w3.org/1999/xlink">
<g id="graph0" class="graph" transform="scale(1 1) rotate(0) translate(4 631)">
<title>geant4/tree/geant4&#45;10.6&#45;release/examples/advanced/xray_telescope/src/XrayTelDetectorConstruction.cc</title>
<!-- Node1 -->
<g id="node1" class="node">
<title>Node1</title>
<polygon fill="#bfbfbf" stroke="#000000" points="954.5,-570.5 954.5,-626.5 1151.5,-626.5 1151.5,-570.5 954.5,-570.5"/>
<text text-anchor="start" x="962.5" y="-613.5" font-family="FreeSans" font-size="10.00" fill="#000000">geant4/tree/geant4</text>
<text text-anchor="start" x="962.5" y="-601.5" font-family="FreeSans" font-size="10.00" fill="#000000">&#45;10.6&#45;release/examples</text>
<text text-anchor="start" x="962.5" y="-589.5" font-family="FreeSans" font-size="10.00" fill="#000000">/advanced/xray_telescope</text>
<text text-anchor="middle" x="1053" y="-577.5" font-family="FreeSans" font-size="10.00" fill="#000000">/src/XrayTelDetectorConstruction.cc</text>
</g>
<!-- Node2 -->
<g id="node2" class="node">
<title>Node2</title>
<g id="a_node2"><a xlink:href="../../d6/d0d/XrayTelDetectorConstruction_8hh.html" target="_top" xlink:title="XrayTelDetectorConstruction.hh">
<polygon fill="none" stroke="#000000" points="790,-456.5 790,-476.5 966,-476.5 966,-456.5 790,-456.5"/>
<text text-anchor="middle" x="878" y="-463.5" font-family="FreeSans" font-size="10.00" fill="#000000">XrayTelDetectorConstruction.hh</text>
</a>
</g>
</g>
<!-- Node1&#45;&gt;Node2 -->
<g id="edge1" class="edge">
<title>Node1&#45;&gt;Node2</title>
<path fill="none" stroke="#191970" d="M1015.4581,-570.1827C980.144,-543.5458 928.503,-504.5937 899.6165,-482.805"/>
<polygon fill="#191970" stroke="#191970" points="901.5168,-479.8544 891.4256,-476.6267 897.3015,-485.4429 901.5168,-479.8544"/>
</g>
<!-- Node3 -->
<g id="node3" class="node">
<title>Node3</title>
<g id="a_node3"><a xlink:href="../../d3/dc7/G4VUserDetectorConstruction_8hh.html" target="_top" xlink:title="G4VUserDetectorConstruction.hh">
<polygon fill="none" stroke="#000000" points="898,-399.5 898,-419.5 1082,-419.5 1082,-399.5 898,-399.5"/>
<text text-anchor="middle" x="990" y="-406.5" font-family="FreeSans" font-size="10.00" fill="#000000">G4VUserDetectorConstruction.hh</text>
</a>
</g>
</g>
<!-- Node1&#45;&gt;Node3 -->
<g id="edge51" class="edge">
<title>Node1&#45;&gt;Node3</title>
<path fill="none" stroke="#191970" d="M1044.7242,-570.4755C1036.0669,-541.6129 1021.8353,-495.4117 1008,-456 1004.8952,-447.1556 1001.1966,-437.4739 997.962,-429.2456"/>
<polygon fill="#191970" stroke="#191970" points="1001.1418,-427.7701 994.1925,-419.7727 994.6378,-430.3582 1001.1418,-427.7701"/>
</g>
<!-- Node5 -->
<g id="node5" class="node">
<title>Node5</title>
<g id="a_node5"><a xlink:href="../../da/d46/globals_8hh.html" target="_top" xlink:title="globals.hh">
<polygon fill="none" stroke="#000000" points="1091,-228.5 1091,-248.5 1159,-248.5 1159,-228.5 1091,-228.5"/>
<text text-anchor="middle" x="1125" y="-235.5" font-family="FreeSans" font-size="10.00" fill="#000000">globals.hh</text>
</a>
</g>
</g>
<!-- Node1&#45;&gt;Node5 -->
<g id="edge40" class="edge">
<title>Node1&#45;&gt;Node5</title>
<path fill="none" stroke="#191970" d="M954.2707,-592.2463C825.1411,-583.0449 606.5762,-563.6708 532,-534 429.8392,-493.3544 310.4698,-430.2875 376,-342 408.9328,-297.6303 443.1527,-325.1074 495,-306 516.8491,-297.9479 520.4158,-290.6722 543,-285 644.8717,-259.414 963.2299,-244.7795 1080.7968,-240.1333"/>
<polygon fill="#191970" stroke="#191970" points="1081.0256,-243.6271 1090.8815,-239.7399 1080.7526,-236.6324 1081.0256,-243.6271"/>
</g>
<!-- Node14 -->
<g id="node14" class="node">
<title>Node14</title>
<g id="a_node14"><a xlink:href="../../dd/da7/G4LogicalVolume_8hh.html" target="_top" xlink:title="G4LogicalVolume.hh">
<polygon fill="none" stroke="#ff0000" points="386,-399.5 386,-419.5 506,-419.5 506,-399.5 386,-399.5"/>
<text text-anchor="middle" x="446" y="-406.5" font-family="FreeSans" font-size="10.00" fill="#000000">G4LogicalVolume.hh</text>
</a>
</g>
</g>
<!-- Node1&#45;&gt;Node14 -->
<g id="edge113" class="edge">
<title>Node1&#45;&gt;Node14</title>
<path fill="none" stroke="#191970" d="M954.4016,-593.0365C832.4638,-584.9753 632.9232,-567.1391 567,-534 517.8845,-509.31 477.3372,-456.6086 458.0786,-428.34"/>
<polygon fill="#191970" stroke="#191970" points="460.8311,-426.1581 452.3819,-419.7657 455.0006,-430.0318 460.8311,-426.1581"/>
</g>
<!-- Node18 -->
<g id="node18" class="node">
<title>Node18</title>
<g id="a_node18"><a xlink:href="../../d8/dbe/G4ThreeVector_8hh.html" target="_top" xlink:title="G4ThreeVector.hh">
<polygon fill="none" stroke="#ff0000" points="720,-285.5 720,-305.5 826,-305.5 826,-285.5 720,-285.5"/>
<text text-anchor="middle" x="773" y="-292.5" font-family="FreeSans" font-size="10.00" fill="#000000">G4ThreeVector.hh</text>
</a>
</g>
</g>
<!-- Node1&#45;&gt;Node18 -->
<g id="edge114" class="edge">
<title>Node1&#45;&gt;Node18</title>
<path fill="none" stroke="#191970" d="M1040.3119,-570.3157C1023.3929,-533.7349 993.4412,-472.6102 975,-456 944.2118,-428.2687 911.9561,-454.4957 889,-420 867.9493,-388.3674 946.5704,-372.5668 924,-342 913.1278,-327.2758 872.5559,-315.2665 836.204,-307.1429"/>
<polygon fill="#191970" stroke="#191970" points="836.6049,-303.6487 826.0909,-304.9556 835.1251,-310.4906 836.6049,-303.6487"/>
</g>
<!-- Node20 -->
<g id="node20" class="node">
<title>Node20</title>
<g id="a_node20"><a xlink:href="../../d4/d2b/G4PhysicalConstants_8hh.html" target="_top" xlink:title="G4PhysicalConstants.hh">
<polygon fill="none" stroke="#000000" points="1138,-513.5 1138,-533.5 1276,-533.5 1276,-513.5 1138,-513.5"/>
<text text-anchor="middle" x="1207" y="-520.5" font-family="FreeSans" font-size="10.00" fill="#000000">G4PhysicalConstants.hh</text>
</a>
</g>
</g>
<!-- Node1&#45;&gt;Node20 -->
<g id="edge41" class="edge">
<title>Node1&#45;&gt;Node20</title>
<path fill="none" stroke="#191970" d="M1110.7821,-570.3594C1133.3126,-559.3867 1158.1882,-547.272 1177.0013,-538.1098"/>
<polygon fill="#191970" stroke="#191970" points="1178.7841,-541.1346 1186.2421,-533.6094 1175.7191,-534.8412 1178.7841,-541.1346"/>
</g>
<!-- Node23 -->
<g id="node23" class="node">
<title>Node23</title>
<g id="a_node23"><a xlink:href="../../da/d91/G4SystemOfUnits_8hh.html" target="_top" xlink:title="G4SystemOfUnits.hh">
<polygon fill="none" stroke="#000000" points="698.5,-399.5 698.5,-419.5 819.5,-419.5 819.5,-399.5 698.5,-399.5"/>
<text text-anchor="middle" x="759" y="-406.5" font-family="FreeSans" font-size="10.00" fill="#000000">G4SystemOfUnits.hh</text>
</a>
</g>
</g>
<!-- Node1&#45;&gt;Node23 -->
<g id="edge44" class="edge">
<title>Node1&#45;&gt;Node23</title>
<path fill="none" stroke="#191970" d="M954.201,-575.9033C896.4898,-557.992 826.3273,-527.3568 781,-477 769.3037,-464.0059 763.8146,-444.6886 761.2451,-430.0445"/>
<polygon fill="#191970" stroke="#191970" points="764.68,-429.3404 759.7947,-419.9391 757.751,-430.3349 764.68,-429.3404"/>
</g>
<!-- Node24 -->
<g id="node24" class="node">
<title>Node24</title>
<g id="a_node24"><a xlink:href="../../d5/dba/G4UnitsTable_8hh.html" target="_top" xlink:title="G4UnitsTable.hh">
<polygon fill="none" stroke="#000000" points="1009,-342.5 1009,-362.5 1107,-362.5 1107,-342.5 1009,-342.5"/>
<text text-anchor="middle" x="1058" y="-349.5" font-family="FreeSans" font-size="10.00" fill="#000000">G4UnitsTable.hh</text>
</a>
</g>
</g>
<!-- Node1&#45;&gt;Node24 -->
<g id="edge46" class="edge">
<title>Node1&#45;&gt;Node24</title>
<path fill="none" stroke="#191970" d="M1061.7498,-570.4337C1075.854,-523.367 1101.0661,-430.577 1091,-399 1087.6528,-388.4999 1080.976,-378.3384 1074.4985,-370.2067"/>
<polygon fill="#191970" stroke="#191970" points="1077.1165,-367.8826 1067.9683,-362.5382 1071.787,-372.421 1077.1165,-367.8826"/>
</g>
<!-- Node26 -->
<g id="node26" class="node">
<title>Node26</title>
<g id="a_node26"><a xlink:href="../../d4/dc8/G4Material_8hh.html" target="_top" xlink:title="G4Material.hh">
<polygon fill="none" stroke="#000000" points="1294.5,-513.5 1294.5,-533.5 1381.5,-533.5 1381.5,-513.5 1294.5,-513.5"/>
<text text-anchor="middle" x="1338" y="-520.5" font-family="FreeSans" font-size="10.00" fill="#000000">G4Material.hh</text>
</a>
</g>
</g>
<!-- Node1&#45;&gt;Node26 -->
<g id="edge52" class="edge">
<title>Node1&#45;&gt;Node26</title>
<path fill="none" stroke="#191970" d="M1151.8793,-572.4791C1198.6631,-560.1676 1252.389,-546.0292 1290.0536,-536.1175"/>
<polygon fill="#191970" stroke="#191970" points="1290.9697,-539.4956 1299.7497,-533.5659 1289.1882,-532.7261 1290.9697,-539.4956"/>
</g>
<!-- Node27 -->
<g id="node27" class="node">
<title>Node27</title>
<g id="a_node27"><a xlink:href="../../dc/d43/G4Element_8hh.html" target="_top" xlink:title="G4Element.hh">
<polygon fill="none" stroke="#000000" points="1925,-399.5 1925,-419.5 2013,-419.5 2013,-399.5 1925,-399.5"/>
<text text-anchor="middle" x="1969" y="-406.5" font-family="FreeSans" font-size="10.00" fill="#000000">G4Element.hh</text>
</a>
</g>
</g>
<!-- Node1&#45;&gt;Node27 -->
<g id="edge93" class="edge">
<title>Node1&#45;&gt;Node27</title>
<path fill="none" stroke="#191970" d="M1151.6339,-597.5889C1447.7265,-593.7728 2313.1808,-574.316 2389,-477 2394.7362,-469.6374 2395.226,-462.9533 2389,-456 2364.9996,-429.1957 2131.1538,-416.1662 2023.1634,-411.5401"/>
<polygon fill="#191970" stroke="#191970" points="2023.2549,-408.041 2013.1169,-411.1185 2022.9613,-415.0348 2023.2549,-408.041"/>
</g>
<!-- Node31 -->
<g id="node31" class="node">
<title>Node31</title>
<g id="a_node31"><a xlink:href="../../d8/ddd/G4ElementTable_8hh.html" target="_top" xlink:title="G4ElementTable.hh">
<polygon fill="none" stroke="#000000" points="2202.5,-342.5 2202.5,-362.5 2317.5,-362.5 2317.5,-342.5 2202.5,-342.5"/>
<text text-anchor="middle" x="2260" y="-349.5" font-family="FreeSans" font-size="10.00" fill="#000000">G4ElementTable.hh</text>
</a>
</g>
</g>
<!-- Node1&#45;&gt;Node31 -->
<g id="edge94" class="edge">
<title>Node1&#45;&gt;Node31</title>
<path fill="none" stroke="#191970" d="M1151.6993,-595.6336C1425.2845,-587.3667 2180.3421,-562.2585 2289,-534 2344.5942,-519.5417 2374.6313,-525.7596 2405,-477 2436.2929,-426.7566 2353.5579,-386.0794 2300.522,-366.0348"/>
<polygon fill="#191970" stroke="#191970" points="2301.5923,-362.6993 2290.9988,-362.5344 2299.1774,-369.2695 2301.5923,-362.6993"/>
</g>
<!-- Node36 -->
<g id="node36" class="node">
<title>Node36</title>
<g id="a_node36"><a xlink:href="../../d1/db0/G4MaterialTable_8hh.html" target="_top" xlink:title="G4MaterialTable.hh">
<polygon fill="none" stroke="#000000" points="2474,-456.5 2474,-476.5 2588,-476.5 2588,-456.5 2474,-456.5"/>
<text text-anchor="middle" x="2531" y="-463.5" font-family="FreeSans" font-size="10.00" fill="#000000">G4MaterialTable.hh</text>
</a>
</g>
</g>
<!-- Node1&#45;&gt;Node36 -->
<g id="edge92" class="edge">
<title>Node1&#45;&gt;Node36</title>
<path fill="none" stroke="#191970" d="M1151.511,-597.9527C1451.495,-595.7359 2340.6057,-584.8978 2460,-534 2484.2898,-523.6453 2505.2308,-501.0248 2517.9515,-484.8238"/>
<polygon fill="#191970" stroke="#191970" points="2520.9228,-486.6964 2524.142,-476.6024 2515.3308,-482.4857 2520.9228,-486.6964"/>
</g>
<!-- Node37 -->
<g id="node37" class="node">
<title>Node37</title>
<g id="a_node37"><a xlink:href="../../d1/d8f/G4Box_8hh.html" target="_top" xlink:title="G4Box.hh">
<polygon fill="none" stroke="#000000" points="2088.5,-513.5 2088.5,-533.5 2153.5,-533.5 2153.5,-513.5 2088.5,-513.5"/>
<text text-anchor="middle" x="2121" y="-520.5" font-family="FreeSans" font-size="10.00" fill="#000000">G4Box.hh</text>
</a>
</g>
</g>
<!-- Node1&#45;&gt;Node37 -->
<g id="edge95" class="edge">
<title>Node1&#45;&gt;Node37</title>
<path fill="none" stroke="#191970" d="M1151.5683,-592.7377C1325.1598,-582.3927 1696.7139,-559.3704 2010,-534 2032.6121,-532.1688 2057.7845,-529.8136 2078.4338,-527.798"/>
<polygon fill="#191970" stroke="#191970" points="2078.8692,-531.2722 2088.4784,-526.8096 2078.1837,-524.3058 2078.8692,-531.2722"/>
</g>
<!-- Node42 -->
<g id="node42" class="node">
<title>Node42</title>
<g id="a_node42"><a xlink:href="../../da/d5e/G4Cons_8hh.html" target="_top" xlink:title="G4Cons.hh">
<polygon fill="none" stroke="#000000" points="1787.5,-513.5 1787.5,-533.5 1858.5,-533.5 1858.5,-513.5 1787.5,-513.5"/>
<text text-anchor="middle" x="1823" y="-520.5" font-family="FreeSans" font-size="10.00" fill="#000000">G4Cons.hh</text>
</a>
</g>
</g>
<!-- Node1&#45;&gt;Node42 -->
<g id="edge101" class="edge">
<title>Node1&#45;&gt;Node42</title>
<path fill="none" stroke="#191970" d="M1151.6951,-588.8868C1319.6738,-572.5253 1654.8202,-539.8811 1777.0406,-527.9766"/>
<polygon fill="#191970" stroke="#191970" points="1777.5616,-531.4425 1787.1752,-526.9894 1776.883,-524.4754 1777.5616,-531.4425"/>
</g>
<!-- Node44 -->
<g id="node44" class="node">
<title>Node44</title>
<g id="a_node44"><a xlink:href="../../d2/d10/G4Tubs_8hh.html" target="_top" xlink:title="G4Tubs.hh">
<polygon fill="none" stroke="#000000" points="1931.5,-513.5 1931.5,-533.5 2000.5,-533.5 2000.5,-513.5 1931.5,-513.5"/>
<text text-anchor="middle" x="1966" y="-520.5" font-family="FreeSans" font-size="10.00" fill="#000000">G4Tubs.hh</text>
</a>
</g>
</g>
<!-- Node1&#45;&gt;Node44 -->
<g id="edge107" class="edge">
<title>Node1&#45;&gt;Node44</title>
<path fill="none" stroke="#191970" d="M1151.5571,-591.5871C1304.872,-580.6332 1609.7304,-558.0511 1868,-534 1885.3543,-532.3839 1904.4134,-530.3915 1921.0731,-528.5782"/>
<polygon fill="#191970" stroke="#191970" points="1921.5412,-532.0479 1931.0994,-527.4772 1920.7771,-525.0898 1921.5412,-532.0479"/>
</g>
<!-- Node46 -->
<g id="node46" class="node">
<title>Node46</title>
<g id="a_node46"><a xlink:href="../../d7/da4/G4PVPlacement_8hh.html" target="_top" xlink:title="G4PVPlacement.hh">
<polygon fill="none" stroke="#ff0000" points="592,-513.5 592,-533.5 704,-533.5 704,-513.5 592,-513.5"/>
<text text-anchor="middle" x="648" y="-520.5" font-family="FreeSans" font-size="10.00" fill="#000000">G4PVPlacement.hh</text>
</a>
</g>
</g>
<!-- Node1&#45;&gt;Node46 -->
<g id="edge115" class="edge">
<title>Node1&#45;&gt;Node46</title>
<path fill="none" stroke="#191970" d="M954.4437,-580.2488C879.1001,-566.2963 777.4175,-547.4662 712.2637,-535.4007"/>
<polygon fill="#191970" stroke="#191970" points="712.6004,-531.9036 702.1302,-533.5241 711.3257,-538.7866 712.6004,-531.9036"/>
</g>
<!-- Node47 -->
<g id="node47" class="node">
<title>Node47</title>
<g id="a_node47"><a xlink:href="../../da/ded/G4PVReplica_8hh.html" target="_top" xlink:title="G4PVReplica.hh">
<polygon fill="none" stroke="#000000" points="524,-399.5 524,-419.5 620,-419.5 620,-399.5 524,-399.5"/>
<text text-anchor="middle" x="572" y="-406.5" font-family="FreeSans" font-size="10.00" fill="#000000">G4PVReplica.hh</text>
</a>
</g>
</g>
<!-- Node1&#45;&gt;Node47 -->
<g id="edge117" class="edge">
<title>Node1&#45;&gt;Node47</title>
<path fill="none" stroke="#191970" d="M954.3596,-591.4671C824.1091,-581.206 608.1946,-560.4408 583,-534 556.4247,-506.1103 561.4194,-457.0249 566.9774,-429.5565"/>
<polygon fill="#191970" stroke="#191970" points="570.4492,-430.0699 569.2257,-419.546 563.6194,-428.5359 570.4492,-430.0699"/>
</g>
<!-- Node48 -->
<g id="node48" class="node">
<title>Node48</title>
<g id="a_node48"><a xlink:href="../../d3/d4b/G4SDManager_8hh.html" target="_top" xlink:title="G4SDManager.hh">
<polygon fill="none" stroke="#ff0000" points="1382,-285.5 1382,-305.5 1486,-305.5 1486,-285.5 1382,-285.5"/>
<text text-anchor="middle" x="1434" y="-292.5" font-family="FreeSans" font-size="10.00" fill="#000000">G4SDManager.hh</text>
</a>
</g>
</g>
<!-- Node1&#45;&gt;Node48 -->
<g id="edge120" class="edge">
<title>Node1&#45;&gt;Node48</title>
<path fill="none" stroke="#191970" d="M1075.6408,-570.2473C1090.1052,-552.9279 1109.7084,-530.7508 1129,-513 1223.3288,-426.2049 1353.2012,-344.1326 1407.9714,-310.9599"/>
<polygon fill="#191970" stroke="#191970" points="1409.9408,-313.8597 1416.7015,-305.7022 1406.3294,-307.8632 1409.9408,-313.8597"/>
</g>
<!-- Node49 -->
<g id="node49" class="node">
<title>Node49</title>
<g id="a_node49"><a xlink:href="../../d8/d5e/G4VisAttributes_8hh.html" target="_top" xlink:title="G4VisAttributes.hh">
<polygon fill="none" stroke="#ff0000" points="218.5,-399.5 218.5,-419.5 329.5,-419.5 329.5,-399.5 218.5,-399.5"/>
<text text-anchor="middle" x="274" y="-406.5" font-family="FreeSans" font-size="10.00" fill="#000000">G4VisAttributes.hh</text>
</a>
</g>
</g>
<!-- Node1&#45;&gt;Node49 -->
<g id="edge123" class="edge">
<title>Node1&#45;&gt;Node49</title>
<path fill="none" stroke="#191970" d="M954.4129,-594.5933C771.6152,-586.6146 394.0573,-566.4153 344,-534 306.5343,-509.7386 287.1474,-458.0419 278.9388,-429.4867"/>
<polygon fill="#191970" stroke="#191970" points="282.3052,-428.5273 276.3257,-419.7811 275.5459,-430.3472 282.3052,-428.5273"/>
</g>
<!-- Node50 -->
<g id="node50" class="node">
<title>Node50</title>
<g id="a_node50"><a xlink:href="../../d4/d56/G4Colour_8hh.html" target="_top" xlink:title="G4Colour.hh">
<polygon fill="none" stroke="#ff0000" points="213,-342.5 213,-362.5 291,-362.5 291,-342.5 213,-342.5"/>
<text text-anchor="middle" x="252" y="-349.5" font-family="FreeSans" font-size="10.00" fill="#000000">G4Colour.hh</text>
</a>
</g>
</g>
<!-- Node1&#45;&gt;Node50 -->
<g id="edge132" class="edge">
<title>Node1&#45;&gt;Node50</title>
<path fill="none" stroke="#191970" d="M954.4029,-593.7149C767.2225,-584.067 374.0038,-560.8924 318,-534 254.8081,-503.656 235.0984,-485.0603 209,-420 201.5363,-401.3939 216.1443,-382.3196 230.3157,-369.215"/>
<polygon fill="#191970" stroke="#191970" points="232.7121,-371.7701 238.0008,-362.5897 228.1414,-366.4683 232.7121,-371.7701"/>
</g>
<!-- Node2&#45;&gt;Node3 -->
<g id="edge2" class="edge">
<title>Node2&#45;&gt;Node3</title>
<path fill="none" stroke="#191970" d="M897.7655,-456.4408C915.3306,-447.5014 941.2305,-434.3202 961.1167,-424.1996"/>
<polygon fill="#191970" stroke="#191970" points="962.7306,-427.3054 970.0553,-419.6504 959.5556,-421.0669 962.7306,-427.3054"/>
</g>
<!-- Node2&#45;&gt;Node14 -->
<g id="edge20" class="edge">
<title>Node2&#45;&gt;Node14</title>
<path fill="none" stroke="#191970" d="M795.3889,-456.4812C724.1382,-447.7103 618.2056,-434.361 516.358,-420.1669"/>
<polygon fill="#191970" stroke="#191970" points="516.5869,-416.6649 506.1985,-418.7462 515.6174,-423.5974 516.5869,-416.6649"/>
</g>
<!-- Node4 -->
<g id="node4" class="node">
<title>Node4</title>
<polygon fill="none" stroke="#bfbfbf" points="1679.5,-228.5 1679.5,-248.5 1728.5,-248.5 1728.5,-228.5 1679.5,-228.5"/>
<text text-anchor="middle" x="1704" y="-235.5" font-family="FreeSans" font-size="10.00" fill="#000000">vector</text>
</g>
<!-- Node3&#45;&gt;Node4 -->
<g id="edge3" class="edge">
<title>Node3&#45;&gt;Node4</title>
<path fill="none" stroke="#191970" d="M1082.1153,-406.5519C1242.2012,-400.8358 1559.0441,-386.682 1604,-363 1648.7605,-339.4209 1680.5204,-286.1959 1695.0701,-257.5711"/>
<polygon fill="#191970" stroke="#191970" points="1698.2282,-259.0802 1699.4919,-248.561 1691.9442,-255.9962 1698.2282,-259.0802"/>
</g>
<!-- Node3&#45;&gt;Node5 -->
<g id="edge4" class="edge">
<title>Node3&#45;&gt;Node5</title>
<path fill="none" stroke="#191970" d="M985.0886,-399.4843C972.6,-373.9969 940.5733,-308.5045 940,-306 937.9175,-296.902 934.2608,-292.3602 940,-285 957.1106,-263.0564 1031.4746,-249.8848 1080.5529,-243.4243"/>
<polygon fill="#191970" stroke="#191970" points="1081.1328,-246.8788 1090.6122,-242.1468 1080.2509,-239.9346 1081.1328,-246.8788"/>
</g>
<!-- Node6 -->
<g id="node6" class="node">
<title>Node6</title>
<g id="a_node6"><a xlink:href="../../df/de9/G4ios_8hh.html" target="_top" xlink:title="G4ios.hh">
<polygon fill="none" stroke="#ff0000" points="1460.5,-57.5 1460.5,-77.5 1521.5,-77.5 1521.5,-57.5 1460.5,-57.5"/>
<text text-anchor="middle" x="1491" y="-64.5" font-family="FreeSans" font-size="10.00" fill="#000000">G4ios.hh</text>
</a>
</g>
</g>
<!-- Node5&#45;&gt;Node6 -->
<g id="edge5" class="edge">
<title>Node5&#45;&gt;Node6</title>
<path fill="none" stroke="#191970" d="M1159.1465,-235.0544C1193.3984,-230.1854 1246.3326,-218.6825 1284,-192 1318.824,-167.3317 1305.3522,-138.9152 1340,-114 1372.8557,-90.3736 1417.9925,-78.5353 1450.3429,-72.745"/>
<polygon fill="#191970" stroke="#191970" points="1451.0789,-76.1706 1460.3653,-71.0703 1449.9252,-69.2664 1451.0789,-76.1706"/>
</g>
<!-- Node7 -->
<g id="node7" class="node">
<title>Node7</title>
<g id="a_node7"><a xlink:href="../../de/d29/G4Types_8hh.html" target="_top" xlink:title="G4Types.hh">
<polygon fill="none" stroke="#ff0000" points="859.5,-.5 859.5,-20.5 934.5,-20.5 934.5,-.5 859.5,-.5"/>
<text text-anchor="middle" x="897" y="-7.5" font-family="FreeSans" font-size="10.00" fill="#000000">G4Types.hh</text>
</a>
</g>
</g>
<!-- Node5&#45;&gt;Node7 -->
<g id="edge8" class="edge">
<title>Node5&#45;&gt;Node7</title>
<path fill="none" stroke="#191970" d="M1129.6501,-228.1854C1139.0882,-205.5592 1157.75,-150.6673 1135,-114 1094.4112,-48.5811 1001.9797,-24.3818 944.991,-15.5214"/>
<polygon fill="#191970" stroke="#191970" points="945.1821,-12.0126 934.7829,-14.039 944.1761,-18.9399 945.1821,-12.0126"/>
</g>
<!-- Node8 -->
<g id="node8" class="node">
<title>Node8</title>
<polygon fill="none" stroke="#bfbfbf" points="762.5,-171.5 762.5,-191.5 827.5,-191.5 827.5,-171.5 762.5,-171.5"/>
<text text-anchor="middle" x="795" y="-178.5" font-family="FreeSans" font-size="10.00" fill="#000000">algorithm</text>
</g>
<!-- Node5&#45;&gt;Node8 -->
<g id="edge7" class="edge">
<title>Node5&#45;&gt;Node8</title>
<path fill="none" stroke="#191970" d="M1090.9271,-232.6147C1030.4336,-222.1658 904.4104,-200.3982 838.0299,-188.9324"/>
<polygon fill="#191970" stroke="#191970" points="838.3573,-185.4372 827.9075,-187.184 837.1658,-192.3351 838.3573,-185.4372"/>
</g>
<!-- Node9 -->
<g id="node9" class="node">
<title>Node9</title>
<g id="a_node9"><a xlink:href="../../d2/df2/source_2global_2management_2include_2G4String_8hh.html" target="_top" xlink:title="G4String.hh">
<polygon fill="none" stroke="#ff0000" points="935,-57.5 935,-77.5 1011,-77.5 1011,-57.5 935,-57.5"/>
<text text-anchor="middle" x="973" y="-64.5" font-family="FreeSans" font-size="10.00" fill="#000000">G4String.hh</text>
</a>
</g>
</g>
<!-- Node5&#45;&gt;Node9 -->
<g id="edge9" class="edge">
<title>Node5&#45;&gt;Node9</title>
<path fill="none" stroke="#191970" d="M1090.9213,-234.1284C1045.9505,-227.5798 970.535,-213.6318 954,-192 930.4518,-161.1933 948.6477,-113.3215 962.0522,-86.8125"/>
<polygon fill="#191970" stroke="#191970" points="965.2513,-88.251 966.8579,-77.7787 959.0713,-84.9634 965.2513,-88.251"/>
</g>
<!-- Node10 -->
<g id="node10" class="node">
<title>Node10</title>
<g id="a_node10"><a xlink:href="../../d2/d54/templates_8hh.html" target="_top" xlink:title="templates.hh">
<polygon fill="none" stroke="#ff0000" points="1191.5,-171.5 1191.5,-191.5 1274.5,-191.5 1274.5,-171.5 1191.5,-171.5"/>
<text text-anchor="middle" x="1233" y="-178.5" font-family="FreeSans" font-size="10.00" fill="#000000">templates.hh</text>
</a>
</g>
</g>
<!-- Node5&#45;&gt;Node10 -->
<g id="edge11" class="edge">
<title>Node5&#45;&gt;Node10</title>
<path fill="none" stroke="#191970" d="M1144.0596,-228.4408C1160.9207,-219.5419 1185.7464,-206.4394 1204.8875,-196.3371"/>
<polygon fill="#191970" stroke="#191970" points="1206.5574,-199.4134 1213.7676,-191.6504 1203.2901,-193.2227 1206.5574,-199.4134"/>
</g>
<!-- Node11 -->
<g id="node11" class="node">
<title>Node11</title>
<g id="a_node11"><a xlink:href="../../d5/d4f/G4Exception_8hh.html" target="_top" xlink:title="G4Exception.hh">
<polygon fill="none" stroke="#ff0000" points="1030,-114.5 1030,-134.5 1126,-134.5 1126,-114.5 1030,-114.5"/>
<text text-anchor="middle" x="1078" y="-121.5" font-family="FreeSans" font-size="10.00" fill="#000000">G4Exception.hh</text>
</a>
</g>
</g>
<!-- Node5&#45;&gt;Node11 -->
<g id="edge12" class="edge">
<title>Node5&#45;&gt;Node11</title>
<path fill="none" stroke="#191970" d="M1122.7502,-228.1712C1119.6334,-214.6942 1113.4198,-190.5291 1105,-171 1100.9184,-161.5329 1095.3335,-151.5802 1090.3021,-143.3227"/>
<polygon fill="#191970" stroke="#191970" points="1093.252,-141.4389 1084.9662,-134.8362 1087.3261,-145.1649 1093.252,-141.4389"/>
</g>
<!-- Node12 -->
<g id="node12" class="node">
<title>Node12</title>
<g id="a_node12"><a xlink:href="../../dc/d3a/G4EnvironmentUtils_8hh.html" target="_top" xlink:title="G4EnvironmentUtils.hh">
<polygon fill="none" stroke="#ff0000" points="963.5,-171.5 963.5,-191.5 1096.5,-191.5 1096.5,-171.5 963.5,-171.5"/>
<text text-anchor="middle" x="1030" y="-178.5" font-family="FreeSans" font-size="10.00" fill="#000000">G4EnvironmentUtils.hh</text>
</a>
</g>
</g>
<!-- Node5&#45;&gt;Node12 -->
<g id="edge15" class="edge">
<title>Node5&#45;&gt;Node12</title>
<path fill="none" stroke="#191970" d="M1108.0159,-228.3095C1093.4259,-219.5556 1072.1748,-206.8049 1055.5352,-196.8211"/>
<polygon fill="#191970" stroke="#191970" points="1057.2128,-193.746 1046.8371,-191.6022 1053.6112,-199.7485 1057.2128,-193.746"/>
</g>
<!-- Node6&#45;&gt;Node7 -->
<g id="edge6" class="edge">
<title>Node6&#45;&gt;Node7</title>
<path fill="none" stroke="#191970" d="M1460.3148,-64.5555C1363.229,-55.2391 1062.2471,-26.357 944.7108,-15.0783"/>
<polygon fill="#191970" stroke="#191970" points="944.8693,-11.5775 934.5806,-14.1062 944.2006,-18.5455 944.8693,-11.5775"/>
</g>
<!-- Node9&#45;&gt;Node7 -->
<g id="edge10" class="edge">
<title>Node9&#45;&gt;Node7</title>
<path fill="none" stroke="#191970" d="M959.4127,-57.3095C948.065,-48.7987 931.6802,-36.5102 918.5458,-26.6594"/>
<polygon fill="#191970" stroke="#191970" points="920.5697,-23.8023 910.4696,-20.6022 916.3697,-29.4023 920.5697,-23.8023"/>
</g>
<!-- Node11&#45;&gt;Node6 -->
<g id="edge13" class="edge">
<title>Node11&#45;&gt;Node6</title>
<path fill="none" stroke="#191970" d="M1126.1846,-117.8498C1208.1857,-106.5325 1373.4248,-83.7271 1450.1419,-73.139"/>
<polygon fill="#191970" stroke="#191970" points="1450.9341,-76.5629 1460.3617,-71.7285 1449.977,-69.6287 1450.9341,-76.5629"/>
</g>
<!-- Node11&#45;&gt;Node9 -->
<g id="edge14" class="edge">
<title>Node11&#45;&gt;Node9</title>
<path fill="none" stroke="#191970" d="M1059.2281,-114.3095C1042.8784,-105.434 1018.9604,-92.4499 1000.4599,-82.4068"/>
<polygon fill="#191970" stroke="#191970" points="1002.0678,-79.2972 991.6094,-77.6022 998.7281,-85.4492 1002.0678,-79.2972"/>
</g>
<!-- Node12&#45;&gt;Node6 -->
<g id="edge17" class="edge">
<title>Node12&#45;&gt;Node6</title>
<path fill="none" stroke="#191970" d="M1068.7223,-171.4875C1120.4645,-158.1512 1215.0382,-133.9244 1296,-114 1349.3173,-100.8788 1410.9785,-86.2696 1450.4496,-76.9899"/>
<polygon fill="#191970" stroke="#191970" points="1451.2979,-80.386 1460.2327,-74.6922 1449.6974,-73.5714 1451.2979,-80.386"/>
</g>
<!-- Node12&#45;&gt;Node9 -->
<g id="edge18" class="edge">
<title>Node12&#45;&gt;Node9</title>
<path fill="none" stroke="#191970" d="M1024.9416,-171.3833C1015.4587,-152.4174 994.8662,-111.2323 982.6502,-86.8004"/>
<polygon fill="#191970" stroke="#191970" points="985.7317,-85.137 978.129,-77.7579 979.4707,-88.2675 985.7317,-85.137"/>
</g>
<!-- Node12&#45;&gt;Node11 -->
<g id="edge19" class="edge">
<title>Node12&#45;&gt;Node11</title>
<path fill="none" stroke="#191970" d="M1038.5814,-171.3095C1045.3389,-163.2851 1054.9244,-151.9022 1062.9509,-142.3708"/>
<polygon fill="#191970" stroke="#191970" points="1065.7287,-144.5059 1069.4929,-134.6022 1060.3743,-139.9969 1065.7287,-144.5059"/>
</g>
<!-- Node13 -->
<g id="node13" class="node">
<title>Node13</title>
<polygon fill="none" stroke="#bfbfbf" points="113.5,-114.5 113.5,-134.5 152.5,-134.5 152.5,-114.5 113.5,-114.5"/>
<text text-anchor="middle" x="133" y="-121.5" font-family="FreeSans" font-size="10.00" fill="#000000">map</text>
</g>
<!-- Node12&#45;&gt;Node13 -->
<g id="edge16" class="edge">
<title>Node12&#45;&gt;Node13</title>
<path fill="none" stroke="#191970" d="M963.312,-177.2623C782.6215,-165.7803 288.7378,-134.3964 162.6272,-126.3827"/>
<polygon fill="#191970" stroke="#191970" points="162.7564,-122.8839 152.5545,-125.7426 162.3124,-129.8698 162.7564,-122.8839"/>
</g>
<!-- Node14&#45;&gt;Node4 -->
<g id="edge21" class="edge">
<title>Node14&#45;&gt;Node4</title>
<path fill="none" stroke="#191970" d="M506.1623,-399.9472C509.147,-399.5981 512.1053,-399.2791 515,-399 901.5374,-361.7333 1005.6393,-430.8256 1388,-363 1500.5537,-343.0345 1623.8522,-281.9125 1677.0779,-253.4162"/>
<polygon fill="#191970" stroke="#191970" points="1678.7577,-256.4869 1685.8898,-248.6521 1675.4285,-250.3292 1678.7577,-256.4869"/>
</g>
<!-- Node14&#45;&gt;Node7 -->
<g id="edge22" class="edge">
<title>Node14&#45;&gt;Node7</title>
<path fill="none" stroke="#191970" d="M385.9807,-405.1474C335.6971,-399.8386 262.8977,-388.2111 204,-363 92.4341,-315.2443 0,-302.8571 0,-181.5 0,-181.5 0,-181.5 0,-124.5 0,-38.0769 663.7334,-15.9824 849.3102,-11.4939"/>
<polygon fill="#191970" stroke="#191970" points="849.4003,-14.9929 859.315,-11.2579 849.2352,-7.9948 849.4003,-14.9929"/>
</g>
<!-- Node15 -->
<g id="node15" class="node">
<title>Node15</title>
<g id="a_node15"><a xlink:href="../../d1/d02/G4Region_8hh.html" target="_top" xlink:title="G4Region.hh">
<polygon fill="none" stroke="#ff0000" points="385.5,-342.5 385.5,-362.5 466.5,-362.5 466.5,-342.5 385.5,-342.5"/>
<text text-anchor="middle" x="426" y="-349.5" font-family="FreeSans" font-size="10.00" fill="#000000">G4Region.hh</text>
</a>
</g>
</g>
<!-- Node14&#45;&gt;Node15 -->
<g id="edge23" class="edge">
<title>Node14&#45;&gt;Node15</title>
<path fill="none" stroke="#191970" d="M442.4244,-399.3095C439.7794,-391.7714 436.0946,-381.2696 432.8853,-372.123"/>
<polygon fill="#191970" stroke="#191970" points="436.1582,-370.8794 429.5446,-362.6022 429.553,-373.1971 436.1582,-370.8794"/>
</g>
<!-- Node16 -->
<g id="node16" class="node">
<title>Node16</title>
<g id="a_node16"><a xlink:href="../../db/d63/G4GeomSplitter_8hh.html" target="_top" xlink:title="G4GeomSplitter.hh">
<polygon fill="none" stroke="#ff0000" points="552,-285.5 552,-305.5 664,-305.5 664,-285.5 552,-285.5"/>
<text text-anchor="middle" x="608" y="-292.5" font-family="FreeSans" font-size="10.00" fill="#000000">G4GeomSplitter.hh</text>
</a>
</g>
</g>
<!-- Node14&#45;&gt;Node16 -->
<g id="edge35" class="edge">
<title>Node14&#45;&gt;Node16</title>
<path fill="none" stroke="#191970" d="M460.3764,-399.3833C488.5258,-379.5744 551.1188,-335.5275 585.0563,-311.6456"/>
<polygon fill="#191970" stroke="#191970" points="587.2591,-314.3752 593.4229,-305.7579 583.2306,-308.6506 587.2591,-314.3752"/>
</g>
<!-- Node17 -->
<g id="node17" class="node">
<title>Node17</title>
<g id="a_node17"><a xlink:href="../../d2/d16/G4VPhysicalVolume_8hh.html" target="_top" xlink:title="G4VPhysicalVolume.hh">
<polygon fill="none" stroke="#ff0000" points="561,-342.5 561,-362.5 693,-362.5 693,-342.5 561,-342.5"/>
<text text-anchor="middle" x="627" y="-349.5" font-family="FreeSans" font-size="10.00" fill="#000000">G4VPhysicalVolume.hh</text>
</a>
</g>
</g>
<!-- Node14&#45;&gt;Node17 -->
<g id="edge30" class="edge">
<title>Node14&#45;&gt;Node17</title>
<path fill="none" stroke="#191970" d="M477.9425,-399.4408C507.8337,-390.0275 552.6608,-375.9107 585.3482,-365.6169"/>
<polygon fill="#191970" stroke="#191970" points="586.586,-368.8966 595.0729,-362.5544 584.4834,-362.2198 586.586,-368.8966"/>
</g>
<!-- Node19 -->
<g id="node19" class="node">
<title>Node19</title>
<g id="a_node19"><a xlink:href="../../d9/d7a/G4Threading_8hh.html" target="_top" xlink:title="G4Threading.hh">
<polygon fill="none" stroke="#ff0000" points="1076,-285.5 1076,-305.5 1174,-305.5 1174,-285.5 1076,-285.5"/>
<text text-anchor="middle" x="1125" y="-292.5" font-family="FreeSans" font-size="10.00" fill="#000000">G4Threading.hh</text>
</a>
</g>
</g>
<!-- Node14&#45;&gt;Node19 -->
<g id="edge36" class="edge">
<title>Node14&#45;&gt;Node19</title>
<path fill="none" stroke="#191970" d="M506.2164,-399.6177C576.0135,-387.9972 683.8358,-369.4718 702,-363 720.177,-356.5236 721.6074,-347.836 740,-342 876.2337,-298.7725 920.3319,-325.7585 1065.8012,-306.0529"/>
<polygon fill="#191970" stroke="#191970" points="1066.5766,-309.4784 1075.9914,-304.6192 1065.6013,-302.5466 1066.5766,-309.4784"/>
</g>
<!-- Node15&#45;&gt;Node4 -->
<g id="edge24" class="edge">
<title>Node15&#45;&gt;Node4</title>
<path fill="none" stroke="#191970" d="M466.7575,-348.8056C540.4549,-341.9166 700.6958,-325.9805 835,-306 885.9583,-298.4189 897.8628,-291.2616 949,-285 1225.3057,-251.1673 1561.6711,-241.4818 1669.2016,-239.151"/>
<polygon fill="#191970" stroke="#191970" points="1669.5346,-242.6449 1679.4591,-238.9362 1669.388,-235.6464 1669.5346,-242.6449"/>
</g>
<!-- Node15&#45;&gt;Node7 -->
<g id="edge27" class="edge">
<title>Node15&#45;&gt;Node7</title>
<path fill="none" stroke="#191970" d="M417.324,-342.2738C402.0594,-323.1999 372,-280.3286 372,-238.5 372,-238.5 372,-238.5 372,-124.5 372,-75.9163 719.7742,-30.9001 849.2184,-15.8274"/>
<polygon fill="#191970" stroke="#191970" points="849.7111,-19.2939 859.2433,-14.6692 848.9077,-12.3401 849.7111,-19.2939"/>
</g>
<!-- Node15&#45;&gt;Node8 -->
<g id="edge26" class="edge">
<title>Node15&#45;&gt;Node8</title>
<path fill="none" stroke="#191970" d="M441.9051,-342.4104C464.0743,-328.5603 505.7428,-303.2966 543,-285 617.426,-248.4502 708.0966,-213.4216 757.8592,-194.9715"/>
<polygon fill="#191970" stroke="#191970" points="759.079,-198.2521 767.2493,-191.507 756.656,-191.6848 759.079,-198.2521"/>
</g>
<!-- Node15&#45;&gt;Node13 -->
<g id="edge25" class="edge">
<title>Node15&#45;&gt;Node13</title>
<path fill="none" stroke="#191970" d="M385.3319,-347.593C317.2656,-339.0155 186.1891,-320.7991 171,-306 148.1397,-283.7268 137.8952,-187.0734 134.4378,-144.622"/>
<polygon fill="#191970" stroke="#191970" points="137.926,-144.3337 133.6693,-134.6316 130.9467,-144.8706 137.926,-144.3337"/>
</g>
<!-- Node15&#45;&gt;Node16 -->
<g id="edge28" class="edge">
<title>Node15&#45;&gt;Node16</title>
<path fill="none" stroke="#191970" d="M458.119,-342.4408C488.1753,-333.0275 533.2501,-318.9107 566.1181,-308.6169"/>
<polygon fill="#191970" stroke="#191970" points="567.3997,-311.8832 575.8965,-305.5544 565.3075,-305.2032 567.3997,-311.8832"/>
</g>
<!-- Node16&#45;&gt;Node5 -->
<g id="edge29" class="edge">
<title>Node16&#45;&gt;Node5</title>
<path fill="none" stroke="#191970" d="M664.3122,-289.2915C767.9881,-277.8611 987.0239,-253.7121 1080.8385,-243.3689"/>
<polygon fill="#191970" stroke="#191970" points="1081.2923,-246.8401 1090.8485,-242.2652 1080.5252,-239.8823 1081.2923,-246.8401"/>
</g>
<!-- Node17&#45;&gt;Node7 -->
<g id="edge31" class="edge">
<title>Node17&#45;&gt;Node7</title>
<path fill="none" stroke="#191970" d="M640.1386,-342.41C650.4913,-333.7966 664.5447,-320.5244 673,-306 688.6797,-279.0657 692,-269.6658 692,-238.5 692,-238.5 692,-238.5 692,-124.5 692,-52.8972 788.7054,-25.8745 849.2761,-15.9715"/>
<polygon fill="#191970" stroke="#191970" points="850.0458,-19.3945 859.3998,-14.4194 848.9849,-12.4754 850.0458,-19.3945"/>
</g>
<!-- Node17&#45;&gt;Node16 -->
<g id="edge34" class="edge">
<title>Node17&#45;&gt;Node16</title>
<path fill="none" stroke="#191970" d="M623.6032,-342.3095C621.0905,-334.7714 617.5899,-324.2696 614.541,-315.123"/>
<polygon fill="#191970" stroke="#191970" points="617.8502,-313.9823 611.3674,-305.6022 611.2094,-316.1959 617.8502,-313.9823"/>
</g>
<!-- Node17&#45;&gt;Node18 -->
<g id="edge32" class="edge">
<title>Node17&#45;&gt;Node18</title>
<path fill="none" stroke="#191970" d="M652.7658,-342.4408C676.2847,-333.2587 711.2668,-319.6013 737.4422,-309.3822"/>
<polygon fill="#191970" stroke="#191970" points="738.9583,-312.5476 747.0007,-305.6504 736.4125,-306.0269 738.9583,-312.5476"/>
</g>
<!-- Node18&#45;&gt;Node5 -->
<g id="edge33" class="edge">
<title>Node18&#45;&gt;Node5</title>
<path fill="none" stroke="#191970" d="M826.0791,-286.9048C895.5378,-275.6572 1016.0135,-256.1484 1080.779,-245.6608"/>
<polygon fill="#191970" stroke="#191970" points="1081.3669,-249.1113 1090.6788,-244.0577 1080.2479,-242.2013 1081.3669,-249.1113"/>
</g>
<!-- Node19&#45;&gt;Node4 -->
<g id="edge39" class="edge">
<title>Node19&#45;&gt;Node4</title>
<path fill="none" stroke="#191970" d="M1174.128,-286.945C1178.8098,-286.2404 1183.4907,-285.5781 1188,-285 1368.5548,-261.8517 1586.1156,-246.2423 1669.3334,-240.7189"/>
<polygon fill="#191970" stroke="#191970" points="1669.7389,-244.1998 1679.4876,-240.0509 1669.2794,-237.2149 1669.7389,-244.1998"/>
</g>
<!-- Node19&#45;&gt;Node5 -->
<g id="edge37" class="edge">
<title>Node19&#45;&gt;Node5</title>
<path fill="none" stroke="#191970" d="M1125,-285.3095C1125,-277.9335 1125,-267.72 1125,-258.715"/>
<polygon fill="#191970" stroke="#191970" points="1128.5001,-258.6022 1125,-248.6022 1121.5001,-258.6023 1128.5001,-258.6022"/>
</g>
<!-- Node19&#45;&gt;Node7 -->
<g id="edge38" class="edge">
<title>Node19&#45;&gt;Node7</title>
<path fill="none" stroke="#191970" d="M1088.6206,-285.4322C1024.25,-266.5326 897,-223.8193 897,-181.5 897,-181.5 897,-181.5 897,-124.5 897,-91.6536 897,-53.4837 897,-30.697"/>
<polygon fill="#191970" stroke="#191970" points="900.5001,-30.5648 897,-20.5648 893.5001,-30.5648 900.5001,-30.5648"/>
</g>
<!-- Node21 -->
<g id="node21" class="node">
<title>Node21</title>
<g id="a_node21"><a xlink:href="../../dd/d09/PhysicalConstants_8h.html" target="_top" xlink:title="CLHEP/Units/PhysicalConstants.h">
<polygon fill="none" stroke="#000000" points="1290,-399.5 1290,-419.5 1472,-419.5 1472,-399.5 1290,-399.5"/>
<text text-anchor="middle" x="1381" y="-406.5" font-family="FreeSans" font-size="10.00" fill="#000000">CLHEP/Units/PhysicalConstants.h</text>
</a>
</g>
</g>
<!-- Node20&#45;&gt;Node21 -->
<g id="edge42" class="edge">
<title>Node20&#45;&gt;Node21</title>
<path fill="none" stroke="#191970" d="M1222.4413,-513.3833C1252.8045,-493.4902 1320.4782,-449.1522 1356.8204,-425.3418"/>
<polygon fill="#191970" stroke="#191970" points="1358.8966,-428.1659 1365.3431,-419.7579 1355.0604,-422.3106 1358.8966,-428.1659"/>
</g>
<!-- Node22 -->
<g id="node22" class="node">
<title>Node22</title>
<g id="a_node22"><a xlink:href="../../da/db6/SystemOfUnits_8h.html" target="_top" xlink:title="CLHEP/Units/SystemOfUnits.h">
<polygon fill="none" stroke="#000000" points="749,-342.5 749,-362.5 915,-362.5 915,-342.5 749,-342.5"/>
<text text-anchor="middle" x="832" y="-349.5" font-family="FreeSans" font-size="10.00" fill="#000000">CLHEP/Units/SystemOfUnits.h</text>
</a>
</g>
</g>
<!-- Node21&#45;&gt;Node22 -->
<g id="edge43" class="edge">
<title>Node21&#45;&gt;Node22</title>
<path fill="none" stroke="#191970" d="M1289.7275,-400.0236C1188.8111,-389.546 1027.0893,-372.7552 925.3481,-362.1919"/>
<polygon fill="#191970" stroke="#191970" points="925.6963,-358.7093 915.3883,-361.1578 924.9733,-365.6719 925.6963,-358.7093"/>
</g>
<!-- Node23&#45;&gt;Node22 -->
<g id="edge45" class="edge">
<title>Node23&#45;&gt;Node22</title>
<path fill="none" stroke="#191970" d="M772.0509,-399.3095C782.847,-390.8798 798.3894,-378.7439 810.9433,-368.9415"/>
<polygon fill="#191970" stroke="#191970" points="813.3342,-371.5153 819.0621,-362.6022 809.0261,-365.998 813.3342,-371.5153"/>
</g>
<!-- Node24&#45;&gt;Node4 -->
<g id="edge48" class="edge">
<title>Node24&#45;&gt;Node4</title>
<path fill="none" stroke="#191970" d="M1100.1003,-342.4748C1160.3343,-328.361 1274.6973,-302.4144 1373,-285 1480.5374,-265.9497 1608.8519,-249.7781 1669.2755,-242.5485"/>
<polygon fill="#191970" stroke="#191970" points="1669.8889,-246.0003 1679.4058,-241.3443 1669.0625,-239.0492 1669.8889,-246.0003"/>
</g>
<!-- Node24&#45;&gt;Node5 -->
<g id="edge47" class="edge">
<title>Node24&#45;&gt;Node5</title>
<path fill="none" stroke="#191970" d="M1012.1384,-342.4453C973.5052,-331.8018 927.6781,-312.6869 949,-285 964.9553,-264.2818 1033.8267,-250.9184 1080.5347,-244.0586"/>
<polygon fill="#191970" stroke="#191970" points="1081.3105,-247.4836 1090.7196,-242.6134 1080.327,-240.5531 1081.3105,-247.4836"/>
</g>
<!-- Node24&#45;&gt;Node18 -->
<g id="edge49" class="edge">
<title>Node24&#45;&gt;Node18</title>
<path fill="none" stroke="#191970" d="M1008.6822,-342.6364C959.9907,-332.8981 885.4516,-317.9903 833.2727,-307.5545"/>
<polygon fill="#191970" stroke="#191970" points="833.6415,-304.0591 823.1493,-305.5299 832.2687,-310.9231 833.6415,-304.0591"/>
</g>
<!-- Node25 -->
<g id="node25" class="node">
<title>Node25</title>
<polygon fill="none" stroke="#bfbfbf" points="958,-285.5 958,-305.5 1058,-305.5 1058,-285.5 958,-285.5"/>
<text text-anchor="middle" x="1008" y="-292.5" font-family="FreeSans" font-size="10.00" fill="#000000">G4UnitsTable.icc</text>
</g>
<!-- Node24&#45;&gt;Node25 -->
<g id="edge50" class="edge">
<title>Node24&#45;&gt;Node25</title>
<path fill="none" stroke="#191970" d="M1049.061,-342.3095C1042.022,-334.2851 1032.0371,-322.9022 1023.6762,-313.3708"/>
<polygon fill="#191970" stroke="#191970" points="1026.0872,-310.8118 1016.8616,-305.6022 1020.8249,-315.4279 1026.0872,-310.8118"/>
</g>
<!-- Node26&#45;&gt;Node4 -->
<g id="edge53" class="edge">
<title>Node26&#45;&gt;Node4</title>
<path fill="none" stroke="#191970" d="M1381.7412,-521.948C1449.6018,-518.6149 1583.806,-508.3111 1693,-477 1714.6035,-470.8053 1717.385,-462.1546 1739,-456 1860.9443,-421.2779 1904.959,-468.7591 2022,-420 2059.9978,-404.1702 2070.4801,-396.0635 2095,-363 2116.4557,-334.0684 2141.0024,-311.8565 2117,-285 2091.9413,-256.9616 1833.8271,-243.7527 1738.8376,-239.8142"/>
<polygon fill="#191970" stroke="#191970" points="1738.738,-236.3073 1728.6045,-239.3998 1738.4547,-243.3016 1738.738,-236.3073"/>
</g>
<!-- Node26&#45;&gt;Node5 -->
<g id="edge56" class="edge">
<title>Node26&#45;&gt;Node5</title>
<path fill="none" stroke="#191970" d="M1330.1044,-513.3776C1316.843,-495.6605 1290.6047,-457.3502 1281,-420 1274.5287,-394.8349 1289.5203,-388.5948 1294,-363 1295.6091,-353.8064 1298.5001,-350.1768 1294,-342 1267.794,-294.3832 1209.576,-266.1214 1168.8336,-251.4594"/>
<polygon fill="#191970" stroke="#191970" points="1169.7346,-248.0677 1159.1399,-248.1068 1167.4466,-254.6832 1169.7346,-248.0677"/>
</g>
<!-- Node26&#45;&gt;Node6 -->
<g id="edge57" class="edge">
<title>Node26&#45;&gt;Node6</title>
<path fill="none" stroke="#191970" d="M1381.566,-520.2348C1469.5577,-513.3292 1665.5768,-496.285 1730,-477 1749.9934,-471.015 1752.0321,-462.0695 1772,-456 2011.2953,-383.2632 2112.2322,-491.1705 2327,-363 2360.7176,-342.8778 2384,-334.7655 2384,-295.5 2384,-295.5 2384,-295.5 2384,-181.5 2384,-94.388 1706.7186,-72.5429 1531.8189,-68.354"/>
<polygon fill="#191970" stroke="#191970" points="1531.818,-64.8531 1521.7391,-68.119 1531.6547,-71.8512 1531.818,-64.8531"/>
</g>
<!-- Node26&#45;&gt;Node13 -->
<g id="edge54" class="edge">
<title>Node26&#45;&gt;Node13</title>
<path fill="none" stroke="#191970" d="M1294.4015,-514.3965C1291.2276,-513.8771 1288.0691,-513.4033 1285,-513 1043.0914,-481.2137 402.0634,-542.4024 191,-420 116.3445,-376.7049 106.4846,-334.9761 99,-249 95.9777,-214.2828 95.8846,-204.0283 107,-171 110.223,-161.4231 115.4304,-151.5515 120.3413,-143.381"/>
<polygon fill="#191970" stroke="#191970" points="123.4499,-145.0136 125.8336,-134.6904 117.5325,-141.2739 123.4499,-145.0136"/>
</g>
<!-- Node26&#45;&gt;Node19 -->
<g id="edge91" class="edge">
<title>Node26&#45;&gt;Node19</title>
<path fill="none" stroke="#191970" d="M1302.6927,-513.3548C1280.9301,-505.845 1253.3856,-493.9564 1233,-477 1178.8633,-431.9701 1145.1727,-352.3607 1131.7176,-315.3933"/>
<polygon fill="#191970" stroke="#191970" points="1134.9498,-314.0344 1128.3244,-305.7667 1128.3479,-316.3615 1134.9498,-314.0344"/>
</g>
<!-- Node26&#45;&gt;Node21 -->
<g id="edge55" class="edge">
<title>Node26&#45;&gt;Node21</title>
<path fill="none" stroke="#191970" d="M1332.1063,-513.4192C1324.971,-499.797 1314.9661,-475.0284 1324,-456 1330.0506,-443.2554 1341.4932,-432.8511 1352.5476,-425.1406"/>
<polygon fill="#191970" stroke="#191970" points="1354.7171,-427.906 1361.2194,-419.5412 1350.9199,-422.0254 1354.7171,-427.906"/>
</g>
<!-- Node26&#45;&gt;Node27 -->
<g id="edge58" class="edge">
<title>Node26&#45;&gt;Node27</title>
<path fill="none" stroke="#191970" d="M1381.6361,-521.4355C1444.117,-517.5276 1562.1127,-506.5881 1658,-477 1678.3229,-470.7289 1680.7653,-462.5499 1701,-456 1772.964,-432.7057 1859.7925,-420.3573 1914.7114,-414.3766"/>
<polygon fill="#191970" stroke="#191970" points="1915.3426,-417.8295 1924.9196,-413.2984 1914.6073,-410.8683 1915.3426,-417.8295"/>
</g>
<!-- Node32 -->
<g id="node32" class="node">
<title>Node32</title>
<g id="a_node32"><a xlink:href="../../df/d70/G4MaterialPropertiesTable_8hh.html" target="_top" xlink:title="G4MaterialPropertiesTable.hh">
<polygon fill="none" stroke="#ff0000" points="180,-285.5 180,-305.5 344,-305.5 344,-285.5 180,-285.5"/>
<text text-anchor="middle" x="262" y="-292.5" font-family="FreeSans" font-size="10.00" fill="#000000">G4MaterialPropertiesTable.hh</text>
</a>
</g>
</g>
<!-- Node26&#45;&gt;Node32 -->
<g id="edge74" class="edge">
<title>Node26&#45;&gt;Node32</title>
<path fill="none" stroke="#191970" d="M1294.399,-514.416C1291.2256,-513.892 1288.068,-513.4118 1285,-513 1062.4258,-483.1212 997.8601,-535.3412 781,-477 760.4618,-471.4747 758.5474,-461.4908 738,-456 681.0834,-440.7904 251.0635,-461.2492 209,-420 184.1978,-395.6779 188.9684,-373.3172 204,-342 210.1252,-329.2386 221.6482,-318.8766 232.8195,-311.2006"/>
<polygon fill="#191970" stroke="#191970" points="235.03,-313.9429 241.5934,-305.6258 231.276,-308.0346 235.03,-313.9429"/>
</g>
<!-- Node33 -->
<g id="node33" class="node">
<title>Node33</title>
<g id="a_node33"><a xlink:href="../../d6/d29/G4IonisParamMat_8hh.html" target="_top" xlink:title="G4IonisParamMat.hh">
<polygon fill="none" stroke="#ff0000" points="1163.5,-342.5 1163.5,-362.5 1284.5,-362.5 1284.5,-342.5 1163.5,-342.5"/>
<text text-anchor="middle" x="1224" y="-349.5" font-family="FreeSans" font-size="10.00" fill="#000000">G4IonisParamMat.hh</text>
</a>
</g>
</g>
<!-- Node26&#45;&gt;Node33 -->
<g id="edge77" class="edge">
<title>Node26&#45;&gt;Node33</title>
<path fill="none" stroke="#191970" d="M1302.2132,-513.4335C1283.2821,-506.2875 1261.2724,-494.7457 1248,-477 1224.9279,-446.1517 1222.1845,-399.2999 1222.7582,-372.7398"/>
<polygon fill="#191970" stroke="#191970" points="1226.2571,-372.8364 1223.1576,-362.7051 1219.2626,-372.558 1226.2571,-372.8364"/>
</g>
<!-- Node34 -->
<g id="node34" class="node">
<title>Node34</title>
<g id="a_node34"><a xlink:href="../../d3/d36/G4SandiaTable_8hh.html" target="_top" xlink:title="G4SandiaTable.hh">
<polygon fill="none" stroke="#ff0000" points="1404.5,-456.5 1404.5,-476.5 1511.5,-476.5 1511.5,-456.5 1404.5,-456.5"/>
<text text-anchor="middle" x="1458" y="-463.5" font-family="FreeSans" font-size="10.00" fill="#000000">G4SandiaTable.hh</text>
</a>
</g>
</g>
<!-- Node26&#45;&gt;Node34 -->
<g id="edge81" class="edge">
<title>Node26&#45;&gt;Node34</title>
<path fill="none" stroke="#191970" d="M1359.1774,-513.4408C1378.0822,-504.461 1405.9983,-491.2008 1427.3424,-481.0624"/>
<polygon fill="#191970" stroke="#191970" points="1429.0996,-484.1025 1436.6307,-476.6504 1426.0962,-477.7796 1429.0996,-484.1025"/>
</g>
<!-- Node35 -->
<g id="node35" class="node">
<title>Node35</title>
<g id="a_node35"><a xlink:href="../../d1/d10/G4ElementVector_8hh.html" target="_top" xlink:title="G4ElementVector.hh">
<polygon fill="none" stroke="#000000" points="1529.5,-456.5 1529.5,-476.5 1648.5,-476.5 1648.5,-456.5 1529.5,-456.5"/>
<text text-anchor="middle" x="1589" y="-463.5" font-family="FreeSans" font-size="10.00" fill="#000000">G4ElementVector.hh</text>
</a>
</g>
</g>
<!-- Node26&#45;&gt;Node35 -->
<g id="edge86" class="edge">
<title>Node26&#45;&gt;Node35</title>
<path fill="none" stroke="#191970" d="M1381.7209,-513.5714C1424.3793,-503.884 1489.3653,-489.1262 1535.1792,-478.7222"/>
<polygon fill="#191970" stroke="#191970" points="1535.9614,-482.1338 1544.938,-476.5061 1534.4112,-475.3076 1535.9614,-482.1338"/>
</g>
<!-- Node26&#45;&gt;Node36 -->
<g id="edge89" class="edge">
<title>Node26&#45;&gt;Node36</title>
<path fill="none" stroke="#191970" d="M1381.5737,-522.0346C1525.4396,-517.0974 1998.3669,-500.0789 2389,-477 2413.2905,-475.5649 2439.8953,-473.681 2463.4435,-471.9057"/>
<polygon fill="#191970" stroke="#191970" points="2463.9739,-475.3755 2473.6793,-471.1265 2463.4425,-468.3957 2463.9739,-475.3755"/>
</g>
<!-- Node27&#45;&gt;Node4 -->
<g id="edge60" class="edge">
<title>Node27&#45;&gt;Node4</title>
<path fill="none" stroke="#191970" d="M1962.5333,-399.2369C1957.1226,-390.0999 1949.7098,-376.1776 1946,-363 1936.568,-329.4964 1962.2752,-310.879 1939,-285 1912.8181,-255.8891 1798.0318,-244.4459 1739.1359,-240.4289"/>
<polygon fill="#191970" stroke="#191970" points="1739.028,-236.9148 1728.8231,-239.7627 1738.5767,-243.9002 1739.028,-236.9148"/>
</g>
<!-- Node27&#45;&gt;Node5 -->
<g id="edge59" class="edge">
<title>Node27&#45;&gt;Node5</title>
<path fill="none" stroke="#191970" d="M1939.7169,-399.463C1869.5401,-375.801 1685.8502,-316.1793 1528,-285 1399.2521,-259.5691 1244.4188,-246.5234 1169.6848,-241.3066"/>
<polygon fill="#191970" stroke="#191970" points="1169.4678,-237.7836 1159.2523,-240.5931 1168.9902,-244.7673 1169.4678,-237.7836"/>
</g>
<!-- Node27&#45;&gt;Node6 -->
<g id="edge61" class="edge">
<title>Node27&#45;&gt;Node6</title>
<path fill="none" stroke="#191970" d="M2013.3145,-399.6293C2062.7891,-385.6864 2136,-355.0017 2136,-295.5 2136,-295.5 2136,-295.5 2136,-181.5 2136,-119.8598 1673.3054,-80.8557 1531.6919,-70.3615"/>
<polygon fill="#191970" stroke="#191970" points="1531.9049,-66.8678 1521.6758,-69.6273 1531.3931,-73.8491 1531.9049,-66.8678"/>
</g>
<!-- Node28 -->
<g id="node28" class="node">
<title>Node28</title>
<g id="a_node28"><a xlink:href="../../d3/d2d/G4Isotope_8hh.html" target="_top" xlink:title="G4Isotope.hh">
<polygon fill="none" stroke="#000000" points="2024.5,-285.5 2024.5,-305.5 2107.5,-305.5 2107.5,-285.5 2024.5,-285.5"/>
<text text-anchor="middle" x="2066" y="-292.5" font-family="FreeSans" font-size="10.00" fill="#000000">G4Isotope.hh</text>
</a>
</g>
</g>
<!-- Node27&#45;&gt;Node28 -->
<g id="edge62" class="edge">
<title>Node27&#45;&gt;Node28</title>
<path fill="none" stroke="#191970" d="M2013.0019,-402.8396C2036.8359,-396.7445 2064.3359,-385.1195 2079,-363 2088.5369,-348.6144 2083.1492,-328.9397 2076.6561,-314.5431"/>
<polygon fill="#191970" stroke="#191970" points="2079.7602,-312.925 2072.1541,-305.5495 2073.5006,-316.0584 2079.7602,-312.925"/>
</g>
<!-- Node29 -->
<g id="node29" class="node">
<title>Node29</title>
<g id="a_node29"><a xlink:href="../../d3/d76/G4IonisParamElm_8hh.html" target="_top" xlink:title="G4IonisParamElm.hh">
<polygon fill="none" stroke="#000000" points="1808.5,-285.5 1808.5,-305.5 1929.5,-305.5 1929.5,-285.5 1808.5,-285.5"/>
<text text-anchor="middle" x="1869" y="-292.5" font-family="FreeSans" font-size="10.00" fill="#000000">G4IonisParamElm.hh</text>
</a>
</g>
</g>
<!-- Node27&#45;&gt;Node29 -->
<g id="edge66" class="edge">
<title>Node27&#45;&gt;Node29</title>
<path fill="none" stroke="#191970" d="M1953.8317,-399.1963C1941.6487,-390.4589 1924.5602,-377.1242 1912,-363 1898.7964,-348.1523 1886.9266,-328.8305 1879.0203,-314.6658"/>
<polygon fill="#191970" stroke="#191970" points="1882.0568,-312.9231 1874.2122,-305.8018 1875.9037,-316.2608 1882.0568,-312.9231"/>
</g>
<!-- Node30 -->
<g id="node30" class="node">
<title>Node30</title>
<g id="a_node30"><a xlink:href="../../db/da9/G4IsotopeVector_8hh.html" target="_top" xlink:title="G4IsotopeVector.hh">
<polygon fill="none" stroke="#000000" points="1954.5,-342.5 1954.5,-362.5 2069.5,-362.5 2069.5,-342.5 1954.5,-342.5"/>
<text text-anchor="middle" x="2012" y="-349.5" font-family="FreeSans" font-size="10.00" fill="#000000">G4IsotopeVector.hh</text>
</a>
</g>
</g>
<!-- Node27&#45;&gt;Node30 -->
<g id="edge69" class="edge">
<title>Node27&#45;&gt;Node30</title>
<path fill="none" stroke="#191970" d="M1976.6875,-399.3095C1982.68,-391.3661 1991.1549,-380.1319 1998.3002,-370.6602"/>
<polygon fill="#191970" stroke="#191970" points="2001.1507,-372.6933 2004.379,-362.6022 1995.5625,-368.4776 2001.1507,-372.6933"/>
</g>
<!-- Node27&#45;&gt;Node31 -->
<g id="edge72" class="edge">
<title>Node27&#45;&gt;Node31</title>
<path fill="none" stroke="#191970" d="M2013.1966,-400.8429C2062.6661,-391.153 2143.1517,-375.3878 2198.6892,-364.5093"/>
<polygon fill="#191970" stroke="#191970" points="2199.6151,-367.8946 2208.7558,-362.5375 2198.2695,-361.0251 2199.6151,-367.8946"/>
</g>
<!-- Node28&#45;&gt;Node4 -->
<g id="edge65" class="edge">
<title>Node28&#45;&gt;Node4</title>
<path fill="none" stroke="#191970" d="M2024.4387,-287.542C2019.5755,-286.6598 2014.6811,-285.7943 2010,-285 1911.953,-268.3636 1795.7421,-251.4786 1738.8733,-243.3993"/>
<polygon fill="#191970" stroke="#191970" points="1739.0302,-239.8867 1728.6381,-241.9494 1738.0483,-246.8175 1739.0302,-239.8867"/>
</g>
<!-- Node28&#45;&gt;Node5 -->
<g id="edge63" class="edge">
<title>Node28&#45;&gt;Node5</title>
<path fill="none" stroke="#191970" d="M2024.2645,-291.7806C1999.4959,-289.6404 1967.4703,-286.9898 1939,-285 1645.3783,-264.4788 1291.6986,-246.6155 1169.2501,-240.6315"/>
<polygon fill="#191970" stroke="#191970" points="1169.2986,-237.1298 1159.14,-240.1388 1168.9578,-244.1215 1169.2986,-237.1298"/>
</g>
<!-- Node28&#45;&gt;Node6 -->
<g id="edge64" class="edge">
<title>Node28&#45;&gt;Node6</title>
<path fill="none" stroke="#191970" d="M2047.2961,-285.3571C1991.7049,-255.5435 1822.0692,-166.9656 1673,-114 1625.5292,-97.1332 1569.0785,-83.6905 1531.7704,-75.681"/>
<polygon fill="#191970" stroke="#191970" points="1532.2864,-72.2128 1521.7785,-73.5677 1530.8378,-79.0613 1532.2864,-72.2128"/>
</g>
<!-- Node29&#45;&gt;Node5 -->
<g id="edge68" class="edge">
<title>Node29&#45;&gt;Node5</title>
<path fill="none" stroke="#191970" d="M1808.3219,-289.6469C1791.3916,-288.0722 1772.9839,-286.4147 1756,-285 1535.8696,-266.6634 1272.2182,-248.4418 1169.2497,-241.4691"/>
<polygon fill="#191970" stroke="#191970" points="1169.431,-237.9734 1159.2177,-240.7909 1168.9589,-244.9575 1169.431,-237.9734"/>
</g>
<!-- Node29&#45;&gt;Node6 -->
<g id="edge67" class="edge">
<title>Node29&#45;&gt;Node6</title>
<path fill="none" stroke="#191970" d="M1859.1473,-285.2622C1829.2946,-254.8027 1736.1089,-163.7866 1642,-114 1606.8193,-95.3883 1563.0101,-82.9363 1531.6551,-75.6405"/>
<polygon fill="#191970" stroke="#191970" points="1532.054,-72.1429 1521.5296,-73.3625 1530.5176,-78.9722 1532.054,-72.1429"/>
</g>
<!-- Node30&#45;&gt;Node4 -->
<g id="edge70" class="edge">
<title>Node30&#45;&gt;Node4</title>
<path fill="none" stroke="#191970" d="M2009.0211,-342.3689C2004.0156,-327.2547 1992.4079,-299.0765 1972,-285 1934.702,-259.2734 1802.7308,-245.9877 1738.9791,-240.9473"/>
<polygon fill="#191970" stroke="#191970" points="1738.8694,-237.4288 1728.6312,-240.1545 1738.3346,-244.4083 1738.8694,-237.4288"/>
</g>
<!-- Node30&#45;&gt;Node28 -->
<g id="edge71" class="edge">
<title>Node30&#45;&gt;Node28</title>
<path fill="none" stroke="#191970" d="M2021.6541,-342.3095C2029.3331,-334.204 2040.2582,-322.672 2049.3428,-313.0826"/>
<polygon fill="#191970" stroke="#191970" points="2052.0928,-315.2689 2056.4295,-305.6022 2047.0111,-310.4547 2052.0928,-315.2689"/>
</g>
<!-- Node31&#45;&gt;Node4 -->
<g id="edge73" class="edge">
<title>Node31&#45;&gt;Node4</title>
<path fill="none" stroke="#191970" d="M2252.7453,-342.3143C2241.0876,-326.8572 2216.573,-297.9133 2188,-285 2107.6463,-248.685 1836.1009,-240.6735 1738.9373,-238.955"/>
<polygon fill="#191970" stroke="#191970" points="1738.8209,-235.4527 1728.7645,-238.7871 1738.7053,-242.4517 1738.8209,-235.4527"/>
</g>
<!-- Node32&#45;&gt;Node5 -->
<g id="edge76" class="edge">
<title>Node32&#45;&gt;Node5</title>
<path fill="none" stroke="#191970" d="M344.3571,-290.0604C523.3847,-278.2359 942.9558,-250.5238 1080.4822,-241.4403"/>
<polygon fill="#191970" stroke="#191970" points="1080.8997,-244.9205 1090.6473,-240.769 1080.4383,-237.9357 1080.8997,-244.9205"/>
</g>
<!-- Node32&#45;&gt;Node13 -->
<g id="edge75" class="edge">
<title>Node32&#45;&gt;Node13</title>
<path fill="none" stroke="#191970" d="M254.3168,-285.3153C233.2154,-257.3437 174.1402,-179.0347 146.9808,-143.0327"/>
<polygon fill="#191970" stroke="#191970" points="149.6226,-140.7229 140.8061,-134.8476 144.0344,-144.9386 149.6226,-140.7229"/>
</g>
<!-- Node33&#45;&gt;Node5 -->
<g id="edge79" class="edge">
<title>Node33&#45;&gt;Node5</title>
<path fill="none" stroke="#191970" d="M1219.1547,-342.1576C1212.3288,-328.239 1198.9198,-303.1355 1183,-285 1172.8907,-273.4837 1159.6822,-262.6472 1148.424,-254.3372"/>
<polygon fill="#191970" stroke="#191970" points="1150.447,-251.481 1140.2786,-248.5056 1146.3721,-257.1727 1150.447,-251.481"/>
</g>
<!-- Node33&#45;&gt;Node6 -->
<g id="edge78" class="edge">
<title>Node33&#45;&gt;Node6</title>
<path fill="none" stroke="#191970" d="M1251.8883,-342.479C1290.0865,-326.7505 1354,-292.3826 1354,-238.5 1354,-238.5 1354,-238.5 1354,-181.5 1354,-130.6538 1410.4487,-98.1119 1450.8774,-81.3257"/>
<polygon fill="#191970" stroke="#191970" points="1452.2593,-84.5428 1460.2545,-77.591 1449.6692,-78.0396 1452.2593,-84.5428"/>
</g>
<!-- Node33&#45;&gt;Node19 -->
<g id="edge80" class="edge">
<title>Node33&#45;&gt;Node19</title>
<path fill="none" stroke="#191970" d="M1206.3008,-342.3095C1191.0965,-333.5556 1168.9506,-320.8049 1151.6104,-310.8211"/>
<polygon fill="#191970" stroke="#191970" points="1152.9586,-307.5587 1142.546,-305.6022 1149.4658,-313.6251 1152.9586,-307.5587"/>
</g>
<!-- Node34&#45;&gt;Node4 -->
<g id="edge84" class="edge">
<title>Node34&#45;&gt;Node4</title>
<path fill="none" stroke="#191970" d="M1511.6043,-456.8728C1575.4351,-445.1738 1674.2254,-426.2249 1680,-420 1721.3352,-375.4421 1714.3102,-296.1845 1708.108,-258.9252"/>
<polygon fill="#191970" stroke="#191970" points="1711.4984,-258.0067 1706.264,-248.7952 1704.6116,-259.2604 1711.4984,-258.0067"/>
</g>
<!-- Node34&#45;&gt;Node5 -->
<g id="edge83" class="edge">
<title>Node34&#45;&gt;Node5</title>
<path fill="none" stroke="#191970" d="M1466.4732,-456.4032C1476.8249,-442.7628 1491.7135,-417.9737 1481,-399 1432.767,-313.5793 1382.078,-323.8467 1292,-285 1251.9283,-267.7188 1203.674,-255.0961 1169.3622,-247.3986"/>
<polygon fill="#191970" stroke="#191970" points="1169.7033,-243.8904 1159.1858,-245.1682 1168.2045,-250.7281 1169.7033,-243.8904"/>
</g>
<!-- Node34&#45;&gt;Node6 -->
<g id="edge82" class="edge">
<title>Node34&#45;&gt;Node6</title>
<path fill="none" stroke="#191970" d="M1473.3862,-456.4971C1515.2332,-427.9432 1628,-341.4473 1628,-238.5 1628,-238.5 1628,-238.5 1628,-181.5 1628,-130.6538 1571.5513,-98.1119 1531.1226,-81.3257"/>
<polygon fill="#191970" stroke="#191970" points="1532.3308,-78.0396 1521.7455,-77.591 1529.7407,-84.5428 1532.3308,-78.0396"/>
</g>
<!-- Node34&#45;&gt;Node21 -->
<g id="edge85" class="edge">
<title>Node34&#45;&gt;Node21</title>
<path fill="none" stroke="#191970" d="M1444.2339,-456.3095C1432.7369,-447.7987 1416.1366,-435.5102 1402.8293,-425.6594"/>
<polygon fill="#191970" stroke="#191970" points="1404.7668,-422.7389 1394.6469,-419.6022 1400.6019,-428.3652 1404.7668,-422.7389"/>
</g>
<!-- Node35&#45;&gt;Node4 -->
<g id="edge87" class="edge">
<title>Node35&#45;&gt;Node4</title>
<path fill="none" stroke="#191970" d="M1632.7621,-456.4391C1666.059,-447.7942 1707.8389,-434.4638 1718,-420 1752.7239,-370.5723 1727.7932,-293.7777 1712.9295,-258.0336"/>
<polygon fill="#191970" stroke="#191970" points="1716.0781,-256.4969 1708.8891,-248.7143 1709.6557,-259.2814 1716.0781,-256.4969"/>
</g>
<!-- Node35&#45;&gt;Node27 -->
<g id="edge88" class="edge">
<title>Node35&#45;&gt;Node27</title>
<path fill="none" stroke="#191970" d="M1648.793,-457.531C1721.9042,-446.5644 1844.5759,-428.1636 1914.9637,-417.6054"/>
<polygon fill="#191970" stroke="#191970" points="1915.5872,-421.0512 1924.9573,-416.1064 1914.5487,-414.1286 1915.5872,-421.0512"/>
</g>
<!-- Node36&#45;&gt;Node4 -->
<g id="edge90" class="edge">
<title>Node36&#45;&gt;Node4</title>
<path fill="none" stroke="#191970" d="M2515.3528,-456.433C2481.4672,-434.7473 2398.577,-382.3215 2327,-342 2279.0257,-314.9746 2269.8533,-300.4412 2217,-285 2126.8281,-258.6561 1839.1455,-244.2335 1738.872,-239.9081"/>
<polygon fill="#191970" stroke="#191970" points="1738.8154,-236.4027 1728.676,-239.4754 1738.5186,-243.3964 1738.8154,-236.4027"/>
</g>
<!-- Node38 -->
<g id="node38" class="node">
<title>Node38</title>
<g id="a_node38"><a xlink:href="../../d9/dbc/G4GeomTypes_8hh.html" target="_top" xlink:title="G4GeomTypes.hh">
<polygon fill="none" stroke="#ff0000" points="2190.5,-456.5 2190.5,-476.5 2295.5,-476.5 2295.5,-456.5 2190.5,-456.5"/>
<text text-anchor="middle" x="2243" y="-463.5" font-family="FreeSans" font-size="10.00" fill="#000000">G4GeomTypes.hh</text>
</a>
</g>
</g>
<!-- Node37&#45;&gt;Node38 -->
<g id="edge96" class="edge">
<title>Node37&#45;&gt;Node38</title>
<path fill="none" stroke="#191970" d="M2142.5303,-513.4408C2161.8368,-504.4205 2190.3875,-491.0813 2212.1243,-480.9255"/>
<polygon fill="#191970" stroke="#191970" points="2213.6961,-484.0544 2221.2745,-476.6504 2210.7331,-477.7124 2213.6961,-484.0544"/>
</g>
<!-- Node39 -->
<g id="node39" class="node">
<title>Node39</title>
<g id="a_node39"><a xlink:href="../../d8/df5/G4CSGSolid_8hh.html" target="_top" xlink:title="G4CSGSolid.hh">
<polygon fill="none" stroke="#ff0000" points="1871,-456.5 1871,-476.5 1963,-476.5 1963,-456.5 1871,-456.5"/>
<text text-anchor="middle" x="1917" y="-463.5" font-family="FreeSans" font-size="10.00" fill="#000000">G4CSGSolid.hh</text>
</a>
</g>
</g>
<!-- Node37&#45;&gt;Node39 -->
<g id="edge97" class="edge">
<title>Node37&#45;&gt;Node39</title>
<path fill="none" stroke="#191970" d="M2088.2239,-514.342C2054.312,-504.8666 2001.071,-489.9904 1962.9626,-479.3425"/>
<polygon fill="#191970" stroke="#191970" points="1963.7064,-475.9163 1953.1334,-476.5961 1961.8226,-482.6581 1963.7064,-475.9163"/>
</g>
<!-- Node40 -->
<g id="node40" class="node">
<title>Node40</title>
<g id="a_node40"><a xlink:href="../../d7/dab/G4Polyhedron_8hh.html" target="_top" xlink:title="G4Polyhedron.hh">
<polygon fill="none" stroke="#ff0000" points="2069.5,-456.5 2069.5,-476.5 2172.5,-476.5 2172.5,-456.5 2069.5,-456.5"/>
<text text-anchor="middle" x="2121" y="-463.5" font-family="FreeSans" font-size="10.00" fill="#000000">G4Polyhedron.hh</text>
</a>
</g>
</g>
<!-- Node37&#45;&gt;Node40 -->
<g id="edge98" class="edge">
<title>Node37&#45;&gt;Node40</title>
<path fill="none" stroke="#191970" d="M2121,-513.3095C2121,-505.9335 2121,-495.72 2121,-486.715"/>
<polygon fill="#191970" stroke="#191970" points="2124.5001,-486.6022 2121,-476.6022 2117.5001,-486.6023 2124.5001,-486.6022"/>
</g>
<!-- Node41 -->
<g id="node41" class="node">
<title>Node41</title>
<polygon fill="none" stroke="#bfbfbf" points="2314,-456.5 2314,-476.5 2380,-476.5 2380,-456.5 2314,-456.5"/>
<text text-anchor="middle" x="2347" y="-463.5" font-family="FreeSans" font-size="10.00" fill="#000000">G4Box.icc</text>
</g>
<!-- Node37&#45;&gt;Node41 -->
<g id="edge100" class="edge">
<title>Node37&#45;&gt;Node41</title>
<path fill="none" stroke="#191970" d="M2153.8623,-515.2117C2193.5004,-505.2145 2260.2426,-488.3813 2303.9572,-477.3559"/>
<polygon fill="#191970" stroke="#191970" points="2304.8894,-480.7305 2313.7298,-474.8912 2303.1775,-473.9431 2304.8894,-480.7305"/>
</g>
<!-- Node40&#45;&gt;Node5 -->
<g id="edge99" class="edge">
<title>Node40&#45;&gt;Node5</title>
<path fill="none" stroke="#191970" d="M2072.7458,-456.4487C2031.0722,-447.5551 1969.3327,-433.8691 1916,-420 1742.0518,-374.765 1691.6515,-380.3127 1528,-306 1512.171,-298.8122 1511.355,-290.8937 1495,-285 1435.9466,-263.7195 1254.0644,-247.9978 1169.314,-241.6236"/>
<polygon fill="#191970" stroke="#191970" points="1169.464,-238.1252 1159.2322,-240.8751 1168.9456,-245.106 1169.464,-238.1252"/>
</g>
<!-- Node42&#45;&gt;Node21 -->
<g id="edge103" class="edge">
<title>Node42&#45;&gt;Node21</title>
<path fill="none" stroke="#191970" d="M1787.1789,-522.5911C1683.784,-519.6011 1390.3915,-508.3994 1362,-477 1349.829,-463.5396 1358.2736,-442.869 1367.4524,-427.9485"/>
<polygon fill="#191970" stroke="#191970" points="1370.4401,-429.7769 1373.0846,-419.5174 1364.6194,-425.8884 1370.4401,-429.7769"/>
</g>
<!-- Node42&#45;&gt;Node38 -->
<g id="edge102" class="edge">
<title>Node42&#45;&gt;Node38</title>
<path fill="none" stroke="#191970" d="M1858.7372,-519.3711C1921.6611,-511.9927 2056.5654,-495.6907 2180.4141,-477.1957"/>
<polygon fill="#191970" stroke="#191970" points="2181.0808,-480.635 2190.45,-475.6885 2180.0411,-473.7126 2181.0808,-480.635"/>
</g>
<!-- Node42&#45;&gt;Node39 -->
<g id="edge104" class="edge">
<title>Node42&#45;&gt;Node39</title>
<path fill="none" stroke="#191970" d="M1839.8053,-513.3095C1854.2417,-504.5556 1875.2691,-491.8049 1891.7335,-481.8211"/>
<polygon fill="#191970" stroke="#191970" points="1893.6042,-484.7801 1900.3402,-476.6022 1889.9746,-478.7945 1893.6042,-484.7801"/>
</g>
<!-- Node42&#45;&gt;Node40 -->
<g id="edge105" class="edge">
<title>Node42&#45;&gt;Node40</title>
<path fill="none" stroke="#191970" d="M1858.6498,-516.6811C1908.26,-507.1919 1998.8409,-489.866 2059.4842,-478.2664"/>
<polygon fill="#191970" stroke="#191970" points="2060.1573,-481.7012 2069.3217,-476.3848 2058.8422,-474.8259 2060.1573,-481.7012"/>
</g>
<!-- Node43 -->
<g id="node43" class="node">
<title>Node43</title>
<polygon fill="none" stroke="#bfbfbf" points="1781,-456.5 1781,-476.5 1853,-476.5 1853,-456.5 1781,-456.5"/>
<text text-anchor="middle" x="1817" y="-463.5" font-family="FreeSans" font-size="10.00" fill="#000000">G4Cons.icc</text>
</g>
<!-- Node42&#45;&gt;Node43 -->
<g id="edge106" class="edge">
<title>Node42&#45;&gt;Node43</title>
<path fill="none" stroke="#191970" d="M1821.9273,-513.3095C1821.1509,-505.9335 1820.0758,-495.72 1819.1279,-486.715"/>
<polygon fill="#191970" stroke="#191970" points="1822.5911,-486.1809 1818.0634,-476.6022 1815.6296,-486.9137 1822.5911,-486.1809"/>
</g>
<!-- Node44&#45;&gt;Node21 -->
<g id="edge109" class="edge">
<title>Node44&#45;&gt;Node21</title>
<path fill="none" stroke="#191970" d="M1931.1016,-519.4986C1912.401,-517.4206 1888.9589,-514.9216 1868,-513 1815.6229,-508.1978 1435.7456,-511.4486 1396,-477 1382.7145,-465.4851 1379.7207,-445.0539 1379.5911,-429.6766"/>
<polygon fill="#191970" stroke="#191970" points="1383.0927,-429.6739 1379.8969,-419.5726 1376.0959,-429.4621 1383.0927,-429.6739"/>
</g>
<!-- Node44&#45;&gt;Node38 -->
<g id="edge108" class="edge">
<title>Node44&#45;&gt;Node38</title>
<path fill="none" stroke="#191970" d="M2000.5222,-516.3962C2046.3966,-506.9563 2128.1363,-490.1362 2183.9172,-478.6578"/>
<polygon fill="#191970" stroke="#191970" points="2184.9268,-482.0235 2194.0162,-476.5797 2183.5159,-475.1671 2184.9268,-482.0235"/>
</g>
<!-- Node44&#45;&gt;Node39 -->
<g id="edge110" class="edge">
<title>Node44&#45;&gt;Node39</title>
<path fill="none" stroke="#191970" d="M1957.2398,-513.3095C1950.3415,-505.2851 1940.5563,-493.9022 1932.3626,-484.3708"/>
<polygon fill="#191970" stroke="#191970" points="1934.8574,-481.9038 1925.6844,-476.6022 1929.5492,-486.467 1934.8574,-481.9038"/>
</g>
<!-- Node44&#45;&gt;Node40 -->
<g id="edge111" class="edge">
<title>Node44&#45;&gt;Node40</title>
<path fill="none" stroke="#191970" d="M1993.3541,-513.4408C2018.6205,-504.1492 2056.3487,-490.275 2084.2403,-480.0181"/>
<polygon fill="#191970" stroke="#191970" points="2085.4816,-483.2908 2093.6591,-476.5544 2083.0656,-476.721 2085.4816,-483.2908"/>
</g>
<!-- Node45 -->
<g id="node45" class="node">
<title>Node45</title>
<polygon fill="none" stroke="#bfbfbf" points="1981,-456.5 1981,-476.5 2051,-476.5 2051,-456.5 1981,-456.5"/>
<text text-anchor="middle" x="2016" y="-463.5" font-family="FreeSans" font-size="10.00" fill="#000000">G4Tubs.icc</text>
</g>
<!-- Node44&#45;&gt;Node45 -->
<g id="edge112" class="edge">
<title>Node44&#45;&gt;Node45</title>
<path fill="none" stroke="#191970" d="M1974.939,-513.3095C1981.978,-505.2851 1991.9629,-493.9022 2000.3238,-484.3708"/>
<polygon fill="#191970" stroke="#191970" points="2003.1751,-486.4279 2007.1384,-476.6022 1997.9128,-481.8118 2003.1751,-486.4279"/>
</g>
<!-- Node46&#45;&gt;Node17 -->
<g id="edge116" class="edge">
<title>Node46&#45;&gt;Node17</title>
<path fill="none" stroke="#191970" d="M646.7492,-513.3153C643.3724,-485.8178 634.0215,-409.6748 629.5052,-372.8993"/>
<polygon fill="#191970" stroke="#191970" points="632.9637,-372.3464 628.2708,-362.8476 626.0159,-373.1996 632.9637,-372.3464"/>
</g>
<!-- Node47&#45;&gt;Node16 -->
<g id="edge119" class="edge">
<title>Node47&#45;&gt;Node16</title>
<path fill="none" stroke="#191970" d="M564.3768,-399.0856C555.4499,-385.5161 542.9626,-361.2511 552,-342 557.9323,-329.3632 569.1725,-318.9738 580.035,-311.2452"/>
<polygon fill="#191970" stroke="#191970" points="582.1355,-314.0526 588.5569,-305.6254 578.2818,-308.2088 582.1355,-314.0526"/>
</g>
<!-- Node47&#45;&gt;Node17 -->
<g id="edge118" class="edge">
<title>Node47&#45;&gt;Node17</title>
<path fill="none" stroke="#191970" d="M581.8329,-399.3095C589.654,-391.204 600.7815,-379.672 610.0344,-370.0826"/>
<polygon fill="#191970" stroke="#191970" points="612.8272,-372.2288 617.2522,-362.6022 607.7898,-367.3681 612.8272,-372.2288"/>
</g>
<!-- Node48&#45;&gt;Node4 -->
<g id="edge122" class="edge">
<title>Node48&#45;&gt;Node4</title>
<path fill="none" stroke="#191970" d="M1481.6491,-285.4408C1535.5267,-274.0666 1621.9339,-255.8251 1669.6175,-245.7585"/>
<polygon fill="#191970" stroke="#191970" points="1670.3989,-249.1708 1679.4603,-243.6806 1668.953,-242.3217 1670.3989,-249.1708"/>
</g>
<!-- Node48&#45;&gt;Node5 -->
<g id="edge121" class="edge">
<title>Node48&#45;&gt;Node5</title>
<path fill="none" stroke="#191970" d="M1381.9318,-285.8952C1322.1835,-274.8737 1225.2378,-256.9905 1169.0735,-246.6301"/>
<polygon fill="#191970" stroke="#191970" points="1169.5481,-243.1586 1159.0791,-244.7864 1168.2782,-250.0425 1169.5481,-243.1586"/>
</g>
<!-- Node49&#45;&gt;Node4 -->
<g id="edge125" class="edge">
<title>Node49&#45;&gt;Node4</title>
<path fill="none" stroke="#191970" d="M329.5385,-403.1976C344.8965,-401.6294 361.5801,-400.0876 377,-399 783.8588,-370.3038 891.197,-427.0881 1294,-363 1369.0084,-351.0658 1585.2182,-278.9571 1669.6457,-250.2638"/>
<polygon fill="#191970" stroke="#191970" points="1670.9319,-253.5233 1679.2701,-246.9868 1668.6757,-246.8968 1670.9319,-253.5233"/>
</g>
<!-- Node49&#45;&gt;Node5 -->
<g id="edge124" class="edge">
<title>Node49&#45;&gt;Node5</title>
<path fill="none" stroke="#191970" d="M281.8407,-399.365C293.6343,-384.7577 317.3104,-357.8093 343,-342 345.0873,-340.7155 507.5991,-285.4922 510,-285 619.3131,-262.5915 958.2873,-245.8483 1080.5011,-240.3992"/>
<polygon fill="#191970" stroke="#191970" points="1080.788,-243.89 1090.6236,-239.9517 1080.4788,-236.8968 1080.788,-243.89"/>
</g>
<!-- Node49&#45;&gt;Node13 -->
<g id="edge126" class="edge">
<title>Node49&#45;&gt;Node13</title>
<path fill="none" stroke="#191970" d="M248.6123,-399.4737C214.3924,-384.5543 154.2761,-353.1119 124,-306 91.4903,-255.4123 102.9235,-229.9081 115,-171 116.8825,-161.8174 120.3928,-152.0837 123.8171,-143.9078"/>
<polygon fill="#191970" stroke="#191970" points="127.1159,-145.1033 127.9796,-134.5437 120.7193,-142.2599 127.1159,-145.1033"/>
</g>
<!-- Node49&#45;&gt;Node22 -->
<g id="edge131" class="edge">
<title>Node49&#45;&gt;Node22</title>
<path fill="none" stroke="#191970" d="M329.5432,-403.8262C425.1679,-394.0581 621.8612,-373.9658 738.7765,-362.0228"/>
<polygon fill="#191970" stroke="#191970" points="739.1989,-365.498 748.7915,-360.9998 738.4875,-358.5342 739.1989,-365.498"/>
</g>
<!-- Node49&#45;&gt;Node50 -->
<g id="edge127" class="edge">
<title>Node49&#45;&gt;Node50</title>
<path fill="none" stroke="#191970" d="M270.0668,-399.3095C267.1574,-391.7714 263.1041,-381.2696 259.5738,-372.123"/>
<polygon fill="#191970" stroke="#191970" points="262.7652,-370.6712 255.8991,-362.6022 256.2347,-373.1918 262.7652,-370.6712"/>
</g>
<!-- Node50&#45;&gt;Node5 -->
<g id="edge128" class="edge">
<title>Node50&#45;&gt;Node5</title>
<path fill="none" stroke="#191970" d="M277.9322,-342.4343C318.59,-327.1377 400.1277,-298.4052 472,-285 589.3672,-263.1094 953.8972,-245.8307 1080.8591,-240.3378"/>
<polygon fill="#191970" stroke="#191970" points="1081.1521,-243.8285 1090.9927,-239.9026 1080.8518,-236.835 1081.1521,-243.8285"/>
</g>
<!-- Node50&#45;&gt;Node13 -->
<g id="edge130" class="edge">
<title>Node50&#45;&gt;Node13</title>
<path fill="none" stroke="#191970" d="M212.9267,-347.5474C187.0668,-342.0381 154.9112,-330.4285 138,-306 103.8536,-256.6751 117.7134,-180.3802 127.0741,-144.4745"/>
<polygon fill="#191970" stroke="#191970" points="130.4844,-145.2738 129.7766,-134.7026 123.7377,-143.4078 130.4844,-145.2738"/>
</g>
<!-- Node50&#45;&gt;Node18 -->
<g id="edge129" class="edge">
<title>Node50&#45;&gt;Node18</title>
<path fill="none" stroke="#191970" d="M291.1597,-348.2157C380.5688,-338.4339 600.3963,-314.3837 709.4818,-302.4492"/>
<polygon fill="#191970" stroke="#191970" points="710.1247,-305.8998 719.6847,-301.333 709.3633,-298.9414 710.1247,-305.8998"/>
</g>
</g>
</svg>
