<?xml version="1.0" encoding="UTF-8" standalone="no"?>
<!DOCTYPE svg PUBLIC "-//W3C//DTD SVG 1.1//EN"
 "http://www.w3.org/Graphics/SVG/1.1/DTD/svg11.dtd">
<!-- Generated by graphviz version 2.40.1 (20161225.0304)
 -->
<!-- Title: xDataTOM_W_XYs_freeFrom_xDataInfo Pages: 1 -->
<svg width="2029pt" height="158pt"
 viewBox="0.00 0.00 2029.00 158.00" xmlns="http://www.w3.org/2000/svg" xmlns:xlink="http://www.w3.org/1999/xlink">
<g id="graph0" class="graph" transform="scale(1 1) rotate(0) translate(4 154)">
<title>xDataTOM_W_XYs_freeFrom_xDataInfo</title>
<!-- Node1 -->
<g id="node1" class="node">
<title>Node1</title>
<polygon fill="#bfbfbf" stroke="#000000" points="0,-84.5 0,-116.5 157,-116.5 157,-84.5 0,-84.5"/>
<text text-anchor="start" x="8" y="-103.5" font-family="FreeSans" font-size="10.00" fill="#000000">xDataTOM_W_XYs_freeFrom</text>
<text text-anchor="middle" x="78.5" y="-91.5" font-family="FreeSans" font-size="10.00" fill="#000000">_xDataInfo</text>
</g>
<!-- Node2 -->
<g id="node2" class="node">
<title>Node2</title>
<g id="a_node2"><a xlink:href="../../de/d7d/xDataTOM_8cc.html#abcd8a9cff099374e87f4f44e5185f774" target="_top" xlink:title="xDataTOM_releaseElement">
<polygon fill="none" stroke="#000000" points="193,-90.5 193,-110.5 346,-110.5 346,-90.5 193,-90.5"/>
<text text-anchor="middle" x="269.5" y="-97.5" font-family="FreeSans" font-size="10.00" fill="#000000">xDataTOM_releaseElement</text>
</a>
</g>
</g>
<!-- Node1&#45;&gt;Node2 -->
<g id="edge1" class="edge">
<title>Node1&#45;&gt;Node2</title>
<path fill="none" stroke="#191970" d="M167.066,-100.5C175.6728,-100.5 184.3551,-100.5 192.8314,-100.5"/>
<polygon fill="#191970" stroke="#191970" points="167.0139,-97.0001 157.0139,-100.5 167.0138,-104.0001 167.0139,-97.0001"/>
</g>
<!-- Node3 -->
<g id="node3" class="node">
<title>Node3</title>
<g id="a_node3"><a xlink:href="../../de/d7d/xDataTOM_8cc.html#aa38bae2a57d2c1bab5098f7c04e3c3e3" target="_top" xlink:title="xDataTOM_freeElement">
<polygon fill="none" stroke="#000000" points="382,-90.5 382,-110.5 518,-110.5 518,-90.5 382,-90.5"/>
<text text-anchor="middle" x="450" y="-97.5" font-family="FreeSans" font-size="10.00" fill="#000000">xDataTOM_freeElement</text>
</a>
</g>
</g>
<!-- Node2&#45;&gt;Node3 -->
<g id="edge2" class="edge">
<title>Node2&#45;&gt;Node3</title>
<path fill="none" stroke="#191970" d="M356.1594,-93.7548C364.8061,-93.7319 373.4968,-93.7917 381.9134,-93.9343"/>
<polygon fill="#191970" stroke="#191970" points="356.0256,-90.2554 346.0483,-93.8196 356.0705,-97.2553 356.0256,-90.2554"/>
</g>
<!-- Node4 -->
<g id="node4" class="node">
<title>Node4</title>
<g id="a_node4"><a xlink:href="../../de/d7d/xDataTOM_8cc.html#a01877cf09fbb44b372980d7f78ac84e9" target="_top" xlink:title="xDataTOM_freeTOM">
<polygon fill="none" stroke="#000000" points="392,-51.5 392,-71.5 508,-71.5 508,-51.5 392,-51.5"/>
<text text-anchor="middle" x="450" y="-58.5" font-family="FreeSans" font-size="10.00" fill="#000000">xDataTOM_freeTOM</text>
</a>
</g>
</g>
<!-- Node2&#45;&gt;Node4 -->
<g id="edge4" class="edge">
<title>Node2&#45;&gt;Node4</title>
<path fill="none" stroke="#191970" d="M326.0512,-88.2812C351.022,-82.8858 380.0119,-76.6221 403.6743,-71.5094"/>
<polygon fill="#191970" stroke="#191970" points="325.0185,-84.9235 315.9832,-90.4565 326.4969,-91.7656 325.0185,-84.9235"/>
</g>
<!-- Node3&#45;&gt;Node2 -->
<g id="edge3" class="edge">
<title>Node3&#45;&gt;Node2</title>
<path fill="none" stroke="#191970" d="M371.6463,-107.1976C363.154,-107.2728 354.5187,-107.2671 346.0483,-107.1804"/>
<polygon fill="#191970" stroke="#191970" points="371.9592,-110.694 381.9134,-107.0657 371.8693,-103.6945 371.9592,-110.694"/>
</g>
<!-- Node5 -->
<g id="node5" class="node">
<title>Node5</title>
<g id="a_node5"><a xlink:href="../../df/da0/MCGIDI__target__heated_8cc.html#affe7058a90aef52f8e693d6ba5db8aa5" target="_top" xlink:title="MCGIDI_target_heated_read">
<polygon fill="none" stroke="#000000" points="872,-51.5 872,-71.5 1029,-71.5 1029,-51.5 872,-51.5"/>
<text text-anchor="middle" x="950.5" y="-58.5" font-family="FreeSans" font-size="10.00" fill="#000000">MCGIDI_target_heated_read</text>
</a>
</g>
</g>
<!-- Node4&#45;&gt;Node5 -->
<g id="edge5" class="edge">
<title>Node4&#45;&gt;Node5</title>
<path fill="none" stroke="#191970" d="M518.3563,-62.2509C530.2395,-62.3547 542.4786,-62.4446 554,-62.5 679.3319,-63.1025 710.6679,-63.0473 836,-62.5 847.6292,-62.4492 859.9227,-62.3694 871.9695,-62.2765"/>
<polygon fill="#191970" stroke="#191970" points="518.0636,-58.7482 508.032,-62.1567 517.9996,-65.7479 518.0636,-58.7482"/>
</g>
<!-- Node17 -->
<g id="node17" class="node">
<title>Node17</title>
<g id="a_node17"><a xlink:href="../../d0/d11/xDataTOM__importXML_8cc.html#a37c62d5d9f5a43969e9f9e2595763615" target="_top" xlink:title="xDataXML_importFile">
<polygon fill="none" stroke="#000000" points="554,-32.5 554,-52.5 676,-52.5 676,-32.5 554,-32.5"/>
<text text-anchor="middle" x="615" y="-39.5" font-family="FreeSans" font-size="10.00" fill="#000000">xDataXML_importFile</text>
</a>
</g>
</g>
<!-- Node4&#45;&gt;Node17 -->
<g id="edge17" class="edge">
<title>Node4&#45;&gt;Node17</title>
<path fill="none" stroke="#191970" d="M518.4154,-53.6219C530.2155,-52.2631 542.4117,-50.8587 553.9996,-49.5243"/>
<polygon fill="#191970" stroke="#191970" points="517.7068,-50.1802 508.1728,-54.8013 518.5076,-57.1343 517.7068,-50.1802"/>
</g>
<!-- Node6 -->
<g id="node6" class="node">
<title>Node6</title>
<g id="a_node6"><a xlink:href="../../df/da0/MCGIDI__target__heated_8cc.html#a49ca2312307b553d1f6c92c329e924a1" target="_top" xlink:title="MCGIDI_target_heated\l_newRead">
<polygon fill="none" stroke="#000000" points="1065,-45.5 1065,-77.5 1194,-77.5 1194,-45.5 1065,-45.5"/>
<text text-anchor="start" x="1073" y="-64.5" font-family="FreeSans" font-size="10.00" fill="#000000">MCGIDI_target_heated</text>
<text text-anchor="middle" x="1129.5" y="-52.5" font-family="FreeSans" font-size="10.00" fill="#000000">_newRead</text>
</a>
</g>
</g>
<!-- Node5&#45;&gt;Node6 -->
<g id="edge6" class="edge">
<title>Node5&#45;&gt;Node6</title>
<path fill="none" stroke="#191970" d="M1039.1213,-61.5C1047.7536,-61.5 1056.3968,-61.5 1064.7296,-61.5"/>
<polygon fill="#191970" stroke="#191970" points="1039.012,-58.0001 1029.012,-61.5 1039.012,-65.0001 1039.012,-58.0001"/>
</g>
<!-- Node7 -->
<g id="node7" class="node">
<title>Node7</title>
<g id="a_node7"><a xlink:href="../../d0/d24/MCGIDI__target_8cc.html#a208fecc858d8265d3777be7d110f84c5" target="_top" xlink:title="MCGIDI_target_readHeated\lTarget">
<polygon fill="none" stroke="#000000" points="1230,-45.5 1230,-77.5 1383,-77.5 1383,-45.5 1230,-45.5"/>
<text text-anchor="start" x="1238" y="-64.5" font-family="FreeSans" font-size="10.00" fill="#000000">MCGIDI_target_readHeated</text>
<text text-anchor="middle" x="1306.5" y="-52.5" font-family="FreeSans" font-size="10.00" fill="#000000">Target</text>
</a>
</g>
</g>
<!-- Node6&#45;&gt;Node7 -->
<g id="edge7" class="edge">
<title>Node6&#45;&gt;Node7</title>
<path fill="none" stroke="#191970" d="M1204.298,-61.5C1212.7015,-61.5 1221.274,-61.5 1229.7023,-61.5"/>
<polygon fill="#191970" stroke="#191970" points="1204.1524,-58.0001 1194.1524,-61.5 1204.1524,-65.0001 1204.1524,-58.0001"/>
</g>
<!-- Node8 -->
<g id="node8" class="node">
<title>Node8</title>
<g id="a_node8"><a xlink:href="../../d0/d24/MCGIDI__target_8cc.html#ad84900f08012646e62d5fb6b529c6bf0" target="_top" xlink:title="MCGIDI_target_getHeatedTarget\lAtIndex_ReadIfNeeded">
<polygon fill="none" stroke="#000000" points="1420,-90.5 1420,-122.5 1599,-122.5 1599,-90.5 1420,-90.5"/>
<text text-anchor="start" x="1428" y="-109.5" font-family="FreeSans" font-size="10.00" fill="#000000">MCGIDI_target_getHeatedTarget</text>
<text text-anchor="middle" x="1509.5" y="-97.5" font-family="FreeSans" font-size="10.00" fill="#000000">AtIndex_ReadIfNeeded</text>
</a>
</g>
</g>
<!-- Node7&#45;&gt;Node8 -->
<g id="edge8" class="edge">
<title>Node7&#45;&gt;Node8</title>
<path fill="none" stroke="#191970" d="M1388.7893,-79.7415C1404.7884,-83.2881 1421.4484,-86.9812 1437.1,-90.4507"/>
<polygon fill="#191970" stroke="#191970" points="1389.4484,-76.3027 1378.9279,-77.5555 1387.9334,-83.1368 1389.4484,-76.3027"/>
</g>
<!-- Node9 -->
<g id="node9" class="node">
<title>Node9</title>
<g id="a_node9"><a xlink:href="../../d0/d24/MCGIDI__target_8cc.html#aceade9a3c57ad1b495684ce80626d3d1" target="_top" xlink:title="MCGIDI_target_read">
<polygon fill="none" stroke="#000000" points="1451.5,-51.5 1451.5,-71.5 1567.5,-71.5 1567.5,-51.5 1451.5,-51.5"/>
<text text-anchor="middle" x="1509.5" y="-58.5" font-family="FreeSans" font-size="10.00" fill="#000000">MCGIDI_target_read</text>
</a>
</g>
</g>
<!-- Node7&#45;&gt;Node9 -->
<g id="edge9" class="edge">
<title>Node7&#45;&gt;Node9</title>
<path fill="none" stroke="#191970" d="M1393.3944,-61.5C1412.961,-61.5 1433.2671,-61.5 1451.322,-61.5"/>
<polygon fill="#191970" stroke="#191970" points="1393.2456,-58.0001 1383.2456,-61.5 1393.2456,-65.0001 1393.2456,-58.0001"/>
</g>
<!-- Node16 -->
<g id="node16" class="node">
<title>Node16</title>
<g id="a_node16"><a xlink:href="../../d6/d19/classG4GIDI__target.html#a39033a3f6c4c47077398a69a08d3fc16" target="_top" xlink:title="G4GIDI_target::readTemperature">
<polygon fill="none" stroke="#000000" points="1419,-12.5 1419,-32.5 1600,-32.5 1600,-12.5 1419,-12.5"/>
<text text-anchor="middle" x="1509.5" y="-19.5" font-family="FreeSans" font-size="10.00" fill="#000000">G4GIDI_target::readTemperature</text>
</a>
</g>
</g>
<!-- Node7&#45;&gt;Node16 -->
<g id="edge16" class="edge">
<title>Node7&#45;&gt;Node16</title>
<path fill="none" stroke="#191970" d="M1393.1828,-44.8467C1414.9859,-40.6579 1437.7212,-36.29 1457.2472,-32.5387"/>
<polygon fill="#191970" stroke="#191970" points="1392.4056,-41.4319 1383.2456,-46.7558 1393.7264,-48.3062 1392.4056,-41.4319"/>
</g>
<!-- Node10 -->
<g id="node10" class="node">
<title>Node10</title>
<g id="a_node10"><a xlink:href="../../d0/d24/MCGIDI__target_8cc.html#aaafb33a4730d63f1a901e27b04186c45" target="_top" xlink:title="MCGIDI_target_newRead">
<polygon fill="none" stroke="#000000" points="1647.5,-90.5 1647.5,-110.5 1787.5,-110.5 1787.5,-90.5 1647.5,-90.5"/>
<text text-anchor="middle" x="1717.5" y="-97.5" font-family="FreeSans" font-size="10.00" fill="#000000">MCGIDI_target_newRead</text>
</a>
</g>
</g>
<!-- Node9&#45;&gt;Node10 -->
<g id="edge10" class="edge">
<title>Node9&#45;&gt;Node10</title>
<path fill="none" stroke="#191970" d="M1573.1368,-73.4319C1602.2526,-78.8911 1636.3642,-85.287 1664.1164,-90.4906"/>
<polygon fill="#191970" stroke="#191970" points="1573.5389,-69.9464 1563.0652,-71.5435 1572.2489,-76.8265 1573.5389,-69.9464"/>
</g>
<!-- Node14 -->
<g id="node14" class="node">
<title>Node14</title>
<g id="a_node14"><a xlink:href="../../d0/d24/MCGIDI__target_8cc.html#a4560dca48e241a7fb5e51e49e283c8a8" target="_top" xlink:title="MCGIDI_target_readFromMap">
<polygon fill="none" stroke="#000000" points="1636,-51.5 1636,-71.5 1799,-71.5 1799,-51.5 1636,-51.5"/>
<text text-anchor="middle" x="1717.5" y="-58.5" font-family="FreeSans" font-size="10.00" fill="#000000">MCGIDI_target_readFromMap</text>
</a>
</g>
</g>
<!-- Node9&#45;&gt;Node14 -->
<g id="edge14" class="edge">
<title>Node9&#45;&gt;Node14</title>
<path fill="none" stroke="#191970" d="M1577.8447,-61.5C1596.4281,-61.5 1616.7395,-61.5 1635.9738,-61.5"/>
<polygon fill="#191970" stroke="#191970" points="1577.7162,-58.0001 1567.7162,-61.5 1577.7161,-65.0001 1577.7162,-58.0001"/>
</g>
<!-- Node15 -->
<g id="node15" class="node">
<title>Node15</title>
<g id="a_node15"><a xlink:href="../../d0/d24/MCGIDI__target_8cc.html#aa4199e5c62d5cadb67be229a06a9e34c" target="_top" xlink:title="MCGIDI_target_readFromMap\lViaPoPIDs">
<polygon fill="none" stroke="#000000" points="1636,-.5 1636,-32.5 1799,-32.5 1799,-.5 1636,-.5"/>
<text text-anchor="start" x="1644" y="-19.5" font-family="FreeSans" font-size="10.00" fill="#000000">MCGIDI_target_readFromMap</text>
<text text-anchor="middle" x="1717.5" y="-7.5" font-family="FreeSans" font-size="10.00" fill="#000000">ViaPoPIDs</text>
</a>
</g>
</g>
<!-- Node9&#45;&gt;Node15 -->
<g id="edge15" class="edge">
<title>Node9&#45;&gt;Node15</title>
<path fill="none" stroke="#191970" d="M1567.9732,-49.3207C1578.6333,-47.0728 1589.6532,-44.7308 1600,-42.5 1614.807,-39.3076 1630.6512,-35.838 1645.7575,-32.5044"/>
<polygon fill="#191970" stroke="#191970" points="1566.9621,-45.9567 1557.8968,-51.4404 1568.4031,-52.8068 1566.9621,-45.9567"/>
</g>
<!-- Node11 -->
<g id="node11" class="node">
<title>Node11</title>
<g id="a_node11"><a xlink:href="../../d6/d19/classG4GIDI__target.html#ad9abda532ded0d6729329d77b63e8016" target="_top" xlink:title="G4GIDI_target::init">
<polygon fill="none" stroke="#000000" points="1872.5,-129.5 1872.5,-149.5 1983.5,-149.5 1983.5,-129.5 1872.5,-129.5"/>
<text text-anchor="middle" x="1928" y="-136.5" font-family="FreeSans" font-size="10.00" fill="#000000">G4GIDI_target::init</text>
</a>
</g>
</g>
<!-- Node10&#45;&gt;Node11 -->
<g id="edge11" class="edge">
<title>Node10&#45;&gt;Node11</title>
<path fill="none" stroke="#191970" d="M1781.9017,-112.4319C1811.3674,-117.8911 1845.889,-124.287 1873.9747,-129.4906"/>
<polygon fill="#191970" stroke="#191970" points="1782.1793,-108.9238 1771.709,-110.5435 1780.904,-115.8067 1782.1793,-108.9238"/>
</g>
<!-- Node12 -->
<g id="node12" class="node">
<title>Node12</title>
<g id="a_node12"><a xlink:href="../../d0/d24/MCGIDI__target_8cc.html#a829194d1b0216594e41504b4a5071648" target="_top" xlink:title="MCGIDI_target_newReadFromMap">
<polygon fill="none" stroke="#000000" points="1835,-90.5 1835,-110.5 2021,-110.5 2021,-90.5 1835,-90.5"/>
<text text-anchor="middle" x="1928" y="-97.5" font-family="FreeSans" font-size="10.00" fill="#000000">MCGIDI_target_newReadFromMap</text>
</a>
</g>
</g>
<!-- Node10&#45;&gt;Node12 -->
<g id="edge12" class="edge">
<title>Node10&#45;&gt;Node12</title>
<path fill="none" stroke="#191970" d="M1797.7042,-100.5C1809.8924,-100.5 1822.5564,-100.5 1834.9895,-100.5"/>
<polygon fill="#191970" stroke="#191970" points="1797.5935,-97.0001 1787.5935,-100.5 1797.5934,-104.0001 1797.5935,-97.0001"/>
</g>
<!-- Node13 -->
<g id="node13" class="node">
<title>Node13</title>
<g id="a_node13"><a xlink:href="../../d0/d24/MCGIDI__target_8cc.html#a4a5295fc164f2a595e31633df6421077" target="_top" xlink:title="MCGIDI_target_newReadFrom\lMapViaPoPIDs">
<polygon fill="none" stroke="#000000" points="1845.5,-39.5 1845.5,-71.5 2010.5,-71.5 2010.5,-39.5 1845.5,-39.5"/>
<text text-anchor="start" x="1853.5" y="-58.5" font-family="FreeSans" font-size="10.00" fill="#000000">MCGIDI_target_newReadFrom</text>
<text text-anchor="middle" x="1928" y="-46.5" font-family="FreeSans" font-size="10.00" fill="#000000">MapViaPoPIDs</text>
</a>
</g>
</g>
<!-- Node10&#45;&gt;Node13 -->
<g id="edge13" class="edge">
<title>Node10&#45;&gt;Node13</title>
<path fill="none" stroke="#191970" d="M1774.5533,-88.3033C1798.7272,-83.1355 1827.2276,-77.0428 1853.0637,-71.5196"/>
<polygon fill="#191970" stroke="#191970" points="1773.5256,-84.9439 1764.4783,-90.4571 1774.9891,-91.7892 1773.5256,-84.9439"/>
</g>
<!-- Node18 -->
<g id="node18" class="node">
<title>Node18</title>
<g id="a_node18"><a xlink:href="../../de/d7d/xDataTOM_8cc.html#a83e1ba863e749ea27dd961cbbe5c6c9a" target="_top" xlink:title="xDataTOM_importFile">
<polygon fill="none" stroke="#000000" points="712,-32.5 712,-52.5 836,-52.5 836,-32.5 712,-32.5"/>
<text text-anchor="middle" x="774" y="-39.5" font-family="FreeSans" font-size="10.00" fill="#000000">xDataTOM_importFile</text>
</a>
</g>
</g>
<!-- Node17&#45;&gt;Node18 -->
<g id="edge18" class="edge">
<title>Node17&#45;&gt;Node18</title>
<path fill="none" stroke="#191970" d="M686.0308,-42.5C694.6328,-42.5 703.3686,-42.5 711.8291,-42.5"/>
<polygon fill="#191970" stroke="#191970" points="686.0189,-39.0001 676.0188,-42.5 686.0188,-46.0001 686.0189,-39.0001"/>
</g>
<!-- Node18&#45;&gt;Node5 -->
<g id="edge19" class="edge">
<title>Node18&#45;&gt;Node5</title>
<path fill="none" stroke="#191970" d="M846.3524,-50.2886C854.7515,-51.1928 863.3492,-52.1183 871.8276,-53.031"/>
<polygon fill="#191970" stroke="#191970" points="846.5445,-46.7892 836.2273,-49.1987 845.7952,-53.749 846.5445,-46.7892"/>
</g>
</g>
</svg>
