<?xml version="1.0" encoding="UTF-8" standalone="no"?>
<!DOCTYPE svg PUBLIC "-//W3C//DTD SVG 1.1//EN"
 "http://www.w3.org/Graphics/SVG/1.1/DTD/svg11.dtd">
<!-- Generated by graphviz version 2.40.1 (20161225.0304)
 -->
<!-- Title: cheprep::XMLWriter::printTag Pages: 1 -->
<svg width="612pt" height="245pt"
 viewBox="0.00 0.00 612.00 245.00" xmlns="http://www.w3.org/2000/svg" xmlns:xlink="http://www.w3.org/1999/xlink">
<g id="graph0" class="graph" transform="scale(1 1) rotate(0) translate(4 241)">
<title>cheprep::XMLWriter::printTag</title>
<!-- Node1 -->
<g id="node1" class="node">
<title>Node1</title>
<polygon fill="#bfbfbf" stroke="#000000" points="0,-149.5 0,-181.5 115,-181.5 115,-149.5 0,-149.5"/>
<text text-anchor="start" x="8" y="-168.5" font-family="FreeSans" font-size="10.00" fill="#000000">cheprep::XMLWriter</text>
<text text-anchor="middle" x="57.5" y="-156.5" font-family="FreeSans" font-size="10.00" fill="#000000">::printTag</text>
</g>
<!-- Node2 -->
<g id="node2" class="node">
<title>Node2</title>
<g id="a_node2"><a xlink:href="../../d7/d80/classcheprep_1_1XMLWriter.html#aee7d1dc85620790d66f8b3451ca1e6d2" target="_top" xlink:title="cheprep::XMLWriter\l::printTag">
<polygon fill="none" stroke="#000000" points="151,-149.5 151,-181.5 266,-181.5 266,-149.5 151,-149.5"/>
<text text-anchor="start" x="159" y="-168.5" font-family="FreeSans" font-size="10.00" fill="#000000">cheprep::XMLWriter</text>
<text text-anchor="middle" x="208.5" y="-156.5" font-family="FreeSans" font-size="10.00" fill="#000000">::printTag</text>
</a>
</g>
</g>
<!-- Node1&#45;&gt;Node2 -->
<g id="edge1" class="edge">
<title>Node1&#45;&gt;Node2</title>
<path fill="none" stroke="#191970" d="M115.0174,-165.5C123.4639,-165.5 132.2292,-165.5 140.8561,-165.5"/>
<polygon fill="#191970" stroke="#191970" points="140.8926,-169.0001 150.8925,-165.5 140.8925,-162.0001 140.8926,-169.0001"/>
</g>
<!-- Node3 -->
<g id="node3" class="node">
<title>Node3</title>
<g id="a_node3"><a xlink:href="../../d7/d80/classcheprep_1_1XMLWriter.html#a4b07d27deefb7a062a3ca89c906b435e" target="_top" xlink:title="cheprep::XMLWriter\l::checkNameValid">
<polygon fill="none" stroke="#000000" points="471,-204.5 471,-236.5 586,-236.5 586,-204.5 471,-204.5"/>
<text text-anchor="start" x="479" y="-223.5" font-family="FreeSans" font-size="10.00" fill="#000000">cheprep::XMLWriter</text>
<text text-anchor="middle" x="528.5" y="-211.5" font-family="FreeSans" font-size="10.00" fill="#000000">::checkNameValid</text>
</a>
</g>
</g>
<!-- Node2&#45;&gt;Node3 -->
<g id="edge2" class="edge">
<title>Node2&#45;&gt;Node3</title>
<path fill="none" stroke="#191970" d="M266.0792,-175.3964C320.7385,-184.791 402.9094,-198.9141 460.7081,-208.8483"/>
<polygon fill="#191970" stroke="#191970" points="460.3958,-212.3458 470.8442,-210.5904 461.5816,-205.447 460.3958,-212.3458"/>
</g>
<!-- Node4 -->
<g id="node4" class="node">
<title>Node4</title>
<g id="a_node4"><a xlink:href="../../d7/d80/classcheprep_1_1XMLWriter.html#aca26888666fb6e281596c4dfc453acff" target="_top" xlink:title="cheprep::XMLWriter\l::printAttributes">
<polygon fill="none" stroke="#000000" points="302,-127.5 302,-159.5 417,-159.5 417,-127.5 302,-127.5"/>
<text text-anchor="start" x="310" y="-146.5" font-family="FreeSans" font-size="10.00" fill="#000000">cheprep::XMLWriter</text>
<text text-anchor="middle" x="359.5" y="-134.5" font-family="FreeSans" font-size="10.00" fill="#000000">::printAttributes</text>
</a>
</g>
</g>
<!-- Node2&#45;&gt;Node4 -->
<g id="edge3" class="edge">
<title>Node2&#45;&gt;Node4</title>
<path fill="none" stroke="#191970" d="M266.0174,-157.12C274.4639,-155.8894 283.2292,-154.6123 291.8561,-153.3554"/>
<polygon fill="#191970" stroke="#191970" points="292.5016,-156.7984 301.8925,-151.8931 291.4924,-149.8715 292.5016,-156.7984"/>
</g>
<!-- Node4&#45;&gt;Node3 -->
<g id="edge4" class="edge">
<title>Node4&#45;&gt;Node3</title>
<path fill="none" stroke="#191970" d="M385.4246,-159.6536C403.8259,-170.6836 429.3595,-185.1221 453,-195.5 457.1663,-197.3289 461.5109,-199.1012 465.9191,-200.8012"/>
<polygon fill="#191970" stroke="#191970" points="465.033,-204.2055 475.626,-204.4011 467.467,-197.6423 465.033,-204.2055"/>
</g>
<!-- Node5 -->
<g id="node5" class="node">
<title>Node5</title>
<g id="a_node5"><a xlink:href="../../d7/d94/classcheprep_1_1IndentPrintWriter.html#a282f083f69596ab5025273babfe91ff6" target="_top" xlink:title="cheprep::IndentPrintWriter\l::getIndent">
<polygon fill="none" stroke="#000000" points="453,-153.5 453,-185.5 604,-185.5 604,-153.5 453,-153.5"/>
<text text-anchor="start" x="461" y="-172.5" font-family="FreeSans" font-size="10.00" fill="#000000">cheprep::IndentPrintWriter</text>
<text text-anchor="middle" x="528.5" y="-160.5" font-family="FreeSans" font-size="10.00" fill="#000000">::getIndent</text>
</a>
</g>
</g>
<!-- Node4&#45;&gt;Node5 -->
<g id="edge5" class="edge">
<title>Node4&#45;&gt;Node5</title>
<path fill="none" stroke="#191970" d="M417.1875,-152.375C425.4349,-153.6438 434.0623,-154.9711 442.7079,-156.3012"/>
<polygon fill="#191970" stroke="#191970" points="442.4276,-159.7992 452.8435,-157.8605 443.492,-152.8806 442.4276,-159.7992"/>
</g>
<!-- Node6 -->
<g id="node6" class="node">
<title>Node6</title>
<g id="a_node6"><a xlink:href="../../d7/d94/classcheprep_1_1IndentPrintWriter.html#a1ab83e4f76e2930dd39b7622cc153db4" target="_top" xlink:title="cheprep::IndentPrintWriter\l::indent">
<polygon fill="none" stroke="#000000" points="453,-102.5 453,-134.5 604,-134.5 604,-102.5 453,-102.5"/>
<text text-anchor="start" x="461" y="-121.5" font-family="FreeSans" font-size="10.00" fill="#000000">cheprep::IndentPrintWriter</text>
<text text-anchor="middle" x="528.5" y="-109.5" font-family="FreeSans" font-size="10.00" fill="#000000">::indent</text>
</a>
</g>
</g>
<!-- Node4&#45;&gt;Node6 -->
<g id="edge6" class="edge">
<title>Node4&#45;&gt;Node6</title>
<path fill="none" stroke="#191970" d="M417.1875,-134.9663C425.4349,-133.7463 434.0623,-132.4701 442.7079,-131.1911"/>
<polygon fill="#191970" stroke="#191970" points="443.4634,-134.6176 452.8435,-129.6918 442.439,-127.6929 443.4634,-134.6176"/>
</g>
<!-- Node7 -->
<g id="node7" class="node">
<title>Node7</title>
<g id="a_node7"><a xlink:href="../../d7/d80/classcheprep_1_1XMLWriter.html#a9c3cdfb3597db34c3dac1ea2f49c355a" target="_top" xlink:title="cheprep::XMLWriter\l::normalize">
<polygon fill="none" stroke="#000000" points="471,-51.5 471,-83.5 586,-83.5 586,-51.5 471,-51.5"/>
<text text-anchor="start" x="479" y="-70.5" font-family="FreeSans" font-size="10.00" fill="#000000">cheprep::XMLWriter</text>
<text text-anchor="middle" x="528.5" y="-58.5" font-family="FreeSans" font-size="10.00" fill="#000000">::normalize</text>
</a>
</g>
</g>
<!-- Node4&#45;&gt;Node7 -->
<g id="edge7" class="edge">
<title>Node4&#45;&gt;Node7</title>
<path fill="none" stroke="#191970" d="M386.7472,-127.4393C405.0997,-116.996 430.0537,-103.5103 453,-93.5 458.0032,-91.3174 463.2535,-89.191 468.5564,-87.1554"/>
<polygon fill="#191970" stroke="#191970" points="469.966,-90.3654 478.1166,-83.5965 467.5238,-83.8052 469.966,-90.3654"/>
</g>
<!-- Node8 -->
<g id="node8" class="node">
<title>Node8</title>
<g id="a_node8"><a xlink:href="../../d7/d94/classcheprep_1_1IndentPrintWriter.html#ad4a5e41aba665edde1ff723bd320eed8" target="_top" xlink:title="cheprep::IndentPrintWriter\l::outdent">
<polygon fill="none" stroke="#000000" points="453,-.5 453,-32.5 604,-32.5 604,-.5 453,-.5"/>
<text text-anchor="start" x="461" y="-19.5" font-family="FreeSans" font-size="10.00" fill="#000000">cheprep::IndentPrintWriter</text>
<text text-anchor="middle" x="528.5" y="-7.5" font-family="FreeSans" font-size="10.00" fill="#000000">::outdent</text>
</a>
</g>
</g>
<!-- Node4&#45;&gt;Node8 -->
<g id="edge8" class="edge">
<title>Node4&#45;&gt;Node8</title>
<path fill="none" stroke="#191970" d="M370.2524,-127.3324C385.9199,-104.9684 417.0999,-64.7295 453,-41.5 455.4453,-39.9178 458.0002,-38.4265 460.63,-37.0221"/>
<polygon fill="#191970" stroke="#191970" points="462.3363,-40.0846 469.8099,-32.575 459.2844,-33.7849 462.3363,-40.0846"/>
</g>
</g>
</svg>
