<?xml version="1.0" encoding="UTF-8" standalone="no"?>
<!DOCTYPE svg PUBLIC "-//W3C//DTD SVG 1.1//EN"
 "http://www.w3.org/Graphics/SVG/1.1/DTD/svg11.dtd">
<!-- Generated by graphviz version 2.40.1 (20161225.0304)
 -->
<!-- Title: G4DiffuseElastic::InitialiseOnFly Pages: 1 -->
<svg width="696pt" height="41pt"
 viewBox="0.00 0.00 696.00 41.00" xmlns="http://www.w3.org/2000/svg" xmlns:xlink="http://www.w3.org/1999/xlink">
<g id="graph0" class="graph" transform="scale(1 1) rotate(0) translate(4 37)">
<title>G4DiffuseElastic::InitialiseOnFly</title>
<!-- Node1 -->
<g id="node1" class="node">
<title>Node1</title>
<polygon fill="#bfbfbf" stroke="#000000" points="0,-.5 0,-32.5 148,-32.5 148,-.5 0,-.5"/>
<text text-anchor="start" x="8" y="-19.5" font-family="FreeSans" font-size="10.00" fill="#000000">G4DiffuseElastic::Initialise</text>
<text text-anchor="middle" x="74" y="-7.5" font-family="FreeSans" font-size="10.00" fill="#000000">OnFly</text>
</g>
<!-- Node2 -->
<g id="node2" class="node">
<title>Node2</title>
<g id="a_node2"><a xlink:href="../../dd/d0b/classG4DiffuseElastic.html#a8390f68b4195eb0952d2e79e6846e934" target="_top" xlink:title="G4DiffuseElastic::Sample\lTableThetaCMS">
<polygon fill="none" stroke="#000000" points="184,-.5 184,-32.5 328,-32.5 328,-.5 184,-.5"/>
<text text-anchor="start" x="192" y="-19.5" font-family="FreeSans" font-size="10.00" fill="#000000">G4DiffuseElastic::Sample</text>
<text text-anchor="middle" x="256" y="-7.5" font-family="FreeSans" font-size="10.00" fill="#000000">TableThetaCMS</text>
</a>
</g>
</g>
<!-- Node1&#45;&gt;Node2 -->
<g id="edge1" class="edge">
<title>Node1&#45;&gt;Node2</title>
<path fill="none" stroke="#191970" d="M158.066,-16.5C166.6666,-16.5 175.3503,-16.5 183.8074,-16.5"/>
<polygon fill="#191970" stroke="#191970" points="158.0264,-13.0001 148.0264,-16.5 158.0263,-20.0001 158.0264,-13.0001"/>
</g>
<!-- Node3 -->
<g id="node3" class="node">
<title>Node3</title>
<g id="a_node3"><a xlink:href="../../dd/d0b/classG4DiffuseElastic.html#ab90efa8bd868d757927e7449fb22008f" target="_top" xlink:title="G4DiffuseElastic::Sample\lTableT">
<polygon fill="none" stroke="#000000" points="364,-.5 364,-32.5 508,-32.5 508,-.5 364,-.5"/>
<text text-anchor="start" x="372" y="-19.5" font-family="FreeSans" font-size="10.00" fill="#000000">G4DiffuseElastic::Sample</text>
<text text-anchor="middle" x="436" y="-7.5" font-family="FreeSans" font-size="10.00" fill="#000000">TableT</text>
</a>
</g>
</g>
<!-- Node2&#45;&gt;Node3 -->
<g id="edge2" class="edge">
<title>Node2&#45;&gt;Node3</title>
<path fill="none" stroke="#191970" d="M338.4391,-16.5C346.9064,-16.5 355.4636,-16.5 363.8081,-16.5"/>
<polygon fill="#191970" stroke="#191970" points="338.1758,-13.0001 328.1757,-16.5 338.1757,-20.0001 338.1758,-13.0001"/>
</g>
<!-- Node4 -->
<g id="node4" class="node">
<title>Node4</title>
<g id="a_node4"><a xlink:href="../../dd/d0b/classG4DiffuseElastic.html#a85d09a9d04d4eea500d0fa9d8d5fdd8a" target="_top" xlink:title="G4DiffuseElastic::Sample\lInvariantT">
<polygon fill="none" stroke="#000000" points="544,-.5 544,-32.5 688,-32.5 688,-.5 544,-.5"/>
<text text-anchor="start" x="552" y="-19.5" font-family="FreeSans" font-size="10.00" fill="#000000">G4DiffuseElastic::Sample</text>
<text text-anchor="middle" x="616" y="-7.5" font-family="FreeSans" font-size="10.00" fill="#000000">InvariantT</text>
</a>
</g>
</g>
<!-- Node3&#45;&gt;Node4 -->
<g id="edge3" class="edge">
<title>Node3&#45;&gt;Node4</title>
<path fill="none" stroke="#191970" d="M518.4391,-16.5C526.9064,-16.5 535.4636,-16.5 543.8081,-16.5"/>
<polygon fill="#191970" stroke="#191970" points="518.1758,-13.0001 508.1757,-16.5 518.1757,-20.0001 518.1758,-13.0001"/>
</g>
</g>
</svg>
