<?xml version="1.0" encoding="UTF-8" standalone="no"?>
<!DOCTYPE svg PUBLIC "-//W3C//DTD SVG 1.1//EN"
 "http://www.w3.org/Graphics/SVG/1.1/DTD/svg11.dtd">
<!-- Generated by graphviz version 2.40.1 (20161225.0304)
 -->
<!-- Title: G4DiffuseElastic::GetScatteringAngle Pages: 1 -->
<svg width="724pt" height="41pt"
 viewBox="0.00 0.00 724.00 41.00" xmlns="http://www.w3.org/2000/svg" xmlns:xlink="http://www.w3.org/1999/xlink">
<g id="graph0" class="graph" transform="scale(1 1) rotate(0) translate(4 37)">
<title>G4DiffuseElastic::GetScatteringAngle</title>
<!-- Node1 -->
<g id="node1" class="node">
<title>Node1</title>
<polygon fill="#bfbfbf" stroke="#000000" points="0,-.5 0,-32.5 176,-32.5 176,-.5 0,-.5"/>
<text text-anchor="start" x="8" y="-19.5" font-family="FreeSans" font-size="10.00" fill="#000000">G4DiffuseElastic::GetScattering</text>
<text text-anchor="middle" x="88" y="-7.5" font-family="FreeSans" font-size="10.00" fill="#000000">Angle</text>
</g>
<!-- Node2 -->
<g id="node2" class="node">
<title>Node2</title>
<g id="a_node2"><a xlink:href="../../dd/d0b/classG4DiffuseElastic.html#a8390f68b4195eb0952d2e79e6846e934" target="_top" xlink:title="G4DiffuseElastic::Sample\lTableThetaCMS">
<polygon fill="none" stroke="#000000" points="212,-.5 212,-32.5 356,-32.5 356,-.5 212,-.5"/>
<text text-anchor="start" x="220" y="-19.5" font-family="FreeSans" font-size="10.00" fill="#000000">G4DiffuseElastic::Sample</text>
<text text-anchor="middle" x="284" y="-7.5" font-family="FreeSans" font-size="10.00" fill="#000000">TableThetaCMS</text>
</a>
</g>
</g>
<!-- Node1&#45;&gt;Node2 -->
<g id="edge1" class="edge">
<title>Node1&#45;&gt;Node2</title>
<path fill="none" stroke="#191970" d="M186.3134,-16.5C194.8958,-16.5 203.475,-16.5 211.7878,-16.5"/>
<polygon fill="#191970" stroke="#191970" points="186.2527,-13.0001 176.2526,-16.5 186.2526,-20.0001 186.2527,-13.0001"/>
</g>
<!-- Node3 -->
<g id="node3" class="node">
<title>Node3</title>
<g id="a_node3"><a xlink:href="../../dd/d0b/classG4DiffuseElastic.html#ab90efa8bd868d757927e7449fb22008f" target="_top" xlink:title="G4DiffuseElastic::Sample\lTableT">
<polygon fill="none" stroke="#000000" points="392,-.5 392,-32.5 536,-32.5 536,-.5 392,-.5"/>
<text text-anchor="start" x="400" y="-19.5" font-family="FreeSans" font-size="10.00" fill="#000000">G4DiffuseElastic::Sample</text>
<text text-anchor="middle" x="464" y="-7.5" font-family="FreeSans" font-size="10.00" fill="#000000">TableT</text>
</a>
</g>
</g>
<!-- Node2&#45;&gt;Node3 -->
<g id="edge2" class="edge">
<title>Node2&#45;&gt;Node3</title>
<path fill="none" stroke="#191970" d="M366.4391,-16.5C374.9064,-16.5 383.4636,-16.5 391.8081,-16.5"/>
<polygon fill="#191970" stroke="#191970" points="366.1758,-13.0001 356.1757,-16.5 366.1757,-20.0001 366.1758,-13.0001"/>
</g>
<!-- Node4 -->
<g id="node4" class="node">
<title>Node4</title>
<g id="a_node4"><a xlink:href="../../dd/d0b/classG4DiffuseElastic.html#a85d09a9d04d4eea500d0fa9d8d5fdd8a" target="_top" xlink:title="G4DiffuseElastic::Sample\lInvariantT">
<polygon fill="none" stroke="#000000" points="572,-.5 572,-32.5 716,-32.5 716,-.5 572,-.5"/>
<text text-anchor="start" x="580" y="-19.5" font-family="FreeSans" font-size="10.00" fill="#000000">G4DiffuseElastic::Sample</text>
<text text-anchor="middle" x="644" y="-7.5" font-family="FreeSans" font-size="10.00" fill="#000000">InvariantT</text>
</a>
</g>
</g>
<!-- Node3&#45;&gt;Node4 -->
<g id="edge3" class="edge">
<title>Node3&#45;&gt;Node4</title>
<path fill="none" stroke="#191970" d="M546.4391,-16.5C554.9064,-16.5 563.4636,-16.5 571.8081,-16.5"/>
<polygon fill="#191970" stroke="#191970" points="546.1758,-13.0001 536.1757,-16.5 546.1757,-20.0001 546.1758,-13.0001"/>
</g>
</g>
</svg>
