<?xml version="1.0" encoding="UTF-8" standalone="no"?>
<!DOCTYPE svg PUBLIC "-//W3C//DTD SVG 1.1//EN"
 "http://www.w3.org/Graphics/SVG/1.1/DTD/svg11.dtd">
<!-- Generated by graphviz version 2.40.1 (20161225.0304)
 -->
<!-- Title: G4VSceneHandler::GetColor Pages: 1 -->
<svg width="524pt" height="143pt"
 viewBox="0.00 0.00 524.00 143.00" xmlns="http://www.w3.org/2000/svg" xmlns:xlink="http://www.w3.org/1999/xlink">
<g id="graph0" class="graph" transform="scale(1 1) rotate(0) translate(4 139)">
<title>G4VSceneHandler::GetColor</title>
<!-- Node1 -->
<g id="node1" class="node">
<title>Node1</title>
<polygon fill="#bfbfbf" stroke="#000000" points="0,-57.5 0,-77.5 160,-77.5 160,-57.5 0,-57.5"/>
<text text-anchor="middle" x="80" y="-64.5" font-family="FreeSans" font-size="10.00" fill="#000000">G4VSceneHandler::GetColor</text>
</g>
<!-- Node2 -->
<g id="node2" class="node">
<title>Node2</title>
<g id="a_node2"><a xlink:href="../../d3/d61/classG4HepRepSceneHandler.html#a38b0e0982b14f09d8248fd7b7a969ac7" target="_top" xlink:title="G4HepRepSceneHandler\l::AddPrimitive">
<polygon fill="none" stroke="#000000" points="196,-102.5 196,-134.5 338,-134.5 338,-102.5 196,-102.5"/>
<text text-anchor="start" x="204" y="-121.5" font-family="FreeSans" font-size="10.00" fill="#000000">G4HepRepSceneHandler</text>
<text text-anchor="middle" x="267" y="-109.5" font-family="FreeSans" font-size="10.00" fill="#000000">::AddPrimitive</text>
</a>
</g>
</g>
<!-- Node1&#45;&gt;Node2 -->
<g id="edge1" class="edge">
<title>Node1&#45;&gt;Node2</title>
<path fill="none" stroke="#191970" d="M126.7641,-80.2538C151.385,-86.9686 181.8262,-95.2708 208.0486,-102.4223"/>
<polygon fill="#191970" stroke="#191970" points="127.5138,-76.8305 116.9452,-77.576 125.6719,-83.5839 127.5138,-76.8305"/>
</g>
<!-- Node3 -->
<g id="node3" class="node">
<title>Node3</title>
<g id="a_node3"><a xlink:href="../../d3/d61/classG4HepRepSceneHandler.html#ad7f8ca40a601a94a133f18bc80934db6" target="_top" xlink:title="G4HepRepSceneHandler\l::getColorFor">
<polygon fill="none" stroke="#000000" points="196,-51.5 196,-83.5 338,-83.5 338,-51.5 196,-51.5"/>
<text text-anchor="start" x="204" y="-70.5" font-family="FreeSans" font-size="10.00" fill="#000000">G4HepRepSceneHandler</text>
<text text-anchor="middle" x="267" y="-58.5" font-family="FreeSans" font-size="10.00" fill="#000000">::getColorFor</text>
</a>
</g>
</g>
<!-- Node1&#45;&gt;Node3 -->
<g id="edge2" class="edge">
<title>Node1&#45;&gt;Node3</title>
<path fill="none" stroke="#191970" d="M170.208,-67.5C178.8323,-67.5 187.494,-67.5 195.8991,-67.5"/>
<polygon fill="#191970" stroke="#191970" points="170.1187,-64.0001 160.1186,-67.5 170.1186,-71.0001 170.1187,-64.0001"/>
</g>
<!-- Node4 -->
<g id="node4" class="node">
<title>Node4</title>
<g id="a_node4"><a xlink:href="../../d3/d61/classG4HepRepSceneHandler.html#a59a5757fe8e916443413cb20cd1012dc" target="_top" xlink:title="G4HepRepSceneHandler\l::setMarker">
<polygon fill="none" stroke="#000000" points="196,-.5 196,-32.5 338,-32.5 338,-.5 196,-.5"/>
<text text-anchor="start" x="204" y="-19.5" font-family="FreeSans" font-size="10.00" fill="#000000">G4HepRepSceneHandler</text>
<text text-anchor="middle" x="267" y="-7.5" font-family="FreeSans" font-size="10.00" fill="#000000">::setMarker</text>
</a>
</g>
</g>
<!-- Node1&#45;&gt;Node4 -->
<g id="edge3" class="edge">
<title>Node1&#45;&gt;Node4</title>
<path fill="none" stroke="#191970" d="M126.7641,-54.7462C151.385,-48.0314 181.8262,-39.7292 208.0486,-32.5777"/>
<polygon fill="#191970" stroke="#191970" points="125.6719,-51.4161 116.9452,-57.424 127.5138,-58.1695 125.6719,-51.4161"/>
</g>
<!-- Node5 -->
<g id="node5" class="node">
<title>Node5</title>
<g id="a_node5"><a xlink:href="../../d3/d61/classG4HepRepSceneHandler.html#a8c654d6ad9f7276edc92af415c92ad1b" target="_top" xlink:title="G4HepRepSceneHandler\l::AddPrimitive">
<polygon fill="none" stroke="#000000" points="374,-.5 374,-32.5 516,-32.5 516,-.5 374,-.5"/>
<text text-anchor="start" x="382" y="-19.5" font-family="FreeSans" font-size="10.00" fill="#000000">G4HepRepSceneHandler</text>
<text text-anchor="middle" x="445" y="-7.5" font-family="FreeSans" font-size="10.00" fill="#000000">::AddPrimitive</text>
</a>
</g>
</g>
<!-- Node4&#45;&gt;Node5 -->
<g id="edge4" class="edge">
<title>Node4&#45;&gt;Node5</title>
<path fill="none" stroke="#191970" d="M348.1702,-16.5C356.7888,-16.5 365.506,-16.5 373.9953,-16.5"/>
<polygon fill="#191970" stroke="#191970" points="348.1177,-13.0001 338.1177,-16.5 348.1177,-20.0001 348.1177,-13.0001"/>
</g>
</g>
</svg>
