<?xml version="1.0" encoding="UTF-8" standalone="no"?>
<!DOCTYPE svg PUBLIC "-//W3C//DTD SVG 1.1//EN"
 "http://www.w3.org/Graphics/SVG/1.1/DTD/svg11.dtd">
<!-- Generated by graphviz version 2.40.1 (20161225.0304)
 -->
<!-- Title: G4ShellEMDataSet::GetLogEnergies Pages: 1 -->
<svg width="392pt" height="68pt"
 viewBox="0.00 0.00 392.00 68.00" xmlns="http://www.w3.org/2000/svg" xmlns:xlink="http://www.w3.org/1999/xlink">
<g id="graph0" class="graph" transform="scale(1 1) rotate(0) translate(4 64)">
<title>G4ShellEMDataSet::GetLogEnergies</title>
<!-- Node1 -->
<g id="node1" class="node">
<title>Node1</title>
<polygon fill="#bfbfbf" stroke="#000000" points="0,-13.5 0,-45.5 153,-45.5 153,-13.5 0,-13.5"/>
<text text-anchor="start" x="8" y="-32.5" font-family="FreeSans" font-size="10.00" fill="#000000">G4ShellEMDataSet::GetLog</text>
<text text-anchor="middle" x="76.5" y="-20.5" font-family="FreeSans" font-size="10.00" fill="#000000">Energies</text>
</g>
<!-- Node2 -->
<g id="node2" class="node">
<title>Node2</title>
<g id="a_node2"><a xlink:href="../../d7/df3/classG4ShellEMDataSet.html#a74c5cf133611cee1cd177ea15b0abec5" target="_top" xlink:title="G4ShellEMDataSet::GetComponent">
<polygon fill="none" stroke="#000000" points="189,-39.5 189,-59.5 384,-59.5 384,-39.5 189,-39.5"/>
<text text-anchor="middle" x="286.5" y="-46.5" font-family="FreeSans" font-size="10.00" fill="#000000">G4ShellEMDataSet::GetComponent</text>
</a>
</g>
</g>
<!-- Node1&#45;&gt;Node2 -->
<g id="edge1" class="edge">
<title>Node1&#45;&gt;Node2</title>
<path fill="none" stroke="#191970" d="M153.2062,-36.8054C161.5434,-37.5994 170.1377,-38.4179 178.7567,-39.2387"/>
<polygon fill="#191970" stroke="#191970" points="178.5852,-42.7382 188.872,-40.2021 179.2489,-35.7697 178.5852,-42.7382"/>
</g>
<!-- Node3 -->
<g id="node3" class="node">
<title>Node3</title>
<g id="a_node3"><a xlink:href="../../d0/d71/classG4VEMDataSet.html#aa5a2d614b01a72d8d088ec250ba595c3" target="_top" xlink:title="G4VEMDataSet::GetLogEnergies">
<polygon fill="none" stroke="#000000" points="196.5,-.5 196.5,-20.5 376.5,-20.5 376.5,-.5 196.5,-.5"/>
<text text-anchor="middle" x="286.5" y="-7.5" font-family="FreeSans" font-size="10.00" fill="#000000">G4VEMDataSet::GetLogEnergies</text>
</a>
</g>
</g>
<!-- Node1&#45;&gt;Node3 -->
<g id="edge2" class="edge">
<title>Node1&#45;&gt;Node3</title>
<path fill="none" stroke="#191970" d="M153.2062,-22.5599C163.9709,-21.586 175.1644,-20.5732 186.286,-19.567"/>
<polygon fill="#191970" stroke="#191970" points="186.8214,-23.0329 196.4653,-18.646 186.1906,-16.0614 186.8214,-23.0329"/>
</g>
</g>
</svg>
