<?xml version="1.0" encoding="UTF-8" standalone="no"?>
<!DOCTYPE svg PUBLIC "-//W3C//DTD SVG 1.1//EN"
 "http://www.w3.org/Graphics/SVG/1.1/DTD/svg11.dtd">
<!-- Generated by graphviz version 2.40.1 (20161225.0304)
 -->
<!-- Title: G4LEPTSExcitationModel::SampleSecondaries Pages: 1 -->
<svg width="757pt" height="440pt"
 viewBox="0.00 0.00 757.00 440.00" xmlns="http://www.w3.org/2000/svg" xmlns:xlink="http://www.w3.org/1999/xlink">
<g id="graph0" class="graph" transform="scale(1 1) rotate(0) translate(4 436)">
<title>G4LEPTSExcitationModel::SampleSecondaries</title>
<!-- Node1 -->
<g id="node1" class="node">
<title>Node1</title>
<polygon fill="#bfbfbf" stroke="#000000" points="0,-220.5 0,-252.5 141,-252.5 141,-220.5 0,-220.5"/>
<text text-anchor="start" x="8" y="-239.5" font-family="FreeSans" font-size="10.00" fill="#000000">G4LEPTSExcitationModel</text>
<text text-anchor="middle" x="70.5" y="-227.5" font-family="FreeSans" font-size="10.00" fill="#000000">::SampleSecondaries</text>
</g>
<!-- Node2 -->
<g id="node2" class="node">
<title>Node2</title>
<g id="a_node2"><a xlink:href="../../d7/d5c/classG4DynamicParticle.html#aba63ef4aeef93871bec7279ada8391da" target="_top" xlink:title="G4DynamicParticle::\lGetKineticEnergy">
<polygon fill="none" stroke="#000000" points="218.5,-399.5 218.5,-431.5 336.5,-431.5 336.5,-399.5 218.5,-399.5"/>
<text text-anchor="start" x="226.5" y="-418.5" font-family="FreeSans" font-size="10.00" fill="#000000">G4DynamicParticle::</text>
<text text-anchor="middle" x="277.5" y="-406.5" font-family="FreeSans" font-size="10.00" fill="#000000">GetKineticEnergy</text>
</a>
</g>
</g>
<!-- Node1&#45;&gt;Node2 -->
<g id="edge1" class="edge">
<title>Node1&#45;&gt;Node2</title>
<path fill="none" stroke="#191970" d="M77.0859,-252.9138C90.7112,-284.6929 125.1228,-354.6434 177,-390.5 186.4376,-397.0231 197.4143,-401.8476 208.5764,-405.4149"/>
<polygon fill="#191970" stroke="#191970" points="207.8216,-408.8396 218.3993,-408.2374 209.7548,-402.1118 207.8216,-408.8396"/>
</g>
<!-- Node3 -->
<g id="node3" class="node">
<title>Node3</title>
<g id="a_node3"><a xlink:href="../../d9/dc9/classG4MaterialCutsCouple.html#a7f2e49c198c81fa1fec9db563d3fbf56" target="_top" xlink:title="G4MaterialCutsCouple\l::GetMaterial">
<polygon fill="none" stroke="#000000" points="213,-348.5 213,-380.5 342,-380.5 342,-348.5 213,-348.5"/>
<text text-anchor="start" x="221" y="-367.5" font-family="FreeSans" font-size="10.00" fill="#000000">G4MaterialCutsCouple</text>
<text text-anchor="middle" x="277.5" y="-355.5" font-family="FreeSans" font-size="10.00" fill="#000000">::GetMaterial</text>
</a>
</g>
</g>
<!-- Node1&#45;&gt;Node3 -->
<g id="edge2" class="edge">
<title>Node1&#45;&gt;Node3</title>
<path fill="none" stroke="#191970" d="M82.68,-252.79C100.708,-275.712 136.7325,-317.1739 177,-339.5 185.1693,-344.0295 194.162,-347.7501 203.3074,-350.8037"/>
<polygon fill="#191970" stroke="#191970" points="202.2776,-354.1487 212.865,-353.7503 204.34,-347.4594 202.2776,-354.1487"/>
</g>
<!-- Node4 -->
<g id="node4" class="node">
<title>Node4</title>
<g id="a_node4"><a xlink:href="../../d7/d5c/classG4DynamicParticle.html#aaba41bb642473c73ec49f73a234a47cb" target="_top" xlink:title="G4DynamicParticle::\lGetMomentumDirection">
<polygon fill="none" stroke="#000000" points="209,-297.5 209,-329.5 346,-329.5 346,-297.5 209,-297.5"/>
<text text-anchor="start" x="217" y="-316.5" font-family="FreeSans" font-size="10.00" fill="#000000">G4DynamicParticle::</text>
<text text-anchor="middle" x="277.5" y="-304.5" font-family="FreeSans" font-size="10.00" fill="#000000">GetMomentumDirection</text>
</a>
</g>
</g>
<!-- Node1&#45;&gt;Node4 -->
<g id="edge3" class="edge">
<title>Node1&#45;&gt;Node4</title>
<path fill="none" stroke="#191970" d="M99.1609,-252.5465C120.1982,-263.8117 149.7371,-278.5788 177,-288.5 184.0487,-291.0651 191.469,-293.458 198.9526,-295.6669"/>
<polygon fill="#191970" stroke="#191970" points="198.2254,-299.0987 208.8012,-298.4636 200.1376,-292.3649 198.2254,-299.0987"/>
</g>
<!-- Node5 -->
<g id="node5" class="node">
<title>Node5</title>
<g id="a_node5"><a xlink:href="../../d6/d6c/classG4VParticleChange.html#aa7122aad56515c32d5e3e013606b33fd" target="_top" xlink:title="G4VParticleChange::\lProposeLocalEnergyDeposit">
<polygon fill="none" stroke="#000000" points="199,-246.5 199,-278.5 356,-278.5 356,-246.5 199,-246.5"/>
<text text-anchor="start" x="207" y="-265.5" font-family="FreeSans" font-size="10.00" fill="#000000">G4VParticleChange::</text>
<text text-anchor="middle" x="277.5" y="-253.5" font-family="FreeSans" font-size="10.00" fill="#000000">ProposeLocalEnergyDeposit</text>
</a>
</g>
</g>
<!-- Node1&#45;&gt;Node5 -->
<g id="edge4" class="edge">
<title>Node1&#45;&gt;Node5</title>
<path fill="none" stroke="#191970" d="M141.1587,-245.375C156.4348,-247.2937 172.7758,-249.3462 188.6478,-251.3398"/>
<polygon fill="#191970" stroke="#191970" points="188.636,-254.8658 198.9943,-252.6394 189.5085,-247.9203 188.636,-254.8658"/>
</g>
<!-- Node6 -->
<g id="node6" class="node">
<title>Node6</title>
<g id="a_node6"><a xlink:href="../../d7/dcb/classG4ParticleChangeForGamma.html#a5494c2e7ae8b22708714102687e46abc" target="_top" xlink:title="G4ParticleChangeForGamma\l::ProposeMomentumDirection">
<polygon fill="none" stroke="#000000" points="194.5,-195.5 194.5,-227.5 360.5,-227.5 360.5,-195.5 194.5,-195.5"/>
<text text-anchor="start" x="202.5" y="-214.5" font-family="FreeSans" font-size="10.00" fill="#000000">G4ParticleChangeForGamma</text>
<text text-anchor="middle" x="277.5" y="-202.5" font-family="FreeSans" font-size="10.00" fill="#000000">::ProposeMomentumDirection</text>
</a>
</g>
</g>
<!-- Node1&#45;&gt;Node6 -->
<g id="edge5" class="edge">
<title>Node1&#45;&gt;Node6</title>
<path fill="none" stroke="#191970" d="M141.1587,-227.9663C155.0523,-226.2884 169.8266,-224.504 184.3279,-222.7527"/>
<polygon fill="#191970" stroke="#191970" points="184.8012,-226.221 194.3094,-221.5472 183.9618,-219.2715 184.8012,-226.221"/>
</g>
<!-- Node10 -->
<g id="node10" class="node">
<title>Node10</title>
<g id="a_node10"><a xlink:href="../../d2/d29/classG4VLEPTSModel.html#a1cd5c7d73afe6c0dbda0baf98f6d3940" target="_top" xlink:title="G4VLEPTSModel::SampleEnergyLoss">
<polygon fill="none" stroke="#000000" points="177,-156.5 177,-176.5 378,-176.5 378,-156.5 177,-156.5"/>
<text text-anchor="middle" x="277.5" y="-163.5" font-family="FreeSans" font-size="10.00" fill="#000000">G4VLEPTSModel::SampleEnergyLoss</text>
</a>
</g>
</g>
<!-- Node1&#45;&gt;Node10 -->
<g id="edge9" class="edge">
<title>Node1&#45;&gt;Node10</title>
<path fill="none" stroke="#191970" d="M100.0016,-220.2722C120.9488,-209.3474 150.0288,-195.3688 177,-186.5 185.9054,-183.5717 195.4029,-181.0015 204.8713,-178.766"/>
<polygon fill="#191970" stroke="#191970" points="205.7127,-182.1643 214.7019,-176.5567 204.1778,-175.3347 205.7127,-182.1643"/>
</g>
<!-- Node13 -->
<g id="node13" class="node">
<title>Node13</title>
<g id="a_node13"><a xlink:href="../../d2/d29/classG4VLEPTSModel.html#a18395b7956b8fc6fa50e32401c80e685" target="_top" xlink:title="G4VLEPTSModel::SampleNew\lDirection">
<polygon fill="none" stroke="#000000" points="194.5,-91.5 194.5,-123.5 360.5,-123.5 360.5,-91.5 194.5,-91.5"/>
<text text-anchor="start" x="202.5" y="-110.5" font-family="FreeSans" font-size="10.00" fill="#000000">G4VLEPTSModel::SampleNew</text>
<text text-anchor="middle" x="277.5" y="-98.5" font-family="FreeSans" font-size="10.00" fill="#000000">Direction</text>
</a>
</g>
</g>
<!-- Node1&#45;&gt;Node13 -->
<g id="edge12" class="edge">
<title>Node1&#45;&gt;Node13</title>
<path fill="none" stroke="#191970" d="M86.5684,-220.2163C106.394,-200.8371 141.8123,-168.4711 177,-147.5 189.9103,-139.8058 204.5706,-133.013 218.625,-127.3101"/>
<polygon fill="#191970" stroke="#191970" points="220.2007,-130.4516 228.2292,-123.5383 217.6418,-123.936 220.2007,-130.4516"/>
</g>
<!-- Node19 -->
<g id="node19" class="node">
<title>Node19</title>
<g id="a_node19"><a xlink:href="../../d7/dcb/classG4ParticleChangeForGamma.html#a0cbf2cef9ac0e7572ba2da0f9df7c852" target="_top" xlink:title="G4ParticleChangeForGamma\l::SetProposedKineticEnergy">
<polygon fill="none" stroke="#000000" points="196.5,-40.5 196.5,-72.5 358.5,-72.5 358.5,-40.5 196.5,-40.5"/>
<text text-anchor="start" x="204.5" y="-59.5" font-family="FreeSans" font-size="10.00" fill="#000000">G4ParticleChangeForGamma</text>
<text text-anchor="middle" x="277.5" y="-47.5" font-family="FreeSans" font-size="10.00" fill="#000000">::SetProposedKineticEnergy</text>
</a>
</g>
</g>
<!-- Node1&#45;&gt;Node19 -->
<g id="edge18" class="edge">
<title>Node1&#45;&gt;Node19</title>
<path fill="none" stroke="#191970" d="M77.1155,-220.1288C90.7926,-188.4244 125.291,-118.5987 177,-82.5 180.273,-80.2151 183.7319,-78.1309 187.3201,-76.2299"/>
<polygon fill="#191970" stroke="#191970" points="188.9492,-79.3307 196.4733,-71.8715 185.9398,-73.0106 188.9492,-79.3307"/>
</g>
<!-- Node7 -->
<g id="node7" class="node">
<title>Node7</title>
<g id="a_node7"><a xlink:href="../../da/dcf/classCLHEP_1_1Hep3Vector.html#ad8884887834eeae070b4495de82a73c1" target="_top" xlink:title="CLHEP::Hep3Vector::setX">
<polygon fill="none" stroke="#000000" points="428.5,-279.5 428.5,-299.5 571.5,-299.5 571.5,-279.5 428.5,-279.5"/>
<text text-anchor="middle" x="500" y="-286.5" font-family="FreeSans" font-size="10.00" fill="#000000">CLHEP::Hep3Vector::setX</text>
</a>
</g>
</g>
<!-- Node6&#45;&gt;Node7 -->
<g id="edge6" class="edge">
<title>Node6&#45;&gt;Node7</title>
<path fill="none" stroke="#191970" d="M355.5144,-227.5783C363.3183,-230.3897 370.9524,-233.6723 378,-237.5 397.0734,-247.8593 394.7446,-260.483 414,-270.5 417.9995,-272.5806 422.2185,-274.434 426.5534,-276.0849"/>
<polygon fill="#191970" stroke="#191970" points="425.5937,-279.4557 436.1883,-279.3852 427.8621,-272.8335 425.5937,-279.4557"/>
</g>
<!-- Node8 -->
<g id="node8" class="node">
<title>Node8</title>
<g id="a_node8"><a xlink:href="../../da/dcf/classCLHEP_1_1Hep3Vector.html#a509fe8a8faa83d10fcd741aaba240893" target="_top" xlink:title="CLHEP::Hep3Vector::setY">
<polygon fill="none" stroke="#000000" points="428.5,-240.5 428.5,-260.5 571.5,-260.5 571.5,-240.5 428.5,-240.5"/>
<text text-anchor="middle" x="500" y="-247.5" font-family="FreeSans" font-size="10.00" fill="#000000">CLHEP::Hep3Vector::setY</text>
</a>
</g>
</g>
<!-- Node6&#45;&gt;Node8 -->
<g id="edge7" class="edge">
<title>Node6&#45;&gt;Node8</title>
<path fill="none" stroke="#191970" d="M360.6672,-226.0776C384.5371,-230.2616 410.2526,-234.769 433.0142,-238.7587"/>
<polygon fill="#191970" stroke="#191970" points="432.4554,-242.214 442.9096,-240.4931 433.664,-235.3191 432.4554,-242.214"/>
</g>
<!-- Node9 -->
<g id="node9" class="node">
<title>Node9</title>
<g id="a_node9"><a xlink:href="../../da/dcf/classCLHEP_1_1Hep3Vector.html#a86f1045eb36c8f912c9931f9a4b8b321" target="_top" xlink:title="CLHEP::Hep3Vector::setZ">
<polygon fill="none" stroke="#000000" points="428.5,-201.5 428.5,-221.5 571.5,-221.5 571.5,-201.5 428.5,-201.5"/>
<text text-anchor="middle" x="500" y="-208.5" font-family="FreeSans" font-size="10.00" fill="#000000">CLHEP::Hep3Vector::setZ</text>
</a>
</g>
</g>
<!-- Node6&#45;&gt;Node9 -->
<g id="edge8" class="edge">
<title>Node6&#45;&gt;Node9</title>
<path fill="none" stroke="#191970" d="M360.6672,-211.5C379.4136,-211.5 399.2984,-211.5 417.9967,-211.5"/>
<polygon fill="#191970" stroke="#191970" points="418.2478,-215.0001 428.2478,-211.5 418.2478,-208.0001 418.2478,-215.0001"/>
</g>
<!-- Node11 -->
<g id="node11" class="node">
<title>Node11</title>
<g id="a_node11"><a xlink:href="../../d5/de4/classG4Material.html#ad8d8779fa3a56cfb69010ac6c6d7c71f" target="_top" xlink:title="G4Material::GetName">
<polygon fill="none" stroke="#000000" points="437,-162.5 437,-182.5 563,-182.5 563,-162.5 437,-162.5"/>
<text text-anchor="middle" x="500" y="-169.5" font-family="FreeSans" font-size="10.00" fill="#000000">G4Material::GetName</text>
</a>
</g>
</g>
<!-- Node10&#45;&gt;Node11 -->
<g id="edge10" class="edge">
<title>Node10&#45;&gt;Node11</title>
<path fill="none" stroke="#191970" d="M378.0093,-169.2104C394.4472,-169.6536 411.2009,-170.1054 426.8167,-170.5265"/>
<polygon fill="#191970" stroke="#191970" points="426.8087,-174.0275 436.8994,-170.7984 426.9974,-167.03 426.8087,-174.0275"/>
</g>
<!-- Node12 -->
<g id="node12" class="node">
<title>Node12</title>
<g id="a_node12"><a xlink:href="../../d3/dc1/classG4VEmModel.html#a130128c3e374c1cc5236a6b8575ce415" target="_top" xlink:title="G4VEmModel::GetName">
<polygon fill="none" stroke="#000000" points="430.5,-123.5 430.5,-143.5 569.5,-143.5 569.5,-123.5 430.5,-123.5"/>
<text text-anchor="middle" x="500" y="-130.5" font-family="FreeSans" font-size="10.00" fill="#000000">G4VEmModel::GetName</text>
</a>
</g>
</g>
<!-- Node10&#45;&gt;Node12 -->
<g id="edge11" class="edge">
<title>Node10&#45;&gt;Node12</title>
<path fill="none" stroke="#191970" d="M345.1636,-156.4645C369.4357,-152.8646 396.9957,-148.777 422.0683,-145.0584"/>
<polygon fill="#191970" stroke="#191970" points="422.8967,-148.4739 432.275,-143.5446 421.8697,-141.5497 422.8967,-148.4739"/>
</g>
<!-- Node14 -->
<g id="node14" class="node">
<title>Node14</title>
<g id="a_node14"><a xlink:href="../../d2/d29/classG4VLEPTSModel.html#ae6e9a0478652bb78cd7a438260789d37" target="_top" xlink:title="G4VLEPTSModel::SampleAngle">
<polygon fill="none" stroke="#000000" points="414,-84.5 414,-104.5 586,-104.5 586,-84.5 414,-84.5"/>
<text text-anchor="middle" x="500" y="-91.5" font-family="FreeSans" font-size="10.00" fill="#000000">G4VLEPTSModel::SampleAngle</text>
</a>
</g>
</g>
<!-- Node13&#45;&gt;Node14 -->
<g id="edge13" class="edge">
<title>Node13&#45;&gt;Node14</title>
<path fill="none" stroke="#191970" d="M360.6672,-102.6408C374.6721,-101.8225 389.3122,-100.9671 403.6184,-100.1313"/>
<polygon fill="#191970" stroke="#191970" points="404.1838,-103.6043 413.9626,-99.5269 403.7755,-96.6162 404.1838,-103.6043"/>
</g>
<!-- Node15 -->
<g id="node15" class="node">
<title>Node15</title>
<g id="a_node15"><a xlink:href="../../da/dcf/classCLHEP_1_1Hep3Vector.html#adccaf09d36ec36d6a1ad10ad1776509d" target="_top" xlink:title="CLHEP::Hep3Vector::\lrotateUz">
<polygon fill="none" stroke="#000000" points="440,-33.5 440,-65.5 560,-65.5 560,-33.5 440,-33.5"/>
<text text-anchor="start" x="448" y="-52.5" font-family="FreeSans" font-size="10.00" fill="#000000">CLHEP::Hep3Vector::</text>
<text text-anchor="middle" x="500" y="-40.5" font-family="FreeSans" font-size="10.00" fill="#000000">rotateUz</text>
</a>
</g>
</g>
<!-- Node13&#45;&gt;Node15 -->
<g id="edge14" class="edge">
<title>Node13&#45;&gt;Node15</title>
<path fill="none" stroke="#191970" d="M342.6931,-91.4881C354.4562,-88.5406 366.6012,-85.4591 378,-82.5 395.3984,-77.9835 414.1549,-72.9782 431.6187,-68.2596"/>
<polygon fill="#191970" stroke="#191970" points="432.9946,-71.5131 441.7317,-65.5203 431.1644,-64.7566 432.9946,-71.5131"/>
</g>
<!-- Node16 -->
<g id="node16" class="node">
<title>Node16</title>
<g id="a_node16"><a xlink:href="../../da/dcf/classCLHEP_1_1Hep3Vector.html#a86646a7299d9b55d1ee3a27b578d30ec" target="_top" xlink:title="CLHEP::Hep3Vector::x">
<polygon fill="none" stroke="#000000" points="622,-78.5 622,-98.5 749,-98.5 749,-78.5 622,-78.5"/>
<text text-anchor="middle" x="685.5" y="-85.5" font-family="FreeSans" font-size="10.00" fill="#000000">CLHEP::Hep3Vector::x</text>
</a>
</g>
</g>
<!-- Node15&#45;&gt;Node16 -->
<g id="edge15" class="edge">
<title>Node15&#45;&gt;Node16</title>
<path fill="none" stroke="#191970" d="M560.2265,-62.1622C581.9624,-66.732 606.4268,-71.8754 627.9296,-76.3962"/>
<polygon fill="#191970" stroke="#191970" points="627.3942,-79.8601 637.9004,-78.4925 628.8345,-73.0099 627.3942,-79.8601"/>
</g>
<!-- Node17 -->
<g id="node17" class="node">
<title>Node17</title>
<g id="a_node17"><a xlink:href="../../da/dcf/classCLHEP_1_1Hep3Vector.html#a86ef096e76d7db9e0ea8e10eb742a576" target="_top" xlink:title="CLHEP::Hep3Vector::y">
<polygon fill="none" stroke="#000000" points="622,-39.5 622,-59.5 749,-59.5 749,-39.5 622,-39.5"/>
<text text-anchor="middle" x="685.5" y="-46.5" font-family="FreeSans" font-size="10.00" fill="#000000">CLHEP::Hep3Vector::y</text>
</a>
</g>
</g>
<!-- Node15&#45;&gt;Node17 -->
<g id="edge16" class="edge">
<title>Node15&#45;&gt;Node17</title>
<path fill="none" stroke="#191970" d="M560.2265,-49.5C576.5216,-49.5 594.3502,-49.5 611.3148,-49.5"/>
<polygon fill="#191970" stroke="#191970" points="611.7446,-53.0001 621.7446,-49.5 611.7445,-46.0001 611.7446,-53.0001"/>
</g>
<!-- Node18 -->
<g id="node18" class="node">
<title>Node18</title>
<g id="a_node18"><a xlink:href="../../da/dcf/classCLHEP_1_1Hep3Vector.html#a2dcfdfeae86f250117ea40f086bb231a" target="_top" xlink:title="CLHEP::Hep3Vector::z">
<polygon fill="none" stroke="#000000" points="622.5,-.5 622.5,-20.5 748.5,-20.5 748.5,-.5 622.5,-.5"/>
<text text-anchor="middle" x="685.5" y="-7.5" font-family="FreeSans" font-size="10.00" fill="#000000">CLHEP::Hep3Vector::z</text>
</a>
</g>
</g>
<!-- Node15&#45;&gt;Node18 -->
<g id="edge17" class="edge">
<title>Node15&#45;&gt;Node18</title>
<path fill="none" stroke="#191970" d="M560.2265,-36.8378C581.9624,-32.268 606.4268,-27.1246 627.9296,-22.6038"/>
<polygon fill="#191970" stroke="#191970" points="628.8345,-25.9901 637.9004,-20.5075 627.3942,-19.1399 628.8345,-25.9901"/>
</g>
</g>
</svg>
