<?xml version="1.0" encoding="UTF-8" standalone="no"?>
<!DOCTYPE svg PUBLIC "-//W3C//DTD SVG 1.1//EN"
 "http://www.w3.org/Graphics/SVG/1.1/DTD/svg11.dtd">
<!-- Generated by graphviz version 2.40.1 (20161225.0304)
 -->
<!-- Title: G4INCL::ParticleSampler::sampleOneParticleWithoutRPCorrelation Pages: 1 -->
<svg width="610pt" height="55pt"
 viewBox="0.00 0.00 610.00 55.00" xmlns="http://www.w3.org/2000/svg" xmlns:xlink="http://www.w3.org/1999/xlink">
<g id="graph0" class="graph" transform="scale(1 1) rotate(0) translate(4 51)">
<title>G4INCL::ParticleSampler::sampleOneParticleWithoutRPCorrelation</title>
<!-- Node1 -->
<g id="node1" class="node">
<title>Node1</title>
<polygon fill="#bfbfbf" stroke="#000000" points="0,-.5 0,-32.5 225,-32.5 225,-.5 0,-.5"/>
<text text-anchor="start" x="8" y="-19.5" font-family="FreeSans" font-size="10.00" fill="#000000">G4INCL::ParticleSampler</text>
<text text-anchor="middle" x="112.5" y="-7.5" font-family="FreeSans" font-size="10.00" fill="#000000">::sampleOneParticleWithoutRPCorrelation</text>
</g>
<!-- Node2 -->
<g id="node2" class="node">
<title>Node2</title>
<g id="a_node2"><a xlink:href="../../d5/d11/namespaceG4INCL_1_1Random.html#a0d9e4bdbfe25ceeb7cd3f786da732386" target="_top" xlink:title="G4INCL::Random::normVector">
<polygon fill="none" stroke="#000000" points="261,-26.5 261,-46.5 429,-46.5 429,-26.5 261,-26.5"/>
<text text-anchor="middle" x="345" y="-33.5" font-family="FreeSans" font-size="10.00" fill="#000000">G4INCL::Random::normVector</text>
</a>
</g>
</g>
<!-- Node1&#45;&gt;Node2 -->
<g id="edge1" class="edge">
<title>Node1&#45;&gt;Node2</title>
<path fill="none" stroke="#191970" d="M225.0042,-26.1778C233.5744,-26.915 242.1717,-27.6546 250.6097,-28.3804"/>
<polygon fill="#191970" stroke="#191970" points="250.5473,-31.8879 260.8105,-29.2579 251.1473,-24.9136 250.5473,-31.8879"/>
</g>
<!-- Node3 -->
<g id="node3" class="node">
<title>Node3</title>
<g id="a_node3"><a xlink:href="../../d5/d11/namespaceG4INCL_1_1Random.html#aad2134de367e586ed59d4ebc233f65ae" target="_top" xlink:title="G4INCL::Random::shoot">
<polygon fill="none" stroke="#000000" points="465,-6.5 465,-26.5 602,-26.5 602,-6.5 465,-6.5"/>
<text text-anchor="middle" x="533.5" y="-13.5" font-family="FreeSans" font-size="10.00" fill="#000000">G4INCL::Random::shoot</text>
</a>
</g>
</g>
<!-- Node1&#45;&gt;Node3 -->
<g id="edge3" class="edge">
<title>Node1&#45;&gt;Node3</title>
<path fill="none" stroke="#191970" d="M225.0437,-16.5C297.5267,-16.5 389.9524,-16.5 454.6537,-16.5"/>
<polygon fill="#191970" stroke="#191970" points="454.7925,-20.0001 464.7925,-16.5 454.7924,-13.0001 454.7925,-20.0001"/>
</g>
<!-- Node2&#45;&gt;Node3 -->
<g id="edge2" class="edge">
<title>Node2&#45;&gt;Node3</title>
<path fill="none" stroke="#191970" d="M429.0512,-27.5821C437.5666,-26.6786 446.1942,-25.7632 454.6519,-24.8659"/>
<polygon fill="#191970" stroke="#191970" points="455.2901,-28.3179 464.865,-23.7822 454.5515,-21.3569 455.2901,-28.3179"/>
</g>
</g>
</svg>
