<?xml version="1.0" encoding="UTF-8" standalone="no"?>
<!DOCTYPE svg PUBLIC "-//W3C//DTD SVG 1.1//EN"
 "http://www.w3.org/Graphics/SVG/1.1/DTD/svg11.dtd">
<!-- Generated by graphviz version 2.40.1 (20161225.0304)
 -->
<!-- Title: G4VPhysicalVolume::SetName Pages: 1 -->
<svg width="1535pt" height="1203pt"
 viewBox="0.00 0.00 1535.00 1203.00" xmlns="http://www.w3.org/2000/svg" xmlns:xlink="http://www.w3.org/1999/xlink">
<g id="graph0" class="graph" transform="scale(1 1) rotate(0) translate(4 1199)">
<title>G4VPhysicalVolume::SetName</title>
<!-- Node1 -->
<g id="node1" class="node">
<title>Node1</title>
<polygon fill="#bfbfbf" stroke="#000000" points="0,-702.5 0,-734.5 123,-734.5 123,-702.5 0,-702.5"/>
<text text-anchor="start" x="8" y="-721.5" font-family="FreeSans" font-size="10.00" fill="#000000">G4VPhysicalVolume::</text>
<text text-anchor="middle" x="61.5" y="-709.5" font-family="FreeSans" font-size="10.00" fill="#000000">SetName</text>
</g>
<!-- Node2 -->
<g id="node2" class="node">
<title>Node2</title>
<g id="a_node2"><a xlink:href="../../d4/daa/classG4RunManager.html#af84469108bb21f3f5f3ae4b69bd52caf" target="_top" xlink:title="G4RunManager::ConstructScoring\lWorlds">
<polygon fill="none" stroke="#000000" points="159,-808.5 159,-840.5 346,-840.5 346,-808.5 159,-808.5"/>
<text text-anchor="start" x="167" y="-827.5" font-family="FreeSans" font-size="10.00" fill="#000000">G4RunManager::ConstructScoring</text>
<text text-anchor="middle" x="252.5" y="-815.5" font-family="FreeSans" font-size="10.00" fill="#000000">Worlds</text>
</a>
</g>
</g>
<!-- Node1&#45;&gt;Node2 -->
<g id="edge1" class="edge">
<title>Node1&#45;&gt;Node2</title>
<path fill="none" stroke="#191970" d="M95.5212,-739.9851C114.0774,-751.4748 137.5721,-765.6549 159,-777.5 178.5575,-788.3112 200.906,-799.5835 218.8486,-808.378"/>
<polygon fill="#191970" stroke="#191970" points="97.1789,-736.8943 86.8392,-734.5828 93.4807,-742.8377 97.1789,-736.8943"/>
</g>
<!-- Node20 -->
<g id="node20" class="node">
<title>Node20</title>
<g id="a_node20"><a xlink:href="../../df/d79/pymodG4geometry_8cc.html#a9ed1f46c5c7363e53b897f9ccdaffa01" target="_top" xlink:title="export_G4VPhysicalVolume">
<polygon fill="none" stroke="#000000" points="175.5,-747.5 175.5,-767.5 329.5,-767.5 329.5,-747.5 175.5,-747.5"/>
<text text-anchor="middle" x="252.5" y="-754.5" font-family="FreeSans" font-size="10.00" fill="#000000">export_G4VPhysicalVolume</text>
</a>
</g>
</g>
<!-- Node1&#45;&gt;Node20 -->
<g id="edge20" class="edge">
<title>Node1&#45;&gt;Node20</title>
<path fill="none" stroke="#191970" d="M133.1368,-733.1274C156.5431,-737.9067 181.9928,-743.1032 203.3564,-747.4654"/>
<polygon fill="#191970" stroke="#191970" points="133.7465,-729.6798 123.2485,-731.1083 132.3461,-736.5383 133.7465,-729.6798"/>
</g>
<!-- Node22 -->
<g id="node22" class="node">
<title>Node22</title>
<g id="a_node22"><a xlink:href="../../d3/d87/classG4GDMLRead.html#a3fdd0554aac0baadb82390f27a9783cf" target="_top" xlink:title="G4GDMLRead::GeneratePhysvolName">
<polygon fill="none" stroke="#000000" points="382,-708.5 382,-728.5 590,-728.5 590,-708.5 382,-708.5"/>
<text text-anchor="middle" x="486" y="-715.5" font-family="FreeSans" font-size="10.00" fill="#000000">G4GDMLRead::GeneratePhysvolName</text>
</a>
</g>
</g>
<!-- Node1&#45;&gt;Node22 -->
<g id="edge22" class="edge">
<title>Node1&#45;&gt;Node22</title>
<path fill="none" stroke="#191970" d="M133.4389,-718.5C201.604,-718.5 304.7452,-718.5 381.8849,-718.5"/>
<polygon fill="#191970" stroke="#191970" points="133.226,-715.0001 123.2259,-718.5 133.2259,-722.0001 133.226,-715.0001"/>
</g>
<!-- Node32 -->
<g id="node32" class="node">
<title>Node32</title>
<g id="a_node32"><a xlink:href="../../d6/dfb/classG4VUserParallelWorld.html#a304248e8ea13f78c16014bae37d4a3fe" target="_top" xlink:title="G4VUserParallelWorld\l::GetWorld">
<polygon fill="none" stroke="#000000" points="189.5,-377.5 189.5,-409.5 315.5,-409.5 315.5,-377.5 189.5,-377.5"/>
<text text-anchor="start" x="197.5" y="-396.5" font-family="FreeSans" font-size="10.00" fill="#000000">G4VUserParallelWorld</text>
<text text-anchor="middle" x="252.5" y="-384.5" font-family="FreeSans" font-size="10.00" fill="#000000">::GetWorld</text>
</a>
</g>
</g>
<!-- Node1&#45;&gt;Node32 -->
<g id="edge35" class="edge">
<title>Node1&#45;&gt;Node32</title>
<path fill="none" stroke="#191970" d="M76.2496,-693.4024C113.7498,-629.5933 211.9582,-462.4848 242.9711,-409.7141"/>
<polygon fill="#191970" stroke="#191970" points="73.021,-691.9884 70.9717,-702.3832 79.056,-695.5352 73.021,-691.9884"/>
</g>
<!-- Node48 -->
<g id="node48" class="node">
<title>Node48</title>
<g id="a_node48"><a xlink:href="../../d3/d87/classG4GDMLRead.html#ac9a0b70b8049eda6f832623c8ac02390" target="_top" xlink:title="G4GDMLRead::StripNames">
<polygon fill="none" stroke="#000000" points="177,-160.5 177,-180.5 328,-180.5 328,-160.5 177,-160.5"/>
<text text-anchor="middle" x="252.5" y="-167.5" font-family="FreeSans" font-size="10.00" fill="#000000">G4GDMLRead::StripNames</text>
</a>
</g>
</g>
<!-- Node1&#45;&gt;Node48 -->
<g id="edge51" class="edge">
<title>Node1&#45;&gt;Node48</title>
<path fill="none" stroke="#191970" d="M67.1266,-692.598C80.2152,-633.9188 114.9697,-486.7548 159,-368.5 186.7231,-294.0424 231.4991,-209.1893 247.0059,-180.542"/>
<polygon fill="#191970" stroke="#191970" points="63.6792,-691.9782 64.9375,-702.4981 70.5141,-693.4896 63.6792,-691.9782"/>
</g>
<!-- Node3 -->
<g id="node3" class="node">
<title>Node3</title>
<g id="a_node3"><a xlink:href="../../d4/daa/classG4RunManager.html#a2e8622295d194ab03d48a9447c22521c" target="_top" xlink:title="G4RunManager::BeamOn">
<polygon fill="none" stroke="#000000" points="414,-963.5 414,-983.5 558,-983.5 558,-963.5 414,-963.5"/>
<text text-anchor="middle" x="486" y="-970.5" font-family="FreeSans" font-size="10.00" fill="#000000">G4RunManager::BeamOn</text>
</a>
</g>
</g>
<!-- Node2&#45;&gt;Node3 -->
<g id="edge2" class="edge">
<title>Node2&#45;&gt;Node3</title>
<path fill="none" stroke="#191970" d="M286.3649,-846.1097C337.606,-878.8075 432.8319,-939.5726 470.2869,-963.4732"/>
<polygon fill="#191970" stroke="#191970" points="288.2458,-843.1581 277.9331,-840.7293 284.4803,-849.059 288.2458,-843.1581"/>
</g>
<!-- Node18 -->
<g id="node18" class="node">
<title>Node18</title>
<g id="a_node18"><a xlink:href="../../d7/dcf/classG4RunMessenger.html#aeef7c7062232da161237e3642a24fbf2" target="_top" xlink:title="G4RunMessenger::SetNewValue">
<polygon fill="none" stroke="#000000" points="626,-814.5 626,-834.5 804,-834.5 804,-814.5 626,-814.5"/>
<text text-anchor="middle" x="715" y="-821.5" font-family="FreeSans" font-size="10.00" fill="#000000">G4RunMessenger::SetNewValue</text>
</a>
</g>
</g>
<!-- Node2&#45;&gt;Node18 -->
<g id="edge19" class="edge">
<title>Node2&#45;&gt;Node18</title>
<path fill="none" stroke="#191970" d="M356.3857,-827.9911C365.0499,-828.1965 373.6749,-828.3715 382,-828.5 474.4334,-829.9272 497.5674,-829.9785 590,-828.5 601.6147,-828.3142 613.8341,-828.0314 625.8983,-827.7002"/>
<polygon fill="#191970" stroke="#191970" points="356.2966,-824.4879 346.2123,-827.7371 356.1218,-831.4857 356.2966,-824.4879"/>
</g>
<!-- Node19 -->
<g id="node19" class="node">
<title>Node19</title>
<g id="a_node19"><a xlink:href="../../de/d16/classG4MTRunManager.html#aaed6b0333ff14c072ae5153d74083e33" target="_top" xlink:title="G4MTRunManager::Construct\lScoringWorlds">
<polygon fill="none" stroke="#000000" points="403.5,-786.5 403.5,-818.5 568.5,-818.5 568.5,-786.5 403.5,-786.5"/>
<text text-anchor="start" x="411.5" y="-805.5" font-family="FreeSans" font-size="10.00" fill="#000000">G4MTRunManager::Construct</text>
<text text-anchor="middle" x="486" y="-793.5" font-family="FreeSans" font-size="10.00" fill="#000000">ScoringWorlds</text>
</a>
</g>
</g>
<!-- Node2&#45;&gt;Node19 -->
<g id="edge18" class="edge">
<title>Node2&#45;&gt;Node19</title>
<path fill="none" stroke="#191970" d="M356.3883,-814.7118C372.0892,-813.2325 388.1041,-811.7236 403.2787,-810.2939"/>
<polygon fill="#191970" stroke="#191970" points="355.7555,-811.2558 346.128,-815.6785 356.4122,-818.225 355.7555,-811.2558"/>
</g>
<!-- Node4 -->
<g id="node4" class="node">
<title>Node4</title>
<g id="a_node4"><a xlink:href="../../d2/d11/classGammaKnifeController.html#a9c6d1498cab6c2e2e801760c995ba7aa" target="_top" xlink:title="GammaKnifeController\l::BeamOn">
<polygon fill="none" stroke="#000000" points="649,-1159.5 649,-1191.5 781,-1191.5 781,-1159.5 649,-1159.5"/>
<text text-anchor="start" x="657" y="-1178.5" font-family="FreeSans" font-size="10.00" fill="#000000">GammaKnifeController</text>
<text text-anchor="middle" x="715" y="-1166.5" font-family="FreeSans" font-size="10.00" fill="#000000">::BeamOn</text>
</a>
</g>
</g>
<!-- Node3&#45;&gt;Node4 -->
<g id="edge3" class="edge">
<title>Node3&#45;&gt;Node4</title>
<path fill="none" stroke="#191970" d="M496.5683,-992.332C517.0825,-1027.2497 565.6323,-1102.3115 626,-1144.5 634.5833,-1150.4985 644.4374,-1155.4352 654.3905,-1159.4662"/>
<polygon fill="#191970" stroke="#191970" points="499.566,-990.524 491.5392,-983.6087 493.5016,-994.0202 499.566,-990.524"/>
</g>
<!-- Node6 -->
<g id="node6" class="node">
<title>Node6</title>
<g id="a_node6"><a xlink:href="../../d6/dfa/classG4BlineTracer.html#a101e07bb8610d82a5fb2b3b0fea44cf7" target="_top" xlink:title="G4BlineTracer::ComputeBlines">
<polygon fill="none" stroke="#000000" points="630,-1114.5 630,-1134.5 800,-1134.5 800,-1114.5 630,-1114.5"/>
<text text-anchor="middle" x="715" y="-1121.5" font-family="FreeSans" font-size="10.00" fill="#000000">G4BlineTracer::ComputeBlines</text>
</a>
</g>
</g>
<!-- Node3&#45;&gt;Node6 -->
<g id="edge5" class="edge">
<title>Node3&#45;&gt;Node6</title>
<path fill="none" stroke="#191970" d="M500.2955,-991.5515C523.5656,-1019.6745 572.4504,-1073.7009 626,-1102.5 635.3919,-1107.551 645.964,-1111.4651 656.4551,-1114.4913"/>
<polygon fill="#191970" stroke="#191970" points="502.9445,-989.2614 493.9193,-983.7119 497.5139,-993.6783 502.9445,-989.2614"/>
</g>
<!-- Node8 -->
<g id="node8" class="node">
<title>Node8</title>
<g id="a_node8"><a xlink:href="../../d3/db3/classG4WorkerRunManager.html#a7842c4718bc1dac68e953d55f2b8ff41" target="_top" xlink:title="G4WorkerRunManager\l::DoWork">
<polygon fill="none" stroke="#000000" points="649.5,-1060.5 649.5,-1092.5 780.5,-1092.5 780.5,-1060.5 649.5,-1060.5"/>
<text text-anchor="start" x="657.5" y="-1079.5" font-family="FreeSans" font-size="10.00" fill="#000000">G4WorkerRunManager</text>
<text text-anchor="middle" x="715" y="-1067.5" font-family="FreeSans" font-size="10.00" fill="#000000">::DoWork</text>
</a>
</g>
</g>
<!-- Node3&#45;&gt;Node8 -->
<g id="edge7" class="edge">
<title>Node3&#45;&gt;Node8</title>
<path fill="none" stroke="#191970" d="M509.8078,-989.0495C536.9935,-1006.2542 583.2462,-1033.872 626,-1051.5 633.864,-1054.7424 642.2865,-1057.7138 650.6992,-1060.3875"/>
<polygon fill="#191970" stroke="#191970" points="511.6625,-986.0811 501.3518,-983.6436 507.892,-991.9789 511.6625,-986.0811"/>
</g>
<!-- Node10 -->
<g id="node10" class="node">
<title>Node10</title>
<g id="a_node10"><a xlink:href="../../dd/d36/pymodG4run_8cc.html#a40df4755f58bb0bd961be91b7372bd01" target="_top" xlink:title="export_G4RunManager">
<polygon fill="none" stroke="#000000" points="648.5,-1021.5 648.5,-1041.5 781.5,-1041.5 781.5,-1021.5 648.5,-1021.5"/>
<text text-anchor="middle" x="715" y="-1028.5" font-family="FreeSans" font-size="10.00" fill="#000000">export_G4RunManager</text>
</a>
</g>
</g>
<!-- Node3&#45;&gt;Node10 -->
<g id="edge9" class="edge">
<title>Node3&#45;&gt;Node10</title>
<path fill="none" stroke="#191970" d="M529.5168,-986.3645C557.0608,-994.3225 593.4853,-1004.5085 626,-1012.5 638.7346,-1015.6299 652.5671,-1018.7276 665.447,-1021.4848"/>
<polygon fill="#191970" stroke="#191970" points="530.3739,-982.9688 519.7945,-983.5416 528.422,-989.6912 530.3739,-982.9688"/>
</g>
<!-- Node12 -->
<g id="node12" class="node">
<title>Node12</title>
<g id="a_node12"><a xlink:href="../../de/d16/classG4MTRunManager.html#a940295ba3e5d03a139c4cee22a9bf95a" target="_top" xlink:title="G4MTRunManager::Initialize">
<polygon fill="none" stroke="#000000" points="636,-982.5 636,-1002.5 794,-1002.5 794,-982.5 636,-982.5"/>
<text text-anchor="middle" x="715" y="-989.5" font-family="FreeSans" font-size="10.00" fill="#000000">G4MTRunManager::Initialize</text>
</a>
</g>
</g>
<!-- Node3&#45;&gt;Node12 -->
<g id="edge11" class="edge">
<title>Node3&#45;&gt;Node12</title>
<path fill="none" stroke="#191970" d="M568.1114,-980.3127C590.1022,-982.1373 613.8299,-984.106 635.6675,-985.9178"/>
<polygon fill="#191970" stroke="#191970" points="568.3979,-976.8246 558.1427,-979.4856 567.819,-983.8006 568.3979,-976.8246"/>
</g>
<!-- Node14 -->
<g id="node14" class="node">
<title>Node14</title>
<g id="a_node14"><a xlink:href="../../dc/d4b/ml2_8cc.html#a0ddf1224851353fc92bfbff6f499fa97" target="_top" xlink:title="main">
<polygon fill="none" stroke="#000000" points="694.5,-943.5 694.5,-963.5 735.5,-963.5 735.5,-943.5 694.5,-943.5"/>
<text text-anchor="middle" x="715" y="-950.5" font-family="FreeSans" font-size="10.00" fill="#000000">main</text>
</a>
</g>
</g>
<!-- Node3&#45;&gt;Node14 -->
<g id="edge13" class="edge">
<title>Node3&#45;&gt;Node14</title>
<path fill="none" stroke="#191970" d="M568.279,-966.3141C613.5676,-962.3587 666.1776,-957.764 694.4672,-955.2933"/>
<polygon fill="#191970" stroke="#191970" points="567.8002,-962.8425 558.1427,-967.1993 568.4093,-969.8159 567.8002,-962.8425"/>
</g>
<!-- Node15 -->
<g id="node15" class="node">
<title>Node15</title>
<g id="a_node15"><a xlink:href="../../d0/d78/classPHG4Reco.html#a6d817542976ebb31fc3577289e9e77b0" target="_top" xlink:title="event processing method">
<polygon fill="none" stroke="#000000" points="640.5,-904.5 640.5,-924.5 789.5,-924.5 789.5,-904.5 640.5,-904.5"/>
<text text-anchor="middle" x="715" y="-911.5" font-family="FreeSans" font-size="10.00" fill="#000000">PHG4Reco::process_event</text>
</a>
</g>
</g>
<!-- Node3&#45;&gt;Node15 -->
<g id="edge14" class="edge">
<title>Node3&#45;&gt;Node15</title>
<path fill="none" stroke="#191970" d="M529.8247,-960.677C557.3469,-952.777 593.6376,-942.6383 626,-934.5 639.6691,-931.0626 654.5909,-927.5979 668.2422,-924.5405"/>
<polygon fill="#191970" stroke="#191970" points="528.7446,-957.3458 520.1051,-963.4784 530.6833,-964.0719 528.7446,-957.3458"/>
</g>
<!-- Node16 -->
<g id="node16" class="node">
<title>Node16</title>
<g id="a_node16"><a xlink:href="../../db/d16/classG4AdjointSimManager.html#a36783373c75cd61d440156d98abe6473" target="_top" xlink:title="G4AdjointSimManager\l::RunAdjointSimulation">
<polygon fill="none" stroke="#000000" points="649,-853.5 649,-885.5 781,-885.5 781,-853.5 649,-853.5"/>
<text text-anchor="start" x="657" y="-872.5" font-family="FreeSans" font-size="10.00" fill="#000000">G4AdjointSimManager</text>
<text text-anchor="middle" x="715" y="-860.5" font-family="FreeSans" font-size="10.00" fill="#000000">::RunAdjointSimulation</text>
</a>
</g>
</g>
<!-- Node3&#45;&gt;Node16 -->
<g id="edge15" class="edge">
<title>Node3&#45;&gt;Node16</title>
<path fill="none" stroke="#191970" d="M509.8418,-958.0323C537.0581,-940.9013 583.3383,-913.3497 626,-895.5 634.6129,-891.8964 643.8915,-888.591 653.092,-885.6338"/>
<polygon fill="#191970" stroke="#191970" points="507.9376,-955.0954 501.3755,-963.4134 511.6925,-961.0031 507.9376,-955.0954"/>
</g>
<!-- Node3&#45;&gt;Node18 -->
<g id="edge17" class="edge">
<title>Node3&#45;&gt;Node18</title>
<path fill="none" stroke="#191970" d="M500.2235,-955.3128C523.3949,-927.0039 572.1469,-872.7276 626,-844.5 633.8549,-840.3828 642.5321,-837.1098 651.2959,-834.5087"/>
<polygon fill="#191970" stroke="#191970" points="497.4147,-953.2205 493.8763,-963.207 502.8701,-957.6068 497.4147,-953.2205"/>
</g>
<!-- Node5 -->
<g id="node5" class="node">
<title>Node5</title>
<g id="a_node5"><a xlink:href="../../dd/dfe/classGammaKnifeMessenger.html#ab8e6d15aefdd7f105ab498174587a53e" target="_top" xlink:title="GammaKnifeMessenger\l::SetNewValue">
<polygon fill="none" stroke="#000000" points="844,-1162.5 844,-1194.5 982,-1194.5 982,-1162.5 844,-1162.5"/>
<text text-anchor="start" x="852" y="-1181.5" font-family="FreeSans" font-size="10.00" fill="#000000">GammaKnifeMessenger</text>
<text text-anchor="middle" x="913" y="-1169.5" font-family="FreeSans" font-size="10.00" fill="#000000">::SetNewValue</text>
</a>
</g>
</g>
<!-- Node4&#45;&gt;Node5 -->
<g id="edge4" class="edge">
<title>Node4&#45;&gt;Node5</title>
<path fill="none" stroke="#191970" d="M791.2584,-1176.6554C808.552,-1176.9175 826.8243,-1177.1943 843.8062,-1177.4516"/>
<polygon fill="#191970" stroke="#191970" points="791.2583,-1173.1551 781.2064,-1176.5031 791.1522,-1180.1543 791.2583,-1173.1551"/>
</g>
<!-- Node7 -->
<g id="node7" class="node">
<title>Node7</title>
<g id="a_node7"><a xlink:href="../../d3/da7/classG4BlineTracerMessenger.html#acf8db65272c7e08eadae136c2cb710c9" target="_top" xlink:title="G4BlineTracerMessenger\l::SetNewValue">
<polygon fill="none" stroke="#000000" points="842,-1111.5 842,-1143.5 984,-1143.5 984,-1111.5 842,-1111.5"/>
<text text-anchor="start" x="850" y="-1130.5" font-family="FreeSans" font-size="10.00" fill="#000000">G4BlineTracerMessenger</text>
<text text-anchor="middle" x="913" y="-1118.5" font-family="FreeSans" font-size="10.00" fill="#000000">::SetNewValue</text>
</a>
</g>
</g>
<!-- Node6&#45;&gt;Node7 -->
<g id="edge6" class="edge">
<title>Node6&#45;&gt;Node7</title>
<path fill="none" stroke="#191970" d="M810.2972,-1125.9439C820.9483,-1126.1053 831.6567,-1126.2675 841.9282,-1126.4232"/>
<polygon fill="#191970" stroke="#191970" points="810.1708,-1122.4417 800.1189,-1125.7897 810.0647,-1129.4409 810.1708,-1122.4417"/>
</g>
<!-- Node9 -->
<g id="node9" class="node">
<title>Node9</title>
<g id="a_node9"><a xlink:href="../../de/da2/classG4MTRunManagerKernel.html#ae882e6568e1ba24a8506ca216d565031" target="_top" xlink:title="G4MTRunManagerKernel\l::StartThread">
<polygon fill="none" stroke="#000000" points="842.5,-1060.5 842.5,-1092.5 983.5,-1092.5 983.5,-1060.5 842.5,-1060.5"/>
<text text-anchor="start" x="850.5" y="-1079.5" font-family="FreeSans" font-size="10.00" fill="#000000">G4MTRunManagerKernel</text>
<text text-anchor="middle" x="913" y="-1067.5" font-family="FreeSans" font-size="10.00" fill="#000000">::StartThread</text>
</a>
</g>
</g>
<!-- Node8&#45;&gt;Node9 -->
<g id="edge8" class="edge">
<title>Node8&#45;&gt;Node9</title>
<path fill="none" stroke="#191970" d="M791.0317,-1076.5C807.9219,-1076.5 825.7561,-1076.5 842.4171,-1076.5"/>
<polygon fill="#191970" stroke="#191970" points="790.6561,-1073.0001 780.6561,-1076.5 790.6561,-1080.0001 790.6561,-1073.0001"/>
</g>
<!-- Node11 -->
<g id="node11" class="node">
<title>Node11</title>
<g id="a_node11"><a xlink:href="../../dd/d36/pymodG4run_8cc.html#a6d23b1bd4c250a6083c97cde722122ab" target="_top" xlink:title="BOOST_PYTHON_MODULE">
<polygon fill="none" stroke="#000000" points="840,-1021.5 840,-1041.5 986,-1041.5 986,-1021.5 840,-1021.5"/>
<text text-anchor="middle" x="913" y="-1028.5" font-family="FreeSans" font-size="10.00" fill="#000000">BOOST_PYTHON_MODULE</text>
</a>
</g>
</g>
<!-- Node10&#45;&gt;Node11 -->
<g id="edge10" class="edge">
<title>Node10&#45;&gt;Node11</title>
<path fill="none" stroke="#191970" d="M791.952,-1031.5C807.663,-1031.5 824.1545,-1031.5 839.7325,-1031.5"/>
<polygon fill="#191970" stroke="#191970" points="791.7578,-1028.0001 781.7577,-1031.5 791.7577,-1035.0001 791.7578,-1028.0001"/>
</g>
<!-- Node13 -->
<g id="node13" class="node">
<title>Node13</title>
<g id="a_node13"><a xlink:href="../../dc/d7e/extended_2parallel_2TBB_2B2b_2exampleB2b_8cc.html#a3c04138a5bfe5d72780bb7e82a18e627" target="_top" xlink:title="main">
<polygon fill="none" stroke="#000000" points="892.5,-982.5 892.5,-1002.5 933.5,-1002.5 933.5,-982.5 892.5,-982.5"/>
<text text-anchor="middle" x="913" y="-989.5" font-family="FreeSans" font-size="10.00" fill="#000000">main</text>
</a>
</g>
</g>
<!-- Node12&#45;&gt;Node13 -->
<g id="edge12" class="edge">
<title>Node12&#45;&gt;Node13</title>
<path fill="none" stroke="#191970" d="M804.184,-992.5C836.85,-992.5 870.9556,-992.5 892.0863,-992.5"/>
<polygon fill="#191970" stroke="#191970" points="804.1085,-989.0001 794.1085,-992.5 804.1084,-996.0001 804.1085,-989.0001"/>
</g>
<!-- Node17 -->
<g id="node17" class="node">
<title>Node17</title>
<g id="a_node17"><a xlink:href="../../d6/d97/classG4AdjointSimMessenger.html#a5bfcad72a393216a5db8742d7d8556af" target="_top" xlink:title="G4AdjointSimMessenger\l::SetNewValue">
<polygon fill="none" stroke="#000000" points="842.5,-853.5 842.5,-885.5 983.5,-885.5 983.5,-853.5 842.5,-853.5"/>
<text text-anchor="start" x="850.5" y="-872.5" font-family="FreeSans" font-size="10.00" fill="#000000">G4AdjointSimMessenger</text>
<text text-anchor="middle" x="913" y="-860.5" font-family="FreeSans" font-size="10.00" fill="#000000">::SetNewValue</text>
</a>
</g>
</g>
<!-- Node16&#45;&gt;Node17 -->
<g id="edge16" class="edge">
<title>Node16&#45;&gt;Node17</title>
<path fill="none" stroke="#191970" d="M791.5049,-869.5C808.263,-869.5 825.9291,-869.5 842.4416,-869.5"/>
<polygon fill="#191970" stroke="#191970" points="791.2064,-866.0001 781.2064,-869.5 791.2064,-873.0001 791.2064,-866.0001"/>
</g>
<!-- Node21 -->
<g id="node21" class="node">
<title>Node21</title>
<g id="a_node21"><a xlink:href="../../df/d79/pymodG4geometry_8cc.html#a015bf5fe322d79f1de02b734fde3252b" target="_top" xlink:title="BOOST_PYTHON_MODULE">
<polygon fill="none" stroke="#000000" points="413,-747.5 413,-767.5 559,-767.5 559,-747.5 413,-747.5"/>
<text text-anchor="middle" x="486" y="-754.5" font-family="FreeSans" font-size="10.00" fill="#000000">BOOST_PYTHON_MODULE</text>
</a>
</g>
</g>
<!-- Node20&#45;&gt;Node21 -->
<g id="edge21" class="edge">
<title>Node20&#45;&gt;Node21</title>
<path fill="none" stroke="#191970" d="M339.8019,-757.5C363.8834,-757.5 389.7532,-757.5 412.9372,-757.5"/>
<polygon fill="#191970" stroke="#191970" points="339.6038,-754.0001 329.6038,-757.5 339.6037,-761.0001 339.6038,-754.0001"/>
</g>
<!-- Node23 -->
<g id="node23" class="node">
<title>Node23</title>
<g id="a_node23"><a xlink:href="../../d6/db8/classG4GDMLReadStructure.html#a9231fbdfd90ae64f5608686d7a1bfcc5" target="_top" xlink:title="G4GDMLReadStructure\l::DivisionvolRead">
<polygon fill="none" stroke="#000000" points="847,-725.5 847,-757.5 979,-757.5 979,-725.5 847,-725.5"/>
<text text-anchor="start" x="855" y="-744.5" font-family="FreeSans" font-size="10.00" fill="#000000">G4GDMLReadStructure</text>
<text text-anchor="middle" x="913" y="-732.5" font-family="FreeSans" font-size="10.00" fill="#000000">::DivisionvolRead</text>
</a>
</g>
</g>
<!-- Node22&#45;&gt;Node23 -->
<g id="edge23" class="edge">
<title>Node22&#45;&gt;Node23</title>
<path fill="none" stroke="#191970" d="M600.6439,-724.6752C679.3829,-728.9164 781.1431,-734.3976 846.7443,-737.9312"/>
<polygon fill="#191970" stroke="#191970" points="600.3566,-721.1547 590.1828,-724.1117 599.9801,-728.1446 600.3566,-721.1547"/>
</g>
<!-- Node28 -->
<g id="node28" class="node">
<title>Node28</title>
<g id="a_node28"><a xlink:href="../../d6/db8/classG4GDMLReadStructure.html#a58817826c555fe93dac9d415e9ea8746" target="_top" xlink:title="G4GDMLReadStructure\l::PhysvolRead">
<polygon fill="none" stroke="#000000" points="847,-623.5 847,-655.5 979,-655.5 979,-623.5 847,-623.5"/>
<text text-anchor="start" x="855" y="-642.5" font-family="FreeSans" font-size="10.00" fill="#000000">G4GDMLReadStructure</text>
<text text-anchor="middle" x="913" y="-630.5" font-family="FreeSans" font-size="10.00" fill="#000000">::PhysvolRead</text>
</a>
</g>
</g>
<!-- Node22&#45;&gt;Node28 -->
<g id="edge28" class="edge">
<title>Node22&#45;&gt;Node28</title>
<path fill="none" stroke="#191970" d="M576.2302,-705.2499C580.9713,-703.5569 585.592,-701.6493 590,-699.5 609.2418,-690.1179 606.3836,-676.0714 626,-667.5 696.8766,-636.5305 786.7373,-632.7437 846.8522,-634.6093"/>
<polygon fill="#191970" stroke="#191970" points="574.8028,-702.0326 566.3591,-708.4322 576.9507,-708.6949 574.8028,-702.0326"/>
</g>
<!-- Node30 -->
<g id="node30" class="node">
<title>Node30</title>
<g id="a_node30"><a xlink:href="../../d6/db8/classG4GDMLReadStructure.html#a6b29831571b7705f1a52698da4415b9a" target="_top" xlink:title="G4GDMLReadStructure\l::ReplicaRead">
<polygon fill="none" stroke="#000000" points="649,-676.5 649,-708.5 781,-708.5 781,-676.5 649,-676.5"/>
<text text-anchor="start" x="657" y="-695.5" font-family="FreeSans" font-size="10.00" fill="#000000">G4GDMLReadStructure</text>
<text text-anchor="middle" x="715" y="-683.5" font-family="FreeSans" font-size="10.00" fill="#000000">::ReplicaRead</text>
</a>
</g>
</g>
<!-- Node22&#45;&gt;Node30 -->
<g id="edge32" class="edge">
<title>Node22&#45;&gt;Node30</title>
<path fill="none" stroke="#191970" d="M584.18,-707.3529C606.0294,-704.8722 628.6882,-702.2996 648.8856,-700.0064"/>
<polygon fill="#191970" stroke="#191970" points="583.7511,-703.879 574.2098,-708.4849 584.5409,-710.8344 583.7511,-703.879"/>
</g>
<!-- Node24 -->
<g id="node24" class="node">
<title>Node24</title>
<g id="a_node24"><a xlink:href="../../d6/db8/classG4GDMLReadStructure.html#a27f2effadb9c1ba11233376174f72ab8" target="_top" xlink:title="G4GDMLReadStructure\l::Volume_contentRead">
<polygon fill="none" stroke="#000000" points="1022,-674.5 1022,-706.5 1154,-706.5 1154,-674.5 1022,-674.5"/>
<text text-anchor="start" x="1030" y="-693.5" font-family="FreeSans" font-size="10.00" fill="#000000">G4GDMLReadStructure</text>
<text text-anchor="middle" x="1088" y="-681.5" font-family="FreeSans" font-size="10.00" fill="#000000">::Volume_contentRead</text>
</a>
</g>
</g>
<!-- Node23&#45;&gt;Node24 -->
<g id="edge24" class="edge">
<title>Node23&#45;&gt;Node24</title>
<path fill="none" stroke="#191970" d="M978.2219,-722.4925C996.2415,-717.241 1015.6116,-711.596 1032.9891,-706.5317"/>
<polygon fill="#191970" stroke="#191970" points="976.9924,-719.2051 968.3711,-725.3633 978.951,-725.9255 976.9924,-719.2051"/>
</g>
<!-- Node25 -->
<g id="node25" class="node">
<title>Node25</title>
<g id="a_node25"><a xlink:href="../../d5/dfe/classG03ColorReader.html#a13aa26bc789bb503ce2e277d4035a49f" target="_top" xlink:title="G03ColorReader::VolumeRead">
<polygon fill="none" stroke="#000000" points="1190,-719.5 1190,-739.5 1359,-739.5 1359,-719.5 1190,-719.5"/>
<text text-anchor="middle" x="1274.5" y="-726.5" font-family="FreeSans" font-size="10.00" fill="#000000">G03ColorReader::VolumeRead</text>
</a>
</g>
</g>
<!-- Node24&#45;&gt;Node25 -->
<g id="edge25" class="edge">
<title>Node24&#45;&gt;Node25</title>
<path fill="none" stroke="#191970" d="M1163.943,-706.3808C1185.0709,-710.799 1207.4273,-715.4741 1226.4659,-719.4553"/>
<polygon fill="#191970" stroke="#191970" points="1164.5201,-702.9259 1154.0154,-704.3048 1163.0872,-709.7777 1164.5201,-702.9259"/>
</g>
<!-- Node26 -->
<g id="node26" class="node">
<title>Node26</title>
<g id="a_node26"><a xlink:href="../../d6/db8/classG4GDMLReadStructure.html#ad3d6d13740e8a033f6aa9743d96e9269" target="_top" xlink:title="G4GDMLReadStructure\l::VolumeRead">
<polygon fill="none" stroke="#000000" points="1208.5,-668.5 1208.5,-700.5 1340.5,-700.5 1340.5,-668.5 1208.5,-668.5"/>
<text text-anchor="start" x="1216.5" y="-687.5" font-family="FreeSans" font-size="10.00" fill="#000000">G4GDMLReadStructure</text>
<text text-anchor="middle" x="1274.5" y="-675.5" font-family="FreeSans" font-size="10.00" fill="#000000">::VolumeRead</text>
</a>
</g>
</g>
<!-- Node24&#45;&gt;Node26 -->
<g id="edge26" class="edge">
<title>Node24&#45;&gt;Node26</title>
<path fill="none" stroke="#191970" d="M1164.0487,-688.0534C1178.7037,-687.5819 1193.9458,-687.0916 1208.2589,-686.6311"/>
<polygon fill="#191970" stroke="#191970" points="1163.8976,-684.5563 1154.0154,-688.3762 1164.1228,-691.5527 1163.8976,-684.5563"/>
</g>
<!-- Node27 -->
<g id="node27" class="node">
<title>Node27</title>
<g id="a_node27"><a xlink:href="../../d6/db8/classG4GDMLReadStructure.html#a28df8d1a09fc67d0dcfef924a0dedbef" target="_top" xlink:title="G4GDMLReadStructure\l::StructureRead">
<polygon fill="none" stroke="#000000" points="1395,-645.5 1395,-677.5 1527,-677.5 1527,-645.5 1395,-645.5"/>
<text text-anchor="start" x="1403" y="-664.5" font-family="FreeSans" font-size="10.00" fill="#000000">G4GDMLReadStructure</text>
<text text-anchor="middle" x="1461" y="-652.5" font-family="FreeSans" font-size="10.00" fill="#000000">::StructureRead</text>
</a>
</g>
</g>
<!-- Node26&#45;&gt;Node27 -->
<g id="edge27" class="edge">
<title>Node26&#45;&gt;Node27</title>
<path fill="none" stroke="#191970" d="M1350.5487,-675.1213C1365.2037,-673.314 1380.4458,-671.4343 1394.7589,-669.6691"/>
<polygon fill="#191970" stroke="#191970" points="1350.0118,-671.661 1340.5154,-676.3587 1350.8686,-678.6083 1350.0118,-671.661"/>
</g>
<!-- Node28&#45;&gt;Node24 -->
<g id="edge31" class="edge">
<title>Node28&#45;&gt;Node24</title>
<path fill="none" stroke="#191970" d="M978.2219,-658.5075C996.2415,-663.759 1015.6116,-669.404 1032.9891,-674.4683"/>
<polygon fill="#191970" stroke="#191970" points="978.951,-655.0745 968.3711,-655.6367 976.9924,-661.7949 978.951,-655.0745"/>
</g>
<!-- Node29 -->
<g id="node29" class="node">
<title>Node29</title>
<g id="a_node29"><a xlink:href="../../d6/db8/classG4GDMLReadStructure.html#a36d41595d6e4c1c44ba5f6064625b9e6" target="_top" xlink:title="G4GDMLReadStructure\l::AssemblyRead">
<polygon fill="none" stroke="#000000" points="1022,-623.5 1022,-655.5 1154,-655.5 1154,-623.5 1022,-623.5"/>
<text text-anchor="start" x="1030" y="-642.5" font-family="FreeSans" font-size="10.00" fill="#000000">G4GDMLReadStructure</text>
<text text-anchor="middle" x="1088" y="-630.5" font-family="FreeSans" font-size="10.00" fill="#000000">::AssemblyRead</text>
</a>
</g>
</g>
<!-- Node28&#45;&gt;Node29 -->
<g id="edge29" class="edge">
<title>Node28&#45;&gt;Node29</title>
<path fill="none" stroke="#191970" d="M989.4003,-639.5C1000.1768,-639.5 1011.1815,-639.5 1021.7464,-639.5"/>
<polygon fill="#191970" stroke="#191970" points="989.16,-636.0001 979.16,-639.5 989.16,-643.0001 989.16,-636.0001"/>
</g>
<!-- Node29&#45;&gt;Node27 -->
<g id="edge30" class="edge">
<title>Node29&#45;&gt;Node27</title>
<path fill="none" stroke="#191970" d="M1164.4469,-644.0089C1232.2314,-648.0069 1330.2151,-653.7861 1394.7348,-657.5916"/>
<polygon fill="#191970" stroke="#191970" points="1164.4439,-640.5028 1154.2551,-643.4078 1164.0317,-647.4906 1164.4439,-640.5028"/>
</g>
<!-- Node31 -->
<g id="node31" class="node">
<title>Node31</title>
<g id="a_node31"><a xlink:href="../../d6/db8/classG4GDMLReadStructure.html#abd04f087c3dfd6546a1ada60cfb8dded" target="_top" xlink:title="G4GDMLReadStructure\l::ReplicavolRead">
<polygon fill="none" stroke="#000000" points="847,-674.5 847,-706.5 979,-706.5 979,-674.5 847,-674.5"/>
<text text-anchor="start" x="855" y="-693.5" font-family="FreeSans" font-size="10.00" fill="#000000">G4GDMLReadStructure</text>
<text text-anchor="middle" x="913" y="-681.5" font-family="FreeSans" font-size="10.00" fill="#000000">::ReplicavolRead</text>
</a>
</g>
</g>
<!-- Node30&#45;&gt;Node31 -->
<g id="edge33" class="edge">
<title>Node30&#45;&gt;Node31</title>
<path fill="none" stroke="#191970" d="M791.2611,-691.7297C809.594,-691.5445 829.0268,-691.3482 846.856,-691.1681"/>
<polygon fill="#191970" stroke="#191970" points="791.1705,-688.2303 781.2064,-691.8312 791.2413,-695.23 791.1705,-688.2303"/>
</g>
<!-- Node31&#45;&gt;Node24 -->
<g id="edge34" class="edge">
<title>Node31&#45;&gt;Node24</title>
<path fill="none" stroke="#191970" d="M989.4003,-690.5C1000.1768,-690.5 1011.1815,-690.5 1021.7464,-690.5"/>
<polygon fill="#191970" stroke="#191970" points="989.16,-687.0001 979.16,-690.5 989.16,-694.0001 989.16,-687.0001"/>
</g>
<!-- Node33 -->
<g id="node33" class="node">
<title>Node33</title>
<g id="a_node33"><a xlink:href="../../dd/d73/classHadrontherapyDetectorROGeometry.html#ab6bb56aec467cb3e7656d18e0d43c004" target="_top" xlink:title="HadrontherapyDetectorROGeometry\l::Construct">
<polygon fill="none" stroke="#000000" points="385.5,-657.5 385.5,-689.5 586.5,-689.5 586.5,-657.5 385.5,-657.5"/>
<text text-anchor="start" x="393.5" y="-676.5" font-family="FreeSans" font-size="10.00" fill="#000000">HadrontherapyDetectorROGeometry</text>
<text text-anchor="middle" x="486" y="-664.5" font-family="FreeSans" font-size="10.00" fill="#000000">::Construct</text>
</a>
</g>
</g>
<!-- Node32&#45;&gt;Node33 -->
<g id="edge36" class="edge">
<title>Node32&#45;&gt;Node33</title>
<path fill="none" stroke="#191970" d="M258.0093,-419.3915C270.4576,-471.3163 305.8062,-588.3331 382,-648.5 386.2993,-651.895 390.9888,-654.8395 395.9214,-657.3923"/>
<polygon fill="#191970" stroke="#191970" points="261.415,-418.5837 255.7567,-409.6263 254.5941,-420.1572 261.415,-418.5837"/>
</g>
<!-- Node34 -->
<g id="node34" class="node">
<title>Node34</title>
<g id="a_node34"><a xlink:href="../../df/dc2/classB02ImportanceDetectorConstruction.html#ab2c9c9d328ba9131debe72b32b345c3d" target="_top" xlink:title="B02ImportanceDetectorConstruction\l::Construct">
<polygon fill="none" stroke="#000000" points="385.5,-606.5 385.5,-638.5 586.5,-638.5 586.5,-606.5 385.5,-606.5"/>
<text text-anchor="start" x="393.5" y="-625.5" font-family="FreeSans" font-size="10.00" fill="#000000">B02ImportanceDetectorConstruction</text>
<text text-anchor="middle" x="486" y="-613.5" font-family="FreeSans" font-size="10.00" fill="#000000">::Construct</text>
</a>
</g>
</g>
<!-- Node32&#45;&gt;Node34 -->
<g id="edge37" class="edge">
<title>Node32&#45;&gt;Node34</title>
<path fill="none" stroke="#191970" d="M261.4935,-419.3736C278.1015,-463.1814 317.8601,-551.6573 382,-597.5 386.7589,-600.9014 391.9214,-603.8442 397.3159,-606.3898"/>
<polygon fill="#191970" stroke="#191970" points="264.6868,-417.9167 257.9449,-409.7437 258.1185,-420.3371 264.6868,-417.9167"/>
</g>
<!-- Node35 -->
<g id="node35" class="node">
<title>Node35</title>
<g id="a_node35"><a xlink:href="../../de/d94/classB03ImportanceDetectorConstruction.html#a709a790d18d01b459d913b94e14e131c" target="_top" xlink:title="B03ImportanceDetectorConstruction\l::Construct">
<polygon fill="none" stroke="#000000" points="385.5,-555.5 385.5,-587.5 586.5,-587.5 586.5,-555.5 385.5,-555.5"/>
<text text-anchor="start" x="393.5" y="-574.5" font-family="FreeSans" font-size="10.00" fill="#000000">B03ImportanceDetectorConstruction</text>
<text text-anchor="middle" x="486" y="-562.5" font-family="FreeSans" font-size="10.00" fill="#000000">::Construct</text>
</a>
</g>
</g>
<!-- Node32&#45;&gt;Node35 -->
<g id="edge38" class="edge">
<title>Node32&#45;&gt;Node35</title>
<path fill="none" stroke="#191970" d="M266.7876,-418.7967C287.5715,-453.1938 329.4601,-514.1319 382,-546.5 387.5336,-549.9091 393.4981,-552.8533 399.6723,-555.3961"/>
<polygon fill="#191970" stroke="#191970" points="269.5966,-416.6707 261.4938,-409.8446 263.5713,-420.2337 269.5966,-416.6707"/>
</g>
<!-- Node36 -->
<g id="node36" class="node">
<title>Node36</title>
<g id="a_node36"><a xlink:href="../../dd/d4f/classGB06ParallelWorldForSlices.html#a922be022faadd8ae148b8cbe2a9886bc" target="_top" xlink:title="GB06ParallelWorldForSlices\l::Construct">
<polygon fill="none" stroke="#000000" points="408.5,-504.5 408.5,-536.5 563.5,-536.5 563.5,-504.5 408.5,-504.5"/>
<text text-anchor="start" x="416.5" y="-523.5" font-family="FreeSans" font-size="10.00" fill="#000000">GB06ParallelWorldForSlices</text>
<text text-anchor="middle" x="486" y="-511.5" font-family="FreeSans" font-size="10.00" fill="#000000">::Construct</text>
</a>
</g>
</g>
<!-- Node32&#45;&gt;Node36 -->
<g id="edge39" class="edge">
<title>Node32&#45;&gt;Node36</title>
<path fill="none" stroke="#191970" d="M275.4013,-416.6827C299.7479,-440.0075 340.4073,-475.3296 382,-495.5 390.2709,-499.5109 399.2315,-502.9055 408.3061,-505.772"/>
<polygon fill="#191970" stroke="#191970" points="277.6965,-414.0324 268.0893,-409.5656 272.8141,-419.0486 277.6965,-414.0324"/>
</g>
<!-- Node37 -->
<g id="node37" class="node">
<title>Node37</title>
<g id="a_node37"><a xlink:href="../../dd/d4f/classGB06ParallelWorldForSlices.html#a2ef009221f3dd12e6f23b799c7db2a7b" target="_top" xlink:title="GB06ParallelWorldForSlices\l::ConstructSD">
<polygon fill="none" stroke="#000000" points="408.5,-453.5 408.5,-485.5 563.5,-485.5 563.5,-453.5 408.5,-453.5"/>
<text text-anchor="start" x="416.5" y="-472.5" font-family="FreeSans" font-size="10.00" fill="#000000">GB06ParallelWorldForSlices</text>
<text text-anchor="middle" x="486" y="-460.5" font-family="FreeSans" font-size="10.00" fill="#000000">::ConstructSD</text>
</a>
</g>
</g>
<!-- Node32&#45;&gt;Node37 -->
<g id="edge40" class="edge">
<title>Node32&#45;&gt;Node37</title>
<path fill="none" stroke="#191970" d="M298.5288,-413.4357C323.0215,-423.581 353.824,-435.6128 382,-444.5 392.0946,-447.684 402.8498,-450.6895 413.4711,-453.4382"/>
<polygon fill="#191970" stroke="#191970" points="299.7058,-410.1343 289.1296,-409.5071 297.0063,-416.5929 299.7058,-410.1343"/>
</g>
<!-- Node38 -->
<g id="node38" class="node">
<title>Node38</title>
<g id="a_node38"><a xlink:href="../../d3/dc8/classParallelWorld.html#a728f8503c498ea1508ae4bcfa5317ed8" target="_top" xlink:title="ParallelWorld::SetupChemistry\lGeometry">
<polygon fill="none" stroke="#000000" points="401,-402.5 401,-434.5 571,-434.5 571,-402.5 401,-402.5"/>
<text text-anchor="start" x="409" y="-421.5" font-family="FreeSans" font-size="10.00" fill="#000000">ParallelWorld::SetupChemistry</text>
<text text-anchor="middle" x="486" y="-409.5" font-family="FreeSans" font-size="10.00" fill="#000000">Geometry</text>
</a>
</g>
</g>
<!-- Node32&#45;&gt;Node38 -->
<g id="edge41" class="edge">
<title>Node32&#45;&gt;Node38</title>
<path fill="none" stroke="#191970" d="M325.7155,-401.3389C349.5486,-403.8906 376.2066,-406.7448 400.8366,-409.3819"/>
<polygon fill="#191970" stroke="#191970" points="326.0043,-397.8499 315.6885,-400.2654 325.259,-404.8101 326.0043,-397.8499"/>
</g>
<!-- Node40 -->
<g id="node40" class="node">
<title>Node40</title>
<g id="a_node40"><a xlink:href="../../d2/dc8/classExGflash2ParallelWorld.html#ad1e0a1d868e27fd965ca86805ebc58a7" target="_top" xlink:title="ExGflash2ParallelWorld\l::Construct">
<polygon fill="none" stroke="#000000" points="419.5,-351.5 419.5,-383.5 552.5,-383.5 552.5,-351.5 419.5,-351.5"/>
<text text-anchor="start" x="427.5" y="-370.5" font-family="FreeSans" font-size="10.00" fill="#000000">ExGflash2ParallelWorld</text>
<text text-anchor="middle" x="486" y="-358.5" font-family="FreeSans" font-size="10.00" fill="#000000">::Construct</text>
</a>
</g>
</g>
<!-- Node32&#45;&gt;Node40 -->
<g id="edge43" class="edge">
<title>Node32&#45;&gt;Node40</title>
<path fill="none" stroke="#191970" d="M325.6826,-385.3512C355.701,-382.0087 390.2055,-378.1666 419.4959,-374.9052"/>
<polygon fill="#191970" stroke="#191970" points="325.2397,-381.8788 315.6885,-386.464 326.0144,-388.8358 325.2397,-381.8788"/>
</g>
<!-- Node41 -->
<g id="node41" class="node">
<title>Node41</title>
<g id="a_node41"><a xlink:href="../../d1/de8/classExGflash3ParallelWorld.html#a954587cd3106958d3ad7d89a3bba315e" target="_top" xlink:title="ExGflash3ParallelWorld\l::Construct">
<polygon fill="none" stroke="#000000" points="419.5,-300.5 419.5,-332.5 552.5,-332.5 552.5,-300.5 419.5,-300.5"/>
<text text-anchor="start" x="427.5" y="-319.5" font-family="FreeSans" font-size="10.00" fill="#000000">ExGflash3ParallelWorld</text>
<text text-anchor="middle" x="486" y="-307.5" font-family="FreeSans" font-size="10.00" fill="#000000">::Construct</text>
</a>
</g>
</g>
<!-- Node32&#45;&gt;Node41 -->
<g id="edge44" class="edge">
<title>Node32&#45;&gt;Node41</title>
<path fill="none" stroke="#191970" d="M298.8277,-373.5591C323.2863,-363.4655 353.9662,-351.4823 382,-342.5 393.9635,-338.6668 406.8485,-335.0474 419.3373,-331.7956"/>
<polygon fill="#191970" stroke="#191970" points="297.3246,-370.3936 289.4371,-377.4674 300.0143,-376.8563 297.3246,-370.3936"/>
</g>
<!-- Node42 -->
<g id="node42" class="node">
<title>Node42</title>
<g id="a_node42"><a xlink:href="../../d3/d20/classPar01ParallelWorldForPion.html#aea18b6cf05920a81ba5cf634054c07d7" target="_top" xlink:title="Par01ParallelWorldForPion\l::Construct">
<polygon fill="none" stroke="#000000" points="412,-249.5 412,-281.5 560,-281.5 560,-249.5 412,-249.5"/>
<text text-anchor="start" x="420" y="-268.5" font-family="FreeSans" font-size="10.00" fill="#000000">Par01ParallelWorldForPion</text>
<text text-anchor="middle" x="486" y="-256.5" font-family="FreeSans" font-size="10.00" fill="#000000">::Construct</text>
</a>
</g>
</g>
<!-- Node32&#45;&gt;Node42 -->
<g id="edge45" class="edge">
<title>Node32&#45;&gt;Node42</title>
<path fill="none" stroke="#191970" d="M275.4389,-370.3943C299.8158,-347.1315 340.4992,-311.8588 382,-291.5 391.357,-286.9098 401.5969,-283.0836 411.8857,-279.9069"/>
<polygon fill="#191970" stroke="#191970" points="272.8617,-368.018 268.1169,-377.4911 277.7335,-373.0445 272.8617,-368.018"/>
</g>
<!-- Node43 -->
<g id="node43" class="node">
<title>Node43</title>
<g id="a_node43"><a xlink:href="../../d6/d7f/classRE01CalorimeterROGeometry.html#aa5dd2dc5d43880e43b043aecbad1b883" target="_top" xlink:title="RE01CalorimeterROGeometry\l::Construct">
<polygon fill="none" stroke="#000000" points="402.5,-198.5 402.5,-230.5 569.5,-230.5 569.5,-198.5 402.5,-198.5"/>
<text text-anchor="start" x="410.5" y="-217.5" font-family="FreeSans" font-size="10.00" fill="#000000">RE01CalorimeterROGeometry</text>
<text text-anchor="middle" x="486" y="-205.5" font-family="FreeSans" font-size="10.00" fill="#000000">::Construct</text>
</a>
</g>
</g>
<!-- Node32&#45;&gt;Node43 -->
<g id="edge46" class="edge">
<title>Node32&#45;&gt;Node43</title>
<path fill="none" stroke="#191970" d="M266.8294,-368.2707C287.662,-333.9524 329.6075,-273.1061 382,-240.5 388.3205,-236.5665 395.2048,-233.2275 402.3226,-230.3932"/>
<polygon fill="#191970" stroke="#191970" points="263.6221,-366.8166 261.5222,-377.2013 269.6397,-370.3927 263.6221,-366.8166"/>
</g>
<!-- Node44 -->
<g id="node44" class="node">
<title>Node44</title>
<g id="a_node44"><a xlink:href="../../da/d20/classRE04ParallelWorldConstruction.html#abd557ba9bc3c460fb5a2b384d6965f93" target="_top" xlink:title="RE04ParallelWorldConstruction\l::Construct">
<polygon fill="none" stroke="#000000" points="399.5,-147.5 399.5,-179.5 572.5,-179.5 572.5,-147.5 399.5,-147.5"/>
<text text-anchor="start" x="407.5" y="-166.5" font-family="FreeSans" font-size="10.00" fill="#000000">RE04ParallelWorldConstruction</text>
<text text-anchor="middle" x="486" y="-154.5" font-family="FreeSans" font-size="10.00" fill="#000000">::Construct</text>
</a>
</g>
</g>
<!-- Node32&#45;&gt;Node44 -->
<g id="edge47" class="edge">
<title>Node32&#45;&gt;Node44</title>
<path fill="none" stroke="#191970" d="M261.5377,-367.688C278.2124,-323.973 318.0687,-235.6331 382,-189.5 387.3577,-185.6338 393.2294,-182.34 399.3695,-179.534"/>
<polygon fill="#191970" stroke="#191970" points="258.1699,-366.7036 257.9739,-377.2966 264.733,-369.1379 258.1699,-366.7036"/>
</g>
<!-- Node45 -->
<g id="node45" class="node">
<title>Node45</title>
<g id="a_node45"><a xlink:href="../../db/d45/classRE05CalorimeterParallelWorld.html#afee374dc26ed345c9028d8ec517723cc" target="_top" xlink:title="RE05CalorimeterParallelWorld\l::Construct">
<polygon fill="none" stroke="#000000" points="402,-96.5 402,-128.5 570,-128.5 570,-96.5 402,-96.5"/>
<text text-anchor="start" x="410" y="-115.5" font-family="FreeSans" font-size="10.00" fill="#000000">RE05CalorimeterParallelWorld</text>
<text text-anchor="middle" x="486" y="-103.5" font-family="FreeSans" font-size="10.00" fill="#000000">::Construct</text>
</a>
</g>
</g>
<!-- Node32&#45;&gt;Node45 -->
<g id="edge48" class="edge">
<title>Node32&#45;&gt;Node45</title>
<path fill="none" stroke="#191970" d="M264.0462,-367.8587C291.9549,-306.3345 362.2305,-154.2572 382,-138.5 387.9671,-133.744 394.6905,-129.8444 401.7748,-126.6491"/>
<polygon fill="#191970" stroke="#191970" points="260.7292,-366.6993 259.7951,-377.2528 267.1067,-369.5852 260.7292,-366.6993"/>
</g>
<!-- Node46 -->
<g id="node46" class="node">
<title>Node46</title>
<g id="a_node46"><a xlink:href="../../d1/d0b/classRE06ParallelWorld.html#a247cff3ad5215a79880fe5bb7964bb9a" target="_top" xlink:title="RE06ParallelWorld::\lSetupGeometry">
<polygon fill="none" stroke="#000000" points="428.5,-45.5 428.5,-77.5 543.5,-77.5 543.5,-45.5 428.5,-45.5"/>
<text text-anchor="start" x="436.5" y="-64.5" font-family="FreeSans" font-size="10.00" fill="#000000">RE06ParallelWorld::</text>
<text text-anchor="middle" x="486" y="-52.5" font-family="FreeSans" font-size="10.00" fill="#000000">SetupGeometry</text>
</a>
</g>
</g>
<!-- Node32&#45;&gt;Node46 -->
<g id="edge49" class="edge">
<title>Node32&#45;&gt;Node46</title>
<path fill="none" stroke="#191970" d="M265.1746,-368.1147C283.9667,-330.0247 319.8143,-255.5998 346,-190.5 364.2535,-145.1204 345.7715,-119.3632 382,-86.5 394.7226,-74.9592 411.8292,-68.4945 428.4906,-64.9443"/>
<polygon fill="#191970" stroke="#191970" points="261.8663,-366.9085 260.5643,-377.423 268.1391,-370.0153 261.8663,-366.9085"/>
</g>
<!-- Node39 -->
<g id="node39" class="node">
<title>Node39</title>
<g id="a_node39"><a xlink:href="../../d3/dc8/classParallelWorld.html#a2c0eaa807cbc1cdbe9d79a99fb245aa0" target="_top" xlink:title="ParallelWorld::Construct">
<polygon fill="none" stroke="#000000" points="646,-408.5 646,-428.5 784,-428.5 784,-408.5 646,-408.5"/>
<text text-anchor="middle" x="715" y="-415.5" font-family="FreeSans" font-size="10.00" fill="#000000">ParallelWorld::Construct</text>
</a>
</g>
</g>
<!-- Node38&#45;&gt;Node39 -->
<g id="edge42" class="edge">
<title>Node38&#45;&gt;Node39</title>
<path fill="none" stroke="#191970" d="M581.4325,-418.5C602.9933,-418.5 625.4823,-418.5 645.7245,-418.5"/>
<polygon fill="#191970" stroke="#191970" points="581.2712,-415.0001 571.2711,-418.5 581.2711,-422.0001 581.2712,-415.0001"/>
</g>
<!-- Node47 -->
<g id="node47" class="node">
<title>Node47</title>
<g id="a_node47"><a xlink:href="../../d1/d0b/classRE06ParallelWorld.html#ad4f4595e424f194fa623c07050557d6b" target="_top" xlink:title="RE06ParallelWorld::\lConstruct">
<polygon fill="none" stroke="#000000" points="657.5,-51.5 657.5,-83.5 772.5,-83.5 772.5,-51.5 657.5,-51.5"/>
<text text-anchor="start" x="665.5" y="-70.5" font-family="FreeSans" font-size="10.00" fill="#000000">RE06ParallelWorld::</text>
<text text-anchor="middle" x="715" y="-58.5" font-family="FreeSans" font-size="10.00" fill="#000000">Construct</text>
</a>
</g>
</g>
<!-- Node46&#45;&gt;Node47 -->
<g id="edge50" class="edge">
<title>Node46&#45;&gt;Node47</title>
<path fill="none" stroke="#191970" d="M554.2056,-63.287C587.0099,-64.1465 625.9105,-65.1658 657.2321,-65.9864"/>
<polygon fill="#191970" stroke="#191970" points="553.8746,-59.7773 543.7864,-63.0141 553.6912,-66.7749 553.8746,-59.7773"/>
</g>
<!-- Node49 -->
<g id="node49" class="node">
<title>Node49</title>
<g id="a_node49"><a xlink:href="../../d3/d87/classG4GDMLRead.html#a7a4ce0ff0c26c8e24a141ed6e8600ae0" target="_top" xlink:title="G4GDMLRead::Read">
<polygon fill="none" stroke="#000000" points="427.5,-6.5 427.5,-26.5 544.5,-26.5 544.5,-6.5 427.5,-6.5"/>
<text text-anchor="middle" x="486" y="-13.5" font-family="FreeSans" font-size="10.00" fill="#000000">G4GDMLRead::Read</text>
</a>
</g>
</g>
<!-- Node48&#45;&gt;Node49 -->
<g id="edge52" class="edge">
<title>Node48&#45;&gt;Node49</title>
<path fill="none" stroke="#191970" d="M264.6536,-151.6653C285.0285,-121.7751 329.0898,-63.9562 382,-35.5 395.8209,-28.0668 412.0107,-23.4794 427.4452,-20.666"/>
<polygon fill="#191970" stroke="#191970" points="261.5219,-150.0533 258.8895,-160.3159 267.3472,-153.9348 261.5219,-150.0533"/>
</g>
<!-- Node50 -->
<g id="node50" class="node">
<title>Node50</title>
<g id="a_node50"><a xlink:href="../../d6/db8/classG4GDMLReadStructure.html#afe18d6aa3305fd08195316107db4fc1d" target="_top" xlink:title="G4GDMLReadStructure\l::FileRead">
<polygon fill="none" stroke="#000000" points="649,-.5 649,-32.5 781,-32.5 781,-.5 649,-.5"/>
<text text-anchor="start" x="657" y="-19.5" font-family="FreeSans" font-size="10.00" fill="#000000">G4GDMLReadStructure</text>
<text text-anchor="middle" x="715" y="-7.5" font-family="FreeSans" font-size="10.00" fill="#000000">::FileRead</text>
</a>
</g>
</g>
<!-- Node49&#45;&gt;Node50 -->
<g id="edge53" class="edge">
<title>Node49&#45;&gt;Node50</title>
<path fill="none" stroke="#191970" d="M554.9763,-16.5C584.7214,-16.5 619.3627,-16.5 648.7925,-16.5"/>
<polygon fill="#191970" stroke="#191970" points="554.6759,-13.0001 544.6758,-16.5 554.6758,-20.0001 554.6759,-13.0001"/>
</g>
<!-- Node50&#45;&gt;Node28 -->
<g id="edge54" class="edge">
<title>Node50&#45;&gt;Node28</title>
<path fill="none" stroke="#191970" d="M790.1174,-30.4062C795.2607,-33.4347 799.985,-37.0907 804,-41.5 885.175,-130.6474 908.2798,-537.0768 912.307,-623.3669"/>
<polygon fill="#191970" stroke="#191970" points="791.6238,-27.2462 781.1175,-25.8797 788.4786,-33.4998 791.6238,-27.2462"/>
</g>
</g>
</svg>
