<?xml version="1.0" encoding="UTF-8" standalone="no"?>
<!DOCTYPE svg PUBLIC "-//W3C//DTD SVG 1.1//EN"
 "http://www.w3.org/Graphics/SVG/1.1/DTD/svg11.dtd">
<!-- Generated by graphviz version 2.40.1 (20161225.0304)
 -->
<!-- Title: DicomNestedPhantomParameterisation::DicomNestedPhantomParameterisation Pages: 1 -->
<svg width="677pt" height="41pt"
 viewBox="0.00 0.00 677.00 41.00" xmlns="http://www.w3.org/2000/svg" xmlns:xlink="http://www.w3.org/1999/xlink">
<g id="graph0" class="graph" transform="scale(1 1) rotate(0) translate(4 37)">
<title>DicomNestedPhantomParameterisation::DicomNestedPhantomParameterisation</title>
<!-- Node1 -->
<g id="node1" class="node">
<title>Node1</title>
<polygon fill="#bfbfbf" stroke="#000000" points="0,-.5 0,-32.5 221,-32.5 221,-.5 0,-.5"/>
<text text-anchor="start" x="8" y="-19.5" font-family="FreeSans" font-size="10.00" fill="#000000">DicomNestedPhantomParameterisation</text>
<text text-anchor="middle" x="110.5" y="-7.5" font-family="FreeSans" font-size="10.00" fill="#000000">::DicomNestedPhantomParameterisation</text>
</g>
<!-- Node2 -->
<g id="node2" class="node">
<title>Node2</title>
<g id="a_node2"><a xlink:href="../../d1/d28/classDicomNestedPhantomParameterisation.html#ae9dbf3571a6d4308c7219f8a3f87fb2f" target="_top" xlink:title="DicomNestedPhantomParameterisation\l::ReadColourData">
<polygon fill="none" stroke="#000000" points="257,-.5 257,-32.5 472,-32.5 472,-.5 257,-.5"/>
<text text-anchor="start" x="265" y="-19.5" font-family="FreeSans" font-size="10.00" fill="#000000">DicomNestedPhantomParameterisation</text>
<text text-anchor="middle" x="364.5" y="-7.5" font-family="FreeSans" font-size="10.00" fill="#000000">::ReadColourData</text>
</a>
</g>
</g>
<!-- Node1&#45;&gt;Node2 -->
<g id="edge1" class="edge">
<title>Node1&#45;&gt;Node2</title>
<path fill="none" stroke="#191970" d="M221.1692,-16.5C229.533,-16.5 237.9929,-16.5 246.4005,-16.5"/>
<polygon fill="#191970" stroke="#191970" points="246.6201,-20.0001 256.62,-16.5 246.62,-13.0001 246.6201,-20.0001"/>
</g>
<!-- Node3 -->
<g id="node3" class="node">
<title>Node3</title>
<g id="a_node3"><a xlink:href="../../dc/df1/classG4VisAttributes.html#a2c633b86c23dd2b32229db126885efd6" target="_top" xlink:title="G4VisAttributes::SetVisibility">
<polygon fill="none" stroke="#000000" points="508,-6.5 508,-26.5 669,-26.5 669,-6.5 508,-6.5"/>
<text text-anchor="middle" x="588.5" y="-13.5" font-family="FreeSans" font-size="10.00" fill="#000000">G4VisAttributes::SetVisibility</text>
</a>
</g>
</g>
<!-- Node2&#45;&gt;Node3 -->
<g id="edge2" class="edge">
<title>Node2&#45;&gt;Node3</title>
<path fill="none" stroke="#191970" d="M472.2353,-16.5C480.7612,-16.5 489.3202,-16.5 497.7141,-16.5"/>
<polygon fill="#191970" stroke="#191970" points="497.8578,-20.0001 507.8577,-16.5 497.8577,-13.0001 497.8578,-20.0001"/>
</g>
</g>
</svg>
