<?xml version="1.0" encoding="UTF-8" standalone="no"?>
<!DOCTYPE svg PUBLIC "-//W3C//DTD SVG 1.1//EN"
 "http://www.w3.org/Graphics/SVG/1.1/DTD/svg11.dtd">
<!-- Generated by graphviz version 2.40.1 (20161225.0304)
 -->
<!-- Title: G4NistMaterialBuilder::ListMaterials Pages: 1 -->
<svg width="733pt" height="119pt"
 viewBox="0.00 0.00 733.00 119.00" xmlns="http://www.w3.org/2000/svg" xmlns:xlink="http://www.w3.org/1999/xlink">
<g id="graph0" class="graph" transform="scale(1 1) rotate(0) translate(4 115)">
<title>G4NistMaterialBuilder::ListMaterials</title>
<!-- Node1 -->
<g id="node1" class="node">
<title>Node1</title>
<polygon fill="#bfbfbf" stroke="#000000" points="0,-55.5 0,-87.5 128,-87.5 128,-55.5 0,-55.5"/>
<text text-anchor="start" x="8" y="-74.5" font-family="FreeSans" font-size="10.00" fill="#000000">G4NistMaterialBuilder</text>
<text text-anchor="middle" x="64" y="-62.5" font-family="FreeSans" font-size="10.00" fill="#000000">::ListMaterials</text>
</g>
<!-- Node2 -->
<g id="node2" class="node">
<title>Node2</title>
<g id="a_node2"><a xlink:href="../../df/d8e/classG4NistMaterialBuilder.html#ab0f53ffadd9a42e27c4dcd83a21d3fb3" target="_top" xlink:title="G4NistMaterialBuilder\l::Initialise">
<polygon fill="none" stroke="#000000" points="182.5,-78.5 182.5,-110.5 310.5,-110.5 310.5,-78.5 182.5,-78.5"/>
<text text-anchor="start" x="190.5" y="-97.5" font-family="FreeSans" font-size="10.00" fill="#000000">G4NistMaterialBuilder</text>
<text text-anchor="middle" x="246.5" y="-85.5" font-family="FreeSans" font-size="10.00" fill="#000000">::Initialise</text>
</a>
</g>
</g>
<!-- Node1&#45;&gt;Node2 -->
<g id="edge1" class="edge">
<title>Node1&#45;&gt;Node2</title>
<path fill="none" stroke="#191970" d="M138.1015,-80.8388C152.7372,-82.6833 167.9834,-84.6048 182.2601,-86.404"/>
<polygon fill="#191970" stroke="#191970" points="138.4452,-77.3545 128.0861,-79.5766 137.5699,-84.2996 138.4452,-77.3545"/>
</g>
<!-- Node4 -->
<g id="node4" class="node">
<title>Node4</title>
<g id="a_node4"><a xlink:href="../../d2/d00/classG4NistManager.html#aac0a1c9663200733f10b57d57f8cfe7c" target="_top" xlink:title="G4NistManager::ListMaterials">
<polygon fill="none" stroke="#000000" points="164,-39.5 164,-59.5 329,-59.5 329,-39.5 164,-39.5"/>
<text text-anchor="middle" x="246.5" y="-46.5" font-family="FreeSans" font-size="10.00" fill="#000000">G4NistManager::ListMaterials</text>
</a>
</g>
</g>
<!-- Node1&#45;&gt;Node4 -->
<g id="edge3" class="edge">
<title>Node1&#45;&gt;Node4</title>
<path fill="none" stroke="#191970" d="M138.2916,-62.5443C146.7572,-61.5238 155.4247,-60.4789 163.9886,-59.4466"/>
<polygon fill="#191970" stroke="#191970" points="137.5953,-59.1028 128.0861,-63.7746 138.4331,-66.0525 137.5953,-59.1028"/>
</g>
<!-- Node3 -->
<g id="node3" class="node">
<title>Node3</title>
<g id="a_node3"><a xlink:href="../../df/d8e/classG4NistMaterialBuilder.html#a66fd6b3d8ca65c232577f53887ec416c" target="_top" xlink:title="G4NistMaterialBuilder\l::G4NistMaterialBuilder">
<polygon fill="none" stroke="#000000" points="387,-78.5 387,-110.5 521,-110.5 521,-78.5 387,-78.5"/>
<text text-anchor="start" x="395" y="-97.5" font-family="FreeSans" font-size="10.00" fill="#000000">G4NistMaterialBuilder</text>
<text text-anchor="middle" x="454" y="-85.5" font-family="FreeSans" font-size="10.00" fill="#000000">::G4NistMaterialBuilder</text>
</a>
</g>
</g>
<!-- Node2&#45;&gt;Node3 -->
<g id="edge2" class="edge">
<title>Node2&#45;&gt;Node3</title>
<path fill="none" stroke="#191970" d="M320.8155,-94.5C342.3633,-94.5 365.758,-94.5 386.8406,-94.5"/>
<polygon fill="#191970" stroke="#191970" points="320.7333,-91.0001 310.7333,-94.5 320.7332,-98.0001 320.7333,-91.0001"/>
</g>
<!-- Node5 -->
<g id="node5" class="node">
<title>Node5</title>
<g id="a_node5"><a xlink:href="../../de/d9d/pymodG4materials_8cc.html#a584611cf6993db1bdf56b2efa840ac4e" target="_top" xlink:title="export_G4NistManager">
<polygon fill="none" stroke="#000000" points="387.5,-39.5 387.5,-59.5 520.5,-59.5 520.5,-39.5 387.5,-39.5"/>
<text text-anchor="middle" x="454" y="-46.5" font-family="FreeSans" font-size="10.00" fill="#000000">export_G4NistManager</text>
</a>
</g>
</g>
<!-- Node4&#45;&gt;Node5 -->
<g id="edge4" class="edge">
<title>Node4&#45;&gt;Node5</title>
<path fill="none" stroke="#191970" d="M339.1469,-49.5C355.3728,-49.5 371.9652,-49.5 387.3119,-49.5"/>
<polygon fill="#191970" stroke="#191970" points="339.1057,-46.0001 329.1057,-49.5 339.1057,-53.0001 339.1057,-46.0001"/>
</g>
<!-- Node7 -->
<g id="node7" class="node">
<title>Node7</title>
<g id="a_node7"><a xlink:href="../../d4/de2/classG4NistMessenger.html#ac98add346b1227229e72d2d8ee8aa182" target="_top" xlink:title="G4NistMessenger::SetNewValue">
<polygon fill="none" stroke="#000000" points="365,-.5 365,-20.5 543,-20.5 543,-.5 365,-.5"/>
<text text-anchor="middle" x="454" y="-7.5" font-family="FreeSans" font-size="10.00" fill="#000000">G4NistMessenger::SetNewValue</text>
</a>
</g>
</g>
<!-- Node4&#45;&gt;Node7 -->
<g id="edge6" class="edge">
<title>Node4&#45;&gt;Node7</title>
<path fill="none" stroke="#191970" d="M309.9838,-37.5681C339.0296,-32.1089 373.0592,-25.713 400.7447,-20.5094"/>
<polygon fill="#191970" stroke="#191970" points="309.1178,-34.1695 299.9364,-39.4565 310.4109,-41.049 309.1178,-34.1695"/>
</g>
<!-- Node6 -->
<g id="node6" class="node">
<title>Node6</title>
<g id="a_node6"><a xlink:href="../../de/d9d/pymodG4materials_8cc.html#a8a1782f1cb0b7b0c9a810bf6c99477b8" target="_top" xlink:title="BOOST_PYTHON_MODULE">
<polygon fill="none" stroke="#000000" points="579,-39.5 579,-59.5 725,-59.5 725,-39.5 579,-39.5"/>
<text text-anchor="middle" x="652" y="-46.5" font-family="FreeSans" font-size="10.00" fill="#000000">BOOST_PYTHON_MODULE</text>
</a>
</g>
</g>
<!-- Node5&#45;&gt;Node6 -->
<g id="edge5" class="edge">
<title>Node5&#45;&gt;Node6</title>
<path fill="none" stroke="#191970" d="M530.952,-49.5C546.663,-49.5 563.1545,-49.5 578.7325,-49.5"/>
<polygon fill="#191970" stroke="#191970" points="530.7578,-46.0001 520.7577,-49.5 530.7577,-53.0001 530.7578,-46.0001"/>
</g>
</g>
</svg>
