<?xml version="1.0" encoding="UTF-8" standalone="no"?>
<!DOCTYPE svg PUBLIC "-//W3C//DTD SVG 1.1//EN"
 "http://www.w3.org/Graphics/SVG/1.1/DTD/svg11.dtd">
<!-- Generated by graphviz version 2.40.1 (20161225.0304)
 -->
<!-- Title: G4NistMaterialBuilder::AddElementByAtomCount Pages: 1 -->
<svg width="1917pt" height="449pt"
 viewBox="0.00 0.00 1917.00 449.00" xmlns="http://www.w3.org/2000/svg" xmlns:xlink="http://www.w3.org/1999/xlink">
<g id="graph0" class="graph" transform="scale(1 1) rotate(0) translate(4 445)">
<title>G4NistMaterialBuilder::AddElementByAtomCount</title>
<!-- Node1 -->
<g id="node1" class="node">
<title>Node1</title>
<polygon fill="#bfbfbf" stroke="#000000" points="0,-229.5 0,-261.5 155,-261.5 155,-229.5 0,-229.5"/>
<text text-anchor="start" x="8" y="-248.5" font-family="FreeSans" font-size="10.00" fill="#000000">G4NistMaterialBuilder</text>
<text text-anchor="middle" x="77.5" y="-236.5" font-family="FreeSans" font-size="10.00" fill="#000000">::AddElementByAtomCount</text>
</g>
<!-- Node2 -->
<g id="node2" class="node">
<title>Node2</title>
<g id="a_node2"><a xlink:href="../../df/d8e/classG4NistMaterialBuilder.html#aed2ec06007522cf0ec9ffc438b45084e" target="_top" xlink:title="G4NistMaterialBuilder\l::BioChemicalMaterials">
<polygon fill="none" stroke="#000000" points="214,-408.5 214,-440.5 346,-440.5 346,-408.5 214,-408.5"/>
<text text-anchor="start" x="222" y="-427.5" font-family="FreeSans" font-size="10.00" fill="#000000">G4NistMaterialBuilder</text>
<text text-anchor="middle" x="280" y="-415.5" font-family="FreeSans" font-size="10.00" fill="#000000">::BioChemicalMaterials</text>
</a>
</g>
</g>
<!-- Node1&#45;&gt;Node2 -->
<g id="edge1" class="edge">
<title>Node1&#45;&gt;Node2</title>
<path fill="none" stroke="#191970" d="M89.5662,-271.1468C107.0681,-305.5479 142.7567,-366.1574 191,-399.5 197.8655,-404.245 205.6141,-408.0938 213.6036,-411.2148"/>
<polygon fill="#191970" stroke="#191970" points="92.4983,-269.1813 84.9202,-261.777 86.2269,-272.2909 92.4983,-269.1813"/>
</g>
<!-- Node5 -->
<g id="node5" class="node">
<title>Node5</title>
<g id="a_node5"><a xlink:href="../../df/d8e/classG4NistMaterialBuilder.html#af80146e3611635ae15a067afccf2dbd3" target="_top" xlink:title="G4NistMaterialBuilder\l::ConstructNewIdealGasMaterial">
<polygon fill="none" stroke="#000000" points="191,-102.5 191,-134.5 369,-134.5 369,-102.5 191,-102.5"/>
<text text-anchor="start" x="199" y="-121.5" font-family="FreeSans" font-size="10.00" fill="#000000">G4NistMaterialBuilder</text>
<text text-anchor="middle" x="280" y="-109.5" font-family="FreeSans" font-size="10.00" fill="#000000">::ConstructNewIdealGasMaterial</text>
</a>
</g>
</g>
<!-- Node1&#45;&gt;Node5 -->
<g id="edge4" class="edge">
<title>Node1&#45;&gt;Node5</title>
<path fill="none" stroke="#191970" d="M98.1437,-221.8353C119.3129,-198.9547 154.2577,-164.8455 191,-144.5 197.9004,-140.679 205.4198,-137.3682 213.0686,-134.5123"/>
<polygon fill="#191970" stroke="#191970" points="95.3864,-219.6652 91.25,-229.4192 100.5663,-224.3736 95.3864,-219.6652"/>
</g>
<!-- Node7 -->
<g id="node7" class="node">
<title>Node7</title>
<g id="a_node7"><a xlink:href="../../df/d8e/classG4NistMaterialBuilder.html#ae0bec346b7d33b45a0bd956beeeb5233" target="_top" xlink:title="G4NistMaterialBuilder\l::ConstructNewMaterial">
<polygon fill="none" stroke="#000000" points="213,-51.5 213,-83.5 347,-83.5 347,-51.5 213,-51.5"/>
<text text-anchor="start" x="221" y="-70.5" font-family="FreeSans" font-size="10.00" fill="#000000">G4NistMaterialBuilder</text>
<text text-anchor="middle" x="280" y="-58.5" font-family="FreeSans" font-size="10.00" fill="#000000">::ConstructNewMaterial</text>
</a>
</g>
</g>
<!-- Node1&#45;&gt;Node7 -->
<g id="edge6" class="edge">
<title>Node1&#45;&gt;Node7</title>
<path fill="none" stroke="#191970" d="M89.7029,-220.2589C107.3619,-186.3882 143.2301,-126.6613 191,-93.5 197.6117,-88.9102 205.0358,-85.1215 212.7027,-81.9961"/>
<polygon fill="#191970" stroke="#191970" points="86.4252,-218.983 85.0118,-229.4831 92.6647,-222.1562 86.4252,-218.983"/>
</g>
<!-- Node22 -->
<g id="node22" class="node">
<title>Node22</title>
<g id="a_node22"><a xlink:href="../../df/d8e/classG4NistMaterialBuilder.html#a661242b4084081b829c7593641419bd8" target="_top" xlink:title="G4NistMaterialBuilder\l::HepAndNuclearMaterials">
<polygon fill="none" stroke="#000000" points="206,-357.5 206,-389.5 354,-389.5 354,-357.5 206,-357.5"/>
<text text-anchor="start" x="214" y="-376.5" font-family="FreeSans" font-size="10.00" fill="#000000">G4NistMaterialBuilder</text>
<text text-anchor="middle" x="280" y="-364.5" font-family="FreeSans" font-size="10.00" fill="#000000">::HepAndNuclearMaterials</text>
</a>
</g>
</g>
<!-- Node1&#45;&gt;Node22 -->
<g id="edge24" class="edge">
<title>Node1&#45;&gt;Node22</title>
<path fill="none" stroke="#191970" d="M97.6486,-269.3408C118.6719,-292.7532 153.7196,-327.872 191,-348.5 197.1789,-351.9189 203.863,-354.9011 210.696,-357.4957"/>
<polygon fill="#191970" stroke="#191970" points="100.055,-266.7777 90.8166,-261.5908 94.8039,-271.4067 100.055,-266.7777"/>
</g>
<!-- Node23 -->
<g id="node23" class="node">
<title>Node23</title>
<g id="a_node23"><a xlink:href="../../df/d8e/classG4NistMaterialBuilder.html#a8176438657661713d7b8dcdd2ee446de" target="_top" xlink:title="G4NistMaterialBuilder\l::NistCompoundMaterials">
<polygon fill="none" stroke="#000000" points="208,-306.5 208,-338.5 352,-338.5 352,-306.5 208,-306.5"/>
<text text-anchor="start" x="216" y="-325.5" font-family="FreeSans" font-size="10.00" fill="#000000">G4NistMaterialBuilder</text>
<text text-anchor="middle" x="280" y="-313.5" font-family="FreeSans" font-size="10.00" fill="#000000">::NistCompoundMaterials</text>
</a>
</g>
</g>
<!-- Node1&#45;&gt;Node23 -->
<g id="edge26" class="edge">
<title>Node1&#45;&gt;Node23</title>
<path fill="none" stroke="#191970" d="M118.317,-266.0718C139.6405,-276.3371 166.3628,-288.4585 191,-297.5 199.5881,-300.6517 208.7641,-303.6393 217.8403,-306.3797"/>
<polygon fill="#191970" stroke="#191970" points="119.7532,-262.8784 109.2295,-261.6526 116.6918,-269.1735 119.7532,-262.8784"/>
</g>
<!-- Node24 -->
<g id="node24" class="node">
<title>Node24</title>
<g id="a_node24"><a xlink:href="../../df/d8e/classG4NistMaterialBuilder.html#a9d3a8259b9b9110b60b3241a68e81724" target="_top" xlink:title="G4NistMaterialBuilder\l::NistCompoundMaterials2">
<polygon fill="none" stroke="#000000" points="205,-255.5 205,-287.5 355,-287.5 355,-255.5 205,-255.5"/>
<text text-anchor="start" x="213" y="-274.5" font-family="FreeSans" font-size="10.00" fill="#000000">G4NistMaterialBuilder</text>
<text text-anchor="middle" x="280" y="-262.5" font-family="FreeSans" font-size="10.00" fill="#000000">::NistCompoundMaterials2</text>
</a>
</g>
</g>
<!-- Node1&#45;&gt;Node24 -->
<g id="edge28" class="edge">
<title>Node1&#45;&gt;Node24</title>
<path fill="none" stroke="#191970" d="M165.227,-256.7637C178.4222,-258.4579 191.9293,-260.1922 204.8303,-261.8486"/>
<polygon fill="#191970" stroke="#191970" points="165.577,-253.28 155.2127,-255.4779 164.6855,-260.223 165.577,-253.28"/>
</g>
<!-- Node25 -->
<g id="node25" class="node">
<title>Node25</title>
<g id="a_node25"><a xlink:href="../../df/d8e/classG4NistMaterialBuilder.html#a0426be68e2e1a93b3e418519faf4acb5" target="_top" xlink:title="G4NistMaterialBuilder\l::NistSimpleMaterials">
<polygon fill="none" stroke="#000000" points="216,-204.5 216,-236.5 344,-236.5 344,-204.5 216,-204.5"/>
<text text-anchor="start" x="224" y="-223.5" font-family="FreeSans" font-size="10.00" fill="#000000">G4NistMaterialBuilder</text>
<text text-anchor="middle" x="280" y="-211.5" font-family="FreeSans" font-size="10.00" fill="#000000">::NistSimpleMaterials</text>
</a>
</g>
</g>
<!-- Node1&#45;&gt;Node25 -->
<g id="edge30" class="edge">
<title>Node1&#45;&gt;Node25</title>
<path fill="none" stroke="#191970" d="M165.1845,-234.6748C182.2491,-232.568 199.8372,-230.3966 215.9625,-228.4059"/>
<polygon fill="#191970" stroke="#191970" points="164.7084,-231.2069 155.2127,-235.9058 165.5662,-238.1541 164.7084,-231.2069"/>
</g>
<!-- Node26 -->
<g id="node26" class="node">
<title>Node26</title>
<g id="a_node26"><a xlink:href="../../df/d8e/classG4NistMaterialBuilder.html#a96039d84f4f60ee7be95e7bb9a196597" target="_top" xlink:title="G4NistMaterialBuilder\l::SpaceMaterials">
<polygon fill="none" stroke="#000000" points="216,-153.5 216,-185.5 344,-185.5 344,-153.5 216,-153.5"/>
<text text-anchor="start" x="224" y="-172.5" font-family="FreeSans" font-size="10.00" fill="#000000">G4NistMaterialBuilder</text>
<text text-anchor="middle" x="280" y="-160.5" font-family="FreeSans" font-size="10.00" fill="#000000">::SpaceMaterials</text>
</a>
</g>
</g>
<!-- Node1&#45;&gt;Node26 -->
<g id="edge32" class="edge">
<title>Node1&#45;&gt;Node26</title>
<path fill="none" stroke="#191970" d="M120.1103,-225.1474C141.1769,-215.4936 167.1415,-204.1979 191,-195.5 200.5278,-192.0265 210.7562,-188.688 220.7633,-185.6284"/>
<polygon fill="#191970" stroke="#191970" points="118.4085,-222.0783 110.801,-229.4523 121.3465,-228.4319 118.4085,-222.0783"/>
</g>
<!-- Node3 -->
<g id="node3" class="node">
<title>Node3</title>
<g id="a_node3"><a xlink:href="../../df/d8e/classG4NistMaterialBuilder.html#ab0f53ffadd9a42e27c4dcd83a21d3fb3" target="_top" xlink:title="G4NistMaterialBuilder\l::Initialise">
<polygon fill="none" stroke="#000000" points="416,-280.5 416,-312.5 544,-312.5 544,-280.5 416,-280.5"/>
<text text-anchor="start" x="424" y="-299.5" font-family="FreeSans" font-size="10.00" fill="#000000">G4NistMaterialBuilder</text>
<text text-anchor="middle" x="480" y="-287.5" font-family="FreeSans" font-size="10.00" fill="#000000">::Initialise</text>
</a>
</g>
</g>
<!-- Node2&#45;&gt;Node3 -->
<g id="edge2" class="edge">
<title>Node2&#45;&gt;Node3</title>
<path fill="none" stroke="#191970" d="M355.6717,-406.0092C360.2791,-404.0406 364.7607,-401.8765 369,-399.5 410.048,-376.4889 447.9616,-335.3 467.0554,-312.6041"/>
<polygon fill="#191970" stroke="#191970" points="354.1019,-402.8655 346.0754,-409.7811 356.6626,-409.3804 354.1019,-402.8655"/>
</g>
<!-- Node4 -->
<g id="node4" class="node">
<title>Node4</title>
<g id="a_node4"><a xlink:href="../../df/d8e/classG4NistMaterialBuilder.html#a66fd6b3d8ca65c232577f53887ec416c" target="_top" xlink:title="G4NistMaterialBuilder\l::G4NistMaterialBuilder">
<polygon fill="none" stroke="#000000" points="591,-280.5 591,-312.5 725,-312.5 725,-280.5 591,-280.5"/>
<text text-anchor="start" x="599" y="-299.5" font-family="FreeSans" font-size="10.00" fill="#000000">G4NistMaterialBuilder</text>
<text text-anchor="middle" x="658" y="-287.5" font-family="FreeSans" font-size="10.00" fill="#000000">::G4NistMaterialBuilder</text>
</a>
</g>
</g>
<!-- Node3&#45;&gt;Node4 -->
<g id="edge3" class="edge">
<title>Node3&#45;&gt;Node4</title>
<path fill="none" stroke="#191970" d="M554.15,-296.5C566.353,-296.5 578.9393,-296.5 590.956,-296.5"/>
<polygon fill="#191970" stroke="#191970" points="554.0106,-293.0001 544.0106,-296.5 554.0106,-300.0001 554.0106,-293.0001"/>
</g>
<!-- Node6 -->
<g id="node6" class="node">
<title>Node6</title>
<g id="a_node6"><a xlink:href="../../d2/d00/classG4NistManager.html#a4186e0b4d70bf6eb342e1975b0c4bdfe" target="_top" xlink:title="G4NistManager::Construct\lNewIdealGasMaterial">
<polygon fill="none" stroke="#000000" points="405,-102.5 405,-134.5 555,-134.5 555,-102.5 405,-102.5"/>
<text text-anchor="start" x="413" y="-121.5" font-family="FreeSans" font-size="10.00" fill="#000000">G4NistManager::Construct</text>
<text text-anchor="middle" x="480" y="-109.5" font-family="FreeSans" font-size="10.00" fill="#000000">NewIdealGasMaterial</text>
</a>
</g>
</g>
<!-- Node5&#45;&gt;Node6 -->
<g id="edge5" class="edge">
<title>Node5&#45;&gt;Node6</title>
<path fill="none" stroke="#191970" d="M379.2323,-118.5C387.812,-118.5 396.3993,-118.5 404.7414,-118.5"/>
<polygon fill="#191970" stroke="#191970" points="379.1791,-115.0001 369.179,-118.5 379.179,-122.0001 379.1791,-115.0001"/>
</g>
<!-- Node8 -->
<g id="node8" class="node">
<title>Node8</title>
<g id="a_node8"><a xlink:href="../../d2/d00/classG4NistManager.html#ab2de129709586652e4b018f61603a2e9" target="_top" xlink:title="G4NistManager::Construct\lNewMaterial">
<polygon fill="none" stroke="#000000" points="405,-51.5 405,-83.5 555,-83.5 555,-51.5 405,-51.5"/>
<text text-anchor="start" x="413" y="-70.5" font-family="FreeSans" font-size="10.00" fill="#000000">G4NistManager::Construct</text>
<text text-anchor="middle" x="480" y="-58.5" font-family="FreeSans" font-size="10.00" fill="#000000">NewMaterial</text>
</a>
</g>
</g>
<!-- Node7&#45;&gt;Node8 -->
<g id="edge7" class="edge">
<title>Node7&#45;&gt;Node8</title>
<path fill="none" stroke="#191970" d="M357.271,-67.5C372.8637,-67.5 389.235,-67.5 404.757,-67.5"/>
<polygon fill="#191970" stroke="#191970" points="357.1535,-64.0001 347.1535,-67.5 357.1534,-71.0001 357.1535,-64.0001"/>
</g>
<!-- Node9 -->
<g id="node9" class="node">
<title>Node9</title>
<g id="a_node9"><a xlink:href="../../d1/d59/classXrayFluoNistMaterials.html#a1a99b5139aef764389134235e3b6bdd2" target="_top" xlink:title="XrayFluoNistMaterials\l::CreateMaterials">
<polygon fill="none" stroke="#000000" points="595,-51.5 595,-83.5 721,-83.5 721,-51.5 595,-51.5"/>
<text text-anchor="start" x="603" y="-70.5" font-family="FreeSans" font-size="10.00" fill="#000000">XrayFluoNistMaterials</text>
<text text-anchor="middle" x="658" y="-58.5" font-family="FreeSans" font-size="10.00" fill="#000000">::CreateMaterials</text>
</a>
</g>
</g>
<!-- Node8&#45;&gt;Node9 -->
<g id="edge8" class="edge">
<title>Node8&#45;&gt;Node9</title>
<path fill="none" stroke="#191970" d="M565.4927,-67.5C575.3804,-67.5 585.3259,-67.5 594.8401,-67.5"/>
<polygon fill="#191970" stroke="#191970" points="565.2301,-64.0001 555.23,-67.5 565.23,-71.0001 565.2301,-64.0001"/>
</g>
<!-- Node10 -->
<g id="node10" class="node">
<title>Node10</title>
<g id="a_node10"><a xlink:href="../../d1/d59/classXrayFluoNistMaterials.html#ab0a8e7065693e2b5d8702be1f99c7b25" target="_top" xlink:title="XrayFluoNistMaterials\l::XrayFluoNistMaterials">
<polygon fill="none" stroke="#000000" points="761,-51.5 761,-83.5 894,-83.5 894,-51.5 761,-51.5"/>
<text text-anchor="start" x="769" y="-70.5" font-family="FreeSans" font-size="10.00" fill="#000000">XrayFluoNistMaterials</text>
<text text-anchor="middle" x="827.5" y="-58.5" font-family="FreeSans" font-size="10.00" fill="#000000">::XrayFluoNistMaterials</text>
</a>
</g>
</g>
<!-- Node9&#45;&gt;Node10 -->
<g id="edge9" class="edge">
<title>Node9&#45;&gt;Node10</title>
<path fill="none" stroke="#191970" d="M731.2838,-67.5C741.1363,-67.5 751.1994,-67.5 760.9272,-67.5"/>
<polygon fill="#191970" stroke="#191970" points="731.1156,-64.0001 721.1155,-67.5 731.1155,-71.0001 731.1156,-64.0001"/>
</g>
<!-- Node11 -->
<g id="node11" class="node">
<title>Node11</title>
<g id="a_node11"><a xlink:href="../../d1/d59/classXrayFluoNistMaterials.html#a079f90e50be859e49cd72c66869d5a50" target="_top" xlink:title="XrayFluoNistMaterials\l::GetInstance">
<polygon fill="none" stroke="#000000" points="930,-51.5 930,-83.5 1056,-83.5 1056,-51.5 930,-51.5"/>
<text text-anchor="start" x="938" y="-70.5" font-family="FreeSans" font-size="10.00" fill="#000000">XrayFluoNistMaterials</text>
<text text-anchor="middle" x="993" y="-58.5" font-family="FreeSans" font-size="10.00" fill="#000000">::GetInstance</text>
</a>
</g>
</g>
<!-- Node10&#45;&gt;Node11 -->
<g id="edge10" class="edge">
<title>Node10&#45;&gt;Node11</title>
<path fill="none" stroke="#191970" d="M904.617,-67.5C913.0957,-67.5 921.6537,-67.5 929.9327,-67.5"/>
<polygon fill="#191970" stroke="#191970" points="904.3382,-64.0001 894.3381,-67.5 904.3381,-71.0001 904.3382,-64.0001"/>
</g>
<!-- Node12 -->
<g id="node12" class="node">
<title>Node12</title>
<g id="a_node12"><a xlink:href="../../d7/d30/classXrayFluoDetectorConstruction.html#a98f760c5c0bd5ecf3eb74c0667b5e5ab" target="_top" xlink:title="XrayFluoDetectorConstruction\l::XrayFluoDetectorConstruction">
<polygon fill="none" stroke="#000000" points="1112.5,-51.5 1112.5,-83.5 1287.5,-83.5 1287.5,-51.5 1112.5,-51.5"/>
<text text-anchor="start" x="1120.5" y="-70.5" font-family="FreeSans" font-size="10.00" fill="#000000">XrayFluoDetectorConstruction</text>
<text text-anchor="middle" x="1200" y="-58.5" font-family="FreeSans" font-size="10.00" fill="#000000">::XrayFluoDetectorConstruction</text>
</a>
</g>
</g>
<!-- Node11&#45;&gt;Node12 -->
<g id="edge11" class="edge">
<title>Node11&#45;&gt;Node12</title>
<path fill="none" stroke="#191970" d="M1066.3762,-67.5C1081.2644,-67.5 1097.0636,-67.5 1112.3868,-67.5"/>
<polygon fill="#191970" stroke="#191970" points="1066.2316,-64.0001 1056.2316,-67.5 1066.2316,-71.0001 1066.2316,-64.0001"/>
</g>
<!-- Node18 -->
<g id="node18" class="node">
<title>Node18</title>
<g id="a_node18"><a xlink:href="../../d9/d79/classXrayFluoMercuryDetectorConstruction.html#af16a6d1bbd02b51ce983ae3fecc03874" target="_top" xlink:title="XrayFluoMercuryDetectorConstruction\l::XrayFluoMercuryDetectorConstruction">
<polygon fill="none" stroke="#000000" points="1092,-102.5 1092,-134.5 1308,-134.5 1308,-102.5 1092,-102.5"/>
<text text-anchor="start" x="1100" y="-121.5" font-family="FreeSans" font-size="10.00" fill="#000000">XrayFluoMercuryDetectorConstruction</text>
<text text-anchor="middle" x="1200" y="-109.5" font-family="FreeSans" font-size="10.00" fill="#000000">::XrayFluoMercuryDetectorConstruction</text>
</a>
</g>
</g>
<!-- Node11&#45;&gt;Node18 -->
<g id="edge17" class="edge">
<title>Node11&#45;&gt;Node18</title>
<path fill="none" stroke="#191970" d="M1062.6394,-86.0637C1072.485,-88.6081 1082.4899,-91.151 1092,-93.5 1104.0514,-96.4767 1116.8859,-99.5404 1129.3438,-102.4583"/>
<polygon fill="#191970" stroke="#191970" points="1063.43,-82.6529 1052.8712,-83.5259 1061.6698,-89.428 1063.43,-82.6529"/>
</g>
<!-- Node20 -->
<g id="node20" class="node">
<title>Node20</title>
<g id="a_node20"><a xlink:href="../../d0/de8/classXrayFluoPlaneDetectorConstruction.html#a3f7f9ab527b1e5360755d53769f3916e" target="_top" xlink:title="XrayFluoPlaneDetectorConstruction\l::XrayFluoPlaneDetectorConstruction">
<polygon fill="none" stroke="#000000" points="1098.5,-.5 1098.5,-32.5 1301.5,-32.5 1301.5,-.5 1098.5,-.5"/>
<text text-anchor="start" x="1106.5" y="-19.5" font-family="FreeSans" font-size="10.00" fill="#000000">XrayFluoPlaneDetectorConstruction</text>
<text text-anchor="middle" x="1200" y="-7.5" font-family="FreeSans" font-size="10.00" fill="#000000">::XrayFluoPlaneDetectorConstruction</text>
</a>
</g>
</g>
<!-- Node11&#45;&gt;Node20 -->
<g id="edge21" class="edge">
<title>Node11&#45;&gt;Node20</title>
<path fill="none" stroke="#191970" d="M1065.9422,-48.9826C1074.7189,-46.7834 1083.559,-44.5817 1092,-42.5 1105.2009,-39.2443 1119.3217,-35.81 1132.8546,-32.5423"/>
<polygon fill="#191970" stroke="#191970" points="1064.9311,-45.6278 1056.0847,-51.458 1066.6361,-52.417 1064.9311,-45.6278"/>
</g>
<!-- Node13 -->
<g id="node13" class="node">
<title>Node13</title>
<g id="a_node13"><a xlink:href="../../d7/d30/classXrayFluoDetectorConstruction.html#a46ea7f0250d28011721fc9ceb535a313" target="_top" xlink:title="XrayFluoDetectorConstruction\l::GetInstance">
<polygon fill="none" stroke="#000000" points="1364.5,-51.5 1364.5,-83.5 1532.5,-83.5 1532.5,-51.5 1364.5,-51.5"/>
<text text-anchor="start" x="1372.5" y="-70.5" font-family="FreeSans" font-size="10.00" fill="#000000">XrayFluoDetectorConstruction</text>
<text text-anchor="middle" x="1448.5" y="-58.5" font-family="FreeSans" font-size="10.00" fill="#000000">::GetInstance</text>
</a>
</g>
</g>
<!-- Node12&#45;&gt;Node13 -->
<g id="edge12" class="edge">
<title>Node12&#45;&gt;Node13</title>
<path fill="none" stroke="#191970" d="M1297.6254,-67.5C1319.6216,-67.5 1342.7859,-67.5 1364.1824,-67.5"/>
<polygon fill="#191970" stroke="#191970" points="1297.6118,-64.0001 1287.6118,-67.5 1297.6118,-71.0001 1297.6118,-64.0001"/>
</g>
<!-- Node14 -->
<g id="node14" class="node">
<title>Node14</title>
<g id="a_node14"><a xlink:href="../../d7/d08/classXrayFluoAnalysisManager.html#a0943b2f7b2d717bad3d1822ff0ad1599" target="_top" xlink:title="XrayFluoAnalysisManager\l::analyseStepping">
<polygon fill="none" stroke="#000000" points="1589,-57.5 1589,-89.5 1736,-89.5 1736,-57.5 1589,-57.5"/>
<text text-anchor="start" x="1597" y="-76.5" font-family="FreeSans" font-size="10.00" fill="#000000">XrayFluoAnalysisManager</text>
<text text-anchor="middle" x="1662.5" y="-64.5" font-family="FreeSans" font-size="10.00" fill="#000000">::analyseStepping</text>
</a>
</g>
</g>
<!-- Node13&#45;&gt;Node14 -->
<g id="edge13" class="edge">
<title>Node13&#45;&gt;Node14</title>
<path fill="none" stroke="#191970" d="M1542.8115,-70.1442C1558.1885,-70.5754 1573.9201,-71.0165 1588.7117,-71.4312"/>
<polygon fill="#191970" stroke="#191970" points="1542.8655,-66.6445 1532.7713,-69.8627 1542.6692,-73.6417 1542.8655,-66.6445"/>
</g>
<!-- Node16 -->
<g id="node16" class="node">
<title>Node16</title>
<g id="a_node16"><a xlink:href="../../d4/d1d/classXrayFluoSimulation.html#accd4c375c6adf36bc22587e9aa477c85" target="_top" xlink:title="XrayFluoSimulation\l::RunSimulation">
<polygon fill="none" stroke="#000000" points="1605.5,-6.5 1605.5,-38.5 1719.5,-38.5 1719.5,-6.5 1605.5,-6.5"/>
<text text-anchor="start" x="1613.5" y="-25.5" font-family="FreeSans" font-size="10.00" fill="#000000">XrayFluoSimulation</text>
<text text-anchor="middle" x="1662.5" y="-13.5" font-family="FreeSans" font-size="10.00" fill="#000000">::RunSimulation</text>
</a>
</g>
</g>
<!-- Node13&#45;&gt;Node16 -->
<g id="edge15" class="edge">
<title>Node13&#45;&gt;Node16</title>
<path fill="none" stroke="#191970" d="M1534.9148,-49.3287C1558.627,-44.3425 1583.7408,-39.0615 1605.3579,-34.5159"/>
<polygon fill="#191970" stroke="#191970" points="1533.9183,-45.9616 1524.8526,-51.4445 1535.3588,-52.8118 1533.9183,-45.9616"/>
</g>
<!-- Node15 -->
<g id="node15" class="node">
<title>Node15</title>
<g id="a_node15"><a xlink:href="../../d2/d12/classXrayFluoSteppingAction.html#aaecf2319a206c8ace8adce64dea5cfce" target="_top" xlink:title="XrayFluoSteppingAction\l::UserSteppingAction">
<polygon fill="none" stroke="#000000" points="1772,-79.5 1772,-111.5 1909,-111.5 1909,-79.5 1772,-79.5"/>
<text text-anchor="start" x="1780" y="-98.5" font-family="FreeSans" font-size="10.00" fill="#000000">XrayFluoSteppingAction</text>
<text text-anchor="middle" x="1840.5" y="-86.5" font-family="FreeSans" font-size="10.00" fill="#000000">::UserSteppingAction</text>
</a>
</g>
</g>
<!-- Node14&#45;&gt;Node15 -->
<g id="edge14" class="edge">
<title>Node14&#45;&gt;Node15</title>
<path fill="none" stroke="#191970" d="M1746.1785,-83.8423C1754.7341,-84.8997 1763.3554,-85.9653 1771.7248,-86.9997"/>
<polygon fill="#191970" stroke="#191970" points="1746.5381,-80.3602 1736.1843,-82.607 1745.6794,-87.3073 1746.5381,-80.3602"/>
</g>
<!-- Node17 -->
<g id="node17" class="node">
<title>Node17</title>
<g id="a_node17"><a xlink:href="../../df/dc6/XrayFluo_8cc.html#a0ddf1224851353fc92bfbff6f499fa97" target="_top" xlink:title="main">
<polygon fill="none" stroke="#000000" points="1820,-12.5 1820,-32.5 1861,-32.5 1861,-12.5 1820,-12.5"/>
<text text-anchor="middle" x="1840.5" y="-19.5" font-family="FreeSans" font-size="10.00" fill="#000000">main</text>
</a>
</g>
</g>
<!-- Node16&#45;&gt;Node17 -->
<g id="edge16" class="edge">
<title>Node16&#45;&gt;Node17</title>
<path fill="none" stroke="#191970" d="M1729.9869,-22.5C1761.8549,-22.5 1797.6374,-22.5 1819.6234,-22.5"/>
<polygon fill="#191970" stroke="#191970" points="1729.8001,-19.0001 1719.8001,-22.5 1729.8001,-26.0001 1729.8001,-19.0001"/>
</g>
<!-- Node19 -->
<g id="node19" class="node">
<title>Node19</title>
<g id="a_node19"><a xlink:href="../../d9/d79/classXrayFluoMercuryDetectorConstruction.html#a8e4c28b49898a8359588bafa4e8c5a16" target="_top" xlink:title="XrayFluoMercuryDetectorConstruction\l::GetInstance">
<polygon fill="none" stroke="#000000" points="1344,-102.5 1344,-134.5 1553,-134.5 1553,-102.5 1344,-102.5"/>
<text text-anchor="start" x="1352" y="-121.5" font-family="FreeSans" font-size="10.00" fill="#000000">XrayFluoMercuryDetectorConstruction</text>
<text text-anchor="middle" x="1448.5" y="-109.5" font-family="FreeSans" font-size="10.00" fill="#000000">::GetInstance</text>
</a>
</g>
</g>
<!-- Node18&#45;&gt;Node19 -->
<g id="edge18" class="edge">
<title>Node18&#45;&gt;Node19</title>
<path fill="none" stroke="#191970" d="M1318.5191,-118.5C1326.942,-118.5 1335.4002,-118.5 1343.7382,-118.5"/>
<polygon fill="#191970" stroke="#191970" points="1318.2729,-115.0001 1308.2728,-118.5 1318.2728,-122.0001 1318.2729,-115.0001"/>
</g>
<!-- Node19&#45;&gt;Node15 -->
<g id="edge20" class="edge">
<title>Node19&#45;&gt;Node15</title>
<path fill="none" stroke="#191970" d="M1563.3186,-111.7632C1630.9413,-107.7955 1714.2238,-102.9091 1771.7487,-99.5339"/>
<polygon fill="#191970" stroke="#191970" points="1562.8117,-108.2868 1553.0339,-112.3666 1563.2217,-115.2748 1562.8117,-108.2868"/>
</g>
<!-- Node19&#45;&gt;Node16 -->
<g id="edge19" class="edge">
<title>Node19&#45;&gt;Node16</title>
<path fill="none" stroke="#191970" d="M1544.8232,-98.1835C1547.6341,-96.7289 1550.3679,-95.1702 1553,-93.5 1574.626,-79.7772 1568.1253,-63.3407 1589,-48.5 1594.2951,-44.7355 1600.1886,-41.4686 1606.2698,-38.6451"/>
<polygon fill="#191970" stroke="#191970" points="1543.1935,-95.0816 1535.6136,-102.484 1546.1553,-101.4242 1543.1935,-95.0816"/>
</g>
<!-- Node21 -->
<g id="node21" class="node">
<title>Node21</title>
<g id="a_node21"><a xlink:href="../../d0/de8/classXrayFluoPlaneDetectorConstruction.html#aee1f27ba7dcf3c8f17a429c0af245650" target="_top" xlink:title="XrayFluoPlaneDetectorConstruction\l::GetInstance">
<polygon fill="none" stroke="#000000" points="1350.5,-.5 1350.5,-32.5 1546.5,-32.5 1546.5,-.5 1350.5,-.5"/>
<text text-anchor="start" x="1358.5" y="-19.5" font-family="FreeSans" font-size="10.00" fill="#000000">XrayFluoPlaneDetectorConstruction</text>
<text text-anchor="middle" x="1448.5" y="-7.5" font-family="FreeSans" font-size="10.00" fill="#000000">::GetInstance</text>
</a>
</g>
</g>
<!-- Node20&#45;&gt;Node21 -->
<g id="edge22" class="edge">
<title>Node20&#45;&gt;Node21</title>
<path fill="none" stroke="#191970" d="M1312.0286,-16.5C1324.8535,-16.5 1337.8538,-16.5 1350.4757,-16.5"/>
<polygon fill="#191970" stroke="#191970" points="1311.7915,-13.0001 1301.7915,-16.5 1311.7914,-20.0001 1311.7915,-13.0001"/>
</g>
<!-- Node21&#45;&gt;Node16 -->
<g id="edge23" class="edge">
<title>Node21&#45;&gt;Node16</title>
<path fill="none" stroke="#191970" d="M1557.1216,-19.5455C1573.8214,-20.0137 1590.4685,-20.4804 1605.4352,-20.9001"/>
<polygon fill="#191970" stroke="#191970" points="1556.8256,-16.0359 1546.7314,-19.2542 1556.6294,-23.0331 1556.8256,-16.0359"/>
</g>
<!-- Node22&#45;&gt;Node3 -->
<g id="edge25" class="edge">
<title>Node22&#45;&gt;Node3</title>
<path fill="none" stroke="#191970" d="M351.9708,-354.3848C357.77,-352.5108 363.5069,-350.5424 369,-348.5 396.7256,-338.1912 427.0674,-323.7468 449.0105,-312.6969"/>
<polygon fill="#191970" stroke="#191970" points="350.6833,-351.1202 342.1841,-357.4457 352.7729,-357.801 350.6833,-351.1202"/>
</g>
<!-- Node23&#45;&gt;Node3 -->
<g id="edge27" class="edge">
<title>Node23&#45;&gt;Node3</title>
<path fill="none" stroke="#191970" d="M362.5709,-311.7658C380.3563,-309.4537 398.9006,-307.0429 415.8591,-304.8383"/>
<polygon fill="#191970" stroke="#191970" points="361.6699,-308.3534 352.2046,-313.1134 362.5724,-315.295 361.6699,-308.3534"/>
</g>
<!-- Node24&#45;&gt;Node3 -->
<g id="edge29" class="edge">
<title>Node24&#45;&gt;Node3</title>
<path fill="none" stroke="#191970" d="M365.437,-282.1796C382.2777,-284.2847 399.6815,-286.4602 415.6825,-288.4603"/>
<polygon fill="#191970" stroke="#191970" points="365.3986,-278.6477 355.0416,-280.8802 364.5303,-285.5936 365.3986,-278.6477"/>
</g>
<!-- Node25&#45;&gt;Node3 -->
<g id="edge31" class="edge">
<title>Node25&#45;&gt;Node3</title>
<path fill="none" stroke="#191970" d="M349.1466,-239.6699C355.8969,-241.8492 362.6082,-244.1398 369,-246.5 395.9649,-256.457 425.6067,-269.946 447.4711,-280.4042"/>
<polygon fill="#191970" stroke="#191970" points="349.8507,-236.2224 339.2613,-236.5612 347.7508,-242.9 349.8507,-236.2224"/>
</g>
<!-- Node26&#45;&gt;Node3 -->
<g id="edge33" class="edge">
<title>Node26&#45;&gt;Node3</title>
<path fill="none" stroke="#191970" d="M353.7662,-188.1324C359.0395,-190.3437 364.1741,-192.7927 369,-195.5 409.4469,-218.1905 447.3113,-258.1564 466.6301,-280.4042"/>
<polygon fill="#191970" stroke="#191970" points="354.7498,-184.7598 344.1609,-184.4043 352.2169,-191.2855 354.7498,-184.7598"/>
</g>
</g>
</svg>
