<?xml version="1.0" encoding="UTF-8" standalone="no"?>
<!DOCTYPE svg PUBLIC "-//W3C//DTD SVG 1.1//EN"
 "http://www.w3.org/Graphics/SVG/1.1/DTD/svg11.dtd">
<!-- Generated by graphviz version 2.40.1 (20161225.0304)
 -->
<!-- Title: G4ToolsAnalysisReader::G4ToolsAnalysisReader Pages: 1 -->
<svg width="305pt" height="245pt"
 viewBox="0.00 0.00 305.00 245.00" xmlns="http://www.w3.org/2000/svg" xmlns:xlink="http://www.w3.org/1999/xlink">
<g id="graph0" class="graph" transform="scale(1 1) rotate(0) translate(4 241)">
<title>G4ToolsAnalysisReader::G4ToolsAnalysisReader</title>
<!-- Node1 -->
<g id="node1" class="node">
<title>Node1</title>
<polygon fill="#bfbfbf" stroke="#000000" points="0,-102.5 0,-134.5 141,-134.5 141,-102.5 0,-102.5"/>
<text text-anchor="start" x="8" y="-121.5" font-family="FreeSans" font-size="10.00" fill="#000000">G4ToolsAnalysisReader</text>
<text text-anchor="middle" x="70.5" y="-109.5" font-family="FreeSans" font-size="10.00" fill="#000000">::G4ToolsAnalysisReader</text>
</g>
<!-- Node2 -->
<g id="node2" class="node">
<title>Node2</title>
<g id="a_node2"><a xlink:href="../../de/da9/classG4VAnalysisReader.html#ab7ff03c8165ccf42180bbe451fe0c914" target="_top" xlink:title="G4VAnalysisReader::\lSetH1Manager">
<polygon fill="none" stroke="#000000" points="177,-204.5 177,-236.5 297,-236.5 297,-204.5 177,-204.5"/>
<text text-anchor="start" x="185" y="-223.5" font-family="FreeSans" font-size="10.00" fill="#000000">G4VAnalysisReader::</text>
<text text-anchor="middle" x="237" y="-211.5" font-family="FreeSans" font-size="10.00" fill="#000000">SetH1Manager</text>
</a>
</g>
</g>
<!-- Node1&#45;&gt;Node2 -->
<g id="edge1" class="edge">
<title>Node1&#45;&gt;Node2</title>
<path fill="none" stroke="#191970" d="M89.9872,-134.7174C110.6674,-151.4048 144.7488,-177.4433 177,-195.5 179.8063,-197.0712 182.7313,-198.6023 185.7139,-200.083"/>
<polygon fill="#191970" stroke="#191970" points="184.2365,-203.2558 194.7733,-204.3626 187.2265,-196.9265 184.2365,-203.2558"/>
</g>
<!-- Node3 -->
<g id="node3" class="node">
<title>Node3</title>
<g id="a_node3"><a xlink:href="../../de/da9/classG4VAnalysisReader.html#a8818719e912f6bc89711d90089f3376a" target="_top" xlink:title="G4VAnalysisReader::\lSetH2Manager">
<polygon fill="none" stroke="#000000" points="177,-153.5 177,-185.5 297,-185.5 297,-153.5 177,-153.5"/>
<text text-anchor="start" x="185" y="-172.5" font-family="FreeSans" font-size="10.00" fill="#000000">G4VAnalysisReader::</text>
<text text-anchor="middle" x="237" y="-160.5" font-family="FreeSans" font-size="10.00" fill="#000000">SetH2Manager</text>
</a>
</g>
</g>
<!-- Node1&#45;&gt;Node3 -->
<g id="edge2" class="edge">
<title>Node1&#45;&gt;Node3</title>
<path fill="none" stroke="#191970" d="M123.1816,-134.6367C139.5878,-139.662 157.8333,-145.2507 174.8249,-150.4554"/>
<polygon fill="#191970" stroke="#191970" points="174.0745,-153.886 184.6611,-153.4683 176.1246,-147.1929 174.0745,-153.886"/>
</g>
<!-- Node4 -->
<g id="node4" class="node">
<title>Node4</title>
<g id="a_node4"><a xlink:href="../../de/da9/classG4VAnalysisReader.html#ae963b7ca62ca4b9f73c8f8c7a81b3159" target="_top" xlink:title="G4VAnalysisReader::\lSetH3Manager">
<polygon fill="none" stroke="#000000" points="177,-102.5 177,-134.5 297,-134.5 297,-102.5 177,-102.5"/>
<text text-anchor="start" x="185" y="-121.5" font-family="FreeSans" font-size="10.00" fill="#000000">G4VAnalysisReader::</text>
<text text-anchor="middle" x="237" y="-109.5" font-family="FreeSans" font-size="10.00" fill="#000000">SetH3Manager</text>
</a>
</g>
</g>
<!-- Node1&#45;&gt;Node4 -->
<g id="edge3" class="edge">
<title>Node1&#45;&gt;Node4</title>
<path fill="none" stroke="#191970" d="M141.111,-118.5C149.5546,-118.5 158.1757,-118.5 166.6161,-118.5"/>
<polygon fill="#191970" stroke="#191970" points="166.7978,-122.0001 176.7977,-118.5 166.7977,-115.0001 166.7978,-122.0001"/>
</g>
<!-- Node5 -->
<g id="node5" class="node">
<title>Node5</title>
<g id="a_node5"><a xlink:href="../../de/da9/classG4VAnalysisReader.html#a2baf4d3dbefe2deed2bbe351277293cf" target="_top" xlink:title="G4VAnalysisReader::\lSetP1Manager">
<polygon fill="none" stroke="#000000" points="177,-51.5 177,-83.5 297,-83.5 297,-51.5 177,-51.5"/>
<text text-anchor="start" x="185" y="-70.5" font-family="FreeSans" font-size="10.00" fill="#000000">G4VAnalysisReader::</text>
<text text-anchor="middle" x="237" y="-58.5" font-family="FreeSans" font-size="10.00" fill="#000000">SetP1Manager</text>
</a>
</g>
</g>
<!-- Node1&#45;&gt;Node5 -->
<g id="edge4" class="edge">
<title>Node1&#45;&gt;Node5</title>
<path fill="none" stroke="#191970" d="M123.1816,-102.3633C139.5878,-97.338 157.8333,-91.7493 174.8249,-86.5446"/>
<polygon fill="#191970" stroke="#191970" points="176.1246,-89.8071 184.6611,-83.5317 174.0745,-83.114 176.1246,-89.8071"/>
</g>
<!-- Node6 -->
<g id="node6" class="node">
<title>Node6</title>
<g id="a_node6"><a xlink:href="../../de/da9/classG4VAnalysisReader.html#a4644814586b3dd78cf5a1ca17382cb10" target="_top" xlink:title="G4VAnalysisReader::\lSetP2Manager">
<polygon fill="none" stroke="#000000" points="177,-.5 177,-32.5 297,-32.5 297,-.5 177,-.5"/>
<text text-anchor="start" x="185" y="-19.5" font-family="FreeSans" font-size="10.00" fill="#000000">G4VAnalysisReader::</text>
<text text-anchor="middle" x="237" y="-7.5" font-family="FreeSans" font-size="10.00" fill="#000000">SetP2Manager</text>
</a>
</g>
</g>
<!-- Node1&#45;&gt;Node6 -->
<g id="edge5" class="edge">
<title>Node1&#45;&gt;Node6</title>
<path fill="none" stroke="#191970" d="M90.4599,-102.3027C111.2464,-85.9131 145.1612,-60.4919 177,-42.5 180.4052,-40.5757 183.9807,-38.6985 187.6188,-36.8904"/>
<polygon fill="#191970" stroke="#191970" points="189.2065,-40.011 196.7301,-32.5514 186.1967,-33.6911 189.2065,-40.011"/>
</g>
</g>
</svg>
