<?xml version="1.0" encoding="UTF-8" standalone="no"?>
<!DOCTYPE svg PUBLIC "-//W3C//DTD SVG 1.1//EN"
 "http://www.w3.org/Graphics/SVG/1.1/DTD/svg11.dtd">
<!-- Generated by graphviz version 2.40.1 (20161225.0304)
 -->
<!-- Title: G4VBiasingOperator::GetName Pages: 1 -->
<svg width="758pt" height="582pt"
 viewBox="0.00 0.00 758.00 582.00" xmlns="http://www.w3.org/2000/svg" xmlns:xlink="http://www.w3.org/1999/xlink">
<g id="graph0" class="graph" transform="scale(1 1) rotate(0) translate(4 578)">
<title>G4VBiasingOperator::GetName</title>
<!-- Node1 -->
<g id="node1" class="node">
<title>Node1</title>
<polygon fill="#bfbfbf" stroke="#000000" points="0,-289.5 0,-321.5 120,-321.5 120,-289.5 0,-289.5"/>
<text text-anchor="start" x="8" y="-308.5" font-family="FreeSans" font-size="10.00" fill="#000000">G4VBiasingOperator</text>
<text text-anchor="middle" x="60" y="-296.5" font-family="FreeSans" font-size="10.00" fill="#000000">::GetName</text>
</g>
<!-- Node2 -->
<g id="node2" class="node">
<title>Node2</title>
<g id="a_node2"><a xlink:href="../../d1/d27/classG4VBiasingOperator.html#a778671d1061e6658c1bcd46cda71736e" target="_top" xlink:title="G4VBiasingOperator\l::AttachTo">
<polygon fill="none" stroke="#000000" points="205,-433.5 205,-465.5 325,-465.5 325,-433.5 205,-433.5"/>
<text text-anchor="start" x="213" y="-452.5" font-family="FreeSans" font-size="10.00" fill="#000000">G4VBiasingOperator</text>
<text text-anchor="middle" x="265" y="-440.5" font-family="FreeSans" font-size="10.00" fill="#000000">::AttachTo</text>
</a>
</g>
</g>
<!-- Node1&#45;&gt;Node2 -->
<g id="edge1" class="edge">
<title>Node1&#45;&gt;Node2</title>
<path fill="none" stroke="#191970" d="M74.6204,-330.0826C91.1933,-355.8505 120.5644,-395.6956 156,-418.5 170.6416,-427.9225 188.1866,-434.5351 204.8777,-439.1544"/>
<polygon fill="#191970" stroke="#191970" points="77.5821,-328.2176 69.3031,-321.6063 71.6523,-331.9374 77.5821,-328.2176"/>
</g>
<!-- Node3 -->
<g id="node3" class="node">
<title>Node3</title>
<g id="a_node3"><a xlink:href="../../d3/d2a/classGB05DetectorConstruction.html#a5b1025c57545c61b725e76143cb698d8" target="_top" xlink:title="GB05DetectorConstruction\l::ConstructSDandField">
<polygon fill="none" stroke="#000000" points="410,-541.5 410,-573.5 562,-573.5 562,-541.5 410,-541.5"/>
<text text-anchor="start" x="418" y="-560.5" font-family="FreeSans" font-size="10.00" fill="#000000">GB05DetectorConstruction</text>
<text text-anchor="middle" x="486" y="-548.5" font-family="FreeSans" font-size="10.00" fill="#000000">::ConstructSDandField</text>
</a>
</g>
</g>
<!-- Node1&#45;&gt;Node3 -->
<g id="edge9" class="edge">
<title>Node1&#45;&gt;Node3</title>
<path fill="none" stroke="#191970" d="M64.0343,-331.7189C72.4217,-376.5328 96.2051,-467.2952 156,-511.5 229.3772,-565.7459 337.629,-570.6049 409.9127,-566.3444"/>
<polygon fill="#191970" stroke="#191970" points="67.4384,-330.8671 62.2621,-321.6228 60.5438,-332.0774 67.4384,-330.8671"/>
</g>
<!-- Node4 -->
<g id="node4" class="node">
<title>Node4</title>
<g id="a_node4"><a xlink:href="../../d9/d28/classGB07DetectorConstruction.html#ad34ff8255aa751f7edaf9460d7ebd2b4" target="_top" xlink:title="GB07DetectorConstruction\l::ConstructSDandField">
<polygon fill="none" stroke="#000000" points="410,-490.5 410,-522.5 562,-522.5 562,-490.5 410,-490.5"/>
<text text-anchor="start" x="418" y="-509.5" font-family="FreeSans" font-size="10.00" fill="#000000">GB07DetectorConstruction</text>
<text text-anchor="middle" x="486" y="-497.5" font-family="FreeSans" font-size="10.00" fill="#000000">::ConstructSDandField</text>
</a>
</g>
</g>
<!-- Node1&#45;&gt;Node4 -->
<g id="edge10" class="edge">
<title>Node1&#45;&gt;Node4</title>
<path fill="none" stroke="#191970" d="M66.4705,-331.5547C77.5836,-370.2556 104.2672,-441.9602 156,-475.5 231.6855,-524.569 338.4084,-525.17 409.7843,-518.2607"/>
<polygon fill="#191970" stroke="#191970" points="69.7548,-330.296 63.741,-321.5733 63.0028,-332.1424 69.7548,-330.296"/>
</g>
<!-- Node5 -->
<g id="node5" class="node">
<title>Node5</title>
<g id="a_node5"><a xlink:href="../../d7/df8/classGB02DetectorConstruction.html#aac55cfc138a543f3cdbfe377f31b5a46" target="_top" xlink:title="GB02DetectorConstruction\l::ConstructSDandField">
<polygon fill="none" stroke="#000000" points="410,-388.5 410,-420.5 562,-420.5 562,-388.5 410,-388.5"/>
<text text-anchor="start" x="418" y="-407.5" font-family="FreeSans" font-size="10.00" fill="#000000">GB02DetectorConstruction</text>
<text text-anchor="middle" x="486" y="-395.5" font-family="FreeSans" font-size="10.00" fill="#000000">::ConstructSDandField</text>
</a>
</g>
</g>
<!-- Node1&#45;&gt;Node5 -->
<g id="edge11" class="edge">
<title>Node1&#45;&gt;Node5</title>
<path fill="none" stroke="#191970" d="M101.1536,-326.113C117.8372,-333.7747 137.5027,-341.9454 156,-347.5 241.0566,-373.0419 342.0989,-388.3966 409.7678,-396.6276"/>
<polygon fill="#191970" stroke="#191970" points="102.2466,-322.7599 91.7065,-321.6844 99.2753,-329.0981 102.2466,-322.7599"/>
</g>
<!-- Node6 -->
<g id="node6" class="node">
<title>Node6</title>
<g id="a_node6"><a xlink:href="../../d0/dd2/classGB01DetectorConstruction.html#a8a1d1d81246995d3b163459ad39aba9f" target="_top" xlink:title="GB01DetectorConstruction\l::ConstructSDandField">
<polygon fill="none" stroke="#000000" points="410,-337.5 410,-369.5 562,-369.5 562,-337.5 410,-337.5"/>
<text text-anchor="start" x="418" y="-356.5" font-family="FreeSans" font-size="10.00" fill="#000000">GB01DetectorConstruction</text>
<text text-anchor="middle" x="486" y="-344.5" font-family="FreeSans" font-size="10.00" fill="#000000">::ConstructSDandField</text>
</a>
</g>
</g>
<!-- Node1&#45;&gt;Node6 -->
<g id="edge12" class="edge">
<title>Node1&#45;&gt;Node6</title>
<path fill="none" stroke="#191970" d="M130.1551,-319.4467C138.8389,-320.9389 147.6099,-322.3347 156,-323.5 242.6111,-335.5291 342.7094,-343.8498 409.7451,-348.6251"/>
<polygon fill="#191970" stroke="#191970" points="130.4853,-315.951 120.0291,-317.659 129.2682,-322.8444 130.4853,-315.951"/>
</g>
<!-- Node7 -->
<g id="node7" class="node">
<title>Node7</title>
<g id="a_node7"><a xlink:href="../../df/d28/classGB04DetectorConstruction.html#a6af90e31da248ac16e28c012bbba4e5c" target="_top" xlink:title="GB04DetectorConstruction\l::ConstructSDandField">
<polygon fill="none" stroke="#000000" points="410,-286.5 410,-318.5 562,-318.5 562,-286.5 410,-286.5"/>
<text text-anchor="start" x="418" y="-305.5" font-family="FreeSans" font-size="10.00" fill="#000000">GB04DetectorConstruction</text>
<text text-anchor="middle" x="486" y="-293.5" font-family="FreeSans" font-size="10.00" fill="#000000">::ConstructSDandField</text>
</a>
</g>
</g>
<!-- Node1&#45;&gt;Node7 -->
<g id="edge13" class="edge">
<title>Node1&#45;&gt;Node7</title>
<path fill="none" stroke="#191970" d="M130.27,-308.7654C138.9341,-309.0684 147.6691,-309.3265 156,-309.5 252.8679,-311.5172 277.1583,-312.5234 374,-309.5 385.5864,-309.1383 397.8371,-308.5666 409.8175,-307.902"/>
<polygon fill="#191970" stroke="#191970" points="130.2827,-305.2635 120.1601,-308.3913 130.0238,-312.2588 130.2827,-305.2635"/>
</g>
<!-- Node10 -->
<g id="node10" class="node">
<title>Node10</title>
<g id="a_node10"><a xlink:href="../../d1/da6/classG4BOptrForceCollision.html#a187ecbc424e841841a3cb5c3da9166c2" target="_top" xlink:title="G4BOptrForceCollision\l::EndTracking">
<polygon fill="none" stroke="#000000" points="200.5,-267.5 200.5,-299.5 329.5,-299.5 329.5,-267.5 200.5,-267.5"/>
<text text-anchor="start" x="208.5" y="-286.5" font-family="FreeSans" font-size="10.00" fill="#000000">G4BOptrForceCollision</text>
<text text-anchor="middle" x="265" y="-274.5" font-family="FreeSans" font-size="10.00" fill="#000000">::EndTracking</text>
</a>
</g>
</g>
<!-- Node1&#45;&gt;Node10 -->
<g id="edge14" class="edge">
<title>Node1&#45;&gt;Node10</title>
<path fill="none" stroke="#191970" d="M130.3488,-297.9504C153.0047,-295.519 177.9924,-292.8374 200.2274,-290.4512"/>
<polygon fill="#191970" stroke="#191970" points="129.691,-294.5008 120.1216,-299.0479 130.438,-301.4608 129.691,-294.5008"/>
</g>
<!-- Node11 -->
<g id="node11" class="node">
<title>Node11</title>
<g id="a_node11"><a xlink:href="../../d6/d72/classG4BiasingProcessInterface.html#a1e011ba93e0dca33e7b93f210f848a75" target="_top" xlink:title="G4BiasingProcessInterface\l::PostStepGetPhysicalInteraction\lLength">
<polygon fill="none" stroke="#000000" points="174.5,-204.5 174.5,-248.5 355.5,-248.5 355.5,-204.5 174.5,-204.5"/>
<text text-anchor="start" x="182.5" y="-235.5" font-family="FreeSans" font-size="10.00" fill="#000000">G4BiasingProcessInterface</text>
<text text-anchor="start" x="182.5" y="-223.5" font-family="FreeSans" font-size="10.00" fill="#000000">::PostStepGetPhysicalInteraction</text>
<text text-anchor="middle" x="265" y="-211.5" font-family="FreeSans" font-size="10.00" fill="#000000">Length</text>
</a>
</g>
</g>
<!-- Node1&#45;&gt;Node11 -->
<g id="edge15" class="edge">
<title>Node1&#45;&gt;Node11</title>
<path fill="none" stroke="#191970" d="M97.9962,-284.4499C115.3434,-275.3783 136.3606,-265.1257 156,-257.5 164.1613,-254.3311 172.7789,-251.3271 181.4474,-248.5266"/>
<polygon fill="#191970" stroke="#191970" points="95.9629,-281.5665 88.7685,-289.3441 99.2428,-287.7506 95.9629,-281.5665"/>
</g>
<!-- Node12 -->
<g id="node12" class="node">
<title>Node12</title>
<g id="a_node12"><a xlink:href="../../d9/d69/classG4BOptrForceCollisionTrackData.html#aa7264c5c465088458ce784b01c38083b" target="_top" xlink:title="G4BOptrForceCollisionTrack\lData::Print">
<polygon fill="none" stroke="#000000" points="186.5,-153.5 186.5,-185.5 343.5,-185.5 343.5,-153.5 186.5,-153.5"/>
<text text-anchor="start" x="194.5" y="-172.5" font-family="FreeSans" font-size="10.00" fill="#000000">G4BOptrForceCollisionTrack</text>
<text text-anchor="middle" x="265" y="-160.5" font-family="FreeSans" font-size="10.00" fill="#000000">Data::Print</text>
</a>
</g>
</g>
<!-- Node1&#45;&gt;Node12 -->
<g id="edge16" class="edge">
<title>Node1&#45;&gt;Node12</title>
<path fill="none" stroke="#191970" d="M74.7187,-280.6651C91.2306,-255.0479 120.4173,-215.9067 156,-194.5 165.3164,-188.8952 175.7727,-184.5463 186.4244,-181.1719"/>
<polygon fill="#191970" stroke="#191970" points="71.5678,-279.1017 69.2204,-289.4333 77.4983,-282.8206 71.5678,-279.1017"/>
</g>
<!-- Node13 -->
<g id="node13" class="node">
<title>Node13</title>
<g id="a_node13"><a xlink:href="../../dd/de1/classGB04BOptrBremSplitting.html#aa8b299532ae2244422dc2465a8aac8c3" target="_top" xlink:title="GB04BOptrBremSplitting\l::StartRun">
<polygon fill="none" stroke="#000000" points="194,-102.5 194,-134.5 336,-134.5 336,-102.5 194,-102.5"/>
<text text-anchor="start" x="202" y="-121.5" font-family="FreeSans" font-size="10.00" fill="#000000">GB04BOptrBremSplitting</text>
<text text-anchor="middle" x="265" y="-109.5" font-family="FreeSans" font-size="10.00" fill="#000000">::StartRun</text>
</a>
</g>
</g>
<!-- Node1&#45;&gt;Node13 -->
<g id="edge17" class="edge">
<title>Node1&#45;&gt;Node13</title>
<path fill="none" stroke="#191970" d="M68.1326,-279.3427C80.8249,-243.0158 108.898,-177.8896 156,-143.5 167.1331,-135.3716 180.475,-129.829 193.9442,-126.063"/>
<polygon fill="#191970" stroke="#191970" points="64.6874,-278.6073 64.82,-289.2013 71.3229,-280.8369 64.6874,-278.6073"/>
</g>
<!-- Node14 -->
<g id="node14" class="node">
<title>Node14</title>
<g id="a_node14"><a xlink:href="../../d9/d75/classGB03BOptrGeometryBasedBiasing.html#a4620dacb972f2fd53f3c31aeb8849009" target="_top" xlink:title="GB03BOptrGeometryBasedBiasing\l::StartRun">
<polygon fill="none" stroke="#000000" points="169.5,-51.5 169.5,-83.5 360.5,-83.5 360.5,-51.5 169.5,-51.5"/>
<text text-anchor="start" x="177.5" y="-70.5" font-family="FreeSans" font-size="10.00" fill="#000000">GB03BOptrGeometryBasedBiasing</text>
<text text-anchor="middle" x="265" y="-58.5" font-family="FreeSans" font-size="10.00" fill="#000000">::StartRun</text>
</a>
</g>
</g>
<!-- Node1&#45;&gt;Node14 -->
<g id="edge18" class="edge">
<title>Node1&#45;&gt;Node14</title>
<path fill="none" stroke="#191970" d="M64.0561,-279.5826C72.5527,-234.3459 96.5993,-141.1679 156,-92.5 160.13,-89.1163 164.6304,-86.171 169.3741,-83.6091"/>
<polygon fill="#191970" stroke="#191970" points="60.599,-279.0333 62.3022,-289.4903 67.4918,-280.2535 60.599,-279.0333"/>
</g>
<!-- Node15 -->
<g id="node15" class="node">
<title>Node15</title>
<g id="a_node15"><a xlink:href="../../d9/d69/classG4BOptrForceCollisionTrackData.html#acddfde88ea0414cda334daac4b0a5d05" target="_top" xlink:title="G4BOptrForceCollisionTrack\lData::~G4BOptrForceCollisionTrackData">
<polygon fill="none" stroke="#000000" points="156,-.5 156,-32.5 374,-32.5 374,-.5 156,-.5"/>
<text text-anchor="start" x="164" y="-19.5" font-family="FreeSans" font-size="10.00" fill="#000000">G4BOptrForceCollisionTrack</text>
<text text-anchor="middle" x="265" y="-7.5" font-family="FreeSans" font-size="10.00" fill="#000000">Data::~G4BOptrForceCollisionTrackData</text>
</a>
</g>
</g>
<!-- Node1&#45;&gt;Node15 -->
<g id="edge19" class="edge">
<title>Node1&#45;&gt;Node15</title>
<path fill="none" stroke="#191970" d="M61.5447,-279.2207C66.1517,-225.9193 84.3735,-104.797 156,-41.5 159.8553,-38.093 164.0804,-35.1235 168.5575,-32.5374"/>
<polygon fill="#191970" stroke="#191970" points="58.0522,-278.9909 60.7734,-289.2303 65.0315,-279.5288 58.0522,-278.9909"/>
</g>
<!-- Node2&#45;&gt;Node3 -->
<g id="edge2" class="edge">
<title>Node2&#45;&gt;Node3</title>
<path fill="none" stroke="#191970" d="M298.4104,-471.218C327.1642,-489.2687 370.1882,-514.7763 410,-532.5 417.106,-535.6635 424.7399,-538.6393 432.3306,-541.358"/>
<polygon fill="#191970" stroke="#191970" points="299.9196,-468.031 289.5984,-465.6387 296.175,-473.9453 299.9196,-468.031"/>
</g>
<!-- Node2&#45;&gt;Node4 -->
<g id="edge3" class="edge">
<title>Node2&#45;&gt;Node4</title>
<path fill="none" stroke="#191970" d="M334.9663,-467.5456C363.3999,-474.8792 395.9903,-483.2848 423.6019,-490.4064"/>
<polygon fill="#191970" stroke="#191970" points="335.6546,-464.1086 325.0973,-465.0002 333.9063,-470.8868 335.6546,-464.1086"/>
</g>
<!-- Node2&#45;&gt;Node5 -->
<g id="edge4" class="edge">
<title>Node2&#45;&gt;Node5</title>
<path fill="none" stroke="#191970" d="M335.0832,-435.2297C358.8325,-430.3938 385.4707,-424.9698 409.6808,-420.0401"/>
<polygon fill="#191970" stroke="#191970" points="334.1979,-431.838 325.0973,-437.263 335.5946,-438.6973 334.1979,-431.838"/>
</g>
<!-- Node2&#45;&gt;Node6 -->
<g id="edge5" class="edge">
<title>Node2&#45;&gt;Node6</title>
<path fill="none" stroke="#191970" d="M304.5647,-428.8054C333.3902,-414.1226 373.6012,-394.4488 410,-379.5 418.3848,-376.0564 427.4113,-372.6853 436.213,-369.572"/>
<polygon fill="#191970" stroke="#191970" points="302.9295,-425.7104 295.6251,-433.3848 306.121,-431.9406 302.9295,-425.7104"/>
</g>
<!-- Node2&#45;&gt;Node7 -->
<g id="edge6" class="edge">
<title>Node2&#45;&gt;Node7</title>
<path fill="none" stroke="#191970" d="M287.8607,-425.7564C314.8503,-398.9045 362.1467,-355.4257 410,-328.5 416.5628,-324.8073 423.7386,-321.5156 430.9766,-318.62"/>
<polygon fill="#191970" stroke="#191970" points="285.0422,-423.6277 280.4807,-433.1903 290.0099,-428.5594 285.0422,-423.6277"/>
</g>
<!-- Node8 -->
<g id="node8" class="node">
<title>Node8</title>
<g id="a_node8"><a xlink:href="../../d6/dd9/classGB03DetectorConstruction.html#a6df0c49c07a7f38840f81a5cde09a566" target="_top" xlink:title="GB03DetectorConstruction\l::SetupBiasing">
<polygon fill="none" stroke="#000000" points="410,-439.5 410,-471.5 562,-471.5 562,-439.5 410,-439.5"/>
<text text-anchor="start" x="418" y="-458.5" font-family="FreeSans" font-size="10.00" fill="#000000">GB03DetectorConstruction</text>
<text text-anchor="middle" x="486" y="-446.5" font-family="FreeSans" font-size="10.00" fill="#000000">::SetupBiasing</text>
</a>
</g>
</g>
<!-- Node2&#45;&gt;Node8 -->
<g id="edge7" class="edge">
<title>Node2&#45;&gt;Node8</title>
<path fill="none" stroke="#191970" d="M335.4014,-451.4114C359.0703,-452.0539 385.5788,-452.7736 409.6808,-453.428"/>
<polygon fill="#191970" stroke="#191970" points="335.1886,-447.9044 325.0973,-451.1316 334.9986,-454.9018 335.1886,-447.9044"/>
</g>
<!-- Node9 -->
<g id="node9" class="node">
<title>Node9</title>
<g id="a_node9"><a xlink:href="../../d6/dd9/classGB03DetectorConstruction.html#aed4a6a37e0178fc59d6ff25629179f74" target="_top" xlink:title="GB03DetectorConstruction\l::ConstructSDandField">
<polygon fill="none" stroke="#000000" points="598,-439.5 598,-471.5 750,-471.5 750,-439.5 598,-439.5"/>
<text text-anchor="start" x="606" y="-458.5" font-family="FreeSans" font-size="10.00" fill="#000000">GB03DetectorConstruction</text>
<text text-anchor="middle" x="674" y="-446.5" font-family="FreeSans" font-size="10.00" fill="#000000">::ConstructSDandField</text>
</a>
</g>
</g>
<!-- Node8&#45;&gt;Node9 -->
<g id="edge8" class="edge">
<title>Node8&#45;&gt;Node9</title>
<path fill="none" stroke="#191970" d="M572.4237,-455.5C580.8572,-455.5 589.3725,-455.5 597.6957,-455.5"/>
<polygon fill="#191970" stroke="#191970" points="572.1958,-452.0001 562.1958,-455.5 572.1957,-459.0001 572.1958,-452.0001"/>
</g>
</g>
</svg>
