<?xml version="1.0" encoding="UTF-8" standalone="no"?>
<!DOCTYPE svg PUBLIC "-//W3C//DTD SVG 1.1//EN"
 "http://www.w3.org/Graphics/SVG/1.1/DTD/svg11.dtd">
<!-- Generated by graphviz version 2.40.1 (20161225.0304)
 -->
<!-- Title: G4GDMLReadSolids::QuadrangularRead Pages: 1 -->
<svg width="680pt" height="29pt"
 viewBox="0.00 0.00 680.00 29.00" xmlns="http://www.w3.org/2000/svg" xmlns:xlink="http://www.w3.org/1999/xlink">
<g id="graph0" class="graph" transform="scale(1 1) rotate(0) translate(4 25)">
<title>G4GDMLReadSolids::QuadrangularRead</title>
<!-- Node1 -->
<g id="node1" class="node">
<title>Node1</title>
<polygon fill="#bfbfbf" stroke="#000000" points="0,-.5 0,-20.5 218,-20.5 218,-.5 0,-.5"/>
<text text-anchor="middle" x="109" y="-7.5" font-family="FreeSans" font-size="10.00" fill="#000000">G4GDMLReadSolids::QuadrangularRead</text>
</g>
<!-- Node2 -->
<g id="node2" class="node">
<title>Node2</title>
<g id="a_node2"><a xlink:href="../../d4/db9/classG4GDMLReadSolids.html#aba018e0556f24f212485efaa1864d23d" target="_top" xlink:title="G4GDMLReadSolids::TessellatedRead">
<polygon fill="none" stroke="#000000" points="254,-.5 254,-20.5 458,-20.5 458,-.5 254,-.5"/>
<text text-anchor="middle" x="356" y="-7.5" font-family="FreeSans" font-size="10.00" fill="#000000">G4GDMLReadSolids::TessellatedRead</text>
</a>
</g>
</g>
<!-- Node1&#45;&gt;Node2 -->
<g id="edge1" class="edge">
<title>Node1&#45;&gt;Node2</title>
<path fill="none" stroke="#191970" d="M228.1216,-10.5C236.7148,-10.5 245.3364,-10.5 253.8196,-10.5"/>
<polygon fill="#191970" stroke="#191970" points="228.0568,-7.0001 218.0568,-10.5 228.0568,-14.0001 228.0568,-7.0001"/>
</g>
<!-- Node3 -->
<g id="node3" class="node">
<title>Node3</title>
<g id="a_node3"><a xlink:href="../../d4/db9/classG4GDMLReadSolids.html#aaa40a604da13ce30b7e99c45277e30e7" target="_top" xlink:title="G4GDMLReadSolids::SolidsRead">
<polygon fill="none" stroke="#000000" points="494,-.5 494,-20.5 672,-20.5 672,-.5 494,-.5"/>
<text text-anchor="middle" x="583" y="-7.5" font-family="FreeSans" font-size="10.00" fill="#000000">G4GDMLReadSolids::SolidsRead</text>
</a>
</g>
</g>
<!-- Node2&#45;&gt;Node3 -->
<g id="edge2" class="edge">
<title>Node2&#45;&gt;Node3</title>
<path fill="none" stroke="#191970" d="M468.2672,-10.5C476.8474,-10.5 485.4369,-10.5 493.8397,-10.5"/>
<polygon fill="#191970" stroke="#191970" points="468.211,-7.0001 458.211,-10.5 468.2109,-14.0001 468.211,-7.0001"/>
</g>
</g>
</svg>
