<?xml version="1.0" encoding="UTF-8" standalone="no"?>
<!DOCTYPE svg PUBLIC "-//W3C//DTD SVG 1.1//EN"
 "http://www.w3.org/Graphics/SVG/1.1/DTD/svg11.dtd">
<!-- Generated by graphviz version 2.40.1 (20161225.0304)
 -->
<!-- Title: HepGeom::Reflect3D Pages: 1 -->
<svg width="431pt" height="143pt"
 viewBox="0.00 0.00 431.00 143.00" xmlns="http://www.w3.org/2000/svg" xmlns:xlink="http://www.w3.org/1999/xlink">
<g id="graph0" class="graph" transform="scale(1 1) rotate(0) translate(4 139)">
<title>HepGeom::Reflect3D</title>
<!-- Node1 -->
<g id="node1" class="node">
<title>Node1</title>
<polygon fill="#bfbfbf" stroke="#000000" points="150.5,-57.5 150.5,-77.5 272.5,-77.5 272.5,-57.5 150.5,-57.5"/>
<text text-anchor="middle" x="211.5" y="-64.5" font-family="FreeSans" font-size="10.00" fill="#000000">HepGeom::Reflect3D</text>
</g>
<!-- Node3 -->
<g id="node3" class="node">
<title>Node3</title>
<g id="a_node3"><a xlink:href="../../d2/d93/classHepGeom_1_1ReflectX3D.html" target="_top" xlink:title="HepGeom::ReflectX3D">
<polygon fill="none" stroke="#000000" points="0,-.5 0,-20.5 129,-20.5 129,-.5 0,-.5"/>
<text text-anchor="middle" x="64.5" y="-7.5" font-family="FreeSans" font-size="10.00" fill="#000000">HepGeom::ReflectX3D</text>
</a>
</g>
</g>
<!-- Node1&#45;&gt;Node3 -->
<g id="edge2" class="edge">
<title>Node1&#45;&gt;Node3</title>
<path fill="none" stroke="#191970" d="M175.9596,-53.719C149.6637,-43.5227 114.4334,-29.8619 90.6774,-20.6504"/>
<polygon fill="#191970" stroke="#191970" points="174.9687,-57.0887 185.5577,-57.4408 177.4995,-50.5621 174.9687,-57.0887"/>
</g>
<!-- Node4 -->
<g id="node4" class="node">
<title>Node4</title>
<g id="a_node4"><a xlink:href="../../d4/da7/classHepGeom_1_1ReflectY3D.html" target="_top" xlink:title="HepGeom::ReflectY3D">
<polygon fill="none" stroke="#000000" points="147,-.5 147,-20.5 276,-20.5 276,-.5 147,-.5"/>
<text text-anchor="middle" x="211.5" y="-7.5" font-family="FreeSans" font-size="10.00" fill="#000000">HepGeom::ReflectY3D</text>
</a>
</g>
</g>
<!-- Node1&#45;&gt;Node4 -->
<g id="edge3" class="edge">
<title>Node1&#45;&gt;Node4</title>
<path fill="none" stroke="#191970" d="M211.5,-47.1771C211.5,-38.1625 211.5,-27.9556 211.5,-20.6022"/>
<polygon fill="#191970" stroke="#191970" points="208.0001,-47.3095 211.5,-57.3095 215.0001,-47.3096 208.0001,-47.3095"/>
</g>
<!-- Node5 -->
<g id="node5" class="node">
<title>Node5</title>
<g id="a_node5"><a xlink:href="../../db/d8c/classHepGeom_1_1ReflectZ3D.html" target="_top" xlink:title="HepGeom::ReflectZ3D">
<polygon fill="none" stroke="#000000" points="294,-.5 294,-20.5 423,-20.5 423,-.5 294,-.5"/>
<text text-anchor="middle" x="358.5" y="-7.5" font-family="FreeSans" font-size="10.00" fill="#000000">HepGeom::ReflectZ3D</text>
</a>
</g>
</g>
<!-- Node1&#45;&gt;Node5 -->
<g id="edge4" class="edge">
<title>Node1&#45;&gt;Node5</title>
<path fill="none" stroke="#191970" d="M247.0404,-53.719C273.3363,-43.5227 308.5666,-29.8619 332.3226,-20.6504"/>
<polygon fill="#191970" stroke="#191970" points="245.5005,-50.5621 237.4423,-57.4408 248.0313,-57.0887 245.5005,-50.5621"/>
</g>
<!-- Node2 -->
<g id="node2" class="node">
<title>Node2</title>
<g id="a_node2"><a xlink:href="../../dd/de6/classHepGeom_1_1Transform3D.html" target="_top" xlink:title="HepGeom::Transform3D">
<polygon fill="none" stroke="#000000" points="142.5,-114.5 142.5,-134.5 280.5,-134.5 280.5,-114.5 142.5,-114.5"/>
<text text-anchor="middle" x="211.5" y="-121.5" font-family="FreeSans" font-size="10.00" fill="#000000">HepGeom::Transform3D</text>
</a>
</g>
</g>
<!-- Node2&#45;&gt;Node1 -->
<g id="edge1" class="edge">
<title>Node2&#45;&gt;Node1</title>
<path fill="none" stroke="#191970" d="M211.5,-104.1771C211.5,-95.1625 211.5,-84.9556 211.5,-77.6022"/>
<polygon fill="#191970" stroke="#191970" points="208.0001,-104.3095 211.5,-114.3095 215.0001,-104.3096 208.0001,-104.3095"/>
</g>
</g>
</svg>
