<?xml version="1.0" encoding="UTF-8" standalone="no"?>
<!DOCTYPE svg PUBLIC "-//W3C//DTD SVG 1.1//EN"
 "http://www.w3.org/Graphics/SVG/1.1/DTD/svg11.dtd">
<!-- Generated by graphviz version 2.40.1 (20161225.0304)
 -->
<!-- Title: G4VisStateDependent::Notify Pages: 1 -->
<svg width="714pt" height="92pt"
 viewBox="0.00 0.00 714.00 92.00" xmlns="http://www.w3.org/2000/svg" xmlns:xlink="http://www.w3.org/1999/xlink">
<g id="graph0" class="graph" transform="scale(1 1) rotate(0) translate(4 88)">
<title>G4VisStateDependent::Notify</title>
<!-- Node1 -->
<g id="node1" class="node">
<title>Node1</title>
<polygon fill="#bfbfbf" stroke="#000000" points="0,-25.5 0,-57.5 129,-57.5 129,-25.5 0,-25.5"/>
<text text-anchor="start" x="8" y="-44.5" font-family="FreeSans" font-size="10.00" fill="#000000">G4VisStateDependent</text>
<text text-anchor="middle" x="64.5" y="-32.5" font-family="FreeSans" font-size="10.00" fill="#000000">::Notify</text>
</g>
<!-- Node2 -->
<g id="node2" class="node">
<title>Node2</title>
<g id="a_node2"><a xlink:href="../../de/dd6/classG4StateManager.html#ae5442bd36d6675c6f7f08d3505673909" target="_top" xlink:title="G4StateManager::GetPrevious\lState">
<polygon fill="none" stroke="#000000" points="165,-51.5 165,-83.5 334,-83.5 334,-51.5 165,-51.5"/>
<text text-anchor="start" x="173" y="-70.5" font-family="FreeSans" font-size="10.00" fill="#000000">G4StateManager::GetPrevious</text>
<text text-anchor="middle" x="249.5" y="-58.5" font-family="FreeSans" font-size="10.00" fill="#000000">State</text>
</a>
</g>
</g>
<!-- Node1&#45;&gt;Node2 -->
<g id="edge1" class="edge">
<title>Node1&#45;&gt;Node2</title>
<path fill="none" stroke="#191970" d="M129.204,-50.5935C137.517,-51.7618 146.1601,-52.9766 154.8286,-54.1948"/>
<polygon fill="#191970" stroke="#191970" points="154.6084,-57.6982 164.9982,-55.6241 155.5827,-50.7663 154.6084,-57.6982"/>
</g>
<!-- Node3 -->
<g id="node3" class="node">
<title>Node3</title>
<g id="a_node3"><a xlink:href="../../de/dd6/classG4StateManager.html#a9e2e3ebb3df0c07330d50cb22c7ad98c" target="_top" xlink:title="G4StateManager::GetState\lManager">
<polygon fill="none" stroke="#000000" points="173.5,-.5 173.5,-32.5 325.5,-32.5 325.5,-.5 173.5,-.5"/>
<text text-anchor="start" x="181.5" y="-19.5" font-family="FreeSans" font-size="10.00" fill="#000000">G4StateManager::GetState</text>
<text text-anchor="middle" x="249.5" y="-7.5" font-family="FreeSans" font-size="10.00" fill="#000000">Manager</text>
</a>
</g>
</g>
<!-- Node1&#45;&gt;Node3 -->
<g id="edge2" class="edge">
<title>Node1&#45;&gt;Node3</title>
<path fill="none" stroke="#191970" d="M129.204,-32.7562C140.2448,-31.2642 151.868,-29.6935 163.3597,-28.1406"/>
<polygon fill="#191970" stroke="#191970" points="163.9654,-31.5906 173.4066,-26.7829 163.028,-24.6537 163.9654,-31.5906"/>
</g>
<!-- Node4 -->
<g id="node4" class="node">
<title>Node4</title>
<g id="a_node4"><a xlink:href="../../de/dd6/classG4StateManager.html#a68a238e60d06ac64a264239fb3d8ae24" target="_top" xlink:title="G4StateManager::G4StateManager">
<polygon fill="none" stroke="#000000" points="370,-6.5 370,-26.5 564,-26.5 564,-6.5 370,-6.5"/>
<text text-anchor="middle" x="467" y="-13.5" font-family="FreeSans" font-size="10.00" fill="#000000">G4StateManager::G4StateManager</text>
</a>
</g>
</g>
<!-- Node3&#45;&gt;Node4 -->
<g id="edge3" class="edge">
<title>Node3&#45;&gt;Node4</title>
<path fill="none" stroke="#191970" d="M325.5709,-16.5C336.6564,-16.5 348.2412,-16.5 359.8026,-16.5"/>
<polygon fill="#191970" stroke="#191970" points="359.9436,-20.0001 369.9435,-16.5 359.9435,-13.0001 359.9436,-20.0001"/>
</g>
<!-- Node5 -->
<g id="node5" class="node">
<title>Node5</title>
<g id="a_node5"><a xlink:href="../../df/de9/G4ios_8hh.html#af64ccf1dd18073363753e820abe5b75d" target="_top" xlink:title="G4iosInitialization">
<polygon fill="none" stroke="#000000" points="600,-6.5 600,-26.5 706,-26.5 706,-6.5 600,-6.5"/>
<text text-anchor="middle" x="653" y="-13.5" font-family="FreeSans" font-size="10.00" fill="#000000">G4iosInitialization</text>
</a>
</g>
</g>
<!-- Node4&#45;&gt;Node5 -->
<g id="edge4" class="edge">
<title>Node4&#45;&gt;Node5</title>
<path fill="none" stroke="#191970" d="M564.0857,-16.5C572.7565,-16.5 581.3798,-16.5 589.6534,-16.5"/>
<polygon fill="#191970" stroke="#191970" points="589.9236,-20.0001 599.9235,-16.5 589.9235,-13.0001 589.9236,-20.0001"/>
</g>
</g>
</svg>
