<?xml version="1.0" encoding="UTF-8" standalone="no"?>
<!DOCTYPE svg PUBLIC "-//W3C//DTD SVG 1.1//EN"
 "http://www.w3.org/Graphics/SVG/1.1/DTD/svg11.dtd">
<!-- Generated by graphviz version 2.40.1 (20161225.0304)
 -->
<!-- Title: G4ComponentBarNucleonNucleusXsc::GetElasticCrossSection Pages: 1 -->
<svg width="644pt" height="143pt"
 viewBox="0.00 0.00 644.00 143.00" xmlns="http://www.w3.org/2000/svg" xmlns:xlink="http://www.w3.org/1999/xlink">
<g id="graph0" class="graph" transform="scale(1 1) rotate(0) translate(4 139)">
<title>G4ComponentBarNucleonNucleusXsc::GetElasticCrossSection</title>
<!-- Node1 -->
<g id="node1" class="node">
<title>Node1</title>
<polygon fill="#bfbfbf" stroke="#000000" points="0,-51.5 0,-83.5 188,-83.5 188,-51.5 0,-51.5"/>
<text text-anchor="start" x="8" y="-70.5" font-family="FreeSans" font-size="10.00" fill="#000000">G4ComponentBarNucleonNucleus</text>
<text text-anchor="middle" x="94" y="-58.5" font-family="FreeSans" font-size="10.00" fill="#000000">Xsc::GetElasticCrossSection</text>
</g>
<!-- Node2 -->
<g id="node2" class="node">
<title>Node2</title>
<g id="a_node2"><a xlink:href="../../da/d1d/classG4ComponentBarNucleonNucleusXsc.html#aebd079aa3f413f866d6696819f3fba6a" target="_top" xlink:title="G4ComponentBarNucleonNucleus\lXsc::ComputeCrossSections">
<polygon fill="none" stroke="#000000" points="224,-102.5 224,-134.5 412,-134.5 412,-102.5 224,-102.5"/>
<text text-anchor="start" x="232" y="-121.5" font-family="FreeSans" font-size="10.00" fill="#000000">G4ComponentBarNucleonNucleus</text>
<text text-anchor="middle" x="318" y="-109.5" font-family="FreeSans" font-size="10.00" fill="#000000">Xsc::ComputeCrossSections</text>
</a>
</g>
</g>
<!-- Node1&#45;&gt;Node2 -->
<g id="edge1" class="edge">
<title>Node1&#45;&gt;Node2</title>
<path fill="none" stroke="#191970" d="M164.5675,-83.5667C187.6828,-88.8296 213.5389,-94.7165 237.3412,-100.1357"/>
<polygon fill="#191970" stroke="#191970" points="236.875,-103.6191 247.4024,-102.4264 238.429,-96.7937 236.875,-103.6191"/>
</g>
<!-- Node4 -->
<g id="node4" class="node">
<title>Node4</title>
<g id="a_node4"><a xlink:href="../../d7/d5c/classG4DynamicParticle.html#a3595a77a2881a6dab2a3661440930496" target="_top" xlink:title="G4DynamicParticle::\lGetDefinition">
<polygon fill="none" stroke="#000000" points="259,-51.5 259,-83.5 377,-83.5 377,-51.5 259,-51.5"/>
<text text-anchor="start" x="267" y="-70.5" font-family="FreeSans" font-size="10.00" fill="#000000">G4DynamicParticle::</text>
<text text-anchor="middle" x="318" y="-58.5" font-family="FreeSans" font-size="10.00" fill="#000000">GetDefinition</text>
</a>
</g>
</g>
<!-- Node1&#45;&gt;Node4 -->
<g id="edge3" class="edge">
<title>Node1&#45;&gt;Node4</title>
<path fill="none" stroke="#191970" d="M188.0225,-67.5C208.3199,-67.5 229.4262,-67.5 248.5803,-67.5"/>
<polygon fill="#191970" stroke="#191970" points="248.7024,-71.0001 258.7024,-67.5 248.7024,-64.0001 248.7024,-71.0001"/>
</g>
<!-- Node5 -->
<g id="node5" class="node">
<title>Node5</title>
<g id="a_node5"><a xlink:href="../../d7/d5c/classG4DynamicParticle.html#aba63ef4aeef93871bec7279ada8391da" target="_top" xlink:title="G4DynamicParticle::\lGetKineticEnergy">
<polygon fill="none" stroke="#000000" points="259,-.5 259,-32.5 377,-32.5 377,-.5 259,-.5"/>
<text text-anchor="start" x="267" y="-19.5" font-family="FreeSans" font-size="10.00" fill="#000000">G4DynamicParticle::</text>
<text text-anchor="middle" x="318" y="-7.5" font-family="FreeSans" font-size="10.00" fill="#000000">GetKineticEnergy</text>
</a>
</g>
</g>
<!-- Node1&#45;&gt;Node5 -->
<g id="edge4" class="edge">
<title>Node1&#45;&gt;Node5</title>
<path fill="none" stroke="#191970" d="M164.5675,-51.4333C191.4037,-45.3233 221.9343,-38.3721 248.6562,-32.2881"/>
<polygon fill="#191970" stroke="#191970" points="249.722,-35.6351 258.6955,-30.0024 248.168,-28.8097 249.722,-35.6351"/>
</g>
<!-- Node3 -->
<g id="node3" class="node">
<title>Node3</title>
<g id="a_node3"><a xlink:href="../../da/d1d/classG4ComponentBarNucleonNucleusXsc.html#a775370d8a1a2ec5821e2616b09f1e2f8" target="_top" xlink:title="G4ComponentBarNucleonNucleus\lXsc::Interpolate">
<polygon fill="none" stroke="#000000" points="448,-102.5 448,-134.5 636,-134.5 636,-102.5 448,-102.5"/>
<text text-anchor="start" x="456" y="-121.5" font-family="FreeSans" font-size="10.00" fill="#000000">G4ComponentBarNucleonNucleus</text>
<text text-anchor="middle" x="542" y="-109.5" font-family="FreeSans" font-size="10.00" fill="#000000">Xsc::Interpolate</text>
</a>
</g>
</g>
<!-- Node2&#45;&gt;Node3 -->
<g id="edge2" class="edge">
<title>Node2&#45;&gt;Node3</title>
<path fill="none" stroke="#191970" d="M412.0225,-118.5C420.5418,-118.5 429.2036,-118.5 437.8037,-118.5"/>
<polygon fill="#191970" stroke="#191970" points="437.859,-122.0001 447.859,-118.5 437.859,-115.0001 437.859,-122.0001"/>
</g>
</g>
</svg>
