<?xml version="1.0" encoding="UTF-8" standalone="no"?>
<!DOCTYPE svg PUBLIC "-//W3C//DTD SVG 1.1//EN"
 "http://www.w3.org/Graphics/SVG/1.1/DTD/svg11.dtd">
<!-- Generated by graphviz version 2.40.1 (20161225.0304)
 -->
<!-- Title: geant4/tree/geant4&#45;10.6&#45;release/source/global/HEPNumerics/src/G4VGaussianQuadrature.cc Pages: 1 -->
<svg width="908pt" height="521pt"
 viewBox="0.00 0.00 907.69 521.00" xmlns="http://www.w3.org/2000/svg" xmlns:xlink="http://www.w3.org/1999/xlink">
<g id="graph0" class="graph" transform="scale(1 1) rotate(0) translate(4 517)">
<title>geant4/tree/geant4&#45;10.6&#45;release/source/global/HEPNumerics/src/G4VGaussianQuadrature.cc</title>
<!-- Node1 -->
<g id="node1" class="node">
<title>Node1</title>
<polygon fill="#bfbfbf" stroke="#000000" points="718.4948,-456.5 718.4948,-512.5 878.4948,-512.5 878.4948,-456.5 718.4948,-456.5"/>
<text text-anchor="start" x="726.4948" y="-499.5" font-family="FreeSans" font-size="10.00" fill="#000000">geant4/tree/geant4</text>
<text text-anchor="start" x="726.4948" y="-487.5" font-family="FreeSans" font-size="10.00" fill="#000000">&#45;10.6&#45;release/source</text>
<text text-anchor="start" x="726.4948" y="-475.5" font-family="FreeSans" font-size="10.00" fill="#000000">/global/HEPNumerics/src</text>
<text text-anchor="middle" x="798.4948" y="-463.5" font-family="FreeSans" font-size="10.00" fill="#000000">/G4VGaussianQuadrature.cc</text>
</g>
<!-- Node2 -->
<g id="node2" class="node">
<title>Node2</title>
<g id="a_node2"><a xlink:href="../../df/de9/G4ios_8hh.html" target="_top" xlink:title="G4ios.hh">
<polygon fill="none" stroke="#000000" points="666.9948,-171.5 666.9948,-191.5 727.9948,-191.5 727.9948,-171.5 666.9948,-171.5"/>
<text text-anchor="middle" x="697.4948" y="-178.5" font-family="FreeSans" font-size="10.00" fill="#000000">G4ios.hh</text>
</a>
</g>
</g>
<!-- Node1&#45;&gt;Node2 -->
<g id="edge1" class="edge">
<title>Node1&#45;&gt;Node2</title>
<path fill="none" stroke="#191970" d="M853.6301,-456.1691C866.7817,-446.5769 879.1296,-434.5301 886.4948,-420 904.2931,-384.8876 911.8401,-379.3676 855.4948,-285 828.7206,-240.1582 774.1059,-211.0516 736.6553,-195.4577"/>
<polygon fill="#191970" stroke="#191970" points="737.6424,-192.0823 727.0586,-191.5993 735.0311,-198.5771 737.6424,-192.0823"/>
</g>
<!-- Node8 -->
<g id="node8" class="node">
<title>Node8</title>
<g id="a_node8"><a xlink:href="../../da/d46/globals_8hh.html" target="_top" xlink:title="globals.hh">
<polygon fill="none" stroke="#000000" points="657.4948,-342.5 657.4948,-362.5 725.4948,-362.5 725.4948,-342.5 657.4948,-342.5"/>
<text text-anchor="middle" x="691.4948" y="-349.5" font-family="FreeSans" font-size="10.00" fill="#000000">globals.hh</text>
</a>
</g>
</g>
<!-- Node1&#45;&gt;Node8 -->
<g id="edge8" class="edge">
<title>Node1&#45;&gt;Node8</title>
<path fill="none" stroke="#191970" d="M748.19,-456.3089C734.2767,-446.4092 720.3177,-434.1646 710.4948,-420 700.7508,-405.9491 695.9796,-386.9978 693.6576,-372.7528"/>
<polygon fill="#191970" stroke="#191970" points="697.0824,-371.9611 692.2723,-362.5211 690.1457,-372.9003 697.0824,-371.9611"/>
</g>
<!-- Node27 -->
<g id="node27" class="node">
<title>Node27</title>
<g id="a_node27"><a xlink:href="../../d4/d8a/G4VGaussianQuadrature_8hh.html" target="_top" xlink:title="G4VGaussianQuadrature.hh">
<polygon fill="none" stroke="#000000" points="719.4948,-399.5 719.4948,-419.5 877.4948,-419.5 877.4948,-399.5 719.4948,-399.5"/>
<text text-anchor="middle" x="798.4948" y="-406.5" font-family="FreeSans" font-size="10.00" fill="#000000">G4VGaussianQuadrature.hh</text>
</a>
</g>
</g>
<!-- Node1&#45;&gt;Node27 -->
<g id="edge40" class="edge">
<title>Node1&#45;&gt;Node27</title>
<path fill="none" stroke="#191970" d="M798.4948,-456.1457C798.4948,-447.3619 798.4948,-437.8652 798.4948,-429.7476"/>
<polygon fill="#191970" stroke="#191970" points="801.9949,-429.7295 798.4948,-419.7296 794.9949,-429.7296 801.9949,-429.7295"/>
</g>
<!-- Node3 -->
<g id="node3" class="node">
<title>Node3</title>
<g id="a_node3"><a xlink:href="../../de/d29/G4Types_8hh.html" target="_top" xlink:title="G4Types.hh">
<polygon fill="none" stroke="#000000" points="655.9948,-114.5 655.9948,-134.5 730.9948,-134.5 730.9948,-114.5 655.9948,-114.5"/>
<text text-anchor="middle" x="693.4948" y="-121.5" font-family="FreeSans" font-size="10.00" fill="#000000">G4Types.hh</text>
</a>
</g>
</g>
<!-- Node2&#45;&gt;Node3 -->
<g id="edge2" class="edge">
<title>Node2&#45;&gt;Node3</title>
<path fill="none" stroke="#191970" d="M696.7797,-171.3095C696.2621,-163.9335 695.5454,-153.72 694.9134,-144.715"/>
<polygon fill="#191970" stroke="#191970" points="698.3953,-144.3327 694.2038,-134.6022 691.4125,-144.8227 698.3953,-144.3327"/>
</g>
<!-- Node7 -->
<g id="node7" class="node">
<title>Node7</title>
<polygon fill="none" stroke="#bfbfbf" points="410.4948,-114.5 410.4948,-134.5 470.4948,-134.5 470.4948,-114.5 410.4948,-114.5"/>
<text text-anchor="middle" x="440.4948" y="-121.5" font-family="FreeSans" font-size="10.00" fill="#000000">iostream</text>
</g>
<!-- Node2&#45;&gt;Node7 -->
<g id="edge7" class="edge">
<title>Node2&#45;&gt;Node7</title>
<path fill="none" stroke="#191970" d="M666.9604,-173.3116C663.7698,-172.5078 660.57,-171.7231 657.4948,-171 581.0438,-153.024 561.1429,-152.1166 484.4948,-135 483.2445,-134.7208 481.9749,-134.4345 480.6936,-134.1433"/>
<polygon fill="#191970" stroke="#191970" points="481.2963,-130.6903 470.7647,-131.8457 479.7182,-137.5101 481.2963,-130.6903"/>
</g>
<!-- Node4 -->
<g id="node4" class="node">
<title>Node4</title>
<polygon fill="none" stroke="#bfbfbf" points="612.9948,-.5 612.9948,-20.5 723.9948,-20.5 723.9948,-.5 612.9948,-.5"/>
<text text-anchor="middle" x="668.4948" y="-7.5" font-family="FreeSans" font-size="10.00" fill="#000000">G4GlobalConfig.hh</text>
</g>
<!-- Node3&#45;&gt;Node4 -->
<g id="edge3" class="edge">
<title>Node3&#45;&gt;Node4</title>
<path fill="none" stroke="#191970" d="M691.2763,-114.3833C687.1725,-95.6703 678.3252,-55.3266 672.9436,-30.7866"/>
<polygon fill="#191970" stroke="#191970" points="676.3053,-29.7761 670.7444,-20.7579 669.4678,-31.2756 676.3053,-29.7761"/>
</g>
<!-- Node5 -->
<g id="node5" class="node">
<title>Node5</title>
<polygon fill="none" stroke="#bfbfbf" points="721.9948,-57.5 721.9948,-77.5 780.9948,-77.5 780.9948,-57.5 721.9948,-57.5"/>
<text text-anchor="middle" x="751.4948" y="-64.5" font-family="FreeSans" font-size="10.00" fill="#000000">complex</text>
</g>
<!-- Node3&#45;&gt;Node5 -->
<g id="edge4" class="edge">
<title>Node3&#45;&gt;Node5</title>
<path fill="none" stroke="#191970" d="M703.8641,-114.3095C712.1943,-106.1229 724.0812,-94.441 733.8959,-84.7955"/>
<polygon fill="#191970" stroke="#191970" points="736.5363,-87.1079 741.2154,-77.6022 731.6298,-82.1153 736.5363,-87.1079"/>
</g>
<!-- Node6 -->
<g id="node6" class="node">
<title>Node6</title>
<g id="a_node6"><a xlink:href="../../d0/d00/tls_8hh.html" target="_top" xlink:title="tls.hh">
<polygon fill="none" stroke="#000000" points="621.4948,-57.5 621.4948,-77.5 665.4948,-77.5 665.4948,-57.5 621.4948,-57.5"/>
<text text-anchor="middle" x="643.4948" y="-64.5" font-family="FreeSans" font-size="10.00" fill="#000000">tls.hh</text>
</a>
</g>
</g>
<!-- Node3&#45;&gt;Node6 -->
<g id="edge5" class="edge">
<title>Node3&#45;&gt;Node6</title>
<path fill="none" stroke="#191970" d="M684.5558,-114.3095C677.5168,-106.2851 667.5319,-94.9022 659.171,-85.3708"/>
<polygon fill="#191970" stroke="#191970" points="661.582,-82.8118 652.3564,-77.6022 656.3197,-87.4279 661.582,-82.8118"/>
</g>
<!-- Node6&#45;&gt;Node4 -->
<g id="edge6" class="edge">
<title>Node6&#45;&gt;Node4</title>
<path fill="none" stroke="#191970" d="M647.9643,-57.3095C651.3061,-49.6903 655.9758,-39.0435 660.0174,-29.8285"/>
<polygon fill="#191970" stroke="#191970" points="663.2526,-31.166 664.064,-20.6022 656.8421,-28.3543 663.2526,-31.166"/>
</g>
<!-- Node8&#45;&gt;Node2 -->
<g id="edge9" class="edge">
<title>Node8&#45;&gt;Node2</title>
<path fill="none" stroke="#191970" d="M705.0325,-342.2548C725.9045,-325.4861 765.0426,-289.9206 779.4948,-249 782.603,-240.1994 784.1928,-236.0648 779.4948,-228 770.2673,-212.1594 753.4153,-201.2784 737.3779,-194.0496"/>
<polygon fill="#191970" stroke="#191970" points="738.6715,-190.7971 728.0932,-190.2055 735.9937,-197.2647 738.6715,-190.7971"/>
</g>
<!-- Node8&#45;&gt;Node3 -->
<g id="edge11" class="edge">
<title>Node8&#45;&gt;Node3</title>
<path fill="none" stroke="#191970" d="M725.6708,-347.6845C768.9763,-340.8019 839.88,-326.6577 855.4948,-306 905.2959,-240.1154 784.5031,-168.9872 724.6687,-139.0647"/>
<polygon fill="#191970" stroke="#191970" points="726.1433,-135.8896 715.6245,-134.6232 723.0577,-142.1729 726.1433,-135.8896"/>
</g>
<!-- Node9 -->
<g id="node9" class="node">
<title>Node9</title>
<polygon fill="none" stroke="#bfbfbf" points="781.9948,-285.5 781.9948,-305.5 846.9948,-305.5 846.9948,-285.5 781.9948,-285.5"/>
<text text-anchor="middle" x="814.4948" y="-292.5" font-family="FreeSans" font-size="10.00" fill="#000000">algorithm</text>
</g>
<!-- Node8&#45;&gt;Node9 -->
<g id="edge10" class="edge">
<title>Node8&#45;&gt;Node9</title>
<path fill="none" stroke="#191970" d="M713.2016,-342.4408C732.6664,-333.4205 761.4511,-320.0813 783.366,-309.9255"/>
<polygon fill="#191970" stroke="#191970" points="784.9898,-313.0307 792.5913,-305.6504 782.0466,-306.6795 784.9898,-313.0307"/>
</g>
<!-- Node10 -->
<g id="node10" class="node">
<title>Node10</title>
<g id="a_node10"><a xlink:href="../../d2/df2/source_2global_2management_2include_2G4String_8hh.html" target="_top" xlink:title="G4String.hh">
<polygon fill="none" stroke="#000000" points="251.4948,-171.5 251.4948,-191.5 327.4948,-191.5 327.4948,-171.5 251.4948,-171.5"/>
<text text-anchor="middle" x="289.4948" y="-178.5" font-family="FreeSans" font-size="10.00" fill="#000000">G4String.hh</text>
</a>
</g>
</g>
<!-- Node8&#45;&gt;Node10 -->
<g id="edge12" class="edge">
<title>Node8&#45;&gt;Node10</title>
<path fill="none" stroke="#191970" d="M657.0421,-349.9886C523.635,-339.9118 46.3551,-300.4646 4.4948,-249 -1.3945,-241.7594 -1.5502,-235.1112 4.4948,-228 19.6439,-210.1789 164.162,-193.6293 241.3813,-185.968"/>
<polygon fill="#191970" stroke="#191970" points="241.7465,-189.4491 251.3575,-184.9905 241.0639,-182.4824 241.7465,-189.4491"/>
</g>
<!-- Node15 -->
<g id="node15" class="node">
<title>Node15</title>
<g id="a_node15"><a xlink:href="../../d2/d54/templates_8hh.html" target="_top" xlink:title="templates.hh">
<polygon fill="none" stroke="#000000" points="641.9948,-285.5 641.9948,-305.5 724.9948,-305.5 724.9948,-285.5 641.9948,-285.5"/>
<text text-anchor="middle" x="683.4948" y="-292.5" font-family="FreeSans" font-size="10.00" fill="#000000">templates.hh</text>
</a>
</g>
</g>
<!-- Node8&#45;&gt;Node15 -->
<g id="edge19" class="edge">
<title>Node8&#45;&gt;Node15</title>
<path fill="none" stroke="#191970" d="M690.0646,-342.3095C689.0294,-334.9335 687.5959,-324.72 686.332,-315.715"/>
<polygon fill="#191970" stroke="#191970" points="689.7687,-315.0187 684.9127,-305.6022 682.8366,-315.9917 689.7687,-315.0187"/>
</g>
<!-- Node18 -->
<g id="node18" class="node">
<title>Node18</title>
<g id="a_node18"><a xlink:href="../../d5/d4f/G4Exception_8hh.html" target="_top" xlink:title="G4Exception.hh">
<polygon fill="none" stroke="#000000" points="506.4948,-228.5 506.4948,-248.5 602.4948,-248.5 602.4948,-228.5 506.4948,-228.5"/>
<text text-anchor="middle" x="554.4948" y="-235.5" font-family="FreeSans" font-size="10.00" fill="#000000">G4Exception.hh</text>
</a>
</g>
</g>
<!-- Node8&#45;&gt;Node18 -->
<g id="edge22" class="edge">
<title>Node8&#45;&gt;Node18</title>
<path fill="none" stroke="#191970" d="M678.2343,-342.3283C666.1851,-333.0201 647.9797,-318.791 632.4948,-306 612.108,-289.1599 589.2898,-269.2902 573.6272,-255.488"/>
<polygon fill="#191970" stroke="#191970" points="575.5337,-252.502 565.7229,-248.5022 570.8981,-257.7471 575.5337,-252.502"/>
</g>
<!-- Node21 -->
<g id="node21" class="node">
<title>Node21</title>
<g id="a_node21"><a xlink:href="../../dc/d3a/G4EnvironmentUtils_8hh.html" target="_top" xlink:title="G4EnvironmentUtils.hh">
<polygon fill="none" stroke="#000000" points="287.9948,-285.5 287.9948,-305.5 420.9948,-305.5 420.9948,-285.5 287.9948,-285.5"/>
<text text-anchor="middle" x="354.4948" y="-292.5" font-family="FreeSans" font-size="10.00" fill="#000000">G4EnvironmentUtils.hh</text>
</a>
</g>
</g>
<!-- Node8&#45;&gt;Node21 -->
<g id="edge28" class="edge">
<title>Node8&#45;&gt;Node21</title>
<path fill="none" stroke="#191970" d="M657.3269,-346.7209C602.8609,-337.5085 495.2567,-319.3084 424.0895,-307.2712"/>
<polygon fill="#191970" stroke="#191970" points="424.3081,-303.7585 413.8644,-305.5417 423.1406,-310.6605 424.3081,-303.7585"/>
</g>
<!-- Node10&#45;&gt;Node3 -->
<g id="edge16" class="edge">
<title>Node10&#45;&gt;Node3</title>
<path fill="none" stroke="#191970" d="M327.5553,-177.139C391.8075,-169.618 525.8106,-153.2483 638.4948,-135 640.9718,-134.5989 643.5085,-134.1719 646.0675,-133.7283"/>
<polygon fill="#191970" stroke="#191970" points="646.744,-137.163 655.9705,-131.9551 645.5102,-130.2725 646.744,-137.163"/>
</g>
<!-- Node10&#45;&gt;Node7 -->
<g id="edge17" class="edge">
<title>Node10&#45;&gt;Node7</title>
<path fill="none" stroke="#191970" d="M316.143,-171.4408C340.6499,-162.1898 377.1912,-148.3961 404.3273,-138.1527"/>
<polygon fill="#191970" stroke="#191970" points="405.74,-141.3605 413.8595,-134.5544 403.2678,-134.8116 405.74,-141.3605"/>
</g>
<!-- Node11 -->
<g id="node11" class="node">
<title>Node11</title>
<polygon fill="none" stroke="#bfbfbf" points="264.4948,-114.5 264.4948,-134.5 314.4948,-134.5 314.4948,-114.5 264.4948,-114.5"/>
<text text-anchor="middle" x="289.4948" y="-121.5" font-family="FreeSans" font-size="10.00" fill="#000000">stdio.h</text>
</g>
<!-- Node10&#45;&gt;Node11 -->
<g id="edge13" class="edge">
<title>Node10&#45;&gt;Node11</title>
<path fill="none" stroke="#191970" d="M289.4948,-171.3095C289.4948,-163.9335 289.4948,-153.72 289.4948,-144.715"/>
<polygon fill="#191970" stroke="#191970" points="292.9949,-144.6022 289.4948,-134.6022 285.9949,-144.6023 292.9949,-144.6022"/>
</g>
<!-- Node12 -->
<g id="node12" class="node">
<title>Node12</title>
<polygon fill="none" stroke="#bfbfbf" points="84.9948,-114.5 84.9948,-134.5 129.9948,-134.5 129.9948,-114.5 84.9948,-114.5"/>
<text text-anchor="middle" x="107.4948" y="-121.5" font-family="FreeSans" font-size="10.00" fill="#000000">string</text>
</g>
<!-- Node10&#45;&gt;Node12 -->
<g id="edge14" class="edge">
<title>Node10&#45;&gt;Node12</title>
<path fill="none" stroke="#191970" d="M257.3758,-171.4408C224.2676,-161.0717 172.9363,-144.9954 139.7707,-134.6084"/>
<polygon fill="#191970" stroke="#191970" points="140.6904,-131.2288 130.1014,-131.5801 138.5982,-137.9089 140.6904,-131.2288"/>
</g>
<!-- Node13 -->
<g id="node13" class="node">
<title>Node13</title>
<polygon fill="none" stroke="#bfbfbf" points="332.4948,-114.5 332.4948,-134.5 382.4948,-134.5 382.4948,-114.5 332.4948,-114.5"/>
<text text-anchor="middle" x="357.4948" y="-121.5" font-family="FreeSans" font-size="10.00" fill="#000000">cstring</text>
</g>
<!-- Node10&#45;&gt;Node13 -->
<g id="edge15" class="edge">
<title>Node10&#45;&gt;Node13</title>
<path fill="none" stroke="#191970" d="M301.6519,-171.3095C311.6117,-162.9608 325.9083,-150.9769 337.5423,-141.2249"/>
<polygon fill="#191970" stroke="#191970" points="340.0277,-143.7086 345.443,-134.6022 335.5309,-138.344 340.0277,-143.7086"/>
</g>
<!-- Node14 -->
<g id="node14" class="node">
<title>Node14</title>
<polygon fill="none" stroke="#bfbfbf" points="168.4948,-114.5 168.4948,-134.5 246.4948,-134.5 246.4948,-114.5 168.4948,-114.5"/>
<text text-anchor="middle" x="207.4948" y="-121.5" font-family="FreeSans" font-size="10.00" fill="#000000">G4String.icc</text>
</g>
<!-- Node10&#45;&gt;Node14 -->
<g id="edge18" class="edge">
<title>Node10&#45;&gt;Node14</title>
<path fill="none" stroke="#191970" d="M274.8349,-171.3095C262.4746,-162.7177 244.5758,-150.2758 230.3377,-140.3786"/>
<polygon fill="#191970" stroke="#191970" points="232.2367,-137.4361 222.0279,-134.6022 228.2413,-143.1839 232.2367,-137.4361"/>
</g>
<!-- Node16 -->
<g id="node16" class="node">
<title>Node16</title>
<polygon fill="none" stroke="#bfbfbf" points="726.4948,-228.5 726.4948,-248.5 770.4948,-248.5 770.4948,-228.5 726.4948,-228.5"/>
<text text-anchor="middle" x="748.4948" y="-235.5" font-family="FreeSans" font-size="10.00" fill="#000000">limits</text>
</g>
<!-- Node15&#45;&gt;Node16 -->
<g id="edge20" class="edge">
<title>Node15&#45;&gt;Node16</title>
<path fill="none" stroke="#191970" d="M695.1155,-285.3095C704.636,-276.9608 718.3018,-264.9769 729.4226,-255.2249"/>
<polygon fill="#191970" stroke="#191970" points="731.7638,-257.827 736.9747,-248.6022 727.1485,-252.564 731.7638,-257.827"/>
</g>
<!-- Node17 -->
<g id="node17" class="node">
<title>Node17</title>
<polygon fill="none" stroke="#bfbfbf" points="658.9948,-228.5 658.9948,-248.5 707.9948,-248.5 707.9948,-228.5 658.9948,-228.5"/>
<text text-anchor="middle" x="683.4948" y="-235.5" font-family="FreeSans" font-size="10.00" fill="#000000">climits</text>
</g>
<!-- Node15&#45;&gt;Node17 -->
<g id="edge21" class="edge">
<title>Node15&#45;&gt;Node17</title>
<path fill="none" stroke="#191970" d="M683.4948,-285.3095C683.4948,-277.9335 683.4948,-267.72 683.4948,-258.715"/>
<polygon fill="#191970" stroke="#191970" points="686.9949,-258.6022 683.4948,-248.6022 679.9949,-258.6023 686.9949,-258.6022"/>
</g>
<!-- Node18&#45;&gt;Node2 -->
<g id="edge23" class="edge">
<title>Node18&#45;&gt;Node2</title>
<path fill="none" stroke="#191970" d="M579.7312,-228.4408C602.7668,-219.2587 637.0301,-205.6013 662.6676,-195.3822"/>
<polygon fill="#191970" stroke="#191970" points="664.0365,-198.6044 672.0298,-191.6504 661.4445,-192.1019 664.0365,-198.6044"/>
</g>
<!-- Node18&#45;&gt;Node10 -->
<g id="edge24" class="edge">
<title>Node18&#45;&gt;Node10</title>
<path fill="none" stroke="#191970" d="M507.7282,-228.4408C459.87,-218.1467 385.8607,-202.2278 337.5423,-191.8347"/>
<polygon fill="#191970" stroke="#191970" points="338.1527,-188.3861 327.6403,-189.7049 336.6807,-195.2295 338.1527,-188.3861"/>
</g>
<!-- Node19 -->
<g id="node19" class="node">
<title>Node19</title>
<g id="a_node19"><a xlink:href="../../d9/d05/G4VExceptionHandler_8hh.html" target="_top" xlink:title="G4VExceptionHandler.hh">
<polygon fill="none" stroke="#000000" points="506.4948,-171.5 506.4948,-191.5 648.4948,-191.5 648.4948,-171.5 506.4948,-171.5"/>
<text text-anchor="middle" x="577.4948" y="-178.5" font-family="FreeSans" font-size="10.00" fill="#000000">G4VExceptionHandler.hh</text>
</a>
</g>
</g>
<!-- Node18&#45;&gt;Node19 -->
<g id="edge25" class="edge">
<title>Node18&#45;&gt;Node19</title>
<path fill="none" stroke="#191970" d="M558.6068,-228.3095C561.6485,-220.7714 565.886,-210.2696 569.5768,-201.123"/>
<polygon fill="#191970" stroke="#191970" points="572.9222,-202.1854 573.4185,-191.6022 566.4308,-199.566 572.9222,-202.1854"/>
</g>
<!-- Node19&#45;&gt;Node3 -->
<g id="edge26" class="edge">
<title>Node19&#45;&gt;Node3</title>
<path fill="none" stroke="#191970" d="M597.9663,-171.4408C616.2409,-162.461 643.2265,-149.2008 663.8591,-139.0624"/>
<polygon fill="#191970" stroke="#191970" points="665.4064,-142.2019 672.8378,-134.6504 662.3193,-135.9193 665.4064,-142.2019"/>
</g>
<!-- Node20 -->
<g id="node20" class="node">
<title>Node20</title>
<g id="a_node20"><a xlink:href="../../d6/d7e/G4ExceptionSeverity_8hh.html" target="_top" xlink:title="G4ExceptionSeverity.hh">
<polygon fill="none" stroke="#000000" points="493.4948,-114.5 493.4948,-134.5 629.4948,-134.5 629.4948,-114.5 493.4948,-114.5"/>
<text text-anchor="middle" x="561.4948" y="-121.5" font-family="FreeSans" font-size="10.00" fill="#000000">G4ExceptionSeverity.hh</text>
</a>
</g>
</g>
<!-- Node19&#45;&gt;Node20 -->
<g id="edge27" class="edge">
<title>Node19&#45;&gt;Node20</title>
<path fill="none" stroke="#191970" d="M574.6344,-171.3095C572.5411,-163.8524 569.6338,-153.4951 567.086,-144.4186"/>
<polygon fill="#191970" stroke="#191970" points="570.4029,-143.2842 564.3305,-134.6022 563.6634,-145.176 570.4029,-143.2842"/>
</g>
<!-- Node21&#45;&gt;Node2 -->
<g id="edge36" class="edge">
<title>Node21&#45;&gt;Node2</title>
<path fill="none" stroke="#191970" d="M421.2488,-287.14C485.7116,-278.403 578.3031,-263.9113 611.4948,-249 638.5741,-236.8348 664.6661,-214.3385 680.8693,-198.6759"/>
<polygon fill="#191970" stroke="#191970" points="683.3562,-201.1389 687.9902,-191.6112 678.4261,-196.1695 683.3562,-201.1389"/>
</g>
<!-- Node21&#45;&gt;Node7 -->
<g id="edge33" class="edge">
<title>Node21&#45;&gt;Node7</title>
<path fill="none" stroke="#191970" d="M377.812,-285.3667C392.7614,-277.6178 411.2278,-265.4578 421.4948,-249 441.5561,-216.8423 443.1607,-171.1496 442.1056,-144.997"/>
<polygon fill="#191970" stroke="#191970" points="445.5862,-144.5584 441.5137,-134.7775 438.5979,-144.9632 445.5862,-144.5584"/>
</g>
<!-- Node21&#45;&gt;Node10 -->
<g id="edge37" class="edge">
<title>Node21&#45;&gt;Node10</title>
<path fill="none" stroke="#191970" d="M287.7987,-288.8537C236.2722,-282.179 171.0392,-269.8322 154.4948,-249 127.4135,-214.8999 192.3778,-196.6279 241.2985,-188.004"/>
<polygon fill="#191970" stroke="#191970" points="242.1683,-191.4073 251.4552,-186.3079 241.0153,-184.5029 242.1683,-191.4073"/>
</g>
<!-- Node21&#45;&gt;Node12 -->
<g id="edge30" class="edge">
<title>Node21&#45;&gt;Node12</title>
<path fill="none" stroke="#191970" d="M287.9026,-288.147C234.4801,-280.9408 165.1248,-268.2156 144.4948,-249 115.2008,-221.7143 108.7428,-172.3952 107.536,-144.7268"/>
<polygon fill="#191970" stroke="#191970" points="111.0328,-144.5495 107.2902,-134.6377 104.0348,-144.72 111.0328,-144.5495"/>
</g>
<!-- Node21&#45;&gt;Node18 -->
<g id="edge38" class="edge">
<title>Node21&#45;&gt;Node18</title>
<path fill="none" stroke="#191970" d="M389.7904,-285.4408C423.1041,-275.9464 473.2073,-261.6669 509.4019,-251.3515"/>
<polygon fill="#191970" stroke="#191970" points="510.5585,-254.6613 519.2163,-248.5544 508.6399,-247.9294 510.5585,-254.6613"/>
</g>
<!-- Node21&#45;&gt;Node20 -->
<g id="edge39" class="edge">
<title>Node21&#45;&gt;Node20</title>
<path fill="none" stroke="#191970" d="M379.6667,-285.479C397.8637,-277.4241 422.3381,-264.8508 440.4948,-249 472.84,-220.7627 467.0924,-201.3191 497.4948,-171 509.1548,-159.372 523.9315,-148.436 536.3478,-140.0945"/>
<polygon fill="#191970" stroke="#191970" points="538.4395,-142.9087 544.8933,-134.5063 534.6084,-137.0501 538.4395,-142.9087"/>
</g>
<!-- Node22 -->
<g id="node22" class="node">
<title>Node22</title>
<polygon fill="none" stroke="#bfbfbf" points="362.4948,-228.5 362.4948,-248.5 412.4948,-248.5 412.4948,-228.5 362.4948,-228.5"/>
<text text-anchor="middle" x="387.4948" y="-235.5" font-family="FreeSans" font-size="10.00" fill="#000000">cstdlib</text>
</g>
<!-- Node21&#45;&gt;Node22 -->
<g id="edge29" class="edge">
<title>Node21&#45;&gt;Node22</title>
<path fill="none" stroke="#191970" d="M360.3946,-285.3095C364.8526,-277.6093 371.101,-266.8166 376.4747,-257.5349"/>
<polygon fill="#191970" stroke="#191970" points="379.6648,-259.0102 381.6462,-248.6022 373.6068,-255.5029 379.6648,-259.0102"/>
</g>
<!-- Node23 -->
<g id="node23" class="node">
<title>Node23</title>
<polygon fill="none" stroke="#bfbfbf" points="13.4948,-228.5 13.4948,-248.5 69.4948,-248.5 69.4948,-228.5 13.4948,-228.5"/>
<text text-anchor="middle" x="41.4948" y="-235.5" font-family="FreeSans" font-size="10.00" fill="#000000">sstream</text>
</g>
<!-- Node21&#45;&gt;Node23 -->
<g id="edge31" class="edge">
<title>Node21&#45;&gt;Node23</title>
<path fill="none" stroke="#191970" d="M287.9643,-285.5116C232.9423,-276.9093 152.8631,-263.6009 83.4948,-249 82.2537,-248.7388 80.9937,-248.4663 79.7227,-248.1853"/>
<polygon fill="#191970" stroke="#191970" points="80.4267,-244.7558 69.8945,-245.9066 78.8456,-251.5749 80.4267,-244.7558"/>
</g>
<!-- Node24 -->
<g id="node24" class="node">
<title>Node24</title>
<polygon fill="none" stroke="#bfbfbf" points="163.9948,-228.5 163.9948,-248.5 202.9948,-248.5 202.9948,-228.5 163.9948,-228.5"/>
<text text-anchor="middle" x="183.4948" y="-235.5" font-family="FreeSans" font-size="10.00" fill="#000000">map</text>
</g>
<!-- Node21&#45;&gt;Node24 -->
<g id="edge32" class="edge">
<title>Node21&#45;&gt;Node24</title>
<path fill="none" stroke="#191970" d="M322.2695,-285.4708C295.1841,-276.9419 255.2487,-264.1367 212.4905,-249.2614"/>
<polygon fill="#191970" stroke="#191970" points="213.6315,-245.9526 203.0367,-245.9544 211.3202,-252.56 213.6315,-245.9526"/>
</g>
<!-- Node25 -->
<g id="node25" class="node">
<title>Node25</title>
<polygon fill="none" stroke="#bfbfbf" points="220.9948,-228.5 220.9948,-248.5 277.9948,-248.5 277.9948,-228.5 220.9948,-228.5"/>
<text text-anchor="middle" x="249.4948" y="-235.5" font-family="FreeSans" font-size="10.00" fill="#000000">iomanip</text>
</g>
<!-- Node21&#45;&gt;Node25 -->
<g id="edge34" class="edge">
<title>Node21&#45;&gt;Node25</title>
<path fill="none" stroke="#191970" d="M335.7229,-285.3095C319.3732,-276.434 295.4552,-263.4499 276.9547,-253.4068"/>
<polygon fill="#191970" stroke="#191970" points="278.5626,-250.2972 268.1042,-248.6022 275.2229,-256.4492 278.5626,-250.2972"/>
</g>
<!-- Node26 -->
<g id="node26" class="node">
<title>Node26</title>
<polygon fill="none" stroke="#bfbfbf" points="296.4948,-228.5 296.4948,-248.5 344.4948,-248.5 344.4948,-228.5 296.4948,-228.5"/>
<text text-anchor="middle" x="320.4948" y="-235.5" font-family="FreeSans" font-size="10.00" fill="#000000">mutex</text>
</g>
<!-- Node21&#45;&gt;Node26 -->
<g id="edge35" class="edge">
<title>Node21&#45;&gt;Node26</title>
<path fill="none" stroke="#191970" d="M348.4163,-285.3095C343.7748,-277.5282 337.2497,-266.589 331.6744,-257.2423"/>
<polygon fill="#191970" stroke="#191970" points="334.6494,-255.3975 326.5207,-248.6022 328.6377,-258.9834 334.6494,-255.3975"/>
</g>
<!-- Node27&#45;&gt;Node8 -->
<g id="edge41" class="edge">
<title>Node27&#45;&gt;Node8</title>
<path fill="none" stroke="#191970" d="M779.3654,-399.3095C762.7042,-390.434 738.3307,-377.4499 719.4777,-367.4068"/>
<polygon fill="#191970" stroke="#191970" points="720.9301,-364.2148 710.4587,-362.6022 717.6389,-370.3929 720.9301,-364.2148"/>
</g>
</g>
</svg>
