<?xml version="1.0" encoding="UTF-8" standalone="no"?>
<!DOCTYPE svg PUBLIC "-//W3C//DTD SVG 1.1//EN"
 "http://www.w3.org/Graphics/SVG/1.1/DTD/svg11.dtd">
<!-- Generated by graphviz version 2.40.1 (20161225.0304)
 -->
<!-- Title: G4ParticleHPContAngularPar::Init Pages: 1 -->
<svg width="713pt" height="68pt"
 viewBox="0.00 0.00 713.00 68.00" xmlns="http://www.w3.org/2000/svg" xmlns:xlink="http://www.w3.org/1999/xlink">
<g id="graph0" class="graph" transform="scale(1 1) rotate(0) translate(4 64)">
<title>G4ParticleHPContAngularPar::Init</title>
<!-- Node1 -->
<g id="node1" class="node">
<title>Node1</title>
<polygon fill="#bfbfbf" stroke="#000000" points="0,-13.5 0,-45.5 161,-45.5 161,-13.5 0,-13.5"/>
<text text-anchor="start" x="8" y="-32.5" font-family="FreeSans" font-size="10.00" fill="#000000">G4ParticleHPContAngularPar</text>
<text text-anchor="middle" x="80.5" y="-20.5" font-family="FreeSans" font-size="10.00" fill="#000000">::Init</text>
</g>
<!-- Node2 -->
<g id="node2" class="node">
<title>Node2</title>
<g id="a_node2"><a xlink:href="../../db/d7c/classG4ParticleHPList.html#aaae76b9aa03405d29339ce6539cfc802" target="_top" xlink:title="G4ParticleHPList::Init">
<polygon fill="none" stroke="#000000" points="210.5,-39.5 210.5,-59.5 332.5,-59.5 332.5,-39.5 210.5,-39.5"/>
<text text-anchor="middle" x="271.5" y="-46.5" font-family="FreeSans" font-size="10.00" fill="#000000">G4ParticleHPList::Init</text>
</a>
</g>
</g>
<!-- Node1&#45;&gt;Node2 -->
<g id="edge1" class="edge">
<title>Node1&#45;&gt;Node2</title>
<path fill="none" stroke="#191970" d="M161.2244,-37.9528C174.2389,-39.3156 187.6287,-40.7177 200.395,-42.0545"/>
<polygon fill="#191970" stroke="#191970" points="200.1705,-45.55 210.4807,-43.1105 200.8996,-38.5881 200.1705,-45.55"/>
</g>
<!-- Node5 -->
<g id="node5" class="node">
<title>Node5</title>
<g id="a_node5"><a xlink:href="../../db/d7c/classG4ParticleHPList.html#a1693db29de31ac10be5b203cb6a178a1" target="_top" xlink:title="G4ParticleHPList::SetLabel">
<polygon fill="none" stroke="#000000" points="197,-.5 197,-20.5 346,-20.5 346,-.5 197,-.5"/>
<text text-anchor="middle" x="271.5" y="-7.5" font-family="FreeSans" font-size="10.00" fill="#000000">G4ParticleHPList::SetLabel</text>
</a>
</g>
</g>
<!-- Node1&#45;&gt;Node5 -->
<g id="edge4" class="edge">
<title>Node1&#45;&gt;Node5</title>
<path fill="none" stroke="#191970" d="M161.2244,-21.4698C169.6207,-20.6346 178.1733,-19.7838 186.6139,-18.9442"/>
<polygon fill="#191970" stroke="#191970" points="187.2315,-22.4001 196.8359,-17.9273 186.5386,-15.4345 187.2315,-22.4001"/>
</g>
<!-- Node3 -->
<g id="node3" class="node">
<title>Node3</title>
<g id="a_node3"><a xlink:href="../../db/d7c/classG4ParticleHPList.html#a324d5dcf0da00c4d7afed2a2b12d9171" target="_top" xlink:title="G4ParticleHPList::SetValue">
<polygon fill="none" stroke="#000000" points="382,-39.5 382,-59.5 532,-59.5 532,-39.5 382,-39.5"/>
<text text-anchor="middle" x="457" y="-46.5" font-family="FreeSans" font-size="10.00" fill="#000000">G4ParticleHPList::SetValue</text>
</a>
</g>
</g>
<!-- Node2&#45;&gt;Node3 -->
<g id="edge2" class="edge">
<title>Node2&#45;&gt;Node3</title>
<path fill="none" stroke="#191970" d="M332.7537,-49.5C345.2839,-49.5 358.6844,-49.5 371.8776,-49.5"/>
<polygon fill="#191970" stroke="#191970" points="371.9083,-53.0001 381.9083,-49.5 371.9083,-46.0001 371.9083,-53.0001"/>
</g>
<!-- Node4 -->
<g id="node4" class="node">
<title>Node4</title>
<g id="a_node4"><a xlink:href="../../db/d7c/classG4ParticleHPList.html#a7daab4b665407e283b3fe0d9b51102df" target="_top" xlink:title="G4ParticleHPList::Check">
<polygon fill="none" stroke="#000000" points="568,-39.5 568,-59.5 705,-59.5 705,-39.5 568,-39.5"/>
<text text-anchor="middle" x="636.5" y="-46.5" font-family="FreeSans" font-size="10.00" fill="#000000">G4ParticleHPList::Check</text>
</a>
</g>
</g>
<!-- Node3&#45;&gt;Node4 -->
<g id="edge3" class="edge">
<title>Node3&#45;&gt;Node4</title>
<path fill="none" stroke="#191970" d="M532.0841,-49.5C540.4849,-49.5 549.062,-49.5 557.51,-49.5"/>
<polygon fill="#191970" stroke="#191970" points="557.7302,-53.0001 567.7302,-49.5 557.7302,-46.0001 557.7302,-53.0001"/>
</g>
</g>
</svg>
