<?xml version="1.0" encoding="UTF-8" standalone="no"?>
<!DOCTYPE svg PUBLIC "-//W3C//DTD SVG 1.1//EN"
 "http://www.w3.org/Graphics/SVG/1.1/DTD/svg11.dtd">
<!-- Generated by graphviz version 2.40.1 (20161225.0304)
 -->
<!-- Title: G4DisplacedSolid::ComputeDimensions Pages: 1 -->
<svg width="321pt" height="68pt"
 viewBox="0.00 0.00 321.00 68.00" xmlns="http://www.w3.org/2000/svg" xmlns:xlink="http://www.w3.org/1999/xlink">
<g id="graph0" class="graph" transform="scale(1 1) rotate(0) translate(4 64)">
<title>G4DisplacedSolid::ComputeDimensions</title>
<!-- Node1 -->
<g id="node1" class="node">
<title>Node1</title>
<polygon fill="#bfbfbf" stroke="#000000" points="0,-13.5 0,-45.5 158,-45.5 158,-13.5 0,-13.5"/>
<text text-anchor="start" x="8" y="-32.5" font-family="FreeSans" font-size="10.00" fill="#000000">G4DisplacedSolid::Compute</text>
<text text-anchor="middle" x="79" y="-20.5" font-family="FreeSans" font-size="10.00" fill="#000000">Dimensions</text>
</g>
<!-- Node2 -->
<g id="node2" class="node">
<title>Node2</title>
<g id="a_node2"><a xlink:href="../../da/d34/classG4VSolid.html#ad94dde22758645569fca819a56a91454" target="_top" xlink:title="G4VSolid::DumpInfo">
<polygon fill="none" stroke="#000000" points="194,-39.5 194,-59.5 313,-59.5 313,-39.5 194,-39.5"/>
<text text-anchor="middle" x="253.5" y="-46.5" font-family="FreeSans" font-size="10.00" fill="#000000">G4VSolid::DumpInfo</text>
</a>
</g>
</g>
<!-- Node1&#45;&gt;Node2 -->
<g id="edge1" class="edge">
<title>Node1&#45;&gt;Node2</title>
<path fill="none" stroke="#191970" d="M158.081,-38.5637C166.6076,-39.541 175.2392,-40.5303 183.6462,-41.4938"/>
<polygon fill="#191970" stroke="#191970" points="183.4339,-44.9923 193.7674,-42.6539 184.231,-38.0379 183.4339,-44.9923"/>
</g>
<!-- Node3 -->
<g id="node3" class="node">
<title>Node3</title>
<g id="a_node3"><a xlink:href="../../d5/d4f/G4Exception_8hh.html#ad36b5da5d062a20ca47b1c1f1ae353dd" target="_top" xlink:title="G4Exception">
<polygon fill="none" stroke="#000000" points="213.5,-.5 213.5,-20.5 293.5,-20.5 293.5,-.5 213.5,-.5"/>
<text text-anchor="middle" x="253.5" y="-7.5" font-family="FreeSans" font-size="10.00" fill="#000000">G4Exception</text>
</a>
</g>
</g>
<!-- Node1&#45;&gt;Node3 -->
<g id="edge2" class="edge">
<title>Node1&#45;&gt;Node3</title>
<path fill="none" stroke="#191970" d="M158.081,-20.8895C173.4646,-19.2145 189.1899,-17.5023 203.3213,-15.9636"/>
<polygon fill="#191970" stroke="#191970" points="203.7395,-19.4388 213.3019,-14.8769 202.9818,-12.48 203.7395,-19.4388"/>
</g>
</g>
</svg>
