<?xml version="1.0" encoding="UTF-8" standalone="no"?>
<!DOCTYPE svg PUBLIC "-//W3C//DTD SVG 1.1//EN"
 "http://www.w3.org/Graphics/SVG/1.1/DTD/svg11.dtd">
<!-- Generated by graphviz version 2.40.1 (20161225.0304)
 -->
<!-- Title: G4UImessenger::CreateDirectory Pages: 1 -->
<svg width="412pt" height="131pt"
 viewBox="0.00 0.00 412.00 131.00" xmlns="http://www.w3.org/2000/svg" xmlns:xlink="http://www.w3.org/1999/xlink">
<g id="graph0" class="graph" transform="scale(1 1) rotate(0) translate(4 127)">
<title>G4UImessenger::CreateDirectory</title>
<!-- Node1 -->
<g id="node1" class="node">
<title>Node1</title>
<polygon fill="#bfbfbf" stroke="#000000" points="0,-45.5 0,-65.5 183,-65.5 183,-45.5 0,-45.5"/>
<text text-anchor="middle" x="91.5" y="-52.5" font-family="FreeSans" font-size="10.00" fill="#000000">G4UImessenger::CreateDirectory</text>
</g>
<!-- Node2 -->
<g id="node2" class="node">
<title>Node2</title>
<g id="a_node2"><a xlink:href="../../dd/dad/classG4MoleculeShootMessenger.html#a8238027a3cdf37cc8891173db5cf3e14" target="_top" xlink:title="G4MoleculeShootMessenger\l::G4MoleculeShootMessenger">
<polygon fill="none" stroke="#000000" points="228,-90.5 228,-122.5 395,-122.5 395,-90.5 228,-90.5"/>
<text text-anchor="start" x="236" y="-109.5" font-family="FreeSans" font-size="10.00" fill="#000000">G4MoleculeShootMessenger</text>
<text text-anchor="middle" x="311.5" y="-97.5" font-family="FreeSans" font-size="10.00" fill="#000000">::G4MoleculeShootMessenger</text>
</a>
</g>
</g>
<!-- Node1&#45;&gt;Node2 -->
<g id="edge1" class="edge">
<title>Node1&#45;&gt;Node2</title>
<path fill="none" stroke="#191970" d="M144.754,-67.8452C174.1053,-74.6494 210.8795,-83.1743 242.4194,-90.4859"/>
<polygon fill="#191970" stroke="#191970" points="145.2345,-64.3639 134.7024,-65.5151 143.6537,-71.1831 145.2345,-64.3639"/>
</g>
<!-- Node3 -->
<g id="node3" class="node">
<title>Node3</title>
<g id="a_node3"><a xlink:href="../../d8/d49/classG4OpticalPhysicsMessenger.html#ac77ac86613296d34536a8479013dd3de" target="_top" xlink:title="G4OpticalPhysicsMessenger\l::G4OpticalPhysicsMessenger">
<polygon fill="none" stroke="#000000" points="228.5,-39.5 228.5,-71.5 394.5,-71.5 394.5,-39.5 228.5,-39.5"/>
<text text-anchor="start" x="236.5" y="-58.5" font-family="FreeSans" font-size="10.00" fill="#000000">G4OpticalPhysicsMessenger</text>
<text text-anchor="middle" x="311.5" y="-46.5" font-family="FreeSans" font-size="10.00" fill="#000000">::G4OpticalPhysicsMessenger</text>
</a>
</g>
</g>
<!-- Node1&#45;&gt;Node3 -->
<g id="edge2" class="edge">
<title>Node1&#45;&gt;Node3</title>
<path fill="none" stroke="#191970" d="M193.4423,-55.5C205.1407,-55.5 216.9612,-55.5 228.3709,-55.5"/>
<polygon fill="#191970" stroke="#191970" points="193.2068,-52.0001 183.2067,-55.5 193.2067,-59.0001 193.2068,-52.0001"/>
</g>
<!-- Node4 -->
<g id="node4" class="node">
<title>Node4</title>
<g id="a_node4"><a xlink:href="../../d7/d0e/classG4UImessenger.html#a8aa0b4c31dad30bb6c9729d9609bf52b" target="_top" xlink:title="G4UImessenger::G4UImessenger">
<polygon fill="none" stroke="#000000" points="219,-.5 219,-20.5 404,-20.5 404,-.5 219,-.5"/>
<text text-anchor="middle" x="311.5" y="-7.5" font-family="FreeSans" font-size="10.00" fill="#000000">G4UImessenger::G4UImessenger</text>
</a>
</g>
</g>
<!-- Node1&#45;&gt;Node4 -->
<g id="edge3" class="edge">
<title>Node1&#45;&gt;Node4</title>
<path fill="none" stroke="#191970" d="M150.6895,-43.3931C185.6972,-36.2324 229.5042,-27.2719 262.5516,-20.5122"/>
<polygon fill="#191970" stroke="#191970" points="149.6942,-40.0241 140.5985,-45.4571 151.097,-46.8821 149.6942,-40.0241"/>
</g>
</g>
</svg>
