<?xml version="1.0" encoding="UTF-8" standalone="no"?>
<!DOCTYPE svg PUBLIC "-//W3C//DTD SVG 1.1//EN"
 "http://www.w3.org/Graphics/SVG/1.1/DTD/svg11.dtd">
<!-- Generated by graphviz version 2.40.1 (20161225.0304)
 -->
<!-- Title: G4HadProjectile::G4HadProjectile Pages: 1 -->
<svg width="773pt" height="527pt"
 viewBox="0.00 0.00 773.00 527.00" xmlns="http://www.w3.org/2000/svg" xmlns:xlink="http://www.w3.org/1999/xlink">
<g id="graph0" class="graph" transform="scale(1 1) rotate(0) translate(4 523)">
<title>G4HadProjectile::G4HadProjectile</title>
<!-- Node1 -->
<g id="node1" class="node">
<title>Node1</title>
<polygon fill="#bfbfbf" stroke="#000000" points="0,-237.5 0,-257.5 185,-257.5 185,-237.5 0,-237.5"/>
<text text-anchor="middle" x="92.5" y="-244.5" font-family="FreeSans" font-size="10.00" fill="#000000">G4HadProjectile::G4HadProjectile</text>
</g>
<!-- Node2 -->
<g id="node2" class="node">
<title>Node2</title>
<g id="a_node2"><a xlink:href="../../da/d11/classG4HadProjectile.html#af7c814b4c9a084c3dcdff84115199624" target="_top" xlink:title="G4HadProjectile::Initialise\lLocal">
<polygon fill="none" stroke="#000000" points="221,-231.5 221,-263.5 367,-263.5 367,-231.5 221,-231.5"/>
<text text-anchor="start" x="229" y="-250.5" font-family="FreeSans" font-size="10.00" fill="#000000">G4HadProjectile::Initialise</text>
<text text-anchor="middle" x="294" y="-238.5" font-family="FreeSans" font-size="10.00" fill="#000000">Local</text>
</a>
</g>
</g>
<!-- Node1&#45;&gt;Node2 -->
<g id="edge1" class="edge">
<title>Node1&#45;&gt;Node2</title>
<path fill="none" stroke="#191970" d="M185.2879,-247.5C193.7326,-247.5 202.2524,-247.5 210.6079,-247.5"/>
<polygon fill="#191970" stroke="#191970" points="210.7023,-251.0001 220.7023,-247.5 210.7022,-244.0001 210.7023,-251.0001"/>
</g>
<!-- Node3 -->
<g id="node3" class="node">
<title>Node3</title>
<g id="a_node3"><a xlink:href="../../d7/d5c/classG4DynamicParticle.html#a3595a77a2881a6dab2a3661440930496" target="_top" xlink:title="G4DynamicParticle::\lGetDefinition">
<polygon fill="none" stroke="#000000" points="428,-486.5 428,-518.5 546,-518.5 546,-486.5 428,-486.5"/>
<text text-anchor="start" x="436" y="-505.5" font-family="FreeSans" font-size="10.00" fill="#000000">G4DynamicParticle::</text>
<text text-anchor="middle" x="487" y="-493.5" font-family="FreeSans" font-size="10.00" fill="#000000">GetDefinition</text>
</a>
</g>
</g>
<!-- Node2&#45;&gt;Node3 -->
<g id="edge2" class="edge">
<title>Node2&#45;&gt;Node3</title>
<path fill="none" stroke="#191970" d="M296.9414,-263.6137C305.4259,-305.4261 333.8949,-418.2519 403,-477.5 407.588,-481.4336 412.7744,-484.7484 418.263,-487.5417"/>
<polygon fill="#191970" stroke="#191970" points="417.1747,-490.8886 427.733,-491.7675 420.0272,-484.4962 417.1747,-490.8886"/>
</g>
<!-- Node4 -->
<g id="node4" class="node">
<title>Node4</title>
<g id="a_node4"><a xlink:href="../../d7/d5c/classG4DynamicParticle.html#aaba41bb642473c73ec49f73a234a47cb" target="_top" xlink:title="G4DynamicParticle::\lGetMomentumDirection">
<polygon fill="none" stroke="#000000" points="418.5,-435.5 418.5,-467.5 555.5,-467.5 555.5,-435.5 418.5,-435.5"/>
<text text-anchor="start" x="426.5" y="-454.5" font-family="FreeSans" font-size="10.00" fill="#000000">G4DynamicParticle::</text>
<text text-anchor="middle" x="487" y="-442.5" font-family="FreeSans" font-size="10.00" fill="#000000">GetMomentumDirection</text>
</a>
</g>
</g>
<!-- Node2&#45;&gt;Node4 -->
<g id="edge3" class="edge">
<title>Node2&#45;&gt;Node4</title>
<path fill="none" stroke="#191970" d="M299.275,-263.5974C311.5955,-298.6561 345.6474,-382.3045 403,-426.5 405.0564,-428.0847 407.2119,-429.5691 409.444,-430.9597"/>
<polygon fill="#191970" stroke="#191970" points="407.9366,-434.125 418.3865,-435.8715 411.3066,-427.9895 407.9366,-434.125"/>
</g>
<!-- Node5 -->
<g id="node5" class="node">
<title>Node5</title>
<g id="a_node5"><a xlink:href="../../d5/d38/classG4ParticleDefinition.html#ad823b2f7c489766de74c562e2a3909bf" target="_top" xlink:title="G4ParticleDefinition\l::GetPDGMass">
<polygon fill="none" stroke="#000000" points="429,-384.5 429,-416.5 545,-416.5 545,-384.5 429,-384.5"/>
<text text-anchor="start" x="437" y="-403.5" font-family="FreeSans" font-size="10.00" fill="#000000">G4ParticleDefinition</text>
<text text-anchor="middle" x="487" y="-391.5" font-family="FreeSans" font-size="10.00" fill="#000000">::GetPDGMass</text>
</a>
</g>
</g>
<!-- Node2&#45;&gt;Node5 -->
<g id="edge4" class="edge">
<title>Node2&#45;&gt;Node5</title>
<path fill="none" stroke="#191970" d="M303.5195,-263.8914C320.1854,-291.1425 357.2652,-345.71 403,-375.5 407.9822,-378.7452 413.4007,-381.5823 419.0062,-384.0601"/>
<polygon fill="#191970" stroke="#191970" points="417.9883,-387.4228 428.5724,-387.8996 420.5957,-380.9266 417.9883,-387.4228"/>
</g>
<!-- Node6 -->
<g id="node6" class="node">
<title>Node6</title>
<g id="a_node6"><a xlink:href="../../d7/d5c/classG4DynamicParticle.html#aba63ef4aeef93871bec7279ada8391da" target="_top" xlink:title="G4DynamicParticle::\lGetKineticEnergy">
<polygon fill="none" stroke="#000000" points="428,-333.5 428,-365.5 546,-365.5 546,-333.5 428,-333.5"/>
<text text-anchor="start" x="436" y="-352.5" font-family="FreeSans" font-size="10.00" fill="#000000">G4DynamicParticle::</text>
<text text-anchor="middle" x="487" y="-340.5" font-family="FreeSans" font-size="10.00" fill="#000000">GetKineticEnergy</text>
</a>
</g>
</g>
<!-- Node2&#45;&gt;Node6 -->
<g id="edge5" class="edge">
<title>Node2&#45;&gt;Node6</title>
<path fill="none" stroke="#191970" d="M312.8713,-263.754C333.7002,-280.9672 368.821,-307.899 403,-324.5 407.8758,-326.8682 413.0213,-329.0614 418.267,-331.0825"/>
<polygon fill="#191970" stroke="#191970" points="417.1867,-334.4138 427.7808,-334.5352 419.5747,-327.8337 417.1867,-334.4138"/>
</g>
<!-- Node7 -->
<g id="node7" class="node">
<title>Node7</title>
<g id="a_node7"><a xlink:href="../../d7/d5c/classG4DynamicParticle.html#a6a2f12f20a7938ac1677677696d71a57" target="_top" xlink:title="G4DynamicParticle::\lGet4Momentum">
<polygon fill="none" stroke="#000000" points="428,-282.5 428,-314.5 546,-314.5 546,-282.5 428,-282.5"/>
<text text-anchor="start" x="436" y="-301.5" font-family="FreeSans" font-size="10.00" fill="#000000">G4DynamicParticle::</text>
<text text-anchor="middle" x="487" y="-289.5" font-family="FreeSans" font-size="10.00" fill="#000000">Get4Momentum</text>
</a>
</g>
</g>
<!-- Node2&#45;&gt;Node7 -->
<g id="edge6" class="edge">
<title>Node2&#45;&gt;Node7</title>
<path fill="none" stroke="#191970" d="M354.8015,-263.5667C374.9279,-268.8851 397.4661,-274.8408 418.1525,-280.3071"/>
<polygon fill="#191970" stroke="#191970" points="417.2623,-283.692 427.8247,-282.863 419.0507,-276.9243 417.2623,-283.692"/>
</g>
<!-- Node8 -->
<g id="node8" class="node">
<title>Node8</title>
<g id="a_node8"><a xlink:href="../../da/db4/classCLHEP_1_1HepLorentzRotation.html#a8cef0ab48a1d54c19f6445329fe966e1" target="_top" xlink:title="CLHEP::HepLorentzRotation\l::rotateZ">
<polygon fill="none" stroke="#000000" points="409.5,-180.5 409.5,-212.5 564.5,-212.5 564.5,-180.5 409.5,-180.5"/>
<text text-anchor="start" x="417.5" y="-199.5" font-family="FreeSans" font-size="10.00" fill="#000000">CLHEP::HepLorentzRotation</text>
<text text-anchor="middle" x="487" y="-187.5" font-family="FreeSans" font-size="10.00" fill="#000000">::rotateZ</text>
</a>
</g>
</g>
<!-- Node2&#45;&gt;Node8 -->
<g id="edge7" class="edge">
<title>Node2&#45;&gt;Node8</title>
<path fill="none" stroke="#191970" d="M354.8015,-231.4333C374.3621,-226.2644 396.2007,-220.4936 416.4035,-215.155"/>
<polygon fill="#191970" stroke="#191970" points="417.3987,-218.5123 426.1726,-212.5736 415.6103,-211.7446 417.3987,-218.5123"/>
</g>
<!-- Node15 -->
<g id="node15" class="node">
<title>Node15</title>
<g id="a_node15"><a xlink:href="../../dc/df4/classCLHEP_1_1HepLorentzVector.html#ae5a4ec2a5d079ccca896e7d71a52fffc" target="_top" xlink:title="CLHEP::HepLorentzVector::phi">
<polygon fill="none" stroke="#000000" points="403.5,-141.5 403.5,-161.5 570.5,-161.5 570.5,-141.5 403.5,-141.5"/>
<text text-anchor="middle" x="487" y="-148.5" font-family="FreeSans" font-size="10.00" fill="#000000">CLHEP::HepLorentzVector::phi</text>
</a>
</g>
</g>
<!-- Node2&#45;&gt;Node15 -->
<g id="edge14" class="edge">
<title>Node2&#45;&gt;Node15</title>
<path fill="none" stroke="#191970" d="M312.3598,-231.4186C333.0241,-214.1389 368.2641,-187.0667 403,-171.5 409.0663,-168.7814 415.5513,-166.4046 422.1281,-164.3327"/>
<polygon fill="#191970" stroke="#191970" points="423.1733,-167.6737 431.7913,-161.5109 421.2111,-160.9543 423.1733,-167.6737"/>
</g>
<!-- Node16 -->
<g id="node16" class="node">
<title>Node16</title>
<g id="a_node16"><a xlink:href="../../da/db4/classCLHEP_1_1HepLorentzRotation.html#a6bb2951435c7735bd817752d54dfe179" target="_top" xlink:title="CLHEP::HepLorentzRotation\l::rotateY">
<polygon fill="none" stroke="#000000" points="409.5,-231.5 409.5,-263.5 564.5,-263.5 564.5,-231.5 409.5,-231.5"/>
<text text-anchor="start" x="417.5" y="-250.5" font-family="FreeSans" font-size="10.00" fill="#000000">CLHEP::HepLorentzRotation</text>
<text text-anchor="middle" x="487" y="-238.5" font-family="FreeSans" font-size="10.00" fill="#000000">::rotateY</text>
</a>
</g>
</g>
<!-- Node2&#45;&gt;Node16 -->
<g id="edge15" class="edge">
<title>Node2&#45;&gt;Node16</title>
<path fill="none" stroke="#191970" d="M367.2402,-247.5C377.6648,-247.5 388.4745,-247.5 399.1423,-247.5"/>
<polygon fill="#191970" stroke="#191970" points="399.3094,-251.0001 409.3094,-247.5 399.3093,-244.0001 399.3094,-251.0001"/>
</g>
<!-- Node18 -->
<g id="node18" class="node">
<title>Node18</title>
<g id="a_node18"><a xlink:href="../../dc/df4/classCLHEP_1_1HepLorentzVector.html#afac07379c4bf6003befadb2158eb2206" target="_top" xlink:title="CLHEP::HepLorentzVector\l::theta">
<polygon fill="none" stroke="#000000" points="414,-90.5 414,-122.5 560,-122.5 560,-90.5 414,-90.5"/>
<text text-anchor="start" x="422" y="-109.5" font-family="FreeSans" font-size="10.00" fill="#000000">CLHEP::HepLorentzVector</text>
<text text-anchor="middle" x="487" y="-97.5" font-family="FreeSans" font-size="10.00" fill="#000000">::theta</text>
</a>
</g>
</g>
<!-- Node2&#45;&gt;Node18 -->
<g id="edge22" class="edge">
<title>Node2&#45;&gt;Node18</title>
<path fill="none" stroke="#191970" d="M305.1056,-231.2629C322.9181,-206.4223 360.2468,-159.0768 403,-132.5 406.3324,-130.4285 409.8425,-128.5108 413.4609,-126.737"/>
<polygon fill="#191970" stroke="#191970" points="414.9483,-129.9058 422.6389,-122.6184 412.0824,-123.5193 414.9483,-129.9058"/>
</g>
<!-- Node19 -->
<g id="node19" class="node">
<title>Node19</title>
<g id="a_node19"><a xlink:href="../../da/db4/classCLHEP_1_1HepLorentzRotation.html#a8d5791aba953b45eb1779e3c4a7a8cca" target="_top" xlink:title="CLHEP::HepLorentzRotation\l::inverse">
<polygon fill="none" stroke="#000000" points="409.5,-39.5 409.5,-71.5 564.5,-71.5 564.5,-39.5 409.5,-39.5"/>
<text text-anchor="start" x="417.5" y="-58.5" font-family="FreeSans" font-size="10.00" fill="#000000">CLHEP::HepLorentzRotation</text>
<text text-anchor="middle" x="487" y="-46.5" font-family="FreeSans" font-size="10.00" fill="#000000">::inverse</text>
</a>
</g>
</g>
<!-- Node2&#45;&gt;Node19 -->
<g id="edge23" class="edge">
<title>Node2&#45;&gt;Node19</title>
<path fill="none" stroke="#191970" d="M300.257,-231.1131C313.7936,-197.8489 348.9998,-122.1245 403,-81.5 405.4818,-79.6329 408.0996,-77.8984 410.8161,-76.2872"/>
<polygon fill="#191970" stroke="#191970" points="412.5758,-79.316 419.7822,-71.5495 409.3055,-73.1269 412.5758,-79.316"/>
</g>
<!-- Node20 -->
<g id="node20" class="node">
<title>Node20</title>
<g id="a_node20"><a xlink:href="../../dc/df4/classCLHEP_1_1HepLorentzVector.html#a78d2152637be53ba770453507b374b02" target="_top" xlink:title="CLHEP::HepLorentzVector::set">
<polygon fill="none" stroke="#000000" points="403,-.5 403,-20.5 571,-20.5 571,-.5 403,-.5"/>
<text text-anchor="middle" x="487" y="-7.5" font-family="FreeSans" font-size="10.00" fill="#000000">CLHEP::HepLorentzVector::set</text>
</a>
</g>
</g>
<!-- Node2&#45;&gt;Node20 -->
<g id="edge24" class="edge">
<title>Node2&#45;&gt;Node20</title>
<path fill="none" stroke="#191970" d="M297.1856,-231.4808C306.1022,-191.0226 335.2316,-84.1375 403,-30.5 405.586,-28.4532 408.3479,-26.6105 411.2364,-24.9519"/>
<polygon fill="#191970" stroke="#191970" points="412.8163,-28.0753 420.2322,-20.5086 409.7162,-21.7991 412.8163,-28.0753"/>
</g>
<!-- Node9 -->
<g id="node9" class="node">
<title>Node9</title>
<g id="a_node9"><a xlink:href="../../da/db4/classCLHEP_1_1HepLorentzRotation.html#a9995040c7a269d516dfaa96d22701b8a" target="_top" xlink:title="CLHEP::HepLorentzRotation\l::row1">
<polygon fill="none" stroke="#000000" points="608.5,-205.5 608.5,-237.5 763.5,-237.5 763.5,-205.5 608.5,-205.5"/>
<text text-anchor="start" x="616.5" y="-224.5" font-family="FreeSans" font-size="10.00" fill="#000000">CLHEP::HepLorentzRotation</text>
<text text-anchor="middle" x="686" y="-212.5" font-family="FreeSans" font-size="10.00" fill="#000000">::row1</text>
</a>
</g>
</g>
<!-- Node8&#45;&gt;Node9 -->
<g id="edge8" class="edge">
<title>Node8&#45;&gt;Node9</title>
<path fill="none" stroke="#191970" d="M564.5084,-206.2372C575.5376,-207.6228 586.9463,-209.0561 598.155,-210.4642"/>
<polygon fill="#191970" stroke="#191970" points="598.0174,-213.9743 608.3758,-211.7482 598.89,-207.0289 598.0174,-213.9743"/>
</g>
<!-- Node10 -->
<g id="node10" class="node">
<title>Node10</title>
<g id="a_node10"><a xlink:href="../../da/db4/classCLHEP_1_1HepLorentzRotation.html#ac16bd49002e3b5698957cb66aec38382" target="_top" xlink:title="CLHEP::HepLorentzRotation\l::row2">
<polygon fill="none" stroke="#000000" points="608.5,-76.5 608.5,-108.5 763.5,-108.5 763.5,-76.5 608.5,-76.5"/>
<text text-anchor="start" x="616.5" y="-95.5" font-family="FreeSans" font-size="10.00" fill="#000000">CLHEP::HepLorentzRotation</text>
<text text-anchor="middle" x="686" y="-83.5" font-family="FreeSans" font-size="10.00" fill="#000000">::row2</text>
</a>
</g>
</g>
<!-- Node8&#45;&gt;Node10 -->
<g id="edge9" class="edge">
<title>Node8&#45;&gt;Node10</title>
<path fill="none" stroke="#191970" d="M555.8459,-180.4168C561.2022,-177.8659 566.3339,-174.9143 571,-171.5 593.9805,-154.6845 584.2629,-135.6432 607,-118.5 609.4571,-116.6474 612.0527,-114.923 614.7466,-113.3184"/>
<polygon fill="#191970" stroke="#191970" points="616.4502,-116.3766 623.6357,-108.5908 613.1632,-110.1963 616.4502,-116.3766"/>
</g>
<!-- Node11 -->
<g id="node11" class="node">
<title>Node11</title>
<g id="a_node11"><a xlink:href="../../dc/df4/classCLHEP_1_1HepLorentzVector.html#a7accb6710e359a0604df1d119897c429" target="_top" xlink:title="CLHEP::HepLorentzVector::x">
<polygon fill="none" stroke="#000000" points="607,-166.5 607,-186.5 765,-186.5 765,-166.5 607,-166.5"/>
<text text-anchor="middle" x="686" y="-173.5" font-family="FreeSans" font-size="10.00" fill="#000000">CLHEP::HepLorentzVector::x</text>
</a>
</g>
</g>
<!-- Node8&#45;&gt;Node11 -->
<g id="edge10" class="edge">
<title>Node8&#45;&gt;Node11</title>
<path fill="none" stroke="#191970" d="M564.5084,-188.7102C575.0116,-187.6546 585.8589,-186.5644 596.5498,-185.49"/>
<polygon fill="#191970" stroke="#191970" points="597.1358,-188.9488 606.7357,-184.4663 596.4358,-181.9839 597.1358,-188.9488"/>
</g>
<!-- Node12 -->
<g id="node12" class="node">
<title>Node12</title>
<g id="a_node12"><a xlink:href="../../dc/df4/classCLHEP_1_1HepLorentzVector.html#a566eaa8184d633b794c069a992054435" target="_top" xlink:title="CLHEP::HepLorentzVector::y">
<polygon fill="none" stroke="#000000" points="607,-127.5 607,-147.5 765,-147.5 765,-127.5 607,-127.5"/>
<text text-anchor="middle" x="686" y="-134.5" font-family="FreeSans" font-size="10.00" fill="#000000">CLHEP::HepLorentzVector::y</text>
</a>
</g>
</g>
<!-- Node8&#45;&gt;Node12 -->
<g id="edge11" class="edge">
<title>Node8&#45;&gt;Node12</title>
<path fill="none" stroke="#191970" d="M543.2303,-180.4566C552.547,-177.6006 562.0757,-174.5576 571,-171.5 587.2405,-165.9357 590.648,-162.7276 607,-157.5 615.1362,-154.8989 623.8287,-152.4123 632.3626,-150.1309"/>
<polygon fill="#191970" stroke="#191970" points="633.4697,-153.4594 642.265,-147.5523 631.7057,-146.6853 633.4697,-153.4594"/>
</g>
<!-- Node13 -->
<g id="node13" class="node">
<title>Node13</title>
<g id="a_node13"><a xlink:href="../../dc/df4/classCLHEP_1_1HepLorentzVector.html#a1df65728ae62f00bf0a9b6991ae4f042" target="_top" xlink:title="CLHEP::HepLorentzVector::z">
<polygon fill="none" stroke="#000000" points="607.5,-295.5 607.5,-315.5 764.5,-315.5 764.5,-295.5 607.5,-295.5"/>
<text text-anchor="middle" x="686" y="-302.5" font-family="FreeSans" font-size="10.00" fill="#000000">CLHEP::HepLorentzVector::z</text>
</a>
</g>
</g>
<!-- Node8&#45;&gt;Node13 -->
<g id="edge12" class="edge">
<title>Node8&#45;&gt;Node13</title>
<path fill="none" stroke="#191970" d="M555.3419,-212.6008C560.9321,-215.3915 566.2491,-218.6637 571,-222.5 596.3912,-243.003 580.9644,-266.8218 607,-286.5 609.0678,-288.0629 611.2458,-289.4994 613.5075,-290.8194"/>
<polygon fill="#191970" stroke="#191970" points="612.0798,-294.0186 622.59,-295.3555 615.2075,-287.7562 612.0798,-294.0186"/>
</g>
<!-- Node14 -->
<g id="node14" class="node">
<title>Node14</title>
<g id="a_node14"><a xlink:href="../../dc/df4/classCLHEP_1_1HepLorentzVector.html#a26d2f326469362cf94bc37bb44ed86b6" target="_top" xlink:title="CLHEP::HepLorentzVector::t">
<polygon fill="none" stroke="#000000" points="608,-256.5 608,-276.5 764,-276.5 764,-256.5 608,-256.5"/>
<text text-anchor="middle" x="686" y="-263.5" font-family="FreeSans" font-size="10.00" fill="#000000">CLHEP::HepLorentzVector::t</text>
</a>
</g>
</g>
<!-- Node8&#45;&gt;Node14 -->
<g id="edge13" class="edge">
<title>Node8&#45;&gt;Node14</title>
<path fill="none" stroke="#191970" d="M547.0762,-212.6111C555.2712,-215.5225 563.4527,-218.8209 571,-222.5 588.51,-231.0357 589.2253,-239.5302 607,-247.5 611.9878,-249.7364 617.2756,-251.7311 622.6585,-253.5061"/>
<polygon fill="#191970" stroke="#191970" points="621.8201,-256.9093 632.4058,-256.4683 623.8556,-250.2117 621.8201,-256.9093"/>
</g>
<!-- Node16&#45;&gt;Node9 -->
<g id="edge16" class="edge">
<title>Node16&#45;&gt;Node9</title>
<path fill="none" stroke="#191970" d="M564.5084,-237.3733C575.5376,-235.9323 586.9463,-234.4417 598.155,-232.9772"/>
<polygon fill="#191970" stroke="#191970" points="598.9135,-236.408 608.3758,-231.6419 598.0066,-229.467 598.9135,-236.408"/>
</g>
<!-- Node16&#45;&gt;Node11 -->
<g id="edge18" class="edge">
<title>Node16&#45;&gt;Node11</title>
<path fill="none" stroke="#191970" d="M549.8249,-231.355C557.1048,-228.7403 564.3107,-225.7924 571,-222.5 588.7079,-213.7844 589.1159,-204.848 607,-196.5 612.6368,-193.8688 618.6678,-191.5515 624.7913,-189.5178"/>
<polygon fill="#191970" stroke="#191970" points="625.9156,-192.8339 634.4466,-186.5512 623.8596,-186.1427 625.9156,-192.8339"/>
</g>
<!-- Node16&#45;&gt;Node12 -->
<g id="edge19" class="edge">
<title>Node16&#45;&gt;Node12</title>
<path fill="none" stroke="#191970" d="M557.0254,-231.4481C562.0014,-228.8932 566.7309,-225.9321 571,-222.5 596.7377,-201.8085 580.8404,-177.6555 607,-157.5 609.6337,-155.4708 612.4496,-153.6456 615.392,-152.004"/>
<polygon fill="#191970" stroke="#191970" points="617.0435,-155.0937 624.5432,-147.6101 614.0135,-148.7834 617.0435,-155.0937"/>
</g>
<!-- Node16&#45;&gt;Node13 -->
<g id="edge20" class="edge">
<title>Node16&#45;&gt;Node13</title>
<path fill="none" stroke="#191970" d="M540.4434,-263.6344C550.6166,-266.8208 561.1572,-270.2015 571,-273.5 587.1296,-278.9053 590.7053,-281.6147 607,-286.5 614.5056,-288.7502 622.4734,-290.9185 630.3495,-292.9344"/>
<polygon fill="#191970" stroke="#191970" points="629.6852,-296.3759 640.2351,-295.4011 631.3799,-289.5841 629.6852,-296.3759"/>
</g>
<!-- Node16&#45;&gt;Node14 -->
<g id="edge21" class="edge">
<title>Node16&#45;&gt;Node14</title>
<path fill="none" stroke="#191970" d="M564.5084,-254.9003C575.3705,-255.9374 586.6007,-257.0096 597.6453,-258.0641"/>
<polygon fill="#191970" stroke="#191970" points="597.4329,-261.5597 607.7204,-259.0261 598.0983,-254.5914 597.4329,-261.5597"/>
</g>
<!-- Node17 -->
<g id="node17" class="node">
<title>Node17</title>
<g id="a_node17"><a xlink:href="../../da/db4/classCLHEP_1_1HepLorentzRotation.html#af1026a80b70dccb79a8772c54ee0cabe" target="_top" xlink:title="CLHEP::HepLorentzRotation\l::row3">
<polygon fill="none" stroke="#000000" points="608.5,-334.5 608.5,-366.5 763.5,-366.5 763.5,-334.5 608.5,-334.5"/>
<text text-anchor="start" x="616.5" y="-353.5" font-family="FreeSans" font-size="10.00" fill="#000000">CLHEP::HepLorentzRotation</text>
<text text-anchor="middle" x="686" y="-341.5" font-family="FreeSans" font-size="10.00" fill="#000000">::row3</text>
</a>
</g>
</g>
<!-- Node16&#45;&gt;Node17 -->
<g id="edge17" class="edge">
<title>Node16&#45;&gt;Node17</title>
<path fill="none" stroke="#191970" d="M554.1195,-263.6818C560.0945,-266.4613 565.8294,-269.7086 571,-273.5 593.668,-290.1219 584.3846,-308.8067 607,-325.5 608.8808,-326.8883 610.8411,-328.2011 612.8633,-329.4423"/>
<polygon fill="#191970" stroke="#191970" points="611.6124,-332.7456 622.0711,-334.4388 614.9511,-326.5931 611.6124,-332.7456"/>
</g>
</g>
</svg>
