<?xml version="1.0" encoding="UTF-8" standalone="no"?>
<!DOCTYPE svg PUBLIC "-//W3C//DTD SVG 1.1//EN"
 "http://www.w3.org/Graphics/SVG/1.1/DTD/svg11.dtd">
<!-- Generated by graphviz version 2.40.1 (20161225.0304)
 -->
<!-- Title: G4AntiLambdacPlus::AntiLambdacPlusDefinition Pages: 1 -->
<svg width="942pt" height="317pt"
 viewBox="0.00 0.00 942.00 317.00" xmlns="http://www.w3.org/2000/svg" xmlns:xlink="http://www.w3.org/1999/xlink">
<g id="graph0" class="graph" transform="scale(1 1) rotate(0) translate(4 313)">
<title>G4AntiLambdacPlus::AntiLambdacPlusDefinition</title>
<!-- Node1 -->
<g id="node1" class="node">
<title>Node1</title>
<polygon fill="#bfbfbf" stroke="#000000" points="0,-61.5 0,-93.5 153,-93.5 153,-61.5 0,-61.5"/>
<text text-anchor="start" x="8" y="-80.5" font-family="FreeSans" font-size="10.00" fill="#000000">G4AntiLambdacPlus::</text>
<text text-anchor="middle" x="76.5" y="-68.5" font-family="FreeSans" font-size="10.00" fill="#000000">AntiLambdacPlusDefinition</text>
</g>
<!-- Node2 -->
<g id="node2" class="node">
<title>Node2</title>
<g id="a_node2"><a xlink:href="../../d2/db6/classG4AntiLambdacPlus.html#a916781a2adee68f1c381e930f73a474c" target="_top" xlink:title="G4AntiLambdacPlus::\lDefinition">
<polygon fill="none" stroke="#000000" points="189,-61.5 189,-93.5 313,-93.5 313,-61.5 189,-61.5"/>
<text text-anchor="start" x="197" y="-80.5" font-family="FreeSans" font-size="10.00" fill="#000000">G4AntiLambdacPlus::</text>
<text text-anchor="middle" x="251" y="-68.5" font-family="FreeSans" font-size="10.00" fill="#000000">Definition</text>
</a>
</g>
</g>
<!-- Node1&#45;&gt;Node2 -->
<g id="edge1" class="edge">
<title>Node1&#45;&gt;Node2</title>
<path fill="none" stroke="#191970" d="M153.0382,-77.5C161.5668,-77.5 170.234,-77.5 178.7072,-77.5"/>
<polygon fill="#191970" stroke="#191970" points="178.9241,-81.0001 188.9241,-77.5 178.924,-74.0001 178.9241,-81.0001"/>
</g>
<!-- Node3 -->
<g id="node3" class="node">
<title>Node3</title>
<g id="a_node3"><a xlink:href="../../d8/dd3/classG4ParticleTable.html#a8bb5b636696da4abae3ca7ea0ea5af95" target="_top" xlink:title="G4ParticleTable::GetParticle\lTable">
<polygon fill="none" stroke="#000000" points="350.5,-125.5 350.5,-157.5 506.5,-157.5 506.5,-125.5 350.5,-125.5"/>
<text text-anchor="start" x="358.5" y="-144.5" font-family="FreeSans" font-size="10.00" fill="#000000">G4ParticleTable::GetParticle</text>
<text text-anchor="middle" x="428.5" y="-132.5" font-family="FreeSans" font-size="10.00" fill="#000000">Table</text>
</a>
</g>
</g>
<!-- Node2&#45;&gt;Node3 -->
<g id="edge2" class="edge">
<title>Node2&#45;&gt;Node3</title>
<path fill="none" stroke="#191970" d="M295.7907,-93.6499C319.7413,-102.2856 349.4062,-112.9817 374.611,-122.0696"/>
<polygon fill="#191970" stroke="#191970" points="373.437,-125.3668 384.0313,-125.4662 375.8113,-118.7818 373.437,-125.3668"/>
</g>
<!-- Node10 -->
<g id="node10" class="node">
<title>Node10</title>
<g id="a_node10"><a xlink:href="../../d8/dd3/classG4ParticleTable.html#a891da3f41417c3800e7596fab298c3c5" target="_top" xlink:title="G4ParticleTable::FindParticle">
<polygon fill="none" stroke="#000000" points="349,-67.5 349,-87.5 508,-87.5 508,-67.5 349,-67.5"/>
<text text-anchor="middle" x="428.5" y="-74.5" font-family="FreeSans" font-size="10.00" fill="#000000">G4ParticleTable::FindParticle</text>
</a>
</g>
</g>
<!-- Node2&#45;&gt;Node10 -->
<g id="edge9" class="edge">
<title>Node2&#45;&gt;Node10</title>
<path fill="none" stroke="#191970" d="M313.0809,-77.5C321.4161,-77.5 330.0973,-77.5 338.7907,-77.5"/>
<polygon fill="#191970" stroke="#191970" points="338.9818,-81.0001 348.9817,-77.5 338.9817,-74.0001 338.9818,-81.0001"/>
</g>
<!-- Node14 -->
<g id="node14" class="node">
<title>Node14</title>
<g id="a_node14"><a xlink:href="../../d5/d38/classG4ParticleDefinition.html#a62ed9b48da6b7fd47ba568dd9777007f" target="_top" xlink:title="G4ParticleDefinition\l::G4ParticleDefinition">
<polygon fill="none" stroke="#000000" points="367,-.5 367,-32.5 490,-32.5 490,-.5 367,-.5"/>
<text text-anchor="start" x="375" y="-19.5" font-family="FreeSans" font-size="10.00" fill="#000000">G4ParticleDefinition</text>
<text text-anchor="middle" x="428.5" y="-7.5" font-family="FreeSans" font-size="10.00" fill="#000000">::G4ParticleDefinition</text>
</a>
</g>
</g>
<!-- Node2&#45;&gt;Node14 -->
<g id="edge14" class="edge">
<title>Node2&#45;&gt;Node14</title>
<path fill="none" stroke="#191970" d="M297.636,-61.473C320.4761,-53.6237 348.1606,-44.1096 372.1736,-35.8572"/>
<polygon fill="#191970" stroke="#191970" points="373.548,-39.0859 381.8676,-32.5258 371.2729,-32.4659 373.548,-39.0859"/>
</g>
<!-- Node4 -->
<g id="node4" class="node">
<title>Node4</title>
<g id="a_node4"><a xlink:href="../../d8/dd3/classG4ParticleTable.html#aba540bf07478ff0c30af3ee28d843041" target="_top" xlink:title="G4ParticleTable::WorkerG4\lParticleTable">
<polygon fill="none" stroke="#000000" points="560,-164.5 560,-196.5 711,-196.5 711,-164.5 560,-164.5"/>
<text text-anchor="start" x="568" y="-183.5" font-family="FreeSans" font-size="10.00" fill="#000000">G4ParticleTable::WorkerG4</text>
<text text-anchor="middle" x="635.5" y="-171.5" font-family="FreeSans" font-size="10.00" fill="#000000">ParticleTable</text>
</a>
</g>
</g>
<!-- Node3&#45;&gt;Node4 -->
<g id="edge3" class="edge">
<title>Node3&#45;&gt;Node4</title>
<path fill="none" stroke="#191970" d="M506.7578,-156.2442C520.8973,-158.9082 535.7062,-161.6983 550.0388,-164.3986"/>
<polygon fill="#191970" stroke="#191970" points="549.3961,-167.839 559.8712,-166.2511 550.6922,-160.9601 549.3961,-167.839"/>
</g>
<!-- Node5 -->
<g id="node5" class="node">
<title>Node5</title>
<g id="a_node5"><a xlink:href="../../d4/d96/classG4ParticleTableIterator.html#ae35fb8d216907e4b1614fd52f2d50f84" target="_top" xlink:title="G4ParticleTableIterator\l::reset">
<polygon fill="none" stroke="#000000" points="782.5,-276.5 782.5,-308.5 914.5,-308.5 914.5,-276.5 782.5,-276.5"/>
<text text-anchor="start" x="790.5" y="-295.5" font-family="FreeSans" font-size="10.00" fill="#000000">G4ParticleTableIterator</text>
<text text-anchor="middle" x="848.5" y="-283.5" font-family="FreeSans" font-size="10.00" fill="#000000">::reset</text>
</a>
</g>
</g>
<!-- Node4&#45;&gt;Node5 -->
<g id="edge4" class="edge">
<title>Node4&#45;&gt;Node5</title>
<path fill="none" stroke="#191970" d="M655.0554,-196.7661C679.1039,-216.0527 721.8148,-248.0289 763,-267.5 767.0415,-269.4107 771.2605,-271.2087 775.5652,-272.895"/>
<polygon fill="#191970" stroke="#191970" points="774.4973,-276.2315 785.0907,-276.4087 776.9199,-269.6641 774.4973,-276.2315"/>
</g>
<!-- Node6 -->
<g id="node6" class="node">
<title>Node6</title>
<g id="a_node6"><a xlink:href="../../d4/d96/classG4ParticleTableIterator.html#a7220383ce5a9ddecb53331a2ecdd90d5" target="_top" xlink:title="G4ParticleTableIterator\l::value">
<polygon fill="none" stroke="#000000" points="782.5,-225.5 782.5,-257.5 914.5,-257.5 914.5,-225.5 782.5,-225.5"/>
<text text-anchor="start" x="790.5" y="-244.5" font-family="FreeSans" font-size="10.00" fill="#000000">G4ParticleTableIterator</text>
<text text-anchor="middle" x="848.5" y="-232.5" font-family="FreeSans" font-size="10.00" fill="#000000">::value</text>
</a>
</g>
</g>
<!-- Node4&#45;&gt;Node6 -->
<g id="edge5" class="edge">
<title>Node4&#45;&gt;Node6</title>
<path fill="none" stroke="#191970" d="M691.4632,-196.527C719.4804,-204.5507 753.5721,-214.3141 782.8227,-222.691"/>
<polygon fill="#191970" stroke="#191970" points="781.9639,-226.0857 792.5411,-225.4742 783.8912,-219.3562 781.9639,-226.0857"/>
</g>
<!-- Node7 -->
<g id="node7" class="node">
<title>Node7</title>
<g id="a_node7"><a xlink:href="../../d8/dd3/classG4ParticleTable.html#ad3150940809a36b87123558264d30108" target="_top" xlink:title="G4ParticleTable::GetKey">
<polygon fill="none" stroke="#000000" points="780,-96.5 780,-116.5 917,-116.5 917,-96.5 780,-96.5"/>
<text text-anchor="middle" x="848.5" y="-103.5" font-family="FreeSans" font-size="10.00" fill="#000000">G4ParticleTable::GetKey</text>
</a>
</g>
</g>
<!-- Node4&#45;&gt;Node7 -->
<g id="edge6" class="edge">
<title>Node4&#45;&gt;Node7</title>
<path fill="none" stroke="#191970" d="M668.992,-164.4535C694.3645,-152.7574 730.318,-137.1568 763,-126.5 771.4243,-123.753 780.4308,-121.2224 789.3208,-118.9515"/>
<polygon fill="#191970" stroke="#191970" points="790.3988,-122.2907 799.2713,-116.5003 788.7243,-115.4939 790.3988,-122.2907"/>
</g>
<!-- Node8 -->
<g id="node8" class="node">
<title>Node8</title>
<g id="a_node8"><a xlink:href="../../d5/d38/classG4ParticleDefinition.html#af84019c7513ca66581ed8b3651934467" target="_top" xlink:title="G4ParticleDefinition\l::GetPDGEncoding">
<polygon fill="none" stroke="#000000" points="790.5,-174.5 790.5,-206.5 906.5,-206.5 906.5,-174.5 790.5,-174.5"/>
<text text-anchor="start" x="798.5" y="-193.5" font-family="FreeSans" font-size="10.00" fill="#000000">G4ParticleDefinition</text>
<text text-anchor="middle" x="848.5" y="-181.5" font-family="FreeSans" font-size="10.00" fill="#000000">::GetPDGEncoding</text>
</a>
</g>
</g>
<!-- Node4&#45;&gt;Node8 -->
<g id="edge7" class="edge">
<title>Node4&#45;&gt;Node8</title>
<path fill="none" stroke="#191970" d="M711.1956,-184.0538C733.699,-185.1103 758.2101,-186.261 780.2126,-187.294"/>
<polygon fill="#191970" stroke="#191970" points="780.3063,-190.8022 790.4595,-187.7751 780.6347,-183.8099 780.3063,-190.8022"/>
</g>
<!-- Node9 -->
<g id="node9" class="node">
<title>Node9</title>
<g id="a_node9"><a xlink:href="../../da/d2b/classG4IonTable.html#a66f8ee295224ed611872572a0e47ab6e" target="_top" xlink:title="G4IonTable::WorkerG4IonTable">
<polygon fill="none" stroke="#000000" points="763,-135.5 763,-155.5 934,-155.5 934,-135.5 763,-135.5"/>
<text text-anchor="middle" x="848.5" y="-142.5" font-family="FreeSans" font-size="10.00" fill="#000000">G4IonTable::WorkerG4IonTable</text>
</a>
</g>
</g>
<!-- Node4&#45;&gt;Node9 -->
<g id="edge8" class="edge">
<title>Node4&#45;&gt;Node9</title>
<path fill="none" stroke="#191970" d="M711.1956,-168.0618C732.77,-164.5167 756.1897,-160.6684 777.475,-157.1708"/>
<polygon fill="#191970" stroke="#191970" points="778.1114,-160.6132 787.4115,-155.538 776.9763,-153.7059 778.1114,-160.6132"/>
</g>
<!-- Node10&#45;&gt;Node7 -->
<g id="edge13" class="edge">
<title>Node10&#45;&gt;Node7</title>
<path fill="none" stroke="#191970" d="M477.1826,-87.5087C497.7149,-91.3182 521.9299,-95.2744 544,-97.5 620.5134,-105.2159 708.3445,-107.0702 769.9526,-107.2323"/>
<polygon fill="#191970" stroke="#191970" points="769.9872,-110.7323 779.9914,-107.2444 769.9957,-103.7323 769.9872,-110.7323"/>
</g>
<!-- Node11 -->
<g id="node11" class="node">
<title>Node11</title>
<g id="a_node11"><a xlink:href="../../d8/dd3/classG4ParticleTable.html#a5dcd173398768b18c5ba132bbd8f427b" target="_top" xlink:title="G4ParticleTable::CheckReadiness">
<polygon fill="none" stroke="#000000" points="544,-67.5 544,-87.5 727,-87.5 727,-67.5 544,-67.5"/>
<text text-anchor="middle" x="635.5" y="-74.5" font-family="FreeSans" font-size="10.00" fill="#000000">G4ParticleTable::CheckReadiness</text>
</a>
</g>
</g>
<!-- Node10&#45;&gt;Node11 -->
<g id="edge10" class="edge">
<title>Node10&#45;&gt;Node11</title>
<path fill="none" stroke="#191970" d="M508.2355,-77.5C516.5852,-77.5 525.1531,-77.5 533.7054,-77.5"/>
<polygon fill="#191970" stroke="#191970" points="533.7239,-81.0001 543.7239,-77.5 533.7239,-74.0001 533.7239,-81.0001"/>
</g>
<!-- Node13 -->
<g id="node13" class="node">
<title>Node13</title>
<g id="a_node13"><a xlink:href="../../d7/d23/namespaceG4Threading.html#a4bce96528c21592b91483fb2ab5b6215" target="_top" xlink:title="G4Threading::IsWorkerThread">
<polygon fill="none" stroke="#000000" points="551.5,-28.5 551.5,-48.5 719.5,-48.5 719.5,-28.5 551.5,-28.5"/>
<text text-anchor="middle" x="635.5" y="-35.5" font-family="FreeSans" font-size="10.00" fill="#000000">G4Threading::IsWorkerThread</text>
</a>
</g>
</g>
<!-- Node10&#45;&gt;Node13 -->
<g id="edge12" class="edge">
<title>Node10&#45;&gt;Node13</title>
<path fill="none" stroke="#191970" d="M481.8076,-67.4565C509.4539,-62.2478 543.4044,-55.8513 572.3585,-50.3962"/>
<polygon fill="#191970" stroke="#191970" points="573.1939,-53.8005 582.373,-48.5094 571.8978,-46.9215 573.1939,-53.8005"/>
</g>
<!-- Node12 -->
<g id="node12" class="node">
<title>Node12</title>
<g id="a_node12"><a xlink:href="../../d5/d4f/G4Exception_8hh.html#ad36b5da5d062a20ca47b1c1f1ae353dd" target="_top" xlink:title="G4Exception">
<polygon fill="none" stroke="#000000" points="808.5,-38.5 808.5,-58.5 888.5,-58.5 888.5,-38.5 808.5,-38.5"/>
<text text-anchor="middle" x="848.5" y="-45.5" font-family="FreeSans" font-size="10.00" fill="#000000">G4Exception</text>
</a>
</g>
</g>
<!-- Node11&#45;&gt;Node12 -->
<g id="edge11" class="edge">
<title>Node11&#45;&gt;Node12</title>
<path fill="none" stroke="#191970" d="M709.1008,-67.4792C738.506,-63.4757 771.6217,-58.967 798.1957,-55.3489"/>
<polygon fill="#191970" stroke="#191970" points="798.9721,-58.7756 808.4085,-53.9585 798.0277,-51.8396 798.9721,-58.7756"/>
</g>
<!-- Node14&#45;&gt;Node12 -->
<g id="edge15" class="edge">
<title>Node14&#45;&gt;Node12</title>
<path fill="none" stroke="#191970" d="M490.2326,-12.7017C550.7891,-9.9655 645.622,-8.3252 727,-18.5 753.9496,-21.8696 783.5496,-29.1013 806.7862,-35.62"/>
<polygon fill="#191970" stroke="#191970" points="806.0772,-39.0578 816.6547,-38.4524 808.0083,-32.3294 806.0772,-39.0578"/>
</g>
</g>
</svg>
