<?xml version="1.0" encoding="UTF-8" standalone="no"?>
<!DOCTYPE svg PUBLIC "-//W3C//DTD SVG 1.1//EN"
 "http://www.w3.org/Graphics/SVG/1.1/DTD/svg11.dtd">
<!-- Generated by graphviz version 2.40.1 (20161225.0304)
 -->
<!-- Title: geant4/tree/geant4&#45;10.6&#45;release/source/geometry/magneticfield/include/G4BogackiShampine45.hh Pages: 1 -->
<svg width="511pt" height="158pt"
 viewBox="0.00 0.00 511.00 158.00" xmlns="http://www.w3.org/2000/svg" xmlns:xlink="http://www.w3.org/1999/xlink">
<g id="graph0" class="graph" transform="scale(1 1) rotate(0) translate(4 154)">
<title>geant4/tree/geant4&#45;10.6&#45;release/source/geometry/magneticfield/include/G4BogackiShampine45.hh</title>
<!-- Node1 -->
<g id="node1" class="node">
<title>Node1</title>
<polygon fill="#bfbfbf" stroke="#000000" points="141,-93.5 141,-149.5 336,-149.5 336,-93.5 141,-93.5"/>
<text text-anchor="start" x="149" y="-136.5" font-family="FreeSans" font-size="10.00" fill="#000000">geant4/tree/geant4</text>
<text text-anchor="start" x="149" y="-124.5" font-family="FreeSans" font-size="10.00" fill="#000000">&#45;10.6&#45;release/source</text>
<text text-anchor="start" x="149" y="-112.5" font-family="FreeSans" font-size="10.00" fill="#000000">/geometry/magneticfield</text>
<text text-anchor="middle" x="238.5" y="-100.5" font-family="FreeSans" font-size="10.00" fill="#000000">/include/G4BogackiShampine45.hh</text>
</g>
<!-- Node2 -->
<g id="node2" class="node">
<title>Node2</title>
<g id="a_node2"><a xlink:href="../../d6/dcf/F01FieldSetup_8cc.html" target="_top" xlink:title="Implementation of the F01FieldSetup class.">
<polygon fill="none" stroke="#000000" points="0,-.5 0,-56.5 135,-56.5 135,-.5 0,-.5"/>
<text text-anchor="start" x="8" y="-43.5" font-family="FreeSans" font-size="10.00" fill="#000000">geant4/tree/geant4</text>
<text text-anchor="start" x="8" y="-31.5" font-family="FreeSans" font-size="10.00" fill="#000000">&#45;10.6&#45;release/examples</text>
<text text-anchor="start" x="8" y="-19.5" font-family="FreeSans" font-size="10.00" fill="#000000">/extended/field/field01</text>
<text text-anchor="middle" x="67.5" y="-7.5" font-family="FreeSans" font-size="10.00" fill="#000000">/src/F01FieldSetup.cc</text>
</a>
</g>
</g>
<!-- Node1&#45;&gt;Node2 -->
<g id="edge1" class="edge">
<title>Node1&#45;&gt;Node2</title>
<path fill="none" stroke="#191970" d="M177.7693,-88.471C158.5839,-78.0369 137.5774,-66.6123 119.0937,-56.5597"/>
<polygon fill="#191970" stroke="#191970" points="176.2732,-91.6415 186.7303,-93.3446 179.6177,-85.4921 176.2732,-91.6415"/>
</g>
<!-- Node3 -->
<g id="node3" class="node">
<title>Node3</title>
<g id="a_node3"><a xlink:href="../../d0/dd2/G4BogackiShampine45_8cc.html" target="_top" xlink:title="geant4/tree/geant4\l&#45;10.6&#45;release/source\l/geometry/magneticfield\l/src/G4BogackiShampine45.cc">
<polygon fill="none" stroke="#000000" points="153,-.5 153,-56.5 324,-56.5 324,-.5 153,-.5"/>
<text text-anchor="start" x="161" y="-43.5" font-family="FreeSans" font-size="10.00" fill="#000000">geant4/tree/geant4</text>
<text text-anchor="start" x="161" y="-31.5" font-family="FreeSans" font-size="10.00" fill="#000000">&#45;10.6&#45;release/source</text>
<text text-anchor="start" x="161" y="-19.5" font-family="FreeSans" font-size="10.00" fill="#000000">/geometry/magneticfield</text>
<text text-anchor="middle" x="238.5" y="-7.5" font-family="FreeSans" font-size="10.00" fill="#000000">/src/G4BogackiShampine45.cc</text>
</a>
</g>
</g>
<!-- Node1&#45;&gt;Node3 -->
<g id="edge2" class="edge">
<title>Node1&#45;&gt;Node3</title>
<path fill="none" stroke="#191970" d="M238.5,-83.1582C238.5,-74.2499 238.5,-64.9293 238.5,-56.5597"/>
<polygon fill="#191970" stroke="#191970" points="235.0001,-83.3445 238.5,-93.3446 242.0001,-83.3446 235.0001,-83.3445"/>
</g>
<!-- Node4 -->
<g id="node4" class="node">
<title>Node4</title>
<g id="a_node4"><a xlink:href="../../d4/d3f/G4HelixMixedStepper_8cc.html" target="_top" xlink:title="geant4/tree/geant4\l&#45;10.6&#45;release/source\l/geometry/magneticfield\l/src/G4HelixMixedStepper.cc">
<polygon fill="none" stroke="#000000" points="342,-.5 342,-56.5 503,-56.5 503,-.5 342,-.5"/>
<text text-anchor="start" x="350" y="-43.5" font-family="FreeSans" font-size="10.00" fill="#000000">geant4/tree/geant4</text>
<text text-anchor="start" x="350" y="-31.5" font-family="FreeSans" font-size="10.00" fill="#000000">&#45;10.6&#45;release/source</text>
<text text-anchor="start" x="350" y="-19.5" font-family="FreeSans" font-size="10.00" fill="#000000">/geometry/magneticfield</text>
<text text-anchor="middle" x="422.5" y="-7.5" font-family="FreeSans" font-size="10.00" fill="#000000">/src/G4HelixMixedStepper.cc</text>
</a>
</g>
</g>
<!-- Node1&#45;&gt;Node4 -->
<g id="edge3" class="edge">
<title>Node1&#45;&gt;Node4</title>
<path fill="none" stroke="#191970" d="M303.2876,-88.7541C324.0822,-78.2438 346.9151,-66.7033 366.9839,-56.5597"/>
<polygon fill="#191970" stroke="#191970" points="301.5514,-85.7099 294.2054,-93.3446 304.709,-91.9573 301.5514,-85.7099"/>
</g>
</g>
</svg>
