<?xml version="1.0" encoding="UTF-8" standalone="no"?>
<!DOCTYPE svg PUBLIC "-//W3C//DTD SVG 1.1//EN"
 "http://www.w3.org/Graphics/SVG/1.1/DTD/svg11.dtd">
<!-- Generated by graphviz version 2.40.1 (20161225.0304)
 -->
<!-- Title: G4MuElecCrossSectionDataSet::GetLogData Pages: 1 -->
<svg width="358pt" height="80pt"
 viewBox="0.00 0.00 358.00 80.00" xmlns="http://www.w3.org/2000/svg" xmlns:xlink="http://www.w3.org/1999/xlink">
<g id="graph0" class="graph" transform="scale(1 1) rotate(0) translate(4 76)">
<title>G4MuElecCrossSectionDataSet::GetLogData</title>
<!-- Node1 -->
<g id="node1" class="node">
<title>Node1</title>
<polygon fill="#bfbfbf" stroke="#000000" points="0,-16.5 0,-48.5 155,-48.5 155,-16.5 0,-16.5"/>
<text text-anchor="start" x="8" y="-35.5" font-family="FreeSans" font-size="10.00" fill="#000000">G4MuElecCrossSectionData</text>
<text text-anchor="middle" x="77.5" y="-23.5" font-family="FreeSans" font-size="10.00" fill="#000000">Set::GetLogData</text>
</g>
<!-- Node2 -->
<g id="node2" class="node">
<title>Node2</title>
<g id="a_node2"><a xlink:href="../../de/da2/classG4MuElecCrossSectionDataSet.html#a69d264edcaf703508c566e954030096c" target="_top" xlink:title="G4MuElecCrossSectionData\lSet::GetComponent">
<polygon fill="none" stroke="#000000" points="193,-39.5 193,-71.5 348,-71.5 348,-39.5 193,-39.5"/>
<text text-anchor="start" x="201" y="-58.5" font-family="FreeSans" font-size="10.00" fill="#000000">G4MuElecCrossSectionData</text>
<text text-anchor="middle" x="270.5" y="-46.5" font-family="FreeSans" font-size="10.00" fill="#000000">Set::GetComponent</text>
</a>
</g>
</g>
<!-- Node1&#45;&gt;Node2 -->
<g id="edge1" class="edge">
<title>Node1&#45;&gt;Node2</title>
<path fill="none" stroke="#191970" d="M155.1662,-41.7556C164.32,-42.8464 173.709,-43.9653 182.9862,-45.0709"/>
<polygon fill="#191970" stroke="#191970" points="182.6488,-48.5554 192.9928,-46.2634 183.4772,-41.6046 182.6488,-48.5554"/>
</g>
<!-- Node3 -->
<g id="node3" class="node">
<title>Node3</title>
<g id="a_node3"><a xlink:href="../../d0/d71/classG4VEMDataSet.html#ac77a816f8c1544cb94f1365a2db120de" target="_top" xlink:title="G4VEMDataSet::GetLogData">
<polygon fill="none" stroke="#000000" points="191,-.5 191,-20.5 350,-20.5 350,-.5 191,-.5"/>
<text text-anchor="middle" x="270.5" y="-7.5" font-family="FreeSans" font-size="10.00" fill="#000000">G4VEMDataSet::GetLogData</text>
</a>
</g>
</g>
<!-- Node1&#45;&gt;Node3 -->
<g id="edge2" class="edge">
<title>Node1&#45;&gt;Node3</title>
<path fill="none" stroke="#191970" d="M155.1662,-23.6469C163.5982,-22.6857 172.2298,-21.7018 180.7898,-20.726"/>
<polygon fill="#191970" stroke="#191970" points="181.2502,-24.1963 190.7894,-19.5862 180.4573,-17.2414 181.2502,-24.1963"/>
</g>
</g>
</svg>
