<?xml version="1.0" encoding="UTF-8" standalone="no"?>
<!DOCTYPE svg PUBLIC "-//W3C//DTD SVG 1.1//EN"
 "http://www.w3.org/Graphics/SVG/1.1/DTD/svg11.dtd">
<!-- Generated by graphviz version 2.40.1 (20161225.0304)
 -->
<!-- Title: G4PhononTransFast::PhononDefinition Pages: 1 -->
<svg width="909pt" height="285pt"
 viewBox="0.00 0.00 909.00 285.00" xmlns="http://www.w3.org/2000/svg" xmlns:xlink="http://www.w3.org/1999/xlink">
<g id="graph0" class="graph" transform="scale(1 1) rotate(0) translate(4 281)">
<title>G4PhononTransFast::PhononDefinition</title>
<!-- Node1 -->
<g id="node1" class="node">
<title>Node1</title>
<polygon fill="#bfbfbf" stroke="#000000" points="0,-183.5 0,-215.5 122,-215.5 122,-183.5 0,-183.5"/>
<text text-anchor="start" x="8" y="-202.5" font-family="FreeSans" font-size="10.00" fill="#000000">G4PhononTransFast::</text>
<text text-anchor="middle" x="61" y="-190.5" font-family="FreeSans" font-size="10.00" fill="#000000">PhononDefinition</text>
</g>
<!-- Node2 -->
<g id="node2" class="node">
<title>Node2</title>
<g id="a_node2"><a xlink:href="../../d5/d50/classG4PhononTransFast.html#a38a4ab0de5ca04632c4f7e995e4ecb4a" target="_top" xlink:title="G4PhononTransFast::\lDefinition">
<polygon fill="none" stroke="#000000" points="158,-183.5 158,-215.5 280,-215.5 280,-183.5 158,-183.5"/>
<text text-anchor="start" x="166" y="-202.5" font-family="FreeSans" font-size="10.00" fill="#000000">G4PhononTransFast::</text>
<text text-anchor="middle" x="219" y="-190.5" font-family="FreeSans" font-size="10.00" fill="#000000">Definition</text>
</a>
</g>
</g>
<!-- Node1&#45;&gt;Node2 -->
<g id="edge1" class="edge">
<title>Node1&#45;&gt;Node2</title>
<path fill="none" stroke="#191970" d="M122.0869,-199.5C130.5129,-199.5 139.226,-199.5 147.8146,-199.5"/>
<polygon fill="#191970" stroke="#191970" points="147.8151,-203.0001 157.815,-199.5 147.815,-196.0001 147.8151,-203.0001"/>
</g>
<!-- Node3 -->
<g id="node3" class="node">
<title>Node3</title>
<g id="a_node3"><a xlink:href="../../d8/dd3/classG4ParticleTable.html#a891da3f41417c3800e7596fab298c3c5" target="_top" xlink:title="G4ParticleTable::FindParticle">
<polygon fill="none" stroke="#000000" points="316,-189.5 316,-209.5 475,-209.5 475,-189.5 316,-189.5"/>
<text text-anchor="middle" x="395.5" y="-196.5" font-family="FreeSans" font-size="10.00" fill="#000000">G4ParticleTable::FindParticle</text>
</a>
</g>
</g>
<!-- Node2&#45;&gt;Node3 -->
<g id="edge2" class="edge">
<title>Node2&#45;&gt;Node3</title>
<path fill="none" stroke="#191970" d="M280.2358,-199.5C288.4655,-199.5 297.042,-199.5 305.639,-199.5"/>
<polygon fill="#191970" stroke="#191970" points="305.7209,-203.0001 315.7209,-199.5 305.7209,-196.0001 305.7209,-203.0001"/>
</g>
<!-- Node8 -->
<g id="node8" class="node">
<title>Node8</title>
<g id="a_node8"><a xlink:href="../../d5/d38/classG4ParticleDefinition.html#a62ed9b48da6b7fd47ba568dd9777007f" target="_top" xlink:title="G4ParticleDefinition\l::G4ParticleDefinition">
<polygon fill="none" stroke="#000000" points="334,-244.5 334,-276.5 457,-276.5 457,-244.5 334,-244.5"/>
<text text-anchor="start" x="342" y="-263.5" font-family="FreeSans" font-size="10.00" fill="#000000">G4ParticleDefinition</text>
<text text-anchor="middle" x="395.5" y="-251.5" font-family="FreeSans" font-size="10.00" fill="#000000">::G4ParticleDefinition</text>
</a>
</g>
</g>
<!-- Node2&#45;&gt;Node8 -->
<g id="edge7" class="edge">
<title>Node2&#45;&gt;Node8</title>
<path fill="none" stroke="#191970" d="M265.3733,-215.527C288.0847,-223.3763 315.6133,-232.8904 339.4909,-241.1428"/>
<polygon fill="#191970" stroke="#191970" points="338.5356,-244.5157 349.1303,-244.4742 340.8222,-237.8996 338.5356,-244.5157"/>
</g>
<!-- Node9 -->
<g id="node9" class="node">
<title>Node9</title>
<g id="a_node9"><a xlink:href="../../d8/dd3/classG4ParticleTable.html#a8bb5b636696da4abae3ca7ea0ea5af95" target="_top" xlink:title="G4ParticleTable::GetParticle\lTable">
<polygon fill="none" stroke="#000000" points="317.5,-119.5 317.5,-151.5 473.5,-151.5 473.5,-119.5 317.5,-119.5"/>
<text text-anchor="start" x="325.5" y="-138.5" font-family="FreeSans" font-size="10.00" fill="#000000">G4ParticleTable::GetParticle</text>
<text text-anchor="middle" x="395.5" y="-126.5" font-family="FreeSans" font-size="10.00" fill="#000000">Table</text>
</a>
</g>
</g>
<!-- Node2&#45;&gt;Node9 -->
<g id="edge9" class="edge">
<title>Node2&#45;&gt;Node9</title>
<path fill="none" stroke="#191970" d="M263.5384,-183.3501C287.2492,-174.7524 316.592,-164.1125 341.5831,-155.0506"/>
<polygon fill="#191970" stroke="#191970" points="343.074,-158.2331 351.2819,-151.5338 340.6877,-151.6523 343.074,-158.2331"/>
</g>
<!-- Node4 -->
<g id="node4" class="node">
<title>Node4</title>
<g id="a_node4"><a xlink:href="../../d8/dd3/classG4ParticleTable.html#a5dcd173398768b18c5ba132bbd8f427b" target="_top" xlink:title="G4ParticleTable::CheckReadiness">
<polygon fill="none" stroke="#000000" points="511,-228.5 511,-248.5 694,-248.5 694,-228.5 511,-228.5"/>
<text text-anchor="middle" x="602.5" y="-235.5" font-family="FreeSans" font-size="10.00" fill="#000000">G4ParticleTable::CheckReadiness</text>
</a>
</g>
</g>
<!-- Node3&#45;&gt;Node4 -->
<g id="edge3" class="edge">
<title>Node3&#45;&gt;Node4</title>
<path fill="none" stroke="#191970" d="M448.8076,-209.5435C476.4539,-214.7522 510.4044,-221.1487 539.3585,-226.6038"/>
<polygon fill="#191970" stroke="#191970" points="538.8978,-230.0785 549.373,-228.4906 540.1939,-223.1995 538.8978,-230.0785"/>
</g>
<!-- Node6 -->
<g id="node6" class="node">
<title>Node6</title>
<g id="a_node6"><a xlink:href="../../d8/dd3/classG4ParticleTable.html#ad3150940809a36b87123558264d30108" target="_top" xlink:title="G4ParticleTable::GetKey">
<polygon fill="none" stroke="#000000" points="747,-192.5 747,-212.5 884,-212.5 884,-192.5 747,-192.5"/>
<text text-anchor="middle" x="815.5" y="-199.5" font-family="FreeSans" font-size="10.00" fill="#000000">G4ParticleTable::GetKey</text>
</a>
</g>
</g>
<!-- Node3&#45;&gt;Node6 -->
<g id="edge5" class="edge">
<title>Node3&#45;&gt;Node6</title>
<path fill="none" stroke="#191970" d="M475.4874,-200.0713C550.5012,-200.6072 662.0043,-201.4036 736.6473,-201.9368"/>
<polygon fill="#191970" stroke="#191970" points="736.9027,-205.4386 746.9275,-202.0102 736.9528,-198.4388 736.9027,-205.4386"/>
</g>
<!-- Node7 -->
<g id="node7" class="node">
<title>Node7</title>
<g id="a_node7"><a xlink:href="../../d7/d23/namespaceG4Threading.html#a4bce96528c21592b91483fb2ab5b6215" target="_top" xlink:title="G4Threading::IsWorkerThread">
<polygon fill="none" stroke="#000000" points="518.5,-150.5 518.5,-170.5 686.5,-170.5 686.5,-150.5 518.5,-150.5"/>
<text text-anchor="middle" x="602.5" y="-157.5" font-family="FreeSans" font-size="10.00" fill="#000000">G4Threading::IsWorkerThread</text>
</a>
</g>
</g>
<!-- Node3&#45;&gt;Node7 -->
<g id="edge6" class="edge">
<title>Node3&#45;&gt;Node7</title>
<path fill="none" stroke="#191970" d="M448.8076,-189.4565C476.4539,-184.2478 510.4044,-177.8513 539.3585,-172.3962"/>
<polygon fill="#191970" stroke="#191970" points="540.1939,-175.8005 549.373,-170.5094 538.8978,-168.9215 540.1939,-175.8005"/>
</g>
<!-- Node5 -->
<g id="node5" class="node">
<title>Node5</title>
<g id="a_node5"><a xlink:href="../../d5/d4f/G4Exception_8hh.html#ad36b5da5d062a20ca47b1c1f1ae353dd" target="_top" xlink:title="G4Exception">
<polygon fill="none" stroke="#000000" points="775.5,-249.5 775.5,-269.5 855.5,-269.5 855.5,-249.5 775.5,-249.5"/>
<text text-anchor="middle" x="815.5" y="-256.5" font-family="FreeSans" font-size="10.00" fill="#000000">G4Exception</text>
</a>
</g>
</g>
<!-- Node4&#45;&gt;Node5 -->
<g id="edge4" class="edge">
<title>Node4&#45;&gt;Node5</title>
<path fill="none" stroke="#191970" d="M694.0673,-247.5278C718.4857,-249.9352 743.9725,-252.448 765.2554,-254.5463"/>
<polygon fill="#191970" stroke="#191970" points="765.0473,-258.0427 775.3425,-255.5408 765.7342,-251.0764 765.0473,-258.0427"/>
</g>
<!-- Node8&#45;&gt;Node5 -->
<g id="edge8" class="edge">
<title>Node8&#45;&gt;Node5</title>
<path fill="none" stroke="#191970" d="M457.0214,-260.3535C540.3677,-260.1551 687.5995,-259.8045 764.8893,-259.6205"/>
<polygon fill="#191970" stroke="#191970" points="765.3255,-263.1196 775.3171,-259.5957 765.3088,-256.1196 765.3255,-263.1196"/>
</g>
<!-- Node10 -->
<g id="node10" class="node">
<title>Node10</title>
<g id="a_node10"><a xlink:href="../../d8/dd3/classG4ParticleTable.html#aba540bf07478ff0c30af3ee28d843041" target="_top" xlink:title="G4ParticleTable::WorkerG4\lParticleTable">
<polygon fill="none" stroke="#000000" points="527,-96.5 527,-128.5 678,-128.5 678,-96.5 527,-96.5"/>
<text text-anchor="start" x="535" y="-115.5" font-family="FreeSans" font-size="10.00" fill="#000000">G4ParticleTable::WorkerG4</text>
<text text-anchor="middle" x="602.5" y="-103.5" font-family="FreeSans" font-size="10.00" fill="#000000">ParticleTable</text>
</a>
</g>
</g>
<!-- Node9&#45;&gt;Node10 -->
<g id="edge10" class="edge">
<title>Node9&#45;&gt;Node10</title>
<path fill="none" stroke="#191970" d="M473.7578,-126.8047C487.7614,-125.2487 502.4215,-123.6198 516.6252,-122.0416"/>
<polygon fill="#191970" stroke="#191970" points="517.3189,-125.4862 526.8712,-120.9032 516.5459,-118.529 517.3189,-125.4862"/>
</g>
<!-- Node10&#45;&gt;Node6 -->
<g id="edge11" class="edge">
<title>Node10&#45;&gt;Node6</title>
<path fill="none" stroke="#191970" d="M670.9153,-128.6828C679.0153,-131.9575 686.9111,-135.86 694,-140.5 714.5707,-153.9645 708.9888,-169.7339 730,-182.5 733.9166,-184.8797 738.0924,-186.9762 742.4125,-188.8234"/>
<polygon fill="#191970" stroke="#191970" points="741.4647,-192.2072 752.0559,-192.4818 743.9476,-185.6623 741.4647,-192.2072"/>
</g>
<!-- Node11 -->
<g id="node11" class="node">
<title>Node11</title>
<g id="a_node11"><a xlink:href="../../d5/d38/classG4ParticleDefinition.html#af84019c7513ca66581ed8b3651934467" target="_top" xlink:title="G4ParticleDefinition\l::GetPDGEncoding">
<polygon fill="none" stroke="#000000" points="757.5,-141.5 757.5,-173.5 873.5,-173.5 873.5,-141.5 757.5,-141.5"/>
<text text-anchor="start" x="765.5" y="-160.5" font-family="FreeSans" font-size="10.00" fill="#000000">G4ParticleDefinition</text>
<text text-anchor="middle" x="815.5" y="-148.5" font-family="FreeSans" font-size="10.00" fill="#000000">::GetPDGEncoding</text>
</a>
</g>
</g>
<!-- Node10&#45;&gt;Node11 -->
<g id="edge12" class="edge">
<title>Node10&#45;&gt;Node11</title>
<path fill="none" stroke="#191970" d="M678.1956,-128.492C700.8008,-133.2678 725.4319,-138.4715 747.5111,-143.1361"/>
<polygon fill="#191970" stroke="#191970" points="746.952,-146.5952 757.4595,-145.2379 748.399,-139.7464 746.952,-146.5952"/>
</g>
<!-- Node12 -->
<g id="node12" class="node">
<title>Node12</title>
<g id="a_node12"><a xlink:href="../../d4/d96/classG4ParticleTableIterator.html#ae35fb8d216907e4b1614fd52f2d50f84" target="_top" xlink:title="G4ParticleTableIterator\l::reset">
<polygon fill="none" stroke="#000000" points="749.5,-90.5 749.5,-122.5 881.5,-122.5 881.5,-90.5 749.5,-90.5"/>
<text text-anchor="start" x="757.5" y="-109.5" font-family="FreeSans" font-size="10.00" fill="#000000">G4ParticleTableIterator</text>
<text text-anchor="middle" x="815.5" y="-97.5" font-family="FreeSans" font-size="10.00" fill="#000000">::reset</text>
</a>
</g>
</g>
<!-- Node10&#45;&gt;Node12 -->
<g id="edge13" class="edge">
<title>Node10&#45;&gt;Node12</title>
<path fill="none" stroke="#191970" d="M678.1956,-110.3677C697.9497,-109.8113 719.2509,-109.2112 739.0442,-108.6537"/>
<polygon fill="#191970" stroke="#191970" points="739.3437,-112.1467 749.2412,-108.3664 739.1466,-105.1495 739.3437,-112.1467"/>
</g>
<!-- Node13 -->
<g id="node13" class="node">
<title>Node13</title>
<g id="a_node13"><a xlink:href="../../d4/d96/classG4ParticleTableIterator.html#a7220383ce5a9ddecb53331a2ecdd90d5" target="_top" xlink:title="G4ParticleTableIterator\l::value">
<polygon fill="none" stroke="#000000" points="749.5,-39.5 749.5,-71.5 881.5,-71.5 881.5,-39.5 749.5,-39.5"/>
<text text-anchor="start" x="757.5" y="-58.5" font-family="FreeSans" font-size="10.00" fill="#000000">G4ParticleTableIterator</text>
<text text-anchor="middle" x="815.5" y="-46.5" font-family="FreeSans" font-size="10.00" fill="#000000">::value</text>
</a>
</g>
</g>
<!-- Node10&#45;&gt;Node13 -->
<g id="edge14" class="edge">
<title>Node10&#45;&gt;Node13</title>
<path fill="none" stroke="#191970" d="M662.3992,-96.4706C688.3718,-89.5202 718.9503,-81.3372 745.9228,-74.1192"/>
<polygon fill="#191970" stroke="#191970" points="746.9264,-77.4739 755.6817,-71.5077 745.1168,-70.7118 746.9264,-77.4739"/>
</g>
<!-- Node14 -->
<g id="node14" class="node">
<title>Node14</title>
<g id="a_node14"><a xlink:href="../../da/d2b/classG4IonTable.html#a66f8ee295224ed611872572a0e47ab6e" target="_top" xlink:title="G4IonTable::WorkerG4IonTable">
<polygon fill="none" stroke="#000000" points="730,-.5 730,-20.5 901,-20.5 901,-.5 730,-.5"/>
<text text-anchor="middle" x="815.5" y="-7.5" font-family="FreeSans" font-size="10.00" fill="#000000">G4IonTable::WorkerG4IonTable</text>
</a>
</g>
</g>
<!-- Node10&#45;&gt;Node14 -->
<g id="edge15" class="edge">
<title>Node10&#45;&gt;Node14</title>
<path fill="none" stroke="#191970" d="M622.4098,-96.2498C646.4653,-77.4269 688.8496,-46.7947 730,-29.5 735.478,-27.1977 741.2759,-25.1555 747.1684,-23.3478"/>
<polygon fill="#191970" stroke="#191970" points="748.4684,-26.6172 757.1344,-20.5222 746.5589,-19.8827 748.4684,-26.6172"/>
</g>
</g>
</svg>
