<?xml version="1.0" encoding="UTF-8" standalone="no"?>
<!DOCTYPE svg PUBLIC "-//W3C//DTD SVG 1.1//EN"
 "http://www.w3.org/Graphics/SVG/1.1/DTD/svg11.dtd">
<!-- Generated by graphviz version 2.40.1 (20161225.0304)
 -->
<!-- Title: G4DiffuseElasticV2::ThetaLabToThetaCMS Pages: 1 -->
<svg width="508pt" height="464pt"
 viewBox="0.00 0.00 508.00 464.00" xmlns="http://www.w3.org/2000/svg" xmlns:xlink="http://www.w3.org/1999/xlink">
<g id="graph0" class="graph" transform="scale(1 1) rotate(0) translate(4 460)">
<title>G4DiffuseElasticV2::ThetaLabToThetaCMS</title>
<!-- Node1 -->
<g id="node1" class="node">
<title>Node1</title>
<polygon fill="#bfbfbf" stroke="#000000" points="0,-193.5 0,-225.5 132,-225.5 132,-193.5 0,-193.5"/>
<text text-anchor="start" x="8" y="-212.5" font-family="FreeSans" font-size="10.00" fill="#000000">G4DiffuseElasticV2</text>
<text text-anchor="middle" x="66" y="-200.5" font-family="FreeSans" font-size="10.00" fill="#000000">::ThetaLabToThetaCMS</text>
</g>
<!-- Node2 -->
<g id="node2" class="node">
<title>Node2</title>
<g id="a_node2"><a xlink:href="../../dc/df4/classCLHEP_1_1HepLorentzVector.html#a2a6aac189de495232a7a4ef3b0945903" target="_top" xlink:title="CLHEP::HepLorentzVector\l::boost">
<polygon fill="none" stroke="#000000" points="168,-423.5 168,-455.5 314,-455.5 314,-423.5 168,-423.5"/>
<text text-anchor="start" x="176" y="-442.5" font-family="FreeSans" font-size="10.00" fill="#000000">CLHEP::HepLorentzVector</text>
<text text-anchor="middle" x="241" y="-430.5" font-family="FreeSans" font-size="10.00" fill="#000000">::boost</text>
</a>
</g>
</g>
<!-- Node1&#45;&gt;Node2 -->
<g id="edge1" class="edge">
<title>Node1&#45;&gt;Node2</title>
<path fill="none" stroke="#191970" d="M69.5697,-225.6667C78.8723,-264.0568 107.4555,-361.4492 168,-414.5 169.3508,-415.6836 170.7602,-416.8117 172.2186,-417.887"/>
<polygon fill="#191970" stroke="#191970" points="170.7185,-421.0804 181.0367,-423.4857 174.4705,-415.1709 170.7185,-421.0804"/>
</g>
<!-- Node3 -->
<g id="node3" class="node">
<title>Node3</title>
<g id="a_node3"><a xlink:href="../../dc/df4/classCLHEP_1_1HepLorentzVector.html#a4bf2074d0469443c61ccac560657d114" target="_top" xlink:title="CLHEP::HepLorentzVector\l::boostVector">
<polygon fill="none" stroke="#000000" points="168,-372.5 168,-404.5 314,-404.5 314,-372.5 168,-372.5"/>
<text text-anchor="start" x="176" y="-391.5" font-family="FreeSans" font-size="10.00" fill="#000000">CLHEP::HepLorentzVector</text>
<text text-anchor="middle" x="241" y="-379.5" font-family="FreeSans" font-size="10.00" fill="#000000">::boostVector</text>
</a>
</g>
</g>
<!-- Node1&#45;&gt;Node3 -->
<g id="edge2" class="edge">
<title>Node1&#45;&gt;Node3</title>
<path fill="none" stroke="#191970" d="M72.3879,-225.5297C85.5781,-256.6356 118.7709,-325.4606 168,-363.5 169.7656,-364.8643 171.6105,-366.1569 173.5169,-367.3813"/>
<polygon fill="#191970" stroke="#191970" points="171.7907,-370.426 182.2141,-372.3245 175.2496,-364.3403 171.7907,-370.426"/>
</g>
<!-- Node6 -->
<g id="node6" class="node">
<title>Node6</title>
<g id="a_node6"><a xlink:href="../../d7/d5c/classG4DynamicParticle.html#a6a2f12f20a7938ac1677677696d71a57" target="_top" xlink:title="G4DynamicParticle::\lGet4Momentum">
<polygon fill="none" stroke="#000000" points="182,-321.5 182,-353.5 300,-353.5 300,-321.5 182,-321.5"/>
<text text-anchor="start" x="190" y="-340.5" font-family="FreeSans" font-size="10.00" fill="#000000">G4DynamicParticle::</text>
<text text-anchor="middle" x="241" y="-328.5" font-family="FreeSans" font-size="10.00" fill="#000000">Get4Momentum</text>
</a>
</g>
</g>
<!-- Node1&#45;&gt;Node6 -->
<g id="edge5" class="edge">
<title>Node1&#45;&gt;Node6</title>
<path fill="none" stroke="#191970" d="M78.0676,-225.7308C95.5606,-248.2009 130.0488,-288.7006 168,-312.5 170.5837,-314.1203 173.2852,-315.6501 176.0631,-317.0927"/>
<polygon fill="#191970" stroke="#191970" points="174.6098,-320.2771 185.1442,-321.4072 177.6138,-313.9544 174.6098,-320.2771"/>
</g>
<!-- Node7 -->
<g id="node7" class="node">
<title>Node7</title>
<g id="a_node7"><a xlink:href="../../d7/d5c/classG4DynamicParticle.html#a3595a77a2881a6dab2a3661440930496" target="_top" xlink:title="G4DynamicParticle::\lGetDefinition">
<polygon fill="none" stroke="#000000" points="182,-270.5 182,-302.5 300,-302.5 300,-270.5 182,-270.5"/>
<text text-anchor="start" x="190" y="-289.5" font-family="FreeSans" font-size="10.00" fill="#000000">G4DynamicParticle::</text>
<text text-anchor="middle" x="241" y="-277.5" font-family="FreeSans" font-size="10.00" fill="#000000">GetDefinition</text>
</a>
</g>
</g>
<!-- Node1&#45;&gt;Node7 -->
<g id="edge6" class="edge">
<title>Node1&#45;&gt;Node7</title>
<path fill="none" stroke="#191970" d="M94.937,-225.6396C115.0761,-236.5258 142.7429,-250.8005 168,-261.5 172.3944,-263.3616 176.9794,-265.1891 181.6169,-266.9562"/>
<polygon fill="#191970" stroke="#191970" points="180.5722,-270.3015 191.1654,-270.4896 183.0016,-263.7366 180.5722,-270.3015"/>
</g>
<!-- Node8 -->
<g id="node8" class="node">
<title>Node8</title>
<g id="a_node8"><a xlink:href="../../d5/d38/classG4ParticleDefinition.html#ad823b2f7c489766de74c562e2a3909bf" target="_top" xlink:title="G4ParticleDefinition\l::GetPDGMass">
<polygon fill="none" stroke="#000000" points="183,-219.5 183,-251.5 299,-251.5 299,-219.5 183,-219.5"/>
<text text-anchor="start" x="191" y="-238.5" font-family="FreeSans" font-size="10.00" fill="#000000">G4ParticleDefinition</text>
<text text-anchor="middle" x="241" y="-226.5" font-family="FreeSans" font-size="10.00" fill="#000000">::GetPDGMass</text>
</a>
</g>
</g>
<!-- Node1&#45;&gt;Node8 -->
<g id="edge7" class="edge">
<title>Node1&#45;&gt;Node8</title>
<path fill="none" stroke="#191970" d="M132.16,-219.3295C145.4264,-221.3005 159.3898,-223.3751 172.7263,-225.3565"/>
<polygon fill="#191970" stroke="#191970" points="172.3749,-228.8426 182.7807,-226.8503 173.4037,-221.9186 172.3749,-228.8426"/>
</g>
<!-- Node9 -->
<g id="node9" class="node">
<title>Node9</title>
<g id="a_node9"><a xlink:href="../../d7/d5c/classG4DynamicParticle.html#a91ba12f47c1d066a999409b3a5076a93" target="_top" xlink:title="G4DynamicParticle::\lGetTotalMomentum">
<polygon fill="none" stroke="#000000" points="182,-168.5 182,-200.5 300,-200.5 300,-168.5 182,-168.5"/>
<text text-anchor="start" x="190" y="-187.5" font-family="FreeSans" font-size="10.00" fill="#000000">G4DynamicParticle::</text>
<text text-anchor="middle" x="241" y="-175.5" font-family="FreeSans" font-size="10.00" fill="#000000">GetTotalMomentum</text>
</a>
</g>
</g>
<!-- Node1&#45;&gt;Node9 -->
<g id="edge8" class="edge">
<title>Node1&#45;&gt;Node9</title>
<path fill="none" stroke="#191970" d="M132.16,-200.0486C145.195,-198.1864 158.9029,-196.2282 172.0279,-194.3532"/>
<polygon fill="#191970" stroke="#191970" points="172.5258,-197.8177 181.9303,-192.9385 171.5358,-190.888 172.5258,-197.8177"/>
</g>
<!-- Node10 -->
<g id="node10" class="node">
<title>Node10</title>
<g id="a_node10"><a xlink:href="../../da/dcf/classCLHEP_1_1Hep3Vector.html#a08a0f09b25bf69cc78fcd8ad328e763c" target="_top" xlink:title="CLHEP::Hep3Vector::\ltheta">
<polygon fill="none" stroke="#000000" points="181,-117.5 181,-149.5 301,-149.5 301,-117.5 181,-117.5"/>
<text text-anchor="start" x="189" y="-136.5" font-family="FreeSans" font-size="10.00" fill="#000000">CLHEP::Hep3Vector::</text>
<text text-anchor="middle" x="241" y="-124.5" font-family="FreeSans" font-size="10.00" fill="#000000">theta</text>
</a>
</g>
</g>
<!-- Node1&#45;&gt;Node10 -->
<g id="edge9" class="edge">
<title>Node1&#45;&gt;Node10</title>
<path fill="none" stroke="#191970" d="M96.3782,-193.4804C116.4433,-183.1815 143.4669,-169.8425 168,-159.5 173.1137,-157.3442 178.4748,-155.2081 183.8708,-153.1413"/>
<polygon fill="#191970" stroke="#191970" points="185.4382,-156.2917 193.5753,-149.5066 182.983,-149.7364 185.4382,-156.2917"/>
</g>
<!-- Node11 -->
<g id="node11" class="node">
<title>Node11</title>
<g id="a_node11"><a xlink:href="../../da/dcf/classCLHEP_1_1Hep3Vector.html#a86646a7299d9b55d1ee3a27b578d30ec" target="_top" xlink:title="CLHEP::Hep3Vector::x">
<polygon fill="none" stroke="#000000" points="177.5,-78.5 177.5,-98.5 304.5,-98.5 304.5,-78.5 177.5,-78.5"/>
<text text-anchor="middle" x="241" y="-85.5" font-family="FreeSans" font-size="10.00" fill="#000000">CLHEP::Hep3Vector::x</text>
</a>
</g>
</g>
<!-- Node1&#45;&gt;Node11 -->
<g id="edge10" class="edge">
<title>Node1&#45;&gt;Node11</title>
<path fill="none" stroke="#191970" d="M77.9402,-193.2656C95.2819,-170.8531 129.5914,-130.6928 168,-108.5 172.1885,-106.0799 176.6819,-103.9422 181.3059,-102.0558"/>
<polygon fill="#191970" stroke="#191970" points="182.7423,-105.257 190.9248,-98.5266 180.3312,-98.6853 182.7423,-105.257"/>
</g>
<!-- Node12 -->
<g id="node12" class="node">
<title>Node12</title>
<g id="a_node12"><a xlink:href="../../da/dcf/classCLHEP_1_1Hep3Vector.html#a86ef096e76d7db9e0ea8e10eb742a576" target="_top" xlink:title="CLHEP::Hep3Vector::y">
<polygon fill="none" stroke="#000000" points="177.5,-39.5 177.5,-59.5 304.5,-59.5 304.5,-39.5 177.5,-39.5"/>
<text text-anchor="middle" x="241" y="-46.5" font-family="FreeSans" font-size="10.00" fill="#000000">CLHEP::Hep3Vector::y</text>
</a>
</g>
</g>
<!-- Node1&#45;&gt;Node12 -->
<g id="edge11" class="edge">
<title>Node1&#45;&gt;Node12</title>
<path fill="none" stroke="#191970" d="M73.2465,-193.3183C87.2186,-164.0041 120.7335,-102.1347 168,-69.5 171.2525,-67.2543 174.7485,-65.2603 178.3858,-63.4897"/>
<polygon fill="#191970" stroke="#191970" points="179.8357,-66.6764 187.66,-59.5328 177.0887,-60.2379 179.8357,-66.6764"/>
</g>
<!-- Node13 -->
<g id="node13" class="node">
<title>Node13</title>
<g id="a_node13"><a xlink:href="../../da/dcf/classCLHEP_1_1Hep3Vector.html#a2dcfdfeae86f250117ea40f086bb231a" target="_top" xlink:title="CLHEP::Hep3Vector::z">
<polygon fill="none" stroke="#000000" points="178,-.5 178,-20.5 304,-20.5 304,-.5 178,-.5"/>
<text text-anchor="middle" x="241" y="-7.5" font-family="FreeSans" font-size="10.00" fill="#000000">CLHEP::Hep3Vector::z</text>
</a>
</g>
</g>
<!-- Node1&#45;&gt;Node13 -->
<g id="edge12" class="edge">
<title>Node1&#45;&gt;Node13</title>
<path fill="none" stroke="#191970" d="M70.4075,-193.445C80.9696,-158.0808 111.1693,-73.1473 168,-29.5 170.0448,-27.9296 172.2068,-26.4883 174.4559,-25.1657"/>
<polygon fill="#191970" stroke="#191970" points="176.1298,-28.2417 183.4991,-20.6296 172.9913,-21.9847 176.1298,-28.2417"/>
</g>
<!-- Node4 -->
<g id="node4" class="node">
<title>Node4</title>
<g id="a_node4"><a xlink:href="../../da/dcf/classCLHEP_1_1Hep3Vector.html#a7aa4cc075d04401cf3aadb8bd30f4aa2" target="_top" xlink:title="CLHEP::Hep3Vector::mag2">
<polygon fill="none" stroke="#000000" points="350,-400.5 350,-420.5 500,-420.5 500,-400.5 350,-400.5"/>
<text text-anchor="middle" x="425" y="-407.5" font-family="FreeSans" font-size="10.00" fill="#000000">CLHEP::Hep3Vector::mag2</text>
</a>
</g>
</g>
<!-- Node3&#45;&gt;Node4 -->
<g id="edge3" class="edge">
<title>Node3&#45;&gt;Node4</title>
<path fill="none" stroke="#191970" d="M314.2504,-397.2582C322.6781,-398.2659 331.325,-399.2997 339.8918,-400.324"/>
<polygon fill="#191970" stroke="#191970" points="339.5489,-403.8079 349.8937,-401.5199 340.38,-396.8574 339.5489,-403.8079"/>
</g>
<!-- Node5 -->
<g id="node5" class="node">
<title>Node5</title>
<g id="a_node5"><a xlink:href="../../dc/df4/classCLHEP_1_1HepLorentzVector.html#a3f9d79afe78a2a9c3a2cb424d64335e1" target="_top" xlink:title="CLHEP::HepLorentzVector\l::restMass2">
<polygon fill="none" stroke="#000000" points="352,-349.5 352,-381.5 498,-381.5 498,-349.5 352,-349.5"/>
<text text-anchor="start" x="360" y="-368.5" font-family="FreeSans" font-size="10.00" fill="#000000">CLHEP::HepLorentzVector</text>
<text text-anchor="middle" x="425" y="-356.5" font-family="FreeSans" font-size="10.00" fill="#000000">::restMass2</text>
</a>
</g>
</g>
<!-- Node3&#45;&gt;Node5 -->
<g id="edge4" class="edge">
<title>Node3&#45;&gt;Node5</title>
<path fill="none" stroke="#191970" d="M314.2504,-379.3437C323.2066,-378.2242 332.4104,-377.0737 341.5024,-375.9372"/>
<polygon fill="#191970" stroke="#191970" points="342.2124,-379.3758 351.7011,-374.6624 341.3441,-372.4298 342.2124,-379.3758"/>
</g>
</g>
</svg>
