<?xml version="1.0" encoding="UTF-8" standalone="no"?>
<!DOCTYPE svg PUBLIC "-//W3C//DTD SVG 1.1//EN"
 "http://www.w3.org/Graphics/SVG/1.1/DTD/svg11.dtd">
<!-- Generated by graphviz version 2.40.1 (20161225.0304)
 -->
<!-- Title: G4EtaPrime::Definition Pages: 1 -->
<svg width="1472pt" height="480pt"
 viewBox="0.00 0.00 1472.00 480.46" xmlns="http://www.w3.org/2000/svg" xmlns:xlink="http://www.w3.org/1999/xlink">
<g id="graph0" class="graph" transform="scale(1 1) rotate(0) translate(4 476.4641)">
<title>G4EtaPrime::Definition</title>
<!-- Node1 -->
<g id="node1" class="node">
<title>Node1</title>
<polygon fill="#bfbfbf" stroke="#000000" points="0,-129.5 0,-149.5 131,-149.5 131,-129.5 0,-129.5"/>
<text text-anchor="middle" x="65.5" y="-136.5" font-family="FreeSans" font-size="10.00" fill="#000000">G4EtaPrime::Definition</text>
</g>
<!-- Node2 -->
<g id="node2" class="node">
<title>Node2</title>
<g id="a_node2"><a xlink:href="../../d8/dd3/classG4ParticleTable.html#a891da3f41417c3800e7596fab298c3c5" target="_top" xlink:title="G4ParticleTable::FindParticle">
<polygon fill="none" stroke="#000000" points="970,-219.5 970,-239.5 1129,-239.5 1129,-219.5 970,-219.5"/>
<text text-anchor="middle" x="1049.5" y="-226.5" font-family="FreeSans" font-size="10.00" fill="#000000">G4ParticleTable::FindParticle</text>
</a>
</g>
</g>
<!-- Node1&#45;&gt;Node2 -->
<g id="edge1" class="edge">
<title>Node1&#45;&gt;Node2</title>
<path fill="none" stroke="#191970" d="M90.1941,-149.6492C149.7708,-173.1865 306.5656,-229.5 443,-229.5 443,-229.5 443,-229.5 648.5,-229.5 755.4871,-229.5 878.5304,-229.5 959.7986,-229.5"/>
<polygon fill="#191970" stroke="#191970" points="959.9923,-233.0001 969.9923,-229.5 959.9923,-226.0001 959.9923,-233.0001"/>
</g>
<!-- Node7 -->
<g id="node7" class="node">
<title>Node7</title>
<g id="a_node7"><a xlink:href="../../d5/d38/classG4ParticleDefinition.html#a62ed9b48da6b7fd47ba568dd9777007f" target="_top" xlink:title="G4ParticleDefinition\l::G4ParticleDefinition">
<polygon fill="none" stroke="#000000" points="790.5,-45.5 790.5,-77.5 913.5,-77.5 913.5,-45.5 790.5,-45.5"/>
<text text-anchor="start" x="798.5" y="-64.5" font-family="FreeSans" font-size="10.00" fill="#000000">G4ParticleDefinition</text>
<text text-anchor="middle" x="852" y="-52.5" font-family="FreeSans" font-size="10.00" fill="#000000">::G4ParticleDefinition</text>
</a>
</g>
</g>
<!-- Node1&#45;&gt;Node7 -->
<g id="edge6" class="edge">
<title>Node1&#45;&gt;Node7</title>
<path fill="none" stroke="#191970" d="M105.0522,-129.4508C161.1239,-115.6862 267.1342,-91.4326 359,-80.5 507.9452,-62.7746 683.8087,-60.4088 780.066,-60.6833"/>
<polygon fill="#191970" stroke="#191970" points="780.2522,-64.1839 790.2659,-60.7232 780.2797,-57.184 780.2522,-64.1839"/>
</g>
<!-- Node8 -->
<g id="node8" class="node">
<title>Node8</title>
<g id="a_node8"><a xlink:href="../../d8/dd3/classG4ParticleTable.html#a8bb5b636696da4abae3ca7ea0ea5af95" target="_top" xlink:title="G4ParticleTable::GetParticle\lTable">
<polygon fill="none" stroke="#000000" points="167,-296.5 167,-328.5 323,-328.5 323,-296.5 167,-296.5"/>
<text text-anchor="start" x="175" y="-315.5" font-family="FreeSans" font-size="10.00" fill="#000000">G4ParticleTable::GetParticle</text>
<text text-anchor="middle" x="245" y="-303.5" font-family="FreeSans" font-size="10.00" fill="#000000">Table</text>
</a>
</g>
</g>
<!-- Node1&#45;&gt;Node8 -->
<g id="edge8" class="edge">
<title>Node1&#45;&gt;Node8</title>
<path fill="none" stroke="#191970" d="M75.0582,-149.7826C92.7776,-168.7334 132.1016,-210.2705 167,-243.5 183.725,-259.4252 203.1788,-276.6367 218.4744,-289.8861"/>
<polygon fill="#191970" stroke="#191970" points="216.1989,-292.5454 226.0576,-296.4257 220.7704,-287.2444 216.1989,-292.5454"/>
</g>
<!-- Node14 -->
<g id="node14" class="node">
<title>Node14</title>
<g id="a_node14"><a xlink:href="../../db/d89/classG4DecayTable.html#a3edb3d6c42c02f3554e3121f5f079f6f" target="_top" xlink:title="G4DecayTable::Insert">
<polygon fill="none" stroke="#000000" points="182.5,-129.5 182.5,-149.5 307.5,-149.5 307.5,-129.5 182.5,-129.5"/>
<text text-anchor="middle" x="245" y="-136.5" font-family="FreeSans" font-size="10.00" fill="#000000">G4DecayTable::Insert</text>
</a>
</g>
</g>
<!-- Node1&#45;&gt;Node14 -->
<g id="edge15" class="edge">
<title>Node1&#45;&gt;Node14</title>
<path fill="none" stroke="#191970" d="M131.0656,-139.5C144.3933,-139.5 158.4899,-139.5 172.0553,-139.5"/>
<polygon fill="#191970" stroke="#191970" points="172.3038,-143.0001 182.3038,-139.5 172.3038,-136.0001 172.3038,-143.0001"/>
</g>
<!-- Node22 -->
<g id="node22" class="node">
<title>Node22</title>
<g id="a_node22"><a xlink:href="../../d5/d38/classG4ParticleDefinition.html#ad3c610e90b4ba111581b30943d66cfea" target="_top" xlink:title="G4ParticleDefinition\l::SetDecayTable">
<polygon fill="none" stroke="#000000" points="187,-.5 187,-32.5 303,-32.5 303,-.5 187,-.5"/>
<text text-anchor="start" x="195" y="-19.5" font-family="FreeSans" font-size="10.00" fill="#000000">G4ParticleDefinition</text>
<text text-anchor="middle" x="245" y="-7.5" font-family="FreeSans" font-size="10.00" fill="#000000">::SetDecayTable</text>
</a>
</g>
</g>
<!-- Node1&#45;&gt;Node22 -->
<g id="edge25" class="edge">
<title>Node1&#45;&gt;Node22</title>
<path fill="none" stroke="#191970" d="M74.3517,-129.3654C90.9225,-110.9131 128.4484,-71.5261 167,-47.5 173.2917,-43.5789 180.1631,-39.992 187.1355,-36.7613"/>
<polygon fill="#191970" stroke="#191970" points="188.9119,-39.8039 196.6608,-32.5787 186.0975,-33.3946 188.9119,-39.8039"/>
</g>
<!-- Node3 -->
<g id="node3" class="node">
<title>Node3</title>
<g id="a_node3"><a xlink:href="../../d8/dd3/classG4ParticleTable.html#a5dcd173398768b18c5ba132bbd8f427b" target="_top" xlink:title="G4ParticleTable::CheckReadiness">
<polygon fill="none" stroke="#000000" points="1165,-186.5 1165,-206.5 1348,-206.5 1348,-186.5 1165,-186.5"/>
<text text-anchor="middle" x="1256.5" y="-193.5" font-family="FreeSans" font-size="10.00" fill="#000000">G4ParticleTable::CheckReadiness</text>
</a>
</g>
</g>
<!-- Node2&#45;&gt;Node3 -->
<g id="edge2" class="edge">
<title>Node2&#45;&gt;Node3</title>
<path fill="none" stroke="#191970" d="M1112.4499,-219.4645C1134.8304,-215.8966 1160.2157,-211.8497 1183.3747,-208.1577"/>
<polygon fill="#191970" stroke="#191970" points="1184.1686,-211.5754 1193.4929,-206.5446 1183.0665,-204.6627 1184.1686,-211.5754"/>
</g>
<!-- Node5 -->
<g id="node5" class="node">
<title>Node5</title>
<g id="a_node5"><a xlink:href="../../d7/d23/namespaceG4Threading.html#a4bce96528c21592b91483fb2ab5b6215" target="_top" xlink:title="G4Threading::IsWorkerThread">
<polygon fill="none" stroke="#000000" points="1172.5,-225.5 1172.5,-245.5 1340.5,-245.5 1340.5,-225.5 1172.5,-225.5"/>
<text text-anchor="middle" x="1256.5" y="-232.5" font-family="FreeSans" font-size="10.00" fill="#000000">G4Threading::IsWorkerThread</text>
</a>
</g>
</g>
<!-- Node2&#45;&gt;Node5 -->
<g id="edge4" class="edge">
<title>Node2&#45;&gt;Node5</title>
<path fill="none" stroke="#191970" d="M1129.2355,-231.8112C1140.0481,-232.1246 1151.2266,-232.4486 1162.2634,-232.7685"/>
<polygon fill="#191970" stroke="#191970" points="1162.2476,-236.2694 1172.3448,-233.0607 1162.4505,-229.2724 1162.2476,-236.2694"/>
</g>
<!-- Node6 -->
<g id="node6" class="node">
<title>Node6</title>
<g id="a_node6"><a xlink:href="../../d8/dd3/classG4ParticleTable.html#ad3150940809a36b87123558264d30108" target="_top" xlink:title="G4ParticleTable::GetKey">
<polygon fill="none" stroke="#000000" points="1188,-357.5 1188,-377.5 1325,-377.5 1325,-357.5 1188,-357.5"/>
<text text-anchor="middle" x="1256.5" y="-364.5" font-family="FreeSans" font-size="10.00" fill="#000000">G4ParticleTable::GetKey</text>
</a>
</g>
</g>
<!-- Node2&#45;&gt;Node6 -->
<g id="edge5" class="edge">
<title>Node2&#45;&gt;Node6</title>
<path fill="none" stroke="#191970" d="M1064.7212,-239.6475C1100.4598,-263.4732 1189.9492,-323.1328 1232.8461,-351.7307"/>
<polygon fill="#191970" stroke="#191970" points="1230.9945,-354.7028 1241.2565,-357.3377 1234.8774,-348.8784 1230.9945,-354.7028"/>
</g>
<!-- Node4 -->
<g id="node4" class="node">
<title>Node4</title>
<g id="a_node4"><a xlink:href="../../d5/d4f/G4Exception_8hh.html#ad36b5da5d062a20ca47b1c1f1ae353dd" target="_top" xlink:title="G4Exception">
<polygon fill="none" stroke="#000000" points="1384,-147.5 1384,-167.5 1464,-167.5 1464,-147.5 1384,-147.5"/>
<text text-anchor="middle" x="1424" y="-154.5" font-family="FreeSans" font-size="10.00" fill="#000000">G4Exception</text>
</a>
</g>
</g>
<!-- Node3&#45;&gt;Node4 -->
<g id="edge3" class="edge">
<title>Node3&#45;&gt;Node4</title>
<path fill="none" stroke="#191970" d="M1299.6354,-186.4565C1322.3659,-181.1641 1350.363,-174.6453 1374.0342,-169.1338"/>
<polygon fill="#191970" stroke="#191970" points="1374.9405,-172.5165 1383.8862,-166.8399 1373.353,-165.6989 1374.9405,-172.5165"/>
</g>
<!-- Node7&#45;&gt;Node4 -->
<g id="edge7" class="edge">
<title>Node7&#45;&gt;Node4</title>
<path fill="none" stroke="#191970" d="M913.6624,-64.4771C970.0136,-67.81 1055.5077,-74.4062 1129,-86.5 1218.9784,-101.3068 1322.1571,-128.5532 1379.5421,-144.6456"/>
<polygon fill="#191970" stroke="#191970" points="1378.7958,-148.0716 1389.3705,-147.4185 1380.6966,-141.3346 1378.7958,-148.0716"/>
</g>
<!-- Node9 -->
<g id="node9" class="node">
<title>Node9</title>
<g id="a_node9"><a xlink:href="../../d8/dd3/classG4ParticleTable.html#aba540bf07478ff0c30af3ee28d843041" target="_top" xlink:title="G4ParticleTable::WorkerG4\lParticleTable">
<polygon fill="none" stroke="#000000" points="367.5,-334.5 367.5,-366.5 518.5,-366.5 518.5,-334.5 367.5,-334.5"/>
<text text-anchor="start" x="375.5" y="-353.5" font-family="FreeSans" font-size="10.00" fill="#000000">G4ParticleTable::WorkerG4</text>
<text text-anchor="middle" x="443" y="-341.5" font-family="FreeSans" font-size="10.00" fill="#000000">ParticleTable</text>
</a>
</g>
</g>
<!-- Node8&#45;&gt;Node9 -->
<g id="edge9" class="edge">
<title>Node8&#45;&gt;Node9</title>
<path fill="none" stroke="#191970" d="M323.2548,-327.5186C334.4578,-329.6687 346.0319,-331.89 357.3678,-334.0655"/>
<polygon fill="#191970" stroke="#191970" points="356.7725,-337.5151 367.253,-335.9627 358.0919,-330.6405 356.7725,-337.5151"/>
</g>
<!-- Node9&#45;&gt;Node6 -->
<g id="edge12" class="edge">
<title>Node9&#45;&gt;Node6</title>
<path fill="none" stroke="#191970" d="M457.3464,-366.5644C478.1037,-388.4654 518.8873,-426.6655 563,-441.5 804.8518,-522.8316 1118.458,-420.1194 1221.8031,-381.2521"/>
<polygon fill="#191970" stroke="#191970" points="1223.3176,-384.4206 1231.4173,-377.5908 1220.8264,-377.8789 1223.3176,-384.4206"/>
</g>
<!-- Node10 -->
<g id="node10" class="node">
<title>Node10</title>
<g id="a_node10"><a xlink:href="../../d4/d96/classG4ParticleTableIterator.html#ae35fb8d216907e4b1614fd52f2d50f84" target="_top" xlink:title="G4ParticleTableIterator\l::reset">
<polygon fill="none" stroke="#000000" points="582.5,-360.5 582.5,-392.5 714.5,-392.5 714.5,-360.5 582.5,-360.5"/>
<text text-anchor="start" x="590.5" y="-379.5" font-family="FreeSans" font-size="10.00" fill="#000000">G4ParticleTableIterator</text>
<text text-anchor="middle" x="648.5" y="-367.5" font-family="FreeSans" font-size="10.00" fill="#000000">::reset</text>
</a>
</g>
</g>
<!-- Node9&#45;&gt;Node10 -->
<g id="edge10" class="edge">
<title>Node9&#45;&gt;Node10</title>
<path fill="none" stroke="#191970" d="M518.6451,-360.0707C536.1522,-362.2857 554.7899,-364.6437 572.3198,-366.8616"/>
<polygon fill="#191970" stroke="#191970" points="572.1359,-370.3662 582.4962,-368.1492 573.0146,-363.4215 572.1359,-370.3662"/>
</g>
<!-- Node11 -->
<g id="node11" class="node">
<title>Node11</title>
<g id="a_node11"><a xlink:href="../../d4/d96/classG4ParticleTableIterator.html#a7220383ce5a9ddecb53331a2ecdd90d5" target="_top" xlink:title="G4ParticleTableIterator\l::value">
<polygon fill="none" stroke="#000000" points="582.5,-309.5 582.5,-341.5 714.5,-341.5 714.5,-309.5 582.5,-309.5"/>
<text text-anchor="start" x="590.5" y="-328.5" font-family="FreeSans" font-size="10.00" fill="#000000">G4ParticleTableIterator</text>
<text text-anchor="middle" x="648.5" y="-316.5" font-family="FreeSans" font-size="10.00" fill="#000000">::value</text>
</a>
</g>
</g>
<!-- Node9&#45;&gt;Node11 -->
<g id="edge11" class="edge">
<title>Node9&#45;&gt;Node11</title>
<path fill="none" stroke="#191970" d="M518.6451,-341.2974C536.1522,-339.1676 554.7899,-336.9003 572.3198,-334.7677"/>
<polygon fill="#191970" stroke="#191970" points="572.9921,-338.2118 582.4962,-333.5297 572.1467,-331.263 572.9921,-338.2118"/>
</g>
<!-- Node12 -->
<g id="node12" class="node">
<title>Node12</title>
<g id="a_node12"><a xlink:href="../../d5/d38/classG4ParticleDefinition.html#af84019c7513ca66581ed8b3651934467" target="_top" xlink:title="G4ParticleDefinition\l::GetPDGEncoding">
<polygon fill="none" stroke="#000000" points="590.5,-258.5 590.5,-290.5 706.5,-290.5 706.5,-258.5 590.5,-258.5"/>
<text text-anchor="start" x="598.5" y="-277.5" font-family="FreeSans" font-size="10.00" fill="#000000">G4ParticleDefinition</text>
<text text-anchor="middle" x="648.5" y="-265.5" font-family="FreeSans" font-size="10.00" fill="#000000">::GetPDGEncoding</text>
</a>
</g>
</g>
<!-- Node9&#45;&gt;Node12 -->
<g id="edge13" class="edge">
<title>Node9&#45;&gt;Node12</title>
<path fill="none" stroke="#191970" d="M477.751,-334.4493C501.4822,-323.8071 533.7958,-309.9348 563,-299.5 568.5979,-297.4998 574.4422,-295.5367 580.3329,-293.6446"/>
<polygon fill="#191970" stroke="#191970" points="581.7602,-296.8652 590.2548,-290.5333 579.6657,-290.1859 581.7602,-296.8652"/>
</g>
<!-- Node13 -->
<g id="node13" class="node">
<title>Node13</title>
<g id="a_node13"><a xlink:href="../../da/d2b/classG4IonTable.html#a66f8ee295224ed611872572a0e47ab6e" target="_top" xlink:title="G4IonTable::WorkerG4IonTable">
<polygon fill="none" stroke="#000000" points="563,-411.5 563,-431.5 734,-431.5 734,-411.5 563,-411.5"/>
<text text-anchor="middle" x="648.5" y="-418.5" font-family="FreeSans" font-size="10.00" fill="#000000">G4IonTable::WorkerG4IonTable</text>
</a>
</g>
</g>
<!-- Node9&#45;&gt;Node13 -->
<g id="edge14" class="edge">
<title>Node9&#45;&gt;Node13</title>
<path fill="none" stroke="#191970" d="M475.4559,-366.5704C499.2383,-377.8472 532.5488,-392.6183 563,-402.5 570.3221,-404.8761 578.0918,-407.0554 585.8459,-409.0229"/>
<polygon fill="#191970" stroke="#191970" points="585.0805,-412.4387 595.6243,-411.4007 586.7345,-405.6369 585.0805,-412.4387"/>
</g>
<!-- Node15 -->
<g id="node15" class="node">
<title>Node15</title>
<g id="a_node15"><a xlink:href="../../df/d2d/classG4VDecayChannel.html#a5d58c7fe44af8cd34c06d1887ef9e75b" target="_top" xlink:title="G4VDecayChannel::GetBR">
<polygon fill="none" stroke="#000000" points="368,-129.5 368,-149.5 518,-149.5 518,-129.5 368,-129.5"/>
<text text-anchor="middle" x="443" y="-136.5" font-family="FreeSans" font-size="10.00" fill="#000000">G4VDecayChannel::GetBR</text>
</a>
</g>
</g>
<!-- Node14&#45;&gt;Node15 -->
<g id="edge16" class="edge">
<title>Node14&#45;&gt;Node15</title>
<path fill="none" stroke="#191970" d="M307.6484,-139.5C323.5046,-139.5 340.8056,-139.5 357.5767,-139.5"/>
<polygon fill="#191970" stroke="#191970" points="357.933,-143.0001 367.933,-139.5 357.9329,-136.0001 357.933,-143.0001"/>
</g>
<!-- Node16 -->
<g id="node16" class="node">
<title>Node16</title>
<g id="a_node16"><a xlink:href="../../df/d2d/classG4VDecayChannel.html#ac39f0f3b9b175652872f0a54e7c28c12" target="_top" xlink:title="G4VDecayChannel::GetParent">
<polygon fill="none" stroke="#000000" points="359,-90.5 359,-110.5 527,-110.5 527,-90.5 359,-90.5"/>
<text text-anchor="middle" x="443" y="-97.5" font-family="FreeSans" font-size="10.00" fill="#000000">G4VDecayChannel::GetParent</text>
</a>
</g>
</g>
<!-- Node14&#45;&gt;Node16 -->
<g id="edge17" class="edge">
<title>Node14&#45;&gt;Node16</title>
<path fill="none" stroke="#191970" d="M295.9899,-129.4565C322.3187,-124.2706 354.6251,-117.9072 382.2407,-112.4677"/>
<polygon fill="#191970" stroke="#191970" points="383.0478,-115.8761 392.1829,-110.5094 381.695,-109.0081 383.0478,-115.8761"/>
</g>
<!-- Node21 -->
<g id="node21" class="node">
<title>Node21</title>
<g id="a_node21"><a xlink:href="../../d5/d38/classG4ParticleDefinition.html#a02a571907ec0c42bf356545826d9234f" target="_top" xlink:title="G4ParticleDefinition\l::GetParticleName">
<polygon fill="none" stroke="#000000" points="385,-168.5 385,-200.5 501,-200.5 501,-168.5 385,-168.5"/>
<text text-anchor="start" x="393" y="-187.5" font-family="FreeSans" font-size="10.00" fill="#000000">G4ParticleDefinition</text>
<text text-anchor="middle" x="443" y="-175.5" font-family="FreeSans" font-size="10.00" fill="#000000">::GetParticleName</text>
</a>
</g>
</g>
<!-- Node14&#45;&gt;Node21 -->
<g id="edge24" class="edge">
<title>Node14&#45;&gt;Node21</title>
<path fill="none" stroke="#191970" d="M289.4351,-149.5989C314.6272,-155.3244 346.6745,-162.6078 374.9689,-169.0384"/>
<polygon fill="#191970" stroke="#191970" points="374.2761,-172.4701 384.8031,-171.2734 375.8275,-165.6442 374.2761,-172.4701"/>
</g>
<!-- Node17 -->
<g id="node17" class="node">
<title>Node17</title>
<g id="a_node17"><a xlink:href="../../df/d2d/classG4VDecayChannel.html#a1c515b1f4f1f9e5aafe3d0e10cb5b643" target="_top" xlink:title="G4VDecayChannel::CheckAnd\lFillParent">
<polygon fill="none" stroke="#000000" points="564.5,-96.5 564.5,-128.5 732.5,-128.5 732.5,-96.5 564.5,-96.5"/>
<text text-anchor="start" x="572.5" y="-115.5" font-family="FreeSans" font-size="10.00" fill="#000000">G4VDecayChannel::CheckAnd</text>
<text text-anchor="middle" x="648.5" y="-103.5" font-family="FreeSans" font-size="10.00" fill="#000000">FillParent</text>
</a>
</g>
</g>
<!-- Node16&#45;&gt;Node17 -->
<g id="edge18" class="edge">
<title>Node16&#45;&gt;Node17</title>
<path fill="none" stroke="#191970" d="M527.1777,-105.4155C536.117,-105.9375 545.2503,-106.4708 554.2947,-106.999"/>
<polygon fill="#191970" stroke="#191970" points="554.2662,-110.5032 564.4533,-107.5922 554.6743,-103.5151 554.2662,-110.5032"/>
</g>
<!-- Node18 -->
<g id="node18" class="node">
<title>Node18</title>
<g id="a_node18"><a xlink:href="../../d7/d27/classG4TemplateAutoLock.html#a1fc2695a8c9b5527f9f3c62b32a2c172" target="_top" xlink:title="G4TemplateAutoLock\l::unlock">
<polygon fill="none" stroke="#000000" points="790,-96.5 790,-128.5 914,-128.5 914,-96.5 790,-96.5"/>
<text text-anchor="start" x="798" y="-115.5" font-family="FreeSans" font-size="10.00" fill="#000000">G4TemplateAutoLock</text>
<text text-anchor="middle" x="852" y="-103.5" font-family="FreeSans" font-size="10.00" fill="#000000">::unlock</text>
</a>
</g>
</g>
<!-- Node17&#45;&gt;Node18 -->
<g id="edge19" class="edge">
<title>Node17&#45;&gt;Node18</title>
<path fill="none" stroke="#191970" d="M732.7402,-112.5C748.2876,-112.5 764.3972,-112.5 779.5579,-112.5"/>
<polygon fill="#191970" stroke="#191970" points="779.8836,-116.0001 789.8835,-112.5 779.8835,-109.0001 779.8836,-116.0001"/>
</g>
<!-- Node19 -->
<g id="node19" class="node">
<title>Node19</title>
<g id="a_node19"><a xlink:href="../../df/d2d/classG4VDecayChannel.html#a58f654382302cd3c1c6894bd5a8c8565" target="_top" xlink:title="G4VDecayChannel::FillParent">
<polygon fill="none" stroke="#000000" points="770,-147.5 770,-167.5 934,-167.5 934,-147.5 770,-147.5"/>
<text text-anchor="middle" x="852" y="-154.5" font-family="FreeSans" font-size="10.00" fill="#000000">G4VDecayChannel::FillParent</text>
</a>
</g>
</g>
<!-- Node17&#45;&gt;Node19 -->
<g id="edge20" class="edge">
<title>Node17&#45;&gt;Node19</title>
<path fill="none" stroke="#191970" d="M721.1063,-128.5555C745.9641,-134.0523 773.3563,-140.1095 796.6298,-145.256"/>
<polygon fill="#191970" stroke="#191970" points="796.15,-148.7344 806.6699,-147.4761 797.6615,-141.8995 796.15,-148.7344"/>
</g>
<!-- Node19&#45;&gt;Node2 -->
<g id="edge22" class="edge">
<title>Node19&#45;&gt;Node2</title>
<path fill="none" stroke="#191970" d="M879.4615,-167.5113C914.0019,-180.1032 973.4578,-201.7783 1012.1201,-215.8729"/>
<polygon fill="#191970" stroke="#191970" points="1011.3601,-219.3211 1021.9541,-219.4579 1013.7577,-212.7445 1011.3601,-219.3211"/>
</g>
<!-- Node19&#45;&gt;Node4 -->
<g id="edge21" class="edge">
<title>Node19&#45;&gt;Node4</title>
<path fill="none" stroke="#191970" d="M934.258,-157.5C1054.5866,-157.5 1274.9946,-157.5 1373.7805,-157.5"/>
<polygon fill="#191970" stroke="#191970" points="1373.8017,-161.0001 1383.8016,-157.5 1373.8016,-154.0001 1373.8017,-161.0001"/>
</g>
<!-- Node20 -->
<g id="node20" class="node">
<title>Node20</title>
<g id="a_node20"><a xlink:href="../../d5/d38/classG4ParticleDefinition.html#ad823b2f7c489766de74c562e2a3909bf" target="_top" xlink:title="G4ParticleDefinition\l::GetPDGMass">
<polygon fill="none" stroke="#000000" points="991.5,-96.5 991.5,-128.5 1107.5,-128.5 1107.5,-96.5 991.5,-96.5"/>
<text text-anchor="start" x="999.5" y="-115.5" font-family="FreeSans" font-size="10.00" fill="#000000">G4ParticleDefinition</text>
<text text-anchor="middle" x="1049.5" y="-103.5" font-family="FreeSans" font-size="10.00" fill="#000000">::GetPDGMass</text>
</a>
</g>
</g>
<!-- Node19&#45;&gt;Node20 -->
<g id="edge23" class="edge">
<title>Node19&#45;&gt;Node20</title>
<path fill="none" stroke="#191970" d="M896.3229,-147.4011C921.4513,-141.6756 953.4177,-134.3922 981.6407,-127.9616"/>
<polygon fill="#191970" stroke="#191970" points="982.4775,-131.3607 991.4501,-125.7266 980.9224,-124.5356 982.4775,-131.3607"/>
</g>
</g>
</svg>
