<?xml version="1.0" encoding="UTF-8" standalone="no"?>
<!DOCTYPE svg PUBLIC "-//W3C//DTD SVG 1.1//EN"
 "http://www.w3.org/Graphics/SVG/1.1/DTD/svg11.dtd">
<!-- Generated by graphviz version 2.40.1 (20161225.0304)
 -->
<!-- Title: G4UIcmdWith3Vector::SetDefaultValue Pages: 1 -->
<svg width="362pt" height="80pt"
 viewBox="0.00 0.00 362.00 80.00" xmlns="http://www.w3.org/2000/svg" xmlns:xlink="http://www.w3.org/1999/xlink">
<g id="graph0" class="graph" transform="scale(1 1) rotate(0) translate(4 76)">
<title>G4UIcmdWith3Vector::SetDefaultValue</title>
<!-- Node1 -->
<g id="node1" class="node">
<title>Node1</title>
<polygon fill="#bfbfbf" stroke="#000000" points="0,-16.5 0,-48.5 125,-48.5 125,-16.5 0,-16.5"/>
<text text-anchor="start" x="8" y="-35.5" font-family="FreeSans" font-size="10.00" fill="#000000">G4UIcmdWith3Vector</text>
<text text-anchor="middle" x="62.5" y="-23.5" font-family="FreeSans" font-size="10.00" fill="#000000">::SetDefaultValue</text>
</g>
<!-- Node2 -->
<g id="node2" class="node">
<title>Node2</title>
<g id="a_node2"><a xlink:href="../../d5/d22/classCexmcScenePrimitivesMessenger.html#a6d9d016e500da88efaf699f319d8fbd6" target="_top" xlink:title="CexmcScenePrimitivesMessenger\l::CexmcScenePrimitivesMessenger">
<polygon fill="none" stroke="#000000" points="161,-39.5 161,-71.5 354,-71.5 354,-39.5 161,-39.5"/>
<text text-anchor="start" x="169" y="-58.5" font-family="FreeSans" font-size="10.00" fill="#000000">CexmcScenePrimitivesMessenger</text>
<text text-anchor="middle" x="257.5" y="-46.5" font-family="FreeSans" font-size="10.00" fill="#000000">::CexmcScenePrimitivesMessenger</text>
</a>
</g>
</g>
<!-- Node1&#45;&gt;Node2 -->
<g id="edge1" class="edge">
<title>Node1&#45;&gt;Node2</title>
<path fill="none" stroke="#191970" d="M135.1225,-41.0657C143.541,-42.0587 152.2246,-43.0829 160.8988,-44.106"/>
<polygon fill="#191970" stroke="#191970" points="135.345,-37.5678 125.0038,-39.8722 134.525,-44.5196 135.345,-37.5678"/>
</g>
<!-- Node3 -->
<g id="node3" class="node">
<title>Node3</title>
<g id="a_node3"><a xlink:href="../../d9/d5c/classG4RTMessenger.html#a7c591e96c5565ce1799a0caa3f791de4" target="_top" xlink:title="G4RTMessenger::G4RTMessenger">
<polygon fill="none" stroke="#000000" points="164,-.5 164,-20.5 351,-20.5 351,-.5 164,-.5"/>
<text text-anchor="middle" x="257.5" y="-7.5" font-family="FreeSans" font-size="10.00" fill="#000000">G4RTMessenger::G4RTMessenger</text>
</a>
</g>
</g>
<!-- Node1&#45;&gt;Node3 -->
<g id="edge2" class="edge">
<title>Node1&#45;&gt;Node3</title>
<path fill="none" stroke="#191970" d="M134.9582,-24.3252C145.9562,-23.0844 157.4101,-21.7922 168.7069,-20.5177"/>
<polygon fill="#191970" stroke="#191970" points="134.5484,-20.8492 125.0038,-25.4483 135.3332,-27.805 134.5484,-20.8492"/>
</g>
</g>
</svg>
