<?xml version="1.0" encoding="UTF-8" standalone="no"?>
<!DOCTYPE svg PUBLIC "-//W3C//DTD SVG 1.1//EN"
 "http://www.w3.org/Graphics/SVG/1.1/DTD/svg11.dtd">
<!-- Generated by graphviz version 2.40.1 (20161225.0304)
 -->
<!-- Title: G4ImportanceAlgorithm::Calculate Pages: 1 -->
<svg width="436pt" height="92pt"
 viewBox="0.00 0.00 436.00 92.00" xmlns="http://www.w3.org/2000/svg" xmlns:xlink="http://www.w3.org/1999/xlink">
<g id="graph0" class="graph" transform="scale(1 1) rotate(0) translate(4 88)">
<title>G4ImportanceAlgorithm::Calculate</title>
<!-- Node1 -->
<g id="node1" class="node">
<title>Node1</title>
<polygon fill="#bfbfbf" stroke="#000000" points="0,-25.5 0,-57.5 138,-57.5 138,-25.5 0,-25.5"/>
<text text-anchor="start" x="8" y="-44.5" font-family="FreeSans" font-size="10.00" fill="#000000">G4ImportanceAlgorithm</text>
<text text-anchor="middle" x="69" y="-32.5" font-family="FreeSans" font-size="10.00" fill="#000000">::Calculate</text>
</g>
<!-- Node2 -->
<g id="node2" class="node">
<title>Node2</title>
<g id="a_node2"><a xlink:href="../../df/ddc/classG4ImportanceAlgorithm.html#a9400b5f8c9fbcb1003d5058de577c1d3" target="_top" xlink:title="G4ImportanceAlgorithm\l::Error">
<polygon fill="none" stroke="#000000" points="174,-51.5 174,-83.5 312,-83.5 312,-51.5 174,-51.5"/>
<text text-anchor="start" x="182" y="-70.5" font-family="FreeSans" font-size="10.00" fill="#000000">G4ImportanceAlgorithm</text>
<text text-anchor="middle" x="243" y="-58.5" font-family="FreeSans" font-size="10.00" fill="#000000">::Error</text>
</a>
</g>
</g>
<!-- Node1&#45;&gt;Node2 -->
<g id="edge1" class="edge">
<title>Node1&#45;&gt;Node2</title>
<path fill="none" stroke="#191970" d="M138.0193,-51.8132C146.4757,-53.0768 155.1691,-54.3758 163.7607,-55.6596"/>
<polygon fill="#191970" stroke="#191970" points="163.372,-59.1403 173.7795,-57.1567 164.4066,-52.2172 163.372,-59.1403"/>
</g>
<!-- Node4 -->
<g id="node4" class="node">
<title>Node4</title>
<g id="a_node4"><a xlink:href="../../df/ddc/classG4ImportanceAlgorithm.html#ac9d99176c5733d14bd5ce4390b4983d4" target="_top" xlink:title="G4ImportanceAlgorithm\l::Warning">
<polygon fill="none" stroke="#000000" points="174,-.5 174,-32.5 312,-32.5 312,-.5 174,-.5"/>
<text text-anchor="start" x="182" y="-19.5" font-family="FreeSans" font-size="10.00" fill="#000000">G4ImportanceAlgorithm</text>
<text text-anchor="middle" x="243" y="-7.5" font-family="FreeSans" font-size="10.00" fill="#000000">::Warning</text>
</a>
</g>
</g>
<!-- Node1&#45;&gt;Node4 -->
<g id="edge3" class="edge">
<title>Node1&#45;&gt;Node4</title>
<path fill="none" stroke="#191970" d="M138.0193,-31.5834C146.4757,-30.3684 155.1691,-29.1194 163.7607,-27.885"/>
<polygon fill="#191970" stroke="#191970" points="164.3789,-31.3322 173.7795,-26.4455 163.3833,-24.4033 164.3789,-31.3322"/>
</g>
<!-- Node3 -->
<g id="node3" class="node">
<title>Node3</title>
<g id="a_node3"><a xlink:href="../../d5/d4f/G4Exception_8hh.html#ad36b5da5d062a20ca47b1c1f1ae353dd" target="_top" xlink:title="G4Exception">
<polygon fill="none" stroke="#000000" points="348,-31.5 348,-51.5 428,-51.5 428,-31.5 348,-31.5"/>
<text text-anchor="middle" x="388" y="-38.5" font-family="FreeSans" font-size="10.00" fill="#000000">G4Exception</text>
</a>
</g>
</g>
<!-- Node2&#45;&gt;Node3 -->
<g id="edge2" class="edge">
<title>Node2&#45;&gt;Node3</title>
<path fill="none" stroke="#191970" d="M312.1027,-55.1092C320.8147,-53.547 329.5922,-51.9731 337.9307,-50.4779"/>
<polygon fill="#191970" stroke="#191970" points="338.6248,-53.9094 347.8501,-48.6993 337.3893,-47.0193 338.6248,-53.9094"/>
</g>
<!-- Node4&#45;&gt;Node3 -->
<g id="edge4" class="edge">
<title>Node4&#45;&gt;Node3</title>
<path fill="none" stroke="#191970" d="M312.1027,-28.4143C320.8147,-29.9163 329.5922,-31.4297 337.9307,-32.8674"/>
<polygon fill="#191970" stroke="#191970" points="337.4008,-36.3276 347.8501,-34.5776 338.5902,-29.4293 337.4008,-36.3276"/>
</g>
</g>
</svg>
