<?xml version="1.0" encoding="UTF-8" standalone="no"?>
<!DOCTYPE svg PUBLIC "-//W3C//DTD SVG 1.1//EN"
 "http://www.w3.org/Graphics/SVG/1.1/DTD/svg11.dtd">
<!-- Generated by graphviz version 2.40.1 (20161225.0304)
 -->
<!-- Title: G4PersistencyCenter::SetHepMCObjyReaderFile Pages: 1 -->
<svg width="570pt" height="92pt"
 viewBox="0.00 0.00 570.00 92.00" xmlns="http://www.w3.org/2000/svg" xmlns:xlink="http://www.w3.org/1999/xlink">
<g id="graph0" class="graph" transform="scale(1 1) rotate(0) translate(4 88)">
<title>G4PersistencyCenter::SetHepMCObjyReaderFile</title>
<!-- Node1 -->
<g id="node1" class="node">
<title>Node1</title>
<polygon fill="#bfbfbf" stroke="#000000" points="0,-25.5 0,-57.5 151,-57.5 151,-25.5 0,-25.5"/>
<text text-anchor="start" x="8" y="-44.5" font-family="FreeSans" font-size="10.00" fill="#000000">G4PersistencyCenter</text>
<text text-anchor="middle" x="75.5" y="-32.5" font-family="FreeSans" font-size="10.00" fill="#000000">::SetHepMCObjyReaderFile</text>
</g>
<!-- Node2 -->
<g id="node2" class="node">
<title>Node2</title>
<g id="a_node2"><a xlink:href="../../d5/d22/classG4PersistencyCenter.html#a576f69d5438974a830ee6cefc78695f1" target="_top" xlink:title="G4PersistencyCenter\l::SetReadFile">
<polygon fill="none" stroke="#000000" points="187,-51.5 187,-83.5 309,-83.5 309,-51.5 187,-51.5"/>
<text text-anchor="start" x="195" y="-70.5" font-family="FreeSans" font-size="10.00" fill="#000000">G4PersistencyCenter</text>
<text text-anchor="middle" x="248" y="-58.5" font-family="FreeSans" font-size="10.00" fill="#000000">::SetReadFile</text>
</a>
</g>
</g>
<!-- Node1&#45;&gt;Node2 -->
<g id="edge1" class="edge">
<title>Node1&#45;&gt;Node2</title>
<path fill="none" stroke="#191970" d="M151.161,-52.904C159.7495,-54.1985 168.4803,-55.5144 177.0056,-56.7994"/>
<polygon fill="#191970" stroke="#191970" points="176.4885,-60.2609 186.8985,-58.2905 177.5318,-53.3391 176.4885,-60.2609"/>
</g>
<!-- Node5 -->
<g id="node5" class="node">
<title>Node5</title>
<g id="a_node5"><a xlink:href="../../d5/d22/classG4PersistencyCenter.html#a7889fea762ded5a18eadb18ab90d1ab8" target="_top" xlink:title="G4PersistencyCenter\l::SetRetrieveMode">
<polygon fill="none" stroke="#000000" points="187,-.5 187,-32.5 309,-32.5 309,-.5 187,-.5"/>
<text text-anchor="start" x="195" y="-19.5" font-family="FreeSans" font-size="10.00" fill="#000000">G4PersistencyCenter</text>
<text text-anchor="middle" x="248" y="-7.5" font-family="FreeSans" font-size="10.00" fill="#000000">::SetRetrieveMode</text>
</a>
</g>
</g>
<!-- Node1&#45;&gt;Node5 -->
<g id="edge4" class="edge">
<title>Node1&#45;&gt;Node5</title>
<path fill="none" stroke="#191970" d="M151.161,-30.5346C159.6562,-29.3035 168.2905,-28.0521 176.7275,-26.8293"/>
<polygon fill="#191970" stroke="#191970" points="177.5039,-30.2535 186.8985,-25.3553 176.4998,-23.3259 177.5039,-30.2535"/>
</g>
<!-- Node3 -->
<g id="node3" class="node">
<title>Node3</title>
<g id="a_node3"><a xlink:href="../../d5/d78/classG4FileUtilities.html#ad20d77ae7efdf9abe5a3aef62c467af3" target="_top" xlink:title="G4FileUtilities::FileExists">
<polygon fill="none" stroke="#000000" points="345,-57.5 345,-77.5 484,-77.5 484,-57.5 345,-57.5"/>
<text text-anchor="middle" x="414.5" y="-64.5" font-family="FreeSans" font-size="10.00" fill="#000000">G4FileUtilities::FileExists</text>
</a>
</g>
</g>
<!-- Node2&#45;&gt;Node3 -->
<g id="edge2" class="edge">
<title>Node2&#45;&gt;Node3</title>
<path fill="none" stroke="#191970" d="M309.053,-67.5C317.3915,-67.5 326.0504,-67.5 334.6607,-67.5"/>
<polygon fill="#191970" stroke="#191970" points="334.7239,-71.0001 344.7238,-67.5 334.7238,-64.0001 334.7239,-71.0001"/>
</g>
<!-- Node4 -->
<g id="node4" class="node">
<title>Node4</title>
<g id="a_node4"><a xlink:href="../../d8/deb/comparison__ascii_8C.html#af0142003ab45f38c281006149c483d2a" target="_top" xlink:title="close">
<polygon fill="none" stroke="#000000" points="520,-57.5 520,-77.5 562,-77.5 562,-57.5 520,-57.5"/>
<text text-anchor="middle" x="541" y="-64.5" font-family="FreeSans" font-size="10.00" fill="#000000">close</text>
</a>
</g>
</g>
<!-- Node3&#45;&gt;Node4 -->
<g id="edge3" class="edge">
<title>Node3&#45;&gt;Node4</title>
<path fill="none" stroke="#191970" d="M484.041,-67.5C493.0403,-67.5 501.868,-67.5 509.7857,-67.5"/>
<polygon fill="#191970" stroke="#191970" points="509.9491,-71.0001 519.9491,-67.5 509.9491,-64.0001 509.9491,-71.0001"/>
</g>
</g>
</svg>
