<?xml version="1.0" encoding="UTF-8" standalone="no"?>
<!DOCTYPE svg PUBLIC "-//W3C//DTD SVG 1.1//EN"
 "http://www.w3.org/Graphics/SVG/1.1/DTD/svg11.dtd">
<!-- Generated by graphviz version 2.40.1 (20161225.0304)
 -->
<!-- Title: G4EquationOfMotion Pages: 1 -->
<svg width="630pt" height="302pt"
 viewBox="0.00 0.00 630.00 302.00" xmlns="http://www.w3.org/2000/svg" xmlns:xlink="http://www.w3.org/1999/xlink">
<g id="graph0" class="graph" transform="scale(1 1) rotate(0) translate(4 298)">
<title>G4EquationOfMotion</title>
<!-- Node1 -->
<g id="node1" class="node">
<title>Node1</title>
<polygon fill="#bfbfbf" stroke="#000000" points="0,-136.5 0,-156.5 121,-156.5 121,-136.5 0,-136.5"/>
<text text-anchor="middle" x="60.5" y="-143.5" font-family="FreeSans" font-size="10.00" fill="#000000">G4EquationOfMotion</text>
</g>
<!-- Node2 -->
<g id="node2" class="node">
<title>Node2</title>
<g id="a_node2"><a xlink:href="../../dc/db8/classG4EqEMFieldWithEDM.html" target="_top" xlink:title="G4EqEMFieldWithEDM">
<polygon fill="none" stroke="#000000" points="157,-273.5 157,-293.5 285,-293.5 285,-273.5 157,-273.5"/>
<text text-anchor="middle" x="221" y="-280.5" font-family="FreeSans" font-size="10.00" fill="#000000">G4EqEMFieldWithEDM</text>
</a>
</g>
</g>
<!-- Node1&#45;&gt;Node2 -->
<g id="edge1" class="edge">
<title>Node1&#45;&gt;Node2</title>
<path fill="none" stroke="#191970" d="M71.1644,-165.7122C86.676,-191.8994 117.922,-238.5078 157,-264.5 162.4043,-268.0946 168.5068,-271.0258 174.7433,-273.4117"/>
<polygon fill="#191970" stroke="#191970" points="74.0318,-163.678 66.0063,-156.7611 67.9667,-167.173 74.0318,-163.678"/>
</g>
<!-- Node3 -->
<g id="node3" class="node">
<title>Node3</title>
<g id="a_node3"><a xlink:href="../../de/dd6/classG4EqEMFieldWithSpin.html" target="_top" xlink:title="G4EqEMFieldWithSpin">
<polygon fill="none" stroke="#000000" points="157.5,-234.5 157.5,-254.5 284.5,-254.5 284.5,-234.5 157.5,-234.5"/>
<text text-anchor="middle" x="221" y="-241.5" font-family="FreeSans" font-size="10.00" fill="#000000">G4EqEMFieldWithSpin</text>
</a>
</g>
</g>
<!-- Node1&#45;&gt;Node3 -->
<g id="edge2" class="edge">
<title>Node1&#45;&gt;Node3</title>
<path fill="none" stroke="#191970" d="M77.6787,-164.2213C95.8602,-182.0397 126.1418,-209.1475 157,-225.5 163.6568,-229.0276 171.0592,-231.9888 178.3994,-234.4437"/>
<polygon fill="#191970" stroke="#191970" points="79.7638,-161.3566 70.2179,-156.7601 74.8139,-166.3062 79.7638,-161.3566"/>
</g>
<!-- Node4 -->
<g id="node4" class="node">
<title>Node4</title>
<g id="a_node4"><a xlink:href="../../d1/d33/classG4EqGravityField.html" target="_top" xlink:title="G4EqGravityField">
<polygon fill="none" stroke="#000000" points="169,-195.5 169,-215.5 273,-215.5 273,-195.5 169,-195.5"/>
<text text-anchor="middle" x="221" y="-202.5" font-family="FreeSans" font-size="10.00" fill="#000000">G4EqGravityField</text>
</a>
</g>
</g>
<!-- Node1&#45;&gt;Node4 -->
<g id="edge3" class="edge">
<title>Node1&#45;&gt;Node4</title>
<path fill="none" stroke="#191970" d="M92.085,-160.5707C110.7752,-168.6501 135.021,-178.7062 157,-186.5 165.8484,-189.6377 175.5046,-192.6919 184.5717,-195.4014"/>
<polygon fill="#191970" stroke="#191970" points="93.4245,-157.3366 82.8591,-156.5483 90.6269,-163.7533 93.4245,-157.3366"/>
</g>
<!-- Node5 -->
<g id="node5" class="node">
<title>Node5</title>
<g id="a_node5"><a xlink:href="../../d0/d6f/classG4EqMagElectricField.html" target="_top" xlink:title="G4EqMagElectricField">
<polygon fill="none" stroke="#000000" points="158.5,-156.5 158.5,-176.5 283.5,-176.5 283.5,-156.5 158.5,-156.5"/>
<text text-anchor="middle" x="221" y="-163.5" font-family="FreeSans" font-size="10.00" fill="#000000">G4EqMagElectricField</text>
</a>
</g>
</g>
<!-- Node1&#45;&gt;Node5 -->
<g id="edge4" class="edge">
<title>Node1&#45;&gt;Node5</title>
<path fill="none" stroke="#191970" d="M131.273,-155.3191C140.2971,-156.4436 149.4833,-157.5883 158.3666,-158.6952"/>
<polygon fill="#191970" stroke="#191970" points="131.5342,-151.8246 121.1782,-154.0611 130.6686,-158.7709 131.5342,-151.8246"/>
</g>
<!-- Node6 -->
<g id="node6" class="node">
<title>Node6</title>
<g id="a_node6"><a xlink:href="../../db/d59/classG4Mag__EqRhs.html" target="_top" xlink:title="G4Mag_EqRhs">
<polygon fill="none" stroke="#000000" points="176.5,-117.5 176.5,-137.5 265.5,-137.5 265.5,-117.5 176.5,-117.5"/>
<text text-anchor="middle" x="221" y="-124.5" font-family="FreeSans" font-size="10.00" fill="#000000">G4Mag_EqRhs</text>
</a>
</g>
</g>
<!-- Node1&#45;&gt;Node6 -->
<g id="edge5" class="edge">
<title>Node1&#45;&gt;Node6</title>
<path fill="none" stroke="#191970" d="M131.1519,-138.1362C146.4693,-136.3229 162.26,-134.4536 176.2485,-132.7977"/>
<polygon fill="#191970" stroke="#191970" points="130.6973,-134.6655 121.1782,-139.3169 131.5203,-141.617 130.6973,-134.6655"/>
</g>
<!-- Node13 -->
<g id="node13" class="node">
<title>Node13</title>
<g id="a_node13"><a xlink:href="../../d8/d77/classG4MonopoleEq.html" target="_top" xlink:title="G4MonopoleEq">
<polygon fill="none" stroke="#000000" points="175,-78.5 175,-98.5 267,-98.5 267,-78.5 175,-78.5"/>
<text text-anchor="middle" x="221" y="-85.5" font-family="FreeSans" font-size="10.00" fill="#000000">G4MonopoleEq</text>
</a>
</g>
</g>
<!-- Node1&#45;&gt;Node13 -->
<g id="edge12" class="edge">
<title>Node1&#45;&gt;Node13</title>
<path fill="none" stroke="#191970" d="M93.9468,-132.641C112.4175,-125.1618 135.841,-115.9612 157,-108.5 166.7708,-105.0546 177.4832,-101.5875 187.3016,-98.5303"/>
<polygon fill="#191970" stroke="#191970" points="92.4496,-129.4716 84.5098,-136.4866 95.0912,-135.954 92.4496,-129.4716"/>
</g>
<!-- Node14 -->
<g id="node14" class="node">
<title>Node14</title>
<g id="a_node14"><a xlink:href="../../de/d74/classG4MonopoleEquation.html" target="_top" xlink:title="G4MonopoleEquation">
<polygon fill="none" stroke="#000000" points="158.5,-39.5 158.5,-59.5 283.5,-59.5 283.5,-39.5 158.5,-39.5"/>
<text text-anchor="middle" x="221" y="-46.5" font-family="FreeSans" font-size="10.00" fill="#000000">G4MonopoleEquation</text>
</a>
</g>
</g>
<!-- Node1&#45;&gt;Node14 -->
<g id="edge13" class="edge">
<title>Node1&#45;&gt;Node14</title>
<path fill="none" stroke="#191970" d="M78.1083,-129.0613C96.4274,-111.7813 126.6313,-85.6274 157,-69.5 164.4025,-65.5689 172.7035,-62.267 180.8122,-59.5514"/>
<polygon fill="#191970" stroke="#191970" points="75.3532,-126.8548 70.5698,-136.3084 80.2045,-131.9011 75.3532,-126.8548"/>
</g>
<!-- Node15 -->
<g id="node15" class="node">
<title>Node15</title>
<g id="a_node15"><a xlink:href="../../dd/d4f/classG4RepleteEofM.html" target="_top" xlink:title="G4RepleteEofM">
<polygon fill="none" stroke="#000000" points="174.5,-.5 174.5,-20.5 267.5,-20.5 267.5,-.5 174.5,-.5"/>
<text text-anchor="middle" x="221" y="-7.5" font-family="FreeSans" font-size="10.00" fill="#000000">G4RepleteEofM</text>
</a>
</g>
</g>
<!-- Node1&#45;&gt;Node15 -->
<g id="edge14" class="edge">
<title>Node1&#45;&gt;Node15</title>
<path fill="none" stroke="#191970" d="M71.2052,-127.4527C86.7646,-101.4898 118.0662,-55.2792 157,-29.5 162.4118,-25.9167 168.5185,-22.9919 174.757,-20.6089"/>
<polygon fill="#191970" stroke="#191970" points="68.0442,-125.9255 66.0296,-136.327 74.091,-129.452 68.0442,-125.9255"/>
</g>
<!-- Node7 -->
<g id="node7" class="node">
<title>Node7</title>
<g id="a_node7"><a xlink:href="../../df/dc1/classG4BlineEquation.html" target="_top" xlink:title="G4BlineEquation">
<polygon fill="none" stroke="#000000" points="332.5,-195.5 332.5,-215.5 433.5,-215.5 433.5,-195.5 332.5,-195.5"/>
<text text-anchor="middle" x="383" y="-202.5" font-family="FreeSans" font-size="10.00" fill="#000000">G4BlineEquation</text>
</a>
</g>
</g>
<!-- Node6&#45;&gt;Node7 -->
<g id="edge6" class="edge">
<title>Node6&#45;&gt;Node7</title>
<path fill="none" stroke="#191970" d="M273.5283,-141.3763C277.5284,-143.1906 281.4032,-145.2243 285,-147.5 304.934,-160.1126 301.0312,-173.9424 321,-186.5 326.7181,-190.0959 333.1616,-193.0499 339.6764,-195.4654"/>
<polygon fill="#191970" stroke="#191970" points="274.6216,-138.0429 264.0391,-137.5304 271.9922,-144.5304 274.6216,-138.0429"/>
</g>
<!-- Node8 -->
<g id="node8" class="node">
<title>Node8</title>
<g id="a_node8"><a xlink:href="../../dc/d81/classG4KM__NucleonEqRhs.html" target="_top" xlink:title="G4KM_NucleonEqRhs">
<polygon fill="none" stroke="#000000" points="321,-156.5 321,-176.5 445,-176.5 445,-156.5 321,-156.5"/>
<text text-anchor="middle" x="383" y="-163.5" font-family="FreeSans" font-size="10.00" fill="#000000">G4KM_NucleonEqRhs</text>
</a>
</g>
</g>
<!-- Node6&#45;&gt;Node8 -->
<g id="edge7" class="edge">
<title>Node6&#45;&gt;Node8</title>
<path fill="none" stroke="#191970" d="M272.6535,-139.9351C294.8596,-145.281 320.4684,-151.4461 341.4223,-156.4906"/>
<polygon fill="#191970" stroke="#191970" points="273.2605,-136.4813 262.719,-137.5435 271.622,-143.2869 273.2605,-136.4813"/>
</g>
<!-- Node9 -->
<g id="node9" class="node">
<title>Node9</title>
<g id="a_node9"><a xlink:href="../../d2/dcb/classG4KM__OpticalEqRhs.html" target="_top" xlink:title="G4KM_OpticalEqRhs">
<polygon fill="none" stroke="#000000" points="324,-117.5 324,-137.5 442,-137.5 442,-117.5 324,-117.5"/>
<text text-anchor="middle" x="383" y="-124.5" font-family="FreeSans" font-size="10.00" fill="#000000">G4KM_OpticalEqRhs</text>
</a>
</g>
</g>
<!-- Node6&#45;&gt;Node9 -->
<g id="edge8" class="edge">
<title>Node6&#45;&gt;Node9</title>
<path fill="none" stroke="#191970" d="M276.0966,-127.5C291.487,-127.5 308.2718,-127.5 323.884,-127.5"/>
<polygon fill="#191970" stroke="#191970" points="275.6961,-124.0001 265.696,-127.5 275.696,-131.0001 275.6961,-124.0001"/>
</g>
<!-- Node10 -->
<g id="node10" class="node">
<title>Node10</title>
<g id="a_node10"><a xlink:href="../../dd/d32/classG4Mag__SpinEqRhs.html" target="_top" xlink:title="G4Mag_SpinEqRhs">
<polygon fill="none" stroke="#000000" points="327.5,-78.5 327.5,-98.5 438.5,-98.5 438.5,-78.5 327.5,-78.5"/>
<text text-anchor="middle" x="383" y="-85.5" font-family="FreeSans" font-size="10.00" fill="#000000">G4Mag_SpinEqRhs</text>
</a>
</g>
</g>
<!-- Node6&#45;&gt;Node10 -->
<g id="edge9" class="edge">
<title>Node6&#45;&gt;Node10</title>
<path fill="none" stroke="#191970" d="M272.6535,-115.0649C294.8596,-109.719 320.4684,-103.5539 341.4223,-98.5094"/>
<polygon fill="#191970" stroke="#191970" points="271.622,-111.7131 262.719,-117.4565 273.2605,-118.5187 271.622,-111.7131"/>
</g>
<!-- Node11 -->
<g id="node11" class="node">
<title>Node11</title>
<g id="a_node11"><a xlink:href="../../d7/d85/classG4Mag__UsualEqRhs.html" target="_top" xlink:title="G4Mag_UsualEqRhs">
<polygon fill="none" stroke="#000000" points="324.5,-39.5 324.5,-59.5 441.5,-59.5 441.5,-39.5 324.5,-39.5"/>
<text text-anchor="middle" x="383" y="-46.5" font-family="FreeSans" font-size="10.00" fill="#000000">G4Mag_UsualEqRhs</text>
</a>
</g>
</g>
<!-- Node6&#45;&gt;Node11 -->
<g id="edge10" class="edge">
<title>Node6&#45;&gt;Node11</title>
<path fill="none" stroke="#191970" d="M275.0593,-113.8011C278.5167,-112.2142 281.864,-110.453 285,-108.5 305.0237,-96.0302 301.1239,-82.2038 321,-69.5 327.2897,-65.48 334.4572,-62.2034 341.6319,-59.5542"/>
<polygon fill="#191970" stroke="#191970" points="273.6601,-110.5918 265.7201,-117.6066 276.3016,-117.0743 273.6601,-110.5918"/>
</g>
<!-- Node12 -->
<g id="node12" class="node">
<title>Node12</title>
<g id="a_node12"><a xlink:href="../../da/d48/classG4ErrorMag__UsualEqRhs.html" target="_top" xlink:title="G4ErrorMag_UsualEqRhs">
<polygon fill="none" stroke="#000000" points="481,-39.5 481,-59.5 622,-59.5 622,-39.5 481,-39.5"/>
<text text-anchor="middle" x="551.5" y="-46.5" font-family="FreeSans" font-size="10.00" fill="#000000">G4ErrorMag_UsualEqRhs</text>
</a>
</g>
</g>
<!-- Node11&#45;&gt;Node12 -->
<g id="edge11" class="edge">
<title>Node11&#45;&gt;Node12</title>
<path fill="none" stroke="#191970" d="M452.0665,-49.5C461.5222,-49.5 471.2418,-49.5 480.7275,-49.5"/>
<polygon fill="#191970" stroke="#191970" points="451.9332,-46.0001 441.9331,-49.5 451.9331,-53.0001 451.9332,-46.0001"/>
</g>
</g>
</svg>
