<?xml version="1.0" encoding="UTF-8" standalone="no"?>
<!DOCTYPE svg PUBLIC "-//W3C//DTD SVG 1.1//EN"
 "http://www.w3.org/Graphics/SVG/1.1/DTD/svg11.dtd">
<!-- Generated by graphviz version 2.40.1 (20161225.0304)
 -->
<!-- Title: CLHEP::HepBoostY::isNear Pages: 1 -->
<svg width="341pt" height="80pt"
 viewBox="0.00 0.00 341.00 80.00" xmlns="http://www.w3.org/2000/svg" xmlns:xlink="http://www.w3.org/1999/xlink">
<g id="graph0" class="graph" transform="scale(1 1) rotate(0) translate(4 76)">
<title>CLHEP::HepBoostY::isNear</title>
<!-- Node1 -->
<g id="node1" class="node">
<title>Node1</title>
<polygon fill="#bfbfbf" stroke="#000000" points="0,-28.5 0,-48.5 149,-48.5 149,-28.5 0,-28.5"/>
<text text-anchor="middle" x="74.5" y="-35.5" font-family="FreeSans" font-size="10.00" fill="#000000">CLHEP::HepBoostY::isNear</text>
</g>
<!-- Node2 -->
<g id="node2" class="node">
<title>Node2</title>
<g id="a_node2"><a xlink:href="../../da/d3d/classCLHEP_1_1HepBoostY.html#ab52ddb5453d893b07ac3bd59559c5bf9" target="_top" xlink:title="CLHEP::HepBoostY::norm2">
<polygon fill="none" stroke="#000000" points="185,-51.5 185,-71.5 333,-71.5 333,-51.5 185,-51.5"/>
<text text-anchor="middle" x="259" y="-58.5" font-family="FreeSans" font-size="10.00" fill="#000000">CLHEP::HepBoostY::norm2</text>
</a>
</g>
</g>
<!-- Node1&#45;&gt;Node2 -->
<g id="edge1" class="edge">
<title>Node1&#45;&gt;Node2</title>
<path fill="none" stroke="#191970" d="M149.0114,-47.7887C157.4936,-48.8461 166.1837,-49.9294 174.78,-51.001"/>
<polygon fill="#191970" stroke="#191970" points="174.4541,-54.4874 184.8103,-52.2514 175.3201,-47.5412 174.4541,-54.4874"/>
</g>
<!-- Node3 -->
<g id="node3" class="node">
<title>Node3</title>
<g id="a_node3"><a xlink:href="../../dd/d65/classCLHEP_1_1HepRotation.html#adbff84d877621336970bdc2502e0ea84" target="_top" xlink:title="CLHEP::HepRotation\l::norm2">
<polygon fill="none" stroke="#000000" points="200,-.5 200,-32.5 318,-32.5 318,-.5 200,-.5"/>
<text text-anchor="start" x="208" y="-19.5" font-family="FreeSans" font-size="10.00" fill="#000000">CLHEP::HepRotation</text>
<text text-anchor="middle" x="259" y="-7.5" font-family="FreeSans" font-size="10.00" fill="#000000">::norm2</text>
</a>
</g>
</g>
<!-- Node1&#45;&gt;Node3 -->
<g id="edge2" class="edge">
<title>Node1&#45;&gt;Node3</title>
<path fill="none" stroke="#191970" d="M149.0114,-29.6152C162.48,-28.0092 176.4729,-26.3406 189.7825,-24.7536"/>
<polygon fill="#191970" stroke="#191970" points="190.2919,-28.2177 199.8071,-23.5582 189.463,-21.267 190.2919,-28.2177"/>
</g>
</g>
</svg>
