<?xml version="1.0" encoding="UTF-8" standalone="no"?>
<!DOCTYPE svg PUBLIC "-//W3C//DTD SVG 1.1//EN"
 "http://www.w3.org/Graphics/SVG/1.1/DTD/svg11.dtd">
<!-- Generated by graphviz version 2.40.1 (20161225.0304)
 -->
<!-- Title: PhysicsList::SetCutForGamma Pages: 1 -->
<svg width="1111pt" height="285pt"
 viewBox="0.00 0.00 1111.00 285.00" xmlns="http://www.w3.org/2000/svg" xmlns:xlink="http://www.w3.org/1999/xlink">
<g id="graph0" class="graph" transform="scale(1 1) rotate(0) translate(4 281)">
<title>PhysicsList::SetCutForGamma</title>
<!-- Node1 -->
<g id="node1" class="node">
<title>Node1</title>
<polygon fill="#bfbfbf" stroke="#000000" points="0,-166.5 0,-186.5 167,-186.5 167,-166.5 0,-166.5"/>
<text text-anchor="middle" x="83.5" y="-173.5" font-family="FreeSans" font-size="10.00" fill="#000000">PhysicsList::SetCutForGamma</text>
</g>
<!-- Node2 -->
<g id="node2" class="node">
<title>Node2</title>
<g id="a_node2"><a xlink:href="../../d0/d54/classG4Gamma.html#a4ee5f7b61812afb37f48357148c13f75" target="_top" xlink:title="G4Gamma::Gamma">
<polygon fill="none" stroke="#000000" points="203,-189.5 203,-209.5 320,-209.5 320,-189.5 203,-189.5"/>
<text text-anchor="middle" x="261.5" y="-196.5" font-family="FreeSans" font-size="10.00" fill="#000000">G4Gamma::Gamma</text>
</a>
</g>
</g>
<!-- Node1&#45;&gt;Node2 -->
<g id="edge1" class="edge">
<title>Node1&#45;&gt;Node2</title>
<path fill="none" stroke="#191970" d="M161.0556,-186.5212C171.5953,-187.8831 182.3527,-189.2731 192.7233,-190.6131"/>
<polygon fill="#191970" stroke="#191970" points="192.5765,-194.1232 202.9426,-191.9336 193.4736,-187.1809 192.5765,-194.1232"/>
</g>
<!-- Node16 -->
<g id="node16" class="node">
<title>Node16</title>
<g id="a_node16"><a xlink:href="../../d5/d8b/classG4VUserPhysicsList.html#a99ce1bfb9b103b239c334b4ccd12f0dc" target="_top" xlink:title="G4VUserPhysicsList\l::SetParticleCuts">
<polygon fill="none" stroke="#000000" points="203.5,-138.5 203.5,-170.5 319.5,-170.5 319.5,-138.5 203.5,-138.5"/>
<text text-anchor="start" x="211.5" y="-157.5" font-family="FreeSans" font-size="10.00" fill="#000000">G4VUserPhysicsList</text>
<text text-anchor="middle" x="261.5" y="-145.5" font-family="FreeSans" font-size="10.00" fill="#000000">::SetParticleCuts</text>
</a>
</g>
</g>
<!-- Node1&#45;&gt;Node16 -->
<g id="edge17" class="edge">
<title>Node1&#45;&gt;Node16</title>
<path fill="none" stroke="#191970" d="M164.4269,-166.4978C174.0713,-165.3058 183.8433,-164.098 193.2847,-162.9311"/>
<polygon fill="#191970" stroke="#191970" points="193.8831,-166.3839 203.3783,-161.6836 193.0245,-159.4367 193.8831,-166.3839"/>
</g>
<!-- Node3 -->
<g id="node3" class="node">
<title>Node3</title>
<g id="a_node3"><a xlink:href="../../d0/d54/classG4Gamma.html#af48944ead345899927a66f64a1cb6b32" target="_top" xlink:title="G4Gamma::Definition">
<polygon fill="none" stroke="#000000" points="356,-189.5 356,-209.5 482,-209.5 482,-189.5 356,-189.5"/>
<text text-anchor="middle" x="419" y="-196.5" font-family="FreeSans" font-size="10.00" fill="#000000">G4Gamma::Definition</text>
</a>
</g>
</g>
<!-- Node2&#45;&gt;Node3 -->
<g id="edge2" class="edge">
<title>Node2&#45;&gt;Node3</title>
<path fill="none" stroke="#191970" d="M320.1472,-199.5C328.5078,-199.5 337.1924,-199.5 345.7886,-199.5"/>
<polygon fill="#191970" stroke="#191970" points="345.8144,-203.0001 355.8144,-199.5 345.8143,-196.0001 345.8144,-203.0001"/>
</g>
<!-- Node4 -->
<g id="node4" class="node">
<title>Node4</title>
<g id="a_node4"><a xlink:href="../../d8/dd3/classG4ParticleTable.html#a891da3f41417c3800e7596fab298c3c5" target="_top" xlink:title="G4ParticleTable::FindParticle">
<polygon fill="none" stroke="#000000" points="518,-189.5 518,-209.5 677,-209.5 677,-189.5 518,-189.5"/>
<text text-anchor="middle" x="597.5" y="-196.5" font-family="FreeSans" font-size="10.00" fill="#000000">G4ParticleTable::FindParticle</text>
</a>
</g>
</g>
<!-- Node3&#45;&gt;Node4 -->
<g id="edge3" class="edge">
<title>Node3&#45;&gt;Node4</title>
<path fill="none" stroke="#191970" d="M482.1836,-199.5C490.4733,-199.5 499.0918,-199.5 507.717,-199.5"/>
<polygon fill="#191970" stroke="#191970" points="507.826,-203.0001 517.8259,-199.5 507.8259,-196.0001 507.826,-203.0001"/>
</g>
<!-- Node9 -->
<g id="node9" class="node">
<title>Node9</title>
<g id="a_node9"><a xlink:href="../../d5/d38/classG4ParticleDefinition.html#a62ed9b48da6b7fd47ba568dd9777007f" target="_top" xlink:title="G4ParticleDefinition\l::G4ParticleDefinition">
<polygon fill="none" stroke="#000000" points="536,-244.5 536,-276.5 659,-276.5 659,-244.5 536,-244.5"/>
<text text-anchor="start" x="544" y="-263.5" font-family="FreeSans" font-size="10.00" fill="#000000">G4ParticleDefinition</text>
<text text-anchor="middle" x="597.5" y="-251.5" font-family="FreeSans" font-size="10.00" fill="#000000">::G4ParticleDefinition</text>
</a>
</g>
</g>
<!-- Node3&#45;&gt;Node9 -->
<g id="edge8" class="edge">
<title>Node3&#45;&gt;Node9</title>
<path fill="none" stroke="#191970" d="M448.4756,-209.5729C473.494,-218.1226 510.11,-230.6356 540.7852,-241.1185"/>
<polygon fill="#191970" stroke="#191970" points="539.9192,-244.5212 550.5137,-244.4431 542.1828,-237.8973 539.9192,-244.5212"/>
</g>
<!-- Node10 -->
<g id="node10" class="node">
<title>Node10</title>
<g id="a_node10"><a xlink:href="../../d8/dd3/classG4ParticleTable.html#a8bb5b636696da4abae3ca7ea0ea5af95" target="_top" xlink:title="G4ParticleTable::GetParticle\lTable">
<polygon fill="none" stroke="#000000" points="519.5,-119.5 519.5,-151.5 675.5,-151.5 675.5,-119.5 519.5,-119.5"/>
<text text-anchor="start" x="527.5" y="-138.5" font-family="FreeSans" font-size="10.00" fill="#000000">G4ParticleTable::GetParticle</text>
<text text-anchor="middle" x="597.5" y="-126.5" font-family="FreeSans" font-size="10.00" fill="#000000">Table</text>
</a>
</g>
</g>
<!-- Node3&#45;&gt;Node10 -->
<g id="edge10" class="edge">
<title>Node3&#45;&gt;Node10</title>
<path fill="none" stroke="#191970" d="M454.1465,-189.4334C463.2628,-186.6769 473.0365,-183.5924 482,-180.5 504.2162,-172.8354 528.4962,-163.5212 549.0364,-155.3595"/>
<polygon fill="#191970" stroke="#191970" points="550.5048,-158.5419 558.4909,-151.5796 547.9061,-152.0421 550.5048,-158.5419"/>
</g>
<!-- Node5 -->
<g id="node5" class="node">
<title>Node5</title>
<g id="a_node5"><a xlink:href="../../d8/dd3/classG4ParticleTable.html#a5dcd173398768b18c5ba132bbd8f427b" target="_top" xlink:title="G4ParticleTable::CheckReadiness">
<polygon fill="none" stroke="#000000" points="713,-228.5 713,-248.5 896,-248.5 896,-228.5 713,-228.5"/>
<text text-anchor="middle" x="804.5" y="-235.5" font-family="FreeSans" font-size="10.00" fill="#000000">G4ParticleTable::CheckReadiness</text>
</a>
</g>
</g>
<!-- Node4&#45;&gt;Node5 -->
<g id="edge4" class="edge">
<title>Node4&#45;&gt;Node5</title>
<path fill="none" stroke="#191970" d="M650.8076,-209.5435C678.4539,-214.7522 712.4044,-221.1487 741.3585,-226.6038"/>
<polygon fill="#191970" stroke="#191970" points="740.8978,-230.0785 751.373,-228.4906 742.1939,-223.1995 740.8978,-230.0785"/>
</g>
<!-- Node7 -->
<g id="node7" class="node">
<title>Node7</title>
<g id="a_node7"><a xlink:href="../../d8/dd3/classG4ParticleTable.html#ad3150940809a36b87123558264d30108" target="_top" xlink:title="G4ParticleTable::GetKey">
<polygon fill="none" stroke="#000000" points="949,-192.5 949,-212.5 1086,-212.5 1086,-192.5 949,-192.5"/>
<text text-anchor="middle" x="1017.5" y="-199.5" font-family="FreeSans" font-size="10.00" fill="#000000">G4ParticleTable::GetKey</text>
</a>
</g>
</g>
<!-- Node4&#45;&gt;Node7 -->
<g id="edge6" class="edge">
<title>Node4&#45;&gt;Node7</title>
<path fill="none" stroke="#191970" d="M677.4874,-200.0713C752.5012,-200.6072 864.0043,-201.4036 938.6473,-201.9368"/>
<polygon fill="#191970" stroke="#191970" points="938.9027,-205.4386 948.9275,-202.0102 938.9528,-198.4388 938.9027,-205.4386"/>
</g>
<!-- Node8 -->
<g id="node8" class="node">
<title>Node8</title>
<g id="a_node8"><a xlink:href="../../d7/d23/namespaceG4Threading.html#a4bce96528c21592b91483fb2ab5b6215" target="_top" xlink:title="G4Threading::IsWorkerThread">
<polygon fill="none" stroke="#000000" points="720.5,-150.5 720.5,-170.5 888.5,-170.5 888.5,-150.5 720.5,-150.5"/>
<text text-anchor="middle" x="804.5" y="-157.5" font-family="FreeSans" font-size="10.00" fill="#000000">G4Threading::IsWorkerThread</text>
</a>
</g>
</g>
<!-- Node4&#45;&gt;Node8 -->
<g id="edge7" class="edge">
<title>Node4&#45;&gt;Node8</title>
<path fill="none" stroke="#191970" d="M650.8076,-189.4565C678.4539,-184.2478 712.4044,-177.8513 741.3585,-172.3962"/>
<polygon fill="#191970" stroke="#191970" points="742.1939,-175.8005 751.373,-170.5094 740.8978,-168.9215 742.1939,-175.8005"/>
</g>
<!-- Node6 -->
<g id="node6" class="node">
<title>Node6</title>
<g id="a_node6"><a xlink:href="../../d5/d4f/G4Exception_8hh.html#ad36b5da5d062a20ca47b1c1f1ae353dd" target="_top" xlink:title="G4Exception">
<polygon fill="none" stroke="#000000" points="977.5,-249.5 977.5,-269.5 1057.5,-269.5 1057.5,-249.5 977.5,-249.5"/>
<text text-anchor="middle" x="1017.5" y="-256.5" font-family="FreeSans" font-size="10.00" fill="#000000">G4Exception</text>
</a>
</g>
</g>
<!-- Node5&#45;&gt;Node6 -->
<g id="edge5" class="edge">
<title>Node5&#45;&gt;Node6</title>
<path fill="none" stroke="#191970" d="M896.0673,-247.5278C920.4857,-249.9352 945.9725,-252.448 967.2554,-254.5463"/>
<polygon fill="#191970" stroke="#191970" points="967.0473,-258.0427 977.3425,-255.5408 967.7342,-251.0764 967.0473,-258.0427"/>
</g>
<!-- Node9&#45;&gt;Node6 -->
<g id="edge9" class="edge">
<title>Node9&#45;&gt;Node6</title>
<path fill="none" stroke="#191970" d="M659.0214,-260.3535C742.3677,-260.1551 889.5995,-259.8045 966.8893,-259.6205"/>
<polygon fill="#191970" stroke="#191970" points="967.3255,-263.1196 977.3171,-259.5957 967.3088,-256.1196 967.3255,-263.1196"/>
</g>
<!-- Node11 -->
<g id="node11" class="node">
<title>Node11</title>
<g id="a_node11"><a xlink:href="../../d8/dd3/classG4ParticleTable.html#aba540bf07478ff0c30af3ee28d843041" target="_top" xlink:title="G4ParticleTable::WorkerG4\lParticleTable">
<polygon fill="none" stroke="#000000" points="729,-96.5 729,-128.5 880,-128.5 880,-96.5 729,-96.5"/>
<text text-anchor="start" x="737" y="-115.5" font-family="FreeSans" font-size="10.00" fill="#000000">G4ParticleTable::WorkerG4</text>
<text text-anchor="middle" x="804.5" y="-103.5" font-family="FreeSans" font-size="10.00" fill="#000000">ParticleTable</text>
</a>
</g>
</g>
<!-- Node10&#45;&gt;Node11 -->
<g id="edge11" class="edge">
<title>Node10&#45;&gt;Node11</title>
<path fill="none" stroke="#191970" d="M675.7578,-126.8047C689.7614,-125.2487 704.4215,-123.6198 718.6252,-122.0416"/>
<polygon fill="#191970" stroke="#191970" points="719.3189,-125.4862 728.8712,-120.9032 718.5459,-118.529 719.3189,-125.4862"/>
</g>
<!-- Node11&#45;&gt;Node7 -->
<g id="edge12" class="edge">
<title>Node11&#45;&gt;Node7</title>
<path fill="none" stroke="#191970" d="M872.9673,-128.6038C881.0586,-131.8917 888.9382,-135.8189 896,-140.5 916.7748,-154.271 910.7021,-170.5526 932,-183.5 935.1752,-185.4303 938.5234,-187.1652 941.9825,-188.7244"/>
<polygon fill="#191970" stroke="#191970" points="940.7701,-192.0088 951.3555,-192.455 943.3587,-185.505 940.7701,-192.0088"/>
</g>
<!-- Node12 -->
<g id="node12" class="node">
<title>Node12</title>
<g id="a_node12"><a xlink:href="../../d5/d38/classG4ParticleDefinition.html#af84019c7513ca66581ed8b3651934467" target="_top" xlink:title="G4ParticleDefinition\l::GetPDGEncoding">
<polygon fill="none" stroke="#000000" points="959.5,-141.5 959.5,-173.5 1075.5,-173.5 1075.5,-141.5 959.5,-141.5"/>
<text text-anchor="start" x="967.5" y="-160.5" font-family="FreeSans" font-size="10.00" fill="#000000">G4ParticleDefinition</text>
<text text-anchor="middle" x="1017.5" y="-148.5" font-family="FreeSans" font-size="10.00" fill="#000000">::GetPDGEncoding</text>
</a>
</g>
</g>
<!-- Node11&#45;&gt;Node12 -->
<g id="edge13" class="edge">
<title>Node11&#45;&gt;Node12</title>
<path fill="none" stroke="#191970" d="M880.1956,-128.492C902.8008,-133.2678 927.4319,-138.4715 949.5111,-143.1361"/>
<polygon fill="#191970" stroke="#191970" points="948.952,-146.5952 959.4595,-145.2379 950.399,-139.7464 948.952,-146.5952"/>
</g>
<!-- Node13 -->
<g id="node13" class="node">
<title>Node13</title>
<g id="a_node13"><a xlink:href="../../d4/d96/classG4ParticleTableIterator.html#ae35fb8d216907e4b1614fd52f2d50f84" target="_top" xlink:title="G4ParticleTableIterator\l::reset">
<polygon fill="none" stroke="#000000" points="951.5,-90.5 951.5,-122.5 1083.5,-122.5 1083.5,-90.5 951.5,-90.5"/>
<text text-anchor="start" x="959.5" y="-109.5" font-family="FreeSans" font-size="10.00" fill="#000000">G4ParticleTableIterator</text>
<text text-anchor="middle" x="1017.5" y="-97.5" font-family="FreeSans" font-size="10.00" fill="#000000">::reset</text>
</a>
</g>
</g>
<!-- Node11&#45;&gt;Node13 -->
<g id="edge14" class="edge">
<title>Node11&#45;&gt;Node13</title>
<path fill="none" stroke="#191970" d="M880.1956,-110.3677C899.9497,-109.8113 921.2509,-109.2112 941.0442,-108.6537"/>
<polygon fill="#191970" stroke="#191970" points="941.3437,-112.1467 951.2412,-108.3664 941.1466,-105.1495 941.3437,-112.1467"/>
</g>
<!-- Node14 -->
<g id="node14" class="node">
<title>Node14</title>
<g id="a_node14"><a xlink:href="../../d4/d96/classG4ParticleTableIterator.html#a7220383ce5a9ddecb53331a2ecdd90d5" target="_top" xlink:title="G4ParticleTableIterator\l::value">
<polygon fill="none" stroke="#000000" points="951.5,-39.5 951.5,-71.5 1083.5,-71.5 1083.5,-39.5 951.5,-39.5"/>
<text text-anchor="start" x="959.5" y="-58.5" font-family="FreeSans" font-size="10.00" fill="#000000">G4ParticleTableIterator</text>
<text text-anchor="middle" x="1017.5" y="-46.5" font-family="FreeSans" font-size="10.00" fill="#000000">::value</text>
</a>
</g>
</g>
<!-- Node11&#45;&gt;Node14 -->
<g id="edge15" class="edge">
<title>Node11&#45;&gt;Node14</title>
<path fill="none" stroke="#191970" d="M864.3992,-96.4706C890.3718,-89.5202 920.9503,-81.3372 947.9228,-74.1192"/>
<polygon fill="#191970" stroke="#191970" points="948.9264,-77.4739 957.6817,-71.5077 947.1168,-70.7118 948.9264,-77.4739"/>
</g>
<!-- Node15 -->
<g id="node15" class="node">
<title>Node15</title>
<g id="a_node15"><a xlink:href="../../da/d2b/classG4IonTable.html#a66f8ee295224ed611872572a0e47ab6e" target="_top" xlink:title="G4IonTable::WorkerG4IonTable">
<polygon fill="none" stroke="#000000" points="932,-.5 932,-20.5 1103,-20.5 1103,-.5 932,-.5"/>
<text text-anchor="middle" x="1017.5" y="-7.5" font-family="FreeSans" font-size="10.00" fill="#000000">G4IonTable::WorkerG4IonTable</text>
</a>
</g>
</g>
<!-- Node11&#45;&gt;Node15 -->
<g id="edge16" class="edge">
<title>Node11&#45;&gt;Node15</title>
<path fill="none" stroke="#191970" d="M824.4098,-96.2498C848.4653,-77.4269 890.8496,-46.7947 932,-29.5 937.478,-27.1977 943.2759,-25.1555 949.1684,-23.3478"/>
<polygon fill="#191970" stroke="#191970" points="950.4684,-26.6172 959.1344,-20.5222 948.5589,-19.8827 950.4684,-26.6172"/>
</g>
<!-- Node17 -->
<g id="node17" class="node">
<title>Node17</title>
<g id="a_node17"><a xlink:href="../../d5/d38/classG4ParticleDefinition.html#a02a571907ec0c42bf356545826d9234f" target="_top" xlink:title="G4ParticleDefinition\l::GetParticleName">
<polygon fill="none" stroke="#000000" points="361,-138.5 361,-170.5 477,-170.5 477,-138.5 361,-138.5"/>
<text text-anchor="start" x="369" y="-157.5" font-family="FreeSans" font-size="10.00" fill="#000000">G4ParticleDefinition</text>
<text text-anchor="middle" x="419" y="-145.5" font-family="FreeSans" font-size="10.00" fill="#000000">::GetParticleName</text>
</a>
</g>
</g>
<!-- Node16&#45;&gt;Node17 -->
<g id="edge18" class="edge">
<title>Node16&#45;&gt;Node17</title>
<path fill="none" stroke="#191970" d="M319.6997,-154.5C329.7551,-154.5 340.2911,-154.5 350.5872,-154.5"/>
<polygon fill="#191970" stroke="#191970" points="350.7767,-158.0001 360.7767,-154.5 350.7767,-151.0001 350.7767,-158.0001"/>
</g>
</g>
</svg>
