<?xml version="1.0" encoding="UTF-8" standalone="no"?>
<!DOCTYPE svg PUBLIC "-//W3C//DTD SVG 1.1//EN"
 "http://www.w3.org/Graphics/SVG/1.1/DTD/svg11.dtd">
<!-- Generated by graphviz version 2.40.1 (20161225.0304)
 -->
<!-- Title: PHG4mRICHDetector::build_mRICH_wall_hside Pages: 1 -->
<svg width="555pt" height="452pt"
 viewBox="0.00 0.00 555.00 452.00" xmlns="http://www.w3.org/2000/svg" xmlns:xlink="http://www.w3.org/1999/xlink">
<g id="graph0" class="graph" transform="scale(1 1) rotate(0) translate(4 448)">
<title>PHG4mRICHDetector::build_mRICH_wall_hside</title>
<!-- Node1 -->
<g id="node1" class="node">
<title>Node1</title>
<polygon fill="#bfbfbf" stroke="#000000" points="0,-193.5 0,-225.5 138,-225.5 138,-193.5 0,-193.5"/>
<text text-anchor="start" x="8" y="-212.5" font-family="FreeSans" font-size="10.00" fill="#000000">PHG4mRICHDetector::</text>
<text text-anchor="middle" x="69" y="-200.5" font-family="FreeSans" font-size="10.00" fill="#000000">build_mRICH_wall_hside</text>
</g>
<!-- Node2 -->
<g id="node2" class="node">
<title>Node2</title>
<g id="a_node2"><a xlink:href="../../d8/d10/classG4AssemblyVolume.html#a8c8da32e91dd3feb99c5f2959c0ea69f" target="_top" xlink:title="G4AssemblyVolume::AddPlaced\lVolume">
<polygon fill="none" stroke="#000000" points="179.5,-411.5 179.5,-443.5 356.5,-443.5 356.5,-411.5 179.5,-411.5"/>
<text text-anchor="start" x="187.5" y="-430.5" font-family="FreeSans" font-size="10.00" fill="#000000">G4AssemblyVolume::AddPlaced</text>
<text text-anchor="middle" x="268" y="-418.5" font-family="FreeSans" font-size="10.00" fill="#000000">Volume</text>
</a>
</g>
</g>
<!-- Node1&#45;&gt;Node2 -->
<g id="edge1" class="edge">
<title>Node1&#45;&gt;Node2</title>
<path fill="none" stroke="#191970" d="M73.0345,-225.5584C83.2204,-262.7026 113.5752,-354.9969 174,-402.5 175.7798,-403.8992 177.6309,-405.2203 179.541,-406.4679"/>
<polygon fill="#191970" stroke="#191970" points="177.8424,-409.5284 188.256,-411.4793 181.3319,-403.4602 177.8424,-409.5284"/>
</g>
<!-- Node3 -->
<g id="node3" class="node">
<title>Node3</title>
<g id="a_node3"><a xlink:href="../../d9/deb/classPHG4mRICHDetector.html#a848a46d6fdbc3fb88b455c4418d2809b" target="_top" xlink:title="PHG4mRICHDetector::\lConstruct_a_mRICH">
<polygon fill="none" stroke="#000000" points="204,-360.5 204,-392.5 332,-392.5 332,-360.5 204,-360.5"/>
<text text-anchor="start" x="212" y="-379.5" font-family="FreeSans" font-size="10.00" fill="#000000">PHG4mRICHDetector::</text>
<text text-anchor="middle" x="268" y="-367.5" font-family="FreeSans" font-size="10.00" fill="#000000">Construct_a_mRICH</text>
</a>
</g>
</g>
<!-- Node1&#45;&gt;Node3 -->
<g id="edge2" class="edge">
<title>Node1&#45;&gt;Node3</title>
<path fill="none" stroke="#191970" d="M76.5032,-225.9475C90.9571,-255.7367 125.5687,-318.5781 174,-351.5 180.1449,-355.6771 186.9543,-359.1568 194.0183,-362.0555"/>
<polygon fill="#191970" stroke="#191970" points="193.1771,-365.4759 203.7704,-365.659 195.6034,-358.9098 193.1771,-365.4759"/>
</g>
<!-- Node4 -->
<g id="node4" class="node">
<title>Node4</title>
<g id="a_node4"><a xlink:href="../../dd/dae/classPHParameters.html#aa61ce249b94375d9af4482c36a1308cf" target="_top" xlink:title="PHParameters::get_double\l_param">
<polygon fill="none" stroke="#000000" points="193,-309.5 193,-341.5 343,-341.5 343,-309.5 193,-309.5"/>
<text text-anchor="start" x="201" y="-328.5" font-family="FreeSans" font-size="10.00" fill="#000000">PHParameters::get_double</text>
<text text-anchor="middle" x="268" y="-316.5" font-family="FreeSans" font-size="10.00" fill="#000000">_param</text>
</a>
</g>
</g>
<!-- Node1&#45;&gt;Node4 -->
<g id="edge3" class="edge">
<title>Node1&#45;&gt;Node4</title>
<path fill="none" stroke="#191970" d="M83.3248,-225.8355C102.1342,-246.278 137.12,-280.9698 174,-300.5 177.5093,-302.3584 181.1671,-304.0863 184.9164,-305.6921"/>
<polygon fill="#191970" stroke="#191970" points="183.8059,-309.0165 194.3924,-309.4366 186.3785,-302.5064 183.8059,-309.0165"/>
</g>
<!-- Node7 -->
<g id="node7" class="node">
<title>Node7</title>
<g id="a_node7"><a xlink:href="../../dd/dae/classPHParameters.html#a0241ca27a369ab4865ac3d79620ac27c" target="_top" xlink:title="PHParameters::get_int\l_param">
<polygon fill="none" stroke="#000000" points="203.5,-258.5 203.5,-290.5 332.5,-290.5 332.5,-258.5 203.5,-258.5"/>
<text text-anchor="start" x="211.5" y="-277.5" font-family="FreeSans" font-size="10.00" fill="#000000">PHParameters::get_int</text>
<text text-anchor="middle" x="268" y="-265.5" font-family="FreeSans" font-size="10.00" fill="#000000">_param</text>
</a>
</g>
</g>
<!-- Node1&#45;&gt;Node7 -->
<g id="edge6" class="edge">
<title>Node1&#45;&gt;Node7</title>
<path fill="none" stroke="#191970" d="M108.5417,-225.68C128.0724,-233.3846 152.0926,-242.4351 174,-249.5 180.4789,-251.5894 187.2482,-253.6406 194.0559,-255.614"/>
<polygon fill="#191970" stroke="#191970" points="193.4522,-259.0809 204.028,-258.4448 195.3639,-252.3469 193.4522,-259.0809"/>
</g>
<!-- Node8 -->
<g id="node8" class="node">
<title>Node8</title>
<g id="a_node8"><a xlink:href="../../d8/d10/classG4AssemblyVolume.html#a1c9929a4dfade86131b8ba8557e60061" target="_top" xlink:title="G4AssemblyVolume::MakeImprint">
<polygon fill="none" stroke="#000000" points="174,-219.5 174,-239.5 362,-239.5 362,-219.5 174,-219.5"/>
<text text-anchor="middle" x="268" y="-226.5" font-family="FreeSans" font-size="10.00" fill="#000000">G4AssemblyVolume::MakeImprint</text>
</a>
</g>
</g>
<!-- Node1&#45;&gt;Node8 -->
<g id="edge8" class="edge">
<title>Node1&#45;&gt;Node8</title>
<path fill="none" stroke="#191970" d="M138.0421,-216.4389C146.3526,-217.2741 154.9769,-218.1409 163.6505,-219.0126"/>
<polygon fill="#191970" stroke="#191970" points="163.5394,-222.519 173.8393,-220.0366 164.2395,-215.5541 163.5394,-222.519"/>
</g>
<!-- Node9 -->
<g id="node9" class="node">
<title>Node9</title>
<g id="a_node9"><a xlink:href="../../d3/de7/classPHG4Detector.html#a0be0f337e0bb4ef7d0754552ee7ba251" target="_top" xlink:title="PHG4Detector::OverlapCheck">
<polygon fill="none" stroke="#000000" points="185,-180.5 185,-200.5 351,-200.5 351,-180.5 185,-180.5"/>
<text text-anchor="middle" x="268" y="-187.5" font-family="FreeSans" font-size="10.00" fill="#000000">PHG4Detector::OverlapCheck</text>
</a>
</g>
</g>
<!-- Node1&#45;&gt;Node9 -->
<g id="edge9" class="edge">
<title>Node1&#45;&gt;Node9</title>
<path fill="none" stroke="#191970" d="M138.0421,-202.908C149.794,-201.786 162.1734,-200.604 174.4322,-199.4336"/>
<polygon fill="#191970" stroke="#191970" points="175.0628,-202.8894 184.6849,-198.4547 174.3974,-195.9211 175.0628,-202.8894"/>
</g>
<!-- Node10 -->
<g id="node10" class="node">
<title>Node10</title>
<g id="a_node10"><a xlink:href="../../dc/de5/PHG4mRICHDetector_8cc.html#a11ded6fc3d3fab0e72612c3886df87a0" target="_top" xlink:title="pos">
<polygon fill="none" stroke="#000000" points="251,-141.5 251,-161.5 285,-161.5 285,-141.5 251,-141.5"/>
<text text-anchor="middle" x="268" y="-148.5" font-family="FreeSans" font-size="10.00" fill="#000000">pos</text>
</a>
</g>
</g>
<!-- Node1&#45;&gt;Node10 -->
<g id="edge10" class="edge">
<title>Node1&#45;&gt;Node10</title>
<path fill="none" stroke="#191970" d="M109.4616,-193.3816C128.7922,-186.0627 152.3781,-177.681 174,-171.5 196.2303,-165.1451 221.9369,-159.8099 240.8426,-156.2524"/>
<polygon fill="#191970" stroke="#191970" points="241.6414,-159.6644 250.8452,-154.4165 240.3776,-152.7794 241.6414,-159.6644"/>
</g>
<!-- Node11 -->
<g id="node11" class="node">
<title>Node11</title>
<g id="a_node11"><a xlink:href="../../dd/d65/classCLHEP_1_1HepRotation.html#aade1964498bb450b9d90a40977837e67" target="_top" xlink:title="CLHEP::HepRotation\l::rotateX">
<polygon fill="none" stroke="#000000" points="209,-90.5 209,-122.5 327,-122.5 327,-90.5 209,-90.5"/>
<text text-anchor="start" x="217" y="-109.5" font-family="FreeSans" font-size="10.00" fill="#000000">CLHEP::HepRotation</text>
<text text-anchor="middle" x="268" y="-97.5" font-family="FreeSans" font-size="10.00" fill="#000000">::rotateX</text>
</a>
</g>
</g>
<!-- Node1&#45;&gt;Node11 -->
<g id="edge11" class="edge">
<title>Node1&#45;&gt;Node11</title>
<path fill="none" stroke="#191970" d="M86.6468,-193.395C106.5184,-176.0525 140.4353,-148.7674 174,-132.5 181.8601,-128.6905 190.3694,-125.3606 198.9471,-122.4716"/>
<polygon fill="#191970" stroke="#191970" points="200.159,-125.759 208.6296,-119.3952 198.0392,-119.0877 200.159,-125.759"/>
</g>
<!-- Node12 -->
<g id="node12" class="node">
<title>Node12</title>
<g id="a_node12"><a xlink:href="../../dd/d65/classCLHEP_1_1HepRotation.html#ad3bd2245c819d7d0062c5ad0a49d6fbe" target="_top" xlink:title="CLHEP::HepRotation\l::rotateY">
<polygon fill="none" stroke="#000000" points="209,-39.5 209,-71.5 327,-71.5 327,-39.5 209,-39.5"/>
<text text-anchor="start" x="217" y="-58.5" font-family="FreeSans" font-size="10.00" fill="#000000">CLHEP::HepRotation</text>
<text text-anchor="middle" x="268" y="-46.5" font-family="FreeSans" font-size="10.00" fill="#000000">::rotateY</text>
</a>
</g>
</g>
<!-- Node1&#45;&gt;Node12 -->
<g id="edge12" class="edge">
<title>Node1&#45;&gt;Node12</title>
<path fill="none" stroke="#191970" d="M77.7025,-193.4418C93.311,-166.1867 128.7071,-110.9691 174,-81.5 181.7128,-76.4818 190.3869,-72.4225 199.2667,-69.1411"/>
<polygon fill="#191970" stroke="#191970" points="200.5896,-72.3888 208.9472,-65.8772 198.3531,-65.7556 200.5896,-72.3888"/>
</g>
<!-- Node13 -->
<g id="node13" class="node">
<title>Node13</title>
<g id="a_node13"><a xlink:href="../../dc/de5/PHG4mRICHDetector_8cc.html#aa15fefb6859fb9ca86eb9a588d4f7856" target="_top" xlink:title="theta">
<polygon fill="none" stroke="#000000" points="247,-.5 247,-20.5 289,-20.5 289,-.5 247,-.5"/>
<text text-anchor="middle" x="268" y="-7.5" font-family="FreeSans" font-size="10.00" fill="#000000">theta</text>
</a>
</g>
</g>
<!-- Node1&#45;&gt;Node13 -->
<g id="edge13" class="edge">
<title>Node1&#45;&gt;Node13</title>
<path fill="none" stroke="#191970" d="M73.568,-193.3366C84.5032,-157.7698 115.7093,-72.5529 174,-30.5 192.1221,-17.4261 217.0103,-12.5578 236.6251,-10.8876"/>
<polygon fill="#191970" stroke="#191970" points="236.8557,-14.3802 246.6199,-10.268 236.4224,-7.3936 236.8557,-14.3802"/>
</g>
<!-- Node5 -->
<g id="node5" class="node">
<title>Node5</title>
<g id="a_node5"><a xlink:href="../../d0/d12/namespaceg4zmq.html#ac0a320baaea2957915124839b1e2be53" target="_top" xlink:title="g4zmq.exit">
<polygon fill="none" stroke="#000000" points="398,-289.5 398,-309.5 471,-309.5 471,-289.5 398,-289.5"/>
<text text-anchor="middle" x="434.5" y="-296.5" font-family="FreeSans" font-size="10.00" fill="#000000">g4zmq.exit</text>
</a>
</g>
</g>
<!-- Node4&#45;&gt;Node5 -->
<g id="edge4" class="edge">
<title>Node4&#45;&gt;Node5</title>
<path fill="none" stroke="#191970" d="M343.4555,-313.7172C358.5398,-311.3617 373.9685,-308.9524 387.7372,-306.8023"/>
<polygon fill="#191970" stroke="#191970" points="388.5691,-310.2149 397.9094,-305.2139 387.4891,-303.2987 388.5691,-310.2149"/>
</g>
<!-- Node6 -->
<g id="node6" class="node">
<title>Node6</title>
<g id="a_node6"><a xlink:href="../../d8/d03/G4ecpssrBaseKxsModel_8cc.html#afca89815e8ce05521ca0a7ec9bd17385" target="_top" xlink:title="print">
<polygon fill="none" stroke="#000000" points="507,-289.5 507,-309.5 547,-309.5 547,-289.5 507,-289.5"/>
<text text-anchor="middle" x="527" y="-296.5" font-family="FreeSans" font-size="10.00" fill="#000000">print</text>
</a>
</g>
</g>
<!-- Node5&#45;&gt;Node6 -->
<g id="edge5" class="edge">
<title>Node5&#45;&gt;Node6</title>
<path fill="none" stroke="#191970" d="M471.0584,-299.5C479.5556,-299.5 488.5098,-299.5 496.7028,-299.5"/>
<polygon fill="#191970" stroke="#191970" points="496.9325,-303.0001 506.9324,-299.5 496.9324,-296.0001 496.9325,-303.0001"/>
</g>
<!-- Node7&#45;&gt;Node5 -->
<g id="edge7" class="edge">
<title>Node7&#45;&gt;Node5</title>
<path fill="none" stroke="#191970" d="M332.85,-284.2372C351.149,-286.9848 370.6965,-289.9199 387.7116,-292.4747"/>
<polygon fill="#191970" stroke="#191970" points="387.5359,-295.9875 397.9448,-294.0112 388.5754,-289.0651 387.5359,-295.9875"/>
</g>
</g>
</svg>
