<?xml version="1.0" encoding="UTF-8" standalone="no"?>
<!DOCTYPE svg PUBLIC "-//W3C//DTD SVG 1.1//EN"
 "http://www.w3.org/Graphics/SVG/1.1/DTD/svg11.dtd">
<!-- Generated by graphviz version 2.40.1 (20161225.0304)
 -->
<!-- Title: G03ColorWriter::AddExtension Pages: 1 -->
<svg width="759pt" height="380pt"
 viewBox="0.00 0.00 759.00 380.00" xmlns="http://www.w3.org/2000/svg" xmlns:xlink="http://www.w3.org/1999/xlink">
<g id="graph0" class="graph" transform="scale(1 1) rotate(0) translate(4 376)">
<title>G03ColorWriter::AddExtension</title>
<!-- Node1 -->
<g id="node1" class="node">
<title>Node1</title>
<polygon fill="#bfbfbf" stroke="#000000" points="0,-155.5 0,-175.5 170,-175.5 170,-155.5 0,-155.5"/>
<text text-anchor="middle" x="85" y="-162.5" font-family="FreeSans" font-size="10.00" fill="#000000">G03ColorWriter::AddExtension</text>
</g>
<!-- Node2 -->
<g id="node2" class="node">
<title>Node2</title>
<g id="a_node2"><a xlink:href="../../db/d0a/classG03ColorWriter.html#aea30959f4cdf74ba74e7e57b223527a6" target="_top" xlink:title="G03ColorWriter::ColorWrite">
<polygon fill="none" stroke="#000000" points="226,-175.5 226,-195.5 379,-195.5 379,-175.5 226,-175.5"/>
<text text-anchor="middle" x="302.5" y="-182.5" font-family="FreeSans" font-size="10.00" fill="#000000">G03ColorWriter::ColorWrite</text>
</a>
</g>
</g>
<!-- Node1&#45;&gt;Node2 -->
<g id="edge1" class="edge">
<title>Node1&#45;&gt;Node2</title>
<path fill="none" stroke="#191970" d="M170.0256,-173.3185C184.9337,-174.6893 200.4671,-176.1177 215.4297,-177.4935"/>
<polygon fill="#191970" stroke="#191970" points="215.4041,-181.0059 225.6826,-178.4363 216.0451,-174.0353 215.4041,-181.0059"/>
</g>
<!-- Node15 -->
<g id="node15" class="node">
<title>Node15</title>
<g id="a_node15"><a xlink:href="../../da/dc4/classG4LogicalVolume.html#a5bf81ec540996ab6dca065c20e42cd0c" target="_top" xlink:title="G4LogicalVolume::GetVisAttributes">
<polygon fill="none" stroke="#000000" points="206,-136.5 206,-156.5 399,-156.5 399,-136.5 206,-136.5"/>
<text text-anchor="middle" x="302.5" y="-143.5" font-family="FreeSans" font-size="10.00" fill="#000000">G4LogicalVolume::GetVisAttributes</text>
</a>
</g>
</g>
<!-- Node1&#45;&gt;Node15 -->
<g id="edge14" class="edge">
<title>Node1&#45;&gt;Node15</title>
<path fill="none" stroke="#191970" d="M170.0256,-158.0725C178.5036,-157.3319 187.1837,-156.5736 195.8461,-155.8169"/>
<polygon fill="#191970" stroke="#191970" points="196.3363,-159.2875 205.9937,-154.9304 195.7271,-152.314 196.3363,-159.2875"/>
</g>
<!-- Node3 -->
<g id="node3" class="node">
<title>Node3</title>
<g id="a_node3"><a xlink:href="../../db/d0a/classG03ColorWriter.html#a85eaec3d5254c9c79939c38e2cb6d129" target="_top" xlink:title="G03ColorWriter::BookAttribute">
<polygon fill="none" stroke="#000000" points="435,-351.5 435,-371.5 605,-371.5 605,-351.5 435,-351.5"/>
<text text-anchor="middle" x="520" y="-358.5" font-family="FreeSans" font-size="10.00" fill="#000000">G03ColorWriter::BookAttribute</text>
</a>
</g>
</g>
<!-- Node2&#45;&gt;Node3 -->
<g id="edge2" class="edge">
<title>Node2&#45;&gt;Node3</title>
<path fill="none" stroke="#191970" d="M307.8122,-195.5258C323.2784,-223.6698 371.2512,-303.8638 435,-342.5 438.1601,-344.4153 441.4915,-346.138 444.9326,-347.6875"/>
<polygon fill="#191970" stroke="#191970" points="443.67,-350.952 454.2555,-351.3979 446.2585,-344.4481 443.67,-350.952"/>
</g>
<!-- Node5 -->
<g id="node5" class="node">
<title>Node5</title>
<g id="a_node5"><a xlink:href="../../dc/de5/PHG4mRICHDetector_8cc.html#aa81c267680f30d2fdeb98f1269263ee9" target="_top" xlink:title="color">
<polygon fill="none" stroke="#000000" points="499,-312.5 499,-332.5 541,-332.5 541,-312.5 499,-312.5"/>
<text text-anchor="middle" x="520" y="-319.5" font-family="FreeSans" font-size="10.00" fill="#000000">color</text>
</a>
</g>
</g>
<!-- Node2&#45;&gt;Node5 -->
<g id="edge4" class="edge">
<title>Node2&#45;&gt;Node5</title>
<path fill="none" stroke="#191970" d="M310.5905,-195.5881C329.6438,-218.6192 379.9044,-275.2531 435,-303.5 451.5569,-311.9885 471.8348,-316.7065 488.4316,-319.3175"/>
<polygon fill="#191970" stroke="#191970" points="488.3441,-322.8388 498.7305,-320.7475 489.3069,-315.9053 488.3441,-322.8388"/>
</g>
<!-- Node6 -->
<g id="node6" class="node">
<title>Node6</title>
<g id="a_node6"><a xlink:href="../../dc/df1/classG4VisAttributes.html#a609399b912cd5b32e6143e0573b686b6" target="_top" xlink:title="G4VisAttributes::GetColor">
<polygon fill="none" stroke="#000000" points="446.5,-273.5 446.5,-293.5 593.5,-293.5 593.5,-273.5 446.5,-273.5"/>
<text text-anchor="middle" x="520" y="-280.5" font-family="FreeSans" font-size="10.00" fill="#000000">G4VisAttributes::GetColor</text>
</a>
</g>
</g>
<!-- Node2&#45;&gt;Node6 -->
<g id="edge5" class="edge">
<title>Node2&#45;&gt;Node6</title>
<path fill="none" stroke="#191970" d="M316.0471,-195.5874C339.2163,-212.3636 388.4678,-245.9804 435,-264.5 440.8085,-266.8118 446.9578,-268.8724 453.1864,-270.7027"/>
<polygon fill="#191970" stroke="#191970" points="452.4324,-274.125 463.0018,-273.3923 454.2823,-267.3739 452.4324,-274.125"/>
</g>
<!-- Node7 -->
<g id="node7" class="node">
<title>Node7</title>
<g id="a_node7"><a xlink:href="../../d8/dfc/classG4GDMLWrite.html#a47ccd0a68cfae388b5f3dd222d4923c7" target="_top" xlink:title="G4GDMLWrite::GenerateName">
<polygon fill="none" stroke="#000000" points="435,-234.5 435,-254.5 605,-254.5 605,-234.5 435,-234.5"/>
<text text-anchor="middle" x="520" y="-241.5" font-family="FreeSans" font-size="10.00" fill="#000000">G4GDMLWrite::GenerateName</text>
</a>
</g>
</g>
<!-- Node2&#45;&gt;Node7 -->
<g id="edge6" class="edge">
<title>Node2&#45;&gt;Node7</title>
<path fill="none" stroke="#191970" d="M333.3733,-195.5209C360.1115,-204.0309 399.904,-216.2932 435,-225.5 443.8077,-227.8105 453.1751,-230.0854 462.3514,-232.2135"/>
<polygon fill="#191970" stroke="#191970" points="461.6702,-235.648 472.1982,-234.4599 463.2272,-228.8233 461.6702,-235.648"/>
</g>
<!-- Node9 -->
<g id="node9" class="node">
<title>Node9</title>
<g id="a_node9"><a xlink:href="../../da/daf/classG4Colour.html#a1033dc7cb160c6511e50fde593721c37" target="_top" xlink:title="G4Colour::GetRed">
<polygon fill="none" stroke="#000000" points="466.5,-195.5 466.5,-215.5 573.5,-215.5 573.5,-195.5 466.5,-195.5"/>
<text text-anchor="middle" x="520" y="-202.5" font-family="FreeSans" font-size="10.00" fill="#000000">G4Colour::GetRed</text>
</a>
</g>
</g>
<!-- Node2&#45;&gt;Node9 -->
<g id="edge8" class="edge">
<title>Node2&#45;&gt;Node9</title>
<path fill="none" stroke="#191970" d="M379.1824,-192.5513C404.3311,-194.8638 431.9925,-197.4074 456.0921,-199.6234"/>
<polygon fill="#191970" stroke="#191970" points="455.9062,-203.121 466.1847,-200.5515 456.5472,-196.1504 455.9062,-203.121"/>
</g>
<!-- Node10 -->
<g id="node10" class="node">
<title>Node10</title>
<g id="a_node10"><a xlink:href="../../da/daf/classG4Colour.html#a543e0ba465628b64087ee0a58d618a82" target="_top" xlink:title="G4Colour::GetGreen">
<polygon fill="none" stroke="#000000" points="461,-156.5 461,-176.5 579,-176.5 579,-156.5 461,-156.5"/>
<text text-anchor="middle" x="520" y="-163.5" font-family="FreeSans" font-size="10.00" fill="#000000">G4Colour::GetGreen</text>
</a>
</g>
</g>
<!-- Node2&#45;&gt;Node10 -->
<g id="edge9" class="edge">
<title>Node2&#45;&gt;Node10</title>
<path fill="none" stroke="#191970" d="M379.1824,-178.8013C402.4096,-176.7723 427.7802,-174.556 450.5084,-172.5705"/>
<polygon fill="#191970" stroke="#191970" points="451.0905,-176.0331 460.7479,-171.676 450.4812,-169.0597 451.0905,-176.0331"/>
</g>
<!-- Node11 -->
<g id="node11" class="node">
<title>Node11</title>
<g id="a_node11"><a xlink:href="../../da/daf/classG4Colour.html#ac9343f66efd8fefa2a409ece06db5163" target="_top" xlink:title="G4Colour::GetBlue">
<polygon fill="none" stroke="#000000" points="465,-117.5 465,-137.5 575,-137.5 575,-117.5 465,-117.5"/>
<text text-anchor="middle" x="520" y="-124.5" font-family="FreeSans" font-size="10.00" fill="#000000">G4Colour::GetBlue</text>
</a>
</g>
</g>
<!-- Node2&#45;&gt;Node11 -->
<g id="edge10" class="edge">
<title>Node2&#45;&gt;Node11</title>
<path fill="none" stroke="#191970" d="M367.3088,-175.4447C378.0388,-173.0128 388.939,-170.0591 399,-166.5 416.0559,-160.4664 418.0576,-153.8454 435,-147.5 442.287,-144.7708 450.0689,-142.332 457.8544,-140.1769"/>
<polygon fill="#191970" stroke="#191970" points="458.8968,-143.5219 467.6809,-137.5983 457.12,-136.7512 458.8968,-143.5219"/>
</g>
<!-- Node12 -->
<g id="node12" class="node">
<title>Node12</title>
<g id="a_node12"><a xlink:href="../../da/daf/classG4Colour.html#a950b1d36cb5efa313c932190ce04366d" target="_top" xlink:title="G4Colour::GetAlpha">
<polygon fill="none" stroke="#000000" points="462,-78.5 462,-98.5 578,-98.5 578,-78.5 462,-78.5"/>
<text text-anchor="middle" x="520" y="-85.5" font-family="FreeSans" font-size="10.00" fill="#000000">G4Colour::GetAlpha</text>
</a>
</g>
</g>
<!-- Node2&#45;&gt;Node12 -->
<g id="edge11" class="edge">
<title>Node2&#45;&gt;Node12</title>
<path fill="none" stroke="#191970" d="M379.2035,-176.5991C386.227,-173.9837 392.9603,-170.6751 399,-166.5 423.9569,-149.2476 410.3637,-126.2072 435,-108.5 440.1703,-104.7839 445.9319,-101.7488 451.9518,-99.2713"/>
<polygon fill="#191970" stroke="#191970" points="453.345,-102.49 461.5762,-95.8193 450.9817,-95.901 453.345,-102.49"/>
</g>
<!-- Node13 -->
<g id="node13" class="node">
<title>Node13</title>
<g id="a_node13"><a xlink:href="../../d8/dfc/classG4GDMLWrite.html#a1cf06b2ac1a7aaa25f556ab12480f449" target="_top" xlink:title="G4GDMLWrite::NewElement">
<polygon fill="none" stroke="#000000" points="441.5,-39.5 441.5,-59.5 598.5,-59.5 598.5,-39.5 441.5,-39.5"/>
<text text-anchor="middle" x="520" y="-46.5" font-family="FreeSans" font-size="10.00" fill="#000000">G4GDMLWrite::NewElement</text>
</a>
</g>
</g>
<!-- Node2&#45;&gt;Node13 -->
<g id="edge12" class="edge">
<title>Node2&#45;&gt;Node13</title>
<path fill="none" stroke="#191970" d="M379.1755,-178.2018C386.3707,-175.2944 393.1475,-171.4788 399,-166.5 434.0249,-136.7036 400.5275,-99.9338 435,-69.5 436.9888,-67.7442 439.103,-66.1349 441.3159,-64.6605"/>
<polygon fill="#191970" stroke="#191970" points="443.2851,-67.5686 450.2859,-59.6163 439.854,-61.4672 443.2851,-67.5686"/>
</g>
<!-- Node14 -->
<g id="node14" class="node">
<title>Node14</title>
<g id="a_node14"><a xlink:href="../../d8/dfc/classG4GDMLWrite.html#aa641dc958fb5078c33ac09c9485379f7" target="_top" xlink:title="G4GDMLWrite::NewAttribute">
<polygon fill="none" stroke="#000000" points="440.5,-.5 440.5,-20.5 599.5,-20.5 599.5,-.5 440.5,-.5"/>
<text text-anchor="middle" x="520" y="-7.5" font-family="FreeSans" font-size="10.00" fill="#000000">G4GDMLWrite::NewAttribute</text>
</a>
</g>
</g>
<!-- Node2&#45;&gt;Node14 -->
<g id="edge13" class="edge">
<title>Node2&#45;&gt;Node14</title>
<path fill="none" stroke="#191970" d="M379.2054,-178.9654C386.4837,-175.9276 393.2702,-171.8724 399,-166.5 444.6125,-123.7328 390.1796,-74.0966 435,-30.5 436.6776,-28.8682 438.462,-27.3605 440.3341,-25.9678"/>
<polygon fill="#191970" stroke="#191970" points="442.3886,-28.8123 449.0461,-20.5705 438.702,-22.8617 442.3886,-28.8123"/>
</g>
<!-- Node4 -->
<g id="node4" class="node">
<title>Node4</title>
<g id="a_node4"><a xlink:href="../../dc/de5/PHG4mRICHDetector_8cc.html#a11ded6fc3d3fab0e72612c3886df87a0" target="_top" xlink:title="pos">
<polygon fill="none" stroke="#000000" points="679,-351.5 679,-371.5 713,-371.5 713,-351.5 679,-351.5"/>
<text text-anchor="middle" x="696" y="-358.5" font-family="FreeSans" font-size="10.00" fill="#000000">pos</text>
</a>
</g>
</g>
<!-- Node3&#45;&gt;Node4 -->
<g id="edge3" class="edge">
<title>Node3&#45;&gt;Node4</title>
<path fill="none" stroke="#191970" d="M605.1645,-361.5C628.0532,-361.5 651.1979,-361.5 668.3962,-361.5"/>
<polygon fill="#191970" stroke="#191970" points="668.7769,-365.0001 678.7769,-361.5 668.7769,-358.0001 668.7769,-365.0001"/>
</g>
<!-- Node8 -->
<g id="node8" class="node">
<title>Node8</title>
<g id="a_node8"><a xlink:href="../../d5/d72/classG4String.html#a2d1a2d77f4af63b9592e015a21e9ff33" target="_top" xlink:title="G4String::contains">
<polygon fill="none" stroke="#000000" points="641,-234.5 641,-254.5 751,-254.5 751,-234.5 641,-234.5"/>
<text text-anchor="middle" x="696" y="-241.5" font-family="FreeSans" font-size="10.00" fill="#000000">G4String::contains</text>
</a>
</g>
</g>
<!-- Node7&#45;&gt;Node8 -->
<g id="edge7" class="edge">
<title>Node7&#45;&gt;Node8</title>
<path fill="none" stroke="#191970" d="M605.1645,-244.5C613.7729,-244.5 622.4176,-244.5 630.7685,-244.5"/>
<polygon fill="#191970" stroke="#191970" points="630.7869,-248.0001 640.7869,-244.5 630.7869,-241.0001 630.7869,-248.0001"/>
</g>
</g>
</svg>
