<?xml version="1.0" encoding="UTF-8" standalone="no"?>
<!DOCTYPE svg PUBLIC "-//W3C//DTD SVG 1.1//EN"
 "http://www.w3.org/Graphics/SVG/1.1/DTD/svg11.dtd">
<!-- Generated by graphviz version 2.40.1 (20161225.0304)
 -->
<!-- Title: G4FTFPPiKBuilder::Build Pages: 1 -->
<svg width="1656pt" height="787pt"
 viewBox="0.00 0.00 1656.00 787.00" xmlns="http://www.w3.org/2000/svg" xmlns:xlink="http://www.w3.org/1999/xlink">
<g id="graph0" class="graph" transform="scale(1 1) rotate(0) translate(4 783)">
<title>G4FTFPPiKBuilder::Build</title>
<!-- Node1 -->
<g id="node1" class="node">
<title>Node1</title>
<polygon fill="#bfbfbf" stroke="#000000" points="0,-225.5 0,-245.5 137,-245.5 137,-225.5 0,-225.5"/>
<text text-anchor="middle" x="68.5" y="-232.5" font-family="FreeSans" font-size="10.00" fill="#000000">G4FTFPPiKBuilder::Build</text>
</g>
<!-- Node2 -->
<g id="node2" class="node">
<title>Node2</title>
<g id="a_node2"><a xlink:href="../../de/dc6/classG4HadronicProcess.html#a2ae3ff37fc62b04c8a3f2ab5082f6a19" target="_top" xlink:title="G4HadronicProcess::\lAddDataSet">
<polygon fill="none" stroke="#000000" points="178,-616.5 178,-648.5 298,-648.5 298,-616.5 178,-616.5"/>
<text text-anchor="start" x="186" y="-635.5" font-family="FreeSans" font-size="10.00" fill="#000000">G4HadronicProcess::</text>
<text text-anchor="middle" x="238" y="-623.5" font-family="FreeSans" font-size="10.00" fill="#000000">AddDataSet</text>
</a>
</g>
</g>
<!-- Node1&#45;&gt;Node2 -->
<g id="edge1" class="edge">
<title>Node1&#45;&gt;Node2</title>
<path fill="none" stroke="#191970" d="M71.2828,-245.6386C81.9123,-283.7305 121.9345,-421.5135 173,-527.5 186.8618,-556.2702 206.599,-587.1091 220.6811,-607.8687"/>
<polygon fill="#191970" stroke="#191970" points="217.9799,-610.1182 226.5239,-616.3833 223.7517,-606.1575 217.9799,-610.1182"/>
</g>
<!-- Node5 -->
<g id="node5" class="node">
<title>Node5</title>
<g id="a_node5"><a xlink:href="../../d0/dc2/classG4PionPlus.html#a5cfffef14b8502c5a679b10ff926734f" target="_top" xlink:title="G4PionPlus::Definition">
<polygon fill="none" stroke="#000000" points="174,-497.5 174,-517.5 302,-517.5 302,-497.5 174,-497.5"/>
<text text-anchor="middle" x="238" y="-504.5" font-family="FreeSans" font-size="10.00" fill="#000000">G4PionPlus::Definition</text>
</a>
</g>
</g>
<!-- Node1&#45;&gt;Node5 -->
<g id="edge4" class="edge">
<title>Node1&#45;&gt;Node5</title>
<path fill="none" stroke="#191970" d="M74.7336,-245.5032C99.7547,-285.655 193.1333,-435.5015 226.2562,-488.6545"/>
<polygon fill="#191970" stroke="#191970" points="223.4504,-490.7699 231.7097,-497.4058 229.3913,-487.0678 223.4504,-490.7699"/>
</g>
<!-- Node27 -->
<g id="node27" class="node">
<title>Node27</title>
<g id="a_node27"><a xlink:href="../../de/dc6/classG4HadronicProcess.html#aeb2675ad54cae9f75863ab3c993684f3" target="_top" xlink:title="G4HadronicProcess::\lRegisterMe">
<polygon fill="none" stroke="#000000" points="178,-219.5 178,-251.5 298,-251.5 298,-219.5 178,-219.5"/>
<text text-anchor="start" x="186" y="-238.5" font-family="FreeSans" font-size="10.00" fill="#000000">G4HadronicProcess::</text>
<text text-anchor="middle" x="238" y="-226.5" font-family="FreeSans" font-size="10.00" fill="#000000">RegisterMe</text>
</a>
</g>
</g>
<!-- Node1&#45;&gt;Node27 -->
<g id="edge30" class="edge">
<title>Node1&#45;&gt;Node27</title>
<path fill="none" stroke="#191970" d="M137.4421,-235.5C147.3737,-235.5 157.6056,-235.5 167.5658,-235.5"/>
<polygon fill="#191970" stroke="#191970" points="167.8231,-239.0001 177.8231,-235.5 167.823,-232.0001 167.8231,-239.0001"/>
</g>
<!-- Node39 -->
<g id="node39" class="node">
<title>Node39</title>
<g id="a_node39"><a xlink:href="../../db/d92/classG4HadronicInteraction.html#ae85559157298afaf484e452864caef56" target="_top" xlink:title="G4HadronicInteraction\l::SetMaxEnergy">
<polygon fill="none" stroke="#000000" points="173,-168.5 173,-200.5 303,-200.5 303,-168.5 173,-168.5"/>
<text text-anchor="start" x="181" y="-187.5" font-family="FreeSans" font-size="10.00" fill="#000000">G4HadronicInteraction</text>
<text text-anchor="middle" x="238" y="-175.5" font-family="FreeSans" font-size="10.00" fill="#000000">::SetMaxEnergy</text>
</a>
</g>
</g>
<!-- Node1&#45;&gt;Node39 -->
<g id="edge44" class="edge">
<title>Node1&#45;&gt;Node39</title>
<path fill="none" stroke="#191970" d="M101.9877,-225.424C122.77,-219.171 150.1398,-210.9358 174.8757,-203.4932"/>
<polygon fill="#191970" stroke="#191970" points="175.998,-206.8105 184.5655,-200.5777 173.9811,-200.1074 175.998,-206.8105"/>
</g>
<!-- Node40 -->
<g id="node40" class="node">
<title>Node40</title>
<g id="a_node40"><a xlink:href="../../db/d92/classG4HadronicInteraction.html#a5b04006721fab073f09f22acc5b1e6f7" target="_top" xlink:title="G4HadronicInteraction\l::SetMinEnergy">
<polygon fill="none" stroke="#000000" points="173,-117.5 173,-149.5 303,-149.5 303,-117.5 173,-117.5"/>
<text text-anchor="start" x="181" y="-136.5" font-family="FreeSans" font-size="10.00" fill="#000000">G4HadronicInteraction</text>
<text text-anchor="middle" x="238" y="-124.5" font-family="FreeSans" font-size="10.00" fill="#000000">::SetMinEnergy</text>
</a>
</g>
</g>
<!-- Node1&#45;&gt;Node40 -->
<g id="edge45" class="edge">
<title>Node1&#45;&gt;Node40</title>
<path fill="none" stroke="#191970" d="M80.0185,-225.3806C98.5585,-209.4831 136.6326,-178.4196 173,-158.5 176.0073,-156.8528 179.1459,-155.2638 182.35,-153.7402"/>
<polygon fill="#191970" stroke="#191970" points="183.8134,-156.9198 191.4979,-149.626 180.9422,-150.5358 183.8134,-156.9198"/>
</g>
<!-- Node3 -->
<g id="node3" class="node">
<title>Node3</title>
<g id="a_node3"><a xlink:href="../../de/da5/classG4CrossSectionDataStore.html#a43f038f695cb05d1d660df1831611a77" target="_top" xlink:title="G4CrossSectionDataStore\l::AddDataSet">
<polygon fill="none" stroke="#000000" points="350,-668.5 350,-700.5 496,-700.5 496,-668.5 350,-668.5"/>
<text text-anchor="start" x="358" y="-687.5" font-family="FreeSans" font-size="10.00" fill="#000000">G4CrossSectionDataStore</text>
<text text-anchor="middle" x="423" y="-675.5" font-family="FreeSans" font-size="10.00" fill="#000000">::AddDataSet</text>
</a>
</g>
</g>
<!-- Node2&#45;&gt;Node3 -->
<g id="edge2" class="edge">
<title>Node2&#45;&gt;Node3</title>
<path fill="none" stroke="#191970" d="M295.0156,-648.526C314.3579,-653.9628 336.1401,-660.0853 356.1766,-665.7172"/>
<polygon fill="#191970" stroke="#191970" points="355.2801,-669.1008 365.8542,-668.4374 357.1743,-662.3619 355.2801,-669.1008"/>
</g>
<!-- Node4 -->
<g id="node4" class="node">
<title>Node4</title>
<g id="a_node4"><a xlink:href="../../da/d21/classG4VCrossSectionDataSet.html#acff5e43c817476a346cb553de23faa73" target="_top" xlink:title="G4VCrossSectionDataSet\l::ForAllAtomsAndEnergies">
<polygon fill="none" stroke="#000000" points="553.5,-668.5 553.5,-700.5 700.5,-700.5 700.5,-668.5 553.5,-668.5"/>
<text text-anchor="start" x="561.5" y="-687.5" font-family="FreeSans" font-size="10.00" fill="#000000">G4VCrossSectionDataSet</text>
<text text-anchor="middle" x="627" y="-675.5" font-family="FreeSans" font-size="10.00" fill="#000000">::ForAllAtomsAndEnergies</text>
</a>
</g>
</g>
<!-- Node3&#45;&gt;Node4 -->
<g id="edge3" class="edge">
<title>Node3&#45;&gt;Node4</title>
<path fill="none" stroke="#191970" d="M496.0725,-684.5C511.3593,-684.5 527.5911,-684.5 543.2318,-684.5"/>
<polygon fill="#191970" stroke="#191970" points="543.4088,-688.0001 553.4088,-684.5 543.4087,-681.0001 543.4088,-688.0001"/>
</g>
<!-- Node6 -->
<g id="node6" class="node">
<title>Node6</title>
<g id="a_node6"><a xlink:href="../../d8/dd3/classG4ParticleTable.html#a8bb5b636696da4abae3ca7ea0ea5af95" target="_top" xlink:title="G4ParticleTable::GetParticle\lTable">
<polygon fill="none" stroke="#000000" points="345,-617.5 345,-649.5 501,-649.5 501,-617.5 345,-617.5"/>
<text text-anchor="start" x="353" y="-636.5" font-family="FreeSans" font-size="10.00" fill="#000000">G4ParticleTable::GetParticle</text>
<text text-anchor="middle" x="423" y="-624.5" font-family="FreeSans" font-size="10.00" fill="#000000">Table</text>
</a>
</g>
</g>
<!-- Node5&#45;&gt;Node6 -->
<g id="edge5" class="edge">
<title>Node5&#45;&gt;Node6</title>
<path fill="none" stroke="#191970" d="M245.3949,-517.7549C260.6012,-538.1029 297.4587,-583.7492 339,-608.5 341.8103,-610.1744 344.7411,-611.7439 347.7522,-613.2143"/>
<polygon fill="#191970" stroke="#191970" points="346.4284,-616.4562 356.9868,-617.3341 349.2803,-610.0635 346.4284,-616.4562"/>
</g>
<!-- Node13 -->
<g id="node13" class="node">
<title>Node13</title>
<g id="a_node13"><a xlink:href="../../d8/dd3/classG4ParticleTable.html#a891da3f41417c3800e7596fab298c3c5" target="_top" xlink:title="G4ParticleTable::FindParticle">
<polygon fill="none" stroke="#000000" points="1154,-527.5 1154,-547.5 1313,-547.5 1313,-527.5 1154,-527.5"/>
<text text-anchor="middle" x="1233.5" y="-534.5" font-family="FreeSans" font-size="10.00" fill="#000000">G4ParticleTable::FindParticle</text>
</a>
</g>
</g>
<!-- Node5&#45;&gt;Node13 -->
<g id="edge12" class="edge">
<title>Node5&#45;&gt;Node13</title>
<path fill="none" stroke="#191970" d="M302.2405,-515.5C379.2726,-524.3871 512.3581,-537.5 627,-537.5 627,-537.5 627,-537.5 832.5,-537.5 939.4871,-537.5 1062.5304,-537.5 1143.7986,-537.5"/>
<polygon fill="#191970" stroke="#191970" points="1143.9923,-541.0001 1153.9923,-537.5 1143.9923,-534.0001 1143.9923,-541.0001"/>
</g>
<!-- Node17 -->
<g id="node17" class="node">
<title>Node17</title>
<g id="a_node17"><a xlink:href="../../d5/d38/classG4ParticleDefinition.html#a62ed9b48da6b7fd47ba568dd9777007f" target="_top" xlink:title="G4ParticleDefinition\l::G4ParticleDefinition">
<polygon fill="none" stroke="#000000" points="1172,-365.5 1172,-397.5 1295,-397.5 1295,-365.5 1172,-365.5"/>
<text text-anchor="start" x="1180" y="-384.5" font-family="FreeSans" font-size="10.00" fill="#000000">G4ParticleDefinition</text>
<text text-anchor="middle" x="1233.5" y="-372.5" font-family="FreeSans" font-size="10.00" fill="#000000">::G4ParticleDefinition</text>
</a>
</g>
</g>
<!-- Node5&#45;&gt;Node17 -->
<g id="edge17" class="edge">
<title>Node5&#45;&gt;Node17</title>
<path fill="none" stroke="#191970" d="M253.9543,-497.3525C305.6411,-465.4831 474.0091,-369.5 627,-369.5 627,-369.5 627,-369.5 832.5,-369.5 947.7171,-369.5 1081.4723,-374.5107 1161.6969,-378.0564"/>
<polygon fill="#191970" stroke="#191970" points="1161.5449,-381.5531 1171.6911,-378.5028 1161.8573,-374.56 1161.5449,-381.5531"/>
</g>
<!-- Node18 -->
<g id="node18" class="node">
<title>Node18</title>
<g id="a_node18"><a xlink:href="../../db/d89/classG4DecayTable.html#a3edb3d6c42c02f3554e3121f5f079f6f" target="_top" xlink:title="G4DecayTable::Insert">
<polygon fill="none" stroke="#000000" points="360.5,-468.5 360.5,-488.5 485.5,-488.5 485.5,-468.5 360.5,-468.5"/>
<text text-anchor="middle" x="423" y="-475.5" font-family="FreeSans" font-size="10.00" fill="#000000">G4DecayTable::Insert</text>
</a>
</g>
</g>
<!-- Node5&#45;&gt;Node18 -->
<g id="edge19" class="edge">
<title>Node5&#45;&gt;Node18</title>
<path fill="none" stroke="#191970" d="M301.9256,-497.4792C317.4325,-495.0484 334.1275,-492.4314 350.0175,-489.9405"/>
<polygon fill="#191970" stroke="#191970" points="350.9853,-493.3316 360.3226,-488.3251 349.9012,-486.4161 350.9853,-493.3316"/>
</g>
<!-- Node26 -->
<g id="node26" class="node">
<title>Node26</title>
<g id="a_node26"><a xlink:href="../../d5/d38/classG4ParticleDefinition.html#ad3c610e90b4ba111581b30943d66cfea" target="_top" xlink:title="G4ParticleDefinition\l::SetDecayTable">
<polygon fill="none" stroke="#000000" points="365,-566.5 365,-598.5 481,-598.5 481,-566.5 365,-566.5"/>
<text text-anchor="start" x="373" y="-585.5" font-family="FreeSans" font-size="10.00" fill="#000000">G4ParticleDefinition</text>
<text text-anchor="middle" x="423" y="-573.5" font-family="FreeSans" font-size="10.00" fill="#000000">::SetDecayTable</text>
</a>
</g>
</g>
<!-- Node5&#45;&gt;Node26 -->
<g id="edge29" class="edge">
<title>Node5&#45;&gt;Node26</title>
<path fill="none" stroke="#191970" d="M260.3091,-517.6572C280.6722,-526.8234 311.6706,-540.5146 339,-551.5 348.4111,-555.2829 358.4818,-559.1513 368.2645,-562.8159"/>
<polygon fill="#191970" stroke="#191970" points="367.3232,-566.1999 377.9161,-566.4019 369.7612,-559.6382 367.3232,-566.1999"/>
</g>
<!-- Node7 -->
<g id="node7" class="node">
<title>Node7</title>
<g id="a_node7"><a xlink:href="../../d8/dd3/classG4ParticleTable.html#aba540bf07478ff0c30af3ee28d843041" target="_top" xlink:title="G4ParticleTable::WorkerG4\lParticleTable">
<polygon fill="none" stroke="#000000" points="551.5,-617.5 551.5,-649.5 702.5,-649.5 702.5,-617.5 551.5,-617.5"/>
<text text-anchor="start" x="559.5" y="-636.5" font-family="FreeSans" font-size="10.00" fill="#000000">G4ParticleTable::WorkerG4</text>
<text text-anchor="middle" x="627" y="-624.5" font-family="FreeSans" font-size="10.00" fill="#000000">ParticleTable</text>
</a>
</g>
</g>
<!-- Node6&#45;&gt;Node7 -->
<g id="edge6" class="edge">
<title>Node6&#45;&gt;Node7</title>
<path fill="none" stroke="#191970" d="M501.2883,-633.5C514.3609,-633.5 527.9835,-633.5 541.2313,-633.5"/>
<polygon fill="#191970" stroke="#191970" points="541.2735,-637.0001 551.2735,-633.5 541.2735,-630.0001 541.2735,-637.0001"/>
</g>
<!-- Node8 -->
<g id="node8" class="node">
<title>Node8</title>
<g id="a_node8"><a xlink:href="../../d4/d96/classG4ParticleTableIterator.html#ae35fb8d216907e4b1614fd52f2d50f84" target="_top" xlink:title="G4ParticleTableIterator\l::reset">
<polygon fill="none" stroke="#000000" points="766.5,-617.5 766.5,-649.5 898.5,-649.5 898.5,-617.5 766.5,-617.5"/>
<text text-anchor="start" x="774.5" y="-636.5" font-family="FreeSans" font-size="10.00" fill="#000000">G4ParticleTableIterator</text>
<text text-anchor="middle" x="832.5" y="-624.5" font-family="FreeSans" font-size="10.00" fill="#000000">::reset</text>
</a>
</g>
</g>
<!-- Node7&#45;&gt;Node8 -->
<g id="edge7" class="edge">
<title>Node7&#45;&gt;Node8</title>
<path fill="none" stroke="#191970" d="M702.6451,-633.5C720.1522,-633.5 738.7899,-633.5 756.3198,-633.5"/>
<polygon fill="#191970" stroke="#191970" points="756.4962,-637.0001 766.4962,-633.5 756.4961,-630.0001 756.4962,-637.0001"/>
</g>
<!-- Node9 -->
<g id="node9" class="node">
<title>Node9</title>
<g id="a_node9"><a xlink:href="../../d4/d96/classG4ParticleTableIterator.html#a7220383ce5a9ddecb53331a2ecdd90d5" target="_top" xlink:title="G4ParticleTableIterator\l::value">
<polygon fill="none" stroke="#000000" points="766.5,-566.5 766.5,-598.5 898.5,-598.5 898.5,-566.5 766.5,-566.5"/>
<text text-anchor="start" x="774.5" y="-585.5" font-family="FreeSans" font-size="10.00" fill="#000000">G4ParticleTableIterator</text>
<text text-anchor="middle" x="832.5" y="-573.5" font-family="FreeSans" font-size="10.00" fill="#000000">::value</text>
</a>
</g>
</g>
<!-- Node7&#45;&gt;Node9 -->
<g id="edge8" class="edge">
<title>Node7&#45;&gt;Node9</title>
<path fill="none" stroke="#191970" d="M691.7394,-617.4333C712.7562,-612.2174 736.2429,-606.3886 757.9174,-601.0096"/>
<polygon fill="#191970" stroke="#191970" points="758.8705,-604.3793 767.733,-598.5736 757.1844,-597.5854 758.8705,-604.3793"/>
</g>
<!-- Node10 -->
<g id="node10" class="node">
<title>Node10</title>
<g id="a_node10"><a xlink:href="../../d8/dd3/classG4ParticleTable.html#ad3150940809a36b87123558264d30108" target="_top" xlink:title="G4ParticleTable::GetKey">
<polygon fill="none" stroke="#000000" points="1372,-650.5 1372,-670.5 1509,-670.5 1509,-650.5 1372,-650.5"/>
<text text-anchor="middle" x="1440.5" y="-657.5" font-family="FreeSans" font-size="10.00" fill="#000000">G4ParticleTable::GetKey</text>
</a>
</g>
</g>
<!-- Node7&#45;&gt;Node10 -->
<g id="edge9" class="edge">
<title>Node7&#45;&gt;Node10</title>
<path fill="none" stroke="#191970" d="M691.4113,-649.5382C698.26,-652.3731 704.9315,-655.6719 711,-659.5 730.9511,-672.0856 725.3913,-689.039 747,-698.5 857.3377,-746.8093 1217.8258,-696.5732 1370.8256,-672.1809"/>
<polygon fill="#191970" stroke="#191970" points="1371.7188,-675.5824 1381.0379,-670.5419 1370.6096,-668.6708 1371.7188,-675.5824"/>
</g>
<!-- Node11 -->
<g id="node11" class="node">
<title>Node11</title>
<g id="a_node11"><a xlink:href="../../d5/d38/classG4ParticleDefinition.html#af84019c7513ca66581ed8b3651934467" target="_top" xlink:title="G4ParticleDefinition\l::GetPDGEncoding">
<polygon fill="none" stroke="#000000" points="774.5,-746.5 774.5,-778.5 890.5,-778.5 890.5,-746.5 774.5,-746.5"/>
<text text-anchor="start" x="782.5" y="-765.5" font-family="FreeSans" font-size="10.00" fill="#000000">G4ParticleDefinition</text>
<text text-anchor="middle" x="832.5" y="-753.5" font-family="FreeSans" font-size="10.00" fill="#000000">::GetPDGEncoding</text>
</a>
</g>
</g>
<!-- Node7&#45;&gt;Node11 -->
<g id="edge10" class="edge">
<title>Node7&#45;&gt;Node11</title>
<path fill="none" stroke="#191970" d="M695.9601,-649.5701C701.3545,-652.366 706.4604,-655.6479 711,-659.5 738.2793,-682.6482 720.28,-707.7083 747,-731.5 752.4318,-736.3365 758.6769,-740.4361 765.267,-743.9075"/>
<polygon fill="#191970" stroke="#191970" points="763.8891,-747.1279 774.4231,-748.262 766.8955,-740.8063 763.8891,-747.1279"/>
</g>
<!-- Node12 -->
<g id="node12" class="node">
<title>Node12</title>
<g id="a_node12"><a xlink:href="../../da/d2b/classG4IonTable.html#a66f8ee295224ed611872572a0e47ab6e" target="_top" xlink:title="G4IonTable::WorkerG4IonTable">
<polygon fill="none" stroke="#000000" points="747,-668.5 747,-688.5 918,-688.5 918,-668.5 747,-668.5"/>
<text text-anchor="middle" x="832.5" y="-675.5" font-family="FreeSans" font-size="10.00" fill="#000000">G4IonTable::WorkerG4IonTable</text>
</a>
</g>
</g>
<!-- Node7&#45;&gt;Node12 -->
<g id="edge11" class="edge">
<title>Node7&#45;&gt;Node12</title>
<path fill="none" stroke="#191970" d="M700.3199,-649.5555C725.5345,-655.0769 753.3315,-661.1638 776.9016,-666.3252"/>
<polygon fill="#191970" stroke="#191970" points="776.2071,-669.756 786.7244,-668.4761 777.7046,-662.918 776.2071,-669.756"/>
</g>
<!-- Node13&#45;&gt;Node10 -->
<g id="edge16" class="edge">
<title>Node13&#45;&gt;Node10</title>
<path fill="none" stroke="#191970" d="M1250.4397,-547.5656C1286.6925,-569.1071 1371.9785,-619.7843 1414.8909,-645.283"/>
<polygon fill="#191970" stroke="#191970" points="1413.2318,-648.3684 1423.6166,-650.4678 1416.8076,-642.3506 1413.2318,-648.3684"/>
</g>
<!-- Node14 -->
<g id="node14" class="node">
<title>Node14</title>
<g id="a_node14"><a xlink:href="../../d8/dd3/classG4ParticleTable.html#a5dcd173398768b18c5ba132bbd8f427b" target="_top" xlink:title="G4ParticleTable::CheckReadiness">
<polygon fill="none" stroke="#000000" points="1349,-508.5 1349,-528.5 1532,-528.5 1532,-508.5 1349,-508.5"/>
<text text-anchor="middle" x="1440.5" y="-515.5" font-family="FreeSans" font-size="10.00" fill="#000000">G4ParticleTable::CheckReadiness</text>
</a>
</g>
</g>
<!-- Node13&#45;&gt;Node14 -->
<g id="edge13" class="edge">
<title>Node13&#45;&gt;Node14</title>
<path fill="none" stroke="#191970" d="M1313.2355,-530.1813C1321.5852,-529.4149 1330.1531,-528.6285 1338.7054,-527.8435"/>
<polygon fill="#191970" stroke="#191970" points="1339.0857,-531.3234 1348.7239,-526.9239 1338.4458,-524.3527 1339.0857,-531.3234"/>
</g>
<!-- Node16 -->
<g id="node16" class="node">
<title>Node16</title>
<g id="a_node16"><a xlink:href="../../d7/d23/namespaceG4Threading.html#a4bce96528c21592b91483fb2ab5b6215" target="_top" xlink:title="G4Threading::IsWorkerThread">
<polygon fill="none" stroke="#000000" points="1356.5,-547.5 1356.5,-567.5 1524.5,-567.5 1524.5,-547.5 1356.5,-547.5"/>
<text text-anchor="middle" x="1440.5" y="-554.5" font-family="FreeSans" font-size="10.00" fill="#000000">G4Threading::IsWorkerThread</text>
</a>
</g>
</g>
<!-- Node13&#45;&gt;Node16 -->
<g id="edge15" class="edge">
<title>Node13&#45;&gt;Node16</title>
<path fill="none" stroke="#191970" d="M1313.2355,-545.2039C1324.0481,-546.2486 1335.2266,-547.3287 1346.2634,-548.395"/>
<polygon fill="#191970" stroke="#191970" points="1346.0545,-551.891 1356.3448,-549.3691 1346.7278,-544.9235 1346.0545,-551.891"/>
</g>
<!-- Node15 -->
<g id="node15" class="node">
<title>Node15</title>
<g id="a_node15"><a xlink:href="../../d5/d4f/G4Exception_8hh.html#ad36b5da5d062a20ca47b1c1f1ae353dd" target="_top" xlink:title="G4Exception">
<polygon fill="none" stroke="#000000" points="1568,-444.5 1568,-464.5 1648,-464.5 1648,-444.5 1568,-444.5"/>
<text text-anchor="middle" x="1608" y="-451.5" font-family="FreeSans" font-size="10.00" fill="#000000">G4Exception</text>
</a>
</g>
</g>
<!-- Node14&#45;&gt;Node15 -->
<g id="edge14" class="edge">
<title>Node14&#45;&gt;Node15</title>
<path fill="none" stroke="#191970" d="M1484.3841,-508.4838C1499.6756,-504.4776 1516.8027,-499.4017 1532,-493.5 1549.2374,-486.806 1567.7128,-477.3809 1582.131,-469.4731"/>
<polygon fill="#191970" stroke="#191970" points="1583.9416,-472.4708 1590.9662,-464.5396 1580.5288,-466.3591 1583.9416,-472.4708"/>
</g>
<!-- Node17&#45;&gt;Node15 -->
<g id="edge18" class="edge">
<title>Node17&#45;&gt;Node15</title>
<path fill="none" stroke="#191970" d="M1295.3411,-393.5545C1368.8508,-407.8835 1490.0833,-431.5149 1557.9692,-444.7477"/>
<polygon fill="#191970" stroke="#191970" points="1557.5036,-448.2227 1567.9885,-446.7007 1558.8429,-441.352 1557.5036,-448.2227"/>
</g>
<!-- Node19 -->
<g id="node19" class="node">
<title>Node19</title>
<g id="a_node19"><a xlink:href="../../df/d2d/classG4VDecayChannel.html#a5d58c7fe44af8cd34c06d1887ef9e75b" target="_top" xlink:title="G4VDecayChannel::GetBR">
<polygon fill="none" stroke="#000000" points="552,-449.5 552,-469.5 702,-469.5 702,-449.5 552,-449.5"/>
<text text-anchor="middle" x="627" y="-456.5" font-family="FreeSans" font-size="10.00" fill="#000000">G4VDecayChannel::GetBR</text>
</a>
</g>
</g>
<!-- Node18&#45;&gt;Node19 -->
<g id="edge20" class="edge">
<title>Node18&#45;&gt;Node19</title>
<path fill="none" stroke="#191970" d="M485.5931,-472.6703C503.3641,-471.0151 523.021,-469.1843 541.8854,-467.4273"/>
<polygon fill="#191970" stroke="#191970" points="542.3318,-470.901 551.9641,-466.4886 541.6826,-463.9312 542.3318,-470.901"/>
</g>
<!-- Node20 -->
<g id="node20" class="node">
<title>Node20</title>
<g id="a_node20"><a xlink:href="../../df/d2d/classG4VDecayChannel.html#ac39f0f3b9b175652872f0a54e7c28c12" target="_top" xlink:title="G4VDecayChannel::GetParent">
<polygon fill="none" stroke="#000000" points="543,-488.5 543,-508.5 711,-508.5 711,-488.5 543,-488.5"/>
<text text-anchor="middle" x="627" y="-495.5" font-family="FreeSans" font-size="10.00" fill="#000000">G4VDecayChannel::GetParent</text>
</a>
</g>
</g>
<!-- Node18&#45;&gt;Node20 -->
<g id="edge21" class="edge">
<title>Node18&#45;&gt;Node20</title>
<path fill="none" stroke="#191970" d="M485.5931,-484.6366C500.389,-486.0872 516.4921,-487.6659 532.3566,-489.2212"/>
<polygon fill="#191970" stroke="#191970" points="532.4375,-492.7459 542.7313,-490.2384 533.1206,-485.7793 532.4375,-492.7459"/>
</g>
<!-- Node25 -->
<g id="node25" class="node">
<title>Node25</title>
<g id="a_node25"><a xlink:href="../../d5/d38/classG4ParticleDefinition.html#a02a571907ec0c42bf356545826d9234f" target="_top" xlink:title="G4ParticleDefinition\l::GetParticleName">
<polygon fill="none" stroke="#000000" points="569,-398.5 569,-430.5 685,-430.5 685,-398.5 569,-398.5"/>
<text text-anchor="start" x="577" y="-417.5" font-family="FreeSans" font-size="10.00" fill="#000000">G4ParticleDefinition</text>
<text text-anchor="middle" x="627" y="-405.5" font-family="FreeSans" font-size="10.00" fill="#000000">::GetParticleName</text>
</a>
</g>
</g>
<!-- Node18&#45;&gt;Node25 -->
<g id="edge28" class="edge">
<title>Node18&#45;&gt;Node25</title>
<path fill="none" stroke="#191970" d="M453.5125,-468.351C477.7259,-460.3534 512.4623,-449.005 543,-439.5 549.3447,-437.5252 555.9692,-435.4966 562.5934,-433.4901"/>
<polygon fill="#191970" stroke="#191970" points="563.7014,-436.8117 572.2659,-430.5748 561.6813,-430.1095 563.7014,-436.8117"/>
</g>
<!-- Node21 -->
<g id="node21" class="node">
<title>Node21</title>
<g id="a_node21"><a xlink:href="../../df/d2d/classG4VDecayChannel.html#a1c515b1f4f1f9e5aafe3d0e10cb5b643" target="_top" xlink:title="G4VDecayChannel::CheckAnd\lFillParent">
<polygon fill="none" stroke="#000000" points="748.5,-473.5 748.5,-505.5 916.5,-505.5 916.5,-473.5 748.5,-473.5"/>
<text text-anchor="start" x="756.5" y="-492.5" font-family="FreeSans" font-size="10.00" fill="#000000">G4VDecayChannel::CheckAnd</text>
<text text-anchor="middle" x="832.5" y="-480.5" font-family="FreeSans" font-size="10.00" fill="#000000">FillParent</text>
</a>
</g>
</g>
<!-- Node20&#45;&gt;Node21 -->
<g id="edge22" class="edge">
<title>Node20&#45;&gt;Node21</title>
<path fill="none" stroke="#191970" d="M711.1777,-494.8134C720.117,-494.4219 729.2503,-494.0219 738.2947,-493.6258"/>
<polygon fill="#191970" stroke="#191970" points="738.616,-497.1152 748.4533,-493.1809 738.3097,-490.1219 738.616,-497.1152"/>
</g>
<!-- Node22 -->
<g id="node22" class="node">
<title>Node22</title>
<g id="a_node22"><a xlink:href="../../d7/d27/classG4TemplateAutoLock.html#a1fc2695a8c9b5527f9f3c62b32a2c172" target="_top" xlink:title="G4TemplateAutoLock\l::unlock">
<polygon fill="none" stroke="#000000" points="974,-428.5 974,-460.5 1098,-460.5 1098,-428.5 974,-428.5"/>
<text text-anchor="start" x="982" y="-447.5" font-family="FreeSans" font-size="10.00" fill="#000000">G4TemplateAutoLock</text>
<text text-anchor="middle" x="1036" y="-435.5" font-family="FreeSans" font-size="10.00" fill="#000000">::unlock</text>
</a>
</g>
</g>
<!-- Node21&#45;&gt;Node22 -->
<g id="edge23" class="edge">
<title>Node21&#45;&gt;Node22</title>
<path fill="none" stroke="#191970" d="M905.1063,-473.4445C924.255,-469.2102 944.9077,-464.6433 964.0231,-460.4163"/>
<polygon fill="#191970" stroke="#191970" points="964.8546,-463.817 973.863,-458.2404 963.3431,-456.9822 964.8546,-463.817"/>
</g>
<!-- Node23 -->
<g id="node23" class="node">
<title>Node23</title>
<g id="a_node23"><a xlink:href="../../df/d2d/classG4VDecayChannel.html#a58f654382302cd3c1c6894bd5a8c8565" target="_top" xlink:title="G4VDecayChannel::FillParent">
<polygon fill="none" stroke="#000000" points="954,-479.5 954,-499.5 1118,-499.5 1118,-479.5 954,-479.5"/>
<text text-anchor="middle" x="1036" y="-486.5" font-family="FreeSans" font-size="10.00" fill="#000000">G4VDecayChannel::FillParent</text>
</a>
</g>
</g>
<!-- Node21&#45;&gt;Node23 -->
<g id="edge24" class="edge">
<title>Node21&#45;&gt;Node23</title>
<path fill="none" stroke="#191970" d="M916.7402,-489.5C925.6381,-489.5 934.7201,-489.5 943.7031,-489.5"/>
<polygon fill="#191970" stroke="#191970" points="943.7879,-493.0001 953.7879,-489.5 943.7878,-486.0001 943.7879,-493.0001"/>
</g>
<!-- Node23&#45;&gt;Node13 -->
<g id="edge26" class="edge">
<title>Node23&#45;&gt;Node13</title>
<path fill="none" stroke="#191970" d="M1077.4025,-499.5624C1107.9498,-506.9865 1149.7012,-517.1337 1182.3384,-525.0658"/>
<polygon fill="#191970" stroke="#191970" points="1181.6083,-528.4902 1192.152,-527.4509 1183.2615,-521.6882 1181.6083,-528.4902"/>
</g>
<!-- Node23&#45;&gt;Node15 -->
<g id="edge25" class="edge">
<title>Node23&#45;&gt;Node15</title>
<path fill="none" stroke="#191970" d="M1118.258,-484.4667C1238.5866,-477.104 1458.9946,-463.6175 1557.7805,-457.5729"/>
<polygon fill="#191970" stroke="#191970" points="1558.0341,-461.064 1567.8016,-456.9597 1557.6065,-454.0771 1558.0341,-461.064"/>
</g>
<!-- Node24 -->
<g id="node24" class="node">
<title>Node24</title>
<g id="a_node24"><a xlink:href="../../d5/d38/classG4ParticleDefinition.html#ad823b2f7c489766de74c562e2a3909bf" target="_top" xlink:title="G4ParticleDefinition\l::GetPDGMass">
<polygon fill="none" stroke="#000000" points="1175.5,-418.5 1175.5,-450.5 1291.5,-450.5 1291.5,-418.5 1175.5,-418.5"/>
<text text-anchor="start" x="1183.5" y="-437.5" font-family="FreeSans" font-size="10.00" fill="#000000">G4ParticleDefinition</text>
<text text-anchor="middle" x="1233.5" y="-425.5" font-family="FreeSans" font-size="10.00" fill="#000000">::GetPDGMass</text>
</a>
</g>
</g>
<!-- Node23&#45;&gt;Node24 -->
<g id="edge27" class="edge">
<title>Node23&#45;&gt;Node24</title>
<path fill="none" stroke="#191970" d="M1079.0976,-479.4596C1091.6756,-476.4022 1105.4196,-472.9375 1118,-469.5 1135.9915,-464.5839 1155.4358,-458.8549 1173.1474,-453.4727"/>
<polygon fill="#191970" stroke="#191970" points="1174.2486,-456.796 1182.7887,-450.5256 1172.2023,-450.1018 1174.2486,-456.796"/>
</g>
<!-- Node27&#45;&gt;Node15 -->
<g id="edge35" class="edge">
<title>Node27&#45;&gt;Node15</title>
<path fill="none" stroke="#191970" d="M253.3547,-251.6976C271.757,-269.9071 304.4604,-298.6092 339,-311.5 459.209,-356.3643 498.6917,-331.5 627,-331.5 627,-331.5 627,-331.5 1233.5,-331.5 1369.7657,-331.5 1407.5579,-345.9797 1532,-401.5 1552.8762,-410.814 1573.9946,-426.1194 1588.6533,-437.8942"/>
<polygon fill="#191970" stroke="#191970" points="1586.5431,-440.6905 1596.4869,-444.3471 1590.9937,-435.2876 1586.5431,-440.6905"/>
</g>
<!-- Node28 -->
<g id="node28" class="node">
<title>Node28</title>
<g id="a_node28"><a xlink:href="../../d0/d09/classG4EnergyRangeManager.html#a159b7ee41cecf5f4315cd1cccec2da1d" target="_top" xlink:title="G4EnergyRangeManager\l::RegisterMe">
<polygon fill="none" stroke="#000000" points="351.5,-270.5 351.5,-302.5 494.5,-302.5 494.5,-270.5 351.5,-270.5"/>
<text text-anchor="start" x="359.5" y="-289.5" font-family="FreeSans" font-size="10.00" fill="#000000">G4EnergyRangeManager</text>
<text text-anchor="middle" x="423" y="-277.5" font-family="FreeSans" font-size="10.00" fill="#000000">::RegisterMe</text>
</a>
</g>
</g>
<!-- Node27&#45;&gt;Node28 -->
<g id="edge31" class="edge">
<title>Node27&#45;&gt;Node28</title>
<path fill="none" stroke="#191970" d="M296.2812,-251.5667C314.8606,-256.6886 335.584,-262.4015 354.8012,-267.6993"/>
<polygon fill="#191970" stroke="#191970" points="354.1234,-271.1429 364.694,-270.4264 355.9838,-264.3946 354.1234,-271.1429"/>
</g>
<!-- Node29 -->
<g id="node29" class="node">
<title>Node29</title>
<g id="a_node29"><a xlink:href="../../dd/d0d/classG4HadronicException.html#a6ecb8442f0e20bc0bf2f823606a07bb0" target="_top" xlink:title="G4HadronicException\l::Report">
<polygon fill="none" stroke="#000000" points="360.5,-219.5 360.5,-251.5 485.5,-251.5 485.5,-219.5 360.5,-219.5"/>
<text text-anchor="start" x="368.5" y="-238.5" font-family="FreeSans" font-size="10.00" fill="#000000">G4HadronicException</text>
<text text-anchor="middle" x="423" y="-226.5" font-family="FreeSans" font-size="10.00" fill="#000000">::Report</text>
</a>
</g>
</g>
<!-- Node27&#45;&gt;Node29 -->
<g id="edge32" class="edge">
<title>Node27&#45;&gt;Node29</title>
<path fill="none" stroke="#191970" d="M298.0642,-235.5C314.7332,-235.5 333.0113,-235.5 350.3182,-235.5"/>
<polygon fill="#191970" stroke="#191970" points="350.3765,-239.0001 360.3765,-235.5 350.3765,-232.0001 350.3765,-239.0001"/>
</g>
<!-- Node30 -->
<g id="node30" class="node">
<title>Node30</title>
<g id="a_node30"><a xlink:href="../../d2/d84/classG4VProcess.html#a9f7dc4cdc99786b5697c69952e9e2add" target="_top" xlink:title="G4VProcess::GetProcessName">
<polygon fill="none" stroke="#000000" points="339,-180.5 339,-200.5 507,-200.5 507,-180.5 339,-180.5"/>
<text text-anchor="middle" x="423" y="-187.5" font-family="FreeSans" font-size="10.00" fill="#000000">G4VProcess::GetProcessName</text>
</a>
</g>
</g>
<!-- Node27&#45;&gt;Node30 -->
<g id="edge33" class="edge">
<title>Node27&#45;&gt;Node30</title>
<path fill="none" stroke="#191970" d="M298.01,-219.7413C311.4776,-216.2913 325.7124,-212.7123 339,-209.5 348.2762,-207.2575 358.1486,-204.952 367.7432,-202.7545"/>
<polygon fill="#191970" stroke="#191970" points="368.6305,-206.1422 377.6047,-200.5107 367.0773,-199.3166 368.6305,-206.1422"/>
</g>
<!-- Node31 -->
<g id="node31" class="node">
<title>Node31</title>
<g id="a_node31"><a xlink:href="../../db/d92/classG4HadronicInteraction.html#ab5d00b0fa99a5da9656a52cad9a042cc" target="_top" xlink:title="G4HadronicInteraction\l::GetModelName">
<polygon fill="none" stroke="#000000" points="562,-113.5 562,-145.5 692,-145.5 692,-113.5 562,-113.5"/>
<text text-anchor="start" x="570" y="-132.5" font-family="FreeSans" font-size="10.00" fill="#000000">G4HadronicInteraction</text>
<text text-anchor="middle" x="627" y="-120.5" font-family="FreeSans" font-size="10.00" fill="#000000">::GetModelName</text>
</a>
</g>
</g>
<!-- Node27&#45;&gt;Node31 -->
<g id="edge34" class="edge">
<title>Node27&#45;&gt;Node31</title>
<path fill="none" stroke="#191970" d="M285.4462,-219.4343C291.5767,-216.5303 297.5941,-213.2218 303,-209.5 322.4296,-196.1234 318.1137,-181.4639 339,-170.5 374.9287,-151.6399 479.2274,-140.3024 551.9077,-134.4747"/>
<polygon fill="#191970" stroke="#191970" points="552.2468,-137.959 561.943,-133.6888 551.7002,-130.9803 552.2468,-137.959"/>
</g>
<!-- Node32 -->
<g id="node32" class="node">
<title>Node32</title>
<g id="a_node32"><a xlink:href="../../da/d41/classG4HadronicProcessStore.html#aa8c636c772b4d43429b6903a161d7eeb" target="_top" xlink:title="G4HadronicProcessStore\l::Instance">
<polygon fill="none" stroke="#000000" points="353,-39.5 353,-71.5 493,-71.5 493,-39.5 353,-39.5"/>
<text text-anchor="start" x="361" y="-58.5" font-family="FreeSans" font-size="10.00" fill="#000000">G4HadronicProcessStore</text>
<text text-anchor="middle" x="423" y="-46.5" font-family="FreeSans" font-size="10.00" fill="#000000">::Instance</text>
</a>
</g>
</g>
<!-- Node27&#45;&gt;Node32 -->
<g id="edge36" class="edge">
<title>Node27&#45;&gt;Node32</title>
<path fill="none" stroke="#191970" d="M291.1793,-219.3355C295.5514,-216.5525 299.5912,-213.2997 303,-209.5 342.7488,-165.1926 297.2721,-122.9487 339,-80.5 340.6466,-78.8249 342.4001,-77.261 344.2416,-75.8008"/>
<polygon fill="#191970" stroke="#191970" points="346.4693,-78.5209 352.8208,-70.0409 342.5674,-72.7092 346.4693,-78.5209"/>
</g>
<!-- Node38 -->
<g id="node38" class="node">
<title>Node38</title>
<g id="a_node38"><a xlink:href="../../da/d41/classG4HadronicProcessStore.html#aac32aadb53ee234b81ae20159bc91e3c" target="_top" xlink:title="G4HadronicProcessStore\l::RegisterInteraction">
<polygon fill="none" stroke="#000000" points="353,-90.5 353,-122.5 493,-122.5 493,-90.5 353,-90.5"/>
<text text-anchor="start" x="361" y="-109.5" font-family="FreeSans" font-size="10.00" fill="#000000">G4HadronicProcessStore</text>
<text text-anchor="middle" x="423" y="-97.5" font-family="FreeSans" font-size="10.00" fill="#000000">::RegisterInteraction</text>
</a>
</g>
</g>
<!-- Node27&#45;&gt;Node38 -->
<g id="edge42" class="edge">
<title>Node27&#45;&gt;Node38</title>
<path fill="none" stroke="#191970" d="M289.1526,-219.3589C294.1514,-216.5503 298.8858,-213.2856 303,-209.5 329.3277,-185.275 312.3481,-161.3679 339,-137.5 343.1977,-133.7408 347.8909,-130.4246 352.8551,-127.5013"/>
<polygon fill="#191970" stroke="#191970" points="354.8269,-130.4181 362.0349,-122.6531 351.5578,-124.2284 354.8269,-130.4181"/>
</g>
<!-- Node33 -->
<g id="node33" class="node">
<title>Node33</title>
<g id="a_node33"><a xlink:href="../../d5/dd7/classG4ThreadLocalSingleton.html#a47059d0f59f2f9b8a970f73b6ec4c4c2" target="_top" xlink:title="G4ThreadLocalSingleton\l::Instance">
<polygon fill="none" stroke="#000000" points="557,-39.5 557,-71.5 697,-71.5 697,-39.5 557,-39.5"/>
<text text-anchor="start" x="565" y="-58.5" font-family="FreeSans" font-size="10.00" fill="#000000">G4ThreadLocalSingleton</text>
<text text-anchor="middle" x="627" y="-46.5" font-family="FreeSans" font-size="10.00" fill="#000000">::Instance</text>
</a>
</g>
</g>
<!-- Node32&#45;&gt;Node33 -->
<g id="edge37" class="edge">
<title>Node32&#45;&gt;Node33</title>
<path fill="none" stroke="#191970" d="M493.2052,-55.5C510.3546,-55.5 528.8364,-55.5 546.4276,-55.5"/>
<polygon fill="#191970" stroke="#191970" points="546.6654,-59.0001 556.6654,-55.5 546.6653,-52.0001 546.6654,-59.0001"/>
</g>
<!-- Node34 -->
<g id="node34" class="node">
<title>Node34</title>
<g id="a_node34"><a xlink:href="../../da/dc8/classG4Cache.html#a70890f74a94670d28d3282c1d8e60840" target="_top" xlink:title="G4Cache::Get">
<polygon fill="none" stroke="#000000" points="789,-84.5 789,-104.5 876,-104.5 876,-84.5 789,-84.5"/>
<text text-anchor="middle" x="832.5" y="-91.5" font-family="FreeSans" font-size="10.00" fill="#000000">G4Cache::Get</text>
</a>
</g>
</g>
<!-- Node33&#45;&gt;Node34 -->
<g id="edge38" class="edge">
<title>Node33&#45;&gt;Node34</title>
<path fill="none" stroke="#191970" d="M697.1467,-68.8125C723.9213,-73.8938 753.9909,-79.6005 778.9758,-84.3421"/>
<polygon fill="#191970" stroke="#191970" points="778.5141,-87.8169 788.9914,-86.2429 779.8193,-80.9397 778.5141,-87.8169"/>
</g>
<!-- Node35 -->
<g id="node35" class="node">
<title>Node35</title>
<g id="a_node35"><a xlink:href="../../da/dc8/classG4Cache.html#af35fe0499dd94627a5119e1e82639016" target="_top" xlink:title="G4Cache::Put">
<polygon fill="none" stroke="#000000" points="790,-45.5 790,-65.5 875,-65.5 875,-45.5 790,-45.5"/>
<text text-anchor="middle" x="832.5" y="-52.5" font-family="FreeSans" font-size="10.00" fill="#000000">G4Cache::Put</text>
</a>
</g>
</g>
<!-- Node33&#45;&gt;Node35 -->
<g id="edge39" class="edge">
<title>Node33&#45;&gt;Node35</title>
<path fill="none" stroke="#191970" d="M697.1467,-55.5C724.2278,-55.5 754.6799,-55.5 779.832,-55.5"/>
<polygon fill="#191970" stroke="#191970" points="779.9037,-59.0001 789.9037,-55.5 779.9037,-52.0001 779.9037,-59.0001"/>
</g>
<!-- Node36 -->
<g id="node36" class="node">
<title>Node36</title>
<g id="a_node36"><a xlink:href="../../dc/d02/namespaceG4AutoDelete.html#ad9f605c8057f73fbe433da3bbd7d3936" target="_top" xlink:title="G4AutoDelete::Register">
<polygon fill="none" stroke="#000000" points="764.5,-6.5 764.5,-26.5 900.5,-26.5 900.5,-6.5 764.5,-6.5"/>
<text text-anchor="middle" x="832.5" y="-13.5" font-family="FreeSans" font-size="10.00" fill="#000000">G4AutoDelete::Register</text>
</a>
</g>
</g>
<!-- Node33&#45;&gt;Node36 -->
<g id="edge40" class="edge">
<title>Node33&#45;&gt;Node36</title>
<path fill="none" stroke="#191970" d="M697.1467,-42.1875C720.6447,-37.728 746.6807,-32.7869 769.5901,-28.4391"/>
<polygon fill="#191970" stroke="#191970" points="770.3649,-31.8546 779.5369,-26.5514 769.0597,-24.9774 770.3649,-31.8546"/>
</g>
<!-- Node37 -->
<g id="node37" class="node">
<title>Node37</title>
<g id="a_node37"><a xlink:href="../../d5/dd7/classG4ThreadLocalSingleton.html#ac51b4a79569468a146e91b3803f80d84" target="_top" xlink:title="G4ThreadLocalSingleton\l::Register">
<polygon fill="none" stroke="#000000" points="966,-.5 966,-32.5 1106,-32.5 1106,-.5 966,-.5"/>
<text text-anchor="start" x="974" y="-19.5" font-family="FreeSans" font-size="10.00" fill="#000000">G4ThreadLocalSingleton</text>
<text text-anchor="middle" x="1036" y="-7.5" font-family="FreeSans" font-size="10.00" fill="#000000">::Register</text>
</a>
</g>
</g>
<!-- Node36&#45;&gt;Node37 -->
<g id="edge41" class="edge">
<title>Node36&#45;&gt;Node37</title>
<path fill="none" stroke="#191970" d="M900.5455,-16.5C918.2888,-16.5 937.5737,-16.5 955.8793,-16.5"/>
<polygon fill="#191970" stroke="#191970" points="955.9324,-20.0001 965.9324,-16.5 955.9323,-13.0001 955.9324,-20.0001"/>
</g>
<!-- Node38&#45;&gt;Node31 -->
<g id="edge43" class="edge">
<title>Node38&#45;&gt;Node31</title>
<path fill="none" stroke="#191970" d="M493.2052,-114.4153C512.0605,-116.5411 532.5263,-118.8486 551.6484,-121.0045"/>
<polygon fill="#191970" stroke="#191970" points="551.4819,-124.5078 561.8111,-122.1503 552.2662,-117.5519 551.4819,-124.5078"/>
</g>
</g>
</svg>
