<?xml version="1.0" encoding="UTF-8" standalone="no"?>
<!DOCTYPE svg PUBLIC "-//W3C//DTD SVG 1.1//EN"
 "http://www.w3.org/Graphics/SVG/1.1/DTD/svg11.dtd">
<!-- Generated by graphviz version 2.40.1 (20161225.0304)
 -->
<!-- Title: G4EmParameters::SetLPM Pages: 1 -->
<svg width="351pt" height="92pt"
 viewBox="0.00 0.00 351.00 92.00" xmlns="http://www.w3.org/2000/svg" xmlns:xlink="http://www.w3.org/1999/xlink">
<g id="graph0" class="graph" transform="scale(1 1) rotate(0) translate(4 88)">
<title>G4EmParameters::SetLPM</title>
<!-- Node1 -->
<g id="node1" class="node">
<title>Node1</title>
<polygon fill="#bfbfbf" stroke="#000000" points="0,-31.5 0,-51.5 147,-51.5 147,-31.5 0,-31.5"/>
<text text-anchor="middle" x="73.5" y="-38.5" font-family="FreeSans" font-size="10.00" fill="#000000">G4EmParameters::SetLPM</text>
</g>
<!-- Node2 -->
<g id="node2" class="node">
<title>Node2</title>
<g id="a_node2"><a xlink:href="../../d7/d22/classG4EmProcessOptions.html#a6bbf2d2f1f637d40b847e25da1339d27" target="_top" xlink:title="G4EmProcessOptions\l::SetLPMFlag">
<polygon fill="none" stroke="#000000" points="201,-51.5 201,-83.5 325,-83.5 325,-51.5 201,-51.5"/>
<text text-anchor="start" x="209" y="-70.5" font-family="FreeSans" font-size="10.00" fill="#000000">G4EmProcessOptions</text>
<text text-anchor="middle" x="263" y="-58.5" font-family="FreeSans" font-size="10.00" fill="#000000">::SetLPMFlag</text>
</a>
</g>
</g>
<!-- Node1&#45;&gt;Node2 -->
<g id="edge1" class="edge">
<title>Node1&#45;&gt;Node2</title>
<path fill="none" stroke="#191970" d="M156.6798,-52.9125C171.5066,-54.9468 186.7171,-57.0337 200.8297,-58.97"/>
<polygon fill="#191970" stroke="#191970" points="156.8776,-49.407 146.4946,-51.5151 155.926,-56.342 156.8776,-49.407"/>
</g>
<!-- Node3 -->
<g id="node3" class="node">
<title>Node3</title>
<g id="a_node3"><a xlink:href="../../dd/dd1/classG4EmParametersMessenger.html#aadcff58ef9dae69f57c902da84e1009c" target="_top" xlink:title="G4EmParametersMessenger\l::SetNewValue">
<polygon fill="none" stroke="#000000" points="183,-.5 183,-32.5 343,-32.5 343,-.5 183,-.5"/>
<text text-anchor="start" x="191" y="-19.5" font-family="FreeSans" font-size="10.00" fill="#000000">G4EmParametersMessenger</text>
<text text-anchor="middle" x="263" y="-7.5" font-family="FreeSans" font-size="10.00" fill="#000000">::SetNewValue</text>
</a>
</g>
</g>
<!-- Node1&#45;&gt;Node3 -->
<g id="edge2" class="edge">
<title>Node1&#45;&gt;Node3</title>
<path fill="none" stroke="#191970" d="M157.0479,-30.4778C165.6393,-29.3444 174.3553,-28.1946 182.908,-27.0662"/>
<polygon fill="#191970" stroke="#191970" points="156.4932,-27.0206 147.0369,-31.7986 157.4088,-33.9605 156.4932,-27.0206"/>
</g>
</g>
</svg>
