<?xml version="1.0" encoding="UTF-8" standalone="no"?>
<!DOCTYPE svg PUBLIC "-//W3C//DTD SVG 1.1//EN"
 "http://www.w3.org/Graphics/SVG/1.1/DTD/svg11.dtd">
<!-- Generated by graphviz version 2.40.1 (20161225.0304)
 -->
<!-- Title: G4ExtrudedSolid::Inside Pages: 1 -->
<svg width="902pt" height="656pt"
 viewBox="0.00 0.00 902.00 656.00" xmlns="http://www.w3.org/2000/svg" xmlns:xlink="http://www.w3.org/1999/xlink">
<g id="graph0" class="graph" transform="scale(1 1) rotate(0) translate(4 652)">
<title>G4ExtrudedSolid::Inside</title>
<!-- Node1 -->
<g id="node1" class="node">
<title>Node1</title>
<polygon fill="#bfbfbf" stroke="#000000" points="0,-310.5 0,-330.5 138,-330.5 138,-310.5 0,-310.5"/>
<text text-anchor="middle" x="69" y="-317.5" font-family="FreeSans" font-size="10.00" fill="#000000">G4ExtrudedSolid::Inside</text>
</g>
<!-- Node2 -->
<g id="node2" class="node">
<title>Node2</title>
<g id="a_node2"><a xlink:href="../../da/d21/classG4ExtrudedSolid.html#a82a3eb4a03ea966ec2f08c0608c78b20" target="_top" xlink:title="G4ExtrudedSolid::Distance\lToPolygonSqr">
<polygon fill="none" stroke="#000000" points="174,-615.5 174,-647.5 326,-647.5 326,-615.5 174,-615.5"/>
<text text-anchor="start" x="182" y="-634.5" font-family="FreeSans" font-size="10.00" fill="#000000">G4ExtrudedSolid::Distance</text>
<text text-anchor="middle" x="250" y="-622.5" font-family="FreeSans" font-size="10.00" fill="#000000">ToPolygonSqr</text>
</a>
</g>
</g>
<!-- Node1&#45;&gt;Node2 -->
<g id="edge1" class="edge">
<title>Node1&#45;&gt;Node2</title>
<path fill="none" stroke="#191970" d="M69.9227,-330.6948C74.0664,-370.6766 94.3966,-518.593 174,-600.5 177.5707,-604.174 181.6374,-607.4275 185.9905,-610.3061"/>
<polygon fill="#191970" stroke="#191970" points="184.2631,-613.3505 194.6594,-615.3917 187.8051,-607.3128 184.2631,-613.3505"/>
</g>
<!-- Node3 -->
<g id="node3" class="node">
<title>Node3</title>
<g id="a_node3"><a xlink:href="../../da/db4/classG4TessellatedSolid.html#a147b8ac5a3d2133b528622d639e34e6c" target="_top" xlink:title="G4TessellatedSolid\l::GetMaxXExtent">
<polygon fill="none" stroke="#000000" points="194.5,-525.5 194.5,-557.5 305.5,-557.5 305.5,-525.5 194.5,-525.5"/>
<text text-anchor="start" x="202.5" y="-544.5" font-family="FreeSans" font-size="10.00" fill="#000000">G4TessellatedSolid</text>
<text text-anchor="middle" x="250" y="-532.5" font-family="FreeSans" font-size="10.00" fill="#000000">::GetMaxXExtent</text>
</a>
</g>
</g>
<!-- Node1&#45;&gt;Node3 -->
<g id="edge2" class="edge">
<title>Node1&#45;&gt;Node3</title>
<path fill="none" stroke="#191970" d="M71.5619,-330.757C80.1558,-363.0531 111.0262,-463.6307 174,-516.5 177.4441,-519.3914 181.2325,-521.9514 185.2232,-524.2174"/>
<polygon fill="#191970" stroke="#191970" points="183.7181,-527.378 194.2272,-528.7233 186.8508,-521.1181 183.7181,-527.378"/>
</g>
<!-- Node4 -->
<g id="node4" class="node">
<title>Node4</title>
<g id="a_node4"><a xlink:href="../../da/dcf/classCLHEP_1_1Hep3Vector.html#a86646a7299d9b55d1ee3a27b578d30ec" target="_top" xlink:title="CLHEP::Hep3Vector::x">
<polygon fill="none" stroke="#000000" points="381.5,-505.5 381.5,-525.5 508.5,-525.5 508.5,-505.5 381.5,-505.5"/>
<text text-anchor="middle" x="445" y="-512.5" font-family="FreeSans" font-size="10.00" fill="#000000">CLHEP::Hep3Vector::x</text>
</a>
</g>
</g>
<!-- Node1&#45;&gt;Node4 -->
<g id="edge32" class="edge">
<title>Node1&#45;&gt;Node4</title>
<path fill="none" stroke="#191970" d="M69.5926,-330.6903C72.4823,-369.8216 88.6971,-511.0718 174,-567.5 252.8029,-619.6284 371.0314,-560.5729 421.166,-530.7079"/>
<polygon fill="#191970" stroke="#191970" points="422.9897,-533.6953 429.71,-525.5045 419.3487,-527.7167 422.9897,-533.6953"/>
</g>
<!-- Node5 -->
<g id="node5" class="node">
<title>Node5</title>
<g id="a_node5"><a xlink:href="../../da/db4/classG4TessellatedSolid.html#a5aa3b73046dd0129978467464425a7e6" target="_top" xlink:title="G4TessellatedSolid\l::GetMaxYExtent">
<polygon fill="none" stroke="#000000" points="194.5,-282.5 194.5,-314.5 305.5,-314.5 305.5,-282.5 194.5,-282.5"/>
<text text-anchor="start" x="202.5" y="-301.5" font-family="FreeSans" font-size="10.00" fill="#000000">G4TessellatedSolid</text>
<text text-anchor="middle" x="250" y="-289.5" font-family="FreeSans" font-size="10.00" fill="#000000">::GetMaxYExtent</text>
</a>
</g>
</g>
<!-- Node1&#45;&gt;Node5 -->
<g id="edge4" class="edge">
<title>Node1&#45;&gt;Node5</title>
<path fill="none" stroke="#191970" d="M138.2031,-312.0886C153.2852,-310.2554 169.2039,-308.3205 184.1514,-306.5037"/>
<polygon fill="#191970" stroke="#191970" points="184.8177,-309.9486 194.3223,-305.2675 183.973,-302.9997 184.8177,-309.9486"/>
</g>
<!-- Node6 -->
<g id="node6" class="node">
<title>Node6</title>
<g id="a_node6"><a xlink:href="../../da/dcf/classCLHEP_1_1Hep3Vector.html#a86ef096e76d7db9e0ea8e10eb742a576" target="_top" xlink:title="CLHEP::Hep3Vector::y">
<polygon fill="none" stroke="#000000" points="381.5,-355.5 381.5,-375.5 508.5,-375.5 508.5,-355.5 381.5,-355.5"/>
<text text-anchor="middle" x="445" y="-362.5" font-family="FreeSans" font-size="10.00" fill="#000000">CLHEP::Hep3Vector::y</text>
</a>
</g>
</g>
<!-- Node1&#45;&gt;Node6 -->
<g id="edge33" class="edge">
<title>Node1&#45;&gt;Node6</title>
<path fill="none" stroke="#191970" d="M138.4024,-328.8061C204.5025,-336.7171 303.663,-348.5847 371.1868,-356.666"/>
<polygon fill="#191970" stroke="#191970" points="370.9818,-360.1663 381.3269,-357.8795 371.8137,-353.2159 370.9818,-360.1663"/>
</g>
<!-- Node7 -->
<g id="node7" class="node">
<title>Node7</title>
<g id="a_node7"><a xlink:href="../../da/db4/classG4TessellatedSolid.html#a4074012782f5733d0523430bcba10681" target="_top" xlink:title="G4TessellatedSolid\l::GetMaxZExtent">
<polygon fill="none" stroke="#000000" points="194.5,-192.5 194.5,-224.5 305.5,-224.5 305.5,-192.5 194.5,-192.5"/>
<text text-anchor="start" x="202.5" y="-211.5" font-family="FreeSans" font-size="10.00" fill="#000000">G4TessellatedSolid</text>
<text text-anchor="middle" x="250" y="-199.5" font-family="FreeSans" font-size="10.00" fill="#000000">::GetMaxZExtent</text>
</a>
</g>
</g>
<!-- Node1&#45;&gt;Node7 -->
<g id="edge6" class="edge">
<title>Node1&#45;&gt;Node7</title>
<path fill="none" stroke="#191970" d="M79.9334,-310.4342C98.2735,-293.94 136.8842,-260.8589 174,-239.5 180.7736,-235.602 188.1331,-231.9514 195.5165,-228.6211"/>
<polygon fill="#191970" stroke="#191970" points="197.0565,-231.7683 204.8393,-224.5794 194.2722,-225.3458 197.0565,-231.7683"/>
</g>
<!-- Node8 -->
<g id="node8" class="node">
<title>Node8</title>
<g id="a_node8"><a xlink:href="../../da/dcf/classCLHEP_1_1Hep3Vector.html#a2dcfdfeae86f250117ea40f086bb231a" target="_top" xlink:title="CLHEP::Hep3Vector::z">
<polygon fill="none" stroke="#000000" points="382,-227.5 382,-247.5 508,-247.5 508,-227.5 382,-227.5"/>
<text text-anchor="middle" x="445" y="-234.5" font-family="FreeSans" font-size="10.00" fill="#000000">CLHEP::Hep3Vector::z</text>
</a>
</g>
</g>
<!-- Node1&#45;&gt;Node8 -->
<g id="edge34" class="edge">
<title>Node1&#45;&gt;Node8</title>
<path fill="none" stroke="#191970" d="M87.3528,-310.3155C107.8424,-299.4198 142.2975,-282.4952 174,-273.5 239.4434,-254.9313 316.555,-245.8703 371.755,-241.4914"/>
<polygon fill="#191970" stroke="#191970" points="372.0937,-244.9758 381.7993,-240.727 371.5625,-237.996 372.0937,-244.9758"/>
</g>
<!-- Node9 -->
<g id="node9" class="node">
<title>Node9</title>
<g id="a_node9"><a xlink:href="../../da/db4/classG4TessellatedSolid.html#a41164655ba662c64b09d0504626f0763" target="_top" xlink:title="G4TessellatedSolid\l::GetMinXExtent">
<polygon fill="none" stroke="#000000" points="194.5,-474.5 194.5,-506.5 305.5,-506.5 305.5,-474.5 194.5,-474.5"/>
<text text-anchor="start" x="202.5" y="-493.5" font-family="FreeSans" font-size="10.00" fill="#000000">G4TessellatedSolid</text>
<text text-anchor="middle" x="250" y="-481.5" font-family="FreeSans" font-size="10.00" fill="#000000">::GetMinXExtent</text>
</a>
</g>
</g>
<!-- Node1&#45;&gt;Node9 -->
<g id="edge8" class="edge">
<title>Node1&#45;&gt;Node9</title>
<path fill="none" stroke="#191970" d="M73.5351,-330.611C85.8148,-356.8559 122.2999,-427.7313 174,-465.5 177.4699,-468.0349 181.2111,-470.3222 185.1073,-472.3848"/>
<polygon fill="#191970" stroke="#191970" points="183.8897,-475.6808 194.4252,-476.8003 186.8873,-469.3551 183.8897,-475.6808"/>
</g>
<!-- Node10 -->
<g id="node10" class="node">
<title>Node10</title>
<g id="a_node10"><a xlink:href="../../da/db4/classG4TessellatedSolid.html#ad806054608b2fb8b8c24f00a0d55f490" target="_top" xlink:title="G4TessellatedSolid\l::GetMinYExtent">
<polygon fill="none" stroke="#000000" points="194.5,-372.5 194.5,-404.5 305.5,-404.5 305.5,-372.5 194.5,-372.5"/>
<text text-anchor="start" x="202.5" y="-391.5" font-family="FreeSans" font-size="10.00" fill="#000000">G4TessellatedSolid</text>
<text text-anchor="middle" x="250" y="-379.5" font-family="FreeSans" font-size="10.00" fill="#000000">::GetMinYExtent</text>
</a>
</g>
</g>
<!-- Node1&#45;&gt;Node10 -->
<g id="edge10" class="edge">
<title>Node1&#45;&gt;Node10</title>
<path fill="none" stroke="#191970" d="M95.7072,-330.5336C122.4681,-340.5875 164.3706,-356.3298 197.7584,-368.8733"/>
<polygon fill="#191970" stroke="#191970" points="196.782,-372.2453 207.3741,-372.4858 199.2438,-365.6925 196.782,-372.2453"/>
</g>
<!-- Node11 -->
<g id="node11" class="node">
<title>Node11</title>
<g id="a_node11"><a xlink:href="../../da/db4/classG4TessellatedSolid.html#af337b8eb28817a8f442e5d71618d64fa" target="_top" xlink:title="G4TessellatedSolid\l::GetMinZExtent">
<polygon fill="none" stroke="#000000" points="194.5,-141.5 194.5,-173.5 305.5,-173.5 305.5,-141.5 194.5,-141.5"/>
<text text-anchor="start" x="202.5" y="-160.5" font-family="FreeSans" font-size="10.00" fill="#000000">G4TessellatedSolid</text>
<text text-anchor="middle" x="250" y="-148.5" font-family="FreeSans" font-size="10.00" fill="#000000">::GetMinZExtent</text>
</a>
</g>
</g>
<!-- Node1&#45;&gt;Node11 -->
<g id="edge12" class="edge">
<title>Node1&#45;&gt;Node11</title>
<path fill="none" stroke="#191970" d="M74.0926,-310.2552C87.1582,-284.9919 124.3611,-219.1814 174,-183.5 177.4395,-181.0276 181.1327,-178.776 184.971,-176.7274"/>
<polygon fill="#191970" stroke="#191970" points="186.6512,-179.8029 194.1394,-172.3077 183.6115,-173.4973 186.6512,-179.8029"/>
</g>
<!-- Node12 -->
<g id="node12" class="node">
<title>Node12</title>
<g id="a_node12"><a xlink:href="../../da/d21/classG4ExtrudedSolid.html#aafd410f3a8d4a516a67f1df0f4143b8a" target="_top" xlink:title="G4ExtrudedSolid::IsPoint\lInside">
<polygon fill="none" stroke="#000000" points="179,-51.5 179,-83.5 321,-83.5 321,-51.5 179,-51.5"/>
<text text-anchor="start" x="187" y="-70.5" font-family="FreeSans" font-size="10.00" fill="#000000">G4ExtrudedSolid::IsPoint</text>
<text text-anchor="middle" x="250" y="-58.5" font-family="FreeSans" font-size="10.00" fill="#000000">Inside</text>
</a>
</g>
</g>
<!-- Node1&#45;&gt;Node12 -->
<g id="edge14" class="edge">
<title>Node1&#45;&gt;Node12</title>
<path fill="none" stroke="#191970" d="M71.0953,-310.091C78.6197,-275.2734 107.4406,-161.5274 174,-98.5 177.9448,-94.7646 182.4002,-91.4542 187.1267,-88.5251"/>
<polygon fill="#191970" stroke="#191970" points="188.8401,-91.5771 195.8753,-83.6551 185.4355,-85.4608 188.8401,-91.5771"/>
</g>
<!-- Node16 -->
<g id="node16" class="node">
<title>Node16</title>
<g id="a_node16"><a xlink:href="../../da/d21/classG4ExtrudedSolid.html#a02326d9f4d95b8f36f48d71bf8eea93d" target="_top" xlink:title="G4ExtrudedSolid::IsSameLine\lSegment">
<polygon fill="none" stroke="#000000" points="362,-96.5 362,-128.5 528,-128.5 528,-96.5 362,-96.5"/>
<text text-anchor="start" x="370" y="-115.5" font-family="FreeSans" font-size="10.00" fill="#000000">G4ExtrudedSolid::IsSameLine</text>
<text text-anchor="middle" x="445" y="-103.5" font-family="FreeSans" font-size="10.00" fill="#000000">Segment</text>
</a>
</g>
</g>
<!-- Node1&#45;&gt;Node16 -->
<g id="edge26" class="edge">
<title>Node1&#45;&gt;Node16</title>
<path fill="none" stroke="#191970" d="M71.104,-310.4523C78.4916,-277.9846 106.5402,-175.5073 174,-132.5 226.1481,-99.2543 295.9503,-94.8127 351.652,-98.3932"/>
<polygon fill="#191970" stroke="#191970" points="351.6502,-101.9026 361.8812,-99.15 352.1667,-94.9217 351.6502,-101.9026"/>
</g>
<!-- Node18 -->
<g id="node18" class="node">
<title>Node18</title>
<g id="a_node18"><a xlink:href="../../da/d21/classG4ExtrudedSolid.html#a37534b94f2f124ccaec1ca65aeffd61a" target="_top" xlink:title="G4ExtrudedSolid::PointIn\lPolygon">
<polygon fill="none" stroke="#000000" points="179,-.5 179,-32.5 321,-32.5 321,-.5 179,-.5"/>
<text text-anchor="start" x="187" y="-19.5" font-family="FreeSans" font-size="10.00" fill="#000000">G4ExtrudedSolid::PointIn</text>
<text text-anchor="middle" x="250" y="-7.5" font-family="FreeSans" font-size="10.00" fill="#000000">Polygon</text>
</a>
</g>
</g>
<!-- Node1&#45;&gt;Node18 -->
<g id="edge27" class="edge">
<title>Node1&#45;&gt;Node18</title>
<path fill="none" stroke="#191970" d="M69.7452,-310.4486C73.2554,-270.3895 91.6238,-120.4751 174,-41.5 175.0966,-40.4486 176.2383,-39.4415 177.4192,-38.4766"/>
<polygon fill="#191970" stroke="#191970" points="179.5081,-41.2871 185.7192,-32.7039 175.5111,-35.5404 179.5081,-41.2871"/>
</g>
<!-- Node19 -->
<g id="node19" class="node">
<title>Node19</title>
<g id="a_node19"><a xlink:href="../../da/d21/classG4ExtrudedSolid.html#ab5d44d11b2fca3f85e84030467e97096" target="_top" xlink:title="G4ExtrudedSolid::Project\lPoint">
<polygon fill="none" stroke="#000000" points="178.5,-423.5 178.5,-455.5 321.5,-455.5 321.5,-423.5 178.5,-423.5"/>
<text text-anchor="start" x="186.5" y="-442.5" font-family="FreeSans" font-size="10.00" fill="#000000">G4ExtrudedSolid::Project</text>
<text text-anchor="middle" x="250" y="-430.5" font-family="FreeSans" font-size="10.00" fill="#000000">Point</text>
</a>
</g>
</g>
<!-- Node1&#45;&gt;Node19 -->
<g id="edge28" class="edge">
<title>Node1&#45;&gt;Node19</title>
<path fill="none" stroke="#191970" d="M77.78,-330.7805C94.6007,-349.873 133.3264,-390.996 174,-414.5 176.9765,-416.22 180.0879,-417.8412 183.2802,-419.3664"/>
<polygon fill="#191970" stroke="#191970" points="181.8845,-422.5762 192.4462,-423.4137 184.712,-416.1726 181.8845,-422.5762"/>
</g>
<!-- Node3&#45;&gt;Node4 -->
<g id="edge3" class="edge">
<title>Node3&#45;&gt;Node4</title>
<path fill="none" stroke="#191970" d="M305.6182,-534.0842C326.0262,-531.3632 349.4568,-528.2391 371.2108,-525.3386"/>
<polygon fill="#191970" stroke="#191970" points="371.9519,-528.7708 381.4016,-523.9798 371.0267,-521.8322 371.9519,-528.7708"/>
</g>
<!-- Node5&#45;&gt;Node6 -->
<g id="edge5" class="edge">
<title>Node5&#45;&gt;Node6</title>
<path fill="none" stroke="#191970" d="M296.7074,-314.5482C330.0553,-326.0062 374.4019,-341.2432 405.8879,-352.0615"/>
<polygon fill="#191970" stroke="#191970" points="405.0338,-355.4688 415.6284,-355.4082 407.3084,-348.8487 405.0338,-355.4688"/>
</g>
<!-- Node7&#45;&gt;Node8 -->
<g id="edge7" class="edge">
<title>Node7&#45;&gt;Node8</title>
<path fill="none" stroke="#191970" d="M305.6182,-216.7714C326.2162,-219.8347 349.8932,-223.3559 371.8178,-226.6165"/>
<polygon fill="#191970" stroke="#191970" points="371.3446,-230.0845 381.7506,-228.0937 372.3743,-223.1607 371.3446,-230.0845"/>
</g>
<!-- Node9&#45;&gt;Node4 -->
<g id="edge9" class="edge">
<title>Node9&#45;&gt;Node4</title>
<path fill="none" stroke="#191970" d="M305.6182,-497.6305C326.0262,-500.247 349.4568,-503.2509 371.2108,-506.0398"/>
<polygon fill="#191970" stroke="#191970" points="371.0377,-509.5462 381.4016,-507.3464 371.9279,-502.603 371.0377,-509.5462"/>
</g>
<!-- Node10&#45;&gt;Node6 -->
<g id="edge11" class="edge">
<title>Node10&#45;&gt;Node6</title>
<path fill="none" stroke="#191970" d="M305.6182,-381.9399C326.0262,-379.5328 349.4568,-376.7692 371.2108,-374.2033"/>
<polygon fill="#191970" stroke="#191970" points="371.8805,-377.6487 381.4016,-373.0013 371.0605,-370.6969 371.8805,-377.6487"/>
</g>
<!-- Node11&#45;&gt;Node8 -->
<g id="edge13" class="edge">
<title>Node11&#45;&gt;Node8</title>
<path fill="none" stroke="#191970" d="M299.7624,-173.6321C308.5668,-176.7391 317.6005,-180.0924 326,-183.5 342.3963,-190.1518 345.9185,-193.1196 362,-200.5 378.5848,-208.1113 397.1263,-216.3979 412.4709,-223.1957"/>
<polygon fill="#191970" stroke="#191970" points="411.4788,-226.5838 422.0401,-227.4259 414.309,-220.1815 411.4788,-226.5838"/>
</g>
<!-- Node13 -->
<g id="node13" class="node">
<title>Node13</title>
<g id="a_node13"><a xlink:href="../../d4/da4/classCLHEP_1_1Hep2Vector.html#ab26c6f014e107086e697c86cb1c24dae" target="_top" xlink:title="CLHEP::Hep2Vector::x">
<polygon fill="none" stroke="#000000" points="767,-50.5 767,-70.5 894,-70.5 894,-50.5 767,-50.5"/>
<text text-anchor="middle" x="830.5" y="-57.5" font-family="FreeSans" font-size="10.00" fill="#000000">CLHEP::Hep2Vector::x</text>
</a>
</g>
</g>
<!-- Node12&#45;&gt;Node13 -->
<g id="edge15" class="edge">
<title>Node12&#45;&gt;Node13</title>
<path fill="none" stroke="#191970" d="M321.1229,-54.8327C415.1865,-39.9264 585.9994,-19.2597 731,-36.5 749.7331,-38.7273 770.0407,-43.2348 787.3953,-47.7482"/>
<polygon fill="#191970" stroke="#191970" points="786.6725,-51.178 797.2379,-50.3891 788.4866,-44.4171 786.6725,-51.178"/>
</g>
<!-- Node14 -->
<g id="node14" class="node">
<title>Node14</title>
<g id="a_node14"><a xlink:href="../../d4/da4/classCLHEP_1_1Hep2Vector.html#acf0b1799f84792d758f7d955658cdb1d" target="_top" xlink:title="CLHEP::Hep2Vector::y">
<polygon fill="none" stroke="#000000" points="767,-108.5 767,-128.5 894,-128.5 894,-108.5 767,-108.5"/>
<text text-anchor="middle" x="830.5" y="-115.5" font-family="FreeSans" font-size="10.00" fill="#000000">CLHEP::Hep2Vector::y</text>
</a>
</g>
</g>
<!-- Node12&#45;&gt;Node14 -->
<g id="edge16" class="edge">
<title>Node12&#45;&gt;Node14</title>
<path fill="none" stroke="#191970" d="M268.2465,-83.5042C289.2151,-100.7737 325.46,-127.3031 362,-138.5 518.8241,-186.5554 568.3159,-165.4043 731,-144.5 751.0219,-141.9273 772.7664,-136.5556 790.8066,-131.3591"/>
<polygon fill="#191970" stroke="#191970" points="791.8218,-134.7088 800.4134,-128.5091 789.8309,-127.9979 791.8218,-134.7088"/>
</g>
<!-- Node15 -->
<g id="node15" class="node">
<title>Node15</title>
<g id="a_node15"><a xlink:href="../../da/d21/classG4ExtrudedSolid.html#adfcb8835cda15df2bf42e892131f9942" target="_top" xlink:title="G4ExtrudedSolid::IsSameSide">
<polygon fill="none" stroke="#000000" points="564,-60.5 564,-80.5 731,-80.5 731,-60.5 564,-60.5"/>
<text text-anchor="middle" x="647.5" y="-67.5" font-family="FreeSans" font-size="10.00" fill="#000000">G4ExtrudedSolid::IsSameSide</text>
</a>
</g>
</g>
<!-- Node12&#45;&gt;Node15 -->
<g id="edge17" class="edge">
<title>Node12&#45;&gt;Node15</title>
<path fill="none" stroke="#191970" d="M321.065,-68.0363C385.9822,-68.5263 482.4161,-69.2541 553.65,-69.7917"/>
<polygon fill="#191970" stroke="#191970" points="553.9442,-73.2939 563.9704,-69.8696 553.9971,-66.2941 553.9442,-73.2939"/>
</g>
<!-- Node12&#45;&gt;Node16 -->
<g id="edge20" class="edge">
<title>Node12&#45;&gt;Node16</title>
<path fill="none" stroke="#191970" d="M319.5736,-83.5555C334.4677,-86.9926 350.3114,-90.6488 365.546,-94.1645"/>
<polygon fill="#191970" stroke="#191970" points="364.9223,-97.6124 375.4532,-96.4507 366.4964,-90.7917 364.9223,-97.6124"/>
</g>
<!-- Node15&#45;&gt;Node13 -->
<g id="edge18" class="edge">
<title>Node15&#45;&gt;Node13</title>
<path fill="none" stroke="#191970" d="M731.2344,-65.9244C739.7318,-65.46 748.3192,-64.9908 756.7006,-64.5328"/>
<polygon fill="#191970" stroke="#191970" points="757.0079,-68.0213 766.802,-63.9808 756.6259,-61.0317 757.0079,-68.0213"/>
</g>
<!-- Node15&#45;&gt;Node14 -->
<g id="edge19" class="edge">
<title>Node15&#45;&gt;Node14</title>
<path fill="none" stroke="#191970" d="M690.9186,-80.5584C703.8423,-83.6443 718.0169,-87.1198 731,-90.5 749.1464,-95.2246 769.0563,-100.7572 786.2667,-105.6511"/>
<polygon fill="#191970" stroke="#191970" points="785.4775,-109.0656 796.0543,-108.4478 787.4008,-102.335 785.4775,-109.0656"/>
</g>
<!-- Node16&#45;&gt;Node13 -->
<g id="edge21" class="edge">
<title>Node16&#45;&gt;Node13</title>
<path fill="none" stroke="#191970" d="M467.8117,-96.3361C490.831,-81.0934 528.023,-59.3101 564,-50.5 633.076,-33.5845 715.2012,-40.5677 769.849,-48.8607"/>
<polygon fill="#191970" stroke="#191970" points="769.638,-52.3707 780.0617,-50.4744 770.7305,-45.4565 769.638,-52.3707"/>
</g>
<!-- Node16&#45;&gt;Node14 -->
<g id="edge22" class="edge">
<title>Node16&#45;&gt;Node14</title>
<path fill="none" stroke="#191970" d="M528.0627,-125.8985C540.0908,-127.392 552.3425,-128.6715 564,-129.5 638.0355,-134.7615 656.8902,-133.5841 731,-129.5 739.3567,-129.0395 748.0902,-128.363 756.7632,-127.568"/>
<polygon fill="#191970" stroke="#191970" points="757.2749,-131.0349 766.8905,-126.5863 756.5994,-124.0676 757.2749,-131.0349"/>
</g>
<!-- Node17 -->
<g id="node17" class="node">
<title>Node17</title>
<g id="a_node17"><a xlink:href="../../da/d21/classG4ExtrudedSolid.html#a392e6d88b995e517a214c58129eaa68a" target="_top" xlink:title="G4ExtrudedSolid::IsSameLine">
<polygon fill="none" stroke="#000000" points="564.5,-99.5 564.5,-119.5 730.5,-119.5 730.5,-99.5 564.5,-99.5"/>
<text text-anchor="middle" x="647.5" y="-106.5" font-family="FreeSans" font-size="10.00" fill="#000000">G4ExtrudedSolid::IsSameLine</text>
</a>
</g>
</g>
<!-- Node16&#45;&gt;Node17 -->
<g id="edge23" class="edge">
<title>Node16&#45;&gt;Node17</title>
<path fill="none" stroke="#191970" d="M528.2411,-111.2668C536.7874,-111.1402 545.5105,-111.011 554.1563,-110.8829"/>
<polygon fill="#191970" stroke="#191970" points="554.3078,-114.3811 564.2549,-110.7333 554.2041,-107.3819 554.3078,-114.3811"/>
</g>
<!-- Node17&#45;&gt;Node13 -->
<g id="edge24" class="edge">
<title>Node17&#45;&gt;Node13</title>
<path fill="none" stroke="#191970" d="M694.4516,-99.415C706.4105,-96.6823 719.2134,-93.6139 731,-90.5 750.4282,-85.3673 771.7845,-79.0224 789.714,-73.4915"/>
<polygon fill="#191970" stroke="#191970" points="790.7779,-76.8261 799.2883,-70.5154 788.7,-70.1415 790.7779,-76.8261"/>
</g>
<!-- Node17&#45;&gt;Node14 -->
<g id="edge25" class="edge">
<title>Node17&#45;&gt;Node14</title>
<path fill="none" stroke="#191970" d="M730.7001,-113.5918C739.4544,-114.0223 748.311,-114.4579 756.9455,-114.8826"/>
<polygon fill="#191970" stroke="#191970" points="756.8006,-118.3796 766.9605,-115.3751 757.1445,-111.388 756.8006,-118.3796"/>
</g>
<!-- Node19&#45;&gt;Node4 -->
<g id="edge30" class="edge">
<title>Node19&#45;&gt;Node4</title>
<path fill="none" stroke="#191970" d="M298.4231,-455.5134C307.621,-458.711 317.1376,-462.1267 326,-465.5 355.8199,-476.8503 389.2805,-491.0419 413.1076,-501.4031"/>
<polygon fill="#191970" stroke="#191970" points="411.8079,-504.6547 422.3728,-505.4502 414.6099,-498.2399 411.8079,-504.6547"/>
</g>
<!-- Node19&#45;&gt;Node6 -->
<g id="edge31" class="edge">
<title>Node19&#45;&gt;Node6</title>
<path fill="none" stroke="#191970" d="M300.4625,-423.4722C309.022,-420.5904 317.7925,-417.5351 326,-414.5 355.6531,-403.5343 388.883,-389.7201 412.6756,-379.5568"/>
<polygon fill="#191970" stroke="#191970" points="414.1298,-382.7415 421.9385,-375.5809 411.3687,-376.3091 414.1298,-382.7415"/>
</g>
<!-- Node19&#45;&gt;Node8 -->
<g id="edge29" class="edge">
<title>Node19&#45;&gt;Node8</title>
<path fill="none" stroke="#191970" d="M312.6974,-423.3937C317.4549,-420.8478 321.9659,-417.9037 326,-414.5 352.136,-392.448 343.5797,-375.3111 362,-346.5 383.5081,-312.8592 412.4988,-276.4677 429.9101,-255.3987"/>
<polygon fill="#191970" stroke="#191970" points="432.6868,-257.5338 436.3975,-247.61 427.3082,-253.0538 432.6868,-257.5338"/>
</g>
</g>
</svg>
