<?xml version="1.0" encoding="UTF-8" standalone="no"?>
<!DOCTYPE svg PUBLIC "-//W3C//DTD SVG 1.1//EN"
 "http://www.w3.org/Graphics/SVG/1.1/DTD/svg11.dtd">
<!-- Generated by graphviz version 2.40.1 (20161225.0304)
 -->
<!-- Title: HEPREP::HepRepFactory::createHepRep Pages: 1 -->
<svg width="1664pt" height="663pt"
 viewBox="0.00 0.00 1664.00 663.14" xmlns="http://www.w3.org/2000/svg" xmlns:xlink="http://www.w3.org/1999/xlink">
<g id="graph0" class="graph" transform="scale(1 1) rotate(0) translate(4 659.1409)">
<title>HEPREP::HepRepFactory::createHepRep</title>
<!-- Node1 -->
<g id="node1" class="node">
<title>Node1</title>
<polygon fill="#bfbfbf" stroke="#000000" points="0,-463.7457 0,-495.7457 139,-495.7457 139,-463.7457 0,-463.7457"/>
<text text-anchor="start" x="8" y="-482.7457" font-family="FreeSans" font-size="10.00" fill="#000000">HEPREP::HepRepFactory</text>
<text text-anchor="middle" x="69.5" y="-470.7457" font-family="FreeSans" font-size="10.00" fill="#000000">::createHepRep</text>
</g>
<!-- Node2 -->
<g id="node2" class="node">
<title>Node2</title>
<g id="a_node2"><a xlink:href="../../d3/d61/classG4HepRepSceneHandler.html#aacf25099646f214f2b2e98714ec6d672" target="_top" xlink:title="G4HepRepSceneHandler\l::getHepRep">
<polygon fill="none" stroke="#000000" points="175,-438.7457 175,-470.7457 317,-470.7457 317,-438.7457 175,-438.7457"/>
<text text-anchor="start" x="183" y="-457.7457" font-family="FreeSans" font-size="10.00" fill="#000000">G4HepRepSceneHandler</text>
<text text-anchor="middle" x="246" y="-445.7457" font-family="FreeSans" font-size="10.00" fill="#000000">::getHepRep</text>
</a>
</g>
</g>
<!-- Node1&#45;&gt;Node2 -->
<g id="edge1" class="edge">
<title>Node1&#45;&gt;Node2</title>
<path fill="none" stroke="#191970" d="M149.0251,-468.4815C157.622,-467.2638 166.3304,-466.0303 174.8197,-464.8279"/>
<polygon fill="#191970" stroke="#191970" points="148.4144,-465.033 139.0041,-469.9009 149.3962,-471.9638 148.4144,-465.033"/>
</g>
<!-- Node29 -->
<g id="node29" class="node">
<title>Node29</title>
<g id="a_node29"><a xlink:href="../../d3/d61/classG4HepRepSceneHandler.html#a58445031e78667b4e7a6724a01e09cd0" target="_top" xlink:title="G4HepRepSceneHandler\l::getHepRepGeometry">
<polygon fill="none" stroke="#000000" points="175,-489.7457 175,-521.7457 317,-521.7457 317,-489.7457 175,-489.7457"/>
<text text-anchor="start" x="183" y="-508.7457" font-family="FreeSans" font-size="10.00" fill="#000000">G4HepRepSceneHandler</text>
<text text-anchor="middle" x="246" y="-496.7457" font-family="FreeSans" font-size="10.00" fill="#000000">::getHepRepGeometry</text>
</a>
</g>
</g>
<!-- Node1&#45;&gt;Node29 -->
<g id="edge46" class="edge">
<title>Node1&#45;&gt;Node29</title>
<path fill="none" stroke="#191970" d="M149.0251,-491.4604C157.622,-492.7268 166.3304,-494.0097 174.8197,-495.2602"/>
<polygon fill="#191970" stroke="#191970" points="149.4075,-487.9791 139.0041,-489.9842 148.3872,-494.9043 149.4075,-487.9791"/>
</g>
<!-- Node3 -->
<g id="node3" class="node">
<title>Node3</title>
<g id="a_node3"><a xlink:href="../../d3/d61/classG4HepRepSceneHandler.html#ad0dc15ddcbef3b8dd006c48fe791f304" target="_top" xlink:title="G4HepRepSceneHandler\l::getEventInstanceTree">
<polygon fill="none" stroke="#000000" points="537,-190.7457 537,-222.7457 679,-222.7457 679,-190.7457 537,-190.7457"/>
<text text-anchor="start" x="545" y="-209.7457" font-family="FreeSans" font-size="10.00" fill="#000000">G4HepRepSceneHandler</text>
<text text-anchor="middle" x="608" y="-197.7457" font-family="FreeSans" font-size="10.00" fill="#000000">::getEventInstanceTree</text>
</a>
</g>
</g>
<!-- Node2&#45;&gt;Node3 -->
<g id="edge2" class="edge">
<title>Node2&#45;&gt;Node3</title>
<path fill="none" stroke="#191970" d="M251.7721,-428.578C263.0032,-384.2728 292.2166,-294.9986 353,-250.7457 406.1168,-212.0743 481.7682,-203.2277 536.8708,-202.7499"/>
<polygon fill="#191970" stroke="#191970" points="248.3045,-428.0268 249.3531,-438.5696 255.1079,-429.6739 248.3045,-428.0268"/>
</g>
<!-- Node13 -->
<g id="node13" class="node">
<title>Node13</title>
<g id="a_node13"><a xlink:href="../../d3/d61/classG4HepRepSceneHandler.html#a288a565b4b251320bd9c85cd30435a36" target="_top" xlink:title="G4HepRepSceneHandler\l::getEventTypeTree">
<polygon fill="none" stroke="#000000" points="353,-260.7457 353,-292.7457 495,-292.7457 495,-260.7457 353,-260.7457"/>
<text text-anchor="start" x="361" y="-279.7457" font-family="FreeSans" font-size="10.00" fill="#000000">G4HepRepSceneHandler</text>
<text text-anchor="middle" x="424" y="-267.7457" font-family="FreeSans" font-size="10.00" fill="#000000">::getEventTypeTree</text>
</a>
</g>
</g>
<!-- Node2&#45;&gt;Node13 -->
<g id="edge12" class="edge">
<title>Node2&#45;&gt;Node13</title>
<path fill="none" stroke="#191970" d="M269.4034,-431.3423C306.0788,-394.6669 376.1645,-324.5812 407.7979,-292.9478"/>
<polygon fill="#191970" stroke="#191970" points="266.7065,-429.0894 262.1103,-438.6354 271.6562,-434.0392 266.7065,-429.0894"/>
</g>
<!-- Node21 -->
<g id="node21" class="node">
<title>Node21</title>
<g id="a_node21"><a xlink:href="../../d3/d61/classG4HepRepSceneHandler.html#a7e6f99e520f8a47efdd5ecc82123003d" target="_top" xlink:title="G4HepRepSceneHandler\l::getGeometryInstanceTree">
<polygon fill="none" stroke="#000000" points="531,-509.7457 531,-541.7457 685,-541.7457 685,-509.7457 531,-509.7457"/>
<text text-anchor="start" x="539" y="-528.7457" font-family="FreeSans" font-size="10.00" fill="#000000">G4HepRepSceneHandler</text>
<text text-anchor="middle" x="608" y="-516.7457" font-family="FreeSans" font-size="10.00" fill="#000000">::getGeometryInstanceTree</text>
</a>
</g>
</g>
<!-- Node2&#45;&gt;Node21 -->
<g id="edge33" class="edge">
<title>Node2&#45;&gt;Node21</title>
<path fill="none" stroke="#191970" d="M327.0476,-470.6418C387.9556,-482.5878 470.862,-498.8485 530.8128,-510.6068"/>
<polygon fill="#191970" stroke="#191970" points="327.5743,-467.1785 317.0876,-468.6883 326.227,-474.0476 327.5743,-467.1785"/>
</g>
<!-- Node24 -->
<g id="node24" class="node">
<title>Node24</title>
<g id="a_node24"><a xlink:href="../../d3/d61/classG4HepRepSceneHandler.html#ab576ef536863b3a47167884e084661ee" target="_top" xlink:title="G4HepRepSceneHandler\l::getGeometryTypeTree">
<polygon fill="none" stroke="#000000" points="353,-531.7457 353,-563.7457 495,-563.7457 495,-531.7457 353,-531.7457"/>
<text text-anchor="start" x="361" y="-550.7457" font-family="FreeSans" font-size="10.00" fill="#000000">G4HepRepSceneHandler</text>
<text text-anchor="middle" x="424" y="-538.7457" font-family="FreeSans" font-size="10.00" fill="#000000">::getGeometryTypeTree</text>
</a>
</g>
</g>
<!-- Node2&#45;&gt;Node24 -->
<g id="edge37" class="edge">
<title>Node2&#45;&gt;Node24</title>
<path fill="none" stroke="#191970" d="M303.6965,-474.7095C308.2467,-476.636 312.7298,-478.6553 317,-480.7457 347.5126,-495.6824 380.3017,-517.0934 401.425,-531.663"/>
<polygon fill="#191970" stroke="#191970" points="304.8907,-471.4168 294.3089,-470.8923 302.254,-477.9013 304.8907,-471.4168"/>
</g>
<!-- Node4 -->
<g id="node4" class="node">
<title>Node4</title>
<g id="a_node4"><a xlink:href="../../d3/d61/classG4HepRepSceneHandler.html#a6b252dfea109b76b12019ee08588e6dc" target="_top" xlink:title="G4HepRepSceneHandler\l::closeHepRep">
<polygon fill="none" stroke="#000000" points="1122,-305.7457 1122,-337.7457 1264,-337.7457 1264,-305.7457 1122,-305.7457"/>
<text text-anchor="start" x="1130" y="-324.7457" font-family="FreeSans" font-size="10.00" fill="#000000">G4HepRepSceneHandler</text>
<text text-anchor="middle" x="1193" y="-312.7457" font-family="FreeSans" font-size="10.00" fill="#000000">::closeHepRep</text>
</a>
</g>
</g>
<!-- Node3&#45;&gt;Node4 -->
<g id="edge3" class="edge">
<title>Node3&#45;&gt;Node4</title>
<path fill="none" stroke="#191970" d="M639.8729,-185.2931C721.9382,-132.9842 943.9964,-10.276 1086,-110.7457 1125.2447,-138.5119 1100.7301,-169.633 1122,-212.7457 1139.1864,-247.5815 1165.3291,-284.8111 1180.6349,-305.4923"/>
<polygon fill="#191970" stroke="#191970" points="637.9743,-182.3527 631.4705,-190.7164 641.7704,-188.234 637.9743,-182.3527"/>
</g>
<!-- Node8 -->
<g id="node8" class="node">
<title>Node8</title>
<g id="a_node8"><a xlink:href="../../d3/d61/classG4HepRepSceneHandler.html#a41246aa6571ac597b99a3c0a4555999c" target="_top" xlink:title="G4HepRepSceneHandler\l::getEventInstance">
<polygon fill="none" stroke="#000000" points="727.5,-170.7457 727.5,-202.7457 869.5,-202.7457 869.5,-170.7457 727.5,-170.7457"/>
<text text-anchor="start" x="735.5" y="-189.7457" font-family="FreeSans" font-size="10.00" fill="#000000">G4HepRepSceneHandler</text>
<text text-anchor="middle" x="798.5" y="-177.7457" font-family="FreeSans" font-size="10.00" fill="#000000">::getEventInstance</text>
</a>
</g>
</g>
<!-- Node3&#45;&gt;Node8 -->
<g id="edge7" class="edge">
<title>Node3&#45;&gt;Node8</title>
<path fill="none" stroke="#191970" d="M689.2782,-198.2125C701.9495,-196.8822 714.9579,-195.5165 727.3802,-194.2123"/>
<polygon fill="#191970" stroke="#191970" points="688.7859,-194.7449 679.2061,-199.27 689.5169,-201.7066 688.7859,-194.7449"/>
</g>
<!-- Node5 -->
<g id="node5" class="node">
<title>Node5</title>
<g id="a_node5"><a xlink:href="../../d3/d61/classG4HepRepSceneHandler.html#a4d4e4002f325b592d8ffd757d834a9e7" target="_top" xlink:title="G4HepRepSceneHandler\l::close">
<polygon fill="none" stroke="#000000" points="1310.5,-327.7457 1310.5,-359.7457 1452.5,-359.7457 1452.5,-327.7457 1310.5,-327.7457"/>
<text text-anchor="start" x="1318.5" y="-346.7457" font-family="FreeSans" font-size="10.00" fill="#000000">G4HepRepSceneHandler</text>
<text text-anchor="middle" x="1381.5" y="-334.7457" font-family="FreeSans" font-size="10.00" fill="#000000">::close</text>
</a>
</g>
</g>
<!-- Node4&#45;&gt;Node5 -->
<g id="edge4" class="edge">
<title>Node4&#45;&gt;Node5</title>
<path fill="none" stroke="#191970" d="M1274.2875,-331.2328C1286.322,-332.6374 1298.6439,-334.0755 1310.4482,-335.4532"/>
<polygon fill="#191970" stroke="#191970" points="1274.6021,-327.7459 1264.2638,-330.0629 1273.7906,-334.6987 1274.6021,-327.7459"/>
</g>
<!-- Node7 -->
<g id="node7" class="node">
<title>Node7</title>
<g id="a_node7"><a xlink:href="../../d5/d29/classG4HepRepViewer.html#a2ed7c56c6b050f14e00c2bb0a07c3a36" target="_top" xlink:title="G4HepRepViewer::ShowView">
<polygon fill="none" stroke="#000000" points="1300,-288.7457 1300,-308.7457 1463,-308.7457 1463,-288.7457 1300,-288.7457"/>
<text text-anchor="middle" x="1381.5" y="-295.7457" font-family="FreeSans" font-size="10.00" fill="#000000">G4HepRepViewer::ShowView</text>
</a>
</g>
</g>
<!-- Node4&#45;&gt;Node7 -->
<g id="edge6" class="edge">
<title>Node4&#45;&gt;Node7</title>
<path fill="none" stroke="#191970" d="M1274.4045,-311.813C1282.7893,-310.79 1291.3123,-309.75 1299.7013,-308.7264"/>
<polygon fill="#191970" stroke="#191970" points="1273.7662,-308.3649 1264.2638,-313.0504 1274.6141,-315.3133 1273.7662,-308.3649"/>
</g>
<!-- Node6 -->
<g id="node6" class="node">
<title>Node6</title>
<g id="a_node6"><a xlink:href="../../d3/d61/classG4HepRepSceneHandler.html#ac55d29ab3bbd84377fe14f83c64a189c" target="_top" xlink:title="G4HepRepSceneHandler\l::~G4HepRepSceneHandler">
<polygon fill="none" stroke="#000000" points="1499,-327.7457 1499,-359.7457 1656,-359.7457 1656,-327.7457 1499,-327.7457"/>
<text text-anchor="start" x="1507" y="-346.7457" font-family="FreeSans" font-size="10.00" fill="#000000">G4HepRepSceneHandler</text>
<text text-anchor="middle" x="1577.5" y="-334.7457" font-family="FreeSans" font-size="10.00" fill="#000000">::~G4HepRepSceneHandler</text>
</a>
</g>
</g>
<!-- Node5&#45;&gt;Node6 -->
<g id="edge5" class="edge">
<title>Node5&#45;&gt;Node6</title>
<path fill="none" stroke="#191970" d="M1462.8617,-343.7457C1474.7287,-343.7457 1486.9311,-343.7457 1498.745,-343.7457"/>
<polygon fill="#191970" stroke="#191970" points="1462.5377,-340.2458 1452.5376,-343.7457 1462.5376,-347.2458 1462.5377,-340.2458"/>
</g>
<!-- Node9 -->
<g id="node9" class="node">
<title>Node9</title>
<g id="a_node9"><a xlink:href="../../d3/d61/classG4HepRepSceneHandler.html#a38b0e0982b14f09d8248fd7b7a969ac7" target="_top" xlink:title="G4HepRepSceneHandler\l::AddPrimitive">
<polygon fill="none" stroke="#000000" points="1122,-30.7457 1122,-62.7457 1264,-62.7457 1264,-30.7457 1122,-30.7457"/>
<text text-anchor="start" x="1130" y="-49.7457" font-family="FreeSans" font-size="10.00" fill="#000000">G4HepRepSceneHandler</text>
<text text-anchor="middle" x="1193" y="-37.7457" font-family="FreeSans" font-size="10.00" fill="#000000">::AddPrimitive</text>
</a>
</g>
</g>
<!-- Node8&#45;&gt;Node9 -->
<g id="edge8" class="edge">
<title>Node8&#45;&gt;Node9</title>
<path fill="none" stroke="#191970" d="M807.218,-161.017C821.8954,-122.3212 855.5952,-50.5086 912,-20.7457 990.4286,20.6385 1098.4243,-9.4944 1154.9714,-30.7024"/>
<polygon fill="#191970" stroke="#191970" points="803.8816,-159.9499 803.7363,-170.5438 810.4563,-162.3528 803.8816,-159.9499"/>
</g>
<!-- Node10 -->
<g id="node10" class="node">
<title>Node10</title>
<g id="a_node10"><a xlink:href="../../d3/d61/classG4HepRepSceneHandler.html#ac0f34cd7a6431b23568df6c01813071c" target="_top" xlink:title="G4HepRepSceneHandler\l::getGeometryOrEventInstance">
<polygon fill="none" stroke="#000000" points="912,-171.7457 912,-203.7457 1086,-203.7457 1086,-171.7457 912,-171.7457"/>
<text text-anchor="start" x="920" y="-190.7457" font-family="FreeSans" font-size="10.00" fill="#000000">G4HepRepSceneHandler</text>
<text text-anchor="middle" x="999" y="-178.7457" font-family="FreeSans" font-size="10.00" fill="#000000">::getGeometryOrEventInstance</text>
</a>
</g>
</g>
<!-- Node8&#45;&gt;Node10 -->
<g id="edge9" class="edge">
<title>Node8&#45;&gt;Node10</title>
<path fill="none" stroke="#191970" d="M879.7702,-187.151C890.3277,-187.2037 901.1767,-187.2578 911.8255,-187.3109"/>
<polygon fill="#191970" stroke="#191970" points="879.7707,-183.6511 869.7533,-187.1011 879.7357,-190.651 879.7707,-183.6511"/>
</g>
<!-- Node11 -->
<g id="node11" class="node">
<title>Node11</title>
<g id="a_node11"><a xlink:href="../../d3/d61/classG4HepRepSceneHandler.html#a47b3cc49f8238713422a48dc343490d8" target="_top" xlink:title="G4HepRepSceneHandler\l::AddPrimitive">
<polygon fill="none" stroke="#000000" points="1122,-426.7457 1122,-458.7457 1264,-458.7457 1264,-426.7457 1122,-426.7457"/>
<text text-anchor="start" x="1130" y="-445.7457" font-family="FreeSans" font-size="10.00" fill="#000000">G4HepRepSceneHandler</text>
<text text-anchor="middle" x="1193" y="-433.7457" font-family="FreeSans" font-size="10.00" fill="#000000">::AddPrimitive</text>
</a>
</g>
</g>
<!-- Node10&#45;&gt;Node11 -->
<g id="edge10" class="edge">
<title>Node10&#45;&gt;Node11</title>
<path fill="none" stroke="#191970" d="M1083.1152,-210.0128C1084.1079,-210.8894 1085.0706,-211.8 1086,-212.7457 1129.2253,-256.7279 1095.1974,-291.2076 1122,-346.7457 1136.8661,-377.55 1162.0637,-408.526 1178.0992,-426.6556"/>
<polygon fill="#191970" stroke="#191970" points="1085.077,-207.1097 1074.9691,-203.9343 1080.8906,-212.7199 1085.077,-207.1097"/>
</g>
<!-- Node12 -->
<g id="node12" class="node">
<title>Node12</title>
<g id="a_node12"><a xlink:href="../../d3/d61/classG4HepRepSceneHandler.html#a52883663d02f2b8a68caa4f44b8c4bcc" target="_top" xlink:title="G4HepRepSceneHandler\l::AddSolid">
<polygon fill="none" stroke="#000000" points="1122,-171.7457 1122,-203.7457 1264,-203.7457 1264,-171.7457 1122,-171.7457"/>
<text text-anchor="start" x="1130" y="-190.7457" font-family="FreeSans" font-size="10.00" fill="#000000">G4HepRepSceneHandler</text>
<text text-anchor="middle" x="1193" y="-178.7457" font-family="FreeSans" font-size="10.00" fill="#000000">::AddSolid</text>
</a>
</g>
</g>
<!-- Node10&#45;&gt;Node12 -->
<g id="edge11" class="edge">
<title>Node10&#45;&gt;Node12</title>
<path fill="none" stroke="#191970" d="M1096.215,-187.7457C1104.8709,-187.7457 1113.5246,-187.7457 1121.9002,-187.7457"/>
<polygon fill="#191970" stroke="#191970" points="1096.0692,-184.2458 1086.0692,-187.7457 1096.0692,-191.2458 1096.0692,-184.2458"/>
</g>
<!-- Node13&#45;&gt;Node3 -->
<g id="edge13" class="edge">
<title>Node13&#45;&gt;Node3</title>
<path fill="none" stroke="#191970" d="M475.5853,-257.1208C504.0083,-246.3077 538.8545,-233.051 565.6649,-222.8514"/>
<polygon fill="#191970" stroke="#191970" points="474.3153,-253.8592 466.2133,-260.6863 476.8043,-260.4017 474.3153,-253.8592"/>
</g>
<!-- Node14 -->
<g id="node14" class="node">
<title>Node14</title>
<g id="a_node14"><a xlink:href="../../d3/d61/classG4HepRepSceneHandler.html#ac1c05969895af274b09653617fa49cb4" target="_top" xlink:title="G4HepRepSceneHandler\l::getEventType">
<polygon fill="none" stroke="#000000" points="537,-260.7457 537,-292.7457 679,-292.7457 679,-260.7457 537,-260.7457"/>
<text text-anchor="start" x="545" y="-279.7457" font-family="FreeSans" font-size="10.00" fill="#000000">G4HepRepSceneHandler</text>
<text text-anchor="middle" x="608" y="-267.7457" font-family="FreeSans" font-size="10.00" fill="#000000">::getEventType</text>
</a>
</g>
</g>
<!-- Node13&#45;&gt;Node14 -->
<g id="edge14" class="edge">
<title>Node13&#45;&gt;Node14</title>
<path fill="none" stroke="#191970" d="M505.154,-276.7457C515.68,-276.7457 526.398,-276.7457 536.7466,-276.7457"/>
<polygon fill="#191970" stroke="#191970" points="505.1392,-273.2458 495.1392,-276.7457 505.1392,-280.2458 505.1392,-273.2458"/>
</g>
<!-- Node14&#45;&gt;Node4 -->
<g id="edge15" class="edge">
<title>Node14&#45;&gt;Node4</title>
<path fill="none" stroke="#191970" d="M681.2521,-294.9077C694.4145,-297.611 708.0611,-300.0536 721,-301.7457 862.303,-320.225 1029.2243,-322.833 1121.8981,-322.6014"/>
<polygon fill="#191970" stroke="#191970" points="681.8093,-291.4481 671.3008,-292.7977 680.3573,-298.2958 681.8093,-291.4481"/>
</g>
<!-- Node14&#45;&gt;Node8 -->
<g id="edge23" class="edge">
<title>Node14&#45;&gt;Node8</title>
<path fill="none" stroke="#191970" d="M645.7724,-255.8072C667.5073,-244.0675 695.4872,-229.4726 721,-217.7457 732.1919,-212.6013 744.4957,-207.4556 755.9391,-202.8765"/>
<polygon fill="#191970" stroke="#191970" points="643.9808,-252.7973 636.8652,-260.6471 647.3229,-258.948 643.9808,-252.7973"/>
</g>
<!-- Node15 -->
<g id="node15" class="node">
<title>Node15</title>
<g id="a_node15"><a xlink:href="../../d3/d61/classG4HepRepSceneHandler.html#a7d2798f2aa08ecdffac8ec9b0c0fdff0" target="_top" xlink:title="G4HepRepSceneHandler\l::getCalHitType">
<polygon fill="none" stroke="#000000" points="727.5,-381.7457 727.5,-413.7457 869.5,-413.7457 869.5,-381.7457 727.5,-381.7457"/>
<text text-anchor="start" x="735.5" y="-400.7457" font-family="FreeSans" font-size="10.00" fill="#000000">G4HepRepSceneHandler</text>
<text text-anchor="middle" x="798.5" y="-388.7457" font-family="FreeSans" font-size="10.00" fill="#000000">::getCalHitType</text>
</a>
</g>
</g>
<!-- Node14&#45;&gt;Node15 -->
<g id="edge16" class="edge">
<title>Node14&#45;&gt;Node15</title>
<path fill="none" stroke="#191970" d="M641.8877,-298.2701C679.4916,-322.1551 739.3131,-360.1519 773.0984,-381.6114"/>
<polygon fill="#191970" stroke="#191970" points="643.6147,-295.2208 633.2969,-292.8135 639.8615,-301.1296 643.6147,-295.2208"/>
</g>
<!-- Node17 -->
<g id="node17" class="node">
<title>Node17</title>
<g id="a_node17"><a xlink:href="../../d3/d61/classG4HepRepSceneHandler.html#abeefa888ebc0b579b1e49bddce044692" target="_top" xlink:title="G4HepRepSceneHandler\l::getHitType">
<polygon fill="none" stroke="#000000" points="727.5,-260.7457 727.5,-292.7457 869.5,-292.7457 869.5,-260.7457 727.5,-260.7457"/>
<text text-anchor="start" x="735.5" y="-279.7457" font-family="FreeSans" font-size="10.00" fill="#000000">G4HepRepSceneHandler</text>
<text text-anchor="middle" x="798.5" y="-267.7457" font-family="FreeSans" font-size="10.00" fill="#000000">::getHitType</text>
</a>
</g>
</g>
<!-- Node14&#45;&gt;Node17 -->
<g id="edge24" class="edge">
<title>Node14&#45;&gt;Node17</title>
<path fill="none" stroke="#191970" d="M689.2782,-276.7457C701.9495,-276.7457 714.9579,-276.7457 727.3802,-276.7457"/>
<polygon fill="#191970" stroke="#191970" points="689.2061,-273.2458 679.2061,-276.7457 689.206,-280.2458 689.2061,-273.2458"/>
</g>
<!-- Node20 -->
<g id="node20" class="node">
<title>Node20</title>
<g id="a_node20"><a xlink:href="../../d3/d61/classG4HepRepSceneHandler.html#a5a06885a2d704d2bba37991e8e11f81c" target="_top" xlink:title="G4HepRepSceneHandler\l::getTrajectoryType">
<polygon fill="none" stroke="#000000" points="928,-120.7457 928,-152.7457 1070,-152.7457 1070,-120.7457 928,-120.7457"/>
<text text-anchor="start" x="936" y="-139.7457" font-family="FreeSans" font-size="10.00" fill="#000000">G4HepRepSceneHandler</text>
<text text-anchor="middle" x="999" y="-127.7457" font-family="FreeSans" font-size="10.00" fill="#000000">::getTrajectoryType</text>
</a>
</g>
</g>
<!-- Node14&#45;&gt;Node20 -->
<g id="edge30" class="edge">
<title>Node14&#45;&gt;Node20</title>
<path fill="none" stroke="#191970" d="M686.4255,-258.4113C764.0572,-240.1599 871.9469,-214.4733 876,-211.7457 898.7176,-196.4573 889.6074,-177.5064 912,-161.7457 916.8835,-158.3085 922.2342,-155.3409 927.8057,-152.7792"/>
<polygon fill="#191970" stroke="#191970" points="685.5757,-255.0156 676.6412,-260.71 687.1766,-261.8301 685.5757,-255.0156"/>
</g>
<!-- Node15&#45;&gt;Node4 -->
<g id="edge19" class="edge">
<title>Node15&#45;&gt;Node4</title>
<path fill="none" stroke="#191970" d="M880.0365,-398.8663C938.3652,-397.7656 1018.2216,-392.3455 1086,-373.7457 1115.0796,-365.7656 1145.7927,-349.9745 1166.8178,-337.8774"/>
<polygon fill="#191970" stroke="#191970" points="879.7167,-395.3706 869.7702,-399.0198 879.8214,-402.3698 879.7167,-395.3706"/>
</g>
<!-- Node15&#45;&gt;Node11 -->
<g id="edge17" class="edge">
<title>Node15&#45;&gt;Node11</title>
<path fill="none" stroke="#191970" d="M825.4971,-420.4196C847.2868,-437.1519 879.5565,-458.5456 912,-467.7457 988.9226,-489.5588 1082.009,-473.3853 1139.363,-458.8025"/>
<polygon fill="#191970" stroke="#191970" points="827.4198,-417.4788 817.3979,-414.0421 823.0893,-422.9785 827.4198,-417.4788"/>
</g>
<!-- Node15&#45;&gt;Node12 -->
<g id="edge18" class="edge">
<title>Node15&#45;&gt;Node12</title>
<path fill="none" stroke="#191970" d="M848.0734,-377.8845C906.4839,-353.752 1005.7395,-310.435 1086,-263.7457 1117.7095,-245.2995 1151.8554,-219.9954 1172.8313,-203.7553"/>
<polygon fill="#191970" stroke="#191970" points="846.627,-374.6948 838.7084,-381.7338 849.2882,-381.1693 846.627,-374.6948"/>
</g>
<!-- Node16 -->
<g id="node16" class="node">
<title>Node16</title>
<g id="a_node16"><a xlink:href="../../d3/d61/classG4HepRepSceneHandler.html#ab99e9f34a308cdc39cf599871b0fa183" target="_top" xlink:title="G4HepRepSceneHandler\l::getCalHitFaceType">
<polygon fill="none" stroke="#000000" points="928,-426.7457 928,-458.7457 1070,-458.7457 1070,-426.7457 928,-426.7457"/>
<text text-anchor="start" x="936" y="-445.7457" font-family="FreeSans" font-size="10.00" fill="#000000">G4HepRepSceneHandler</text>
<text text-anchor="middle" x="999" y="-433.7457" font-family="FreeSans" font-size="10.00" fill="#000000">::getCalHitFaceType</text>
</a>
</g>
</g>
<!-- Node15&#45;&gt;Node16 -->
<g id="edge20" class="edge">
<title>Node15&#45;&gt;Node16</title>
<path fill="none" stroke="#191970" d="M879.6218,-415.9526C895.636,-419.5468 912.3267,-423.2928 927.9761,-426.8052"/>
<polygon fill="#191970" stroke="#191970" points="880.2771,-412.5126 869.7533,-413.7377 878.7441,-419.3427 880.2771,-412.5126"/>
</g>
<!-- Node16&#45;&gt;Node4 -->
<g id="edge22" class="edge">
<title>Node16&#45;&gt;Node4</title>
<path fill="none" stroke="#191970" d="M1063.0265,-422.9187C1070.9595,-419.6008 1078.8023,-415.8745 1086,-411.7457 1122.2157,-390.9712 1158.0681,-357.485 1177.697,-337.7464"/>
<polygon fill="#191970" stroke="#191970" points="1061.7043,-419.6778 1053.7056,-426.6255 1064.2911,-426.1823 1061.7043,-419.6778"/>
</g>
<!-- Node16&#45;&gt;Node11 -->
<g id="edge21" class="edge">
<title>Node16&#45;&gt;Node11</title>
<path fill="none" stroke="#191970" d="M1080.5374,-442.7457C1094.2709,-442.7457 1108.4289,-442.7457 1121.8717,-442.7457"/>
<polygon fill="#191970" stroke="#191970" points="1080.1369,-439.2458 1070.1369,-442.7457 1080.1368,-446.2458 1080.1369,-439.2458"/>
</g>
<!-- Node17&#45;&gt;Node4 -->
<g id="edge29" class="edge">
<title>Node17&#45;&gt;Node4</title>
<path fill="none" stroke="#191970" d="M879.8727,-285.0227C937.4728,-291.0031 1016.5199,-299.4555 1086,-307.7457 1097.6267,-309.133 1109.954,-310.6773 1121.9469,-312.2194"/>
<polygon fill="#191970" stroke="#191970" points="880.0436,-281.5218 869.7362,-283.9728 879.3224,-288.4845 880.0436,-281.5218"/>
</g>
<!-- Node18 -->
<g id="node18" class="node">
<title>Node18</title>
<g id="a_node18"><a xlink:href="../../d3/d61/classG4HepRepSceneHandler.html#a9944801f021b69784c4c7fe41d1230e1" target="_top" xlink:title="G4HepRepSceneHandler\l::addAttributes">
<polygon fill="none" stroke="#000000" points="928,-30.7457 928,-62.7457 1070,-62.7457 1070,-30.7457 928,-30.7457"/>
<text text-anchor="start" x="936" y="-49.7457" font-family="FreeSans" font-size="10.00" fill="#000000">G4HepRepSceneHandler</text>
<text text-anchor="middle" x="999" y="-37.7457" font-family="FreeSans" font-size="10.00" fill="#000000">::addAttributes</text>
</a>
</g>
</g>
<!-- Node17&#45;&gt;Node18 -->
<g id="edge25" class="edge">
<title>Node17&#45;&gt;Node18</title>
<path fill="none" stroke="#191970" d="M832.0775,-254.8216C847.2387,-243.496 864.3259,-228.5328 876,-211.7457 903.208,-172.6211 883.5606,-148.9846 912,-110.7457 926.9946,-90.5843 950.1286,-73.9942 968.7727,-62.7607"/>
<polygon fill="#191970" stroke="#191970" points="829.957,-252.0357 823.8993,-260.7279 834.0554,-257.7105 829.957,-252.0357"/>
</g>
<!-- Node19 -->
<g id="node19" class="node">
<title>Node19</title>
<g id="a_node19"><a xlink:href="../../d3/d61/classG4HepRepSceneHandler.html#a8c654d6ad9f7276edc92af415c92ad1b" target="_top" xlink:title="G4HepRepSceneHandler\l::AddPrimitive">
<polygon fill="none" stroke="#000000" points="928,-222.7457 928,-254.7457 1070,-254.7457 1070,-222.7457 928,-222.7457"/>
<text text-anchor="start" x="936" y="-241.7457" font-family="FreeSans" font-size="10.00" fill="#000000">G4HepRepSceneHandler</text>
<text text-anchor="middle" x="999" y="-229.7457" font-family="FreeSans" font-size="10.00" fill="#000000">::AddPrimitive</text>
</a>
</g>
</g>
<!-- Node17&#45;&gt;Node19 -->
<g id="edge28" class="edge">
<title>Node17&#45;&gt;Node19</title>
<path fill="none" stroke="#191970" d="M879.6218,-261.371C895.636,-258.3359 912.3267,-255.1725 927.9761,-252.2066"/>
<polygon fill="#191970" stroke="#191970" points="878.9267,-257.9403 869.7533,-263.2413 880.2302,-264.8179 878.9267,-257.9403"/>
</g>
<!-- Node18&#45;&gt;Node9 -->
<g id="edge26" class="edge">
<title>Node18&#45;&gt;Node9</title>
<path fill="none" stroke="#191970" d="M1080.5374,-46.7457C1094.2709,-46.7457 1108.4289,-46.7457 1121.8717,-46.7457"/>
<polygon fill="#191970" stroke="#191970" points="1080.1369,-43.2458 1070.1369,-46.7457 1080.1368,-50.2458 1080.1369,-43.2458"/>
</g>
<!-- Node18&#45;&gt;Node12 -->
<g id="edge27" class="edge">
<title>Node18&#45;&gt;Node12</title>
<path fill="none" stroke="#191970" d="M1065.2298,-66.6878C1072.4725,-69.9276 1079.5488,-73.6037 1086,-77.7457 1126.5781,-103.7984 1163.2648,-147.9992 1181.2781,-171.662"/>
<polygon fill="#191970" stroke="#191970" points="1066.5766,-63.4573 1056.0012,-62.8151 1063.8679,-69.912 1066.5766,-63.4573"/>
</g>
<!-- Node20&#45;&gt;Node4 -->
<g id="edge32" class="edge">
<title>Node20&#45;&gt;Node4</title>
<path fill="none" stroke="#191970" d="M1079.4118,-157.4024C1081.6867,-158.7594 1083.8898,-160.2052 1086,-161.7457 1089.4581,-164.2701 1155.9917,-265.3516 1182.3639,-305.5261"/>
<polygon fill="#191970" stroke="#191970" points="1080.8014,-154.178 1070.3252,-152.5966 1077.5286,-160.3658 1080.8014,-154.178"/>
</g>
<!-- Node20&#45;&gt;Node9 -->
<g id="edge31" class="edge">
<title>Node20&#45;&gt;Node9</title>
<path fill="none" stroke="#191970" d="M1043.1557,-116.2611C1078.0602,-100.0683 1126.1043,-77.7798 1158.2905,-62.848"/>
<polygon fill="#191970" stroke="#191970" points="1041.2817,-113.2721 1033.6833,-120.6555 1044.2276,-119.622 1041.2817,-113.2721"/>
</g>
<!-- Node21&#45;&gt;Node4 -->
<g id="edge34" class="edge">
<title>Node21&#45;&gt;Node4</title>
<path fill="none" stroke="#191970" d="M695.4723,-535.3993C796.8059,-542.2423 965.2718,-539.8581 1086,-467.7457 1109.8192,-453.5182 1105.6938,-439.1931 1122,-416.7457 1142.3303,-388.7588 1166.5542,-356.5916 1180.8059,-337.7837"/>
<polygon fill="#191970" stroke="#191970" points="695.4999,-531.8923 685.2741,-534.664 694.9965,-538.8741 695.4999,-531.8923"/>
</g>
<!-- Node22 -->
<g id="node22" class="node">
<title>Node22</title>
<g id="a_node22"><a xlink:href="../../d3/d61/classG4HepRepSceneHandler.html#ae50ee4356d66b53002948f6329162de8" target="_top" xlink:title="G4HepRepSceneHandler\l::getGeometryRootInstance">
<polygon fill="none" stroke="#000000" points="721,-554.7457 721,-586.7457 876,-586.7457 876,-554.7457 721,-554.7457"/>
<text text-anchor="start" x="729" y="-573.7457" font-family="FreeSans" font-size="10.00" fill="#000000">G4HepRepSceneHandler</text>
<text text-anchor="middle" x="798.5" y="-561.7457" font-family="FreeSans" font-size="10.00" fill="#000000">::getGeometryRootInstance</text>
</a>
</g>
</g>
<!-- Node21&#45;&gt;Node22 -->
<g id="edge35" class="edge">
<title>Node21&#45;&gt;Node22</title>
<path fill="none" stroke="#191970" d="M686.0727,-544.1881C700.8258,-547.673 716.1474,-551.2923 730.5582,-554.6964"/>
<polygon fill="#191970" stroke="#191970" points="686.5049,-540.6939 675.9681,-541.8011 684.8956,-547.5064 686.5049,-540.6939"/>
</g>
<!-- Node23 -->
<g id="node23" class="node">
<title>Node23</title>
<g id="a_node23"><a xlink:href="../../d3/d61/classG4HepRepSceneHandler.html#ab60a484245e38585e8dc5a78fe7acbe1" target="_top" xlink:title="G4HepRepSceneHandler\l::getGeometryInstance">
<polygon fill="none" stroke="#000000" points="1122,-554.7457 1122,-586.7457 1264,-586.7457 1264,-554.7457 1122,-554.7457"/>
<text text-anchor="start" x="1130" y="-573.7457" font-family="FreeSans" font-size="10.00" fill="#000000">G4HepRepSceneHandler</text>
<text text-anchor="middle" x="1193" y="-561.7457" font-family="FreeSans" font-size="10.00" fill="#000000">::getGeometryInstance</text>
</a>
</g>
</g>
<!-- Node22&#45;&gt;Node23 -->
<g id="edge36" class="edge">
<title>Node22&#45;&gt;Node23</title>
<path fill="none" stroke="#191970" d="M886.6952,-570.7457C957.596,-570.7457 1055.9116,-570.7457 1121.8517,-570.7457"/>
<polygon fill="#191970" stroke="#191970" points="886.4405,-567.2458 876.4405,-570.7457 886.4405,-574.2458 886.4405,-567.2458"/>
</g>
<!-- Node24&#45;&gt;Node21 -->
<g id="edge38" class="edge">
<title>Node24&#45;&gt;Node21</title>
<path fill="none" stroke="#191970" d="M505.1323,-538.0451C513.7104,-537.0194 522.4163,-535.9785 530.9462,-534.9586"/>
<polygon fill="#191970" stroke="#191970" points="504.6529,-534.5774 495.1392,-539.2399 505.484,-541.5279 504.6529,-534.5774"/>
</g>
<!-- Node25 -->
<g id="node25" class="node">
<title>Node25</title>
<g id="a_node25"><a xlink:href="../../d3/d61/classG4HepRepSceneHandler.html#a7be1c70afb0dfeb33221a307b8fb1641" target="_top" xlink:title="G4HepRepSceneHandler\l::getGeometryRootType">
<polygon fill="none" stroke="#000000" points="537,-582.7457 537,-614.7457 679,-614.7457 679,-582.7457 537,-582.7457"/>
<text text-anchor="start" x="545" y="-601.7457" font-family="FreeSans" font-size="10.00" fill="#000000">G4HepRepSceneHandler</text>
<text text-anchor="middle" x="608" y="-589.7457" font-family="FreeSans" font-size="10.00" fill="#000000">::getGeometryRootType</text>
</a>
</g>
</g>
<!-- Node24&#45;&gt;Node25 -->
<g id="edge39" class="edge">
<title>Node24&#45;&gt;Node25</title>
<path fill="none" stroke="#191970" d="M491.8046,-566.5394C510.9167,-571.8367 531.5283,-577.5497 550.0092,-582.6721"/>
<polygon fill="#191970" stroke="#191970" points="492.5378,-563.1107 481.9662,-563.8124 490.668,-569.8563 492.5378,-563.1107"/>
</g>
<!-- Node25&#45;&gt;Node22 -->
<g id="edge44" class="edge">
<title>Node25&#45;&gt;Node22</title>
<path fill="none" stroke="#191970" d="M689.2176,-586.8082C699.7526,-585.2597 710.5218,-583.6769 720.9944,-582.1376"/>
<polygon fill="#191970" stroke="#191970" points="688.5908,-583.3626 679.2061,-588.2797 689.6088,-590.2882 688.5908,-583.3626"/>
</g>
<!-- Node26 -->
<g id="node26" class="node">
<title>Node26</title>
<g id="a_node26"><a xlink:href="../../d3/d61/classG4HepRepSceneHandler.html#a83c5404db67befd374f68c855e0c5274" target="_top" xlink:title="G4HepRepSceneHandler\l::getFullTypeName">
<polygon fill="none" stroke="#000000" points="727.5,-605.7457 727.5,-637.7457 869.5,-637.7457 869.5,-605.7457 727.5,-605.7457"/>
<text text-anchor="start" x="735.5" y="-624.7457" font-family="FreeSans" font-size="10.00" fill="#000000">G4HepRepSceneHandler</text>
<text text-anchor="middle" x="798.5" y="-612.7457" font-family="FreeSans" font-size="10.00" fill="#000000">::getFullTypeName</text>
</a>
</g>
</g>
<!-- Node25&#45;&gt;Node26 -->
<g id="edge40" class="edge">
<title>Node25&#45;&gt;Node26</title>
<path fill="none" stroke="#191970" d="M689.2782,-608.5588C701.9495,-610.0887 714.9579,-611.6592 727.3802,-613.159"/>
<polygon fill="#191970" stroke="#191970" points="689.5535,-605.0667 679.2061,-607.3427 688.7144,-612.0162 689.5535,-605.0667"/>
</g>
<!-- Node27 -->
<g id="node27" class="node">
<title>Node27</title>
<g id="a_node27"><a xlink:href="../../d3/d61/classG4HepRepSceneHandler.html#abbdd557d18f645f0b2af8395671ce322" target="_top" xlink:title="G4HepRepSceneHandler\l::getGeometryType">
<polygon fill="none" stroke="#000000" points="928,-605.7457 928,-637.7457 1070,-637.7457 1070,-605.7457 928,-605.7457"/>
<text text-anchor="start" x="936" y="-624.7457" font-family="FreeSans" font-size="10.00" fill="#000000">G4HepRepSceneHandler</text>
<text text-anchor="middle" x="999" y="-612.7457" font-family="FreeSans" font-size="10.00" fill="#000000">::getGeometryType</text>
</a>
</g>
</g>
<!-- Node25&#45;&gt;Node27 -->
<g id="edge45" class="edge">
<title>Node25&#45;&gt;Node27</title>
<path fill="none" stroke="#191970" d="M645.2581,-619.5066C666.6968,-630.2579 694.5545,-642.2588 721,-647.7457 794.6873,-663.0344 881.2417,-650.2174 937.9564,-637.761"/>
<polygon fill="#191970" stroke="#191970" points="646.6811,-616.3027 636.1876,-614.8409 643.4791,-622.5275 646.6811,-616.3027"/>
</g>
<!-- Node26&#45;&gt;Node27 -->
<g id="edge41" class="edge">
<title>Node26&#45;&gt;Node27</title>
<path fill="none" stroke="#191970" d="M880.0752,-621.7457C895.9509,-621.7457 912.4743,-621.7457 927.9761,-621.7457"/>
<polygon fill="#191970" stroke="#191970" points="879.7534,-618.2458 869.7533,-621.7457 879.7533,-625.2458 879.7534,-618.2458"/>
</g>
<!-- Node27&#45;&gt;Node23 -->
<g id="edge43" class="edge">
<title>Node27&#45;&gt;Node23</title>
<path fill="none" stroke="#191970" d="M1069.9355,-603.0977C1090.2415,-597.7595 1112.1935,-591.9886 1131.8575,-586.8192"/>
<polygon fill="#191970" stroke="#191970" points="1068.898,-599.7514 1060.1165,-605.679 1070.6778,-606.5214 1068.898,-599.7514"/>
</g>
<!-- Node28 -->
<g id="node28" class="node">
<title>Node28</title>
<g id="a_node28"><a xlink:href="../../d3/d61/classG4HepRepSceneHandler.html#ab133f0d8e94d3f87f9c2b23b91ba14b2" target="_top" xlink:title="G4HepRepSceneHandler\l::AddSolid">
<polygon fill="none" stroke="#000000" points="1122,-605.7457 1122,-637.7457 1264,-637.7457 1264,-605.7457 1122,-605.7457"/>
<text text-anchor="start" x="1130" y="-624.7457" font-family="FreeSans" font-size="10.00" fill="#000000">G4HepRepSceneHandler</text>
<text text-anchor="middle" x="1193" y="-612.7457" font-family="FreeSans" font-size="10.00" fill="#000000">::AddSolid</text>
</a>
</g>
</g>
<!-- Node27&#45;&gt;Node28 -->
<g id="edge42" class="edge">
<title>Node27&#45;&gt;Node28</title>
<path fill="none" stroke="#191970" d="M1080.5374,-621.7457C1094.2709,-621.7457 1108.4289,-621.7457 1121.8717,-621.7457"/>
<polygon fill="#191970" stroke="#191970" points="1080.1369,-618.2458 1070.1369,-621.7457 1080.1368,-625.2458 1080.1369,-618.2458"/>
</g>
<!-- Node29&#45;&gt;Node21 -->
<g id="edge47" class="edge">
<title>Node29&#45;&gt;Node21</title>
<path fill="none" stroke="#191970" d="M327.4246,-510.2443C388.2974,-513.6074 470.9856,-518.1758 530.8128,-521.4812"/>
<polygon fill="#191970" stroke="#191970" points="327.2655,-506.7302 317.0876,-509.6732 326.8793,-513.7196 327.2655,-506.7302"/>
</g>
<!-- Node29&#45;&gt;Node24 -->
<g id="edge48" class="edge">
<title>Node29&#45;&gt;Node24</title>
<path fill="none" stroke="#191970" d="M323.8154,-524.1066C334.5292,-526.6346 345.4628,-529.2144 355.9817,-531.6964"/>
<polygon fill="#191970" stroke="#191970" points="324.5926,-520.694 314.0561,-521.8039 322.985,-527.5069 324.5926,-520.694"/>
</g>
</g>
</svg>
