<?xml version="1.0" encoding="UTF-8" standalone="no"?>
<!DOCTYPE svg PUBLIC "-//W3C//DTD SVG 1.1//EN"
 "http://www.w3.org/Graphics/SVG/1.1/DTD/svg11.dtd">
<!-- Generated by graphviz version 2.40.1 (20161225.0304)
 -->
<!-- Title: G4Para::GetPointOnSurface Pages: 1 -->
<svg width="336pt" height="80pt"
 viewBox="0.00 0.00 336.00 80.00" xmlns="http://www.w3.org/2000/svg" xmlns:xlink="http://www.w3.org/1999/xlink">
<g id="graph0" class="graph" transform="scale(1 1) rotate(0) translate(4 76)">
<title>G4Para::GetPointOnSurface</title>
<!-- Node1 -->
<g id="node1" class="node">
<title>Node1</title>
<polygon fill="#bfbfbf" stroke="#000000" points="0,-22.5 0,-42.5 155,-42.5 155,-22.5 0,-22.5"/>
<text text-anchor="middle" x="77.5" y="-29.5" font-family="FreeSans" font-size="10.00" fill="#000000">G4Para::GetPointOnSurface</text>
</g>
<!-- Node2 -->
<g id="node2" class="node">
<title>Node2</title>
<g id="a_node2"><a xlink:href="../../da/dcf/classCLHEP_1_1Hep3Vector.html#ac839b0dd2e408ee8fbbc453dfeb906f2" target="_top" xlink:title="CLHEP::Hep3Vector::\lcross">
<polygon fill="none" stroke="#000000" points="199.5,-39.5 199.5,-71.5 319.5,-71.5 319.5,-39.5 199.5,-39.5"/>
<text text-anchor="start" x="207.5" y="-58.5" font-family="FreeSans" font-size="10.00" fill="#000000">CLHEP::Hep3Vector::</text>
<text text-anchor="middle" x="259.5" y="-46.5" font-family="FreeSans" font-size="10.00" fill="#000000">cross</text>
</a>
</g>
</g>
<!-- Node1&#45;&gt;Node2 -->
<g id="edge1" class="edge">
<title>Node1&#45;&gt;Node2</title>
<path fill="none" stroke="#191970" d="M155.2123,-42.3208C166.5299,-43.751 178.1277,-45.2167 189.2851,-46.6267"/>
<polygon fill="#191970" stroke="#191970" points="189.0273,-50.1219 199.3872,-47.9033 189.905,-43.1771 189.0273,-50.1219"/>
</g>
<!-- Node3 -->
<g id="node3" class="node">
<title>Node3</title>
<g id="a_node3"><a xlink:href="../../da/dcf/classCLHEP_1_1Hep3Vector.html#abd8b55ba393986873db4fe1a9b709ff9" target="_top" xlink:title="CLHEP::Hep3Vector::set">
<polygon fill="none" stroke="#000000" points="191,-.5 191,-20.5 328,-20.5 328,-.5 191,-.5"/>
<text text-anchor="middle" x="259.5" y="-7.5" font-family="FreeSans" font-size="10.00" fill="#000000">CLHEP::Hep3Vector::set</text>
</a>
</g>
</g>
<!-- Node1&#45;&gt;Node3 -->
<g id="edge2" class="edge">
<title>Node1&#45;&gt;Node3</title>
<path fill="none" stroke="#191970" d="M155.2123,-23.1062C163.7537,-22.0737 172.4547,-21.022 181.0056,-19.9883"/>
<polygon fill="#191970" stroke="#191970" points="181.4483,-23.4604 190.956,-18.7855 180.6082,-16.511 181.4483,-23.4604"/>
</g>
</g>
</svg>
