<?xml version="1.0" encoding="UTF-8" standalone="no"?>
<!DOCTYPE svg PUBLIC "-//W3C//DTD SVG 1.1//EN"
 "http://www.w3.org/Graphics/SVG/1.1/DTD/svg11.dtd">
<!-- Generated by graphviz version 2.40.1 (20161225.0304)
 -->
<!-- Title: G4Sphere::operator= Pages: 1 -->
<svg width="459pt" height="29pt"
 viewBox="0.00 0.00 459.00 29.00" xmlns="http://www.w3.org/2000/svg" xmlns:xlink="http://www.w3.org/1999/xlink">
<g id="graph0" class="graph" transform="scale(1 1) rotate(0) translate(4 25)">
<title>G4Sphere::operator=</title>
<!-- Node1 -->
<g id="node1" class="node">
<title>Node1</title>
<polygon fill="#bfbfbf" stroke="#000000" points="0,-.5 0,-20.5 124,-20.5 124,-.5 0,-.5"/>
<text text-anchor="middle" x="62" y="-7.5" font-family="FreeSans" font-size="10.00" fill="#000000">G4Sphere::operator=</text>
</g>
<!-- Node2 -->
<g id="node2" class="node">
<title>Node2</title>
<g id="a_node2"><a xlink:href="../../df/d71/classG4CSGSolid.html#af892a13b830369dff0855b04fcf8074e" target="_top" xlink:title="G4CSGSolid::operator=">
<polygon fill="none" stroke="#000000" points="160,-.5 160,-20.5 295,-20.5 295,-.5 160,-.5"/>
<text text-anchor="middle" x="227.5" y="-7.5" font-family="FreeSans" font-size="10.00" fill="#000000">G4CSGSolid::operator=</text>
</a>
</g>
</g>
<!-- Node1&#45;&gt;Node2 -->
<g id="edge1" class="edge">
<title>Node1&#45;&gt;Node2</title>
<path fill="none" stroke="#191970" d="M124.097,-10.5C132.4694,-10.5 141.1432,-10.5 149.7447,-10.5"/>
<polygon fill="#191970" stroke="#191970" points="149.7866,-14.0001 159.7866,-10.5 149.7866,-7.0001 149.7866,-14.0001"/>
</g>
<!-- Node3 -->
<g id="node3" class="node">
<title>Node3</title>
<g id="a_node3"><a xlink:href="../../da/d34/classG4VSolid.html#abe17aa8d958f1c48223b296c6c869f21" target="_top" xlink:title="G4VSolid::operator=">
<polygon fill="none" stroke="#000000" points="331,-.5 331,-20.5 451,-20.5 451,-.5 331,-.5"/>
<text text-anchor="middle" x="391" y="-7.5" font-family="FreeSans" font-size="10.00" fill="#000000">G4VSolid::operator=</text>
</a>
</g>
</g>
<!-- Node2&#45;&gt;Node3 -->
<g id="edge2" class="edge">
<title>Node2&#45;&gt;Node3</title>
<path fill="none" stroke="#191970" d="M295.4183,-10.5C303.7766,-10.5 312.3337,-10.5 320.726,-10.5"/>
<polygon fill="#191970" stroke="#191970" points="320.8569,-14.0001 330.8569,-10.5 320.8568,-7.0001 320.8569,-14.0001"/>
</g>
</g>
</svg>
