<?xml version="1.0" encoding="UTF-8" standalone="no"?>
<!DOCTYPE svg PUBLIC "-//W3C//DTD SVG 1.1//EN"
 "http://www.w3.org/Graphics/SVG/1.1/DTD/svg11.dtd">
<!-- Generated by graphviz version 2.40.1 (20161225.0304)
 -->
<!-- Title: geant4/tree/geant4&#45;10.6&#45;release/source/processes/parameterisation/src/G4FastSimulationManager.cc Pages: 1 -->
<svg width="2549pt" height="977pt"
 viewBox="0.00 0.00 2548.55 977.00" xmlns="http://www.w3.org/2000/svg" xmlns:xlink="http://www.w3.org/1999/xlink">
<g id="graph0" class="graph" transform="scale(1 1) rotate(0) translate(4 973)">
<title>geant4/tree/geant4&#45;10.6&#45;release/source/processes/parameterisation/src/G4FastSimulationManager.cc</title>
<!-- Node1 -->
<g id="node1" class="node">
<title>Node1</title>
<polygon fill="#bfbfbf" stroke="#000000" points="1750.5,-912.5 1750.5,-968.5 1935.5,-968.5 1935.5,-912.5 1750.5,-912.5"/>
<text text-anchor="start" x="1758.5" y="-955.5" font-family="FreeSans" font-size="10.00" fill="#000000">geant4/tree/geant4</text>
<text text-anchor="start" x="1758.5" y="-943.5" font-family="FreeSans" font-size="10.00" fill="#000000">&#45;10.6&#45;release/source</text>
<text text-anchor="start" x="1758.5" y="-931.5" font-family="FreeSans" font-size="10.00" fill="#000000">/processes/parameterisation</text>
<text text-anchor="middle" x="1843" y="-919.5" font-family="FreeSans" font-size="10.00" fill="#000000">/src/G4FastSimulationManager.cc</text>
</g>
<!-- Node2 -->
<g id="node2" class="node">
<title>Node2</title>
<g id="a_node2"><a xlink:href="../../dd/d3e/G4FastSimulationManager_8hh.html" target="_top" xlink:title="G4FastSimulationManager.hh">
<polygon fill="none" stroke="#000000" points="1393,-741.5 1393,-761.5 1557,-761.5 1557,-741.5 1393,-741.5"/>
<text text-anchor="middle" x="1475" y="-748.5" font-family="FreeSans" font-size="10.00" fill="#000000">G4FastSimulationManager.hh</text>
</a>
</g>
</g>
<!-- Node1&#45;&gt;Node2 -->
<g id="edge1" class="edge">
<title>Node1&#45;&gt;Node2</title>
<path fill="none" stroke="#191970" d="M1788.304,-912.4089C1709.0515,-871.7058 1565.0845,-797.7662 1503.8309,-766.3072"/>
<polygon fill="#191970" stroke="#191970" points="1505.2273,-763.0898 1494.7329,-761.6346 1502.0293,-769.3166 1505.2273,-763.0898"/>
</g>
<!-- Node44 -->
<g id="node44" class="node">
<title>Node44</title>
<g id="a_node44"><a xlink:href="../../d3/dc6/G4GlobalFastSimulationManager_8hh.html" target="_top" xlink:title="G4GlobalFastSimulationManager.hh">
<polygon fill="none" stroke="#000000" points="1376.5,-855.5 1376.5,-875.5 1573.5,-875.5 1573.5,-855.5 1376.5,-855.5"/>
<text text-anchor="middle" x="1475" y="-862.5" font-family="FreeSans" font-size="10.00" fill="#000000">G4GlobalFastSimulationManager.hh</text>
</a>
</g>
</g>
<!-- Node1&#45;&gt;Node44 -->
<g id="edge106" class="edge">
<title>Node1&#45;&gt;Node44</title>
<path fill="none" stroke="#191970" d="M1750.1381,-921.5743C1682.447,-907.7786 1592.7398,-889.4959 1534.455,-877.6172"/>
<polygon fill="#191970" stroke="#191970" points="1534.8054,-874.1167 1524.3079,-875.5492 1533.4075,-880.9757 1534.8054,-874.1167"/>
</g>
<!-- Node47 -->
<g id="node47" class="node">
<title>Node47</title>
<g id="a_node47"><a xlink:href="../../d7/da4/G4PVPlacement_8hh.html" target="_top" xlink:title="G4PVPlacement.hh">
<polygon fill="none" stroke="#000000" points="2028,-741.5 2028,-761.5 2140,-761.5 2140,-741.5 2028,-741.5"/>
<text text-anchor="middle" x="2084" y="-748.5" font-family="FreeSans" font-size="10.00" fill="#000000">G4PVPlacement.hh</text>
</a>
</g>
</g>
<!-- Node1&#45;&gt;Node47 -->
<g id="edge119" class="edge">
<title>Node1&#45;&gt;Node47</title>
<path fill="none" stroke="#191970" d="M1878.8199,-912.4089C1929.8673,-872.3758 2021.912,-800.1914 2063.0943,-767.8949"/>
<polygon fill="#191970" stroke="#191970" points="2065.3681,-770.5597 2071.0771,-761.6346 2061.0484,-765.0515 2065.3681,-770.5597"/>
</g>
<!-- Node48 -->
<g id="node48" class="node">
<title>Node48</title>
<g id="a_node48"><a xlink:href="../../d1/d2e/G4TransportationManager_8hh.html" target="_top" xlink:title="G4TransportationManager.hh">
<polygon fill="none" stroke="#000000" points="2040.5,-627.5 2040.5,-647.5 2203.5,-647.5 2203.5,-627.5 2040.5,-627.5"/>
<text text-anchor="middle" x="2122" y="-634.5" font-family="FreeSans" font-size="10.00" fill="#000000">G4TransportationManager.hh</text>
</a>
</g>
</g>
<!-- Node1&#45;&gt;Node48 -->
<g id="edge122" class="edge">
<title>Node1&#45;&gt;Node48</title>
<path fill="none" stroke="#191970" d="M1935.8602,-914.2729C2008.1523,-888.4177 2103.5877,-841.0645 2149,-762 2166.2661,-731.9391 2158.0137,-717.4743 2149,-684 2146.3194,-674.0451 2140.9269,-664.0254 2135.661,-655.8495"/>
<polygon fill="#191970" stroke="#191970" points="2138.4716,-653.7597 2129.9209,-647.5038 2132.7041,-657.7265 2138.4716,-653.7597"/>
</g>
<!-- Node3 -->
<g id="node3" class="node">
<title>Node3</title>
<g id="a_node3"><a xlink:href="../../da/d46/globals_8hh.html" target="_top" xlink:title="globals.hh">
<polygon fill="none" stroke="#000000" points="1559,-228.5 1559,-248.5 1627,-248.5 1627,-228.5 1559,-228.5"/>
<text text-anchor="middle" x="1593" y="-235.5" font-family="FreeSans" font-size="10.00" fill="#000000">globals.hh</text>
</a>
</g>
</g>
<!-- Node2&#45;&gt;Node3 -->
<g id="edge2" class="edge">
<title>Node2&#45;&gt;Node3</title>
<path fill="none" stroke="#191970" d="M1557.0281,-742.2098C1722.2683,-723.1322 2089.9112,-678.7521 2213,-648 2284.6154,-630.1079 2318.8226,-645.1398 2369,-591 2390.1852,-568.1418 2388,-554.6658 2388,-523.5 2388,-523.5 2388,-523.5 2388,-352.5 2388,-276.0571 1804.6193,-246.9259 1637.3388,-240.1441"/>
<polygon fill="#191970" stroke="#191970" points="1637.2917,-236.6395 1627.1602,-239.7383 1637.0128,-243.634 1637.2917,-236.6395"/>
</g>
<!-- Node4 -->
<g id="node4" class="node">
<title>Node4</title>
<g id="a_node4"><a xlink:href="../../df/de9/G4ios_8hh.html" target="_top" xlink:title="G4ios.hh">
<polygon fill="none" stroke="#ff0000" points="941.5,-57.5 941.5,-77.5 1002.5,-77.5 1002.5,-57.5 941.5,-57.5"/>
<text text-anchor="middle" x="972" y="-64.5" font-family="FreeSans" font-size="10.00" fill="#000000">G4ios.hh</text>
</a>
</g>
</g>
<!-- Node2&#45;&gt;Node4 -->
<g id="edge105" class="edge">
<title>Node2&#45;&gt;Node4</title>
<path fill="none" stroke="#191970" d="M1392.9601,-748.9133C1213.1702,-742.8751 795.5944,-726.7 735,-705 490.8473,-617.5644 270,-611.8368 270,-352.5 270,-352.5 270,-352.5 270,-181.5 270,-127.1391 320.5894,-131.6653 372,-114 475.8267,-78.3238 813.5375,-69.8854 931.1581,-68.0072"/>
<polygon fill="#191970" stroke="#191970" points="931.2484,-71.5064 941.1939,-67.8545 931.1418,-64.5072 931.2484,-71.5064"/>
</g>
<!-- Node12 -->
<g id="node12" class="node">
<title>Node12</title>
<g id="a_node12"><a xlink:href="../../dd/da7/G4LogicalVolume_8hh.html" target="_top" xlink:title="G4LogicalVolume.hh">
<polygon fill="none" stroke="#000000" points="972,-456.5 972,-476.5 1092,-476.5 1092,-456.5 972,-456.5"/>
<text text-anchor="middle" x="1032" y="-463.5" font-family="FreeSans" font-size="10.00" fill="#000000">G4LogicalVolume.hh</text>
</a>
</g>
</g>
<!-- Node2&#45;&gt;Node12 -->
<g id="edge18" class="edge">
<title>Node2&#45;&gt;Node12</title>
<path fill="none" stroke="#191970" d="M1392.9241,-743.1391C1282.8311,-729.6055 1101,-698.0829 1101,-637.5 1101,-637.5 1101,-637.5 1101,-580.5 1101,-541.5236 1071.1154,-504.4742 1050.6809,-483.6965"/>
<polygon fill="#191970" stroke="#191970" points="1052.9873,-481.0564 1043.3939,-476.5599 1048.0894,-486.0575 1052.9873,-481.0564"/>
</g>
<!-- Node14 -->
<g id="node14" class="node">
<title>Node14</title>
<g id="a_node14"><a xlink:href="../../d1/d02/G4Region_8hh.html" target="_top" xlink:title="G4Region.hh">
<polygon fill="none" stroke="#000000" points="972.5,-399.5 972.5,-419.5 1053.5,-419.5 1053.5,-399.5 972.5,-399.5"/>
<text text-anchor="middle" x="1013" y="-406.5" font-family="FreeSans" font-size="10.00" fill="#000000">G4Region.hh</text>
</a>
</g>
</g>
<!-- Node2&#45;&gt;Node14 -->
<g id="edge48" class="edge">
<title>Node2&#45;&gt;Node14</title>
<path fill="none" stroke="#191970" d="M1392.8217,-744.5113C1226.9962,-729.3 868,-690.2745 868,-637.5 868,-637.5 868,-637.5 868,-523.5 868,-471.3623 926.6529,-439.431 969.3516,-423.0932"/>
<polygon fill="#191970" stroke="#191970" points="970.8183,-426.2834 979.0039,-419.557 968.4102,-419.7106 970.8183,-426.2834"/>
</g>
<!-- Node18 -->
<g id="node18" class="node">
<title>Node18</title>
<g id="a_node18"><a xlink:href="../../d2/d16/G4VPhysicalVolume_8hh.html" target="_top" xlink:title="G4VPhysicalVolume.hh">
<polygon fill="none" stroke="#000000" points="1688,-399.5 1688,-419.5 1820,-419.5 1820,-399.5 1688,-399.5"/>
<text text-anchor="middle" x="1754" y="-406.5" font-family="FreeSans" font-size="10.00" fill="#000000">G4VPhysicalVolume.hh</text>
</a>
</g>
</g>
<!-- Node2&#45;&gt;Node18 -->
<g id="edge49" class="edge">
<title>Node2&#45;&gt;Node18</title>
<path fill="none" stroke="#191970" d="M1506.7665,-741.4496C1528.2394,-733.6707 1556.4895,-721.4429 1578,-705 1679.4867,-627.4224 1713.2677,-598.405 1753,-477 1757.9554,-461.8583 1757.9301,-443.7645 1756.8164,-430.1232"/>
<polygon fill="#191970" stroke="#191970" points="1760.2632,-429.441 1755.7103,-419.8743 1753.3036,-430.1921 1760.2632,-429.441"/>
</g>
<!-- Node20 -->
<g id="node20" class="node">
<title>Node20</title>
<g id="a_node20"><a xlink:href="../../d4/de4/G4RotationMatrix_8hh.html" target="_top" xlink:title="G4RotationMatrix.hh">
<polygon fill="none" stroke="#ff0000" points="1914,-342.5 1914,-362.5 2034,-362.5 2034,-342.5 1914,-342.5"/>
<text text-anchor="middle" x="1974" y="-349.5" font-family="FreeSans" font-size="10.00" fill="#000000">G4RotationMatrix.hh</text>
</a>
</g>
</g>
<!-- Node2&#45;&gt;Node20 -->
<g id="edge98" class="edge">
<title>Node2&#45;&gt;Node20</title>
<path fill="none" stroke="#191970" d="M1513.4557,-741.4948C1540.1463,-733.6679 1575.9782,-721.3654 1605,-705 1769.4525,-612.2655 1915.8066,-429.6636 1960.2402,-371.0671"/>
<polygon fill="#191970" stroke="#191970" points="1963.2733,-372.857 1966.4836,-362.7602 1957.6776,-368.6513 1963.2733,-372.857"/>
</g>
<!-- Node21 -->
<g id="node21" class="node">
<title>Node21</title>
<g id="a_node21"><a xlink:href="../../d8/dbe/G4ThreeVector_8hh.html" target="_top" xlink:title="G4ThreeVector.hh">
<polygon fill="none" stroke="#ff0000" points="2028,-285.5 2028,-305.5 2134,-305.5 2134,-285.5 2028,-285.5"/>
<text text-anchor="middle" x="2081" y="-292.5" font-family="FreeSans" font-size="10.00" fill="#000000">G4ThreeVector.hh</text>
</a>
</g>
</g>
<!-- Node2&#45;&gt;Node21 -->
<g id="edge99" class="edge">
<title>Node2&#45;&gt;Node21</title>
<path fill="none" stroke="#191970" d="M1519.8728,-741.4679C1552.289,-733.4839 1596.739,-721.003 1634,-705 1810.7877,-629.0727 1864.4182,-611.4994 2002,-477 2046.4445,-433.5512 2066.1021,-422.8128 2083,-363 2087.3329,-347.6631 2086.5002,-329.5814 2084.7662,-315.9944"/>
<polygon fill="#191970" stroke="#191970" points="2088.1768,-315.1459 2083.1912,-305.7974 2081.2588,-316.2145 2088.1768,-315.1459"/>
</g>
<!-- Node25 -->
<g id="node25" class="node">
<title>Node25</title>
<g id="a_node25"><a xlink:href="../../d3/d3c/G4ParticleTable_8hh.html" target="_top" xlink:title="G4ParticleTable.hh">
<polygon fill="none" stroke="#000000" points="626,-456.5 626,-476.5 736,-476.5 736,-456.5 626,-456.5"/>
<text text-anchor="middle" x="681" y="-463.5" font-family="FreeSans" font-size="10.00" fill="#000000">G4ParticleTable.hh</text>
</a>
</g>
</g>
<!-- Node2&#45;&gt;Node25 -->
<g id="edge50" class="edge">
<title>Node2&#45;&gt;Node25</title>
<path fill="none" stroke="#191970" d="M1392.8517,-749.4706C1220.4068,-744.7138 832.0901,-731.2137 778,-705 741.6127,-687.3656 717,-677.9353 717,-637.5 717,-637.5 717,-637.5 717,-580.5 717,-545.7628 701.6127,-507.7199 690.9578,-485.5413"/>
<polygon fill="#191970" stroke="#191970" points="694.0622,-483.9236 686.4676,-476.5363 687.7978,-487.0473 694.0622,-483.9236"/>
</g>
<!-- Node26 -->
<g id="node26" class="node">
<title>Node26</title>
<g id="a_node26"><a xlink:href="../../da/d12/G4ParticleDefinition_8hh.html" target="_top" xlink:title="G4ParticleDefinition.hh">
<polygon fill="none" stroke="#000000" points="638.5,-342.5 638.5,-362.5 771.5,-362.5 771.5,-342.5 638.5,-342.5"/>
<text text-anchor="middle" x="705" y="-349.5" font-family="FreeSans" font-size="10.00" fill="#000000">G4ParticleDefinition.hh</text>
</a>
</g>
</g>
<!-- Node2&#45;&gt;Node26 -->
<g id="edge67" class="edge">
<title>Node2&#45;&gt;Node26</title>
<path fill="none" stroke="#191970" d="M1392.8001,-746.8197C1269.8413,-739.3405 1044.0199,-723.6242 965,-705 884.6668,-686.0663 792,-720.0342 792,-637.5 792,-637.5 792,-637.5 792,-466.5 792,-424.6716 754.5287,-388.6453 728.7695,-368.8211"/>
<polygon fill="#191970" stroke="#191970" points="730.6725,-365.875 720.5539,-362.7343 726.5054,-371.4996 730.6725,-365.875"/>
</g>
<!-- Node32 -->
<g id="node32" class="node">
<title>Node32</title>
<g id="a_node32"><a xlink:href="../../d6/d6a/G4VParticleChange_8hh.html" target="_top" xlink:title="G4VParticleChange.hh">
<polygon fill="none" stroke="#ff0000" points="1414.5,-513.5 1414.5,-533.5 1543.5,-533.5 1543.5,-513.5 1414.5,-513.5"/>
<text text-anchor="middle" x="1479" y="-520.5" font-family="FreeSans" font-size="10.00" fill="#000000">G4VParticleChange.hh</text>
</a>
</g>
</g>
<!-- Node2&#45;&gt;Node32 -->
<g id="edge68" class="edge">
<title>Node2&#45;&gt;Node32</title>
<path fill="none" stroke="#191970" d="M1432.991,-741.4253C1412.6226,-734.4532 1389.4898,-723.0764 1375,-705 1336.8349,-657.3882 1314.9229,-619.9305 1350,-570 1359.1688,-556.9487 1394.0824,-544.8202 1425.2776,-536.2243"/>
<polygon fill="#191970" stroke="#191970" points="1426.4815,-539.5255 1435.2379,-533.5609 1424.6731,-532.7631 1426.4815,-539.5255"/>
</g>
<!-- Node38 -->
<g id="node38" class="node">
<title>Node38</title>
<g id="a_node38"><a xlink:href="../../d2/d76/G4FastTrack_8hh.html" target="_top" xlink:title="G4FastTrack.hh">
<polygon fill="none" stroke="#ff0000" points="1358.5,-570.5 1358.5,-590.5 1451.5,-590.5 1451.5,-570.5 1358.5,-570.5"/>
<text text-anchor="middle" x="1405" y="-577.5" font-family="FreeSans" font-size="10.00" fill="#000000">G4FastTrack.hh</text>
</a>
</g>
</g>
<!-- Node2&#45;&gt;Node38 -->
<g id="edge81" class="edge">
<title>Node2&#45;&gt;Node38</title>
<path fill="none" stroke="#191970" d="M1436.8521,-741.4577C1418.3767,-734.463 1397.8808,-723.056 1387,-705 1367.1971,-672.1383 1383.0505,-625.7475 1394.9479,-599.8721"/>
<polygon fill="#191970" stroke="#191970" points="1398.1664,-601.2564 1399.3841,-590.7318 1391.869,-598.2 1398.1664,-601.2564"/>
</g>
<!-- Node40 -->
<g id="node40" class="node">
<title>Node40</title>
<g id="a_node40"><a xlink:href="../../d1/d2a/G4FastStep_8hh.html" target="_top" xlink:title="G4FastStep.hh">
<polygon fill="none" stroke="#ff0000" points="1435.5,-627.5 1435.5,-647.5 1524.5,-647.5 1524.5,-627.5 1435.5,-627.5"/>
<text text-anchor="middle" x="1480" y="-634.5" font-family="FreeSans" font-size="10.00" fill="#000000">G4FastStep.hh</text>
</a>
</g>
</g>
<!-- Node2&#45;&gt;Node40 -->
<g id="edge89" class="edge">
<title>Node2&#45;&gt;Node40</title>
<path fill="none" stroke="#191970" d="M1513.1479,-741.4577C1531.6233,-734.463 1552.1192,-723.056 1563,-705 1576.935,-681.8757 1548.2843,-663.2491 1520.9169,-651.468"/>
<polygon fill="#191970" stroke="#191970" points="1521.9443,-648.1078 1511.3621,-647.5902 1519.3119,-654.594 1521.9443,-648.1078"/>
</g>
<!-- Node41 -->
<g id="node41" class="node">
<title>Node41</title>
<g id="a_node41"><a xlink:href="../../df/de8/G4VFastSimulationModel_8hh.html" target="_top" xlink:title="G4VFastSimulationModel.hh">
<polygon fill="none" stroke="#000000" points="1396,-684.5 1396,-704.5 1554,-704.5 1554,-684.5 1396,-684.5"/>
<text text-anchor="middle" x="1475" y="-691.5" font-family="FreeSans" font-size="10.00" fill="#000000">G4VFastSimulationModel.hh</text>
</a>
</g>
</g>
<!-- Node2&#45;&gt;Node41 -->
<g id="edge95" class="edge">
<title>Node2&#45;&gt;Node41</title>
<path fill="none" stroke="#191970" d="M1475,-741.3095C1475,-733.9335 1475,-723.72 1475,-714.715"/>
<polygon fill="#191970" stroke="#191970" points="1478.5001,-714.6022 1475,-704.6022 1471.5001,-714.6023 1478.5001,-714.6022"/>
</g>
<!-- Node42 -->
<g id="node42" class="node">
<title>Node42</title>
<g id="a_node42"><a xlink:href="../../d3/dd7/G4Transform3D_8hh.html" target="_top" xlink:title="G4Transform3D.hh">
<polygon fill="none" stroke="#ff0000" points="2028.5,-684.5 2028.5,-704.5 2139.5,-704.5 2139.5,-684.5 2028.5,-684.5"/>
<text text-anchor="middle" x="2084" y="-691.5" font-family="FreeSans" font-size="10.00" fill="#000000">G4Transform3D.hh</text>
</a>
</g>
</g>
<!-- Node2&#45;&gt;Node42 -->
<g id="edge100" class="edge">
<title>Node2&#45;&gt;Node42</title>
<path fill="none" stroke="#191970" d="M1557.1324,-743.8127C1679.2907,-732.3792 1906.4349,-711.1194 2018.2931,-700.6499"/>
<polygon fill="#191970" stroke="#191970" points="2018.7951,-704.1183 2028.4254,-699.7016 2018.1428,-697.1488 2018.7951,-704.1183"/>
</g>
<!-- Node43 -->
<g id="node43" class="node">
<title>Node43</title>
<g id="a_node43"><a xlink:href="../../d5/dc2/G4FastSimulationVector_8hh.html" target="_top" xlink:title="G4FastSimulationVector.hh">
<polygon fill="none" stroke="#ff0000" points="156,-627.5 156,-647.5 308,-647.5 308,-627.5 156,-627.5"/>
<text text-anchor="middle" x="232" y="-634.5" font-family="FreeSans" font-size="10.00" fill="#000000">G4FastSimulationVector.hh</text>
</a>
</g>
</g>
<!-- Node2&#45;&gt;Node43 -->
<g id="edge102" class="edge">
<title>Node2&#45;&gt;Node43</title>
<path fill="none" stroke="#191970" d="M1392.9551,-751.0028C1146.2484,-749.1166 421.9735,-740.5787 322,-705 292.9038,-694.6452 265.4146,-671.3294 248.648,-655.0146"/>
<polygon fill="#191970" stroke="#191970" points="250.8551,-652.2708 241.3184,-647.6553 245.8953,-657.2106 250.8551,-652.2708"/>
</g>
<!-- Node3&#45;&gt;Node4 -->
<g id="edge3" class="edge">
<title>Node3&#45;&gt;Node4</title>
<path fill="none" stroke="#191970" d="M1558.7092,-236.8882C1502.4806,-233.4227 1387.7572,-222.8789 1296,-192 1277.3418,-185.721 1274.9663,-179.0479 1257,-171 1171.9746,-132.9132 1068.2949,-98.02 1012.3926,-80.1085"/>
<polygon fill="#191970" stroke="#191970" points="1013.1163,-76.6658 1002.5257,-76.9647 1010.9912,-83.3354 1013.1163,-76.6658"/>
</g>
<!-- Node5 -->
<g id="node5" class="node">
<title>Node5</title>
<g id="a_node5"><a xlink:href="../../de/d29/G4Types_8hh.html" target="_top" xlink:title="G4Types.hh">
<polygon fill="none" stroke="#ff0000" points="972.5,-.5 972.5,-20.5 1047.5,-20.5 1047.5,-.5 972.5,-.5"/>
<text text-anchor="middle" x="1010" y="-7.5" font-family="FreeSans" font-size="10.00" fill="#000000">G4Types.hh</text>
</a>
</g>
</g>
<!-- Node3&#45;&gt;Node5 -->
<g id="edge6" class="edge">
<title>Node3&#45;&gt;Node5</title>
<path fill="none" stroke="#191970" d="M1596.1411,-228.3644C1599.8113,-215.0964 1604.9135,-191.157 1601,-171 1588.6441,-107.3588 1569.8329,-81.9576 1510,-57 1429.033,-23.2269 1166.3462,-13.8167 1057.7043,-11.3365"/>
<polygon fill="#191970" stroke="#191970" points="1057.7569,-7.8369 1047.6828,-11.1175 1057.6039,-14.8352 1057.7569,-7.8369"/>
</g>
<!-- Node6 -->
<g id="node6" class="node">
<title>Node6</title>
<polygon fill="none" stroke="#bfbfbf" points="1182.5,-171.5 1182.5,-191.5 1247.5,-191.5 1247.5,-171.5 1182.5,-171.5"/>
<text text-anchor="middle" x="1215" y="-178.5" font-family="FreeSans" font-size="10.00" fill="#000000">algorithm</text>
</g>
<!-- Node3&#45;&gt;Node6 -->
<g id="edge5" class="edge">
<title>Node3&#45;&gt;Node6</title>
<path fill="none" stroke="#191970" d="M1558.5462,-234.5837C1498.2165,-227.5204 1369.6247,-211.5491 1262,-192 1260.5347,-191.7338 1259.0458,-191.4539 1257.5436,-191.1633"/>
<polygon fill="#191970" stroke="#191970" points="1258.0448,-187.6936 1247.5473,-189.1262 1256.647,-194.5526 1258.0448,-187.6936"/>
</g>
<!-- Node7 -->
<g id="node7" class="node">
<title>Node7</title>
<g id="a_node7"><a xlink:href="../../d2/df2/source_2global_2management_2include_2G4String_8hh.html" target="_top" xlink:title="G4String.hh">
<polygon fill="none" stroke="#ff0000" points="1425,-57.5 1425,-77.5 1501,-77.5 1501,-57.5 1425,-57.5"/>
<text text-anchor="middle" x="1463" y="-64.5" font-family="FreeSans" font-size="10.00" fill="#000000">G4String.hh</text>
</a>
</g>
</g>
<!-- Node3&#45;&gt;Node7 -->
<g id="edge7" class="edge">
<title>Node3&#45;&gt;Node7</title>
<path fill="none" stroke="#191970" d="M1592.8356,-228.1857C1591.9407,-205.08 1586.7505,-148.4943 1558,-114 1545.501,-99.0039 1526.9995,-88.4437 1509.6366,-81.2213"/>
<polygon fill="#191970" stroke="#191970" points="1510.7421,-77.8961 1500.1531,-77.5452 1508.2121,-84.4229 1510.7421,-77.8961"/>
</g>
<!-- Node8 -->
<g id="node8" class="node">
<title>Node8</title>
<g id="a_node8"><a xlink:href="../../d2/d54/templates_8hh.html" target="_top" xlink:title="templates.hh">
<polygon fill="none" stroke="#ff0000" points="1304.5,-171.5 1304.5,-191.5 1387.5,-191.5 1387.5,-171.5 1304.5,-171.5"/>
<text text-anchor="middle" x="1346" y="-178.5" font-family="FreeSans" font-size="10.00" fill="#000000">templates.hh</text>
</a>
</g>
</g>
<!-- Node3&#45;&gt;Node8 -->
<g id="edge9" class="edge">
<title>Node3&#45;&gt;Node8</title>
<path fill="none" stroke="#191970" d="M1558.915,-230.6342C1517.1542,-220.9971 1445.994,-204.5755 1397.5359,-193.3929"/>
<polygon fill="#191970" stroke="#191970" points="1398.0897,-189.9288 1387.5588,-191.0905 1396.5157,-196.7495 1398.0897,-189.9288"/>
</g>
<!-- Node9 -->
<g id="node9" class="node">
<title>Node9</title>
<g id="a_node9"><a xlink:href="../../d5/d4f/G4Exception_8hh.html" target="_top" xlink:title="G4Exception.hh">
<polygon fill="none" stroke="#ff0000" points="1453,-114.5 1453,-134.5 1549,-134.5 1549,-114.5 1453,-114.5"/>
<text text-anchor="middle" x="1501" y="-121.5" font-family="FreeSans" font-size="10.00" fill="#000000">G4Exception.hh</text>
</a>
</g>
</g>
<!-- Node3&#45;&gt;Node9 -->
<g id="edge10" class="edge">
<title>Node3&#45;&gt;Node9</title>
<path fill="none" stroke="#191970" d="M1587.1821,-228.4483C1579.1237,-214.8591 1563.7666,-190.1276 1548,-171 1539.4169,-160.5872 1528.8052,-149.9317 1519.8381,-141.4524"/>
<polygon fill="#191970" stroke="#191970" points="1522.1856,-138.856 1512.4736,-134.6218 1517.4254,-143.9883 1522.1856,-138.856"/>
</g>
<!-- Node10 -->
<g id="node10" class="node">
<title>Node10</title>
<g id="a_node10"><a xlink:href="../../dc/d3a/G4EnvironmentUtils_8hh.html" target="_top" xlink:title="G4EnvironmentUtils.hh">
<polygon fill="none" stroke="#ff0000" points="1405.5,-171.5 1405.5,-191.5 1538.5,-191.5 1538.5,-171.5 1405.5,-171.5"/>
<text text-anchor="middle" x="1472" y="-178.5" font-family="FreeSans" font-size="10.00" fill="#000000">G4EnvironmentUtils.hh</text>
</a>
</g>
</g>
<!-- Node3&#45;&gt;Node10 -->
<g id="edge13" class="edge">
<title>Node3&#45;&gt;Node10</title>
<path fill="none" stroke="#191970" d="M1571.6462,-228.4408C1552.4979,-219.4205 1524.1813,-206.0813 1502.6227,-195.9255"/>
<polygon fill="#191970" stroke="#191970" points="1504.0854,-192.7458 1493.5474,-191.6504 1501.1023,-199.0783 1504.0854,-192.7458"/>
</g>
<!-- Node4&#45;&gt;Node5 -->
<g id="edge4" class="edge">
<title>Node4&#45;&gt;Node5</title>
<path fill="none" stroke="#191970" d="M978.7936,-57.3095C984.0352,-49.4472 991.4261,-38.3608 997.6995,-28.9507"/>
<polygon fill="#191970" stroke="#191970" points="1000.6303,-30.8642 1003.2652,-20.6022 994.8059,-26.9813 1000.6303,-30.8642"/>
</g>
<!-- Node7&#45;&gt;Node5 -->
<g id="edge8" class="edge">
<title>Node7&#45;&gt;Node5</title>
<path fill="none" stroke="#191970" d="M1424.7679,-62.6893C1342.304,-52.3131 1147.8959,-27.8511 1057.6135,-16.4911"/>
<polygon fill="#191970" stroke="#191970" points="1058.0103,-13.0135 1047.6515,-15.2376 1057.1363,-19.9587 1058.0103,-13.0135"/>
</g>
<!-- Node9&#45;&gt;Node4 -->
<g id="edge11" class="edge">
<title>Node9&#45;&gt;Node4</title>
<path fill="none" stroke="#191970" d="M1452.6524,-119.2905C1349.3987,-108.1649 1108.9387,-82.2552 1012.7933,-71.8955"/>
<polygon fill="#191970" stroke="#191970" points="1012.9212,-68.3891 1002.6038,-70.7976 1012.1712,-75.3488 1012.9212,-68.3891"/>
</g>
<!-- Node9&#45;&gt;Node7 -->
<g id="edge12" class="edge">
<title>Node9&#45;&gt;Node7</title>
<path fill="none" stroke="#191970" d="M1494.2064,-114.3095C1488.9648,-106.4472 1481.5739,-95.3608 1475.3005,-85.9507"/>
<polygon fill="#191970" stroke="#191970" points="1478.1941,-83.9813 1469.7348,-77.6022 1472.3697,-87.8642 1478.1941,-83.9813"/>
</g>
<!-- Node10&#45;&gt;Node4 -->
<g id="edge15" class="edge">
<title>Node10&#45;&gt;Node4</title>
<path fill="none" stroke="#191970" d="M1428.0666,-171.4832C1332.1715,-149.6191 1105.2853,-97.889 1012.5555,-76.7467"/>
<polygon fill="#191970" stroke="#191970" points="1013.2344,-73.3117 1002.7065,-74.5011 1011.6782,-80.1365 1013.2344,-73.3117"/>
</g>
<!-- Node10&#45;&gt;Node7 -->
<g id="edge16" class="edge">
<title>Node10&#45;&gt;Node7</title>
<path fill="none" stroke="#191970" d="M1463.5201,-171.1901C1456.7466,-162.243 1447.7839,-148.6194 1444,-135 1439.4813,-118.7358 1445.4313,-100.2882 1451.8353,-86.7935"/>
<polygon fill="#191970" stroke="#191970" points="1455.1315,-88.0424 1456.6552,-77.5577 1448.9257,-84.8038 1455.1315,-88.0424"/>
</g>
<!-- Node10&#45;&gt;Node9 -->
<g id="edge17" class="edge">
<title>Node10&#45;&gt;Node9</title>
<path fill="none" stroke="#191970" d="M1477.1846,-171.3095C1481.1023,-163.6093 1486.5933,-152.8166 1491.3156,-143.5349"/>
<polygon fill="#191970" stroke="#191970" points="1494.4451,-145.1021 1495.8603,-134.6022 1488.2062,-141.9279 1494.4451,-145.1021"/>
</g>
<!-- Node11 -->
<g id="node11" class="node">
<title>Node11</title>
<polygon fill="none" stroke="#bfbfbf" points="502.5,-114.5 502.5,-134.5 541.5,-134.5 541.5,-114.5 502.5,-114.5"/>
<text text-anchor="middle" x="522" y="-121.5" font-family="FreeSans" font-size="10.00" fill="#000000">map</text>
</g>
<!-- Node10&#45;&gt;Node11 -->
<g id="edge14" class="edge">
<title>Node10&#45;&gt;Node11</title>
<path fill="none" stroke="#191970" d="M1405.379,-171.8701C1402.5504,-171.557 1399.7483,-171.2649 1397,-171 1066.5468,-139.1472 663.6276,-127.8097 551.9362,-125.1578"/>
<polygon fill="#191970" stroke="#191970" points="551.8393,-121.6546 541.7606,-124.9213 551.6766,-128.6528 551.8393,-121.6546"/>
</g>
<!-- Node12&#45;&gt;Node5 -->
<g id="edge20" class="edge">
<title>Node12&#45;&gt;Node5</title>
<path fill="none" stroke="#191970" d="M971.8775,-464.1556C864.2331,-459.3452 643.1029,-446.5072 571,-420 554.3376,-413.8744 308,-256.2527 308,-238.5 308,-238.5 308,-238.5 308,-124.5 308,-58.116 803.4169,-22.8144 961.8783,-13.221"/>
<polygon fill="#191970" stroke="#191970" points="962.4842,-16.6911 972.2574,-12.6003 962.0663,-9.7036 962.4842,-16.6911"/>
</g>
<!-- Node13 -->
<g id="node13" class="node">
<title>Node13</title>
<polygon fill="none" stroke="#bfbfbf" points="1314.5,-285.5 1314.5,-305.5 1363.5,-305.5 1363.5,-285.5 1314.5,-285.5"/>
<text text-anchor="middle" x="1339" y="-292.5" font-family="FreeSans" font-size="10.00" fill="#000000">vector</text>
</g>
<!-- Node12&#45;&gt;Node13 -->
<g id="edge19" class="edge">
<title>Node12&#45;&gt;Node13</title>
<path fill="none" stroke="#191970" d="M1092.0329,-457.0462C1150.3888,-447.2458 1231.5814,-431.7444 1241,-420 1263.1401,-392.3927 1205.2598,-371.3712 1225,-342 1234.2929,-328.1733 1274.5357,-313.9444 1304.592,-304.9295"/>
<polygon fill="#191970" stroke="#191970" points="1305.7195,-308.2464 1314.3351,-302.0803 1303.7547,-301.5278 1305.7195,-308.2464"/>
</g>
<!-- Node12&#45;&gt;Node14 -->
<g id="edge21" class="edge">
<title>Node12&#45;&gt;Node14</title>
<path fill="none" stroke="#191970" d="M1028.6032,-456.3095C1026.0905,-448.7714 1022.5899,-438.2696 1019.541,-429.123"/>
<polygon fill="#191970" stroke="#191970" points="1022.8502,-427.9823 1016.3674,-419.6022 1016.2094,-430.1959 1022.8502,-427.9823"/>
</g>
<!-- Node16 -->
<g id="node16" class="node">
<title>Node16</title>
<g id="a_node16"><a xlink:href="../../db/d63/G4GeomSplitter_8hh.html" target="_top" xlink:title="G4GeomSplitter.hh">
<polygon fill="none" stroke="#ff0000" points="1404,-342.5 1404,-362.5 1516,-362.5 1516,-342.5 1404,-342.5"/>
<text text-anchor="middle" x="1460" y="-349.5" font-family="FreeSans" font-size="10.00" fill="#000000">G4GeomSplitter.hh</text>
</a>
</g>
</g>
<!-- Node12&#45;&gt;Node16 -->
<g id="edge42" class="edge">
<title>Node12&#45;&gt;Node16</title>
<path fill="none" stroke="#191970" d="M1092.2793,-457.6392C1141.6131,-449.7391 1212.9587,-436.8266 1274,-420 1328.5688,-404.9576 1389.9488,-381.3148 1426.7645,-366.3749"/>
<polygon fill="#191970" stroke="#191970" points="1428.0909,-369.6139 1436.0234,-362.5906 1425.4425,-363.1342 1428.0909,-369.6139"/>
</g>
<!-- Node12&#45;&gt;Node18 -->
<g id="edge30" class="edge">
<title>Node12&#45;&gt;Node18</title>
<path fill="none" stroke="#191970" d="M1092.2457,-460.3499C1107.4942,-458.8588 1123.8446,-457.3164 1139,-456 1332.895,-439.1584 1561.4885,-422.7907 1677.7605,-414.7142"/>
<polygon fill="#191970" stroke="#191970" points="1678.2433,-418.1892 1687.9772,-414.0058 1677.759,-411.206 1678.2433,-418.1892"/>
</g>
<!-- Node23 -->
<g id="node23" class="node">
<title>Node23</title>
<g id="a_node23"><a xlink:href="../../d9/d7a/G4Threading_8hh.html" target="_top" xlink:title="G4Threading.hh">
<polygon fill="none" stroke="#ff0000" points="866,-342.5 866,-362.5 964,-362.5 964,-342.5 866,-342.5"/>
<text text-anchor="middle" x="915" y="-349.5" font-family="FreeSans" font-size="10.00" fill="#000000">G4Threading.hh</text>
</a>
</g>
</g>
<!-- Node12&#45;&gt;Node23 -->
<g id="edge43" class="edge">
<title>Node12&#45;&gt;Node23</title>
<path fill="none" stroke="#191970" d="M1043.1244,-456.2048C1056.7412,-442.3395 1076.4297,-417.2964 1063,-399 1052.1111,-384.1652 1010.676,-371.9182 974.4083,-363.7234"/>
<polygon fill="#191970" stroke="#191970" points="974.8629,-360.2401 964.3457,-361.5207 973.366,-367.0782 974.8629,-360.2401"/>
</g>
<!-- Node24 -->
<g id="node24" class="node">
<title>Node24</title>
<polygon fill="none" stroke="#bfbfbf" points="1110.5,-399.5 1110.5,-419.5 1231.5,-419.5 1231.5,-399.5 1110.5,-399.5"/>
<text text-anchor="middle" x="1171" y="-406.5" font-family="FreeSans" font-size="10.00" fill="#000000">G4LogicalVolume.icc</text>
</g>
<!-- Node12&#45;&gt;Node24 -->
<g id="edge47" class="edge">
<title>Node12&#45;&gt;Node24</title>
<path fill="none" stroke="#191970" d="M1056.5304,-456.4408C1078.8231,-447.2992 1111.9333,-433.7216 1136.8172,-423.5174"/>
<polygon fill="#191970" stroke="#191970" points="1138.3229,-426.6829 1146.2472,-419.6504 1135.667,-420.2063 1138.3229,-426.6829"/>
</g>
<!-- Node14&#45;&gt;Node5 -->
<g id="edge25" class="edge">
<title>Node14&#45;&gt;Node5</title>
<path fill="none" stroke="#191970" d="M972.2669,-407.1275C869.6208,-400.8789 606.0862,-383.0622 572,-363 472.0567,-304.1762 420.5018,-203.7045 494,-114 553.0906,-41.8799 845.9191,-18.9704 962.2445,-12.6449"/>
<polygon fill="#191970" stroke="#191970" points="962.4811,-16.1374 972.2833,-12.1166 962.1132,-9.147 962.4811,-16.1374"/>
</g>
<!-- Node14&#45;&gt;Node6 -->
<g id="edge24" class="edge">
<title>Node14&#45;&gt;Node6</title>
<path fill="none" stroke="#191970" d="M972.4358,-405.8573C915.1015,-399.2188 821.1152,-381.9605 857,-342 906.8785,-286.4565 1136.0668,-356.5497 1191,-306 1219.7579,-279.5369 1220.1709,-229.8994 1217.7227,-201.9586"/>
<polygon fill="#191970" stroke="#191970" points="1221.1746,-201.3259 1216.6145,-191.7627 1214.2156,-202.0823 1221.1746,-201.3259"/>
</g>
<!-- Node14&#45;&gt;Node11 -->
<g id="edge23" class="edge">
<title>Node14&#45;&gt;Node11</title>
<path fill="none" stroke="#191970" d="M972.3312,-408.4401C856.9793,-404.3409 536,-384.9019 536,-295.5 536,-295.5 536,-295.5 536,-238.5 536,-205.4068 530.1162,-167.3101 525.9773,-144.6055"/>
<polygon fill="#191970" stroke="#191970" points="529.3658,-143.6879 524.0657,-134.514 522.4881,-144.9907 529.3658,-143.6879"/>
</g>
<!-- Node14&#45;&gt;Node13 -->
<g id="edge22" class="edge">
<title>Node14&#45;&gt;Node13</title>
<path fill="none" stroke="#191970" d="M1046.1276,-399.4503C1073.933,-390.7127 1114.5231,-377.2476 1149,-363 1168.6561,-354.8771 1172.2514,-349.8955 1192,-342 1229.6851,-326.9335 1274.2966,-313.4022 1304.4102,-304.8728"/>
<polygon fill="#191970" stroke="#191970" points="1305.7357,-308.1364 1314.422,-302.0702 1303.8487,-301.3956 1305.7357,-308.1364"/>
</g>
<!-- Node15 -->
<g id="node15" class="node">
<title>Node15</title>
<polygon fill="none" stroke="#bfbfbf" points="1234,-342.5 1234,-362.5 1310,-362.5 1310,-342.5 1234,-342.5"/>
<text text-anchor="middle" x="1272" y="-349.5" font-family="FreeSans" font-size="10.00" fill="#000000">G4String.hh</text>
</g>
<!-- Node14&#45;&gt;Node15 -->
<g id="edge26" class="edge">
<title>Node14&#45;&gt;Node15</title>
<path fill="none" stroke="#191970" d="M1053.7537,-400.531C1099.7706,-390.4038 1174.594,-373.9369 1223.5588,-363.1608"/>
<polygon fill="#191970" stroke="#191970" points="1224.5813,-366.5196 1233.5953,-360.952 1223.0767,-359.6832 1224.5813,-366.5196"/>
</g>
<!-- Node14&#45;&gt;Node16 -->
<g id="edge27" class="edge">
<title>Node14&#45;&gt;Node16</title>
<path fill="none" stroke="#191970" d="M1053.8533,-404.2905C1131.3127,-394.4131 1300.1538,-372.8831 1393.9157,-360.9269"/>
<polygon fill="#191970" stroke="#191970" points="1394.3809,-364.396 1403.8578,-359.6591 1393.4954,-357.4522 1394.3809,-364.396"/>
</g>
<!-- Node17 -->
<g id="node17" class="node">
<title>Node17</title>
<polygon fill="none" stroke="#bfbfbf" points="1058,-342.5 1058,-362.5 1140,-362.5 1140,-342.5 1058,-342.5"/>
<text text-anchor="middle" x="1099" y="-349.5" font-family="FreeSans" font-size="10.00" fill="#000000">G4Region.icc</text>
</g>
<!-- Node14&#45;&gt;Node17 -->
<g id="edge29" class="edge">
<title>Node14&#45;&gt;Node17</title>
<path fill="none" stroke="#191970" d="M1028.3751,-399.3095C1041.3383,-390.7177 1060.1102,-378.2758 1075.0428,-368.3786"/>
<polygon fill="#191970" stroke="#191970" points="1077.3563,-371.0443 1083.758,-362.6022 1073.489,-365.2095 1077.3563,-371.0443"/>
</g>
<!-- Node16&#45;&gt;Node3 -->
<g id="edge28" class="edge">
<title>Node16&#45;&gt;Node3</title>
<path fill="none" stroke="#191970" d="M1471.8029,-342.3833C1494.6181,-322.8273 1544.9938,-279.6482 1573.085,-255.57"/>
<polygon fill="#191970" stroke="#191970" points="1575.7176,-257.9233 1581.0324,-248.7579 1571.162,-252.6085 1575.7176,-257.9233"/>
</g>
<!-- Node18&#45;&gt;Node5 -->
<g id="edge31" class="edge">
<title>Node18&#45;&gt;Node5</title>
<path fill="none" stroke="#191970" d="M1729.1312,-399.3431C1675.948,-377.7013 1547.114,-325.6982 1438,-285 1321.443,-241.5257 1277.5526,-260.9378 1174,-192 1138.356,-168.2708 1057.1046,-69.3043 1024.2146,-28.3564"/>
<polygon fill="#191970" stroke="#191970" points="1026.9455,-26.1672 1017.9642,-20.5471 1021.4805,-30.5414 1026.9455,-26.1672"/>
</g>
<!-- Node18&#45;&gt;Node15 -->
<g id="edge32" class="edge">
<title>Node18&#45;&gt;Node15</title>
<path fill="none" stroke="#191970" d="M1687.9906,-401.6939C1589.6314,-390.0622 1406.8991,-368.4528 1320.1336,-358.1921"/>
<polygon fill="#191970" stroke="#191970" points="1320.3821,-354.6972 1310.0403,-356.9985 1319.56,-361.6488 1320.3821,-354.6972"/>
</g>
<!-- Node18&#45;&gt;Node16 -->
<g id="edge40" class="edge">
<title>Node18&#45;&gt;Node16</title>
<path fill="none" stroke="#191970" d="M1702.1155,-399.4408C1651.7841,-389.6826 1575.3819,-374.87 1521.9011,-364.5012"/>
<polygon fill="#191970" stroke="#191970" points="1522.3429,-361.0218 1511.8595,-362.5544 1521.0105,-367.8938 1522.3429,-361.0218"/>
</g>
<!-- Node19 -->
<g id="node19" class="node">
<title>Node19</title>
<g id="a_node19"><a xlink:href="../../d0/d7b/geomdefs_8hh.html" target="_top" xlink:title="geomdefs.hh">
<polygon fill="none" stroke="#000000" points="2204,-342.5 2204,-362.5 2286,-362.5 2286,-342.5 2204,-342.5"/>
<text text-anchor="middle" x="2245" y="-349.5" font-family="FreeSans" font-size="10.00" fill="#000000">geomdefs.hh</text>
</a>
</g>
</g>
<!-- Node18&#45;&gt;Node19 -->
<g id="edge33" class="edge">
<title>Node18&#45;&gt;Node19</title>
<path fill="none" stroke="#191970" d="M1820.2184,-401.8127C1919.2987,-390.3105 2104.0423,-368.8637 2193.639,-358.4625"/>
<polygon fill="#191970" stroke="#191970" points="2194.293,-361.9101 2203.8227,-357.2803 2193.4858,-354.9568 2194.293,-361.9101"/>
</g>
<!-- Node18&#45;&gt;Node20 -->
<g id="edge35" class="edge">
<title>Node18&#45;&gt;Node20</title>
<path fill="none" stroke="#191970" d="M1792.8252,-399.4408C1829.7834,-389.8652 1885.5272,-375.4225 1925.4153,-365.0879"/>
<polygon fill="#191970" stroke="#191970" points="1926.3911,-368.4507 1935.1936,-362.5544 1924.6354,-361.6744 1926.3911,-368.4507"/>
</g>
<!-- Node18&#45;&gt;Node21 -->
<g id="edge39" class="edge">
<title>Node18&#45;&gt;Node21</title>
<path fill="none" stroke="#191970" d="M1773.6098,-399.4971C1802.0177,-385.2935 1856.5307,-359.1093 1905,-342 1944.3302,-328.1167 1989.8832,-316.1898 2024.7906,-307.8918"/>
<polygon fill="#191970" stroke="#191970" points="2025.865,-311.2348 2034.8006,-305.5421 2024.2653,-304.42 2025.865,-311.2348"/>
</g>
<!-- Node22 -->
<g id="node22" class="node">
<title>Node22</title>
<polygon fill="none" stroke="#bfbfbf" points="1686,-342.5 1686,-362.5 1820,-362.5 1820,-342.5 1686,-342.5"/>
<text text-anchor="middle" x="1753" y="-349.5" font-family="FreeSans" font-size="10.00" fill="#000000">G4VPhysicalVolume.icc</text>
</g>
<!-- Node18&#45;&gt;Node22 -->
<g id="edge41" class="edge">
<title>Node18&#45;&gt;Node22</title>
<path fill="none" stroke="#191970" d="M1753.8212,-399.3095C1753.6918,-391.9335 1753.5126,-381.72 1753.3546,-372.715"/>
<polygon fill="#191970" stroke="#191970" points="1756.8522,-372.5393 1753.1772,-362.6022 1749.8533,-372.6621 1756.8522,-372.5393"/>
</g>
<!-- Node19&#45;&gt;Node3 -->
<g id="edge34" class="edge">
<title>Node19&#45;&gt;Node3</title>
<path fill="none" stroke="#191970" d="M2233.8023,-342.276C2216.0561,-326.7678 2179.7061,-297.7565 2143,-285 2049.8476,-252.6267 1750.9542,-242.2513 1637.3675,-239.4278"/>
<polygon fill="#191970" stroke="#191970" points="1637.3646,-235.9268 1627.2832,-239.185 1637.196,-242.9248 1637.3646,-235.9268"/>
</g>
<!-- Node20&#45;&gt;Node3 -->
<g id="edge36" class="edge">
<title>Node20&#45;&gt;Node3</title>
<path fill="none" stroke="#191970" d="M1961.0404,-342.4578C1940.9917,-327.4596 1900.717,-299.431 1862,-285 1786.0685,-256.6981 1691.5696,-245.4587 1637.1768,-241.1149"/>
<polygon fill="#191970" stroke="#191970" points="1637.4112,-237.6227 1627.1756,-240.3583 1636.883,-244.6028 1637.4112,-237.6227"/>
</g>
<!-- Node20&#45;&gt;Node21 -->
<g id="edge37" class="edge">
<title>Node20&#45;&gt;Node21</title>
<path fill="none" stroke="#191970" d="M1993.1295,-342.3095C2009.7906,-333.434 2034.1642,-320.4499 2053.0171,-310.4068"/>
<polygon fill="#191970" stroke="#191970" points="2054.8559,-313.3929 2062.0362,-305.6022 2051.5648,-307.2148 2054.8559,-313.3929"/>
</g>
<!-- Node21&#45;&gt;Node3 -->
<g id="edge38" class="edge">
<title>Node21&#45;&gt;Node3</title>
<path fill="none" stroke="#191970" d="M2027.8465,-289.2915C1930.8972,-277.9675 1727.0772,-254.1607 1637.1884,-243.6613"/>
<polygon fill="#191970" stroke="#191970" points="1637.3993,-240.1623 1627.0607,-242.4784 1636.5871,-247.115 1637.3993,-240.1623"/>
</g>
<!-- Node23&#45;&gt;Node3 -->
<g id="edge44" class="edge">
<title>Node23&#45;&gt;Node3</title>
<path fill="none" stroke="#191970" d="M964.1655,-344.209C968.8396,-343.4499 973.5084,-342.7029 978,-342 1087.1692,-324.9163 1117.7707,-336.4157 1224,-306 1246.3861,-299.5904 1249.6092,-291.3934 1272,-285 1368.229,-257.5232 1485.5514,-245.7861 1548.3047,-241.1772"/>
<polygon fill="#191970" stroke="#191970" points="1548.9049,-244.6436 1558.6332,-240.4472 1548.4113,-237.661 1548.9049,-244.6436"/>
</g>
<!-- Node23&#45;&gt;Node5 -->
<g id="edge45" class="edge">
<title>Node23&#45;&gt;Node5</title>
<path fill="none" stroke="#191970" d="M933.1122,-342.3685C946.7962,-334.0084 965.3241,-321.0952 978,-306 1017.7513,-258.6616 1040,-243.3149 1040,-181.5 1040,-181.5 1040,-181.5 1040,-124.5 1040,-90.4018 1027.2925,-52.3995 1018.4184,-30.0184"/>
<polygon fill="#191970" stroke="#191970" points="1021.5999,-28.5523 1014.5564,-20.6378 1015.127,-31.2173 1021.5999,-28.5523"/>
</g>
<!-- Node23&#45;&gt;Node13 -->
<g id="edge46" class="edge">
<title>Node23&#45;&gt;Node13</title>
<path fill="none" stroke="#191970" d="M964.1365,-345.9519C1031.3782,-336.9826 1155.8382,-320.3514 1262,-306 1275.8204,-304.1317 1291.0338,-302.0603 1304.2622,-300.2544"/>
<polygon fill="#191970" stroke="#191970" points="1304.9467,-303.6934 1314.3809,-298.8719 1303.9991,-296.7579 1304.9467,-303.6934"/>
</g>
<!-- Node25&#45;&gt;Node3 -->
<g id="edge53" class="edge">
<title>Node25&#45;&gt;Node3</title>
<path fill="none" stroke="#191970" d="M712.9926,-456.4812C767.2023,-439.2129 880.2631,-401.9321 973,-363 992.6104,-354.7673 995.6803,-348.2813 1016,-342 1121.569,-309.3661 1156.2852,-338.1584 1262,-306 1282.7307,-299.6937 1285.3182,-291.4648 1306,-285 1389.4521,-258.9141 1491.3698,-246.8401 1548.5567,-241.7592"/>
<polygon fill="#191970" stroke="#191970" points="1549.035,-245.2311 1558.6997,-240.8901 1548.4373,-238.2567 1549.035,-245.2311"/>
</g>
<!-- Node25&#45;&gt;Node4 -->
<g id="edge52" class="edge">
<title>Node25&#45;&gt;Node4</title>
<path fill="none" stroke="#191970" d="M625.7597,-461.3132C546.2954,-453.3053 407.5095,-437.0639 392,-420 354.7061,-378.9685 384,-350.9475 384,-295.5 384,-295.5 384,-295.5 384,-238.5 384,-164.663 428.2384,-147.5756 494,-114 532.4931,-94.3467 822.2036,-76.0252 930.936,-69.7708"/>
<polygon fill="#191970" stroke="#191970" points="931.3959,-73.2503 941.1803,-69.1865 930.9972,-66.2617 931.3959,-73.2503"/>
</g>
<!-- Node25&#45;&gt;Node11 -->
<g id="edge51" class="edge">
<title>Node25&#45;&gt;Node11</title>
<path fill="none" stroke="#191970" d="M625.6834,-461.0338C548.9961,-452.8902 418.1542,-436.7283 404,-420 366.0593,-375.1593 472.5827,-200.9005 509.7373,-143.1842"/>
<polygon fill="#191970" stroke="#191970" points="512.754,-144.965 515.2607,-134.6709 506.8817,-141.155 512.754,-144.965"/>
</g>
<!-- Node25&#45;&gt;Node23 -->
<g id="edge54" class="edge">
<title>Node25&#45;&gt;Node23</title>
<path fill="none" stroke="#191970" d="M701.7659,-456.3833C743.3094,-436.1441 836.7897,-390.6025 884.9941,-367.1182"/>
<polygon fill="#191970" stroke="#191970" points="886.8236,-370.1203 894.2806,-362.5941 883.7578,-363.8273 886.8236,-370.1203"/>
</g>
<!-- Node25&#45;&gt;Node26 -->
<g id="edge55" class="edge">
<title>Node25&#45;&gt;Node26</title>
<path fill="none" stroke="#191970" d="M699.499,-456.3793C712.0859,-448.3525 727.7289,-435.8567 735,-420 742.7023,-403.2031 732.2293,-383.9298 721.6013,-370.2894"/>
<polygon fill="#191970" stroke="#191970" points="724.2429,-367.9926 715.125,-362.5967 718.8879,-372.5009 724.2429,-367.9926"/>
</g>
<!-- Node30 -->
<g id="node30" class="node">
<title>Node30</title>
<g id="a_node30"><a xlink:href="../../dc/dcc/G4ParticleTableIterator_8hh.html" target="_top" xlink:title="G4ParticleTableIterator.hh">
<polygon fill="none" stroke="#000000" points="580,-399.5 580,-419.5 726,-419.5 726,-399.5 580,-399.5"/>
<text text-anchor="middle" x="653" y="-406.5" font-family="FreeSans" font-size="10.00" fill="#000000">G4ParticleTableIterator.hh</text>
</a>
</g>
</g>
<!-- Node25&#45;&gt;Node30 -->
<g id="edge63" class="edge">
<title>Node25&#45;&gt;Node30</title>
<path fill="none" stroke="#191970" d="M675.9942,-456.3095C672.2514,-448.6903 667.0213,-438.0435 662.4947,-428.8285"/>
<polygon fill="#191970" stroke="#191970" points="665.513,-427.0346 657.9625,-419.6022 659.2302,-430.121 665.513,-427.0346"/>
</g>
<!-- Node31 -->
<g id="node31" class="node">
<title>Node31</title>
<polygon fill="none" stroke="#bfbfbf" points="412.5,-399.5 412.5,-419.5 523.5,-419.5 523.5,-399.5 412.5,-399.5"/>
<text text-anchor="middle" x="468" y="-406.5" font-family="FreeSans" font-size="10.00" fill="#000000">G4ParticleTable.icc</text>
</g>
<!-- Node25&#45;&gt;Node31 -->
<g id="edge66" class="edge">
<title>Node25&#45;&gt;Node31</title>
<path fill="none" stroke="#191970" d="M643.4102,-456.4408C607.7795,-446.9058 554.1148,-432.5448 515.5306,-422.2195"/>
<polygon fill="#191970" stroke="#191970" points="516.1366,-418.7585 505.5717,-419.5544 514.3269,-425.5206 516.1366,-418.7585"/>
</g>
<!-- Node26&#45;&gt;Node3 -->
<g id="edge58" class="edge">
<title>Node26&#45;&gt;Node3</title>
<path fill="none" stroke="#191970" d="M756.2978,-342.4489C847.3184,-324.6588 1030.3261,-289.1049 1060,-285 1240.5135,-260.0292 1457.3868,-246.0218 1548.8724,-240.8395"/>
<polygon fill="#191970" stroke="#191970" points="1549.093,-244.3328 1558.8819,-240.2796 1548.7019,-237.3437 1549.093,-244.3328"/>
</g>
<!-- Node26&#45;&gt;Node4 -->
<g id="edge59" class="edge">
<title>Node26&#45;&gt;Node4</title>
<path fill="none" stroke="#191970" d="M761.9195,-342.4585C817.8779,-332.1035 896.4167,-316.0859 907,-306 929.5614,-284.499 926,-269.6658 926,-238.5 926,-238.5 926,-238.5 926,-181.5 926,-145.8052 945.6341,-108.0924 959.2475,-86.2338"/>
<polygon fill="#191970" stroke="#191970" points="962.3207,-87.927 964.8125,-77.6293 956.4429,-84.1255 962.3207,-87.927"/>
</g>
<!-- Node26&#45;&gt;Node13 -->
<g id="edge56" class="edge">
<title>Node26&#45;&gt;Node13</title>
<path fill="none" stroke="#191970" d="M771.6508,-346.5077C905.5278,-334.4715 1202.9634,-307.7304 1304.3589,-298.6144"/>
<polygon fill="#191970" stroke="#191970" points="1304.725,-302.0957 1314.3714,-297.7142 1304.0981,-295.1238 1304.725,-302.0957"/>
</g>
<!-- Node27 -->
<g id="node27" class="node">
<title>Node27</title>
<g id="a_node27"><a xlink:href="../../dd/d09/PhysicalConstants_8h.html" target="_top" xlink:title="CLHEP/Units/PhysicalConstants.h">
<polygon fill="none" stroke="#ff0000" points="564,-285.5 564,-305.5 746,-305.5 746,-285.5 564,-285.5"/>
<text text-anchor="middle" x="655" y="-292.5" font-family="FreeSans" font-size="10.00" fill="#000000">CLHEP/Units/PhysicalConstants.h</text>
</a>
</g>
</g>
<!-- Node26&#45;&gt;Node27 -->
<g id="edge57" class="edge">
<title>Node26&#45;&gt;Node27</title>
<path fill="none" stroke="#191970" d="M696.061,-342.3095C689.022,-334.2851 679.0371,-322.9022 670.6762,-313.3708"/>
<polygon fill="#191970" stroke="#191970" points="673.0872,-310.8118 663.8616,-305.6022 667.8249,-315.4279 673.0872,-310.8118"/>
</g>
<!-- Node28 -->
<g id="node28" class="node">
<title>Node28</title>
<g id="a_node28"><a xlink:href="../../d2/d0a/G4PDefManager_8hh.html" target="_top" xlink:title="G4PDefManager.hh">
<polygon fill="none" stroke="#ff0000" points="1068.5,-285.5 1068.5,-305.5 1181.5,-305.5 1181.5,-285.5 1068.5,-285.5"/>
<text text-anchor="middle" x="1125" y="-292.5" font-family="FreeSans" font-size="10.00" fill="#000000">G4PDefManager.hh</text>
</a>
</g>
</g>
<!-- Node26&#45;&gt;Node28 -->
<g id="edge60" class="edge">
<title>Node26&#45;&gt;Node28</title>
<path fill="none" stroke="#191970" d="M771.6196,-343.9129C841.8787,-334.7889 955.7889,-319.8041 1054,-306 1055.4653,-305.794 1056.9474,-305.5846 1058.4416,-305.3725"/>
<polygon fill="#191970" stroke="#191970" points="1059.0271,-308.8244 1068.4293,-303.9409 1058.0338,-301.8952 1059.0271,-308.8244"/>
</g>
<!-- Node29 -->
<g id="node29" class="node">
<title>Node29</title>
<polygon fill="none" stroke="#bfbfbf" points="764,-285.5 764,-305.5 898,-305.5 898,-285.5 764,-285.5"/>
<text text-anchor="middle" x="831" y="-292.5" font-family="FreeSans" font-size="10.00" fill="#000000">G4ParticleDefinition.icc</text>
</g>
<!-- Node26&#45;&gt;Node29 -->
<g id="edge62" class="edge">
<title>Node26&#45;&gt;Node29</title>
<path fill="none" stroke="#191970" d="M727.2362,-342.4408C747.2651,-333.3801 776.9271,-319.9615 799.4135,-309.7891"/>
<polygon fill="#191970" stroke="#191970" points="800.8938,-312.961 808.5622,-305.6504 798.0085,-306.5833 800.8938,-312.961"/>
</g>
<!-- Node28&#45;&gt;Node3 -->
<g id="edge61" class="edge">
<title>Node28&#45;&gt;Node3</title>
<path fill="none" stroke="#191970" d="M1181.9181,-288.5677C1276.3918,-277.0613 1463.6058,-254.2595 1548.8591,-243.8761"/>
<polygon fill="#191970" stroke="#191970" points="1549.4769,-247.3268 1558.9804,-242.6434 1548.6305,-240.3782 1549.4769,-247.3268"/>
</g>
<!-- Node30&#45;&gt;Node11 -->
<g id="edge64" class="edge">
<title>Node30&#45;&gt;Node11</title>
<path fill="none" stroke="#191970" d="M608.227,-399.4439C574.4759,-390.8502 532.3016,-377.588 522,-363 474.3387,-295.5072 500.9795,-188.323 515.0468,-144.3326"/>
<polygon fill="#191970" stroke="#191970" points="518.3832,-145.3913 518.2214,-134.7977 511.7416,-143.1801 518.3832,-145.3913"/>
</g>
<!-- Node30&#45;&gt;Node26 -->
<g id="edge65" class="edge">
<title>Node30&#45;&gt;Node26</title>
<path fill="none" stroke="#191970" d="M662.2966,-399.3095C669.6911,-391.204 680.2116,-379.672 688.9598,-370.0826"/>
<polygon fill="#191970" stroke="#191970" points="691.63,-372.3488 695.7839,-362.6022 686.4586,-367.631 691.63,-372.3488"/>
</g>
<!-- Node32&#45;&gt;Node3 -->
<g id="edge69" class="edge">
<title>Node32&#45;&gt;Node3</title>
<path fill="none" stroke="#191970" d="M1506.701,-513.4809C1522.7569,-506.0737 1541.606,-494.2499 1551,-477 1555.4638,-468.8033 1555.3317,-464.2673 1551,-456 1537.9544,-431.1015 1512.0456,-444.8985 1499,-420 1494.6683,-411.7327 1496.1284,-407.8806 1499,-399 1505.0723,-380.2208 1514.4712,-379.6935 1525,-363 1547.7487,-326.9319 1570.8316,-282.7011 1583.3904,-257.8483"/>
<polygon fill="#191970" stroke="#191970" points="1586.5982,-259.2592 1587.9536,-248.7514 1580.3413,-256.1205 1586.5982,-259.2592"/>
</g>
<!-- Node32&#45;&gt;Node4 -->
<g id="edge70" class="edge">
<title>Node32&#45;&gt;Node4</title>
<path fill="none" stroke="#191970" d="M1414.3525,-520.0832C1284.9747,-512.896 1003.1307,-495.357 963,-477 890.5323,-443.8511 801.2766,-408.6234 845,-342 867.0617,-308.3835 898.4438,-333.262 928,-306 952.992,-282.9479 964,-272.5 964,-238.5 964,-238.5 964,-238.5 964,-181.5 964,-148.5728 967.3622,-110.4268 969.7273,-87.6671"/>
<polygon fill="#191970" stroke="#191970" points="973.226,-87.8661 970.8196,-77.5482 966.2664,-87.1147 973.226,-87.8661"/>
</g>
<!-- Node33 -->
<g id="node33" class="node">
<title>Node33</title>
<polygon fill="none" stroke="#bfbfbf" points="1508,-399.5 1508,-419.5 1556,-419.5 1556,-399.5 1508,-399.5"/>
<text text-anchor="middle" x="1532" y="-406.5" font-family="FreeSans" font-size="10.00" fill="#000000">cmath</text>
</g>
<!-- Node32&#45;&gt;Node33 -->
<g id="edge71" class="edge">
<title>Node32&#45;&gt;Node33</title>
<path fill="none" stroke="#191970" d="M1530.2796,-513.4966C1550.5853,-506.7532 1571.9289,-495.5477 1584,-477 1596.0355,-458.507 1576.3938,-438.6493 1557.902,-425.295"/>
<polygon fill="#191970" stroke="#191970" points="1559.8403,-422.3805 1549.6046,-419.6451 1555.9004,-428.1665 1559.8403,-422.3805"/>
</g>
<!-- Node34 -->
<g id="node34" class="node">
<title>Node34</title>
<g id="a_node34"><a xlink:href="../../d5/dac/G4TrackFastVector_8hh.html" target="_top" xlink:title="G4TrackFastVector.hh">
<polygon fill="none" stroke="#ff0000" points="1148,-456.5 1148,-476.5 1272,-476.5 1272,-456.5 1148,-456.5"/>
<text text-anchor="middle" x="1210" y="-463.5" font-family="FreeSans" font-size="10.00" fill="#000000">G4TrackFastVector.hh</text>
</a>
</g>
</g>
<!-- Node32&#45;&gt;Node34 -->
<g id="edge72" class="edge">
<title>Node32&#45;&gt;Node34</title>
<path fill="none" stroke="#191970" d="M1431.5274,-513.4408C1385.6674,-503.7232 1316.1514,-488.9931 1267.2489,-478.6308"/>
<polygon fill="#191970" stroke="#191970" points="1267.958,-475.2034 1257.4497,-476.5544 1266.5069,-482.0514 1267.958,-475.2034"/>
</g>
<!-- Node35 -->
<g id="node35" class="node">
<title>Node35</title>
<g id="a_node35"><a xlink:href="../../d8/dcd/G4TrackStatus_8hh.html" target="_top" xlink:title="G4TrackStatus.hh">
<polygon fill="none" stroke="#000000" points="1290.5,-456.5 1290.5,-476.5 1395.5,-476.5 1395.5,-456.5 1290.5,-456.5"/>
<text text-anchor="middle" x="1343" y="-463.5" font-family="FreeSans" font-size="10.00" fill="#000000">G4TrackStatus.hh</text>
</a>
</g>
</g>
<!-- Node32&#45;&gt;Node35 -->
<g id="edge73" class="edge">
<title>Node32&#45;&gt;Node35</title>
<path fill="none" stroke="#191970" d="M1454.999,-513.4408C1433.1875,-504.2992 1400.7918,-490.7216 1376.4451,-480.5174"/>
<polygon fill="#191970" stroke="#191970" points="1377.7942,-477.2879 1367.2185,-476.6504 1375.0884,-483.7438 1377.7942,-477.2879"/>
</g>
<!-- Node36 -->
<g id="node36" class="node">
<title>Node36</title>
<g id="a_node36"><a xlink:href="../../d3/dab/G4SteppingControl_8hh.html" target="_top" xlink:title="G4SteppingControl.hh">
<polygon fill="none" stroke="#000000" points="1414,-456.5 1414,-476.5 1542,-476.5 1542,-456.5 1414,-456.5"/>
<text text-anchor="middle" x="1478" y="-463.5" font-family="FreeSans" font-size="10.00" fill="#000000">G4SteppingControl.hh</text>
</a>
</g>
</g>
<!-- Node32&#45;&gt;Node36 -->
<g id="edge74" class="edge">
<title>Node32&#45;&gt;Node36</title>
<path fill="none" stroke="#191970" d="M1478.8212,-513.3095C1478.6918,-505.9335 1478.5126,-495.72 1478.3546,-486.715"/>
<polygon fill="#191970" stroke="#191970" points="1481.8522,-486.5393 1478.1772,-476.6022 1474.8533,-486.6621 1481.8522,-486.5393"/>
</g>
<!-- Node37 -->
<g id="node37" class="node">
<title>Node37</title>
<g id="a_node37"><a xlink:href="../../dd/d3e/G4Step_8hh.html" target="_top" xlink:title="G4Step.hh">
<polygon fill="none" stroke="#ff0000" points="1674.5,-456.5 1674.5,-476.5 1743.5,-476.5 1743.5,-456.5 1674.5,-456.5"/>
<text text-anchor="middle" x="1709" y="-463.5" font-family="FreeSans" font-size="10.00" fill="#000000">G4Step.hh</text>
</a>
</g>
</g>
<!-- Node32&#45;&gt;Node37 -->
<g id="edge75" class="edge">
<title>Node32&#45;&gt;Node37</title>
<path fill="none" stroke="#191970" d="M1519.5899,-513.4408C1560.2162,-503.3725 1622.5549,-487.9234 1664.5073,-477.5265"/>
<polygon fill="#191970" stroke="#191970" points="1665.5807,-480.8664 1674.4452,-475.0636 1663.8968,-474.0719 1665.5807,-480.8664"/>
</g>
<!-- Node37&#45;&gt;Node3 -->
<g id="edge78" class="edge">
<title>Node37&#45;&gt;Node3</title>
<path fill="none" stroke="#191970" d="M1701.9333,-456.394C1695.5885,-447.1299 1686.1933,-432.9287 1679,-420 1647.1814,-362.8115 1615.7924,-291.92 1601.306,-258.158"/>
<polygon fill="#191970" stroke="#191970" points="1604.3582,-256.3923 1597.2175,-248.5654 1597.9187,-259.137 1604.3582,-256.3923"/>
</g>
<!-- Node37&#45;&gt;Node4 -->
<g id="edge77" class="edge">
<title>Node37&#45;&gt;Node4</title>
<path fill="none" stroke="#191970" d="M1696.244,-456.3788C1667.1897,-433.6687 1593.3085,-377.8399 1525,-342 1362.3843,-256.6794 1307.8597,-266.4754 1140,-192 1088.2205,-169.0267 1070.0525,-170.6127 1026,-135 1008.959,-121.2238 993.7898,-101.2032 983.9011,-86.5433"/>
<polygon fill="#191970" stroke="#191970" points="986.5944,-84.2659 978.1988,-77.8033 980.7318,-88.0909 986.5944,-84.2659"/>
</g>
<!-- Node37&#45;&gt;Node18 -->
<g id="edge80" class="edge">
<title>Node37&#45;&gt;Node18</title>
<path fill="none" stroke="#191970" d="M1717.0451,-456.3095C1723.3162,-448.3661 1732.1854,-437.1319 1739.663,-427.6602"/>
<polygon fill="#191970" stroke="#191970" points="1742.5752,-429.6199 1746.0246,-419.6022 1737.081,-425.2823 1742.5752,-429.6199"/>
</g>
<!-- Node37&#45;&gt;Node21 -->
<g id="edge79" class="edge">
<title>Node37&#45;&gt;Node21</title>
<path fill="none" stroke="#191970" d="M1743.6733,-464.106C1809.0403,-457.943 1952.0798,-436.4148 2043,-363 2058.3022,-350.644 2068.5225,-330.3757 2074.4732,-315.2681"/>
<polygon fill="#191970" stroke="#191970" points="2077.7901,-316.3882 2077.9208,-305.7941 2071.2121,-313.9944 2077.7901,-316.3882"/>
</g>
<!-- Node37&#45;&gt;Node33 -->
<g id="edge76" class="edge">
<title>Node37&#45;&gt;Node33</title>
<path fill="none" stroke="#191970" d="M1677.7634,-456.4408C1646.42,-446.3471 1598.283,-430.8454 1565.9959,-420.4478"/>
<polygon fill="#191970" stroke="#191970" points="1566.7029,-416.9986 1556.1114,-417.2647 1564.5572,-423.6616 1566.7029,-416.9986"/>
</g>
<!-- Node38&#45;&gt;Node12 -->
<g id="edge82" class="edge">
<title>Node38&#45;&gt;Node12</title>
<path fill="none" stroke="#191970" d="M1367.29,-570.4227C1333.5587,-561.2932 1282.824,-547.2768 1239,-534 1180.1798,-516.18 1112.5745,-493.7671 1071.0712,-479.784"/>
<polygon fill="#191970" stroke="#191970" points="1071.9511,-476.387 1061.3569,-476.5044 1069.712,-483.0192 1071.9511,-476.387"/>
</g>
<!-- Node38&#45;&gt;Node14 -->
<g id="edge83" class="edge">
<title>Node38&#45;&gt;Node14</title>
<path fill="none" stroke="#191970" d="M1358.4467,-576.8689C1254.9202,-567.7125 1010.9579,-539.7889 963,-477 949.6429,-459.5123 969.4022,-439.1894 987.8796,-425.4489"/>
<polygon fill="#191970" stroke="#191970" points="989.9863,-428.2463 996.1554,-419.6328 985.9613,-422.5192 989.9863,-428.2463"/>
</g>
<!-- Node39 -->
<g id="node39" class="node">
<title>Node39</title>
<g id="a_node39"><a xlink:href="../../dc/d33/G4Navigator_8hh.html" target="_top" xlink:title="G4Navigator.hh">
<polygon fill="none" stroke="#ff0000" points="2028.5,-513.5 2028.5,-533.5 2123.5,-533.5 2123.5,-513.5 2028.5,-513.5"/>
<text text-anchor="middle" x="2076" y="-520.5" font-family="FreeSans" font-size="10.00" fill="#000000">G4Navigator.hh</text>
</a>
</g>
</g>
<!-- Node38&#45;&gt;Node39 -->
<g id="edge84" class="edge">
<title>Node38&#45;&gt;Node39</title>
<path fill="none" stroke="#191970" d="M1451.6507,-576.5371C1571.0143,-566.3974 1887.2876,-539.5307 2018.104,-528.4181"/>
<polygon fill="#191970" stroke="#191970" points="2018.6485,-531.8846 2028.3164,-527.5506 2018.056,-524.9097 2018.6485,-531.8846"/>
</g>
<!-- Node39&#45;&gt;Node12 -->
<g id="edge88" class="edge">
<title>Node39&#45;&gt;Node12</title>
<path fill="none" stroke="#191970" d="M2028.1688,-521.9417C1890.1427,-517.2693 1479.2943,-502.1258 1139,-477 1127.1475,-476.1249 1114.5718,-475.0355 1102.3658,-473.8926"/>
<polygon fill="#191970" stroke="#191970" points="1102.5113,-470.3907 1092.2237,-472.9236 1101.8454,-477.359 1102.5113,-470.3907"/>
</g>
<!-- Node39&#45;&gt;Node19 -->
<g id="edge85" class="edge">
<title>Node39&#45;&gt;Node19</title>
<path fill="none" stroke="#191970" d="M2121.9143,-513.468C2144.7498,-506.4919 2171.3746,-495.0985 2190,-477 2219.9382,-447.9088 2234.7484,-399.68 2241.0529,-372.5801"/>
<polygon fill="#191970" stroke="#191970" points="2244.4994,-373.2011 2243.1916,-362.6873 2237.6574,-371.7219 2244.4994,-373.2011"/>
</g>
<!-- Node39&#45;&gt;Node20 -->
<g id="edge87" class="edge">
<title>Node39&#45;&gt;Node20</title>
<path fill="none" stroke="#191970" d="M2069.9249,-513.3153C2053.3108,-485.4622 2006.9248,-407.6974 1985.3289,-371.4926"/>
<polygon fill="#191970" stroke="#191970" points="1988.3009,-369.6428 1980.1722,-362.8476 1982.2892,-373.2288 1988.3009,-369.6428"/>
</g>
<!-- Node39&#45;&gt;Node21 -->
<g id="edge86" class="edge">
<title>Node39&#45;&gt;Node21</title>
<path fill="none" stroke="#191970" d="M2087.2444,-513.4181C2105.309,-496.3399 2139.9842,-459.6855 2152,-420 2162.0459,-386.8208 2168.4825,-372.4976 2152,-342 2144.4864,-328.0975 2130.8068,-317.6823 2117.4464,-310.2726"/>
<polygon fill="#191970" stroke="#191970" points="2118.8254,-307.0469 2108.3275,-305.617 2115.6424,-313.2814 2118.8254,-307.0469"/>
</g>
<!-- Node40&#45;&gt;Node3 -->
<g id="edge90" class="edge">
<title>Node40&#45;&gt;Node3</title>
<path fill="none" stroke="#191970" d="M1521.856,-627.4724C1618.3085,-603.1478 1848,-537.7421 1848,-466.5 1848,-466.5 1848,-466.5 1848,-352.5 1848,-306.8218 1709.9069,-266.6366 1636.9647,-248.5965"/>
<polygon fill="#191970" stroke="#191970" points="1637.6701,-245.166 1627.1258,-246.1996 1636.0133,-251.9671 1637.6701,-245.166"/>
</g>
<!-- Node40&#45;&gt;Node4 -->
<g id="edge91" class="edge">
<title>Node40&#45;&gt;Node4</title>
<path fill="none" stroke="#191970" d="M1435.4189,-635.4936C1247.3643,-626.0656 521.7924,-579.6885 374,-420 318.5597,-360.0972 346,-320.1209 346,-238.5 346,-238.5 346,-238.5 346,-181.5 346,-126.3956 397.9096,-131.9746 450,-114 538.854,-83.3395 824.3214,-71.8805 931.1441,-68.6006"/>
<polygon fill="#191970" stroke="#191970" points="931.3166,-72.0971 941.2075,-68.2997 931.1073,-65.1002 931.3166,-72.0971"/>
</g>
<!-- Node40&#45;&gt;Node21 -->
<g id="edge92" class="edge">
<title>Node40&#45;&gt;Node21</title>
<path fill="none" stroke="#191970" d="M1524.5948,-633.7736C1578.5798,-628.3558 1671.739,-616.0795 1748,-591 1912.8597,-536.7837 1974.0316,-510.7933 2065,-363 2073.767,-348.7565 2077.7307,-330.1024 2079.5225,-316.0147"/>
<polygon fill="#191970" stroke="#191970" points="2083.0248,-316.1674 2080.5441,-305.8671 2076.06,-315.4662 2083.0248,-316.1674"/>
</g>
<!-- Node40&#45;&gt;Node32 -->
<g id="edge93" class="edge">
<title>Node40&#45;&gt;Node32</title>
<path fill="none" stroke="#191970" d="M1479.9113,-627.3833C1479.7471,-608.6703 1479.3932,-568.3266 1479.178,-543.7866"/>
<polygon fill="#191970" stroke="#191970" points="1482.6777,-543.7268 1479.09,-533.7579 1475.6779,-543.7883 1482.6777,-543.7268"/>
</g>
<!-- Node40&#45;&gt;Node38 -->
<g id="edge94" class="edge">
<title>Node40&#45;&gt;Node38</title>
<path fill="none" stroke="#191970" d="M1466.5915,-627.3095C1455.393,-618.7987 1439.2239,-606.5102 1426.2623,-596.6594"/>
<polygon fill="#191970" stroke="#191970" points="1428.3719,-593.8665 1418.2924,-590.6022 1424.1362,-599.4397 1428.3719,-593.8665"/>
</g>
<!-- Node41&#45;&gt;Node38 -->
<g id="edge96" class="edge">
<title>Node41&#45;&gt;Node38</title>
<path fill="none" stroke="#191970" d="M1461.4352,-684.4319C1450.7166,-675.8312 1436.0947,-662.5654 1427,-648 1417.9342,-633.4809 1412.2302,-614.8502 1408.9085,-600.8416"/>
<polygon fill="#191970" stroke="#191970" points="1412.265,-599.8028 1406.7365,-590.7648 1405.4222,-601.2778 1412.265,-599.8028"/>
</g>
<!-- Node41&#45;&gt;Node40 -->
<g id="edge97" class="edge">
<title>Node41&#45;&gt;Node40</title>
<path fill="none" stroke="#191970" d="M1475.8939,-684.3095C1476.5409,-676.9335 1477.4368,-666.72 1478.2268,-657.715"/>
<polygon fill="#191970" stroke="#191970" points="1481.7265,-657.8699 1479.1138,-647.6022 1474.7533,-657.2581 1481.7265,-657.8699"/>
</g>
<!-- Node42&#45;&gt;Node3 -->
<g id="edge101" class="edge">
<title>Node42&#45;&gt;Node3</title>
<path fill="none" stroke="#191970" d="M2139.7094,-687.6379C2236.6191,-674.1325 2426,-640.1139 2426,-580.5 2426,-580.5 2426,-580.5 2426,-352.5 2426,-320.6601 2427.4758,-304.0988 2402,-285 2371.2109,-261.918 1801.9788,-244.3213 1637.2866,-239.6969"/>
<polygon fill="#191970" stroke="#191970" points="1637.1273,-236.1912 1627.0336,-239.4112 1636.9322,-243.1885 1637.1273,-236.1912"/>
</g>
<!-- Node43&#45;&gt;Node5 -->
<g id="edge104" class="edge">
<title>Node43&#45;&gt;Node5</title>
<path fill="none" stroke="#191970" d="M232,-627.4352C232,-607.5659 232,-561.8958 232,-523.5 232,-523.5 232,-523.5 232,-124.5 232,-109.2996 24.0877,-142.5959 405,-57 510.8629,-33.2112 838.0919,-17.5982 961.8867,-12.4064"/>
<polygon fill="#191970" stroke="#191970" points="962.3358,-15.8909 972.182,-11.9791 962.0454,-8.8969 962.3358,-15.8909"/>
</g>
<!-- Node43&#45;&gt;Node13 -->
<g id="edge103" class="edge">
<title>Node43&#45;&gt;Node13</title>
<path fill="none" stroke="#191970" d="M282.8413,-627.4866C384.6167,-606.5362 619.6048,-553.5916 806,-477 820.2845,-471.1304 1034.3667,-346.9362 1049,-342 1154.9516,-306.2596 1188.3486,-327.9019 1298,-306 1300.1661,-305.5673 1302.3889,-305.0915 1304.6252,-304.5886"/>
<polygon fill="#191970" stroke="#191970" points="1305.4675,-307.9859 1314.3819,-302.2603 1303.8426,-301.1771 1305.4675,-307.9859"/>
</g>
<!-- Node44&#45;&gt;Node2 -->
<g id="edge111" class="edge">
<title>Node44&#45;&gt;Node2</title>
<path fill="none" stroke="#191970" d="M1475,-855.3833C1475,-836.6703 1475,-796.3266 1475,-771.7866"/>
<polygon fill="#191970" stroke="#191970" points="1478.5001,-771.7579 1475,-761.7579 1471.5001,-771.758 1478.5001,-771.7579"/>
</g>
<!-- Node44&#45;&gt;Node3 -->
<g id="edge107" class="edge">
<title>Node44&#45;&gt;Node3</title>
<path fill="none" stroke="#191970" d="M1573.798,-861.9789C1735.1953,-854.3711 2064.4417,-831.0637 2334,-762 2399.8779,-745.1214 2430.8713,-755.8743 2476,-705 2548.8303,-622.8974 2540,-576.2501 2540,-466.5 2540,-466.5 2540,-466.5 2540,-352.5 2540,-302.8548 2497.6096,-302.0935 2451,-285 2374.4253,-256.9171 1802.5064,-242.8799 1637.4636,-239.3854"/>
<polygon fill="#191970" stroke="#191970" points="1637.2616,-235.8805 1627.1905,-239.1704 1637.115,-242.8789 1637.2616,-235.8805"/>
</g>
<!-- Node44&#45;&gt;Node43 -->
<g id="edge108" class="edge">
<title>Node44&#45;&gt;Node43</title>
<path fill="none" stroke="#191970" d="M1376.4023,-862.1256C1124.793,-851.9779 465.7458,-815.3034 281,-705 262.3353,-693.8561 248.7113,-672.5712 240.6343,-656.8704"/>
<polygon fill="#191970" stroke="#191970" points="243.6239,-655.0117 236.1304,-647.5219 237.3176,-658.05 243.6239,-655.0117"/>
</g>
<!-- Node45 -->
<g id="node45" class="node">
<title>Node45</title>
<g id="a_node45"><a xlink:href="../../db/d63/G4VGlobalFastSimulationManager_8hh.html" target="_top" xlink:title="G4VGlobalFastSimulationManager.hh">
<polygon fill="none" stroke="#ff0000" points="0,-228.5 0,-248.5 204,-248.5 204,-228.5 0,-228.5"/>
<text text-anchor="middle" x="102" y="-235.5" font-family="FreeSans" font-size="10.00" fill="#000000">G4VGlobalFastSimulationManager.hh</text>
</a>
</g>
</g>
<!-- Node44&#45;&gt;Node45 -->
<g id="edge109" class="edge">
<title>Node44&#45;&gt;Node45</title>
<path fill="none" stroke="#191970" d="M1376.371,-862.3918C1063.6918,-851.8942 115,-814.8257 115,-751.5 115,-751.5 115,-751.5 115,-352.5 115,-319.4407 109.5364,-281.3339 105.6932,-258.618"/>
<polygon fill="#191970" stroke="#191970" points="109.0968,-257.764 103.9182,-248.521 102.2026,-258.976 109.0968,-257.764"/>
</g>
<!-- Node46 -->
<g id="node46" class="node">
<title>Node46</title>
<g id="a_node46"><a xlink:href="../../df/d2a/G4FastSimulationManagerProcess_8hh.html" target="_top" xlink:title="G4FastSimulationManagerProcess.hh">
<polygon fill="none" stroke="#ff0000" points="1630.5,-798.5 1630.5,-818.5 1833.5,-818.5 1833.5,-798.5 1630.5,-798.5"/>
<text text-anchor="middle" x="1732" y="-805.5" font-family="FreeSans" font-size="10.00" fill="#000000">G4FastSimulationManagerProcess.hh</text>
</a>
</g>
</g>
<!-- Node44&#45;&gt;Node46 -->
<g id="edge112" class="edge">
<title>Node44&#45;&gt;Node46</title>
<path fill="none" stroke="#191970" d="M1520.3548,-855.4408C1563.9861,-845.7638 1630.0297,-831.116 1676.7187,-820.7608"/>
<polygon fill="#191970" stroke="#191970" points="1677.6622,-824.1367 1686.6671,-818.5544 1676.1464,-817.3028 1677.6622,-824.1367"/>
</g>
<!-- Node45&#45;&gt;Node5 -->
<g id="edge110" class="edge">
<title>Node45&#45;&gt;Node5</title>
<path fill="none" stroke="#191970" d="M104.9031,-228.2685C114.6134,-196.1843 149.2891,-97.2937 218,-57 282.0891,-19.4167 800.7444,-12.1542 962.2024,-10.7997"/>
<polygon fill="#191970" stroke="#191970" points="962.3406,-14.2988 972.3122,-10.7188 962.2845,-7.2991 962.3406,-14.2988"/>
</g>
<!-- Node46&#45;&gt;Node2 -->
<g id="edge114" class="edge">
<title>Node46&#45;&gt;Node2</title>
<path fill="none" stroke="#191970" d="M1686.6452,-798.4408C1643.0139,-788.7638 1576.9703,-774.116 1530.2813,-763.7608"/>
<polygon fill="#191970" stroke="#191970" points="1530.8536,-760.3028 1520.3329,-761.5544 1529.3378,-767.1367 1530.8536,-760.3028"/>
</g>
<!-- Node46&#45;&gt;Node3 -->
<g id="edge113" class="edge">
<title>Node46&#45;&gt;Node3</title>
<path fill="none" stroke="#191970" d="M1833.7815,-803.0344C2034.915,-790.866 2464,-757.5215 2464,-694.5 2464,-694.5 2464,-694.5 2464,-352.5 2464,-317.8526 2454.5132,-303.1498 2425,-285 2391.2195,-264.226 1804.7819,-244.9209 1637.3193,-239.8123"/>
<polygon fill="#191970" stroke="#191970" points="1637.2341,-236.3083 1627.1326,-239.5034 1637.0218,-243.305 1637.2341,-236.3083"/>
</g>
<!-- Node46&#45;&gt;Node18 -->
<g id="edge117" class="edge">
<title>Node46&#45;&gt;Node18</title>
<path fill="none" stroke="#191970" d="M1770.0674,-798.4681C1815.6712,-783.8776 1886,-752.0477 1886,-694.5 1886,-694.5 1886,-694.5 1886,-637.5 1886,-548.2027 1809.2273,-462.5004 1772.7809,-426.8461"/>
<polygon fill="#191970" stroke="#191970" points="1774.8966,-424.0259 1765.2542,-419.6354 1770.054,-429.0807 1774.8966,-424.0259"/>
</g>
<!-- Node46&#45;&gt;Node32 -->
<g id="edge118" class="edge">
<title>Node46&#45;&gt;Node32</title>
<path fill="none" stroke="#191970" d="M1700.5648,-798.4814C1681.8522,-791.0744 1658.9221,-779.2506 1644,-762 1623.1698,-737.9193 1620,-726.3399 1620,-694.5 1620,-694.5 1620,-694.5 1620,-637.5 1620,-585.9544 1562.3133,-553.7086 1520.7361,-537.1618"/>
<polygon fill="#191970" stroke="#191970" points="1521.939,-533.8747 1511.3482,-533.5792 1519.4431,-540.4147 1521.939,-533.8747"/>
</g>
<!-- Node46&#45;&gt;Node37 -->
<g id="edge115" class="edge">
<title>Node46&#45;&gt;Node37</title>
<path fill="none" stroke="#191970" d="M1719.4469,-798.3255C1698.3344,-779.98 1658,-739.096 1658,-694.5 1658,-694.5 1658,-694.5 1658,-580.5 1658,-544.0743 1679.9639,-506.3617 1695.064,-484.7384"/>
<polygon fill="#191970" stroke="#191970" points="1697.9956,-486.6577 1701.0313,-476.507 1692.3281,-482.5491 1697.9956,-486.6577"/>
</g>
<!-- Node46&#45;&gt;Node39 -->
<g id="edge116" class="edge">
<title>Node46&#45;&gt;Node39</title>
<path fill="none" stroke="#191970" d="M1779.6042,-798.4929C1856.6167,-780.9176 2000,-741.8389 2000,-694.5 2000,-694.5 2000,-694.5 2000,-637.5 2000,-597.4604 2032.8584,-560.7878 2055.3644,-540.3653"/>
<polygon fill="#191970" stroke="#191970" points="2057.8796,-542.8155 2063.1076,-533.6004 2053.2741,-537.544 2057.8796,-542.8155"/>
</g>
<!-- Node47&#45;&gt;Node18 -->
<g id="edge120" class="edge">
<title>Node47&#45;&gt;Node18</title>
<path fill="none" stroke="#191970" d="M2058.7215,-741.3895C2022.987,-725.2314 1962,-689.969 1962,-637.5 1962,-637.5 1962,-637.5 1962,-523.5 1962,-461.3139 1889.6204,-432.825 1830.2543,-419.917"/>
<polygon fill="#191970" stroke="#191970" points="1830.5982,-416.4146 1820.0983,-417.8297 1829.1889,-423.2713 1830.5982,-416.4146"/>
</g>
<!-- Node47&#45;&gt;Node42 -->
<g id="edge121" class="edge">
<title>Node47&#45;&gt;Node42</title>
<path fill="none" stroke="#191970" d="M2084,-741.3095C2084,-733.9335 2084,-723.72 2084,-714.715"/>
<polygon fill="#191970" stroke="#191970" points="2087.5001,-714.6022 2084,-704.6022 2080.5001,-714.6023 2087.5001,-714.6022"/>
</g>
<!-- Node48&#45;&gt;Node13 -->
<g id="edge129" class="edge">
<title>Node48&#45;&gt;Node13</title>
<path fill="none" stroke="#191970" d="M2043,-627.4963C1814.5672,-598.193 1167.6351,-512.3934 1139,-477 1089.0118,-415.2138 1129.5932,-492.9078 1257,-420 1289.4879,-401.409 1299.1894,-394.7589 1319,-363 1327.9835,-348.5984 1333.1059,-329.9577 1335.9127,-315.9154"/>
<polygon fill="#191970" stroke="#191970" points="1339.4051,-316.2646 1337.6968,-305.8084 1332.5117,-315.0477 1339.4051,-316.2646"/>
</g>
<!-- Node48&#45;&gt;Node39 -->
<g id="edge123" class="edge">
<title>Node48&#45;&gt;Node39</title>
<path fill="none" stroke="#191970" d="M2098.5858,-627.3974C2084.0123,-619.7261 2066.4798,-607.6428 2058,-591 2050.1264,-575.5469 2056.6655,-556.2959 2063.9725,-542.3119"/>
<polygon fill="#191970" stroke="#191970" points="2067.0402,-543.9981 2068.9861,-533.5835 2060.9703,-540.5115 2067.0402,-543.9981"/>
</g>
<!-- Node49 -->
<g id="node49" class="node">
<title>Node49</title>
<g id="a_node49"><a xlink:href="../../d3/d97/G4SafetyHelper_8hh.html" target="_top" xlink:title="G4SafetyHelper.hh">
<polygon fill="none" stroke="#000000" points="2066.5,-570.5 2066.5,-590.5 2177.5,-590.5 2177.5,-570.5 2066.5,-570.5"/>
<text text-anchor="middle" x="2122" y="-577.5" font-family="FreeSans" font-size="10.00" fill="#000000">G4SafetyHelper.hh</text>
</a>
</g>
</g>
<!-- Node48&#45;&gt;Node49 -->
<g id="edge124" class="edge">
<title>Node48&#45;&gt;Node49</title>
<path fill="none" stroke="#191970" d="M2122,-627.3095C2122,-619.9335 2122,-609.72 2122,-600.715"/>
<polygon fill="#191970" stroke="#191970" points="2125.5001,-600.6022 2122,-590.6022 2118.5001,-600.6023 2125.5001,-600.6022"/>
</g>
<!-- Node50 -->
<g id="node50" class="node">
<title>Node50</title>
<polygon fill="none" stroke="#bfbfbf" points="2196,-570.5 2196,-590.5 2360,-590.5 2360,-570.5 2196,-570.5"/>
<text text-anchor="middle" x="2278" y="-577.5" font-family="FreeSans" font-size="10.00" fill="#000000">G4TransportationManager.icc</text>
</g>
<!-- Node48&#45;&gt;Node50 -->
<g id="edge130" class="edge">
<title>Node48&#45;&gt;Node50</title>
<path fill="none" stroke="#191970" d="M2149.5306,-627.4408C2174.96,-618.1492 2212.9316,-604.275 2241.0031,-594.0181"/>
<polygon fill="#191970" stroke="#191970" points="2242.2913,-597.2738 2250.4827,-590.5544 2239.8889,-590.699 2242.2913,-597.2738"/>
</g>
<!-- Node49&#45;&gt;Node5 -->
<g id="edge126" class="edge">
<title>Node49&#45;&gt;Node5</title>
<path fill="none" stroke="#191970" d="M2173.644,-570.4512C2277.543,-549.5193 2502,-500.3789 2502,-466.5 2502,-466.5 2502,-466.5 2502,-124.5 2502,-50.2731 1312.4815,-17.7119 1057.6786,-11.5886"/>
<polygon fill="#191970" stroke="#191970" points="1057.7079,-8.0884 1047.6273,-11.3492 1057.5411,-15.0864 1057.7079,-8.0884"/>
</g>
<!-- Node49&#45;&gt;Node13 -->
<g id="edge125" class="edge">
<title>Node49&#45;&gt;Node13</title>
<path fill="none" stroke="#191970" d="M2128.1719,-570.3315C2136.183,-555.6823 2147.5199,-528.6823 2133,-513 2062.2853,-436.6242 1763.1443,-514.374 1666,-477 1613.0656,-456.6347 1616.479,-422.8055 1565,-399 1494.9012,-366.584 1461.1038,-402.9366 1395,-363 1375.3571,-351.1328 1359.4328,-329.8422 1349.657,-314.3376"/>
<polygon fill="#191970" stroke="#191970" points="1352.5376,-312.3359 1344.3866,-305.5674 1346.5376,-315.9416 1352.5376,-312.3359"/>
</g>
<!-- Node49&#45;&gt;Node21 -->
<g id="edge127" class="edge">
<title>Node49&#45;&gt;Node21</title>
<path fill="none" stroke="#191970" d="M2177.5344,-571.7737C2234.2393,-559.3326 2314,-530.4643 2314,-466.5 2314,-466.5 2314,-466.5 2314,-409.5 2314,-378.3342 2317.6931,-363.3619 2295,-342 2273.4991,-321.7604 2199.303,-308.9626 2144.2748,-302.0272"/>
<polygon fill="#191970" stroke="#191970" points="2144.5909,-298.5398 2134.24,-300.7999 2143.7411,-305.488 2144.5909,-298.5398"/>
</g>
<!-- Node49&#45;&gt;Node39 -->
<g id="edge128" class="edge">
<title>Node49&#45;&gt;Node39</title>
<path fill="none" stroke="#191970" d="M2113.7761,-570.3095C2107.3656,-562.3661 2098.2994,-551.1319 2090.6556,-541.6602"/>
<polygon fill="#191970" stroke="#191970" points="2093.1566,-539.1862 2084.1527,-533.6022 2087.7092,-543.5823 2093.1566,-539.1862"/>
</g>
</g>
</svg>
