<?xml version="1.0" encoding="UTF-8" standalone="no"?>
<!DOCTYPE svg PUBLIC "-//W3C//DTD SVG 1.1//EN"
 "http://www.w3.org/Graphics/SVG/1.1/DTD/svg11.dtd">
<!-- Generated by graphviz version 2.40.1 (20161225.0304)
 -->
<!-- Title: G4RDeIonisationSpectrum Pages: 1 -->
<svg width="397pt" height="329pt"
 viewBox="0.00 0.00 396.50 329.00" xmlns="http://www.w3.org/2000/svg" xmlns:xlink="http://www.w3.org/1999/xlink">
<g id="graph0" class="graph" transform="scale(1 1) rotate(0) translate(4 325)">
<title>G4RDeIonisationSpectrum</title>
<!-- Node1 -->
<g id="node1" class="node">
<title>Node1</title>
<polygon fill="#bfbfbf" stroke="#000000" points="42,-.5 42,-20.5 192,-20.5 192,-.5 42,-.5"/>
<text text-anchor="middle" x="117" y="-7.5" font-family="FreeSans" font-size="10.00" fill="#000000">G4RDeIonisationSpectrum</text>
</g>
<!-- Node2 -->
<g id="node2" class="node">
<title>Node2</title>
<g id="a_node2"><a xlink:href="../../d4/d78/classG4RDVEnergySpectrum.html" target="_top" xlink:title="G4RDVEnergySpectrum">
<polygon fill="none" stroke="#000000" points="0,-69.5 0,-89.5 136,-89.5 136,-69.5 0,-69.5"/>
<text text-anchor="middle" x="68" y="-76.5" font-family="FreeSans" font-size="10.00" fill="#000000">G4RDVEnergySpectrum</text>
</a>
</g>
</g>
<!-- Node2&#45;&gt;Node1 -->
<g id="edge1" class="edge">
<title>Node2&#45;&gt;Node1</title>
<path fill="none" stroke="#191970" d="M81.0599,-61.1095C90.247,-48.1726 102.2014,-31.3388 109.7402,-20.723"/>
<polygon fill="#191970" stroke="#191970" points="78.1665,-59.139 75.2301,-69.3188 83.8738,-63.192 78.1665,-59.139"/>
</g>
<!-- Node3 -->
<g id="node3" class="node">
<title>Node3</title>
<g id="a_node3"><a xlink:href="../../d7/d02/classG4RDeIonisationParameters.html" target="_top" xlink:title="G4RDeIonisationParameters">
<polygon fill="none" stroke="#000000" points="154,-69.5 154,-89.5 312,-89.5 312,-69.5 154,-69.5"/>
<text text-anchor="middle" x="233" y="-76.5" font-family="FreeSans" font-size="10.00" fill="#000000">G4RDeIonisationParameters</text>
</a>
</g>
</g>
<!-- Node3&#45;&gt;Node1 -->
<g id="edge2" class="edge">
<title>Node3&#45;&gt;Node1</title>
<path fill="none" stroke="#9a32cd" stroke-dasharray="5,2" d="M207.2746,-64.1978C185.0296,-50.9659 153.4921,-32.2065 134.1864,-20.723"/>
<polygon fill="#9a32cd" stroke="#9a32cd" points="205.5,-67.2146 215.8838,-69.3188 209.0786,-61.1985 205.5,-67.2146"/>
<text text-anchor="middle" x="207.5" y="-42" font-family="FreeSans" font-size="10.00" fill="#000000"> theParam</text>
</g>
<!-- Node4 -->
<g id="node4" class="node">
<title>Node4</title>
<g id="a_node4"><a xlink:href="../../de/d4e/classG4DataVector.html" target="_top" xlink:title="G4DataVector">
<polygon fill="none" stroke="#000000" points="102.5,-156.5 102.5,-176.5 189.5,-176.5 189.5,-156.5 102.5,-156.5"/>
<text text-anchor="middle" x="146" y="-163.5" font-family="FreeSans" font-size="10.00" fill="#000000">G4DataVector</text>
</a>
</g>
</g>
<!-- Node4&#45;&gt;Node3 -->
<g id="edge3" class="edge">
<title>Node4&#45;&gt;Node3</title>
<path fill="none" stroke="#9a32cd" stroke-dasharray="5,2" d="M163.8157,-148.6843C181.6713,-130.8287 208.5219,-103.9781 222.9603,-89.5397"/>
<polygon fill="#9a32cd" stroke="#9a32cd" points="160.9179,-146.6323 156.3217,-156.1783 165.8677,-151.5821 160.9179,-146.6323"/>
<text text-anchor="middle" x="223" y="-117" font-family="FreeSans" font-size="10.00" fill="#000000"> activeZ</text>
</g>
<!-- Node5 -->
<g id="node5" class="node">
<title>Node5</title>
<g id="a_node5"><a xlink:title="STL class.">
<polygon fill="none" stroke="#bfbfbf" points="75,-231.5 75,-251.5 217,-251.5 217,-231.5 75,-231.5"/>
<text text-anchor="middle" x="146" y="-238.5" font-family="FreeSans" font-size="10.00" fill="#000000">std::vector&lt; G4double &gt;</text>
</a>
</g>
</g>
<!-- Node5&#45;&gt;Node4 -->
<g id="edge4" class="edge">
<title>Node5&#45;&gt;Node4</title>
<path fill="none" stroke="#191970" d="M146,-221.0481C146,-206.77 146,-188.303 146,-176.9358"/>
<polygon fill="#191970" stroke="#191970" points="142.5001,-221.3851 146,-231.3852 149.5001,-221.3852 142.5001,-221.3851"/>
</g>
<!-- Node6 -->
<g id="node6" class="node">
<title>Node6</title>
<polygon fill="none" stroke="#bfbfbf" points="131.5,-300.5 131.5,-320.5 160.5,-320.5 160.5,-300.5 131.5,-300.5"/>
<text text-anchor="middle" x="146" y="-307.5" font-family="FreeSans" font-size="10.00" fill="#000000">T</text>
</g>
<!-- Node6&#45;&gt;Node5 -->
<g id="edge5" class="edge">
<title>Node6&#45;&gt;Node5</title>
<path fill="none" stroke="#9a32cd" stroke-dasharray="5,2" d="M146,-290.2177C146,-277.5684 146,-261.8285 146,-251.723"/>
<polygon fill="#9a32cd" stroke="#9a32cd" points="142.5001,-290.3188 146,-300.3188 149.5001,-290.3188 142.5001,-290.3188"/>
<text text-anchor="middle" x="171.5" y="-273" font-family="FreeSans" font-size="10.00" fill="#000000"> elements</text>
</g>
<!-- Node7 -->
<g id="node7" class="node">
<title>Node7</title>
<polygon fill="none" stroke="#bfbfbf" points="207.5,-150.5 207.5,-182.5 388.5,-182.5 388.5,-150.5 207.5,-150.5"/>
<text text-anchor="start" x="215.5" y="-169.5" font-family="FreeSans" font-size="10.00" fill="#000000">std::map&lt; G4int, G4RDVEMData</text>
<text text-anchor="middle" x="298" y="-157.5" font-family="FreeSans" font-size="10.00" fill="#000000">Set *, std::less&lt; G4int &gt; &gt;</text>
</g>
<!-- Node7&#45;&gt;Node3 -->
<g id="edge6" class="edge">
<title>Node7&#45;&gt;Node3</title>
<path fill="none" stroke="#9a32cd" stroke-dasharray="5,2" d="M279.4403,-141.6585C266.5971,-124.4684 250.1704,-102.4819 240.6915,-89.7948"/>
<polygon fill="#9a32cd" stroke="#9a32cd" points="276.9848,-144.2198 285.774,-150.136 282.5926,-140.0301 276.9848,-144.2198"/>
<text text-anchor="middle" x="289.5" y="-123" font-family="FreeSans" font-size="10.00" fill="#000000"> param</text>
<text text-anchor="middle" x="289.5" y="-111" font-family="FreeSans" font-size="10.00" fill="#000000">excit</text>
</g>
<!-- Node8 -->
<g id="node8" class="node">
<title>Node8</title>
<g id="a_node8"><a xlink:href="../../d7/d74/classG4RDVEMDataSet.html" target="_top" xlink:title="G4RDVEMDataSet">
<polygon fill="none" stroke="#000000" points="244,-231.5 244,-251.5 352,-251.5 352,-231.5 244,-231.5"/>
<text text-anchor="middle" x="298" y="-238.5" font-family="FreeSans" font-size="10.00" fill="#000000">G4RDVEMDataSet</text>
</a>
</g>
</g>
<!-- Node8&#45;&gt;Node7 -->
<g id="edge7" class="edge">
<title>Node8&#45;&gt;Node7</title>
<path fill="none" stroke="#9a32cd" stroke-dasharray="5,2" d="M298,-221.3477C298,-209.2564 298,-194.0788 298,-182.7566"/>
<polygon fill="#9a32cd" stroke="#9a32cd" points="294.5001,-221.3851 298,-231.3852 301.5001,-221.3852 294.5001,-221.3851"/>
<text text-anchor="middle" x="323.5" y="-204" font-family="FreeSans" font-size="10.00" fill="#000000"> elements</text>
</g>
</g>
</svg>
