<?xml version="1.0" encoding="UTF-8" standalone="no"?>
<!DOCTYPE svg PUBLIC "-//W3C//DTD SVG 1.1//EN"
 "http://www.w3.org/Graphics/SVG/1.1/DTD/svg11.dtd">
<!-- Generated by graphviz version 2.40.1 (20161225.0304)
 -->
<!-- Title: G4ThreadLocalSingleton::Instance Pages: 1 -->
<svg width="496pt" height="113pt"
 viewBox="0.00 0.00 496.00 113.00" xmlns="http://www.w3.org/2000/svg" xmlns:xlink="http://www.w3.org/1999/xlink">
<g id="graph0" class="graph" transform="scale(1 1) rotate(0) translate(4 109)">
<title>G4ThreadLocalSingleton::Instance</title>
<!-- Node1 -->
<g id="node1" class="node">
<title>Node1</title>
<polygon fill="#bfbfbf" stroke="#000000" points="0,-39.5 0,-71.5 140,-71.5 140,-39.5 0,-39.5"/>
<text text-anchor="start" x="8" y="-58.5" font-family="FreeSans" font-size="10.00" fill="#000000">G4ThreadLocalSingleton</text>
<text text-anchor="middle" x="70" y="-46.5" font-family="FreeSans" font-size="10.00" fill="#000000">::Instance</text>
</g>
<!-- Node2 -->
<g id="node2" class="node">
<title>Node2</title>
<g id="a_node2"><a xlink:href="../../da/dc8/classG4Cache.html#a70890f74a94670d28d3282c1d8e60840" target="_top" xlink:title="G4Cache::Get">
<polygon fill="none" stroke="#000000" points="200.5,-84.5 200.5,-104.5 287.5,-104.5 287.5,-84.5 200.5,-84.5"/>
<text text-anchor="middle" x="244" y="-91.5" font-family="FreeSans" font-size="10.00" fill="#000000">G4Cache::Get</text>
</a>
</g>
</g>
<!-- Node1&#45;&gt;Node2 -->
<g id="edge1" class="edge">
<title>Node1&#45;&gt;Node2</title>
<path fill="none" stroke="#191970" d="M140.0203,-71.1942C156.7528,-74.9446 174.3571,-78.8904 190.2258,-82.4472"/>
<polygon fill="#191970" stroke="#191970" points="189.8532,-85.9504 200.3766,-84.7224 191.3843,-79.1199 189.8532,-85.9504"/>
</g>
<!-- Node3 -->
<g id="node3" class="node">
<title>Node3</title>
<g id="a_node3"><a xlink:href="../../da/dc8/classG4Cache.html#af35fe0499dd94627a5119e1e82639016" target="_top" xlink:title="G4Cache::Put">
<polygon fill="none" stroke="#000000" points="201.5,-45.5 201.5,-65.5 286.5,-65.5 286.5,-45.5 201.5,-45.5"/>
<text text-anchor="middle" x="244" y="-52.5" font-family="FreeSans" font-size="10.00" fill="#000000">G4Cache::Put</text>
</a>
</g>
</g>
<!-- Node1&#45;&gt;Node3 -->
<g id="edge2" class="edge">
<title>Node1&#45;&gt;Node3</title>
<path fill="none" stroke="#191970" d="M140.0203,-55.5C157.0626,-55.5 175.0094,-55.5 191.1056,-55.5"/>
<polygon fill="#191970" stroke="#191970" points="191.3879,-59.0001 201.3878,-55.5 191.3878,-52.0001 191.3879,-59.0001"/>
</g>
<!-- Node4 -->
<g id="node4" class="node">
<title>Node4</title>
<g id="a_node4"><a xlink:href="../../dc/d02/namespaceG4AutoDelete.html#ad9f605c8057f73fbe433da3bbd7d3936" target="_top" xlink:title="G4AutoDelete::Register">
<polygon fill="none" stroke="#000000" points="176,-6.5 176,-26.5 312,-26.5 312,-6.5 176,-6.5"/>
<text text-anchor="middle" x="244" y="-13.5" font-family="FreeSans" font-size="10.00" fill="#000000">G4AutoDelete::Register</text>
</a>
</g>
</g>
<!-- Node1&#45;&gt;Node4 -->
<g id="edge3" class="edge">
<title>Node1&#45;&gt;Node4</title>
<path fill="none" stroke="#191970" d="M140.0203,-39.8058C156.4429,-36.1249 173.7054,-32.2557 189.3425,-28.7508"/>
<polygon fill="#191970" stroke="#191970" points="190.366,-32.1083 199.3584,-26.5059 188.835,-25.2778 190.366,-32.1083"/>
</g>
<!-- Node5 -->
<g id="node5" class="node">
<title>Node5</title>
<g id="a_node5"><a xlink:href="../../d5/dd7/classG4ThreadLocalSingleton.html#ac51b4a79569468a146e91b3803f80d84" target="_top" xlink:title="G4ThreadLocalSingleton\l::Register">
<polygon fill="none" stroke="#000000" points="348,-.5 348,-32.5 488,-32.5 488,-.5 348,-.5"/>
<text text-anchor="start" x="356" y="-19.5" font-family="FreeSans" font-size="10.00" fill="#000000">G4ThreadLocalSingleton</text>
<text text-anchor="middle" x="418" y="-7.5" font-family="FreeSans" font-size="10.00" fill="#000000">::Register</text>
</a>
</g>
</g>
<!-- Node4&#45;&gt;Node5 -->
<g id="edge4" class="edge">
<title>Node4&#45;&gt;Node5</title>
<path fill="none" stroke="#191970" d="M312.27,-16.5C320.6871,-16.5 329.3497,-16.5 337.9222,-16.5"/>
<polygon fill="#191970" stroke="#191970" points="337.9239,-20.0001 347.9239,-16.5 337.9239,-13.0001 337.9239,-20.0001"/>
</g>
</g>
</svg>
