<?xml version="1.0" encoding="UTF-8" standalone="no"?>
<!DOCTYPE svg PUBLIC "-//W3C//DTD SVG 1.1//EN"
 "http://www.w3.org/Graphics/SVG/1.1/DTD/svg11.dtd">
<!-- Generated by graphviz version 2.40.1 (20161225.0304)
 -->
<!-- Title: G4INCL::StandardPropagationModel::generateDecays Pages: 1 -->
<svg width="814pt" height="343pt"
 viewBox="0.00 0.00 814.00 343.00" xmlns="http://www.w3.org/2000/svg" xmlns:xlink="http://www.w3.org/1999/xlink">
<g id="graph0" class="graph" transform="scale(1 1) rotate(0) translate(4 339)">
<title>G4INCL::StandardPropagationModel::generateDecays</title>
<!-- Node1 -->
<g id="node1" class="node">
<title>Node1</title>
<polygon fill="#bfbfbf" stroke="#000000" points="0,-134.5 0,-166.5 166,-166.5 166,-134.5 0,-134.5"/>
<text text-anchor="start" x="8" y="-153.5" font-family="FreeSans" font-size="10.00" fill="#000000">G4INCL::StandardPropagation</text>
<text text-anchor="middle" x="83" y="-141.5" font-family="FreeSans" font-size="10.00" fill="#000000">Model::generateDecays</text>
</g>
<!-- Node2 -->
<g id="node2" class="node">
<title>Node2</title>
<g id="a_node2"><a xlink:href="../../de/d02/classG4INCL_1_1DeltaDecayChannel.html#a70529d1d3764e517a72df32449d73ad4" target="_top" xlink:title="G4INCL::DeltaDecayChannel\l::computeDecayTime">
<polygon fill="none" stroke="#000000" points="205,-213.5 205,-245.5 365,-245.5 365,-213.5 205,-213.5"/>
<text text-anchor="start" x="213" y="-232.5" font-family="FreeSans" font-size="10.00" fill="#000000">G4INCL::DeltaDecayChannel</text>
<text text-anchor="middle" x="285" y="-220.5" font-family="FreeSans" font-size="10.00" fill="#000000">::computeDecayTime</text>
</a>
</g>
</g>
<!-- Node1&#45;&gt;Node2 -->
<g id="edge1" class="edge">
<title>Node1&#45;&gt;Node2</title>
<path fill="none" stroke="#191970" d="M124.3652,-166.6775C156.1968,-179.1265 200.341,-196.3908 234.299,-209.6714"/>
<polygon fill="#191970" stroke="#191970" points="233.4479,-213.0966 244.0358,-213.4793 235.9975,-206.5774 233.4479,-213.0966"/>
</g>
<!-- Node9 -->
<g id="node9" class="node">
<title>Node9</title>
<g id="a_node9"><a xlink:href="../../da/d1d/classG4INCL_1_1SigmaZeroDecayChannel.html#a8cb188ae821d7b59fec9e3536c55eae8" target="_top" xlink:title="G4INCL::SigmaZeroDecayChannel\l::computeDecayTime">
<polygon fill="none" stroke="#000000" points="404,-78.5 404,-110.5 592,-110.5 592,-78.5 404,-78.5"/>
<text text-anchor="start" x="412" y="-97.5" font-family="FreeSans" font-size="10.00" fill="#000000">G4INCL::SigmaZeroDecayChannel</text>
<text text-anchor="middle" x="498" y="-85.5" font-family="FreeSans" font-size="10.00" fill="#000000">::computeDecayTime</text>
</a>
</g>
</g>
<!-- Node1&#45;&gt;Node9 -->
<g id="edge10" class="edge">
<title>Node1&#45;&gt;Node9</title>
<path fill="none" stroke="#191970" d="M166.4822,-139.2349C231.9056,-130.4067 323.3096,-118.0727 393.5754,-108.591"/>
<polygon fill="#191970" stroke="#191970" points="394.3414,-112.0195 403.7835,-107.2136 393.4052,-105.0824 394.3414,-112.0195"/>
</g>
<!-- Node12 -->
<g id="node12" class="node">
<title>Node12</title>
<g id="a_node12"><a xlink:href="../../dc/d52/classG4INCL_1_1PionResonanceDecayChannel.html#a9c2f865b75f13af4b8f6c39ecad38be5" target="_top" xlink:title="G4INCL::PionResonanceDecay\lChannel::computeDecayTime">
<polygon fill="none" stroke="#000000" points="414,-168.5 414,-200.5 582,-200.5 582,-168.5 414,-168.5"/>
<text text-anchor="start" x="422" y="-187.5" font-family="FreeSans" font-size="10.00" fill="#000000">G4INCL::PionResonanceDecay</text>
<text text-anchor="middle" x="498" y="-175.5" font-family="FreeSans" font-size="10.00" fill="#000000">Channel::computeDecayTime</text>
</a>
</g>
</g>
<!-- Node1&#45;&gt;Node12 -->
<g id="edge16" class="edge">
<title>Node1&#45;&gt;Node12</title>
<path fill="none" stroke="#191970" d="M166.4822,-157.3395C235.064,-162.9583 332.1954,-170.916 403.5987,-176.7659"/>
<polygon fill="#191970" stroke="#191970" points="403.688,-180.2849 413.9405,-177.6132 404.2597,-173.3083 403.688,-180.2849"/>
</g>
<!-- Node14 -->
<g id="node14" class="node">
<title>Node14</title>
<g id="a_node14"><a xlink:href="../../d4/d3f/classG4INCL_1_1StandardPropagationModel.html#a4944f2d692d6f826da9f50b00a2c7fc3" target="_top" xlink:title="G4INCL::StandardPropagation\lModel::registerAvatar">
<polygon fill="none" stroke="#000000" points="202,-33.5 202,-65.5 368,-65.5 368,-33.5 202,-33.5"/>
<text text-anchor="start" x="210" y="-52.5" font-family="FreeSans" font-size="10.00" fill="#000000">G4INCL::StandardPropagation</text>
<text text-anchor="middle" x="285" y="-40.5" font-family="FreeSans" font-size="10.00" fill="#000000">Model::registerAvatar</text>
</a>
</g>
</g>
<!-- Node1&#45;&gt;Node14 -->
<g id="edge21" class="edge">
<title>Node1&#45;&gt;Node14</title>
<path fill="none" stroke="#191970" d="M115.0075,-134.4962C149.774,-117.113 205.4322,-89.2839 243.5256,-70.2372"/>
<polygon fill="#191970" stroke="#191970" points="245.4294,-73.1985 252.8084,-65.5958 242.2989,-66.9375 245.4294,-73.1985"/>
</g>
<!-- Node3 -->
<g id="node3" class="node">
<title>Node3</title>
<g id="a_node3"><a xlink:href="../../dd/d83/classG4INCL_1_1Particle.html#a1056ada71ff044004019023d29cfdb03" target="_top" xlink:title="G4INCL::Particle::getEnergy">
<polygon fill="none" stroke="#000000" points="639,-275.5 639,-295.5 795,-295.5 795,-275.5 639,-275.5"/>
<text text-anchor="middle" x="717" y="-282.5" font-family="FreeSans" font-size="10.00" fill="#000000">G4INCL::Particle::getEnergy</text>
</a>
</g>
</g>
<!-- Node2&#45;&gt;Node3 -->
<g id="edge2" class="edge">
<title>Node2&#45;&gt;Node3</title>
<path fill="none" stroke="#191970" d="M304.5071,-245.7208C326.8939,-263.1846 365.5004,-289.8875 404,-300.5 493.5497,-325.1845 602.8835,-310.2686 665.7743,-297.596"/>
<polygon fill="#191970" stroke="#191970" points="666.7546,-300.9671 675.8345,-295.5076 665.3318,-294.1133 666.7546,-300.9671"/>
</g>
<!-- Node4 -->
<g id="node4" class="node">
<title>Node4</title>
<g id="a_node4"><a xlink:href="../../dd/d83/classG4INCL_1_1Particle.html#af0fbb5ce95e3145e1f7af4bd2a9621ff" target="_top" xlink:title="Get the cached particle mass.">
<polygon fill="none" stroke="#000000" points="644,-236.5 644,-256.5 790,-256.5 790,-236.5 644,-236.5"/>
<text text-anchor="middle" x="717" y="-243.5" font-family="FreeSans" font-size="10.00" fill="#000000">G4INCL::Particle::getMass</text>
</a>
</g>
</g>
<!-- Node2&#45;&gt;Node4 -->
<g id="edge3" class="edge">
<title>Node2&#45;&gt;Node4</title>
<path fill="none" stroke="#191970" d="M365.2435,-232.6577C441.605,-235.6627 556.0343,-240.1657 633.4664,-243.2128"/>
<polygon fill="#191970" stroke="#191970" points="633.5356,-246.7181 643.6655,-243.6142 633.8109,-239.7236 633.5356,-246.7181"/>
</g>
<!-- Node5 -->
<g id="node5" class="node">
<title>Node5</title>
<g id="a_node5"><a xlink:href="../../d1/dbd/namespaceG4INCL_1_1KinematicsUtils.html#acc0f81fccd1735f59b9dbf8a4471e564" target="_top" xlink:title="gives the momentum in the CM frame of two particles.">
<polygon fill="none" stroke="#000000" points="429,-258.5 429,-290.5 567,-290.5 567,-258.5 429,-258.5"/>
<text text-anchor="start" x="437" y="-277.5" font-family="FreeSans" font-size="10.00" fill="#000000">G4INCL::KinematicsUtils</text>
<text text-anchor="middle" x="498" y="-265.5" font-family="FreeSans" font-size="10.00" fill="#000000">::momentumInCM</text>
</a>
</g>
</g>
<!-- Node2&#45;&gt;Node5 -->
<g id="edge4" class="edge">
<title>Node2&#45;&gt;Node5</title>
<path fill="none" stroke="#191970" d="M360.9958,-245.5555C379.8176,-249.5319 400.0276,-253.8016 418.9896,-257.8077"/>
<polygon fill="#191970" stroke="#191970" points="418.2702,-261.2329 428.7777,-259.8756 419.7172,-254.384 418.2702,-261.2329"/>
</g>
<!-- Node8 -->
<g id="node8" class="node">
<title>Node8</title>
<g id="a_node8"><a xlink:href="../../d5/d11/namespaceG4INCL_1_1Random.html#aad2134de367e586ed59d4ebc233f65ae" target="_top" xlink:title="G4INCL::Random::shoot">
<polygon fill="none" stroke="#000000" points="648.5,-119.5 648.5,-139.5 785.5,-139.5 785.5,-119.5 648.5,-119.5"/>
<text text-anchor="middle" x="717" y="-126.5" font-family="FreeSans" font-size="10.00" fill="#000000">G4INCL::Random::shoot</text>
</a>
</g>
</g>
<!-- Node2&#45;&gt;Node8 -->
<g id="edge9" class="edge">
<title>Node2&#45;&gt;Node8</title>
<path fill="none" stroke="#191970" d="M305.9901,-213.27C328.7545,-196.6366 366.8364,-171.5538 404,-159.5 481.0147,-134.5207 573.8513,-128.4156 638.3264,-127.6994"/>
<polygon fill="#191970" stroke="#191970" points="638.4487,-131.1987 648.4239,-127.6286 638.3996,-124.1989 638.4487,-131.1987"/>
</g>
<!-- Node5&#45;&gt;Node3 -->
<g id="edge6" class="edge">
<title>Node5&#45;&gt;Node3</title>
<path fill="none" stroke="#191970" d="M567.293,-277.9805C586.6964,-278.9551 608.0558,-280.0279 628.4135,-281.0505"/>
<polygon fill="#191970" stroke="#191970" points="628.4688,-284.5575 638.6318,-281.5637 628.82,-277.5664 628.4688,-284.5575"/>
</g>
<!-- Node5&#45;&gt;Node4 -->
<g id="edge5" class="edge">
<title>Node5&#45;&gt;Node4</title>
<path fill="none" stroke="#191970" d="M567.293,-265.6406C588.3749,-262.9452 611.7659,-259.9546 633.6723,-257.1538"/>
<polygon fill="#191970" stroke="#191970" points="634.144,-260.622 643.6194,-255.882 633.2562,-253.6786 634.144,-260.622"/>
</g>
<!-- Node6 -->
<g id="node6" class="node">
<title>Node6</title>
<g id="a_node6"><a xlink:href="../../dd/d83/classG4INCL_1_1Particle.html#a64e03f2bf2c151aa4798255a6bf0ad3d" target="_top" xlink:title="G4INCL::Particle::getMomentum">
<polygon fill="none" stroke="#000000" points="628,-197.5 628,-217.5 806,-217.5 806,-197.5 628,-197.5"/>
<text text-anchor="middle" x="717" y="-204.5" font-family="FreeSans" font-size="10.00" fill="#000000">G4INCL::Particle::getMomentum</text>
</a>
</g>
</g>
<!-- Node5&#45;&gt;Node6 -->
<g id="edge7" class="edge">
<title>Node5&#45;&gt;Node6</title>
<path fill="none" stroke="#191970" d="M538.2611,-258.4592C563.7225,-248.6869 597.4747,-236.4094 628,-227.5 637.4635,-224.7379 647.5871,-222.1365 657.4902,-219.781"/>
<polygon fill="#191970" stroke="#191970" points="658.3356,-223.1779 667.2872,-217.5106 656.7552,-216.3586 658.3356,-223.1779"/>
</g>
<!-- Node7 -->
<g id="node7" class="node">
<title>Node7</title>
<g id="a_node7"><a xlink:href="../../d1/dc2/classG4INCL_1_1ThreeVector.html#aa30743ac6a72bc2943cdce1f49665281" target="_top" xlink:title="G4INCL::ThreeVector::dot">
<polygon fill="none" stroke="#000000" points="644.5,-314.5 644.5,-334.5 789.5,-334.5 789.5,-314.5 644.5,-314.5"/>
<text text-anchor="middle" x="717" y="-321.5" font-family="FreeSans" font-size="10.00" fill="#000000">G4INCL::ThreeVector::dot</text>
</a>
</g>
</g>
<!-- Node5&#45;&gt;Node7 -->
<g id="edge8" class="edge">
<title>Node5&#45;&gt;Node7</title>
<path fill="none" stroke="#191970" d="M564.0637,-290.5747C584.5332,-295.4689 607.1787,-300.7957 628,-305.5 638.0437,-307.7693 648.7417,-310.1145 659.1099,-312.35"/>
<polygon fill="#191970" stroke="#191970" points="658.4057,-315.7785 668.9173,-314.4535 659.8737,-308.9341 658.4057,-315.7785"/>
</g>
<!-- Node9&#45;&gt;Node4 -->
<g id="edge11" class="edge">
<title>Node9&#45;&gt;Node4</title>
<path fill="none" stroke="#191970" d="M528.7861,-110.6593C548.6695,-122.2429 574.0787,-139.3268 592,-159.5 614.7113,-185.0652 600.7173,-206.8836 628,-227.5 630.0956,-229.0836 632.2944,-230.5416 634.5742,-231.8837"/>
<polygon fill="#191970" stroke="#191970" points="633.2177,-235.1197 643.7214,-236.506 636.3748,-228.8721 633.2177,-235.1197"/>
</g>
<!-- Node9&#45;&gt;Node6 -->
<g id="edge12" class="edge">
<title>Node9&#45;&gt;Node6</title>
<path fill="none" stroke="#191970" d="M522.2964,-110.5876C541.4814,-123.4605 568.7918,-142.1643 592,-159.5 608.4605,-171.7954 609.4484,-179.6704 628,-188.5 632.6075,-190.6929 637.469,-192.635 642.4471,-194.3545"/>
<polygon fill="#191970" stroke="#191970" points="641.5385,-197.7376 652.1278,-197.3945 643.6357,-191.0592 641.5385,-197.7376"/>
</g>
<!-- Node9&#45;&gt;Node8 -->
<g id="edge15" class="edge">
<title>Node9&#45;&gt;Node8</title>
<path fill="none" stroke="#191970" d="M592.1467,-109.5463C609.5236,-112.3234 627.4268,-115.1846 644.0588,-117.8427"/>
<polygon fill="#191970" stroke="#191970" points="643.8072,-121.3469 654.2342,-119.4689 644.9119,-114.4346 643.8072,-121.3469"/>
</g>
<!-- Node10 -->
<g id="node10" class="node">
<title>Node10</title>
<g id="a_node10"><a xlink:href="../../d5/d8e/namespaceG4INCL_1_1ParticleTable.html#af0baf38cbc848d3fc19181deff3f57f9" target="_top" xlink:title="Get particle width (in s)">
<polygon fill="none" stroke="#000000" points="655.5,-68.5 655.5,-100.5 778.5,-100.5 778.5,-68.5 655.5,-68.5"/>
<text text-anchor="start" x="663.5" y="-87.5" font-family="FreeSans" font-size="10.00" fill="#000000">G4INCL::ParticleTable</text>
<text text-anchor="middle" x="717" y="-75.5" font-family="FreeSans" font-size="10.00" fill="#000000">::getWidth</text>
</a>
</g>
</g>
<!-- Node9&#45;&gt;Node10 -->
<g id="edge13" class="edge">
<title>Node9&#45;&gt;Node10</title>
<path fill="none" stroke="#191970" d="M592.1467,-90.2011C609.8116,-89.3944 628.0204,-88.563 644.8847,-87.7929"/>
<polygon fill="#191970" stroke="#191970" points="645.3646,-91.2748 655.1946,-87.3222 645.0453,-84.282 645.3646,-91.2748"/>
</g>
<!-- Node11 -->
<g id="node11" class="node">
<title>Node11</title>
<g id="a_node11"><a xlink:href="../../d1/dc2/classG4INCL_1_1ThreeVector.html#a7b822bb48f8211e8190d171264450db6" target="_top" xlink:title="G4INCL::ThreeVector::mag">
<polygon fill="none" stroke="#000000" points="642,-29.5 642,-49.5 792,-49.5 792,-29.5 642,-29.5"/>
<text text-anchor="middle" x="717" y="-36.5" font-family="FreeSans" font-size="10.00" fill="#000000">G4INCL::ThreeVector::mag</text>
</a>
</g>
</g>
<!-- Node9&#45;&gt;Node11 -->
<g id="edge14" class="edge">
<title>Node9&#45;&gt;Node11</title>
<path fill="none" stroke="#191970" d="M558.705,-78.4599C569.7878,-75.5017 581.2451,-72.4238 592,-69.5 608.0242,-65.1437 611.8941,-63.5439 628,-59.5 638.4664,-56.8721 649.6665,-54.2262 660.4683,-51.758"/>
<polygon fill="#191970" stroke="#191970" points="661.2624,-55.1669 670.2438,-49.5469 659.718,-48.3393 661.2624,-55.1669"/>
</g>
<!-- Node12&#45;&gt;Node3 -->
<g id="edge17" class="edge">
<title>Node12&#45;&gt;Node3</title>
<path fill="none" stroke="#191970" d="M518.3654,-200.5842C542.9552,-219.209 586.2308,-249.4997 628,-266.5 633.7621,-268.8452 639.8572,-270.9185 646.0464,-272.748"/>
<polygon fill="#191970" stroke="#191970" points="645.2461,-276.1577 655.8157,-275.4263 647.097,-269.4068 645.2461,-276.1577"/>
</g>
<!-- Node12&#45;&gt;Node4 -->
<g id="edge18" class="edge">
<title>Node12&#45;&gt;Node4</title>
<path fill="none" stroke="#191970" d="M546.7976,-200.56C561.3442,-205.3564 577.3203,-210.6328 592,-215.5 608.0085,-220.8078 611.7278,-223.0659 628,-227.5 636.7318,-229.8794 646.0119,-232.1452 655.1578,-234.2292"/>
<polygon fill="#191970" stroke="#191970" points="654.476,-237.663 664.9972,-236.416 655.9947,-230.8297 654.476,-237.663"/>
</g>
<!-- Node12&#45;&gt;Node8 -->
<g id="edge20" class="edge">
<title>Node12&#45;&gt;Node8</title>
<path fill="none" stroke="#191970" d="M555.4621,-168.4731C578.0225,-162.3267 604.1735,-155.3818 628,-149.5 638.5945,-146.8847 649.9336,-144.2282 660.8491,-141.7423"/>
<polygon fill="#191970" stroke="#191970" points="661.7372,-145.13 670.7208,-139.5134 660.1954,-138.3019 661.7372,-145.13"/>
</g>
<!-- Node13 -->
<g id="node13" class="node">
<title>Node13</title>
<g id="a_node13"><a xlink:href="../../dd/d83/classG4INCL_1_1Particle.html#a85d12415b702dafd295dad34b16ebbbc" target="_top" xlink:title="G4INCL::Particle::getType">
<polygon fill="none" stroke="#000000" points="645,-158.5 645,-178.5 789,-178.5 789,-158.5 645,-158.5"/>
<text text-anchor="middle" x="717" y="-165.5" font-family="FreeSans" font-size="10.00" fill="#000000">G4INCL::Particle::getType</text>
</a>
</g>
</g>
<!-- Node12&#45;&gt;Node13 -->
<g id="edge19" class="edge">
<title>Node12&#45;&gt;Node13</title>
<path fill="none" stroke="#191970" d="M582.0448,-178.3597C599.3882,-177.0926 617.6335,-175.7597 634.9064,-174.4977"/>
<polygon fill="#191970" stroke="#191970" points="635.2316,-177.9834 644.9499,-173.7639 634.7215,-171.002 635.2316,-177.9834"/>
</g>
<!-- Node15 -->
<g id="node15" class="node">
<title>Node15</title>
<g id="a_node15"><a xlink:href="../../d7/db0/classG4INCL_1_1Nucleus.html#a39ebe42fabb45f882892a031ad1c24fb" target="_top" xlink:title="G4INCL::Nucleus::getStore">
<polygon fill="none" stroke="#000000" points="423,-39.5 423,-59.5 573,-59.5 573,-39.5 423,-39.5"/>
<text text-anchor="middle" x="498" y="-46.5" font-family="FreeSans" font-size="10.00" fill="#000000">G4INCL::Nucleus::getStore</text>
</a>
</g>
</g>
<!-- Node14&#45;&gt;Node15 -->
<g id="edge22" class="edge">
<title>Node14&#45;&gt;Node15</title>
<path fill="none" stroke="#191970" d="M368.2665,-49.5C382.8661,-49.5 398.0781,-49.5 412.7311,-49.5"/>
<polygon fill="#191970" stroke="#191970" points="412.7719,-53.0001 422.7719,-49.5 412.7719,-46.0001 412.7719,-53.0001"/>
</g>
<!-- Node16 -->
<g id="node16" class="node">
<title>Node16</title>
<g id="a_node16"><a xlink:href="../../d5/dd3/classG4INCL_1_1Store.html#a669515f693b3b017a847b6c765e710f6" target="_top" xlink:title="G4INCL::Store::add">
<polygon fill="none" stroke="#000000" points="442,-.5 442,-20.5 554,-20.5 554,-.5 442,-.5"/>
<text text-anchor="middle" x="498" y="-7.5" font-family="FreeSans" font-size="10.00" fill="#000000">G4INCL::Store::add</text>
</a>
</g>
</g>
<!-- Node14&#45;&gt;Node16 -->
<g id="edge23" class="edge">
<title>Node14&#45;&gt;Node16</title>
<path fill="none" stroke="#191970" d="M368.2665,-34.254C389.9253,-30.2883 412.9317,-26.0759 433.4617,-22.3169"/>
<polygon fill="#191970" stroke="#191970" points="434.1184,-25.7549 443.3244,-20.511 432.8576,-18.8694 434.1184,-25.7549"/>
</g>
</g>
</svg>
