<?xml version="1.0" encoding="UTF-8" standalone="no"?>
<!DOCTYPE svg PUBLIC "-//W3C//DTD SVG 1.1//EN"
 "http://www.w3.org/Graphics/SVG/1.1/DTD/svg11.dtd">
<!-- Generated by graphviz version 2.40.1 (20161225.0304)
 -->
<!-- Title: G4INCL::Cluster::Cluster Pages: 1 -->
<svg width="1206pt" height="539pt"
 viewBox="0.00 0.00 1206.00 539.00" xmlns="http://www.w3.org/2000/svg" xmlns:xlink="http://www.w3.org/1999/xlink">
<g id="graph0" class="graph" transform="scale(1 1) rotate(0) translate(4 535)">
<title>G4INCL::Cluster::Cluster</title>
<!-- Node1 -->
<g id="node1" class="node">
<title>Node1</title>
<polygon fill="#bfbfbf" stroke="#000000" points="0,-119.5 0,-139.5 139,-139.5 139,-119.5 0,-119.5"/>
<text text-anchor="middle" x="69.5" y="-126.5" font-family="FreeSans" font-size="10.00" fill="#000000">G4INCL::Cluster::Cluster</text>
</g>
<!-- Node2 -->
<g id="node2" class="node">
<title>Node2</title>
<g id="a_node2"><a xlink:href="../../d0/d7f/classG4INCL_1_1Cluster.html#ab281b65085083566eba65d6d0aa8cf98" target="_top" xlink:title="G4INCL::Cluster::addParticle">
<polygon fill="none" stroke="#000000" points="175,-342.5 175,-362.5 333,-362.5 333,-342.5 175,-342.5"/>
<text text-anchor="middle" x="254" y="-349.5" font-family="FreeSans" font-size="10.00" fill="#000000">G4INCL::Cluster::addParticle</text>
</a>
</g>
</g>
<!-- Node1&#45;&gt;Node2 -->
<g id="edge1" class="edge">
<title>Node1&#45;&gt;Node2</title>
<path fill="none" stroke="#191970" d="M77.907,-139.6613C106.782,-174.5617 202.1572,-289.8391 239.1517,-334.5533"/>
<polygon fill="#191970" stroke="#191970" points="236.4723,-336.8053 245.5436,-342.279 241.8657,-332.343 236.4723,-336.8053"/>
</g>
<!-- Node11 -->
<g id="node11" class="node">
<title>Node11</title>
<g id="a_node11"><a xlink:href="../../dd/d83/classG4INCL_1_1Particle.html#a94b76fea60e6dff52844db88143f6c28" target="_top" xlink:title="Rescale the momentum to match the total energy.">
<polygon fill="none" stroke="#000000" points="186,-136.5 186,-168.5 322,-168.5 322,-136.5 186,-136.5"/>
<text text-anchor="start" x="194" y="-155.5" font-family="FreeSans" font-size="10.00" fill="#000000">G4INCL::Particle::adjust</text>
<text text-anchor="middle" x="254" y="-143.5" font-family="FreeSans" font-size="10.00" fill="#000000">MomentumFromEnergy</text>
</a>
</g>
</g>
<!-- Node1&#45;&gt;Node11 -->
<g id="edge10" class="edge">
<title>Node1&#45;&gt;Node11</title>
<path fill="none" stroke="#191970" d="M139.2515,-138.1953C151.21,-139.6861 163.7056,-141.2438 175.866,-142.7597"/>
<polygon fill="#191970" stroke="#191970" points="175.6266,-146.2569 185.9828,-144.0209 176.4926,-139.3106 175.6266,-146.2569"/>
</g>
<!-- Node16 -->
<g id="node16" class="node">
<title>Node16</title>
<g id="a_node16"><a xlink:href="../../dd/d83/classG4INCL_1_1Particle.html#a967bc3671f8d7082e5b1f0f07c71e720" target="_top" xlink:title="Set the mass of the Particle to its table mass.">
<polygon fill="none" stroke="#000000" points="374,-68.5 374,-88.5 542,-88.5 542,-68.5 374,-68.5"/>
<text text-anchor="middle" x="458" y="-75.5" font-family="FreeSans" font-size="10.00" fill="#000000">G4INCL::Particle::setINCLMass</text>
</a>
</g>
</g>
<!-- Node1&#45;&gt;Node16 -->
<g id="edge15" class="edge">
<title>Node1&#45;&gt;Node16</title>
<path fill="none" stroke="#191970" d="M139.4047,-120.3233C204.4734,-111.7815 301.6558,-99.024 371.5674,-89.8464"/>
<polygon fill="#191970" stroke="#191970" points="372.2179,-93.2911 381.6772,-88.5192 371.3067,-86.3506 372.2179,-93.2911"/>
</g>
<!-- Node22 -->
<g id="node22" class="node">
<title>Node22</title>
<g id="a_node22"><a xlink:href="../../dd/d83/classG4INCL_1_1Particle.html#aca534164eea2b6e5a39ce0e335ef30b0" target="_top" xlink:title="G4INCL::Particle::setType">
<polygon fill="none" stroke="#000000" points="183,-58.5 183,-78.5 325,-78.5 325,-58.5 183,-58.5"/>
<text text-anchor="middle" x="254" y="-65.5" font-family="FreeSans" font-size="10.00" fill="#000000">G4INCL::Particle::setType</text>
</a>
</g>
</g>
<!-- Node1&#45;&gt;Node22 -->
<g id="edge21" class="edge">
<title>Node1&#45;&gt;Node22</title>
<path fill="none" stroke="#191970" d="M98.5483,-119.3927C119.7058,-112.0786 149.0776,-102.0233 175,-93.5 186.9577,-89.5683 199.9703,-85.4037 211.9198,-81.6247"/>
<polygon fill="#191970" stroke="#191970" points="213.1755,-84.8987 221.6609,-78.5546 211.0713,-78.2225 213.1755,-84.8987"/>
</g>
<!-- Node3 -->
<g id="node3" class="node">
<title>Node3</title>
<g id="a_node3"><a xlink:href="../../dd/d83/classG4INCL_1_1Particle.html#a1056ada71ff044004019023d29cfdb03" target="_top" xlink:title="G4INCL::Particle::getEnergy">
<polygon fill="none" stroke="#000000" points="380,-510.5 380,-530.5 536,-530.5 536,-510.5 380,-510.5"/>
<text text-anchor="middle" x="458" y="-517.5" font-family="FreeSans" font-size="10.00" fill="#000000">G4INCL::Particle::getEnergy</text>
</a>
</g>
</g>
<!-- Node2&#45;&gt;Node3 -->
<g id="edge2" class="edge">
<title>Node2&#45;&gt;Node3</title>
<path fill="none" stroke="#191970" d="M258.7354,-362.8257C271.8979,-390.2841 311.7595,-465.4611 369,-501.5 371.9644,-503.3664 375.083,-505.0521 378.3067,-506.5743"/>
<polygon fill="#191970" stroke="#191970" points="377.0519,-509.8429 387.6296,-510.4456 379.7365,-503.3781 377.0519,-509.8429"/>
</g>
<!-- Node4 -->
<g id="node4" class="node">
<title>Node4</title>
<g id="a_node4"><a xlink:href="../../dd/d83/classG4INCL_1_1Particle.html#a2b7dc0e28320c39bf6d8de3cfa48d0c2" target="_top" xlink:title="Get the particle potential energy.">
<polygon fill="none" stroke="#000000" points="376,-459.5 376,-491.5 540,-491.5 540,-459.5 376,-459.5"/>
<text text-anchor="start" x="384" y="-478.5" font-family="FreeSans" font-size="10.00" fill="#000000">G4INCL::Particle::getPotential</text>
<text text-anchor="middle" x="458" y="-466.5" font-family="FreeSans" font-size="10.00" fill="#000000">Energy</text>
</a>
</g>
</g>
<!-- Node2&#45;&gt;Node4 -->
<g id="edge3" class="edge">
<title>Node2&#45;&gt;Node4</title>
<path fill="none" stroke="#191970" d="M263.0668,-362.7476C281.2066,-382.6244 324.0943,-426.5594 369,-450.5 372.4853,-452.3581 376.1229,-454.09 379.8515,-455.7028"/>
<polygon fill="#191970" stroke="#191970" points="378.687,-459.0065 389.2717,-459.4704 381.2865,-452.5071 378.687,-459.0065"/>
</g>
<!-- Node5 -->
<g id="node5" class="node">
<title>Node5</title>
<g id="a_node5"><a xlink:href="../../dd/d83/classG4INCL_1_1Particle.html#a64e03f2bf2c151aa4798255a6bf0ad3d" target="_top" xlink:title="G4INCL::Particle::getMomentum">
<polygon fill="none" stroke="#000000" points="369,-420.5 369,-440.5 547,-440.5 547,-420.5 369,-420.5"/>
<text text-anchor="middle" x="458" y="-427.5" font-family="FreeSans" font-size="10.00" fill="#000000">G4INCL::Particle::getMomentum</text>
</a>
</g>
</g>
<!-- Node2&#45;&gt;Node5 -->
<g id="edge4" class="edge">
<title>Node2&#45;&gt;Node5</title>
<path fill="none" stroke="#191970" d="M270.1431,-362.5248C291.8511,-375.5911 332.0074,-398.3237 369,-411.5 375.7534,-413.9055 382.9089,-416.0552 390.1116,-417.9641"/>
<polygon fill="#191970" stroke="#191970" points="389.3792,-421.3887 399.9296,-420.4195 391.0776,-414.5978 389.3792,-421.3887"/>
</g>
<!-- Node6 -->
<g id="node6" class="node">
<title>Node6</title>
<g id="a_node6"><a xlink:href="../../dd/d83/classG4INCL_1_1Particle.html#a5575330878a28b978dc2b40df39cc6f9" target="_top" xlink:title="G4INCL::Particle::getPosition">
<polygon fill="none" stroke="#000000" points="378,-381.5 378,-401.5 538,-401.5 538,-381.5 378,-381.5"/>
<text text-anchor="middle" x="458" y="-388.5" font-family="FreeSans" font-size="10.00" fill="#000000">G4INCL::Particle::getPosition</text>
</a>
</g>
</g>
<!-- Node2&#45;&gt;Node6 -->
<g id="edge5" class="edge">
<title>Node2&#45;&gt;Node6</title>
<path fill="none" stroke="#191970" d="M306.5351,-362.5435C333.7807,-367.7522 367.2392,-374.1487 395.7736,-379.6038"/>
<polygon fill="#191970" stroke="#191970" points="395.1636,-383.0505 405.643,-381.4906 396.4781,-376.175 395.1636,-383.0505"/>
</g>
<!-- Node7 -->
<g id="node7" class="node">
<title>Node7</title>
<g id="a_node7"><a xlink:href="../../dd/d83/classG4INCL_1_1Particle.html#abface4ddcfe3be393c8a1e8262c6d3a8" target="_top" xlink:title="Returns the baryon number.">
<polygon fill="none" stroke="#000000" points="394,-342.5 394,-362.5 522,-362.5 522,-342.5 394,-342.5"/>
<text text-anchor="middle" x="458" y="-349.5" font-family="FreeSans" font-size="10.00" fill="#000000">G4INCL::Particle::getA</text>
</a>
</g>
</g>
<!-- Node2&#45;&gt;Node7 -->
<g id="edge6" class="edge">
<title>Node2&#45;&gt;Node7</title>
<path fill="none" stroke="#191970" d="M333.1637,-352.5C349.7657,-352.5 367.2184,-352.5 383.6378,-352.5"/>
<polygon fill="#191970" stroke="#191970" points="383.7108,-356.0001 393.7107,-352.5 383.7107,-349.0001 383.7108,-356.0001"/>
</g>
<!-- Node8 -->
<g id="node8" class="node">
<title>Node8</title>
<g id="a_node8"><a xlink:href="../../dd/d83/classG4INCL_1_1Particle.html#a721bd8354f507e9a8f6bcdf743e4ef94" target="_top" xlink:title="Returns the charge number.">
<polygon fill="none" stroke="#000000" points="394,-303.5 394,-323.5 522,-323.5 522,-303.5 394,-303.5"/>
<text text-anchor="middle" x="458" y="-310.5" font-family="FreeSans" font-size="10.00" fill="#000000">G4INCL::Particle::getZ</text>
</a>
</g>
</g>
<!-- Node2&#45;&gt;Node8 -->
<g id="edge7" class="edge">
<title>Node2&#45;&gt;Node8</title>
<path fill="none" stroke="#191970" d="M306.5351,-342.4565C333.7807,-337.2478 367.2392,-330.8513 395.7736,-325.3962"/>
<polygon fill="#191970" stroke="#191970" points="396.4781,-328.825 405.643,-323.5094 395.1636,-321.9495 396.4781,-328.825"/>
</g>
<!-- Node9 -->
<g id="node9" class="node">
<title>Node9</title>
<g id="a_node9"><a xlink:href="../../dd/d83/classG4INCL_1_1Particle.html#adc2907fd9377237840effb8a93537d55" target="_top" xlink:title="Returns the strangeness number.">
<polygon fill="none" stroke="#000000" points="394.5,-264.5 394.5,-284.5 521.5,-284.5 521.5,-264.5 394.5,-264.5"/>
<text text-anchor="middle" x="458" y="-271.5" font-family="FreeSans" font-size="10.00" fill="#000000">G4INCL::Particle::getS</text>
</a>
</g>
</g>
<!-- Node2&#45;&gt;Node9 -->
<g id="edge8" class="edge">
<title>Node2&#45;&gt;Node9</title>
<path fill="none" stroke="#191970" d="M270.5644,-342.4997C292.4085,-329.7027 332.3728,-307.6249 369,-294.5 376.8223,-291.697 385.1767,-289.2028 393.5166,-287.0086"/>
<polygon fill="#191970" stroke="#191970" points="394.4154,-290.3917 403.2675,-284.5702 392.7171,-283.6009 394.4154,-290.3917"/>
</g>
<!-- Node10 -->
<g id="node10" class="node">
<title>Node10</title>
<g id="a_node10"><a xlink:href="../../dd/d83/classG4INCL_1_1Particle.html#aeaed8070bdad59670d863322ebdd5f5a" target="_top" xlink:title="Return the number of collisions undergone by the particle.">
<polygon fill="none" stroke="#000000" points="377,-213.5 377,-245.5 539,-245.5 539,-213.5 377,-213.5"/>
<text text-anchor="start" x="385" y="-232.5" font-family="FreeSans" font-size="10.00" fill="#000000">G4INCL::Particle::getNumber</text>
<text text-anchor="middle" x="458" y="-220.5" font-family="FreeSans" font-size="10.00" fill="#000000">OfCollisions</text>
</a>
</g>
</g>
<!-- Node2&#45;&gt;Node10 -->
<g id="edge9" class="edge">
<title>Node2&#45;&gt;Node10</title>
<path fill="none" stroke="#191970" d="M263.1119,-342.4029C281.3305,-322.8093 324.3501,-279.457 369,-255.5 373.211,-253.2406 377.6422,-251.1555 382.186,-249.2348"/>
<polygon fill="#191970" stroke="#191970" points="383.6099,-252.4358 391.6361,-245.5198 381.0489,-245.9211 383.6099,-252.4358"/>
</g>
<!-- Node12 -->
<g id="node12" class="node">
<title>Node12</title>
<g id="a_node12"><a xlink:href="../../d1/dc2/classG4INCL_1_1ThreeVector.html#aae5baaebbb9339c58587b4b37d1c428e" target="_top" xlink:title="G4INCL::ThreeVector\l::mag2">
<polygon fill="none" stroke="#000000" points="397,-162.5 397,-194.5 519,-194.5 519,-162.5 397,-162.5"/>
<text text-anchor="start" x="405" y="-181.5" font-family="FreeSans" font-size="10.00" fill="#000000">G4INCL::ThreeVector</text>
<text text-anchor="middle" x="458" y="-169.5" font-family="FreeSans" font-size="10.00" fill="#000000">::mag2</text>
</a>
</g>
</g>
<!-- Node11&#45;&gt;Node12 -->
<g id="edge11" class="edge">
<title>Node11&#45;&gt;Node12</title>
<path fill="none" stroke="#191970" d="M322.2127,-161.1938C342.917,-163.8326 365.7153,-166.7382 386.6217,-169.4028"/>
<polygon fill="#191970" stroke="#191970" points="386.3532,-172.8968 396.7155,-170.6892 387.2383,-165.9529 386.3532,-172.8968"/>
</g>
<!-- Node13 -->
<g id="node13" class="node">
<title>Node13</title>
<g id="a_node13"><a xlink:href="../../dd/d83/classG4INCL_1_1Particle.html#a7b8ff5b6d05059e45730c1ce83d6a862" target="_top" xlink:title="G4INCL::Particle::print">
<polygon fill="none" stroke="#000000" points="394,-123.5 394,-143.5 522,-143.5 522,-123.5 394,-123.5"/>
<text text-anchor="middle" x="458" y="-130.5" font-family="FreeSans" font-size="10.00" fill="#000000">G4INCL::Particle::print</text>
</a>
</g>
</g>
<!-- Node11&#45;&gt;Node13 -->
<g id="edge12" class="edge">
<title>Node11&#45;&gt;Node13</title>
<path fill="none" stroke="#191970" d="M322.2127,-146.1469C342.0302,-144.3011 363.7661,-142.2767 383.9252,-140.3991"/>
<polygon fill="#191970" stroke="#191970" points="384.3587,-143.874 393.991,-139.4616 383.7095,-136.9042 384.3587,-143.874"/>
</g>
<!-- Node14 -->
<g id="node14" class="node">
<title>Node14</title>
<g id="a_node14"><a xlink:href="../../d5/d8e/namespaceG4INCL_1_1ParticleTable.html#a8ca754711723a486ef5f4beac603500a" target="_top" xlink:title="Get the native INCL name of the particle.">
<polygon fill="none" stroke="#000000" points="606,-168.5 606,-200.5 729,-200.5 729,-168.5 606,-168.5"/>
<text text-anchor="start" x="614" y="-187.5" font-family="FreeSans" font-size="10.00" fill="#000000">G4INCL::ParticleTable</text>
<text text-anchor="middle" x="667.5" y="-175.5" font-family="FreeSans" font-size="10.00" fill="#000000">::getName</text>
</a>
</g>
</g>
<!-- Node13&#45;&gt;Node14 -->
<g id="edge13" class="edge">
<title>Node13&#45;&gt;Node14</title>
<path fill="none" stroke="#191970" d="M503.7967,-143.5083C517.6937,-146.6215 532.9895,-150.1244 547,-153.5 563.0867,-157.3758 580.3353,-161.7077 596.6102,-165.8757"/>
<polygon fill="#191970" stroke="#191970" points="596.0421,-169.3434 606.5987,-168.4442 597.7854,-162.564 596.0421,-169.3434"/>
</g>
<!-- Node15 -->
<g id="node15" class="node">
<title>Node15</title>
<g id="a_node15"><a xlink:href="../../d1/dc2/classG4INCL_1_1ThreeVector.html#a30af3810cc634b9407049a08cd639e75" target="_top" xlink:title="G4INCL::ThreeVector\l::print">
<polygon fill="none" stroke="#000000" points="606.5,-117.5 606.5,-149.5 728.5,-149.5 728.5,-117.5 606.5,-117.5"/>
<text text-anchor="start" x="614.5" y="-136.5" font-family="FreeSans" font-size="10.00" fill="#000000">G4INCL::ThreeVector</text>
<text text-anchor="middle" x="667.5" y="-124.5" font-family="FreeSans" font-size="10.00" fill="#000000">::print</text>
</a>
</g>
</g>
<!-- Node13&#45;&gt;Node15 -->
<g id="edge14" class="edge">
<title>Node13&#45;&gt;Node15</title>
<path fill="none" stroke="#191970" d="M522.2807,-133.5C545.6451,-133.5 572.1837,-133.5 596.125,-133.5"/>
<polygon fill="#191970" stroke="#191970" points="596.2097,-137.0001 606.2097,-133.5 596.2096,-130.0001 596.2097,-137.0001"/>
</g>
<!-- Node17 -->
<g id="node17" class="node">
<title>Node17</title>
<g id="a_node17"><a xlink:href="../../dd/d83/classG4INCL_1_1Particle.html#a38a68965ab7ec38fafaa1e7c6a050f79" target="_top" xlink:title="G4INCL::Particle::setMass">
<polygon fill="none" stroke="#000000" points="595,-78.5 595,-98.5 740,-98.5 740,-78.5 595,-78.5"/>
<text text-anchor="middle" x="667.5" y="-85.5" font-family="FreeSans" font-size="10.00" fill="#000000">G4INCL::Particle::setMass</text>
</a>
</g>
</g>
<!-- Node16&#45;&gt;Node17 -->
<g id="edge16" class="edge">
<title>Node16&#45;&gt;Node17</title>
<path fill="none" stroke="#191970" d="M542.0045,-82.5098C556.1114,-83.1831 570.7412,-83.8814 584.8144,-84.5532"/>
<polygon fill="#191970" stroke="#191970" points="584.7926,-88.056 594.9481,-85.0369 585.1264,-81.064 584.7926,-88.056"/>
</g>
<!-- Node18 -->
<g id="node18" class="node">
<title>Node18</title>
<g id="a_node18"><a xlink:href="../../dd/d83/classG4INCL_1_1Particle.html#aa127348f0d36f847e9670ac4088680b3" target="_top" xlink:title="Get the INCL particle mass.">
<polygon fill="none" stroke="#000000" points="583,-39.5 583,-59.5 752,-59.5 752,-39.5 583,-39.5"/>
<text text-anchor="middle" x="667.5" y="-46.5" font-family="FreeSans" font-size="10.00" fill="#000000">G4INCL::Particle::getINCLMass</text>
</a>
</g>
</g>
<!-- Node16&#45;&gt;Node18 -->
<g id="edge17" class="edge">
<title>Node16&#45;&gt;Node18</title>
<path fill="none" stroke="#191970" d="M530.3914,-68.4792C548.0545,-66.0342 567.0788,-63.4008 585.1674,-60.8969"/>
<polygon fill="#191970" stroke="#191970" points="585.6802,-64.3594 595.1058,-59.5212 584.7203,-57.4255 585.6802,-64.3594"/>
</g>
<!-- Node19 -->
<g id="node19" class="node">
<title>Node19</title>
<g id="a_node19"><a xlink:href="../../d5/d8e/namespaceG4INCL_1_1ParticleTable.html#a60b2e73d0b219e998aadc5fc59706f14" target="_top" xlink:title="Get INCL nuclear mass (in MeV/c^2)">
<polygon fill="none" stroke="#000000" points="788,-33.5 788,-65.5 911,-65.5 911,-33.5 788,-33.5"/>
<text text-anchor="start" x="796" y="-52.5" font-family="FreeSans" font-size="10.00" fill="#000000">G4INCL::ParticleTable</text>
<text text-anchor="middle" x="849.5" y="-40.5" font-family="FreeSans" font-size="10.00" fill="#000000">::getINCLMass</text>
</a>
</g>
</g>
<!-- Node18&#45;&gt;Node19 -->
<g id="edge18" class="edge">
<title>Node18&#45;&gt;Node19</title>
<path fill="none" stroke="#191970" d="M752.1062,-49.5C760.6856,-49.5 769.3412,-49.5 777.7658,-49.5"/>
<polygon fill="#191970" stroke="#191970" points="777.9069,-53.0001 787.9069,-49.5 777.9069,-46.0001 777.9069,-53.0001"/>
</g>
<!-- Node20 -->
<g id="node20" class="node">
<title>Node20</title>
<g id="a_node20"><a xlink:href="../../df/d28/namespacekdfinder.html#ab72d428625e99a2d7380eb7691c246c7" target="_top" xlink:title="kdfinder::abs">
<polygon fill="none" stroke="#000000" points="947,-39.5 947,-59.5 1030,-59.5 1030,-39.5 947,-39.5"/>
<text text-anchor="middle" x="988.5" y="-46.5" font-family="FreeSans" font-size="10.00" fill="#000000">kdfinder::abs</text>
</a>
</g>
</g>
<!-- Node19&#45;&gt;Node20 -->
<g id="edge19" class="edge">
<title>Node19&#45;&gt;Node20</title>
<path fill="none" stroke="#191970" d="M911.2769,-49.5C919.7398,-49.5 928.3574,-49.5 936.6193,-49.5"/>
<polygon fill="#191970" stroke="#191970" points="936.8558,-53.0001 946.8557,-49.5 936.8557,-46.0001 936.8558,-53.0001"/>
</g>
<!-- Node21 -->
<g id="node21" class="node">
<title>Node21</title>
<g id="a_node21"><a xlink:href="../../d8/dc7/classkdfinder_1_1TVector.html#ac9649c7577f12a7502ed523260f4ee90" target="_top" xlink:title="kdfinder::TVector::mag">
<polygon fill="none" stroke="#000000" points="1066,-39.5 1066,-59.5 1198,-59.5 1198,-39.5 1066,-39.5"/>
<text text-anchor="middle" x="1132" y="-46.5" font-family="FreeSans" font-size="10.00" fill="#000000">kdfinder::TVector::mag</text>
</a>
</g>
</g>
<!-- Node20&#45;&gt;Node21 -->
<g id="edge20" class="edge">
<title>Node20&#45;&gt;Node21</title>
<path fill="none" stroke="#191970" d="M1030.0061,-49.5C1038.1854,-49.5 1047.0065,-49.5 1055.917,-49.5"/>
<polygon fill="#191970" stroke="#191970" points="1055.9858,-53.0001 1065.9858,-49.5 1055.9857,-46.0001 1055.9858,-53.0001"/>
</g>
<!-- Node22&#45;&gt;Node16 -->
<g id="edge24" class="edge">
<title>Node22&#45;&gt;Node16</title>
<path fill="none" stroke="#191970" d="M325.0629,-71.9835C337.4934,-72.5928 350.6009,-73.2353 363.5455,-73.8699"/>
<polygon fill="#191970" stroke="#191970" points="363.7164,-77.3824 373.8758,-74.3763 364.0592,-70.3908 363.7164,-77.3824"/>
</g>
<!-- Node23 -->
<g id="node23" class="node">
<title>Node23</title>
<g id="a_node23"><a xlink:href="../../dd/d83/classG4INCL_1_1Particle.html#a616be21abf18318f60dba4833f8caa20" target="_top" xlink:title="Is it a resonance?">
<polygon fill="none" stroke="#000000" points="374.5,-10.5 374.5,-30.5 541.5,-30.5 541.5,-10.5 374.5,-10.5"/>
<text text-anchor="middle" x="458" y="-17.5" font-family="FreeSans" font-size="10.00" fill="#000000">G4INCL::Particle::isResonance</text>
</a>
</g>
</g>
<!-- Node22&#45;&gt;Node23 -->
<g id="edge22" class="edge">
<title>Node22&#45;&gt;Node23</title>
<path fill="none" stroke="#191970" d="M296.7651,-58.4376C328.3177,-51.0135 371.4433,-40.8663 405.1546,-32.9342"/>
<polygon fill="#191970" stroke="#191970" points="406.3587,-36.2466 415.2912,-30.5491 404.7554,-29.4326 406.3587,-36.2466"/>
</g>
<!-- Node24 -->
<g id="node24" class="node">
<title>Node24</title>
<g id="a_node24"><a xlink:href="../../dd/d83/classG4INCL_1_1Particle.html#aa8130b3c975b204e3a234d476dfd646b" target="_top" xlink:title="Is it a Delta?">
<polygon fill="none" stroke="#000000" points="598.5,-.5 598.5,-20.5 736.5,-20.5 736.5,-.5 598.5,-.5"/>
<text text-anchor="middle" x="667.5" y="-7.5" font-family="FreeSans" font-size="10.00" fill="#000000">G4INCL::Particle::isDelta</text>
</a>
</g>
</g>
<!-- Node23&#45;&gt;Node24 -->
<g id="edge23" class="edge">
<title>Node23&#45;&gt;Node24</title>
<path fill="none" stroke="#191970" d="M541.7031,-16.5046C556.9826,-15.7753 572.8852,-15.0162 588.037,-14.293"/>
<polygon fill="#191970" stroke="#191970" points="588.5682,-17.7717 598.3899,-13.7988 588.2344,-10.7797 588.5682,-17.7717"/>
</g>
</g>
</svg>
