<?xml version="1.0" encoding="UTF-8" standalone="no"?>
<!DOCTYPE svg PUBLIC "-//W3C//DTD SVG 1.1//EN"
 "http://www.w3.org/Graphics/SVG/1.1/DTD/svg11.dtd">
<!-- Generated by graphviz version 2.40.1 (20161225.0304)
 -->
<!-- Title: G4SmartVoxelHeader::BuildEquivalentSliceNos Pages: 1 -->
<svg width="349pt" height="92pt"
 viewBox="0.00 0.00 349.00 92.00" xmlns="http://www.w3.org/2000/svg" xmlns:xlink="http://www.w3.org/1999/xlink">
<g id="graph0" class="graph" transform="scale(1 1) rotate(0) translate(4 88)">
<title>G4SmartVoxelHeader::BuildEquivalentSliceNos</title>
<!-- Node1 -->
<g id="node1" class="node">
<title>Node1</title>
<polygon fill="#bfbfbf" stroke="#000000" points="0,-25.5 0,-57.5 146,-57.5 146,-25.5 0,-25.5"/>
<text text-anchor="start" x="8" y="-44.5" font-family="FreeSans" font-size="10.00" fill="#000000">G4SmartVoxelHeader</text>
<text text-anchor="middle" x="73" y="-32.5" font-family="FreeSans" font-size="10.00" fill="#000000">::BuildEquivalentSliceNos</text>
</g>
<!-- Node2 -->
<g id="node2" class="node">
<title>Node2</title>
<g id="a_node2"><a xlink:href="../../d9/d16/classG4SmartVoxelNode.html#a8199f1bc2999f19c42e04a82dd984898" target="_top" xlink:title="G4SmartVoxelNode::SetMax\lEquivalentSliceNo">
<polygon fill="none" stroke="#000000" points="182,-51.5 182,-83.5 341,-83.5 341,-51.5 182,-51.5"/>
<text text-anchor="start" x="190" y="-70.5" font-family="FreeSans" font-size="10.00" fill="#000000">G4SmartVoxelNode::SetMax</text>
<text text-anchor="middle" x="261.5" y="-58.5" font-family="FreeSans" font-size="10.00" fill="#000000">EquivalentSliceNo</text>
</a>
</g>
</g>
<!-- Node1&#45;&gt;Node2 -->
<g id="edge1" class="edge">
<title>Node1&#45;&gt;Node2</title>
<path fill="none" stroke="#191970" d="M146.1488,-51.5895C154.554,-52.7488 163.1952,-53.9407 171.7861,-55.1257"/>
<polygon fill="#191970" stroke="#191970" points="171.4462,-58.6118 181.8306,-56.5111 172.4027,-51.6775 171.4462,-58.6118"/>
</g>
<!-- Node3 -->
<g id="node3" class="node">
<title>Node3</title>
<g id="a_node3"><a xlink:href="../../d9/d16/classG4SmartVoxelNode.html#ac885ee56853900384a578638b366a8b4" target="_top" xlink:title="G4SmartVoxelNode::SetMin\lEquivalentSliceNo">
<polygon fill="none" stroke="#000000" points="184,-.5 184,-32.5 339,-32.5 339,-.5 184,-.5"/>
<text text-anchor="start" x="192" y="-19.5" font-family="FreeSans" font-size="10.00" fill="#000000">G4SmartVoxelNode::SetMin</text>
<text text-anchor="middle" x="261.5" y="-7.5" font-family="FreeSans" font-size="10.00" fill="#000000">EquivalentSliceNo</text>
</a>
</g>
</g>
<!-- Node1&#45;&gt;Node3 -->
<g id="edge2" class="edge">
<title>Node1&#45;&gt;Node3</title>
<path fill="none" stroke="#191970" d="M146.1488,-31.7986C155.1927,-30.5991 164.5099,-29.3634 173.7435,-28.1388"/>
<polygon fill="#191970" stroke="#191970" points="174.2603,-31.601 183.7134,-26.8165 173.34,-24.6617 174.2603,-31.601"/>
</g>
</g>
</svg>
