<?xml version="1.0" encoding="UTF-8" standalone="no"?>
<!DOCTYPE svg PUBLIC "-//W3C//DTD SVG 1.1//EN"
 "http://www.w3.org/Graphics/SVG/1.1/DTD/svg11.dtd">
<!-- Generated by graphviz version 2.40.1 (20161225.0304)
 -->
<!-- Title: G4LENDManager::GetExcitationEnergyOfExcitedIsomer Pages: 1 -->
<svg width="607pt" height="41pt"
 viewBox="0.00 0.00 607.00 41.00" xmlns="http://www.w3.org/2000/svg" xmlns:xlink="http://www.w3.org/1999/xlink">
<g id="graph0" class="graph" transform="scale(1 1) rotate(0) translate(4 37)">
<title>G4LENDManager::GetExcitationEnergyOfExcitedIsomer</title>
<!-- Node1 -->
<g id="node1" class="node">
<title>Node1</title>
<polygon fill="#bfbfbf" stroke="#000000" points="0,-.5 0,-32.5 176,-32.5 176,-.5 0,-.5"/>
<text text-anchor="start" x="8" y="-19.5" font-family="FreeSans" font-size="10.00" fill="#000000">G4LENDManager::GetExcitation</text>
<text text-anchor="middle" x="88" y="-7.5" font-family="FreeSans" font-size="10.00" fill="#000000">EnergyOfExcitedIsomer</text>
</g>
<!-- Node2 -->
<g id="node2" class="node">
<title>Node2</title>
<g id="a_node2"><a xlink:href="../../d8/d3f/classG4LENDManager.html#acd5fcee5884a2b7bab7c07c2a1fd37fa" target="_top" xlink:title="G4LENDManager::GetNucleus\lEncoding">
<polygon fill="none" stroke="#000000" points="212,-.5 212,-32.5 379,-32.5 379,-.5 212,-.5"/>
<text text-anchor="start" x="220" y="-19.5" font-family="FreeSans" font-size="10.00" fill="#000000">G4LENDManager::GetNucleus</text>
<text text-anchor="middle" x="295.5" y="-7.5" font-family="FreeSans" font-size="10.00" fill="#000000">Encoding</text>
</a>
</g>
</g>
<!-- Node1&#45;&gt;Node2 -->
<g id="edge1" class="edge">
<title>Node1&#45;&gt;Node2</title>
<path fill="none" stroke="#191970" d="M176.2996,-16.5C184.6905,-16.5 193.2194,-16.5 201.66,-16.5"/>
<polygon fill="#191970" stroke="#191970" points="201.8967,-20.0001 211.8966,-16.5 201.8966,-13.0001 201.8967,-20.0001"/>
</g>
<!-- Node3 -->
<g id="node3" class="node">
<title>Node3</title>
<g id="a_node3"><a xlink:href="../../da/d2b/classG4IonTable.html#a8a605ef54d4d35959ec22c209482e921" target="_top" xlink:title="G4IonTable::GetNucleusEncoding">
<polygon fill="none" stroke="#000000" points="415,-6.5 415,-26.5 599,-26.5 599,-6.5 415,-6.5"/>
<text text-anchor="middle" x="507" y="-13.5" font-family="FreeSans" font-size="10.00" fill="#000000">G4IonTable::GetNucleusEncoding</text>
</a>
</g>
</g>
<!-- Node2&#45;&gt;Node3 -->
<g id="edge2" class="edge">
<title>Node2&#45;&gt;Node3</title>
<path fill="none" stroke="#191970" d="M379.0904,-16.5C387.5554,-16.5 396.2187,-16.5 404.8501,-16.5"/>
<polygon fill="#191970" stroke="#191970" points="404.954,-20.0001 414.954,-16.5 404.9539,-13.0001 404.954,-20.0001"/>
</g>
</g>
</svg>
