<?xml version="1.0" encoding="UTF-8" standalone="no"?>
<!DOCTYPE svg PUBLIC "-//W3C//DTD SVG 1.1//EN"
 "http://www.w3.org/Graphics/SVG/1.1/DTD/svg11.dtd">
<!-- Generated by graphviz version 2.40.1 (20161225.0304)
 -->
<!-- Title: geant4/tree/geant4&#45;10.6&#45;release/examples/advanced/composite_calorimeter/include/CCalGeometryConfiguration.hh Pages: 1 -->
<svg width="1013pt" height="521pt"
 viewBox="0.00 0.00 1013.00 521.00" xmlns="http://www.w3.org/2000/svg" xmlns:xlink="http://www.w3.org/1999/xlink">
<g id="graph0" class="graph" transform="scale(1 1) rotate(0) translate(4 517)">
<title>geant4/tree/geant4&#45;10.6&#45;release/examples/advanced/composite_calorimeter/include/CCalGeometryConfiguration.hh</title>
<!-- Node1 -->
<g id="node1" class="node">
<title>Node1</title>
<polygon fill="#bfbfbf" stroke="#000000" points="360.5,-456.5 360.5,-512.5 579.5,-512.5 579.5,-456.5 360.5,-456.5"/>
<text text-anchor="start" x="368.5" y="-499.5" font-family="FreeSans" font-size="10.00" fill="#000000">geant4/tree/geant4</text>
<text text-anchor="start" x="368.5" y="-487.5" font-family="FreeSans" font-size="10.00" fill="#000000">&#45;10.6&#45;release/examples</text>
<text text-anchor="start" x="368.5" y="-475.5" font-family="FreeSans" font-size="10.00" fill="#000000">/advanced/composite_calorimeter</text>
<text text-anchor="middle" x="470" y="-463.5" font-family="FreeSans" font-size="10.00" fill="#000000">/include/CCalGeometryConfiguration.hh</text>
</g>
<!-- Node2 -->
<g id="node2" class="node">
<title>Node2</title>
<polygon fill="none" stroke="#bfbfbf" points="135.5,-228.5 135.5,-248.5 174.5,-248.5 174.5,-228.5 135.5,-228.5"/>
<text text-anchor="middle" x="155" y="-235.5" font-family="FreeSans" font-size="10.00" fill="#000000">map</text>
</g>
<!-- Node1&#45;&gt;Node2 -->
<g id="edge1" class="edge">
<title>Node1&#45;&gt;Node2</title>
<path fill="none" stroke="#191970" d="M433.8655,-456.2807C367.5818,-404.5162 228.531,-295.9242 175.8403,-254.7753"/>
<polygon fill="#191970" stroke="#191970" points="177.9065,-251.948 167.8708,-248.5515 173.5979,-257.465 177.9065,-251.948"/>
</g>
<!-- Node3 -->
<g id="node3" class="node">
<title>Node3</title>
<g id="a_node3"><a xlink:href="../../d9/d09/CCalutils_8hh.html" target="_top" xlink:title="CCalutils.hh">
<polygon fill="none" stroke="#000000" points="717,-399.5 717,-419.5 793,-419.5 793,-399.5 717,-399.5"/>
<text text-anchor="middle" x="755" y="-406.5" font-family="FreeSans" font-size="10.00" fill="#000000">CCalutils.hh</text>
</a>
</g>
</g>
<!-- Node1&#45;&gt;Node3 -->
<g id="edge2" class="edge">
<title>Node1&#45;&gt;Node3</title>
<path fill="none" stroke="#191970" d="M576.5288,-456.4661C621.282,-444.689 671.0999,-431.579 706.7041,-422.2094"/>
<polygon fill="#191970" stroke="#191970" points="708.0338,-425.4788 716.8138,-419.549 706.2523,-418.7092 708.0338,-425.4788"/>
</g>
<!-- Node4 -->
<g id="node4" class="node">
<title>Node4</title>
<polygon fill="none" stroke="#bfbfbf" points="766,-114.5 766,-134.5 826,-134.5 826,-114.5 766,-114.5"/>
<text text-anchor="middle" x="796" y="-121.5" font-family="FreeSans" font-size="10.00" fill="#000000">iostream</text>
</g>
<!-- Node3&#45;&gt;Node4 -->
<g id="edge3" class="edge">
<title>Node3&#45;&gt;Node4</title>
<path fill="none" stroke="#191970" d="M793.2418,-400.4809C863.2742,-382.8441 1005,-341.4731 1005,-295.5 1005,-295.5 1005,-295.5 1005,-238.5 1005,-162.5066 897.1907,-136.8674 836.4328,-128.4521"/>
<polygon fill="#191970" stroke="#191970" points="836.7557,-124.9648 826.3904,-127.1581 835.8611,-131.9075 836.7557,-124.9648"/>
</g>
<!-- Node5 -->
<g id="node5" class="node">
<title>Node5</title>
<polygon fill="none" stroke="#bfbfbf" points="767.5,-342.5 767.5,-362.5 822.5,-362.5 822.5,-342.5 767.5,-342.5"/>
<text text-anchor="middle" x="795" y="-349.5" font-family="FreeSans" font-size="10.00" fill="#000000">fstream</text>
</g>
<!-- Node3&#45;&gt;Node5 -->
<g id="edge4" class="edge">
<title>Node3&#45;&gt;Node5</title>
<path fill="none" stroke="#191970" d="M762.1512,-399.3095C767.6687,-391.4472 775.4486,-380.3608 782.0521,-370.9507"/>
<polygon fill="#191970" stroke="#191970" points="785.0314,-372.7983 787.9107,-362.6022 779.3015,-368.7773 785.0314,-372.7983"/>
</g>
<!-- Node6 -->
<g id="node6" class="node">
<title>Node6</title>
<g id="a_node6"><a xlink:href="../../da/d46/globals_8hh.html" target="_top" xlink:title="globals.hh">
<polygon fill="none" stroke="#000000" points="681,-342.5 681,-362.5 749,-362.5 749,-342.5 681,-342.5"/>
<text text-anchor="middle" x="715" y="-349.5" font-family="FreeSans" font-size="10.00" fill="#000000">globals.hh</text>
</a>
</g>
</g>
<!-- Node3&#45;&gt;Node6 -->
<g id="edge5" class="edge">
<title>Node3&#45;&gt;Node6</title>
<path fill="none" stroke="#191970" d="M747.8488,-399.3095C742.3313,-391.4472 734.5514,-380.3608 727.9479,-370.9507"/>
<polygon fill="#191970" stroke="#191970" points="730.6985,-368.7773 722.0893,-362.6022 724.9686,-372.7983 730.6985,-368.7773"/>
</g>
<!-- Node7 -->
<g id="node7" class="node">
<title>Node7</title>
<g id="a_node7"><a xlink:href="../../df/de9/G4ios_8hh.html" target="_top" xlink:title="G4ios.hh">
<polygon fill="none" stroke="#000000" points="722.5,-171.5 722.5,-191.5 783.5,-191.5 783.5,-171.5 722.5,-171.5"/>
<text text-anchor="middle" x="753" y="-178.5" font-family="FreeSans" font-size="10.00" fill="#000000">G4ios.hh</text>
</a>
</g>
</g>
<!-- Node6&#45;&gt;Node7 -->
<g id="edge6" class="edge">
<title>Node6&#45;&gt;Node7</title>
<path fill="none" stroke="#191970" d="M746.2928,-342.4211C773.1699,-333.0564 808.8414,-318.6858 817,-306 840.589,-269.3215 799.6665,-222.8942 773.079,-198.4046"/>
<polygon fill="#191970" stroke="#191970" points="775.1708,-195.5807 765.3752,-191.5437 770.5153,-200.8082 775.1708,-195.5807"/>
</g>
<!-- Node8 -->
<g id="node8" class="node">
<title>Node8</title>
<g id="a_node8"><a xlink:href="../../de/d29/G4Types_8hh.html" target="_top" xlink:title="G4Types.hh">
<polygon fill="none" stroke="#000000" points="637.5,-114.5 637.5,-134.5 712.5,-134.5 712.5,-114.5 637.5,-114.5"/>
<text text-anchor="middle" x="675" y="-121.5" font-family="FreeSans" font-size="10.00" fill="#000000">G4Types.hh</text>
</a>
</g>
</g>
<!-- Node6&#45;&gt;Node8 -->
<g id="edge14" class="edge">
<title>Node6&#45;&gt;Node8</title>
<path fill="none" stroke="#191970" d="M713.6381,-342.4673C710.724,-321.2744 703.5339,-270.4097 696,-228 690.8351,-198.926 683.8573,-165.4696 679.3918,-144.6522"/>
<polygon fill="#191970" stroke="#191970" points="682.7857,-143.7869 677.2527,-134.7516 675.9436,-145.2652 682.7857,-143.7869"/>
</g>
<!-- Node12 -->
<g id="node12" class="node">
<title>Node12</title>
<polygon fill="none" stroke="#bfbfbf" points="743.5,-285.5 743.5,-305.5 808.5,-305.5 808.5,-285.5 743.5,-285.5"/>
<text text-anchor="middle" x="776" y="-292.5" font-family="FreeSans" font-size="10.00" fill="#000000">algorithm</text>
</g>
<!-- Node6&#45;&gt;Node12 -->
<g id="edge13" class="edge">
<title>Node6&#45;&gt;Node12</title>
<path fill="none" stroke="#191970" d="M725.9056,-342.3095C734.7534,-334.0419 747.4164,-322.2093 757.7968,-312.5096"/>
<polygon fill="#191970" stroke="#191970" points="760.2719,-314.987 765.1888,-305.6022 755.4926,-309.8724 760.2719,-314.987"/>
</g>
<!-- Node13 -->
<g id="node13" class="node">
<title>Node13</title>
<g id="a_node13"><a xlink:href="../../d2/df2/source_2global_2management_2include_2G4String_8hh.html" target="_top" xlink:title="G4String.hh">
<polygon fill="none" stroke="#000000" points="137,-171.5 137,-191.5 213,-191.5 213,-171.5 137,-171.5"/>
<text text-anchor="middle" x="175" y="-178.5" font-family="FreeSans" font-size="10.00" fill="#000000">G4String.hh</text>
</a>
</g>
</g>
<!-- Node6&#45;&gt;Node13 -->
<g id="edge15" class="edge">
<title>Node6&#45;&gt;Node13</title>
<path fill="none" stroke="#191970" d="M680.7227,-352.0785C565.6418,-349.8604 196.3636,-335.9705 126,-249 112.1777,-231.9154 131.9626,-211.3658 150.3672,-197.4632"/>
<polygon fill="#191970" stroke="#191970" points="152.4994,-200.2413 158.6005,-191.5795 148.4294,-194.5461 152.4994,-200.2413"/>
</g>
<!-- Node18 -->
<g id="node18" class="node">
<title>Node18</title>
<g id="a_node18"><a xlink:href="../../d2/d54/templates_8hh.html" target="_top" xlink:title="templates.hh">
<polygon fill="none" stroke="#000000" points="865.5,-285.5 865.5,-305.5 948.5,-305.5 948.5,-285.5 865.5,-285.5"/>
<text text-anchor="middle" x="907" y="-292.5" font-family="FreeSans" font-size="10.00" fill="#000000">templates.hh</text>
</a>
</g>
</g>
<!-- Node6&#45;&gt;Node18 -->
<g id="edge22" class="edge">
<title>Node6&#45;&gt;Node18</title>
<path fill="none" stroke="#191970" d="M748.8838,-342.4408C780.7282,-332.9869 828.5532,-318.7889 863.2646,-308.484"/>
<polygon fill="#191970" stroke="#191970" points="864.5422,-311.7557 873.1326,-305.5544 862.55,-305.0452 864.5422,-311.7557"/>
</g>
<!-- Node21 -->
<g id="node21" class="node">
<title>Node21</title>
<g id="a_node21"><a xlink:href="../../d5/d4f/G4Exception_8hh.html" target="_top" xlink:title="G4Exception.hh">
<polygon fill="none" stroke="#000000" points="591,-228.5 591,-248.5 687,-248.5 687,-228.5 591,-228.5"/>
<text text-anchor="middle" x="639" y="-235.5" font-family="FreeSans" font-size="10.00" fill="#000000">G4Exception.hh</text>
</a>
</g>
</g>
<!-- Node6&#45;&gt;Node21 -->
<g id="edge25" class="edge">
<title>Node6&#45;&gt;Node21</title>
<path fill="none" stroke="#191970" d="M708.2555,-342.3833C695.4992,-323.2488 667.6656,-281.4984 651.4353,-257.1529"/>
<polygon fill="#191970" stroke="#191970" points="654.2979,-255.137 645.8386,-248.7579 648.4735,-259.0199 654.2979,-255.137"/>
</g>
<!-- Node24 -->
<g id="node24" class="node">
<title>Node24</title>
<g id="a_node24"><a xlink:href="../../dc/d3a/G4EnvironmentUtils_8hh.html" target="_top" xlink:title="G4EnvironmentUtils.hh">
<polygon fill="none" stroke="#000000" points="402.5,-285.5 402.5,-305.5 535.5,-305.5 535.5,-285.5 402.5,-285.5"/>
<text text-anchor="middle" x="469" y="-292.5" font-family="FreeSans" font-size="10.00" fill="#000000">G4EnvironmentUtils.hh</text>
</a>
</g>
</g>
<!-- Node6&#45;&gt;Node24 -->
<g id="edge31" class="edge">
<title>Node6&#45;&gt;Node24</title>
<path fill="none" stroke="#191970" d="M680.7948,-344.5744C639.7516,-335.0644 570.4641,-319.01 522.3646,-307.865"/>
<polygon fill="#191970" stroke="#191970" points="522.9721,-304.4131 512.4401,-305.5654 521.3919,-311.2324 522.9721,-304.4131"/>
</g>
<!-- Node7&#45;&gt;Node4 -->
<g id="edge12" class="edge">
<title>Node7&#45;&gt;Node4</title>
<path fill="none" stroke="#191970" d="M760.6875,-171.3095C766.68,-163.3661 775.1549,-152.1319 782.3002,-142.6602"/>
<polygon fill="#191970" stroke="#191970" points="785.1507,-144.6933 788.379,-134.6022 779.5625,-140.4776 785.1507,-144.6933"/>
</g>
<!-- Node7&#45;&gt;Node8 -->
<g id="edge7" class="edge">
<title>Node7&#45;&gt;Node8</title>
<path fill="none" stroke="#191970" d="M739.0552,-171.3095C727.4088,-162.7987 710.5929,-150.5102 697.1128,-140.6594"/>
<polygon fill="#191970" stroke="#191970" points="698.9631,-137.6766 688.8241,-134.6022 694.833,-143.3283 698.9631,-137.6766"/>
</g>
<!-- Node9 -->
<g id="node9" class="node">
<title>Node9</title>
<polygon fill="none" stroke="#bfbfbf" points="594.5,-.5 594.5,-20.5 705.5,-20.5 705.5,-.5 594.5,-.5"/>
<text text-anchor="middle" x="650" y="-7.5" font-family="FreeSans" font-size="10.00" fill="#000000">G4GlobalConfig.hh</text>
</g>
<!-- Node8&#45;&gt;Node9 -->
<g id="edge8" class="edge">
<title>Node8&#45;&gt;Node9</title>
<path fill="none" stroke="#191970" d="M672.7814,-114.3833C668.6777,-95.6703 659.8304,-55.3266 654.4488,-30.7866"/>
<polygon fill="#191970" stroke="#191970" points="657.8105,-29.7761 652.2495,-20.7579 650.9729,-31.2756 657.8105,-29.7761"/>
</g>
<!-- Node10 -->
<g id="node10" class="node">
<title>Node10</title>
<polygon fill="none" stroke="#bfbfbf" points="703.5,-57.5 703.5,-77.5 762.5,-77.5 762.5,-57.5 703.5,-57.5"/>
<text text-anchor="middle" x="733" y="-64.5" font-family="FreeSans" font-size="10.00" fill="#000000">complex</text>
</g>
<!-- Node8&#45;&gt;Node10 -->
<g id="edge9" class="edge">
<title>Node8&#45;&gt;Node10</title>
<path fill="none" stroke="#191970" d="M685.3692,-114.3095C693.6995,-106.1229 705.5864,-94.441 715.4011,-84.7955"/>
<polygon fill="#191970" stroke="#191970" points="718.0415,-87.1079 722.7205,-77.6022 713.1349,-82.1153 718.0415,-87.1079"/>
</g>
<!-- Node11 -->
<g id="node11" class="node">
<title>Node11</title>
<g id="a_node11"><a xlink:href="../../d0/d00/tls_8hh.html" target="_top" xlink:title="tls.hh">
<polygon fill="none" stroke="#000000" points="603,-57.5 603,-77.5 647,-77.5 647,-57.5 603,-57.5"/>
<text text-anchor="middle" x="625" y="-64.5" font-family="FreeSans" font-size="10.00" fill="#000000">tls.hh</text>
</a>
</g>
</g>
<!-- Node8&#45;&gt;Node11 -->
<g id="edge10" class="edge">
<title>Node8&#45;&gt;Node11</title>
<path fill="none" stroke="#191970" d="M666.061,-114.3095C659.022,-106.2851 649.0371,-94.9022 640.6762,-85.3708"/>
<polygon fill="#191970" stroke="#191970" points="643.0872,-82.8118 633.8616,-77.6022 637.8249,-87.4279 643.0872,-82.8118"/>
</g>
<!-- Node11&#45;&gt;Node9 -->
<g id="edge11" class="edge">
<title>Node11&#45;&gt;Node9</title>
<path fill="none" stroke="#191970" d="M629.4695,-57.3095C632.8113,-49.6903 637.4809,-39.0435 641.5226,-29.8285"/>
<polygon fill="#191970" stroke="#191970" points="644.7578,-31.166 645.5692,-20.6022 638.3473,-28.3543 644.7578,-31.166"/>
</g>
<!-- Node13&#45;&gt;Node4 -->
<g id="edge20" class="edge">
<title>Node13&#45;&gt;Node4</title>
<path fill="none" stroke="#191970" d="M213.1319,-178.9661C302.1892,-172.8924 530.7414,-156.4039 721,-135 732.3036,-133.7284 744.5329,-132.117 755.7713,-130.5408"/>
<polygon fill="#191970" stroke="#191970" points="756.3542,-133.9931 765.7586,-129.1139 755.3641,-127.0635 756.3542,-133.9931"/>
</g>
<!-- Node13&#45;&gt;Node8 -->
<g id="edge19" class="edge">
<title>Node13&#45;&gt;Node8</title>
<path fill="none" stroke="#191970" d="M213.16,-177.4028C286.4314,-169.4984 451.8961,-151.4677 591,-135 602.7398,-133.6102 615.3952,-132.0571 627.2317,-130.5806"/>
<polygon fill="#191970" stroke="#191970" points="627.8921,-134.0253 637.3792,-129.3088 627.0215,-127.0797 627.8921,-134.0253"/>
</g>
<!-- Node14 -->
<g id="node14" class="node">
<title>Node14</title>
<polygon fill="none" stroke="#bfbfbf" points="0,-114.5 0,-134.5 50,-134.5 50,-114.5 0,-114.5"/>
<text text-anchor="middle" x="25" y="-121.5" font-family="FreeSans" font-size="10.00" fill="#000000">stdio.h</text>
</g>
<!-- Node13&#45;&gt;Node14 -->
<g id="edge16" class="edge">
<title>Node13&#45;&gt;Node14</title>
<path fill="none" stroke="#191970" d="M148.5283,-171.4408C123.8092,-162.0475 86.7647,-147.9706 59.6906,-137.6824"/>
<polygon fill="#191970" stroke="#191970" points="60.7995,-134.3597 50.2084,-134.0792 58.3129,-140.9032 60.7995,-134.3597"/>
</g>
<!-- Node15 -->
<g id="node15" class="node">
<title>Node15</title>
<polygon fill="none" stroke="#bfbfbf" points="232.5,-114.5 232.5,-134.5 277.5,-134.5 277.5,-114.5 232.5,-114.5"/>
<text text-anchor="middle" x="255" y="-121.5" font-family="FreeSans" font-size="10.00" fill="#000000">string</text>
</g>
<!-- Node13&#45;&gt;Node15 -->
<g id="edge17" class="edge">
<title>Node13&#45;&gt;Node15</title>
<path fill="none" stroke="#191970" d="M189.3024,-171.3095C201.2474,-162.7987 218.4945,-150.5102 232.3202,-140.6594"/>
<polygon fill="#191970" stroke="#191970" points="234.7082,-143.2555 240.8214,-134.6022 230.6462,-137.5545 234.7082,-143.2555"/>
</g>
<!-- Node16 -->
<g id="node16" class="node">
<title>Node16</title>
<polygon fill="none" stroke="#bfbfbf" points="68,-114.5 68,-134.5 118,-134.5 118,-114.5 68,-114.5"/>
<text text-anchor="middle" x="93" y="-121.5" font-family="FreeSans" font-size="10.00" fill="#000000">cstring</text>
</g>
<!-- Node13&#45;&gt;Node16 -->
<g id="edge18" class="edge">
<title>Node13&#45;&gt;Node16</title>
<path fill="none" stroke="#191970" d="M160.34,-171.3095C147.9798,-162.7177 130.0809,-150.2758 115.8429,-140.3786"/>
<polygon fill="#191970" stroke="#191970" points="117.7419,-137.4361 107.533,-134.6022 113.7464,-143.1839 117.7419,-137.4361"/>
</g>
<!-- Node17 -->
<g id="node17" class="node">
<title>Node17</title>
<polygon fill="none" stroke="#bfbfbf" points="136,-114.5 136,-134.5 214,-134.5 214,-114.5 136,-114.5"/>
<text text-anchor="middle" x="175" y="-121.5" font-family="FreeSans" font-size="10.00" fill="#000000">G4String.icc</text>
</g>
<!-- Node13&#45;&gt;Node17 -->
<g id="edge21" class="edge">
<title>Node13&#45;&gt;Node17</title>
<path fill="none" stroke="#191970" d="M175,-171.3095C175,-163.9335 175,-153.72 175,-144.715"/>
<polygon fill="#191970" stroke="#191970" points="178.5001,-144.6022 175,-134.6022 171.5001,-144.6023 178.5001,-144.6022"/>
</g>
<!-- Node19 -->
<g id="node19" class="node">
<title>Node19</title>
<polygon fill="none" stroke="#bfbfbf" points="933,-228.5 933,-248.5 977,-248.5 977,-228.5 933,-228.5"/>
<text text-anchor="middle" x="955" y="-235.5" font-family="FreeSans" font-size="10.00" fill="#000000">limits</text>
</g>
<!-- Node18&#45;&gt;Node19 -->
<g id="edge23" class="edge">
<title>Node18&#45;&gt;Node19</title>
<path fill="none" stroke="#191970" d="M915.5814,-285.3095C922.3389,-277.2851 931.9244,-265.9022 939.9509,-256.3708"/>
<polygon fill="#191970" stroke="#191970" points="942.7287,-258.5059 946.4929,-248.6022 937.3743,-253.9969 942.7287,-258.5059"/>
</g>
<!-- Node20 -->
<g id="node20" class="node">
<title>Node20</title>
<polygon fill="none" stroke="#bfbfbf" points="865.5,-228.5 865.5,-248.5 914.5,-248.5 914.5,-228.5 865.5,-228.5"/>
<text text-anchor="middle" x="890" y="-235.5" font-family="FreeSans" font-size="10.00" fill="#000000">climits</text>
</g>
<!-- Node18&#45;&gt;Node20 -->
<g id="edge24" class="edge">
<title>Node18&#45;&gt;Node20</title>
<path fill="none" stroke="#191970" d="M903.9607,-285.3095C901.7367,-277.8524 898.6477,-267.4951 895.9406,-258.4186"/>
<polygon fill="#191970" stroke="#191970" points="899.2251,-257.1848 893.0129,-248.6022 892.5171,-259.1855 899.2251,-257.1848"/>
</g>
<!-- Node21&#45;&gt;Node7 -->
<g id="edge26" class="edge">
<title>Node21&#45;&gt;Node7</title>
<path fill="none" stroke="#191970" d="M659.1185,-228.4408C676.9972,-219.5014 703.3596,-206.3202 723.6009,-196.1996"/>
<polygon fill="#191970" stroke="#191970" points="725.3202,-199.2531 732.6992,-191.6504 722.1896,-192.9921 725.3202,-199.2531"/>
</g>
<!-- Node21&#45;&gt;Node13 -->
<g id="edge27" class="edge">
<title>Node21&#45;&gt;Node13</title>
<path fill="none" stroke="#191970" d="M590.8366,-229.3884C587.8499,-228.8977 584.8862,-228.4302 582,-228 453.0098,-208.7737 299.9823,-193.2323 223.5383,-185.9617"/>
<polygon fill="#191970" stroke="#191970" points="223.5555,-182.4478 213.2705,-184.9911 222.8968,-189.4167 223.5555,-182.4478"/>
</g>
<!-- Node22 -->
<g id="node22" class="node">
<title>Node22</title>
<g id="a_node22"><a xlink:href="../../d9/d05/G4VExceptionHandler_8hh.html" target="_top" xlink:title="G4VExceptionHandler.hh">
<polygon fill="none" stroke="#000000" points="524,-171.5 524,-191.5 666,-191.5 666,-171.5 524,-171.5"/>
<text text-anchor="middle" x="595" y="-178.5" font-family="FreeSans" font-size="10.00" fill="#000000">G4VExceptionHandler.hh</text>
</a>
</g>
</g>
<!-- Node21&#45;&gt;Node22 -->
<g id="edge28" class="edge">
<title>Node21&#45;&gt;Node22</title>
<path fill="none" stroke="#191970" d="M631.1337,-228.3095C625.0019,-220.3661 616.3299,-209.1319 609.0184,-199.6602"/>
<polygon fill="#191970" stroke="#191970" points="611.6793,-197.3795 602.7982,-191.6022 606.1382,-201.6569 611.6793,-197.3795"/>
</g>
<!-- Node22&#45;&gt;Node8 -->
<g id="edge29" class="edge">
<title>Node22&#45;&gt;Node8</title>
<path fill="none" stroke="#191970" d="M609.3024,-171.3095C621.2474,-162.7987 638.4945,-150.5102 652.3202,-140.6594"/>
<polygon fill="#191970" stroke="#191970" points="654.7082,-143.2555 660.8214,-134.6022 650.6462,-137.5545 654.7082,-143.2555"/>
</g>
<!-- Node23 -->
<g id="node23" class="node">
<title>Node23</title>
<g id="a_node23"><a xlink:href="../../d6/d7e/G4ExceptionSeverity_8hh.html" target="_top" xlink:title="G4ExceptionSeverity.hh">
<polygon fill="none" stroke="#000000" points="446,-114.5 446,-134.5 582,-134.5 582,-114.5 446,-114.5"/>
<text text-anchor="middle" x="514" y="-121.5" font-family="FreeSans" font-size="10.00" fill="#000000">G4ExceptionSeverity.hh</text>
</a>
</g>
</g>
<!-- Node22&#45;&gt;Node23 -->
<g id="edge30" class="edge">
<title>Node22&#45;&gt;Node23</title>
<path fill="none" stroke="#191970" d="M580.5188,-171.3095C568.3093,-162.7177 550.6287,-150.2758 536.5643,-140.3786"/>
<polygon fill="#191970" stroke="#191970" points="538.5481,-137.4949 528.3558,-134.6022 534.5196,-143.2195 538.5481,-137.4949"/>
</g>
<!-- Node24&#45;&gt;Node2 -->
<g id="edge35" class="edge">
<title>Node24&#45;&gt;Node2</title>
<path fill="none" stroke="#191970" d="M402.3067,-287.0069C345.2594,-279.1284 261.174,-266.0553 189,-249 187.5345,-248.6537 186.0399,-248.2781 184.5349,-247.8821"/>
<polygon fill="#191970" stroke="#191970" points="185.2292,-244.4406 174.6527,-245.0624 183.3086,-251.1719 185.2292,-244.4406"/>
</g>
<!-- Node24&#45;&gt;Node4 -->
<g id="edge36" class="edge">
<title>Node24&#45;&gt;Node4</title>
<path fill="none" stroke="#191970" d="M535.6644,-287.0648C599.1278,-278.3521 689.6142,-263.954 722,-249 758.4252,-232.1808 773.712,-227.7103 792,-192 799.4313,-177.4892 799.9771,-158.8578 798.9209,-144.8468"/>
<polygon fill="#191970" stroke="#191970" points="802.3859,-144.3338 797.8314,-134.7679 795.4265,-145.0861 802.3859,-144.3338"/>
</g>
<!-- Node24&#45;&gt;Node7 -->
<g id="edge39" class="edge">
<title>Node24&#45;&gt;Node7</title>
<path fill="none" stroke="#191970" d="M535.7086,-286.768C592.6292,-278.4289 669.3652,-264.8138 696,-249 715.8778,-237.198 732.1071,-215.8959 742.0939,-200.3707"/>
<polygon fill="#191970" stroke="#191970" points="745.2364,-201.9413 747.4822,-191.5872 739.2697,-198.2809 745.2364,-201.9413"/>
</g>
<!-- Node24&#45;&gt;Node13 -->
<g id="edge40" class="edge">
<title>Node24&#45;&gt;Node13</title>
<path fill="none" stroke="#191970" d="M402.4113,-288.0674C341.2147,-280.2847 255.7764,-266.7266 227,-249 208.017,-237.3063 193.362,-215.9849 184.5188,-200.4256"/>
<polygon fill="#191970" stroke="#191970" points="187.5998,-198.7651 179.7769,-191.62 181.4366,-202.084 187.5998,-198.7651"/>
</g>
<!-- Node24&#45;&gt;Node15 -->
<g id="edge33" class="edge">
<title>Node24&#45;&gt;Node15</title>
<path fill="none" stroke="#191970" d="M402.2472,-289.4147C348.1665,-282.9673 278.0834,-270.6442 260,-249 235.4981,-219.6734 242.4316,-171.5341 249.0828,-144.5122"/>
<polygon fill="#191970" stroke="#191970" points="252.5178,-145.2159 251.7329,-134.6502 245.7576,-143.3993 252.5178,-145.2159"/>
</g>
<!-- Node24&#45;&gt;Node21 -->
<g id="edge41" class="edge">
<title>Node24&#45;&gt;Node21</title>
<path fill="none" stroke="#191970" d="M499.0013,-285.4408C526.9548,-276.0681 568.8159,-262.0323 599.4819,-251.7502"/>
<polygon fill="#191970" stroke="#191970" points="600.6447,-255.0519 609.0132,-248.5544 598.4193,-248.415 600.6447,-255.0519"/>
</g>
<!-- Node24&#45;&gt;Node23 -->
<g id="edge42" class="edge">
<title>Node24&#45;&gt;Node23</title>
<path fill="none" stroke="#191970" d="M471.6802,-285.3153C478.9164,-257.8178 498.954,-181.6748 508.6318,-144.8993"/>
<polygon fill="#191970" stroke="#191970" points="512.1167,-145.4091 511.277,-134.8476 505.3472,-143.6276 512.1167,-145.4091"/>
</g>
<!-- Node25 -->
<g id="node25" class="node">
<title>Node25</title>
<polygon fill="none" stroke="#bfbfbf" points="523,-228.5 523,-248.5 573,-248.5 573,-228.5 523,-228.5"/>
<text text-anchor="middle" x="548" y="-235.5" font-family="FreeSans" font-size="10.00" fill="#000000">cstdlib</text>
</g>
<!-- Node24&#45;&gt;Node25 -->
<g id="edge32" class="edge">
<title>Node24&#45;&gt;Node25</title>
<path fill="none" stroke="#191970" d="M483.1236,-285.3095C494.9193,-276.7987 511.9508,-264.5102 525.6037,-254.6594"/>
<polygon fill="#191970" stroke="#191970" points="527.9371,-257.2918 533.9987,-248.6022 523.8412,-251.6151 527.9371,-257.2918"/>
</g>
<!-- Node26 -->
<g id="node26" class="node">
<title>Node26</title>
<polygon fill="none" stroke="#bfbfbf" points="269,-228.5 269,-248.5 325,-248.5 325,-228.5 269,-228.5"/>
<text text-anchor="middle" x="297" y="-235.5" font-family="FreeSans" font-size="10.00" fill="#000000">sstream</text>
</g>
<!-- Node24&#45;&gt;Node26 -->
<g id="edge34" class="edge">
<title>Node24&#45;&gt;Node26</title>
<path fill="none" stroke="#191970" d="M438.6458,-285.4408C409.6671,-275.8374 365.9161,-261.3385 334.7127,-250.9978"/>
<polygon fill="#191970" stroke="#191970" points="335.6507,-247.6215 325.0573,-247.7981 333.4486,-254.2662 335.6507,-247.6215"/>
</g>
<!-- Node27 -->
<g id="node27" class="node">
<title>Node27</title>
<polygon fill="none" stroke="#bfbfbf" points="343.5,-228.5 343.5,-248.5 400.5,-248.5 400.5,-228.5 343.5,-228.5"/>
<text text-anchor="middle" x="372" y="-235.5" font-family="FreeSans" font-size="10.00" fill="#000000">iomanip</text>
</g>
<!-- Node24&#45;&gt;Node27 -->
<g id="edge37" class="edge">
<title>Node24&#45;&gt;Node27</title>
<path fill="none" stroke="#191970" d="M451.6583,-285.3095C436.7612,-276.5556 415.0627,-263.8049 398.0728,-253.8211"/>
<polygon fill="#191970" stroke="#191970" points="399.5864,-250.651 389.1915,-248.6022 396.0399,-256.6862 399.5864,-250.651"/>
</g>
<!-- Node28 -->
<g id="node28" class="node">
<title>Node28</title>
<polygon fill="none" stroke="#bfbfbf" points="419,-228.5 419,-248.5 467,-248.5 467,-228.5 419,-228.5"/>
<text text-anchor="middle" x="443" y="-235.5" font-family="FreeSans" font-size="10.00" fill="#000000">mutex</text>
</g>
<!-- Node24&#45;&gt;Node28 -->
<g id="edge38" class="edge">
<title>Node24&#45;&gt;Node28</title>
<path fill="none" stroke="#191970" d="M464.3517,-285.3095C460.8763,-277.6903 456.0198,-267.0435 451.8165,-257.8285"/>
<polygon fill="#191970" stroke="#191970" points="454.9425,-256.2479 447.608,-248.6022 448.5738,-259.153 454.9425,-256.2479"/>
</g>
</g>
</svg>
