<?xml version="1.0" encoding="UTF-8" standalone="no"?>
<!DOCTYPE svg PUBLIC "-//W3C//DTD SVG 1.1//EN"
 "http://www.w3.org/Graphics/SVG/1.1/DTD/svg11.dtd">
<!-- Generated by graphviz version 2.40.1 (20161225.0304)
 -->
<!-- Title: G4ReflectionFactory::GetConstituentLV Pages: 1 -->
<svg width="1860pt" height="445pt"
 viewBox="0.00 0.00 1860.00 445.00" xmlns="http://www.w3.org/2000/svg" xmlns:xlink="http://www.w3.org/1999/xlink">
<g id="graph0" class="graph" transform="scale(1 1) rotate(0) translate(4 441)">
<title>G4ReflectionFactory::GetConstituentLV</title>
<!-- Node1 -->
<g id="node1" class="node">
<title>Node1</title>
<polygon fill="#bfbfbf" stroke="#000000" points="0,-170.5 0,-202.5 118,-202.5 118,-170.5 0,-170.5"/>
<text text-anchor="start" x="8" y="-189.5" font-family="FreeSans" font-size="10.00" fill="#000000">G4ReflectionFactory</text>
<text text-anchor="middle" x="59" y="-177.5" font-family="FreeSans" font-size="10.00" fill="#000000">::GetConstituentLV</text>
</g>
<!-- Node2 -->
<g id="node2" class="node">
<title>Node2</title>
<g id="a_node2"><a xlink:href="../../d2/d72/classPHG4GDMLWriteStructure.html#af46624d56ade5ec0eb4bc5cb3d497387" target="_top" xlink:title="PHG4GDMLWriteStructure\l::PhysvolWrite">
<polygon fill="none" stroke="#000000" points="154,-260.5 154,-292.5 300,-292.5 300,-260.5 154,-260.5"/>
<text text-anchor="start" x="162" y="-279.5" font-family="FreeSans" font-size="10.00" fill="#000000">PHG4GDMLWriteStructure</text>
<text text-anchor="middle" x="227" y="-267.5" font-family="FreeSans" font-size="10.00" fill="#000000">::PhysvolWrite</text>
</a>
</g>
</g>
<!-- Node1&#45;&gt;Node2 -->
<g id="edge1" class="edge">
<title>Node1&#45;&gt;Node2</title>
<path fill="none" stroke="#191970" d="M91.0447,-208.1238C109.1306,-219.8857 132.3781,-234.28 154,-245.5 164.1438,-250.7638 175.3836,-255.8731 185.9424,-260.3746"/>
<polygon fill="#191970" stroke="#191970" points="92.8909,-205.149 82.6105,-202.5867 89.0492,-211.0007 92.8909,-205.149"/>
</g>
<!-- Node3 -->
<g id="node3" class="node">
<title>Node3</title>
<g id="a_node3"><a xlink:href="../../d2/d72/classPHG4GDMLWriteStructure.html#a957c6f2d283732660e3eb9c41b982048" target="_top" xlink:title="PHG4GDMLWriteStructure\l::TraverseVolumeTree">
<polygon fill="none" stroke="#000000" points="336,-269.5 336,-301.5 482,-301.5 482,-269.5 336,-269.5"/>
<text text-anchor="start" x="344" y="-288.5" font-family="FreeSans" font-size="10.00" fill="#000000">PHG4GDMLWriteStructure</text>
<text text-anchor="middle" x="409" y="-276.5" font-family="FreeSans" font-size="10.00" fill="#000000">::TraverseVolumeTree</text>
</a>
</g>
</g>
<!-- Node1&#45;&gt;Node3 -->
<g id="edge57" class="edge">
<title>Node1&#45;&gt;Node3</title>
<path fill="none" stroke="#191970" d="M71.1424,-211.9258C86.1606,-240.0534 114.6468,-283.8626 154,-302.5 221.1666,-334.3096 309.606,-317.2156 362.7265,-301.5951"/>
<polygon fill="#191970" stroke="#191970" points="74.0824,-209.9897 66.3962,-202.6977 67.8575,-213.1913 74.0824,-209.9897"/>
</g>
<!-- Node4 -->
<g id="node4" class="node">
<title>Node4</title>
<g id="a_node4"><a xlink:href="../../d4/ded/classG4GDMLWriteStructure.html#ab84e61081ec2719794c8dd4b2bc9ef52" target="_top" xlink:title="G4GDMLWriteStructure\l::PhysvolWrite">
<polygon fill="none" stroke="#000000" points="160.5,-170.5 160.5,-202.5 293.5,-202.5 293.5,-170.5 160.5,-170.5"/>
<text text-anchor="start" x="168.5" y="-189.5" font-family="FreeSans" font-size="10.00" fill="#000000">G4GDMLWriteStructure</text>
<text text-anchor="middle" x="227" y="-177.5" font-family="FreeSans" font-size="10.00" fill="#000000">::PhysvolWrite</text>
</a>
</g>
</g>
<!-- Node1&#45;&gt;Node4 -->
<g id="edge3" class="edge">
<title>Node1&#45;&gt;Node4</title>
<path fill="none" stroke="#191970" d="M128.2589,-186.5C138.8457,-186.5 149.7548,-186.5 160.2852,-186.5"/>
<polygon fill="#191970" stroke="#191970" points="128.2306,-183.0001 118.2305,-186.5 128.2305,-190.0001 128.2306,-183.0001"/>
</g>
<!-- Node5 -->
<g id="node5" class="node">
<title>Node5</title>
<g id="a_node5"><a xlink:href="../../d4/ded/classG4GDMLWriteStructure.html#ad618893f498c97f395b97738cb75a0a6" target="_top" xlink:title="G4GDMLWriteStructure\l::TraverseVolumeTree">
<polygon fill="none" stroke="#000000" points="342.5,-205.5 342.5,-237.5 475.5,-237.5 475.5,-205.5 342.5,-205.5"/>
<text text-anchor="start" x="350.5" y="-224.5" font-family="FreeSans" font-size="10.00" fill="#000000">G4GDMLWriteStructure</text>
<text text-anchor="middle" x="409" y="-212.5" font-family="FreeSans" font-size="10.00" fill="#000000">::TraverseVolumeTree</text>
</a>
</g>
</g>
<!-- Node1&#45;&gt;Node5 -->
<g id="edge58" class="edge">
<title>Node1&#45;&gt;Node5</title>
<path fill="none" stroke="#191970" d="M119.2169,-205.2299C130.6665,-208.1484 142.6251,-210.7668 154,-212.5 217.3903,-222.159 290.6213,-223.7725 342.298,-223.3506"/>
<polygon fill="#191970" stroke="#191970" points="119.8768,-201.7839 109.3137,-202.6026 118.0818,-208.5499 119.8768,-201.7839"/>
</g>
<!-- Node7 -->
<g id="node7" class="node">
<title>Node7</title>
<g id="a_node7"><a xlink:href="../../d1/db6/classG4ReflectionFactory.html#ab563dd44a17c7c36a7d878e4e685bedf" target="_top" xlink:title="G4ReflectionFactory\l::ReflectPVDivision">
<polygon fill="none" stroke="#000000" points="168,-80.5 168,-112.5 286,-112.5 286,-80.5 168,-80.5"/>
<text text-anchor="start" x="176" y="-99.5" font-family="FreeSans" font-size="10.00" fill="#000000">G4ReflectionFactory</text>
<text text-anchor="middle" x="227" y="-87.5" font-family="FreeSans" font-size="10.00" fill="#000000">::ReflectPVDivision</text>
</a>
</g>
</g>
<!-- Node1&#45;&gt;Node7 -->
<g id="edge7" class="edge">
<title>Node1&#45;&gt;Node7</title>
<path fill="none" stroke="#191970" d="M91.0447,-164.8762C109.1306,-153.1143 132.3781,-138.72 154,-127.5 164.1438,-122.2362 175.3836,-117.1269 185.9424,-112.6254"/>
<polygon fill="#191970" stroke="#191970" points="89.0492,-161.9993 82.6105,-170.4133 92.8909,-167.851 89.0492,-161.9993"/>
</g>
<!-- Node42 -->
<g id="node42" class="node">
<title>Node42</title>
<g id="a_node42"><a xlink:href="../../d1/db6/classG4ReflectionFactory.html#a3f2d4406d56226ce5f9617c0ba71e3c7" target="_top" xlink:title="G4ReflectionFactory\l::ReflectPVPlacement">
<polygon fill="none" stroke="#000000" points="522.5,-131.5 522.5,-163.5 646.5,-163.5 646.5,-131.5 522.5,-131.5"/>
<text text-anchor="start" x="530.5" y="-150.5" font-family="FreeSans" font-size="10.00" fill="#000000">G4ReflectionFactory</text>
<text text-anchor="middle" x="584.5" y="-138.5" font-family="FreeSans" font-size="10.00" fill="#000000">::ReflectPVPlacement</text>
</a>
</g>
</g>
<!-- Node1&#45;&gt;Node42 -->
<g id="edge55" class="edge">
<title>Node1&#45;&gt;Node42</title>
<path fill="none" stroke="#191970" d="M121.1626,-168.0101C132.0222,-165.3936 143.2759,-163.0651 154,-161.5 284.0467,-142.5211 438.434,-143.0027 522.4483,-145.1697"/>
<polygon fill="#191970" stroke="#191970" points="120.173,-164.6499 111.3268,-170.4804 121.8782,-171.439 120.173,-164.6499"/>
</g>
<!-- Node43 -->
<g id="node43" class="node">
<title>Node43</title>
<g id="a_node43"><a xlink:href="../../d1/db6/classG4ReflectionFactory.html#a8c84426b00ba7769ef07ae869b1ab351" target="_top" xlink:title="G4ReflectionFactory\l::ReflectPVReplica">
<polygon fill="none" stroke="#000000" points="525.5,-29.5 525.5,-61.5 643.5,-61.5 643.5,-29.5 525.5,-29.5"/>
<text text-anchor="start" x="533.5" y="-48.5" font-family="FreeSans" font-size="10.00" fill="#000000">G4ReflectionFactory</text>
<text text-anchor="middle" x="584.5" y="-36.5" font-family="FreeSans" font-size="10.00" fill="#000000">::ReflectPVReplica</text>
</a>
</g>
</g>
<!-- Node1&#45;&gt;Node43 -->
<g id="edge56" class="edge">
<title>Node1&#45;&gt;Node43</title>
<path fill="none" stroke="#191970" d="M71.5882,-161.036C86.8535,-133.268 115.4113,-90.165 154,-70.5 274.2331,-9.2286 438.5778,-21.8458 525.3094,-34.6773"/>
<polygon fill="#191970" stroke="#191970" points="68.345,-159.681 66.7483,-170.1548 74.528,-162.9627 68.345,-159.681"/>
</g>
<!-- Node2&#45;&gt;Node3 -->
<g id="edge2" class="edge">
<title>Node2&#45;&gt;Node3</title>
<path fill="none" stroke="#191970" d="M310.2365,-280.6161C318.8043,-281.0398 327.4644,-281.468 335.9103,-281.8857"/>
<polygon fill="#191970" stroke="#191970" points="310.4003,-277.12 300.2397,-280.1217 310.0546,-284.1115 310.4003,-277.12"/>
</g>
<!-- Node4&#45;&gt;Node5 -->
<g id="edge4" class="edge">
<title>Node4&#45;&gt;Node5</title>
<path fill="none" stroke="#191970" d="M303.8729,-201.2832C316.6382,-203.7381 329.7838,-206.2661 342.2714,-208.6676"/>
<polygon fill="#191970" stroke="#191970" points="304.2177,-197.7855 293.7366,-199.334 302.8957,-204.6595 304.2177,-197.7855"/>
</g>
<!-- Node6 -->
<g id="node6" class="node">
<title>Node6</title>
<g id="a_node6"><a xlink:href="../../d4/ded/classG4GDMLWriteStructure.html#a7b590030f21824be91b222b540b9ad19" target="_top" xlink:title="G4GDMLWriteStructure\l::AssemblyWrite">
<polygon fill="none" stroke="#000000" points="518,-205.5 518,-237.5 651,-237.5 651,-205.5 518,-205.5"/>
<text text-anchor="start" x="526" y="-224.5" font-family="FreeSans" font-size="10.00" fill="#000000">G4GDMLWriteStructure</text>
<text text-anchor="middle" x="584.5" y="-212.5" font-family="FreeSans" font-size="10.00" fill="#000000">::AssemblyWrite</text>
</a>
</g>
</g>
<!-- Node5&#45;&gt;Node6 -->
<g id="edge5" class="edge">
<title>Node5&#45;&gt;Node6</title>
<path fill="none" stroke="#191970" d="M485.7846,-214.7971C496.5011,-214.7046 507.4393,-214.7483 517.9462,-214.9282"/>
<polygon fill="#191970" stroke="#191970" points="485.5536,-211.2996 475.5993,-214.9274 485.6433,-218.2991 485.5536,-211.2996"/>
</g>
<!-- Node6&#45;&gt;Node5 -->
<g id="edge6" class="edge">
<title>Node6&#45;&gt;Node5</title>
<path fill="none" stroke="#191970" d="M507.7617,-228.2025C497.0459,-228.2954 486.1074,-228.252 475.5993,-228.0726"/>
<polygon fill="#191970" stroke="#191970" points="507.992,-231.7 517.9462,-228.0718 507.9021,-224.7005 507.992,-231.7"/>
</g>
<!-- Node8 -->
<g id="node8" class="node">
<title>Node8</title>
<g id="a_node8"><a xlink:href="../../d1/db6/classG4ReflectionFactory.html#ab0c8b84cfa01a0a01dd8d11081e4930f" target="_top" xlink:title="G4ReflectionFactory\l::ReflectDaughters">
<polygon fill="none" stroke="#000000" points="350,-80.5 350,-112.5 468,-112.5 468,-80.5 350,-80.5"/>
<text text-anchor="start" x="358" y="-99.5" font-family="FreeSans" font-size="10.00" fill="#000000">G4ReflectionFactory</text>
<text text-anchor="middle" x="409" y="-87.5" font-family="FreeSans" font-size="10.00" fill="#000000">::ReflectDaughters</text>
</a>
</g>
</g>
<!-- Node7&#45;&gt;Node8 -->
<g id="edge8" class="edge">
<title>Node7&#45;&gt;Node8</title>
<path fill="none" stroke="#191970" d="M296.3312,-89.923C313.9884,-89.6361 332.8012,-89.706 349.8951,-90.1329"/>
<polygon fill="#191970" stroke="#191970" points="296.0162,-86.4287 286.0902,-90.1333 296.1599,-93.4272 296.0162,-86.4287"/>
</g>
<!-- Node8&#45;&gt;Node7 -->
<g id="edge54" class="edge">
<title>Node8&#45;&gt;Node7</title>
<path fill="none" stroke="#191970" d="M339.6536,-103.0772C321.9957,-103.364 303.183,-103.2938 286.0902,-102.8667"/>
<polygon fill="#191970" stroke="#191970" points="339.969,-106.5716 349.8951,-102.8671 339.8254,-99.573 339.969,-106.5716"/>
</g>
<!-- Node9 -->
<g id="node9" class="node">
<title>Node9</title>
<g id="a_node9"><a xlink:href="../../d1/db6/classG4ReflectionFactory.html#a0c1395c891eb72b362e4f8316d6e45b2" target="_top" xlink:title="G4ReflectionFactory\l::ReflectLV">
<polygon fill="none" stroke="#000000" points="525.5,-80.5 525.5,-112.5 643.5,-112.5 643.5,-80.5 525.5,-80.5"/>
<text text-anchor="start" x="533.5" y="-99.5" font-family="FreeSans" font-size="10.00" fill="#000000">G4ReflectionFactory</text>
<text text-anchor="middle" x="584.5" y="-87.5" font-family="FreeSans" font-size="10.00" fill="#000000">::ReflectLV</text>
</a>
</g>
</g>
<!-- Node8&#45;&gt;Node9 -->
<g id="edge9" class="edge">
<title>Node8&#45;&gt;Node9</title>
<path fill="none" stroke="#191970" d="M478.4918,-96.5C494.0322,-96.5 510.372,-96.5 525.443,-96.5"/>
<polygon fill="#191970" stroke="#191970" points="478.4163,-93.0001 468.4163,-96.5 478.4163,-100.0001 478.4163,-93.0001"/>
</g>
<!-- Node8&#45;&gt;Node42 -->
<g id="edge50" class="edge">
<title>Node8&#45;&gt;Node42</title>
<path fill="none" stroke="#191970" d="M478.2122,-109.9987C502.228,-116.6212 528.1848,-124.5099 548.4354,-131.4424"/>
<polygon fill="#191970" stroke="#191970" points="478.984,-106.5816 468.4163,-107.3393 477.15,-113.337 478.984,-106.5816"/>
</g>
<!-- Node8&#45;&gt;Node43 -->
<g id="edge52" class="edge">
<title>Node8&#45;&gt;Node43</title>
<path fill="none" stroke="#191970" d="M454.5387,-77.265C476.1806,-70.1446 502.3193,-62.4099 525.463,-56.238"/>
<polygon fill="#191970" stroke="#191970" points="453.3061,-73.9868 444.9385,-80.4855 455.5325,-80.6233 453.3061,-73.9868"/>
</g>
<!-- Node10 -->
<g id="node10" class="node">
<title>Node10</title>
<g id="a_node10"><a xlink:href="../../d1/db6/classG4ReflectionFactory.html#a5207685994bad3fd96e31d403026d0a4" target="_top" xlink:title="G4ReflectionFactory\l::Place">
<polygon fill="none" stroke="#000000" points="687,-187.5 687,-219.5 805,-219.5 805,-187.5 687,-187.5"/>
<text text-anchor="start" x="695" y="-206.5" font-family="FreeSans" font-size="10.00" fill="#000000">G4ReflectionFactory</text>
<text text-anchor="middle" x="746" y="-194.5" font-family="FreeSans" font-size="10.00" fill="#000000">::Place</text>
</a>
</g>
</g>
<!-- Node9&#45;&gt;Node10 -->
<g id="edge10" class="edge">
<title>Node9&#45;&gt;Node10</title>
<path fill="none" stroke="#191970" d="M642.6811,-116.9535C645.5395,-118.3978 648.3288,-119.9139 651,-121.5 682.2852,-140.0767 713.1804,-169.3119 730.881,-187.3943"/>
<polygon fill="#191970" stroke="#191970" points="643.9171,-113.6673 633.3776,-112.5864 640.9427,-120.0039 643.9171,-113.6673"/>
</g>
<!-- Node37 -->
<g id="node37" class="node">
<title>Node37</title>
<g id="a_node37"><a xlink:href="../../d1/db6/classG4ReflectionFactory.html#af0e35a84b8ec5e960abfaa37431a0bca" target="_top" xlink:title="G4ReflectionFactory\l::Replicate">
<polygon fill="none" stroke="#000000" points="687,-80.5 687,-112.5 805,-112.5 805,-80.5 687,-80.5"/>
<text text-anchor="start" x="695" y="-99.5" font-family="FreeSans" font-size="10.00" fill="#000000">G4ReflectionFactory</text>
<text text-anchor="middle" x="746" y="-87.5" font-family="FreeSans" font-size="10.00" fill="#000000">::Replicate</text>
</a>
</g>
</g>
<!-- Node9&#45;&gt;Node37 -->
<g id="edge42" class="edge">
<title>Node9&#45;&gt;Node37</title>
<path fill="none" stroke="#191970" d="M653.7244,-96.5C664.7341,-96.5 676.0356,-96.5 686.7876,-96.5"/>
<polygon fill="#191970" stroke="#191970" points="653.7196,-93.0001 643.7196,-96.5 653.7196,-100.0001 653.7196,-93.0001"/>
</g>
<!-- Node40 -->
<g id="node40" class="node">
<title>Node40</title>
<g id="a_node40"><a xlink:href="../../d1/db6/classG4ReflectionFactory.html#a279ee3fba0b2c3d21818b1a52f32a22e" target="_top" xlink:title="G4ReflectionFactory\l::Divide">
<polygon fill="none" stroke="#000000" points="687,-10.5 687,-42.5 805,-42.5 805,-10.5 687,-10.5"/>
<text text-anchor="start" x="695" y="-29.5" font-family="FreeSans" font-size="10.00" fill="#000000">G4ReflectionFactory</text>
<text text-anchor="middle" x="746" y="-17.5" font-family="FreeSans" font-size="10.00" fill="#000000">::Divide</text>
</a>
</g>
</g>
<!-- Node9&#45;&gt;Node40 -->
<g id="edge47" class="edge">
<title>Node9&#45;&gt;Node40</title>
<path fill="none" stroke="#191970" d="M636.3802,-76.5707C641.3378,-74.5598 646.2753,-72.5156 651,-70.5 671.5637,-61.7276 694.2978,-51.2275 712.3694,-42.685"/>
<polygon fill="#191970" stroke="#191970" points="634.8531,-73.412 626.8722,-80.3802 637.4566,-79.9098 634.8531,-73.412"/>
</g>
<!-- Node11 -->
<g id="node11" class="node">
<title>Node11</title>
<g id="a_node11"><a xlink:href="../../dc/d5b/classDetectorConstruction.html#a76ad70d248fc275a1abad1b9d4e2aba2" target="_top" xlink:title="DetectorConstruction\l::PlaceWithReflections">
<polygon fill="none" stroke="#000000" points="871,-354.5 871,-386.5 999,-386.5 999,-354.5 871,-354.5"/>
<text text-anchor="start" x="879" y="-373.5" font-family="FreeSans" font-size="10.00" fill="#000000">DetectorConstruction</text>
<text text-anchor="middle" x="935" y="-361.5" font-family="FreeSans" font-size="10.00" fill="#000000">::PlaceWithReflections</text>
</a>
</g>
</g>
<!-- Node10&#45;&gt;Node11 -->
<g id="edge11" class="edge">
<title>Node10&#45;&gt;Node11</title>
<path fill="none" stroke="#191970" d="M756.2951,-229.1394C770.5142,-261.2442 799.2308,-315.6456 841,-345.5 849.7925,-351.7844 860.0638,-356.4891 870.5249,-360.0112"/>
<polygon fill="#191970" stroke="#191970" points="759.509,-227.7531 752.3493,-219.9434 753.0761,-230.5133 759.509,-227.7531"/>
</g>
<!-- Node12 -->
<g id="node12" class="node">
<title>Node12</title>
<g id="a_node12"><a xlink:href="../../dc/de1/classG02DetectorConstruction.html#a4ee0ba9d1650717e709bd144dd7fa3c2" target="_top" xlink:title="G02DetectorConstruction\l::ConstructDetector">
<polygon fill="none" stroke="#000000" points="862.5,-252.5 862.5,-284.5 1007.5,-284.5 1007.5,-252.5 862.5,-252.5"/>
<text text-anchor="start" x="870.5" y="-271.5" font-family="FreeSans" font-size="10.00" fill="#000000">G02DetectorConstruction</text>
<text text-anchor="middle" x="935" y="-259.5" font-family="FreeSans" font-size="10.00" fill="#000000">::ConstructDetector</text>
</a>
</g>
</g>
<!-- Node10&#45;&gt;Node12 -->
<g id="edge12" class="edge">
<title>Node10&#45;&gt;Node12</title>
<path fill="none" stroke="#191970" d="M799.9402,-223.0703C813.3331,-227.8562 827.6696,-232.9173 841,-237.5 855.463,-242.4721 871.2309,-247.7338 885.6485,-252.4829"/>
<polygon fill="#191970" stroke="#191970" points="800.9772,-219.724 790.3827,-219.6448 798.6154,-226.3136 800.9772,-219.724"/>
</g>
<!-- Node14 -->
<g id="node14" class="node">
<title>Node14</title>
<g id="a_node14"><a xlink:href="../../dc/db4/classG3Division.html#a44142e56fb11fbd71846a624f78b39ea" target="_top" xlink:title="G3Division::CreatePVReplica">
<polygon fill="none" stroke="#000000" points="855,-96.5 855,-116.5 1015,-116.5 1015,-96.5 855,-96.5"/>
<text text-anchor="middle" x="935" y="-103.5" font-family="FreeSans" font-size="10.00" fill="#000000">G3Division::CreatePVReplica</text>
</a>
</g>
</g>
<!-- Node10&#45;&gt;Node14 -->
<g id="edge14" class="edge">
<title>Node10&#45;&gt;Node14</title>
<path fill="none" stroke="#191970" d="M770.6149,-180.5422C788.8145,-164.6948 814.8753,-144.2565 841,-131.5 854.05,-125.1278 868.9402,-120.2156 882.9617,-116.5015"/>
<polygon fill="#191970" stroke="#191970" points="767.9843,-178.1976 762.834,-187.4564 772.6341,-183.4302 767.9843,-178.1976"/>
</g>
<!-- Node15 -->
<g id="node15" class="node">
<title>Node15</title>
<g id="a_node15"><a xlink:href="../../db/dc6/G3toG4BuildTree_8cc.html#ae609dee46f3a937c027a40a164d4fa6f" target="_top" xlink:title="G3toG4BuildPVTree">
<polygon fill="none" stroke="#000000" points="1085,-154.5 1085,-174.5 1200,-174.5 1200,-154.5 1085,-154.5"/>
<text text-anchor="middle" x="1142.5" y="-161.5" font-family="FreeSans" font-size="10.00" fill="#000000">G3toG4BuildPVTree</text>
</a>
</g>
</g>
<!-- Node10&#45;&gt;Node15 -->
<g id="edge20" class="edge">
<title>Node10&#45;&gt;Node15</title>
<path fill="none" stroke="#191970" d="M815.1132,-210.3428C872.7531,-214.4778 956.8164,-216.8474 1029,-204.5 1062.1558,-198.8285 1098.4997,-184.4698 1120.9077,-174.5939"/>
<polygon fill="#191970" stroke="#191970" points="815.2599,-206.844 805.0249,-209.5817 814.7332,-213.8242 815.2599,-206.844"/>
</g>
<!-- Node19 -->
<g id="node19" class="node">
<title>Node19</title>
<g id="a_node19"><a xlink:href="../../d8/d10/classG4AssemblyVolume.html#ab9ef427884cd083a0124939598b1820c" target="_top" xlink:title="G4AssemblyVolume::MakeImprint">
<polygon fill="none" stroke="#000000" points="841,-174.5 841,-194.5 1029,-194.5 1029,-174.5 841,-174.5"/>
<text text-anchor="middle" x="935" y="-181.5" font-family="FreeSans" font-size="10.00" fill="#000000">G4AssemblyVolume::MakeImprint</text>
</a>
</g>
</g>
<!-- Node10&#45;&gt;Node19 -->
<g id="edge21" class="edge">
<title>Node10&#45;&gt;Node19</title>
<path fill="none" stroke="#191970" d="M815.067,-196.5568C823.4338,-195.7156 832.088,-194.8456 840.7395,-193.9759"/>
<polygon fill="#191970" stroke="#191970" points="814.6231,-193.0836 805.0234,-197.5664 815.3233,-200.0485 814.6231,-193.0836"/>
</g>
<!-- Node20 -->
<g id="node20" class="node">
<title>Node20</title>
<g id="a_node20"><a xlink:href="../../d1/d78/classG4tgbVolume.html#a0cc2371fc97f047c9f0ac69f791fd8f7" target="_top" xlink:title="G4tgbVolume::ConstructG4\lPhysVol">
<polygon fill="none" stroke="#000000" points="857.5,-303.5 857.5,-335.5 1012.5,-335.5 1012.5,-303.5 857.5,-303.5"/>
<text text-anchor="start" x="865.5" y="-322.5" font-family="FreeSans" font-size="10.00" fill="#000000">G4tgbVolume::ConstructG4</text>
<text text-anchor="middle" x="935" y="-310.5" font-family="FreeSans" font-size="10.00" fill="#000000">PhysVol</text>
</a>
</g>
</g>
<!-- Node10&#45;&gt;Node20 -->
<g id="edge22" class="edge">
<title>Node10&#45;&gt;Node20</title>
<path fill="none" stroke="#191970" d="M764.7567,-227.2798C782.3298,-247.989 810.4146,-277.3147 841,-294.5 847.036,-297.8915 853.5497,-300.8379 860.2333,-303.3948"/>
<polygon fill="#191970" stroke="#191970" points="767.4117,-224.9983 758.333,-219.5368 762.0243,-229.4678 767.4117,-224.9983"/>
</g>
<!-- Node31 -->
<g id="node31" class="node">
<title>Node31</title>
<g id="a_node31"><a xlink:href="../../d6/db8/classG4GDMLReadStructure.html#a58817826c555fe93dac9d415e9ea8746" target="_top" xlink:title="G4GDMLReadStructure\l::PhysvolRead">
<polygon fill="none" stroke="#000000" points="1076.5,-102.5 1076.5,-134.5 1208.5,-134.5 1208.5,-102.5 1076.5,-102.5"/>
<text text-anchor="start" x="1084.5" y="-121.5" font-family="FreeSans" font-size="10.00" fill="#000000">G4GDMLReadStructure</text>
<text text-anchor="middle" x="1142.5" y="-109.5" font-family="FreeSans" font-size="10.00" fill="#000000">::PhysvolRead</text>
</a>
</g>
</g>
<!-- Node10&#45;&gt;Node31 -->
<g id="edge35" class="edge">
<title>Node10&#45;&gt;Node31</title>
<path fill="none" stroke="#191970" d="M790.0506,-183.4738C805.8532,-176.937 823.9756,-170.1672 841,-165.5 920.4462,-143.7199 1014.6195,-131.0581 1076.3162,-124.4732"/>
<polygon fill="#191970" stroke="#191970" points="788.39,-180.3758 780.5415,-187.4929 791.1152,-186.8236 788.39,-180.3758"/>
</g>
<!-- Node13 -->
<g id="node13" class="node">
<title>Node13</title>
<g id="a_node13"><a xlink:href="../../dc/de1/classG02DetectorConstruction.html#a6ab49f12dcaf5c86f7e4436ed84ffeac" target="_top" xlink:title="G02DetectorConstruction\l::Construct">
<polygon fill="none" stroke="#000000" points="1070,-252.5 1070,-284.5 1215,-284.5 1215,-252.5 1070,-252.5"/>
<text text-anchor="start" x="1078" y="-271.5" font-family="FreeSans" font-size="10.00" fill="#000000">G02DetectorConstruction</text>
<text text-anchor="middle" x="1142.5" y="-259.5" font-family="FreeSans" font-size="10.00" fill="#000000">::Construct</text>
</a>
</g>
</g>
<!-- Node12&#45;&gt;Node13 -->
<g id="edge13" class="edge">
<title>Node12&#45;&gt;Node13</title>
<path fill="none" stroke="#191970" d="M1017.6499,-268.5C1034.9504,-268.5 1053.0682,-268.5 1069.9675,-268.5"/>
<polygon fill="#191970" stroke="#191970" points="1017.5735,-265.0001 1007.5734,-268.5 1017.5734,-272.0001 1017.5735,-265.0001"/>
</g>
<!-- Node14&#45;&gt;Node15 -->
<g id="edge15" class="edge">
<title>Node14&#45;&gt;Node15</title>
<path fill="none" stroke="#191970" d="M977.9698,-119.4334C1003.2522,-126.9497 1035.8785,-136.4884 1065,-144.5 1077.1921,-147.8542 1090.5091,-151.3509 1102.6107,-154.465"/>
<polygon fill="#191970" stroke="#191970" points="978.8983,-116.058 968.3151,-116.5553 976.8985,-122.7663 978.8983,-116.058"/>
</g>
<!-- Node15&#45;&gt;Node15 -->
<g id="edge16" class="edge">
<title>Node15&#45;&gt;Node15</title>
<path fill="none" stroke="#191970" d="M1106.9143,-182.8999C1107.6767,-188.5602 1119.5386,-193 1142.5,-193 1175.8984,-193 1185.8136,-183.6067 1172.2455,-174.7271"/>
<polygon fill="#191970" stroke="#191970" points="1109.7881,-184.8982 1112.7545,-174.7271 1104.0928,-180.8283 1109.7881,-184.8982"/>
</g>
<!-- Node16 -->
<g id="node16" class="node">
<title>Node16</title>
<g id="a_node16"><a xlink:href="../../db/dc6/G3toG4BuildTree_8cc.html#a27b477588fa35e1bca9c57dfa4533808" target="_top" xlink:title="G3toG4BuildTree">
<polygon fill="none" stroke="#000000" points="1282.5,-154.5 1282.5,-174.5 1384.5,-174.5 1384.5,-154.5 1282.5,-154.5"/>
<text text-anchor="middle" x="1333.5" y="-161.5" font-family="FreeSans" font-size="10.00" fill="#000000">G3toG4BuildTree</text>
</a>
</g>
</g>
<!-- Node15&#45;&gt;Node16 -->
<g id="edge17" class="edge">
<title>Node15&#45;&gt;Node16</title>
<path fill="none" stroke="#191970" d="M1210.3796,-164.5C1234.0262,-164.5 1260.1446,-164.5 1282.2184,-164.5"/>
<polygon fill="#191970" stroke="#191970" points="1210.0653,-161.0001 1200.0653,-164.5 1210.0653,-168.0001 1210.0653,-161.0001"/>
</g>
<!-- Node17 -->
<g id="node17" class="node">
<title>Node17</title>
<g id="a_node17"><a xlink:href="../../d6/db0/G4BuildGeom_8cc.html#a5ef3604b39aaad1dca7e8eb2c1409a18" target="_top" xlink:title="G4BuildGeom">
<polygon fill="none" stroke="#000000" points="1507,-154.5 1507,-174.5 1593,-174.5 1593,-154.5 1507,-154.5"/>
<text text-anchor="middle" x="1550" y="-161.5" font-family="FreeSans" font-size="10.00" fill="#000000">G4BuildGeom</text>
</a>
</g>
</g>
<!-- Node16&#45;&gt;Node17 -->
<g id="edge18" class="edge">
<title>Node16&#45;&gt;Node17</title>
<path fill="none" stroke="#191970" d="M1394.8618,-164.5C1430.6425,-164.5 1474.895,-164.5 1506.9687,-164.5"/>
<polygon fill="#191970" stroke="#191970" points="1394.5334,-161.0001 1384.5333,-164.5 1394.5333,-168.0001 1394.5334,-161.0001"/>
</g>
<!-- Node18 -->
<g id="node18" class="node">
<title>Node18</title>
<g id="a_node18"><a xlink:href="../../de/dc0/classG3toG4DetectorConstruction.html#a6098fdedd69e0932d14e8f33588817ea" target="_top" xlink:title="G3toG4DetectorConstruction\l::Construct">
<polygon fill="none" stroke="#000000" points="1689,-148.5 1689,-180.5 1852,-180.5 1852,-148.5 1689,-148.5"/>
<text text-anchor="start" x="1697" y="-167.5" font-family="FreeSans" font-size="10.00" fill="#000000">G3toG4DetectorConstruction</text>
<text text-anchor="middle" x="1770.5" y="-155.5" font-family="FreeSans" font-size="10.00" fill="#000000">::Construct</text>
</a>
</g>
</g>
<!-- Node17&#45;&gt;Node18 -->
<g id="edge19" class="edge">
<title>Node17&#45;&gt;Node18</title>
<path fill="none" stroke="#191970" d="M1603.2844,-164.5C1628.9068,-164.5 1660.1888,-164.5 1688.7354,-164.5"/>
<polygon fill="#191970" stroke="#191970" points="1603.0381,-161.0001 1593.0381,-164.5 1603.038,-168.0001 1603.0381,-161.0001"/>
</g>
<!-- Node21 -->
<g id="node21" class="node">
<title>Node21</title>
<g id="a_node21"><a xlink:href="../../d1/d78/classG4tgbVolume.html#a914b6aefd21c8a951b8d863b12170f61" target="_top" xlink:title="G4tgbVolume::ConstructG4\lVolumes">
<polygon fill="none" stroke="#000000" points="1065,-303.5 1065,-335.5 1220,-335.5 1220,-303.5 1065,-303.5"/>
<text text-anchor="start" x="1073" y="-322.5" font-family="FreeSans" font-size="10.00" fill="#000000">G4tgbVolume::ConstructG4</text>
<text text-anchor="middle" x="1142.5" y="-310.5" font-family="FreeSans" font-size="10.00" fill="#000000">Volumes</text>
</a>
</g>
</g>
<!-- Node20&#45;&gt;Node21 -->
<g id="edge23" class="edge">
<title>Node20&#45;&gt;Node21</title>
<path fill="none" stroke="#191970" d="M1022.6432,-312.8228C1036.6076,-312.6956 1050.9711,-312.7351 1064.6881,-312.9411"/>
<polygon fill="#191970" stroke="#191970" points="1022.5173,-309.324 1012.5604,-312.9449 1022.6021,-316.3235 1022.5173,-309.324"/>
</g>
<!-- Node21&#45;&gt;Node20 -->
<g id="edge34" class="edge">
<title>Node21&#45;&gt;Node20</title>
<path fill="none" stroke="#191970" d="M1054.6007,-326.1795C1040.6314,-326.3046 1026.2695,-326.2632 1012.5604,-326.0551"/>
<polygon fill="#191970" stroke="#191970" points="1054.7307,-329.6783 1064.6881,-326.0589 1054.647,-322.6788 1054.7307,-329.6783"/>
</g>
<!-- Node21&#45;&gt;Node21 -->
<g id="edge33" class="edge">
<title>Node21&#45;&gt;Node21</title>
<path fill="none" stroke="#191970" d="M1109.0626,-346.0753C1113.4895,-350.7466 1124.6353,-354 1142.5,-354 1171.8164,-354 1183.0391,-345.2388 1176.1681,-335.8274"/>
<polygon fill="#191970" stroke="#191970" points="1112.5562,-345.7461 1108.8319,-335.8274 1105.5579,-345.9037 1112.5562,-345.7461"/>
</g>
<!-- Node22 -->
<g id="node22" class="node">
<title>Node22</title>
<g id="a_node22"><a xlink:href="../../d9/d6c/classG4tgbDetectorBuilder.html#aa7113e3f68d1d769caad5cfa89bc0244" target="_top" xlink:title="G4tgbDetectorBuilder\l::ConstructDetector">
<polygon fill="none" stroke="#000000" points="1269.5,-302.5 1269.5,-334.5 1397.5,-334.5 1397.5,-302.5 1269.5,-302.5"/>
<text text-anchor="start" x="1277.5" y="-321.5" font-family="FreeSans" font-size="10.00" fill="#000000">G4tgbDetectorBuilder</text>
<text text-anchor="middle" x="1333.5" y="-309.5" font-family="FreeSans" font-size="10.00" fill="#000000">::ConstructDetector</text>
</a>
</g>
</g>
<!-- Node21&#45;&gt;Node22 -->
<g id="edge24" class="edge">
<title>Node21&#45;&gt;Node22</title>
<path fill="none" stroke="#191970" d="M1230.2032,-319.0408C1243.374,-318.9719 1256.744,-318.9019 1269.3019,-318.8361"/>
<polygon fill="#191970" stroke="#191970" points="1230.1685,-315.5409 1220.187,-319.0933 1230.2052,-322.5408 1230.1685,-315.5409"/>
</g>
<!-- Node30 -->
<g id="node30" class="node">
<title>Node30</title>
<g id="a_node30"><a xlink:href="../../da/d27/classG4tgbDetectorConstruction.html#a7853d57e0b71d49746d04bc716d725c3" target="_top" xlink:title="G4tgbDetectorConstruction\l::Construct">
<polygon fill="none" stroke="#000000" points="1256,-353.5 1256,-385.5 1411,-385.5 1411,-353.5 1256,-353.5"/>
<text text-anchor="start" x="1264" y="-372.5" font-family="FreeSans" font-size="10.00" fill="#000000">G4tgbDetectorConstruction</text>
<text text-anchor="middle" x="1333.5" y="-360.5" font-family="FreeSans" font-size="10.00" fill="#000000">::Construct</text>
</a>
</g>
</g>
<!-- Node21&#45;&gt;Node30 -->
<g id="edge32" class="edge">
<title>Node21&#45;&gt;Node30</title>
<path fill="none" stroke="#191970" d="M1213.654,-338.1267C1232.9292,-343.1726 1253.6222,-348.5896 1272.2973,-353.4784"/>
<polygon fill="#191970" stroke="#191970" points="1214.2821,-334.6733 1203.7217,-335.5266 1212.5093,-341.4451 1214.2821,-334.6733"/>
</g>
<!-- Node23 -->
<g id="node23" class="node">
<title>Node23</title>
<g id="a_node23"><a xlink:href="../../db/df1/classExTGRCDetectorBuilder.html#a1ebdf86f4ee2d4d102c10e1dd5601de1" target="_top" xlink:title="ExTGRCDetectorBuilder\l::ConstructDetector">
<polygon fill="none" stroke="#000000" points="1482,-378.5 1482,-410.5 1618,-410.5 1618,-378.5 1482,-378.5"/>
<text text-anchor="start" x="1490" y="-397.5" font-family="FreeSans" font-size="10.00" fill="#000000">ExTGRCDetectorBuilder</text>
<text text-anchor="middle" x="1550" y="-385.5" font-family="FreeSans" font-size="10.00" fill="#000000">::ConstructDetector</text>
</a>
</g>
</g>
<!-- Node22&#45;&gt;Node23 -->
<g id="edge25" class="edge">
<title>Node22&#45;&gt;Node23</title>
<path fill="none" stroke="#191970" d="M1391.5111,-337.8097C1398.0914,-340.0452 1404.6953,-342.3088 1411,-344.5 1442.9761,-355.6134 1478.9327,-368.5596 1506.2634,-378.4937"/>
<polygon fill="#191970" stroke="#191970" points="1392.5188,-334.4558 1381.9245,-334.5663 1390.2754,-341.0866 1392.5188,-334.4558"/>
</g>
<!-- Node25 -->
<g id="node25" class="node">
<title>Node25</title>
<g id="a_node25"><a xlink:href="../../de/dd0/classG4tgbVolumeMgr.html#a93803d6bb5fccb055fae6c61d57cd701" target="_top" xlink:title="G4tgbVolumeMgr::ReadAndConstruct\lDetector">
<polygon fill="none" stroke="#000000" points="1447,-302.5 1447,-334.5 1653,-334.5 1653,-302.5 1447,-302.5"/>
<text text-anchor="start" x="1455" y="-321.5" font-family="FreeSans" font-size="10.00" fill="#000000">G4tgbVolumeMgr::ReadAndConstruct</text>
<text text-anchor="middle" x="1550" y="-309.5" font-family="FreeSans" font-size="10.00" fill="#000000">Detector</text>
</a>
</g>
</g>
<!-- Node22&#45;&gt;Node25 -->
<g id="edge27" class="edge">
<title>Node22&#45;&gt;Node25</title>
<path fill="none" stroke="#191970" d="M1407.9164,-318.5C1420.4314,-318.5 1433.6172,-318.5 1446.7062,-318.5"/>
<polygon fill="#191970" stroke="#191970" points="1407.5784,-315.0001 1397.5784,-318.5 1407.5784,-322.0001 1407.5784,-315.0001"/>
</g>
<!-- Node24 -->
<g id="node24" class="node">
<title>Node24</title>
<g id="a_node24"><a xlink:href="../../d2/df7/classExTGDetectorConstructionWithCuts.html#abf59f7df480dc283c3c0db9ff401dd01" target="_top" xlink:title="ExTGDetectorConstruction\lWithCuts::Construct">
<polygon fill="none" stroke="#000000" points="1695.5,-404.5 1695.5,-436.5 1845.5,-436.5 1845.5,-404.5 1695.5,-404.5"/>
<text text-anchor="start" x="1703.5" y="-423.5" font-family="FreeSans" font-size="10.00" fill="#000000">ExTGDetectorConstruction</text>
<text text-anchor="middle" x="1770.5" y="-411.5" font-family="FreeSans" font-size="10.00" fill="#000000">WithCuts::Construct</text>
</a>
</g>
</g>
<!-- Node23&#45;&gt;Node24 -->
<g id="edge26" class="edge">
<title>Node23&#45;&gt;Node24</title>
<path fill="none" stroke="#191970" d="M1628.4358,-403.7487C1650.1763,-406.3122 1673.7219,-409.0885 1695.2746,-411.6299"/>
<polygon fill="#191970" stroke="#191970" points="1628.5986,-400.2437 1618.2575,-402.5485 1627.7788,-407.1955 1628.5986,-400.2437"/>
</g>
<!-- Node26 -->
<g id="node26" class="node">
<title>Node26</title>
<g id="a_node26"><a xlink:href="../../de/d16/classEICG4dRICHDetector.html#adba1c475f57b8c1a9491350a9efc99af" target="_top" xlink:title="construct">
<polygon fill="none" stroke="#000000" points="1709.5,-302.5 1709.5,-334.5 1831.5,-334.5 1831.5,-302.5 1709.5,-302.5"/>
<text text-anchor="start" x="1717.5" y="-321.5" font-family="FreeSans" font-size="10.00" fill="#000000">EICG4dRICHDetector</text>
<text text-anchor="middle" x="1770.5" y="-309.5" font-family="FreeSans" font-size="10.00" fill="#000000">::ConstructMe</text>
</a>
</g>
</g>
<!-- Node25&#45;&gt;Node26 -->
<g id="edge28" class="edge">
<title>Node25&#45;&gt;Node26</title>
<path fill="none" stroke="#191970" d="M1663.5552,-318.5C1679.3926,-318.5 1695.139,-318.5 1709.4856,-318.5"/>
<polygon fill="#191970" stroke="#191970" points="1663.1484,-315.0001 1653.1484,-318.5 1663.1484,-322.0001 1663.1484,-315.0001"/>
</g>
<!-- Node27 -->
<g id="node27" class="node">
<title>Node27</title>
<g id="a_node27"><a xlink:href="../../d1/d9e/classExTGDetectorConstruction.html#ad1890aaa7d14667f91da538a415f2f6f" target="_top" xlink:title="ExTGDetectorConstruction\l::Construct">
<polygon fill="none" stroke="#000000" points="1695.5,-251.5 1695.5,-283.5 1845.5,-283.5 1845.5,-251.5 1695.5,-251.5"/>
<text text-anchor="start" x="1703.5" y="-270.5" font-family="FreeSans" font-size="10.00" fill="#000000">ExTGDetectorConstruction</text>
<text text-anchor="middle" x="1770.5" y="-258.5" font-family="FreeSans" font-size="10.00" fill="#000000">::Construct</text>
</a>
</g>
</g>
<!-- Node25&#45;&gt;Node27 -->
<g id="edge29" class="edge">
<title>Node25&#45;&gt;Node27</title>
<path fill="none" stroke="#191970" d="M1629.3681,-300.1428C1652.7967,-294.7239 1678.2491,-288.8369 1701.0055,-283.5736"/>
<polygon fill="#191970" stroke="#191970" points="1628.419,-296.7698 1619.4649,-302.4333 1629.9965,-303.5897 1628.419,-296.7698"/>
</g>
<!-- Node28 -->
<g id="node28" class="node">
<title>Node28</title>
<g id="a_node28"><a xlink:href="../../da/d45/classExTGDetectorConstructionWithCpp.html#ac70c77fdcf1806ced6b5132d801b37c5" target="_top" xlink:title="ExTGDetectorConstruction\lWithCpp::Construct">
<polygon fill="none" stroke="#000000" points="1695.5,-200.5 1695.5,-232.5 1845.5,-232.5 1845.5,-200.5 1695.5,-200.5"/>
<text text-anchor="start" x="1703.5" y="-219.5" font-family="FreeSans" font-size="10.00" fill="#000000">ExTGDetectorConstruction</text>
<text text-anchor="middle" x="1770.5" y="-207.5" font-family="FreeSans" font-size="10.00" fill="#000000">WithCpp::Construct</text>
</a>
</g>
</g>
<!-- Node25&#45;&gt;Node28 -->
<g id="edge30" class="edge">
<title>Node25&#45;&gt;Node28</title>
<path fill="none" stroke="#191970" d="M1584.7475,-297.0649C1612.3154,-280.6636 1652.2013,-258.2574 1689,-242.5 1697.3282,-238.9338 1706.3149,-235.5909 1715.1735,-232.5673"/>
<polygon fill="#191970" stroke="#191970" points="1582.6665,-294.2318 1575.8929,-302.3786 1586.2685,-300.234 1582.6665,-294.2318"/>
</g>
<!-- Node29 -->
<g id="node29" class="node">
<title>Node29</title>
<g id="a_node29"><a xlink:href="../../dd/d04/classExTGDetectorConstructionWithSD.html#a5c23eff76ef15a2939eb7dd855f544d1" target="_top" xlink:title="ExTGDetectorConstruction\lWithSD::Construct">
<polygon fill="none" stroke="#000000" points="1695.5,-353.5 1695.5,-385.5 1845.5,-385.5 1845.5,-353.5 1695.5,-353.5"/>
<text text-anchor="start" x="1703.5" y="-372.5" font-family="FreeSans" font-size="10.00" fill="#000000">ExTGDetectorConstruction</text>
<text text-anchor="middle" x="1770.5" y="-360.5" font-family="FreeSans" font-size="10.00" fill="#000000">WithSD::Construct</text>
</a>
</g>
</g>
<!-- Node25&#45;&gt;Node29 -->
<g id="edge31" class="edge">
<title>Node25&#45;&gt;Node29</title>
<path fill="none" stroke="#191970" d="M1629.3681,-336.8572C1652.7967,-342.2761 1678.2491,-348.1631 1701.0055,-353.4264"/>
<polygon fill="#191970" stroke="#191970" points="1629.9965,-333.4103 1619.4649,-334.5667 1628.419,-340.2302 1629.9965,-333.4103"/>
</g>
<!-- Node32 -->
<g id="node32" class="node">
<title>Node32</title>
<g id="a_node32"><a xlink:href="../../d6/db8/classG4GDMLReadStructure.html#a36d41595d6e4c1c44ba5f6064625b9e6" target="_top" xlink:title="G4GDMLReadStructure\l::AssemblyRead">
<polygon fill="none" stroke="#000000" points="1267.5,-102.5 1267.5,-134.5 1399.5,-134.5 1399.5,-102.5 1267.5,-102.5"/>
<text text-anchor="start" x="1275.5" y="-121.5" font-family="FreeSans" font-size="10.00" fill="#000000">G4GDMLReadStructure</text>
<text text-anchor="middle" x="1333.5" y="-109.5" font-family="FreeSans" font-size="10.00" fill="#000000">::AssemblyRead</text>
</a>
</g>
</g>
<!-- Node31&#45;&gt;Node32 -->
<g id="edge36" class="edge">
<title>Node31&#45;&gt;Node32</title>
<path fill="none" stroke="#191970" d="M1219.1338,-118.5C1235.1009,-118.5 1251.8007,-118.5 1267.3506,-118.5"/>
<polygon fill="#191970" stroke="#191970" points="1218.7665,-115.0001 1208.7665,-118.5 1218.7665,-122.0001 1218.7665,-115.0001"/>
</g>
<!-- Node34 -->
<g id="node34" class="node">
<title>Node34</title>
<g id="a_node34"><a xlink:href="../../d6/db8/classG4GDMLReadStructure.html#a27f2effadb9c1ba11233376174f72ab8" target="_top" xlink:title="G4GDMLReadStructure\l::Volume_contentRead">
<polygon fill="none" stroke="#000000" points="1267.5,-51.5 1267.5,-83.5 1399.5,-83.5 1399.5,-51.5 1267.5,-51.5"/>
<text text-anchor="start" x="1275.5" y="-70.5" font-family="FreeSans" font-size="10.00" fill="#000000">G4GDMLReadStructure</text>
<text text-anchor="middle" x="1333.5" y="-58.5" font-family="FreeSans" font-size="10.00" fill="#000000">::Volume_contentRead</text>
</a>
</g>
</g>
<!-- Node31&#45;&gt;Node34 -->
<g id="edge38" class="edge">
<title>Node31&#45;&gt;Node34</title>
<path fill="none" stroke="#191970" d="M1212.3385,-99.852C1232.3305,-94.5138 1253.9431,-88.7429 1273.303,-83.5736"/>
<polygon fill="#191970" stroke="#191970" points="1211.43,-96.4719 1202.6714,-102.4333 1213.2359,-103.235 1211.43,-96.4719"/>
</g>
<!-- Node33 -->
<g id="node33" class="node">
<title>Node33</title>
<g id="a_node33"><a xlink:href="../../d6/db8/classG4GDMLReadStructure.html#a28df8d1a09fc67d0dcfef924a0dedbef" target="_top" xlink:title="G4GDMLReadStructure\l::StructureRead">
<polygon fill="none" stroke="#000000" points="1704.5,-77.5 1704.5,-109.5 1836.5,-109.5 1836.5,-77.5 1704.5,-77.5"/>
<text text-anchor="start" x="1712.5" y="-96.5" font-family="FreeSans" font-size="10.00" fill="#000000">G4GDMLReadStructure</text>
<text text-anchor="middle" x="1770.5" y="-84.5" font-family="FreeSans" font-size="10.00" fill="#000000">::StructureRead</text>
</a>
</g>
</g>
<!-- Node32&#45;&gt;Node33 -->
<g id="edge37" class="edge">
<title>Node32&#45;&gt;Node33</title>
<path fill="none" stroke="#191970" d="M1410.0336,-114.1216C1493.3365,-109.356 1625.1863,-101.8131 1704.2219,-97.2917"/>
<polygon fill="#191970" stroke="#191970" points="1409.6546,-110.6375 1399.8709,-114.703 1410.0545,-117.6261 1409.6546,-110.6375"/>
</g>
<!-- Node35 -->
<g id="node35" class="node">
<title>Node35</title>
<g id="a_node35"><a xlink:href="../../d5/dfe/classG03ColorReader.html#a13aa26bc789bb503ce2e277d4035a49f" target="_top" xlink:title="G03ColorReader::VolumeRead">
<polygon fill="none" stroke="#000000" points="1465.5,-18.5 1465.5,-38.5 1634.5,-38.5 1634.5,-18.5 1465.5,-18.5"/>
<text text-anchor="middle" x="1550" y="-25.5" font-family="FreeSans" font-size="10.00" fill="#000000">G03ColorReader::VolumeRead</text>
</a>
</g>
</g>
<!-- Node34&#45;&gt;Node35 -->
<g id="edge39" class="edge">
<title>Node34&#45;&gt;Node35</title>
<path fill="none" stroke="#191970" d="M1409.7617,-53.7623C1437.6776,-48.7336 1468.7118,-43.1431 1494.4743,-38.5023"/>
<polygon fill="#191970" stroke="#191970" points="1408.8546,-50.3693 1399.6335,-55.5868 1410.0957,-57.2584 1408.8546,-50.3693"/>
</g>
<!-- Node36 -->
<g id="node36" class="node">
<title>Node36</title>
<g id="a_node36"><a xlink:href="../../d6/db8/classG4GDMLReadStructure.html#ad3d6d13740e8a033f6aa9743d96e9269" target="_top" xlink:title="G4GDMLReadStructure\l::VolumeRead">
<polygon fill="none" stroke="#000000" points="1484,-57.5 1484,-89.5 1616,-89.5 1616,-57.5 1484,-57.5"/>
<text text-anchor="start" x="1492" y="-76.5" font-family="FreeSans" font-size="10.00" fill="#000000">G4GDMLReadStructure</text>
<text text-anchor="middle" x="1550" y="-64.5" font-family="FreeSans" font-size="10.00" fill="#000000">::VolumeRead</text>
</a>
</g>
</g>
<!-- Node34&#45;&gt;Node36 -->
<g id="edge40" class="edge">
<title>Node34&#45;&gt;Node36</title>
<path fill="none" stroke="#191970" d="M1409.834,-69.6155C1434.0051,-70.2854 1460.5077,-71.0198 1483.8987,-71.6681"/>
<polygon fill="#191970" stroke="#191970" points="1409.7267,-66.1113 1399.6335,-69.3328 1409.5327,-73.1086 1409.7267,-66.1113"/>
</g>
<!-- Node36&#45;&gt;Node33 -->
<g id="edge41" class="edge">
<title>Node36&#45;&gt;Node33</title>
<path fill="none" stroke="#191970" d="M1626.1401,-80.4061C1651.602,-82.7156 1679.7563,-85.2693 1704.3894,-87.5036"/>
<polygon fill="#191970" stroke="#191970" points="1626.4326,-76.9184 1616.1573,-79.5007 1625.8002,-83.8898 1626.4326,-76.9184"/>
</g>
<!-- Node37&#45;&gt;Node14 -->
<g id="edge43" class="edge">
<title>Node37&#45;&gt;Node14</title>
<path fill="none" stroke="#191970" d="M815.2168,-100.1623C828.1344,-100.8457 841.7323,-101.5652 854.9444,-102.2643"/>
<polygon fill="#191970" stroke="#191970" points="815.1943,-96.6563 805.0234,-99.6229 814.8244,-103.6465 815.1943,-96.6563"/>
</g>
<!-- Node38 -->
<g id="node38" class="node">
<title>Node38</title>
<g id="a_node38"><a xlink:href="../../d6/db8/classG4GDMLReadStructure.html#a6b29831571b7705f1a52698da4415b9a" target="_top" xlink:title="G4GDMLReadStructure\l::ReplicaRead">
<polygon fill="none" stroke="#000000" points="869,-45.5 869,-77.5 1001,-77.5 1001,-45.5 869,-45.5"/>
<text text-anchor="start" x="877" y="-64.5" font-family="FreeSans" font-size="10.00" fill="#000000">G4GDMLReadStructure</text>
<text text-anchor="middle" x="935" y="-52.5" font-family="FreeSans" font-size="10.00" fill="#000000">::ReplicaRead</text>
</a>
</g>
</g>
<!-- Node37&#45;&gt;Node38 -->
<g id="edge44" class="edge">
<title>Node37&#45;&gt;Node38</title>
<path fill="none" stroke="#191970" d="M815.1774,-83.6894C832.7035,-80.4438 851.4842,-76.9659 868.856,-73.7489"/>
<polygon fill="#191970" stroke="#191970" points="814.2188,-80.3073 805.0234,-85.5697 815.4935,-87.1903 814.2188,-80.3073"/>
</g>
<!-- Node39 -->
<g id="node39" class="node">
<title>Node39</title>
<g id="a_node39"><a xlink:href="../../d6/db8/classG4GDMLReadStructure.html#abd04f087c3dfd6546a1ada60cfb8dded" target="_top" xlink:title="G4GDMLReadStructure\l::ReplicavolRead">
<polygon fill="none" stroke="#000000" points="1076.5,-51.5 1076.5,-83.5 1208.5,-83.5 1208.5,-51.5 1076.5,-51.5"/>
<text text-anchor="start" x="1084.5" y="-70.5" font-family="FreeSans" font-size="10.00" fill="#000000">G4GDMLReadStructure</text>
<text text-anchor="middle" x="1142.5" y="-58.5" font-family="FreeSans" font-size="10.00" fill="#000000">::ReplicavolRead</text>
</a>
</g>
</g>
<!-- Node38&#45;&gt;Node39 -->
<g id="edge45" class="edge">
<title>Node38&#45;&gt;Node39</title>
<path fill="none" stroke="#191970" d="M1011.4982,-63.712C1032.7285,-64.3259 1055.5973,-64.9872 1076.1926,-65.5827"/>
<polygon fill="#191970" stroke="#191970" points="1011.3218,-60.2055 1001.2248,-63.4149 1011.1194,-67.2026 1011.3218,-60.2055"/>
</g>
<!-- Node39&#45;&gt;Node34 -->
<g id="edge46" class="edge">
<title>Node39&#45;&gt;Node34</title>
<path fill="none" stroke="#191970" d="M1219.1338,-67.5C1235.1009,-67.5 1251.8007,-67.5 1267.3506,-67.5"/>
<polygon fill="#191970" stroke="#191970" points="1218.7665,-64.0001 1208.7665,-67.5 1218.7665,-71.0001 1218.7665,-64.0001"/>
</g>
<!-- Node41 -->
<g id="node41" class="node">
<title>Node41</title>
<g id="a_node41"><a xlink:href="../../d6/db8/classG4GDMLReadStructure.html#a9231fbdfd90ae64f5608686d7a1bfcc5" target="_top" xlink:title="G4GDMLReadStructure\l::DivisionvolRead">
<polygon fill="none" stroke="#000000" points="1076.5,-.5 1076.5,-32.5 1208.5,-32.5 1208.5,-.5 1076.5,-.5"/>
<text text-anchor="start" x="1084.5" y="-19.5" font-family="FreeSans" font-size="10.00" fill="#000000">G4GDMLReadStructure</text>
<text text-anchor="middle" x="1142.5" y="-7.5" font-family="FreeSans" font-size="10.00" fill="#000000">::DivisionvolRead</text>
</a>
</g>
</g>
<!-- Node40&#45;&gt;Node41 -->
<g id="edge48" class="edge">
<title>Node40&#45;&gt;Node41</title>
<path fill="none" stroke="#191970" d="M815.4513,-24.7484C888.9907,-22.8937 1004.2201,-19.9875 1076.4443,-18.166"/>
<polygon fill="#191970" stroke="#191970" points="815.2686,-21.2518 805.3601,-25.0029 815.4452,-28.2496 815.2686,-21.2518"/>
</g>
<!-- Node41&#45;&gt;Node34 -->
<g id="edge49" class="edge">
<title>Node41&#45;&gt;Node34</title>
<path fill="none" stroke="#191970" d="M1212.3385,-35.148C1232.3305,-40.4862 1253.9431,-46.2571 1273.303,-51.4264"/>
<polygon fill="#191970" stroke="#191970" points="1213.2359,-31.765 1202.6714,-32.5667 1211.43,-38.5281 1213.2359,-31.765"/>
</g>
<!-- Node42&#45;&gt;Node8 -->
<g id="edge51" class="edge">
<title>Node42&#45;&gt;Node8</title>
<path fill="none" stroke="#191970" d="M512.4693,-133.2208C489.2058,-126.751 464.4185,-119.1872 444.9385,-112.5145"/>
<polygon fill="#191970" stroke="#191970" points="511.7568,-136.6545 522.3262,-135.9208 513.6061,-129.9032 511.7568,-136.6545"/>
</g>
<!-- Node43&#45;&gt;Node8 -->
<g id="edge53" class="edge">
<title>Node43&#45;&gt;Node8</title>
<path fill="none" stroke="#191970" d="M538.8906,-64.7582C517.3808,-71.8333 491.4408,-79.5124 468.4163,-85.6607"/>
<polygon fill="#191970" stroke="#191970" points="540.067,-68.0553 548.4354,-61.5576 537.8415,-61.4185 540.067,-68.0553"/>
</g>
</g>
</svg>
