<?xml version="1.0" encoding="UTF-8" standalone="no"?>
<!DOCTYPE svg PUBLIC "-//W3C//DTD SVG 1.1//EN"
 "http://www.w3.org/Graphics/SVG/1.1/DTD/svg11.dtd">
<!-- Generated by graphviz version 2.40.1 (20161225.0304)
 -->
<!-- Title: G4ViewParameters::IsMarkerNotHidden Pages: 1 -->
<svg width="791pt" height="194pt"
 viewBox="0.00 0.00 791.00 194.00" xmlns="http://www.w3.org/2000/svg" xmlns:xlink="http://www.w3.org/1999/xlink">
<g id="graph0" class="graph" transform="scale(1 1) rotate(0) translate(4 190)">
<title>G4ViewParameters::IsMarkerNotHidden</title>
<!-- Node1 -->
<g id="node1" class="node">
<title>Node1</title>
<polygon fill="#bfbfbf" stroke="#000000" points="0,-76.5 0,-108.5 162,-108.5 162,-76.5 0,-76.5"/>
<text text-anchor="start" x="8" y="-95.5" font-family="FreeSans" font-size="10.00" fill="#000000">G4ViewParameters::IsMarker</text>
<text text-anchor="middle" x="81" y="-83.5" font-family="FreeSans" font-size="10.00" fill="#000000">NotHidden</text>
</g>
<!-- Node2 -->
<g id="node2" class="node">
<title>Node2</title>
<g id="a_node2"><a xlink:href="../../d5/d5e/classG4XXXSGViewer.html#a8ee0efc72fea8ad480976248e0936b4a" target="_top" xlink:title="G4XXXSGViewer::CompareFor\lKernelVisit">
<polygon fill="none" stroke="#000000" points="212.5,-153.5 212.5,-185.5 380.5,-185.5 380.5,-153.5 212.5,-153.5"/>
<text text-anchor="start" x="220.5" y="-172.5" font-family="FreeSans" font-size="10.00" fill="#000000">G4XXXSGViewer::CompareFor</text>
<text text-anchor="middle" x="296.5" y="-160.5" font-family="FreeSans" font-size="10.00" fill="#000000">KernelVisit</text>
</a>
</g>
</g>
<!-- Node1&#45;&gt;Node2 -->
<g id="edge1" class="edge">
<title>Node1&#45;&gt;Node2</title>
<path fill="none" stroke="#191970" d="M122.2764,-112.9049C144.3737,-123.2994 172.2696,-135.5891 198,-144.5 207.336,-147.7332 217.3009,-150.7482 227.1728,-153.4857"/>
<polygon fill="#191970" stroke="#191970" points="123.7184,-109.7151 113.1843,-108.5815 120.7123,-116.0368 123.7184,-109.7151"/>
</g>
<!-- Node5 -->
<g id="node5" class="node">
<title>Node5</title>
<g id="a_node5"><a xlink:href="../../d8/d9f/classG4XXXStoredViewer.html#a300b97723be55fd378c470e965cb0f74" target="_top" xlink:title="G4XXXStoredViewer::\lCompareForKernelVisit">
<polygon fill="none" stroke="#000000" points="230.5,-102.5 230.5,-134.5 362.5,-134.5 362.5,-102.5 230.5,-102.5"/>
<text text-anchor="start" x="238.5" y="-121.5" font-family="FreeSans" font-size="10.00" fill="#000000">G4XXXStoredViewer::</text>
<text text-anchor="middle" x="296.5" y="-109.5" font-family="FreeSans" font-size="10.00" fill="#000000">CompareForKernelVisit</text>
</a>
</g>
</g>
<!-- Node1&#45;&gt;Node5 -->
<g id="edge4" class="edge">
<title>Node1&#45;&gt;Node5</title>
<path fill="none" stroke="#191970" d="M172.3015,-103.5155C191.8425,-105.8731 212.1227,-108.3199 230.4891,-110.5358"/>
<polygon fill="#191970" stroke="#191970" points="172.5115,-100.0155 162.1642,-102.2924 171.673,-106.9651 172.5115,-100.0155"/>
</g>
<!-- Node8 -->
<g id="node8" class="node">
<title>Node8</title>
<g id="a_node8"><a xlink:href="../../dc/dc7/classG4VisCommandsViewerSet.html#a240e495aa7cbc48083fca180dd50e9cf" target="_top" xlink:title="G4VisCommandsViewerSet\l::SetNewValue">
<polygon fill="none" stroke="#000000" points="219.5,-51.5 219.5,-83.5 373.5,-83.5 373.5,-51.5 219.5,-51.5"/>
<text text-anchor="start" x="227.5" y="-70.5" font-family="FreeSans" font-size="10.00" fill="#000000">G4VisCommandsViewerSet</text>
<text text-anchor="middle" x="296.5" y="-58.5" font-family="FreeSans" font-size="10.00" fill="#000000">::SetNewValue</text>
</a>
</g>
</g>
<!-- Node1&#45;&gt;Node8 -->
<g id="edge7" class="edge">
<title>Node1&#45;&gt;Node8</title>
<path fill="none" stroke="#191970" d="M172.3584,-81.9016C187.9963,-80.0874 204.1059,-78.2186 219.3278,-76.4527"/>
<polygon fill="#191970" stroke="#191970" points="171.6943,-78.4551 162.1642,-83.0842 172.501,-85.4084 171.6943,-78.4551"/>
</g>
<!-- Node9 -->
<g id="node9" class="node">
<title>Node9</title>
<g id="a_node9"><a xlink:href="../../df/d01/classG4VisCommandDrawLogicalVolume.html#abfbffb206a03ce81324e83273e9ba2aa" target="_top" xlink:title="G4VisCommandDrawLogicalVolume\l::SetNewValue">
<polygon fill="none" stroke="#000000" points="198,-.5 198,-32.5 395,-32.5 395,-.5 198,-.5"/>
<text text-anchor="start" x="206" y="-19.5" font-family="FreeSans" font-size="10.00" fill="#000000">G4VisCommandDrawLogicalVolume</text>
<text text-anchor="middle" x="296.5" y="-7.5" font-family="FreeSans" font-size="10.00" fill="#000000">::SetNewValue</text>
</a>
</g>
</g>
<!-- Node1&#45;&gt;Node9 -->
<g id="edge8" class="edge">
<title>Node1&#45;&gt;Node9</title>
<path fill="none" stroke="#191970" d="M124.3533,-72.1832C146.1542,-62.4283 173.16,-51.0352 198,-42.5 208.3705,-38.9367 219.4952,-35.5743 230.4006,-32.5245"/>
<polygon fill="#191970" stroke="#191970" points="122.712,-69.084 115.0406,-76.3916 125.5947,-75.4629 122.712,-69.084"/>
</g>
<!-- Node3 -->
<g id="node3" class="node">
<title>Node3</title>
<g id="a_node3"><a xlink:href="../../d5/d5e/classG4XXXSGViewer.html#af8e4c3af31e215fa021a3788f3870147" target="_top" xlink:title="G4XXXSGViewer::KernelVisit\lDecision">
<polygon fill="none" stroke="#000000" points="431,-153.5 431,-185.5 591,-185.5 591,-153.5 431,-153.5"/>
<text text-anchor="start" x="439" y="-172.5" font-family="FreeSans" font-size="10.00" fill="#000000">G4XXXSGViewer::KernelVisit</text>
<text text-anchor="middle" x="511" y="-160.5" font-family="FreeSans" font-size="10.00" fill="#000000">Decision</text>
</a>
</g>
</g>
<!-- Node2&#45;&gt;Node3 -->
<g id="edge2" class="edge">
<title>Node2&#45;&gt;Node3</title>
<path fill="none" stroke="#191970" d="M390.8263,-169.5C404.208,-169.5 417.862,-169.5 430.9387,-169.5"/>
<polygon fill="#191970" stroke="#191970" points="390.6605,-166.0001 380.6604,-169.5 390.6604,-173.0001 390.6605,-166.0001"/>
</g>
<!-- Node4 -->
<g id="node4" class="node">
<title>Node4</title>
<g id="a_node4"><a xlink:href="../../d5/d5e/classG4XXXSGViewer.html#a95afca9c0544f6281fe262d56485b44b" target="_top" xlink:title="G4XXXSGViewer::DrawView">
<polygon fill="none" stroke="#000000" points="627,-159.5 627,-179.5 783,-179.5 783,-159.5 627,-159.5"/>
<text text-anchor="middle" x="705" y="-166.5" font-family="FreeSans" font-size="10.00" fill="#000000">G4XXXSGViewer::DrawView</text>
</a>
</g>
</g>
<!-- Node3&#45;&gt;Node4 -->
<g id="edge3" class="edge">
<title>Node3&#45;&gt;Node4</title>
<path fill="none" stroke="#191970" d="M601.0445,-169.5C609.62,-169.5 618.2684,-169.5 626.7196,-169.5"/>
<polygon fill="#191970" stroke="#191970" points="601.0273,-166.0001 591.0273,-169.5 601.0272,-173.0001 601.0273,-166.0001"/>
</g>
<!-- Node6 -->
<g id="node6" class="node">
<title>Node6</title>
<g id="a_node6"><a xlink:href="../../d8/d9f/classG4XXXStoredViewer.html#a90f64bb5b76cf033abff2a40f6d44a9f" target="_top" xlink:title="G4XXXStoredViewer::\lKernelVisitDecision">
<polygon fill="none" stroke="#000000" points="449,-102.5 449,-134.5 573,-134.5 573,-102.5 449,-102.5"/>
<text text-anchor="start" x="457" y="-121.5" font-family="FreeSans" font-size="10.00" fill="#000000">G4XXXStoredViewer::</text>
<text text-anchor="middle" x="511" y="-109.5" font-family="FreeSans" font-size="10.00" fill="#000000">KernelVisitDecision</text>
</a>
</g>
</g>
<!-- Node5&#45;&gt;Node6 -->
<g id="edge5" class="edge">
<title>Node5&#45;&gt;Node6</title>
<path fill="none" stroke="#191970" d="M372.7502,-118.5C397.664,-118.5 425.0194,-118.5 448.7743,-118.5"/>
<polygon fill="#191970" stroke="#191970" points="372.6074,-115.0001 362.6073,-118.5 372.6073,-122.0001 372.6074,-115.0001"/>
</g>
<!-- Node7 -->
<g id="node7" class="node">
<title>Node7</title>
<g id="a_node7"><a xlink:href="../../d8/d9f/classG4XXXStoredViewer.html#a700bc3347912b4c34cb53761242939b2" target="_top" xlink:title="G4XXXStoredViewer::\lDrawView">
<polygon fill="none" stroke="#000000" points="643,-102.5 643,-134.5 767,-134.5 767,-102.5 643,-102.5"/>
<text text-anchor="start" x="651" y="-121.5" font-family="FreeSans" font-size="10.00" fill="#000000">G4XXXStoredViewer::</text>
<text text-anchor="middle" x="705" y="-109.5" font-family="FreeSans" font-size="10.00" fill="#000000">DrawView</text>
</a>
</g>
</g>
<!-- Node6&#45;&gt;Node7 -->
<g id="edge6" class="edge">
<title>Node6&#45;&gt;Node7</title>
<path fill="none" stroke="#191970" d="M583.2716,-118.5C602.8495,-118.5 623.8675,-118.5 642.836,-118.5"/>
<polygon fill="#191970" stroke="#191970" points="583.1833,-115.0001 573.1833,-118.5 583.1833,-122.0001 583.1833,-115.0001"/>
</g>
</g>
</svg>
