<?xml version="1.0" encoding="UTF-8" standalone="no"?>
<!DOCTYPE svg PUBLIC "-//W3C//DTD SVG 1.1//EN"
 "http://www.w3.org/Graphics/SVG/1.1/DTD/svg11.dtd">
<!-- Generated by graphviz version 2.40.1 (20161225.0304)
 -->
<!-- Title: B02ImportanceDetectorConstruction::GetWorldVolumeAddress Pages: 1 -->
<svg width="523pt" height="92pt"
 viewBox="0.00 0.00 523.00 92.00" xmlns="http://www.w3.org/2000/svg" xmlns:xlink="http://www.w3.org/1999/xlink">
<g id="graph0" class="graph" transform="scale(1 1) rotate(0) translate(4 88)">
<title>B02ImportanceDetectorConstruction::GetWorldVolumeAddress</title>
<!-- Node1 -->
<g id="node1" class="node">
<title>Node1</title>
<polygon fill="#bfbfbf" stroke="#000000" points="0,-25.5 0,-57.5 201,-57.5 201,-25.5 0,-25.5"/>
<text text-anchor="start" x="8" y="-44.5" font-family="FreeSans" font-size="10.00" fill="#000000">B02ImportanceDetectorConstruction</text>
<text text-anchor="middle" x="100.5" y="-32.5" font-family="FreeSans" font-size="10.00" fill="#000000">::GetWorldVolumeAddress</text>
</g>
<!-- Node2 -->
<g id="node2" class="node">
<title>Node2</title>
<g id="a_node2"><a xlink:href="../../df/dc2/classB02ImportanceDetectorConstruction.html#a11e005c5c01a4d5bb6b122b6f7ba170b" target="_top" xlink:title="B02ImportanceDetectorConstruction\l::CreateImportanceStore">
<polygon fill="none" stroke="#000000" points="237,-51.5 237,-83.5 438,-83.5 438,-51.5 237,-51.5"/>
<text text-anchor="start" x="245" y="-70.5" font-family="FreeSans" font-size="10.00" fill="#000000">B02ImportanceDetectorConstruction</text>
<text text-anchor="middle" x="337.5" y="-58.5" font-family="FreeSans" font-size="10.00" fill="#000000">::CreateImportanceStore</text>
</a>
</g>
</g>
<!-- Node1&#45;&gt;Node2 -->
<g id="edge1" class="edge">
<title>Node1&#45;&gt;Node2</title>
<path fill="none" stroke="#191970" d="M211.063,-53.6293C219.6584,-54.5722 228.3097,-55.5213 236.835,-56.4566"/>
<polygon fill="#191970" stroke="#191970" points="211.3314,-50.1378 201.0093,-52.5263 210.568,-57.0961 211.3314,-50.1378"/>
</g>
<!-- Node4 -->
<g id="node4" class="node">
<title>Node4</title>
<g id="a_node4"><a xlink:href="../../df/dc2/classB02ImportanceDetectorConstruction.html#a389ae736f25f57abd3edbe86ad91044d" target="_top" xlink:title="B02ImportanceDetectorConstruction\l::CreateWeightWindowStore">
<polygon fill="none" stroke="#000000" points="237,-.5 237,-32.5 438,-32.5 438,-.5 237,-.5"/>
<text text-anchor="start" x="245" y="-19.5" font-family="FreeSans" font-size="10.00" fill="#000000">B02ImportanceDetectorConstruction</text>
<text text-anchor="middle" x="337.5" y="-7.5" font-family="FreeSans" font-size="10.00" fill="#000000">::CreateWeightWindowStore</text>
</a>
</g>
</g>
<!-- Node1&#45;&gt;Node4 -->
<g id="edge3" class="edge">
<title>Node1&#45;&gt;Node4</title>
<path fill="none" stroke="#191970" d="M211.063,-29.8372C219.6584,-28.9306 228.3097,-28.018 236.835,-27.1187"/>
<polygon fill="#191970" stroke="#191970" points="210.587,-26.3679 201.0093,-30.8977 211.3214,-33.3293 210.587,-26.3679"/>
</g>
<!-- Node3 -->
<g id="node3" class="node">
<title>Node3</title>
<g id="a_node3"><a xlink:href="../../d2/de4/exampleB02_8cc.html#a3c04138a5bfe5d72780bb7e82a18e627" target="_top" xlink:title="main">
<polygon fill="none" stroke="#000000" points="474,-57.5 474,-77.5 515,-77.5 515,-57.5 474,-57.5"/>
<text text-anchor="middle" x="494.5" y="-64.5" font-family="FreeSans" font-size="10.00" fill="#000000">main</text>
</a>
</g>
</g>
<!-- Node2&#45;&gt;Node3 -->
<g id="edge2" class="edge">
<title>Node2&#45;&gt;Node3</title>
<path fill="none" stroke="#191970" d="M448.3914,-67.5C457.8736,-67.5 466.5912,-67.5 473.8338,-67.5"/>
<polygon fill="#191970" stroke="#191970" points="448.2629,-64.0001 438.2628,-67.5 448.2628,-71.0001 448.2629,-64.0001"/>
</g>
</g>
</svg>
