<?xml version="1.0" encoding="UTF-8" standalone="no"?>
<!DOCTYPE svg PUBLIC "-//W3C//DTD SVG 1.1//EN"
 "http://www.w3.org/Graphics/SVG/1.1/DTD/svg11.dtd">
<!-- Generated by graphviz version 2.40.1 (20161225.0304)
 -->
<!-- Title: G4LindhardSorensenIonModel::ComputeCrossSectionPerAtom Pages: 1 -->
<svg width="1223pt" height="302pt"
 viewBox="0.00 0.00 1223.00 302.00" xmlns="http://www.w3.org/2000/svg" xmlns:xlink="http://www.w3.org/1999/xlink">
<g id="graph0" class="graph" transform="scale(1 1) rotate(0) translate(4 298)">
<title>G4LindhardSorensenIonModel::ComputeCrossSectionPerAtom</title>
<!-- Node1 -->
<g id="node1" class="node">
<title>Node1</title>
<polygon fill="#bfbfbf" stroke="#000000" points="0,-126.5 0,-158.5 177,-158.5 177,-126.5 0,-126.5"/>
<text text-anchor="start" x="8" y="-145.5" font-family="FreeSans" font-size="10.00" fill="#000000">G4LindhardSorensenIonModel</text>
<text text-anchor="middle" x="88.5" y="-133.5" font-family="FreeSans" font-size="10.00" fill="#000000">::ComputeCrossSectionPerAtom</text>
</g>
<!-- Node2 -->
<g id="node2" class="node">
<title>Node2</title>
<g id="a_node2"><a xlink:href="../../d6/d8c/classG4LindhardSorensenIonModel.html#a810fa43048d6e1277c43aafd38bb749d" target="_top" xlink:title="G4LindhardSorensenIonModel\l::ComputeCrossSectionPerElectron">
<polygon fill="none" stroke="#000000" points="213,-126.5 213,-158.5 404,-158.5 404,-126.5 213,-126.5"/>
<text text-anchor="start" x="221" y="-145.5" font-family="FreeSans" font-size="10.00" fill="#000000">G4LindhardSorensenIonModel</text>
<text text-anchor="middle" x="308.5" y="-133.5" font-family="FreeSans" font-size="10.00" fill="#000000">::ComputeCrossSectionPerElectron</text>
</a>
</g>
</g>
<!-- Node1&#45;&gt;Node2 -->
<g id="edge1" class="edge">
<title>Node1&#45;&gt;Node2</title>
<path fill="none" stroke="#191970" d="M177.0315,-142.5C185.5274,-142.5 194.2012,-142.5 202.8392,-142.5"/>
<polygon fill="#191970" stroke="#191970" points="202.9503,-146.0001 212.9502,-142.5 202.9502,-139.0001 202.9503,-146.0001"/>
</g>
<!-- Node3 -->
<g id="node3" class="node">
<title>Node3</title>
<g id="a_node3"><a xlink:href="../../df/da1/namespaceActs_1_1VectorHelpers.html#a6e1abd01ea4cac3276aba94096c85dae" target="_top" xlink:title="Calculates column&#45;wise cross products of a matrix and a vector and stores the result column&#45;wise in a...">
<polygon fill="none" stroke="#000000" points="466,-177.5 466,-209.5 582,-209.5 582,-177.5 466,-177.5"/>
<text text-anchor="start" x="474" y="-196.5" font-family="FreeSans" font-size="10.00" fill="#000000">Acts::VectorHelpers</text>
<text text-anchor="middle" x="524" y="-184.5" font-family="FreeSans" font-size="10.00" fill="#000000">::cross</text>
</a>
</g>
</g>
<!-- Node2&#45;&gt;Node3 -->
<g id="edge2" class="edge">
<title>Node2&#45;&gt;Node3</title>
<path fill="none" stroke="#191970" d="M376.3898,-158.5667C401.7671,-164.5725 430.5784,-171.391 455.9686,-177.3998"/>
<polygon fill="#191970" stroke="#191970" points="455.3455,-180.8489 465.8828,-179.746 456.9577,-174.0371 455.3455,-180.8489"/>
</g>
<!-- Node4 -->
<g id="node4" class="node">
<title>Node4</title>
<g id="a_node4"><a xlink:href="../../d6/d8c/classG4LindhardSorensenIonModel.html#a36426daff8b3b5b7b651fb484439053b" target="_top" xlink:title="G4LindhardSorensenIonModel\l::MaxSecondaryEnergy">
<polygon fill="none" stroke="#000000" points="440,-126.5 440,-158.5 608,-158.5 608,-126.5 440,-126.5"/>
<text text-anchor="start" x="448" y="-145.5" font-family="FreeSans" font-size="10.00" fill="#000000">G4LindhardSorensenIonModel</text>
<text text-anchor="middle" x="524" y="-133.5" font-family="FreeSans" font-size="10.00" fill="#000000">::MaxSecondaryEnergy</text>
</a>
</g>
</g>
<!-- Node2&#45;&gt;Node4 -->
<g id="edge3" class="edge">
<title>Node2&#45;&gt;Node4</title>
<path fill="none" stroke="#191970" d="M404.2764,-142.5C412.6678,-142.5 421.1572,-142.5 429.5377,-142.5"/>
<polygon fill="#191970" stroke="#191970" points="429.6923,-146.0001 439.6922,-142.5 429.6922,-139.0001 429.6923,-146.0001"/>
</g>
<!-- Node13 -->
<g id="node13" class="node">
<title>Node13</title>
<g id="a_node13"><a xlink:href="../../db/dfe/G4Log_8hh.html#ae72e5c92ee3e3857a2617f563c9e0589" target="_top" xlink:title="G4Log">
<polygon fill="none" stroke="#000000" points="500,-77.5 500,-97.5 548,-97.5 548,-77.5 500,-77.5"/>
<text text-anchor="middle" x="524" y="-84.5" font-family="FreeSans" font-size="10.00" fill="#000000">G4Log</text>
</a>
</g>
</g>
<!-- Node2&#45;&gt;Node13 -->
<g id="edge12" class="edge">
<title>Node2&#45;&gt;Node13</title>
<path fill="none" stroke="#191970" d="M371.4108,-126.4439C410.0301,-116.5874 458.0028,-104.3438 489.735,-96.2451"/>
<polygon fill="#191970" stroke="#191970" points="491.0129,-99.5312 499.8368,-93.6669 489.2818,-92.7487 491.0129,-99.5312"/>
</g>
<!-- Node5 -->
<g id="node5" class="node">
<title>Node5</title>
<g id="a_node5"><a xlink:href="../../d6/d8c/classG4LindhardSorensenIonModel.html#a8580e75599f14db0c938d145df832506" target="_top" xlink:title="G4LindhardSorensenIonModel\l::SetParticle">
<polygon fill="none" stroke="#000000" points="650,-136.5 650,-168.5 818,-168.5 818,-136.5 650,-136.5"/>
<text text-anchor="start" x="658" y="-155.5" font-family="FreeSans" font-size="10.00" fill="#000000">G4LindhardSorensenIonModel</text>
<text text-anchor="middle" x="734" y="-143.5" font-family="FreeSans" font-size="10.00" fill="#000000">::SetParticle</text>
</a>
</g>
</g>
<!-- Node4&#45;&gt;Node5 -->
<g id="edge4" class="edge">
<title>Node4&#45;&gt;Node5</title>
<path fill="none" stroke="#191970" d="M608.205,-146.5098C618.5818,-147.0039 629.2408,-147.5115 639.7545,-148.0121"/>
<polygon fill="#191970" stroke="#191970" points="639.6209,-151.5096 649.7761,-148.4893 639.9539,-144.5176 639.6209,-151.5096"/>
</g>
<!-- Node6 -->
<g id="node6" class="node">
<title>Node6</title>
<g id="a_node6"><a xlink:href="../../d6/d8c/classG4LindhardSorensenIonModel.html#afba69168cd78ddeee67cf020d03b06be" target="_top" xlink:title="G4LindhardSorensenIonModel\l::SetupParameters">
<polygon fill="none" stroke="#000000" points="860,-136.5 860,-168.5 1028,-168.5 1028,-136.5 860,-136.5"/>
<text text-anchor="start" x="868" y="-155.5" font-family="FreeSans" font-size="10.00" fill="#000000">G4LindhardSorensenIonModel</text>
<text text-anchor="middle" x="944" y="-143.5" font-family="FreeSans" font-size="10.00" fill="#000000">::SetupParameters</text>
</a>
</g>
</g>
<!-- Node5&#45;&gt;Node6 -->
<g id="edge5" class="edge">
<title>Node5&#45;&gt;Node6</title>
<path fill="none" stroke="#191970" d="M818.205,-152.5C828.5818,-152.5 839.2408,-152.5 849.7545,-152.5"/>
<polygon fill="#191970" stroke="#191970" points="849.7761,-156.0001 859.7761,-152.5 849.7761,-149.0001 849.7761,-156.0001"/>
</g>
<!-- Node7 -->
<g id="node7" class="node">
<title>Node7</title>
<g id="a_node7"><a xlink:href="../../d5/d38/classG4ParticleDefinition.html#ad823b2f7c489766de74c562e2a3909bf" target="_top" xlink:title="G4ParticleDefinition\l::GetPDGMass">
<polygon fill="none" stroke="#000000" points="1081.5,-261.5 1081.5,-293.5 1197.5,-293.5 1197.5,-261.5 1081.5,-261.5"/>
<text text-anchor="start" x="1089.5" y="-280.5" font-family="FreeSans" font-size="10.00" fill="#000000">G4ParticleDefinition</text>
<text text-anchor="middle" x="1139.5" y="-268.5" font-family="FreeSans" font-size="10.00" fill="#000000">::GetPDGMass</text>
</a>
</g>
</g>
<!-- Node6&#45;&gt;Node7 -->
<g id="edge6" class="edge">
<title>Node6&#45;&gt;Node7</title>
<path fill="none" stroke="#191970" d="M959.2433,-168.53C980.7399,-190.3045 1022.0436,-229.1825 1064,-252.5 1067.0493,-254.1947 1070.2321,-255.7983 1073.4924,-257.3125"/>
<polygon fill="#191970" stroke="#191970" points="1072.2705,-260.5971 1082.839,-261.3437 1075.0428,-254.1694 1072.2705,-260.5971"/>
</g>
<!-- Node8 -->
<g id="node8" class="node">
<title>Node8</title>
<g id="a_node8"><a xlink:href="../../d5/d38/classG4ParticleDefinition.html#a41db289a1e553511da19c15e8875a3e6" target="_top" xlink:title="G4ParticleDefinition\l::GetPDGSpin">
<polygon fill="none" stroke="#000000" points="1081.5,-210.5 1081.5,-242.5 1197.5,-242.5 1197.5,-210.5 1081.5,-210.5"/>
<text text-anchor="start" x="1089.5" y="-229.5" font-family="FreeSans" font-size="10.00" fill="#000000">G4ParticleDefinition</text>
<text text-anchor="middle" x="1139.5" y="-217.5" font-family="FreeSans" font-size="10.00" fill="#000000">::GetPDGSpin</text>
</a>
</g>
</g>
<!-- Node6&#45;&gt;Node8 -->
<g id="edge7" class="edge">
<title>Node6&#45;&gt;Node8</title>
<path fill="none" stroke="#191970" d="M981.5752,-168.6098C1005.1011,-178.5048 1036.1347,-191.2108 1064,-201.5 1069.1001,-203.3832 1074.4175,-205.2785 1079.7646,-207.1377"/>
<polygon fill="#191970" stroke="#191970" points="1078.7864,-210.5023 1089.381,-210.4347 1081.0567,-203.8806 1078.7864,-210.5023"/>
</g>
<!-- Node9 -->
<g id="node9" class="node">
<title>Node9</title>
<g id="a_node9"><a xlink:href="../../d5/d38/classG4ParticleDefinition.html#aa751e870d4b72ded8ba24677bb6a656c" target="_top" xlink:title="G4ParticleDefinition\l::GetPDGCharge">
<polygon fill="none" stroke="#000000" points="1081.5,-159.5 1081.5,-191.5 1197.5,-191.5 1197.5,-159.5 1081.5,-159.5"/>
<text text-anchor="start" x="1089.5" y="-178.5" font-family="FreeSans" font-size="10.00" fill="#000000">G4ParticleDefinition</text>
<text text-anchor="middle" x="1139.5" y="-166.5" font-family="FreeSans" font-size="10.00" fill="#000000">::GetPDGCharge</text>
</a>
</g>
</g>
<!-- Node6&#45;&gt;Node9 -->
<g id="edge8" class="edge">
<title>Node6&#45;&gt;Node9</title>
<path fill="none" stroke="#191970" d="M1028.0442,-162.3876C1042.5345,-164.0923 1057.4347,-165.8453 1071.437,-167.4926"/>
<polygon fill="#191970" stroke="#191970" points="1071.115,-170.9788 1081.4555,-168.6712 1071.9329,-164.0267 1071.115,-170.9788"/>
</g>
<!-- Node10 -->
<g id="node10" class="node">
<title>Node10</title>
<g id="a_node10"><a xlink:href="../../d2/d54/templates_8hh.html#a7fb2b8c71918ecf5c3556578f32e4e75" target="_top" xlink:title="G4lrint">
<polygon fill="none" stroke="#000000" points="1114,-120.5 1114,-140.5 1165,-140.5 1165,-120.5 1114,-120.5"/>
<text text-anchor="middle" x="1139.5" y="-127.5" font-family="FreeSans" font-size="10.00" fill="#000000">G4lrint</text>
</a>
</g>
</g>
<!-- Node6&#45;&gt;Node10 -->
<g id="edge9" class="edge">
<title>Node6&#45;&gt;Node10</title>
<path fill="none" stroke="#191970" d="M1028.0442,-143.0423C1054.6041,-140.0535 1082.5412,-136.9097 1103.8016,-134.5172"/>
<polygon fill="#191970" stroke="#191970" points="1104.421,-137.9697 1113.9669,-133.3733 1103.6382,-131.0136 1104.421,-137.9697"/>
</g>
<!-- Node11 -->
<g id="node11" class="node">
<title>Node11</title>
<g id="a_node11"><a xlink:href="../../d5/d38/classG4ParticleDefinition.html#aae0eeabb077d52fa68ad6ad955714724" target="_top" xlink:title="G4ParticleDefinition\l::GetPDGMagneticMoment">
<polygon fill="none" stroke="#000000" points="1064,-69.5 1064,-101.5 1215,-101.5 1215,-69.5 1064,-69.5"/>
<text text-anchor="start" x="1072" y="-88.5" font-family="FreeSans" font-size="10.00" fill="#000000">G4ParticleDefinition</text>
<text text-anchor="middle" x="1139.5" y="-76.5" font-family="FreeSans" font-size="10.00" fill="#000000">::GetPDGMagneticMoment</text>
</a>
</g>
</g>
<!-- Node6&#45;&gt;Node11 -->
<g id="edge10" class="edge">
<title>Node6&#45;&gt;Node11</title>
<path fill="none" stroke="#191970" d="M990.8271,-136.4518C1018.5339,-126.9564 1053.8136,-114.8657 1083.0521,-104.8453"/>
<polygon fill="#191970" stroke="#191970" points="1084.3914,-108.0862 1092.7166,-101.5332 1082.122,-101.4643 1084.3914,-108.0862"/>
</g>
<!-- Node12 -->
<g id="node12" class="node">
<title>Node12</title>
<g id="a_node12"><a xlink:href="../../d2/d00/classG4NistManager.html#aa1c650a74efe270870f383f4fa9b1a24" target="_top" xlink:title="G4NistManager::GetA27">
<polygon fill="none" stroke="#000000" points="1070.5,-30.5 1070.5,-50.5 1208.5,-50.5 1208.5,-30.5 1070.5,-30.5"/>
<text text-anchor="middle" x="1139.5" y="-37.5" font-family="FreeSans" font-size="10.00" fill="#000000">G4NistManager::GetA27</text>
</a>
</g>
</g>
<!-- Node6&#45;&gt;Node12 -->
<g id="edge11" class="edge">
<title>Node6&#45;&gt;Node12</title>
<path fill="none" stroke="#191970" d="M960.4289,-136.4272C982.2975,-115.9012 1023.0001,-80.6358 1064,-60.5 1069.2241,-57.9344 1074.8188,-55.6668 1080.5129,-53.6696"/>
<polygon fill="#191970" stroke="#191970" points="1081.7023,-56.9635 1090.1419,-50.5585 1079.5501,-50.3025 1081.7023,-56.9635"/>
</g>
<!-- Node14 -->
<g id="node14" class="node">
<title>Node14</title>
<g id="a_node14"><a xlink:href="../../d3/d9f/namespaceG4LogConsts.html#a080084213a00e3dc29211e4e578127f4" target="_top" xlink:title="G4LogConsts::get_log_px">
<polygon fill="none" stroke="#000000" points="662,-97.5 662,-117.5 806,-117.5 806,-97.5 662,-97.5"/>
<text text-anchor="middle" x="734" y="-104.5" font-family="FreeSans" font-size="10.00" fill="#000000">G4LogConsts::get_log_px</text>
</a>
</g>
</g>
<!-- Node13&#45;&gt;Node14 -->
<g id="edge13" class="edge">
<title>Node13&#45;&gt;Node14</title>
<path fill="none" stroke="#191970" d="M548.0897,-89.7943C573.2996,-92.1952 614.2986,-96.0999 651.3886,-99.6323"/>
<polygon fill="#191970" stroke="#191970" points="651.4431,-103.1532 661.7299,-100.6171 652.1068,-96.1847 651.4431,-103.1532"/>
</g>
<!-- Node15 -->
<g id="node15" class="node">
<title>Node15</title>
<g id="a_node15"><a xlink:href="../../d3/d9f/namespaceG4LogConsts.html#abafea919b94d1e25edf69344bdb8269a" target="_top" xlink:title="G4LogConsts::get_log_qx">
<polygon fill="none" stroke="#000000" points="662,-58.5 662,-78.5 806,-78.5 806,-58.5 662,-58.5"/>
<text text-anchor="middle" x="734" y="-65.5" font-family="FreeSans" font-size="10.00" fill="#000000">G4LogConsts::get_log_qx</text>
</a>
</g>
</g>
<!-- Node13&#45;&gt;Node15 -->
<g id="edge14" class="edge">
<title>Node13&#45;&gt;Node15</title>
<path fill="none" stroke="#191970" d="M548.0897,-85.3205C573.2996,-83.0396 614.2986,-79.3301 651.3886,-75.9744"/>
<polygon fill="#191970" stroke="#191970" points="652.086,-79.4257 661.7299,-75.0387 651.4552,-72.4541 652.086,-79.4257"/>
</g>
<!-- Node16 -->
<g id="node16" class="node">
<title>Node16</title>
<g id="a_node16"><a xlink:href="../../d3/d9f/namespaceG4LogConsts.html#aab62ca6c71dcc1505d4ce94f673f1b52" target="_top" xlink:title="Like frexp but vectorising and the exponent is a double.">
<polygon fill="none" stroke="#000000" points="644,-19.5 644,-39.5 824,-39.5 824,-19.5 644,-19.5"/>
<text text-anchor="middle" x="734" y="-26.5" font-family="FreeSans" font-size="10.00" fill="#000000">G4LogConsts::getMantExponent</text>
</a>
</g>
</g>
<!-- Node13&#45;&gt;Node16 -->
<g id="edge15" class="edge">
<title>Node13&#45;&gt;Node16</title>
<path fill="none" stroke="#191970" d="M548.1771,-79.1534C572.2812,-70.996 610.4456,-58.5223 644,-49.5 654.0737,-46.7913 664.8512,-44.1656 675.3213,-41.7561"/>
<polygon fill="#191970" stroke="#191970" points="676.2498,-45.1346 685.2324,-39.5166 674.7069,-38.3068 676.2498,-45.1346"/>
</g>
<!-- Node17 -->
<g id="node17" class="node">
<title>Node17</title>
<g id="a_node17"><a xlink:href="../../d3/d9f/namespaceG4LogConsts.html#a1f15a1e0545d715b1662d9489af3643b" target="_top" xlink:title="G4LogConsts::dp2uint64">
<polygon fill="none" stroke="#000000" points="873.5,-39.5 873.5,-59.5 1014.5,-59.5 1014.5,-39.5 873.5,-39.5"/>
<text text-anchor="middle" x="944" y="-46.5" font-family="FreeSans" font-size="10.00" fill="#000000">G4LogConsts::dp2uint64</text>
</a>
</g>
</g>
<!-- Node16&#45;&gt;Node17 -->
<g id="edge16" class="edge">
<title>Node16&#45;&gt;Node17</title>
<path fill="none" stroke="#191970" d="M824.2776,-38.0979C837.2598,-39.3343 850.5483,-40.5998 863.3279,-41.8169"/>
<polygon fill="#191970" stroke="#191970" points="863.1655,-45.3172 873.4523,-42.7812 863.8292,-38.3488 863.1655,-45.3172"/>
</g>
<!-- Node18 -->
<g id="node18" class="node">
<title>Node18</title>
<g id="a_node18"><a xlink:href="../../d3/d9f/namespaceG4LogConsts.html#acaeec03b136462b4d5e9f1fb97d6ce13" target="_top" xlink:title="G4LogConsts::uint642dp">
<polygon fill="none" stroke="#000000" points="873.5,-.5 873.5,-20.5 1014.5,-20.5 1014.5,-.5 873.5,-.5"/>
<text text-anchor="middle" x="944" y="-7.5" font-family="FreeSans" font-size="10.00" fill="#000000">G4LogConsts::uint642dp</text>
</a>
</g>
</g>
<!-- Node16&#45;&gt;Node18 -->
<g id="edge17" class="edge">
<title>Node16&#45;&gt;Node18</title>
<path fill="none" stroke="#191970" d="M824.2776,-21.332C837.2598,-20.1574 850.5483,-18.9552 863.3279,-17.7989"/>
<polygon fill="#191970" stroke="#191970" points="863.8084,-21.2698 873.4523,-16.8829 863.1776,-14.2983 863.8084,-21.2698"/>
</g>
</g>
</svg>
