<?xml version="1.0" encoding="UTF-8" standalone="no"?>
<!DOCTYPE svg PUBLIC "-//W3C//DTD SVG 1.1//EN"
 "http://www.w3.org/Graphics/SVG/1.1/DTD/svg11.dtd">
<!-- Generated by graphviz version 2.40.1 (20161225.0304)
 -->
<!-- Title: CCalAMaterial::CCalAMaterial Pages: 1 -->
<svg width="539pt" height="248pt"
 viewBox="0.00 0.00 539.00 248.12" xmlns="http://www.w3.org/2000/svg" xmlns:xlink="http://www.w3.org/1999/xlink">
<g id="graph0" class="graph" transform="scale(1 1) rotate(0) translate(4 244.1204)">
<title>CCalAMaterial::CCalAMaterial</title>
<!-- Node1 -->
<g id="node1" class="node">
<title>Node1</title>
<polygon fill="#bfbfbf" stroke="#000000" points="0,-117.5 0,-137.5 164,-137.5 164,-117.5 0,-117.5"/>
<text text-anchor="middle" x="82" y="-124.5" font-family="FreeSans" font-size="10.00" fill="#000000">CCalAMaterial::CCalAMaterial</text>
</g>
<!-- Node2 -->
<g id="node2" class="node">
<title>Node2</title>
<g id="a_node2"><a xlink:href="../../d2/d18/classCCalAMaterial.html#a548ac86306af59910c2e43d2aba88bc0" target="_top" xlink:title="CCalAMaterial::Aeff">
<polygon fill="none" stroke="#000000" points="411,-195.5 411,-215.5 526,-215.5 526,-195.5 411,-195.5"/>
<text text-anchor="middle" x="468.5" y="-202.5" font-family="FreeSans" font-size="10.00" fill="#000000">CCalAMaterial::Aeff</text>
</a>
</g>
</g>
<!-- Node1&#45;&gt;Node2 -->
<g id="edge1" class="edge">
<title>Node1&#45;&gt;Node2</title>
<path fill="none" stroke="#191970" d="M89.7895,-137.5541C106.94,-158.7612 150.4071,-207.5917 200,-225.5 277.2368,-253.3907 374.9114,-233.5834 428.6003,-218.4082"/>
<polygon fill="#191970" stroke="#191970" points="429.7953,-221.7056 438.4156,-215.5459 427.8355,-214.9855 429.7953,-221.7056"/>
</g>
<!-- Node3 -->
<g id="node3" class="node">
<title>Node3</title>
<g id="a_node3"><a xlink:href="../../d0/dbc/classCCalMaterial.html#ad6f962ddafe7d081133e94951f1f4d8e" target="_top" xlink:title="CCalMaterial::closeMaterial">
<polygon fill="none" stroke="#000000" points="208,-195.5 208,-215.5 362,-215.5 362,-195.5 208,-195.5"/>
<text text-anchor="middle" x="285" y="-202.5" font-family="FreeSans" font-size="10.00" fill="#000000">CCalMaterial::closeMaterial</text>
</a>
</g>
</g>
<!-- Node1&#45;&gt;Node3 -->
<g id="edge2" class="edge">
<title>Node1&#45;&gt;Node3</title>
<path fill="none" stroke="#191970" d="M99.0072,-137.6708C121.4327,-150.6864 162.4519,-173.1426 200,-186.5 206.7582,-188.9042 213.9304,-191.0697 221.1312,-193.0026"/>
<polygon fill="#191970" stroke="#191970" points="220.3777,-196.4223 230.9318,-195.4946 222.1028,-189.6382 220.3777,-196.4223"/>
</g>
<!-- Node4 -->
<g id="node4" class="node">
<title>Node4</title>
<g id="a_node4"><a xlink:href="../../d2/d18/classCCalAMaterial.html#a26f7f4825e584eac507c6258dbb37b38" target="_top" xlink:title="CCalAMaterial::computeAeff">
<polygon fill="none" stroke="#000000" points="205.5,-156.5 205.5,-176.5 364.5,-176.5 364.5,-156.5 205.5,-156.5"/>
<text text-anchor="middle" x="285" y="-163.5" font-family="FreeSans" font-size="10.00" fill="#000000">CCalAMaterial::computeAeff</text>
</a>
</g>
</g>
<!-- Node1&#45;&gt;Node4 -->
<g id="edge3" class="edge">
<title>Node1&#45;&gt;Node4</title>
<path fill="none" stroke="#191970" d="M134.2775,-137.5435C161.3896,-142.7522 194.6841,-149.1487 223.0786,-154.6038"/>
<polygon fill="#191970" stroke="#191970" points="222.4188,-158.0409 232.8996,-156.4906 223.7396,-151.1667 222.4188,-158.0409"/>
</g>
<!-- Node5 -->
<g id="node5" class="node">
<title>Node5</title>
<g id="a_node5"><a xlink:href="../../d0/dbc/classCCalMaterial.html#a014c78fd943d629dac607a658eff505f" target="_top" xlink:title="CCalMaterial::computeDensity">
<polygon fill="none" stroke="#000000" points="200,-117.5 200,-137.5 370,-137.5 370,-117.5 200,-117.5"/>
<text text-anchor="middle" x="285" y="-124.5" font-family="FreeSans" font-size="10.00" fill="#000000">CCalMaterial::computeDensity</text>
</a>
</g>
</g>
<!-- Node1&#45;&gt;Node5 -->
<g id="edge5" class="edge">
<title>Node1&#45;&gt;Node5</title>
<path fill="none" stroke="#191970" d="M164.2752,-127.5C172.7276,-127.5 181.3645,-127.5 189.9399,-127.5"/>
<polygon fill="#191970" stroke="#191970" points="189.9637,-131.0001 199.9637,-127.5 189.9637,-124.0001 189.9637,-131.0001"/>
</g>
<!-- Node7 -->
<g id="node7" class="node">
<title>Node7</title>
<g id="a_node7"><a xlink:href="../../d0/dbc/classCCalMaterial.html#a87fb97b114376ef62fa9406a1db19a2d" target="_top" xlink:title="CCalMaterial::Element">
<polygon fill="none" stroke="#000000" points="220.5,-78.5 220.5,-98.5 349.5,-98.5 349.5,-78.5 220.5,-78.5"/>
<text text-anchor="middle" x="285" y="-85.5" font-family="FreeSans" font-size="10.00" fill="#000000">CCalMaterial::Element</text>
</a>
</g>
</g>
<!-- Node1&#45;&gt;Node7 -->
<g id="edge7" class="edge">
<title>Node1&#45;&gt;Node7</title>
<path fill="none" stroke="#191970" d="M134.2775,-117.4565C161.3896,-112.2478 194.6841,-105.8513 223.0786,-100.3962"/>
<polygon fill="#191970" stroke="#191970" points="223.7396,-103.8333 232.8996,-98.5094 222.4188,-96.9591 223.7396,-103.8333"/>
</g>
<!-- Node8 -->
<g id="node8" class="node">
<title>Node8</title>
<g id="a_node8"><a xlink:href="../../d0/dbc/classCCalMaterial.html#ad6ab1aa4d1c8611b71941a53edffd351" target="_top" xlink:title="CCalMaterial::NElements">
<polygon fill="none" stroke="#000000" points="214,-39.5 214,-59.5 356,-59.5 356,-39.5 214,-39.5"/>
<text text-anchor="middle" x="285" y="-46.5" font-family="FreeSans" font-size="10.00" fill="#000000">CCalMaterial::NElements</text>
</a>
</g>
</g>
<!-- Node1&#45;&gt;Node8 -->
<g id="edge8" class="edge">
<title>Node1&#45;&gt;Node8</title>
<path fill="none" stroke="#191970" d="M99.0072,-117.3292C121.4327,-104.3136 162.4519,-81.8574 200,-68.5 206.7582,-66.0958 213.9304,-63.9303 221.1312,-61.9974"/>
<polygon fill="#191970" stroke="#191970" points="222.1028,-65.3618 230.9318,-59.5054 220.3777,-58.5777 222.1028,-65.3618"/>
</g>
<!-- Node9 -->
<g id="node9" class="node">
<title>Node9</title>
<g id="a_node9"><a xlink:href="../../d0/dbc/classCCalMaterial.html#a1358709469d973716072428630f9f642" target="_top" xlink:title="CCalMaterial::Weight">
<polygon fill="none" stroke="#000000" points="223.5,-.5 223.5,-20.5 346.5,-20.5 346.5,-.5 223.5,-.5"/>
<text text-anchor="middle" x="285" y="-7.5" font-family="FreeSans" font-size="10.00" fill="#000000">CCalMaterial::Weight</text>
</a>
</g>
</g>
<!-- Node1&#45;&gt;Node9 -->
<g id="edge9" class="edge">
<title>Node1&#45;&gt;Node9</title>
<path fill="none" stroke="#191970" d="M90.9671,-117.3579C109.3215,-97.2697 153.3889,-52.3901 200,-29.5 204.3518,-27.3629 208.9468,-25.4631 213.6559,-23.7746"/>
<polygon fill="#191970" stroke="#191970" points="215.0105,-27.0148 223.4407,-20.5974 212.8486,-20.3569 215.0105,-27.0148"/>
</g>
<!-- Node4&#45;&gt;Node2 -->
<g id="edge4" class="edge">
<title>Node4&#45;&gt;Node2</title>
<path fill="none" stroke="#191970" d="M332.2558,-176.5435C356.4424,-181.684 386.0722,-187.9813 411.5157,-193.3889"/>
<polygon fill="#191970" stroke="#191970" points="410.8952,-196.8351 421.4043,-195.4906 412.3505,-189.988 410.8952,-196.8351"/>
</g>
<!-- Node6 -->
<g id="node6" class="node">
<title>Node6</title>
<g id="a_node6"><a xlink:href="../../d0/dbc/classCCalMaterial.html#ab1fa1d1b990432938b6b2602036e90a8" target="_top" xlink:title="CCalMaterial::Density">
<polygon fill="none" stroke="#000000" points="406,-117.5 406,-137.5 531,-137.5 531,-117.5 406,-117.5"/>
<text text-anchor="middle" x="468.5" y="-124.5" font-family="FreeSans" font-size="10.00" fill="#000000">CCalMaterial::Density</text>
</a>
</g>
</g>
<!-- Node5&#45;&gt;Node6 -->
<g id="edge6" class="edge">
<title>Node5&#45;&gt;Node6</title>
<path fill="none" stroke="#191970" d="M370.0354,-127.5C378.6333,-127.5 387.3103,-127.5 395.7622,-127.5"/>
<polygon fill="#191970" stroke="#191970" points="395.9396,-131.0001 405.9395,-127.5 395.9395,-124.0001 395.9396,-131.0001"/>
</g>
</g>
</svg>
