<?xml version="1.0" encoding="UTF-8" standalone="no"?>
<!DOCTYPE svg PUBLIC "-//W3C//DTD SVG 1.1//EN"
 "http://www.w3.org/Graphics/SVG/1.1/DTD/svg11.dtd">
<!-- Generated by graphviz version 2.40.1 (20161225.0304)
 -->
<!-- Title: avscatcen Pages: 1 -->
<svg width="1041pt" height="504pt"
 viewBox="0.00 0.00 1041.00 504.00" xmlns="http://www.w3.org/2000/svg" xmlns:xlink="http://www.w3.org/1999/xlink">
<g id="graph0" class="graph" transform="scale(1 1) rotate(0) translate(4 500)">
<title>avscatcen</title>
<!-- Node1 -->
<g id="node1" class="node">
<title>Node1</title>
<polygon fill="#bfbfbf" stroke="#000000" points="0,-117.5 0,-137.5 67,-137.5 67,-117.5 0,-117.5"/>
<text text-anchor="middle" x="33.5" y="-124.5" font-family="FreeSans" font-size="10.00" fill="#000000">avscatcen</text>
</g>
<!-- Node2 -->
<g id="node2" class="node">
<title>Node2</title>
<g id="a_node2"><a xlink:href="../../da/db4/classCLHEP_1_1HepLorentzRotation.html#ae74e0a88b12d04b4853703e6a352921a" target="_top" xlink:title="CLHEP::HepLorentzRotation\l::boost">
<polygon fill="none" stroke="#000000" points="107.5,-463.5 107.5,-495.5 262.5,-495.5 262.5,-463.5 107.5,-463.5"/>
<text text-anchor="start" x="115.5" y="-482.5" font-family="FreeSans" font-size="10.00" fill="#000000">CLHEP::HepLorentzRotation</text>
<text text-anchor="middle" x="185" y="-470.5" font-family="FreeSans" font-size="10.00" fill="#000000">::boost</text>
</a>
</g>
</g>
<!-- Node1&#45;&gt;Node2 -->
<g id="edge1" class="edge">
<title>Node1&#45;&gt;Node2</title>
<path fill="none" stroke="#191970" d="M34.4067,-137.6807C38.9762,-186.8864 60.9375,-399.6905 103,-448.5 106.0443,-452.0326 109.5345,-455.1636 113.3204,-457.9387"/>
<polygon fill="#191970" stroke="#191970" points="111.7037,-461.058 122.0221,-463.4627 115.4554,-455.1483 111.7037,-461.058"/>
</g>
<!-- Node3 -->
<g id="node3" class="node">
<title>Node3</title>
<g id="a_node3"><a xlink:href="../../db/dbb/xmlrole_8cc.html#a62f133652f0a0ae574e6e2fa4110268d" target="_top" xlink:title="common">
<polygon fill="none" stroke="#000000" points="666.5,-374.5 666.5,-394.5 726.5,-394.5 726.5,-374.5 666.5,-374.5"/>
<text text-anchor="middle" x="696.5" y="-381.5" font-family="FreeSans" font-size="10.00" fill="#000000">common</text>
</a>
</g>
</g>
<!-- Node1&#45;&gt;Node3 -->
<g id="edge2" class="edge">
<title>Node1&#45;&gt;Node3</title>
<path fill="none" stroke="#191970" d="M37.2434,-137.7144C57.4892,-190.9836 159.2429,-434.5 327.5,-434.5 327.5,-434.5 327.5,-434.5 417.5,-434.5 503.7184,-434.5 602.6069,-411.0794 656.4368,-396.2966"/>
<polygon fill="#191970" stroke="#191970" points="657.5757,-399.6126 666.2677,-393.5546 655.695,-392.87 657.5757,-399.6126"/>
</g>
<!-- Node4 -->
<g id="node4" class="node">
<title>Node4</title>
<g id="a_node4"><a xlink:href="../../d2/d18/medium-simple_8f.html#a92675ba51aed5c86cce56798dfad307b" target="_top" xlink:title="getms">
<polygon fill="none" stroke="#000000" points="161,-156.5 161,-176.5 209,-176.5 209,-156.5 161,-156.5"/>
<text text-anchor="middle" x="185" y="-163.5" font-family="FreeSans" font-size="10.00" fill="#000000">getms</text>
</a>
</g>
</g>
<!-- Node1&#45;&gt;Node4 -->
<g id="edge3" class="edge">
<title>Node1&#45;&gt;Node4</title>
<path fill="none" stroke="#191970" d="M67.1228,-136.1554C92.1002,-142.5852 126.0377,-151.3216 151.0847,-157.7693"/>
<polygon fill="#191970" stroke="#191970" points="150.3276,-161.1885 160.8845,-160.292 152.0728,-154.4095 150.3276,-161.1885"/>
</g>
<!-- Node16 -->
<g id="node16" class="node">
<title>Node16</title>
<g id="a_node16"><a xlink:href="../../d4/d3e/classActs_1_1Logger.html#aee9e687247532b5175713e66b2d2121e" target="_top" xlink:title="create output stream object with internal cache">
<polygon fill="none" stroke="#000000" points="483,-116.5 483,-136.5 585,-136.5 585,-116.5 483,-116.5"/>
<text text-anchor="middle" x="534" y="-123.5" font-family="FreeSans" font-size="10.00" fill="#000000">Acts::Logger::log</text>
</a>
</g>
</g>
<!-- Node1&#45;&gt;Node16 -->
<g id="edge23" class="edge">
<title>Node1&#45;&gt;Node16</title>
<path fill="none" stroke="#191970" d="M67.1164,-127.4328C150.1587,-127.2669 365.9672,-126.8357 472.5715,-126.6227"/>
<polygon fill="#191970" stroke="#191970" points="472.856,-130.1223 482.849,-126.6022 472.842,-123.1223 472.856,-130.1223"/>
</g>
<!-- Node18 -->
<g id="node18" class="node">
<title>Node18</title>
<g id="a_node18"><a xlink:href="../../dc/df4/classCLHEP_1_1HepLorentzVector.html#a42ea7f1d3b864efbd2c3da5a5642625d" target="_top" xlink:title="CLHEP::HepLorentzVector::px">
<polygon fill="none" stroke="#000000" points="103,-78.5 103,-98.5 267,-98.5 267,-78.5 103,-78.5"/>
<text text-anchor="middle" x="185" y="-85.5" font-family="FreeSans" font-size="10.00" fill="#000000">CLHEP::HepLorentzVector::px</text>
</a>
</g>
</g>
<!-- Node1&#45;&gt;Node18 -->
<g id="edge24" class="edge">
<title>Node1&#45;&gt;Node18</title>
<path fill="none" stroke="#191970" d="M67.1228,-118.8446C87.4738,-113.6057 113.7732,-106.8356 136.3654,-101.0198"/>
<polygon fill="#191970" stroke="#191970" points="137.3086,-104.3912 146.1203,-98.5086 135.5634,-97.6122 137.3086,-104.3912"/>
</g>
<!-- Node19 -->
<g id="node19" class="node">
<title>Node19</title>
<g id="a_node19"><a xlink:href="../../dc/df4/classCLHEP_1_1HepLorentzVector.html#aa5339620739d73bedfdd848824221d55" target="_top" xlink:title="CLHEP::HepLorentzVector::py">
<polygon fill="none" stroke="#000000" points="103,-39.5 103,-59.5 267,-59.5 267,-39.5 103,-39.5"/>
<text text-anchor="middle" x="185" y="-46.5" font-family="FreeSans" font-size="10.00" fill="#000000">CLHEP::HepLorentzVector::py</text>
</a>
</g>
</g>
<!-- Node1&#45;&gt;Node19 -->
<g id="edge25" class="edge">
<title>Node1&#45;&gt;Node19</title>
<path fill="none" stroke="#191970" d="M42.3277,-117.4812C54.5949,-104.206 78.1112,-81.0108 103,-68.5 107.2638,-66.3567 111.7741,-64.4511 116.3987,-62.7574"/>
<polygon fill="#191970" stroke="#191970" points="117.6194,-66.04 126.0093,-59.57 115.4159,-59.3959 117.6194,-66.04"/>
</g>
<!-- Node20 -->
<g id="node20" class="node">
<title>Node20</title>
<g id="a_node20"><a xlink:href="../../dc/df4/classCLHEP_1_1HepLorentzVector.html#aa4446a4bb6a0196882d9144c4d011143" target="_top" xlink:title="CLHEP::HepLorentzVector::pz">
<polygon fill="none" stroke="#000000" points="103,-.5 103,-20.5 267,-20.5 267,-.5 103,-.5"/>
<text text-anchor="middle" x="185" y="-7.5" font-family="FreeSans" font-size="10.00" fill="#000000">CLHEP::HepLorentzVector::pz</text>
</a>
</g>
</g>
<!-- Node1&#45;&gt;Node20 -->
<g id="edge26" class="edge">
<title>Node1&#45;&gt;Node20</title>
<path fill="none" stroke="#191970" d="M37.704,-117.3181C46.5774,-97.1583 69.2213,-52.1564 103,-29.5 105.5865,-27.7651 108.3107,-26.1875 111.1317,-24.7528"/>
<polygon fill="#191970" stroke="#191970" points="112.6936,-27.8891 120.4206,-20.6403 109.8597,-21.4883 112.6936,-27.8891"/>
</g>
<!-- Node5 -->
<g id="node5" class="node">
<title>Node5</title>
<g id="a_node5"><a xlink:href="../../d2/d18/medium-simple_8f.html#a8777bb16180dbd5994f789bf75917d59" target="_top" xlink:title="getmd">
<polygon fill="none" stroke="#000000" points="303,-251.5 303,-271.5 352,-271.5 352,-251.5 303,-251.5"/>
<text text-anchor="middle" x="327.5" y="-258.5" font-family="FreeSans" font-size="10.00" fill="#000000">getmd</text>
</a>
</g>
</g>
<!-- Node4&#45;&gt;Node5 -->
<g id="edge4" class="edge">
<title>Node4&#45;&gt;Node5</title>
<path fill="none" stroke="#191970" d="M200.25,-176.6667C225.1059,-193.2373 274.5249,-226.1833 303.9269,-245.7846"/>
<polygon fill="#191970" stroke="#191970" points="302.0977,-248.7716 312.3597,-251.4064 305.9806,-242.9472 302.0977,-248.7716"/>
</g>
<!-- Node12 -->
<g id="node12" class="node">
<title>Node12</title>
<g id="a_node12"><a xlink:href="../../de/db8/classc2__factory.html#a5b189f66ec65267f3812cdc45ccf072d" target="_top" xlink:title="make a *new object">
<polygon fill="none" stroke="#000000" points="649,-155.5 649,-175.5 744,-175.5 744,-155.5 649,-155.5"/>
<text text-anchor="middle" x="696.5" y="-162.5" font-family="FreeSans" font-size="10.00" fill="#000000">c2_factory::sqrt</text>
</a>
</g>
</g>
<!-- Node4&#45;&gt;Node12 -->
<g id="edge22" class="edge">
<title>Node4&#45;&gt;Node12</title>
<path fill="none" stroke="#191970" d="M209.3266,-166.4524C286.5301,-166.3015 527.4785,-165.8304 638.9124,-165.6126"/>
<polygon fill="#191970" stroke="#191970" points="638.9681,-169.1126 648.9612,-165.5929 638.9544,-162.1126 638.9681,-169.1126"/>
</g>
<!-- Node5&#45;&gt;Node3 -->
<g id="edge5" class="edge">
<title>Node5&#45;&gt;Node3</title>
<path fill="none" stroke="#191970" d="M339.4027,-271.6945C364.2039,-292.2921 424.0243,-338.6742 483,-359.5 540.7038,-379.8767 612.0824,-384.4064 655.9414,-385.0301"/>
<polygon fill="#191970" stroke="#191970" points="656.1785,-388.532 666.2059,-385.1114 656.234,-381.5322 656.1785,-388.532"/>
</g>
<!-- Node6 -->
<g id="node6" class="node">
<title>Node6</title>
<g id="a_node6"><a xlink:href="../../d2/d18/medium-simple_8f.html#a4c3c426f7b73441851ebd368f54397fb" target="_top" xlink:title="gettemp">
<polygon fill="none" stroke="#000000" points="388,-251.5 388,-271.5 447,-271.5 447,-251.5 388,-251.5"/>
<text text-anchor="middle" x="417.5" y="-258.5" font-family="FreeSans" font-size="10.00" fill="#000000">gettemp</text>
</a>
</g>
</g>
<!-- Node5&#45;&gt;Node6 -->
<g id="edge6" class="edge">
<title>Node5&#45;&gt;Node6</title>
<path fill="none" stroke="#191970" d="M352.0929,-261.5C360.0233,-261.5 369.0266,-261.5 377.7617,-261.5"/>
<polygon fill="#191970" stroke="#191970" points="377.8124,-265.0001 387.8124,-261.5 377.8124,-258.0001 377.8124,-265.0001"/>
</g>
<!-- Node6&#45;&gt;Node3 -->
<g id="edge7" class="edge">
<title>Node6&#45;&gt;Node3</title>
<path fill="none" stroke="#191970" d="M425.1579,-271.9559C436.2827,-286.3893 458.3014,-312.2463 483,-326.5 538.2447,-358.3819 611.6565,-373.3072 656.4189,-379.8592"/>
<polygon fill="#191970" stroke="#191970" points="655.9479,-383.3273 666.3355,-381.2419 656.9147,-376.3944 655.9479,-383.3273"/>
</g>
<!-- Node7 -->
<g id="node7" class="node">
<title>Node7</title>
<g id="a_node7"><a xlink:href="../../d8/d1a/classHiMain1.html#afa91501b2c79bdaf9274e067b9d97e31" target="_top" xlink:title="HiMain1::n0">
<polygon fill="none" stroke="#000000" points="658,-323.5 658,-343.5 735,-343.5 735,-323.5 658,-323.5"/>
<text text-anchor="middle" x="696.5" y="-330.5" font-family="FreeSans" font-size="10.00" fill="#000000">HiMain1::n0</text>
</a>
</g>
</g>
<!-- Node6&#45;&gt;Node7 -->
<g id="edge8" class="edge">
<title>Node6&#45;&gt;Node7</title>
<path fill="none" stroke="#191970" d="M430.7323,-271.7928C443.4146,-281.1009 463.4637,-294.4017 483,-301.5 537.2995,-321.2291 603.6134,-328.8012 647.7873,-331.7035"/>
<polygon fill="#191970" stroke="#191970" points="647.7749,-335.2089 657.967,-332.3153 648.195,-328.2216 647.7749,-335.2089"/>
</g>
<!-- Node10 -->
<g id="node10" class="node">
<title>Node10</title>
<g id="a_node10"><a xlink:href="../../d2/d18/medium-simple_8f.html#a1fdcab7823056a622e99f159e74b0a1e" target="_top" xlink:title="nthick">
<polygon fill="none" stroke="#000000" points="510,-232.5 510,-252.5 558,-252.5 558,-232.5 510,-232.5"/>
<text text-anchor="middle" x="534" y="-239.5" font-family="FreeSans" font-size="10.00" fill="#000000">nthick</text>
</a>
</g>
</g>
<!-- Node6&#45;&gt;Node10 -->
<g id="edge11" class="edge">
<title>Node6&#45;&gt;Node10</title>
<path fill="none" stroke="#191970" d="M447.1993,-256.6563C463.2776,-254.0341 483.2114,-250.7831 499.9201,-248.0581"/>
<polygon fill="#191970" stroke="#191970" points="500.5372,-251.5038 509.8434,-246.4397 499.4104,-244.5951 500.5372,-251.5038"/>
</g>
<!-- Node6&#45;&gt;Node12 -->
<g id="edge19" class="edge">
<title>Node6&#45;&gt;Node12</title>
<path fill="none" stroke="#191970" d="M432.2791,-251.4416C445.1949,-243.0202 464.694,-231.1793 483,-223.5 533.9323,-202.1341 595.0099,-186.4709 638.765,-176.8453"/>
<polygon fill="#191970" stroke="#191970" points="639.6269,-180.2399 648.6616,-174.706 638.1478,-173.3979 639.6269,-180.2399"/>
</g>
<!-- Node15 -->
<g id="node15" class="node">
<title>Node15</title>
<g id="a_node15"><a xlink:href="../../d2/ddc/classG4Abla.html#a1185829d59e6ea6deb12cfc1742b9eaa" target="_top" xlink:title="G4Abla::tau">
<polygon fill="none" stroke="#000000" points="496,-271.5 496,-291.5 572,-291.5 572,-271.5 496,-271.5"/>
<text text-anchor="middle" x="534" y="-278.5" font-family="FreeSans" font-size="10.00" fill="#000000">G4Abla::tau</text>
</a>
</g>
</g>
<!-- Node6&#45;&gt;Node15 -->
<g id="edge18" class="edge">
<title>Node6&#45;&gt;Node15</title>
<path fill="none" stroke="#191970" d="M447.1993,-266.5986C459.0178,-268.6275 472.9196,-271.0141 486.0924,-273.2755"/>
<polygon fill="#191970" stroke="#191970" points="485.5289,-276.7299 495.977,-274.9724 486.7134,-269.8308 485.5289,-276.7299"/>
</g>
<!-- Node6&#45;&gt;Node16 -->
<g id="edge20" class="edge">
<title>Node6&#45;&gt;Node16</title>
<path fill="none" stroke="#191970" d="M426.2564,-251.3531C445.9068,-228.5823 493.7297,-173.1652 518.5224,-144.4354"/>
<polygon fill="#191970" stroke="#191970" points="521.2584,-146.6221 525.142,-136.7647 515.9589,-142.0488 521.2584,-146.6221"/>
</g>
<!-- Node8 -->
<g id="node8" class="node">
<title>Node8</title>
<g id="a_node8"><a xlink:href="../../d8/d1a/classHiMain1.html#abdd4d6ac793897447c6d9f7b9e6d20ca" target="_top" xlink:title="HiMain1::init">
<polygon fill="none" stroke="#000000" points="808,-323.5 808,-343.5 889,-343.5 889,-323.5 808,-323.5"/>
<text text-anchor="middle" x="848.5" y="-330.5" font-family="FreeSans" font-size="10.00" fill="#000000">HiMain1::init</text>
</a>
</g>
</g>
<!-- Node7&#45;&gt;Node8 -->
<g id="edge9" class="edge">
<title>Node7&#45;&gt;Node8</title>
<path fill="none" stroke="#191970" d="M735.2493,-333.5C754.2861,-333.5 777.4655,-333.5 797.8835,-333.5"/>
<polygon fill="#191970" stroke="#191970" points="797.9626,-337.0001 807.9626,-333.5 797.9625,-330.0001 797.9626,-337.0001"/>
</g>
<!-- Node9 -->
<g id="node9" class="node">
<title>Node9</title>
<g id="a_node9"><a xlink:href="../../d7/dc3/HiMain1_8h.html#af413dd2854a4d96511498e79f1519c57" target="_top" xlink:title="himain1_address_">
<polygon fill="none" stroke="#000000" points="925,-323.5 925,-343.5 1033,-343.5 1033,-323.5 925,-323.5"/>
<text text-anchor="middle" x="979" y="-330.5" font-family="FreeSans" font-size="10.00" fill="#000000">himain1_address_</text>
</a>
</g>
</g>
<!-- Node8&#45;&gt;Node9 -->
<g id="edge10" class="edge">
<title>Node8&#45;&gt;Node9</title>
<path fill="none" stroke="#191970" d="M889.0757,-333.5C897.1424,-333.5 905.7991,-333.5 914.4397,-333.5"/>
<polygon fill="#191970" stroke="#191970" points="914.5393,-337.0001 924.5393,-333.5 914.5392,-330.0001 914.5393,-337.0001"/>
</g>
<!-- Node10&#45;&gt;Node3 -->
<g id="edge12" class="edge">
<title>Node10&#45;&gt;Node3</title>
<path fill="none" stroke="#191970" d="M558.1345,-247.553C567.5127,-250.5551 577.7261,-255.2478 585,-262.5 615.801,-293.2092 590.4438,-322.5472 621,-353.5 630.757,-363.3837 644.1103,-370.2433 656.8758,-374.9457"/>
<polygon fill="#191970" stroke="#191970" points="655.8601,-378.2964 666.4537,-378.1355 658.072,-371.655 655.8601,-378.2964"/>
</g>
<!-- Node10&#45;&gt;Node7 -->
<g id="edge13" class="edge">
<title>Node10&#45;&gt;Node7</title>
<path fill="none" stroke="#191970" d="M558.126,-248.6979C567.1828,-251.8246 577.1694,-256.3027 585,-262.5 607.0415,-279.9441 597.8945,-298.4919 621,-314.5 628.9986,-320.0416 638.4693,-323.969 647.9516,-326.7518"/>
<polygon fill="#191970" stroke="#191970" points="647.2214,-330.1776 657.7762,-329.2572 648.9512,-323.3946 647.2214,-330.1776"/>
</g>
<!-- Node11 -->
<g id="node11" class="node">
<title>Node11</title>
<g id="a_node11"><a xlink:href="../../d6/dfd/EicFRichDetector_8cc.html#afa9eab74a86ef9511755e454d4ed5e85" target="_top" xlink:title="rmax">
<polygon fill="none" stroke="#000000" points="675.5,-245.5 675.5,-265.5 717.5,-265.5 717.5,-245.5 675.5,-245.5"/>
<text text-anchor="middle" x="696.5" y="-252.5" font-family="FreeSans" font-size="10.00" fill="#000000">rmax</text>
</a>
</g>
</g>
<!-- Node10&#45;&gt;Node11 -->
<g id="edge14" class="edge">
<title>Node10&#45;&gt;Node11</title>
<path fill="none" stroke="#191970" d="M558.3279,-244.4462C586.7611,-246.7209 633.8841,-250.4907 665.066,-252.9853"/>
<polygon fill="#191970" stroke="#191970" points="665.1265,-256.5012 675.3738,-253.8099 665.6848,-249.5235 665.1265,-256.5012"/>
</g>
<!-- Node10&#45;&gt;Node12 -->
<g id="edge15" class="edge">
<title>Node10&#45;&gt;Node12</title>
<path fill="none" stroke="#191970" d="M557.8394,-232.4506C566.6644,-228.3136 576.5673,-223.1609 585,-217.5 602.7738,-205.5683 602.1399,-195.6276 621,-185.5 626.6446,-182.4689 632.7776,-179.8754 639.0263,-177.6612"/>
<polygon fill="#191970" stroke="#191970" points="640.4418,-180.8824 648.8876,-174.4855 638.2961,-174.2194 640.4418,-180.8824"/>
</g>
<!-- Node13 -->
<g id="node13" class="node">
<title>Node13</title>
<g id="a_node13"><a xlink:href="../../dc/db0/classActs_1_1IVisualization.html#a9e155efef029673b4b9830ef5dfc1af3" target="_top" xlink:title="Acts::IVisualization\l::line">
<polygon fill="none" stroke="#000000" points="640.5,-194.5 640.5,-226.5 752.5,-226.5 752.5,-194.5 640.5,-194.5"/>
<text text-anchor="start" x="648.5" y="-213.5" font-family="FreeSans" font-size="10.00" fill="#000000">Acts::IVisualization</text>
<text text-anchor="middle" x="696.5" y="-201.5" font-family="FreeSans" font-size="10.00" fill="#000000">::line</text>
</a>
</g>
</g>
<!-- Node10&#45;&gt;Node13 -->
<g id="edge16" class="edge">
<title>Node10&#45;&gt;Node13</title>
<path fill="none" stroke="#191970" d="M558.3279,-237.7093C577.3998,-233.9536 604.8807,-228.542 630.3192,-223.5325"/>
<polygon fill="#191970" stroke="#191970" points="631.1819,-226.93 640.3172,-221.5637 629.8293,-220.0619 631.1819,-226.93"/>
</g>
<!-- Node14 -->
<g id="node14" class="node">
<title>Node14</title>
<g id="a_node14"><a xlink:href="../../d9/d04/expat_8h.html#a14bb8924daea0b48c7803f281f66e390" target="_top" xlink:title="int">
<polygon fill="none" stroke="#000000" points="681.5,-284.5 681.5,-304.5 711.5,-304.5 711.5,-284.5 681.5,-284.5"/>
<text text-anchor="middle" x="696.5" y="-291.5" font-family="FreeSans" font-size="10.00" fill="#000000">int</text>
</a>
</g>
</g>
<!-- Node10&#45;&gt;Node14 -->
<g id="edge17" class="edge">
<title>Node10&#45;&gt;Node14</title>
<path fill="none" stroke="#191970" d="M558.3633,-252.1037C579.6823,-260.4403 609.0566,-271.746 621,-275.5 637.6015,-280.7182 656.6011,-285.4934 671.3874,-288.9514"/>
<polygon fill="#191970" stroke="#191970" points="670.7861,-292.4042 681.315,-291.224 672.3482,-285.5807 670.7861,-292.4042"/>
</g>
<!-- Node17 -->
<g id="node17" class="node">
<title>Node17</title>
<g id="a_node17"><a xlink:href="../../df/dce/classActs_1_1Logging_1_1OutputPrintPolicy.html#ab113823970013e1e7f310b36509136ac" target="_top" xlink:title="handle output of debug message">
<polygon fill="none" stroke="#000000" points="621,-104.5 621,-136.5 772,-136.5 772,-104.5 621,-104.5"/>
<text text-anchor="start" x="629" y="-123.5" font-family="FreeSans" font-size="10.00" fill="#000000">Acts::Logging::OutputPrint</text>
<text text-anchor="middle" x="696.5" y="-111.5" font-family="FreeSans" font-size="10.00" fill="#000000">Policy::flush</text>
</a>
</g>
</g>
<!-- Node16&#45;&gt;Node17 -->
<g id="edge21" class="edge">
<title>Node16&#45;&gt;Node17</title>
<path fill="none" stroke="#191970" d="M585.416,-124.6016C593.5027,-124.303 602.0472,-123.9875 610.6607,-123.6695"/>
<polygon fill="#191970" stroke="#191970" points="610.9165,-127.1625 620.7806,-123.2958 610.6582,-120.1673 610.9165,-127.1625"/>
</g>
</g>
</svg>
