<?xml version="1.0" encoding="UTF-8" standalone="no"?>
<!DOCTYPE svg PUBLIC "-//W3C//DTD SVG 1.1//EN"
 "http://www.w3.org/Graphics/SVG/1.1/DTD/svg11.dtd">
<!-- Generated by graphviz version 2.40.1 (20161225.0304)
 -->
<!-- Title: G4CascadParticle::getCurrentZone Pages: 1 -->
<svg width="1774pt" height="359pt"
 viewBox="0.00 0.00 1774.00 359.28" xmlns="http://www.w3.org/2000/svg" xmlns:xlink="http://www.w3.org/1999/xlink">
<g id="graph0" class="graph" transform="scale(1 1) rotate(0) translate(4 355.2768)">
<title>G4CascadParticle::getCurrentZone</title>
<!-- Node1 -->
<g id="node1" class="node">
<title>Node1</title>
<polygon fill="#bfbfbf" stroke="#000000" points="0,-168.5 0,-188.5 191,-188.5 191,-168.5 0,-168.5"/>
<text text-anchor="middle" x="95.5" y="-175.5" font-family="FreeSans" font-size="10.00" fill="#000000">G4CascadParticle::getCurrentZone</text>
</g>
<!-- Node2 -->
<g id="node2" class="node">
<title>Node2</title>
<g id="a_node2"><a xlink:href="../../d9/da6/classG4NucleiModel.html#a6d676ce4adfc6037e1b16a4e1846dde0" target="_top" xlink:title="G4NucleiModel::boundaryTransition">
<polygon fill="none" stroke="#000000" points="454.5,-295.5 454.5,-315.5 650.5,-315.5 650.5,-295.5 454.5,-295.5"/>
<text text-anchor="middle" x="552.5" y="-302.5" font-family="FreeSans" font-size="10.00" fill="#000000">G4NucleiModel::boundaryTransition</text>
</a>
</g>
</g>
<!-- Node1&#45;&gt;Node2 -->
<g id="edge1" class="edge">
<title>Node1&#45;&gt;Node2</title>
<path fill="none" stroke="#191970" d="M113.0486,-195.9909C136.6678,-218.312 181.0528,-256.1103 227,-273.5 299.8888,-301.0862 388.1826,-308.2907 454.4122,-309.0388"/>
<polygon fill="#191970" stroke="#191970" points="115.2195,-193.2221 105.5916,-188.7999 110.3604,-198.2609 115.2195,-193.2221"/>
</g>
<!-- Node3 -->
<g id="node3" class="node">
<title>Node3</title>
<g id="a_node3"><a xlink:href="../../d9/da6/classG4NucleiModel.html#a328aa59398dda26dafeafef5a65e65c8" target="_top" xlink:title="G4NucleiModel::generateParticleFate">
<polygon fill="none" stroke="#000000" points="688,-295.5 688,-315.5 891,-315.5 891,-295.5 688,-295.5"/>
<text text-anchor="middle" x="789.5" y="-302.5" font-family="FreeSans" font-size="10.00" fill="#000000">G4NucleiModel::generateParticleFate</text>
</a>
</g>
</g>
<!-- Node1&#45;&gt;Node3 -->
<g id="edge20" class="edge">
<title>Node1&#45;&gt;Node3</title>
<path fill="none" stroke="#191970" d="M108.2693,-197.0229C129.2605,-225.769 174.056,-280.3245 227,-304.5 408.4423,-387.3508 658.4256,-338.6329 752.0786,-315.5508"/>
<polygon fill="#191970" stroke="#191970" points="110.9664,-194.777 102.3102,-188.6679 105.2674,-198.8417 110.9664,-194.777"/>
</g>
<!-- Node4 -->
<g id="node4" class="node">
<title>Node4</title>
<g id="a_node4"><a xlink:href="../../d9/da6/classG4NucleiModel.html#af3fc2333411f1c87c912c75dc54dac18" target="_top" xlink:title="G4NucleiModel::choosePoint\lAlongTraj">
<polygon fill="none" stroke="#000000" points="472,-181.5 472,-213.5 633,-213.5 633,-181.5 472,-181.5"/>
<text text-anchor="start" x="480" y="-200.5" font-family="FreeSans" font-size="10.00" fill="#000000">G4NucleiModel::choosePoint</text>
<text text-anchor="middle" x="552.5" y="-188.5" font-family="FreeSans" font-size="10.00" fill="#000000">AlongTraj</text>
</a>
</g>
</g>
<!-- Node1&#45;&gt;Node4 -->
<g id="edge3" class="edge">
<title>Node1&#45;&gt;Node4</title>
<path fill="none" stroke="#191970" d="M201.1872,-182.894C283.7192,-186.3253 396.6635,-191.021 471.9756,-194.1522"/>
<polygon fill="#191970" stroke="#191970" points="201.1607,-179.39 191.0239,-182.4715 200.8698,-186.3839 201.1607,-179.39"/>
</g>
<!-- Node6 -->
<g id="node6" class="node">
<title>Node6</title>
<g id="a_node6"><a xlink:href="../../d0/d60/classG4IntraNucleiCascader.html#a796476d7cc1f4ef93f78d61e5ec64ae3" target="_top" xlink:title="G4IntraNucleiCascader\l::decayTrappedParticle">
<polygon fill="none" stroke="#000000" points="255.5,-117.5 255.5,-149.5 388.5,-149.5 388.5,-117.5 255.5,-117.5"/>
<text text-anchor="start" x="263.5" y="-136.5" font-family="FreeSans" font-size="10.00" fill="#000000">G4IntraNucleiCascader</text>
<text text-anchor="middle" x="322" y="-124.5" font-family="FreeSans" font-size="10.00" fill="#000000">::decayTrappedParticle</text>
</a>
</g>
</g>
<!-- Node1&#45;&gt;Node6 -->
<g id="edge5" class="edge">
<title>Node1&#45;&gt;Node6</title>
<path fill="none" stroke="#191970" d="M156.1491,-166.4505C186.7271,-160.3754 223.8824,-152.9936 255.2682,-146.758"/>
<polygon fill="#191970" stroke="#191970" points="155.1753,-163.0755 146.0491,-168.4571 156.5395,-169.9413 155.1753,-163.0755"/>
</g>
<!-- Node19 -->
<g id="node19" class="node">
<title>Node19</title>
<g id="a_node19"><a xlink:href="../../d9/da6/classG4NucleiModel.html#ae1265b5983b0f1dd908167285a71a3f8" target="_top" xlink:title="G4NucleiModel::generateInteraction\lPartners">
<polygon fill="none" stroke="#000000" points="453,-244.5 453,-276.5 652,-276.5 652,-244.5 453,-244.5"/>
<text text-anchor="start" x="461" y="-263.5" font-family="FreeSans" font-size="10.00" fill="#000000">G4NucleiModel::generateInteraction</text>
<text text-anchor="middle" x="552.5" y="-251.5" font-family="FreeSans" font-size="10.00" fill="#000000">Partners</text>
</a>
</g>
</g>
<!-- Node1&#45;&gt;Node19 -->
<g id="edge18" class="edge">
<title>Node1&#45;&gt;Node19</title>
<path fill="none" stroke="#191970" d="M117.5725,-194.5894C142.6558,-211.8417 185.5144,-238.267 227,-249.5 300.8159,-269.487 387.4892,-271.4253 452.8307,-268.807"/>
<polygon fill="#191970" stroke="#191970" points="119.367,-191.5729 109.171,-188.6935 115.3459,-197.3028 119.367,-191.5729"/>
</g>
<!-- Node20 -->
<g id="node20" class="node">
<title>Node20</title>
<g id="a_node20"><a xlink:href="../../d9/da6/classG4NucleiModel.html#a3ee9795ba451e3980cc404cfbe8dae50" target="_top" xlink:title="G4NucleiModel::inverseMean\lFreePath">
<polygon fill="none" stroke="#000000" points="240,-207.5 240,-239.5 404,-239.5 404,-207.5 240,-207.5"/>
<text text-anchor="start" x="248" y="-226.5" font-family="FreeSans" font-size="10.00" fill="#000000">G4NucleiModel::inverseMean</text>
<text text-anchor="middle" x="322" y="-214.5" font-family="FreeSans" font-size="10.00" fill="#000000">FreePath</text>
</a>
</g>
</g>
<!-- Node1&#45;&gt;Node20 -->
<g id="edge21" class="edge">
<title>Node1&#45;&gt;Node20</title>
<path fill="none" stroke="#191970" d="M156.1943,-190.5585C182.3534,-195.7556 213.3197,-201.9079 241.3678,-207.4804"/>
<polygon fill="#191970" stroke="#191970" points="156.5395,-187.0587 146.0491,-188.5429 155.1753,-193.9245 156.5395,-187.0587"/>
</g>
<!-- Node21 -->
<g id="node21" class="node">
<title>Node21</title>
<g id="a_node21"><a xlink:href="../../df/de8/classG4CascadeHistory.html#a32cf613a1e34ec3a308d9b85d39032c5" target="_top" xlink:title="G4CascadeHistory::PrintEntry">
<polygon fill="none" stroke="#000000" points="239.5,-78.5 239.5,-98.5 404.5,-98.5 404.5,-78.5 239.5,-78.5"/>
<text text-anchor="middle" x="322" y="-85.5" font-family="FreeSans" font-size="10.00" fill="#000000">G4CascadeHistory::PrintEntry</text>
</a>
</g>
</g>
<!-- Node1&#45;&gt;Node21 -->
<g id="edge24" class="edge">
<title>Node1&#45;&gt;Node21</title>
<path fill="none" stroke="#191970" d="M119.2117,-162.8751C144.7935,-146.7067 187.2231,-121.8502 227,-107.5 236.8885,-103.9326 247.611,-100.9745 258.171,-98.541"/>
<polygon fill="#191970" stroke="#191970" points="117.1164,-160.0608 110.5853,-168.4032 120.8933,-165.9545 117.1164,-160.0608"/>
</g>
<!-- Node24 -->
<g id="node24" class="node">
<title>Node24</title>
<g id="a_node24"><a xlink:href="../../d9/da6/classG4NucleiModel.html#a94cb45ba6c969fef83dadc440e67100e" target="_top" xlink:title="G4NucleiModel::stillInside">
<polygon fill="none" stroke="#000000" points="248.5,-39.5 248.5,-59.5 395.5,-59.5 395.5,-39.5 248.5,-39.5"/>
<text text-anchor="middle" x="322" y="-46.5" font-family="FreeSans" font-size="10.00" fill="#000000">G4NucleiModel::stillInside</text>
</a>
</g>
</g>
<!-- Node1&#45;&gt;Node24 -->
<g id="edge29" class="edge">
<title>Node1&#45;&gt;Node24</title>
<path fill="none" stroke="#191970" d="M111.075,-160.7946C133.9142,-136.0287 179.0134,-91.5029 227,-68.5 234.5836,-64.8647 242.8287,-61.9247 251.1878,-59.547"/>
<polygon fill="#191970" stroke="#191970" points="108.3278,-158.6141 104.2109,-168.3763 113.517,-163.3122 108.3278,-158.6141"/>
</g>
<!-- Node25 -->
<g id="node25" class="node">
<title>Node25</title>
<g id="a_node25"><a xlink:href="../../d9/da6/classG4NucleiModel.html#a814b5d906eacadb3c1986d80e690a47c" target="_top" xlink:title="G4NucleiModel::worthToPropagate">
<polygon fill="none" stroke="#000000" points="227,-.5 227,-20.5 417,-20.5 417,-.5 227,-.5"/>
<text text-anchor="middle" x="322" y="-7.5" font-family="FreeSans" font-size="10.00" fill="#000000">G4NucleiModel::worthToPropagate</text>
</a>
</g>
</g>
<!-- Node1&#45;&gt;Node25 -->
<g id="edge30" class="edge">
<title>Node1&#45;&gt;Node25</title>
<path fill="none" stroke="#191970" d="M106.6364,-159.1884C126.4139,-126.7731 170.9145,-61.8026 227,-29.5 233.2673,-25.8903 240.1094,-22.9572 247.1565,-20.5753"/>
<polygon fill="#191970" stroke="#191970" points="103.4198,-157.7489 101.3068,-168.1309 109.4329,-161.3326 103.4198,-157.7489"/>
</g>
<!-- Node2&#45;&gt;Node3 -->
<g id="edge2" class="edge">
<title>Node2&#45;&gt;Node3</title>
<path fill="none" stroke="#191970" d="M660.692,-305.5C669.6634,-305.5 678.7143,-305.5 687.6367,-305.5"/>
<polygon fill="#191970" stroke="#191970" points="660.6078,-302.0001 650.6078,-305.5 660.6077,-309.0001 660.6078,-302.0001"/>
</g>
<!-- Node5 -->
<g id="node5" class="node">
<title>Node5</title>
<g id="a_node5"><a xlink:href="../../d9/da6/classG4NucleiModel.html#a25ea8d2ef21c555a3df9ba46209126e0" target="_top" xlink:title="G4NucleiModel::initialize\lCascad">
<polygon fill="none" stroke="#000000" points="719,-181.5 719,-213.5 860,-213.5 860,-181.5 719,-181.5"/>
<text text-anchor="start" x="727" y="-200.5" font-family="FreeSans" font-size="10.00" fill="#000000">G4NucleiModel::initialize</text>
<text text-anchor="middle" x="789.5" y="-188.5" font-family="FreeSans" font-size="10.00" fill="#000000">Cascad</text>
</a>
</g>
</g>
<!-- Node4&#45;&gt;Node5 -->
<g id="edge4" class="edge">
<title>Node4&#45;&gt;Node5</title>
<path fill="none" stroke="#191970" d="M643.2835,-197.5C668.2685,-197.5 694.995,-197.5 718.6737,-197.5"/>
<polygon fill="#191970" stroke="#191970" points="643.0681,-194.0001 633.0681,-197.5 643.0681,-201.0001 643.0681,-194.0001"/>
</g>
<!-- Node7 -->
<g id="node7" class="node">
<title>Node7</title>
<g id="a_node7"><a xlink:href="../../d0/d60/classG4IntraNucleiCascader.html#a1587032c6036e316cc9c37499b74ab63" target="_top" xlink:title="G4IntraNucleiCascader\l::processTrappedParticle">
<polygon fill="none" stroke="#000000" points="482.5,-117.5 482.5,-149.5 622.5,-149.5 622.5,-117.5 482.5,-117.5"/>
<text text-anchor="start" x="490.5" y="-136.5" font-family="FreeSans" font-size="10.00" fill="#000000">G4IntraNucleiCascader</text>
<text text-anchor="middle" x="552.5" y="-124.5" font-family="FreeSans" font-size="10.00" fill="#000000">::processTrappedParticle</text>
</a>
</g>
</g>
<!-- Node6&#45;&gt;Node7 -->
<g id="edge6" class="edge">
<title>Node6&#45;&gt;Node7</title>
<path fill="none" stroke="#191970" d="M398.8403,-133.5C425.8188,-133.5 455.9679,-133.5 482.3668,-133.5"/>
<polygon fill="#191970" stroke="#191970" points="398.6702,-130.0001 388.6702,-133.5 398.6701,-137.0001 398.6702,-130.0001"/>
</g>
<!-- Node8 -->
<g id="node8" class="node">
<title>Node8</title>
<g id="a_node8"><a xlink:href="../../d0/d60/classG4IntraNucleiCascader.html#a2def5ba7879b20884cb93f062d50615c" target="_top" xlink:title="G4IntraNucleiCascader\l::generateCascade">
<polygon fill="none" stroke="#000000" points="723,-117.5 723,-149.5 856,-149.5 856,-117.5 723,-117.5"/>
<text text-anchor="start" x="731" y="-136.5" font-family="FreeSans" font-size="10.00" fill="#000000">G4IntraNucleiCascader</text>
<text text-anchor="middle" x="789.5" y="-124.5" font-family="FreeSans" font-size="10.00" fill="#000000">::generateCascade</text>
</a>
</g>
</g>
<!-- Node7&#45;&gt;Node8 -->
<g id="edge7" class="edge">
<title>Node7&#45;&gt;Node8</title>
<path fill="none" stroke="#191970" d="M632.8375,-133.5C662.0989,-133.5 694.836,-133.5 722.7874,-133.5"/>
<polygon fill="#191970" stroke="#191970" points="632.6459,-130.0001 622.6459,-133.5 632.6458,-137.0001 632.6459,-130.0001"/>
</g>
<!-- Node9 -->
<g id="node9" class="node">
<title>Node9</title>
<g id="a_node9"><a xlink:href="../../d0/d60/classG4IntraNucleiCascader.html#a7c34f74d66dd88e6952625ea5b6e2b34" target="_top" xlink:title="G4IntraNucleiCascader\l::collide">
<polygon fill="none" stroke="#000000" points="927,-72.5 927,-104.5 1060,-104.5 1060,-72.5 927,-72.5"/>
<text text-anchor="start" x="935" y="-91.5" font-family="FreeSans" font-size="10.00" fill="#000000">G4IntraNucleiCascader</text>
<text text-anchor="middle" x="993.5" y="-79.5" font-family="FreeSans" font-size="10.00" fill="#000000">::collide</text>
</a>
</g>
</g>
<!-- Node8&#45;&gt;Node9 -->
<g id="edge8" class="edge">
<title>Node8&#45;&gt;Node9</title>
<path fill="none" stroke="#191970" d="M865.9972,-116.6256C885.9589,-112.2223 907.3131,-107.5118 926.7265,-103.2295"/>
<polygon fill="#191970" stroke="#191970" points="865.0262,-113.2556 856.015,-118.8276 866.5342,-120.0912 865.0262,-113.2556"/>
</g>
<!-- Node16 -->
<g id="node16" class="node">
<title>Node16</title>
<g id="a_node16"><a xlink:href="../../d0/d60/classG4IntraNucleiCascader.html#a62942b76c53e512c5aaf2afa04e886be" target="_top" xlink:title="G4IntraNucleiCascader\l::rescatter">
<polygon fill="none" stroke="#000000" points="927,-123.5 927,-155.5 1060,-155.5 1060,-123.5 927,-123.5"/>
<text text-anchor="start" x="935" y="-142.5" font-family="FreeSans" font-size="10.00" fill="#000000">G4IntraNucleiCascader</text>
<text text-anchor="middle" x="993.5" y="-130.5" font-family="FreeSans" font-size="10.00" fill="#000000">::rescatter</text>
</a>
</g>
</g>
<!-- Node8&#45;&gt;Node16 -->
<g id="edge15" class="edge">
<title>Node8&#45;&gt;Node16</title>
<path fill="none" stroke="#191970" d="M866.2708,-135.758C886.1539,-136.3428 907.4018,-136.9677 926.7265,-137.5361"/>
<polygon fill="#191970" stroke="#191970" points="866.1136,-132.2519 856.015,-135.4563 865.9077,-139.2489 866.1136,-132.2519"/>
</g>
<!-- Node10 -->
<g id="node10" class="node">
<title>Node10</title>
<g id="a_node10"><a xlink:href="../../d4/d24/classG4InuclCollider.html#ab4109b3dbea48ffe64e45bab046ca4e5" target="_top" xlink:title="G4InuclCollider::collide">
<polygon fill="none" stroke="#000000" points="1102.5,-78.5 1102.5,-98.5 1235.5,-98.5 1235.5,-78.5 1102.5,-78.5"/>
<text text-anchor="middle" x="1169" y="-85.5" font-family="FreeSans" font-size="10.00" fill="#000000">G4InuclCollider::collide</text>
</a>
</g>
</g>
<!-- Node9&#45;&gt;Node10 -->
<g id="edge9" class="edge">
<title>Node9&#45;&gt;Node10</title>
<path fill="none" stroke="#191970" d="M1070.2846,-88.5C1081.0011,-88.5 1091.9393,-88.5 1102.4462,-88.5"/>
<polygon fill="#191970" stroke="#191970" points="1070.0993,-85.0001 1060.0993,-88.5 1070.0992,-92.0001 1070.0993,-85.0001"/>
</g>
<!-- Node11 -->
<g id="node11" class="node">
<title>Node11</title>
<g id="a_node11"><a xlink:href="../../dc/d8b/classG4CascadeInterface.html#a3e0ff37200e59c01d332761f8840fde0" target="_top" xlink:title="G4CascadeInterface\l::ApplyYourself">
<polygon fill="none" stroke="#000000" points="1278,-72.5 1278,-104.5 1396,-104.5 1396,-72.5 1278,-72.5"/>
<text text-anchor="start" x="1286" y="-91.5" font-family="FreeSans" font-size="10.00" fill="#000000">G4CascadeInterface</text>
<text text-anchor="middle" x="1337" y="-79.5" font-family="FreeSans" font-size="10.00" fill="#000000">::ApplyYourself</text>
</a>
</g>
</g>
<!-- Node10&#45;&gt;Node11 -->
<g id="edge10" class="edge">
<title>Node10&#45;&gt;Node11</title>
<path fill="none" stroke="#191970" d="M1246.0783,-88.5C1256.7867,-88.5 1267.6461,-88.5 1277.9541,-88.5"/>
<polygon fill="#191970" stroke="#191970" points="1245.8808,-85.0001 1235.8808,-88.5 1245.8807,-92.0001 1245.8808,-85.0001"/>
</g>
<!-- Node12 -->
<g id="node12" class="node">
<title>Node12</title>
<g id="a_node12"><a xlink:href="../../d8/d6b/classG4ElectroVDNuclearModel.html#a15792692047f53ba39b7f7ad0332ac24" target="_top" xlink:title="G4ElectroVDNuclearModel\l::CalculateHadronicVertex">
<polygon fill="none" stroke="#000000" points="1432,-98.5 1432,-130.5 1581,-130.5 1581,-98.5 1432,-98.5"/>
<text text-anchor="start" x="1440" y="-117.5" font-family="FreeSans" font-size="10.00" fill="#000000">G4ElectroVDNuclearModel</text>
<text text-anchor="middle" x="1506.5" y="-105.5" font-family="FreeSans" font-size="10.00" fill="#000000">::CalculateHadronicVertex</text>
</a>
</g>
</g>
<!-- Node11&#45;&gt;Node12 -->
<g id="edge11" class="edge">
<title>Node11&#45;&gt;Node12</title>
<path fill="none" stroke="#191970" d="M1406.366,-99.1402C1414.7353,-100.424 1423.3118,-101.7396 1431.754,-103.0345"/>
<polygon fill="#191970" stroke="#191970" points="1406.698,-95.6503 1396.2829,-97.5935 1405.6366,-102.5693 1406.698,-95.6503"/>
</g>
<!-- Node14 -->
<g id="node14" class="node">
<title>Node14</title>
<g id="a_node14"><a xlink:href="../../d5/da9/classG4MuonVDNuclearModel.html#a9f20635edab81218a1833ad64c6a3729" target="_top" xlink:title="G4MuonVDNuclearModel\l::CalculateHadronicVertex">
<polygon fill="none" stroke="#000000" points="1432.5,-47.5 1432.5,-79.5 1580.5,-79.5 1580.5,-47.5 1432.5,-47.5"/>
<text text-anchor="start" x="1440.5" y="-66.5" font-family="FreeSans" font-size="10.00" fill="#000000">G4MuonVDNuclearModel</text>
<text text-anchor="middle" x="1506.5" y="-54.5" font-family="FreeSans" font-size="10.00" fill="#000000">::CalculateHadronicVertex</text>
</a>
</g>
</g>
<!-- Node11&#45;&gt;Node14 -->
<g id="edge13" class="edge">
<title>Node11&#45;&gt;Node14</title>
<path fill="none" stroke="#191970" d="M1406.2556,-78.2853C1414.8561,-77.0168 1423.677,-75.7158 1432.3475,-74.4369"/>
<polygon fill="#191970" stroke="#191970" points="1405.6651,-74.8344 1396.2829,-79.7562 1406.6866,-81.7595 1405.6651,-74.8344"/>
</g>
<!-- Node13 -->
<g id="node13" class="node">
<title>Node13</title>
<g id="a_node13"><a xlink:href="../../d8/d6b/classG4ElectroVDNuclearModel.html#aff2070bcaa641e29a7d5896bab279936" target="_top" xlink:title="G4ElectroVDNuclearModel\l::ApplyYourself">
<polygon fill="none" stroke="#000000" points="1617,-98.5 1617,-130.5 1766,-130.5 1766,-98.5 1617,-98.5"/>
<text text-anchor="start" x="1625" y="-117.5" font-family="FreeSans" font-size="10.00" fill="#000000">G4ElectroVDNuclearModel</text>
<text text-anchor="middle" x="1691.5" y="-105.5" font-family="FreeSans" font-size="10.00" fill="#000000">::ApplyYourself</text>
</a>
</g>
</g>
<!-- Node12&#45;&gt;Node13 -->
<g id="edge12" class="edge">
<title>Node12&#45;&gt;Node13</title>
<path fill="none" stroke="#191970" d="M1591.4683,-114.5C1599.9256,-114.5 1608.4675,-114.5 1616.8085,-114.5"/>
<polygon fill="#191970" stroke="#191970" points="1591.2134,-111.0001 1581.2133,-114.5 1591.2133,-118.0001 1591.2134,-111.0001"/>
</g>
<!-- Node15 -->
<g id="node15" class="node">
<title>Node15</title>
<g id="a_node15"><a xlink:href="../../d5/da9/classG4MuonVDNuclearModel.html#a6e88b64afe9457368de2eb053dac08a6" target="_top" xlink:title="G4MuonVDNuclearModel\l::ApplyYourself">
<polygon fill="none" stroke="#000000" points="1620.5,-47.5 1620.5,-79.5 1762.5,-79.5 1762.5,-47.5 1620.5,-47.5"/>
<text text-anchor="start" x="1628.5" y="-66.5" font-family="FreeSans" font-size="10.00" fill="#000000">G4MuonVDNuclearModel</text>
<text text-anchor="middle" x="1691.5" y="-54.5" font-family="FreeSans" font-size="10.00" fill="#000000">::ApplyYourself</text>
</a>
</g>
</g>
<!-- Node14&#45;&gt;Node15 -->
<g id="edge14" class="edge">
<title>Node14&#45;&gt;Node15</title>
<path fill="none" stroke="#191970" d="M1590.8705,-63.5C1600.7097,-63.5 1610.6725,-63.5 1620.3091,-63.5"/>
<polygon fill="#191970" stroke="#191970" points="1590.6806,-60.0001 1580.6806,-63.5 1590.6806,-67.0001 1590.6806,-60.0001"/>
</g>
<!-- Node17 -->
<g id="node17" class="node">
<title>Node17</title>
<g id="a_node17"><a xlink:href="../../d4/d24/classG4InuclCollider.html#ab9f3bf1a38c40ca67811009ca7e8adaf" target="_top" xlink:title="G4InuclCollider::rescatter">
<polygon fill="none" stroke="#000000" points="1096,-129.5 1096,-149.5 1242,-149.5 1242,-129.5 1096,-129.5"/>
<text text-anchor="middle" x="1169" y="-136.5" font-family="FreeSans" font-size="10.00" fill="#000000">G4InuclCollider::rescatter</text>
</a>
</g>
</g>
<!-- Node16&#45;&gt;Node17 -->
<g id="edge16" class="edge">
<title>Node16&#45;&gt;Node17</title>
<path fill="none" stroke="#191970" d="M1070.1062,-139.5C1078.7046,-139.5 1087.4481,-139.5 1095.9992,-139.5"/>
<polygon fill="#191970" stroke="#191970" points="1070.0993,-136.0001 1060.0993,-139.5 1070.0992,-143.0001 1070.0993,-136.0001"/>
</g>
<!-- Node18 -->
<g id="node18" class="node">
<title>Node18</title>
<g id="a_node18"><a xlink:href="../../dc/d8b/classG4CascadeInterface.html#ab8f6e4c678c2908475a4bca6dbc7bcb1" target="_top" xlink:title="G4CascadeInterface\l::Propagate">
<polygon fill="none" stroke="#000000" points="1278,-123.5 1278,-155.5 1396,-155.5 1396,-123.5 1278,-123.5"/>
<text text-anchor="start" x="1286" y="-142.5" font-family="FreeSans" font-size="10.00" fill="#000000">G4CascadeInterface</text>
<text text-anchor="middle" x="1337" y="-130.5" font-family="FreeSans" font-size="10.00" fill="#000000">::Propagate</text>
</a>
</g>
</g>
<!-- Node17&#45;&gt;Node18 -->
<g id="edge17" class="edge">
<title>Node17&#45;&gt;Node18</title>
<path fill="none" stroke="#191970" d="M1252.3187,-139.5C1260.9621,-139.5 1269.6151,-139.5 1277.9116,-139.5"/>
<polygon fill="#191970" stroke="#191970" points="1252.1986,-136.0001 1242.1985,-139.5 1252.1985,-143.0001 1252.1986,-136.0001"/>
</g>
<!-- Node19&#45;&gt;Node3 -->
<g id="edge19" class="edge">
<title>Node19&#45;&gt;Node3</title>
<path fill="none" stroke="#191970" d="M646.8956,-278.4232C677.4686,-284.2282 710.2768,-290.4576 736.7077,-295.4761"/>
<polygon fill="#191970" stroke="#191970" points="647.5361,-274.9824 637.0587,-276.5555 646.2303,-281.8595 647.5361,-274.9824"/>
</g>
<!-- Node20&#45;&gt;Node4 -->
<g id="edge23" class="edge">
<title>Node20&#45;&gt;Node4</title>
<path fill="none" stroke="#191970" d="M414.3939,-213.0781C433.406,-210.9336 453.2827,-208.6915 471.8406,-206.5982"/>
<polygon fill="#191970" stroke="#191970" points="413.7842,-209.6246 404.2396,-214.2235 414.5689,-216.5805 413.7842,-209.6246"/>
</g>
<!-- Node20&#45;&gt;Node19 -->
<g id="edge22" class="edge">
<title>Node20&#45;&gt;Node19</title>
<path fill="none" stroke="#191970" d="M414.329,-238.3207C427.0285,-240.3592 440.115,-242.4599 452.9375,-244.5182"/>
<polygon fill="#191970" stroke="#191970" points="414.6679,-234.8304 404.2396,-236.7011 413.5584,-241.7419 414.6679,-234.8304"/>
</g>
<!-- Node22 -->
<g id="node22" class="node">
<title>Node22</title>
<g id="a_node22"><a xlink:href="../../df/de8/classG4CascadeHistory.html#acfb5388a5dcab4faee541bf67a21ecbf" target="_top" xlink:title="G4CascadeHistory::Print">
<polygon fill="none" stroke="#000000" points="720,-78.5 720,-98.5 859,-98.5 859,-78.5 720,-78.5"/>
<text text-anchor="middle" x="789.5" y="-85.5" font-family="FreeSans" font-size="10.00" fill="#000000">G4CascadeHistory::Print</text>
</a>
</g>
</g>
<!-- Node21&#45;&gt;Node22 -->
<g id="edge25" class="edge">
<title>Node21&#45;&gt;Node22</title>
<path fill="none" stroke="#191970" d="M414.6779,-88.5C504.4348,-88.5 638.5258,-88.5 719.6339,-88.5"/>
<polygon fill="#191970" stroke="#191970" points="414.5035,-85.0001 404.5035,-88.5 414.5034,-92.0001 414.5035,-85.0001"/>
</g>
<!-- Node22&#45;&gt;Node9 -->
<g id="edge26" class="edge">
<title>Node22&#45;&gt;Node9</title>
<path fill="none" stroke="#191970" d="M869.2962,-88.5C888.369,-88.5 908.5304,-88.5 926.9343,-88.5"/>
<polygon fill="#191970" stroke="#191970" points="869.1347,-85.0001 859.1347,-88.5 869.1346,-92.0001 869.1347,-85.0001"/>
</g>
<!-- Node22&#45;&gt;Node16 -->
<g id="edge28" class="edge">
<title>Node22&#45;&gt;Node16</title>
<path fill="none" stroke="#191970" d="M859.6371,-100.5141C870.1914,-102.6438 880.9143,-104.9909 891,-107.5 909.1812,-112.0231 928.8844,-117.9266 946.1125,-123.4296"/>
<polygon fill="#191970" stroke="#191970" points="860.0833,-97.0349 849.596,-98.5406 858.7332,-103.9035 860.0833,-97.0349"/>
</g>
<!-- Node23 -->
<g id="node23" class="node">
<title>Node23</title>
<g id="a_node23"><a xlink:href="../../df/ddd/G4CascadeHistory_8cc.html#af0fef80160401b67250e62ab0aeaf263" target="_top" xlink:title="operator\&lt;\&lt;">
<polygon fill="none" stroke="#000000" points="955.5,-33.5 955.5,-53.5 1031.5,-53.5 1031.5,-33.5 955.5,-33.5"/>
<text text-anchor="middle" x="993.5" y="-40.5" font-family="FreeSans" font-size="10.00" fill="#000000">operator&lt;&lt;</text>
</a>
</g>
</g>
<!-- Node22&#45;&gt;Node23 -->
<g id="edge27" class="edge">
<title>Node22&#45;&gt;Node23</title>
<path fill="none" stroke="#191970" d="M845.0895,-76.2376C880.0519,-68.5253 924.2605,-58.7734 955.2993,-51.9266"/>
<polygon fill="#191970" stroke="#191970" points="844.0389,-72.8851 835.0277,-78.4571 845.5469,-79.7208 844.0389,-72.8851"/>
</g>
</g>
</svg>
