<?xml version="1.0" encoding="UTF-8" standalone="no"?>
<!DOCTYPE svg PUBLIC "-//W3C//DTD SVG 1.1//EN"
 "http://www.w3.org/Graphics/SVG/1.1/DTD/svg11.dtd">
<!-- Generated by graphviz version 2.40.1 (20161225.0304)
 -->
<!-- Title: G4VisTrajContext Pages: 1 -->
<svg width="222pt" height="400pt"
 viewBox="0.00 0.00 221.50 400.00" xmlns="http://www.w3.org/2000/svg" xmlns:xlink="http://www.w3.org/1999/xlink">
<g id="graph0" class="graph" transform="scale(1 1) rotate(0) translate(4 396)">
<title>G4VisTrajContext</title>
<!-- Node1 -->
<g id="node1" class="node">
<title>Node1</title>
<polygon fill="#bfbfbf" stroke="#000000" points="2,-.5 2,-20.5 105,-20.5 105,-.5 2,-.5"/>
<text text-anchor="middle" x="53.5" y="-7.5" font-family="FreeSans" font-size="10.00" fill="#000000">G4VisTrajContext</text>
</g>
<!-- Node2 -->
<g id="node2" class="node">
<title>Node2</title>
<g id="a_node2"><a xlink:href="../../d5/d72/classG4String.html" target="_top" xlink:title="G4String">
<polygon fill="none" stroke="#000000" points="23.5,-243.5 23.5,-263.5 83.5,-263.5 83.5,-243.5 23.5,-243.5"/>
<text text-anchor="middle" x="53.5" y="-250.5" font-family="FreeSans" font-size="10.00" fill="#000000">G4String</text>
</a>
</g>
</g>
<!-- Node2&#45;&gt;Node1 -->
<g id="edge1" class="edge">
<title>Node2&#45;&gt;Node1</title>
<path fill="none" stroke="#9a32cd" stroke-dasharray="5,2" d="M53.5,-233.248C53.5,-183.638 53.5,-57.4118 53.5,-20.6753"/>
<polygon fill="#9a32cd" stroke="#9a32cd" points="50.0001,-233.3679 53.5,-243.368 57.0001,-233.368 50.0001,-233.3679"/>
<text text-anchor="middle" x="72" y="-135" font-family="FreeSans" font-size="10.00" fill="#000000"> fName</text>
</g>
<!-- Node6 -->
<g id="node6" class="node">
<title>Node6</title>
<polygon fill="none" stroke="#bfbfbf" points="65.5,-162.5 65.5,-194.5 185.5,-194.5 185.5,-162.5 65.5,-162.5"/>
<text text-anchor="start" x="73.5" y="-181.5" font-family="FreeSans" font-size="10.00" fill="#000000">std::map&lt; G4String,</text>
<text text-anchor="middle" x="125.5" y="-169.5" font-family="FreeSans" font-size="10.00" fill="#000000"> G4Colour &gt;</text>
</g>
<!-- Node2&#45;&gt;Node6 -->
<g id="edge8" class="edge">
<title>Node2&#45;&gt;Node6</title>
<path fill="none" stroke="#9a32cd" stroke-dasharray="5,2" d="M70.4066,-235.889C82.3534,-223.4443 98.248,-206.8875 109.8937,-194.7566"/>
<polygon fill="#9a32cd" stroke="#9a32cd" points="67.6107,-233.7474 63.2102,-243.3852 72.6605,-238.5951 67.6107,-233.7474"/>
<text text-anchor="middle" x="105" y="-216" font-family="FreeSans" font-size="10.00" fill="#000000"> keys</text>
</g>
<!-- Node3 -->
<g id="node3" class="node">
<title>Node3</title>
<g id="a_node3"><a xlink:title="STL class.">
<polygon fill="none" stroke="#bfbfbf" points="20,-301.5 20,-321.5 87,-321.5 87,-301.5 20,-301.5"/>
<text text-anchor="middle" x="53.5" y="-308.5" font-family="FreeSans" font-size="10.00" fill="#000000">std::string</text>
</a>
</g>
</g>
<!-- Node3&#45;&gt;Node2 -->
<g id="edge2" class="edge">
<title>Node3&#45;&gt;Node2</title>
<path fill="none" stroke="#191970" d="M40.5804,-291.3902C39.3338,-282.1201 40.0954,-271.5083 42.8652,-263.8776"/>
<polygon fill="#191970" stroke="#191970" points="37.2424,-292.4816 42.9663,-301.3972 44.0515,-290.8581 37.2424,-292.4816"/>
</g>
<!-- Node3&#45;&gt;Node2 -->
<g id="edge4" class="edge">
<title>Node3&#45;&gt;Node2</title>
<path fill="none" stroke="#191970" d="M53.5,-291.3902C53.5,-282.1201 53.5,-271.5083 53.5,-263.8776"/>
<polygon fill="#191970" stroke="#191970" points="50.0001,-291.3971 53.5,-301.3972 57.0001,-291.3972 50.0001,-291.3971"/>
</g>
<!-- Node3&#45;&gt;Node2 -->
<g id="edge5" class="edge">
<title>Node3&#45;&gt;Node2</title>
<path fill="none" stroke="#191970" d="M66.4196,-291.3902C67.6662,-282.1201 66.9046,-271.5083 64.1348,-263.8776"/>
<polygon fill="#191970" stroke="#191970" points="62.9485,-290.8581 64.0337,-301.3972 69.7576,-292.4816 62.9485,-290.8581"/>
</g>
<!-- Node4 -->
<g id="node4" class="node">
<title>Node4</title>
<g id="a_node4"><a xlink:title="STL class.">
<polygon fill="none" stroke="#bfbfbf" points="0,-359.5 0,-391.5 107,-391.5 107,-359.5 0,-359.5"/>
<text text-anchor="start" x="8" y="-378.5" font-family="FreeSans" font-size="10.00" fill="#000000">std::basic_string&lt;</text>
<text text-anchor="middle" x="53.5" y="-366.5" font-family="FreeSans" font-size="10.00" fill="#000000"> char &gt;</text>
</a>
</g>
</g>
<!-- Node4&#45;&gt;Node3 -->
<g id="edge3" class="edge">
<title>Node4&#45;&gt;Node3</title>
<path fill="none" stroke="#191970" d="M53.5,-349.2639C53.5,-339.5394 53.5,-329.0805 53.5,-321.641"/>
<polygon fill="#191970" stroke="#191970" points="50.0001,-349.3501 53.5,-359.3501 57.0001,-349.3501 50.0001,-349.3501"/>
</g>
<!-- Node5 -->
<g id="node5" class="node">
<title>Node5</title>
<g id="a_node5"><a xlink:href="../../da/daf/classG4Colour.html" target="_top" xlink:title="G4Colour">
<polygon fill="none" stroke="#000000" points="65.5,-93.5 65.5,-113.5 129.5,-113.5 129.5,-93.5 65.5,-93.5"/>
<text text-anchor="middle" x="97.5" y="-100.5" font-family="FreeSans" font-size="10.00" fill="#000000">G4Colour</text>
</a>
</g>
</g>
<!-- Node5&#45;&gt;Node1 -->
<g id="edge6" class="edge">
<title>Node5&#45;&gt;Node1</title>
<path fill="none" stroke="#9a32cd" stroke-dasharray="5,2" d="M88.3053,-84.0657C79.1439,-64.702 65.438,-35.7326 58.265,-20.5714"/>
<polygon fill="#9a32cd" stroke="#9a32cd" points="85.1826,-85.6495 92.6231,-93.192 91.5102,-82.6558 85.1826,-85.6495"/>
<text text-anchor="middle" x="120" y="-66" font-family="FreeSans" font-size="10.00" fill="#000000"> fLineColour</text>
<text text-anchor="middle" x="120" y="-54" font-family="FreeSans" font-size="10.00" fill="#000000">fAuxPtsColour</text>
<text text-anchor="middle" x="120" y="-42" font-family="FreeSans" font-size="10.00" fill="#000000">fStepPtsColour</text>
</g>
<!-- Node5&#45;&gt;Node6 -->
<g id="edge9" class="edge">
<title>Node5&#45;&gt;Node6</title>
<path fill="none" stroke="#9a32cd" stroke-dasharray="5,2" d="M138.9679,-114.1712C147.4758,-118.3279 155.386,-124.0736 160.5,-132 167.183,-142.3583 159.5474,-153.4046 149.7227,-162.1306"/>
<polygon fill="#9a32cd" stroke="#9a32cd" points="140.1814,-110.885 129.6053,-110.2562 137.4809,-117.3431 140.1814,-110.885"/>
<text text-anchor="middle" x="188" y="-135" font-family="FreeSans" font-size="10.00" fill="#000000"> elements</text>
</g>
<!-- Node6&#45;&gt;Node5 -->
<g id="edge7" class="edge">
<title>Node6&#45;&gt;Node5</title>
<path fill="none" stroke="#9a32cd" stroke-dasharray="5,2" d="M103.3631,-153.8773C101.4118,-150.7183 99.7181,-147.3962 98.5,-144 94.9858,-134.2017 95.2006,-122.1964 96.0074,-113.8109"/>
<polygon fill="#9a32cd" stroke="#9a32cd" points="100.7015,-156.1727 109.3633,-162.2738 106.3968,-152.1028 100.7015,-156.1727"/>
<text text-anchor="middle" x="129.5" y="-135" font-family="FreeSans" font-size="10.00" fill="#000000"> fColourMap</text>
</g>
</g>
</svg>
