<?xml version="1.0" encoding="UTF-8" standalone="no"?>
<!DOCTYPE svg PUBLIC "-//W3C//DTD SVG 1.1//EN"
 "http://www.w3.org/Graphics/SVG/1.1/DTD/svg11.dtd">
<!-- Generated by graphviz version 2.40.1 (20161225.0304)
 -->
<!-- Title: G4FPYNormalFragmentDist::GetFissionProduct Pages: 1 -->
<svg width="748pt" height="143pt"
 viewBox="0.00 0.00 748.00 143.00" xmlns="http://www.w3.org/2000/svg" xmlns:xlink="http://www.w3.org/1999/xlink">
<g id="graph0" class="graph" transform="scale(1 1) rotate(0) translate(4 139)">
<title>G4FPYNormalFragmentDist::GetFissionProduct</title>
<!-- Node1 -->
<g id="node1" class="node">
<title>Node1</title>
<polygon fill="#bfbfbf" stroke="#000000" points="0,-25.5 0,-57.5 153,-57.5 153,-25.5 0,-25.5"/>
<text text-anchor="start" x="8" y="-44.5" font-family="FreeSans" font-size="10.00" fill="#000000">G4FPYNormalFragmentDist</text>
<text text-anchor="middle" x="76.5" y="-32.5" font-family="FreeSans" font-size="10.00" fill="#000000">::GetFissionProduct</text>
</g>
<!-- Node2 -->
<g id="node2" class="node">
<title>Node2</title>
<g id="a_node2"><a xlink:href="../../d0/df8/classG4FissionProductYieldDist.html#a831146a91f90ee2365705e8ca53fe17a" target="_top" xlink:title="G4FissionProductYieldDist\l::FindParticle">
<polygon fill="none" stroke="#000000" points="203,-51.5 203,-83.5 350,-83.5 350,-51.5 203,-51.5"/>
<text text-anchor="start" x="211" y="-70.5" font-family="FreeSans" font-size="10.00" fill="#000000">G4FissionProductYieldDist</text>
<text text-anchor="middle" x="276.5" y="-58.5" font-family="FreeSans" font-size="10.00" fill="#000000">::FindParticle</text>
</a>
</g>
</g>
<!-- Node1&#45;&gt;Node2 -->
<g id="edge1" class="edge">
<title>Node1&#45;&gt;Node2</title>
<path fill="none" stroke="#191970" d="M153.2532,-51.4779C166.245,-53.1669 179.791,-54.9278 192.9465,-56.6381"/>
<polygon fill="#191970" stroke="#191970" points="192.5471,-60.1155 202.9149,-57.9339 193.4496,-53.1739 192.5471,-60.1155"/>
</g>
<!-- Node6 -->
<g id="node6" class="node">
<title>Node6</title>
<g id="a_node6"><a xlink:href="../../d4/d9c/classG4FPYSamplingOps.html#af7883947d31f9fd39c94defd014b7b71" target="_top" xlink:title="G4FPYSamplingOps::G4Sample\lUniform">
<polygon fill="none" stroke="#000000" points="189,-.5 189,-32.5 364,-32.5 364,-.5 189,-.5"/>
<text text-anchor="start" x="197" y="-19.5" font-family="FreeSans" font-size="10.00" fill="#000000">G4FPYSamplingOps::G4Sample</text>
<text text-anchor="middle" x="276.5" y="-7.5" font-family="FreeSans" font-size="10.00" fill="#000000">Uniform</text>
</a>
</g>
</g>
<!-- Node1&#45;&gt;Node6 -->
<g id="edge6" class="edge">
<title>Node1&#45;&gt;Node6</title>
<path fill="none" stroke="#191970" d="M153.2532,-31.9058C161.6459,-30.8568 170.2699,-29.7788 178.8704,-28.7037"/>
<polygon fill="#191970" stroke="#191970" points="179.4521,-32.1583 188.9408,-27.4449 178.5838,-25.2124 179.4521,-32.1583"/>
</g>
<!-- Node3 -->
<g id="node3" class="node">
<title>Node3</title>
<g id="a_node3"><a xlink:href="../../d0/df8/classG4FissionProductYieldDist.html#af7f9cb49863160638218c34538fa1d20" target="_top" xlink:title="G4FissionProductYieldDist\l::FindParticleExtrapolation">
<polygon fill="none" stroke="#000000" points="402.5,-102.5 402.5,-134.5 550.5,-134.5 550.5,-102.5 402.5,-102.5"/>
<text text-anchor="start" x="410.5" y="-121.5" font-family="FreeSans" font-size="10.00" fill="#000000">G4FissionProductYieldDist</text>
<text text-anchor="middle" x="476.5" y="-109.5" font-family="FreeSans" font-size="10.00" fill="#000000">::FindParticleExtrapolation</text>
</a>
</g>
</g>
<!-- Node2&#45;&gt;Node3 -->
<g id="edge2" class="edge">
<title>Node2&#45;&gt;Node3</title>
<path fill="none" stroke="#191970" d="M339.5067,-83.5667C359.8689,-88.7591 382.6132,-94.5589 403.6284,-99.9177"/>
<polygon fill="#191970" stroke="#191970" points="402.9117,-103.3469 413.4665,-102.4264 404.6414,-96.564 402.9117,-103.3469"/>
</g>
<!-- Node5 -->
<g id="node5" class="node">
<title>Node5</title>
<g id="a_node5"><a xlink:href="../../d0/df8/classG4FissionProductYieldDist.html#a88e8b69edeb36e706aecc0771e069eef" target="_top" xlink:title="G4FissionProductYieldDist\l::FindParticleInterpolation">
<polygon fill="none" stroke="#000000" points="403,-51.5 403,-83.5 550,-83.5 550,-51.5 403,-51.5"/>
<text text-anchor="start" x="411" y="-70.5" font-family="FreeSans" font-size="10.00" fill="#000000">G4FissionProductYieldDist</text>
<text text-anchor="middle" x="476.5" y="-58.5" font-family="FreeSans" font-size="10.00" fill="#000000">::FindParticleInterpolation</text>
</a>
</g>
</g>
<!-- Node2&#45;&gt;Node5 -->
<g id="edge4" class="edge">
<title>Node2&#45;&gt;Node5</title>
<path fill="none" stroke="#191970" d="M350.1206,-67.5C363.923,-67.5 378.4475,-67.5 392.536,-67.5"/>
<polygon fill="#191970" stroke="#191970" points="392.701,-71.0001 402.701,-67.5 392.7009,-64.0001 392.701,-71.0001"/>
</g>
<!-- Node4 -->
<g id="node4" class="node">
<title>Node4</title>
<g id="a_node4"><a xlink:href="../../d0/df8/classG4FissionProductYieldDist.html#a3dea96d07790c9e04388723dca520b87" target="_top" xlink:title="G4FissionProductYieldDist\l::FindParticleBranchSearch">
<polygon fill="none" stroke="#000000" points="589,-76.5 589,-108.5 740,-108.5 740,-76.5 589,-76.5"/>
<text text-anchor="start" x="597" y="-95.5" font-family="FreeSans" font-size="10.00" fill="#000000">G4FissionProductYieldDist</text>
<text text-anchor="middle" x="664.5" y="-83.5" font-family="FreeSans" font-size="10.00" fill="#000000">::FindParticleBranchSearch</text>
</a>
</g>
</g>
<!-- Node3&#45;&gt;Node4 -->
<g id="edge3" class="edge">
<title>Node3&#45;&gt;Node4</title>
<path fill="none" stroke="#191970" d="M550.5327,-108.2614C559.8142,-106.9778 569.368,-105.6566 578.8091,-104.3509"/>
<polygon fill="#191970" stroke="#191970" points="579.565,-107.7797 588.9912,-102.9427 578.606,-100.8457 579.565,-107.7797"/>
</g>
<!-- Node5&#45;&gt;Node4 -->
<g id="edge5" class="edge">
<title>Node5&#45;&gt;Node4</title>
<path fill="none" stroke="#191970" d="M550.263,-77.3089C559.555,-78.5446 569.124,-79.817 578.583,-81.0749"/>
<polygon fill="#191970" stroke="#191970" points="578.4114,-84.5828 588.7856,-82.4316 579.3342,-77.6439 578.4114,-84.5828"/>
</g>
<!-- Node7 -->
<g id="node7" class="node">
<title>Node7</title>
<g id="a_node7"><a xlink:href="../../d8/dcf/classCLHEP_1_1HepRandomEngine.html#a743bd49472dc1c6034ad1047a6154329" target="_top" xlink:title="CLHEP::HepRandomEngine\l::flat">
<polygon fill="none" stroke="#000000" points="400,-.5 400,-32.5 553,-32.5 553,-.5 400,-.5"/>
<text text-anchor="start" x="408" y="-19.5" font-family="FreeSans" font-size="10.00" fill="#000000">CLHEP::HepRandomEngine</text>
<text text-anchor="middle" x="476.5" y="-7.5" font-family="FreeSans" font-size="10.00" fill="#000000">::flat</text>
</a>
</g>
</g>
<!-- Node6&#45;&gt;Node7 -->
<g id="edge7" class="edge">
<title>Node6&#45;&gt;Node7</title>
<path fill="none" stroke="#191970" d="M364.2229,-16.5C372.6547,-16.5 381.2046,-16.5 389.6281,-16.5"/>
<polygon fill="#191970" stroke="#191970" points="389.8238,-20.0001 399.8238,-16.5 389.8238,-13.0001 389.8238,-20.0001"/>
</g>
</g>
</svg>
