<?xml version="1.0" encoding="UTF-8" standalone="no"?>
<!DOCTYPE svg PUBLIC "-//W3C//DTD SVG 1.1//EN"
 "http://www.w3.org/Graphics/SVG/1.1/DTD/svg11.dtd">
<!-- Generated by graphviz version 2.40.1 (20161225.0304)
 -->
<!-- Title: HadrontherapyDetectorMessenger::SetNewValue Pages: 1 -->
<svg width="2304pt" height="793pt"
 viewBox="0.00 0.00 2304.00 793.00" xmlns="http://www.w3.org/2000/svg" xmlns:xlink="http://www.w3.org/1999/xlink">
<g id="graph0" class="graph" transform="scale(1 1) rotate(0) translate(4 789)">
<title>HadrontherapyDetectorMessenger::SetNewValue</title>
<!-- Node1 -->
<g id="node1" class="node">
<title>Node1</title>
<polygon fill="#bfbfbf" stroke="#000000" points="0,-668.5 0,-700.5 192,-700.5 192,-668.5 0,-668.5"/>
<text text-anchor="start" x="8" y="-687.5" font-family="FreeSans" font-size="10.00" fill="#000000">HadrontherapyDetectorMessenger</text>
<text text-anchor="middle" x="96" y="-675.5" font-family="FreeSans" font-size="10.00" fill="#000000">::SetNewValue</text>
</g>
<!-- Node2 -->
<g id="node2" class="node">
<title>Node2</title>
<g id="a_node2"><a xlink:href="../../d8/d06/classG4UIcmdWithABool.html#a98385ae707b12f4df795869884731449" target="_top" xlink:title="G4UIcmdWithABool::GetNew\lBoolValue">
<polygon fill="none" stroke="#000000" points="247,-752.5 247,-784.5 409,-784.5 409,-752.5 247,-752.5"/>
<text text-anchor="start" x="255" y="-771.5" font-family="FreeSans" font-size="10.00" fill="#000000">G4UIcmdWithABool::GetNew</text>
<text text-anchor="middle" x="328" y="-759.5" font-family="FreeSans" font-size="10.00" fill="#000000">BoolValue</text>
</a>
</g>
</g>
<!-- Node1&#45;&gt;Node2 -->
<g id="edge1" class="edge">
<title>Node1&#45;&gt;Node2</title>
<path fill="none" stroke="#191970" d="M127.642,-700.5343C153.9935,-713.424 192.7675,-731.3274 228,-743.5 234.3072,-745.6791 240.8987,-747.7538 247.5578,-749.7083"/>
<polygon fill="#191970" stroke="#191970" points="246.7617,-753.1205 257.3374,-752.484 248.673,-746.3865 246.7617,-753.1205"/>
</g>
<!-- Node5 -->
<g id="node5" class="node">
<title>Node5</title>
<g id="a_node5"><a xlink:href="../../da/dcf/classCLHEP_1_1Hep3Vector.html#a3613549b742e2eb4a24fe65491e25cca" target="_top" xlink:title="CLHEP::Hep3Vector::getX">
<polygon fill="none" stroke="#000000" points="255.5,-713.5 255.5,-733.5 400.5,-733.5 400.5,-713.5 255.5,-713.5"/>
<text text-anchor="middle" x="328" y="-720.5" font-family="FreeSans" font-size="10.00" fill="#000000">CLHEP::Hep3Vector::getX</text>
</a>
</g>
</g>
<!-- Node1&#45;&gt;Node5 -->
<g id="edge4" class="edge">
<title>Node1&#45;&gt;Node5</title>
<path fill="none" stroke="#191970" d="M191.3676,-700.5316C213.7075,-704.287 237.1022,-708.2198 258.0923,-711.7483"/>
<polygon fill="#191970" stroke="#191970" points="257.7464,-715.2392 268.1883,-713.4454 258.9069,-708.336 257.7464,-715.2392"/>
</g>
<!-- Node6 -->
<g id="node6" class="node">
<title>Node6</title>
<g id="a_node6"><a xlink:href="../../da/dcf/classCLHEP_1_1Hep3Vector.html#a8ffa37518294768554dfc7c44b57ee57" target="_top" xlink:title="CLHEP::Hep3Vector::getY">
<polygon fill="none" stroke="#000000" points="256,-674.5 256,-694.5 400,-694.5 400,-674.5 256,-674.5"/>
<text text-anchor="middle" x="328" y="-681.5" font-family="FreeSans" font-size="10.00" fill="#000000">CLHEP::Hep3Vector::getY</text>
</a>
</g>
</g>
<!-- Node1&#45;&gt;Node6 -->
<g id="edge5" class="edge">
<title>Node1&#45;&gt;Node6</title>
<path fill="none" stroke="#191970" d="M192.038,-684.5C209.8572,-684.5 228.3243,-684.5 245.6887,-684.5"/>
<polygon fill="#191970" stroke="#191970" points="245.7719,-688.0001 255.7719,-684.5 245.7719,-681.0001 245.7719,-688.0001"/>
</g>
<!-- Node7 -->
<g id="node7" class="node">
<title>Node7</title>
<g id="a_node7"><a xlink:href="../../da/dcf/classCLHEP_1_1Hep3Vector.html#ac078905f29dfb5db508223cfd6a5c68a" target="_top" xlink:title="CLHEP::Hep3Vector::getZ">
<polygon fill="none" stroke="#000000" points="255.5,-635.5 255.5,-655.5 400.5,-655.5 400.5,-635.5 255.5,-635.5"/>
<text text-anchor="middle" x="328" y="-642.5" font-family="FreeSans" font-size="10.00" fill="#000000">CLHEP::Hep3Vector::getZ</text>
</a>
</g>
</g>
<!-- Node1&#45;&gt;Node7 -->
<g id="edge6" class="edge">
<title>Node1&#45;&gt;Node7</title>
<path fill="none" stroke="#191970" d="M191.3676,-668.4684C213.7075,-664.713 237.1022,-660.7802 258.0923,-657.2517"/>
<polygon fill="#191970" stroke="#191970" points="258.9069,-660.664 268.1883,-655.5546 257.7464,-653.7608 258.9069,-660.664"/>
</g>
<!-- Node8 -->
<g id="node8" class="node">
<title>Node8</title>
<g id="a_node8"><a xlink:href="../../db/df7/classHadrontherapyDetectorConstruction.html#ac909a3460b3709a3cb516e56f2af9af1" target="_top" xlink:title="HadrontherapyDetectorConstruction\l::VirtualLayer">
<polygon fill="none" stroke="#000000" points="228,-584.5 228,-616.5 428,-616.5 428,-584.5 228,-584.5"/>
<text text-anchor="start" x="236" y="-603.5" font-family="FreeSans" font-size="10.00" fill="#000000">HadrontherapyDetectorConstruction</text>
<text text-anchor="middle" x="328" y="-591.5" font-family="FreeSans" font-size="10.00" fill="#000000">::VirtualLayer</text>
</a>
</g>
</g>
<!-- Node1&#45;&gt;Node8 -->
<g id="edge7" class="edge">
<title>Node1&#45;&gt;Node8</title>
<path fill="none" stroke="#191970" d="M128.5075,-668.4736C154.8753,-655.9017 193.2396,-638.569 228,-626.5 235.2682,-623.9764 242.908,-621.5686 250.5908,-619.3087"/>
<polygon fill="#191970" stroke="#191970" points="251.6677,-622.6411 260.3207,-616.5275 249.7438,-615.9107 251.6677,-622.6411"/>
</g>
<!-- Node3 -->
<g id="node3" class="node">
<title>Node3</title>
<g id="a_node3"><a xlink:href="../../d2/dd2/classG4UIcommand.html#acf773d733d94601326b1c396e45dd945" target="_top" xlink:title="G4UIcommand::ConvertToBool">
<polygon fill="none" stroke="#000000" points="464,-758.5 464,-778.5 635,-778.5 635,-758.5 464,-758.5"/>
<text text-anchor="middle" x="549.5" y="-765.5" font-family="FreeSans" font-size="10.00" fill="#000000">G4UIcommand::ConvertToBool</text>
</a>
</g>
</g>
<!-- Node2&#45;&gt;Node3 -->
<g id="edge2" class="edge">
<title>Node2&#45;&gt;Node3</title>
<path fill="none" stroke="#191970" d="M409.2207,-768.5C423.6665,-768.5 438.8355,-768.5 453.6427,-768.5"/>
<polygon fill="#191970" stroke="#191970" points="453.8227,-772.0001 463.8227,-768.5 453.8227,-765.0001 453.8227,-772.0001"/>
</g>
<!-- Node4 -->
<g id="node4" class="node">
<title>Node4</title>
<g id="a_node4"><a xlink:href="../../d5/d72/classG4String.html#a88e7790d9a2eb3b1460adfb61d5d2e8e" target="_top" xlink:title="G4String::toUpper">
<polygon fill="none" stroke="#000000" points="680.5,-758.5 680.5,-778.5 789.5,-778.5 789.5,-758.5 680.5,-758.5"/>
<text text-anchor="middle" x="735" y="-765.5" font-family="FreeSans" font-size="10.00" fill="#000000">G4String::toUpper</text>
</a>
</g>
</g>
<!-- Node3&#45;&gt;Node4 -->
<g id="edge3" class="edge">
<title>Node3&#45;&gt;Node4</title>
<path fill="none" stroke="#191970" d="M635.1911,-768.5C646.9655,-768.5 658.8924,-768.5 670.207,-768.5"/>
<polygon fill="#191970" stroke="#191970" points="670.4039,-772.0001 680.4039,-768.5 670.4038,-765.0001 670.4039,-772.0001"/>
</g>
<!-- Node9 -->
<g id="node9" class="node">
<title>Node9</title>
<g id="a_node9"><a xlink:href="../../d2/d00/classG4NistManager.html#abb3a53647400f8477dfe1cae931c3e72" target="_top" xlink:title="G4NistManager::FindOrBuild\lMaterial">
<polygon fill="none" stroke="#000000" points="470,-607.5 470,-639.5 629,-639.5 629,-607.5 470,-607.5"/>
<text text-anchor="start" x="478" y="-626.5" font-family="FreeSans" font-size="10.00" fill="#000000">G4NistManager::FindOrBuild</text>
<text text-anchor="middle" x="549.5" y="-614.5" font-family="FreeSans" font-size="10.00" fill="#000000">Material</text>
</a>
</g>
</g>
<!-- Node8&#45;&gt;Node9 -->
<g id="edge8" class="edge">
<title>Node8&#45;&gt;Node9</title>
<path fill="none" stroke="#191970" d="M428.0576,-610.8897C438.5477,-611.979 449.1671,-613.0817 459.5344,-614.1582"/>
<polygon fill="#191970" stroke="#191970" points="459.4955,-617.6729 469.8036,-615.2245 460.2186,-610.7103 459.4955,-617.6729"/>
</g>
<!-- Node48 -->
<g id="node48" class="node">
<title>Node48</title>
<g id="a_node48"><a xlink:href="../../d2/d00/classG4NistManager.html#ad0dbad7785358d8c46139b4d808c65db" target="_top" xlink:title="G4NistManager::Instance">
<polygon fill="none" stroke="#000000" points="1437,-578.5 1437,-598.5 1581,-598.5 1581,-578.5 1437,-578.5"/>
<text text-anchor="middle" x="1509" y="-585.5" font-family="FreeSans" font-size="10.00" fill="#000000">G4NistManager::Instance</text>
</a>
</g>
</g>
<!-- Node8&#45;&gt;Node48 -->
<g id="edge57" class="edge">
<title>Node8&#45;&gt;Node48</title>
<path fill="none" stroke="#191970" d="M428.2743,-592.0571C510.6039,-585.853 630.2709,-578.5 735,-578.5 735,-578.5 735,-578.5 1081,-578.5 1201.1683,-578.5 1340.2632,-582.4886 1426.4481,-585.4278"/>
<polygon fill="#191970" stroke="#191970" points="1426.5767,-588.9342 1436.6913,-585.7807 1426.8178,-581.9383 1426.5767,-588.9342"/>
</g>
<!-- Node10 -->
<g id="node10" class="node">
<title>Node10</title>
<g id="a_node10"><a xlink:href="../../df/d8e/classG4NistMaterialBuilder.html#aa37cab6c172280b7e7f03cdf269d5436" target="_top" xlink:title="G4NistMaterialBuilder\l::FindOrBuildMaterial">
<polygon fill="none" stroke="#000000" points="671,-607.5 671,-639.5 799,-639.5 799,-607.5 671,-607.5"/>
<text text-anchor="start" x="679" y="-626.5" font-family="FreeSans" font-size="10.00" fill="#000000">G4NistMaterialBuilder</text>
<text text-anchor="middle" x="735" y="-614.5" font-family="FreeSans" font-size="10.00" fill="#000000">::FindOrBuildMaterial</text>
</a>
</g>
</g>
<!-- Node9&#45;&gt;Node10 -->
<g id="edge9" class="edge">
<title>Node9&#45;&gt;Node10</title>
<path fill="none" stroke="#191970" d="M629.2452,-623.5C639.7032,-623.5 650.3862,-623.5 660.7482,-623.5"/>
<polygon fill="#191970" stroke="#191970" points="660.9829,-627.0001 670.9829,-623.5 660.9828,-620.0001 660.9829,-627.0001"/>
</g>
<!-- Node11 -->
<g id="node11" class="node">
<title>Node11</title>
<g id="a_node11"><a xlink:href="../../df/d8e/classG4NistMaterialBuilder.html#a877f161dc07f5e08f52109221ae02e3b" target="_top" xlink:title="G4NistMaterialBuilder\l::BuildNistMaterial">
<polygon fill="none" stroke="#000000" points="835,-607.5 835,-639.5 963,-639.5 963,-607.5 835,-607.5"/>
<text text-anchor="start" x="843" y="-626.5" font-family="FreeSans" font-size="10.00" fill="#000000">G4NistMaterialBuilder</text>
<text text-anchor="middle" x="899" y="-614.5" font-family="FreeSans" font-size="10.00" fill="#000000">::BuildNistMaterial</text>
</a>
</g>
</g>
<!-- Node10&#45;&gt;Node11 -->
<g id="edge10" class="edge">
<title>Node10&#45;&gt;Node11</title>
<path fill="none" stroke="#191970" d="M799.3464,-623.5C807.6401,-623.5 816.1868,-623.5 824.6248,-623.5"/>
<polygon fill="#191970" stroke="#191970" points="824.8392,-627.0001 834.8391,-623.5 824.8391,-620.0001 824.8392,-627.0001"/>
</g>
<!-- Node50 -->
<g id="node50" class="node">
<title>Node50</title>
<g id="a_node50"><a xlink:href="../../df/d8e/classG4NistMaterialBuilder.html#a84be2df2dc470cbc5afd0d2a3540dac0" target="_top" xlink:title="G4NistMaterialBuilder\l::FindMaterial">
<polygon fill="none" stroke="#000000" points="835,-658.5 835,-690.5 963,-690.5 963,-658.5 835,-658.5"/>
<text text-anchor="start" x="843" y="-677.5" font-family="FreeSans" font-size="10.00" fill="#000000">G4NistMaterialBuilder</text>
<text text-anchor="middle" x="899" y="-665.5" font-family="FreeSans" font-size="10.00" fill="#000000">::FindMaterial</text>
</a>
</g>
</g>
<!-- Node10&#45;&gt;Node50 -->
<g id="edge55" class="edge">
<title>Node10&#45;&gt;Node50</title>
<path fill="none" stroke="#191970" d="M786.8906,-639.6367C803.0504,-644.662 821.0219,-650.2507 837.7585,-655.4554"/>
<polygon fill="#191970" stroke="#191970" points="836.8587,-658.8408 847.4469,-658.4683 838.9373,-652.1566 836.8587,-658.8408"/>
</g>
<!-- Node12 -->
<g id="node12" class="node">
<title>Node12</title>
<g id="a_node12"><a xlink:href="../../df/d8e/classG4NistMaterialBuilder.html#ae93677008c7dadafcba78ce2ab7cba1a" target="_top" xlink:title="G4NistMaterialBuilder\l::BuildMaterial">
<polygon fill="none" stroke="#000000" points="1017,-276.5 1017,-308.5 1145,-308.5 1145,-276.5 1017,-276.5"/>
<text text-anchor="start" x="1025" y="-295.5" font-family="FreeSans" font-size="10.00" fill="#000000">G4NistMaterialBuilder</text>
<text text-anchor="middle" x="1081" y="-283.5" font-family="FreeSans" font-size="10.00" fill="#000000">::BuildMaterial</text>
</a>
</g>
</g>
<!-- Node11&#45;&gt;Node12 -->
<g id="edge11" class="edge">
<title>Node11&#45;&gt;Node12</title>
<path fill="none" stroke="#191970" d="M908.0254,-607.0857C937.5664,-553.36 1031.5086,-382.509 1067.127,-317.7305"/>
<polygon fill="#191970" stroke="#191970" points="1070.3835,-319.0722 1072.1347,-308.6231 1064.2496,-315.6994 1070.3835,-319.0722"/>
</g>
<!-- Node49 -->
<g id="node49" class="node">
<title>Node49</title>
<g id="a_node49"><a xlink:href="../../d5/de4/classG4Material.html#abfa83cce2e474310e98da5ac80d37bb4" target="_top" xlink:title="G4Material::GetMaterialTable">
<polygon fill="none" stroke="#000000" points="999,-639.5 999,-659.5 1163,-659.5 1163,-639.5 999,-639.5"/>
<text text-anchor="middle" x="1081" y="-646.5" font-family="FreeSans" font-size="10.00" fill="#000000">G4Material::GetMaterialTable</text>
</a>
</g>
</g>
<!-- Node11&#45;&gt;Node49 -->
<g id="edge54" class="edge">
<title>Node11&#45;&gt;Node49</title>
<path fill="none" stroke="#191970" d="M963.1664,-632.6666C975.3602,-634.4086 988.26,-636.2514 1000.8768,-638.0538"/>
<polygon fill="#191970" stroke="#191970" points="1000.5212,-641.5385 1010.9157,-639.488 1001.5112,-634.6088 1000.5212,-641.5385"/>
</g>
<!-- Node13 -->
<g id="node13" class="node">
<title>Node13</title>
<g id="a_node13"><a xlink:href="../../d5/de4/classG4Material.html#a6787765bd3b0ef535161b887e7462417" target="_top" xlink:title="G4Material::AddElement">
<polygon fill="none" stroke="#000000" points="1220,-327.5 1220,-347.5 1360,-347.5 1360,-327.5 1220,-327.5"/>
<text text-anchor="middle" x="1290" y="-334.5" font-family="FreeSans" font-size="10.00" fill="#000000">G4Material::AddElement</text>
</a>
</g>
</g>
<!-- Node12&#45;&gt;Node13 -->
<g id="edge12" class="edge">
<title>Node12&#45;&gt;Node13</title>
<path fill="none" stroke="#191970" d="M1145.1272,-306.3073C1173.3406,-312.382 1206.1936,-319.4556 1233.4749,-325.3295"/>
<polygon fill="#191970" stroke="#191970" points="1232.7422,-328.7519 1243.2549,-327.4353 1234.2157,-321.9087 1232.7422,-328.7519"/>
</g>
<!-- Node24 -->
<g id="node24" class="node">
<title>Node24</title>
<g id="a_node24"><a xlink:href="../../d5/d4f/G4Exception_8hh.html#ad36b5da5d062a20ca47b1c1f1ae353dd" target="_top" xlink:title="G4Exception">
<polygon fill="none" stroke="#000000" points="1942,-270.5 1942,-290.5 2022,-290.5 2022,-270.5 1942,-270.5"/>
<text text-anchor="middle" x="1982" y="-277.5" font-family="FreeSans" font-size="10.00" fill="#000000">G4Exception</text>
</a>
</g>
</g>
<!-- Node12&#45;&gt;Node24 -->
<g id="edge38" class="edge">
<title>Node12&#45;&gt;Node24</title>
<path fill="none" stroke="#191970" d="M1105.7648,-308.7369C1128.9693,-323.2572 1165.0701,-344.1044 1199,-356.5 1334.7905,-406.1083 1713.0706,-453.4048 1848,-401.5 1901.852,-380.7842 1947.5423,-327.2981 1968.9646,-298.8799"/>
<polygon fill="#191970" stroke="#191970" points="1971.9431,-300.7375 1975.0468,-290.6074 1966.3033,-296.591 1971.9431,-300.7375"/>
</g>
<!-- Node25 -->
<g id="node25" class="node">
<title>Node25</title>
<g id="a_node25"><a xlink:href="../../d6/d69/classG4IonisParamMat.html#aad6286164237e2f19ee8f18b5870b3a5" target="_top" xlink:title="G4IonisParamMat::FindMean\lExcitationEnergy">
<polygon fill="none" stroke="#000000" points="1210,-276.5 1210,-308.5 1370,-308.5 1370,-276.5 1210,-276.5"/>
<text text-anchor="start" x="1218" y="-295.5" font-family="FreeSans" font-size="10.00" fill="#000000">G4IonisParamMat::FindMean</text>
<text text-anchor="middle" x="1290" y="-283.5" font-family="FreeSans" font-size="10.00" fill="#000000">ExcitationEnergy</text>
</a>
</g>
</g>
<!-- Node12&#45;&gt;Node25 -->
<g id="edge24" class="edge">
<title>Node12&#45;&gt;Node25</title>
<path fill="none" stroke="#191970" d="M1145.1272,-292.5C1162.3388,-292.5 1181.2769,-292.5 1199.6234,-292.5"/>
<polygon fill="#191970" stroke="#191970" points="1199.7404,-296.0001 1209.7404,-292.5 1199.7403,-289.0001 1199.7404,-296.0001"/>
</g>
<!-- Node30 -->
<g id="node30" class="node">
<title>Node30</title>
<g id="a_node30"><a xlink:href="../../d9/df3/classG4NistElementBuilder.html#a48db0363cd8e894b515e17fe59b9901b" target="_top" xlink:title="G4NistElementBuilder\l::FindOrBuildElement">
<polygon fill="none" stroke="#000000" points="1226,-51.5 1226,-83.5 1354,-83.5 1354,-51.5 1226,-51.5"/>
<text text-anchor="start" x="1234" y="-70.5" font-family="FreeSans" font-size="10.00" fill="#000000">G4NistElementBuilder</text>
<text text-anchor="middle" x="1290" y="-58.5" font-family="FreeSans" font-size="10.00" fill="#000000">::FindOrBuildElement</text>
</a>
</g>
</g>
<!-- Node12&#45;&gt;Node30 -->
<g id="edge29" class="edge">
<title>Node12&#45;&gt;Node30</title>
<path fill="none" stroke="#191970" d="M1086.4425,-276.3518C1099.7039,-239.4067 1137.2048,-148.0976 1199,-98.5 1204.3346,-94.2184 1210.2935,-90.5131 1216.5401,-87.3095"/>
<polygon fill="#191970" stroke="#191970" points="1218.2736,-90.3631 1225.8586,-82.9659 1215.3162,-84.0184 1218.2736,-90.3631"/>
</g>
<!-- Node38 -->
<g id="node38" class="node">
<title>Node38</title>
<g id="a_node38"><a xlink:href="../../d2/d54/templates_8hh.html#a7fb2b8c71918ecf5c3556578f32e4e75" target="_top" xlink:title="G4lrint">
<polygon fill="none" stroke="#000000" points="1264.5,-237.5 1264.5,-257.5 1315.5,-257.5 1315.5,-237.5 1264.5,-237.5"/>
<text text-anchor="middle" x="1290" y="-244.5" font-family="FreeSans" font-size="10.00" fill="#000000">G4lrint</text>
</a>
</g>
</g>
<!-- Node12&#45;&gt;Node38 -->
<g id="edge39" class="edge">
<title>Node12&#45;&gt;Node38</title>
<path fill="none" stroke="#191970" d="M1145.2757,-278.2027C1162.7002,-274.3636 1181.5659,-270.2406 1199,-266.5 1217.2951,-262.5746 1237.6834,-258.3078 1254.5166,-254.8139"/>
<polygon fill="#191970" stroke="#191970" points="1255.4057,-258.2041 1264.4878,-252.7483 1253.9857,-251.3496 1255.4057,-258.2041"/>
</g>
<!-- Node39 -->
<g id="node39" class="node">
<title>Node39</title>
<g id="a_node39"><a xlink:href="../../d5/de4/classG4Material.html#aadd1e3a943e48bc048e40dd2ea08b7e5" target="_top" xlink:title="G4Material::GetIndex">
<polygon fill="none" stroke="#000000" points="1228,-198.5 1228,-218.5 1352,-218.5 1352,-198.5 1228,-198.5"/>
<text text-anchor="middle" x="1290" y="-205.5" font-family="FreeSans" font-size="10.00" fill="#000000">G4Material::GetIndex</text>
</a>
</g>
</g>
<!-- Node12&#45;&gt;Node39 -->
<g id="edge40" class="edge">
<title>Node12&#45;&gt;Node39</title>
<path fill="none" stroke="#191970" d="M1105.2868,-276.2942C1128.4513,-261.536 1164.7846,-240.1707 1199,-227.5 1205.4063,-225.1276 1212.1819,-223.0203 1219.0296,-221.1553"/>
<polygon fill="#191970" stroke="#191970" points="1220.2537,-224.4553 1229.0792,-218.5935 1218.5245,-217.6722 1220.2537,-224.4553"/>
</g>
<!-- Node40 -->
<g id="node40" class="node">
<title>Node40</title>
<g id="a_node40"><a xlink:href="../../d5/de4/classG4Material.html#a6ab8fd65f7f20ece6b570093b2229e11" target="_top" xlink:title="G4Material::GetIonisation">
<polygon fill="none" stroke="#000000" points="1217.5,-159.5 1217.5,-179.5 1362.5,-179.5 1362.5,-159.5 1217.5,-159.5"/>
<text text-anchor="middle" x="1290" y="-166.5" font-family="FreeSans" font-size="10.00" fill="#000000">G4Material::GetIonisation</text>
</a>
</g>
</g>
<!-- Node12&#45;&gt;Node40 -->
<g id="edge41" class="edge">
<title>Node12&#45;&gt;Node40</title>
<path fill="none" stroke="#191970" d="M1094.4033,-276.2619C1114.5654,-252.9803 1155.0468,-210.5029 1199,-188.5 1203.2845,-186.3552 1207.7991,-184.4523 1212.4327,-182.7641"/>
<polygon fill="#191970" stroke="#191970" points="1213.6704,-186.0416 1222.0756,-179.5916 1211.4827,-179.3922 1213.6704,-186.0416"/>
</g>
<!-- Node41 -->
<g id="node41" class="node">
<title>Node41</title>
<g id="a_node41"><a xlink:href="../../d6/d69/classG4IonisParamMat.html#a4fefdfbba759144ef70b9923ea225a13" target="_top" xlink:title="G4IonisParamMat::GetMean\lExcitationEnergy">
<polygon fill="none" stroke="#000000" points="1211.5,-108.5 1211.5,-140.5 1368.5,-140.5 1368.5,-108.5 1211.5,-108.5"/>
<text text-anchor="start" x="1219.5" y="-127.5" font-family="FreeSans" font-size="10.00" fill="#000000">G4IonisParamMat::GetMean</text>
<text text-anchor="middle" x="1290" y="-115.5" font-family="FreeSans" font-size="10.00" fill="#000000">ExcitationEnergy</text>
</a>
</g>
</g>
<!-- Node12&#45;&gt;Node41 -->
<g id="edge42" class="edge">
<title>Node12&#45;&gt;Node41</title>
<path fill="none" stroke="#191970" d="M1089.7102,-276.4531C1106.6856,-246.729 1147.1213,-183.0831 1199,-149.5 1201.4499,-147.9141 1203.9994,-146.4279 1206.6228,-145.0351"/>
<polygon fill="#191970" stroke="#191970" points="1208.2787,-148.1229 1215.7899,-140.6508 1205.2584,-141.808 1208.2787,-148.1229"/>
</g>
<!-- Node42 -->
<g id="node42" class="node">
<title>Node42</title>
<g id="a_node42"><a xlink:href="../../d5/de4/classG4Material.html#a704d1ef4c21b3648e44fe3edc4d68aa2" target="_top" xlink:title="G4Material::SetChemicalFormula">
<polygon fill="none" stroke="#000000" points="1199,-520.5 1199,-540.5 1381,-540.5 1381,-520.5 1199,-520.5"/>
<text text-anchor="middle" x="1290" y="-527.5" font-family="FreeSans" font-size="10.00" fill="#000000">G4Material::SetChemicalFormula</text>
</a>
</g>
</g>
<!-- Node12&#45;&gt;Node42 -->
<g id="edge43" class="edge">
<title>Node12&#45;&gt;Node42</title>
<path fill="none" stroke="#191970" d="M1084.7928,-308.6893C1095.2534,-349.5601 1128.5273,-457.4245 1199,-510.5 1201.6488,-512.4949 1204.457,-514.2986 1207.3819,-515.9289"/>
<polygon fill="#191970" stroke="#191970" points="1205.9379,-519.1182 1216.4647,-520.3172 1208.9832,-512.8153 1205.9379,-519.1182"/>
</g>
<!-- Node43 -->
<g id="node43" class="node">
<title>Node43</title>
<g id="a_node43"><a xlink:href="../../d6/d69/classG4IonisParamMat.html#ac1071d1716eb275f3327b5bbb3b7ed3f" target="_top" xlink:title="G4IonisParamMat::SetMean\lExcitationEnergy">
<polygon fill="none" stroke="#000000" points="1212.5,-469.5 1212.5,-501.5 1367.5,-501.5 1367.5,-469.5 1212.5,-469.5"/>
<text text-anchor="start" x="1220.5" y="-488.5" font-family="FreeSans" font-size="10.00" fill="#000000">G4IonisParamMat::SetMean</text>
<text text-anchor="middle" x="1290" y="-476.5" font-family="FreeSans" font-size="10.00" fill="#000000">ExcitationEnergy</text>
</a>
</g>
</g>
<!-- Node12&#45;&gt;Node43 -->
<g id="edge44" class="edge">
<title>Node12&#45;&gt;Node43</title>
<path fill="none" stroke="#191970" d="M1091.3891,-308.7848C1110.1579,-337.2467 1152.1461,-396.6991 1199,-435.5 1212.567,-446.7352 1229.0357,-456.6784 1244.2142,-464.6789"/>
<polygon fill="#191970" stroke="#191970" points="1242.9633,-467.9701 1253.4607,-469.4035 1246.1484,-461.7367 1242.9633,-467.9701"/>
</g>
<!-- Node14 -->
<g id="node14" class="node">
<title>Node14</title>
<g id="a_node14"><a xlink:href="../../d5/de4/classG4Material.html#a2bbaa762349b9a4617cbc985fb0c3a08" target="_top" xlink:title="G4Material::ComputeDerived\lQuantities">
<polygon fill="none" stroke="#000000" points="1427,-321.5 1427,-353.5 1591,-353.5 1591,-321.5 1427,-321.5"/>
<text text-anchor="start" x="1435" y="-340.5" font-family="FreeSans" font-size="10.00" fill="#000000">G4Material::ComputeDerived</text>
<text text-anchor="middle" x="1509" y="-328.5" font-family="FreeSans" font-size="10.00" fill="#000000">Quantities</text>
</a>
</g>
</g>
<!-- Node13&#45;&gt;Node14 -->
<g id="edge13" class="edge">
<title>Node13&#45;&gt;Node14</title>
<path fill="none" stroke="#191970" d="M1360.1966,-337.5C1378.2253,-337.5 1397.8928,-337.5 1416.8487,-337.5"/>
<polygon fill="#191970" stroke="#191970" points="1416.9865,-341.0001 1426.9865,-337.5 1416.9864,-334.0001 1416.9865,-341.0001"/>
</g>
<!-- Node13&#45;&gt;Node24 -->
<g id="edge23" class="edge">
<title>Node13&#45;&gt;Node24</title>
<path fill="none" stroke="#191970" d="M1335.2928,-327.4958C1365.1187,-321.0495 1401.4313,-313.5097 1417,-311.5 1605.9044,-287.1156 1832.7602,-281.8854 1931.7212,-280.7828"/>
<polygon fill="#191970" stroke="#191970" points="1931.776,-284.2825 1941.7398,-280.6806 1931.7045,-277.2829 1931.776,-284.2825"/>
</g>
<!-- Node15 -->
<g id="node15" class="node">
<title>Node15</title>
<g id="a_node15"><a xlink:href="../../d5/de4/classG4Material.html#ac3dead710232898aed1c79b784856028" target="_top" xlink:title="G4Material::ComputeNuclear\lInterLength">
<polygon fill="none" stroke="#000000" points="1660.5,-450.5 1660.5,-482.5 1824.5,-482.5 1824.5,-450.5 1660.5,-450.5"/>
<text text-anchor="start" x="1668.5" y="-469.5" font-family="FreeSans" font-size="10.00" fill="#000000">G4Material::ComputeNuclear</text>
<text text-anchor="middle" x="1742.5" y="-457.5" font-family="FreeSans" font-size="10.00" fill="#000000">InterLength</text>
</a>
</g>
</g>
<!-- Node14&#45;&gt;Node15 -->
<g id="edge14" class="edge">
<title>Node14&#45;&gt;Node15</title>
<path fill="none" stroke="#191970" d="M1582.8749,-353.525C1589.2023,-356.0944 1595.3398,-359.0658 1601,-362.5 1621.1673,-374.7362 1618.7887,-386.5069 1637,-401.5 1657.2548,-418.1755 1682.1536,-433.7142 1702.6751,-445.4149"/>
<polygon fill="#191970" stroke="#191970" points="1701.0351,-448.508 1711.4688,-450.3485 1704.4601,-442.4031 1701.0351,-448.508"/>
</g>
<!-- Node22 -->
<g id="node22" class="node">
<title>Node22</title>
<g id="a_node22"><a xlink:href="../../d5/de4/classG4Material.html#ac70cfa5fc8988777cd9acb1b379d6101" target="_top" xlink:title="G4Material::ComputeRadiation\lLength">
<polygon fill="none" stroke="#000000" points="1656.5,-309.5 1656.5,-341.5 1828.5,-341.5 1828.5,-309.5 1656.5,-309.5"/>
<text text-anchor="start" x="1664.5" y="-328.5" font-family="FreeSans" font-size="10.00" fill="#000000">G4Material::ComputeRadiation</text>
<text text-anchor="middle" x="1742.5" y="-316.5" font-family="FreeSans" font-size="10.00" fill="#000000">Length</text>
</a>
</g>
</g>
<!-- Node14&#45;&gt;Node22 -->
<g id="edge21" class="edge">
<title>Node14&#45;&gt;Node22</title>
<path fill="none" stroke="#191970" d="M1591.3234,-333.2692C1609.049,-332.3583 1627.9373,-331.3876 1646.1429,-330.452"/>
<polygon fill="#191970" stroke="#191970" points="1646.368,-333.9451 1656.1752,-329.9364 1646.0087,-326.9543 1646.368,-333.9451"/>
</g>
<!-- Node23 -->
<g id="node23" class="node">
<title>Node23</title>
<g id="a_node23"><a xlink:href="../../d0/dbe/classG4AtomicShells.html#ae1b641e18a447a64472d179b3e07e221" target="_top" xlink:title="G4AtomicShells::GetNumber\lOfFreeElectrons">
<polygon fill="none" stroke="#000000" points="1661.5,-360.5 1661.5,-392.5 1823.5,-392.5 1823.5,-360.5 1661.5,-360.5"/>
<text text-anchor="start" x="1669.5" y="-379.5" font-family="FreeSans" font-size="10.00" fill="#000000">G4AtomicShells::GetNumber</text>
<text text-anchor="middle" x="1742.5" y="-367.5" font-family="FreeSans" font-size="10.00" fill="#000000">OfFreeElectrons</text>
</a>
</g>
</g>
<!-- Node14&#45;&gt;Node23 -->
<g id="edge22" class="edge">
<title>Node14&#45;&gt;Node23</title>
<path fill="none" stroke="#191970" d="M1591.3234,-351.2499C1610.7554,-354.4955 1631.5848,-357.9745 1651.3801,-361.2808"/>
<polygon fill="#191970" stroke="#191970" points="1650.8731,-364.7446 1661.3131,-362.9399 1652.0264,-357.8402 1650.8731,-364.7446"/>
</g>
<!-- Node16 -->
<g id="node16" class="node">
<title>Node16</title>
<g id="a_node16"><a xlink:href="../../d8/d78/G4DNAElectronHoleRecombination_8cc.html#acd7c90d16eed59d534d702f94b65af4c" target="_top" xlink:title="A">
<polygon fill="none" stroke="#000000" points="1967.5,-429.5 1967.5,-449.5 1996.5,-449.5 1996.5,-429.5 1967.5,-429.5"/>
<text text-anchor="middle" x="1982" y="-436.5" font-family="FreeSans" font-size="10.00" fill="#000000">A</text>
</a>
</g>
</g>
<!-- Node15&#45;&gt;Node16 -->
<g id="edge15" class="edge">
<title>Node15&#45;&gt;Node16</title>
<path fill="none" stroke="#191970" d="M1824.5872,-457.2459C1871.1009,-452.0022 1926.0549,-445.807 1957.188,-442.2972"/>
<polygon fill="#191970" stroke="#191970" points="1957.6089,-445.772 1967.1538,-441.1737 1956.8247,-438.8161 1957.6089,-445.772"/>
</g>
<!-- Node17 -->
<g id="node17" class="node">
<title>Node17</title>
<g id="a_node17"><a xlink:href="../../d0/dcc/G4Exp_8hh.html#a224eb86aa032b59b4fa6398ea1eb566a" target="_top" xlink:title="Exponential Function double precision.">
<polygon fill="none" stroke="#ff0000" points="1957,-507.5 1957,-527.5 2007,-527.5 2007,-507.5 1957,-507.5"/>
<text text-anchor="middle" x="1982" y="-514.5" font-family="FreeSans" font-size="10.00" fill="#000000">G4Exp</text>
</a>
</g>
</g>
<!-- Node15&#45;&gt;Node17 -->
<g id="edge16" class="edge">
<title>Node15&#45;&gt;Node17</title>
<path fill="none" stroke="#191970" d="M1814.8051,-482.5502C1836.9911,-487.4185 1861.4874,-492.737 1884,-497.5 1904.7844,-501.8974 1928.0854,-506.6595 1946.7506,-510.4335"/>
<polygon fill="#191970" stroke="#191970" points="1946.1031,-513.8733 1956.5978,-512.4199 1947.4874,-507.0116 1946.1031,-513.8733"/>
</g>
<!-- Node18 -->
<g id="node18" class="node">
<title>Node18</title>
<g id="a_node18"><a xlink:href="../../db/dfe/G4Log_8hh.html#ae72e5c92ee3e3857a2617f563c9e0589" target="_top" xlink:title="G4Log">
<polygon fill="none" stroke="#000000" points="1958,-468.5 1958,-488.5 2006,-488.5 2006,-468.5 1958,-468.5"/>
<text text-anchor="middle" x="1982" y="-475.5" font-family="FreeSans" font-size="10.00" fill="#000000">G4Log</text>
</a>
</g>
</g>
<!-- Node15&#45;&gt;Node18 -->
<g id="edge17" class="edge">
<title>Node15&#45;&gt;Node18</title>
<path fill="none" stroke="#191970" d="M1824.5872,-470.6129C1866.681,-472.722 1915.6873,-475.1774 1947.6953,-476.7812"/>
<polygon fill="#191970" stroke="#191970" points="1947.7013,-480.2858 1957.864,-477.2907 1948.0517,-473.2946 1947.7013,-480.2858"/>
</g>
<!-- Node19 -->
<g id="node19" class="node">
<title>Node19</title>
<g id="a_node19"><a xlink:href="../../d3/d9f/namespaceG4LogConsts.html#a080084213a00e3dc29211e4e578127f4" target="_top" xlink:title="G4LogConsts::get_log_px">
<polygon fill="none" stroke="#000000" points="2134,-507.5 2134,-527.5 2278,-527.5 2278,-507.5 2134,-507.5"/>
<text text-anchor="middle" x="2206" y="-514.5" font-family="FreeSans" font-size="10.00" fill="#000000">G4LogConsts::get_log_px</text>
</a>
</g>
</g>
<!-- Node18&#45;&gt;Node19 -->
<g id="edge18" class="edge">
<title>Node18&#45;&gt;Node19</title>
<path fill="none" stroke="#191970" d="M2006.3983,-482.7479C2037.8128,-488.2174 2093.6728,-497.943 2138.325,-505.7173"/>
<polygon fill="#191970" stroke="#191970" points="2137.7963,-509.1778 2148.2485,-507.445 2138.997,-502.2816 2137.7963,-509.1778"/>
</g>
<!-- Node20 -->
<g id="node20" class="node">
<title>Node20</title>
<g id="a_node20"><a xlink:href="../../d3/d9f/namespaceG4LogConsts.html#abafea919b94d1e25edf69344bdb8269a" target="_top" xlink:title="G4LogConsts::get_log_qx">
<polygon fill="none" stroke="#000000" points="2134,-468.5 2134,-488.5 2278,-488.5 2278,-468.5 2134,-468.5"/>
<text text-anchor="middle" x="2206" y="-475.5" font-family="FreeSans" font-size="10.00" fill="#000000">G4LogConsts::get_log_qx</text>
</a>
</g>
</g>
<!-- Node18&#45;&gt;Node20 -->
<g id="edge19" class="edge">
<title>Node18&#45;&gt;Node20</title>
<path fill="none" stroke="#191970" d="M2006.3983,-478.5C2034.4722,-478.5 2082.069,-478.5 2123.7429,-478.5"/>
<polygon fill="#191970" stroke="#191970" points="2123.9162,-482.0001 2133.9161,-478.5 2123.9161,-475.0001 2123.9162,-482.0001"/>
</g>
<!-- Node21 -->
<g id="node21" class="node">
<title>Node21</title>
<g id="a_node21"><a xlink:href="../../d3/d9f/namespaceG4LogConsts.html#aab62ca6c71dcc1505d4ce94f673f1b52" target="_top" xlink:title="Like frexp but vectorising and the exponent is a double.">
<polygon fill="none" stroke="#ff0000" points="2116,-429.5 2116,-449.5 2296,-449.5 2296,-429.5 2116,-429.5"/>
<text text-anchor="middle" x="2206" y="-436.5" font-family="FreeSans" font-size="10.00" fill="#000000">G4LogConsts::getMantExponent</text>
</a>
</g>
</g>
<!-- Node18&#45;&gt;Node21 -->
<g id="edge20" class="edge">
<title>Node18&#45;&gt;Node21</title>
<path fill="none" stroke="#191970" d="M2006.3983,-474.2521C2037.8128,-468.7826 2093.6728,-459.057 2138.325,-451.2827"/>
<polygon fill="#191970" stroke="#191970" points="2138.997,-454.7184 2148.2485,-449.555 2137.7963,-447.8222 2138.997,-454.7184"/>
</g>
<!-- Node26 -->
<g id="node26" class="node">
<title>Node26</title>
<g id="a_node26"><a xlink:href="../../d5/de4/classG4Material.html#a21962dad23408515d32eaccd28b36058" target="_top" xlink:title="G4Material::GetChemicalFormula">
<polygon fill="none" stroke="#000000" points="1417,-243.5 1417,-263.5 1601,-263.5 1601,-243.5 1417,-243.5"/>
<text text-anchor="middle" x="1509" y="-250.5" font-family="FreeSans" font-size="10.00" fill="#000000">G4Material::GetChemicalFormula</text>
</a>
</g>
</g>
<!-- Node25&#45;&gt;Node26 -->
<g id="edge25" class="edge">
<title>Node25&#45;&gt;Node26</title>
<path fill="none" stroke="#191970" d="M1370.304,-278.1993C1394.1239,-273.9574 1419.9323,-269.3614 1442.754,-265.2972"/>
<polygon fill="#191970" stroke="#191970" points="1443.4417,-268.7299 1452.6732,-263.5308 1442.2144,-261.8383 1443.4417,-268.7299"/>
</g>
<!-- Node27 -->
<g id="node27" class="node">
<title>Node27</title>
<g id="a_node27"><a xlink:href="../../d2/d38/classG4DensityEffectData.html#a9a67e5eefa63d9391b5c3a0b80faeba8" target="_top" xlink:title="G4DensityEffectData\l::GetIndex">
<polygon fill="none" stroke="#000000" points="1448,-192.5 1448,-224.5 1570,-224.5 1570,-192.5 1448,-192.5"/>
<text text-anchor="start" x="1456" y="-211.5" font-family="FreeSans" font-size="10.00" fill="#000000">G4DensityEffectData</text>
<text text-anchor="middle" x="1509" y="-199.5" font-family="FreeSans" font-size="10.00" fill="#000000">::GetIndex</text>
</a>
</g>
</g>
<!-- Node25&#45;&gt;Node27 -->
<g id="edge26" class="edge">
<title>Node25&#45;&gt;Node27</title>
<path fill="none" stroke="#191970" d="M1359.4488,-276.3472C1366.9287,-273.5333 1374.2607,-270.2708 1381,-266.5 1399.9417,-255.9017 1397.99,-243.9752 1417,-233.5 1423.478,-229.9304 1430.4978,-226.8452 1437.6728,-224.1841"/>
<polygon fill="#191970" stroke="#191970" points="1439.1904,-227.364 1447.5168,-220.8125 1436.9222,-220.7416 1439.1904,-227.364"/>
</g>
<!-- Node28 -->
<g id="node28" class="node">
<title>Node28</title>
<g id="a_node28"><a xlink:href="../../d2/d38/classG4DensityEffectData.html#a1d8fe28e618a73077fa94fdcc693d3d8" target="_top" xlink:title="G4DensityEffectData\l::GetMeanIonisationPotential">
<polygon fill="none" stroke="#000000" points="1428,-141.5 1428,-173.5 1590,-173.5 1590,-141.5 1428,-141.5"/>
<text text-anchor="start" x="1436" y="-160.5" font-family="FreeSans" font-size="10.00" fill="#000000">G4DensityEffectData</text>
<text text-anchor="middle" x="1509" y="-148.5" font-family="FreeSans" font-size="10.00" fill="#000000">::GetMeanIonisationPotential</text>
</a>
</g>
</g>
<!-- Node25&#45;&gt;Node28 -->
<g id="edge27" class="edge">
<title>Node25&#45;&gt;Node28</title>
<path fill="none" stroke="#191970" d="M1366.7138,-276.3234C1371.8481,-273.5488 1376.6845,-270.3011 1381,-266.5 1411.4801,-239.6533 1386.3465,-209.1485 1417,-182.5 1418.3311,-181.3428 1419.7108,-180.2387 1421.1327,-179.1851"/>
<polygon fill="#191970" stroke="#191970" points="1423.1706,-182.0361 1429.6941,-173.6878 1419.3884,-176.1458 1423.1706,-182.0361"/>
</g>
<!-- Node29 -->
<g id="node29" class="node">
<title>Node29</title>
<g id="a_node29"><a xlink:href="../../d5/de4/classG4Material.html#ad8d8779fa3a56cfb69010ac6c6d7c71f" target="_top" xlink:title="G4Material::GetName">
<polygon fill="none" stroke="#000000" points="1446,-372.5 1446,-392.5 1572,-392.5 1572,-372.5 1446,-372.5"/>
<text text-anchor="middle" x="1509" y="-379.5" font-family="FreeSans" font-size="10.00" fill="#000000">G4Material::GetName</text>
</a>
</g>
</g>
<!-- Node25&#45;&gt;Node29 -->
<g id="edge28" class="edge">
<title>Node25&#45;&gt;Node29</title>
<path fill="none" stroke="#191970" d="M1364.2662,-308.5648C1370.1376,-311.1197 1375.7994,-314.0772 1381,-317.5 1402.3946,-331.5809 1395.2327,-349.0024 1417,-362.5 1422.88,-366.1461 1429.3306,-369.1332 1436.0026,-371.5796"/>
<polygon fill="#191970" stroke="#191970" points="1435.3032,-375.0323 1445.8953,-374.7908 1437.4645,-368.3743 1435.3032,-375.0323"/>
</g>
<!-- Node31 -->
<g id="node31" class="node">
<title>Node31</title>
<g id="a_node31"><a xlink:href="../../d9/df3/classG4NistElementBuilder.html#a200b03d48d2a95ed7a1f47c05a4b0e17" target="_top" xlink:title="G4NistElementBuilder\l::BuildElement">
<polygon fill="none" stroke="#000000" points="1445,-90.5 1445,-122.5 1573,-122.5 1573,-90.5 1445,-90.5"/>
<text text-anchor="start" x="1453" y="-109.5" font-family="FreeSans" font-size="10.00" fill="#000000">G4NistElementBuilder</text>
<text text-anchor="middle" x="1509" y="-97.5" font-family="FreeSans" font-size="10.00" fill="#000000">::BuildElement</text>
</a>
</g>
</g>
<!-- Node30&#45;&gt;Node31 -->
<g id="edge30" class="edge">
<title>Node30&#45;&gt;Node31</title>
<path fill="none" stroke="#191970" d="M1354.2275,-78.9378C1379.5202,-83.442 1408.7242,-88.6427 1434.903,-93.3046"/>
<polygon fill="#191970" stroke="#191970" points="1434.3149,-96.7549 1444.7737,-95.0624 1435.5422,-89.8633 1434.3149,-96.7549"/>
</g>
<!-- Node35 -->
<g id="node35" class="node">
<title>Node35</title>
<g id="a_node35"><a xlink:href="../../d9/df3/classG4NistElementBuilder.html#a59bb75f2d0640857418bfc5e722ef825" target="_top" xlink:title="G4NistElementBuilder\l::FindElement">
<polygon fill="none" stroke="#000000" points="1445,-.5 1445,-32.5 1573,-32.5 1573,-.5 1445,-.5"/>
<text text-anchor="start" x="1453" y="-19.5" font-family="FreeSans" font-size="10.00" fill="#000000">G4NistElementBuilder</text>
<text text-anchor="middle" x="1509" y="-7.5" font-family="FreeSans" font-size="10.00" fill="#000000">::FindElement</text>
</a>
</g>
</g>
<!-- Node30&#45;&gt;Node35 -->
<g id="edge35" class="edge">
<title>Node30&#45;&gt;Node35</title>
<path fill="none" stroke="#191970" d="M1354.2275,-52.5429C1379.5202,-46.6528 1408.7242,-39.8519 1434.903,-33.7555"/>
<polygon fill="#191970" stroke="#191970" points="1435.8281,-37.1338 1444.7737,-31.4568 1434.2404,-30.3162 1435.8281,-37.1338"/>
</g>
<!-- Node37 -->
<g id="node37" class="node">
<title>Node37</title>
<g id="a_node37"><a xlink:href="../../de/d80/classG4Element.html#a94eb59b38b9a39e1970420381380ee77" target="_top" xlink:title="G4Element::GetIndex">
<polygon fill="none" stroke="#000000" points="1446.5,-51.5 1446.5,-71.5 1571.5,-71.5 1571.5,-51.5 1446.5,-51.5"/>
<text text-anchor="middle" x="1509" y="-58.5" font-family="FreeSans" font-size="10.00" fill="#000000">G4Element::GetIndex</text>
</a>
</g>
</g>
<!-- Node30&#45;&gt;Node37 -->
<g id="edge37" class="edge">
<title>Node30&#45;&gt;Node37</title>
<path fill="none" stroke="#191970" d="M1354.2275,-65.7403C1379.8545,-65.0382 1409.4968,-64.2261 1435.9393,-63.5017"/>
<polygon fill="#191970" stroke="#191970" points="1436.3831,-66.9909 1446.2835,-63.2183 1436.1913,-59.9935 1436.3831,-66.9909"/>
</g>
<!-- Node32 -->
<g id="node32" class="node">
<title>Node32</title>
<g id="a_node32"><a xlink:href="../../de/d80/classG4Element.html#a56649b316db4415700214ba0c4be75b2" target="_top" xlink:title="G4Element::AddIsotope">
<polygon fill="none" stroke="#ff0000" points="1674.5,-186.5 1674.5,-206.5 1810.5,-206.5 1810.5,-186.5 1674.5,-186.5"/>
<text text-anchor="middle" x="1742.5" y="-193.5" font-family="FreeSans" font-size="10.00" fill="#000000">G4Element::AddIsotope</text>
</a>
</g>
</g>
<!-- Node31&#45;&gt;Node32 -->
<g id="edge31" class="edge">
<title>Node31&#45;&gt;Node32</title>
<path fill="none" stroke="#191970" d="M1573.1515,-121.4128C1582.6405,-124.3392 1592.1841,-127.7004 1601,-131.5 1618.2198,-138.9217 1620.2633,-145.0449 1637,-153.5 1658.8468,-164.5367 1684.2248,-174.9512 1704.615,-182.7659"/>
<polygon fill="#191970" stroke="#191970" points="1703.5952,-186.1221 1714.1868,-186.3848 1706.0708,-179.5744 1703.5952,-186.1221"/>
</g>
<!-- Node33 -->
<g id="node33" class="node">
<title>Node33</title>
<g id="a_node33"><a xlink:href="../../d9/df3/classG4NistElementBuilder.html#a0226653ce08ca39b9b9a6c836743253a" target="_top" xlink:title="G4NistElementBuilder\l::GetAtomicMass">
<polygon fill="none" stroke="#000000" points="1678.5,-112.5 1678.5,-144.5 1806.5,-144.5 1806.5,-112.5 1678.5,-112.5"/>
<text text-anchor="start" x="1686.5" y="-131.5" font-family="FreeSans" font-size="10.00" fill="#000000">G4NistElementBuilder</text>
<text text-anchor="middle" x="1742.5" y="-119.5" font-family="FreeSans" font-size="10.00" fill="#000000">::GetAtomicMass</text>
</a>
</g>
</g>
<!-- Node31&#45;&gt;Node33 -->
<g id="edge33" class="edge">
<title>Node31&#45;&gt;Node33</title>
<path fill="none" stroke="#191970" d="M1573.1137,-112.5407C1602.4679,-115.3064 1637.4368,-118.6011 1667.9584,-121.4768"/>
<polygon fill="#191970" stroke="#191970" points="1667.8399,-124.9811 1678.1241,-122.4346 1668.4966,-118.0119 1667.8399,-124.9811"/>
</g>
<!-- Node34 -->
<g id="node34" class="node">
<title>Node34</title>
<g id="a_node34"><a xlink:href="../../de/d80/classG4Element.html#a6c9f42e422aac2903dd145f7600d6e7d" target="_top" xlink:title="G4Element::SetNaturalAbundanceFlag">
<polygon fill="none" stroke="#000000" points="1637,-73.5 1637,-93.5 1848,-93.5 1848,-73.5 1637,-73.5"/>
<text text-anchor="middle" x="1742.5" y="-80.5" font-family="FreeSans" font-size="10.00" fill="#000000">G4Element::SetNaturalAbundanceFlag</text>
</a>
</g>
</g>
<!-- Node31&#45;&gt;Node34 -->
<g id="edge34" class="edge">
<title>Node31&#45;&gt;Node34</title>
<path fill="none" stroke="#191970" d="M1573.1137,-100.1847C1591.0158,-98.4214 1611.0061,-96.4523 1630.8024,-94.5023"/>
<polygon fill="#191970" stroke="#191970" points="1631.1998,-97.9802 1640.8085,-93.5167 1630.5135,-91.0139 1631.1998,-97.9802"/>
</g>
<!-- Node32&#45;&gt;Node24 -->
<g id="edge32" class="edge">
<title>Node32&#45;&gt;Node24</title>
<path fill="none" stroke="#191970" d="M1771.3893,-206.6324C1814.4816,-221.7461 1895.6546,-250.216 1943.6651,-267.0548"/>
<polygon fill="#191970" stroke="#191970" points="1942.7862,-270.4555 1953.3811,-270.4625 1945.103,-263.85 1942.7862,-270.4555"/>
</g>
<!-- Node36 -->
<g id="node36" class="node">
<title>Node36</title>
<g id="a_node36"><a xlink:href="../../de/d80/classG4Element.html#a057a1bd738df9f6245f6a38701740eb0" target="_top" xlink:title="G4Element::GetElementTable">
<polygon fill="none" stroke="#000000" points="1660,-6.5 1660,-26.5 1825,-26.5 1825,-6.5 1660,-6.5"/>
<text text-anchor="middle" x="1742.5" y="-13.5" font-family="FreeSans" font-size="10.00" fill="#000000">G4Element::GetElementTable</text>
</a>
</g>
</g>
<!-- Node35&#45;&gt;Node36 -->
<g id="edge36" class="edge">
<title>Node35&#45;&gt;Node36</title>
<path fill="none" stroke="#191970" d="M1573.1137,-16.5C1596.7131,-16.5 1623.9415,-16.5 1649.5704,-16.5"/>
<polygon fill="#191970" stroke="#191970" points="1649.6798,-20.0001 1659.6798,-16.5 1649.6797,-13.0001 1649.6798,-20.0001"/>
</g>
<!-- Node43&#45;&gt;Node18 -->
<g id="edge51" class="edge">
<title>Node43&#45;&gt;Node18</title>
<path fill="none" stroke="#191970" d="M1367.6863,-489.2295C1475.5415,-493.7475 1676.7218,-499.7888 1848,-491.5 1882.0064,-489.8543 1920.6975,-485.8725 1947.7322,-482.7459"/>
<polygon fill="#191970" stroke="#191970" points="1948.3225,-486.2006 1957.8438,-481.5535 1947.5027,-479.2488 1948.3225,-486.2006"/>
</g>
<!-- Node43&#45;&gt;Node29 -->
<g id="edge52" class="edge">
<title>Node43&#45;&gt;Node29</title>
<path fill="none" stroke="#191970" d="M1324.2188,-469.4063C1366.54,-449.5017 1437.9404,-415.9207 1478.4788,-396.8547"/>
<polygon fill="#191970" stroke="#191970" points="1480.0431,-399.9868 1487.6026,-392.5636 1477.0639,-393.6525 1480.0431,-399.9868"/>
</g>
<!-- Node44 -->
<g id="node44" class="node">
<title>Node44</title>
<g id="a_node44"><a xlink:href="../../d6/d69/classG4IonisParamMat.html#a35608f674d493dd650595c67b7a30121" target="_top" xlink:title="G4IonisParamMat::Compute\lFluctModel">
<polygon fill="none" stroke="#000000" points="1663.5,-540.5 1663.5,-572.5 1821.5,-572.5 1821.5,-540.5 1663.5,-540.5"/>
<text text-anchor="start" x="1671.5" y="-559.5" font-family="FreeSans" font-size="10.00" fill="#000000">G4IonisParamMat::Compute</text>
<text text-anchor="middle" x="1742.5" y="-547.5" font-family="FreeSans" font-size="10.00" fill="#000000">FluctModel</text>
</a>
</g>
</g>
<!-- Node43&#45;&gt;Node44 -->
<g id="edge45" class="edge">
<title>Node43&#45;&gt;Node44</title>
<path fill="none" stroke="#191970" d="M1352.4891,-501.5401C1362.0988,-504.3308 1371.8596,-507.3544 1381,-510.5 1397.3899,-516.1405 1400.1837,-521.2979 1417,-525.5 1495.2834,-545.0619 1586.9868,-552.4577 1653.0716,-555.1668"/>
<polygon fill="#191970" stroke="#191970" points="1653.3258,-558.679 1663.4519,-555.5625 1653.5925,-551.684 1653.3258,-558.679"/>
</g>
<!-- Node43&#45;&gt;Node48 -->
<g id="edge53" class="edge">
<title>Node43&#45;&gt;Node48</title>
<path fill="none" stroke="#191970" d="M1365.4802,-501.551C1370.9563,-504.1061 1376.2034,-507.0675 1381,-510.5 1404.1571,-527.0714 1393.8199,-546.9608 1417,-563.5 1423.442,-568.0964 1430.6868,-571.8479 1438.2099,-574.9099"/>
<polygon fill="#191970" stroke="#191970" points="1437.2546,-578.2871 1447.8484,-578.4312 1439.6567,-571.7121 1437.2546,-578.2871"/>
</g>
<!-- Node44&#45;&gt;Node17 -->
<g id="edge46" class="edge">
<title>Node44&#45;&gt;Node17</title>
<path fill="none" stroke="#191970" d="M1821.585,-543.6219C1864.0014,-536.7148 1914.1419,-528.55 1946.9324,-523.2104"/>
<polygon fill="#191970" stroke="#191970" points="1947.6298,-526.643 1956.9373,-521.5812 1946.5047,-519.734 1947.6298,-526.643"/>
</g>
<!-- Node44&#45;&gt;Node18 -->
<g id="edge47" class="edge">
<title>Node44&#45;&gt;Node18</title>
<path fill="none" stroke="#191970" d="M1810.9304,-540.4757C1823.5869,-536.3803 1836.4464,-531.4186 1848,-525.5 1866.0404,-516.2584 1865.5441,-505.8811 1884,-497.5 1903.9714,-488.4307 1928.1484,-483.6849 1947.4914,-481.2044"/>
<polygon fill="#191970" stroke="#191970" points="1948.1419,-484.6531 1957.6828,-480.0463 1947.3515,-477.6978 1948.1419,-484.6531"/>
</g>
<!-- Node45 -->
<g id="node45" class="node">
<title>Node45</title>
<g id="a_node45"><a xlink:href="../../d5/de4/classG4Material.html#ad04e40f52334a1335ec07c3dba5affff" target="_top" xlink:title="G4Material::GetElementVector">
<polygon fill="none" stroke="#000000" points="1896.5,-585.5 1896.5,-605.5 2067.5,-605.5 2067.5,-585.5 1896.5,-585.5"/>
<text text-anchor="middle" x="1982" y="-592.5" font-family="FreeSans" font-size="10.00" fill="#000000">G4Material::GetElementVector</text>
</a>
</g>
</g>
<!-- Node44&#45;&gt;Node45 -->
<g id="edge48" class="edge">
<title>Node44&#45;&gt;Node45</title>
<path fill="none" stroke="#191970" d="M1821.585,-569.3781C1850.2235,-574.0416 1882.383,-579.2784 1910.3463,-583.832"/>
<polygon fill="#191970" stroke="#191970" points="1910.0118,-587.3235 1920.4443,-585.4763 1911.1369,-580.4145 1910.0118,-587.3235"/>
</g>
<!-- Node46 -->
<g id="node46" class="node">
<title>Node46</title>
<g id="a_node46"><a xlink:href="../../d5/de4/classG4Material.html#a23da391e189ffb53d87a944e8aa69c99" target="_top" xlink:title="G4Material::GetFractionVector">
<polygon fill="none" stroke="#000000" points="1897.5,-546.5 1897.5,-566.5 2066.5,-566.5 2066.5,-546.5 1897.5,-546.5"/>
<text text-anchor="middle" x="1982" y="-553.5" font-family="FreeSans" font-size="10.00" fill="#000000">G4Material::GetFractionVector</text>
</a>
</g>
</g>
<!-- Node44&#45;&gt;Node46 -->
<g id="edge49" class="edge">
<title>Node44&#45;&gt;Node46</title>
<path fill="none" stroke="#191970" d="M1821.585,-556.5C1842.5221,-556.5 1865.341,-556.5 1887.0264,-556.5"/>
<polygon fill="#191970" stroke="#191970" points="1887.2322,-560.0001 1897.2321,-556.5 1887.2321,-553.0001 1887.2322,-560.0001"/>
</g>
<!-- Node47 -->
<g id="node47" class="node">
<title>Node47</title>
<g id="a_node47"><a xlink:href="../../d5/de4/classG4Material.html#a4f4c62a46fecf76d2cea99a0e3cd63f3" target="_top" xlink:title="G4Material::GetNumberOfElements">
<polygon fill="none" stroke="#000000" points="1884,-624.5 1884,-644.5 2080,-644.5 2080,-624.5 1884,-624.5"/>
<text text-anchor="middle" x="1982" y="-631.5" font-family="FreeSans" font-size="10.00" fill="#000000">G4Material::GetNumberOfElements</text>
</a>
</g>
</g>
<!-- Node44&#45;&gt;Node47 -->
<g id="edge50" class="edge">
<title>Node44&#45;&gt;Node47</title>
<path fill="none" stroke="#191970" d="M1775.5316,-572.5332C1803.7695,-585.6862 1845.7807,-603.9586 1884,-615.5 1892.3777,-618.0299 1901.2633,-620.301 1910.1305,-622.3169"/>
<polygon fill="#191970" stroke="#191970" points="1909.5909,-625.7813 1920.1061,-624.4848 1911.0775,-618.9409 1909.5909,-625.7813"/>
</g>
<!-- Node50&#45;&gt;Node49 -->
<g id="edge56" class="edge">
<title>Node50&#45;&gt;Node49</title>
<path fill="none" stroke="#191970" d="M963.1664,-665.6859C974.4064,-664.142 986.2462,-662.5156 997.9113,-660.9133"/>
<polygon fill="#191970" stroke="#191970" points="998.6674,-664.3424 1008.098,-659.514 997.7147,-657.4075 998.6674,-664.3424"/>
</g>
</g>
</svg>
