<?xml version="1.0" encoding="UTF-8" standalone="no"?>
<!DOCTYPE svg PUBLIC "-//W3C//DTD SVG 1.1//EN"
 "http://www.w3.org/Graphics/SVG/1.1/DTD/svg11.dtd">
<!-- Generated by graphviz version 2.40.1 (20161225.0304)
 -->
<!-- Title: geant4/tree/geant4&#45;10.6&#45;release/source/particles/hadrons/ions/include/G4AntiHe3.hh Pages: 1 -->
<svg width="1087pt" height="749pt"
 viewBox="0.00 0.00 1087.00 749.00" xmlns="http://www.w3.org/2000/svg" xmlns:xlink="http://www.w3.org/1999/xlink">
<g id="graph0" class="graph" transform="scale(1 1) rotate(0) translate(4 745)">
<title>geant4/tree/geant4&#45;10.6&#45;release/source/particles/hadrons/ions/include/G4AntiHe3.hh</title>
<!-- Node1 -->
<g id="node1" class="node">
<title>Node1</title>
<polygon fill="#bfbfbf" stroke="#000000" points="538.5,-684.5 538.5,-740.5 671.5,-740.5 671.5,-684.5 538.5,-684.5"/>
<text text-anchor="start" x="546.5" y="-727.5" font-family="FreeSans" font-size="10.00" fill="#000000">geant4/tree/geant4</text>
<text text-anchor="start" x="546.5" y="-715.5" font-family="FreeSans" font-size="10.00" fill="#000000">&#45;10.6&#45;release/source</text>
<text text-anchor="start" x="546.5" y="-703.5" font-family="FreeSans" font-size="10.00" fill="#000000">/particles/hadrons/ions</text>
<text text-anchor="middle" x="605" y="-691.5" font-family="FreeSans" font-size="10.00" fill="#000000">/include/G4AntiHe3.hh</text>
</g>
<!-- Node2 -->
<g id="node2" class="node">
<title>Node2</title>
<g id="a_node2"><a xlink:href="../../da/d46/globals_8hh.html" target="_top" xlink:title="globals.hh">
<polygon fill="none" stroke="#000000" points="386,-342.5 386,-362.5 454,-362.5 454,-342.5 386,-342.5"/>
<text text-anchor="middle" x="420" y="-349.5" font-family="FreeSans" font-size="10.00" fill="#000000">globals.hh</text>
</a>
</g>
</g>
<!-- Node1&#45;&gt;Node2 -->
<g id="edge1" class="edge">
<title>Node1&#45;&gt;Node2</title>
<path fill="none" stroke="#191970" d="M593.3942,-684.4562C583.5447,-658.0955 571,-617.2986 571,-580.5 571,-580.5 571,-580.5 571,-466.5 571,-412.3345 508.3472,-380.6488 463.7562,-364.9568"/>
<polygon fill="#191970" stroke="#191970" points="464.8584,-361.6349 454.2642,-361.7584 462.6231,-368.2684 464.8584,-361.6349"/>
</g>
<!-- Node3 -->
<g id="node3" class="node">
<title>Node3</title>
<g id="a_node3"><a xlink:href="../../df/de9/G4ios_8hh.html" target="_top" xlink:title="G4ios.hh">
<polygon fill="none" stroke="#000000" points="822.5,-171.5 822.5,-191.5 883.5,-191.5 883.5,-171.5 822.5,-171.5"/>
<text text-anchor="middle" x="853" y="-178.5" font-family="FreeSans" font-size="10.00" fill="#000000">G4ios.hh</text>
</a>
</g>
</g>
<!-- Node1&#45;&gt;Node3 -->
<g id="edge39" class="edge">
<title>Node1&#45;&gt;Node3</title>
<path fill="none" stroke="#191970" d="M671.6569,-707.8793C802.2121,-696.9911 1079,-664.0544 1079,-580.5 1079,-580.5 1079,-580.5 1079,-295.5 1079,-213.7014 959.5195,-190.5854 894.3071,-184.0606"/>
<polygon fill="#191970" stroke="#191970" points="894.2266,-180.5389 883.9505,-183.1179 893.592,-187.5101 894.2266,-180.5389"/>
</g>
<!-- Node27 -->
<g id="node27" class="node">
<title>Node27</title>
<g id="a_node27"><a xlink:href="../../da/d12/G4ParticleDefinition_8hh.html" target="_top" xlink:title="G4ParticleDefinition.hh">
<polygon fill="none" stroke="#000000" points="372.5,-570.5 372.5,-590.5 505.5,-590.5 505.5,-570.5 372.5,-570.5"/>
<text text-anchor="middle" x="439" y="-577.5" font-family="FreeSans" font-size="10.00" fill="#000000">G4ParticleDefinition.hh</text>
</a>
</g>
</g>
<!-- Node1&#45;&gt;Node27 -->
<g id="edge40" class="edge">
<title>Node1&#45;&gt;Node27</title>
<path fill="none" stroke="#191970" d="M569.3888,-684.1827C536.0353,-657.6606 487.3277,-618.9292 459.8603,-597.0877"/>
<polygon fill="#191970" stroke="#191970" points="461.7406,-594.1112 451.7351,-590.6267 457.3838,-599.5901 461.7406,-594.1112"/>
</g>
<!-- Node42 -->
<g id="node42" class="node">
<title>Node42</title>
<g id="a_node42"><a xlink:href="../../d6/d88/G4Ions_8hh.html" target="_top" xlink:title="G4Ions.hh">
<polygon fill="none" stroke="#000000" points="606.5,-627.5 606.5,-647.5 673.5,-647.5 673.5,-627.5 606.5,-627.5"/>
<text text-anchor="middle" x="640" y="-634.5" font-family="FreeSans" font-size="10.00" fill="#000000">G4Ions.hh</text>
</a>
</g>
</g>
<!-- Node1&#45;&gt;Node42 -->
<g id="edge66" class="edge">
<title>Node1&#45;&gt;Node42</title>
<path fill="none" stroke="#191970" d="M618.232,-684.1457C622.4708,-675.0625 627.0655,-665.2169 630.9363,-656.9223"/>
<polygon fill="#191970" stroke="#191970" points="634.1689,-658.2715 635.2262,-647.7296 627.8257,-655.3113 634.1689,-658.2715"/>
</g>
<!-- Node2&#45;&gt;Node3 -->
<g id="edge2" class="edge">
<title>Node2&#45;&gt;Node3</title>
<path fill="none" stroke="#191970" d="M454.1933,-349.5343C506.9805,-344.336 611.0973,-331.6072 696,-306 755.6218,-288.0177 780.256,-293.3236 824,-249 836.8327,-235.9972 844.3839,-216.4139 848.5463,-201.6843"/>
<polygon fill="#191970" stroke="#191970" points="851.9417,-202.5335 851.0054,-191.9802 845.1561,-200.814 851.9417,-202.5335"/>
</g>
<!-- Node4 -->
<g id="node4" class="node">
<title>Node4</title>
<g id="a_node4"><a xlink:href="../../de/d29/G4Types_8hh.html" target="_top" xlink:title="G4Types.hh">
<polygon fill="none" stroke="#000000" points="216.5,-114.5 216.5,-134.5 291.5,-134.5 291.5,-114.5 216.5,-114.5"/>
<text text-anchor="middle" x="254" y="-121.5" font-family="FreeSans" font-size="10.00" fill="#000000">G4Types.hh</text>
</a>
</g>
</g>
<!-- Node2&#45;&gt;Node4 -->
<g id="edge10" class="edge">
<title>Node2&#45;&gt;Node4</title>
<path fill="none" stroke="#191970" d="M385.8575,-343.388C350.3554,-333.5242 297.5541,-317.6445 280,-306 251.918,-287.3719 241.8723,-280.5381 230,-249 217.7867,-216.556 221.8191,-204.6876 230,-171 232.3422,-161.3552 237.0562,-151.4737 241.6911,-143.3141"/>
<polygon fill="#191970" stroke="#191970" points="244.7564,-145.0092 246.9489,-134.6437 238.7709,-141.3795 244.7564,-145.0092"/>
</g>
<!-- Node9 -->
<g id="node9" class="node">
<title>Node9</title>
<polygon fill="none" stroke="#bfbfbf" points="288.5,-285.5 288.5,-305.5 353.5,-305.5 353.5,-285.5 288.5,-285.5"/>
<text text-anchor="middle" x="321" y="-292.5" font-family="FreeSans" font-size="10.00" fill="#000000">algorithm</text>
</g>
<!-- Node2&#45;&gt;Node9 -->
<g id="edge9" class="edge">
<title>Node2&#45;&gt;Node9</title>
<path fill="none" stroke="#191970" d="M402.3008,-342.3095C387.0965,-333.5556 364.9506,-320.8049 347.6104,-310.8211"/>
<polygon fill="#191970" stroke="#191970" points="348.9586,-307.5587 338.546,-305.6022 345.4658,-313.6251 348.9586,-307.5587"/>
</g>
<!-- Node10 -->
<g id="node10" class="node">
<title>Node10</title>
<g id="a_node10"><a xlink:href="../../d2/df2/source_2global_2management_2include_2G4String_8hh.html" target="_top" xlink:title="G4String.hh">
<polygon fill="none" stroke="#000000" points="588,-171.5 588,-191.5 664,-191.5 664,-171.5 588,-171.5"/>
<text text-anchor="middle" x="626" y="-178.5" font-family="FreeSans" font-size="10.00" fill="#000000">G4String.hh</text>
</a>
</g>
</g>
<!-- Node2&#45;&gt;Node10 -->
<g id="edge11" class="edge">
<title>Node2&#45;&gt;Node10</title>
<path fill="none" stroke="#191970" d="M385.8099,-343.7695C382.8395,-343.127 379.8724,-342.5259 377,-342 312.6888,-330.2253 138.2711,-343.9046 85,-306 54.9892,-284.6461 32.0386,-255.0845 57,-228 65.7967,-218.4551 441.4083,-193.3818 577.4508,-184.5955"/>
<polygon fill="#191970" stroke="#191970" points="577.8306,-188.0784 587.5849,-183.9425 577.3805,-181.0929 577.8306,-188.0784"/>
</g>
<!-- Node15 -->
<g id="node15" class="node">
<title>Node15</title>
<g id="a_node15"><a xlink:href="../../d2/d54/templates_8hh.html" target="_top" xlink:title="templates.hh">
<polygon fill="none" stroke="#000000" points="94.5,-285.5 94.5,-305.5 177.5,-305.5 177.5,-285.5 94.5,-285.5"/>
<text text-anchor="middle" x="136" y="-292.5" font-family="FreeSans" font-size="10.00" fill="#000000">templates.hh</text>
</a>
</g>
</g>
<!-- Node2&#45;&gt;Node15 -->
<g id="edge18" class="edge">
<title>Node2&#45;&gt;Node15</title>
<path fill="none" stroke="#191970" d="M385.7675,-343.981C382.8063,-343.2927 379.8529,-342.6232 377,-342 358.7978,-338.0241 252.9838,-317.7777 187.7625,-305.3477"/>
<polygon fill="#191970" stroke="#191970" points="188.1414,-301.857 177.6631,-303.4236 186.8313,-308.7333 188.1414,-301.857"/>
</g>
<!-- Node18 -->
<g id="node18" class="node">
<title>Node18</title>
<g id="a_node18"><a xlink:href="../../d5/d4f/G4Exception_8hh.html" target="_top" xlink:title="G4Exception.hh">
<polygon fill="none" stroke="#000000" points="272,-228.5 272,-248.5 368,-248.5 368,-228.5 272,-228.5"/>
<text text-anchor="middle" x="320" y="-235.5" font-family="FreeSans" font-size="10.00" fill="#000000">G4Exception.hh</text>
</a>
</g>
</g>
<!-- Node2&#45;&gt;Node18 -->
<g id="edge21" class="edge">
<title>Node2&#45;&gt;Node18</title>
<path fill="none" stroke="#191970" d="M411.6418,-342.3154C400.6548,-328.9943 380.6737,-304.9976 363,-285 354.4146,-275.2857 344.6162,-264.6558 336.5433,-256.0143"/>
<polygon fill="#191970" stroke="#191970" points="339.094,-253.6177 329.6988,-248.7206 333.9895,-258.4078 339.094,-253.6177"/>
</g>
<!-- Node21 -->
<g id="node21" class="node">
<title>Node21</title>
<g id="a_node21"><a xlink:href="../../dc/d3a/G4EnvironmentUtils_8hh.html" target="_top" xlink:title="G4EnvironmentUtils.hh">
<polygon fill="none" stroke="#000000" points="553.5,-285.5 553.5,-305.5 686.5,-305.5 686.5,-285.5 553.5,-285.5"/>
<text text-anchor="middle" x="620" y="-292.5" font-family="FreeSans" font-size="10.00" fill="#000000">G4EnvironmentUtils.hh</text>
</a>
</g>
</g>
<!-- Node2&#45;&gt;Node21 -->
<g id="edge27" class="edge">
<title>Node2&#45;&gt;Node21</title>
<path fill="none" stroke="#191970" d="M454.3812,-342.7014C487.6617,-333.2164 538.3029,-318.7837 574.8239,-308.3752"/>
<polygon fill="#191970" stroke="#191970" points="576.0664,-311.6605 584.7241,-305.5536 574.1478,-304.9286 576.0664,-311.6605"/>
</g>
<!-- Node3&#45;&gt;Node4 -->
<g id="edge3" class="edge">
<title>Node3&#45;&gt;Node4</title>
<path fill="none" stroke="#191970" d="M822.2764,-179.5834C740.4282,-174.3123 510.3751,-158.4181 320,-135 314.0982,-134.274 307.9143,-133.4179 301.7978,-132.5128"/>
<polygon fill="#191970" stroke="#191970" points="302.0435,-129.0098 291.6293,-130.9578 300.9853,-135.9294 302.0435,-129.0098"/>
</g>
<!-- Node8 -->
<g id="node8" class="node">
<title>Node8</title>
<polygon fill="none" stroke="#bfbfbf" points="806,-114.5 806,-134.5 866,-134.5 866,-114.5 806,-114.5"/>
<text text-anchor="middle" x="836" y="-121.5" font-family="FreeSans" font-size="10.00" fill="#000000">iostream</text>
</g>
<!-- Node3&#45;&gt;Node8 -->
<g id="edge8" class="edge">
<title>Node3&#45;&gt;Node8</title>
<path fill="none" stroke="#191970" d="M849.9607,-171.3095C847.7367,-163.8524 844.6477,-153.4951 841.9406,-144.4186"/>
<polygon fill="#191970" stroke="#191970" points="845.2251,-143.1848 839.0129,-134.6022 838.5171,-145.1855 845.2251,-143.1848"/>
</g>
<!-- Node5 -->
<g id="node5" class="node">
<title>Node5</title>
<polygon fill="none" stroke="#bfbfbf" points="192.5,-.5 192.5,-20.5 303.5,-20.5 303.5,-.5 192.5,-.5"/>
<text text-anchor="middle" x="248" y="-7.5" font-family="FreeSans" font-size="10.00" fill="#000000">G4GlobalConfig.hh</text>
</g>
<!-- Node4&#45;&gt;Node5 -->
<g id="edge4" class="edge">
<title>Node4&#45;&gt;Node5</title>
<path fill="none" stroke="#191970" d="M266.6617,-114.4369C281.125,-101.6318 301.7318,-78.579 293,-57 288.3541,-45.5186 279.3637,-35.3021 270.6324,-27.3904"/>
<polygon fill="#191970" stroke="#191970" points="272.7201,-24.5726 262.8188,-20.8023 268.2079,-29.9242 272.7201,-24.5726"/>
</g>
<!-- Node6 -->
<g id="node6" class="node">
<title>Node6</title>
<polygon fill="none" stroke="#bfbfbf" points="224.5,-57.5 224.5,-77.5 283.5,-77.5 283.5,-57.5 224.5,-57.5"/>
<text text-anchor="middle" x="254" y="-64.5" font-family="FreeSans" font-size="10.00" fill="#000000">complex</text>
</g>
<!-- Node4&#45;&gt;Node6 -->
<g id="edge5" class="edge">
<title>Node4&#45;&gt;Node6</title>
<path fill="none" stroke="#191970" d="M254,-114.3095C254,-106.9335 254,-96.72 254,-87.715"/>
<polygon fill="#191970" stroke="#191970" points="257.5001,-87.6022 254,-77.6022 250.5001,-87.6023 257.5001,-87.6022"/>
</g>
<!-- Node7 -->
<g id="node7" class="node">
<title>Node7</title>
<g id="a_node7"><a xlink:href="../../d0/d00/tls_8hh.html" target="_top" xlink:title="tls.hh">
<polygon fill="none" stroke="#000000" points="162,-57.5 162,-77.5 206,-77.5 206,-57.5 162,-57.5"/>
<text text-anchor="middle" x="184" y="-64.5" font-family="FreeSans" font-size="10.00" fill="#000000">tls.hh</text>
</a>
</g>
</g>
<!-- Node4&#45;&gt;Node7 -->
<g id="edge6" class="edge">
<title>Node4&#45;&gt;Node7</title>
<path fill="none" stroke="#191970" d="M241.4854,-114.3095C231.1331,-105.8798 216.2294,-93.7439 204.1913,-83.9415"/>
<polygon fill="#191970" stroke="#191970" points="206.3706,-81.2025 196.4063,-77.6022 201.9506,-86.6306 206.3706,-81.2025"/>
</g>
<!-- Node7&#45;&gt;Node5 -->
<g id="edge7" class="edge">
<title>Node7&#45;&gt;Node5</title>
<path fill="none" stroke="#191970" d="M195.4419,-57.3095C204.7249,-49.0419 218.0106,-37.2093 228.9015,-27.5096"/>
<polygon fill="#191970" stroke="#191970" points="231.5173,-29.8668 236.6571,-20.6022 226.8616,-24.6395 231.5173,-29.8668"/>
</g>
<!-- Node10&#45;&gt;Node4 -->
<g id="edge15" class="edge">
<title>Node10&#45;&gt;Node4</title>
<path fill="none" stroke="#191970" d="M587.8228,-175.7858C529.9041,-167.0971 416.3703,-149.9879 320,-135 314.1244,-134.0862 307.9562,-133.1175 301.848,-132.1524"/>
<polygon fill="#191970" stroke="#191970" points="302.1118,-128.6506 291.6872,-130.5421 301.0161,-135.5643 302.1118,-128.6506"/>
</g>
<!-- Node10&#45;&gt;Node8 -->
<g id="edge16" class="edge">
<title>Node10&#45;&gt;Node8</title>
<path fill="none" stroke="#191970" d="M663.0604,-171.4408C700.351,-161.319 757.6772,-145.759 795.9852,-135.3612"/>
<polygon fill="#191970" stroke="#191970" points="797.0376,-138.7022 805.7715,-132.7049 795.2039,-131.9467 797.0376,-138.7022"/>
</g>
<!-- Node11 -->
<g id="node11" class="node">
<title>Node11</title>
<polygon fill="none" stroke="#bfbfbf" points="492,-114.5 492,-134.5 542,-134.5 542,-114.5 492,-114.5"/>
<text text-anchor="middle" x="517" y="-121.5" font-family="FreeSans" font-size="10.00" fill="#000000">stdio.h</text>
</g>
<!-- Node10&#45;&gt;Node11 -->
<g id="edge12" class="edge">
<title>Node10&#45;&gt;Node11</title>
<path fill="none" stroke="#191970" d="M606.7639,-171.4408C589.7467,-162.5419 564.6911,-149.4394 545.3728,-139.3371"/>
<polygon fill="#191970" stroke="#191970" points="546.8939,-136.1829 536.4104,-134.6504 543.65,-142.386 546.8939,-136.1829"/>
</g>
<!-- Node12 -->
<g id="node12" class="node">
<title>Node12</title>
<polygon fill="none" stroke="#bfbfbf" points="724.5,-114.5 724.5,-134.5 769.5,-134.5 769.5,-114.5 724.5,-114.5"/>
<text text-anchor="middle" x="747" y="-121.5" font-family="FreeSans" font-size="10.00" fill="#000000">string</text>
</g>
<!-- Node10&#45;&gt;Node12 -->
<g id="edge13" class="edge">
<title>Node10&#45;&gt;Node12</title>
<path fill="none" stroke="#191970" d="M647.3538,-171.4408C666.5021,-162.4205 694.8187,-149.0813 716.3773,-138.9255"/>
<polygon fill="#191970" stroke="#191970" points="717.8977,-142.0783 725.4526,-134.6504 714.9146,-135.7458 717.8977,-142.0783"/>
</g>
<!-- Node13 -->
<g id="node13" class="node">
<title>Node13</title>
<polygon fill="none" stroke="#bfbfbf" points="560,-114.5 560,-134.5 610,-134.5 610,-114.5 560,-114.5"/>
<text text-anchor="middle" x="585" y="-121.5" font-family="FreeSans" font-size="10.00" fill="#000000">cstring</text>
</g>
<!-- Node10&#45;&gt;Node13 -->
<g id="edge14" class="edge">
<title>Node10&#45;&gt;Node13</title>
<path fill="none" stroke="#191970" d="M618.67,-171.3095C613.0146,-163.4472 605.0402,-152.3608 598.2716,-142.9507"/>
<polygon fill="#191970" stroke="#191970" points="600.9472,-140.6765 592.2665,-134.6022 595.2645,-144.7641 600.9472,-140.6765"/>
</g>
<!-- Node14 -->
<g id="node14" class="node">
<title>Node14</title>
<polygon fill="none" stroke="#bfbfbf" points="628,-114.5 628,-134.5 706,-134.5 706,-114.5 628,-114.5"/>
<text text-anchor="middle" x="667" y="-121.5" font-family="FreeSans" font-size="10.00" fill="#000000">G4String.icc</text>
</g>
<!-- Node10&#45;&gt;Node14 -->
<g id="edge17" class="edge">
<title>Node10&#45;&gt;Node14</title>
<path fill="none" stroke="#191970" d="M633.33,-171.3095C638.9854,-163.4472 646.9598,-152.3608 653.7284,-142.9507"/>
<polygon fill="#191970" stroke="#191970" points="656.7355,-144.7641 659.7335,-134.6022 651.0528,-140.6765 656.7355,-144.7641"/>
</g>
<!-- Node16 -->
<g id="node16" class="node">
<title>Node16</title>
<polygon fill="none" stroke="#bfbfbf" points="66,-228.5 66,-248.5 110,-248.5 110,-228.5 66,-228.5"/>
<text text-anchor="middle" x="88" y="-235.5" font-family="FreeSans" font-size="10.00" fill="#000000">limits</text>
</g>
<!-- Node15&#45;&gt;Node16 -->
<g id="edge19" class="edge">
<title>Node15&#45;&gt;Node16</title>
<path fill="none" stroke="#191970" d="M127.4186,-285.3095C120.6611,-277.2851 111.0756,-265.9022 103.0491,-256.3708"/>
<polygon fill="#191970" stroke="#191970" points="105.6257,-253.9969 96.5071,-248.6022 100.2713,-258.5059 105.6257,-253.9969"/>
</g>
<!-- Node17 -->
<g id="node17" class="node">
<title>Node17</title>
<polygon fill="none" stroke="#bfbfbf" points="128.5,-228.5 128.5,-248.5 177.5,-248.5 177.5,-228.5 128.5,-228.5"/>
<text text-anchor="middle" x="153" y="-235.5" font-family="FreeSans" font-size="10.00" fill="#000000">climits</text>
</g>
<!-- Node15&#45;&gt;Node17 -->
<g id="edge20" class="edge">
<title>Node15&#45;&gt;Node17</title>
<path fill="none" stroke="#191970" d="M139.0393,-285.3095C141.2633,-277.8524 144.3523,-267.4951 147.0594,-258.4186"/>
<polygon fill="#191970" stroke="#191970" points="150.4829,-259.1855 149.9871,-248.6022 143.7749,-257.1848 150.4829,-259.1855"/>
</g>
<!-- Node18&#45;&gt;Node3 -->
<g id="edge22" class="edge">
<title>Node18&#45;&gt;Node3</title>
<path fill="none" stroke="#191970" d="M368.3245,-233.1181C383.2849,-231.4629 399.8228,-229.6444 415,-228 561.1255,-212.1681 734.7365,-193.8966 812.1847,-185.7738"/>
<polygon fill="#191970" stroke="#191970" points="812.8814,-189.22 822.4619,-184.6963 812.1515,-182.2582 812.8814,-189.22"/>
</g>
<!-- Node18&#45;&gt;Node10 -->
<g id="edge23" class="edge">
<title>Node18&#45;&gt;Node10</title>
<path fill="none" stroke="#191970" d="M368.1491,-229.531C425.467,-218.8542 520.6126,-201.131 577.9061,-190.4587"/>
<polygon fill="#191970" stroke="#191970" points="578.6104,-193.8878 587.8003,-188.6156 577.3285,-187.0061 578.6104,-193.8878"/>
</g>
<!-- Node19 -->
<g id="node19" class="node">
<title>Node19</title>
<g id="a_node19"><a xlink:href="../../d9/d05/G4VExceptionHandler_8hh.html" target="_top" xlink:title="G4VExceptionHandler.hh">
<polygon fill="none" stroke="#000000" points="272,-171.5 272,-191.5 414,-191.5 414,-171.5 272,-171.5"/>
<text text-anchor="middle" x="343" y="-178.5" font-family="FreeSans" font-size="10.00" fill="#000000">G4VExceptionHandler.hh</text>
</a>
</g>
</g>
<!-- Node18&#45;&gt;Node19 -->
<g id="edge24" class="edge">
<title>Node18&#45;&gt;Node19</title>
<path fill="none" stroke="#191970" d="M324.1119,-228.3095C327.1537,-220.7714 331.3912,-210.2696 335.0819,-201.123"/>
<polygon fill="#191970" stroke="#191970" points="338.4274,-202.1854 338.9237,-191.6022 331.9359,-199.566 338.4274,-202.1854"/>
</g>
<!-- Node19&#45;&gt;Node4 -->
<g id="edge25" class="edge">
<title>Node19&#45;&gt;Node4</title>
<path fill="none" stroke="#191970" d="M327.0886,-171.3095C313.5466,-162.6366 293.8793,-150.0407 278.3566,-140.0992"/>
<polygon fill="#191970" stroke="#191970" points="280.0823,-137.0481 269.7737,-134.6022 276.307,-142.9429 280.0823,-137.0481"/>
</g>
<!-- Node20 -->
<g id="node20" class="node">
<title>Node20</title>
<g id="a_node20"><a xlink:href="../../d6/d7e/G4ExceptionSeverity_8hh.html" target="_top" xlink:title="G4ExceptionSeverity.hh">
<polygon fill="none" stroke="#000000" points="329,-114.5 329,-134.5 465,-134.5 465,-114.5 329,-114.5"/>
<text text-anchor="middle" x="397" y="-121.5" font-family="FreeSans" font-size="10.00" fill="#000000">G4ExceptionSeverity.hh</text>
</a>
</g>
</g>
<!-- Node19&#45;&gt;Node20 -->
<g id="edge26" class="edge">
<title>Node19&#45;&gt;Node20</title>
<path fill="none" stroke="#191970" d="M352.6541,-171.3095C360.3331,-163.204 371.2582,-151.672 380.3428,-142.0826"/>
<polygon fill="#191970" stroke="#191970" points="383.0928,-144.2689 387.4295,-134.6022 378.0111,-139.4547 383.0928,-144.2689"/>
</g>
<!-- Node21&#45;&gt;Node3 -->
<g id="edge35" class="edge">
<title>Node21&#45;&gt;Node3</title>
<path fill="none" stroke="#191970" d="M686.6175,-288.5079C722.2028,-282.3355 765.4562,-270.743 799,-249 817.7717,-236.8322 832.9912,-215.9489 842.4308,-200.6252"/>
<polygon fill="#191970" stroke="#191970" points="845.4916,-202.3248 847.5414,-191.9301 839.4568,-198.7777 845.4916,-202.3248"/>
</g>
<!-- Node21&#45;&gt;Node8 -->
<g id="edge32" class="edge">
<title>Node21&#45;&gt;Node8</title>
<path fill="none" stroke="#191970" d="M663.9913,-285.4317C688.9051,-278.2006 719.6551,-266.5756 743,-249 781.5845,-219.951 811.6825,-170.6493 826.2954,-143.6241"/>
<polygon fill="#191970" stroke="#191970" points="829.4037,-145.2333 830.9655,-134.7542 823.2097,-141.9721 829.4037,-145.2333"/>
</g>
<!-- Node21&#45;&gt;Node10 -->
<g id="edge36" class="edge">
<title>Node21&#45;&gt;Node10</title>
<path fill="none" stroke="#191970" d="M553.2432,-289.283C500.2011,-282.799 432.1652,-270.4948 415,-249 409.1759,-241.7068 409.1535,-235.2753 415,-228 435.0191,-203.0888 521.8676,-190.7387 577.7126,-185.2647"/>
<polygon fill="#191970" stroke="#191970" points="578.1275,-188.7413 587.7563,-184.3211 577.4727,-181.7719 578.1275,-188.7413"/>
</g>
<!-- Node21&#45;&gt;Node12 -->
<g id="edge29" class="edge">
<title>Node21&#45;&gt;Node12</title>
<path fill="none" stroke="#191970" d="M664.7501,-285.4557C685.449,-278.5613 708.5882,-267.2438 723,-249 746.8788,-218.7718 749.326,-171.6923 748.4841,-144.9261"/>
<polygon fill="#191970" stroke="#191970" points="751.9731,-144.6182 747.9747,-134.8068 744.9819,-144.9702 751.9731,-144.6182"/>
</g>
<!-- Node21&#45;&gt;Node18 -->
<g id="edge37" class="edge">
<title>Node21&#45;&gt;Node18</title>
<path fill="none" stroke="#191970" d="M567.0566,-285.4408C514.166,-275.3915 433.0619,-259.9818 378.3447,-249.5855"/>
<polygon fill="#191970" stroke="#191970" points="378.9252,-246.1332 368.4476,-247.705 377.6185,-253.0102 378.9252,-246.1332"/>
</g>
<!-- Node21&#45;&gt;Node20 -->
<g id="edge38" class="edge">
<title>Node21&#45;&gt;Node20</title>
<path fill="none" stroke="#191970" d="M644.5715,-285.4073C670.8964,-273.1027 706.7766,-251.0779 690,-228 659.5044,-186.0501 627.9905,-209.0209 579,-192 527.933,-174.2576 469.4008,-152.246 432.8117,-138.2825"/>
<polygon fill="#191970" stroke="#191970" points="433.6885,-134.8707 423.098,-134.5678 431.1881,-141.4089 433.6885,-134.8707"/>
</g>
<!-- Node22 -->
<g id="node22" class="node">
<title>Node22</title>
<polygon fill="none" stroke="#bfbfbf" points="631,-228.5 631,-248.5 681,-248.5 681,-228.5 631,-228.5"/>
<text text-anchor="middle" x="656" y="-235.5" font-family="FreeSans" font-size="10.00" fill="#000000">cstdlib</text>
</g>
<!-- Node21&#45;&gt;Node22 -->
<g id="edge28" class="edge">
<title>Node21&#45;&gt;Node22</title>
<path fill="none" stroke="#191970" d="M626.4361,-285.3095C631.3506,-277.5282 638.2596,-266.589 644.1628,-257.2423"/>
<polygon fill="#191970" stroke="#191970" points="647.2389,-258.9261 649.6196,-248.6022 641.3204,-255.1881 647.2389,-258.9261"/>
</g>
<!-- Node23 -->
<g id="node23" class="node">
<title>Node23</title>
<polygon fill="none" stroke="#bfbfbf" points="424,-228.5 424,-248.5 480,-248.5 480,-228.5 424,-228.5"/>
<text text-anchor="middle" x="452" y="-235.5" font-family="FreeSans" font-size="10.00" fill="#000000">sstream</text>
</g>
<!-- Node21&#45;&gt;Node23 -->
<g id="edge30" class="edge">
<title>Node21&#45;&gt;Node23</title>
<path fill="none" stroke="#191970" d="M590.3517,-285.4408C562.4234,-275.9651 520.4475,-261.7233 490.0581,-251.4126"/>
<polygon fill="#191970" stroke="#191970" points="490.8277,-247.9778 480.2334,-248.0792 488.5786,-254.6066 490.8277,-247.9778"/>
</g>
<!-- Node24 -->
<g id="node24" class="node">
<title>Node24</title>
<polygon fill="none" stroke="#bfbfbf" points="498.5,-228.5 498.5,-248.5 537.5,-248.5 537.5,-228.5 498.5,-228.5"/>
<text text-anchor="middle" x="518" y="-235.5" font-family="FreeSans" font-size="10.00" fill="#000000">map</text>
</g>
<!-- Node21&#45;&gt;Node24 -->
<g id="edge31" class="edge">
<title>Node21&#45;&gt;Node24</title>
<path fill="none" stroke="#191970" d="M601.7644,-285.3095C585.9544,-276.4745 562.8593,-263.5684 544.9218,-253.5445"/>
<polygon fill="#191970" stroke="#191970" points="546.5145,-250.4252 536.0777,-248.6022 543.0997,-256.5358 546.5145,-250.4252"/>
</g>
<!-- Node25 -->
<g id="node25" class="node">
<title>Node25</title>
<polygon fill="none" stroke="#bfbfbf" points="555.5,-228.5 555.5,-248.5 612.5,-248.5 612.5,-228.5 555.5,-228.5"/>
<text text-anchor="middle" x="584" y="-235.5" font-family="FreeSans" font-size="10.00" fill="#000000">iomanip</text>
</g>
<!-- Node21&#45;&gt;Node25 -->
<g id="edge33" class="edge">
<title>Node21&#45;&gt;Node25</title>
<path fill="none" stroke="#191970" d="M613.5639,-285.3095C608.6494,-277.5282 601.7404,-266.589 595.8372,-257.2423"/>
<polygon fill="#191970" stroke="#191970" points="598.6796,-255.1881 590.3804,-248.6022 592.7611,-258.9261 598.6796,-255.1881"/>
</g>
<!-- Node26 -->
<g id="node26" class="node">
<title>Node26</title>
<polygon fill="none" stroke="#bfbfbf" points="889,-228.5 889,-248.5 937,-248.5 937,-228.5 889,-228.5"/>
<text text-anchor="middle" x="913" y="-235.5" font-family="FreeSans" font-size="10.00" fill="#000000">mutex</text>
</g>
<!-- Node21&#45;&gt;Node26 -->
<g id="edge34" class="edge">
<title>Node21&#45;&gt;Node26</title>
<path fill="none" stroke="#191970" d="M671.7081,-285.4408C731.4963,-273.8096 828.1983,-254.9973 879.1308,-245.0889"/>
<polygon fill="#191970" stroke="#191970" points="879.8312,-248.5183 888.9788,-243.1731 878.4945,-241.6471 879.8312,-248.5183"/>
</g>
<!-- Node27&#45;&gt;Node2 -->
<g id="edge44" class="edge">
<title>Node27&#45;&gt;Node2</title>
<path fill="none" stroke="#191970" d="M433.8875,-570.4745C429.4932,-561.2646 423.484,-547.0978 421,-534 410.0807,-476.4234 414.4988,-406.7138 417.7326,-372.8864"/>
<polygon fill="#191970" stroke="#191970" points="421.2224,-373.1641 418.7601,-362.8594 414.2589,-372.4505 421.2224,-373.1641"/>
</g>
<!-- Node27&#45;&gt;Node3 -->
<g id="edge45" class="edge">
<title>Node27&#45;&gt;Node3</title>
<path fill="none" stroke="#191970" d="M505.9329,-571.6647C615.9982,-556.0788 829.0976,-521.1345 890,-477 942.3072,-439.0943 965,-417.0979 965,-352.5 965,-352.5 965,-352.5 965,-295.5 965,-264.3342 965.8566,-252.0213 946,-228 932.3864,-211.5311 911.4796,-200.3506 892.9344,-193.0889"/>
<polygon fill="#191970" stroke="#191970" points="894.0967,-189.7873 883.5029,-189.6414 891.6935,-196.3619 894.0967,-189.7873"/>
</g>
<!-- Node28 -->
<g id="node28" class="node">
<title>Node28</title>
<polygon fill="none" stroke="#bfbfbf" points="318.5,-342.5 318.5,-362.5 367.5,-362.5 367.5,-342.5 318.5,-342.5"/>
<text text-anchor="middle" x="343" y="-349.5" font-family="FreeSans" font-size="10.00" fill="#000000">vector</text>
</g>
<!-- Node27&#45;&gt;Node28 -->
<g id="edge41" class="edge">
<title>Node27&#45;&gt;Node28</title>
<path fill="none" stroke="#191970" d="M433.0775,-570.3383C427.7675,-561.0368 419.9238,-546.812 414,-534 387.3482,-476.3581 361.6126,-405.678 349.7755,-372.0611"/>
<polygon fill="#191970" stroke="#191970" points="353.0413,-370.797 346.4371,-362.5124 346.4335,-373.1072 353.0413,-370.797"/>
</g>
<!-- Node29 -->
<g id="node29" class="node">
<title>Node29</title>
<g id="a_node29"><a xlink:href="../../dd/d09/PhysicalConstants_8h.html" target="_top" xlink:title="CLHEP/Units/PhysicalConstants.h">
<polygon fill="none" stroke="#000000" points="1,-513.5 1,-533.5 183,-533.5 183,-513.5 1,-513.5"/>
<text text-anchor="middle" x="92" y="-520.5" font-family="FreeSans" font-size="10.00" fill="#000000">CLHEP/Units/PhysicalConstants.h</text>
</a>
</g>
</g>
<!-- Node27&#45;&gt;Node29 -->
<g id="edge42" class="edge">
<title>Node27&#45;&gt;Node29</title>
<path fill="none" stroke="#191970" d="M377.7621,-570.4408C317.6475,-560.566 226.0225,-545.5152 162.809,-535.1315"/>
<polygon fill="#191970" stroke="#191970" points="163.3519,-531.6738 152.9168,-533.5065 162.2172,-538.5812 163.3519,-531.6738"/>
</g>
<!-- Node31 -->
<g id="node31" class="node">
<title>Node31</title>
<g id="a_node31"><a xlink:href="../../d2/d0a/G4PDefManager_8hh.html" target="_top" xlink:title="G4PDefManager.hh">
<polygon fill="none" stroke="#000000" points="429.5,-513.5 429.5,-533.5 542.5,-533.5 542.5,-513.5 429.5,-513.5"/>
<text text-anchor="middle" x="486" y="-520.5" font-family="FreeSans" font-size="10.00" fill="#000000">G4PDefManager.hh</text>
</a>
</g>
</g>
<!-- Node27&#45;&gt;Node31 -->
<g id="edge46" class="edge">
<title>Node27&#45;&gt;Node31</title>
<path fill="none" stroke="#191970" d="M447.4027,-570.3095C454.0193,-562.2851 463.4052,-550.9022 471.2644,-541.3708"/>
<polygon fill="#191970" stroke="#191970" points="474.0086,-543.5443 477.6701,-533.6022 468.6078,-539.091 474.0086,-543.5443"/>
</g>
<!-- Node41 -->
<g id="node41" class="node">
<title>Node41</title>
<polygon fill="none" stroke="#bfbfbf" points="201,-513.5 201,-533.5 335,-533.5 335,-513.5 201,-513.5"/>
<text text-anchor="middle" x="268" y="-520.5" font-family="FreeSans" font-size="10.00" fill="#000000">G4ParticleDefinition.icc</text>
</g>
<!-- Node27&#45;&gt;Node41 -->
<g id="edge65" class="edge">
<title>Node27&#45;&gt;Node41</title>
<path fill="none" stroke="#191970" d="M408.8223,-570.4408C380.7042,-561.0681 338.5969,-547.0323 307.7505,-536.7502"/>
<polygon fill="#191970" stroke="#191970" points="308.7568,-533.3963 298.1632,-533.5544 306.5432,-540.0371 308.7568,-533.3963"/>
</g>
<!-- Node30 -->
<g id="node30" class="node">
<title>Node30</title>
<g id="a_node30"><a xlink:href="../../da/db6/SystemOfUnits_8h.html" target="_top" xlink:title="CLHEP/Units/SystemOfUnits.h">
<polygon fill="none" stroke="#000000" points="9,-456.5 9,-476.5 175,-476.5 175,-456.5 9,-456.5"/>
<text text-anchor="middle" x="92" y="-463.5" font-family="FreeSans" font-size="10.00" fill="#000000">CLHEP/Units/SystemOfUnits.h</text>
</a>
</g>
</g>
<!-- Node29&#45;&gt;Node30 -->
<g id="edge43" class="edge">
<title>Node29&#45;&gt;Node30</title>
<path fill="none" stroke="#191970" d="M92,-513.3095C92,-505.9335 92,-495.72 92,-486.715"/>
<polygon fill="#191970" stroke="#191970" points="95.5001,-486.6022 92,-476.6022 88.5001,-486.6023 95.5001,-486.6022"/>
</g>
<!-- Node31&#45;&gt;Node2 -->
<g id="edge48" class="edge">
<title>Node31&#45;&gt;Node2</title>
<path fill="none" stroke="#191970" d="M479.0838,-513.142C473.165,-503.9442 464.7187,-489.986 459,-477 443.3348,-441.4274 431.1469,-397.6021 424.8135,-372.5727"/>
<polygon fill="#191970" stroke="#191970" points="428.1912,-371.6515 422.3941,-362.7834 421.3957,-373.3311 428.1912,-371.6515"/>
</g>
<!-- Node32 -->
<g id="node32" class="node">
<title>Node32</title>
<polygon fill="none" stroke="#bfbfbf" points="467.5,-456.5 467.5,-476.5 520.5,-476.5 520.5,-456.5 467.5,-456.5"/>
<text text-anchor="middle" x="494" y="-463.5" font-family="FreeSans" font-size="10.00" fill="#000000">stdlib.h</text>
</g>
<!-- Node31&#45;&gt;Node32 -->
<g id="edge47" class="edge">
<title>Node31&#45;&gt;Node32</title>
<path fill="none" stroke="#191970" d="M487.4302,-513.3095C488.4655,-505.9335 489.899,-495.72 491.1628,-486.715"/>
<polygon fill="#191970" stroke="#191970" points="494.6582,-486.9917 492.5821,-476.6022 487.7261,-486.0187 494.6582,-486.9917"/>
</g>
<!-- Node33 -->
<g id="node33" class="node">
<title>Node33</title>
<g id="a_node33"><a xlink:href="../../df/df0/pwdefs_8hh.html" target="_top" xlink:title="pwdefs.hh">
<polygon fill="none" stroke="#000000" points="121,-399.5 121,-419.5 189,-419.5 189,-399.5 121,-399.5"/>
<text text-anchor="middle" x="155" y="-406.5" font-family="FreeSans" font-size="10.00" fill="#000000">pwdefs.hh</text>
</a>
</g>
</g>
<!-- Node31&#45;&gt;Node33 -->
<g id="edge49" class="edge">
<title>Node31&#45;&gt;Node33</title>
<path fill="none" stroke="#191970" d="M456.9161,-513.4832C397.3457,-492.9665 261.4179,-446.1515 194.1677,-422.9898"/>
<polygon fill="#191970" stroke="#191970" points="194.9682,-419.5638 184.3735,-419.6165 192.6887,-426.1822 194.9682,-419.5638"/>
</g>
<!-- Node34 -->
<g id="node34" class="node">
<title>Node34</title>
<g id="a_node34"><a xlink:href="../../d8/d7b/G4AutoLock_8hh.html" target="_top" xlink:title="G4AutoLock.hh">
<polygon fill="none" stroke="#000000" points="789,-456.5 789,-476.5 881,-476.5 881,-456.5 789,-456.5"/>
<text text-anchor="middle" x="835" y="-463.5" font-family="FreeSans" font-size="10.00" fill="#000000">G4AutoLock.hh</text>
</a>
</g>
</g>
<!-- Node31&#45;&gt;Node34 -->
<g id="edge51" class="edge">
<title>Node31&#45;&gt;Node34</title>
<path fill="none" stroke="#191970" d="M542.8496,-514.2151C607.9362,-503.5849 713.8975,-486.2789 778.7372,-475.6891"/>
<polygon fill="#191970" stroke="#191970" points="779.4729,-479.1154 788.7779,-474.0492 778.3445,-472.2069 779.4729,-479.1154"/>
</g>
<!-- Node33&#45;&gt;Node4 -->
<g id="edge50" class="edge">
<title>Node33&#45;&gt;Node4</title>
<path fill="none" stroke="#191970" d="M120.9846,-400.8762C75.3578,-387.0265 0,-355.1266 0,-295.5 0,-295.5 0,-295.5 0,-238.5 0,-193.7789 132.7135,-154.1457 206.2799,-135.6114"/>
<polygon fill="#191970" stroke="#191970" points="207.3853,-138.9433 216.2479,-133.1378 205.6993,-132.1494 207.3853,-138.9433"/>
</g>
<!-- Node34&#45;&gt;Node8 -->
<g id="edge64" class="edge">
<title>Node34&#45;&gt;Node8</title>
<path fill="none" stroke="#191970" d="M881.2304,-461.3824C941.9661,-451.8007 1041,-425.0531 1041,-352.5 1041,-352.5 1041,-352.5 1041,-238.5 1041,-163.9718 936.2313,-137.7408 876.4899,-128.8416"/>
<polygon fill="#191970" stroke="#191970" points="876.6349,-125.3282 866.2485,-127.4194 875.672,-132.2617 876.6349,-125.3282"/>
</g>
<!-- Node34&#45;&gt;Node26 -->
<g id="edge61" class="edge">
<title>Node34&#45;&gt;Node26</title>
<path fill="none" stroke="#191970" d="M845.6087,-456.2587C862.6844,-438.9512 895.6034,-401.9747 908,-363 919.2013,-327.7832 917.6794,-284.1256 915.4271,-258.9757"/>
<polygon fill="#191970" stroke="#191970" points="918.8874,-258.4095 914.3839,-248.8195 911.9241,-259.1248 918.8874,-258.4095"/>
</g>
<!-- Node35 -->
<g id="node35" class="node">
<title>Node35</title>
<g id="a_node35"><a xlink:href="../../d9/d7a/G4Threading_8hh.html" target="_top" xlink:title="G4Threading.hh">
<polygon fill="none" stroke="#000000" points="747,-399.5 747,-419.5 845,-419.5 845,-399.5 747,-399.5"/>
<text text-anchor="middle" x="796" y="-406.5" font-family="FreeSans" font-size="10.00" fill="#000000">G4Threading.hh</text>
</a>
</g>
</g>
<!-- Node34&#45;&gt;Node35 -->
<g id="edge52" class="edge">
<title>Node34&#45;&gt;Node35</title>
<path fill="none" stroke="#191970" d="M828.0276,-456.3095C822.6481,-448.4472 815.0626,-437.3608 808.6242,-427.9507"/>
<polygon fill="#191970" stroke="#191970" points="811.4475,-425.8789 802.9121,-419.6022 805.6704,-429.8317 811.4475,-425.8789"/>
</g>
<!-- Node36 -->
<g id="node36" class="node">
<title>Node36</title>
<polygon fill="none" stroke="#bfbfbf" points="847.5,-342.5 847.5,-362.5 898.5,-362.5 898.5,-342.5 847.5,-342.5"/>
<text text-anchor="middle" x="873" y="-349.5" font-family="FreeSans" font-size="10.00" fill="#000000">chrono</text>
</g>
<!-- Node34&#45;&gt;Node36 -->
<g id="edge62" class="edge">
<title>Node34&#45;&gt;Node36</title>
<path fill="none" stroke="#191970" d="M839.5657,-456.2852C843.6448,-446.948 849.6336,-432.7004 854,-420 859.4343,-404.1933 864.5047,-385.9261 868.0384,-372.3841"/>
<polygon fill="#191970" stroke="#191970" points="871.4348,-373.2293 870.5205,-362.674 864.6529,-371.4956 871.4348,-373.2293"/>
</g>
<!-- Node40 -->
<g id="node40" class="node">
<title>Node40</title>
<polygon fill="none" stroke="#bfbfbf" points="647,-399.5 647,-419.5 729,-419.5 729,-399.5 647,-399.5"/>
<text text-anchor="middle" x="688" y="-406.5" font-family="FreeSans" font-size="10.00" fill="#000000">system_error</text>
</g>
<!-- Node34&#45;&gt;Node40 -->
<g id="edge63" class="edge">
<title>Node34&#45;&gt;Node40</title>
<path fill="none" stroke="#191970" d="M809.0577,-456.4408C785.3777,-447.2587 750.1561,-433.6013 723.8014,-423.3822"/>
<polygon fill="#191970" stroke="#191970" points="724.7664,-420.0025 714.1774,-419.6504 722.2356,-426.529 724.7664,-420.0025"/>
</g>
<!-- Node35&#45;&gt;Node2 -->
<g id="edge53" class="edge">
<title>Node35&#45;&gt;Node2</title>
<path fill="none" stroke="#191970" d="M746.9795,-400.4601C743.9434,-399.9515 740.9316,-399.4606 738,-399 618.4048,-380.212 587.2349,-383.9532 468,-363 466.724,-362.7758 465.4305,-362.5412 464.126,-362.2983"/>
<polygon fill="#191970" stroke="#191970" points="464.5076,-358.8062 454.0195,-360.3063 463.1539,-365.6741 464.5076,-358.8062"/>
</g>
<!-- Node35&#45;&gt;Node4 -->
<g id="edge54" class="edge">
<title>Node35&#45;&gt;Node4</title>
<path fill="none" stroke="#191970" d="M746.8263,-400.5695C673.0731,-387.1699 542.2356,-363.3777 541,-363 458.4003,-337.7486 443.2349,-316.9797 363,-285 319.1203,-267.5106 291.5382,-286.6415 263,-249 240.088,-218.7794 244.2953,-171.6971 249.2515,-144.9283"/>
<polygon fill="#191970" stroke="#191970" points="252.7466,-145.3097 251.3446,-134.8081 245.8917,-143.8919 252.7466,-145.3097"/>
</g>
<!-- Node35&#45;&gt;Node26 -->
<g id="edge57" class="edge">
<title>Node35&#45;&gt;Node26</title>
<path fill="none" stroke="#191970" d="M802.2445,-399.3272C810.4672,-386.0188 825.4697,-362.0359 839,-342 859.4601,-311.7023 884.3953,-277.3193 899.4673,-256.7973"/>
<polygon fill="#191970" stroke="#191970" points="902.3517,-258.7829 905.4639,-248.6555 896.7154,-254.6317 902.3517,-258.7829"/>
</g>
<!-- Node35&#45;&gt;Node28 -->
<g id="edge60" class="edge">
<title>Node35&#45;&gt;Node28</title>
<path fill="none" stroke="#191970" d="M746.9965,-400.3453C743.9562,-399.8652 740.9389,-399.4119 738,-399 581.595,-377.0796 536.8673,-394.214 377.8732,-362.8035"/>
<polygon fill="#191970" stroke="#191970" points="378.2278,-359.3048 367.7342,-360.7659 376.8485,-366.1676 378.2278,-359.3048"/>
</g>
<!-- Node35&#45;&gt;Node36 -->
<g id="edge55" class="edge">
<title>Node35&#45;&gt;Node36</title>
<path fill="none" stroke="#191970" d="M809.7661,-399.3095C821.2631,-390.7987 837.8634,-378.5102 851.1707,-368.6594"/>
<polygon fill="#191970" stroke="#191970" points="853.3981,-371.3652 859.3531,-362.6022 849.2332,-365.7389 853.3981,-371.3652"/>
</g>
<!-- Node37 -->
<g id="node37" class="node">
<title>Node37</title>
<polygon fill="none" stroke="#bfbfbf" points="741.5,-342.5 741.5,-362.5 790.5,-362.5 790.5,-342.5 741.5,-342.5"/>
<text text-anchor="middle" x="766" y="-349.5" font-family="FreeSans" font-size="10.00" fill="#000000">thread</text>
</g>
<!-- Node35&#45;&gt;Node37 -->
<g id="edge56" class="edge">
<title>Node35&#45;&gt;Node37</title>
<path fill="none" stroke="#191970" d="M790.6366,-399.3095C786.5838,-391.6093 780.9035,-380.8166 776.0183,-371.5349"/>
<polygon fill="#191970" stroke="#191970" points="779.0717,-369.8213 771.317,-362.6022 772.8773,-373.0816 779.0717,-369.8213"/>
</g>
<!-- Node38 -->
<g id="node38" class="node">
<title>Node38</title>
<polygon fill="none" stroke="#bfbfbf" points="549.5,-342.5 549.5,-362.5 658.5,-362.5 658.5,-342.5 549.5,-342.5"/>
<text text-anchor="middle" x="604" y="-349.5" font-family="FreeSans" font-size="10.00" fill="#000000">condition_variable</text>
</g>
<!-- Node35&#45;&gt;Node38 -->
<g id="edge58" class="edge">
<title>Node35&#45;&gt;Node38</title>
<path fill="none" stroke="#191970" d="M762.1162,-399.4408C730.2718,-389.9869 682.4468,-375.7889 647.7354,-365.484"/>
<polygon fill="#191970" stroke="#191970" points="648.45,-362.0452 637.8674,-362.5544 646.4578,-368.7557 648.45,-362.0452"/>
</g>
<!-- Node39 -->
<g id="node39" class="node">
<title>Node39</title>
<polygon fill="none" stroke="#bfbfbf" points="677,-342.5 677,-362.5 723,-362.5 723,-342.5 677,-342.5"/>
<text text-anchor="middle" x="700" y="-349.5" font-family="FreeSans" font-size="10.00" fill="#000000">future</text>
</g>
<!-- Node35&#45;&gt;Node39 -->
<g id="edge59" class="edge">
<title>Node35&#45;&gt;Node39</title>
<path fill="none" stroke="#191970" d="M778.8371,-399.3095C764.0936,-390.5556 742.6188,-377.8049 725.804,-367.8211"/>
<polygon fill="#191970" stroke="#191970" points="727.3998,-364.6982 717.0143,-362.6022 723.8259,-370.7172 727.3998,-364.6982"/>
</g>
<!-- Node42&#45;&gt;Node2 -->
<g id="edge67" class="edge">
<title>Node42&#45;&gt;Node2</title>
<path fill="none" stroke="#191970" d="M640.9889,-627.2283C643.902,-590.7051 648.6171,-465.7496 585,-399 576.4874,-390.0682 509.766,-373.1958 463.821,-362.4182"/>
<polygon fill="#191970" stroke="#191970" points="464.6072,-359.0077 454.0741,-360.1498 463.0204,-365.8255 464.6072,-359.0077"/>
</g>
<!-- Node42&#45;&gt;Node3 -->
<g id="edge68" class="edge">
<title>Node42&#45;&gt;Node3</title>
<path fill="none" stroke="#191970" d="M673.8242,-634.1899C763.939,-624.4417 1003,-592.1152 1003,-523.5 1003,-523.5 1003,-523.5 1003,-295.5 1003,-261.2886 991.4962,-250.8115 966,-228 945.5261,-209.682 916.8501,-197.9976 893.5093,-190.9229"/>
<polygon fill="#191970" stroke="#191970" points="894.4491,-187.5515 883.8722,-188.1673 892.5246,-194.2817 894.4491,-187.5515"/>
</g>
<!-- Node42&#45;&gt;Node27 -->
<g id="edge69" class="edge">
<title>Node42&#45;&gt;Node27</title>
<path fill="none" stroke="#191970" d="M606.3571,-627.9595C572.953,-618.4867 521.5143,-603.8996 484.482,-593.3979"/>
<polygon fill="#191970" stroke="#191970" points="485.0215,-589.9129 474.4459,-590.5518 483.1117,-596.6474 485.0215,-589.9129"/>
</g>
</g>
</svg>
