<?xml version="1.0" encoding="UTF-8" standalone="no"?>
<!DOCTYPE svg PUBLIC "-//W3C//DTD SVG 1.1//EN"
 "http://www.w3.org/Graphics/SVG/1.1/DTD/svg11.dtd">
<!-- Generated by graphviz version 2.40.1 (20161225.0304)
 -->
<!-- Title: geant4/tree/geant4&#45;10.6&#45;release/source/externals/clhep/src/RotationZ.cc Pages: 1 -->
<svg width="2184pt" height="464pt"
 viewBox="0.00 0.00 2184.00 464.00" xmlns="http://www.w3.org/2000/svg" xmlns:xlink="http://www.w3.org/1999/xlink">
<g id="graph0" class="graph" transform="scale(1 1) rotate(0) translate(4 460)">
<title>geant4/tree/geant4&#45;10.6&#45;release/source/externals/clhep/src/RotationZ.cc</title>
<!-- Node1 -->
<g id="node1" class="node">
<title>Node1</title>
<polygon fill="#bfbfbf" stroke="#000000" points="1714.5,-399.5 1714.5,-455.5 1834.5,-455.5 1834.5,-399.5 1714.5,-399.5"/>
<text text-anchor="start" x="1722.5" y="-442.5" font-family="FreeSans" font-size="10.00" fill="#000000">geant4/tree/geant4</text>
<text text-anchor="start" x="1722.5" y="-430.5" font-family="FreeSans" font-size="10.00" fill="#000000">&#45;10.6&#45;release/source</text>
<text text-anchor="start" x="1722.5" y="-418.5" font-family="FreeSans" font-size="10.00" fill="#000000">/externals/clhep/src</text>
<text text-anchor="middle" x="1774.5" y="-406.5" font-family="FreeSans" font-size="10.00" fill="#000000">/RotationZ.cc</text>
</g>
<!-- Node2 -->
<g id="node2" class="node">
<title>Node2</title>
<g id="a_node2"><a xlink:href="../../df/d13/RotationZ_8h.html" target="_top" xlink:title="CLHEP/Vector/RotationZ.h">
<polygon fill="none" stroke="#000000" points="1410.5,-228.5 1410.5,-248.5 1556.5,-248.5 1556.5,-228.5 1410.5,-228.5"/>
<text text-anchor="middle" x="1483.5" y="-235.5" font-family="FreeSans" font-size="10.00" fill="#000000">CLHEP/Vector/RotationZ.h</text>
</a>
</g>
</g>
<!-- Node1&#45;&gt;Node2 -->
<g id="edge1" class="edge">
<title>Node1&#45;&gt;Node2</title>
<path fill="none" stroke="#191970" d="M1714.2628,-422.1805C1666.5761,-415.2705 1600.5585,-399.4041 1554.5,-363 1519.6885,-335.4854 1498.9237,-285.891 1489.5279,-258.3294"/>
<polygon fill="#191970" stroke="#191970" points="1492.7942,-257.0548 1486.381,-248.6214 1486.1353,-259.2134 1492.7942,-257.0548"/>
</g>
<!-- Node5 -->
<g id="node5" class="node">
<title>Node5</title>
<polygon fill="none" stroke="#bfbfbf" points="1300.5,-.5 1300.5,-20.5 1360.5,-20.5 1360.5,-.5 1300.5,-.5"/>
<text text-anchor="middle" x="1330.5" y="-7.5" font-family="FreeSans" font-size="10.00" fill="#000000">iostream</text>
</g>
<!-- Node1&#45;&gt;Node5 -->
<g id="edge56" class="edge">
<title>Node1&#45;&gt;Node5</title>
<path fill="none" stroke="#191970" d="M1793.3866,-399.4928C1808.9586,-373.6531 1828.5,-333.6306 1828.5,-295.5 1828.5,-295.5 1828.5,-295.5 1828.5,-124.5 1828.5,-76.9522 1789.3465,-75.3922 1745.5,-57 1678.3768,-28.8439 1461.2277,-16.2489 1370.7023,-12.1263"/>
<polygon fill="#191970" stroke="#191970" points="1370.7077,-8.6232 1360.5622,-11.676 1370.3971,-15.6163 1370.7077,-8.6232"/>
</g>
<!-- Node10 -->
<g id="node10" class="node">
<title>Node10</title>
<g id="a_node10"><a xlink:href="../../d7/d6f/AxisAngle_8h.html" target="_top" xlink:title="CLHEP/Vector/AxisAngle.h">
<polygon fill="none" stroke="#000000" points="1159,-114.5 1159,-134.5 1306,-134.5 1306,-114.5 1159,-114.5"/>
<text text-anchor="middle" x="1232.5" y="-121.5" font-family="FreeSans" font-size="10.00" fill="#000000">CLHEP/Vector/AxisAngle.h</text>
</a>
</g>
</g>
<!-- Node1&#45;&gt;Node10 -->
<g id="edge17" class="edge">
<title>Node1&#45;&gt;Node10</title>
<path fill="none" stroke="#191970" d="M1714.1512,-407.0741C1687.8101,-396.4137 1657.5225,-381.6598 1633.5,-363 1607.7909,-343.0301 1600.7823,-335.7209 1587.5,-306 1562.6964,-250.4988 1608.9733,-213.4932 1565.5,-171 1547.922,-153.8183 1409.3189,-139.1162 1316.5577,-131.0687"/>
<polygon fill="#191970" stroke="#191970" points="1316.59,-127.5587 1306.3276,-130.1919 1315.9922,-134.5332 1316.59,-127.5587"/>
</g>
<!-- Node14 -->
<g id="node14" class="node">
<title>Node14</title>
<g id="a_node14"><a xlink:href="../../d7/d29/EulerAngles_8h.html" target="_top" xlink:title="CLHEP/Vector/EulerAngles.h">
<polygon fill="none" stroke="#000000" points="1643,-342.5 1643,-362.5 1800,-362.5 1800,-342.5 1643,-342.5"/>
<text text-anchor="middle" x="1721.5" y="-349.5" font-family="FreeSans" font-size="10.00" fill="#000000">CLHEP/Vector/EulerAngles.h</text>
</a>
</g>
</g>
<!-- Node1&#45;&gt;Node14 -->
<g id="edge18" class="edge">
<title>Node1&#45;&gt;Node14</title>
<path fill="none" stroke="#191970" d="M1754.463,-399.1457C1747.8326,-389.763 1740.6273,-379.5669 1734.649,-371.1071"/>
<polygon fill="#191970" stroke="#191970" points="1737.3584,-368.8763 1728.7289,-362.7296 1731.6417,-372.9161 1737.3584,-368.8763"/>
</g>
<!-- Node16 -->
<g id="node16" class="node">
<title>Node16</title>
<g id="a_node16"><a xlink:href="../../d0/d3e/LorentzRotation_8h.html" target="_top" xlink:title="CLHEP/Vector/LorentzRotation.h">
<polygon fill="none" stroke="#000000" points="787.5,-342.5 787.5,-362.5 963.5,-362.5 963.5,-342.5 787.5,-342.5"/>
<text text-anchor="middle" x="875.5" y="-349.5" font-family="FreeSans" font-size="10.00" fill="#000000">CLHEP/Vector/LorentzRotation.h</text>
</a>
</g>
</g>
<!-- Node1&#45;&gt;Node16 -->
<g id="edge21" class="edge">
<title>Node1&#45;&gt;Node16</title>
<path fill="none" stroke="#191970" d="M1714.4684,-422.4918C1562.3561,-409.8017 1160.6328,-376.2875 973.7267,-360.6947"/>
<polygon fill="#191970" stroke="#191970" points="973.8876,-357.196 963.6312,-359.8524 973.3056,-364.1718 973.8876,-357.196"/>
</g>
<!-- Node32 -->
<g id="node32" class="node">
<title>Node32</title>
<g id="a_node32"><a xlink:href="../../dd/d09/PhysicalConstants_8h.html" target="_top" xlink:title="CLHEP/Units/PhysicalConstants.h">
<polygon fill="none" stroke="#000000" points="1856.5,-342.5 1856.5,-362.5 2038.5,-362.5 2038.5,-342.5 1856.5,-342.5"/>
<text text-anchor="middle" x="1947.5" y="-349.5" font-family="FreeSans" font-size="10.00" fill="#000000">CLHEP/Units/PhysicalConstants.h</text>
</a>
</g>
</g>
<!-- Node1&#45;&gt;Node32 -->
<g id="edge52" class="edge">
<title>Node1&#45;&gt;Node32</title>
<path fill="none" stroke="#191970" d="M1834.5215,-401.4791C1861.3849,-389.8331 1892.019,-376.5524 1914.6047,-366.761"/>
<polygon fill="#191970" stroke="#191970" points="1916.2817,-369.8488 1924.0644,-362.6599 1913.4973,-363.4263 1916.2817,-369.8488"/>
</g>
<!-- Node34 -->
<g id="node34" class="node">
<title>Node34</title>
<polygon fill="none" stroke="#bfbfbf" points="2056.5,-342.5 2056.5,-362.5 2104.5,-362.5 2104.5,-342.5 2056.5,-342.5"/>
<text text-anchor="middle" x="2080.5" y="-349.5" font-family="FreeSans" font-size="10.00" fill="#000000">cmath</text>
</g>
<!-- Node1&#45;&gt;Node34 -->
<g id="edge54" class="edge">
<title>Node1&#45;&gt;Node34</title>
<path fill="none" stroke="#191970" d="M1834.7481,-414.647C1888.0107,-402.9712 1967.9775,-384.6809 2046.3657,-363.174"/>
<polygon fill="#191970" stroke="#191970" points="2047.7066,-366.4347 2056.4127,-360.3971 2045.8417,-359.6877 2047.7066,-366.4347"/>
</g>
<!-- Node35 -->
<g id="node35" class="node">
<title>Node35</title>
<polygon fill="none" stroke="#bfbfbf" points="2123,-342.5 2123,-362.5 2176,-362.5 2176,-342.5 2123,-342.5"/>
<text text-anchor="middle" x="2149.5" y="-349.5" font-family="FreeSans" font-size="10.00" fill="#000000">stdlib.h</text>
</g>
<!-- Node1&#45;&gt;Node35 -->
<g id="edge55" class="edge">
<title>Node1&#45;&gt;Node35</title>
<path fill="none" stroke="#191970" d="M1834.5759,-417.8592C1900.5013,-406.8789 2009.5763,-387.5357 2112.8639,-362.9773"/>
<polygon fill="#191970" stroke="#191970" points="2113.932,-366.3205 2122.8398,-360.5845 2112.2993,-359.5135 2113.932,-366.3205"/>
</g>
<!-- Node3 -->
<g id="node3" class="node">
<title>Node3</title>
<g id="a_node3"><a xlink:href="../../d3/d43/RotationInterfaces_8h.html" target="_top" xlink:title="CLHEP/Vector/RotationInterfaces.h">
<polygon fill="none" stroke="#000000" points="851,-171.5 851,-191.5 1040,-191.5 1040,-171.5 851,-171.5"/>
<text text-anchor="middle" x="945.5" y="-178.5" font-family="FreeSans" font-size="10.00" fill="#000000">CLHEP/Vector/RotationInterfaces.h</text>
</a>
</g>
</g>
<!-- Node2&#45;&gt;Node3 -->
<g id="edge2" class="edge">
<title>Node2&#45;&gt;Node3</title>
<path fill="none" stroke="#191970" d="M1410.1938,-229.0183C1407.2583,-228.6687 1404.3517,-228.3279 1401.5,-228 1335.7913,-220.444 1163.1448,-203.0941 1050.1463,-191.8556"/>
<polygon fill="#191970" stroke="#191970" points="1050.3799,-188.3617 1040.0827,-190.8552 1049.6873,-195.3273 1050.3799,-188.3617"/>
</g>
<!-- Node13 -->
<g id="node13" class="node">
<title>Node13</title>
<polygon fill="none" stroke="#bfbfbf" points="1402.5,-171.5 1402.5,-191.5 1556.5,-191.5 1556.5,-171.5 1402.5,-171.5"/>
<text text-anchor="middle" x="1479.5" y="-178.5" font-family="FreeSans" font-size="10.00" fill="#000000">CLHEP/Vector/RotationZ.icc</text>
</g>
<!-- Node2&#45;&gt;Node13 -->
<g id="edge16" class="edge">
<title>Node2&#45;&gt;Node13</title>
<path fill="none" stroke="#191970" d="M1482.7849,-228.3095C1482.2673,-220.9335 1481.5505,-210.72 1480.9186,-201.715"/>
<polygon fill="#191970" stroke="#191970" points="1484.4005,-201.3327 1480.2089,-191.6022 1477.4176,-201.8227 1484.4005,-201.3327"/>
</g>
<!-- Node4 -->
<g id="node4" class="node">
<title>Node4</title>
<g id="a_node4"><a xlink:href="../../dd/dbb/ThreeVector_8h.html" target="_top" xlink:title="CLHEP/Vector/ThreeVector.h">
<polygon fill="none" stroke="#000000" points="956,-57.5 956,-77.5 1113,-77.5 1113,-57.5 956,-57.5"/>
<text text-anchor="middle" x="1034.5" y="-64.5" font-family="FreeSans" font-size="10.00" fill="#000000">CLHEP/Vector/ThreeVector.h</text>
</a>
</g>
</g>
<!-- Node3&#45;&gt;Node4 -->
<g id="edge3" class="edge">
<title>Node3&#45;&gt;Node4</title>
<path fill="none" stroke="#191970" d="M939.8935,-171.4821C932.8924,-157.4917 923.1348,-131.8186 934.5,-114 944.3117,-98.6169 960.6758,-88.243 977.3544,-81.2806"/>
<polygon fill="#191970" stroke="#191970" points="979.0528,-84.3799 987.1636,-77.5634 976.5722,-77.8342 979.0528,-84.3799"/>
</g>
<!-- Node8 -->
<g id="node8" class="node">
<title>Node8</title>
<g id="a_node8"><a xlink:href="../../d6/de0/LorentzVector_8h.html" target="_top" xlink:title="CLHEP/Vector/LorentzVector.h">
<polygon fill="none" stroke="#000000" points="695,-114.5 695,-134.5 860,-134.5 860,-114.5 695,-114.5"/>
<text text-anchor="middle" x="777.5" y="-121.5" font-family="FreeSans" font-size="10.00" fill="#000000">CLHEP/Vector/LorentzVector.h</text>
</a>
</g>
</g>
<!-- Node3&#45;&gt;Node8 -->
<g id="edge7" class="edge">
<title>Node3&#45;&gt;Node8</title>
<path fill="none" stroke="#191970" d="M915.8517,-171.4408C888.3466,-162.1087 847.2163,-148.1537 816.9473,-137.8839"/>
<polygon fill="#191970" stroke="#191970" points="817.7283,-134.453 807.134,-134.5544 815.4792,-141.0818 817.7283,-134.453"/>
</g>
<!-- Node3&#45;&gt;Node10 -->
<g id="edge11" class="edge">
<title>Node3&#45;&gt;Node10</title>
<path fill="none" stroke="#191970" d="M996.1492,-171.4408C1045.1801,-161.7029 1119.5553,-146.9315 1171.7468,-136.566"/>
<polygon fill="#191970" stroke="#191970" points="1172.7487,-139.9354 1181.8753,-134.5544 1171.385,-133.0695 1172.7487,-139.9354"/>
</g>
<!-- Node12 -->
<g id="node12" class="node">
<title>Node12</title>
<polygon fill="none" stroke="#bfbfbf" points="944,-114.5 944,-134.5 1141,-134.5 1141,-114.5 944,-114.5"/>
<text text-anchor="middle" x="1042.5" y="-121.5" font-family="FreeSans" font-size="10.00" fill="#000000">CLHEP/Vector/RotationInterfaces.icc</text>
</g>
<!-- Node3&#45;&gt;Node12 -->
<g id="edge15" class="edge">
<title>Node3&#45;&gt;Node12</title>
<path fill="none" stroke="#191970" d="M962.8417,-171.3095C977.7388,-162.5556 999.4373,-149.8049 1016.4272,-139.8211"/>
<polygon fill="#191970" stroke="#191970" points="1018.4601,-142.6862 1025.3085,-134.6022 1014.9136,-136.651 1018.4601,-142.6862"/>
</g>
<!-- Node4&#45;&gt;Node5 -->
<g id="edge4" class="edge">
<title>Node4&#45;&gt;Node5</title>
<path fill="none" stroke="#191970" d="M1086.7375,-57.4408C1144.9301,-46.2347 1237.7379,-28.363 1290.4603,-18.2103"/>
<polygon fill="#191970" stroke="#191970" points="1291.2905,-21.6149 1300.4482,-16.287 1289.9668,-14.7412 1291.2905,-21.6149"/>
</g>
<!-- Node6 -->
<g id="node6" class="node">
<title>Node6</title>
<g id="a_node6"><a xlink:href="../../d5/d64/defs_8h.html" target="_top" xlink:title="CLHEP/Utility/defs.h">
<polygon fill="none" stroke="#000000" points="1055.5,-.5 1055.5,-20.5 1171.5,-20.5 1171.5,-.5 1055.5,-.5"/>
<text text-anchor="middle" x="1113.5" y="-7.5" font-family="FreeSans" font-size="10.00" fill="#000000">CLHEP/Utility/defs.h</text>
</a>
</g>
</g>
<!-- Node4&#45;&gt;Node6 -->
<g id="edge5" class="edge">
<title>Node4&#45;&gt;Node6</title>
<path fill="none" stroke="#191970" d="M1048.6236,-57.3095C1060.4193,-48.7987 1077.4508,-36.5102 1091.1037,-26.6594"/>
<polygon fill="#191970" stroke="#191970" points="1093.4371,-29.2918 1099.4987,-20.6022 1089.3412,-23.6151 1093.4371,-29.2918"/>
</g>
<!-- Node7 -->
<g id="node7" class="node">
<title>Node7</title>
<polygon fill="none" stroke="#bfbfbf" points="872,-.5 872,-20.5 1037,-20.5 1037,-.5 872,-.5"/>
<text text-anchor="middle" x="954.5" y="-7.5" font-family="FreeSans" font-size="10.00" fill="#000000">CLHEP/Vector/ThreeVector.icc</text>
</g>
<!-- Node4&#45;&gt;Node7 -->
<g id="edge6" class="edge">
<title>Node4&#45;&gt;Node7</title>
<path fill="none" stroke="#191970" d="M1020.1976,-57.3095C1008.2526,-48.7987 991.0055,-36.5102 977.1798,-26.6594"/>
<polygon fill="#191970" stroke="#191970" points="978.8538,-23.5545 968.6786,-20.6022 974.7918,-29.2555 978.8538,-23.5545"/>
</g>
<!-- Node8&#45;&gt;Node4 -->
<g id="edge9" class="edge">
<title>Node8&#45;&gt;Node4</title>
<path fill="none" stroke="#191970" d="M822.8548,-114.4408C866.4861,-104.7638 932.5297,-90.116 979.2187,-79.7608"/>
<polygon fill="#191970" stroke="#191970" points="980.1622,-83.1367 989.1671,-77.5544 978.6464,-76.3028 980.1622,-83.1367"/>
</g>
<!-- Node8&#45;&gt;Node5 -->
<g id="edge8" class="edge">
<title>Node8&#45;&gt;Node5</title>
<path fill="none" stroke="#191970" d="M797.7348,-114.4099C828.8747,-99.3492 890.7901,-71.24 946.5,-57 1010.9086,-40.5365 1205.3814,-21.7247 1290.2071,-14.0447"/>
<polygon fill="#191970" stroke="#191970" points="1290.5854,-17.5249 1300.2315,-13.1428 1289.9581,-10.553 1290.5854,-17.5249"/>
</g>
<!-- Node9 -->
<g id="node9" class="node">
<title>Node9</title>
<polygon fill="none" stroke="#bfbfbf" points="691,-57.5 691,-77.5 864,-77.5 864,-57.5 691,-57.5"/>
<text text-anchor="middle" x="777.5" y="-64.5" font-family="FreeSans" font-size="10.00" fill="#000000">CLHEP/Vector/LorentzVector.icc</text>
</g>
<!-- Node8&#45;&gt;Node9 -->
<g id="edge10" class="edge">
<title>Node8&#45;&gt;Node9</title>
<path fill="none" stroke="#191970" d="M777.5,-114.3095C777.5,-106.9335 777.5,-96.72 777.5,-87.715"/>
<polygon fill="#191970" stroke="#191970" points="781.0001,-87.6022 777.5,-77.6022 774.0001,-87.6023 781.0001,-87.6022"/>
</g>
<!-- Node10&#45;&gt;Node4 -->
<g id="edge13" class="edge">
<title>Node10&#45;&gt;Node4</title>
<path fill="none" stroke="#191970" d="M1197.5574,-114.4408C1164.5768,-104.9464 1114.9747,-90.6669 1079.142,-80.3515"/>
<polygon fill="#191970" stroke="#191970" points="1080.0038,-76.9575 1069.4258,-77.5544 1078.0672,-83.6843 1080.0038,-76.9575"/>
</g>
<!-- Node10&#45;&gt;Node5 -->
<g id="edge12" class="edge">
<title>Node10&#45;&gt;Node5</title>
<path fill="none" stroke="#191970" d="M1259.5511,-114.4185C1276.4633,-106.8176 1297.4402,-94.8054 1310.5,-78 1321.138,-64.3109 1326.1275,-45.0689 1328.462,-30.6299"/>
<polygon fill="#191970" stroke="#191970" points="1331.9343,-31.0695 1329.7793,-20.6962 1324.995,-30.1493 1331.9343,-31.0695"/>
</g>
<!-- Node11 -->
<g id="node11" class="node">
<title>Node11</title>
<polygon fill="none" stroke="#bfbfbf" points="1147,-57.5 1147,-77.5 1302,-77.5 1302,-57.5 1147,-57.5"/>
<text text-anchor="middle" x="1224.5" y="-64.5" font-family="FreeSans" font-size="10.00" fill="#000000">CLHEP/Vector/AxisAngle.icc</text>
</g>
<!-- Node10&#45;&gt;Node11 -->
<g id="edge14" class="edge">
<title>Node10&#45;&gt;Node11</title>
<path fill="none" stroke="#191970" d="M1231.0698,-114.3095C1230.0345,-106.9335 1228.601,-96.72 1227.3372,-87.715"/>
<polygon fill="#191970" stroke="#191970" points="1230.7739,-87.0187 1225.9179,-77.6022 1223.8418,-87.9917 1230.7739,-87.0187"/>
</g>
<!-- Node14&#45;&gt;Node5 -->
<g id="edge19" class="edge">
<title>Node14&#45;&gt;Node5</title>
<path fill="none" stroke="#191970" d="M1736.2669,-342.3045C1747.4882,-333.8198 1762.483,-320.7728 1771.5,-306 1787.7373,-279.3981 1790.5,-269.6658 1790.5,-238.5 1790.5,-238.5 1790.5,-238.5 1790.5,-124.5 1790.5,-38.4177 1483.1673,-16.8947 1370.9188,-11.9045"/>
<polygon fill="#191970" stroke="#191970" points="1370.8209,-8.3974 1360.6819,-11.4716 1370.525,-15.3911 1370.8209,-8.3974"/>
</g>
<!-- Node15 -->
<g id="node15" class="node">
<title>Node15</title>
<polygon fill="none" stroke="#bfbfbf" points="1597,-285.5 1597,-305.5 1762,-305.5 1762,-285.5 1597,-285.5"/>
<text text-anchor="middle" x="1679.5" y="-292.5" font-family="FreeSans" font-size="10.00" fill="#000000">CLHEP/Vector/EulerAngles.icc</text>
</g>
<!-- Node14&#45;&gt;Node15 -->
<g id="edge20" class="edge">
<title>Node14&#45;&gt;Node15</title>
<path fill="none" stroke="#191970" d="M1713.9912,-342.3095C1708.1382,-334.3661 1699.8603,-323.1319 1692.8812,-313.6602"/>
<polygon fill="#191970" stroke="#191970" points="1695.6935,-311.5766 1686.9438,-305.6022 1690.0581,-315.729 1695.6935,-311.5766"/>
</g>
<!-- Node16&#45;&gt;Node3 -->
<g id="edge22" class="edge">
<title>Node16&#45;&gt;Node3</title>
<path fill="none" stroke="#191970" d="M862.1164,-342.4524C846.8365,-329.6633 825.0957,-306.627 834.5,-285 851.5861,-245.707 891.7547,-214.5705 918.7863,-197.0832"/>
<polygon fill="#191970" stroke="#191970" points="920.7845,-199.9614 927.3976,-191.6839 917.066,-194.0308 920.7845,-199.9614"/>
</g>
<!-- Node16&#45;&gt;Node8 -->
<g id="edge50" class="edge">
<title>Node16&#45;&gt;Node8</title>
<path fill="none" stroke="#191970" d="M862.0667,-342.4702C851.4837,-333.8918 837.1222,-320.6373 828.5,-306 797.3063,-253.0449 784.4347,-180.1255 779.7896,-145.0193"/>
<polygon fill="#191970" stroke="#191970" points="783.2086,-144.1452 778.515,-134.6468 776.2608,-144.999 783.2086,-144.1452"/>
</g>
<!-- Node17 -->
<g id="node17" class="node">
<title>Node17</title>
<g id="a_node17"><a xlink:href="../../d0/d8f/Rotation_8h.html" target="_top" xlink:title="CLHEP/Vector/Rotation.h">
<polygon fill="none" stroke="#000000" points="1046,-285.5 1046,-305.5 1185,-305.5 1185,-285.5 1046,-285.5"/>
<text text-anchor="middle" x="1115.5" y="-292.5" font-family="FreeSans" font-size="10.00" fill="#000000">CLHEP/Vector/Rotation.h</text>
</a>
</g>
</g>
<!-- Node16&#45;&gt;Node17 -->
<g id="edge23" class="edge">
<title>Node16&#45;&gt;Node17</title>
<path fill="none" stroke="#191970" d="M917.8547,-342.4408C958.4291,-332.8043 1019.758,-318.2387 1063.3261,-307.8913"/>
<polygon fill="#191970" stroke="#191970" points="1064.2451,-311.2705 1073.1657,-305.5544 1062.6276,-304.4599 1064.2451,-311.2705"/>
</g>
<!-- Node23 -->
<g id="node23" class="node">
<title>Node23</title>
<g id="a_node23"><a xlink:href="../../dd/d01/Boost_8h.html" target="_top" xlink:title="CLHEP/Vector/Boost.h">
<polygon fill="none" stroke="#000000" points="432,-285.5 432,-305.5 557,-305.5 557,-285.5 432,-285.5"/>
<text text-anchor="middle" x="494.5" y="-292.5" font-family="FreeSans" font-size="10.00" fill="#000000">CLHEP/Vector/Boost.h</text>
</a>
</g>
</g>
<!-- Node16&#45;&gt;Node23 -->
<g id="edge34" class="edge">
<title>Node16&#45;&gt;Node23</title>
<path fill="none" stroke="#191970" d="M808.2619,-342.4408C740.662,-332.3274 636.7717,-316.7847 567.2706,-306.3869"/>
<polygon fill="#191970" stroke="#191970" points="567.6821,-302.9096 557.2743,-304.8914 566.6463,-309.8326 567.6821,-302.9096"/>
</g>
<!-- Node31 -->
<g id="node31" class="node">
<title>Node31</title>
<polygon fill="none" stroke="#bfbfbf" points="843.5,-285.5 843.5,-305.5 1027.5,-305.5 1027.5,-285.5 843.5,-285.5"/>
<text text-anchor="middle" x="935.5" y="-292.5" font-family="FreeSans" font-size="10.00" fill="#000000">CLHEP/Vector/LorentzRotation.icc</text>
</g>
<!-- Node16&#45;&gt;Node31 -->
<g id="edge51" class="edge">
<title>Node16&#45;&gt;Node31</title>
<path fill="none" stroke="#191970" d="M886.2268,-342.3095C894.9296,-334.0419 907.3849,-322.2093 917.5952,-312.5096"/>
<polygon fill="#191970" stroke="#191970" points="920.0267,-315.0273 924.8661,-305.6022 915.2054,-309.9523 920.0267,-315.0273"/>
</g>
<!-- Node17&#45;&gt;Node2 -->
<g id="edge31" class="edge">
<title>Node17&#45;&gt;Node2</title>
<path fill="none" stroke="#191970" d="M1180.4439,-285.4408C1244.3278,-275.5457 1341.7666,-260.4533 1408.8192,-250.0674"/>
<polygon fill="#191970" stroke="#191970" points="1409.5502,-253.496 1418.8966,-248.5065 1408.4787,-246.5785 1409.5502,-253.496"/>
</g>
<!-- Node17&#45;&gt;Node3 -->
<g id="edge24" class="edge">
<title>Node17&#45;&gt;Node3</title>
<path fill="none" stroke="#191970" d="M1053.6758,-285.4601C996.6822,-275.5757 919.5665,-260.3534 910.5,-249 898.1981,-233.5952 912.1608,-213.192 925.9306,-198.8649"/>
<polygon fill="#191970" stroke="#191970" points="928.6685,-201.0841 933.3926,-191.6008 923.7857,-196.0683 928.6685,-201.0841"/>
</g>
<!-- Node17&#45;&gt;Node8 -->
<g id="edge32" class="edge">
<title>Node17&#45;&gt;Node8</title>
<path fill="none" stroke="#191970" d="M1051.9961,-285.4641C998.9821,-276.3898 928.0981,-262.4318 902.5,-249 853.034,-223.0443 810.6053,-170.8807 790.2937,-143.026"/>
<polygon fill="#191970" stroke="#191970" points="792.9303,-140.695 784.2751,-134.5846 787.2307,-144.7588 792.9303,-140.695"/>
</g>
<!-- Node18 -->
<g id="node18" class="node">
<title>Node18</title>
<g id="a_node18"><a xlink:href="../../d2/d84/RotationX_8h.html" target="_top" xlink:title="CLHEP/Vector/RotationX.h">
<polygon fill="none" stroke="#000000" points="1246.5,-228.5 1246.5,-248.5 1392.5,-248.5 1392.5,-228.5 1246.5,-228.5"/>
<text text-anchor="middle" x="1319.5" y="-235.5" font-family="FreeSans" font-size="10.00" fill="#000000">CLHEP/Vector/RotationX.h</text>
</a>
</g>
</g>
<!-- Node17&#45;&gt;Node18 -->
<g id="edge25" class="edge">
<title>Node17&#45;&gt;Node18</title>
<path fill="none" stroke="#191970" d="M1151.5015,-285.4408C1185.4815,-275.9464 1236.5867,-261.6669 1273.5052,-251.3515"/>
<polygon fill="#191970" stroke="#191970" points="1274.8266,-254.6164 1283.5159,-248.5544 1272.9429,-247.8746 1274.8266,-254.6164"/>
</g>
<!-- Node20 -->
<g id="node20" class="node">
<title>Node20</title>
<g id="a_node20"><a xlink:href="../../df/d25/RotationY_8h.html" target="_top" xlink:title="CLHEP/Vector/RotationY.h">
<polygon fill="none" stroke="#000000" points="1085,-228.5 1085,-248.5 1228,-248.5 1228,-228.5 1085,-228.5"/>
<text text-anchor="middle" x="1156.5" y="-235.5" font-family="FreeSans" font-size="10.00" fill="#000000">CLHEP/Vector/RotationY.h</text>
</a>
</g>
</g>
<!-- Node17&#45;&gt;Node20 -->
<g id="edge28" class="edge">
<title>Node17&#45;&gt;Node20</title>
<path fill="none" stroke="#191970" d="M1122.83,-285.3095C1128.4854,-277.4472 1136.4598,-266.3608 1143.2284,-256.9507"/>
<polygon fill="#191970" stroke="#191970" points="1146.2355,-258.7641 1149.2335,-248.6022 1140.5528,-254.6765 1146.2355,-258.7641"/>
</g>
<!-- Node22 -->
<g id="node22" class="node">
<title>Node22</title>
<polygon fill="none" stroke="#bfbfbf" points="920,-228.5 920,-248.5 1067,-248.5 1067,-228.5 920,-228.5"/>
<text text-anchor="middle" x="993.5" y="-235.5" font-family="FreeSans" font-size="10.00" fill="#000000">CLHEP/Vector/Rotation.icc</text>
</g>
<!-- Node17&#45;&gt;Node22 -->
<g id="edge33" class="edge">
<title>Node17&#45;&gt;Node22</title>
<path fill="none" stroke="#191970" d="M1093.9697,-285.4408C1074.6632,-276.4205 1046.1125,-263.0813 1024.3757,-252.9255"/>
<polygon fill="#191970" stroke="#191970" points="1025.7669,-249.7124 1015.2255,-248.6504 1022.8039,-256.0544 1025.7669,-249.7124"/>
</g>
<!-- Node18&#45;&gt;Node3 -->
<g id="edge26" class="edge">
<title>Node18&#45;&gt;Node3</title>
<path fill="none" stroke="#191970" d="M1253.4972,-228.4408C1188.5718,-218.5457 1089.5442,-203.4533 1021.3985,-193.0674"/>
<polygon fill="#191970" stroke="#191970" points="1021.5699,-189.5532 1011.1567,-191.5065 1020.5152,-196.4733 1021.5699,-189.5532"/>
</g>
<!-- Node19 -->
<g id="node19" class="node">
<title>Node19</title>
<polygon fill="none" stroke="#bfbfbf" points="1231,-171.5 1231,-191.5 1384,-191.5 1384,-171.5 1231,-171.5"/>
<text text-anchor="middle" x="1307.5" y="-178.5" font-family="FreeSans" font-size="10.00" fill="#000000">CLHEP/Vector/RotationX.icc</text>
</g>
<!-- Node18&#45;&gt;Node19 -->
<g id="edge27" class="edge">
<title>Node18&#45;&gt;Node19</title>
<path fill="none" stroke="#191970" d="M1317.3546,-228.3095C1315.7847,-220.8524 1313.6042,-210.4951 1311.6934,-201.4186"/>
<polygon fill="#191970" stroke="#191970" points="1315.1119,-200.6667 1309.6268,-191.6022 1308.262,-202.1088 1315.1119,-200.6667"/>
</g>
<!-- Node20&#45;&gt;Node3 -->
<g id="edge29" class="edge">
<title>Node20&#45;&gt;Node3</title>
<path fill="none" stroke="#191970" d="M1119.2631,-228.4408C1083.967,-218.9058 1030.8062,-204.5448 992.5843,-194.2195"/>
<polygon fill="#191970" stroke="#191970" points="993.2856,-190.7835 982.7189,-191.5544 991.46,-197.5413 993.2856,-190.7835"/>
</g>
<!-- Node21 -->
<g id="node21" class="node">
<title>Node21</title>
<polygon fill="none" stroke="#bfbfbf" points="1062,-171.5 1062,-191.5 1213,-191.5 1213,-171.5 1062,-171.5"/>
<text text-anchor="middle" x="1137.5" y="-178.5" font-family="FreeSans" font-size="10.00" fill="#000000">CLHEP/Vector/RotationY.icc</text>
</g>
<!-- Node20&#45;&gt;Node21 -->
<g id="edge30" class="edge">
<title>Node20&#45;&gt;Node21</title>
<path fill="none" stroke="#191970" d="M1153.1032,-228.3095C1150.5905,-220.7714 1147.0899,-210.2696 1144.041,-201.123"/>
<polygon fill="#191970" stroke="#191970" points="1147.3502,-199.9823 1140.8674,-191.6022 1140.7094,-202.1959 1147.3502,-199.9823"/>
</g>
<!-- Node23&#45;&gt;Node3 -->
<g id="edge35" class="edge">
<title>Node23&#45;&gt;Node3</title>
<path fill="none" stroke="#191970" d="M550.0738,-285.4873C596.0126,-276.8707 662.822,-263.555 720.5,-249 785.9372,-232.487 860.7933,-209.117 905.5474,-194.6552"/>
<polygon fill="#191970" stroke="#191970" points="906.7364,-197.9491 915.168,-191.5337 904.576,-191.2909 906.7364,-197.9491"/>
</g>
<!-- Node23&#45;&gt;Node8 -->
<g id="edge48" class="edge">
<title>Node23&#45;&gt;Node8</title>
<path fill="none" stroke="#191970" d="M467.3126,-285.458C439.0431,-273.4456 401.1545,-251.9347 418.5,-228 451.1726,-182.9159 601.4701,-151.754 696.94,-136.1165"/>
<polygon fill="#191970" stroke="#191970" points="697.5478,-139.5638 706.8622,-134.5147 696.4321,-132.6533 697.5478,-139.5638"/>
</g>
<!-- Node24 -->
<g id="node24" class="node">
<title>Node24</title>
<g id="a_node24"><a xlink:href="../../d1/d65/BoostX_8h.html" target="_top" xlink:title="CLHEP/Vector/BoostX.h">
<polygon fill="none" stroke="#000000" points="579.5,-228.5 579.5,-248.5 711.5,-248.5 711.5,-228.5 579.5,-228.5"/>
<text text-anchor="middle" x="645.5" y="-235.5" font-family="FreeSans" font-size="10.00" fill="#000000">CLHEP/Vector/BoostX.h</text>
</a>
</g>
</g>
<!-- Node23&#45;&gt;Node24 -->
<g id="edge36" class="edge">
<title>Node23&#45;&gt;Node24</title>
<path fill="none" stroke="#191970" d="M521.1482,-285.4408C545.6551,-276.1898 582.1964,-262.3961 609.3324,-252.1527"/>
<polygon fill="#191970" stroke="#191970" points="610.7451,-255.3605 618.8647,-248.5544 608.273,-248.8116 610.7451,-255.3605"/>
</g>
<!-- Node26 -->
<g id="node26" class="node">
<title>Node26</title>
<g id="a_node26"><a xlink:href="../../d9/d71/BoostY_8h.html" target="_top" xlink:title="CLHEP/Vector/BoostY.h">
<polygon fill="none" stroke="#000000" points="92,-228.5 92,-248.5 221,-248.5 221,-228.5 92,-228.5"/>
<text text-anchor="middle" x="156.5" y="-235.5" font-family="FreeSans" font-size="10.00" fill="#000000">CLHEP/Vector/BoostY.h</text>
</a>
</g>
</g>
<!-- Node23&#45;&gt;Node26 -->
<g id="edge40" class="edge">
<title>Node23&#45;&gt;Node26</title>
<path fill="none" stroke="#191970" d="M434.8504,-285.4408C376.4155,-275.5863 287.4136,-260.5771 225.8529,-250.1956"/>
<polygon fill="#191970" stroke="#191970" points="226.2796,-246.7182 215.8368,-248.5065 225.1155,-253.6208 226.2796,-246.7182"/>
</g>
<!-- Node28 -->
<g id="node28" class="node">
<title>Node28</title>
<g id="a_node28"><a xlink:href="../../d3/d5d/BoostZ_8h.html" target="_top" xlink:title="CLHEP/Vector/BoostZ.h">
<polygon fill="none" stroke="#000000" points="239.5,-228.5 239.5,-248.5 371.5,-248.5 371.5,-228.5 239.5,-228.5"/>
<text text-anchor="middle" x="305.5" y="-235.5" font-family="FreeSans" font-size="10.00" fill="#000000">CLHEP/Vector/BoostZ.h</text>
</a>
</g>
</g>
<!-- Node23&#45;&gt;Node28 -->
<g id="edge44" class="edge">
<title>Node23&#45;&gt;Node28</title>
<path fill="none" stroke="#191970" d="M461.1457,-285.4408C429.7988,-275.9869 382.7211,-261.7889 348.5521,-251.484"/>
<polygon fill="#191970" stroke="#191970" points="349.4229,-248.091 338.8382,-248.5544 347.4017,-254.7928 349.4229,-248.091"/>
</g>
<!-- Node30 -->
<g id="node30" class="node">
<title>Node30</title>
<polygon fill="none" stroke="#bfbfbf" points="428,-228.5 428,-248.5 561,-248.5 561,-228.5 428,-228.5"/>
<text text-anchor="middle" x="494.5" y="-235.5" font-family="FreeSans" font-size="10.00" fill="#000000">CLHEP/Vector/Boost.icc</text>
</g>
<!-- Node23&#45;&gt;Node30 -->
<g id="edge49" class="edge">
<title>Node23&#45;&gt;Node30</title>
<path fill="none" stroke="#191970" d="M494.5,-285.3095C494.5,-277.9335 494.5,-267.72 494.5,-258.715"/>
<polygon fill="#191970" stroke="#191970" points="498.0001,-258.6022 494.5,-248.6022 491.0001,-258.6023 498.0001,-258.6022"/>
</g>
<!-- Node24&#45;&gt;Node3 -->
<g id="edge37" class="edge">
<title>Node24&#45;&gt;Node3</title>
<path fill="none" stroke="#191970" d="M698.4434,-228.4408C749.9879,-218.6473 828.3283,-203.7626 882.9275,-193.3888"/>
<polygon fill="#191970" stroke="#191970" points="883.6633,-196.8117 892.8342,-191.5065 882.3566,-189.9347 883.6633,-196.8117"/>
</g>
<!-- Node24&#45;&gt;Node8 -->
<g id="edge38" class="edge">
<title>Node24&#45;&gt;Node8</title>
<path fill="none" stroke="#191970" d="M630.3149,-228.3652C612.0033,-214.8936 585.4479,-190.5173 600.5,-171 612.5547,-155.3694 654.6058,-143.9574 694.6948,-136.3511"/>
<polygon fill="#191970" stroke="#191970" points="695.3466,-139.79 704.5532,-134.547 694.0865,-132.9044 695.3466,-139.79"/>
</g>
<!-- Node25 -->
<g id="node25" class="node">
<title>Node25</title>
<polygon fill="none" stroke="#bfbfbf" points="609.5,-171.5 609.5,-191.5 749.5,-191.5 749.5,-171.5 609.5,-171.5"/>
<text text-anchor="middle" x="679.5" y="-178.5" font-family="FreeSans" font-size="10.00" fill="#000000">CLHEP/Vector/BoostX.icc</text>
</g>
<!-- Node24&#45;&gt;Node25 -->
<g id="edge39" class="edge">
<title>Node24&#45;&gt;Node25</title>
<path fill="none" stroke="#191970" d="M651.5785,-228.3095C656.22,-220.5282 662.7451,-209.589 668.3204,-200.2423"/>
<polygon fill="#191970" stroke="#191970" points="671.3571,-201.9834 673.4741,-191.6022 665.3454,-198.3975 671.3571,-201.9834"/>
</g>
<!-- Node26&#45;&gt;Node3 -->
<g id="edge41" class="edge">
<title>Node26&#45;&gt;Node3</title>
<path fill="none" stroke="#191970" d="M221.0384,-229.0481C224.235,-228.6723 227.4023,-228.32 230.5,-228 345.6955,-216.0989 671.5615,-196.911 840.705,-187.3318"/>
<polygon fill="#191970" stroke="#191970" points="841.0853,-190.816 850.8717,-186.7569 840.6901,-183.8272 841.0853,-190.816"/>
</g>
<!-- Node26&#45;&gt;Node8 -->
<g id="edge42" class="edge">
<title>Node26&#45;&gt;Node8</title>
<path fill="none" stroke="#191970" d="M157.4486,-228.4914C159.4766,-213.2712 165.7115,-184.6392 184.5,-171 223.9559,-142.3577 527.9171,-130.6688 684.6553,-126.5075"/>
<polygon fill="#191970" stroke="#191970" points="684.8566,-130.0035 694.7621,-126.2442 684.6743,-123.0059 684.8566,-130.0035"/>
</g>
<!-- Node27 -->
<g id="node27" class="node">
<title>Node27</title>
<polygon fill="none" stroke="#bfbfbf" points="0,-171.5 0,-191.5 137,-191.5 137,-171.5 0,-171.5"/>
<text text-anchor="middle" x="68.5" y="-178.5" font-family="FreeSans" font-size="10.00" fill="#000000">CLHEP/Vector/BoostY.icc</text>
</g>
<!-- Node26&#45;&gt;Node27 -->
<g id="edge43" class="edge">
<title>Node26&#45;&gt;Node27</title>
<path fill="none" stroke="#191970" d="M140.7674,-228.3095C127.3776,-219.6366 107.9312,-207.0407 92.5829,-197.0992"/>
<polygon fill="#191970" stroke="#191970" points="94.3924,-194.1011 84.0964,-191.6022 90.5868,-199.9764 94.3924,-194.1011"/>
</g>
<!-- Node28&#45;&gt;Node3 -->
<g id="edge45" class="edge">
<title>Node28&#45;&gt;Node3</title>
<path fill="none" stroke="#191970" d="M371.5213,-232.3133C386.9368,-230.8832 403.2928,-229.3774 418.5,-228 564.9371,-214.7361 734.3101,-199.8774 840.6702,-190.6053"/>
<polygon fill="#191970" stroke="#191970" points="841.1052,-194.0807 850.7636,-189.7256 840.4974,-187.1071 841.1052,-194.0807"/>
</g>
<!-- Node28&#45;&gt;Node8 -->
<g id="edge46" class="edge">
<title>Node28&#45;&gt;Node8</title>
<path fill="none" stroke="#191970" d="M313.8637,-228.3938C327.2218,-213.0432 354.9938,-184.2394 385.5,-171 437.4903,-148.4366 585.9296,-135.6187 684.4884,-129.372"/>
<polygon fill="#191970" stroke="#191970" points="684.9948,-132.8473 694.7582,-128.7333 684.5602,-125.8608 684.9948,-132.8473"/>
</g>
<!-- Node29 -->
<g id="node29" class="node">
<title>Node29</title>
<polygon fill="none" stroke="#bfbfbf" points="193.5,-171.5 193.5,-191.5 333.5,-191.5 333.5,-171.5 193.5,-171.5"/>
<text text-anchor="middle" x="263.5" y="-178.5" font-family="FreeSans" font-size="10.00" fill="#000000">CLHEP/Vector/BoostZ.icc</text>
</g>
<!-- Node28&#45;&gt;Node29 -->
<g id="edge47" class="edge">
<title>Node28&#45;&gt;Node29</title>
<path fill="none" stroke="#191970" d="M297.9912,-228.3095C292.1382,-220.3661 283.8603,-209.1319 276.8812,-199.6602"/>
<polygon fill="#191970" stroke="#191970" points="279.6935,-197.5766 270.9438,-191.6022 274.0581,-201.729 279.6935,-197.5766"/>
</g>
<!-- Node33 -->
<g id="node33" class="node">
<title>Node33</title>
<g id="a_node33"><a xlink:href="../../da/db6/SystemOfUnits_8h.html" target="_top" xlink:title="CLHEP/Units/SystemOfUnits.h">
<polygon fill="none" stroke="#000000" points="1864.5,-285.5 1864.5,-305.5 2030.5,-305.5 2030.5,-285.5 1864.5,-285.5"/>
<text text-anchor="middle" x="1947.5" y="-292.5" font-family="FreeSans" font-size="10.00" fill="#000000">CLHEP/Units/SystemOfUnits.h</text>
</a>
</g>
</g>
<!-- Node32&#45;&gt;Node33 -->
<g id="edge53" class="edge">
<title>Node32&#45;&gt;Node33</title>
<path fill="none" stroke="#191970" d="M1947.5,-342.3095C1947.5,-334.9335 1947.5,-324.72 1947.5,-315.715"/>
<polygon fill="#191970" stroke="#191970" points="1951.0001,-315.6022 1947.5,-305.6022 1944.0001,-315.6023 1951.0001,-315.6022"/>
</g>
</g>
</svg>
