<?xml version="1.0" encoding="UTF-8" standalone="no"?>
<!DOCTYPE svg PUBLIC "-//W3C//DTD SVG 1.1//EN"
 "http://www.w3.org/Graphics/SVG/1.1/DTD/svg11.dtd">
<!-- Generated by graphviz version 2.40.1 (20161225.0304)
 -->
<!-- Title: ecce&#45;detectors/blob/master/FastPID/hpDIRC/DrcPidFast.cxx Pages: 1 -->
<svg width="451pt" height="167pt"
 viewBox="0.00 0.00 451.00 167.00" xmlns="http://www.w3.org/2000/svg" xmlns:xlink="http://www.w3.org/1999/xlink">
<g id="graph0" class="graph" transform="scale(1 1) rotate(0) translate(4 163)">
<title>ecce&#45;detectors/blob/master/FastPID/hpDIRC/DrcPidFast.cxx</title>
<!-- Node1 -->
<g id="node1" class="node">
<title>Node1</title>
<polygon fill="#bfbfbf" stroke="#000000" points="150,-114.5 150,-158.5 286,-158.5 286,-114.5 150,-114.5"/>
<text text-anchor="start" x="158" y="-145.5" font-family="FreeSans" font-size="10.00" fill="#000000">ecce&#45;detectors/blob</text>
<text text-anchor="start" x="158" y="-133.5" font-family="FreeSans" font-size="10.00" fill="#000000">/master/FastPID/hpDIRC</text>
<text text-anchor="middle" x="218" y="-121.5" font-family="FreeSans" font-size="10.00" fill="#000000">/DrcPidFast.cxx</text>
</g>
<!-- Node2 -->
<g id="node2" class="node">
<title>Node2</title>
<g id="a_node2"><a xlink:href="../../d7/dfd/DrcPidFast_8h.html" target="_top" xlink:title="DrcPidFast.h">
<polygon fill="none" stroke="#000000" points="179,-57.5 179,-77.5 257,-77.5 257,-57.5 179,-57.5"/>
<text text-anchor="middle" x="218" y="-64.5" font-family="FreeSans" font-size="10.00" fill="#000000">DrcPidFast.h</text>
</a>
</g>
</g>
<!-- Node1&#45;&gt;Node2 -->
<g id="edge1" class="edge">
<title>Node1&#45;&gt;Node2</title>
<path fill="none" stroke="#191970" d="M218,-114.2882C218,-105.8377 218,-96.2557 218,-87.9736"/>
<polygon fill="#191970" stroke="#191970" points="221.5001,-87.7136 218,-77.7137 214.5001,-87.7137 221.5001,-87.7136"/>
</g>
<!-- Node3 -->
<g id="node3" class="node">
<title>Node3</title>
<polygon fill="none" stroke="#bfbfbf" points="0,-.5 0,-20.5 50,-20.5 50,-.5 0,-.5"/>
<text text-anchor="middle" x="25" y="-7.5" font-family="FreeSans" font-size="10.00" fill="#000000">TFile.h</text>
</g>
<!-- Node2&#45;&gt;Node3 -->
<g id="edge2" class="edge">
<title>Node2&#45;&gt;Node3</title>
<path fill="none" stroke="#191970" d="M183.2166,-57.4903C152.9895,-48.7556 107.7851,-35.6067 59.8565,-21.2308"/>
<polygon fill="#191970" stroke="#191970" points="60.8224,-17.8665 50.2381,-18.3403 58.8076,-24.5703 60.8224,-17.8665"/>
</g>
<!-- Node4 -->
<g id="node4" class="node">
<title>Node4</title>
<polygon fill="none" stroke="#bfbfbf" points="68.5,-.5 68.5,-20.5 119.5,-20.5 119.5,-.5 68.5,-.5"/>
<text text-anchor="middle" x="94" y="-7.5" font-family="FreeSans" font-size="10.00" fill="#000000">TH2F.h</text>
</g>
<!-- Node2&#45;&gt;Node4 -->
<g id="edge3" class="edge">
<title>Node2&#45;&gt;Node4</title>
<path fill="none" stroke="#191970" d="M196.1167,-57.4408C176.4938,-48.4205 147.475,-35.0813 125.3819,-24.9255"/>
<polygon fill="#191970" stroke="#191970" points="126.6295,-21.647 116.0816,-20.6504 123.7058,-28.0072 126.6295,-21.647"/>
</g>
<!-- Node5 -->
<g id="node5" class="node">
<title>Node5</title>
<polygon fill="none" stroke="#bfbfbf" points="137.5,-.5 137.5,-20.5 208.5,-20.5 208.5,-.5 137.5,-.5"/>
<text text-anchor="middle" x="173" y="-7.5" font-family="FreeSans" font-size="10.00" fill="#000000">TVector3.h</text>
</g>
<!-- Node2&#45;&gt;Node5 -->
<g id="edge4" class="edge">
<title>Node2&#45;&gt;Node5</title>
<path fill="none" stroke="#191970" d="M209.9549,-57.3095C203.6838,-49.3661 194.8146,-38.1319 187.337,-28.6602"/>
<polygon fill="#191970" stroke="#191970" points="189.919,-26.2823 180.9754,-20.6022 184.4248,-30.6199 189.919,-26.2823"/>
</g>
<!-- Node6 -->
<g id="node6" class="node">
<title>Node6</title>
<polygon fill="none" stroke="#bfbfbf" points="226.5,-.5 226.5,-20.5 301.5,-20.5 301.5,-.5 226.5,-.5"/>
<text text-anchor="middle" x="264" y="-7.5" font-family="FreeSans" font-size="10.00" fill="#000000">TRandom.h</text>
</g>
<!-- Node2&#45;&gt;Node6 -->
<g id="edge5" class="edge">
<title>Node2&#45;&gt;Node6</title>
<path fill="none" stroke="#191970" d="M226.2239,-57.3095C232.6344,-49.3661 241.7006,-38.1319 249.3444,-28.6602"/>
<polygon fill="#191970" stroke="#191970" points="252.2908,-30.5823 255.8473,-20.6022 246.8434,-26.1862 252.2908,-30.5823"/>
</g>
<!-- Node7 -->
<g id="node7" class="node">
<title>Node7</title>
<polygon fill="none" stroke="#bfbfbf" points="319.5,-.5 319.5,-20.5 364.5,-20.5 364.5,-.5 319.5,-.5"/>
<text text-anchor="middle" x="342" y="-7.5" font-family="FreeSans" font-size="10.00" fill="#000000">TF1.h</text>
</g>
<!-- Node2&#45;&gt;Node7 -->
<g id="edge6" class="edge">
<title>Node2&#45;&gt;Node7</title>
<path fill="none" stroke="#191970" d="M239.8833,-57.4408C259.5062,-48.4205 288.525,-35.0813 310.6181,-24.9255"/>
<polygon fill="#191970" stroke="#191970" points="312.2942,-28.0072 319.9184,-20.6504 309.3705,-21.647 312.2942,-28.0072"/>
</g>
<!-- Node8 -->
<g id="node8" class="node">
<title>Node8</title>
<polygon fill="none" stroke="#bfbfbf" points="383,-.5 383,-20.5 443,-20.5 443,-.5 383,-.5"/>
<text text-anchor="middle" x="413" y="-7.5" font-family="FreeSans" font-size="10.00" fill="#000000">iostream</text>
</g>
<!-- Node2&#45;&gt;Node8 -->
<g id="edge7" class="edge">
<title>Node2&#45;&gt;Node8</title>
<path fill="none" stroke="#191970" d="M252.4132,-57.4408C286.0489,-47.6088 337.2392,-32.6455 372.7458,-22.2666"/>
<polygon fill="#191970" stroke="#191970" points="374.1539,-25.5016 382.7702,-19.3364 372.1899,-18.7827 374.1539,-25.5016"/>
</g>
</g>
</svg>
