<?xml version="1.0" encoding="UTF-8" standalone="no"?>
<!DOCTYPE svg PUBLIC "-//W3C//DTD SVG 1.1//EN"
 "http://www.w3.org/Graphics/SVG/1.1/DTD/svg11.dtd">
<!-- Generated by graphviz version 2.40.1 (20161225.0304)
 -->
<!-- Title: G4WentzelOKandVIxSection::InitialiseA Pages: 1 -->
<svg width="2538pt" height="428pt"
 viewBox="0.00 0.00 2538.00 427.50" xmlns="http://www.w3.org/2000/svg" xmlns:xlink="http://www.w3.org/1999/xlink">
<g id="graph0" class="graph" transform="scale(1 1) rotate(0) translate(4 423.5)">
<title>G4WentzelOKandVIxSection::InitialiseA</title>
<!-- Node1 -->
<g id="node1" class="node">
<title>Node1</title>
<polygon fill="#bfbfbf" stroke="#000000" points="0,-51.5 0,-83.5 158,-83.5 158,-51.5 0,-51.5"/>
<text text-anchor="start" x="8" y="-70.5" font-family="FreeSans" font-size="10.00" fill="#000000">G4WentzelOKandVIxSection</text>
<text text-anchor="middle" x="79" y="-58.5" font-family="FreeSans" font-size="10.00" fill="#000000">::InitialiseA</text>
</g>
<!-- Node2 -->
<g id="node2" class="node">
<title>Node2</title>
<g id="a_node2"><a xlink:href="../../d9/d5f/classG4WentzelOKandVIxSection.html#a53d2aa56a5128c80b6c04653c0f57089" target="_top" xlink:title="G4WentzelOKandVIxSection\l::Initialise">
<polygon fill="none" stroke="#000000" points="194,-51.5 194,-83.5 352,-83.5 352,-51.5 194,-51.5"/>
<text text-anchor="start" x="202" y="-70.5" font-family="FreeSans" font-size="10.00" fill="#000000">G4WentzelOKandVIxSection</text>
<text text-anchor="middle" x="273" y="-58.5" font-family="FreeSans" font-size="10.00" fill="#000000">::Initialise</text>
</a>
</g>
</g>
<!-- Node1&#45;&gt;Node2 -->
<g id="edge1" class="edge">
<title>Node1&#45;&gt;Node2</title>
<path fill="none" stroke="#191970" d="M168.4359,-67.5C176.8837,-67.5 185.4084,-67.5 193.7517,-67.5"/>
<polygon fill="#191970" stroke="#191970" points="168.1871,-64.0001 158.187,-67.5 168.187,-71.0001 168.1871,-64.0001"/>
</g>
<!-- Node3 -->
<g id="node3" class="node">
<title>Node3</title>
<g id="a_node3"><a xlink:href="../../d8/d2f/classG4WentzelVIModel.html#a776f3b62a8e5129361d5dc6636805356" target="_top" xlink:title="G4WentzelVIModel::Initialise">
<polygon fill="none" stroke="#000000" points="390,-102.5 390,-122.5 550,-122.5 550,-102.5 390,-102.5"/>
<text text-anchor="middle" x="470" y="-109.5" font-family="FreeSans" font-size="10.00" fill="#000000">G4WentzelVIModel::Initialise</text>
</a>
</g>
</g>
<!-- Node2&#45;&gt;Node3 -->
<g id="edge2" class="edge">
<title>Node2&#45;&gt;Node3</title>
<path fill="none" stroke="#191970" d="M353.1166,-85.8007C378.0549,-91.4973 404.6234,-97.5663 426.1178,-102.4761"/>
<polygon fill="#191970" stroke="#191970" points="353.8155,-82.3703 343.2872,-83.5555 352.2566,-89.1945 353.8155,-82.3703"/>
</g>
<!-- Node25 -->
<g id="node25" class="node">
<title>Node25</title>
<g id="a_node25"><a xlink:href="../../d8/d6d/classG4hCoulombScatteringModel.html#ae485199e19951e84a867ff48a8f561ba" target="_top" xlink:title="G4hCoulombScatteringModel\l::Initialise">
<polygon fill="none" stroke="#000000" points="388,-51.5 388,-83.5 552,-83.5 552,-51.5 388,-51.5"/>
<text text-anchor="start" x="396" y="-70.5" font-family="FreeSans" font-size="10.00" fill="#000000">G4hCoulombScatteringModel</text>
<text text-anchor="middle" x="470" y="-58.5" font-family="FreeSans" font-size="10.00" fill="#000000">::Initialise</text>
</a>
</g>
</g>
<!-- Node2&#45;&gt;Node25 -->
<g id="edge33" class="edge">
<title>Node2&#45;&gt;Node25</title>
<path fill="none" stroke="#191970" d="M362.553,-67.5C371.0286,-67.5 379.5933,-67.5 387.9932,-67.5"/>
<polygon fill="#191970" stroke="#191970" points="362.2759,-64.0001 352.2759,-67.5 362.2759,-71.0001 362.2759,-64.0001"/>
</g>
<!-- Node26 -->
<g id="node26" class="node">
<title>Node26</title>
<g id="a_node26"><a xlink:href="../../db/d99/classG4eCoulombScatteringModel.html#acbc812b1198eed6dd8796d4f97ec12b6" target="_top" xlink:title="G4eCoulombScatteringModel\l::Initialise">
<polygon fill="none" stroke="#000000" points="388,-.5 388,-32.5 552,-32.5 552,-.5 388,-.5"/>
<text text-anchor="start" x="396" y="-19.5" font-family="FreeSans" font-size="10.00" fill="#000000">G4eCoulombScatteringModel</text>
<text text-anchor="middle" x="470" y="-7.5" font-family="FreeSans" font-size="10.00" fill="#000000">::Initialise</text>
</a>
</g>
</g>
<!-- Node2&#45;&gt;Node26 -->
<g id="edge34" class="edge">
<title>Node2&#45;&gt;Node26</title>
<path fill="none" stroke="#191970" d="M344.7513,-48.9248C365.4497,-43.5663 387.8532,-37.7664 407.912,-32.5736"/>
<polygon fill="#191970" stroke="#191970" points="343.8653,-45.5387 335.0616,-51.4333 345.6197,-52.3153 343.8653,-45.5387"/>
</g>
<!-- Node4 -->
<g id="node4" class="node">
<title>Node4</title>
<g id="a_node4"><a xlink:href="../../dc/dd9/classG4TablesForExtrapolator.html#a721be67f1a54942b53147602bbd023ba" target="_top" xlink:title="G4TablesForExtrapolator\l::ComputeTrasportXS">
<polygon fill="none" stroke="#000000" points="588,-122.5 588,-154.5 729,-154.5 729,-122.5 588,-122.5"/>
<text text-anchor="start" x="596" y="-141.5" font-family="FreeSans" font-size="10.00" fill="#000000">G4TablesForExtrapolator</text>
<text text-anchor="middle" x="658.5" y="-129.5" font-family="FreeSans" font-size="10.00" fill="#000000">::ComputeTrasportXS</text>
</a>
</g>
</g>
<!-- Node3&#45;&gt;Node4 -->
<g id="edge3" class="edge">
<title>Node3&#45;&gt;Node4</title>
<path fill="none" stroke="#191970" d="M552.7878,-123.919C564.4609,-125.5291 576.372,-127.172 587.7906,-128.747"/>
<polygon fill="#191970" stroke="#191970" points="552.9939,-120.4144 542.6094,-122.5151 552.0373,-127.3487 552.9939,-120.4144"/>
</g>
<!-- Node24 -->
<g id="node24" class="node">
<title>Node24</title>
<g id="a_node24"><a xlink:href="../../df/d39/classG4WentzelVIRelModel.html#a99f0b7c6cf20e6b6e55e9fb81eb6647a" target="_top" xlink:title="G4WentzelVIRelModel\l::Initialise">
<polygon fill="none" stroke="#000000" points="595,-71.5 595,-103.5 722,-103.5 722,-71.5 595,-71.5"/>
<text text-anchor="start" x="603" y="-90.5" font-family="FreeSans" font-size="10.00" fill="#000000">G4WentzelVIRelModel</text>
<text text-anchor="middle" x="658.5" y="-78.5" font-family="FreeSans" font-size="10.00" fill="#000000">::Initialise</text>
</a>
</g>
</g>
<!-- Node3&#45;&gt;Node24 -->
<g id="edge32" class="edge">
<title>Node3&#45;&gt;Node24</title>
<path fill="none" stroke="#191970" d="M555.5868,-101.149C568.7478,-99.4035 582.1361,-97.6278 594.7133,-95.9598"/>
<polygon fill="#191970" stroke="#191970" points="555.037,-97.6911 545.584,-102.4756 555.9574,-104.6304 555.037,-97.6911"/>
</g>
<!-- Node5 -->
<g id="node5" class="node">
<title>Node5</title>
<g id="a_node5"><a xlink:href="../../dc/dd9/classG4TablesForExtrapolator.html#a174966c4aab7851aec39cf223c04c49e" target="_top" xlink:title="G4TablesForExtrapolator\l::Initialisation">
<polygon fill="none" stroke="#000000" points="765,-122.5 765,-154.5 906,-154.5 906,-122.5 765,-122.5"/>
<text text-anchor="start" x="773" y="-141.5" font-family="FreeSans" font-size="10.00" fill="#000000">G4TablesForExtrapolator</text>
<text text-anchor="middle" x="835.5" y="-129.5" font-family="FreeSans" font-size="10.00" fill="#000000">::Initialisation</text>
</a>
</g>
</g>
<!-- Node4&#45;&gt;Node5 -->
<g id="edge4" class="edge">
<title>Node4&#45;&gt;Node5</title>
<path fill="none" stroke="#191970" d="M739.4937,-138.5C747.9728,-138.5 756.5444,-138.5 764.8942,-138.5"/>
<polygon fill="#191970" stroke="#191970" points="739.2182,-135.0001 729.2182,-138.5 739.2181,-142.0001 739.2182,-135.0001"/>
</g>
<!-- Node6 -->
<g id="node6" class="node">
<title>Node6</title>
<g id="a_node6"><a xlink:href="../../da/de2/classG4EnergyLossForExtrapolator.html#aa13b7b10633a6d8c33436d3073c5703a" target="_top" xlink:title="G4EnergyLossForExtrapolator\l::BuildTables">
<polygon fill="none" stroke="#000000" points="942,-148.5 942,-180.5 1109,-180.5 1109,-148.5 942,-148.5"/>
<text text-anchor="start" x="950" y="-167.5" font-family="FreeSans" font-size="10.00" fill="#000000">G4EnergyLossForExtrapolator</text>
<text text-anchor="middle" x="1025.5" y="-155.5" font-family="FreeSans" font-size="10.00" fill="#000000">::BuildTables</text>
</a>
</g>
</g>
<!-- Node5&#45;&gt;Node6 -->
<g id="edge5" class="edge">
<title>Node5&#45;&gt;Node6</title>
<path fill="none" stroke="#191970" d="M916.4248,-149.5739C924.8435,-150.7259 933.4129,-151.8986 941.8608,-153.0546"/>
<polygon fill="#191970" stroke="#191970" points="916.6312,-146.0696 906.249,-148.1814 915.6821,-153.005 916.6312,-146.0696"/>
</g>
<!-- Node23 -->
<g id="node23" class="node">
<title>Node23</title>
<g id="a_node23"><a xlink:href="../../dc/dd9/classG4TablesForExtrapolator.html#a88db07b686cd332a9f712ed4a45d95c8" target="_top" xlink:title="G4TablesForExtrapolator\l::G4TablesForExtrapolator">
<polygon fill="none" stroke="#000000" points="951.5,-97.5 951.5,-129.5 1099.5,-129.5 1099.5,-97.5 951.5,-97.5"/>
<text text-anchor="start" x="959.5" y="-116.5" font-family="FreeSans" font-size="10.00" fill="#000000">G4TablesForExtrapolator</text>
<text text-anchor="middle" x="1025.5" y="-104.5" font-family="FreeSans" font-size="10.00" fill="#000000">::G4TablesForExtrapolator</text>
</a>
</g>
</g>
<!-- Node5&#45;&gt;Node23 -->
<g id="edge31" class="edge">
<title>Node5&#45;&gt;Node23</title>
<path fill="none" stroke="#191970" d="M916.3264,-127.8649C927.8981,-126.3424 939.7569,-124.782 951.1949,-123.277"/>
<polygon fill="#191970" stroke="#191970" points="915.7069,-124.4162 906.249,-129.1909 916.6202,-131.3564 915.7069,-124.4162"/>
</g>
<!-- Node7 -->
<g id="node7" class="node">
<title>Node7</title>
<g id="a_node7"><a xlink:href="../../da/de2/classG4EnergyLossForExtrapolator.html#a2469d740bba25f47a141a65707316dad" target="_top" xlink:title="G4EnergyLossForExtrapolator\l::Initialisation">
<polygon fill="none" stroke="#000000" points="1145,-148.5 1145,-180.5 1312,-180.5 1312,-148.5 1145,-148.5"/>
<text text-anchor="start" x="1153" y="-167.5" font-family="FreeSans" font-size="10.00" fill="#000000">G4EnergyLossForExtrapolator</text>
<text text-anchor="middle" x="1228.5" y="-155.5" font-family="FreeSans" font-size="10.00" fill="#000000">::Initialisation</text>
</a>
</g>
</g>
<!-- Node6&#45;&gt;Node7 -->
<g id="edge6" class="edge">
<title>Node6&#45;&gt;Node7</title>
<path fill="none" stroke="#191970" d="M1119.2558,-164.5C1127.8295,-164.5 1136.4773,-164.5 1144.9526,-164.5"/>
<polygon fill="#191970" stroke="#191970" points="1119.2399,-161.0001 1109.2399,-164.5 1119.2398,-168.0001 1119.2399,-161.0001"/>
</g>
<!-- Node8 -->
<g id="node8" class="node">
<title>Node8</title>
<g id="a_node8"><a xlink:href="../../da/de2/classG4EnergyLossForExtrapolator.html#ad14ca9754b75248c0d312cdb43720dae" target="_top" xlink:title="G4EnergyLossForExtrapolator\l::EnergyAfterStep">
<polygon fill="none" stroke="#000000" points="2160,-326.5 2160,-358.5 2327,-358.5 2327,-326.5 2160,-326.5"/>
<text text-anchor="start" x="2168" y="-345.5" font-family="FreeSans" font-size="10.00" fill="#000000">G4EnergyLossForExtrapolator</text>
<text text-anchor="middle" x="2243.5" y="-333.5" font-family="FreeSans" font-size="10.00" fill="#000000">::EnergyAfterStep</text>
</a>
</g>
</g>
<!-- Node7&#45;&gt;Node8 -->
<g id="edge7" class="edge">
<title>Node7&#45;&gt;Node8</title>
<path fill="none" stroke="#191970" d="M1248.3361,-188.7683C1302.7864,-252.457 1462.0377,-419.5 1634.5,-419.5 1634.5,-419.5 1634.5,-419.5 1837.5,-419.5 1965.9485,-419.5 1998.751,-409.9903 2124,-381.5 2149.9614,-375.5946 2178.3182,-366.4604 2200.8912,-358.5161"/>
<polygon fill="#191970" stroke="#191970" points="1250.7686,-186.2239 1241.644,-180.8393 1245.4192,-190.7388 1250.7686,-186.2239"/>
</g>
<!-- Node12 -->
<g id="node12" class="node">
<title>Node12</title>
<g id="a_node12"><a xlink:href="../../da/de2/classG4EnergyLossForExtrapolator.html#a696617cc14056b31669918a1f7db6b41" target="_top" xlink:title="G4EnergyLossForExtrapolator\l::EnergyBeforeStep">
<polygon fill="none" stroke="#000000" points="2160,-186.5 2160,-218.5 2327,-218.5 2327,-186.5 2160,-186.5"/>
<text text-anchor="start" x="2168" y="-205.5" font-family="FreeSans" font-size="10.00" fill="#000000">G4EnergyLossForExtrapolator</text>
<text text-anchor="middle" x="2243.5" y="-193.5" font-family="FreeSans" font-size="10.00" fill="#000000">::EnergyBeforeStep</text>
</a>
</g>
</g>
<!-- Node7&#45;&gt;Node12 -->
<g id="edge11" class="edge">
<title>Node7&#45;&gt;Node12</title>
<path fill="none" stroke="#191970" d="M1289.933,-145.6576C1368.8778,-123.1503 1510.5436,-88.5 1634.5,-88.5 1634.5,-88.5 1634.5,-88.5 1837.5,-88.5 1966.2595,-88.5 2012.7665,-66.6454 2124,-131.5 2146.4274,-144.5763 2138.5563,-162.8664 2160,-177.5 2164.9997,-180.9119 2170.4756,-183.8679 2176.1567,-186.4272"/>
<polygon fill="#191970" stroke="#191970" points="1288.7942,-142.3433 1280.1541,-148.4752 1290.7323,-149.0697 1288.7942,-142.3433"/>
</g>
<!-- Node14 -->
<g id="node14" class="node">
<title>Node14</title>
<g id="a_node14"><a xlink:href="../../da/de2/classG4EnergyLossForExtrapolator.html#a6fb85ecb8a42ff1180824cc76a26cb0f" target="_top" xlink:title="G4EnergyLossForExtrapolator\l::SetupKinematics">
<polygon fill="none" stroke="#000000" points="1348,-208.5 1348,-240.5 1515,-240.5 1515,-208.5 1348,-208.5"/>
<text text-anchor="start" x="1356" y="-227.5" font-family="FreeSans" font-size="10.00" fill="#000000">G4EnergyLossForExtrapolator</text>
<text text-anchor="middle" x="1431.5" y="-215.5" font-family="FreeSans" font-size="10.00" fill="#000000">::SetupKinematics</text>
</a>
</g>
</g>
<!-- Node7&#45;&gt;Node14 -->
<g id="edge15" class="edge">
<title>Node7&#45;&gt;Node14</title>
<path fill="none" stroke="#191970" d="M1292.4549,-183.4029C1319.6757,-191.4485 1351.0903,-200.7336 1377.1649,-208.4404"/>
<polygon fill="#191970" stroke="#191970" points="1293.2156,-179.9781 1282.6336,-180.5001 1291.2314,-186.6911 1293.2156,-179.9781"/>
</g>
<!-- Node20 -->
<g id="node20" class="node">
<title>Node20</title>
<g id="a_node20"><a xlink:href="../../da/de2/classG4EnergyLossForExtrapolator.html#a0159186159b590367a48d4b85ec692e0" target="_top" xlink:title="G4EnergyLossForExtrapolator\l::TrueStepLength">
<polygon fill="none" stroke="#000000" points="1957,-141.5 1957,-173.5 2124,-173.5 2124,-141.5 1957,-141.5"/>
<text text-anchor="start" x="1965" y="-160.5" font-family="FreeSans" font-size="10.00" fill="#000000">G4EnergyLossForExtrapolator</text>
<text text-anchor="middle" x="2040.5" y="-148.5" font-family="FreeSans" font-size="10.00" fill="#000000">::TrueStepLength</text>
</a>
</g>
</g>
<!-- Node7&#45;&gt;Node20 -->
<g id="edge30" class="edge">
<title>Node7&#45;&gt;Node20</title>
<path fill="none" stroke="#191970" d="M1322.3423,-161.0697C1455.4887,-156.6444 1706.8691,-149.9172 1921,-153.5 1932.6229,-153.6945 1944.8791,-153.9953 1956.9353,-154.3466"/>
<polygon fill="#191970" stroke="#191970" points="1322.0565,-157.5773 1312.1795,-161.4107 1322.2913,-164.5733 1322.0565,-157.5773"/>
</g>
<!-- Node9 -->
<g id="node9" class="node">
<title>Node9</title>
<g id="a_node9"><a xlink:href="../../d9/d11/classG4ErrorEnergyLoss.html#a6cd08338c876907863c78a7f830a3537" target="_top" xlink:title="G4ErrorEnergyLoss::\lAlongStepDoIt">
<polygon fill="none" stroke="#000000" points="2387,-237.5 2387,-269.5 2506,-269.5 2506,-237.5 2387,-237.5"/>
<text text-anchor="start" x="2395" y="-256.5" font-family="FreeSans" font-size="10.00" fill="#000000">G4ErrorEnergyLoss::</text>
<text text-anchor="middle" x="2446.5" y="-244.5" font-family="FreeSans" font-size="10.00" fill="#000000">AlongStepDoIt</text>
</a>
</g>
</g>
<!-- Node8&#45;&gt;Node9 -->
<g id="edge8" class="edge">
<title>Node8&#45;&gt;Node9</title>
<path fill="none" stroke="#191970" d="M2279.6397,-321.2181C2302.9197,-308.0735 2334.1255,-291.4878 2363,-279.5 2371.5538,-275.9487 2380.7721,-272.6137 2389.8526,-269.5934"/>
<polygon fill="#191970" stroke="#191970" points="2277.7651,-318.258 2270.8119,-326.252 2281.2326,-324.3388 2277.7651,-318.258"/>
</g>
<!-- Node10 -->
<g id="node10" class="node">
<title>Node10</title>
<g id="a_node10"><a xlink:href="../../da/de2/classG4EnergyLossForExtrapolator.html#a9225030167b6d3784adfb14d2b5515c7" target="_top" xlink:title="G4EnergyLossForExtrapolator\l::EnergyAfterStep">
<polygon fill="none" stroke="#000000" points="2363,-339.5 2363,-371.5 2530,-371.5 2530,-339.5 2363,-339.5"/>
<text text-anchor="start" x="2371" y="-358.5" font-family="FreeSans" font-size="10.00" fill="#000000">G4EnergyLossForExtrapolator</text>
<text text-anchor="middle" x="2446.5" y="-346.5" font-family="FreeSans" font-size="10.00" fill="#000000">::EnergyAfterStep</text>
</a>
</g>
</g>
<!-- Node8&#45;&gt;Node10 -->
<g id="edge9" class="edge">
<title>Node8&#45;&gt;Node10</title>
<path fill="none" stroke="#191970" d="M2337.2558,-348.5041C2345.8295,-349.0531 2354.4773,-349.6069 2362.9526,-350.1497"/>
<polygon fill="#191970" stroke="#191970" points="2337.4431,-345.009 2327.2399,-347.8627 2336.9957,-351.9947 2337.4431,-345.009"/>
</g>
<!-- Node11 -->
<g id="node11" class="node">
<title>Node11</title>
<g id="a_node11"><a xlink:href="../../d9/d11/classG4ErrorEnergyLoss.html#a50c6b03ec237ac098af4855402483115" target="_top" xlink:title="G4ErrorEnergyLoss::\lGetContinuousStepLimit">
<polygon fill="none" stroke="#000000" points="2376.5,-288.5 2376.5,-320.5 2516.5,-320.5 2516.5,-288.5 2376.5,-288.5"/>
<text text-anchor="start" x="2384.5" y="-307.5" font-family="FreeSans" font-size="10.00" fill="#000000">G4ErrorEnergyLoss::</text>
<text text-anchor="middle" x="2446.5" y="-295.5" font-family="FreeSans" font-size="10.00" fill="#000000">GetContinuousStepLimit</text>
</a>
</g>
</g>
<!-- Node8&#45;&gt;Node11 -->
<g id="edge10" class="edge">
<title>Node8&#45;&gt;Node11</title>
<path fill="none" stroke="#191970" d="M2337.2196,-324.9564C2350.3334,-322.5016 2363.6215,-320.0142 2376.2013,-317.6594"/>
<polygon fill="#191970" stroke="#191970" points="2336.4251,-321.5443 2327.2399,-326.8246 2337.7132,-328.4248 2336.4251,-321.5443"/>
</g>
<!-- Node12&#45;&gt;Node9 -->
<g id="edge12" class="edge">
<title>Node12&#45;&gt;Node9</title>
<path fill="none" stroke="#191970" d="M2317.4142,-221.0696C2340.1884,-226.7912 2364.9676,-233.0165 2386.6709,-238.4691"/>
<polygon fill="#191970" stroke="#191970" points="2318.0033,-217.6089 2307.4518,-218.5667 2316.2976,-224.3979 2318.0033,-217.6089"/>
</g>
<!-- Node12&#45;&gt;Node11 -->
<g id="edge14" class="edge">
<title>Node12&#45;&gt;Node11</title>
<path fill="none" stroke="#191970" d="M2295.1014,-222.8944C2306.0692,-228.2287 2317.2664,-234.482 2327,-241.5 2345.8709,-255.1061 2343.1867,-267.307 2363,-279.5 2368.5416,-282.9103 2374.5774,-285.8803 2380.7851,-288.4617"/>
<polygon fill="#191970" stroke="#191970" points="2296.5212,-219.6946 2285.9796,-218.6331 2293.5584,-226.0367 2296.5212,-219.6946"/>
</g>
<!-- Node13 -->
<g id="node13" class="node">
<title>Node13</title>
<g id="a_node13"><a xlink:href="../../da/de2/classG4EnergyLossForExtrapolator.html#a7c8d34b3555e1710916257ef649112aa" target="_top" xlink:title="G4EnergyLossForExtrapolator\l::EnergyBeforeStep">
<polygon fill="none" stroke="#000000" points="2363,-186.5 2363,-218.5 2530,-218.5 2530,-186.5 2363,-186.5"/>
<text text-anchor="start" x="2371" y="-205.5" font-family="FreeSans" font-size="10.00" fill="#000000">G4EnergyLossForExtrapolator</text>
<text text-anchor="middle" x="2446.5" y="-193.5" font-family="FreeSans" font-size="10.00" fill="#000000">::EnergyBeforeStep</text>
</a>
</g>
</g>
<!-- Node12&#45;&gt;Node13 -->
<g id="edge13" class="edge">
<title>Node12&#45;&gt;Node13</title>
<path fill="none" stroke="#191970" d="M2337.2558,-202.5C2345.8295,-202.5 2354.4773,-202.5 2362.9526,-202.5"/>
<polygon fill="#191970" stroke="#191970" points="2337.2399,-199.0001 2327.2399,-202.5 2337.2398,-206.0001 2337.2399,-199.0001"/>
</g>
<!-- Node14&#45;&gt;Node8 -->
<g id="edge26" class="edge">
<title>Node14&#45;&gt;Node8</title>
<path fill="none" stroke="#191970" d="M1454.594,-247.6352C1477.1412,-268.7278 1513.4527,-298.9033 1551,-314.5 1756.1527,-399.7181 2025.5777,-376.5824 2159.8664,-357.0571"/>
<polygon fill="#191970" stroke="#191970" points="1456.8642,-244.9638 1447.2133,-240.5922 1452.0316,-250.028 1456.8642,-244.9638"/>
</g>
<!-- Node14&#45;&gt;Node12 -->
<g id="edge27" class="edge">
<title>Node14&#45;&gt;Node12</title>
<path fill="none" stroke="#191970" d="M1525.6297,-221.9497C1685.4599,-217.6193 2007.3729,-208.8975 2159.8127,-204.7674"/>
<polygon fill="#191970" stroke="#191970" points="1525.2414,-218.4588 1515.3399,-222.2285 1525.4311,-225.4563 1525.2414,-218.4588"/>
</g>
<!-- Node15 -->
<g id="node15" class="node">
<title>Node15</title>
<g id="a_node15"><a xlink:href="../../da/de2/classG4EnergyLossForExtrapolator.html#aa5117e9038b4b8035cbe8867ae22fa21" target="_top" xlink:title="G4EnergyLossForExtrapolator\l::AverageScatteringAngle">
<polygon fill="none" stroke="#000000" points="1551,-231.5 1551,-263.5 1718,-263.5 1718,-231.5 1551,-231.5"/>
<text text-anchor="start" x="1559" y="-250.5" font-family="FreeSans" font-size="10.00" fill="#000000">G4EnergyLossForExtrapolator</text>
<text text-anchor="middle" x="1634.5" y="-238.5" font-family="FreeSans" font-size="10.00" fill="#000000">::AverageScatteringAngle</text>
</a>
</g>
</g>
<!-- Node14&#45;&gt;Node15 -->
<g id="edge16" class="edge">
<title>Node14&#45;&gt;Node15</title>
<path fill="none" stroke="#191970" d="M1525.2558,-235.1226C1533.8295,-236.094 1542.4773,-237.0738 1550.9526,-238.034"/>
<polygon fill="#191970" stroke="#191970" points="1525.5704,-231.6359 1515.2399,-233.9878 1524.7822,-238.5914 1525.5704,-231.6359"/>
</g>
<!-- Node18 -->
<g id="node18" class="node">
<title>Node18</title>
<g id="a_node18"><a xlink:href="../../da/de2/classG4EnergyLossForExtrapolator.html#a10c4ae346f7dbd49b65c971f824c1522" target="_top" xlink:title="G4EnergyLossForExtrapolator\l::EnergyDispersion">
<polygon fill="none" stroke="#000000" points="1957,-250.5 1957,-282.5 2124,-282.5 2124,-250.5 1957,-250.5"/>
<text text-anchor="start" x="1965" y="-269.5" font-family="FreeSans" font-size="10.00" fill="#000000">G4EnergyLossForExtrapolator</text>
<text text-anchor="middle" x="2040.5" y="-257.5" font-family="FreeSans" font-size="10.00" fill="#000000">::EnergyDispersion</text>
</a>
</g>
</g>
<!-- Node14&#45;&gt;Node18 -->
<g id="edge28" class="edge">
<title>Node14&#45;&gt;Node18</title>
<path fill="none" stroke="#191970" d="M1472.6362,-244.8557C1556.9925,-283.9687 1755.5616,-362.527 1921,-324.5 1955.8362,-316.4927 1992.2957,-296.9194 2015.6422,-282.7212"/>
<polygon fill="#191970" stroke="#191970" points="1473.9397,-241.6012 1463.4003,-240.5182 1470.964,-247.9372 1473.9397,-241.6012"/>
</g>
<!-- Node14&#45;&gt;Node20 -->
<g id="edge29" class="edge">
<title>Node14&#45;&gt;Node20</title>
<path fill="none" stroke="#191970" d="M1485.6879,-205.3067C1505.934,-198.9003 1529.283,-192.4053 1551,-188.5 1691.7984,-163.1805 1858.6089,-157.7422 1956.6539,-156.9953"/>
<polygon fill="#191970" stroke="#191970" points="1484.4573,-202.0261 1476.0189,-208.4327 1486.6107,-208.6866 1484.4573,-202.0261"/>
</g>
<!-- Node16 -->
<g id="node16" class="node">
<title>Node16</title>
<g id="a_node16"><a xlink:href="../../da/de2/classG4EnergyLossForExtrapolator.html#a15587285d4f3df572c868e8c49b26a01" target="_top" xlink:title="G4EnergyLossForExtrapolator\l::AverageScatteringAngle">
<polygon fill="none" stroke="#000000" points="1754,-282.5 1754,-314.5 1921,-314.5 1921,-282.5 1754,-282.5"/>
<text text-anchor="start" x="1762" y="-301.5" font-family="FreeSans" font-size="10.00" fill="#000000">G4EnergyLossForExtrapolator</text>
<text text-anchor="middle" x="1837.5" y="-289.5" font-family="FreeSans" font-size="10.00" fill="#000000">::AverageScatteringAngle</text>
</a>
</g>
</g>
<!-- Node15&#45;&gt;Node16 -->
<g id="edge17" class="edge">
<title>Node15&#45;&gt;Node16</title>
<path fill="none" stroke="#191970" d="M1708.4366,-266.0752C1729.7654,-271.4337 1752.8512,-277.2336 1773.521,-282.4264"/>
<polygon fill="#191970" stroke="#191970" points="1709.0033,-262.6089 1698.4518,-263.5667 1707.2976,-269.3979 1709.0033,-262.6089"/>
</g>
<!-- Node17 -->
<g id="node17" class="node">
<title>Node17</title>
<g id="a_node17"><a xlink:href="../../da/de2/classG4EnergyLossForExtrapolator.html#acd6e6295b395b59336c36ac92419c00f" target="_top" xlink:title="G4EnergyLossForExtrapolator\l::ComputeTrueStep">
<polygon fill="none" stroke="#000000" points="1754,-231.5 1754,-263.5 1921,-263.5 1921,-231.5 1754,-231.5"/>
<text text-anchor="start" x="1762" y="-250.5" font-family="FreeSans" font-size="10.00" fill="#000000">G4EnergyLossForExtrapolator</text>
<text text-anchor="middle" x="1837.5" y="-238.5" font-family="FreeSans" font-size="10.00" fill="#000000">::ComputeTrueStep</text>
</a>
</g>
</g>
<!-- Node15&#45;&gt;Node17 -->
<g id="edge18" class="edge">
<title>Node15&#45;&gt;Node17</title>
<path fill="none" stroke="#191970" d="M1728.2558,-247.5C1736.8295,-247.5 1745.4773,-247.5 1753.9526,-247.5"/>
<polygon fill="#191970" stroke="#191970" points="1728.2399,-244.0001 1718.2399,-247.5 1728.2398,-251.0001 1728.2399,-244.0001"/>
</g>
<!-- Node17&#45;&gt;Node18 -->
<g id="edge19" class="edge">
<title>Node17&#45;&gt;Node18</title>
<path fill="none" stroke="#191970" d="M1931.2558,-256.2752C1939.8295,-257.0776 1948.4773,-257.887 1956.9526,-258.6803"/>
<polygon fill="#191970" stroke="#191970" points="1931.5226,-252.7849 1921.2399,-255.3377 1930.8702,-259.7545 1931.5226,-252.7849"/>
</g>
<!-- Node17&#45;&gt;Node20 -->
<g id="edge21" class="edge">
<title>Node17&#45;&gt;Node20</title>
<path fill="none" stroke="#191970" d="M1883.2366,-227.2227C1919.7979,-211.0132 1970.357,-188.5979 2004.1802,-173.6024"/>
<polygon fill="#191970" stroke="#191970" points="1881.5156,-224.1571 1873.7923,-231.4098 1884.3527,-230.5564 1881.5156,-224.1571"/>
</g>
<!-- Node19 -->
<g id="node19" class="node">
<title>Node19</title>
<g id="a_node19"><a xlink:href="../../da/de2/classG4EnergyLossForExtrapolator.html#ae3e9f7e6d77d6e168ececda93f01b9b8" target="_top" xlink:title="G4EnergyLossForExtrapolator\l::EnergyDispersion">
<polygon fill="none" stroke="#000000" points="2160,-250.5 2160,-282.5 2327,-282.5 2327,-250.5 2160,-250.5"/>
<text text-anchor="start" x="2168" y="-269.5" font-family="FreeSans" font-size="10.00" fill="#000000">G4EnergyLossForExtrapolator</text>
<text text-anchor="middle" x="2243.5" y="-257.5" font-family="FreeSans" font-size="10.00" fill="#000000">::EnergyDispersion</text>
</a>
</g>
</g>
<!-- Node18&#45;&gt;Node19 -->
<g id="edge20" class="edge">
<title>Node18&#45;&gt;Node19</title>
<path fill="none" stroke="#191970" d="M2134.2558,-266.5C2142.8295,-266.5 2151.4773,-266.5 2159.9526,-266.5"/>
<polygon fill="#191970" stroke="#191970" points="2134.2399,-263.0001 2124.2399,-266.5 2134.2398,-270.0001 2134.2399,-263.0001"/>
</g>
<!-- Node20&#45;&gt;Node8 -->
<g id="edge22" class="edge">
<title>Node20&#45;&gt;Node8</title>
<path fill="none" stroke="#191970" d="M2065.7795,-180.7791C2082.9515,-197.0966 2105.7666,-219.7882 2124,-241.5 2141.8427,-262.7466 2139.6585,-273.632 2160,-292.5 2174.6179,-306.0591 2193.5007,-317.7415 2209.6108,-326.3966"/>
<polygon fill="#191970" stroke="#191970" points="2068.0028,-178.0651 2058.3235,-173.7568 2063.2035,-183.1609 2068.0028,-178.0651"/>
</g>
<!-- Node20&#45;&gt;Node12 -->
<g id="edge23" class="edge">
<title>Node20&#45;&gt;Node12</title>
<path fill="none" stroke="#191970" d="M2122.7893,-175.7415C2138.7884,-179.2881 2155.4484,-182.9812 2171.1,-186.4507"/>
<polygon fill="#191970" stroke="#191970" points="2123.4484,-172.3027 2112.9279,-173.5555 2121.9334,-179.1368 2123.4484,-172.3027"/>
</g>
<!-- Node21 -->
<g id="node21" class="node">
<title>Node21</title>
<g id="a_node21"><a xlink:href="../../da/d76/classG4EnergySplitter.html#ab21723d5a691168fffee8d7dc66539b9" target="_top" xlink:title="G4EnergySplitter::SplitEnergy\lInVolumes">
<polygon fill="none" stroke="#000000" points="2160,-135.5 2160,-167.5 2327,-167.5 2327,-135.5 2160,-135.5"/>
<text text-anchor="start" x="2168" y="-154.5" font-family="FreeSans" font-size="10.00" fill="#000000">G4EnergySplitter::SplitEnergy</text>
<text text-anchor="middle" x="2243.5" y="-142.5" font-family="FreeSans" font-size="10.00" fill="#000000">InVolumes</text>
</a>
</g>
</g>
<!-- Node20&#45;&gt;Node21 -->
<g id="edge24" class="edge">
<title>Node20&#45;&gt;Node21</title>
<path fill="none" stroke="#191970" d="M2134.2558,-154.7289C2142.8295,-154.4755 2151.4773,-154.2199 2159.9526,-153.9694"/>
<polygon fill="#191970" stroke="#191970" points="2134.1321,-151.2309 2124.2399,-155.0249 2134.3389,-158.2279 2134.1321,-151.2309"/>
</g>
<!-- Node22 -->
<g id="node22" class="node">
<title>Node22</title>
<g id="a_node22"><a xlink:href="../../dd/d79/classG4ScoreSplittingProcess.html#a360c639b35f911e9708a32b88a8e4aee" target="_top" xlink:title="G4ScoreSplittingProcess\l::PostStepDoIt">
<polygon fill="none" stroke="#000000" points="2377,-135.5 2377,-167.5 2516,-167.5 2516,-135.5 2377,-135.5"/>
<text text-anchor="start" x="2385" y="-154.5" font-family="FreeSans" font-size="10.00" fill="#000000">G4ScoreSplittingProcess</text>
<text text-anchor="middle" x="2446.5" y="-142.5" font-family="FreeSans" font-size="10.00" fill="#000000">::PostStepDoIt</text>
</a>
</g>
</g>
<!-- Node21&#45;&gt;Node22 -->
<g id="edge25" class="edge">
<title>Node21&#45;&gt;Node22</title>
<path fill="none" stroke="#191970" d="M2337.3542,-151.5C2350.6453,-151.5 2364.1122,-151.5 2376.8364,-151.5"/>
<polygon fill="#191970" stroke="#191970" points="2337.2399,-148.0001 2327.2399,-151.5 2337.2398,-155.0001 2337.2399,-148.0001"/>
</g>
</g>
</svg>
