<?xml version="1.0" encoding="UTF-8" standalone="no"?>
<!DOCTYPE svg PUBLIC "-//W3C//DTD SVG 1.1//EN"
 "http://www.w3.org/Graphics/SVG/1.1/DTD/svg11.dtd">
<!-- Generated by graphviz version 2.40.1 (20161225.0304)
 -->
<!-- Title: G4VCascadeCollider Pages: 1 -->
<svg width="711pt" height="302pt"
 viewBox="0.00 0.00 711.00 302.00" xmlns="http://www.w3.org/2000/svg" xmlns:xlink="http://www.w3.org/1999/xlink">
<g id="graph0" class="graph" transform="scale(1 1) rotate(0) translate(4 298)">
<title>G4VCascadeCollider</title>
<!-- Node1 -->
<g id="node1" class="node">
<title>Node1</title>
<polygon fill="#bfbfbf" stroke="#000000" points="0,-175.5 0,-195.5 120,-195.5 120,-175.5 0,-175.5"/>
<text text-anchor="middle" x="60" y="-182.5" font-family="FreeSans" font-size="10.00" fill="#000000">G4VCascadeCollider</text>
</g>
<!-- Node2 -->
<g id="node2" class="node">
<title>Node2</title>
<g id="a_node2"><a xlink:href="../../d8/dfe/classG4CascadeCheckBalance.html" target="_top" xlink:title="G4CascadeCheckBalance">
<polygon fill="none" stroke="#000000" points="156,-234.5 156,-254.5 301,-254.5 301,-234.5 156,-234.5"/>
<text text-anchor="middle" x="228.5" y="-241.5" font-family="FreeSans" font-size="10.00" fill="#000000">G4CascadeCheckBalance</text>
</a>
</g>
</g>
<!-- Node1&#45;&gt;Node2 -->
<g id="edge1" class="edge">
<title>Node1&#45;&gt;Node2</title>
<path fill="none" stroke="#191970" d="M90.955,-199.6824C109.5635,-207.8835 133.8569,-218.0254 156,-225.5 165.6162,-228.746 176.103,-231.7778 186.0372,-234.4247"/>
<polygon fill="#191970" stroke="#191970" points="92.3424,-196.4689 81.7837,-195.595 89.4929,-202.8627 92.3424,-196.4689"/>
</g>
<!-- Node3 -->
<g id="node3" class="node">
<title>Node3</title>
<g id="a_node3"><a xlink:href="../../d5/d69/classG4CascadeColliderBase.html" target="_top" xlink:title="G4CascadeColliderBase">
<polygon fill="none" stroke="#000000" points="160,-195.5 160,-215.5 297,-215.5 297,-195.5 160,-195.5"/>
<text text-anchor="middle" x="228.5" y="-202.5" font-family="FreeSans" font-size="10.00" fill="#000000">G4CascadeColliderBase</text>
</a>
</g>
</g>
<!-- Node1&#45;&gt;Node3 -->
<g id="edge2" class="edge">
<title>Node1&#45;&gt;Node3</title>
<path fill="none" stroke="#191970" d="M130.4277,-193.8594C140.2026,-195.0196 150.2327,-196.2101 159.9722,-197.3661"/>
<polygon fill="#191970" stroke="#191970" points="130.6993,-190.3671 120.3564,-192.664 129.8742,-197.3183 130.6993,-190.3671"/>
</g>
<!-- Node8 -->
<g id="node8" class="node">
<title>Node8</title>
<g id="a_node8"><a xlink:href="../../d6/dad/classG4CascadeRecoilMaker.html" target="_top" xlink:title="G4CascadeRecoilMaker">
<polygon fill="none" stroke="#000000" points="161,-156.5 161,-176.5 296,-176.5 296,-156.5 161,-156.5"/>
<text text-anchor="middle" x="228.5" y="-163.5" font-family="FreeSans" font-size="10.00" fill="#000000">G4CascadeRecoilMaker</text>
</a>
</g>
</g>
<!-- Node1&#45;&gt;Node8 -->
<g id="edge7" class="edge">
<title>Node1&#45;&gt;Node8</title>
<path fill="none" stroke="#191970" d="M130.3369,-177.5688C140.4309,-176.4306 150.799,-175.2615 160.8398,-174.1293"/>
<polygon fill="#191970" stroke="#191970" points="129.9013,-174.0957 120.3564,-178.6942 130.6857,-181.0516 129.9013,-174.0957"/>
</g>
<!-- Node9 -->
<g id="node9" class="node">
<title>Node9</title>
<g id="a_node9"><a xlink:href="../../da/d54/classG4VCascadeDeexcitation.html" target="_top" xlink:title="G4VCascadeDeexcitation">
<polygon fill="none" stroke="#000000" points="156.5,-117.5 156.5,-137.5 300.5,-137.5 300.5,-117.5 156.5,-117.5"/>
<text text-anchor="middle" x="228.5" y="-124.5" font-family="FreeSans" font-size="10.00" fill="#000000">G4VCascadeDeexcitation</text>
</a>
</g>
</g>
<!-- Node1&#45;&gt;Node9 -->
<g id="edge8" class="edge">
<title>Node1&#45;&gt;Node9</title>
<path fill="none" stroke="#191970" d="M92.7965,-171.5021C111.1971,-163.9063 134.6758,-154.6386 156,-147.5 166.6482,-143.9354 178.324,-140.5086 189.1354,-137.5295"/>
<polygon fill="#191970" stroke="#191970" points="91.2941,-168.3364 83.4095,-175.4135 93.9865,-174.7979 91.2941,-168.3364"/>
</g>
<!-- Node4 -->
<g id="node4" class="node">
<title>Node4</title>
<g id="a_node4"><a xlink:href="../../d4/ded/classG4ElementaryParticleCollider.html" target="_top" xlink:title="G4ElementaryParticleCollider">
<polygon fill="none" stroke="#000000" points="337,-273.5 337,-293.5 502,-293.5 502,-273.5 337,-273.5"/>
<text text-anchor="middle" x="419.5" y="-280.5" font-family="FreeSans" font-size="10.00" fill="#000000">G4ElementaryParticleCollider</text>
</a>
</g>
</g>
<!-- Node3&#45;&gt;Node4 -->
<g id="edge3" class="edge">
<title>Node3&#45;&gt;Node4</title>
<path fill="none" stroke="#191970" d="M288.6959,-219.2138C292.9818,-221.0579 297.1324,-223.1432 301,-225.5 321.1438,-237.7748 316.5981,-252.6592 337,-264.5 343.2289,-268.1151 350.0958,-271.0424 357.1282,-273.4127"/>
<polygon fill="#191970" stroke="#191970" points="289.7447,-215.8674 279.1546,-215.5502 287.2354,-222.4023 289.7447,-215.8674"/>
</g>
<!-- Node5 -->
<g id="node5" class="node">
<title>Node5</title>
<g id="a_node5"><a xlink:href="../../d0/d60/classG4IntraNucleiCascader.html" target="_top" xlink:title="G4IntraNucleiCascader">
<polygon fill="none" stroke="#000000" points="353,-234.5 353,-254.5 486,-254.5 486,-234.5 353,-234.5"/>
<text text-anchor="middle" x="419.5" y="-241.5" font-family="FreeSans" font-size="10.00" fill="#000000">G4IntraNucleiCascader</text>
</a>
</g>
</g>
<!-- Node3&#45;&gt;Node5 -->
<g id="edge4" class="edge">
<title>Node3&#45;&gt;Node5</title>
<path fill="none" stroke="#191970" d="M287.6373,-217.5751C314.2185,-223.0027 345.218,-229.3325 370.4794,-234.4906"/>
<polygon fill="#191970" stroke="#191970" points="288.1853,-214.1149 277.6872,-215.5435 286.7848,-220.9734 288.1853,-214.1149"/>
</g>
<!-- Node6 -->
<g id="node6" class="node">
<title>Node6</title>
<g id="a_node6"><a xlink:href="../../d4/d24/classG4InuclCollider.html" target="_top" xlink:title="G4InuclCollider">
<polygon fill="none" stroke="#000000" points="372.5,-195.5 372.5,-215.5 466.5,-215.5 466.5,-195.5 372.5,-195.5"/>
<text text-anchor="middle" x="419.5" y="-202.5" font-family="FreeSans" font-size="10.00" fill="#000000">G4InuclCollider</text>
</a>
</g>
</g>
<!-- Node3&#45;&gt;Node6 -->
<g id="edge5" class="edge">
<title>Node3&#45;&gt;Node6</title>
<path fill="none" stroke="#191970" d="M307.2368,-205.5C329.341,-205.5 352.6821,-205.5 372.3215,-205.5"/>
<polygon fill="#191970" stroke="#191970" points="307.1856,-202.0001 297.1855,-205.5 307.1855,-209.0001 307.1856,-202.0001"/>
</g>
<!-- Node7 -->
<g id="node7" class="node">
<title>Node7</title>
<g id="a_node7"><a xlink:href="../../da/d7b/classG4LightTargetCollider.html" target="_top" xlink:title="G4LightTargetCollider">
<polygon fill="none" stroke="#000000" points="356.5,-156.5 356.5,-176.5 482.5,-176.5 482.5,-156.5 356.5,-156.5"/>
<text text-anchor="middle" x="419.5" y="-163.5" font-family="FreeSans" font-size="10.00" fill="#000000">G4LightTargetCollider</text>
</a>
</g>
</g>
<!-- Node3&#45;&gt;Node7 -->
<g id="edge6" class="edge">
<title>Node3&#45;&gt;Node7</title>
<path fill="none" stroke="#191970" d="M287.6373,-193.4249C314.2185,-187.9973 345.218,-181.6675 370.4794,-176.5094"/>
<polygon fill="#191970" stroke="#191970" points="286.7848,-190.0266 277.6872,-195.4565 288.1853,-196.8851 286.7848,-190.0266"/>
</g>
<!-- Node10 -->
<g id="node10" class="node">
<title>Node10</title>
<g id="a_node10"><a xlink:href="../../dd/d8c/classG4CascadeDeexciteBase.html" target="_top" xlink:title="G4CascadeDeexciteBase">
<polygon fill="none" stroke="#000000" points="348.5,-117.5 348.5,-137.5 490.5,-137.5 490.5,-117.5 348.5,-117.5"/>
<text text-anchor="middle" x="419.5" y="-124.5" font-family="FreeSans" font-size="10.00" fill="#000000">G4CascadeDeexciteBase</text>
</a>
</g>
</g>
<!-- Node9&#45;&gt;Node10 -->
<g id="edge9" class="edge">
<title>Node9&#45;&gt;Node10</title>
<path fill="none" stroke="#191970" d="M311.0775,-127.5C323.5273,-127.5 336.2757,-127.5 348.455,-127.5"/>
<polygon fill="#191970" stroke="#191970" points="310.7089,-124.0001 300.7089,-127.5 310.7089,-131.0001 310.7089,-124.0001"/>
</g>
<!-- Node11 -->
<g id="node11" class="node">
<title>Node11</title>
<g id="a_node11"><a xlink:href="../../dc/d04/classG4BigBanger.html" target="_top" xlink:title="G4BigBanger">
<polygon fill="none" stroke="#000000" points="578.5,-234.5 578.5,-254.5 662.5,-254.5 662.5,-234.5 578.5,-234.5"/>
<text text-anchor="middle" x="620.5" y="-241.5" font-family="FreeSans" font-size="10.00" fill="#000000">G4BigBanger</text>
</a>
</g>
</g>
<!-- Node10&#45;&gt;Node11 -->
<g id="edge10" class="edge">
<title>Node10&#45;&gt;Node11</title>
<path fill="none" stroke="#191970" d="M494.7037,-142.344C497.2607,-143.9 499.7054,-145.6134 502,-147.5 531.4927,-171.7479 508.3686,-201.4218 538,-225.5 549.2926,-234.6763 564.1891,-239.5968 578.2132,-242.1807"/>
<polygon fill="#191970" stroke="#191970" points="496.121,-139.1364 485.6326,-137.6382 492.8975,-145.35 496.121,-139.1364"/>
</g>
<!-- Node12 -->
<g id="node12" class="node">
<title>Node12</title>
<g id="a_node12"><a xlink:href="../../db/d19/classG4CascadeDeexcitation.html" target="_top" xlink:title="G4CascadeDeexcitation">
<polygon fill="none" stroke="#000000" points="552,-195.5 552,-215.5 689,-215.5 689,-195.5 552,-195.5"/>
<text text-anchor="middle" x="620.5" y="-202.5" font-family="FreeSans" font-size="10.00" fill="#000000">G4CascadeDeexcitation</text>
</a>
</g>
</g>
<!-- Node10&#45;&gt;Node12 -->
<g id="edge11" class="edge">
<title>Node10&#45;&gt;Node12</title>
<path fill="none" stroke="#191970" d="M488.842,-141.0358C493.4187,-142.9176 497.8514,-145.0603 502,-147.5 522.3336,-159.4577 517.5981,-174.6592 538,-186.5 544.2289,-190.1151 551.0958,-193.0424 558.1282,-195.4127"/>
<polygon fill="#191970" stroke="#191970" points="489.8837,-137.6898 479.2901,-137.528 487.4706,-144.2608 489.8837,-137.6898"/>
</g>
<!-- Node13 -->
<g id="node13" class="node">
<title>Node13</title>
<g id="a_node13"><a xlink:href="../../d2/d58/classG4EquilibriumEvaporator.html" target="_top" xlink:title="G4EquilibriumEvaporator">
<polygon fill="none" stroke="#000000" points="548,-156.5 548,-176.5 693,-176.5 693,-156.5 548,-156.5"/>
<text text-anchor="middle" x="620.5" y="-163.5" font-family="FreeSans" font-size="10.00" fill="#000000">G4EquilibriumEvaporator</text>
</a>
</g>
</g>
<!-- Node10&#45;&gt;Node13 -->
<g id="edge12" class="edge">
<title>Node10&#45;&gt;Node13</title>
<path fill="none" stroke="#191970" d="M481.364,-139.5035C509.4189,-144.9469 542.2118,-151.3098 568.9129,-156.4906"/>
<polygon fill="#191970" stroke="#191970" points="481.7461,-136.0124 471.2625,-137.5435 480.4127,-142.8842 481.7461,-136.0124"/>
</g>
<!-- Node14 -->
<g id="node14" class="node">
<title>Node14</title>
<g id="a_node14"><a xlink:href="../../db/dc4/classG4EvaporationInuclCollider.html" target="_top" xlink:title="G4EvaporationInuclCollider">
<polygon fill="none" stroke="#000000" points="543,-117.5 543,-137.5 698,-137.5 698,-117.5 543,-117.5"/>
<text text-anchor="middle" x="620.5" y="-124.5" font-family="FreeSans" font-size="10.00" fill="#000000">G4EvaporationInuclCollider</text>
</a>
</g>
</g>
<!-- Node10&#45;&gt;Node14 -->
<g id="edge13" class="edge">
<title>Node10&#45;&gt;Node14</title>
<path fill="none" stroke="#191970" d="M500.6971,-127.5C514.6452,-127.5 529.1087,-127.5 542.9578,-127.5"/>
<polygon fill="#191970" stroke="#191970" points="500.648,-124.0001 490.6479,-127.5 500.6479,-131.0001 500.648,-124.0001"/>
</g>
<!-- Node15 -->
<g id="node15" class="node">
<title>Node15</title>
<g id="a_node15"><a xlink:href="../../d1/d7a/classG4Fissioner.html" target="_top" xlink:title="G4Fissioner">
<polygon fill="none" stroke="#000000" points="583,-78.5 583,-98.5 658,-98.5 658,-78.5 583,-78.5"/>
<text text-anchor="middle" x="620.5" y="-85.5" font-family="FreeSans" font-size="10.00" fill="#000000">G4Fissioner</text>
</a>
</g>
</g>
<!-- Node10&#45;&gt;Node15 -->
<g id="edge14" class="edge">
<title>Node10&#45;&gt;Node15</title>
<path fill="none" stroke="#191970" d="M481.3297,-115.5032C514.5193,-109.0634 554.3482,-101.3354 582.8777,-95.7999"/>
<polygon fill="#191970" stroke="#191970" points="480.4127,-112.1158 471.2625,-117.4565 481.7461,-118.9876 480.4127,-112.1158"/>
</g>
<!-- Node16 -->
<g id="node16" class="node">
<title>Node16</title>
<g id="a_node16"><a xlink:href="../../d8/d2c/classG4NonEquilibriumEvaporator.html" target="_top" xlink:title="G4NonEquilibriumEvaporator">
<polygon fill="none" stroke="#000000" points="538,-39.5 538,-59.5 703,-59.5 703,-39.5 538,-39.5"/>
<text text-anchor="middle" x="620.5" y="-46.5" font-family="FreeSans" font-size="10.00" fill="#000000">G4NonEquilibriumEvaporator</text>
</a>
</g>
</g>
<!-- Node10&#45;&gt;Node16 -->
<g id="edge15" class="edge">
<title>Node10&#45;&gt;Node16</title>
<path fill="none" stroke="#191970" d="M446.0443,-112.4277C469.5939,-99.5663 505.2427,-81.3277 538,-69.5 548.6736,-65.646 560.3901,-62.3011 571.5565,-59.5076"/>
<polygon fill="#191970" stroke="#191970" points="444.0968,-109.5051 437.0388,-117.4067 447.4838,-115.6312 444.0968,-109.5051"/>
</g>
<!-- Node17 -->
<g id="node17" class="node">
<title>Node17</title>
<g id="a_node17"><a xlink:href="../../da/d8a/classG4PreCompoundDeexcitation.html" target="_top" xlink:title="G4PreCompoundDeexcitation">
<polygon fill="none" stroke="#000000" points="538,-.5 538,-20.5 703,-20.5 703,-.5 538,-.5"/>
<text text-anchor="middle" x="620.5" y="-7.5" font-family="FreeSans" font-size="10.00" fill="#000000">G4PreCompoundDeexcitation</text>
</a>
</g>
</g>
<!-- Node10&#45;&gt;Node17 -->
<g id="edge16" class="edge">
<title>Node10&#45;&gt;Node17</title>
<path fill="none" stroke="#191970" d="M435.8887,-109.9032C457.2844,-87.9955 496.8773,-50.9715 538,-30.5 546.1799,-26.4279 555.2367,-23.1552 564.2658,-20.5334"/>
<polygon fill="#191970" stroke="#191970" points="433.2559,-107.5919 428.8603,-117.2319 438.3081,-112.4371 433.2559,-107.5919"/>
</g>
</g>
</svg>
