<?xml version="1.0" encoding="UTF-8" standalone="no"?>
<!DOCTYPE svg PUBLIC "-//W3C//DTD SVG 1.1//EN"
 "http://www.w3.org/Graphics/SVG/1.1/DTD/svg11.dtd">
<!-- Generated by graphviz version 2.40.1 (20161225.0304)
 -->
<!-- Title: G4VTwistedFaceted Pages: 1 -->
<svg width="305pt" height="143pt"
 viewBox="0.00 0.00 305.00 143.00" xmlns="http://www.w3.org/2000/svg" xmlns:xlink="http://www.w3.org/1999/xlink">
<g id="graph0" class="graph" transform="scale(1 1) rotate(0) translate(4 139)">
<title>G4VTwistedFaceted</title>
<!-- Node1 -->
<g id="node1" class="node">
<title>Node1</title>
<polygon fill="#bfbfbf" stroke="#000000" points="93.5,-57.5 93.5,-77.5 207.5,-77.5 207.5,-57.5 93.5,-57.5"/>
<text text-anchor="middle" x="150.5" y="-64.5" font-family="FreeSans" font-size="10.00" fill="#000000">G4VTwistedFaceted</text>
</g>
<!-- Node3 -->
<g id="node3" class="node">
<title>Node3</title>
<g id="a_node3"><a xlink:href="../../d3/d7d/classG4TwistedBox.html" target="_top" xlink:title="G4TwistedBox">
<polygon fill="none" stroke="#000000" points="0,-.5 0,-20.5 87,-20.5 87,-.5 0,-.5"/>
<text text-anchor="middle" x="43.5" y="-7.5" font-family="FreeSans" font-size="10.00" fill="#000000">G4TwistedBox</text>
</a>
</g>
</g>
<!-- Node1&#45;&gt;Node3 -->
<g id="edge2" class="edge">
<title>Node1&#45;&gt;Node3</title>
<path fill="none" stroke="#191970" d="M122.3292,-52.4931C103.4398,-42.4305 79.0737,-29.4505 62.4638,-20.6022"/>
<polygon fill="#191970" stroke="#191970" points="120.8991,-55.6969 131.3705,-57.3095 124.1903,-49.5189 120.8991,-55.6969"/>
</g>
<!-- Node4 -->
<g id="node4" class="node">
<title>Node4</title>
<g id="a_node4"><a xlink:href="../../d3/da8/classG4TwistedTrap.html" target="_top" xlink:title="G4TwistedTrap">
<polygon fill="none" stroke="#000000" points="105.5,-.5 105.5,-20.5 195.5,-20.5 195.5,-.5 105.5,-.5"/>
<text text-anchor="middle" x="150.5" y="-7.5" font-family="FreeSans" font-size="10.00" fill="#000000">G4TwistedTrap</text>
</a>
</g>
</g>
<!-- Node1&#45;&gt;Node4 -->
<g id="edge3" class="edge">
<title>Node1&#45;&gt;Node4</title>
<path fill="none" stroke="#191970" d="M150.5,-47.1771C150.5,-38.1625 150.5,-27.9556 150.5,-20.6022"/>
<polygon fill="#191970" stroke="#191970" points="147.0001,-47.3095 150.5,-57.3095 154.0001,-47.3096 147.0001,-47.3095"/>
</g>
<!-- Node5 -->
<g id="node5" class="node">
<title>Node5</title>
<g id="a_node5"><a xlink:href="../../d4/d58/classG4TwistedTrd.html" target="_top" xlink:title="G4TwistedTrd">
<polygon fill="none" stroke="#000000" points="214,-.5 214,-20.5 297,-20.5 297,-.5 214,-.5"/>
<text text-anchor="middle" x="255.5" y="-7.5" font-family="FreeSans" font-size="10.00" fill="#000000">G4TwistedTrd</text>
</a>
</g>
</g>
<!-- Node1&#45;&gt;Node5 -->
<g id="edge4" class="edge">
<title>Node1&#45;&gt;Node5</title>
<path fill="none" stroke="#191970" d="M178.1442,-52.4931C196.6806,-42.4305 220.5913,-29.4505 236.8906,-20.6022"/>
<polygon fill="#191970" stroke="#191970" points="176.3906,-49.4626 169.2719,-57.3095 179.7303,-55.6146 176.3906,-49.4626"/>
</g>
<!-- Node2 -->
<g id="node2" class="node">
<title>Node2</title>
<g id="a_node2"><a xlink:href="../../da/d34/classG4VSolid.html" target="_top" xlink:title="G4VSolid">
<polygon fill="none" stroke="#000000" points="119.5,-114.5 119.5,-134.5 181.5,-134.5 181.5,-114.5 119.5,-114.5"/>
<text text-anchor="middle" x="150.5" y="-121.5" font-family="FreeSans" font-size="10.00" fill="#000000">G4VSolid</text>
</a>
</g>
</g>
<!-- Node2&#45;&gt;Node1 -->
<g id="edge1" class="edge">
<title>Node2&#45;&gt;Node1</title>
<path fill="none" stroke="#191970" d="M150.5,-104.1771C150.5,-95.1625 150.5,-84.9556 150.5,-77.6022"/>
<polygon fill="#191970" stroke="#191970" points="147.0001,-104.3095 150.5,-114.3095 154.0001,-104.3096 147.0001,-104.3095"/>
</g>
</g>
</svg>
