<?xml version="1.0" encoding="UTF-8" standalone="no"?>
<!DOCTYPE svg PUBLIC "-//W3C//DTD SVG 1.1//EN"
 "http://www.w3.org/Graphics/SVG/1.1/DTD/svg11.dtd">
<!-- Generated by graphviz version 2.40.1 (20161225.0304)
 -->
<!-- Title: geant4/tree/geant4&#45;10.6&#45;release/examples/extended/medical/DICOM/dicomReader/src/DicomFileMgr.cc Pages: 1 -->
<svg width="1377pt" height="692pt"
 viewBox="0.00 0.00 1377.00 692.00" xmlns="http://www.w3.org/2000/svg" xmlns:xlink="http://www.w3.org/1999/xlink">
<g id="graph0" class="graph" transform="scale(1 1) rotate(0) translate(4 688)">
<title>geant4/tree/geant4&#45;10.6&#45;release/examples/extended/medical/DICOM/dicomReader/src/DicomFileMgr.cc</title>
<!-- Node1 -->
<g id="node1" class="node">
<title>Node1</title>
<polygon fill="#bfbfbf" stroke="#000000" points="621,-627.5 621,-683.5 811,-683.5 811,-627.5 621,-627.5"/>
<text text-anchor="start" x="629" y="-670.5" font-family="FreeSans" font-size="10.00" fill="#000000">geant4/tree/geant4</text>
<text text-anchor="start" x="629" y="-658.5" font-family="FreeSans" font-size="10.00" fill="#000000">&#45;10.6&#45;release/examples</text>
<text text-anchor="start" x="629" y="-646.5" font-family="FreeSans" font-size="10.00" fill="#000000">/extended/medical/DICOM</text>
<text text-anchor="middle" x="716" y="-634.5" font-family="FreeSans" font-size="10.00" fill="#000000">/dicomReader/src/DicomFileMgr.cc</text>
</g>
<!-- Node2 -->
<g id="node2" class="node">
<title>Node2</title>
<g id="a_node2"><a xlink:href="../../d6/d42/DicomFileMgr_8hh.html" target="_top" xlink:title="DicomFileMgr.hh">
<polygon fill="none" stroke="#000000" points="521.5,-456.5 521.5,-476.5 620.5,-476.5 620.5,-456.5 521.5,-456.5"/>
<text text-anchor="middle" x="571" y="-463.5" font-family="FreeSans" font-size="10.00" fill="#000000">DicomFileMgr.hh</text>
</a>
</g>
</g>
<!-- Node1&#45;&gt;Node2 -->
<g id="edge1" class="edge">
<title>Node1&#45;&gt;Node2</title>
<path fill="none" stroke="#191970" d="M620.9761,-651.5134C527.5647,-645.3632 394.4151,-629.8549 362,-591 356.021,-583.8332 357.078,-577.93 362,-570 394.3623,-517.8606 461.6593,-491.1807 511.1837,-478.0896"/>
<polygon fill="#191970" stroke="#191970" points="512.3102,-481.4151 521.1492,-475.5735 510.5966,-474.6281 512.3102,-481.4151"/>
</g>
<!-- Node30 -->
<g id="node30" class="node">
<title>Node30</title>
<g id="a_node30"><a xlink:href="../../df/d2c/DicomFileCT_8hh.html" target="_top" xlink:title="DicomFileCT.hh">
<polygon fill="none" stroke="#000000" points="632.5,-570.5 632.5,-590.5 725.5,-590.5 725.5,-570.5 632.5,-570.5"/>
<text text-anchor="middle" x="679" y="-577.5" font-family="FreeSans" font-size="10.00" fill="#000000">DicomFileCT.hh</text>
</a>
</g>
</g>
<!-- Node1&#45;&gt;Node30 -->
<g id="edge43" class="edge">
<title>Node1&#45;&gt;Node30</title>
<path fill="none" stroke="#191970" d="M702.0119,-627.1457C697.5308,-618.0625 692.6737,-608.2169 688.5817,-599.9223"/>
<polygon fill="#191970" stroke="#191970" points="691.6097,-598.1491 684.0466,-590.7296 685.3321,-601.2461 691.6097,-598.1491"/>
</g>
<!-- Node37 -->
<g id="node37" class="node">
<title>Node37</title>
<g id="a_node37"><a xlink:href="../../d7/d5b/DicomFilePET_8hh.html" target="_top" xlink:title="DicomFilePET.hh">
<polygon fill="none" stroke="#000000" points="517,-570.5 517,-590.5 615,-590.5 615,-570.5 517,-570.5"/>
<text text-anchor="middle" x="566" y="-577.5" font-family="FreeSans" font-size="10.00" fill="#000000">DicomFilePET.hh</text>
</a>
</g>
</g>
<!-- Node1&#45;&gt;Node37 -->
<g id="edge56" class="edge">
<title>Node1&#45;&gt;Node37</title>
<path fill="none" stroke="#191970" d="M659.7188,-627.3594C637.7735,-616.3867 613.5439,-604.272 595.2195,-595.1098"/>
<polygon fill="#191970" stroke="#191970" points="596.7283,-591.951 586.2187,-590.6094 593.5977,-598.212 596.7283,-591.951"/>
</g>
<!-- Node38 -->
<g id="node38" class="node">
<title>Node38</title>
<g id="a_node38"><a xlink:href="../../db/da0/DicomFileStructure_8hh.html" target="_top" xlink:title="DicomFileStructure.hh">
<polygon fill="none" stroke="#000000" points="371,-570.5 371,-590.5 499,-590.5 499,-570.5 371,-570.5"/>
<text text-anchor="middle" x="435" y="-577.5" font-family="FreeSans" font-size="10.00" fill="#000000">DicomFileStructure.hh</text>
</a>
</g>
</g>
<!-- Node1&#45;&gt;Node38 -->
<g id="edge58" class="edge">
<title>Node1&#45;&gt;Node38</title>
<path fill="none" stroke="#191970" d="M620.8662,-630.1084C574.2417,-617.6642 520.1506,-603.227 482.3853,-593.1473"/>
<polygon fill="#191970" stroke="#191970" points="483.2334,-589.7512 472.669,-590.554 481.4282,-596.5145 483.2334,-589.7512"/>
</g>
<!-- Node41 -->
<g id="node41" class="node">
<title>Node41</title>
<g id="a_node41"><a xlink:href="../../dc/d64/DicomFilePlan_8hh.html" target="_top" xlink:title="DicomFilePlan.hh">
<polygon fill="none" stroke="#000000" points="698.5,-513.5 698.5,-533.5 801.5,-533.5 801.5,-513.5 698.5,-513.5"/>
<text text-anchor="middle" x="750" y="-520.5" font-family="FreeSans" font-size="10.00" fill="#000000">DicomFilePlan.hh</text>
</a>
</g>
</g>
<!-- Node1&#45;&gt;Node41 -->
<g id="edge69" class="edge">
<title>Node1&#45;&gt;Node41</title>
<path fill="none" stroke="#191970" d="M724.1272,-627.3078C727.3069,-616.0421 730.922,-602.9327 734,-591 738.0891,-575.1473 742.347,-557.0976 745.4415,-543.654"/>
<polygon fill="#191970" stroke="#191970" points="748.9245,-544.1223 747.7379,-533.5942 742.1001,-542.5644 748.9245,-544.1223"/>
</g>
<!-- Node42 -->
<g id="node42" class="node">
<title>Node42</title>
<polygon fill="none" stroke="#bfbfbf" points="782.5,-570.5 782.5,-590.5 935.5,-590.5 935.5,-570.5 782.5,-570.5"/>
<text text-anchor="middle" x="859" y="-577.5" font-family="FreeSans" font-size="10.00" fill="#000000">dcmtk/dcmdata/dcdeftag.h</text>
</g>
<!-- Node1&#45;&gt;Node42 -->
<g id="edge71" class="edge">
<title>Node1&#45;&gt;Node42</title>
<path fill="none" stroke="#191970" d="M769.6548,-627.3594C790.384,-616.4874 813.2511,-604.4942 830.6618,-595.3627"/>
<polygon fill="#191970" stroke="#191970" points="832.4946,-598.3537 839.7248,-590.6094 829.2433,-592.1545 832.4946,-598.3537"/>
</g>
<!-- Node43 -->
<g id="node43" class="node">
<title>Node43</title>
<g id="a_node43"><a xlink:href="../../d8/d76/G4tgrFileIn_8hh.html" target="_top" xlink:title="G4tgrFileIn.hh">
<polygon fill="none" stroke="#000000" points="832.5,-456.5 832.5,-476.5 919.5,-476.5 919.5,-456.5 832.5,-456.5"/>
<text text-anchor="middle" x="876" y="-463.5" font-family="FreeSans" font-size="10.00" fill="#000000">G4tgrFileIn.hh</text>
</a>
</g>
</g>
<!-- Node1&#45;&gt;Node43 -->
<g id="edge72" class="edge">
<title>Node1&#45;&gt;Node43</title>
<path fill="none" stroke="#191970" d="M811.0725,-640.5474C866.3338,-629.6999 928.2937,-613.0619 945,-591 971.8848,-555.4967 926.726,-508.2832 897.631,-483.4397"/>
<polygon fill="#191970" stroke="#191970" points="899.5051,-480.4476 889.5693,-476.7693 895.0427,-485.8408 899.5051,-480.4476"/>
</g>
<!-- Node44 -->
<g id="node44" class="node">
<title>Node44</title>
<g id="a_node44"><a xlink:href="../../da/d5c/G4UIcommand_8hh.html" target="_top" xlink:title="G4UIcommand.hh">
<polygon fill="none" stroke="#000000" points="989.5,-513.5 989.5,-533.5 1096.5,-533.5 1096.5,-513.5 989.5,-513.5"/>
<text text-anchor="middle" x="1043" y="-520.5" font-family="FreeSans" font-size="10.00" fill="#000000">G4UIcommand.hh</text>
</a>
</g>
</g>
<!-- Node1&#45;&gt;Node44 -->
<g id="edge75" class="edge">
<title>Node1&#45;&gt;Node44</title>
<path fill="none" stroke="#191970" d="M811.1286,-645.1902C863.1028,-636.4299 927.064,-620.3553 978,-591 999.2093,-578.7767 1017.942,-557.603 1029.7821,-542.2232"/>
<polygon fill="#191970" stroke="#191970" points="1032.7741,-544.0647 1035.9236,-533.9488 1027.1531,-539.8927 1032.7741,-544.0647"/>
</g>
<!-- Node3 -->
<g id="node3" class="node">
<title>Node3</title>
<polygon fill="none" stroke="#bfbfbf" points="680.5,-399.5 680.5,-419.5 729.5,-419.5 729.5,-399.5 680.5,-399.5"/>
<text text-anchor="middle" x="705" y="-406.5" font-family="FreeSans" font-size="10.00" fill="#000000">vector</text>
</g>
<!-- Node2&#45;&gt;Node3 -->
<g id="edge2" class="edge">
<title>Node2&#45;&gt;Node3</title>
<path fill="none" stroke="#191970" d="M594.6481,-456.4408C616.0437,-447.3396 647.7758,-433.8416 671.7279,-423.6531"/>
<polygon fill="#191970" stroke="#191970" points="673.3056,-426.7855 681.1376,-419.6504 670.5655,-420.3441 673.3056,-426.7855"/>
</g>
<!-- Node4 -->
<g id="node4" class="node">
<title>Node4</title>
<polygon fill="none" stroke="#bfbfbf" points="421.5,-228.5 421.5,-248.5 460.5,-248.5 460.5,-228.5 421.5,-228.5"/>
<text text-anchor="middle" x="441" y="-235.5" font-family="FreeSans" font-size="10.00" fill="#000000">map</text>
</g>
<!-- Node2&#45;&gt;Node4 -->
<g id="edge3" class="edge">
<title>Node2&#45;&gt;Node4</title>
<path fill="none" stroke="#191970" d="M574.3663,-456.0728C578.1774,-442.4893 583.0045,-418.2093 576,-399 553.2139,-336.5109 494.2061,-281.478 462.2731,-255.0791"/>
<polygon fill="#191970" stroke="#191970" points="464.3787,-252.2805 454.4061,-248.7031 459.9711,-257.7187 464.3787,-252.2805"/>
</g>
<!-- Node5 -->
<g id="node5" class="node">
<title>Node5</title>
<g id="a_node5"><a xlink:href="../../da/d46/globals_8hh.html" target="_top" xlink:title="globals.hh">
<polygon fill="none" stroke="#000000" points="915,-342.5 915,-362.5 983,-362.5 983,-342.5 915,-342.5"/>
<text text-anchor="middle" x="949" y="-349.5" font-family="FreeSans" font-size="10.00" fill="#000000">globals.hh</text>
</a>
</g>
</g>
<!-- Node2&#45;&gt;Node5 -->
<g id="edge4" class="edge">
<title>Node2&#45;&gt;Node5</title>
<path fill="none" stroke="#191970" d="M582.3612,-456.3826C599.9877,-441.2861 635.5939,-413.131 671,-399 749.3482,-367.7303 848.2404,-357.4884 904.48,-354.1338"/>
<polygon fill="#191970" stroke="#191970" points="905.0122,-357.61 914.8053,-353.5673 904.6286,-350.6205 905.0122,-357.61"/>
</g>
<!-- Node29 -->
<g id="node29" class="node">
<title>Node29</title>
<polygon fill="none" stroke="#bfbfbf" points="422.5,-399.5 422.5,-419.5 567.5,-419.5 567.5,-399.5 422.5,-399.5"/>
<text text-anchor="middle" x="495" y="-406.5" font-family="FreeSans" font-size="10.00" fill="#000000">dcmtk/dcmdata/dcfilefo.h</text>
</g>
<!-- Node2&#45;&gt;Node29 -->
<g id="edge42" class="edge">
<title>Node2&#45;&gt;Node29</title>
<path fill="none" stroke="#191970" d="M557.4127,-456.3095C546.065,-447.7987 529.6802,-435.5102 516.5458,-425.6594"/>
<polygon fill="#191970" stroke="#191970" points="518.5697,-422.8023 508.4696,-419.6022 514.3697,-428.4023 518.5697,-422.8023"/>
</g>
<!-- Node6 -->
<g id="node6" class="node">
<title>Node6</title>
<g id="a_node6"><a xlink:href="../../df/de9/G4ios_8hh.html" target="_top" xlink:title="G4ios.hh">
<polygon fill="none" stroke="#000000" points="877.5,-171.5 877.5,-191.5 938.5,-191.5 938.5,-171.5 877.5,-171.5"/>
<text text-anchor="middle" x="908" y="-178.5" font-family="FreeSans" font-size="10.00" fill="#000000">G4ios.hh</text>
</a>
</g>
</g>
<!-- Node5&#45;&gt;Node6 -->
<g id="edge5" class="edge">
<title>Node5&#45;&gt;Node6</title>
<path fill="none" stroke="#191970" d="M946.558,-342.3153C939.9651,-314.8178 921.7086,-238.6748 912.8911,-201.8993"/>
<polygon fill="#191970" stroke="#191970" points="916.2162,-200.7559 910.481,-191.8476 909.4091,-202.388 916.2162,-200.7559"/>
</g>
<!-- Node7 -->
<g id="node7" class="node">
<title>Node7</title>
<g id="a_node7"><a xlink:href="../../de/d29/G4Types_8hh.html" target="_top" xlink:title="G4Types.hh">
<polygon fill="none" stroke="#000000" points="990.5,-114.5 990.5,-134.5 1065.5,-134.5 1065.5,-114.5 990.5,-114.5"/>
<text text-anchor="middle" x="1028" y="-121.5" font-family="FreeSans" font-size="10.00" fill="#000000">G4Types.hh</text>
</a>
</g>
</g>
<!-- Node5&#45;&gt;Node7 -->
<g id="edge13" class="edge">
<title>Node5&#45;&gt;Node7</title>
<path fill="none" stroke="#191970" d="M983.1379,-346.0239C1012.9743,-339.2876 1056.6209,-326.7601 1090,-306 1150.314,-268.4878 1175.1095,-257.7407 1202,-192 1205.5335,-183.3614 1207.6842,-178.4028 1202,-171 1198.0471,-165.852 1126.008,-147.8168 1075.8769,-135.7796"/>
<polygon fill="#191970" stroke="#191970" points="1076.397,-132.3053 1065.8571,-133.3833 1074.7687,-139.1133 1076.397,-132.3053"/>
</g>
<!-- Node12 -->
<g id="node12" class="node">
<title>Node12</title>
<polygon fill="none" stroke="#bfbfbf" points="991.5,-285.5 991.5,-305.5 1056.5,-305.5 1056.5,-285.5 991.5,-285.5"/>
<text text-anchor="middle" x="1024" y="-292.5" font-family="FreeSans" font-size="10.00" fill="#000000">algorithm</text>
</g>
<!-- Node5&#45;&gt;Node12 -->
<g id="edge12" class="edge">
<title>Node5&#45;&gt;Node12</title>
<path fill="none" stroke="#191970" d="M962.4085,-342.3095C973.607,-333.7987 989.7761,-321.5102 1002.7377,-311.6594"/>
<polygon fill="#191970" stroke="#191970" points="1004.8638,-314.4397 1010.7076,-305.6022 1000.6281,-308.8665 1004.8638,-314.4397"/>
</g>
<!-- Node13 -->
<g id="node13" class="node">
<title>Node13</title>
<g id="a_node13"><a xlink:href="../../d2/df2/source_2global_2management_2include_2G4String_8hh.html" target="_top" xlink:title="G4String.hh">
<polygon fill="none" stroke="#000000" points="1117,-171.5 1117,-191.5 1193,-191.5 1193,-171.5 1117,-171.5"/>
<text text-anchor="middle" x="1155" y="-178.5" font-family="FreeSans" font-size="10.00" fill="#000000">G4String.hh</text>
</a>
</g>
</g>
<!-- Node5&#45;&gt;Node13 -->
<g id="edge14" class="edge">
<title>Node5&#45;&gt;Node13</title>
<path fill="none" stroke="#191970" d="M983.1394,-344.5067C1008.0006,-337.4339 1041.4747,-325.201 1066,-306 1103.2868,-276.8079 1131.7939,-227.917 1145.673,-200.9061"/>
<polygon fill="#191970" stroke="#191970" points="1148.9279,-202.2222 1150.2639,-191.7119 1142.6652,-199.0951 1148.9279,-202.2222"/>
</g>
<!-- Node18 -->
<g id="node18" class="node">
<title>Node18</title>
<g id="a_node18"><a xlink:href="../../d2/d54/templates_8hh.html" target="_top" xlink:title="templates.hh">
<polygon fill="none" stroke="#000000" points="1249.5,-285.5 1249.5,-305.5 1332.5,-305.5 1332.5,-285.5 1249.5,-285.5"/>
<text text-anchor="middle" x="1291" y="-292.5" font-family="FreeSans" font-size="10.00" fill="#000000">templates.hh</text>
</a>
</g>
</g>
<!-- Node5&#45;&gt;Node18 -->
<g id="edge21" class="edge">
<title>Node5&#45;&gt;Node18</title>
<path fill="none" stroke="#191970" d="M983.3839,-347.1846C1037.1379,-338.8127 1144.3206,-321.8705 1235,-306 1236.4615,-305.7442 1237.9441,-305.4823 1239.4401,-305.216"/>
<polygon fill="#191970" stroke="#191970" points="1240.2126,-308.6332 1249.4304,-303.4099 1238.9673,-301.7448 1240.2126,-308.6332"/>
</g>
<!-- Node21 -->
<g id="node21" class="node">
<title>Node21</title>
<g id="a_node21"><a xlink:href="../../d5/d4f/G4Exception_8hh.html" target="_top" xlink:title="G4Exception.hh">
<polygon fill="none" stroke="#000000" points="953,-228.5 953,-248.5 1049,-248.5 1049,-228.5 953,-228.5"/>
<text text-anchor="middle" x="1001" y="-235.5" font-family="FreeSans" font-size="10.00" fill="#000000">G4Exception.hh</text>
</a>
</g>
</g>
<!-- Node5&#45;&gt;Node21 -->
<g id="edge24" class="edge">
<title>Node5&#45;&gt;Node21</title>
<path fill="none" stroke="#191970" d="M953.6147,-342.3833C962.2273,-323.5017 980.8851,-282.598 992.0472,-258.1272"/>
<polygon fill="#191970" stroke="#191970" points="995.3552,-259.3087 996.3209,-248.7579 988.9865,-256.4036 995.3552,-259.3087"/>
</g>
<!-- Node24 -->
<g id="node24" class="node">
<title>Node24</title>
<g id="a_node24"><a xlink:href="../../dc/d3a/G4EnvironmentUtils_8hh.html" target="_top" xlink:title="G4EnvironmentUtils.hh">
<polygon fill="none" stroke="#000000" points="718.5,-285.5 718.5,-305.5 851.5,-305.5 851.5,-285.5 718.5,-285.5"/>
<text text-anchor="middle" x="785" y="-292.5" font-family="FreeSans" font-size="10.00" fill="#000000">G4EnvironmentUtils.hh</text>
</a>
</g>
</g>
<!-- Node5&#45;&gt;Node24 -->
<g id="edge30" class="edge">
<title>Node5&#45;&gt;Node24</title>
<path fill="none" stroke="#191970" d="M920.0576,-342.4408C893.2074,-333.1087 853.0564,-319.1537 823.5081,-308.8839"/>
<polygon fill="#191970" stroke="#191970" points="824.5232,-305.5314 813.9284,-305.5544 822.2251,-312.1434 824.5232,-305.5314"/>
</g>
<!-- Node6&#45;&gt;Node7 -->
<g id="edge6" class="edge">
<title>Node6&#45;&gt;Node7</title>
<path fill="none" stroke="#191970" d="M929.1774,-171.4408C948.0822,-162.461 975.9983,-149.2008 997.3424,-139.0624"/>
<polygon fill="#191970" stroke="#191970" points="999.0996,-142.1025 1006.6307,-134.6504 996.0962,-135.7796 999.0996,-142.1025"/>
</g>
<!-- Node11 -->
<g id="node11" class="node">
<title>Node11</title>
<polygon fill="none" stroke="#bfbfbf" points="411,-114.5 411,-134.5 471,-134.5 471,-114.5 411,-114.5"/>
<text text-anchor="middle" x="441" y="-121.5" font-family="FreeSans" font-size="10.00" fill="#000000">iostream</text>
</g>
<!-- Node6&#45;&gt;Node11 -->
<g id="edge11" class="edge">
<title>Node6&#45;&gt;Node11</title>
<path fill="none" stroke="#191970" d="M877.3588,-177.7601C795.686,-167.7914 572.7647,-140.5826 481.1398,-129.3993"/>
<polygon fill="#191970" stroke="#191970" points="481.4973,-125.917 471.1469,-128.1796 480.6491,-132.8655 481.4973,-125.917"/>
</g>
<!-- Node8 -->
<g id="node8" class="node">
<title>Node8</title>
<polygon fill="none" stroke="#bfbfbf" points="966.5,-.5 966.5,-20.5 1077.5,-20.5 1077.5,-.5 966.5,-.5"/>
<text text-anchor="middle" x="1022" y="-7.5" font-family="FreeSans" font-size="10.00" fill="#000000">G4GlobalConfig.hh</text>
</g>
<!-- Node7&#45;&gt;Node8 -->
<g id="edge7" class="edge">
<title>Node7&#45;&gt;Node8</title>
<path fill="none" stroke="#191970" d="M1040.6617,-114.4369C1055.125,-101.6318 1075.7318,-78.579 1067,-57 1062.3541,-45.5186 1053.3637,-35.3021 1044.6324,-27.3904"/>
<polygon fill="#191970" stroke="#191970" points="1046.7201,-24.5726 1036.8188,-20.8023 1042.2079,-29.9242 1046.7201,-24.5726"/>
</g>
<!-- Node9 -->
<g id="node9" class="node">
<title>Node9</title>
<polygon fill="none" stroke="#bfbfbf" points="998.5,-57.5 998.5,-77.5 1057.5,-77.5 1057.5,-57.5 998.5,-57.5"/>
<text text-anchor="middle" x="1028" y="-64.5" font-family="FreeSans" font-size="10.00" fill="#000000">complex</text>
</g>
<!-- Node7&#45;&gt;Node9 -->
<g id="edge8" class="edge">
<title>Node7&#45;&gt;Node9</title>
<path fill="none" stroke="#191970" d="M1028,-114.3095C1028,-106.9335 1028,-96.72 1028,-87.715"/>
<polygon fill="#191970" stroke="#191970" points="1031.5001,-87.6022 1028,-77.6022 1024.5001,-87.6023 1031.5001,-87.6022"/>
</g>
<!-- Node10 -->
<g id="node10" class="node">
<title>Node10</title>
<g id="a_node10"><a xlink:href="../../d0/d00/tls_8hh.html" target="_top" xlink:title="tls.hh">
<polygon fill="none" stroke="#000000" points="936,-57.5 936,-77.5 980,-77.5 980,-57.5 936,-57.5"/>
<text text-anchor="middle" x="958" y="-64.5" font-family="FreeSans" font-size="10.00" fill="#000000">tls.hh</text>
</a>
</g>
</g>
<!-- Node7&#45;&gt;Node10 -->
<g id="edge9" class="edge">
<title>Node7&#45;&gt;Node10</title>
<path fill="none" stroke="#191970" d="M1015.4854,-114.3095C1005.1331,-105.8798 990.2294,-93.7439 978.1913,-83.9415"/>
<polygon fill="#191970" stroke="#191970" points="980.3706,-81.2025 970.4063,-77.6022 975.9506,-86.6306 980.3706,-81.2025"/>
</g>
<!-- Node10&#45;&gt;Node8 -->
<g id="edge10" class="edge">
<title>Node10&#45;&gt;Node8</title>
<path fill="none" stroke="#191970" d="M969.4419,-57.3095C978.7249,-49.0419 992.0106,-37.2093 1002.9015,-27.5096"/>
<polygon fill="#191970" stroke="#191970" points="1005.5173,-29.8668 1010.6571,-20.6022 1000.8616,-24.6395 1005.5173,-29.8668"/>
</g>
<!-- Node13&#45;&gt;Node7 -->
<g id="edge18" class="edge">
<title>Node13&#45;&gt;Node7</title>
<path fill="none" stroke="#191970" d="M1132.5873,-171.4408C1112.3994,-162.3801 1082.502,-148.9615 1059.8372,-138.7891"/>
<polygon fill="#191970" stroke="#191970" points="1061.1722,-135.552 1050.6158,-134.6504 1058.3059,-141.9383 1061.1722,-135.552"/>
</g>
<!-- Node13&#45;&gt;Node11 -->
<g id="edge19" class="edge">
<title>Node13&#45;&gt;Node11</title>
<path fill="none" stroke="#191970" d="M1116.8695,-172.4785C1113.8782,-171.9248 1110.8957,-171.422 1108,-171 872.0131,-136.6127 585.2229,-127.4706 481.1538,-125.2009"/>
<polygon fill="#191970" stroke="#191970" points="481.1585,-121.7003 471.0876,-124.9906 481.0123,-128.6988 481.1585,-121.7003"/>
</g>
<!-- Node14 -->
<g id="node14" class="node">
<title>Node14</title>
<polygon fill="none" stroke="#bfbfbf" points="1248,-114.5 1248,-134.5 1298,-134.5 1298,-114.5 1248,-114.5"/>
<text text-anchor="middle" x="1273" y="-121.5" font-family="FreeSans" font-size="10.00" fill="#000000">stdio.h</text>
</g>
<!-- Node13&#45;&gt;Node14 -->
<g id="edge15" class="edge">
<title>Node13&#45;&gt;Node14</title>
<path fill="none" stroke="#191970" d="M1175.8244,-171.4408C1194.4141,-162.461 1221.865,-149.2008 1242.8534,-139.0624"/>
<polygon fill="#191970" stroke="#191970" points="1244.5048,-142.1517 1251.9869,-134.6504 1241.46,-135.8485 1244.5048,-142.1517"/>
</g>
<!-- Node15 -->
<g id="node15" class="node">
<title>Node15</title>
<polygon fill="none" stroke="#bfbfbf" points="920.5,-114.5 920.5,-134.5 965.5,-134.5 965.5,-114.5 920.5,-114.5"/>
<text text-anchor="middle" x="943" y="-121.5" font-family="FreeSans" font-size="10.00" fill="#000000">string</text>
</g>
<!-- Node13&#45;&gt;Node15 -->
<g id="edge16" class="edge">
<title>Node13&#45;&gt;Node15</title>
<path fill="none" stroke="#191970" d="M1117.5396,-171.436C1082.4982,-162.0207 1028.7014,-147.5631 982,-135 979.8544,-134.4228 977.6424,-133.8276 975.4133,-133.2278"/>
<polygon fill="#191970" stroke="#191970" points="976.2504,-129.8286 965.6844,-130.609 974.431,-136.588 976.2504,-129.8286"/>
</g>
<!-- Node16 -->
<g id="node16" class="node">
<title>Node16</title>
<polygon fill="none" stroke="#bfbfbf" points="1084,-114.5 1084,-134.5 1134,-134.5 1134,-114.5 1084,-114.5"/>
<text text-anchor="middle" x="1109" y="-121.5" font-family="FreeSans" font-size="10.00" fill="#000000">cstring</text>
</g>
<!-- Node13&#45;&gt;Node16 -->
<g id="edge17" class="edge">
<title>Node13&#45;&gt;Node16</title>
<path fill="none" stroke="#191970" d="M1146.7761,-171.3095C1140.3656,-163.3661 1131.2994,-152.1319 1123.6556,-142.6602"/>
<polygon fill="#191970" stroke="#191970" points="1126.1566,-140.1862 1117.1527,-134.6022 1120.7092,-144.5823 1126.1566,-140.1862"/>
</g>
<!-- Node17 -->
<g id="node17" class="node">
<title>Node17</title>
<polygon fill="none" stroke="#bfbfbf" points="1152,-114.5 1152,-134.5 1230,-134.5 1230,-114.5 1152,-114.5"/>
<text text-anchor="middle" x="1191" y="-121.5" font-family="FreeSans" font-size="10.00" fill="#000000">G4String.icc</text>
</g>
<!-- Node13&#45;&gt;Node17 -->
<g id="edge20" class="edge">
<title>Node13&#45;&gt;Node17</title>
<path fill="none" stroke="#191970" d="M1161.4361,-171.3095C1166.3506,-163.5282 1173.2596,-152.589 1179.1628,-143.2423"/>
<polygon fill="#191970" stroke="#191970" points="1182.2389,-144.9261 1184.6196,-134.6022 1176.3204,-141.1881 1182.2389,-144.9261"/>
</g>
<!-- Node19 -->
<g id="node19" class="node">
<title>Node19</title>
<polygon fill="none" stroke="#bfbfbf" points="1325,-228.5 1325,-248.5 1369,-248.5 1369,-228.5 1325,-228.5"/>
<text text-anchor="middle" x="1347" y="-235.5" font-family="FreeSans" font-size="10.00" fill="#000000">limits</text>
</g>
<!-- Node18&#45;&gt;Node19 -->
<g id="edge22" class="edge">
<title>Node18&#45;&gt;Node19</title>
<path fill="none" stroke="#191970" d="M1301.0117,-285.3095C1309.0547,-277.1229 1320.5317,-265.441 1330.008,-255.7955"/>
<polygon fill="#191970" stroke="#191970" points="1332.5634,-258.1885 1337.075,-248.6022 1327.5701,-253.2827 1332.5634,-258.1885"/>
</g>
<!-- Node20 -->
<g id="node20" class="node">
<title>Node20</title>
<polygon fill="none" stroke="#bfbfbf" points="1257.5,-228.5 1257.5,-248.5 1306.5,-248.5 1306.5,-228.5 1257.5,-228.5"/>
<text text-anchor="middle" x="1282" y="-235.5" font-family="FreeSans" font-size="10.00" fill="#000000">climits</text>
</g>
<!-- Node18&#45;&gt;Node20 -->
<g id="edge23" class="edge">
<title>Node18&#45;&gt;Node20</title>
<path fill="none" stroke="#191970" d="M1289.391,-285.3095C1288.2263,-277.9335 1286.6137,-267.72 1285.1918,-258.715"/>
<polygon fill="#191970" stroke="#191970" points="1288.612,-257.934 1283.5951,-248.6022 1281.6976,-259.0258 1288.612,-257.934"/>
</g>
<!-- Node21&#45;&gt;Node6 -->
<g id="edge25" class="edge">
<title>Node21&#45;&gt;Node6</title>
<path fill="none" stroke="#191970" d="M984.3735,-228.3095C970.2229,-219.6366 949.6716,-207.0407 933.4513,-197.0992"/>
<polygon fill="#191970" stroke="#191970" points="934.8376,-193.8438 924.4826,-191.6022 931.1796,-199.812 934.8376,-193.8438"/>
</g>
<!-- Node21&#45;&gt;Node13 -->
<g id="edge26" class="edge">
<title>Node21&#45;&gt;Node13</title>
<path fill="none" stroke="#191970" d="M1028.1776,-228.4408C1053.1714,-219.1898 1090.4387,-205.3961 1118.1139,-195.1527"/>
<polygon fill="#191970" stroke="#191970" points="1119.6722,-198.308 1127.8355,-191.5544 1117.2424,-191.7432 1119.6722,-198.308"/>
</g>
<!-- Node22 -->
<g id="node22" class="node">
<title>Node22</title>
<g id="a_node22"><a xlink:href="../../d9/d05/G4VExceptionHandler_8hh.html" target="_top" xlink:title="G4VExceptionHandler.hh">
<polygon fill="none" stroke="#000000" points="957,-171.5 957,-191.5 1099,-191.5 1099,-171.5 957,-171.5"/>
<text text-anchor="middle" x="1028" y="-178.5" font-family="FreeSans" font-size="10.00" fill="#000000">G4VExceptionHandler.hh</text>
</a>
</g>
</g>
<!-- Node21&#45;&gt;Node22 -->
<g id="edge27" class="edge">
<title>Node21&#45;&gt;Node22</title>
<path fill="none" stroke="#191970" d="M1005.8271,-228.3095C1009.4362,-220.6903 1014.4794,-210.0435 1018.8444,-200.8285"/>
<polygon fill="#191970" stroke="#191970" points="1022.0969,-202.1379 1023.2147,-191.6022 1015.7707,-199.1413 1022.0969,-202.1379"/>
</g>
<!-- Node22&#45;&gt;Node7 -->
<g id="edge28" class="edge">
<title>Node22&#45;&gt;Node7</title>
<path fill="none" stroke="#191970" d="M1028,-171.3095C1028,-163.9335 1028,-153.72 1028,-144.715"/>
<polygon fill="#191970" stroke="#191970" points="1031.5001,-144.6022 1028,-134.6022 1024.5001,-144.6023 1031.5001,-144.6022"/>
</g>
<!-- Node23 -->
<g id="node23" class="node">
<title>Node23</title>
<g id="a_node23"><a xlink:href="../../d6/d7e/G4ExceptionSeverity_8hh.html" target="_top" xlink:title="G4ExceptionSeverity.hh">
<polygon fill="none" stroke="#000000" points="751,-114.5 751,-134.5 887,-134.5 887,-114.5 751,-114.5"/>
<text text-anchor="middle" x="819" y="-121.5" font-family="FreeSans" font-size="10.00" fill="#000000">G4ExceptionSeverity.hh</text>
</a>
</g>
</g>
<!-- Node22&#45;&gt;Node23 -->
<g id="edge29" class="edge">
<title>Node22&#45;&gt;Node23</title>
<path fill="none" stroke="#191970" d="M991.1161,-171.4408C956.1545,-161.9058 903.4977,-147.5448 865.638,-137.2195"/>
<polygon fill="#191970" stroke="#191970" points="866.4347,-133.809 855.8661,-134.5544 864.5928,-140.5623 866.4347,-133.809"/>
</g>
<!-- Node24&#45;&gt;Node4 -->
<g id="edge34" class="edge">
<title>Node24&#45;&gt;Node4</title>
<path fill="none" stroke="#191970" d="M718.4813,-286.7191C641.647,-276.3653 520.0341,-259.2698 475,-249 473.5318,-248.6652 472.035,-248.299 470.5283,-247.9103"/>
<polygon fill="#191970" stroke="#191970" points="471.2152,-244.4674 460.6403,-245.1158 469.3115,-251.2036 471.2152,-244.4674"/>
</g>
<!-- Node24&#45;&gt;Node6 -->
<g id="edge38" class="edge">
<title>Node24&#45;&gt;Node6</title>
<path fill="none" stroke="#191970" d="M807.626,-285.3984C824.2384,-277.2233 846.6618,-264.5345 863,-249 877.7617,-234.9644 890.2066,-215.2441 898.241,-200.7418"/>
<polygon fill="#191970" stroke="#191970" points="901.4613,-202.1409 903.073,-191.6694 895.2829,-198.8503 901.4613,-202.1409"/>
</g>
<!-- Node24&#45;&gt;Node11 -->
<g id="edge35" class="edge">
<title>Node24&#45;&gt;Node11</title>
<path fill="none" stroke="#191970" d="M718.2421,-291.0131C647.2823,-285.0886 540.8507,-272.5372 508,-249 472.2423,-223.38 453.7144,-172.6177 445.8166,-144.4699"/>
<polygon fill="#191970" stroke="#191970" points="449.1417,-143.3517 443.2179,-134.5677 442.371,-145.1286 449.1417,-143.3517"/>
</g>
<!-- Node24&#45;&gt;Node13 -->
<g id="edge39" class="edge">
<title>Node24&#45;&gt;Node13</title>
<path fill="none" stroke="#191970" d="M851.608,-287.5436C920.0445,-278.7676 1021.5668,-263.9051 1058,-249 1087.9697,-236.7392 1117.8547,-213.9402 1136.3682,-198.2571"/>
<polygon fill="#191970" stroke="#191970" points="1138.7678,-200.809 1144.0337,-191.6155 1134.184,-195.5186 1138.7678,-200.809"/>
</g>
<!-- Node24&#45;&gt;Node15 -->
<g id="edge32" class="edge">
<title>Node24&#45;&gt;Node15</title>
<path fill="none" stroke="#191970" d="M789.9212,-285.4406C801.3377,-262.8569 831.5309,-207.2701 869,-171 881.9674,-158.4475 898.86,-147.5211 913.2307,-139.4195"/>
<polygon fill="#191970" stroke="#191970" points="915.1329,-142.3691 922.2436,-134.5149 911.7869,-136.2205 915.1329,-142.3691"/>
</g>
<!-- Node24&#45;&gt;Node21 -->
<g id="edge40" class="edge">
<title>Node24&#45;&gt;Node21</title>
<path fill="none" stroke="#191970" d="M823.1193,-285.4408C859.3286,-275.8855 913.9039,-261.4837 953.0495,-251.1536"/>
<polygon fill="#191970" stroke="#191970" points="954.1232,-254.4902 962.8992,-248.5544 952.3371,-247.7219 954.1232,-254.4902"/>
</g>
<!-- Node24&#45;&gt;Node23 -->
<g id="edge41" class="edge">
<title>Node24&#45;&gt;Node23</title>
<path fill="none" stroke="#191970" d="M787.025,-285.3153C792.4924,-257.8178 807.6319,-181.6748 814.944,-144.8993"/>
<polygon fill="#191970" stroke="#191970" points="818.4252,-145.3381 816.9426,-134.8476 811.5596,-143.973 818.4252,-145.3381"/>
</g>
<!-- Node25 -->
<g id="node25" class="node">
<title>Node25</title>
<polygon fill="none" stroke="#bfbfbf" points="517,-228.5 517,-248.5 567,-248.5 567,-228.5 517,-228.5"/>
<text text-anchor="middle" x="542" y="-235.5" font-family="FreeSans" font-size="10.00" fill="#000000">cstdlib</text>
</g>
<!-- Node24&#45;&gt;Node25 -->
<g id="edge31" class="edge">
<title>Node24&#45;&gt;Node25</title>
<path fill="none" stroke="#191970" d="M734.4708,-285.4489C694.211,-277.1713 636.2263,-264.652 577.0729,-249.1433"/>
<polygon fill="#191970" stroke="#191970" points="577.7485,-245.7016 567.1857,-246.5256 575.9568,-252.4685 577.7485,-245.7016"/>
</g>
<!-- Node26 -->
<g id="node26" class="node">
<title>Node26</title>
<polygon fill="none" stroke="#bfbfbf" points="585,-228.5 585,-248.5 641,-248.5 641,-228.5 585,-228.5"/>
<text text-anchor="middle" x="613" y="-235.5" font-family="FreeSans" font-size="10.00" fill="#000000">sstream</text>
</g>
<!-- Node24&#45;&gt;Node26 -->
<g id="edge33" class="edge">
<title>Node24&#45;&gt;Node26</title>
<path fill="none" stroke="#191970" d="M754.6458,-285.4408C725.6671,-275.8374 681.9161,-261.3385 650.7127,-250.9978"/>
<polygon fill="#191970" stroke="#191970" points="651.6507,-247.6215 641.0573,-247.7981 649.4486,-254.2662 651.6507,-247.6215"/>
</g>
<!-- Node27 -->
<g id="node27" class="node">
<title>Node27</title>
<polygon fill="none" stroke="#bfbfbf" points="659.5,-228.5 659.5,-248.5 716.5,-248.5 716.5,-228.5 659.5,-228.5"/>
<text text-anchor="middle" x="688" y="-235.5" font-family="FreeSans" font-size="10.00" fill="#000000">iomanip</text>
</g>
<!-- Node24&#45;&gt;Node27 -->
<g id="edge36" class="edge">
<title>Node24&#45;&gt;Node27</title>
<path fill="none" stroke="#191970" d="M767.6583,-285.3095C752.7612,-276.5556 731.0627,-263.8049 714.0728,-253.8211"/>
<polygon fill="#191970" stroke="#191970" points="715.5864,-250.651 705.1915,-248.6022 712.0399,-256.6862 715.5864,-250.651"/>
</g>
<!-- Node28 -->
<g id="node28" class="node">
<title>Node28</title>
<polygon fill="none" stroke="#bfbfbf" points="735,-228.5 735,-248.5 783,-248.5 783,-228.5 735,-228.5"/>
<text text-anchor="middle" x="759" y="-235.5" font-family="FreeSans" font-size="10.00" fill="#000000">mutex</text>
</g>
<!-- Node24&#45;&gt;Node28 -->
<g id="edge37" class="edge">
<title>Node24&#45;&gt;Node28</title>
<path fill="none" stroke="#191970" d="M780.3517,-285.3095C776.8763,-277.6903 772.0198,-267.0435 767.8165,-257.8285"/>
<polygon fill="#191970" stroke="#191970" points="770.9425,-256.2479 763.608,-248.6022 764.5738,-259.153 770.9425,-256.2479"/>
</g>
<!-- Node31 -->
<g id="node31" class="node">
<title>Node31</title>
<g id="a_node31"><a xlink:href="../../d9/d32/DicomVFileImage_8hh.html" target="_top" xlink:title="DicomVFileImage.hh">
<polygon fill="none" stroke="#000000" points="511,-513.5 511,-533.5 631,-533.5 631,-513.5 511,-513.5"/>
<text text-anchor="middle" x="571" y="-520.5" font-family="FreeSans" font-size="10.00" fill="#000000">DicomVFileImage.hh</text>
</a>
</g>
</g>
<!-- Node30&#45;&gt;Node31 -->
<g id="edge44" class="edge">
<title>Node30&#45;&gt;Node31</title>
<path fill="none" stroke="#191970" d="M659.9404,-570.4408C643.0793,-561.5419 618.2536,-548.4394 599.1125,-538.3371"/>
<polygon fill="#191970" stroke="#191970" points="600.7099,-535.2227 590.2324,-533.6504 597.4426,-541.4134 600.7099,-535.2227"/>
</g>
<!-- Node31&#45;&gt;Node2 -->
<g id="edge49" class="edge">
<title>Node31&#45;&gt;Node2</title>
<path fill="none" stroke="#191970" d="M571,-513.3095C571,-505.9335 571,-495.72 571,-486.715"/>
<polygon fill="#191970" stroke="#191970" points="574.5001,-486.6022 571,-476.6022 567.5001,-486.6023 574.5001,-486.6022"/>
</g>
<!-- Node32 -->
<g id="node32" class="node">
<title>Node32</title>
<g id="a_node32"><a xlink:href="../../d8/d61/DicomVFile_8hh.html" target="_top" xlink:title="DicomVFile.hh">
<polygon fill="none" stroke="#000000" points="677,-456.5 677,-476.5 765,-476.5 765,-456.5 677,-456.5"/>
<text text-anchor="middle" x="721" y="-463.5" font-family="FreeSans" font-size="10.00" fill="#000000">DicomVFile.hh</text>
</a>
</g>
</g>
<!-- Node31&#45;&gt;Node32 -->
<g id="edge45" class="edge">
<title>Node31&#45;&gt;Node32</title>
<path fill="none" stroke="#191970" d="M597.4717,-513.4408C621.8163,-504.1898 658.1156,-490.3961 685.0719,-480.1527"/>
<polygon fill="#191970" stroke="#191970" points="686.4365,-483.3784 694.5411,-476.5544 683.95,-476.8349 686.4365,-483.3784"/>
</g>
<!-- Node33 -->
<g id="node33" class="node">
<title>Node33</title>
<g id="a_node33"><a xlink:href="../../d8/dbe/G4ThreeVector_8hh.html" target="_top" xlink:title="G4ThreeVector.hh">
<polygon fill="none" stroke="#000000" points="260,-399.5 260,-419.5 366,-419.5 366,-399.5 260,-399.5"/>
<text text-anchor="middle" x="313" y="-406.5" font-family="FreeSans" font-size="10.00" fill="#000000">G4ThreeVector.hh</text>
</a>
</g>
</g>
<!-- Node31&#45;&gt;Node33 -->
<g id="edge50" class="edge">
<title>Node31&#45;&gt;Node33</title>
<path fill="none" stroke="#191970" d="M510.7173,-517.2236C435.3096,-508.755 314.3888,-492.8918 301,-477 289.9088,-463.8354 295.1793,-444.002 301.8645,-429.2364"/>
<polygon fill="#191970" stroke="#191970" points="305.1605,-430.4733 306.535,-419.968 298.9093,-427.3231 305.1605,-430.4733"/>
</g>
<!-- Node32&#45;&gt;Node3 -->
<g id="edge46" class="edge">
<title>Node32&#45;&gt;Node3</title>
<path fill="none" stroke="#191970" d="M718.1395,-456.3095C716.0463,-448.8524 713.139,-438.4951 710.5912,-429.4186"/>
<polygon fill="#191970" stroke="#191970" points="713.9081,-428.2842 707.8357,-419.6022 707.1686,-430.176 713.9081,-428.2842"/>
</g>
<!-- Node32&#45;&gt;Node5 -->
<g id="edge47" class="edge">
<title>Node32&#45;&gt;Node5</title>
<path fill="none" stroke="#191970" d="M741.2335,-456.3833C781.7117,-436.1441 872.7951,-390.6025 919.7635,-367.1182"/>
<polygon fill="#191970" stroke="#191970" points="921.4329,-370.1968 928.8119,-362.5941 918.3023,-363.9358 921.4329,-370.1968"/>
</g>
<!-- Node32&#45;&gt;Node29 -->
<g id="edge48" class="edge">
<title>Node32&#45;&gt;Node29</title>
<path fill="none" stroke="#191970" d="M681.116,-456.4408C643.0693,-446.8449 585.643,-432.3613 544.6496,-422.0222"/>
<polygon fill="#191970" stroke="#191970" points="545.4171,-418.6063 534.8648,-419.5544 543.7052,-425.3937 545.4171,-418.6063"/>
</g>
<!-- Node33&#45;&gt;Node5 -->
<g id="edge51" class="edge">
<title>Node33&#45;&gt;Node5</title>
<path fill="none" stroke="#191970" d="M366.177,-403.736C381.3018,-402.1455 397.7952,-400.4577 413,-399 595.4141,-381.5122 813.0368,-363.5184 904.7689,-356.0649"/>
<polygon fill="#191970" stroke="#191970" points="905.1204,-359.548 914.8046,-355.2508 904.5543,-352.5709 905.1204,-359.548"/>
</g>
<!-- Node34 -->
<g id="node34" class="node">
<title>Node34</title>
<g id="a_node34"><a xlink:href="../../dd/dbb/ThreeVector_8h.html" target="_top" xlink:title="CLHEP/Vector/ThreeVector.h">
<polygon fill="none" stroke="#000000" points="125.5,-342.5 125.5,-362.5 282.5,-362.5 282.5,-342.5 125.5,-342.5"/>
<text text-anchor="middle" x="204" y="-349.5" font-family="FreeSans" font-size="10.00" fill="#000000">CLHEP/Vector/ThreeVector.h</text>
</a>
</g>
</g>
<!-- Node33&#45;&gt;Node34 -->
<g id="edge52" class="edge">
<title>Node33&#45;&gt;Node34</title>
<path fill="none" stroke="#191970" d="M293.7639,-399.4408C276.7467,-390.5419 251.6911,-377.4394 232.3728,-367.3371"/>
<polygon fill="#191970" stroke="#191970" points="233.8939,-364.1829 223.4104,-362.6504 230.65,-370.386 233.8939,-364.1829"/>
</g>
<!-- Node34&#45;&gt;Node11 -->
<g id="edge53" class="edge">
<title>Node34&#45;&gt;Node11</title>
<path fill="none" stroke="#191970" d="M125.4052,-343.2576C79.9155,-334.352 35.5209,-317.2574 57,-285 135.4727,-167.1494 318.7973,-135.6772 400.4817,-127.397"/>
<polygon fill="#191970" stroke="#191970" points="401.2248,-130.8424 410.8507,-126.4162 400.5655,-123.8735 401.2248,-130.8424"/>
</g>
<!-- Node35 -->
<g id="node35" class="node">
<title>Node35</title>
<g id="a_node35"><a xlink:href="../../d5/d64/defs_8h.html" target="_top" xlink:title="CLHEP/Utility/defs.h">
<polygon fill="none" stroke="#000000" points="66,-285.5 66,-305.5 182,-305.5 182,-285.5 66,-285.5"/>
<text text-anchor="middle" x="124" y="-292.5" font-family="FreeSans" font-size="10.00" fill="#000000">CLHEP/Utility/defs.h</text>
</a>
</g>
</g>
<!-- Node34&#45;&gt;Node35 -->
<g id="edge54" class="edge">
<title>Node34&#45;&gt;Node35</title>
<path fill="none" stroke="#191970" d="M189.6976,-342.3095C177.7526,-333.7987 160.5055,-321.5102 146.6798,-311.6594"/>
<polygon fill="#191970" stroke="#191970" points="148.3538,-308.5545 138.1786,-305.6022 144.2918,-314.2555 148.3538,-308.5545"/>
</g>
<!-- Node36 -->
<g id="node36" class="node">
<title>Node36</title>
<polygon fill="none" stroke="#bfbfbf" points="200.5,-285.5 200.5,-305.5 365.5,-305.5 365.5,-285.5 200.5,-285.5"/>
<text text-anchor="middle" x="283" y="-292.5" font-family="FreeSans" font-size="10.00" fill="#000000">CLHEP/Vector/ThreeVector.icc</text>
</g>
<!-- Node34&#45;&gt;Node36 -->
<g id="edge55" class="edge">
<title>Node34&#45;&gt;Node36</title>
<path fill="none" stroke="#191970" d="M218.1236,-342.3095C229.9193,-333.7987 246.9508,-321.5102 260.6037,-311.6594"/>
<polygon fill="#191970" stroke="#191970" points="262.9371,-314.2918 268.9987,-305.6022 258.8412,-308.6151 262.9371,-314.2918"/>
</g>
<!-- Node37&#45;&gt;Node31 -->
<g id="edge57" class="edge">
<title>Node37&#45;&gt;Node31</title>
<path fill="none" stroke="#191970" d="M566.8939,-570.3095C567.5409,-562.9335 568.4368,-552.72 569.2268,-543.715"/>
<polygon fill="#191970" stroke="#191970" points="572.7265,-543.8699 570.1138,-533.6022 565.7533,-543.2581 572.7265,-543.8699"/>
</g>
<!-- Node38&#45;&gt;Node32 -->
<g id="edge59" class="edge">
<title>Node38&#45;&gt;Node32</title>
<path fill="none" stroke="#191970" d="M493.2143,-570.4386C544.3895,-561.0251 614.5612,-546.5687 640,-534 665.1557,-521.5712 689.2263,-499.8268 704.4927,-484.3781"/>
<polygon fill="#191970" stroke="#191970" points="707.2222,-486.5892 711.6326,-476.956 702.1775,-481.7362 707.2222,-486.5892"/>
</g>
<!-- Node39 -->
<g id="node39" class="node">
<title>Node39</title>
<g id="a_node39"><a xlink:href="../../df/d4d/DicomROI_8hh.html" target="_top" xlink:title="DicomROI.hh">
<polygon fill="none" stroke="#000000" points="298,-513.5 298,-533.5 380,-533.5 380,-513.5 298,-513.5"/>
<text text-anchor="middle" x="339" y="-520.5" font-family="FreeSans" font-size="10.00" fill="#000000">DicomROI.hh</text>
</a>
</g>
</g>
<!-- Node38&#45;&gt;Node39 -->
<g id="edge60" class="edge">
<title>Node38&#45;&gt;Node39</title>
<path fill="none" stroke="#191970" d="M417.8371,-570.3095C403.0936,-561.5556 381.6188,-548.8049 364.804,-538.8211"/>
<polygon fill="#191970" stroke="#191970" points="366.3998,-535.6982 356.0143,-533.6022 362.8259,-541.7172 366.3998,-535.6982"/>
</g>
<!-- Node39&#45;&gt;Node3 -->
<g id="edge62" class="edge">
<title>Node39&#45;&gt;Node3</title>
<path fill="none" stroke="#191970" d="M380.0704,-519.7726C449.2294,-513.0248 585.6303,-497.5562 629,-477 653.488,-465.3933 675.9442,-443.4231 689.9948,-427.6989"/>
<polygon fill="#191970" stroke="#191970" points="693.0065,-429.5667 696.8955,-419.7114 687.7095,-424.9904 693.0065,-429.5667"/>
</g>
<!-- Node39&#45;&gt;Node11 -->
<g id="edge63" class="edge">
<title>Node39&#45;&gt;Node11</title>
<path fill="none" stroke="#191970" d="M297.7709,-518.4807C207.4268,-506.3323 0,-471.6705 0,-409.5 0,-409.5 0,-409.5 0,-238.5 0,-156.2294 291.3285,-132.3849 400.4144,-126.3403"/>
<polygon fill="#191970" stroke="#191970" points="400.8882,-129.8201 410.6883,-125.7941 400.5166,-122.83 400.8882,-129.8201"/>
</g>
<!-- Node39&#45;&gt;Node29 -->
<g id="edge61" class="edge">
<title>Node39&#45;&gt;Node29</title>
<path fill="none" stroke="#191970" d="M380.2133,-513.5049C414.5193,-504.4293 459.8063,-490.446 473,-477 485.3822,-464.381 490.7955,-444.712 493.162,-429.8549"/>
<polygon fill="#191970" stroke="#191970" points="496.673,-429.9854 494.4428,-419.628 489.7272,-429.1155 496.673,-429.9854"/>
</g>
<!-- Node40 -->
<g id="node40" class="node">
<title>Node40</title>
<g id="a_node40"><a xlink:href="../../d6/d3c/DicomROIContour_8hh.html" target="_top" xlink:title="DicomROIContour.hh">
<polygon fill="none" stroke="#000000" points="343.5,-456.5 343.5,-476.5 464.5,-476.5 464.5,-456.5 343.5,-456.5"/>
<text text-anchor="middle" x="404" y="-463.5" font-family="FreeSans" font-size="10.00" fill="#000000">DicomROIContour.hh</text>
</a>
</g>
</g>
<!-- Node39&#45;&gt;Node40 -->
<g id="edge64" class="edge">
<title>Node39&#45;&gt;Node40</title>
<path fill="none" stroke="#191970" d="M350.6207,-513.3095C360.1412,-504.9608 373.807,-492.9769 384.9277,-483.2249"/>
<polygon fill="#191970" stroke="#191970" points="387.2689,-485.827 392.4799,-476.6022 382.6536,-480.564 387.2689,-485.827"/>
</g>
<!-- Node40&#45;&gt;Node3 -->
<g id="edge68" class="edge">
<title>Node40&#45;&gt;Node3</title>
<path fill="none" stroke="#191970" d="M457.1199,-456.4408C518.5406,-444.8096 617.8829,-425.9973 670.2061,-416.0889"/>
<polygon fill="#191970" stroke="#191970" points="671.1488,-419.4726 680.323,-414.1731 669.8463,-412.5949 671.1488,-419.4726"/>
</g>
<!-- Node40&#45;&gt;Node11 -->
<g id="edge67" class="edge">
<title>Node40&#45;&gt;Node11</title>
<path fill="none" stroke="#191970" d="M403.4817,-456.4228C401.9657,-423.4116 398.4565,-315.6187 412,-228 416.6122,-198.1618 426.9784,-164.6974 433.983,-144.1092"/>
<polygon fill="#191970" stroke="#191970" points="437.3096,-145.1988 437.2912,-134.604 430.6986,-142.8978 437.3096,-145.1988"/>
</g>
<!-- Node40&#45;&gt;Node29 -->
<g id="edge65" class="edge">
<title>Node40&#45;&gt;Node29</title>
<path fill="none" stroke="#191970" d="M420.269,-456.3095C434.1152,-447.6366 454.2245,-435.0407 470.096,-425.0992"/>
<polygon fill="#191970" stroke="#191970" points="472.2551,-427.8768 478.8719,-419.6022 468.5392,-421.9445 472.2551,-427.8768"/>
</g>
<!-- Node40&#45;&gt;Node33 -->
<g id="edge66" class="edge">
<title>Node40&#45;&gt;Node33</title>
<path fill="none" stroke="#191970" d="M387.731,-456.3095C373.8848,-447.6366 353.7755,-435.0407 337.904,-425.0992"/>
<polygon fill="#191970" stroke="#191970" points="339.4608,-421.9445 329.1281,-419.6022 335.7449,-427.8768 339.4608,-421.9445"/>
</g>
<!-- Node41&#45;&gt;Node32 -->
<g id="edge70" class="edge">
<title>Node41&#45;&gt;Node32</title>
<path fill="none" stroke="#191970" d="M744.8154,-513.3095C740.8977,-505.6093 735.4067,-494.8166 730.6844,-485.5349"/>
<polygon fill="#191970" stroke="#191970" points="733.7938,-483.9279 726.1397,-476.6022 727.5549,-487.1021 733.7938,-483.9279"/>
</g>
<!-- Node43&#45;&gt;Node3 -->
<g id="edge74" class="edge">
<title>Node43&#45;&gt;Node3</title>
<path fill="none" stroke="#191970" d="M845.8223,-456.4408C815.9739,-446.4913 770.3615,-431.2872 739.1896,-420.8965"/>
<polygon fill="#191970" stroke="#191970" points="740.2083,-417.5468 729.6146,-417.7049 737.9946,-424.1876 740.2083,-417.5468"/>
</g>
<!-- Node43&#45;&gt;Node5 -->
<g id="edge73" class="edge">
<title>Node43&#45;&gt;Node5</title>
<path fill="none" stroke="#191970" d="M882.4783,-456.3833C894.6771,-437.3331 921.2307,-395.8658 936.8489,-371.4757"/>
<polygon fill="#191970" stroke="#191970" points="939.9861,-373.0668 942.4313,-362.7579 934.0912,-369.2919 939.9861,-373.0668"/>
</g>
<!-- Node44&#45;&gt;Node3 -->
<g id="edge82" class="edge">
<title>Node44&#45;&gt;Node3</title>
<path fill="none" stroke="#191970" d="M989.4902,-516.8218C944.3302,-510.0903 878.5117,-497.6802 824,-477 788.5148,-463.5379 750.9657,-440.5836 727.7541,-425.2314"/>
<polygon fill="#191970" stroke="#191970" points="729.5601,-422.2282 719.3068,-419.5595 725.6579,-428.0397 729.5601,-422.2282"/>
</g>
<!-- Node44&#45;&gt;Node5 -->
<g id="edge80" class="edge">
<title>Node44&#45;&gt;Node5</title>
<path fill="none" stroke="#191970" d="M1014.6883,-513.3397C998.0897,-505.8793 978.2348,-494.0492 967,-477 946.0644,-445.2295 945.2875,-399.0407 946.9276,-372.7722"/>
<polygon fill="#191970" stroke="#191970" points="950.4383,-372.7803 947.757,-362.5304 943.4611,-372.2152 950.4383,-372.7803"/>
</g>
<!-- Node44&#45;&gt;Node33 -->
<g id="edge84" class="edge">
<title>Node44&#45;&gt;Node33</title>
<path fill="none" stroke="#191970" d="M989.3703,-520.792C826.3307,-512.4559 346.8609,-487.1334 334,-477 319.882,-465.8761 315.0445,-445.3885 313.4895,-429.8914"/>
<polygon fill="#191970" stroke="#191970" points="316.9693,-429.4563 312.8517,-419.6944 309.9829,-429.8934 316.9693,-429.4563"/>
</g>
<!-- Node45 -->
<g id="node45" class="node">
<title>Node45</title>
<g id="a_node45"><a xlink:href="../../dd/d3f/G4UIparameter_8hh.html" target="_top" xlink:title="G4UIparameter.hh">
<polygon fill="none" stroke="#000000" points="1124.5,-456.5 1124.5,-476.5 1233.5,-476.5 1233.5,-456.5 1124.5,-456.5"/>
<text text-anchor="middle" x="1179" y="-463.5" font-family="FreeSans" font-size="10.00" fill="#000000">G4UIparameter.hh</text>
</a>
</g>
</g>
<!-- Node44&#45;&gt;Node45 -->
<g id="edge76" class="edge">
<title>Node44&#45;&gt;Node45</title>
<path fill="none" stroke="#191970" d="M1067.001,-513.4408C1088.8125,-504.2992 1121.2082,-490.7216 1145.5549,-480.5174"/>
<polygon fill="#191970" stroke="#191970" points="1146.9116,-483.7438 1154.7815,-476.6504 1144.2058,-477.2879 1146.9116,-483.7438"/>
</g>
<!-- Node46 -->
<g id="node46" class="node">
<title>Node46</title>
<g id="a_node46"><a xlink:href="../../d7/deb/G4UItokenNum_8hh.html" target="_top" xlink:title="G4UItokenNum.hh">
<polygon fill="none" stroke="#000000" points="1124.5,-399.5 1124.5,-419.5 1233.5,-419.5 1233.5,-399.5 1124.5,-399.5"/>
<text text-anchor="middle" x="1179" y="-406.5" font-family="FreeSans" font-size="10.00" fill="#000000">G4UItokenNum.hh</text>
</a>
</g>
</g>
<!-- Node44&#45;&gt;Node46 -->
<g id="edge83" class="edge">
<title>Node44&#45;&gt;Node46</title>
<path fill="none" stroke="#191970" d="M1096.8298,-518.4418C1149.722,-512.2266 1225.0423,-499.6118 1243,-477 1258.2498,-457.7978 1232.893,-437.6273 1209.7352,-424.3928"/>
<polygon fill="#191970" stroke="#191970" points="1211.1883,-421.1993 1200.7294,-419.5075 1207.8505,-427.3523 1211.1883,-421.1993"/>
</g>
<!-- Node47 -->
<g id="node47" class="node">
<title>Node47</title>
<g id="a_node47"><a xlink:href="../../d8/d65/G4ApplicationState_8hh.html" target="_top" xlink:title="G4ApplicationState.hh">
<polygon fill="none" stroke="#000000" points="976,-456.5 976,-476.5 1106,-476.5 1106,-456.5 976,-456.5"/>
<text text-anchor="middle" x="1041" y="-463.5" font-family="FreeSans" font-size="10.00" fill="#000000">G4ApplicationState.hh</text>
</a>
</g>
</g>
<!-- Node44&#45;&gt;Node47 -->
<g id="edge81" class="edge">
<title>Node44&#45;&gt;Node47</title>
<path fill="none" stroke="#191970" d="M1042.6424,-513.3095C1042.3836,-505.9335 1042.0253,-495.72 1041.7093,-486.715"/>
<polygon fill="#191970" stroke="#191970" points="1045.2031,-486.4733 1041.3545,-476.6022 1038.2074,-486.7188 1045.2031,-486.4733"/>
</g>
<!-- Node45&#45;&gt;Node5 -->
<g id="edge77" class="edge">
<title>Node45&#45;&gt;Node5</title>
<path fill="none" stroke="#191970" d="M1158.589,-456.3833C1117.7557,-436.1441 1025.8734,-390.6025 978.4929,-367.1182"/>
<polygon fill="#191970" stroke="#191970" points="979.8794,-363.8991 969.3652,-362.5941 976.7707,-370.171 979.8794,-363.8991"/>
</g>
<!-- Node45&#45;&gt;Node46 -->
<g id="edge78" class="edge">
<title>Node45&#45;&gt;Node46</title>
<path fill="none" stroke="#191970" d="M1179,-456.3095C1179,-448.9335 1179,-438.72 1179,-429.715"/>
<polygon fill="#191970" stroke="#191970" points="1182.5001,-429.6022 1179,-419.6022 1175.5001,-429.6023 1182.5001,-429.6022"/>
</g>
<!-- Node46&#45;&gt;Node5 -->
<g id="edge79" class="edge">
<title>Node46&#45;&gt;Node5</title>
<path fill="none" stroke="#191970" d="M1138.4101,-399.4408C1097.6647,-389.343 1035.0793,-373.8327 993.1241,-363.4351"/>
<polygon fill="#191970" stroke="#191970" points="993.7391,-359.9817 983.1908,-360.9734 992.0552,-366.7762 993.7391,-359.9817"/>
</g>
</g>
</svg>
