<?xml version="1.0" encoding="UTF-8" standalone="no"?>
<!DOCTYPE svg PUBLIC "-//W3C//DTD SVG 1.1//EN"
 "http://www.w3.org/Graphics/SVG/1.1/DTD/svg11.dtd">
<!-- Generated by graphviz version 2.40.1 (20161225.0304)
 -->
<!-- Title: geant4/tree/geant4&#45;10.6&#45;release/source/visualization/RayTracer/include/G4RTJpegMaker.hh Pages: 1 -->
<svg width="626pt" height="158pt"
 viewBox="0.00 0.00 626.00 158.00" xmlns="http://www.w3.org/2000/svg" xmlns:xlink="http://www.w3.org/1999/xlink">
<g id="graph0" class="graph" transform="scale(1 1) rotate(0) translate(4 154)">
<title>geant4/tree/geant4&#45;10.6&#45;release/source/visualization/RayTracer/include/G4RTJpegMaker.hh</title>
<!-- Node1 -->
<g id="node1" class="node">
<title>Node1</title>
<polygon fill="#bfbfbf" stroke="#000000" points="228.5,-93.5 228.5,-149.5 383.5,-149.5 383.5,-93.5 228.5,-93.5"/>
<text text-anchor="start" x="236.5" y="-136.5" font-family="FreeSans" font-size="10.00" fill="#000000">geant4/tree/geant4</text>
<text text-anchor="start" x="236.5" y="-124.5" font-family="FreeSans" font-size="10.00" fill="#000000">&#45;10.6&#45;release/source</text>
<text text-anchor="start" x="236.5" y="-112.5" font-family="FreeSans" font-size="10.00" fill="#000000">/visualization/RayTracer</text>
<text text-anchor="middle" x="306" y="-100.5" font-family="FreeSans" font-size="10.00" fill="#000000">/include/G4RTJpegMaker.hh</text>
</g>
<!-- Node2 -->
<g id="node2" class="node">
<title>Node2</title>
<g id="a_node2"><a xlink:href="../../dd/d06/G4RTJpegCoder_8cc.html" target="_top" xlink:title="geant4/tree/geant4\l&#45;10.6&#45;release/source\l/visualization/RayTracer\l/src/G4RTJpegCoder.cc">
<polygon fill="none" stroke="#000000" points="0,-.5 0,-56.5 138,-56.5 138,-.5 0,-.5"/>
<text text-anchor="start" x="8" y="-43.5" font-family="FreeSans" font-size="10.00" fill="#000000">geant4/tree/geant4</text>
<text text-anchor="start" x="8" y="-31.5" font-family="FreeSans" font-size="10.00" fill="#000000">&#45;10.6&#45;release/source</text>
<text text-anchor="start" x="8" y="-19.5" font-family="FreeSans" font-size="10.00" fill="#000000">/visualization/RayTracer</text>
<text text-anchor="middle" x="69" y="-7.5" font-family="FreeSans" font-size="10.00" fill="#000000">/src/G4RTJpegCoder.cc</text>
</a>
</g>
</g>
<!-- Node1&#45;&gt;Node2 -->
<g id="edge1" class="edge">
<title>Node1&#45;&gt;Node2</title>
<path fill="none" stroke="#191970" d="M225.1253,-89.7644C196.8821,-78.6816 165.4573,-66.3503 138.2471,-55.6729"/>
<polygon fill="#191970" stroke="#191970" points="223.9833,-93.076 234.5708,-93.4708 226.5404,-86.5597 223.9833,-93.076"/>
</g>
<!-- Node3 -->
<g id="node3" class="node">
<title>Node3</title>
<g id="a_node3"><a xlink:href="../../db/d56/G4RTJpegMaker_8cc.html" target="_top" xlink:title="geant4/tree/geant4\l&#45;10.6&#45;release/source\l/visualization/RayTracer\l/src/G4RTJpegMaker.cc">
<polygon fill="none" stroke="#000000" points="156,-.5 156,-56.5 294,-56.5 294,-.5 156,-.5"/>
<text text-anchor="start" x="164" y="-43.5" font-family="FreeSans" font-size="10.00" fill="#000000">geant4/tree/geant4</text>
<text text-anchor="start" x="164" y="-31.5" font-family="FreeSans" font-size="10.00" fill="#000000">&#45;10.6&#45;release/source</text>
<text text-anchor="start" x="164" y="-19.5" font-family="FreeSans" font-size="10.00" fill="#000000">/visualization/RayTracer</text>
<text text-anchor="middle" x="225" y="-7.5" font-family="FreeSans" font-size="10.00" fill="#000000">/src/G4RTJpegMaker.cc</text>
</a>
</g>
</g>
<!-- Node1&#45;&gt;Node3 -->
<g id="edge2" class="edge">
<title>Node1&#45;&gt;Node3</title>
<path fill="none" stroke="#191970" d="M274.8711,-85.7594C266.4429,-76.0826 257.4418,-65.748 249.4391,-56.5597"/>
<polygon fill="#191970" stroke="#191970" points="272.2704,-88.1025 281.4775,-93.3446 277.549,-83.505 272.2704,-88.1025"/>
</g>
<!-- Node4 -->
<g id="node4" class="node">
<title>Node4</title>
<g id="a_node4"><a xlink:href="../../d5/d7a/G4TheMTRayTracer_8cc.html" target="_top" xlink:title="geant4/tree/geant4\l&#45;10.6&#45;release/source\l/visualization/RayTracer\l/src/G4TheMTRayTracer.cc">
<polygon fill="none" stroke="#000000" points="312,-.5 312,-56.5 462,-56.5 462,-.5 312,-.5"/>
<text text-anchor="start" x="320" y="-43.5" font-family="FreeSans" font-size="10.00" fill="#000000">geant4/tree/geant4</text>
<text text-anchor="start" x="320" y="-31.5" font-family="FreeSans" font-size="10.00" fill="#000000">&#45;10.6&#45;release/source</text>
<text text-anchor="start" x="320" y="-19.5" font-family="FreeSans" font-size="10.00" fill="#000000">/visualization/RayTracer</text>
<text text-anchor="middle" x="387" y="-7.5" font-family="FreeSans" font-size="10.00" fill="#000000">/src/G4TheMTRayTracer.cc</text>
</a>
</g>
</g>
<!-- Node1&#45;&gt;Node4 -->
<g id="edge3" class="edge">
<title>Node1&#45;&gt;Node4</title>
<path fill="none" stroke="#191970" d="M337.1289,-85.7594C345.5571,-76.0826 354.5582,-65.748 362.5609,-56.5597"/>
<polygon fill="#191970" stroke="#191970" points="334.451,-83.505 330.5225,-93.3446 339.7296,-88.1025 334.451,-83.505"/>
</g>
<!-- Node5 -->
<g id="node5" class="node">
<title>Node5</title>
<g id="a_node5"><a xlink:href="../../d9/d78/G4TheRayTracer_8cc.html" target="_top" xlink:title="geant4/tree/geant4\l&#45;10.6&#45;release/source\l/visualization/RayTracer\l/src/G4TheRayTracer.cc">
<polygon fill="none" stroke="#000000" points="480,-.5 480,-56.5 618,-56.5 618,-.5 480,-.5"/>
<text text-anchor="start" x="488" y="-43.5" font-family="FreeSans" font-size="10.00" fill="#000000">geant4/tree/geant4</text>
<text text-anchor="start" x="488" y="-31.5" font-family="FreeSans" font-size="10.00" fill="#000000">&#45;10.6&#45;release/source</text>
<text text-anchor="start" x="488" y="-19.5" font-family="FreeSans" font-size="10.00" fill="#000000">/visualization/RayTracer</text>
<text text-anchor="middle" x="549" y="-7.5" font-family="FreeSans" font-size="10.00" fill="#000000">/src/G4TheRayTracer.cc</text>
</a>
</g>
</g>
<!-- Node1&#45;&gt;Node5 -->
<g id="edge4" class="edge">
<title>Node1&#45;&gt;Node5</title>
<path fill="none" stroke="#191970" d="M388.7131,-89.8444C418.3005,-78.5208 451.3161,-65.8852 479.6581,-55.0382"/>
<polygon fill="#191970" stroke="#191970" points="387.3259,-86.6276 379.2375,-93.4708 389.828,-93.1652 387.3259,-86.6276"/>
</g>
</g>
</svg>
