<?xml version="1.0" encoding="UTF-8" standalone="no"?>
<!DOCTYPE svg PUBLIC "-//W3C//DTD SVG 1.1//EN"
 "http://www.w3.org/Graphics/SVG/1.1/DTD/svg11.dtd">
<!-- Generated by graphviz version 2.40.1 (20161225.0304)
 -->
<!-- Title: G4GMocrenIO::getShortDoseDist Pages: 1 -->
<svg width="742pt" height="126pt"
 viewBox="0.00 0.00 742.00 126.00" xmlns="http://www.w3.org/2000/svg" xmlns:xlink="http://www.w3.org/1999/xlink">
<g id="graph0" class="graph" transform="scale(1 1) rotate(0) translate(4 122)">
<title>G4GMocrenIO::getShortDoseDist</title>
<!-- Node1 -->
<g id="node1" class="node">
<title>Node1</title>
<polygon fill="#bfbfbf" stroke="#000000" points="0,-58.5 0,-78.5 182,-78.5 182,-58.5 0,-58.5"/>
<text text-anchor="middle" x="91" y="-65.5" font-family="FreeSans" font-size="10.00" fill="#000000">G4GMocrenIO::getShortDoseDist</text>
</g>
<!-- Node2 -->
<g id="node2" class="node">
<title>Node2</title>
<g id="a_node2"><a xlink:href="../../d4/de1/classG4GMocrenIO.html#a5614d5586f3d2b8a6481c1d6176a41c9" target="_top" xlink:title="G4GMocrenIO::storeData2">
<polygon fill="none" stroke="#000000" points="218,-97.5 218,-117.5 366,-117.5 366,-97.5 218,-97.5"/>
<text text-anchor="middle" x="292" y="-104.5" font-family="FreeSans" font-size="10.00" fill="#000000">G4GMocrenIO::storeData2</text>
</a>
</g>
</g>
<!-- Node1&#45;&gt;Node2 -->
<g id="edge1" class="edge">
<title>Node1&#45;&gt;Node2</title>
<path fill="none" stroke="#191970" d="M152.864,-80.5035C180.9189,-85.9469 213.7118,-92.3098 240.4129,-97.4906"/>
<polygon fill="#191970" stroke="#191970" points="153.2461,-77.0124 142.7625,-78.5435 151.9127,-83.8842 153.2461,-77.0124"/>
</g>
<!-- Node3 -->
<g id="node3" class="node">
<title>Node3</title>
<g id="a_node3"><a xlink:href="../../d4/de1/classG4GMocrenIO.html#a2c39f9fb3bb41d62f698697248227e10" target="_top" xlink:title="G4GMocrenIO::storeData3">
<polygon fill="none" stroke="#000000" points="218,-58.5 218,-78.5 366,-78.5 366,-58.5 218,-58.5"/>
<text text-anchor="middle" x="292" y="-65.5" font-family="FreeSans" font-size="10.00" fill="#000000">G4GMocrenIO::storeData3</text>
</a>
</g>
</g>
<!-- Node1&#45;&gt;Node3 -->
<g id="edge2" class="edge">
<title>Node1&#45;&gt;Node3</title>
<path fill="none" stroke="#191970" d="M192.1964,-68.5C200.8155,-68.5 209.4278,-68.5 217.7796,-68.5"/>
<polygon fill="#191970" stroke="#191970" points="192.0904,-65.0001 182.0904,-68.5 192.0904,-72.0001 192.0904,-65.0001"/>
</g>
<!-- Node4 -->
<g id="node4" class="node">
<title>Node4</title>
<g id="a_node4"><a xlink:href="../../d4/de1/classG4GMocrenIO.html#a8da9b797458a4cf0b637266e17fa32f2" target="_top" xlink:title="G4GMocrenIO::storeData4">
<polygon fill="none" stroke="#000000" points="218,-19.5 218,-39.5 366,-39.5 366,-19.5 218,-19.5"/>
<text text-anchor="middle" x="292" y="-26.5" font-family="FreeSans" font-size="10.00" fill="#000000">G4GMocrenIO::storeData4</text>
</a>
</g>
</g>
<!-- Node1&#45;&gt;Node4 -->
<g id="edge3" class="edge">
<title>Node1&#45;&gt;Node4</title>
<path fill="none" stroke="#191970" d="M152.864,-56.4965C180.9189,-51.0531 213.7118,-44.6902 240.4129,-39.5094"/>
<polygon fill="#191970" stroke="#191970" points="151.9127,-53.1158 142.7625,-58.4565 153.2461,-59.9876 151.9127,-53.1158"/>
</g>
<!-- Node5 -->
<g id="node5" class="node">
<title>Node5</title>
<g id="a_node5"><a xlink:href="../../d4/de1/classG4GMocrenIO.html#a904feaeb372d6e988c8ef9ae6675582e" target="_top" xlink:title="G4GMocrenIO::storeData">
<polygon fill="none" stroke="#000000" points="405.5,-39.5 405.5,-59.5 546.5,-59.5 546.5,-39.5 405.5,-39.5"/>
<text text-anchor="middle" x="476" y="-46.5" font-family="FreeSans" font-size="10.00" fill="#000000">G4GMocrenIO::storeData</text>
</a>
</g>
</g>
<!-- Node4&#45;&gt;Node5 -->
<g id="edge4" class="edge">
<title>Node4&#45;&gt;Node5</title>
<path fill="none" stroke="#191970" d="M376.1655,-38.6484C385.9367,-39.7105 395.8266,-40.7855 405.3901,-41.825"/>
<polygon fill="#191970" stroke="#191970" points="376.3642,-35.1495 366.0445,-37.5483 375.6077,-42.1085 376.3642,-35.1495"/>
</g>
<!-- Node7 -->
<g id="node7" class="node">
<title>Node7</title>
<g id="a_node7"><a xlink:href="../../d4/de1/classG4GMocrenIO.html#a1c5b324fe0ffc0f1ca1e3e76effadf88" target="_top" xlink:title="G4GMocrenIO::storeData4">
<polygon fill="none" stroke="#000000" points="402,-.5 402,-20.5 550,-20.5 550,-.5 402,-.5"/>
<text text-anchor="middle" x="476" y="-7.5" font-family="FreeSans" font-size="10.00" fill="#000000">G4GMocrenIO::storeData4</text>
</a>
</g>
</g>
<!-- Node4&#45;&gt;Node7 -->
<g id="edge6" class="edge">
<title>Node4&#45;&gt;Node7</title>
<path fill="none" stroke="#191970" d="M376.0658,-20.8193C384.6542,-19.9324 393.3356,-19.036 401.8075,-18.1612"/>
<polygon fill="#191970" stroke="#191970" points="375.6321,-17.3454 366.0445,-21.8541 376.3511,-24.3084 375.6321,-17.3454"/>
</g>
<!-- Node6 -->
<g id="node6" class="node">
<title>Node6</title>
<g id="a_node6"><a xlink:href="../../d4/de1/classG4GMocrenIO.html#a6fe6cfc7e499969e9bdf41cccc7ff601" target="_top" xlink:title="G4GMocrenIO::storeData2">
<polygon fill="none" stroke="#000000" points="586,-39.5 586,-59.5 734,-59.5 734,-39.5 586,-39.5"/>
<text text-anchor="middle" x="660" y="-46.5" font-family="FreeSans" font-size="10.00" fill="#000000">G4GMocrenIO::storeData2</text>
</a>
</g>
</g>
<!-- Node5&#45;&gt;Node6 -->
<g id="edge5" class="edge">
<title>Node5&#45;&gt;Node6</title>
<path fill="none" stroke="#191970" d="M556.6671,-49.5C566.3924,-49.5 576.2893,-49.5 585.9141,-49.5"/>
<polygon fill="#191970" stroke="#191970" points="556.613,-46.0001 546.613,-49.5 556.6129,-53.0001 556.613,-46.0001"/>
</g>
</g>
</svg>
