<?xml version="1.0" encoding="UTF-8" standalone="no"?>
<!DOCTYPE svg PUBLIC "-//W3C//DTD SVG 1.1//EN"
 "http://www.w3.org/Graphics/SVG/1.1/DTD/svg11.dtd">
<!-- Generated by graphviz version 2.40.1 (20161225.0304)
 -->
<!-- Title: G4GMocrenIO::setDoseDistName Pages: 1 -->
<svg width="806pt" height="248pt"
 viewBox="0.00 0.00 806.00 248.00" xmlns="http://www.w3.org/2000/svg" xmlns:xlink="http://www.w3.org/1999/xlink">
<g id="graph0" class="graph" transform="scale(1 1) rotate(0) translate(4 244)">
<title>G4GMocrenIO::setDoseDistName</title>
<!-- Node1 -->
<g id="node1" class="node">
<title>Node1</title>
<polygon fill="#bfbfbf" stroke="#000000" points="0,-110.5 0,-130.5 183,-130.5 183,-110.5 0,-110.5"/>
<text text-anchor="middle" x="91.5" y="-117.5" font-family="FreeSans" font-size="10.00" fill="#000000">G4GMocrenIO::setDoseDistName</text>
</g>
<!-- Node2 -->
<g id="node2" class="node">
<title>Node2</title>
<g id="a_node2"><a xlink:href="../../df/d82/classG4GMocrenFileSceneHandler.html#a8935f821c4053a3462e2feece9bfe5df" target="_top" xlink:title="G4GMocrenFileSceneHandler\l::EndSavingGdd">
<polygon fill="none" stroke="#000000" points="219,-146.5 219,-178.5 383,-178.5 383,-146.5 219,-146.5"/>
<text text-anchor="start" x="227" y="-165.5" font-family="FreeSans" font-size="10.00" fill="#000000">G4GMocrenFileSceneHandler</text>
<text text-anchor="middle" x="301" y="-153.5" font-family="FreeSans" font-size="10.00" fill="#000000">::EndSavingGdd</text>
</a>
</g>
</g>
<!-- Node1&#45;&gt;Node2 -->
<g id="edge1" class="edge">
<title>Node1&#45;&gt;Node2</title>
<path fill="none" stroke="#191970" d="M151.47,-132.5226C173.1761,-136.8742 198.0424,-141.8593 221.1848,-146.4989"/>
<polygon fill="#191970" stroke="#191970" points="151.9072,-129.0407 141.4143,-130.5067 150.5312,-135.9041 151.9072,-129.0407"/>
</g>
<!-- Node6 -->
<g id="node6" class="node">
<title>Node6</title>
<g id="a_node6"><a xlink:href="../../d4/de1/classG4GMocrenIO.html#aa9d8ee49cc1f8fbb017524267694b3fd" target="_top" xlink:title="G4GMocrenIO::retrieveData4">
<polygon fill="none" stroke="#000000" points="220,-88.5 220,-108.5 382,-108.5 382,-88.5 220,-88.5"/>
<text text-anchor="middle" x="301" y="-95.5" font-family="FreeSans" font-size="10.00" fill="#000000">G4GMocrenIO::retrieveData4</text>
</a>
</g>
</g>
<!-- Node1&#45;&gt;Node6 -->
<g id="edge5" class="edge">
<title>Node1&#45;&gt;Node6</title>
<path fill="none" stroke="#191970" d="M193.1511,-109.8254C202.0904,-108.8867 211.0598,-107.9448 219.7986,-107.0271"/>
<polygon fill="#191970" stroke="#191970" points="192.6647,-106.3572 183.085,-110.8825 193.3959,-113.3189 192.6647,-106.3572"/>
</g>
<!-- Node3 -->
<g id="node3" class="node">
<title>Node3</title>
<g id="a_node3"><a xlink:href="../../df/d82/classG4GMocrenFileSceneHandler.html#a865988059291c1805f1fa0a40238757d" target="_top" xlink:title="G4GMocrenFileSceneHandler\l::GFEndModeling">
<polygon fill="none" stroke="#000000" points="419,-156.5 419,-188.5 583,-188.5 583,-156.5 419,-156.5"/>
<text text-anchor="start" x="427" y="-175.5" font-family="FreeSans" font-size="10.00" fill="#000000">G4GMocrenFileSceneHandler</text>
<text text-anchor="middle" x="501" y="-163.5" font-family="FreeSans" font-size="10.00" fill="#000000">::GFEndModeling</text>
</a>
</g>
</g>
<!-- Node2&#45;&gt;Node3 -->
<g id="edge2" class="edge">
<title>Node2&#45;&gt;Node3</title>
<path fill="none" stroke="#191970" d="M393.4658,-167.1233C401.9136,-167.5457 410.4335,-167.9717 418.7826,-168.3891"/>
<polygon fill="#191970" stroke="#191970" points="393.3758,-163.6145 383.2135,-166.6107 393.0262,-170.6058 393.3758,-163.6145"/>
</g>
<!-- Node4 -->
<g id="node4" class="node">
<title>Node4</title>
<g id="a_node4"><a xlink:href="../../df/dd1/classG4GMocrenFileViewer.html#ab0af733f8a2d83aa04ac596d1308d604" target="_top" xlink:title="G4GMocrenFileViewer\l::ShowView">
<polygon fill="none" stroke="#000000" points="645,-207.5 645,-239.5 772,-239.5 772,-207.5 645,-207.5"/>
<text text-anchor="start" x="653" y="-226.5" font-family="FreeSans" font-size="10.00" fill="#000000">G4GMocrenFileViewer</text>
<text text-anchor="middle" x="708.5" y="-214.5" font-family="FreeSans" font-size="10.00" fill="#000000">::ShowView</text>
</a>
</g>
</g>
<!-- Node3&#45;&gt;Node4 -->
<g id="edge3" class="edge">
<title>Node3&#45;&gt;Node4</title>
<path fill="none" stroke="#191970" d="M576.2209,-190.988C598.7335,-196.5213 623.1893,-202.5321 644.8788,-207.863"/>
<polygon fill="#191970" stroke="#191970" points="576.9159,-187.5547 566.3695,-188.5667 575.2451,-194.3524 576.9159,-187.5547"/>
</g>
<!-- Node5 -->
<g id="node5" class="node">
<title>Node5</title>
<g id="a_node5"><a xlink:href="../../df/d82/classG4GMocrenFileSceneHandler.html#aaa7edc0d2f3c4f94ce4cbd4b4907106e" target="_top" xlink:title="G4GMocrenFileSceneHandler\l::~G4GMocrenFileSceneHandler">
<polygon fill="none" stroke="#000000" points="619,-156.5 619,-188.5 798,-188.5 798,-156.5 619,-156.5"/>
<text text-anchor="start" x="627" y="-175.5" font-family="FreeSans" font-size="10.00" fill="#000000">G4GMocrenFileSceneHandler</text>
<text text-anchor="middle" x="708.5" y="-163.5" font-family="FreeSans" font-size="10.00" fill="#000000">::~G4GMocrenFileSceneHandler</text>
</a>
</g>
</g>
<!-- Node3&#45;&gt;Node5 -->
<g id="edge4" class="edge">
<title>Node3&#45;&gt;Node5</title>
<path fill="none" stroke="#191970" d="M593.0285,-172.5C601.6178,-172.5 610.3158,-172.5 618.8827,-172.5"/>
<polygon fill="#191970" stroke="#191970" points="593.0095,-169.0001 583.0095,-172.5 593.0095,-176.0001 593.0095,-169.0001"/>
</g>
<!-- Node7 -->
<g id="node7" class="node">
<title>Node7</title>
<g id="a_node7"><a xlink:href="../../d4/de1/classG4GMocrenIO.html#a2d3129f366c6598a3b82ccbf7c785a98" target="_top" xlink:title="G4GMocrenIO::retrieveData">
<polygon fill="none" stroke="#000000" points="423.5,-78.5 423.5,-98.5 578.5,-98.5 578.5,-78.5 423.5,-78.5"/>
<text text-anchor="middle" x="501" y="-85.5" font-family="FreeSans" font-size="10.00" fill="#000000">G4GMocrenIO::retrieveData</text>
</a>
</g>
</g>
<!-- Node6&#45;&gt;Node7 -->
<g id="edge6" class="edge">
<title>Node6&#45;&gt;Node7</title>
<path fill="none" stroke="#191970" d="M392.3667,-93.9317C402.7323,-93.4134 413.2225,-92.8889 423.3874,-92.3806"/>
<polygon fill="#191970" stroke="#191970" points="391.872,-90.4519 382.0593,-94.447 392.2217,-97.4432 391.872,-90.4519"/>
</g>
<!-- Node8 -->
<g id="node8" class="node">
<title>Node8</title>
<g id="a_node8"><a xlink:href="../../d4/de1/classG4GMocrenIO.html#af691bb580f90f23590be8859013e7b29" target="_top" xlink:title="G4GMocrenIO::retrieveData">
<polygon fill="none" stroke="#000000" points="631,-117.5 631,-137.5 786,-137.5 786,-117.5 631,-117.5"/>
<text text-anchor="middle" x="708.5" y="-124.5" font-family="FreeSans" font-size="10.00" fill="#000000">G4GMocrenIO::retrieveData</text>
</a>
</g>
</g>
<!-- Node7&#45;&gt;Node8 -->
<g id="edge7" class="edge">
<title>Node7&#45;&gt;Node8</title>
<path fill="none" stroke="#191970" d="M564.4838,-100.4319C593.5296,-105.8911 627.5592,-112.287 655.2447,-117.4906"/>
<polygon fill="#191970" stroke="#191970" points="564.9109,-96.951 554.4364,-98.5435 563.6178,-103.8305 564.9109,-96.951"/>
</g>
<!-- Node9 -->
<g id="node9" class="node">
<title>Node9</title>
<g id="a_node9"><a xlink:href="../../d4/de1/classG4GMocrenIO.html#acd5c33960ea02bc59173b079fe68c299" target="_top" xlink:title="G4GMocrenIO::retrieveData2">
<polygon fill="none" stroke="#000000" points="627.5,-78.5 627.5,-98.5 789.5,-98.5 789.5,-78.5 627.5,-78.5"/>
<text text-anchor="middle" x="708.5" y="-85.5" font-family="FreeSans" font-size="10.00" fill="#000000">G4GMocrenIO::retrieveData2</text>
</a>
</g>
</g>
<!-- Node7&#45;&gt;Node9 -->
<g id="edge8" class="edge">
<title>Node7&#45;&gt;Node9</title>
<path fill="none" stroke="#191970" d="M588.7147,-88.5C601.484,-88.5 614.5853,-88.5 627.2197,-88.5"/>
<polygon fill="#191970" stroke="#191970" points="588.5605,-85.0001 578.5604,-88.5 588.5604,-92.0001 588.5605,-85.0001"/>
</g>
<!-- Node10 -->
<g id="node10" class="node">
<title>Node10</title>
<g id="a_node10"><a xlink:href="../../d4/de1/classG4GMocrenIO.html#a4c823aeb4b797e9be61c0005cbe374f2" target="_top" xlink:title="G4GMocrenIO::retrieveData3">
<polygon fill="none" stroke="#000000" points="627.5,-39.5 627.5,-59.5 789.5,-59.5 789.5,-39.5 627.5,-39.5"/>
<text text-anchor="middle" x="708.5" y="-46.5" font-family="FreeSans" font-size="10.00" fill="#000000">G4GMocrenIO::retrieveData3</text>
</a>
</g>
</g>
<!-- Node7&#45;&gt;Node10 -->
<g id="edge9" class="edge">
<title>Node7&#45;&gt;Node10</title>
<path fill="none" stroke="#191970" d="M564.4838,-76.5681C593.5296,-71.1089 627.5592,-64.713 655.2447,-59.5094"/>
<polygon fill="#191970" stroke="#191970" points="563.6178,-73.1695 554.4364,-78.4565 564.9109,-80.049 563.6178,-73.1695"/>
</g>
<!-- Node11 -->
<g id="node11" class="node">
<title>Node11</title>
<g id="a_node11"><a xlink:href="../../d4/de1/classG4GMocrenIO.html#a69718061eef9d007ea1c9b810ed42326" target="_top" xlink:title="G4GMocrenIO::retrieveData4">
<polygon fill="none" stroke="#000000" points="627.5,-.5 627.5,-20.5 789.5,-20.5 789.5,-.5 627.5,-.5"/>
<text text-anchor="middle" x="708.5" y="-7.5" font-family="FreeSans" font-size="10.00" fill="#000000">G4GMocrenIO::retrieveData4</text>
</a>
</g>
</g>
<!-- Node7&#45;&gt;Node11 -->
<g id="edge10" class="edge">
<title>Node7&#45;&gt;Node11</title>
<path fill="none" stroke="#191970" d="M527.3721,-73.2759C550.7836,-60.317 586.2591,-42.0208 619,-30.5 630.1139,-26.5893 642.2809,-23.2683 653.9636,-20.5229"/>
<polygon fill="#191970" stroke="#191970" points="525.4305,-70.3519 518.4211,-78.2966 528.855,-76.4571 525.4305,-70.3519"/>
</g>
</g>
</svg>
