<?xml version="1.0" encoding="UTF-8" standalone="no"?>
<!DOCTYPE svg PUBLIC "-//W3C//DTD SVG 1.1//EN"
 "http://www.w3.org/Graphics/SVG/1.1/DTD/svg11.dtd">
<!-- Generated by graphviz version 2.40.1 (20161225.0304)
 -->
<!-- Title: acts/blob/master/Fatras/include/ActsFatras/Kernel/Interactor.hpp Pages: 1 -->
<svg width="439pt" height="215pt"
 viewBox="0.00 0.00 438.50 215.00" xmlns="http://www.w3.org/2000/svg" xmlns:xlink="http://www.w3.org/1999/xlink">
<g id="graph0" class="graph" transform="scale(1 1) rotate(0) translate(4 211)">
<title>acts/blob/master/Fatras/include/ActsFatras/Kernel/Interactor.hpp</title>
<!-- Node1 -->
<g id="node1" class="node">
<title>Node1</title>
<polygon fill="#bfbfbf" stroke="#000000" points="209.5,-162.5 209.5,-206.5 356.5,-206.5 356.5,-162.5 209.5,-162.5"/>
<text text-anchor="start" x="217.5" y="-193.5" font-family="FreeSans" font-size="10.00" fill="#000000">acts/blob/master/Fatras</text>
<text text-anchor="start" x="217.5" y="-181.5" font-family="FreeSans" font-size="10.00" fill="#000000">/include/ActsFatras/Kernel</text>
<text text-anchor="middle" x="283" y="-169.5" font-family="FreeSans" font-size="10.00" fill="#000000">/Interactor.hpp</text>
</g>
<!-- Node2 -->
<g id="node2" class="node">
<title>Node2</title>
<g id="a_node2"><a xlink:href="../../de/d43/Simulator_8hpp.html" target="_top" xlink:title="acts/blob/master/Fatras\l/include/ActsFatras/Kernel\l/Simulator.hpp">
<polygon fill="none" stroke="#000000" points="130.5,-81.5 130.5,-125.5 277.5,-125.5 277.5,-81.5 130.5,-81.5"/>
<text text-anchor="start" x="138.5" y="-112.5" font-family="FreeSans" font-size="10.00" fill="#000000">acts/blob/master/Fatras</text>
<text text-anchor="start" x="138.5" y="-100.5" font-family="FreeSans" font-size="10.00" fill="#000000">/include/ActsFatras/Kernel</text>
<text text-anchor="middle" x="204" y="-88.5" font-family="FreeSans" font-size="10.00" fill="#000000">/Simulator.hpp</text>
</a>
</g>
</g>
<!-- Node1&#45;&gt;Node2 -->
<g id="edge1" class="edge">
<title>Node1&#45;&gt;Node2</title>
<path fill="none" stroke="#191970" d="M254.3618,-155.1368C244.8563,-145.3906 234.4408,-134.7114 225.561,-125.6068"/>
<polygon fill="#191970" stroke="#191970" points="251.9251,-157.6512 261.4129,-162.3664 256.9364,-152.7637 251.9251,-157.6512"/>
</g>
<!-- Node5 -->
<g id="node5" class="node">
<title>Node5</title>
<g id="a_node5"><a xlink:href="../../d7/ddd/InteractorTests_8cpp.html" target="_top" xlink:title="acts/blob/master/Tests\l/UnitTests/Fatras/Kernel\l/InteractorTests.cpp">
<polygon fill="none" stroke="#000000" points="295.5,-81.5 295.5,-125.5 430.5,-125.5 430.5,-81.5 295.5,-81.5"/>
<text text-anchor="start" x="303.5" y="-112.5" font-family="FreeSans" font-size="10.00" fill="#000000">acts/blob/master/Tests</text>
<text text-anchor="start" x="303.5" y="-100.5" font-family="FreeSans" font-size="10.00" fill="#000000">/UnitTests/Fatras/Kernel</text>
<text text-anchor="middle" x="363" y="-88.5" font-family="FreeSans" font-size="10.00" fill="#000000">/InteractorTests.cpp</text>
</a>
</g>
</g>
<!-- Node1&#45;&gt;Node5 -->
<g id="edge4" class="edge">
<title>Node1&#45;&gt;Node5</title>
<path fill="none" stroke="#191970" d="M312.0007,-155.1368C321.6266,-145.3906 332.1739,-134.7114 341.1661,-125.6068"/>
<polygon fill="#191970" stroke="#191970" points="309.3972,-152.7921 304.8604,-162.3664 314.3776,-157.711 309.3972,-152.7921"/>
</g>
<!-- Node3 -->
<g id="node3" class="node">
<title>Node3</title>
<g id="a_node3"><a xlink:href="../../d8/d55/FatrasSimulationBase_8cpp.html" target="_top" xlink:title="acts/blob/master/Examples\l/Run/Fatras/Common/FatrasSimulation\lBase.cpp">
<polygon fill="none" stroke="#000000" points="0,-.5 0,-44.5 210,-44.5 210,-.5 0,-.5"/>
<text text-anchor="start" x="8" y="-31.5" font-family="FreeSans" font-size="10.00" fill="#000000">acts/blob/master/Examples</text>
<text text-anchor="start" x="8" y="-19.5" font-family="FreeSans" font-size="10.00" fill="#000000">/Run/Fatras/Common/FatrasSimulation</text>
<text text-anchor="middle" x="105" y="-7.5" font-family="FreeSans" font-size="10.00" fill="#000000">Base.cpp</text>
</a>
</g>
</g>
<!-- Node2&#45;&gt;Node3 -->
<g id="edge2" class="edge">
<title>Node2&#45;&gt;Node3</title>
<path fill="none" stroke="#191970" d="M169.1597,-74.9943C156.9691,-65.0201 143.4746,-53.9792 132.0195,-44.6068"/>
<polygon fill="#191970" stroke="#191970" points="166.9919,-77.7428 176.9478,-81.3664 171.4246,-72.3251 166.9919,-77.7428"/>
</g>
<!-- Node4 -->
<g id="node4" class="node">
<title>Node4</title>
<g id="a_node4"><a xlink:href="../../da/d1a/FatrasSimulationTests_8cpp.html" target="_top" xlink:title="acts/blob/master/Tests\l/IntegrationTests/Fatras\l/FatrasSimulationTests.cpp">
<polygon fill="none" stroke="#000000" points="228,-.5 228,-44.5 380,-44.5 380,-.5 228,-.5"/>
<text text-anchor="start" x="236" y="-31.5" font-family="FreeSans" font-size="10.00" fill="#000000">acts/blob/master/Tests</text>
<text text-anchor="start" x="236" y="-19.5" font-family="FreeSans" font-size="10.00" fill="#000000">/IntegrationTests/Fatras</text>
<text text-anchor="middle" x="304" y="-7.5" font-family="FreeSans" font-size="10.00" fill="#000000">/FatrasSimulationTests.cpp</text>
</a>
</g>
</g>
<!-- Node2&#45;&gt;Node4 -->
<g id="edge3" class="edge">
<title>Node2&#45;&gt;Node4</title>
<path fill="none" stroke="#191970" d="M239.1923,-74.9943C251.506,-65.0201 265.1368,-53.9792 276.7076,-44.6068"/>
<polygon fill="#191970" stroke="#191970" points="236.8931,-72.3524 231.3254,-81.3664 241.2991,-77.7919 236.8931,-72.3524"/>
</g>
</g>
</svg>
