<?xml version="1.0" encoding="UTF-8" standalone="no"?>
<!DOCTYPE svg PUBLIC "-//W3C//DTD SVG 1.1//EN"
 "http://www.w3.org/Graphics/SVG/1.1/DTD/svg11.dtd">
<!-- Generated by graphviz version 2.40.1 (20161225.0304)
 -->
<!-- Title: G4OpenInventorX Pages: 1 -->
<svg width="128pt" height="200pt"
 viewBox="0.00 0.00 128.00 200.00" xmlns="http://www.w3.org/2000/svg" xmlns:xlink="http://www.w3.org/1999/xlink">
<g id="graph0" class="graph" transform="scale(1 1) rotate(0) translate(4 196)">
<title>G4OpenInventorX</title>
<!-- Node1 -->
<g id="node1" class="node">
<title>Node1</title>
<polygon fill="#bfbfbf" stroke="#000000" points="6.5,-.5 6.5,-20.5 113.5,-20.5 113.5,-.5 6.5,-.5"/>
<text text-anchor="middle" x="60" y="-7.5" font-family="FreeSans" font-size="10.00" fill="#000000">G4OpenInventorX</text>
</g>
<!-- Node2 -->
<g id="node2" class="node">
<title>Node2</title>
<g id="a_node2"><a xlink:href="../../d8/dc0/classG4OpenInventorXt.html" target="_top" xlink:title="G4OpenInventorXt">
<polygon fill="none" stroke="#000000" points="4.5,-57.5 4.5,-77.5 115.5,-77.5 115.5,-57.5 4.5,-57.5"/>
<text text-anchor="middle" x="60" y="-64.5" font-family="FreeSans" font-size="10.00" fill="#000000">G4OpenInventorXt</text>
</a>
</g>
</g>
<!-- Node2&#45;&gt;Node1 -->
<g id="edge1" class="edge">
<title>Node2&#45;&gt;Node1</title>
<path fill="none" stroke="#191970" d="M60,-47.1771C60,-38.1625 60,-27.9556 60,-20.6022"/>
<polygon fill="#191970" stroke="#191970" points="56.5001,-47.3095 60,-57.3095 63.5001,-47.3096 56.5001,-47.3095"/>
</g>
<!-- Node3 -->
<g id="node3" class="node">
<title>Node3</title>
<g id="a_node3"><a xlink:href="../../d4/dfc/classG4OpenInventor.html" target="_top" xlink:title="G4OpenInventor">
<polygon fill="none" stroke="#000000" points="10,-114.5 10,-134.5 110,-134.5 110,-114.5 10,-114.5"/>
<text text-anchor="middle" x="60" y="-121.5" font-family="FreeSans" font-size="10.00" fill="#000000">G4OpenInventor</text>
</a>
</g>
</g>
<!-- Node3&#45;&gt;Node2 -->
<g id="edge2" class="edge">
<title>Node3&#45;&gt;Node2</title>
<path fill="none" stroke="#191970" d="M60,-104.1771C60,-95.1625 60,-84.9556 60,-77.6022"/>
<polygon fill="#191970" stroke="#191970" points="56.5001,-104.3095 60,-114.3095 63.5001,-104.3096 56.5001,-104.3095"/>
</g>
<!-- Node4 -->
<g id="node4" class="node">
<title>Node4</title>
<g id="a_node4"><a xlink:href="../../df/d51/classG4VGraphicsSystem.html" target="_top" xlink:title="G4VGraphicsSystem">
<polygon fill="none" stroke="#000000" points="0,-171.5 0,-191.5 120,-191.5 120,-171.5 0,-171.5"/>
<text text-anchor="middle" x="60" y="-178.5" font-family="FreeSans" font-size="10.00" fill="#000000">G4VGraphicsSystem</text>
</a>
</g>
</g>
<!-- Node4&#45;&gt;Node3 -->
<g id="edge3" class="edge">
<title>Node4&#45;&gt;Node3</title>
<path fill="none" stroke="#191970" d="M60,-161.1771C60,-152.1625 60,-141.9556 60,-134.6022"/>
<polygon fill="#191970" stroke="#191970" points="56.5001,-161.3095 60,-171.3095 63.5001,-161.3096 56.5001,-161.3095"/>
</g>
</g>
</svg>
