<?xml version="1.0" encoding="UTF-8" standalone="no"?>
<!DOCTYPE svg PUBLIC "-//W3C//DTD SVG 1.1//EN"
 "http://www.w3.org/Graphics/SVG/1.1/DTD/svg11.dtd">
<!-- Generated by graphviz version 2.40.1 (20161225.0304)
 -->
<!-- Title: Fun4AllServer::process_event Pages: 1 -->
<svg width="892pt" height="760pt"
 viewBox="0.00 0.00 892.00 760.00" xmlns="http://www.w3.org/2000/svg" xmlns:xlink="http://www.w3.org/1999/xlink">
<g id="graph0" class="graph" transform="scale(1 1) rotate(0) translate(4 756)">
<title>Fun4AllServer::process_event</title>
<!-- Node1 -->
<g id="node1" class="node">
<title>Node1</title>
<polygon fill="#bfbfbf" stroke="#000000" points="0,-406.5 0,-438.5 132,-438.5 132,-406.5 0,-406.5"/>
<text text-anchor="start" x="8" y="-425.5" font-family="FreeSans" font-size="10.00" fill="#000000">Fun4AllServer::process</text>
<text text-anchor="middle" x="66" y="-413.5" font-family="FreeSans" font-size="10.00" fill="#000000">_event</text>
</g>
<!-- Node2 -->
<g id="node2" class="node">
<title>Node2</title>
<g id="a_node2"><a xlink:href="../../da/d29/classFun4AllServer.html#a6f3f13c3a8b5c29457e694ba910296aa" target="_top" xlink:title="Fun4AllServer::CountOutNodes">
<polygon fill="none" stroke="#000000" points="168,-502.5 168,-522.5 341,-522.5 341,-502.5 168,-502.5"/>
<text text-anchor="middle" x="254.5" y="-509.5" font-family="FreeSans" font-size="10.00" fill="#000000">Fun4AllServer::CountOutNodes</text>
</a>
</g>
</g>
<!-- Node1&#45;&gt;Node2 -->
<g id="edge1" class="edge">
<title>Node1&#45;&gt;Node2</title>
<path fill="none" stroke="#191970" d="M99.7,-438.5902C134.9761,-455.4329 189.8773,-481.6457 223.9341,-497.9062"/>
<polygon fill="#191970" stroke="#191970" points="222.8391,-501.2618 233.3713,-502.412 225.8551,-494.9449 222.8391,-501.2618"/>
</g>
<!-- Node7 -->
<g id="node7" class="node">
<title>Node7</title>
<g id="a_node7"><a xlink:href="../../d5/dec/classFun4AllBase.html#a8a5c77a92bdac6bc043476e132379a40" target="_top" xlink:title="Gets the verbosity of this module.">
<polygon fill="none" stroke="#000000" points="587,-249.5 587,-269.5 719,-269.5 719,-249.5 587,-249.5"/>
<text text-anchor="middle" x="653" y="-256.5" font-family="FreeSans" font-size="10.00" fill="#000000">Fun4AllBase::Verbosity</text>
</a>
</g>
</g>
<!-- Node1&#45;&gt;Node7 -->
<g id="edge49" class="edge">
<title>Node1&#45;&gt;Node7</title>
<path fill="none" stroke="#191970" d="M132.1909,-407.854C245.6564,-382.4986 472.5601,-330.638 550,-304.5 575.5383,-295.8802 603.5031,-283.4618 623.8413,-273.8533"/>
<polygon fill="#191970" stroke="#191970" points="625.3789,-276.9977 632.8904,-269.5259 622.3589,-270.6826 625.3789,-276.9977"/>
</g>
<!-- Node8 -->
<g id="node8" class="node">
<title>Node8</title>
<g id="a_node8"><a xlink:href="../../d0/d12/namespaceg4zmq.html#ac0a320baaea2957915124839b1e2be53" target="_top" xlink:title="g4zmq.exit">
<polygon fill="none" stroke="#000000" points="218,-625.5 218,-645.5 291,-645.5 291,-625.5 218,-625.5"/>
<text text-anchor="middle" x="254.5" y="-632.5" font-family="FreeSans" font-size="10.00" fill="#000000">g4zmq.exit</text>
</a>
</g>
</g>
<!-- Node1&#45;&gt;Node8 -->
<g id="edge7" class="edge">
<title>Node1&#45;&gt;Node8</title>
<path fill="none" stroke="#191970" d="M71.9562,-438.7277C84.8097,-471.7898 118.0806,-547.6906 168,-593.5 181.1398,-605.5579 198.376,-614.8661 214.0017,-621.6198"/>
<polygon fill="#191970" stroke="#191970" points="212.8912,-624.947 223.4718,-625.4965 215.5432,-618.4688 212.8912,-624.947"/>
</g>
<!-- Node10 -->
<g id="node10" class="node">
<title>Node10</title>
<g id="a_node10"><a xlink:href="../../d5/d07/classPHNodeIterator.html#aea98bf8619af59b1212a94fb32106baa" target="_top" xlink:title="PHNodeIterator::findFirst">
<polygon fill="none" stroke="#000000" points="393,-596.5 393,-616.5 534,-616.5 534,-596.5 393,-596.5"/>
<text text-anchor="middle" x="463.5" y="-603.5" font-family="FreeSans" font-size="10.00" fill="#000000">PHNodeIterator::findFirst</text>
</a>
</g>
</g>
<!-- Node1&#45;&gt;Node10 -->
<g id="edge9" class="edge">
<title>Node1&#45;&gt;Node10</title>
<path fill="none" stroke="#191970" d="M76.7616,-438.896C93.4068,-462.9286 127.7156,-507.4649 168,-531.5 234.0915,-570.9326 320.4363,-589.7665 382.7051,-598.6799"/>
<polygon fill="#191970" stroke="#191970" points="382.4896,-602.1832 392.8732,-600.0782 383.4432,-595.2484 382.4896,-602.1832"/>
</g>
<!-- Node13 -->
<g id="node13" class="node">
<title>Node13</title>
<g id="a_node13"><a xlink:href="../../da/d29/classFun4AllServer.html#a92c6fe0e0c19c48d2b1f9d0f63c12bbe" target="_top" xlink:title="Fun4AllServer::MakeNodes\lTransient">
<polygon fill="none" stroke="#000000" points="178.5,-673.5 178.5,-705.5 330.5,-705.5 330.5,-673.5 178.5,-673.5"/>
<text text-anchor="start" x="186.5" y="-692.5" font-family="FreeSans" font-size="10.00" fill="#000000">Fun4AllServer::MakeNodes</text>
<text text-anchor="middle" x="254.5" y="-680.5" font-family="FreeSans" font-size="10.00" fill="#000000">Transient</text>
</a>
</g>
</g>
<!-- Node1&#45;&gt;Node13 -->
<g id="edge13" class="edge">
<title>Node1&#45;&gt;Node13</title>
<path fill="none" stroke="#191970" d="M68.7677,-438.6701C76.6766,-480.1568 103.122,-591.5228 168,-654.5 173.7213,-660.0537 180.44,-664.7656 187.5612,-668.7541"/>
<polygon fill="#191970" stroke="#191970" points="186.2516,-672.0147 196.7518,-673.4283 189.425,-665.7753 186.2516,-672.0147"/>
</g>
<!-- Node14 -->
<g id="node14" class="node">
<title>Node14</title>
<g id="a_node14"><a xlink:href="../../d5/d07/classPHNodeIterator.html#aec2fbc1e56be7e1a0b064ecde48edee5" target="_top" xlink:title="PHNodeIterator::print">
<polygon fill="none" stroke="#000000" points="192.5,-728.5 192.5,-748.5 316.5,-748.5 316.5,-728.5 192.5,-728.5"/>
<text text-anchor="middle" x="254.5" y="-735.5" font-family="FreeSans" font-size="10.00" fill="#000000">PHNodeIterator::print</text>
</a>
</g>
</g>
<!-- Node1&#45;&gt;Node14 -->
<g id="edge15" class="edge">
<title>Node1&#45;&gt;Node14</title>
<path fill="none" stroke="#191970" d="M66.6404,-438.5159C69.4882,-487.4977 84.9132,-636.6781 168,-714.5 172.4449,-718.6633 177.5485,-722.1148 183.0059,-724.9748"/>
<polygon fill="#191970" stroke="#191970" points="181.9166,-728.3232 192.4707,-729.2507 184.7986,-721.944 181.9166,-728.3232"/>
</g>
<!-- Node17 -->
<g id="node17" class="node">
<title>Node17</title>
<g id="a_node17"><a xlink:href="../../da/d29/classFun4AllServer.html#ab2479a9a3e45d51118e308597acd5228" target="_top" xlink:title="Fun4AllServer::ResetNodeTree">
<polygon fill="none" stroke="#000000" points="170,-412.5 170,-432.5 339,-432.5 339,-412.5 170,-412.5"/>
<text text-anchor="middle" x="254.5" y="-419.5" font-family="FreeSans" font-size="10.00" fill="#000000">Fun4AllServer::ResetNodeTree</text>
</a>
</g>
</g>
<!-- Node1&#45;&gt;Node17 -->
<g id="edge18" class="edge">
<title>Node1&#45;&gt;Node17</title>
<path fill="none" stroke="#191970" d="M132.193,-422.5C141.152,-422.5 150.4832,-422.5 159.82,-422.5"/>
<polygon fill="#191970" stroke="#191970" points="159.9363,-426.0001 169.9363,-422.5 159.9363,-419.0001 159.9363,-426.0001"/>
</g>
<!-- Node25 -->
<g id="node25" class="node">
<title>Node25</title>
<g id="a_node25"><a xlink:href="../../d7/d96/classFun4AllMemoryTracker.html#a8b53144fdababa4ca9bd29efef891c05" target="_top" xlink:title="Fun4AllMemoryTracker\l::Snapshot">
<polygon fill="none" stroke="#000000" points="188.5,-278.5 188.5,-310.5 320.5,-310.5 320.5,-278.5 188.5,-278.5"/>
<text text-anchor="start" x="196.5" y="-297.5" font-family="FreeSans" font-size="10.00" fill="#000000">Fun4AllMemoryTracker</text>
<text text-anchor="middle" x="254.5" y="-285.5" font-family="FreeSans" font-size="10.00" fill="#000000">::Snapshot</text>
</a>
</g>
</g>
<!-- Node1&#45;&gt;Node25 -->
<g id="edge31" class="edge">
<title>Node1&#45;&gt;Node25</title>
<path fill="none" stroke="#191970" d="M80.0793,-406.2378C98.5242,-385.7675 132.693,-350.614 168,-328.5 176.4101,-323.2325 185.7715,-318.5336 195.1418,-314.4342"/>
<polygon fill="#191970" stroke="#191970" points="196.6005,-317.6181 204.4802,-310.5357 193.9037,-311.1584 196.6005,-317.6181"/>
</g>
<!-- Node28 -->
<g id="node28" class="node">
<title>Node28</title>
<g id="a_node28"><a xlink:href="../../d7/d96/classFun4AllMemoryTracker.html#a3841cc0bc6c4047da2b4868ba39dbb8c" target="_top" xlink:title="Fun4AllMemoryTracker\l::Start">
<polygon fill="none" stroke="#000000" points="188.5,-221.5 188.5,-253.5 320.5,-253.5 320.5,-221.5 188.5,-221.5"/>
<text text-anchor="start" x="196.5" y="-240.5" font-family="FreeSans" font-size="10.00" fill="#000000">Fun4AllMemoryTracker</text>
<text text-anchor="middle" x="254.5" y="-228.5" font-family="FreeSans" font-size="10.00" fill="#000000">::Start</text>
</a>
</g>
</g>
<!-- Node1&#45;&gt;Node28 -->
<g id="edge35" class="edge">
<title>Node1&#45;&gt;Node28</title>
<path fill="none" stroke="#191970" d="M72.6424,-406.0492C86.0533,-374.8261 119.2941,-306.6895 168,-268.5 173.0254,-264.5596 178.5943,-261.0936 184.4138,-258.0499"/>
<polygon fill="#191970" stroke="#191970" points="186.2056,-261.073 193.7229,-253.607 183.1905,-254.7556 186.2056,-261.073"/>
</g>
<!-- Node29 -->
<g id="node29" class="node">
<title>Node29</title>
<g id="a_node29"><a xlink:href="../../d7/d96/classFun4AllMemoryTracker.html#a766ac66dd36ffa4e3fbe6e622923565f" target="_top" xlink:title="Fun4AllMemoryTracker\l::Stop">
<polygon fill="none" stroke="#000000" points="188.5,-157.5 188.5,-189.5 320.5,-189.5 320.5,-157.5 188.5,-157.5"/>
<text text-anchor="start" x="196.5" y="-176.5" font-family="FreeSans" font-size="10.00" fill="#000000">Fun4AllMemoryTracker</text>
<text text-anchor="middle" x="254.5" y="-164.5" font-family="FreeSans" font-size="10.00" fill="#000000">::Stop</text>
</a>
</g>
</g>
<!-- Node1&#45;&gt;Node29 -->
<g id="edge39" class="edge">
<title>Node1&#45;&gt;Node29</title>
<path fill="none" stroke="#191970" d="M69.6603,-406.4853C79.2438,-367.916 108.5437,-268.8326 168,-211.5 175.173,-204.5833 183.8127,-198.8094 192.8191,-194.0254"/>
<polygon fill="#191970" stroke="#191970" points="194.4715,-197.1133 201.907,-189.5657 191.3877,-190.8291 194.4715,-197.1133"/>
</g>
<!-- Node30 -->
<g id="node30" class="node">
<title>Node30</title>
<g id="a_node30"><a xlink:href="../../da/d29/classFun4AllServer.html#a3a4e3f448388cb2e68b085e9038feaf8" target="_top" xlink:title="Fun4AllServer::unregister\lSubsystemsNow">
<polygon fill="none" stroke="#000000" points="181.5,-70.5 181.5,-102.5 327.5,-102.5 327.5,-70.5 181.5,-70.5"/>
<text text-anchor="start" x="189.5" y="-89.5" font-family="FreeSans" font-size="10.00" fill="#000000">Fun4AllServer::unregister</text>
<text text-anchor="middle" x="254.5" y="-77.5" font-family="FreeSans" font-size="10.00" fill="#000000">SubsystemsNow</text>
</a>
</g>
</g>
<!-- Node1&#45;&gt;Node30 -->
<g id="edge43" class="edge">
<title>Node1&#45;&gt;Node30</title>
<path fill="none" stroke="#191970" d="M68.5442,-406.3009C76.3118,-361.1412 103.2506,-231.6415 168,-147.5 180.2924,-131.5261 197.931,-118.0422 214.0778,-107.847"/>
<polygon fill="#191970" stroke="#191970" points="216.1157,-110.7045 222.8514,-102.5264 212.4859,-104.7191 216.1157,-110.7045"/>
</g>
<!-- Node3 -->
<g id="node3" class="node">
<title>Node3</title>
<g id="a_node3"><a xlink:href="../../da/d29/classFun4AllServer.html#a3654ebdcb099bcc5c820df6d4952663c" target="_top" xlink:title="Fun4AllServer::CountOutNodes\lRecursive">
<polygon fill="none" stroke="#000000" points="377,-545.5 377,-577.5 550,-577.5 550,-545.5 377,-545.5"/>
<text text-anchor="start" x="385" y="-564.5" font-family="FreeSans" font-size="10.00" fill="#000000">Fun4AllServer::CountOutNodes</text>
<text text-anchor="middle" x="463.5" y="-552.5" font-family="FreeSans" font-size="10.00" fill="#000000">Recursive</text>
</a>
</g>
</g>
<!-- Node2&#45;&gt;Node3 -->
<g id="edge2" class="edge">
<title>Node2&#45;&gt;Node3</title>
<path fill="none" stroke="#191970" d="M297.2986,-522.5341C322.6205,-528.4708 355.4728,-536.1731 385.2759,-543.1604"/>
<polygon fill="#191970" stroke="#191970" points="384.7159,-546.6239 395.2509,-545.499 386.3138,-539.8087 384.7159,-546.6239"/>
</g>
<!-- Node4 -->
<g id="node4" class="node">
<title>Node4</title>
<g id="a_node4"><a xlink:href="../../d5/d07/classPHNodeIterator.html#a110a5b87a02a22deecae334f32387ffa" target="_top" xlink:title="PHNodeIterator::ls">
<polygon fill="none" stroke="#000000" points="599,-629.5 599,-649.5 707,-649.5 707,-629.5 599,-629.5"/>
<text text-anchor="middle" x="653" y="-636.5" font-family="FreeSans" font-size="10.00" fill="#000000">PHNodeIterator::ls</text>
</a>
</g>
</g>
<!-- Node3&#45;&gt;Node4 -->
<g id="edge3" class="edge">
<title>Node3&#45;&gt;Node4</title>
<path fill="none" stroke="#191970" d="M524.4978,-577.5145C533.1499,-580.252 541.865,-583.2669 550,-586.5 577.2269,-597.3208 606.8227,-612.9904 627.2734,-624.4855"/>
<polygon fill="#191970" stroke="#191970" points="625.562,-627.5387 635.9847,-629.4409 629.0232,-621.4542 625.562,-627.5387"/>
</g>
<!-- Node3&#45;&gt;Node7 -->
<g id="edge6" class="edge">
<title>Node3&#45;&gt;Node7</title>
<path fill="none" stroke="#191970" d="M537.4572,-545.3917C542.039,-542.599 546.2896,-539.3287 550,-535.5 593.2146,-490.9074 564.5849,-458.7872 586,-400.5 602.4929,-355.6101 628.0818,-305.613 642.3912,-278.8772"/>
<polygon fill="#191970" stroke="#191970" points="645.606,-280.2901 647.2807,-269.8285 639.4476,-276.9624 645.606,-280.2901"/>
</g>
<!-- Node5 -->
<g id="node5" class="node">
<title>Node5</title>
<g id="a_node5"><a xlink:href="../../d6/d86/classPHPointerList.html#a560c9339d74f28f604d07dcb10a2e0be" target="_top" xlink:title="PHPointerList::clear">
<polygon fill="none" stroke="#000000" points="762.5,-648.5 762.5,-668.5 877.5,-668.5 877.5,-648.5 762.5,-648.5"/>
<text text-anchor="middle" x="820" y="-655.5" font-family="FreeSans" font-size="10.00" fill="#000000">PHPointerList::clear</text>
</a>
</g>
</g>
<!-- Node4&#45;&gt;Node5 -->
<g id="edge4" class="edge">
<title>Node4&#45;&gt;Node5</title>
<path fill="none" stroke="#191970" d="M707.2201,-645.6688C721.5359,-647.2975 737.1664,-649.0758 752.1058,-650.7755"/>
<polygon fill="#191970" stroke="#191970" points="751.9818,-654.2839 762.3134,-651.9369 752.7732,-647.3288 751.9818,-654.2839"/>
</g>
<!-- Node6 -->
<g id="node6" class="node">
<title>Node6</title>
<g id="a_node6"><a xlink:href="../../d6/d86/classPHPointerList.html#ac2176735e9d046a034f1686fd2c477eb" target="_top" xlink:title="PHPointerList::append">
<polygon fill="none" stroke="#000000" points="756,-609.5 756,-629.5 884,-629.5 884,-609.5 756,-609.5"/>
<text text-anchor="middle" x="820" y="-616.5" font-family="FreeSans" font-size="10.00" fill="#000000">PHPointerList::append</text>
</a>
</g>
</g>
<!-- Node4&#45;&gt;Node6 -->
<g id="edge5" class="edge">
<title>Node4&#45;&gt;Node6</title>
<path fill="none" stroke="#191970" d="M707.2201,-633.0066C719.4696,-631.5396 732.6817,-629.9573 745.5998,-628.4102"/>
<polygon fill="#191970" stroke="#191970" points="746.36,-631.8443 755.8728,-627.1799 745.5276,-624.8939 746.36,-631.8443"/>
</g>
<!-- Node9 -->
<g id="node9" class="node">
<title>Node9</title>
<g id="a_node9"><a xlink:href="../../d8/d03/G4ecpssrBaseKxsModel_8cc.html#afca89815e8ce05521ca0a7ec9bd17385" target="_top" xlink:title="print">
<polygon fill="none" stroke="#000000" points="443.5,-653.5 443.5,-673.5 483.5,-673.5 483.5,-653.5 443.5,-653.5"/>
<text text-anchor="middle" x="463.5" y="-660.5" font-family="FreeSans" font-size="10.00" fill="#000000">print</text>
</a>
</g>
</g>
<!-- Node8&#45;&gt;Node9 -->
<g id="edge8" class="edge">
<title>Node8&#45;&gt;Node9</title>
<path fill="none" stroke="#191970" d="M291.3839,-640.4414C331.7008,-645.8427 395.5493,-654.3966 433.1014,-659.4275"/>
<polygon fill="#191970" stroke="#191970" points="433.0292,-662.949 443.4054,-660.8079 433.9587,-656.011 433.0292,-662.949"/>
</g>
<!-- Node10&#45;&gt;Node10 -->
<g id="edge12" class="edge">
<title>Node10&#45;&gt;Node10</title>
<path fill="none" stroke="#191970" d="M434.0676,-616.7271C420.6423,-625.6067 430.4531,-635 463.5,-635 486.2197,-635 497.9568,-630.5602 498.7111,-624.8999"/>
<polygon fill="#191970" stroke="#191970" points="501.5635,-622.8715 492.9324,-616.7271 495.8479,-626.9129 501.5635,-622.8715"/>
</g>
<!-- Node11 -->
<g id="node11" class="node">
<title>Node11</title>
<g id="a_node11"><a xlink:href="../../dc/d82/classPHNode.html#a4ab1f90aed955a652813bfe377087bda" target="_top" xlink:title="PHNode::getType">
<polygon fill="none" stroke="#000000" points="601.5,-527.5 601.5,-547.5 704.5,-547.5 704.5,-527.5 601.5,-527.5"/>
<text text-anchor="middle" x="653" y="-534.5" font-family="FreeSans" font-size="10.00" fill="#000000">PHNode::getType</text>
</a>
</g>
</g>
<!-- Node10&#45;&gt;Node11 -->
<g id="edge10" class="edge">
<title>Node10&#45;&gt;Node11</title>
<path fill="none" stroke="#191970" d="M515.2509,-596.4639C526.8223,-593.6884 538.9393,-590.3583 550,-586.5 576.6328,-577.2097 605.5162,-563.0877 625.9003,-552.3871"/>
<polygon fill="#191970" stroke="#191970" points="627.7213,-555.3828 634.9028,-547.5934 624.4312,-549.2042 627.7213,-555.3828"/>
</g>
<!-- Node12 -->
<g id="node12" class="node">
<title>Node12</title>
<g id="a_node12"><a xlink:href="../../dc/d82/classPHNode.html#aca3576f926a4401eddc3d88bf0ce0de3" target="_top" xlink:title="PHNode::getName">
<polygon fill="none" stroke="#000000" points="598.5,-488.5 598.5,-508.5 707.5,-508.5 707.5,-488.5 598.5,-488.5"/>
<text text-anchor="middle" x="653" y="-495.5" font-family="FreeSans" font-size="10.00" fill="#000000">PHNode::getName</text>
</a>
</g>
</g>
<!-- Node10&#45;&gt;Node12 -->
<g id="edge11" class="edge">
<title>Node10&#45;&gt;Node12</title>
<path fill="none" stroke="#191970" d="M532.6122,-596.4271C538.8369,-593.8139 544.7582,-590.5561 550,-586.5 577.356,-565.3317 559.172,-539.3335 586,-517.5 587.7905,-516.0428 589.6867,-514.6973 591.6627,-513.4549"/>
<polygon fill="#191970" stroke="#191970" points="593.557,-516.4124 600.7588,-508.6416 590.283,-510.2252 593.557,-516.4124"/>
</g>
<!-- Node13&#45;&gt;Node4 -->
<g id="edge14" class="edge">
<title>Node13&#45;&gt;Node4</title>
<path fill="none" stroke="#191970" d="M330.6986,-695.3673C390.9095,-698.1724 476.7174,-698.0876 550,-682.5 576.8342,-676.7922 605.4905,-664.246 625.7462,-654.171"/>
<polygon fill="#191970" stroke="#191970" points="627.3782,-657.2676 634.6972,-649.6071 624.1985,-651.0314 627.3782,-657.2676"/>
</g>
<!-- Node15 -->
<g id="node15" class="node">
<title>Node15</title>
<g id="a_node15"><a xlink:href="../../d5/dca/classPHCompositeNode.html#a41df2315a2cf9c9ebacf1767b3daab7f" target="_top" xlink:title="PHCompositeNode::print">
<polygon fill="none" stroke="#000000" points="393,-731.5 393,-751.5 534,-751.5 534,-731.5 393,-731.5"/>
<text text-anchor="middle" x="463.5" y="-738.5" font-family="FreeSans" font-size="10.00" fill="#000000">PHCompositeNode::print</text>
</a>
</g>
</g>
<!-- Node14&#45;&gt;Node15 -->
<g id="edge16" class="edge">
<title>Node14&#45;&gt;Node15</title>
<path fill="none" stroke="#191970" d="M316.641,-739.392C337.3124,-739.6887 360.6456,-740.0236 382.5273,-740.3377"/>
<polygon fill="#191970" stroke="#191970" points="382.7487,-743.8412 392.7979,-740.4851 382.8492,-736.8419 382.7487,-743.8412"/>
</g>
<!-- Node16 -->
<g id="node16" class="node">
<title>Node16</title>
<g id="a_node16"><a xlink:href="../../dc/d82/classPHNode.html#a3c79c7edb338e7d3bb86460f931793fa" target="_top" xlink:title="PHNode::print">
<polygon fill="none" stroke="#000000" points="609.5,-731.5 609.5,-751.5 696.5,-751.5 696.5,-731.5 609.5,-731.5"/>
<text text-anchor="middle" x="653" y="-738.5" font-family="FreeSans" font-size="10.00" fill="#000000">PHNode::print</text>
</a>
</g>
</g>
<!-- Node15&#45;&gt;Node16 -->
<g id="edge17" class="edge">
<title>Node15&#45;&gt;Node16</title>
<path fill="none" stroke="#191970" d="M534.0628,-741.5C555.5691,-741.5 578.8571,-741.5 599.0777,-741.5"/>
<polygon fill="#191970" stroke="#191970" points="599.3465,-745.0001 609.3465,-741.5 599.3464,-738.0001 599.3465,-745.0001"/>
</g>
<!-- Node17&#45;&gt;Node7 -->
<g id="edge20" class="edge">
<title>Node17&#45;&gt;Node7</title>
<path fill="none" stroke="#191970" d="M318.8278,-432.5275C381.8233,-439.0901 478.4976,-440.2241 550,-400.5 599.2836,-373.1199 631.3203,-311.1073 645.1589,-279.2314"/>
<polygon fill="#191970" stroke="#191970" points="648.5279,-280.2465 649.153,-269.6702 642.0688,-277.5483 648.5279,-280.2465"/>
</g>
<!-- Node18 -->
<g id="node18" class="node">
<title>Node18</title>
<g id="a_node18"><a xlink:href="../../db/d8e/classPHNodeOperation.html#a641fdf1094ec15063171e199a4066a0d" target="_top" xlink:title="PHNodeOperation::Verbosity">
<polygon fill="none" stroke="#000000" points="383,-371.5 383,-391.5 544,-391.5 544,-371.5 383,-371.5"/>
<text text-anchor="middle" x="463.5" y="-378.5" font-family="FreeSans" font-size="10.00" fill="#000000">PHNodeOperation::Verbosity</text>
</a>
</g>
</g>
<!-- Node17&#45;&gt;Node18 -->
<g id="edge19" class="edge">
<title>Node17&#45;&gt;Node18</title>
<path fill="none" stroke="#191970" d="M305.6272,-412.4703C334.7251,-406.7621 371.37,-399.5734 402.0282,-393.5591"/>
<polygon fill="#191970" stroke="#191970" points="403.0371,-396.9279 412.1763,-391.5683 401.6896,-390.0589 403.0371,-396.9279"/>
</g>
<!-- Node19 -->
<g id="node19" class="node">
<title>Node19</title>
<g id="a_node19"><a xlink:href="../../d5/d07/classPHNodeIterator.html#a63d6c37796624455366e84ee121bb251" target="_top" xlink:title="PHNodeIterator::cd">
<polygon fill="none" stroke="#000000" points="407.5,-449.5 407.5,-469.5 519.5,-469.5 519.5,-449.5 407.5,-449.5"/>
<text text-anchor="middle" x="463.5" y="-456.5" font-family="FreeSans" font-size="10.00" fill="#000000">PHNodeIterator::cd</text>
</a>
</g>
</g>
<!-- Node17&#45;&gt;Node19 -->
<g id="edge21" class="edge">
<title>Node17&#45;&gt;Node19</title>
<path fill="none" stroke="#191970" d="M311.0584,-432.5127C337.6526,-437.2208 369.5355,-442.8651 397.253,-447.7721"/>
<polygon fill="#191970" stroke="#191970" points="396.8018,-451.2465 407.2588,-449.5434 398.0221,-444.3537 396.8018,-451.2465"/>
</g>
<!-- Node24 -->
<g id="node24" class="node">
<title>Node24</title>
<g id="a_node24"><a xlink:href="../../d5/d07/classPHNodeIterator.html#afeaefab44bf0ab15a439926205924f19" target="_top" xlink:title="PHNodeIterator::forEach">
<polygon fill="none" stroke="#000000" points="394.5,-488.5 394.5,-508.5 532.5,-508.5 532.5,-488.5 394.5,-488.5"/>
<text text-anchor="middle" x="463.5" y="-495.5" font-family="FreeSans" font-size="10.00" fill="#000000">PHNodeIterator::forEach</text>
</a>
</g>
</g>
<!-- Node17&#45;&gt;Node24 -->
<g id="edge28" class="edge">
<title>Node17&#45;&gt;Node24</title>
<path fill="none" stroke="#191970" d="M273.5268,-432.6609C297.2044,-444.9595 339.1447,-465.6182 377,-478.5 385.1634,-481.2779 393.89,-483.7969 402.5435,-486.0374"/>
<polygon fill="#191970" stroke="#191970" points="401.7001,-489.4341 412.2489,-488.4476 403.3872,-482.6405 401.7001,-489.4341"/>
</g>
<!-- Node19&#45;&gt;Node11 -->
<g id="edge26" class="edge">
<title>Node19&#45;&gt;Node11</title>
<path fill="none" stroke="#191970" d="M519.8046,-466.6532C530.2718,-469.4078 540.7975,-473.2212 550,-478.5 570.4617,-490.2373 565.9857,-505.0152 586,-517.5 589.6499,-519.7768 593.5732,-521.8065 597.6242,-523.6139"/>
<polygon fill="#191970" stroke="#191970" points="596.6544,-526.9948 607.2399,-527.4393 599.242,-520.4906 596.6544,-526.9948"/>
</g>
<!-- Node19&#45;&gt;Node12 -->
<g id="edge27" class="edge">
<title>Node19&#45;&gt;Node12</title>
<path fill="none" stroke="#191970" d="M512.301,-469.5435C537.389,-474.7067 568.1479,-481.037 594.501,-486.4606"/>
<polygon fill="#191970" stroke="#191970" points="593.8641,-489.9028 604.3644,-488.4906 595.2753,-483.0465 593.8641,-489.9028"/>
</g>
<!-- Node20 -->
<g id="node20" class="node">
<title>Node20</title>
<g id="a_node20"><a xlink:href="../../dc/d82/classPHNode.html#a5c15cb20d02290b69eb4d7f6051c9722" target="_top" xlink:title="PHNode::getParent">
<polygon fill="none" stroke="#000000" points="597,-410.5 597,-430.5 709,-430.5 709,-410.5 597,-410.5"/>
<text text-anchor="middle" x="653" y="-417.5" font-family="FreeSans" font-size="10.00" fill="#000000">PHNode::getParent</text>
</a>
</g>
</g>
<!-- Node19&#45;&gt;Node20 -->
<g id="edge22" class="edge">
<title>Node19&#45;&gt;Node20</title>
<path fill="none" stroke="#191970" d="M512.301,-449.4565C537.389,-444.2933 568.1479,-437.963 594.501,-432.5394"/>
<polygon fill="#191970" stroke="#191970" points="595.2753,-435.9535 604.3644,-430.5094 593.8641,-429.0972 595.2753,-435.9535"/>
</g>
<!-- Node21 -->
<g id="node21" class="node">
<title>Node21</title>
<g id="a_node21"><a xlink:href="../../de/d31/HadrontherapyRBE_8cc.html#a113a28e3ab6abd3cfa7b104f88f37396" target="_top" xlink:title="Split string into parts using a delimiter.">
<polygon fill="none" stroke="#000000" points="634,-449.5 634,-469.5 672,-469.5 672,-449.5 634,-449.5"/>
<text text-anchor="middle" x="653" y="-456.5" font-family="FreeSans" font-size="10.00" fill="#000000">split</text>
</a>
</g>
</g>
<!-- Node19&#45;&gt;Node21 -->
<g id="edge23" class="edge">
<title>Node19&#45;&gt;Node21</title>
<path fill="none" stroke="#191970" d="M519.5871,-459.5C553.6946,-459.5 595.87,-459.5 623.5571,-459.5"/>
<polygon fill="#191970" stroke="#191970" points="623.7642,-463.0001 633.7642,-459.5 623.7642,-456.0001 623.7642,-463.0001"/>
</g>
<!-- Node22 -->
<g id="node22" class="node">
<title>Node22</title>
<g id="a_node22"><a xlink:href="../../dc/de5/PHG4mRICHDetector_8cc.html#a11ded6fc3d3fab0e72612c3886df87a0" target="_top" xlink:title="pos">
<polygon fill="none" stroke="#000000" points="803,-468.5 803,-488.5 837,-488.5 837,-468.5 803,-468.5"/>
<text text-anchor="middle" x="820" y="-475.5" font-family="FreeSans" font-size="10.00" fill="#000000">pos</text>
</a>
</g>
</g>
<!-- Node21&#45;&gt;Node22 -->
<g id="edge24" class="edge">
<title>Node21&#45;&gt;Node22</title>
<path fill="none" stroke="#191970" d="M672.157,-461.6795C701.6887,-465.0394 758.4657,-471.4991 792.4182,-475.3619"/>
<polygon fill="#191970" stroke="#191970" points="792.2446,-478.8647 802.5762,-476.5177 793.036,-471.9096 792.2446,-478.8647"/>
</g>
<!-- Node23 -->
<g id="node23" class="node">
<title>Node23</title>
<g id="a_node23"><a xlink:href="../../d5/d72/classG4String.html#aaa5bb42cc474cf37f7ebc42da259f096" target="_top" xlink:title="G4String::strip">
<polygon fill="none" stroke="#000000" points="775,-429.5 775,-449.5 865,-449.5 865,-429.5 775,-429.5"/>
<text text-anchor="middle" x="820" y="-436.5" font-family="FreeSans" font-size="10.00" fill="#000000">G4String::strip</text>
</a>
</g>
</g>
<!-- Node21&#45;&gt;Node23 -->
<g id="edge25" class="edge">
<title>Node21&#45;&gt;Node23</title>
<path fill="none" stroke="#191970" d="M672.157,-457.2057C694.5764,-454.5208 732.698,-449.9553 764.6149,-446.133"/>
<polygon fill="#191970" stroke="#191970" points="765.2189,-449.5857 774.7317,-444.9214 764.3864,-442.6354 765.2189,-449.5857"/>
</g>
<!-- Node24&#45;&gt;Node11 -->
<g id="edge29" class="edge">
<title>Node24&#45;&gt;Node11</title>
<path fill="none" stroke="#191970" d="M512.301,-508.5435C537.389,-513.7067 568.1479,-520.037 594.501,-525.4606"/>
<polygon fill="#191970" stroke="#191970" points="593.8641,-528.9028 604.3644,-527.4906 595.2753,-522.0465 593.8641,-528.9028"/>
</g>
<!-- Node24&#45;&gt;Node24 -->
<g id="edge30" class="edge">
<title>Node24&#45;&gt;Node24</title>
<path fill="none" stroke="#191970" d="M434.0676,-508.7271C420.6423,-517.6067 430.4531,-527 463.5,-527 486.2197,-527 497.9568,-522.5602 498.7111,-516.8999"/>
<polygon fill="#191970" stroke="#191970" points="501.5635,-514.8715 492.9324,-508.7271 495.8479,-518.9129 501.5635,-514.8715"/>
</g>
<!-- Node25&#45;&gt;Node7 -->
<g id="edge34" class="edge">
<title>Node25&#45;&gt;Node7</title>
<path fill="none" stroke="#191970" d="M320.5507,-296.1058C380.6533,-296.6577 471.6792,-295.2155 550,-284.5 569.6898,-281.8061 591.0981,-276.9358 609.2706,-272.2047"/>
<polygon fill="#191970" stroke="#191970" points="610.244,-275.5675 619.002,-269.6055 608.4375,-268.8046 610.244,-275.5675"/>
</g>
<!-- Node26 -->
<g id="node26" class="node">
<title>Node26</title>
<g id="a_node26"><a xlink:href="../../d7/d96/classFun4AllMemoryTracker.html#aa8eb9ed150f51165b9abfd456c18a432" target="_top" xlink:title="Fun4AllMemoryTracker\l::CreateFullTrackerName">
<polygon fill="none" stroke="#000000" points="393.5,-243.5 393.5,-275.5 533.5,-275.5 533.5,-243.5 393.5,-243.5"/>
<text text-anchor="start" x="401.5" y="-262.5" font-family="FreeSans" font-size="10.00" fill="#000000">Fun4AllMemoryTracker</text>
<text text-anchor="middle" x="463.5" y="-250.5" font-family="FreeSans" font-size="10.00" fill="#000000">::CreateFullTrackerName</text>
</a>
</g>
</g>
<!-- Node25&#45;&gt;Node26 -->
<g id="edge32" class="edge">
<title>Node25&#45;&gt;Node26</title>
<path fill="none" stroke="#191970" d="M320.6289,-283.4258C340.5669,-280.0869 362.669,-276.3856 383.4119,-272.9119"/>
<polygon fill="#191970" stroke="#191970" points="384.1855,-276.3312 393.4701,-271.2275 383.0293,-269.4273 384.1855,-276.3312"/>
</g>
<!-- Node27 -->
<g id="node27" class="node">
<title>Node27</title>
<g id="a_node27"><a xlink:href="../../d7/d96/classFun4AllMemoryTracker.html#a4059a8c86c92e1708e5bbdc585af99ed" target="_top" xlink:title="Fun4AllMemoryTracker\l::GetRSSMemory">
<polygon fill="none" stroke="#000000" points="397.5,-153.5 397.5,-185.5 529.5,-185.5 529.5,-153.5 397.5,-153.5"/>
<text text-anchor="start" x="405.5" y="-172.5" font-family="FreeSans" font-size="10.00" fill="#000000">Fun4AllMemoryTracker</text>
<text text-anchor="middle" x="463.5" y="-160.5" font-family="FreeSans" font-size="10.00" fill="#000000">::GetRSSMemory</text>
</a>
</g>
</g>
<!-- Node25&#45;&gt;Node27 -->
<g id="edge33" class="edge">
<title>Node25&#45;&gt;Node27</title>
<path fill="none" stroke="#191970" d="M306.5037,-278.3696C318.1795,-273.9055 330.2774,-268.5857 341,-262.5 358.8683,-252.3587 360.7384,-246.0572 377,-233.5 395.3828,-219.3048 416.3123,-203.8024 432.979,-191.6106"/>
<polygon fill="#191970" stroke="#191970" points="435.2545,-194.2829 441.2699,-185.5613 431.1286,-188.6281 435.2545,-194.2829"/>
</g>
<!-- Node28&#45;&gt;Node7 -->
<g id="edge38" class="edge">
<title>Node28&#45;&gt;Node7</title>
<path fill="none" stroke="#191970" d="M320.5085,-231.4606C380.5827,-227.1831 471.5906,-223.7565 550,-233.5 570.7886,-236.0833 593.4067,-241.4927 612.1383,-246.7118"/>
<polygon fill="#191970" stroke="#191970" points="611.2507,-250.0982 621.8281,-249.4898 613.1799,-243.3693 611.2507,-250.0982"/>
</g>
<!-- Node28&#45;&gt;Node26 -->
<g id="edge36" class="edge">
<title>Node28&#45;&gt;Node26</title>
<path fill="none" stroke="#191970" d="M320.6289,-244.4609C340.5669,-246.5597 362.669,-248.8862 383.4119,-251.0697"/>
<polygon fill="#191970" stroke="#191970" points="383.1586,-254.5623 393.4701,-252.1284 383.8914,-247.6007 383.1586,-254.5623"/>
</g>
<!-- Node28&#45;&gt;Node27 -->
<g id="edge37" class="edge">
<title>Node28&#45;&gt;Node27</title>
<path fill="none" stroke="#191970" d="M303.7654,-221.4711C333.9512,-211.6499 372.7657,-199.0212 404.5742,-188.672"/>
<polygon fill="#191970" stroke="#191970" points="405.7771,-191.9613 414.2036,-185.539 403.6113,-185.3048 405.7771,-191.9613"/>
</g>
<!-- Node29&#45;&gt;Node7 -->
<g id="edge42" class="edge">
<title>Node29&#45;&gt;Node7</title>
<path fill="none" stroke="#191970" d="M293.8068,-157.4329C352.399,-136.0802 464.8672,-105.2423 550,-143.5 594.195,-163.3607 627.1418,-212.5958 642.8233,-240.1104"/>
<polygon fill="#191970" stroke="#191970" points="639.921,-242.0961 647.8084,-249.17 646.0539,-238.7214 639.921,-242.0961"/>
</g>
<!-- Node29&#45;&gt;Node26 -->
<g id="edge40" class="edge">
<title>Node29&#45;&gt;Node26</title>
<path fill="none" stroke="#191970" d="M293.8113,-189.6759C328.112,-203.7901 378.0142,-224.324 414.8294,-239.4728"/>
<polygon fill="#191970" stroke="#191970" points="413.7854,-242.828 424.365,-243.3966 416.4491,-236.3546 413.7854,-242.828"/>
</g>
<!-- Node29&#45;&gt;Node27 -->
<g id="edge41" class="edge">
<title>Node29&#45;&gt;Node27</title>
<path fill="none" stroke="#191970" d="M320.6289,-172.2344C341.7932,-171.8293 365.396,-171.3776 387.2229,-170.9598"/>
<polygon fill="#191970" stroke="#191970" points="387.5117,-174.4551 397.4428,-170.7643 387.3777,-167.4563 387.5117,-174.4551"/>
</g>
<!-- Node30&#45;&gt;Node7 -->
<g id="edge44" class="edge">
<title>Node30&#45;&gt;Node7</title>
<path fill="none" stroke="#191970" d="M327.5154,-79.6912C390.5765,-77.252 482.0022,-82.2272 550,-121.5 597.9135,-149.1729 630.3831,-208.9618 644.6964,-239.9656"/>
<polygon fill="#191970" stroke="#191970" points="641.5834,-241.5787 648.8505,-249.2884 647.9774,-238.7296 641.5834,-241.5787"/>
</g>
<!-- Node31 -->
<g id="node31" class="node">
<title>Node31</title>
<g id="a_node31"><a xlink:href="../../da/d29/classFun4AllServer.html#a596005b9bc46ff6f5167378423248271" target="_top" xlink:title="Fun4AllServer::UpdateEvent\lSelector">
<polygon fill="none" stroke="#000000" points="384,-25.5 384,-57.5 543,-57.5 543,-25.5 384,-25.5"/>
<text text-anchor="start" x="392" y="-44.5" font-family="FreeSans" font-size="10.00" fill="#000000">Fun4AllServer::UpdateEvent</text>
<text text-anchor="middle" x="463.5" y="-32.5" font-family="FreeSans" font-size="10.00" fill="#000000">Selector</text>
</a>
</g>
</g>
<!-- Node30&#45;&gt;Node31 -->
<g id="edge45" class="edge">
<title>Node30&#45;&gt;Node31</title>
<path fill="none" stroke="#191970" d="M327.5981,-70.7612C344.2279,-67.1806 362.0274,-63.3482 379.085,-59.6755"/>
<polygon fill="#191970" stroke="#191970" points="379.9888,-63.0612 389.028,-57.5346 378.5153,-56.218 379.9888,-63.0612"/>
</g>
<!-- Node31&#45;&gt;Node7 -->
<g id="edge48" class="edge">
<title>Node31&#45;&gt;Node7</title>
<path fill="none" stroke="#191970" d="M526.0531,-57.6776C534.6661,-61.6258 542.9575,-66.4989 550,-72.5 604.434,-118.8849 635.3258,-201.5815 647.2402,-239.5007"/>
<polygon fill="#191970" stroke="#191970" points="643.972,-240.7851 650.2181,-249.343 650.6721,-238.7579 643.972,-240.7851"/>
</g>
<!-- Node32 -->
<g id="node32" class="node">
<title>Node32</title>
<g id="a_node32"><a xlink:href="../../d8/d77/classFun4AllOutputManager.html#a330fe561bb5a02a9f6dc08395686321c" target="_top" xlink:title="retrieves pointer to vector of event selector module ids">
<polygon fill="none" stroke="#000000" points="586,-51.5 586,-83.5 720,-83.5 720,-51.5 586,-51.5"/>
<text text-anchor="start" x="594" y="-70.5" font-family="FreeSans" font-size="10.00" fill="#000000">Fun4AllOutputManager</text>
<text text-anchor="middle" x="653" y="-58.5" font-family="FreeSans" font-size="10.00" fill="#000000">::RecoModuleIndex</text>
</a>
</g>
</g>
<!-- Node31&#45;&gt;Node32 -->
<g id="edge46" class="edge">
<title>Node31&#45;&gt;Node32</title>
<path fill="none" stroke="#191970" d="M543.0414,-52.4133C553.864,-53.8982 564.9585,-55.4204 575.7399,-56.8997"/>
<polygon fill="#191970" stroke="#191970" points="575.5788,-60.4103 585.9618,-58.3021 576.5304,-53.4752 575.5788,-60.4103"/>
</g>
<!-- Node33 -->
<g id="node33" class="node">
<title>Node33</title>
<g id="a_node33"><a xlink:href="../../d8/d77/classFun4AllOutputManager.html#a2a601e70ddadeb2f8400956ba1a514e6" target="_top" xlink:title="retrieves pointer to vector of event selector module names">
<polygon fill="none" stroke="#000000" points="586,-.5 586,-32.5 720,-32.5 720,-.5 586,-.5"/>
<text text-anchor="start" x="594" y="-19.5" font-family="FreeSans" font-size="10.00" fill="#000000">Fun4AllOutputManager</text>
<text text-anchor="middle" x="653" y="-7.5" font-family="FreeSans" font-size="10.00" fill="#000000">::EventSelector</text>
</a>
</g>
</g>
<!-- Node31&#45;&gt;Node33 -->
<g id="edge47" class="edge">
<title>Node31&#45;&gt;Node33</title>
<path fill="none" stroke="#191970" d="M543.0414,-31.0064C553.864,-29.5786 564.9585,-28.115 575.7399,-26.6926"/>
<polygon fill="#191970" stroke="#191970" points="576.5055,-30.122 585.9618,-25.3441 575.5899,-23.1822 576.5055,-30.122"/>
</g>
</g>
</svg>
