<?xml version="1.0" encoding="UTF-8" standalone="no"?>
<!DOCTYPE svg PUBLIC "-//W3C//DTD SVG 1.1//EN"
 "http://www.w3.org/Graphics/SVG/1.1/DTD/svg11.dtd">
<!-- Generated by graphviz version 2.40.1 (20161225.0304)
 -->
<!-- Title: Fun4AllServer::BeginRun Pages: 1 -->
<svg width="844pt" height="490pt"
 viewBox="0.00 0.00 844.00 490.00" xmlns="http://www.w3.org/2000/svg" xmlns:xlink="http://www.w3.org/1999/xlink">
<g id="graph0" class="graph" transform="scale(1 1) rotate(0) translate(4 486)">
<title>Fun4AllServer::BeginRun</title>
<!-- Node1 -->
<g id="node1" class="node">
<title>Node1</title>
<polygon fill="#bfbfbf" stroke="#000000" points="0,-299.5 0,-319.5 141,-319.5 141,-299.5 0,-299.5"/>
<text text-anchor="middle" x="70.5" y="-306.5" font-family="FreeSans" font-size="10.00" fill="#000000">Fun4AllServer::BeginRun</text>
</g>
<!-- Node2 -->
<g id="node2" class="node">
<title>Node2</title>
<g id="a_node2"><a xlink:href="../../da/d29/classFun4AllServer.html#a1266c6d922adaaa9e895b854be49d3e8" target="_top" xlink:title="Fun4AllServer::DisconnectDB">
<polygon fill="none" stroke="#000000" points="177,-461.5 177,-481.5 341,-481.5 341,-461.5 177,-461.5"/>
<text text-anchor="middle" x="259" y="-468.5" font-family="FreeSans" font-size="10.00" fill="#000000">Fun4AllServer::DisconnectDB</text>
</a>
</g>
</g>
<!-- Node1&#45;&gt;Node2 -->
<g id="edge1" class="edge">
<title>Node1&#45;&gt;Node2</title>
<path fill="none" stroke="#191970" d="M74.9935,-319.74C87.1921,-346.2708 123.6322,-417.598 177,-452.5 179.7518,-454.2996 182.6532,-455.9297 185.6569,-457.4061"/>
<polygon fill="#191970" stroke="#191970" points="184.3572,-460.657 194.9266,-461.3902 187.1213,-454.2258 184.3572,-460.657"/>
</g>
<!-- Node3 -->
<g id="node3" class="node">
<title>Node3</title>
<g id="a_node3"><a xlink:href="../../d0/d12/namespaceg4zmq.html#ac0a320baaea2957915124839b1e2be53" target="_top" xlink:title="g4zmq.exit">
<polygon fill="none" stroke="#000000" points="222.5,-422.5 222.5,-442.5 295.5,-442.5 295.5,-422.5 222.5,-422.5"/>
<text text-anchor="middle" x="259" y="-429.5" font-family="FreeSans" font-size="10.00" fill="#000000">g4zmq.exit</text>
</a>
</g>
</g>
<!-- Node1&#45;&gt;Node3 -->
<g id="edge2" class="edge">
<title>Node1&#45;&gt;Node3</title>
<path fill="none" stroke="#191970" d="M77.746,-319.6322C93.3458,-340.6504 132.3362,-389.0649 177,-413.5 187.817,-419.4178 200.4112,-423.4987 212.4362,-426.3107"/>
<polygon fill="#191970" stroke="#191970" points="211.8467,-429.7631 222.3517,-428.3867 213.2812,-422.9116 211.8467,-429.7631"/>
</g>
<!-- Node5 -->
<g id="node5" class="node">
<title>Node5</title>
<g id="a_node5"><a xlink:href="../../da/dc2/classPHTimeStamp.html#a4ef1bd9d8bfb3a8263aa9ceafb80bb34" target="_top" xlink:title="PHTimeStamp::print">
<polygon fill="none" stroke="#000000" points="199.5,-383.5 199.5,-403.5 318.5,-403.5 318.5,-383.5 199.5,-383.5"/>
<text text-anchor="middle" x="259" y="-390.5" font-family="FreeSans" font-size="10.00" fill="#000000">PHTimeStamp::print</text>
</a>
</g>
</g>
<!-- Node1&#45;&gt;Node5 -->
<g id="edge4" class="edge">
<title>Node1&#45;&gt;Node5</title>
<path fill="none" stroke="#191970" d="M83.867,-319.6242C103.339,-333.9 141.1061,-359.8364 177,-374.5 182.5465,-376.7659 188.4196,-378.7933 194.3726,-380.6006"/>
<polygon fill="#191970" stroke="#191970" points="193.8479,-384.0892 204.4227,-383.4374 195.7495,-377.3524 193.8479,-384.0892"/>
</g>
<!-- Node6 -->
<g id="node6" class="node">
<title>Node6</title>
<g id="a_node6"><a xlink:href="../../da/d29/classFun4AllServer.html#a9d3cdd0e26d8849bfd4652f20587e2df" target="_top" xlink:title="Fun4AllServer::Print">
<polygon fill="none" stroke="#000000" points="200.5,-344.5 200.5,-364.5 317.5,-364.5 317.5,-344.5 200.5,-344.5"/>
<text text-anchor="middle" x="259" y="-351.5" font-family="FreeSans" font-size="10.00" fill="#000000">Fun4AllServer::Print</text>
</a>
</g>
</g>
<!-- Node1&#45;&gt;Node6 -->
<g id="edge5" class="edge">
<title>Node1&#45;&gt;Node6</title>
<path fill="none" stroke="#191970" d="M111.1837,-319.551C131.0233,-324.4221 155.2439,-330.324 177,-335.5 186.083,-337.6609 195.7397,-339.9267 205.1181,-342.1104"/>
<polygon fill="#191970" stroke="#191970" points="204.6125,-345.586 215.1451,-344.4388 206.196,-338.7675 204.6125,-345.586"/>
</g>
<!-- Node11 -->
<g id="node11" class="node">
<title>Node11</title>
<g id="a_node11"><a xlink:href="../../d7/d96/classFun4AllMemoryTracker.html#a8b53144fdababa4ca9bd29efef891c05" target="_top" xlink:title="Fun4AllMemoryTracker\l::Snapshot">
<polygon fill="none" stroke="#000000" points="193,-293.5 193,-325.5 325,-325.5 325,-293.5 193,-293.5"/>
<text text-anchor="start" x="201" y="-312.5" font-family="FreeSans" font-size="10.00" fill="#000000">Fun4AllMemoryTracker</text>
<text text-anchor="middle" x="259" y="-300.5" font-family="FreeSans" font-size="10.00" fill="#000000">::Snapshot</text>
</a>
</g>
</g>
<!-- Node1&#45;&gt;Node11 -->
<g id="edge10" class="edge">
<title>Node1&#45;&gt;Node11</title>
<path fill="none" stroke="#191970" d="M141.2267,-309.5C154.7129,-309.5 168.8855,-309.5 182.5411,-309.5"/>
<polygon fill="#191970" stroke="#191970" points="182.8629,-313.0001 192.8629,-309.5 182.8629,-306.0001 182.8629,-313.0001"/>
</g>
<!-- Node14 -->
<g id="node14" class="node">
<title>Node14</title>
<g id="a_node14"><a xlink:href="../../d5/dec/classFun4AllBase.html#a8a5c77a92bdac6bc043476e132379a40" target="_top" xlink:title="Gets the verbosity of this module.">
<polygon fill="none" stroke="#000000" points="576.5,-133.5 576.5,-153.5 708.5,-153.5 708.5,-133.5 576.5,-133.5"/>
<text text-anchor="middle" x="642.5" y="-140.5" font-family="FreeSans" font-size="10.00" fill="#000000">Fun4AllBase::Verbosity</text>
</a>
</g>
</g>
<!-- Node1&#45;&gt;Node14 -->
<g id="edge28" class="edge">
<title>Node1&#45;&gt;Node14</title>
<path fill="none" stroke="#191970" d="M75.5506,-299.4462C88.5412,-274.7564 125.7254,-211.0788 177,-182.5 301.7358,-112.9763 475.1095,-120.6421 571.1987,-132.2034"/>
<polygon fill="#191970" stroke="#191970" points="571.0311,-135.7096 581.3885,-133.4791 571.9008,-128.7639 571.0311,-135.7096"/>
</g>
<!-- Node15 -->
<g id="node15" class="node">
<title>Node15</title>
<g id="a_node15"><a xlink:href="../../d7/d96/classFun4AllMemoryTracker.html#a3841cc0bc6c4047da2b4868ba39dbb8c" target="_top" xlink:title="Fun4AllMemoryTracker\l::Start">
<polygon fill="none" stroke="#000000" points="193,-242.5 193,-274.5 325,-274.5 325,-242.5 193,-242.5"/>
<text text-anchor="start" x="201" y="-261.5" font-family="FreeSans" font-size="10.00" fill="#000000">Fun4AllMemoryTracker</text>
<text text-anchor="middle" x="259" y="-249.5" font-family="FreeSans" font-size="10.00" fill="#000000">::Start</text>
</a>
</g>
</g>
<!-- Node1&#45;&gt;Node15 -->
<g id="edge14" class="edge">
<title>Node1&#45;&gt;Node15</title>
<path fill="none" stroke="#191970" d="M107.7415,-299.424C131.1602,-293.088 162.1006,-284.7168 189.8937,-277.1972"/>
<polygon fill="#191970" stroke="#191970" points="190.8369,-280.5679 199.5757,-274.5777 189.0087,-273.8109 190.8369,-280.5679"/>
</g>
<!-- Node16 -->
<g id="node16" class="node">
<title>Node16</title>
<g id="a_node16"><a xlink:href="../../d7/d96/classFun4AllMemoryTracker.html#a766ac66dd36ffa4e3fbe6e622923565f" target="_top" xlink:title="Fun4AllMemoryTracker\l::Stop">
<polygon fill="none" stroke="#000000" points="193,-191.5 193,-223.5 325,-223.5 325,-191.5 193,-191.5"/>
<text text-anchor="start" x="201" y="-210.5" font-family="FreeSans" font-size="10.00" fill="#000000">Fun4AllMemoryTracker</text>
<text text-anchor="middle" x="259" y="-198.5" font-family="FreeSans" font-size="10.00" fill="#000000">::Stop</text>
</a>
</g>
</g>
<!-- Node1&#45;&gt;Node16 -->
<g id="edge18" class="edge">
<title>Node1&#45;&gt;Node16</title>
<path fill="none" stroke="#191970" d="M82.1622,-299.28C100.9519,-283.2709 139.6132,-252.183 177,-233.5 181.3627,-231.3199 185.9467,-229.2729 190.6245,-227.3605"/>
<polygon fill="#191970" stroke="#191970" points="192.2451,-230.4869 200.3173,-223.6247 189.7277,-223.9553 192.2451,-230.4869"/>
</g>
<!-- Node17 -->
<g id="node17" class="node">
<title>Node17</title>
<g id="a_node17"><a xlink:href="../../da/d29/classFun4AllServer.html#a3a4e3f448388cb2e68b085e9038feaf8" target="_top" xlink:title="Fun4AllServer::unregister\lSubsystemsNow">
<polygon fill="none" stroke="#000000" points="186,-63.5 186,-95.5 332,-95.5 332,-63.5 186,-63.5"/>
<text text-anchor="start" x="194" y="-82.5" font-family="FreeSans" font-size="10.00" fill="#000000">Fun4AllServer::unregister</text>
<text text-anchor="middle" x="259" y="-70.5" font-family="FreeSans" font-size="10.00" fill="#000000">SubsystemsNow</text>
</a>
</g>
</g>
<!-- Node1&#45;&gt;Node17 -->
<g id="edge22" class="edge">
<title>Node1&#45;&gt;Node17</title>
<path fill="none" stroke="#191970" d="M73.1957,-299.2031C82.2007,-266.7602 114.2744,-165.5616 177,-110.5 181.3964,-106.6407 186.3212,-103.2415 191.5166,-100.2512"/>
<polygon fill="#191970" stroke="#191970" points="193.2125,-103.3144 200.4701,-95.5958 189.9831,-97.1038 193.2125,-103.3144"/>
</g>
<!-- Node4 -->
<g id="node4" class="node">
<title>Node4</title>
<g id="a_node4"><a xlink:href="../../d8/d03/G4ecpssrBaseKxsModel_8cc.html#afca89815e8ce05521ca0a7ec9bd17385" target="_top" xlink:title="print">
<polygon fill="none" stroke="#000000" points="436.5,-448.5 436.5,-468.5 476.5,-468.5 476.5,-448.5 436.5,-448.5"/>
<text text-anchor="middle" x="456.5" y="-455.5" font-family="FreeSans" font-size="10.00" fill="#000000">print</text>
</a>
</g>
</g>
<!-- Node3&#45;&gt;Node4 -->
<g id="edge3" class="edge">
<title>Node3&#45;&gt;Node4</title>
<path fill="none" stroke="#191970" d="M295.6854,-437.3295C333.2929,-442.2803 391.0969,-449.89 426.1959,-454.5106"/>
<polygon fill="#191970" stroke="#191970" points="425.941,-458.0072 436.3123,-455.8424 426.8547,-451.067 425.941,-458.0072"/>
</g>
<!-- Node7 -->
<g id="node7" class="node">
<title>Node7</title>
<g id="a_node7"><a xlink:href="../../dc/de5/PHG4mRICHDetector_8cc.html#a11ded6fc3d3fab0e72612c3886df87a0" target="_top" xlink:title="pos">
<polygon fill="none" stroke="#000000" points="439.5,-370.5 439.5,-390.5 473.5,-390.5 473.5,-370.5 439.5,-370.5"/>
<text text-anchor="middle" x="456.5" y="-377.5" font-family="FreeSans" font-size="10.00" fill="#000000">pos</text>
</a>
</g>
</g>
<!-- Node6&#45;&gt;Node7 -->
<g id="edge6" class="edge">
<title>Node6&#45;&gt;Node7</title>
<path fill="none" stroke="#191970" d="M317.7218,-362.2305C354.6239,-367.0885 400.5031,-373.1283 429.1522,-376.8998"/>
<polygon fill="#191970" stroke="#191970" points="428.8626,-380.3918 439.2339,-378.227 429.7763,-373.4517 428.8626,-380.3918"/>
</g>
<!-- Node8 -->
<g id="node8" class="node">
<title>Node8</title>
<g id="a_node8"><a xlink:href="../../d5/d07/classPHNodeIterator.html#aec2fbc1e56be7e1a0b064ecde48edee5" target="_top" xlink:title="PHNodeIterator::print">
<polygon fill="none" stroke="#000000" points="394.5,-409.5 394.5,-429.5 518.5,-429.5 518.5,-409.5 394.5,-409.5"/>
<text text-anchor="middle" x="456.5" y="-416.5" font-family="FreeSans" font-size="10.00" fill="#000000">PHNodeIterator::print</text>
</a>
</g>
</g>
<!-- Node6&#45;&gt;Node8 -->
<g id="edge7" class="edge">
<title>Node6&#45;&gt;Node8</title>
<path fill="none" stroke="#191970" d="M312.948,-364.5007C322.5149,-367.1554 332.2187,-370.4476 341,-374.5 358.9204,-382.7699 359.0605,-392.2717 377,-400.5 381.7161,-402.6631 386.7067,-404.5959 391.7972,-406.3201"/>
<polygon fill="#191970" stroke="#191970" points="391.0758,-409.7609 401.6639,-409.3842 393.1519,-403.0758 391.0758,-409.7609"/>
</g>
<!-- Node9 -->
<g id="node9" class="node">
<title>Node9</title>
<g id="a_node9"><a xlink:href="../../d5/dca/classPHCompositeNode.html#a41df2315a2cf9c9ebacf1767b3daab7f" target="_top" xlink:title="PHCompositeNode::print">
<polygon fill="none" stroke="#000000" points="572,-409.5 572,-429.5 713,-429.5 713,-409.5 572,-409.5"/>
<text text-anchor="middle" x="642.5" y="-416.5" font-family="FreeSans" font-size="10.00" fill="#000000">PHCompositeNode::print</text>
</a>
</g>
</g>
<!-- Node8&#45;&gt;Node9 -->
<g id="edge8" class="edge">
<title>Node8&#45;&gt;Node9</title>
<path fill="none" stroke="#191970" d="M518.6939,-419.5C532.376,-419.5 547.0609,-419.5 561.3652,-419.5"/>
<polygon fill="#191970" stroke="#191970" points="561.6938,-423.0001 571.6938,-419.5 561.6938,-416.0001 561.6938,-423.0001"/>
</g>
<!-- Node10 -->
<g id="node10" class="node">
<title>Node10</title>
<g id="a_node10"><a xlink:href="../../dc/d82/classPHNode.html#a3c79c7edb338e7d3bb86460f931793fa" target="_top" xlink:title="PHNode::print">
<polygon fill="none" stroke="#000000" points="749,-409.5 749,-429.5 836,-429.5 836,-409.5 749,-409.5"/>
<text text-anchor="middle" x="792.5" y="-416.5" font-family="FreeSans" font-size="10.00" fill="#000000">PHNode::print</text>
</a>
</g>
</g>
<!-- Node9&#45;&gt;Node10 -->
<g id="edge9" class="edge">
<title>Node9&#45;&gt;Node10</title>
<path fill="none" stroke="#191970" d="M713.1077,-419.5C721.6563,-419.5 730.2812,-419.5 738.5361,-419.5"/>
<polygon fill="#191970" stroke="#191970" points="738.761,-423.0001 748.761,-419.5 738.761,-416.0001 738.761,-423.0001"/>
</g>
<!-- Node12 -->
<g id="node12" class="node">
<title>Node12</title>
<g id="a_node12"><a xlink:href="../../d7/d96/classFun4AllMemoryTracker.html#aa8eb9ed150f51165b9abfd456c18a432" target="_top" xlink:title="Fun4AllMemoryTracker\l::CreateFullTrackerName">
<polygon fill="none" stroke="#000000" points="386.5,-191.5 386.5,-223.5 526.5,-223.5 526.5,-191.5 386.5,-191.5"/>
<text text-anchor="start" x="394.5" y="-210.5" font-family="FreeSans" font-size="10.00" fill="#000000">Fun4AllMemoryTracker</text>
<text text-anchor="middle" x="456.5" y="-198.5" font-family="FreeSans" font-size="10.00" fill="#000000">::CreateFullTrackerName</text>
</a>
</g>
</g>
<!-- Node11&#45;&gt;Node12 -->
<g id="edge11" class="edge">
<title>Node11&#45;&gt;Node12</title>
<path fill="none" stroke="#191970" d="M325.3164,-293.5902C330.8571,-290.9967 336.1758,-287.9882 341,-284.5 363.4833,-268.2434 354.6816,-249.9823 377,-233.5 379.4896,-231.6614 382.1156,-229.9488 384.8382,-228.3538"/>
<polygon fill="#191970" stroke="#191970" points="386.58,-231.3926 393.8126,-223.6505 383.3306,-225.1924 386.58,-231.3926"/>
</g>
<!-- Node13 -->
<g id="node13" class="node">
<title>Node13</title>
<g id="a_node13"><a xlink:href="../../d7/d96/classFun4AllMemoryTracker.html#a4059a8c86c92e1708e5bbdc585af99ed" target="_top" xlink:title="Fun4AllMemoryTracker\l::GetRSSMemory">
<polygon fill="none" stroke="#000000" points="390.5,-242.5 390.5,-274.5 522.5,-274.5 522.5,-242.5 390.5,-242.5"/>
<text text-anchor="start" x="398.5" y="-261.5" font-family="FreeSans" font-size="10.00" fill="#000000">Fun4AllMemoryTracker</text>
<text text-anchor="middle" x="456.5" y="-249.5" font-family="FreeSans" font-size="10.00" fill="#000000">::GetRSSMemory</text>
</a>
</g>
</g>
<!-- Node11&#45;&gt;Node13 -->
<g id="edge12" class="edge">
<title>Node11&#45;&gt;Node13</title>
<path fill="none" stroke="#191970" d="M321.2192,-293.4333C341.3268,-288.2409 363.7868,-282.4411 384.5393,-277.0823"/>
<polygon fill="#191970" stroke="#191970" points="385.4471,-280.4627 394.2544,-274.5736 383.6969,-273.6851 385.4471,-280.4627"/>
</g>
<!-- Node11&#45;&gt;Node14 -->
<g id="edge13" class="edge">
<title>Node11&#45;&gt;Node14</title>
<path fill="none" stroke="#191970" d="M325.2435,-325.1194C384.2979,-335.3578 471.171,-341.0709 536,-305.5 592.4253,-274.5401 623.9768,-199.4462 636.3319,-163.4234"/>
<polygon fill="#191970" stroke="#191970" points="639.7661,-164.1831 639.5562,-153.5904 633.1145,-162.002 639.7661,-164.1831"/>
</g>
<!-- Node15&#45;&gt;Node12 -->
<g id="edge15" class="edge">
<title>Node15&#45;&gt;Node12</title>
<path fill="none" stroke="#191970" d="M321.2192,-242.4333C341.3268,-237.2409 363.7868,-231.4411 384.5393,-226.0823"/>
<polygon fill="#191970" stroke="#191970" points="385.4471,-229.4627 394.2544,-223.5736 383.6969,-222.6851 385.4471,-229.4627"/>
</g>
<!-- Node15&#45;&gt;Node13 -->
<g id="edge16" class="edge">
<title>Node15&#45;&gt;Node13</title>
<path fill="none" stroke="#191970" d="M325.0392,-258.5C342.6506,-258.5 361.8268,-258.5 379.9508,-258.5"/>
<polygon fill="#191970" stroke="#191970" points="380.1865,-262.0001 390.1865,-258.5 380.1864,-255.0001 380.1865,-262.0001"/>
</g>
<!-- Node15&#45;&gt;Node14 -->
<g id="edge17" class="edge">
<title>Node15&#45;&gt;Node14</title>
<path fill="none" stroke="#191970" d="M319.8263,-274.5416C338.0748,-278.6367 358.2311,-282.4567 377,-284.5 447.2516,-292.1479 472.7402,-315.9957 536,-284.5 587.5424,-258.8381 620.7531,-195.0148 634.8072,-162.7802"/>
<polygon fill="#191970" stroke="#191970" points="638.054,-164.0881 638.6961,-153.5128 631.5992,-161.3795 638.054,-164.0881"/>
</g>
<!-- Node16&#45;&gt;Node12 -->
<g id="edge19" class="edge">
<title>Node16&#45;&gt;Node12</title>
<path fill="none" stroke="#191970" d="M325.0392,-207.5C341.3833,-207.5 359.0752,-207.5 376.023,-207.5"/>
<polygon fill="#191970" stroke="#191970" points="376.4606,-211.0001 386.4606,-207.5 376.4606,-204.0001 376.4606,-211.0001"/>
</g>
<!-- Node16&#45;&gt;Node13 -->
<g id="edge20" class="edge">
<title>Node16&#45;&gt;Node13</title>
<path fill="none" stroke="#191970" d="M321.2192,-223.5667C341.3268,-228.7591 363.7868,-234.5589 384.5393,-239.9177"/>
<polygon fill="#191970" stroke="#191970" points="383.6969,-243.3149 394.2544,-242.4264 385.4471,-236.5373 383.6969,-243.3149"/>
</g>
<!-- Node16&#45;&gt;Node14 -->
<g id="edge21" class="edge">
<title>Node16&#45;&gt;Node14</title>
<path fill="none" stroke="#191970" d="M325.0102,-192.7495C341.9167,-189.1823 360.0977,-185.5288 377,-182.5 440.545,-171.113 513.0871,-160.6266 566.268,-153.4022"/>
<polygon fill="#191970" stroke="#191970" points="566.8603,-156.854 576.3016,-152.0466 565.923,-149.9171 566.8603,-156.854"/>
</g>
<!-- Node17&#45;&gt;Node14 -->
<g id="edge23" class="edge">
<title>Node17&#45;&gt;Node14</title>
<path fill="none" stroke="#191970" d="M332.2069,-83.9035C388.3974,-88.1941 467.672,-96.2245 536,-110.5 559.4478,-115.3989 585.1127,-123.2728 605.3719,-130.1007"/>
<polygon fill="#191970" stroke="#191970" points="604.2552,-133.4178 614.8498,-133.351 606.5259,-126.7963 604.2552,-133.4178"/>
</g>
<!-- Node18 -->
<g id="node18" class="node">
<title>Node18</title>
<g id="a_node18"><a xlink:href="../../da/d29/classFun4AllServer.html#a596005b9bc46ff6f5167378423248271" target="_top" xlink:title="Fun4AllServer::UpdateEvent\lSelector">
<polygon fill="none" stroke="#000000" points="377,-25.5 377,-57.5 536,-57.5 536,-25.5 377,-25.5"/>
<text text-anchor="start" x="385" y="-44.5" font-family="FreeSans" font-size="10.00" fill="#000000">Fun4AllServer::UpdateEvent</text>
<text text-anchor="middle" x="456.5" y="-32.5" font-family="FreeSans" font-size="10.00" fill="#000000">Selector</text>
</a>
</g>
</g>
<!-- Node17&#45;&gt;Node18 -->
<g id="edge24" class="edge">
<title>Node17&#45;&gt;Node18</title>
<path fill="none" stroke="#191970" d="M332.261,-65.4042C343.4687,-63.2478 355.1466,-61.0009 366.6616,-58.7854"/>
<polygon fill="#191970" stroke="#191970" points="367.5643,-62.176 376.7229,-56.8495 366.2417,-55.302 367.5643,-62.176"/>
</g>
<!-- Node18&#45;&gt;Node14 -->
<g id="edge27" class="edge">
<title>Node18&#45;&gt;Node14</title>
<path fill="none" stroke="#191970" d="M502.6546,-57.5513C513.7814,-61.9491 525.4873,-67.0283 536,-72.5 552.6628,-81.1728 593.7667,-109.3568 619.7617,-127.4985"/>
<polygon fill="#191970" stroke="#191970" points="618.062,-130.5809 628.2615,-133.4481 622.0761,-124.8462 618.062,-130.5809"/>
</g>
<!-- Node19 -->
<g id="node19" class="node">
<title>Node19</title>
<g id="a_node19"><a xlink:href="../../d8/d77/classFun4AllOutputManager.html#a330fe561bb5a02a9f6dc08395686321c" target="_top" xlink:title="retrieves pointer to vector of event selector module ids">
<polygon fill="none" stroke="#000000" points="575.5,-51.5 575.5,-83.5 709.5,-83.5 709.5,-51.5 575.5,-51.5"/>
<text text-anchor="start" x="583.5" y="-70.5" font-family="FreeSans" font-size="10.00" fill="#000000">Fun4AllOutputManager</text>
<text text-anchor="middle" x="642.5" y="-58.5" font-family="FreeSans" font-size="10.00" fill="#000000">::RecoModuleIndex</text>
</a>
</g>
</g>
<!-- Node18&#45;&gt;Node19 -->
<g id="edge25" class="edge">
<title>Node18&#45;&gt;Node19</title>
<path fill="none" stroke="#191970" d="M536.1902,-52.6395C545.85,-53.9898 555.7054,-55.3674 565.3278,-56.7125"/>
<polygon fill="#191970" stroke="#191970" points="564.8649,-60.1817 575.2532,-58.0999 565.834,-53.2491 564.8649,-60.1817"/>
</g>
<!-- Node20 -->
<g id="node20" class="node">
<title>Node20</title>
<g id="a_node20"><a xlink:href="../../d8/d77/classFun4AllOutputManager.html#a2a601e70ddadeb2f8400956ba1a514e6" target="_top" xlink:title="retrieves pointer to vector of event selector module names">
<polygon fill="none" stroke="#000000" points="575.5,-.5 575.5,-32.5 709.5,-32.5 709.5,-.5 575.5,-.5"/>
<text text-anchor="start" x="583.5" y="-19.5" font-family="FreeSans" font-size="10.00" fill="#000000">Fun4AllOutputManager</text>
<text text-anchor="middle" x="642.5" y="-7.5" font-family="FreeSans" font-size="10.00" fill="#000000">::EventSelector</text>
</a>
</g>
</g>
<!-- Node18&#45;&gt;Node20 -->
<g id="edge26" class="edge">
<title>Node18&#45;&gt;Node20</title>
<path fill="none" stroke="#191970" d="M536.1902,-30.789C545.85,-29.4906 555.7054,-28.1659 565.3278,-26.8726"/>
<polygon fill="#191970" stroke="#191970" points="565.8086,-30.3396 575.2532,-25.5385 564.876,-23.4019 565.8086,-30.3396"/>
</g>
</g>
</svg>
