<?xml version="1.0" encoding="UTF-8" standalone="no"?>
<!DOCTYPE svg PUBLIC "-//W3C//DTD SVG 1.1//EN"
 "http://www.w3.org/Graphics/SVG/1.1/DTD/svg11.dtd">
<!-- Generated by graphviz version 2.40.1 (20161225.0304)
 -->
<!-- Title: G4ChordFinderDelegate::ResetStepEstimate Pages: 1 -->
<svg width="323pt" height="104pt"
 viewBox="0.00 0.00 323.00 104.00" xmlns="http://www.w3.org/2000/svg" xmlns:xlink="http://www.w3.org/1999/xlink">
<g id="graph0" class="graph" transform="scale(1 1) rotate(0) translate(4 100)">
<title>G4ChordFinderDelegate::ResetStepEstimate</title>
<!-- Node1 -->
<g id="node1" class="node">
<title>Node1</title>
<polygon fill="#bfbfbf" stroke="#000000" points="0,-34.5 0,-66.5 137,-66.5 137,-34.5 0,-34.5"/>
<text text-anchor="start" x="8" y="-53.5" font-family="FreeSans" font-size="10.00" fill="#000000">G4ChordFinderDelegate</text>
<text text-anchor="middle" x="68.5" y="-41.5" font-family="FreeSans" font-size="10.00" fill="#000000">::ResetStepEstimate</text>
</g>
<!-- Node2 -->
<g id="node2" class="node">
<title>Node2</title>
<g id="a_node2"><a xlink:href="../../d6/d6b/classG4FSALIntegrationDriver.html#a8c1cf473d9720aa9dd5c76c8b6822856" target="_top" xlink:title="G4FSALIntegrationDriver\l::OnStartTracking">
<polygon fill="none" stroke="#000000" points="173,-63.5 173,-95.5 315,-95.5 315,-63.5 173,-63.5"/>
<text text-anchor="start" x="181" y="-82.5" font-family="FreeSans" font-size="10.00" fill="#000000">G4FSALIntegrationDriver</text>
<text text-anchor="middle" x="244" y="-70.5" font-family="FreeSans" font-size="10.00" fill="#000000">::OnStartTracking</text>
</a>
</g>
</g>
<!-- Node1&#45;&gt;Node2 -->
<g id="edge1" class="edge">
<title>Node1&#45;&gt;Node2</title>
<path fill="none" stroke="#191970" d="M147.097,-63.4875C155.6702,-64.9042 164.3612,-66.3403 172.8378,-67.741"/>
<polygon fill="#191970" stroke="#191970" points="147.5438,-60.014 137.1069,-61.8368 146.4025,-66.9203 147.5438,-60.014"/>
</g>
<!-- Node3 -->
<g id="node3" class="node">
<title>Node3</title>
<g id="a_node3"><a xlink:href="../../d7/d06/classG4IntegrationDriver_3_01G4BulirschStoer_01_4.html#afc636f203defb10176dad15de93b98db" target="_top" xlink:title="G4IntegrationDriver\l\&lt; G4BulirschStoer \&gt;\l::OnStartTracking">
<polygon fill="none" stroke="#000000" points="184,-.5 184,-44.5 304,-44.5 304,-.5 184,-.5"/>
<text text-anchor="start" x="192" y="-31.5" font-family="FreeSans" font-size="10.00" fill="#000000">G4IntegrationDriver</text>
<text text-anchor="start" x="192" y="-19.5" font-family="FreeSans" font-size="10.00" fill="#000000">&lt; G4BulirschStoer &gt;</text>
<text text-anchor="middle" x="244" y="-7.5" font-family="FreeSans" font-size="10.00" fill="#000000">::OnStartTracking</text>
</a>
</g>
</g>
<!-- Node1&#45;&gt;Node3 -->
<g id="edge2" class="edge">
<title>Node1&#45;&gt;Node3</title>
<path fill="none" stroke="#191970" d="M146.9939,-37.9768C159.4131,-35.9953 172.0823,-33.974 183.9917,-32.074"/>
<polygon fill="#191970" stroke="#191970" points="146.4306,-34.5223 137.1069,-39.5542 147.5335,-41.4349 146.4306,-34.5223"/>
</g>
</g>
</svg>
