<?xml version="1.0" encoding="UTF-8" standalone="no"?>
<!DOCTYPE svg PUBLIC "-//W3C//DTD SVG 1.1//EN"
 "http://www.w3.org/Graphics/SVG/1.1/DTD/svg11.dtd">
<!-- Generated by graphviz version 2.40.1 (20161225.0304)
 -->
<!-- Title: G4AntiHe3::Definition Pages: 1 -->
<svg width="1182pt" height="1421pt"
 viewBox="0.00 0.00 1182.00 1421.00" xmlns="http://www.w3.org/2000/svg" xmlns:xlink="http://www.w3.org/1999/xlink">
<g id="graph0" class="graph" transform="scale(1 1) rotate(0) translate(4 1417)">
<title>G4AntiHe3::Definition</title>
<!-- Node1 -->
<g id="node1" class="node">
<title>Node1</title>
<polygon fill="#bfbfbf" stroke="#000000" points="0,-673.5 0,-693.5 127,-693.5 127,-673.5 0,-673.5"/>
<text text-anchor="middle" x="63.5" y="-680.5" font-family="FreeSans" font-size="10.00" fill="#000000">G4AntiHe3::Definition</text>
</g>
<!-- Node2 -->
<g id="node2" class="node">
<title>Node2</title>
<g id="a_node2"><a xlink:href="../../d1/dfc/classG4AntiHe3.html#a6fd7b7914c9e1d354529c24413c7005a" target="_top" xlink:title="G4AntiHe3::AntiHe3">
<polygon fill="none" stroke="#000000" points="187.5,-849.5 187.5,-869.5 305.5,-869.5 305.5,-849.5 187.5,-849.5"/>
<text text-anchor="middle" x="246.5" y="-856.5" font-family="FreeSans" font-size="10.00" fill="#000000">G4AntiHe3::AntiHe3</text>
</a>
</g>
</g>
<!-- Node1&#45;&gt;Node2 -->
<g id="edge1" class="edge">
<title>Node1&#45;&gt;Node2</title>
<path fill="none" stroke="#191970" d="M81.3906,-700.7063C119.0695,-736.9439 205.6084,-820.1725 235.8408,-849.2485"/>
<polygon fill="#191970" stroke="#191970" points="83.7636,-698.1325 74.1298,-693.7232 78.9113,-703.1778 83.7636,-698.1325"/>
</g>
<!-- Node11 -->
<g id="node11" class="node">
<title>Node11</title>
<g id="a_node11"><a xlink:href="../../d1/dfc/classG4AntiHe3.html#af5b6c730012a6f30fb5ff80a68c896d1" target="_top" xlink:title="G4AntiHe3::AntiHe3Definition">
<polygon fill="none" stroke="#000000" points="163,-696.5 163,-716.5 330,-716.5 330,-696.5 163,-696.5"/>
<text text-anchor="middle" x="246.5" y="-703.5" font-family="FreeSans" font-size="10.00" fill="#000000">G4AntiHe3::AntiHe3Definition</text>
</a>
</g>
</g>
<!-- Node1&#45;&gt;Node11 -->
<g id="edge10" class="edge">
<title>Node1&#45;&gt;Node11</title>
<path fill="none" stroke="#191970" d="M137.2804,-692.7729C147.0233,-693.9975 157.0449,-695.257 166.8802,-696.4931"/>
<polygon fill="#191970" stroke="#191970" points="137.6061,-689.2864 127.2476,-691.512 136.7331,-696.2318 137.6061,-689.2864"/>
</g>
<!-- Node49 -->
<g id="node49" class="node">
<title>Node49</title>
<g id="a_node49"><a xlink:href="../../d2/d5e/classG4InuclElementaryParticle.html#a0800b546dac0295a975e602d932b5032" target="_top" xlink:title="G4InuclElementaryParticle\l::makeDefinition">
<polygon fill="none" stroke="#000000" points="171.5,-645.5 171.5,-677.5 321.5,-677.5 321.5,-645.5 171.5,-645.5"/>
<text text-anchor="start" x="179.5" y="-664.5" font-family="FreeSans" font-size="10.00" fill="#000000">G4InuclElementaryParticle</text>
<text text-anchor="middle" x="246.5" y="-652.5" font-family="FreeSans" font-size="10.00" fill="#000000">::makeDefinition</text>
</a>
</g>
</g>
<!-- Node1&#45;&gt;Node49 -->
<g id="edge48" class="edge">
<title>Node1&#45;&gt;Node49</title>
<path fill="none" stroke="#191970" d="M137.3995,-674.6159C148.5874,-673.2709 160.1402,-671.8821 171.3542,-670.5339"/>
<polygon fill="#191970" stroke="#191970" points="136.7583,-671.1677 127.2476,-675.8364 137.5939,-678.1177 136.7583,-671.1677"/>
</g>
<!-- Node50 -->
<g id="node50" class="node">
<title>Node50</title>
<g id="a_node50"><a xlink:href="../../d2/d5e/classG4InuclElementaryParticle.html#a975509a3a0676037e3d904d4e17ee9b5" target="_top" xlink:title="G4InuclElementaryParticle\l::type">
<polygon fill="none" stroke="#000000" points="171.5,-594.5 171.5,-626.5 321.5,-626.5 321.5,-594.5 171.5,-594.5"/>
<text text-anchor="start" x="179.5" y="-613.5" font-family="FreeSans" font-size="10.00" fill="#000000">G4InuclElementaryParticle</text>
<text text-anchor="middle" x="246.5" y="-601.5" font-family="FreeSans" font-size="10.00" fill="#000000">::type</text>
</a>
</g>
</g>
<!-- Node1&#45;&gt;Node50 -->
<g id="edge49" class="edge">
<title>Node1&#45;&gt;Node50</title>
<path fill="none" stroke="#191970" d="M91.9883,-668.7423C111.6362,-658.8888 138.524,-646.0378 163,-636.5 171.9125,-633.027 181.4954,-629.6887 190.8788,-626.6292"/>
<polygon fill="#191970" stroke="#191970" points="90.3068,-665.6706 82.9669,-673.3111 93.4694,-671.9155 90.3068,-665.6706"/>
</g>
<!-- Node3 -->
<g id="node3" class="node">
<title>Node3</title>
<g id="a_node3"><a xlink:href="../../d2/dfe/classG4AntiBarionBuilder.html#a6ca7372f6604d72015c1dae2480034bd" target="_top" xlink:title="G4AntiBarionBuilder\l::Build">
<polygon fill="none" stroke="#000000" points="408,-996.5 408,-1028.5 528,-1028.5 528,-996.5 408,-996.5"/>
<text text-anchor="start" x="416" y="-1015.5" font-family="FreeSans" font-size="10.00" fill="#000000">G4AntiBarionBuilder</text>
<text text-anchor="middle" x="468" y="-1003.5" font-family="FreeSans" font-size="10.00" fill="#000000">::Build</text>
</a>
</g>
</g>
<!-- Node2&#45;&gt;Node3 -->
<g id="edge2" class="edge">
<title>Node2&#45;&gt;Node3</title>
<path fill="none" stroke="#191970" d="M258.5945,-878.2127C277.8328,-906.4099 318.1612,-959.4676 366,-987.5 378.6632,-994.9203 393.4483,-1000.146 407.7686,-1003.8235"/>
<polygon fill="#191970" stroke="#191970" points="261.36,-876.0512 252.8984,-869.6753 255.537,-879.9363 261.36,-876.0512"/>
</g>
<!-- Node6 -->
<g id="node6" class="node">
<title>Node6</title>
<g id="a_node6"><a xlink:href="../../d2/d61/classAntiBaryonPhysics.html#aed8e43e664eec56824814d609a238fc0" target="_top" xlink:title="AntiBaryonPhysics::\lConstructProcess">
<polygon fill="none" stroke="#000000" points="409.5,-945.5 409.5,-977.5 526.5,-977.5 526.5,-945.5 409.5,-945.5"/>
<text text-anchor="start" x="417.5" y="-964.5" font-family="FreeSans" font-size="10.00" fill="#000000">AntiBaryonPhysics::</text>
<text text-anchor="middle" x="468" y="-952.5" font-family="FreeSans" font-size="10.00" fill="#000000">ConstructProcess</text>
</a>
</g>
</g>
<!-- Node2&#45;&gt;Node6 -->
<g id="edge5" class="edge">
<title>Node2&#45;&gt;Node6</title>
<path fill="none" stroke="#191970" d="M266.9139,-875.6919C289.7969,-893.0919 328.6097,-920.4098 366,-936.5 379.6493,-942.3737 394.9458,-947.0413 409.4573,-950.6755"/>
<polygon fill="#191970" stroke="#191970" points="269.0148,-872.8921 258.9599,-869.5528 264.7377,-878.4336 269.0148,-872.8921"/>
</g>
<!-- Node7 -->
<g id="node7" class="node">
<title>Node7</title>
<g id="a_node7"><a xlink:href="../../d3/d2b/classG4HadronPhysicsFTFQGSP__BERT.html#a2ab54e472f8197096d0f22e51b8afa26" target="_top" xlink:title="G4HadronPhysicsFTFQGSP\l_BERT::ConstructProcess">
<polygon fill="none" stroke="#000000" points="392.5,-894.5 392.5,-926.5 543.5,-926.5 543.5,-894.5 392.5,-894.5"/>
<text text-anchor="start" x="400.5" y="-913.5" font-family="FreeSans" font-size="10.00" fill="#000000">G4HadronPhysicsFTFQGSP</text>
<text text-anchor="middle" x="468" y="-901.5" font-family="FreeSans" font-size="10.00" fill="#000000">_BERT::ConstructProcess</text>
</a>
</g>
</g>
<!-- Node2&#45;&gt;Node7 -->
<g id="edge6" class="edge">
<title>Node2&#45;&gt;Node7</title>
<path fill="none" stroke="#191970" d="M300.1171,-871.8452C329.6685,-878.6494 366.6935,-887.1743 398.4484,-894.4859"/>
<polygon fill="#191970" stroke="#191970" points="300.5274,-868.3482 289.997,-869.5151 298.9567,-875.1697 300.5274,-868.3482"/>
</g>
<!-- Node8 -->
<g id="node8" class="node">
<title>Node8</title>
<g id="a_node8"><a xlink:href="../../d0/dcf/classG4AntiNuclElastic.html#a9ffc8a4a5b435fcafbcbd099c72649a7" target="_top" xlink:title="G4AntiNuclElastic::\lG4AntiNuclElastic">
<polygon fill="none" stroke="#000000" points="412,-843.5 412,-875.5 524,-875.5 524,-843.5 412,-843.5"/>
<text text-anchor="start" x="420" y="-862.5" font-family="FreeSans" font-size="10.00" fill="#000000">G4AntiNuclElastic::</text>
<text text-anchor="middle" x="468" y="-850.5" font-family="FreeSans" font-size="10.00" fill="#000000">G4AntiNuclElastic</text>
</a>
</g>
</g>
<!-- Node2&#45;&gt;Node8 -->
<g id="edge7" class="edge">
<title>Node2&#45;&gt;Node8</title>
<path fill="none" stroke="#191970" d="M315.8285,-859.5C346.7043,-859.5 382.5982,-859.5 411.7689,-859.5"/>
<polygon fill="#191970" stroke="#191970" points="315.567,-856.0001 305.567,-859.5 315.5669,-863.0001 315.567,-856.0001"/>
</g>
<!-- Node9 -->
<g id="node9" class="node">
<title>Node9</title>
<g id="a_node9"><a xlink:href="../../d8/d07/classG4ComponentAntiNuclNuclearXS.html#ab2301434dbc7f4609598f0bfcb6d3afc" target="_top" xlink:title="G4ComponentAntiNuclNuclear\lXS::G4ComponentAntiNuclNuclearXS">
<polygon fill="none" stroke="#000000" points="366,-792.5 366,-824.5 570,-824.5 570,-792.5 366,-792.5"/>
<text text-anchor="start" x="374" y="-811.5" font-family="FreeSans" font-size="10.00" fill="#000000">G4ComponentAntiNuclNuclear</text>
<text text-anchor="middle" x="468" y="-799.5" font-family="FreeSans" font-size="10.00" fill="#000000">XS::G4ComponentAntiNuclNuclearXS</text>
</a>
</g>
</g>
<!-- Node2&#45;&gt;Node9 -->
<g id="edge8" class="edge">
<title>Node2&#45;&gt;Node9</title>
<path fill="none" stroke="#191970" d="M300.1171,-847.1548C329.6685,-840.3506 366.6935,-831.8257 398.4484,-824.5141"/>
<polygon fill="#191970" stroke="#191970" points="298.9567,-843.8303 289.997,-849.4849 300.5274,-850.6518 298.9567,-843.8303"/>
</g>
<!-- Node10 -->
<g id="node10" class="node">
<title>Node10</title>
<g id="a_node10"><a xlink:href="../../d9/d06/classG4GeneratorPrecompoundInterface.html#af19f7617fe23467009744012722cd2bf" target="_top" xlink:title="G4GeneratorPrecompoundInterface\l::G4GeneratorPrecompoundInterface">
<polygon fill="none" stroke="#000000" points="366.5,-741.5 366.5,-773.5 569.5,-773.5 569.5,-741.5 366.5,-741.5"/>
<text text-anchor="start" x="374.5" y="-760.5" font-family="FreeSans" font-size="10.00" fill="#000000">G4GeneratorPrecompoundInterface</text>
<text text-anchor="middle" x="468" y="-748.5" font-family="FreeSans" font-size="10.00" fill="#000000">::G4GeneratorPrecompoundInterface</text>
</a>
</g>
</g>
<!-- Node2&#45;&gt;Node10 -->
<g id="edge9" class="edge">
<title>Node2&#45;&gt;Node10</title>
<path fill="none" stroke="#191970" d="M267.3491,-843.3211C290.3344,-826.2042 328.9781,-799.5039 366,-783.5 374.7227,-779.7293 384.1103,-776.4178 393.5327,-773.5343"/>
<polygon fill="#191970" stroke="#191970" points="265.2118,-840.5493 259.3425,-849.3698 269.4313,-846.1346 265.2118,-840.5493"/>
</g>
<!-- Node4 -->
<g id="node4" class="node">
<title>Node4</title>
<g id="a_node4"><a xlink:href="../../d2/df9/classG4HadronPhysicsQGSP__BIC__AllHP.html#a4756f6664d3dca4b313773913655c95e" target="_top" xlink:title="G4HadronPhysicsQGSP\l_BIC_AllHP::ConstructProcess">
<polygon fill="none" stroke="#000000" points="606,-1021.5 606,-1053.5 770,-1053.5 770,-1021.5 606,-1021.5"/>
<text text-anchor="start" x="614" y="-1040.5" font-family="FreeSans" font-size="10.00" fill="#000000">G4HadronPhysicsQGSP</text>
<text text-anchor="middle" x="688" y="-1028.5" font-family="FreeSans" font-size="10.00" fill="#000000">_BIC_AllHP::ConstructProcess</text>
</a>
</g>
</g>
<!-- Node3&#45;&gt;Node4 -->
<g id="edge3" class="edge">
<title>Node3&#45;&gt;Node4</title>
<path fill="none" stroke="#191970" d="M538.1341,-1020.4698C559.6249,-1022.9119 583.4635,-1025.6209 605.689,-1028.1465"/>
<polygon fill="#191970" stroke="#191970" points="538.4472,-1016.9829 528.116,-1019.3314 537.6568,-1023.9382 538.4472,-1016.9829"/>
</g>
<!-- Node5 -->
<g id="node5" class="node">
<title>Node5</title>
<g id="a_node5"><a xlink:href="../../d2/d46/classG4HadronPhysicsQGSP__BIC__HP.html#a2ed24795421b9624f683428e19a2881a" target="_top" xlink:title="G4HadronPhysicsQGSP\l_BIC_HP::ConstructProcess">
<polygon fill="none" stroke="#000000" points="612.5,-970.5 612.5,-1002.5 763.5,-1002.5 763.5,-970.5 612.5,-970.5"/>
<text text-anchor="start" x="620.5" y="-989.5" font-family="FreeSans" font-size="10.00" fill="#000000">G4HadronPhysicsQGSP</text>
<text text-anchor="middle" x="688" y="-977.5" font-family="FreeSans" font-size="10.00" fill="#000000">_BIC_HP::ConstructProcess</text>
</a>
</g>
</g>
<!-- Node3&#45;&gt;Node5 -->
<g id="edge4" class="edge">
<title>Node3&#45;&gt;Node5</title>
<path fill="none" stroke="#191970" d="M538.0535,-1004.221C561.6833,-1001.4283 588.1592,-998.2994 612.2115,-995.4568"/>
<polygon fill="#191970" stroke="#191970" points="537.636,-1000.7458 528.116,-1005.3954 538.4577,-1007.6975 537.636,-1000.7458"/>
</g>
<!-- Node12 -->
<g id="node12" class="node">
<title>Node12</title>
<g id="a_node12"><a xlink:href="../../d3/d46/classG4IonConstructor.html#a2dcb8c57b28c77b2d52c74a2c3dd31a3" target="_top" xlink:title="G4IonConstructor::Construct\lLightIons">
<polygon fill="none" stroke="#000000" points="387.5,-690.5 387.5,-722.5 548.5,-722.5 548.5,-690.5 387.5,-690.5"/>
<text text-anchor="start" x="395.5" y="-709.5" font-family="FreeSans" font-size="10.00" fill="#000000">G4IonConstructor::Construct</text>
<text text-anchor="middle" x="468" y="-697.5" font-family="FreeSans" font-size="10.00" fill="#000000">LightIons</text>
</a>
</g>
</g>
<!-- Node11&#45;&gt;Node12 -->
<g id="edge11" class="edge">
<title>Node11&#45;&gt;Node12</title>
<path fill="none" stroke="#191970" d="M340.4368,-706.5C356.075,-706.5 372.1712,-706.5 387.4387,-706.5"/>
<polygon fill="#191970" stroke="#191970" points="340.2397,-703.0001 330.2397,-706.5 340.2396,-710.0001 340.2397,-703.0001"/>
</g>
<!-- Node48 -->
<g id="node48" class="node">
<title>Node48</title>
<g id="a_node48"><a xlink:href="../../d9/d06/classG4GeneratorPrecompoundInterface.html#a5863f08fdf69872a6a903894a6f7f426" target="_top" xlink:title="G4GeneratorPrecompoundInterface\l::PropagateNuclNucl">
<polygon fill="none" stroke="#000000" points="370,-639.5 370,-671.5 566,-671.5 566,-639.5 370,-639.5"/>
<text text-anchor="start" x="378" y="-658.5" font-family="FreeSans" font-size="10.00" fill="#000000">G4GeneratorPrecompoundInterface</text>
<text text-anchor="middle" x="468" y="-646.5" font-family="FreeSans" font-size="10.00" fill="#000000">::PropagateNuclNucl</text>
</a>
</g>
</g>
<!-- Node11&#45;&gt;Node48 -->
<g id="edge47" class="edge">
<title>Node11&#45;&gt;Node48</title>
<path fill="none" stroke="#191970" d="M300.716,-694.1976C310.4667,-691.9753 320.5364,-689.6739 330,-687.5 352.5315,-682.3242 377.1226,-676.6349 399.2228,-671.5071"/>
<polygon fill="#191970" stroke="#191970" points="299.6825,-690.8432 290.7091,-696.4762 301.2367,-697.6685 299.6825,-690.8432"/>
</g>
<!-- Node13 -->
<g id="node13" class="node">
<title>Node13</title>
<g id="a_node13"><a xlink:href="../../d3/d46/classG4IonConstructor.html#abbb8e711607437137f447c5046b9fbb0" target="_top" xlink:title="G4IonConstructor::Construct\lParticle">
<polygon fill="none" stroke="#000000" points="607.5,-690.5 607.5,-722.5 768.5,-722.5 768.5,-690.5 607.5,-690.5"/>
<text text-anchor="start" x="615.5" y="-709.5" font-family="FreeSans" font-size="10.00" fill="#000000">G4IonConstructor::Construct</text>
<text text-anchor="middle" x="688" y="-697.5" font-family="FreeSans" font-size="10.00" fill="#000000">Particle</text>
</a>
</g>
</g>
<!-- Node12&#45;&gt;Node13 -->
<g id="edge12" class="edge">
<title>Node12&#45;&gt;Node13</title>
<path fill="none" stroke="#191970" d="M559.0921,-706.5C575.094,-706.5 591.6463,-706.5 607.3391,-706.5"/>
<polygon fill="#191970" stroke="#191970" points="558.6707,-703.0001 548.6707,-706.5 558.6706,-710.0001 558.6707,-703.0001"/>
</g>
<!-- Node14 -->
<g id="node14" class="node">
<title>Node14</title>
<g id="a_node14"><a xlink:href="../../df/d95/classEICPhysicsList.html#a21f647e804de94e5391a97f525e89944" target="_top" xlink:title="EICPhysicsList::Construct\lParticle">
<polygon fill="none" stroke="#000000" points="822.5,-1380.5 822.5,-1412.5 965.5,-1412.5 965.5,-1380.5 822.5,-1380.5"/>
<text text-anchor="start" x="830.5" y="-1399.5" font-family="FreeSans" font-size="10.00" fill="#000000">EICPhysicsList::Construct</text>
<text text-anchor="middle" x="894" y="-1387.5" font-family="FreeSans" font-size="10.00" fill="#000000">Particle</text>
</a>
</g>
</g>
<!-- Node13&#45;&gt;Node14 -->
<g id="edge13" class="edge">
<title>Node13&#45;&gt;Node14</title>
<path fill="none" stroke="#191970" d="M698.2793,-731.9165C716.1207,-777.2169 752.5768,-875.2619 770,-961.5 788.1126,-1051.1503 747.7256,-1301.0065 806,-1371.5 810.5537,-1377.0085 816.2256,-1381.353 822.4819,-1384.7723"/>
<polygon fill="#191970" stroke="#191970" points="701.5116,-730.5727 694.567,-722.5712 695.0061,-733.157 701.5116,-730.5727"/>
</g>
<!-- Node15 -->
<g id="node15" class="node">
<title>Node15</title>
<g id="a_node15"><a xlink:href="../../de/d20/classParticles.html#aed880c43efffcdd5dfe505f18ae506ce" target="_top" xlink:title="Particles::ConstructParticle">
<polygon fill="none" stroke="#000000" points="818.5,-1341.5 818.5,-1361.5 969.5,-1361.5 969.5,-1341.5 818.5,-1341.5"/>
<text text-anchor="middle" x="894" y="-1348.5" font-family="FreeSans" font-size="10.00" fill="#000000">Particles::ConstructParticle</text>
</a>
</g>
</g>
<!-- Node13&#45;&gt;Node15 -->
<g id="edge14" class="edge">
<title>Node13&#45;&gt;Node15</title>
<path fill="none" stroke="#191970" d="M698.1987,-731.9329C715.9148,-777.259 752.1823,-875.3425 770,-961.5 786.7749,-1042.6153 750.9202,-1270.6348 806,-1332.5 809.5337,-1336.469 813.681,-1339.7189 818.2166,-1342.3707"/>
<polygon fill="#191970" stroke="#191970" points="701.4364,-730.6024 694.5134,-722.5822 694.9239,-733.169 701.4364,-730.6024"/>
</g>
<!-- Node16 -->
<g id="node16" class="node">
<title>Node16</title>
<g id="a_node16"><a xlink:href="../../de/d1d/classGammaKnifeParticles.html#abdcbefce2959e072d239b17f39560643" target="_top" xlink:title="GammaKnifeParticles\l::ConstructParticle">
<polygon fill="none" stroke="#000000" points="831.5,-1290.5 831.5,-1322.5 956.5,-1322.5 956.5,-1290.5 831.5,-1290.5"/>
<text text-anchor="start" x="839.5" y="-1309.5" font-family="FreeSans" font-size="10.00" fill="#000000">GammaKnifeParticles</text>
<text text-anchor="middle" x="894" y="-1297.5" font-family="FreeSans" font-size="10.00" fill="#000000">::ConstructParticle</text>
</a>
</g>
</g>
<!-- Node13&#45;&gt;Node16 -->
<g id="edge15" class="edge">
<title>Node13&#45;&gt;Node16</title>
<path fill="none" stroke="#191970" d="M698.0642,-731.9613C715.5711,-777.3315 751.5239,-875.4813 770,-961.5 785.0277,-1031.464 759.7352,-1226.9073 806,-1281.5 812.6744,-1289.3758 821.6326,-1294.8639 831.2847,-1298.669"/>
<polygon fill="#191970" stroke="#191970" points="701.3106,-730.6525 694.4241,-722.601 694.7866,-733.1896 701.3106,-730.6525"/>
</g>
<!-- Node17 -->
<g id="node17" class="node">
<title>Node17</title>
<g id="a_node17"><a xlink:href="../../dc/dd9/classHadrontherapyParticles.html#a9648fdebb8c5e1f6db8d29f5f9f508dc" target="_top" xlink:title="HadrontherapyParticles\l::ConstructParticle">
<polygon fill="none" stroke="#000000" points="826.5,-1239.5 826.5,-1271.5 961.5,-1271.5 961.5,-1239.5 826.5,-1239.5"/>
<text text-anchor="start" x="834.5" y="-1258.5" font-family="FreeSans" font-size="10.00" fill="#000000">HadrontherapyParticles</text>
<text text-anchor="middle" x="894" y="-1246.5" font-family="FreeSans" font-size="10.00" fill="#000000">::ConstructParticle</text>
</a>
</g>
</g>
<!-- Node13&#45;&gt;Node17 -->
<g id="edge16" class="edge">
<title>Node13&#45;&gt;Node17</title>
<path fill="none" stroke="#191970" d="M697.8798,-732.0019C715.1,-777.4352 750.6213,-875.6801 770,-961.5 783.2841,-1020.3295 766.5268,-1184.9012 806,-1230.5 811.5093,-1236.8643 818.5093,-1241.6649 826.1466,-1245.2765"/>
<polygon fill="#191970" stroke="#191970" points="701.1377,-730.7223 694.3016,-722.628 694.5979,-733.2187 701.1377,-730.7223"/>
</g>
<!-- Node18 -->
<g id="node18" class="node">
<title>Node18</title>
<g id="a_node18"><a xlink:href="../../de/d5e/classDMXPhysicsList.html#af33852a50fb79566eed27bb0683f3174" target="_top" xlink:title="DMXPhysicsList::Construct\lMyHadrons">
<polygon fill="none" stroke="#000000" points="819,-1188.5 819,-1220.5 969,-1220.5 969,-1188.5 819,-1188.5"/>
<text text-anchor="start" x="827" y="-1207.5" font-family="FreeSans" font-size="10.00" fill="#000000">DMXPhysicsList::Construct</text>
<text text-anchor="middle" x="894" y="-1195.5" font-family="FreeSans" font-size="10.00" fill="#000000">MyHadrons</text>
</a>
</g>
</g>
<!-- Node13&#45;&gt;Node18 -->
<g id="edge17" class="edge">
<title>Node13&#45;&gt;Node18</title>
<path fill="none" stroke="#191970" d="M697.6118,-732.0646C714.4154,-777.5953 749.3097,-875.9869 770,-961.5 793.0939,-1056.947 740.5984,-1106.2464 806,-1179.5 809.7022,-1183.6466 814.0369,-1187.1267 818.7621,-1190.045"/>
<polygon fill="#191970" stroke="#191970" points="700.8854,-730.8261 694.1236,-722.6696 694.3232,-733.2626 700.8854,-730.8261"/>
</g>
<!-- Node20 -->
<g id="node20" class="node">
<title>Node20</title>
<g id="a_node20"><a xlink:href="../../d8/d26/classXrayFluoPhysicsList.html#af1e34a2dfd3c81c559b0db448de9deb6" target="_top" xlink:title="XrayFluoPhysicsList\l::ConstructParticle">
<polygon fill="none" stroke="#000000" points="836,-1137.5 836,-1169.5 952,-1169.5 952,-1137.5 836,-1137.5"/>
<text text-anchor="start" x="844" y="-1156.5" font-family="FreeSans" font-size="10.00" fill="#000000">XrayFluoPhysicsList</text>
<text text-anchor="middle" x="894" y="-1144.5" font-family="FreeSans" font-size="10.00" fill="#000000">::ConstructParticle</text>
</a>
</g>
</g>
<!-- Node13&#45;&gt;Node20 -->
<g id="edge19" class="edge">
<title>Node13&#45;&gt;Node20</title>
<path fill="none" stroke="#191970" d="M697.188,-732.1726C713.3328,-777.8713 747.2355,-876.5155 770,-961.5 789.6458,-1034.8415 754.0698,-1073.1087 806,-1128.5 814.0384,-1137.0741 824.7826,-1142.7803 835.9967,-1146.5601"/>
<polygon fill="#191970" stroke="#191970" points="700.4842,-730.9956 693.8421,-722.7414 693.8871,-733.3361 700.4842,-730.9956"/>
</g>
<!-- Node21 -->
<g id="node21" class="node">
<title>Node21</title>
<g id="a_node21"><a xlink:href="../../d0/d9b/classXrayTelPhysicsList.html#ab489c1350563170db23914c69f51ffda" target="_top" xlink:title="XrayTelPhysicsList\l::ConstructIons">
<polygon fill="none" stroke="#000000" points="840,-1086.5 840,-1118.5 948,-1118.5 948,-1086.5 840,-1086.5"/>
<text text-anchor="start" x="848" y="-1105.5" font-family="FreeSans" font-size="10.00" fill="#000000">XrayTelPhysicsList</text>
<text text-anchor="middle" x="894" y="-1093.5" font-family="FreeSans" font-size="10.00" fill="#000000">::ConstructIons</text>
</a>
</g>
</g>
<!-- Node13&#45;&gt;Node21 -->
<g id="edge20" class="edge">
<title>Node13&#45;&gt;Node21</title>
<path fill="none" stroke="#191970" d="M696.4078,-732.3472C711.3575,-778.3714 743.4849,-877.5776 770,-961.5 786.2629,-1012.9732 767.3719,-1039.7926 806,-1077.5 815.2058,-1086.4863 827.3959,-1092.2888 839.7603,-1096.0226"/>
<polygon fill="#191970" stroke="#191970" points="699.6571,-731.0211 693.2378,-722.5925 692.9999,-733.1846 699.6571,-731.0211"/>
</g>
<!-- Node23 -->
<g id="node23" class="node">
<title>Node23</title>
<g id="a_node23"><a xlink:href="../../d4/d90/classB03PhysicsList.html#a69105ca9dfc6f601562ba7744ced2282" target="_top" xlink:title="B03PhysicsList::Construct\lAllIons">
<polygon fill="none" stroke="#000000" points="820.5,-1035.5 820.5,-1067.5 967.5,-1067.5 967.5,-1035.5 820.5,-1035.5"/>
<text text-anchor="start" x="828.5" y="-1054.5" font-family="FreeSans" font-size="10.00" fill="#000000">B03PhysicsList::Construct</text>
<text text-anchor="middle" x="894" y="-1042.5" font-family="FreeSans" font-size="10.00" fill="#000000">AllIons</text>
</a>
</g>
</g>
<!-- Node13&#45;&gt;Node23 -->
<g id="edge22" class="edge">
<title>Node13&#45;&gt;Node23</title>
<path fill="none" stroke="#191970" d="M696.1075,-732.5521C718.8868,-805.0901 783.2799,-1005.4544 806,-1026.5 810.3111,-1030.4934 815.2143,-1033.8547 820.4484,-1036.6831"/>
<polygon fill="#191970" stroke="#191970" points="699.3866,-731.3112 693.0585,-722.8138 692.7064,-733.4028 699.3866,-731.3112"/>
</g>
<!-- Node25 -->
<g id="node25" class="node">
<title>Node25</title>
<g id="a_node25"><a xlink:href="../../db/db6/classG4ChannelingPhysics.html#a1739cc5b63fb552ec3966f1d072701d1" target="_top" xlink:title="G4ChannelingPhysics\l::ConstructParticle">
<polygon fill="none" stroke="#000000" points="831,-984.5 831,-1016.5 957,-1016.5 957,-984.5 831,-984.5"/>
<text text-anchor="start" x="839" y="-1003.5" font-family="FreeSans" font-size="10.00" fill="#000000">G4ChannelingPhysics</text>
<text text-anchor="middle" x="894" y="-991.5" font-family="FreeSans" font-size="10.00" fill="#000000">::ConstructParticle</text>
</a>
</g>
</g>
<!-- Node13&#45;&gt;Node25 -->
<g id="edge24" class="edge">
<title>Node13&#45;&gt;Node25</title>
<path fill="none" stroke="#191970" d="M691.9249,-732.6952C701.3785,-786.442 730.4846,-909.6538 806,-975.5 813.1824,-981.7628 821.8321,-986.4632 830.8666,-989.9895"/>
<polygon fill="#191970" stroke="#191970" points="695.3413,-731.9043 690.2421,-722.6173 688.4369,-733.0572 695.3413,-731.9043"/>
</g>
<!-- Node26 -->
<g id="node26" class="node">
<title>Node26</title>
<g id="a_node26"><a xlink:href="../../d2/d49/classPar02PhysicsList.html#a13d9e219be396b801dadb36b12d64b44" target="_top" xlink:title="Constructs light ions.">
<polygon fill="none" stroke="#000000" points="806,-945.5 806,-965.5 982,-965.5 982,-945.5 806,-945.5"/>
<text text-anchor="middle" x="894" y="-952.5" font-family="FreeSans" font-size="10.00" fill="#000000">Par02PhysicsList::ConstructIons</text>
</a>
</g>
</g>
<!-- Node13&#45;&gt;Node26 -->
<g id="edge25" class="edge">
<title>Node13&#45;&gt;Node26</title>
<path fill="none" stroke="#191970" d="M693.6254,-732.6141C705.4563,-780.9111 737.6564,-884.0355 806,-936.5 810.7112,-940.1166 815.9628,-943.0782 821.4904,-945.4995"/>
<polygon fill="#191970" stroke="#191970" points="696.9772,-731.5775 691.2838,-722.6425 690.1626,-733.1778 696.9772,-731.5775"/>
</g>
<!-- Node28 -->
<g id="node28" class="node">
<title>Node28</title>
<g id="a_node28"><a xlink:href="../../d9/d5f/classG4DecayPhysics.html#a0853458914af3c40b44fe3d888d31324" target="_top" xlink:title="G4DecayPhysics::Construct\lParticle">
<polygon fill="none" stroke="#000000" points="816,-894.5 816,-926.5 972,-926.5 972,-894.5 816,-894.5"/>
<text text-anchor="start" x="824" y="-913.5" font-family="FreeSans" font-size="10.00" fill="#000000">G4DecayPhysics::Construct</text>
<text text-anchor="middle" x="894" y="-901.5" font-family="FreeSans" font-size="10.00" fill="#000000">Particle</text>
</a>
</g>
</g>
<!-- Node13&#45;&gt;Node28 -->
<g id="edge27" class="edge">
<title>Node13&#45;&gt;Node28</title>
<path fill="none" stroke="#191970" d="M697.8927,-732.0022C714.3413,-771.0173 751.0377,-845.2252 806,-885.5 810.612,-888.8795 815.6671,-891.8029 820.9494,-894.3317"/>
<polygon fill="#191970" stroke="#191970" points="701.0931,-730.5818 694.0588,-722.6591 694.6172,-733.2392 701.0931,-730.5818"/>
</g>
<!-- Node29 -->
<g id="node29" class="node">
<title>Node29</title>
<g id="a_node29"><a xlink:href="../../db/d7c/classG4HadronDElasticPhysics.html#a18fc9e3f4008972b3483c191f2b13133" target="_top" xlink:title="G4HadronDElasticPhysics\l::ConstructParticle">
<polygon fill="none" stroke="#000000" points="821,-843.5 821,-875.5 967,-875.5 967,-843.5 821,-843.5"/>
<text text-anchor="start" x="829" y="-862.5" font-family="FreeSans" font-size="10.00" fill="#000000">G4HadronDElasticPhysics</text>
<text text-anchor="middle" x="894" y="-850.5" font-family="FreeSans" font-size="10.00" fill="#000000">::ConstructParticle</text>
</a>
</g>
</g>
<!-- Node13&#45;&gt;Node29 -->
<g id="edge28" class="edge">
<title>Node13&#45;&gt;Node29</title>
<path fill="none" stroke="#191970" d="M704.3772,-731.289C724.7948,-760.2664 762.3709,-807.6659 806,-834.5 811.5466,-837.9114 817.5738,-840.8714 823.7853,-843.437"/>
<polygon fill="#191970" stroke="#191970" points="707.167,-729.1695 698.6038,-722.9306 701.4073,-733.1478 707.167,-729.1695"/>
</g>
<!-- Node30 -->
<g id="node30" class="node">
<title>Node30</title>
<g id="a_node30"><a xlink:href="../../d7/d7f/classG4HadronElasticPhysics.html#a3f031f167234450c4275257470213e2e" target="_top" xlink:title="G4HadronElasticPhysics\l::ConstructParticle">
<polygon fill="none" stroke="#000000" points="825,-792.5 825,-824.5 963,-824.5 963,-792.5 825,-792.5"/>
<text text-anchor="start" x="833" y="-811.5" font-family="FreeSans" font-size="10.00" fill="#000000">G4HadronElasticPhysics</text>
<text text-anchor="middle" x="894" y="-799.5" font-family="FreeSans" font-size="10.00" fill="#000000">::ConstructParticle</text>
</a>
</g>
</g>
<!-- Node13&#45;&gt;Node30 -->
<g id="edge29" class="edge">
<title>Node13&#45;&gt;Node30</title>
<path fill="none" stroke="#191970" d="M716.9092,-728.9335C739.9573,-745.9127 773.6281,-768.7522 806,-783.5 813.2266,-786.7922 820.9872,-789.7521 828.7976,-792.3839"/>
<polygon fill="#191970" stroke="#191970" points="718.727,-725.9226 708.6208,-722.742 714.5377,-731.5307 718.727,-725.9226"/>
</g>
<!-- Node31 -->
<g id="node31" class="node">
<title>Node31</title>
<g id="a_node31"><a xlink:href="../../d4/d65/classG4HadronHElasticPhysics.html#a4aec6dc21cc8dda5e6dcda178a71d0f1" target="_top" xlink:title="G4HadronHElasticPhysics\l::ConstructParticle">
<polygon fill="none" stroke="#000000" points="821,-741.5 821,-773.5 967,-773.5 967,-741.5 821,-741.5"/>
<text text-anchor="start" x="829" y="-760.5" font-family="FreeSans" font-size="10.00" fill="#000000">G4HadronHElasticPhysics</text>
<text text-anchor="middle" x="894" y="-748.5" font-family="FreeSans" font-size="10.00" fill="#000000">::ConstructParticle</text>
</a>
</g>
</g>
<!-- Node13&#45;&gt;Node31 -->
<g id="edge30" class="edge">
<title>Node13&#45;&gt;Node31</title>
<path fill="none" stroke="#191970" d="M762.7356,-725.0025C784.4613,-730.3812 808.0053,-736.2101 829.0755,-741.4264"/>
<polygon fill="#191970" stroke="#191970" points="763.445,-721.5725 752.8969,-722.5667 761.7627,-728.3674 763.445,-721.5725"/>
</g>
<!-- Node32 -->
<g id="node32" class="node">
<title>Node32</title>
<g id="a_node32"><a xlink:href="../../d8/d83/classG4HadronPhysicsINCLXX.html#a2feb1befcacefc0a3d9901f6d641879f" target="_top" xlink:title="G4HadronPhysicsINCLXX\l::ConstructParticle">
<polygon fill="none" stroke="#000000" points="823.5,-690.5 823.5,-722.5 964.5,-722.5 964.5,-690.5 823.5,-690.5"/>
<text text-anchor="start" x="831.5" y="-709.5" font-family="FreeSans" font-size="10.00" fill="#000000">G4HadronPhysicsINCLXX</text>
<text text-anchor="middle" x="894" y="-697.5" font-family="FreeSans" font-size="10.00" fill="#000000">::ConstructParticle</text>
</a>
</g>
</g>
<!-- Node13&#45;&gt;Node32 -->
<g id="edge31" class="edge">
<title>Node13&#45;&gt;Node32</title>
<path fill="none" stroke="#191970" d="M778.7727,-706.5C793.67,-706.5 808.9134,-706.5 823.2326,-706.5"/>
<polygon fill="#191970" stroke="#191970" points="778.5301,-703.0001 768.53,-706.5 778.53,-710.0001 778.5301,-703.0001"/>
</g>
<!-- Node33 -->
<g id="node33" class="node">
<title>Node33</title>
<g id="a_node33"><a xlink:href="../../d8/dbb/classG4HadronPhysicsQGS__BIC.html#a2916eea98d9392252948fa4d35fef4f0" target="_top" xlink:title="G4HadronPhysicsQGS\l_BIC::ConstructParticle">
<polygon fill="none" stroke="#000000" points="828.5,-639.5 828.5,-671.5 959.5,-671.5 959.5,-639.5 828.5,-639.5"/>
<text text-anchor="start" x="836.5" y="-658.5" font-family="FreeSans" font-size="10.00" fill="#000000">G4HadronPhysicsQGS</text>
<text text-anchor="middle" x="894" y="-646.5" font-family="FreeSans" font-size="10.00" fill="#000000">_BIC::ConstructParticle</text>
</a>
</g>
</g>
<!-- Node13&#45;&gt;Node33 -->
<g id="edge32" class="edge">
<title>Node13&#45;&gt;Node33</title>
<path fill="none" stroke="#191970" d="M762.7356,-687.9975C784.4613,-682.6188 808.0053,-676.7899 829.0755,-671.5736"/>
<polygon fill="#191970" stroke="#191970" points="761.7627,-684.6326 752.8969,-690.4333 763.445,-691.4275 761.7627,-684.6326"/>
</g>
<!-- Node34 -->
<g id="node34" class="node">
<title>Node34</title>
<g id="a_node34"><a xlink:href="../../d9/d14/classG4HadronPhysicsQGSP__BERT.html#a1c5656d74f081613e842dacb29d657d5" target="_top" xlink:title="G4HadronPhysicsQGSP\l_BERT::ConstructParticle">
<polygon fill="none" stroke="#000000" points="824.5,-588.5 824.5,-620.5 963.5,-620.5 963.5,-588.5 824.5,-588.5"/>
<text text-anchor="start" x="832.5" y="-607.5" font-family="FreeSans" font-size="10.00" fill="#000000">G4HadronPhysicsQGSP</text>
<text text-anchor="middle" x="894" y="-595.5" font-family="FreeSans" font-size="10.00" fill="#000000">_BERT::ConstructParticle</text>
</a>
</g>
</g>
<!-- Node13&#45;&gt;Node34 -->
<g id="edge33" class="edge">
<title>Node13&#45;&gt;Node34</title>
<path fill="none" stroke="#191970" d="M717.4215,-684.1679C740.5048,-667.504 773.9828,-645.1736 806,-630.5 814.11,-626.7832 822.8828,-623.4483 831.6404,-620.5061"/>
<polygon fill="#191970" stroke="#191970" points="715.1127,-681.5202 709.1082,-690.2493 719.2457,-687.1699 715.1127,-681.5202"/>
</g>
<!-- Node35 -->
<g id="node35" class="node">
<title>Node35</title>
<g id="a_node35"><a xlink:href="../../d3/d9f/classG4HadronPhysicsQGSP__BIC.html#ad7b945ea7b74a2971b10a6f5c1f81796" target="_top" xlink:title="G4HadronPhysicsQGSP\l_BIC::ConstructParticle">
<polygon fill="none" stroke="#000000" points="827,-537.5 827,-569.5 961,-569.5 961,-537.5 827,-537.5"/>
<text text-anchor="start" x="835" y="-556.5" font-family="FreeSans" font-size="10.00" fill="#000000">G4HadronPhysicsQGSP</text>
<text text-anchor="middle" x="894" y="-544.5" font-family="FreeSans" font-size="10.00" fill="#000000">_BIC::ConstructParticle</text>
</a>
</g>
</g>
<!-- Node13&#45;&gt;Node35 -->
<g id="edge34" class="edge">
<title>Node13&#45;&gt;Node35</title>
<path fill="none" stroke="#191970" d="M704.4704,-681.9866C724.9787,-653.3153 762.6429,-606.3636 806,-579.5 812.5002,-575.4726 819.6565,-572.0414 826.9945,-569.1244"/>
<polygon fill="#191970" stroke="#191970" points="701.5474,-680.0589 698.6692,-690.2553 707.2778,-684.0792 701.5474,-680.0589"/>
</g>
<!-- Node36 -->
<g id="node36" class="node">
<title>Node36</title>
<g id="a_node36"><a xlink:href="../../d2/df9/classG4HadronPhysicsQGSP__BIC__AllHP.html#af7ce00c5d6e9b16053511dd4e5d49ca7" target="_top" xlink:title="G4HadronPhysicsQGSP\l_BIC_AllHP::ConstructParticle">
<polygon fill="none" stroke="#000000" points="812.5,-486.5 812.5,-518.5 975.5,-518.5 975.5,-486.5 812.5,-486.5"/>
<text text-anchor="start" x="820.5" y="-505.5" font-family="FreeSans" font-size="10.00" fill="#000000">G4HadronPhysicsQGSP</text>
<text text-anchor="middle" x="894" y="-493.5" font-family="FreeSans" font-size="10.00" fill="#000000">_BIC_AllHP::ConstructParticle</text>
</a>
</g>
</g>
<!-- Node13&#45;&gt;Node36 -->
<g id="edge35" class="edge">
<title>Node13&#45;&gt;Node36</title>
<path fill="none" stroke="#191970" d="M698.0893,-680.9626C714.7104,-642.1925 751.5265,-568.7485 806,-528.5 811.1251,-524.7133 816.797,-521.4751 822.7198,-518.7066"/>
<polygon fill="#191970" stroke="#191970" points="694.7401,-679.9005 694.1191,-690.4772 701.2002,-682.5963 694.7401,-679.9005"/>
</g>
<!-- Node37 -->
<g id="node37" class="node">
<title>Node37</title>
<g id="a_node37"><a xlink:href="../../d2/d46/classG4HadronPhysicsQGSP__BIC__HP.html#a0fa98e6e1f101c6614799507022a7d15" target="_top" xlink:title="G4HadronPhysicsQGSP\l_BIC_HP::ConstructParticle">
<polygon fill="none" stroke="#000000" points="819,-435.5 819,-467.5 969,-467.5 969,-435.5 819,-435.5"/>
<text text-anchor="start" x="827" y="-454.5" font-family="FreeSans" font-size="10.00" fill="#000000">G4HadronPhysicsQGSP</text>
<text text-anchor="middle" x="894" y="-442.5" font-family="FreeSans" font-size="10.00" fill="#000000">_BIC_HP::ConstructParticle</text>
</a>
</g>
</g>
<!-- Node13&#45;&gt;Node37 -->
<g id="edge36" class="edge">
<title>Node13&#45;&gt;Node37</title>
<path fill="none" stroke="#191970" d="M694.1265,-680.6227C706.7104,-633.1688 740.0013,-532.0976 806,-477.5 810.6645,-473.6413 815.8831,-470.3553 821.3887,-467.557"/>
<polygon fill="#191970" stroke="#191970" points="690.7062,-679.8709 691.6215,-690.4262 697.4883,-681.604 690.7062,-679.8709"/>
</g>
<!-- Node38 -->
<g id="node38" class="node">
<title>Node38</title>
<g id="a_node38"><a xlink:href="../../d9/d3e/classG4HadronPhysicsShielding.html#af5502f2cbb8b70079a3b976509d61839" target="_top" xlink:title="G4HadronPhysicsShielding\l::ConstructParticle">
<polygon fill="none" stroke="#000000" points="818,-384.5 818,-416.5 970,-416.5 970,-384.5 818,-384.5"/>
<text text-anchor="start" x="826" y="-403.5" font-family="FreeSans" font-size="10.00" fill="#000000">G4HadronPhysicsShielding</text>
<text text-anchor="middle" x="894" y="-391.5" font-family="FreeSans" font-size="10.00" fill="#000000">::ConstructParticle</text>
</a>
</g>
</g>
<!-- Node13&#45;&gt;Node38 -->
<g id="edge37" class="edge">
<title>Node13&#45;&gt;Node38</title>
<path fill="none" stroke="#191970" d="M691.4616,-680.4597C700.1852,-625.3006 728.2152,-496.0575 806,-426.5 810.2751,-422.6771 815.088,-419.4153 820.203,-416.6322"/>
<polygon fill="#191970" stroke="#191970" points="687.9831,-680.0563 689.9653,-690.4641 694.9061,-681.0918 687.9831,-680.0563"/>
</g>
<!-- Node39 -->
<g id="node39" class="node">
<title>Node39</title>
<g id="a_node39"><a xlink:href="../../df/deb/classG4HadronPhysicsShieldingLEND.html#adfd4c845b972948c8a12588dc7590ba6" target="_top" xlink:title="G4HadronPhysicsShielding\lLEND::ConstructParticle">
<polygon fill="none" stroke="#000000" points="818,-333.5 818,-365.5 970,-365.5 970,-333.5 818,-333.5"/>
<text text-anchor="start" x="826" y="-352.5" font-family="FreeSans" font-size="10.00" fill="#000000">G4HadronPhysicsShielding</text>
<text text-anchor="middle" x="894" y="-340.5" font-family="FreeSans" font-size="10.00" fill="#000000">LEND::ConstructParticle</text>
</a>
</g>
</g>
<!-- Node13&#45;&gt;Node39 -->
<g id="edge38" class="edge">
<title>Node13&#45;&gt;Node39</title>
<path fill="none" stroke="#191970" d="M689.561,-680.1614C694.6933,-617.8673 716.3337,-460.3512 806,-375.5 810.0499,-371.6676 814.6373,-368.3971 819.5395,-365.6066"/>
<polygon fill="#191970" stroke="#191970" points="686.0572,-680.0833 688.8039,-690.3159 693.0378,-680.6038 686.0572,-680.0833"/>
</g>
<!-- Node40 -->
<g id="node40" class="node">
<title>Node40</title>
<g id="a_node40"><a xlink:href="../../d8/d6e/classG4VHadronPhysics.html#a5d4623ca53f97844cdc053ad4d030013" target="_top" xlink:title="G4VHadronPhysics::Construct\lParticle">
<polygon fill="none" stroke="#000000" points="810,-282.5 810,-314.5 978,-314.5 978,-282.5 810,-282.5"/>
<text text-anchor="start" x="818" y="-301.5" font-family="FreeSans" font-size="10.00" fill="#000000">G4VHadronPhysics::Construct</text>
<text text-anchor="middle" x="894" y="-289.5" font-family="FreeSans" font-size="10.00" fill="#000000">Particle</text>
</a>
</g>
</g>
<!-- Node13&#45;&gt;Node40 -->
<g id="edge39" class="edge">
<title>Node13&#45;&gt;Node40</title>
<path fill="none" stroke="#191970" d="M692.7128,-680.6156C707.2806,-603.2779 753.7655,-376.0949 806,-324.5 809.8535,-320.6937 814.2357,-317.4398 818.9381,-314.6587"/>
<polygon fill="#191970" stroke="#191970" points="689.2621,-680.0281 690.8718,-690.4999 696.1438,-681.3099 689.2621,-680.0281"/>
</g>
<!-- Node41 -->
<g id="node41" class="node">
<title>Node41</title>
<g id="a_node41"><a xlink:href="../../d9/dfa/classG4IonINCLXXPhysics.html#a7779280bab7e84f1dac72729191935dd" target="_top" xlink:title="G4IonINCLXXPhysics\l::ConstructParticle">
<polygon fill="none" stroke="#000000" points="834,-231.5 834,-263.5 954,-263.5 954,-231.5 834,-231.5"/>
<text text-anchor="start" x="842" y="-250.5" font-family="FreeSans" font-size="10.00" fill="#000000">G4IonINCLXXPhysics</text>
<text text-anchor="middle" x="894" y="-238.5" font-family="FreeSans" font-size="10.00" fill="#000000">::ConstructParticle</text>
</a>
</g>
</g>
<!-- Node13&#45;&gt;Node41 -->
<g id="edge40" class="edge">
<title>Node13&#45;&gt;Node41</title>
<path fill="none" stroke="#191970" d="M691.7565,-680.3061C704.3593,-595.9058 747.6468,-333.1051 806,-273.5 813.5783,-265.7592 823.3395,-260.2962 833.5894,-256.4471"/>
<polygon fill="#191970" stroke="#191970" points="688.2726,-679.9407 690.2774,-690.3441 695.1979,-680.9612 688.2726,-679.9407"/>
</g>
<!-- Node42 -->
<g id="node42" class="node">
<title>Node42</title>
<g id="a_node42"><a xlink:href="../../da/dcd/classG4IonPhysics.html#aede2d47b9465ef3b20194c485dbfcac2" target="_top" xlink:title="G4IonPhysics::ConstructParticle">
<polygon fill="none" stroke="#000000" points="806,-192.5 806,-212.5 982,-212.5 982,-192.5 806,-192.5"/>
<text text-anchor="middle" x="894" y="-199.5" font-family="FreeSans" font-size="10.00" fill="#000000">G4IonPhysics::ConstructParticle</text>
</a>
</g>
</g>
<!-- Node13&#45;&gt;Node42 -->
<g id="edge41" class="edge">
<title>Node13&#45;&gt;Node42</title>
<path fill="none" stroke="#191970" d="M690.7687,-680.42C700.9482,-589.4645 739.2223,-288.2401 806,-222.5 810.0194,-218.5431 814.6485,-215.3035 819.6365,-212.6579"/>
<polygon fill="#191970" stroke="#191970" points="687.281,-680.1171 689.6665,-690.4399 694.239,-680.8825 687.281,-680.1171"/>
</g>
<!-- Node43 -->
<g id="node43" class="node">
<title>Node43</title>
<g id="a_node43"><a xlink:href="../../df/d98/classG4IonPhysicsPHP.html#ace163b25d8a9947f2f005282149d2691" target="_top" xlink:title="G4IonPhysicsPHP::Construct\lParticle">
<polygon fill="none" stroke="#000000" points="814.5,-141.5 814.5,-173.5 973.5,-173.5 973.5,-141.5 814.5,-141.5"/>
<text text-anchor="start" x="822.5" y="-160.5" font-family="FreeSans" font-size="10.00" fill="#000000">G4IonPhysicsPHP::Construct</text>
<text text-anchor="middle" x="894" y="-148.5" font-family="FreeSans" font-size="10.00" fill="#000000">Particle</text>
</a>
</g>
</g>
<!-- Node13&#45;&gt;Node43 -->
<g id="edge42" class="edge">
<title>Node13&#45;&gt;Node43</title>
<path fill="none" stroke="#191970" d="M690.4311,-680.3692C699.8084,-585.0254 736.611,-257.5803 806,-183.5 809.5939,-179.6632 813.7235,-176.3835 818.191,-173.581"/>
<polygon fill="#191970" stroke="#191970" points="686.9467,-680.0405 689.4689,-690.3308 693.9142,-680.7137 686.9467,-680.0405"/>
</g>
<!-- Node44 -->
<g id="node44" class="node">
<title>Node44</title>
<g id="a_node44"><a xlink:href="../../d0/da0/classG4IonQMDPhysics.html#abfeb50f3d252d6b4a2bb3db6d692bdb2" target="_top" xlink:title="G4IonQMDPhysics::Construct\lParticle">
<polygon fill="none" stroke="#000000" points="812,-90.5 812,-122.5 976,-122.5 976,-90.5 812,-90.5"/>
<text text-anchor="start" x="820" y="-109.5" font-family="FreeSans" font-size="10.00" fill="#000000">G4IonQMDPhysics::Construct</text>
<text text-anchor="middle" x="894" y="-97.5" font-family="FreeSans" font-size="10.00" fill="#000000">Particle</text>
</a>
</g>
</g>
<!-- Node13&#45;&gt;Node44 -->
<g id="edge43" class="edge">
<title>Node13&#45;&gt;Node44</title>
<path fill="none" stroke="#191970" d="M689.8772,-680.1992C697.6292,-578.8005 730.3637,-214.8163 806,-132.5 809.557,-128.6289 813.6592,-125.3238 818.1069,-122.5031"/>
<polygon fill="#191970" stroke="#191970" points="686.365,-680.2339 689.1098,-690.467 693.3455,-680.7557 686.365,-680.2339"/>
</g>
<!-- Node45 -->
<g id="node45" class="node">
<title>Node45</title>
<g id="a_node45"><a xlink:href="../../d4/d5a/classLBE.html#a030fa338a040c5fc967cc503a3e9ba38" target="_top" xlink:title="LBE::ConstructMyIons">
<polygon fill="none" stroke="#000000" points="831,-51.5 831,-71.5 957,-71.5 957,-51.5 831,-51.5"/>
<text text-anchor="middle" x="894" y="-58.5" font-family="FreeSans" font-size="10.00" fill="#000000">LBE::ConstructMyIons</text>
</a>
</g>
</g>
<!-- Node13&#45;&gt;Node45 -->
<g id="edge44" class="edge">
<title>Node13&#45;&gt;Node45</title>
<path fill="none" stroke="#191970" d="M689.2341,-680.1793C694.8079,-572.8154 721.1665,-169.5207 806,-81.5 812.7409,-74.5059 821.3783,-69.7264 830.5982,-66.4992"/>
<polygon fill="#191970" stroke="#191970" points="685.725,-680.2759 688.7188,-690.439 692.7161,-680.6272 685.725,-680.2759"/>
</g>
<!-- Node47 -->
<g id="node47" class="node">
<title>Node47</title>
<g id="a_node47"><a xlink:href="../../de/d51/classG4RunManagerKernel.html#a4ccfd717f3627547befc1e9150642d76" target="_top" xlink:title="G4RunManagerKernel\l::SetupPhysics">
<polygon fill="none" stroke="#ff0000" points="831,-.5 831,-32.5 957,-32.5 957,-.5 831,-.5"/>
<text text-anchor="start" x="839" y="-19.5" font-family="FreeSans" font-size="10.00" fill="#000000">G4RunManagerKernel</text>
<text text-anchor="middle" x="894" y="-7.5" font-family="FreeSans" font-size="10.00" fill="#000000">::SetupPhysics</text>
</a>
</g>
</g>
<!-- Node13&#45;&gt;Node47 -->
<g id="edge46" class="edge">
<title>Node13&#45;&gt;Node47</title>
<path fill="none" stroke="#191970" d="M689.0816,-680.1475C694.1668,-568.9712 719.2193,-139.5302 806,-42.5 812.6906,-35.0192 821.4177,-29.6457 830.7737,-25.7954"/>
<polygon fill="#191970" stroke="#191970" points="685.5713,-680.3048 688.6266,-690.4496 692.5645,-680.6138 685.5713,-680.3048"/>
</g>
<!-- Node19 -->
<g id="node19" class="node">
<title>Node19</title>
<g id="a_node19"><a xlink:href="../../de/d5e/classDMXPhysicsList.html#a7cb54df62c3efc03698cc986d8af3c7a" target="_top" xlink:title="DMXPhysicsList::Construct\lParticle">
<polygon fill="none" stroke="#000000" points="1021,-1188.5 1021,-1220.5 1171,-1220.5 1171,-1188.5 1021,-1188.5"/>
<text text-anchor="start" x="1029" y="-1207.5" font-family="FreeSans" font-size="10.00" fill="#000000">DMXPhysicsList::Construct</text>
<text text-anchor="middle" x="1096" y="-1195.5" font-family="FreeSans" font-size="10.00" fill="#000000">Particle</text>
</a>
</g>
</g>
<!-- Node18&#45;&gt;Node19 -->
<g id="edge18" class="edge">
<title>Node18&#45;&gt;Node19</title>
<path fill="none" stroke="#191970" d="M979.58,-1204.5C993.2519,-1204.5 1007.3099,-1204.5 1020.7198,-1204.5"/>
<polygon fill="#191970" stroke="#191970" points="979.2174,-1201.0001 969.2173,-1204.5 979.2173,-1208.0001 979.2174,-1201.0001"/>
</g>
<!-- Node22 -->
<g id="node22" class="node">
<title>Node22</title>
<g id="a_node22"><a xlink:href="../../d0/d9b/classXrayTelPhysicsList.html#a1968e904024068ac6c265a708c1726d1" target="_top" xlink:title="XrayTelPhysicsList\l::ConstructParticle">
<polygon fill="none" stroke="#000000" points="1041.5,-1086.5 1041.5,-1118.5 1150.5,-1118.5 1150.5,-1086.5 1041.5,-1086.5"/>
<text text-anchor="start" x="1049.5" y="-1105.5" font-family="FreeSans" font-size="10.00" fill="#000000">XrayTelPhysicsList</text>
<text text-anchor="middle" x="1096" y="-1093.5" font-family="FreeSans" font-size="10.00" fill="#000000">::ConstructParticle</text>
</a>
</g>
</g>
<!-- Node21&#45;&gt;Node22 -->
<g id="edge21" class="edge">
<title>Node21&#45;&gt;Node22</title>
<path fill="none" stroke="#191970" d="M958.1758,-1102.5C984.9414,-1102.5 1015.7046,-1102.5 1041.3671,-1102.5"/>
<polygon fill="#191970" stroke="#191970" points="958.1323,-1099.0001 948.1323,-1102.5 958.1323,-1106.0001 958.1323,-1099.0001"/>
</g>
<!-- Node24 -->
<g id="node24" class="node">
<title>Node24</title>
<g id="a_node24"><a xlink:href="../../d4/d90/classB03PhysicsList.html#a4eba1b1b48c5c42796b2563954e87fb7" target="_top" xlink:title="B03PhysicsList::Construct\lParticle">
<polygon fill="none" stroke="#000000" points="1022.5,-1035.5 1022.5,-1067.5 1169.5,-1067.5 1169.5,-1035.5 1022.5,-1035.5"/>
<text text-anchor="start" x="1030.5" y="-1054.5" font-family="FreeSans" font-size="10.00" fill="#000000">B03PhysicsList::Construct</text>
<text text-anchor="middle" x="1096" y="-1042.5" font-family="FreeSans" font-size="10.00" fill="#000000">Particle</text>
</a>
</g>
</g>
<!-- Node23&#45;&gt;Node24 -->
<g id="edge23" class="edge">
<title>Node23&#45;&gt;Node24</title>
<path fill="none" stroke="#191970" d="M977.9131,-1051.5C992.683,-1051.5 1007.9551,-1051.5 1022.4159,-1051.5"/>
<polygon fill="#191970" stroke="#191970" points="977.7841,-1048.0001 967.7841,-1051.5 977.7841,-1055.0001 977.7841,-1048.0001"/>
</g>
<!-- Node27 -->
<g id="node27" class="node">
<title>Node27</title>
<g id="a_node27"><a xlink:href="../../d2/d49/classPar02PhysicsList.html#ab6b8e1508d000d4b33efe831a01ac3d6" target="_top" xlink:title="Constructs particles: bosons, leptons, mesons, baryons and ions.">
<polygon fill="none" stroke="#000000" points="1018,-939.5 1018,-971.5 1174,-971.5 1174,-939.5 1018,-939.5"/>
<text text-anchor="start" x="1026" y="-958.5" font-family="FreeSans" font-size="10.00" fill="#000000">Par02PhysicsList::Construct</text>
<text text-anchor="middle" x="1096" y="-946.5" font-family="FreeSans" font-size="10.00" fill="#000000">Particle</text>
</a>
</g>
</g>
<!-- Node26&#45;&gt;Node27 -->
<g id="edge26" class="edge">
<title>Node26&#45;&gt;Node27</title>
<path fill="none" stroke="#191970" d="M992.1026,-955.5C1000.7218,-955.5 1009.369,-955.5 1017.7931,-955.5"/>
<polygon fill="#191970" stroke="#191970" points="992.0126,-952.0001 982.0125,-955.5 992.0125,-959.0001 992.0126,-952.0001"/>
</g>
<!-- Node46 -->
<g id="node46" class="node">
<title>Node46</title>
<g id="a_node46"><a xlink:href="../../d4/d5a/classLBE.html#a060061f994ecb3f03bb6cc3a046d4eb3" target="_top" xlink:title="LBE::ConstructParticle">
<polygon fill="none" stroke="#000000" points="1032,-51.5 1032,-71.5 1160,-71.5 1160,-51.5 1032,-51.5"/>
<text text-anchor="middle" x="1096" y="-58.5" font-family="FreeSans" font-size="10.00" fill="#000000">LBE::ConstructParticle</text>
</a>
</g>
</g>
<!-- Node45&#45;&gt;Node46 -->
<g id="edge45" class="edge">
<title>Node45&#45;&gt;Node46</title>
<path fill="none" stroke="#191970" d="M967.2705,-61.5C988.3447,-61.5 1011.1648,-61.5 1031.6559,-61.5"/>
<polygon fill="#191970" stroke="#191970" points="967.0832,-58.0001 957.0832,-61.5 967.0831,-65.0001 967.0832,-58.0001"/>
</g>
</g>
</svg>
