<?xml version="1.0" encoding="UTF-8" standalone="no"?>
<!DOCTYPE svg PUBLIC "-//W3C//DTD SVG 1.1//EN"
 "http://www.w3.org/Graphics/SVG/1.1/DTD/svg11.dtd">
<!-- Generated by graphviz version 2.40.1 (20161225.0304)
 -->
<!-- Title: G4WeightCutOffConfigurator::~G4WeightCutOffConfigurator Pages: 1 -->
<svg width="1413pt" height="391pt"
 viewBox="0.00 0.00 1413.00 391.17" xmlns="http://www.w3.org/2000/svg" xmlns:xlink="http://www.w3.org/1999/xlink">
<g id="graph0" class="graph" transform="scale(1 1) rotate(0) translate(4 387.1726)">
<title>G4WeightCutOffConfigurator::~G4WeightCutOffConfigurator</title>
<!-- Node1 -->
<g id="node1" class="node">
<title>Node1</title>
<polygon fill="#bfbfbf" stroke="#000000" points="0,-194.5 0,-226.5 178,-226.5 178,-194.5 0,-194.5"/>
<text text-anchor="start" x="8" y="-213.5" font-family="FreeSans" font-size="10.00" fill="#000000">G4WeightCutOffConfigurator</text>
<text text-anchor="middle" x="89" y="-201.5" font-family="FreeSans" font-size="10.00" fill="#000000">::~G4WeightCutOffConfigurator</text>
</g>
<!-- Node2 -->
<g id="node2" class="node">
<title>Node2</title>
<g id="a_node2"><a xlink:href="../../d9/dc5/classG4ProcessPlacer.html#ae24435eac5c9908f70551b7891a17746" target="_top" xlink:title="G4ProcessPlacer::RemoveProcess">
<polygon fill="none" stroke="#000000" points="214,-200.5 214,-220.5 399,-220.5 399,-200.5 214,-200.5"/>
<text text-anchor="middle" x="306.5" y="-207.5" font-family="FreeSans" font-size="10.00" fill="#000000">G4ProcessPlacer::RemoveProcess</text>
</a>
</g>
</g>
<!-- Node1&#45;&gt;Node2 -->
<g id="edge1" class="edge">
<title>Node1&#45;&gt;Node2</title>
<path fill="none" stroke="#191970" d="M178.0931,-210.5C186.4335,-210.5 194.9335,-210.5 203.3879,-210.5"/>
<polygon fill="#191970" stroke="#191970" points="203.6641,-214.0001 213.664,-210.5 203.664,-207.0001 203.6641,-214.0001"/>
</g>
<!-- Node3 -->
<g id="node3" class="node">
<title>Node3</title>
<g id="a_node3"><a xlink:href="../../d9/dc5/classG4ProcessPlacer.html#a954e560d0ac25eb206bc539a55dc65c6" target="_top" xlink:title="G4ProcessPlacer::GetProcess\lManager">
<polygon fill="none" stroke="#000000" points="638,-190.5 638,-222.5 800,-222.5 800,-190.5 638,-190.5"/>
<text text-anchor="start" x="646" y="-209.5" font-family="FreeSans" font-size="10.00" fill="#000000">G4ProcessPlacer::GetProcess</text>
<text text-anchor="middle" x="719" y="-197.5" font-family="FreeSans" font-size="10.00" fill="#000000">Manager</text>
</a>
</g>
</g>
<!-- Node2&#45;&gt;Node3 -->
<g id="edge2" class="edge">
<title>Node2&#45;&gt;Node3</title>
<path fill="none" stroke="#191970" d="M318.2226,-200.4125C339.66,-182.7091 387.3747,-146.6768 435,-133.5 503.5363,-114.5377 531.3963,-101.6981 595,-133.5 618.8514,-145.4257 609.0219,-166.3979 631,-181.5 633.2539,-183.0488 635.6027,-184.5023 638.0235,-185.8664"/>
<polygon fill="#191970" stroke="#191970" points="636.5575,-189.0469 647.0624,-190.4247 639.7096,-182.7967 636.5575,-189.0469"/>
</g>
<!-- Node15 -->
<g id="node15" class="node">
<title>Node15</title>
<g id="a_node15"><a xlink:href="../../d2/d84/classG4VProcess.html#a9f7dc4cdc99786b5697c69952e9e2add" target="_top" xlink:title="G4VProcess::GetProcessName">
<polygon fill="none" stroke="#000000" points="843,-347.5 843,-367.5 1011,-367.5 1011,-347.5 843,-347.5"/>
<text text-anchor="middle" x="927" y="-354.5" font-family="FreeSans" font-size="10.00" fill="#000000">G4VProcess::GetProcessName</text>
</a>
</g>
</g>
<!-- Node2&#45;&gt;Node15 -->
<g id="edge16" class="edge">
<title>Node2&#45;&gt;Node15</title>
<path fill="none" stroke="#191970" d="M312.7221,-220.6453C329.0218,-246.1437 375.8251,-312.7087 435,-338.5 578.04,-400.8438 767.242,-383.9398 864.048,-369.1049"/>
<polygon fill="#191970" stroke="#191970" points="864.639,-372.5551 873.9724,-367.5413 863.5495,-365.6404 864.639,-372.5551"/>
</g>
<!-- Node16 -->
<g id="node16" class="node">
<title>Node16</title>
<g id="a_node16"><a xlink:href="../../d9/dc5/classG4ProcessPlacer.html#aa0e1bd197ab26fa33d2c62f7249d2642" target="_top" xlink:title="G4ProcessPlacer::PrintAlong\lStepDoItVec">
<polygon fill="none" stroke="#000000" points="436,-245.5 436,-277.5 594,-277.5 594,-245.5 436,-245.5"/>
<text text-anchor="start" x="444" y="-264.5" font-family="FreeSans" font-size="10.00" fill="#000000">G4ProcessPlacer::PrintAlong</text>
<text text-anchor="middle" x="515" y="-252.5" font-family="FreeSans" font-size="10.00" fill="#000000">StepDoItVec</text>
</a>
</g>
</g>
<!-- Node2&#45;&gt;Node16 -->
<g id="edge17" class="edge">
<title>Node2&#45;&gt;Node16</title>
<path fill="none" stroke="#191970" d="M347.6929,-220.576C373.8225,-226.9674 408.4179,-235.4295 439.3661,-242.9996"/>
<polygon fill="#191970" stroke="#191970" points="438.7255,-246.4461 449.2708,-245.4223 440.3888,-239.6465 438.7255,-246.4461"/>
</g>
<!-- Node20 -->
<g id="node20" class="node">
<title>Node20</title>
<g id="a_node20"><a xlink:href="../../d9/dc5/classG4ProcessPlacer.html#a4e0d198a3c708ff234d3a8212900db9c" target="_top" xlink:title="G4ProcessPlacer::PrintAlong\lStepGPILVec">
<polygon fill="none" stroke="#000000" points="436,-296.5 436,-328.5 594,-328.5 594,-296.5 436,-296.5"/>
<text text-anchor="start" x="444" y="-315.5" font-family="FreeSans" font-size="10.00" fill="#000000">G4ProcessPlacer::PrintAlong</text>
<text text-anchor="middle" x="515" y="-303.5" font-family="FreeSans" font-size="10.00" fill="#000000">StepGPILVec</text>
</a>
</g>
</g>
<!-- Node2&#45;&gt;Node20 -->
<g id="edge24" class="edge">
<title>Node2&#45;&gt;Node20</title>
<path fill="none" stroke="#191970" d="M320.9134,-220.7017C344.0533,-236.7121 391.3317,-267.9273 435,-287.5 439.1454,-289.358 443.4694,-291.1346 447.8669,-292.8221"/>
<polygon fill="#191970" stroke="#191970" points="446.9765,-296.2231 457.5703,-296.3708 449.3808,-289.649 446.9765,-296.2231"/>
</g>
<!-- Node21 -->
<g id="node21" class="node">
<title>Node21</title>
<g id="a_node21"><a xlink:href="../../d9/dc5/classG4ProcessPlacer.html#ae11e7e0f4ef9fb5526c8ebf05e2e0c14" target="_top" xlink:title="G4ProcessPlacer::PrintPost\lStepDoItVec">
<polygon fill="none" stroke="#000000" points="439.5,-143.5 439.5,-175.5 590.5,-175.5 590.5,-143.5 439.5,-143.5"/>
<text text-anchor="start" x="447.5" y="-162.5" font-family="FreeSans" font-size="10.00" fill="#000000">G4ProcessPlacer::PrintPost</text>
<text text-anchor="middle" x="515" y="-150.5" font-family="FreeSans" font-size="10.00" fill="#000000">StepDoItVec</text>
</a>
</g>
</g>
<!-- Node2&#45;&gt;Node21 -->
<g id="edge28" class="edge">
<title>Node2&#45;&gt;Node21</title>
<path fill="none" stroke="#191970" d="M347.6929,-200.424C373.8225,-194.0326 408.4179,-185.5705 439.3661,-178.0004"/>
<polygon fill="#191970" stroke="#191970" points="440.3888,-181.3535 449.2708,-175.5777 438.7255,-174.5539 440.3888,-181.3535"/>
</g>
<!-- Node23 -->
<g id="node23" class="node">
<title>Node23</title>
<g id="a_node23"><a xlink:href="../../d9/dc5/classG4ProcessPlacer.html#aef69e158de8990b1917c07209b0b1d1b" target="_top" xlink:title="G4ProcessPlacer::PrintPost\lStepGPILVec">
<polygon fill="none" stroke="#000000" points="439.5,-194.5 439.5,-226.5 590.5,-226.5 590.5,-194.5 439.5,-194.5"/>
<text text-anchor="start" x="447.5" y="-213.5" font-family="FreeSans" font-size="10.00" fill="#000000">G4ProcessPlacer::PrintPost</text>
<text text-anchor="middle" x="515" y="-201.5" font-family="FreeSans" font-size="10.00" fill="#000000">StepGPILVec</text>
</a>
</g>
</g>
<!-- Node2&#45;&gt;Node23 -->
<g id="edge32" class="edge">
<title>Node2&#45;&gt;Node23</title>
<path fill="none" stroke="#191970" d="M399.1654,-210.5C409.1747,-210.5 419.3283,-210.5 429.2508,-210.5"/>
<polygon fill="#191970" stroke="#191970" points="429.4919,-214.0001 439.4918,-210.5 429.4918,-207.0001 429.4919,-214.0001"/>
</g>
<!-- Node24 -->
<g id="node24" class="node">
<title>Node24</title>
<g id="a_node24"><a xlink:href="../../d5/d2e/classG4ProcessManager.html#ac326fbb0bc88c019d89e4330e3e4ed8a" target="_top" xlink:title="G4ProcessManager::Remove\lProcess">
<polygon fill="none" stroke="#000000" points="435,-53.5 435,-85.5 595,-85.5 595,-53.5 435,-53.5"/>
<text text-anchor="start" x="443" y="-72.5" font-family="FreeSans" font-size="10.00" fill="#000000">G4ProcessManager::Remove</text>
<text text-anchor="middle" x="515" y="-60.5" font-family="FreeSans" font-size="10.00" fill="#000000">Process</text>
</a>
</g>
</g>
<!-- Node2&#45;&gt;Node24 -->
<g id="edge36" class="edge">
<title>Node2&#45;&gt;Node24</title>
<path fill="none" stroke="#191970" d="M315.9177,-200.3953C336.0173,-179.323 385.3451,-130.186 435,-100.5 441.652,-96.5231 448.9048,-92.8822 456.2393,-89.605"/>
<polygon fill="#191970" stroke="#191970" points="457.7027,-92.7861 465.5343,-85.6505 454.9623,-86.3448 457.7027,-92.7861"/>
</g>
<!-- Node4 -->
<g id="node4" class="node">
<title>Node4</title>
<g id="a_node4"><a xlink:href="../../d5/d4f/G4Exception_8hh.html#ad36b5da5d062a20ca47b1c1f1ae353dd" target="_top" xlink:title="G4Exception">
<polygon fill="none" stroke="#000000" points="887,-269.5 887,-289.5 967,-289.5 967,-269.5 887,-269.5"/>
<text text-anchor="middle" x="927" y="-276.5" font-family="FreeSans" font-size="10.00" fill="#000000">G4Exception</text>
</a>
</g>
</g>
<!-- Node3&#45;&gt;Node4 -->
<g id="edge3" class="edge">
<title>Node3&#45;&gt;Node4</title>
<path fill="none" stroke="#191970" d="M758.076,-222.5505C782.342,-232.2866 814.2751,-244.6834 843,-254.5 855.2698,-258.6931 868.6789,-262.8649 881.1093,-266.5649"/>
<polygon fill="#191970" stroke="#191970" points="880.2467,-269.9594 890.8279,-269.4225 882.2214,-263.2437 880.2467,-269.9594"/>
</g>
<!-- Node5 -->
<g id="node5" class="node">
<title>Node5</title>
<g id="a_node5"><a xlink:href="../../d8/dd3/classG4ParticleTable.html#adf609084147cd80731be50a22c47723f" target="_top" xlink:title="G4ParticleTable::GetIterator">
<polygon fill="none" stroke="#000000" points="848.5,-102.5 848.5,-122.5 1005.5,-122.5 1005.5,-102.5 848.5,-102.5"/>
<text text-anchor="middle" x="927" y="-109.5" font-family="FreeSans" font-size="10.00" fill="#000000">G4ParticleTable::GetIterator</text>
</a>
</g>
</g>
<!-- Node3&#45;&gt;Node5 -->
<g id="edge4" class="edge">
<title>Node3&#45;&gt;Node5</title>
<path fill="none" stroke="#191970" d="M791.455,-190.3256C796.9311,-187.7967 802.1894,-184.875 807,-181.5 829.4164,-165.7731 820.1646,-146.612 843,-131.5 845.7431,-129.6847 848.6351,-128.041 851.6301,-126.553"/>
<polygon fill="#191970" stroke="#191970" points="853.0984,-129.7312 860.8785,-122.5395 850.3117,-123.3098 853.0984,-129.7312"/>
</g>
<!-- Node6 -->
<g id="node6" class="node">
<title>Node6</title>
<g id="a_node6"><a xlink:href="../../d5/d38/classG4ParticleDefinition.html#a02a571907ec0c42bf356545826d9234f" target="_top" xlink:title="G4ParticleDefinition\l::GetParticleName">
<polygon fill="none" stroke="#000000" points="869,-51.5 869,-83.5 985,-83.5 985,-51.5 869,-51.5"/>
<text text-anchor="start" x="877" y="-70.5" font-family="FreeSans" font-size="10.00" fill="#000000">G4ParticleDefinition</text>
<text text-anchor="middle" x="927" y="-58.5" font-family="FreeSans" font-size="10.00" fill="#000000">::GetParticleName</text>
</a>
</g>
</g>
<!-- Node3&#45;&gt;Node6 -->
<g id="edge5" class="edge">
<title>Node3&#45;&gt;Node6</title>
<path fill="none" stroke="#191970" d="M794.5325,-190.3729C799.0069,-187.8325 803.2182,-184.8954 807,-181.5 838.75,-152.9942 811.4284,-121.2032 843,-92.5 847.8023,-88.134 853.3365,-84.5288 859.2252,-81.5522"/>
<polygon fill="#191970" stroke="#191970" points="860.975,-84.6061 868.7166,-77.373 858.1541,-78.1996 860.975,-84.6061"/>
</g>
<!-- Node7 -->
<g id="node7" class="node">
<title>Node7</title>
<g id="a_node7"><a xlink:href="../../d8/dd3/classG4ParticleTable.html#a8bb5b636696da4abae3ca7ea0ea5af95" target="_top" xlink:title="G4ParticleTable::GetParticle\lTable">
<polygon fill="none" stroke="#000000" points="849,-.5 849,-32.5 1005,-32.5 1005,-.5 849,-.5"/>
<text text-anchor="start" x="857" y="-19.5" font-family="FreeSans" font-size="10.00" fill="#000000">G4ParticleTable::GetParticle</text>
<text text-anchor="middle" x="927" y="-7.5" font-family="FreeSans" font-size="10.00" fill="#000000">Table</text>
</a>
</g>
</g>
<!-- Node3&#45;&gt;Node7 -->
<g id="edge6" class="edge">
<title>Node3&#45;&gt;Node7</title>
<path fill="none" stroke="#191970" d="M795.8799,-190.4251C799.918,-187.8662 803.6734,-184.9112 807,-181.5 851.8552,-135.5042 798.4325,-87.7747 843,-41.5 843.9203,-40.5445 844.8753,-39.6251 845.8616,-38.7404"/>
<polygon fill="#191970" stroke="#191970" points="848.1046,-41.4326 853.9796,-32.6159 843.8887,-35.8445 848.1046,-41.4326"/>
</g>
<!-- Node11 -->
<g id="node11" class="node">
<title>Node11</title>
<g id="a_node11"><a xlink:href="../../d4/d96/classG4ParticleTableIterator.html#ae35fb8d216907e4b1614fd52f2d50f84" target="_top" xlink:title="G4ParticleTableIterator\l::reset">
<polygon fill="none" stroke="#000000" points="1253.5,-224.5 1253.5,-256.5 1385.5,-256.5 1385.5,-224.5 1253.5,-224.5"/>
<text text-anchor="start" x="1261.5" y="-243.5" font-family="FreeSans" font-size="10.00" fill="#000000">G4ParticleTableIterator</text>
<text text-anchor="middle" x="1319.5" y="-231.5" font-family="FreeSans" font-size="10.00" fill="#000000">::reset</text>
</a>
</g>
</g>
<!-- Node3&#45;&gt;Node11 -->
<g id="edge14" class="edge">
<title>Node3&#45;&gt;Node11</title>
<path fill="none" stroke="#191970" d="M800.0349,-211.8441C814.3482,-212.7549 829.1103,-213.673 843,-214.5 984.2368,-222.9091 1149.0883,-231.6693 1243.1944,-236.57"/>
<polygon fill="#191970" stroke="#191970" points="1243.0267,-240.0659 1253.195,-237.0901 1243.3903,-233.0754 1243.0267,-240.0659"/>
</g>
<!-- Node12 -->
<g id="node12" class="node">
<title>Node12</title>
<g id="a_node12"><a xlink:href="../../d4/d96/classG4ParticleTableIterator.html#a7220383ce5a9ddecb53331a2ecdd90d5" target="_top" xlink:title="G4ParticleTableIterator\l::value">
<polygon fill="none" stroke="#000000" points="1253.5,-173.5 1253.5,-205.5 1385.5,-205.5 1385.5,-173.5 1253.5,-173.5"/>
<text text-anchor="start" x="1261.5" y="-192.5" font-family="FreeSans" font-size="10.00" fill="#000000">G4ParticleTableIterator</text>
<text text-anchor="middle" x="1319.5" y="-180.5" font-family="FreeSans" font-size="10.00" fill="#000000">::value</text>
</a>
</g>
</g>
<!-- Node3&#45;&gt;Node12 -->
<g id="edge15" class="edge">
<title>Node3&#45;&gt;Node12</title>
<path fill="none" stroke="#191970" d="M800.2983,-204.1985C916.7763,-200.901 1129.5933,-194.8762 1243.2256,-191.6593"/>
<polygon fill="#191970" stroke="#191970" points="1243.3409,-195.1575 1253.2378,-191.3759 1243.1427,-188.1603 1243.3409,-195.1575"/>
</g>
<!-- Node14 -->
<g id="node14" class="node">
<title>Node14</title>
<g id="a_node14"><a xlink:href="../../d5/d38/classG4ParticleDefinition.html#a521580d7f34f68e8475b519aa8650f9b" target="_top" xlink:title="G4ParticleDefinition\l::GetProcessManager">
<polygon fill="none" stroke="#000000" points="865,-141.5 865,-173.5 989,-173.5 989,-141.5 865,-141.5"/>
<text text-anchor="start" x="873" y="-160.5" font-family="FreeSans" font-size="10.00" fill="#000000">G4ParticleDefinition</text>
<text text-anchor="middle" x="927" y="-148.5" font-family="FreeSans" font-size="10.00" fill="#000000">::GetProcessManager</text>
</a>
</g>
</g>
<!-- Node3&#45;&gt;Node14 -->
<g id="edge13" class="edge">
<title>Node3&#45;&gt;Node14</title>
<path fill="none" stroke="#191970" d="M787.107,-190.4556C808.786,-185.3485 832.8367,-179.6827 854.7951,-174.5098"/>
<polygon fill="#191970" stroke="#191970" points="855.7899,-177.8714 864.7208,-172.1715 854.1847,-171.0579 855.7899,-177.8714"/>
</g>
<!-- Node8 -->
<g id="node8" class="node">
<title>Node8</title>
<g id="a_node8"><a xlink:href="../../d8/dd3/classG4ParticleTable.html#aba540bf07478ff0c30af3ee28d843041" target="_top" xlink:title="G4ParticleTable::WorkerG4\lParticleTable">
<polygon fill="none" stroke="#000000" points="1047,-99.5 1047,-131.5 1198,-131.5 1198,-99.5 1047,-99.5"/>
<text text-anchor="start" x="1055" y="-118.5" font-family="FreeSans" font-size="10.00" fill="#000000">G4ParticleTable::WorkerG4</text>
<text text-anchor="middle" x="1122.5" y="-106.5" font-family="FreeSans" font-size="10.00" fill="#000000">ParticleTable</text>
</a>
</g>
</g>
<!-- Node7&#45;&gt;Node8 -->
<g id="edge7" class="edge">
<title>Node7&#45;&gt;Node8</title>
<path fill="none" stroke="#191970" d="M988.8054,-32.5927C996.4093,-35.2412 1003.9713,-38.2116 1011,-41.5 1041.0958,-55.5804 1072.3639,-77.0237 1094.1017,-93.2088"/>
<polygon fill="#191970" stroke="#191970" points="1092.1401,-96.1133 1102.2295,-99.3467 1096.3586,-90.5272 1092.1401,-96.1133"/>
</g>
<!-- Node9 -->
<g id="node9" class="node">
<title>Node9</title>
<g id="a_node9"><a xlink:href="../../d8/dd3/classG4ParticleTable.html#ad3150940809a36b87123558264d30108" target="_top" xlink:title="G4ParticleTable::GetKey">
<polygon fill="none" stroke="#000000" points="1251,-44.5 1251,-64.5 1388,-64.5 1388,-44.5 1251,-44.5"/>
<text text-anchor="middle" x="1319.5" y="-51.5" font-family="FreeSans" font-size="10.00" fill="#000000">G4ParticleTable::GetKey</text>
</a>
</g>
</g>
<!-- Node8&#45;&gt;Node9 -->
<g id="edge8" class="edge">
<title>Node8&#45;&gt;Node9</title>
<path fill="none" stroke="#191970" d="M1160.9984,-99.4576C1182.2717,-90.9854 1209.318,-80.8508 1234,-73.5 1241.9606,-71.1292 1250.4169,-68.905 1258.7948,-66.8729"/>
<polygon fill="#191970" stroke="#191970" points="1259.6252,-70.2732 1268.5593,-64.5783 1258.0238,-63.4588 1259.6252,-70.2732"/>
</g>
<!-- Node10 -->
<g id="node10" class="node">
<title>Node10</title>
<g id="a_node10"><a xlink:href="../../d5/d38/classG4ParticleDefinition.html#af84019c7513ca66581ed8b3651934467" target="_top" xlink:title="G4ParticleDefinition\l::GetPDGEncoding">
<polygon fill="none" stroke="#000000" points="1261.5,-122.5 1261.5,-154.5 1377.5,-154.5 1377.5,-122.5 1261.5,-122.5"/>
<text text-anchor="start" x="1269.5" y="-141.5" font-family="FreeSans" font-size="10.00" fill="#000000">G4ParticleDefinition</text>
<text text-anchor="middle" x="1319.5" y="-129.5" font-family="FreeSans" font-size="10.00" fill="#000000">::GetPDGEncoding</text>
</a>
</g>
</g>
<!-- Node8&#45;&gt;Node10 -->
<g id="edge9" class="edge">
<title>Node8&#45;&gt;Node10</title>
<path fill="none" stroke="#191970" d="M1198.1019,-124.3266C1215.4442,-126.3514 1233.7891,-128.4931 1250.8206,-130.4816"/>
<polygon fill="#191970" stroke="#191970" points="1250.8962,-134.0141 1261.2347,-131.6974 1251.708,-127.0613 1250.8962,-134.0141"/>
</g>
<!-- Node8&#45;&gt;Node11 -->
<g id="edge10" class="edge">
<title>Node8&#45;&gt;Node11</title>
<path fill="none" stroke="#191970" d="M1136.3114,-131.7982C1155.8766,-153.884 1193.7826,-193.1215 1234,-215.5 1237.2307,-217.2977 1240.6036,-218.9776 1244.064,-220.5462"/>
<polygon fill="#191970" stroke="#191970" points="1242.8142,-223.8171 1253.3906,-224.4422 1245.5124,-217.358 1242.8142,-223.8171"/>
</g>
<!-- Node8&#45;&gt;Node12 -->
<g id="edge11" class="edge">
<title>Node8&#45;&gt;Node12</title>
<path fill="none" stroke="#191970" d="M1157.2497,-131.6453C1179.0476,-141.4754 1207.8756,-153.9383 1234,-163.5 1240.3629,-165.8288 1247.043,-168.1198 1253.7471,-170.3179"/>
<polygon fill="#191970" stroke="#191970" points="1252.9609,-173.7414 1263.5521,-173.4657 1255.1007,-167.0765 1252.9609,-173.7414"/>
</g>
<!-- Node13 -->
<g id="node13" class="node">
<title>Node13</title>
<g id="a_node13"><a xlink:href="../../da/d2b/classG4IonTable.html#a66f8ee295224ed611872572a0e47ab6e" target="_top" xlink:title="G4IonTable::WorkerG4IonTable">
<polygon fill="none" stroke="#000000" points="1234,-83.5 1234,-103.5 1405,-103.5 1405,-83.5 1234,-83.5"/>
<text text-anchor="middle" x="1319.5" y="-90.5" font-family="FreeSans" font-size="10.00" fill="#000000">G4IonTable::WorkerG4IonTable</text>
</a>
</g>
</g>
<!-- Node8&#45;&gt;Node13 -->
<g id="edge12" class="edge">
<title>Node8&#45;&gt;Node13</title>
<path fill="none" stroke="#191970" d="M1198.1019,-107.0571C1206.5247,-106.1165 1215.184,-105.1495 1223.8144,-104.1857"/>
<polygon fill="#191970" stroke="#191970" points="1224.3669,-107.6459 1233.9166,-103.0575 1223.5899,-100.6891 1224.3669,-107.6459"/>
</g>
<!-- Node16&#45;&gt;Node3 -->
<g id="edge19" class="edge">
<title>Node16&#45;&gt;Node3</title>
<path fill="none" stroke="#191970" d="M574.5536,-245.4439C598.0171,-239.1179 625.1277,-231.8087 649.4804,-225.243"/>
<polygon fill="#191970" stroke="#191970" points="650.6282,-228.5586 659.3724,-222.5761 648.806,-221.7999 650.6282,-228.5586"/>
</g>
<!-- Node17 -->
<g id="node17" class="node">
<title>Node17</title>
<g id="a_node17"><a xlink:href="../../d5/d2e/classG4ProcessManager.html#a0daefc70529e18ffa366844af55da9f4" target="_top" xlink:title="G4ProcessManager::GetAlong\lStepProcessVector">
<polygon fill="none" stroke="#000000" points="636,-296.5 636,-328.5 802,-328.5 802,-296.5 636,-296.5"/>
<text text-anchor="start" x="644" y="-315.5" font-family="FreeSans" font-size="10.00" fill="#000000">G4ProcessManager::GetAlong</text>
<text text-anchor="middle" x="719" y="-303.5" font-family="FreeSans" font-size="10.00" fill="#000000">StepProcessVector</text>
</a>
</g>
</g>
<!-- Node16&#45;&gt;Node17 -->
<g id="edge18" class="edge">
<title>Node16&#45;&gt;Node17</title>
<path fill="none" stroke="#191970" d="M579.2669,-277.5667C600.1303,-282.7826 623.4455,-288.6114 644.9618,-293.9904"/>
<polygon fill="#191970" stroke="#191970" points="644.1555,-297.3965 654.7058,-296.4264 645.8533,-290.6055 644.1555,-297.3965"/>
</g>
<!-- Node18 -->
<g id="node18" class="node">
<title>Node18</title>
<g id="a_node18"><a xlink:href="../../d9/dc5/classG4ProcessPlacer.html#ae4b44479090825724a24bdf28a018f8d" target="_top" xlink:title="G4ProcessPlacer::PrintProcVec">
<polygon fill="none" stroke="#000000" points="635,-257.5 635,-277.5 803,-277.5 803,-257.5 635,-257.5"/>
<text text-anchor="middle" x="719" y="-264.5" font-family="FreeSans" font-size="10.00" fill="#000000">G4ProcessPlacer::PrintProcVec</text>
</a>
</g>
</g>
<!-- Node16&#45;&gt;Node18 -->
<g id="edge20" class="edge">
<title>Node16&#45;&gt;Node18</title>
<path fill="none" stroke="#191970" d="M594.1637,-263.8283C604.1595,-264.1223 614.4638,-264.4254 624.6652,-264.7254"/>
<polygon fill="#191970" stroke="#191970" points="624.7185,-268.2284 634.8171,-265.024 624.9244,-261.2315 624.7185,-268.2284"/>
</g>
<!-- Node18&#45;&gt;Node4 -->
<g id="edge21" class="edge">
<title>Node18&#45;&gt;Node4</title>
<path fill="none" stroke="#191970" d="M803.002,-272.3463C828.0169,-273.7894 854.636,-275.3252 876.7718,-276.6022"/>
<polygon fill="#191970" stroke="#191970" points="876.7422,-280.1062 886.9273,-277.1881 877.1455,-273.1179 876.7422,-280.1062"/>
</g>
<!-- Node18&#45;&gt;Node15 -->
<g id="edge22" class="edge">
<title>Node18&#45;&gt;Node15</title>
<path fill="none" stroke="#191970" d="M786.9542,-277.5356C794.0417,-280.1384 800.8804,-283.4043 807,-287.5 830.0574,-302.9317 819.9347,-323.0802 843,-338.5 845.5889,-340.2308 848.3126,-341.8057 851.132,-343.2386"/>
<polygon fill="#191970" stroke="#191970" points="849.8532,-346.5001 860.414,-347.349 852.6876,-340.0996 849.8532,-346.5001"/>
</g>
<!-- Node19 -->
<g id="node19" class="node">
<title>Node19</title>
<g id="a_node19"><a xlink:href="../../d5/da4/classG4ProcessVector.html#adf726f897625f3dcc6d7e62c5ee8cd19" target="_top" xlink:title="G4ProcessVector::length">
<polygon fill="none" stroke="#000000" points="857.5,-308.5 857.5,-328.5 996.5,-328.5 996.5,-308.5 857.5,-308.5"/>
<text text-anchor="middle" x="927" y="-315.5" font-family="FreeSans" font-size="10.00" fill="#000000">G4ProcessVector::length</text>
</a>
</g>
</g>
<!-- Node18&#45;&gt;Node19 -->
<g id="edge23" class="edge">
<title>Node18&#45;&gt;Node19</title>
<path fill="none" stroke="#191970" d="M767.1703,-277.5499C780.1644,-280.5049 794.1745,-283.9143 807,-287.5 823.2426,-292.041 826.755,-294.9673 843,-299.5 851.371,-301.8357 860.271,-304.0902 869.0284,-306.18"/>
<polygon fill="#191970" stroke="#191970" points="868.2855,-309.6006 878.8193,-308.465 869.8765,-302.7838 868.2855,-309.6006"/>
</g>
<!-- Node20&#45;&gt;Node3 -->
<g id="edge26" class="edge">
<title>Node20&#45;&gt;Node3</title>
<path fill="none" stroke="#191970" d="M578.0057,-296.3271C583.9441,-293.7725 589.7125,-290.8455 595,-287.5 614.934,-274.8874 612.0138,-262.4989 631,-248.5 642.0749,-240.3342 654.9883,-233.1198 667.4564,-227.0758"/>
<polygon fill="#191970" stroke="#191970" points="669.2837,-230.0855 676.8661,-222.6857 666.324,-223.742 669.2837,-230.0855"/>
</g>
<!-- Node20&#45;&gt;Node17 -->
<g id="edge25" class="edge">
<title>Node20&#45;&gt;Node17</title>
<path fill="none" stroke="#191970" d="M594.1637,-312.5C604.5183,-312.5 615.2038,-312.5 625.7631,-312.5"/>
<polygon fill="#191970" stroke="#191970" points="625.8335,-316.0001 635.8335,-312.5 625.8334,-309.0001 625.8335,-316.0001"/>
</g>
<!-- Node20&#45;&gt;Node18 -->
<g id="edge27" class="edge">
<title>Node20&#45;&gt;Node18</title>
<path fill="none" stroke="#191970" d="M587.7847,-296.4445C612.7035,-290.9477 640.163,-284.8905 663.4938,-279.744"/>
<polygon fill="#191970" stroke="#191970" points="664.5472,-283.0959 673.5585,-277.5239 663.0393,-276.2602 664.5472,-283.0959"/>
</g>
<!-- Node21&#45;&gt;Node3 -->
<g id="edge30" class="edge">
<title>Node21&#45;&gt;Node3</title>
<path fill="none" stroke="#191970" d="M584.6347,-175.5433C602.2621,-179.6045 621.3283,-183.9972 639.4066,-188.1623"/>
<polygon fill="#191970" stroke="#191970" points="638.8025,-191.6148 649.3331,-190.4493 640.3741,-184.7934 638.8025,-191.6148"/>
</g>
<!-- Node21&#45;&gt;Node18 -->
<g id="edge31" class="edge">
<title>Node21&#45;&gt;Node18</title>
<path fill="none" stroke="#191970" d="M577.5193,-175.6373C583.6842,-178.4402 589.635,-181.7046 595,-185.5 616.4807,-200.6962 610.0189,-216.6211 631,-232.5 643.037,-241.6098 657.759,-248.6872 671.6918,-254.0182"/>
<polygon fill="#191970" stroke="#191970" points="670.5744,-257.3358 681.1688,-257.4334 672.9476,-250.7503 670.5744,-257.3358"/>
</g>
<!-- Node22 -->
<g id="node22" class="node">
<title>Node22</title>
<g id="a_node22"><a xlink:href="../../d5/d2e/classG4ProcessManager.html#a27de54c034033b955a6059d2c3aed6bd" target="_top" xlink:title="G4ProcessManager::GetPost\lStepProcessVector">
<polygon fill="none" stroke="#000000" points="639.5,-139.5 639.5,-171.5 798.5,-171.5 798.5,-139.5 639.5,-139.5"/>
<text text-anchor="start" x="647.5" y="-158.5" font-family="FreeSans" font-size="10.00" fill="#000000">G4ProcessManager::GetPost</text>
<text text-anchor="middle" x="719" y="-146.5" font-family="FreeSans" font-size="10.00" fill="#000000">StepProcessVector</text>
</a>
</g>
</g>
<!-- Node21&#45;&gt;Node22 -->
<g id="edge29" class="edge">
<title>Node21&#45;&gt;Node22</title>
<path fill="none" stroke="#191970" d="M590.6722,-158.0162C603.1984,-157.7706 616.2932,-157.5139 629.1282,-157.2622"/>
<polygon fill="#191970" stroke="#191970" points="629.4206,-160.7572 639.35,-157.0618 629.2833,-153.7586 629.4206,-160.7572"/>
</g>
<!-- Node23&#45;&gt;Node3 -->
<g id="edge34" class="edge">
<title>Node23&#45;&gt;Node3</title>
<path fill="none" stroke="#191970" d="M590.6722,-209.0162C602.72,-208.78 615.2939,-208.5335 627.6566,-208.291"/>
<polygon fill="#191970" stroke="#191970" points="628.046,-211.7842 637.9755,-208.0887 627.9087,-204.7855 628.046,-211.7842"/>
</g>
<!-- Node23&#45;&gt;Node18 -->
<g id="edge35" class="edge">
<title>Node23&#45;&gt;Node18</title>
<path fill="none" stroke="#191970" d="M572.3683,-226.5294C604.3437,-235.4637 643.6083,-246.4347 673.4567,-254.7747"/>
<polygon fill="#191970" stroke="#191970" points="672.6211,-258.1752 683.1941,-257.4954 674.5049,-251.4334 672.6211,-258.1752"/>
</g>
<!-- Node23&#45;&gt;Node22 -->
<g id="edge33" class="edge">
<title>Node23&#45;&gt;Node22</title>
<path fill="none" stroke="#191970" d="M574.5536,-194.4439C598.0171,-188.1179 625.1277,-180.8087 649.4804,-174.243"/>
<polygon fill="#191970" stroke="#191970" points="650.6282,-177.5586 659.3724,-171.5761 648.806,-170.7999 650.6282,-177.5586"/>
</g>
<!-- Node25 -->
<g id="node25" class="node">
<title>Node25</title>
<g id="a_node25"><a xlink:href="../../d5/d2e/classG4ProcessManager.html#a86fa6d1da65aaf05282760ddee51c37d" target="_top" xlink:title="G4ProcessManager::GetProcess\lIndex">
<polygon fill="none" stroke="#000000" points="631,-53.5 631,-85.5 807,-85.5 807,-53.5 631,-53.5"/>
<text text-anchor="start" x="639" y="-72.5" font-family="FreeSans" font-size="10.00" fill="#000000">G4ProcessManager::GetProcess</text>
<text text-anchor="middle" x="719" y="-60.5" font-family="FreeSans" font-size="10.00" fill="#000000">Index</text>
</a>
</g>
</g>
<!-- Node24&#45;&gt;Node25 -->
<g id="edge37" class="edge">
<title>Node24&#45;&gt;Node25</title>
<path fill="none" stroke="#191970" d="M595.0407,-69.5C603.4649,-69.5 612.0988,-69.5 620.6977,-69.5"/>
<polygon fill="#191970" stroke="#191970" points="620.7612,-73.0001 630.7612,-69.5 620.7612,-66.0001 620.7612,-73.0001"/>
</g>
</g>
</svg>
