<?xml version="1.0" encoding="UTF-8" standalone="no"?>
<!DOCTYPE svg PUBLIC "-//W3C//DTD SVG 1.1//EN"
 "http://www.w3.org/Graphics/SVG/1.1/DTD/svg11.dtd">
<!-- Generated by graphviz version 2.40.1 (20161225.0304)
 -->
<!-- Title: G4InitXscPAI::IntegralPAIxSection Pages: 1 -->
<svg width="905pt" height="248pt"
 viewBox="0.00 0.00 905.00 248.00" xmlns="http://www.w3.org/2000/svg" xmlns:xlink="http://www.w3.org/1999/xlink">
<g id="graph0" class="graph" transform="scale(1 1) rotate(0) translate(4 244)">
<title>G4InitXscPAI::IntegralPAIxSection</title>
<!-- Node1 -->
<g id="node1" class="node">
<title>Node1</title>
<polygon fill="#bfbfbf" stroke="#000000" points="0,-72.5 0,-104.5 146,-104.5 146,-72.5 0,-72.5"/>
<text text-anchor="start" x="8" y="-91.5" font-family="FreeSans" font-size="10.00" fill="#000000">G4InitXscPAI::IntegralPAIx</text>
<text text-anchor="middle" x="73" y="-79.5" font-family="FreeSans" font-size="10.00" fill="#000000">Section</text>
</g>
<!-- Node2 -->
<g id="node2" class="node">
<title>Node2</title>
<g id="a_node2"><a xlink:href="../../d8/d55/classG4InitXscPAI.html#ad6aea222839d541007c39c6f2940df35" target="_top" xlink:title="G4InitXscPAI::DifPAIxSection">
<polygon fill="none" stroke="#000000" points="188,-168.5 188,-188.5 346,-188.5 346,-168.5 188,-168.5"/>
<text text-anchor="middle" x="267" y="-175.5" font-family="FreeSans" font-size="10.00" fill="#000000">G4InitXscPAI::DifPAIxSection</text>
</a>
</g>
</g>
<!-- Node1&#45;&gt;Node2 -->
<g id="edge1" class="edge">
<title>Node1&#45;&gt;Node2</title>
<path fill="none" stroke="#191970" d="M93.0469,-104.7449C114.0176,-120.943 148.4904,-145.3865 182,-159.5 187.4457,-161.7936 193.2096,-163.8297 199.0674,-165.6335"/>
<polygon fill="#191970" stroke="#191970" points="198.3989,-169.0822 208.9751,-168.4543 200.3157,-162.3497 198.3989,-169.0822"/>
</g>
<!-- Node9 -->
<g id="node9" class="node">
<title>Node9</title>
<g id="a_node9"><a xlink:href="../../d7/d2c/classG4PhysicsVector.html#a665e74899c6067c0f1cf4500c93e542f" target="_top" xlink:title="G4PhysicsVector::GetLowEdge\lEnergy">
<polygon fill="none" stroke="#000000" points="182,-117.5 182,-149.5 352,-149.5 352,-117.5 182,-117.5"/>
<text text-anchor="start" x="190" y="-136.5" font-family="FreeSans" font-size="10.00" fill="#000000">G4PhysicsVector::GetLowEdge</text>
<text text-anchor="middle" x="267" y="-124.5" font-family="FreeSans" font-size="10.00" fill="#000000">Energy</text>
</a>
</g>
</g>
<!-- Node1&#45;&gt;Node9 -->
<g id="edge8" class="edge">
<title>Node1&#45;&gt;Node9</title>
<path fill="none" stroke="#191970" d="M142.2168,-104.5555C157.0346,-107.9926 172.797,-111.6488 187.9534,-115.1645"/>
<polygon fill="#191970" stroke="#191970" points="187.2776,-118.6006 197.8099,-117.4507 188.8594,-111.7816 187.2776,-118.6006"/>
</g>
<!-- Node10 -->
<g id="node10" class="node">
<title>Node10</title>
<g id="a_node10"><a xlink:href="../../d5/d82/classG4Integrator.html#a754f677b54a631e522bf5ebbfaee0b8b" target="_top" xlink:title="G4Integrator::Legendre10">
<polygon fill="none" stroke="#000000" points="193.5,-78.5 193.5,-98.5 340.5,-98.5 340.5,-78.5 193.5,-78.5"/>
<text text-anchor="middle" x="267" y="-85.5" font-family="FreeSans" font-size="10.00" fill="#000000">G4Integrator::Legendre10</text>
</a>
</g>
</g>
<!-- Node1&#45;&gt;Node10 -->
<g id="edge9" class="edge">
<title>Node1&#45;&gt;Node10</title>
<path fill="none" stroke="#191970" d="M146.0666,-88.5C158.1501,-88.5 170.7621,-88.5 183.0869,-88.5"/>
<polygon fill="#191970" stroke="#191970" points="183.3544,-92.0001 193.3544,-88.5 183.3543,-85.0001 183.3544,-92.0001"/>
</g>
<!-- Node11 -->
<g id="node11" class="node">
<title>Node11</title>
<g id="a_node11"><a xlink:href="../../d7/d2c/classG4PhysicsVector.html#ad923df7c7b31dc411b6ade3a3c739988" target="_top" xlink:title="G4PhysicsVector::PutValue">
<polygon fill="none" stroke="#000000" points="191.5,-39.5 191.5,-59.5 342.5,-59.5 342.5,-39.5 191.5,-39.5"/>
<text text-anchor="middle" x="267" y="-46.5" font-family="FreeSans" font-size="10.00" fill="#000000">G4PhysicsVector::PutValue</text>
</a>
</g>
</g>
<!-- Node1&#45;&gt;Node11 -->
<g id="edge10" class="edge">
<title>Node1&#45;&gt;Node11</title>
<path fill="none" stroke="#191970" d="M146.0666,-73.8113C166.2804,-69.7478 187.9732,-65.3868 207.3267,-61.4962"/>
<polygon fill="#191970" stroke="#191970" points="208.0999,-64.9109 217.2139,-59.5085 206.7202,-58.0482 208.0999,-64.9109"/>
</g>
<!-- Node12 -->
<g id="node12" class="node">
<title>Node12</title>
<g id="a_node12"><a xlink:href="../../dc/d49/HelixHough__allButKappaRange__sse_8cpp.html#a665e8f3e2226dd39be9c0e4f06dd1eaf" target="_top" xlink:title="return">
<polygon fill="none" stroke="#000000" points="244,-.5 244,-20.5 290,-20.5 290,-.5 244,-.5"/>
<text text-anchor="middle" x="267" y="-7.5" font-family="FreeSans" font-size="10.00" fill="#000000">return</text>
</a>
</g>
</g>
<!-- Node1&#45;&gt;Node12 -->
<g id="edge11" class="edge">
<title>Node1&#45;&gt;Node12</title>
<path fill="none" stroke="#191970" d="M98.0388,-72.3481C119.5433,-59.1226 151.7696,-40.8105 182,-29.5 198.6131,-23.2843 217.8484,-18.7756 233.8146,-15.7146"/>
<polygon fill="#191970" stroke="#191970" points="234.5591,-19.1367 243.7742,-13.9087 233.3102,-12.249 234.5591,-19.1367"/>
</g>
<!-- Node3 -->
<g id="node3" class="node">
<title>Node3</title>
<g id="a_node3"><a xlink:href="../../d8/d55/classG4InitXscPAI.html#abae4c1f8940a58650ba29d197a6436d8" target="_top" xlink:title="G4InitXscPAI::ImPartDielectric\lConst">
<polygon fill="none" stroke="#000000" points="388,-207.5 388,-239.5 554,-239.5 554,-207.5 388,-207.5"/>
<text text-anchor="start" x="396" y="-226.5" font-family="FreeSans" font-size="10.00" fill="#000000">G4InitXscPAI::ImPartDielectric</text>
<text text-anchor="middle" x="471" y="-214.5" font-family="FreeSans" font-size="10.00" fill="#000000">Const</text>
</a>
</g>
</g>
<!-- Node2&#45;&gt;Node3 -->
<g id="edge2" class="edge">
<title>Node2&#45;&gt;Node3</title>
<path fill="none" stroke="#191970" d="M312.5277,-188.5429C334.9148,-193.4812 362.6017,-199.5886 388.5378,-205.3098"/>
<polygon fill="#191970" stroke="#191970" points="387.8584,-208.744 398.3776,-207.4804 389.3663,-201.9083 387.8584,-208.744"/>
</g>
<!-- Node4 -->
<g id="node4" class="node">
<title>Node4</title>
<g id="a_node4"><a xlink:href="../../d8/d55/classG4InitXscPAI.html#a8896896e73a04b27fff2cd37a63f4e26" target="_top" xlink:title="G4InitXscPAI::IntegralTerm">
<polygon fill="none" stroke="#000000" points="396.5,-168.5 396.5,-188.5 545.5,-188.5 545.5,-168.5 396.5,-168.5"/>
<text text-anchor="middle" x="471" y="-175.5" font-family="FreeSans" font-size="10.00" fill="#000000">G4InitXscPAI::IntegralTerm</text>
</a>
</g>
</g>
<!-- Node2&#45;&gt;Node4 -->
<g id="edge3" class="edge">
<title>Node2&#45;&gt;Node4</title>
<path fill="none" stroke="#191970" d="M346.1637,-178.5C359.2832,-178.5 372.9341,-178.5 386.1863,-178.5"/>
<polygon fill="#191970" stroke="#191970" points="386.2274,-182.0001 396.2274,-178.5 386.2273,-175.0001 386.2274,-182.0001"/>
</g>
<!-- Node6 -->
<g id="node6" class="node">
<title>Node6</title>
<g id="a_node6"><a xlink:href="../../d8/d55/classG4InitXscPAI.html#adf9e67455f404e2f48105ebd848fb28c" target="_top" xlink:title="G4InitXscPAI::RePartDielectric\lConst">
<polygon fill="none" stroke="#000000" points="388,-117.5 388,-149.5 554,-149.5 554,-117.5 388,-117.5"/>
<text text-anchor="start" x="396" y="-136.5" font-family="FreeSans" font-size="10.00" fill="#000000">G4InitXscPAI::RePartDielectric</text>
<text text-anchor="middle" x="471" y="-124.5" font-family="FreeSans" font-size="10.00" fill="#000000">Const</text>
</a>
</g>
</g>
<!-- Node2&#45;&gt;Node6 -->
<g id="edge5" class="edge">
<title>Node2&#45;&gt;Node6</title>
<path fill="none" stroke="#191970" d="M312.5277,-168.4571C334.9148,-163.5188 362.6017,-157.4114 388.5378,-151.6902"/>
<polygon fill="#191970" stroke="#191970" points="389.3663,-155.0917 398.3776,-149.5196 387.8584,-148.256 389.3663,-155.0917"/>
</g>
<!-- Node5 -->
<g id="node5" class="node">
<title>Node5</title>
<g id="a_node5"><a xlink:href="../../d8/d55/classG4InitXscPAI.html#a08a184af4ea24ce6cb402e415aa852e5" target="_top" xlink:title="G4InitXscPAI::Rutherford\lIntegral">
<polygon fill="none" stroke="#000000" points="590,-162.5 590,-194.5 729,-194.5 729,-162.5 590,-162.5"/>
<text text-anchor="start" x="598" y="-181.5" font-family="FreeSans" font-size="10.00" fill="#000000">G4InitXscPAI::Rutherford</text>
<text text-anchor="middle" x="659.5" y="-169.5" font-family="FreeSans" font-size="10.00" fill="#000000">Integral</text>
</a>
</g>
</g>
<!-- Node4&#45;&gt;Node5 -->
<g id="edge4" class="edge">
<title>Node4&#45;&gt;Node5</title>
<path fill="none" stroke="#191970" d="M545.5002,-178.5C556.6882,-178.5 568.265,-178.5 579.561,-178.5"/>
<polygon fill="#191970" stroke="#191970" points="579.8368,-182.0001 589.8368,-178.5 579.8367,-175.0001 579.8368,-182.0001"/>
</g>
<!-- Node7 -->
<g id="node7" class="node">
<title>Node7</title>
<g id="a_node7"><a xlink:href="../../df/d28/namespacekdfinder.html#ab72d428625e99a2d7380eb7691c246c7" target="_top" xlink:title="kdfinder::abs">
<polygon fill="none" stroke="#000000" points="618,-123.5 618,-143.5 701,-143.5 701,-123.5 618,-123.5"/>
<text text-anchor="middle" x="659.5" y="-130.5" font-family="FreeSans" font-size="10.00" fill="#000000">kdfinder::abs</text>
</a>
</g>
</g>
<!-- Node6&#45;&gt;Node7 -->
<g id="edge6" class="edge">
<title>Node6&#45;&gt;Node7</title>
<path fill="none" stroke="#191970" d="M554.2275,-133.5C572.2692,-133.5 590.8571,-133.5 607.2979,-133.5"/>
<polygon fill="#191970" stroke="#191970" points="607.7645,-137.0001 617.7644,-133.5 607.7644,-130.0001 607.7645,-137.0001"/>
</g>
<!-- Node8 -->
<g id="node8" class="node">
<title>Node8</title>
<g id="a_node8"><a xlink:href="../../d8/dc7/classkdfinder_1_1TVector.html#ac9649c7577f12a7502ed523260f4ee90" target="_top" xlink:title="kdfinder::TVector::mag">
<polygon fill="none" stroke="#000000" points="765,-123.5 765,-143.5 897,-143.5 897,-123.5 765,-123.5"/>
<text text-anchor="middle" x="831" y="-130.5" font-family="FreeSans" font-size="10.00" fill="#000000">kdfinder::TVector::mag</text>
</a>
</g>
</g>
<!-- Node7&#45;&gt;Node8 -->
<g id="edge7" class="edge">
<title>Node7&#45;&gt;Node8</title>
<path fill="none" stroke="#191970" d="M701.0154,-133.5C717.1585,-133.5 736.1819,-133.5 754.6204,-133.5"/>
<polygon fill="#191970" stroke="#191970" points="754.7818,-137.0001 764.7818,-133.5 754.7818,-130.0001 754.7818,-137.0001"/>
</g>
</g>
</svg>
