<?xml version="1.0" encoding="UTF-8" standalone="no"?>
<!DOCTYPE svg PUBLIC "-//W3C//DTD SVG 1.1//EN"
 "http://www.w3.org/Graphics/SVG/1.1/DTD/svg11.dtd">
<!-- Generated by graphviz version 2.40.1 (20161225.0304)
 -->
<!-- Title: GB03DetectorMessenger::GetCurrentValue Pages: 1 -->
<svg width="528pt" height="233pt"
 viewBox="0.00 0.00 528.00 233.00" xmlns="http://www.w3.org/2000/svg" xmlns:xlink="http://www.w3.org/1999/xlink">
<g id="graph0" class="graph" transform="scale(1 1) rotate(0) translate(4 229)">
<title>GB03DetectorMessenger::GetCurrentValue</title>
<!-- Node1 -->
<g id="node1" class="node">
<title>Node1</title>
<polygon fill="#bfbfbf" stroke="#000000" points="0,-102.5 0,-134.5 143,-134.5 143,-102.5 0,-102.5"/>
<text text-anchor="start" x="8" y="-121.5" font-family="FreeSans" font-size="10.00" fill="#000000">GB03DetectorMessenger</text>
<text text-anchor="middle" x="71.5" y="-109.5" font-family="FreeSans" font-size="10.00" fill="#000000">::GetCurrentValue</text>
</g>
<!-- Node2 -->
<g id="node2" class="node">
<title>Node2</title>
<g id="a_node2"><a xlink:href="../../d2/dd2/classG4UIcommand.html#a7077e02d61d600dd306afd89e4025f3e" target="_top" xlink:title="G4UIcommand::ConvertToString">
<polygon fill="none" stroke="#000000" points="179,-204.5 179,-224.5 358,-224.5 358,-204.5 179,-204.5"/>
<text text-anchor="middle" x="268.5" y="-211.5" font-family="FreeSans" font-size="10.00" fill="#000000">G4UIcommand::ConvertToString</text>
</a>
</g>
</g>
<!-- Node1&#45;&gt;Node2 -->
<g id="edge1" class="edge">
<title>Node1&#45;&gt;Node2</title>
<path fill="none" stroke="#191970" d="M89.089,-134.6571C109.2829,-152.311 144.1321,-180.1219 179,-195.5 184.0868,-197.7435 189.4556,-199.7286 194.9343,-201.4842"/>
<polygon fill="#191970" stroke="#191970" points="194.2962,-204.9445 204.8772,-204.4025 196.2676,-198.2278 194.2962,-204.9445"/>
</g>
<!-- Node3 -->
<g id="node3" class="node">
<title>Node3</title>
<g id="a_node3"><a xlink:href="../../d6/dd9/classGB03DetectorConstruction.html#a707dc0d6e4963cf00e3c5de3b62e3740" target="_top" xlink:title="GB03DetectorConstruction\l::GetAbsorberMaterial">
<polygon fill="none" stroke="#000000" points="192.5,-153.5 192.5,-185.5 344.5,-185.5 344.5,-153.5 192.5,-153.5"/>
<text text-anchor="start" x="200.5" y="-172.5" font-family="FreeSans" font-size="10.00" fill="#000000">GB03DetectorConstruction</text>
<text text-anchor="middle" x="268.5" y="-160.5" font-family="FreeSans" font-size="10.00" fill="#000000">::GetAbsorberMaterial</text>
</a>
</g>
</g>
<!-- Node1&#45;&gt;Node3 -->
<g id="edge2" class="edge">
<title>Node1&#45;&gt;Node3</title>
<path fill="none" stroke="#191970" d="M133.5616,-134.5667C153.6184,-139.7591 176.0215,-145.5589 196.7214,-150.9177"/>
<polygon fill="#191970" stroke="#191970" points="195.8539,-154.3085 206.412,-153.4264 197.6083,-147.5319 195.8539,-154.3085"/>
</g>
<!-- Node5 -->
<g id="node5" class="node">
<title>Node5</title>
<g id="a_node5"><a xlink:href="../../d6/dd9/classGB03DetectorConstruction.html#a9311ce0a94d2be999f347144caddb5cf" target="_top" xlink:title="GB03DetectorConstruction\l::GetGapMaterial">
<polygon fill="none" stroke="#000000" points="192.5,-102.5 192.5,-134.5 344.5,-134.5 344.5,-102.5 192.5,-102.5"/>
<text text-anchor="start" x="200.5" y="-121.5" font-family="FreeSans" font-size="10.00" fill="#000000">GB03DetectorConstruction</text>
<text text-anchor="middle" x="268.5" y="-109.5" font-family="FreeSans" font-size="10.00" fill="#000000">::GetGapMaterial</text>
</a>
</g>
</g>
<!-- Node1&#45;&gt;Node5 -->
<g id="edge4" class="edge">
<title>Node1&#45;&gt;Node5</title>
<path fill="none" stroke="#191970" d="M143.1788,-118.5C155.7659,-118.5 168.9856,-118.5 181.9266,-118.5"/>
<polygon fill="#191970" stroke="#191970" points="182.2279,-122.0001 192.2278,-118.5 182.2278,-115.0001 182.2279,-122.0001"/>
</g>
<!-- Node6 -->
<g id="node6" class="node">
<title>Node6</title>
<g id="a_node6"><a xlink:href="../../d6/dd9/classGB03DetectorConstruction.html#a432bdbd2793258c7244cf11bf43c4b24" target="_top" xlink:title="GB03DetectorConstruction\l::GetNumberOfLayers">
<polygon fill="none" stroke="#000000" points="192.5,-51.5 192.5,-83.5 344.5,-83.5 344.5,-51.5 192.5,-51.5"/>
<text text-anchor="start" x="200.5" y="-70.5" font-family="FreeSans" font-size="10.00" fill="#000000">GB03DetectorConstruction</text>
<text text-anchor="middle" x="268.5" y="-58.5" font-family="FreeSans" font-size="10.00" fill="#000000">::GetNumberOfLayers</text>
</a>
</g>
</g>
<!-- Node1&#45;&gt;Node6 -->
<g id="edge6" class="edge">
<title>Node1&#45;&gt;Node6</title>
<path fill="none" stroke="#191970" d="M133.5616,-102.4333C153.6184,-97.2409 176.0215,-91.4411 196.7214,-86.0823"/>
<polygon fill="#191970" stroke="#191970" points="197.6083,-89.4681 206.412,-83.5736 195.8539,-82.6915 197.6083,-89.4681"/>
</g>
<!-- Node7 -->
<g id="node7" class="node">
<title>Node7</title>
<g id="a_node7"><a xlink:href="../../d6/dd9/classGB03DetectorConstruction.html#ad9300b20c69e90fa269e3534b539aadd" target="_top" xlink:title="GB03DetectorConstruction\l::GetVerboseLevel">
<polygon fill="none" stroke="#000000" points="192.5,-.5 192.5,-32.5 344.5,-32.5 344.5,-.5 192.5,-.5"/>
<text text-anchor="start" x="200.5" y="-19.5" font-family="FreeSans" font-size="10.00" fill="#000000">GB03DetectorConstruction</text>
<text text-anchor="middle" x="268.5" y="-7.5" font-family="FreeSans" font-size="10.00" fill="#000000">::GetVerboseLevel</text>
</a>
</g>
</g>
<!-- Node1&#45;&gt;Node7 -->
<g id="edge7" class="edge">
<title>Node1&#45;&gt;Node7</title>
<path fill="none" stroke="#191970" d="M90.0887,-102.4134C110.6112,-85.3863 145.2321,-58.7725 179,-42.5 183.8284,-40.1732 188.9058,-38.0133 194.0869,-36.0159"/>
<polygon fill="#191970" stroke="#191970" points="195.2915,-39.3022 203.4934,-32.5954 192.8993,-32.7236 195.2915,-39.3022"/>
</g>
<!-- Node4 -->
<g id="node4" class="node">
<title>Node4</title>
<g id="a_node4"><a xlink:href="../../d5/de4/classG4Material.html#ad8d8779fa3a56cfb69010ac6c6d7c71f" target="_top" xlink:title="G4Material::GetName">
<polygon fill="none" stroke="#000000" points="394,-133.5 394,-153.5 520,-153.5 520,-133.5 394,-133.5"/>
<text text-anchor="middle" x="457" y="-140.5" font-family="FreeSans" font-size="10.00" fill="#000000">G4Material::GetName</text>
</a>
</g>
</g>
<!-- Node3&#45;&gt;Node4 -->
<g id="edge3" class="edge">
<title>Node3&#45;&gt;Node4</title>
<path fill="none" stroke="#191970" d="M344.6268,-158.9997C357.5269,-157.2204 370.8978,-155.3762 383.7228,-153.6072"/>
<polygon fill="#191970" stroke="#191970" points="384.4439,-157.041 393.8718,-152.2073 383.4873,-150.1066 384.4439,-157.041"/>
</g>
<!-- Node5&#45;&gt;Node4 -->
<g id="edge5" class="edge">
<title>Node5&#45;&gt;Node4</title>
<path fill="none" stroke="#191970" d="M344.6268,-128.5964C357.5269,-130.3073 370.8978,-132.0806 383.7228,-133.7815"/>
<polygon fill="#191970" stroke="#191970" points="383.4984,-137.2823 393.8718,-135.1276 384.4188,-130.3431 383.4984,-137.2823"/>
</g>
</g>
</svg>
