<?xml version="1.0" encoding="UTF-8" standalone="no"?>
<!DOCTYPE svg PUBLIC "-//W3C//DTD SVG 1.1//EN"
 "http://www.w3.org/Graphics/SVG/1.1/DTD/svg11.dtd">
<!-- Generated by graphviz version 2.40.1 (20161225.0304)
 -->
<!-- Title: G4PenelopeIonisationXSHandler::BuildXSTable Pages: 1 -->
<svg width="761pt" height="194pt"
 viewBox="0.00 0.00 761.00 194.00" xmlns="http://www.w3.org/2000/svg" xmlns:xlink="http://www.w3.org/1999/xlink">
<g id="graph0" class="graph" transform="scale(1 1) rotate(0) translate(4 190)">
<title>G4PenelopeIonisationXSHandler::BuildXSTable</title>
<!-- Node1 -->
<g id="node1" class="node">
<title>Node1</title>
<polygon fill="#bfbfbf" stroke="#000000" points="0,-76.5 0,-108.5 180,-108.5 180,-76.5 0,-76.5"/>
<text text-anchor="start" x="8" y="-95.5" font-family="FreeSans" font-size="10.00" fill="#000000">G4PenelopeIonisationXSHandler</text>
<text text-anchor="middle" x="90" y="-83.5" font-family="FreeSans" font-size="10.00" fill="#000000">::BuildXSTable</text>
</g>
<!-- Node2 -->
<g id="node2" class="node">
<title>Node2</title>
<g id="a_node2"><a xlink:href="../../d9/dd7/classG4PenelopeIonisationModel.html#a1875233d9eb7d1ee3dd448e2daaade8d" target="_top" xlink:title="G4PenelopeIonisationModel\l::ComputeDEDXPerVolume">
<polygon fill="none" stroke="#000000" points="216,-153.5 216,-185.5 373,-185.5 373,-153.5 216,-153.5"/>
<text text-anchor="start" x="224" y="-172.5" font-family="FreeSans" font-size="10.00" fill="#000000">G4PenelopeIonisationModel</text>
<text text-anchor="middle" x="294.5" y="-160.5" font-family="FreeSans" font-size="10.00" fill="#000000">::ComputeDEDXPerVolume</text>
</a>
</g>
</g>
<!-- Node1&#45;&gt;Node2 -->
<g id="edge1" class="edge">
<title>Node1&#45;&gt;Node2</title>
<path fill="none" stroke="#191970" d="M136.0691,-112.5901C159.7691,-122.6498 189.2315,-134.733 216,-144.5 224.3306,-147.5396 233.2305,-150.5732 241.9352,-153.4256"/>
<polygon fill="#191970" stroke="#191970" points="137.1945,-109.265 126.6233,-108.5586 134.4467,-115.7032 137.1945,-109.265"/>
</g>
<!-- Node3 -->
<g id="node3" class="node">
<title>Node3</title>
<g id="a_node3"><a xlink:href="../../d1/d17/classG4PenelopeIonisationCrossSection.html#ababc4ea53495de872de3de3c5b9ed1fc" target="_top" xlink:title="G4PenelopeIonisationCross\lSection::CrossSection">
<polygon fill="none" stroke="#000000" points="217.5,-102.5 217.5,-134.5 371.5,-134.5 371.5,-102.5 217.5,-102.5"/>
<text text-anchor="start" x="225.5" y="-121.5" font-family="FreeSans" font-size="10.00" fill="#000000">G4PenelopeIonisationCross</text>
<text text-anchor="middle" x="294.5" y="-109.5" font-family="FreeSans" font-size="10.00" fill="#000000">Section::CrossSection</text>
</a>
</g>
</g>
<!-- Node1&#45;&gt;Node3 -->
<g id="edge2" class="edge">
<title>Node1&#45;&gt;Node3</title>
<path fill="none" stroke="#191970" d="M190.219,-105.2418C199.3882,-106.4076 208.5792,-107.5761 217.4969,-108.7099"/>
<polygon fill="#191970" stroke="#191970" points="190.6536,-101.7689 180.292,-103.9797 189.7706,-108.713 190.6536,-101.7689"/>
</g>
<!-- Node6 -->
<g id="node6" class="node">
<title>Node6</title>
<g id="a_node6"><a xlink:href="../../d9/dd7/classG4PenelopeIonisationModel.html#a18f677df7d9f92e8f8d0b61ff2517f2a" target="_top" xlink:title="G4PenelopeIonisationModel\l::CrossSectionPerVolume">
<polygon fill="none" stroke="#000000" points="216,-51.5 216,-83.5 373,-83.5 373,-51.5 216,-51.5"/>
<text text-anchor="start" x="224" y="-70.5" font-family="FreeSans" font-size="10.00" fill="#000000">G4PenelopeIonisationModel</text>
<text text-anchor="middle" x="294.5" y="-58.5" font-family="FreeSans" font-size="10.00" fill="#000000">::CrossSectionPerVolume</text>
</a>
</g>
</g>
<!-- Node1&#45;&gt;Node6 -->
<g id="edge5" class="edge">
<title>Node1&#45;&gt;Node6</title>
<path fill="none" stroke="#191970" d="M190.3502,-80.2322C198.9377,-79.1824 207.5431,-78.1304 215.9239,-77.1059"/>
<polygon fill="#191970" stroke="#191970" points="189.7933,-76.7742 180.292,-81.4619 190.6428,-83.7225 189.7933,-76.7742"/>
</g>
<!-- Node7 -->
<g id="node7" class="node">
<title>Node7</title>
<g id="a_node7"><a xlink:href="../../d9/dd7/classG4PenelopeIonisationModel.html#a03183df020f3e2bbae2004929b190609" target="_top" xlink:title="G4PenelopeIonisationModel\l::Initialise">
<polygon fill="none" stroke="#000000" points="216,-.5 216,-32.5 373,-32.5 373,-.5 216,-.5"/>
<text text-anchor="start" x="224" y="-19.5" font-family="FreeSans" font-size="10.00" fill="#000000">G4PenelopeIonisationModel</text>
<text text-anchor="middle" x="294.5" y="-7.5" font-family="FreeSans" font-size="10.00" fill="#000000">::Initialise</text>
</a>
</g>
</g>
<!-- Node1&#45;&gt;Node7 -->
<g id="edge6" class="edge">
<title>Node1&#45;&gt;Node7</title>
<path fill="none" stroke="#191970" d="M138.0142,-72.6895C161.4175,-63.2277 190.049,-51.9377 216,-42.5 225.1746,-39.1635 235.0139,-35.765 244.5174,-32.5729"/>
<polygon fill="#191970" stroke="#191970" points="136.6087,-69.4825 128.6593,-76.4866 139.2415,-75.9686 136.6087,-69.4825"/>
</g>
<!-- Node4 -->
<g id="node4" class="node">
<title>Node4</title>
<g id="a_node4"><a xlink:href="../../d1/d17/classG4PenelopeIonisationCrossSection.html#a30e71816fb49e4a5171f755fea8ab184" target="_top" xlink:title="G4PenelopeIonisationCross\lSection::GetCrossSection">
<polygon fill="none" stroke="#000000" points="409,-102.5 409,-134.5 563,-134.5 563,-102.5 409,-102.5"/>
<text text-anchor="start" x="417" y="-121.5" font-family="FreeSans" font-size="10.00" fill="#000000">G4PenelopeIonisationCross</text>
<text text-anchor="middle" x="486" y="-109.5" font-family="FreeSans" font-size="10.00" fill="#000000">Section::GetCrossSection</text>
</a>
</g>
</g>
<!-- Node3&#45;&gt;Node4 -->
<g id="edge3" class="edge">
<title>Node3&#45;&gt;Node4</title>
<path fill="none" stroke="#191970" d="M381.7009,-118.5C390.7345,-118.5 399.8703,-118.5 408.7834,-118.5"/>
<polygon fill="#191970" stroke="#191970" points="381.5626,-115.0001 371.5626,-118.5 381.5626,-122.0001 381.5626,-115.0001"/>
</g>
<!-- Node5 -->
<g id="node5" class="node">
<title>Node5</title>
<g id="a_node5"><a xlink:href="../../d1/d17/classG4PenelopeIonisationCrossSection.html#a6d4aed83192f42eef8286739a3d85c01" target="_top" xlink:title="G4PenelopeIonisationCross\lSection::Probabilities">
<polygon fill="none" stroke="#000000" points="599,-102.5 599,-134.5 753,-134.5 753,-102.5 599,-102.5"/>
<text text-anchor="start" x="607" y="-121.5" font-family="FreeSans" font-size="10.00" fill="#000000">G4PenelopeIonisationCross</text>
<text text-anchor="middle" x="676" y="-109.5" font-family="FreeSans" font-size="10.00" fill="#000000">Section::Probabilities</text>
</a>
</g>
</g>
<!-- Node4&#45;&gt;Node5 -->
<g id="edge4" class="edge">
<title>Node4&#45;&gt;Node5</title>
<path fill="none" stroke="#191970" d="M573.0622,-118.5C581.6771,-118.5 590.3797,-118.5 598.884,-118.5"/>
<polygon fill="#191970" stroke="#191970" points="573.0064,-115.0001 563.0064,-118.5 573.0063,-122.0001 573.0064,-115.0001"/>
</g>
</g>
</svg>
