<?xml version="1.0" encoding="UTF-8" standalone="no"?>
<!DOCTYPE svg PUBLIC "-//W3C//DTD SVG 1.1//EN"
 "http://www.w3.org/Graphics/SVG/1.1/DTD/svg11.dtd">
<!-- Generated by graphviz version 2.40.1 (20161225.0304)
 -->
<!-- Title: PHG4TruthInfoContainer::GetVtx Pages: 1 -->
<svg width="1503pt" height="782pt"
 viewBox="0.00 0.00 1503.00 782.00" xmlns="http://www.w3.org/2000/svg" xmlns:xlink="http://www.w3.org/1999/xlink">
<g id="graph0" class="graph" transform="scale(1 1) rotate(0) translate(4 778)">
<title>PHG4TruthInfoContainer::GetVtx</title>
<!-- Node1 -->
<g id="node1" class="node">
<title>Node1</title>
<polygon fill="#bfbfbf" stroke="#000000" points="0,-358.5 0,-390.5 139,-390.5 139,-358.5 0,-358.5"/>
<text text-anchor="start" x="8" y="-377.5" font-family="FreeSans" font-size="10.00" fill="#000000">PHG4TruthInfoContainer</text>
<text text-anchor="middle" x="69.5" y="-365.5" font-family="FreeSans" font-size="10.00" fill="#000000">::GetVtx</text>
</g>
<!-- Node2 -->
<g id="node2" class="node">
<title>Node2</title>
<g id="a_node2"><a xlink:href="../../df/df5/classB0TrackFastSimEval.html#a987b1bb0c34a3b6024978e1dac7aa2d3" target="_top" xlink:title="B0TrackFastSimEval\l::fill_track_tree">
<polygon fill="none" stroke="#000000" points="202.5,-741.5 202.5,-773.5 318.5,-773.5 318.5,-741.5 202.5,-741.5"/>
<text text-anchor="start" x="210.5" y="-760.5" font-family="FreeSans" font-size="10.00" fill="#000000">B0TrackFastSimEval</text>
<text text-anchor="middle" x="260.5" y="-748.5" font-family="FreeSans" font-size="10.00" fill="#000000">::fill_track_tree</text>
</a>
</g>
</g>
<!-- Node1&#45;&gt;Node2 -->
<g id="edge1" class="edge">
<title>Node1&#45;&gt;Node2</title>
<path fill="none" stroke="#191970" d="M73.8877,-400.699C86.8201,-474.9517 126.9127,-684.5142 175,-732.5 182.5535,-740.0376 192.2466,-745.3281 202.377,-749.0353"/>
<polygon fill="#191970" stroke="#191970" points="77.3229,-400.0231 72.179,-390.7608 70.4242,-401.2093 77.3229,-400.0231"/>
</g>
<!-- Node4 -->
<g id="node4" class="node">
<title>Node4</title>
<g id="a_node4"><a xlink:href="../../d0/d71/classPHG4TrackFastSimEval.html#a52a746bdc6e84dc7886b5bae0b608e68" target="_top" xlink:title="PHG4TrackFastSimEval\l::fill_track_tree">
<polygon fill="none" stroke="#000000" points="195,-639.5 195,-671.5 326,-671.5 326,-639.5 195,-639.5"/>
<text text-anchor="start" x="203" y="-658.5" font-family="FreeSans" font-size="10.00" fill="#000000">PHG4TrackFastSimEval</text>
<text text-anchor="middle" x="260.5" y="-646.5" font-family="FreeSans" font-size="10.00" fill="#000000">::fill_track_tree</text>
</a>
</g>
</g>
<!-- Node1&#45;&gt;Node4 -->
<g id="edge3" class="edge">
<title>Node1&#45;&gt;Node4</title>
<path fill="none" stroke="#191970" d="M72.7826,-400.7799C80.6518,-452.5122 105.4092,-567.9481 175,-630.5 180.7509,-635.6692 187.5169,-639.7729 194.6822,-643.03"/>
<polygon fill="#191970" stroke="#191970" points="76.2288,-400.1542 71.3497,-390.7497 69.2992,-401.1442 76.2288,-400.1542"/>
</g>
<!-- Node6 -->
<g id="node6" class="node">
<title>Node6</title>
<g id="a_node6"><a xlink:href="../../d8/d97/classTrackFastSimEval.html#a028f8bc89f4762789e280d64e7fcfe62" target="_top" xlink:title="TrackFastSimEval::fill\l_track_tree">
<polygon fill="none" stroke="#000000" points="199,-537.5 199,-569.5 322,-569.5 322,-537.5 199,-537.5"/>
<text text-anchor="start" x="207" y="-556.5" font-family="FreeSans" font-size="10.00" fill="#000000">TrackFastSimEval::fill</text>
<text text-anchor="middle" x="260.5" y="-544.5" font-family="FreeSans" font-size="10.00" fill="#000000">_track_tree</text>
</a>
</g>
</g>
<!-- Node1&#45;&gt;Node6 -->
<g id="edge5" class="edge">
<title>Node1&#45;&gt;Node6</title>
<path fill="none" stroke="#191970" d="M80.2867,-400.0758C96.0623,-434.3952 128.6716,-494.9114 175,-528.5 182.1368,-533.6743 190.3343,-537.7838 198.7662,-541.0462"/>
<polygon fill="#191970" stroke="#191970" points="83.3854,-398.4313 76.11,-390.7294 76.9945,-401.2873 83.3854,-398.4313"/>
</g>
<!-- Node8 -->
<g id="node8" class="node">
<title>Node8</title>
<g id="a_node8"><a xlink:href="../../df/df5/classB0TrackFastSimEval.html#ae7493d5c8afc51848f2d32ffbd53b274" target="_top" xlink:title="B0TrackFastSimEval\l::fill_vertex_tree">
<polygon fill="none" stroke="#000000" points="202.5,-690.5 202.5,-722.5 318.5,-722.5 318.5,-690.5 202.5,-690.5"/>
<text text-anchor="start" x="210.5" y="-709.5" font-family="FreeSans" font-size="10.00" fill="#000000">B0TrackFastSimEval</text>
<text text-anchor="middle" x="260.5" y="-697.5" font-family="FreeSans" font-size="10.00" fill="#000000">::fill_vertex_tree</text>
</a>
</g>
</g>
<!-- Node1&#45;&gt;Node8 -->
<g id="edge7" class="edge">
<title>Node1&#45;&gt;Node8</title>
<path fill="none" stroke="#191970" d="M70.7251,-400.8802C74.9172,-459.9244 93.4228,-603.6335 175,-681.5 182.6072,-688.7612 192.2057,-693.9288 202.2008,-697.6027"/>
<polygon fill="#191970" stroke="#191970" points="74.1971,-400.3216 70.0799,-390.5595 67.2108,-400.7584 74.1971,-400.3216"/>
</g>
<!-- Node9 -->
<g id="node9" class="node">
<title>Node9</title>
<g id="a_node9"><a xlink:href="../../d0/d71/classPHG4TrackFastSimEval.html#abb5af30ed95d2dc6212aca004f92016d" target="_top" xlink:title="PHG4TrackFastSimEval\l::fill_vertex_tree">
<polygon fill="none" stroke="#000000" points="195,-588.5 195,-620.5 326,-620.5 326,-588.5 195,-588.5"/>
<text text-anchor="start" x="203" y="-607.5" font-family="FreeSans" font-size="10.00" fill="#000000">PHG4TrackFastSimEval</text>
<text text-anchor="middle" x="260.5" y="-595.5" font-family="FreeSans" font-size="10.00" fill="#000000">::fill_vertex_tree</text>
</a>
</g>
</g>
<!-- Node1&#45;&gt;Node9 -->
<g id="edge9" class="edge">
<title>Node1&#45;&gt;Node9</title>
<path fill="none" stroke="#191970" d="M75.6786,-400.3911C87.4173,-443.9294 117.1058,-531.7189 175,-579.5 180.8445,-584.3236 187.5841,-588.2166 194.662,-591.3585"/>
<polygon fill="#191970" stroke="#191970" points="79.0308,-399.3743 73.1353,-390.5713 72.2544,-401.1295 79.0308,-399.3743"/>
</g>
<!-- Node10 -->
<g id="node10" class="node">
<title>Node10</title>
<g id="a_node10"><a xlink:href="../../d8/d97/classTrackFastSimEval.html#a6169d02dfd424ec8d1a721eb40411aee" target="_top" xlink:title="TrackFastSimEval::fill\l_vertex_tree">
<polygon fill="none" stroke="#000000" points="199,-486.5 199,-518.5 322,-518.5 322,-486.5 199,-486.5"/>
<text text-anchor="start" x="207" y="-505.5" font-family="FreeSans" font-size="10.00" fill="#000000">TrackFastSimEval::fill</text>
<text text-anchor="middle" x="260.5" y="-493.5" font-family="FreeSans" font-size="10.00" fill="#000000">_vertex_tree</text>
</a>
</g>
</g>
<!-- Node1&#45;&gt;Node10 -->
<g id="edge11" class="edge">
<title>Node1&#45;&gt;Node10</title>
<path fill="none" stroke="#191970" d="M88.1734,-398.6249C107.5036,-422.0185 139.7685,-456.9075 175,-477.5 182.3435,-481.7922 190.4781,-485.3941 198.7249,-488.4041"/>
<polygon fill="#191970" stroke="#191970" points="90.6682,-396.144 81.6555,-390.5741 85.2276,-400.5486 90.6682,-396.144"/>
</g>
<!-- Node11 -->
<g id="node11" class="node">
<title>Node11</title>
<g id="a_node11"><a xlink:href="../../db/d22/classEventEvaluator.html#ada437671569f41f49d8efe8235d569ab" target="_top" xlink:title="dump the evaluator information into ntuple for external analysis">
<polygon fill="none" stroke="#000000" points="186.5,-435.5 186.5,-467.5 334.5,-467.5 334.5,-435.5 186.5,-435.5"/>
<text text-anchor="start" x="194.5" y="-454.5" font-family="FreeSans" font-size="10.00" fill="#000000">EventEvaluator::fillOutput</text>
<text text-anchor="middle" x="260.5" y="-442.5" font-family="FreeSans" font-size="10.00" fill="#000000">Ntuples</text>
</a>
</g>
</g>
<!-- Node1&#45;&gt;Node11 -->
<g id="edge13" class="edge">
<title>Node1&#45;&gt;Node11</title>
<path fill="none" stroke="#191970" d="M107.8568,-395.4096C127.5582,-405.6309 152.1657,-417.6117 175,-426.5 183.2148,-429.6976 192.0102,-432.7107 200.7204,-435.4629"/>
<polygon fill="#191970" stroke="#191970" points="109.3733,-392.2527 98.8921,-390.7049 106.1204,-398.4511 109.3733,-392.2527"/>
</g>
<!-- Node13 -->
<g id="node13" class="node">
<title>Node13</title>
<g id="a_node13"><a xlink:href="../../d8/da7/classEventEvaluatorEIC.html#ad84b6360f2050d67e712225ddf24854f" target="_top" xlink:title="dump the evaluator information into ntuple for external analysis">
<polygon fill="none" stroke="#000000" points="202.5,-384.5 202.5,-416.5 318.5,-416.5 318.5,-384.5 202.5,-384.5"/>
<text text-anchor="start" x="210.5" y="-403.5" font-family="FreeSans" font-size="10.00" fill="#000000">EventEvaluatorEIC::</text>
<text text-anchor="middle" x="260.5" y="-391.5" font-family="FreeSans" font-size="10.00" fill="#000000">fillOutputNtuples</text>
</a>
</g>
</g>
<!-- Node1&#45;&gt;Node13 -->
<g id="edge15" class="edge">
<title>Node1&#45;&gt;Node13</title>
<path fill="none" stroke="#191970" d="M149.563,-385.3986C167.2255,-387.8029 185.6116,-390.3058 202.2178,-392.5663"/>
<polygon fill="#191970" stroke="#191970" points="149.6469,-381.8778 139.2661,-383.997 148.7026,-388.8139 149.6469,-381.8778"/>
</g>
<!-- Node15 -->
<g id="node15" class="node">
<title>Node15</title>
<g id="a_node15"><a xlink:href="../../dc/d23/classBaseTruthEval.html#ad3f606dcf24aeca41b79f5d64f68dc0e" target="_top" xlink:title="what was the vertex creation point of the particle?">
<polygon fill="none" stroke="#000000" points="204.5,-333.5 204.5,-365.5 316.5,-365.5 316.5,-333.5 204.5,-333.5"/>
<text text-anchor="start" x="212.5" y="-352.5" font-family="FreeSans" font-size="10.00" fill="#000000">BaseTruthEval::get</text>
<text text-anchor="middle" x="260.5" y="-340.5" font-family="FreeSans" font-size="10.00" fill="#000000">_vertex</text>
</a>
</g>
</g>
<!-- Node1&#45;&gt;Node15 -->
<g id="edge17" class="edge">
<title>Node1&#45;&gt;Node15</title>
<path fill="none" stroke="#191970" d="M149.4252,-364.0386C167.892,-361.6215 187.1574,-359.0998 204.3581,-356.8484"/>
<polygon fill="#191970" stroke="#191970" points="148.7273,-360.6 139.2661,-365.3683 149.6358,-367.5408 148.7273,-360.6"/>
</g>
<!-- Node35 -->
<g id="node35" class="node">
<title>Node35</title>
<g id="a_node35"><a xlink:href="../../d1/d1e/classSvtxClusterEval.html#abd7851ec294047271ce26d8824d2af81" target="_top" xlink:title="SvtxClusterEval::gtrackid\l_and_layer_by_nhit">
<polygon fill="none" stroke="#000000" points="189,-243.5 189,-275.5 332,-275.5 332,-243.5 189,-243.5"/>
<text text-anchor="start" x="197" y="-262.5" font-family="FreeSans" font-size="10.00" fill="#000000">SvtxClusterEval::gtrackid</text>
<text text-anchor="middle" x="260.5" y="-250.5" font-family="FreeSans" font-size="10.00" fill="#000000">_and_layer_by_nhit</text>
</a>
</g>
</g>
<!-- Node1&#45;&gt;Node35 -->
<g id="edge44" class="edge">
<title>Node1&#45;&gt;Node35</title>
<path fill="none" stroke="#191970" d="M93.7127,-351.4143C114.0958,-332.9585 144.6972,-307.4552 175,-290.5 185.1965,-284.7948 196.6423,-279.7976 207.7631,-275.5759"/>
<polygon fill="#191970" stroke="#191970" points="91.155,-349.0113 86.1603,-358.355 95.8916,-354.1654 91.155,-349.0113"/>
</g>
<!-- Node37 -->
<g id="node37" class="node">
<title>Node37</title>
<g id="a_node37"><a xlink:href="../../d5/da2/classPHTruthTrackSeeding.html#a37f708048770642f57f15675683c2cac" target="_top" xlink:title="PHTruthTrackSeeding\l::Process">
<polygon fill="none" stroke="#000000" points="592,-243.5 592,-275.5 715,-275.5 715,-243.5 592,-243.5"/>
<text text-anchor="start" x="600" y="-262.5" font-family="FreeSans" font-size="10.00" fill="#000000">PHTruthTrackSeeding</text>
<text text-anchor="middle" x="653.5" y="-250.5" font-family="FreeSans" font-size="10.00" fill="#000000">::Process</text>
</a>
</g>
</g>
<!-- Node1&#45;&gt;Node37 -->
<g id="edge48" class="edge">
<title>Node1&#45;&gt;Node37</title>
<path fill="none" stroke="#191970" d="M105.6975,-353.6455C125.5342,-343.1805 150.9232,-331.3113 175,-324.5 328.5831,-281.0515 374.4233,-310.8993 532,-285.5 551.5927,-282.3419 572.7949,-278.0958 591.9194,-273.9515"/>
<polygon fill="#191970" stroke="#191970" points="103.8594,-350.6602 96.7178,-358.4863 107.1811,-356.8219 103.8594,-350.6602"/>
</g>
<!-- Node38 -->
<g id="node38" class="node">
<title>Node38</title>
<g id="a_node38"><a xlink:href="../../d6/d11/classSvtxEvaluator.html#aef548ddeafdf0ebc949f29e88a741db8" target="_top" xlink:title="print out the ancestry information for detailed diagnosis">
<polygon fill="none" stroke="#000000" points="175,-204.5 175,-224.5 346,-224.5 346,-204.5 175,-204.5"/>
<text text-anchor="middle" x="260.5" y="-211.5" font-family="FreeSans" font-size="10.00" fill="#000000">SvtxEvaluator::printOutputInfo</text>
</a>
</g>
</g>
<!-- Node1&#45;&gt;Node38 -->
<g id="edge47" class="edge">
<title>Node1&#45;&gt;Node38</title>
<path fill="none" stroke="#191970" d="M81.6398,-349.0081C98.1787,-317.1293 130.8606,-263.255 175,-234.5 181.2588,-230.4226 188.2541,-227.1734 195.4746,-224.5847"/>
<polygon fill="#191970" stroke="#191970" points="78.4105,-347.6387 77.0305,-358.1433 84.6601,-350.792 78.4105,-347.6387"/>
</g>
<!-- Node39 -->
<g id="node39" class="node">
<title>Node39</title>
<g id="a_node39"><a xlink:href="../../d8/dc7/classMomentumEvaluator.html#a57a5a38c5590636286793eadcacddbad" target="_top" xlink:title="MomentumEvaluator::\lprocess_event">
<polygon fill="none" stroke="#000000" points="196.5,-153.5 196.5,-185.5 324.5,-185.5 324.5,-153.5 196.5,-153.5"/>
<text text-anchor="start" x="204.5" y="-172.5" font-family="FreeSans" font-size="10.00" fill="#000000">MomentumEvaluator::</text>
<text text-anchor="middle" x="260.5" y="-160.5" font-family="FreeSans" font-size="10.00" fill="#000000">process_event</text>
</a>
</g>
</g>
<!-- Node1&#45;&gt;Node39 -->
<g id="edge49" class="edge">
<title>Node1&#45;&gt;Node39</title>
<path fill="none" stroke="#191970" d="M77.7621,-348.8869C91.6156,-309.989 123.2155,-236.2502 175,-195.5 181.3401,-190.5109 188.6323,-186.4758 196.2281,-183.2131"/>
<polygon fill="#191970" stroke="#191970" points="74.422,-347.8371 74.4716,-358.4318 81.0398,-350.1185 74.422,-347.8371"/>
</g>
<!-- Node40 -->
<g id="node40" class="node">
<title>Node40</title>
<g id="a_node40"><a xlink:href="../../df/d9d/classPHTruthSiliconAssociation.html#ac41bed87e2c4caf8ddf243144cf4b5d4" target="_top" xlink:title="PHTruthSiliconAssociation\l::process_event">
<polygon fill="none" stroke="#000000" points="187.5,-102.5 187.5,-134.5 333.5,-134.5 333.5,-102.5 187.5,-102.5"/>
<text text-anchor="start" x="195.5" y="-121.5" font-family="FreeSans" font-size="10.00" fill="#000000">PHTruthSiliconAssociation</text>
<text text-anchor="middle" x="260.5" y="-109.5" font-family="FreeSans" font-size="10.00" fill="#000000">::process_event</text>
</a>
</g>
</g>
<!-- Node1&#45;&gt;Node40 -->
<g id="edge50" class="edge">
<title>Node1&#45;&gt;Node40</title>
<path fill="none" stroke="#191970" d="M74.148,-348.6072C84.0329,-301.1068 111.6348,-199.8486 175,-144.5 179.4403,-140.6215 184.4462,-137.3215 189.7521,-134.5138"/>
<polygon fill="#191970" stroke="#191970" points="70.7144,-347.9291 72.2014,-358.4191 77.5806,-349.2913 70.7144,-347.9291"/>
</g>
<!-- Node41 -->
<g id="node41" class="node">
<title>Node41</title>
<g id="a_node41"><a xlink:href="../../d4/dc9/classPHG4DSTReader.html#a96e049829877207a6bb23548ae552853" target="_top" xlink:title="event processing method">
<polygon fill="none" stroke="#000000" points="187.5,-51.5 187.5,-83.5 333.5,-83.5 333.5,-51.5 187.5,-51.5"/>
<text text-anchor="start" x="195.5" y="-70.5" font-family="FreeSans" font-size="10.00" fill="#000000">PHG4DSTReader::process</text>
<text text-anchor="middle" x="260.5" y="-58.5" font-family="FreeSans" font-size="10.00" fill="#000000">_event</text>
</a>
</g>
</g>
<!-- Node1&#45;&gt;Node41 -->
<g id="edge51" class="edge">
<title>Node1&#45;&gt;Node41</title>
<path fill="none" stroke="#191970" d="M71.6327,-348.324C77.572,-292.8682 99.2464,-162.8789 175,-92.5 178.7389,-89.0263 182.9347,-86.0328 187.4073,-83.4533"/>
<polygon fill="#191970" stroke="#191970" points="68.1392,-348.087 70.6432,-358.3816 75.1055,-348.7723 68.1392,-348.087"/>
</g>
<!-- Node42 -->
<g id="node42" class="node">
<title>Node42</title>
<g id="a_node42"><a xlink:href="../../dd/d9d/classPHG4TruthEventAction.html#ae3f2e6fb721a5bf18566688160ccc273" target="_top" xlink:title="PHG4TruthEventAction\l::ProcessShowers">
<polygon fill="none" stroke="#000000" points="195.5,-.5 195.5,-32.5 325.5,-32.5 325.5,-.5 195.5,-.5"/>
<text text-anchor="start" x="203.5" y="-19.5" font-family="FreeSans" font-size="10.00" fill="#000000">PHG4TruthEventAction</text>
<text text-anchor="middle" x="260.5" y="-7.5" font-family="FreeSans" font-size="10.00" fill="#000000">::ProcessShowers</text>
</a>
</g>
</g>
<!-- Node1&#45;&gt;Node42 -->
<g id="edge52" class="edge">
<title>Node1&#45;&gt;Node42</title>
<path fill="none" stroke="#191970" d="M74.5143,-348.2477C88.511,-277.5559 129.9437,-85.5606 175,-41.5 180.7497,-35.8774 187.6913,-31.5074 195.1033,-28.1133"/>
<polygon fill="#191970" stroke="#191970" points="71.0643,-347.6531 72.5788,-358.1391 77.934,-348.9973 71.0643,-347.6531"/>
</g>
<!-- Node3 -->
<g id="node3" class="node">
<title>Node3</title>
<g id="a_node3"><a xlink:href="../../df/df5/classB0TrackFastSimEval.html#a20f68cb77bb2854e459af2a8a6410ef6" target="_top" xlink:title="B0TrackFastSimEval\l::process_event">
<polygon fill="none" stroke="#000000" points="399,-702.5 399,-734.5 515,-734.5 515,-702.5 399,-702.5"/>
<text text-anchor="start" x="407" y="-721.5" font-family="FreeSans" font-size="10.00" fill="#000000">B0TrackFastSimEval</text>
<text text-anchor="middle" x="457" y="-709.5" font-family="FreeSans" font-size="10.00" fill="#000000">::process_event</text>
</a>
</g>
</g>
<!-- Node2&#45;&gt;Node3 -->
<g id="edge2" class="edge">
<title>Node2&#45;&gt;Node3</title>
<path fill="none" stroke="#191970" d="M328.6581,-743.9724C351.581,-739.4229 376.9227,-734.3932 398.9903,-730.0134"/>
<polygon fill="#191970" stroke="#191970" points="327.7862,-740.5771 318.6589,-745.957 329.149,-747.4432 327.7862,-740.5771"/>
</g>
<!-- Node5 -->
<g id="node5" class="node">
<title>Node5</title>
<g id="a_node5"><a xlink:href="../../d0/d71/classPHG4TrackFastSimEval.html#a49d7dacf282d8b17d774ef0f8778a802" target="_top" xlink:title="PHG4TrackFastSimEval\l::process_event">
<polygon fill="none" stroke="#000000" points="391.5,-626.5 391.5,-658.5 522.5,-658.5 522.5,-626.5 391.5,-626.5"/>
<text text-anchor="start" x="399.5" y="-645.5" font-family="FreeSans" font-size="10.00" fill="#000000">PHG4TrackFastSimEval</text>
<text text-anchor="middle" x="457" y="-633.5" font-family="FreeSans" font-size="10.00" fill="#000000">::process_event</text>
</a>
</g>
</g>
<!-- Node4&#45;&gt;Node5 -->
<g id="edge4" class="edge">
<title>Node4&#45;&gt;Node5</title>
<path fill="none" stroke="#191970" d="M336.1833,-650.493C354.3774,-649.2893 373.663,-648.0134 391.3571,-646.8428"/>
<polygon fill="#191970" stroke="#191970" points="335.952,-647.0005 326.2048,-651.1531 336.4141,-653.9853 335.952,-647.0005"/>
</g>
<!-- Node7 -->
<g id="node7" class="node">
<title>Node7</title>
<g id="a_node7"><a xlink:href="../../d8/d97/classTrackFastSimEval.html#a1c1810697243f85b6963d11342852ee8" target="_top" xlink:title="TrackFastSimEval::process\l_event">
<polygon fill="none" stroke="#000000" points="382,-537.5 382,-569.5 532,-569.5 532,-537.5 382,-537.5"/>
<text text-anchor="start" x="390" y="-556.5" font-family="FreeSans" font-size="10.00" fill="#000000">TrackFastSimEval::process</text>
<text text-anchor="middle" x="457" y="-544.5" font-family="FreeSans" font-size="10.00" fill="#000000">_event</text>
</a>
</g>
</g>
<!-- Node6&#45;&gt;Node7 -->
<g id="edge6" class="edge">
<title>Node6&#45;&gt;Node7</title>
<path fill="none" stroke="#191970" d="M332.5124,-553.5C348.5554,-553.5 365.6056,-553.5 381.7742,-553.5"/>
<polygon fill="#191970" stroke="#191970" points="332.1347,-550.0001 322.1347,-553.5 332.1347,-557.0001 332.1347,-550.0001"/>
</g>
<!-- Node8&#45;&gt;Node3 -->
<g id="edge8" class="edge">
<title>Node8&#45;&gt;Node3</title>
<path fill="none" stroke="#191970" d="M328.6581,-710.6623C351.581,-712.0622 376.9227,-713.6098 398.9903,-714.9574"/>
<polygon fill="#191970" stroke="#191970" points="328.8537,-707.1678 318.6589,-710.0517 328.4269,-714.1548 328.8537,-707.1678"/>
</g>
<!-- Node9&#45;&gt;Node5 -->
<g id="edge10" class="edge">
<title>Node9&#45;&gt;Node5</title>
<path fill="none" stroke="#191970" d="M336.1833,-619.136C354.3774,-622.6544 373.663,-626.3839 391.3571,-629.8057"/>
<polygon fill="#191970" stroke="#191970" points="336.6875,-615.6687 326.2048,-617.2063 335.3584,-622.5414 336.6875,-615.6687"/>
</g>
<!-- Node10&#45;&gt;Node7 -->
<g id="edge12" class="edge">
<title>Node10&#45;&gt;Node7</title>
<path fill="none" stroke="#191970" d="M331.8541,-521.0194C352.6206,-526.4092 375.1239,-532.2497 395.2464,-537.4724"/>
<polygon fill="#191970" stroke="#191970" points="332.6933,-517.6213 322.1347,-518.4968 330.9347,-524.3968 332.6933,-517.6213"/>
</g>
<!-- Node12 -->
<g id="node12" class="node">
<title>Node12</title>
<g id="a_node12"><a xlink:href="../../db/d22/classEventEvaluator.html#a5b4dc2c7afd4f3844396f08cc9c555ad" target="_top" xlink:title="EventEvaluator::process\l_event">
<polygon fill="none" stroke="#000000" points="387.5,-486.5 387.5,-518.5 526.5,-518.5 526.5,-486.5 387.5,-486.5"/>
<text text-anchor="start" x="395.5" y="-505.5" font-family="FreeSans" font-size="10.00" fill="#000000">EventEvaluator::process</text>
<text text-anchor="middle" x="457" y="-493.5" font-family="FreeSans" font-size="10.00" fill="#000000">_event</text>
</a>
</g>
</g>
<!-- Node11&#45;&gt;Node12 -->
<g id="edge14" class="edge">
<title>Node11&#45;&gt;Node12</title>
<path fill="none" stroke="#191970" d="M332.3496,-470.148C352.9173,-475.4862 375.1522,-481.2571 395.0696,-486.4264"/>
<polygon fill="#191970" stroke="#191970" points="332.9627,-466.6912 322.4041,-467.5667 331.2041,-473.4667 332.9627,-466.6912"/>
</g>
<!-- Node14 -->
<g id="node14" class="node">
<title>Node14</title>
<g id="a_node14"><a xlink:href="../../d8/da7/classEventEvaluatorEIC.html#aacdf5acd0bb5251382828e32df991178" target="_top" xlink:title="EventEvaluatorEIC::\lprocess_event">
<polygon fill="none" stroke="#000000" points="399,-435.5 399,-467.5 515,-467.5 515,-435.5 399,-435.5"/>
<text text-anchor="start" x="407" y="-454.5" font-family="FreeSans" font-size="10.00" fill="#000000">EventEvaluatorEIC::</text>
<text text-anchor="middle" x="457" y="-442.5" font-family="FreeSans" font-size="10.00" fill="#000000">process_event</text>
</a>
</g>
</g>
<!-- Node13&#45;&gt;Node14 -->
<g id="edge16" class="edge">
<title>Node13&#45;&gt;Node14</title>
<path fill="none" stroke="#191970" d="M328.3498,-418.1099C351.3536,-424.0803 376.8238,-430.6909 398.9903,-436.4441"/>
<polygon fill="#191970" stroke="#191970" points="329.2175,-414.7192 318.6589,-415.5947 327.4589,-421.4947 329.2175,-414.7192"/>
</g>
<!-- Node16 -->
<g id="node16" class="node">
<title>Node16</title>
<g id="a_node16"><a xlink:href="../../d4/de4/classSvtxTruthEval.html#afd61a22f7958141564f39aae028580dc" target="_top" xlink:title="SvtxTruthEval::get\l_vertex">
<polygon fill="none" stroke="#000000" points="402,-384.5 402,-416.5 512,-416.5 512,-384.5 402,-384.5"/>
<text text-anchor="start" x="410" y="-403.5" font-family="FreeSans" font-size="10.00" fill="#000000">SvtxTruthEval::get</text>
<text text-anchor="middle" x="457" y="-391.5" font-family="FreeSans" font-size="10.00" fill="#000000">_vertex</text>
</a>
</g>
</g>
<!-- Node15&#45;&gt;Node16 -->
<g id="edge18" class="edge">
<title>Node15&#45;&gt;Node16</title>
<path fill="none" stroke="#191970" d="M326.4801,-366.6246C350.9736,-372.9817 378.4771,-380.12 401.8983,-386.1988"/>
<polygon fill="#191970" stroke="#191970" points="327.1046,-363.1708 316.546,-364.0463 325.3461,-369.9463 327.1046,-363.1708"/>
</g>
<!-- Node31 -->
<g id="node31" class="node">
<title>Node31</title>
<g id="a_node31"><a xlink:href="../../d7/d3c/classCaloTruthEval.html#a59dcdec9abaa7c6e8805732fa9596ce5" target="_top" xlink:title="what was particle&#39;s creation point?">
<polygon fill="none" stroke="#000000" points="402,-333.5 402,-365.5 512,-365.5 512,-333.5 402,-333.5"/>
<text text-anchor="start" x="410" y="-352.5" font-family="FreeSans" font-size="10.00" fill="#000000">CaloTruthEval::get</text>
<text text-anchor="middle" x="457" y="-340.5" font-family="FreeSans" font-size="10.00" fill="#000000">_vertex</text>
</a>
</g>
</g>
<!-- Node15&#45;&gt;Node31 -->
<g id="edge39" class="edge">
<title>Node15&#45;&gt;Node31</title>
<path fill="none" stroke="#191970" d="M326.8068,-349.5C351.2179,-349.5 378.5812,-349.5 401.8983,-349.5"/>
<polygon fill="#191970" stroke="#191970" points="326.5461,-346.0001 316.546,-349.5 326.546,-353.0001 326.5461,-346.0001"/>
</g>
<!-- Node17 -->
<g id="node17" class="node">
<title>Node17</title>
<g id="a_node17"><a xlink:href="../../dd/de6/classKFParticle__truthAndDetTools.html#aacd7464b07f03f83a4d7e2de49e63a50" target="_top" xlink:title="KFParticle_truthAndDetTools\l::fillTruthBranch">
<polygon fill="none" stroke="#000000" points="992,-410.5 992,-442.5 1150,-442.5 1150,-410.5 992,-410.5"/>
<text text-anchor="start" x="1000" y="-429.5" font-family="FreeSans" font-size="10.00" fill="#000000">KFParticle_truthAndDetTools</text>
<text text-anchor="middle" x="1071" y="-417.5" font-family="FreeSans" font-size="10.00" fill="#000000">::fillTruthBranch</text>
</a>
</g>
</g>
<!-- Node16&#45;&gt;Node17 -->
<g id="edge19" class="edge">
<title>Node16&#45;&gt;Node17</title>
<path fill="none" stroke="#191970" d="M522.4063,-409.871C537.3604,-411.7011 553.2066,-413.3935 568,-414.5 717.3901,-425.6739 892.3648,-427.2621 991.5992,-427.0931"/>
<polygon fill="#191970" stroke="#191970" points="522.579,-406.3651 512.2198,-408.5874 521.7038,-413.3102 522.579,-406.3651"/>
</g>
<!-- Node20 -->
<g id="node20" class="node">
<title>Node20</title>
<g id="a_node20"><a xlink:href="../../d3/d32/classActsEvaluator.html#a2d5f8783b3bd1893a78f05bde5c04e34" target="_top" xlink:title="ActsEvaluator::fillG4Particle">
<polygon fill="none" stroke="#000000" points="575,-384.5 575,-404.5 732,-404.5 732,-384.5 575,-384.5"/>
<text text-anchor="middle" x="653.5" y="-391.5" font-family="FreeSans" font-size="10.00" fill="#000000">ActsEvaluator::fillG4Particle</text>
</a>
</g>
</g>
<!-- Node16&#45;&gt;Node20 -->
<g id="edge22" class="edge">
<title>Node16&#45;&gt;Node20</title>
<path fill="none" stroke="#191970" d="M522.4947,-398.5002C539.2648,-397.9881 557.4727,-397.4321 574.8307,-396.9021"/>
<polygon fill="#191970" stroke="#191970" points="522.1476,-395.009 512.2591,-398.8127 522.3613,-402.0058 522.1476,-395.009"/>
</g>
<!-- Node23 -->
<g id="node23" class="node">
<title>Node23</title>
<g id="a_node23"><a xlink:href="../../d6/d11/classSvtxEvaluator.html#ace95fef2b7b4ad8b797f6695e053dd6e" target="_top" xlink:title="dump the evaluator information into ntuple for external analysis">
<polygon fill="none" stroke="#000000" points="1186,-567.5 1186,-599.5 1327,-599.5 1327,-567.5 1186,-567.5"/>
<text text-anchor="start" x="1194" y="-586.5" font-family="FreeSans" font-size="10.00" fill="#000000">SvtxEvaluator::fillOutput</text>
<text text-anchor="middle" x="1256.5" y="-574.5" font-family="FreeSans" font-size="10.00" fill="#000000">Ntuples</text>
</a>
</g>
</g>
<!-- Node16&#45;&gt;Node23 -->
<g id="edge25" class="edge">
<title>Node16&#45;&gt;Node23</title>
<path fill="none" stroke="#191970" d="M515.1705,-419.3984C532.0595,-424.3035 550.6338,-429.1448 568,-432.5 695.6358,-457.1599 1030.6102,-440.0695 1150,-491.5 1189.4937,-508.513 1225.0214,-545.6175 1243.3695,-567.1464"/>
<polygon fill="#191970" stroke="#191970" points="516.0255,-416.0014 505.4431,-416.5137 514.0352,-422.7125 516.0255,-416.0014"/>
</g>
<!-- Node25 -->
<g id="node25" class="node">
<title>Node25</title>
<g id="a_node25"><a xlink:href="../../d4/d21/classSvtxVertexEval.html#a7ff115ef20337311f4d7edb1d2409f20" target="_top" xlink:title="SvtxVertexEval::all\l_truth_points">
<polygon fill="none" stroke="#000000" points="598,-500.5 598,-532.5 709,-532.5 709,-500.5 598,-500.5"/>
<text text-anchor="start" x="606" y="-519.5" font-family="FreeSans" font-size="10.00" fill="#000000">SvtxVertexEval::all</text>
<text text-anchor="middle" x="653.5" y="-507.5" font-family="FreeSans" font-size="10.00" fill="#000000">_truth_points</text>
</a>
</g>
</g>
<!-- Node16&#45;&gt;Node25 -->
<g id="edge27" class="edge">
<title>Node16&#45;&gt;Node25</title>
<path fill="none" stroke="#191970" d="M521.2813,-419.2494C525.0676,-421.4163 528.6803,-423.8247 532,-426.5 555.9181,-445.7751 544.2187,-466.0564 568,-485.5 576.6788,-492.5958 587.1203,-498.1402 597.679,-502.4479"/>
<polygon fill="#191970" stroke="#191970" points="522.6869,-416.0375 512.1874,-414.6194 519.5109,-422.2756 522.6869,-416.0375"/>
</g>
<!-- Node30 -->
<g id="node30" class="node">
<title>Node30</title>
<g id="a_node30"><a xlink:href="../../d4/d21/classSvtxVertexEval.html#a266c840c37e717d884d65b0b77806e96" target="_top" xlink:title="SvtxVertexEval::get\l_ntracks_contribution">
<polygon fill="none" stroke="#000000" points="591,-574.5 591,-606.5 716,-606.5 716,-574.5 591,-574.5"/>
<text text-anchor="start" x="599" y="-593.5" font-family="FreeSans" font-size="10.00" fill="#000000">SvtxVertexEval::get</text>
<text text-anchor="middle" x="653.5" y="-581.5" font-family="FreeSans" font-size="10.00" fill="#000000">_ntracks_contribution</text>
</a>
</g>
</g>
<!-- Node16&#45;&gt;Node30 -->
<g id="edge35" class="edge">
<title>Node16&#45;&gt;Node30</title>
<path fill="none" stroke="#191970" d="M521.1965,-417.7555C525.1281,-420.2826 528.7865,-423.1794 532,-426.5 569.5398,-465.291 534.0536,-500.5284 568,-542.5 579.1332,-556.2652 595.3315,-566.768 610.6421,-574.3874"/>
<polygon fill="#191970" stroke="#191970" points="522.6648,-414.568 512.2197,-412.7931 519.2781,-420.6943 522.6648,-414.568"/>
</g>
<!-- Node18 -->
<g id="node18" class="node">
<title>Node18</title>
<g id="a_node18"><a xlink:href="../../d9/dae/classKFParticle__nTuple.html#ac32b873cf95657eb34d8b572ad692172" target="_top" xlink:title="Fills required information for your selection, also requests truth and detector information if needed...">
<polygon fill="none" stroke="#000000" points="1201.5,-410.5 1201.5,-442.5 1311.5,-442.5 1311.5,-410.5 1201.5,-410.5"/>
<text text-anchor="start" x="1209.5" y="-429.5" font-family="FreeSans" font-size="10.00" fill="#000000">KFParticle_nTuple::</text>
<text text-anchor="middle" x="1256.5" y="-417.5" font-family="FreeSans" font-size="10.00" fill="#000000">fillBranch</text>
</a>
</g>
</g>
<!-- Node17&#45;&gt;Node18 -->
<g id="edge20" class="edge">
<title>Node17&#45;&gt;Node18</title>
<path fill="none" stroke="#191970" d="M1160.3588,-426.5C1174.3511,-426.5 1188.4464,-426.5 1201.3687,-426.5"/>
<polygon fill="#191970" stroke="#191970" points="1160.2068,-423.0001 1150.2068,-426.5 1160.2067,-430.0001 1160.2068,-423.0001"/>
</g>
<!-- Node19 -->
<g id="node19" class="node">
<title>Node19</title>
<g id="a_node19"><a xlink:href="../../d5/d72/classKFParticle__sPHENIX.html#a7e5ad7cf075fbf8e68a781e7721fec81" target="_top" xlink:title="KFParticle_sPHENIX\l::process_event">
<polygon fill="none" stroke="#000000" points="1372,-410.5 1372,-442.5 1486,-442.5 1486,-410.5 1372,-410.5"/>
<text text-anchor="start" x="1380" y="-429.5" font-family="FreeSans" font-size="10.00" fill="#000000">KFParticle_sPHENIX</text>
<text text-anchor="middle" x="1429" y="-417.5" font-family="FreeSans" font-size="10.00" fill="#000000">::process_event</text>
</a>
</g>
</g>
<!-- Node18&#45;&gt;Node19 -->
<g id="edge21" class="edge">
<title>Node18&#45;&gt;Node19</title>
<path fill="none" stroke="#191970" d="M1321.6567,-426.5C1338.1468,-426.5 1355.7328,-426.5 1371.7968,-426.5"/>
<polygon fill="#191970" stroke="#191970" points="1321.5544,-423.0001 1311.5544,-426.5 1321.5543,-430.0001 1321.5544,-423.0001"/>
</g>
<!-- Node21 -->
<g id="node21" class="node">
<title>Node21</title>
<g id="a_node21"><a xlink:href="../../d3/d32/classActsEvaluator.html#a1dcade956fd83a14249e38b5783b0f00" target="_top" xlink:title="Function to evaluate Trajectories fit results from the KF.">
<polygon fill="none" stroke="#000000" points="775,-384.5 775,-404.5 956,-404.5 956,-384.5 775,-384.5"/>
<text text-anchor="middle" x="865.5" y="-391.5" font-family="FreeSans" font-size="10.00" fill="#000000">ActsEvaluator::evaluateTrackFits</text>
</a>
</g>
</g>
<!-- Node20&#45;&gt;Node21 -->
<g id="edge23" class="edge">
<title>Node20&#45;&gt;Node21</title>
<path fill="none" stroke="#191970" d="M742.3462,-394.5C753.0844,-394.5 764.0638,-394.5 774.8278,-394.5"/>
<polygon fill="#191970" stroke="#191970" points="742.1397,-391.0001 732.1397,-394.5 742.1397,-398.0001 742.1397,-391.0001"/>
</g>
<!-- Node22 -->
<g id="node22" class="node">
<title>Node22</title>
<g id="a_node22"><a xlink:href="../../d3/d32/classActsEvaluator.html#abb2053b5956d62192691b2b74ed05ec4" target="_top" xlink:title="ActsEvaluator::process\l_event">
<polygon fill="none" stroke="#000000" points="1005,-359.5 1005,-391.5 1137,-391.5 1137,-359.5 1005,-359.5"/>
<text text-anchor="start" x="1013" y="-378.5" font-family="FreeSans" font-size="10.00" fill="#000000">ActsEvaluator::process</text>
<text text-anchor="middle" x="1071" y="-366.5" font-family="FreeSans" font-size="10.00" fill="#000000">_event</text>
</a>
</g>
</g>
<!-- Node21&#45;&gt;Node22 -->
<g id="edge24" class="edge">
<title>Node21&#45;&gt;Node22</title>
<path fill="none" stroke="#191970" d="M966.2294,-385.1868C979.3305,-383.9755 992.4755,-382.7602 1004.8119,-381.6196"/>
<polygon fill="#191970" stroke="#191970" points="965.8688,-381.7051 956.2335,-386.111 966.5133,-388.6754 965.8688,-381.7051"/>
</g>
<!-- Node24 -->
<g id="node24" class="node">
<title>Node24</title>
<g id="a_node24"><a xlink:href="../../d6/d11/classSvtxEvaluator.html#a1eb230f92b6f2cabb175f1349697200d" target="_top" xlink:title="SvtxEvaluator::process\l_event">
<polygon fill="none" stroke="#000000" points="1363,-567.5 1363,-599.5 1495,-599.5 1495,-567.5 1363,-567.5"/>
<text text-anchor="start" x="1371" y="-586.5" font-family="FreeSans" font-size="10.00" fill="#000000">SvtxEvaluator::process</text>
<text text-anchor="middle" x="1429" y="-574.5" font-family="FreeSans" font-size="10.00" fill="#000000">_event</text>
</a>
</g>
</g>
<!-- Node23&#45;&gt;Node24 -->
<g id="edge26" class="edge">
<title>Node23&#45;&gt;Node24</title>
<path fill="none" stroke="#191970" d="M1337.2055,-583.5C1345.8091,-583.5 1354.4867,-583.5 1362.8937,-583.5"/>
<polygon fill="#191970" stroke="#191970" points="1337.1601,-580.0001 1327.1601,-583.5 1337.16,-587.0001 1337.1601,-580.0001"/>
</g>
<!-- Node26 -->
<g id="node26" class="node">
<title>Node26</title>
<g id="a_node26"><a xlink:href="../../d4/d21/classSvtxVertexEval.html#aa7e59a495f87824e3f1088d1f5436ecb" target="_top" xlink:title="SvtxVertexEval::max\l_truth_point_by_ntracks">
<polygon fill="none" stroke="#000000" points="796.5,-500.5 796.5,-532.5 934.5,-532.5 934.5,-500.5 796.5,-500.5"/>
<text text-anchor="start" x="804.5" y="-519.5" font-family="FreeSans" font-size="10.00" fill="#000000">SvtxVertexEval::max</text>
<text text-anchor="middle" x="865.5" y="-507.5" font-family="FreeSans" font-size="10.00" fill="#000000">_truth_point_by_ntracks</text>
</a>
</g>
</g>
<!-- Node25&#45;&gt;Node26 -->
<g id="edge28" class="edge">
<title>Node25&#45;&gt;Node26</title>
<path fill="none" stroke="#191970" d="M719.4234,-516.5C743.7933,-516.5 771.4774,-516.5 796.1429,-516.5"/>
<polygon fill="#191970" stroke="#191970" points="719.2005,-513.0001 709.2005,-516.5 719.2005,-520.0001 719.2005,-513.0001"/>
</g>
<!-- Node28 -->
<g id="node28" class="node">
<title>Node28</title>
<g id="a_node28"><a xlink:href="../../d4/d21/classSvtxVertexEval.html#a8d536f79d01ad909dcfbf24bada4c0bf" target="_top" xlink:title="SvtxVertexEval::all\l_vertexes_from">
<polygon fill="none" stroke="#000000" points="810,-551.5 810,-583.5 921,-583.5 921,-551.5 810,-551.5"/>
<text text-anchor="start" x="818" y="-570.5" font-family="FreeSans" font-size="10.00" fill="#000000">SvtxVertexEval::all</text>
<text text-anchor="middle" x="865.5" y="-558.5" font-family="FreeSans" font-size="10.00" fill="#000000">_vertexes_from</text>
</a>
</g>
</g>
<!-- Node25&#45;&gt;Node28 -->
<g id="edge32" class="edge">
<title>Node25&#45;&gt;Node28</title>
<path fill="none" stroke="#191970" d="M719.2535,-532.3181C748.2821,-539.3014 782.04,-547.4224 809.8038,-554.1014"/>
<polygon fill="#191970" stroke="#191970" points="719.7418,-528.8357 709.2005,-529.8996 718.1045,-535.6416 719.7418,-528.8357"/>
</g>
<!-- Node26&#45;&gt;Node17 -->
<g id="edge29" class="edge">
<title>Node26&#45;&gt;Node17</title>
<path fill="none" stroke="#191970" d="M911.7999,-496.2227C948.8115,-480.0132 999.9932,-457.5979 1034.2329,-442.6024"/>
<polygon fill="#191970" stroke="#191970" points="909.9952,-493.192 902.2393,-500.4098 912.8034,-499.6041 909.9952,-493.192"/>
</g>
<!-- Node26&#45;&gt;Node23 -->
<g id="edge31" class="edge">
<title>Node26&#45;&gt;Node23</title>
<path fill="none" stroke="#191970" d="M944.7984,-533.4176C960.4183,-536.5749 976.7049,-539.7444 992,-542.5 1057.5115,-554.3026 1132.5264,-565.7343 1185.8961,-573.5146"/>
<polygon fill="#191970" stroke="#191970" points="945.1449,-529.9164 934.6474,-531.3491 943.7471,-536.7754 945.1449,-529.9164"/>
</g>
<!-- Node27 -->
<g id="node27" class="node">
<title>Node27</title>
<g id="a_node27"><a xlink:href="../../d1/d05/classQAG4SimulationVertex.html#a5d6b9df173a4094d3744572a9e2410d0" target="_top" xlink:title="QAG4SimulationVertex\l::process_event">
<polygon fill="none" stroke="#000000" points="1005,-500.5 1005,-532.5 1137,-532.5 1137,-500.5 1005,-500.5"/>
<text text-anchor="start" x="1013" y="-519.5" font-family="FreeSans" font-size="10.00" fill="#000000">QAG4SimulationVertex</text>
<text text-anchor="middle" x="1071" y="-507.5" font-family="FreeSans" font-size="10.00" fill="#000000">::process_event</text>
</a>
</g>
</g>
<!-- Node26&#45;&gt;Node27 -->
<g id="edge30" class="edge">
<title>Node26&#45;&gt;Node27</title>
<path fill="none" stroke="#191970" d="M944.7724,-516.5C964.6643,-516.5 985.7966,-516.5 1004.9658,-516.5"/>
<polygon fill="#191970" stroke="#191970" points="944.5002,-513.0001 934.5002,-516.5 944.5002,-520.0001 944.5002,-513.0001"/>
</g>
<!-- Node29 -->
<g id="node29" class="node">
<title>Node29</title>
<g id="a_node29"><a xlink:href="../../d4/d21/classSvtxVertexEval.html#ac76bf94cd6531f13664e0d56a052dbfe" target="_top" xlink:title="SvtxVertexEval::best\l_vertex_from">
<polygon fill="none" stroke="#000000" points="1010,-590.5 1010,-622.5 1132,-622.5 1132,-590.5 1010,-590.5"/>
<text text-anchor="start" x="1018" y="-609.5" font-family="FreeSans" font-size="10.00" fill="#000000">SvtxVertexEval::best</text>
<text text-anchor="middle" x="1071" y="-597.5" font-family="FreeSans" font-size="10.00" fill="#000000">_vertex_from</text>
</a>
</g>
</g>
<!-- Node28&#45;&gt;Node29 -->
<g id="edge33" class="edge">
<title>Node28&#45;&gt;Node29</title>
<path fill="none" stroke="#191970" d="M930.9834,-579.9275C956.2798,-584.7283 985.062,-590.1906 1009.9246,-594.909"/>
<polygon fill="#191970" stroke="#191970" points="931.5885,-576.4799 921.1113,-578.054 930.2833,-583.3572 931.5885,-576.4799"/>
</g>
<!-- Node29&#45;&gt;Node23 -->
<g id="edge34" class="edge">
<title>Node29&#45;&gt;Node23</title>
<path fill="none" stroke="#191970" d="M1142.4997,-597.6348C1156.7716,-595.8652 1171.7529,-594.0077 1185.9912,-592.2423"/>
<polygon fill="#191970" stroke="#191970" points="1141.7471,-594.2012 1132.2537,-598.9052 1142.6084,-601.148 1141.7471,-594.2012"/>
</g>
<!-- Node30&#45;&gt;Node23 -->
<g id="edge36" class="edge">
<title>Node30&#45;&gt;Node23</title>
<path fill="none" stroke="#191970" d="M721.8758,-609.0145C818.4001,-632.2869 999.6251,-665.434 1150,-632.5 1178.8281,-626.1863 1209.1663,-611.3048 1230.0554,-599.5868"/>
<polygon fill="#191970" stroke="#191970" points="722.4969,-605.5633 711.9514,-606.5842 720.8318,-612.3624 722.4969,-605.5633"/>
</g>
<!-- Node30&#45;&gt;Node26 -->
<g id="edge37" class="edge">
<title>Node30&#45;&gt;Node26</title>
<path fill="none" stroke="#191970" d="M700.7113,-570.6213C723.0471,-561.5337 750.2009,-550.9389 775,-542.5 785.0593,-539.0769 795.8448,-535.7159 806.3391,-532.6062"/>
<polygon fill="#191970" stroke="#191970" points="699.3817,-567.3836 691.4547,-574.413 702.0351,-573.8612 699.3817,-567.3836"/>
</g>
<!-- Node30&#45;&gt;Node29 -->
<g id="edge38" class="edge">
<title>Node30&#45;&gt;Node29</title>
<path fill="none" stroke="#191970" d="M726.0362,-593.2798C806.3257,-596.3568 934.3327,-601.2624 1009.7704,-604.1535"/>
<polygon fill="#191970" stroke="#191970" points="726.1307,-589.781 716.004,-592.8954 725.8626,-596.7758 726.1307,-589.781"/>
</g>
<!-- Node32 -->
<g id="node32" class="node">
<title>Node32</title>
<g id="a_node32"><a xlink:href="../../dd/d59/classCaloEvaluator.html#a5298ee9646d361a4960fc0e20f83c880" target="_top" xlink:title="dump the evaluator information into ntuple for external analysis">
<polygon fill="none" stroke="#000000" points="583,-333.5 583,-365.5 724,-365.5 724,-333.5 583,-333.5"/>
<text text-anchor="start" x="591" y="-352.5" font-family="FreeSans" font-size="10.00" fill="#000000">CaloEvaluator::fillOutput</text>
<text text-anchor="middle" x="653.5" y="-340.5" font-family="FreeSans" font-size="10.00" fill="#000000">Ntuples</text>
</a>
</g>
</g>
<!-- Node31&#45;&gt;Node32 -->
<g id="edge40" class="edge">
<title>Node31&#45;&gt;Node32</title>
<path fill="none" stroke="#191970" d="M522.4988,-349.5C541.8732,-349.5 563.1663,-349.5 582.8507,-349.5"/>
<polygon fill="#191970" stroke="#191970" points="522.2592,-346.0001 512.2591,-349.5 522.2591,-353.0001 522.2592,-346.0001"/>
</g>
<!-- Node34 -->
<g id="node34" class="node">
<title>Node34</title>
<g id="a_node34"><a xlink:href="../../dd/d59/classCaloEvaluator.html#ab7e09466d57c5b93274f09f61c0f321e" target="_top" xlink:title="print out the ancestry information for detailed diagnosis">
<polygon fill="none" stroke="#000000" points="568,-294.5 568,-314.5 739,-314.5 739,-294.5 568,-294.5"/>
<text text-anchor="middle" x="653.5" y="-301.5" font-family="FreeSans" font-size="10.00" fill="#000000">CaloEvaluator::printOutputInfo</text>
</a>
</g>
</g>
<!-- Node31&#45;&gt;Node34 -->
<g id="edge42" class="edge">
<title>Node31&#45;&gt;Node34</title>
<path fill="none" stroke="#191970" d="M522.2075,-334.567C550.8878,-327.999 583.8196,-320.4573 609.5268,-314.5702"/>
<polygon fill="#191970" stroke="#191970" points="521.2255,-331.2012 512.2591,-336.8452 522.7881,-338.0246 521.2255,-331.2012"/>
</g>
<!-- Node33 -->
<g id="node33" class="node">
<title>Node33</title>
<g id="a_node33"><a xlink:href="../../dd/d59/classCaloEvaluator.html#ab0007637af39a6efee41168c44d5bbdf" target="_top" xlink:title="CaloEvaluator::process\l_event">
<polygon fill="none" stroke="#000000" points="799.5,-311.5 799.5,-343.5 931.5,-343.5 931.5,-311.5 799.5,-311.5"/>
<text text-anchor="start" x="807.5" y="-330.5" font-family="FreeSans" font-size="10.00" fill="#000000">CaloEvaluator::process</text>
<text text-anchor="middle" x="865.5" y="-318.5" font-family="FreeSans" font-size="10.00" fill="#000000">_event</text>
</a>
</g>
</g>
<!-- Node32&#45;&gt;Node33 -->
<g id="edge41" class="edge">
<title>Node32&#45;&gt;Node33</title>
<path fill="none" stroke="#191970" d="M734.1641,-341.1292C755.6264,-338.902 778.5608,-336.522 799.1601,-334.3843"/>
<polygon fill="#191970" stroke="#191970" points="733.6782,-337.6607 724.0929,-342.1743 734.4008,-344.6233 733.6782,-337.6607"/>
</g>
<!-- Node34&#45;&gt;Node33 -->
<g id="edge43" class="edge">
<title>Node34&#45;&gt;Node33</title>
<path fill="none" stroke="#191970" d="M749.0843,-314.87C766.106,-316.7167 783.4894,-318.6026 799.456,-320.3348"/>
<polygon fill="#191970" stroke="#191970" points="749.4366,-311.3878 739.1174,-313.7887 748.6816,-318.3469 749.4366,-311.3878"/>
</g>
<!-- Node36 -->
<g id="node36" class="node">
<title>Node36</title>
<g id="a_node36"><a xlink:href="../../d1/d1e/classSvtxClusterEval.html#aea125d30358376360f89706a917607c0" target="_top" xlink:title="SvtxClusterEval::best\l_cluster_by_nhit">
<polygon fill="none" stroke="#000000" points="394.5,-243.5 394.5,-275.5 519.5,-275.5 519.5,-243.5 394.5,-243.5"/>
<text text-anchor="start" x="402.5" y="-262.5" font-family="FreeSans" font-size="10.00" fill="#000000">SvtxClusterEval::best</text>
<text text-anchor="middle" x="457" y="-250.5" font-family="FreeSans" font-size="10.00" fill="#000000">_cluster_by_nhit</text>
</a>
</g>
</g>
<!-- Node35&#45;&gt;Node36 -->
<g id="edge45" class="edge">
<title>Node35&#45;&gt;Node36</title>
<path fill="none" stroke="#191970" d="M342.4274,-259.5C359.8375,-259.5 377.951,-259.5 394.4981,-259.5"/>
<polygon fill="#191970" stroke="#191970" points="342.2751,-256.0001 332.2751,-259.5 342.2751,-263.0001 342.2751,-256.0001"/>
</g>
<!-- Node36&#45;&gt;Node37 -->
<g id="edge46" class="edge">
<title>Node36&#45;&gt;Node37</title>
<path fill="none" stroke="#191970" d="M529.8679,-259.5C550.2004,-259.5 572.09,-259.5 591.7169,-259.5"/>
<polygon fill="#191970" stroke="#191970" points="529.7141,-256.0001 519.7141,-259.5 529.7141,-263.0001 529.7141,-256.0001"/>
</g>
<!-- Node43 -->
<g id="node43" class="node">
<title>Node43</title>
<g id="a_node43"><a xlink:href="../../dd/d9d/classPHG4TruthEventAction.html#a6e21705bda487e9e4110fb8c7910240d" target="_top" xlink:title="PHG4TruthEventAction\l::EndOfEventAction">
<polygon fill="none" stroke="#000000" points="392,-.5 392,-32.5 522,-32.5 522,-.5 392,-.5"/>
<text text-anchor="start" x="400" y="-19.5" font-family="FreeSans" font-size="10.00" fill="#000000">PHG4TruthEventAction</text>
<text text-anchor="middle" x="457" y="-7.5" font-family="FreeSans" font-size="10.00" fill="#000000">::EndOfEventAction</text>
</a>
</g>
</g>
<!-- Node42&#45;&gt;Node43 -->
<g id="edge53" class="edge">
<title>Node42&#45;&gt;Node43</title>
<path fill="none" stroke="#191970" d="M335.7617,-16.5C354.1907,-16.5 373.763,-16.5 391.6825,-16.5"/>
<polygon fill="#191970" stroke="#191970" points="335.6588,-13.0001 325.6587,-16.5 335.6587,-20.0001 335.6588,-13.0001"/>
</g>
</g>
</svg>
