<?xml version="1.0" encoding="UTF-8" standalone="no"?>
<!DOCTYPE svg PUBLIC "-//W3C//DTD SVG 1.1//EN"
 "http://www.w3.org/Graphics/SVG/1.1/DTD/svg11.dtd">
<!-- Generated by graphviz version 2.40.1 (20161225.0304)
 -->
<!-- Title: G4GenericMessenger::G4GenericMessenger Pages: 1 -->
<svg width="339pt" height="68pt"
 viewBox="0.00 0.00 339.00 68.00" xmlns="http://www.w3.org/2000/svg" xmlns:xlink="http://www.w3.org/1999/xlink">
<g id="graph0" class="graph" transform="scale(1 1) rotate(0) translate(4 64)">
<title>G4GenericMessenger::G4GenericMessenger</title>
<!-- Node1 -->
<g id="node1" class="node">
<title>Node1</title>
<polygon fill="#bfbfbf" stroke="#000000" points="0,-13.5 0,-45.5 132,-45.5 132,-13.5 0,-13.5"/>
<text text-anchor="start" x="8" y="-32.5" font-family="FreeSans" font-size="10.00" fill="#000000">G4GenericMessenger</text>
<text text-anchor="middle" x="66" y="-20.5" font-family="FreeSans" font-size="10.00" fill="#000000">::G4GenericMessenger</text>
</g>
<!-- Node2 -->
<g id="node2" class="node">
<title>Node2</title>
<g id="a_node2"><a xlink:href="../../dc/de5/PHG4mRICHDetector_8cc.html#a11ded6fc3d3fab0e72612c3886df87a0" target="_top" xlink:title="pos">
<polygon fill="none" stroke="#000000" points="232.5,-39.5 232.5,-59.5 266.5,-59.5 266.5,-39.5 232.5,-39.5"/>
<text text-anchor="middle" x="249.5" y="-46.5" font-family="FreeSans" font-size="10.00" fill="#000000">pos</text>
</a>
</g>
</g>
<!-- Node1&#45;&gt;Node2 -->
<g id="edge1" class="edge">
<title>Node1&#45;&gt;Node2</title>
<path fill="none" stroke="#191970" d="M132.2477,-36.7205C163.2283,-40.0971 198.4227,-43.933 222.1006,-46.5137"/>
<polygon fill="#191970" stroke="#191970" points="221.7924,-50.0007 232.1128,-47.6049 222.5509,-43.0419 221.7924,-50.0007"/>
</g>
<!-- Node3 -->
<g id="node3" class="node">
<title>Node3</title>
<g id="a_node3"><a xlink:href="../../d2/dd2/classG4UIcommand.html#a791eb299b62778e033543435923778c0" target="_top" xlink:title="G4UIcommand::SetGuidance">
<polygon fill="none" stroke="#000000" points="168,-.5 168,-20.5 331,-20.5 331,-.5 168,-.5"/>
<text text-anchor="middle" x="249.5" y="-7.5" font-family="FreeSans" font-size="10.00" fill="#000000">G4UIcommand::SetGuidance</text>
</a>
</g>
</g>
<!-- Node1&#45;&gt;Node3 -->
<g id="edge2" class="edge">
<title>Node1&#45;&gt;Node3</title>
<path fill="none" stroke="#191970" d="M132.2477,-22.6406C140.5855,-21.7772 149.2286,-20.8823 157.8702,-19.9876"/>
<polygon fill="#191970" stroke="#191970" points="158.4094,-23.4505 167.9957,-18.9391 157.6884,-16.4878 158.4094,-23.4505"/>
</g>
</g>
</svg>
