<?xml version="1.0" encoding="UTF-8" standalone="no"?>
<!DOCTYPE svg PUBLIC "-//W3C//DTD SVG 1.1//EN"
 "http://www.w3.org/Graphics/SVG/1.1/DTD/svg11.dtd">
<!-- Generated by graphviz version 2.40.1 (20161225.0304)
 -->
<!-- Title: G4AtimaEnergyLossModel::ComputeCrossSectionPerAtom Pages: 1 -->
<svg width="1183pt" height="323pt"
 viewBox="0.00 0.00 1183.00 323.00" xmlns="http://www.w3.org/2000/svg" xmlns:xlink="http://www.w3.org/1999/xlink">
<g id="graph0" class="graph" transform="scale(1 1) rotate(0) translate(4 319)">
<title>G4AtimaEnergyLossModel::ComputeCrossSectionPerAtom</title>
<!-- Node1 -->
<g id="node1" class="node">
<title>Node1</title>
<polygon fill="#bfbfbf" stroke="#000000" points="0,-222.5 0,-254.5 177,-254.5 177,-222.5 0,-222.5"/>
<text text-anchor="start" x="8" y="-241.5" font-family="FreeSans" font-size="10.00" fill="#000000">G4AtimaEnergyLossModel</text>
<text text-anchor="middle" x="88.5" y="-229.5" font-family="FreeSans" font-size="10.00" fill="#000000">::ComputeCrossSectionPerAtom</text>
</g>
<!-- Node2 -->
<g id="node2" class="node">
<title>Node2</title>
<g id="a_node2"><a xlink:href="../../d0/dd3/classG4AtimaEnergyLossModel.html#a6d3276b6e6a581b892064b031f0e6ba5" target="_top" xlink:title="G4AtimaEnergyLossModel\l::ComputeCrossSectionPerElectron">
<polygon fill="none" stroke="#000000" points="213,-200.5 213,-232.5 404,-232.5 404,-200.5 213,-200.5"/>
<text text-anchor="start" x="221" y="-219.5" font-family="FreeSans" font-size="10.00" fill="#000000">G4AtimaEnergyLossModel</text>
<text text-anchor="middle" x="308.5" y="-207.5" font-family="FreeSans" font-size="10.00" fill="#000000">::ComputeCrossSectionPerElectron</text>
</a>
</g>
</g>
<!-- Node1&#45;&gt;Node2 -->
<g id="edge1" class="edge">
<title>Node1&#45;&gt;Node2</title>
<path fill="none" stroke="#191970" d="M177.0315,-229.6469C185.5274,-228.7973 194.2012,-227.9299 202.8392,-227.0661"/>
<polygon fill="#191970" stroke="#191970" points="203.3482,-230.5327 212.9502,-226.055 202.6516,-223.5675 203.3482,-230.5327"/>
</g>
<!-- Node3 -->
<g id="node3" class="node">
<title>Node3</title>
<g id="a_node3"><a xlink:href="../../df/da1/namespaceActs_1_1VectorHelpers.html#a6e1abd01ea4cac3276aba94096c85dae" target="_top" xlink:title="Calculates column&#45;wise cross products of a matrix and a vector and stores the result column&#45;wise in a...">
<polygon fill="none" stroke="#000000" points="456,-248.5 456,-280.5 572,-280.5 572,-248.5 456,-248.5"/>
<text text-anchor="start" x="464" y="-267.5" font-family="FreeSans" font-size="10.00" fill="#000000">Acts::VectorHelpers</text>
<text text-anchor="middle" x="514" y="-255.5" font-family="FreeSans" font-size="10.00" fill="#000000">::cross</text>
</a>
</g>
</g>
<!-- Node1&#45;&gt;Node3 -->
<g id="edge21" class="edge">
<title>Node1&#45;&gt;Node3</title>
<path fill="none" stroke="#191970" d="M177.1808,-243.9188C257.0848,-248.8013 372.8793,-255.8769 445.7634,-260.3304"/>
<polygon fill="#191970" stroke="#191970" points="445.5598,-263.8244 455.7547,-260.9409 445.9868,-256.8375 445.5598,-263.8244"/>
</g>
<!-- Node2&#45;&gt;Node3 -->
<g id="edge2" class="edge">
<title>Node2&#45;&gt;Node3</title>
<path fill="none" stroke="#191970" d="M377.2142,-232.55C399.3735,-237.7259 423.9136,-243.4579 446.0197,-248.6214"/>
<polygon fill="#191970" stroke="#191970" points="445.4539,-252.0834 455.9879,-250.9497 447.0461,-245.2668 445.4539,-252.0834"/>
</g>
<!-- Node4 -->
<g id="node4" class="node">
<title>Node4</title>
<g id="a_node4"><a xlink:href="../../d0/dd3/classG4AtimaEnergyLossModel.html#a0e6f61f8467019a5d8c98ccf6df801fc" target="_top" xlink:title="G4AtimaEnergyLossModel\l::MaxSecondaryEnergy">
<polygon fill="none" stroke="#000000" points="440,-197.5 440,-229.5 588,-229.5 588,-197.5 440,-197.5"/>
<text text-anchor="start" x="448" y="-216.5" font-family="FreeSans" font-size="10.00" fill="#000000">G4AtimaEnergyLossModel</text>
<text text-anchor="middle" x="514" y="-204.5" font-family="FreeSans" font-size="10.00" fill="#000000">::MaxSecondaryEnergy</text>
</a>
</g>
</g>
<!-- Node2&#45;&gt;Node4 -->
<g id="edge3" class="edge">
<title>Node2&#45;&gt;Node4</title>
<path fill="none" stroke="#191970" d="M404.0307,-215.1054C412.6001,-214.9803 421.2368,-214.8542 429.7008,-214.7306"/>
<polygon fill="#191970" stroke="#191970" points="429.9754,-218.2271 439.9232,-214.5814 429.8732,-211.2279 429.9754,-218.2271"/>
</g>
<!-- Node15 -->
<g id="node15" class="node">
<title>Node15</title>
<g id="a_node15"><a xlink:href="../../db/dfe/G4Log_8hh.html#ae72e5c92ee3e3857a2617f563c9e0589" target="_top" xlink:title="G4Log">
<polygon fill="none" stroke="#000000" points="490,-148.5 490,-168.5 538,-168.5 538,-148.5 490,-148.5"/>
<text text-anchor="middle" x="514" y="-155.5" font-family="FreeSans" font-size="10.00" fill="#000000">G4Log</text>
</a>
</g>
</g>
<!-- Node2&#45;&gt;Node15 -->
<g id="edge15" class="edge">
<title>Node2&#45;&gt;Node15</title>
<path fill="none" stroke="#191970" d="M365.1978,-200.4977C402.0218,-190.1045 448.7959,-176.9031 479.9766,-168.1027"/>
<polygon fill="#191970" stroke="#191970" points="481.243,-171.3821 489.9163,-165.2974 479.3415,-164.6453 481.243,-171.3821"/>
</g>
<!-- Node5 -->
<g id="node5" class="node">
<title>Node5</title>
<g id="a_node5"><a xlink:href="../../d0/dd3/classG4AtimaEnergyLossModel.html#a48d2fa6a3cd69ff8ad23cb355c55bca8" target="_top" xlink:title="G4AtimaEnergyLossModel\l::SetParticle">
<polygon fill="none" stroke="#000000" points="640,-207.5 640,-239.5 788,-239.5 788,-207.5 640,-207.5"/>
<text text-anchor="start" x="648" y="-226.5" font-family="FreeSans" font-size="10.00" fill="#000000">G4AtimaEnergyLossModel</text>
<text text-anchor="middle" x="714" y="-214.5" font-family="FreeSans" font-size="10.00" fill="#000000">::SetParticle</text>
</a>
</g>
</g>
<!-- Node4&#45;&gt;Node5 -->
<g id="edge4" class="edge">
<title>Node4&#45;&gt;Node5</title>
<path fill="none" stroke="#191970" d="M588.1884,-217.2094C601.7856,-217.8893 616.0663,-218.6033 629.9279,-219.2964"/>
<polygon fill="#191970" stroke="#191970" points="629.7691,-222.7927 639.9314,-219.7966 630.1187,-215.8015 629.7691,-222.7927"/>
</g>
<!-- Node6 -->
<g id="node6" class="node">
<title>Node6</title>
<g id="a_node6"><a xlink:href="../../d5/d38/classG4ParticleDefinition.html#a48ebd992c974d96c776e3d6e41ca8ff5" target="_top" xlink:title="G4ParticleDefinition\l::GetBaryonNumber">
<polygon fill="none" stroke="#000000" points="855,-252.5 855,-284.5 973,-284.5 973,-252.5 855,-252.5"/>
<text text-anchor="start" x="863" y="-271.5" font-family="FreeSans" font-size="10.00" fill="#000000">G4ParticleDefinition</text>
<text text-anchor="middle" x="914" y="-259.5" font-family="FreeSans" font-size="10.00" fill="#000000">::GetBaryonNumber</text>
</a>
</g>
</g>
<!-- Node5&#45;&gt;Node6 -->
<g id="edge5" class="edge">
<title>Node5&#45;&gt;Node6</title>
<path fill="none" stroke="#191970" d="M785.3576,-239.5555C804.7501,-243.9188 825.7122,-248.6352 844.9733,-252.969"/>
<polygon fill="#191970" stroke="#191970" points="844.3488,-256.4159 854.8732,-255.1965 845.8854,-249.5866 844.3488,-256.4159"/>
</g>
<!-- Node7 -->
<g id="node7" class="node">
<title>Node7</title>
<g id="a_node7"><a xlink:href="../../d5/d38/classG4ParticleDefinition.html#aa751e870d4b72ded8ba24677bb6a656c" target="_top" xlink:title="G4ParticleDefinition\l::GetPDGCharge">
<polygon fill="none" stroke="#000000" points="1041.5,-282.5 1041.5,-314.5 1157.5,-314.5 1157.5,-282.5 1041.5,-282.5"/>
<text text-anchor="start" x="1049.5" y="-301.5" font-family="FreeSans" font-size="10.00" fill="#000000">G4ParticleDefinition</text>
<text text-anchor="middle" x="1099.5" y="-289.5" font-family="FreeSans" font-size="10.00" fill="#000000">::GetPDGCharge</text>
</a>
</g>
</g>
<!-- Node5&#45;&gt;Node7 -->
<g id="edge6" class="edge">
<title>Node5&#45;&gt;Node7</title>
<path fill="none" stroke="#191970" d="M788.287,-216.8902C845.0329,-214.6474 924.0934,-217.6928 988,-243.5 1007.3121,-251.2987 1005.7952,-263.3826 1024,-273.5 1027.0493,-275.1947 1030.2321,-276.7983 1033.4924,-278.3125"/>
<polygon fill="#191970" stroke="#191970" points="1032.2705,-281.5971 1042.839,-282.3437 1035.0428,-275.1694 1032.2705,-281.5971"/>
</g>
<!-- Node8 -->
<g id="node8" class="node">
<title>Node8</title>
<g id="a_node8"><a xlink:href="../../d0/dd3/classG4AtimaEnergyLossModel.html#a3efb1c97ca41e78d5216ea0a24de3a73" target="_top" xlink:title="G4AtimaEnergyLossModel\l::SetupParameters">
<polygon fill="none" stroke="#000000" points="840,-154.5 840,-186.5 988,-186.5 988,-154.5 840,-154.5"/>
<text text-anchor="start" x="848" y="-173.5" font-family="FreeSans" font-size="10.00" fill="#000000">G4AtimaEnergyLossModel</text>
<text text-anchor="middle" x="914" y="-161.5" font-family="FreeSans" font-size="10.00" fill="#000000">::SetupParameters</text>
</a>
</g>
</g>
<!-- Node5&#45;&gt;Node8 -->
<g id="edge7" class="edge">
<title>Node5&#45;&gt;Node8</title>
<path fill="none" stroke="#191970" d="M774.5493,-207.4544C796.282,-201.6953 820.9753,-195.1516 843.4808,-189.1876"/>
<polygon fill="#191970" stroke="#191970" points="844.5418,-192.5273 853.3116,-186.5824 842.7487,-185.7609 844.5418,-192.5273"/>
</g>
<!-- Node8&#45;&gt;Node7 -->
<g id="edge10" class="edge">
<title>Node8&#45;&gt;Node7</title>
<path fill="none" stroke="#191970" d="M954.4083,-186.5383C966.1741,-192.5255 978.4244,-200.1828 988,-209.5 1011.3904,-232.2591 998.8109,-252.7492 1024,-273.5 1026.6926,-275.7181 1029.5891,-277.742 1032.623,-279.5882"/>
<polygon fill="#191970" stroke="#191970" points="1031.0145,-282.6971 1041.482,-284.335 1034.3206,-276.527 1031.0145,-282.6971"/>
</g>
<!-- Node9 -->
<g id="node9" class="node">
<title>Node9</title>
<g id="a_node9"><a xlink:href="../../d5/d38/classG4ParticleDefinition.html#ad823b2f7c489766de74c562e2a3909bf" target="_top" xlink:title="G4ParticleDefinition\l::GetPDGMass">
<polygon fill="none" stroke="#000000" points="1041.5,-231.5 1041.5,-263.5 1157.5,-263.5 1157.5,-231.5 1041.5,-231.5"/>
<text text-anchor="start" x="1049.5" y="-250.5" font-family="FreeSans" font-size="10.00" fill="#000000">G4ParticleDefinition</text>
<text text-anchor="middle" x="1099.5" y="-238.5" font-family="FreeSans" font-size="10.00" fill="#000000">::GetPDGMass</text>
</a>
</g>
</g>
<!-- Node8&#45;&gt;Node9 -->
<g id="edge8" class="edge">
<title>Node8&#45;&gt;Node9</title>
<path fill="none" stroke="#191970" d="M945.3177,-186.5558C967.0859,-197.4047 996.9363,-211.6691 1024,-222.5 1028.687,-224.3757 1033.5752,-226.2256 1038.5116,-228.0188"/>
<polygon fill="#191970" stroke="#191970" points="1037.429,-231.3483 1048.0237,-231.3891 1039.7669,-224.7503 1037.429,-231.3483"/>
</g>
<!-- Node10 -->
<g id="node10" class="node">
<title>Node10</title>
<g id="a_node10"><a xlink:href="../../d5/d38/classG4ParticleDefinition.html#a41db289a1e553511da19c15e8875a3e6" target="_top" xlink:title="G4ParticleDefinition\l::GetPDGSpin">
<polygon fill="none" stroke="#000000" points="1041.5,-180.5 1041.5,-212.5 1157.5,-212.5 1157.5,-180.5 1041.5,-180.5"/>
<text text-anchor="start" x="1049.5" y="-199.5" font-family="FreeSans" font-size="10.00" fill="#000000">G4ParticleDefinition</text>
<text text-anchor="middle" x="1099.5" y="-187.5" font-family="FreeSans" font-size="10.00" fill="#000000">::GetPDGSpin</text>
</a>
</g>
</g>
<!-- Node8&#45;&gt;Node10 -->
<g id="edge9" class="edge">
<title>Node8&#45;&gt;Node10</title>
<path fill="none" stroke="#191970" d="M988.1142,-180.888C1002.4065,-182.8912 1017.3145,-184.9807 1031.404,-186.9555"/>
<polygon fill="#191970" stroke="#191970" points="1031.1092,-190.4484 1041.4982,-188.3704 1032.0809,-183.5161 1031.1092,-190.4484"/>
</g>
<!-- Node11 -->
<g id="node11" class="node">
<title>Node11</title>
<g id="a_node11"><a xlink:href="../../d5/d38/classG4ParticleDefinition.html#aae0eeabb077d52fa68ad6ad955714724" target="_top" xlink:title="G4ParticleDefinition\l::GetPDGMagneticMoment">
<polygon fill="none" stroke="#000000" points="1024,-129.5 1024,-161.5 1175,-161.5 1175,-129.5 1024,-129.5"/>
<text text-anchor="start" x="1032" y="-148.5" font-family="FreeSans" font-size="10.00" fill="#000000">G4ParticleDefinition</text>
<text text-anchor="middle" x="1099.5" y="-136.5" font-family="FreeSans" font-size="10.00" fill="#000000">::GetPDGMagneticMoment</text>
</a>
</g>
</g>
<!-- Node8&#45;&gt;Node11 -->
<g id="edge11" class="edge">
<title>Node8&#45;&gt;Node11</title>
<path fill="none" stroke="#191970" d="M988.1142,-160.5116C996.6006,-159.3678 1005.3042,-158.1949 1013.9245,-157.0331"/>
<polygon fill="#191970" stroke="#191970" points="1014.545,-160.4812 1023.9879,-155.6768 1013.61,-153.5439 1014.545,-160.4812"/>
</g>
<!-- Node12 -->
<g id="node12" class="node">
<title>Node12</title>
<g id="a_node12"><a xlink:href="../../d5/d38/classG4ParticleDefinition.html#a49690d1676e108396dfc28c6cc4e3470" target="_top" xlink:title="G4ParticleDefinition\l::GetLeptonNumber">
<polygon fill="none" stroke="#000000" points="1041.5,-78.5 1041.5,-110.5 1157.5,-110.5 1157.5,-78.5 1041.5,-78.5"/>
<text text-anchor="start" x="1049.5" y="-97.5" font-family="FreeSans" font-size="10.00" fill="#000000">G4ParticleDefinition</text>
<text text-anchor="middle" x="1099.5" y="-85.5" font-family="FreeSans" font-size="10.00" fill="#000000">::GetLeptonNumber</text>
</a>
</g>
</g>
<!-- Node8&#45;&gt;Node12 -->
<g id="edge12" class="edge">
<title>Node8&#45;&gt;Node12</title>
<path fill="none" stroke="#191970" d="M947.3435,-154.3452C968.9719,-144.1157 997.8864,-130.9041 1024,-120.5 1029.4452,-118.3305 1035.1513,-116.1685 1040.8835,-114.0705"/>
<polygon fill="#191970" stroke="#191970" points="1042.2861,-117.2857 1050.5135,-110.6104 1039.9191,-110.698 1042.2861,-117.2857"/>
</g>
<!-- Node13 -->
<g id="node13" class="node">
<title>Node13</title>
<g id="a_node13"><a xlink:href="../../d2/d54/templates_8hh.html#a7fb2b8c71918ecf5c3556578f32e4e75" target="_top" xlink:title="G4lrint">
<polygon fill="none" stroke="#000000" points="1074,-39.5 1074,-59.5 1125,-59.5 1125,-39.5 1074,-39.5"/>
<text text-anchor="middle" x="1099.5" y="-46.5" font-family="FreeSans" font-size="10.00" fill="#000000">G4lrint</text>
</a>
</g>
</g>
<!-- Node8&#45;&gt;Node13 -->
<g id="edge13" class="edge">
<title>Node8&#45;&gt;Node13</title>
<path fill="none" stroke="#191970" d="M951.9817,-154.3965C964.4227,-147.8995 977.6847,-139.5384 988,-129.5 1010.5607,-107.5449 998.7891,-87.3526 1024,-68.5 1035.4723,-59.9211 1050.386,-55.189 1063.9253,-52.5889"/>
<polygon fill="#191970" stroke="#191970" points="1064.6098,-56.024 1073.9312,-50.9878 1063.5037,-49.1119 1064.6098,-56.024"/>
</g>
<!-- Node14 -->
<g id="node14" class="node">
<title>Node14</title>
<g id="a_node14"><a xlink:href="../../d2/d00/classG4NistManager.html#aa1c650a74efe270870f383f4fa9b1a24" target="_top" xlink:title="G4NistManager::GetA27">
<polygon fill="none" stroke="#000000" points="1030.5,-.5 1030.5,-20.5 1168.5,-20.5 1168.5,-.5 1030.5,-.5"/>
<text text-anchor="middle" x="1099.5" y="-7.5" font-family="FreeSans" font-size="10.00" fill="#000000">G4NistManager::GetA27</text>
</a>
</g>
</g>
<!-- Node8&#45;&gt;Node14 -->
<g id="edge14" class="edge">
<title>Node8&#45;&gt;Node14</title>
<path fill="none" stroke="#191970" d="M955.0294,-154.4517C966.9593,-148.1562 979.1463,-139.9012 988,-129.5 1018.6182,-93.5301 988.9865,-61.2075 1024,-29.5 1025.5028,-28.1391 1027.0887,-26.8724 1028.7428,-25.6936"/>
<polygon fill="#191970" stroke="#191970" points="1030.6901,-28.6082 1037.5128,-20.5025 1027.1245,-22.5844 1030.6901,-28.6082"/>
</g>
<!-- Node16 -->
<g id="node16" class="node">
<title>Node16</title>
<g id="a_node16"><a xlink:href="../../d3/d9f/namespaceG4LogConsts.html#a080084213a00e3dc29211e4e578127f4" target="_top" xlink:title="G4LogConsts::get_log_px">
<polygon fill="none" stroke="#000000" points="642,-168.5 642,-188.5 786,-188.5 786,-168.5 642,-168.5"/>
<text text-anchor="middle" x="714" y="-175.5" font-family="FreeSans" font-size="10.00" fill="#000000">G4LogConsts::get_log_px</text>
</a>
</g>
</g>
<!-- Node15&#45;&gt;Node16 -->
<g id="edge16" class="edge">
<title>Node15&#45;&gt;Node16</title>
<path fill="none" stroke="#191970" d="M538.1247,-160.9125C561.2866,-163.2287 597.623,-166.8623 631.2696,-170.227"/>
<polygon fill="#191970" stroke="#191970" points="631.309,-173.7483 641.6077,-171.2608 632.0056,-166.783 631.309,-173.7483"/>
</g>
<!-- Node17 -->
<g id="node17" class="node">
<title>Node17</title>
<g id="a_node17"><a xlink:href="../../d3/d9f/namespaceG4LogConsts.html#abafea919b94d1e25edf69344bdb8269a" target="_top" xlink:title="G4LogConsts::get_log_qx">
<polygon fill="none" stroke="#000000" points="642,-129.5 642,-149.5 786,-149.5 786,-129.5 642,-129.5"/>
<text text-anchor="middle" x="714" y="-136.5" font-family="FreeSans" font-size="10.00" fill="#000000">G4LogConsts::get_log_qx</text>
</a>
</g>
</g>
<!-- Node15&#45;&gt;Node17 -->
<g id="edge17" class="edge">
<title>Node15&#45;&gt;Node17</title>
<path fill="none" stroke="#191970" d="M538.1247,-156.2082C561.2866,-154.0078 597.623,-150.5558 631.2696,-147.3594"/>
<polygon fill="#191970" stroke="#191970" points="631.9835,-150.8074 641.6077,-146.3773 631.3214,-143.8388 631.9835,-150.8074"/>
</g>
<!-- Node18 -->
<g id="node18" class="node">
<title>Node18</title>
<g id="a_node18"><a xlink:href="../../d3/d9f/namespaceG4LogConsts.html#aab62ca6c71dcc1505d4ce94f673f1b52" target="_top" xlink:title="Like frexp but vectorising and the exponent is a double.">
<polygon fill="none" stroke="#000000" points="624,-90.5 624,-110.5 804,-110.5 804,-90.5 624,-90.5"/>
<text text-anchor="middle" x="714" y="-97.5" font-family="FreeSans" font-size="10.00" fill="#000000">G4LogConsts::getMantExponent</text>
</a>
</g>
</g>
<!-- Node15&#45;&gt;Node18 -->
<g id="edge18" class="edge">
<title>Node15&#45;&gt;Node18</title>
<path fill="none" stroke="#191970" d="M538.2133,-149.2426C560.3346,-140.9997 594.0595,-128.9685 624,-120.5 633.5877,-117.7882 643.8342,-115.2126 653.8522,-112.8674"/>
<polygon fill="#191970" stroke="#191970" points="654.7926,-116.2428 663.7612,-110.6024 653.2327,-109.4188 654.7926,-116.2428"/>
</g>
<!-- Node19 -->
<g id="node19" class="node">
<title>Node19</title>
<g id="a_node19"><a xlink:href="../../d3/d9f/namespaceG4LogConsts.html#a1f15a1e0545d715b1662d9489af3643b" target="_top" xlink:title="G4LogConsts::dp2uint64">
<polygon fill="none" stroke="#000000" points="843.5,-99.5 843.5,-119.5 984.5,-119.5 984.5,-99.5 843.5,-99.5"/>
<text text-anchor="middle" x="914" y="-106.5" font-family="FreeSans" font-size="10.00" fill="#000000">G4LogConsts::dp2uint64</text>
</a>
</g>
</g>
<!-- Node18&#45;&gt;Node19 -->
<g id="edge19" class="edge">
<title>Node18&#45;&gt;Node19</title>
<path fill="none" stroke="#191970" d="M804.0537,-104.5524C813.7237,-104.9876 823.5189,-105.4284 833.073,-105.8583"/>
<polygon fill="#191970" stroke="#191970" points="833.1808,-109.3666 843.3281,-106.3198 833.4956,-102.3737 833.1808,-109.3666"/>
</g>
<!-- Node20 -->
<g id="node20" class="node">
<title>Node20</title>
<g id="a_node20"><a xlink:href="../../d3/d9f/namespaceG4LogConsts.html#acaeec03b136462b4d5e9f1fb97d6ce13" target="_top" xlink:title="G4LogConsts::uint642dp">
<polygon fill="none" stroke="#000000" points="843.5,-60.5 843.5,-80.5 984.5,-80.5 984.5,-60.5 843.5,-60.5"/>
<text text-anchor="middle" x="914" y="-67.5" font-family="FreeSans" font-size="10.00" fill="#000000">G4LogConsts::uint642dp</text>
</a>
</g>
</g>
<!-- Node18&#45;&gt;Node20 -->
<g id="edge20" class="edge">
<title>Node18&#45;&gt;Node20</title>
<path fill="none" stroke="#191970" d="M780.8752,-90.4687C798.9716,-87.7543 818.6996,-84.7951 837.2905,-82.0064"/>
<polygon fill="#191970" stroke="#191970" points="837.8177,-85.4666 847.1879,-80.5218 836.7793,-78.544 837.8177,-85.4666"/>
</g>
</g>
</svg>
