<?xml version="1.0" encoding="UTF-8" standalone="no"?>
<!DOCTYPE svg PUBLIC "-//W3C//DTD SVG 1.1//EN"
 "http://www.w3.org/Graphics/SVG/1.1/DTD/svg11.dtd">
<!-- Generated by graphviz version 2.40.1 (20161225.0304)
 -->
<!-- Title: ExN04CalorimeterHit::GetPhi Pages: 1 -->
<svg width="750pt" height="143pt"
 viewBox="0.00 0.00 750.00 143.00" xmlns="http://www.w3.org/2000/svg" xmlns:xlink="http://www.w3.org/1999/xlink">
<g id="graph0" class="graph" transform="scale(1 1) rotate(0) translate(4 139)">
<title>ExN04CalorimeterHit::GetPhi</title>
<!-- Node1 -->
<g id="node1" class="node">
<title>Node1</title>
<polygon fill="#bfbfbf" stroke="#000000" points="0,-76.5 0,-108.5 123,-108.5 123,-76.5 0,-76.5"/>
<text text-anchor="start" x="8" y="-95.5" font-family="FreeSans" font-size="10.00" fill="#000000">ExN04CalorimeterHit</text>
<text text-anchor="middle" x="61.5" y="-83.5" font-family="FreeSans" font-size="10.00" fill="#000000">::GetPhi</text>
</g>
<!-- Node2 -->
<g id="node2" class="node">
<title>Node2</title>
<g id="a_node2"><a xlink:href="../../d7/dcc/classMarshaledExN04CalorimeterHit.html#a042ca10a8d7b46af72a8de4527ac487b" target="_top" xlink:title="MarshaledExN04Calorimeter\lHit::marshal2">
<polygon fill="none" stroke="#000000" points="159,-102.5 159,-134.5 321,-134.5 321,-102.5 159,-102.5"/>
<text text-anchor="start" x="167" y="-121.5" font-family="FreeSans" font-size="10.00" fill="#000000">MarshaledExN04Calorimeter</text>
<text text-anchor="middle" x="240" y="-109.5" font-family="FreeSans" font-size="10.00" fill="#000000">Hit::marshal2</text>
</a>
</g>
</g>
<!-- Node1&#45;&gt;Node2 -->
<g id="edge1" class="edge">
<title>Node1&#45;&gt;Node2</title>
<path fill="none" stroke="#191970" d="M133.29,-102.9568C141.6832,-104.1794 150.2908,-105.4331 158.8,-106.6726"/>
<polygon fill="#191970" stroke="#191970" points="133.5796,-99.4621 123.1795,-101.4841 132.5706,-106.389 133.5796,-99.4621"/>
</g>
<!-- Node4 -->
<g id="node4" class="node">
<title>Node4</title>
<g id="a_node4"><a xlink:href="../../d7/dcc/classMarshaledExN04CalorimeterHit.html#aa0b12ca83830c3ae90e295a14c617f67" target="_top" xlink:title="MarshaledExN04Calorimeter\lHit::unmarshal1">
<polygon fill="none" stroke="#000000" points="159,-51.5 159,-83.5 321,-83.5 321,-51.5 159,-51.5"/>
<text text-anchor="start" x="167" y="-70.5" font-family="FreeSans" font-size="10.00" fill="#000000">MarshaledExN04Calorimeter</text>
<text text-anchor="middle" x="240" y="-58.5" font-family="FreeSans" font-size="10.00" fill="#000000">Hit::unmarshal1</text>
</a>
</g>
</g>
<!-- Node1&#45;&gt;Node4 -->
<g id="edge3" class="edge">
<title>Node1&#45;&gt;Node4</title>
<path fill="none" stroke="#191970" d="M133.29,-82.4454C141.6832,-81.2699 150.2908,-80.0643 158.8,-78.8725"/>
<polygon fill="#191970" stroke="#191970" points="132.5974,-79.0081 123.1795,-83.8614 133.5684,-85.9405 132.5974,-79.0081"/>
</g>
<!-- Node3 -->
<g id="node3" class="node">
<title>Node3</title>
<g id="a_node3"><a xlink:href="../../d7/dcc/classMarshaledExN04CalorimeterHit.html#ac0c1c719bc62c930d7a0be5588bfc2fe" target="_top" xlink:title="MarshaledExN04Calorimeter\lHit::MarshaledExN04CalorimeterHit">
<polygon fill="none" stroke="#000000" points="357,-102.5 357,-134.5 554,-134.5 554,-102.5 357,-102.5"/>
<text text-anchor="start" x="365" y="-121.5" font-family="FreeSans" font-size="10.00" fill="#000000">MarshaledExN04Calorimeter</text>
<text text-anchor="middle" x="455.5" y="-109.5" font-family="FreeSans" font-size="10.00" fill="#000000">Hit::MarshaledExN04CalorimeterHit</text>
</a>
</g>
</g>
<!-- Node2&#45;&gt;Node3 -->
<g id="edge2" class="edge">
<title>Node2&#45;&gt;Node3</title>
<path fill="none" stroke="#191970" d="M331.4011,-118.5C339.8613,-118.5 348.4592,-118.5 356.9796,-118.5"/>
<polygon fill="#191970" stroke="#191970" points="331.1643,-115.0001 321.1642,-118.5 331.1642,-122.0001 331.1643,-115.0001"/>
</g>
<!-- Node5 -->
<g id="node5" class="node">
<title>Node5</title>
<g id="a_node5"><a xlink:href="../../d7/dcc/classMarshaledExN04CalorimeterHit.html#a799ee40b4bb58e9d3663cdb0be7ea6b7" target="_top" xlink:title="MarshaledExN04Calorimeter\lHit::unmarshal">
<polygon fill="none" stroke="#000000" points="374.5,-51.5 374.5,-83.5 536.5,-83.5 536.5,-51.5 374.5,-51.5"/>
<text text-anchor="start" x="382.5" y="-70.5" font-family="FreeSans" font-size="10.00" fill="#000000">MarshaledExN04Calorimeter</text>
<text text-anchor="middle" x="455.5" y="-58.5" font-family="FreeSans" font-size="10.00" fill="#000000">Hit::unmarshal</text>
</a>
</g>
</g>
<!-- Node4&#45;&gt;Node5 -->
<g id="edge4" class="edge">
<title>Node4&#45;&gt;Node5</title>
<path fill="none" stroke="#191970" d="M331.4694,-67.5C345.7367,-67.5 360.3938,-67.5 374.4089,-67.5"/>
<polygon fill="#191970" stroke="#191970" points="331.1643,-64.0001 321.1642,-67.5 331.1642,-71.0001 331.1643,-64.0001"/>
</g>
<!-- Node7 -->
<g id="node7" class="node">
<title>Node7</title>
<g id="a_node7"><a xlink:href="../../d7/dcc/classMarshaledExN04CalorimeterHit.html#a1f4973c03ac18afdc3d43d53461284dc" target="_top" xlink:title="MarshaledExN04Calorimeter\lHit::unmarshalTo">
<polygon fill="none" stroke="#000000" points="374.5,-.5 374.5,-32.5 536.5,-32.5 536.5,-.5 374.5,-.5"/>
<text text-anchor="start" x="382.5" y="-19.5" font-family="FreeSans" font-size="10.00" fill="#000000">MarshaledExN04Calorimeter</text>
<text text-anchor="middle" x="455.5" y="-7.5" font-family="FreeSans" font-size="10.00" fill="#000000">Hit::unmarshalTo</text>
</a>
</g>
</g>
<!-- Node4&#45;&gt;Node7 -->
<g id="edge6" class="edge">
<title>Node4&#45;&gt;Node7</title>
<path fill="none" stroke="#191970" d="M317.8751,-49.0702C340.6878,-43.6713 365.4403,-37.8134 387.5814,-32.5736"/>
<polygon fill="#191970" stroke="#191970" points="316.8149,-45.7243 307.8898,-51.4333 318.427,-52.5362 316.8149,-45.7243"/>
</g>
<!-- Node6 -->
<g id="node6" class="node">
<title>Node6</title>
<g id="a_node6"><a xlink:href="../../de/d35/classMarshaledG4HitsCollection.html#a8ac6175c8a0912d8fff3ea9d773e7f1d" target="_top" xlink:title="MarshaledG4HitsCollection\l::unmarshal1">
<polygon fill="none" stroke="#000000" points="590,-51.5 590,-83.5 742,-83.5 742,-51.5 590,-51.5"/>
<text text-anchor="start" x="598" y="-70.5" font-family="FreeSans" font-size="10.00" fill="#000000">MarshaledG4HitsCollection</text>
<text text-anchor="middle" x="666" y="-58.5" font-family="FreeSans" font-size="10.00" fill="#000000">::unmarshal1</text>
</a>
</g>
</g>
<!-- Node5&#45;&gt;Node6 -->
<g id="edge5" class="edge">
<title>Node5&#45;&gt;Node6</title>
<path fill="none" stroke="#191970" d="M546.9231,-67.5C561.2279,-67.5 575.8795,-67.5 589.796,-67.5"/>
<polygon fill="#191970" stroke="#191970" points="546.5837,-64.0001 536.5837,-67.5 546.5837,-71.0001 546.5837,-64.0001"/>
</g>
</g>
</svg>
